<?xml version="1.0" encoding="us-ascii" standalone="no"?><svg xmlns="http://www.w3.org/2000/svg" xmlns:xlink="http://www.w3.org/1999/xlink" contentStyleType="text/css" height="351px" preserveAspectRatio="none" style="width:768px;height:351px;background:#FFFFFF;" version="1.1" viewBox="0 0 768 351" width="768px" zoomAndPan="magnify"><defs/><g><!--cluster netty--><g id="cluster_netty"><path d="M8.5,6.0137 L61.5,6.0137 A3.75,3.75 0 0 1 64,8.5137 L71,30.6348 L758.5,30.6348 A2.5,2.5 0 0 1 761,33.1348 L761,341.5137 A2.5,2.5 0 0 1 758.5,344.0137 L8.5,344.0137 A2.5,2.5 0 0 1 6,341.5137 L6,8.5137 A2.5,2.5 0 0 1 8.5,6.0137 " fill="none" style="stroke:#000000;stroke-width:1.5;"/><line style="stroke:#000000;stroke-width:1.5;" x1="6" x2="71" y1="30.6348" y2="30.6348"/><text fill="#000000" font-family="sans-serif" font-size="14" font-weight="bold" lengthAdjust="spacing" textLength="52" x="10" y="23.1211">io.netty</text></g><!--cluster buffer--><g id="cluster_buffer"><path d="M296.5,51.0137 L340.5,51.0137 A3.75,3.75 0 0 1 343,53.5137 L350,75.6348 L734.5,75.6348 A2.5,2.5 0 0 1 737,78.1348 L737,317.5137 A2.5,2.5 0 0 1 734.5,320.0137 L296.5,320.0137 A2.5,2.5 0 0 1 294,317.5137 L294,53.5137 A2.5,2.5 0 0 1 296.5,51.0137 " fill="none" style="stroke:#000000;stroke-width:1.5;"/><line style="stroke:#000000;stroke-width:1.5;" x1="294" x2="350" y1="75.6348" y2="75.6348"/><text fill="#000000" font-family="sans-serif" font-size="14" font-weight="bold" lengthAdjust="spacing" textLength="43" x="298" y="68.1211">buffer</text></g><!--cluster channel--><g id="cluster_channel"><path d="M32.5,51.0137 L89.5,51.0137 A3.75,3.75 0 0 1 92,53.5137 L99,75.6348 L267.5,75.6348 A2.5,2.5 0 0 1 270,78.1348 L270,133.5137 A2.5,2.5 0 0 1 267.5,136.0137 L32.5,136.0137 A2.5,2.5 0 0 1 30,133.5137 L30,53.5137 A2.5,2.5 0 0 1 32.5,51.0137 " fill="none" style="stroke:#000000;stroke-width:1.5;"/><line style="stroke:#000000;stroke-width:1.5;" x1="30" x2="99" y1="75.6348" y2="75.6348"/><text fill="#000000" font-family="sans-serif" font-size="14" font-weight="bold" lengthAdjust="spacing" textLength="56" x="34" y="68.1211">channel</text></g><!--class AbstractByteBufAllocator--><g id="elem_AbstractByteBufAllocator"><rect codeLine="1" fill="#F1F1F1" height="32" id="AbstractByteBufAllocator" rx="2.5" ry="2.5" style="stroke:#181818;stroke-width:0.5;" width="188" x="310" y="180.0137"/><ellipse cx="325" cy="196.0137" fill="#A9DCDF" rx="11" ry="11" style="stroke:#181818;stroke-width:1.0;"/><path d="M325.4219,196.498 L322.8594,196.498 L322.3281,198.7949 Q322.2656,199.123 322.2656,199.2793 Q322.2656,199.498 322.3125,199.6543 Q322.375,199.8105 322.6563,199.8105 L323.125,199.8105 L323.125,200.748 L320.1406,200.748 L320.1406,199.8105 L320.5938,199.8105 Q320.7656,199.8105 320.8906,199.7168 Q321.0156,199.6074 321.0625,199.3105 L323.7031,188.9824 L325.1094,188.5137 L327.6875,199.2793 Q327.7969,199.5918 327.9219,199.7012 Q328.0625,199.8105 328.2344,199.8105 L328.7031,199.8105 L328.7031,200.748 L325.3125,200.748 L325.3125,199.8105 L325.8438,199.8105 Q326.0625,199.8105 326.0781,199.7637 Q326.1094,199.7012 326.1094,199.623 Q326.1094,199.4043 326.0625,199.2168 L325.4219,196.498 Z M320.8594,200.3418 L320.8594,200.3418 Z M321.5313,200.3418 L321.5313,200.3418 Z M326.25,200.3418 L326.25,200.3418 Z M327.375,200.3418 L327.375,200.3418 Z M324.1875,190.4043 L324.25,190.4043 L323.1406,195.5605 L325.2344,195.5605 L324.1875,190.4043 Z " fill="#000000"/><text fill="#000000" font-family="sans-serif" font-size="14" font-style="italic" lengthAdjust="spacing" textLength="156" x="339" y="201.8105">AbstractByteBufAllocator</text></g><!--class ByteBufAllocator--><g id="elem_ByteBufAllocator"><rect codeLine="1" fill="#F1F1F1" height="32" id="ByteBufAllocator" rx="2.5" ry="2.5" style="stroke:#181818;stroke-width:0.5;" width="136" x="323" y="88.0137"/><ellipse cx="338" cy="104.0137" fill="#B4A7E5" rx="11" ry="11" style="stroke:#181818;stroke-width:1.0;"/><path d="M334.5938,98.7949 L334.5938,97.8574 L340.4375,97.8574 L340.4375,98.7949 L338.6406,98.7949 Q338.4688,98.7949 338.3906,98.8574 Q338.3125,98.9199 338.3125,99.0605 L338.3125,108.5449 Q338.3125,108.6855 338.3906,108.748 Q338.4688,108.8105 338.6406,108.8105 L340.4375,108.8105 L340.4375,109.748 L334.5938,109.748 L334.5938,108.8105 L336.3906,108.8105 Q336.6094,108.8105 336.6563,108.7637 Q336.7188,108.7012 336.7188,108.5449 L336.7188,99.0605 Q336.7188,98.9043 336.6563,98.8574 Q336.6094,98.7949 336.3906,98.7949 L334.5938,98.7949 Z " fill="#000000"/><text fill="#000000" font-family="sans-serif" font-size="14" font-style="italic" lengthAdjust="spacing" textLength="104" x="352" y="109.8105">ByteBufAllocator</text></g><!--class PooledByteBufAllocator--><g id="elem_PooledByteBufAllocator"><rect codeLine="1" fill="#F1F1F1" height="32" id="PooledByteBufAllocator" rx="2.5" ry="2.5" style="stroke:#181818;stroke-width:0.5;" width="180" x="310" y="272.0137"/><ellipse cx="325" cy="288.0137" fill="#ADD1B2" rx="11" ry="11" style="stroke:#181818;stroke-width:1.0;"/><path d="M324.3438,293.873 Q322.3594,293.873 321.1875,292.4043 Q320.0313,290.9199 320.0313,287.8418 Q320.0313,285.2324 321.25,283.4824 Q322.4844,281.7324 324.6094,281.7324 Q325.1094,281.7324 325.6406,281.873 Q326.0781,282.0605 326.3438,282.0605 Q326.5625,282.0605 326.6563,282.0137 Q326.7656,281.9668 327.2188,281.373 L327.9844,285.1074 L327.0938,285.373 Q326.6406,283.9199 326.0313,283.3262 Q325.4375,282.7168 324.4844,282.7168 Q323.2656,282.7168 322.5469,284.1543 Q321.8281,285.5762 321.8281,287.7637 Q321.8281,290.1699 322.4375,291.4668 Q323.0625,292.748 324.4219,292.748 Q325.375,292.748 326.0625,292.0605 Q326.75,291.3574 327.0781,289.8574 L327.9844,290.2637 Q327.5781,291.9668 326.6094,292.9199 Q325.6563,293.873 324.3438,293.873 Z " fill="#000000"/><text fill="#000000" font-family="sans-serif" font-size="14" lengthAdjust="spacing" textLength="148" x="339" y="293.8105">PooledByteBufAllocator</text></g><!--class UnpooledByteBufAllocator--><g id="elem_UnpooledByteBufAllocator"><rect codeLine="1" fill="#F1F1F1" height="32" id="UnpooledByteBufAllocator" rx="2.5" ry="2.5" style="stroke:#181818;stroke-width:0.5;" width="196" x="525" y="272.0137"/><ellipse cx="540" cy="288.0137" fill="#ADD1B2" rx="11" ry="11" style="stroke:#181818;stroke-width:1.0;"/><path d="M539.3438,293.873 Q537.3594,293.873 536.1875,292.4043 Q535.0313,290.9199 535.0313,287.8418 Q535.0313,285.2324 536.25,283.4824 Q537.4844,281.7324 539.6094,281.7324 Q540.1094,281.7324 540.6406,281.873 Q541.0781,282.0605 541.3438,282.0605 Q541.5625,282.0605 541.6563,282.0137 Q541.7656,281.9668 542.2188,281.373 L542.9844,285.1074 L542.0938,285.373 Q541.6406,283.9199 541.0313,283.3262 Q540.4375,282.7168 539.4844,282.7168 Q538.2656,282.7168 537.5469,284.1543 Q536.8281,285.5762 536.8281,287.7637 Q536.8281,290.1699 537.4375,291.4668 Q538.0625,292.748 539.4219,292.748 Q540.375,292.748 541.0625,292.0605 Q541.75,291.3574 542.0781,289.8574 L542.9844,290.2637 Q542.5781,291.9668 541.6094,292.9199 Q540.6563,293.873 539.3438,293.873 Z " fill="#000000"/><text fill="#000000" font-family="sans-serif" font-size="14" lengthAdjust="spacing" textLength="164" x="554" y="293.8105">UnpooledByteBufAllocator</text></g><!--class PreferHeapByteBufAllocator--><g id="elem_PreferHeapByteBufAllocator"><rect codeLine="1" fill="#F1F1F1" height="32" id="PreferHeapByteBufAllocator" rx="2.5" ry="2.5" style="stroke:#181818;stroke-width:0.5;" width="208" x="46" y="88.0137"/><ellipse cx="61" cy="104.0137" fill="#ADD1B2" rx="11" ry="11" style="stroke:#181818;stroke-width:1.0;"/><path d="M60.3438,109.873 Q58.3594,109.873 57.1875,108.4043 Q56.0313,106.9199 56.0313,103.8418 Q56.0313,101.2324 57.25,99.4824 Q58.4844,97.7324 60.6094,97.7324 Q61.1094,97.7324 61.6406,97.873 Q62.0781,98.0605 62.3438,98.0605 Q62.5625,98.0605 62.6563,98.0137 Q62.7656,97.9668 63.2188,97.373 L63.9844,101.1074 L63.0938,101.373 Q62.6406,99.9199 62.0313,99.3262 Q61.4375,98.7168 60.4844,98.7168 Q59.2656,98.7168 58.5469,100.1543 Q57.8281,101.5762 57.8281,103.7637 Q57.8281,106.1699 58.4375,107.4668 Q59.0625,108.748 60.4219,108.748 Q61.375,108.748 62.0625,108.0605 Q62.75,107.3574 63.0781,105.8574 L63.9844,106.2637 Q63.5781,107.9668 62.6094,108.9199 Q61.6563,109.873 60.3438,109.873 Z " fill="#000000"/><text fill="#000000" font-family="sans-serif" font-size="14" lengthAdjust="spacing" textLength="176" x="75" y="109.8105">PreferHeapByteBufAllocator</text></g><!--reverse link ByteBufAllocator to AbstractByteBufAllocator--><g id="link_ByteBufAllocator_AbstractByteBufAllocator"><path codeLine="9" d="M395.7781,138.0995 C398.1781,154.7495 399.44,163.4137 401.83,179.9737 " fill="none" id="ByteBufAllocator-backto-AbstractByteBufAllocator" style="stroke:#181818;stroke-width:1.0;stroke-dasharray:7.0,7.0;"/><polygon fill="none" points="393.21,120.2837,389.8394,138.9556,401.7167,137.2435,393.21,120.2837" style="stroke:#181818;stroke-width:1.0;"/></g><!--reverse link AbstractByteBufAllocator to PooledByteBufAllocator--><g id="link_AbstractByteBufAllocator_PooledByteBufAllocator"><path codeLine="10" d="M402.5208,230.2659 C401.7808,246.9159 401.4,255.4137 400.67,271.9737 " fill="none" id="AbstractByteBufAllocator-backto-PooledByteBufAllocator" style="stroke:#181818;stroke-width:1.0;"/><polygon fill="none" points="403.32,212.2837,396.5267,229.9995,408.5149,230.5323,403.32,212.2837" style="stroke:#181818;stroke-width:1.0;"/></g><!--link PreferHeapByteBufAllocator to ByteBufAllocator--><g id="link_PreferHeapByteBufAllocator_ByteBufAllocator"><path codeLine="11" d="M254.03,104.0137 C276.94,104.0137 281.86,104.0137 304.78,104.0137 " fill="none" id="PreferHeapByteBufAllocator-to-ByteBufAllocator" style="stroke:#181818;stroke-width:1.0;stroke-dasharray:7.0,7.0;"/><polygon fill="none" points="322.78,104.0137,304.78,98.0137,304.78,110.0137,322.78,104.0137" style="stroke:#181818;stroke-width:1.0;"/></g><!--reverse link AbstractByteBufAllocator to UnpooledByteBufAllocator--><g id="link_AbstractByteBufAllocator_UnpooledByteBufAllocator"><path codeLine="12" d="M457.3076,218.9189 C497.7276,235.5389 545.75,255.2637 586.22,271.9037 " fill="none" id="AbstractByteBufAllocator-backto-UnpooledByteBufAllocator" style="stroke:#181818;stroke-width:1.0;"/><polygon fill="none" points="440.66,212.0737,455.0259,224.4681,459.5894,213.3697,440.66,212.0737" style="stroke:#181818;stroke-width:1.0;"/></g><!--SRC=[bP0n3eCm34NtdC8SW723IZ2r6qiFO883KHE876T0wk7BqgKYLApsV_x_kugCKq38YHwB40SQ7GhrQ5uuKGABFf5IbLkCpoE1risGROFUhmPbvQOTaZ0QwJQXBjlskz0n1t_2NTNtw-ffl4mnMU8xORnAFfTuugXAjK7dgDyt-9shu_nGvrZlyj8vLIu0cjqqow5PAVnVEpMx_HaKecmGA0p4wGC0]--></g></svg>