<?xml version="1.0" encoding="us-ascii" standalone="no"?><svg xmlns="http://www.w3.org/2000/svg" xmlns:xlink="http://www.w3.org/1999/xlink" contentStyleType="text/css" height="800px" preserveAspectRatio="none" style="width:1199px;height:800px;background:#FFFFFF;" version="1.1" viewBox="0 0 1199 800" width="1199px" zoomAndPan="magnify"><defs/><g><!--cluster netty--><g id="cluster_netty"><path d="M8.5,6.0137 L61.5,6.0137 A3.75,3.75 0 0 1 64,8.5137 L71,30.6348 L1189.5,30.6348 A2.5,2.5 0 0 1 1192,33.1348 L1192,790.5137 A2.5,2.5 0 0 1 1189.5,793.0137 L8.5,793.0137 A2.5,2.5 0 0 1 6,790.5137 L6,8.5137 A2.5,2.5 0 0 1 8.5,6.0137 " fill="none" style="stroke:#000000;stroke-width:1.5;"/><line style="stroke:#000000;stroke-width:1.5;" x1="6" x2="71" y1="30.6348" y2="30.6348"/><text fill="#000000" font-family="sans-serif" font-size="14" font-weight="bold" lengthAdjust="spacing" textLength="52" x="10" y="23.1211">io.netty</text></g><!--cluster buffer--><g id="cluster_buffer"><path d="M32.5,224.0137 L76.5,224.0137 A3.75,3.75 0 0 1 79,226.5137 L86,248.6348 L1165.5,248.6348 A2.5,2.5 0 0 1 1168,251.1348 L1168,766.5137 A2.5,2.5 0 0 1 1165.5,769.0137 L32.5,769.0137 A2.5,2.5 0 0 1 30,766.5137 L30,226.5137 A2.5,2.5 0 0 1 32.5,224.0137 " fill="none" style="stroke:#000000;stroke-width:1.5;"/><line style="stroke:#000000;stroke-width:1.5;" x1="30" x2="86" y1="248.6348" y2="248.6348"/><text fill="#000000" font-family="sans-serif" font-size="14" font-weight="bold" lengthAdjust="spacing" textLength="43" x="34" y="241.1211">buffer</text></g><!--cluster util--><g id="cluster_util"><path d="M296.5,51.0137 L319.5,51.0137 A3.75,3.75 0 0 1 322,53.5137 L329,75.6348 L523.5,75.6348 A2.5,2.5 0 0 1 526,78.1348 L526,197.5137 A2.5,2.5 0 0 1 523.5,200.0137 L296.5,200.0137 A2.5,2.5 0 0 1 294,197.5137 L294,53.5137 A2.5,2.5 0 0 1 296.5,51.0137 " fill="none" style="stroke:#000000;stroke-width:1.5;"/><line style="stroke:#000000;stroke-width:1.5;" x1="294" x2="329" y1="75.6348" y2="75.6348"/><text fill="#000000" font-family="sans-serif" font-size="14" font-weight="bold" lengthAdjust="spacing" textLength="22" x="298" y="68.1211">util</text></g><!--class AbstractByteBuf--><g id="elem_AbstractByteBuf"><rect codeLine="1" fill="#F1F1F1" height="32" id="AbstractByteBuf" rx="2.5" ry="2.5" style="stroke:#181818;stroke-width:0.5;" width="133" x="343.5" y="353.0137"/><ellipse cx="358.5" cy="369.0137" fill="#A9DCDF" rx="11" ry="11" style="stroke:#181818;stroke-width:1.0;"/><path d="M358.9219,369.498 L356.3594,369.498 L355.8281,371.7949 Q355.7656,372.123 355.7656,372.2793 Q355.7656,372.498 355.8125,372.6543 Q355.875,372.8105 356.1563,372.8105 L356.625,372.8105 L356.625,373.748 L353.6406,373.748 L353.6406,372.8105 L354.0938,372.8105 Q354.2656,372.8105 354.3906,372.7168 Q354.5156,372.6074 354.5625,372.3105 L357.2031,361.9824 L358.6094,361.5137 L361.1875,372.2793 Q361.2969,372.5918 361.4219,372.7012 Q361.5625,372.8105 361.7344,372.8105 L362.2031,372.8105 L362.2031,373.748 L358.8125,373.748 L358.8125,372.8105 L359.3438,372.8105 Q359.5625,372.8105 359.5781,372.7637 Q359.6094,372.7012 359.6094,372.623 Q359.6094,372.4043 359.5625,372.2168 L358.9219,369.498 Z M354.3594,373.3418 L354.3594,373.3418 Z M355.0313,373.3418 L355.0313,373.3418 Z M359.75,373.3418 L359.75,373.3418 Z M360.875,373.3418 L360.875,373.3418 Z M357.6875,363.4043 L357.75,363.4043 L356.6406,368.5605 L358.7344,368.5605 L357.6875,363.4043 Z " fill="#000000"/><text fill="#000000" font-family="sans-serif" font-size="14" font-style="italic" lengthAdjust="spacing" textLength="101" x="372.5" y="374.8105">AbstractByteBuf</text></g><!--class AbstractReferenceCountedByteBuf--><g id="elem_AbstractReferenceCountedByteBuf"><rect codeLine="1" fill="#F1F1F1" height="32" id="AbstractReferenceCountedByteBuf" rx="2.5" ry="2.5" style="stroke:#181818;stroke-width:0.5;" width="253" x="283.5" y="445.0137"/><ellipse cx="298.5" cy="461.0137" fill="#A9DCDF" rx="11" ry="11" style="stroke:#181818;stroke-width:1.0;"/><path d="M298.9219,461.498 L296.3594,461.498 L295.8281,463.7949 Q295.7656,464.123 295.7656,464.2793 Q295.7656,464.498 295.8125,464.6543 Q295.875,464.8105 296.1563,464.8105 L296.625,464.8105 L296.625,465.748 L293.6406,465.748 L293.6406,464.8105 L294.0938,464.8105 Q294.2656,464.8105 294.3906,464.7168 Q294.5156,464.6074 294.5625,464.3105 L297.2031,453.9824 L298.6094,453.5137 L301.1875,464.2793 Q301.2969,464.5918 301.4219,464.7012 Q301.5625,464.8105 301.7344,464.8105 L302.2031,464.8105 L302.2031,465.748 L298.8125,465.748 L298.8125,464.8105 L299.3438,464.8105 Q299.5625,464.8105 299.5781,464.7637 Q299.6094,464.7012 299.6094,464.623 Q299.6094,464.4043 299.5625,464.2168 L298.9219,461.498 Z M294.3594,465.3418 L294.3594,465.3418 Z M295.0313,465.3418 L295.0313,465.3418 Z M299.75,465.3418 L299.75,465.3418 Z M300.875,465.3418 L300.875,465.3418 Z M297.6875,455.4043 L297.75,455.4043 L296.6406,460.5605 L298.7344,460.5605 L297.6875,455.4043 Z " fill="#000000"/><text fill="#000000" font-family="sans-serif" font-size="14" font-style="italic" lengthAdjust="spacing" textLength="221" x="312.5" y="466.8105">AbstractReferenceCountedByteBuf</text></g><!--class ByteBuf--><g id="elem_ByteBuf"><rect codeLine="1" fill="#F1F1F1" height="32" id="ByteBuf" rx="2.5" ry="2.5" style="stroke:#181818;stroke-width:0.5;" width="81" x="369.5" y="261.0137"/><ellipse cx="384.5" cy="277.0137" fill="#A9DCDF" rx="11" ry="11" style="stroke:#181818;stroke-width:1.0;"/><path d="M384.9219,277.498 L382.3594,277.498 L381.8281,279.7949 Q381.7656,280.123 381.7656,280.2793 Q381.7656,280.498 381.8125,280.6543 Q381.875,280.8105 382.1563,280.8105 L382.625,280.8105 L382.625,281.748 L379.6406,281.748 L379.6406,280.8105 L380.0938,280.8105 Q380.2656,280.8105 380.3906,280.7168 Q380.5156,280.6074 380.5625,280.3105 L383.2031,269.9824 L384.6094,269.5137 L387.1875,280.2793 Q387.2969,280.5918 387.4219,280.7012 Q387.5625,280.8105 387.7344,280.8105 L388.2031,280.8105 L388.2031,281.748 L384.8125,281.748 L384.8125,280.8105 L385.3438,280.8105 Q385.5625,280.8105 385.5781,280.7637 Q385.6094,280.7012 385.6094,280.623 Q385.6094,280.4043 385.5625,280.2168 L384.9219,277.498 Z M380.3594,281.3418 L380.3594,281.3418 Z M381.0313,281.3418 L381.0313,281.3418 Z M385.75,281.3418 L385.75,281.3418 Z M386.875,281.3418 L386.875,281.3418 Z M383.6875,271.4043 L383.75,271.4043 L382.6406,276.5605 L384.7344,276.5605 L383.6875,271.4043 Z " fill="#000000"/><text fill="#000000" font-family="sans-serif" font-size="14" font-style="italic" lengthAdjust="spacing" textLength="49" x="398.5" y="282.8105">ByteBuf</text></g><!--class PooledByteBuf--><g id="elem_PooledByteBuf"><rect codeLine="1" fill="#F1F1F1" height="32" id="PooledByteBuf" rx="2.5" ry="2.5" style="stroke:#181818;stroke-width:0.5;" width="125" x="669.5" y="537.0137"/><ellipse cx="684.5" cy="553.0137" fill="#A9DCDF" rx="11" ry="11" style="stroke:#181818;stroke-width:1.0;"/><path d="M684.9219,553.498 L682.3594,553.498 L681.8281,555.7949 Q681.7656,556.123 681.7656,556.2793 Q681.7656,556.498 681.8125,556.6543 Q681.875,556.8105 682.1563,556.8105 L682.625,556.8105 L682.625,557.748 L679.6406,557.748 L679.6406,556.8105 L680.0938,556.8105 Q680.2656,556.8105 680.3906,556.7168 Q680.5156,556.6074 680.5625,556.3105 L683.2031,545.9824 L684.6094,545.5137 L687.1875,556.2793 Q687.2969,556.5918 687.4219,556.7012 Q687.5625,556.8105 687.7344,556.8105 L688.2031,556.8105 L688.2031,557.748 L684.8125,557.748 L684.8125,556.8105 L685.3438,556.8105 Q685.5625,556.8105 685.5781,556.7637 Q685.6094,556.7012 685.6094,556.623 Q685.6094,556.4043 685.5625,556.2168 L684.9219,553.498 Z M680.3594,557.3418 L680.3594,557.3418 Z M681.0313,557.3418 L681.0313,557.3418 Z M685.75,557.3418 L685.75,557.3418 Z M686.875,557.3418 L686.875,557.3418 Z M683.6875,547.4043 L683.75,547.4043 L682.6406,552.5605 L684.7344,552.5605 L683.6875,547.4043 Z " fill="#000000"/><text fill="#000000" font-family="sans-serif" font-size="14" font-style="italic" lengthAdjust="spacing" textLength="93" x="698.5" y="558.8105">PooledByteBuf</text></g><!--class PooledDirectByteBuf--><g id="elem_PooledDirectByteBuf"><rect codeLine="1" fill="#F1F1F1" height="32" id="PooledDirectByteBuf" rx="2.5" ry="2.5" style="stroke:#181818;stroke-width:0.5;" width="162" x="749" y="629.0137"/><ellipse cx="764" cy="645.0137" fill="#ADD1B2" rx="11" ry="11" style="stroke:#181818;stroke-width:1.0;"/><path d="M763.3438,650.873 Q761.3594,650.873 760.1875,649.4043 Q759.0313,647.9199 759.0313,644.8418 Q759.0313,642.2324 760.25,640.4824 Q761.4844,638.7324 763.6094,638.7324 Q764.1094,638.7324 764.6406,638.873 Q765.0781,639.0605 765.3438,639.0605 Q765.5625,639.0605 765.6563,639.0137 Q765.7656,638.9668 766.2188,638.373 L766.9844,642.1074 L766.0938,642.373 Q765.6406,640.9199 765.0313,640.3262 Q764.4375,639.7168 763.4844,639.7168 Q762.2656,639.7168 761.5469,641.1543 Q760.8281,642.5762 760.8281,644.7637 Q760.8281,647.1699 761.4375,648.4668 Q762.0625,649.748 763.4219,649.748 Q764.375,649.748 765.0625,649.0605 Q765.75,648.3574 766.0781,646.8574 L766.9844,647.2637 Q766.5781,648.9668 765.6094,649.9199 Q764.6563,650.873 763.3438,650.873 Z " fill="#000000"/><text fill="#000000" font-family="sans-serif" font-size="14" lengthAdjust="spacing" textLength="130" x="778" y="650.8105">PooledDirectByteBuf</text></g><!--class PooledHeapByteBuf--><g id="elem_PooledHeapByteBuf"><rect codeLine="1" fill="#F1F1F1" height="32" id="PooledHeapByteBuf" rx="2.5" ry="2.5" style="stroke:#181818;stroke-width:0.5;" width="158" x="556" y="629.0137"/><ellipse cx="571" cy="645.0137" fill="#ADD1B2" rx="11" ry="11" style="stroke:#181818;stroke-width:1.0;"/><path d="M570.3438,650.873 Q568.3594,650.873 567.1875,649.4043 Q566.0313,647.9199 566.0313,644.8418 Q566.0313,642.2324 567.25,640.4824 Q568.4844,638.7324 570.6094,638.7324 Q571.1094,638.7324 571.6406,638.873 Q572.0781,639.0605 572.3438,639.0605 Q572.5625,639.0605 572.6563,639.0137 Q572.7656,638.9668 573.2188,638.373 L573.9844,642.1074 L573.0938,642.373 Q572.6406,640.9199 572.0313,640.3262 Q571.4375,639.7168 570.4844,639.7168 Q569.2656,639.7168 568.5469,641.1543 Q567.8281,642.5762 567.8281,644.7637 Q567.8281,647.1699 568.4375,648.4668 Q569.0625,649.748 570.4219,649.748 Q571.375,649.748 572.0625,649.0605 Q572.75,648.3574 573.0781,646.8574 L573.9844,647.2637 Q573.5781,648.9668 572.6094,649.9199 Q571.6563,650.873 570.3438,650.873 Z " fill="#000000"/><text fill="#000000" font-family="sans-serif" font-size="14" lengthAdjust="spacing" textLength="126" x="585" y="650.8105">PooledHeapByteBuf</text></g><!--class PooledUnsafeDirectByteBuf--><g id="elem_PooledUnsafeDirectByteBuf"><rect codeLine="1" fill="#F1F1F1" height="32" id="PooledUnsafeDirectByteBuf" rx="2.5" ry="2.5" style="stroke:#181818;stroke-width:0.5;" width="206" x="946" y="629.0137"/><ellipse cx="961" cy="645.0137" fill="#ADD1B2" rx="11" ry="11" style="stroke:#181818;stroke-width:1.0;"/><path d="M960.3438,650.873 Q958.3594,650.873 957.1875,649.4043 Q956.0313,647.9199 956.0313,644.8418 Q956.0313,642.2324 957.25,640.4824 Q958.4844,638.7324 960.6094,638.7324 Q961.1094,638.7324 961.6406,638.873 Q962.0781,639.0605 962.3438,639.0605 Q962.5625,639.0605 962.6563,639.0137 Q962.7656,638.9668 963.2188,638.373 L963.9844,642.1074 L963.0938,642.373 Q962.6406,640.9199 962.0313,640.3262 Q961.4375,639.7168 960.4844,639.7168 Q959.2656,639.7168 958.5469,641.1543 Q957.8281,642.5762 957.8281,644.7637 Q957.8281,647.1699 958.4375,648.4668 Q959.0625,649.748 960.4219,649.748 Q961.375,649.748 962.0625,649.0605 Q962.75,648.3574 963.0781,646.8574 L963.9844,647.2637 Q963.5781,648.9668 962.6094,649.9199 Q961.6563,650.873 960.3438,650.873 Z " fill="#000000"/><text fill="#000000" font-family="sans-serif" font-size="14" lengthAdjust="spacing" textLength="174" x="975" y="650.8105">PooledUnsafeDirectByteBuf</text></g><!--class PooledUnsafeHeapByteBuf--><g id="elem_PooledUnsafeHeapByteBuf"><rect codeLine="1" fill="#F1F1F1" height="32" id="PooledUnsafeHeapByteBuf" rx="2.5" ry="2.5" style="stroke:#181818;stroke-width:0.5;" width="202" x="534" y="721.0137"/><ellipse cx="549" cy="737.0137" fill="#ADD1B2" rx="11" ry="11" style="stroke:#181818;stroke-width:1.0;"/><path d="M548.3438,742.873 Q546.3594,742.873 545.1875,741.4043 Q544.0313,739.9199 544.0313,736.8418 Q544.0313,734.2324 545.25,732.4824 Q546.4844,730.7324 548.6094,730.7324 Q549.1094,730.7324 549.6406,730.873 Q550.0781,731.0605 550.3438,731.0605 Q550.5625,731.0605 550.6563,731.0137 Q550.7656,730.9668 551.2188,730.373 L551.9844,734.1074 L551.0938,734.373 Q550.6406,732.9199 550.0313,732.3262 Q549.4375,731.7168 548.4844,731.7168 Q547.2656,731.7168 546.5469,733.1543 Q545.8281,734.5762 545.8281,736.7637 Q545.8281,739.1699 546.4375,740.4668 Q547.0625,741.748 548.4219,741.748 Q549.375,741.748 550.0625,741.0605 Q550.75,740.3574 551.0781,738.8574 L551.9844,739.2637 Q551.5781,740.9668 550.6094,741.9199 Q549.6563,742.873 548.3438,742.873 Z " fill="#000000"/><text fill="#000000" font-family="sans-serif" font-size="14" lengthAdjust="spacing" textLength="170" x="563" y="742.8105">PooledUnsafeHeapByteBuf</text></g><!--class UnpooledDirectByteBuf--><g id="elem_UnpooledDirectByteBuf"><rect codeLine="1" fill="#F1F1F1" height="32" id="UnpooledDirectByteBuf" rx="2.5" ry="2.5" style="stroke:#181818;stroke-width:0.5;" width="178" x="321" y="537.0137"/><ellipse cx="336" cy="553.0137" fill="#ADD1B2" rx="11" ry="11" style="stroke:#181818;stroke-width:1.0;"/><path d="M335.3438,558.873 Q333.3594,558.873 332.1875,557.4043 Q331.0313,555.9199 331.0313,552.8418 Q331.0313,550.2324 332.25,548.4824 Q333.4844,546.7324 335.6094,546.7324 Q336.1094,546.7324 336.6406,546.873 Q337.0781,547.0605 337.3438,547.0605 Q337.5625,547.0605 337.6563,547.0137 Q337.7656,546.9668 338.2188,546.373 L338.9844,550.1074 L338.0938,550.373 Q337.6406,548.9199 337.0313,548.3262 Q336.4375,547.7168 335.4844,547.7168 Q334.2656,547.7168 333.5469,549.1543 Q332.8281,550.5762 332.8281,552.7637 Q332.8281,555.1699 333.4375,556.4668 Q334.0625,557.748 335.4219,557.748 Q336.375,557.748 337.0625,557.0605 Q337.75,556.3574 338.0781,554.8574 L338.9844,555.2637 Q338.5781,556.9668 337.6094,557.9199 Q336.6563,558.873 335.3438,558.873 Z " fill="#000000"/><text fill="#000000" font-family="sans-serif" font-size="14" lengthAdjust="spacing" textLength="146" x="350" y="558.8105">UnpooledDirectByteBuf</text></g><!--class UnpooledHeapByteBuf--><g id="elem_UnpooledHeapByteBuf"><rect codeLine="1" fill="#F1F1F1" height="32" id="UnpooledHeapByteBuf" rx="2.5" ry="2.5" style="stroke:#181818;stroke-width:0.5;" width="174" x="90" y="537.0137"/><ellipse cx="105" cy="553.0137" fill="#ADD1B2" rx="11" ry="11" style="stroke:#181818;stroke-width:1.0;"/><path d="M104.3438,558.873 Q102.3594,558.873 101.1875,557.4043 Q100.0313,555.9199 100.0313,552.8418 Q100.0313,550.2324 101.25,548.4824 Q102.4844,546.7324 104.6094,546.7324 Q105.1094,546.7324 105.6406,546.873 Q106.0781,547.0605 106.3438,547.0605 Q106.5625,547.0605 106.6563,547.0137 Q106.7656,546.9668 107.2188,546.373 L107.9844,550.1074 L107.0938,550.373 Q106.6406,548.9199 106.0313,548.3262 Q105.4375,547.7168 104.4844,547.7168 Q103.2656,547.7168 102.5469,549.1543 Q101.8281,550.5762 101.8281,552.7637 Q101.8281,555.1699 102.4375,556.4668 Q103.0625,557.748 104.4219,557.748 Q105.375,557.748 106.0625,557.0605 Q106.75,556.3574 107.0781,554.8574 L107.9844,555.2637 Q107.5781,556.9668 106.6094,557.9199 Q105.6563,558.873 104.3438,558.873 Z " fill="#000000"/><text fill="#000000" font-family="sans-serif" font-size="14" lengthAdjust="spacing" textLength="142" x="119" y="558.8105">UnpooledHeapByteBuf</text></g><!--class UnpooledUnsafeDirectByteBuf--><g id="elem_UnpooledUnsafeDirectByteBuf"><rect codeLine="1" fill="#F1F1F1" height="32" id="UnpooledUnsafeDirectByteBuf" rx="2.5" ry="2.5" style="stroke:#181818;stroke-width:0.5;" width="222" x="299" y="629.0137"/><ellipse cx="314" cy="645.0137" fill="#ADD1B2" rx="11" ry="11" style="stroke:#181818;stroke-width:1.0;"/><path d="M313.3438,650.873 Q311.3594,650.873 310.1875,649.4043 Q309.0313,647.9199 309.0313,644.8418 Q309.0313,642.2324 310.25,640.4824 Q311.4844,638.7324 313.6094,638.7324 Q314.1094,638.7324 314.6406,638.873 Q315.0781,639.0605 315.3438,639.0605 Q315.5625,639.0605 315.6563,639.0137 Q315.7656,638.9668 316.2188,638.373 L316.9844,642.1074 L316.0938,642.373 Q315.6406,640.9199 315.0313,640.3262 Q314.4375,639.7168 313.4844,639.7168 Q312.2656,639.7168 311.5469,641.1543 Q310.8281,642.5762 310.8281,644.7637 Q310.8281,647.1699 311.4375,648.4668 Q312.0625,649.748 313.4219,649.748 Q314.375,649.748 315.0625,649.0605 Q315.75,648.3574 316.0781,646.8574 L316.9844,647.2637 Q316.5781,648.9668 315.6094,649.9199 Q314.6563,650.873 313.3438,650.873 Z " fill="#000000"/><text fill="#000000" font-family="sans-serif" font-size="14" lengthAdjust="spacing" textLength="190" x="328" y="650.8105">UnpooledUnsafeDirectByteBuf</text></g><!--class UnpooledUnsafeHeapByteBuf--><g id="elem_UnpooledUnsafeHeapByteBuf"><rect codeLine="1" fill="#F1F1F1" height="32" id="UnpooledUnsafeHeapByteBuf" rx="2.5" ry="2.5" style="stroke:#181818;stroke-width:0.5;" width="218" x="46" y="629.0137"/><ellipse cx="61" cy="645.0137" fill="#ADD1B2" rx="11" ry="11" style="stroke:#181818;stroke-width:1.0;"/><path d="M60.3438,650.873 Q58.3594,650.873 57.1875,649.4043 Q56.0313,647.9199 56.0313,644.8418 Q56.0313,642.2324 57.25,640.4824 Q58.4844,638.7324 60.6094,638.7324 Q61.1094,638.7324 61.6406,638.873 Q62.0781,639.0605 62.3438,639.0605 Q62.5625,639.0605 62.6563,639.0137 Q62.7656,638.9668 63.2188,638.373 L63.9844,642.1074 L63.0938,642.373 Q62.6406,640.9199 62.0313,640.3262 Q61.4375,639.7168 60.4844,639.7168 Q59.2656,639.7168 58.5469,641.1543 Q57.8281,642.5762 57.8281,644.7637 Q57.8281,647.1699 58.4375,648.4668 Q59.0625,649.748 60.4219,649.748 Q61.375,649.748 62.0625,649.0605 Q62.75,648.3574 63.0781,646.8574 L63.9844,647.2637 Q63.5781,648.9668 62.6094,649.9199 Q61.6563,650.873 60.3438,650.873 Z " fill="#000000"/><text fill="#000000" font-family="sans-serif" font-size="14" lengthAdjust="spacing" textLength="186" x="75" y="650.8105">UnpooledUnsafeHeapByteBuf</text></g><!--class ReferenceCounted--><g id="elem_ReferenceCounted"><rect codeLine="1" fill="#F1F1F1" height="95.8633" id="ReferenceCounted" rx="2.5" ry="2.5" style="stroke:#181818;stroke-width:0.5;" width="200" x="310" y="88.0137"/><ellipse cx="346.6" cy="104.0137" fill="#B4A7E5" rx="11" ry="11" style="stroke:#181818;stroke-width:1.0;"/><path d="M343.1938,98.7949 L343.1938,97.8574 L349.0375,97.8574 L349.0375,98.7949 L347.2406,98.7949 Q347.0688,98.7949 346.9906,98.8574 Q346.9125,98.9199 346.9125,99.0605 L346.9125,108.5449 Q346.9125,108.6855 346.9906,108.748 Q347.0688,108.8105 347.2406,108.8105 L349.0375,108.8105 L349.0375,109.748 L343.1938,109.748 L343.1938,108.8105 L344.9906,108.8105 Q345.2094,108.8105 345.2563,108.7637 Q345.3188,108.7012 345.3188,108.5449 L345.3188,99.0605 Q345.3188,98.9043 345.2563,98.8574 Q345.2094,98.7949 344.9906,98.7949 L343.1938,98.7949 Z " fill="#000000"/><text fill="#000000" font-family="sans-serif" font-size="14" font-style="italic" lengthAdjust="spacing" textLength="120" x="365.4" y="109.8105">ReferenceCounted</text><line style="stroke:#181818;stroke-width:0.5;" x1="311" x2="509" y1="120.0137" y2="120.0137"/><ellipse cx="321" cy="134.8242" fill="#84BE84" rx="3" ry="3" style="stroke:#038048;stroke-width:1.0;"/><text fill="#000000" font-family="sans-serif" font-size="14" font-style="italic" lengthAdjust="spacing" textLength="116" x="330" y="139.1211">release(): boolean</text><ellipse cx="321" cy="153.4453" fill="#84BE84" rx="3" ry="3" style="stroke:#038048;stroke-width:1.0;"/><text fill="#000000" font-family="sans-serif" font-size="14" font-style="italic" lengthAdjust="spacing" textLength="174" x="330" y="157.7422">retain(): ReferenceCounted</text><ellipse cx="321" cy="172.0664" fill="#84BE84" rx="3" ry="3" style="stroke:#038048;stroke-width:1.0;"/><text fill="#000000" font-family="sans-serif" font-size="14" font-style="italic" lengthAdjust="spacing" textLength="72" x="330" y="176.3633">refCnt(): int</text></g><!--reverse link ByteBuf to AbstractByteBuf--><g id="link_ByteBuf_AbstractByteBuf"><path codeLine="17" d="M410,311.2837 C410,327.9337 410,336.4137 410,352.9737 " fill="none" id="ByteBuf-backto-AbstractByteBuf" style="stroke:#181818;stroke-width:1.0;"/><polygon fill="none" points="410,293.2837,404,311.2837,416,311.2837,410,293.2837" style="stroke:#181818;stroke-width:1.0;"/></g><!--reverse link AbstractByteBuf to AbstractReferenceCountedByteBuf--><g id="link_AbstractByteBuf_AbstractReferenceCountedByteBuf"><path codeLine="18" d="M410,403.2837 C410,419.9337 410,428.4137 410,444.9737 " fill="none" id="AbstractByteBuf-backto-AbstractReferenceCountedByteBuf" style="stroke:#181818;stroke-width:1.0;"/><polygon fill="none" points="410,385.2837,404,403.2837,416,403.2837,410,385.2837" style="stroke:#181818;stroke-width:1.0;"/></g><!--reverse link ReferenceCounted to ByteBuf--><g id="link_ReferenceCounted_ByteBuf"><path codeLine="19" d="M410,202.0737 C410,228.8537 410,242.6037 410,260.9237 " fill="none" id="ReferenceCounted-backto-ByteBuf" style="stroke:#181818;stroke-width:1.0;stroke-dasharray:7.0,7.0;"/><polygon fill="none" points="410,184.0737,404,202.0737,416,202.0737,410,184.0737" style="stroke:#181818;stroke-width:1.0;"/></g><!--reverse link AbstractReferenceCountedByteBuf to PooledByteBuf--><g id="link_AbstractReferenceCountedByteBuf_PooledByteBuf"><path codeLine="20" d="M481.2353,481.9201 C540.7553,498.5601 618.71,520.3437 678.2,536.9737 " fill="none" id="AbstractReferenceCountedByteBuf-backto-PooledByteBuf" style="stroke:#181818;stroke-width:1.0;"/><polygon fill="none" points="463.9,477.0737,479.6198,487.6985,482.8508,476.1417,463.9,477.0737" style="stroke:#181818;stroke-width:1.0;"/></g><!--reverse link PooledByteBuf to PooledDirectByteBuf--><g id="link_PooledByteBuf_PooledDirectByteBuf"><path codeLine="21" d="M761.8775,581.459 C780.0075,598.109 795.59,612.4137 813.62,628.9737 " fill="none" id="PooledByteBuf-backto-PooledDirectByteBuf" style="stroke:#181818;stroke-width:1.0;"/><polygon fill="none" points="748.62,569.2837,757.8191,585.8781,765.936,577.0398,748.62,569.2837" style="stroke:#181818;stroke-width:1.0;"/></g><!--reverse link PooledByteBuf to PooledHeapByteBuf--><g id="link_PooledByteBuf_PooledHeapByteBuf"><path codeLine="22" d="M702.3532,581.5247 C684.4032,598.1747 669.06,612.4137 651.21,628.9737 " fill="none" id="PooledByteBuf-backto-PooledHeapByteBuf" style="stroke:#181818;stroke-width:1.0;"/><polygon fill="none" points="715.55,569.2837,698.2728,577.1258,706.4335,585.9237,715.55,569.2837" style="stroke:#181818;stroke-width:1.0;"/></g><!--reverse link PooledByteBuf to PooledUnsafeDirectByteBuf--><g id="link_PooledByteBuf_PooledUnsafeDirectByteBuf"><path codeLine="23" d="M802.3754,573.9905 C860.9754,590.6305 937.46,612.3437 996.03,628.9737 " fill="none" id="PooledByteBuf-backto-PooledUnsafeDirectByteBuf" style="stroke:#181818;stroke-width:1.0;"/><polygon fill="none" points="785.06,569.0737,800.7365,579.7624,804.0144,568.2187,785.06,569.0737" style="stroke:#181818;stroke-width:1.0;"/></g><!--reverse link PooledHeapByteBuf to PooledUnsafeHeapByteBuf--><g id="link_PooledHeapByteBuf_PooledUnsafeHeapByteBuf"><path codeLine="24" d="M635,679.2837 C635,695.9337 635,704.4137 635,720.9737 " fill="none" id="PooledHeapByteBuf-backto-PooledUnsafeHeapByteBuf" style="stroke:#181818;stroke-width:1.0;"/><polygon fill="none" points="635,661.2837,629,679.2837,641,679.2837,635,661.2837" style="stroke:#181818;stroke-width:1.0;"/></g><!--reverse link AbstractReferenceCountedByteBuf to UnpooledDirectByteBuf--><g id="link_AbstractReferenceCountedByteBuf_UnpooledDirectByteBuf"><path codeLine="25" d="M410,495.2837 C410,511.9337 410,520.4137 410,536.9737 " fill="none" id="AbstractReferenceCountedByteBuf-backto-UnpooledDirectByteBuf" style="stroke:#181818;stroke-width:1.0;"/><polygon fill="none" points="410,477.2837,404,495.2837,416,495.2837,410,477.2837" style="stroke:#181818;stroke-width:1.0;"/></g><!--reverse link AbstractReferenceCountedByteBuf to UnpooledHeapByteBuf--><g id="link_AbstractReferenceCountedByteBuf_UnpooledHeapByteBuf"><path codeLine="26" d="M354.21,483.5617 C311.2,500.1817 259.19,520.2637 216.13,536.9037 " fill="none" id="AbstractReferenceCountedByteBuf-backto-UnpooledHeapByteBuf" style="stroke:#181818;stroke-width:1.0;"/><polygon fill="none" points="371,477.0737,352.0473,477.965,356.3726,489.1584,371,477.0737" style="stroke:#181818;stroke-width:1.0;"/></g><!--reverse link UnpooledDirectByteBuf to UnpooledUnsafeDirectByteBuf--><g id="link_UnpooledDirectByteBuf_UnpooledUnsafeDirectByteBuf"><path codeLine="27" d="M410,587.2837 C410,603.9337 410,612.4137 410,628.9737 " fill="none" id="UnpooledDirectByteBuf-backto-UnpooledUnsafeDirectByteBuf" style="stroke:#181818;stroke-width:1.0;"/><polygon fill="none" points="410,569.2837,404,587.2837,416,587.2837,410,569.2837" style="stroke:#181818;stroke-width:1.0;"/></g><!--reverse link UnpooledHeapByteBuf to UnpooledUnsafeHeapByteBuf--><g id="link_UnpooledHeapByteBuf_UnpooledUnsafeHeapByteBuf"><path codeLine="28" d="M168.9958,586.7689 C164.9258,603.4189 162.73,612.4137 158.68,628.9737 " fill="none" id="UnpooledHeapByteBuf-backto-UnpooledUnsafeHeapByteBuf" style="stroke:#181818;stroke-width:1.0;"/><polygon fill="none" points="173.27,569.2837,163.1675,585.3441,174.8242,588.1936,173.27,569.2837" style="stroke:#181818;stroke-width:1.0;"/></g><!--SRC=[bP9DRiCW58JtxnJa024tg9IaYtONLSe1i3saLWr6_2mYzV2rv23511kwHE-RUGpCpbXnKu85Xq_jOHMwNdXSHFiZRd1CYi61QDVhTWWT6EU79iZ3iN7UYjQVxXwd8Ba9QbY5lY1XeLkSnp3jw3P5cyFBE0u5_OoyznQ5sytW1uIfmAxQ2ObgrnalUgSFawUksjHcYcXnSmIhSoq5B_wK58BjWzd_lh77aGfLY7ZYGd7CW-7JE5NJeW-foSekoZGaIXT-zDAGBIppacLyrVjfGDd_hmsRQSH_fHl9ibUZrQwaikUKzDrFROCo_iuKL0Fh_W00]--></g></svg>