<?xml version="1.0" encoding="us-ascii" standalone="no"?><svg xmlns="http://www.w3.org/2000/svg" xmlns:xlink="http://www.w3.org/1999/xlink" contentStyleType="text/css" height="374px" preserveAspectRatio="none" style="width:559px;height:374px;background:#FFFFFF;" version="1.1" viewBox="0 0 559 374" width="559px" zoomAndPan="magnify"><defs/><g><!--cluster channel--><g id="cluster_channel"><path d="M8.5,6.0137 L121.5,6.0137 A3.75,3.75 0 0 1 124,8.5137 L131,30.6348 L549.5,30.6348 A2.5,2.5 0 0 1 552,33.1348 L552,364.5137 A2.5,2.5 0 0 1 549.5,367.0137 L8.5,367.0137 A2.5,2.5 0 0 1 6,364.5137 L6,8.5137 A2.5,2.5 0 0 1 8.5,6.0137 " fill="none" style="stroke:#000000;stroke-width:1.5;"/><line style="stroke:#000000;stroke-width:1.5;" x1="6" x2="131" y1="30.6348" y2="30.6348"/><text fill="#000000" font-family="sans-serif" font-size="14" font-weight="bold" lengthAdjust="spacing" textLength="112" x="10" y="23.1211">io.netty.channel</text></g><!--class ChannelInboundInvoker--><g id="elem_ChannelInboundInvoker"><rect codeLine="1" fill="#F1F1F1" height="32" id="ChannelInboundInvoker" rx="2.5" ry="2.5" style="stroke:#181818;stroke-width:0.5;" width="184" x="71" y="43.0137"/><ellipse cx="86" cy="59.0137" fill="#B4A7E5" rx="11" ry="11" style="stroke:#181818;stroke-width:1.0;"/><path d="M82.5938,53.7949 L82.5938,52.8574 L88.4375,52.8574 L88.4375,53.7949 L86.6406,53.7949 Q86.4688,53.7949 86.3906,53.8574 Q86.3125,53.9199 86.3125,54.0605 L86.3125,63.5449 Q86.3125,63.6855 86.3906,63.748 Q86.4688,63.8105 86.6406,63.8105 L88.4375,63.8105 L88.4375,64.748 L82.5938,64.748 L82.5938,63.8105 L84.3906,63.8105 Q84.6094,63.8105 84.6563,63.7637 Q84.7188,63.7012 84.7188,63.5449 L84.7188,54.0605 Q84.7188,53.9043 84.6563,53.8574 Q84.6094,53.7949 84.3906,53.7949 L82.5938,53.7949 Z " fill="#000000"/><text fill="#000000" font-family="sans-serif" font-size="14" font-style="italic" lengthAdjust="spacing" textLength="152" x="100" y="64.8105">ChannelInboundInvoker</text></g><!--class ChannelOutboundInvoker--><g id="elem_ChannelOutboundInvoker"><rect codeLine="1" fill="#F1F1F1" height="32" id="ChannelOutboundInvoker" rx="2.5" ry="2.5" style="stroke:#181818;stroke-width:0.5;" width="195" x="290.5" y="43.0137"/><ellipse cx="305.5" cy="59.0137" fill="#B4A7E5" rx="11" ry="11" style="stroke:#181818;stroke-width:1.0;"/><path d="M302.0938,53.7949 L302.0938,52.8574 L307.9375,52.8574 L307.9375,53.7949 L306.1406,53.7949 Q305.9688,53.7949 305.8906,53.8574 Q305.8125,53.9199 305.8125,54.0605 L305.8125,63.5449 Q305.8125,63.6855 305.8906,63.748 Q305.9688,63.8105 306.1406,63.8105 L307.9375,63.8105 L307.9375,64.748 L302.0938,64.748 L302.0938,63.8105 L303.8906,63.8105 Q304.1094,63.8105 304.1563,63.7637 Q304.2188,63.7012 304.2188,63.5449 L304.2188,54.0605 Q304.2188,53.9043 304.1563,53.8574 Q304.1094,53.7949 303.8906,53.7949 L302.0938,53.7949 Z " fill="#000000"/><text fill="#000000" font-family="sans-serif" font-size="14" font-style="italic" lengthAdjust="spacing" textLength="163" x="319.5" y="64.8105">ChannelOutboundInvoker</text></g><!--class AbstractChannelHandlerContext--><g id="elem_AbstractChannelHandlerContext"><rect codeLine="1" fill="#F1F1F1" height="32" id="AbstractChannelHandlerContext" rx="2.5" ry="2.5" style="stroke:#181818;stroke-width:0.5;" width="235" x="166.5" y="227.0137"/><ellipse cx="181.5" cy="243.0137" fill="#A9DCDF" rx="11" ry="11" style="stroke:#181818;stroke-width:1.0;"/><path d="M181.9219,243.498 L179.3594,243.498 L178.8281,245.7949 Q178.7656,246.123 178.7656,246.2793 Q178.7656,246.498 178.8125,246.6543 Q178.875,246.8105 179.1563,246.8105 L179.625,246.8105 L179.625,247.748 L176.6406,247.748 L176.6406,246.8105 L177.0938,246.8105 Q177.2656,246.8105 177.3906,246.7168 Q177.5156,246.6074 177.5625,246.3105 L180.2031,235.9824 L181.6094,235.5137 L184.1875,246.2793 Q184.2969,246.5918 184.4219,246.7012 Q184.5625,246.8105 184.7344,246.8105 L185.2031,246.8105 L185.2031,247.748 L181.8125,247.748 L181.8125,246.8105 L182.3438,246.8105 Q182.5625,246.8105 182.5781,246.7637 Q182.6094,246.7012 182.6094,246.623 Q182.6094,246.4043 182.5625,246.2168 L181.9219,243.498 Z M177.3594,247.3418 L177.3594,247.3418 Z M178.0313,247.3418 L178.0313,247.3418 Z M182.75,247.3418 L182.75,247.3418 Z M183.875,247.3418 L183.875,247.3418 Z M180.6875,237.4043 L180.75,237.4043 L179.6406,242.5605 L181.7344,242.5605 L180.6875,237.4043 Z " fill="#000000"/><text fill="#000000" font-family="sans-serif" font-size="14" font-style="italic" lengthAdjust="spacing" textLength="203" x="195.5" y="248.8105">AbstractChannelHandlerContext</text></g><!--class ChannelHandlerContext--><g id="elem_ChannelHandlerContext"><rect codeLine="1" fill="#F1F1F1" height="32" id="ChannelHandlerContext" rx="2.5" ry="2.5" style="stroke:#181818;stroke-width:0.5;" width="183" x="192.5" y="135.0137"/><ellipse cx="207.5" cy="151.0137" fill="#B4A7E5" rx="11" ry="11" style="stroke:#181818;stroke-width:1.0;"/><path d="M204.0938,145.7949 L204.0938,144.8574 L209.9375,144.8574 L209.9375,145.7949 L208.1406,145.7949 Q207.9688,145.7949 207.8906,145.8574 Q207.8125,145.9199 207.8125,146.0605 L207.8125,155.5449 Q207.8125,155.6855 207.8906,155.748 Q207.9688,155.8105 208.1406,155.8105 L209.9375,155.8105 L209.9375,156.748 L204.0938,156.748 L204.0938,155.8105 L205.8906,155.8105 Q206.1094,155.8105 206.1563,155.7637 Q206.2188,155.7012 206.2188,155.5449 L206.2188,146.0605 Q206.2188,145.9043 206.1563,145.8574 Q206.1094,145.7949 205.8906,145.7949 L204.0938,145.7949 Z " fill="#000000"/><text fill="#000000" font-family="sans-serif" font-size="14" font-style="italic" lengthAdjust="spacing" textLength="151" x="221.5" y="156.8105">ChannelHandlerContext</text></g><!--class HeadContext--><g id="elem_HeadContext"><rect codeLine="1" fill="#F1F1F1" height="32" id="HeadContext" rx="2.5" ry="2.5" style="stroke:#181818;stroke-width:0.5;" width="113" x="22.5" y="319.0137"/><ellipse cx="37.5" cy="335.0137" fill="#ADD1B2" rx="11" ry="11" style="stroke:#181818;stroke-width:1.0;"/><path d="M36.8438,340.873 Q34.8594,340.873 33.6875,339.4043 Q32.5313,337.9199 32.5313,334.8418 Q32.5313,332.2324 33.75,330.4824 Q34.9844,328.7324 37.1094,328.7324 Q37.6094,328.7324 38.1406,328.873 Q38.5781,329.0605 38.8438,329.0605 Q39.0625,329.0605 39.1563,329.0137 Q39.2656,328.9668 39.7188,328.373 L40.4844,332.1074 L39.5938,332.373 Q39.1406,330.9199 38.5313,330.3262 Q37.9375,329.7168 36.9844,329.7168 Q35.7656,329.7168 35.0469,331.1543 Q34.3281,332.5762 34.3281,334.7637 Q34.3281,337.1699 34.9375,338.4668 Q35.5625,339.748 36.9219,339.748 Q37.875,339.748 38.5625,339.0605 Q39.25,338.3574 39.5781,336.8574 L40.4844,337.2637 Q40.0781,338.9668 39.1094,339.9199 Q38.1563,340.873 36.8438,340.873 Z " fill="#000000"/><text fill="#000000" font-family="sans-serif" font-size="14" lengthAdjust="spacing" textLength="81" x="51.5" y="340.8105">HeadContext</text></g><!--class DefaultChannelHandlerContext--><g id="elem_DefaultChannelHandlerContext"><rect codeLine="1" fill="#F1F1F1" height="32" id="DefaultChannelHandlerContext" rx="2.5" ry="2.5" style="stroke:#181818;stroke-width:0.5;" width="227" x="170.5" y="319.0137"/><ellipse cx="185.5" cy="335.0137" fill="#ADD1B2" rx="11" ry="11" style="stroke:#181818;stroke-width:1.0;"/><path d="M184.8438,340.873 Q182.8594,340.873 181.6875,339.4043 Q180.5313,337.9199 180.5313,334.8418 Q180.5313,332.2324 181.75,330.4824 Q182.9844,328.7324 185.1094,328.7324 Q185.6094,328.7324 186.1406,328.873 Q186.5781,329.0605 186.8438,329.0605 Q187.0625,329.0605 187.1563,329.0137 Q187.2656,328.9668 187.7188,328.373 L188.4844,332.1074 L187.5938,332.373 Q187.1406,330.9199 186.5313,330.3262 Q185.9375,329.7168 184.9844,329.7168 Q183.7656,329.7168 183.0469,331.1543 Q182.3281,332.5762 182.3281,334.7637 Q182.3281,337.1699 182.9375,338.4668 Q183.5625,339.748 184.9219,339.748 Q185.875,339.748 186.5625,339.0605 Q187.25,338.3574 187.5781,336.8574 L188.4844,337.2637 Q188.0781,338.9668 187.1094,339.9199 Q186.1563,340.873 184.8438,340.873 Z " fill="#000000"/><text fill="#000000" font-family="sans-serif" font-size="14" lengthAdjust="spacing" textLength="195" x="199.5" y="340.8105">DefaultChannelHandlerContext</text></g><!--class TailContext--><g id="elem_TailContext"><rect codeLine="1" fill="#F1F1F1" height="32" id="TailContext" rx="2.5" ry="2.5" style="stroke:#181818;stroke-width:0.5;" width="103" x="432.5" y="319.0137"/><ellipse cx="447.5" cy="335.0137" fill="#ADD1B2" rx="11" ry="11" style="stroke:#181818;stroke-width:1.0;"/><path d="M446.8438,340.873 Q444.8594,340.873 443.6875,339.4043 Q442.5313,337.9199 442.5313,334.8418 Q442.5313,332.2324 443.75,330.4824 Q444.9844,328.7324 447.1094,328.7324 Q447.6094,328.7324 448.1406,328.873 Q448.5781,329.0605 448.8438,329.0605 Q449.0625,329.0605 449.1563,329.0137 Q449.2656,328.9668 449.7188,328.373 L450.4844,332.1074 L449.5938,332.373 Q449.1406,330.9199 448.5313,330.3262 Q447.9375,329.7168 446.9844,329.7168 Q445.7656,329.7168 445.0469,331.1543 Q444.3281,332.5762 444.3281,334.7637 Q444.3281,337.1699 444.9375,338.4668 Q445.5625,339.748 446.9219,339.748 Q447.875,339.748 448.5625,339.0605 Q449.25,338.3574 449.5781,336.8574 L450.4844,337.2637 Q450.0781,338.9668 449.1094,339.9199 Q448.1563,340.873 446.8438,340.873 Z " fill="#000000"/><text fill="#000000" font-family="sans-serif" font-size="14" lengthAdjust="spacing" textLength="71" x="461.5" y="340.8105">TailContext</text></g><!--reverse link ChannelHandlerContext to AbstractChannelHandlerContext--><g id="link_ChannelHandlerContext_AbstractChannelHandlerContext"><path codeLine="11" d="M284,185.2837 C284,201.9337 284,210.4137 284,226.9737 " fill="none" id="ChannelHandlerContext-backto-AbstractChannelHandlerContext" style="stroke:#181818;stroke-width:1.0;stroke-dasharray:7.0,7.0;"/><polygon fill="none" points="284,167.2837,278,185.2837,290,185.2837,284,167.2837" style="stroke:#181818;stroke-width:1.0;"/></g><!--reverse link ChannelInboundInvoker to ChannelHandlerContext--><g id="link_ChannelInboundInvoker_ChannelHandlerContext"><path codeLine="12" d="M197.6918,85.8177 C220.0318,102.4377 241.32,118.2637 263.68,134.9037 " fill="none" id="ChannelInboundInvoker-backto-ChannelHandlerContext" style="stroke:#181818;stroke-width:1.0;"/><polygon fill="none" points="183.25,75.0737,194.1104,90.6317,201.2731,81.0038,183.25,75.0737" style="stroke:#181818;stroke-width:1.0;"/></g><!--reverse link ChannelOutboundInvoker to ChannelHandlerContext--><g id="link_ChannelOutboundInvoker_ChannelHandlerContext"><path codeLine="13" d="M356.749,87.0625 C337.509,103.7125 320.52,118.4137 301.38,134.9737 " fill="none" id="ChannelOutboundInvoker-backto-ChannelHandlerContext" style="stroke:#181818;stroke-width:1.0;"/><polygon fill="none" points="370.36,75.2837,352.8227,82.5254,360.6752,91.5995,370.36,75.2837" style="stroke:#181818;stroke-width:1.0;"/></g><!--reverse link AbstractChannelHandlerContext to DefaultChannelHandlerContext--><g id="link_AbstractChannelHandlerContext_DefaultChannelHandlerContext"><path codeLine="14" d="M284,277.2837 C284,293.9337 284,302.4137 284,318.9737 " fill="none" id="AbstractChannelHandlerContext-backto-DefaultChannelHandlerContext" style="stroke:#181818;stroke-width:1.0;"/><polygon fill="none" points="284,259.2837,278,277.2837,290,277.2837,284,259.2837" style="stroke:#181818;stroke-width:1.0;"/></g><!--reverse link AbstractChannelHandlerContext to HeadContext--><g id="link_AbstractChannelHandlerContext_HeadContext"><path codeLine="15" d="M233.2096,266.3122 C195.3696,282.9322 151.31,302.2637 113.42,318.9037 " fill="none" id="AbstractChannelHandlerContext-backto-HeadContext" style="stroke:#181818;stroke-width:1.0;"/><polygon fill="none" points="249.69,259.0737,230.7967,260.8187,235.6224,271.8056,249.69,259.0737" style="stroke:#181818;stroke-width:1.0;"/></g><!--reverse link AbstractChannelHandlerContext to TailContext--><g id="link_AbstractChannelHandlerContext_TailContext"><path codeLine="16" d="M333.8928,266.4641 C370.8028,283.0841 413.45,302.2637 450.42,318.9037 " fill="none" id="AbstractChannelHandlerContext-backto-TailContext" style="stroke:#181818;stroke-width:1.0;"/><polygon fill="none" points="317.48,259.0737,331.4294,271.9351,336.3563,260.9932,317.48,259.0737" style="stroke:#181818;stroke-width:1.0;"/></g><!--SRC=[dP5D2i8m48NtEKKyWEaD1D65NUd22qoRLmqcqv0VKV3m5ghuWvJWScRUDynxC_E13evaZgWv8JXeGmaxQazqG9GTsGWXPePRcpMaKbLx96ROol2vFo5Kgx6kkUapwthiAf-TBS6sEPLntdXOmwYMJKo1slHOi27M5c7L3-TVKW7_BxS1wNBr6Xrb-_UHUpBsGoqcRKkLlRejvC-X-8tCiv-_aC_t5I5VhnDJbf_ef0ln5d4Py1PJ6I2EPaZSmJK8SIpWVBe-MtS0]--></g></svg>