<?xml version="1.0" encoding="us-ascii" standalone="no"?><svg xmlns="http://www.w3.org/2000/svg" xmlns:xlink="http://www.w3.org/1999/xlink" contentStyleType="text/css" height="138px" preserveAspectRatio="none" style="width:197px;height:138px;background:#FFFFFF;" version="1.1" viewBox="0 0 197 138" width="197px" zoomAndPan="magnify"><defs/><g><!--class Car--><g id="elem_Car"><rect fill="#F1F1F1" height="32" id="Car" rx="2.5" ry="2.5" style="stroke:#181818;stroke-width:0.5;" width="55" x="71.5" y="7"/><ellipse cx="86.5" cy="23" fill="#ADD1B2" rx="11" ry="11" style="stroke:#181818;stroke-width:1.0;"/><path d="M85.8438,28.8594 Q83.8594,28.8594 82.6875,27.3906 Q81.5313,25.9063 81.5313,22.8281 Q81.5313,20.2188 82.75,18.4688 Q83.9844,16.7188 86.1094,16.7188 Q86.6094,16.7188 87.1406,16.8594 Q87.5781,17.0469 87.8438,17.0469 Q88.0625,17.0469 88.1563,17 Q88.2656,16.9531 88.7188,16.3594 L89.4844,20.0938 L88.5938,20.3594 Q88.1406,18.9063 87.5313,18.3125 Q86.9375,17.7031 85.9844,17.7031 Q84.7656,17.7031 84.0469,19.1406 Q83.3281,20.5625 83.3281,22.75 Q83.3281,25.1563 83.9375,26.4531 Q84.5625,27.7344 85.9219,27.7344 Q86.875,27.7344 87.5625,27.0469 Q88.25,26.3438 88.5781,24.8438 L89.4844,25.25 Q89.0781,26.9531 88.1094,27.9063 Q87.1563,28.8594 85.8438,28.8594 Z " fill="#000000"/><text fill="#000000" font-family="sans-serif" font-size="14" lengthAdjust="spacing" textLength="23" x="100.5" y="28.7969">Car</text></g><!--class Engine--><g id="elem_Engine"><rect fill="#F1F1F1" height="32" id="Engine" rx="2.5" ry="2.5" style="stroke:#181818;stroke-width:0.5;" width="76" x="7" y="99"/><ellipse cx="22" cy="115" fill="#ADD1B2" rx="11" ry="11" style="stroke:#181818;stroke-width:1.0;"/><path d="M21.3438,120.8594 Q19.3594,120.8594 18.1875,119.3906 Q17.0313,117.9063 17.0313,114.8281 Q17.0313,112.2188 18.25,110.4688 Q19.4844,108.7188 21.6094,108.7188 Q22.1094,108.7188 22.6406,108.8594 Q23.0781,109.0469 23.3438,109.0469 Q23.5625,109.0469 23.6563,109 Q23.7656,108.9531 24.2188,108.3594 L24.9844,112.0938 L24.0938,112.3594 Q23.6406,110.9063 23.0313,110.3125 Q22.4375,109.7031 21.4844,109.7031 Q20.2656,109.7031 19.5469,111.1406 Q18.8281,112.5625 18.8281,114.75 Q18.8281,117.1563 19.4375,118.4531 Q20.0625,119.7344 21.4219,119.7344 Q22.375,119.7344 23.0625,119.0469 Q23.75,118.3438 24.0781,116.8438 L24.9844,117.25 Q24.5781,118.9531 23.6094,119.9063 Q22.6563,120.8594 21.3438,120.8594 Z " fill="#000000"/><text fill="#000000" font-family="sans-serif" font-size="14" lengthAdjust="spacing" textLength="44" x="36" y="120.7969">Engine</text></g><!--class Wheel--><g id="elem_Wheel"><rect fill="#F1F1F1" height="32" id="Wheel" rx="2.5" ry="2.5" style="stroke:#181818;stroke-width:0.5;" width="72" x="118" y="99"/><ellipse cx="133" cy="115" fill="#ADD1B2" rx="11" ry="11" style="stroke:#181818;stroke-width:1.0;"/><path d="M132.3438,120.8594 Q130.3594,120.8594 129.1875,119.3906 Q128.0313,117.9063 128.0313,114.8281 Q128.0313,112.2188 129.25,110.4688 Q130.4844,108.7188 132.6094,108.7188 Q133.1094,108.7188 133.6406,108.8594 Q134.0781,109.0469 134.3438,109.0469 Q134.5625,109.0469 134.6563,109 Q134.7656,108.9531 135.2188,108.3594 L135.9844,112.0938 L135.0938,112.3594 Q134.6406,110.9063 134.0313,110.3125 Q133.4375,109.7031 132.4844,109.7031 Q131.2656,109.7031 130.5469,111.1406 Q129.8281,112.5625 129.8281,114.75 Q129.8281,117.1563 130.4375,118.4531 Q131.0625,119.7344 132.4219,119.7344 Q133.375,119.7344 134.0625,119.0469 Q134.75,118.3438 135.0781,116.8438 L135.9844,117.25 Q135.5781,118.9531 134.6094,119.9063 Q133.6563,120.8594 132.3438,120.8594 Z " fill="#000000"/><text fill="#000000" font-family="sans-serif" font-size="14" lengthAdjust="spacing" textLength="40" x="147" y="120.7969">Wheel</text></g><!--reverse link Car to Engine--><g id="link_Car_Engine"><path codeLine="1" d="M83.6661,49.5599 C73.6761,66.2099 63.96,82.4 54.03,98.96 " fill="none" id="Car-backto-Engine" style="stroke:#181818;stroke-width:1.0;"/><polygon fill="none" points="89.84,39.27,83.3231,42.357,83.6661,49.5599,90.183,46.4729,89.84,39.27" style="stroke:#181818;stroke-width:1.0;"/></g><!--reverse link Car to Wheel--><g id="link_Car_Wheel"><path codeLine="2" d="M114.5896,49.508 C124.7696,66.158 134.69,82.4 144.81,98.96 " fill="none" id="Car-backto-Wheel" style="stroke:#181818;stroke-width:1.0;"/><polygon fill="none" points="108.33,39.27,108.0471,46.4756,114.5896,49.508,114.8725,42.3025,108.33,39.27" style="stroke:#181818;stroke-width:1.0;"/></g><!--SRC=[SquiKiZNrLLmpKlFp4lbSePompDIKtEuk38oKr8LKdCBIYeLSbDparABYW40]--></g></svg>