<?xml version="1.0" encoding="us-ascii" standalone="no"?><svg xmlns="http://www.w3.org/2000/svg" xmlns:xlink="http://www.w3.org/1999/xlink" contentStyleType="text/css" height="189px" preserveAspectRatio="none" style="width:233px;height:189px;background:#FFFFFF;" version="1.1" viewBox="0 0 233 189" width="233px" zoomAndPan="magnify"><defs/><g><!--class Car--><g id="elem_Car"><rect fill="#F1F1F1" height="48" id="Car" rx="2.5" ry="2.5" style="stroke:#181818;stroke-width:0.5;" width="55" x="17.5" y="7"/><ellipse cx="32.5" cy="23" fill="#ADD1B2" rx="11" ry="11" style="stroke:#181818;stroke-width:1.0;"/><path d="M31.8438,28.8594 Q29.8594,28.8594 28.6875,27.3906 Q27.5313,25.9063 27.5313,22.8281 Q27.5313,20.2188 28.75,18.4688 Q29.9844,16.7188 32.1094,16.7188 Q32.6094,16.7188 33.1406,16.8594 Q33.5781,17.0469 33.8438,17.0469 Q34.0625,17.0469 34.1563,17 Q34.2656,16.9531 34.7188,16.3594 L35.4844,20.0938 L34.5938,20.3594 Q34.1406,18.9063 33.5313,18.3125 Q32.9375,17.7031 31.9844,17.7031 Q30.7656,17.7031 30.0469,19.1406 Q29.3281,20.5625 29.3281,22.75 Q29.3281,25.1563 29.9375,26.4531 Q30.5625,27.7344 31.9219,27.7344 Q32.875,27.7344 33.5625,27.0469 Q34.25,26.3438 34.5781,24.8438 L35.4844,25.25 Q35.0781,26.9531 34.1094,27.9063 Q33.1563,28.8594 31.8438,28.8594 Z " fill="#000000"/><text fill="#000000" font-family="sans-serif" font-size="14" lengthAdjust="spacing" textLength="23" x="46.5" y="28.7969">Car</text><line style="stroke:#181818;stroke-width:0.5;" x1="18.5" x2="71.5" y1="39" y2="39"/><line style="stroke:#181818;stroke-width:0.5;" x1="18.5" x2="71.5" y1="47" y2="47"/></g><!--class Engine--><g id="elem_Engine"><rect fill="#F1F1F1" height="48" id="Engine" rx="2.5" ry="2.5" style="stroke:#181818;stroke-width:0.5;" width="76" x="7" y="134"/><ellipse cx="22" cy="150" fill="#ADD1B2" rx="11" ry="11" style="stroke:#181818;stroke-width:1.0;"/><path d="M21.3438,155.8594 Q19.3594,155.8594 18.1875,154.3906 Q17.0313,152.9063 17.0313,149.8281 Q17.0313,147.2188 18.25,145.4688 Q19.4844,143.7188 21.6094,143.7188 Q22.1094,143.7188 22.6406,143.8594 Q23.0781,144.0469 23.3438,144.0469 Q23.5625,144.0469 23.6563,144 Q23.7656,143.9531 24.2188,143.3594 L24.9844,147.0938 L24.0938,147.3594 Q23.6406,145.9063 23.0313,145.3125 Q22.4375,144.7031 21.4844,144.7031 Q20.2656,144.7031 19.5469,146.1406 Q18.8281,147.5625 18.8281,149.75 Q18.8281,152.1563 19.4375,153.4531 Q20.0625,154.7344 21.4219,154.7344 Q22.375,154.7344 23.0625,154.0469 Q23.75,153.3438 24.0781,151.8438 L24.9844,152.25 Q24.5781,153.9531 23.6094,154.9063 Q22.6563,155.8594 21.3438,155.8594 Z " fill="#000000"/><text fill="#000000" font-family="sans-serif" font-size="14" lengthAdjust="spacing" textLength="44" x="36" y="155.7969">Engine</text><line style="stroke:#181818;stroke-width:0.5;" x1="8" x2="82" y1="166" y2="166"/><line style="stroke:#181818;stroke-width:0.5;" x1="8" x2="82" y1="174" y2="174"/></g><!--class Book--><g id="elem_Book"><rect fill="#F1F1F1" height="48" id="Book" rx="2.5" ry="2.5" style="stroke:#181818;stroke-width:0.5;" width="64" x="122" y="7"/><ellipse cx="137" cy="23" fill="#ADD1B2" rx="11" ry="11" style="stroke:#181818;stroke-width:1.0;"/><path d="M136.3438,28.8594 Q134.3594,28.8594 133.1875,27.3906 Q132.0313,25.9063 132.0313,22.8281 Q132.0313,20.2188 133.25,18.4688 Q134.4844,16.7188 136.6094,16.7188 Q137.1094,16.7188 137.6406,16.8594 Q138.0781,17.0469 138.3438,17.0469 Q138.5625,17.0469 138.6563,17 Q138.7656,16.9531 139.2188,16.3594 L139.9844,20.0938 L139.0938,20.3594 Q138.6406,18.9063 138.0313,18.3125 Q137.4375,17.7031 136.4844,17.7031 Q135.2656,17.7031 134.5469,19.1406 Q133.8281,20.5625 133.8281,22.75 Q133.8281,25.1563 134.4375,26.4531 Q135.0625,27.7344 136.4219,27.7344 Q137.375,27.7344 138.0625,27.0469 Q138.75,26.3438 139.0781,24.8438 L139.9844,25.25 Q139.5781,26.9531 138.6094,27.9063 Q137.6563,28.8594 136.3438,28.8594 Z " fill="#000000"/><text fill="#000000" font-family="sans-serif" font-size="14" lengthAdjust="spacing" textLength="32" x="151" y="28.7969">Book</text><line style="stroke:#181818;stroke-width:0.5;" x1="123" x2="185" y1="39" y2="39"/><line style="stroke:#181818;stroke-width:0.5;" x1="123" x2="185" y1="47" y2="47"/></g><!--class Page--><g id="elem_Page"><rect fill="#F1F1F1" height="48" id="Page" rx="2.5" ry="2.5" style="stroke:#181818;stroke-width:0.5;" width="65" x="121.5" y="134"/><ellipse cx="136.5" cy="150" fill="#ADD1B2" rx="11" ry="11" style="stroke:#181818;stroke-width:1.0;"/><path d="M135.8438,155.8594 Q133.8594,155.8594 132.6875,154.3906 Q131.5313,152.9063 131.5313,149.8281 Q131.5313,147.2188 132.75,145.4688 Q133.9844,143.7188 136.1094,143.7188 Q136.6094,143.7188 137.1406,143.8594 Q137.5781,144.0469 137.8438,144.0469 Q138.0625,144.0469 138.1563,144 Q138.2656,143.9531 138.7188,143.3594 L139.4844,147.0938 L138.5938,147.3594 Q138.1406,145.9063 137.5313,145.3125 Q136.9375,144.7031 135.9844,144.7031 Q134.7656,144.7031 134.0469,146.1406 Q133.3281,147.5625 133.3281,149.75 Q133.3281,152.1563 133.9375,153.4531 Q134.5625,154.7344 135.9219,154.7344 Q136.875,154.7344 137.5625,154.0469 Q138.25,153.3438 138.5781,151.8438 L139.4844,152.25 Q139.0781,153.9531 138.1094,154.9063 Q137.1563,155.8594 135.8438,155.8594 Z " fill="#000000"/><text fill="#000000" font-family="sans-serif" font-size="14" lengthAdjust="spacing" textLength="33" x="150.5" y="155.7969">Page</text><line style="stroke:#181818;stroke-width:0.5;" x1="122.5" x2="185.5" y1="166" y2="166"/><line style="stroke:#181818;stroke-width:0.5;" x1="122.5" x2="185.5" y1="174" y2="174"/></g><!--reverse link Car to Engine--><g id="link_Car_Engine"><path codeLine="1" d="M42.4657,66.9963 C41.5757,81.1263 41.54,87.62 42,104 C42.28,113.77 42.84,124.53 43.4,133.79 " fill="none" id="Car-backto-Engine" style="stroke:#181818;stroke-width:1.0;"/><polygon fill="none" points="43.22,55.02,38.8507,60.7567,42.4657,66.9963,46.8349,61.2596,43.22,55.02" style="stroke:#181818;stroke-width:1.0;"/><text fill="#000000" font-family="sans-serif" font-size="13" lengthAdjust="spacing" textLength="67" x="43" y="100.0283">aggregation</text></g><!--reverse link Book to Page--><g id="link_Book_Page"><path codeLine="2" d="M154,67.22 C154,89.67 154,111.5 154,133.91 " fill="none" id="Book-backto-Page" style="stroke:#181818;stroke-width:1.0;"/><polygon fill="#181818" points="154,55.22,150,61.22,154,67.22,158,61.22,154,55.22" style="stroke:#181818;stroke-width:1.0;"/><text fill="#000000" font-family="sans-serif" font-size="13" lengthAdjust="spacing" textLength="70" x="155" y="100.0283">composition</text></g><!--SRC=[SquiKiZNrLLmpKlFp4jLi598J4ylIarFBCdCp-Dooi_FLj02oWOafgTQAIJdvnRa5sU2f000]--></g></svg>