<?xml version="1.0" encoding="us-ascii" standalone="no"?><svg xmlns="http://www.w3.org/2000/svg" xmlns:xlink="http://www.w3.org/1999/xlink" contentStyleType="text/css" height="138px" preserveAspectRatio="none" style="width:270px;height:138px;background:#FFFFFF;" version="1.1" viewBox="0 0 270 138" width="270px" zoomAndPan="magnify"><defs/><g><!--class Person--><g id="elem_Person"><rect fill="#F1F1F1" height="32" id="Person" rx="2.5" ry="2.5" style="stroke:#181818;stroke-width:0.5;" width="77" x="101" y="7"/><ellipse cx="116" cy="23" fill="#ADD1B2" rx="11" ry="11" style="stroke:#181818;stroke-width:1.0;"/><path d="M115.3438,28.8594 Q113.3594,28.8594 112.1875,27.3906 Q111.0313,25.9063 111.0313,22.8281 Q111.0313,20.2188 112.25,18.4688 Q113.4844,16.7188 115.6094,16.7188 Q116.1094,16.7188 116.6406,16.8594 Q117.0781,17.0469 117.3438,17.0469 Q117.5625,17.0469 117.6563,17 Q117.7656,16.9531 118.2188,16.3594 L118.9844,20.0938 L118.0938,20.3594 Q117.6406,18.9063 117.0313,18.3125 Q116.4375,17.7031 115.4844,17.7031 Q114.2656,17.7031 113.5469,19.1406 Q112.8281,20.5625 112.8281,22.75 Q112.8281,25.1563 113.4375,26.4531 Q114.0625,27.7344 115.4219,27.7344 Q116.375,27.7344 117.0625,27.0469 Q117.75,26.3438 118.0781,24.8438 L118.9844,25.25 Q118.5781,26.9531 117.6094,27.9063 Q116.6563,28.8594 115.3438,28.8594 Z " fill="#000000"/><text fill="#000000" font-family="sans-serif" font-size="14" lengthAdjust="spacing" textLength="45" x="130" y="28.7969">Person</text></g><!--class Head--><g id="elem_Head"><rect fill="#F1F1F1" height="32" id="Head" rx="2.5" ry="2.5" style="stroke:#181818;stroke-width:0.5;" width="65" x="7" y="99"/><ellipse cx="22" cy="115" fill="#ADD1B2" rx="11" ry="11" style="stroke:#181818;stroke-width:1.0;"/><path d="M21.3438,120.8594 Q19.3594,120.8594 18.1875,119.3906 Q17.0313,117.9063 17.0313,114.8281 Q17.0313,112.2188 18.25,110.4688 Q19.4844,108.7188 21.6094,108.7188 Q22.1094,108.7188 22.6406,108.8594 Q23.0781,109.0469 23.3438,109.0469 Q23.5625,109.0469 23.6563,109 Q23.7656,108.9531 24.2188,108.3594 L24.9844,112.0938 L24.0938,112.3594 Q23.6406,110.9063 23.0313,110.3125 Q22.4375,109.7031 21.4844,109.7031 Q20.2656,109.7031 19.5469,111.1406 Q18.8281,112.5625 18.8281,114.75 Q18.8281,117.1563 19.4375,118.4531 Q20.0625,119.7344 21.4219,119.7344 Q22.375,119.7344 23.0625,119.0469 Q23.75,118.3438 24.0781,116.8438 L24.9844,117.25 Q24.5781,118.9531 23.6094,119.9063 Q22.6563,120.8594 21.3438,120.8594 Z " fill="#000000"/><text fill="#000000" font-family="sans-serif" font-size="14" lengthAdjust="spacing" textLength="33" x="36" y="120.7969">Head</text></g><!--class Hand--><g id="elem_Hand"><rect fill="#F1F1F1" height="32" id="Hand" rx="2.5" ry="2.5" style="stroke:#181818;stroke-width:0.5;" width="65" x="107" y="99"/><ellipse cx="122" cy="115" fill="#ADD1B2" rx="11" ry="11" style="stroke:#181818;stroke-width:1.0;"/><path d="M121.3438,120.8594 Q119.3594,120.8594 118.1875,119.3906 Q117.0313,117.9063 117.0313,114.8281 Q117.0313,112.2188 118.25,110.4688 Q119.4844,108.7188 121.6094,108.7188 Q122.1094,108.7188 122.6406,108.8594 Q123.0781,109.0469 123.3438,109.0469 Q123.5625,109.0469 123.6563,109 Q123.7656,108.9531 124.2188,108.3594 L124.9844,112.0938 L124.0938,112.3594 Q123.6406,110.9063 123.0313,110.3125 Q122.4375,109.7031 121.4844,109.7031 Q120.2656,109.7031 119.5469,111.1406 Q118.8281,112.5625 118.8281,114.75 Q118.8281,117.1563 119.4375,118.4531 Q120.0625,119.7344 121.4219,119.7344 Q122.375,119.7344 123.0625,119.0469 Q123.75,118.3438 124.0781,116.8438 L124.9844,117.25 Q124.5781,118.9531 123.6094,119.9063 Q122.6563,120.8594 121.3438,120.8594 Z " fill="#000000"/><text fill="#000000" font-family="sans-serif" font-size="14" lengthAdjust="spacing" textLength="33" x="136" y="120.7969">Hand</text></g><!--class Leg--><g id="elem_Leg"><rect fill="#F1F1F1" height="32" id="Leg" rx="2.5" ry="2.5" style="stroke:#181818;stroke-width:0.5;" width="56" x="207.5" y="99"/><ellipse cx="222.5" cy="115" fill="#ADD1B2" rx="11" ry="11" style="stroke:#181818;stroke-width:1.0;"/><path d="M221.8438,120.8594 Q219.8594,120.8594 218.6875,119.3906 Q217.5313,117.9063 217.5313,114.8281 Q217.5313,112.2188 218.75,110.4688 Q219.9844,108.7188 222.1094,108.7188 Q222.6094,108.7188 223.1406,108.8594 Q223.5781,109.0469 223.8438,109.0469 Q224.0625,109.0469 224.1563,109 Q224.2656,108.9531 224.7188,108.3594 L225.4844,112.0938 L224.5938,112.3594 Q224.1406,110.9063 223.5313,110.3125 Q222.9375,109.7031 221.9844,109.7031 Q220.7656,109.7031 220.0469,111.1406 Q219.3281,112.5625 219.3281,114.75 Q219.3281,117.1563 219.9375,118.4531 Q220.5625,119.7344 221.9219,119.7344 Q222.875,119.7344 223.5625,119.0469 Q224.25,118.3438 224.5781,116.8438 L225.4844,117.25 Q225.0781,118.9531 224.1094,119.9063 Q223.1563,120.8594 221.8438,120.8594 Z " fill="#000000"/><text fill="#000000" font-family="sans-serif" font-size="14" lengthAdjust="spacing" textLength="24" x="236.5" y="120.7969">Leg</text></g><!--reverse link Person to Head--><g id="link_Person_Head"><path codeLine="1" d="M113.6205,47.2976 C95.1205,63.9476 74.61,82.4 56.21,98.96 " fill="none" id="Person-backto-Head" style="stroke:#181818;stroke-width:1.0;"/><polygon fill="#181818" points="122.54,39.27,115.4044,40.3106,113.6205,47.2976,120.7561,46.257,122.54,39.27" style="stroke:#181818;stroke-width:1.0;"/></g><!--reverse link Person to Hand--><g id="link_Person_Hand"><path codeLine="2" d="M139.5,51.27 C139.5,67.92 139.5,82.4 139.5,98.96 " fill="none" id="Person-backto-Hand" style="stroke:#181818;stroke-width:1.0;"/><polygon fill="#181818" points="139.5,39.27,135.5,45.27,139.5,51.27,143.5,45.27,139.5,39.27" style="stroke:#181818;stroke-width:1.0;"/></g><!--reverse link Person to Leg--><g id="link_Person_Leg"><path codeLine="3" d="M164.5444,47.4773 C182.3044,64.1273 201.79,82.4 219.46,98.96 " fill="none" id="Person-backto-Leg" style="stroke:#181818;stroke-width:1.0;"/><polygon fill="#181818" points="155.79,39.27,157.4315,46.2918,164.5444,47.4773,162.903,40.4555,155.79,39.27" style="stroke:#181818;stroke-width:1.0;"/></g><!--SRC=[2qWjAixFKz3IrLNmI4rCuGf0uYVceV1zKjEvk38oKr8LKdCBIYeLSbDpau2o0000]--></g></svg>