<?xml version="1.0" encoding="us-ascii" standalone="no"?><svg xmlns="http://www.w3.org/2000/svg" xmlns:xlink="http://www.w3.org/1999/xlink" contentStyleType="text/css" height="316px" preserveAspectRatio="none" style="width:229px;height:316px;background:#FFFFFF;" version="1.1" viewBox="0 0 229 316" width="229px" zoomAndPan="magnify"><defs/><g><!--class Collection--><g id="elem_Collection"><rect codeLine="1" fill="#F1F1F1" height="48" id="Collection" rx="2.5" ry="2.5" style="stroke:#181818;stroke-width:0.5;" width="94" x="7" y="7"/><ellipse cx="22" cy="23" fill="#B4A7E5" rx="11" ry="11" style="stroke:#181818;stroke-width:1.0;"/><path d="M18.5938,17.7813 L18.5938,16.8438 L24.4375,16.8438 L24.4375,17.7813 L22.6406,17.7813 Q22.4688,17.7813 22.3906,17.8438 Q22.3125,17.9063 22.3125,18.0469 L22.3125,27.5313 Q22.3125,27.6719 22.3906,27.7344 Q22.4688,27.7969 22.6406,27.7969 L24.4375,27.7969 L24.4375,28.7344 L18.5938,28.7344 L18.5938,27.7969 L20.3906,27.7969 Q20.6094,27.7969 20.6563,27.75 Q20.7188,27.6875 20.7188,27.5313 L20.7188,18.0469 Q20.7188,17.8906 20.6563,17.8438 Q20.6094,17.7813 20.3906,17.7813 L18.5938,17.7813 Z " fill="#000000"/><text fill="#000000" font-family="sans-serif" font-size="14" font-style="italic" lengthAdjust="spacing" textLength="62" x="36" y="28.7969">Collection</text><line style="stroke:#181818;stroke-width:0.5;" x1="8" x2="100" y1="39" y2="39"/><line style="stroke:#181818;stroke-width:0.5;" x1="8" x2="100" y1="47" y2="47"/></g><!--class List--><g id="elem_List"><rect codeLine="2" fill="#F1F1F1" height="48" id="List" rx="2.5" ry="2.5" style="stroke:#181818;stroke-width:0.5;" width="54" x="27" y="134"/><ellipse cx="42" cy="150" fill="#B4A7E5" rx="11" ry="11" style="stroke:#181818;stroke-width:1.0;"/><path d="M38.5938,144.7813 L38.5938,143.8438 L44.4375,143.8438 L44.4375,144.7813 L42.6406,144.7813 Q42.4688,144.7813 42.3906,144.8438 Q42.3125,144.9063 42.3125,145.0469 L42.3125,154.5313 Q42.3125,154.6719 42.3906,154.7344 Q42.4688,154.7969 42.6406,154.7969 L44.4375,154.7969 L44.4375,155.7344 L38.5938,155.7344 L38.5938,154.7969 L40.3906,154.7969 Q40.6094,154.7969 40.6563,154.75 Q40.7188,154.6875 40.7188,154.5313 L40.7188,145.0469 Q40.7188,144.8906 40.6563,144.8438 Q40.6094,144.7813 40.3906,144.7813 L38.5938,144.7813 Z " fill="#000000"/><text fill="#000000" font-family="sans-serif" font-size="14" font-style="italic" lengthAdjust="spacing" textLength="22" x="56" y="155.7969">List</text><line style="stroke:#181818;stroke-width:0.5;" x1="28" x2="80" y1="166" y2="166"/><line style="stroke:#181818;stroke-width:0.5;" x1="28" x2="80" y1="174" y2="174"/></g><!--class AbstractList--><g id="elem_AbstractList"><rect codeLine="3" fill="#F1F1F1" height="48" id="AbstractList" rx="2.5" ry="2.5" style="stroke:#181818;stroke-width:0.5;" width="106" x="116" y="134"/><ellipse cx="131" cy="150" fill="#A9DCDF" rx="11" ry="11" style="stroke:#181818;stroke-width:1.0;"/><path d="M131.4219,150.4844 L128.8594,150.4844 L128.3281,152.7813 Q128.2656,153.1094 128.2656,153.2656 Q128.2656,153.4844 128.3125,153.6406 Q128.375,153.7969 128.6563,153.7969 L129.125,153.7969 L129.125,154.7344 L126.1406,154.7344 L126.1406,153.7969 L126.5938,153.7969 Q126.7656,153.7969 126.8906,153.7031 Q127.0156,153.5938 127.0625,153.2969 L129.7031,142.9688 L131.1094,142.5 L133.6875,153.2656 Q133.7969,153.5781 133.9219,153.6875 Q134.0625,153.7969 134.2344,153.7969 L134.7031,153.7969 L134.7031,154.7344 L131.3125,154.7344 L131.3125,153.7969 L131.8438,153.7969 Q132.0625,153.7969 132.0781,153.75 Q132.1094,153.6875 132.1094,153.6094 Q132.1094,153.3906 132.0625,153.2031 L131.4219,150.4844 Z M126.8594,154.3281 L126.8594,154.3281 Z M127.5313,154.3281 L127.5313,154.3281 Z M132.25,154.3281 L132.25,154.3281 Z M133.375,154.3281 L133.375,154.3281 Z M130.1875,144.3906 L130.25,144.3906 L129.1406,149.5469 L131.2344,149.5469 L130.1875,144.3906 Z " fill="#000000"/><text fill="#000000" font-family="sans-serif" font-size="14" font-style="italic" lengthAdjust="spacing" textLength="74" x="145" y="155.7969">AbstractList</text><line style="stroke:#181818;stroke-width:0.5;" x1="117" x2="221" y1="166" y2="166"/><line style="stroke:#181818;stroke-width:0.5;" x1="117" x2="221" y1="174" y2="174"/></g><!--class ArrayList--><g id="elem_ArrayList"><rect codeLine="4" fill="#F1F1F1" height="48" id="ArrayList" rx="2.5" ry="2.5" style="stroke:#181818;stroke-width:0.5;" width="88" x="69" y="261"/><ellipse cx="84" cy="277" fill="#ADD1B2" rx="11" ry="11" style="stroke:#181818;stroke-width:1.0;"/><path d="M83.3438,282.8594 Q81.3594,282.8594 80.1875,281.3906 Q79.0313,279.9063 79.0313,276.8281 Q79.0313,274.2188 80.25,272.4688 Q81.4844,270.7188 83.6094,270.7188 Q84.1094,270.7188 84.6406,270.8594 Q85.0781,271.0469 85.3438,271.0469 Q85.5625,271.0469 85.6563,271 Q85.7656,270.9531 86.2188,270.3594 L86.9844,274.0938 L86.0938,274.3594 Q85.6406,272.9063 85.0313,272.3125 Q84.4375,271.7031 83.4844,271.7031 Q82.2656,271.7031 81.5469,273.1406 Q80.8281,274.5625 80.8281,276.75 Q80.8281,279.1563 81.4375,280.4531 Q82.0625,281.7344 83.4219,281.7344 Q84.375,281.7344 85.0625,281.0469 Q85.75,280.3438 86.0781,278.8438 L86.9844,279.25 Q86.5781,280.9531 85.6094,281.9063 Q84.6563,282.8594 83.3438,282.8594 Z " fill="#000000"/><text fill="#000000" font-family="sans-serif" font-size="14" lengthAdjust="spacing" textLength="56" x="98" y="282.7969">ArrayList</text><line style="stroke:#181818;stroke-width:0.5;" x1="70" x2="156" y1="293" y2="293"/><line style="stroke:#181818;stroke-width:0.5;" x1="70" x2="156" y1="301" y2="301"/></g><!--reverse link Collection to List--><g id="link_Collection_List"><path codeLine="6" d="M54,73.22 C54,95.67 54,111.5 54,133.91 " fill="none" id="Collection-backto-List" style="stroke:#181818;stroke-width:1.0;"/><polygon fill="none" points="54,55.22,48,73.22,60,73.22,54,55.22" style="stroke:#181818;stroke-width:1.0;"/><text fill="#000000" font-family="sans-serif" font-size="13" lengthAdjust="spacing" textLength="46" x="55" y="100.0283">extends</text></g><!--reverse link List to ArrayList--><g id="link_List_ArrayList"><path codeLine="7" d="M51.5404,200.0749 C51.1904,214.7349 52.93,215.75 60,231 C65.2,242.21 73.84,252.4 82.65,260.79 " fill="none" id="List-backto-ArrayList" style="stroke:#181818;stroke-width:1.0;stroke-dasharray:7.0,7.0;"/><polygon fill="none" points="51.97,182.08,45.5421,199.9317,57.5387,200.2181,51.97,182.08" style="stroke:#181818;stroke-width:1.0;"/><text fill="#000000" font-family="sans-serif" font-size="13" lengthAdjust="spacing" textLength="67" x="61" y="227.0283">implements</text></g><!--reverse link AbstractList to ArrayList--><g id="link_AbstractList_ArrayList"><path codeLine="8" d="M151.2393,198.6462 C141.1793,221.0962 133.39,238.5 123.35,260.91 " fill="none" id="AbstractList-backto-ArrayList" style="stroke:#181818;stroke-width:1.0;"/><polygon fill="none" points="158.6,182.22,145.7639,196.1926,156.7147,201.0998,158.6,182.22" style="stroke:#181818;stroke-width:1.0;"/><text fill="#000000" font-family="sans-serif" font-size="13" lengthAdjust="spacing" textLength="46" x="145" y="227.0283">extends</text></g><!--SRC=[JOp12O0m34NlcI8Bw03YHRowHAmH0csL9WS5XrThKO_l9Vz9D4upESP-yPwToH91NZc86j2ebiWPEa-gs1NCjw9IeZqpV1biZwhAXGPvCuwJmasNh-jlqg24rNFWQ0h_zhF__PN82G00]--></g></svg>