<svg xmlns="http://www.w3.org/2000/svg" xmlns:xlink="http://www.w3.org/1999/xlink" contentStyleType="text/css" height="793.2px" preserveAspectRatio="none" style="width:906px;height:793px;background:#FFFFFF;" version="1.1" viewBox="0 0 906 793" width="906px" zoomAndPan="magnify"><defs/><g><!--class Object--><g id="elem_Object"><rect codeLine="1" fill="#F1F1F1" height="57.6" id="Object" rx="3" ry="3" style="stroke:#181818;stroke-width:0.6;" width="86.9543" x="99.6" y="19.8"/><ellipse cx="117.6" cy="39" fill="#ADD1B2" rx="13.2" ry="13.2" style="stroke:#181818;stroke-width:1.2;"/><path d="M120.9187,34.05 Q121.1062,33.7875 121.3313,33.6563 Q121.5562,33.525 121.8188,33.525 Q122.2688,33.525 122.55,33.8438 Q122.8313,34.1438 122.8313,34.875 L122.8313,36.6188 Q122.8313,37.35 122.55,37.6687 Q122.2688,37.9875 121.8188,37.9875 Q121.4063,37.9875 121.1625,37.7438 Q120.9187,37.5188 120.7875,36.9 Q120.7312,36.4688 120.5063,36.2438 Q120.1125,35.7937 119.3813,35.5313 Q118.65,35.2688 117.9,35.2688 Q116.9812,35.2688 116.2125,35.6625 Q115.4625,36.0563 114.8625,36.9563 Q114.2813,37.8562 114.2813,39.0938 L114.2813,40.4063 Q114.2813,41.8875 115.35,42.8813 Q116.4187,43.8562 118.3313,43.8562 Q119.4563,43.8562 120.2437,43.5563 Q120.7125,43.3688 121.2188,42.8438 Q121.5375,42.525 121.7063,42.4313 Q121.8938,42.3375 122.1375,42.3375 Q122.5313,42.3375 122.8313,42.6563 Q123.15,42.9563 123.15,43.3688 Q123.15,43.7813 122.7375,44.2688 Q122.1375,44.9625 121.1812,45.3562 Q119.8875,45.9 118.3313,45.9 Q116.5125,45.9 115.0688,45.15 Q113.8875,44.55 113.0625,43.275 Q112.2375,41.9812 112.2375,40.4438 L112.2375,39.0563 Q112.2375,37.4625 112.9688,36.0938 Q113.7188,34.7063 115.0313,33.975 Q116.3438,33.225 117.825,33.225 Q118.7063,33.225 119.475,33.4313 Q120.2625,33.6188 120.9187,34.05 Z " fill="#000000"/><text fill="#000000" font-family="sans-serif" font-size="16.8" lengthAdjust="spacing" textLength="48.5543" x="134.4" y="45.9563">Object</text><line style="stroke:#181818;stroke-width:0.6;" x1="100.8" x2="185.3543" y1="58.2" y2="58.2"/><line style="stroke:#181818;stroke-width:0.6;" x1="100.8" x2="185.3543" y1="67.8" y2="67.8"/></g><!--class ITest--><g id="elem_ITest"><rect codeLine="3" fill="#F1F1F1" height="79.9453" id="ITest" rx="3" ry="3" style="stroke:#181818;stroke-width:0.6;" width="251.577" x="277.2" y="8.4"/><ellipse cx="379.2182" cy="27.6" fill="#B4A7E5" rx="13.2" ry="13.2" style="stroke:#181818;stroke-width:1.2;"/><path d="M380.3619,23.5687 L380.3619,31.5563 L382.4244,31.5563 Q383.1557,31.5563 383.4744,31.8375 Q383.7932,32.1188 383.7932,32.5875 Q383.7932,33.0375 383.4744,33.3188 Q383.1557,33.6 382.4244,33.6 L376.2557,33.6 Q375.5244,33.6 375.2057,33.3188 Q374.8869,33.0375 374.8869,32.5688 Q374.8869,32.1188 375.2057,31.8375 Q375.5244,31.5563 376.2557,31.5563 L378.3182,31.5563 L378.3182,23.5687 L376.2557,23.5687 Q375.5244,23.5687 375.2057,23.2875 Q374.8869,23.0062 374.8869,22.5375 Q374.8869,22.0875 375.2057,21.8063 Q375.5244,21.525 376.2557,21.525 L382.4244,21.525 Q383.1557,21.525 383.4744,21.8063 Q383.7932,22.0875 383.7932,22.5375 Q383.7932,23.0062 383.4744,23.2875 Q383.1557,23.5687 382.4244,23.5687 L380.3619,23.5687 Z " fill="#000000"/><text fill="#000000" font-family="sans-serif" font-size="16.8" font-style="italic" lengthAdjust="spacing" textLength="37.3406" x="403.8182" y="34.5563">ITest</text><line style="stroke:#181818;stroke-width:0.6;" x1="278.4" x2="527.577" y1="46.8" y2="46.8"/><line style="stroke:#181818;stroke-width:0.6;" x1="278.4" x2="527.577" y1="56.4" y2="56.4"/><text fill="#000000" font-family="sans-serif" font-size="16.8" font-style="italic" lengthAdjust="spacing" textLength="237.177" x="284.4" y="79.3289">String test(String name, int age)</text></g><!--class Ancestor--><g id="elem_Ancestor"><rect codeLine="7" fill="#F1F1F1" height="102.2906" id="Ancestor" rx="3" ry="3" style="stroke:#181818;stroke-width:0.6;" width="268.377" x="8.4" y="160.8"/><ellipse cx="104.3396" cy="180" fill="#ADD1B2" rx="13.2" ry="13.2" style="stroke:#181818;stroke-width:1.2;"/><path d="M107.6584,175.05 Q107.8459,174.7875 108.0709,174.6563 Q108.2959,174.525 108.5584,174.525 Q109.0084,174.525 109.2896,174.8438 Q109.5709,175.1437 109.5709,175.875 L109.5709,177.6188 Q109.5709,178.35 109.2896,178.6688 Q109.0084,178.9875 108.5584,178.9875 Q108.1459,178.9875 107.9021,178.7438 Q107.6584,178.5187 107.5271,177.9 Q107.4709,177.4688 107.2459,177.2438 Q106.8521,176.7938 106.1209,176.5313 Q105.3896,176.2687 104.6396,176.2687 Q103.7209,176.2687 102.9521,176.6625 Q102.2021,177.0563 101.6021,177.9562 Q101.0209,178.8563 101.0209,180.0938 L101.0209,181.4063 Q101.0209,182.8875 102.0896,183.8813 Q103.1584,184.8563 105.0709,184.8563 Q106.1959,184.8563 106.9834,184.5563 Q107.4521,184.3688 107.9584,183.8438 Q108.2771,183.525 108.4459,183.4313 Q108.6334,183.3375 108.8771,183.3375 Q109.2709,183.3375 109.5709,183.6563 Q109.8896,183.9562 109.8896,184.3688 Q109.8896,184.7813 109.4771,185.2687 Q108.8771,185.9625 107.9209,186.3563 Q106.6271,186.9 105.0709,186.9 Q103.2521,186.9 101.8084,186.15 Q100.6271,185.55 99.8021,184.275 Q98.9771,182.9813 98.9771,181.4438 L98.9771,180.0563 Q98.9771,178.4625 99.7084,177.0938 Q100.4584,175.7062 101.7709,174.975 Q103.0834,174.225 104.5646,174.225 Q105.4459,174.225 106.2146,174.4313 Q107.0021,174.6188 107.6584,175.05 Z " fill="#000000"/><text fill="#000000" font-family="sans-serif" font-size="16.8" lengthAdjust="spacing" textLength="66.2977" x="128.9396" y="186.9562">Ancestor</text><line style="stroke:#181818;stroke-width:0.6;" x1="9.6" x2="275.577" y1="199.2" y2="199.2"/><line style="stroke:#181818;stroke-width:0.6;" x1="9.6" x2="275.577" y1="208.8" y2="208.8"/><ellipse cx="21.6" cy="226.5727" fill="#84BE84" rx="3.6" ry="3.6" style="stroke:#038048;stroke-width:1.2;"/><text fill="#000000" font-family="sans-serif" font-size="16.8" lengthAdjust="spacing" textLength="178.3113" x="32.4" y="231.7289">void sayFromAncestor()</text><ellipse cx="21.6" cy="248.918" fill="#84BE84" rx="3.6" ry="3.6" style="stroke:#038048;stroke-width:1.2;"/><text fill="#000000" font-family="sans-serif" font-size="16.8" lengthAdjust="spacing" textLength="237.177" x="32.4" y="254.0742">String test(String name, int age)</text></g><!--class GrandFather--><g id="elem_GrandFather"><rect codeLine="12" fill="#F1F1F1" height="102.2906" id="GrandFather" rx="3" ry="3" style="stroke:#181818;stroke-width:0.6;" width="268.377" x="8.4" y="334.8"/><ellipse cx="89.8652" cy="354" fill="#ADD1B2" rx="13.2" ry="13.2" style="stroke:#181818;stroke-width:1.2;"/><path d="M93.184,349.05 Q93.3715,348.7875 93.5965,348.6563 Q93.8215,348.525 94.084,348.525 Q94.534,348.525 94.8152,348.8438 Q95.0965,349.1438 95.0965,349.875 L95.0965,351.6188 Q95.0965,352.35 94.8152,352.6688 Q94.534,352.9875 94.084,352.9875 Q93.6715,352.9875 93.4277,352.7438 Q93.184,352.5188 93.0527,351.9 Q92.9965,351.4688 92.7715,351.2438 Q92.3777,350.7938 91.6465,350.5313 Q90.9152,350.2688 90.1652,350.2688 Q89.2465,350.2688 88.4777,350.6625 Q87.7277,351.0563 87.1277,351.9563 Q86.5465,352.8563 86.5465,354.0938 L86.5465,355.4063 Q86.5465,356.8875 87.6152,357.8812 Q88.684,358.8563 90.5965,358.8563 Q91.7215,358.8563 92.509,358.5563 Q92.9777,358.3688 93.484,357.8438 Q93.8027,357.525 93.9715,357.4313 Q94.159,357.3375 94.4027,357.3375 Q94.7965,357.3375 95.0965,357.6563 Q95.4152,357.9563 95.4152,358.3688 Q95.4152,358.7813 95.0027,359.2688 Q94.4027,359.9625 93.4465,360.3563 Q92.1527,360.9 90.5965,360.9 Q88.7777,360.9 87.334,360.15 Q86.1527,359.55 85.3277,358.275 Q84.5027,356.9813 84.5027,355.4437 L84.5027,354.0563 Q84.5027,352.4625 85.234,351.0938 Q85.984,349.7063 87.2965,348.975 Q88.609,348.225 90.0902,348.225 Q90.9715,348.225 91.7402,348.4313 Q92.5277,348.6188 93.184,349.05 Z " fill="#000000"/><text fill="#000000" font-family="sans-serif" font-size="16.8" lengthAdjust="spacing" textLength="95.2465" x="114.4652" y="360.9563">GrandFather</text><line style="stroke:#181818;stroke-width:0.6;" x1="9.6" x2="275.577" y1="373.2" y2="373.2"/><line style="stroke:#181818;stroke-width:0.6;" x1="9.6" x2="275.577" y1="382.8" y2="382.8"/><ellipse cx="21.6" cy="400.5727" fill="#84BE84" rx="3.6" ry="3.6" style="stroke:#038048;stroke-width:1.2;"/><text fill="#000000" font-family="sans-serif" font-size="16.8" lengthAdjust="spacing" textLength="207.2602" x="32.4" y="405.7289">void sayFromGrandFather()</text><ellipse cx="21.6" cy="422.918" fill="#84BE84" rx="3.6" ry="3.6" style="stroke:#038048;stroke-width:1.2;"/><text fill="#000000" font-family="sans-serif" font-size="16.8" lengthAdjust="spacing" textLength="237.177" x="32.4" y="428.0742">String test(String name, int age)</text></g><!--class Father--><g id="elem_Father"><rect codeLine="16" fill="#F1F1F1" height="102.2906" id="Father" rx="3" ry="3" style="stroke:#181818;stroke-width:0.6;" width="268.377" x="8.4" y="508.8"/><ellipse cx="113.2113" cy="528" fill="#ADD1B2" rx="13.2" ry="13.2" style="stroke:#181818;stroke-width:1.2;"/><path d="M116.5301,523.05 Q116.7176,522.7875 116.9426,522.6563 Q117.1676,522.525 117.4301,522.525 Q117.8801,522.525 118.1613,522.8438 Q118.4426,523.1438 118.4426,523.875 L118.4426,525.6188 Q118.4426,526.35 118.1613,526.6687 Q117.8801,526.9875 117.4301,526.9875 Q117.0176,526.9875 116.7738,526.7438 Q116.5301,526.5188 116.3988,525.9 Q116.3426,525.4688 116.1176,525.2438 Q115.7238,524.7937 114.9926,524.5313 Q114.2613,524.2688 113.5113,524.2688 Q112.5926,524.2688 111.8238,524.6625 Q111.0738,525.0563 110.4738,525.9563 Q109.8926,526.8562 109.8926,528.0938 L109.8926,529.4063 Q109.8926,530.8875 110.9613,531.8813 Q112.0301,532.8562 113.9426,532.8562 Q115.0676,532.8562 115.8551,532.5563 Q116.3238,532.3688 116.8301,531.8438 Q117.1488,531.525 117.3176,531.4313 Q117.5051,531.3375 117.7488,531.3375 Q118.1426,531.3375 118.4426,531.6563 Q118.7613,531.9563 118.7613,532.3688 Q118.7613,532.7813 118.3488,533.2688 Q117.7488,533.9625 116.7926,534.3562 Q115.4988,534.9 113.9426,534.9 Q112.1238,534.9 110.6801,534.15 Q109.4988,533.55 108.6738,532.275 Q107.8488,530.9812 107.8488,529.4438 L107.8488,528.0563 Q107.8488,526.4625 108.5801,525.0938 Q109.3301,523.7063 110.6426,522.975 Q111.9551,522.225 113.4363,522.225 Q114.3176,522.225 115.0863,522.4313 Q115.8738,522.6188 116.5301,523.05 Z " fill="#000000"/><text fill="#000000" font-family="sans-serif" font-size="16.8" lengthAdjust="spacing" textLength="48.5543" x="137.8113" y="534.9563">Father</text><line style="stroke:#181818;stroke-width:0.6;" x1="9.6" x2="275.577" y1="547.2" y2="547.2"/><line style="stroke:#181818;stroke-width:0.6;" x1="9.6" x2="275.577" y1="556.8" y2="556.8"/><ellipse cx="21.6" cy="574.5727" fill="#84BE84" rx="3.6" ry="3.6" style="stroke:#038048;stroke-width:1.2;"/><text fill="#000000" font-family="sans-serif" font-size="16.8" lengthAdjust="spacing" textLength="160.568" x="32.4" y="579.7289">void sayFromFather()</text><ellipse cx="21.6" cy="596.918" fill="#84BE84" rx="3.6" ry="3.6" style="stroke:#038048;stroke-width:1.2;"/><text fill="#000000" font-family="sans-serif" font-size="16.8" lengthAdjust="spacing" textLength="237.177" x="32.4" y="602.0742">String test(String name, int age)</text></g><!--class IAnimal--><g id="elem_IAnimal"><rect codeLine="21" fill="#F1F1F1" height="102.2906" id="IAnimal" rx="3" ry="3" style="stroke:#181818;stroke-width:0.6;" width="268.377" x="319.2" y="160.8"/><ellipse cx="420.2789" cy="180" fill="#B4A7E5" rx="13.2" ry="13.2" style="stroke:#181818;stroke-width:1.2;"/><path d="M421.4227,175.9688 L421.4227,183.9562 L423.4852,183.9562 Q424.2164,183.9562 424.5352,184.2375 Q424.8539,184.5187 424.8539,184.9875 Q424.8539,185.4375 424.5352,185.7188 Q424.2164,186 423.4852,186 L417.3164,186 Q416.5852,186 416.2664,185.7188 Q415.9477,185.4375 415.9477,184.9688 Q415.9477,184.5187 416.2664,184.2375 Q416.5852,183.9562 417.3164,183.9562 L419.3789,183.9562 L419.3789,175.9688 L417.3164,175.9688 Q416.5852,175.9688 416.2664,175.6875 Q415.9477,175.4063 415.9477,174.9375 Q415.9477,174.4875 416.2664,174.2062 Q416.5852,173.925 417.3164,173.925 L423.4852,173.925 Q424.2164,173.925 424.5352,174.2062 Q424.8539,174.4875 424.8539,174.9375 Q424.8539,175.4063 424.5352,175.6875 Q424.2164,175.9688 423.4852,175.9688 L421.4227,175.9688 Z " fill="#000000"/><text fill="#000000" font-family="sans-serif" font-size="16.8" font-style="italic" lengthAdjust="spacing" textLength="56.0191" x="444.8789" y="186.9562">IAnimal</text><line style="stroke:#181818;stroke-width:0.6;" x1="320.4" x2="586.377" y1="199.2" y2="199.2"/><line style="stroke:#181818;stroke-width:0.6;" x1="320.4" x2="586.377" y1="208.8" y2="208.8"/><ellipse cx="332.4" cy="226.5727" fill="#84BE84" rx="3.6" ry="3.6" style="stroke:#038048;stroke-width:1.2;"/><text fill="#000000" font-family="sans-serif" font-size="16.8" lengthAdjust="spacing" textLength="163.3652" x="343.2" y="231.7289">void sayFromAnimal()</text><ellipse cx="332.4" cy="248.918" fill="#84BE84" rx="3.6" ry="3.6" style="stroke:#038048;stroke-width:1.2;"/><text fill="#000000" font-family="sans-serif" font-size="16.8" lengthAdjust="spacing" textLength="237.177" x="343.2" y="254.0742">String test(String name, int age)</text></g><!--class IMammal--><g id="elem_IMammal"><rect codeLine="26" fill="#F1F1F1" height="102.2906" id="IMammal" rx="3" ry="3" style="stroke:#181818;stroke-width:0.6;" width="268.377" x="319.2" y="334.8"/><ellipse cx="413.7533" cy="354" fill="#B4A7E5" rx="13.2" ry="13.2" style="stroke:#181818;stroke-width:1.2;"/><path d="M414.8971,349.9688 L414.8971,357.9563 L416.9596,357.9563 Q417.6908,357.9563 418.0096,358.2375 Q418.3283,358.5188 418.3283,358.9875 Q418.3283,359.4375 418.0096,359.7188 Q417.6908,360 416.9596,360 L410.7908,360 Q410.0596,360 409.7408,359.7188 Q409.4221,359.4375 409.4221,358.9688 Q409.4221,358.5188 409.7408,358.2375 Q410.0596,357.9563 410.7908,357.9563 L412.8533,357.9563 L412.8533,349.9688 L410.7908,349.9688 Q410.0596,349.9688 409.7408,349.6875 Q409.4221,349.4063 409.4221,348.9375 Q409.4221,348.4875 409.7408,348.2063 Q410.0596,347.925 410.7908,347.925 L416.9596,347.925 Q417.6908,347.925 418.0096,348.2063 Q418.3283,348.4875 418.3283,348.9375 Q418.3283,349.4063 418.0096,349.6875 Q417.6908,349.9688 416.9596,349.9688 L414.8971,349.9688 Z " fill="#000000"/><text fill="#000000" font-family="sans-serif" font-size="16.8" font-style="italic" lengthAdjust="spacing" textLength="69.0703" x="438.3533" y="360.9563">IMammal</text><line style="stroke:#181818;stroke-width:0.6;" x1="320.4" x2="586.377" y1="373.2" y2="373.2"/><line style="stroke:#181818;stroke-width:0.6;" x1="320.4" x2="586.377" y1="382.8" y2="382.8"/><ellipse cx="332.4" cy="400.5727" fill="#84BE84" rx="3.6" ry="3.6" style="stroke:#038048;stroke-width:1.2;"/><text fill="#000000" font-family="sans-serif" font-size="16.8" lengthAdjust="spacing" textLength="176.4164" x="343.2" y="405.7289">void sayFromMammal()</text><ellipse cx="332.4" cy="422.918" fill="#84BE84" rx="3.6" ry="3.6" style="stroke:#038048;stroke-width:1.2;"/><text fill="#000000" font-family="sans-serif" font-size="16.8" lengthAdjust="spacing" textLength="237.177" x="343.2" y="428.0742">String test(String name, int age)</text></g><!--class ICat--><g id="elem_ICat"><rect codeLine="31" fill="#F1F1F1" height="102.2906" id="ICat" rx="3" ry="3" style="stroke:#181818;stroke-width:0.6;" width="268.377" x="319.2" y="508.8"/><ellipse cx="432.883" cy="528" fill="#B4A7E5" rx="13.2" ry="13.2" style="stroke:#181818;stroke-width:1.2;"/><path d="M434.0268,523.9688 L434.0268,531.9563 L436.0893,531.9563 Q436.8205,531.9563 437.1393,532.2375 Q437.458,532.5188 437.458,532.9875 Q437.458,533.4375 437.1393,533.7188 Q436.8205,534 436.0893,534 L429.9205,534 Q429.1893,534 428.8705,533.7188 Q428.5518,533.4375 428.5518,532.9688 Q428.5518,532.5188 428.8705,532.2375 Q429.1893,531.9563 429.9205,531.9563 L431.983,531.9563 L431.983,523.9688 L429.9205,523.9688 Q429.1893,523.9688 428.8705,523.6875 Q428.5518,523.4063 428.5518,522.9375 Q428.5518,522.4875 428.8705,522.2063 Q429.1893,521.925 429.9205,521.925 L436.0893,521.925 Q436.8205,521.925 437.1393,522.2063 Q437.458,522.4875 437.458,522.9375 Q437.458,523.4063 437.1393,523.6875 Q436.8205,523.9688 436.0893,523.9688 L434.0268,523.9688 Z " fill="#000000"/><text fill="#000000" font-family="sans-serif" font-size="16.8" font-style="italic" lengthAdjust="spacing" textLength="30.8109" x="457.483" y="534.9563">ICat</text><line style="stroke:#181818;stroke-width:0.6;" x1="320.4" x2="586.377" y1="547.2" y2="547.2"/><line style="stroke:#181818;stroke-width:0.6;" x1="320.4" x2="586.377" y1="556.8" y2="556.8"/><ellipse cx="332.4" cy="574.5727" fill="#84BE84" rx="3.6" ry="3.6" style="stroke:#038048;stroke-width:1.2;"/><text fill="#000000" font-family="sans-serif" font-size="16.8" lengthAdjust="spacing" textLength="138.157" x="343.2" y="579.7289">void sayFromCat()</text><ellipse cx="332.4" cy="596.918" fill="#84BE84" rx="3.6" ry="3.6" style="stroke:#038048;stroke-width:1.2;"/><text fill="#000000" font-family="sans-serif" font-size="16.8" lengthAdjust="spacing" textLength="237.177" x="343.2" y="602.0742">String test(String name, int age)</text></g><!--class IDog--><g id="elem_IDog"><rect codeLine="36" fill="#F1F1F1" height="102.2906" id="IDog" rx="3" ry="3" style="stroke:#181818;stroke-width:0.6;" width="268.377" x="630" y="508.8"/><ellipse cx="741.3451" cy="528" fill="#B4A7E5" rx="13.2" ry="13.2" style="stroke:#181818;stroke-width:1.2;"/><path d="M742.4889,523.9688 L742.4889,531.9563 L744.5514,531.9563 Q745.2826,531.9563 745.6014,532.2375 Q745.9201,532.5188 745.9201,532.9875 Q745.9201,533.4375 745.6014,533.7188 Q745.2826,534 744.5514,534 L738.3826,534 Q737.6514,534 737.3326,533.7188 Q737.0139,533.4375 737.0139,532.9688 Q737.0139,532.5188 737.3326,532.2375 Q737.6514,531.9563 738.3826,531.9563 L740.4451,531.9563 L740.4451,523.9688 L738.3826,523.9688 Q737.6514,523.9688 737.3326,523.6875 Q737.0139,523.4063 737.0139,522.9375 Q737.0139,522.4875 737.3326,522.2063 Q737.6514,521.925 738.3826,521.925 L744.5514,521.925 Q745.2826,521.925 745.6014,522.2063 Q745.9201,522.4875 745.9201,522.9375 Q745.9201,523.4063 745.6014,523.6875 Q745.2826,523.9688 744.5514,523.9688 L742.4889,523.9688 Z " fill="#000000"/><text fill="#000000" font-family="sans-serif" font-size="16.8" font-style="italic" lengthAdjust="spacing" textLength="35.4867" x="765.9451" y="534.9563">IDog</text><line style="stroke:#181818;stroke-width:0.6;" x1="631.2" x2="897.177" y1="547.2" y2="547.2"/><line style="stroke:#181818;stroke-width:0.6;" x1="631.2" x2="897.177" y1="556.8" y2="556.8"/><ellipse cx="643.2" cy="574.5727" fill="#84BE84" rx="3.6" ry="3.6" style="stroke:#038048;stroke-width:1.2;"/><text fill="#000000" font-family="sans-serif" font-size="16.8" lengthAdjust="spacing" textLength="142.8328" x="654" y="579.7289">void sayFromDog()</text><ellipse cx="643.2" cy="596.918" fill="#84BE84" rx="3.6" ry="3.6" style="stroke:#038048;stroke-width:1.2;"/><text fill="#000000" font-family="sans-serif" font-size="16.8" lengthAdjust="spacing" textLength="237.177" x="654" y="602.0742">String test(String name, int age)</text></g><!--class HelloWorld--><g id="elem_HelloWorld"><rect codeLine="4" fill="#F1F1F1" height="102.2906" id="HelloWorld" rx="3" ry="3" style="stroke:#181818;stroke-width:0.6;" width="268.377" x="319.2" y="682.8"/><ellipse cx="407.2113" cy="702" fill="#ADD1B2" rx="13.2" ry="13.2" style="stroke:#181818;stroke-width:1.2;"/><path d="M410.5301,697.05 Q410.7176,696.7875 410.9426,696.6563 Q411.1676,696.525 411.4301,696.525 Q411.8801,696.525 412.1613,696.8438 Q412.4426,697.1438 412.4426,697.875 L412.4426,699.6188 Q412.4426,700.35 412.1613,700.6687 Q411.8801,700.9875 411.4301,700.9875 Q411.0176,700.9875 410.7738,700.7438 Q410.5301,700.5188 410.3988,699.9 Q410.3426,699.4688 410.1176,699.2438 Q409.7238,698.7937 408.9926,698.5313 Q408.2613,698.2688 407.5113,698.2688 Q406.5926,698.2688 405.8238,698.6625 Q405.0738,699.0563 404.4738,699.9563 Q403.8926,700.8562 403.8926,702.0938 L403.8926,703.4063 Q403.8926,704.8875 404.9613,705.8813 Q406.0301,706.8562 407.9426,706.8562 Q409.0676,706.8562 409.8551,706.5563 Q410.3238,706.3688 410.8301,705.8438 Q411.1488,705.525 411.3176,705.4313 Q411.5051,705.3375 411.7488,705.3375 Q412.1426,705.3375 412.4426,705.6563 Q412.7613,705.9563 412.7613,706.3688 Q412.7613,706.7813 412.3488,707.2688 Q411.7488,707.9625 410.7926,708.3562 Q409.4988,708.9 407.9426,708.9 Q406.1238,708.9 404.6801,708.15 Q403.4988,707.55 402.6738,706.275 Q401.8488,704.9812 401.8488,703.4438 L401.8488,702.0563 Q401.8488,700.4625 402.5801,699.0938 Q403.3301,697.7063 404.6426,696.975 Q405.9551,696.225 407.4363,696.225 Q408.3176,696.225 409.0863,696.4313 Q409.8738,696.6188 410.5301,697.05 Z " fill="#000000"/><text fill="#000000" font-family="sans-serif" font-size="16.8" lengthAdjust="spacing" textLength="82.1543" x="431.8113" y="708.9563">HelloWorld</text><line style="stroke:#181818;stroke-width:0.6;" x1="320.4" x2="586.377" y1="721.2" y2="721.2"/><line style="stroke:#181818;stroke-width:0.6;" x1="320.4" x2="586.377" y1="730.8" y2="730.8"/><ellipse cx="332.4" cy="748.5727" fill="#84BE84" rx="3.6" ry="3.6" style="stroke:#038048;stroke-width:1.2;"/><text fill="#000000" font-family="sans-serif" font-size="16.8" lengthAdjust="spacing" textLength="166.2035" x="343.2" y="753.7289">sayFromHelloWorld()</text><ellipse cx="332.4" cy="770.918" fill="#84BE84" rx="3.6" ry="3.6" style="stroke:#038048;stroke-width:1.2;"/><text fill="#000000" font-family="sans-serif" font-size="16.8" lengthAdjust="spacing" textLength="237.177" x="343.2" y="776.0742">String test(String name, int age)</text></g><!--reverse link Object to Ancestor--><g id="link_Object_Ancestor"><path d="M142.8,99.048 C142.8,121.848 142.8,133.2 142.8,160.62 " fill="none" id="Object-backto-Ancestor" style="stroke:#181818;stroke-width:1.2;"/><polygon fill="none" points="142.8,77.448,135.6,99.048,150,99.048,142.8,77.448" style="stroke:#181818;stroke-width:1.2;"/></g><!--reverse link ITest to Ancestor--><g id="link_ITest_Ancestor"><path d="M321.4498,100.281 C286.5298,121.845 261.18,137.496 223.788,160.584 " fill="none" id="ITest-backto-Ancestor" style="stroke:#181818;stroke-width:1.2;stroke-dasharray:7.0,7.0;"/><polygon fill="none" points="339.828,88.932,317.6668,94.155,325.2328,106.4071,339.828,88.932" style="stroke:#181818;stroke-width:1.2;"/></g><!--reverse link Ancestor to GrandFather--><g id="link_Ancestor_GrandFather"><path d="M142.8,284.7 C142.8,307.248 142.8,312.216 142.8,334.74 " fill="none" id="Ancestor-backto-GrandFather" style="stroke:#181818;stroke-width:1.2;"/><polygon fill="none" points="142.8,263.1,135.6,284.7,150,284.7,142.8,263.1" style="stroke:#181818;stroke-width:1.2;"/></g><!--reverse link GrandFather to Father--><g id="link_GrandFather_Father"><path d="M142.8,458.7 C142.8,481.248 142.8,486.216 142.8,508.74 " fill="none" id="GrandFather-backto-Father" style="stroke:#181818;stroke-width:1.2;"/><polygon fill="none" points="142.8,437.1,135.6,458.7,150,458.7,142.8,437.1" style="stroke:#181818;stroke-width:1.2;"/></g><!--reverse link ITest to IAnimal--><g id="link_ITest_IAnimal"><path d="M421.9889,109.7458 C428.7569,131.3218 430.74,137.664 437.964,160.704 " fill="none" id="ITest-backto-IAnimal" style="stroke:#181818;stroke-width:1.2;"/><polygon fill="none" points="415.524,89.136,415.119,111.9008,428.8589,107.5908,415.524,89.136" style="stroke:#181818;stroke-width:1.2;"/></g><!--reverse link IAnimal to IMammal--><g id="link_IAnimal_IMammal"><path d="M453.6,284.7 C453.6,307.248 453.6,312.216 453.6,334.74 " fill="none" id="IAnimal-backto-IMammal" style="stroke:#181818;stroke-width:1.2;"/><polygon fill="none" points="453.6,263.1,446.4,284.7,460.8,284.7,453.6,263.1" style="stroke:#181818;stroke-width:1.2;"/></g><!--reverse link IMammal to ICat--><g id="link_IMammal_ICat"><path d="M453.6,458.7 C453.6,481.248 453.6,486.216 453.6,508.74 " fill="none" id="IMammal-backto-ICat" style="stroke:#181818;stroke-width:1.2;"/><polygon fill="none" points="453.6,437.1,446.4,458.7,460.8,458.7,453.6,437.1" style="stroke:#181818;stroke-width:1.2;"/></g><!--reverse link IMammal to IDog--><g id="link_IMammal_IDog"><path d="M562.8189,447.3046 C603.6789,469.8766 632.976,486.036 673.86,508.608 " fill="none" id="IMammal-backto-IDog" style="stroke:#181818;stroke-width:1.2;"/><polygon fill="none" points="543.912,436.86,559.3374,453.6069,566.3004,441.0023,543.912,436.86" style="stroke:#181818;stroke-width:1.2;"/></g><!--reverse link Father to HelloWorld--><g id="link_Father_HelloWorld"><path d="M252.0189,621.3046 C292.8789,643.8766 322.176,660.036 363.06,682.608 " fill="none" id="Father-backto-HelloWorld" style="stroke:#181818;stroke-width:1.2;"/><polygon fill="none" points="233.112,610.86,248.5374,627.6069,255.5004,615.0023,233.112,610.86" style="stroke:#181818;stroke-width:1.2;"/></g><!--reverse link ICat to HelloWorld--><g id="link_ICat_HelloWorld"><path d="M453.6,632.7 C453.6,655.248 453.6,660.216 453.6,682.74 " fill="none" id="ICat-backto-HelloWorld" style="stroke:#181818;stroke-width:1.2;stroke-dasharray:7.0,7.0;"/><polygon fill="none" points="453.6,611.1,446.4,632.7,460.8,632.7,453.6,611.1" style="stroke:#181818;stroke-width:1.2;"/></g><!--reverse link IDog to HelloWorld--><g id="link_IDog_HelloWorld"><path d="M655.1811,621.3046 C614.3211,643.8766 585.024,660.036 544.14,682.608 " fill="none" id="IDog-backto-HelloWorld" style="stroke:#181818;stroke-width:1.2;stroke-dasharray:7.0,7.0;"/><polygon fill="none" points="674.088,610.86,651.6996,615.0023,658.6626,627.6069,674.088,610.86" style="stroke:#181818;stroke-width:1.2;"/></g><!--SRC=[LOkn2i90343t-ugujTZp9nIrYuk3Szg4wq4kaLuA5l7VLN3nJGyURvDrb8KOXjLvM8ZMMDWdeqWidD2pQQnOxi9nj59CTtaf4i8eM2kSMSHkDWi1FvoLAXpH9vuXVvV2wXNwFNe7_S4IF0DysCBLvwm9AgudCxhaD7dJ_ZVdwitF5GjtaDK14xVX5Tu0]--></g></svg>