<svg xmlns="http://www.w3.org/2000/svg" xmlns:xlink="http://www.w3.org/1999/xlink" contentStyleType="text/css" height="207px" preserveAspectRatio="none" style="width:361px;height:207px;background:#FFFFFF;" version="1.1" viewBox="0 0 361 207" width="361px" zoomAndPan="magnify"><defs/><g><!--class List--><g id="elem_List"><rect codeLine="1" fill="#F1F1F1" height="85.2422" id="List" rx="2.5" ry="2.5" style="stroke:#181818;stroke-width:0.5;" width="81.2412" x="10" y="7"/><ellipse cx="37.3548" cy="23" fill="#B4A7E5" rx="11" ry="11" style="stroke:#181818;stroke-width:1.0;"/><path d="M38.3079,19.6406 L38.3079,26.2969 L40.0267,26.2969 Q40.636,26.2969 40.9017,26.5313 Q41.1673,26.7656 41.1673,27.1563 Q41.1673,27.5313 40.9017,27.7656 Q40.636,28 40.0267,28 L34.886,28 Q34.2767,28 34.011,27.7656 Q33.7454,27.5313 33.7454,27.1406 Q33.7454,26.7656 34.011,26.5313 Q34.2767,26.2969 34.886,26.2969 L36.6048,26.2969 L36.6048,19.6406 L34.886,19.6406 Q34.2767,19.6406 34.011,19.4063 Q33.7454,19.1719 33.7454,18.7813 Q33.7454,18.4063 34.011,18.1719 Q34.2767,17.9375 34.886,17.9375 L40.0267,17.9375 Q40.636,17.9375 40.9017,18.1719 Q41.1673,18.4063 41.1673,18.7813 Q41.1673,19.1719 40.9017,19.4063 Q40.636,19.6406 40.0267,19.6406 L38.3079,19.6406 Z " fill="#000000"/><text fill="#000000" font-family="sans-serif" font-size="14" font-style="italic" lengthAdjust="spacing" textLength="21.7861" x="54.1003" y="28.7969">List</text><line style="stroke:#181818;stroke-width:0.5;" x1="11" x2="90.2412" y1="39" y2="39"/><line style="stroke:#181818;stroke-width:0.5;" x1="11" x2="90.2412" y1="47" y2="47"/><text fill="#000000" font-family="sans-serif" font-size="14" lengthAdjust="spacing" textLength="52.8965" x="16" y="66.1074">int size()</text><text fill="#000000" font-family="sans-serif" font-size="14" lengthAdjust="spacing" textLength="69.2412" x="16" y="84.7285">void clear()</text></g><!--class ArrayList--><g id="elem_ArrayList"><rect fill="#F1F1F1" height="48" id="ArrayList" rx="2.5" ry="2.5" style="stroke:#181818;stroke-width:0.5;" width="87.2344" x="7" y="152"/><ellipse cx="22" cy="168" fill="#ADD1B2" rx="11" ry="11" style="stroke:#181818;stroke-width:1.0;"/><path d="M24.7656,163.875 Q24.9219,163.6563 25.1094,163.5469 Q25.2969,163.4375 25.5156,163.4375 Q25.8906,163.4375 26.125,163.7031 Q26.3594,163.9531 26.3594,164.5625 L26.3594,166.0156 Q26.3594,166.625 26.125,166.8906 Q25.8906,167.1563 25.5156,167.1563 Q25.1719,167.1563 24.9688,166.9531 Q24.7656,166.7656 24.6563,166.25 Q24.6094,165.8906 24.4219,165.7031 Q24.0938,165.3281 23.4844,165.1094 Q22.875,164.8906 22.25,164.8906 Q21.4844,164.8906 20.8438,165.2188 Q20.2188,165.5469 19.7188,166.2969 Q19.2344,167.0469 19.2344,168.0781 L19.2344,169.1719 Q19.2344,170.4063 20.125,171.2344 Q21.0156,172.0469 22.6094,172.0469 Q23.5469,172.0469 24.2031,171.7969 Q24.5938,171.6406 25.0156,171.2031 Q25.2813,170.9375 25.4219,170.8594 Q25.5781,170.7813 25.7813,170.7813 Q26.1094,170.7813 26.3594,171.0469 Q26.625,171.2969 26.625,171.6406 Q26.625,171.9844 26.2813,172.3906 Q25.7813,172.9688 24.9844,173.2969 Q23.9063,173.75 22.6094,173.75 Q21.0938,173.75 19.8906,173.125 Q18.9063,172.625 18.2188,171.5625 Q17.5313,170.4844 17.5313,169.2031 L17.5313,168.0469 Q17.5313,166.7188 18.1406,165.5781 Q18.7656,164.4219 19.8594,163.8125 Q20.9531,163.1875 22.1875,163.1875 Q22.9219,163.1875 23.5625,163.3594 Q24.2188,163.5156 24.7656,163.875 Z " fill="#000000"/><text fill="#000000" font-family="sans-serif" font-size="14" lengthAdjust="spacing" textLength="55.2344" x="36" y="173.7969">ArrayList</text><line style="stroke:#181818;stroke-width:0.5;" x1="8" x2="93.2344" y1="184" y2="184"/><line style="stroke:#181818;stroke-width:0.5;" x1="8" x2="93.2344" y1="192" y2="192"/></g><!--class List2--><g id="elem_List2"><rect codeLine="8" fill="#F1F1F1" height="85.2422" id="List2" rx="2.5" ry="2.5" style="stroke:#181818;stroke-width:0.5;" width="81.2412" x="136" y="7"/><ellipse cx="159.851" cy="23" fill="#B4A7E5" rx="11" ry="11" style="stroke:#181818;stroke-width:1.0;"/><path d="M160.8042,19.6406 L160.8042,26.2969 L162.5229,26.2969 Q163.1323,26.2969 163.3979,26.5313 Q163.6635,26.7656 163.6635,27.1563 Q163.6635,27.5313 163.3979,27.7656 Q163.1323,28 162.5229,28 L157.3823,28 Q156.7729,28 156.5073,27.7656 Q156.2417,27.5313 156.2417,27.1406 Q156.2417,26.7656 156.5073,26.5313 Q156.7729,26.2969 157.3823,26.2969 L159.101,26.2969 L159.101,19.6406 L157.3823,19.6406 Q156.7729,19.6406 156.5073,19.4063 Q156.2417,19.1719 156.2417,18.7813 Q156.2417,18.4063 156.5073,18.1719 Q156.7729,17.9375 157.3823,17.9375 L162.5229,17.9375 Q163.1323,17.9375 163.3979,18.1719 Q163.6635,18.4063 163.6635,18.7813 Q163.6635,19.1719 163.3979,19.4063 Q163.1323,19.6406 162.5229,19.6406 L160.8042,19.6406 Z " fill="#000000"/><text fill="#000000" font-family="sans-serif" font-size="14" font-style="italic" lengthAdjust="spacing" textLength="29.5723" x="175.8179" y="28.7969">List2</text><line style="stroke:#181818;stroke-width:0.5;" x1="137" x2="216.2412" y1="39" y2="39"/><line style="stroke:#181818;stroke-width:0.5;" x1="137" x2="216.2412" y1="47" y2="47"/><text fill="#000000" font-family="sans-serif" font-size="14" lengthAdjust="spacing" textLength="52.8965" x="142" y="66.1074">int size()</text><text fill="#000000" font-family="sans-serif" font-size="14" lengthAdjust="spacing" textLength="69.2412" x="142" y="84.7285">void clear()</text></g><!--class ArrayList2--><g id="elem_ArrayList2"><rect fill="#F1F1F1" height="48" id="ArrayList2" rx="2.5" ry="2.5" style="stroke:#181818;stroke-width:0.5;" width="95.0205" x="129" y="152"/><ellipse cx="144" cy="168" fill="#ADD1B2" rx="11" ry="11" style="stroke:#181818;stroke-width:1.0;"/><path d="M146.7656,163.875 Q146.9219,163.6563 147.1094,163.5469 Q147.2969,163.4375 147.5156,163.4375 Q147.8906,163.4375 148.125,163.7031 Q148.3594,163.9531 148.3594,164.5625 L148.3594,166.0156 Q148.3594,166.625 148.125,166.8906 Q147.8906,167.1563 147.5156,167.1563 Q147.1719,167.1563 146.9688,166.9531 Q146.7656,166.7656 146.6563,166.25 Q146.6094,165.8906 146.4219,165.7031 Q146.0938,165.3281 145.4844,165.1094 Q144.875,164.8906 144.25,164.8906 Q143.4844,164.8906 142.8438,165.2188 Q142.2188,165.5469 141.7188,166.2969 Q141.2344,167.0469 141.2344,168.0781 L141.2344,169.1719 Q141.2344,170.4063 142.125,171.2344 Q143.0156,172.0469 144.6094,172.0469 Q145.5469,172.0469 146.2031,171.7969 Q146.5938,171.6406 147.0156,171.2031 Q147.2813,170.9375 147.4219,170.8594 Q147.5781,170.7813 147.7813,170.7813 Q148.1094,170.7813 148.3594,171.0469 Q148.625,171.2969 148.625,171.6406 Q148.625,171.9844 148.2813,172.3906 Q147.7813,172.9688 146.9844,173.2969 Q145.9063,173.75 144.6094,173.75 Q143.0938,173.75 141.8906,173.125 Q140.9063,172.625 140.2188,171.5625 Q139.5313,170.4844 139.5313,169.2031 L139.5313,168.0469 Q139.5313,166.7188 140.1406,165.5781 Q140.7656,164.4219 141.8594,163.8125 Q142.9531,163.1875 144.1875,163.1875 Q144.9219,163.1875 145.5625,163.3594 Q146.2188,163.5156 146.7656,163.875 Z " fill="#000000"/><text fill="#000000" font-family="sans-serif" font-size="14" lengthAdjust="spacing" textLength="63.0205" x="158" y="173.7969">ArrayList2</text><line style="stroke:#181818;stroke-width:0.5;" x1="130" x2="223.0205" y1="184" y2="184"/><line style="stroke:#181818;stroke-width:0.5;" x1="130" x2="223.0205" y1="192" y2="192"/></g><!--class List3--><g id="elem_List3"><rect codeLine="15" fill="#F1F1F1" height="85.2422" id="List3" rx="2.5" ry="2.5" style="stroke:#181818;stroke-width:0.5;" width="81.2412" x="266" y="7"/><ellipse cx="289.851" cy="23" fill="#B4A7E5" rx="11" ry="11" style="stroke:#181818;stroke-width:1.0;"/><path d="M290.8042,19.6406 L290.8042,26.2969 L292.5229,26.2969 Q293.1323,26.2969 293.3979,26.5313 Q293.6635,26.7656 293.6635,27.1563 Q293.6635,27.5313 293.3979,27.7656 Q293.1323,28 292.5229,28 L287.3823,28 Q286.7729,28 286.5073,27.7656 Q286.2417,27.5313 286.2417,27.1406 Q286.2417,26.7656 286.5073,26.5313 Q286.7729,26.2969 287.3823,26.2969 L289.101,26.2969 L289.101,19.6406 L287.3823,19.6406 Q286.7729,19.6406 286.5073,19.4063 Q286.2417,19.1719 286.2417,18.7813 Q286.2417,18.4063 286.5073,18.1719 Q286.7729,17.9375 287.3823,17.9375 L292.5229,17.9375 Q293.1323,17.9375 293.3979,18.1719 Q293.6635,18.4063 293.6635,18.7813 Q293.6635,19.1719 293.3979,19.4063 Q293.1323,19.6406 292.5229,19.6406 L290.8042,19.6406 Z " fill="#000000"/><text fill="#000000" font-family="sans-serif" font-size="14" font-style="italic" lengthAdjust="spacing" textLength="29.5723" x="305.8179" y="28.7969">List3</text><line style="stroke:#181818;stroke-width:0.5;" x1="267" x2="346.2412" y1="39" y2="39"/><line style="stroke:#181818;stroke-width:0.5;" x1="267" x2="346.2412" y1="47" y2="47"/><text fill="#000000" font-family="sans-serif" font-size="14" lengthAdjust="spacing" textLength="52.8965" x="272" y="66.1074">int size()</text><text fill="#000000" font-family="sans-serif" font-size="14" lengthAdjust="spacing" textLength="69.2412" x="272" y="84.7285">void clear()</text></g><!--class ArrayList3--><g id="elem_ArrayList3"><rect fill="#F1F1F1" height="48" id="ArrayList3" rx="2.5" ry="2.5" style="stroke:#181818;stroke-width:0.5;" width="95.0205" x="259" y="152"/><ellipse cx="274" cy="168" fill="#ADD1B2" rx="11" ry="11" style="stroke:#181818;stroke-width:1.0;"/><path d="M276.7656,163.875 Q276.9219,163.6563 277.1094,163.5469 Q277.2969,163.4375 277.5156,163.4375 Q277.8906,163.4375 278.125,163.7031 Q278.3594,163.9531 278.3594,164.5625 L278.3594,166.0156 Q278.3594,166.625 278.125,166.8906 Q277.8906,167.1563 277.5156,167.1563 Q277.1719,167.1563 276.9688,166.9531 Q276.7656,166.7656 276.6563,166.25 Q276.6094,165.8906 276.4219,165.7031 Q276.0938,165.3281 275.4844,165.1094 Q274.875,164.8906 274.25,164.8906 Q273.4844,164.8906 272.8438,165.2188 Q272.2188,165.5469 271.7188,166.2969 Q271.2344,167.0469 271.2344,168.0781 L271.2344,169.1719 Q271.2344,170.4063 272.125,171.2344 Q273.0156,172.0469 274.6094,172.0469 Q275.5469,172.0469 276.2031,171.7969 Q276.5938,171.6406 277.0156,171.2031 Q277.2813,170.9375 277.4219,170.8594 Q277.5781,170.7813 277.7813,170.7813 Q278.1094,170.7813 278.3594,171.0469 Q278.625,171.2969 278.625,171.6406 Q278.625,171.9844 278.2813,172.3906 Q277.7813,172.9688 276.9844,173.2969 Q275.9063,173.75 274.6094,173.75 Q273.0938,173.75 271.8906,173.125 Q270.9063,172.625 270.2188,171.5625 Q269.5313,170.4844 269.5313,169.2031 L269.5313,168.0469 Q269.5313,166.7188 270.1406,165.5781 Q270.7656,164.4219 271.8594,163.8125 Q272.9531,163.1875 274.1875,163.1875 Q274.9219,163.1875 275.5625,163.3594 Q276.2188,163.5156 276.7656,163.875 Z " fill="#000000"/><text fill="#000000" font-family="sans-serif" font-size="14" lengthAdjust="spacing" textLength="63.0205" x="288" y="173.7969">ArrayList3</text><line style="stroke:#181818;stroke-width:0.5;" x1="260" x2="353.0205" y1="184" y2="184"/><line style="stroke:#181818;stroke-width:0.5;" x1="260" x2="353.0205" y1="192" y2="192"/></g><!--reverse link List to ArrayList--><g id="link_List_ArrayList"><path codeLine="4" d="M50.5,110.3 C50.5,130.22 50.5,135.29 50.5,151.99 " fill="none" id="List-backto-ArrayList" style="stroke:#181818;stroke-width:1.0;stroke-dasharray:7.0,7.0;"/><polygon fill="none" points="50.5,92.3,44.5,110.3,56.5,110.3,50.5,92.3" style="stroke:#181818;stroke-width:1.0;"/></g><!--reverse link List2 to ArrayList2--><g id="link_List2_ArrayList2"><path codeLine="11" d="M176.5,110.3 C176.5,130.22 176.5,135.29 176.5,151.99 " fill="none" id="List2-backto-ArrayList2" style="stroke:#181818;stroke-width:1.0;stroke-dasharray:7.0,7.0;"/><polygon fill="none" points="176.5,92.3,170.5,110.3,182.5,110.3,176.5,92.3" style="stroke:#181818;stroke-width:1.0;"/></g><!--reverse link List3 to ArrayList3--><g id="link_List3_ArrayList3"><path codeLine="18" d="M306.5,110.3 C306.5,130.22 306.5,135.29 306.5,151.99 " fill="none" id="List3-backto-ArrayList3" style="stroke:#181818;stroke-width:1.0;stroke-dasharray:7.0,7.0;"/><polygon fill="none" points="306.5,92.3,300.5,110.3,312.5,110.3,306.5,92.3" style="stroke:#181818;stroke-width:1.0;"/></g><!--SRC=[KypCIyufJKbLyCaiBj7BBCtDuL9Nn11JDE328cY8JT0tCXx4CUP2c1EVcvXNYSJDpqjE1G00]--></g></svg>