<?xml version="1.0" encoding="UTF-8"?>
<svg width="1214px" height="488px" viewBox="0 0 1214 488" version="1.1" xmlns="http://www.w3.org/2000/svg" xmlns:xlink="http://www.w3.org/1999/xlink">
    <!-- Generator: Sketch 50 (54983) - http://www.bohemiancoding.com/sketch -->
    <title>iris species</title>
    <desc>Created with Sketch.</desc>
    <defs>
        <radialGradient cx="52.036542%" cy="56.8393795%" fx="52.036542%" fy="56.8393795%" r="96.6968779%" gradientTransform="translate(0.520365,0.568394),scale(1.000000,0.885999),rotate(-90.000000),translate(-0.520365,-0.568394)" id="radialGradient-1">
            <stop stop-color="#B056FF" offset="0%"></stop>
            <stop stop-color="#F4E3FF" offset="100%"></stop>
        </radialGradient>
        <radialGradient cx="52.036542%" cy="56.8393795%" fx="52.036542%" fy="56.8393795%" r="72.3382077%" gradientTransform="translate(0.520365,0.568394),scale(1.000000,0.885999),rotate(-93.170462),translate(-0.520365,-0.568394)" id="radialGradient-2">
            <stop stop-color="#8800FF" offset="0%"></stop>
            <stop stop-color="#F4E3FF" offset="100%"></stop>
        </radialGradient>
        <radialGradient cx="50.7824656%" cy="40.6628734%" fx="50.7824656%" fy="40.6628734%" r="55.6687454%" gradientTransform="translate(0.507825,0.406629),scale(0.983085,1.000000),rotate(-90.000000),translate(-0.507825,-0.406629)" id="radialGradient-3">
            <stop stop-color="#FFEF4E" offset="0%"></stop>
            <stop stop-color="#8800FF" offset="100%"></stop>
        </radialGradient>
        <radialGradient cx="52.036542%" cy="56.8393795%" fx="52.036542%" fy="56.8393795%" r="88.7119927%" gradientTransform="translate(0.520365,0.568394),scale(1.000000,0.892129),rotate(43.196465),translate(-0.520365,-0.568394)" id="radialGradient-4">
            <stop stop-color="#B056FF" offset="0%"></stop>
            <stop stop-color="#F4E3FF" offset="100%"></stop>
        </radialGradient>
        <radialGradient cx="51.6501354%" cy="37.0025252%" fx="51.6501354%" fy="37.0025252%" r="56.640648%" gradientTransform="translate(0.516501,0.370025),scale(1.000000,0.841995),rotate(-89.999999),translate(-0.516501,-0.370025)" id="radialGradient-5">
            <stop stop-color="#FFE543" offset="0%"></stop>
            <stop stop-color="#8800FF" offset="100%"></stop>
        </radialGradient>
        <radialGradient cx="49.6680399%" cy="36.9555267%" fx="49.6680399%" fy="36.9555267%" r="45.2745254%" gradientTransform="translate(0.496680,0.369555),scale(0.871383,1.000000),rotate(158.373509),translate(-0.496680,-0.369555)" id="radialGradient-6">
            <stop stop-color="#FFE109" offset="0%"></stop>
            <stop stop-color="#A13AFA" offset="100%"></stop>
        </radialGradient>
    </defs>
    <g id="iris-species" stroke="none" stroke-width="1" fill="none" fill-rule="evenodd">
        <path d="M114.578125,447 L114.578125,424.109375 L118.8125,424.109375 L118.8125,447 L114.578125,447 Z M123.5,447 L123.5,429.828125 L126.9375,429.828125 L127.46875,432.453125 C128.593756,430.651033 130.223948,429.75 132.359375,429.75 C132.807294,429.75 133.171874,429.770833 133.453125,429.8125 L133.390625,433.234375 C132.973956,433.171875 132.541669,433.140625 132.09375,433.140625 C130.583326,433.140625 129.455733,433.541663 128.710938,434.34375 C127.966142,435.145837 127.59375,436.26041 127.59375,437.6875 L127.59375,447 L123.5,447 Z M136.046875,447 L136.046875,429.828125 L140.140625,429.828125 L140.140625,447 L136.046875,447 Z M136.046875,427.328125 L136.046875,423.828125 L140.15625,423.828125 L140.15625,427.328125 L136.046875,427.328125 Z M149.890625,447.3125 C147.359362,447.3125 145.333341,446.880213 143.8125,446.015625 L144.234375,442.9375 C144.921878,443.312502 145.79687,443.648436 146.859375,443.945312 C147.92188,444.242189 148.890621,444.390625 149.765625,444.390625 C150.67188,444.390625 151.377602,444.221356 151.882812,443.882812 C152.388023,443.544269 152.645833,443.046878 152.65625,442.390625 C152.65625,441.796872 152.419273,441.328127 151.945312,440.984375 C151.471352,440.640623 150.567715,440.213544 149.234375,439.703125 C148.776039,439.536457 148.479167,439.427084 148.34375,439.375 C146.760409,438.760414 145.619795,438.075525 144.921875,437.320312 C144.223955,436.5651 143.875,435.541673 143.875,434.25 C143.875,432.687492 144.440099,431.489587 145.570312,430.65625 C146.700526,429.822912 148.276032,429.40625 150.296875,429.40625 C152.484386,429.40625 154.406242,429.817704 156.0625,430.640625 L155.046875,433.46875 C153.41145,432.70833 151.854174,432.328125 150.375,432.328125 C149.552079,432.328125 148.908856,432.466144 148.445312,432.742188 C147.981769,433.018231 147.75,433.437497 147.75,434 C147.75,434.531253 147.973956,434.945311 148.421875,435.242188 C148.869794,435.539064 149.744785,435.927081 151.046875,436.40625 C151.088542,436.416667 151.223957,436.463541 151.453125,436.546875 C151.682293,436.630209 151.859374,436.697916 151.984375,436.75 C153.5573,437.32292 154.713538,438.007809 155.453125,438.804688 C156.192712,439.601566 156.5625,440.640619 156.5625,441.921875 C156.552083,443.640634 155.968756,444.968745 154.8125,445.90625 C153.656244,446.843755 152.015636,447.3125 149.890625,447.3125 Z M174.40625,447 L166.078125,424.109375 L170.4375,424.109375 L175.28125,438.25 C175.468751,438.739586 175.901038,440.171863 176.578125,442.546875 C176.619792,442.380207 176.812498,441.695319 177.15625,440.492188 C177.500002,439.289056 177.723958,438.552085 177.828125,438.28125 C177.953126,437.927082 178.744784,435.575543 180.203125,431.226562 C181.661466,426.877582 182.458333,424.50521 182.59375,424.109375 L186.90625,424.109375 L178.6875,447 L174.40625,447 Z M196.828125,447.328125 C194.067695,447.328125 191.919279,446.533862 190.382812,444.945312 C188.846346,443.356763 188.078125,441.161472 188.078125,438.359375 C188.078125,435.630195 188.802076,433.458341 190.25,431.84375 C191.697924,430.229159 193.671863,429.416667 196.171875,429.40625 C198.53647,429.40625 200.372389,430.145826 201.679688,431.625 C202.986986,433.104174 203.640625,435.067696 203.640625,437.515625 C203.640625,437.692709 203.638021,437.979165 203.632812,438.375 C203.627604,438.770835 203.625,439.062499 203.625,439.25 L192.203125,439.25 C192.244792,440.854175 192.684892,442.09635 193.523438,442.976562 C194.361983,443.856775 195.515618,444.296875 196.984375,444.296875 C198.859384,444.296875 200.66145,443.807297 202.390625,442.828125 L202.96875,445.734375 C201.249991,446.79688 199.203137,447.328125 196.828125,447.328125 Z M192.28125,436.671875 L199.78125,436.671875 C199.78125,435.276035 199.463545,434.203129 198.828125,433.453125 C198.192705,432.703121 197.312506,432.328125 196.1875,432.328125 C195.135411,432.328125 194.247399,432.692705 193.523438,433.421875 C192.799476,434.151045 192.385417,435.234368 192.28125,436.671875 Z M206.984375,447 L206.984375,429.828125 L210.421875,429.828125 L210.953125,432.453125 C212.078131,430.651033 213.708323,429.75 215.84375,429.75 C216.291669,429.75 216.656249,429.770833 216.9375,429.8125 L216.875,433.234375 C216.458331,433.171875 216.026044,433.140625 215.578125,433.140625 C214.067701,433.140625 212.940108,433.541663 212.195312,434.34375 C211.450517,435.145837 211.078125,436.26041 211.078125,437.6875 L211.078125,447 L206.984375,447 Z M224.921875,447.3125 C222.390612,447.3125 220.364591,446.880213 218.84375,446.015625 L219.265625,442.9375 C219.953128,443.312502 220.82812,443.648436 221.890625,443.945312 C222.95313,444.242189 223.921871,444.390625 224.796875,444.390625 C225.70313,444.390625 226.408852,444.221356 226.914062,443.882812 C227.419273,443.544269 227.677083,443.046878 227.6875,442.390625 C227.6875,441.796872 227.450523,441.328127 226.976562,440.984375 C226.502602,440.640623 225.598965,440.213544 224.265625,439.703125 C223.807289,439.536457 223.510417,439.427084 223.375,439.375 C221.791659,438.760414 220.651045,438.075525 219.953125,437.320312 C219.255205,436.5651 218.90625,435.541673 218.90625,434.25 C218.90625,432.687492 219.471349,431.489587 220.601562,430.65625 C221.731776,429.822912 223.307282,429.40625 225.328125,429.40625 C227.515636,429.40625 229.437492,429.817704 231.09375,430.640625 L230.078125,433.46875 C228.4427,432.70833 226.885424,432.328125 225.40625,432.328125 C224.583329,432.328125 223.940106,432.466144 223.476562,432.742188 C223.013019,433.018231 222.78125,433.437497 222.78125,434 C222.78125,434.531253 223.005206,434.945311 223.453125,435.242188 C223.901044,435.539064 224.776035,435.927081 226.078125,436.40625 C226.119792,436.416667 226.255207,436.463541 226.484375,436.546875 C226.713543,436.630209 226.890624,436.697916 227.015625,436.75 C228.58855,437.32292 229.744788,438.007809 230.484375,438.804688 C231.223962,439.601566 231.59375,440.640619 231.59375,441.921875 C231.583333,443.640634 231.000006,444.968745 229.84375,445.90625 C228.687494,446.843755 227.046886,447.3125 224.921875,447.3125 Z M234.921875,447 L234.921875,429.828125 L239.015625,429.828125 L239.015625,447 L234.921875,447 Z M234.921875,427.328125 L234.921875,423.828125 L239.03125,423.828125 L239.03125,427.328125 L234.921875,427.328125 Z M250.796875,447.328125 C248.171862,447.328125 246.127611,446.546883 244.664062,444.984375 C243.200514,443.421867 242.46875,441.187515 242.46875,438.28125 C242.46875,435.468736 243.236971,433.286466 244.773438,431.734375 C246.309904,430.182284 248.333321,429.40625 250.84375,429.40625 C252.854177,429.40625 254.552076,429.838537 255.9375,430.703125 L254.96875,433.625 C253.552076,432.885413 252.234381,432.515625 251.015625,432.515625 C249.630201,432.515625 248.539066,433.010412 247.742188,434 C246.945309,434.989588 246.546875,436.432282 246.546875,438.328125 C246.546875,440.244801 246.9401,441.70312 247.726562,442.703125 C248.513025,443.70313 249.624993,444.203125 251.0625,444.203125 C252.562508,444.203125 254.005201,443.760421 255.390625,442.875 L255.78125,445.984375 C255.062496,446.463544 254.317712,446.807291 253.546875,447.015625 C252.776038,447.223959 251.85938,447.328125 250.796875,447.328125 Z M266.515625,444.21875 C267.901049,444.21875 268.942705,443.713547 269.640625,442.703125 C270.338545,441.692703 270.6875,440.244801 270.6875,438.359375 C270.6875,436.453115 270.338545,435.000005 269.640625,434 C268.942705,432.999995 267.890632,432.5 266.484375,432.5 C265.098951,432.5 264.054691,433.002599 263.351562,434.007812 C262.648434,435.013026 262.296875,436.46874 262.296875,438.375 C262.296875,440.250009 262.651038,441.692703 263.359375,442.703125 C264.067712,443.713547 265.119785,444.21875 266.515625,444.21875 Z M266.40625,447.328125 C263.864571,447.328125 261.864591,446.505217 260.40625,444.859375 C258.947909,443.213533 258.21875,441.046888 258.21875,438.359375 C258.21875,435.588528 258.947909,433.403654 260.40625,431.804688 C261.864591,430.205721 263.921862,429.40625 266.578125,429.40625 C269.140638,429.40625 271.14843,430.221346 272.601562,431.851562 C274.054695,433.481779 274.78125,435.651028 274.78125,438.359375 C274.78125,441.098972 274.046882,443.278638 272.578125,444.898438 C271.109368,446.518237 269.052097,447.328125 266.40625,447.328125 Z M284.140625,447.234375 C282.963536,447.234375 281.986983,447.096356 281.210938,446.820312 C280.434892,446.544269 279.822919,446.10417 279.375,445.5 C278.927081,444.89583 278.614584,444.177087 278.4375,443.34375 C278.260416,442.510413 278.171875,441.473965 278.171875,440.234375 L278.171875,423.5 L282.265625,423.234375 L282.265625,440.15625 C282.265625,441.697924 282.447915,442.742185 282.8125,443.289062 C283.177085,443.83594 283.885411,444.109375 284.9375,444.109375 C285.458336,444.109375 286.119788,444.052084 286.921875,443.9375 L287.03125,446.859375 C287.020833,446.859375 286.89323,446.885416 286.648438,446.9375 C286.403645,446.989584 286.169272,447.033854 285.945312,447.070312 C285.721353,447.106771 285.437502,447.143229 285.09375,447.179688 C284.749998,447.216146 284.432293,447.234375 284.140625,447.234375 Z M296.546875,444.21875 C297.932299,444.21875 298.973955,443.713547 299.671875,442.703125 C300.369795,441.692703 300.71875,440.244801 300.71875,438.359375 C300.71875,436.453115 300.369795,435.000005 299.671875,434 C298.973955,432.999995 297.921882,432.5 296.515625,432.5 C295.130201,432.5 294.085941,433.002599 293.382812,434.007812 C292.679684,435.013026 292.328125,436.46874 292.328125,438.375 C292.328125,440.250009 292.682288,441.692703 293.390625,442.703125 C294.098962,443.713547 295.151035,444.21875 296.546875,444.21875 Z M296.4375,447.328125 C293.895821,447.328125 291.895841,446.505217 290.4375,444.859375 C288.979159,443.213533 288.25,441.046888 288.25,438.359375 C288.25,435.588528 288.979159,433.403654 290.4375,431.804688 C291.895841,430.205721 293.953112,429.40625 296.609375,429.40625 C299.171888,429.40625 301.17968,430.221346 302.632812,431.851562 C304.085945,433.481779 304.8125,435.651028 304.8125,438.359375 C304.8125,441.098972 304.078132,443.278638 302.609375,444.898438 C301.140618,446.518237 299.083347,447.328125 296.4375,447.328125 Z M308.171875,447 L308.171875,429.828125 L311.609375,429.828125 L312.140625,432.453125 C313.265631,430.651033 314.895823,429.75 317.03125,429.75 C317.479169,429.75 317.843749,429.770833 318.125,429.8125 L318.0625,433.234375 C317.645831,433.171875 317.213544,433.140625 316.765625,433.140625 C315.255201,433.140625 314.127608,433.541663 313.382812,434.34375 C312.638017,435.145837 312.265625,436.26041 312.265625,437.6875 L312.265625,447 L308.171875,447 Z" id="Iris-Versicolor" fill="#000000"></path>
        <path d="M908.578125,447 L908.578125,424.109375 L912.8125,424.109375 L912.8125,447 L908.578125,447 Z M917.5,447 L917.5,429.828125 L920.9375,429.828125 L921.46875,432.453125 C922.593756,430.651033 924.223948,429.75 926.359375,429.75 C926.807294,429.75 927.171874,429.770833 927.453125,429.8125 L927.390625,433.234375 C926.973956,433.171875 926.541669,433.140625 926.09375,433.140625 C924.583326,433.140625 923.455733,433.541663 922.710938,434.34375 C921.966142,435.145837 921.59375,436.26041 921.59375,437.6875 L921.59375,447 L917.5,447 Z M930.046875,447 L930.046875,429.828125 L934.140625,429.828125 L934.140625,447 L930.046875,447 Z M930.046875,427.328125 L930.046875,423.828125 L934.15625,423.828125 L934.15625,427.328125 L930.046875,427.328125 Z M943.890625,447.3125 C941.359362,447.3125 939.333341,446.880213 937.8125,446.015625 L938.234375,442.9375 C938.921878,443.312502 939.79687,443.648436 940.859375,443.945312 C941.92188,444.242189 942.890621,444.390625 943.765625,444.390625 C944.67188,444.390625 945.377602,444.221356 945.882812,443.882812 C946.388023,443.544269 946.645833,443.046878 946.65625,442.390625 C946.65625,441.796872 946.419273,441.328127 945.945312,440.984375 C945.471352,440.640623 944.567715,440.213544 943.234375,439.703125 C942.776039,439.536457 942.479167,439.427084 942.34375,439.375 C940.760409,438.760414 939.619795,438.075525 938.921875,437.320312 C938.223955,436.5651 937.875,435.541673 937.875,434.25 C937.875,432.687492 938.440099,431.489587 939.570312,430.65625 C940.700526,429.822912 942.276032,429.40625 944.296875,429.40625 C946.484386,429.40625 948.406242,429.817704 950.0625,430.640625 L949.046875,433.46875 C947.41145,432.70833 945.854174,432.328125 944.375,432.328125 C943.552079,432.328125 942.908856,432.466144 942.445312,432.742188 C941.981769,433.018231 941.75,433.437497 941.75,434 C941.75,434.531253 941.973956,434.945311 942.421875,435.242188 C942.869794,435.539064 943.744785,435.927081 945.046875,436.40625 C945.088542,436.416667 945.223957,436.463541 945.453125,436.546875 C945.682293,436.630209 945.859374,436.697916 945.984375,436.75 C947.5573,437.32292 948.713538,438.007809 949.453125,438.804688 C950.192712,439.601566 950.5625,440.640619 950.5625,441.921875 C950.552083,443.640634 949.968756,444.968745 948.8125,445.90625 C947.656244,446.843755 946.015636,447.3125 943.890625,447.3125 Z M968.40625,447 L960.078125,424.109375 L964.4375,424.109375 L969.28125,438.25 C969.468751,438.739586 969.901038,440.171863 970.578125,442.546875 C970.619792,442.380207 970.812498,441.695319 971.15625,440.492188 C971.500002,439.289056 971.723958,438.552085 971.828125,438.28125 C971.953126,437.927082 972.744784,435.575543 974.203125,431.226562 C975.661466,426.877582 976.458333,424.50521 976.59375,424.109375 L980.90625,424.109375 L972.6875,447 L968.40625,447 Z M982.984375,447 L982.984375,429.828125 L987.078125,429.828125 L987.078125,447 L982.984375,447 Z M982.984375,427.328125 L982.984375,423.828125 L987.09375,423.828125 L987.09375,427.328125 L982.984375,427.328125 Z M991.359375,447 L991.359375,429.828125 L994.796875,429.828125 L995.328125,432.453125 C996.453131,430.651033 998.083323,429.75 1000.21875,429.75 C1000.66667,429.75 1001.03125,429.770833 1001.3125,429.8125 L1001.25,433.234375 C1000.83333,433.171875 1000.40104,433.140625 999.953125,433.140625 C998.442701,433.140625 997.315108,433.541663 996.570312,434.34375 C995.825517,435.145837 995.453125,436.26041 995.453125,437.6875 L995.453125,447 L991.359375,447 Z M1007.25,454.6875 L1007.01562,451.375 L1009.09375,451.375 C1011.50001,451.375 1013.18229,451.054691 1014.14062,450.414062 C1015.09896,449.773434 1015.57812,448.598967 1015.57812,446.890625 C1015.57812,446.192705 1015.54688,445.437504 1015.48438,444.625 C1015.21354,445.000002 1014.95573,445.309895 1014.71094,445.554688 C1014.46614,445.79948 1014.15886,446.041665 1013.78906,446.28125 C1013.41927,446.520835 1012.97657,446.70052 1012.46094,446.820312 C1011.94531,446.940105 1011.35938,447 1010.70312,447 C1008.43228,447 1006.56511,446.1823 1005.10156,444.546875 C1003.63801,442.91145 1002.90625,440.802096 1002.90625,438.21875 C1002.90625,436.843743 1003.10937,435.591151 1003.51562,434.460938 C1003.92188,433.330724 1004.47395,432.401045 1005.17188,431.671875 C1005.8698,430.942705 1006.67447,430.382814 1007.58594,429.992188 C1008.4974,429.601561 1009.46874,429.40625 1010.5,429.40625 C1012.80209,429.40625 1014.51562,430.244783 1015.64062,431.921875 L1015.92188,429.828125 L1019.57812,429.828125 L1019.57812,445.78125 C1019.57812,446.635421 1019.53646,447.403642 1019.45312,448.085938 C1019.36979,448.768233 1019.22396,449.424476 1019.01562,450.054688 C1018.80729,450.684899 1018.53386,451.234373 1018.19531,451.703125 C1017.85677,452.171877 1017.43229,452.598956 1016.92188,452.984375 C1016.41146,453.369794 1015.8099,453.684895 1015.11719,453.929688 C1014.42448,454.17448 1013.6198,454.361979 1012.70312,454.492188 C1011.78645,454.622396 1010.75521,454.6875 1009.60938,454.6875 L1007.25,454.6875 Z M1011.35938,444.140625 C1014.18231,444.140625 1015.60937,442.250019 1015.64062,438.46875 L1015.64062,437.875 C1015.61979,436.177075 1015.26563,434.864588 1014.57812,433.9375 C1013.89062,433.010412 1012.88542,432.541667 1011.5625,432.53125 C1010.06249,432.53125 1008.92709,433.044266 1008.15625,434.070312 C1007.38541,435.096359 1007,436.479158 1007,438.21875 C1007,439.895842 1007.38802,441.302078 1008.16406,442.4375 C1008.94011,443.572922 1010.0052,444.140625 1011.35938,444.140625 Z M1023.70312,447 L1023.70312,429.828125 L1027.79688,429.828125 L1027.79688,447 L1023.70312,447 Z M1023.70312,427.328125 L1023.70312,423.828125 L1027.8125,423.828125 L1027.8125,427.328125 L1023.70312,427.328125 Z M1032.0625,447 L1032.0625,429.828125 L1035.35938,429.828125 L1035.8125,432 C1037.56251,430.270825 1039.5052,429.40625 1041.64062,429.40625 C1043.64063,429.40625 1045.13802,429.981765 1046.13281,431.132812 C1047.12761,432.28386 1047.625,433.953114 1047.625,436.140625 L1047.625,447 L1043.51562,447 L1043.51562,436.640625 C1043.50521,435.255201 1043.28125,434.218753 1042.84375,433.53125 C1042.40625,432.843747 1041.6198,432.5 1040.48438,432.5 C1039.59895,432.5 1038.78907,432.72656 1038.05469,433.179688 C1037.32031,433.632815 1036.78646,434.203122 1036.45312,434.890625 C1036.25521,435.703129 1036.15625,436.953117 1036.15625,438.640625 L1036.15625,447 L1032.0625,447 Z M1051.75,447 L1051.75,429.828125 L1055.84375,429.828125 L1055.84375,447 L1051.75,447 Z M1051.75,427.328125 L1051.75,423.828125 L1055.85938,423.828125 L1055.85938,427.328125 L1051.75,427.328125 Z M1067.625,447.328125 C1064.99999,447.328125 1062.95574,446.546883 1061.49219,444.984375 C1060.02864,443.421867 1059.29688,441.187515 1059.29688,438.28125 C1059.29688,435.468736 1060.0651,433.286466 1061.60156,431.734375 C1063.13803,430.182284 1065.16145,429.40625 1067.67188,429.40625 C1069.6823,429.40625 1071.3802,429.838537 1072.76562,430.703125 L1071.79688,433.625 C1070.3802,432.885413 1069.06251,432.515625 1067.84375,432.515625 C1066.45833,432.515625 1065.36719,433.010412 1064.57031,434 C1063.77343,434.989588 1063.375,436.432282 1063.375,438.328125 C1063.375,440.244801 1063.76823,441.70312 1064.55469,442.703125 C1065.34115,443.70313 1066.45312,444.203125 1067.89062,444.203125 C1069.39063,444.203125 1070.83333,443.760421 1072.21875,442.875 L1072.60938,445.984375 C1071.89062,446.463544 1071.14584,446.807291 1070.375,447.015625 C1069.60416,447.223959 1068.68751,447.328125 1067.625,447.328125 Z M1080.39062,447.328125 C1078.79687,447.328125 1077.50782,446.888025 1076.52344,446.007812 C1075.53906,445.1276 1075.04688,443.859383 1075.04688,442.203125 C1075.04688,440.421866 1075.6302,439.101567 1076.79688,438.242188 C1077.96355,437.382808 1079.72395,436.838543 1082.07812,436.609375 C1082.40104,436.567708 1082.75,436.526042 1083.125,436.484375 C1083.5,436.442708 1083.92187,436.401042 1084.39062,436.359375 C1084.85938,436.317708 1085.22917,436.28125 1085.5,436.25 L1085.5,435.34375 C1085.5,434.302078 1085.26042,433.544273 1084.78125,433.070312 C1084.30208,432.596352 1083.57292,432.359375 1082.59375,432.359375 C1081.19791,432.359375 1079.47397,432.749996 1077.42188,433.53125 C1077.41146,433.5 1077.23959,433.026046 1076.90625,432.109375 C1076.57291,431.192704 1076.40104,430.723958 1076.39062,430.703125 C1078.41147,429.838537 1080.59895,429.40625 1082.95312,429.40625 C1085.26564,429.40625 1086.94791,429.908849 1088,430.914062 C1089.05209,431.919276 1089.57812,433.546864 1089.57812,435.796875 L1089.57812,447 L1086.54688,447 C1086.53646,446.958333 1086.42188,446.609378 1086.20312,445.953125 C1085.98437,445.296872 1085.875,444.947917 1085.875,444.90625 C1085.02083,445.739587 1084.1849,446.351561 1083.36719,446.742188 C1082.54948,447.132814 1081.5573,447.328125 1080.39062,447.328125 Z M1081.5,444.421875 C1082.44792,444.421875 1083.27343,444.195315 1083.97656,443.742188 C1084.67969,443.28906 1085.18229,442.739587 1085.48438,442.09375 L1085.48438,438.78125 C1085.45312,438.78125 1085.17969,438.802083 1084.66406,438.84375 C1084.14843,438.885417 1083.86979,438.90625 1083.82812,438.90625 C1082.17187,439.052084 1080.95834,439.364581 1080.1875,439.84375 C1079.41666,440.322919 1079.03125,441.093745 1079.03125,442.15625 C1079.03125,442.88542 1079.24479,443.445311 1079.67188,443.835938 C1080.09896,444.226564 1080.70833,444.421875 1081.5,444.421875 Z" id="Iris-Virginica" fill="#000000"></path>
        <path d="M532.578125,447 L532.578125,424.109375 L536.8125,424.109375 L536.8125,447 L532.578125,447 Z M541.5,447 L541.5,429.828125 L544.9375,429.828125 L545.46875,432.453125 C546.593756,430.651033 548.223948,429.75 550.359375,429.75 C550.807294,429.75 551.171874,429.770833 551.453125,429.8125 L551.390625,433.234375 C550.973956,433.171875 550.541669,433.140625 550.09375,433.140625 C548.583326,433.140625 547.455733,433.541663 546.710938,434.34375 C545.966142,435.145837 545.59375,436.26041 545.59375,437.6875 L545.59375,447 L541.5,447 Z M554.046875,447 L554.046875,429.828125 L558.140625,429.828125 L558.140625,447 L554.046875,447 Z M554.046875,427.328125 L554.046875,423.828125 L558.15625,423.828125 L558.15625,427.328125 L554.046875,427.328125 Z M567.890625,447.3125 C565.359362,447.3125 563.333341,446.880213 561.8125,446.015625 L562.234375,442.9375 C562.921878,443.312502 563.79687,443.648436 564.859375,443.945312 C565.92188,444.242189 566.890621,444.390625 567.765625,444.390625 C568.67188,444.390625 569.377602,444.221356 569.882812,443.882812 C570.388023,443.544269 570.645833,443.046878 570.65625,442.390625 C570.65625,441.796872 570.419273,441.328127 569.945312,440.984375 C569.471352,440.640623 568.567715,440.213544 567.234375,439.703125 C566.776039,439.536457 566.479167,439.427084 566.34375,439.375 C564.760409,438.760414 563.619795,438.075525 562.921875,437.320312 C562.223955,436.5651 561.875,435.541673 561.875,434.25 C561.875,432.687492 562.440099,431.489587 563.570312,430.65625 C564.700526,429.822912 566.276032,429.40625 568.296875,429.40625 C570.484386,429.40625 572.406242,429.817704 574.0625,430.640625 L573.046875,433.46875 C571.41145,432.70833 569.854174,432.328125 568.375,432.328125 C567.552079,432.328125 566.908856,432.466144 566.445312,432.742188 C565.981769,433.018231 565.75,433.437497 565.75,434 C565.75,434.531253 565.973956,434.945311 566.421875,435.242188 C566.869794,435.539064 567.744785,435.927081 569.046875,436.40625 C569.088542,436.416667 569.223957,436.463541 569.453125,436.546875 C569.682293,436.630209 569.859374,436.697916 569.984375,436.75 C571.5573,437.32292 572.713538,438.007809 573.453125,438.804688 C574.192712,439.601566 574.5625,440.640619 574.5625,441.921875 C574.552083,443.640634 573.968756,444.968745 572.8125,445.90625 C571.656244,446.843755 570.015636,447.3125 567.890625,447.3125 Z M593.0625,447.3125 C590.30207,447.3125 587.828136,446.67709 585.640625,445.40625 L586.671875,442.046875 C587.651047,442.588544 588.71614,443.02604 589.867188,443.359375 C591.018235,443.69271 592.14062,443.859375 593.234375,443.859375 C594.578132,443.859375 595.593747,443.570315 596.28125,442.992188 C596.968753,442.41406 597.3125,441.583339 597.3125,440.5 C597.3125,439.062493 596.354176,438.067711 594.4375,437.515625 C594.302083,437.473958 593.921878,437.36198 593.296875,437.179688 C592.671872,436.997395 592.08594,436.820313 591.539062,436.648438 C590.992185,436.476562 590.59896,436.34375 590.359375,436.25 C587.286443,435.166661 585.75,433.145848 585.75,430.1875 C585.75,428.114573 586.486972,426.515631 587.960938,425.390625 C589.434903,424.265619 591.390613,423.703125 593.828125,423.703125 C596.588555,423.703125 598.96874,424.270828 600.96875,425.40625 L599.6875,428.5 C597.645823,427.583329 595.750009,427.125 594,427.125 C592.739577,427.125 591.789066,427.346352 591.148438,427.789062 C590.507809,428.231773 590.166667,428.968745 590.125,430 C590.125,431.27084 590.755202,432.098956 592.015625,432.484375 C592.265626,432.578125 592.880203,432.781248 593.859375,433.09375 C594.838547,433.406252 595.473957,433.609375 595.765625,433.703125 C597.859385,434.390628 599.356766,435.244787 600.257812,436.265625 C601.158859,437.286463 601.609375,438.708324 601.609375,440.53125 C601.609375,442.708344 600.838549,444.382807 599.296875,445.554688 C597.755201,446.726568 595.677096,447.3125 593.0625,447.3125 Z M612.765625,447.328125 C610.005195,447.328125 607.856779,446.533862 606.320312,444.945312 C604.783846,443.356763 604.015625,441.161472 604.015625,438.359375 C604.015625,435.630195 604.739576,433.458341 606.1875,431.84375 C607.635424,430.229159 609.609362,429.416667 612.109375,429.40625 C614.47397,429.40625 616.309889,430.145826 617.617188,431.625 C618.924486,433.104174 619.578125,435.067696 619.578125,437.515625 C619.578125,437.692709 619.575521,437.979165 619.570312,438.375 C619.565104,438.770835 619.5625,439.062499 619.5625,439.25 L608.140625,439.25 C608.182292,440.854175 608.622392,442.09635 609.460938,442.976562 C610.299483,443.856775 611.453118,444.296875 612.921875,444.296875 C614.796884,444.296875 616.59895,443.807297 618.328125,442.828125 L618.90625,445.734375 C617.187491,446.79688 615.140637,447.328125 612.765625,447.328125 Z M608.21875,436.671875 L615.71875,436.671875 C615.71875,435.276035 615.401045,434.203129 614.765625,433.453125 C614.130205,432.703121 613.250006,432.328125 612.125,432.328125 C611.072911,432.328125 610.184899,432.692705 609.460938,433.421875 C608.736976,434.151045 608.322917,435.234368 608.21875,436.671875 Z M629.765625,447.234375 C628.598952,447.234375 627.627608,447.096356 626.851562,446.820312 C626.075517,446.544269 625.468752,446.109378 625.03125,445.515625 C624.593748,444.921872 624.283855,444.221358 624.101562,443.414062 C623.91927,442.606767 623.828125,441.609381 623.828125,440.421875 L623.828125,432.3125 L621.015625,432.3125 L621.171875,430.09375 L624.109375,429.828125 L625.421875,425.171875 L627.921875,425.15625 L627.921875,429.828125 L632.1875,429.828125 L632.1875,432.3125 L627.921875,432.3125 L627.921875,440.5 C627.921875,441.80209 628.109373,442.729164 628.484375,443.28125 C628.859377,443.833336 629.552078,444.109375 630.5625,444.109375 C631.156253,444.109375 631.791663,444.057292 632.46875,443.953125 L632.578125,446.890625 C632.557292,446.890625 632.429689,446.914062 632.195312,446.960938 C631.960936,447.007813 631.73698,447.049479 631.523438,447.085938 C631.309895,447.122396 631.03646,447.15625 630.703125,447.1875 C630.36979,447.21875 630.057293,447.234375 629.765625,447.234375 Z M642.9375,444.21875 C644.322924,444.21875 645.36458,443.713547 646.0625,442.703125 C646.76042,441.692703 647.109375,440.244801 647.109375,438.359375 C647.109375,436.453115 646.76042,435.000005 646.0625,434 C645.36458,432.999995 644.312507,432.5 642.90625,432.5 C641.520826,432.5 640.476566,433.002599 639.773438,434.007812 C639.070309,435.013026 638.71875,436.46874 638.71875,438.375 C638.71875,440.250009 639.072913,441.692703 639.78125,442.703125 C640.489587,443.713547 641.54166,444.21875 642.9375,444.21875 Z M642.828125,447.328125 C640.286446,447.328125 638.286466,446.505217 636.828125,444.859375 C635.369784,443.213533 634.640625,441.046888 634.640625,438.359375 C634.640625,435.588528 635.369784,433.403654 636.828125,431.804688 C638.286466,430.205721 640.343737,429.40625 643,429.40625 C645.562513,429.40625 647.570305,430.221346 649.023438,431.851562 C650.47657,433.481779 651.203125,435.651028 651.203125,438.359375 C651.203125,441.098972 650.468757,443.278638 649,444.898438 C647.531243,446.518237 645.473972,447.328125 642.828125,447.328125 Z M660.03125,447.3125 C657.499987,447.3125 655.473966,446.880213 653.953125,446.015625 L654.375,442.9375 C655.062503,443.312502 655.937495,443.648436 657,443.945312 C658.062505,444.242189 659.031246,444.390625 659.90625,444.390625 C660.812505,444.390625 661.518227,444.221356 662.023438,443.882812 C662.528648,443.544269 662.786458,443.046878 662.796875,442.390625 C662.796875,441.796872 662.559898,441.328127 662.085938,440.984375 C661.611977,440.640623 660.70834,440.213544 659.375,439.703125 C658.916664,439.536457 658.619792,439.427084 658.484375,439.375 C656.901034,438.760414 655.76042,438.075525 655.0625,437.320312 C654.36458,436.5651 654.015625,435.541673 654.015625,434.25 C654.015625,432.687492 654.580724,431.489587 655.710938,430.65625 C656.841151,429.822912 658.416657,429.40625 660.4375,429.40625 C662.625011,429.40625 664.546867,429.817704 666.203125,430.640625 L665.1875,433.46875 C663.552075,432.70833 661.994799,432.328125 660.515625,432.328125 C659.692704,432.328125 659.049481,432.466144 658.585938,432.742188 C658.122394,433.018231 657.890625,433.437497 657.890625,434 C657.890625,434.531253 658.114581,434.945311 658.5625,435.242188 C659.010419,435.539064 659.88541,435.927081 661.1875,436.40625 C661.229167,436.416667 661.364582,436.463541 661.59375,436.546875 C661.822918,436.630209 661.999999,436.697916 662.125,436.75 C663.697925,437.32292 664.854163,438.007809 665.59375,438.804688 C666.333337,439.601566 666.703125,440.640619 666.703125,441.921875 C666.692708,443.640634 666.109381,444.968745 664.953125,445.90625 C663.796869,446.843755 662.156261,447.3125 660.03125,447.3125 Z M674.46875,447.328125 C672.874992,447.328125 671.585942,446.888025 670.601562,446.007812 C669.617183,445.1276 669.125,443.859383 669.125,442.203125 C669.125,440.421866 669.708327,439.101567 670.875,438.242188 C672.041673,437.382808 673.802072,436.838543 676.15625,436.609375 C676.479168,436.567708 676.828123,436.526042 677.203125,436.484375 C677.578127,436.442708 677.999998,436.401042 678.46875,436.359375 C678.937502,436.317708 679.30729,436.28125 679.578125,436.25 L679.578125,435.34375 C679.578125,434.302078 679.338544,433.544273 678.859375,433.070312 C678.380206,432.596352 677.651047,432.359375 676.671875,432.359375 C675.276035,432.359375 673.552094,432.749996 671.5,433.53125 C671.489583,433.5 671.31771,433.026046 670.984375,432.109375 C670.65104,431.192704 670.479167,430.723958 670.46875,430.703125 C672.489593,429.838537 674.677072,429.40625 677.03125,429.40625 C679.343762,429.40625 681.026036,429.908849 682.078125,430.914062 C683.130214,431.919276 683.65625,433.546864 683.65625,435.796875 L683.65625,447 L680.625,447 C680.614583,446.958333 680.500001,446.609378 680.28125,445.953125 C680.062499,445.296872 679.953125,444.947917 679.953125,444.90625 C679.098954,445.739587 678.263025,446.351561 677.445312,446.742188 C676.6276,447.132814 675.635423,447.328125 674.46875,447.328125 Z M675.578125,444.421875 C676.526046,444.421875 677.351559,444.195315 678.054688,443.742188 C678.757816,443.28906 679.260415,442.739587 679.5625,442.09375 L679.5625,438.78125 C679.53125,438.78125 679.257815,438.802083 678.742188,438.84375 C678.22656,438.885417 677.947917,438.90625 677.90625,438.90625 C676.249992,439.052084 675.036462,439.364581 674.265625,439.84375 C673.494788,440.322919 673.109375,441.093745 673.109375,442.15625 C673.109375,442.88542 673.322915,443.445311 673.75,443.835938 C674.177085,444.226564 674.786454,444.421875 675.578125,444.421875 Z" id="Iris-Setosa-Copy" fill="#000000"></path>
        <rect id="Rectangle" fill="#E7E7E7" x="34" y="33" width="363" height="363"></rect>
        <rect id="Rectangle-Copy" fill="#E7E7E7" x="426" y="33" width="363" height="363"></rect>
        <rect id="Rectangle-Copy-2" fill="#E7E7E7" x="817" y="33" width="363" height="363"></rect>
        <path d="M1005.01749,210.473322 C1003.52856,210.587566 1002.00651,210.579092 1000.53876,210.446728 C1001.34172,211.020122 1002.13269,211.665841 1002.89178,212.36312 C1003.56778,211.696051 1004.28178,211.061095 1005.01749,210.473322 Z M1014.73558,206.766961 C1014.80723,206.783086 1014.87815,206.800823 1014.94833,206.820198 C1041.41152,214.126508 1072.48163,259.312087 1104.77677,273.458731 C1125.79202,282.939486 1126.31796,288.316117 1125.01621,298.490399 C1123.71446,308.664682 1114.49128,315.964705 1102.99973,322.087494 C1094.78439,334.206876 1086.91066,341.847684 1076.69495,342.147606 C1064.92152,342.493262 1060.93935,338.070611 1054.45161,318.771708 C1041.44114,289.154602 1014.95825,262.009729 1003.1201,238.447315 C988.567388,262.002292 955.549568,288.706507 944.204347,315.887458 C935.091802,337.064972 929.725169,337.684669 919.529718,336.560681 C909.334266,335.436694 901.874388,326.342324 895.551976,314.959379 C883.291063,306.956804 875.514003,299.217622 875.035837,289.008706 C874.48476,277.243104 878.837239,273.184351 898.019976,266.360784 C934.046187,249.778881 966.0037,213.015345 992.751246,207.909541 C992.24631,207.510668 991.827872,207.066281 991.51482,206.576127 C976.737715,183.439153 983.883176,129.069761 969.349163,96.9470891 C960.075651,75.8395664 963.282468,71.4920274 971.057781,64.8021036 C978.833095,58.1121799 990.57192,58.858716 1003.20875,61.9979462 C1017.42339,58.4886247 1028.38741,58.0789533 1036.17985,64.6917087 C1045.1605,72.3127974 1045.1605,78.264062 1037.06834,96.9470891 C1024.59344,134.701641 1029.74451,183.300497 1015.09685,206.271871 C1014.98843,206.441914 1014.86775,206.606947 1014.73558,206.766961 Z" id="Combined-Shape" stroke="#6C11A2" stroke-width="2" fill="url(#radialGradient-1)"></path>
        <path d="M1050.93503,124.062517 C1048.04014,122.245603 1038.05893,116.876433 1023.7173,111.873815 C1020.10154,110.612574 1007.97601,107.243751 1008.81411,108.959063 C1010.79079,113.004667 1068.24829,126.265726 985.402618,109.861026 C979.777912,108.747248 983.974728,113.004667 1017.22944,119.347997 C1021.64895,120.191017 1026.4956,120.587406 1030.5387,121.567573 C1034.65985,122.56666 1051.36969,125.711569 1046.7008,125.096559 C893.087862,104.861895 995.353573,121.002547 1033.79001,125.691868 C1048.79029,127.521931 984.006372,122.067601 968.275316,122.044272 C962.794244,122.036144 990.484287,125.186643 995.774192,125.691868 C1003.87368,126.46543 1040.18121,128.793403 1049.85027,130.836847 C1040.18121,130.836847 989.857077,127.206728 978.162071,127.135476 C968.356311,127.075734 940.075677,126.448187 949.18365,127.135476 C967.101711,128.487576 1014.28549,132.522897 1031.60427,133.001089 C1035.30487,133.103267 988.787492,134.662134 966.550779,136.45307 C985.402618,137.391401 1031.66965,136.177993 1038.59983,136.45307 C1042.51186,136.608348 983.209354,140.561016 976.59914,142.229578 C975.341994,142.546908 1014.45926,143.478349 1029.45247,140.458905 C1036.16953,139.106174 1047.73159,139.865338 1051.47224,137.422575 C1056.74379,133.980083 1051.86777,129.602104 1052.06553,125.691868 L1050.93503,124.062517 Z" id="Path-2-Copy" fill="#FFFFFF" transform="translate(1000.666297, 125.549439) scale(1, -1) rotate(-95.000000) translate(-1000.666297, -125.549439) "></path>
        <path d="M999.079042,261.907463 C996.184152,260.090549 986.202942,254.721379 971.861317,249.718761 C968.24556,248.45752 956.120027,245.088697 956.958129,246.804009 C958.93481,250.849613 1016.3923,264.110672 933.546634,247.705972 C927.921928,246.592194 932.118744,250.849613 965.373456,257.192943 C969.792962,258.035963 974.639616,258.432352 978.68272,259.412519 C982.803869,260.411606 999.51371,263.556515 994.844813,262.941505 C841.231878,242.706841 943.497589,258.847493 981.93403,263.536814 C996.934303,265.366877 932.150388,259.912547 916.419332,259.889218 C910.93826,259.88109 938.628304,263.031589 943.918208,263.536814 C952.017693,264.310376 988.325222,266.638349 997.994288,268.681793 C988.325222,268.681793 938.001094,265.051674 926.306088,264.980422 C916.500327,264.92068 888.219693,264.293133 897.327667,264.980422 C915.245728,266.332522 962.429506,270.367843 979.748288,270.846035 C983.448884,270.948213 936.931509,272.50708 914.694795,274.298015 C933.546634,275.236347 979.813671,274.022939 986.743843,274.298015 C990.655876,274.453294 931.35337,278.405962 924.743157,280.074523 C923.486011,280.391854 962.603276,281.323295 977.596491,278.303851 C984.31355,276.95112 995.875602,277.710284 999.616254,275.267521 C1004.88781,271.825029 1000.01178,267.44705 1000.20955,263.536814 L999.079042,261.907463 Z" id="Path-2-Copy-2" fill="#FFFFFF" transform="translate(948.810313, 263.394385) scale(1, -1) rotate(-319.000000) translate(-948.810313, -263.394385) "></path>
        <path d="M1095.88142,256.074505 C1092.98653,254.257591 1083.00532,248.888421 1068.6637,243.885803 C1065.04794,242.624562 1052.92241,239.255739 1053.76051,240.971051 C1055.73719,245.016656 1113.19468,258.277714 1030.34902,241.873014 C1024.72431,240.759236 1028.92113,245.016656 1062.17584,251.359985 C1066.59534,252.203005 1071.442,252.599394 1075.4851,253.579561 C1079.60625,254.578648 1096.31609,257.723557 1091.64719,257.108547 C938.034259,236.873883 1040.29997,253.014535 1078.73641,257.703856 C1093.73668,259.533919 1028.95277,254.079589 1013.22171,254.05626 C1007.74064,254.048132 1035.43068,257.198631 1040.72059,257.703856 C1048.82007,258.477418 1085.1276,260.805391 1094.79667,262.848835 C1085.1276,262.848835 1034.80347,259.218716 1023.10847,259.147464 C1013.30271,259.087722 985.022074,258.460175 994.130048,259.147464 C1012.04811,260.499564 1059.23189,264.534885 1076.55067,265.013077 C1080.25126,265.115255 1033.73389,266.674122 1011.49718,268.465058 C1030.34902,269.403389 1076.61605,268.189981 1083.54622,268.465058 C1087.45826,268.620337 1028.15575,272.573004 1021.54554,274.241566 C1020.28839,274.558896 1059.40566,275.490337 1074.39887,272.470893 C1081.11593,271.118162 1092.67798,271.877326 1096.41863,269.434563 C1101.69019,265.992071 1096.81416,261.614092 1097.01193,257.703856 L1095.88142,256.074505 Z" id="Path-2-Copy-3" fill="#FFFFFF" transform="translate(1045.612694, 257.561427) scale(1, -1) rotate(-234.000000) translate(-1045.612694, -257.561427) "></path>
        <path d="M214.238497,221.916688 C212.681089,222.036186 211.089046,222.027323 209.553792,221.888871 C210.393682,222.488636 211.22103,223.164052 212.015029,223.893399 C212.722113,223.195652 213.46895,222.531494 214.238497,221.916688 Z M224.403537,218.039869 C224.478476,218.056735 224.552661,218.075288 224.626065,218.095555 C252.306312,225.737887 284.80536,273.001581 318.585774,287.798839 C340.567532,297.715621 341.117663,303.339526 339.756043,313.981731 C338.394423,324.623936 328.747065,332.259692 316.727009,338.664072 C308.133841,351.340833 299.89799,359.333047 289.212457,359.646763 C276.897561,360.008316 272.732245,355.382264 265.946126,335.195791 C252.337299,304.216574 224.636445,275.82329 212.25385,251.177224 C197.031847,275.815511 162.495514,303.747871 150.628519,332.178893 C141.096882,354.330374 135.483434,354.978572 124.819087,353.802892 C114.154739,352.627211 106.351776,343.114585 99.7385923,331.208131 C86.9137909,322.837512 78.7790591,314.742399 78.2789023,304.063969 C77.7024801,291.757258 82.255133,287.511841 102.320097,280.374453 C140.003179,263.029937 173.430439,224.57562 201.408123,219.234997 C200.879965,218.81778 200.442282,218.352956 200.114833,217.840259 C184.658119,193.639199 192.132204,136.769321 176.929762,103.169306 C167.229755,81.0910342 170.584055,76.5435489 178.716961,69.545951 C186.849867,62.5483531 199.128569,63.3292229 212.346579,66.6128284 C227.214956,62.9421108 238.68322,62.5135984 246.834036,69.4304789 C256.227713,77.4020667 256.227713,83.6270341 247.763396,103.169306 C234.714764,142.660216 240.102737,193.494166 224.78142,217.52201 C224.668006,217.699873 224.541782,217.872496 224.403537,218.039869 Z" id="Combined-Shape" stroke="#6C11A2" stroke-width="2" fill="url(#radialGradient-2)"></path>
        <g id="Group-2" transform="translate(875.000000, 114.000000)" fill="url(#radialGradient-3)" stroke="#6C11A2" stroke-width="2">
            <path d="M129.910585,106.970775 C134.817516,115.704284 139.109678,122.410014 142.78707,127.087966 C165.354795,155.79601 181,161.782437 181,182.491427 C181,206.512171 163.477626,229.681696 128.432878,252 C88.8109592,231.508385 69,208.889809 69,184.144273 C69,147.02597 79.7823645,159.354625 112.722408,127.038753 C116.790021,123.048217 121.137826,116.385519 125.765824,107.050659 C119.858823,107.216439 114.863414,107.594425 110.779598,108.184616 C71.457193,113.867473 57.2994163,125.371997 37.8001493,114.11409 C15.1825842,101.055832 2.90995111,71.9306031 0.982250017,26.738402 C41.8566357,0.500838135 73.9438371,-5.89180826 97.2438541,7.56046283 C132.19388,27.7388695 114.71287,31.2082488 127.200439,79.8498979 C127.348513,80.4266766 127.51838,81.0192873 127.71004,81.6277299 C128.951611,79.0837761 129.996664,76.7497939 130.845201,74.6257834 C145.584905,37.7301534 142.700584,19.7168974 162.199851,8.45899027 C184.817416,-4.599267 216.176921,-0.665064435 256.278365,20.261598 C258.563569,68.7786363 248.056163,99.763291 224.756146,113.215562 C189.80612,133.393969 195.542055,116.52028 147.173366,103.014008 C144.590875,102.292884 141.509484,101.793914 137.929194,101.5171 C139.088434,103.300868 140.335443,105.148397 141.670221,107.059687 C137.451074,106.960385 133.531195,106.930747 129.910585,106.970775 Z" id="Combined-Shape"></path>
        </g>
        <path d="M1073.88116,180.94551 C1072.07624,177.727678 1065.85314,168.21865 1056.9114,159.3588 C1054.65704,157.125088 1047.09699,151.15876 1047.61953,154.196651 C1048.85195,161.361588 1084.67566,184.847488 1033.02288,155.794065 C1029.51598,153.821518 1032.13262,161.361588 1052.86633,172.595895 C1055.62181,174.088919 1058.64361,174.79094 1061.16442,176.526858 C1063.73388,178.296283 1074.15216,183.866052 1071.24119,182.776842 C975.466298,146.940392 1039.22712,175.526174 1063.19155,183.831161 C1072.54395,187.07228 1032.15235,177.41243 1022.34432,177.371113 C1018.92697,177.356717 1036.19121,182.936385 1039.48937,183.831161 C1044.53925,185.201171 1067.17634,189.324111 1073.20483,192.943137 C1067.17634,192.943137 1035.80016,186.514042 1028.50853,186.387851 C1022.39482,186.282045 1004.76235,185.170632 1010.44101,186.387851 C1021.6126,188.782478 1051.03083,195.929204 1061.82878,196.776101 C1064.13603,196.957063 1035.13329,199.717882 1021.2691,202.889706 C1033.02288,204.551531 1061.86954,202.402533 1066.19038,202.889706 C1068.62946,203.164711 1031.65542,210.165054 1027.53407,213.120147 C1026.75027,213.682154 1051.13917,215.331774 1060.48717,209.98421 C1064.67514,207.588467 1071.88387,208.932978 1074.2161,204.606741 C1077.50282,198.509941 1074.4627,190.756354 1074.58601,183.831161 L1073.88116,180.94551 Z" id="Path-2" fill="#FFFFFF" transform="translate(1042.539511, 183.578912) scale(1, -1) rotate(-178.000000) translate(-1042.539511, -183.578912) "></path>
        <path d="M995.585844,180.733907 C993.780932,177.516075 987.557828,168.007046 978.616083,159.147197 C976.361724,156.913485 968.801673,150.947156 969.324214,153.985048 C970.55664,161.149985 1006.38035,184.635884 954.72757,155.582461 C951.220667,153.609914 953.837306,161.149985 974.571019,172.384291 C977.326501,173.877315 980.348302,174.579337 982.869105,176.315254 C985.438567,178.08468 995.856851,183.654448 992.945878,182.565239 C897.170986,146.728788 960.931811,175.31457 984.896238,183.619557 C994.248638,186.860676 953.857036,177.200826 944.049006,177.159509 C940.631657,177.145114 957.895899,182.724781 961.194059,183.619557 C966.243942,184.989568 988.881031,189.112507 994.90952,192.731533 C988.881031,192.731533 957.504845,186.302438 950.21322,186.176247 C944.099506,186.070442 926.467041,184.959029 932.145697,186.176247 C943.317285,188.570874 972.735519,195.7176 983.533468,196.564498 C985.840722,196.745459 956.837978,199.506279 942.973789,202.678102 C954.72757,204.339928 983.574233,202.190929 987.89507,202.678102 C990.334152,202.953108 953.36011,209.95345 949.238761,212.908544 C948.454953,213.47055 972.843862,215.12017 982.191861,209.772607 C986.379826,207.376863 993.588557,208.721375 995.920786,204.395138 C999.207506,198.298337 996.167391,190.544751 996.290694,183.619557 L995.585844,180.733907 Z" id="Path-2" fill="#FFFFFF" transform="translate(964.244199, 183.367309) scale(-1, -1) rotate(-178.000000) translate(-964.244199, -183.367309) "></path>
        <path d="M1039.76502,263.598867 C1038.03106,260.507525 1020.26013,246.913799 1011.66988,238.402222 C1009.50413,236.256314 1002.24126,230.524516 1002.74326,233.442991 C1003.92724,240.326282 1038.34276,262.888974 988.720397,234.977612 C985.351347,233.082604 987.865129,240.326282 1007.78382,251.118979 C1010.43099,252.553314 1013.334,253.22774 1015.75572,254.89542 C1018.22418,256.595291 1028.23293,261.946118 1025.43638,260.899724 C933.426304,226.471968 994.680755,253.934072 1017.70316,261.912598 C1026.68793,265.026312 987.884083,255.746181 978.461597,255.706488 C975.17858,255.692658 991.764182,261.052995 994.932695,261.912598 C999.784072,263.228755 1021.53132,267.189626 1027.32283,270.666391 C1021.53132,270.666391 991.3885,264.490018 984.383501,264.368787 C978.510111,264.267141 961.57076,263.199416 967.026195,264.368787 C977.758639,266.669284 1006.02047,273.535079 1016.39396,274.348686 C1018.61052,274.522534 990.747847,277.174829 977.428645,280.221971 C988.720397,281.818472 1016.43313,279.753948 1020.58412,280.221971 C1022.92732,280.486166 987.40669,287.211332 983.447347,290.050264 C982.69435,290.590178 1006.12456,292.174954 1015.10509,287.037598 C1019.12843,284.736028 1023.08921,283.834554 1028.29435,281.871512 C1037.18752,278.517582 1040.32371,273.024057 1040.44217,266.371086 L1039.76502,263.598867 Z" id="Path-2" fill="#FFFFFF" transform="translate(1003.200503, 261.670265) scale(1, -1) rotate(-285.000000) translate(-1003.200503, -261.670265) "></path>
        <path d="M616.307234,221.359101 C614.224565,221.808337 611.934526,221.893959 609.804705,221.610045 C610.915247,222.39406 611.969924,223.326931 612.902578,224.344597 C613.927407,223.20736 615.091071,222.182473 616.307234,221.359101 Z M621.008166,219.381125 C621.881701,219.258874 622.725601,219.300388 623.507426,219.539168 C649.522092,227.484392 685.054395,271.754164 717.514929,286.442508 C738.675309,296.263239 739.905268,301.414493 740.061096,311.077973 C740.216923,320.741453 732.491932,327.370697 722.46193,332.793013 C716.346551,344.059289 709.943802,351.063344 700.326486,350.974618 C689.242692,350.872363 684.875131,346.504802 676.111426,327.846012 C658.082537,296.121306 624.95128,266.668213 612.649962,242.298297 C599.282385,267.217871 562.584371,298.650011 549.469498,327.63325 C539.648767,348.793629 534.497514,350.023588 524.834033,350.179416 C515.170553,350.335243 508.54131,342.610252 503.118993,332.58025 C491.852717,326.464871 484.848662,320.062122 484.937388,310.444806 C485.039644,299.361012 489.407205,294.993451 508.065994,286.229746 C543.400757,266.149292 575.917503,227.333816 601.731496,219.430982 C602.35291,219.240739 603.014631,219.168558 603.700581,219.198872 C603.180731,218.742655 602.754788,218.225333 602.446811,217.646517 C589.669786,193.633248 595.848109,137.204659 583.281274,103.865367 C575.262931,81.9584143 578.035705,77.4462157 584.758631,70.5029165 C591.481556,63.5596174 601.631533,64.3344278 612.557972,67.5925539 C624.848658,63.9503197 634.3287,63.5251323 641.066431,70.3883405 C648.831551,78.2980718 648.831551,84.4747358 641.83467,103.865367 C631.048244,143.049843 635.502119,193.489341 622.837018,217.330738 C622.418832,218.11795 621.789967,218.801722 621.008166,219.381125 Z" id="Combined-Shape" stroke="#6C11A2" stroke-width="2" fill="url(#radialGradient-4)"></path>
        <path d="M663.935026,157.32926 C661.040135,155.838287 651.058925,151.432306 636.7173,147.32712 C633.101543,146.292136 620.976011,143.527655 621.814112,144.935253 C623.790794,148.255106 681.248286,159.13723 598.402618,145.67541 C592.777912,144.761436 596.974728,148.255106 630.22944,153.460489 C634.648946,154.152278 639.495599,154.477558 643.538704,155.28189 C647.659853,156.101748 664.369693,158.682484 659.700796,158.177802 C506.087862,141.573086 608.353573,154.818226 646.790013,158.666318 C661.790287,160.168081 597.006372,155.692217 581.275316,155.673073 C575.794244,155.666403 603.484287,158.251726 608.774192,158.666318 C616.873677,159.301108 653.181205,161.21146 662.850272,162.888325 C653.181205,162.888325 602.857077,159.909423 591.162071,159.850953 C581.356311,159.801928 553.075677,159.286958 562.18365,159.850953 C580.101711,160.960496 627.285489,164.271911 644.604271,164.664319 C648.304867,164.748167 601.787492,166.027384 579.550779,167.49704 C598.402618,168.267042 644.669655,167.27131 651.599826,167.49704 C655.51186,167.624463 596.209354,170.868051 589.59914,172.237285 C588.341994,172.497689 627.459259,173.262036 642.452474,170.784258 C649.169533,169.674197 660.731586,170.297173 664.472237,168.292623 C669.743794,165.467688 664.867766,161.875086 665.065531,158.666318 L663.935026,157.32926 Z" id="Path-2-Copy" fill="#FFFFFF" transform="translate(613.666297, 158.549439) scale(1, -1) rotate(-95.000000) translate(-613.666297, -158.549439) "></path>
        <path d="M611.079042,272.232638 C608.184152,270.813065 598.202942,266.61808 583.861317,262.709485 C580.24556,261.724065 568.120027,259.09197 568.958129,260.432161 C570.93481,263.593031 628.392302,273.954027 545.546634,261.136873 C539.921928,260.266668 544.118744,263.593031 577.373456,268.549137 C581.792962,269.207797 586.639616,269.517499 590.68272,270.283313 C594.803869,271.06391 611.51371,273.521059 606.844813,273.040545 C453.231878,257.231003 555.497589,269.841854 593.93403,273.505666 C608.934303,274.935513 544.150388,270.673991 528.419332,270.655764 C522.93826,270.649413 550.628304,273.110929 555.918208,273.505666 C564.017693,274.110058 600.325222,275.928926 609.994288,277.525489 C600.325222,277.525489 550.001094,274.689241 538.306088,274.633571 C528.500327,274.586894 500.219693,274.096585 509.327667,274.633571 C527.245728,275.68998 574.429506,278.842817 591.748288,279.216433 C595.448884,279.296265 548.931509,280.514223 526.694795,281.913499 C545.546634,282.646627 591.813671,281.698579 598.743843,281.913499 C602.655876,282.03482 543.35337,285.123078 536.743157,286.426742 C535.486011,286.674676 574.603276,287.402419 589.596491,285.043298 C596.31355,283.986396 607.875602,284.579538 611.616254,282.670983 C616.887811,279.98133 612.011783,276.560772 612.209547,273.505666 L611.079042,272.232638 Z" id="Path-2-Copy-2" fill="#FFFFFF" transform="translate(560.810313, 273.394385) scale(1, -1) rotate(-320.000000) translate(-560.810313, -273.394385) "></path>
        <path d="M707.881423,267.248659 C704.986533,265.64455 695.005323,260.904239 680.663698,256.487548 C677.047941,255.374029 664.922408,252.399776 665.76051,253.914184 C667.737191,257.485951 725.194683,269.19382 642.349015,254.710505 C636.724309,253.727178 640.921125,257.485951 674.175837,263.086323 C678.595343,263.830605 683.441997,264.180568 687.485101,265.045933 C691.60625,265.928003 708.316091,268.704568 703.647194,268.16159 C550.034259,250.296893 652.29997,264.547086 690.736411,268.687175 C705.736684,270.302893 640.952769,265.487397 625.221713,265.4668 C619.740641,265.459623 647.430685,268.241123 652.720589,268.687175 C660.820074,269.370133 697.127603,271.425445 706.796669,273.229552 C697.127603,273.229552 646.803475,270.024608 635.108469,269.961701 C625.302708,269.908956 597.022074,269.35491 606.130048,269.961701 C624.048109,271.155437 671.231887,274.718125 688.550669,275.140309 C692.251265,275.230519 645.73389,276.606806 623.497176,278.18798 C642.349015,279.01641 688.616052,277.945121 695.546224,278.18798 C699.458257,278.325072 640.155751,281.814787 633.545538,283.287919 C632.288392,283.568083 671.405657,284.390429 686.398872,281.724635 C693.115931,280.530342 704.677983,281.200589 708.418635,279.043933 C713.690192,276.004639 708.814164,272.139427 709.011928,268.687175 L707.881423,267.248659 Z" id="Path-2-Copy-3" fill="#FFFFFF" transform="translate(657.612694, 268.561427) scale(1, -1) rotate(-229.000000) translate(-657.612694, -268.561427) "></path>
        <path d="M614.178328,220.005352 C614.250813,219.674453 614.323501,219.339336 614.396392,219 C614.5385,219.566423 614.679155,220.122434 614.818358,220.668033 C618.620433,210.923695 620.464223,205.372826 627.953112,197.883938 C640.15056,185.686489 655.834536,177.840049 675.005041,174.344616 C674.918848,180.114384 674.718733,184.02797 674.404697,186.085374 C672.151186,200.849246 665.043973,213.118978 654.955358,223.207593 C645.711662,232.451289 641.052835,233.225042 623.729255,239.178976 C625.368948,241.589874 627.428259,244.388819 629.907188,247.575814 C627.135617,246.229053 624.612117,245.037667 622.336686,244.001655 C628.164965,258.30875 632,263.274167 632,276.084447 C632,293.334244 626.458025,309.972762 615.374076,326 C611.355182,321.85921 608.729361,318.950384 607.496613,317.273523 C598.650452,305.240416 595,291.538847 595,277.271391 C595,265.506671 597.22498,261.218437 603.530135,248.480836 C602.420129,249.169658 601.255398,249.908169 600.035942,250.696368 C603.064875,245.6386 605.448126,241.43581 607.185697,238.087995 C591.368207,232.864011 585.010556,232.882944 574.862583,224.367784 C561.648472,213.279828 552.464941,198.339396 547.31199,179.546488 C553.067314,179.129485 556.983449,178.987747 559.060395,179.121273 C573.964492,180.079453 586.806968,186.090243 597.736473,195.261187 C606.680001,202.765698 608.574837,207.216001 614.178328,220.005352 Z" id="Combined-Shape" stroke="#6C11A2" stroke-width="2" fill="url(#radialGradient-5)"></path>
        <path d="M639.543832,261.659855 C638.363718,260.333004 626.269033,254.498369 620.422609,250.845071 C618.948631,249.924015 614.005606,247.46384 614.347262,248.716494 C615.153065,251.670907 638.575854,261.355158 604.803467,249.375176 C602.510532,248.56181 604.221382,251.670907 617.777806,256.303297 C619.579436,256.918935 621.555195,257.208409 623.203383,257.924202 C624.883387,258.653813 631.695224,260.950469 629.791929,260.501341 C567.170967,245.724424 608.860016,257.511577 624.528793,260.936082 C630.643718,262.272536 604.234282,258.289362 597.82145,258.272325 C595.587068,258.266389 606.875031,260.567128 609.031483,260.936082 C612.333272,261.500997 627.13419,263.201063 631.075826,264.693344 C627.13419,264.693344 606.619346,262.04235 601.851828,261.990316 C597.854468,261.946688 586.325748,261.488404 590.038652,261.990316 C597.343025,262.977724 616.577692,265.924628 623.637767,266.273841 C625.14633,266.348459 606.183326,267.486864 597.118435,268.794744 C604.803467,269.479986 623.66442,268.593861 626.489534,268.794744 C628.084291,268.90814 603.909374,271.794684 601.214692,273.013197 C600.702212,273.244936 616.64853,273.925146 622.760577,271.720115 C625.498815,270.732246 628.194469,270.345319 631.737027,269.502752 C637.789615,268.063194 639.924067,265.70529 640.004687,262.849733 L639.543832,261.659855 Z" id="Path-2" fill="#FFFFFF" transform="translate(614.658454, 260.832069) scale(1, -1) rotate(-275.000000) translate(-614.658454, -260.832069) "></path>
        <path d="M662.510804,213.163858 C661.33069,211.837007 649.236005,206.002373 643.389581,202.349074 C641.915603,201.428018 636.972578,198.967843 637.314234,200.220497 C638.120037,203.17491 661.542826,212.859161 627.770439,200.87918 C625.477504,200.065814 627.188354,203.17491 640.744778,207.8073 C642.546408,208.422939 644.522167,208.712413 646.170355,209.428206 C647.850359,210.157817 654.662196,212.454473 652.758901,212.005345 C590.137939,197.228428 631.826988,209.015581 647.495766,212.440086 C653.61069,213.776539 627.201254,209.793366 620.788422,209.776329 C618.55404,209.770393 629.842003,212.071131 631.998455,212.440086 C635.300244,213.005 650.101162,214.705067 654.042798,216.197347 C650.101162,216.197347 629.586319,213.546354 624.8188,213.49432 C620.82144,213.450692 609.29272,212.992408 613.005624,213.49432 C620.309997,214.481728 639.544664,217.428632 646.604739,217.777844 C648.113302,217.852462 629.150298,218.990868 620.085407,220.298747 C627.770439,220.98399 646.631392,220.097865 649.456506,220.298747 C651.051263,220.412144 626.876346,223.298688 624.181664,224.5172 C623.669184,224.74894 639.615502,225.42915 645.727549,223.224118 C648.465787,222.23625 651.161441,221.849323 654.703999,221.006755 C660.756587,219.567198 662.891039,217.209293 662.971659,214.353737 L662.510804,213.163858 Z" id="Path-2" fill="#FFFFFF" transform="translate(637.625426, 212.336073) scale(1, -1) rotate(-146.000000) translate(-637.625426, -212.336073) "></path>
        <path d="M614.868017,213.334165 C613.687903,212.007314 601.593218,206.17268 595.746794,202.519381 C594.272816,201.598325 589.329791,199.13815 589.671447,200.390804 C590.47725,203.345217 613.900039,213.029468 580.127652,201.049487 C577.834717,200.23612 579.545567,203.345217 593.101991,207.977607 C594.903621,208.593245 596.87938,208.882719 598.527568,209.598513 C600.207572,210.328123 607.019409,212.62478 605.116114,212.175651 C542.495152,197.398735 584.184201,209.185887 599.852978,212.610393 C605.967903,213.946846 579.558467,209.963672 573.145635,209.946636 C570.911253,209.9407 582.199216,212.241438 584.355668,212.610393 C587.657457,213.175307 602.458375,214.875373 606.400011,216.367654 C602.458375,216.367654 581.943532,213.71666 577.176013,213.664626 C573.178653,213.620998 561.649933,213.162715 565.362837,213.664626 C572.66721,214.652034 591.901877,217.598938 598.961952,217.948151 C600.470515,218.022769 581.507511,219.161174 572.44262,220.469054 C580.127652,221.154296 598.988605,220.268172 601.813719,220.469054 C603.408476,220.582451 579.233559,223.468994 576.538877,224.687507 C576.026397,224.919246 591.972715,225.599456 598.084762,223.394425 C600.823,222.406556 603.518654,222.01963 607.061212,221.177062 C613.1138,219.737505 615.248252,217.3796 615.328872,214.524043 L614.868017,213.334165 Z" id="Path-2" fill="#FFFFFF" transform="translate(589.982639, 212.506380) scale(-1, -1) rotate(-146.000000) translate(-589.982639, -212.506380) "></path>
        <path d="M1011.03328,213.501801 L1010.42056,213.211669 L1013.23166,168.632103 L1013.26295,168.439244 L1013.5243,167.451518 C1013.75251,166.589023 1013.86143,165.700464 1013.84815,164.809648 C1013.7663,159.316429 1009.15253,154.920517 1003.5339,155.001092 C1002.65928,155.013634 1001.78984,155.134685 1000.94635,155.361331 C995.433306,156.842695 992.194908,162.416505 993.700454,167.809191 L993.820947,168.24078 L993.85581,168.446963 L996.730755,214.196822 L960.393385,242.98901 L960.229128,243.094808 L959.320229,243.561507 C958.526567,243.969035 957.793359,244.482656 957.140235,245.088592 C953.112746,248.825099 952.933162,255.195238 956.752638,259.316778 C957.347195,259.958356 958.018925,260.52348 958.751758,260.998656 C963.541573,264.104422 969.850632,262.781413 972.850772,258.054163 L973.09088,257.675831 L973.220776,257.511959 L1004.34552,225.733114 L1032.30265,259.778607 L1032.4113,259.940992 L1032.89379,260.841608 C1033.31511,261.628038 1033.84145,262.35217 1034.45869,262.994619 C1038.26492,266.956284 1044.63722,267.024666 1048.69147,263.133841 C1049.32258,262.528177 1049.87589,261.846687 1050.33821,261.105673 C1053.3599,256.262384 1051.92699,249.977375 1047.1481,247.060194 L1046.76563,246.826726 L1046.59952,246.69971 L1012.72017,214.656859 C1012.21672,214.180699 1011.64888,213.793297 1011.03328,213.501801 Z" id="Combined-Shape-Copy" stroke="#6C11A2" stroke-width="2" fill="#6C11A2" transform="translate(1002.960879, 210.504710) rotate(-360.000000) translate(-1002.960879, -210.504710) "></path>
        <path d="M262.447488,143.972517 C259.552598,142.155603 249.571388,136.786433 235.229763,131.783815 C231.614006,130.522574 219.488473,127.153751 220.326575,128.869063 C222.303256,132.914667 279.760748,146.175726 196.91508,129.771026 C191.290374,128.657248 195.48719,132.914667 228.741902,139.257997 C233.161408,140.101017 238.008062,140.497406 242.051166,141.477573 C246.172315,142.47666 262.882156,145.621569 258.213259,145.006559 C104.600324,124.771895 206.866035,140.912547 245.302476,145.601868 C260.302749,147.431931 195.518834,141.977601 179.787778,141.954272 C174.306706,141.946144 201.99675,145.096643 207.286654,145.601868 C215.386139,146.37543 251.693668,148.703403 261.362734,150.746847 C251.693668,150.746847 201.36954,147.116728 189.674534,147.045476 C179.868773,146.985734 151.588139,146.358187 160.696112,147.045476 C178.614174,148.397576 225.797952,152.432897 243.116734,152.911089 C246.81733,153.013267 200.299955,154.572134 178.063241,156.363069 C196.91508,157.301401 243.182117,156.087993 250.112289,156.363069 C254.024322,156.518348 194.721816,160.471016 188.111603,162.139577 C186.854457,162.456908 225.971722,163.388349 240.964937,160.368905 C247.681996,159.016174 259.244048,159.775338 262.984699,157.332575 C268.256257,153.890083 263.380229,149.512104 263.577993,145.601868 L262.447488,143.972517 Z" id="Path-2-Copy" fill="#FFFFFF" transform="translate(212.178759, 145.459439) scale(1, -1) rotate(-95.000000) translate(-212.178759, -145.459439) "></path>
        <path d="M201.591505,280.817463 C198.696614,279.000549 188.715404,273.631379 174.373779,268.628761 C170.758022,267.367519 158.63249,263.998697 159.470591,265.714009 C161.447273,269.759613 218.904764,283.020672 136.059097,266.615971 C130.434391,265.502194 134.631207,269.759613 167.885919,276.102943 C172.305424,276.945963 177.152078,277.342352 181.195183,278.322519 C185.316331,279.321606 202.026172,282.466515 197.357275,281.851505 C43.7443406,261.616841 146.010052,277.757493 184.446492,282.446814 C199.446765,284.276877 134.66285,278.822547 118.931795,278.799218 C113.450723,278.79109 141.140766,281.941589 146.430671,282.446814 C154.530155,283.220376 190.837684,285.548349 200.506751,287.591793 C190.837684,287.591793 140.513556,283.961674 128.81855,283.890422 C119.01279,283.83068 90.7321559,283.203132 99.840129,283.890422 C117.75819,285.242522 164.941968,289.277843 182.26075,289.756035 C185.961346,289.858213 139.443971,291.41708 117.207258,293.208015 C136.059097,294.146347 182.326134,292.932939 189.256305,293.208015 C193.168339,293.363294 133.865833,297.315962 127.255619,298.984523 C125.998473,299.301854 165.115738,300.233294 180.108953,297.213851 C186.826012,295.86112 198.388065,296.620284 202.128716,294.177521 C207.400273,290.735029 202.524245,286.35705 202.72201,282.446814 L201.591505,280.817463 Z" id="Path-2-Copy" fill="#FFFFFF" transform="translate(151.322776, 282.304385) scale(1, -1) rotate(-323.000000) translate(-151.322776, -282.304385) "></path>
        <path d="M201.591505,280.817463 C198.696614,279.000549 188.715404,273.631379 174.373779,268.628761 C170.758022,267.367519 158.63249,263.998697 159.470591,265.714009 C161.447273,269.759613 218.904764,283.020672 136.059097,266.615971 C130.434391,265.502194 134.631207,269.759613 167.885919,276.102943 C172.305424,276.945963 177.152078,277.342352 181.195183,278.322519 C185.316331,279.321606 202.026172,282.466515 197.357275,281.851505 C43.7443406,261.616841 146.010052,277.757493 184.446492,282.446814 C199.446765,284.276877 134.66285,278.822547 118.931795,278.799218 C113.450723,278.79109 141.140766,281.941589 146.430671,282.446814 C154.530155,283.220376 190.837684,285.548349 200.506751,287.591793 C190.837684,287.591793 140.513556,283.961674 128.81855,283.890422 C119.01279,283.83068 90.7321559,283.203132 99.840129,283.890422 C117.75819,285.242522 164.941968,289.277843 182.26075,289.756035 C185.961346,289.858213 139.443971,291.41708 117.207258,293.208015 C136.059097,294.146347 182.326134,292.932939 189.256305,293.208015 C193.168339,293.363294 133.865833,297.315962 127.255619,298.984523 C125.998473,299.301854 165.115738,300.233294 180.108953,297.213851 C186.826012,295.86112 198.388065,296.620284 202.128716,294.177521 C207.400273,290.735029 202.524245,286.35705 202.72201,282.446814 L201.591505,280.817463 Z" id="Path-2-Copy-2" fill="#FFFFFF" transform="translate(151.322776, 282.304385) scale(1, -1) rotate(-323.000000) translate(-151.322776, -282.304385) "></path>
        <path d="M311.393886,274.984505 C308.498995,273.167591 298.517785,267.798421 284.17616,262.795803 C280.560403,261.534562 268.434871,258.165739 269.272972,259.881051 C271.249654,263.926655 328.707145,277.187714 245.861478,260.783014 C240.236772,259.669236 244.433588,263.926655 277.6883,270.269985 C282.107805,271.113005 286.954459,271.509394 290.997564,272.489561 C295.118712,273.488648 311.828553,276.633557 307.159656,276.018547 C153.546722,255.783883 255.812433,271.924535 294.248873,276.613856 C309.249146,278.443919 244.465231,272.989589 228.734176,272.96626 C223.253104,272.958132 250.943147,276.108631 256.233052,276.613856 C264.332536,277.387418 300.640065,279.715391 310.309132,281.758835 C300.640065,281.758835 250.315937,278.128716 238.620931,278.057464 C228.815171,277.997722 200.534537,277.370175 209.64251,278.057464 C227.560571,279.409564 274.744349,283.444885 292.063131,283.923077 C295.763727,284.025255 249.246352,285.584122 227.009639,287.375058 C245.861478,288.313389 292.128515,287.099981 299.058686,287.375058 C302.97072,287.530336 243.668214,291.483004 237.058,293.151566 C235.800854,293.468896 274.918119,294.400337 289.911334,291.380893 C296.628393,290.028162 308.190446,290.787326 311.931097,288.344563 C317.202654,284.902071 312.326626,280.524092 312.524391,276.613856 L311.393886,274.984505 Z" id="Path-2-Copy-3" fill="#FFFFFF" transform="translate(261.125157, 276.471427) scale(1, -1) rotate(-234.000000) translate(-261.125157, -276.471427) "></path>
        <path d="M218.765087,225.951849 C221.327885,231.095798 223.633352,235.225073 225.681489,238.339674 C242.405786,263.772304 254,269.075716 254,287.421935 C254,308.702058 241.568003,329.22808 216.704008,349 C207.688651,343.891736 201.798296,340.303278 199.032942,338.234626 C179.188852,323.390046 171,306.487176 171,288.886202 C171,270.522614 178.990502,266.924902 203.401428,238.296077 C205.662929,235.643817 208.041303,231.659125 210.536549,226.342001 C208.616917,226.773002 206.889729,227.213315 205.354987,227.662936 C176.143931,236.220679 167.682433,245.757714 150.137857,240.393799 C129.787574,234.172093 113.793206,216.282087 102.154753,186.72378 C109.675646,179.595863 114.829479,175.012052 117.616251,172.972347 C137.614044,158.335484 156.172528,155.446367 173.004423,160.592394 C190.565609,165.961387 191.669921,174.654612 211.910739,206.369154 C212.161107,206.761446 212.433582,207.162675 212.728162,207.572842 C213.188798,206.991924 213.620973,206.430371 214.024687,205.888183 C232.203495,181.474013 233.221617,168.765142 250.461424,162.490365 C270.458198,155.212135 293.998343,159.874078 321.081858,176.476196 C319.365093,186.694989 318.007666,193.457438 317.009576,196.76354 C309.847312,220.488031 296.764562,233.964157 280.225056,239.984044 C262.968928,246.264761 256.855272,239.986635 221.603948,226.839503 C220.746689,226.519785 219.800402,226.2239 218.765087,225.951849 Z" id="Combined-Shape" stroke="#6C11A2" stroke-width="2" fill="url(#radialGradient-6)"></path>
        <path d="M52.7109375,239.140625 C54.515634,240.031254 56.4492084,240.476562 58.5117188,240.476562 C61.0507939,240.476562 62.3203125,239.320324 62.3203125,237.007812 C62.3203125,236.257809 62.1191426,235.650393 61.7167969,235.185547 C61.3144511,234.720701 60.5820366,234.35547 59.5195312,234.089844 L56.0742188,233.222656 C53.4413931,232.55859 52.125,231.152354 52.125,229.003906 C52.125,227.355461 52.6914006,226.130863 53.8242188,225.330078 C54.9570369,224.529293 56.5234275,224.128906 58.5234375,224.128906 C59.5703177,224.128906 60.5507767,224.242186 61.4648438,224.46875 C62.3789108,224.695314 63.1445282,224.999998 63.7617188,225.382812 L63.1757812,227.035156 C62.6523411,226.746092 61.9589887,226.488282 61.0957031,226.261719 C60.2324176,226.035155 59.3593794,225.921875 58.4765625,225.921875 C55.6484234,225.921875 54.234375,226.902334 54.234375,228.863281 C54.234375,229.527347 54.4511697,230.060545 54.8847656,230.462891 C55.3183615,230.865236 55.9687457,231.171874 56.8359375,231.382812 L60.1289062,232.179688 C61.5351633,232.515627 62.6015589,233.052731 63.328125,233.791016 C64.0546911,234.529301 64.4179688,235.578118 64.4179688,236.9375 C64.4179688,238.703134 63.8769585,240.033199 62.7949219,240.927734 C61.7128852,241.82227 60.2421968,242.269531 58.3828125,242.269531 C56.9921805,242.269531 55.7558648,242.126955 54.6738281,241.841797 C53.5917915,241.556639 52.7343782,241.218752 52.1015625,240.828125 L52.7109375,239.140625 Z M72.1054688,230.492188 C71.1054637,230.492188 70.2890657,230.8457 69.65625,231.552734 C69.0234343,232.259769 68.6523443,233.226556 68.5429688,234.453125 L75.328125,234.453125 C75.328125,233.179681 75.0410185,232.201175 74.4667969,231.517578 C73.8925753,230.833981 73.1054738,230.492188 72.1054688,230.492188 Z M72.4921875,242.269531 C70.6249907,242.269531 69.1543022,241.675787 68.0800781,240.488281 C67.005854,239.300775 66.46875,237.675792 66.46875,235.613281 C66.46875,233.621084 66.9882761,232.005866 68.0273438,230.767578 C69.0664114,229.529291 70.4335853,228.898438 72.1289062,228.875 C73.7226642,228.875 74.9863235,229.419916 75.9199219,230.509766 C76.8535203,231.599615 77.3203125,233.054678 77.3203125,234.875 C77.3203125,234.96875 77.3183594,235.140624 77.3144531,235.390625 C77.3105469,235.640626 77.3085938,235.820312 77.3085938,235.929688 L68.484375,235.929688 C68.5078126,237.390632 68.884762,238.529293 69.6152344,239.345703 C70.3457068,240.162113 71.3281188,240.570312 72.5625,240.570312 C73.9218818,240.570312 75.2851494,240.210941 76.6523438,239.492188 L76.9570312,241.074219 C75.6523372,241.871098 74.1640709,242.269531 72.4921875,242.269531 Z M80.0390625,247.578125 L80.0390625,229.144531 L81.7617188,229.144531 L81.9492188,230.890625 C83.0742244,229.546868 84.4257734,228.875 86.0039062,228.875 C87.1757871,228.875 88.1679647,229.167966 88.9804688,229.753906 C89.7929728,230.339847 90.3925762,231.132808 90.7792969,232.132812 C91.1660176,233.132817 91.359375,234.300775 91.359375,235.636719 C91.359375,236.917975 91.1484396,238.056636 90.7265625,239.052734 C90.3046854,240.048833 89.685551,240.833982 88.8691406,241.408203 C88.0527303,241.982425 87.0976617,242.269531 86.0039062,242.269531 C85.1757771,242.269531 84.3984411,242.083986 83.671875,241.712891 C82.9453089,241.341795 82.3632834,240.851566 81.9257812,240.242188 C81.9726565,241.085942 81.9960938,241.906246 81.9960938,242.703125 L81.9960938,247.449219 L80.0390625,247.578125 Z M85.734375,240.617188 C86.328128,240.617188 86.8593727,240.482423 87.328125,240.212891 C87.7968773,239.943358 88.1757798,239.574221 88.4648438,239.105469 C88.7539077,238.636716 88.9726555,238.103519 89.1210938,237.505859 C89.269532,236.9082 89.34375,236.261722 89.34375,235.566406 C89.34375,234.097649 89.0351593,232.892583 88.4179688,231.951172 C87.8007782,231.009761 86.8984434,230.539062 85.7109375,230.539062 C83.2265501,230.539062 81.984375,232.144515 81.984375,235.355469 C81.984375,237.097665 82.2753877,238.410152 82.8574219,239.292969 C83.439456,240.175786 84.3984308,240.617188 85.734375,240.617188 Z M97.828125,240.6875 C98.7578171,240.6875 99.5761683,240.431643 100.283203,239.919922 C100.990238,239.408201 101.445311,238.718754 101.648438,237.851562 L101.648438,235.683594 C101.609375,235.683594 101.373049,235.703125 100.939453,235.742188 C100.505857,235.78125 100.222657,235.804687 100.089844,235.8125 C98.3945228,235.960938 97.212894,236.238279 96.5449219,236.644531 C95.8769498,237.050783 95.5429688,237.703121 95.5429688,238.601562 C95.5429688,239.289066 95.7460917,239.808592 96.1523438,240.160156 C96.5585958,240.511721 97.1171839,240.6875 97.828125,240.6875 Z M102.082031,242 C101.964843,241.499998 101.851563,240.96094 101.742188,240.382812 C101.031246,241.093754 100.363284,241.585936 99.7382812,241.859375 C99.1132781,242.132814 98.3789105,242.269531 97.5351562,242.269531 C96.3320252,242.269531 95.365238,241.955081 94.6347656,241.326172 C93.9042932,240.697262 93.5390625,239.792975 93.5390625,238.613281 C93.5390625,237.300775 94.0371044,236.328128 95.0332031,235.695312 C96.0293019,235.062497 97.4648344,234.66797 99.3398438,234.511719 C99.5976575,234.488281 99.9863255,234.455078 100.505859,234.412109 C101.025393,234.36914 101.414061,234.335938 101.671875,234.3125 L101.671875,233.175781 C101.671875,232.269527 101.46094,231.597658 101.039062,231.160156 C100.617185,230.722654 99.9531295,230.503906 99.046875,230.503906 C97.7812437,230.503906 96.5039127,230.816403 95.2148438,231.441406 C95.1757811,231.347656 95.0742196,231.076174 94.9101562,230.626953 C94.7460929,230.177732 94.6601563,229.945313 94.6523438,229.929688 C95.2226591,229.609373 95.9003867,229.353517 96.6855469,229.162109 C97.4707071,228.970702 98.2695272,228.875 99.0820312,228.875 C100.683602,228.875 101.837887,229.224606 102.544922,229.923828 C103.251957,230.62305 103.605469,231.812492 103.605469,233.492188 L103.605469,242 L102.082031,242 Z M110.4375,242.234375 C109.187494,242.234375 108.302737,241.898441 107.783203,241.226562 C107.263669,240.554684 107.003906,239.386727 107.003906,237.722656 L107.003906,224.152344 L108.949219,224.035156 L108.949219,236.949219 C108.949219,237.480471 108.955078,237.906248 108.966797,238.226562 C108.978516,238.546877 109.007812,238.861327 109.054688,239.169922 C109.101563,239.478517 109.164062,239.710937 109.242188,239.867188 C109.320313,240.023438 109.433593,240.166015 109.582031,240.294922 C109.730469,240.423829 109.908202,240.509765 110.115234,240.552734 C110.322267,240.595703 110.578123,240.617188 110.882812,240.617188 C111.132814,240.617188 111.624996,240.570313 112.359375,240.476562 L112.464844,242.035156 C111.660152,242.167969 110.984378,242.234375 110.4375,242.234375 Z" id="Sepal" fill="#000000"></path>
        <path d="M313.785156,125 L311.710938,125 L311.710938,107.46875 L317.359375,107.46875 C318.218754,107.46875 318.99609,107.558593 319.691406,107.738281 C320.386722,107.91797 321.003904,108.191404 321.542969,108.558594 C322.082034,108.925783 322.499999,109.417966 322.796875,110.035156 C323.093751,110.652347 323.242188,111.37109 323.242188,112.191406 C323.242188,112.871097 323.179688,113.478513 323.054688,114.013672 C322.929687,114.548831 322.714845,115.050779 322.410156,115.519531 C322.105467,115.988284 321.707034,116.376952 321.214844,116.685547 C320.722654,116.994142 320.091801,117.236327 319.322266,117.412109 C318.552731,117.587892 317.660161,117.675781 316.644531,117.675781 C315.83984,117.675781 314.886724,117.625001 313.785156,117.523438 L313.785156,125 Z M316.84375,115.882812 C317.609379,115.882812 318.265622,115.808594 318.8125,115.660156 C319.359378,115.511718 319.779295,115.328126 320.072266,115.109375 C320.365236,114.890624 320.595702,114.605471 320.763672,114.253906 C320.931641,113.902342 321.035156,113.58008 321.074219,113.287109 C321.113281,112.994139 321.132812,112.640627 321.132812,112.226562 C321.132812,111.23437 320.798831,110.503909 320.130859,110.035156 C319.462887,109.566404 318.554693,109.332031 317.40625,109.332031 L313.785156,109.332031 L313.785156,115.859375 C315.292976,115.875 316.312497,115.882812 316.84375,115.882812 Z M330.308594,113.492188 C329.308589,113.492188 328.492191,113.8457 327.859375,114.552734 C327.226559,115.259769 326.855469,116.226556 326.746094,117.453125 L333.53125,117.453125 C333.53125,116.179681 333.244143,115.201175 332.669922,114.517578 C332.0957,113.833981 331.308599,113.492188 330.308594,113.492188 Z M330.695312,125.269531 C328.828116,125.269531 327.357427,124.675787 326.283203,123.488281 C325.208979,122.300775 324.671875,120.675792 324.671875,118.613281 C324.671875,116.621084 325.191401,115.005866 326.230469,113.767578 C327.269536,112.529291 328.63671,111.898438 330.332031,111.875 C331.925789,111.875 333.189448,112.419916 334.123047,113.509766 C335.056645,114.599615 335.523438,116.054678 335.523438,117.875 C335.523438,117.96875 335.521484,118.140624 335.517578,118.390625 C335.513672,118.640626 335.511719,118.820312 335.511719,118.929688 L326.6875,118.929688 C326.710938,120.390632 327.087887,121.529293 327.818359,122.345703 C328.548832,123.162113 329.531244,123.570312 330.765625,123.570312 C332.125007,123.570312 333.488274,123.210941 334.855469,122.492188 L335.160156,124.074219 C333.855462,124.871098 332.367196,125.269531 330.695312,125.269531 Z M342.34375,125.234375 C341.078119,125.234375 340.17969,124.925784 339.648438,124.308594 C339.117185,123.691403 338.835938,122.695319 338.804688,121.320312 L338.804688,113.597656 L336.894531,113.597656 L336.976562,112.308594 L338.792969,112.144531 L339.460938,109.203125 L340.75,109.15625 L340.75,112.144531 L344.324219,112.144531 L344.324219,113.597656 L340.75,113.597656 L340.75,120.96875 C340.75,121.945317 340.898436,122.632811 341.195312,123.03125 C341.492189,123.429689 341.999996,123.628906 342.71875,123.628906 C342.976564,123.628906 343.535152,123.566407 344.394531,123.441406 L344.476562,124.988281 C343.54687,125.152345 342.83594,125.234375 342.34375,125.234375 Z M350.277344,123.6875 C351.207036,123.6875 352.025387,123.431643 352.732422,122.919922 C353.439457,122.408201 353.89453,121.718754 354.097656,120.851562 L354.097656,118.683594 C354.058594,118.683594 353.822268,118.703125 353.388672,118.742188 C352.955076,118.78125 352.671876,118.804687 352.539062,118.8125 C350.843742,118.960938 349.662113,119.238279 348.994141,119.644531 C348.326169,120.050783 347.992188,120.703121 347.992188,121.601562 C347.992188,122.289066 348.19531,122.808592 348.601562,123.160156 C349.007815,123.511721 349.566403,123.6875 350.277344,123.6875 Z M354.53125,125 C354.414062,124.499998 354.300782,123.96094 354.191406,123.382812 C353.480465,124.093754 352.812503,124.585936 352.1875,124.859375 C351.562497,125.132814 350.828129,125.269531 349.984375,125.269531 C348.781244,125.269531 347.814457,124.955081 347.083984,124.326172 C346.353512,123.697262 345.988281,122.792975 345.988281,121.613281 C345.988281,120.300775 346.486323,119.328128 347.482422,118.695312 C348.478521,118.062497 349.914053,117.66797 351.789062,117.511719 C352.046876,117.488281 352.435544,117.455078 352.955078,117.412109 C353.474612,117.36914 353.86328,117.335938 354.121094,117.3125 L354.121094,116.175781 C354.121094,115.269527 353.910158,114.597658 353.488281,114.160156 C353.066404,113.722654 352.402348,113.503906 351.496094,113.503906 C350.230462,113.503906 348.953131,113.816403 347.664062,114.441406 C347.625,114.347656 347.523438,114.076174 347.359375,113.626953 C347.195312,113.177732 347.109375,112.945313 347.101562,112.929688 C347.671878,112.609373 348.349605,112.353517 349.134766,112.162109 C349.919926,111.970702 350.718746,111.875 351.53125,111.875 C353.132821,111.875 354.287106,112.224606 354.994141,112.923828 C355.701175,113.62305 356.054688,114.812492 356.054688,116.492188 L356.054688,125 L354.53125,125 Z M362.886719,125.234375 C361.636712,125.234375 360.751956,124.898441 360.232422,124.226562 C359.712888,123.554684 359.453125,122.386727 359.453125,120.722656 L359.453125,107.152344 L361.398438,107.035156 L361.398438,119.949219 C361.398438,120.480471 361.404297,120.906248 361.416016,121.226562 C361.427734,121.546877 361.457031,121.861327 361.503906,122.169922 C361.550781,122.478517 361.613281,122.710937 361.691406,122.867188 C361.769532,123.023438 361.882812,123.166015 362.03125,123.294922 C362.179688,123.423829 362.357421,123.509765 362.564453,123.552734 C362.771485,123.595703 363.027342,123.617188 363.332031,123.617188 C363.582032,123.617188 364.074215,123.570313 364.808594,123.476562 L364.914062,125.035156 C364.109371,125.167969 363.433596,125.234375 362.886719,125.234375 Z" id="Petal-Copy" fill="#000000"></path>
        <path d="M85,253 L128.192675,287.108545" id="Line-2" stroke="#000000" stroke-width="4" stroke-linecap="round"></path>
        <path d="M337.108545,131 L303,174.192675" id="Line-2-Copy" stroke="#000000" stroke-width="4" stroke-linecap="round"></path>
        <path d="M204.622489,202.82495 C203.240248,200.360664 198.474458,193.078442 191.626674,186.293375 C189.900237,184.582749 184.110584,180.013604 184.510758,182.340088 C185.454576,187.827154 212.889157,205.81317 173.332328,183.563422 C170.646665,182.052803 172.650544,187.827154 188.528876,196.430632 C190.639084,197.574022 192.953246,198.111646 194.883732,199.441049 C196.851482,200.796114 204.830032,205.061565 202.600745,204.227424 C129.254234,176.783086 178.083671,198.674704 196.436154,205.034845 C203.598427,207.516965 172.665653,200.11924 165.15445,200.087598 C162.537369,200.076574 175.758703,204.349606 178.284507,205.034845 C182.151817,206.084029 199.487796,209.241466 204.104545,212.012995 C199.487796,212.012995 175.459226,207.089454 169.875139,206.992814 C165.193123,206.911786 151.689795,206.060641 156.038635,206.992814 C164.594081,208.826672 187.12321,214.299791 195.392515,214.948364 C197.159461,215.086948 174.948524,217.201244 164.331024,219.630296 C173.332328,220.902958 195.423734,219.257208 198.732725,219.630296 C200.600628,219.840901 172.285096,225.201917 169.128877,227.464992 C168.52862,227.895389 187.206181,229.158704 194.365083,225.063423 C197.572319,223.22871 203.092923,224.258366 204.878994,220.945239 C207.396037,216.276176 205.06785,210.33831 205.162278,205.034845 L204.622489,202.82495 Z" id="Path-2" fill="#FFFFFF" transform="translate(180.620370, 204.841667) rotate(-2.000000) translate(-180.620370, -204.841667) "></path>
        <path d="M270.384339,203.559039 C269.002098,201.094753 264.236308,193.812531 257.388524,187.027464 C255.662087,185.316838 249.872434,180.747693 250.272608,183.074177 C251.216426,188.561243 278.651007,206.547259 239.094178,184.297511 C236.408515,182.786892 238.412394,188.561243 254.290726,197.164721 C256.400934,198.308111 258.715096,198.845735 260.645582,200.175138 C262.613332,201.530203 270.591882,205.795654 268.362595,204.961513 C195.016084,177.517175 243.845521,199.408792 262.198005,205.768934 C269.360277,208.251054 238.427503,200.853329 230.9163,200.821687 C228.299219,200.810663 241.520554,205.083695 244.046357,205.768934 C247.913668,206.818117 265.249646,209.975555 269.866395,212.747084 C265.249646,212.747084 241.221076,207.823543 235.636989,207.726903 C230.954973,207.645875 217.451645,206.79473 221.800485,207.726903 C230.355932,209.560761 252.88506,215.03388 261.154365,215.682453 C262.921311,215.821037 240.710374,217.935333 230.092874,220.364385 C239.094178,221.637047 261.185584,219.991297 264.494575,220.364385 C266.362478,220.57499 238.046946,225.936006 234.890727,228.199081 C234.29047,228.629478 252.968031,229.892793 260.126933,225.797512 C263.334169,223.962799 268.854773,224.992455 270.640844,221.679328 C273.157887,217.010265 270.8297,211.072398 270.924128,205.768934 L270.384339,203.559039 Z" id="Path-2" fill="#FFFFFF" transform="translate(246.382220, 205.575756) scale(1, -1) rotate(-191.000000) translate(-246.382220, -205.575756) "></path>
        <path d="M242.806132,265.369469 C241.423891,262.905182 227.257662,252.068844 220.409878,245.283777 C218.683441,243.573151 212.893788,239.004006 213.293962,241.33049 C214.23778,246.817556 241.672361,264.803572 202.115532,242.553824 C199.429869,241.043205 201.433748,246.817556 217.31208,255.421034 C219.422288,256.564424 221.73645,257.102048 223.666936,258.431451 C225.634686,259.786516 233.613236,264.051967 231.383949,263.217826 C158.037438,235.773488 206.866875,257.665106 225.219358,264.025247 C232.381631,266.507367 201.448857,259.109642 193.937654,259.078 C191.320573,259.066976 204.541908,263.340008 207.067711,264.025247 C210.935022,265.074431 228.271,268.231868 232.887749,271.003397 C228.271,271.003397 204.24243,266.079856 198.658343,265.983216 C193.976327,265.902188 180.472999,265.051043 184.821839,265.983216 C193.377285,267.817074 215.906414,273.290193 224.175719,273.938766 C225.942665,274.07735 203.731728,276.191646 193.114228,278.620698 C202.115532,279.89336 224.206938,278.24761 227.515929,278.620698 C229.383832,278.831303 201.0683,284.192319 197.912081,286.455394 C197.311824,286.885791 215.989385,288.149106 223.148287,284.053825 C226.355523,282.219112 229.512882,281.500495 233.662198,279.935642 C240.751458,277.262032 243.251493,272.882828 243.345921,267.579363 L242.806132,265.369469 Z" id="Path-2" fill="#FFFFFF" transform="translate(213.658454, 263.832069) scale(1, -1) rotate(-285.000000) translate(-213.658454, -263.832069) "></path>
        <path d="M220.111522,224.501801 L219.498799,224.211669 L222.309905,179.632103 L222.341191,179.439244 L222.602539,178.451518 C222.830751,177.589023 222.939668,176.700464 222.926394,175.809648 C222.844545,170.316429 218.230774,165.920517 212.612144,166.001092 C211.737523,166.013634 210.868079,166.134685 210.024593,166.361331 C204.511547,167.842695 201.27315,173.416505 202.778696,178.809191 L202.899188,179.24078 L202.934051,179.446963 L205.808996,225.196822 L169.471627,253.98901 L169.30737,254.094808 L168.398471,254.561507 C167.604808,254.969035 166.871601,255.482656 166.218477,256.088592 C162.190988,259.825099 162.011404,266.195238 165.83088,270.316778 C166.425437,270.958356 167.097167,271.52348 167.83,271.998656 C172.619815,275.104422 178.928874,273.781413 181.929014,269.054163 L182.169121,268.675831 L182.299017,268.511959 L213.42376,236.733114 L241.380894,270.778607 L241.489543,270.940992 L241.972033,271.841608 C242.39335,272.628038 242.919689,273.35217 243.536931,273.994619 C247.343158,277.956284 253.715462,278.024666 257.769715,274.133841 C258.400819,273.528177 258.954133,272.846687 259.416448,272.105673 C262.438146,267.262384 261.005231,260.977375 256.226341,258.060194 L255.843876,257.826726 L255.677762,257.69971 L221.79841,225.656859 C221.29496,225.180699 220.727125,224.793297 220.111522,224.501801 Z" id="Combined-Shape-Copy-2" stroke="#6C11A2" stroke-width="2" fill="#6C11A2" transform="translate(212.039121, 221.504710) rotate(-360.000000) translate(-212.039121, -221.504710) "></path>
        <path d="M620.03328,224.501801 L619.420558,224.211669 L622.231664,179.632103 L622.26295,179.439244 L622.524297,178.451518 C622.752509,177.589023 622.861426,176.700464 622.848153,175.809648 C622.766303,170.316429 618.152532,165.920517 612.533903,166.001092 C611.659281,166.013634 610.789837,166.134685 609.946351,166.361331 C604.433306,167.842695 601.194908,173.416505 602.700454,178.809191 L602.820947,179.24078 L602.85581,179.446963 L605.730755,225.196822 L569.393385,253.98901 L569.229128,254.094808 L568.320229,254.561507 C567.526567,254.969035 566.793359,255.482656 566.140235,256.088592 C562.112746,259.825099 561.933162,266.195238 565.752638,270.316778 C566.347195,270.958356 567.018925,271.52348 567.751758,271.998656 C572.541573,275.104422 578.850632,273.781413 581.850772,269.054163 L582.09088,268.675831 L582.220776,268.511959 L613.345518,236.733114 L641.302653,270.778607 L641.411301,270.940992 L641.893791,271.841608 C642.315108,272.628038 642.841447,273.35217 643.45869,273.994619 C647.264917,277.956284 653.63722,278.024666 657.691474,274.133841 C658.322577,273.528177 658.875892,272.846687 659.338206,272.105673 C662.359905,267.262384 660.926989,260.977375 656.148099,258.060194 L655.765635,257.826726 L655.599521,257.69971 L621.720168,225.656859 C621.216718,225.180699 620.648883,224.793297 620.03328,224.501801 Z" id="Combined-Shape" stroke="#6C11A2" stroke-width="2" fill="#6C11A2" transform="translate(611.960879, 221.504710) rotate(-360.000000) translate(-611.960879, -221.504710) "></path>
    </g>
</svg>