<svg xmlns="http://www.w3.org/2000/svg" xmlns:xlink="http://www.w3.org/1999/xlink" contentStyleType="text/css" height="730px" preserveAspectRatio="none" style="width:1037px;height:730px;background:#FFFFFF;" version="1.1" viewBox="0 0 1037 730" width="1037px" zoomAndPan="magnify"><title>&#34892;&#20026;&#23450;&#24615;-&#22788;&#32602;&#21644;&#36127;&#25285;</title><defs/><g><text fill="#000000" font-family="sans-serif" font-size="14" font-weight="bold" lengthAdjust="spacing" textLength="134.5996" x="449.9761" y="34.5332">&#34892;&#20026;&#23450;&#24615;-&#22788;&#32602;&#21644;&#36127;&#25285;</text><rect fill="#F1F1F1" height="37.6094" rx="12.5" ry="12.5" style="stroke:#181818;stroke-width:1.5;" width="150.6621" x="10" y="364.6484"/><text fill="#000000" font-family="sans-serif" font-size="14" lengthAdjust="spacing" textLength="130.6621" x="20" y="389.1816">&#34892;&#20026;&#23450;&#24615;-&#22788;&#32602;&#21644;&#36127;&#25285;</text><rect fill="#F1F1F1" height="37.6094" rx="12.5" ry="12.5" style="stroke:#181818;stroke-width:1.5;" width="48" x="210.6621" y="150.1641"/><text fill="#000000" font-family="sans-serif" font-size="14" lengthAdjust="spacing" textLength="28" x="220.6621" y="174.6973">&#29983;&#27963;</text><rect fill="#F1F1F1" height="37.6094" rx="12.5" ry="12.5" style="stroke:#181818;stroke-width:1.5;" width="69.7861" x="308.6621" y="118.7891"/><text fill="#000000" font-family="sans-serif" font-size="14" lengthAdjust="spacing" textLength="49.7861" x="318.6621" y="143.3223">&#30733;&#26641;2&#26869;</text><rect fill="#F1F1F1" height="42.75" rx="12.5" ry="12.5" style="stroke:#181818;stroke-width:1.5;" width="88.4619" x="428.4482" y="58.6094"/><text fill="#000000" font-family="sans-serif" font-size="14" lengthAdjust="spacing" textLength="43.5723" x="438.4482" y="88.2832">&#31181;10&#26869;</text><path d="M495.8268,84.3594 C494.8602,84.3594 494.0768,83.576 494.0768,82.6094 L494.0768,80.276 C494.0768,79.3095 494.8602,78.526 495.8268,78.526 C496.1786,78.5225 499.3268,77.9427 499.3268,75.6094 C499.3268,74.4427 498.1602,73.276 496.4102,73.276 C494.9862,73.276 494.0768,74.4427 494.0768,75.026 C494.0768,75.9926 493.2934,76.776 492.3268,76.776 C491.3602,76.776 490.5768,75.9926 490.5768,75.026 C490.5768,72.1805 493.2485,69.776 496.4102,69.776 C501.0768,69.776 502.8268,73.2655 502.8268,76.1927 C502.8268,78.6106 501.4986,80.4586 499.0859,81.396 C498.5609,81.6008 498.0417,81.7385 497.5768,81.8318 L497.5768,82.6094 C497.5768,83.576 496.7934,84.3594 495.8268,84.3594 " fill="#BE1931" style="stroke:;stroke-width:0;stroke-dasharray:;"/><ellipse cx="495.8268" cy="87.276" fill="#BE1931" rx="1.75" ry="1.75" style="stroke:#BE1931;stroke-width:1.5;"/><rect fill="#F1F1F1" height="37.6094" rx="12.5" ry="12.5" style="stroke:#181818;stroke-width:1.5;" width="104" x="566.9102" y="61.1797"/><text fill="#000000" font-family="sans-serif" font-size="14" lengthAdjust="spacing" textLength="84" x="576.9102" y="85.7129">&#12302;&#34892;&#25919;&#22788;&#32602;&#12303;</text><path d="M516.9102,79.9844 L526.9102,79.9844 C541.9102,79.9844 541.9102,79.9844 556.9102,79.9844 L566.9102,79.9844 " fill="none" style="stroke:#181818;stroke-width:1;"/><path d="M378.4482,137.5938 L388.4482,137.5938 C403.4482,137.5938 403.4482,79.9844 418.4482,79.9844 L428.4482,79.9844 " fill="none" style="stroke:#181818;stroke-width:1;"/><rect fill="#F1F1F1" height="42.75" rx="12.5" ry="12.5" style="stroke:#181818;stroke-width:1.5;" width="80.6758" x="428.4482" y="147.5938"/><text fill="#000000" font-family="sans-serif" font-size="14" lengthAdjust="spacing" textLength="35.7861" x="438.4482" y="177.2676">&#31181;2&#26869;</text><path d="M488.0407,173.3438 C487.0741,173.3438 486.2907,172.5603 486.2907,171.5938 L486.2907,169.2604 C486.2907,168.2938 487.0741,167.5104 488.0407,167.5104 C488.3924,167.5069 491.5407,166.9271 491.5407,164.5938 C491.5407,163.4271 490.374,162.2604 488.624,162.2604 C487.2001,162.2604 486.2907,163.4271 486.2907,164.0104 C486.2907,164.977 485.5073,165.7604 484.5407,165.7604 C483.5741,165.7604 482.7907,164.977 482.7907,164.0104 C482.7907,161.1649 485.4624,158.7604 488.624,158.7604 C493.2907,158.7604 495.0407,162.2499 495.0407,165.1771 C495.0407,167.595 493.7124,169.443 491.2998,170.3804 C490.7748,170.5852 490.2556,170.7228 489.7907,170.8162 L489.7907,171.5938 C489.7907,172.5603 489.0073,173.3438 488.0407,173.3438 " fill="#BE1931" style="stroke:;stroke-width:0;stroke-dasharray:;"/><ellipse cx="488.0407" cy="176.2604" fill="#BE1931" rx="1.75" ry="1.75" style="stroke:#BE1931;stroke-width:1.5;"/><rect fill="#F1F1F1" height="37.6094" rx="12.5" ry="12.5" style="stroke:#181818;stroke-width:1.5;" width="104" x="559.124" y="121.3594"/><text fill="#000000" font-family="sans-serif" font-size="14" lengthAdjust="spacing" textLength="84" x="569.124" y="145.8926">&#12302;&#34892;&#25919;&#21629;&#20196;&#12303;</text><path d="M509.124,168.9688 L519.124,168.9688 C534.124,168.9688 534.124,140.1641 549.124,140.1641 L559.124,140.1641 " fill="none" style="stroke:#181818;stroke-width:1;"/><rect fill="#F1F1F1" height="37.6094" rx="12.5" ry="12.5" style="stroke:#181818;stroke-width:1.5;" width="202" x="559.124" y="178.9688"/><text fill="#000000" font-family="sans-serif" font-size="14" lengthAdjust="spacing" textLength="182" x="569.124" y="203.502">&#12302;&#21046;&#27490;&#36829;&#27861;&#12303;&#30340;&#12302;&#24378;&#21046;&#25514;&#26045;&#12303;</text><path d="M509.124,168.9688 L519.124,168.9688 C534.124,168.9688 534.124,197.7734 549.124,197.7734 L559.124,197.7734 " fill="none" style="stroke:#181818;stroke-width:1;"/><path d="M378.4482,137.5938 L388.4482,137.5938 C403.4482,137.5938 403.4482,168.9688 418.4482,168.9688 L428.4482,168.9688 " fill="none" style="stroke:#181818;stroke-width:1;"/><path d="M258.6621,168.9688 L268.6621,168.9688 C283.6621,168.9688 283.6621,137.5938 298.6621,137.5938 L308.6621,137.5938 " fill="none" style="stroke:#181818;stroke-width:1;"/><rect fill="#F1F1F1" height="37.6094" rx="12.5" ry="12.5" style="stroke:#181818;stroke-width:1.5;" width="90" x="308.6621" y="239.1484"/><text fill="#000000" font-family="sans-serif" font-size="14" lengthAdjust="spacing" textLength="70" x="318.6621" y="263.6816">&#27745;&#27877;&#22534;&#24191;&#22330;</text><rect fill="#F1F1F1" height="42.75" rx="12.5" ry="12.5" style="stroke:#181818;stroke-width:1.5;" width="100.8896" x="448.6621" y="236.5781"/><text fill="#000000" font-family="sans-serif" font-size="14" lengthAdjust="spacing" textLength="56" x="458.6621" y="266.252">&#36131;&#20196;&#28165;&#29702;</text><path d="M528.4684,262.3281 C527.5018,262.3281 526.7184,261.5447 526.7184,260.5781 L526.7184,258.2448 C526.7184,257.2782 527.5018,256.4948 528.4684,256.4948 C528.8202,256.4913 531.9684,255.9115 531.9684,253.5781 C531.9684,252.4115 530.8018,251.2448 529.0518,251.2448 C527.6278,251.2448 526.7184,252.4115 526.7184,252.9948 C526.7184,253.9614 525.935,254.7448 524.9684,254.7448 C524.0018,254.7448 523.2184,253.9614 523.2184,252.9948 C523.2184,250.1493 525.8901,247.7448 529.0518,247.7448 C533.7184,247.7448 535.4684,251.2343 535.4684,254.1615 C535.4684,256.5794 534.1402,258.4274 531.7275,259.3648 C531.2025,259.5695 530.6833,259.7072 530.2184,259.8005 L530.2184,260.5781 C530.2184,261.5447 529.435,262.3281 528.4684,262.3281 " fill="#BE1931" style="stroke:;stroke-width:0;stroke-dasharray:;"/><ellipse cx="528.4684" cy="265.2448" fill="#BE1931" rx="1.75" ry="1.75" style="stroke:#BE1931;stroke-width:1.5;"/><rect fill="#F1F1F1" height="37.6094" rx="12.5" ry="12.5" style="stroke:#181818;stroke-width:1.5;" width="76" x="599.5518" y="239.1484"/><text fill="#000000" font-family="sans-serif" font-size="14" lengthAdjust="spacing" textLength="56" x="609.5518" y="263.6816">&#19981;&#26159;&#22788;&#32602;</text><path d="M549.5518,257.9531 L559.5518,257.9531 C574.5518,257.9531 574.5518,257.9531 589.5518,257.9531 L599.5518,257.9531 " fill="none" style="stroke:#181818;stroke-width:1;"/><path d="M398.6621,257.9531 L408.6621,257.9531 C423.6621,257.9531 423.6621,257.9531 438.6621,257.9531 L448.6621,257.9531 " fill="none" style="stroke:#181818;stroke-width:1;"/><path d="M258.6621,168.9688 L268.6621,168.9688 C283.6621,168.9688 283.6621,257.9531 298.6621,257.9531 L308.6621,257.9531 " fill="none" style="stroke:#181818;stroke-width:1;"/><path d="M160.6621,383.4531 L170.6621,383.4531 C185.6621,383.4531 185.6621,168.9688 200.6621,168.9688 L210.6621,168.9688 " fill="none" style="stroke:#181818;stroke-width:1;"/><rect fill="#F1F1F1" height="37.6094" rx="12.5" ry="12.5" style="stroke:#181818;stroke-width:1.5;" width="62" x="210.6621" y="422.2578"/><text fill="#000000" font-family="sans-serif" font-size="14" lengthAdjust="spacing" textLength="42" x="220.6621" y="446.791">&#35768;&#21487;&#35777;</text><rect fill="#F1F1F1" height="37.6094" rx="12.5" ry="12.5" style="stroke:#181818;stroke-width:1.5;" width="76" x="322.6621" y="333.2734"/><text fill="#000000" font-family="sans-serif" font-size="14" lengthAdjust="spacing" textLength="56" x="332.6621" y="357.8066">&#23384;&#22312;&#38382;&#39064;</text><rect fill="#F1F1F1" height="42.75" rx="12.5" ry="12.5" style="stroke:#181818;stroke-width:1.5;" width="72.8896" x="448.6621" y="299.3281"/><text fill="#000000" font-family="sans-serif" font-size="14" lengthAdjust="spacing" textLength="28" x="458.6621" y="329.002">&#25764;&#38144;</text><path d="M500.4684,325.0781 C499.5018,325.0781 498.7184,324.2947 498.7184,323.3281 L498.7184,320.9948 C498.7184,320.0282 499.5018,319.2448 500.4684,319.2448 C500.8202,319.2413 503.9684,318.6615 503.9684,316.3281 C503.9684,315.1615 502.8018,313.9948 501.0518,313.9948 C499.6278,313.9948 498.7184,315.1615 498.7184,315.7448 C498.7184,316.7114 497.935,317.4948 496.9684,317.4948 C496.0018,317.4948 495.2184,316.7114 495.2184,315.7448 C495.2184,312.8993 497.8901,310.4948 501.0518,310.4948 C505.7184,310.4948 507.4684,313.9843 507.4684,316.9115 C507.4684,319.3294 506.1402,321.1774 503.7275,322.1148 C503.2025,322.3195 502.6833,322.4572 502.2184,322.5505 L502.2184,323.3281 C502.2184,324.2947 501.435,325.0781 500.4684,325.0781 " fill="#BE1931" style="stroke:;stroke-width:0;stroke-dasharray:;"/><ellipse cx="500.4684" cy="327.9948" fill="#BE1931" rx="1.75" ry="1.75" style="stroke:#BE1931;stroke-width:1.5;"/><rect fill="#F1F1F1" height="37.6094" rx="12.5" ry="12.5" style="stroke:#181818;stroke-width:1.5;" width="202" x="571.5518" y="301.8984"/><text fill="#000000" font-family="sans-serif" font-size="14" lengthAdjust="spacing" textLength="182" x="581.5518" y="326.4316">&#12302;&#35768;&#21487;&#35777;&#12303;&#26412;&#26469;&#23601;&#26377;&#12302;&#38382;&#39064;&#12303;</text><rect fill="#F1F1F1" height="37.6094" rx="12.5" ry="12.5" style="stroke:#181818;stroke-width:1.5;" width="202" x="823.5518" y="301.8984"/><text fill="#000000" font-family="sans-serif" font-size="14" lengthAdjust="spacing" textLength="182" x="833.5518" y="326.4316">&#12302;&#29420;&#31435;&#12303;&#30340;&#12302;&#20855;&#20307;&#34892;&#25919;&#34892;&#20026;&#12303;</text><path d="M773.5518,320.7031 L783.5518,320.7031 C798.5518,320.7031 798.5518,320.7031 813.5518,320.7031 L823.5518,320.7031 " fill="none" style="stroke:#181818;stroke-width:1;"/><path d="M521.5518,320.7031 L531.5518,320.7031 C546.5518,320.7031 546.5518,320.7031 561.5518,320.7031 L571.5518,320.7031 " fill="none" style="stroke:#181818;stroke-width:1;"/><path d="M398.6621,352.0781 L408.6621,352.0781 C423.6621,352.0781 423.6621,320.7031 438.6621,320.7031 L448.6621,320.7031 " fill="none" style="stroke:#181818;stroke-width:1;"/><rect fill="#F1F1F1" height="42.75" rx="12.5" ry="12.5" style="stroke:#181818;stroke-width:1.5;" width="72.8896" x="448.6621" y="362.0781"/><text fill="#000000" font-family="sans-serif" font-size="14" lengthAdjust="spacing" textLength="28" x="458.6621" y="391.752">&#21514;&#38144;</text><path d="M500.4684,387.8281 C499.5018,387.8281 498.7184,387.0447 498.7184,386.0781 L498.7184,383.7448 C498.7184,382.7782 499.5018,381.9948 500.4684,381.9948 C500.8202,381.9913 503.9684,381.4115 503.9684,379.0781 C503.9684,377.9115 502.8018,376.7448 501.0518,376.7448 C499.6278,376.7448 498.7184,377.9115 498.7184,378.4948 C498.7184,379.4614 497.935,380.2448 496.9684,380.2448 C496.0018,380.2448 495.2184,379.4614 495.2184,378.4948 C495.2184,375.6493 497.8901,373.2448 501.0518,373.2448 C505.7184,373.2448 507.4684,376.7343 507.4684,379.6615 C507.4684,382.0794 506.1402,383.9274 503.7275,384.8648 C503.2025,385.0695 502.6833,385.2072 502.2184,385.3005 L502.2184,386.0781 C502.2184,387.0447 501.435,387.8281 500.4684,387.8281 " fill="#BE1931" style="stroke:;stroke-width:0;stroke-dasharray:;"/><ellipse cx="500.4684" cy="390.7448" fill="#BE1931" rx="1.75" ry="1.75" style="stroke:#BE1931;stroke-width:1.5;"/><rect fill="#F1F1F1" height="37.6094" rx="12.5" ry="12.5" style="stroke:#181818;stroke-width:1.5;" width="230" x="571.5518" y="364.6484"/><text fill="#000000" font-family="sans-serif" font-size="14" lengthAdjust="spacing" textLength="210" x="581.5518" y="389.1816">&#12302;&#35768;&#21487;&#35777;&#12303;&#26159;&#12302;&#21512;&#27861;&#12303;&#30340;&#65292;&#34987;&#25343;&#36208;</text><rect fill="#F1F1F1" height="37.6094" rx="12.5" ry="12.5" style="stroke:#181818;stroke-width:1.5;" width="90" x="851.5518" y="364.6484"/><text fill="#000000" font-family="sans-serif" font-size="14" lengthAdjust="spacing" textLength="70" x="861.5518" y="389.1816">&#26159;&#12302;&#22788;&#32602;&#12303;</text><path d="M801.5518,383.4531 L811.5518,383.4531 C826.5518,383.4531 826.5518,383.4531 841.5518,383.4531 L851.5518,383.4531 " fill="none" style="stroke:#181818;stroke-width:1;"/><path d="M521.5518,383.4531 L531.5518,383.4531 C546.5518,383.4531 546.5518,383.4531 561.5518,383.4531 L571.5518,383.4531 " fill="none" style="stroke:#181818;stroke-width:1;"/><path d="M398.6621,352.0781 L408.6621,352.0781 C423.6621,352.0781 423.6621,383.4531 438.6621,383.4531 L448.6621,383.4531 " fill="none" style="stroke:#181818;stroke-width:1;"/><path d="M272.6621,441.0625 L282.6621,441.0625 C297.6621,441.0625 297.6621,352.0781 312.6621,352.0781 L322.6621,352.0781 " fill="none" style="stroke:#181818;stroke-width:1;"/><rect fill="#F1F1F1" height="37.6094" rx="12.5" ry="12.5" style="stroke:#181818;stroke-width:1.5;" width="76" x="322.6621" y="485.0078"/><text fill="#000000" font-family="sans-serif" font-size="14" lengthAdjust="spacing" textLength="56" x="332.6621" y="509.541">&#26102;&#38388;&#38382;&#39064;</text><rect fill="#F1F1F1" height="37.6094" rx="12.5" ry="12.5" style="stroke:#181818;stroke-width:1.5;" width="62" x="448.6621" y="427.3984"/><text fill="#000000" font-family="sans-serif" font-size="14" lengthAdjust="spacing" textLength="42" x="458.6621" y="451.9316">&#26399;&#38480;&#20869;</text><rect fill="#F1F1F1" height="42.75" rx="12.5" ry="12.5" style="stroke:#181818;stroke-width:1.5;" width="228.4619" x="560.6621" y="424.8281"/><text fill="#000000" font-family="sans-serif" font-size="14" lengthAdjust="spacing" textLength="183.5723" x="570.6621" y="454.502">&#37319;5&#24180;&#65292;&#21482;&#37319;&#20102;2&#24180;&#65292;&#19981;&#35753;&#37319;&#20102;</text><path d="M768.0407,450.5781 C767.0741,450.5781 766.2907,449.7947 766.2907,448.8281 L766.2907,446.4948 C766.2907,445.5282 767.0741,444.7448 768.0407,444.7448 C768.3924,444.7413 771.5407,444.1615 771.5407,441.8281 C771.5407,440.6615 770.374,439.4948 768.624,439.4948 C767.2001,439.4948 766.2907,440.6615 766.2907,441.2448 C766.2907,442.2114 765.5073,442.9948 764.5407,442.9948 C763.5741,442.9948 762.7907,442.2114 762.7907,441.2448 C762.7907,438.3993 765.4624,435.9948 768.624,435.9948 C773.2907,435.9948 775.0407,439.4843 775.0407,442.4115 C775.0407,444.8294 773.7124,446.6774 771.2998,447.6148 C770.7748,447.8195 770.2556,447.9572 769.7907,448.0505 L769.7907,448.8281 C769.7907,449.7947 769.0073,450.5781 768.0407,450.5781 " fill="#BE1931" style="stroke:;stroke-width:0;stroke-dasharray:;"/><ellipse cx="768.0407" cy="453.4948" fill="#BE1931" rx="1.75" ry="1.75" style="stroke:#BE1931;stroke-width:1.5;"/><rect fill="#F1F1F1" height="37.6094" rx="12.5" ry="12.5" style="stroke:#181818;stroke-width:1.5;" width="90" x="839.124" y="427.3984"/><text fill="#000000" font-family="sans-serif" font-size="14" lengthAdjust="spacing" textLength="70" x="849.124" y="451.9316">&#26159;&#12302;&#22788;&#32602;&#12303;</text><path d="M789.124,446.2031 L799.124,446.2031 C814.124,446.2031 814.124,446.2031 829.124,446.2031 L839.124,446.2031 " fill="none" style="stroke:#181818;stroke-width:1;"/><path d="M510.6621,446.2031 L520.6621,446.2031 C535.6621,446.2031 535.6621,446.2031 550.6621,446.2031 L560.6621,446.2031 " fill="none" style="stroke:#181818;stroke-width:1;"/><path d="M398.6621,503.8125 L408.6621,503.8125 C423.6621,503.8125 423.6621,446.2031 438.6621,446.2031 L448.6621,446.2031 " fill="none" style="stroke:#181818;stroke-width:1;"/><rect fill="#F1F1F1" height="37.6094" rx="12.5" ry="12.5" style="stroke:#181818;stroke-width:1.5;" width="48" x="448.6621" y="516.3828"/><text fill="#000000" font-family="sans-serif" font-size="14" lengthAdjust="spacing" textLength="28" x="458.6621" y="540.916">&#36229;&#26399;</text><rect fill="#F1F1F1" height="42.75" rx="12.5" ry="12.5" style="stroke:#181818;stroke-width:1.5;" width="128.8896" x="546.6621" y="513.8125"/><text fill="#000000" font-family="sans-serif" font-size="14" lengthAdjust="spacing" textLength="84" x="556.6621" y="543.4863">&#36131;&#20196;&#20572;&#27490;&#37319;&#30719;</text><path d="M654.4684,539.5625 C653.5018,539.5625 652.7184,538.7791 652.7184,537.8125 L652.7184,535.4792 C652.7184,534.5126 653.5018,533.7292 654.4684,533.7292 C654.8202,533.7257 657.9684,533.1458 657.9684,530.8125 C657.9684,529.6458 656.8018,528.4792 655.0518,528.4792 C653.6278,528.4792 652.7184,529.6458 652.7184,530.2292 C652.7184,531.1958 651.935,531.9792 650.9684,531.9792 C650.0018,531.9792 649.2184,531.1958 649.2184,530.2292 C649.2184,527.3837 651.8901,524.9792 655.0518,524.9792 C659.7184,524.9792 661.4684,528.4687 661.4684,531.3958 C661.4684,533.8138 660.1402,535.6618 657.7275,536.5992 C657.2025,536.8039 656.6833,536.9416 656.2184,537.0349 L656.2184,537.8125 C656.2184,538.7791 655.435,539.5625 654.4684,539.5625 " fill="#BE1931" style="stroke:;stroke-width:0;stroke-dasharray:;"/><ellipse cx="654.4684" cy="542.4792" fill="#BE1931" rx="1.75" ry="1.75" style="stroke:#BE1931;stroke-width:1.5;"/><rect fill="#F1F1F1" height="37.6094" rx="12.5" ry="12.5" style="stroke:#181818;stroke-width:1.5;" width="104" x="725.5518" y="487.5781"/><text fill="#000000" font-family="sans-serif" font-size="14" lengthAdjust="spacing" textLength="84" x="735.5518" y="512.1113">&#19981;&#26159;&#12302;&#22788;&#32602;&#12303;</text><path d="M675.5518,535.1875 L685.5518,535.1875 C700.5518,535.1875 700.5518,506.3828 715.5518,506.3828 L725.5518,506.3828 " fill="none" style="stroke:#181818;stroke-width:1;"/><rect fill="#F1F1F1" height="37.6094" rx="12.5" ry="12.5" style="stroke:#181818;stroke-width:1.5;" width="216" x="725.5518" y="545.1875"/><text fill="#000000" font-family="sans-serif" font-size="14" lengthAdjust="spacing" textLength="196" x="735.5518" y="569.7207">&#26159;&#12302;&#21046;&#27490;&#36829;&#27861;&#12303;&#30340;&#12302;&#24378;&#21046;&#25514;&#26045;&#12303;</text><path d="M675.5518,535.1875 L685.5518,535.1875 C700.5518,535.1875 700.5518,563.9922 715.5518,563.9922 L725.5518,563.9922 " fill="none" style="stroke:#181818;stroke-width:1;"/><path d="M496.6621,535.1875 L506.6621,535.1875 C521.6621,535.1875 521.6621,535.1875 536.6621,535.1875 L546.6621,535.1875 " fill="none" style="stroke:#181818;stroke-width:1;"/><path d="M398.6621,503.8125 L408.6621,503.8125 C423.6621,503.8125 423.6621,535.1875 438.6621,535.1875 L448.6621,535.1875 " fill="none" style="stroke:#181818;stroke-width:1;"/><path d="M272.6621,441.0625 L282.6621,441.0625 C297.6621,441.0625 297.6621,503.8125 312.6621,503.8125 L322.6621,503.8125 " fill="none" style="stroke:#181818;stroke-width:1;"/><path d="M160.6621,383.4531 L170.6621,383.4531 C185.6621,383.4531 185.6621,441.0625 200.6621,441.0625 L210.6621,441.0625 " fill="none" style="stroke:#181818;stroke-width:1;"/><rect fill="#F1F1F1" height="37.6094" rx="12.5" ry="12.5" style="stroke:#181818;stroke-width:1.5;" width="62" x="210.6621" y="636.7422"/><text fill="#000000" font-family="sans-serif" font-size="14" lengthAdjust="spacing" textLength="42" x="220.6621" y="661.2754">&#25307;&#25237;&#26631;</text><rect fill="#F1F1F1" height="37.6094" rx="12.5" ry="12.5" style="stroke:#181818;stroke-width:1.5;" width="146" x="322.6621" y="636.7422"/><text fill="#000000" font-family="sans-serif" font-size="14" lengthAdjust="spacing" textLength="126" x="332.6621" y="661.2754">&#20266;&#36896;&#36164;&#26009;&#65292;&#33719;&#24471;&#25237;&#26631;</text><rect fill="#F1F1F1" height="42.75" rx="12.5" ry="12.5" style="stroke:#181818;stroke-width:1.5;" width="128.8896" x="518.6621" y="602.7969"/><text fill="#000000" font-family="sans-serif" font-size="14" lengthAdjust="spacing" textLength="84" x="528.6621" y="632.4707">&#25764;&#38144;&#25237;&#26631;&#32467;&#26524;</text><path d="M626.4684,628.5469 C625.5018,628.5469 624.7184,627.7635 624.7184,626.7969 L624.7184,624.4635 C624.7184,623.497 625.5018,622.7135 626.4684,622.7135 C626.8202,622.71 629.9684,622.1302 629.9684,619.7969 C629.9684,618.6302 628.8018,617.4635 627.0518,617.4635 C625.6278,617.4635 624.7184,618.6302 624.7184,619.2135 C624.7184,620.1801 623.935,620.9635 622.9684,620.9635 C622.0018,620.9635 621.2184,620.1801 621.2184,619.2135 C621.2184,616.368 623.8901,613.9635 627.0518,613.9635 C631.7184,613.9635 633.4684,617.453 633.4684,620.3802 C633.4684,622.7981 632.1402,624.6461 629.7275,625.5835 C629.2025,625.7883 628.6833,625.926 628.2184,626.0193 L628.2184,626.7969 C628.2184,627.7635 627.435,628.5469 626.4684,628.5469 " fill="#BE1931" style="stroke:;stroke-width:0;stroke-dasharray:;"/><ellipse cx="626.4684" cy="631.4635" fill="#BE1931" rx="1.75" ry="1.75" style="stroke:#BE1931;stroke-width:1.5;"/><rect fill="#F1F1F1" height="37.6094" rx="12.5" ry="12.5" style="stroke:#181818;stroke-width:1.5;" width="104" x="697.5518" y="605.3672"/><text fill="#000000" font-family="sans-serif" font-size="14" lengthAdjust="spacing" textLength="84" x="707.5518" y="629.9004">&#19981;&#26159;&#12302;&#22788;&#32602;&#12303;</text><path d="M647.5518,624.1719 L657.5518,624.1719 C672.5518,624.1719 672.5518,624.1719 687.5518,624.1719 L697.5518,624.1719 " fill="none" style="stroke:#181818;stroke-width:1;"/><path d="M468.6621,655.5469 L478.6621,655.5469 C493.6621,655.5469 493.6621,624.1719 508.6621,624.1719 L518.6621,624.1719 " fill="none" style="stroke:#181818;stroke-width:1;"/><rect fill="#F1F1F1" height="42.75" rx="12.5" ry="12.5" style="stroke:#181818;stroke-width:1.5;" width="142.8896" x="518.6621" y="665.5469"/><text fill="#000000" font-family="sans-serif" font-size="14" lengthAdjust="spacing" textLength="98" x="528.6621" y="695.2207">&#19977;&#24180;&#20869;&#31105;&#27490;&#25237;&#26631;</text><path d="M640.4684,691.2969 C639.5018,691.2969 638.7184,690.5135 638.7184,689.5469 L638.7184,687.2135 C638.7184,686.247 639.5018,685.4635 640.4684,685.4635 C640.8202,685.46 643.9684,684.8802 643.9684,682.5469 C643.9684,681.3802 642.8018,680.2135 641.0518,680.2135 C639.6278,680.2135 638.7184,681.3802 638.7184,681.9635 C638.7184,682.9301 637.935,683.7135 636.9684,683.7135 C636.0018,683.7135 635.2184,682.9301 635.2184,681.9635 C635.2184,679.118 637.8901,676.7135 641.0518,676.7135 C645.7184,676.7135 647.4684,680.203 647.4684,683.1302 C647.4684,685.5481 646.1402,687.3961 643.7275,688.3335 C643.2025,688.5383 642.6833,688.676 642.2184,688.7693 L642.2184,689.5469 C642.2184,690.5135 641.435,691.2969 640.4684,691.2969 " fill="#BE1931" style="stroke:;stroke-width:0;stroke-dasharray:;"/><ellipse cx="640.4684" cy="694.2135" fill="#BE1931" rx="1.75" ry="1.75" style="stroke:#BE1931;stroke-width:1.5;"/><rect fill="#F1F1F1" height="37.6094" rx="12.5" ry="12.5" style="stroke:#181818;stroke-width:1.5;" width="90" x="711.5518" y="668.1172"/><text fill="#000000" font-family="sans-serif" font-size="14" lengthAdjust="spacing" textLength="70" x="721.5518" y="692.6504">&#26159;&#12302;&#22788;&#32602;&#12303;</text><path d="M661.5518,686.9219 L671.5518,686.9219 C686.5518,686.9219 686.5518,686.9219 701.5518,686.9219 L711.5518,686.9219 " fill="none" style="stroke:#181818;stroke-width:1;"/><path d="M468.6621,655.5469 L478.6621,655.5469 C493.6621,655.5469 493.6621,686.9219 508.6621,686.9219 L518.6621,686.9219 " fill="none" style="stroke:#181818;stroke-width:1;"/><path d="M272.6621,655.5469 L282.6621,655.5469 C297.6621,655.5469 297.6621,655.5469 312.6621,655.5469 L322.6621,655.5469 " fill="none" style="stroke:#181818;stroke-width:1;"/><path d="M160.6621,383.4531 L170.6621,383.4531 C185.6621,383.4531 185.6621,655.5469 200.6621,655.5469 L210.6621,655.5469 " fill="none" style="stroke:#181818;stroke-width:1;"/><!--SRC=[xLXRJnj757xVNp5LNm391boA8Wj510VKHXX5DSdxU3sn9wnttDrPHqvK2IGkIRWc8O5Gfn12cfOaa2X028JoO-9Tsq_z2psxQvkrORrBdq4MOixvvZjdpcqOzweSApnDvKGQPmJXEogBafOWA1XiXu_ASn9fpqXOvbfQ2fYm0E02bZn8GIO8d7A9eDBBcSB-WRwrOeo-2UWRuyMZ5VtnJ6bdrPYU48Isvde4FssekBXgx1nQYufWRTPOUnGoNktMX1N5czdE3X2Zdl2l6b4vPNBuSXt6ndqRdGExnkAnRV3RwFnfej2vU1uT5Gut6dbg8Ft-dl5-lNJymlZq5435bN5J-FN0bCzj6i-Ed3lRaF7nfV7fjRusgNyvrlC73RwLTbw1BMD_ehWmwULWON_MMDwsJrc9PcbhNv_VBcsFEGpgxvVr_5_bfQto-dA3DUFnHdbnr4yWghnm5YF_pdZnMl_mqSW_09LDV5PqQhkBq- -ARwTFOZFnkN3qn8wjNI6dSwGlFFmVdYrlc_GBzskP-FVhJ6dzhJ5zNDhzuE9VPTEfMW7DqbvvQUVimELNoyyNzCc9CvmgJqtzg7_P0TFw_2Oi2WUJ8NiD2Ijj_MsBcX-jkMkLNEzDW1jdE63Na3wMXx84OyNLOp_6x6fojNVAAxzL3nkcVpSUFZNMfXonBNpTB8-kbNR7ZMVFpIJDVTR_MMf0EMlKLXKFdnX_vFtrHPF85VOVG48WUyK_n-0GDhSNQoEbq4jWV5P7Q6_zHEsnPkLbeIAuId5ImMbq3tY3SKaZrby8zM5n9AamJKv4cCGK9D5aYfjwqFvcOXDO6L58mWLUqLR1IOKGkHcp1N2WSnxWN1NB52mdtPosbLLeHbCoaXlKLbQXxWTp74fXgXlRzmC3VNsHI1MP8vB4xhXWRQK55O9fJENX54bNYGUOp6FqBa4_T0YcdgGpAQnIrJkMJdI72rmToLafTM93pMFfXFQ1I4n10VfoXYPbfX0VUKLeaCgaKNv2uTDiKogJJ9QPI6Jk5XlPIegT0biKbm3Jm0hDO_icAhIMjHCrPsdCcUsypC4Qz32M8kV5NbT81YlOb9ndsvKuKxXNsVdbuXpophqwpITRXAMXtRXRELHskj6PwPD94Z8AfCvWDfjQNfbC499nDaIzWNwOed69gYdtaUVONs_jJehonjYuc1bYtDkITIenXsKVfn9nWl2QCIoADE5UytMZs8lv5hIYwkXlM8iaYcyJpQFBcGGkA2pXg42F7glkiEnac4evpP8hegCTJerpB16_1pav0kG2UrAdAToWvkptKrELQz0aLxNuRIAQz6xHmLcujudYapTB6NIGHSsycCsu-mxtoQIlRzpclLfNovvtY02_Ujeh_ufSFDakdcmNJxQB9zl5awtoHhjkVi5r8pg8iaHHpPkeCnZg27K5BxN4C4T3B8iwkr57PxYhAzpLZIAnOMIgMuMMwC_3I6KQNCGe0TUKGkEQwKAhS0rdCVf5WqcU9c5ahbg6ewqerbyLeduvInKcfs5w2zTkHcqG-ednM8Pn2zpT5UYZ7CM80cwXcr7XAhc5DOd3Lf4bg9mCenl30u5BmY1CUGqdmT3Tb121yS-LN1X5Xlu3]--></g></svg>