<svg xmlns="http://www.w3.org/2000/svg" xmlns:xlink="http://www.w3.org/1999/xlink" contentStyleType="text/css" height="992px" preserveAspectRatio="none" style="width:897px;height:992px;background:#FFFFFF;" version="1.1" viewBox="0 0 897 992" width="897px" zoomAndPan="magnify"><title>&#34892;&#20026;&#23450;&#24615;-&#35768;&#21487;&#21644;&#30830;&#35748;</title><defs/><g><text fill="#000000" font-family="sans-serif" font-size="14" font-weight="bold" lengthAdjust="spacing" textLength="134.5996" x="379.9761" y="34.5332">&#34892;&#20026;&#23450;&#24615;-&#35768;&#21487;&#21644;&#30830;&#35748;</text><rect fill="#F1F1F1" height="37.6094" rx="12.5" ry="12.5" style="stroke:#181818;stroke-width:1.5;" width="150.6621" x="10" y="495.8203"/><text fill="#000000" font-family="sans-serif" font-size="14" lengthAdjust="spacing" textLength="130.6621" x="20" y="520.3535">&#34892;&#20026;&#23450;&#24615;-&#35768;&#21487;&#21644;&#30830;&#35748;</text><rect fill="#F1F1F1" height="37.6094" rx="12.5" ry="12.5" style="stroke:#181818;stroke-width:1.5;" width="48" x="210.6621" y="87.4141"/><text fill="#000000" font-family="sans-serif" font-size="14" lengthAdjust="spacing" textLength="28" x="220.6621" y="111.9473">&#21306;&#20998;</text><rect fill="#F1F1F1" height="37.6094" rx="12.5" ry="12.5" style="stroke:#181818;stroke-width:1.5;" width="48" x="308.6621" y="58.6094"/><text fill="#000000" font-family="sans-serif" font-size="14" lengthAdjust="spacing" textLength="28" x="318.6621" y="83.1426">&#35768;&#21487;</text><rect fill="#F1F1F1" height="37.6094" rx="12.5" ry="12.5" style="stroke:#181818;stroke-width:1.5;" width="132" x="406.6621" y="58.6094"/><text fill="#000000" font-family="sans-serif" font-size="14" lengthAdjust="spacing" textLength="112" x="416.6621" y="83.1426">&#21487;&#20197;&#20174;&#20107;&#26576;&#20010;&#27963;&#21160;</text><path d="M356.6621,77.4141 L366.6621,77.4141 C381.6621,77.4141 381.6621,77.4141 396.6621,77.4141 L406.6621,77.4141 " fill="none" style="stroke:#181818;stroke-width:1;"/><path d="M258.6621,106.2188 L268.6621,106.2188 C283.6621,106.2188 283.6621,77.4141 298.6621,77.4141 L308.6621,77.4141 " fill="none" style="stroke:#181818;stroke-width:1;"/><rect fill="#F1F1F1" height="37.6094" rx="12.5" ry="12.5" style="stroke:#181818;stroke-width:1.5;" width="48" x="308.6621" y="116.2188"/><text fill="#000000" font-family="sans-serif" font-size="14" lengthAdjust="spacing" textLength="28" x="318.6621" y="140.752">&#30830;&#35748;</text><rect fill="#F1F1F1" height="37.6094" rx="12.5" ry="12.5" style="stroke:#181818;stroke-width:1.5;" width="118" x="406.6621" y="116.2188"/><text fill="#000000" font-family="sans-serif" font-size="14" lengthAdjust="spacing" textLength="98" x="416.6621" y="140.752">&#26082;&#23384;&#20107;&#23454;&#30340;&#21152;&#24378;</text><path d="M356.6621,135.0234 L366.6621,135.0234 C381.6621,135.0234 381.6621,135.0234 396.6621,135.0234 L406.6621,135.0234 " fill="none" style="stroke:#181818;stroke-width:1;"/><path d="M258.6621,106.2188 L268.6621,106.2188 C283.6621,106.2188 283.6621,135.0234 298.6621,135.0234 L308.6621,135.0234 " fill="none" style="stroke:#181818;stroke-width:1;"/><path d="M160.6621,514.625 L170.6621,514.625 C185.6621,514.625 185.6621,106.2188 200.6621,106.2188 L210.6621,106.2188 " fill="none" style="stroke:#181818;stroke-width:1;"/><rect fill="#F1F1F1" height="37.6094" rx="12.5" ry="12.5" style="stroke:#181818;stroke-width:1.5;" width="76" x="210.6621" y="317.8516"/><text fill="#000000" font-family="sans-serif" font-size="14" lengthAdjust="spacing" textLength="56" x="220.6621" y="342.3848">&#24120;&#35265;&#20363;&#23376;</text><rect fill="#F1F1F1" height="37.6094" rx="12.5" ry="12.5" style="stroke:#181818;stroke-width:1.5;" width="48" x="336.6621" y="202.6328"/><text fill="#000000" font-family="sans-serif" font-size="14" lengthAdjust="spacing" textLength="28" x="346.6621" y="227.166">&#35768;&#21487;</text><rect fill="#F1F1F1" height="37.6094" rx="12.5" ry="12.5" style="stroke:#181818;stroke-width:1.5;" width="62" x="434.6621" y="173.8281"/><text fill="#000000" font-family="sans-serif" font-size="14" lengthAdjust="spacing" textLength="42" x="444.6621" y="198.3613">&#39550;&#39542;&#35777;</text><path d="M384.6621,221.4375 L394.6621,221.4375 C409.6621,221.4375 409.6621,192.6328 424.6621,192.6328 L434.6621,192.6328 " fill="none" style="stroke:#181818;stroke-width:1;"/><rect fill="#F1F1F1" height="37.6094" rx="12.5" ry="12.5" style="stroke:#181818;stroke-width:1.5;" width="76" x="434.6621" y="231.4375"/><text fill="#000000" font-family="sans-serif" font-size="14" lengthAdjust="spacing" textLength="56" x="444.6621" y="255.9707">&#34892;&#21307;&#35768;&#21487;</text><path d="M384.6621,221.4375 L394.6621,221.4375 C409.6621,221.4375 409.6621,250.2422 424.6621,250.2422 L434.6621,250.2422 " fill="none" style="stroke:#181818;stroke-width:1;"/><path d="M286.6621,336.6563 L296.6621,336.6563 C311.6621,336.6563 311.6621,221.4375 326.6621,221.4375 L336.6621,221.4375 " fill="none" style="stroke:#181818;stroke-width:1;"/><rect fill="#F1F1F1" height="37.6094" rx="12.5" ry="12.5" style="stroke:#181818;stroke-width:1.5;" width="48" x="336.6621" y="375.4609"/><text fill="#000000" font-family="sans-serif" font-size="14" lengthAdjust="spacing" textLength="28" x="346.6621" y="399.9941">&#30830;&#35748;</text><rect fill="#F1F1F1" height="37.6094" rx="12.5" ry="12.5" style="stroke:#181818;stroke-width:1.5;" width="48" x="434.6621" y="317.8516"/><text fill="#000000" font-family="sans-serif" font-size="14" lengthAdjust="spacing" textLength="28" x="444.6621" y="342.3848">&#20154;&#36523;</text><rect fill="#F1F1F1" height="37.6094" rx="12.5" ry="12.5" style="stroke:#181818;stroke-width:1.5;" width="133.5586" x="532.6621" y="289.0469"/><text fill="#000000" font-family="sans-serif" font-size="14" lengthAdjust="spacing" textLength="113.5586" x="542.6621" y="313.5801">&#20146;&#23376;&#35748;&#23450;&#65288;DNA&#65289;</text><path d="M482.6621,336.6563 L492.6621,336.6563 C507.6621,336.6563 507.6621,307.8516 522.6621,307.8516 L532.6621,307.8516 " fill="none" style="stroke:#181818;stroke-width:1;"/><rect fill="#F1F1F1" height="37.6094" rx="12.5" ry="12.5" style="stroke:#181818;stroke-width:1.5;" width="76" x="532.6621" y="346.6563"/><text fill="#000000" font-family="sans-serif" font-size="14" lengthAdjust="spacing" textLength="56" x="542.6621" y="371.1895">&#24037;&#20260;&#35748;&#23450;</text><path d="M482.6621,336.6563 L492.6621,336.6563 C507.6621,336.6563 507.6621,365.4609 522.6621,365.4609 L532.6621,365.4609 " fill="none" style="stroke:#181818;stroke-width:1;"/><path d="M384.6621,394.2656 L394.6621,394.2656 C409.6621,394.2656 409.6621,336.6563 424.6621,336.6563 L434.6621,336.6563 " fill="none" style="stroke:#181818;stroke-width:1;"/><rect fill="#F1F1F1" height="37.6094" rx="12.5" ry="12.5" style="stroke:#181818;stroke-width:1.5;" width="48" x="434.6621" y="404.2656"/><text fill="#000000" font-family="sans-serif" font-size="14" lengthAdjust="spacing" textLength="28" x="444.6621" y="428.7988">&#20225;&#19994;</text><rect fill="#F1F1F1" height="37.6094" rx="12.5" ry="12.5" style="stroke:#181818;stroke-width:1.5;" width="146" x="532.6621" y="404.2656"/><text fill="#000000" font-family="sans-serif" font-size="14" lengthAdjust="spacing" textLength="126" x="542.6621" y="428.7988">&#20225;&#19994;&#25490;&#27745;&#19981;&#21512;&#26684;&#35748;&#23450;</text><path d="M482.6621,423.0703 L492.6621,423.0703 C507.6621,423.0703 507.6621,423.0703 522.6621,423.0703 L532.6621,423.0703 " fill="none" style="stroke:#181818;stroke-width:1;"/><path d="M384.6621,394.2656 L394.6621,394.2656 C409.6621,394.2656 409.6621,423.0703 424.6621,423.0703 L434.6621,423.0703 " fill="none" style="stroke:#181818;stroke-width:1;"/><rect fill="#F1F1F1" height="37.6094" rx="12.5" ry="12.5" style="stroke:#181818;stroke-width:1.5;" width="48" x="434.6621" y="461.875"/><text fill="#000000" font-family="sans-serif" font-size="14" lengthAdjust="spacing" textLength="28" x="444.6621" y="486.4082">&#20132;&#36890;</text><rect fill="#F1F1F1" height="37.6094" rx="12.5" ry="12.5" style="stroke:#181818;stroke-width:1.5;" width="104" x="532.6621" y="461.875"/><text fill="#000000" font-family="sans-serif" font-size="14" lengthAdjust="spacing" textLength="84" x="542.6621" y="486.4082">&#20132;&#36890;&#36131;&#20219;&#35748;&#23450;</text><path d="M482.6621,480.6797 L492.6621,480.6797 C507.6621,480.6797 507.6621,480.6797 522.6621,480.6797 L532.6621,480.6797 " fill="none" style="stroke:#181818;stroke-width:1;"/><path d="M384.6621,394.2656 L394.6621,394.2656 C409.6621,394.2656 409.6621,480.6797 424.6621,480.6797 L434.6621,480.6797 " fill="none" style="stroke:#181818;stroke-width:1;"/><path d="M286.6621,336.6563 L296.6621,336.6563 C311.6621,336.6563 311.6621,394.2656 326.6621,394.2656 L336.6621,394.2656 " fill="none" style="stroke:#181818;stroke-width:1;"/><path d="M160.6621,514.625 L170.6621,514.625 C185.6621,514.625 185.6621,336.6563 200.6621,336.6563 L210.6621,336.6563 " fill="none" style="stroke:#181818;stroke-width:1;"/><rect fill="#F1F1F1" height="37.6094" rx="12.5" ry="12.5" style="stroke:#181818;stroke-width:1.5;" width="76" x="210.6621" y="726.2578"/><text fill="#000000" font-family="sans-serif" font-size="14" lengthAdjust="spacing" textLength="56" x="220.6621" y="750.791">&#23481;&#26131;&#28151;&#28102;</text><rect fill="#F1F1F1" height="37.6094" rx="12.5" ry="12.5" style="stroke:#181818;stroke-width:1.5;" width="48" x="336.6621" y="522.0547"/><text fill="#000000" font-family="sans-serif" font-size="14" lengthAdjust="spacing" textLength="28" x="346.6621" y="546.5879">&#20844;&#27665;</text><rect fill="#F1F1F1" height="42.75" rx="12.5" ry="12.5" style="stroke:#181818;stroke-width:1.5;" width="118.7793" x="434.6621" y="519.4844"/><text fill="#000000" font-family="sans-serif" font-size="14" lengthAdjust="spacing" textLength="73.8896" x="444.6621" y="549.1582">&#32467;/&#31163;&#23130;&#30331;&#35760;</text><path d="M532.3581,545.2344 C531.3915,545.2344 530.6081,544.451 530.6081,543.4844 L530.6081,541.151 C530.6081,540.1845 531.3915,539.401 532.3581,539.401 C532.7098,539.3975 535.8581,538.8177 535.8581,536.4844 C535.8581,535.3177 534.6914,534.151 532.9414,534.151 C531.5175,534.151 530.6081,535.3177 530.6081,535.901 C530.6081,536.8676 529.8247,537.651 528.8581,537.651 C527.8915,537.651 527.1081,536.8676 527.1081,535.901 C527.1081,533.0555 529.7797,530.651 532.9414,530.651 C537.6081,530.651 539.3581,534.1405 539.3581,537.0677 C539.3581,539.4856 538.0298,541.3336 535.6172,542.271 C535.0922,542.4758 534.573,542.6135 534.1081,542.7068 L534.1081,543.4844 C534.1081,544.451 533.3247,545.2344 532.3581,545.2344 " fill="#BE1931" style="stroke:;stroke-width:0;stroke-dasharray:;"/><ellipse cx="532.3581" cy="548.151" fill="#BE1931" rx="1.75" ry="1.75" style="stroke:#BE1931;stroke-width:1.5;"/><rect fill="#F1F1F1" height="37.6094" rx="12.5" ry="12.5" style="stroke:#181818;stroke-width:1.5;" width="90" x="603.4414" y="522.0547"/><text fill="#000000" font-family="sans-serif" font-size="14" lengthAdjust="spacing" textLength="70" x="613.4414" y="546.5879">&#26159;&#12302;&#30830;&#35748;&#12303;</text><path d="M553.4414,540.8594 L563.4414,540.8594 C578.4414,540.8594 578.4414,540.8594 593.4414,540.8594 L603.4414,540.8594 " fill="none" style="stroke:#181818;stroke-width:1;"/><path d="M384.6621,540.8594 L394.6621,540.8594 C409.6621,540.8594 409.6621,540.8594 424.6621,540.8594 L434.6621,540.8594 " fill="none" style="stroke:#181818;stroke-width:1;"/><path d="M286.6621,745.0625 L296.6621,745.0625 C311.6621,745.0625 311.6621,540.8594 326.6621,540.8594 L336.6621,540.8594 " fill="none" style="stroke:#181818;stroke-width:1;"/><rect fill="#F1F1F1" height="37.6094" rx="12.5" ry="12.5" style="stroke:#181818;stroke-width:1.5;" width="48" x="336.6621" y="642.4141"/><text fill="#000000" font-family="sans-serif" font-size="14" lengthAdjust="spacing" textLength="28" x="346.6621" y="666.9473">&#20225;&#19994;</text><rect fill="#F1F1F1" height="42.75" rx="12.5" ry="12.5" style="stroke:#181818;stroke-width:1.5;" width="100.8896" x="434.6621" y="608.4688"/><text fill="#000000" font-family="sans-serif" font-size="14" lengthAdjust="spacing" textLength="56" x="444.6621" y="638.1426">&#35774;&#31435;&#30331;&#35760;</text><path d="M514.4684,634.2188 C513.5018,634.2188 512.7184,633.4353 512.7184,632.4688 L512.7184,630.1354 C512.7184,629.1688 513.5018,628.3854 514.4684,628.3854 C514.8202,628.3819 517.9684,627.8021 517.9684,625.4688 C517.9684,624.3021 516.8018,623.1354 515.0518,623.1354 C513.6278,623.1354 512.7184,624.3021 512.7184,624.8854 C512.7184,625.852 511.935,626.6354 510.9684,626.6354 C510.0018,626.6354 509.2184,625.852 509.2184,624.8854 C509.2184,622.0399 511.8901,619.6354 515.0518,619.6354 C519.7184,619.6354 521.4684,623.1249 521.4684,626.0521 C521.4684,628.47 520.1402,630.318 517.7275,631.2554 C517.2025,631.4602 516.6833,631.5978 516.2184,631.6912 L516.2184,632.4688 C516.2184,633.4353 515.435,634.2188 514.4684,634.2188 " fill="#BE1931" style="stroke:;stroke-width:0;stroke-dasharray:;"/><ellipse cx="514.4684" cy="637.1354" fill="#BE1931" rx="1.75" ry="1.75" style="stroke:#BE1931;stroke-width:1.5;"/><rect fill="#F1F1F1" height="37.6094" rx="12.5" ry="12.5" style="stroke:#181818;stroke-width:1.5;" width="90" x="585.5518" y="582.2344"/><text fill="#000000" font-family="sans-serif" font-size="14" lengthAdjust="spacing" textLength="70" x="595.5518" y="606.7676">&#26159;&#12302;&#35768;&#21487;&#12303;</text><path d="M535.5518,629.8438 L545.5518,629.8438 C560.5518,629.8438 560.5518,601.0391 575.5518,601.0391 L585.5518,601.0391 " fill="none" style="stroke:#181818;stroke-width:1;"/><rect fill="#F1F1F1" height="37.6094" rx="12.5" ry="12.5" style="stroke:#181818;stroke-width:1.5;" width="188" x="585.5518" y="639.8438"/><text fill="#000000" font-family="sans-serif" font-size="14" lengthAdjust="spacing" textLength="168" x="595.5518" y="664.377">&#20043;&#21518;&#65292;&#20225;&#19994;&#21487;&#20197;&#33829;&#19994;&#36186;&#38065;&#20102;</text><path d="M535.5518,629.8438 L545.5518,629.8438 C560.5518,629.8438 560.5518,658.6484 575.5518,658.6484 L585.5518,658.6484 " fill="none" style="stroke:#181818;stroke-width:1;"/><path d="M384.6621,661.2188 L394.6621,661.2188 C409.6621,661.2188 409.6621,629.8438 424.6621,629.8438 L434.6621,629.8438 " fill="none" style="stroke:#181818;stroke-width:1;"/><rect fill="#F1F1F1" height="42.75" rx="12.5" ry="12.5" style="stroke:#181818;stroke-width:1.5;" width="156.8896" x="434.6621" y="697.4531"/><text fill="#000000" font-family="sans-serif" font-size="14" lengthAdjust="spacing" textLength="112" x="444.6621" y="727.127">&#21464;&#26356;&#30331;&#35760;&#65288;&#27861;&#20154;&#65289;</text><path d="M570.4684,723.2031 C569.5018,723.2031 568.7184,722.4197 568.7184,721.4531 L568.7184,719.1198 C568.7184,718.1532 569.5018,717.3698 570.4684,717.3698 C570.8202,717.3663 573.9684,716.7865 573.9684,714.4531 C573.9684,713.2865 572.8018,712.1198 571.0518,712.1198 C569.6278,712.1198 568.7184,713.2865 568.7184,713.8698 C568.7184,714.8364 567.935,715.6198 566.9684,715.6198 C566.0018,715.6198 565.2184,714.8364 565.2184,713.8698 C565.2184,711.0243 567.8901,708.6198 571.0518,708.6198 C575.7184,708.6198 577.4684,712.1093 577.4684,715.0365 C577.4684,717.4544 576.1402,719.3024 573.7275,720.2398 C573.2025,720.4445 572.6833,720.5822 572.2184,720.6755 L572.2184,721.4531 C572.2184,722.4197 571.435,723.2031 570.4684,723.2031 " fill="#BE1931" style="stroke:;stroke-width:0;stroke-dasharray:;"/><ellipse cx="570.4684" cy="726.1198" fill="#BE1931" rx="1.75" ry="1.75" style="stroke:#BE1931;stroke-width:1.5;"/><rect fill="#F1F1F1" height="37.6094" rx="12.5" ry="12.5" style="stroke:#181818;stroke-width:1.5;" width="90" x="641.5518" y="700.0234"/><text fill="#000000" font-family="sans-serif" font-size="14" lengthAdjust="spacing" textLength="70" x="651.5518" y="724.5566">&#26159;&#12302;&#30830;&#35748;&#12303;</text><path d="M591.5518,718.8281 L601.5518,718.8281 C616.5518,718.8281 616.5518,718.8281 631.5518,718.8281 L641.5518,718.8281 " fill="none" style="stroke:#181818;stroke-width:1;"/><path d="M384.6621,661.2188 L394.6621,661.2188 C409.6621,661.2188 409.6621,718.8281 424.6621,718.8281 L434.6621,718.8281 " fill="none" style="stroke:#181818;stroke-width:1;"/><path d="M286.6621,745.0625 L296.6621,745.0625 C311.6621,745.0625 311.6621,661.2188 326.6621,661.2188 L336.6621,661.2188 " fill="none" style="stroke:#181818;stroke-width:1;"/><rect fill="#F1F1F1" height="37.6094" rx="12.5" ry="12.5" style="stroke:#181818;stroke-width:1.5;" width="48" x="336.6621" y="846.6172"/><text fill="#000000" font-family="sans-serif" font-size="14" lengthAdjust="spacing" textLength="28" x="346.6621" y="871.1504">&#29289;&#21697;</text><rect fill="#F1F1F1" height="42.75" rx="12.5" ry="12.5" style="stroke:#181818;stroke-width:1.5;" width="226.8896" x="434.6621" y="786.4375"/><text fill="#000000" font-family="sans-serif" font-size="14" lengthAdjust="spacing" textLength="182" x="444.6621" y="816.1113">&#21830;&#21697;&#30340;&#21512;&#26684;&#35777;&#65288;&#30005;&#26799;&#12289;&#29482;&#32905;&#65289;</text><path d="M640.4684,812.1875 C639.5018,812.1875 638.7184,811.4041 638.7184,810.4375 L638.7184,808.1042 C638.7184,807.1376 639.5018,806.3542 640.4684,806.3542 C640.8202,806.3507 643.9684,805.7708 643.9684,803.4375 C643.9684,802.2708 642.8018,801.1042 641.0518,801.1042 C639.6278,801.1042 638.7184,802.2708 638.7184,802.8542 C638.7184,803.8208 637.935,804.6042 636.9684,804.6042 C636.0018,804.6042 635.2184,803.8208 635.2184,802.8542 C635.2184,800.0087 637.8901,797.6042 641.0518,797.6042 C645.7184,797.6042 647.4684,801.0937 647.4684,804.0208 C647.4684,806.4388 646.1402,808.2868 643.7275,809.2242 C643.2025,809.4289 642.6833,809.5666 642.2184,809.6599 L642.2184,810.4375 C642.2184,811.4041 641.435,812.1875 640.4684,812.1875 " fill="#BE1931" style="stroke:;stroke-width:0;stroke-dasharray:;"/><ellipse cx="640.4684" cy="815.1042" fill="#BE1931" rx="1.75" ry="1.75" style="stroke:#BE1931;stroke-width:1.5;"/><rect fill="#F1F1F1" height="37.6094" rx="12.5" ry="12.5" style="stroke:#181818;stroke-width:1.5;" width="160" x="711.5518" y="760.2031"/><text fill="#000000" font-family="sans-serif" font-size="14" lengthAdjust="spacing" textLength="140" x="721.5518" y="784.7363">&#26159;&#12302;&#35768;&#21487;&#12303;&#65292;&#32473;&#21035;&#20154;&#29992;</text><path d="M661.5518,807.8125 L671.5518,807.8125 C686.5518,807.8125 686.5518,779.0078 701.5518,779.0078 L711.5518,779.0078 " fill="none" style="stroke:#181818;stroke-width:1;"/><rect fill="#F1F1F1" height="37.6094" rx="12.5" ry="12.5" style="stroke:#181818;stroke-width:1.5;" width="174" x="711.5518" y="817.8125"/><text fill="#000000" font-family="sans-serif" font-size="14" lengthAdjust="spacing" textLength="154" x="721.5518" y="842.3457">&#20043;&#21518;&#65292;&#29289;&#21697;&#21487;&#20197;&#36827;&#34892;&#20080;&#21334;</text><path d="M661.5518,807.8125 L671.5518,807.8125 C686.5518,807.8125 686.5518,836.6172 701.5518,836.6172 L711.5518,836.6172 " fill="none" style="stroke:#181818;stroke-width:1;"/><path d="M384.6621,865.4219 L394.6621,865.4219 C409.6621,865.4219 409.6621,807.8125 424.6621,807.8125 L434.6621,807.8125 " fill="none" style="stroke:#181818;stroke-width:1;"/><rect fill="#F1F1F1" height="42.75" rx="12.5" ry="12.5" style="stroke:#181818;stroke-width:1.5;" width="170.8896" x="434.6621" y="901.6563"/><text fill="#000000" font-family="sans-serif" font-size="14" lengthAdjust="spacing" textLength="126" x="444.6621" y="931.3301">&#25151;&#23627;&#12289;&#28040;&#38450;&#30340;&#21512;&#26684;&#35777;</text><path d="M584.4684,927.4063 C583.5018,927.4063 582.7184,926.6228 582.7184,925.6563 L582.7184,923.3229 C582.7184,922.3563 583.5018,921.5729 584.4684,921.5729 C584.8202,921.5694 587.9684,920.9896 587.9684,918.6563 C587.9684,917.4896 586.8018,916.3229 585.0518,916.3229 C583.6278,916.3229 582.7184,917.4896 582.7184,918.0729 C582.7184,919.0395 581.935,919.8229 580.9684,919.8229 C580.0018,919.8229 579.2184,919.0395 579.2184,918.0729 C579.2184,915.2274 581.8901,912.8229 585.0518,912.8229 C589.7184,912.8229 591.4684,916.3124 591.4684,919.2396 C591.4684,921.6575 590.1402,923.5055 587.7275,924.4429 C587.2025,924.6477 586.6833,924.7853 586.2184,924.8787 L586.2184,925.6563 C586.2184,926.6228 585.435,927.4063 584.4684,927.4063 " fill="#BE1931" style="stroke:;stroke-width:0;stroke-dasharray:;"/><ellipse cx="584.4684" cy="930.3229" fill="#BE1931" rx="1.75" ry="1.75" style="stroke:#BE1931;stroke-width:1.5;"/><rect fill="#F1F1F1" height="37.6094" rx="12.5" ry="12.5" style="stroke:#181818;stroke-width:1.5;" width="160" x="655.5518" y="875.4219"/><text fill="#000000" font-family="sans-serif" font-size="14" lengthAdjust="spacing" textLength="140" x="665.5518" y="899.9551">&#26159;&#12302;&#30830;&#35748;&#12303;&#65292;&#32473;&#33258;&#24049;&#29992;</text><path d="M605.5518,923.0313 L615.5518,923.0313 C630.5518,923.0313 630.5518,894.2266 645.5518,894.2266 L655.5518,894.2266 " fill="none" style="stroke:#181818;stroke-width:1;"/><rect fill="#F1F1F1" height="37.6094" rx="12.5" ry="12.5" style="stroke:#181818;stroke-width:1.5;" width="202" x="655.5518" y="933.0313"/><text fill="#000000" font-family="sans-serif" font-size="14" lengthAdjust="spacing" textLength="182" x="665.5518" y="957.5645">&#25151;&#23627;&#21487;&#20197;&#20303;&#20154;&#12289;&#28040;&#38450;&#35774;&#26045;&#40784;&#22791;</text><path d="M605.5518,923.0313 L615.5518,923.0313 C630.5518,923.0313 630.5518,951.8359 645.5518,951.8359 L655.5518,951.8359 " fill="none" style="stroke:#181818;stroke-width:1;"/><path d="M384.6621,865.4219 L394.6621,865.4219 C409.6621,865.4219 409.6621,923.0313 424.6621,923.0313 L434.6621,923.0313 " fill="none" style="stroke:#181818;stroke-width:1;"/><path d="M286.6621,745.0625 L296.6621,745.0625 C311.6621,745.0625 311.6621,865.4219 326.6621,865.4219 L336.6621,865.4219 " fill="none" style="stroke:#181818;stroke-width:1;"/><path d="M160.6621,514.625 L170.6621,514.625 C185.6621,514.625 185.6621,745.0625 200.6621,745.0625 L210.6621,745.0625 " fill="none" style="stroke:#181818;stroke-width:1;"/><!--SRC=[xLXVJzjM57_tfxZJNg1ImfyXL4Me0W9egmYg5jht6-SsSN5yC_iwLLfDWccZeQIGGTjHAcsbWxN06g2Z9II1VfZ6JlB4LzYndO2Jnd7OsoGGGl4vl_ix_y-D6LOObbbCaC8n7EUuhmI95zKmGLvl3_mgB2cIdhY89QR6H8y1ym3EOygz0iWuZWbC9AYoaIxbybfsNPzzuwbaSzhodhQIBczaAzbDZhlMNe_WvnhIqdajDMy-M08BTYweePRtIeMjKc6fb5_K_yYKSZlwOK5x_DPspiPw8TH_UwszMuD3MlRtylhFskDNMZ5VjvpBLTxCbKuNjNSPD_lLxTFgziVAtboJ70BKqeMc8mw-bFBvIdwtGLXNl0SNu00awgoO6fiQEIikjC1fHrkbugQ5Q-OkpfLowwsuJOM-jA8VR9HoJxHCIdzLR4sHtwpEjgGm5PN3Fqk5Wkqa-9CzrjTMzQCZ_SXUGEsNl_NzNvlOouNLdl9V1MrxlVm2MFRHaEy7bIXCe9BlHWkZ-jhUvzabAu-VPvUvjg4QHJijxovUXjggcPtQPk9uKSiidHNJbYsh-IgPBVXS-R1UNJaevUU_QD0r_UMXvG3KKF_d6PGRolZVuomlR6khpVscFPi7eT79LY7tvi1O-Ua7_JNGp9NJEvMV5ZgsUfu2YBHSUA6bTi7dyjEtxJ9YULNBoAUNne0VxsjFdZVFNUgJTh08BkaVKzMrztQ7BvaHoxVAentjwA2rRvQjseOuMOOOpkr2M-ZFJwed6Mtp4SSD4zXtzPqttBW2XypbTeEh2SO4795n33q4UzwGg1Bp4qAZc9-9o5ILmdugKXc9GYJA33reVpImOIpFo2Ji0Azfw-28J8ZKZja4sD195t2oZgKobY9EJblAEZIkod7H2Mefwr3dm6n1oLHnOljwOc9qrE-l8vD45Ebz1wobDA6SDuO5QJfAOdNY2IgneF20e6zwEKDFOl4eLWJ5FPTsTAy3N9b9cYMrO_lRvz8E7GKH7uN6xCWP8I9HcNHGLuGc1OaqooyeEZJRbieWaoJA4uavvKOoYsALm1A5HC0qiSBmMBxnid1UjGirep7CgEMynC0QB0Ci-Y-BlIMJE9Qn8RdCiP4GbPbRstNAnHZKdRbDMeTiVXg3SMDExL0xwKHdb4yY4QWeaDgJsMvhkLKoJ4ZSFX2D1iPXYuP4GOawhppR-KPhzwC2QywDWvafojmjcL7nIInr41MFmuIT6yCyBuITUxvX5RintuLHL6pp3Syy2U1xH7MPSYg22p8DsphGPSRg9qmxSQe8J4YG4Tus3b-iSooIJWEv205gWLsfOmBSeCRkxwIdQjUWGQweeNk4D-YTieCJS6yJkKFUX41XWangwiPivBtZT5zi-iR1RJ-h3RtiUeTmy6Uef_PLvEeTw-eTw-eTw-eTw__xZdNB-1VIxS0aIX1PCQwEFcz_R_-0ztfN43CqHHEeRn3rzla61dm3WyWVd4Q6kflh2dmtZHIgmis9md2lo498DMBfvcxY14RVgx1wOyI7ZAUkwK0t2exNXMXSIWWobMAmRhcRTm8M27rBMJ1EcGaU7F2C2Wm5YGnkeJi1RepSnQh8u2XFmu8KyQ7RqnEUwzmah6KLHy3GWoZdXttDvAGF-QV-1G00]--></g></svg>