<svg xmlns="http://www.w3.org/2000/svg" xmlns:xlink="http://www.w3.org/1999/xlink" contentStyleType="text/css" height="982px" preserveAspectRatio="none" style="width:610px;height:982px;background:#FFFFFF;" version="1.1" viewBox="0 0 610 982" width="610px" zoomAndPan="magnify"><title>&#34892;&#25919;&#35768;&#21487;-&#31867;&#22411;</title><defs/><g><text fill="#000000" font-family="sans-serif" font-size="14" font-weight="bold" lengthAdjust="spacing" textLength="91.2871" x="258.1323" y="34.5332">&#34892;&#25919;&#35768;&#21487;-&#31867;&#22411;</text><rect fill="#F1F1F1" height="37.6094" rx="12.5" ry="12.5" style="stroke:#181818;stroke-width:1.5;" width="108.6621" x="10" y="490.6797"/><text fill="#000000" font-family="sans-serif" font-size="14" lengthAdjust="spacing" textLength="88.6621" x="20" y="515.2129">&#34892;&#25919;&#35768;&#21487;-&#31867;&#22411;</text><rect fill="#F1F1F1" height="37.6094" rx="12.5" ry="12.5" style="stroke:#181818;stroke-width:1.5;" width="76" x="168.6621" y="317.8516"/><text fill="#000000" font-family="sans-serif" font-size="14" lengthAdjust="spacing" textLength="56" x="178.6621" y="342.3848">&#27861;&#24459;&#20998;&#31867;</text><rect fill="#90EE90" height="37.6094" rx="12.5" ry="12.5" style="stroke:#181818;stroke-width:1.5;" width="79.8896" x="294.6621" y="58.6094"/><text fill="#000000" font-family="sans-serif" font-size="14" lengthAdjust="spacing" textLength="56" x="304.6621" y="83.1426">&#19968;&#33324;&#35768;&#21487;</text><path d="M244.6621,336.6563 L254.6621,336.6563 C269.6621,336.6563 269.6621,77.4141 284.6621,77.4141 L294.6621,77.4141 " fill="none" style="stroke:#181818;stroke-width:1;"/><rect fill="#90EE90" height="37.6094" rx="12.5" ry="12.5" style="stroke:#181818;stroke-width:1.5;" width="121.8896" x="294.6621" y="116.2188"/><text fill="#000000" font-family="sans-serif" font-size="14" lengthAdjust="spacing" textLength="98" x="304.6621" y="140.752">&#29305;&#35768;&#65288;&#36186;&#22823;&#38065;&#65289;</text><path d="M244.6621,336.6563 L254.6621,336.6563 C269.6621,336.6563 269.6621,135.0234 284.6621,135.0234 L294.6621,135.0234 " fill="none" style="stroke:#181818;stroke-width:1;"/><rect fill="#90EE90" height="37.6094" rx="12.5" ry="12.5" style="stroke:#181818;stroke-width:1.5;" width="93.8896" x="294.6621" y="260.2422"/><text fill="#000000" font-family="sans-serif" font-size="14" lengthAdjust="spacing" textLength="70" x="304.6621" y="284.7754">&#35748;&#21487;&#65288;&#20154;&#65289;</text><rect fill="#F1F1F1" height="37.6094" rx="12.5" ry="12.5" style="stroke:#181818;stroke-width:1.5;" width="104" x="438.5518" y="173.8281"/><text fill="#000000" font-family="sans-serif" font-size="14" lengthAdjust="spacing" textLength="84" x="448.5518" y="198.3613">&#27861;&#24459;&#32844;&#19994;&#36164;&#26684;</text><path d="M388.5518,279.0469 L398.5518,279.0469 C413.5518,279.0469 413.5518,192.6328 428.5518,192.6328 L438.5518,192.6328 " fill="none" style="stroke:#181818;stroke-width:1;"/><rect fill="#F1F1F1" height="37.6094" rx="12.5" ry="12.5" style="stroke:#181818;stroke-width:1.5;" width="76" x="438.5518" y="231.4375"/><text fill="#000000" font-family="sans-serif" font-size="14" lengthAdjust="spacing" textLength="56" x="448.5518" y="255.9707">&#25945;&#24072;&#36164;&#26684;</text><path d="M388.5518,279.0469 L398.5518,279.0469 C413.5518,279.0469 413.5518,250.2422 428.5518,250.2422 L438.5518,250.2422 " fill="none" style="stroke:#181818;stroke-width:1;"/><rect fill="#F1F1F1" height="37.6094" rx="12.5" ry="12.5" style="stroke:#181818;stroke-width:1.5;" width="132" x="438.5518" y="289.0469"/><text fill="#000000" font-family="sans-serif" font-size="14" lengthAdjust="spacing" textLength="112" x="448.5518" y="313.5801">&#27880;&#20876;&#20250;&#35745;&#24072;&#35768;&#21487;&#35777;</text><path d="M388.5518,279.0469 L398.5518,279.0469 C413.5518,279.0469 413.5518,307.8516 428.5518,307.8516 L438.5518,307.8516 " fill="none" style="stroke:#181818;stroke-width:1;"/><rect fill="#F1F1F1" height="37.6094" rx="12.5" ry="12.5" style="stroke:#181818;stroke-width:1.5;" width="104" x="438.5518" y="346.6563"/><text fill="#000000" font-family="sans-serif" font-size="14" lengthAdjust="spacing" textLength="84" x="448.5518" y="371.1895">&#24314;&#31569;&#20225;&#19994;&#36164;&#36136;</text><path d="M388.5518,279.0469 L398.5518,279.0469 C413.5518,279.0469 413.5518,365.4609 428.5518,365.4609 L438.5518,365.4609 " fill="none" style="stroke:#181818;stroke-width:1;"/><path d="M244.6621,336.6563 L254.6621,336.6563 C269.6621,336.6563 269.6621,279.0469 284.6621,279.0469 L294.6621,279.0469 " fill="none" style="stroke:#181818;stroke-width:1;"/><rect fill="#90EE90" height="37.6094" rx="12.5" ry="12.5" style="stroke:#181818;stroke-width:1.5;" width="93.8896" x="294.6621" y="433.0703"/><text fill="#000000" font-family="sans-serif" font-size="14" lengthAdjust="spacing" textLength="70" x="304.6621" y="457.6035">&#26680;&#20934;&#65288;&#29289;&#65289;</text><rect fill="#F1F1F1" height="37.6094" rx="12.5" ry="12.5" style="stroke:#181818;stroke-width:1.5;" width="104" x="438.5518" y="404.2656"/><text fill="#000000" font-family="sans-serif" font-size="14" lengthAdjust="spacing" textLength="84" x="448.5518" y="428.7988">&#29983;&#29482;&#23648;&#23472;&#26816;&#30123;</text><path d="M388.5518,451.875 L398.5518,451.875 C413.5518,451.875 413.5518,423.0703 428.5518,423.0703 L438.5518,423.0703 " fill="none" style="stroke:#181818;stroke-width:1;"/><rect fill="#F1F1F1" height="37.6094" rx="12.5" ry="12.5" style="stroke:#181818;stroke-width:1.5;" width="118" x="438.5518" y="461.875"/><text fill="#000000" font-family="sans-serif" font-size="14" lengthAdjust="spacing" textLength="98" x="448.5518" y="486.4082">&#30005;&#26799;&#12289;&#38149;&#28809;&#35768;&#21487;</text><path d="M388.5518,451.875 L398.5518,451.875 C413.5518,451.875 413.5518,480.6797 428.5518,480.6797 L438.5518,480.6797 " fill="none" style="stroke:#181818;stroke-width:1;"/><path d="M244.6621,336.6563 L254.6621,336.6563 C269.6621,336.6563 269.6621,451.875 284.6621,451.875 L294.6621,451.875 " fill="none" style="stroke:#181818;stroke-width:1;"/><rect fill="#90EE90" height="37.6094" rx="12.5" ry="12.5" style="stroke:#181818;stroke-width:1.5;" width="149.8896" x="294.6621" y="548.2891"/><text fill="#000000" font-family="sans-serif" font-size="14" lengthAdjust="spacing" textLength="126" x="304.6621" y="572.8223">&#30331;&#35760;&#65288;&#20225;&#19994;&#25110;&#32452;&#32455;&#65289;</text><rect fill="#F1F1F1" height="37.6094" rx="12.5" ry="12.5" style="stroke:#181818;stroke-width:1.5;" width="76" x="494.5518" y="519.4844"/><text fill="#000000" font-family="sans-serif" font-size="14" lengthAdjust="spacing" textLength="56" x="504.5518" y="544.0176">&#33829;&#19994;&#30331;&#35760;</text><path d="M444.5518,567.0938 L454.5518,567.0938 C469.5518,567.0938 469.5518,538.2891 484.5518,538.2891 L494.5518,538.2891 " fill="none" style="stroke:#181818;stroke-width:1;"/><rect fill="#F1F1F1" height="37.6094" rx="12.5" ry="12.5" style="stroke:#181818;stroke-width:1.5;" width="104" x="494.5518" y="577.0938"/><text fill="#000000" font-family="sans-serif" font-size="14" lengthAdjust="spacing" textLength="84" x="504.5518" y="601.627">&#31038;&#22242;&#35774;&#31435;&#30331;&#35760;</text><path d="M444.5518,567.0938 L454.5518,567.0938 C469.5518,567.0938 469.5518,595.8984 484.5518,595.8984 L494.5518,595.8984 " fill="none" style="stroke:#181818;stroke-width:1;"/><path d="M244.6621,336.6563 L254.6621,336.6563 C269.6621,336.6563 269.6621,567.0938 284.6621,567.0938 L294.6621,567.0938 " fill="none" style="stroke:#181818;stroke-width:1;"/><path d="M118.6621,509.4844 L128.6621,509.4844 C143.6621,509.4844 143.6621,336.6563 158.6621,336.6563 L168.6621,336.6563 " fill="none" style="stroke:#181818;stroke-width:1;"/><rect fill="#F1F1F1" height="37.6094" rx="12.5" ry="12.5" style="stroke:#181818;stroke-width:1.5;" width="48" x="168.6621" y="778.7266"/><text fill="#000000" font-family="sans-serif" font-size="14" lengthAdjust="spacing" textLength="28" x="178.6621" y="803.2598">&#23398;&#29702;</text><rect fill="#F1F1F1" height="37.6094" rx="12.5" ry="12.5" style="stroke:#181818;stroke-width:1.5;" width="48" x="266.6621" y="663.5078"/><text fill="#000000" font-family="sans-serif" font-size="14" lengthAdjust="spacing" textLength="28" x="276.6621" y="688.041">&#26102;&#38388;</text><rect fill="#F1F1F1" height="37.6094" rx="12.5" ry="12.5" style="stroke:#181818;stroke-width:1.5;" width="90" x="364.6621" y="634.7031"/><text fill="#000000" font-family="sans-serif" font-size="14" lengthAdjust="spacing" textLength="70" x="374.6621" y="659.2363">&#38468;&#26399;&#38480;&#35768;&#21487;</text><path d="M314.6621,682.3125 L324.6621,682.3125 C339.6621,682.3125 339.6621,653.5078 354.6621,653.5078 L364.6621,653.5078 " fill="none" style="stroke:#181818;stroke-width:1;"/><rect fill="#F1F1F1" height="37.6094" rx="12.5" ry="12.5" style="stroke:#181818;stroke-width:1.5;" width="104" x="364.6621" y="692.3125"/><text fill="#000000" font-family="sans-serif" font-size="14" lengthAdjust="spacing" textLength="84" x="374.6621" y="716.8457">&#19981;&#38468;&#26399;&#38480;&#35768;&#21487;</text><path d="M314.6621,682.3125 L324.6621,682.3125 C339.6621,682.3125 339.6621,711.1172 354.6621,711.1172 L364.6621,711.1172 " fill="none" style="stroke:#181818;stroke-width:1;"/><path d="M216.6621,797.5313 L226.6621,797.5313 C241.6621,797.5313 241.6621,682.3125 256.6621,682.3125 L266.6621,682.3125 " fill="none" style="stroke:#181818;stroke-width:1;"/><rect fill="#F1F1F1" height="37.6094" rx="12.5" ry="12.5" style="stroke:#181818;stroke-width:1.5;" width="48" x="266.6621" y="778.7266"/><text fill="#000000" font-family="sans-serif" font-size="14" lengthAdjust="spacing" textLength="28" x="276.6621" y="803.2598">&#25968;&#37327;</text><rect fill="#F1F1F1" height="37.6094" rx="12.5" ry="12.5" style="stroke:#181818;stroke-width:1.5;" width="132" x="364.6621" y="749.9219"/><text fill="#000000" font-family="sans-serif" font-size="14" lengthAdjust="spacing" textLength="112" x="374.6621" y="774.4551">&#26377;&#25968;&#37327;&#38480;&#21046;&#30340;&#35768;&#21487;</text><path d="M314.6621,797.5313 L324.6621,797.5313 C339.6621,797.5313 339.6621,768.7266 354.6621,768.7266 L364.6621,768.7266 " fill="none" style="stroke:#181818;stroke-width:1;"/><rect fill="#F1F1F1" height="37.6094" rx="12.5" ry="12.5" style="stroke:#181818;stroke-width:1.5;" width="146" x="364.6621" y="807.5313"/><text fill="#000000" font-family="sans-serif" font-size="14" lengthAdjust="spacing" textLength="126" x="374.6621" y="832.0645">&#27809;&#26377;&#25968;&#37327;&#38480;&#21046;&#30340;&#35768;&#21487;</text><path d="M314.6621,797.5313 L324.6621,797.5313 C339.6621,797.5313 339.6621,826.3359 354.6621,826.3359 L364.6621,826.3359 " fill="none" style="stroke:#181818;stroke-width:1;"/><path d="M216.6621,797.5313 L226.6621,797.5313 C241.6621,797.5313 241.6621,797.5313 256.6621,797.5313 L266.6621,797.5313 " fill="none" style="stroke:#181818;stroke-width:1;"/><rect fill="#F1F1F1" height="37.6094" rx="12.5" ry="12.5" style="stroke:#181818;stroke-width:1.5;" width="48" x="266.6621" y="893.9453"/><text fill="#000000" font-family="sans-serif" font-size="14" lengthAdjust="spacing" textLength="28" x="276.6621" y="918.4785">&#36716;&#35753;</text><rect fill="#F1F1F1" height="37.6094" rx="12.5" ry="12.5" style="stroke:#181818;stroke-width:1.5;" width="104" x="364.6621" y="865.1406"/><text fill="#000000" font-family="sans-serif" font-size="14" lengthAdjust="spacing" textLength="84" x="374.6621" y="889.6738">&#21487;&#36716;&#35753;&#30340;&#35768;&#21487;</text><path d="M314.6621,912.75 L324.6621,912.75 C339.6621,912.75 339.6621,883.9453 354.6621,883.9453 L364.6621,883.9453 " fill="none" style="stroke:#181818;stroke-width:1;"/><rect fill="#F1F1F1" height="37.6094" rx="12.5" ry="12.5" style="stroke:#181818;stroke-width:1.5;" width="118" x="364.6621" y="922.75"/><text fill="#000000" font-family="sans-serif" font-size="14" lengthAdjust="spacing" textLength="98" x="374.6621" y="947.2832">&#19981;&#21487;&#36716;&#35753;&#30340;&#35768;&#21487;</text><path d="M314.6621,912.75 L324.6621,912.75 C339.6621,912.75 339.6621,941.5547 354.6621,941.5547 L364.6621,941.5547 " fill="none" style="stroke:#181818;stroke-width:1;"/><path d="M216.6621,797.5313 L226.6621,797.5313 C241.6621,797.5313 241.6621,912.75 256.6621,912.75 L266.6621,912.75 " fill="none" style="stroke:#181818;stroke-width:1;"/><path d="M118.6621,509.4844 L128.6621,509.4844 C143.6621,509.4844 143.6621,797.5313 158.6621,797.5313 L168.6621,797.5313 " fill="none" style="stroke:#181818;stroke-width:1;"/><!--SRC=[xLTTJzjM6BxthpZJRg1ImiSGgX12b1IqLGHL2-tzYNsQd6AV4nqVfqgdIJ0n28AfRAAjODKA7TlQTGsmbeeHndxCSEnSzI_ijOsBasASxXg4KFA-ptdUh_EyDgEcn48Qb6a6BYdA9vIfkgKHb4xtmAyfAphfAUcOISlGKnui1RYKRqzJi2cAf58doDrQQQpzuzOEx0SxAMUlRl-qh2XNpZKZ-Bc26gyVsiVBTdK1hBufC9ySpBhLFu83Q7YO6AKYDgavCXB1E4j_0U3TKTNTtx2tVsl-iFVkQ2aExDQsWGh09uU7iR1eIkxSoid1Xhi_tzWyQWSyNBSFgkUxNZ-t5rPEZZRSsfQ7yGjmT-RQO7Rzq7dr_SdHN132VVCyacfZyy1UN81KdQKN2QawQq-TbT_jlKsxjjluUTPvzF83m7xZsSw_itFDjM-TRvQ2VA8zNA-xjLslBNukZUeZfpxlr1SJuhghlm0wEDmUSVlO_l6PMpjsNYv7053pgr-TrOLedO_VDX-_QJlUN9zlF7dQN5zjIpMy5j_50Ronx3ON7xGFvCbIO8SJTlMjip5_Bd7Zpwr499JzDrp95-spX07xzZXkIFeSZ39AG6oXu4PRzJViAsj4EJLSfxWWi86-0kPqNhU8_mcXCQpE50Itc9RXEXT8fuMYzFpW_Th3QbZC2AB5m4-z8RWW264NCVk02BgI0Aw4M2umAyGb7JX3QCaI9JqE6ZX3Q7nXaQ84D-FOFfsO61lBP49aXUWwlnU33Pm-L4aRcBBf8Z52uWdEP8xU9-YpNiNpXx99xcKKtHi3DsSg_aYZsFwBUnc5Ze59BS8rx2WPMc1Sa0xcYj0aPQJTVaRHOTWBgJmonhXAc8ph3VE74emWCELrmBInWdY2t5H1tq_jp2svWIKFacSIeb7Ei9xvMEnDGKfOOC_oCSUkvRcGITUkKoufOUuoIMaTicMu0NAJSTVXz6GSdJS-HWemKI2DDlEYhPKqIOsGKbGGhG76OOlcTMeMurTUv7nhj7j5Ajjx4nDcYilaI7vLQWMp3gfIiKRa-s1OLQaMV-TRLd4IynsGeXdHDtnNIHRV9LQ2ohaEAGYkHMvWWiR24twS4ZUff6LoJOt8uODrZdNIQI5d9S0iS2ArGU49wkt-JkxKwMFG8pUj_5sYUlHntS5bU6uJqI5lcN9Ga4_DavYzldVSxhDDtohSYxNQSfSJdo4A_1dkENqLkNp1ltp1ltp1_zyl-3UzVvvlPITHcGZJsrjzwVxU_e7qrQuSbcYAbr7V8Ehj6neO61eOH9dSDFBStKfNzejfP78BrZRIOAa9chSyfNShDt0PeoyjqBr1Xf3thMiwsurouw4HZRCo5PmPe7Nbnkri04AVSvahSUc31mTIOrIY716G5hgTLQwJEzZI9HnLkKPPOGZTcfv8NLKcOITOk021xXUL32mBAIf3A3Fr7m00]--></g></svg>