<svg xmlns="http://www.w3.org/2000/svg" xmlns:xlink="http://www.w3.org/1999/xlink" contentStyleType="text/css" height="1039px" preserveAspectRatio="none" style="width:816px;height:1039px;background:#FFFFFF;" version="1.1" viewBox="0 0 816 1039" width="816px" zoomAndPan="magnify"><title>&#34892;&#25919;&#22788;&#32602;-&#31181;&#31867;</title><defs/><g><text fill="#000000" font-family="sans-serif" font-size="14" font-weight="bold" lengthAdjust="spacing" textLength="91.2871" x="361.1875" y="34.5332">&#34892;&#25919;&#22788;&#32602;-&#31181;&#31867;</text><rect fill="#F1F1F1" height="37.6094" rx="12.5" ry="12.5" style="stroke:#181818;stroke-width:1.5;" width="108.6621" x="10" y="519.4844"/><text fill="#000000" font-family="sans-serif" font-size="14" lengthAdjust="spacing" textLength="88.6621" x="20" y="544.0176">&#34892;&#25919;&#22788;&#32602;-&#31181;&#31867;</text><rect fill="#F1F1F1" height="37.6094" rx="12.5" ry="12.5" style="stroke:#181818;stroke-width:1.5;" width="48" x="168.6621" y="231.4375"/><text fill="#000000" font-family="sans-serif" font-size="14" lengthAdjust="spacing" textLength="28" x="178.6621" y="255.9707">&#20844;&#27665;</text><rect fill="#F1F1F1" height="37.6094" rx="12.5" ry="12.5" style="stroke:#181818;stroke-width:1.5;" width="62" x="266.6621" y="87.4141"/><text fill="#000000" font-family="sans-serif" font-size="14" lengthAdjust="spacing" textLength="42" x="276.6621" y="111.9473">&#31934;&#31070;&#32602;</text><rect fill="#90EE90" height="37.6094" rx="12.5" ry="12.5" style="stroke:#181818;stroke-width:1.5;" width="51.8896" x="378.6621" y="58.6094"/><text fill="#000000" font-family="sans-serif" font-size="14" lengthAdjust="spacing" textLength="28" x="388.6621" y="83.1426">&#35686;&#21578;</text><text fill="#000000" font-family="sans-serif" font-size="14" lengthAdjust="spacing" textLength="56" x="483.5518" y="83.1426">&#33258;&#24049;&#30693;&#36947;</text><path d="M430.5518,77.4141 L440.5518,77.4141 C455.5518,77.4141 455.5518,77.4141 470.5518,77.4141 L480.5518,77.4141 " fill="none" style="stroke:#181818;stroke-width:1;"/><path d="M328.6621,106.2188 L338.6621,106.2188 C353.6621,106.2188 353.6621,77.4141 368.6621,77.4141 L378.6621,77.4141 " fill="none" style="stroke:#181818;stroke-width:1;"/><rect fill="#90EE90" height="37.6094" rx="12.5" ry="12.5" style="stroke:#181818;stroke-width:1.5;" width="79.8896" x="378.6621" y="116.2188"/><text fill="#000000" font-family="sans-serif" font-size="14" lengthAdjust="spacing" textLength="56" x="388.6621" y="140.752">&#36890;&#25253;&#25209;&#35780;</text><text fill="#000000" font-family="sans-serif" font-size="14" lengthAdjust="spacing" textLength="98" x="511.5518" y="140.752">&#20844;&#24320;&#65292;&#21035;&#20154;&#30693;&#36947;</text><path d="M458.5518,135.0234 L468.5518,135.0234 C483.5518,135.0234 483.5518,135.0234 498.5518,135.0234 L508.5518,135.0234 " fill="none" style="stroke:#181818;stroke-width:1;"/><path d="M328.6621,106.2188 L338.6621,106.2188 C353.6621,106.2188 353.6621,135.0234 368.6621,135.0234 L378.6621,135.0234 " fill="none" style="stroke:#181818;stroke-width:1;"/><path d="M216.6621,250.2422 L226.6621,250.2422 C241.6621,250.2422 241.6621,106.2188 256.6621,106.2188 L266.6621,106.2188 " fill="none" style="stroke:#181818;stroke-width:1;"/><rect fill="#F1F1F1" height="37.6094" rx="12.5" ry="12.5" style="stroke:#181818;stroke-width:1.5;" width="62" x="266.6621" y="173.8281"/><text fill="#000000" font-family="sans-serif" font-size="14" lengthAdjust="spacing" textLength="42" x="276.6621" y="198.3613">&#20154;&#36523;&#32602;</text><rect fill="#90EE90" height="37.6094" rx="12.5" ry="12.5" style="stroke:#181818;stroke-width:1.5;" width="79.8896" x="378.6621" y="173.8281"/><text fill="#000000" font-family="sans-serif" font-size="14" lengthAdjust="spacing" textLength="56" x="388.6621" y="198.3613">&#34892;&#25919;&#25304;&#30041;</text><path d="M328.6621,192.6328 L338.6621,192.6328 C353.6621,192.6328 353.6621,192.6328 368.6621,192.6328 L378.6621,192.6328 " fill="none" style="stroke:#181818;stroke-width:1;"/><path d="M216.6621,250.2422 L226.6621,250.2422 C241.6621,250.2422 241.6621,192.6328 256.6621,192.6328 L266.6621,192.6328 " fill="none" style="stroke:#181818;stroke-width:1;"/><rect fill="#F1F1F1" height="37.6094" rx="12.5" ry="12.5" style="stroke:#181818;stroke-width:1.5;" width="62" x="266.6621" y="317.8516"/><text fill="#000000" font-family="sans-serif" font-size="14" lengthAdjust="spacing" textLength="42" x="276.6621" y="342.3848">&#36130;&#20135;&#32602;</text><rect fill="#90EE90" height="37.6094" rx="12.5" ry="12.5" style="stroke:#181818;stroke-width:1.5;" width="51.8896" x="378.6621" y="260.2422"/><text fill="#000000" font-family="sans-serif" font-size="14" lengthAdjust="spacing" textLength="28" x="388.6621" y="284.7754">&#32602;&#27454;</text><rect fill="#F1F1F1" height="37.6094" rx="12.5" ry="12.5" style="stroke:#181818;stroke-width:1.5;" width="132" x="480.5518" y="231.4375"/><text fill="#000000" font-family="sans-serif" font-size="14" lengthAdjust="spacing" textLength="112" x="490.5518" y="255.9707">&#32602;&#27454;&#65292;&#26159;&#34892;&#25919;&#22788;&#32602;</text><path d="M430.5518,279.0469 L440.5518,279.0469 C455.5518,279.0469 455.5518,250.2422 470.5518,250.2422 L480.5518,250.2422 " fill="none" style="stroke:#181818;stroke-width:1;"/><rect fill="#F1F1F1" height="37.6094" rx="12.5" ry="12.5" style="stroke:#181818;stroke-width:1.5;" width="132" x="480.5518" y="289.0469"/><text fill="#000000" font-family="sans-serif" font-size="14" lengthAdjust="spacing" textLength="112" x="490.5518" y="313.5801">&#32602;&#37329;&#65292;&#26159;&#21009;&#20107;&#22788;&#32602;</text><path d="M430.5518,279.0469 L440.5518,279.0469 C455.5518,279.0469 455.5518,307.8516 470.5518,307.8516 L480.5518,307.8516 " fill="none" style="stroke:#181818;stroke-width:1;"/><path d="M328.6621,336.6563 L338.6621,336.6563 C353.6621,336.6563 353.6621,279.0469 368.6621,279.0469 L378.6621,279.0469 " fill="none" style="stroke:#181818;stroke-width:1;"/><rect fill="#90EE90" height="37.6094" rx="12.5" ry="12.5" style="stroke:#181818;stroke-width:1.5;" width="51.8896" x="378.6621" y="375.4609"/><text fill="#000000" font-family="sans-serif" font-size="14" lengthAdjust="spacing" textLength="28" x="388.6621" y="399.9941">&#27809;&#25910;</text><rect fill="#F1F1F1" height="37.6094" rx="12.5" ry="12.5" style="stroke:#181818;stroke-width:1.5;" width="76" x="480.5518" y="346.6563"/><text fill="#000000" font-family="sans-serif" font-size="14" lengthAdjust="spacing" textLength="56" x="490.5518" y="371.1895">&#38750;&#27861;&#36130;&#29289;</text><text fill="#000000" font-family="sans-serif" font-size="14" lengthAdjust="spacing" textLength="154" x="609.5518" y="371.1895">&#26412;&#20154;&#36130;&#29289;&#65292;&#29992;&#20110;&#36829;&#27861;&#34892;&#20026;</text><path d="M556.5518,365.4609 L566.5518,365.4609 C581.5518,365.4609 581.5518,365.4609 596.5518,365.4609 L606.5518,365.4609 " fill="none" style="stroke:#181818;stroke-width:1;"/><path d="M430.5518,394.2656 L440.5518,394.2656 C455.5518,394.2656 455.5518,365.4609 470.5518,365.4609 L480.5518,365.4609 " fill="none" style="stroke:#181818;stroke-width:1;"/><rect fill="#F1F1F1" height="37.6094" rx="12.5" ry="12.5" style="stroke:#181818;stroke-width:1.5;" width="76" x="480.5518" y="404.2656"/><text fill="#000000" font-family="sans-serif" font-size="14" lengthAdjust="spacing" textLength="56" x="490.5518" y="428.7988">&#36829;&#27861;&#25152;&#24471;</text><text fill="#000000" font-family="sans-serif" font-size="14" lengthAdjust="spacing" textLength="154" x="609.5518" y="428.7988">&#36829;&#27861;&#34892;&#20026;&#65292;&#25152;&#33719;&#21462;&#30340;&#27454;&#39033;</text><path d="M556.5518,423.0703 L566.5518,423.0703 C581.5518,423.0703 581.5518,423.0703 596.5518,423.0703 L606.5518,423.0703 " fill="none" style="stroke:#181818;stroke-width:1;"/><path d="M430.5518,394.2656 L440.5518,394.2656 C455.5518,394.2656 455.5518,423.0703 470.5518,423.0703 L480.5518,423.0703 " fill="none" style="stroke:#181818;stroke-width:1;"/><path d="M328.6621,336.6563 L338.6621,336.6563 C353.6621,336.6563 353.6621,394.2656 368.6621,394.2656 L378.6621,394.2656 " fill="none" style="stroke:#181818;stroke-width:1;"/><path d="M216.6621,250.2422 L226.6621,250.2422 C241.6621,250.2422 241.6621,336.6563 256.6621,336.6563 L266.6621,336.6563 " fill="none" style="stroke:#181818;stroke-width:1;"/><path d="M118.6621,538.2891 L128.6621,538.2891 C143.6621,538.2891 143.6621,250.2422 158.6621,250.2422 L168.6621,250.2422 " fill="none" style="stroke:#181818;stroke-width:1;"/><rect fill="#F1F1F1" height="37.6094" rx="12.5" ry="12.5" style="stroke:#181818;stroke-width:1.5;" width="48" x="168.6621" y="721.1172"/><text fill="#000000" font-family="sans-serif" font-size="14" lengthAdjust="spacing" textLength="28" x="178.6621" y="745.6504">&#20225;&#19994;</text><rect fill="#F1F1F1" height="37.6094" rx="12.5" ry="12.5" style="stroke:#181818;stroke-width:1.5;" width="62" x="266.6621" y="519.4844"/><text fill="#000000" font-family="sans-serif" font-size="14" lengthAdjust="spacing" textLength="42" x="276.6621" y="544.0176">&#36164;&#26684;&#32602;</text><rect fill="#F1F1F1" height="37.6094" rx="12.5" ry="12.5" style="stroke:#181818;stroke-width:1.5;" width="160" x="378.6621" y="461.875"/><text fill="#000000" font-family="sans-serif" font-size="14" lengthAdjust="spacing" textLength="140" x="388.6621" y="486.4082">&#26242;&#25187;&#35768;&#21487;&#35777;&#20214;&#65288;&#26102;&#38388;&#65289;</text><path d="M328.6621,538.2891 L338.6621,538.2891 C353.6621,538.2891 353.6621,480.6797 368.6621,480.6797 L378.6621,480.6797 " fill="none" style="stroke:#181818;stroke-width:1;"/><rect fill="#F1F1F1" height="37.6094" rx="12.5" ry="12.5" style="stroke:#181818;stroke-width:1.5;" width="160" x="378.6621" y="519.4844"/><text fill="#000000" font-family="sans-serif" font-size="14" lengthAdjust="spacing" textLength="140" x="388.6621" y="544.0176">&#21514;&#38144;&#35768;&#21487;&#35777;&#20214;&#65288;&#26102;&#38388;&#65289;</text><path d="M328.6621,538.2891 L338.6621,538.2891 C353.6621,538.2891 353.6621,538.2891 368.6621,538.2891 L378.6621,538.2891 " fill="none" style="stroke:#181818;stroke-width:1;"/><rect fill="#F1F1F1" height="37.6094" rx="12.5" ry="12.5" style="stroke:#181818;stroke-width:1.5;" width="160" x="378.6621" y="577.0938"/><text fill="#000000" font-family="sans-serif" font-size="14" lengthAdjust="spacing" textLength="140" x="388.6621" y="601.627">&#38477;&#20302;&#36164;&#36136;&#31561;&#32423;&#65288;&#31561;&#32423;&#65289;</text><path d="M328.6621,538.2891 L338.6621,538.2891 C353.6621,538.2891 353.6621,595.8984 368.6621,595.8984 L378.6621,595.8984 " fill="none" style="stroke:#181818;stroke-width:1;"/><path d="M216.6621,739.9219 L226.6621,739.9219 C241.6621,739.9219 241.6621,538.2891 256.6621,538.2891 L266.6621,538.2891 " fill="none" style="stroke:#181818;stroke-width:1;"/><rect fill="#F1F1F1" height="37.6094" rx="12.5" ry="12.5" style="stroke:#181818;stroke-width:1.5;" width="62" x="266.6621" y="807.5313"/><text fill="#000000" font-family="sans-serif" font-size="14" lengthAdjust="spacing" textLength="42" x="276.6621" y="832.0645">&#34892;&#20026;&#32602;</text><rect fill="#F1F1F1" height="37.6094" rx="12.5" ry="12.5" style="stroke:#181818;stroke-width:1.5;" width="76" x="378.6621" y="692.3125"/><text fill="#000000" font-family="sans-serif" font-size="14" lengthAdjust="spacing" textLength="56" x="388.6621" y="716.8457">&#32771;&#34385;&#22240;&#32032;</text><rect fill="#F1F1F1" height="37.6094" rx="12.5" ry="12.5" style="stroke:#181818;stroke-width:1.5;" width="146" x="504.6621" y="634.7031"/><text fill="#000000" font-family="sans-serif" font-size="14" lengthAdjust="spacing" textLength="126" x="514.6621" y="659.2363">&#27963;&#21160;&#65288;&#29983;&#20135;&#12289;&#32463;&#33829;&#65289;</text><path d="M454.6621,711.1172 L464.6621,711.1172 C479.6621,711.1172 479.6621,653.5078 494.6621,653.5078 L504.6621,653.5078 " fill="none" style="stroke:#181818;stroke-width:1;"/><rect fill="#F1F1F1" height="37.6094" rx="12.5" ry="12.5" style="stroke:#181818;stroke-width:1.5;" width="146" x="504.6621" y="692.3125"/><text fill="#000000" font-family="sans-serif" font-size="14" lengthAdjust="spacing" textLength="126" x="514.6621" y="716.8457">&#33539;&#22260;&#65288;&#23616;&#37096;&#12289;&#20840;&#37096;&#65289;</text><path d="M454.6621,711.1172 L464.6621,711.1172 C479.6621,711.1172 479.6621,711.1172 494.6621,711.1172 L504.6621,711.1172 " fill="none" style="stroke:#181818;stroke-width:1;"/><rect fill="#F1F1F1" height="37.6094" rx="12.5" ry="12.5" style="stroke:#181818;stroke-width:1.5;" width="230" x="504.6621" y="749.9219"/><text fill="#000000" font-family="sans-serif" font-size="14" lengthAdjust="spacing" textLength="210" x="514.6621" y="774.4551">&#26102;&#38388;&#26399;&#38480;&#32500;&#24230;&#65288;&#26377;&#26399;&#38480;&#12289;&#27704;&#20037;&#24615;&#65289;</text><path d="M454.6621,711.1172 L464.6621,711.1172 C479.6621,711.1172 479.6621,768.7266 494.6621,768.7266 L504.6621,768.7266 " fill="none" style="stroke:#181818;stroke-width:1;"/><path d="M328.6621,826.3359 L338.6621,826.3359 C353.6621,826.3359 353.6621,711.1172 368.6621,711.1172 L378.6621,711.1172 " fill="none" style="stroke:#181818;stroke-width:1;"/><rect fill="#F1F1F1" height="37.6094" rx="12.5" ry="12.5" style="stroke:#181818;stroke-width:1.5;" width="48" x="378.6621" y="893.9453"/><text fill="#000000" font-family="sans-serif" font-size="14" lengthAdjust="spacing" textLength="28" x="388.6621" y="918.4785">&#31181;&#31867;</text><rect fill="#F1F1F1" height="37.6094" rx="12.5" ry="12.5" style="stroke:#181818;stroke-width:1.5;" width="328" x="476.6621" y="807.5313"/><text fill="#000000" font-family="sans-serif" font-size="14" lengthAdjust="spacing" textLength="308" x="486.6621" y="832.0645">&#32423;&#21035;&#19968;&#65292;&#38480;&#21046;&#24320;&#23637;&#29983;&#20135;&#32463;&#33829;&#27963;&#21160;&#65288;&#23616;&#37096;&#65292;&#26377;&#26399;&#38480;&#65289;</text><path d="M426.6621,912.75 L436.6621,912.75 C451.6621,912.75 451.6621,826.3359 466.6621,826.3359 L476.6621,826.3359 " fill="none" style="stroke:#181818;stroke-width:1;"/><rect fill="#F1F1F1" height="37.6094" rx="12.5" ry="12.5" style="stroke:#181818;stroke-width:1.5;" width="272" x="476.6621" y="865.1406"/><text fill="#000000" font-family="sans-serif" font-size="14" lengthAdjust="spacing" textLength="252" x="486.6621" y="889.6738">&#32423;&#21035;&#20108;&#65292;&#36131;&#20196;&#20572;&#20135;&#20572;&#19994;&#65288;&#20840;&#37096;&#65292;&#26377;&#26399;&#38480;&#65289;</text><path d="M426.6621,912.75 L436.6621,912.75 C451.6621,912.75 451.6621,883.9453 466.6621,883.9453 L476.6621,883.9453 " fill="none" style="stroke:#181818;stroke-width:1;"/><rect fill="#F1F1F1" height="37.6094" rx="12.5" ry="12.5" style="stroke:#181818;stroke-width:1.5;" width="202" x="476.6621" y="922.75"/><text fill="#000000" font-family="sans-serif" font-size="14" lengthAdjust="spacing" textLength="182" x="486.6621" y="947.2832">&#32423;&#21035;&#19977;&#65292;&#36131;&#20196;&#20851;&#38381;&#65288;&#27704;&#20037;&#24615;&#65289;</text><path d="M426.6621,912.75 L436.6621,912.75 C451.6621,912.75 451.6621,941.5547 466.6621,941.5547 L476.6621,941.5547 " fill="none" style="stroke:#181818;stroke-width:1;"/><rect fill="#F1F1F1" height="37.6094" rx="12.5" ry="12.5" style="stroke:#181818;stroke-width:1.5;" width="230" x="476.6621" y="980.3594"/><text fill="#000000" font-family="sans-serif" font-size="14" lengthAdjust="spacing" textLength="210" x="486.6621" y="1004.8926">&#38480;&#21046;&#20174;&#19994;&#65288;&#20840;&#37096;&#65292;&#26377;&#26399;&#38480;&#65292;&#26410;&#26469;&#65289;</text><path d="M426.6621,912.75 L436.6621,912.75 C451.6621,912.75 451.6621,999.1641 466.6621,999.1641 L476.6621,999.1641 " fill="none" style="stroke:#181818;stroke-width:1;"/><path d="M328.6621,826.3359 L338.6621,826.3359 C353.6621,826.3359 353.6621,912.75 368.6621,912.75 L378.6621,912.75 " fill="none" style="stroke:#181818;stroke-width:1;"/><path d="M216.6621,739.9219 L226.6621,739.9219 C241.6621,739.9219 241.6621,826.3359 256.6621,826.3359 L266.6621,826.3359 " fill="none" style="stroke:#181818;stroke-width:1;"/><path d="M118.6621,538.2891 L128.6621,538.2891 C143.6621,538.2891 143.6621,739.9219 158.6621,739.9219 L168.6621,739.9219 " fill="none" style="stroke:#181818;stroke-width:1;"/><rect fill="#F1F1F1" height="37.6094" rx="12.5" ry="12.5" style="stroke:#181818;stroke-width:1.5;" width="48" x="168.6621" y="778.7266"/><text fill="#000000" font-family="sans-serif" font-size="14" lengthAdjust="spacing" textLength="28" x="178.6621" y="803.2598">&#20854;&#20182;</text><path d="M118.6621,538.2891 L128.6621,538.2891 C143.6621,538.2891 143.6621,797.5313 158.6621,797.5313 L168.6621,797.5313 " fill="none" style="stroke:#181818;stroke-width:1;"/><!--SRC=[xLXjJnDP5Fu-l-9kzekGK90bnX12b0hPDKBCWdxTNARNTcGwjvdUrjJD9cM1I15voO981P5LX5LOHBjOsee_nivBF_aNzjoP3anBXwdVQPfcvfpdFkVjddEvN8iphBAef8IYE2O8FqYAA2T210K2xV2DivHCscCoLbWYAhTnM1lWsYnvG0AP8329oGIPcxFwqXVjzQJnETjcR3yn3eg2qDfGZE3JYhIfNVtzelLY2umFnyRM2y2To6ovkVT6Mvn1FJqa6elWk1JlxQr1MAZVaFdehVRfmDZOgep_LSTGIMVrcIqzSsJkJ_hoW5zQAVsjDAjDloiN2dM4hGXaPk5T0pUjIFN7pupbrSP609FxkrpOFhiM9FhkiOzhLHHufZ_RT-UrCRJoQD66QjEBvSBZ1j1Mf7_Or9SE_UnMrb_e7vV1ToFppnbrDMlwsYvFZ8K1iyRIJhamPtvPvmitPylvGWDUMwrdqjhnYXUlcuA7aqcRSv-q-QT6TX9oKTaygkwcSccydC-wK_tVfFwor23ax9zwvfNvRrwRtpVtnyl5ms-bQNtbiBAI-rRAr86rXPdAKhf9S6NrIVdp7DWrSpl6NiOeR0FOUSW8DJi5eccmWz8JvkgYzlobaNlP85rwhgZDx73EfGtOHL_JuqPntbpOglUaIZOxeJq7BwUrWtHbOWVGsjGEF3H6sp7fQnkLrGMZcDCARtYWQnbR0elrz_doqPIUtZuRjwkhwnI5RTv3UTvCmA9D7q9ZQGVBjl-syoT1sMxo4ZjM6tjQ9ItC0jJClIeNNslZQq37V_DPJbGDiqcYVEQKQEfZPMMF1-uLh5De7akvEETj49xVwkidfU7J3XOy5OHh10QjCsolrSxU7ckgzWfLmGq9XrKSHRy3HM1KJX3h2Q4-B8w5LPfGGa4gKnN9KZZ2k1wqVt1i2AjZAWbvmAjQ1nnM2L7EOxO0BdJA1vnoi5J5IjZBQLlfG6C9DIPxGMsb0_KEp1MKIkDUR3yE3FJr1OCECaLacJxmmDfA2oe4ebXIHY8awX0FK8KDImy9-gb3u7fdXFhdqetky837nr9MITtOplDpwORsWKYCmBvhoXafh52LD55NX6v92gcNdr8qQVPSAawcA5Ga2lFAZM8LnIw1BHgL0LF72irZ-oQgqadLJjMCHZ6ZjlCA0siILR0S_5xiRPN4i8gvv7kMNH-bAlFRTiroCGPrPtwTrYHRa4QXtPZNTgYkzABZvLD862eAfEvadZUr_2eP8YJcReXQ0_qmHKTbAHxn7dckzRNM7aGaLfyR3pD3bFbRig8IKrXf8YeHXmWxCOP5KGfvx_cQKUp7V0zQCUxgRtWNoI2-Jn8-NKvbS46b8TSEzEanPuLb9qRZ4fEIvBheQeSpunpBfDb0JaE0Mc1VwgW49oYV_StigUenoCdZYT7xHEJqNjd1IJYtYTeaRrAYq44MDVLZvdblEjsdaxwsSS_lrPgzx7k62F3JqrxzK-JYSdTnkRkut5rSxYukTzzzkRlD_sbsP_0MIX8rpi-iou7EZiwkmDLBmvYX8Pf4bw-WZilTNLtTNLTGS7W4SNMBS6dmbn4Kfmauib483ZHL6atmATyYtCH9Z7vDmCoFacx4towD3BQWuNv7YFgLfAHI9GfpNhXvTz06ePyf6uvHPe6lTBNrIGmD4nNSGdS7XHla7ax839QAD2GfuMvqPsIWxQfm2yw310w3eOSH8GW71LDJtIWuz3y0]--></g></svg>