<svg xmlns="http://www.w3.org/2000/svg" xmlns:xlink="http://www.w3.org/1999/xlink" contentStyleType="text/css" height="809px" preserveAspectRatio="none" style="width:834px;height:809px;background:#FFFFFF;" version="1.1" viewBox="0 0 834 809" width="834px" zoomAndPan="magnify"><title>&#34892;&#25919;&#24378;&#21046;-&#31181;&#31867;</title><defs/><g><text fill="#000000" font-family="sans-serif" font-size="14" font-weight="bold" lengthAdjust="spacing" textLength="91.2871" x="370.1323" y="34.5332">&#34892;&#25919;&#24378;&#21046;-&#31181;&#31867;</text><rect fill="#F1F1F1" height="37.6094" rx="12.5" ry="12.5" style="stroke:#181818;stroke-width:1.5;" width="108.6621" x="10" y="404.2656"/><text fill="#000000" font-family="sans-serif" font-size="14" lengthAdjust="spacing" textLength="88.6621" x="20" y="428.7988">&#34892;&#25919;&#24378;&#21046;-&#31181;&#31867;</text><rect fill="#F1F1F1" height="37.6094" rx="12.5" ry="12.5" style="stroke:#181818;stroke-width:1.5;" width="76" x="168.6621" y="289.0469"/><text fill="#000000" font-family="sans-serif" font-size="14" lengthAdjust="spacing" textLength="56" x="178.6621" y="313.5801">&#24378;&#21046;&#25514;&#26045;</text><rect fill="#90EE90" height="37.6094" rx="12.5" ry="12.5" style="stroke:#181818;stroke-width:1.5;" width="107.8896" x="294.6621" y="145.0234"/><text fill="#000000" font-family="sans-serif" font-size="14" lengthAdjust="spacing" textLength="84" x="304.6621" y="169.5566">&#38480;&#21046;&#20154;&#36523;&#33258;&#30001;</text><rect fill="#F1F1F1" height="37.6094" rx="12.5" ry="12.5" style="stroke:#181818;stroke-width:1.5;" width="118" x="452.5518" y="58.6094"/><text fill="#000000" font-family="sans-serif" font-size="14" lengthAdjust="spacing" textLength="98" x="462.5518" y="83.1426">&#24378;&#21046;&#32422;&#26463;&#33267;&#37202;&#37266;</text><path d="M402.5518,163.8281 L412.5518,163.8281 C427.5518,163.8281 427.5518,77.4141 442.5518,77.4141 L452.5518,77.4141 " fill="none" style="stroke:#181818;stroke-width:1;"/><rect fill="#F1F1F1" height="37.6094" rx="12.5" ry="12.5" style="stroke:#181818;stroke-width:1.5;" width="118" x="452.5518" y="116.2188"/><text fill="#000000" font-family="sans-serif" font-size="14" lengthAdjust="spacing" textLength="98" x="462.5518" y="140.752">&#24378;&#21046;&#39537;&#25955;&#31034;&#23041;&#32773;</text><path d="M402.5518,163.8281 L412.5518,163.8281 C427.5518,163.8281 427.5518,135.0234 442.5518,135.0234 L452.5518,135.0234 " fill="none" style="stroke:#181818;stroke-width:1;"/><rect fill="#F1F1F1" height="37.6094" rx="12.5" ry="12.5" style="stroke:#181818;stroke-width:1.5;" width="76" x="452.5518" y="173.8281"/><text fill="#000000" font-family="sans-serif" font-size="14" lengthAdjust="spacing" textLength="56" x="462.5518" y="198.3613">&#24378;&#21046;&#20256;&#21796;</text><path d="M402.5518,163.8281 L412.5518,163.8281 C427.5518,163.8281 427.5518,192.6328 442.5518,192.6328 L452.5518,192.6328 " fill="none" style="stroke:#181818;stroke-width:1;"/><rect fill="#F1F1F1" height="37.6094" rx="12.5" ry="12.5" style="stroke:#181818;stroke-width:1.5;" width="76" x="452.5518" y="231.4375"/><text fill="#000000" font-family="sans-serif" font-size="14" lengthAdjust="spacing" textLength="56" x="462.5518" y="255.9707">&#24378;&#21046;&#38548;&#31163;</text><path d="M402.5518,163.8281 L412.5518,163.8281 C427.5518,163.8281 427.5518,250.2422 442.5518,250.2422 L452.5518,250.2422 " fill="none" style="stroke:#181818;stroke-width:1;"/><path d="M244.6621,307.8516 L254.6621,307.8516 C269.6621,307.8516 269.6621,163.8281 284.6621,163.8281 L294.6621,163.8281 " fill="none" style="stroke:#181818;stroke-width:1;"/><rect fill="#F1F1F1" height="37.6094" rx="12.5" ry="12.5" style="stroke:#181818;stroke-width:1.5;" width="34" x="294.6621" y="375.4609"/><text fill="#000000" font-family="sans-serif" font-size="14" lengthAdjust="spacing" textLength="14" x="304.6621" y="399.9941">&#29289;</text><rect fill="#90EE90" height="37.6094" rx="12.5" ry="12.5" style="stroke:#181818;stroke-width:1.5;" width="51.8896" x="378.6621" y="289.0469"/><text fill="#000000" font-family="sans-serif" font-size="14" lengthAdjust="spacing" textLength="28" x="388.6621" y="313.5801">&#26597;&#23553;</text><rect fill="#F1F1F1" height="37.6094" rx="12.5" ry="12.5" style="stroke:#181818;stroke-width:1.5;" width="132" x="480.5518" y="289.0469"/><text fill="#000000" font-family="sans-serif" font-size="14" lengthAdjust="spacing" textLength="112" x="490.5518" y="313.5801">&#22330;&#25152;&#12289;&#35774;&#26045;&#25110;&#36130;&#29289;</text><path d="M430.5518,307.8516 L440.5518,307.8516 C455.5518,307.8516 455.5518,307.8516 470.5518,307.8516 L480.5518,307.8516 " fill="none" style="stroke:#181818;stroke-width:1;"/><path d="M328.6621,394.2656 L338.6621,394.2656 C353.6621,394.2656 353.6621,307.8516 368.6621,307.8516 L378.6621,307.8516 " fill="none" style="stroke:#181818;stroke-width:1;"/><rect fill="#90EE90" height="37.6094" rx="12.5" ry="12.5" style="stroke:#181818;stroke-width:1.5;" width="51.8896" x="378.6621" y="346.6563"/><text fill="#000000" font-family="sans-serif" font-size="14" lengthAdjust="spacing" textLength="28" x="388.6621" y="371.1895">&#25187;&#25276;</text><rect fill="#F1F1F1" height="37.6094" rx="12.5" ry="12.5" style="stroke:#181818;stroke-width:1.5;" width="48" x="480.5518" y="346.6563"/><text fill="#000000" font-family="sans-serif" font-size="14" lengthAdjust="spacing" textLength="28" x="490.5518" y="371.1895">&#36130;&#29289;</text><path d="M430.5518,365.4609 L440.5518,365.4609 C455.5518,365.4609 455.5518,365.4609 470.5518,365.4609 L480.5518,365.4609 " fill="none" style="stroke:#181818;stroke-width:1;"/><path d="M328.6621,394.2656 L338.6621,394.2656 C353.6621,394.2656 353.6621,365.4609 368.6621,365.4609 L378.6621,365.4609 " fill="none" style="stroke:#181818;stroke-width:1;"/><rect fill="#90EE90" height="37.6094" rx="12.5" ry="12.5" style="stroke:#181818;stroke-width:1.5;" width="51.8896" x="378.6621" y="433.0703"/><text fill="#000000" font-family="sans-serif" font-size="14" lengthAdjust="spacing" textLength="28" x="388.6621" y="457.6035">&#20923;&#32467;</text><rect fill="#F1F1F1" height="37.6094" rx="12.5" ry="12.5" style="stroke:#181818;stroke-width:1.5;" width="48" x="480.5518" y="404.2656"/><text fill="#000000" font-family="sans-serif" font-size="14" lengthAdjust="spacing" textLength="28" x="490.5518" y="428.7988">&#23384;&#27454;</text><rect fill="#F1F1F1" height="37.6094" rx="12.5" ry="12.5" style="stroke:#181818;stroke-width:1.5;" width="118" x="578.5518" y="404.2656"/><text fill="#000000" font-family="sans-serif" font-size="14" lengthAdjust="spacing" textLength="98" x="588.5518" y="428.7988">&#23558;&#36164;&#37329;&#23384;&#20837;&#38134;&#34892;</text><path d="M528.5518,423.0703 L538.5518,423.0703 C553.5518,423.0703 553.5518,423.0703 568.5518,423.0703 L578.5518,423.0703 " fill="none" style="stroke:#181818;stroke-width:1;"/><path d="M430.5518,451.875 L440.5518,451.875 C455.5518,451.875 455.5518,423.0703 470.5518,423.0703 L480.5518,423.0703 " fill="none" style="stroke:#181818;stroke-width:1;"/><rect fill="#F1F1F1" height="37.6094" rx="12.5" ry="12.5" style="stroke:#181818;stroke-width:1.5;" width="48" x="480.5518" y="461.875"/><text fill="#000000" font-family="sans-serif" font-size="14" lengthAdjust="spacing" textLength="28" x="490.5518" y="486.4082">&#27719;&#27454;</text><rect fill="#F1F1F1" height="37.6094" rx="12.5" ry="12.5" style="stroke:#181818;stroke-width:1.5;" width="244" x="578.5518" y="461.875"/><text fill="#000000" font-family="sans-serif" font-size="14" lengthAdjust="spacing" textLength="224" x="588.5518" y="486.4082">&#23558;&#36164;&#37329;&#20174;&#19968;&#20010;&#36134;&#25143;&#36716;&#31227;&#21040;&#21478;&#19968;&#20010;&#36134;&#25143;</text><path d="M528.5518,480.6797 L538.5518,480.6797 C553.5518,480.6797 553.5518,480.6797 568.5518,480.6797 L578.5518,480.6797 " fill="none" style="stroke:#181818;stroke-width:1;"/><path d="M430.5518,451.875 L440.5518,451.875 C455.5518,451.875 455.5518,480.6797 470.5518,480.6797 L480.5518,480.6797 " fill="none" style="stroke:#181818;stroke-width:1;"/><path d="M328.6621,394.2656 L338.6621,394.2656 C353.6621,394.2656 353.6621,451.875 368.6621,451.875 L378.6621,451.875 " fill="none" style="stroke:#181818;stroke-width:1;"/><path d="M244.6621,307.8516 L254.6621,307.8516 C269.6621,307.8516 269.6621,394.2656 284.6621,394.2656 L294.6621,394.2656 " fill="none" style="stroke:#181818;stroke-width:1;"/><rect fill="#90EE90" height="37.6094" rx="12.5" ry="12.5" style="stroke:#181818;stroke-width:1.5;" width="51.8896" x="294.6621" y="519.4844"/><text fill="#000000" font-family="sans-serif" font-size="14" lengthAdjust="spacing" textLength="28" x="304.6621" y="544.0176">&#20854;&#20182;</text><path d="M244.6621,307.8516 L254.6621,307.8516 C269.6621,307.8516 269.6621,538.2891 284.6621,538.2891 L294.6621,538.2891 " fill="none" style="stroke:#181818;stroke-width:1;"/><path d="M118.6621,423.0703 L128.6621,423.0703 C143.6621,423.0703 143.6621,307.8516 158.6621,307.8516 L168.6621,307.8516 " fill="none" style="stroke:#181818;stroke-width:1;"/><rect fill="#F1F1F1" height="37.6094" rx="12.5" ry="12.5" style="stroke:#181818;stroke-width:1.5;" width="76" x="168.6621" y="663.5078"/><text fill="#000000" font-family="sans-serif" font-size="14" lengthAdjust="spacing" textLength="56" x="178.6621" y="688.041">&#24378;&#21046;&#25191;&#34892;</text><rect fill="#F1F1F1" height="37.6094" rx="12.5" ry="12.5" style="stroke:#181818;stroke-width:1.5;" width="48" x="294.6621" y="605.8984"/><text fill="#000000" font-family="sans-serif" font-size="14" lengthAdjust="spacing" textLength="28" x="304.6621" y="630.4316">&#30452;&#25509;</text><rect fill="#90EE90" height="37.6094" rx="12.5" ry="12.5" style="stroke:#181818;stroke-width:1.5;" width="93.8896" x="392.6621" y="577.0938"/><text fill="#000000" font-family="sans-serif" font-size="14" lengthAdjust="spacing" textLength="70" x="402.6621" y="601.627">&#21010;&#25320;&#65288;&#38065;&#65289;</text><path d="M342.6621,624.7031 L352.6621,624.7031 C367.6621,624.7031 367.6621,595.8984 382.6621,595.8984 L392.6621,595.8984 " fill="none" style="stroke:#181818;stroke-width:1;"/><rect fill="#90EE90" height="37.6094" rx="12.5" ry="12.5" style="stroke:#181818;stroke-width:1.5;" width="120.7275" x="392.6621" y="634.7031"/><text fill="#000000" font-family="sans-serif" font-size="14" lengthAdjust="spacing" textLength="96.8379" x="402.6621" y="659.2363">&#25293;&#21334;&#65288;&#29289;-&gt;&#38065;&#65289;</text><path d="M342.6621,624.7031 L352.6621,624.7031 C367.6621,624.7031 367.6621,653.5078 382.6621,653.5078 L392.6621,653.5078 " fill="none" style="stroke:#181818;stroke-width:1;"/><path d="M244.6621,682.3125 L254.6621,682.3125 C269.6621,682.3125 269.6621,624.7031 284.6621,624.7031 L294.6621,624.7031 " fill="none" style="stroke:#181818;stroke-width:1;"/><rect fill="#F1F1F1" height="37.6094" rx="12.5" ry="12.5" style="stroke:#181818;stroke-width:1.5;" width="48" x="294.6621" y="721.1172"/><text fill="#000000" font-family="sans-serif" font-size="14" lengthAdjust="spacing" textLength="28" x="304.6621" y="745.6504">&#38388;&#25509;</text><rect fill="#90EE90" height="37.6094" rx="12.5" ry="12.5" style="stroke:#181818;stroke-width:1.5;" width="65.8896" x="392.6621" y="692.3125"/><text fill="#000000" font-family="sans-serif" font-size="14" lengthAdjust="spacing" textLength="42" x="402.6621" y="716.8457">&#20195;&#23653;&#34892;</text><path d="M342.6621,739.9219 L352.6621,739.9219 C367.6621,739.9219 367.6621,711.1172 382.6621,711.1172 L392.6621,711.1172 " fill="none" style="stroke:#181818;stroke-width:1;"/><rect fill="#90EE90" height="37.6094" rx="12.5" ry="12.5" style="stroke:#181818;stroke-width:1.5;" width="65.8896" x="392.6621" y="749.9219"/><text fill="#000000" font-family="sans-serif" font-size="14" lengthAdjust="spacing" textLength="42" x="402.6621" y="774.4551">&#25191;&#34892;&#32602;</text><path d="M342.6621,739.9219 L352.6621,739.9219 C367.6621,739.9219 367.6621,768.7266 382.6621,768.7266 L392.6621,768.7266 " fill="none" style="stroke:#181818;stroke-width:1;"/><path d="M244.6621,682.3125 L254.6621,682.3125 C269.6621,682.3125 269.6621,739.9219 284.6621,739.9219 L294.6621,739.9219 " fill="none" style="stroke:#181818;stroke-width:1;"/><path d="M118.6621,423.0703 L128.6621,423.0703 C143.6621,423.0703 143.6621,682.3125 158.6621,682.3125 L168.6621,682.3125 " fill="none" style="stroke:#181818;stroke-width:1;"/><!--SRC=[xLVVJnj747w_lsAhla0acnz5A4884HnG6s4KrIJlwxkDlU5krzhRS-HKbK0gO9f0Mq9fcxPAMm8aDAsmIcbaG_h7r7Usd_8lTEvimnbylekKHn12ziottypEp3TtJ9eI2sbGfXaufoWVKARgbaPGF3u0lwOiw6GWfsCcBKEFkR0Ou6AUFKx1fYYIIfsW-g-FdQr_xPEoNJoErVRNQwMAebphQaRmSmqrRSx6WRDzwfcQviOFNuEvMYxNox_NLmzgMoKqFawCN1QRr9oOE4FwIMhbFUVdP_NLlnhBcusLpQwOnikIy-rExNdPVh5KNrpkYgcU_69lFUz-_EbMRQ_YoxEszl82q7csQnyk1MVRelkfxAmj_hUuLF_p3TpSAMxNZtxhGhQsutnv4aRMzQYzKgbLdeJcySVtpgitbnmjv-5A_Uyl6glV0CfUtcqyEOO-TY5nIgiHIAgLZUhhnUhhW_hHdbFyftxwghPViOk7zbTxVhklkFRoSRMoVVaAPrEpjkzF2Bhnuv6piNkn4CLDvz6BjoV5ncRfxSbQhpbo7gtRwzi0XNB69dhXOKA_wnAhMjcnIxkGLCyeNjgrqwUT86MIWFhQ2fpi5EIu9xK9fMMuIN56O0Dz1jJnj6uHxnD2KrXTo0XkCIt1TIwGJZDPwVh1-xcBrR1O44GBWBUyRN164C9wCNi07xeG0YwqiLnWbWbAkkbiGtEMoEb1qAQp3Gs-cEzIWfj1R1_Ep4nD9H9jP87eEdyGW6qwFQWIDp1byrbYj8bdE9Cf-f2WZmOLrz_kSdWj_UZ10BYvKF1QwiSEzwwb7pe59ZKBSnWf6PfXN908VKLebZ9oqNvE4J5iJogNZ36k4YQ3QiEyfZHRq3IbTS1SO0NnD7DJ1JthshbRSWDBtaoUIOX6ESDwubsnjmN9OO5ToxiSkv7cGeQDNLGkAQ7lCanf4TaIt02voQ1nQ9qCedFRnqW6EWga_cBssbfXdTG8oVa5qHbW6hPeMgTcDdZb-SvtHdkGfV9YRGB2p74P7icxbLh0BCAjLAmHUHOCgohLWcU-OnM7CTy3APe-VSDtbIJnVMA5g9pha8BWccy2GpJMFk75oN6JIfedDrIV72wjSwoJg1SvlmBq0eTI6nIUeExkZp9JhSUWIsvQwVj4TUc3geFpyDmc8Y9ldd9Ga4VDmvZTkaSkz_ccxnHkRwrsp7BeCqI1F-C3hLUHgpV-gpV-gpV-z_V6Vzlzz_fESXRbYJ3THJOK7nuS7ebVxqjXYUPu7WsDei6XiP6HiP5Hb4ZD8zVTh_GbFvb79hTWZoCDjfoWQSkLVhzo2-Sn-jI2HM2GCUH-wvjFzgFKTDk8fbcU2iuC4Bzowswo2K8VSvdASUc1HqTYKrIY516G5hgRL6wIUzZI9HnLkKPPPWpTcP-9NLTcOKbOE0E17cQL16mFAGfZA37tFm00]--></g></svg>