<?xml version="1.0" encoding="us-ascii" standalone="no"?><svg xmlns="http://www.w3.org/2000/svg" xmlns:xlink="http://www.w3.org/1999/xlink" contentStyleType="text/css" height="535px" preserveAspectRatio="none" style="width:526px;height:535px;background:#FFFFFF;" version="1.1" viewBox="0 0 526 535" width="526px" zoomAndPan="magnify"><defs/><g><!--class Vehicle--><g id="elem_Vehicle"><rect codeLine="3" fill="#F1F1F1" height="85.2422" id="Vehicle" rx="2.5" ry="2.5" style="stroke:#181818;stroke-width:0.5;" width="112" x="38.5" y="35"/><ellipse cx="68.8" cy="51" fill="#ADD1B2" rx="11" ry="11" style="stroke:#181818;stroke-width:1.0;"/><path d="M71.5656,46.875 Q71.7219,46.6563 71.9094,46.5469 Q72.0969,46.4375 72.3156,46.4375 Q72.6906,46.4375 72.925,46.7031 Q73.1594,46.9531 73.1594,47.5625 L73.1594,49.0156 Q73.1594,49.625 72.925,49.8906 Q72.6906,50.1563 72.3156,50.1563 Q71.9719,50.1563 71.7688,49.9531 Q71.5656,49.7656 71.4563,49.25 Q71.4094,48.8906 71.2219,48.7031 Q70.8938,48.3281 70.2844,48.1094 Q69.675,47.8906 69.05,47.8906 Q68.2844,47.8906 67.6438,48.2188 Q67.0188,48.5469 66.5188,49.2969 Q66.0344,50.0469 66.0344,51.0781 L66.0344,52.1719 Q66.0344,53.4063 66.925,54.2344 Q67.8156,55.0469 69.4094,55.0469 Q70.3469,55.0469 71.0031,54.7969 Q71.3938,54.6406 71.8156,54.2031 Q72.0813,53.9375 72.2219,53.8594 Q72.3781,53.7813 72.5813,53.7813 Q72.9094,53.7813 73.1594,54.0469 Q73.425,54.2969 73.425,54.6406 Q73.425,54.9844 73.0813,55.3906 Q72.5813,55.9688 71.7844,56.2969 Q70.7063,56.75 69.4094,56.75 Q67.8938,56.75 66.6906,56.125 Q65.7063,55.625 65.0188,54.5625 Q64.3313,53.4844 64.3313,52.2031 L64.3313,51.0469 Q64.3313,49.7188 64.9406,48.5781 Q65.5656,47.4219 66.6594,46.8125 Q67.7531,46.1875 68.9875,46.1875 Q69.7219,46.1875 70.3625,46.3594 Q71.0188,46.5156 71.5656,46.875 Z " fill="#000000"/><text fill="#000000" font-family="sans-serif" font-size="14" lengthAdjust="spacing" textLength="46" x="86.2" y="56.7969">Vehicle</text><line style="stroke:#181818;stroke-width:0.5;" x1="39.5" x2="149.5" y1="67" y2="67"/><text fill="#000000" font-family="sans-serif" font-size="14" lengthAdjust="spacing" textLength="100" x="44.5" y="86.1074">fuelType: String</text><text fill="#000000" font-family="sans-serif" font-size="14" lengthAdjust="spacing" textLength="84" x="44.5" y="104.7285">colour: String</text><line style="stroke:#181818;stroke-width:0.5;" x1="39.5" x2="149.5" y1="112.2422" y2="112.2422"/></g><!--class Car--><g id="elem_Car"><rect codeLine="8" fill="#F1F1F1" height="85.2422" id="Car" rx="2.5" ry="2.5" style="stroke:#181818;stroke-width:0.5;" width="92" x="48.5" y="244"/><ellipse cx="80.15" cy="260" fill="#ADD1B2" rx="11" ry="11" style="stroke:#181818;stroke-width:1.0;"/><path d="M82.9156,255.875 Q83.0719,255.6563 83.2594,255.5469 Q83.4469,255.4375 83.6656,255.4375 Q84.0406,255.4375 84.275,255.7031 Q84.5094,255.9531 84.5094,256.5625 L84.5094,258.0156 Q84.5094,258.625 84.275,258.8906 Q84.0406,259.1563 83.6656,259.1563 Q83.3219,259.1563 83.1188,258.9531 Q82.9156,258.7656 82.8063,258.25 Q82.7594,257.8906 82.5719,257.7031 Q82.2438,257.3281 81.6344,257.1094 Q81.025,256.8906 80.4,256.8906 Q79.6344,256.8906 78.9938,257.2188 Q78.3688,257.5469 77.8688,258.2969 Q77.3844,259.0469 77.3844,260.0781 L77.3844,261.1719 Q77.3844,262.4063 78.275,263.2344 Q79.1656,264.0469 80.7594,264.0469 Q81.6969,264.0469 82.3531,263.7969 Q82.7438,263.6406 83.1656,263.2031 Q83.4313,262.9375 83.5719,262.8594 Q83.7281,262.7813 83.9313,262.7813 Q84.2594,262.7813 84.5094,263.0469 Q84.775,263.2969 84.775,263.6406 Q84.775,263.9844 84.4313,264.3906 Q83.9313,264.9688 83.1344,265.2969 Q82.0563,265.75 80.7594,265.75 Q79.2438,265.75 78.0406,265.125 Q77.0563,264.625 76.3688,263.5625 Q75.6813,262.4844 75.6813,261.2031 L75.6813,260.0469 Q75.6813,258.7188 76.2906,257.5781 Q76.9156,256.4219 78.0094,255.8125 Q79.1031,255.1875 80.3375,255.1875 Q81.0719,255.1875 81.7125,255.3594 Q82.3688,255.5156 82.9156,255.875 Z " fill="#000000"/><text fill="#000000" font-family="sans-serif" font-size="14" lengthAdjust="spacing" textLength="23" x="97.85" y="265.7969">Car</text><line style="stroke:#181818;stroke-width:0.5;" x1="49.5" x2="139.5" y1="276" y2="276"/><text fill="#000000" font-family="sans-serif" font-size="14" lengthAdjust="spacing" textLength="79" x="54.5" y="295.1074">make: String</text><text fill="#000000" font-family="sans-serif" font-size="14" lengthAdjust="spacing" textLength="80" x="54.5" y="313.7285">mode: String</text><line style="stroke:#181818;stroke-width:0.5;" x1="49.5" x2="139.5" y1="321.2422" y2="321.2422"/></g><!--class ElectricCar--><g id="elem_ElectricCar"><rect codeLine="13" fill="#F1F1F1" height="66.6211" id="ElectricCar" rx="2.5" ry="2.5" style="stroke:#181818;stroke-width:0.5;" width="133" x="7" y="443"/><ellipse cx="36.4" cy="459" fill="#ADD1B2" rx="11" ry="11" style="stroke:#181818;stroke-width:1.0;"/><path d="M39.1656,454.875 Q39.3219,454.6563 39.5094,454.5469 Q39.6969,454.4375 39.9156,454.4375 Q40.2906,454.4375 40.525,454.7031 Q40.7594,454.9531 40.7594,455.5625 L40.7594,457.0156 Q40.7594,457.625 40.525,457.8906 Q40.2906,458.1563 39.9156,458.1563 Q39.5719,458.1563 39.3688,457.9531 Q39.1656,457.7656 39.0563,457.25 Q39.0094,456.8906 38.8219,456.7031 Q38.4938,456.3281 37.8844,456.1094 Q37.275,455.8906 36.65,455.8906 Q35.8844,455.8906 35.2438,456.2188 Q34.6188,456.5469 34.1188,457.2969 Q33.6344,458.0469 33.6344,459.0781 L33.6344,460.1719 Q33.6344,461.4063 34.525,462.2344 Q35.4156,463.0469 37.0094,463.0469 Q37.9469,463.0469 38.6031,462.7969 Q38.9938,462.6406 39.4156,462.2031 Q39.6813,461.9375 39.8219,461.8594 Q39.9781,461.7813 40.1813,461.7813 Q40.5094,461.7813 40.7594,462.0469 Q41.025,462.2969 41.025,462.6406 Q41.025,462.9844 40.6813,463.3906 Q40.1813,463.9688 39.3844,464.2969 Q38.3063,464.75 37.0094,464.75 Q35.4938,464.75 34.2906,464.125 Q33.3063,463.625 32.6188,462.5625 Q31.9313,461.4844 31.9313,460.2031 L31.9313,459.0469 Q31.9313,457.7188 32.5406,456.5781 Q33.1656,455.4219 34.2594,454.8125 Q35.3531,454.1875 36.5875,454.1875 Q37.3219,454.1875 37.9625,454.3594 Q38.6188,454.5156 39.1656,454.875 Z " fill="#000000"/><text fill="#000000" font-family="sans-serif" font-size="14" lengthAdjust="spacing" textLength="69" x="53.6" y="464.7969">ElectricCar</text><line style="stroke:#181818;stroke-width:0.5;" x1="8" x2="139" y1="475" y2="475"/><text fill="#000000" font-family="sans-serif" font-size="14" lengthAdjust="spacing" textLength="121" x="13" y="494.1074">batteryType: String</text><line style="stroke:#181818;stroke-width:0.5;" x1="8" x2="139" y1="501.6211" y2="501.6211"/></g><!--class VehicleBuilder--><g id="elem_VehicleBuilder"><rect codeLine="17" fill="#F1F1F1" height="141.1055" id="VehicleBuilder" rx="2.5" ry="2.5" style="stroke:#181818;stroke-width:0.5;" width="271" x="194" y="7"/><ellipse cx="280.25" cy="23" fill="#ADD1B2" rx="11" ry="11" style="stroke:#181818;stroke-width:1.0;"/><path d="M283.0156,18.875 Q283.1719,18.6563 283.3594,18.5469 Q283.5469,18.4375 283.7656,18.4375 Q284.1406,18.4375 284.375,18.7031 Q284.6094,18.9531 284.6094,19.5625 L284.6094,21.0156 Q284.6094,21.625 284.375,21.8906 Q284.1406,22.1563 283.7656,22.1563 Q283.4219,22.1563 283.2188,21.9531 Q283.0156,21.7656 282.9063,21.25 Q282.8594,20.8906 282.6719,20.7031 Q282.3438,20.3281 281.7344,20.1094 Q281.125,19.8906 280.5,19.8906 Q279.7344,19.8906 279.0938,20.2188 Q278.4688,20.5469 277.9688,21.2969 Q277.4844,22.0469 277.4844,23.0781 L277.4844,24.1719 Q277.4844,25.4063 278.375,26.2344 Q279.2656,27.0469 280.8594,27.0469 Q281.7969,27.0469 282.4531,26.7969 Q282.8438,26.6406 283.2656,26.2031 Q283.5313,25.9375 283.6719,25.8594 Q283.8281,25.7813 284.0313,25.7813 Q284.3594,25.7813 284.6094,26.0469 Q284.875,26.2969 284.875,26.6406 Q284.875,26.9844 284.5313,27.3906 Q284.0313,27.9688 283.2344,28.2969 Q282.1563,28.75 280.8594,28.75 Q279.3438,28.75 278.1406,28.125 Q277.1563,27.625 276.4688,26.5625 Q275.7813,25.4844 275.7813,24.2031 L275.7813,23.0469 Q275.7813,21.7188 276.3906,20.5781 Q277.0156,19.4219 278.1094,18.8125 Q279.2031,18.1875 280.4375,18.1875 Q281.1719,18.1875 281.8125,18.3594 Q282.4688,18.5156 283.0156,18.875 Z " fill="#000000"/><text fill="#000000" font-family="sans-serif" font-size="14" lengthAdjust="spacing" textLength="90" x="300.75" y="28.7969">VehicleBuilder</text><line style="stroke:#181818;stroke-width:0.5;" x1="195" x2="464" y1="39" y2="39"/><text fill="#000000" font-family="sans-serif" font-size="14" lengthAdjust="spacing" textLength="100" x="200" y="58.1074">fuelType: String</text><text fill="#000000" font-family="sans-serif" font-size="14" lengthAdjust="spacing" textLength="84" x="200" y="76.7285">colour: String</text><line style="stroke:#181818;stroke-width:0.5;" x1="195" x2="464" y1="84.2422" y2="84.2422"/><text fill="#000000" font-family="sans-serif" font-size="14" lengthAdjust="spacing" textLength="259" x="200" y="103.3496">fuelType(String fuelType): VehicleBuilder</text><text fill="#000000" font-family="sans-serif" font-size="14" lengthAdjust="spacing" textLength="227" x="200" y="121.9707">colour(String colour): VehicleBuilder</text><text fill="#000000" font-family="sans-serif" font-size="14" lengthAdjust="spacing" textLength="94" x="200" y="140.5918">build(): Vehicle</text></g><!--class CarBuilder--><g id="elem_CarBuilder"><rect codeLine="25" fill="#F1F1F1" height="141.1055" id="CarBuilder" rx="2.5" ry="2.5" style="stroke:#181818;stroke-width:0.5;" width="214" x="222.5" y="216"/><ellipse cx="291.75" cy="232" fill="#ADD1B2" rx="11" ry="11" style="stroke:#181818;stroke-width:1.0;"/><path d="M294.5156,227.875 Q294.6719,227.6563 294.8594,227.5469 Q295.0469,227.4375 295.2656,227.4375 Q295.6406,227.4375 295.875,227.7031 Q296.1094,227.9531 296.1094,228.5625 L296.1094,230.0156 Q296.1094,230.625 295.875,230.8906 Q295.6406,231.1563 295.2656,231.1563 Q294.9219,231.1563 294.7188,230.9531 Q294.5156,230.7656 294.4063,230.25 Q294.3594,229.8906 294.1719,229.7031 Q293.8438,229.3281 293.2344,229.1094 Q292.625,228.8906 292,228.8906 Q291.2344,228.8906 290.5938,229.2188 Q289.9688,229.5469 289.4688,230.2969 Q288.9844,231.0469 288.9844,232.0781 L288.9844,233.1719 Q288.9844,234.4063 289.875,235.2344 Q290.7656,236.0469 292.3594,236.0469 Q293.2969,236.0469 293.9531,235.7969 Q294.3438,235.6406 294.7656,235.2031 Q295.0313,234.9375 295.1719,234.8594 Q295.3281,234.7813 295.5313,234.7813 Q295.8594,234.7813 296.1094,235.0469 Q296.375,235.2969 296.375,235.6406 Q296.375,235.9844 296.0313,236.3906 Q295.5313,236.9688 294.7344,237.2969 Q293.6563,237.75 292.3594,237.75 Q290.8438,237.75 289.6406,237.125 Q288.6563,236.625 287.9688,235.5625 Q287.2813,234.4844 287.2813,233.2031 L287.2813,232.0469 Q287.2813,230.7188 287.8906,229.5781 Q288.5156,228.4219 289.6094,227.8125 Q290.7031,227.1875 291.9375,227.1875 Q292.6719,227.1875 293.3125,227.3594 Q293.9688,227.5156 294.5156,227.875 Z " fill="#000000"/><text fill="#000000" font-family="sans-serif" font-size="14" lengthAdjust="spacing" textLength="67" x="312.25" y="237.7969">CarBuilder</text><line style="stroke:#181818;stroke-width:0.5;" x1="223.5" x2="435.5" y1="248" y2="248"/><text fill="#000000" font-family="sans-serif" font-size="14" lengthAdjust="spacing" textLength="79" x="228.5" y="267.1074">make: String</text><text fill="#000000" font-family="sans-serif" font-size="14" lengthAdjust="spacing" textLength="83" x="228.5" y="285.7285">model: String</text><line style="stroke:#181818;stroke-width:0.5;" x1="223.5" x2="435.5" y1="293.2422" y2="293.2422"/><text fill="#000000" font-family="sans-serif" font-size="14" lengthAdjust="spacing" textLength="194" x="228.5" y="312.3496">make(String make): CarBuilder</text><text fill="#000000" font-family="sans-serif" font-size="14" lengthAdjust="spacing" textLength="202" x="228.5" y="330.9707">model(String model): CarBuilder</text><text fill="#000000" font-family="sans-serif" font-size="14" lengthAdjust="spacing" textLength="71" x="228.5" y="349.5918">build(): Car</text></g><!--class ElectricCarBuilder--><g id="elem_ElectricCarBuilder"><rect codeLine="33" fill="#F1F1F1" height="103.8633" id="ElectricCarBuilder" rx="2.5" ry="2.5" style="stroke:#181818;stroke-width:0.5;" width="336" x="183.5" y="425"/><ellipse cx="290.75" cy="441" fill="#ADD1B2" rx="11" ry="11" style="stroke:#181818;stroke-width:1.0;"/><path d="M293.5156,436.875 Q293.6719,436.6563 293.8594,436.5469 Q294.0469,436.4375 294.2656,436.4375 Q294.6406,436.4375 294.875,436.7031 Q295.1094,436.9531 295.1094,437.5625 L295.1094,439.0156 Q295.1094,439.625 294.875,439.8906 Q294.6406,440.1563 294.2656,440.1563 Q293.9219,440.1563 293.7188,439.9531 Q293.5156,439.7656 293.4063,439.25 Q293.3594,438.8906 293.1719,438.7031 Q292.8438,438.3281 292.2344,438.1094 Q291.625,437.8906 291,437.8906 Q290.2344,437.8906 289.5938,438.2188 Q288.9688,438.5469 288.4688,439.2969 Q287.9844,440.0469 287.9844,441.0781 L287.9844,442.1719 Q287.9844,443.4063 288.875,444.2344 Q289.7656,445.0469 291.3594,445.0469 Q292.2969,445.0469 292.9531,444.7969 Q293.3438,444.6406 293.7656,444.2031 Q294.0313,443.9375 294.1719,443.8594 Q294.3281,443.7813 294.5313,443.7813 Q294.8594,443.7813 295.1094,444.0469 Q295.375,444.2969 295.375,444.6406 Q295.375,444.9844 295.0313,445.3906 Q294.5313,445.9688 293.7344,446.2969 Q292.6563,446.75 291.3594,446.75 Q289.8438,446.75 288.6406,446.125 Q287.6563,445.625 286.9688,444.5625 Q286.2813,443.4844 286.2813,442.2031 L286.2813,441.0469 Q286.2813,439.7188 286.8906,438.5781 Q287.5156,437.4219 288.6094,436.8125 Q289.7031,436.1875 290.9375,436.1875 Q291.6719,436.1875 292.3125,436.3594 Q292.9688,436.5156 293.5156,436.875 Z " fill="#000000"/><text fill="#000000" font-family="sans-serif" font-size="14" lengthAdjust="spacing" textLength="113" x="311.25" y="446.7969">ElectricCarBuilder</text><line style="stroke:#181818;stroke-width:0.5;" x1="184.5" x2="518.5" y1="457" y2="457"/><text fill="#000000" font-family="sans-serif" font-size="14" lengthAdjust="spacing" textLength="121" x="189.5" y="476.1074">batteryType: String</text><line style="stroke:#181818;stroke-width:0.5;" x1="184.5" x2="518.5" y1="483.6211" y2="483.6211"/><text fill="#000000" font-family="sans-serif" font-size="14" lengthAdjust="spacing" textLength="324" x="189.5" y="502.7285">batteryType(String batteryType): ElectricCarBuilder</text><text fill="#000000" font-family="sans-serif" font-size="14" lengthAdjust="spacing" textLength="117" x="189.5" y="521.3496">build(): ElectricCar</text></g><!--reverse link Vehicle to Car--><g id="link_Vehicle_Car"><path d="M94.5,138.39 C94.5,174.3 94.5,207.78 94.5,243.67 " fill="none" id="Vehicle-backto-Car" style="stroke:#181818;stroke-width:1.0;"/><polygon fill="none" points="94.5,120.39,88.5,138.39,100.5,138.39,94.5,120.39" style="stroke:#181818;stroke-width:1.0;"/></g><!--reverse link Car to ElectricCar--><g id="link_Car_ElectricCar"><path d="M87.8425,347.1088 C84.0125,381.4088 80.66,411.42 77.14,442.93 " fill="none" id="Car-backto-ElectricCar" style="stroke:#181818;stroke-width:1.0;"/><polygon fill="none" points="89.84,329.22,81.8796,346.443,93.8054,347.7747,89.84,329.22" style="stroke:#181818;stroke-width:1.0;"/></g><!--reverse link VehicleBuilder to CarBuilder--><g id="link_VehicleBuilder_CarBuilder"><path d="M329.5,170.06 C329.5,189.47 329.5,192.41 329.5,211.83 " fill="none" id="VehicleBuilder-backto-CarBuilder" style="stroke:#181818;stroke-width:1.0;"/><polygon fill="none" points="329.5,152.06,323.5,170.06,335.5,170.06,329.5,152.06" style="stroke:#181818;stroke-width:1.0;"/></g><!--reverse link CarBuilder to ElectricCarBuilder--><g id="link_CarBuilder_ElectricCarBuilder"><path d="M340.2274,379.1374 C342.5574,398.9974 342.93,402.24 345.1,420.84 " fill="none" id="CarBuilder-backto-ElectricCarBuilder" style="stroke:#181818;stroke-width:1.0;"/><polygon fill="none" points="338.13,361.26,334.2683,379.8365,346.1865,378.4383,338.13,361.26" style="stroke:#181818;stroke-width:1.0;"/></g><!--reverse link Vehicle to VehicleBuilder--><g id="link_Vehicle_VehicleBuilder"><path codeLine="39" d="M151.5832,123.1078 C165.9332,131.3478 176.97,134.5 193.5,134.5 " fill="none" id="Vehicle-backto-VehicleBuilder" style="stroke:#181818;stroke-width:1.0;"/><polygon fill="#181818" points="146.38,120.12,152.193,128.0704,150.716,122.6098,156.1766,121.1328,146.38,120.12" style="stroke:#181818;stroke-width:1.0;"/></g><!--reverse link Car to CarBuilder--><g id="link_Car_CarBuilder"><path codeLine="40" d="M145.8014,320.9734 C168.9014,334.1534 192.93,343.5 221.5,343.5 " fill="none" id="Car-backto-CarBuilder" style="stroke:#181818;stroke-width:1.0;"/><polygon fill="#181818" points="140.59,318,146.4248,325.9344,144.9328,320.4779,150.3894,318.9859,140.59,318" style="stroke:#181818;stroke-width:1.0;"/></g><!--reverse link ElectricCar to ElectricCarBuilder--><g id="link_ElectricCar_ElectricCarBuilder"><path codeLine="41" d="M79.6319,479.9686 C83.0219,482.2586 133.06,515.5 182.5,515.5 " fill="none" id="ElectricCar-backto-ElectricCarBuilder" style="stroke:#181818;stroke-width:1.0;"/><polygon fill="#181818" points="74.66,476.61,79.8788,484.9625,78.8033,479.4088,84.3569,478.3333,74.66,476.61" style="stroke:#181818;stroke-width:1.0;"/></g><!--SRC=[bP6n3e8m48PtdgAREY1x1mUDJw1nB-K4uXL8AOd6-Ewsa9Qsu23JtT-l__rSDvLINK-ph4FMg47WdhSYuyZwFYrgLaecacHioGsgcYEGTqBqTny0hwyEABaeMJVbAF8Msq4wwMEldfWay5JG5B6DO8_GGhG5B0tE25nBt3SozMIICwL0le8udoZsSQYn0Fb7Uf_RJfhhTpJozGmiEtNhP6xgxNmMhCf6ZJOM_i7guZ1KD6B3c5gFcztdEmunpP9nKRM- -Y1nN4_w_JoHRZDuafwu718cyivDid1Fb8uSIH7kAZsuJSzcCM5ibYDZoYE-]--></g></svg>