<svg xmlns="http://www.w3.org/2000/svg" xmlns:xlink="http://www.w3.org/1999/xlink" contentStyleType="text/css" height="518.4px" preserveAspectRatio="none" style="width:420px;height:518px;background:#FFFFFF;" version="1.1" viewBox="0 0 420 518" width="420px" zoomAndPan="magnify"><defs/><g><rect fill="#90EE90" height="46.3453" rx="15" ry="15" style="stroke:#181818;stroke-width:1.7999999999999998;" width="57.6" x="12" y="235.0359"/><text fill="#000000" font-family="sans-serif" font-size="16.8" lengthAdjust="spacing" textLength="33.6" x="24" y="265.1648">&#36130;&#23500;</text><rect fill="#F1F1F1" height="46.3453" rx="15" ry="15" style="stroke:#181818;stroke-width:1.7999999999999998;" width="74.4" x="129.6" y="24"/><text fill="#000000" font-family="sans-serif" font-size="16.8" lengthAdjust="spacing" textLength="50.4" x="141.6" y="54.1289">&#20449;&#24687;&#24046;</text><rect fill="#F1F1F1" height="46.3453" rx="15" ry="15" style="stroke:#181818;stroke-width:1.7999999999999998;" width="141.6" x="264" y="24"/><text fill="#000000" font-family="sans-serif" font-size="16.8" lengthAdjust="spacing" textLength="117.6" x="276" y="54.1289">&#25105;&#30693;&#36947;&#20320;&#19981;&#30693;&#36947;</text><path d="M204,47.1727 L216,47.1727 C234,47.1727 234,47.1727 252,47.1727 L264,47.1727 " fill="none" style="stroke:#181818;stroke-width:1.2;"/><path d="M69.6,258.2086 L81.6,258.2086 C99.6,258.2086 99.6,47.1727 117.6,47.1727 L129.6,47.1727 " fill="none" style="stroke:#181818;stroke-width:1.2;"/><rect fill="#90EE90" height="46.3453" rx="15" ry="15" style="stroke:#181818;stroke-width:1.7999999999999998;" width="74.4" x="129.6" y="94.3453"/><text fill="#000000" font-family="sans-serif" font-size="16.8" lengthAdjust="spacing" textLength="50.4" x="141.6" y="124.4742">&#35748;&#30693;&#24046;</text><rect fill="#F1F1F1" height="46.3453" rx="15" ry="15" style="stroke:#181818;stroke-width:1.7999999999999998;" width="124.8" x="264" y="94.3453"/><text fill="#000000" font-family="sans-serif" font-size="16.8" lengthAdjust="spacing" textLength="100.8" x="276" y="124.4742">&#25105;&#25026;&#24471;&#20320;&#19981;&#25026;</text><path d="M204,117.518 L216,117.518 C234,117.518 234,117.518 252,117.518 L264,117.518 " fill="none" style="stroke:#181818;stroke-width:1.2;"/><path d="M69.6,258.2086 L81.6,258.2086 C99.6,258.2086 99.6,117.518 117.6,117.518 L129.6,117.518 " fill="none" style="stroke:#181818;stroke-width:1.2;"/><rect fill="#90EE90" height="46.3453" rx="15" ry="15" style="stroke:#181818;stroke-width:1.7999999999999998;" width="74.4" x="129.6" y="199.8633"/><text fill="#000000" font-family="sans-serif" font-size="16.8" lengthAdjust="spacing" textLength="50.4" x="141.6" y="229.9922">&#25191;&#34892;&#24046;</text><rect fill="#F1F1F1" height="46.3453" rx="15" ry="15" style="stroke:#181818;stroke-width:1.7999999999999998;" width="91.2" x="264" y="164.6906"/><text fill="#000000" font-family="sans-serif" font-size="16.8" lengthAdjust="spacing" textLength="67.2" x="276" y="194.8195">&#20320;&#25105;&#37117;&#25026;</text><path d="M204,223.0359 L216,223.0359 C234,223.0359 234,187.8633 252,187.8633 L264,187.8633 " fill="none" style="stroke:#181818;stroke-width:1.2;"/><rect fill="#F1F1F1" height="46.3453" rx="15" ry="15" style="stroke:#181818;stroke-width:1.7999999999999998;" width="108" x="264" y="235.0359"/><text fill="#000000" font-family="sans-serif" font-size="16.8" lengthAdjust="spacing" textLength="84" x="276" y="265.1648">&#20320;&#19981;&#20570;&#25105;&#20570;</text><path d="M204,223.0359 L216,223.0359 C234,223.0359 234,258.2086 252,258.2086 L264,258.2086 " fill="none" style="stroke:#181818;stroke-width:1.2;"/><path d="M69.6,258.2086 L81.6,258.2086 C99.6,258.2086 99.6,223.0359 117.6,223.0359 L129.6,223.0359 " fill="none" style="stroke:#181818;stroke-width:1.2;"/><rect fill="#90EE90" height="46.3453" rx="15" ry="15" style="stroke:#181818;stroke-width:1.7999999999999998;" width="74.4" x="129.6" y="340.5539"/><text fill="#000000" font-family="sans-serif" font-size="16.8" lengthAdjust="spacing" textLength="50.4" x="141.6" y="370.6828">&#31454;&#20105;&#24046;</text><rect fill="#F1F1F1" height="46.3453" rx="15" ry="15" style="stroke:#181818;stroke-width:1.7999999999999998;" width="91.2" x="264" y="305.3812"/><text fill="#000000" font-family="sans-serif" font-size="16.8" lengthAdjust="spacing" textLength="67.2" x="276" y="335.5102">&#20320;&#25105;&#37117;&#20570;</text><path d="M204,363.7266 L216,363.7266 C234,363.7266 234,328.5539 252,328.5539 L264,328.5539 " fill="none" style="stroke:#181818;stroke-width:1.2;"/><rect fill="#F1F1F1" height="46.3453" rx="15" ry="15" style="stroke:#181818;stroke-width:1.7999999999999998;" width="141.6" x="264" y="375.7266"/><text fill="#000000" font-family="sans-serif" font-size="16.8" lengthAdjust="spacing" textLength="117.6" x="276" y="405.8555">&#20294;&#25105;&#20570;&#30340;&#27604;&#20320;&#22909;</text><path d="M204,363.7266 L216,363.7266 C234,363.7266 234,398.8992 252,398.8992 L264,398.8992 " fill="none" style="stroke:#181818;stroke-width:1.2;"/><path d="M69.6,258.2086 L81.6,258.2086 C99.6,258.2086 99.6,363.7266 117.6,363.7266 L129.6,363.7266 " fill="none" style="stroke:#181818;stroke-width:1.2;"/><rect fill="#F1F1F1" height="46.3453" rx="15" ry="15" style="stroke:#181818;stroke-width:1.7999999999999998;" width="74.4" x="129.6" y="446.0719"/><text fill="#000000" font-family="sans-serif" font-size="16.8" lengthAdjust="spacing" textLength="50.4" x="141.6" y="476.2008">&#26435;&#21147;&#24046;</text><rect fill="#F1F1F1" height="46.3453" rx="15" ry="15" style="stroke:#181818;stroke-width:1.7999999999999998;" width="141.6" x="264" y="446.0719"/><text fill="#000000" font-family="sans-serif" font-size="16.8" lengthAdjust="spacing" textLength="117.6" x="276" y="476.2008">&#26435;&#21147;&#19982;&#21033;&#30410;&#25346;&#38057;</text><path d="M204,469.2445 L216,469.2445 C234,469.2445 234,469.2445 252,469.2445 L264,469.2445 " fill="none" style="stroke:#181818;stroke-width:1.2;"/><path d="M69.6,258.2086 L81.6,258.2086 C99.6,258.2086 99.6,469.2445 117.6,469.2445 L129.6,469.2445 " fill="none" style="stroke:#181818;stroke-width:1.2;"/><!--SRC=[TP1TIm9158RlvrSSw4O5HINIl9Aq85EA_BY9BYQTjW6TbNLMw5ADKh6W3mYKFema9D2R80ciFxExwhzeSjiYgxaOphplUTwPES42nmhFKPR9uJn2ZgsvB9NskAGGmhPX_7Idzni8n7A0zjOsIdtzkJSzcvfHFHtTT2QbSsrugmsEpThidqdgtGlp5smSbVNNInCMzL-aKNiOjni_IG48U58PMioNB7BqKbEOOlyhRVHuhRtK_acp64i-D7D6pGEZVo6wzCxmSnR6LKMljsQ-CzMqmObUxOvQTQDHdfnr4GeICLjhlXjPp7Wo5eKYKGfKPk1nUTtUUPVF5iSSuYGFRXzu5WCUVy3ZWr0y0H-s7TbYgmaeoAgI9f2X1QxG7PKBteuYk8XXKsMSvaW0rlE4HS9hbW3Bh4WLcUK8uoYIYdqtBCmxb-Z7ZOfu2QHYA4nsiPhbWaZB6Sga02GJAqu_Yc8cgLWIsOIXa2nobNtXnTy1]--></g></svg>