<svg xmlns="http://www.w3.org/2000/svg" xmlns:xlink="http://www.w3.org/1999/xlink" contentStyleType="text/css" height="471px" preserveAspectRatio="none" style="width:1103px;height:471px;background:#FFFFFF;" version="1.1" viewBox="0 0 1103 471" width="1103px" zoomAndPan="magnify"><title>&#36130;&#20135;&#29359;&#32618;</title><defs/><g><text fill="#000000" font-family="sans-serif" font-size="14" font-weight="bold" lengthAdjust="spacing" textLength="57.75" x="521.4834" y="35.1074">&#36130;&#20135;&#29359;&#32618;</text><rect fill="#F1F1F1" height="38.6211" rx="12.5" ry="12.5" style="stroke:#181818;stroke-width:1.5;" width="76" x="10" y="235.4844"/><text fill="#000000" font-family="sans-serif" font-size="14" lengthAdjust="spacing" textLength="56" x="20" y="260.5918">&#36130;&#20135;&#29359;&#32618;</text><rect fill="#F1F1F1" height="38.6211" rx="12.5" ry="12.5" style="stroke:#181818;stroke-width:1.5;" width="76" x="136" y="235.4844"/><text fill="#000000" font-family="sans-serif" font-size="14" lengthAdjust="spacing" textLength="56" x="146" y="260.5918">&#26159;&#21542;&#21344;&#26377;</text><rect fill="#F1F1F1" height="38.6211" rx="12.5" ry="12.5" style="stroke:#181818;stroke-width:1.5;" width="62" x="262" y="59.6211"/><text fill="#000000" font-family="sans-serif" font-size="14" lengthAdjust="spacing" textLength="42" x="272" y="84.7285">&#19981;&#21344;&#26377;</text><rect fill="#90EE90" height="38.6211" rx="12.5" ry="12.5" style="stroke:#181818;stroke-width:1.5;" width="104" x="374" y="59.6211"/><text fill="#000000" font-family="sans-serif" font-size="14" lengthAdjust="spacing" textLength="84" x="384" y="84.7285">&#25925;&#24847;&#27585;&#22351;&#36130;&#29289;</text><path d="M324,78.9316 L334,78.9316 C349,78.9316 349,78.9316 364,78.9316 L374,78.9316 " fill="none" style="stroke:#181818;stroke-width:1.0;"/><path d="M212,254.7949 L222,254.7949 C237,254.7949 237,78.9316 252,78.9316 L262,78.9316 " fill="none" style="stroke:#181818;stroke-width:1.0;"/><rect fill="#F1F1F1" height="38.6211" rx="12.5" ry="12.5" style="stroke:#181818;stroke-width:1.5;" width="123.8584" x="262" y="264.7949"/><text fill="#000000" font-family="sans-serif" font-size="14" lengthAdjust="spacing" textLength="103.8584" x="272" y="289.9023">&#21344;&#26377; &#8594; &#26159;&#21542;&#36716;&#31227;</text><rect fill="#F1F1F1" height="38.6211" rx="12.5" ry="12.5" style="stroke:#181818;stroke-width:1.5;" width="62" x="435.8584" y="118.2422"/><text fill="#000000" font-family="sans-serif" font-size="14" lengthAdjust="spacing" textLength="42" x="445.8584" y="143.3496">&#19981;&#36716;&#31227;</text><rect fill="#90EE90" height="38.6211" rx="12.5" ry="12.5" style="stroke:#181818;stroke-width:1.5;" width="62" x="547.8584" y="118.2422"/><text fill="#000000" font-family="sans-serif" font-size="14" lengthAdjust="spacing" textLength="42" x="557.8584" y="143.3496">&#20405;&#21344;&#32618;</text><path d="M497.8584,137.5527 L507.8584,137.5527 C522.8584,137.5527 522.8584,137.5527 537.8584,137.5527 L547.8584,137.5527 " fill="none" style="stroke:#181818;stroke-width:1.0;"/><path d="M385.8584,284.1055 L395.8584,284.1055 C410.8584,284.1055 410.8584,137.5527 425.8584,137.5527 L435.8584,137.5527 " fill="none" style="stroke:#181818;stroke-width:1.0;"/><rect fill="#F1F1F1" height="38.6211" rx="12.5" ry="12.5" style="stroke:#181818;stroke-width:1.5;" width="109.8584" x="435.8584" y="294.1055"/><text fill="#000000" font-family="sans-serif" font-size="14" lengthAdjust="spacing" textLength="89.8584" x="445.8584" y="319.2129">&#36716;&#31227; &#8594; &#35841;&#36716;&#31227;</text><rect fill="#F1F1F1" height="38.6211" rx="12.5" ry="12.5" style="stroke:#181818;stroke-width:1.5;" width="62" x="595.7168" y="206.1738"/><text fill="#000000" font-family="sans-serif" font-size="14" lengthAdjust="spacing" textLength="42" x="605.7168" y="231.2813">&#34987;&#23475;&#20154;</text><rect fill="#90EE90" height="38.6211" rx="12.5" ry="12.5" style="stroke:#181818;stroke-width:1.5;" width="118" x="707.7168" y="176.8633"/><text fill="#000000" font-family="sans-serif" font-size="14" lengthAdjust="spacing" textLength="98" x="717.7168" y="201.9707">&#35784;&#39575;&#32618;&#65288;&#34987;&#39575;&#65289;</text><path d="M657.7168,225.4844 L667.7168,225.4844 C682.7168,225.4844 682.7168,196.1738 697.7168,196.1738 L707.7168,196.1738 " fill="none" style="stroke:#181818;stroke-width:1.0;"/><rect fill="#90EE90" height="38.6211" rx="12.5" ry="12.5" style="stroke:#181818;stroke-width:1.5;" width="146" x="707.7168" y="235.4844"/><text fill="#000000" font-family="sans-serif" font-size="14" lengthAdjust="spacing" textLength="126" x="717.7168" y="260.5918">&#25970;&#35784;&#21202;&#32034;&#32618;&#65288;&#34987;&#36843;&#65289;</text><path d="M657.7168,225.4844 L667.7168,225.4844 C682.7168,225.4844 682.7168,254.7949 697.7168,254.7949 L707.7168,254.7949 " fill="none" style="stroke:#181818;stroke-width:1.0;"/><path d="M545.7168,313.416 L555.7168,313.416 C570.7168,313.416 570.7168,225.4844 585.7168,225.4844 L595.7168,225.4844 " fill="none" style="stroke:#181818;stroke-width:1.0;"/><rect fill="#F1F1F1" height="38.6211" rx="12.5" ry="12.5" style="stroke:#181818;stroke-width:1.5;" width="62" x="595.7168" y="352.7266"/><text fill="#000000" font-family="sans-serif" font-size="14" lengthAdjust="spacing" textLength="42" x="605.7168" y="377.834">&#29359;&#32618;&#20154;</text><rect fill="#F1F1F1" height="38.6211" rx="12.5" ry="12.5" style="stroke:#181818;stroke-width:1.5;" width="104" x="707.7168" y="352.7266"/><text fill="#000000" font-family="sans-serif" font-size="14" lengthAdjust="spacing" textLength="84" x="717.7168" y="377.834">&#25163;&#27573;&#26292;&#21147;&#31243;&#24230;</text><rect fill="#90EE90" height="38.6211" rx="12.5" ry="12.5" style="stroke:#181818;stroke-width:1.5;" width="230" x="861.7168" y="294.1055"/><text fill="#000000" font-family="sans-serif" font-size="14" lengthAdjust="spacing" textLength="210" x="871.7168" y="319.2129">&#30423;&#31363;&#32618;&#65288;&#23545;&#29289;&#24179;&#21644;&#65292;&#23545;&#20154;&#27809;&#21361;&#38505;&#65289;</text><path d="M811.7168,372.0371 L821.7168,372.0371 C836.7168,372.0371 836.7168,313.416 851.7168,313.416 L861.7168,313.416 " fill="none" style="stroke:#181818;stroke-width:1.0;"/><rect fill="#90EE90" height="38.6211" rx="12.5" ry="12.5" style="stroke:#181818;stroke-width:1.5;" width="230" x="861.7168" y="352.7266"/><text fill="#000000" font-family="sans-serif" font-size="14" lengthAdjust="spacing" textLength="210" x="871.7168" y="377.834">&#25250;&#22842;&#32618;&#65288;&#23545;&#29289;&#26292;&#21147;&#65292;&#23545;&#20154;&#26377;&#21361;&#38505;&#65289;</text><path d="M811.7168,372.0371 L821.7168,372.0371 C836.7168,372.0371 836.7168,372.0371 851.7168,372.0371 L861.7168,372.0371 " fill="none" style="stroke:#181818;stroke-width:1.0;"/><rect fill="#90EE90" height="38.6211" rx="12.5" ry="12.5" style="stroke:#181818;stroke-width:1.5;" width="216" x="861.7168" y="411.3477"/><text fill="#000000" font-family="sans-serif" font-size="14" lengthAdjust="spacing" textLength="196" x="871.7168" y="436.4551">&#25250;&#21163;&#32618;&#65288;&#23545;&#20154;&#26292;&#21147;&#65292;&#21387;&#21046;&#21453;&#25239;&#65289;</text><path d="M811.7168,372.0371 L821.7168,372.0371 C836.7168,372.0371 836.7168,430.6582 851.7168,430.6582 L861.7168,430.6582 " fill="none" style="stroke:#181818;stroke-width:1.0;"/><path d="M657.7168,372.0371 L667.7168,372.0371 C682.7168,372.0371 682.7168,372.0371 697.7168,372.0371 L707.7168,372.0371 " fill="none" style="stroke:#181818;stroke-width:1.0;"/><path d="M545.7168,313.416 L555.7168,313.416 C570.7168,313.416 570.7168,372.0371 585.7168,372.0371 L595.7168,372.0371 " fill="none" style="stroke:#181818;stroke-width:1.0;"/><path d="M385.8584,284.1055 L395.8584,284.1055 C410.8584,284.1055 410.8584,313.416 425.8584,313.416 L435.8584,313.416 " fill="none" style="stroke:#181818;stroke-width:1.0;"/><path d="M212,254.7949 L222,254.7949 C237,254.7949 237,284.1055 252,284.1055 L262,284.1055 " fill="none" style="stroke:#181818;stroke-width:1.0;"/><path d="M86,254.7949 L96,254.7949 C111,254.7949 111,254.7949 126,254.7949 L136,254.7949 " fill="none" style="stroke:#181818;stroke-width:1.0;"/><!--SRC=[xPHTJnD158RlvrUCyGP8MYWX5fk6D2qs4Maqjd0_TCTrmdQscSvY6iC5GGrjgHWIWmecsXWGC5JvC591_ujXTiiLVy7fVa3vM8YtXhtQEUzptdDcTlR42XmndYDKoQ4y03S8pMg6Wc4ms5tWHGrtjwI0r0BsCaYCd0O09rp3iBbTEsYiMEMwjRy6GDVfDPHF5pJVrCMhPL7zO2wLx90JFlXHFHDpyTVFpMTpPdrAl9-JRbPfDHfL6SPqOA0jsqc5VrxCk_xD_I_MoiypNhB61N5N-xKZJMIRv-qTmCcqIpI_JldwD6lhOcFheD4ufxbwVUPmRK7METgRaQnyFzehNLop_H0sPPwep5lo1BpKvk_rIrExe7Fk_hsOfOgviME-snRbHUjpHJIMBmHTiyK5QstQgIxgk_93YDqjCJzxj3ShbxA8kVbHLByTlbszSaDkzN9DV6gq6pgTd1WkbVxPiBn-RDXoE3PyMH4ptyLSrIoVFcy0ObXUTE-onqxV_QXzmmU06nWaI6Ke1v_A9e9Zce7jDmZZA3kkCjsWIaBNT0OreZxcBLsgaorMGMoSOSK7TrKFjbkxpDa6skZY5N3HOtM6gEhNj2DwQDvWUSqFTKGFzTzOswQONl1pkvbCnkE9X4SMiQRfJtnOHxJHIH3jTZ_FzV2v7Zx_mV1ve27AHrB3S0Ap0j4f30LxUthxWk6EDE8mZVEm9mn3joEX_aWe31Ff36p9dQ0ZTJS32xh1iXWgfC0P6JEupEy4GsW2mOS6vII78_1-7jEXmNjU0DwX4uJfD8Sf1qEZgHFWLbyWJbeLcUm4ZgR087w438tBZAok4Af6u4Wc6UW7mt9a64YLtd8W9UHlobbHQkc_]--></g></svg>