<svg xmlns="http://www.w3.org/2000/svg" xmlns:xlink="http://www.w3.org/1999/xlink" contentStyleType="text/css" height="647px" preserveAspectRatio="none" style="width:826px;height:647px;background:#FFFFFF;" version="1.1" viewBox="0 0 826 647" width="826px" zoomAndPan="magnify"><title>&#25215;&#35834;&#30340;&#26435;&#38480;&#19982;&#33539;&#22260;</title><defs/><g><text fill="#000000" font-family="sans-serif" font-size="14" font-weight="bold" lengthAdjust="spacing" textLength="115.5" x="353.75" y="35.1074">&#25215;&#35834;&#30340;&#26435;&#38480;&#19982;&#33539;&#22260;</text><rect fill="#F1F1F1" height="38.6211" rx="12.5" ry="12.5" style="stroke:#181818;stroke-width:1.5;" width="132" x="10" y="323.416"/><text fill="#000000" font-family="sans-serif" font-size="14" lengthAdjust="spacing" textLength="112" x="20" y="348.5234">&#25215;&#35834;&#30340;&#26435;&#38480;&#19982;&#33539;&#22260;</text><rect fill="#F1F1F1" height="38.6211" rx="12.5" ry="12.5" style="stroke:#181818;stroke-width:1.5;" width="76" x="192" y="88.9316"/><text fill="#000000" font-family="sans-serif" font-size="14" lengthAdjust="spacing" textLength="56" x="202" y="114.0391">&#22788;&#20998;&#26435;&#38480;</text><rect fill="#90EE90" height="38.6211" rx="12.5" ry="12.5" style="stroke:#181818;stroke-width:1.5;" width="48" x="318" y="59.6211"/><text fill="#000000" font-family="sans-serif" font-size="14" lengthAdjust="spacing" textLength="28" x="328" y="84.7285">&#25105;&#30340;</text><path d="M268,108.2422 L278,108.2422 C293,108.2422 293,78.9316 308,78.9316 L318,78.9316 " fill="none" style="stroke:#181818;stroke-width:1.0;"/><rect fill="#FF6347" height="38.6211" rx="12.5" ry="12.5" style="stroke:#181818;stroke-width:1.5;" width="62" x="318" y="118.2422"/><text fill="#000000" font-family="sans-serif" font-size="14" lengthAdjust="spacing" textLength="42" x="328" y="143.3496">&#21035;&#20154;&#30340;</text><path d="M268,108.2422 L278,108.2422 C293,108.2422 293,137.5527 308,137.5527 L318,137.5527 " fill="none" style="stroke:#181818;stroke-width:1.0;"/><path d="M142,342.7266 L152,342.7266 C167,342.7266 167,108.2422 182,108.2422 L192,108.2422 " fill="none" style="stroke:#181818;stroke-width:1.0;"/><rect fill="#F1F1F1" height="38.6211" rx="12.5" ry="12.5" style="stroke:#181818;stroke-width:1.5;" width="48" x="192" y="294.1055"/><text fill="#000000" font-family="sans-serif" font-size="14" lengthAdjust="spacing" textLength="28" x="202" y="319.2129">&#38480;&#24230;</text><rect fill="#90EE90" height="38.6211" rx="12.5" ry="12.5" style="stroke:#181818;stroke-width:1.5;" width="48" x="290" y="176.8633"/><text fill="#000000" font-family="sans-serif" font-size="14" lengthAdjust="spacing" textLength="28" x="300" y="201.9707">&#36130;&#20135;</text><path d="M240,313.416 L250,313.416 C265,313.416 265,196.1738 280,196.1738 L290,196.1738 " fill="none" style="stroke:#181818;stroke-width:1.0;"/><rect fill="#90EE90" height="38.6211" rx="12.5" ry="12.5" style="stroke:#181818;stroke-width:1.5;" width="48" x="290" y="235.4844"/><text fill="#000000" font-family="sans-serif" font-size="14" lengthAdjust="spacing" textLength="28" x="300" y="260.5918">&#21517;&#35465;</text><path d="M240,313.416 L250,313.416 C265,313.416 265,254.7949 280,254.7949 L290,254.7949 " fill="none" style="stroke:#181818;stroke-width:1.0;"/><rect fill="#90EE90" height="38.6211" rx="12.5" ry="12.5" style="stroke:#181818;stroke-width:1.5;" width="48" x="290" y="294.1055"/><text fill="#000000" font-family="sans-serif" font-size="14" lengthAdjust="spacing" textLength="28" x="300" y="319.2129">&#33258;&#30001;</text><path d="M240,313.416 L250,313.416 C265,313.416 265,313.416 280,313.416 L290,313.416 " fill="none" style="stroke:#181818;stroke-width:1.0;"/><rect fill="#FFA500" height="38.6211" rx="12.5" ry="12.5" style="stroke:#181818;stroke-width:1.5;" width="62" x="290" y="352.7266"/><text fill="#000000" font-family="sans-serif" font-size="14" lengthAdjust="spacing" textLength="42" x="300" y="377.834">&#36523;&#20307;&#26435;</text><rect fill="#90EE90" height="38.6211" rx="12.5" ry="12.5" style="stroke:#181818;stroke-width:1.5;" width="80.6621" x="402" y="294.1055"/><text fill="#000000" font-family="sans-serif" font-size="14" lengthAdjust="spacing" textLength="60.6621" x="412" y="319.2129">&#36731;&#20260;-&#21487;&#20197;</text><rect fill="#F1F1F1" height="38.6211" rx="12.5" ry="12.5" style="stroke:#181818;stroke-width:1.5;" width="90" x="532.6621" y="294.1055"/><text fill="#000000" font-family="sans-serif" font-size="14" lengthAdjust="spacing" textLength="70" x="542.6621" y="319.2129">&#30733;&#20260;&#23567;&#25163;&#25351;</text><path d="M482.6621,313.416 L492.6621,313.416 C507.6621,313.416 507.6621,313.416 522.6621,313.416 L532.6621,313.416 " fill="none" style="stroke:#181818;stroke-width:1.0;"/><path d="M352,372.0371 L362,372.0371 C377,372.0371 377,313.416 392,313.416 L402,313.416 " fill="none" style="stroke:#181818;stroke-width:1.0;"/><rect fill="#FF6347" height="38.6211" rx="12.5" ry="12.5" style="stroke:#181818;stroke-width:1.5;" width="94.6621" x="402" y="352.7266"/><text fill="#000000" font-family="sans-serif" font-size="14" lengthAdjust="spacing" textLength="74.6621" x="412" y="377.834">&#37325;&#20260;-&#19981;&#21487;&#20197;</text><path d="M352,372.0371 L362,372.0371 C377,372.0371 377,372.0371 392,372.0371 L402,372.0371 " fill="none" style="stroke:#181818;stroke-width:1.0;"/><rect fill="#90EE90" height="38.6211" rx="12.5" ry="12.5" style="stroke:#181818;stroke-width:1.5;" width="174" x="402" y="411.3477"/><text fill="#000000" font-family="sans-serif" font-size="14" lengthAdjust="spacing" textLength="154" x="412" y="436.4551">&#25215;&#35834;&#37325;&#20260;&#65292;&#20445;&#25252;&#37325;&#22823;&#27861;&#30410;</text><rect fill="#F1F1F1" height="38.6211" rx="12.5" ry="12.5" style="stroke:#181818;stroke-width:1.5;" width="188" x="626" y="411.3477"/><text fill="#000000" font-family="sans-serif" font-size="14" lengthAdjust="spacing" textLength="168" x="636" y="436.4551">&#25688;&#21462;&#32925;&#65292;&#25405;&#25937;&#20854;&#20182;&#30149;&#20154;&#29983;&#21629;</text><path d="M576,430.6582 L586,430.6582 C601,430.6582 601,430.6582 616,430.6582 L626,430.6582 " fill="none" style="stroke:#181818;stroke-width:1.0;"/><path d="M352,372.0371 L362,372.0371 C377,372.0371 377,430.6582 392,430.6582 L402,430.6582 " fill="none" style="stroke:#181818;stroke-width:1.0;"/><path d="M240,313.416 L250,313.416 C265,313.416 265,372.0371 280,372.0371 L290,372.0371 " fill="none" style="stroke:#181818;stroke-width:1.0;"/><rect fill="#FF6347" height="38.6211" rx="12.5" ry="12.5" style="stroke:#181818;stroke-width:1.5;" width="48" x="290" y="411.3477"/><text fill="#000000" font-family="sans-serif" font-size="14" lengthAdjust="spacing" textLength="28" x="300" y="436.4551">&#29983;&#21629;</text><path d="M240,313.416 L250,313.416 C265,313.416 265,430.6582 280,430.6582 L290,430.6582 " fill="none" style="stroke:#181818;stroke-width:1.0;"/><path d="M142,342.7266 L152,342.7266 C167,342.7266 167,313.416 182,313.416 L192,313.416 " fill="none" style="stroke:#181818;stroke-width:1.0;"/><rect fill="#F1F1F1" height="38.6211" rx="12.5" ry="12.5" style="stroke:#181818;stroke-width:1.5;" width="48" x="192" y="528.5898"/><text fill="#000000" font-family="sans-serif" font-size="14" lengthAdjust="spacing" textLength="28" x="202" y="553.6973">&#33539;&#22260;</text><rect fill="#90EE90" height="38.6211" rx="12.5" ry="12.5" style="stroke:#181818;stroke-width:1.5;" width="104" x="290" y="469.9688"/><text fill="#000000" font-family="sans-serif" font-size="14" lengthAdjust="spacing" textLength="84" x="300" y="495.0762">&#22312;&#25215;&#35834;&#33539;&#22260;&#20869;</text><path d="M240,547.9004 L250,547.9004 C265,547.9004 265,489.2793 280,489.2793 L290,489.2793 " fill="none" style="stroke:#181818;stroke-width:1.0;"/><rect fill="#FF6347" height="38.6211" rx="12.5" ry="12.5" style="stroke:#181818;stroke-width:1.5;" width="104" x="290" y="528.5898"/><text fill="#000000" font-family="sans-serif" font-size="14" lengthAdjust="spacing" textLength="84" x="300" y="553.6973">&#36229;&#20986;&#25215;&#35834;&#33539;&#22260;</text><text fill="#000000" font-family="sans-serif" font-size="14" lengthAdjust="spacing" textLength="154" x="447" y="544.3867">&#30002;&#20165;&#25215;&#35834;&#35753;&#20057;&#25171;&#19968;&#32819;&#20809;&#65292;</text><text fill="#000000" font-family="sans-serif" font-size="14" lengthAdjust="spacing" textLength="252" x="447" y="563.0078">&#32780;&#20057;&#23558;&#30002;&#25171;&#25104;&#33041;&#38663;&#33633;&#65292;&#20057;&#26500;&#25104;&#25925;&#24847;&#20260;&#23475;&#32618;</text><path d="M394,547.9004 L404,547.9004 C419,547.9004 419,547.9004 434,547.9004 L444,547.9004 " fill="none" style="stroke:#181818;stroke-width:1.0;"/><path d="M240,547.9004 L250,547.9004 C265,547.9004 265,547.9004 280,547.9004 L290,547.9004 " fill="none" style="stroke:#181818;stroke-width:1.0;"/><rect fill="#FF6347" height="38.6211" rx="12.5" ry="12.5" style="stroke:#181818;stroke-width:1.5;" width="104" x="290" y="587.2109"/><text fill="#000000" font-family="sans-serif" font-size="14" lengthAdjust="spacing" textLength="84" x="300" y="612.3184">&#35302;&#29359;&#20854;&#23427;&#29359;&#32618;</text><text fill="#000000" font-family="sans-serif" font-size="14" lengthAdjust="spacing" textLength="168" x="447" y="593.6973">&#30002;&#21516;&#24847;&#20057;&#28903;&#27585;&#33258;&#24049;&#30340;&#25151;&#23627;&#65292;</text><text fill="#000000" font-family="sans-serif" font-size="14" lengthAdjust="spacing" textLength="196" x="447" y="612.3184">&#34429;&#28982;&#20057;&#19981;&#26500;&#25104;&#25925;&#24847;&#27585;&#22351;&#36130;&#21153;&#32618;&#65292;</text><text fill="#000000" font-family="sans-serif" font-size="14" lengthAdjust="spacing" textLength="238" x="447" y="630.9395">&#20294;&#26159;&#22914;&#26524;&#21361;&#23475;&#20844;&#20849;&#23433;&#20840;&#65292;&#20250;&#26500;&#25104;&#25918;&#28779;&#32618;</text><path d="M394,606.5215 L404,606.5215 C419,606.5215 419,606.5215 434,606.5215 L444,606.5215 " fill="none" style="stroke:#181818;stroke-width:1.0;"/><path d="M240,547.9004 L250,547.9004 C265,547.9004 265,606.5215 280,606.5215 L290,606.5215 " fill="none" style="stroke:#181818;stroke-width:1.0;"/><path d="M142,342.7266 L152,342.7266 C167,342.7266 167,547.9004 182,547.9004 L192,547.9004 " fill="none" style="stroke:#181818;stroke-width:1.0;"/><!--SRC=[xPHTJzDG6CVl-ocEuKP9DeGOmSKOmf14PD48UgF457QSZLsxT2rcCIGewzxSt1PUT0eg1W71C2O6OJ3vCZsdvSgluDDsbK9MlVM2NfsU_-zvplDodjCRbrb9Zd92ECh66EOS9uppIXWZlxyZBYTut65AFj1yrg-VKw8ymyYSp6D4iuT6jQw_JTB5wQDAITjzPUIdoRll3DFkhI7usX5PJf9CojQiBMlxVXlFHHxB4GbZOHJHJ1ditQeiHbbP74Kaiw7LwuxOZi09gQzu-J6-VzBggrugAHMCzQodRNfTdwsvLL5YXGW6fRwXDMOWWpzYA_F6ldQmx2F5ghR_-GHe1wv_B81Ejeeq-vBcqwTTEVaUfKtCf-qMMdWwNJMhyBR5huEyThX8SylmIvPNwVQS_YxN8WnQVaEAyyQBHJ2W-GQTAnDrHzkVrr-hPfrdFv1oerKVN4exSlMtLPaNrkp8R8oar5OEZHsLfEjky6Ig3-78Rzg-sYGslsXx5PgTqNQdZAbjecOX_WU2CPM7RRAL0XP4cYaPoVBHGjeeB9a50OltITYaSofD5itoRsxhZVMMuQokwBagr89iJiF2JHs7GqfvqyzUHPzUfTNdS6F8ZvfvyJE7fFRIZgZIq9CxW407tOS3JXQBS3z9RWcSMwpMID4tLRBoWhvV88KQ14VKhqI5HPQeQsO21s-RFcP_wiytpA0OfXV303j3t7jofgzQatkDQMxqSsn4OgFe6UJY7-CLRAqGwcF7dqGaKH72GP4N9MHrpzH1dJJPC2izaN3O0s-g3cor_M-UBS159_u19npM7a0FsXOTDAP8CTuBjKK7zKxCbPGanhsyjGqCzFK5WmwPm3mlFlLWRT529vch7Stsd3sgPu_gsQFwtpwgjtbMaE-6Xj04bkASAA1EVzV5hal-xlF3h8o6SGnTx4QTLmATFO7ERXGS7a6cV84v7xenWkAY8erZ5ERYiiIDAJBONs06sGaMtL44cOlY0BeLmy9W_qrd0rqN9ZX95A9Oa9d1Uw5ZuF8bNnzddYX19EXUYEd7ZrY5by5YN0npGYI0xeuC-7gO8PWfXOs0RtXeW_3yo582jE7V]--></g></svg>