<svg xmlns="http://www.w3.org/2000/svg" xmlns:xlink="http://www.w3.org/1999/xlink" contentStyleType="text/css" height="471px" preserveAspectRatio="none" style="width:1065px;height:471px;background:#FFFFFF;" version="1.1" viewBox="0 0 1065 471" width="1065px" zoomAndPan="magnify"><title>&#27861;&#30410;&#20405;&#23475;&#20107;&#23454;&#20998;&#31867;</title><defs/><g><text fill="#000000" font-family="sans-serif" font-size="14" font-weight="bold" lengthAdjust="spacing" textLength="115.5" x="473.7275" y="35.1074">&#27861;&#30410;&#20405;&#23475;&#20107;&#23454;&#20998;&#31867;</text><rect fill="#F1F1F1" height="38.6211" rx="12.5" ry="12.5" style="stroke:#181818;stroke-width:1.5;" width="132" x="10" y="235.4844"/><text fill="#000000" font-family="sans-serif" font-size="14" lengthAdjust="spacing" textLength="112" x="20" y="260.5918">&#27861;&#30410;&#20405;&#23475;&#20107;&#23454;&#20998;&#31867;</text><rect fill="#F1F1F1" height="38.6211" rx="12.5" ry="12.5" style="stroke:#181818;stroke-width:1.5;" width="48" x="192" y="88.9316"/><text fill="#000000" font-family="sans-serif" font-size="14" lengthAdjust="spacing" textLength="28" x="202" y="114.0391">&#26679;&#24577;</text><rect fill="#90EE90" height="38.6211" rx="12.5" ry="12.5" style="stroke:#181818;stroke-width:1.5;" width="76" x="290" y="59.6211"/><text fill="#000000" font-family="sans-serif" font-size="14" lengthAdjust="spacing" textLength="56" x="300" y="84.7285">&#21361;&#38505;&#29366;&#24577;</text><text fill="#000000" font-family="sans-serif" font-size="14" lengthAdjust="spacing" textLength="70" x="419" y="84.7285">&#28508;&#22312;&#30340;&#21361;&#23475;</text><path d="M366,78.9316 L376,78.9316 C391,78.9316 391,78.9316 406,78.9316 L416,78.9316 " fill="none" style="stroke:#181818;stroke-width:1.0;"/><path d="M240,108.2422 L250,108.2422 C265,108.2422 265,78.9316 280,78.9316 L290,78.9316 " fill="none" style="stroke:#181818;stroke-width:1.0;"/><rect fill="#90EE90" height="38.6211" rx="12.5" ry="12.5" style="stroke:#181818;stroke-width:1.5;" width="76" x="290" y="118.2422"/><text fill="#000000" font-family="sans-serif" font-size="14" lengthAdjust="spacing" textLength="56" x="300" y="143.3496">&#23454;&#23475;&#32467;&#26524;</text><text fill="#000000" font-family="sans-serif" font-size="14" lengthAdjust="spacing" textLength="70" x="419" y="143.3496">&#26174;&#29616;&#30340;&#21361;&#23475;</text><path d="M366,137.5527 L376,137.5527 C391,137.5527 391,137.5527 406,137.5527 L416,137.5527 " fill="none" style="stroke:#181818;stroke-width:1.0;"/><path d="M240,108.2422 L250,108.2422 C265,108.2422 265,137.5527 280,137.5527 L290,137.5527 " fill="none" style="stroke:#181818;stroke-width:1.0;"/><path d="M142,254.7949 L152,254.7949 C167,254.7949 167,108.2422 182,108.2422 L192,108.2422 " fill="none" style="stroke:#181818;stroke-width:1.0;"/><rect fill="#F1F1F1" height="38.6211" rx="12.5" ry="12.5" style="stroke:#181818;stroke-width:1.5;" width="118" x="192" y="294.1055"/><text fill="#000000" font-family="sans-serif" font-size="14" lengthAdjust="spacing" textLength="98" x="202" y="319.2129">&#26159;&#21542;&#26377;&#23454;&#23475;&#32467;&#26524;</text><rect fill="#90EE90" height="38.6211" rx="12.5" ry="12.5" style="stroke:#181818;stroke-width:1.5;" width="119.9551" x="360" y="264.7949"/><text fill="#000000" font-family="sans-serif" font-size="14" lengthAdjust="spacing" textLength="99.9551" x="370" y="289.9023">&#21361;&#38505;&#29359; = &#34892;&#20026;&#29359;</text><rect fill="#90EE90" height="38.6211" rx="12.5" ry="12.5" style="stroke:#181818;stroke-width:1.5;" width="90" x="529.9551" y="206.1738"/><text fill="#000000" font-family="sans-serif" font-size="14" lengthAdjust="spacing" textLength="70" x="539.9551" y="231.2813">&#25277;&#35937;&#21361;&#38505;&#29359;</text><rect fill="#F1F1F1" height="38.6211" rx="12.5" ry="12.5" style="stroke:#181818;stroke-width:1.5;" width="48" x="669.9551" y="206.1738"/><text fill="#000000" font-family="sans-serif" font-size="14" lengthAdjust="spacing" textLength="28" x="679.9551" y="231.2813">&#35201;&#27714;</text><rect fill="#F1F1F1" height="38.6211" rx="12.5" ry="12.5" style="stroke:#181818;stroke-width:1.5;" width="146" x="767.9551" y="176.8633"/><text fill="#000000" font-family="sans-serif" font-size="14" lengthAdjust="spacing" textLength="126" x="777.9551" y="201.9707">&#21482;&#38656;&#35201;&#20855;&#22791;&#25277;&#35937;&#21361;&#38505;</text><path d="M717.9551,225.4844 L727.9551,225.4844 C742.9551,225.4844 742.9551,196.1738 757.9551,196.1738 L767.9551,196.1738 " fill="none" style="stroke:#181818;stroke-width:1.0;"/><rect fill="#F1F1F1" height="38.6211" rx="12.5" ry="12.5" style="stroke:#181818;stroke-width:1.5;" width="286" x="767.9551" y="235.4844"/><text fill="#000000" font-family="sans-serif" font-size="14" lengthAdjust="spacing" textLength="266" x="777.9551" y="260.5918">&#21361;&#38505;&#26159;&#31435;&#27861;&#32773;&#35748;&#23450;&#30340;&#65292;&#19981;&#38656;&#35201;&#27861;&#23448;&#20855;&#20307;&#21028;&#26029;</text><path d="M717.9551,225.4844 L727.9551,225.4844 C742.9551,225.4844 742.9551,254.7949 757.9551,254.7949 L767.9551,254.7949 " fill="none" style="stroke:#181818;stroke-width:1.0;"/><path d="M619.9551,225.4844 L629.9551,225.4844 C644.9551,225.4844 644.9551,225.4844 659.9551,225.4844 L669.9551,225.4844 " fill="none" style="stroke:#181818;stroke-width:1.0;"/><path d="M479.9551,284.1055 L489.9551,284.1055 C504.9551,284.1055 504.9551,225.4844 519.9551,225.4844 L529.9551,225.4844 " fill="none" style="stroke:#181818;stroke-width:1.0;"/><rect fill="#90EE90" height="38.6211" rx="12.5" ry="12.5" style="stroke:#181818;stroke-width:1.5;" width="90" x="529.9551" y="323.416"/><text fill="#000000" font-family="sans-serif" font-size="14" lengthAdjust="spacing" textLength="70" x="539.9551" y="348.5234">&#20855;&#20307;&#21361;&#38505;&#29359;</text><rect fill="#F1F1F1" height="38.6211" rx="12.5" ry="12.5" style="stroke:#181818;stroke-width:1.5;" width="48" x="669.9551" y="323.416"/><text fill="#000000" font-family="sans-serif" font-size="14" lengthAdjust="spacing" textLength="28" x="679.9551" y="348.5234">&#35201;&#27714;</text><rect fill="#F1F1F1" height="38.6211" rx="12.5" ry="12.5" style="stroke:#181818;stroke-width:1.5;" width="146" x="767.9551" y="294.1055"/><text fill="#000000" font-family="sans-serif" font-size="14" lengthAdjust="spacing" textLength="126" x="777.9551" y="319.2129">&#21482;&#38656;&#35201;&#20855;&#22791;&#20855;&#20307;&#21361;&#38505;</text><path d="M717.9551,342.7266 L727.9551,342.7266 C742.9551,342.7266 742.9551,313.416 757.9551,313.416 L767.9551,313.416 " fill="none" style="stroke:#181818;stroke-width:1.0;"/><rect fill="#F1F1F1" height="38.6211" rx="12.5" ry="12.5" style="stroke:#181818;stroke-width:1.5;" width="160" x="767.9551" y="352.7266"/><text fill="#000000" font-family="sans-serif" font-size="14" lengthAdjust="spacing" textLength="140" x="777.9551" y="377.834">&#21361;&#38505;&#38656;&#35201;&#27861;&#23448;&#20855;&#20307;&#21028;&#26029;</text><path d="M717.9551,342.7266 L727.9551,342.7266 C742.9551,342.7266 742.9551,372.0371 757.9551,372.0371 L767.9551,372.0371 " fill="none" style="stroke:#181818;stroke-width:1.0;"/><path d="M619.9551,342.7266 L629.9551,342.7266 C644.9551,342.7266 644.9551,342.7266 659.9551,342.7266 L669.9551,342.7266 " fill="none" style="stroke:#181818;stroke-width:1.0;"/><path d="M479.9551,284.1055 L489.9551,284.1055 C504.9551,284.1055 504.9551,342.7266 519.9551,342.7266 L529.9551,342.7266 " fill="none" style="stroke:#181818;stroke-width:1.0;"/><path d="M310,313.416 L320,313.416 C335,313.416 335,284.1055 350,284.1055 L360,284.1055 " fill="none" style="stroke:#181818;stroke-width:1.0;"/><rect fill="#90EE90" height="38.6211" rx="12.5" ry="12.5" style="stroke:#181818;stroke-width:1.5;" width="119.9551" x="360" y="411.3477"/><text fill="#000000" font-family="sans-serif" font-size="14" lengthAdjust="spacing" textLength="99.9551" x="370" y="436.4551">&#23454;&#23475;&#29359; = &#32467;&#26524;&#29359;</text><rect fill="#F1F1F1" height="38.6211" rx="12.5" ry="12.5" style="stroke:#181818;stroke-width:1.5;" width="48" x="529.9551" y="411.3477"/><text fill="#000000" font-family="sans-serif" font-size="14" lengthAdjust="spacing" textLength="28" x="539.9551" y="436.4551">&#35201;&#27714;</text><rect fill="#F1F1F1" height="38.6211" rx="12.5" ry="12.5" style="stroke:#181818;stroke-width:1.5;" width="76" x="627.9551" y="411.3477"/><text fill="#000000" font-family="sans-serif" font-size="14" lengthAdjust="spacing" textLength="56" x="637.9551" y="436.4551">&#23454;&#23475;&#32467;&#26524;</text><path d="M577.9551,430.6582 L587.9551,430.6582 C602.9551,430.6582 602.9551,430.6582 617.9551,430.6582 L627.9551,430.6582 " fill="none" style="stroke:#181818;stroke-width:1.0;"/><path d="M479.9551,430.6582 L489.9551,430.6582 C504.9551,430.6582 504.9551,430.6582 519.9551,430.6582 L529.9551,430.6582 " fill="none" style="stroke:#181818;stroke-width:1.0;"/><path d="M310,313.416 L320,313.416 C335,313.416 335,430.6582 350,430.6582 L360,430.6582 " fill="none" style="stroke:#181818;stroke-width:1.0;"/><path d="M142,254.7949 L152,254.7949 C167,254.7949 167,313.416 182,313.416 L192,313.416 " fill="none" style="stroke:#181818;stroke-width:1.0;"/><!--SRC=[xPJVJXD15CRlvocEyGPCMYWX5fjAI8ia8et65cxDq1tN2TlPPZgBQGm96544KHEYGMo898Ju9nOReXWGdgQxMwvy1KztkxKe2pTU6VPgThxV-UQSFJjdgAIeL0Kkj08j4dA1YxnXQGoYqPwIAXkifob5K8juhr5k5Gn255S60sVdbVjsiNxurQxkrFUMxEgwlV3OhUqJSYbS0tnGVhVhpCvvB_w6lLmxUlF1NVo6sycaBXaJWuDjtMFkW7DGiIlltRL7IADlPpZwLtVS_HLdlH8UldheFlzoF1nJMTssNsuvbQUT7YTajWrNeR7nhFvz3zSXPu2pUD2eRRH3JiPyjB4rvzGU_YMq3dtnyQWoYuWzlsjlFkcq3OlmH2p6_RI47xynEz-eRjhLDIptvm_CUjdtGyckhg9h_M35NjXqNd_-euAMzAyhwBGzjO8pqsmts-k8twvJEXAIvF5VXX0onF0A1DTWwFYjI7h__Y1fRGnpgajQW0Ve6fqqBEQj058qFwLBqn9QsZHC2GRNxwccZkfCazMed99C2y5RQW1xvPpcx04TTFaCk1omfgH23qlQ5mEqQCcY4ORwOe265zPHb3HBOMuNHqPIgNGw8ClCCCpx8QmlUkWCIVQqsdC-bix7qdyzbcuPLAZnp1XCCrdYfe1OjA-thpyQxyfI1LbMXDuunAuaOWE9M1pIsHmqvMxIbRcUWv9foJm3ZPUKv9EMmlXkCagdATosXE85be2RHIP6Xsy46t1DJ7DfYW8JYenEP7u3b_iZATuyKM8cC94Xm-mkjGo54NbJuq9Fm7Xk9390nd2OM5H7RnnLQRp0IfPHo_u2]--></g></svg>