<svg xmlns="http://www.w3.org/2000/svg" xmlns:xlink="http://www.w3.org/1999/xlink" contentStyleType="text/css" height="940px" preserveAspectRatio="none" style="width:896px;height:940px;background:#FFFFFF;" version="1.1" viewBox="0 0 896 940" width="896px" zoomAndPan="magnify"><title>&#32467;&#26524;&#21152;&#37325;&#29359;&#65288;&#27861;&#30410;&#35270;&#35282;&#65289;</title><defs/><g><text fill="#000000" font-family="sans-serif" font-size="14" font-weight="bold" lengthAdjust="spacing" textLength="158.8125" x="367.0938" y="35.1074">&#32467;&#26524;&#21152;&#37325;&#29359;&#65288;&#27861;&#30410;&#35270;&#35282;&#65289;</text><rect fill="#F1F1F1" height="38.6211" rx="12.5" ry="12.5" style="stroke:#181818;stroke-width:1.5;" width="174" x="10" y="469.9688"/><text fill="#000000" font-family="sans-serif" font-size="14" lengthAdjust="spacing" textLength="154" x="20" y="495.0762">&#32467;&#26524;&#21152;&#37325;&#29359;&#65288;&#27861;&#30410;&#35270;&#35282;&#65289;</text><rect fill="#F1F1F1" height="38.6211" rx="12.5" ry="12.5" style="stroke:#181818;stroke-width:1.5;" width="104" x="234" y="440.6582"/><text fill="#000000" font-family="sans-serif" font-size="14" lengthAdjust="spacing" textLength="84" x="244" y="465.7656">&#20405;&#29359;&#20010;&#20154;&#27861;&#30410;</text><rect fill="#F1F1F1" height="38.6211" rx="12.5" ry="12.5" style="stroke:#181818;stroke-width:1.5;" width="76" x="388" y="382.0371"/><text fill="#000000" font-family="sans-serif" font-size="14" lengthAdjust="spacing" textLength="56" x="398" y="407.1445">&#20154;&#36523;&#29359;&#32618;</text><rect fill="#F1F1F1" height="38.6211" rx="12.5" ry="12.5" style="stroke:#181818;stroke-width:1.5;" width="90" x="514" y="118.2422"/><text fill="#000000" font-family="sans-serif" font-size="14" lengthAdjust="spacing" textLength="70" x="524" y="143.3496">&#29983;&#21629;&#12289;&#36523;&#20307;</text><rect fill="#FF0000" height="38.6211" rx="12.5" ry="12.5" style="stroke:#181818;stroke-width:1.5;" width="90" x="654" y="59.6211"/><text fill="#000000" font-family="sans-serif" font-size="14" lengthAdjust="spacing" textLength="70" x="664" y="84.7285">&#25925;&#24847;&#26432;&#20154;&#32618;</text><path d="M604,137.5527 L614,137.5527 C629,137.5527 629,78.9316 644,78.9316 L654,78.9316 " fill="none" style="stroke:#181818;stroke-width:1.0;"/><rect fill="#90EE90" height="38.6211" rx="12.5" ry="12.5" style="stroke:#181818;stroke-width:1.5;" width="90" x="654" y="118.2422"/><text fill="#000000" font-family="sans-serif" font-size="14" lengthAdjust="spacing" textLength="70" x="664" y="143.3496">&#25925;&#24847;&#20260;&#23475;&#32618;</text><rect fill="#F1F1F1" height="38.6211" rx="12.5" ry="12.5" style="stroke:#181818;stroke-width:1.5;" width="48" x="794" y="118.2422"/><text fill="#000000" font-family="sans-serif" font-size="14" lengthAdjust="spacing" textLength="28" x="804" y="143.3496">&#36807;&#22833;</text><path d="M744,137.5527 L754,137.5527 C769,137.5527 769,137.5527 784,137.5527 L794,137.5527 " fill="none" style="stroke:#181818;stroke-width:1.0;"/><path d="M604,137.5527 L614,137.5527 C629,137.5527 629,137.5527 644,137.5527 L654,137.5527 " fill="none" style="stroke:#181818;stroke-width:1.0;"/><rect fill="#D3D3D3" height="38.6211" rx="12.5" ry="12.5" style="stroke:#181818;stroke-width:1.5;" width="62" x="654" y="176.8633"/><text fill="#000000" font-family="sans-serif" font-size="14" lengthAdjust="spacing" textLength="42" x="664" y="201.9707">&#36951;&#24323;&#32618;</text><text fill="#000000" font-family="sans-serif" font-size="14" lengthAdjust="spacing" textLength="70" x="769" y="201.9707">&#19981;&#20316;&#20026;&#29359;&#32618;</text><path d="M716,196.1738 L726,196.1738 C741,196.1738 741,196.1738 756,196.1738 L766,196.1738 " fill="none" style="stroke:#181818;stroke-width:1.0;"/><path d="M604,137.5527 L614,137.5527 C629,137.5527 629,196.1738 644,196.1738 L654,196.1738 " fill="none" style="stroke:#181818;stroke-width:1.0;"/><path d="M464,401.3477 L474,401.3477 C489,401.3477 489,137.5527 504,137.5527 L514,137.5527 " fill="none" style="stroke:#181818;stroke-width:1.0;"/><rect fill="#F1F1F1" height="38.6211" rx="12.5" ry="12.5" style="stroke:#181818;stroke-width:1.5;" width="62" x="514" y="264.7949"/><text fill="#000000" font-family="sans-serif" font-size="14" lengthAdjust="spacing" textLength="42" x="524" y="289.9023">&#24615;&#26435;&#21033;</text><rect fill="#90EE90" height="38.6211" rx="12.5" ry="12.5" style="stroke:#181818;stroke-width:1.5;" width="62" x="626" y="235.4844"/><text fill="#000000" font-family="sans-serif" font-size="14" lengthAdjust="spacing" textLength="42" x="636" y="260.5918">&#24378;&#22904;&#32618;</text><path d="M576,284.1055 L586,284.1055 C601,284.1055 601,254.7949 616,254.7949 L626,254.7949 " fill="none" style="stroke:#181818;stroke-width:1.0;"/><rect fill="#D3D3D3" height="38.6211" rx="12.5" ry="12.5" style="stroke:#181818;stroke-width:1.5;" width="132" x="626" y="294.1055"/><text fill="#000000" font-family="sans-serif" font-size="14" lengthAdjust="spacing" textLength="112" x="636" y="319.2129">&#24378;&#21046;&#29477;&#20149;&#12289;&#20398;&#36785;&#32618;</text><path d="M576,284.1055 L586,284.1055 C601,284.1055 601,313.416 616,313.416 L626,313.416 " fill="none" style="stroke:#181818;stroke-width:1.0;"/><path d="M464,401.3477 L474,401.3477 C489,401.3477 489,284.1055 504,284.1055 L514,284.1055 " fill="none" style="stroke:#181818;stroke-width:1.0;"/><rect fill="#F1F1F1" height="38.6211" rx="12.5" ry="12.5" style="stroke:#181818;stroke-width:1.5;" width="76" x="514" y="411.3477"/><text fill="#000000" font-family="sans-serif" font-size="14" lengthAdjust="spacing" textLength="56" x="524" y="436.4551">&#20154;&#36523;&#33258;&#30001;</text><rect fill="#90EE90" height="38.6211" rx="12.5" ry="12.5" style="stroke:#181818;stroke-width:1.5;" width="90" x="640" y="352.7266"/><text fill="#000000" font-family="sans-serif" font-size="14" lengthAdjust="spacing" textLength="70" x="650" y="377.834">&#38750;&#27861;&#25304;&#31105;&#32618;</text><rect fill="#F1F1F1" height="38.6211" rx="12.5" ry="12.5" style="stroke:#181818;stroke-width:1.5;" width="48" x="780" y="352.7266"/><text fill="#000000" font-family="sans-serif" font-size="14" lengthAdjust="spacing" textLength="28" x="790" y="377.834">&#36807;&#22833;</text><path d="M730,372.0371 L740,372.0371 C755,372.0371 755,372.0371 770,372.0371 L780,372.0371 " fill="none" style="stroke:#181818;stroke-width:1.0;"/><path d="M590,430.6582 L600,430.6582 C615,430.6582 615,372.0371 630,372.0371 L640,372.0371 " fill="none" style="stroke:#181818;stroke-width:1.0;"/><rect fill="#90EE90" height="38.6211" rx="12.5" ry="12.5" style="stroke:#181818;stroke-width:1.5;" width="132" x="640" y="411.3477"/><text fill="#000000" font-family="sans-serif" font-size="14" lengthAdjust="spacing" textLength="112" x="650" y="436.4551">&#25296;&#21334;&#22919;&#22899;&#12289;&#20799;&#31461;&#32618;</text><path d="M590,430.6582 L600,430.6582 C615,430.6582 615,430.6582 630,430.6582 L640,430.6582 " fill="none" style="stroke:#181818;stroke-width:1.0;"/><rect fill="#F1F1F1" height="38.6211" rx="12.5" ry="12.5" style="stroke:#181818;stroke-width:1.5;" width="62" x="640" y="469.9688"/><text fill="#000000" font-family="sans-serif" font-size="14" lengthAdjust="spacing" textLength="42" x="650" y="495.0762">&#32465;&#26550;&#32618;</text><path d="M590,430.6582 L600,430.6582 C615,430.6582 615,489.2793 630,489.2793 L640,489.2793 " fill="none" style="stroke:#181818;stroke-width:1.0;"/><path d="M464,401.3477 L474,401.3477 C489,401.3477 489,430.6582 504,430.6582 L514,430.6582 " fill="none" style="stroke:#181818;stroke-width:1.0;"/><rect fill="#F1F1F1" height="38.6211" rx="12.5" ry="12.5" style="stroke:#181818;stroke-width:1.5;" width="118" x="514" y="557.9004"/><text fill="#000000" font-family="sans-serif" font-size="14" lengthAdjust="spacing" textLength="98" x="524" y="583.0078">&#21517;&#35465;&#26435;&#12289;&#20154;&#36523;&#26435;</text><rect fill="#D3D3D3" height="38.6211" rx="12.5" ry="12.5" style="stroke:#181818;stroke-width:1.5;" width="62" x="682" y="528.5898"/><text fill="#000000" font-family="sans-serif" font-size="14" lengthAdjust="spacing" textLength="42" x="692" y="553.6973">&#20398;&#36785;&#32618;</text><path d="M632,577.2109 L642,577.2109 C657,577.2109 657,547.9004 672,547.9004 L682,547.9004 " fill="none" style="stroke:#181818;stroke-width:1.0;"/><rect fill="#D3D3D3" height="38.6211" rx="12.5" ry="12.5" style="stroke:#181818;stroke-width:1.5;" width="62" x="682" y="587.2109"/><text fill="#000000" font-family="sans-serif" font-size="14" lengthAdjust="spacing" textLength="42" x="692" y="612.3184">&#35837;&#35876;&#32618;</text><path d="M632,577.2109 L642,577.2109 C657,577.2109 657,606.5215 672,606.5215 L682,606.5215 " fill="none" style="stroke:#181818;stroke-width:1.0;"/><path d="M464,401.3477 L474,401.3477 C489,401.3477 489,577.2109 504,577.2109 L514,577.2109 " fill="none" style="stroke:#181818;stroke-width:1.0;"/><rect fill="#F1F1F1" height="38.6211" rx="12.5" ry="12.5" style="stroke:#181818;stroke-width:1.5;" width="76" x="514" y="675.1426"/><text fill="#000000" font-family="sans-serif" font-size="14" lengthAdjust="spacing" textLength="56" x="524" y="700.25">&#23130;&#23035;&#23478;&#24237;</text><rect fill="#90EE90" height="38.6211" rx="12.5" ry="12.5" style="stroke:#181818;stroke-width:1.5;" width="146" x="640" y="645.832"/><text fill="#000000" font-family="sans-serif" font-size="14" lengthAdjust="spacing" textLength="126" x="650" y="670.9395">&#26292;&#21147;&#24178;&#28041;&#23130;&#23035;&#33258;&#30001;&#32618;</text><rect fill="#F1F1F1" height="38.6211" rx="12.5" ry="12.5" style="stroke:#181818;stroke-width:1.5;" width="48" x="836" y="645.832"/><text fill="#000000" font-family="sans-serif" font-size="14" lengthAdjust="spacing" textLength="28" x="846" y="670.9395">&#36807;&#22833;</text><path d="M786,665.1426 L796,665.1426 C811,665.1426 811,665.1426 826,665.1426 L836,665.1426 " fill="none" style="stroke:#181818;stroke-width:1.0;"/><path d="M590,694.4531 L600,694.4531 C615,694.4531 615,665.1426 630,665.1426 L640,665.1426 " fill="none" style="stroke:#181818;stroke-width:1.0;"/><rect fill="#90EE90" height="38.6211" rx="12.5" ry="12.5" style="stroke:#181818;stroke-width:1.5;" width="62" x="640" y="704.4531"/><text fill="#000000" font-family="sans-serif" font-size="14" lengthAdjust="spacing" textLength="42" x="650" y="729.5605">&#34384;&#24453;&#32618;</text><rect fill="#F1F1F1" height="38.6211" rx="12.5" ry="12.5" style="stroke:#181818;stroke-width:1.5;" width="48" x="752" y="704.4531"/><text fill="#000000" font-family="sans-serif" font-size="14" lengthAdjust="spacing" textLength="28" x="762" y="729.5605">&#36807;&#22833;</text><path d="M702,723.7637 L712,723.7637 C727,723.7637 727,723.7637 742,723.7637 L752,723.7637 " fill="none" style="stroke:#181818;stroke-width:1.0;"/><path d="M590,694.4531 L600,694.4531 C615,694.4531 615,723.7637 630,723.7637 L640,723.7637 " fill="none" style="stroke:#181818;stroke-width:1.0;"/><path d="M464,401.3477 L474,401.3477 C489,401.3477 489,694.4531 504,694.4531 L514,694.4531 " fill="none" style="stroke:#181818;stroke-width:1.0;"/><path d="M338,459.9688 L348,459.9688 C363,459.9688 363,401.3477 378,401.3477 L388,401.3477 " fill="none" style="stroke:#181818;stroke-width:1.0;"/><rect fill="#F1F1F1" height="38.6211" rx="12.5" ry="12.5" style="stroke:#181818;stroke-width:1.5;" width="76" x="388" y="792.3848"/><text fill="#000000" font-family="sans-serif" font-size="14" lengthAdjust="spacing" textLength="56" x="398" y="817.4922">&#36130;&#20135;&#29359;&#32618;</text><rect fill="#90EE90" height="38.6211" rx="12.5" ry="12.5" style="stroke:#181818;stroke-width:1.5;" width="230" x="514" y="763.0742"/><text fill="#000000" font-family="sans-serif" font-size="14" lengthAdjust="spacing" textLength="210" x="524" y="788.1816">&#25250;&#22842;&#32618;&#65288;&#23545;&#29289;&#26292;&#21147;&#65292;&#23545;&#20154;&#26377;&#21361;&#38505;&#65289;</text><rect fill="#F1F1F1" height="38.6211" rx="12.5" ry="12.5" style="stroke:#181818;stroke-width:1.5;" width="48" x="794" y="763.0742"/><text fill="#000000" font-family="sans-serif" font-size="14" lengthAdjust="spacing" textLength="28" x="804" y="788.1816">&#36807;&#22833;</text><path d="M744,782.3848 L754,782.3848 C769,782.3848 769,782.3848 784,782.3848 L794,782.3848 " fill="none" style="stroke:#181818;stroke-width:1.0;"/><path d="M464,811.6953 L474,811.6953 C489,811.6953 489,782.3848 504,782.3848 L514,782.3848 " fill="none" style="stroke:#181818;stroke-width:1.0;"/><rect fill="#90EE90" height="38.6211" rx="12.5" ry="12.5" style="stroke:#181818;stroke-width:1.5;" width="216" x="514" y="821.6953"/><text fill="#000000" font-family="sans-serif" font-size="14" lengthAdjust="spacing" textLength="196" x="524" y="846.8027">&#25250;&#21163;&#32618;&#65288;&#23545;&#20154;&#26292;&#21147;&#65292;&#21387;&#21046;&#21453;&#25239;&#65289;</text><path d="M464,811.6953 L474,811.6953 C489,811.6953 489,841.0059 504,841.0059 L514,841.0059 " fill="none" style="stroke:#181818;stroke-width:1.0;"/><path d="M338,459.9688 L348,459.9688 C363,459.9688 363,811.6953 378,811.6953 L388,811.6953 " fill="none" style="stroke:#181818;stroke-width:1.0;"/><path d="M184,489.2793 L194,489.2793 C209,489.2793 209,459.9688 224,459.9688 L234,459.9688 " fill="none" style="stroke:#181818;stroke-width:1.0;"/><rect fill="#F1F1F1" height="38.6211" rx="12.5" ry="12.5" style="stroke:#181818;stroke-width:1.5;" width="104" x="234" y="880.3164"/><text fill="#000000" font-family="sans-serif" font-size="14" lengthAdjust="spacing" textLength="84" x="244" y="905.4238">&#20405;&#29359;&#31038;&#20250;&#27861;&#30410;</text><rect fill="#F1F1F1" height="38.6211" rx="12.5" ry="12.5" style="stroke:#181818;stroke-width:1.5;" width="104" x="388" y="880.3164"/><text fill="#000000" font-family="sans-serif" font-size="14" lengthAdjust="spacing" textLength="84" x="398" y="905.4238">&#21361;&#23475;&#20844;&#20849;&#23433;&#20840;</text><rect fill="#90EE90" height="38.6211" rx="12.5" ry="12.5" style="stroke:#181818;stroke-width:1.5;" width="62" x="542" y="880.3164"/><text fill="#000000" font-family="sans-serif" font-size="14" lengthAdjust="spacing" textLength="42" x="552" y="905.4238">&#25918;&#28779;&#32618;</text><path d="M492,899.627 L502,899.627 C517,899.627 517,899.627 532,899.627 L542,899.627 " fill="none" style="stroke:#181818;stroke-width:1.0;"/><path d="M338,899.627 L348,899.627 C363,899.627 363,899.627 378,899.627 L388,899.627 " fill="none" style="stroke:#181818;stroke-width:1.0;"/><path d="M184,489.2793 L194,489.2793 C209,489.2793 209,899.627 224,899.627 L234,899.627 " fill="none" style="stroke:#181818;stroke-width:1.0;"/><!--SRC=[xPNVJzfG5CVV-rVSPIzg0eenqn5Y33YJEScMeRuk5JhMM5fIMXUoc4YK8IXJfyxvSui16R3fd4gq0lunwstha__2RblgTBQunQSbzAczty_zzfpJtdDw8XpESY6I3eJmC8RT8sa_nGS8OBUtHhWeHRIgaWrfDktHJl8X2iCuagC889ykIbiRCFNvF96MKtiNvMdfO5bUJocvjqhk_KKvYM4jVm41TBK0iNg4PF6u80g2JcX2JHG4HIWYNQuKBfTrILxw11SgFoTY210hYzTKdP2MuzBKdBGvWLpGVfUB9GBTtPQWMCx0tGCD3B84GPkWEgwS9M1ctyJdFBO2ovE6GzJAu0KGZzDYPKCy5ampaoPoqkOadCwRl0AM1PWzhXka3asNvDciA1oX0edLNQMwRnMMKMGbKP2NJBFQt4BVHPhvAE_4xb8TQMOUfZ_0dGJC7g2euDIPNCpUaebykY1jbMwM2CwdbK8ILKbDJmiVtPlihvzwBU2zYl8zOrqUc5-3kLEuMuB2DxEqrWvXQXsU_91AIHtLAtcNKYchyx0Q_tS7j72uBGevyzygjGqpwa50Hn7kdSZ9l1xwHNaMFQgdRoC9q_ldgtbqEEjz59EmTVTKyT9TjRjqVpU3VaSubvPIApUiZGOWPwfYUUr60q01eKC9urzX7DqaOVpBd-zTgignuhLIOLWFWTgQqTfwhdSwbzRFkh7QGY-91ray1DuWN_i8nHFQ7G1kt3yQP1cU3dWOYc41HGPVSQgEr76L3U3iA6ee5dXDDM0jj7hE6d25Zju2HmsMON4wQ1MqBXfec6V3b1MgYmPgdTYLf5WcOkLslw_FxVPu339AK1JpseBLHGqTnrojjS_J63MDKTCODOrHyr-DccSKJdD3tW4mHh0Hag61mzxUrjvXxspouHpm4M7GrWaS3vsEBgUZ4tXyWq2Lcx4cx-D1465ura-001dXM7A4vz3-PgmV7yF1Svxco13X14_31DtV-yHO08_eCP9bw111SrZ_iFStyA33vYRLDx8e4Z3inNg9bpXFSMY7dmcGTD09XWRxR5tO01eGF1v4tcZyU51JvjWeqdo_0000]--></g></svg>