<svg xmlns="http://www.w3.org/2000/svg" xmlns:xlink="http://www.w3.org/1999/xlink" contentStyleType="text/css" height="823px" preserveAspectRatio="none" style="width:999px;height:823px;background:#FFFFFF;" version="1.1" viewBox="0 0 999 823" width="999px" zoomAndPan="magnify"><title>&#20004;&#38454;&#23618;&#29359;&#32618;&#26500;&#25104;&#20307;&#31995;</title><defs/><g><text fill="#000000" font-family="sans-serif" font-size="14" font-weight="bold" lengthAdjust="spacing" textLength="129.9375" x="433.3071" y="35.1074">&#20004;&#38454;&#23618;&#29359;&#32618;&#26500;&#25104;&#20307;&#31995;</text><rect fill="#F1F1F1" height="38.6211" rx="12.5" ry="12.5" style="stroke:#181818;stroke-width:1.5;" width="146" x="10" y="411.3477"/><text fill="#000000" font-family="sans-serif" font-size="14" lengthAdjust="spacing" textLength="126" x="20" y="436.4551">&#20004;&#38454;&#23618;&#29359;&#32618;&#26500;&#25104;&#20307;&#31995;</text><rect fill="#90EE90" height="38.6211" rx="12.5" ry="12.5" style="stroke:#181818;stroke-width:1.5;" width="107.8896" x="206" y="235.4844"/><text fill="#000000" font-family="sans-serif" font-size="14" lengthAdjust="spacing" textLength="84" x="216" y="260.5918">&#23458;&#35266;&#36829;&#27861;&#38454;&#23618;</text><rect fill="#F1F1F1" height="38.6211" rx="12.5" ry="12.5" style="stroke:#181818;stroke-width:1.5;" width="160" x="363.8896" y="147.5527"/><text fill="#000000" font-family="sans-serif" font-size="14" lengthAdjust="spacing" textLength="140" x="373.8896" y="172.6602">&#23458;&#35266;&#35201;&#20214;&#65288;&#36829;&#27861;&#20107;&#23454;&#65289;</text><rect fill="#F1F1F1" height="38.6211" rx="12.5" ry="12.5" style="stroke:#181818;stroke-width:1.5;" width="76" x="573.8896" y="59.6211"/><text fill="#000000" font-family="sans-serif" font-size="14" lengthAdjust="spacing" textLength="56" x="583.8896" y="84.7285">&#34892;&#20026;&#20027;&#20307;</text><path d="M523.8896,166.8633 L533.8896,166.8633 C548.8896,166.8633 548.8896,78.9316 563.8896,78.9316 L573.8896,78.9316 " fill="none" style="stroke:#181818;stroke-width:1.0;"/><rect fill="#F1F1F1" height="38.6211" rx="12.5" ry="12.5" style="stroke:#181818;stroke-width:1.5;" width="76" x="573.8896" y="118.2422"/><text fill="#000000" font-family="sans-serif" font-size="14" lengthAdjust="spacing" textLength="56" x="583.8896" y="143.3496">&#21361;&#23475;&#34892;&#20026;</text><path d="M523.8896,166.8633 L533.8896,166.8633 C548.8896,166.8633 548.8896,137.5527 563.8896,137.5527 L573.8896,137.5527 " fill="none" style="stroke:#181818;stroke-width:1.0;"/><rect fill="#F1F1F1" height="38.6211" rx="12.5" ry="12.5" style="stroke:#181818;stroke-width:1.5;" width="76" x="573.8896" y="176.8633"/><text fill="#000000" font-family="sans-serif" font-size="14" lengthAdjust="spacing" textLength="56" x="583.8896" y="201.9707">&#21361;&#23475;&#32467;&#26524;</text><path d="M523.8896,166.8633 L533.8896,166.8633 C548.8896,166.8633 548.8896,196.1738 563.8896,196.1738 L573.8896,196.1738 " fill="none" style="stroke:#181818;stroke-width:1.0;"/><rect fill="#F1F1F1" height="38.6211" rx="12.5" ry="12.5" style="stroke:#181818;stroke-width:1.5;" width="76" x="573.8896" y="235.4844"/><text fill="#000000" font-family="sans-serif" font-size="14" lengthAdjust="spacing" textLength="56" x="583.8896" y="260.5918">&#22240;&#26524;&#20851;&#31995;</text><path d="M523.8896,166.8633 L533.8896,166.8633 C548.8896,166.8633 548.8896,254.7949 563.8896,254.7949 L573.8896,254.7949 " fill="none" style="stroke:#181818;stroke-width:1.0;"/><path d="M313.8896,254.7949 L323.8896,254.7949 C338.8896,254.7949 338.8896,166.8633 353.8896,166.8633 L363.8896,166.8633 " fill="none" style="stroke:#181818;stroke-width:1.0;"/><rect fill="#F1F1F1" height="38.6211" rx="12.5" ry="12.5" style="stroke:#181818;stroke-width:1.5;" width="132" x="363.8896" y="352.7266"/><text fill="#000000" font-family="sans-serif" font-size="14" lengthAdjust="spacing" textLength="112" x="373.8896" y="377.834">&#23458;&#35266;&#36829;&#27861;&#38459;&#21364;&#20107;&#30001;</text><rect fill="#F1F1F1" height="38.6211" rx="12.5" ry="12.5" style="stroke:#181818;stroke-width:1.5;" width="76" x="545.8896" y="294.1055"/><text fill="#000000" font-family="sans-serif" font-size="14" lengthAdjust="spacing" textLength="56" x="555.8896" y="319.2129">&#27491;&#24403;&#38450;&#21355;</text><text fill="#000000" font-family="sans-serif" font-size="14" lengthAdjust="spacing" textLength="140" x="674.8896" y="319.2129">&#30002;&#25343;&#20992;&#26432;&#20057;&#65292;&#20057;&#21453;&#26432;&#30002;</text><path d="M621.8896,313.416 L631.8896,313.416 C646.8896,313.416 646.8896,313.416 661.8896,313.416 L671.8896,313.416 " fill="none" style="stroke:#181818;stroke-width:1.0;"/><path d="M495.8896,372.0371 L505.8896,372.0371 C520.8896,372.0371 520.8896,313.416 535.8896,313.416 L545.8896,313.416 " fill="none" style="stroke:#181818;stroke-width:1.0;"/><rect fill="#F1F1F1" height="38.6211" rx="12.5" ry="12.5" style="stroke:#181818;stroke-width:1.5;" width="76" x="545.8896" y="352.7266"/><text fill="#000000" font-family="sans-serif" font-size="14" lengthAdjust="spacing" textLength="56" x="555.8896" y="377.834">&#32039;&#24613;&#36991;&#38505;</text><text fill="#000000" font-family="sans-serif" font-size="14" lengthAdjust="spacing" textLength="238" x="674.8896" y="377.834">&#25151;&#23376;&#30528;&#28779;&#65292;&#23558;&#23401;&#23376;&#25172;&#21040;&#33609;&#22534;&#65292;&#23401;&#23376;&#21463;&#20260;</text><path d="M621.8896,372.0371 L631.8896,372.0371 C646.8896,372.0371 646.8896,372.0371 661.8896,372.0371 L671.8896,372.0371 " fill="none" style="stroke:#181818;stroke-width:1.0;"/><path d="M495.8896,372.0371 L505.8896,372.0371 C520.8896,372.0371 520.8896,372.0371 535.8896,372.0371 L545.8896,372.0371 " fill="none" style="stroke:#181818;stroke-width:1.0;"/><rect fill="#F1F1F1" height="38.6211" rx="12.5" ry="12.5" style="stroke:#181818;stroke-width:1.5;" width="104" x="545.8896" y="411.3477"/><text fill="#000000" font-family="sans-serif" font-size="14" lengthAdjust="spacing" textLength="84" x="555.8896" y="436.4551">&#34987;&#23475;&#20154;&#25215;&#35834;&#31561;</text><text fill="#000000" font-family="sans-serif" font-size="14" lengthAdjust="spacing" textLength="112" x="702.8896" y="436.4551">&#30002;&#25214;&#20057;&#21578;&#33258;&#24049;&#36138;&#27745;</text><path d="M649.8896,430.6582 L659.8896,430.6582 C674.8896,430.6582 674.8896,430.6582 689.8896,430.6582 L699.8896,430.6582 " fill="none" style="stroke:#181818;stroke-width:1.0;"/><path d="M495.8896,372.0371 L505.8896,372.0371 C520.8896,372.0371 520.8896,430.6582 535.8896,430.6582 L545.8896,430.6582 " fill="none" style="stroke:#181818;stroke-width:1.0;"/><path d="M313.8896,254.7949 L323.8896,254.7949 C338.8896,254.7949 338.8896,372.0371 353.8896,372.0371 L363.8896,372.0371 " fill="none" style="stroke:#181818;stroke-width:1.0;"/><path d="M156,430.6582 L166,430.6582 C181,430.6582 181,254.7949 196,254.7949 L206,254.7949 " fill="none" style="stroke:#181818;stroke-width:1.0;"/><rect fill="#90EE90" height="38.6211" rx="12.5" ry="12.5" style="stroke:#181818;stroke-width:1.5;" width="107.8896" x="206" y="616.5215"/><text fill="#000000" font-family="sans-serif" font-size="14" lengthAdjust="spacing" textLength="84" x="216" y="641.6289">&#20027;&#35266;&#36131;&#20219;&#38454;&#23618;</text><rect fill="#F1F1F1" height="38.6211" rx="12.5" ry="12.5" style="stroke:#181818;stroke-width:1.5;" width="160" x="363.8896" y="499.2793"/><text fill="#000000" font-family="sans-serif" font-size="14" lengthAdjust="spacing" textLength="140" x="373.8896" y="524.3867">&#20027;&#35266;&#35201;&#20214;&#65288;&#33021;&#21542;&#35892;&#36131;&#65289;</text><rect fill="#F1F1F1" height="38.6211" rx="12.5" ry="12.5" style="stroke:#181818;stroke-width:1.5;" width="188" x="573.8896" y="469.9688"/><text fill="#000000" font-family="sans-serif" font-size="14" lengthAdjust="spacing" textLength="168" x="583.8896" y="495.0762">&#29359;&#32618;&#25925;&#24847;&#65288;&#20107;&#23454;&#35748;&#35782;&#38169;&#35823;&#65289;</text><path d="M523.8896,518.5898 L533.8896,518.5898 C548.8896,518.5898 548.8896,489.2793 563.8896,489.2793 L573.8896,489.2793 " fill="none" style="stroke:#181818;stroke-width:1.0;"/><rect fill="#F1F1F1" height="38.6211" rx="12.5" ry="12.5" style="stroke:#181818;stroke-width:1.5;" width="174" x="573.8896" y="528.5898"/><text fill="#000000" font-family="sans-serif" font-size="14" lengthAdjust="spacing" textLength="154" x="583.8896" y="553.6973">&#29359;&#32618;&#36807;&#22833;&#65288;&#26080;&#32618;&#36807;&#20107;&#20214;&#65289;</text><path d="M523.8896,518.5898 L533.8896,518.5898 C548.8896,518.5898 548.8896,547.9004 563.8896,547.9004 L573.8896,547.9004 " fill="none" style="stroke:#181818;stroke-width:1.0;"/><path d="M313.8896,635.832 L323.8896,635.832 C338.8896,635.832 338.8896,518.5898 353.8896,518.5898 L363.8896,518.5898 " fill="none" style="stroke:#181818;stroke-width:1.0;"/><rect fill="#F1F1F1" height="38.6211" rx="12.5" ry="12.5" style="stroke:#181818;stroke-width:1.5;" width="132" x="363.8896" y="675.1426"/><text fill="#000000" font-family="sans-serif" font-size="14" lengthAdjust="spacing" textLength="112" x="373.8896" y="700.25">&#20027;&#35266;&#36131;&#20219;&#38459;&#21364;&#20107;&#30001;</text><rect fill="#F1F1F1" height="38.6211" rx="12.5" ry="12.5" style="stroke:#181818;stroke-width:1.5;" width="164.6621" x="545.8896" y="587.2109"/><text fill="#000000" font-family="sans-serif" font-size="14" lengthAdjust="spacing" textLength="144.6621" x="555.8896" y="612.3184">&#36131;&#20219;&#24180;&#40836;&#65288;&#36523;&#20307;-&#24180;&#40836;&#65289;</text><text fill="#000000" font-family="sans-serif" font-size="14" lengthAdjust="spacing" textLength="57.5723" x="763.5518" y="612.3184">&#29399;&#34507;10&#23681;</text><path d="M710.5518,606.5215 L720.5518,606.5215 C735.5518,606.5215 735.5518,606.5215 750.5518,606.5215 L760.5518,606.5215 " fill="none" style="stroke:#181818;stroke-width:1.0;"/><path d="M495.8896,694.4531 L505.8896,694.4531 C520.8896,694.4531 520.8896,606.5215 535.8896,606.5215 L545.8896,606.5215 " fill="none" style="stroke:#181818;stroke-width:1.0;"/><rect fill="#F1F1F1" height="38.6211" rx="12.5" ry="12.5" style="stroke:#181818;stroke-width:1.5;" width="164.6621" x="545.8896" y="645.832"/><text fill="#000000" font-family="sans-serif" font-size="14" lengthAdjust="spacing" textLength="144.6621" x="555.8896" y="670.9395">&#36131;&#20219;&#33021;&#21147;&#65288;&#36523;&#20307;-&#33021;&#21147;&#65289;</text><text fill="#000000" font-family="sans-serif" font-size="14" lengthAdjust="spacing" textLength="84" x="763.5518" y="670.9395">&#29399;&#34507;&#19981;&#20250;&#28216;&#27891;</text><path d="M710.5518,665.1426 L720.5518,665.1426 C735.5518,665.1426 735.5518,665.1426 750.5518,665.1426 L760.5518,665.1426 " fill="none" style="stroke:#181818;stroke-width:1.0;"/><path d="M495.8896,694.4531 L505.8896,694.4531 C520.8896,694.4531 520.8896,665.1426 535.8896,665.1426 L545.8896,665.1426 " fill="none" style="stroke:#181818;stroke-width:1.0;"/><rect fill="#F1F1F1" height="38.6211" rx="12.5" ry="12.5" style="stroke:#181818;stroke-width:1.5;" width="220.6621" x="545.8896" y="704.4531"/><text fill="#000000" font-family="sans-serif" font-size="14" lengthAdjust="spacing" textLength="200.6621" x="555.8896" y="729.5605">&#36829;&#27861;&#24615;&#35748;&#35782;&#21487;&#33021;&#34892;&#65288;&#24847;&#35782;-&#35748;&#30693;&#65289;</text><text fill="#000000" font-family="sans-serif" font-size="14" lengthAdjust="spacing" textLength="168" x="819.5518" y="729.5605">&#35810;&#38382;&#27861;&#38498;&#65292;&#27861;&#38498;&#21578;&#35785;&#19981;&#36829;&#27861;</text><path d="M766.5518,723.7637 L776.5518,723.7637 C791.5518,723.7637 791.5518,723.7637 806.5518,723.7637 L816.5518,723.7637 " fill="none" style="stroke:#181818;stroke-width:1.0;"/><path d="M495.8896,694.4531 L505.8896,694.4531 C520.8896,694.4531 520.8896,723.7637 535.8896,723.7637 L545.8896,723.7637 " fill="none" style="stroke:#181818;stroke-width:1.0;"/><rect fill="#F1F1F1" height="38.6211" rx="12.5" ry="12.5" style="stroke:#181818;stroke-width:1.5;" width="178.6621" x="545.8896" y="763.0742"/><text fill="#000000" font-family="sans-serif" font-size="14" lengthAdjust="spacing" textLength="158.6621" x="555.8896" y="788.1816">&#26399;&#24453;&#21487;&#33021;&#24615;&#65288;&#29983;&#23384;-&#29983;&#27515;&#65289;</text><text fill="#000000" font-family="sans-serif" font-size="14" lengthAdjust="spacing" textLength="168" x="777.5518" y="788.1816">&#19976;&#22827;&#22833;&#36394;&#65292;&#26080;&#27861;&#29983;&#23384;&#65292;&#20877;&#23130;</text><path d="M724.5518,782.3848 L734.5518,782.3848 C749.5518,782.3848 749.5518,782.3848 764.5518,782.3848 L774.5518,782.3848 " fill="none" style="stroke:#181818;stroke-width:1.0;"/><path d="M495.8896,694.4531 L505.8896,694.4531 C520.8896,694.4531 520.8896,782.3848 535.8896,782.3848 L545.8896,782.3848 " fill="none" style="stroke:#181818;stroke-width:1.0;"/><path d="M313.8896,635.832 L323.8896,635.832 C338.8896,635.832 338.8896,694.4531 353.8896,694.4531 L363.8896,694.4531 " fill="none" style="stroke:#181818;stroke-width:1.0;"/><path d="M156,430.6582 L166,430.6582 C181,430.6582 181,635.832 196,635.832 L206,635.832 " fill="none" style="stroke:#181818;stroke-width:1.0;"/><!--SRC=[xLNVJzfG57xlNt6NlUWIKCmoDsEC0MSoDxDb_dXTgdIiMMb9QLt8iaGtTQ0INCJWZqsHiHaXW0ZP6A3yCxstvSb_OQSjtHIfUzkJF03tVD_vphdtd9mp79HeKVAplDTF1oZg5ilFShANGKvdJr0ASKoF3Za0SnX79olxEOgIM8bZa599DxT-uE9xTQMWdcR8tY89hokd6sgfHb5theKHVEuWd4zfX- -rnXTIsZIfQ73G9p8CFpHaK2xHlYyejH_dzR39LwghEBztNe_y8PfaxM1DgLILIWqYjK4uMiJvaade2Acr3RBtkHtQJO8HBvMil3lbNiFHCcIanejjtYJt5PzkDBTES3Hx2JBW5qYDdv3L1WxFao_pog_jy_eQVEDO58u0jOcfvKCo_wsvq6Xk7tKI8-46pgshuBgG1ILyl8npHs0XaJWE7slH24ukwtR3Y6C9fPvkVxrK5jv1gLP9fA4LgcekOfTqv4nFzDEAzZ63VnQrSeOK3rfbXSVNdwRyLQdLhYbhY_Qdh1zEyVftxRWCZbVBskgXpIMo60EoMNqjdzOAoytujbOesBbeZOyuNGGNaaYQH_0r8aQkvj9AsRQQ9W7_AZVF5lMKgrdeCeTrxlnMgmbjTzNLYqyMEehfrrxP_IjcdQyHKofHfRv3AXLIAhLh6lr8vW_Dfy6n0kX1n-ltNuo1nG60kl_DHbyhf9g9lDxHsobe5FEFNkH218AQukqD_daVdosPWI0k15BZ-pYtvO0VaglP158gOPpEGc6qIaOFb4Y2ikceD-Xo51_jKDGm0sF96at3boVLe36FXgYMOOIbVIBjHsyXcdE6andZ7q9kUlQrJnHatkiHE4547Ejx9UaueEzqhfSMNukCruRUGYsoqSJNAHk42-pGFyWXYok8DE-pIze4BMf05WES7TK4BQhznIvSIXI2TcgtHqVTRe_7OeOOZXFUs71DqA2-emPxMkMvMHKtg-9cLToiYl-wAfvnD2zDZJz1SumOP0KUkPnzlNrtdVrT4xI49fW0wkr7hWS3hli3hdxacPX4EjnDTOq_caH1GHPd6UHbWvB8piWI-7TJO_GSZPxBlCJwcG7qDC3mOoEFBGDwoC-nei3x6LwYngR7_nBktNMuMJsY29cWwN5gX7b9ovm47hE2b-Lz0sXgSjHndte20rwcVQ0DwyC3GrKIGu1D_0O0]--></g></svg>