<svg xmlns="http://www.w3.org/2000/svg" xmlns:xlink="http://www.w3.org/1999/xlink" contentStyleType="text/css" height="481px" preserveAspectRatio="none" style="width:1279px;height:481px;background:#FFFFFF;" version="1.1" viewBox="0 0 1279 481" width="1279px" zoomAndPan="magnify"><title>&#19981;&#20316;&#20026;&#29359;&#30340;&#25104;&#31435;&#26465;&#20214;-&#20316;&#20026;&#20041;&#21153;-&#23454;&#36136;&#30340;&#20108;&#20998;&#35828;</title><defs/><g><text fill="#000000" font-family="sans-serif" font-size="14" font-weight="bold" lengthAdjust="spacing" textLength="283.6367" x="496.2627" y="35.1074">&#19981;&#20316;&#20026;&#29359;&#30340;&#25104;&#31435;&#26465;&#20214;-&#20316;&#20026;&#20041;&#21153;-&#23454;&#36136;&#30340;&#20108;&#20998;&#35828;</text><rect fill="#F1F1F1" height="38.6211" rx="12.5" ry="12.5" style="stroke:#181818;stroke-width:1.5;" width="62" x="607.5811" y="49.6211"/><text fill="#000000" font-family="sans-serif" font-size="14" lengthAdjust="spacing" textLength="42" x="617.5811" y="74.7285">&#21361;&#38505;&#27969;</text><rect fill="#90EE90" height="38.6211" rx="12.5" ry="12.5" style="stroke:#181818;stroke-width:1.5;" width="62" x="302.25" y="113.2422"/><text fill="#000000" font-family="sans-serif" font-size="14" lengthAdjust="spacing" textLength="42" x="312.25" y="138.3496">&#21361;&#38505;&#28304;</text><rect fill="#90EE90" height="38.6211" rx="12.5" ry="12.5" style="stroke:#181818;stroke-width:1.5;" width="76" x="295.25" y="176.8633"/><text fill="#000000" font-family="sans-serif" font-size="14" lengthAdjust="spacing" textLength="56" x="305.25" y="201.9707">&#30417;&#30563;&#20041;&#21153;</text><rect fill="#F1F1F1" height="38.6211" rx="12.5" ry="12.5" style="stroke:#181818;stroke-width:1.5;" width="174" x="84.5" y="240.4844"/><text fill="#000000" font-family="sans-serif" font-size="14" lengthAdjust="spacing" textLength="154" x="94.5" y="265.5918">&#33258;&#24049;&#30340;&#20808;&#34892;&#34892;&#20026;&#65288;&#33258;&#24049;&#65289;</text><rect fill="#F1F1F1" height="38.6211" rx="12.5" ry="12.5" style="stroke:#181818;stroke-width:1.5;" width="76" x="133.5" y="304.1055"/><text fill="#000000" font-family="sans-serif" font-size="14" lengthAdjust="spacing" textLength="56" x="143.5" y="329.2129">&#29305;&#27530;&#34892;&#20026;</text><rect fill="#FFA500" height="38.6211" rx="12.5" ry="12.5" style="stroke:#181818;stroke-width:1.5;" width="76" x="55" y="367.7266"/><text fill="#000000" font-family="sans-serif" font-size="14" lengthAdjust="spacing" textLength="56" x="65" y="392.834">&#27491;&#24403;&#38450;&#21355;</text><rect fill="#F1F1F1" height="38.6211" rx="12.5" ry="12.5" style="stroke:#181818;stroke-width:1.5;" width="146" x="20" y="431.3477"/><text fill="#000000" font-family="sans-serif" font-size="14" lengthAdjust="spacing" textLength="126" x="30" y="456.4551">&#38450;&#21355;&#36807;&#24403;&#26377;&#25937;&#21161;&#20041;&#21153;</text><path d="M93,406.3477 L93,409.3477 C93,416.3477 93,421.3477 93,428.3477 L93,431.3477 " fill="none" style="stroke:#181818;stroke-width:1.0;"/><path d="M171.5,342.7266 L171.5,345.7266 C171.5,352.7266 93,357.7266 93,364.7266 L93,367.7266 " fill="none" style="stroke:#181818;stroke-width:1.0;"/><rect fill="#F1F1F1" height="38.6211" rx="12.5" ry="12.5" style="stroke:#181818;stroke-width:1.5;" width="76" x="151" y="367.7266"/><text fill="#000000" font-family="sans-serif" font-size="14" lengthAdjust="spacing" textLength="56" x="161" y="392.834">&#32039;&#24613;&#36991;&#38505;</text><path d="M171.5,342.7266 L171.5,345.7266 C171.5,352.7266 189,357.7266 189,364.7266 L189,367.7266 " fill="none" style="stroke:#181818;stroke-width:1.0;"/><rect fill="#F1F1F1" height="38.6211" rx="12.5" ry="12.5" style="stroke:#181818;stroke-width:1.5;" width="76" x="247" y="367.7266"/><text fill="#000000" font-family="sans-serif" font-size="14" lengthAdjust="spacing" textLength="56" x="257" y="392.834">&#29359;&#32618;&#34892;&#20026;</text><path d="M171.5,342.7266 L171.5,345.7266 C171.5,352.7266 285,357.7266 285,364.7266 L285,367.7266 " fill="none" style="stroke:#181818;stroke-width:1.0;"/><path d="M171.5,279.1055 L171.5,282.1055 C171.5,289.1055 171.5,294.1055 171.5,301.1055 L171.5,304.1055 " fill="none" style="stroke:#181818;stroke-width:1.0;"/><path d="M333.25,215.4844 L333.25,218.4844 C333.25,225.4844 171.5,230.4844 171.5,237.4844 L171.5,240.4844 " fill="none" style="stroke:#181818;stroke-width:1.0;"/><rect fill="#F1F1F1" height="38.6211" rx="12.5" ry="12.5" style="stroke:#181818;stroke-width:1.5;" width="146" x="278.5" y="240.4844"/><text fill="#000000" font-family="sans-serif" font-size="14" lengthAdjust="spacing" textLength="126" x="288.5" y="265.5918">&#33258;&#24049;&#30340;&#21361;&#38505;&#29289;&#65288;&#29399;&#65289;</text><path d="M333.25,215.4844 L333.25,218.4844 C333.25,225.4844 351.5,230.4844 351.5,237.4844 L351.5,240.4844 " fill="none" style="stroke:#181818;stroke-width:1.0;"/><rect fill="#F1F1F1" height="38.6211" rx="12.5" ry="12.5" style="stroke:#181818;stroke-width:1.5;" width="202" x="444.5" y="240.4844"/><text fill="#000000" font-family="sans-serif" font-size="14" lengthAdjust="spacing" textLength="182" x="454.5" y="265.5918">&#20182;&#20154;&#30340;&#21361;&#38505;&#34892;&#20026;&#65288;&#30417;&#25252;&#20851;&#31995;&#65289;</text><path d="M333.25,215.4844 L333.25,218.4844 C333.25,225.4844 545.5,230.4844 545.5,237.4844 L545.5,240.4844 " fill="none" style="stroke:#181818;stroke-width:1.0;"/><path d="M333.25,151.8633 L333.25,154.8633 C333.25,161.8633 333.25,166.8633 333.25,173.8633 L333.25,176.8633 " fill="none" style="stroke:#181818;stroke-width:1.0;"/><path d="M638.5811,88.2422 L638.5811,91.2422 C638.5811,98.2422 333.25,103.2422 333.25,110.2422 L333.25,113.2422 " fill="none" style="stroke:#181818;stroke-width:1.0;"/><rect fill="#90EE90" height="38.6211" rx="12.5" ry="12.5" style="stroke:#181818;stroke-width:1.5;" width="76" x="923.8311" y="113.2422"/><text fill="#000000" font-family="sans-serif" font-size="14" lengthAdjust="spacing" textLength="56" x="933.8311" y="138.3496">&#27861;&#30410;&#23545;&#35937;</text><rect fill="#90EE90" height="38.6211" rx="12.5" ry="12.5" style="stroke:#181818;stroke-width:1.5;" width="76" x="923.8311" y="176.8633"/><text fill="#000000" font-family="sans-serif" font-size="14" lengthAdjust="spacing" textLength="56" x="933.8311" y="201.9707">&#20445;&#25252;&#20041;&#21153;</text><rect fill="#F1F1F1" height="38.6211" rx="12.5" ry="12.5" style="stroke:#181818;stroke-width:1.5;" width="76" x="811.5" y="240.4844"/><text fill="#000000" font-family="sans-serif" font-size="14" lengthAdjust="spacing" textLength="56" x="821.5" y="265.5918">&#29305;&#23450;&#20851;&#31995;</text><rect fill="#F1F1F1" height="38.6211" rx="12.5" ry="12.5" style="stroke:#181818;stroke-width:1.5;" width="76" x="666.5" y="304.1055"/><text fill="#000000" font-family="sans-serif" font-size="14" lengthAdjust="spacing" textLength="56" x="676.5" y="329.2129">&#27861;&#24459;&#35268;&#23450;</text><path d="M849.5,279.1055 L849.5,282.1055 C849.5,289.1055 704.5,294.1055 704.5,301.1055 L704.5,304.1055 " fill="none" style="stroke:#181818;stroke-width:1.0;"/><rect fill="#F1F1F1" height="38.6211" rx="12.5" ry="12.5" style="stroke:#181818;stroke-width:1.5;" width="90" x="762.5" y="304.1055"/><text fill="#000000" font-family="sans-serif" font-size="14" lengthAdjust="spacing" textLength="70" x="772.5" y="329.2129">&#32844;&#21153;&#12289;&#19994;&#21153;</text><path d="M849.5,279.1055 L849.5,282.1055 C849.5,289.1055 807.5,294.1055 807.5,301.1055 L807.5,304.1055 " fill="none" style="stroke:#181818;stroke-width:1.0;"/><rect fill="#F1F1F1" height="38.6211" rx="12.5" ry="12.5" style="stroke:#181818;stroke-width:1.5;" width="160" x="872.5" y="304.1055"/><text fill="#000000" font-family="sans-serif" font-size="14" lengthAdjust="spacing" textLength="140" x="882.5" y="329.2129">&#33258;&#24895;&#25937;&#21161;&#65288;&#20381;&#36182;&#20851;&#31995;&#65289;</text><path d="M849.5,279.1055 L849.5,282.1055 C849.5,289.1055 952.5,294.1055 952.5,301.1055 L952.5,304.1055 " fill="none" style="stroke:#181818;stroke-width:1.0;"/><path d="M961.8311,215.4844 L961.8311,218.4844 C961.8311,225.4844 849.5,230.4844 849.5,237.4844 L849.5,240.4844 " fill="none" style="stroke:#181818;stroke-width:1.0;"/><rect fill="#F1F1F1" height="38.6211" rx="12.5" ry="12.5" style="stroke:#181818;stroke-width:1.5;" width="76" x="1116.8311" y="240.4844"/><text fill="#000000" font-family="sans-serif" font-size="14" lengthAdjust="spacing" textLength="56" x="1126.8311" y="265.5918">&#29305;&#23450;&#39046;&#22495;</text><rect fill="#F1F1F1" height="38.6211" rx="12.5" ry="12.5" style="stroke:#181818;stroke-width:1.5;" width="108.6621" x="1052.5" y="304.1055"/><text fill="#000000" font-family="sans-serif" font-size="14" lengthAdjust="spacing" textLength="88.6621" x="1062.5" y="329.2129">&#20027;&#20154;-&#23458;&#20154;&#20851;&#31995;</text><path d="M1154.8311,279.1055 L1154.8311,282.1055 C1154.8311,289.1055 1106.8311,294.1055 1106.8311,301.1055 L1106.8311,304.1055 " fill="none" style="stroke:#181818;stroke-width:1.0;"/><rect fill="#F1F1F1" height="38.6211" rx="12.5" ry="12.5" style="stroke:#181818;stroke-width:1.5;" width="76" x="1181.1621" y="304.1055"/><text fill="#000000" font-family="sans-serif" font-size="14" lengthAdjust="spacing" textLength="56" x="1191.1621" y="329.2129">&#20381;&#36182;&#20851;&#31995;</text><path d="M1154.8311,279.1055 L1154.8311,282.1055 C1154.8311,289.1055 1219.1621,294.1055 1219.1621,301.1055 L1219.1621,304.1055 " fill="none" style="stroke:#181818;stroke-width:1.0;"/><path d="M961.8311,215.4844 L961.8311,218.4844 C961.8311,225.4844 1154.8311,230.4844 1154.8311,237.4844 L1154.8311,240.4844 " fill="none" style="stroke:#181818;stroke-width:1.0;"/><path d="M961.8311,151.8633 L961.8311,154.8633 C961.8311,161.8633 961.8311,166.8633 961.8311,173.8633 L961.8311,176.8633 " fill="none" style="stroke:#181818;stroke-width:1.0;"/><path d="M638.5811,88.2422 L638.5811,91.2422 C638.5811,98.2422 961.8311,103.2422 961.8311,110.2422 L961.8311,113.2422 " fill="none" style="stroke:#181818;stroke-width:1.0;"/><!--SRC=[xPHRInj15CVVvrDCyKM5H2DIRP0YYHLg3IsD-b9yM9DfkhZP3PDPIoY20Iz9L52AjbLJYRPObIfMRMEYviDqRtdoA_HaDskZtMsXpow1tSp_DsVEPSxfJJAEiZWlHkDS0g5xl1WHv2Z1NczRagK4qbQJFA1vpBzUNeuB236U2GGhnKNbOaCfblJSeRushMMMzFrvBLzGojyzbg2SPTLSmQCUV3HElW2Yb1RKpAnnU08cf0Hc4XwJ69FYECfJ4c6y92BKYjN5e-g7NUqqZJ0yhI-Q13xsYiKe8UAeBPQMJD41qDUNzVosTV8rOtBOcDjJVno17-fCnYWim0zyl3hFMEjNvzaRlBL7pvvf1paB_KEk7ozHJeoHKQnztLOltbRVVrCNznrPowG569KvWBMDhBQohEPs7HnkSE9aHvlwN4rN87Gt16fmiUVWPsFOPkxqx2x4hC-_knrmArRAgqgfT4rU9mXogkK-gJF7-d7PtdKhxThnYhwUKm_FZAE2MscKIXxCE9O6qgmUh5adE5G1hAkNyyRED40Eif5U09C_fz9ASSqfYsOEjEcAbMe8IBdC6wUhDmEwxKnrQrRTt7ImfHJBa2MurLlmSdMvyGZKIw31x2RhlTbpFMPdFKJrXJwUYr4kZj-0JU-O81Fp2-C05ncFKKaMeq59a2Ws4rlJGPsiiL6EZbCITS7hgWsR5VcRPHDee5F_W5CsQpM32ss9DfgGQK9mGotHHjq3QmYAIaatQqtz_O50C6YJAI88qciNrX9DT1BrjDNBSpVqxeRUtT3xxw7tJE14DXmQn1E49k7EOv-texsZqzlL7EOO3fC4Rk_2lWT-NxVVruM3uI5SarjGS-Zn44vACeqGQ9Wae_oONEkP5ZJ0JN3ukImoFaxy-6c2Y0DzJ-m5_4YSuAaaned8qC18w3TmlzCJu6idKl04ZuHG7td9oGA37H4foeinFnuUwlTqeq6utp8N0zim28Cm7XXDWHR-1G00]--></g></svg>