<svg xmlns="http://www.w3.org/2000/svg" xmlns:xlink="http://www.w3.org/1999/xlink" contentStyleType="text/css" height="618px" preserveAspectRatio="none" style="width:858px;height:618px;background:#FFFFFF;" version="1.1" viewBox="0 0 858 618" width="858px" zoomAndPan="magnify"><title>&#19981;&#20316;&#20026;&#29359;&#30340;&#25104;&#31435;&#26465;&#20214;</title><defs/><g><text fill="#000000" font-family="sans-serif" font-size="14" font-weight="bold" lengthAdjust="spacing" textLength="129.9375" x="362.9243" y="35.1074">&#19981;&#20316;&#20026;&#29359;&#30340;&#25104;&#31435;&#26465;&#20214;</text><rect fill="#F1F1F1" height="38.6211" rx="12.5" ry="12.5" style="stroke:#181818;stroke-width:1.5;" width="146" x="10" y="308.7607"/><text fill="#000000" font-family="sans-serif" font-size="14" lengthAdjust="spacing" textLength="126" x="20" y="333.8682">&#19981;&#20316;&#20026;&#29359;&#30340;&#25104;&#31435;&#26465;&#20214;</text><rect fill="#F1F1F1" height="38.6211" rx="12.5" ry="12.5" style="stroke:#181818;stroke-width:1.5;" width="76" x="206" y="235.4844"/><text fill="#000000" font-family="sans-serif" font-size="14" lengthAdjust="spacing" textLength="56" x="216" y="260.5918">&#23458;&#35266;&#26465;&#20214;</text><rect fill="#F1F1F1" height="38.6211" rx="12.5" ry="12.5" style="stroke:#181818;stroke-width:1.5;" width="48" x="332" y="176.8633"/><text fill="#000000" font-family="sans-serif" font-size="14" lengthAdjust="spacing" textLength="28" x="342" y="201.9707">&#34892;&#20026;</text><rect fill="#90EE90" height="38.6211" rx="12.5" ry="12.5" style="stroke:#181818;stroke-width:1.5;" width="104" x="430" y="88.9316"/><text fill="#000000" font-family="sans-serif" font-size="14" lengthAdjust="spacing" textLength="84" x="440" y="114.0391">&#24212;&#20026;&#65288;&#20041;&#21153;&#65289;</text><rect fill="#F1F1F1" height="38.6211" rx="12.5" ry="12.5" style="stroke:#181818;stroke-width:1.5;" width="137.8584" x="584" y="59.6211"/><text fill="#000000" font-family="sans-serif" font-size="14" lengthAdjust="spacing" textLength="117.8584" x="594" y="84.7285">&#21361;&#38505;&#28304; &#8594; &#30417;&#31649;&#20041;&#21153;</text><path d="M534,108.2422 L544,108.2422 C559,108.2422 559,78.9316 574,78.9316 L584,78.9316 " fill="none" style="stroke:#181818;stroke-width:1.0;"/><rect fill="#F1F1F1" height="38.6211" rx="12.5" ry="12.5" style="stroke:#181818;stroke-width:1.5;" width="151.8584" x="584" y="118.2422"/><text fill="#000000" font-family="sans-serif" font-size="14" lengthAdjust="spacing" textLength="131.8584" x="594" y="143.3496">&#27861;&#30410;&#23545;&#35937; &#8594; &#20445;&#25252;&#20041;&#21153;</text><path d="M534,108.2422 L544,108.2422 C559,108.2422 559,137.5527 574,137.5527 L584,137.5527 " fill="none" style="stroke:#181818;stroke-width:1.0;"/><path d="M380,196.1738 L390,196.1738 C405,196.1738 405,108.2422 420,108.2422 L430,108.2422 " fill="none" style="stroke:#181818;stroke-width:1.0;"/><rect fill="#90EE90" height="38.6211" rx="12.5" ry="12.5" style="stroke:#181818;stroke-width:1.5;" width="104" x="430" y="206.1738"/><text fill="#000000" font-family="sans-serif" font-size="14" lengthAdjust="spacing" textLength="84" x="440" y="231.2813">&#33021;&#20026;&#65288;&#33021;&#21147;&#65289;</text><rect fill="#F1F1F1" height="38.6211" rx="12.5" ry="12.5" style="stroke:#181818;stroke-width:1.5;" width="76" x="584" y="176.8633"/><text fill="#000000" font-family="sans-serif" font-size="14" lengthAdjust="spacing" textLength="56" x="594" y="201.9707">&#33258;&#36523;&#33021;&#21147;</text><path d="M534,225.4844 L544,225.4844 C559,225.4844 559,196.1738 574,196.1738 L584,196.1738 " fill="none" style="stroke:#181818;stroke-width:1.0;"/><rect fill="#F1F1F1" height="38.6211" rx="12.5" ry="12.5" style="stroke:#181818;stroke-width:1.5;" width="76" x="584" y="235.4844"/><text fill="#000000" font-family="sans-serif" font-size="14" lengthAdjust="spacing" textLength="56" x="594" y="260.5918">&#23458;&#35266;&#26465;&#20214;</text><path d="M534,225.4844 L544,225.4844 C559,225.4844 559,254.7949 574,254.7949 L584,254.7949 " fill="none" style="stroke:#181818;stroke-width:1.0;"/><path d="M380,196.1738 L390,196.1738 C405,196.1738 405,225.4844 420,225.4844 L430,225.4844 " fill="none" style="stroke:#181818;stroke-width:1.0;"/><rect fill="#90EE90" height="38.6211" rx="12.5" ry="12.5" style="stroke:#181818;stroke-width:1.5;" width="104" x="430" y="294.1055"/><text fill="#000000" font-family="sans-serif" font-size="14" lengthAdjust="spacing" textLength="84" x="440" y="319.2129">&#19981;&#20026;&#65288;&#26080;&#35270;&#65289;</text><rect fill="#F1F1F1" height="38.6211" rx="12.5" ry="12.5" style="stroke:#181818;stroke-width:1.5;" width="48" x="584" y="294.1055"/><text fill="#000000" font-family="sans-serif" font-size="14" lengthAdjust="spacing" textLength="28" x="594" y="319.2129">&#25490;&#38500;</text><rect fill="#FFA500" height="38.6211" rx="12.5" ry="12.5" style="stroke:#181818;stroke-width:1.5;" width="118" x="682" y="294.1055"/><text fill="#000000" font-family="sans-serif" font-size="14" lengthAdjust="spacing" textLength="98" x="692" y="319.2129">&#32467;&#26524;&#36991;&#20813;&#21487;&#33021;&#24615;</text><path d="M632,313.416 L642,313.416 C657,313.416 657,313.416 672,313.416 L682,313.416 " fill="none" style="stroke:#181818;stroke-width:1.0;"/><path d="M534,313.416 L544,313.416 C559,313.416 559,313.416 574,313.416 L584,313.416 " fill="none" style="stroke:#181818;stroke-width:1.0;"/><path d="M380,196.1738 L390,196.1738 C405,196.1738 405,313.416 420,313.416 L430,313.416 " fill="none" style="stroke:#181818;stroke-width:1.0;"/><path d="M282,254.7949 L292,254.7949 C307,254.7949 307,196.1738 322,196.1738 L332,196.1738 " fill="none" style="stroke:#181818;stroke-width:1.0;"/><rect fill="#F1F1F1" height="38.6211" rx="12.5" ry="12.5" style="stroke:#181818;stroke-width:1.5;" width="48" x="332" y="382.0371"/><text fill="#000000" font-family="sans-serif" font-size="14" lengthAdjust="spacing" textLength="28" x="342" y="407.1445">&#32467;&#26524;</text><rect fill="#F1F1F1" height="38.6211" rx="12.5" ry="12.5" style="stroke:#181818;stroke-width:1.5;" width="174" x="430" y="352.7266"/><text fill="#000000" font-family="sans-serif" font-size="14" lengthAdjust="spacing" textLength="154" x="440" y="377.834">&#31561;&#20215;&#24615;&#38382;&#39064;&#65288;&#31243;&#24230;&#38382;&#39064;&#65289;</text><text fill="#000000" font-family="sans-serif" font-size="14" lengthAdjust="spacing" textLength="147.7861" x="657" y="367.5234">&#27597;&#20146;&#19981;&#32473;&#23401;&#23376;&#21890;&#20859;1&#23567;&#26102;</text><path d="M604,372.0371 L614,372.0371 C629,372.0371 629,361.7266 644,361.7266 L654,361.7266 " fill="none" style="stroke:#181818;stroke-width:1.0;"/><text fill="#000000" font-family="sans-serif" font-size="14" lengthAdjust="spacing" textLength="133.7861" x="657" y="388.1445">&#27597;&#20146;&#19981;&#32473;&#23401;&#23376;&#21890;&#20859;3&#22825;</text><path d="M604,372.0371 L614,372.0371 C629,372.0371 629,382.3477 644,382.3477 L654,382.3477 " fill="none" style="stroke:#181818;stroke-width:1.0;"/><path d="M380,401.3477 L390,401.3477 C405,401.3477 405,372.0371 420,372.0371 L430,372.0371 " fill="none" style="stroke:#181818;stroke-width:1.0;"/><rect fill="#F1F1F1" height="38.6211" rx="12.5" ry="12.5" style="stroke:#181818;stroke-width:1.5;" width="118" x="430" y="411.3477"/><text fill="#000000" font-family="sans-serif" font-size="14" lengthAdjust="spacing" textLength="98" x="440" y="436.4551">&#23384;&#22312;&#26082;&#36930;&#21644;&#26410;&#36930;</text><text fill="#000000" font-family="sans-serif" font-size="14" lengthAdjust="spacing" textLength="245.7861" x="601" y="427.1445">&#27597;&#20146;&#19981;&#32473;&#23401;&#23376;&#21890;&#20859;2&#22825;&#65292;&#23401;&#23376;&#22852;&#22852;&#19968;&#24687;&#65307;</text><text fill="#000000" font-family="sans-serif" font-size="14" lengthAdjust="spacing" textLength="182" x="601" y="445.7656">&#37051;&#23621;&#21457;&#29616;&#65292;&#39532;&#19978;&#25937;&#25588;&#65292;&#26159;&#26410;&#36930;</text><path d="M548,430.6582 L558,430.6582 C573,430.6582 573,430.6582 588,430.6582 L598,430.6582 " fill="none" style="stroke:#181818;stroke-width:1.0;"/><path d="M380,401.3477 L390,401.3477 C405,401.3477 405,430.6582 420,430.6582 L430,430.6582 " fill="none" style="stroke:#181818;stroke-width:1.0;"/><path d="M282,254.7949 L292,254.7949 C307,254.7949 307,401.3477 322,401.3477 L332,401.3477 " fill="none" style="stroke:#181818;stroke-width:1.0;"/><path d="M156,328.0713 L166,328.0713 C181,328.0713 181,254.7949 196,254.7949 L206,254.7949 " fill="none" style="stroke:#181818;stroke-width:1.0;"/><rect fill="#F1F1F1" height="38.6211" rx="12.5" ry="12.5" style="stroke:#181818;stroke-width:1.5;" width="76" x="206" y="513.9346"/><text fill="#000000" font-family="sans-serif" font-size="14" lengthAdjust="spacing" textLength="56" x="216" y="539.042">&#20027;&#35266;&#35201;&#20214;</text><rect fill="#F1F1F1" height="38.6211" rx="12.5" ry="12.5" style="stroke:#181818;stroke-width:1.5;" width="48" x="332" y="499.2793"/><text fill="#000000" font-family="sans-serif" font-size="14" lengthAdjust="spacing" textLength="28" x="342" y="524.3867">&#25925;&#24847;</text><rect fill="#90EE90" height="38.6211" rx="12.5" ry="12.5" style="stroke:#181818;stroke-width:1.5;" width="104" x="430" y="469.9688"/><text fill="#000000" font-family="sans-serif" font-size="14" lengthAdjust="spacing" textLength="84" x="440" y="495.0762">&#20107;&#23454;&#35748;&#35782;&#38169;&#35823;</text><path d="M380,518.5898 L390,518.5898 C405,518.5898 405,489.2793 420,489.2793 L430,489.2793 " fill="none" style="stroke:#181818;stroke-width:1.0;"/><rect fill="#90EE90" height="38.6211" rx="12.5" ry="12.5" style="stroke:#181818;stroke-width:1.5;" width="104" x="430" y="528.5898"/><text fill="#000000" font-family="sans-serif" font-size="14" lengthAdjust="spacing" textLength="84" x="440" y="553.6973">&#27861;&#24459;&#35748;&#35782;&#38169;&#35823;</text><path d="M380,518.5898 L390,518.5898 C405,518.5898 405,547.9004 420,547.9004 L430,547.9004 " fill="none" style="stroke:#181818;stroke-width:1.0;"/><path d="M282,533.2451 L292,533.2451 C307,533.2451 307,518.5898 322,518.5898 L332,518.5898 " fill="none" style="stroke:#181818;stroke-width:1.0;"/><rect fill="#F1F1F1" height="38.6211" rx="12.5" ry="12.5" style="stroke:#181818;stroke-width:1.5;" width="48" x="332" y="557.9004"/><text fill="#000000" font-family="sans-serif" font-size="14" lengthAdjust="spacing" textLength="28" x="342" y="583.0078">&#36807;&#22833;</text><path d="M282,533.2451 L292,533.2451 C307,533.2451 307,577.2109 322,577.2109 L332,577.2109 " fill="none" style="stroke:#181818;stroke-width:1.0;"/><path d="M156,328.0713 L166,328.0713 C181,328.0713 181,533.2451 196,533.2451 L206,533.2451 " fill="none" style="stroke:#181818;stroke-width:1.0;"/><!--SRC=[xPHTJzDG6CVl-ocEuGP8DXWQmOKOmf14PD78ouqIKzXnDdJjqhMOnP2moUl6620ua9SuCdcLbQb1s42-Y-avRQ_s5JnhDzsmmt1fGjEBSvx_xppdtvxdF6q1aHP47yDvVBIVecunt10hUI2msni2Of253GN9HZIRCRKpae-bA94HMGYKavXolgwSPDM8h7uOnzFpwa4KRoILt355rLyf0_BK0vJUqdR2PI4ph2LdoQhV0IFuh8PblAz4hm0XDm1GTeaG-RDfvNG6HPBvivaAkfWzbj5Nzt1s7loSN0JgseAQJfgy1Oo_Bgjh4IIVQfcamIiN6pYIik0lMT7UdfjMo015rgojQ5FxMlR09AoSMlq7YxqAVzJO2oS-QZkJrdlXkKLzDVMNK4p72pJdXGD0pRt3c-jww09Dn51S9jRms4xP6PXwfHcW7iuekUy4r1DfVMk5655teoYxNPfQs7a1i1nJib-8TJMtYWxtqE4yUXz64pa7EehZnF5rbjn6gRrBbj3X2bhVnOajFHH6YxDuVPyChfEpYUJCdyqMGv_6oQkSZE6Gd3zRUyxfuHpAJA3uWZftH2XzxxDo4i7B2pZ-ZKpnYbosOQ7YS-GSjUrGPJtZvGay7h_oOBDHbDxKqYbDdjINLZLPleecjOf-H2rfKceNKoYLeTeWkT6bMzrMUSbRZQjydoe6EXZQAz0-y8PaiG-o4ZH60BJJGyDUWPSuZujdUG4O5WewKKSBh8SMXWNegO8NrH9iUBygim6KqS5_mC4IQvPq5TeKIwXV4lniDTGKIsZr3olxA84FLCjMqzdPtkvobSWWP5d-THNM50rqb6fjA1xFJPUzwR8tNVR_wR9FM9eJ-zpTO0GA0ORdWCFUrDXqnzvSsqEBe0VwGMCpSDnpEbgSZcRWwka51RcEgdK_x0K1NXA68F0m0L5W1YMHhA-ZkkWH6ZoLE97nGITux8TSLyUZKW0yu4OOWUTya1Efhdxt7-3k7LixKzXH84v0lvlgW2zfYHN9YY7Umt1U9-ZhxRIrKDsaIYNQItAJpkiY_KWKWaJh-GK0]--></g></svg>