<svg xmlns="http://www.w3.org/2000/svg" xmlns:xlink="http://www.w3.org/1999/xlink" contentStyleType="text/css" height="765px" preserveAspectRatio="none" style="width:746px;height:765px;background:#FFFFFF;" version="1.1" viewBox="0 0 746 765" width="746px" zoomAndPan="magnify"><title>&#32467;&#26524;&#21152;&#37325;&#29359;-&#27861;&#23450;&#24615;</title><defs/><g><text fill="#000000" font-family="sans-serif" font-size="14" font-weight="bold" lengthAdjust="spacing" textLength="120.1621" x="311.75" y="35.1074">&#32467;&#26524;&#21152;&#37325;&#29359;-&#27861;&#23450;&#24615;</text><rect fill="#F1F1F1" height="38.6211" rx="12.5" ry="12.5" style="stroke:#181818;stroke-width:1.5;" width="136.6621" x="10" y="382.0371"/><text fill="#000000" font-family="sans-serif" font-size="14" lengthAdjust="spacing" textLength="116.6621" x="20" y="407.1445">&#32467;&#26524;&#21152;&#37325;&#29359;-&#27861;&#23450;&#24615;</text><rect fill="#90EE90" height="38.6211" rx="12.5" ry="12.5" style="stroke:#181818;stroke-width:1.5;" width="76" x="196.6621" y="235.4844"/><text fill="#000000" font-family="sans-serif" font-size="14" lengthAdjust="spacing" textLength="56" x="206.6621" y="260.5918">&#36807;&#22833;&#24515;&#29702;</text><rect fill="#F1F1F1" height="38.6211" rx="12.5" ry="12.5" style="stroke:#181818;stroke-width:1.5;" width="76" x="322.6621" y="59.6211"/><text fill="#000000" font-family="sans-serif" font-size="14" lengthAdjust="spacing" textLength="56" x="332.6621" y="84.7285">&#25925;&#24847;&#20260;&#23475;</text><rect fill="#F1F1F1" height="38.6211" rx="12.5" ry="12.5" style="stroke:#181818;stroke-width:1.5;" width="76" x="448.6621" y="59.6211"/><text fill="#000000" font-family="sans-serif" font-size="14" lengthAdjust="spacing" textLength="56" x="458.6621" y="84.7285">&#33268;&#20154;&#27515;&#20129;</text><path d="M398.6621,78.9316 L408.6621,78.9316 C423.6621,78.9316 423.6621,78.9316 438.6621,78.9316 L448.6621,78.9316 " fill="none" style="stroke:#181818;stroke-width:1.0;"/><path d="M272.6621,254.7949 L282.6621,254.7949 C297.6621,254.7949 297.6621,78.9316 312.6621,78.9316 L322.6621,78.9316 " fill="none" style="stroke:#181818;stroke-width:1.0;"/><rect fill="#F1F1F1" height="38.6211" rx="12.5" ry="12.5" style="stroke:#181818;stroke-width:1.5;" width="90" x="322.6621" y="118.2422"/><text fill="#000000" font-family="sans-serif" font-size="14" lengthAdjust="spacing" textLength="70" x="332.6621" y="143.3496">&#38750;&#27861;&#25304;&#31105;&#32618;</text><rect fill="#F1F1F1" height="38.6211" rx="12.5" ry="12.5" style="stroke:#181818;stroke-width:1.5;" width="118" x="462.6621" y="118.2422"/><text fill="#000000" font-family="sans-serif" font-size="14" lengthAdjust="spacing" textLength="98" x="472.6621" y="143.3496">&#33268;&#20154;&#37325;&#20260;&#12289;&#27515;&#20129;</text><path d="M412.6621,137.5527 L422.6621,137.5527 C437.6621,137.5527 437.6621,137.5527 452.6621,137.5527 L462.6621,137.5527 " fill="none" style="stroke:#181818;stroke-width:1.0;"/><path d="M272.6621,254.7949 L282.6621,254.7949 C297.6621,254.7949 297.6621,137.5527 312.6621,137.5527 L322.6621,137.5527 " fill="none" style="stroke:#181818;stroke-width:1.0;"/><rect fill="#F1F1F1" height="38.6211" rx="12.5" ry="12.5" style="stroke:#181818;stroke-width:1.5;" width="146" x="322.6621" y="176.8633"/><text fill="#000000" font-family="sans-serif" font-size="14" lengthAdjust="spacing" textLength="126" x="332.6621" y="201.9707">&#26292;&#21147;&#24178;&#28041;&#23130;&#23035;&#33258;&#30001;&#32618;</text><rect fill="#F1F1F1" height="38.6211" rx="12.5" ry="12.5" style="stroke:#181818;stroke-width:1.5;" width="76" x="518.6621" y="176.8633"/><text fill="#000000" font-family="sans-serif" font-size="14" lengthAdjust="spacing" textLength="56" x="528.6621" y="201.9707">&#33268;&#20154;&#27515;&#20129;</text><path d="M468.6621,196.1738 L478.6621,196.1738 C493.6621,196.1738 493.6621,196.1738 508.6621,196.1738 L518.6621,196.1738 " fill="none" style="stroke:#181818;stroke-width:1.0;"/><path d="M272.6621,254.7949 L282.6621,254.7949 C297.6621,254.7949 297.6621,196.1738 312.6621,196.1738 L322.6621,196.1738 " fill="none" style="stroke:#181818;stroke-width:1.0;"/><rect fill="#F1F1F1" height="38.6211" rx="12.5" ry="12.5" style="stroke:#181818;stroke-width:1.5;" width="118" x="322.6621" y="294.1055"/><text fill="#000000" font-family="sans-serif" font-size="14" lengthAdjust="spacing" textLength="98" x="332.6621" y="319.2129">&#34384;&#24453;&#32618;&#33268;&#20154;&#27515;&#20129;</text><rect fill="#FFA500" height="38.6211" rx="12.5" ry="12.5" style="stroke:#181818;stroke-width:1.5;" width="118" x="490.6621" y="294.1055"/><text fill="#000000" font-family="sans-serif" font-size="14" lengthAdjust="spacing" textLength="98" x="500.6621" y="319.2129">&#21306;&#20998;&#65288;&#19981;&#26500;&#25104;&#65289;</text><rect fill="#F1F1F1" height="38.6211" rx="12.5" ry="12.5" style="stroke:#181818;stroke-width:1.5;" width="62" x="658.6621" y="235.4844"/><text fill="#000000" font-family="sans-serif" font-size="14" lengthAdjust="spacing" textLength="42" x="668.6621" y="260.5918">&#20398;&#36785;&#32618;</text><path d="M608.6621,313.416 L618.6621,313.416 C633.6621,313.416 633.6621,254.7949 648.6621,254.7949 L658.6621,254.7949 " fill="none" style="stroke:#181818;stroke-width:1.0;"/><rect fill="#F1F1F1" height="38.6211" rx="12.5" ry="12.5" style="stroke:#181818;stroke-width:1.5;" width="62" x="658.6621" y="294.1055"/><text fill="#000000" font-family="sans-serif" font-size="14" lengthAdjust="spacing" textLength="42" x="668.6621" y="319.2129">&#35837;&#35876;&#32618;</text><path d="M608.6621,313.416 L618.6621,313.416 C633.6621,313.416 633.6621,313.416 648.6621,313.416 L658.6621,313.416 " fill="none" style="stroke:#181818;stroke-width:1.0;"/><rect fill="#F1F1F1" height="38.6211" rx="12.5" ry="12.5" style="stroke:#181818;stroke-width:1.5;" width="62" x="658.6621" y="352.7266"/><text fill="#000000" font-family="sans-serif" font-size="14" lengthAdjust="spacing" textLength="42" x="668.6621" y="377.834">&#36951;&#24323;&#32618;</text><path d="M608.6621,313.416 L618.6621,313.416 C633.6621,313.416 633.6621,372.0371 648.6621,372.0371 L658.6621,372.0371 " fill="none" style="stroke:#181818;stroke-width:1.0;"/><path d="M440.6621,313.416 L450.6621,313.416 C465.6621,313.416 465.6621,313.416 480.6621,313.416 L490.6621,313.416 " fill="none" style="stroke:#181818;stroke-width:1.0;"/><path d="M272.6621,254.7949 L282.6621,254.7949 C297.6621,254.7949 297.6621,313.416 312.6621,313.416 L322.6621,313.416 " fill="none" style="stroke:#181818;stroke-width:1.0;"/><rect fill="#F1F1F1" height="38.6211" rx="12.5" ry="12.5" style="stroke:#181818;stroke-width:1.5;" width="118" x="322.6621" y="411.3477"/><text fill="#000000" font-family="sans-serif" font-size="14" lengthAdjust="spacing" textLength="98" x="332.6621" y="436.4551">&#25250;&#22842;&#32618;&#65288;&#36807;&#22833;&#65289;</text><rect fill="#F1F1F1" height="38.6211" rx="12.5" ry="12.5" style="stroke:#181818;stroke-width:1.5;" width="244" x="490.6621" y="411.3477"/><text fill="#000000" font-family="sans-serif" font-size="14" lengthAdjust="spacing" textLength="224" x="500.6621" y="436.4551">&#33268;&#20154;&#37325;&#20260;&#12289;&#27515;&#20129;&#65288;&#21496;&#27861;&#35299;&#37322;&#30340;&#35268;&#23450;&#65289;</text><path d="M440.6621,430.6582 L450.6621,430.6582 C465.6621,430.6582 465.6621,430.6582 480.6621,430.6582 L490.6621,430.6582 " fill="none" style="stroke:#181818;stroke-width:1.0;"/><path d="M272.6621,254.7949 L282.6621,254.7949 C297.6621,254.7949 297.6621,430.6582 312.6621,430.6582 L322.6621,430.6582 " fill="none" style="stroke:#181818;stroke-width:1.0;"/><path d="M146.6621,401.3477 L156.6621,401.3477 C171.6621,401.3477 171.6621,254.7949 186.6621,254.7949 L196.6621,254.7949 " fill="none" style="stroke:#181818;stroke-width:1.0;"/><rect fill="#90EE90" height="38.6211" rx="12.5" ry="12.5" style="stroke:#181818;stroke-width:1.5;" width="90" x="196.6621" y="587.2109"/><text fill="#000000" font-family="sans-serif" font-size="14" lengthAdjust="spacing" textLength="70" x="206.6621" y="612.3184">&#25925;&#24847;&#25110;&#36807;&#22833;</text><rect fill="#F1F1F1" height="38.6211" rx="12.5" ry="12.5" style="stroke:#181818;stroke-width:1.5;" width="62" x="336.6621" y="469.9688"/><text fill="#000000" font-family="sans-serif" font-size="14" lengthAdjust="spacing" textLength="42" x="346.6621" y="495.0762">&#25250;&#21163;&#32618;</text><rect fill="#F1F1F1" height="38.6211" rx="12.5" ry="12.5" style="stroke:#181818;stroke-width:1.5;" width="118" x="448.6621" y="469.9688"/><text fill="#000000" font-family="sans-serif" font-size="14" lengthAdjust="spacing" textLength="98" x="458.6621" y="495.0762">&#33268;&#20154;&#37325;&#20260;&#12289;&#27515;&#20129;</text><path d="M398.6621,489.2793 L408.6621,489.2793 C423.6621,489.2793 423.6621,489.2793 438.6621,489.2793 L448.6621,489.2793 " fill="none" style="stroke:#181818;stroke-width:1.0;"/><path d="M286.6621,606.5215 L296.6621,606.5215 C311.6621,606.5215 311.6621,489.2793 326.6621,489.2793 L336.6621,489.2793 " fill="none" style="stroke:#181818;stroke-width:1.0;"/><rect fill="#F1F1F1" height="38.6211" rx="12.5" ry="12.5" style="stroke:#181818;stroke-width:1.5;" width="62" x="336.6621" y="557.9004"/><text fill="#000000" font-family="sans-serif" font-size="14" lengthAdjust="spacing" textLength="42" x="346.6621" y="583.0078">&#24378;&#22904;&#32618;</text><rect fill="#F1F1F1" height="38.6211" rx="12.5" ry="12.5" style="stroke:#181818;stroke-width:1.5;" width="118" x="448.6621" y="528.5898"/><text fill="#000000" font-family="sans-serif" font-size="14" lengthAdjust="spacing" textLength="98" x="458.6621" y="553.6973">&#33268;&#20154;&#37325;&#20260;&#12289;&#27515;&#20129;</text><path d="M398.6621,577.2109 L408.6621,577.2109 C423.6621,577.2109 423.6621,547.9004 438.6621,547.9004 L448.6621,547.9004 " fill="none" style="stroke:#181818;stroke-width:1.0;"/><rect fill="#FFA500" height="38.6211" rx="12.5" ry="12.5" style="stroke:#181818;stroke-width:1.5;" width="118" x="448.6621" y="587.2109"/><text fill="#000000" font-family="sans-serif" font-size="14" lengthAdjust="spacing" textLength="98" x="458.6621" y="612.3184">&#21306;&#20998;&#65288;&#19981;&#26500;&#25104;&#65289;</text><rect fill="#FFA500" height="38.6211" rx="12.5" ry="12.5" style="stroke:#181818;stroke-width:1.5;" width="90" x="616.6621" y="587.2109"/><text fill="#000000" font-family="sans-serif" font-size="14" lengthAdjust="spacing" textLength="70" x="626.6621" y="612.3184">&#24378;&#21046;&#29477;&#20149;&#32618;</text><path d="M566.6621,606.5215 L576.6621,606.5215 C591.6621,606.5215 591.6621,606.5215 606.6621,606.5215 L616.6621,606.5215 " fill="none" style="stroke:#181818;stroke-width:1.0;"/><path d="M398.6621,577.2109 L408.6621,577.2109 C423.6621,577.2109 423.6621,606.5215 438.6621,606.5215 L448.6621,606.5215 " fill="none" style="stroke:#181818;stroke-width:1.0;"/><path d="M286.6621,606.5215 L296.6621,606.5215 C311.6621,606.5215 311.6621,577.2109 326.6621,577.2109 L336.6621,577.2109 " fill="none" style="stroke:#181818;stroke-width:1.0;"/><rect fill="#F1F1F1" height="38.6211" rx="12.5" ry="12.5" style="stroke:#181818;stroke-width:1.5;" width="132" x="336.6621" y="645.832"/><text fill="#000000" font-family="sans-serif" font-size="14" lengthAdjust="spacing" textLength="112" x="346.6621" y="670.9395">&#25296;&#21334;&#22919;&#22899;&#12289;&#20799;&#31461;&#32618;</text><rect fill="#F1F1F1" height="38.6211" rx="12.5" ry="12.5" style="stroke:#181818;stroke-width:1.5;" width="118" x="518.6621" y="645.832"/><text fill="#000000" font-family="sans-serif" font-size="14" lengthAdjust="spacing" textLength="98" x="528.6621" y="670.9395">&#33268;&#20154;&#37325;&#20260;&#12289;&#27515;&#20129;</text><path d="M468.6621,665.1426 L478.6621,665.1426 C493.6621,665.1426 493.6621,665.1426 508.6621,665.1426 L518.6621,665.1426 " fill="none" style="stroke:#181818;stroke-width:1.0;"/><path d="M286.6621,606.5215 L296.6621,606.5215 C311.6621,606.5215 311.6621,665.1426 326.6621,665.1426 L336.6621,665.1426 " fill="none" style="stroke:#181818;stroke-width:1.0;"/><rect fill="#F1F1F1" height="38.6211" rx="12.5" ry="12.5" style="stroke:#181818;stroke-width:1.5;" width="62" x="336.6621" y="704.4531"/><text fill="#000000" font-family="sans-serif" font-size="14" lengthAdjust="spacing" textLength="42" x="346.6621" y="729.5605">&#25918;&#28779;&#32618;</text><rect fill="#F1F1F1" height="38.6211" rx="12.5" ry="12.5" style="stroke:#181818;stroke-width:1.5;" width="118" x="448.6621" y="704.4531"/><text fill="#000000" font-family="sans-serif" font-size="14" lengthAdjust="spacing" textLength="98" x="458.6621" y="729.5605">&#33268;&#20154;&#37325;&#20260;&#12289;&#27515;&#20129;</text><path d="M398.6621,723.7637 L408.6621,723.7637 C423.6621,723.7637 423.6621,723.7637 438.6621,723.7637 L448.6621,723.7637 " fill="none" style="stroke:#181818;stroke-width:1.0;"/><path d="M286.6621,606.5215 L296.6621,606.5215 C311.6621,606.5215 311.6621,723.7637 326.6621,723.7637 L336.6621,723.7637 " fill="none" style="stroke:#181818;stroke-width:1.0;"/><path d="M146.6621,401.3477 L156.6621,401.3477 C171.6621,401.3477 171.6621,606.5215 186.6621,606.5215 L196.6621,606.5215 " fill="none" style="stroke:#181818;stroke-width:1.0;"/><!--SRC=[xLHTJnf157sVNp5DNzG456Eg9SGOi2QraZP5VJKhJBURxiwQPTR4D2OIKH0rabHjIrlJ3v1KKwtL6hiY_fWok_3aN-Xb5wgDQDINliWJp3dddll1lJrH9cXCaMX44SOGkYFHiAn727QxMwDiGYQjLSW5cCl-wPPqHKQ8IKmcs3fyPQwzvwcFbSIYbTfscRihV2jZJkKHQha4nF1fmUNZ1C_kyEDfApthyuaQ8RIxsyOSt5oPCUDBfKAMR-t-VQv94tibmp2_7PQCJsSKbGzhO6BElx7MOzRHHaCH90CXVq_5pgdDp1vFlUE_VfZxS_nhXkSFouaDQtddeaZd0fJVfdbn1kWDSOV35moUd3qf94i7Y-PQt4ocJmfpFf-g2LGaPye_LPIAM-NYkIHgZjj7vU_PnbWbzfeNfizYK6BgCyyQy0O9EEq7zwkq2VXywG2QMyv_gIHILYPUpiTXcdLvVLfcSjM9st2Wu9xQlFvWUC7WkOFhwcxQxwfRSjzQo9MCd-3PW0kLpAVvuYfVJ_3SBZZp-B6rcRl1FswvQCMkt124UWWiQNrHU_xTMv-zdTsezj0h2Q8cAFWbX7RRex2_OkmNmYz4JTLf9A3AgePbINpER0B0arMsK-y5T0UiKpKrUX7nRb-Vtny8r9aJggwDs2cEK44XboKpAkkEmIJojTQgkhqtj_VczjxyrtlpH1Oe6meEu76YHIMLOe-xlQszmztP518O3f4ntDQ9FVUzdYwlfnC7GeEu2ZUZfk33GHo5zGyJ796YJ9D6TGRwPjGlZ0lugKwPf10lVZn6Q7_le_e3Va379Ksb2g4CzGy7JmdtEbn-gUgeGIPuE8XwoJD1bnaemcf4eg8N3mtskRhG0FHH5qI83SSj05U6QHE0XVu0]--></g></svg>