<svg xmlns="http://www.w3.org/2000/svg" xmlns:xlink="http://www.w3.org/1999/xlink" contentStyleType="text/css" height="706px" preserveAspectRatio="none" style="width:819px;height:706px;background:#FFFFFF;" version="1.1" viewBox="0 0 819 706" width="819px" zoomAndPan="magnify"><title>&#21009;&#27861;&#24635;&#35770;</title><defs/><g><text fill="#000000" font-family="sans-serif" font-size="14" font-weight="bold" lengthAdjust="spacing" textLength="57.75" x="379.3574" y="35.1074">&#21009;&#27861;&#24635;&#35770;</text><rect fill="#F1F1F1" height="38.6211" rx="12.5" ry="12.5" style="stroke:#181818;stroke-width:1.5;" width="76" x="10" y="352.7266"/><text fill="#000000" font-family="sans-serif" font-size="14" lengthAdjust="spacing" textLength="56" x="20" y="377.834">&#21009;&#27861;&#24635;&#35770;</text><rect fill="#F1F1F1" height="38.6211" rx="12.5" ry="12.5" style="stroke:#181818;stroke-width:1.5;" width="62" x="136" y="176.8633"/><text fill="#000000" font-family="sans-serif" font-size="14" lengthAdjust="spacing" textLength="42" x="146" y="201.9707">&#21009;&#27861;&#35770;</text><rect fill="#F1F1F1" height="38.6211" rx="12.5" ry="12.5" style="stroke:#181818;stroke-width:1.5;" width="90" x="248" y="88.9316"/><text fill="#000000" font-family="sans-serif" font-size="14" lengthAdjust="spacing" textLength="70" x="258" y="114.0391">&#21009;&#27861;&#30340;&#35299;&#37322;</text><rect fill="#F1F1F1" height="38.6211" rx="12.5" ry="12.5" style="stroke:#181818;stroke-width:1.5;" width="76" x="388" y="59.6211"/><text fill="#000000" font-family="sans-serif" font-size="14" lengthAdjust="spacing" textLength="56" x="398" y="84.7285">&#35299;&#37322;&#25216;&#24039;</text><path d="M338,108.2422 L348,108.2422 C363,108.2422 363,78.9316 378,78.9316 L388,78.9316 " fill="none" style="stroke:#181818;stroke-width:1.0;"/><rect fill="#F1F1F1" height="38.6211" rx="12.5" ry="12.5" style="stroke:#181818;stroke-width:1.5;" width="76" x="388" y="118.2422"/><text fill="#000000" font-family="sans-serif" font-size="14" lengthAdjust="spacing" textLength="56" x="398" y="143.3496">&#35299;&#37322;&#29702;&#30001;</text><path d="M338,108.2422 L348,108.2422 C363,108.2422 363,137.5527 378,137.5527 L388,137.5527 " fill="none" style="stroke:#181818;stroke-width:1.0;"/><path d="M198,196.1738 L208,196.1738 C223,196.1738 223,108.2422 238,108.2422 L248,108.2422 " fill="none" style="stroke:#181818;stroke-width:1.0;"/><rect fill="#F1F1F1" height="38.6211" rx="12.5" ry="12.5" style="stroke:#181818;stroke-width:1.5;" width="118" x="248" y="176.8633"/><text fill="#000000" font-family="sans-serif" font-size="14" lengthAdjust="spacing" textLength="98" x="258" y="201.9707">&#21009;&#27861;&#30340;&#22522;&#26412;&#21407;&#21017;</text><rect fill="#F1F1F1" height="38.6211" rx="12.5" ry="12.5" style="stroke:#181818;stroke-width:1.5;" width="76" x="416" y="176.8633"/><text fill="#000000" font-family="sans-serif" font-size="14" lengthAdjust="spacing" textLength="56" x="426" y="201.9707">&#32618;&#21009;&#27861;&#23450;</text><path d="M366,196.1738 L376,196.1738 C391,196.1738 391,196.1738 406,196.1738 L416,196.1738 " fill="none" style="stroke:#181818;stroke-width:1.0;"/><path d="M198,196.1738 L208,196.1738 C223,196.1738 223,196.1738 238,196.1738 L248,196.1738 " fill="none" style="stroke:#181818;stroke-width:1.0;"/><rect fill="#F1F1F1" height="38.6211" rx="12.5" ry="12.5" style="stroke:#181818;stroke-width:1.5;" width="118" x="248" y="264.7949"/><text fill="#000000" font-family="sans-serif" font-size="14" lengthAdjust="spacing" textLength="98" x="258" y="289.9023">&#21009;&#27861;&#30340;&#20351;&#29992;&#25928;&#21147;</text><rect fill="#F1F1F1" height="38.6211" rx="12.5" ry="12.5" style="stroke:#181818;stroke-width:1.5;" width="76" x="416" y="235.4844"/><text fill="#000000" font-family="sans-serif" font-size="14" lengthAdjust="spacing" textLength="56" x="426" y="260.5918">&#31354;&#38388;&#25928;&#21147;</text><path d="M366,284.1055 L376,284.1055 C391,284.1055 391,254.7949 406,254.7949 L416,254.7949 " fill="none" style="stroke:#181818;stroke-width:1.0;"/><rect fill="#F1F1F1" height="38.6211" rx="12.5" ry="12.5" style="stroke:#181818;stroke-width:1.5;" width="76" x="416" y="294.1055"/><text fill="#000000" font-family="sans-serif" font-size="14" lengthAdjust="spacing" textLength="56" x="426" y="319.2129">&#26102;&#38388;&#25928;&#21147;</text><path d="M366,284.1055 L376,284.1055 C391,284.1055 391,313.416 406,313.416 L416,313.416 " fill="none" style="stroke:#181818;stroke-width:1.0;"/><path d="M198,196.1738 L208,196.1738 C223,196.1738 223,284.1055 238,284.1055 L248,284.1055 " fill="none" style="stroke:#181818;stroke-width:1.0;"/><path d="M86,372.0371 L96,372.0371 C111,372.0371 111,196.1738 126,196.1738 L136,196.1738 " fill="none" style="stroke:#181818;stroke-width:1.0;"/><rect fill="#FFA500" height="38.6211" rx="12.5" ry="12.5" style="stroke:#181818;stroke-width:1.5;" width="65.8896" x="136" y="469.9688"/><text fill="#000000" font-family="sans-serif" font-size="14" lengthAdjust="spacing" textLength="42" x="146" y="495.0762">&#29359;&#32618;&#35770;</text><rect fill="#F1F1F1" height="38.6211" rx="12.5" ry="12.5" style="stroke:#181818;stroke-width:1.5;" width="104" x="251.8896" y="382.0371"/><text fill="#000000" font-family="sans-serif" font-size="14" lengthAdjust="spacing" textLength="84" x="261.8896" y="407.1445">&#29359;&#32618;&#25104;&#31435;&#38382;&#39064;</text><rect fill="#F1F1F1" height="38.6211" rx="12.5" ry="12.5" style="stroke:#181818;stroke-width:1.5;" width="235.8584" x="405.8896" y="352.7266"/><text fill="#000000" font-family="sans-serif" font-size="14" lengthAdjust="spacing" textLength="215.8584" x="415.8896" y="377.834">&#23458;&#35266;&#35201;&#20214; &#8594; &#23458;&#35266;&#65288;&#36829;&#27861;&#65289;&#38459;&#21364;&#20107;&#30001;</text><path d="M355.8896,401.3477 L365.8896,401.3477 C380.8896,401.3477 380.8896,372.0371 395.8896,372.0371 L405.8896,372.0371 " fill="none" style="stroke:#181818;stroke-width:1.0;"/><rect fill="#F1F1F1" height="38.6211" rx="12.5" ry="12.5" style="stroke:#181818;stroke-width:1.5;" width="235.8584" x="405.8896" y="411.3477"/><text fill="#000000" font-family="sans-serif" font-size="14" lengthAdjust="spacing" textLength="215.8584" x="415.8896" y="436.4551">&#20027;&#35266;&#35201;&#20214; &#8594; &#20027;&#35266;&#65288;&#36131;&#20219;&#65289;&#38459;&#21364;&#20107;&#30001;</text><path d="M355.8896,401.3477 L365.8896,401.3477 C380.8896,401.3477 380.8896,430.6582 395.8896,430.6582 L405.8896,430.6582 " fill="none" style="stroke:#181818;stroke-width:1.0;"/><path d="M201.8896,489.2793 L211.8896,489.2793 C226.8896,489.2793 226.8896,401.3477 241.8896,401.3477 L251.8896,401.3477 " fill="none" style="stroke:#181818;stroke-width:1.0;"/><rect fill="#F1F1F1" height="57.2422" rx="12.5" ry="12.5" style="stroke:#181818;stroke-width:1.5;" width="90" x="251.8896" y="519.2793"/><text fill="#000000" font-family="sans-serif" font-size="14" lengthAdjust="spacing" textLength="56" x="261.8896" y="544.3867">&#29359;&#32618;&#25104;&#31435;</text><text fill="#000000" font-family="sans-serif" font-size="14" lengthAdjust="spacing" textLength="70" x="261.8896" y="563.0078">&#20043;&#21518;&#30340;&#38382;&#39064;</text><rect fill="#F1F1F1" height="38.6211" rx="12.5" ry="12.5" style="stroke:#181818;stroke-width:1.5;" width="415.5752" x="391.8896" y="469.9688"/><text fill="#000000" font-family="sans-serif" font-size="14" lengthAdjust="spacing" textLength="395.5752" x="401.8896" y="495.0762">&#29359;&#32618;&#30340;&#20107;&#20214;&#21457;&#23637;&#38382;&#39064;&#65306;&#29359;&#32618;&#24418;&#24577;&#65288;&#39044;&#22791; &#8594; &#20013;&#27490; &#8594; &#26410;&#36930; &#8594; &#26082;&#36930;&#65289;</text><path d="M341.8896,547.9004 L351.8896,547.9004 C366.8896,547.9004 366.8896,489.2793 381.8896,489.2793 L391.8896,489.2793 " fill="none" style="stroke:#181818;stroke-width:1.0;"/><rect fill="#F1F1F1" height="38.6211" rx="12.5" ry="12.5" style="stroke:#181818;stroke-width:1.5;" width="319.8584" x="391.8896" y="528.5898"/><text fill="#000000" font-family="sans-serif" font-size="14" lengthAdjust="spacing" textLength="299.8584" x="401.8896" y="553.6973">&#29359;&#32618;&#30340;&#31354;&#38388;&#20998;&#24067;&#38382;&#39064;&#65306;&#20849;&#21516;&#29359;&#32618;&#65288;&#27491;&#29359; &#8594; &#20849;&#29359;&#65289;</text><path d="M341.8896,547.9004 L351.8896,547.9004 C366.8896,547.9004 366.8896,547.9004 381.8896,547.9004 L391.8896,547.9004 " fill="none" style="stroke:#181818;stroke-width:1.0;"/><rect fill="#F1F1F1" height="38.6211" rx="12.5" ry="12.5" style="stroke:#181818;stroke-width:1.5;" width="291.8584" x="391.8896" y="587.2109"/><text fill="#000000" font-family="sans-serif" font-size="14" lengthAdjust="spacing" textLength="271.8584" x="401.8896" y="612.3184">&#29359;&#32618;&#30340;&#25968;&#37327;&#35745;&#31639;&#38382;&#39064;&#65306;&#32618;&#25968;&#65288;&#19968;&#32618; &#8594; &#25968;&#32618;&#65289;</text><path d="M341.8896,547.9004 L351.8896,547.9004 C366.8896,547.9004 366.8896,606.5215 381.8896,606.5215 L391.8896,606.5215 " fill="none" style="stroke:#181818;stroke-width:1.0;"/><path d="M201.8896,489.2793 L211.8896,489.2793 C226.8896,489.2793 226.8896,547.9004 241.8896,547.9004 L251.8896,547.9004 " fill="none" style="stroke:#181818;stroke-width:1.0;"/><path d="M86,372.0371 L96,372.0371 C111,372.0371 111,489.2793 126,489.2793 L136,489.2793 " fill="none" style="stroke:#181818;stroke-width:1.0;"/><rect fill="#F1F1F1" height="38.6211" rx="12.5" ry="12.5" style="stroke:#181818;stroke-width:1.5;" width="62" x="136" y="645.832"/><text fill="#000000" font-family="sans-serif" font-size="14" lengthAdjust="spacing" textLength="42" x="146" y="670.9395">&#21009;&#32602;&#35770;</text><rect fill="#F1F1F1" height="38.6211" rx="12.5" ry="12.5" style="stroke:#181818;stroke-width:1.5;" width="233.5752" x="248" y="645.832"/><text fill="#000000" font-family="sans-serif" font-size="14" lengthAdjust="spacing" textLength="213.5752" x="258" y="670.9395">&#21009;&#32602;&#30340;&#20307;&#31995; &#8594; &#35009;&#37327; &#8594; &#25191;&#34892; &#8594; &#28040;&#28781;</text><path d="M198,665.1426 L208,665.1426 C223,665.1426 223,665.1426 238,665.1426 L248,665.1426 " fill="none" style="stroke:#181818;stroke-width:1.0;"/><path d="M86,372.0371 L96,372.0371 C111,372.0371 111,665.1426 126,665.1426 L136,665.1426 " fill="none" style="stroke:#181818;stroke-width:1.0;"/><!--SRC=[xLHRJnfH47u_l-8qVT4ce1XJBI76W3MfbRIfbwScPeLJkkcoQvPT4zEOWFM2O1LR2PRQ6A4fhIrKeh4M9FwNXhEN9_z2XpsWOi6dFhfFS-RxPhuvPsTcCAHmiXBaHN-Gcq7e3Y_w1DLFiDtU5LBc1D9LWso0sQoZdLU30a8AhmW4q-YcTfZKmcMZK4BeNlCPmzTmDSvNVNfwqSXbpPNO1S9GvjHYOVehrnBI4ylwLh5LFhfRqdP-qFLT6lrmBLIlx3CQBQHRXLOhP_hMLoqPfR6FrqE_bSpKKKj8InqtGy2E_GGjk31skIIP4mDaOE2A88ErQ4B_7ZTJ1JEpVIqbBMICt8Bn9L8j7-C_o-_gZlFJg77s2MezFrqrjylqxL6r5B_w32owUb9kZcQEMlHHjbekjujkBkovMFqTfubrU9UMDJ9kxTLASH2Y6vkqc6JCyzCqGsabeuKZ86nc5kddbNenUIsViKnjPz-CB30pbG4JAckdmdu0ZIxJapSNAdIfI1DhZ0CgMZuBDdkmfIAOD-JJaWVcoePHsDCBgSkguVB90yXKFGc3pIfB7bZPLo-RMQ-a_sbcy5aTz5u_B5jnHZO20Yp5QixOMsFcSLIFv14Q931hZNaRR1u_bpLa0wZk6EAvWCm5yMiGj0TaGaJBnDZD-Lu5P4aL_Hv9a6Giy86NYaK0UBx6PhtNXix01bMMGks8TuU7tMwFfy6SarHvoYfnIkI2vAPYfWML2SmZLrVzLhThutPjtAwD_x4sdWgSg4nuH_4iaKEy96A7lQUxfzVUrp76ANYCpE3kFknuu7JqEnrzs3CsZcjm9-hmFXh78PXY7y5-FgJ8_BIgG7md6k5cEVnC5HK-I9puoGmHHuOUDnpueJZBov8O9AA2HYQzbuJxlJOtNrEKeH8ywKL3v0Md2Wf4-2G_BmQSU69ysDQFHg6dLIu0kM57UM1PAF8SO6D_0G00]--></g></svg>