<svg xmlns="http://www.w3.org/2000/svg" xmlns:xlink="http://www.w3.org/1999/xlink" contentStyleType="text/css" height="1124.4px" preserveAspectRatio="none" style="width:2103px;height:1124px;background:#FFFFFF;" version="1.1" viewBox="0 0 2103 1124" width="2103.6px" zoomAndPan="magnify"><title>&#34892;&#20026;&#20027;&#20307;-&#33258;&#28982;&#20154;</title><defs/><g><text fill="#000000" font-family="sans-serif" font-size="16.8" font-weight="bold" lengthAdjust="spacing" textLength="126.8695" x="986.7059" y="42.1289">&#34892;&#20026;&#20027;&#20307;-&#33258;&#28982;&#20154;</text><rect fill="#F1F1F1" height="46.3453" rx="15" ry="15" style="stroke:#181818;stroke-width:1.7999999999999998;" width="147.1945" x="12" y="561.6668"/><text fill="#000000" font-family="sans-serif" font-size="16.8" lengthAdjust="spacing" textLength="123.1945" x="24" y="591.7957">&#34892;&#20026;&#20027;&#20307;-&#33258;&#28982;&#20154;</text><rect fill="#F1F1F1" height="46.3453" rx="15" ry="15" style="stroke:#181818;stroke-width:1.7999999999999998;" width="74.4" x="219.1945" y="225.5812"/><text fill="#000000" font-family="sans-serif" font-size="16.8" lengthAdjust="spacing" textLength="50.4" x="231.1945" y="255.7102">&#36523;&#20221;&#29359;</text><rect fill="#F1F1F1" height="46.3453" rx="15" ry="15" style="stroke:#181818;stroke-width:1.7999999999999998;" width="208.8" x="353.5945" y="120.0633"/><text fill="#000000" font-family="sans-serif" font-size="16.8" lengthAdjust="spacing" textLength="184.8" x="365.5945" y="150.1922">&#30495;&#27491;&#36523;&#20221;&#29359;&#65288;&#23450;&#32618;&#36523;&#20221;&#65289;</text><text fill="#000000" font-family="sans-serif" font-size="16.8" lengthAdjust="spacing" textLength="750.3562" x="625.9945" y="78.8742">&#21482;&#26377;&#8220;&#22269;&#23478;&#24037;&#20316;&#20154;&#21592;&#8221;&#25165;&#33021;&#26500;&#25104;&#36138;&#27745;&#32618;&#65292;&#8220;&#22269;&#23478;&#24037;&#20316;&#20154;&#21592;&#8221;&#23601;&#26159;&#19968;&#20010;&#23450;&#32618;&#36523;&#20221;&#65292;&#8220;&#36138;&#27745;&#32618;&#8221;&#23601;&#26159;&#8220;&#30495;&#27491;&#30340;&#36523;&#20221;&#29359;&#8221;</text><path d="M562.3945,143.2359 L574.3945,143.2359 C592.3945,143.2359 592.3945,71.918 610.3945,71.918 L622.3945,71.918 " fill="none" style="stroke:#181818;stroke-width:1.2;"/><rect fill="#F1F1F1" height="46.3453" rx="15" ry="15" style="stroke:#181818;stroke-width:1.7999999999999998;" width="57.6" x="622.3945" y="132.4359"/><text fill="#000000" font-family="sans-serif" font-size="16.8" lengthAdjust="spacing" textLength="33.6" x="634.3945" y="162.5648">&#32771;&#28857;</text><rect fill="#F1F1F1" height="46.3453" rx="15" ry="15" style="stroke:#181818;stroke-width:1.7999999999999998;" width="360" x="739.9945" y="98.2359"/><text fill="#000000" font-family="sans-serif" font-size="16.8" lengthAdjust="spacing" textLength="336" x="751.9945" y="128.3648">&#23450;&#32618;&#36523;&#20221;&#65292;&#24517;&#39035;&#22312;&#24320;&#22987;&#29359;&#32618;&#26102;&#23601;&#20855;&#22791;&#65288;&#26102;&#38388;&#65289;</text><text fill="#000000" font-family="sans-serif" font-size="16.8" lengthAdjust="spacing" textLength="330.3891" x="1163.5945" y="103.6195">&#22312;&#23454;&#26045;&#36138;&#27745;&#21069;&#65292;&#23601;&#35201;&#26377;&#8220;&#22269;&#23478;&#24037;&#20316;&#20154;&#21592;&#8221;&#30340;&#36523;&#20221;</text><path d="M1099.9945,121.4086 L1111.9945,121.4086 C1129.9945,121.4086 1129.9945,96.6633 1147.9945,96.6633 L1159.9945,96.6633 " fill="none" style="stroke:#181818;stroke-width:1.2;"/><text fill="#000000" font-family="sans-serif" font-size="16.8" lengthAdjust="spacing" textLength="487.2" x="1163.5945" y="128.3648">&#22312;&#29359;&#32618;&#36807;&#31243;&#20013;&#65292;&#25165;&#24418;&#25104;&#30340;&#26576;&#31181;&#36523;&#20221;&#12289;&#26576;&#31181;&#22320;&#20301;&#65292;&#37027;&#19981;&#26500;&#25104;&#23450;&#32618;&#36523;&#20221;</text><path d="M1099.9945,121.4086 L1111.9945,121.4086 C1129.9945,121.4086 1129.9945,121.4086 1147.9945,121.4086 L1159.9945,121.4086 " fill="none" style="stroke:#181818;stroke-width:1.2;"/><text fill="#000000" font-family="sans-serif" font-size="16.8" lengthAdjust="spacing" textLength="319.2" x="1163.5945" y="153.1102">&#32452;&#32455;&#21334;&#28139;&#32618;&#30340;&#32452;&#32455;&#32773;&#65292;&#19981;&#31639;&#26159;&#19968;&#20010;&#23450;&#32618;&#36523;&#20221;</text><path d="M1099.9945,121.4086 L1111.9945,121.4086 C1129.9945,121.4086 1129.9945,146.1539 1147.9945,146.1539 L1159.9945,146.1539 " fill="none" style="stroke:#181818;stroke-width:1.2;"/><path d="M679.9945,155.6086 L691.9945,155.6086 C709.9945,155.6086 709.9945,121.4086 727.9945,121.4086 L739.9945,121.4086 " fill="none" style="stroke:#181818;stroke-width:1.2;"/><rect fill="#F1F1F1" height="46.3453" rx="15" ry="15" style="stroke:#181818;stroke-width:1.7999999999999998;" width="276" x="739.9945" y="168.5812"/><text fill="#000000" font-family="sans-serif" font-size="16.8" lengthAdjust="spacing" textLength="252" x="751.9945" y="198.7102">&#23450;&#32618;&#36523;&#20221;&#65292;&#26159;&#20165;&#38024;&#23545;&#23454;&#34892;&#29359;&#35201;&#27714;&#30340;</text><text fill="#000000" font-family="sans-serif" font-size="16.8" lengthAdjust="spacing" textLength="369.6" x="1079.5945" y="186.3375">&#26500;&#25104;&#36138;&#27745;&#32618;&#30340;&#23454;&#34892;&#29359;&#65292;&#38656;&#35201;&#26377;&#22269;&#23478;&#24037;&#20316;&#20154;&#21592;&#30340;&#36523;&#20221;</text><path d="M1015.9945,191.7539 L1027.9945,191.7539 C1045.9945,191.7539 1045.9945,179.3813 1063.9945,179.3813 L1075.9945,179.3813 " fill="none" style="stroke:#181818;stroke-width:1.2;"/><text fill="#000000" font-family="sans-serif" font-size="16.8" lengthAdjust="spacing" textLength="504" x="1079.5945" y="211.0828">&#26500;&#25104;&#36138;&#27745;&#32618;&#30340;&#24110;&#21161;&#29359;&#25110;&#32773;&#25945;&#21766;&#29359;&#31561;&#20849;&#29359;&#65292;&#19981;&#38656;&#35201;&#22269;&#23478;&#24037;&#20316;&#20154;&#21592;&#30340;&#36523;&#20221;</text><path d="M1015.9945,191.7539 L1027.9945,191.7539 C1045.9945,191.7539 1045.9945,204.1266 1063.9945,204.1266 L1075.9945,204.1266 " fill="none" style="stroke:#181818;stroke-width:1.2;"/><path d="M679.9945,155.6086 L691.9945,155.6086 C709.9945,155.6086 709.9945,191.7539 727.9945,191.7539 L739.9945,191.7539 " fill="none" style="stroke:#181818;stroke-width:1.2;"/><path d="M562.3945,143.2359 L574.3945,143.2359 C592.3945,143.2359 592.3945,155.6086 610.3945,155.6086 L622.3945,155.6086 " fill="none" style="stroke:#181818;stroke-width:1.2;"/><path d="M293.5945,248.7539 L305.5945,248.7539 C323.5945,248.7539 323.5945,143.2359 341.5945,143.2359 L353.5945,143.2359 " fill="none" style="stroke:#181818;stroke-width:1.2;"/><rect fill="#F1F1F1" height="46.3453" rx="15" ry="15" style="stroke:#181818;stroke-width:1.7999999999999998;" width="225.6" x="353.5945" y="309.2719"/><text fill="#000000" font-family="sans-serif" font-size="16.8" lengthAdjust="spacing" textLength="201.6" x="365.5945" y="339.4008">&#19981;&#30495;&#27491;&#36523;&#20221;&#29359;&#65288;&#37327;&#21009;&#36523;&#20221;&#65289;</text><rect fill="#F1F1F1" height="46.3453" rx="15" ry="15" style="stroke:#181818;stroke-width:1.7999999999999998;" width="471.9891" x="639.1945" y="238.9266"/><text fill="#000000" font-family="sans-serif" font-size="16.8" lengthAdjust="spacing" textLength="447.9891" x="651.1945" y="269.0555">&#35201;&#26500;&#25104;&#35820;&#21578;&#38519;&#23475;&#32618;&#65292;&#19981;&#38656;&#35201;&#8220;&#23450;&#32618;&#36523;&#20221;&#8221;&#65292;&#29359;&#32618;&#20027;&#20307;&#26159;&#19968;&#33324;&#20027;&#20307;</text><path d="M579.1945,332.4445 L591.1945,332.4445 C609.1945,332.4445 609.1945,262.0992 627.1945,262.0992 L639.1945,262.0992 " fill="none" style="stroke:#181818;stroke-width:1.2;"/><rect fill="#F1F1F1" height="46.3453" rx="15" ry="15" style="stroke:#181818;stroke-width:1.7999999999999998;" width="863.9672" x="639.1945" y="309.2719"/><text fill="#000000" font-family="sans-serif" font-size="16.8" lengthAdjust="spacing" textLength="839.9672" x="651.1945" y="339.4008">&#22914;&#26524;&#26377;&#19968;&#31867;&#20154;&#65288;&#8220;&#22269;&#23478;&#24037;&#20316;&#20154;&#21592;&#8221;&#65289;&#26500;&#25104;&#35820;&#21578;&#38519;&#23475;&#32618;&#65292;&#37027;&#20040;&#22312;&#37327;&#21009;&#19978;&#35201;&#20174;&#37325;&#22788;&#32602;&#65292;&#37027;&#20040;&#8220;&#22269;&#23478;&#24037;&#20316;&#20154;&#21592;&#8221;&#23601;&#26159;&#8220;&#37327;&#21009;&#36523;&#20221;&#8221;</text><path d="M579.1945,332.4445 L591.1945,332.4445 C609.1945,332.4445 609.1945,332.4445 627.1945,332.4445 L639.1945,332.4445 " fill="none" style="stroke:#181818;stroke-width:1.2;"/><rect fill="#F1F1F1" height="46.3453" rx="15" ry="15" style="stroke:#181818;stroke-width:1.7999999999999998;" width="399.1781" x="639.1945" y="379.6172"/><text fill="#000000" font-family="sans-serif" font-size="16.8" lengthAdjust="spacing" textLength="375.1781" x="651.1945" y="409.7461">&#30001;&#27492;&#21487;&#20197;&#35828;&#8220;&#35820;&#21578;&#38519;&#23475;&#32618;&#8221;&#65292;&#23601;&#26159;&#19968;&#20010;&#8220;&#19981;&#30495;&#27491;&#36523;&#20221;&#29359;&#8221;</text><path d="M579.1945,332.4445 L591.1945,332.4445 C609.1945,332.4445 609.1945,402.7898 627.1945,402.7898 L639.1945,402.7898 " fill="none" style="stroke:#181818;stroke-width:1.2;"/><path d="M293.5945,248.7539 L305.5945,248.7539 C323.5945,248.7539 323.5945,332.4445 341.5945,332.4445 L353.5945,332.4445 " fill="none" style="stroke:#181818;stroke-width:1.2;"/><path d="M159.1945,584.8395 L171.1945,584.8395 C189.1945,584.8395 189.1945,248.7539 207.1945,248.7539 L219.1945,248.7539 " fill="none" style="stroke:#181818;stroke-width:1.2;"/><rect fill="#F1F1F1" height="46.3453" rx="15" ry="15" style="stroke:#181818;stroke-width:1.7999999999999998;" width="124.8" x="219.1945" y="750.8754"/><text fill="#000000" font-family="sans-serif" font-size="16.8" lengthAdjust="spacing" textLength="100.8" x="231.1945" y="781.0043">&#22269;&#23478;&#24037;&#20316;&#20154;&#21592;</text><rect fill="#F1F1F1" height="46.3453" rx="15" ry="15" style="stroke:#181818;stroke-width:1.7999999999999998;" width="57.6" x="403.9945" y="608.2395"/><text fill="#000000" font-family="sans-serif" font-size="16.8" lengthAdjust="spacing" textLength="33.6" x="415.9945" y="638.3684">&#33539;&#22260;</text><rect fill="#90EE90" height="46.3453" rx="15" ry="15" style="stroke:#181818;stroke-width:1.7999999999999998;" width="129.4676" x="521.5945" y="608.2395"/><text fill="#000000" font-family="sans-serif" font-size="16.8" lengthAdjust="spacing" textLength="100.8" x="533.5945" y="638.3684">&#22269;&#23478;&#24037;&#20316;&#20154;&#21592;</text><rect fill="#90EE90" height="46.3453" rx="15" ry="15" style="stroke:#181818;stroke-width:1.7999999999999998;" width="163.0676" x="711.0621" y="520.3078"/><text fill="#000000" font-family="sans-serif" font-size="16.8" lengthAdjust="spacing" textLength="134.4" x="723.0621" y="550.4367">&#22269;&#23478;&#26426;&#20851;&#24037;&#20316;&#20154;&#21592;</text><rect fill="#F1F1F1" height="46.3453" rx="15" ry="15" style="stroke:#181818;stroke-width:1.7999999999999998;" width="91.2" x="934.1297" y="449.9625"/><text fill="#000000" font-family="sans-serif" font-size="16.8" lengthAdjust="spacing" textLength="67.2" x="946.1297" y="480.0914">&#31435;&#27861;&#26426;&#20851;</text><path d="M874.1297,543.4805 L886.1297,543.4805 C904.1297,543.4805 904.1297,473.1352 922.1297,473.1352 L934.1297,473.1352 " fill="none" style="stroke:#181818;stroke-width:1.2;"/><rect fill="#90EE90" height="46.3453" rx="15" ry="15" style="stroke:#181818;stroke-width:1.7999999999999998;" width="129.4676" x="934.1297" y="520.3078"/><text fill="#000000" font-family="sans-serif" font-size="16.8" lengthAdjust="spacing" textLength="100.8" x="946.1297" y="550.4367">&#21496;&#27861;&#24037;&#20316;&#20154;&#21592;</text><path d="M874.1297,543.4805 L886.1297,543.4805 C904.1297,543.4805 904.1297,543.4805 922.1297,543.4805 L934.1297,543.4805 " fill="none" style="stroke:#181818;stroke-width:1.2;"/><rect fill="#F1F1F1" height="46.3453" rx="15" ry="15" style="stroke:#181818;stroke-width:1.7999999999999998;" width="192" x="934.1297" y="590.6531"/><text fill="#000000" font-family="sans-serif" font-size="16.8" lengthAdjust="spacing" textLength="168" x="946.1297" y="620.782">&#34892;&#25919;&#26426;&#20851;&#65288;&#25191;&#27861;&#26426;&#20851;&#65289;</text><path d="M874.1297,543.4805 L886.1297,543.4805 C904.1297,543.4805 904.1297,613.8258 922.1297,613.8258 L934.1297,613.8258 " fill="none" style="stroke:#181818;stroke-width:1.2;"/><path d="M651.0621,631.4121 L663.0621,631.4121 C681.0621,631.4121 681.0621,543.4805 699.0621,543.4805 L711.0621,543.4805 " fill="none" style="stroke:#181818;stroke-width:1.2;"/><rect fill="#F1F1F1" height="46.3453" rx="15" ry="15" style="stroke:#181818;stroke-width:1.7999999999999998;" width="175.2" x="711.0621" y="660.9984"/><text fill="#000000" font-family="sans-serif" font-size="16.8" lengthAdjust="spacing" textLength="151.2" x="723.0621" y="691.1273">&#22269;&#26377;&#20225;&#19994;&#37324;&#26576;&#20123;&#20154;&#21592;</text><path d="M651.0621,631.4121 L663.0621,631.4121 C681.0621,631.4121 681.0621,684.1711 699.0621,684.1711 L711.0621,684.1711 " fill="none" style="stroke:#181818;stroke-width:1.2;"/><rect fill="#FFA500" height="46.3453" rx="15" ry="15" style="stroke:#181818;stroke-width:1.7999999999999998;" width="280.6676" x="711.0621" y="731.3438"/><text fill="#000000" font-family="sans-serif" font-size="16.8" lengthAdjust="spacing" textLength="252" x="723.0621" y="761.4727">&#22269;&#26377;&#20107;&#19994;&#21333;&#20301;&#37324;&#26576;&#20123;&#20154;&#21592;&#65288;&#32771;&#28857;&#65289;</text><rect fill="#F1F1F1" height="46.3453" rx="15" ry="15" style="stroke:#181818;stroke-width:1.7999999999999998;" width="141.6" x="1051.7297" y="696.1711"/><text fill="#000000" font-family="sans-serif" font-size="16.8" lengthAdjust="spacing" textLength="117.6" x="1063.7297" y="726.3">&#20844;&#31435;&#22823;&#23398;&#12289;&#39640;&#26657;</text><path d="M991.7297,754.5164 L1003.7297,754.5164 C1021.7297,754.5164 1021.7297,719.3438 1039.7297,719.3438 L1051.7297,719.3438 " fill="none" style="stroke:#181818;stroke-width:1.2;"/><rect fill="#F1F1F1" height="46.3453" rx="15" ry="15" style="stroke:#181818;stroke-width:1.7999999999999998;" width="91.2" x="1051.7297" y="766.5164"/><text fill="#000000" font-family="sans-serif" font-size="16.8" lengthAdjust="spacing" textLength="67.2" x="1063.7297" y="796.6453">&#20844;&#31435;&#21307;&#38498;</text><path d="M991.7297,754.5164 L1003.7297,754.5164 C1021.7297,754.5164 1021.7297,789.6891 1039.7297,789.6891 L1051.7297,789.6891 " fill="none" style="stroke:#181818;stroke-width:1.2;"/><path d="M651.0621,631.4121 L663.0621,631.4121 C681.0621,631.4121 681.0621,754.5164 699.0621,754.5164 L711.0621,754.5164 " fill="none" style="stroke:#181818;stroke-width:1.2;"/><path d="M461.5945,631.4121 L473.5945,631.4121 C491.5945,631.4121 491.5945,631.4121 509.5945,631.4121 L521.5945,631.4121 " fill="none" style="stroke:#181818;stroke-width:1.2;"/><path d="M343.9945,774.048 L355.9945,774.048 C373.9945,774.048 373.9945,631.4121 391.9945,631.4121 L403.9945,631.4121 " fill="none" style="stroke:#181818;stroke-width:1.2;"/><rect fill="#F1F1F1" height="46.3453" rx="15" ry="15" style="stroke:#181818;stroke-width:1.7999999999999998;" width="91.2" x="403.9945" y="944.325"/><text fill="#000000" font-family="sans-serif" font-size="16.8" lengthAdjust="spacing" textLength="67.2" x="415.9945" y="974.4539">&#21028;&#26029;&#26631;&#20934;</text><rect fill="#F1F1F1" height="46.3453" rx="15" ry="15" style="stroke:#181818;stroke-width:1.7999999999999998;" width="208.8" x="555.1945" y="836.8617"/><text fill="#000000" font-family="sans-serif" font-size="16.8" lengthAdjust="spacing" textLength="184.8" x="567.1945" y="866.9906">&#38169;&#35823;&#26631;&#20934;&#65288;&#24418;&#24335;&#21270;&#26631;&#20934;&#65289;</text><text fill="#000000" font-family="sans-serif" font-size="16.8" lengthAdjust="spacing" textLength="420" x="827.5945" y="866.9906">&#26681;&#25454;&#26377;&#26080;&#32534;&#21046;&#26469;&#35748;&#23450;&#65292;&#24448;&#24448;&#35748;&#20026;&#20020;&#26102;&#24037;&#19981;&#26159;&#22269;&#23478;&#24037;&#20316;&#20154;&#21592;</text><path d="M763.9945,860.0344 L775.9945,860.0344 C793.9945,860.0344 793.9945,860.0344 811.9945,860.0344 L823.9945,860.0344 " fill="none" style="stroke:#181818;stroke-width:1.2;"/><path d="M495.1945,967.4977 L507.1945,967.4977 C525.1945,967.4977 525.1945,860.0344 543.1945,860.0344 L555.1945,860.0344 " fill="none" style="stroke:#181818;stroke-width:1.2;"/><rect fill="#F1F1F1" height="46.3453" rx="15" ry="15" style="stroke:#181818;stroke-width:1.7999999999999998;" width="192" x="555.1945" y="979.4977"/><text fill="#000000" font-family="sans-serif" font-size="16.8" lengthAdjust="spacing" textLength="168" x="567.1945" y="1009.6266">&#27491;&#30830;&#26631;&#20934;&#65288;&#23454;&#36136;&#26631;&#20934;&#65289;</text><rect fill="#F1F1F1" height="46.3453" rx="15" ry="15" style="stroke:#181818;stroke-width:1.7999999999999998;" width="227.4867" x="807.1945" y="979.4977"/><text fill="#000000" font-family="sans-serif" font-size="16.8" lengthAdjust="spacing" textLength="203.4867" x="819.1945" y="1009.6266">&#26159;&#21542;&#20174;&#20107;&#20844;&#21153;&#65288;&#21009;&#27861;93&#26465;&#65289;</text><rect fill="#F1F1F1" height="46.3453" rx="15" ry="15" style="stroke:#181818;stroke-width:1.7999999999999998;" width="124.8" x="1094.6812" y="942.3797"/><text fill="#000000" font-family="sans-serif" font-size="16.8" lengthAdjust="spacing" textLength="100.8" x="1106.6812" y="972.5086">&#21028;&#26029;&#20844;&#21153;&#26631;&#20934;</text><rect fill="#F1F1F1" height="46.3453" rx="15" ry="15" style="stroke:#181818;stroke-width:1.7999999999999998;" width="236.7891" x="1279.4813" y="907.207"/><text fill="#000000" font-family="sans-serif" font-size="16.8" lengthAdjust="spacing" textLength="212.7891" x="1291.4813" y="937.3359">&#31532;&#19968;&#65292;&#20107;&#21153;&#20855;&#26377;&#8220;&#20844;&#20849;&#31649;&#29702;&#24615;&#8221;</text><path d="M1219.4813,965.5523 L1231.4813,965.5523 C1249.4813,965.5523 1249.4813,930.3797 1267.4813,930.3797 L1279.4813,930.3797 " fill="none" style="stroke:#181818;stroke-width:1.2;"/><rect fill="#F1F1F1" height="46.3453" rx="15" ry="15" style="stroke:#181818;stroke-width:1.7999999999999998;" width="236.7891" x="1279.4813" y="977.5523"/><text fill="#000000" font-family="sans-serif" font-size="16.8" lengthAdjust="spacing" textLength="212.7891" x="1291.4813" y="1007.6813">&#31532;&#20108;&#65292;&#20107;&#21153;&#20855;&#26377;&#8220;&#34892;&#25919;&#32844;&#36131;&#24615;&#8221;</text><path d="M1219.4813,965.5523 L1231.4813,965.5523 C1249.4813,965.5523 1249.4813,1000.725 1267.4813,1000.725 L1279.4813,1000.725 " fill="none" style="stroke:#181818;stroke-width:1.2;"/><path d="M1034.6812,1002.6703 L1046.6812,1002.6703 C1064.6812,1002.6703 1064.6812,965.5523 1082.6812,965.5523 L1094.6812,965.5523 " fill="none" style="stroke:#181818;stroke-width:1.2;"/><rect fill="#F1F1F1" height="46.3453" rx="15" ry="15" style="stroke:#181818;stroke-width:1.7999999999999998;" width="57.6" x="1094.6812" y="1049.843"/><text fill="#000000" font-family="sans-serif" font-size="16.8" lengthAdjust="spacing" textLength="33.6" x="1106.6812" y="1079.9719">&#31034;&#20363;</text><text fill="#000000" font-family="sans-serif" font-size="16.8" lengthAdjust="spacing" textLength="621.6" x="1215.8813" y="1055.2266">&#20107;&#21153;&#20851;&#31995;&#21040;&#22810;&#25968;&#20154;&#25110;&#19981;&#29305;&#23450;&#20154;&#30340;&#21033;&#30410;&#65307;&#20844;&#31435;&#22823;&#23398;&#36130;&#21153;&#22788;&#20250;&#35745;&#23646;&#20110;&#22269;&#23478;&#24037;&#20316;&#20154;&#21592;&#65288;&#26159;&#65289;</text><path d="M1152.2813,1073.0156 L1164.2813,1073.0156 C1182.2813,1073.0156 1182.2813,1048.2703 1200.2813,1048.2703 L1212.2813,1048.2703 " fill="none" style="stroke:#181818;stroke-width:1.2;"/><text fill="#000000" font-family="sans-serif" font-size="16.8" lengthAdjust="spacing" textLength="722.4" x="1215.8813" y="1079.9719">&#20165;&#19982;&#20010;&#21035;&#20154;&#25110;&#23569;&#25968;&#20154;&#30456;&#20851;&#30340;&#20107;&#21153;&#65292;&#19981;&#26159;&#20844;&#21153;&#65307;&#22823;&#23398;&#25945;&#25480;&#23646;&#20110;&#38750;&#22269;&#23478;&#24037;&#20316;&#20154;&#21592;&#65292;&#23646;&#20110;&#25216;&#26415;&#21171;&#21160;&#65288;&#21542;&#65289;</text><path d="M1152.2813,1073.0156 L1164.2813,1073.0156 C1182.2813,1073.0156 1182.2813,1073.0156 1200.2813,1073.0156 L1212.2813,1073.0156 " fill="none" style="stroke:#181818;stroke-width:1.2;"/><text fill="#000000" font-family="sans-serif" font-size="16.8" lengthAdjust="spacing" textLength="873.6" x="1215.8813" y="1104.7172">&#20020;&#26102;&#20999;&#25442;&#65307;&#26449;&#24178;&#37096;&#21327;&#21161;&#25919;&#24220;&#20174;&#20107;&#20844;&#21153;&#26102;&#65292;&#23646;&#20110;&#22269;&#23478;&#24037;&#20316;&#20154;&#21592;&#65288;&#26159;&#65289;&#65307;&#20174;&#20107;&#26449;&#21153;&#65292;&#38750;&#20844;&#21153;&#26102;&#65292;&#19981;&#23646;&#20110;&#22269;&#23478;&#24037;&#20316;&#20154;&#21592;&#65288;&#21542;&#65289;</text><path d="M1152.2813,1073.0156 L1164.2813,1073.0156 C1182.2813,1073.0156 1182.2813,1097.7609 1200.2813,1097.7609 L1212.2813,1097.7609 " fill="none" style="stroke:#181818;stroke-width:1.2;"/><path d="M1034.6812,1002.6703 L1046.6812,1002.6703 C1064.6812,1002.6703 1064.6812,1073.0156 1082.6812,1073.0156 L1094.6812,1073.0156 " fill="none" style="stroke:#181818;stroke-width:1.2;"/><path d="M747.1945,1002.6703 L759.1945,1002.6703 C777.1945,1002.6703 777.1945,1002.6703 795.1945,1002.6703 L807.1945,1002.6703 " fill="none" style="stroke:#181818;stroke-width:1.2;"/><path d="M495.1945,967.4977 L507.1945,967.4977 C525.1945,967.4977 525.1945,1002.6703 543.1945,1002.6703 L555.1945,1002.6703 " fill="none" style="stroke:#181818;stroke-width:1.2;"/><path d="M343.9945,774.048 L355.9945,774.048 C373.9945,774.048 373.9945,967.4977 391.9945,967.4977 L403.9945,967.4977 " fill="none" style="stroke:#181818;stroke-width:1.2;"/><path d="M159.1945,584.8395 L171.1945,584.8395 C189.1945,584.8395 189.1945,774.048 207.1945,774.048 L219.1945,774.048 " fill="none" style="stroke:#181818;stroke-width:1.2;"/><!--SRC=[xLTRJnj757xVNp5LNv98a9169K4eGa2HIeDQbIIlQ0DRTrLxZPOr4geY6R3nsjXSMgws8HZC9LniN2mmleJ_akpCxZxn5th6Opl6zZhfQsN40pldzftld3bpw9bGU5bnYDAOWn_dk6z4QTJk6XDGU_l32MNABZoaeZQGjHK_sqMNmyvnYgZO1MJ4WbecgsLoMk7lDiDth7ikjMoMunvOIH3yW31xekKAUY1P_6PdUlGTETkhI6xpAaw4zS8nExdD-okwHVqHX1UFITJ_qHt5aG9ENEAhVQqGXHXuUUEZUuluGyPiWMnxYBfaf8z9AWQ-RlD1AtrydY8RIItZrZB7TmDJaug7YYOSCiHws5C13TAxA97XdjLdhkySCa5D37pZDMCv73t2UJS-d0TV82Nhbn0CUwzmt0TymAUvdgvbefeHC4ziaxK2Wulz8UhvF6KSJ3TXgf904xSCZt7Zqu_cjSmPk0L-SM4No0Lpycv9Fmmn9v_Sq-mJHy-r0WLWpknfcH2hH7NMLk7qd4VF-N1eZLoTW3BuPoU6smlUm9MUM6zOgY-pJCroNlCl5IUlWIdeKKYCifEQWJ1MW6gQ23GhjZIzg9lnMq_k5vbju3cJm87tu9ceQv0mMTt4AtEK_JC_zgPOHA201VsQY0yGPQpkRfc-HQmkMzmjH1DYq9AdU3bWRbxXn0MxFvNWj9sgs8L60Ydh4tRhMOqCzPHzreJ01pDaEmgqWOwUoW5yG6NLee3G2W_jhciLMfHbf6K2W4tBBPY-48vxz4AuejFyveEqcfFwcwolfCXP72z21-qRoJGT2dV1C0QgvmZer9DVzWmKrA6fgfeHdCMHT2rfTHQekzic2uBq_7cZxY-gasWMUo- -qgYKwyaykLXbXXOgU343Al_9ArmPidB3lD9nvZ-i16aqr8huQOFafxLCsFG5OQvesKWDKtNQMHXGOHnQXU5JOmCnsJY6Q03MAVEIJR14YxsdG0EE7-Ap0nXgvia6sOarrmtcpCtTgXfYDKxMpiYE3_lcQYffhcmQoIGJqQUki8lpYpYuLZvfG0UCYvrh4af0acHzHy-lOVMIREqRYJZSGzfv7zpm2v_5TpTD7m-e3apUZMIJJcDmw3iMIto60_CjVTG42w9EbmxWdW7Va3qEnAYPkWmLVVOTsOfPlb8bKfXD0sfg6l4KfeURZXq84uZ1KrXwoC0Snc4YfY_D4VTXxMsjTv8DrZjX_MXC1utqNXCdu22UrJxCMqSOGMNF5_f53gldE1ucg-V0D4nnEW7yyDg4uPCEUFMz7WdSvYFL_MMaTwbvtAFbmqOYXbFRMdQXlcZqqcmahQWjGybvjSm2VHhL4uO0doypD7eaGo66FGmkc-QqagK2HXWQU7J8Wif0c5lRZN04cPG4t2IQn84B73YYzLyw-18urfUgZuHs8HxPMiRN_vYpHpYq2CyUL0DdezLD1SgLO4tu05VCYZei9aPnLtc0F9iuAU7k4M05Bg_1FNUtukxYxlkSAntqYxnDvXteJqYslJZrYdyYrCkF_c6JdIvfhCzfTyh8Bjf-LueA87vBjTdOiL1dmhAgx9omKlnsOA2tjw-lh3dbTCaZHOWZ4kyGce5vOtUn06-vxeUbh5hRV6kRRstphMs-jSstjldMDj_QvblRV6kR_rzjyx_OUKbvDVG2JGhoXEYKK4VxuqUFdxHttXlc5JGiZAD7dQZZMLV7qwwEJjGt_19HyNtktj2FBz44BDUZ0XeJ9nHPVEDImFu-DyXFykXNbwI83g4B_JmkI8FzFvKFq0_If2Wx9OSWATpWww7F2jy_QUiLQKGPaA3NGro_y1lliYjWCUeS4oLR5thrSg3jAVS2nfcBju5l-DUX3tPuHPu2sV2_]--></g></svg>