<svg xmlns="http://www.w3.org/2000/svg" xmlns:xlink="http://www.w3.org/1999/xlink" contentStyleType="text/css" height="413px" preserveAspectRatio="none" style="width:1496px;height:413px;background:#FFFFFF;" version="1.1" viewBox="0 0 1496 413" width="1496px" zoomAndPan="magnify"><title>&#34892;&#20026;&#20027;&#20307;-&#21333;&#20301;&#29359;&#32618;&#21644;&#33258;&#28982;&#20154;&#29359;&#32618;&#30340;&#20851;&#31995;</title><defs/><g><text fill="#000000" font-family="sans-serif" font-size="14" font-weight="bold" lengthAdjust="spacing" textLength="250.0996" x="621.9209" y="35.1074">&#34892;&#20026;&#20027;&#20307;-&#21333;&#20301;&#29359;&#32618;&#21644;&#33258;&#28982;&#20154;&#29359;&#32618;&#30340;&#20851;&#31995;</text><rect fill="#F1F1F1" height="38.6211" rx="12.5" ry="12.5" style="stroke:#181818;stroke-width:1.5;" width="262.6621" x="10" y="206.1738"/><text fill="#000000" font-family="sans-serif" font-size="14" lengthAdjust="spacing" textLength="242.6621" x="20" y="231.2813">&#34892;&#20026;&#20027;&#20307;-&#21333;&#20301;&#29359;&#32618;&#21644;&#33258;&#28982;&#20154;&#29359;&#32618;&#30340;&#20851;&#31995;</text><rect fill="#F1F1F1" height="38.6211" rx="12.5" ry="12.5" style="stroke:#181818;stroke-width:1.5;" width="314" x="322.6621" y="147.5527"/><text fill="#000000" font-family="sans-serif" font-size="14" lengthAdjust="spacing" textLength="294" x="332.6621" y="172.6602">&#24590;&#20040;&#21306;&#20998;&#21333;&#20301;&#29359;&#32618;&#21644;&#21333;&#20301;&#20869;&#37096;&#25104;&#21592;&#30340;&#20010;&#20154;&#29359;&#32618;&#65311;</text><rect fill="#F1F1F1" height="38.6211" rx="12.5" ry="12.5" style="stroke:#181818;stroke-width:1.5;" width="76" x="686.6621" y="59.6211"/><text fill="#000000" font-family="sans-serif" font-size="14" lengthAdjust="spacing" textLength="56" x="696.6621" y="84.7285">&#21333;&#20301;&#29359;&#32618;</text><rect fill="#F1F1F1" height="38.6211" rx="12.5" ry="12.5" style="stroke:#181818;stroke-width:1.5;" width="171.2793" x="812.6621" y="59.6211"/><text fill="#000000" font-family="sans-serif" font-size="14" lengthAdjust="spacing" textLength="151.2793" x="822.6621" y="84.7285">&#21333;&#20301;&#24847;&#24535; --&gt; &#26412;&#21333;&#20301;&#21033;&#30410;</text><text fill="#000000" font-family="sans-serif" font-size="14" lengthAdjust="spacing" textLength="252" x="1036.9414" y="74.418">&#20840;&#20307;&#20154;&#21592;&#65292;&#21033;&#30410;&#22343;&#27838;&#65292;&#20294;&#19981;&#19968;&#23450;&#21033;&#30410;&#22343;&#20998;</text><path d="M983.9414,78.9316 L993.9414,78.9316 C1008.9414,78.9316 1008.9414,68.6211 1023.9414,68.6211 L1033.9414,68.6211 " fill="none" style="stroke:#181818;stroke-width:1.0;"/><text fill="#000000" font-family="sans-serif" font-size="14" lengthAdjust="spacing" textLength="210" x="1036.9414" y="95.0391">&#39046;&#23548;&#21487;&#33021;&#20998;&#30340;&#22810;&#65292;&#26222;&#36890;&#21592;&#24037;&#20998;&#30340;&#23569;</text><path d="M983.9414,78.9316 L993.9414,78.9316 C1008.9414,78.9316 1008.9414,89.2422 1023.9414,89.2422 L1033.9414,89.2422 " fill="none" style="stroke:#181818;stroke-width:1.0;"/><path d="M762.6621,78.9316 L772.6621,78.9316 C787.6621,78.9316 787.6621,78.9316 802.6621,78.9316 L812.6621,78.9316 " fill="none" style="stroke:#181818;stroke-width:1.0;"/><path d="M636.6621,166.8633 L646.6621,166.8633 C661.6621,166.8633 661.6621,78.9316 676.6621,78.9316 L686.6621,78.9316 " fill="none" style="stroke:#181818;stroke-width:1.0;"/><rect fill="#F1F1F1" height="38.6211" rx="12.5" ry="12.5" style="stroke:#181818;stroke-width:1.5;" width="76" x="686.6621" y="176.8633"/><text fill="#000000" font-family="sans-serif" font-size="14" lengthAdjust="spacing" textLength="56" x="696.6621" y="201.9707">&#20010;&#20154;&#29359;&#32618;</text><rect fill="#FFA500" height="38.6211" rx="12.5" ry="12.5" style="stroke:#181818;stroke-width:1.5;" width="283.2793" x="812.6621" y="118.2422"/><text fill="#000000" font-family="sans-serif" font-size="14" lengthAdjust="spacing" textLength="263.2793" x="822.6621" y="143.3496">&#21333;&#20301;&#24847;&#24535; --&gt; &#25104;&#21592;&#20010;&#20154;&#21033;&#30410;&#65288;&#23569;&#25968;&#29305;&#23450;&#20154;&#65289;</text><text fill="#000000" font-family="sans-serif" font-size="14" lengthAdjust="spacing" textLength="261.3584" x="1148.9414" y="143.3496">&#39046;&#23548;&#24320;&#20250;&#65292;&#39046;&#23548;&#20960;&#20010;&#20154;&#29916;&#20998;&#20102;&#20844;&#21496;&#30340;100&#19975;</text><path d="M1095.9414,137.5527 L1105.9414,137.5527 C1120.9414,137.5527 1120.9414,137.5527 1135.9414,137.5527 L1145.9414,137.5527 " fill="none" style="stroke:#181818;stroke-width:1.0;"/><path d="M762.6621,196.1738 L772.6621,196.1738 C787.6621,196.1738 787.6621,137.5527 802.6621,137.5527 L812.6621,137.5527 " fill="none" style="stroke:#181818;stroke-width:1.0;"/><rect fill="#FFA500" height="38.6211" rx="12.5" ry="12.5" style="stroke:#181818;stroke-width:1.5;" width="283.2793" x="812.6621" y="176.8633"/><text fill="#000000" font-family="sans-serif" font-size="14" lengthAdjust="spacing" textLength="263.2793" x="822.6621" y="201.9707">&#25104;&#21592;&#20010;&#20154;&#24847;&#24535; --&gt; &#26412;&#21333;&#20301;&#21033;&#30410;&#65288;&#20840;&#20307;&#20154;&#21592;&#65289;</text><text fill="#000000" font-family="sans-serif" font-size="14" lengthAdjust="spacing" textLength="336" x="1148.9414" y="201.9707">&#29399;&#34507;&#26263;&#24651;&#32769;&#26495;&#23567;&#33459;&#65292;&#31169;&#33258;&#36896;&#20551;&#36134;&#36867;&#31246;&#65292;&#20026;&#20844;&#21496;&#35851;&#21462;&#21033;&#30410;</text><path d="M1095.9414,196.1738 L1105.9414,196.1738 C1120.9414,196.1738 1120.9414,196.1738 1135.9414,196.1738 L1145.9414,196.1738 " fill="none" style="stroke:#181818;stroke-width:1.0;"/><path d="M762.6621,196.1738 L772.6621,196.1738 C787.6621,196.1738 787.6621,196.1738 802.6621,196.1738 L812.6621,196.1738 " fill="none" style="stroke:#181818;stroke-width:1.0;"/><rect fill="#F1F1F1" height="38.6211" rx="12.5" ry="12.5" style="stroke:#181818;stroke-width:1.5;" width="311.2793" x="812.6621" y="235.4844"/><text fill="#000000" font-family="sans-serif" font-size="14" lengthAdjust="spacing" textLength="291.2793" x="822.6621" y="260.5918">&#25104;&#21592;&#20010;&#20154;&#24847;&#24535; --&gt; &#25104;&#21592;&#20010;&#20154;&#21033;&#30410;&#65288;&#23569;&#25968;&#29305;&#23450;&#20154;&#65289;</text><path d="M762.6621,196.1738 L772.6621,196.1738 C787.6621,196.1738 787.6621,254.7949 802.6621,254.7949 L812.6621,254.7949 " fill="none" style="stroke:#181818;stroke-width:1.0;"/><path d="M636.6621,166.8633 L646.6621,166.8633 C661.6621,166.8633 661.6621,196.1738 676.6621,196.1738 L686.6621,196.1738 " fill="none" style="stroke:#181818;stroke-width:1.0;"/><path d="M272.6621,225.4844 L282.6621,225.4844 C297.6621,225.4844 297.6621,166.8633 312.6621,166.8633 L322.6621,166.8633 " fill="none" style="stroke:#181818;stroke-width:1.0;"/><rect fill="#F1F1F1" height="38.6211" rx="12.5" ry="12.5" style="stroke:#181818;stroke-width:1.5;" width="272" x="322.6621" y="323.416"/><text fill="#000000" font-family="sans-serif" font-size="14" lengthAdjust="spacing" textLength="252" x="332.6621" y="348.5234">&#21333;&#20301;&#23454;&#26045;&#32431;&#27491;&#30340;&#20010;&#20154;&#29359;&#32618;&#65292;&#24212;&#35813;&#24590;&#20040;&#21322;&#65311;</text><rect fill="#F1F1F1" height="38.6211" rx="12.5" ry="12.5" style="stroke:#181818;stroke-width:1.5;" width="90" x="644.6621" y="294.1055"/><text fill="#000000" font-family="sans-serif" font-size="14" lengthAdjust="spacing" textLength="70" x="654.6621" y="319.2129">&#30452;&#25509;&#36131;&#20219;&#20154;</text><path d="M594.6621,342.7266 L604.6621,342.7266 C619.6621,342.7266 619.6621,313.416 634.6621,313.416 L644.6621,313.416 " fill="none" style="stroke:#181818;stroke-width:1.0;"/><rect fill="#F1F1F1" height="38.6211" rx="12.5" ry="12.5" style="stroke:#181818;stroke-width:1.5;" width="510" x="644.6621" y="352.7266"/><text fill="#000000" font-family="sans-serif" font-size="14" lengthAdjust="spacing" textLength="490" x="654.6621" y="377.834">&#22914;&#26524;&#21333;&#20301;&#23454;&#26045;&#19968;&#20010;&#32431;&#27491;&#30340;&#33258;&#28982;&#20154;&#29359;&#32618;&#65292;&#37027;&#23601;&#23450;&#21333;&#20301;&#37324;&#38754;&#30340;&#30452;&#25509;&#36131;&#20219;&#20154;&#30340;&#20010;&#20154;&#29359;&#32618;</text><path d="M594.6621,342.7266 L604.6621,342.7266 C619.6621,342.7266 619.6621,372.0371 634.6621,372.0371 L644.6621,372.0371 " fill="none" style="stroke:#181818;stroke-width:1.0;"/><path d="M272.6621,225.4844 L282.6621,225.4844 C297.6621,225.4844 297.6621,342.7266 312.6621,342.7266 L322.6621,342.7266 " fill="none" style="stroke:#181818;stroke-width:1.0;"/><!--SRC=[xLHTJzfW5BxlhtYNtQW92CPCHmWnu4pcD5k6UcigTAnPQKrfJSoo13_ua0-PS-g67tCwdJDEs3GR8im_qxSjL_o5dRR0W8akkuQhlkSyvvpdVF0C10II5_mqw_MJqmHnXsOzZEYbaDdS7H1c6QfRSvd0PzAVPbhqCmGXq0938VLZGihbfTobL5mruUIQL4mgiOnIFCPl4chaM5dy8UNpXaL9B-BGcN9sIH1T_nU7uDU5vE2oT175YJoEXfiYZISEXqeBHtBqDLvv1y5IxhYMgrpue6SnCjL7ryprBdanXQysaCdaGFBMIILxz8ko6Mk0wo6J28UEe1ke1NNBXOG1nDiH-VilU4h5i9HBIhaWFatNND32TPbAUs6SAU1KHbqe0aIRmASqv93VdvQ2QKYFVnvKxDcLkeRgMxsr8Nq-HeJ1fro8GZfvBQiiNG19i9SBItOxnvEiZt8uRY1Q24e5ZL_b6Tcj45dT0fPIFen39pYL0xfMYqNAHPgerJDfFN6DNSE0Rw6cn3VKpRYStf3ducfmJjw-mjcK6Zi3cihdERYnKd0NpqNKyyDIS44vMjPMbCiRJDLi7AVMhzbqQxB_DasYVXduT4TUBohvZFnr_wyxJU3yMpLpK3dsPApnSfNDStdvG3tVboul8QZ-fW_dvPsj-W9mSf2wLgRftwLjRNuVPxzfPwb7bIA9qlOU89kAD54aY04A5AEg6WED8cBNfS91L0o3DEdZIJzw2KpDFfwYMFqJ8IVfUU7ZEP7rkZY6un53-vuBEW3ShpIqiUCMSCDPXV9Se1Nmxj2Gq-boLP6pdCXFwXGdMT9FtKHcYX6D0gy8UtUbgxRujSMlBNvjyQkgtHE6P8NnqH4qG_41ccEHrTnZwUarztMuIG6vgMbawKFM-pPhlytQXrpkCQIvEucEqOTZA01QvA6Gbmu8F3qb2X3VIGoJCoHwAh82xQTiwF4qnGuFFgeQq0DsXkOvra-n0Z4yCVe7SA_NvAIrYZmmGHEZn23rZ1GP0I8yd9TcVJOqFZPawYT6u7P4qWUvGMbT87a2Fmi-zsy0]--></g></svg>