<svg xmlns="http://www.w3.org/2000/svg" xmlns:xlink="http://www.w3.org/1999/xlink" contentStyleType="text/css" height="471px" preserveAspectRatio="none" style="width:1072px;height:471px;background:#FFFFFF;" version="1.1" viewBox="0 0 1072 471" width="1072px" zoomAndPan="magnify"><title>&#22823;&#21069;&#25552;&#20998;&#31867;</title><defs/><g><text fill="#000000" font-family="sans-serif" font-size="14" font-weight="bold" lengthAdjust="spacing" textLength="72.1875" x="498.5729" y="35.1074">&#22823;&#21069;&#25552;&#20998;&#31867;</text><rect fill="#F1F1F1" height="38.6211" rx="12.5" ry="12.5" style="stroke:#181818;stroke-width:1.5;" width="90" x="10" y="235.4844"/><text fill="#000000" font-family="sans-serif" font-size="14" lengthAdjust="spacing" textLength="70" x="20" y="260.5918">&#22823;&#21069;&#25552;&#20998;&#31867;</text><rect fill="#90EE90" height="38.6211" rx="12.5" ry="12.5" style="stroke:#181818;stroke-width:1.5;" width="311.3333" x="150" y="118.2422"/><path d="M165.6667,134.0299 L164.5,137.5299 L161,137.5299 L163.9167,139.8633 L162.75,143.3633 L165.6667,141.0299 L168.5833,143.3633 L167.4167,139.8633 L170.3333,137.5299 L166.8333,137.5299 L165.6667,134.0299 " fill="#000000" style="stroke:;stroke-width:0.0;stroke-dasharray:;"/><text fill="#000000" font-family="sans-serif" font-size="14" lengthAdjust="spacing" textLength="280" x="171.3333" y="143.3496">&#35760;&#36848;&#30340;&#35201;&#32032;&#21644;&#35268;&#33539;&#30340;&#35201;&#32032;&#65288;&#26368;&#38590;&#65292;&#32771;&#30340;&#26368;&#22810;&#65289;</text><rect fill="#F1F1F1" height="38.6211" rx="12.5" ry="12.5" style="stroke:#181818;stroke-width:1.5;" width="132" x="511.3333" y="59.6211"/><text fill="#000000" font-family="sans-serif" font-size="14" lengthAdjust="spacing" textLength="112" x="521.3333" y="84.7285">&#35760;&#36848;&#65288;&#25551;&#36848;&#20107;&#23454;&#65289;</text><text fill="#000000" font-family="sans-serif" font-size="14" lengthAdjust="spacing" textLength="266" x="696.3333" y="75.418">&#26681;&#25454;&#20107;&#23454;&#21028;&#26029;&#23601;&#33021;&#30830;&#23450;&#30340;&#35201;&#32032;&#65292;&#26377;&#23458;&#35266;&#26631;&#20934;</text><text fill="#000000" font-family="sans-serif" font-size="14" lengthAdjust="spacing" textLength="364" x="696.3333" y="94.0391">&#20363;&#22914;&#65292;&#20266;&#36896;&#12289;&#21464;&#36896;&#12289;&#25252;&#29031;&#12289;&#31614;&#35777;&#12289;&#27602;&#21697;&#65288;&#27602;&#21697;&#26377;&#23458;&#35266;&#26631;&#20934;&#65289;</text><path d="M643.3333,78.9316 L653.3333,78.9316 C668.3333,78.9316 668.3333,78.9316 683.3333,78.9316 L693.3333,78.9316 " fill="none" style="stroke:#181818;stroke-width:1.0;"/><path d="M461.3333,137.5527 L471.3333,137.5527 C486.3333,137.5527 486.3333,78.9316 501.3333,78.9316 L511.3333,78.9316 " fill="none" style="stroke:#181818;stroke-width:1.0;"/><rect fill="#F1F1F1" height="38.6211" rx="12.5" ry="12.5" style="stroke:#181818;stroke-width:1.5;" width="132" x="511.3333" y="118.2422"/><text fill="#000000" font-family="sans-serif" font-size="14" lengthAdjust="spacing" textLength="112" x="521.3333" y="143.3496">&#35268;&#33539;&#65288;&#20215;&#20540;&#35780;&#20215;&#65289;</text><text fill="#000000" font-family="sans-serif" font-size="14" lengthAdjust="spacing" textLength="322" x="696.3333" y="124.7285">&#38656;&#35201;&#20215;&#20540;&#35780;&#20215;&#25165;&#33021;&#30830;&#23450;&#30340;&#35201;&#32032;&#65292;&#21463;&#21028;&#26029;&#32773;&#30340;&#20215;&#20540;&#24433;&#21709;</text><text fill="#000000" font-family="sans-serif" font-size="14" lengthAdjust="spacing" textLength="336" x="696.3333" y="143.3496">&#21516;&#19968;&#20214;&#29289;&#21697;&#65292;&#26377;&#20154;&#35748;&#20026;&#26159;&#28139;&#31229;&#29289;&#21697;&#65292;&#26377;&#20154;&#35748;&#20026;&#26159;&#33402;&#26415;&#21697;</text><text fill="#000000" font-family="sans-serif" font-size="14" lengthAdjust="spacing" textLength="364" x="696.3333" y="161.9707">&#20363;&#22914;&#65292;&#29477;&#20149;&#12289;&#20398;&#36785;&#12289;&#28139;&#31229;&#29289;&#21697;&#65292;&#21463;&#20154;&#20027;&#35266;&#20215;&#20540;&#35266;&#30340;&#24433;&#21709;&#36739;&#22823;</text><path d="M643.3333,137.5527 L653.3333,137.5527 C668.3333,137.5527 668.3333,137.5527 683.3333,137.5527 L693.3333,137.5527 " fill="none" style="stroke:#181818;stroke-width:1.0;"/><path d="M461.3333,137.5527 L471.3333,137.5527 C486.3333,137.5527 486.3333,137.5527 501.3333,137.5527 L511.3333,137.5527 " fill="none" style="stroke:#181818;stroke-width:1.0;"/><rect fill="#F1F1F1" height="38.6211" rx="12.5" ry="12.5" style="stroke:#181818;stroke-width:1.5;" width="48" x="511.3333" y="176.8633"/><text fill="#000000" font-family="sans-serif" font-size="14" lengthAdjust="spacing" textLength="28" x="521.3333" y="201.9707">&#27880;&#24847;</text><text fill="#000000" font-family="sans-serif" font-size="14" lengthAdjust="spacing" textLength="359.3242" x="612.3333" y="201.9707">&#8220;&#22269;&#23478;&#24037;&#20316;&#20154;&#21592;&#8221;&#65292;&#26377;&#20215;&#20540;&#35780;&#20215;&#30340;&#22240;&#32032;&#65292;&#20063;&#26377;&#20107;&#23454;&#21028;&#26029;&#30340;&#22240;&#32032;</text><path d="M559.3333,196.1738 L569.3333,196.1738 C584.3333,196.1738 584.3333,196.1738 599.3333,196.1738 L609.3333,196.1738 " fill="none" style="stroke:#181818;stroke-width:1.0;"/><path d="M461.3333,137.5527 L471.3333,137.5527 C486.3333,137.5527 486.3333,196.1738 501.3333,196.1738 L511.3333,196.1738 " fill="none" style="stroke:#181818;stroke-width:1.0;"/><path d="M100,254.7949 L110,254.7949 C125,254.7949 125,137.5527 140,137.5527 L150,137.5527 " fill="none" style="stroke:#181818;stroke-width:1.0;"/><rect fill="#F1F1F1" height="38.6211" rx="12.5" ry="12.5" style="stroke:#181818;stroke-width:1.5;" width="188" x="150" y="176.8633"/><text fill="#000000" font-family="sans-serif" font-size="14" lengthAdjust="spacing" textLength="168" x="160" y="201.9707">&#25104;&#25991;&#30340;&#35201;&#32032;&#21644;&#19981;&#25104;&#25991;&#30340;&#35201;&#32032;</text><path d="M100,254.7949 L110,254.7949 C125,254.7949 125,196.1738 140,196.1738 L150,196.1738 " fill="none" style="stroke:#181818;stroke-width:1.0;"/><rect fill="#F1F1F1" height="38.6211" rx="12.5" ry="12.5" style="stroke:#181818;stroke-width:1.5;" width="174" x="150" y="264.7949"/><text fill="#000000" font-family="sans-serif" font-size="14" lengthAdjust="spacing" textLength="154" x="160" y="289.9023">&#31215;&#26497;&#30340;&#35201;&#32032;&#21644;&#28040;&#26497;&#30340;&#35201;&#32032;</text><rect fill="#F1F1F1" height="38.6211" rx="12.5" ry="12.5" style="stroke:#181818;stroke-width:1.5;" width="547.3242" x="374" y="235.4844"/><text fill="#000000" font-family="sans-serif" font-size="14" lengthAdjust="spacing" textLength="527.3242" x="384" y="260.5918">&#31215;&#26497;&#65306;&#29359;&#32618;&#25104;&#31435;&#30340;&#35201;&#32032;&#65288;&#20363;&#22914;&#65292;&#24455;&#31169;&#26505;&#27861;&#32618;&#20013;&#8220;&#21496;&#27861;&#24037;&#20316;&#20154;&#21592;&#8221;&#26159;&#31215;&#26497;&#30340;&#26500;&#25104;&#35201;&#20214;&#35201;&#32032;&#65289;</text><path d="M324,284.1055 L334,284.1055 C349,284.1055 349,254.7949 364,254.7949 L374,254.7949 " fill="none" style="stroke:#181818;stroke-width:1.0;"/><rect fill="#F1F1F1" height="38.6211" rx="12.5" ry="12.5" style="stroke:#181818;stroke-width:1.5;" width="477.3242" x="374" y="294.1055"/><text fill="#000000" font-family="sans-serif" font-size="14" lengthAdjust="spacing" textLength="457.3242" x="384" y="319.2129">&#28040;&#26497;&#65306;&#21542;&#23450;&#29359;&#32618;&#25104;&#31435;&#30340;&#35201;&#32032;&#65288;&#20363;&#22914;&#65292;&#8220;&#34987;&#21202;&#32034;&#65292;&#27809;&#33719;&#21033;&#8221;&#65292;&#21017;&#19981;&#26500;&#25104;&#34892;&#36159;&#32618;&#65289;</text><path d="M324,284.1055 L334,284.1055 C349,284.1055 349,313.416 364,313.416 L374,313.416 " fill="none" style="stroke:#181818;stroke-width:1.0;"/><path d="M100,254.7949 L110,254.7949 C125,254.7949 125,284.1055 140,284.1055 L150,284.1055 " fill="none" style="stroke:#181818;stroke-width:1.0;"/><rect fill="#F1F1F1" height="38.6211" rx="12.5" ry="12.5" style="stroke:#181818;stroke-width:1.5;" width="174" x="150" y="382.0371"/><text fill="#000000" font-family="sans-serif" font-size="14" lengthAdjust="spacing" textLength="154" x="160" y="407.1445">&#23458;&#35266;&#30340;&#35201;&#32032;&#21644;&#20027;&#35266;&#30340;&#35201;&#32032;</text><rect fill="#F1F1F1" height="38.6211" rx="12.5" ry="12.5" style="stroke:#181818;stroke-width:1.5;" width="216" x="374" y="352.7266"/><text fill="#000000" font-family="sans-serif" font-size="14" lengthAdjust="spacing" textLength="196" x="384" y="377.834">&#23458;&#35266;&#65306;&#34892;&#20026;&#12289;&#32467;&#26524;&#12289;&#26102;&#38388;&#12289;&#22320;&#28857;</text><path d="M324,401.3477 L334,401.3477 C349,401.3477 349,372.0371 364,372.0371 L374,372.0371 " fill="none" style="stroke:#181818;stroke-width:1.0;"/><rect fill="#F1F1F1" height="38.6211" rx="12.5" ry="12.5" style="stroke:#181818;stroke-width:1.5;" width="216" x="374" y="411.3477"/><text fill="#000000" font-family="sans-serif" font-size="14" lengthAdjust="spacing" textLength="196" x="384" y="436.4551">&#20027;&#35266;&#65306;&#25925;&#24847;&#12289;&#36807;&#22833;&#12289;&#30446;&#30340;&#12289;&#21160;&#26426;</text><path d="M324,401.3477 L334,401.3477 C349,401.3477 349,430.6582 364,430.6582 L374,430.6582 " fill="none" style="stroke:#181818;stroke-width:1.0;"/><path d="M100,254.7949 L110,254.7949 C125,254.7949 125,401.3477 140,401.3477 L150,401.3477 " fill="none" style="stroke:#181818;stroke-width:1.0;"/><!--SRC=[xLJVJzjM57xtNt6dILDRYL2gQdGeGeWmfB6YJOFsgH9oYPTPSspas4XegkH0Q1985WPgOS7B0af9MuG3AmiXl_XVEj_honF_miwrazImihtkWJpTUyvtl_ETa-Dl9ARngXOLvN2Kd-EuJqHvLjB30We4-cFQWYJqirGVvFhSQq3KenB7QQ8c2GYNoZYT9Rard7hk73Kuxiu_GWX-Tr3mCrPbc5g7zEpGoIVeNjmvBkBr32qdQ6Qf5xbefeXfdEVR5yqCDLWShhYKlsYcWy68AWZoyB1BwT5wVEnHBWS7kxwAhG9WUn0NDeD8yPHaBI-DKoNoyW0V7j6bbhDZOIllgvuXPXfRkxIyI8f9d7p-HBRRgtXl4J9sy-svKVpBYEFSbdSWAoLdkGm7vw1DAt4MgQpZZJZJunwkaFc5WNQtSy3QZHDiD6ab0OUFQ3yt3L3d1v5qzgFQSMxJQuuQon3tdk3M4Tx8Ff7nMiQk6NQZwgJVk1fPgtQzJgsINQkJhGevsNVAhUkoD5qdPWLIleaucLTs_KzessvRj7t4-h_C0OA0mwurO0IT1igBeCpJHDjBi2o-YP1thqaYTxN_zuQ9jrlOgkAJLtRB14ByozPxuxUEHjzS6FDsqPk5VVgxsy67VxoNxQmaIQsHbqd_Bjgrx9LW1-gKAwGGzqD9DUMF-9hmi1VDlBDISLflWT3PN_NlTszyk9rqod5II9DtBm1frmvOgxaQNA-q2lFlII25172w6r7jSlhNobC6zV7Q7jkF_r81DUdkFbvTTuvtsKZ_sA4_d-3K6s_2EFKhcufNSoT3Zy-0hLiGFdPtko_FiE6F-8HvM106FB1JxBDfR922oTPcitg-USm-BVFGMJprFVBeu15viGox0H1wbiGbjclEjWLbsAELryIiSzo801RMjR6HowuMTBrhcEi4naG-el9Hz1EK2hYsuXuH6kLdVuoeYYw7Gugag4WI8pzeBW3IpnXQKNav8bm3zv9TgAh4hWD-EZu-EXeATP4BYgxEk19dP3ug_9kOfvBk5NZ61VixNTsuyOqRtxZnZHl_RztuMucNjKUJ3z6yeCP4HKO3WNjtxzqF3DwQuZKq9SoXkuDeu8kXWGT30uCeD3MDMFesTslogsaK0tES5L1OZ6cg-5JNuFrjReAVvz5tkgo9KM48VJCdo1DZNtS3w4jvNbGLEIh86ZVnUF83uFFxVQCYgwY24lHuaXiJlkTrIOCNiqfOb2D3wD7qUDy3xY4OkSv7W1kiFmGUhAaBa9lw6m00]--></g></svg>