<svg xmlns="http://www.w3.org/2000/svg" xmlns:xlink="http://www.w3.org/1999/xlink" contentStyleType="text/css" height="595px" preserveAspectRatio="none" style="width:1079px;height:594px;background:#FFFFFF;" version="1.1" viewBox="0 0 1079 594" width="1079.4px" zoomAndPan="magnify"><title>&#34892;&#20026;&#20027;&#20307;-&#29359;&#32618;&#20998;&#31867;</title><defs/><g><text fill="#000000" font-family="sans-serif" font-size="19.6" font-weight="bold" lengthAdjust="spacing" textLength="168.227" x="453.95" y="49.1504">&#34892;&#20026;&#20027;&#20307;-&#29359;&#32618;&#20998;&#31867;</text><rect fill="#F1F1F1" height="54.0695" rx="17.5" ry="17.5" style="stroke:#181818;stroke-width:2.0999999999999996;" width="191.327" x="14" y="296.9955"/><text fill="#000000" font-family="sans-serif" font-size="19.6" lengthAdjust="spacing" textLength="163.327" x="28" y="332.1459">&#34892;&#20026;&#20027;&#20307;-&#29359;&#32618;&#20998;&#31867;</text><rect fill="#F1F1F1" height="54.0695" rx="17.5" ry="17.5" style="stroke:#181818;stroke-width:2.0999999999999996;" width="184.8" x="275.327" y="132.8564"/><text fill="#000000" font-family="sans-serif" font-size="19.6" lengthAdjust="spacing" textLength="156.8" x="289.327" y="168.0068">&#32431;&#27491;&#30340;&#33258;&#28982;&#20154;&#29359;&#32618;</text><rect fill="#F1F1F1" height="54.0695" rx="17.5" ry="17.5" style="stroke:#181818;stroke-width:2.0999999999999996;" width="67.2" x="530.127" y="83.4695"/><text fill="#000000" font-family="sans-serif" font-size="19.6" lengthAdjust="spacing" textLength="39.2" x="544.127" y="118.6199">&#35299;&#37322;</text><text fill="#000000" font-family="sans-serif" font-size="19.6" lengthAdjust="spacing" textLength="215.6" x="671.527" y="118.6199">&#21482;&#33021;&#30001;&#33258;&#28982;&#20154;&#26500;&#25104;&#30340;&#29359;&#32618;</text><path d="M597.327,110.5043 L611.327,110.5043 C632.327,110.5043 632.327,110.5043 653.327,110.5043 L667.327,110.5043 " fill="none" style="stroke:#181818;stroke-width:1.3999999999999997;"/><path d="M460.127,159.8912 L474.127,159.8912 C495.127,159.8912 495.127,110.5043 516.127,110.5043 L530.127,110.5043 " fill="none" style="stroke:#181818;stroke-width:1.3999999999999997;"/><rect fill="#F1F1F1" height="54.0695" rx="17.5" ry="17.5" style="stroke:#181818;stroke-width:2.0999999999999996;" width="67.2" x="530.127" y="165.5391"/><text fill="#000000" font-family="sans-serif" font-size="19.6" lengthAdjust="spacing" textLength="39.2" x="544.127" y="200.6895">&#31034;&#20363;</text><text fill="#000000" font-family="sans-serif" font-size="19.6" lengthAdjust="spacing" textLength="98" x="671.527" y="157.3852">&#25925;&#24847;&#26432;&#20154;&#32618;</text><path d="M597.327,192.5738 L611.327,192.5738 C632.327,192.5738 632.327,149.2695 653.327,149.2695 L667.327,149.2695 " fill="none" style="stroke:#181818;stroke-width:1.3999999999999997;"/><text fill="#000000" font-family="sans-serif" font-size="19.6" lengthAdjust="spacing" textLength="98" x="671.527" y="186.2547">&#25925;&#24847;&#20260;&#23475;&#32618;</text><path d="M597.327,192.5738 L611.327,192.5738 C632.327,192.5738 632.327,178.1391 653.327,178.1391 L667.327,178.1391 " fill="none" style="stroke:#181818;stroke-width:1.3999999999999997;"/><text fill="#000000" font-family="sans-serif" font-size="19.6" lengthAdjust="spacing" textLength="58.8" x="671.527" y="215.1242">&#30423;&#31363;&#32618;</text><path d="M597.327,192.5738 L611.327,192.5738 C632.327,192.5738 632.327,207.0086 653.327,207.0086 L667.327,207.0086 " fill="none" style="stroke:#181818;stroke-width:1.3999999999999997;"/><text fill="#000000" font-family="sans-serif" font-size="19.6" lengthAdjust="spacing" textLength="58.8" x="671.527" y="243.9937">&#25250;&#21163;&#32618;</text><path d="M597.327,192.5738 L611.327,192.5738 C632.327,192.5738 632.327,235.8781 653.327,235.8781 L667.327,235.8781 " fill="none" style="stroke:#181818;stroke-width:1.3999999999999997;"/><path d="M460.127,159.8912 L474.127,159.8912 C495.127,159.8912 495.127,192.5738 516.127,192.5738 L530.127,192.5738 " fill="none" style="stroke:#181818;stroke-width:1.3999999999999997;"/><path d="M205.327,324.0303 L219.327,324.0303 C240.327,324.0303 240.327,159.8912 261.327,159.8912 L275.327,159.8912 " fill="none" style="stroke:#181818;stroke-width:1.3999999999999997;"/><rect fill="#F1F1F1" height="54.0695" rx="17.5" ry="17.5" style="stroke:#181818;stroke-width:2.0999999999999996;" width="165.2" x="275.327" y="305.3477"/><text fill="#000000" font-family="sans-serif" font-size="19.6" lengthAdjust="spacing" textLength="137.2" x="289.327" y="340.498">&#32431;&#27491;&#30340;&#21333;&#20301;&#29359;&#32618;</text><rect fill="#F1F1F1" height="54.0695" rx="17.5" ry="17.5" style="stroke:#181818;stroke-width:2.0999999999999996;" width="67.2" x="510.527" y="264.3129"/><text fill="#000000" font-family="sans-serif" font-size="19.6" lengthAdjust="spacing" textLength="39.2" x="524.527" y="299.4633">&#35299;&#37322;</text><text fill="#000000" font-family="sans-serif" font-size="19.6" lengthAdjust="spacing" textLength="137.2" x="651.927" y="299.4633">&#21482;&#33021;&#30001;&#21333;&#20301;&#26500;&#25104;</text><path d="M577.727,291.3477 L591.727,291.3477 C612.727,291.3477 612.727,291.3477 633.727,291.3477 L647.727,291.3477 " fill="none" style="stroke:#181818;stroke-width:1.3999999999999997;"/><path d="M440.527,332.3824 L454.527,332.3824 C475.527,332.3824 475.527,291.3477 496.527,291.3477 L510.527,291.3477 " fill="none" style="stroke:#181818;stroke-width:1.3999999999999997;"/><rect fill="#F1F1F1" height="54.0695" rx="17.5" ry="17.5" style="stroke:#181818;stroke-width:2.0999999999999996;" width="67.2" x="510.527" y="346.3824"/><text fill="#000000" font-family="sans-serif" font-size="19.6" lengthAdjust="spacing" textLength="39.2" x="524.527" y="381.5328">&#31034;&#20363;</text><text fill="#000000" font-family="sans-serif" font-size="19.6" lengthAdjust="spacing" textLength="98" x="651.927" y="367.098">&#21333;&#20301;&#34892;&#36159;&#32618;</text><path d="M577.727,373.4172 L591.727,373.4172 C612.727,373.4172 612.727,358.9824 633.727,358.9824 L647.727,358.9824 " fill="none" style="stroke:#181818;stroke-width:1.3999999999999997;"/><text fill="#000000" font-family="sans-serif" font-size="19.6" lengthAdjust="spacing" textLength="98" x="651.927" y="395.9676">&#21333;&#20301;&#21463;&#36159;&#32618;</text><path d="M577.727,373.4172 L591.727,373.4172 C612.727,373.4172 612.727,387.852 633.727,387.852 L647.727,387.852 " fill="none" style="stroke:#181818;stroke-width:1.3999999999999997;"/><path d="M440.527,332.3824 L454.527,332.3824 C475.527,332.3824 475.527,373.4172 496.527,373.4172 L510.527,373.4172 " fill="none" style="stroke:#181818;stroke-width:1.3999999999999997;"/><path d="M205.327,324.0303 L219.327,324.0303 C240.327,324.0303 240.327,332.3824 261.327,332.3824 L275.327,332.3824 " fill="none" style="stroke:#181818;stroke-width:1.3999999999999997;"/><rect fill="#F1F1F1" height="54.0695" rx="17.5" ry="17.5" style="stroke:#181818;stroke-width:2.0999999999999996;" width="184.8" x="275.327" y="469.4867"/><text fill="#000000" font-family="sans-serif" font-size="19.6" lengthAdjust="spacing" textLength="156.8" x="289.327" y="504.6371">&#19981;&#32431;&#27491;&#30340;&#21333;&#20301;&#29359;&#32618;</text><rect fill="#F1F1F1" height="54.0695" rx="17.5" ry="17.5" style="stroke:#181818;stroke-width:2.0999999999999996;" width="67.2" x="530.127" y="428.452"/><text fill="#000000" font-family="sans-serif" font-size="19.6" lengthAdjust="spacing" textLength="39.2" x="544.127" y="463.6023">&#35299;&#37322;</text><text fill="#000000" font-family="sans-serif" font-size="19.6" lengthAdjust="spacing" textLength="392" x="671.527" y="463.6023">&#21333;&#20301;&#21644;&#33258;&#28982;&#20154;&#37117;&#33021;&#26500;&#25104;&#65292;&#20027;&#35201;&#38598;&#20013;&#22312;&#32463;&#27982;&#29359;&#32618;</text><path d="M597.327,455.4867 L611.327,455.4867 C632.327,455.4867 632.327,455.4867 653.327,455.4867 L667.327,455.4867 " fill="none" style="stroke:#181818;stroke-width:1.3999999999999997;"/><path d="M460.127,496.5215 L474.127,496.5215 C495.127,496.5215 495.127,455.4867 516.127,455.4867 L530.127,455.4867 " fill="none" style="stroke:#181818;stroke-width:1.3999999999999997;"/><rect fill="#F1F1F1" height="54.0695" rx="17.5" ry="17.5" style="stroke:#181818;stroke-width:2.0999999999999996;" width="67.2" x="530.127" y="510.5215"/><text fill="#000000" font-family="sans-serif" font-size="19.6" lengthAdjust="spacing" textLength="39.2" x="544.127" y="545.6719">&#31034;&#20363;</text><text fill="#000000" font-family="sans-serif" font-size="19.6" lengthAdjust="spacing" textLength="176.4" x="671.527" y="531.2371">&#29983;&#20135;&#38144;&#21806;&#20266;&#21155;&#20135;&#21697;&#32618;</text><path d="M597.327,537.5562 L611.327,537.5562 C632.327,537.5562 632.327,523.1215 653.327,523.1215 L667.327,523.1215 " fill="none" style="stroke:#181818;stroke-width:1.3999999999999997;"/><text fill="#000000" font-family="sans-serif" font-size="19.6" lengthAdjust="spacing" textLength="58.8" x="671.527" y="560.1066">&#36867;&#31246;&#32618;</text><path d="M597.327,537.5562 L611.327,537.5562 C632.327,537.5562 632.327,551.991 653.327,551.991 L667.327,551.991 " fill="none" style="stroke:#181818;stroke-width:1.3999999999999997;"/><path d="M460.127,496.5215 L474.127,496.5215 C495.127,496.5215 495.127,537.5562 516.127,537.5562 L530.127,537.5562 " fill="none" style="stroke:#181818;stroke-width:1.3999999999999997;"/><path d="M205.327,324.0303 L219.327,324.0303 C240.327,324.0303 240.327,496.5215 261.327,496.5215 L275.327,496.5215 " fill="none" style="stroke:#181818;stroke-width:1.3999999999999997;"/><!--SRC=[xPDRInj15CVVvrDCwOiAYKQaiK5AIAnGQsXfegzXJARReRkpCfaDI14YILLIOqgD2BKNsaYL51NfXP1B-sLsTvAdVeLETasgRRINfpwuJxldzpzd_cVdd62A8yOrGfCQMW3W2g49rKXYwFKEf_YYYeSxo2EPn_dq4aDJ0U24gnYstgoRrPfPhPlDJO_87ubcnLfR4STr08OkW50-Gr3KZko3idYUQwrMHEwpMQkv8WUxajPUkRsQxmMSO1nQnKehsnIburwY_IfdhpsLfNwf87PhvfSdFrUmjnxRkQBzCjCvz9J-33ORkzRXXpvOx6oBIhPVNlwjbN_V1QSwj0fRPhFmj-svMMvllst95Sj_tlhujOyr5rl5xLDu29hLmZzwTCizM-zTGJlRbAvTizyQykRhhNVBxPqLitfWlTWNzQBzQUCFRqUKNfkrlNOfOvKEpKR5ofVbfxMvtAUjTYOhzZSw88Zb07U7E7XsfYUSoRq1JWAJ12aCQV2HhEPL6CRKUOKmX18F5QORD1dMLPr1bIWFk2EGUAcZrXcY2Zv7xiAkbEcfyuHNfwP2eN2ugrpK3HPtBCOfql15PkPLmprW2KmCdtHrkOkNk_WVx-9T5L4-6vc1QSnIHAVGvnqT6Htp-WUYYCCeNe0ZVkYx7l2D1tn-68x6O0SFWe78hHXCoTL8O9WaASx8lC5b_Y2OHca4xncK4mq7u9q5JASdRtS3y2PD4wPJ3LCEfkSYFmJNnZmXqZcHIITmBW8cyNrag5nc9FGaeKe0piQcFEDWHgwnWHHPMov-M6uWPukIHRy3]--></g></svg>