<svg xmlns="http://www.w3.org/2000/svg" xmlns:xlink="http://www.w3.org/1999/xlink" contentStyleType="text/css" height="685px" preserveAspectRatio="none" style="width:1660px;height:685px;background:#FFFFFF;" version="1.1" viewBox="0 0 1660 685" width="1660px" zoomAndPan="magnify"><title>&#34892;&#20026;&#20027;&#20307;-&#21333;&#20301;</title><defs/><g><text fill="#000000" font-family="sans-serif" font-size="14" font-weight="bold" lengthAdjust="spacing" textLength="91.2871" x="783.1323" y="35.1074">&#34892;&#20026;&#20027;&#20307;-&#21333;&#20301;</text><rect fill="#F1F1F1" height="38.6211" rx="12.5" ry="12.5" style="stroke:#181818;stroke-width:1.5;" width="108.6621" x="10" y="342.0371"/><text fill="#000000" font-family="sans-serif" font-size="14" lengthAdjust="spacing" textLength="88.6621" x="20" y="367.1445">&#34892;&#20026;&#20027;&#20307;-&#21333;&#20301;</text><rect fill="#F1F1F1" height="38.6211" rx="12.5" ry="12.5" style="stroke:#181818;stroke-width:1.5;" width="146" x="168.6621" y="206.1738"/><text fill="#000000" font-family="sans-serif" font-size="14" lengthAdjust="spacing" textLength="126" x="178.6621" y="231.2813">&#21333;&#20301;&#29359;&#32618;&#30340;&#25104;&#31435;&#26465;&#20214;</text><rect fill="#F1F1F1" height="38.6211" rx="12.5" ry="12.5" style="stroke:#181818;stroke-width:1.5;" width="76" x="364.6621" y="59.6211"/><text fill="#000000" font-family="sans-serif" font-size="14" lengthAdjust="spacing" textLength="56" x="374.6621" y="84.7285">&#23458;&#35266;&#26465;&#20214;</text><path d="M314.6621,225.4844 L324.6621,225.4844 C339.6621,225.4844 339.6621,78.9316 354.6621,78.9316 L364.6621,78.9316 " fill="none" style="stroke:#181818;stroke-width:1.0;"/><rect fill="#90EE90" height="38.6211" rx="12.5" ry="12.5" style="stroke:#181818;stroke-width:1.5;" width="135.8896" x="364.6621" y="118.2422"/><text fill="#000000" font-family="sans-serif" font-size="14" lengthAdjust="spacing" textLength="112" x="374.6621" y="143.3496">&#20027;&#20307;&#26465;&#20214;&#65288;&#37325;&#28857;&#65289;</text><rect fill="#F1F1F1" height="38.6211" rx="12.5" ry="12.5" style="stroke:#181818;stroke-width:1.5;" width="468" x="550.5518" y="118.2422"/><text fill="#000000" font-family="sans-serif" font-size="14" lengthAdjust="spacing" textLength="448" x="560.5518" y="143.3496">&#20027;&#35201;&#21028;&#26029;&#19968;&#20010;&#38382;&#39064;&#65306;&#21333;&#20301;&#35201;&#26500;&#25104;&#21333;&#20301;&#29359;&#32618;&#65292;&#26159;&#21542;&#35201;&#27714;&#21333;&#20301;&#20855;&#26377;&#27861;&#20154;&#36164;&#26684;&#65311;</text><path d="M500.5518,137.5527 L510.5518,137.5527 C525.5518,137.5527 525.5518,137.5527 540.5518,137.5527 L550.5518,137.5527 " fill="none" style="stroke:#181818;stroke-width:1.0;"/><path d="M314.6621,225.4844 L324.6621,225.4844 C339.6621,225.4844 339.6621,137.5527 354.6621,137.5527 L364.6621,137.5527 " fill="none" style="stroke:#181818;stroke-width:1.0;"/><rect fill="#90EE90" height="38.6211" rx="12.5" ry="12.5" style="stroke:#181818;stroke-width:1.5;" width="135.8896" x="364.6621" y="264.7949"/><text fill="#000000" font-family="sans-serif" font-size="14" lengthAdjust="spacing" textLength="112" x="374.6621" y="289.9023">&#20027;&#35266;&#26465;&#20214;&#65288;&#37325;&#28857;&#65289;</text><rect fill="#F1F1F1" height="38.6211" rx="12.5" ry="12.5" style="stroke:#181818;stroke-width:1.5;" width="90" x="550.5518" y="264.7949"/><text fill="#000000" font-family="sans-serif" font-size="14" lengthAdjust="spacing" textLength="70" x="560.5518" y="289.9023">&#20027;&#35201;&#26159;&#20004;&#28857;</text><rect fill="#F1F1F1" height="38.6211" rx="12.5" ry="12.5" style="stroke:#181818;stroke-width:1.5;" width="146" x="690.5518" y="206.1738"/><text fill="#000000" font-family="sans-serif" font-size="14" lengthAdjust="spacing" textLength="126" x="700.5518" y="231.2813">&#31532;&#19968;&#65292;&#20307;&#29616;&#21333;&#20301;&#24847;&#24535;</text><rect fill="#F1F1F1" height="38.6211" rx="12.5" ry="12.5" style="stroke:#181818;stroke-width:1.5;" width="90" x="886.5518" y="176.8633"/><text fill="#000000" font-family="sans-serif" font-size="14" lengthAdjust="spacing" textLength="70" x="896.5518" y="201.9707">&#25925;&#24847;&#29359;&#32618;&#65292;</text><path d="M836.5518,225.4844 L846.5518,225.4844 C861.5518,225.4844 861.5518,196.1738 876.5518,196.1738 L886.5518,196.1738 " fill="none" style="stroke:#181818;stroke-width:1.0;"/><rect fill="#F1F1F1" height="38.6211" rx="12.5" ry="12.5" style="stroke:#181818;stroke-width:1.5;" width="342" x="886.5518" y="235.4844"/><text fill="#000000" font-family="sans-serif" font-size="14" lengthAdjust="spacing" textLength="322" x="896.5518" y="260.5918">&#36807;&#22833;&#29359;&#32618;&#65292;&#21333;&#20301;&#38598;&#20307;&#20915;&#31574;&#22833;&#35823;&#65292;&#24037;&#31243;&#37325;&#22823;&#23433;&#20840;&#20107;&#25925;&#32618;</text><path d="M836.5518,225.4844 L846.5518,225.4844 C861.5518,225.4844 861.5518,254.7949 876.5518,254.7949 L886.5518,254.7949 " fill="none" style="stroke:#181818;stroke-width:1.0;"/><path d="M640.5518,284.1055 L650.5518,284.1055 C665.5518,284.1055 665.5518,225.4844 680.5518,225.4844 L690.5518,225.4844 " fill="none" style="stroke:#181818;stroke-width:1.0;"/><rect fill="#F1F1F1" height="38.6211" rx="12.5" ry="12.5" style="stroke:#181818;stroke-width:1.5;" width="356" x="690.5518" y="323.416"/><text fill="#000000" font-family="sans-serif" font-size="14" lengthAdjust="spacing" textLength="336" x="700.5518" y="348.5234">&#31532;&#20108;&#65292;&#35299;&#24320;&#21333;&#20301;&#38754;&#32433;&#65288;&#33258;&#28982;&#20154;&#25226;&#21333;&#20301;&#20316;&#20026;&#29359;&#32618;&#30340;&#39532;&#30002;&#65289;</text><rect fill="#F1F1F1" height="38.6211" rx="12.5" ry="12.5" style="stroke:#181818;stroke-width:1.5;" width="328" x="1096.5518" y="294.1055"/><text fill="#000000" font-family="sans-serif" font-size="14" lengthAdjust="spacing" textLength="308" x="1106.5518" y="319.2129">&#21333;&#20301;&#30340;&#20027;&#35201;&#30446;&#30340;&#65306;&#25104;&#31435;&#21333;&#20301;&#26102;&#30340;&#20027;&#35201;&#30446;&#30340;&#23601;&#26159;&#29359;&#32618;</text><path d="M1046.5518,342.7266 L1056.5518,342.7266 C1071.5518,342.7266 1071.5518,313.416 1086.5518,313.416 L1096.5518,313.416 " fill="none" style="stroke:#181818;stroke-width:1.0;"/><rect fill="#F1F1F1" height="38.6211" rx="12.5" ry="12.5" style="stroke:#181818;stroke-width:1.5;" width="552" x="1096.5518" y="352.7266"/><text fill="#000000" font-family="sans-serif" font-size="14" lengthAdjust="spacing" textLength="532" x="1106.5518" y="377.834">&#21333;&#20301;&#30340;&#20027;&#35201;&#27963;&#21160;&#65306;&#25104;&#31435;&#21333;&#20301;&#30340;&#26102;&#20505;&#26159;&#21512;&#27861;&#30340;&#65292;&#20043;&#21518;&#25226;&#20027;&#33829;&#19994;&#21153;&#12289;&#20027;&#35201;&#27963;&#21160;&#37117;&#21464;&#25104;&#20102;&#29359;&#32618;</text><path d="M1046.5518,342.7266 L1056.5518,342.7266 C1071.5518,342.7266 1071.5518,372.0371 1086.5518,372.0371 L1096.5518,372.0371 " fill="none" style="stroke:#181818;stroke-width:1.0;"/><path d="M640.5518,284.1055 L650.5518,284.1055 C665.5518,284.1055 665.5518,342.7266 680.5518,342.7266 L690.5518,342.7266 " fill="none" style="stroke:#181818;stroke-width:1.0;"/><path d="M500.5518,284.1055 L510.5518,284.1055 C525.5518,284.1055 525.5518,284.1055 540.5518,284.1055 L550.5518,284.1055 " fill="none" style="stroke:#181818;stroke-width:1.0;"/><path d="M314.6621,225.4844 L324.6621,225.4844 C339.6621,225.4844 339.6621,284.1055 354.6621,284.1055 L364.6621,284.1055 " fill="none" style="stroke:#181818;stroke-width:1.0;"/><path d="M118.6621,361.3477 L128.6621,361.3477 C143.6621,361.3477 143.6621,225.4844 158.6621,225.4844 L168.6621,225.4844 " fill="none" style="stroke:#181818;stroke-width:1.0;"/><rect fill="#F1F1F1" height="38.6211" rx="12.5" ry="12.5" style="stroke:#181818;stroke-width:1.5;" width="118" x="168.6621" y="517.9004"/><text fill="#000000" font-family="sans-serif" font-size="14" lengthAdjust="spacing" textLength="98" x="178.6621" y="543.0078">&#21333;&#20301;&#29359;&#32618;&#30340;&#22788;&#32602;</text><rect fill="#F1F1F1" height="38.6211" rx="12.5" ry="12.5" style="stroke:#181818;stroke-width:1.5;" width="76" x="336.6621" y="459.2793"/><text fill="#000000" font-family="sans-serif" font-size="14" lengthAdjust="spacing" textLength="56" x="346.6621" y="484.3867">&#22788;&#32602;&#35268;&#21017;</text><rect fill="#F1F1F1" height="38.6211" rx="12.5" ry="12.5" style="stroke:#181818;stroke-width:1.5;" width="244" x="462.6621" y="411.3477"/><text fill="#000000" font-family="sans-serif" font-size="14" lengthAdjust="spacing" textLength="224" x="472.6621" y="436.4551">&#21407;&#21017;&#26159;&#21452;&#32602;&#21046;&#65292;&#26082;&#32602;&#21333;&#20301;&#65292;&#21448;&#32602;&#20010;&#20154;</text><rect fill="#F1F1F1" height="38.6211" rx="12.5" ry="12.5" style="stroke:#181818;stroke-width:1.5;" width="538" x="756.6621" y="411.3477"/><text fill="#000000" font-family="sans-serif" font-size="14" lengthAdjust="spacing" textLength="518" x="766.6621" y="436.4551">&#20010;&#20154;&#65292;&#26159;&#25351;&#20027;&#31649;&#39046;&#23548;&#21644;&#20854;&#20182;&#30452;&#25509;&#36131;&#20219;&#20154;&#65307;&#20182;&#20204;&#37117;&#24517;&#39035;&#26159;&#21442;&#19982;&#20102;&#36825;&#20010;&#29359;&#32618;&#65292;&#25165;&#36827;&#34892;&#22788;&#32602;</text><path d="M706.6621,430.6582 L716.6621,430.6582 C731.6621,430.6582 731.6621,430.6582 746.6621,430.6582 L756.6621,430.6582 " fill="none" style="stroke:#181818;stroke-width:1.0;"/><path d="M412.6621,478.5898 L422.6621,478.5898 C437.6621,478.5898 437.6621,430.6582 452.6621,430.6582 L462.6621,430.6582 " fill="none" style="stroke:#181818;stroke-width:1.0;"/><rect fill="#F1F1F1" height="38.6211" rx="12.5" ry="12.5" style="stroke:#181818;stroke-width:1.5;" width="244" x="462.6621" y="488.5898"/><text fill="#000000" font-family="sans-serif" font-size="14" lengthAdjust="spacing" textLength="224" x="472.6621" y="513.6973">&#20363;&#22806;&#21333;&#32602;&#65292;&#21482;&#32602;&#20010;&#20154;&#65292;&#19981;&#20877;&#32602;&#21333;&#20301;&#20102;</text><rect fill="#F1F1F1" height="75.8633" rx="12.5" ry="12.5" style="stroke:#181818;stroke-width:1.5;" width="328" x="756.6621" y="469.9688"/><text fill="#000000" font-family="sans-serif" font-size="14" lengthAdjust="spacing" textLength="294" x="766.6621" y="495.0762">&#32972;&#21518;&#21407;&#29702;&#65306;&#21333;&#20301;&#29359;&#32618;&#65292;&#24448;&#24448;&#26159;&#20960;&#20010;&#39046;&#23548;&#22312;&#30606;&#25630;&#65307;</text><text fill="#000000" font-family="sans-serif" font-size="14" lengthAdjust="spacing" textLength="308" x="766.6621" y="513.6973">&#32602;&#21333;&#20301;&#30340;&#35805;&#65292;&#23601;&#26159;&#32602;&#21333;&#20301;&#30340;&#21512;&#27861;&#36164;&#20135;&#65292;&#32564;&#32435;&#32602;&#37329;&#65292;</text><text fill="#000000" font-family="sans-serif" font-size="14" lengthAdjust="spacing" textLength="294" x="766.6621" y="532.3184">&#23601;&#20250;&#20405;&#29359;&#20854;&#20182;&#32929;&#19996;&#12289;&#26222;&#36890;&#21592;&#24037;&#30340;&#21033;&#30410;&#65292;&#36825;&#19981;&#21512;&#29702;</text><path d="M706.6621,507.9004 L716.6621,507.9004 C731.6621,507.9004 731.6621,507.9004 746.6621,507.9004 L756.6621,507.9004 " fill="none" style="stroke:#181818;stroke-width:1.0;"/><path d="M412.6621,478.5898 L422.6621,478.5898 C437.6621,478.5898 437.6621,507.9004 452.6621,507.9004 L462.6621,507.9004 " fill="none" style="stroke:#181818;stroke-width:1.0;"/><path d="M286.6621,537.2109 L296.6621,537.2109 C311.6621,537.2109 311.6621,478.5898 326.6621,478.5898 L336.6621,478.5898 " fill="none" style="stroke:#181818;stroke-width:1.0;"/><rect fill="#F1F1F1" height="38.6211" rx="12.5" ry="12.5" style="stroke:#181818;stroke-width:1.5;" width="146" x="336.6621" y="595.1426"/><text fill="#000000" font-family="sans-serif" font-size="14" lengthAdjust="spacing" textLength="126" x="346.6621" y="620.25">&#21333;&#20301;&#27809;&#20102;&#65292;&#24590;&#20040;&#21322;&#65311;</text><rect fill="#F1F1F1" height="38.6211" rx="12.5" ry="12.5" style="stroke:#181818;stroke-width:1.5;" width="440" x="532.6621" y="565.832"/><text fill="#000000" font-family="sans-serif" font-size="14" lengthAdjust="spacing" textLength="420" x="542.6621" y="590.9395">&#30495;&#27809;&#20102;&#65292;&#34987;&#25764;&#38144;&#12289;&#27880;&#38144;&#12289;&#23459;&#21578;&#30772;&#20135;&#65292;&#30452;&#25509;&#36861;&#31350;&#30452;&#25509;&#36131;&#20219;&#20154;&#30340;&#21009;&#20107;&#36131;&#20219;</text><path d="M482.6621,614.4531 L492.6621,614.4531 C507.6621,614.4531 507.6621,585.1426 522.6621,585.1426 L532.6621,585.1426 " fill="none" style="stroke:#181818;stroke-width:1.0;"/><rect fill="#F1F1F1" height="38.6211" rx="12.5" ry="12.5" style="stroke:#181818;stroke-width:1.5;" width="356" x="532.6621" y="624.4531"/><text fill="#000000" font-family="sans-serif" font-size="14" lengthAdjust="spacing" textLength="336" x="542.6621" y="649.5605">&#20551;&#27809;&#20102;&#65292;&#34987;&#21512;&#24182;&#21040;&#19968;&#20010;&#26032;&#21333;&#20301;&#65292;&#36861;&#31350;&#21407;&#21333;&#20301;&#30340;&#21333;&#20301;&#29359;&#32618;</text><path d="M482.6621,614.4531 L492.6621,614.4531 C507.6621,614.4531 507.6621,643.7637 522.6621,643.7637 L532.6621,643.7637 " fill="none" style="stroke:#181818;stroke-width:1.0;"/><path d="M286.6621,537.2109 L296.6621,537.2109 C311.6621,537.2109 311.6621,614.4531 326.6621,614.4531 L336.6621,614.4531 " fill="none" style="stroke:#181818;stroke-width:1.0;"/><path d="M118.6621,361.3477 L128.6621,361.3477 C143.6621,361.3477 143.6621,537.2109 158.6621,537.2109 L168.6621,537.2109 " fill="none" style="stroke:#181818;stroke-width:1.0;"/><!--SRC=[xLLRJnjN47xVNt6glYIHC26AIeeGGa2HIeDQ5PAdID46jkwgzXgjrqYeYcI8iOsnZKd3pUPcOy8bn8P07ECB_Z4vPy_woN-XS_QOnHYecdTRVjWpyytCDtDcplIwDL7LdB8oxXGd1E4xMHbpUCObPBErkxKfXzJEL6sWQpEFDjdZT0Y29ciE2Hd9CCuNSBw8o_-qaSWIBaS4uS6jOWI_1uWVQ2XBouSqxjE3CVfXNjz8ucBEHDHHcPInDtD3p1roSQqKh0OYTEQyLff3tTrsLPAKdXuBR1aOxwT9CAqlVyHvByuVLbSorTHghHJdH42hRp8MZRngfR2-cYMnzqnxCiDLPFQBlZwddoxXGi7uxDEtIxNIrdLk5kLlu0Q1S3uDq6jQZg17Hq0Qs43ID7hCUUY-1L9PkO7c5lhIBEYjBEv06PK0IPzOAEwtcl136E8_fH-NGMjaiqprPPVkpqCk9Br7CdDaTXyNvY486Dx1jn06CsDlXvIyTRyRALeuWOeOWKFgoq7rz528gt1v7Rh4weNgmH5zzmbATWVj-XN5VRnoD961RxX9taFrwgpacW3a-0Hgp8FyFyVwMP64zfiSirvToH7lcjaPGUW3CtWOdy-JM1HIOhQnNPoFar3ogtUwqLNrJPaih88tNF0t4Ban32Jje-LuunYO0cFFHu9hJTr3ebiWP6GMme0XmHphsfKK-pQzijjR2C8HcXwAVijrSGLlTZqS0COqawoc_2HR8c_3P3Q7YyiqSQP7Tusp7Lmick04277nYALKcQqcYoQ36PoFGcv6PGryNitGNCIe9E0fQCgh7lrYdgINWIkeJAw75bTMrdo4-2DMCk3ybWICDs6eFLI2nlpMH5-rzOKN_enVO9iDFaziVPzkHlNO9cJoGh7yG_6Dx0OpujtI8EUN3HEF2ti0eAKpMZW5G3Mm2CSN2bZWKXnVV8R0l6R6J1Bdrw47zBLCrHidYwjiZC1Jy80cGcmyM9qYu1Xu2yrjg7zAGhQiVDueFW-IIAZndQaFslgM1JDI7_ItwUexBmjukiy_I6Q7B8RezbcTDB_5IfaUv9fkrEIr25FD9SrTDXre30IKoNcE18_vMwel7rkznfsphhGArt0TGgy4s-Lom_HUNpZTvbhf4Ug20Lcqgw8J_GrSRERJQNuYr2UE_MLNNHvblD_bSAd88Tl_r4m0g5ypj4iL5Rjq1vmhBw6gotqNyFl1mRw-_lvBv9JBexuqARvKHAVqNsHUEJmym6kXkxsULMjHjXPbQr6s5cLhKROMvRSkojySeg8z6twA9YNLBRiKr65xzF3HOrldlH5HGoFI17hOYJf-xEfuqjNHYVf7HX5JtnVk3VyyYjomjyOaD2wxDLL-vT70_hum94wAw7UFeibEgGlzEY4fGmE_N0hGJygahBeKfwHemj3puIl03u_R-cGMKGKcwFcmC23z8NeS6bYCkSPbnTw5deqEjZqHdiAEzOXsy0rRkH_MewPEWMxaNm00]--></g></svg>