<svg xmlns="http://www.w3.org/2000/svg" xmlns:xlink="http://www.w3.org/1999/xlink" contentStyleType="text/css" height="987.6px" preserveAspectRatio="none" style="width:1198px;height:987px;background:#FFFFFF;" version="1.1" viewBox="0 0 1198 987" width="1198.8px" zoomAndPan="magnify"><title>&#20004;&#38454;&#23618;&#29359;&#32618;&#26500;&#25104;&#20307;&#31995;</title><defs/><g><text fill="#000000" font-family="sans-serif" font-size="16.8" font-weight="bold" lengthAdjust="spacing" textLength="155.925" x="519.9686" y="42.1289">&#20004;&#38454;&#23618;&#29359;&#32618;&#26500;&#25104;&#20307;&#31995;</text><rect fill="#F1F1F1" height="46.3453" rx="15" ry="15" style="stroke:#181818;stroke-width:1.7999999999999998;" width="175.2" x="12" y="493.6172"/><text fill="#000000" font-family="sans-serif" font-size="16.8" lengthAdjust="spacing" textLength="151.2" x="24" y="523.7461">&#20004;&#38454;&#23618;&#29359;&#32618;&#26500;&#25104;&#20307;&#31995;</text><rect fill="#90EE90" height="46.3453" rx="15" ry="15" style="stroke:#181818;stroke-width:1.7999999999999998;" width="129.4676" x="247.2" y="282.5813"/><text fill="#000000" font-family="sans-serif" font-size="16.8" lengthAdjust="spacing" textLength="100.8" x="259.2" y="312.7102">&#23458;&#35266;&#36829;&#27861;&#38454;&#23618;</text><rect fill="#F1F1F1" height="46.3453" rx="15" ry="15" style="stroke:#181818;stroke-width:1.7999999999999998;" width="192" x="436.6676" y="177.0633"/><text fill="#000000" font-family="sans-serif" font-size="16.8" lengthAdjust="spacing" textLength="168" x="448.6676" y="207.1922">&#23458;&#35266;&#35201;&#20214;&#65288;&#36829;&#27861;&#20107;&#23454;&#65289;</text><rect fill="#F1F1F1" height="46.3453" rx="15" ry="15" style="stroke:#181818;stroke-width:1.7999999999999998;" width="91.2" x="688.6676" y="71.5453"/><text fill="#000000" font-family="sans-serif" font-size="16.8" lengthAdjust="spacing" textLength="67.2" x="700.6676" y="101.6742">&#34892;&#20026;&#20027;&#20307;</text><path d="M628.6676,200.2359 L640.6676,200.2359 C658.6676,200.2359 658.6676,94.718 676.6676,94.718 L688.6676,94.718 " fill="none" style="stroke:#181818;stroke-width:1.2;"/><rect fill="#F1F1F1" height="46.3453" rx="15" ry="15" style="stroke:#181818;stroke-width:1.7999999999999998;" width="91.2" x="688.6676" y="141.8906"/><text fill="#000000" font-family="sans-serif" font-size="16.8" lengthAdjust="spacing" textLength="67.2" x="700.6676" y="172.0195">&#21361;&#23475;&#34892;&#20026;</text><path d="M628.6676,200.2359 L640.6676,200.2359 C658.6676,200.2359 658.6676,165.0633 676.6676,165.0633 L688.6676,165.0633 " fill="none" style="stroke:#181818;stroke-width:1.2;"/><rect fill="#F1F1F1" height="46.3453" rx="15" ry="15" style="stroke:#181818;stroke-width:1.7999999999999998;" width="91.2" x="688.6676" y="212.2359"/><text fill="#000000" font-family="sans-serif" font-size="16.8" lengthAdjust="spacing" textLength="67.2" x="700.6676" y="242.3648">&#21361;&#23475;&#32467;&#26524;</text><path d="M628.6676,200.2359 L640.6676,200.2359 C658.6676,200.2359 658.6676,235.4086 676.6676,235.4086 L688.6676,235.4086 " fill="none" style="stroke:#181818;stroke-width:1.2;"/><rect fill="#F1F1F1" height="46.3453" rx="15" ry="15" style="stroke:#181818;stroke-width:1.7999999999999998;" width="91.2" x="688.6676" y="282.5813"/><text fill="#000000" font-family="sans-serif" font-size="16.8" lengthAdjust="spacing" textLength="67.2" x="700.6676" y="312.7102">&#22240;&#26524;&#20851;&#31995;</text><path d="M628.6676,200.2359 L640.6676,200.2359 C658.6676,200.2359 658.6676,305.7539 676.6676,305.7539 L688.6676,305.7539 " fill="none" style="stroke:#181818;stroke-width:1.2;"/><path d="M376.6676,305.7539 L388.6676,305.7539 C406.6676,305.7539 406.6676,200.2359 424.6676,200.2359 L436.6676,200.2359 " fill="none" style="stroke:#181818;stroke-width:1.2;"/><rect fill="#F1F1F1" height="46.3453" rx="15" ry="15" style="stroke:#181818;stroke-width:1.7999999999999998;" width="158.4" x="436.6676" y="423.2719"/><text fill="#000000" font-family="sans-serif" font-size="16.8" lengthAdjust="spacing" textLength="134.4" x="448.6676" y="453.4008">&#23458;&#35266;&#36829;&#27861;&#38459;&#21364;&#20107;&#30001;</text><rect fill="#F1F1F1" height="46.3453" rx="15" ry="15" style="stroke:#181818;stroke-width:1.7999999999999998;" width="91.2" x="655.0676" y="352.9266"/><text fill="#000000" font-family="sans-serif" font-size="16.8" lengthAdjust="spacing" textLength="67.2" x="667.0676" y="383.0555">&#27491;&#24403;&#38450;&#21355;</text><text fill="#000000" font-family="sans-serif" font-size="16.8" lengthAdjust="spacing" textLength="134.4" x="809.8676" y="383.0555">&#25343;&#20992;&#26432;&#20154;&#65292;&#34987;&#21453;&#26432;</text><path d="M746.2676,376.0992 L758.2676,376.0992 C776.2676,376.0992 776.2676,376.0992 794.2676,376.0992 L806.2676,376.0992 " fill="none" style="stroke:#181818;stroke-width:1.2;"/><path d="M595.0676,446.4445 L607.0676,446.4445 C625.0676,446.4445 625.0676,376.0992 643.0676,376.0992 L655.0676,376.0992 " fill="none" style="stroke:#181818;stroke-width:1.2;"/><rect fill="#F1F1F1" height="46.3453" rx="15" ry="15" style="stroke:#181818;stroke-width:1.7999999999999998;" width="91.2" x="655.0676" y="423.2719"/><text fill="#000000" font-family="sans-serif" font-size="16.8" lengthAdjust="spacing" textLength="67.2" x="667.0676" y="453.4008">&#32039;&#24613;&#36991;&#38505;</text><text fill="#000000" font-family="sans-serif" font-size="16.8" lengthAdjust="spacing" textLength="100.8" x="809.8676" y="453.4008">&#30528;&#28779;&#65292;&#25172;&#33609;&#22534;</text><path d="M746.2676,446.4445 L758.2676,446.4445 C776.2676,446.4445 776.2676,446.4445 794.2676,446.4445 L806.2676,446.4445 " fill="none" style="stroke:#181818;stroke-width:1.2;"/><path d="M595.0676,446.4445 L607.0676,446.4445 C625.0676,446.4445 625.0676,446.4445 643.0676,446.4445 L655.0676,446.4445 " fill="none" style="stroke:#181818;stroke-width:1.2;"/><rect fill="#F1F1F1" height="46.3453" rx="15" ry="15" style="stroke:#181818;stroke-width:1.7999999999999998;" width="124.8" x="655.0676" y="493.6172"/><text fill="#000000" font-family="sans-serif" font-size="16.8" lengthAdjust="spacing" textLength="100.8" x="667.0676" y="523.7461">&#34987;&#23475;&#20154;&#25215;&#35834;&#31561;</text><text fill="#000000" font-family="sans-serif" font-size="16.8" lengthAdjust="spacing" textLength="117.6" x="843.4676" y="523.7461">&#25214;&#20154;&#21578;&#33258;&#24049;&#36138;&#27745;</text><path d="M779.8676,516.7898 L791.8676,516.7898 C809.8676,516.7898 809.8676,516.7898 827.8676,516.7898 L839.8676,516.7898 " fill="none" style="stroke:#181818;stroke-width:1.2;"/><path d="M595.0676,446.4445 L607.0676,446.4445 C625.0676,446.4445 625.0676,516.7898 643.0676,516.7898 L655.0676,516.7898 " fill="none" style="stroke:#181818;stroke-width:1.2;"/><path d="M376.6676,305.7539 L388.6676,305.7539 C406.6676,305.7539 406.6676,446.4445 424.6676,446.4445 L436.6676,446.4445 " fill="none" style="stroke:#181818;stroke-width:1.2;"/><path d="M187.2,516.7898 L199.2,516.7898 C217.2,516.7898 217.2,305.7539 235.2,305.7539 L247.2,305.7539 " fill="none" style="stroke:#181818;stroke-width:1.2;"/><rect fill="#FFA500" height="46.3453" rx="15" ry="15" style="stroke:#181818;stroke-width:1.7999999999999998;" width="129.4676" x="247.2" y="739.8258"/><text fill="#000000" font-family="sans-serif" font-size="16.8" lengthAdjust="spacing" textLength="100.8" x="259.2" y="769.9547">&#20027;&#35266;&#36131;&#20219;&#38454;&#23618;</text><rect fill="#F1F1F1" height="46.3453" rx="15" ry="15" style="stroke:#181818;stroke-width:1.7999999999999998;" width="192" x="436.6676" y="599.1352"/><text fill="#000000" font-family="sans-serif" font-size="16.8" lengthAdjust="spacing" textLength="168" x="448.6676" y="629.2641">&#20027;&#35266;&#35201;&#20214;&#65288;&#33021;&#21542;&#35892;&#36131;&#65289;</text><rect fill="#F1F1F1" height="46.3453" rx="15" ry="15" style="stroke:#181818;stroke-width:1.7999999999999998;" width="225.6" x="688.6676" y="563.9625"/><text fill="#000000" font-family="sans-serif" font-size="16.8" lengthAdjust="spacing" textLength="201.6" x="700.6676" y="594.0914">&#29359;&#32618;&#25925;&#24847;&#65288;&#20107;&#23454;&#35748;&#35782;&#38169;&#35823;&#65289;</text><path d="M628.6676,622.3078 L640.6676,622.3078 C658.6676,622.3078 658.6676,587.1352 676.6676,587.1352 L688.6676,587.1352 " fill="none" style="stroke:#181818;stroke-width:1.2;"/><rect fill="#F1F1F1" height="46.3453" rx="15" ry="15" style="stroke:#181818;stroke-width:1.7999999999999998;" width="208.8" x="688.6676" y="634.3078"/><text fill="#000000" font-family="sans-serif" font-size="16.8" lengthAdjust="spacing" textLength="184.8" x="700.6676" y="664.4367">&#29359;&#32618;&#36807;&#22833;&#65288;&#26080;&#32618;&#36807;&#20107;&#20214;&#65289;</text><path d="M628.6676,622.3078 L640.6676,622.3078 C658.6676,622.3078 658.6676,657.4805 676.6676,657.4805 L688.6676,657.4805 " fill="none" style="stroke:#181818;stroke-width:1.2;"/><path d="M376.6676,762.9984 L388.6676,762.9984 C406.6676,762.9984 406.6676,622.3078 424.6676,622.3078 L436.6676,622.3078 " fill="none" style="stroke:#181818;stroke-width:1.2;"/><rect fill="#F1F1F1" height="46.3453" rx="15" ry="15" style="stroke:#181818;stroke-width:1.7999999999999998;" width="158.4" x="436.6676" y="810.1711"/><text fill="#000000" font-family="sans-serif" font-size="16.8" lengthAdjust="spacing" textLength="134.4" x="448.6676" y="840.3">&#20027;&#35266;&#36131;&#20219;&#38459;&#21364;&#20107;&#30001;</text><rect fill="#F1F1F1" height="46.3453" rx="15" ry="15" style="stroke:#181818;stroke-width:1.7999999999999998;" width="197.5945" x="655.0676" y="704.6531"/><text fill="#000000" font-family="sans-serif" font-size="16.8" lengthAdjust="spacing" textLength="173.5945" x="667.0676" y="734.782">&#36131;&#20219;&#24180;&#40836;&#65288;&#36523;&#20307;-&#24180;&#40836;&#65289;</text><text fill="#000000" font-family="sans-serif" font-size="16.8" lengthAdjust="spacing" textLength="69.0867" x="916.2621" y="734.782">&#29399;&#34507;10&#23681;</text><path d="M852.6621,727.8258 L864.6621,727.8258 C882.6621,727.8258 882.6621,727.8258 900.6621,727.8258 L912.6621,727.8258 " fill="none" style="stroke:#181818;stroke-width:1.2;"/><path d="M595.0676,833.3438 L607.0676,833.3438 C625.0676,833.3438 625.0676,727.8258 643.0676,727.8258 L655.0676,727.8258 " fill="none" style="stroke:#181818;stroke-width:1.2;"/><rect fill="#F1F1F1" height="46.3453" rx="15" ry="15" style="stroke:#181818;stroke-width:1.7999999999999998;" width="197.5945" x="655.0676" y="774.9984"/><text fill="#000000" font-family="sans-serif" font-size="16.8" lengthAdjust="spacing" textLength="173.5945" x="667.0676" y="805.1273">&#36131;&#20219;&#33021;&#21147;&#65288;&#36523;&#20307;-&#33021;&#21147;&#65289;</text><text fill="#000000" font-family="sans-serif" font-size="16.8" lengthAdjust="spacing" textLength="100.8" x="916.2621" y="805.1273">&#29399;&#34507;&#19981;&#20250;&#28216;&#27891;</text><path d="M852.6621,798.1711 L864.6621,798.1711 C882.6621,798.1711 882.6621,798.1711 900.6621,798.1711 L912.6621,798.1711 " fill="none" style="stroke:#181818;stroke-width:1.2;"/><path d="M595.0676,833.3438 L607.0676,833.3438 C625.0676,833.3438 625.0676,798.1711 643.0676,798.1711 L655.0676,798.1711 " fill="none" style="stroke:#181818;stroke-width:1.2;"/><rect fill="#F1F1F1" height="46.3453" rx="15" ry="15" style="stroke:#181818;stroke-width:1.7999999999999998;" width="264.7945" x="655.0676" y="845.3438"/><text fill="#000000" font-family="sans-serif" font-size="16.8" lengthAdjust="spacing" textLength="240.7945" x="667.0676" y="875.4727">&#36829;&#27861;&#24615;&#35748;&#35782;&#21487;&#33021;&#34892;&#65288;&#24847;&#35782;-&#35748;&#30693;&#65289;</text><text fill="#000000" font-family="sans-serif" font-size="16.8" lengthAdjust="spacing" textLength="201.6" x="983.4621" y="875.4727">&#35810;&#38382;&#27861;&#38498;&#65292;&#27861;&#38498;&#21578;&#35785;&#19981;&#36829;&#27861;</text><path d="M919.8621,868.5164 L931.8621,868.5164 C949.8621,868.5164 949.8621,868.5164 967.8621,868.5164 L979.8621,868.5164 " fill="none" style="stroke:#181818;stroke-width:1.2;"/><path d="M595.0676,833.3438 L607.0676,833.3438 C625.0676,833.3438 625.0676,868.5164 643.0676,868.5164 L655.0676,868.5164 " fill="none" style="stroke:#181818;stroke-width:1.2;"/><rect fill="#F1F1F1" height="46.3453" rx="15" ry="15" style="stroke:#181818;stroke-width:1.7999999999999998;" width="214.3945" x="655.0676" y="915.6891"/><text fill="#000000" font-family="sans-serif" font-size="16.8" lengthAdjust="spacing" textLength="190.3945" x="667.0676" y="945.818">&#26399;&#24453;&#21487;&#33021;&#24615;&#65288;&#29983;&#23384;-&#29983;&#27515;&#65289;</text><text fill="#000000" font-family="sans-serif" font-size="16.8" lengthAdjust="spacing" textLength="201.6" x="933.0621" y="945.818">&#19976;&#22827;&#22833;&#36394;&#65292;&#26080;&#27861;&#29983;&#23384;&#65292;&#20877;&#23130;</text><path d="M869.4621,938.8617 L881.4621,938.8617 C899.4621,938.8617 899.4621,938.8617 917.4621,938.8617 L929.4621,938.8617 " fill="none" style="stroke:#181818;stroke-width:1.2;"/><path d="M595.0676,833.3438 L607.0676,833.3438 C625.0676,833.3438 625.0676,938.8617 643.0676,938.8617 L655.0676,938.8617 " fill="none" style="stroke:#181818;stroke-width:1.2;"/><path d="M376.6676,762.9984 L388.6676,762.9984 C406.6676,762.9984 406.6676,833.3438 424.6676,833.3438 L436.6676,833.3438 " fill="none" style="stroke:#181818;stroke-width:1.2;"/><path d="M187.2,516.7898 L199.2,516.7898 C217.2,516.7898 217.2,762.9984 235.2,762.9984 L247.2,762.9984 " fill="none" style="stroke:#181818;stroke-width:1.2;"/><!--SRC=[xLJRJXfH57sVhpXDNxG9ACPKQumnOarg9MtgvTMCCgMJ3ZDcc34nZGbOBo0IRCHulzyY12X2B6LGVcREcU79N-YU6T28u5CVvONPPwszzZvdxwnUdqIBafVbtLvwYg9UiVma9xiPPBUt-AGPZcan81jWDZEqixANeoY9bJW6gVdJykOrpinfosdj9axsvqbmLRrPqx8AHRrv5aRmUuDmwbY_cDDBUoIxRb5HTxT7P1Y-fyUaFAAT1rJb-guOjFXg8OnJ-tV5q3tH8kj7Asg-eEOLg5G3uKW6fx8MeIwaAMjaVxSMsZc4GxoGhVPThtS5HtBGaHRBr6IJv0c-MIjlNk58uX5amkE8X4iuw2TxVhLGk2kkwCS978r0M2EZvIw8_wmSA9MtBkl9Q7j-BP000HAAwP4GFboiVHOGJcMX20cLz7H1IuRgTXEw1Gh-jQmlnV6VZ9wBaynHPLZmfCQ5SoUgejmFIn1ftiCycbQ5Tp-jdpTuzLp_dOFCfzEghCRw0fcF0jaQgfuwrTEBvTYMdautIj5BI_Wq0obauz0A8TUi67hQIwNdXaEo2FXlhdmxRxHSIC3osAfntPVImXlwJjZHYgy2TSMCQo_lF8XLusV4r7n4BMwJV9vaixMQvfeH_uNrD3YQ1ZrOPEF-yr4uiG6W7PmrqDVJn-MDbB6eMyV6ZfWVnfJJ8IXgYTVkxUu1lbsm2a5TAAJ53d1oqmP_9AaqAAJcW_Wq0OFHyt6ZqCOXA5k94EB52BxSfgXU1jocwZYzZmsesxIP7gfoqC_I7f7seXzGpMuwW_c9K1yz-TqZ2ZBlTWgS82AEzNoJJ0B0imRRMiq6T0kiKaN1ruZuUc2Why_fh39d15aSDriSvsalyrmp4vni5PYbkbigjtenpXVZV37E5-Fy7yRvcQDvQTGrXAOPqSSAF7BOsrhRskqTJSEqX8QPATJQWHplkXoTNOuEv1mUGGRSJ3MvFemW7_ZO98FSh4yIsGbPWlncQf2Ufj4NcPTOBzE5Faqn_63_n-e1UizFiwB0UnbUeWR7N0-4j-ssFjQeA48dQCn5zJDVQPcJ86DISBEyfmkDZWpOEgaXM7cPze0skBGJx58IPm0R_WS0]--></g></svg>