<?xml version="1.0" encoding="us-ascii" standalone="no"?><svg xmlns="http://www.w3.org/2000/svg" xmlns:xlink="http://www.w3.org/1999/xlink" contentStyleType="text/css" height="928px" preserveAspectRatio="none" style="width:1553px;height:928px;background:#FFFFFF;" version="1.1" viewBox="0 0 1553 928" width="1553px" zoomAndPan="magnify"><defs/><g><!--cluster netty--><g id="cluster_netty"><path d="M8.5,6.0137 L61.5,6.0137 A3.75,3.75 0 0 1 64,8.5137 L71,30.6348 L1543.5,30.6348 A2.5,2.5 0 0 1 1546,33.1348 L1546,918.5137 A2.5,2.5 0 0 1 1543.5,921.0137 L8.5,921.0137 A2.5,2.5 0 0 1 6,918.5137 L6,8.5137 A2.5,2.5 0 0 1 8.5,6.0137 " fill="none" style="stroke:#000000;stroke-width:1.5;"/><line style="stroke:#000000;stroke-width:1.5;" x1="6" x2="71" y1="30.6348" y2="30.6348"/><text fill="#000000" font-family="sans-serif" font-size="14" font-weight="bold" lengthAdjust="spacing" textLength="52" x="10" y="23.1211">io.netty</text></g><!--cluster handler--><g id="cluster_handler"><path d="M144.5,743.0137 L199.5,743.0137 A3.75,3.75 0 0 1 202,745.5137 L209,767.6348 L1519.5,767.6348 A2.5,2.5 0 0 1 1522,770.1348 L1522,894.5137 A2.5,2.5 0 0 1 1519.5,897.0137 L144.5,897.0137 A2.5,2.5 0 0 1 142,894.5137 L142,745.5137 A2.5,2.5 0 0 1 144.5,743.0137 " fill="none" style="stroke:#000000;stroke-width:1.5;"/><line style="stroke:#000000;stroke-width:1.5;" x1="142" x2="209" y1="767.6348" y2="767.6348"/><text fill="#000000" font-family="sans-serif" font-size="14" font-weight="bold" lengthAdjust="spacing" textLength="54" x="146" y="760.1211">handler</text></g><!--cluster codec--><g id="cluster_codec"><path d="M548.5,788.0137 L592.5,788.0137 A3.75,3.75 0 0 1 595,790.5137 L602,812.6348 L1495.5,812.6348 A2.5,2.5 0 0 1 1498,815.1348 L1498,870.5137 A2.5,2.5 0 0 1 1495.5,873.0137 L548.5,873.0137 A2.5,2.5 0 0 1 546,870.5137 L546,790.5137 A2.5,2.5 0 0 1 548.5,788.0137 " fill="none" style="stroke:#000000;stroke-width:1.5;"/><line style="stroke:#000000;stroke-width:1.5;" x1="546" x2="602" y1="812.6348" y2="812.6348"/><text fill="#000000" font-family="sans-serif" font-size="14" font-weight="bold" lengthAdjust="spacing" textLength="43" x="550" y="805.1211">codec</text></g><!--cluster timeout--><g id="cluster_timeout"><path d="M356.5,788.0137 L410.5,788.0137 A3.75,3.75 0 0 1 413,790.5137 L420,812.6348 L519.5,812.6348 A2.5,2.5 0 0 1 522,815.1348 L522,870.5137 A2.5,2.5 0 0 1 519.5,873.0137 L356.5,873.0137 A2.5,2.5 0 0 1 354,870.5137 L354,790.5137 A2.5,2.5 0 0 1 356.5,788.0137 " fill="none" style="stroke:#000000;stroke-width:1.5;"/><line style="stroke:#000000;stroke-width:1.5;" x1="354" x2="420" y1="812.6348" y2="812.6348"/><text fill="#000000" font-family="sans-serif" font-size="14" font-weight="bold" lengthAdjust="spacing" textLength="53" x="358" y="805.1211">timeout</text></g><!--cluster logging--><g id="cluster_logging"><path d="M168.5,788.0137 L222.5,788.0137 A3.75,3.75 0 0 1 225,790.5137 L232,812.6348 L327.5,812.6348 A2.5,2.5 0 0 1 330,815.1348 L330,870.5137 A2.5,2.5 0 0 1 327.5,873.0137 L168.5,873.0137 A2.5,2.5 0 0 1 166,870.5137 L166,790.5137 A2.5,2.5 0 0 1 168.5,788.0137 " fill="none" style="stroke:#000000;stroke-width:1.5;"/><line style="stroke:#000000;stroke-width:1.5;" x1="166" x2="232" y1="812.6348" y2="812.6348"/><text fill="#000000" font-family="sans-serif" font-size="14" font-weight="bold" lengthAdjust="spacing" textLength="53" x="170" y="805.1211">logging</text></g><!--cluster channel--><g id="cluster_channel"><path d="M32.5,51.0137 L89.5,51.0137 A3.75,3.75 0 0 1 92,53.5137 L99,75.6348 L1519.5,75.6348 A2.5,2.5 0 0 1 1522,78.1348 L1522,716.5137 A2.5,2.5 0 0 1 1519.5,719.0137 L32.5,719.0137 A2.5,2.5 0 0 1 30,716.5137 L30,53.5137 A2.5,2.5 0 0 1 32.5,51.0137 " fill="none" style="stroke:#000000;stroke-width:1.5;"/><line style="stroke:#000000;stroke-width:1.5;" x1="30" x2="99" y1="75.6348" y2="75.6348"/><text fill="#000000" font-family="sans-serif" font-size="14" font-weight="bold" lengthAdjust="spacing" textLength="56" x="34" y="68.1211">channel</text></g><!--class ByteToMessageDecoder--><g id="elem_ByteToMessageDecoder"><rect codeLine="1" fill="#F1F1F1" height="32" id="ByteToMessageDecoder" rx="2.5" ry="2.5" style="stroke:#181818;stroke-width:0.5;" width="189" x="562.5" y="825.0137"/><ellipse cx="577.5" cy="841.0137" fill="#A9DCDF" rx="11" ry="11" style="stroke:#181818;stroke-width:1.0;"/><path d="M577.9219,841.498 L575.3594,841.498 L574.8281,843.7949 Q574.7656,844.123 574.7656,844.2793 Q574.7656,844.498 574.8125,844.6543 Q574.875,844.8105 575.1563,844.8105 L575.625,844.8105 L575.625,845.748 L572.6406,845.748 L572.6406,844.8105 L573.0938,844.8105 Q573.2656,844.8105 573.3906,844.7168 Q573.5156,844.6074 573.5625,844.3105 L576.2031,833.9824 L577.6094,833.5137 L580.1875,844.2793 Q580.2969,844.5918 580.4219,844.7012 Q580.5625,844.8105 580.7344,844.8105 L581.2031,844.8105 L581.2031,845.748 L577.8125,845.748 L577.8125,844.8105 L578.3438,844.8105 Q578.5625,844.8105 578.5781,844.7637 Q578.6094,844.7012 578.6094,844.623 Q578.6094,844.4043 578.5625,844.2168 L577.9219,841.498 Z M573.3594,845.3418 L573.3594,845.3418 Z M574.0313,845.3418 L574.0313,845.3418 Z M578.75,845.3418 L578.75,845.3418 Z M579.875,845.3418 L579.875,845.3418 Z M576.6875,835.4043 L576.75,835.4043 L575.6406,840.5605 L577.7344,840.5605 L576.6875,835.4043 Z " fill="#000000"/><text fill="#000000" font-family="sans-serif" font-size="14" font-style="italic" lengthAdjust="spacing" textLength="157" x="591.5" y="846.8105">ByteToMessageDecoder</text></g><!--class MessageToByteEncoder--><g id="elem_MessageToByteEncoder"><rect codeLine="1" fill="#F1F1F1" height="32" id="MessageToByteEncoder" rx="2.5" ry="2.5" style="stroke:#181818;stroke-width:0.5;" width="188" x="1041" y="825.0137"/><ellipse cx="1056" cy="841.0137" fill="#A9DCDF" rx="11" ry="11" style="stroke:#181818;stroke-width:1.0;"/><path d="M1056.4219,841.498 L1053.8594,841.498 L1053.3281,843.7949 Q1053.2656,844.123 1053.2656,844.2793 Q1053.2656,844.498 1053.3125,844.6543 Q1053.375,844.8105 1053.6563,844.8105 L1054.125,844.8105 L1054.125,845.748 L1051.1406,845.748 L1051.1406,844.8105 L1051.5938,844.8105 Q1051.7656,844.8105 1051.8906,844.7168 Q1052.0156,844.6074 1052.0625,844.3105 L1054.7031,833.9824 L1056.1094,833.5137 L1058.6875,844.2793 Q1058.7969,844.5918 1058.9219,844.7012 Q1059.0625,844.8105 1059.2344,844.8105 L1059.7031,844.8105 L1059.7031,845.748 L1056.3125,845.748 L1056.3125,844.8105 L1056.8438,844.8105 Q1057.0625,844.8105 1057.0781,844.7637 Q1057.1094,844.7012 1057.1094,844.623 Q1057.1094,844.4043 1057.0625,844.2168 L1056.4219,841.498 Z M1051.8594,845.3418 L1051.8594,845.3418 Z M1052.5313,845.3418 L1052.5313,845.3418 Z M1057.25,845.3418 L1057.25,845.3418 Z M1058.375,845.3418 L1058.375,845.3418 Z M1055.1875,835.4043 L1055.25,835.4043 L1054.1406,840.5605 L1056.2344,840.5605 L1055.1875,835.4043 Z " fill="#000000"/><text fill="#000000" font-family="sans-serif" font-size="14" font-style="italic" lengthAdjust="spacing" textLength="156" x="1070" y="846.8105">MessageToByteEncoder</text></g><!--class MessageToMessageDecoder--><g id="elem_MessageToMessageDecoder"><rect codeLine="1" fill="#F1F1F1" height="32" id="MessageToMessageDecoder" rx="2.5" ry="2.5" style="stroke:#181818;stroke-width:0.5;" width="219" x="786.5" y="825.0137"/><ellipse cx="801.5" cy="841.0137" fill="#A9DCDF" rx="11" ry="11" style="stroke:#181818;stroke-width:1.0;"/><path d="M801.9219,841.498 L799.3594,841.498 L798.8281,843.7949 Q798.7656,844.123 798.7656,844.2793 Q798.7656,844.498 798.8125,844.6543 Q798.875,844.8105 799.1563,844.8105 L799.625,844.8105 L799.625,845.748 L796.6406,845.748 L796.6406,844.8105 L797.0938,844.8105 Q797.2656,844.8105 797.3906,844.7168 Q797.5156,844.6074 797.5625,844.3105 L800.2031,833.9824 L801.6094,833.5137 L804.1875,844.2793 Q804.2969,844.5918 804.4219,844.7012 Q804.5625,844.8105 804.7344,844.8105 L805.2031,844.8105 L805.2031,845.748 L801.8125,845.748 L801.8125,844.8105 L802.3438,844.8105 Q802.5625,844.8105 802.5781,844.7637 Q802.6094,844.7012 802.6094,844.623 Q802.6094,844.4043 802.5625,844.2168 L801.9219,841.498 Z M797.3594,845.3418 L797.3594,845.3418 Z M798.0313,845.3418 L798.0313,845.3418 Z M802.75,845.3418 L802.75,845.3418 Z M803.875,845.3418 L803.875,845.3418 Z M800.6875,835.4043 L800.75,835.4043 L799.6406,840.5605 L801.7344,840.5605 L800.6875,835.4043 Z " fill="#000000"/><text fill="#000000" font-family="sans-serif" font-size="14" font-style="italic" lengthAdjust="spacing" textLength="187" x="815.5" y="846.8105">MessageToMessageDecoder</text></g><!--class MessageToMessageEncoder--><g id="elem_MessageToMessageEncoder"><rect codeLine="1" fill="#F1F1F1" height="32" id="MessageToMessageEncoder" rx="2.5" ry="2.5" style="stroke:#181818;stroke-width:0.5;" width="218" x="1264" y="825.0137"/><ellipse cx="1279" cy="841.0137" fill="#A9DCDF" rx="11" ry="11" style="stroke:#181818;stroke-width:1.0;"/><path d="M1279.4219,841.498 L1276.8594,841.498 L1276.3281,843.7949 Q1276.2656,844.123 1276.2656,844.2793 Q1276.2656,844.498 1276.3125,844.6543 Q1276.375,844.8105 1276.6563,844.8105 L1277.125,844.8105 L1277.125,845.748 L1274.1406,845.748 L1274.1406,844.8105 L1274.5938,844.8105 Q1274.7656,844.8105 1274.8906,844.7168 Q1275.0156,844.6074 1275.0625,844.3105 L1277.7031,833.9824 L1279.1094,833.5137 L1281.6875,844.2793 Q1281.7969,844.5918 1281.9219,844.7012 Q1282.0625,844.8105 1282.2344,844.8105 L1282.7031,844.8105 L1282.7031,845.748 L1279.3125,845.748 L1279.3125,844.8105 L1279.8438,844.8105 Q1280.0625,844.8105 1280.0781,844.7637 Q1280.1094,844.7012 1280.1094,844.623 Q1280.1094,844.4043 1280.0625,844.2168 L1279.4219,841.498 Z M1274.8594,845.3418 L1274.8594,845.3418 Z M1275.5313,845.3418 L1275.5313,845.3418 Z M1280.25,845.3418 L1280.25,845.3418 Z M1281.375,845.3418 L1281.375,845.3418 Z M1278.1875,835.4043 L1278.25,835.4043 L1277.1406,840.5605 L1279.2344,840.5605 L1278.1875,835.4043 Z " fill="#000000"/><text fill="#000000" font-family="sans-serif" font-size="14" font-style="italic" lengthAdjust="spacing" textLength="186" x="1293" y="846.8105">MessageToMessageEncoder</text></g><!--class IdleStateHandler--><g id="elem_IdleStateHandler"><rect codeLine="1" fill="#F1F1F1" height="32" id="IdleStateHandler" rx="2.5" ry="2.5" style="stroke:#181818;stroke-width:0.5;" width="136" x="370" y="825.0137"/><ellipse cx="385" cy="841.0137" fill="#ADD1B2" rx="11" ry="11" style="stroke:#181818;stroke-width:1.0;"/><path d="M384.3438,846.873 Q382.3594,846.873 381.1875,845.4043 Q380.0313,843.9199 380.0313,840.8418 Q380.0313,838.2324 381.25,836.4824 Q382.4844,834.7324 384.6094,834.7324 Q385.1094,834.7324 385.6406,834.873 Q386.0781,835.0605 386.3438,835.0605 Q386.5625,835.0605 386.6563,835.0137 Q386.7656,834.9668 387.2188,834.373 L387.9844,838.1074 L387.0938,838.373 Q386.6406,836.9199 386.0313,836.3262 Q385.4375,835.7168 384.4844,835.7168 Q383.2656,835.7168 382.5469,837.1543 Q381.8281,838.5762 381.8281,840.7637 Q381.8281,843.1699 382.4375,844.4668 Q383.0625,845.748 384.4219,845.748 Q385.375,845.748 386.0625,845.0605 Q386.75,844.3574 387.0781,842.8574 L387.9844,843.2637 Q387.5781,844.9668 386.6094,845.9199 Q385.6563,846.873 384.3438,846.873 Z " fill="#000000"/><text fill="#000000" font-family="sans-serif" font-size="14" lengthAdjust="spacing" textLength="104" x="399" y="846.8105">IdleStateHandler</text></g><!--class LoggingHandler--><g id="elem_LoggingHandler"><rect codeLine="1" fill="#F1F1F1" height="32" id="LoggingHandler" rx="2.5" ry="2.5" style="stroke:#181818;stroke-width:0.5;" width="132" x="182" y="825.0137"/><ellipse cx="197" cy="841.0137" fill="#ADD1B2" rx="11" ry="11" style="stroke:#181818;stroke-width:1.0;"/><path d="M196.3438,846.873 Q194.3594,846.873 193.1875,845.4043 Q192.0313,843.9199 192.0313,840.8418 Q192.0313,838.2324 193.25,836.4824 Q194.4844,834.7324 196.6094,834.7324 Q197.1094,834.7324 197.6406,834.873 Q198.0781,835.0605 198.3438,835.0605 Q198.5625,835.0605 198.6563,835.0137 Q198.7656,834.9668 199.2188,834.373 L199.9844,838.1074 L199.0938,838.373 Q198.6406,836.9199 198.0313,836.3262 Q197.4375,835.7168 196.4844,835.7168 Q195.2656,835.7168 194.5469,837.1543 Q193.8281,838.5762 193.8281,840.7637 Q193.8281,843.1699 194.4375,844.4668 Q195.0625,845.748 196.4219,845.748 Q197.375,845.748 198.0625,845.0605 Q198.75,844.3574 199.0781,842.8574 L199.9844,843.2637 Q199.5781,844.9668 198.6094,845.9199 Q197.6563,846.873 196.3438,846.873 Z " fill="#000000"/><text fill="#000000" font-family="sans-serif" font-size="14" lengthAdjust="spacing" textLength="100" x="211" y="846.8105">LoggingHandler</text></g><!--class ChannelDuplexHandler--><g id="elem_ChannelDuplexHandler"><rect codeLine="1" fill="#F1F1F1" height="32" id="ChannelDuplexHandler" rx="2.5" ry="2.5" style="stroke:#181818;stroke-width:0.5;" width="177" x="159.5" y="657.5137"/><ellipse cx="174.5" cy="673.5137" fill="#ADD1B2" rx="11" ry="11" style="stroke:#181818;stroke-width:1.0;"/><path d="M173.8438,679.373 Q171.8594,679.373 170.6875,677.9043 Q169.5313,676.4199 169.5313,673.3418 Q169.5313,670.7324 170.75,668.9824 Q171.9844,667.2324 174.1094,667.2324 Q174.6094,667.2324 175.1406,667.373 Q175.5781,667.5605 175.8438,667.5605 Q176.0625,667.5605 176.1563,667.5137 Q176.2656,667.4668 176.7188,666.873 L177.4844,670.6074 L176.5938,670.873 Q176.1406,669.4199 175.5313,668.8262 Q174.9375,668.2168 173.9844,668.2168 Q172.7656,668.2168 172.0469,669.6543 Q171.3281,671.0762 171.3281,673.2637 Q171.3281,675.6699 171.9375,676.9668 Q172.5625,678.248 173.9219,678.248 Q174.875,678.248 175.5625,677.5605 Q176.25,676.8574 176.5781,675.3574 L177.4844,675.7637 Q177.0781,677.4668 176.1094,678.4199 Q175.1563,679.373 173.8438,679.373 Z " fill="#000000"/><text fill="#000000" font-family="sans-serif" font-size="14" lengthAdjust="spacing" textLength="145" x="188.5" y="679.3105">ChannelDuplexHandler</text></g><!--class ChannelHandler--><g id="elem_ChannelHandler"><rect codeLine="1" fill="#F1F1F1" height="95.8633" id="ChannelHandler" rx="2.5" ry="2.5" style="stroke:#181818;stroke-width:0.5;" width="400" x="576" y="88.0137"/><ellipse cx="720.25" cy="104.0137" fill="#B4A7E5" rx="11" ry="11" style="stroke:#181818;stroke-width:1.0;"/><path d="M716.8438,98.7949 L716.8438,97.8574 L722.6875,97.8574 L722.6875,98.7949 L720.8906,98.7949 Q720.7188,98.7949 720.6406,98.8574 Q720.5625,98.9199 720.5625,99.0605 L720.5625,108.5449 Q720.5625,108.6855 720.6406,108.748 Q720.7188,108.8105 720.8906,108.8105 L722.6875,108.8105 L722.6875,109.748 L716.8438,109.748 L716.8438,108.8105 L718.6406,108.8105 Q718.8594,108.8105 718.9063,108.7637 Q718.9688,108.7012 718.9688,108.5449 L718.9688,99.0605 Q718.9688,98.9043 718.9063,98.8574 Q718.8594,98.7949 718.6406,98.7949 L716.8438,98.7949 Z " fill="#000000"/><text fill="#000000" font-family="sans-serif" font-size="14" font-style="italic" lengthAdjust="spacing" textLength="103" x="740.75" y="109.8105">ChannelHandler</text><line style="stroke:#181818;stroke-width:0.5;" x1="577" x2="975" y1="120.0137" y2="120.0137"/><ellipse cx="587" cy="134.8242" fill="#84BE84" rx="3" ry="3" style="stroke:#038048;stroke-width:1.0;"/><text fill="#000000" font-family="sans-serif" font-size="14" font-style="italic" lengthAdjust="spacing" textLength="283" x="596" y="139.1211">handlerAdded(ChannelHandlerContext): void</text><ellipse cx="587" cy="153.4453" fill="#84BE84" rx="3" ry="3" style="stroke:#038048;stroke-width:1.0;"/><text fill="#000000" font-family="sans-serif" font-size="14" font-style="italic" lengthAdjust="spacing" textLength="301" x="596" y="157.7422">handlerRemoved(ChannelHandlerContext): void</text><ellipse cx="587" cy="172.0664" fill="#84BE84" rx="3" ry="3" style="stroke:#038048;stroke-width:1.0;"/><text fill="#000000" font-family="sans-serif" font-size="14" font-style="italic" lengthAdjust="spacing" textLength="374" x="596" y="176.3633">exceptionCaught(ChannelHandlerContext, Throwable): void</text></g><!--class ChannelHandlerAdapter--><g id="elem_ChannelHandlerAdapter"><rect codeLine="1" fill="#F1F1F1" height="157.1055" id="ChannelHandlerAdapter" rx="2.5" ry="2.5" style="stroke:#181818;stroke-width:0.5;" width="400" x="1106" y="289.5137"/><ellipse cx="1225.25" cy="305.5137" fill="#A9DCDF" rx="11" ry="11" style="stroke:#181818;stroke-width:1.0;"/><path d="M1225.6719,305.998 L1223.1094,305.998 L1222.5781,308.2949 Q1222.5156,308.623 1222.5156,308.7793 Q1222.5156,308.998 1222.5625,309.1543 Q1222.625,309.3105 1222.9063,309.3105 L1223.375,309.3105 L1223.375,310.248 L1220.3906,310.248 L1220.3906,309.3105 L1220.8438,309.3105 Q1221.0156,309.3105 1221.1406,309.2168 Q1221.2656,309.1074 1221.3125,308.8105 L1223.9531,298.4824 L1225.3594,298.0137 L1227.9375,308.7793 Q1228.0469,309.0918 1228.1719,309.2012 Q1228.3125,309.3105 1228.4844,309.3105 L1228.9531,309.3105 L1228.9531,310.248 L1225.5625,310.248 L1225.5625,309.3105 L1226.0938,309.3105 Q1226.3125,309.3105 1226.3281,309.2637 Q1226.3594,309.2012 1226.3594,309.123 Q1226.3594,308.9043 1226.3125,308.7168 L1225.6719,305.998 Z M1221.1094,309.8418 L1221.1094,309.8418 Z M1221.7813,309.8418 L1221.7813,309.8418 Z M1226.5,309.8418 L1226.5,309.8418 Z M1227.625,309.8418 L1227.625,309.8418 Z M1224.4375,299.9043 L1224.5,299.9043 L1223.3906,305.0605 L1225.4844,305.0605 L1224.4375,299.9043 Z " fill="#000000"/><text fill="#000000" font-family="sans-serif" font-size="14" font-style="italic" lengthAdjust="spacing" textLength="153" x="1245.75" y="311.3105">ChannelHandlerAdapter</text><line style="stroke:#181818;stroke-width:0.5;" x1="1107" x2="1505" y1="321.5137" y2="321.5137"/><polygon fill="none" points="1117,332.3242,1113,338.3242,1121,338.3242" style="stroke:#1963A0;stroke-width:1.0;"/><text fill="#000000" font-family="sans-serif" font-size="14" lengthAdjust="spacing" textLength="99" x="1126" y="340.6211">added: boolean</text><line style="stroke:#181818;stroke-width:1.0;" x1="1107" x2="1505" y1="348.1348" y2="348.1348"/><ellipse cx="1117" cy="362.9453" fill="#84BE84" rx="3" ry="3" style="stroke:#038048;stroke-width:1.0;"/><text fill="#000000" font-family="sans-serif" font-size="14" lengthAdjust="spacing" textLength="283" x="1126" y="367.2422">handlerAdded(ChannelHandlerContext): void</text><ellipse cx="1117" cy="381.5664" fill="#84BE84" rx="3" ry="3" style="stroke:#038048;stroke-width:1.0;"/><text fill="#000000" font-family="sans-serif" font-size="14" lengthAdjust="spacing" textLength="302" x="1126" y="385.8633">handlerRemoved(ChannelHandlerContext): void</text><line style="stroke:#181818;stroke-width:1.0;stroke-dasharray:1.0,2.0;" x1="1107" x2="1505" y1="393.377" y2="393.377"/><ellipse cx="1117" cy="408.1875" fill="#84BE84" rx="3" ry="3" style="stroke:#038048;stroke-width:1.0;"/><text fill="#000000" font-family="sans-serif" font-size="14" lengthAdjust="spacing" textLength="374" x="1126" y="412.4844">exceptionCaught(ChannelHandlerContext, Throwable): void</text><line style="stroke:#181818;stroke-width:1.0;stroke-dasharray:1.0,2.0;" x1="1107" x2="1505" y1="419.998" y2="419.998"/><ellipse cx="1117" cy="434.8086" fill="#84BE84" rx="3" ry="3" style="stroke:#038048;stroke-width:1.0;"/><text fill="#000000" font-family="sans-serif" font-size="14" lengthAdjust="spacing" textLength="136" x="1126" y="439.1055">isSharable(): boolean</text></g><!--class ChannelInboundHandler--><g id="elem_ChannelInboundHandler"><rect codeLine="1" fill="#F1F1F1" height="247.5898" id="ChannelInboundHandler" rx="2.5" ry="2.5" style="stroke:#181818;stroke-width:0.5;" width="400" x="46" y="244.0137"/><ellipse cx="164.25" cy="260.0137" fill="#B4A7E5" rx="11" ry="11" style="stroke:#181818;stroke-width:1.0;"/><path d="M160.8438,254.7949 L160.8438,253.8574 L166.6875,253.8574 L166.6875,254.7949 L164.8906,254.7949 Q164.7188,254.7949 164.6406,254.8574 Q164.5625,254.9199 164.5625,255.0605 L164.5625,264.5449 Q164.5625,264.6855 164.6406,264.748 Q164.7188,264.8105 164.8906,264.8105 L166.6875,264.8105 L166.6875,265.748 L160.8438,265.748 L160.8438,264.8105 L162.6406,264.8105 Q162.8594,264.8105 162.9063,264.7637 Q162.9688,264.7012 162.9688,264.5449 L162.9688,255.0605 Q162.9688,254.9043 162.9063,254.8574 Q162.8594,254.7949 162.6406,254.7949 L160.8438,254.7949 Z " fill="#000000"/><text fill="#000000" font-family="sans-serif" font-size="14" font-style="italic" lengthAdjust="spacing" textLength="155" x="184.75" y="265.8105">ChannelInboundHandler</text><line style="stroke:#181818;stroke-width:0.5;" x1="47" x2="445" y1="276.0137" y2="276.0137"/><ellipse cx="57" cy="290.8242" fill="#84BE84" rx="3" ry="3" style="stroke:#038048;stroke-width:1.0;"/><text fill="#000000" font-family="sans-serif" font-size="14" font-style="italic" lengthAdjust="spacing" textLength="313" x="66" y="295.1211">channelRegistered(ChannelHandlerContext): void</text><ellipse cx="57" cy="309.4453" fill="#84BE84" rx="3" ry="3" style="stroke:#038048;stroke-width:1.0;"/><text fill="#000000" font-family="sans-serif" font-size="14" font-style="italic" lengthAdjust="spacing" textLength="326" x="66" y="313.7422">channelUnregistered(ChannelHandlerContext): void</text><line style="stroke:#181818;stroke-width:1.0;stroke-dasharray:1.0,2.0;" x1="47" x2="445" y1="321.2559" y2="321.2559"/><ellipse cx="57" cy="336.0664" fill="#84BE84" rx="3" ry="3" style="stroke:#038048;stroke-width:1.0;"/><text fill="#000000" font-family="sans-serif" font-size="14" font-style="italic" lengthAdjust="spacing" textLength="281" x="66" y="340.3633">channelActive(ChannelHandlerContext): void</text><ellipse cx="57" cy="354.6875" fill="#84BE84" rx="3" ry="3" style="stroke:#038048;stroke-width:1.0;"/><text fill="#000000" font-family="sans-serif" font-size="14" font-style="italic" lengthAdjust="spacing" textLength="292" x="66" y="358.9844">channelInactive(ChannelHandlerContext): void</text><line style="stroke:#181818;stroke-width:1.0;stroke-dasharray:1.0,2.0;" x1="47" x2="445" y1="366.498" y2="366.498"/><ellipse cx="57" cy="381.3086" fill="#84BE84" rx="3" ry="3" style="stroke:#038048;stroke-width:1.0;"/><text fill="#000000" font-family="sans-serif" font-size="14" font-style="italic" lengthAdjust="spacing" textLength="327" x="66" y="385.6055">channelRead(ChannelHandlerContext, Object): void</text><ellipse cx="57" cy="399.9297" fill="#84BE84" rx="3" ry="3" style="stroke:#038048;stroke-width:1.0;"/><text fill="#000000" font-family="sans-serif" font-size="14" font-style="italic" lengthAdjust="spacing" textLength="338" x="66" y="404.2266">channelReadComplete(ChannelHandlerContext): void</text><line style="stroke:#181818;stroke-width:1.0;stroke-dasharray:1.0,2.0;" x1="47" x2="445" y1="411.7402" y2="411.7402"/><ellipse cx="57" cy="426.5508" fill="#84BE84" rx="3" ry="3" style="stroke:#038048;stroke-width:1.0;"/><text fill="#000000" font-family="sans-serif" font-size="14" font-style="italic" lengthAdjust="spacing" textLength="368" x="66" y="430.8477">userEventTriggered(ChannelHandlerContext, Object): void</text><line style="stroke:#181818;stroke-width:1.0;stroke-dasharray:1.0,2.0;" x1="47" x2="445" y1="438.3613" y2="438.3613"/><ellipse cx="57" cy="453.1719" fill="#84BE84" rx="3" ry="3" style="stroke:#038048;stroke-width:1.0;"/><text fill="#000000" font-family="sans-serif" font-size="14" font-style="italic" lengthAdjust="spacing" textLength="364" x="66" y="457.4688">channelWritabilityChanged(ChannelHandlerContext): void</text><line style="stroke:#181818;stroke-width:1.0;stroke-dasharray:1.0,2.0;" x1="47" x2="445" y1="464.9824" y2="464.9824"/><ellipse cx="57" cy="479.793" fill="#84BE84" rx="3" ry="3" style="stroke:#038048;stroke-width:1.0;"/><text fill="#000000" font-family="sans-serif" font-size="14" font-style="italic" lengthAdjust="spacing" textLength="374" x="66" y="484.0898">exceptionCaught(ChannelHandlerContext, Throwable): void</text></g><!--class ChannelInboundHandlerAdapter--><g id="elem_ChannelInboundHandlerAdapter"><rect codeLine="1" fill="#F1F1F1" height="32" id="ChannelInboundHandlerAdapter" rx="2.5" ry="2.5" style="stroke:#181818;stroke-width:0.5;" width="235" x="746.5" y="552.0137"/><ellipse cx="761.5" cy="568.0137" fill="#ADD1B2" rx="11" ry="11" style="stroke:#181818;stroke-width:1.0;"/><path d="M760.8438,573.873 Q758.8594,573.873 757.6875,572.4043 Q756.5313,570.9199 756.5313,567.8418 Q756.5313,565.2324 757.75,563.4824 Q758.9844,561.7324 761.1094,561.7324 Q761.6094,561.7324 762.1406,561.873 Q762.5781,562.0605 762.8438,562.0605 Q763.0625,562.0605 763.1563,562.0137 Q763.2656,561.9668 763.7188,561.373 L764.4844,565.1074 L763.5938,565.373 Q763.1406,563.9199 762.5313,563.3262 Q761.9375,562.7168 760.9844,562.7168 Q759.7656,562.7168 759.0469,564.1543 Q758.3281,565.5762 758.3281,567.7637 Q758.3281,570.1699 758.9375,571.4668 Q759.5625,572.748 760.9219,572.748 Q761.875,572.748 762.5625,572.0605 Q763.25,571.3574 763.5781,569.8574 L764.4844,570.2637 Q764.0781,571.9668 763.1094,572.9199 Q762.1563,573.873 760.8438,573.873 Z " fill="#000000"/><text fill="#000000" font-family="sans-serif" font-size="14" lengthAdjust="spacing" textLength="203" x="775.5" y="573.8105">ChannelInboundHandlerAdapter</text></g><!--class ChannelInitializer--><g id="elem_ChannelInitializer"><rect codeLine="1" fill="#F1F1F1" height="58.6211" id="ChannelInitializer" rx="2.5" ry="2.5" style="stroke:#181818;stroke-width:0.5;" width="193" x="767.5" y="644.0137"/><ellipse cx="805.9" cy="660.0137" fill="#A9DCDF" rx="11" ry="11" style="stroke:#181818;stroke-width:1.0;"/><path d="M806.3219,660.498 L803.7594,660.498 L803.2281,662.7949 Q803.1656,663.123 803.1656,663.2793 Q803.1656,663.498 803.2125,663.6543 Q803.275,663.8105 803.5563,663.8105 L804.025,663.8105 L804.025,664.748 L801.0406,664.748 L801.0406,663.8105 L801.4938,663.8105 Q801.6656,663.8105 801.7906,663.7168 Q801.9156,663.6074 801.9625,663.3105 L804.6031,652.9824 L806.0094,652.5137 L808.5875,663.2793 Q808.6969,663.5918 808.8219,663.7012 Q808.9625,663.8105 809.1344,663.8105 L809.6031,663.8105 L809.6031,664.748 L806.2125,664.748 L806.2125,663.8105 L806.7438,663.8105 Q806.9625,663.8105 806.9781,663.7637 Q807.0094,663.7012 807.0094,663.623 Q807.0094,663.4043 806.9625,663.2168 L806.3219,660.498 Z M801.7594,664.3418 L801.7594,664.3418 Z M802.4313,664.3418 L802.4313,664.3418 Z M807.15,664.3418 L807.15,664.3418 Z M808.275,664.3418 L808.275,664.3418 Z M805.0875,654.4043 L805.15,654.4043 L804.0406,659.5605 L806.1344,659.5605 L805.0875,654.4043 Z " fill="#000000"/><text fill="#000000" font-family="sans-serif" font-size="14" font-style="italic" lengthAdjust="spacing" textLength="109" x="825.1" y="665.8105">ChannelInitializer</text><line style="stroke:#181818;stroke-width:0.5;" x1="768.5" x2="959.5" y1="676.0137" y2="676.0137"/><polygon fill="#FFFF44" points="778.5,685.8242,782.5,689.8242,778.5,693.8242,774.5,689.8242" style="stroke:#B38D22;stroke-width:1.0;"/><text fill="#000000" font-family="sans-serif" font-size="14" font-style="italic" lengthAdjust="spacing" textLength="167" x="787.5" y="695.1211">initChannel(Channel): void</text></g><!--class ChannelOutboundHandler--><g id="elem_ChannelOutboundHandler"><rect codeLine="1" fill="#F1F1F1" height="196.9688" id="ChannelOutboundHandler" rx="2.5" ry="2.5" style="stroke:#181818;stroke-width:0.5;" width="590" x="481" y="269.5137"/><ellipse cx="688.75" cy="285.5137" fill="#B4A7E5" rx="11" ry="11" style="stroke:#181818;stroke-width:1.0;"/><path d="M685.3438,280.2949 L685.3438,279.3574 L691.1875,279.3574 L691.1875,280.2949 L689.3906,280.2949 Q689.2188,280.2949 689.1406,280.3574 Q689.0625,280.4199 689.0625,280.5605 L689.0625,290.0449 Q689.0625,290.1855 689.1406,290.248 Q689.2188,290.3105 689.3906,290.3105 L691.1875,290.3105 L691.1875,291.248 L685.3438,291.248 L685.3438,290.3105 L687.1406,290.3105 Q687.3594,290.3105 687.4063,290.2637 Q687.4688,290.2012 687.4688,290.0449 L687.4688,280.5605 Q687.4688,280.4043 687.4063,280.3574 Q687.3594,280.2949 687.1406,280.2949 L685.3438,280.2949 Z " fill="#000000"/><text fill="#000000" font-family="sans-serif" font-size="14" font-style="italic" lengthAdjust="spacing" textLength="166" x="709.25" y="291.3105">ChannelOutboundHandler</text><line style="stroke:#181818;stroke-width:0.5;" x1="482" x2="1070" y1="301.5137" y2="301.5137"/><ellipse cx="492" cy="316.3242" fill="#84BE84" rx="3" ry="3" style="stroke:#038048;stroke-width:1.0;"/><text fill="#000000" font-family="sans-serif" font-size="14" font-style="italic" lengthAdjust="spacing" textLength="437" x="501" y="320.6211">bind(ChannelHandlerContext, SocketAddress, ChannelPromise): void</text><ellipse cx="492" cy="334.9453" fill="#84BE84" rx="3" ry="3" style="stroke:#038048;stroke-width:1.0;"/><text fill="#000000" font-family="sans-serif" font-size="14" font-style="italic" lengthAdjust="spacing" textLength="564" x="501" y="339.2422">connect(ChannelHandlerContext, SocketAddress, SocketAddress, ChannelPromise): void</text><ellipse cx="492" cy="353.5664" fill="#84BE84" rx="3" ry="3" style="stroke:#038048;stroke-width:1.0;"/><text fill="#000000" font-family="sans-serif" font-size="14" font-style="italic" lengthAdjust="spacing" textLength="374" x="501" y="357.8633">disconnect(ChannelHandlerContext, ChannelPromise): void</text><ellipse cx="492" cy="372.1875" fill="#84BE84" rx="3" ry="3" style="stroke:#038048;stroke-width:1.0;"/><text fill="#000000" font-family="sans-serif" font-size="14" font-style="italic" lengthAdjust="spacing" textLength="339" x="501" y="376.4844">close(ChannelHandlerContext, ChannelPromise): void</text><ellipse cx="492" cy="390.8086" fill="#84BE84" rx="3" ry="3" style="stroke:#038048;stroke-width:1.0;"/><text fill="#000000" font-family="sans-serif" font-size="14" font-style="italic" lengthAdjust="spacing" textLength="370" x="501" y="395.1055">deregister(ChannelHandlerContext, ChannelPromise): void</text><line style="stroke:#181818;stroke-width:1.0;stroke-dasharray:1.0,2.0;" x1="482" x2="1070" y1="402.6191" y2="402.6191"/><ellipse cx="492" cy="417.4297" fill="#84BE84" rx="3" ry="3" style="stroke:#038048;stroke-width:1.0;"/><text fill="#000000" font-family="sans-serif" font-size="14" font-style="italic" lengthAdjust="spacing" textLength="223" x="501" y="421.7266">read(ChannelHandlerContext): void</text><ellipse cx="492" cy="436.0508" fill="#84BE84" rx="3" ry="3" style="stroke:#038048;stroke-width:1.0;"/><text fill="#000000" font-family="sans-serif" font-size="14" font-style="italic" lengthAdjust="spacing" textLength="384" x="501" y="440.3477">write(ChannelHandlerContext, Object, ChannelPromise): void</text><ellipse cx="492" cy="454.6719" fill="#84BE84" rx="3" ry="3" style="stroke:#038048;stroke-width:1.0;"/><text fill="#000000" font-family="sans-serif" font-size="14" font-style="italic" lengthAdjust="spacing" textLength="224" x="501" y="458.9688">flush(ChannelHandlerContext): void</text></g><!--class ChannelOutboundHandlerAdapter--><g id="elem_ChannelOutboundHandlerAdapter"><rect codeLine="1" fill="#F1F1F1" height="32" id="ChannelOutboundHandlerAdapter" rx="2.5" ry="2.5" style="stroke:#181818;stroke-width:0.5;" width="247" x="1032.5" y="552.0137"/><ellipse cx="1047.5" cy="568.0137" fill="#ADD1B2" rx="11" ry="11" style="stroke:#181818;stroke-width:1.0;"/><path d="M1046.8438,573.873 Q1044.8594,573.873 1043.6875,572.4043 Q1042.5313,570.9199 1042.5313,567.8418 Q1042.5313,565.2324 1043.75,563.4824 Q1044.9844,561.7324 1047.1094,561.7324 Q1047.6094,561.7324 1048.1406,561.873 Q1048.5781,562.0605 1048.8438,562.0605 Q1049.0625,562.0605 1049.1563,562.0137 Q1049.2656,561.9668 1049.7188,561.373 L1050.4844,565.1074 L1049.5938,565.373 Q1049.1406,563.9199 1048.5313,563.3262 Q1047.9375,562.7168 1046.9844,562.7168 Q1045.7656,562.7168 1045.0469,564.1543 Q1044.3281,565.5762 1044.3281,567.7637 Q1044.3281,570.1699 1044.9375,571.4668 Q1045.5625,572.748 1046.9219,572.748 Q1047.875,572.748 1048.5625,572.0605 Q1049.25,571.3574 1049.5781,569.8574 L1050.4844,570.2637 Q1050.0781,571.9668 1049.1094,572.9199 Q1048.1563,573.873 1046.8438,573.873 Z " fill="#000000"/><text fill="#000000" font-family="sans-serif" font-size="14" lengthAdjust="spacing" textLength="215" x="1061.5" y="573.8105">ChannelOutboundHandlerAdapter</text></g><!--class SimpleChannelInboundHandler--><g id="elem_SimpleChannelInboundHandler"><rect codeLine="1" fill="#F1F1F1" height="58.6211" id="SimpleChannelInboundHandler" rx="2.5" ry="2.5" style="stroke:#181818;stroke-width:0.5;" width="361" x="371.5" y="644.0137"/><ellipse cx="449.25" cy="660.0137" fill="#A9DCDF" rx="11" ry="11" style="stroke:#181818;stroke-width:1.0;"/><path d="M449.6719,660.498 L447.1094,660.498 L446.5781,662.7949 Q446.5156,663.123 446.5156,663.2793 Q446.5156,663.498 446.5625,663.6543 Q446.625,663.8105 446.9063,663.8105 L447.375,663.8105 L447.375,664.748 L444.3906,664.748 L444.3906,663.8105 L444.8438,663.8105 Q445.0156,663.8105 445.1406,663.7168 Q445.2656,663.6074 445.3125,663.3105 L447.9531,652.9824 L449.3594,652.5137 L451.9375,663.2793 Q452.0469,663.5918 452.1719,663.7012 Q452.3125,663.8105 452.4844,663.8105 L452.9531,663.8105 L452.9531,664.748 L449.5625,664.748 L449.5625,663.8105 L450.0938,663.8105 Q450.3125,663.8105 450.3281,663.7637 Q450.3594,663.7012 450.3594,663.623 Q450.3594,663.4043 450.3125,663.2168 L449.6719,660.498 Z M445.1094,664.3418 L445.1094,664.3418 Z M445.7813,664.3418 L445.7813,664.3418 Z M450.5,664.3418 L450.5,664.3418 Z M451.625,664.3418 L451.625,664.3418 Z M448.4375,654.4043 L448.5,654.4043 L447.3906,659.5605 L449.4844,659.5605 L448.4375,654.4043 Z " fill="#000000"/><text fill="#000000" font-family="sans-serif" font-size="14" font-style="italic" lengthAdjust="spacing" textLength="197" x="469.75" y="665.8105">SimpleChannelInboundHandler</text><line style="stroke:#181818;stroke-width:0.5;" x1="372.5" x2="731.5" y1="676.0137" y2="676.0137"/><polygon fill="#FFFF44" points="382.5,685.8242,386.5,689.8242,382.5,693.8242,378.5,689.8242" style="stroke:#B38D22;stroke-width:1.0;"/><text fill="#000000" font-family="sans-serif" font-size="14" font-style="italic" lengthAdjust="spacing" textLength="335" x="391.5" y="695.1211">channelRead0(ChannelHandlerContext, Object): void</text></g><!--reverse link ChannelInboundHandlerAdapter to ByteToMessageDecoder--><g id="link_ChannelInboundHandlerAdapter_ByteToMessageDecoder"><path codeLine="19" d="M921.3722,591.5456 C947.3922,603.4756 962.6,615.4437 978,644.0137 C995.51,676.4837 1003.58,700.4337 978,727.0137 C961.88,743.7537 790.44,726.0537 769,735.0137 C723.5,754.0237 685.27,800.3937 667.57,824.6537 " fill="none" id="ChannelInboundHandlerAdapter-backto-ByteToMessageDecoder" style="stroke:#181818;stroke-width:1.0;"/><polygon fill="none" points="905.01,584.0437,918.8715,596.9997,923.8728,586.0916,905.01,584.0437" style="stroke:#181818;stroke-width:1.0;"/></g><!--reverse link ChannelInboundHandlerAdapter to ChannelDuplexHandler--><g id="link_ChannelInboundHandlerAdapter_ChannelDuplexHandler"><path codeLine="20" d="M728.4734,584.5512 C624.6634,597.2612 487.42,616.3637 354,644.0137 C335.99,647.7437 316.5,652.7137 299.2,657.4537 " fill="none" id="ChannelInboundHandlerAdapter-backto-ChannelDuplexHandler" style="stroke:#181818;stroke-width:1.0;"/><polygon fill="none" points="746.34,582.3637,727.7442,578.5956,729.2026,590.5067,746.34,582.3637" style="stroke:#181818;stroke-width:1.0;"/></g><!--reverse link ChannelOutboundHandler to ChannelDuplexHandler--><g id="link_ChannelOutboundHandler_ChannelDuplexHandler"><path codeLine="21" d="M590.4245,475.684 C469.5345,545.174 334,623.0837 274.14,657.4837 " fill="none" id="ChannelOutboundHandler-backto-ChannelDuplexHandler" style="stroke:#181818;stroke-width:1.0;stroke-dasharray:7.0,7.0;"/><polygon fill="none" points="606.03,466.7137,587.4344,470.4822,593.4146,480.8859,606.03,466.7137" style="stroke:#181818;stroke-width:1.0;"/></g><!--reverse link ChannelHandler to ChannelHandlerAdapter--><g id="link_ChannelHandler_ChannelHandlerAdapter"><path codeLine="22" d="M949.3119,189.7689 C1000.0919,206.7389 1039.11,221.5837 1089,244.0137 C1118.62,257.3337 1149.51,273.4037 1178.39,289.4737 " fill="none" id="ChannelHandler-backto-ChannelHandlerAdapter" style="stroke:#181818;stroke-width:1.0;stroke-dasharray:7.0,7.0;"/><polygon fill="none" points="932.24,184.0637,947.4102,195.4595,951.2137,184.0782,932.24,184.0637" style="stroke:#181818;stroke-width:1.0;"/></g><!--reverse link ChannelHandler to ChannelInboundHandler--><g id="link_ChannelHandler_ChannelInboundHandler"><path codeLine="23" d="M602.6881,189.7689 C551.9081,206.7389 512.89,221.5837 463,244.0137 C457.37,246.5437 451.7,249.1737 446,251.8837 " fill="none" id="ChannelHandler-backto-ChannelInboundHandler" style="stroke:#181818;stroke-width:1.0;"/><polygon fill="none" points="619.76,184.0637,600.7863,184.0782,604.5898,195.4595,619.76,184.0637" style="stroke:#181818;stroke-width:1.0;"/></g><!--reverse link ChannelHandlerAdapter to ChannelInboundHandlerAdapter--><g id="link_ChannelHandlerAdapter_ChannelInboundHandlerAdapter"><path codeLine="24" d="M1163.02,455.314 C1134.06,471.424 1118.77,478.7637 1089,492.0137 C1032.57,517.1237 965.02,538.5537 918.76,552.0037 " fill="none" id="ChannelHandlerAdapter-backto-ChannelInboundHandlerAdapter" style="stroke:#181818;stroke-width:1.0;"/><polygon fill="none" points="1178.75,446.5637,1160.1033,450.0707,1165.9368,460.5573,1178.75,446.5637" style="stroke:#181818;stroke-width:1.0;"/></g><!--reverse link ChannelInboundHandler to ChannelInboundHandlerAdapter--><g id="link_ChannelInboundHandler_ChannelInboundHandlerAdapter"><path codeLine="25" d="M462.8231,492.301 C468.4531,494.601 457.41,489.9737 463,492.0137 C555.14,525.6737 664.95,544.8637 746.35,555.3937 " fill="none" id="ChannelInboundHandler-backto-ChannelInboundHandlerAdapter" style="stroke:#181818;stroke-width:1.0;stroke-dasharray:7.0,7.0;"/><polygon fill="none" points="446.16,485.4937,460.554,497.8554,465.0923,486.7466,446.16,485.4937" style="stroke:#181818;stroke-width:1.0;"/></g><!--reverse link ChannelInboundHandlerAdapter to ChannelInitializer--><g id="link_ChannelInboundHandlerAdapter_ChannelInitializer"><path codeLine="26" d="M864,602.2837 C864,617.9137 864,624.5837 864,643.8637 " fill="none" id="ChannelInboundHandlerAdapter-backto-ChannelInitializer" style="stroke:#181818;stroke-width:1.0;"/><polygon fill="none" points="864,584.2837,858,602.2837,870,602.2837,864,584.2837" style="stroke:#181818;stroke-width:1.0;"/></g><!--reverse link ChannelHandler to ChannelOutboundHandler--><g id="link_ChannelHandler_ChannelOutboundHandler"><path codeLine="27" d="M776,202.1137 C776,226.6937 776,239.7137 776,269.1937 " fill="none" id="ChannelHandler-backto-ChannelOutboundHandler" style="stroke:#181818;stroke-width:1.0;"/><polygon fill="none" points="776,184.1137,770,202.1137,782,202.1137,776,184.1137" style="stroke:#181818;stroke-width:1.0;"/></g><!--reverse link ChannelHandlerAdapter to ChannelOutboundHandlerAdapter--><g id="link_ChannelHandlerAdapter_ChannelOutboundHandlerAdapter"><path codeLine="28" d="M1236.2795,461.0505 C1206.7295,500.0505 1184.54,529.3437 1167.52,551.8137 " fill="none" id="ChannelHandlerAdapter-backto-ChannelOutboundHandlerAdapter" style="stroke:#181818;stroke-width:1.0;"/><polygon fill="none" points="1247.15,446.7037,1231.4972,457.427,1241.0618,464.674,1247.15,446.7037" style="stroke:#181818;stroke-width:1.0;"/></g><!--reverse link ChannelOutboundHandler to ChannelOutboundHandlerAdapter--><g id="link_ChannelOutboundHandler_ChannelOutboundHandlerAdapter"><path codeLine="29" d="M979.1826,474.8821 C1042.8726,508.0721 1091.03,533.1637 1126.91,551.8537 " fill="none" id="ChannelOutboundHandler-backto-ChannelOutboundHandlerAdapter" style="stroke:#181818;stroke-width:1.0;stroke-dasharray:7.0,7.0;"/><polygon fill="none" points="963.22,466.5637,976.4098,480.2029,981.9554,469.5612,963.22,466.5637" style="stroke:#181818;stroke-width:1.0;"/></g><!--reverse link ChannelDuplexHandler to IdleStateHandler--><g id="link_ChannelDuplexHandler_IdleStateHandler"><path codeLine="30" d="M284.947,699.9748 C301.807,711.7748 310.57,718.5337 330,735.0137 C365.3,764.9537 403.41,803.6837 423.58,824.7437 " fill="none" id="ChannelDuplexHandler-backto-IdleStateHandler" style="stroke:#181818;stroke-width:1.0;"/><polygon fill="none" points="270.2,689.6537,281.5066,704.8905,288.3874,695.0592,270.2,689.6537" style="stroke:#181818;stroke-width:1.0;"/></g><!--reverse link ChannelDuplexHandler to LoggingHandler--><g id="link_ChannelDuplexHandler_LoggingHandler"><path codeLine="31" d="M248,707.7837 C248,739.3137 248,793.2837 248,824.7737 " fill="none" id="ChannelDuplexHandler-backto-LoggingHandler" style="stroke:#181818;stroke-width:1.0;"/><polygon fill="none" points="248,689.7837,242,707.7837,254,707.7837,248,689.7837" style="stroke:#181818;stroke-width:1.0;"/></g><!--reverse link ChannelOutboundHandlerAdapter to MessageToByteEncoder--><g id="link_ChannelOutboundHandlerAdapter_MessageToByteEncoder"><path codeLine="32" d="M1153.418,602.3098 C1149.718,650.0098 1139.85,777.3637 1136.18,824.8337 " fill="none" id="ChannelOutboundHandlerAdapter-backto-MessageToByteEncoder" style="stroke:#181818;stroke-width:1.0;"/><polygon fill="none" points="1154.81,584.3637,1147.4359,601.8457,1159.4,602.7738,1154.81,584.3637" style="stroke:#181818;stroke-width:1.0;"/></g><!--reverse link ChannelInboundHandlerAdapter to MessageToMessageDecoder--><g id="link_ChannelInboundHandlerAdapter_MessageToMessageDecoder"><path codeLine="33" d="M939.5354,590.2948 C970.0854,601.4648 987.87,613.9237 1006,644.0137 C1025.04,675.6037 1019.89,692.8337 1006,727.0137 C988.48,770.1337 945.72,805.8137 918.97,824.9237 " fill="none" id="ChannelInboundHandlerAdapter-backto-MessageToMessageDecoder" style="stroke:#181818;stroke-width:1.0;"/><polygon fill="none" points="922.63,584.1137,937.4751,595.9299,941.5958,584.6597,922.63,584.1137" style="stroke:#181818;stroke-width:1.0;"/></g><!--reverse link ChannelOutboundHandlerAdapter to MessageToMessageEncoder--><g id="link_ChannelOutboundHandlerAdapter_MessageToMessageEncoder"><path codeLine="34" d="M1179.5399,598.415 C1217.7299,646.115 1322.84,777.3637 1360.85,824.8337 " fill="none" id="ChannelOutboundHandlerAdapter-backto-MessageToMessageEncoder" style="stroke:#181818;stroke-width:1.0;"/><polygon fill="none" points="1168.29,584.3637,1174.8561,602.165,1184.2237,594.665,1168.29,584.3637" style="stroke:#181818;stroke-width:1.0;"/></g><!--reverse link ChannelInboundHandlerAdapter to SimpleChannelInboundHandler--><g id="link_ChannelInboundHandlerAdapter_SimpleChannelInboundHandler"><path codeLine="35" d="M801.5454,589.7308 C754.3954,605.3708 696.54,624.5637 638.1,643.9537 " fill="none" id="ChannelInboundHandlerAdapter-backto-SimpleChannelInboundHandler" style="stroke:#181818;stroke-width:1.0;"/><polygon fill="none" points="818.63,584.0637,799.6564,584.0359,803.4344,595.4256,818.63,584.0637" style="stroke:#181818;stroke-width:1.0;"/></g><!--SRC=[dPFhIiGm48N_voco3x3j6mZg2XOKXTqNo3PZDvWRJGAk-F16rWiPqv3qJql3V3qpatCsTcQJOZGu6BI7MG4NpCCp6r_P18w-CEc0a8tGemmSQDVruubf3RAFBovXxc_E7Wxc4PoBn0v6ms7kR52oIDrUldV1IdYxlnnMKolhhpcplW4RzD44pLlLKgnTL7Z1f7XlO9w2NzKfugfR7U9pxwDFgWKVp3G9FLNNVzlfOBxSTQShJVLBjReHWzMAUw6YWGj-8Rbuq6smsuyhMZ8CoILaFTW5s_s1wE99DYU8GRMfDcgiMFlp-oo2XiYJQMDf3VcVevQjeSsKvyhdfsgm1RHyJJXtI2cvSP96hbYQIni2ylsIXSHLRNmXT7N2XU1LYPEJY8a6PVsPAb17cDqd]--></g></svg>