<?xml version="1.0" encoding="us-ascii" standalone="no"?><svg xmlns="http://www.w3.org/2000/svg" xmlns:xlink="http://www.w3.org/1999/xlink" contentStyleType="text/css" height="866px" preserveAspectRatio="none" style="width:533px;height:866px;background:#FFFFFF;" version="1.1" viewBox="0 0 533 866" width="533px" zoomAndPan="magnify"><defs/><g><!--cluster netty--><g id="cluster_netty"><path d="M8.5,6.0137 L61.5,6.0137 A3.75,3.75 0 0 1 64,8.5137 L71,30.6348 L523.5,30.6348 A2.5,2.5 0 0 1 526,33.1348 L526,856.5137 A2.5,2.5 0 0 1 523.5,859.0137 L8.5,859.0137 A2.5,2.5 0 0 1 6,856.5137 L6,8.5137 A2.5,2.5 0 0 1 8.5,6.0137 " fill="none" style="stroke:#000000;stroke-width:1.5;"/><line style="stroke:#000000;stroke-width:1.5;" x1="6" x2="71" y1="30.6348" y2="30.6348"/><text fill="#000000" font-family="sans-serif" font-size="14" font-weight="bold" lengthAdjust="spacing" textLength="52" x="10" y="23.1211">io.netty</text></g><!--cluster concurrent--><g id="cluster_concurrent"><path d="M32.5,51.0137 L137.5,51.0137 A3.75,3.75 0 0 1 140,53.5137 L147,75.6348 L499.5,75.6348 A2.5,2.5 0 0 1 502,78.1348 L502,444.5137 A2.5,2.5 0 0 1 499.5,447.0137 L32.5,447.0137 A2.5,2.5 0 0 1 30,444.5137 L30,53.5137 A2.5,2.5 0 0 1 32.5,51.0137 " fill="none" style="stroke:#000000;stroke-width:1.5;"/><line style="stroke:#000000;stroke-width:1.5;" x1="30" x2="147" y1="75.6348" y2="75.6348"/><text fill="#000000" font-family="sans-serif" font-size="14" font-weight="bold" lengthAdjust="spacing" textLength="104" x="34" y="68.1211">util.concurrent</text></g><!--cluster channel--><g id="cluster_channel"><path d="M124.5,471.0137 L181.5,471.0137 A3.75,3.75 0 0 1 184,473.5137 L191,495.6348 L407.5,495.6348 A2.5,2.5 0 0 1 410,498.1348 L410,832.5137 A2.5,2.5 0 0 1 407.5,835.0137 L124.5,835.0137 A2.5,2.5 0 0 1 122,832.5137 L122,473.5137 A2.5,2.5 0 0 1 124.5,471.0137 " fill="none" style="stroke:#000000;stroke-width:1.5;"/><line style="stroke:#000000;stroke-width:1.5;" x1="122" x2="191" y1="495.6348" y2="495.6348"/><text fill="#000000" font-family="sans-serif" font-size="14" font-weight="bold" lengthAdjust="spacing" textLength="56" x="126" y="488.1211">channel</text></g><!--cluster nio--><g id="cluster_nio"><path d="M148.5,590.0137 L171.5,590.0137 A3.75,3.75 0 0 1 174,592.5137 L181,614.6348 L383.5,614.6348 A2.5,2.5 0 0 1 386,617.1348 L386,808.5137 A2.5,2.5 0 0 1 383.5,811.0137 L148.5,811.0137 A2.5,2.5 0 0 1 146,808.5137 L146,592.5137 A2.5,2.5 0 0 1 148.5,590.0137 " fill="none" style="stroke:#000000;stroke-width:1.5;"/><line style="stroke:#000000;stroke-width:1.5;" x1="146" x2="181" y1="614.6348" y2="614.6348"/><text fill="#000000" font-family="sans-serif" font-size="14" font-weight="bold" lengthAdjust="spacing" textLength="22" x="150" y="607.1211">nio</text></g><!--class AbstractScheduledEventExecutor--><g id="elem_AbstractScheduledEventExecutor"><rect codeLine="1" fill="#F1F1F1" height="58.6211" id="AbstractScheduledEventExecutor" rx="2.5" ry="2.5" style="stroke:#181818;stroke-width:0.5;" width="440" x="46" y="88.0137"/><ellipse cx="157.25" cy="104.0137" fill="#A9DCDF" rx="11" ry="11" style="stroke:#181818;stroke-width:1.0;"/><path d="M157.6719,104.498 L155.1094,104.498 L154.5781,106.7949 Q154.5156,107.123 154.5156,107.2793 Q154.5156,107.498 154.5625,107.6543 Q154.625,107.8105 154.9063,107.8105 L155.375,107.8105 L155.375,108.748 L152.3906,108.748 L152.3906,107.8105 L152.8438,107.8105 Q153.0156,107.8105 153.1406,107.7168 Q153.2656,107.6074 153.3125,107.3105 L155.9531,96.9824 L157.3594,96.5137 L159.9375,107.2793 Q160.0469,107.5918 160.1719,107.7012 Q160.3125,107.8105 160.4844,107.8105 L160.9531,107.8105 L160.9531,108.748 L157.5625,108.748 L157.5625,107.8105 L158.0938,107.8105 Q158.3125,107.8105 158.3281,107.7637 Q158.3594,107.7012 158.3594,107.623 Q158.3594,107.4043 158.3125,107.2168 L157.6719,104.498 Z M153.1094,108.3418 L153.1094,108.3418 Z M153.7813,108.3418 L153.7813,108.3418 Z M158.5,108.3418 L158.5,108.3418 Z M159.625,108.3418 L159.625,108.3418 Z M156.4375,98.4043 L156.5,98.4043 L155.3906,103.5605 L157.4844,103.5605 L156.4375,98.4043 Z " fill="#000000"/><text fill="#000000" font-family="sans-serif" font-size="14" font-style="italic" lengthAdjust="spacing" textLength="209" x="177.75" y="109.8105">AbstractScheduledEventExecutor</text><line style="stroke:#181818;stroke-width:0.5;" x1="47" x2="485" y1="120.0137" y2="120.0137"/><polygon fill="none" points="57,130.8242,53,136.8242,61,136.8242" style="stroke:#1963A0;stroke-width:1.0;"/><text fill="#000000" font-family="sans-serif" font-size="14" lengthAdjust="spacing" textLength="414" x="66" y="139.1211">scheduledTaskQueue: PriorityQueue&lt;ScheduledFutureTask&lt;?&gt;&gt;</text></g><!--class SingleThreadEventExecutor--><g id="elem_SingleThreadEventExecutor"><rect codeLine="1" fill="#F1F1F1" height="223.5898" id="SingleThreadEventExecutor" rx="2.5" ry="2.5" style="stroke:#181818;stroke-width:0.5;" width="239" x="146.5" y="207.0137"/><ellipse cx="175.9" cy="223.0137" fill="#A9DCDF" rx="11" ry="11" style="stroke:#181818;stroke-width:1.0;"/><path d="M176.3219,223.498 L173.7594,223.498 L173.2281,225.7949 Q173.1656,226.123 173.1656,226.2793 Q173.1656,226.498 173.2125,226.6543 Q173.275,226.8105 173.5563,226.8105 L174.025,226.8105 L174.025,227.748 L171.0406,227.748 L171.0406,226.8105 L171.4938,226.8105 Q171.6656,226.8105 171.7906,226.7168 Q171.9156,226.6074 171.9625,226.3105 L174.6031,215.9824 L176.0094,215.5137 L178.5875,226.2793 Q178.6969,226.5918 178.8219,226.7012 Q178.9625,226.8105 179.1344,226.8105 L179.6031,226.8105 L179.6031,227.748 L176.2125,227.748 L176.2125,226.8105 L176.7438,226.8105 Q176.9625,226.8105 176.9781,226.7637 Q177.0094,226.7012 177.0094,226.623 Q177.0094,226.4043 176.9625,226.2168 L176.3219,223.498 Z M171.7594,227.3418 L171.7594,227.3418 Z M172.4313,227.3418 L172.4313,227.3418 Z M177.15,227.3418 L177.15,227.3418 Z M178.275,227.3418 L178.275,227.3418 Z M175.0875,217.4043 L175.15,217.4043 L174.0406,222.5605 L176.1344,222.5605 L175.0875,217.4043 Z " fill="#000000"/><text fill="#000000" font-family="sans-serif" font-size="14" font-style="italic" lengthAdjust="spacing" textLength="175" x="193.1" y="228.8105">SingleThreadEventExecutor</text><line style="stroke:#181818;stroke-width:0.5;" x1="147.5" x2="384.5" y1="239.0137" y2="239.0137"/><rect fill="none" height="6" style="stroke:#C82930;stroke-width:1.0;" width="6" x="154.5" y="273.4453"/><text fill="#000000" font-family="sans-serif" font-size="14" lengthAdjust="spacing" textLength="54" x="166.5" y="280.7422">state: int</text><rect fill="none" height="6" style="stroke:#C82930;stroke-width:1.0;" width="6" x="154.5" y="292.0664"/><text fill="#000000" font-family="sans-serif" font-size="14" lengthAdjust="spacing" textLength="117" x="166.5" y="299.3633">executor: Executor</text><rect fill="none" height="6" style="stroke:#C82930;stroke-width:1.0;" width="6" x="154.5" y="310.6875"/><text fill="#000000" font-family="sans-serif" font-size="14" lengthAdjust="spacing" textLength="95" x="166.5" y="317.9844">thread: Thread</text><line style="stroke:#181818;stroke-width:1.0;stroke-dasharray:1.0,2.0;" x1="147.5" x2="245.5" y1="256.3242" y2="256.3242"/><text fill="#000000" font-family="sans-serif" font-size="14" lengthAdjust="spacing" textLength="41" x="245.5" y="261.6211">thread</text><line style="stroke:#181818;stroke-width:1.0;stroke-dasharray:1.0,2.0;" x1="286.5" x2="384.5" y1="256.3242" y2="256.3242"/><rect fill="none" height="6" style="stroke:#C82930;stroke-width:1.0;" width="6" x="154.5" y="351.9297"/><text fill="#000000" font-family="sans-serif" font-size="14" lengthAdjust="spacing" textLength="197" x="166.5" y="359.2266">taskQueue: Queue&lt;Runnable&gt;</text><line style="stroke:#181818;stroke-width:1.0;stroke-dasharray:1.0,2.0;" x1="147.5" x2="253" y1="334.8086" y2="334.8086"/><text fill="#000000" font-family="sans-serif" font-size="14" lengthAdjust="spacing" textLength="26" x="253" y="340.1055">task</text><line style="stroke:#181818;stroke-width:1.0;stroke-dasharray:1.0,2.0;" x1="279" x2="384.5" y1="334.8086" y2="334.8086"/><line style="stroke:#181818;stroke-width:1.0;" x1="147.5" x2="384.5" y1="366.7402" y2="366.7402"/><ellipse cx="157.5" cy="381.5508" fill="#84BE84" rx="3" ry="3" style="stroke:#038048;stroke-width:1.0;"/><text fill="#000000" font-family="sans-serif" font-size="14" lengthAdjust="spacing" textLength="154" x="166.5" y="385.8477">execute(Runnable): void</text><rect fill="#F24D5C" height="6" style="stroke:#C82930;stroke-width:1.0;" width="6" x="154.5" y="397.1719"/><text fill="#000000" font-family="sans-serif" font-size="14" lengthAdjust="spacing" textLength="213" x="166.5" y="404.4688">execute(Runnable, boolean): void</text><polygon fill="#FFFF44" points="157.5,413.793,161.5,417.793,157.5,421.793,153.5,417.793" style="stroke:#B38D22;stroke-width:1.0;"/><text fill="#000000" font-family="sans-serif" font-size="14" font-style="italic" lengthAdjust="spacing" textLength="64" x="166.5" y="423.0898">run(): void</text></g><!--class SingleThreadEventLoop--><g id="elem_SingleThreadEventLoop"><rect codeLine="1" fill="#F1F1F1" height="58.6211" id="SingleThreadEventLoop" rx="2.5" ry="2.5" style="stroke:#181818;stroke-width:0.5;" width="210" x="161" y="508.0137"/><ellipse cx="187.7" cy="524.0137" fill="#A9DCDF" rx="11" ry="11" style="stroke:#181818;stroke-width:1.0;"/><path d="M188.1219,524.498 L185.5594,524.498 L185.0281,526.7949 Q184.9656,527.123 184.9656,527.2793 Q184.9656,527.498 185.0125,527.6543 Q185.075,527.8105 185.3563,527.8105 L185.825,527.8105 L185.825,528.748 L182.8406,528.748 L182.8406,527.8105 L183.2938,527.8105 Q183.4656,527.8105 183.5906,527.7168 Q183.7156,527.6074 183.7625,527.3105 L186.4031,516.9824 L187.8094,516.5137 L190.3875,527.2793 Q190.4969,527.5918 190.6219,527.7012 Q190.7625,527.8105 190.9344,527.8105 L191.4031,527.8105 L191.4031,528.748 L188.0125,528.748 L188.0125,527.8105 L188.5438,527.8105 Q188.7625,527.8105 188.7781,527.7637 Q188.8094,527.7012 188.8094,527.623 Q188.8094,527.4043 188.7625,527.2168 L188.1219,524.498 Z M183.5594,528.3418 L183.5594,528.3418 Z M184.2313,528.3418 L184.2313,528.3418 Z M188.95,528.3418 L188.95,528.3418 Z M190.075,528.3418 L190.075,528.3418 Z M186.8875,518.4043 L186.95,518.4043 L185.8406,523.5605 L187.9344,523.5605 L186.8875,518.4043 Z " fill="#000000"/><text fill="#000000" font-family="sans-serif" font-size="14" font-style="italic" lengthAdjust="spacing" textLength="152" x="204.3" y="529.8105">SingleThreadEventLoop</text><line style="stroke:#181818;stroke-width:0.5;" x1="162" x2="370" y1="540.0137" y2="540.0137"/><rect fill="none" height="6" style="stroke:#C82930;stroke-width:1.0;" width="6" x="169" y="551.8242"/><text fill="#000000" font-family="sans-serif" font-size="14" lengthAdjust="spacing" textLength="184" x="181" y="559.1211">tailTasks: Queue&lt;Runnable&gt;</text></g><!--class NioEventLoop--><g id="elem_NioEventLoop"><rect codeLine="1" fill="#F1F1F1" height="167.7266" id="NioEventLoop" rx="2.5" ry="2.5" style="stroke:#181818;stroke-width:0.5;" width="208" x="162" y="627.0137"/><ellipse cx="217.75" cy="643.0137" fill="#ADD1B2" rx="11" ry="11" style="stroke:#181818;stroke-width:1.0;"/><path d="M217.0938,648.873 Q215.1094,648.873 213.9375,647.4043 Q212.7813,645.9199 212.7813,642.8418 Q212.7813,640.2324 214,638.4824 Q215.2344,636.7324 217.3594,636.7324 Q217.8594,636.7324 218.3906,636.873 Q218.8281,637.0605 219.0938,637.0605 Q219.3125,637.0605 219.4063,637.0137 Q219.5156,636.9668 219.9688,636.373 L220.7344,640.1074 L219.8438,640.373 Q219.3906,638.9199 218.7813,638.3262 Q218.1875,637.7168 217.2344,637.7168 Q216.0156,637.7168 215.2969,639.1543 Q214.5781,640.5762 214.5781,642.7637 Q214.5781,645.1699 215.1875,646.4668 Q215.8125,647.748 217.1719,647.748 Q218.125,647.748 218.8125,647.0605 Q219.5,646.3574 219.8281,644.8574 L220.7344,645.2637 Q220.3281,646.9668 219.3594,647.9199 Q218.4063,648.873 217.0938,648.873 Z " fill="#000000"/><text fill="#000000" font-family="sans-serif" font-size="14" lengthAdjust="spacing" textLength="88" x="238.25" y="648.8105">NioEventLoop</text><line style="stroke:#181818;stroke-width:0.5;" x1="163" x2="369" y1="659.0137" y2="659.0137"/><rect fill="none" height="6" style="stroke:#C82930;stroke-width:1.0;" width="6" x="170" y="693.4453"/><text fill="#000000" font-family="sans-serif" font-size="14" lengthAdjust="spacing" textLength="165" x="182" y="700.7422">provider: SelectorProvider</text><line style="stroke:#181818;stroke-width:1.0;stroke-dasharray:1.0,2.0;" x1="163" x2="240" y1="676.3242" y2="676.3242"/><text fill="#000000" font-family="sans-serif" font-size="14" lengthAdjust="spacing" textLength="52" x="240" y="681.6211">provider</text><line style="stroke:#181818;stroke-width:1.0;stroke-dasharray:1.0,2.0;" x1="292" x2="369" y1="676.3242" y2="676.3242"/><rect fill="none" height="6" style="stroke:#C82930;stroke-width:1.0;" width="6" x="170" y="734.6875"/><text fill="#000000" font-family="sans-serif" font-size="14" lengthAdjust="spacing" textLength="110" x="182" y="741.9844">selector: Selector</text><rect fill="none" height="6" style="stroke:#C82930;stroke-width:1.0;" width="6" x="170" y="753.3086"/><text fill="#000000" font-family="sans-serif" font-size="14" lengthAdjust="spacing" textLength="182" x="182" y="760.6055">unwrappedSelector: Selector</text><line style="stroke:#181818;stroke-width:1.0;stroke-dasharray:1.0,2.0;" x1="163" x2="241" y1="717.5664" y2="717.5664"/><text fill="#000000" font-family="sans-serif" font-size="14" lengthAdjust="spacing" textLength="50" x="241" y="722.8633">selector</text><line style="stroke:#181818;stroke-width:1.0;stroke-dasharray:1.0,2.0;" x1="291" x2="369" y1="717.5664" y2="717.5664"/><line style="stroke:#181818;stroke-width:1.0;" x1="163" x2="369" y1="768.1191" y2="768.1191"/><polygon fill="#FFFF44" points="173,777.9297,177,781.9297,173,785.9297,169,781.9297" style="stroke:#B38D22;stroke-width:1.0;"/><text fill="#000000" font-family="sans-serif" font-size="14" lengthAdjust="spacing" textLength="65" x="182" y="787.2266">run(): void</text></g><!--reverse link AbstractScheduledEventExecutor to SingleThreadEventExecutor--><g id="link_AbstractScheduledEventExecutor_SingleThreadEventExecutor"><path codeLine="7" d="M266,165.0937 C266,181.2537 266,184.6237 266,206.7437 " fill="none" id="AbstractScheduledEventExecutor-backto-SingleThreadEventExecutor" style="stroke:#181818;stroke-width:1.0;"/><polygon fill="none" points="266,147.0937,260,165.0937,272,165.0937,266,147.0937" style="stroke:#181818;stroke-width:1.0;"/></g><!--reverse link SingleThreadEventExecutor to SingleThreadEventLoop--><g id="link_SingleThreadEventExecutor_SingleThreadEventLoop"><path codeLine="11" d="M266,449.1137 C266,477.5637 266,487.7537 266,507.8037 " fill="none" id="SingleThreadEventExecutor-backto-SingleThreadEventLoop" style="stroke:#181818;stroke-width:1.0;"/><polygon fill="none" points="266,431.1137,260,449.1137,272,449.1137,266,431.1137" style="stroke:#181818;stroke-width:1.0;"/></g><!--reverse link SingleThreadEventLoop to NioEventLoop--><g id="link_SingleThreadEventLoop_NioEventLoop"><path codeLine="12" d="M266,585.2237 C266,601.7137 266,605.3637 266,626.8037 " fill="none" id="SingleThreadEventLoop-backto-NioEventLoop" style="stroke:#181818;stroke-width:1.0;"/><polygon fill="none" points="266,567.2237,260,585.2237,272,585.2237,266,567.2237" style="stroke:#181818;stroke-width:1.0;"/></g><!--SRC=[VOvB3e8m54NdNKKPEG9sOEA0WOan9hY1qbvfjQLDFqOJ5o-O64N0uRk_TpBdMMiOJG7RBi8R2CKY3enVM8j0Jqm7448orN6T16XHbEV4oqqJecSyrbn290rHNT75wWQUelM5IqPFEhNgMesZz61pSRBeqpov_B6c_v-E8J5OsbetVRlhrIdXfx1NzYStE_6cMiGctqEBwS4aP2LLZs5W6lX0NWUCY_UnP12b5U49]--></g></svg>