<?xml version="1.0" encoding="us-ascii" standalone="no"?><svg xmlns="http://www.w3.org/2000/svg" xmlns:xlink="http://www.w3.org/1999/xlink" contentStyleType="text/css" height="606px" preserveAspectRatio="none" style="width:933px;height:606px;background:#FFFFFF;" version="1.1" viewBox="0 0 933 606" width="933px" zoomAndPan="magnify"><defs/><g><!--cluster channel--><g id="cluster_channel"><path d="M8.5,6.0137 L121.5,6.0137 A3.75,3.75 0 0 1 124,8.5137 L131,30.6348 L520.5,30.6348 A2.5,2.5 0 0 1 523,33.1348 L523,585.0137 A2.5,2.5 0 0 1 520.5,587.5137 L8.5,587.5137 A2.5,2.5 0 0 1 6,585.0137 L6,8.5137 A2.5,2.5 0 0 1 8.5,6.0137 " fill="none" style="stroke:#000000;stroke-width:1.5;"/><line style="stroke:#000000;stroke-width:1.5;" x1="6" x2="131" y1="30.6348" y2="30.6348"/><text fill="#000000" font-family="sans-serif" font-size="14" font-weight="bold" lengthAdjust="spacing" textLength="112" x="10" y="23.1211">io.netty.channel</text></g><!--cluster nio--><g id="cluster_nio"><path d="M32.5,51.0137 L55.5,51.0137 A3.75,3.75 0 0 1 58,53.5137 L65,75.6348 L496.5,75.6348 A2.5,2.5 0 0 1 499,78.1348 L499,360.5137 A2.5,2.5 0 0 1 496.5,363.0137 L32.5,363.0137 A2.5,2.5 0 0 1 30,360.5137 L30,53.5137 A2.5,2.5 0 0 1 32.5,51.0137 " fill="none" style="stroke:#000000;stroke-width:1.5;"/><line style="stroke:#000000;stroke-width:1.5;" x1="30" x2="65" y1="75.6348" y2="75.6348"/><text fill="#000000" font-family="sans-serif" font-size="14" font-weight="bold" lengthAdjust="spacing" textLength="22" x="34" y="68.1211">nio</text></g><!--cluster nio--><g id="cluster_nio"><path d="M193.5,425.5137 L267.5,425.5137 A3.75,3.75 0 0 1 270,428.0137 L277,450.1348 L496.5,450.1348 A2.5,2.5 0 0 1 499,452.6348 L499,561.0137 A2.5,2.5 0 0 1 496.5,563.5137 L193.5,563.5137 A2.5,2.5 0 0 1 191,561.0137 L191,428.0137 A2.5,2.5 0 0 1 193.5,425.5137 " fill="none" style="stroke:#000000;stroke-width:1.5;"/><line style="stroke:#000000;stroke-width:1.5;" x1="191" x2="277" y1="450.1348" y2="450.1348"/><text fill="#000000" font-family="sans-serif" font-size="14" font-weight="bold" lengthAdjust="spacing" textLength="73" x="195" y="442.6211">socket.nio</text></g><!--class AbstractNioChannel--><g id="elem_AbstractNioChannel"><rect codeLine="4" fill="#F1F1F1" height="159.7266" id="AbstractNioChannel" rx="2.5" ry="2.5" style="stroke:#181818;stroke-width:0.5;" width="182" x="293" y="92.0137"/><ellipse cx="318.8" cy="108.0137" fill="#A9DCDF" rx="11" ry="11" style="stroke:#181818;stroke-width:1.0;"/><path d="M319.2219,108.498 L316.6594,108.498 L316.1281,110.7949 Q316.0656,111.123 316.0656,111.2793 Q316.0656,111.498 316.1125,111.6543 Q316.175,111.8105 316.4563,111.8105 L316.925,111.8105 L316.925,112.748 L313.9406,112.748 L313.9406,111.8105 L314.3938,111.8105 Q314.5656,111.8105 314.6906,111.7168 Q314.8156,111.6074 314.8625,111.3105 L317.5031,100.9824 L318.9094,100.5137 L321.4875,111.2793 Q321.5969,111.5918 321.7219,111.7012 Q321.8625,111.8105 322.0344,111.8105 L322.5031,111.8105 L322.5031,112.748 L319.1125,112.748 L319.1125,111.8105 L319.6438,111.8105 Q319.8625,111.8105 319.8781,111.7637 Q319.9094,111.7012 319.9094,111.623 Q319.9094,111.4043 319.8625,111.2168 L319.2219,108.498 Z M314.6594,112.3418 L314.6594,112.3418 Z M315.3313,112.3418 L315.3313,112.3418 Z M320.05,112.3418 L320.05,112.3418 Z M321.175,112.3418 L321.175,112.3418 Z M317.9875,102.4043 L318.05,102.4043 L316.9406,107.5605 L319.0344,107.5605 L317.9875,102.4043 Z " fill="#000000"/><text fill="#000000" font-family="sans-serif" font-size="14" font-style="italic" lengthAdjust="spacing" textLength="126" x="335.2" y="113.8105">AbstractNioChannel</text><line style="stroke:#181818;stroke-width:0.5;" x1="294" x2="474" y1="124.0137" y2="124.0137"/><text fill="#000000" font-family="sans-serif" font-size="14" lengthAdjust="spacing" textLength="142" x="299" y="143.1211">ch: SelectableChannel</text><text fill="#000000" font-family="sans-serif" font-size="14" lengthAdjust="spacing" textLength="118" x="299" y="161.7422">readInterestOp: int</text><text fill="#000000" font-family="sans-serif" font-size="14" lengthAdjust="spacing" textLength="170" x="299" y="180.3633">selectionKey: SelectionKey</text><line style="stroke:#181818;stroke-width:0.5;" x1="294" x2="474" y1="187.877" y2="187.877"/><polygon fill="#FFFF44" points="304,197.6875,308,201.6875,304,205.6875,300,201.6875" style="stroke:#B38D22;stroke-width:1.0;"/><text fill="#000000" font-family="sans-serif" font-size="14" lengthAdjust="spacing" textLength="135" x="313" y="206.9844">AbstractNioChannel()</text><polygon fill="#FFFF44" points="304,216.3086,308,220.3086,304,224.3086,300,220.3086" style="stroke:#B38D22;stroke-width:1.0;"/><text fill="#000000" font-family="sans-serif" font-size="14" lengthAdjust="spacing" textLength="79" x="313" y="225.6055">doRegister()</text><polygon fill="#FFFF44" points="304,234.9297,308,238.9297,304,242.9297,300,238.9297" style="stroke:#B38D22;stroke-width:1.0;"/><text fill="#000000" font-family="sans-serif" font-size="14" lengthAdjust="spacing" textLength="96" x="313" y="244.2266">doBeginRead()</text></g><!--class AbstractNioMessageChannel--><g id="elem_AbstractNioMessageChannel"><rect codeLine="13" fill="#F1F1F1" height="32" id="AbstractNioMessageChannel" rx="2.5" ry="2.5" style="stroke:#181818;stroke-width:0.5;" width="216" x="243" y="315.0137"/><ellipse cx="258" cy="331.0137" fill="#A9DCDF" rx="11" ry="11" style="stroke:#181818;stroke-width:1.0;"/><path d="M258.4219,331.498 L255.8594,331.498 L255.3281,333.7949 Q255.2656,334.123 255.2656,334.2793 Q255.2656,334.498 255.3125,334.6543 Q255.375,334.8105 255.6563,334.8105 L256.125,334.8105 L256.125,335.748 L253.1406,335.748 L253.1406,334.8105 L253.5938,334.8105 Q253.7656,334.8105 253.8906,334.7168 Q254.0156,334.6074 254.0625,334.3105 L256.7031,323.9824 L258.1094,323.5137 L260.6875,334.2793 Q260.7969,334.5918 260.9219,334.7012 Q261.0625,334.8105 261.2344,334.8105 L261.7031,334.8105 L261.7031,335.748 L258.3125,335.748 L258.3125,334.8105 L258.8438,334.8105 Q259.0625,334.8105 259.0781,334.7637 Q259.1094,334.7012 259.1094,334.623 Q259.1094,334.4043 259.0625,334.2168 L258.4219,331.498 Z M253.8594,335.3418 L253.8594,335.3418 Z M254.5313,335.3418 L254.5313,335.3418 Z M259.25,335.3418 L259.25,335.3418 Z M260.375,335.3418 L260.375,335.3418 Z M257.1875,325.4043 L257.25,325.4043 L256.1406,330.5605 L258.2344,330.5605 L257.1875,325.4043 Z " fill="#000000"/><text fill="#000000" font-family="sans-serif" font-size="14" font-style="italic" lengthAdjust="spacing" textLength="184" x="272" y="336.8105">AbstractNioMessageChannel</text></g><!--class NioEventLoop--><g id="elem_NioEventLoop"><rect codeLine="22" fill="#F1F1F1" height="103.8633" id="NioEventLoop" rx="2.5" ry="2.5" style="stroke:#181818;stroke-width:0.5;" width="204" x="46" y="119.5137"/><ellipse cx="99.75" cy="135.5137" fill="#ADD1B2" rx="11" ry="11" style="stroke:#181818;stroke-width:1.0;"/><path d="M99.0938,141.373 Q97.1094,141.373 95.9375,139.9043 Q94.7813,138.4199 94.7813,135.3418 Q94.7813,132.7324 96,130.9824 Q97.2344,129.2324 99.3594,129.2324 Q99.8594,129.2324 100.3906,129.373 Q100.8281,129.5605 101.0938,129.5605 Q101.3125,129.5605 101.4063,129.5137 Q101.5156,129.4668 101.9688,128.873 L102.7344,132.6074 L101.8438,132.873 Q101.3906,131.4199 100.7813,130.8262 Q100.1875,130.2168 99.2344,130.2168 Q98.0156,130.2168 97.2969,131.6543 Q96.5781,133.0762 96.5781,135.2637 Q96.5781,137.6699 97.1875,138.9668 Q97.8125,140.248 99.1719,140.248 Q100.125,140.248 100.8125,139.5605 Q101.5,138.8574 101.8281,137.3574 L102.7344,137.7637 Q102.3281,139.4668 101.3594,140.4199 Q100.4063,141.373 99.0938,141.373 Z " fill="#000000"/><text fill="#000000" font-family="sans-serif" font-size="14" lengthAdjust="spacing" textLength="88" x="120.25" y="141.3105">NioEventLoop</text><line style="stroke:#181818;stroke-width:0.5;" x1="47" x2="249" y1="151.5137" y2="151.5137"/><text fill="#000000" font-family="sans-serif" font-size="14" lengthAdjust="spacing" textLength="110" x="52" y="170.6211">selector: Selector</text><text fill="#000000" font-family="sans-serif" font-size="14" lengthAdjust="spacing" textLength="182" x="52" y="189.2422">unwrappedSelector: Selector</text><line style="stroke:#181818;stroke-width:1.0;" x1="47" x2="249" y1="196.7559" y2="196.7559"/><text fill="#000000" font-family="sans-serif" font-size="14" lengthAdjust="spacing" textLength="192" x="52" y="215.8633">unwrappedSelector(): Selector</text></g><!--class NioServerSocketChannel--><g id="elem_NioServerSocketChannel"><rect codeLine="16" fill="#F1F1F1" height="77.2422" id="NioServerSocketChannel" rx="2.5" ry="2.5" style="stroke:#181818;stroke-width:0.5;" width="260" x="215" y="466.5137"/><ellipse cx="261.75" cy="482.5137" fill="#ADD1B2" rx="11" ry="11" style="stroke:#181818;stroke-width:1.0;"/><path d="M261.0938,488.373 Q259.1094,488.373 257.9375,486.9043 Q256.7813,485.4199 256.7813,482.3418 Q256.7813,479.7324 258,477.9824 Q259.2344,476.2324 261.3594,476.2324 Q261.8594,476.2324 262.3906,476.373 Q262.8281,476.5605 263.0938,476.5605 Q263.3125,476.5605 263.4063,476.5137 Q263.5156,476.4668 263.9688,475.873 L264.7344,479.6074 L263.8438,479.873 Q263.3906,478.4199 262.7813,477.8262 Q262.1875,477.2168 261.2344,477.2168 Q260.0156,477.2168 259.2969,478.6543 Q258.5781,480.0762 258.5781,482.2637 Q258.5781,484.6699 259.1875,485.9668 Q259.8125,487.248 261.1719,487.248 Q262.125,487.248 262.8125,486.5605 Q263.5,485.8574 263.8281,484.3574 L264.7344,484.7637 Q264.3281,486.4668 263.3594,487.4199 Q262.4063,488.373 261.0938,488.373 Z " fill="#000000"/><text fill="#000000" font-family="sans-serif" font-size="14" lengthAdjust="spacing" textLength="158" x="282.25" y="488.3105">NioServerSocketChannel</text><line style="stroke:#181818;stroke-width:0.5;" x1="216" x2="474" y1="498.5137" y2="498.5137"/><rect fill="#F24D5C" height="6" style="stroke:#C82930;stroke-width:1.0;" width="6" x="223" y="510.3242"/><text fill="#000000" font-family="sans-serif" font-size="14" lengthAdjust="spacing" text-decoration="underline" textLength="234" x="235" y="517.6211">newChannel(): ServerSocketChannel</text><polygon fill="#FFFF44" points="226,526.9453,230,530.9453,226,534.9453,222,530.9453" style="stroke:#B38D22;stroke-width:1.0;"/><text fill="#000000" font-family="sans-serif" font-size="14" lengthAdjust="spacing" textLength="149" x="235" y="536.2422">doBind(SocketAddress)</text></g><!--class JavaNIO--><g id="elem_JavaNIO"><rect codeLine="29" fill="#F1F1F1" height="188.3477" id="JavaNIO" rx="2.5" ry="2.5" style="stroke:#181818;stroke-width:0.5;" width="379" x="547.5" y="411.0137"/><text fill="#000000" font-family="sans-serif" font-size="14" lengthAdjust="spacing" textLength="52" x="711" y="431.1211">JavaNIO</text><line style="stroke:#181818;stroke-width:0.5;" x1="548.5" x2="925.5" y1="439.6348" y2="439.6348"/><text fill="#000000" font-family="sans-serif" font-size="14" lengthAdjust="spacing" textLength="224" x="553.5" y="458.7422">Selector selector = Selector.open();</text><line style="stroke:#181818;stroke-width:1.0;stroke-dasharray:1.0,2.0;" x1="548.5" x2="925.5" y1="466.2559" y2="466.2559"/><text fill="#000000" font-family="sans-serif" font-size="14" lengthAdjust="spacing" textLength="367" x="553.5" y="485.3633">ServerSocketChannel ssc = ServerSocketChannel.open();</text><line style="stroke:#181818;stroke-width:1.0;stroke-dasharray:1.0,2.0;" x1="548.5" x2="925.5" y1="492.877" y2="492.877"/><text fill="#000000" font-family="sans-serif" font-size="14" lengthAdjust="spacing" textLength="181" x="553.5" y="511.9844">ssc.configureBlocking(false);</text><line style="stroke:#181818;stroke-width:1.0;stroke-dasharray:1.0,2.0;" x1="548.5" x2="925.5" y1="519.498" y2="519.498"/><text fill="#000000" font-family="sans-serif" font-size="14" lengthAdjust="spacing" textLength="330" x="553.5" y="538.6055">SelectionKey sscKey = ssc.register(selector, 0, null);</text><line style="stroke:#181818;stroke-width:1.0;stroke-dasharray:1.0,2.0;" x1="548.5" x2="925.5" y1="546.1191" y2="546.1191"/><text fill="#000000" font-family="sans-serif" font-size="14" lengthAdjust="spacing" textLength="262" x="553.5" y="565.2266">ssc.bind(new InetSocketAddress(PORT));</text><line style="stroke:#181818;stroke-width:1.0;stroke-dasharray:1.0,2.0;" x1="548.5" x2="925.5" y1="572.7402" y2="572.7402"/><text fill="#000000" font-family="sans-serif" font-size="14" lengthAdjust="spacing" textLength="306" x="553.5" y="591.8477">sscKey.interestOps(SelectionKey.OP_ACCEPT);</text></g><!--reverse link AbstractNioChannel to AbstractNioMessageChannel--><g id="link_AbstractNioChannel_AbstractNioMessageChannel"><path d="M362.9413,273.0317 C358.1613,295.8617 357.16,300.6037 354.19,314.7937 " fill="none" id="AbstractNioChannel-backto-AbstractNioMessageChannel" style="stroke:#181818;stroke-width:1.0;"/><polygon fill="none" points="366.63,255.4137,357.0686,271.8021,368.8139,274.2612,366.63,255.4137" style="stroke:#181818;stroke-width:1.0;"/></g><!--reverse link AbstractNioMessageChannel to NioServerSocketChannel--><g id="link_AbstractNioMessageChannel_NioServerSocketChannel"><path d="M349.8439,365.2628 C348.9539,390.8328 347.75,425.1837 346.45,462.3337 " fill="none" id="AbstractNioMessageChannel-backto-NioServerSocketChannel" style="stroke:#181818;stroke-width:1.0;"/><polygon fill="none" points="350.47,347.2737,343.8475,365.0541,355.8402,365.4715,350.47,347.2737" style="stroke:#181818;stroke-width:1.0;"/></g><!--link AbstractNioChannel to JavaNIO--><g id="link_AbstractNioChannel_JavaNIO"><path codeLine="43" d="M476,200.5137 C545.48,200.5137 471.52,505.0137 541,505.0137 " fill="none" id="AbstractNioChannel-to-JavaNIO" style="stroke:#FF0000;stroke-width:1.0;"/><polygon fill="#FF0000" points="547,505.0137,538,501.0137,542,505.0137,538,509.0137,547,505.0137" style="stroke:#FF0000;stroke-width:1.0;"/></g><!--link AbstractNioChannel to JavaNIO--><g id="link_AbstractNioChannel_JavaNIO"><path codeLine="44" d="M476,219.5137 C526.36,219.5137 521.77,267.0037 537,315.0137 C566.2,407.0437 444.45,532.0137 541,532.0137 " fill="none" id="AbstractNioChannel-to-JavaNIO-1" style="stroke:#008000;stroke-width:1.0;"/><polygon fill="#008000" points="547,532.0137,538,528.0137,542,532.0137,538,536.0137,547,532.0137" style="stroke:#008000;stroke-width:1.0;"/></g><!--link AbstractNioChannel to JavaNIO--><g id="link_AbstractNioChannel_JavaNIO"><path codeLine="45" d="M476,238.5137 C528.16,238.5137 543.24,267.6137 565,315.0137 C575.38,337.6337 570.45,346.7237 565,371.0137 C561.13,388.2837 551.92,389.7637 548,407.0137 C530.47,484.1637 461.89,585.0137 541,585.0137 " fill="none" id="AbstractNioChannel-to-JavaNIO-2" style="stroke:#0000FF;stroke-width:1.0;"/><polygon fill="#0000FF" points="547,585.0137,538,581.0137,542,585.0137,538,589.0137,547,585.0137" style="stroke:#0000FF;stroke-width:1.0;"/></g><!--link NioServerSocketChannel to JavaNIO--><g id="link_NioServerSocketChannel_JavaNIO"><path codeLine="46" d="M476,512.0137 C510.8,512.0137 506.2,479.0137 541,479.0137 " fill="none" id="NioServerSocketChannel-to-JavaNIO" style="stroke:#181818;stroke-width:1.0;"/><polygon fill="#181818" points="547,479.0137,538,475.0137,542,479.0137,538,483.0137,547,479.0137" style="stroke:#181818;stroke-width:1.0;"/></g><!--link NioServerSocketChannel to JavaNIO--><g id="link_NioServerSocketChannel_JavaNIO"><path codeLine="47" d="M476,530.0137 C510.09,530.0137 506.91,559.0137 541,559.0137 " fill="none" id="NioServerSocketChannel-to-JavaNIO-1" style="stroke:#181818;stroke-width:1.0;"/><polygon fill="#181818" points="547,559.0137,538,555.0137,542,559.0137,538,563.0137,547,559.0137" style="stroke:#181818;stroke-width:1.0;"/></g><!--SRC=[bLDDRzim3BtxLsZeOGvG6pjhw80qw27jrWH9RqCno1Bh29KbGvBJ1KN_-nJPLZwa3eWlXX_9z-X7yakhITqGr1cOImkw0SQ9XIMXhwG6Wrw8C92HobXDg4LK46CGLwK4QtSbtH0fGPJI8TCXvv6hMG-ZzmovXsumMeC0QaabO8ZvY0R2l2eOksWnuj9wtFXihkG3xCRQ_ik7hr2ibK-645ChgBbnf4VGhOFaogavx2Exz7T-WJ7EZF6luAy5oIvnmKb-ecGKVGNhArt56lGMzDfZbwgTDTbR_suiiPn-54Z2Mt1gRsaaTF2AIvRteIbZRZJ6UvRznoidVxS5QNygrGxA_GYL7iUdj8Sx-QP9sm9Rf-D5aKxhcnuIWvttP4iUvuj1Sem7RNGJi5Ar8FF9TvzObaD-xBOnr5T5aHI1IowfaY-yxZJS2fVEPPtxYpbNEcpmlch_kl7bUjpLiUThzEqQoKw8MAhQ3yRD4StT14u6b2yNgwT9LE5aIXxEo-J7RPIBvP_fR7QtV79bpj1uRp5Ex7AXURsnlwyqiEVYnpW0Z9DM94aFznd8QWqWJ-XEJZxD4auwq5IYW_EcpYp8qaU6yU4y1hhJRk9h-Ooelvy4oJZ1xElnjM0ShNgoWM7pimrd4DQUSaq5z1WqhTsX1feAjFa7]--></g></svg>