<svg xmlns="http://www.w3.org/2000/svg" xmlns:xlink="http://www.w3.org/1999/xlink" contentStyleType="text/css" height="410.4px" preserveAspectRatio="none" style="width:1170px;height:410px;background:#FFFFFF;" version="1.1" viewBox="0 0 1170 410" width="1170px" zoomAndPan="magnify"><defs/><g><!--class HelloWorld--><g id="elem_HelloWorld"><rect codeLine="3" fill="#F1F1F1" height="124.6359" id="HelloWorld" rx="3" ry="3" style="stroke:#181818;stroke-width:0.6;" width="484.0945" x="10.8" y="8.4"/><ellipse cx="206.6701" cy="27.6" fill="#ADD1B2" rx="13.2" ry="13.2" style="stroke:#181818;stroke-width:1.2;"/><path d="M209.9889,22.65 Q210.1764,22.3875 210.4014,22.2562 Q210.6264,22.125 210.8889,22.125 Q211.3389,22.125 211.6201,22.4437 Q211.9014,22.7438 211.9014,23.475 L211.9014,25.2188 Q211.9014,25.95 211.6201,26.2688 Q211.3389,26.5875 210.8889,26.5875 Q210.4764,26.5875 210.2326,26.3438 Q209.9889,26.1188 209.8576,25.5 Q209.8014,25.0687 209.5764,24.8438 Q209.1826,24.3938 208.4514,24.1312 Q207.7201,23.8688 206.9701,23.8688 Q206.0514,23.8688 205.2826,24.2625 Q204.5326,24.6563 203.9326,25.5563 Q203.3514,26.4563 203.3514,27.6937 L203.3514,29.0062 Q203.3514,30.4875 204.4201,31.4813 Q205.4889,32.4563 207.4014,32.4563 Q208.5264,32.4563 209.3139,32.1563 Q209.7826,31.9688 210.2889,31.4437 Q210.6076,31.125 210.7764,31.0313 Q210.9639,30.9375 211.2076,30.9375 Q211.6014,30.9375 211.9014,31.2562 Q212.2201,31.5563 212.2201,31.9688 Q212.2201,32.3813 211.8076,32.8688 Q211.2076,33.5625 210.2514,33.9563 Q208.9576,34.5 207.4014,34.5 Q205.5826,34.5 204.1389,33.75 Q202.9576,33.15 202.1326,31.875 Q201.3076,30.5812 201.3076,29.0438 L201.3076,27.6563 Q201.3076,26.0625 202.0389,24.6937 Q202.7889,23.3063 204.1014,22.575 Q205.4139,21.825 206.8951,21.825 Q207.7764,21.825 208.5451,22.0313 Q209.3326,22.2188 209.9889,22.65 Z " fill="#000000"/><text fill="#000000" font-family="sans-serif" font-size="16.8" lengthAdjust="spacing" textLength="82.1543" x="231.2701" y="34.5563">HelloWorld</text><line style="stroke:#181818;stroke-width:0.6;" x1="12" x2="493.6945" y1="46.8" y2="46.8"/><line style="stroke:#181818;stroke-width:0.6;" x1="12" x2="493.6945" y1="56.4" y2="56.4"/><ellipse cx="24" cy="74.1727" fill="#84BE84" rx="3.6" ry="3.6" style="stroke:#038048;stroke-width:1.2;"/><text fill="#000000" font-family="sans-serif" font-size="16.8" lengthAdjust="spacing" textLength="237.177" x="34.8" y="79.3289">String test(String name, int age)</text><rect fill="#F24D5C" height="7.2" style="stroke:#C82930;stroke-width:1.2;" width="7.2" x="20.4" y="92.918"/><text fill="#000000" font-family="sans-serif" font-size="16.8" lengthAdjust="spacing" textLength="338.9777" x="34.8" y="101.6742">String test$original$Abc(String name, int age)</text><polygon fill="#4177AF" points="24,114.0633,19.2,121.2633,28.8,121.2633" style="stroke:#1963A0;stroke-width:1.2;"/><text fill="#000000" font-family="sans-serif" font-size="16.8" lengthAdjust="spacing" textLength="452.8945" x="34.8" y="124.0195">String test$original$Abc$accessor$Xyz(String name, int age)</text></g><!--class HardWorker--><g id="elem_HardWorker"><rect codeLine="9" fill="#F1F1F1" height="79.9453" id="HardWorker" rx="3" ry="3" style="stroke:#181818;stroke-width:0.6;" width="338.6203" x="556.2" y="30.6"/><ellipse cx="675.1371" cy="49.8" fill="#ADD1B2" rx="13.2" ry="13.2" style="stroke:#181818;stroke-width:1.2;"/><path d="M678.4559,44.85 Q678.6434,44.5875 678.8684,44.4563 Q679.0934,44.325 679.3559,44.325 Q679.8059,44.325 680.0871,44.6438 Q680.3684,44.9438 680.3684,45.675 L680.3684,47.4187 Q680.3684,48.15 680.0871,48.4688 Q679.8059,48.7875 679.3559,48.7875 Q678.9434,48.7875 678.6996,48.5437 Q678.4559,48.3188 678.3246,47.7 Q678.2684,47.2688 678.0434,47.0437 Q677.6496,46.5938 676.9184,46.3313 Q676.1871,46.0688 675.4371,46.0688 Q674.5184,46.0688 673.7496,46.4625 Q672.9996,46.8562 672.3996,47.7563 Q671.8184,48.6563 671.8184,49.8938 L671.8184,51.2063 Q671.8184,52.6875 672.8871,53.6813 Q673.9559,54.6563 675.8684,54.6563 Q676.9934,54.6563 677.7809,54.3562 Q678.2496,54.1687 678.7559,53.6438 Q679.0746,53.325 679.2434,53.2312 Q679.4309,53.1375 679.6746,53.1375 Q680.0684,53.1375 680.3684,53.4563 Q680.6871,53.7563 680.6871,54.1687 Q680.6871,54.5813 680.2746,55.0688 Q679.6746,55.7625 678.7184,56.1563 Q677.4246,56.7 675.8684,56.7 Q674.0496,56.7 672.6059,55.95 Q671.4246,55.35 670.5996,54.075 Q669.7746,52.7813 669.7746,51.2438 L669.7746,49.8562 Q669.7746,48.2625 670.5059,46.8938 Q671.2559,45.5063 672.5684,44.775 Q673.8809,44.025 675.3621,44.025 Q676.2434,44.025 677.0121,44.2312 Q677.7996,44.4187 678.4559,44.85 Z " fill="#000000"/><text fill="#000000" font-family="sans-serif" font-size="16.8" lengthAdjust="spacing" textLength="90.5461" x="699.7371" y="56.7563">HardWorker</text><line style="stroke:#181818;stroke-width:0.6;" x1="557.4" x2="893.6203" y1="69" y2="69"/><line style="stroke:#181818;stroke-width:0.6;" x1="557.4" x2="893.6203" y1="78.6" y2="78.6"/><ellipse cx="569.4" cy="96.3727" fill="#84BE84" rx="3.6" ry="3.6" style="stroke:#038048;stroke-width:1.2;"/><text fill="#000000" font-family="sans-serif" font-size="16.8" lengthAdjust="spacing" text-decoration="underline" textLength="307.4203" x="580.2" y="101.5289">Object doWork(@Morph HumbleServant)</text></g><!--class HumbleServant--><g id="elem_HumbleServant"><rect codeLine="13" fill="#F1F1F1" height="79.9453" id="HumbleServant" rx="3" ry="3" style="stroke:#181818;stroke-width:0.6;" width="201.1195" x="956.4" y="30.6"/><ellipse cx="988.6799" cy="49.8" fill="#B4A7E5" rx="13.2" ry="13.2" style="stroke:#181818;stroke-width:1.2;"/><path d="M989.8237,45.7688 L989.8237,53.7563 L991.8862,53.7563 Q992.6174,53.7563 992.9362,54.0375 Q993.2549,54.3188 993.2549,54.7875 Q993.2549,55.2375 992.9362,55.5188 Q992.6174,55.8 991.8862,55.8 L985.7174,55.8 Q984.9862,55.8 984.6674,55.5188 Q984.3487,55.2375 984.3487,54.7688 Q984.3487,54.3188 984.6674,54.0375 Q984.9862,53.7563 985.7174,53.7563 L987.7799,53.7563 L987.7799,45.7688 L985.7174,45.7688 Q984.9862,45.7688 984.6674,45.4875 Q984.3487,45.2063 984.3487,44.7375 Q984.3487,44.2875 984.6674,44.0063 Q984.9862,43.725 985.7174,43.725 L991.8862,43.725 Q992.6174,43.725 992.9362,44.0063 Q993.2549,44.2875 993.2549,44.7375 Q993.2549,45.2063 992.9362,45.4875 Q992.6174,45.7688 991.8862,45.7688 L989.8237,45.7688 Z " fill="#000000"/><text fill="#000000" font-family="sans-serif" font-size="16.8" font-style="italic" lengthAdjust="spacing" textLength="115.7871" x="1008.6533" y="56.7563">HumbleServant</text><rect fill="#FFFFFF" height="21.5531" style="stroke:#181818;stroke-width:1.2;stroke-dasharray:2.0,2.0;" width="12.7992" x="1148.3203" y="27"/><text fill="#000000" font-family="sans-serif" font-size="14.4" font-style="italic" lengthAdjust="spacing" textLength="10.3992" x="1149.5203" y="43.7391">R</text><line style="stroke:#181818;stroke-width:0.6;" x1="957.6" x2="1156.3195" y1="69" y2="69"/><line style="stroke:#181818;stroke-width:0.6;" x1="957.6" x2="1156.3195" y1="78.6" y2="78.6"/><text fill="#000000" font-family="sans-serif" font-size="16.8" lengthAdjust="spacing" textLength="186.7195" x="963.6" y="101.5289">R process(Object[] args);</text></g><!--class HelloWorld$auxiliary$Proxy--><g id="elem_HelloWorld$auxiliary$Proxy"><rect codeLine="17" fill="#F1F1F1" height="79.9453" id="HelloWorld$auxiliary$Proxy" rx="3" ry="3" style="stroke:#181818;stroke-width:0.6;" width="249.6738" x="529.8" y="213.6"/><ellipse cx="550.4404" cy="232.8" fill="#ADD1B2" rx="13.2" ry="13.2" style="stroke:#181818;stroke-width:1.2;"/><path d="M553.7592,227.85 Q553.9467,227.5875 554.1717,227.4562 Q554.3967,227.325 554.6592,227.325 Q555.1092,227.325 555.3904,227.6437 Q555.6717,227.9438 555.6717,228.675 L555.6717,230.4188 Q555.6717,231.15 555.3904,231.4688 Q555.1092,231.7875 554.6592,231.7875 Q554.2467,231.7875 554.0029,231.5438 Q553.7592,231.3188 553.6279,230.7 Q553.5717,230.2687 553.3467,230.0438 Q552.9529,229.5938 552.2217,229.3312 Q551.4904,229.0688 550.7404,229.0688 Q549.8217,229.0688 549.0529,229.4625 Q548.3029,229.8563 547.7029,230.7563 Q547.1217,231.6563 547.1217,232.8937 L547.1217,234.2062 Q547.1217,235.6875 548.1904,236.6812 Q549.2592,237.6563 551.1717,237.6563 Q552.2967,237.6563 553.0842,237.3563 Q553.5529,237.1688 554.0592,236.6437 Q554.3779,236.325 554.5467,236.2313 Q554.7342,236.1375 554.9779,236.1375 Q555.3717,236.1375 555.6717,236.4562 Q555.9904,236.7563 555.9904,237.1688 Q555.9904,237.5812 555.5779,238.0688 Q554.9779,238.7625 554.0217,239.1563 Q552.7279,239.7 551.1717,239.7 Q549.3529,239.7 547.9092,238.95 Q546.7279,238.35 545.9029,237.075 Q545.0779,235.7813 545.0779,234.2437 L545.0779,232.8563 Q545.0779,231.2625 545.8092,229.8937 Q546.5592,228.5063 547.8717,227.775 Q549.1842,227.025 550.6654,227.025 Q551.5467,227.025 552.3154,227.2313 Q553.1029,227.4188 553.7592,227.85 Z " fill="#000000"/><text fill="#000000" font-family="sans-serif" font-size="16.8" lengthAdjust="spacing" textLength="205.4063" x="567.8272" y="239.7563">HelloWorld$auxiliary$Proxy</text><line style="stroke:#181818;stroke-width:0.6;" x1="531" x2="778.2738" y1="252" y2="252"/><line style="stroke:#181818;stroke-width:0.6;" x1="531" x2="778.2738" y1="261.6" y2="261.6"/><ellipse cx="543" cy="279.3727" fill="#84BE84" rx="3.6" ry="3.6" style="stroke:#038048;stroke-width:1.2;"/><text fill="#000000" font-family="sans-serif" font-size="16.8" lengthAdjust="spacing" textLength="218.4738" x="553.8" y="284.5289">Object process(Object[] args)</text></g><g id="elem_GMN7"><path d="M511.2,369.6 L511.2,402.3492 A0,0 0 0 0 511.2,402.3492 L798.2637,402.3492 A0,0 0 0 0 798.2637,402.3492 L798.2637,381.6 L786.2637,369.6 L659.4,369.6 L654.6,297.756 L649.8,369.6 L511.2,369.6 A0,0 0 0 0 511.2,369.6 " fill="#FEFFDD" style="stroke:#181818;stroke-width:0.6;"/><path d="M786.2637,369.6 L786.2637,381.6 L798.2637,381.6 L786.2637,369.6 " fill="#FEFFDD" style="stroke:#181818;stroke-width:0.6;"/><text fill="#000000" font-family="sans-serif" font-size="15.6" lengthAdjust="spacing" textLength="261.8637" x="518.4" y="392.434">Proxy Class Generated by ByteBuddy</text></g><!--reverse link HumbleServant to HelloWorld$auxiliary$Proxy--><g id="link_HumbleServant_HelloWorld$auxiliary$Proxy"><path d="M952.4638,124.2941 C937.2238,131.8181 940.776,129.876 925.8,136.8 C871.812,161.736 810.936,187.776 760.548,208.788 " fill="none" id="HumbleServant-backto-HelloWorld$auxiliary$Proxy" style="stroke:#181818;stroke-width:1.2;stroke-dasharray:7.0,7.0;"/><polygon fill="none" points="971.832,114.732,949.2765,117.838,955.6512,130.7501,971.832,114.732" style="stroke:#181818;stroke-width:1.2;"/></g><!--link HelloWorld to HardWorker--><g id="link_HelloWorld_HardWorker"><path codeLine="23" d="M496.2,72.6 C524.04,72.6 519.96,94.2 547.8,94.2 " fill="none" id="HelloWorld-to-HardWorker" style="stroke:#181818;stroke-width:1.2;"/><polygon fill="#181818" points="555,94.2,544.2,89.4,549,94.2,544.2,99,555,94.2" style="stroke:#181818;stroke-width:1.2;"/></g><!--link HardWorker to HumbleServant--><g id="link_HardWorker_HumbleServant"><path codeLine="24" d="M895.8,94.2 C922.464,94.2 921.936,94.2 948.6,94.2 " fill="none" id="HardWorker-to-HumbleServant" style="stroke:#181818;stroke-width:1.2;"/><polygon fill="#181818" points="955.8,94.2,945,89.4,949.8,94.2,945,99,955.8,94.2" style="stroke:#181818;stroke-width:1.2;"/></g><!--reverse link HelloWorld to HelloWorld$auxiliary$Proxy--><g id="link_HelloWorld_HelloWorld$auxiliary$Proxy"><path codeLine="25" d="M503.4,117 C576.036,117 455.964,277.2 528.6,277.2 " fill="none" id="HelloWorld-backto-HelloWorld$auxiliary$Proxy" style="stroke:#181818;stroke-width:1.2;"/><polygon fill="#181818" points="496.2,117,507,121.8,502.2,117,507,112.2,496.2,117" style="stroke:#181818;stroke-width:1.2;"/></g><!--SRC=[VPBBJiCm44Nt_efPHA8LXEuDgg0iw0Q1sWL8Y8NZJ5DJFo9xWXggykqaQHfIeFNAZvbxprpvR4cK1puQvLfOAeo-bCwCf1OXnAaIcHU6iUO8KzJQFJklKzWmgDOvpCahcm5Xe46xjyBW1IXB838SDdLnlovoNcNA2XtT9l94qzVHfaX8YI4u7xsKdqSKjXsqy6d5l4BVGMy22L9o2u_9Eqg2j1vgDRXvS3vVmhGmYSOv-eygZqQe4aM_418FtwvdurPo1hbtDT9Wf_Zw1i9dONZLm-YoYqInLbe9NqPFtgrBK2RNQD1IEDJlU5lC_prg2-i88N54pe1RdF3YiBEyQvZkqQ8NX2aa9KnAmacHfYLZF_sSr-53N8M_f7ZS2vFpNMhixrMll3yEv-q0x0JVlWPYZOj6uXVByO_0lW40]--></g></svg>