<svg xmlns="http://www.w3.org/2000/svg" xmlns:xlink="http://www.w3.org/1999/xlink" contentStyleType="text/css" height="889.2px" preserveAspectRatio="none" style="width:1268px;height:889px;background:#FFFFFF;" version="1.1" viewBox="0 0 1268 889" width="1268.4px" zoomAndPan="magnify"><defs/><g><!--class ITest--><g id="elem_ITest"><rect codeLine="3" fill="#F1F1F1" height="79.9453" id="ITest" rx="3" ry="3" style="stroke:#181818;stroke-width:0.6;" width="251.577" x="171.6" y="8.4"/><ellipse cx="273.6182" cy="27.6" fill="#B4A7E5" rx="13.2" ry="13.2" style="stroke:#181818;stroke-width:1.2;"/><path d="M274.7619,23.5687 L274.7619,31.5563 L276.8244,31.5563 Q277.5557,31.5563 277.8744,31.8375 Q278.1932,32.1188 278.1932,32.5875 Q278.1932,33.0375 277.8744,33.3188 Q277.5557,33.6 276.8244,33.6 L270.6557,33.6 Q269.9244,33.6 269.6057,33.3188 Q269.2869,33.0375 269.2869,32.5688 Q269.2869,32.1188 269.6057,31.8375 Q269.9244,31.5563 270.6557,31.5563 L272.7182,31.5563 L272.7182,23.5687 L270.6557,23.5687 Q269.9244,23.5687 269.6057,23.2875 Q269.2869,23.0062 269.2869,22.5375 Q269.2869,22.0875 269.6057,21.8063 Q269.9244,21.525 270.6557,21.525 L276.8244,21.525 Q277.5557,21.525 277.8744,21.8063 Q278.1932,22.0875 278.1932,22.5375 Q278.1932,23.0062 277.8744,23.2875 Q277.5557,23.5687 276.8244,23.5687 L274.7619,23.5687 Z " fill="#000000"/><text fill="#000000" font-family="sans-serif" font-size="16.8" font-style="italic" lengthAdjust="spacing" textLength="37.3406" x="298.2182" y="34.5563">ITest</text><line style="stroke:#181818;stroke-width:0.6;" x1="172.8" x2="421.977" y1="46.8" y2="46.8"/><line style="stroke:#181818;stroke-width:0.6;" x1="172.8" x2="421.977" y1="56.4" y2="56.4"/><text fill="#000000" font-family="sans-serif" font-size="16.8" font-style="italic" lengthAdjust="spacing" textLength="237.177" x="178.8" y="79.3289">String test(String name, int age)</text></g><!--class GrandParent--><g id="elem_GrandParent"><rect codeLine="6" fill="#F1F1F1" height="102.2906" id="GrandParent" rx="3" ry="3" style="stroke:#181818;stroke-width:0.6;" width="268.377" x="8.4" y="160.8"/><ellipse cx="89.3936" cy="180" fill="#ADD1B2" rx="13.2" ry="13.2" style="stroke:#181818;stroke-width:1.2;"/><path d="M92.7123,175.05 Q92.8998,174.7875 93.1248,174.6563 Q93.3498,174.525 93.6123,174.525 Q94.0623,174.525 94.3436,174.8438 Q94.6248,175.1437 94.6248,175.875 L94.6248,177.6188 Q94.6248,178.35 94.3436,178.6688 Q94.0623,178.9875 93.6123,178.9875 Q93.1998,178.9875 92.9561,178.7438 Q92.7123,178.5187 92.5811,177.9 Q92.5248,177.4688 92.2998,177.2438 Q91.9061,176.7938 91.1748,176.5313 Q90.4436,176.2687 89.6936,176.2687 Q88.7748,176.2687 88.0061,176.6625 Q87.2561,177.0563 86.6561,177.9562 Q86.0748,178.8563 86.0748,180.0938 L86.0748,181.4063 Q86.0748,182.8875 87.1436,183.8813 Q88.2123,184.8563 90.1248,184.8563 Q91.2498,184.8563 92.0373,184.5563 Q92.5061,184.3688 93.0123,183.8438 Q93.3311,183.525 93.4998,183.4313 Q93.6873,183.3375 93.9311,183.3375 Q94.3248,183.3375 94.6248,183.6563 Q94.9436,183.9562 94.9436,184.3688 Q94.9436,184.7813 94.5311,185.2687 Q93.9311,185.9625 92.9748,186.3563 Q91.6811,186.9 90.1248,186.9 Q88.3061,186.9 86.8623,186.15 Q85.6811,185.55 84.8561,184.275 Q84.0311,182.9813 84.0311,181.4438 L84.0311,180.0563 Q84.0311,178.4625 84.7623,177.0938 Q85.5123,175.7062 86.8248,174.975 Q88.1373,174.225 89.6186,174.225 Q90.4998,174.225 91.2686,174.4313 Q92.0561,174.6188 92.7123,175.05 Z " fill="#000000"/><text fill="#000000" font-family="sans-serif" font-size="16.8" lengthAdjust="spacing" textLength="96.1898" x="113.9936" y="186.9562">GrandParent</text><line style="stroke:#181818;stroke-width:0.6;" x1="9.6" x2="275.577" y1="199.2" y2="199.2"/><line style="stroke:#181818;stroke-width:0.6;" x1="9.6" x2="275.577" y1="208.8" y2="208.8"/><ellipse cx="21.6" cy="226.5727" fill="#84BE84" rx="3.6" ry="3.6" style="stroke:#038048;stroke-width:1.2;"/><text fill="#000000" font-family="sans-serif" font-size="16.8" lengthAdjust="spacing" textLength="187.6793" x="32.4" y="231.7289">String sayGoodMorning()</text><ellipse cx="21.6" cy="248.918" fill="#84BE84" rx="3.6" ry="3.6" style="stroke:#038048;stroke-width:1.2;"/><text fill="#000000" font-family="sans-serif" font-size="16.8" lengthAdjust="spacing" textLength="237.177" x="32.4" y="254.0742">String test(String name, int age)</text></g><!--class Parent--><g id="elem_Parent"><rect codeLine="10" fill="#F1F1F1" height="102.2906" id="Parent" rx="3" ry="3" style="stroke:#181818;stroke-width:0.6;" width="268.377" x="64.8" y="334.8"/><ellipse cx="169.1396" cy="354" fill="#ADD1B2" rx="13.2" ry="13.2" style="stroke:#181818;stroke-width:1.2;"/><path d="M172.4584,349.05 Q172.6459,348.7875 172.8709,348.6563 Q173.0959,348.525 173.3584,348.525 Q173.8084,348.525 174.0896,348.8438 Q174.3709,349.1438 174.3709,349.875 L174.3709,351.6188 Q174.3709,352.35 174.0896,352.6688 Q173.8084,352.9875 173.3584,352.9875 Q172.9459,352.9875 172.7021,352.7438 Q172.4584,352.5188 172.3271,351.9 Q172.2709,351.4688 172.0459,351.2438 Q171.6521,350.7938 170.9209,350.5313 Q170.1896,350.2688 169.4396,350.2688 Q168.5209,350.2688 167.7521,350.6625 Q167.0021,351.0563 166.4021,351.9563 Q165.8209,352.8563 165.8209,354.0938 L165.8209,355.4063 Q165.8209,356.8875 166.8896,357.8812 Q167.9584,358.8563 169.8709,358.8563 Q170.9959,358.8563 171.7834,358.5563 Q172.2521,358.3688 172.7584,357.8438 Q173.0771,357.525 173.2459,357.4313 Q173.4334,357.3375 173.6771,357.3375 Q174.0709,357.3375 174.3709,357.6563 Q174.6896,357.9563 174.6896,358.3688 Q174.6896,358.7813 174.2771,359.2688 Q173.6771,359.9625 172.7209,360.3563 Q171.4271,360.9 169.8709,360.9 Q168.0521,360.9 166.6084,360.15 Q165.4271,359.55 164.6021,358.275 Q163.7771,356.9813 163.7771,355.4437 L163.7771,354.0563 Q163.7771,352.4625 164.5084,351.0938 Q165.2584,349.7063 166.5709,348.975 Q167.8834,348.225 169.3646,348.225 Q170.2459,348.225 171.0146,348.4313 Q171.8021,348.6188 172.4584,349.05 Z " fill="#000000"/><text fill="#000000" font-family="sans-serif" font-size="16.8" lengthAdjust="spacing" textLength="49.4977" x="193.7396" y="360.9563">Parent</text><line style="stroke:#181818;stroke-width:0.6;" x1="66" x2="331.977" y1="373.2" y2="373.2"/><line style="stroke:#181818;stroke-width:0.6;" x1="66" x2="331.977" y1="382.8" y2="382.8"/><ellipse cx="78" cy="400.5727" fill="#84BE84" rx="3.6" ry="3.6" style="stroke:#038048;stroke-width:1.2;"/><text fill="#000000" font-family="sans-serif" font-size="16.8" lengthAdjust="spacing" textLength="199.8363" x="88.8" y="405.7289">String sayGoodAfternoon()</text><ellipse cx="78" cy="422.918" fill="#84BE84" rx="3.6" ry="3.6" style="stroke:#038048;stroke-width:1.2;"/><text fill="#000000" font-family="sans-serif" font-size="16.8" lengthAdjust="spacing" textLength="237.177" x="88.8" y="428.0742">String test(String name, int age)</text></g><!--class DefaultTest--><g id="elem_DefaultTest"><rect codeLine="15" fill="#F1F1F1" height="79.9453" id="DefaultTest" rx="3" ry="3" style="stroke:#181818;stroke-width:0.6;" width="268.377" x="319.2" y="171.6"/><ellipse cx="405.3369" cy="190.8" fill="#B4A7E5" rx="13.2" ry="13.2" style="stroke:#181818;stroke-width:1.2;"/><path d="M406.4807,186.7687 L406.4807,194.7563 L408.5432,194.7563 Q409.2744,194.7563 409.5932,195.0375 Q409.9119,195.3188 409.9119,195.7875 Q409.9119,196.2375 409.5932,196.5187 Q409.2744,196.8 408.5432,196.8 L402.3744,196.8 Q401.6432,196.8 401.3244,196.5187 Q401.0057,196.2375 401.0057,195.7687 Q401.0057,195.3188 401.3244,195.0375 Q401.6432,194.7563 402.3744,194.7563 L404.4369,194.7563 L404.4369,186.7687 L402.3744,186.7687 Q401.6432,186.7687 401.3244,186.4875 Q401.0057,186.2062 401.0057,185.7375 Q401.0057,185.2875 401.3244,185.0063 Q401.6432,184.725 402.3744,184.725 L408.5432,184.725 Q409.2744,184.725 409.5932,185.0063 Q409.9119,185.2875 409.9119,185.7375 Q409.9119,186.2062 409.5932,186.4875 Q409.2744,186.7687 408.5432,186.7687 L406.4807,186.7687 Z " fill="#000000"/><text fill="#000000" font-family="sans-serif" font-size="16.8" font-style="italic" lengthAdjust="spacing" textLength="85.9031" x="429.9369" y="197.7563">DefaultTest</text><line style="stroke:#181818;stroke-width:0.6;" x1="320.4" x2="586.377" y1="210" y2="210"/><line style="stroke:#181818;stroke-width:0.6;" x1="320.4" x2="586.377" y1="219.6" y2="219.6"/><ellipse cx="332.4" cy="237.3727" fill="#84BE84" rx="3.6" ry="3.6" style="stroke:#038048;stroke-width:1.2;"/><text fill="#000000" font-family="sans-serif" font-size="16.8" lengthAdjust="spacing" textLength="237.177" x="343.2" y="242.5289">String test(String name, int age)</text></g><!--class HelloWorld--><g id="elem_HelloWorld"><rect codeLine="19" fill="#F1F1F1" height="258.7078" id="HelloWorld" rx="3" ry="3" style="stroke:#181818;stroke-width:0.6;" width="370.1777" x="169.2" y="513.6"/><ellipse cx="308.1117" cy="532.8" fill="#ADD1B2" rx="13.2" ry="13.2" style="stroke:#181818;stroke-width:1.2;"/><path d="M311.4305,527.85 Q311.618,527.5875 311.843,527.4563 Q312.068,527.325 312.3305,527.325 Q312.7805,527.325 313.0617,527.6438 Q313.343,527.9438 313.343,528.675 L313.343,530.4187 Q313.343,531.15 313.0617,531.4688 Q312.7805,531.7875 312.3305,531.7875 Q311.918,531.7875 311.6742,531.5437 Q311.4305,531.3188 311.2992,530.7 Q311.243,530.2688 311.018,530.0437 Q310.6242,529.5938 309.893,529.3313 Q309.1617,529.0688 308.4117,529.0688 Q307.493,529.0688 306.7242,529.4625 Q305.9742,529.8562 305.3742,530.7563 Q304.793,531.6563 304.793,532.8938 L304.793,534.2063 Q304.793,535.6875 305.8617,536.6813 Q306.9305,537.6563 308.843,537.6563 Q309.968,537.6563 310.7555,537.3562 Q311.2242,537.1687 311.7305,536.6438 Q312.0492,536.325 312.218,536.2312 Q312.4055,536.1375 312.6492,536.1375 Q313.043,536.1375 313.343,536.4563 Q313.6617,536.7563 313.6617,537.1687 Q313.6617,537.5813 313.2492,538.0688 Q312.6492,538.7625 311.693,539.1563 Q310.3992,539.7 308.843,539.7 Q307.0242,539.7 305.5805,538.95 Q304.3992,538.35 303.5742,537.075 Q302.7492,535.7813 302.7492,534.2438 L302.7492,532.8562 Q302.7492,531.2625 303.4805,529.8938 Q304.2305,528.5063 305.543,527.775 Q306.8555,527.025 308.3367,527.025 Q309.218,527.025 309.9867,527.2312 Q310.7742,527.4187 311.4305,527.85 Z " fill="#000000"/><text fill="#000000" font-family="sans-serif" font-size="16.8" lengthAdjust="spacing" textLength="82.1543" x="332.7117" y="539.7563">HelloWorld</text><line style="stroke:#181818;stroke-width:0.6;" x1="170.4" x2="538.1777" y1="552" y2="552"/><ellipse cx="182.4" cy="596.918" fill="#84BE84" rx="3.6" ry="3.6" style="stroke:#038048;stroke-width:1.2;"/><text fill="#000000" font-family="sans-serif" font-size="16.8" lengthAdjust="spacing" textLength="166.2035" x="193.2" y="602.0742">String sayGoodNight()</text><ellipse cx="182.4" cy="619.2633" fill="#84BE84" rx="3.6" ry="3.6" style="stroke:#038048;stroke-width:1.2;"/><text fill="#000000" font-family="sans-serif" font-size="16.8" lengthAdjust="spacing" textLength="237.177" x="193.2" y="624.4195">String test(String name, int age)</text><rect fill="#F24D5C" height="7.2" style="stroke:#C82930;stroke-width:1.2;" width="7.2" x="178.8" y="638.0086"/><text fill="#000000" font-family="sans-serif" font-size="16.8" lengthAdjust="spacing" textLength="338.9777" x="193.2" y="646.7648">String test$original$Abc(String name, int age)</text><line style="stroke:#181818;stroke-width:1.2;" x1="170.4" x2="313.2117" y1="572.7727" y2="572.7727"/><text fill="#000000" font-family="sans-serif" font-size="16.8" lengthAdjust="spacing" textLength="82.1543" x="313.2117" y="579.1289">HelloWorld</text><line style="stroke:#181818;stroke-width:1.2;" x1="395.366" x2="538.1777" y1="572.7727" y2="572.7727"/><polygon fill="#4177AF" points="182.4,686.2992,177.6,693.4992,187.2,693.4992" style="stroke:#1963A0;stroke-width:1.2;"/><text fill="#000000" font-family="sans-serif" font-size="16.8" lengthAdjust="spacing" textLength="314.7129" x="193.2" y="696.2555">boolean equals$accessor$Xyz(Object obj)</text><polygon fill="#4177AF" points="182.4,708.6445,177.6,715.8445,187.2,715.8445" style="stroke:#1963A0;stroke-width:1.2;"/><text fill="#000000" font-family="sans-serif" font-size="16.8" lengthAdjust="spacing" textLength="224.1094" x="193.2" y="718.6008">int hashCode$accessor$Xyz()</text><polygon fill="#4177AF" points="182.4,730.9898,177.6,738.1898,187.2,738.1898" style="stroke:#1963A0;stroke-width:1.2;"/><text fill="#000000" font-family="sans-serif" font-size="16.8" lengthAdjust="spacing" textLength="231.5578" x="193.2" y="740.9461">String toString$accessor$Xyz()</text><polygon fill="#4177AF" points="182.4,753.3352,177.6,760.5352,187.2,760.5352" style="stroke:#1963A0;stroke-width:1.2;"/><text fill="#000000" font-family="sans-serif" font-size="16.8" lengthAdjust="spacing" textLength="218.4902" x="193.2" y="763.2914">Object clone$accessor$Xyz()</text><line style="stroke:#181818;stroke-width:1.2;" x1="170.4" x2="330.0117" y1="666.9539" y2="666.9539"/><text fill="#000000" font-family="sans-serif" font-size="16.8" lengthAdjust="spacing" textLength="48.5543" x="330.0117" y="673.3102">Object</text><line style="stroke:#181818;stroke-width:1.2;" x1="378.566" x2="538.1777" y1="666.9539" y2="666.9539"/></g><!--class HardWorker--><g id="elem_HardWorker"><rect codeLine="31" fill="#F1F1F1" height="79.9453" id="HardWorker" rx="3" ry="3" style="stroke:#181818;stroke-width:0.6;" width="315.2906" x="600" y="603"/><ellipse cx="707.2723" cy="622.2" fill="#ADD1B2" rx="13.2" ry="13.2" style="stroke:#181818;stroke-width:1.2;"/><path d="M710.591,617.25 Q710.7785,616.9875 711.0035,616.8562 Q711.2285,616.725 711.491,616.725 Q711.941,616.725 712.2223,617.0437 Q712.5035,617.3438 712.5035,618.075 L712.5035,619.8188 Q712.5035,620.55 712.2223,620.8688 Q711.941,621.1875 711.491,621.1875 Q711.0785,621.1875 710.8348,620.9438 Q710.591,620.7188 710.4598,620.1 Q710.4035,619.6687 710.1785,619.4438 Q709.7848,618.9938 709.0535,618.7312 Q708.3223,618.4688 707.5723,618.4688 Q706.6535,618.4688 705.8848,618.8625 Q705.1348,619.2563 704.5348,620.1563 Q703.9535,621.0563 703.9535,622.2937 L703.9535,623.6062 Q703.9535,625.0875 705.0223,626.0813 Q706.091,627.0563 708.0035,627.0563 Q709.1285,627.0563 709.916,626.7563 Q710.3848,626.5688 710.891,626.0437 Q711.2098,625.725 711.3785,625.6313 Q711.566,625.5375 711.8098,625.5375 Q712.2035,625.5375 712.5035,625.8562 Q712.8223,626.1563 712.8223,626.5688 Q712.8223,626.9812 712.4098,627.4688 Q711.8098,628.1625 710.8535,628.5563 Q709.5598,629.1 708.0035,629.1 Q706.1848,629.1 704.741,628.35 Q703.5598,627.75 702.7348,626.475 Q701.9098,625.1813 701.9098,623.6438 L701.9098,622.2563 Q701.9098,620.6625 702.641,619.2937 Q703.391,617.9063 704.7035,617.175 Q706.016,616.425 707.4973,616.425 Q708.3785,616.425 709.1473,616.6313 Q709.9348,616.8188 710.591,617.25 Z " fill="#000000"/><text fill="#000000" font-family="sans-serif" font-size="16.8" lengthAdjust="spacing" textLength="90.5461" x="731.8723" y="629.1563">HardWorker</text><line style="stroke:#181818;stroke-width:0.6;" x1="601.2" x2="914.0906" y1="641.4" y2="641.4"/><line style="stroke:#181818;stroke-width:0.6;" x1="601.2" x2="914.0906" y1="651" y2="651"/><ellipse cx="613.2" cy="668.7727" fill="#84BE84" rx="3.6" ry="3.6" style="stroke:#038048;stroke-width:1.2;"/><text fill="#000000" font-family="sans-serif" font-size="16.8" lengthAdjust="spacing" text-decoration="underline" textLength="284.0906" x="624" y="673.9289">Object doWork(@Super Object zuper)</text></g><!--class HelloWorld$auxiliary$Proxy--><g id="elem_HelloWorld$auxiliary$Proxy"><rect codeLine="35" fill="#F1F1F1" height="218.8172" id="HelloWorld$auxiliary$Proxy" rx="3" ry="3" style="stroke:#181818;stroke-width:0.6;" width="293.5441" x="966.6" y="533.4"/><ellipse cx="1006.9821" cy="552.6" fill="#ADD1B2" rx="13.2" ry="13.2" style="stroke:#181818;stroke-width:1.2;"/><path d="M1010.3008,547.65 Q1010.4883,547.3875 1010.7133,547.2563 Q1010.9383,547.125 1011.2008,547.125 Q1011.6508,547.125 1011.9321,547.4438 Q1012.2133,547.7438 1012.2133,548.475 L1012.2133,550.2188 Q1012.2133,550.95 1011.9321,551.2688 Q1011.6508,551.5875 1011.2008,551.5875 Q1010.7883,551.5875 1010.5446,551.3438 Q1010.3008,551.1188 1010.1696,550.5 Q1010.1133,550.0688 1009.8883,549.8438 Q1009.4946,549.3938 1008.7633,549.1313 Q1008.0321,548.8688 1007.2821,548.8688 Q1006.3633,548.8688 1005.5946,549.2625 Q1004.8446,549.6563 1004.2446,550.5563 Q1003.6633,551.4563 1003.6633,552.6938 L1003.6633,554.0063 Q1003.6633,555.4875 1004.7321,556.4812 Q1005.8008,557.4563 1007.7133,557.4563 Q1008.8383,557.4563 1009.6258,557.1563 Q1010.0946,556.9688 1010.6008,556.4438 Q1010.9196,556.125 1011.0883,556.0313 Q1011.2758,555.9375 1011.5196,555.9375 Q1011.9133,555.9375 1012.2133,556.2563 Q1012.5321,556.5563 1012.5321,556.9688 Q1012.5321,557.3813 1012.1196,557.8688 Q1011.5196,558.5625 1010.5633,558.9563 Q1009.2696,559.5 1007.7133,559.5 Q1005.8946,559.5 1004.4508,558.75 Q1003.2696,558.15 1002.4446,556.875 Q1001.6196,555.5813 1001.6196,554.0437 L1001.6196,552.6563 Q1001.6196,551.0625 1002.3508,549.6938 Q1003.1008,548.3063 1004.4133,547.575 Q1005.7258,546.825 1007.2071,546.825 Q1008.0883,546.825 1008.8571,547.0313 Q1009.6446,547.2188 1010.3008,547.65 Z " fill="#000000"/><text fill="#000000" font-family="sans-serif" font-size="16.8" lengthAdjust="spacing" textLength="205.4063" x="1028.7558" y="559.5563">HelloWorld$auxiliary$Proxy</text><line style="stroke:#181818;stroke-width:0.6;" x1="967.8" x2="1258.9441" y1="571.8" y2="571.8"/><ellipse cx="979.8" cy="589.5727" fill="none" rx="3.6" ry="3.6" style="stroke:#038048;stroke-width:1.2;"/><text fill="#000000" font-family="sans-serif" font-size="16.8" lengthAdjust="spacing" textLength="129.7816" x="990.6" y="594.7289">HelloWorld target</text><line style="stroke:#181818;stroke-width:1.2;" x1="967.8" x2="1258.9441" y1="603.7453" y2="603.7453"/><polygon fill="#4177AF" points="979.8,616.718,975,623.918,984.6,623.918" style="stroke:#1963A0;stroke-width:1.2;"/><text fill="#000000" font-family="sans-serif" font-size="16.8" lengthAdjust="spacing" text-decoration="underline" textLength="262.3441" x="990.6" y="626.6742">HelloWorld$auxiliary$Proxy make()</text><ellipse cx="979.8" cy="671.0086" fill="#84BE84" rx="3.6" ry="3.6" style="stroke:#038048;stroke-width:1.2;"/><text fill="#000000" font-family="sans-serif" font-size="16.8" lengthAdjust="spacing" textLength="200.7961" x="990.6" y="676.1648">boolean equals(Object obj)</text><ellipse cx="979.8" cy="693.3539" fill="#84BE84" rx="3.6" ry="3.6" style="stroke:#038048;stroke-width:1.2;"/><text fill="#000000" font-family="sans-serif" font-size="16.8" lengthAdjust="spacing" textLength="110.1926" x="990.6" y="698.5102">int hashCode()</text><ellipse cx="979.8" cy="715.6992" fill="#84BE84" rx="3.6" ry="3.6" style="stroke:#038048;stroke-width:1.2;"/><text fill="#000000" font-family="sans-serif" font-size="16.8" lengthAdjust="spacing" textLength="117.641" x="990.6" y="720.8555">String toString()</text><polygon fill="#FFFF44" points="979.8,732.0445,984.6,736.8445,979.8,741.6445,975,736.8445" style="stroke:#B38D22;stroke-width:1.2;"/><text fill="#000000" font-family="sans-serif" font-size="16.8" lengthAdjust="spacing" textLength="104.5734" x="990.6" y="743.2008">Object clone()</text><line style="stroke:#181818;stroke-width:1.2;" x1="967.8" x2="1089.0949" y1="646.8633" y2="646.8633"/><text fill="#000000" font-family="sans-serif" font-size="16.8" lengthAdjust="spacing" textLength="48.5543" x="1089.0949" y="653.2195">Object</text><line style="stroke:#181818;stroke-width:1.2;" x1="1137.6492" x2="1258.9441" y1="646.8633" y2="646.8633"/></g><!--class Object--><g id="elem_Object"><rect fill="#F1F1F1" height="57.6" id="Object" rx="3" ry="3" style="stroke:#181818;stroke-width:0.6;" width="86.9543" x="1070.4" y="357"/><ellipse cx="1088.4" cy="376.2" fill="#ADD1B2" rx="13.2" ry="13.2" style="stroke:#181818;stroke-width:1.2;"/><path d="M1091.7188,371.25 Q1091.9063,370.9875 1092.1313,370.8563 Q1092.3563,370.725 1092.6187,370.725 Q1093.0688,370.725 1093.35,371.0438 Q1093.6313,371.3438 1093.6313,372.075 L1093.6313,373.8187 Q1093.6313,374.55 1093.35,374.8688 Q1093.0688,375.1875 1092.6187,375.1875 Q1092.2063,375.1875 1091.9625,374.9437 Q1091.7188,374.7188 1091.5875,374.1 Q1091.5313,373.6688 1091.3062,373.4437 Q1090.9125,372.9938 1090.1812,372.7313 Q1089.45,372.4688 1088.7,372.4688 Q1087.7813,372.4688 1087.0125,372.8625 Q1086.2625,373.2562 1085.6625,374.1563 Q1085.0813,375.0563 1085.0813,376.2938 L1085.0813,377.6063 Q1085.0813,379.0875 1086.15,380.0813 Q1087.2188,381.0563 1089.1313,381.0563 Q1090.2563,381.0563 1091.0438,380.7562 Q1091.5125,380.5687 1092.0188,380.0438 Q1092.3375,379.725 1092.5063,379.6312 Q1092.6938,379.5375 1092.9375,379.5375 Q1093.3313,379.5375 1093.6313,379.8563 Q1093.95,380.1563 1093.95,380.5687 Q1093.95,380.9813 1093.5375,381.4688 Q1092.9375,382.1625 1091.9813,382.5563 Q1090.6875,383.1 1089.1313,383.1 Q1087.3125,383.1 1085.8687,382.35 Q1084.6875,381.75 1083.8625,380.475 Q1083.0375,379.1813 1083.0375,377.6438 L1083.0375,376.2562 Q1083.0375,374.6625 1083.7688,373.2938 Q1084.5188,371.9063 1085.8313,371.175 Q1087.1438,370.425 1088.625,370.425 Q1089.5063,370.425 1090.275,370.6312 Q1091.0625,370.8187 1091.7188,371.25 Z " fill="#000000"/><text fill="#000000" font-family="sans-serif" font-size="16.8" lengthAdjust="spacing" textLength="48.5543" x="1105.2" y="383.1563">Object</text><line style="stroke:#181818;stroke-width:0.6;" x1="1071.6" x2="1156.1543" y1="395.4" y2="395.4"/><line style="stroke:#181818;stroke-width:0.6;" x1="1071.6" x2="1156.1543" y1="405" y2="405"/></g><g id="elem_GMN16"><path d="M970.2,848.4 L970.2,881.1492 A0,0 0 0 0 970.2,881.1492 L1257.2637,881.1492 A0,0 0 0 0 1257.2637,881.1492 L1257.2637,860.4 L1245.2637,848.4 L1118.4,848.4 L1113.6,751.992 L1108.8,848.4 L970.2,848.4 A0,0 0 0 0 970.2,848.4 " fill="#FEFFDD" style="stroke:#181818;stroke-width:0.6;"/><path d="M1245.2637,848.4 L1245.2637,860.4 L1257.2637,860.4 L1245.2637,848.4 " fill="#FEFFDD" style="stroke:#181818;stroke-width:0.6;"/><text fill="#000000" font-family="sans-serif" font-size="15.6" lengthAdjust="spacing" textLength="261.8637" x="977.4" y="871.234">Proxy Class Generated by ByteBuddy</text></g><!--reverse link ITest to GrandParent--><g id="link_ITest_GrandParent"><path d="M244.7517,104.701 C223.9917,126.277 213.012,137.664 190.836,160.704 " fill="none" id="ITest-backto-GrandParent" style="stroke:#181818;stroke-width:1.2;stroke-dasharray:7.0,7.0;"/><polygon fill="none" points="259.728,89.136,239.5633,99.7089,249.94,109.6931,259.728,89.136" style="stroke:#181818;stroke-width:1.2;"/></g><!--reverse link GrandParent to Parent--><g id="link_GrandParent_Parent"><path d="M166.0126,283.6187 C173.4286,306.1667 175.404,312.216 182.808,334.74 " fill="none" id="GrandParent-backto-Parent" style="stroke:#181818;stroke-width:1.2;"/><polygon fill="none" points="159.264,263.1,159.173,285.8682,172.8521,281.3692,159.264,263.1" style="stroke:#181818;stroke-width:1.2;"/></g><!--reverse link ITest to DefaultTest--><g id="link_ITest_DefaultTest"><path d="M350.8004,104.6391 C374.9804,129.5631 391.092,146.16 415.296,171.108 " fill="none" id="ITest-backto-DefaultTest" style="stroke:#181818;stroke-width:1.2;"/><polygon fill="none" points="335.76,89.136,345.6326,109.6526,355.9681,99.6257,335.76,89.136" style="stroke:#181818;stroke-width:1.2;"/></g><!--reverse link Parent to HelloWorld--><g id="link_Parent_HelloWorld"><path d="M240.8245,455.4081 C253.5085,476.2521 257.664,483.084 273.24,508.668 " fill="none" id="Parent-backto-HelloWorld" style="stroke:#181818;stroke-width:1.2;"/><polygon fill="none" points="229.596,436.956,234.6738,459.151,246.9752,451.6653,229.596,436.956" style="stroke:#181818;stroke-width:1.2;"/></g><!--reverse link DefaultTest to HelloWorld--><g id="link_DefaultTest_HelloWorld"><path d="M439.6024,273.1953 C426.2104,330.8193 405.432,420.192 384.84,508.74 " fill="none" id="DefaultTest-backto-HelloWorld" style="stroke:#181818;stroke-width:1.2;stroke-dasharray:7.0,7.0;"/><polygon fill="none" points="444.492,252.156,432.5893,271.5654,446.6155,274.8252,444.492,252.156" style="stroke:#181818;stroke-width:1.2;"/></g><!--reverse link Object to HelloWorld$auxiliary$Proxy--><g id="link_Object_HelloWorld$auxiliary$Proxy"><path d="M1113.6,436.308 C1113.6,464.904 1113.6,489.72 1113.6,533.124 " fill="none" id="Object-backto-HelloWorld$auxiliary$Proxy" style="stroke:#181818;stroke-width:1.2;"/><polygon fill="none" points="1113.6,414.708,1106.4,436.308,1120.8,436.308,1113.6,414.708" style="stroke:#181818;stroke-width:1.2;"/></g><!--link HelloWorld to HardWorker--><g id="link_HelloWorld_HardWorker"><path codeLine="48" d="M540,617.4 C574.08,617.4 557.52,666.6 591.6,666.6 " fill="none" id="HelloWorld-to-HardWorker" style="stroke:#181818;stroke-width:1.2;"/><polygon fill="#181818" points="598.8,666.6,588,661.8,592.8,666.6,588,671.4,598.8,666.6" style="stroke:#181818;stroke-width:1.2;"/></g><!--link HardWorker to HelloWorld$auxiliary$Proxy--><g id="link_HardWorker_HelloWorld$auxiliary$Proxy"><path codeLine="49" d="M915.6,666.6 C932.124,670.428 942.1808,672.2556 959.2928,673.2756 " fill="none" id="HardWorker-to-HelloWorld$auxiliary$Proxy" style="stroke:#181818;stroke-width:1.2;"/><polygon fill="#181818" points="966.48,673.704,955.9847,668.2699,960.4906,673.347,955.4135,677.8529,966.48,673.704" style="stroke:#181818;stroke-width:1.2;"/></g><!--SRC=[bLJBRjim4BphAmXKG6Mugkyw54rI8EsXRO0KQAyhSYqpfhWkkGAi6EwtbxOeHueSjz69ZzcPdLb2RrVC6ryi5Xi3bflQl9TKBwG1xtEbeN9G9ucsZ6u94iMN7-XPx18HlXsKdXr8tejxTjfMWiDb5jSMQdmdGgM02cV9FZboYbi7Ljs1mt2Xwut1EgpyY7VUqtbeRudKLt8sRBFP-FO_nA8ERXcj6ckVbxfQ1gEMoBvAR93F9rn2O_Zevb_sBdDs3ZwZCVIJd54d5zFmXgATHfuFA_FyhDblkbhnAumUYOUub9okj0MJNfNoKb4klfSFABdlv8yeYGo25VYx0UDJa1Az9vV-QX-pYANoOHRH1xOL-DKDAHnZUqJV5NMByw18B0tP2SrJuk1KY6sDxZIldMTWBVSzWJhakiu-tZURW8g7ZuVDsScbq6orqU3QzCxHjZrDCbRsCeE9CRWAEOONkpzrSO6vXZLcBuG-VnRw9EVvAEV9muZHnlCtepIx02qn1X5cgWKjB_HPYAxTc-wNW1OTC2fHjkAwPRnkb6gJvAc-A0xFJUJky6Bp3uCP5KKtZ6HwD82_s4Zo5m00]--></g></svg>