<svg xmlns="http://www.w3.org/2000/svg" xmlns:xlink="http://www.w3.org/1999/xlink" contentStyleType="text/css" height="912px" preserveAspectRatio="none" style="width:1212px;height:912px;background:#FFFFFF;" version="1.1" viewBox="0 0 1212 912" width="1212px" zoomAndPan="magnify"><defs/><g><!--class ITest--><g id="elem_ITest"><rect codeLine="3" fill="#F1F1F1" height="79.9453" id="ITest" rx="3" ry="3" style="stroke:#181818;stroke-width:0.6;" width="251.577" x="437.4" y="8.4"/><ellipse cx="539.4182" cy="27.6" fill="#B4A7E5" rx="13.2" ry="13.2" style="stroke:#181818;stroke-width:1.2;"/><path d="M540.5619,23.5687 L540.5619,31.5563 L542.6244,31.5563 Q543.3557,31.5563 543.6744,31.8375 Q543.9932,32.1188 543.9932,32.5875 Q543.9932,33.0375 543.6744,33.3188 Q543.3557,33.6 542.6244,33.6 L536.4557,33.6 Q535.7244,33.6 535.4057,33.3188 Q535.0869,33.0375 535.0869,32.5688 Q535.0869,32.1188 535.4057,31.8375 Q535.7244,31.5563 536.4557,31.5563 L538.5182,31.5563 L538.5182,23.5687 L536.4557,23.5687 Q535.7244,23.5687 535.4057,23.2875 Q535.0869,23.0062 535.0869,22.5375 Q535.0869,22.0875 535.4057,21.8063 Q535.7244,21.525 536.4557,21.525 L542.6244,21.525 Q543.3557,21.525 543.6744,21.8063 Q543.9932,22.0875 543.9932,22.5375 Q543.9932,23.0062 543.6744,23.2875 Q543.3557,23.5687 542.6244,23.5687 L540.5619,23.5687 Z " fill="#000000"/><text fill="#000000" font-family="sans-serif" font-size="16.8" font-style="italic" lengthAdjust="spacing" textLength="37.3406" x="564.0182" y="34.5563">ITest</text><line style="stroke:#181818;stroke-width:0.6;" x1="438.6" x2="687.777" y1="46.8" y2="46.8"/><line style="stroke:#181818;stroke-width:0.6;" x1="438.6" x2="687.777" y1="56.4" y2="56.4"/><text fill="#000000" font-family="sans-serif" font-size="16.8" font-style="italic" lengthAdjust="spacing" textLength="237.177" x="444.6" y="79.3289">String test(String name, int age)</text></g><!--class GrandParent--><g id="elem_GrandParent"><rect codeLine="6" fill="#F1F1F1" height="102.2906" id="GrandParent" rx="3" ry="3" style="stroke:#181818;stroke-width:0.6;" width="268.377" x="174.6" y="160.8"/><ellipse cx="255.5936" cy="180" fill="#ADD1B2" rx="13.2" ry="13.2" style="stroke:#181818;stroke-width:1.2;"/><path d="M258.9123,175.05 Q259.0998,174.7875 259.3248,174.6563 Q259.5498,174.525 259.8123,174.525 Q260.2623,174.525 260.5436,174.8438 Q260.8248,175.1437 260.8248,175.875 L260.8248,177.6188 Q260.8248,178.35 260.5436,178.6688 Q260.2623,178.9875 259.8123,178.9875 Q259.3998,178.9875 259.1561,178.7438 Q258.9123,178.5187 258.7811,177.9 Q258.7248,177.4688 258.4998,177.2438 Q258.1061,176.7938 257.3748,176.5313 Q256.6436,176.2687 255.8936,176.2687 Q254.9748,176.2687 254.2061,176.6625 Q253.4561,177.0563 252.8561,177.9562 Q252.2748,178.8563 252.2748,180.0938 L252.2748,181.4063 Q252.2748,182.8875 253.3436,183.8813 Q254.4123,184.8563 256.3248,184.8563 Q257.4498,184.8563 258.2373,184.5563 Q258.7061,184.3688 259.2123,183.8438 Q259.5311,183.525 259.6998,183.4313 Q259.8873,183.3375 260.1311,183.3375 Q260.5248,183.3375 260.8248,183.6563 Q261.1436,183.9562 261.1436,184.3688 Q261.1436,184.7813 260.7311,185.2687 Q260.1311,185.9625 259.1748,186.3563 Q257.8811,186.9 256.3248,186.9 Q254.5061,186.9 253.0623,186.15 Q251.8811,185.55 251.0561,184.275 Q250.2311,182.9813 250.2311,181.4438 L250.2311,180.0563 Q250.2311,178.4625 250.9623,177.0938 Q251.7123,175.7062 253.0248,174.975 Q254.3373,174.225 255.8186,174.225 Q256.6998,174.225 257.4686,174.4313 Q258.2561,174.6188 258.9123,175.05 Z " fill="#000000"/><text fill="#000000" font-family="sans-serif" font-size="16.8" lengthAdjust="spacing" textLength="96.1898" x="280.1936" y="186.9562">GrandParent</text><line style="stroke:#181818;stroke-width:0.6;" x1="175.8" x2="441.777" y1="199.2" y2="199.2"/><line style="stroke:#181818;stroke-width:0.6;" x1="175.8" x2="441.777" y1="208.8" y2="208.8"/><ellipse cx="187.8" cy="226.5727" fill="#84BE84" rx="3.6" ry="3.6" style="stroke:#038048;stroke-width:1.2;"/><text fill="#000000" font-family="sans-serif" font-size="16.8" lengthAdjust="spacing" textLength="187.6793" x="198.6" y="231.7289">String sayGoodMorning()</text><ellipse cx="187.8" cy="248.918" fill="#84BE84" rx="3.6" ry="3.6" style="stroke:#038048;stroke-width:1.2;"/><text fill="#000000" font-family="sans-serif" font-size="16.8" lengthAdjust="spacing" textLength="237.177" x="198.6" y="254.0742">String test(String name, int age)</text></g><!--class Parent--><g id="elem_Parent"><rect codeLine="10" fill="#F1F1F1" height="102.2906" id="Parent" rx="3" ry="3" style="stroke:#181818;stroke-width:0.6;" width="268.377" x="118.2" y="334.8"/><ellipse cx="222.5396" cy="354" fill="#ADD1B2" rx="13.2" ry="13.2" style="stroke:#181818;stroke-width:1.2;"/><path d="M225.8584,349.05 Q226.0459,348.7875 226.2709,348.6563 Q226.4959,348.525 226.7584,348.525 Q227.2084,348.525 227.4896,348.8438 Q227.7709,349.1438 227.7709,349.875 L227.7709,351.6188 Q227.7709,352.35 227.4896,352.6688 Q227.2084,352.9875 226.7584,352.9875 Q226.3459,352.9875 226.1021,352.7438 Q225.8584,352.5188 225.7271,351.9 Q225.6709,351.4688 225.4459,351.2438 Q225.0521,350.7938 224.3209,350.5313 Q223.5896,350.2688 222.8396,350.2688 Q221.9209,350.2688 221.1521,350.6625 Q220.4021,351.0563 219.8021,351.9563 Q219.2209,352.8563 219.2209,354.0938 L219.2209,355.4063 Q219.2209,356.8875 220.2896,357.8812 Q221.3584,358.8563 223.2709,358.8563 Q224.3959,358.8563 225.1834,358.5563 Q225.6521,358.3688 226.1584,357.8438 Q226.4771,357.525 226.6459,357.4313 Q226.8334,357.3375 227.0771,357.3375 Q227.4709,357.3375 227.7709,357.6563 Q228.0896,357.9563 228.0896,358.3688 Q228.0896,358.7813 227.6771,359.2688 Q227.0771,359.9625 226.1209,360.3563 Q224.8271,360.9 223.2709,360.9 Q221.4521,360.9 220.0084,360.15 Q218.8271,359.55 218.0021,358.275 Q217.1771,356.9813 217.1771,355.4437 L217.1771,354.0563 Q217.1771,352.4625 217.9084,351.0938 Q218.6584,349.7063 219.9709,348.975 Q221.2834,348.225 222.7646,348.225 Q223.6459,348.225 224.4146,348.4313 Q225.2021,348.6188 225.8584,349.05 Z " fill="#000000"/><text fill="#000000" font-family="sans-serif" font-size="16.8" lengthAdjust="spacing" textLength="49.4977" x="247.1396" y="360.9563">Parent</text><line style="stroke:#181818;stroke-width:0.6;" x1="119.4" x2="385.377" y1="373.2" y2="373.2"/><line style="stroke:#181818;stroke-width:0.6;" x1="119.4" x2="385.377" y1="382.8" y2="382.8"/><ellipse cx="131.4" cy="400.5727" fill="#84BE84" rx="3.6" ry="3.6" style="stroke:#038048;stroke-width:1.2;"/><text fill="#000000" font-family="sans-serif" font-size="16.8" lengthAdjust="spacing" textLength="199.8363" x="142.2" y="405.7289">String sayGoodAfternoon()</text><ellipse cx="131.4" cy="422.918" fill="#84BE84" rx="3.6" ry="3.6" style="stroke:#038048;stroke-width:1.2;"/><text fill="#000000" font-family="sans-serif" font-size="16.8" lengthAdjust="spacing" textLength="237.177" x="142.2" y="428.0742">String test(String name, int age)</text></g><!--class DefaultTest--><g id="elem_DefaultTest"><rect codeLine="15" fill="#F1F1F1" height="79.9453" id="DefaultTest" rx="3" ry="3" style="stroke:#181818;stroke-width:0.6;" width="268.377" x="429" y="345.6"/><ellipse cx="515.1369" cy="364.8" fill="#B4A7E5" rx="13.2" ry="13.2" style="stroke:#181818;stroke-width:1.2;"/><path d="M516.2807,360.7688 L516.2807,368.7562 L518.3432,368.7562 Q519.0744,368.7562 519.3932,369.0375 Q519.7119,369.3187 519.7119,369.7875 Q519.7119,370.2375 519.3932,370.5188 Q519.0744,370.8 518.3432,370.8 L512.1744,370.8 Q511.4432,370.8 511.1244,370.5188 Q510.8057,370.2375 510.8057,369.7688 Q510.8057,369.3187 511.1244,369.0375 Q511.4432,368.7562 512.1744,368.7562 L514.2369,368.7562 L514.2369,360.7688 L512.1744,360.7688 Q511.4432,360.7688 511.1244,360.4875 Q510.8057,360.2063 510.8057,359.7375 Q510.8057,359.2875 511.1244,359.0062 Q511.4432,358.725 512.1744,358.725 L518.3432,358.725 Q519.0744,358.725 519.3932,359.0062 Q519.7119,359.2875 519.7119,359.7375 Q519.7119,360.2063 519.3932,360.4875 Q519.0744,360.7688 518.3432,360.7688 L516.2807,360.7688 Z " fill="#000000"/><text fill="#000000" font-family="sans-serif" font-size="16.8" font-style="italic" lengthAdjust="spacing" textLength="85.9031" x="539.7369" y="371.7562">DefaultTest</text><line style="stroke:#181818;stroke-width:0.6;" x1="430.2" x2="696.177" y1="384" y2="384"/><line style="stroke:#181818;stroke-width:0.6;" x1="430.2" x2="696.177" y1="393.6" y2="393.6"/><ellipse cx="442.2" cy="411.3727" fill="#84BE84" rx="3.6" ry="3.6" style="stroke:#038048;stroke-width:1.2;"/><text fill="#000000" font-family="sans-serif" font-size="16.8" lengthAdjust="spacing" textLength="237.177" x="453" y="416.5289">String test(String name, int age)</text></g><!--class HelloWorld--><g id="elem_HelloWorld"><rect codeLine="19" fill="#F1F1F1" height="281.0531" id="HelloWorld" rx="3" ry="3" style="stroke:#181818;stroke-width:0.6;" width="484.0945" x="10.8" y="513.6"/><ellipse cx="206.6701" cy="532.8" fill="#ADD1B2" rx="13.2" ry="13.2" style="stroke:#181818;stroke-width:1.2;"/><path d="M209.9889,527.85 Q210.1764,527.5875 210.4014,527.4563 Q210.6264,527.325 210.8889,527.325 Q211.3389,527.325 211.6201,527.6438 Q211.9014,527.9438 211.9014,528.675 L211.9014,530.4187 Q211.9014,531.15 211.6201,531.4688 Q211.3389,531.7875 210.8889,531.7875 Q210.4764,531.7875 210.2326,531.5437 Q209.9889,531.3188 209.8576,530.7 Q209.8014,530.2688 209.5764,530.0437 Q209.1826,529.5938 208.4514,529.3313 Q207.7201,529.0688 206.9701,529.0688 Q206.0514,529.0688 205.2826,529.4625 Q204.5326,529.8562 203.9326,530.7563 Q203.3514,531.6563 203.3514,532.8938 L203.3514,534.2063 Q203.3514,535.6875 204.4201,536.6813 Q205.4889,537.6563 207.4014,537.6563 Q208.5264,537.6563 209.3139,537.3562 Q209.7826,537.1687 210.2889,536.6438 Q210.6076,536.325 210.7764,536.2312 Q210.9639,536.1375 211.2076,536.1375 Q211.6014,536.1375 211.9014,536.4563 Q212.2201,536.7563 212.2201,537.1687 Q212.2201,537.5813 211.8076,538.0688 Q211.2076,538.7625 210.2514,539.1563 Q208.9576,539.7 207.4014,539.7 Q205.5826,539.7 204.1389,538.95 Q202.9576,538.35 202.1326,537.075 Q201.3076,535.7813 201.3076,534.2438 L201.3076,532.8562 Q201.3076,531.2625 202.0389,529.8938 Q202.7889,528.5063 204.1014,527.775 Q205.4139,527.025 206.8951,527.025 Q207.7764,527.025 208.5451,527.2312 Q209.3326,527.4187 209.9889,527.85 Z " fill="#000000"/><text fill="#000000" font-family="sans-serif" font-size="16.8" lengthAdjust="spacing" textLength="82.1543" x="231.2701" y="539.7563">HelloWorld</text><line style="stroke:#181818;stroke-width:0.6;" x1="12" x2="493.6945" y1="552" y2="552"/><ellipse cx="24" cy="596.918" fill="#84BE84" rx="3.6" ry="3.6" style="stroke:#038048;stroke-width:1.2;"/><text fill="#000000" font-family="sans-serif" font-size="16.8" lengthAdjust="spacing" textLength="166.2035" x="34.8" y="602.0742">String sayGoodNight()</text><ellipse cx="24" cy="619.2633" fill="#84BE84" rx="3.6" ry="3.6" style="stroke:#038048;stroke-width:1.2;"/><text fill="#000000" font-family="sans-serif" font-size="16.8" lengthAdjust="spacing" textLength="237.177" x="34.8" y="624.4195">String test(String name, int age)</text><rect fill="#F24D5C" height="7.2" style="stroke:#C82930;stroke-width:1.2;" width="7.2" x="20.4" y="638.0086"/><text fill="#000000" font-family="sans-serif" font-size="16.8" lengthAdjust="spacing" textLength="338.9777" x="34.8" y="646.7648">String test$original$Abc(String name, int age)</text><polygon fill="#4177AF" points="24,659.1539,19.2,666.3539,28.8,666.3539" style="stroke:#1963A0;stroke-width:1.2;"/><text fill="#000000" font-family="sans-serif" font-size="16.8" lengthAdjust="spacing" textLength="452.8945" x="34.8" y="669.1102">String test$original$Abc$accessor$Xyz(String name, int age)</text><line style="stroke:#181818;stroke-width:1.2;" x1="12" x2="211.7701" y1="572.7727" y2="572.7727"/><text fill="#000000" font-family="sans-serif" font-size="16.8" lengthAdjust="spacing" textLength="82.1543" x="211.7701" y="579.1289">HelloWorld</text><line style="stroke:#181818;stroke-width:1.2;" x1="293.9244" x2="493.6945" y1="572.7727" y2="572.7727"/><polygon fill="#4177AF" points="24,708.6445,19.2,715.8445,28.8,715.8445" style="stroke:#1963A0;stroke-width:1.2;"/><text fill="#000000" font-family="sans-serif" font-size="16.8" lengthAdjust="spacing" textLength="314.7129" x="34.8" y="718.6008">boolean equals$accessor$Xyz(Object obj)</text><polygon fill="#4177AF" points="24,730.9898,19.2,738.1898,28.8,738.1898" style="stroke:#1963A0;stroke-width:1.2;"/><text fill="#000000" font-family="sans-serif" font-size="16.8" lengthAdjust="spacing" textLength="224.1094" x="34.8" y="740.9461">int hashCode$accessor$Xyz()</text><polygon fill="#4177AF" points="24,753.3352,19.2,760.5352,28.8,760.5352" style="stroke:#1963A0;stroke-width:1.2;"/><text fill="#000000" font-family="sans-serif" font-size="16.8" lengthAdjust="spacing" textLength="231.5578" x="34.8" y="763.2914">String toString$accessor$Xyz()</text><polygon fill="#4177AF" points="24,775.6805,19.2,782.8805,28.8,782.8805" style="stroke:#1963A0;stroke-width:1.2;"/><text fill="#000000" font-family="sans-serif" font-size="16.8" lengthAdjust="spacing" textLength="218.4902" x="34.8" y="785.6367">Object clone$accessor$Xyz()</text><line style="stroke:#181818;stroke-width:1.2;" x1="12" x2="228.5701" y1="689.2992" y2="689.2992"/><text fill="#000000" font-family="sans-serif" font-size="16.8" lengthAdjust="spacing" textLength="48.5543" x="228.5701" y="695.6555">Object</text><line style="stroke:#181818;stroke-width:1.2;" x1="277.1244" x2="493.6945" y1="689.2992" y2="689.2992"/></g><!--class HardWorker--><g id="elem_HardWorker"><rect codeLine="32" fill="#F1F1F1" height="79.9453" id="HardWorker" rx="3" ry="3" style="stroke:#181818;stroke-width:0.6;" width="304.077" x="555.6" y="614.4"/><ellipse cx="657.2654" cy="633.6" fill="#ADD1B2" rx="13.2" ry="13.2" style="stroke:#181818;stroke-width:1.2;"/><path d="M660.5842,628.65 Q660.7717,628.3875 660.9967,628.2563 Q661.2217,628.125 661.4842,628.125 Q661.9342,628.125 662.2154,628.4438 Q662.4967,628.7438 662.4967,629.475 L662.4967,631.2188 Q662.4967,631.95 662.2154,632.2688 Q661.9342,632.5875 661.4842,632.5875 Q661.0717,632.5875 660.8279,632.3438 Q660.5842,632.1188 660.4529,631.5 Q660.3967,631.0688 660.1717,630.8438 Q659.7779,630.3938 659.0467,630.1313 Q658.3154,629.8688 657.5654,629.8688 Q656.6467,629.8688 655.8779,630.2625 Q655.1279,630.6563 654.5279,631.5563 Q653.9467,632.4563 653.9467,633.6938 L653.9467,635.0063 Q653.9467,636.4875 655.0154,637.4812 Q656.0842,638.4563 657.9967,638.4563 Q659.1217,638.4563 659.9092,638.1563 Q660.3779,637.9688 660.8842,637.4438 Q661.2029,637.125 661.3717,637.0313 Q661.5592,636.9375 661.8029,636.9375 Q662.1967,636.9375 662.4967,637.2563 Q662.8154,637.5563 662.8154,637.9688 Q662.8154,638.3813 662.4029,638.8688 Q661.8029,639.5625 660.8467,639.9563 Q659.5529,640.5 657.9967,640.5 Q656.1779,640.5 654.7342,639.75 Q653.5529,639.15 652.7279,637.875 Q651.9029,636.5813 651.9029,635.0437 L651.9029,633.6563 Q651.9029,632.0625 652.6342,630.6938 Q653.3842,629.3063 654.6967,628.575 Q656.0092,627.825 657.4904,627.825 Q658.3717,627.825 659.1404,628.0313 Q659.9279,628.2188 660.5842,628.65 Z " fill="#000000"/><text fill="#000000" font-family="sans-serif" font-size="16.8" lengthAdjust="spacing" textLength="90.5461" x="681.8654" y="640.5563">HardWorker</text><line style="stroke:#181818;stroke-width:0.6;" x1="556.8" x2="858.477" y1="652.8" y2="652.8"/><line style="stroke:#181818;stroke-width:0.6;" x1="556.8" x2="858.477" y1="662.4" y2="662.4"/><ellipse cx="568.8" cy="680.1727" fill="#84BE84" rx="3.6" ry="3.6" style="stroke:#038048;stroke-width:1.2;"/><text fill="#000000" font-family="sans-serif" font-size="16.8" lengthAdjust="spacing" text-decoration="underline" textLength="272.877" x="579.6" y="685.3289">Object doWork(@Super ITest zuper)</text></g><!--class HelloWorld$auxiliary$Proxy--><g id="elem_HelloWorld$auxiliary$Proxy"><rect codeLine="36" fill="#F1F1F1" height="268.3078" id="HelloWorld$auxiliary$Proxy" rx="3" ry="3" style="stroke:#181818;stroke-width:0.6;" width="293.5441" x="910.8" y="519.6"/><ellipse cx="951.1821" cy="538.8" fill="#ADD1B2" rx="13.2" ry="13.2" style="stroke:#181818;stroke-width:1.2;"/><path d="M954.5008,533.85 Q954.6883,533.5875 954.9133,533.4563 Q955.1383,533.325 955.4008,533.325 Q955.8508,533.325 956.1321,533.6438 Q956.4133,533.9438 956.4133,534.675 L956.4133,536.4187 Q956.4133,537.15 956.1321,537.4688 Q955.8508,537.7875 955.4008,537.7875 Q954.9883,537.7875 954.7446,537.5437 Q954.5008,537.3188 954.3696,536.7 Q954.3133,536.2688 954.0883,536.0437 Q953.6946,535.5938 952.9633,535.3313 Q952.2321,535.0688 951.4821,535.0688 Q950.5633,535.0688 949.7946,535.4625 Q949.0446,535.8562 948.4446,536.7563 Q947.8633,537.6563 947.8633,538.8938 L947.8633,540.2063 Q947.8633,541.6875 948.9321,542.6813 Q950.0008,543.6563 951.9133,543.6563 Q953.0383,543.6563 953.8258,543.3562 Q954.2946,543.1687 954.8008,542.6438 Q955.1196,542.325 955.2883,542.2312 Q955.4758,542.1375 955.7196,542.1375 Q956.1133,542.1375 956.4133,542.4563 Q956.7321,542.7563 956.7321,543.1687 Q956.7321,543.5813 956.3196,544.0688 Q955.7196,544.7625 954.7633,545.1563 Q953.4696,545.7 951.9133,545.7 Q950.0946,545.7 948.6508,544.95 Q947.4696,544.35 946.6446,543.075 Q945.8196,541.7813 945.8196,540.2438 L945.8196,538.8562 Q945.8196,537.2625 946.5508,535.8938 Q947.3008,534.5063 948.6133,533.775 Q949.9258,533.025 951.4071,533.025 Q952.2883,533.025 953.0571,533.2312 Q953.8446,533.4187 954.5008,533.85 Z " fill="#000000"/><text fill="#000000" font-family="sans-serif" font-size="16.8" lengthAdjust="spacing" textLength="205.4063" x="972.9558" y="545.7563">HelloWorld$auxiliary$Proxy</text><line style="stroke:#181818;stroke-width:0.6;" x1="912" x2="1203.1441" y1="558" y2="558"/><ellipse cx="924" cy="575.7727" fill="none" rx="3.6" ry="3.6" style="stroke:#038048;stroke-width:1.2;"/><text fill="#000000" font-family="sans-serif" font-size="16.8" lengthAdjust="spacing" textLength="129.7816" x="934.8" y="580.9289">HelloWorld target</text><line style="stroke:#181818;stroke-width:1.2;" x1="912" x2="1203.1441" y1="589.9453" y2="589.9453"/><polygon fill="#4177AF" points="924,602.918,919.2,610.118,928.8,610.118" style="stroke:#1963A0;stroke-width:1.2;"/><text fill="#000000" font-family="sans-serif" font-size="16.8" lengthAdjust="spacing" text-decoration="underline" textLength="262.3441" x="934.8" y="612.8742">HelloWorld$auxiliary$Proxy make()</text><ellipse cx="924" cy="657.2086" fill="#84BE84" rx="3.6" ry="3.6" style="stroke:#038048;stroke-width:1.2;"/><text fill="#000000" font-family="sans-serif" font-size="16.8" lengthAdjust="spacing" textLength="237.177" x="934.8" y="662.3648">String test(String name, int age)</text><line style="stroke:#181818;stroke-width:1.2;" x1="912" x2="1038.9018" y1="633.0633" y2="633.0633"/><text fill="#000000" font-family="sans-serif" font-size="16.8" lengthAdjust="spacing" textLength="37.3406" x="1038.9018" y="639.4195">ITest</text><line style="stroke:#181818;stroke-width:1.2;" x1="1076.2424" x2="1203.1441" y1="633.0633" y2="633.0633"/><ellipse cx="924" cy="706.6992" fill="#84BE84" rx="3.6" ry="3.6" style="stroke:#038048;stroke-width:1.2;"/><text fill="#000000" font-family="sans-serif" font-size="16.8" lengthAdjust="spacing" textLength="200.7961" x="934.8" y="711.8555">boolean equals(Object obj)</text><ellipse cx="924" cy="729.0445" fill="#84BE84" rx="3.6" ry="3.6" style="stroke:#038048;stroke-width:1.2;"/><text fill="#000000" font-family="sans-serif" font-size="16.8" lengthAdjust="spacing" textLength="110.1926" x="934.8" y="734.2008">int hashCode()</text><ellipse cx="924" cy="751.3898" fill="#84BE84" rx="3.6" ry="3.6" style="stroke:#038048;stroke-width:1.2;"/><text fill="#000000" font-family="sans-serif" font-size="16.8" lengthAdjust="spacing" textLength="117.641" x="934.8" y="756.5461">String toString()</text><polygon fill="#FFFF44" points="924,767.7352,928.8,772.5352,924,777.3352,919.2,772.5352" style="stroke:#B38D22;stroke-width:1.2;"/><text fill="#000000" font-family="sans-serif" font-size="16.8" lengthAdjust="spacing" textLength="104.5734" x="934.8" y="778.8914">Object clone()</text><line style="stroke:#181818;stroke-width:1.2;" x1="912" x2="1033.2949" y1="682.5539" y2="682.5539"/><text fill="#000000" font-family="sans-serif" font-size="16.8" lengthAdjust="spacing" textLength="48.5543" x="1033.2949" y="688.9102">Object</text><line style="stroke:#181818;stroke-width:1.2;" x1="1081.8492" x2="1203.1441" y1="682.5539" y2="682.5539"/></g><g id="elem_GMN15"><path d="M914.4,871.2 L914.4,903.9492 A0,0 0 0 0 914.4,903.9492 L1201.4637,903.9492 A0,0 0 0 0 1201.4637,903.9492 L1201.4637,883.2 L1189.4637,871.2 L1062.6,871.2 L1057.8,788.568 L1053,871.2 L914.4,871.2 A0,0 0 0 0 914.4,871.2 " fill="#FEFFDD" style="stroke:#181818;stroke-width:0.6;"/><path d="M1189.4637,871.2 L1189.4637,883.2 L1201.4637,883.2 L1189.4637,871.2 " fill="#FEFFDD" style="stroke:#181818;stroke-width:0.6;"/><text fill="#000000" font-family="sans-serif" font-size="15.6" lengthAdjust="spacing" textLength="261.8637" x="921.6" y="894.034">Proxy Class Generated by ByteBuddy</text></g><!--reverse link ITest to GrandParent--><g id="link_ITest_GrandParent"><path d="M483.2336,100.4728 C449.1176,122.0368 424.644,137.496 388.128,160.584 " fill="none" id="ITest-backto-GrandParent" style="stroke:#181818;stroke-width:1.2;stroke-dasharray:7.0,7.0;"/><polygon fill="none" points="501.492,88.932,479.3866,94.3866,487.0805,106.5589,501.492,88.932" style="stroke:#181818;stroke-width:1.2;"/></g><!--reverse link GrandParent to Parent--><g id="link_GrandParent_Parent"><path d="M285.7874,283.6187 C278.3714,306.1667 276.396,312.216 268.992,334.74 " fill="none" id="GrandParent-backto-Parent" style="stroke:#181818;stroke-width:1.2;"/><polygon fill="none" points="292.536,263.1,278.9479,281.3692,292.627,285.8682,292.536,263.1" style="stroke:#181818;stroke-width:1.2;"/></g><!--reverse link ITest to DefaultTest--><g id="link_ITest_DefaultTest"><path d="M563.4,110.46 C563.4,174.804 563.4,280.752 563.4,345.276 " fill="none" id="ITest-backto-DefaultTest" style="stroke:#181818;stroke-width:1.2;"/><polygon fill="none" points="563.4,88.86,556.2,110.46,570.6,110.46,563.4,88.86" style="stroke:#181818;stroke-width:1.2;"/></g><!--reverse link Parent to HelloWorld--><g id="link_Parent_HelloWorld"><path d="M252.6,458.592 C252.6,479.352 252.6,482.988 252.6,508.8 " fill="none" id="Parent-backto-HelloWorld" style="stroke:#181818;stroke-width:1.2;"/><polygon fill="none" points="252.6,436.992,245.4,458.592,259.8,458.592,252.6,436.992" style="stroke:#181818;stroke-width:1.2;"/></g><!--reverse link DefaultTest to HelloWorld--><g id="link_DefaultTest_HelloWorld"><path d="M501.1233,440.2582 C474.9513,462.6502 456.756,478.2 421.224,508.596 " fill="none" id="DefaultTest-backto-HelloWorld" style="stroke:#181818;stroke-width:1.2;stroke-dasharray:7.0,7.0;"/><polygon fill="none" points="517.536,426.216,496.4426,434.7873,505.8041,445.7291,517.536,426.216" style="stroke:#181818;stroke-width:1.2;"/></g><!--reverse link ITest to HelloWorld$auxiliary$Proxy--><g id="link_ITest_HelloWorld$auxiliary$Proxy"><path d="M609.1588,105.5997 C679.2868,191.1357 835.392,381.54 948.516,519.516 " fill="none" id="ITest-backto-HelloWorld$auxiliary$Proxy" style="stroke:#181818;stroke-width:1.2;stroke-dasharray:7.0,7.0;"/><polygon fill="none" points="595.464,88.896,603.5909,110.1646,614.7267,101.0348,595.464,88.896" style="stroke:#181818;stroke-width:1.2;"/></g><!--link HelloWorld to HardWorker--><g id="link_HelloWorld_HardWorker"><path codeLine="51" d="M496.2,616.8 C533.916,616.8 510.084,678 547.8,678 " fill="none" id="HelloWorld-to-HardWorker" style="stroke:#181818;stroke-width:1.2;"/><polygon fill="#181818" points="555,678,544.2,673.2,549,678,544.2,682.8,555,678" style="stroke:#181818;stroke-width:1.2;"/></g><!--link HardWorker to HelloWorld$auxiliary$Proxy--><g id="link_HardWorker_HelloWorld$auxiliary$Proxy"><path codeLine="52" d="M861,678 C877.08,681.744 886.6581,683.5499 903.3261,684.5939 " fill="none" id="HardWorker-to-HelloWorld$auxiliary$Proxy" style="stroke:#181818;stroke-width:1.2;"/><polygon fill="#181818" points="910.512,685.044,900.0332,679.5783,904.5237,684.6689,899.4331,689.1595,910.512,685.044" style="stroke:#181818;stroke-width:1.2;"/></g><!--SRC=[bLJ1Rjim3BthAmJCG5DaNku-36ixeErXMu4EsAwqn3XgP2cJQ21ka7xxbCXExJXnMvzeYNoFZu_snO9evRFPRAN1K5NgByAMCw71-rGgA1oKZ2b3wEOWaD__HazymtXuDf1xSY1eon_9ALDm2fUJ9ZPGucSUAZaKUCcsR8_9RnqO-G0EmuKgLnhB4FaUxhI5yr3VMYj_M6V2w-IoV_iEieO7ruH6zhbFKrtDWr1ZhVaGMMS-tt4EbQQzchVaZMD61NUejVrZdPO75SFXTKaZHvfsAzFqfDYVgbZG1uJkWRjvYNMgK0PqSfMBaQANiqK9287UMvVyhP_7Q5F-Atz2GQsM5vvRgn4CntyLQDy7Qd9j_jGsi4DRW5_SM8dztECMRGnE9pN0GbipW7dr39mCWr-YEpY-yGIanBO5a3jdbfDlZzKgPCNjUDx59wrFe5ehhS3LoOEpw_hyPdLC9t05KZEzflr36oFO9InnSfXwX3zUeBUMvDYjwP5R0uEcFOC6Ezbuqfn_wjaG9syiOI0XiYMtyn5z6OyoR-BV20qw89Gyh_brJNXTILapzbgVPRIVWDjzBEdNZhbP5bramwDE-jb6sCL8arcS4qyrplimxLLl-zX_]--></g></svg>