<svg xmlns="http://www.w3.org/2000/svg" xmlns:xlink="http://www.w3.org/1999/xlink" contentStyleType="text/css" height="1010.4px" preserveAspectRatio="none" style="width:1224px;height:1010px;background:#FFFFFF;" version="1.1" viewBox="0 0 1224 1010" width="1224px" zoomAndPan="magnify"><defs/><g><!--class ITest--><g id="elem_ITest"><rect codeLine="3" fill="#F1F1F1" height="79.9453" id="ITest" rx="3" ry="3" style="stroke:#181818;stroke-width:0.6;" width="251.577" x="281.4" y="8.4"/><ellipse cx="383.4182" cy="27.6" fill="#B4A7E5" rx="13.2" ry="13.2" style="stroke:#181818;stroke-width:1.2;"/><path d="M384.5619,23.5687 L384.5619,31.5563 L386.6244,31.5563 Q387.3557,31.5563 387.6744,31.8375 Q387.9932,32.1188 387.9932,32.5875 Q387.9932,33.0375 387.6744,33.3188 Q387.3557,33.6 386.6244,33.6 L380.4557,33.6 Q379.7244,33.6 379.4057,33.3188 Q379.0869,33.0375 379.0869,32.5688 Q379.0869,32.1188 379.4057,31.8375 Q379.7244,31.5563 380.4557,31.5563 L382.5182,31.5563 L382.5182,23.5687 L380.4557,23.5687 Q379.7244,23.5687 379.4057,23.2875 Q379.0869,23.0062 379.0869,22.5375 Q379.0869,22.0875 379.4057,21.8063 Q379.7244,21.525 380.4557,21.525 L386.6244,21.525 Q387.3557,21.525 387.6744,21.8063 Q387.9932,22.0875 387.9932,22.5375 Q387.9932,23.0062 387.6744,23.2875 Q387.3557,23.5687 386.6244,23.5687 L384.5619,23.5687 Z " fill="#000000"/><text fill="#000000" font-family="sans-serif" font-size="16.8" font-style="italic" lengthAdjust="spacing" textLength="37.3406" x="408.0182" y="34.5563">ITest</text><line style="stroke:#181818;stroke-width:0.6;" x1="282.6" x2="531.777" y1="46.8" y2="46.8"/><line style="stroke:#181818;stroke-width:0.6;" x1="282.6" x2="531.777" y1="56.4" y2="56.4"/><text fill="#000000" font-family="sans-serif" font-size="16.8" font-style="italic" lengthAdjust="spacing" textLength="237.177" x="288.6" y="79.3289">String test(String name, int age)</text></g><!--class GrandParent--><g id="elem_GrandParent"><rect codeLine="6" fill="#F1F1F1" height="102.2906" id="GrandParent" rx="3" ry="3" style="stroke:#181818;stroke-width:0.6;" width="268.377" x="400.2" y="160.8"/><ellipse cx="481.1936" cy="180" fill="#ADD1B2" rx="13.2" ry="13.2" style="stroke:#181818;stroke-width:1.2;"/><path d="M484.5123,175.05 Q484.6998,174.7875 484.9248,174.6563 Q485.1498,174.525 485.4123,174.525 Q485.8623,174.525 486.1436,174.8438 Q486.4248,175.1437 486.4248,175.875 L486.4248,177.6188 Q486.4248,178.35 486.1436,178.6688 Q485.8623,178.9875 485.4123,178.9875 Q484.9998,178.9875 484.7561,178.7438 Q484.5123,178.5187 484.3811,177.9 Q484.3248,177.4688 484.0998,177.2438 Q483.7061,176.7938 482.9748,176.5313 Q482.2436,176.2687 481.4936,176.2687 Q480.5748,176.2687 479.8061,176.6625 Q479.0561,177.0563 478.4561,177.9562 Q477.8748,178.8563 477.8748,180.0938 L477.8748,181.4063 Q477.8748,182.8875 478.9436,183.8813 Q480.0123,184.8563 481.9248,184.8563 Q483.0498,184.8563 483.8373,184.5563 Q484.3061,184.3688 484.8123,183.8438 Q485.1311,183.525 485.2998,183.4313 Q485.4873,183.3375 485.7311,183.3375 Q486.1248,183.3375 486.4248,183.6563 Q486.7436,183.9562 486.7436,184.3688 Q486.7436,184.7813 486.3311,185.2687 Q485.7311,185.9625 484.7748,186.3563 Q483.4811,186.9 481.9248,186.9 Q480.1061,186.9 478.6623,186.15 Q477.4811,185.55 476.6561,184.275 Q475.8311,182.9813 475.8311,181.4438 L475.8311,180.0563 Q475.8311,178.4625 476.5623,177.0938 Q477.3123,175.7062 478.6248,174.975 Q479.9373,174.225 481.4186,174.225 Q482.2998,174.225 483.0686,174.4313 Q483.8561,174.6188 484.5123,175.05 Z " fill="#000000"/><text fill="#000000" font-family="sans-serif" font-size="16.8" lengthAdjust="spacing" textLength="96.1898" x="505.7936" y="186.9562">GrandParent</text><line style="stroke:#181818;stroke-width:0.6;" x1="401.4" x2="667.377" y1="199.2" y2="199.2"/><line style="stroke:#181818;stroke-width:0.6;" x1="401.4" x2="667.377" y1="208.8" y2="208.8"/><ellipse cx="413.4" cy="226.5727" fill="#84BE84" rx="3.6" ry="3.6" style="stroke:#038048;stroke-width:1.2;"/><text fill="#000000" font-family="sans-serif" font-size="16.8" lengthAdjust="spacing" textLength="187.6793" x="424.2" y="231.7289">String sayGoodMorning()</text><ellipse cx="413.4" cy="248.918" fill="#84BE84" rx="3.6" ry="3.6" style="stroke:#038048;stroke-width:1.2;"/><text fill="#000000" font-family="sans-serif" font-size="16.8" lengthAdjust="spacing" textLength="237.177" x="424.2" y="254.0742">String test(String name, int age)</text></g><!--class Parent--><g id="elem_Parent"><rect codeLine="10" fill="#F1F1F1" height="102.2906" id="Parent" rx="3" ry="3" style="stroke:#181818;stroke-width:0.6;" width="268.377" x="429" y="334.8"/><ellipse cx="533.3396" cy="354" fill="#ADD1B2" rx="13.2" ry="13.2" style="stroke:#181818;stroke-width:1.2;"/><path d="M536.6584,349.05 Q536.8459,348.7875 537.0709,348.6563 Q537.2959,348.525 537.5584,348.525 Q538.0084,348.525 538.2896,348.8438 Q538.5709,349.1438 538.5709,349.875 L538.5709,351.6188 Q538.5709,352.35 538.2896,352.6688 Q538.0084,352.9875 537.5584,352.9875 Q537.1459,352.9875 536.9021,352.7438 Q536.6584,352.5188 536.5271,351.9 Q536.4709,351.4688 536.2459,351.2438 Q535.8521,350.7938 535.1209,350.5313 Q534.3896,350.2688 533.6396,350.2688 Q532.7209,350.2688 531.9521,350.6625 Q531.2021,351.0563 530.6021,351.9563 Q530.0209,352.8563 530.0209,354.0938 L530.0209,355.4063 Q530.0209,356.8875 531.0896,357.8812 Q532.1584,358.8563 534.0709,358.8563 Q535.1959,358.8563 535.9834,358.5563 Q536.4521,358.3688 536.9584,357.8438 Q537.2771,357.525 537.4459,357.4313 Q537.6334,357.3375 537.8771,357.3375 Q538.2709,357.3375 538.5709,357.6563 Q538.8896,357.9563 538.8896,358.3688 Q538.8896,358.7813 538.4771,359.2688 Q537.8771,359.9625 536.9209,360.3563 Q535.6271,360.9 534.0709,360.9 Q532.2521,360.9 530.8084,360.15 Q529.6271,359.55 528.8021,358.275 Q527.9771,356.9813 527.9771,355.4437 L527.9771,354.0563 Q527.9771,352.4625 528.7084,351.0938 Q529.4584,349.7063 530.7709,348.975 Q532.0834,348.225 533.5646,348.225 Q534.4459,348.225 535.2146,348.4313 Q536.0021,348.6188 536.6584,349.05 Z " fill="#000000"/><text fill="#000000" font-family="sans-serif" font-size="16.8" lengthAdjust="spacing" textLength="49.4977" x="557.9396" y="360.9563">Parent</text><line style="stroke:#181818;stroke-width:0.6;" x1="430.2" x2="696.177" y1="373.2" y2="373.2"/><line style="stroke:#181818;stroke-width:0.6;" x1="430.2" x2="696.177" y1="382.8" y2="382.8"/><ellipse cx="442.2" cy="400.5727" fill="#84BE84" rx="3.6" ry="3.6" style="stroke:#038048;stroke-width:1.2;"/><text fill="#000000" font-family="sans-serif" font-size="16.8" lengthAdjust="spacing" textLength="199.8363" x="453" y="405.7289">String sayGoodAfternoon()</text><ellipse cx="442.2" cy="422.918" fill="#84BE84" rx="3.6" ry="3.6" style="stroke:#038048;stroke-width:1.2;"/><text fill="#000000" font-family="sans-serif" font-size="16.8" lengthAdjust="spacing" textLength="237.177" x="453" y="428.0742">String test(String name, int age)</text></g><!--class DefaultTest--><g id="elem_DefaultTest"><rect codeLine="15" fill="#F1F1F1" height="79.9453" id="DefaultTest" rx="3" ry="3" style="stroke:#181818;stroke-width:0.6;" width="268.377" x="118.2" y="345.6"/><ellipse cx="204.3369" cy="364.8" fill="#B4A7E5" rx="13.2" ry="13.2" style="stroke:#181818;stroke-width:1.2;"/><path d="M205.4807,360.7688 L205.4807,368.7562 L207.5432,368.7562 Q208.2744,368.7562 208.5932,369.0375 Q208.9119,369.3187 208.9119,369.7875 Q208.9119,370.2375 208.5932,370.5188 Q208.2744,370.8 207.5432,370.8 L201.3744,370.8 Q200.6432,370.8 200.3244,370.5188 Q200.0057,370.2375 200.0057,369.7688 Q200.0057,369.3187 200.3244,369.0375 Q200.6432,368.7562 201.3744,368.7562 L203.4369,368.7562 L203.4369,360.7688 L201.3744,360.7688 Q200.6432,360.7688 200.3244,360.4875 Q200.0057,360.2063 200.0057,359.7375 Q200.0057,359.2875 200.3244,359.0062 Q200.6432,358.725 201.3744,358.725 L207.5432,358.725 Q208.2744,358.725 208.5932,359.0062 Q208.9119,359.2875 208.9119,359.7375 Q208.9119,360.2063 208.5932,360.4875 Q208.2744,360.7688 207.5432,360.7688 L205.4807,360.7688 Z " fill="#000000"/><text fill="#000000" font-family="sans-serif" font-size="16.8" font-style="italic" lengthAdjust="spacing" textLength="85.9031" x="228.9369" y="371.7562">DefaultTest</text><line style="stroke:#181818;stroke-width:0.6;" x1="119.4" x2="385.377" y1="384" y2="384"/><line style="stroke:#181818;stroke-width:0.6;" x1="119.4" x2="385.377" y1="393.6" y2="393.6"/><ellipse cx="131.4" cy="411.3727" fill="#84BE84" rx="3.6" ry="3.6" style="stroke:#038048;stroke-width:1.2;"/><text fill="#000000" font-family="sans-serif" font-size="16.8" lengthAdjust="spacing" textLength="237.177" x="142.2" y="416.5289">String test(String name, int age)</text></g><!--class HelloWorld--><g id="elem_HelloWorld"><rect codeLine="19" fill="#F1F1F1" height="380.0344" id="HelloWorld" rx="3" ry="3" style="stroke:#181818;stroke-width:0.6;" width="484.0945" x="10.8" y="513.6"/><ellipse cx="206.6701" cy="532.8" fill="#ADD1B2" rx="13.2" ry="13.2" style="stroke:#181818;stroke-width:1.2;"/><path d="M209.9889,527.85 Q210.1764,527.5875 210.4014,527.4563 Q210.6264,527.325 210.8889,527.325 Q211.3389,527.325 211.6201,527.6438 Q211.9014,527.9438 211.9014,528.675 L211.9014,530.4187 Q211.9014,531.15 211.6201,531.4688 Q211.3389,531.7875 210.8889,531.7875 Q210.4764,531.7875 210.2326,531.5437 Q209.9889,531.3188 209.8576,530.7 Q209.8014,530.2688 209.5764,530.0437 Q209.1826,529.5938 208.4514,529.3313 Q207.7201,529.0688 206.9701,529.0688 Q206.0514,529.0688 205.2826,529.4625 Q204.5326,529.8562 203.9326,530.7563 Q203.3514,531.6563 203.3514,532.8938 L203.3514,534.2063 Q203.3514,535.6875 204.4201,536.6813 Q205.4889,537.6563 207.4014,537.6563 Q208.5264,537.6563 209.3139,537.3562 Q209.7826,537.1687 210.2889,536.6438 Q210.6076,536.325 210.7764,536.2312 Q210.9639,536.1375 211.2076,536.1375 Q211.6014,536.1375 211.9014,536.4563 Q212.2201,536.7563 212.2201,537.1687 Q212.2201,537.5813 211.8076,538.0688 Q211.2076,538.7625 210.2514,539.1563 Q208.9576,539.7 207.4014,539.7 Q205.5826,539.7 204.1389,538.95 Q202.9576,538.35 202.1326,537.075 Q201.3076,535.7813 201.3076,534.2438 L201.3076,532.8562 Q201.3076,531.2625 202.0389,529.8938 Q202.7889,528.5063 204.1014,527.775 Q205.4139,527.025 206.8951,527.025 Q207.7764,527.025 208.5451,527.2312 Q209.3326,527.4187 209.9889,527.85 Z " fill="#000000"/><text fill="#000000" font-family="sans-serif" font-size="16.8" lengthAdjust="spacing" textLength="82.1543" x="231.2701" y="539.7563">HelloWorld</text><line style="stroke:#181818;stroke-width:0.6;" x1="12" x2="493.6945" y1="552" y2="552"/><ellipse cx="24" cy="596.918" fill="#84BE84" rx="3.6" ry="3.6" style="stroke:#038048;stroke-width:1.2;"/><text fill="#000000" font-family="sans-serif" font-size="16.8" lengthAdjust="spacing" textLength="166.2035" x="34.8" y="602.0742">String sayGoodNight()</text><ellipse cx="24" cy="619.2633" fill="#84BE84" rx="3.6" ry="3.6" style="stroke:#038048;stroke-width:1.2;"/><text fill="#000000" font-family="sans-serif" font-size="16.8" lengthAdjust="spacing" textLength="237.177" x="34.8" y="624.4195">String test(String name, int age)</text><rect fill="#F24D5C" height="7.2" style="stroke:#C82930;stroke-width:1.2;" width="7.2" x="20.4" y="638.0086"/><text fill="#000000" font-family="sans-serif" font-size="16.8" lengthAdjust="spacing" textLength="338.9777" x="34.8" y="646.7648">String test$original$Abc(String name, int age)</text><polygon fill="#4177AF" points="24,659.1539,19.2,666.3539,28.8,666.3539" style="stroke:#1963A0;stroke-width:1.2;"/><text fill="#000000" font-family="sans-serif" font-size="16.8" lengthAdjust="spacing" textLength="452.8945" x="34.8" y="669.1102">String test$original$Abc$accessor$Xyz(String name, int age)</text><line style="stroke:#181818;stroke-width:1.2;" x1="12" x2="211.7701" y1="572.7727" y2="572.7727"/><text fill="#000000" font-family="sans-serif" font-size="16.8" lengthAdjust="spacing" textLength="82.1543" x="211.7701" y="579.1289">HelloWorld</text><line style="stroke:#181818;stroke-width:1.2;" x1="293.9244" x2="493.6945" y1="572.7727" y2="572.7727"/><polygon fill="#4177AF" points="24,708.6445,19.2,715.8445,28.8,715.8445" style="stroke:#1963A0;stroke-width:1.2;"/><text fill="#000000" font-family="sans-serif" font-size="16.8" lengthAdjust="spacing" textLength="313.7531" x="34.8" y="718.6008">String sayGoodAfternoon$accessor$Xyz()</text><line style="stroke:#181818;stroke-width:1.2;" x1="12" x2="228.0984" y1="689.2992" y2="689.2992"/><text fill="#000000" font-family="sans-serif" font-size="16.8" lengthAdjust="spacing" textLength="49.4977" x="228.0984" y="695.6555">Parent</text><line style="stroke:#181818;stroke-width:1.2;" x1="277.5961" x2="493.6945" y1="689.2992" y2="689.2992"/><polygon fill="#4177AF" points="24,758.1352,19.2,765.3352,28.8,765.3352" style="stroke:#1963A0;stroke-width:1.2;"/><text fill="#000000" font-family="sans-serif" font-size="16.8" lengthAdjust="spacing" textLength="301.5961" x="34.8" y="768.0914">String sayGoodMorning$accessor$Xyz()</text><line style="stroke:#181818;stroke-width:1.2;" x1="12" x2="204.7523" y1="738.7898" y2="738.7898"/><text fill="#000000" font-family="sans-serif" font-size="16.8" lengthAdjust="spacing" textLength="96.1898" x="204.7523" y="745.1461">GrandParent</text><line style="stroke:#181818;stroke-width:1.2;" x1="300.9422" x2="493.6945" y1="738.7898" y2="738.7898"/><polygon fill="#4177AF" points="24,807.6258,19.2,814.8258,28.8,814.8258" style="stroke:#1963A0;stroke-width:1.2;"/><text fill="#000000" font-family="sans-serif" font-size="16.8" lengthAdjust="spacing" textLength="314.7129" x="34.8" y="817.582">boolean equals$accessor$Xyz(Object obj)</text><polygon fill="#4177AF" points="24,829.9711,19.2,837.1711,28.8,837.1711" style="stroke:#1963A0;stroke-width:1.2;"/><text fill="#000000" font-family="sans-serif" font-size="16.8" lengthAdjust="spacing" textLength="224.1094" x="34.8" y="839.9273">int hashCode$accessor$Xyz()</text><polygon fill="#4177AF" points="24,852.3164,19.2,859.5164,28.8,859.5164" style="stroke:#1963A0;stroke-width:1.2;"/><text fill="#000000" font-family="sans-serif" font-size="16.8" lengthAdjust="spacing" textLength="231.5578" x="34.8" y="862.2727">String toString$accessor$Xyz()</text><polygon fill="#4177AF" points="24,874.6617,19.2,881.8617,28.8,881.8617" style="stroke:#1963A0;stroke-width:1.2;"/><text fill="#000000" font-family="sans-serif" font-size="16.8" lengthAdjust="spacing" textLength="218.4902" x="34.8" y="884.618">Object clone$accessor$Xyz()</text><line style="stroke:#181818;stroke-width:1.2;" x1="12" x2="228.5701" y1="788.2805" y2="788.2805"/><text fill="#000000" font-family="sans-serif" font-size="16.8" lengthAdjust="spacing" textLength="48.5543" x="228.5701" y="794.6367">Object</text><line style="stroke:#181818;stroke-width:1.2;" x1="277.1244" x2="493.6945" y1="788.2805" y2="788.2805"/></g><!--class HardWorker--><g id="elem_HardWorker"><rect codeLine="36" fill="#F1F1F1" height="79.9453" id="HardWorker" rx="3" ry="3" style="stroke:#181818;stroke-width:0.6;" width="316.234" x="555.6" y="663.6"/><ellipse cx="663.3439" cy="682.8" fill="#ADD1B2" rx="13.2" ry="13.2" style="stroke:#181818;stroke-width:1.2;"/><path d="M666.6627,677.85 Q666.8502,677.5875 667.0752,677.4563 Q667.3002,677.325 667.5627,677.325 Q668.0127,677.325 668.2939,677.6438 Q668.5752,677.9438 668.5752,678.675 L668.5752,680.4187 Q668.5752,681.15 668.2939,681.4688 Q668.0127,681.7875 667.5627,681.7875 Q667.1502,681.7875 666.9064,681.5437 Q666.6627,681.3188 666.5314,680.7 Q666.4752,680.2688 666.2502,680.0437 Q665.8564,679.5938 665.1252,679.3313 Q664.3939,679.0688 663.6439,679.0688 Q662.7252,679.0688 661.9564,679.4625 Q661.2064,679.8562 660.6064,680.7563 Q660.0252,681.6563 660.0252,682.8938 L660.0252,684.2063 Q660.0252,685.6875 661.0939,686.6813 Q662.1627,687.6563 664.0752,687.6563 Q665.2002,687.6563 665.9877,687.3562 Q666.4564,687.1687 666.9627,686.6438 Q667.2814,686.325 667.4502,686.2312 Q667.6377,686.1375 667.8814,686.1375 Q668.2752,686.1375 668.5752,686.4563 Q668.8939,686.7563 668.8939,687.1687 Q668.8939,687.5813 668.4814,688.0688 Q667.8814,688.7625 666.9252,689.1563 Q665.6314,689.7 664.0752,689.7 Q662.2564,689.7 660.8127,688.95 Q659.6314,688.35 658.8064,687.075 Q657.9814,685.7813 657.9814,684.2438 L657.9814,682.8562 Q657.9814,681.2625 658.7127,679.8938 Q659.4627,678.5063 660.7752,677.775 Q662.0877,677.025 663.5689,677.025 Q664.4502,677.025 665.2189,677.2312 Q666.0064,677.4187 666.6627,677.85 Z " fill="#000000"/><text fill="#000000" font-family="sans-serif" font-size="16.8" lengthAdjust="spacing" textLength="90.5461" x="687.9439" y="689.7563">HardWorker</text><line style="stroke:#181818;stroke-width:0.6;" x1="556.8" x2="870.634" y1="702" y2="702"/><line style="stroke:#181818;stroke-width:0.6;" x1="556.8" x2="870.634" y1="711.6" y2="711.6"/><ellipse cx="568.8" cy="729.3727" fill="#84BE84" rx="3.6" ry="3.6" style="stroke:#038048;stroke-width:1.2;"/><text fill="#000000" font-family="sans-serif" font-size="16.8" lengthAdjust="spacing" text-decoration="underline" textLength="285.034" x="579.6" y="734.5289">Object doWork(@Super Parent zuper)</text></g><!--class HelloWorld$auxiliary$Proxy--><g id="elem_HelloWorld$auxiliary$Proxy"><rect codeLine="40" fill="#F1F1F1" height="340.1438" id="HelloWorld$auxiliary$Proxy" rx="3" ry="3" style="stroke:#181818;stroke-width:0.6;" width="293.5441" x="922.8" y="533.4"/><ellipse cx="963.1821" cy="552.6" fill="#ADD1B2" rx="13.2" ry="13.2" style="stroke:#181818;stroke-width:1.2;"/><path d="M966.5008,547.65 Q966.6883,547.3875 966.9133,547.2563 Q967.1383,547.125 967.4008,547.125 Q967.8508,547.125 968.1321,547.4438 Q968.4133,547.7438 968.4133,548.475 L968.4133,550.2188 Q968.4133,550.95 968.1321,551.2688 Q967.8508,551.5875 967.4008,551.5875 Q966.9883,551.5875 966.7446,551.3438 Q966.5008,551.1188 966.3696,550.5 Q966.3133,550.0688 966.0883,549.8438 Q965.6946,549.3938 964.9633,549.1313 Q964.2321,548.8688 963.4821,548.8688 Q962.5633,548.8688 961.7946,549.2625 Q961.0446,549.6563 960.4446,550.5563 Q959.8633,551.4563 959.8633,552.6938 L959.8633,554.0063 Q959.8633,555.4875 960.9321,556.4812 Q962.0008,557.4563 963.9133,557.4563 Q965.0383,557.4563 965.8258,557.1563 Q966.2946,556.9688 966.8008,556.4438 Q967.1196,556.125 967.2883,556.0313 Q967.4758,555.9375 967.7196,555.9375 Q968.1133,555.9375 968.4133,556.2563 Q968.7321,556.5563 968.7321,556.9688 Q968.7321,557.3813 968.3196,557.8688 Q967.7196,558.5625 966.7633,558.9563 Q965.4696,559.5 963.9133,559.5 Q962.0946,559.5 960.6508,558.75 Q959.4696,558.15 958.6446,556.875 Q957.8196,555.5813 957.8196,554.0437 L957.8196,552.6563 Q957.8196,551.0625 958.5508,549.6938 Q959.3008,548.3063 960.6133,547.575 Q961.9258,546.825 963.4071,546.825 Q964.2883,546.825 965.0571,547.0313 Q965.8446,547.2188 966.5008,547.65 Z " fill="#000000"/><text fill="#000000" font-family="sans-serif" font-size="16.8" lengthAdjust="spacing" textLength="205.4063" x="984.9558" y="559.5563">HelloWorld$auxiliary$Proxy</text><line style="stroke:#181818;stroke-width:0.6;" x1="924" x2="1215.1441" y1="571.8" y2="571.8"/><ellipse cx="936" cy="589.5727" fill="none" rx="3.6" ry="3.6" style="stroke:#038048;stroke-width:1.2;"/><text fill="#000000" font-family="sans-serif" font-size="16.8" lengthAdjust="spacing" textLength="129.7816" x="946.8" y="594.7289">HelloWorld target</text><line style="stroke:#181818;stroke-width:1.2;" x1="924" x2="1215.1441" y1="603.7453" y2="603.7453"/><polygon fill="#4177AF" points="936,616.718,931.2,623.918,940.8,623.918" style="stroke:#1963A0;stroke-width:1.2;"/><text fill="#000000" font-family="sans-serif" font-size="16.8" lengthAdjust="spacing" text-decoration="underline" textLength="262.3441" x="946.8" y="626.6742">HelloWorld$auxiliary$Proxy make()</text><ellipse cx="936" cy="671.0086" fill="#84BE84" rx="3.6" ry="3.6" style="stroke:#038048;stroke-width:1.2;"/><text fill="#000000" font-family="sans-serif" font-size="16.8" lengthAdjust="spacing" textLength="199.8363" x="946.8" y="676.1648">String sayGoodAfternoon()</text><line style="stroke:#181818;stroke-width:1.2;" x1="924" x2="1044.8232" y1="646.8633" y2="646.8633"/><text fill="#000000" font-family="sans-serif" font-size="16.8" lengthAdjust="spacing" textLength="49.4977" x="1044.8232" y="653.2195">Parent</text><line style="stroke:#181818;stroke-width:1.2;" x1="1094.3209" x2="1215.1441" y1="646.8633" y2="646.8633"/><ellipse cx="936" cy="720.4992" fill="#84BE84" rx="3.6" ry="3.6" style="stroke:#038048;stroke-width:1.2;"/><text fill="#000000" font-family="sans-serif" font-size="16.8" lengthAdjust="spacing" textLength="187.6793" x="946.8" y="725.6555">String sayGoodMorning()</text><ellipse cx="936" cy="742.8445" fill="#84BE84" rx="3.6" ry="3.6" style="stroke:#038048;stroke-width:1.2;"/><text fill="#000000" font-family="sans-serif" font-size="16.8" lengthAdjust="spacing" textLength="237.177" x="946.8" y="748.0008">String test(String name, int age)</text><line style="stroke:#181818;stroke-width:1.2;" x1="924" x2="1021.4771" y1="696.3539" y2="696.3539"/><text fill="#000000" font-family="sans-serif" font-size="16.8" lengthAdjust="spacing" textLength="96.1898" x="1021.4771" y="702.7102">GrandParent</text><line style="stroke:#181818;stroke-width:1.2;" x1="1117.667" x2="1215.1441" y1="696.3539" y2="696.3539"/><ellipse cx="936" cy="792.3352" fill="#84BE84" rx="3.6" ry="3.6" style="stroke:#038048;stroke-width:1.2;"/><text fill="#000000" font-family="sans-serif" font-size="16.8" lengthAdjust="spacing" textLength="200.7961" x="946.8" y="797.4914">boolean equals(Object obj)</text><ellipse cx="936" cy="814.6805" fill="#84BE84" rx="3.6" ry="3.6" style="stroke:#038048;stroke-width:1.2;"/><text fill="#000000" font-family="sans-serif" font-size="16.8" lengthAdjust="spacing" textLength="110.1926" x="946.8" y="819.8367">int hashCode()</text><ellipse cx="936" cy="837.0258" fill="#84BE84" rx="3.6" ry="3.6" style="stroke:#038048;stroke-width:1.2;"/><text fill="#000000" font-family="sans-serif" font-size="16.8" lengthAdjust="spacing" textLength="117.641" x="946.8" y="842.182">String toString()</text><polygon fill="#FFFF44" points="936,853.3711,940.8,858.1711,936,862.9711,931.2,858.1711" style="stroke:#B38D22;stroke-width:1.2;"/><text fill="#000000" font-family="sans-serif" font-size="16.8" lengthAdjust="spacing" textLength="104.5734" x="946.8" y="864.5273">Object clone()</text><line style="stroke:#181818;stroke-width:1.2;" x1="924" x2="1045.2949" y1="768.1898" y2="768.1898"/><text fill="#000000" font-family="sans-serif" font-size="16.8" lengthAdjust="spacing" textLength="48.5543" x="1045.2949" y="774.5461">Object</text><line style="stroke:#181818;stroke-width:1.2;" x1="1093.8492" x2="1215.1441" y1="768.1898" y2="768.1898"/></g><g id="elem_GMN15"><path d="M926.4,969.6 L926.4,1002.3492 A0,0 0 0 0 926.4,1002.3492 L1213.4637,1002.3492 A0,0 0 0 0 1213.4637,1002.3492 L1213.4637,981.6 L1201.4637,969.6 L1074.6,969.6 L1069.8,873.048 L1065,969.6 L926.4,969.6 A0,0 0 0 0 926.4,969.6 " fill="#FEFFDD" style="stroke:#181818;stroke-width:0.6;"/><path d="M1201.4637,969.6 L1201.4637,981.6 L1213.4637,981.6 L1201.4637,969.6 " fill="#FEFFDD" style="stroke:#181818;stroke-width:0.6;"/><text fill="#000000" font-family="sans-serif" font-size="15.6" lengthAdjust="spacing" textLength="261.8637" x="933.6" y="992.434">Proxy Class Generated by ByteBuddy</text></g><!--reverse link ITest to GrandParent--><g id="link_ITest_GrandParent"><path d="M451.915,106.0779 C468.979,127.6539 476.904,137.664 495.132,160.704 " fill="none" id="ITest-backto-GrandParent" style="stroke:#181818;stroke-width:1.2;stroke-dasharray:7.0,7.0;"/><polygon fill="none" points="438.516,89.136,446.2677,110.5442,457.5623,101.6116,438.516,89.136" style="stroke:#181818;stroke-width:1.2;"/></g><!--reverse link GrandParent to Parent--><g id="link_GrandParent_Parent"><path d="M546.5832,284.4027 C550.3632,306.9507 551.256,312.216 555.036,334.74 " fill="none" id="GrandParent-backto-Parent" style="stroke:#181818;stroke-width:1.2;"/><polygon fill="none" points="543.012,263.1,539.4823,285.5931,553.6841,283.2123,543.012,263.1" style="stroke:#181818;stroke-width:1.2;"/></g><!--reverse link ITest to DefaultTest--><g id="link_ITest_DefaultTest"><path d="M380.2756,108.466 C350.5276,172.81 300.612,280.752 270.78,345.276 " fill="none" id="ITest-backto-DefaultTest" style="stroke:#181818;stroke-width:1.2;"/><polygon fill="none" points="389.34,88.86,373.7402,105.4446,386.8109,111.4875,389.34,88.86" style="stroke:#181818;stroke-width:1.2;"/></g><!--reverse link Parent to HelloWorld--><g id="link_Parent_HelloWorld"><path d="M498.9829,452.2852 C478.8709,472.6732 469.38,482.28 443.328,508.692 " fill="none" id="Parent-backto-HelloWorld" style="stroke:#181818;stroke-width:1.2;"/><polygon fill="none" points="514.152,436.908,493.8572,447.2289,504.1087,457.3416,514.152,436.908" style="stroke:#181818;stroke-width:1.2;"/></g><!--reverse link DefaultTest to HelloWorld--><g id="link_DefaultTest_HelloWorld"><path d="M252.6,447.864 C252.6,469.788 252.6,477.336 252.6,508.464 " fill="none" id="DefaultTest-backto-HelloWorld" style="stroke:#181818;stroke-width:1.2;stroke-dasharray:7.0,7.0;"/><polygon fill="none" points="252.6,426.264,245.4,447.864,259.8,447.864,252.6,426.264" style="stroke:#181818;stroke-width:1.2;"/></g><!--reverse link Parent to HelloWorld$auxiliary$Proxy--><g id="link_Parent_HelloWorld$auxiliary$Proxy"><path d="M718.8598,424.4985 C784.0918,443.8065 840.612,466.92 901.8,508.8 C912.624,516.204 923.172,524.472 933.384,533.304 " fill="none" id="Parent-backto-HelloWorld$auxiliary$Proxy" style="stroke:#181818;stroke-width:1.2;"/><polygon fill="none" points="698.148,418.368,716.8163,431.4024,720.9033,417.5945,698.148,418.368" style="stroke:#181818;stroke-width:1.2;"/></g><!--link HelloWorld to HardWorker--><g id="link_HelloWorld_HardWorker"><path codeLine="58" d="M496.2,616.8 C551.796,616.8 492.204,727.2 547.8,727.2 " fill="none" id="HelloWorld-to-HardWorker" style="stroke:#181818;stroke-width:1.2;"/><polygon fill="#181818" points="555,727.2,544.2,722.4,549,727.2,544.2,732,555,727.2" style="stroke:#181818;stroke-width:1.2;"/></g><!--link HardWorker to HelloWorld$auxiliary$Proxy--><g id="link_HardWorker_HelloWorld$auxiliary$Proxy"><path codeLine="59" d="M873,727.2 C889.08,730.944 898.6581,732.7499 915.3261,733.7939 " fill="none" id="HardWorker-to-HelloWorld$auxiliary$Proxy" style="stroke:#181818;stroke-width:1.2;"/><polygon fill="#181818" points="922.512,734.244,912.0332,728.7783,916.5237,733.8689,911.4331,738.3595,922.512,734.244" style="stroke:#181818;stroke-width:1.2;"/></g><!--SRC=[fLHTRvim57tthx0qfARAMDvvcDPsKhU7RPKwQNkzs1T2O-pClaYXKVhR1y4a43wwQZmPVEyvFlSSVBKcshfejTegq5JaweCm-KeeS2wK6QGMSiOoJMWJ4CY__aH7VCzuzUmXTcH1q84_airqogdQNFYrXXpVywgJGuhNxC2EcFpUWfOFOB7QoFAjmhnQkHxkieLpKDuR8xyPgwlNnNL_zn_8F0_k2BNiSuzJtIILK6sCVXDPPpwVCO52qL7DQ_BcCHi5Nr0fyyjO9KygXiFhaZOSOTZj3CDHiT-pT4rl47e4xjO5ncPffa45Dx6OQNgPR0f027JEsE1t-Jn76xQolPQNAUFwYAVkhlKJ43vc5m1rPGlo8tv2qUcFZL48ckEV0fJhD_fQ4p-rCwW5hS6jxup4iLEUfsIQnNYH1nRAw07CEJPWPUNz1kqfT7j7G9auj02o3iTcyUcns5PLVZJFzSje_08eTfdAm9R1WpMxyZAEBKqdTWGsHVB3ywS_dM86EOSDBYPyV-s77RVw_s-KqGGiBn8mC7tPCtr0vttstz_rh6tSr8Qm8Y4oEJV9pD0YtipkhhbaKQC5GidZaj-MXBU5b2LZv_uegiNoqDPtGFYn4vWeQfB1XfywvPC7OLSpXuoQEV5GOTA7QRTwYMP_0G00]--></g></svg>