<svg xmlns="http://www.w3.org/2000/svg" xmlns:xlink="http://www.w3.org/1999/xlink" contentStyleType="text/css" height="1227px" preserveAspectRatio="none" style="width:798px;height:1227px;background:#FFFFFF;" version="1.1" viewBox="0 0 798 1227" width="798px" zoomAndPan="magnify"><defs/><g><!--class ITest--><g id="elem_ITest"><rect codeLine="3" fill="#F1F1F1" height="66.6211" id="ITest" rx="2.5" ry="2.5" style="stroke:#181818;stroke-width:0.5;" width="209.6475" x="143" y="7"/><ellipse cx="228.0151" cy="23" fill="#B4A7E5" rx="11" ry="11" style="stroke:#181818;stroke-width:1.0;"/><path d="M228.9683,19.6406 L228.9683,26.2969 L230.687,26.2969 Q231.2964,26.2969 231.562,26.5313 Q231.8276,26.7656 231.8276,27.1563 Q231.8276,27.5313 231.562,27.7656 Q231.2964,28 230.687,28 L225.5464,28 Q224.937,28 224.6714,27.7656 Q224.4058,27.5313 224.4058,27.1406 Q224.4058,26.7656 224.6714,26.5313 Q224.937,26.2969 225.5464,26.2969 L227.2651,26.2969 L227.2651,19.6406 L225.5464,19.6406 Q224.937,19.6406 224.6714,19.4063 Q224.4058,19.1719 224.4058,18.7813 Q224.4058,18.4063 224.6714,18.1719 Q224.937,17.9375 225.5464,17.9375 L230.687,17.9375 Q231.2964,17.9375 231.562,18.1719 Q231.8276,18.4063 231.8276,18.7813 Q231.8276,19.1719 231.562,19.4063 Q231.2964,19.6406 230.687,19.6406 L228.9683,19.6406 Z " fill="#000000"/><text fill="#000000" font-family="sans-serif" font-size="14" font-style="italic" lengthAdjust="spacing" textLength="31.1172" x="248.5151" y="28.7969">ITest</text><line style="stroke:#181818;stroke-width:0.5;" x1="144" x2="351.6475" y1="39" y2="39"/><line style="stroke:#181818;stroke-width:0.5;" x1="144" x2="351.6475" y1="47" y2="47"/><text fill="#000000" font-family="sans-serif" font-size="14" font-style="italic" lengthAdjust="spacing" textLength="197.6475" x="149" y="66.1074">String test(String name, int age)</text></g><!--class GrandParent--><g id="elem_GrandParent"><rect codeLine="6" fill="#F1F1F1" height="85.2422" id="GrandParent" rx="2.5" ry="2.5" style="stroke:#181818;stroke-width:0.5;" width="223.6475" x="54" y="134"/><ellipse cx="121.4946" cy="150" fill="#ADD1B2" rx="11" ry="11" style="stroke:#181818;stroke-width:1.0;"/><path d="M124.2603,145.875 Q124.4165,145.6563 124.604,145.5469 Q124.7915,145.4375 125.0103,145.4375 Q125.3853,145.4375 125.6196,145.7031 Q125.854,145.9531 125.854,146.5625 L125.854,148.0156 Q125.854,148.625 125.6196,148.8906 Q125.3853,149.1563 125.0103,149.1563 Q124.6665,149.1563 124.4634,148.9531 Q124.2603,148.7656 124.1509,148.25 Q124.104,147.8906 123.9165,147.7031 Q123.5884,147.3281 122.979,147.1094 Q122.3696,146.8906 121.7446,146.8906 Q120.979,146.8906 120.3384,147.2188 Q119.7134,147.5469 119.2134,148.2969 Q118.729,149.0469 118.729,150.0781 L118.729,151.1719 Q118.729,152.4063 119.6196,153.2344 Q120.5103,154.0469 122.104,154.0469 Q123.0415,154.0469 123.6978,153.7969 Q124.0884,153.6406 124.5103,153.2031 Q124.7759,152.9375 124.9165,152.8594 Q125.0728,152.7813 125.2759,152.7813 Q125.604,152.7813 125.854,153.0469 Q126.1196,153.2969 126.1196,153.6406 Q126.1196,153.9844 125.7759,154.3906 Q125.2759,154.9688 124.479,155.2969 Q123.4009,155.75 122.104,155.75 Q120.5884,155.75 119.3853,155.125 Q118.4009,154.625 117.7134,153.5625 Q117.0259,152.4844 117.0259,151.2031 L117.0259,150.0469 Q117.0259,148.7188 117.6353,147.5781 Q118.2603,146.4219 119.354,145.8125 Q120.4478,145.1875 121.6821,145.1875 Q122.4165,145.1875 123.0571,145.3594 Q123.7134,145.5156 124.2603,145.875 Z " fill="#000000"/><text fill="#000000" font-family="sans-serif" font-size="14" lengthAdjust="spacing" textLength="80.1582" x="141.9946" y="155.7969">GrandParent</text><line style="stroke:#181818;stroke-width:0.5;" x1="55" x2="276.6475" y1="166" y2="166"/><line style="stroke:#181818;stroke-width:0.5;" x1="55" x2="276.6475" y1="174" y2="174"/><ellipse cx="65" cy="188.8105" fill="#84BE84" rx="3" ry="3" style="stroke:#038048;stroke-width:1.0;"/><text fill="#000000" font-family="sans-serif" font-size="14" lengthAdjust="spacing" textLength="156.3994" x="74" y="193.1074">String sayGoodMorning()</text><ellipse cx="65" cy="207.4316" fill="#84BE84" rx="3" ry="3" style="stroke:#038048;stroke-width:1.0;"/><text fill="#000000" font-family="sans-serif" font-size="14" lengthAdjust="spacing" textLength="197.6475" x="74" y="211.7285">String test(String name, int age)</text></g><!--class Parent--><g id="elem_Parent"><rect codeLine="10" fill="#F1F1F1" height="85.2422" id="Parent" rx="2.5" ry="2.5" style="stroke:#181818;stroke-width:0.5;" width="223.6475" x="7" y="279"/><ellipse cx="93.9497" cy="295" fill="#ADD1B2" rx="11" ry="11" style="stroke:#181818;stroke-width:1.0;"/><path d="M96.7153,290.875 Q96.8716,290.6563 97.0591,290.5469 Q97.2466,290.4375 97.4653,290.4375 Q97.8403,290.4375 98.0747,290.7031 Q98.3091,290.9531 98.3091,291.5625 L98.3091,293.0156 Q98.3091,293.625 98.0747,293.8906 Q97.8403,294.1563 97.4653,294.1563 Q97.1216,294.1563 96.9185,293.9531 Q96.7153,293.7656 96.606,293.25 Q96.5591,292.8906 96.3716,292.7031 Q96.0435,292.3281 95.4341,292.1094 Q94.8247,291.8906 94.1997,291.8906 Q93.4341,291.8906 92.7935,292.2188 Q92.1685,292.5469 91.6685,293.2969 Q91.1841,294.0469 91.1841,295.0781 L91.1841,296.1719 Q91.1841,297.4063 92.0747,298.2344 Q92.9653,299.0469 94.5591,299.0469 Q95.4966,299.0469 96.1528,298.7969 Q96.5435,298.6406 96.9653,298.2031 Q97.231,297.9375 97.3716,297.8594 Q97.5278,297.7813 97.731,297.7813 Q98.0591,297.7813 98.3091,298.0469 Q98.5747,298.2969 98.5747,298.6406 Q98.5747,298.9844 98.231,299.3906 Q97.731,299.9688 96.9341,300.2969 Q95.856,300.75 94.5591,300.75 Q93.0435,300.75 91.8403,300.125 Q90.856,299.625 90.1685,298.5625 Q89.481,297.4844 89.481,296.2031 L89.481,295.0469 Q89.481,293.7188 90.0903,292.5781 Q90.7153,291.4219 91.8091,290.8125 Q92.9028,290.1875 94.1372,290.1875 Q94.8716,290.1875 95.5122,290.3594 Q96.1685,290.5156 96.7153,290.875 Z " fill="#000000"/><text fill="#000000" font-family="sans-serif" font-size="14" lengthAdjust="spacing" textLength="41.248" x="114.4497" y="300.7969">Parent</text><line style="stroke:#181818;stroke-width:0.5;" x1="8" x2="229.6475" y1="311" y2="311"/><line style="stroke:#181818;stroke-width:0.5;" x1="8" x2="229.6475" y1="319" y2="319"/><ellipse cx="18" cy="333.8105" fill="#84BE84" rx="3" ry="3" style="stroke:#038048;stroke-width:1.0;"/><text fill="#000000" font-family="sans-serif" font-size="14" lengthAdjust="spacing" textLength="166.5303" x="27" y="338.1074">String sayGoodAfternoon()</text><ellipse cx="18" cy="352.4316" fill="#84BE84" rx="3" ry="3" style="stroke:#038048;stroke-width:1.0;"/><text fill="#000000" font-family="sans-serif" font-size="14" lengthAdjust="spacing" textLength="197.6475" x="27" y="356.7285">String test(String name, int age)</text></g><!--class DefaultTest--><g id="elem_DefaultTest"><rect codeLine="15" fill="#F1F1F1" height="66.6211" id="DefaultTest" rx="2.5" ry="2.5" style="stroke:#181818;stroke-width:0.5;" width="223.6475" x="266" y="288"/><ellipse cx="337.7808" cy="304" fill="#B4A7E5" rx="11" ry="11" style="stroke:#181818;stroke-width:1.0;"/><path d="M338.7339,300.6406 L338.7339,307.2969 L340.4526,307.2969 Q341.062,307.2969 341.3276,307.5313 Q341.5933,307.7656 341.5933,308.1563 Q341.5933,308.5313 341.3276,308.7656 Q341.062,309 340.4526,309 L335.312,309 Q334.7026,309 334.437,308.7656 Q334.1714,308.5313 334.1714,308.1406 Q334.1714,307.7656 334.437,307.5313 Q334.7026,307.2969 335.312,307.2969 L337.0308,307.2969 L337.0308,300.6406 L335.312,300.6406 Q334.7026,300.6406 334.437,300.4063 Q334.1714,300.1719 334.1714,299.7813 Q334.1714,299.4063 334.437,299.1719 Q334.7026,298.9375 335.312,298.9375 L340.4526,298.9375 Q341.062,298.9375 341.3276,299.1719 Q341.5933,299.4063 341.5933,299.7813 Q341.5933,300.1719 341.3276,300.4063 Q341.062,300.6406 340.4526,300.6406 L338.7339,300.6406 Z " fill="#000000"/><text fill="#000000" font-family="sans-serif" font-size="14" font-style="italic" lengthAdjust="spacing" textLength="71.5859" x="358.2808" y="309.7969">DefaultTest</text><line style="stroke:#181818;stroke-width:0.5;" x1="267" x2="488.6475" y1="320" y2="320"/><line style="stroke:#181818;stroke-width:0.5;" x1="267" x2="488.6475" y1="328" y2="328"/><ellipse cx="277" cy="342.8105" fill="#84BE84" rx="3" ry="3" style="stroke:#038048;stroke-width:1.0;"/><text fill="#000000" font-family="sans-serif" font-size="14" lengthAdjust="spacing" textLength="197.6475" x="286" y="347.1074">String test(String name, int age)</text></g><!--class HelloWorld--><g id="elem_HelloWorld"><rect codeLine="19" fill="#F1F1F1" height="316.6953" id="HelloWorld" rx="2.5" ry="2.5" style="stroke:#181818;stroke-width:0.5;" width="403.4121" x="46.5" y="428"/><ellipse cx="209.7251" cy="444" fill="#ADD1B2" rx="11" ry="11" style="stroke:#181818;stroke-width:1.0;"/><path d="M212.4907,439.875 Q212.647,439.6563 212.8345,439.5469 Q213.022,439.4375 213.2407,439.4375 Q213.6157,439.4375 213.8501,439.7031 Q214.0845,439.9531 214.0845,440.5625 L214.0845,442.0156 Q214.0845,442.625 213.8501,442.8906 Q213.6157,443.1563 213.2407,443.1563 Q212.897,443.1563 212.6938,442.9531 Q212.4907,442.7656 212.3813,442.25 Q212.3345,441.8906 212.147,441.7031 Q211.8188,441.3281 211.2095,441.1094 Q210.6001,440.8906 209.9751,440.8906 Q209.2095,440.8906 208.5688,441.2188 Q207.9438,441.5469 207.4438,442.2969 Q206.9595,443.0469 206.9595,444.0781 L206.9595,445.1719 Q206.9595,446.4063 207.8501,447.2344 Q208.7407,448.0469 210.3345,448.0469 Q211.272,448.0469 211.9282,447.7969 Q212.3188,447.6406 212.7407,447.2031 Q213.0063,446.9375 213.147,446.8594 Q213.3032,446.7813 213.5063,446.7813 Q213.8345,446.7813 214.0845,447.0469 Q214.3501,447.2969 214.3501,447.6406 Q214.3501,447.9844 214.0063,448.3906 Q213.5063,448.9688 212.7095,449.2969 Q211.6313,449.75 210.3345,449.75 Q208.8188,449.75 207.6157,449.125 Q206.6313,448.625 205.9438,447.5625 Q205.2563,446.4844 205.2563,445.2031 L205.2563,444.0469 Q205.2563,442.7188 205.8657,441.5781 Q206.4907,440.4219 207.5845,439.8125 Q208.6782,439.1875 209.9126,439.1875 Q210.647,439.1875 211.2876,439.3594 Q211.9438,439.5156 212.4907,439.875 Z " fill="#000000"/><text fill="#000000" font-family="sans-serif" font-size="14" lengthAdjust="spacing" textLength="68.4619" x="230.2251" y="449.7969">HelloWorld</text><line style="stroke:#181818;stroke-width:0.5;" x1="47.5" x2="448.9121" y1="460" y2="460"/><ellipse cx="57.5" cy="497.4316" fill="#84BE84" rx="3" ry="3" style="stroke:#038048;stroke-width:1.0;"/><text fill="#000000" font-family="sans-serif" font-size="14" lengthAdjust="spacing" textLength="138.5029" x="66.5" y="501.7285">String sayGoodNight()</text><ellipse cx="57.5" cy="516.0527" fill="#84BE84" rx="3" ry="3" style="stroke:#038048;stroke-width:1.0;"/><text fill="#000000" font-family="sans-serif" font-size="14" lengthAdjust="spacing" textLength="197.6475" x="66.5" y="520.3496">String test(String name, int age)</text><rect fill="#F24D5C" height="6" style="stroke:#C82930;stroke-width:1.0;" width="6" x="54.5" y="531.6738"/><text fill="#000000" font-family="sans-serif" font-size="14" lengthAdjust="spacing" textLength="282.4814" x="66.5" y="538.9707">String test$original$Abc(String name, int age)</text><polygon fill="#4177AF" points="57.5,549.2949,53.5,555.2949,61.5,555.2949" style="stroke:#1963A0;stroke-width:1.0;"/><text fill="#000000" font-family="sans-serif" font-size="14" lengthAdjust="spacing" textLength="377.4121" x="66.5" y="557.5918">String test$original$Abc$accessor$Xyz(String name, int age)</text><line style="stroke:#181818;stroke-width:1.0;" x1="47.5" x2="213.9751" y1="477.3105" y2="477.3105"/><text fill="#000000" font-family="sans-serif" font-size="14" lengthAdjust="spacing" textLength="68.4619" x="213.9751" y="482.6074">HelloWorld</text><line style="stroke:#181818;stroke-width:1.0;" x1="282.437" x2="448.9121" y1="477.3105" y2="477.3105"/><polygon fill="#4177AF" points="57.5,590.5371,53.5,596.5371,61.5,596.5371" style="stroke:#1963A0;stroke-width:1.0;"/><text fill="#000000" font-family="sans-serif" font-size="14" lengthAdjust="spacing" textLength="261.4609" x="66.5" y="598.834">String sayGoodAfternoon$accessor$Xyz()</text><line style="stroke:#181818;stroke-width:1.0;" x1="47.5" x2="227.582" y1="574.416" y2="574.416"/><text fill="#000000" font-family="sans-serif" font-size="14" lengthAdjust="spacing" textLength="41.248" x="227.582" y="579.7129">Parent</text><line style="stroke:#181818;stroke-width:1.0;" x1="268.8301" x2="448.9121" y1="574.416" y2="574.416"/><polygon fill="#4177AF" points="57.5,631.7793,53.5,637.7793,61.5,637.7793" style="stroke:#1963A0;stroke-width:1.0;"/><text fill="#000000" font-family="sans-serif" font-size="14" lengthAdjust="spacing" textLength="251.3301" x="66.5" y="640.0762">String sayGoodMorning$accessor$Xyz()</text><line style="stroke:#181818;stroke-width:1.0;" x1="47.5" x2="208.127" y1="615.6582" y2="615.6582"/><text fill="#000000" font-family="sans-serif" font-size="14" lengthAdjust="spacing" textLength="80.1582" x="208.127" y="620.9551">GrandParent</text><line style="stroke:#181818;stroke-width:1.0;" x1="288.2852" x2="448.9121" y1="615.6582" y2="615.6582"/><polygon fill="#4177AF" points="57.5,673.0215,53.5,679.0215,61.5,679.0215" style="stroke:#1963A0;stroke-width:1.0;"/><text fill="#000000" font-family="sans-serif" font-size="14" lengthAdjust="spacing" textLength="262.2607" x="66.5" y="681.3184">boolean equals$accessor$Xyz(Object obj)</text><polygon fill="#4177AF" points="57.5,691.6426,53.5,697.6426,61.5,697.6426" style="stroke:#1963A0;stroke-width:1.0;"/><text fill="#000000" font-family="sans-serif" font-size="14" lengthAdjust="spacing" textLength="186.7578" x="66.5" y="699.9395">int hashCode$accessor$Xyz()</text><polygon fill="#4177AF" points="57.5,710.2637,53.5,716.2637,61.5,716.2637" style="stroke:#1963A0;stroke-width:1.0;"/><text fill="#000000" font-family="sans-serif" font-size="14" lengthAdjust="spacing" textLength="192.9648" x="66.5" y="718.5605">String toString$accessor$Xyz()</text><polygon fill="#4177AF" points="57.5,728.8848,53.5,734.8848,61.5,734.8848" style="stroke:#1963A0;stroke-width:1.0;"/><text fill="#000000" font-family="sans-serif" font-size="14" lengthAdjust="spacing" textLength="182.0752" x="66.5" y="737.1816">Object clone$accessor$Xyz()</text><line style="stroke:#181818;stroke-width:1.0;" x1="47.5" x2="227.9751" y1="656.9004" y2="656.9004"/><text fill="#000000" font-family="sans-serif" font-size="14" lengthAdjust="spacing" textLength="40.4619" x="227.9751" y="662.1973">Object</text><line style="stroke:#181818;stroke-width:1.0;" x1="268.437" x2="448.9121" y1="656.9004" y2="656.9004"/></g><!--class HardWorker--><g id="elem_HardWorker"><rect codeLine="36" fill="#F1F1F1" height="66.6211" id="HardWorker" rx="2.5" ry="2.5" style="stroke:#181818;stroke-width:0.5;" width="290.7422" x="501" y="553"/><ellipse cx="604.3936" cy="569" fill="#ADD1B2" rx="11" ry="11" style="stroke:#181818;stroke-width:1.0;"/><path d="M607.1592,564.875 Q607.3154,564.6563 607.5029,564.5469 Q607.6904,564.4375 607.9092,564.4375 Q608.2842,564.4375 608.5186,564.7031 Q608.7529,564.9531 608.7529,565.5625 L608.7529,567.0156 Q608.7529,567.625 608.5186,567.8906 Q608.2842,568.1563 607.9092,568.1563 Q607.5654,568.1563 607.3623,567.9531 Q607.1592,567.7656 607.0498,567.25 Q607.0029,566.8906 606.8154,566.7031 Q606.4873,566.3281 605.8779,566.1094 Q605.2686,565.8906 604.6436,565.8906 Q603.8779,565.8906 603.2373,566.2188 Q602.6123,566.5469 602.1123,567.2969 Q601.6279,568.0469 601.6279,569.0781 L601.6279,570.1719 Q601.6279,571.4063 602.5186,572.2344 Q603.4092,573.0469 605.0029,573.0469 Q605.9404,573.0469 606.5967,572.7969 Q606.9873,572.6406 607.4092,572.2031 Q607.6748,571.9375 607.8154,571.8594 Q607.9717,571.7813 608.1748,571.7813 Q608.5029,571.7813 608.7529,572.0469 Q609.0186,572.2969 609.0186,572.6406 Q609.0186,572.9844 608.6748,573.3906 Q608.1748,573.9688 607.3779,574.2969 Q606.2998,574.75 605.0029,574.75 Q603.4873,574.75 602.2842,574.125 Q601.2998,573.625 600.6123,572.5625 Q599.9248,571.4844 599.9248,570.2031 L599.9248,569.0469 Q599.9248,567.7188 600.5342,566.5781 Q601.1592,565.4219 602.2529,564.8125 Q603.3467,564.1875 604.5811,564.1875 Q605.3154,564.1875 605.9561,564.3594 Q606.6123,564.5156 607.1592,564.875 Z " fill="#000000"/><text fill="#000000" font-family="sans-serif" font-size="14" lengthAdjust="spacing" textLength="75.4551" x="624.8936" y="574.7969">HardWorker</text><line style="stroke:#181818;stroke-width:0.5;" x1="502" x2="790.7422" y1="585" y2="585"/><line style="stroke:#181818;stroke-width:0.5;" x1="502" x2="790.7422" y1="593" y2="593"/><ellipse cx="512" cy="607.8105" fill="#84BE84" rx="3" ry="3" style="stroke:#038048;stroke-width:1.0;"/><text fill="#000000" font-family="sans-serif" font-size="14" lengthAdjust="spacing" text-decoration="underline" textLength="264.7422" x="521" y="612.1074">Object doWork(@Super HelloWorld zuper)</text></g><!--class HelloWorld$auxiliary$Proxy--><g id="elem_HelloWorld$auxiliary$Proxy"><rect codeLine="40" fill="#F1F1F1" height="324.6953" id="HelloWorld$auxiliary$Proxy" rx="2.5" ry="2.5" style="stroke:#181818;stroke-width:0.5;" width="244.6201" x="324.5" y="808"/><ellipse cx="358.1517" cy="824" fill="#ADD1B2" rx="11" ry="11" style="stroke:#181818;stroke-width:1.0;"/><path d="M360.9173,819.875 Q361.0736,819.6563 361.2611,819.5469 Q361.4486,819.4375 361.6673,819.4375 Q362.0423,819.4375 362.2767,819.7031 Q362.5111,819.9531 362.5111,820.5625 L362.5111,822.0156 Q362.5111,822.625 362.2767,822.8906 Q362.0423,823.1563 361.6673,823.1563 Q361.3236,823.1563 361.1205,822.9531 Q360.9173,822.7656 360.808,822.25 Q360.7611,821.8906 360.5736,821.7031 Q360.2455,821.3281 359.6361,821.1094 Q359.0267,820.8906 358.4017,820.8906 Q357.6361,820.8906 356.9955,821.2188 Q356.3705,821.5469 355.8705,822.2969 Q355.3861,823.0469 355.3861,824.0781 L355.3861,825.1719 Q355.3861,826.4063 356.2767,827.2344 Q357.1673,828.0469 358.7611,828.0469 Q359.6986,828.0469 360.3548,827.7969 Q360.7455,827.6406 361.1673,827.2031 Q361.433,826.9375 361.5736,826.8594 Q361.7298,826.7813 361.933,826.7813 Q362.2611,826.7813 362.5111,827.0469 Q362.7767,827.2969 362.7767,827.6406 Q362.7767,827.9844 362.433,828.3906 Q361.933,828.9688 361.1361,829.2969 Q360.058,829.75 358.7611,829.75 Q357.2455,829.75 356.0423,829.125 Q355.058,828.625 354.3705,827.5625 Q353.683,826.4844 353.683,825.2031 L353.683,824.0469 Q353.683,822.7188 354.2923,821.5781 Q354.9173,820.4219 356.0111,819.8125 Q357.1048,819.1875 358.3392,819.1875 Q359.0736,819.1875 359.7142,819.3594 Q360.3705,819.5156 360.9173,819.875 Z " fill="#000000"/><text fill="#000000" font-family="sans-serif" font-size="14" lengthAdjust="spacing" textLength="171.1719" x="376.2965" y="829.7969">HelloWorld$auxiliary$Proxy</text><line style="stroke:#181818;stroke-width:0.5;" x1="325.5" x2="568.1201" y1="840" y2="840"/><ellipse cx="335.5" cy="854.8105" fill="none" rx="3" ry="3" style="stroke:#038048;stroke-width:1.0;"/><text fill="#000000" font-family="sans-serif" font-size="14" lengthAdjust="spacing" textLength="108.1514" x="344.5" y="859.1074">HelloWorld target</text><line style="stroke:#181818;stroke-width:1.0;" x1="325.5" x2="568.1201" y1="866.6211" y2="866.6211"/><polygon fill="#4177AF" points="335.5,877.4316,331.5,883.4316,339.5,883.4316" style="stroke:#1963A0;stroke-width:1.0;"/><text fill="#000000" font-family="sans-serif" font-size="14" lengthAdjust="spacing" text-decoration="underline" textLength="218.6201" x="344.5" y="885.7285">HelloWorld$auxiliary$Proxy make()</text><ellipse cx="335.5" cy="922.6738" fill="#84BE84" rx="3" ry="3" style="stroke:#038048;stroke-width:1.0;"/><text fill="#000000" font-family="sans-serif" font-size="14" lengthAdjust="spacing" textLength="138.5029" x="344.5" y="926.9707">String sayGoodNight()</text><ellipse cx="335.5" cy="941.2949" fill="#84BE84" rx="3" ry="3" style="stroke:#038048;stroke-width:1.0;"/><text fill="#000000" font-family="sans-serif" font-size="14" lengthAdjust="spacing" textLength="197.6475" x="344.5" y="945.5918">String test(String name, int age)</text><line style="stroke:#181818;stroke-width:1.0;" x1="325.5" x2="412.5791" y1="902.5527" y2="902.5527"/><text fill="#000000" font-family="sans-serif" font-size="14" lengthAdjust="spacing" textLength="68.4619" x="412.5791" y="907.8496">HelloWorld</text><line style="stroke:#181818;stroke-width:1.0;" x1="481.041" x2="568.1201" y1="902.5527" y2="902.5527"/><ellipse cx="335.5" cy="982.5371" fill="#84BE84" rx="3" ry="3" style="stroke:#038048;stroke-width:1.0;"/><text fill="#000000" font-family="sans-serif" font-size="14" lengthAdjust="spacing" textLength="166.5303" x="344.5" y="986.834">String sayGoodAfternoon()</text><line style="stroke:#181818;stroke-width:1.0;" x1="325.5" x2="426.186" y1="962.416" y2="962.416"/><text fill="#000000" font-family="sans-serif" font-size="14" lengthAdjust="spacing" textLength="41.248" x="426.186" y="967.7129">Parent</text><line style="stroke:#181818;stroke-width:1.0;" x1="467.4341" x2="568.1201" y1="962.416" y2="962.416"/><ellipse cx="335.5" cy="1023.7793" fill="#84BE84" rx="3" ry="3" style="stroke:#038048;stroke-width:1.0;"/><text fill="#000000" font-family="sans-serif" font-size="14" lengthAdjust="spacing" textLength="156.3994" x="344.5" y="1028.0762">String sayGoodMorning()</text><line style="stroke:#181818;stroke-width:1.0;" x1="325.5" x2="406.731" y1="1003.6582" y2="1003.6582"/><text fill="#000000" font-family="sans-serif" font-size="14" lengthAdjust="spacing" textLength="80.1582" x="406.731" y="1008.9551">GrandParent</text><line style="stroke:#181818;stroke-width:1.0;" x1="486.8892" x2="568.1201" y1="1003.6582" y2="1003.6582"/><ellipse cx="335.5" cy="1065.0215" fill="#84BE84" rx="3" ry="3" style="stroke:#038048;stroke-width:1.0;"/><text fill="#000000" font-family="sans-serif" font-size="14" lengthAdjust="spacing" textLength="167.3301" x="344.5" y="1069.3184">boolean equals(Object obj)</text><ellipse cx="335.5" cy="1083.6426" fill="#84BE84" rx="3" ry="3" style="stroke:#038048;stroke-width:1.0;"/><text fill="#000000" font-family="sans-serif" font-size="14" lengthAdjust="spacing" textLength="91.8271" x="344.5" y="1087.9395">int hashCode()</text><ellipse cx="335.5" cy="1102.2637" fill="#84BE84" rx="3" ry="3" style="stroke:#038048;stroke-width:1.0;"/><text fill="#000000" font-family="sans-serif" font-size="14" lengthAdjust="spacing" textLength="98.0342" x="344.5" y="1106.5605">String toString()</text><polygon fill="#FFFF44" points="335.5,1115.8848,339.5,1119.8848,335.5,1123.8848,331.5,1119.8848" style="stroke:#B38D22;stroke-width:1.0;"/><text fill="#000000" font-family="sans-serif" font-size="14" lengthAdjust="spacing" textLength="87.1445" x="344.5" y="1125.1816">Object clone()</text><line style="stroke:#181818;stroke-width:1.0;" x1="325.5" x2="426.5791" y1="1044.9004" y2="1044.9004"/><text fill="#000000" font-family="sans-serif" font-size="14" lengthAdjust="spacing" textLength="40.4619" x="426.5791" y="1050.1973">Object</text><line style="stroke:#181818;stroke-width:1.0;" x1="467.041" x2="568.1201" y1="1044.9004" y2="1044.9004"/></g><g id="elem_GMN15"><path d="M327.5,1193 L327.5,1220.291 A0,0 0 0 0 327.5,1220.291 L566.7197,1220.291 A0,0 0 0 0 566.7197,1220.291 L566.7197,1203 L556.7197,1193 L451,1193 L447,1133.06 L443,1193 L327.5,1193 A0,0 0 0 0 327.5,1193 " fill="#FEFFDD" style="stroke:#181818;stroke-width:0.5;"/><path d="M556.7197,1193 L556.7197,1203 L566.7197,1203 L556.7197,1193 " fill="#FEFFDD" style="stroke:#181818;stroke-width:0.5;"/><text fill="#000000" font-family="sans-serif" font-size="13" lengthAdjust="spacing" textLength="218.2197" x="333.5" y="1212.0283">Proxy Class Generated by ByteBuddy</text></g><!--reverse link ITest to GrandParent--><g id="link_ITest_GrandParent"><path d="M218.5463,89.6344 C207.5463,107.6144 203.19,114.72 191.44,133.92 " fill="none" id="ITest-backto-GrandParent" style="stroke:#181818;stroke-width:1.0;stroke-dasharray:7.0,7.0;"/><polygon fill="none" points="227.94,74.28,213.4282,86.5032,223.6644,92.7657,227.94,74.28" style="stroke:#181818;stroke-width:1.0;"/></g><!--reverse link GrandParent to Parent--><g id="link_GrandParent_Parent"><path d="M146.6562,236.3489 C140.4762,255.1389 138.83,260.18 132.66,278.95 " fill="none" id="GrandParent-backto-Parent" style="stroke:#181818;stroke-width:1.0;"/><polygon fill="none" points="152.28,219.25,140.9566,234.4743,152.3558,238.2235,152.28,219.25" style="stroke:#181818;stroke-width:1.0;"/></g><!--reverse link ITest to DefaultTest--><g id="link_ITest_DefaultTest"><path d="M273.42,90.2529 C282.51,107.8529 285.47,114 295,134 C320.45,187.44 348.01,250.52 364.11,287.92 " fill="none" id="ITest-backto-DefaultTest" style="stroke:#181818;stroke-width:1.0;"/><polygon fill="none" points="265.16,74.26,268.089,93.0062,278.7509,87.4996,265.16,74.26" style="stroke:#181818;stroke-width:1.0;"/></g><!--reverse link Parent to HelloWorld--><g id="link_Parent_HelloWorld"><path d="M147.3794,380.2445 C155.7294,397.2345 158.02,401.9 168.84,423.91 " fill="none" id="Parent-backto-HelloWorld" style="stroke:#181818;stroke-width:1.0;"/><polygon fill="none" points="139.44,364.09,141.9945,382.8909,152.7642,377.598,139.44,364.09" style="stroke:#181818;stroke-width:1.0;"/></g><!--reverse link DefaultTest to HelloWorld--><g id="link_DefaultTest_HelloWorld"><path d="M353.8102,371.3496 C344.7602,389.6196 340.72,397.78 327.87,423.72 " fill="none" id="DefaultTest-backto-HelloWorld" style="stroke:#181818;stroke-width:1.0;stroke-dasharray:7.0,7.0;"/><polygon fill="none" points="361.8,355.22,348.4337,368.6863,359.1868,374.0128,361.8,355.22" style="stroke:#181818;stroke-width:1.0;"/></g><!--reverse link HelloWorld to HelloWorld$auxiliary$Proxy--><g id="link_HelloWorld_HelloWorld$auxiliary$Proxy"><path d="M340.1269,764.0786 C350.4269,783.8786 352.65,788.16 362.96,807.97 " fill="none" id="HelloWorld-backto-HelloWorld$auxiliary$Proxy" style="stroke:#181818;stroke-width:1.0;"/><polygon fill="none" points="331.82,748.11,334.804,766.8475,345.4497,761.3096,331.82,748.11" style="stroke:#181818;stroke-width:1.0;"/></g><!--link HelloWorld to HardWorker--><g id="link_HelloWorld_HardWorker"><path codeLine="60" d="M451,514 C497.33,514 447.67,606 494,606 " fill="none" id="HelloWorld-to-HardWorker" style="stroke:#181818;stroke-width:1.0;"/><polygon fill="#181818" points="500,606,491,602,495,606,491,610,500,606" style="stroke:#181818;stroke-width:1.0;"/></g><!--link HardWorker to HelloWorld$auxiliary$Proxy--><g id="link_HardWorker_HelloWorld$auxiliary$Proxy"><path codeLine="61" d="M500,606 C494.52,606 480.4128,704.91 467.8028,802 " fill="none" id="HardWorker-to-HelloWorld$auxiliary$Proxy" style="stroke:#181818;stroke-width:1.0;"/><polygon fill="#181818" points="467.03,807.95,472.1559,799.5402,467.674,802.9916,464.2225,798.5098,467.03,807.95" style="stroke:#181818;stroke-width:1.0;"/></g><!--SRC=[jPJBRjim44Nt-We25L07Zkgz5aNp0D8ksWP8WNOx4iUoOehZaYFKYk5yUoMBagNeaMPHhsXovbxTuG7VRvXtDbojTWeqvvdw45EsYXLO6yWK4WEPvwMQqQmXHl7b1reM1q-KlmD4bWt4V1GFR5AT22uF5swj8SDBKNOAIF32EtedJN5dGCjxC5WUfDbEOLQkR4ztsSXPAEw8v5SokloxkEYV_eEPyy4zevPzxt6hgtKPL1FfDvbrvdEBQyWLdzAy5czUiqxm6PMYdsIKR5CCXzSrhJs2eDiP1ADXlwN9XjyGz2JShVF9f4cgGVbNKJpJz3pPv4CSexLa_5_5qvnjqCHsMPwdBgwls7Pthtv2mc4s8V0zUiIuqniHAGGjy7SEolQRN2r5Zqt-Aim6xEQ698uPd2T4zMAyo0d7YlH0vemC65dU-nPD2zp1Cd0Q7ni1MO6nNNnwo7TbLOUKfsfZ53yVydsgKZ25VszeNxGuTheRkyuMWqcGtH1TYlPhPjGpsE9v-F-9vPTGlVOQZ7Cq_rmDq5c-G6T0ox97oo2J0yJjl-inKMEWYR4qOQPCq7fcog6eXtrJlyoeqG2Z554XhWl6wrpAmlFE_M5OJLG4fXfsyB53MXZMI7d3BH58-gEhwidlyFu2]--></g></svg>