<svg xmlns="http://www.w3.org/2000/svg" xmlns:xlink="http://www.w3.org/1999/xlink" contentStyleType="text/css" height="619.2px" preserveAspectRatio="none" style="width:595px;height:619px;background:#FFFFFF;" version="1.1" viewBox="0 0 595 619" width="595.2px" zoomAndPan="magnify"><defs/><g><!--class ITest--><g id="elem_ITest"><rect codeLine="3" fill="#F1F1F1" height="79.9453" id="ITest" rx="3" ry="3" style="stroke:#181818;stroke-width:0.6;" width="251.577" x="171.6" y="8.4"/><ellipse cx="273.6182" cy="27.6" fill="#B4A7E5" rx="13.2" ry="13.2" style="stroke:#181818;stroke-width:1.2;"/><path d="M274.7619,23.5687 L274.7619,31.5563 L276.8244,31.5563 Q277.5557,31.5563 277.8744,31.8375 Q278.1932,32.1188 278.1932,32.5875 Q278.1932,33.0375 277.8744,33.3188 Q277.5557,33.6 276.8244,33.6 L270.6557,33.6 Q269.9244,33.6 269.6057,33.3188 Q269.2869,33.0375 269.2869,32.5688 Q269.2869,32.1188 269.6057,31.8375 Q269.9244,31.5563 270.6557,31.5563 L272.7182,31.5563 L272.7182,23.5687 L270.6557,23.5687 Q269.9244,23.5687 269.6057,23.2875 Q269.2869,23.0062 269.2869,22.5375 Q269.2869,22.0875 269.6057,21.8063 Q269.9244,21.525 270.6557,21.525 L276.8244,21.525 Q277.5557,21.525 277.8744,21.8063 Q278.1932,22.0875 278.1932,22.5375 Q278.1932,23.0062 277.8744,23.2875 Q277.5557,23.5687 276.8244,23.5687 L274.7619,23.5687 Z " fill="#000000"/><text fill="#000000" font-family="sans-serif" font-size="16.8" font-style="italic" lengthAdjust="spacing" textLength="37.3406" x="298.2182" y="34.5563">ITest</text><line style="stroke:#181818;stroke-width:0.6;" x1="172.8" x2="421.977" y1="46.8" y2="46.8"/><line style="stroke:#181818;stroke-width:0.6;" x1="172.8" x2="421.977" y1="56.4" y2="56.4"/><text fill="#000000" font-family="sans-serif" font-size="16.8" font-style="italic" lengthAdjust="spacing" textLength="237.177" x="178.8" y="79.3289">String test(String name, int age)</text></g><!--class GrandParent--><g id="elem_GrandParent"><rect codeLine="6" fill="#F1F1F1" height="102.2906" id="GrandParent" rx="3" ry="3" style="stroke:#181818;stroke-width:0.6;" width="268.377" x="36" y="160.8"/><ellipse cx="116.9936" cy="180" fill="#ADD1B2" rx="13.2" ry="13.2" style="stroke:#181818;stroke-width:1.2;"/><path d="M120.3123,175.05 Q120.4998,174.7875 120.7248,174.6563 Q120.9498,174.525 121.2123,174.525 Q121.6623,174.525 121.9436,174.8438 Q122.2248,175.1437 122.2248,175.875 L122.2248,177.6188 Q122.2248,178.35 121.9436,178.6688 Q121.6623,178.9875 121.2123,178.9875 Q120.7998,178.9875 120.5561,178.7438 Q120.3123,178.5187 120.1811,177.9 Q120.1248,177.4688 119.8998,177.2438 Q119.5061,176.7938 118.7748,176.5313 Q118.0436,176.2687 117.2936,176.2687 Q116.3748,176.2687 115.6061,176.6625 Q114.8561,177.0563 114.2561,177.9562 Q113.6748,178.8563 113.6748,180.0938 L113.6748,181.4063 Q113.6748,182.8875 114.7436,183.8813 Q115.8123,184.8563 117.7248,184.8563 Q118.8498,184.8563 119.6373,184.5563 Q120.1061,184.3688 120.6123,183.8438 Q120.9311,183.525 121.0998,183.4313 Q121.2873,183.3375 121.5311,183.3375 Q121.9248,183.3375 122.2248,183.6563 Q122.5436,183.9562 122.5436,184.3688 Q122.5436,184.7813 122.1311,185.2687 Q121.5311,185.9625 120.5748,186.3563 Q119.2811,186.9 117.7248,186.9 Q115.9061,186.9 114.4623,186.15 Q113.2811,185.55 112.4561,184.275 Q111.6311,182.9813 111.6311,181.4438 L111.6311,180.0563 Q111.6311,178.4625 112.3623,177.0938 Q113.1123,175.7062 114.4248,174.975 Q115.7373,174.225 117.2186,174.225 Q118.0998,174.225 118.8686,174.4313 Q119.6561,174.6188 120.3123,175.05 Z " fill="#000000"/><text fill="#000000" font-family="sans-serif" font-size="16.8" lengthAdjust="spacing" textLength="96.1898" x="141.5936" y="186.9562">GrandParent</text><line style="stroke:#181818;stroke-width:0.6;" x1="37.2" x2="303.177" y1="199.2" y2="199.2"/><line style="stroke:#181818;stroke-width:0.6;" x1="37.2" x2="303.177" y1="208.8" y2="208.8"/><ellipse cx="49.2" cy="226.5727" fill="#84BE84" rx="3.6" ry="3.6" style="stroke:#038048;stroke-width:1.2;"/><text fill="#000000" font-family="sans-serif" font-size="16.8" lengthAdjust="spacing" textLength="187.6793" x="60" y="231.7289">String sayGoodMorning()</text><ellipse cx="49.2" cy="248.918" fill="#84BE84" rx="3.6" ry="3.6" style="stroke:#038048;stroke-width:1.2;"/><text fill="#000000" font-family="sans-serif" font-size="16.8" lengthAdjust="spacing" textLength="237.177" x="60" y="254.0742">String test(String name, int age)</text></g><!--class Parent--><g id="elem_Parent"><rect codeLine="10" fill="#F1F1F1" height="102.2906" id="Parent" rx="3" ry="3" style="stroke:#181818;stroke-width:0.6;" width="268.377" x="8.4" y="334.8"/><ellipse cx="112.7396" cy="354" fill="#ADD1B2" rx="13.2" ry="13.2" style="stroke:#181818;stroke-width:1.2;"/><path d="M116.0584,349.05 Q116.2459,348.7875 116.4709,348.6563 Q116.6959,348.525 116.9584,348.525 Q117.4084,348.525 117.6896,348.8438 Q117.9709,349.1438 117.9709,349.875 L117.9709,351.6188 Q117.9709,352.35 117.6896,352.6688 Q117.4084,352.9875 116.9584,352.9875 Q116.5459,352.9875 116.3021,352.7438 Q116.0584,352.5188 115.9271,351.9 Q115.8709,351.4688 115.6459,351.2438 Q115.2521,350.7938 114.5209,350.5313 Q113.7896,350.2688 113.0396,350.2688 Q112.1209,350.2688 111.3521,350.6625 Q110.6021,351.0563 110.0021,351.9563 Q109.4209,352.8563 109.4209,354.0938 L109.4209,355.4063 Q109.4209,356.8875 110.4896,357.8812 Q111.5584,358.8563 113.4709,358.8563 Q114.5959,358.8563 115.3834,358.5563 Q115.8521,358.3688 116.3584,357.8438 Q116.6771,357.525 116.8459,357.4313 Q117.0334,357.3375 117.2771,357.3375 Q117.6709,357.3375 117.9709,357.6563 Q118.2896,357.9563 118.2896,358.3688 Q118.2896,358.7813 117.8771,359.2688 Q117.2771,359.9625 116.3209,360.3563 Q115.0271,360.9 113.4709,360.9 Q111.6521,360.9 110.2084,360.15 Q109.0271,359.55 108.2021,358.275 Q107.3771,356.9813 107.3771,355.4437 L107.3771,354.0563 Q107.3771,352.4625 108.1084,351.0938 Q108.8584,349.7063 110.1709,348.975 Q111.4834,348.225 112.9646,348.225 Q113.8459,348.225 114.6146,348.4313 Q115.4021,348.6188 116.0584,349.05 Z " fill="#000000"/><text fill="#000000" font-family="sans-serif" font-size="16.8" lengthAdjust="spacing" textLength="49.4977" x="137.3396" y="360.9563">Parent</text><line style="stroke:#181818;stroke-width:0.6;" x1="9.6" x2="275.577" y1="373.2" y2="373.2"/><line style="stroke:#181818;stroke-width:0.6;" x1="9.6" x2="275.577" y1="382.8" y2="382.8"/><ellipse cx="21.6" cy="400.5727" fill="#84BE84" rx="3.6" ry="3.6" style="stroke:#038048;stroke-width:1.2;"/><text fill="#000000" font-family="sans-serif" font-size="16.8" lengthAdjust="spacing" textLength="199.8363" x="32.4" y="405.7289">String sayGoodAfternoon()</text><ellipse cx="21.6" cy="422.918" fill="#84BE84" rx="3.6" ry="3.6" style="stroke:#038048;stroke-width:1.2;"/><text fill="#000000" font-family="sans-serif" font-size="16.8" lengthAdjust="spacing" textLength="237.177" x="32.4" y="428.0742">String test(String name, int age)</text></g><!--class DefaultTest--><g id="elem_DefaultTest"><rect codeLine="15" fill="#F1F1F1" height="79.9453" id="DefaultTest" rx="3" ry="3" style="stroke:#181818;stroke-width:0.6;" width="268.377" x="319.2" y="345.6"/><ellipse cx="405.3369" cy="364.8" fill="#B4A7E5" rx="13.2" ry="13.2" style="stroke:#181818;stroke-width:1.2;"/><path d="M406.4807,360.7688 L406.4807,368.7562 L408.5432,368.7562 Q409.2744,368.7562 409.5932,369.0375 Q409.9119,369.3187 409.9119,369.7875 Q409.9119,370.2375 409.5932,370.5188 Q409.2744,370.8 408.5432,370.8 L402.3744,370.8 Q401.6432,370.8 401.3244,370.5188 Q401.0057,370.2375 401.0057,369.7688 Q401.0057,369.3187 401.3244,369.0375 Q401.6432,368.7562 402.3744,368.7562 L404.4369,368.7562 L404.4369,360.7688 L402.3744,360.7688 Q401.6432,360.7688 401.3244,360.4875 Q401.0057,360.2063 401.0057,359.7375 Q401.0057,359.2875 401.3244,359.0062 Q401.6432,358.725 402.3744,358.725 L408.5432,358.725 Q409.2744,358.725 409.5932,359.0062 Q409.9119,359.2875 409.9119,359.7375 Q409.9119,360.2063 409.5932,360.4875 Q409.2744,360.7688 408.5432,360.7688 L406.4807,360.7688 Z " fill="#000000"/><text fill="#000000" font-family="sans-serif" font-size="16.8" font-style="italic" lengthAdjust="spacing" textLength="85.9031" x="429.9369" y="371.7562">DefaultTest</text><line style="stroke:#181818;stroke-width:0.6;" x1="320.4" x2="586.377" y1="384" y2="384"/><line style="stroke:#181818;stroke-width:0.6;" x1="320.4" x2="586.377" y1="393.6" y2="393.6"/><ellipse cx="332.4" cy="411.3727" fill="#84BE84" rx="3.6" ry="3.6" style="stroke:#038048;stroke-width:1.2;"/><text fill="#000000" font-family="sans-serif" font-size="16.8" lengthAdjust="spacing" textLength="237.177" x="343.2" y="416.5289">String test(String name, int age)</text></g><!--class HelloWorld--><g id="elem_HelloWorld"><rect codeLine="19" fill="#F1F1F1" height="102.2906" id="HelloWorld" rx="3" ry="3" style="stroke:#181818;stroke-width:0.6;" width="268.377" x="163.2" y="508.8"/><ellipse cx="251.2113" cy="528" fill="#ADD1B2" rx="13.2" ry="13.2" style="stroke:#181818;stroke-width:1.2;"/><path d="M254.5301,523.05 Q254.7176,522.7875 254.9426,522.6563 Q255.1676,522.525 255.4301,522.525 Q255.8801,522.525 256.1613,522.8438 Q256.4426,523.1438 256.4426,523.875 L256.4426,525.6188 Q256.4426,526.35 256.1613,526.6687 Q255.8801,526.9875 255.4301,526.9875 Q255.0176,526.9875 254.7738,526.7438 Q254.5301,526.5188 254.3988,525.9 Q254.3426,525.4688 254.1176,525.2438 Q253.7238,524.7937 252.9926,524.5313 Q252.2613,524.2688 251.5113,524.2688 Q250.5926,524.2688 249.8238,524.6625 Q249.0738,525.0563 248.4738,525.9563 Q247.8926,526.8562 247.8926,528.0938 L247.8926,529.4063 Q247.8926,530.8875 248.9613,531.8813 Q250.0301,532.8562 251.9426,532.8562 Q253.0676,532.8562 253.8551,532.5563 Q254.3238,532.3688 254.8301,531.8438 Q255.1488,531.525 255.3176,531.4313 Q255.5051,531.3375 255.7488,531.3375 Q256.1426,531.3375 256.4426,531.6563 Q256.7613,531.9563 256.7613,532.3688 Q256.7613,532.7813 256.3488,533.2688 Q255.7488,533.9625 254.7926,534.3562 Q253.4988,534.9 251.9426,534.9 Q250.1238,534.9 248.6801,534.15 Q247.4988,533.55 246.6738,532.275 Q245.8488,530.9812 245.8488,529.4438 L245.8488,528.0563 Q245.8488,526.4625 246.5801,525.0938 Q247.3301,523.7063 248.6426,522.975 Q249.9551,522.225 251.4363,522.225 Q252.3176,522.225 253.0863,522.4313 Q253.8738,522.6188 254.5301,523.05 Z " fill="#000000"/><text fill="#000000" font-family="sans-serif" font-size="16.8" lengthAdjust="spacing" textLength="82.1543" x="275.8113" y="534.9563">HelloWorld</text><line style="stroke:#181818;stroke-width:0.6;" x1="164.4" x2="430.377" y1="547.2" y2="547.2"/><line style="stroke:#181818;stroke-width:0.6;" x1="164.4" x2="430.377" y1="556.8" y2="556.8"/><ellipse cx="176.4" cy="574.5727" fill="#84BE84" rx="3.6" ry="3.6" style="stroke:#038048;stroke-width:1.2;"/><text fill="#000000" font-family="sans-serif" font-size="16.8" lengthAdjust="spacing" textLength="166.2035" x="187.2" y="579.7289">String sayGoodNight()</text><ellipse cx="176.4" cy="596.918" fill="#84BE84" rx="3.6" ry="3.6" style="stroke:#038048;stroke-width:1.2;"/><text fill="#000000" font-family="sans-serif" font-size="16.8" lengthAdjust="spacing" textLength="237.177" x="187.2" y="602.0742">String test(String name, int age)</text></g><!--reverse link ITest to GrandParent--><g id="link_ITest_GrandParent"><path d="M253.085,106.0779 C236.021,127.6539 228.096,137.664 209.868,160.704 " fill="none" id="ITest-backto-GrandParent" style="stroke:#181818;stroke-width:1.2;stroke-dasharray:7.0,7.0;"/><polygon fill="none" points="266.484,89.136,247.4377,101.6116,258.7323,110.5442,266.484,89.136" style="stroke:#181818;stroke-width:1.2;"/></g><!--reverse link GrandParent to Parent--><g id="link_GrandParent_Parent"><path d="M158.9093,284.4245 C155.2733,306.9725 154.44,312.216 150.816,334.74 " fill="none" id="GrandParent-backto-Parent" style="stroke:#181818;stroke-width:1.2;"/><polygon fill="none" points="162.348,263.1,151.8011,283.2783,166.0175,285.5708,162.348,263.1" style="stroke:#181818;stroke-width:1.2;"/></g><!--reverse link ITest to DefaultTest--><g id="link_ITest_DefaultTest"><path d="M324.9255,108.4395 C354.9015,172.7835 405.216,280.752 435.276,345.276 " fill="none" id="ITest-backto-DefaultTest" style="stroke:#181818;stroke-width:1.2;"/><polygon fill="none" points="315.804,88.86,318.399,111.48,331.452,105.399,315.804,88.86" style="stroke:#181818;stroke-width:1.2;"/></g><!--reverse link Parent to HelloWorld--><g id="link_Parent_HelloWorld"><path d="M202.46,453.1386 C222.8,475.6866 232.296,486.216 252.624,508.74 " fill="none" id="Parent-backto-HelloWorld" style="stroke:#181818;stroke-width:1.2;"/><polygon fill="none" points="187.992,437.1,197.1138,457.9613,207.8062,448.3159,187.992,437.1" style="stroke:#181818;stroke-width:1.2;"/></g><!--reverse link DefaultTest to HelloWorld--><g id="link_DefaultTest_HelloWorld"><path d="M403.2816,442.3504 C381.0576,466.7824 366.828,482.448 343.02,508.644 " fill="none" id="DefaultTest-backto-HelloWorld" style="stroke:#181818;stroke-width:1.2;stroke-dasharray:7.0,7.0;"/><polygon fill="none" points="417.816,426.372,397.9554,437.5056,408.6077,447.1952,417.816,426.372" style="stroke:#181818;stroke-width:1.2;"/></g><!--SRC=[bP3B2i8m44Nt-OhihFZetfqWL1UAeE1wRAOra4nACWMb-Ey6NrWKjLbDkCmzdEaTcAimITFA075jpJXtDiqDX31I6aeFLWXDZBw07ELYYu5b8sHy3Um3UyZvB3ViDPMIOvZSPmABGnat9PJO5sTnxPIP1r9hy1W3RIk3DawXrJjur0KuPSwffVCKlqc_dVu1ktFmo4YgpVwCcXPHb9oZJh2N-yomWDhmrUQNtlVEcy4SZN4xvurwMhmVxnNwsMkbomDtShe0]--></g></svg>