<svg xmlns="http://www.w3.org/2000/svg" xmlns:xlink="http://www.w3.org/1999/xlink" contentStyleType="text/css" height="289.8px" preserveAspectRatio="none" style="width:484px;height:289px;background:#FFFFFF;" version="1.1" viewBox="0 0 484 289" width="484.4px" zoomAndPan="magnify"><defs/><g><!--class Parent--><g id="elem_Parent"><rect codeLine="2" fill="#F1F1F1" height="67.2" id="Parent" rx="3.5" ry="3.5" style="stroke:#181818;stroke-width:0.6999999999999998;" width="102.5473" x="9.8" y="23.1"/><ellipse cx="30.8" cy="45.5" fill="#ADD1B2" rx="15.4" ry="15.4" style="stroke:#181818;stroke-width:1.3999999999999997;"/><path d="M34.6719,39.725 Q34.8906,39.4187 35.1531,39.2656 Q35.4156,39.1125 35.7219,39.1125 Q36.2469,39.1125 36.575,39.4844 Q36.9031,39.8344 36.9031,40.6875 L36.9031,42.7219 Q36.9031,43.575 36.575,43.9469 Q36.2469,44.3187 35.7219,44.3187 Q35.2406,44.3187 34.9562,44.0344 Q34.6719,43.7719 34.5187,43.05 Q34.4531,42.5469 34.1906,42.2844 Q33.7312,41.7594 32.8781,41.4531 Q32.025,41.1469 31.15,41.1469 Q30.0781,41.1469 29.1812,41.6062 Q28.3062,42.0656 27.6062,43.1156 Q26.9281,44.1656 26.9281,45.6094 L26.9281,47.1406 Q26.9281,48.8687 28.175,50.0281 Q29.4219,51.1656 31.6531,51.1656 Q32.9656,51.1656 33.8844,50.8156 Q34.4312,50.5969 35.0219,49.9844 Q35.3937,49.6125 35.5906,49.5031 Q35.8094,49.3937 36.0937,49.3937 Q36.5531,49.3937 36.9031,49.7656 Q37.275,50.1156 37.275,50.5969 Q37.275,51.0781 36.7937,51.6469 Q36.0937,52.4562 34.9781,52.9156 Q33.4687,53.55 31.6531,53.55 Q29.5312,53.55 27.8469,52.675 Q26.4687,51.975 25.5062,50.4875 Q24.5437,48.9781 24.5437,47.1844 L24.5437,45.5656 Q24.5437,43.7062 25.3969,42.1094 Q26.2719,40.4906 27.8031,39.6375 Q29.3344,38.7625 31.0625,38.7625 Q32.0906,38.7625 32.9875,39.0031 Q33.9062,39.2219 34.6719,39.725 Z " fill="#000000"/><text fill="#000000" font-family="sans-serif" font-size="19.6" lengthAdjust="spacing" textLength="57.7473" x="50.4" y="53.6156">Parent</text><line style="stroke:#181818;stroke-width:0.6999999999999998;" x1="11.2" x2="110.9473" y1="67.9" y2="67.9"/><line style="stroke:#181818;stroke-width:0.6999999999999998;" x1="11.2" x2="110.9473" y1="79.1" y2="79.1"/></g><!--class ITest--><g id="elem_ITest"><rect codeLine="3" fill="#F1F1F1" height="93.2695" id="ITest" rx="3.5" ry="3.5" style="stroke:#181818;stroke-width:0.6999999999999998;" width="313.1064" x="161.7" y="9.8"/><ellipse cx="290.5212" cy="32.2" fill="#B4A7E5" rx="15.4" ry="15.4" style="stroke:#181818;stroke-width:1.3999999999999997;"/><path d="M291.8556,27.4969 L291.8556,36.8156 L294.2618,36.8156 Q295.1149,36.8156 295.4868,37.1437 Q295.8587,37.4719 295.8587,38.0187 Q295.8587,38.5437 295.4868,38.8719 Q295.1149,39.2 294.2618,39.2 L287.0649,39.2 Q286.2118,39.2 285.8399,38.8719 Q285.4681,38.5437 285.4681,37.9969 Q285.4681,37.4719 285.8399,37.1437 Q286.2118,36.8156 287.0649,36.8156 L289.4712,36.8156 L289.4712,27.4969 L287.0649,27.4969 Q286.2118,27.4969 285.8399,27.1687 Q285.4681,26.8406 285.4681,26.2937 Q285.4681,25.7687 285.8399,25.4406 Q286.2118,25.1125 287.0649,25.1125 L294.2618,25.1125 Q295.1149,25.1125 295.4868,25.4406 Q295.8587,25.7687 295.8587,26.2937 Q295.8587,26.8406 295.4868,27.1687 Q295.1149,27.4969 294.2618,27.4969 L291.8556,27.4969 Z " fill="#000000"/><text fill="#000000" font-family="sans-serif" font-size="19.6" font-style="italic" lengthAdjust="spacing" textLength="43.5641" x="319.2212" y="40.3156">ITest</text><line style="stroke:#181818;stroke-width:0.6999999999999998;" x1="163.1" x2="473.4064" y1="54.6" y2="54.6"/><line style="stroke:#181818;stroke-width:0.6999999999999998;" x1="163.1" x2="473.4064" y1="65.8" y2="65.8"/><ellipse cx="177.1" cy="86.5348" fill="#84BE84" rx="4.2" ry="4.2" style="stroke:#038048;stroke-width:1.3999999999999997;"/><text fill="#000000" font-family="sans-serif" font-size="19.6" lengthAdjust="spacing" textLength="276.7064" x="189.7" y="92.5504">String test(String name, int age)</text></g><!--class HelloWorld--><g id="elem_HelloWorld"><rect codeLine="7" fill="#F1F1F1" height="93.2695" id="HelloWorld" rx="3.5" ry="3.5" style="stroke:#181818;stroke-width:0.6999999999999998;" width="313.1064" x="32.9" y="187.6"/><ellipse cx="135.5799" cy="210" fill="#ADD1B2" rx="15.4" ry="15.4" style="stroke:#181818;stroke-width:1.3999999999999997;"/><path d="M139.4518,204.225 Q139.6705,203.9187 139.933,203.7656 Q140.1955,203.6125 140.5018,203.6125 Q141.0268,203.6125 141.3549,203.9844 Q141.683,204.3344 141.683,205.1875 L141.683,207.2219 Q141.683,208.075 141.3549,208.4469 Q141.0268,208.8187 140.5018,208.8187 Q140.0205,208.8187 139.7361,208.5344 Q139.4518,208.2719 139.2986,207.55 Q139.233,207.0469 138.9705,206.7844 Q138.5111,206.2594 137.658,205.9531 Q136.8049,205.6469 135.9299,205.6469 Q134.858,205.6469 133.9611,206.1062 Q133.0861,206.5656 132.3861,207.6156 Q131.708,208.6656 131.708,210.1094 L131.708,211.6406 Q131.708,213.3687 132.9549,214.5281 Q134.2018,215.6656 136.433,215.6656 Q137.7455,215.6656 138.6643,215.3156 Q139.2111,215.0969 139.8018,214.4844 Q140.1736,214.1125 140.3705,214.0031 Q140.5893,213.8937 140.8736,213.8937 Q141.333,213.8937 141.683,214.2656 Q142.0549,214.6156 142.0549,215.0969 Q142.0549,215.5781 141.5736,216.1469 Q140.8736,216.9562 139.758,217.4156 Q138.2486,218.05 136.433,218.05 Q134.3111,218.05 132.6268,217.175 Q131.2486,216.475 130.2861,214.9875 Q129.3236,213.4781 129.3236,211.6844 L129.3236,210.0656 Q129.3236,208.2062 130.1768,206.6094 Q131.0518,204.9906 132.583,204.1375 Q134.1143,203.2625 135.8424,203.2625 Q136.8705,203.2625 137.7674,203.5031 Q138.6861,203.7219 139.4518,204.225 Z " fill="#000000"/><text fill="#000000" font-family="sans-serif" font-size="19.6" lengthAdjust="spacing" textLength="95.8467" x="164.2799" y="218.1156">HelloWorld</text><line style="stroke:#181818;stroke-width:0.6999999999999998;" x1="34.3" x2="344.6064" y1="232.4" y2="232.4"/><line style="stroke:#181818;stroke-width:0.6999999999999998;" x1="34.3" x2="344.6064" y1="243.6" y2="243.6"/><ellipse cx="48.3" cy="264.3348" fill="#84BE84" rx="4.2" ry="4.2" style="stroke:#038048;stroke-width:1.3999999999999997;"/><text fill="#000000" font-family="sans-serif" font-size="19.6" lengthAdjust="spacing" textLength="276.7064" x="60.9" y="270.3504">String test(String name, int age)</text></g><!--reverse link Parent to HelloWorld--><g id="link_Parent_HelloWorld"><path d="M99.7604,110.9059 C119.8364,138.1919 133.812,157.164 156.198,187.572 " fill="none" id="Parent-backto-HelloWorld" style="stroke:#181818;stroke-width:1.3999999999999997;"/><polygon fill="none" points="84.826,90.608,92.9944,115.884,106.5264,105.9277,84.826,90.608" style="stroke:#181818;stroke-width:1.3999999999999997;"/></g><!--reverse link ITest to HelloWorld--><g id="link_ITest_HelloWorld"><path d="M270.0607,123.9237 C251.1327,149.6417 242.466,161.406 223.482,187.194 " fill="none" id="ITest-backto-HelloWorld" style="stroke:#181818;stroke-width:1.3999999999999997;stroke-dasharray:7.0,7.0;"/><polygon fill="none" points="284.998,103.628,263.2954,118.9446,276.8259,128.9028,284.998,103.628" style="stroke:#181818;stroke-width:1.3999999999999997;"/></g><!--SRC=[dOn12W9130JlUKKV5Ns8tWG5ps6sNGOoMPd9GP3zks4H7s2VYeAkOZe6BjhfWVSgrOFzeOKutpXI2N87NADNdn7fTbzsRJmY3z2PUrb5oXOxqMovBzqcy1NqwTUlxMbiIUEF-WS0]--></g></svg>