<svg xmlns="http://www.w3.org/2000/svg" xmlns:xlink="http://www.w3.org/1999/xlink" contentStyleType="text/css" height="782px" preserveAspectRatio="none" style="width:965px;height:782px;background:#FFFFFF;" version="1.1" viewBox="0 0 965 782" width="965px" zoomAndPan="magnify"><defs/><g><!--class ITest--><g id="elem_ITest"><rect codeLine="3" fill="#F1F1F1" height="66.6211" id="ITest" rx="2.5" ry="2.5" style="stroke:#181818;stroke-width:0.5;" width="209.6475" x="187" y="7"/><ellipse cx="272.0151" cy="23" fill="#B4A7E5" rx="11" ry="11" style="stroke:#181818;stroke-width:1.0;"/><path d="M272.9683,19.6406 L272.9683,26.2969 L274.687,26.2969 Q275.2964,26.2969 275.562,26.5313 Q275.8276,26.7656 275.8276,27.1563 Q275.8276,27.5313 275.562,27.7656 Q275.2964,28 274.687,28 L269.5464,28 Q268.937,28 268.6714,27.7656 Q268.4058,27.5313 268.4058,27.1406 Q268.4058,26.7656 268.6714,26.5313 Q268.937,26.2969 269.5464,26.2969 L271.2651,26.2969 L271.2651,19.6406 L269.5464,19.6406 Q268.937,19.6406 268.6714,19.4063 Q268.4058,19.1719 268.4058,18.7813 Q268.4058,18.4063 268.6714,18.1719 Q268.937,17.9375 269.5464,17.9375 L274.687,17.9375 Q275.2964,17.9375 275.562,18.1719 Q275.8276,18.4063 275.8276,18.7813 Q275.8276,19.1719 275.562,19.4063 Q275.2964,19.6406 274.687,19.6406 L272.9683,19.6406 Z " fill="#000000"/><text fill="#000000" font-family="sans-serif" font-size="14" font-style="italic" lengthAdjust="spacing" textLength="31.1172" x="292.5151" y="28.7969">ITest</text><line style="stroke:#181818;stroke-width:0.5;" x1="188" x2="395.6475" y1="39" y2="39"/><line style="stroke:#181818;stroke-width:0.5;" x1="188" x2="395.6475" y1="47" y2="47"/><text fill="#000000" font-family="sans-serif" font-size="14" font-style="italic" lengthAdjust="spacing" textLength="197.6475" x="193" y="66.1074">String test(String name, int age)</text></g><!--class GrandParent--><g id="elem_GrandParent"><rect codeLine="6" fill="#F1F1F1" height="85.2422" id="GrandParent" rx="2.5" ry="2.5" style="stroke:#181818;stroke-width:0.5;" width="223.6475" x="310" y="134"/><ellipse cx="377.4946" cy="150" fill="#ADD1B2" rx="11" ry="11" style="stroke:#181818;stroke-width:1.0;"/><path d="M380.2603,145.875 Q380.4165,145.6563 380.604,145.5469 Q380.7915,145.4375 381.0103,145.4375 Q381.3853,145.4375 381.6196,145.7031 Q381.854,145.9531 381.854,146.5625 L381.854,148.0156 Q381.854,148.625 381.6196,148.8906 Q381.3853,149.1563 381.0103,149.1563 Q380.6665,149.1563 380.4634,148.9531 Q380.2603,148.7656 380.1509,148.25 Q380.104,147.8906 379.9165,147.7031 Q379.5884,147.3281 378.979,147.1094 Q378.3696,146.8906 377.7446,146.8906 Q376.979,146.8906 376.3384,147.2188 Q375.7134,147.5469 375.2134,148.2969 Q374.729,149.0469 374.729,150.0781 L374.729,151.1719 Q374.729,152.4063 375.6196,153.2344 Q376.5103,154.0469 378.104,154.0469 Q379.0415,154.0469 379.6978,153.7969 Q380.0884,153.6406 380.5103,153.2031 Q380.7759,152.9375 380.9165,152.8594 Q381.0728,152.7813 381.2759,152.7813 Q381.604,152.7813 381.854,153.0469 Q382.1196,153.2969 382.1196,153.6406 Q382.1196,153.9844 381.7759,154.3906 Q381.2759,154.9688 380.479,155.2969 Q379.4009,155.75 378.104,155.75 Q376.5884,155.75 375.3853,155.125 Q374.4009,154.625 373.7134,153.5625 Q373.0259,152.4844 373.0259,151.2031 L373.0259,150.0469 Q373.0259,148.7188 373.6353,147.5781 Q374.2603,146.4219 375.354,145.8125 Q376.4478,145.1875 377.6821,145.1875 Q378.4165,145.1875 379.0571,145.3594 Q379.7134,145.5156 380.2603,145.875 Z " fill="#000000"/><text fill="#000000" font-family="sans-serif" font-size="14" lengthAdjust="spacing" textLength="80.1582" x="397.9946" y="155.7969">GrandParent</text><line style="stroke:#181818;stroke-width:0.5;" x1="311" x2="532.6475" y1="166" y2="166"/><line style="stroke:#181818;stroke-width:0.5;" x1="311" x2="532.6475" y1="174" y2="174"/><ellipse cx="321" cy="188.8105" fill="#84BE84" rx="3" ry="3" style="stroke:#038048;stroke-width:1.0;"/><text fill="#000000" font-family="sans-serif" font-size="14" lengthAdjust="spacing" textLength="156.3994" x="330" y="193.1074">String sayGoodMorning()</text><ellipse cx="321" cy="207.4316" fill="#84BE84" rx="3" ry="3" style="stroke:#038048;stroke-width:1.0;"/><text fill="#000000" font-family="sans-serif" font-size="14" lengthAdjust="spacing" textLength="197.6475" x="330" y="211.7285">String test(String name, int age)</text></g><!--class Parent--><g id="elem_Parent"><rect codeLine="10" fill="#F1F1F1" height="85.2422" id="Parent" rx="2.5" ry="2.5" style="stroke:#181818;stroke-width:0.5;" width="223.6475" x="310" y="279"/><ellipse cx="396.9497" cy="295" fill="#ADD1B2" rx="11" ry="11" style="stroke:#181818;stroke-width:1.0;"/><path d="M399.7153,290.875 Q399.8716,290.6563 400.0591,290.5469 Q400.2466,290.4375 400.4653,290.4375 Q400.8403,290.4375 401.0747,290.7031 Q401.3091,290.9531 401.3091,291.5625 L401.3091,293.0156 Q401.3091,293.625 401.0747,293.8906 Q400.8403,294.1563 400.4653,294.1563 Q400.1216,294.1563 399.9185,293.9531 Q399.7153,293.7656 399.606,293.25 Q399.5591,292.8906 399.3716,292.7031 Q399.0435,292.3281 398.4341,292.1094 Q397.8247,291.8906 397.1997,291.8906 Q396.4341,291.8906 395.7935,292.2188 Q395.1685,292.5469 394.6685,293.2969 Q394.1841,294.0469 394.1841,295.0781 L394.1841,296.1719 Q394.1841,297.4063 395.0747,298.2344 Q395.9653,299.0469 397.5591,299.0469 Q398.4966,299.0469 399.1528,298.7969 Q399.5435,298.6406 399.9653,298.2031 Q400.231,297.9375 400.3716,297.8594 Q400.5278,297.7813 400.731,297.7813 Q401.0591,297.7813 401.3091,298.0469 Q401.5747,298.2969 401.5747,298.6406 Q401.5747,298.9844 401.231,299.3906 Q400.731,299.9688 399.9341,300.2969 Q398.856,300.75 397.5591,300.75 Q396.0435,300.75 394.8403,300.125 Q393.856,299.625 393.1685,298.5625 Q392.481,297.4844 392.481,296.2031 L392.481,295.0469 Q392.481,293.7188 393.0903,292.5781 Q393.7153,291.4219 394.8091,290.8125 Q395.9028,290.1875 397.1372,290.1875 Q397.8716,290.1875 398.5122,290.3594 Q399.1685,290.5156 399.7153,290.875 Z " fill="#000000"/><text fill="#000000" font-family="sans-serif" font-size="14" lengthAdjust="spacing" textLength="41.248" x="417.4497" y="300.7969">Parent</text><line style="stroke:#181818;stroke-width:0.5;" x1="311" x2="532.6475" y1="311" y2="311"/><line style="stroke:#181818;stroke-width:0.5;" x1="311" x2="532.6475" y1="319" y2="319"/><ellipse cx="321" cy="333.8105" fill="#84BE84" rx="3" ry="3" style="stroke:#038048;stroke-width:1.0;"/><text fill="#000000" font-family="sans-serif" font-size="14" lengthAdjust="spacing" textLength="166.5303" x="330" y="338.1074">String sayGoodAfternoon()</text><ellipse cx="321" cy="352.4316" fill="#84BE84" rx="3" ry="3" style="stroke:#038048;stroke-width:1.0;"/><text fill="#000000" font-family="sans-serif" font-size="14" lengthAdjust="spacing" textLength="197.6475" x="330" y="356.7285">String test(String name, int age)</text></g><!--class DefaultTest--><g id="elem_DefaultTest"><rect codeLine="15" fill="#F1F1F1" height="66.6211" id="DefaultTest" rx="2.5" ry="2.5" style="stroke:#181818;stroke-width:0.5;" width="223.6475" x="51" y="288"/><ellipse cx="122.7808" cy="304" fill="#B4A7E5" rx="11" ry="11" style="stroke:#181818;stroke-width:1.0;"/><path d="M123.7339,300.6406 L123.7339,307.2969 L125.4526,307.2969 Q126.062,307.2969 126.3276,307.5313 Q126.5933,307.7656 126.5933,308.1563 Q126.5933,308.5313 126.3276,308.7656 Q126.062,309 125.4526,309 L120.312,309 Q119.7026,309 119.437,308.7656 Q119.1714,308.5313 119.1714,308.1406 Q119.1714,307.7656 119.437,307.5313 Q119.7026,307.2969 120.312,307.2969 L122.0308,307.2969 L122.0308,300.6406 L120.312,300.6406 Q119.7026,300.6406 119.437,300.4063 Q119.1714,300.1719 119.1714,299.7813 Q119.1714,299.4063 119.437,299.1719 Q119.7026,298.9375 120.312,298.9375 L125.4526,298.9375 Q126.062,298.9375 126.3276,299.1719 Q126.5933,299.4063 126.5933,299.7813 Q126.5933,300.1719 126.3276,300.4063 Q126.062,300.6406 125.4526,300.6406 L123.7339,300.6406 Z " fill="#000000"/><text fill="#000000" font-family="sans-serif" font-size="14" font-style="italic" lengthAdjust="spacing" textLength="71.5859" x="143.2808" y="309.7969">DefaultTest</text><line style="stroke:#181818;stroke-width:0.5;" x1="52" x2="273.6475" y1="320" y2="320"/><line style="stroke:#181818;stroke-width:0.5;" x1="52" x2="273.6475" y1="328" y2="328"/><ellipse cx="62" cy="342.8105" fill="#84BE84" rx="3" ry="3" style="stroke:#038048;stroke-width:1.0;"/><text fill="#000000" font-family="sans-serif" font-size="14" lengthAdjust="spacing" textLength="197.6475" x="71" y="347.1074">String test(String name, int age)</text></g><!--class HelloWorld--><g id="elem_HelloWorld"><rect codeLine="19" fill="#F1F1F1" height="256.832" id="HelloWorld" rx="2.5" ry="2.5" style="stroke:#181818;stroke-width:0.5;" width="308.4814" x="9" y="428"/><ellipse cx="124.7598" cy="444" fill="#ADD1B2" rx="11" ry="11" style="stroke:#181818;stroke-width:1.0;"/><path d="M127.5254,439.875 Q127.6816,439.6563 127.8691,439.5469 Q128.0566,439.4375 128.2754,439.4375 Q128.6504,439.4375 128.8848,439.7031 Q129.1191,439.9531 129.1191,440.5625 L129.1191,442.0156 Q129.1191,442.625 128.8848,442.8906 Q128.6504,443.1563 128.2754,443.1563 Q127.9316,443.1563 127.7285,442.9531 Q127.5254,442.7656 127.416,442.25 Q127.3691,441.8906 127.1816,441.7031 Q126.8535,441.3281 126.2441,441.1094 Q125.6348,440.8906 125.0098,440.8906 Q124.2441,440.8906 123.6035,441.2188 Q122.9785,441.5469 122.4785,442.2969 Q121.9941,443.0469 121.9941,444.0781 L121.9941,445.1719 Q121.9941,446.4063 122.8848,447.2344 Q123.7754,448.0469 125.3691,448.0469 Q126.3066,448.0469 126.9629,447.7969 Q127.3535,447.6406 127.7754,447.2031 Q128.041,446.9375 128.1816,446.8594 Q128.3379,446.7813 128.541,446.7813 Q128.8691,446.7813 129.1191,447.0469 Q129.3848,447.2969 129.3848,447.6406 Q129.3848,447.9844 129.041,448.3906 Q128.541,448.9688 127.7441,449.2969 Q126.666,449.75 125.3691,449.75 Q123.8535,449.75 122.6504,449.125 Q121.666,448.625 120.9785,447.5625 Q120.291,446.4844 120.291,445.2031 L120.291,444.0469 Q120.291,442.7188 120.9004,441.5781 Q121.5254,440.4219 122.6191,439.8125 Q123.7129,439.1875 124.9473,439.1875 Q125.6816,439.1875 126.3223,439.3594 Q126.9785,439.5156 127.5254,439.875 Z " fill="#000000"/><text fill="#000000" font-family="sans-serif" font-size="14" lengthAdjust="spacing" textLength="68.4619" x="145.2598" y="449.7969">HelloWorld</text><line style="stroke:#181818;stroke-width:0.5;" x1="10" x2="316.4814" y1="460" y2="460"/><ellipse cx="20" cy="497.4316" fill="#84BE84" rx="3" ry="3" style="stroke:#038048;stroke-width:1.0;"/><text fill="#000000" font-family="sans-serif" font-size="14" lengthAdjust="spacing" textLength="138.5029" x="29" y="501.7285">String sayGoodNight()</text><ellipse cx="20" cy="516.0527" fill="#84BE84" rx="3" ry="3" style="stroke:#038048;stroke-width:1.0;"/><text fill="#000000" font-family="sans-serif" font-size="14" lengthAdjust="spacing" textLength="197.6475" x="29" y="520.3496">String test(String name, int age)</text><rect fill="#F24D5C" height="6" style="stroke:#C82930;stroke-width:1.0;" width="6" x="17" y="531.6738"/><text fill="#000000" font-family="sans-serif" font-size="14" lengthAdjust="spacing" textLength="282.4814" x="29" y="538.9707">String test$original$Abc(String name, int age)</text><line style="stroke:#181818;stroke-width:1.0;" x1="10" x2="129.0098" y1="477.3105" y2="477.3105"/><text fill="#000000" font-family="sans-serif" font-size="14" lengthAdjust="spacing" textLength="68.4619" x="129.0098" y="482.6074">HelloWorld</text><line style="stroke:#181818;stroke-width:1.0;" x1="197.4717" x2="316.4814" y1="477.3105" y2="477.3105"/><polygon fill="#4177AF" points="20,571.916,16,577.916,24,577.916" style="stroke:#1963A0;stroke-width:1.0;"/><text fill="#000000" font-family="sans-serif" font-size="14" lengthAdjust="spacing" textLength="251.3301" x="29" y="580.2129">String sayGoodMorning$accessor$Xyz()</text><line style="stroke:#181818;stroke-width:1.0;" x1="10" x2="123.1616" y1="555.7949" y2="555.7949"/><text fill="#000000" font-family="sans-serif" font-size="14" lengthAdjust="spacing" textLength="80.1582" x="123.1616" y="561.0918">GrandParent</text><line style="stroke:#181818;stroke-width:1.0;" x1="203.3198" x2="316.4814" y1="555.7949" y2="555.7949"/><polygon fill="#4177AF" points="20,613.1582,16,619.1582,24,619.1582" style="stroke:#1963A0;stroke-width:1.0;"/><text fill="#000000" font-family="sans-serif" font-size="14" lengthAdjust="spacing" textLength="262.2607" x="29" y="621.4551">boolean equals$accessor$Xyz(Object obj)</text><polygon fill="#4177AF" points="20,631.7793,16,637.7793,24,637.7793" style="stroke:#1963A0;stroke-width:1.0;"/><text fill="#000000" font-family="sans-serif" font-size="14" lengthAdjust="spacing" textLength="186.7578" x="29" y="640.0762">int hashCode$accessor$Xyz()</text><polygon fill="#4177AF" points="20,650.4004,16,656.4004,24,656.4004" style="stroke:#1963A0;stroke-width:1.0;"/><text fill="#000000" font-family="sans-serif" font-size="14" lengthAdjust="spacing" textLength="192.9648" x="29" y="658.6973">String toString$accessor$Xyz()</text><polygon fill="#4177AF" points="20,669.0215,16,675.0215,24,675.0215" style="stroke:#1963A0;stroke-width:1.0;"/><text fill="#000000" font-family="sans-serif" font-size="14" lengthAdjust="spacing" textLength="182.0752" x="29" y="677.3184">Object clone$accessor$Xyz()</text><line style="stroke:#181818;stroke-width:1.0;" x1="10" x2="143.0098" y1="597.0371" y2="597.0371"/><text fill="#000000" font-family="sans-serif" font-size="14" lengthAdjust="spacing" textLength="40.4619" x="143.0098" y="602.334">Object</text><line style="stroke:#181818;stroke-width:1.0;" x1="183.4717" x2="316.4814" y1="597.0371" y2="597.0371"/></g><!--class HardWorker--><g id="elem_HardWorker"><rect codeLine="33" fill="#F1F1F1" height="66.6211" id="HardWorker" rx="2.5" ry="2.5" style="stroke:#181818;stroke-width:0.5;" width="302.4385" x="368" y="523"/><ellipse cx="477.2417" cy="539" fill="#ADD1B2" rx="11" ry="11" style="stroke:#181818;stroke-width:1.0;"/><path d="M480.0073,534.875 Q480.1636,534.6563 480.3511,534.5469 Q480.5386,534.4375 480.7573,534.4375 Q481.1323,534.4375 481.3667,534.7031 Q481.6011,534.9531 481.6011,535.5625 L481.6011,537.0156 Q481.6011,537.625 481.3667,537.8906 Q481.1323,538.1563 480.7573,538.1563 Q480.4136,538.1563 480.2104,537.9531 Q480.0073,537.7656 479.8979,537.25 Q479.8511,536.8906 479.6636,536.7031 Q479.3354,536.3281 478.7261,536.1094 Q478.1167,535.8906 477.4917,535.8906 Q476.7261,535.8906 476.0854,536.2188 Q475.4604,536.5469 474.9604,537.2969 Q474.4761,538.0469 474.4761,539.0781 L474.4761,540.1719 Q474.4761,541.4063 475.3667,542.2344 Q476.2573,543.0469 477.8511,543.0469 Q478.7886,543.0469 479.4448,542.7969 Q479.8354,542.6406 480.2573,542.2031 Q480.5229,541.9375 480.6636,541.8594 Q480.8198,541.7813 481.0229,541.7813 Q481.3511,541.7813 481.6011,542.0469 Q481.8667,542.2969 481.8667,542.6406 Q481.8667,542.9844 481.5229,543.3906 Q481.0229,543.9688 480.2261,544.2969 Q479.1479,544.75 477.8511,544.75 Q476.3354,544.75 475.1323,544.125 Q474.1479,543.625 473.4604,542.5625 Q472.7729,541.4844 472.7729,540.2031 L472.7729,539.0469 Q472.7729,537.7188 473.3823,536.5781 Q474.0073,535.4219 475.1011,534.8125 Q476.1948,534.1875 477.4292,534.1875 Q478.1636,534.1875 478.8042,534.3594 Q479.4604,534.5156 480.0073,534.875 Z " fill="#000000"/><text fill="#000000" font-family="sans-serif" font-size="14" lengthAdjust="spacing" textLength="75.4551" x="497.7417" y="544.7969">HardWorker</text><line style="stroke:#181818;stroke-width:0.5;" x1="369" x2="669.4385" y1="555" y2="555"/><line style="stroke:#181818;stroke-width:0.5;" x1="369" x2="669.4385" y1="563" y2="563"/><ellipse cx="379" cy="577.8105" fill="#84BE84" rx="3" ry="3" style="stroke:#038048;stroke-width:1.0;"/><text fill="#000000" font-family="sans-serif" font-size="14" lengthAdjust="spacing" text-decoration="underline" textLength="276.4385" x="388" y="582.1074">Object doWork(@Super GrandParent zuper)</text></g><!--class HelloWorld$auxiliary$Proxy--><g id="elem_HelloWorld$auxiliary$Proxy"><rect codeLine="37" fill="#F1F1F1" height="242.2109" id="HelloWorld$auxiliary$Proxy" rx="2.5" ry="2.5" style="stroke:#181818;stroke-width:0.5;" width="244.6201" x="713.5" y="435"/><ellipse cx="747.1517" cy="451" fill="#ADD1B2" rx="11" ry="11" style="stroke:#181818;stroke-width:1.0;"/><path d="M749.9173,446.875 Q750.0736,446.6563 750.2611,446.5469 Q750.4486,446.4375 750.6673,446.4375 Q751.0423,446.4375 751.2767,446.7031 Q751.5111,446.9531 751.5111,447.5625 L751.5111,449.0156 Q751.5111,449.625 751.2767,449.8906 Q751.0423,450.1563 750.6673,450.1563 Q750.3236,450.1563 750.1205,449.9531 Q749.9173,449.7656 749.808,449.25 Q749.7611,448.8906 749.5736,448.7031 Q749.2455,448.3281 748.6361,448.1094 Q748.0267,447.8906 747.4017,447.8906 Q746.6361,447.8906 745.9955,448.2188 Q745.3705,448.5469 744.8705,449.2969 Q744.3861,450.0469 744.3861,451.0781 L744.3861,452.1719 Q744.3861,453.4063 745.2767,454.2344 Q746.1673,455.0469 747.7611,455.0469 Q748.6986,455.0469 749.3548,454.7969 Q749.7455,454.6406 750.1673,454.2031 Q750.433,453.9375 750.5736,453.8594 Q750.7298,453.7813 750.933,453.7813 Q751.2611,453.7813 751.5111,454.0469 Q751.7767,454.2969 751.7767,454.6406 Q751.7767,454.9844 751.433,455.3906 Q750.933,455.9688 750.1361,456.2969 Q749.058,456.75 747.7611,456.75 Q746.2455,456.75 745.0423,456.125 Q744.058,455.625 743.3705,454.5625 Q742.683,453.4844 742.683,452.2031 L742.683,451.0469 Q742.683,449.7188 743.2923,448.5781 Q743.9173,447.4219 745.0111,446.8125 Q746.1048,446.1875 747.3392,446.1875 Q748.0736,446.1875 748.7142,446.3594 Q749.3705,446.5156 749.9173,446.875 Z " fill="#000000"/><text fill="#000000" font-family="sans-serif" font-size="14" lengthAdjust="spacing" textLength="171.1719" x="765.2965" y="456.7969">HelloWorld$auxiliary$Proxy</text><line style="stroke:#181818;stroke-width:0.5;" x1="714.5" x2="957.1201" y1="467" y2="467"/><ellipse cx="724.5" cy="481.8105" fill="none" rx="3" ry="3" style="stroke:#038048;stroke-width:1.0;"/><text fill="#000000" font-family="sans-serif" font-size="14" lengthAdjust="spacing" textLength="108.1514" x="733.5" y="486.1074">HelloWorld target</text><line style="stroke:#181818;stroke-width:1.0;" x1="714.5" x2="957.1201" y1="493.6211" y2="493.6211"/><polygon fill="#4177AF" points="724.5,504.4316,720.5,510.4316,728.5,510.4316" style="stroke:#1963A0;stroke-width:1.0;"/><text fill="#000000" font-family="sans-serif" font-size="14" lengthAdjust="spacing" text-decoration="underline" textLength="218.6201" x="733.5" y="512.7285">HelloWorld$auxiliary$Proxy make()</text><ellipse cx="724.5" cy="549.6738" fill="#84BE84" rx="3" ry="3" style="stroke:#038048;stroke-width:1.0;"/><text fill="#000000" font-family="sans-serif" font-size="14" lengthAdjust="spacing" textLength="156.3994" x="733.5" y="553.9707">String sayGoodMorning()</text><ellipse cx="724.5" cy="568.2949" fill="#84BE84" rx="3" ry="3" style="stroke:#038048;stroke-width:1.0;"/><text fill="#000000" font-family="sans-serif" font-size="14" lengthAdjust="spacing" textLength="197.6475" x="733.5" y="572.5918">String test(String name, int age)</text><line style="stroke:#181818;stroke-width:1.0;" x1="714.5" x2="795.731" y1="529.5527" y2="529.5527"/><text fill="#000000" font-family="sans-serif" font-size="14" lengthAdjust="spacing" textLength="80.1582" x="795.731" y="534.8496">GrandParent</text><line style="stroke:#181818;stroke-width:1.0;" x1="875.8892" x2="957.1201" y1="529.5527" y2="529.5527"/><ellipse cx="724.5" cy="609.5371" fill="#84BE84" rx="3" ry="3" style="stroke:#038048;stroke-width:1.0;"/><text fill="#000000" font-family="sans-serif" font-size="14" lengthAdjust="spacing" textLength="167.3301" x="733.5" y="613.834">boolean equals(Object obj)</text><ellipse cx="724.5" cy="628.1582" fill="#84BE84" rx="3" ry="3" style="stroke:#038048;stroke-width:1.0;"/><text fill="#000000" font-family="sans-serif" font-size="14" lengthAdjust="spacing" textLength="91.8271" x="733.5" y="632.4551">int hashCode()</text><ellipse cx="724.5" cy="646.7793" fill="#84BE84" rx="3" ry="3" style="stroke:#038048;stroke-width:1.0;"/><text fill="#000000" font-family="sans-serif" font-size="14" lengthAdjust="spacing" textLength="98.0342" x="733.5" y="651.0762">String toString()</text><polygon fill="#FFFF44" points="724.5,660.4004,728.5,664.4004,724.5,668.4004,720.5,664.4004" style="stroke:#B38D22;stroke-width:1.0;"/><text fill="#000000" font-family="sans-serif" font-size="14" lengthAdjust="spacing" textLength="87.1445" x="733.5" y="669.6973">Object clone()</text><line style="stroke:#181818;stroke-width:1.0;" x1="714.5" x2="815.5791" y1="589.416" y2="589.416"/><text fill="#000000" font-family="sans-serif" font-size="14" lengthAdjust="spacing" textLength="40.4619" x="815.5791" y="594.7129">Object</text><line style="stroke:#181818;stroke-width:1.0;" x1="856.041" x2="957.1201" y1="589.416" y2="589.416"/></g><g id="elem_GMN15"><path d="M716.5,748 L716.5,775.291 A0,0 0 0 0 716.5,775.291 L955.7197,775.291 A0,0 0 0 0 955.7197,775.291 L955.7197,758 L945.7197,748 L840,748 L836,677.14 L832,748 L716.5,748 A0,0 0 0 0 716.5,748 " fill="#FEFFDD" style="stroke:#181818;stroke-width:0.5;"/><path d="M945.7197,748 L945.7197,758 L955.7197,758 L945.7197,748 " fill="#FEFFDD" style="stroke:#181818;stroke-width:0.5;"/><text fill="#000000" font-family="sans-serif" font-size="13" lengthAdjust="spacing" textLength="218.2197" x="722.5" y="767.0283">Proxy Class Generated by ByteBuddy</text></g><!--reverse link ITest to GrandParent--><g id="link_ITest_GrandParent"><path d="M336.3324,87.2005 C353.7724,105.1805 363.04,114.72 381.66,133.92 " fill="none" id="ITest-backto-GrandParent" style="stroke:#181818;stroke-width:1.0;stroke-dasharray:7.0,7.0;"/><polygon fill="none" points="323.8,74.28,332.0256,91.3779,340.6392,83.023,323.8,74.28" style="stroke:#181818;stroke-width:1.0;"/></g><!--reverse link GrandParent to Parent--><g id="link_GrandParent_Parent"><path d="M422,237.25 C422,256.04 422,260.18 422,278.95 " fill="none" id="GrandParent-backto-Parent" style="stroke:#181818;stroke-width:1.0;"/><polygon fill="none" points="422,219.25,416,237.25,428,237.25,422,219.25" style="stroke:#181818;stroke-width:1.0;"/></g><!--reverse link ITest to DefaultTest--><g id="link_ITest_DefaultTest"><path d="M269.3963,90.3884 C244.6063,144.0084 203.01,233.96 178.15,287.73 " fill="none" id="ITest-backto-DefaultTest" style="stroke:#181818;stroke-width:1.0;"/><polygon fill="none" points="276.95,74.05,263.9502,87.8705,274.8424,92.9063,276.95,74.05" style="stroke:#181818;stroke-width:1.0;"/></g><!--reverse link Parent to HelloWorld--><g id="link_Parent_HelloWorld"><path d="M362.3012,376.0897 C343.1612,393.2597 333.23,402.19 309.11,423.84 " fill="none" id="Parent-backto-HelloWorld" style="stroke:#181818;stroke-width:1.0;"/><polygon fill="none" points="375.7,364.07,358.2947,371.6234,366.3078,380.5559,375.7,364.07" style="stroke:#181818;stroke-width:1.0;"/></g><!--reverse link DefaultTest to HelloWorld--><g id="link_DefaultTest_HelloWorld"><path d="M163,373.32 C163,391.84 163,398.34 163,423.82 " fill="none" id="DefaultTest-backto-HelloWorld" style="stroke:#181818;stroke-width:1.0;stroke-dasharray:7.0,7.0;"/><polygon fill="none" points="163,355.32,157,373.32,169,373.32,163,355.32" style="stroke:#181818;stroke-width:1.0;"/></g><!--reverse link GrandParent to HelloWorld$auxiliary$Proxy--><g id="link_GrandParent_HelloWorld$auxiliary$Proxy"><path d="M491.5453,230.0133 C514.7453,247.9333 527.5,258.47 551,279 C607.28,328.17 667.05,385.23 717.24,434.67 " fill="none" id="GrandParent-backto-HelloWorld$auxiliary$Proxy" style="stroke:#181818;stroke-width:1.0;"/><polygon fill="none" points="477.3,219.01,487.8775,234.7617,495.213,225.2648,477.3,219.01" style="stroke:#181818;stroke-width:1.0;"/></g><!--link HelloWorld to HardWorker--><g id="link_HelloWorld_HardWorker"><path codeLine="53" d="M318,514 C353.12,514 325.88,576 361,576 " fill="none" id="HelloWorld-to-HardWorker" style="stroke:#181818;stroke-width:1.0;"/><polygon fill="#181818" points="367,576,358,572,362,576,358,580,367,576" style="stroke:#181818;stroke-width:1.0;"/></g><!--link HardWorker to HelloWorld$auxiliary$Proxy--><g id="link_HardWorker_HelloWorld$auxiliary$Proxy"><path codeLine="54" d="M671,576 C684.77,579.19 693.1506,580.713 707.4106,581.563 " fill="none" id="HardWorker-to-HelloWorld$auxiliary$Proxy" style="stroke:#181818;stroke-width:1.0;"/><polygon fill="#181818" points="713.4,581.92,704.654,577.3916,708.4089,581.6225,704.1779,585.3774,713.4,581.92" style="stroke:#181818;stroke-width:1.0;"/></g><!--SRC=[fLJ1Rfmm4Btp5PQAL5PRkdSELPDKIdje6ocLskjWpxBE6i_M7gGbg-stbrqS0e7IHE5ax9dtvhrdUBjXtlbijTePi5oLvhsaSYKDU9yg3OM3CegqPNHha2Y-_43FuX29vZb0xjc1vAEuPQTj8RWvJCBQGedlHDCfeC15T8pEcEBQWLKtuB0vqENEODci_01t-G3deRucKb_9sUOrMGnFdq4MU73FQDMGUvhgOjq8jKJsHMGzVpxX6Yh3PpN_apUFsIhuZCRGJt96TIh6vlL9MuuqxNUcwQJORxhOy0k4de7xTJ4vNMWB9hx8vLnJEh0-ZFDdEkOOf4JloSM_wlka0_YUtw7izUP41i4A_5s1ySEcK4lvtI9KdyRPWDzSaS8fWcuMfdOnNHI0fI4xWdcC39ngVD-Ywm8_U0RMylW0e4x1R9EFjzMkgUfxSt_QcSm_XcglZGPNnpUEzlNihUw5p-0Av61ZqD7DCmDVmXQJkVnU_vbEHhjy4kqepUKWpH5T233ilnbariPaYR4XOQPIq7h6WqoqLborVowqw81HYRmMbpNZPQLK7KMF_Lbs4YjIT_gmqW-zcv1bRUJHUAjN_iz1ehy0]--></g></svg>