<?xml version="1.0" encoding="UTF-8" standalone="no"?>
<!-- Created with Inkscape (http://www.inkscape.org/) -->

<svg
   sodipodi:docname="vectors.svg"
   inkscape:version="1.1.2 (0a00cf5339, 2022-02-04, custom)"
   version="1.1"
   id="svg2"
   height="102.417"
   width="154.179"
   xmlns:inkscape="http://www.inkscape.org/namespaces/inkscape"
   xmlns:sodipodi="http://sodipodi.sourceforge.net/DTD/sodipodi-0.dtd"
   xmlns="http://www.w3.org/2000/svg"
   xmlns:svg="http://www.w3.org/2000/svg"
   xmlns:rdf="http://www.w3.org/1999/02/22-rdf-syntax-ns#"
   xmlns:cc="http://creativecommons.org/ns#"
   xmlns:dc="http://purl.org/dc/elements/1.1/">
  <sodipodi:namedview
     id="base"
     pagecolor="#ffffff"
     bordercolor="#666666"
     borderopacity="1.0"
     inkscape:pageopacity="0.0"
     inkscape:pageshadow="2"
     inkscape:zoom="0.209138"
     inkscape:cx="2237.76"
     inkscape:cy="1199.18"
     inkscape:document-units="px"
     inkscape:current-layer="layer1"
     showgrid="false"
     showborder="true"
     inkscape:window-width="1920"
     inkscape:window-height="1005"
     inkscape:window-x="1911"
     inkscape:window-y="-9"
     inkscape:window-maximized="1"
     showguides="true"
     inkscape:guide-bbox="true"
     inkscape:pagecheckerboard="0" />
  <defs
     id="defs4">
    <marker
       inkscape:stockid="Arrow1Mstart"
       orient="auto"
       refY="0"
       refX="0"
       id="Arrow1Mstart"
       style="overflow:visible">
      <path
         inkscape:connector-curvature="0"
         id="path7075"
         d="M 0,0 5,-5 -12.5,0 5,5 Z"
         style="fill-rule:evenodd;stroke:#000000;stroke-width:1pt;marker-start:none"
         transform="matrix(0.4,0,0,0.4,4,0)" />
    </marker>
    <marker
       style="overflow:visible"
       id="Arrow1Mend"
       refX="0"
       refY="0"
       orient="auto"
       inkscape:stockid="Arrow1Mend">
      <path
         inkscape:connector-curvature="0"
         transform="matrix(-0.4,0,0,-0.4,-4,0)"
         style="fill-rule:evenodd;stroke:#000000;stroke-width:1pt;marker-start:none"
         d="M 0,0 5,-5 -12.5,0 5,5 Z"
         id="path3767" />
    </marker>
    <marker
       style="overflow:visible"
       id="Arrow2Mstart0"
       refX="0"
       refY="0"
       orient="auto"
       inkscape:stockid="Arrow2Mstart0">
      <path
         inkscape:connector-curvature="0"
         transform="scale(0.6)"
         d="M 8.71859,4.03374 -2.20729,0.016013 8.71859,-4.00171 c -1.7455,2.37206 -1.73544,5.61745 0,8.03545 z"
         style="font-size:12px;fill:#ff9900;fill-rule:evenodd;stroke:#ff9900;stroke-width:0.625;stroke-linejoin:round"
         id="path4654" />
    </marker>
    <marker
       style="overflow:visible"
       id="Arrow1Mend-2Z"
       refX="0"
       refY="0"
       orient="auto"
       inkscape:stockid="Arrow1Mend-2Z">
      <path
         transform="matrix(-0.4,0,0,-0.4,-4,0)"
         style="fill:#ff9900;fill-rule:evenodd;stroke:#ff9900;stroke-width:1pt;marker-start:none"
         d="M 0,0 5,-5 -12.5,0 5,5 Z"
         id="path4657"
         inkscape:connector-curvature="0" />
    </marker>
    <marker
       style="overflow:visible"
       id="Arrow1Menda"
       refX="0"
       refY="0"
       orient="auto"
       inkscape:stockid="Arrow1Menda">
      <path
         inkscape:connector-curvature="0"
         transform="matrix(-0.4,0,0,-0.4,-4,0)"
         style="fill:#f1caff;fill-rule:evenodd;stroke:#f1caff;stroke-width:1pt;marker-start:none"
         d="M 0,0 5,-5 -12.5,0 5,5 Z"
         id="path5383" />
    </marker>
    <marker
       style="overflow:visible"
       id="Arrow1MendV"
       refX="0"
       refY="0"
       orient="auto"
       inkscape:stockid="Arrow1MendV">
      <path
         inkscape:connector-curvature="0"
         transform="matrix(-0.4,0,0,-0.4,-4,0)"
         style="fill:#d76cff;fill-rule:evenodd;stroke:#d76cff;stroke-width:1pt;marker-start:none"
         d="M 0,0 5,-5 -12.5,0 5,5 Z"
         id="path5386" />
    </marker>
    <marker
       style="overflow:visible"
       id="Arrow1Mend-92"
       refX="0"
       refY="0"
       orient="auto"
       inkscape:stockid="Arrow1Mend-92">
      <path
         inkscape:connector-curvature="0"
         transform="matrix(-0.4,0,0,-0.4,-4,0)"
         style="fill:#ff9900;fill-rule:evenodd;stroke:#ff9900;stroke-width:1pt;marker-start:none"
         d="M 0,0 5,-5 -12.5,0 5,5 Z"
         id="path24161" />
    </marker>
    <marker
       style="overflow:visible"
       id="Arrow1Mendi"
       refX="0"
       refY="0"
       orient="auto"
       inkscape:stockid="Arrow1Mendi">
      <path
         inkscape:connector-curvature="0"
         transform="matrix(-0.4,0,0,-0.4,-4,0)"
         style="fill:#ff4141;fill-rule:evenodd;stroke:#ff4141;stroke-width:1pt;marker-start:none"
         d="M 0,0 5,-5 -12.5,0 5,5 Z"
         id="path32447" />
    </marker>
    <marker
       inkscape:stockid="Arrow2LendJ"
       orient="auto"
       refY="0"
       refX="0"
       id="Arrow2LendJ"
       style="overflow:visible">
      <path
         inkscape:connector-curvature="0"
         id="path6869"
         style="font-size:12px;fill:#ff0000;fill-rule:evenodd;stroke:#ff0000;stroke-width:0.625;stroke-linejoin:round"
         d="M 8.71859,4.03374 -2.20729,0.016013 8.71859,-4.00171 c -1.7455,2.37206 -1.73544,5.61745 0,8.03545 z"
         transform="matrix(-1.1,0,0,-1.1,-1.1,0)" />
    </marker>
    <marker
       inkscape:stockid="Arrow2Lend5"
       orient="auto"
       refY="0"
       refX="0"
       id="Arrow2Lend5"
       style="overflow:visible">
      <path
         inkscape:connector-curvature="0"
         id="path6772"
         style="font-size:12px;fill:#0000ff;fill-rule:evenodd;stroke:#0000ff;stroke-width:0.625;stroke-linejoin:round"
         d="M 8.71859,4.03374 -2.20729,0.016013 8.71859,-4.00171 c -1.7455,2.37206 -1.73544,5.61745 0,8.03545 z"
         transform="matrix(-1.1,0,0,-1.1,-1.1,0)" />
    </marker>
    <marker
       style="overflow:visible"
       id="Arrow1Mend2"
       refX="0"
       refY="0"
       orient="auto"
       inkscape:stockid="Arrow1Mend2">
      <path
         inkscape:connector-curvature="0"
         transform="matrix(-0.4,0,0,-0.4,-4,0)"
         style="fill:#ff9900;fill-rule:evenodd;stroke:#ff9900;stroke-width:1pt;marker-start:none"
         d="M 0,0 5,-5 -12.5,0 5,5 Z"
         id="path10606" />
    </marker>
    <marker
       style="overflow:visible"
       id="Arrow1Mend-24"
       refX="0"
       refY="0"
       orient="auto"
       inkscape:stockid="Arrow1Mend">
      <path
         transform="matrix(-0.4,0,0,-0.4,-4,0)"
         style="fill-rule:evenodd;stroke:#000000;stroke-width:1pt;marker-start:none"
         d="M 0,0 5,-5 -12.5,0 5,5 Z"
         id="path3767-6"
         inkscape:connector-curvature="0" />
    </marker>
    <marker
       style="overflow:visible"
       id="Arrow1MendL"
       refX="0"
       refY="0"
       orient="auto"
       inkscape:stockid="Arrow1MendL">
      <path
         inkscape:connector-curvature="0"
         transform="matrix(-0.4,0,0,-0.4,-4,0)"
         style="fill:#19aeff;fill-rule:evenodd;stroke:#19aeff;stroke-width:1pt;marker-start:none"
         d="M 0,0 5,-5 -12.5,0 5,5 Z"
         id="path17642" />
    </marker>
    <marker
       inkscape:stockid="Arrow1MstartL"
       orient="auto"
       refY="0"
       refX="0"
       id="Arrow1MstartL"
       style="overflow:visible">
      <path
         inkscape:connector-curvature="0"
         id="path24258"
         d="M 0,0 5,-5 -12.5,0 5,5 Z"
         style="fill:#19aeff;fill-rule:evenodd;stroke:#19aeff;stroke-width:1pt;marker-start:none"
         transform="matrix(0.4,0,0,0.4,4,0)" />
    </marker>
    <marker
       style="overflow:visible"
       id="Arrow1Mend-94S"
       refX="0"
       refY="0"
       orient="auto"
       inkscape:stockid="Arrow1Mend-94S">
      <path
         inkscape:connector-curvature="0"
         transform="matrix(-0.4,0,0,-0.4,-4,0)"
         style="fill:#19aeff;fill-rule:evenodd;stroke:#19aeff;stroke-width:1pt;marker-start:none"
         d="M 0,0 5,-5 -12.5,0 5,5 Z"
         id="path24261" />
    </marker>
    <marker
       inkscape:stockid="Arrow1Mstartr"
       orient="auto"
       refY="0"
       refX="0"
       id="Arrow1Mstartr"
       style="overflow:visible">
      <path
         inkscape:connector-curvature="0"
         id="path30613"
         d="M 0,0 5,-5 -12.5,0 5,5 Z"
         style="fill:#19aeff;fill-rule:evenodd;stroke:#19aeff;stroke-width:1pt;marker-start:none"
         transform="matrix(0.4,0,0,0.4,4,0)" />
    </marker>
    <marker
       style="overflow:visible"
       id="Arrow1Mend-246"
       refX="0"
       refY="0"
       orient="auto"
       inkscape:stockid="Arrow1Mend-246">
      <path
         transform="matrix(-0.4,0,0,-0.4,-4,0)"
         style="fill:#19aeff;fill-rule:evenodd;stroke:#19aeff;stroke-width:1pt;marker-start:none"
         d="M 0,0 5,-5 -12.5,0 5,5 Z"
         id="path30616"
         inkscape:connector-curvature="0" />
    </marker>
    <marker
       style="overflow:visible"
       id="Arrow1Mend-2gg"
       refX="0"
       refY="0"
       orient="auto"
       inkscape:stockid="Arrow1Mend-2gg">
      <path
         transform="matrix(-0.4,0,0,-0.4,-4,0)"
         style="fill:#0e232e;fill-rule:evenodd;stroke:#0e232e;stroke-width:1pt;marker-start:none"
         d="M 0,0 5,-5 -12.5,0 5,5 Z"
         id="path9154"
         inkscape:connector-curvature="0" />
    </marker>
    <marker
       style="overflow:visible"
       id="Arrow1MendLP"
       refX="0"
       refY="0"
       orient="auto"
       inkscape:stockid="Arrow1MendLP">
      <path
         inkscape:connector-curvature="0"
         transform="matrix(-0.4,0,0,-0.4,-4,0)"
         style="fill:#90d8ff;fill-rule:evenodd;stroke:#90d8ff;stroke-width:1pt;marker-start:none"
         d="M 0,0 5,-5 -12.5,0 5,5 Z"
         id="path32876" />
    </marker>
    <marker
       style="overflow:visible"
       id="Arrow1MendLZ"
       refX="0"
       refY="0"
       orient="auto"
       inkscape:stockid="Arrow1MendLZ">
      <path
         inkscape:connector-curvature="0"
         transform="matrix(-0.4,0,0,-0.4,-4,0)"
         style="fill:#90d8ff;fill-rule:evenodd;stroke:#90d8ff;stroke-width:1pt;marker-start:none"
         d="M 0,0 5,-5 -12.5,0 5,5 Z"
         id="path32879" />
    </marker>
    <marker
       style="overflow:visible"
       id="Arrow1MendLS"
       refX="0"
       refY="0"
       orient="auto"
       inkscape:stockid="Arrow1MendLS">
      <path
         inkscape:connector-curvature="0"
         transform="matrix(-0.4,0,0,-0.4,-4,0)"
         style="fill:#90d8ff;fill-rule:evenodd;stroke:#90d8ff;stroke-width:1pt;marker-start:none"
         d="M 0,0 5,-5 -12.5,0 5,5 Z"
         id="path32882" />
    </marker>
    <marker
       style="overflow:visible"
       id="Arrow1MendLB"
       refX="0"
       refY="0"
       orient="auto"
       inkscape:stockid="Arrow1MendLB">
      <path
         inkscape:connector-curvature="0"
         transform="matrix(-0.4,0,0,-0.4,-4,0)"
         style="fill:#90d8ff;fill-rule:evenodd;stroke:#90d8ff;stroke-width:1pt;marker-start:none"
         d="M 0,0 5,-5 -12.5,0 5,5 Z"
         id="path32885" />
    </marker>
    <marker
       style="overflow:visible"
       id="Arrow1MendLb"
       refX="0"
       refY="0"
       orient="auto"
       inkscape:stockid="Arrow1MendLb">
      <path
         inkscape:connector-curvature="0"
         transform="matrix(-0.4,0,0,-0.4,-4,0)"
         style="fill:#90d8ff;fill-rule:evenodd;stroke:#90d8ff;stroke-width:1pt;marker-start:none"
         d="M 0,0 5,-5 -12.5,0 5,5 Z"
         id="path32888" />
    </marker>
    <marker
       style="overflow:visible"
       id="Arrow1MendLt"
       refX="0"
       refY="0"
       orient="auto"
       inkscape:stockid="Arrow1MendLt">
      <path
         inkscape:connector-curvature="0"
         transform="matrix(-0.4,0,0,-0.4,-4,0)"
         style="fill:#90d8ff;fill-rule:evenodd;stroke:#90d8ff;stroke-width:1pt;marker-start:none"
         d="M 0,0 5,-5 -12.5,0 5,5 Z"
         id="path32891" />
    </marker>
    <marker
       style="overflow:visible"
       id="Arrow1MendP"
       refX="0"
       refY="0"
       orient="auto"
       inkscape:stockid="Arrow1MendP">
      <path
         inkscape:connector-curvature="0"
         transform="matrix(-0.4,0,0,-0.4,-4,0)"
         style="fill:#999999;fill-rule:evenodd;stroke:#999999;stroke-width:1pt;marker-start:none"
         d="M 0,0 5,-5 -12.5,0 5,5 Z"
         id="path68068" />
    </marker>
    <marker
       style="overflow:visible"
       id="Arrow1MendGY"
       refX="0"
       refY="0"
       orient="auto"
       inkscape:stockid="Arrow1MendGY">
      <path
         inkscape:connector-curvature="0"
         transform="matrix(-0.4,0,0,-0.4,-4,0)"
         style="fill:#ffff3e;fill-rule:evenodd;stroke:#ffff3e;stroke-width:1pt;marker-start:none"
         d="M 0,0 5,-5 -12.5,0 5,5 Z"
         id="path94813" />
    </marker>
    <marker
       inkscape:stockid="Arrow1MendQ"
       orient="auto"
       refY="0"
       refX="0"
       id="Arrow1MendQ"
       style="overflow:visible">
      <path
         inkscape:connector-curvature="0"
         id="path8172"
         d="M 0,0 5,-5 -12.5,0 5,5 Z"
         style="fill:#19aeff;fill-rule:evenodd;stroke:#19aeff;stroke-width:1pt;marker-start:none"
         transform="matrix(-0.4,0,0,-0.4,-4,0)" />
    </marker>
    <marker
       style="overflow:visible"
       refX="0"
       refY="0"
       orient="auto"
       inkscape:stockid="Arrow1Mend3287"
       id="Arrow1Mend3287">
      <path
         inkscape:connector-curvature="0"
         transform="matrix(-0.4,0,0,-0.4,-4,0)"
         style="fill-rule:evenodd;stroke:#0084c8;stroke-width:1pt;marker-start:none;stroke-opacity:1;fill-opacity:1;fill:#0084c8"
         d="M 0,0 5,-5 -12.5,0 5,5 Z"
         id="path4513" />
    </marker>
    <marker
       style="overflow:visible"
       refX="0"
       refY="0"
       orient="auto"
       inkscape:stockid="Arrow1Mend2751"
       id="Arrow1Mend2751">
      <path
         inkscape:connector-curvature="0"
         transform="matrix(-0.4,0,0,-0.4,-4,0)"
         style="fill-rule:evenodd;stroke:#0084c8;stroke-width:1pt;marker-start:none;stroke-opacity:1;fill-opacity:1;fill:#0084c8"
         d="M 0,0 5,-5 -12.5,0 5,5 Z"
         id="path4516" />
    </marker>
  </defs>
  <metadata
     id="metadata7">
    <rdf:RDF>
      <cc:Work
         rdf:about="">
        <dc:format>image/svg+xml</dc:format>
        <dc:type
           rdf:resource="http://purl.org/dc/dcmitype/StillImage" />
      </cc:Work>
    </rdf:RDF>
  </metadata>
  <g
     transform="translate(-3477.85,-2255.12)"
     id="layer1"
     inkscape:groupmode="layer"
     inkscape:label="Layer 1">
    <path
       style="fill:none;stroke:#0084c8;stroke-width:2.12794;stroke-linecap:butt;stroke-linejoin:miter;stroke-miterlimit:4;stroke-dasharray:none;stroke-opacity:1;marker-end:url(#Arrow1Mend3287)"
       d="m 3478.86,2357.21 32.05,-98.1"
       id="path7362"
       inkscape:connector-curvature="0" />
    <path
       style="fill:none;stroke:#0084c8;stroke-width:2.12794;stroke-linecap:butt;stroke-linejoin:miter;stroke-miterlimit:4;stroke-dasharray:none;stroke-opacity:1;marker-end:url(#Arrow1Mend2751)"
       d="m 3516.25,2330.33 112.04,-57.01"
       id="path7396"
       inkscape:connector-curvature="0" />
  </g>
</svg>
