<?xml version="1.0" encoding="UTF-8" standalone="no"?>
<!-- Copyright 2017 mathsisfun.com -->
<svg xmlns="http://www.w3.org/2000/svg" width="169.8" height="72.2" version="1.1">
<defs>
<marker id="id1" style="overflow:visible;" orient="auto">
<path transform="matrix(-0.4,0,0,-0.4,-4,0)" style="stroke:black; stroke-width:1pt;" d="M 0,0 5,-5 -12.5,0 5,5 0,0 Z"/>
</marker>
<marker id="id2" style="overflow:visible;" orient="auto">
<path transform="matrix(-0.4,0,0,-0.4,-4,0)" style="fill:#0e232e; stroke:#0e232e; stroke-width:1pt;" d="M 0,0 5,-5 -12.5,0 5,5 0,0 Z"/>
</marker>
</defs>
<g transform="translate(-2089.1208,-1278.3029)">
<path style="marker-end:url(#id1); fill:none; stroke:black; stroke-width:3.23;" d="m 2108.6,1296.3 128.7,34.2"/>
<text x="2088.7" y="1298.5" style="font-family:'Comic Sans MS'; font-size:20px; font-style:oblique; color:black; overflow:visible; fill:#ba00ff; stroke-width:1px;">A</text>
<text x="2243.6" y="1342.3" style="font-family:'Comic Sans MS'; font-size:20px; font-style:oblique; color:black; overflow:visible; fill:#ba00ff; stroke-width:1px;">B</text>
<text x="2166.5" y="1301.4" style="font-family:'Comic Sans MS'; font-size:20px; font-style:oblique; color:black; overflow:visible; fill:#0e232e; stroke-width:1px;"> = AB</text>
<path style="marker-end:url(#id2); fill:#0e232e; stroke:#0e232e; stroke-width:1.3;" d="m 2191.8,1281.6 c 0.5,-0.1 24.5,0 24.5,0"/>
<text x="2152.6" y="1301.2" style="font-family:'Comic Sans MS'; font-weight:bold; font-size:28px; color:black; overflow:visible; fill:black; stroke-width:1px;">a</text>
<text x="2094.5" y="1319.8" style="font-family:'Comic Sans MS'; font-size:18px; color:black; overflow:visible; fill:#999999; stroke-width:1px;">tail</text>
<text x="2196.2" y="1350" style="font-family:'Comic Sans MS'; font-size:18px; color:black; overflow:visible; fill:#999999; stroke-width:1px;">head</text>
</g>
</svg>
