<svg xmlns="http://www.w3.org/2000/svg" xmlns:xlink="http://www.w3.org/1999/xlink" contentStyleType="text/css" height="531px" preserveAspectRatio="none" style="width:776px;height:531px;background:#FFFFFF;" version="1.1" viewBox="0 0 776 531" width="776px" zoomAndPan="magnify"><defs/><g><line style="stroke:#181818;stroke-width:1.5;" x1="38" x2="38" y1="65.0938" y2="85.0938"/><rect fill="#F1F1F1" height="35.0938" style="stroke:#181818;stroke-width:1.5;" width="56" x="10" y="85.0938"/><text fill="#000000" font-family="sans-serif" font-size="12" lengthAdjust="spacing" textLength="36" x="20" y="107.5508">&#21457;&#20449;&#20154;</text><line style="stroke:#181818;stroke-width:1.5;" x1="38" x2="48" y1="152.7344" y2="152.7344"/><rect fill="#F1F1F1" height="35.0938" style="stroke:#181818;stroke-width:1.5;" width="68" x="48" y="135.1875"/><text fill="#000000" font-family="sans-serif" font-size="12" lengthAdjust="spacing" textLength="48" x="58" y="157.6445">&#26126;&#30830;&#35785;&#27714;</text><line style="stroke:#181818;stroke-width:1.5;" x1="82" x2="92" y1="202.8281" y2="202.8281"/><rect fill="#F1F1F1" height="35.0938" style="stroke:#181818;stroke-width:1.5;" width="44" x="92" y="185.2813"/><text fill="#000000" font-family="sans-serif" font-size="12" lengthAdjust="spacing" textLength="24" x="102" y="207.7383">&#20010;&#20154;</text><line style="stroke:#181818;stroke-width:1.5;" x1="82" x2="92" y1="252.9219" y2="252.9219"/><rect fill="#F1F1F1" height="35.0938" style="stroke:#181818;stroke-width:1.5;" width="44" x="92" y="235.375"/><text fill="#000000" font-family="sans-serif" font-size="12" lengthAdjust="spacing" textLength="24" x="102" y="257.832">&#31038;&#20250;</text><line style="stroke:#181818;stroke-width:1.5;" x1="82" x2="92" y1="303.0156" y2="303.0156"/><rect fill="#F1F1F1" height="35.0938" style="stroke:#181818;stroke-width:1.5;" width="44" x="92" y="285.4688"/><text fill="#000000" font-family="sans-serif" font-size="12" lengthAdjust="spacing" textLength="24" x="102" y="307.9258">&#27861;&#24459;</text><line style="stroke:#181818;stroke-width:1.5;" x1="82" x2="82" y1="170.2813" y2="303.0156"/><line style="stroke:#181818;stroke-width:1.5;" x1="38" x2="48" y1="353.1094" y2="353.1094"/><rect fill="#F1F1F1" height="35.0938" style="stroke:#181818;stroke-width:1.5;" width="68" x="48" y="335.5625"/><text fill="#000000" font-family="sans-serif" font-size="12" lengthAdjust="spacing" textLength="48" x="58" y="358.0195">&#24515;&#29702;&#20934;&#22791;</text><line style="stroke:#181818;stroke-width:1.5;" x1="82" x2="92" y1="403.2031" y2="403.2031"/><rect fill="#F1F1F1" height="35.0938" style="stroke:#181818;stroke-width:1.5;" width="68" x="92" y="385.6563"/><text fill="#000000" font-family="sans-serif" font-size="12" lengthAdjust="spacing" textLength="48" x="102" y="408.1133">&#19981;&#35201;&#30031;&#24807;</text><line style="stroke:#181818;stroke-width:1.5;" x1="82" x2="82" y1="370.6563" y2="403.2031"/><line style="stroke:#181818;stroke-width:1.5;" x1="38" x2="48" y1="453.2969" y2="453.2969"/><rect fill="#F1F1F1" height="35.0938" style="stroke:#181818;stroke-width:1.5;" width="68" x="48" y="435.75"/><text fill="#000000" font-family="sans-serif" font-size="12" lengthAdjust="spacing" textLength="48" x="58" y="458.207">&#25509;&#21463;&#21453;&#39304;</text><line style="stroke:#181818;stroke-width:1.5;" x1="38" x2="38" y1="120.1875" y2="453.2969"/><line style="stroke:#181818;stroke-width:1.5;" x1="196" x2="196" y1="65.0938" y2="85.0938"/><rect fill="#F1F1F1" height="35.0938" style="stroke:#181818;stroke-width:1.5;" width="32" x="180" y="85.0938"/><text fill="#000000" font-family="sans-serif" font-size="12" lengthAdjust="spacing" textLength="12" x="190" y="107.5508">&#20449;</text><line style="stroke:#181818;stroke-width:1.5;" x1="196" x2="206" y1="152.7344" y2="152.7344"/><rect fill="#F1F1F1" height="35.0938" style="stroke:#181818;stroke-width:1.5;" width="44" x="206" y="135.1875"/><text fill="#000000" font-family="sans-serif" font-size="12" lengthAdjust="spacing" textLength="24" x="216" y="157.6445">&#26684;&#24335;</text><line style="stroke:#181818;stroke-width:1.5;" x1="196" x2="206" y1="202.8281" y2="202.8281"/><rect fill="#F1F1F1" height="35.0938" style="stroke:#181818;stroke-width:1.5;" width="44" x="206" y="185.2813"/><text fill="#000000" font-family="sans-serif" font-size="12" lengthAdjust="spacing" textLength="24" x="216" y="207.7383">&#20869;&#23481;</text><line style="stroke:#181818;stroke-width:1.5;" x1="228" x2="238" y1="252.9219" y2="252.9219"/><rect fill="#F1F1F1" height="35.0938" style="stroke:#181818;stroke-width:1.5;" width="146.668" x="238" y="235.375"/><text fill="#000000" font-family="sans-serif" font-size="12" lengthAdjust="spacing" textLength="126.668" x="248" y="257.832">&#20030;&#25253;&#20154;&#65306;&#22995;&#21517; &#21333;&#20301; &#32844;&#21153;</text><line style="stroke:#181818;stroke-width:1.5;" x1="228" x2="238" y1="303.0156" y2="303.0156"/><rect fill="#F1F1F1" height="35.0938" style="stroke:#181818;stroke-width:1.5;" width="158.668" x="238" y="285.4688"/><text fill="#000000" font-family="sans-serif" font-size="12" lengthAdjust="spacing" textLength="138.668" x="248" y="307.9258">&#34987;&#20030;&#25253;&#20154;&#65306;&#22995;&#21517; &#21333;&#20301; &#32844;&#21153;</text><line style="stroke:#181818;stroke-width:1.5;" x1="228" x2="238" y1="353.1094" y2="353.1094"/><rect fill="#F1F1F1" height="35.0938" style="stroke:#181818;stroke-width:1.5;" width="321.3359" x="238" y="335.5625"/><text fill="#000000" font-family="sans-serif" font-size="12" lengthAdjust="spacing" textLength="301.3359" x="248" y="358.0195">&#25551;&#36848;&#38382;&#39064;&#26102;&#65292;&#31934;&#20934;&#20855;&#20307;&#65306;&#20889;&#28165;&#26102;&#38388; &#22320;&#28857; &#20154;&#29289; &#20449;&#39069; &#21518;&#26524;&#31561;</text><line style="stroke:#181818;stroke-width:1.5;" x1="228" x2="238" y1="403.2031" y2="403.2031"/><rect fill="#F1F1F1" height="35.0938" style="stroke:#181818;stroke-width:1.5;" width="44" x="238" y="385.6563"/><text fill="#000000" font-family="sans-serif" font-size="12" lengthAdjust="spacing" textLength="24" x="248" y="408.1133">&#35777;&#25454;</text><line style="stroke:#181818;stroke-width:1.5;" x1="228" x2="238" y1="453.2969" y2="453.2969"/><rect fill="#F1F1F1" height="35.0938" style="stroke:#181818;stroke-width:1.5;" width="68" x="238" y="435.75"/><text fill="#000000" font-family="sans-serif" font-size="12" lengthAdjust="spacing" textLength="48" x="248" y="458.207">&#27861;&#24459;&#20381;&#25454;</text><line style="stroke:#181818;stroke-width:1.5;" x1="228" x2="238" y1="503.3906" y2="503.3906"/><rect fill="#F1F1F1" height="35.0938" style="stroke:#181818;stroke-width:1.5;" width="68" x="238" y="485.8438"/><text fill="#000000" font-family="sans-serif" font-size="12" lengthAdjust="spacing" textLength="48" x="248" y="508.3008">&#26126;&#30830;&#35785;&#27714;</text><line style="stroke:#181818;stroke-width:1.5;" x1="228" x2="228" y1="220.375" y2="503.3906"/><line style="stroke:#181818;stroke-width:1.5;" x1="196" x2="196" y1="120.1875" y2="202.8281"/><line style="stroke:#181818;stroke-width:1.5;" x1="607.3359" x2="607.3359" y1="65.0938" y2="85.0938"/><rect fill="#F1F1F1" height="35.0938" style="stroke:#181818;stroke-width:1.5;" width="56" x="579.3359" y="85.0938"/><text fill="#000000" font-family="sans-serif" font-size="12" lengthAdjust="spacing" textLength="36" x="589.3359" y="107.5508">&#25910;&#20449;&#20154;</text><line style="stroke:#181818;stroke-width:1.5;" x1="607.3359" x2="617.3359" y1="152.7344" y2="152.7344"/><rect fill="#F1F1F1" height="35.0938" style="stroke:#181818;stroke-width:1.5;" width="44" x="617.3359" y="135.1875"/><text fill="#000000" font-family="sans-serif" font-size="12" lengthAdjust="spacing" textLength="24" x="627.3359" y="157.6445">&#30446;&#26631;</text><line style="stroke:#181818;stroke-width:1.5;" x1="639.3359" x2="649.3359" y1="202.8281" y2="202.8281"/><rect fill="#F1F1F1" height="35.0938" style="stroke:#181818;stroke-width:1.5;" width="80" x="649.3359" y="185.2813"/><text fill="#000000" font-family="sans-serif" font-size="12" lengthAdjust="spacing" textLength="60" x="659.3359" y="207.7383">&#32426;&#22996;&#12289;&#30417;&#22996;</text><line style="stroke:#181818;stroke-width:1.5;" x1="639.3359" x2="649.3359" y1="252.9219" y2="252.9219"/><rect fill="#F1F1F1" height="35.0938" style="stroke:#181818;stroke-width:1.5;" width="116" x="649.3359" y="235.375"/><text fill="#000000" font-family="sans-serif" font-size="12" lengthAdjust="spacing" textLength="96" x="659.3359" y="257.832">&#21306;&#25919;&#24220;&#12289;&#19978;&#32423;&#26426;&#20851;</text><line style="stroke:#181818;stroke-width:1.5;" x1="639.3359" x2="649.3359" y1="303.0156" y2="303.0156"/><rect fill="#F1F1F1" height="35.0938" style="stroke:#181818;stroke-width:1.5;" width="92" x="649.3359" y="285.4688"/><text fill="#000000" font-family="sans-serif" font-size="12" lengthAdjust="spacing" textLength="72" x="659.3359" y="307.9258">&#30475;&#23432;&#25152;&#12289;&#30417;&#29425;</text><line style="stroke:#181818;stroke-width:1.5;" x1="639.3359" x2="639.3359" y1="170.2813" y2="303.0156"/><line style="stroke:#181818;stroke-width:1.5;" x1="607.3359" x2="617.3359" y1="353.1094" y2="353.1094"/><rect fill="#F1F1F1" height="35.0938" style="stroke:#181818;stroke-width:1.5;" width="44" x="617.3359" y="335.5625"/><text fill="#000000" font-family="sans-serif" font-size="12" lengthAdjust="spacing" textLength="24" x="627.3359" y="358.0195">&#26041;&#24335;</text><line style="stroke:#181818;stroke-width:1.5;" x1="639.3359" x2="649.3359" y1="403.2031" y2="403.2031"/><rect fill="#F1F1F1" height="35.0938" style="stroke:#181818;stroke-width:1.5;" width="44" x="649.3359" y="385.6563"/><text fill="#000000" font-family="sans-serif" font-size="12" lengthAdjust="spacing" textLength="24" x="659.3359" y="408.1133">&#29616;&#22330;</text><line style="stroke:#181818;stroke-width:1.5;" x1="639.3359" x2="649.3359" y1="453.2969" y2="453.2969"/><rect fill="#F1F1F1" height="35.0938" style="stroke:#181818;stroke-width:1.5;" width="44" x="649.3359" y="435.75"/><text fill="#000000" font-family="sans-serif" font-size="12" lengthAdjust="spacing" textLength="24" x="659.3359" y="458.207">&#30005;&#35805;</text><line style="stroke:#181818;stroke-width:1.5;" x1="639.3359" x2="649.3359" y1="503.3906" y2="503.3906"/><rect fill="#F1F1F1" height="35.0938" style="stroke:#181818;stroke-width:1.5;" width="44" x="649.3359" y="485.8438"/><text fill="#000000" font-family="sans-serif" font-size="12" lengthAdjust="spacing" textLength="24" x="659.3359" y="508.3008">&#23492;&#20449;</text><line style="stroke:#181818;stroke-width:1.5;" x1="639.3359" x2="639.3359" y1="370.6563" y2="503.3906"/><line style="stroke:#181818;stroke-width:1.5;" x1="607.3359" x2="607.3359" y1="120.1875" y2="353.1094"/><line style="stroke:#181818;stroke-width:1.5;" x1="38" x2="607.3359" y1="65.0938" y2="65.0938"/><rect fill="#F1F1F1" height="35.0938" style="stroke:#181818;stroke-width:1.5;" width="56" x="294.668" y="10"/><text fill="#000000" font-family="sans-serif" font-size="12" lengthAdjust="spacing" textLength="36" x="304.668" y="32.457">&#20030;&#25253;&#20449;</text><line style="stroke:#181818;stroke-width:1.5;" x1="322.668" x2="322.668" y1="45.0938" y2="65.0938"/><!--SRC=[ZLBVJzfG57xlNt4UWKGZXX33anbpsOoOPQ3lLJhMHDkb59RjINIW_2Z52CDfMOIeP2uhE3S73S8VizvxovF_mcvfYUvjR-Tyv_lET_BTkvYKMKb-jv5aV63sXhXmOOwQZCy7I3sabMaOjF41FYwJfcvrylXwrmPiyfKxz04v7vg34wV6DpKqB4v4QBH7AZcqdqFd-rEHObrcI4t5UsrdR_a2gNMaAkFB0zlLCQVusG0DL6TBBelq_bG_kT0mxWSdg7s4AWeWfMRUAM1bIgZGT5XMwzl_4R6gMgFkkAwFMyUuVdi_A94VG_lUx6_pxiYMvZxZNfQEnlMVWBGksUq3NKhoN-rBnwq6e4ePVz78zxnhtSbWHN-SX3biF23_fWYuUlieOtAgupCtA69SeNRrpqw6d1xImW5HoS3L4J8qYfkz0Z7QM3DGziQLQ4Ma7-3yZgCYnMidoKzzDqbAANUHDdspwY-hqt0NTpxQmJEBd12tlmBpSeiLvBN82gGvAScB0lXdv-Vc0xCBdYWhmwgO1dyGvloXG20K248u6WDxx6KyaHSnI8efQPE3E9-K9NuZ9LEzbrbcqooyIWaolys5mEuyiOWNeajJ49Q4D2-9mZOdoCpoUiGXmNDHZhuLvGav69XvmiiGvIHw5gn7cAVSQpQr9LFffXZdXKG8rcBFPXQO5LP8fDW4DVhmXWcBr41w7uBmwby0]--></g></svg>