<?xml version="1.0" encoding="us-ascii" standalone="no"?><svg xmlns="http://www.w3.org/2000/svg" xmlns:xlink="http://www.w3.org/1999/xlink" contentStyleType="text/css" height="573px" preserveAspectRatio="none" style="width:1586px;height:573px;background:#FFFFFF;" version="1.1" viewBox="0 0 1586 573" width="1586px" zoomAndPan="magnify"><defs/><g><!--cluster channels--><g id="cluster_channels"><path d="M8.5,6.0137 L132.5,6.0137 A3.75,3.75 0 0 1 135,8.5137 L142,30.6348 L1576.5,30.6348 A2.5,2.5 0 0 1 1579,33.1348 L1579,563.5137 A2.5,2.5 0 0 1 1576.5,566.0137 L8.5,566.0137 A2.5,2.5 0 0 1 6,563.5137 L6,8.5137 A2.5,2.5 0 0 1 8.5,6.0137 " fill="none" style="stroke:#000000;stroke-width:1.5;"/><line style="stroke:#000000;stroke-width:1.5;" x1="6" x2="142" y1="30.6348" y2="30.6348"/><text fill="#000000" font-family="sans-serif" font-size="14" font-weight="bold" lengthAdjust="spacing" textLength="123" x="10" y="23.1211">java.nio.channels</text></g><!--cluster spi--><g id="cluster_spi"><path d="M315.5,271.0137 L337.5,271.0137 A3.75,3.75 0 0 1 340,273.5137 L347,295.6348 L917.5,295.6348 A2.5,2.5 0 0 1 920,298.1348 L920,380.5137 A2.5,2.5 0 0 1 917.5,383.0137 L315.5,383.0137 A2.5,2.5 0 0 1 313,380.5137 L313,273.5137 A2.5,2.5 0 0 1 315.5,271.0137 " fill="none" style="stroke:#000000;stroke-width:1.5;"/><line style="stroke:#000000;stroke-width:1.5;" x1="313" x2="347" y1="295.6348" y2="295.6348"/><text fill="#000000" font-family="sans-serif" font-size="14" font-weight="bold" lengthAdjust="spacing" textLength="21" x="317" y="288.1211">spi</text></g><!--class ByteChannel--><g id="elem_ByteChannel"><rect codeLine="1" fill="#F1F1F1" height="32" id="ByteChannel" rx="2.5" ry="2.5" style="stroke:#181818;stroke-width:0.5;" width="113" x="1194.5" y="321.5137"/><ellipse cx="1209.5" cy="337.5137" fill="#B4A7E5" rx="11" ry="11" style="stroke:#181818;stroke-width:1.0;"/><path d="M1206.0938,332.2949 L1206.0938,331.3574 L1211.9375,331.3574 L1211.9375,332.2949 L1210.1406,332.2949 Q1209.9688,332.2949 1209.8906,332.3574 Q1209.8125,332.4199 1209.8125,332.5605 L1209.8125,342.0449 Q1209.8125,342.1855 1209.8906,342.248 Q1209.9688,342.3105 1210.1406,342.3105 L1211.9375,342.3105 L1211.9375,343.248 L1206.0938,343.248 L1206.0938,342.3105 L1207.8906,342.3105 Q1208.1094,342.3105 1208.1563,342.2637 Q1208.2188,342.2012 1208.2188,342.0449 L1208.2188,332.5605 Q1208.2188,332.4043 1208.1563,332.3574 Q1208.1094,332.2949 1207.8906,332.2949 L1206.0938,332.2949 Z " fill="#000000"/><text fill="#000000" font-family="sans-serif" font-size="14" font-style="italic" lengthAdjust="spacing" textLength="81" x="1223.5" y="343.3105">ByteChannel</text></g><!--class Channel--><g id="elem_Channel"><rect codeLine="1" fill="#F1F1F1" height="77.2422" id="Channel" rx="2.5" ry="2.5" style="stroke:#181818;stroke-width:0.5;" width="140" x="785" y="43.0137"/><ellipse cx="824.75" cy="59.0137" fill="#B4A7E5" rx="11" ry="11" style="stroke:#181818;stroke-width:1.0;"/><path d="M821.3438,53.7949 L821.3438,52.8574 L827.1875,52.8574 L827.1875,53.7949 L825.3906,53.7949 Q825.2188,53.7949 825.1406,53.8574 Q825.0625,53.9199 825.0625,54.0605 L825.0625,63.5449 Q825.0625,63.6855 825.1406,63.748 Q825.2188,63.8105 825.3906,63.8105 L827.1875,63.8105 L827.1875,64.748 L821.3438,64.748 L821.3438,63.8105 L823.1406,63.8105 Q823.3594,63.8105 823.4063,63.7637 Q823.4688,63.7012 823.4688,63.5449 L823.4688,54.0605 Q823.4688,53.9043 823.4063,53.8574 Q823.3594,53.7949 823.1406,53.7949 L821.3438,53.7949 Z " fill="#000000"/><text fill="#000000" font-family="sans-serif" font-size="14" font-style="italic" lengthAdjust="spacing" textLength="53" x="844.25" y="64.8105">Channel</text><line style="stroke:#181818;stroke-width:0.5;" x1="786" x2="924" y1="75.0137" y2="75.0137"/><ellipse cx="796" cy="89.8242" fill="#84BE84" rx="3" ry="3" style="stroke:#038048;stroke-width:1.0;"/><text fill="#000000" font-family="sans-serif" font-size="14" font-style="italic" lengthAdjust="spacing" textLength="114" x="805" y="94.1211">isOpen(): boolean</text><ellipse cx="796" cy="108.4453" fill="#84BE84" rx="3" ry="3" style="stroke:#038048;stroke-width:1.0;"/><text fill="#000000" font-family="sans-serif" font-size="14" font-style="italic" lengthAdjust="spacing" textLength="76" x="805" y="112.7422">close(): void</text></g><!--class GatheringByteChannel--><g id="elem_GatheringByteChannel"><rect codeLine="1" fill="#F1F1F1" height="77.2422" id="GatheringByteChannel" rx="2.5" ry="2.5" style="stroke:#181818;stroke-width:0.5;" width="220" x="939" y="299.0137"/><ellipse cx="973.8" cy="315.0137" fill="#B4A7E5" rx="11" ry="11" style="stroke:#181818;stroke-width:1.0;"/><path d="M970.3938,309.7949 L970.3938,308.8574 L976.2375,308.8574 L976.2375,309.7949 L974.4406,309.7949 Q974.2688,309.7949 974.1906,309.8574 Q974.1125,309.9199 974.1125,310.0605 L974.1125,319.5449 Q974.1125,319.6855 974.1906,319.748 Q974.2688,319.8105 974.4406,319.8105 L976.2375,319.8105 L976.2375,320.748 L970.3938,320.748 L970.3938,319.8105 L972.1906,319.8105 Q972.4094,319.8105 972.4563,319.7637 Q972.5188,319.7012 972.5188,319.5449 L972.5188,310.0605 Q972.5188,309.9043 972.4563,309.8574 Q972.4094,309.7949 972.1906,309.7949 L970.3938,309.7949 Z " fill="#000000"/><text fill="#000000" font-family="sans-serif" font-size="14" font-style="italic" lengthAdjust="spacing" textLength="144" x="992.2" y="320.8105">GatheringByteChannel</text><line style="stroke:#181818;stroke-width:0.5;" x1="940" x2="1158" y1="331.0137" y2="331.0137"/><ellipse cx="950" cy="345.8242" fill="#84BE84" rx="3" ry="3" style="stroke:#038048;stroke-width:1.0;"/><text fill="#000000" font-family="sans-serif" font-size="14" font-style="italic" lengthAdjust="spacing" textLength="194" x="959" y="350.1211">write(ByteBuffer[], int, int): long</text><ellipse cx="950" cy="364.4453" fill="#84BE84" rx="3" ry="3" style="stroke:#038048;stroke-width:1.0;"/><text fill="#000000" font-family="sans-serif" font-size="14" font-style="italic" lengthAdjust="spacing" textLength="148" x="959" y="368.7422">write(ByteBuffer[]): long</text></g><!--class InterruptibleChannel--><g id="elem_InterruptibleChannel"><rect codeLine="1" fill="#F1F1F1" height="58.6211" id="InterruptibleChannel" rx="2.5" ry="2.5" style="stroke:#181818;stroke-width:0.5;" width="161" x="716.5" y="180.0137"/><ellipse cx="731.5" cy="196.0137" fill="#B4A7E5" rx="11" ry="11" style="stroke:#181818;stroke-width:1.0;"/><path d="M728.0938,190.7949 L728.0938,189.8574 L733.9375,189.8574 L733.9375,190.7949 L732.1406,190.7949 Q731.9688,190.7949 731.8906,190.8574 Q731.8125,190.9199 731.8125,191.0605 L731.8125,200.5449 Q731.8125,200.6855 731.8906,200.748 Q731.9688,200.8105 732.1406,200.8105 L733.9375,200.8105 L733.9375,201.748 L728.0938,201.748 L728.0938,200.8105 L729.8906,200.8105 Q730.1094,200.8105 730.1563,200.7637 Q730.2188,200.7012 730.2188,200.5449 L730.2188,191.0605 Q730.2188,190.9043 730.1563,190.8574 Q730.1094,190.7949 729.8906,190.7949 L728.0938,190.7949 Z " fill="#000000"/><text fill="#000000" font-family="sans-serif" font-size="14" font-style="italic" lengthAdjust="spacing" textLength="129" x="745.5" y="201.8105">InterruptibleChannel</text><line style="stroke:#181818;stroke-width:0.5;" x1="717.5" x2="876.5" y1="212.0137" y2="212.0137"/><ellipse cx="727.5" cy="226.8242" fill="#84BE84" rx="3" ry="3" style="stroke:#038048;stroke-width:1.0;"/><text fill="#000000" font-family="sans-serif" font-size="14" font-style="italic" lengthAdjust="spacing" textLength="76" x="736.5" y="231.1211">close(): void</text></g><!--class NetworkChannel--><g id="elem_NetworkChannel"><rect codeLine="1" fill="#F1F1F1" height="58.6211" id="NetworkChannel" rx="2.5" ry="2.5" style="stroke:#181818;stroke-width:0.5;" width="272" x="22" y="308.0137"/><ellipse cx="101.25" cy="324.0137" fill="#B4A7E5" rx="11" ry="11" style="stroke:#181818;stroke-width:1.0;"/><path d="M97.8438,318.7949 L97.8438,317.8574 L103.6875,317.8574 L103.6875,318.7949 L101.8906,318.7949 Q101.7188,318.7949 101.6406,318.8574 Q101.5625,318.9199 101.5625,319.0605 L101.5625,328.5449 Q101.5625,328.6855 101.6406,328.748 Q101.7188,328.8105 101.8906,328.8105 L103.6875,328.8105 L103.6875,329.748 L97.8438,329.748 L97.8438,328.8105 L99.6406,328.8105 Q99.8594,328.8105 99.9063,328.7637 Q99.9688,328.7012 99.9688,328.5449 L99.9688,319.0605 Q99.9688,318.9043 99.9063,318.8574 Q99.8594,318.7949 99.6406,318.7949 L97.8438,318.7949 Z " fill="#000000"/><text fill="#000000" font-family="sans-serif" font-size="14" font-style="italic" lengthAdjust="spacing" textLength="105" x="121.75" y="329.8105">NetworkChannel</text><line style="stroke:#181818;stroke-width:0.5;" x1="23" x2="293" y1="340.0137" y2="340.0137"/><ellipse cx="33" cy="354.8242" fill="#84BE84" rx="3" ry="3" style="stroke:#038048;stroke-width:1.0;"/><text fill="#000000" font-family="sans-serif" font-size="14" font-style="italic" lengthAdjust="spacing" textLength="246" x="42" y="359.1211">bind(SocketAddress): NetworkChannel</text></g><!--class ReadableByteChannel--><g id="elem_ReadableByteChannel"><rect codeLine="1" fill="#F1F1F1" height="58.6211" id="ReadableByteChannel" rx="2.5" ry="2.5" style="stroke:#181818;stroke-width:0.5;" width="174" x="1165" y="180.0137"/><ellipse cx="1180" cy="196.0137" fill="#B4A7E5" rx="11" ry="11" style="stroke:#181818;stroke-width:1.0;"/><path d="M1176.5938,190.7949 L1176.5938,189.8574 L1182.4375,189.8574 L1182.4375,190.7949 L1180.6406,190.7949 Q1180.4688,190.7949 1180.3906,190.8574 Q1180.3125,190.9199 1180.3125,191.0605 L1180.3125,200.5449 Q1180.3125,200.6855 1180.3906,200.748 Q1180.4688,200.8105 1180.6406,200.8105 L1182.4375,200.8105 L1182.4375,201.748 L1176.5938,201.748 L1176.5938,200.8105 L1178.3906,200.8105 Q1178.6094,200.8105 1178.6563,200.7637 Q1178.7188,200.7012 1178.7188,200.5449 L1178.7188,191.0605 Q1178.7188,190.9043 1178.6563,190.8574 Q1178.6094,190.7949 1178.3906,190.7949 L1176.5938,190.7949 Z " fill="#000000"/><text fill="#000000" font-family="sans-serif" font-size="14" font-style="italic" lengthAdjust="spacing" textLength="142" x="1194" y="201.8105">ReadableByteChannel</text><line style="stroke:#181818;stroke-width:0.5;" x1="1166" x2="1338" y1="212.0137" y2="212.0137"/><ellipse cx="1176" cy="226.8242" fill="#84BE84" rx="3" ry="3" style="stroke:#038048;stroke-width:1.0;"/><text fill="#000000" font-family="sans-serif" font-size="14" font-style="italic" lengthAdjust="spacing" textLength="128" x="1185" y="231.1211">read(ByteBuffer): int</text></g><!--class ScatteringByteChannel--><g id="elem_ScatteringByteChannel"><rect codeLine="1" fill="#F1F1F1" height="77.2422" id="ScatteringByteChannel" rx="2.5" ry="2.5" style="stroke:#181818;stroke-width:0.5;" width="220" x="1343" y="299.0137"/><ellipse cx="1377.35" cy="315.0137" fill="#B4A7E5" rx="11" ry="11" style="stroke:#181818;stroke-width:1.0;"/><path d="M1373.9438,309.7949 L1373.9438,308.8574 L1379.7875,308.8574 L1379.7875,309.7949 L1377.9906,309.7949 Q1377.8188,309.7949 1377.7406,309.8574 Q1377.6625,309.9199 1377.6625,310.0605 L1377.6625,319.5449 Q1377.6625,319.6855 1377.7406,319.748 Q1377.8188,319.8105 1377.9906,319.8105 L1379.7875,319.8105 L1379.7875,320.748 L1373.9438,320.748 L1373.9438,319.8105 L1375.7406,319.8105 Q1375.9594,319.8105 1376.0063,319.7637 Q1376.0688,319.7012 1376.0688,319.5449 L1376.0688,310.0605 Q1376.0688,309.9043 1376.0063,309.8574 Q1375.9594,309.7949 1375.7406,309.7949 L1373.9438,309.7949 Z " fill="#000000"/><text fill="#000000" font-family="sans-serif" font-size="14" font-style="italic" lengthAdjust="spacing" textLength="145" x="1395.65" y="320.8105">ScatteringByteChannel</text><line style="stroke:#181818;stroke-width:0.5;" x1="1344" x2="1562" y1="331.0137" y2="331.0137"/><ellipse cx="1354" cy="345.8242" fill="#84BE84" rx="3" ry="3" style="stroke:#038048;stroke-width:1.0;"/><text fill="#000000" font-family="sans-serif" font-size="14" font-style="italic" lengthAdjust="spacing" textLength="194" x="1363" y="350.1211">read(ByteBuffer[], int, int): long</text><ellipse cx="1354" cy="364.4453" fill="#84BE84" rx="3" ry="3" style="stroke:#038048;stroke-width:1.0;"/><text fill="#000000" font-family="sans-serif" font-size="14" font-style="italic" lengthAdjust="spacing" textLength="148" x="1363" y="368.7422">read(ByteBuffer[]): long</text></g><!--class SelectableChannel--><g id="elem_SelectableChannel"><rect codeLine="1" fill="#F1F1F1" height="58.6211" id="SelectableChannel" rx="2.5" ry="2.5" style="stroke:#181818;stroke-width:0.5;" width="298" x="383" y="180.0137"/><ellipse cx="468.25" cy="196.0137" fill="#A9DCDF" rx="11" ry="11" style="stroke:#181818;stroke-width:1.0;"/><path d="M468.6719,196.498 L466.1094,196.498 L465.5781,198.7949 Q465.5156,199.123 465.5156,199.2793 Q465.5156,199.498 465.5625,199.6543 Q465.625,199.8105 465.9063,199.8105 L466.375,199.8105 L466.375,200.748 L463.3906,200.748 L463.3906,199.8105 L463.8438,199.8105 Q464.0156,199.8105 464.1406,199.7168 Q464.2656,199.6074 464.3125,199.3105 L466.9531,188.9824 L468.3594,188.5137 L470.9375,199.2793 Q471.0469,199.5918 471.1719,199.7012 Q471.3125,199.8105 471.4844,199.8105 L471.9531,199.8105 L471.9531,200.748 L468.5625,200.748 L468.5625,199.8105 L469.0938,199.8105 Q469.3125,199.8105 469.3281,199.7637 Q469.3594,199.7012 469.3594,199.623 Q469.3594,199.4043 469.3125,199.2168 L468.6719,196.498 Z M464.1094,200.3418 L464.1094,200.3418 Z M464.7813,200.3418 L464.7813,200.3418 Z M469.5,200.3418 L469.5,200.3418 Z M470.625,200.3418 L470.625,200.3418 Z M467.4375,190.4043 L467.5,190.4043 L466.3906,195.5605 L468.4844,195.5605 L467.4375,190.4043 Z " fill="#000000"/><text fill="#000000" font-family="sans-serif" font-size="14" font-style="italic" lengthAdjust="spacing" textLength="119" x="488.75" y="201.8105">SelectableChannel</text><line style="stroke:#181818;stroke-width:0.5;" x1="384" x2="680" y1="212.0137" y2="212.0137"/><ellipse cx="394" cy="226.8242" fill="#84BE84" rx="3" ry="3" style="stroke:#038048;stroke-width:1.0;"/><text fill="#000000" font-family="sans-serif" font-size="14" font-style="italic" lengthAdjust="spacing" textLength="272" x="403" y="231.1211">register(Selector, int, Object): SelectionKey</text></g><!--class ServerSocketChannel--><g id="elem_ServerSocketChannel"><rect codeLine="1" fill="#F1F1F1" height="114.4844" id="ServerSocketChannel" rx="2.5" ry="2.5" style="stroke:#181818;stroke-width:0.5;" width="328" x="175" y="436.0137"/><ellipse cx="265.75" cy="452.0137" fill="#A9DCDF" rx="11" ry="11" style="stroke:#181818;stroke-width:1.0;"/><path d="M266.1719,452.498 L263.6094,452.498 L263.0781,454.7949 Q263.0156,455.123 263.0156,455.2793 Q263.0156,455.498 263.0625,455.6543 Q263.125,455.8105 263.4063,455.8105 L263.875,455.8105 L263.875,456.748 L260.8906,456.748 L260.8906,455.8105 L261.3438,455.8105 Q261.5156,455.8105 261.6406,455.7168 Q261.7656,455.6074 261.8125,455.3105 L264.4531,444.9824 L265.8594,444.5137 L268.4375,455.2793 Q268.5469,455.5918 268.6719,455.7012 Q268.8125,455.8105 268.9844,455.8105 L269.4531,455.8105 L269.4531,456.748 L266.0625,456.748 L266.0625,455.8105 L266.5938,455.8105 Q266.8125,455.8105 266.8281,455.7637 Q266.8594,455.7012 266.8594,455.623 Q266.8594,455.4043 266.8125,455.2168 L266.1719,452.498 Z M261.6094,456.3418 L261.6094,456.3418 Z M262.2813,456.3418 L262.2813,456.3418 Z M267,456.3418 L267,456.3418 Z M268.125,456.3418 L268.125,456.3418 Z M264.9375,446.4043 L265,446.4043 L263.8906,451.5605 L265.9844,451.5605 L264.9375,446.4043 Z " fill="#000000"/><text fill="#000000" font-family="sans-serif" font-size="14" font-style="italic" lengthAdjust="spacing" textLength="138" x="286.25" y="457.8105">ServerSocketChannel</text><line style="stroke:#181818;stroke-width:0.5;" x1="176" x2="502" y1="468.0137" y2="468.0137"/><ellipse cx="186" cy="482.8242" fill="#84BE84" rx="3" ry="3" style="stroke:#038048;stroke-width:1.0;"/><text fill="#000000" font-family="sans-serif" font-size="14" lengthAdjust="spacing" text-decoration="underline" textLength="188" x="195" y="487.1211">open(): ServerSocketChannel</text><ellipse cx="186" cy="501.4453" fill="#84BE84" rx="3" ry="3" style="stroke:#038048;stroke-width:1.0;"/><text fill="#000000" font-family="sans-serif" font-size="14" font-style="italic" lengthAdjust="spacing" textLength="157" x="195" y="505.7422">accept(): SocketChannel</text><ellipse cx="186" cy="520.0664" fill="#84BE84" rx="3" ry="3" style="stroke:#038048;stroke-width:1.0;"/><text fill="#000000" font-family="sans-serif" font-size="14" lengthAdjust="spacing" textLength="278" x="195" y="524.3633">bind(SocketAddress): ServerSocketChannel</text><ellipse cx="186" cy="538.6875" fill="#84BE84" rx="3" ry="3" style="stroke:#038048;stroke-width:1.0;"/><text fill="#000000" font-family="sans-serif" font-size="14" font-style="italic" lengthAdjust="spacing" textLength="302" x="195" y="542.9844">bind(SocketAddress, int): ServerSocketChannel</text></g><!--class SocketChannel--><g id="elem_SocketChannel"><rect codeLine="1" fill="#F1F1F1" height="58.6211" id="SocketChannel" rx="2.5" ry="2.5" style="stroke:#181818;stroke-width:0.5;" width="241" x="928.5" y="463.5137"/><ellipse cx="996.25" cy="479.5137" fill="#A9DCDF" rx="11" ry="11" style="stroke:#181818;stroke-width:1.0;"/><path d="M996.6719,479.998 L994.1094,479.998 L993.5781,482.2949 Q993.5156,482.623 993.5156,482.7793 Q993.5156,482.998 993.5625,483.1543 Q993.625,483.3105 993.9063,483.3105 L994.375,483.3105 L994.375,484.248 L991.3906,484.248 L991.3906,483.3105 L991.8438,483.3105 Q992.0156,483.3105 992.1406,483.2168 Q992.2656,483.1074 992.3125,482.8105 L994.9531,472.4824 L996.3594,472.0137 L998.9375,482.7793 Q999.0469,483.0918 999.1719,483.2012 Q999.3125,483.3105 999.4844,483.3105 L999.9531,483.3105 L999.9531,484.248 L996.5625,484.248 L996.5625,483.3105 L997.0938,483.3105 Q997.3125,483.3105 997.3281,483.2637 Q997.3594,483.2012 997.3594,483.123 Q997.3594,482.9043 997.3125,482.7168 L996.6719,479.998 Z M992.1094,483.8418 L992.1094,483.8418 Z M992.7813,483.8418 L992.7813,483.8418 Z M997.5,483.8418 L997.5,483.8418 Z M998.625,483.8418 L998.625,483.8418 Z M995.4375,473.9043 L995.5,473.9043 L994.3906,479.0605 L996.4844,479.0605 L995.4375,473.9043 Z " fill="#000000"/><text fill="#000000" font-family="sans-serif" font-size="14" font-style="italic" lengthAdjust="spacing" textLength="97" x="1016.75" y="485.3105">SocketChannel</text><line style="stroke:#181818;stroke-width:0.5;" x1="929.5" x2="1168.5" y1="495.5137" y2="495.5137"/><ellipse cx="939.5" cy="510.3242" fill="#84BE84" rx="3" ry="3" style="stroke:#038048;stroke-width:1.0;"/><text fill="#000000" font-family="sans-serif" font-size="14" font-style="italic" lengthAdjust="spacing" textLength="215" x="948.5" y="514.6211">connect(SocketAddress): boolean</text></g><!--class WritableByteChannel--><g id="elem_WritableByteChannel"><rect codeLine="1" fill="#F1F1F1" height="58.6211" id="WritableByteChannel" rx="2.5" ry="2.5" style="stroke:#181818;stroke-width:0.5;" width="166" x="964" y="180.0137"/><ellipse cx="979" cy="196.0137" fill="#B4A7E5" rx="11" ry="11" style="stroke:#181818;stroke-width:1.0;"/><path d="M975.5938,190.7949 L975.5938,189.8574 L981.4375,189.8574 L981.4375,190.7949 L979.6406,190.7949 Q979.4688,190.7949 979.3906,190.8574 Q979.3125,190.9199 979.3125,191.0605 L979.3125,200.5449 Q979.3125,200.6855 979.3906,200.748 Q979.4688,200.8105 979.6406,200.8105 L981.4375,200.8105 L981.4375,201.748 L975.5938,201.748 L975.5938,200.8105 L977.3906,200.8105 Q977.6094,200.8105 977.6563,200.7637 Q977.7188,200.7012 977.7188,200.5449 L977.7188,191.0605 Q977.7188,190.9043 977.6563,190.8574 Q977.6094,190.7949 977.3906,190.7949 L975.5938,190.7949 Z " fill="#000000"/><text fill="#000000" font-family="sans-serif" font-size="14" font-style="italic" lengthAdjust="spacing" textLength="134" x="993" y="201.8105">WritableByteChannel</text><line style="stroke:#181818;stroke-width:0.5;" x1="965" x2="1129" y1="212.0137" y2="212.0137"/><ellipse cx="975" cy="226.8242" fill="#84BE84" rx="3" ry="3" style="stroke:#038048;stroke-width:1.0;"/><text fill="#000000" font-family="sans-serif" font-size="14" font-style="italic" lengthAdjust="spacing" textLength="128" x="984" y="231.1211">write(ByteBuffer): int</text></g><!--class AbstractInterruptibleChannel--><g id="elem_AbstractInterruptibleChannel"><rect codeLine="1" fill="#F1F1F1" height="32" id="AbstractInterruptibleChannel" rx="2.5" ry="2.5" style="stroke:#181818;stroke-width:0.5;" width="213" x="690.5" y="321.5137"/><ellipse cx="705.5" cy="337.5137" fill="#A9DCDF" rx="11" ry="11" style="stroke:#181818;stroke-width:1.0;"/><path d="M705.9219,337.998 L703.3594,337.998 L702.8281,340.2949 Q702.7656,340.623 702.7656,340.7793 Q702.7656,340.998 702.8125,341.1543 Q702.875,341.3105 703.1563,341.3105 L703.625,341.3105 L703.625,342.248 L700.6406,342.248 L700.6406,341.3105 L701.0938,341.3105 Q701.2656,341.3105 701.3906,341.2168 Q701.5156,341.1074 701.5625,340.8105 L704.2031,330.4824 L705.6094,330.0137 L708.1875,340.7793 Q708.2969,341.0918 708.4219,341.2012 Q708.5625,341.3105 708.7344,341.3105 L709.2031,341.3105 L709.2031,342.248 L705.8125,342.248 L705.8125,341.3105 L706.3438,341.3105 Q706.5625,341.3105 706.5781,341.2637 Q706.6094,341.2012 706.6094,341.123 Q706.6094,340.9043 706.5625,340.7168 L705.9219,337.998 Z M701.3594,341.8418 L701.3594,341.8418 Z M702.0313,341.8418 L702.0313,341.8418 Z M706.75,341.8418 L706.75,341.8418 Z M707.875,341.8418 L707.875,341.8418 Z M704.6875,331.9043 L704.75,331.9043 L703.6406,337.0605 L705.7344,337.0605 L704.6875,331.9043 Z " fill="#000000"/><text fill="#000000" font-family="sans-serif" font-size="14" font-style="italic" lengthAdjust="spacing" textLength="181" x="719.5" y="343.3105">AbstractInterruptibleChannel</text></g><!--class AbstractSelectableChannel--><g id="elem_AbstractSelectableChannel"><rect codeLine="1" fill="#F1F1F1" height="58.6211" id="AbstractSelectableChannel" rx="2.5" ry="2.5" style="stroke:#181818;stroke-width:0.5;" width="326" x="329" y="308.0137"/><ellipse cx="402.25" cy="324.0137" fill="#A9DCDF" rx="11" ry="11" style="stroke:#181818;stroke-width:1.0;"/><path d="M402.6719,324.498 L400.1094,324.498 L399.5781,326.7949 Q399.5156,327.123 399.5156,327.2793 Q399.5156,327.498 399.5625,327.6543 Q399.625,327.8105 399.9063,327.8105 L400.375,327.8105 L400.375,328.748 L397.3906,328.748 L397.3906,327.8105 L397.8438,327.8105 Q398.0156,327.8105 398.1406,327.7168 Q398.2656,327.6074 398.3125,327.3105 L400.9531,316.9824 L402.3594,316.5137 L404.9375,327.2793 Q405.0469,327.5918 405.1719,327.7012 Q405.3125,327.8105 405.4844,327.8105 L405.9531,327.8105 L405.9531,328.748 L402.5625,328.748 L402.5625,327.8105 L403.0938,327.8105 Q403.3125,327.8105 403.3281,327.7637 Q403.3594,327.7012 403.3594,327.623 Q403.3594,327.4043 403.3125,327.2168 L402.6719,324.498 Z M398.1094,328.3418 L398.1094,328.3418 Z M398.7813,328.3418 L398.7813,328.3418 Z M403.5,328.3418 L403.5,328.3418 Z M404.625,328.3418 L404.625,328.3418 Z M401.4375,318.4043 L401.5,318.4043 L400.3906,323.5605 L402.4844,323.5605 L401.4375,318.4043 Z " fill="#000000"/><text fill="#000000" font-family="sans-serif" font-size="14" font-style="italic" lengthAdjust="spacing" textLength="171" x="422.75" y="329.8105">AbstractSelectableChannel</text><line style="stroke:#181818;stroke-width:0.5;" x1="330" x2="654" y1="340.0137" y2="340.0137"/><ellipse cx="340" cy="354.8242" fill="#84BE84" rx="3" ry="3" style="stroke:#038048;stroke-width:1.0;"/><text fill="#000000" font-family="sans-serif" font-size="14" lengthAdjust="spacing" textLength="300" x="349" y="359.1211">configureBlocking(boolean): SelectableChannel</text></g><!--reverse link Channel to AbstractInterruptibleChannel--><g id="link_Channel_AbstractInterruptibleChannel"><path codeLine="17" d="M886.0721,136.1863 C902.6221,168.5163 911.26,199.9137 895,239.0137 C880.08,274.9137 844.8,304.4237 820.9,321.2537 " fill="none" id="Channel-backto-AbstractInterruptibleChannel" style="stroke:#181818;stroke-width:1.0;stroke-dasharray:7.0,7.0;"/><polygon fill="none" points="877.87,120.1637,880.7312,138.9204,891.413,133.4523,877.87,120.1637" style="stroke:#181818;stroke-width:1.0;"/></g><!--reverse link InterruptibleChannel to AbstractInterruptibleChannel--><g id="link_InterruptibleChannel_AbstractInterruptibleChannel"><path codeLine="18" d="M797,257.1037 C797,282.6637 797,301.1237 797,321.4137 " fill="none" id="InterruptibleChannel-backto-AbstractInterruptibleChannel" style="stroke:#181818;stroke-width:1.0;stroke-dasharray:7.0,7.0;"/><polygon fill="none" points="797,239.1037,791,257.1037,803,257.1037,797,239.1037" style="stroke:#181818;stroke-width:1.0;"/></g><!--reverse link SelectableChannel to AbstractSelectableChannel--><g id="link_SelectableChannel_AbstractSelectableChannel"><path codeLine="19" d="M517.4748,256.2603 C510.9748,276.7403 507.7,287.0537 501.18,307.6037 " fill="none" id="SelectableChannel-backto-AbstractSelectableChannel" style="stroke:#181818;stroke-width:1.0;"/><polygon fill="none" points="522.92,239.1037,511.7559,254.4452,523.1937,258.0754,522.92,239.1037" style="stroke:#181818;stroke-width:1.0;"/></g><!--reverse link ReadableByteChannel to ByteChannel--><g id="link_ReadableByteChannel_ByteChannel"><path codeLine="20" d="M1251.6292,257.1031 C1251.4292,282.6631 1251.28,301.1237 1251.12,321.4137 " fill="none" id="ReadableByteChannel-backto-ByteChannel" style="stroke:#181818;stroke-width:1.0;"/><polygon fill="none" points="1251.77,239.1037,1245.6293,257.0562,1257.629,257.1501,1251.77,239.1037" style="stroke:#181818;stroke-width:1.0;"/></g><!--reverse link WritableByteChannel to ByteChannel--><g id="link_WritableByteChannel_ByteChannel"><path codeLine="21" d="M1146.8106,245.5299 C1162.9006,252.4899 1162.67,253.5637 1177,263.0137 C1201.94,279.4637 1225.47,305.2437 1239.05,321.4937 " fill="none" id="WritableByteChannel-backto-ByteChannel" style="stroke:#181818;stroke-width:1.0;"/><polygon fill="none" points="1130.29,238.3837,1144.4285,251.0368,1149.1927,240.0231,1130.29,238.3837" style="stroke:#181818;stroke-width:1.0;"/></g><!--reverse link WritableByteChannel to GatheringByteChannel--><g id="link_WritableByteChannel_GatheringByteChannel"><path codeLine="22" d="M1047.7445,257.1013 C1048.0345,274.8213 1048.1,279.7737 1048.4,298.9537 " fill="none" id="WritableByteChannel-backto-GatheringByteChannel" style="stroke:#181818;stroke-width:1.0;"/><polygon fill="none" points="1047.45,239.1037,1041.7453,257.1994,1053.7437,257.0031,1047.45,239.1037" style="stroke:#181818;stroke-width:1.0;"/></g><!--reverse link Channel to InterruptibleChannel--><g id="link_Channel_InterruptibleChannel"><path codeLine="23" d="M830.0738,136.6647 C821.2638,155.8047 818.27,162.3037 810.15,179.9537 " fill="none" id="Channel-backto-InterruptibleChannel" style="stroke:#181818;stroke-width:1.0;"/><polygon fill="none" points="837.6,120.3137,824.6234,134.1559,835.5241,139.1734,837.6,120.3137" style="stroke:#181818;stroke-width:1.0;"/></g><!--reverse link Channel to NetworkChannel--><g id="link_Channel_NetworkChannel"><path codeLine="24" d="M766.8793,88.1431 C669.1493,96.0931 506.24,117.2337 366,180.0137 C294.64,211.9537 224.74,272.1937 186.91,307.9037 " fill="none" id="Channel-backto-NetworkChannel" style="stroke:#181818;stroke-width:1.0;"/><polygon fill="none" points="784.82,86.6837,766.3928,82.1628,767.3657,94.1233,784.82,86.6837" style="stroke:#181818;stroke-width:1.0;"/></g><!--reverse link Channel to ReadableByteChannel--><g id="link_Channel_ReadableByteChannel"><path codeLine="25" d="M942.2166,110.1989 C1009.1066,131.4289 1092.95,158.0337 1164.97,180.8937 " fill="none" id="Channel-backto-ReadableByteChannel" style="stroke:#181818;stroke-width:1.0;"/><polygon fill="none" points="925.06,104.7537,940.4015,115.9178,944.0317,104.4801,925.06,104.7537" style="stroke:#181818;stroke-width:1.0;"/></g><!--reverse link ReadableByteChannel to ScatteringByteChannel--><g id="link_ReadableByteChannel_ScatteringByteChannel"><path codeLine="26" d="M1312.86,248.666 C1341.12,266.386 1362.49,279.7737 1393.08,298.9537 " fill="none" id="ReadableByteChannel-backto-ScatteringByteChannel" style="stroke:#181818;stroke-width:1.0;"/><polygon fill="none" points="1297.61,239.1037,1309.6726,253.7493,1316.0474,243.5826,1297.61,239.1037" style="stroke:#181818;stroke-width:1.0;"/></g><!--reverse link AbstractInterruptibleChannel to SelectableChannel--><g id="link_AbstractInterruptibleChannel_SelectableChannel"><path codeLine="27" d="M759.2769,311.6156 C734.9169,295.7856 709.81,280.6037 673,263.0137 C654.97,254.3937 635.12,246.2437 616.16,239.0437 " fill="none" id="AbstractInterruptibleChannel-backto-SelectableChannel" style="stroke:#181818;stroke-width:1.0;"/><polygon fill="none" points="774.37,321.4237,762.5462,306.5846,756.0075,316.6467,774.37,321.4237" style="stroke:#181818;stroke-width:1.0;"/></g><!--reverse link Channel to SelectableChannel--><g id="link_Channel_SelectableChannel"><path codeLine="28" d="M768.1409,116.3957 C715.0809,137.0957 659.15,158.9137 605.31,179.9137 " fill="none" id="Channel-backto-SelectableChannel" style="stroke:#181818;stroke-width:1.0;stroke-dasharray:7.0,7.0;"/><polygon fill="none" points="784.91,109.8537,765.9602,110.806,770.3216,121.9854,784.91,109.8537" style="stroke:#181818;stroke-width:1.0;"/></g><!--reverse link AbstractSelectableChannel to ServerSocketChannel--><g id="link_AbstractSelectableChannel_ServerSocketChannel"><path codeLine="29" d="M450.8752,379.7746 C431.6052,399.1146 418.19,412.5637 394.85,435.9837 " fill="none" id="AbstractSelectableChannel-backto-ServerSocketChannel" style="stroke:#181818;stroke-width:1.0;"/><polygon fill="none" points="463.58,367.0237,446.6248,375.5397,455.1255,384.0096,463.58,367.0237" style="stroke:#181818;stroke-width:1.0;"/></g><!--reverse link NetworkChannel to ServerSocketChannel--><g id="link_NetworkChannel_ServerSocketChannel"><path codeLine="30" d="M205.3468,378.6674 C228.1468,398.0074 245.32,412.5637 272.93,435.9837 " fill="none" id="NetworkChannel-backto-ServerSocketChannel" style="stroke:#181818;stroke-width:1.0;stroke-dasharray:7.0,7.0;"/><polygon fill="none" points="191.62,367.0237,201.4656,383.243,209.228,374.0918,191.62,367.0237" style="stroke:#181818;stroke-width:1.0;"/></g><!--reverse link AbstractSelectableChannel to SocketChannel--><g id="link_AbstractSelectableChannel_SocketChannel"><path codeLine="31" d="M606.4085,372.0843 C633.5285,379.9443 645.74,383.4037 673,391.0137 C762.84,416.1037 865.08,443.4937 940.25,463.4137 " fill="none" id="AbstractSelectableChannel-backto-SocketChannel" style="stroke:#181818;stroke-width:1.0;"/><polygon fill="none" points="589.12,367.0737,604.7383,377.8471,608.0787,366.3214,589.12,367.0737" style="stroke:#181818;stroke-width:1.0;"/></g><!--reverse link ByteChannel to SocketChannel--><g id="link_ByteChannel_SocketChannel"><path codeLine="32" d="M1216.5585,364.6844 C1183.0285,390.1644 1129.51,430.8337 1086.82,463.2737 " fill="none" id="ByteChannel-backto-SocketChannel" style="stroke:#181818;stroke-width:1.0;stroke-dasharray:7.0,7.0;"/><polygon fill="none" points="1230.89,353.7937,1212.9283,359.9072,1220.1888,369.4616,1230.89,353.7937" style="stroke:#181818;stroke-width:1.0;"/></g><!--reverse link ScatteringByteChannel to SocketChannel--><g id="link_ScatteringByteChannel_SocketChannel"><path codeLine="33" d="M1345.9285,382.8312 C1333.3185,387.9212 1337.2,386.2837 1325,391.0137 C1259.59,416.3837 1184.82,443.6437 1129.62,463.4337 " fill="none" id="ScatteringByteChannel-backto-SocketChannel" style="stroke:#181818;stroke-width:1.0;stroke-dasharray:7.0,7.0;"/><polygon fill="none" points="1362.62,376.0937,1343.6827,377.2673,1348.1743,388.395,1362.62,376.0937" style="stroke:#181818;stroke-width:1.0;"/></g><!--reverse link GatheringByteChannel to SocketChannel--><g id="link_GatheringByteChannel_SocketChannel"><path codeLine="34" d="M1049,394.0637 C1049,421.0437 1049,438.8637 1049,463.5137 " fill="none" id="GatheringByteChannel-backto-SocketChannel" style="stroke:#181818;stroke-width:1.0;stroke-dasharray:7.0,7.0;"/><polygon fill="none" points="1049,376.0637,1043,394.0637,1055,394.0637,1049,376.0637" style="stroke:#181818;stroke-width:1.0;"/></g><!--reverse link NetworkChannel to SocketChannel--><g id="link_NetworkChannel_SocketChannel"><path codeLine="35" d="M249.854,372.9781 C275.024,381.7181 286.45,384.7537 313,391.0137 C526.57,441.3537 781.32,469.3937 928.2,482.5337 " fill="none" id="NetworkChannel-backto-SocketChannel" style="stroke:#181818;stroke-width:1.0;stroke-dasharray:7.0,7.0;"/><polygon fill="none" points="232.85,367.0737,247.8859,378.6461,251.8222,367.3101,232.85,367.0737" style="stroke:#181818;stroke-width:1.0;"/></g><!--reverse link Channel to WritableByteChannel--><g id="link_Channel_WritableByteChannel"><path codeLine="36" d="M927.3972,130.0221 C956.5672,149.1721 976.41,162.1837 1003.36,179.8737 " fill="none" id="Channel-backto-WritableByteChannel" style="stroke:#181818;stroke-width:1.0;"/><polygon fill="none" points="912.35,120.1437,924.1044,135.0378,930.69,125.0064,912.35,120.1437" style="stroke:#181818;stroke-width:1.0;"/></g><!--SRC=[bPD1JiCm44NtFeLxW2OtGA8i41k4o8Brn1aIAxPZsMDGfHwU0gb4t6bmbj6yF_B_yxFp0NeBCaLySeJ1OgU1y0NK23r6-GuceX0xxPH97SgggfsUQZM0SsZg-pPI04K_sf0ywTRWm- -myicQVvKD6bG4fRB3aSh08kWHQC2WNL-yThlHPwJFAOn5x2j2znr5yNCQ1KJR76mClC7mWQ6Pr8XK9YX7tu8crgvOwvMiagzETtB-B6AvcRXPGRbFVdzMNGt4dvTU8EPc7CPu5LpzrdZMuSnVc6NTyYdps1nXAxLczcPyQuTXLDbPcUBbYw_lmudclSjWnDR5tCf52Xp0PicZN1T4YH6cAFb9nQ3FFnzQJqTfqROOuXS0]--></g></svg>