<?xml version="1.0" encoding="us-ascii" standalone="no"?><svg xmlns="http://www.w3.org/2000/svg" xmlns:xlink="http://www.w3.org/1999/xlink" contentStyleType="text/css" height="917px" preserveAspectRatio="none" style="width:1791px;height:917px;background:#FFFFFF;" version="1.1" viewBox="0 0 1791 917" width="1791px" zoomAndPan="magnify"><defs/><g><!--cluster channel--><g id="cluster_channel"><path d="M669.5,6.0137 L782.5,6.0137 A3.75,3.75 0 0 1 785,8.5137 L792,30.6348 L1781.5,30.6348 A2.5,2.5 0 0 1 1784,33.1348 L1784,908.0137 A2.5,2.5 0 0 1 1781.5,910.5137 L669.5,910.5137 A2.5,2.5 0 0 1 667,908.0137 L667,8.5137 A2.5,2.5 0 0 1 669.5,6.0137 " fill="none" style="stroke:#000000;stroke-width:1.5;"/><line style="stroke:#000000;stroke-width:1.5;" x1="667" x2="792" y1="30.6348" y2="30.6348"/><text fill="#000000" font-family="sans-serif" font-size="14" font-weight="bold" lengthAdjust="spacing" textLength="112" x="671" y="23.1211">io.netty.channel</text></g><!--cluster nio--><g id="cluster_nio"><path d="M693.5,386.0137 L716.5,386.0137 A3.75,3.75 0 0 1 719,388.5137 L726,410.6348 L1157.5,410.6348 A2.5,2.5 0 0 1 1160,413.1348 L1160,709.0137 A2.5,2.5 0 0 1 1157.5,711.5137 L693.5,711.5137 A2.5,2.5 0 0 1 691,709.0137 L691,388.5137 A2.5,2.5 0 0 1 693.5,386.0137 " fill="none" style="stroke:#000000;stroke-width:1.5;"/><line style="stroke:#000000;stroke-width:1.5;" x1="691" x2="726" y1="410.6348" y2="410.6348"/><text fill="#000000" font-family="sans-serif" font-size="14" font-weight="bold" lengthAdjust="spacing" textLength="22" x="695" y="403.1211">nio</text></g><!--cluster socket--><g id="cluster_socket"><path d="M1186.5,453.5137 L1234.5,453.5137 A3.75,3.75 0 0 1 1237,456.0137 L1244,478.1348 L1757.5,478.1348 A2.5,2.5 0 0 1 1760,480.6348 L1760,884.0137 A2.5,2.5 0 0 1 1757.5,886.5137 L1186.5,886.5137 A2.5,2.5 0 0 1 1184,884.0137 L1184,456.0137 A2.5,2.5 0 0 1 1186.5,453.5137 " fill="none" style="stroke:#000000;stroke-width:1.5;"/><line style="stroke:#000000;stroke-width:1.5;" x1="1184" x2="1244" y1="478.1348" y2="478.1348"/><text fill="#000000" font-family="sans-serif" font-size="14" font-weight="bold" lengthAdjust="spacing" textLength="47" x="1188" y="470.6211">socket</text></g><!--cluster nio--><g id="cluster_nio"><path d="M1210.5,750.5137 L1233.5,750.5137 A3.75,3.75 0 0 1 1236,753.0137 L1243,775.1348 L1733.5,775.1348 A2.5,2.5 0 0 1 1736,777.6348 L1736,860.0137 A2.5,2.5 0 0 1 1733.5,862.5137 L1210.5,862.5137 A2.5,2.5 0 0 1 1208,860.0137 L1208,753.0137 A2.5,2.5 0 0 1 1210.5,750.5137 " fill="none" style="stroke:#000000;stroke-width:1.5;"/><line style="stroke:#000000;stroke-width:1.5;" x1="1208" x2="1243" y1="775.1348" y2="775.1348"/><text fill="#000000" font-family="sans-serif" font-size="14" font-weight="bold" lengthAdjust="spacing" textLength="22" x="1212" y="767.6211">nio</text></g><!--cluster channels--><g id="cluster_channels"><path d="M8.5,440.0137 L132.5,440.0137 A3.75,3.75 0 0 1 135,442.5137 L142,464.6348 L640.5,464.6348 A2.5,2.5 0 0 1 643,467.1348 L643,878.5137 A2.5,2.5 0 0 1 640.5,881.0137 L8.5,881.0137 A2.5,2.5 0 0 1 6,878.5137 L6,442.5137 A2.5,2.5 0 0 1 8.5,440.0137 " fill="none" style="stroke:#000000;stroke-width:1.5;"/><line style="stroke:#000000;stroke-width:1.5;" x1="6" x2="142" y1="464.6348" y2="464.6348"/><text fill="#000000" font-family="sans-serif" font-size="14" font-weight="bold" lengthAdjust="spacing" textLength="123" x="10" y="457.1211">java.nio.channels</text></g><!--cluster spi--><g id="cluster_spi"><path d="M263.5,613.0137 L285.5,613.0137 A3.75,3.75 0 0 1 288,615.5137 L295,637.6348 L616.5,637.6348 A2.5,2.5 0 0 1 619,640.1348 L619,722.5137 A2.5,2.5 0 0 1 616.5,725.0137 L263.5,725.0137 A2.5,2.5 0 0 1 261,722.5137 L261,615.5137 A2.5,2.5 0 0 1 263.5,613.0137 " fill="none" style="stroke:#000000;stroke-width:1.5;"/><line style="stroke:#000000;stroke-width:1.5;" x1="261" x2="295" y1="637.6348" y2="637.6348"/><text fill="#000000" font-family="sans-serif" font-size="14" font-weight="bold" lengthAdjust="spacing" textLength="21" x="265" y="630.1211">spi</text></g><!--class AbstractChannel--><g id="elem_AbstractChannel"><rect codeLine="1" fill="#F1F1F1" height="227.5898" id="AbstractChannel" rx="2.5" ry="2.5" style="stroke:#181818;stroke-width:0.5;" width="231" x="960.5" y="135.0137"/><ellipse cx="1019.25" cy="151.0137" fill="#A9DCDF" rx="11" ry="11" style="stroke:#181818;stroke-width:1.0;"/><path d="M1019.6719,151.498 L1017.1094,151.498 L1016.5781,153.7949 Q1016.5156,154.123 1016.5156,154.2793 Q1016.5156,154.498 1016.5625,154.6543 Q1016.625,154.8105 1016.9063,154.8105 L1017.375,154.8105 L1017.375,155.748 L1014.3906,155.748 L1014.3906,154.8105 L1014.8438,154.8105 Q1015.0156,154.8105 1015.1406,154.7168 Q1015.2656,154.6074 1015.3125,154.3105 L1017.9531,143.9824 L1019.3594,143.5137 L1021.9375,154.2793 Q1022.0469,154.5918 1022.1719,154.7012 Q1022.3125,154.8105 1022.4844,154.8105 L1022.9531,154.8105 L1022.9531,155.748 L1019.5625,155.748 L1019.5625,154.8105 L1020.0938,154.8105 Q1020.3125,154.8105 1020.3281,154.7637 Q1020.3594,154.7012 1020.3594,154.623 Q1020.3594,154.4043 1020.3125,154.2168 L1019.6719,151.498 Z M1015.1094,155.3418 L1015.1094,155.3418 Z M1015.7813,155.3418 L1015.7813,155.3418 Z M1020.5,155.3418 L1020.5,155.3418 Z M1021.625,155.3418 L1021.625,155.3418 Z M1018.4375,145.4043 L1018.5,145.4043 L1017.3906,150.5605 L1019.4844,150.5605 L1018.4375,145.4043 Z " fill="#000000"/><text fill="#000000" font-family="sans-serif" font-size="14" font-style="italic" lengthAdjust="spacing" textLength="105" x="1039.75" y="156.8105">AbstractChannel</text><line style="stroke:#181818;stroke-width:0.5;" x1="961.5" x2="1190.5" y1="167.0137" y2="167.0137"/><rect fill="none" height="6" style="stroke:#C82930;stroke-width:1.0;" width="6" x="968.5" y="178.8242"/><text fill="#000000" font-family="sans-serif" font-size="14" lengthAdjust="spacing" textLength="83" x="980.5" y="186.1211">id: ChannelId</text><rect fill="none" height="6" style="stroke:#C82930;stroke-width:1.0;" width="6" x="968.5" y="197.4453"/><text fill="#000000" font-family="sans-serif" font-size="14" lengthAdjust="spacing" textLength="102" x="980.5" y="204.7422">parent: Channel</text><rect fill="none" height="6" style="stroke:#C82930;stroke-width:1.0;" width="6" x="968.5" y="216.0664"/><text fill="#000000" font-family="sans-serif" font-size="14" lengthAdjust="spacing" textLength="123" x="980.5" y="223.3633">registered: boolean</text><rect fill="none" height="6" style="stroke:#C82930;stroke-width:1.0;" width="6" x="968.5" y="257.3086"/><text fill="#000000" font-family="sans-serif" font-size="14" lengthAdjust="spacing" textLength="95" x="980.5" y="264.6055">unsafe: Unsafe</text><line style="stroke:#181818;stroke-width:1.0;stroke-dasharray:1.0,2.0;" x1="961.5" x2="1054.5" y1="240.1875" y2="240.1875"/><text fill="#000000" font-family="sans-serif" font-size="14" lengthAdjust="spacing" textLength="43" x="1054.5" y="245.4844">unsafe</text><line style="stroke:#181818;stroke-width:1.0;stroke-dasharray:1.0,2.0;" x1="1097.5" x2="1190.5" y1="240.1875" y2="240.1875"/><rect fill="none" height="6" style="stroke:#C82930;stroke-width:1.0;" width="6" x="968.5" y="298.5508"/><text fill="#000000" font-family="sans-serif" font-size="14" lengthAdjust="spacing" textLength="205" x="980.5" y="305.8477">pipeline: DefaultChannelPipeline</text><line style="stroke:#181818;stroke-width:1.0;stroke-dasharray:1.0,2.0;" x1="961.5" x2="1051.5" y1="281.4297" y2="281.4297"/><text fill="#000000" font-family="sans-serif" font-size="14" lengthAdjust="spacing" textLength="49" x="1051.5" y="286.7266">pipeline</text><line style="stroke:#181818;stroke-width:1.0;stroke-dasharray:1.0,2.0;" x1="1100.5" x2="1190.5" y1="281.4297" y2="281.4297"/><rect fill="none" height="6" style="stroke:#C82930;stroke-width:1.0;" width="6" x="968.5" y="339.793"/><text fill="#000000" font-family="sans-serif" font-size="14" lengthAdjust="spacing" textLength="143" x="980.5" y="347.0898">eventLoop: EventLoop</text><line style="stroke:#181818;stroke-width:1.0;stroke-dasharray:1.0,2.0;" x1="961.5" x2="1045" y1="322.6719" y2="322.6719"/><text fill="#000000" font-family="sans-serif" font-size="14" lengthAdjust="spacing" textLength="62" x="1045" y="327.9688">eventloop</text><line style="stroke:#181818;stroke-width:1.0;stroke-dasharray:1.0,2.0;" x1="1107" x2="1190.5" y1="322.6719" y2="322.6719"/><line style="stroke:#181818;stroke-width:1.0;" x1="961.5" x2="1190.5" y1="354.6035" y2="354.6035"/></g><!--class Channel--><g id="elem_Channel"><rect codeLine="1" fill="#F1F1F1" height="32" id="Channel" rx="2.5" ry="2.5" style="stroke:#181818;stroke-width:0.5;" width="85" x="1307.5" y="43.0137"/><ellipse cx="1322.5" cy="59.0137" fill="#B4A7E5" rx="11" ry="11" style="stroke:#181818;stroke-width:1.0;"/><path d="M1319.0938,53.7949 L1319.0938,52.8574 L1324.9375,52.8574 L1324.9375,53.7949 L1323.1406,53.7949 Q1322.9688,53.7949 1322.8906,53.8574 Q1322.8125,53.9199 1322.8125,54.0605 L1322.8125,63.5449 Q1322.8125,63.6855 1322.8906,63.748 Q1322.9688,63.8105 1323.1406,63.8105 L1324.9375,63.8105 L1324.9375,64.748 L1319.0938,64.748 L1319.0938,63.8105 L1320.8906,63.8105 Q1321.1094,63.8105 1321.1563,63.7637 Q1321.2188,63.7012 1321.2188,63.5449 L1321.2188,54.0605 Q1321.2188,53.9043 1321.1563,53.8574 Q1321.1094,53.7949 1320.8906,53.7949 L1319.0938,53.7949 Z " fill="#000000"/><text fill="#000000" font-family="sans-serif" font-size="14" font-style="italic" lengthAdjust="spacing" textLength="53" x="1336.5" y="64.8105">Channel</text></g><!--class ServerChannel--><g id="elem_ServerChannel"><rect codeLine="1" fill="#F1F1F1" height="32" id="ServerChannel" rx="2.5" ry="2.5" style="stroke:#181818;stroke-width:0.5;" width="126" x="1287" y="233.0137"/><ellipse cx="1302" cy="249.0137" fill="#B4A7E5" rx="11" ry="11" style="stroke:#181818;stroke-width:1.0;"/><path d="M1298.5938,243.7949 L1298.5938,242.8574 L1304.4375,242.8574 L1304.4375,243.7949 L1302.6406,243.7949 Q1302.4688,243.7949 1302.3906,243.8574 Q1302.3125,243.9199 1302.3125,244.0605 L1302.3125,253.5449 Q1302.3125,253.6855 1302.3906,253.748 Q1302.4688,253.8105 1302.6406,253.8105 L1304.4375,253.8105 L1304.4375,254.748 L1298.5938,254.748 L1298.5938,253.8105 L1300.3906,253.8105 Q1300.6094,253.8105 1300.6563,253.7637 Q1300.7188,253.7012 1300.7188,253.5449 L1300.7188,244.0605 Q1300.7188,243.9043 1300.6563,243.8574 Q1300.6094,243.7949 1300.3906,243.7949 L1298.5938,243.7949 Z " fill="#000000"/><text fill="#000000" font-family="sans-serif" font-size="14" font-style="italic" lengthAdjust="spacing" textLength="94" x="1316" y="254.8105">ServerChannel</text></g><!--class AbstractNioByteChannel--><g id="elem_AbstractNioByteChannel"><rect codeLine="1" fill="#F1F1F1" height="32" id="AbstractNioByteChannel" rx="2.5" ry="2.5" style="stroke:#181818;stroke-width:0.5;" width="186" x="958" y="663.5137"/><ellipse cx="973" cy="679.5137" fill="#A9DCDF" rx="11" ry="11" style="stroke:#181818;stroke-width:1.0;"/><path d="M973.4219,679.998 L970.8594,679.998 L970.3281,682.2949 Q970.2656,682.623 970.2656,682.7793 Q970.2656,682.998 970.3125,683.1543 Q970.375,683.3105 970.6563,683.3105 L971.125,683.3105 L971.125,684.248 L968.1406,684.248 L968.1406,683.3105 L968.5938,683.3105 Q968.7656,683.3105 968.8906,683.2168 Q969.0156,683.1074 969.0625,682.8105 L971.7031,672.4824 L973.1094,672.0137 L975.6875,682.7793 Q975.7969,683.0918 975.9219,683.2012 Q976.0625,683.3105 976.2344,683.3105 L976.7031,683.3105 L976.7031,684.248 L973.3125,684.248 L973.3125,683.3105 L973.8438,683.3105 Q974.0625,683.3105 974.0781,683.2637 Q974.1094,683.2012 974.1094,683.123 Q974.1094,682.9043 974.0625,682.7168 L973.4219,679.998 Z M968.8594,683.8418 L968.8594,683.8418 Z M969.5313,683.8418 L969.5313,683.8418 Z M974.25,683.8418 L974.25,683.8418 Z M975.375,683.8418 L975.375,683.8418 Z M972.1875,673.9043 L972.25,673.9043 L971.1406,679.0605 L973.2344,679.0605 L972.1875,673.9043 Z " fill="#000000"/><text fill="#000000" font-family="sans-serif" font-size="14" font-style="italic" lengthAdjust="spacing" textLength="154" x="987" y="685.3105">AbstractNioByteChannel</text></g><!--class AbstractNioChannel--><g id="elem_AbstractNioChannel"><rect codeLine="1" fill="#F1F1F1" height="159.7266" id="AbstractNioChannel" rx="2.5" ry="2.5" style="stroke:#181818;stroke-width:0.5;" width="242" x="805" y="427.0137"/><ellipse cx="858.75" cy="443.0137" fill="#A9DCDF" rx="11" ry="11" style="stroke:#181818;stroke-width:1.0;"/><path d="M859.1719,443.498 L856.6094,443.498 L856.0781,445.7949 Q856.0156,446.123 856.0156,446.2793 Q856.0156,446.498 856.0625,446.6543 Q856.125,446.8105 856.4063,446.8105 L856.875,446.8105 L856.875,447.748 L853.8906,447.748 L853.8906,446.8105 L854.3438,446.8105 Q854.5156,446.8105 854.6406,446.7168 Q854.7656,446.6074 854.8125,446.3105 L857.4531,435.9824 L858.8594,435.5137 L861.4375,446.2793 Q861.5469,446.5918 861.6719,446.7012 Q861.8125,446.8105 861.9844,446.8105 L862.4531,446.8105 L862.4531,447.748 L859.0625,447.748 L859.0625,446.8105 L859.5938,446.8105 Q859.8125,446.8105 859.8281,446.7637 Q859.8594,446.7012 859.8594,446.623 Q859.8594,446.4043 859.8125,446.2168 L859.1719,443.498 Z M854.6094,447.3418 L854.6094,447.3418 Z M855.2813,447.3418 L855.2813,447.3418 Z M860,447.3418 L860,447.3418 Z M861.125,447.3418 L861.125,447.3418 Z M857.9375,437.4043 L858,437.4043 L856.8906,442.5605 L858.9844,442.5605 L857.9375,437.4043 Z " fill="#000000"/><text fill="#000000" font-family="sans-serif" font-size="14" font-style="italic" lengthAdjust="spacing" textLength="126" x="879.25" y="448.8105">AbstractNioChannel</text><line style="stroke:#181818;stroke-width:0.5;" x1="806" x2="1046" y1="459.0137" y2="459.0137"/><rect fill="none" height="6" style="stroke:#C82930;stroke-width:1.0;" width="6" x="813" y="470.8242"/><text fill="#000000" font-family="sans-serif" font-size="14" lengthAdjust="spacing" textLength="142" x="825" y="478.1211">ch: SelectableChannel</text><polygon fill="none" points="816,487.4453,820,491.4453,816,495.4453,812,491.4453" style="stroke:#B38D22;stroke-width:1.0;"/><text fill="#000000" font-family="sans-serif" font-size="14" lengthAdjust="spacing" textLength="118" x="825" y="496.7422">readInterestOp: int</text><polygon fill="none" points="816,507.0664,812,513.0664,820,513.0664" style="stroke:#1963A0;stroke-width:1.0;"/><text fill="#000000" font-family="sans-serif" font-size="14" lengthAdjust="spacing" textLength="170" x="825" y="515.3633">selectionKey: SelectionKey</text><line style="stroke:#181818;stroke-width:1.0;" x1="806" x2="1046" y1="522.877" y2="522.877"/><polygon fill="#FFFF44" points="816,532.6875,820,536.6875,816,540.6875,812,536.6875" style="stroke:#B38D22;stroke-width:1.0;"/><text fill="#000000" font-family="sans-serif" font-size="14" lengthAdjust="spacing" textLength="216" x="825" y="541.9844">javaChannel(): SelectableChannel</text><polygon fill="#FFFF44" points="816,551.3086,820,555.3086,816,559.3086,812,555.3086" style="stroke:#B38D22;stroke-width:1.0;"/><text fill="#000000" font-family="sans-serif" font-size="14" lengthAdjust="spacing" textLength="180" x="825" y="560.6055">selectionKey(): SelectionKey</text><ellipse cx="816" cy="574.9297" fill="#84BE84" rx="3" ry="3" style="stroke:#038048;stroke-width:1.0;"/><text fill="#000000" font-family="sans-serif" font-size="14" lengthAdjust="spacing" textLength="153" x="825" y="579.2266">eventLoop(): EventLoop</text></g><!--class AbstractNioMessageChannel--><g id="elem_AbstractNioMessageChannel"><rect codeLine="1" fill="#F1F1F1" height="32" id="AbstractNioMessageChannel" rx="2.5" ry="2.5" style="stroke:#181818;stroke-width:0.5;" width="216" x="707" y="663.5137"/><ellipse cx="722" cy="679.5137" fill="#A9DCDF" rx="11" ry="11" style="stroke:#181818;stroke-width:1.0;"/><path d="M722.4219,679.998 L719.8594,679.998 L719.3281,682.2949 Q719.2656,682.623 719.2656,682.7793 Q719.2656,682.998 719.3125,683.1543 Q719.375,683.3105 719.6563,683.3105 L720.125,683.3105 L720.125,684.248 L717.1406,684.248 L717.1406,683.3105 L717.5938,683.3105 Q717.7656,683.3105 717.8906,683.2168 Q718.0156,683.1074 718.0625,682.8105 L720.7031,672.4824 L722.1094,672.0137 L724.6875,682.7793 Q724.7969,683.0918 724.9219,683.2012 Q725.0625,683.3105 725.2344,683.3105 L725.7031,683.3105 L725.7031,684.248 L722.3125,684.248 L722.3125,683.3105 L722.8438,683.3105 Q723.0625,683.3105 723.0781,683.2637 Q723.1094,683.2012 723.1094,683.123 Q723.1094,682.9043 723.0625,682.7168 L722.4219,679.998 Z M717.8594,683.8418 L717.8594,683.8418 Z M718.5313,683.8418 L718.5313,683.8418 Z M723.25,683.8418 L723.25,683.8418 Z M724.375,683.8418 L724.375,683.8418 Z M721.1875,673.9043 L721.25,673.9043 L720.1406,679.0605 L722.2344,679.0605 L721.1875,673.9043 Z " fill="#000000"/><text fill="#000000" font-family="sans-serif" font-size="14" font-style="italic" lengthAdjust="spacing" textLength="184" x="736" y="685.3105">AbstractNioMessageChannel</text></g><!--class DuplexChannel--><g id="elem_DuplexChannel"><rect codeLine="1" fill="#F1F1F1" height="32" id="DuplexChannel" rx="2.5" ry="2.5" style="stroke:#181818;stroke-width:0.5;" width="128" x="1428" y="490.5137"/><ellipse cx="1443" cy="506.5137" fill="#B4A7E5" rx="11" ry="11" style="stroke:#181818;stroke-width:1.0;"/><path d="M1439.5938,501.2949 L1439.5938,500.3574 L1445.4375,500.3574 L1445.4375,501.2949 L1443.6406,501.2949 Q1443.4688,501.2949 1443.3906,501.3574 Q1443.3125,501.4199 1443.3125,501.5605 L1443.3125,511.0449 Q1443.3125,511.1855 1443.3906,511.248 Q1443.4688,511.3105 1443.6406,511.3105 L1445.4375,511.3105 L1445.4375,512.248 L1439.5938,512.248 L1439.5938,511.3105 L1441.3906,511.3105 Q1441.6094,511.3105 1441.6563,511.2637 Q1441.7188,511.2012 1441.7188,511.0449 L1441.7188,501.5605 Q1441.7188,501.4043 1441.6563,501.3574 Q1441.6094,501.2949 1441.3906,501.2949 L1439.5938,501.2949 Z " fill="#000000"/><text fill="#000000" font-family="sans-serif" font-size="14" font-style="italic" lengthAdjust="spacing" textLength="96" x="1457" y="512.3105">DuplexChannel</text></g><!--class ServerSocketChannel--><g id="elem_ServerSocketChannel"><rect codeLine="1" fill="#F1F1F1" height="32" id="ServerSocketChannel" rx="2.5" ry="2.5" style="stroke:#181818;stroke-width:0.5;" width="170" x="1265" y="663.5137"/><ellipse cx="1280" cy="679.5137" fill="#B4A7E5" rx="11" ry="11" style="stroke:#181818;stroke-width:1.0;"/><path d="M1276.5938,674.2949 L1276.5938,673.3574 L1282.4375,673.3574 L1282.4375,674.2949 L1280.6406,674.2949 Q1280.4688,674.2949 1280.3906,674.3574 Q1280.3125,674.4199 1280.3125,674.5605 L1280.3125,684.0449 Q1280.3125,684.1855 1280.3906,684.248 Q1280.4688,684.3105 1280.6406,684.3105 L1282.4375,684.3105 L1282.4375,685.248 L1276.5938,685.248 L1276.5938,684.3105 L1278.3906,684.3105 Q1278.6094,684.3105 1278.6563,684.2637 Q1278.7188,684.2012 1278.7188,684.0449 L1278.7188,674.5605 Q1278.7188,674.4043 1278.6563,674.3574 Q1278.6094,674.2949 1278.3906,674.2949 L1276.5938,674.2949 Z " fill="#000000"/><text fill="#000000" font-family="sans-serif" font-size="14" font-style="italic" lengthAdjust="spacing" textLength="138" x="1294" y="685.3105">ServerSocketChannel</text></g><!--class SocketChannel--><g id="elem_SocketChannel"><rect codeLine="1" fill="#F1F1F1" height="32" id="SocketChannel" rx="2.5" ry="2.5" style="stroke:#181818;stroke-width:0.5;" width="129" x="1510.5" y="663.5137"/><ellipse cx="1525.5" cy="679.5137" fill="#B4A7E5" rx="11" ry="11" style="stroke:#181818;stroke-width:1.0;"/><path d="M1522.0938,674.2949 L1522.0938,673.3574 L1527.9375,673.3574 L1527.9375,674.2949 L1526.1406,674.2949 Q1525.9688,674.2949 1525.8906,674.3574 Q1525.8125,674.4199 1525.8125,674.5605 L1525.8125,684.0449 Q1525.8125,684.1855 1525.8906,684.248 Q1525.9688,684.3105 1526.1406,684.3105 L1527.9375,684.3105 L1527.9375,685.248 L1522.0938,685.248 L1522.0938,684.3105 L1523.8906,684.3105 Q1524.1094,684.3105 1524.1563,684.2637 Q1524.2188,684.2012 1524.2188,684.0449 L1524.2188,674.5605 Q1524.2188,674.4043 1524.1563,674.3574 Q1524.1094,674.2949 1523.8906,674.2949 L1522.0938,674.2949 Z " fill="#000000"/><text fill="#000000" font-family="sans-serif" font-size="14" font-style="italic" lengthAdjust="spacing" textLength="97" x="1539.5" y="685.3105">SocketChannel</text></g><!--class NioServerSocketChannel--><g id="elem_NioServerSocketChannel"><rect codeLine="1" fill="#F1F1F1" height="58.6211" id="NioServerSocketChannel" rx="2.5" ry="2.5" style="stroke:#181818;stroke-width:0.5;" width="251" x="1224.5" y="787.5137"/><ellipse cx="1266.95" cy="803.5137" fill="#ADD1B2" rx="11" ry="11" style="stroke:#181818;stroke-width:1.0;"/><path d="M1266.2938,809.373 Q1264.3094,809.373 1263.1375,807.9043 Q1261.9813,806.4199 1261.9813,803.3418 Q1261.9813,800.7324 1263.2,798.9824 Q1264.4344,797.2324 1266.5594,797.2324 Q1267.0594,797.2324 1267.5906,797.373 Q1268.0281,797.5605 1268.2938,797.5605 Q1268.5125,797.5605 1268.6063,797.5137 Q1268.7156,797.4668 1269.1688,796.873 L1269.9344,800.6074 L1269.0438,800.873 Q1268.5906,799.4199 1267.9813,798.8262 Q1267.3875,798.2168 1266.4344,798.2168 Q1265.2156,798.2168 1264.4969,799.6543 Q1263.7781,801.0762 1263.7781,803.2637 Q1263.7781,805.6699 1264.3875,806.9668 Q1265.0125,808.248 1266.3719,808.248 Q1267.325,808.248 1268.0125,807.5605 Q1268.7,806.8574 1269.0281,805.3574 L1269.9344,805.7637 Q1269.5281,807.4668 1268.5594,808.4199 Q1267.6063,809.373 1266.2938,809.373 Z " fill="#000000"/><text fill="#000000" font-family="sans-serif" font-size="14" lengthAdjust="spacing" textLength="158" x="1287.05" y="809.3105">NioServerSocketChannel</text><line style="stroke:#181818;stroke-width:0.5;" x1="1225.5" x2="1474.5" y1="819.5137" y2="819.5137"/><rect fill="none" height="6" style="stroke:#C82930;stroke-width:1.0;" width="6" x="1232.5" y="831.3242"/><text fill="#000000" font-family="sans-serif" font-size="14" lengthAdjust="spacing" textLength="225" x="1244.5" y="838.6211">config: ServerSocketChannelConfig</text></g><!--class NioSocketChannel--><g id="elem_NioSocketChannel"><rect codeLine="1" fill="#F1F1F1" height="58.6211" id="NioSocketChannel" rx="2.5" ry="2.5" style="stroke:#181818;stroke-width:0.5;" width="209" x="1510.5" y="787.5137"/><ellipse cx="1552.95" cy="803.5137" fill="#ADD1B2" rx="11" ry="11" style="stroke:#181818;stroke-width:1.0;"/><path d="M1552.2938,809.373 Q1550.3094,809.373 1549.1375,807.9043 Q1547.9813,806.4199 1547.9813,803.3418 Q1547.9813,800.7324 1549.2,798.9824 Q1550.4344,797.2324 1552.5594,797.2324 Q1553.0594,797.2324 1553.5906,797.373 Q1554.0281,797.5605 1554.2938,797.5605 Q1554.5125,797.5605 1554.6063,797.5137 Q1554.7156,797.4668 1555.1688,796.873 L1555.9344,800.6074 L1555.0438,800.873 Q1554.5906,799.4199 1553.9813,798.8262 Q1553.3875,798.2168 1552.4344,798.2168 Q1551.2156,798.2168 1550.4969,799.6543 Q1549.7781,801.0762 1549.7781,803.2637 Q1549.7781,805.6699 1550.3875,806.9668 Q1551.0125,808.248 1552.3719,808.248 Q1553.325,808.248 1554.0125,807.5605 Q1554.7,806.8574 1555.0281,805.3574 L1555.9344,805.7637 Q1555.5281,807.4668 1554.5594,808.4199 Q1553.6063,809.373 1552.2938,809.373 Z " fill="#000000"/><text fill="#000000" font-family="sans-serif" font-size="14" lengthAdjust="spacing" textLength="116" x="1573.05" y="809.3105">NioSocketChannel</text><line style="stroke:#181818;stroke-width:0.5;" x1="1511.5" x2="1718.5" y1="819.5137" y2="819.5137"/><rect fill="none" height="6" style="stroke:#C82930;stroke-width:1.0;" width="6" x="1518.5" y="831.3242"/><text fill="#000000" font-family="sans-serif" font-size="14" lengthAdjust="spacing" textLength="183" x="1530.5" y="838.6211">config: SocketChannelConfig</text></g><!--class SelectableChannel--><g id="elem_SelectableChannel"><rect codeLine="16" fill="#F1F1F1" height="58.6211" id="SelectableChannel" rx="2.5" ry="2.5" style="stroke:#181818;stroke-width:0.5;" width="298" x="310" y="477.0137"/><ellipse cx="395.25" cy="493.0137" fill="#A9DCDF" rx="11" ry="11" style="stroke:#181818;stroke-width:1.0;"/><path d="M395.6719,493.498 L393.1094,493.498 L392.5781,495.7949 Q392.5156,496.123 392.5156,496.2793 Q392.5156,496.498 392.5625,496.6543 Q392.625,496.8105 392.9063,496.8105 L393.375,496.8105 L393.375,497.748 L390.3906,497.748 L390.3906,496.8105 L390.8438,496.8105 Q391.0156,496.8105 391.1406,496.7168 Q391.2656,496.6074 391.3125,496.3105 L393.9531,485.9824 L395.3594,485.5137 L397.9375,496.2793 Q398.0469,496.5918 398.1719,496.7012 Q398.3125,496.8105 398.4844,496.8105 L398.9531,496.8105 L398.9531,497.748 L395.5625,497.748 L395.5625,496.8105 L396.0938,496.8105 Q396.3125,496.8105 396.3281,496.7637 Q396.3594,496.7012 396.3594,496.623 Q396.3594,496.4043 396.3125,496.2168 L395.6719,493.498 Z M391.1094,497.3418 L391.1094,497.3418 Z M391.7813,497.3418 L391.7813,497.3418 Z M396.5,497.3418 L396.5,497.3418 Z M397.625,497.3418 L397.625,497.3418 Z M394.4375,487.4043 L394.5,487.4043 L393.3906,492.5605 L395.4844,492.5605 L394.4375,487.4043 Z " fill="#000000"/><text fill="#000000" font-family="sans-serif" font-size="14" font-style="italic" lengthAdjust="spacing" textLength="119" x="415.75" y="498.8105">SelectableChannel</text><line style="stroke:#181818;stroke-width:0.5;" x1="311" x2="607" y1="509.0137" y2="509.0137"/><ellipse cx="321" cy="523.8242" fill="#84BE84" rx="3" ry="3" style="stroke:#038048;stroke-width:1.0;"/><text fill="#000000" font-family="sans-serif" font-size="14" font-style="italic" lengthAdjust="spacing" textLength="272" x="330" y="528.1211">register(Selector, int, Object): SelectionKey</text></g><!--class ServerSocketChannel--><g id="elem_ServerSocketChannel"><rect codeLine="22" fill="#F1F1F1" height="95.8633" id="ServerSocketChannel" rx="2.5" ry="2.5" style="stroke:#181818;stroke-width:0.5;" width="328" x="22" y="769.0137"/><ellipse cx="112.75" cy="785.0137" fill="#A9DCDF" rx="11" ry="11" style="stroke:#181818;stroke-width:1.0;"/><path d="M113.1719,785.498 L110.6094,785.498 L110.0781,787.7949 Q110.0156,788.123 110.0156,788.2793 Q110.0156,788.498 110.0625,788.6543 Q110.125,788.8105 110.4063,788.8105 L110.875,788.8105 L110.875,789.748 L107.8906,789.748 L107.8906,788.8105 L108.3438,788.8105 Q108.5156,788.8105 108.6406,788.7168 Q108.7656,788.6074 108.8125,788.3105 L111.4531,777.9824 L112.8594,777.5137 L115.4375,788.2793 Q115.5469,788.5918 115.6719,788.7012 Q115.8125,788.8105 115.9844,788.8105 L116.4531,788.8105 L116.4531,789.748 L113.0625,789.748 L113.0625,788.8105 L113.5938,788.8105 Q113.8125,788.8105 113.8281,788.7637 Q113.8594,788.7012 113.8594,788.623 Q113.8594,788.4043 113.8125,788.2168 L113.1719,785.498 Z M108.6094,789.3418 L108.6094,789.3418 Z M109.2813,789.3418 L109.2813,789.3418 Z M114,789.3418 L114,789.3418 Z M115.125,789.3418 L115.125,789.3418 Z M111.9375,779.4043 L112,779.4043 L110.8906,784.5605 L112.9844,784.5605 L111.9375,779.4043 Z " fill="#000000"/><text fill="#000000" font-family="sans-serif" font-size="14" font-style="italic" lengthAdjust="spacing" textLength="138" x="133.25" y="790.8105">ServerSocketChannel</text><line style="stroke:#181818;stroke-width:0.5;" x1="23" x2="349" y1="801.0137" y2="801.0137"/><ellipse cx="33" cy="815.8242" fill="#84BE84" rx="3" ry="3" style="stroke:#038048;stroke-width:1.0;"/><text fill="#000000" font-family="sans-serif" font-size="14" lengthAdjust="spacing" text-decoration="underline" textLength="188" x="42" y="820.1211">open(): ServerSocketChannel</text><ellipse cx="33" cy="834.4453" fill="#84BE84" rx="3" ry="3" style="stroke:#038048;stroke-width:1.0;"/><text fill="#000000" font-family="sans-serif" font-size="14" font-style="italic" lengthAdjust="spacing" textLength="157" x="42" y="838.7422">accept(): SocketChannel</text><ellipse cx="33" cy="853.0664" fill="#84BE84" rx="3" ry="3" style="stroke:#038048;stroke-width:1.0;"/><text fill="#000000" font-family="sans-serif" font-size="14" font-style="italic" lengthAdjust="spacing" textLength="302" x="42" y="857.3633">bind(SocketAddress, int): ServerSocketChannel</text></g><!--class SocketChannel--><g id="elem_SocketChannel"><rect codeLine="27" fill="#F1F1F1" height="77.2422" id="SocketChannel" rx="2.5" ry="2.5" style="stroke:#181818;stroke-width:0.5;" width="241" x="385.5" y="778.5137"/><ellipse cx="453.25" cy="794.5137" fill="#A9DCDF" rx="11" ry="11" style="stroke:#181818;stroke-width:1.0;"/><path d="M453.6719,794.998 L451.1094,794.998 L450.5781,797.2949 Q450.5156,797.623 450.5156,797.7793 Q450.5156,797.998 450.5625,798.1543 Q450.625,798.3105 450.9063,798.3105 L451.375,798.3105 L451.375,799.248 L448.3906,799.248 L448.3906,798.3105 L448.8438,798.3105 Q449.0156,798.3105 449.1406,798.2168 Q449.2656,798.1074 449.3125,797.8105 L451.9531,787.4824 L453.3594,787.0137 L455.9375,797.7793 Q456.0469,798.0918 456.1719,798.2012 Q456.3125,798.3105 456.4844,798.3105 L456.9531,798.3105 L456.9531,799.248 L453.5625,799.248 L453.5625,798.3105 L454.0938,798.3105 Q454.3125,798.3105 454.3281,798.2637 Q454.3594,798.2012 454.3594,798.123 Q454.3594,797.9043 454.3125,797.7168 L453.6719,794.998 Z M449.1094,798.8418 L449.1094,798.8418 Z M449.7813,798.8418 L449.7813,798.8418 Z M454.5,798.8418 L454.5,798.8418 Z M455.625,798.8418 L455.625,798.8418 Z M452.4375,788.9043 L452.5,788.9043 L451.3906,794.0605 L453.4844,794.0605 L452.4375,788.9043 Z " fill="#000000"/><text fill="#000000" font-family="sans-serif" font-size="14" font-style="italic" lengthAdjust="spacing" textLength="97" x="473.75" y="800.3105">SocketChannel</text><line style="stroke:#181818;stroke-width:0.5;" x1="386.5" x2="625.5" y1="810.5137" y2="810.5137"/><ellipse cx="396.5" cy="825.3242" fill="#84BE84" rx="3" ry="3" style="stroke:#038048;stroke-width:1.0;"/><text fill="#000000" font-family="sans-serif" font-size="14" lengthAdjust="spacing" text-decoration="underline" textLength="146" x="405.5" y="829.6211">open(): SocketChannel</text><ellipse cx="396.5" cy="843.9453" fill="#84BE84" rx="3" ry="3" style="stroke:#038048;stroke-width:1.0;"/><text fill="#000000" font-family="sans-serif" font-size="14" font-style="italic" lengthAdjust="spacing" textLength="215" x="405.5" y="848.2422">connect(SocketAddress): boolean</text></g><!--class AbstractSelectableChannel--><g id="elem_AbstractSelectableChannel"><rect codeLine="19" fill="#F1F1F1" height="58.6211" id="AbstractSelectableChannel" rx="2.5" ry="2.5" style="stroke:#181818;stroke-width:0.5;" width="326" x="277" y="650.0137"/><ellipse cx="350.25" cy="666.0137" fill="#A9DCDF" rx="11" ry="11" style="stroke:#181818;stroke-width:1.0;"/><path d="M350.6719,666.498 L348.1094,666.498 L347.5781,668.7949 Q347.5156,669.123 347.5156,669.2793 Q347.5156,669.498 347.5625,669.6543 Q347.625,669.8105 347.9063,669.8105 L348.375,669.8105 L348.375,670.748 L345.3906,670.748 L345.3906,669.8105 L345.8438,669.8105 Q346.0156,669.8105 346.1406,669.7168 Q346.2656,669.6074 346.3125,669.3105 L348.9531,658.9824 L350.3594,658.5137 L352.9375,669.2793 Q353.0469,669.5918 353.1719,669.7012 Q353.3125,669.8105 353.4844,669.8105 L353.9531,669.8105 L353.9531,670.748 L350.5625,670.748 L350.5625,669.8105 L351.0938,669.8105 Q351.3125,669.8105 351.3281,669.7637 Q351.3594,669.7012 351.3594,669.623 Q351.3594,669.4043 351.3125,669.2168 L350.6719,666.498 Z M346.1094,670.3418 L346.1094,670.3418 Z M346.7813,670.3418 L346.7813,670.3418 Z M351.5,670.3418 L351.5,670.3418 Z M352.625,670.3418 L352.625,670.3418 Z M349.4375,660.4043 L349.5,660.4043 L348.3906,665.5605 L350.4844,665.5605 L349.4375,660.4043 Z " fill="#000000"/><text fill="#000000" font-family="sans-serif" font-size="14" font-style="italic" lengthAdjust="spacing" textLength="171" x="370.75" y="671.8105">AbstractSelectableChannel</text><line style="stroke:#181818;stroke-width:0.5;" x1="278" x2="602" y1="682.0137" y2="682.0137"/><ellipse cx="288" cy="696.8242" fill="#84BE84" rx="3" ry="3" style="stroke:#038048;stroke-width:1.0;"/><text fill="#000000" font-family="sans-serif" font-size="14" lengthAdjust="spacing" textLength="300" x="297" y="701.1211">configureBlocking(boolean): SelectableChannel</text></g><!--reverse link Channel to AbstractChannel--><g id="link_Channel_AbstractChannel"><path codeLine="33" d="M1313.1971,85.2664 C1283.4171,105.6964 1242.89,133.5037 1191.62,168.6837 " fill="none" id="Channel-backto-AbstractChannel" style="stroke:#181818;stroke-width:1.0;stroke-dasharray:7.0,7.0;"/><polygon fill="none" points="1328.04,75.0837,1309.8028,80.3187,1316.5913,90.214,1328.04,75.0837" style="stroke:#181818;stroke-width:1.0;"/></g><!--reverse link AbstractNioChannel to AbstractNioByteChannel--><g id="link_AbstractNioChannel_AbstractNioByteChannel"><path codeLine="34" d="M997.1129,604.7948 C1017.5529,632.7548 1027.65,646.5737 1039.91,663.3437 " fill="none" id="AbstractNioChannel-backto-AbstractNioByteChannel" style="stroke:#181818;stroke-width:1.0;"/><polygon fill="none" points="986.49,590.2637,992.2692,608.3358,1001.9566,601.2538,986.49,590.2637" style="stroke:#181818;stroke-width:1.0;"/></g><!--reverse link AbstractChannel to AbstractNioChannel--><g id="link_AbstractChannel_AbstractNioChannel"><path codeLine="35" d="M1000.4389,378.7175 C988.6889,398.7375 985.76,403.7237 974.61,422.7137 " fill="none" id="AbstractChannel-backto-AbstractNioChannel" style="stroke:#181818;stroke-width:1.0;"/><polygon fill="none" points="1009.55,363.1937,995.2643,375.6804,1005.6135,381.7545,1009.55,363.1937" style="stroke:#181818;stroke-width:1.0;"/></g><!--reverse link AbstractNioChannel to AbstractNioMessageChannel--><g id="link_AbstractNioChannel_AbstractNioMessageChannel"><path codeLine="36" d="M862.4893,605.3616 C844.3393,633.3216 835.73,646.5737 824.85,663.3437 " fill="none" id="AbstractNioChannel-backto-AbstractNioMessageChannel" style="stroke:#181818;stroke-width:1.0;"/><polygon fill="none" points="872.29,590.2637,857.4567,602.0947,867.522,608.6285,872.29,590.2637" style="stroke:#181818;stroke-width:1.0;"/></g><!--reverse link Channel to DuplexChannel--><g id="link_Channel_DuplexChannel"><path codeLine="37" d="M1388.1666,85.6607 C1406.8866,99.0607 1417.47,109.8637 1431,135.0137 C1497.7,259.0237 1495.27,437.5337 1492.88,490.2837 " fill="none" id="Channel-backto-DuplexChannel" style="stroke:#181818;stroke-width:1.0;"/><polygon fill="none" points="1373.53,75.1837,1384.6743,90.5396,1391.659,80.7819,1373.53,75.1837" style="stroke:#181818;stroke-width:1.0;"/></g><!--reverse link AbstractNioMessageChannel to NioServerSocketChannel--><g id="link_AbstractNioMessageChannel_NioServerSocketChannel"><path codeLine="38" d="M862.5642,703.0647 C887.6842,714.6547 907.81,722.8337 941,733.0137 C1034.34,761.6337 1142.74,783.1237 1224.48,797.0537 " fill="none" id="AbstractNioMessageChannel-backto-NioServerSocketChannel" style="stroke:#181818;stroke-width:1.0;"/><polygon fill="none" points="846.22,695.5237,860.0506,708.5127,865.0779,697.6166,846.22,695.5237" style="stroke:#181818;stroke-width:1.0;"/></g><!--reverse link ServerSocketChannel to NioServerSocketChannel--><g id="link_ServerSocketChannel_NioServerSocketChannel"><path codeLine="39" d="M1350,713.5337 C1350,735.6537 1350,759.3937 1350,787.4537 " fill="none" id="ServerSocketChannel-backto-NioServerSocketChannel" style="stroke:#181818;stroke-width:1.0;stroke-dasharray:7.0,7.0;"/><polygon fill="none" points="1350,695.5337,1344,713.5337,1356,713.5337,1350,695.5337" style="stroke:#181818;stroke-width:1.0;"/></g><!--reverse link AbstractNioByteChannel to NioSocketChannel--><g id="link_AbstractNioByteChannel_NioSocketChannel"><path codeLine="40" d="M1096.6929,703.3514 C1123.0529,715.9814 1146.92,725.3637 1184,733.0137 C1251.28,746.8837 1427.1,723.1037 1493,742.5137 C1524.31,751.7337 1555.77,770.9937 1578.9,787.4737 " fill="none" id="AbstractNioByteChannel-backto-NioSocketChannel" style="stroke:#181818;stroke-width:1.0;"/><polygon fill="none" points="1080.46,695.5737,1094.1003,708.7624,1099.2855,697.9405,1080.46,695.5737" style="stroke:#181818;stroke-width:1.0;"/></g><!--reverse link SocketChannel to NioSocketChannel--><g id="link_SocketChannel_NioSocketChannel"><path codeLine="41" d="M1584.5263,712.7971 C1591.0563,734.9171 1598.29,759.3937 1606.57,787.4537 " fill="none" id="SocketChannel-backto-NioSocketChannel" style="stroke:#181818;stroke-width:1.0;stroke-dasharray:7.0,7.0;"/><polygon fill="none" points="1579.43,695.5337,1578.7718,714.4959,1590.2808,711.0984,1579.43,695.5337" style="stroke:#181818;stroke-width:1.0;"/></g><!--reverse link Channel to ServerChannel--><g id="link_Channel_ServerChannel"><path codeLine="42" d="M1350,93.0837 C1350,128.2837 1350,197.6037 1350,232.8737 " fill="none" id="Channel-backto-ServerChannel" style="stroke:#181818;stroke-width:1.0;"/><polygon fill="none" points="1350,75.0837,1344,93.0837,1356,93.0837,1350,75.0837" style="stroke:#181818;stroke-width:1.0;"/></g><!--reverse link ServerChannel to ServerSocketChannel--><g id="link_ServerChannel_ServerSocketChannel"><path codeLine="43" d="M1350,283.2637 C1350,349.9037 1350,597.1637 1350,663.4437 " fill="none" id="ServerChannel-backto-ServerSocketChannel" style="stroke:#181818;stroke-width:1.0;"/><polygon fill="none" points="1350,265.2637,1344,283.2637,1356,283.2637,1350,265.2637" style="stroke:#181818;stroke-width:1.0;"/></g><!--reverse link DuplexChannel to SocketChannel--><g id="link_DuplexChannel_SocketChannel"><path codeLine="44" d="M1507.2311,538.8863 C1522.9411,571.2463 1551.73,630.5737 1567.53,663.1237 " fill="none" id="DuplexChannel-backto-SocketChannel" style="stroke:#181818;stroke-width:1.0;"/><polygon fill="none" points="1499.37,522.6937,1501.8336,541.5067,1512.6287,536.266,1499.37,522.6937" style="stroke:#181818;stroke-width:1.0;"/></g><!--reverse link SelectableChannel to AbstractSelectableChannel--><g id="link_SelectableChannel_AbstractSelectableChannel"><path codeLine="47" d="M453.831,554.0234 C450.321,585.5934 446.7,618.1937 443.19,649.8037 " fill="none" id="SelectableChannel-backto-AbstractSelectableChannel" style="stroke:#181818;stroke-width:1.0;"/><polygon fill="none" points="455.82,536.1337,447.8677,553.3604,459.7942,554.6864,455.82,536.1337" style="stroke:#181818;stroke-width:1.0;"/></g><!--reverse link AbstractSelectableChannel to ServerSocketChannel--><g id="link_AbstractSelectableChannel_ServerSocketChannel"><path codeLine="48" d="M370.5578,717.5545 C338.0278,734.9045 311.59,749.0137 274.22,768.9537 " fill="none" id="AbstractSelectableChannel-backto-ServerSocketChannel" style="stroke:#181818;stroke-width:1.0;"/><polygon fill="none" points="386.44,709.0837,367.7342,712.2604,373.3814,722.8486,386.44,709.0837" style="stroke:#181818;stroke-width:1.0;"/></g><!--reverse link AbstractSelectableChannel to SocketChannel--><g id="link_AbstractSelectableChannel_SocketChannel"><path codeLine="49" d="M461.8821,725.4361 C471.6821,745.5561 476.99,756.4537 487.63,778.3137 " fill="none" id="AbstractSelectableChannel-backto-SocketChannel" style="stroke:#181818;stroke-width:1.0;"/><polygon fill="none" points="454,709.2537,456.488,728.0635,467.2763,722.8088,454,709.2537" style="stroke:#181818;stroke-width:1.0;"/></g><!--reverse link SelectableChannel to AbstractNioChannel--><g id="link_SelectableChannel_AbstractNioChannel"><path codeLine="51" d="M626.1533,483.3669 C686.7033,476.4369 739.64,472.5137 804,472.5137 " fill="none" id="SelectableChannel-backto-AbstractNioChannel" style="stroke:#181818;stroke-width:1.0;"/><polygon fill="none" points="608.27,485.4137,626.8355,489.328,625.471,477.4058,608.27,485.4137" style="stroke:#181818;stroke-width:1.0;"/></g><!--SRC=[bLJ1RkCW4Btp5VJKhDgGUmuhjRkNgcgxKhvWZ2SEBGO4EDeestzVP8Sgs2J5kNdothoPnypS60jD2xHp-AGysXPh0Hx_0F-01XtTWdH8o8rGN7OrKiPMV0TAeLnLu0HVFLJEM-3-rn1bfcjb0VnLwCU3n_ci-OmNT2xqKaWiXFtkZCI_XU1Gn0Rj7kr6ym_qCrXpy8F4BF2y_5Cm8N3ocN89pj5ts0DJGhCJrR4DIkGUAXaVW1u93RzZP7xIEukDS67u5WDOstigbB-dRzLx-FonfaDSQFMC1_BvlQWpWiK9k5J07TTgAvhEugCCdGdLB2gj9OBw4ZmZbQXcF8tDEWzUyD2gDgWMlS04Ex45E4VZU_HLN2LKlHWW3tLjmxZt_brGAMcah8MhHGLtLR0mhIkmJXw7CWWPtGxAEiF-_QGnPVvMq6LdbW4rlGba6Xg3CyZqF5p9dgnynCK_yokUoPRANUATd0YFej3xGtmQvdfKRjB8-5najCzSdCA_aqp4abipzc96rP6Qv2D5DKHgyYndGpNT-o-jyMwNhVB8pw8qyn9a1dYzvZkwbBZr-TB9xKw4OzrYMw5rfF-8UZ4uGCRBbb2mDVuGG_y1]--></g></svg>