<?xml version="1.0" encoding="us-ascii" standalone="no"?><svg xmlns="http://www.w3.org/2000/svg" xmlns:xlink="http://www.w3.org/1999/xlink" contentStyleType="text/css" height="514px" preserveAspectRatio="none" style="width:1067px;height:514px;background:#FFFFFF;" version="1.1" viewBox="0 0 1067 514" width="1067px" zoomAndPan="magnify"><defs/><g><!--cluster channel--><g id="cluster_channel"><path d="M8.5,6.0137 L121.5,6.0137 A3.75,3.75 0 0 1 124,8.5137 L131,30.6348 L1057.5,30.6348 A2.5,2.5 0 0 1 1060,33.1348 L1060,504.5137 A2.5,2.5 0 0 1 1057.5,507.0137 L8.5,507.0137 A2.5,2.5 0 0 1 6,504.5137 L6,8.5137 A2.5,2.5 0 0 1 8.5,6.0137 " fill="none" style="stroke:#000000;stroke-width:1.5;"/><line style="stroke:#000000;stroke-width:1.5;" x1="6" x2="131" y1="30.6348" y2="30.6348"/><text fill="#000000" font-family="sans-serif" font-size="14" font-weight="bold" lengthAdjust="spacing" textLength="112" x="10" y="23.1211">io.netty.channel</text></g><!--cluster socket--><g id="cluster_socket"><path d="M212.5,98.0137 L260.5,98.0137 A3.75,3.75 0 0 1 263,100.5137 L270,122.6348 L1033.5,122.6348 A2.5,2.5 0 0 1 1036,125.1348 L1036,480.5137 A2.5,2.5 0 0 1 1033.5,483.0137 L212.5,483.0137 A2.5,2.5 0 0 1 210,480.5137 L210,100.5137 A2.5,2.5 0 0 1 212.5,98.0137 " fill="none" style="stroke:#000000;stroke-width:1.5;"/><line style="stroke:#000000;stroke-width:1.5;" x1="210" x2="270" y1="122.6348" y2="122.6348"/><text fill="#000000" font-family="sans-serif" font-size="14" font-weight="bold" lengthAdjust="spacing" textLength="47" x="214" y="115.1211">socket</text></g><!--cluster nio--><g id="cluster_nio"><path d="M236.5,374.0137 L259.5,374.0137 A3.75,3.75 0 0 1 262,376.5137 L269,398.6348 L1009.5,398.6348 A2.5,2.5 0 0 1 1012,401.1348 L1012,456.5137 A2.5,2.5 0 0 1 1009.5,459.0137 L236.5,459.0137 A2.5,2.5 0 0 1 234,456.5137 L234,376.5137 A2.5,2.5 0 0 1 236.5,374.0137 " fill="none" style="stroke:#000000;stroke-width:1.5;"/><line style="stroke:#000000;stroke-width:1.5;" x1="234" x2="269" y1="398.6348" y2="398.6348"/><text fill="#000000" font-family="sans-serif" font-size="14" font-weight="bold" lengthAdjust="spacing" textLength="22" x="238" y="391.1211">nio</text></g><!--class ChannelConfig--><g id="elem_ChannelConfig"><rect codeLine="1" fill="#F1F1F1" height="32" id="ChannelConfig" rx="2.5" ry="2.5" style="stroke:#181818;stroke-width:0.5;" width="126" x="270" y="43.0137"/><ellipse cx="285" cy="59.0137" fill="#B4A7E5" rx="11" ry="11" style="stroke:#181818;stroke-width:1.0;"/><path d="M281.5938,53.7949 L281.5938,52.8574 L287.4375,52.8574 L287.4375,53.7949 L285.6406,53.7949 Q285.4688,53.7949 285.3906,53.8574 Q285.3125,53.9199 285.3125,54.0605 L285.3125,63.5449 Q285.3125,63.6855 285.3906,63.748 Q285.4688,63.8105 285.6406,63.8105 L287.4375,63.8105 L287.4375,64.748 L281.5938,64.748 L281.5938,63.8105 L283.3906,63.8105 Q283.6094,63.8105 283.6563,63.7637 Q283.7188,63.7012 283.7188,63.5449 L283.7188,54.0605 Q283.7188,53.9043 283.6563,53.8574 Q283.6094,53.7949 283.3906,53.7949 L281.5938,53.7949 Z " fill="#000000"/><text fill="#000000" font-family="sans-serif" font-size="14" font-style="italic" lengthAdjust="spacing" textLength="94" x="299" y="64.8105">ChannelConfig</text></g><!--class DefaultChannelConfig--><g id="elem_DefaultChannelConfig"><rect codeLine="1" fill="#F1F1F1" height="32" id="DefaultChannelConfig" rx="2.5" ry="2.5" style="stroke:#181818;stroke-width:0.5;" width="171" x="22.5" y="227.0137"/><ellipse cx="37.5" cy="243.0137" fill="#ADD1B2" rx="11" ry="11" style="stroke:#181818;stroke-width:1.0;"/><path d="M36.8438,248.873 Q34.8594,248.873 33.6875,247.4043 Q32.5313,245.9199 32.5313,242.8418 Q32.5313,240.2324 33.75,238.4824 Q34.9844,236.7324 37.1094,236.7324 Q37.6094,236.7324 38.1406,236.873 Q38.5781,237.0605 38.8438,237.0605 Q39.0625,237.0605 39.1563,237.0137 Q39.2656,236.9668 39.7188,236.373 L40.4844,240.1074 L39.5938,240.373 Q39.1406,238.9199 38.5313,238.3262 Q37.9375,237.7168 36.9844,237.7168 Q35.7656,237.7168 35.0469,239.1543 Q34.3281,240.5762 34.3281,242.7637 Q34.3281,245.1699 34.9375,246.4668 Q35.5625,247.748 36.9219,247.748 Q37.875,247.748 38.5625,247.0605 Q39.25,246.3574 39.5781,244.8574 L40.4844,245.2637 Q40.0781,246.9668 39.1094,247.9199 Q38.1563,248.873 36.8438,248.873 Z " fill="#000000"/><text fill="#000000" font-family="sans-serif" font-size="14" lengthAdjust="spacing" textLength="139" x="51.5" y="248.8105">DefaultChannelConfig</text></g><!--class DefaultServerSocketChannelConfig--><g id="elem_DefaultServerSocketChannelConfig"><rect codeLine="1" fill="#F1F1F1" height="32" id="DefaultServerSocketChannelConfig" rx="2.5" ry="2.5" style="stroke:#181818;stroke-width:0.5;" width="256" x="475" y="319.0137"/><ellipse cx="490" cy="335.0137" fill="#ADD1B2" rx="11" ry="11" style="stroke:#181818;stroke-width:1.0;"/><path d="M489.3438,340.873 Q487.3594,340.873 486.1875,339.4043 Q485.0313,337.9199 485.0313,334.8418 Q485.0313,332.2324 486.25,330.4824 Q487.4844,328.7324 489.6094,328.7324 Q490.1094,328.7324 490.6406,328.873 Q491.0781,329.0605 491.3438,329.0605 Q491.5625,329.0605 491.6563,329.0137 Q491.7656,328.9668 492.2188,328.373 L492.9844,332.1074 L492.0938,332.373 Q491.6406,330.9199 491.0313,330.3262 Q490.4375,329.7168 489.4844,329.7168 Q488.2656,329.7168 487.5469,331.1543 Q486.8281,332.5762 486.8281,334.7637 Q486.8281,337.1699 487.4375,338.4668 Q488.0625,339.748 489.4219,339.748 Q490.375,339.748 491.0625,339.0605 Q491.75,338.3574 492.0781,336.8574 L492.9844,337.2637 Q492.5781,338.9668 491.6094,339.9199 Q490.6563,340.873 489.3438,340.873 Z " fill="#000000"/><text fill="#000000" font-family="sans-serif" font-size="14" lengthAdjust="spacing" textLength="224" x="504" y="340.8105">DefaultServerSocketChannelConfig</text></g><!--class DefaultSocketChannelConfig--><g id="elem_DefaultSocketChannelConfig"><rect codeLine="1" fill="#F1F1F1" height="32" id="DefaultSocketChannelConfig" rx="2.5" ry="2.5" style="stroke:#181818;stroke-width:0.5;" width="214" x="226" y="319.0137"/><ellipse cx="241" cy="335.0137" fill="#ADD1B2" rx="11" ry="11" style="stroke:#181818;stroke-width:1.0;"/><path d="M240.3438,340.873 Q238.3594,340.873 237.1875,339.4043 Q236.0313,337.9199 236.0313,334.8418 Q236.0313,332.2324 237.25,330.4824 Q238.4844,328.7324 240.6094,328.7324 Q241.1094,328.7324 241.6406,328.873 Q242.0781,329.0605 242.3438,329.0605 Q242.5625,329.0605 242.6563,329.0137 Q242.7656,328.9668 243.2188,328.373 L243.9844,332.1074 L243.0938,332.373 Q242.6406,330.9199 242.0313,330.3262 Q241.4375,329.7168 240.4844,329.7168 Q239.2656,329.7168 238.5469,331.1543 Q237.8281,332.5762 237.8281,334.7637 Q237.8281,337.1699 238.4375,338.4668 Q239.0625,339.748 240.4219,339.748 Q241.375,339.748 242.0625,339.0605 Q242.75,338.3574 243.0781,336.8574 L243.9844,337.2637 Q243.5781,338.9668 242.6094,339.9199 Q241.6563,340.873 240.3438,340.873 Z " fill="#000000"/><text fill="#000000" font-family="sans-serif" font-size="14" lengthAdjust="spacing" textLength="182" x="255" y="340.8105">DefaultSocketChannelConfig</text></g><!--class DuplexChannelConfig--><g id="elem_DuplexChannelConfig"><rect codeLine="1" fill="#F1F1F1" height="32" id="DuplexChannelConfig" rx="2.5" ry="2.5" style="stroke:#181818;stroke-width:0.5;" width="169" x="248.5" y="135.0137"/><ellipse cx="263.5" cy="151.0137" fill="#B4A7E5" rx="11" ry="11" style="stroke:#181818;stroke-width:1.0;"/><path d="M260.0938,145.7949 L260.0938,144.8574 L265.9375,144.8574 L265.9375,145.7949 L264.1406,145.7949 Q263.9688,145.7949 263.8906,145.8574 Q263.8125,145.9199 263.8125,146.0605 L263.8125,155.5449 Q263.8125,155.6855 263.8906,155.748 Q263.9688,155.8105 264.1406,155.8105 L265.9375,155.8105 L265.9375,156.748 L260.0938,156.748 L260.0938,155.8105 L261.8906,155.8105 Q262.1094,155.8105 262.1563,155.7637 Q262.2188,155.7012 262.2188,155.5449 L262.2188,146.0605 Q262.2188,145.9043 262.1563,145.8574 Q262.1094,145.7949 261.8906,145.7949 L260.0938,145.7949 Z " fill="#000000"/><text fill="#000000" font-family="sans-serif" font-size="14" font-style="italic" lengthAdjust="spacing" textLength="137" x="277.5" y="156.8105">DuplexChannelConfig</text></g><!--class ServerSocketChannelConfig--><g id="elem_ServerSocketChannelConfig"><rect codeLine="1" fill="#F1F1F1" height="32" id="ServerSocketChannelConfig" rx="2.5" ry="2.5" style="stroke:#181818;stroke-width:0.5;" width="211" x="475.5" y="227.0137"/><ellipse cx="490.5" cy="243.0137" fill="#B4A7E5" rx="11" ry="11" style="stroke:#181818;stroke-width:1.0;"/><path d="M487.0938,237.7949 L487.0938,236.8574 L492.9375,236.8574 L492.9375,237.7949 L491.1406,237.7949 Q490.9688,237.7949 490.8906,237.8574 Q490.8125,237.9199 490.8125,238.0605 L490.8125,247.5449 Q490.8125,247.6855 490.8906,247.748 Q490.9688,247.8105 491.1406,247.8105 L492.9375,247.8105 L492.9375,248.748 L487.0938,248.748 L487.0938,247.8105 L488.8906,247.8105 Q489.1094,247.8105 489.1563,247.7637 Q489.2188,247.7012 489.2188,247.5449 L489.2188,238.0605 Q489.2188,237.9043 489.1563,237.8574 Q489.1094,237.7949 488.8906,237.7949 L487.0938,237.7949 Z " fill="#000000"/><text fill="#000000" font-family="sans-serif" font-size="14" font-style="italic" lengthAdjust="spacing" textLength="179" x="504.5" y="248.8105">ServerSocketChannelConfig</text></g><!--class SocketChannelConfig--><g id="elem_SocketChannelConfig"><rect codeLine="1" fill="#F1F1F1" height="32" id="SocketChannelConfig" rx="2.5" ry="2.5" style="stroke:#181818;stroke-width:0.5;" width="170" x="248" y="227.0137"/><ellipse cx="263" cy="243.0137" fill="#B4A7E5" rx="11" ry="11" style="stroke:#181818;stroke-width:1.0;"/><path d="M259.5938,237.7949 L259.5938,236.8574 L265.4375,236.8574 L265.4375,237.7949 L263.6406,237.7949 Q263.4688,237.7949 263.3906,237.8574 Q263.3125,237.9199 263.3125,238.0605 L263.3125,247.5449 Q263.3125,247.6855 263.3906,247.748 Q263.4688,247.8105 263.6406,247.8105 L265.4375,247.8105 L265.4375,248.748 L259.5938,248.748 L259.5938,247.8105 L261.3906,247.8105 Q261.6094,247.8105 261.6563,247.7637 Q261.7188,247.7012 261.7188,247.5449 L261.7188,238.0605 Q261.7188,237.9043 261.6563,237.8574 Q261.6094,237.7949 261.3906,237.7949 L259.5938,237.7949 Z " fill="#000000"/><text fill="#000000" font-family="sans-serif" font-size="14" font-style="italic" lengthAdjust="spacing" textLength="138" x="277" y="248.8105">SocketChannelConfig</text></g><!--class NioServerSocketChannel$NioServerSocketChannelConfig--><g id="elem_NioServerSocketChannel$NioServerSocketChannelConfig"><rect codeLine="1" fill="#F1F1F1" height="32" id="NioServerSocketChannel$NioServerSocketChannelConfig" rx="2.5" ry="2.5" style="stroke:#181818;stroke-width:0.5;" width="397" x="598.5" y="411.0137"/><ellipse cx="613.5" cy="427.0137" fill="#ADD1B2" rx="11" ry="11" style="stroke:#181818;stroke-width:1.0;"/><path d="M612.8438,432.873 Q610.8594,432.873 609.6875,431.4043 Q608.5313,429.9199 608.5313,426.8418 Q608.5313,424.2324 609.75,422.4824 Q610.9844,420.7324 613.1094,420.7324 Q613.6094,420.7324 614.1406,420.873 Q614.5781,421.0605 614.8438,421.0605 Q615.0625,421.0605 615.1563,421.0137 Q615.2656,420.9668 615.7188,420.373 L616.4844,424.1074 L615.5938,424.373 Q615.1406,422.9199 614.5313,422.3262 Q613.9375,421.7168 612.9844,421.7168 Q611.7656,421.7168 611.0469,423.1543 Q610.3281,424.5762 610.3281,426.7637 Q610.3281,429.1699 610.9375,430.4668 Q611.5625,431.748 612.9219,431.748 Q613.875,431.748 614.5625,431.0605 Q615.25,430.3574 615.5781,428.8574 L616.4844,429.2637 Q616.0781,430.9668 615.1094,431.9199 Q614.1563,432.873 612.8438,432.873 Z " fill="#000000"/><text fill="#000000" font-family="sans-serif" font-size="14" lengthAdjust="spacing" textLength="365" x="627.5" y="432.8105">NioServerSocketChannel$NioServerSocketChannelConfig</text></g><!--class NioSocketChannel$NioSocketChannelConfig--><g id="elem_NioSocketChannel$NioSocketChannelConfig"><rect codeLine="1" fill="#F1F1F1" height="32" id="NioSocketChannel$NioSocketChannelConfig" rx="2.5" ry="2.5" style="stroke:#181818;stroke-width:0.5;" width="313" x="250.5" y="411.0137"/><ellipse cx="265.5" cy="427.0137" fill="#ADD1B2" rx="11" ry="11" style="stroke:#181818;stroke-width:1.0;"/><path d="M264.8438,432.873 Q262.8594,432.873 261.6875,431.4043 Q260.5313,429.9199 260.5313,426.8418 Q260.5313,424.2324 261.75,422.4824 Q262.9844,420.7324 265.1094,420.7324 Q265.6094,420.7324 266.1406,420.873 Q266.5781,421.0605 266.8438,421.0605 Q267.0625,421.0605 267.1563,421.0137 Q267.2656,420.9668 267.7188,420.373 L268.4844,424.1074 L267.5938,424.373 Q267.1406,422.9199 266.5313,422.3262 Q265.9375,421.7168 264.9844,421.7168 Q263.7656,421.7168 263.0469,423.1543 Q262.3281,424.5762 262.3281,426.7637 Q262.3281,429.1699 262.9375,430.4668 Q263.5625,431.748 264.9219,431.748 Q265.875,431.748 266.5625,431.0605 Q267.25,430.3574 267.5781,428.8574 L268.4844,429.2637 Q268.0781,430.9668 267.1094,431.9199 Q266.1563,432.873 264.8438,432.873 Z " fill="#000000"/><text fill="#000000" font-family="sans-serif" font-size="14" lengthAdjust="spacing" textLength="281" x="279.5" y="432.8105">NioSocketChannel$NioSocketChannelConfig</text></g><!--reverse link ChannelConfig to DefaultChannelConfig--><g id="link_ChannelConfig_DefaultChannelConfig"><path codeLine="13" d="M252.2166,69.944 C231.7566,74.254 227.48,77.8037 210,90.0137 C158.93,125.6737 126.27,195.8237 113.77,226.7537 " fill="none" id="ChannelConfig-backto-DefaultChannelConfig" style="stroke:#181818;stroke-width:1.0;stroke-dasharray:7.0,7.0;"/><polygon fill="none" points="269.83,66.2337,250.9798,64.0729,253.4533,75.8152,269.83,66.2337" style="stroke:#181818;stroke-width:1.0;"/></g><!--reverse link DefaultChannelConfig to DefaultServerSocketChannelConfig--><g id="link_DefaultChannelConfig_DefaultServerSocketChannelConfig"><path codeLine="14" d="M208.2796,262.2438 C299.7396,278.8738 428.64,302.3137 520.19,318.9537 " fill="none" id="DefaultChannelConfig-backto-DefaultServerSocketChannelConfig" style="stroke:#181818;stroke-width:1.0;"/><polygon fill="none" points="190.57,259.0237,207.2063,268.147,209.353,256.3406,190.57,259.0237" style="stroke:#181818;stroke-width:1.0;"/></g><!--reverse link ServerSocketChannelConfig to DefaultServerSocketChannelConfig--><g id="link_ServerSocketChannelConfig_DefaultServerSocketChannelConfig"><path codeLine="15" d="M589.0042,276.7689 C593.0742,293.4189 595.27,302.4137 599.32,318.9737 " fill="none" id="ServerSocketChannelConfig-backto-DefaultServerSocketChannelConfig" style="stroke:#181818;stroke-width:1.0;stroke-dasharray:7.0,7.0;"/><polygon fill="none" points="584.73,259.2837,583.1758,278.1936,594.8325,275.3441,584.73,259.2837" style="stroke:#181818;stroke-width:1.0;"/></g><!--reverse link DefaultChannelConfig to DefaultSocketChannelConfig--><g id="link_DefaultChannelConfig_DefaultSocketChannelConfig"><path codeLine="16" d="M162.3715,265.7615 C203.9015,282.3815 253.63,302.2637 295.22,318.9037 " fill="none" id="DefaultChannelConfig-backto-DefaultSocketChannelConfig" style="stroke:#181818;stroke-width:1.0;"/><polygon fill="none" points="145.66,259.0737,160.1422,271.332,164.6007,260.191,145.66,259.0737" style="stroke:#181818;stroke-width:1.0;"/></g><!--reverse link SocketChannelConfig to DefaultSocketChannelConfig--><g id="link_SocketChannelConfig_DefaultSocketChannelConfig"><path codeLine="17" d="M333,277.2837 C333,293.9337 333,302.4137 333,318.9737 " fill="none" id="SocketChannelConfig-backto-DefaultSocketChannelConfig" style="stroke:#181818;stroke-width:1.0;stroke-dasharray:7.0,7.0;"/><polygon fill="none" points="333,259.2837,327,277.2837,339,277.2837,333,259.2837" style="stroke:#181818;stroke-width:1.0;"/></g><!--reverse link ChannelConfig to DuplexChannelConfig--><g id="link_ChannelConfig_DuplexChannelConfig"><path codeLine="18" d="M333,93.2837 C333,109.9337 333,118.4137 333,134.9737 " fill="none" id="ChannelConfig-backto-DuplexChannelConfig" style="stroke:#181818;stroke-width:1.0;"/><polygon fill="none" points="333,75.2837,327,93.2837,339,93.2837,333,75.2837" style="stroke:#181818;stroke-width:1.0;"/></g><!--reverse link DefaultServerSocketChannelConfig to NioServerSocketChannel$NioServerSocketChannelConfig--><g id="link_DefaultServerSocketChannelConfig_NioServerSocketChannel$NioServerSocketChannelConfig"><path codeLine="19" d="M651.7972,358.6514 C687.6072,375.2714 728.57,394.2637 764.42,410.9037 " fill="none" id="DefaultServerSocketChannelConfig-backto-NioServerSocketChannel$NioServerSocketChannelConfig" style="stroke:#181818;stroke-width:1.0;"/><polygon fill="none" points="635.47,351.0737,649.2713,364.0938,654.3231,353.209,635.47,351.0737" style="stroke:#181818;stroke-width:1.0;"/></g><!--reverse link DefaultSocketChannelConfig to NioSocketChannel$NioSocketChannelConfig--><g id="link_DefaultSocketChannelConfig_NioSocketChannel$NioSocketChannelConfig"><path codeLine="20" d="M356.9819,365.1873 C370.6719,381.8373 381.02,394.4137 394.63,410.9737 " fill="none" id="DefaultSocketChannelConfig-backto-NioSocketChannel$NioSocketChannelConfig" style="stroke:#181818;stroke-width:1.0;"/><polygon fill="none" points="345.55,351.2837,352.3473,368.998,361.6165,361.3767,345.55,351.2837" style="stroke:#181818;stroke-width:1.0;"/></g><!--reverse link ChannelConfig to ServerSocketChannelConfig--><g id="link_ChannelConfig_ServerSocketChannelConfig"><path codeLine="21" d="M413.2765,78.4692 C426.6665,82.7192 423.17,82.8237 435,90.0137 C495.99,127.0537 548.77,195.8537 570.47,226.5437 " fill="none" id="ChannelConfig-backto-ServerSocketChannelConfig" style="stroke:#181818;stroke-width:1.0;"/><polygon fill="none" points="396.12,73.0237,411.4614,84.188,415.0917,72.7503,396.12,73.0237" style="stroke:#181818;stroke-width:1.0;"/></g><!--reverse link DuplexChannelConfig to SocketChannelConfig--><g id="link_DuplexChannelConfig_SocketChannelConfig"><path codeLine="22" d="M333,185.2837 C333,201.9337 333,210.4137 333,226.9737 " fill="none" id="DuplexChannelConfig-backto-SocketChannelConfig" style="stroke:#181818;stroke-width:1.0;"/><polygon fill="none" points="333,167.2837,327,185.2837,339,185.2837,333,167.2837" style="stroke:#181818;stroke-width:1.0;"/></g><!--SRC=[dP9D3eCW58Jtd08Jj-8Dkh6RRfecde3YKuc01ALfanw-zc-X0hOi8VFDF7YJQ4CRIR4TuA16C18gJaSuKTRH1WPSKp40GWbNJDWAC24vQwbI87BMgvetUV4-5gyJqLQAa7eFDRLYZ89AC1SmPSywY3I8GQqMSFsFEV8-VjOd78751tePv5eM9bQJ-mxFBj7MXd1cTJPHBiTj-1Ff5I3_VdyA3aIwmjQD-ARCXUuQfA5sBCRrltZPajHTcwMVmsbpbeKy4BB-68HQFfKEf1vlM88yWnaU]--></g></svg>