<?xml version="1.0" encoding="us-ascii" standalone="no"?><svg xmlns="http://www.w3.org/2000/svg" xmlns:xlink="http://www.w3.org/1999/xlink" contentStyleType="text/css" height="531px" preserveAspectRatio="none" style="width:1007px;height:531px;background:#FFFFFF;" version="1.1" viewBox="0 0 1007 531" width="1007px" zoomAndPan="magnify"><defs/><g><!--cluster channel--><g id="cluster_channel"><path d="M8.5,6.0137 L121.5,6.0137 A3.75,3.75 0 0 1 124,8.5137 L131,30.6348 L997.5,30.6348 A2.5,2.5 0 0 1 1000,33.1348 L1000,521.5137 A2.5,2.5 0 0 1 997.5,524.0137 L8.5,524.0137 A2.5,2.5 0 0 1 6,521.5137 L6,8.5137 A2.5,2.5 0 0 1 8.5,6.0137 " fill="none" style="stroke:#000000;stroke-width:1.5;"/><line style="stroke:#000000;stroke-width:1.5;" x1="6" x2="131" y1="30.6348" y2="30.6348"/><text fill="#000000" font-family="sans-serif" font-size="14" font-weight="bold" lengthAdjust="spacing" textLength="112" x="10" y="23.1211">io.netty.channel</text></g><!--cluster nio--><g id="cluster_nio"><path d="M32.5,190.0137 L55.5,190.0137 A3.75,3.75 0 0 1 58,192.5137 L65,214.6348 L496.5,214.6348 A2.5,2.5 0 0 1 499,217.1348 L499,364.5137 A2.5,2.5 0 0 1 496.5,367.0137 L32.5,367.0137 A2.5,2.5 0 0 1 30,364.5137 L30,192.5137 A2.5,2.5 0 0 1 32.5,190.0137 " fill="none" style="stroke:#000000;stroke-width:1.5;"/><line style="stroke:#000000;stroke-width:1.5;" x1="30" x2="65" y1="214.6348" y2="214.6348"/><text fill="#000000" font-family="sans-serif" font-size="14" font-weight="bold" lengthAdjust="spacing" textLength="22" x="34" y="207.1211">nio</text></g><!--cluster socket--><g id="cluster_socket"><path d="M525.5,190.0137 L573.5,190.0137 A3.75,3.75 0 0 1 576,192.5137 L583,214.6348 L973.5,214.6348 A2.5,2.5 0 0 1 976,217.1348 L976,497.5137 A2.5,2.5 0 0 1 973.5,500.0137 L525.5,500.0137 A2.5,2.5 0 0 1 523,497.5137 L523,192.5137 A2.5,2.5 0 0 1 525.5,190.0137 " fill="none" style="stroke:#000000;stroke-width:1.5;"/><line style="stroke:#000000;stroke-width:1.5;" x1="523" x2="583" y1="214.6348" y2="214.6348"/><text fill="#000000" font-family="sans-serif" font-size="14" font-weight="bold" lengthAdjust="spacing" textLength="47" x="527" y="207.1211">socket</text></g><!--cluster nio--><g id="cluster_nio"><path d="M549.5,391.0137 L572.5,391.0137 A3.75,3.75 0 0 1 575,393.5137 L582,415.6348 L949.5,415.6348 A2.5,2.5 0 0 1 952,418.1348 L952,473.5137 A2.5,2.5 0 0 1 949.5,476.0137 L549.5,476.0137 A2.5,2.5 0 0 1 547,473.5137 L547,393.5137 A2.5,2.5 0 0 1 549.5,391.0137 " fill="none" style="stroke:#000000;stroke-width:1.5;"/><line style="stroke:#000000;stroke-width:1.5;" x1="547" x2="582" y1="415.6348" y2="415.6348"/><text fill="#000000" font-family="sans-serif" font-size="14" font-weight="bold" lengthAdjust="spacing" textLength="22" x="551" y="408.1211">nio</text></g><!--class AbstractChannel--><g id="elem_AbstractChannel"><rect codeLine="1" fill="#F1F1F1" height="32" id="AbstractChannel" rx="2.5" ry="2.5" style="stroke:#181818;stroke-width:0.5;" width="137" x="372.5" y="135.0137"/><ellipse cx="387.5" cy="151.0137" fill="#A9DCDF" rx="11" ry="11" style="stroke:#181818;stroke-width:1.0;"/><path d="M387.9219,151.498 L385.3594,151.498 L384.8281,153.7949 Q384.7656,154.123 384.7656,154.2793 Q384.7656,154.498 384.8125,154.6543 Q384.875,154.8105 385.1563,154.8105 L385.625,154.8105 L385.625,155.748 L382.6406,155.748 L382.6406,154.8105 L383.0938,154.8105 Q383.2656,154.8105 383.3906,154.7168 Q383.5156,154.6074 383.5625,154.3105 L386.2031,143.9824 L387.6094,143.5137 L390.1875,154.2793 Q390.2969,154.5918 390.4219,154.7012 Q390.5625,154.8105 390.7344,154.8105 L391.2031,154.8105 L391.2031,155.748 L387.8125,155.748 L387.8125,154.8105 L388.3438,154.8105 Q388.5625,154.8105 388.5781,154.7637 Q388.6094,154.7012 388.6094,154.623 Q388.6094,154.4043 388.5625,154.2168 L387.9219,151.498 Z M383.3594,155.3418 L383.3594,155.3418 Z M384.0313,155.3418 L384.0313,155.3418 Z M388.75,155.3418 L388.75,155.3418 Z M389.875,155.3418 L389.875,155.3418 Z M386.6875,145.4043 L386.75,145.4043 L385.6406,150.5605 L387.7344,150.5605 L386.6875,145.4043 Z " fill="#000000"/><text fill="#000000" font-family="sans-serif" font-size="14" font-style="italic" lengthAdjust="spacing" textLength="105" x="401.5" y="156.8105">AbstractChannel</text></g><!--class Channel--><g id="elem_Channel"><rect codeLine="1" fill="#F1F1F1" height="32" id="Channel" rx="2.5" ry="2.5" style="stroke:#181818;stroke-width:0.5;" width="85" x="615.5" y="43.0137"/><ellipse cx="630.5" cy="59.0137" fill="#B4A7E5" rx="11" ry="11" style="stroke:#181818;stroke-width:1.0;"/><path d="M627.0938,53.7949 L627.0938,52.8574 L632.9375,52.8574 L632.9375,53.7949 L631.1406,53.7949 Q630.9688,53.7949 630.8906,53.8574 Q630.8125,53.9199 630.8125,54.0605 L630.8125,63.5449 Q630.8125,63.6855 630.8906,63.748 Q630.9688,63.8105 631.1406,63.8105 L632.9375,63.8105 L632.9375,64.748 L627.0938,64.748 L627.0938,63.8105 L628.8906,63.8105 Q629.1094,63.8105 629.1563,63.7637 Q629.2188,63.7012 629.2188,63.5449 L629.2188,54.0605 Q629.2188,53.9043 629.1563,53.8574 Q629.1094,53.7949 628.8906,53.7949 L627.0938,53.7949 Z " fill="#000000"/><text fill="#000000" font-family="sans-serif" font-size="14" font-style="italic" lengthAdjust="spacing" textLength="53" x="644.5" y="64.8105">Channel</text></g><!--class ServerChannel--><g id="elem_ServerChannel"><rect codeLine="1" fill="#F1F1F1" height="32" id="ServerChannel" rx="2.5" ry="2.5" style="stroke:#181818;stroke-width:0.5;" width="126" x="595" y="135.0137"/><ellipse cx="610" cy="151.0137" fill="#B4A7E5" rx="11" ry="11" style="stroke:#181818;stroke-width:1.0;"/><path d="M606.5938,145.7949 L606.5938,144.8574 L612.4375,144.8574 L612.4375,145.7949 L610.6406,145.7949 Q610.4688,145.7949 610.3906,145.8574 Q610.3125,145.9199 610.3125,146.0605 L610.3125,155.5449 Q610.3125,155.6855 610.3906,155.748 Q610.4688,155.8105 610.6406,155.8105 L612.4375,155.8105 L612.4375,156.748 L606.5938,156.748 L606.5938,155.8105 L608.3906,155.8105 Q608.6094,155.8105 608.6563,155.7637 Q608.7188,155.7012 608.7188,155.5449 L608.7188,146.0605 Q608.7188,145.9043 608.6563,145.8574 Q608.6094,145.7949 608.3906,145.7949 L606.5938,145.7949 Z " fill="#000000"/><text fill="#000000" font-family="sans-serif" font-size="14" font-style="italic" lengthAdjust="spacing" textLength="94" x="624" y="156.8105">ServerChannel</text></g><!--class AbstractNioByteChannel--><g id="elem_AbstractNioByteChannel"><rect codeLine="1" fill="#F1F1F1" height="32" id="AbstractNioByteChannel" rx="2.5" ry="2.5" style="stroke:#181818;stroke-width:0.5;" width="186" x="297" y="319.0137"/><ellipse cx="312" cy="335.0137" fill="#A9DCDF" rx="11" ry="11" style="stroke:#181818;stroke-width:1.0;"/><path d="M312.4219,335.498 L309.8594,335.498 L309.3281,337.7949 Q309.2656,338.123 309.2656,338.2793 Q309.2656,338.498 309.3125,338.6543 Q309.375,338.8105 309.6563,338.8105 L310.125,338.8105 L310.125,339.748 L307.1406,339.748 L307.1406,338.8105 L307.5938,338.8105 Q307.7656,338.8105 307.8906,338.7168 Q308.0156,338.6074 308.0625,338.3105 L310.7031,327.9824 L312.1094,327.5137 L314.6875,338.2793 Q314.7969,338.5918 314.9219,338.7012 Q315.0625,338.8105 315.2344,338.8105 L315.7031,338.8105 L315.7031,339.748 L312.3125,339.748 L312.3125,338.8105 L312.8438,338.8105 Q313.0625,338.8105 313.0781,338.7637 Q313.1094,338.7012 313.1094,338.623 Q313.1094,338.4043 313.0625,338.2168 L312.4219,335.498 Z M307.8594,339.3418 L307.8594,339.3418 Z M308.5313,339.3418 L308.5313,339.3418 Z M313.25,339.3418 L313.25,339.3418 Z M314.375,339.3418 L314.375,339.3418 Z M311.1875,329.4043 L311.25,329.4043 L310.1406,334.5605 L312.2344,334.5605 L311.1875,329.4043 Z " fill="#000000"/><text fill="#000000" font-family="sans-serif" font-size="14" font-style="italic" lengthAdjust="spacing" textLength="154" x="326" y="340.8105">AbstractNioByteChannel</text></g><!--class AbstractNioChannel--><g id="elem_AbstractNioChannel"><rect codeLine="1" fill="#F1F1F1" height="32" id="AbstractNioChannel" rx="2.5" ry="2.5" style="stroke:#181818;stroke-width:0.5;" width="158" x="311" y="227.0137"/><ellipse cx="326" cy="243.0137" fill="#A9DCDF" rx="11" ry="11" style="stroke:#181818;stroke-width:1.0;"/><path d="M326.4219,243.498 L323.8594,243.498 L323.3281,245.7949 Q323.2656,246.123 323.2656,246.2793 Q323.2656,246.498 323.3125,246.6543 Q323.375,246.8105 323.6563,246.8105 L324.125,246.8105 L324.125,247.748 L321.1406,247.748 L321.1406,246.8105 L321.5938,246.8105 Q321.7656,246.8105 321.8906,246.7168 Q322.0156,246.6074 322.0625,246.3105 L324.7031,235.9824 L326.1094,235.5137 L328.6875,246.2793 Q328.7969,246.5918 328.9219,246.7012 Q329.0625,246.8105 329.2344,246.8105 L329.7031,246.8105 L329.7031,247.748 L326.3125,247.748 L326.3125,246.8105 L326.8438,246.8105 Q327.0625,246.8105 327.0781,246.7637 Q327.1094,246.7012 327.1094,246.623 Q327.1094,246.4043 327.0625,246.2168 L326.4219,243.498 Z M321.8594,247.3418 L321.8594,247.3418 Z M322.5313,247.3418 L322.5313,247.3418 Z M327.25,247.3418 L327.25,247.3418 Z M328.375,247.3418 L328.375,247.3418 Z M325.1875,237.4043 L325.25,237.4043 L324.1406,242.5605 L326.2344,242.5605 L325.1875,237.4043 Z " fill="#000000"/><text fill="#000000" font-family="sans-serif" font-size="14" font-style="italic" lengthAdjust="spacing" textLength="126" x="340" y="248.8105">AbstractNioChannel</text></g><!--class AbstractNioMessageChannel--><g id="elem_AbstractNioMessageChannel"><rect codeLine="1" fill="#F1F1F1" height="32" id="AbstractNioMessageChannel" rx="2.5" ry="2.5" style="stroke:#181818;stroke-width:0.5;" width="216" x="46" y="319.0137"/><ellipse cx="61" cy="335.0137" fill="#A9DCDF" rx="11" ry="11" style="stroke:#181818;stroke-width:1.0;"/><path d="M61.4219,335.498 L58.8594,335.498 L58.3281,337.7949 Q58.2656,338.123 58.2656,338.2793 Q58.2656,338.498 58.3125,338.6543 Q58.375,338.8105 58.6563,338.8105 L59.125,338.8105 L59.125,339.748 L56.1406,339.748 L56.1406,338.8105 L56.5938,338.8105 Q56.7656,338.8105 56.8906,338.7168 Q57.0156,338.6074 57.0625,338.3105 L59.7031,327.9824 L61.1094,327.5137 L63.6875,338.2793 Q63.7969,338.5918 63.9219,338.7012 Q64.0625,338.8105 64.2344,338.8105 L64.7031,338.8105 L64.7031,339.748 L61.3125,339.748 L61.3125,338.8105 L61.8438,338.8105 Q62.0625,338.8105 62.0781,338.7637 Q62.1094,338.7012 62.1094,338.623 Q62.1094,338.4043 62.0625,338.2168 L61.4219,335.498 Z M56.8594,339.3418 L56.8594,339.3418 Z M57.5313,339.3418 L57.5313,339.3418 Z M62.25,339.3418 L62.25,339.3418 Z M63.375,339.3418 L63.375,339.3418 Z M60.1875,329.4043 L60.25,329.4043 L59.1406,334.5605 L61.2344,334.5605 L60.1875,329.4043 Z " fill="#000000"/><text fill="#000000" font-family="sans-serif" font-size="14" font-style="italic" lengthAdjust="spacing" textLength="184" x="75" y="340.8105">AbstractNioMessageChannel</text></g><!--class DuplexChannel--><g id="elem_DuplexChannel"><rect codeLine="1" fill="#F1F1F1" height="32" id="DuplexChannel" rx="2.5" ry="2.5" style="stroke:#181818;stroke-width:0.5;" width="128" x="736" y="227.0137"/><ellipse cx="751" cy="243.0137" fill="#B4A7E5" rx="11" ry="11" style="stroke:#181818;stroke-width:1.0;"/><path d="M747.5938,237.7949 L747.5938,236.8574 L753.4375,236.8574 L753.4375,237.7949 L751.6406,237.7949 Q751.4688,237.7949 751.3906,237.8574 Q751.3125,237.9199 751.3125,238.0605 L751.3125,247.5449 Q751.3125,247.6855 751.3906,247.748 Q751.4688,247.8105 751.6406,247.8105 L753.4375,247.8105 L753.4375,248.748 L747.5938,248.748 L747.5938,247.8105 L749.3906,247.8105 Q749.6094,247.8105 749.6563,247.7637 Q749.7188,247.7012 749.7188,247.5449 L749.7188,238.0605 Q749.7188,237.9043 749.6563,237.8574 Q749.6094,237.7949 749.3906,237.7949 L747.5938,237.7949 Z " fill="#000000"/><text fill="#000000" font-family="sans-serif" font-size="14" font-style="italic" lengthAdjust="spacing" textLength="96" x="765" y="248.8105">DuplexChannel</text></g><!--class ServerSocketChannel--><g id="elem_ServerSocketChannel"><rect codeLine="1" fill="#F1F1F1" height="32" id="ServerSocketChannel" rx="2.5" ry="2.5" style="stroke:#181818;stroke-width:0.5;" width="170" x="573" y="319.0137"/><ellipse cx="588" cy="335.0137" fill="#B4A7E5" rx="11" ry="11" style="stroke:#181818;stroke-width:1.0;"/><path d="M584.5938,329.7949 L584.5938,328.8574 L590.4375,328.8574 L590.4375,329.7949 L588.6406,329.7949 Q588.4688,329.7949 588.3906,329.8574 Q588.3125,329.9199 588.3125,330.0605 L588.3125,339.5449 Q588.3125,339.6855 588.3906,339.748 Q588.4688,339.8105 588.6406,339.8105 L590.4375,339.8105 L590.4375,340.748 L584.5938,340.748 L584.5938,339.8105 L586.3906,339.8105 Q586.6094,339.8105 586.6563,339.7637 Q586.7188,339.7012 586.7188,339.5449 L586.7188,330.0605 Q586.7188,329.9043 586.6563,329.8574 Q586.6094,329.7949 586.3906,329.7949 L584.5938,329.7949 Z " fill="#000000"/><text fill="#000000" font-family="sans-serif" font-size="14" font-style="italic" lengthAdjust="spacing" textLength="138" x="602" y="340.8105">ServerSocketChannel</text></g><!--class SocketChannel--><g id="elem_SocketChannel"><rect codeLine="1" fill="#F1F1F1" height="32" id="SocketChannel" rx="2.5" ry="2.5" style="stroke:#181818;stroke-width:0.5;" width="129" x="787.5" y="319.0137"/><ellipse cx="802.5" cy="335.0137" fill="#B4A7E5" rx="11" ry="11" style="stroke:#181818;stroke-width:1.0;"/><path d="M799.0938,329.7949 L799.0938,328.8574 L804.9375,328.8574 L804.9375,329.7949 L803.1406,329.7949 Q802.9688,329.7949 802.8906,329.8574 Q802.8125,329.9199 802.8125,330.0605 L802.8125,339.5449 Q802.8125,339.6855 802.8906,339.748 Q802.9688,339.8105 803.1406,339.8105 L804.9375,339.8105 L804.9375,340.748 L799.0938,340.748 L799.0938,339.8105 L800.8906,339.8105 Q801.1094,339.8105 801.1563,339.7637 Q801.2188,339.7012 801.2188,339.5449 L801.2188,330.0605 Q801.2188,329.9043 801.1563,329.8574 Q801.1094,329.7949 800.8906,329.7949 L799.0938,329.7949 Z " fill="#000000"/><text fill="#000000" font-family="sans-serif" font-size="14" font-style="italic" lengthAdjust="spacing" textLength="97" x="816.5" y="340.8105">SocketChannel</text></g><!--class NioServerSocketChannel--><g id="elem_NioServerSocketChannel"><rect codeLine="1" fill="#F1F1F1" height="32" id="NioServerSocketChannel" rx="2.5" ry="2.5" style="stroke:#181818;stroke-width:0.5;" width="190" x="563" y="428.0137"/><ellipse cx="578" cy="444.0137" fill="#ADD1B2" rx="11" ry="11" style="stroke:#181818;stroke-width:1.0;"/><path d="M577.3438,449.873 Q575.3594,449.873 574.1875,448.4043 Q573.0313,446.9199 573.0313,443.8418 Q573.0313,441.2324 574.25,439.4824 Q575.4844,437.7324 577.6094,437.7324 Q578.1094,437.7324 578.6406,437.873 Q579.0781,438.0605 579.3438,438.0605 Q579.5625,438.0605 579.6563,438.0137 Q579.7656,437.9668 580.2188,437.373 L580.9844,441.1074 L580.0938,441.373 Q579.6406,439.9199 579.0313,439.3262 Q578.4375,438.7168 577.4844,438.7168 Q576.2656,438.7168 575.5469,440.1543 Q574.8281,441.5762 574.8281,443.7637 Q574.8281,446.1699 575.4375,447.4668 Q576.0625,448.748 577.4219,448.748 Q578.375,448.748 579.0625,448.0605 Q579.75,447.3574 580.0781,445.8574 L580.9844,446.2637 Q580.5781,447.9668 579.6094,448.9199 Q578.6563,449.873 577.3438,449.873 Z " fill="#000000"/><text fill="#000000" font-family="sans-serif" font-size="14" lengthAdjust="spacing" textLength="158" x="592" y="449.8105">NioServerSocketChannel</text></g><!--class NioSocketChannel--><g id="elem_NioSocketChannel"><rect codeLine="1" fill="#F1F1F1" height="32" id="NioSocketChannel" rx="2.5" ry="2.5" style="stroke:#181818;stroke-width:0.5;" width="148" x="788" y="428.0137"/><ellipse cx="803" cy="444.0137" fill="#ADD1B2" rx="11" ry="11" style="stroke:#181818;stroke-width:1.0;"/><path d="M802.3438,449.873 Q800.3594,449.873 799.1875,448.4043 Q798.0313,446.9199 798.0313,443.8418 Q798.0313,441.2324 799.25,439.4824 Q800.4844,437.7324 802.6094,437.7324 Q803.1094,437.7324 803.6406,437.873 Q804.0781,438.0605 804.3438,438.0605 Q804.5625,438.0605 804.6563,438.0137 Q804.7656,437.9668 805.2188,437.373 L805.9844,441.1074 L805.0938,441.373 Q804.6406,439.9199 804.0313,439.3262 Q803.4375,438.7168 802.4844,438.7168 Q801.2656,438.7168 800.5469,440.1543 Q799.8281,441.5762 799.8281,443.7637 Q799.8281,446.1699 800.4375,447.4668 Q801.0625,448.748 802.4219,448.748 Q803.375,448.748 804.0625,448.0605 Q804.75,447.3574 805.0781,445.8574 L805.9844,446.2637 Q805.5781,447.9668 804.6094,448.9199 Q803.6563,449.873 802.3438,449.873 Z " fill="#000000"/><text fill="#000000" font-family="sans-serif" font-size="14" lengthAdjust="spacing" textLength="116" x="817" y="449.8105">NioSocketChannel</text></g><!--reverse link Channel to AbstractChannel--><g id="link_Channel_AbstractChannel"><path codeLine="15" d="M605.0541,81.9714 C564.9941,98.5914 517.54,118.2637 477.44,134.9037 " fill="none" id="Channel-backto-AbstractChannel" style="stroke:#181818;stroke-width:1.0;stroke-dasharray:7.0,7.0;"/><polygon fill="none" points="621.68,75.0737,602.7548,76.4294,607.3533,87.5134,621.68,75.0737" style="stroke:#181818;stroke-width:1.0;"/></g><!--reverse link AbstractNioChannel to AbstractNioByteChannel--><g id="link_AbstractNioChannel_AbstractNioByteChannel"><path codeLine="16" d="M390,277.2837 C390,293.9337 390,302.4137 390,318.9737 " fill="none" id="AbstractNioChannel-backto-AbstractNioByteChannel" style="stroke:#181818;stroke-width:1.0;"/><polygon fill="none" points="390,259.2837,384,277.2837,396,277.2837,390,259.2837" style="stroke:#181818;stroke-width:1.0;"/></g><!--reverse link AbstractChannel to AbstractNioChannel--><g id="link_AbstractChannel_AbstractNioChannel"><path codeLine="17" d="M423.4722,182.9421 C414.0322,199.5921 407.91,210.4137 398.52,226.9737 " fill="none" id="AbstractChannel-backto-AbstractNioChannel" style="stroke:#181818;stroke-width:1.0;"/><polygon fill="none" points="432.35,167.2837,418.2528,179.9828,428.6917,185.9013,432.35,167.2837" style="stroke:#181818;stroke-width:1.0;"/></g><!--reverse link AbstractNioChannel to AbstractNioMessageChannel--><g id="link_AbstractNioChannel_AbstractNioMessageChannel"><path codeLine="18" d="M333.682,265.489 C290.112,282.109 237.25,302.2637 193.63,318.9037 " fill="none" id="AbstractNioChannel-backto-AbstractNioMessageChannel" style="stroke:#181818;stroke-width:1.0;"/><polygon fill="none" points="350.5,259.0737,331.5436,259.883,335.8205,271.095,350.5,259.0737" style="stroke:#181818;stroke-width:1.0;"/></g><!--reverse link Channel to DuplexChannel--><g id="link_Channel_DuplexChannel"><path codeLine="19" d="M691.55,86.5967 C709.02,100.8167 720.65,111.8937 739,135.0137 C762.8,164.9937 783.14,205.3637 793.22,226.9337 " fill="none" id="Channel-backto-DuplexChannel" style="stroke:#181818;stroke-width:1.0;"/><polygon fill="none" points="677.59,75.2337,687.7624,91.25,695.3377,81.9433,677.59,75.2337" style="stroke:#181818;stroke-width:1.0;"/></g><!--reverse link AbstractNioMessageChannel to NioServerSocketChannel--><g id="link_AbstractNioMessageChannel_NioServerSocketChannel"><path codeLine="20" d="M215.0567,356.6639 C239.0967,364.5339 252.41,368.2937 280,375.0137 C375.39,398.2637 486.11,417.2637 562.96,429.2137 " fill="none" id="AbstractNioMessageChannel-backto-NioServerSocketChannel" style="stroke:#181818;stroke-width:1.0;"/><polygon fill="none" points="197.95,351.0637,213.1899,362.3661,216.9234,350.9617,197.95,351.0637" style="stroke:#181818;stroke-width:1.0;"/></g><!--reverse link ServerSocketChannel to NioServerSocketChannel--><g id="link_ServerSocketChannel_NioServerSocketChannel"><path codeLine="21" d="M658,369.3437 C658,389.6837 658,407.3837 658,427.7137 " fill="none" id="ServerSocketChannel-backto-NioServerSocketChannel" style="stroke:#181818;stroke-width:1.0;stroke-dasharray:7.0,7.0;"/><polygon fill="none" points="658,351.3437,652,369.3437,664,369.3437,658,351.3437" style="stroke:#181818;stroke-width:1.0;"/></g><!--reverse link AbstractNioByteChannel to NioSocketChannel--><g id="link_AbstractNioByteChannel_NioSocketChannel"><path codeLine="22" d="M448.3724,356.7972 C474.3224,365.5172 491.64,369.9937 523,375.0137 C577.45,383.7337 718.45,366.3237 771,383.0137 C799.86,392.1837 828.19,413.3237 845.38,427.8937 " fill="none" id="AbstractNioByteChannel-backto-NioSocketChannel" style="stroke:#181818;stroke-width:1.0;"/><polygon fill="none" points="431.31,351.0637,446.4613,362.4847,450.2836,351.1097,431.31,351.0637" style="stroke:#181818;stroke-width:1.0;"/></g><!--reverse link SocketChannel to NioSocketChannel--><g id="link_SocketChannel_NioSocketChannel"><path codeLine="23" d="M855.1041,369.2656 C857.0041,389.6056 858.67,407.3837 860.57,427.7137 " fill="none" id="SocketChannel-backto-NioSocketChannel" style="stroke:#181818;stroke-width:1.0;stroke-dasharray:7.0,7.0;"/><polygon fill="none" points="853.43,351.3437,849.1301,369.8237,861.0781,368.7076,853.43,351.3437" style="stroke:#181818;stroke-width:1.0;"/></g><!--reverse link Channel to ServerChannel--><g id="link_Channel_ServerChannel"><path codeLine="24" d="M658,93.2837 C658,109.9337 658,118.4137 658,134.9737 " fill="none" id="Channel-backto-ServerChannel" style="stroke:#181818;stroke-width:1.0;"/><polygon fill="none" points="658,75.2837,652,93.2837,664,93.2837,658,75.2837" style="stroke:#181818;stroke-width:1.0;"/></g><!--reverse link ServerChannel to ServerSocketChannel--><g id="link_ServerChannel_ServerSocketChannel"><path codeLine="25" d="M658,185.2137 C658,219.5637 658,284.8037 658,318.9837 " fill="none" id="ServerChannel-backto-ServerSocketChannel" style="stroke:#181818;stroke-width:1.0;"/><polygon fill="none" points="658,167.2137,652,185.2137,664,185.2137,658,167.2137" style="stroke:#181818;stroke-width:1.0;"/></g><!--reverse link DuplexChannel to SocketChannel--><g id="link_DuplexChannel_SocketChannel"><path codeLine="26" d="M817.825,274.8692 C827.445,291.5192 833.74,302.4137 843.31,318.9737 " fill="none" id="DuplexChannel-backto-SocketChannel" style="stroke:#181818;stroke-width:1.0;"/><polygon fill="none" points="808.82,259.2837,812.6298,277.8709,823.0202,271.8676,808.82,259.2837" style="stroke:#181818;stroke-width:1.0;"/></g><!--SRC=[bP9DRi8m48NtSmfp09mRL6fXmw9L9KumCG-mi8Fbdwf8FNmZXKWuCIXUUlozDvvvNZdF9yiY1Uow26znq1pnpUh29mHnP1D0jDATCka08MMZpjnrC4tBGQlclGtHiugReIfTicO1_gMl7xU8UbMzuXCXzBCi52x4jiaP_2w4-qViuN_WzrTrGQnGrV13YogupdyEqoHz8PEJVs_YVgHoscATtBgdvgdIl3I52sGUy0ltBBIH6o_B8HNSydRFTFTD5Ave6coXnyEsvlXedPbcwKzdUp5OfgCYagsDYCww_nuMjeKFmm7MnTjO-WS0]--></g></svg>