<?xml version="1.0" encoding="us-ascii" standalone="no"?><svg xmlns="http://www.w3.org/2000/svg" xmlns:xlink="http://www.w3.org/1999/xlink" contentStyleType="text/css" height="512px" preserveAspectRatio="none" style="width:501px;height:512px;background:#FFFFFF;" version="1.1" viewBox="0 0 501 512" width="501px" zoomAndPan="magnify"><defs/><g><!--cluster channel--><g id="cluster_channel"><path d="M8.5,6.0137 L121.5,6.0137 A3.75,3.75 0 0 1 124,8.5137 L131,30.6348 L491.5,30.6348 A2.5,2.5 0 0 1 494,33.1348 L494,502.5137 A2.5,2.5 0 0 1 491.5,505.0137 L8.5,505.0137 A2.5,2.5 0 0 1 6,502.5137 L6,8.5137 A2.5,2.5 0 0 1 8.5,6.0137 " fill="none" style="stroke:#000000;stroke-width:1.5;"/><line style="stroke:#000000;stroke-width:1.5;" x1="6" x2="131" y1="30.6348" y2="30.6348"/><text fill="#000000" font-family="sans-serif" font-size="14" font-weight="bold" lengthAdjust="spacing" textLength="112" x="10" y="23.1211">io.netty.channel</text></g><!--cluster embedded--><g id="cluster_embedded"><path d="M274.5,268.0137 L350.5,268.0137 A3.75,3.75 0 0 1 353,270.5137 L360,292.6348 L467.5,292.6348 A2.5,2.5 0 0 1 470,295.1348 L470,377.5137 A2.5,2.5 0 0 1 467.5,380.0137 L274.5,380.0137 A2.5,2.5 0 0 1 272,377.5137 L272,270.5137 A2.5,2.5 0 0 1 274.5,268.0137 " fill="none" style="stroke:#000000;stroke-width:1.5;"/><line style="stroke:#000000;stroke-width:1.5;" x1="272" x2="360" y1="292.6348" y2="292.6348"/><text fill="#000000" font-family="sans-serif" font-size="14" font-weight="bold" lengthAdjust="spacing" textLength="75" x="276" y="285.1211">embedded</text></g><!--class ChannelId--><g id="elem_ChannelId"><rect codeLine="1" fill="#F1F1F1" height="77.2422" id="ChannelId" rx="2.5" ry="2.5" style="stroke:#181818;stroke-width:0.5;" width="157" x="175.5" y="43.0137"/><ellipse cx="217.5" cy="59.0137" fill="#B4A7E5" rx="11" ry="11" style="stroke:#181818;stroke-width:1.0;"/><path d="M214.0938,53.7949 L214.0938,52.8574 L219.9375,52.8574 L219.9375,53.7949 L218.1406,53.7949 Q217.9688,53.7949 217.8906,53.8574 Q217.8125,53.9199 217.8125,54.0605 L217.8125,63.5449 Q217.8125,63.6855 217.8906,63.748 Q217.9688,63.8105 218.1406,63.8105 L219.9375,63.8105 L219.9375,64.748 L214.0938,64.748 L214.0938,63.8105 L215.8906,63.8105 Q216.1094,63.8105 216.1563,63.7637 Q216.2188,63.7012 216.2188,63.5449 L216.2188,54.0605 Q216.2188,53.9043 216.1563,53.8574 Q216.1094,53.7949 215.8906,53.7949 L214.0938,53.7949 Z " fill="#000000"/><text fill="#000000" font-family="sans-serif" font-size="14" font-style="italic" lengthAdjust="spacing" textLength="65" x="237.5" y="64.8105">ChannelId</text><line style="stroke:#181818;stroke-width:0.5;" x1="176.5" x2="331.5" y1="75.0137" y2="75.0137"/><ellipse cx="186.5" cy="89.8242" fill="#84BE84" rx="3" ry="3" style="stroke:#038048;stroke-width:1.0;"/><text fill="#000000" font-family="sans-serif" font-size="14" font-style="italic" lengthAdjust="spacing" textLength="129" x="195.5" y="94.1211">asLongText(): String</text><ellipse cx="186.5" cy="108.4453" fill="#84BE84" rx="3" ry="3" style="stroke:#038048;stroke-width:1.0;"/><text fill="#000000" font-family="sans-serif" font-size="14" font-style="italic" lengthAdjust="spacing" textLength="131" x="195.5" y="112.7422">asShortText(): String</text></g><!--class DefaultChannelId--><g id="elem_DefaultChannelId"><rect codeLine="1" fill="#F1F1F1" height="308.6953" id="DefaultChannelId" rx="2.5" ry="2.5" style="stroke:#181818;stroke-width:0.5;" width="231" x="22.5" y="180.0137"/><ellipse cx="79.25" cy="196.0137" fill="#ADD1B2" rx="11" ry="11" style="stroke:#181818;stroke-width:1.0;"/><path d="M78.5938,201.873 Q76.6094,201.873 75.4375,200.4043 Q74.2813,198.9199 74.2813,195.8418 Q74.2813,193.2324 75.5,191.4824 Q76.7344,189.7324 78.8594,189.7324 Q79.3594,189.7324 79.8906,189.873 Q80.3281,190.0605 80.5938,190.0605 Q80.8125,190.0605 80.9063,190.0137 Q81.0156,189.9668 81.4688,189.373 L82.2344,193.1074 L81.3438,193.373 Q80.8906,191.9199 80.2813,191.3262 Q79.6875,190.7168 78.7344,190.7168 Q77.5156,190.7168 76.7969,192.1543 Q76.0781,193.5762 76.0781,195.7637 Q76.0781,198.1699 76.6875,199.4668 Q77.3125,200.748 78.6719,200.748 Q79.625,200.748 80.3125,200.0605 Q81,199.3574 81.3281,197.8574 L82.2344,198.2637 Q81.8281,199.9668 80.8594,200.9199 Q79.9063,201.873 78.5938,201.873 Z " fill="#000000"/><text fill="#000000" font-family="sans-serif" font-size="14" lengthAdjust="spacing" textLength="109" x="99.75" y="201.8105">DefaultChannelId</text><line style="stroke:#181818;stroke-width:0.5;" x1="23.5" x2="252.5" y1="212.0137" y2="212.0137"/><rect fill="none" height="6" style="stroke:#C82930;stroke-width:1.0;" width="6" x="30.5" y="223.8242"/><text fill="#000000" font-family="sans-serif" font-size="14" lengthAdjust="spacing" text-decoration="underline" textLength="124" x="42.5" y="231.1211">MACHINE_ID: byte[]</text><rect fill="none" height="6" style="stroke:#C82930;stroke-width:1.0;" width="6" x="30.5" y="242.4453"/><text fill="#000000" font-family="sans-serif" font-size="14" lengthAdjust="spacing" text-decoration="underline" textLength="145" x="42.5" y="249.7422">PROCESS_ID_LEN: int</text><rect fill="none" height="6" style="stroke:#C82930;stroke-width:1.0;" width="6" x="30.5" y="261.0664"/><text fill="#000000" font-family="sans-serif" font-size="14" lengthAdjust="spacing" text-decoration="underline" textLength="111" x="42.5" y="268.3633">PROCESS_ID: int</text><rect fill="none" height="6" style="stroke:#C82930;stroke-width:1.0;" width="6" x="30.5" y="279.6875"/><text fill="#000000" font-family="sans-serif" font-size="14" lengthAdjust="spacing" text-decoration="underline" textLength="132" x="42.5" y="286.9844">SEQUENCE_LEN: int</text><rect fill="none" height="6" style="stroke:#C82930;stroke-width:1.0;" width="6" x="30.5" y="298.3086"/><text fill="#000000" font-family="sans-serif" font-size="14" lengthAdjust="spacing" text-decoration="underline" textLength="136" x="42.5" y="305.6055">TIMESTAMP_LEN: int</text><rect fill="none" height="6" style="stroke:#C82930;stroke-width:1.0;" width="6" x="30.5" y="316.9297"/><text fill="#000000" font-family="sans-serif" font-size="14" lengthAdjust="spacing" text-decoration="underline" textLength="117" x="42.5" y="324.2266">RANDOM_LEN: int</text><rect fill="none" height="6" style="stroke:#C82930;stroke-width:1.0;" width="6" x="30.5" y="335.5508"/><text fill="#000000" font-family="sans-serif" font-size="14" lengthAdjust="spacing" text-decoration="underline" textLength="184" x="42.5" y="342.8477">nextSequence: AtomicInteger</text><rect fill="none" height="6" style="stroke:#C82930;stroke-width:1.0;" width="6" x="30.5" y="354.1719"/><text fill="#000000" font-family="sans-serif" font-size="14" lengthAdjust="spacing" textLength="71" x="42.5" y="361.4688">data: byte[]</text><rect fill="none" height="6" style="stroke:#C82930;stroke-width:1.0;" width="6" x="30.5" y="372.793"/><text fill="#000000" font-family="sans-serif" font-size="14" lengthAdjust="spacing" textLength="88" x="42.5" y="380.0898">hashCode: int</text><rect fill="none" height="6" style="stroke:#C82930;stroke-width:1.0;" width="6" x="30.5" y="391.4141"/><text fill="#000000" font-family="sans-serif" font-size="14" lengthAdjust="spacing" textLength="113" x="42.5" y="398.7109">shortValue: String</text><rect fill="none" height="6" style="stroke:#C82930;stroke-width:1.0;" width="6" x="30.5" y="410.0352"/><text fill="#000000" font-family="sans-serif" font-size="14" lengthAdjust="spacing" textLength="108" x="42.5" y="417.332">longValue: String</text><line style="stroke:#181818;stroke-width:1.0;" x1="23.5" x2="252.5" y1="424.8457" y2="424.8457"/><ellipse cx="33.5" cy="439.6563" fill="#84BE84" rx="3" ry="3" style="stroke:#038048;stroke-width:1.0;"/><text fill="#000000" font-family="sans-serif" font-size="14" lengthAdjust="spacing" text-decoration="underline" textLength="205" x="42.5" y="443.9531">newInstance(): DefaultChannelId</text><ellipse cx="33.5" cy="458.2773" fill="#84BE84" rx="3" ry="3" style="stroke:#038048;stroke-width:1.0;"/><text fill="#000000" font-family="sans-serif" font-size="14" lengthAdjust="spacing" textLength="129" x="42.5" y="462.5742">asLongText(): String</text><ellipse cx="33.5" cy="476.8984" fill="#84BE84" rx="3" ry="3" style="stroke:#038048;stroke-width:1.0;"/><text fill="#000000" font-family="sans-serif" font-size="14" lengthAdjust="spacing" textLength="131" x="42.5" y="481.1953">asShortText(): String</text></g><!--class EmbeddedChannelId--><g id="elem_EmbeddedChannelId"><rect codeLine="1" fill="#F1F1F1" height="58.6211" id="EmbeddedChannelId" rx="2.5" ry="2.5" style="stroke:#181818;stroke-width:0.5;" width="165" x="288.5" y="305.0137"/><ellipse cx="303.95" cy="321.0137" fill="#ADD1B2" rx="11" ry="11" style="stroke:#181818;stroke-width:1.0;"/><path d="M303.2938,326.873 Q301.3094,326.873 300.1375,325.4043 Q298.9813,323.9199 298.9813,320.8418 Q298.9813,318.2324 300.2,316.4824 Q301.4344,314.7324 303.5594,314.7324 Q304.0594,314.7324 304.5906,314.873 Q305.0281,315.0605 305.2938,315.0605 Q305.5125,315.0605 305.6063,315.0137 Q305.7156,314.9668 306.1688,314.373 L306.9344,318.1074 L306.0438,318.373 Q305.5906,316.9199 304.9813,316.3262 Q304.3875,315.7168 303.4344,315.7168 Q302.2156,315.7168 301.4969,317.1543 Q300.7781,318.5762 300.7781,320.7637 Q300.7781,323.1699 301.3875,324.4668 Q302.0125,325.748 303.3719,325.748 Q304.325,325.748 305.0125,325.0605 Q305.7,324.3574 306.0281,322.8574 L306.9344,323.2637 Q306.5281,324.9668 305.5594,325.9199 Q304.6063,326.873 303.2938,326.873 Z " fill="#000000"/><text fill="#000000" font-family="sans-serif" font-size="14" lengthAdjust="spacing" textLength="132" x="318.05" y="326.8105">EmbeddedChannelId</text><line style="stroke:#181818;stroke-width:0.5;" x1="289.5" x2="452.5" y1="337.0137" y2="337.0137"/><polygon fill="none" points="299.5,347.8242,295.5,353.8242,303.5,353.8242" style="stroke:#1963A0;stroke-width:1.0;"/><text fill="#000000" font-family="sans-serif" font-size="14" lengthAdjust="spacing" text-decoration="underline" textLength="139" x="308.5" y="356.1211">INSTANCE: ChannelId</text></g><!--reverse link ChannelId to DefaultChannelId--><g id="link_ChannelId_DefaultChannelId"><path codeLine="7" d="M229.0795,136.4335 C221.3395,153.1835 219.21,157.7937 208.95,179.9837 " fill="none" id="ChannelId-backto-DefaultChannelId" style="stroke:#181818;stroke-width:1.0;stroke-dasharray:7.0,7.0;"/><polygon fill="none" points="236.63,120.0937,223.6329,133.9167,234.5261,138.9503,236.63,120.0937" style="stroke:#181818;stroke-width:1.0;"/></g><!--reverse link ChannelId to EmbeddedChannelId--><g id="link_ChannelId_EmbeddedChannelId"><path codeLine="8" d="M279.1245,136.4084 C302.6445,186.8684 336.33,259.1337 357.56,304.6737 " fill="none" id="ChannelId-backto-EmbeddedChannelId" style="stroke:#181818;stroke-width:1.0;stroke-dasharray:7.0,7.0;"/><polygon fill="none" points="271.52,120.0937,273.6862,138.9433,284.5628,133.8736,271.52,120.0937" style="stroke:#181818;stroke-width:1.0;"/></g><!--SRC=[ZSqx2iCm40JGNgTONq2wGPh4XRjSOQCTsy9Q8VGf0Zby384KDe5qo_1cTiY55sNg5LDgA0e9t71dl_62IZF72cE6a7pi0hBM-PLJGdH1tFLpJc9pr_XBtJ1pZ-q_FEe38f23DiSHiZtRruM-WJarpyIiONy8pUr9YjsN-WO0]--></g></svg>