<?xml version="1.0" encoding="us-ascii" standalone="no"?><svg xmlns="http://www.w3.org/2000/svg" xmlns:xlink="http://www.w3.org/1999/xlink" contentStyleType="text/css" height="1336px" preserveAspectRatio="none" style="width:1190px;height:1336px;background:#FFFFFF;" version="1.1" viewBox="0 0 1190 1336" width="1190px" zoomAndPan="magnify"><defs/><g><!--cluster channel--><g id="cluster_channel"><path d="M36.22,6.0137 L149.22,6.0137 A3.75,3.75 0 0 1 151.72,8.5137 L158.72,30.6348 L1162.22,30.6348 A2.5,2.5 0 0 1 1164.72,33.1348 L1164.72,1326.5137 A2.5,2.5 0 0 1 1162.22,1329.0137 L36.22,1329.0137 A2.5,2.5 0 0 1 33.72,1326.5137 L33.72,8.5137 A2.5,2.5 0 0 1 36.22,6.0137 " fill="none" style="stroke:#000000;stroke-width:1.5;"/><line style="stroke:#000000;stroke-width:1.5;" x1="33.72" x2="158.72" y1="30.6348" y2="30.6348"/><text fill="#000000" font-family="sans-serif" font-size="14" font-weight="bold" lengthAdjust="spacing" textLength="112" x="37.72" y="23.1211">io.netty.channel</text></g><!--class AbstractChannel--><g id="elem_AbstractChannel"><rect codeLine="3" fill="#F1F1F1" height="95.8633" id="AbstractChannel" rx="2.5" ry="2.5" style="stroke:#181818;stroke-width:0.5;" width="231" x="840.22" y="500.5137"/><ellipse cx="898.97" cy="516.5137" fill="#A9DCDF" rx="11" ry="11" style="stroke:#181818;stroke-width:1.0;"/><path d="M899.3919,516.998 L896.8294,516.998 L896.2981,519.2949 Q896.2356,519.623 896.2356,519.7793 Q896.2356,519.998 896.2825,520.1543 Q896.345,520.3105 896.6263,520.3105 L897.095,520.3105 L897.095,521.248 L894.1106,521.248 L894.1106,520.3105 L894.5638,520.3105 Q894.7356,520.3105 894.8606,520.2168 Q894.9856,520.1074 895.0325,519.8105 L897.6731,509.4824 L899.0794,509.0137 L901.6575,519.7793 Q901.7669,520.0918 901.8919,520.2012 Q902.0325,520.3105 902.2044,520.3105 L902.6731,520.3105 L902.6731,521.248 L899.2825,521.248 L899.2825,520.3105 L899.8138,520.3105 Q900.0325,520.3105 900.0481,520.2637 Q900.0794,520.2012 900.0794,520.123 Q900.0794,519.9043 900.0325,519.7168 L899.3919,516.998 Z M894.8294,520.8418 L894.8294,520.8418 Z M895.5013,520.8418 L895.5013,520.8418 Z M900.22,520.8418 L900.22,520.8418 Z M901.345,520.8418 L901.345,520.8418 Z M898.1575,510.9043 L898.22,510.9043 L897.1106,516.0605 L899.2044,516.0605 L898.1575,510.9043 Z " fill="#000000"/><text fill="#000000" font-family="sans-serif" font-size="14" font-style="italic" lengthAdjust="spacing" textLength="105" x="919.47" y="522.3105">AbstractChannel</text><line style="stroke:#181818;stroke-width:0.5;" x1="841.22" x2="1070.22" y1="532.5137" y2="532.5137"/><rect fill="none" height="6" style="stroke:#C82930;stroke-width:1.0;" width="6" x="848.22" y="544.3242"/><text fill="#000000" font-family="sans-serif" font-size="14" lengthAdjust="spacing" textLength="83" x="860.22" y="551.6211">id: ChannelId</text><rect fill="none" height="6" style="stroke:#C82930;stroke-width:1.0;" width="6" x="848.22" y="562.9453"/><text fill="#000000" font-family="sans-serif" font-size="14" lengthAdjust="spacing" textLength="205" x="860.22" y="570.2422">pipeline: DefaultChannelPipeline</text><rect fill="none" height="6" style="stroke:#C82930;stroke-width:1.0;" width="6" x="848.22" y="581.5664"/><text fill="#000000" font-family="sans-serif" font-size="14" lengthAdjust="spacing" textLength="143" x="860.22" y="588.8633">eventLoop: EventLoop</text></g><!--class Channel--><g id="elem_Channel"><rect codeLine="1" fill="#F1F1F1" height="32" id="Channel" rx="2.5" ry="2.5" style="stroke:#181818;stroke-width:0.5;" width="85" x="887.22" y="382.0137"/><ellipse cx="902.22" cy="398.0137" fill="#B4A7E5" rx="11" ry="11" style="stroke:#181818;stroke-width:1.0;"/><path d="M898.8138,392.7949 L898.8138,391.8574 L904.6575,391.8574 L904.6575,392.7949 L902.8606,392.7949 Q902.6888,392.7949 902.6106,392.8574 Q902.5325,392.9199 902.5325,393.0605 L902.5325,402.5449 Q902.5325,402.6855 902.6106,402.748 Q902.6888,402.8105 902.8606,402.8105 L904.6575,402.8105 L904.6575,403.748 L898.8138,403.748 L898.8138,402.8105 L900.6106,402.8105 Q900.8294,402.8105 900.8763,402.7637 Q900.9388,402.7012 900.9388,402.5449 L900.9388,393.0605 Q900.9388,392.9043 900.8763,392.8574 Q900.8294,392.7949 900.6106,392.7949 L898.8138,392.7949 Z " fill="#000000"/><text fill="#000000" font-family="sans-serif" font-size="14" font-style="italic" lengthAdjust="spacing" textLength="53" x="916.22" y="403.8105">Channel</text></g><!--class ChannelInboundInvoker--><g id="elem_ChannelInboundInvoker"><rect codeLine="1" fill="#F1F1F1" height="239.5898" id="ChannelInboundInvoker" rx="2.5" ry="2.5" style="stroke:#181818;stroke-width:0.5;" width="389" x="294.22" y="62.5137"/><ellipse cx="408.47" cy="78.5137" fill="#B4A7E5" rx="11" ry="11" style="stroke:#181818;stroke-width:1.0;"/><path d="M405.0638,73.2949 L405.0638,72.3574 L410.9075,72.3574 L410.9075,73.2949 L409.1106,73.2949 Q408.9388,73.2949 408.8606,73.3574 Q408.7825,73.4199 408.7825,73.5605 L408.7825,83.0449 Q408.7825,83.1855 408.8606,83.248 Q408.9388,83.3105 409.1106,83.3105 L410.9075,83.3105 L410.9075,84.248 L405.0638,84.248 L405.0638,83.3105 L406.8606,83.3105 Q407.0794,83.3105 407.1263,83.2637 Q407.1888,83.2012 407.1888,83.0449 L407.1888,73.5605 Q407.1888,73.4043 407.1263,73.3574 Q407.0794,73.2949 406.8606,73.2949 L405.0638,73.2949 Z " fill="#000000"/><text fill="#000000" font-family="sans-serif" font-size="14" font-style="italic" lengthAdjust="spacing" textLength="152" x="428.97" y="84.3105">ChannelInboundInvoker</text><line style="stroke:#181818;stroke-width:0.5;" x1="295.22" x2="682.22" y1="94.5137" y2="94.5137"/><ellipse cx="305.22" cy="109.3242" fill="#84BE84" rx="3" ry="3" style="stroke:#038048;stroke-width:1.0;"/><text fill="#000000" font-family="sans-serif" font-size="14" font-style="italic" lengthAdjust="spacing" textLength="312" x="314.22" y="113.6211">fireChannelRegistered(): ChannelInboundInvoker</text><ellipse cx="305.22" cy="127.9453" fill="#84BE84" rx="3" ry="3" style="stroke:#038048;stroke-width:1.0;"/><text fill="#000000" font-family="sans-serif" font-size="14" font-style="italic" lengthAdjust="spacing" textLength="325" x="314.22" y="132.2422">fireChannelUnregistered(): ChannelInboundInvoker</text><line style="stroke:#181818;stroke-width:1.0;stroke-dasharray:1.0,2.0;" x1="295.22" x2="682.22" y1="139.7559" y2="139.7559"/><ellipse cx="305.22" cy="154.5664" fill="#84BE84" rx="3" ry="3" style="stroke:#038048;stroke-width:1.0;"/><text fill="#000000" font-family="sans-serif" font-size="14" font-style="italic" lengthAdjust="spacing" textLength="280" x="314.22" y="158.8633">fireChannelActive(): ChannelInboundInvoker</text><ellipse cx="305.22" cy="173.1875" fill="#84BE84" rx="3" ry="3" style="stroke:#038048;stroke-width:1.0;"/><text fill="#000000" font-family="sans-serif" font-size="14" font-style="italic" lengthAdjust="spacing" textLength="291" x="314.22" y="177.4844">fireChannelInactive(): ChannelInboundInvoker</text><line style="stroke:#181818;stroke-width:1.0;stroke-dasharray:1.0,2.0;" x1="295.22" x2="682.22" y1="184.998" y2="184.998"/><ellipse cx="305.22" cy="199.8086" fill="#84BE84" rx="3" ry="3" style="stroke:#038048;stroke-width:1.0;"/><text fill="#000000" font-family="sans-serif" font-size="14" font-style="italic" lengthAdjust="spacing" textLength="318" x="314.22" y="204.1055">fireChannelRead(Object): ChannelInboundInvoker</text><ellipse cx="305.22" cy="218.4297" fill="#84BE84" rx="3" ry="3" style="stroke:#038048;stroke-width:1.0;"/><text fill="#000000" font-family="sans-serif" font-size="14" font-style="italic" lengthAdjust="spacing" textLength="337" x="314.22" y="222.7266">fireChannelReadComplete(): ChannelInboundInvoker</text><ellipse cx="305.22" cy="237.0508" fill="#84BE84" rx="3" ry="3" style="stroke:#038048;stroke-width:1.0;"/><text fill="#000000" font-family="sans-serif" font-size="14" font-style="italic" lengthAdjust="spacing" textLength="363" x="314.22" y="241.3477">fireChannelWritabilityChanged(): ChannelInboundInvoker</text><line style="stroke:#181818;stroke-width:1.0;stroke-dasharray:1.0,2.0;" x1="295.22" x2="682.22" y1="248.8613" y2="248.8613"/><ellipse cx="305.22" cy="263.6719" fill="#84BE84" rx="3" ry="3" style="stroke:#038048;stroke-width:1.0;"/><text fill="#000000" font-family="sans-serif" font-size="14" font-style="italic" lengthAdjust="spacing" textLength="363" x="314.22" y="267.9688">fireExceptionCaught(Throwable): ChannelInboundInvoker</text><line style="stroke:#181818;stroke-width:1.0;stroke-dasharray:1.0,2.0;" x1="295.22" x2="682.22" y1="275.4824" y2="275.4824"/><ellipse cx="305.22" cy="290.293" fill="#84BE84" rx="3" ry="3" style="stroke:#038048;stroke-width:1.0;"/><text fill="#000000" font-family="sans-serif" font-size="14" font-style="italic" lengthAdjust="spacing" textLength="358" x="314.22" y="294.5898">fireUserEventTriggered(Object): ChannelInboundInvoker</text></g><!--class ChannelOutboundInvoker--><g id="elem_ChannelOutboundInvoker"><rect codeLine="1" fill="#F1F1F1" height="279.4531" id="ChannelOutboundInvoker" rx="2.5" ry="2.5" style="stroke:#181818;stroke-width:0.5;" width="372" x="718.72" y="43.0137"/><ellipse cx="818.97" cy="59.0137" fill="#B4A7E5" rx="11" ry="11" style="stroke:#181818;stroke-width:1.0;"/><path d="M815.5638,53.7949 L815.5638,52.8574 L821.4075,52.8574 L821.4075,53.7949 L819.6106,53.7949 Q819.4388,53.7949 819.3606,53.8574 Q819.2825,53.9199 819.2825,54.0605 L819.2825,63.5449 Q819.2825,63.6855 819.3606,63.748 Q819.4388,63.8105 819.6106,63.8105 L821.4075,63.8105 L821.4075,64.748 L815.5638,64.748 L815.5638,63.8105 L817.3606,63.8105 Q817.5794,63.8105 817.6263,63.7637 Q817.6888,63.7012 817.6888,63.5449 L817.6888,54.0605 Q817.6888,53.9043 817.6263,53.8574 Q817.5794,53.7949 817.3606,53.7949 L815.5638,53.7949 Z " fill="#000000"/><text fill="#000000" font-family="sans-serif" font-size="14" font-style="italic" lengthAdjust="spacing" textLength="163" x="839.47" y="64.8105">ChannelOutboundInvoker</text><line style="stroke:#181818;stroke-width:0.5;" x1="719.72" x2="1089.72" y1="75.0137" y2="75.0137"/><ellipse cx="729.72" cy="89.8242" fill="#84BE84" rx="3" ry="3" style="stroke:#038048;stroke-width:1.0;"/><text fill="#000000" font-family="sans-serif" font-size="14" font-style="italic" lengthAdjust="spacing" textLength="236" x="738.72" y="94.1211">bind(SocketAddress): ChannelFuture</text><ellipse cx="729.72" cy="108.4453" fill="#84BE84" rx="3" ry="3" style="stroke:#038048;stroke-width:1.0;"/><text fill="#000000" font-family="sans-serif" font-size="14" font-style="italic" lengthAdjust="spacing" textLength="259" x="738.72" y="112.7422">connect(SocketAddress): ChannelFuture</text><ellipse cx="729.72" cy="127.0664" fill="#84BE84" rx="3" ry="3" style="stroke:#038048;stroke-width:1.0;"/><text fill="#000000" font-family="sans-serif" font-size="14" font-style="italic" lengthAdjust="spacing" textLength="181" x="738.72" y="131.3633">disconnect(): ChannelFuture</text><ellipse cx="729.72" cy="145.6875" fill="#84BE84" rx="3" ry="3" style="stroke:#038048;stroke-width:1.0;"/><text fill="#000000" font-family="sans-serif" font-size="14" font-style="italic" lengthAdjust="spacing" textLength="177" x="738.72" y="149.9844">deregister(): ChannelFuture</text><ellipse cx="729.72" cy="164.3086" fill="#84BE84" rx="3" ry="3" style="stroke:#038048;stroke-width:1.0;"/><text fill="#000000" font-family="sans-serif" font-size="14" font-style="italic" lengthAdjust="spacing" textLength="146" x="738.72" y="168.6055">close(): ChannelFuture</text><line style="stroke:#181818;stroke-width:1.0;stroke-dasharray:1.0,2.0;" x1="719.72" x2="1089.72" y1="176.1191" y2="176.1191"/><ellipse cx="729.72" cy="190.9297" fill="#84BE84" rx="3" ry="3" style="stroke:#038048;stroke-width:1.0;"/><text fill="#000000" font-family="sans-serif" font-size="14" font-style="italic" lengthAdjust="spacing" textLength="210" x="738.72" y="195.2266">read(): ChannelOutboundInvoker</text><ellipse cx="729.72" cy="209.5508" fill="#84BE84" rx="3" ry="3" style="stroke:#038048;stroke-width:1.0;"/><text fill="#000000" font-family="sans-serif" font-size="14" font-style="italic" lengthAdjust="spacing" textLength="183" x="738.72" y="213.8477">write(Object): ChannelFuture</text><ellipse cx="729.72" cy="228.1719" fill="#84BE84" rx="3" ry="3" style="stroke:#038048;stroke-width:1.0;"/><text fill="#000000" font-family="sans-serif" font-size="14" font-style="italic" lengthAdjust="spacing" textLength="211" x="738.72" y="232.4688">flush(): ChannelOutboundInvoker</text><ellipse cx="729.72" cy="246.793" fill="#84BE84" rx="3" ry="3" style="stroke:#038048;stroke-width:1.0;"/><text fill="#000000" font-family="sans-serif" font-size="14" font-style="italic" lengthAdjust="spacing" textLength="243" x="738.72" y="251.0898">writeAndFlush(Object): ChannelFuture</text><line style="stroke:#181818;stroke-width:1.0;stroke-dasharray:1.0,2.0;" x1="719.72" x2="1089.72" y1="258.6035" y2="258.6035"/><ellipse cx="729.72" cy="273.4141" fill="#84BE84" rx="3" ry="3" style="stroke:#038048;stroke-width:1.0;"/><text fill="#000000" font-family="sans-serif" font-size="14" font-style="italic" lengthAdjust="spacing" textLength="198" x="738.72" y="277.7109">newPromise(): ChannelPromise</text><ellipse cx="729.72" cy="292.0352" fill="#84BE84" rx="3" ry="3" style="stroke:#038048;stroke-width:1.0;"/><text fill="#000000" font-family="sans-serif" font-size="14" font-style="italic" lengthAdjust="spacing" textLength="346" x="738.72" y="296.332">newProgressivePromise(): ChannelProgressivePromise</text><ellipse cx="729.72" cy="310.6563" fill="#84BE84" rx="3" ry="3" style="stroke:#038048;stroke-width:1.0;"/><text fill="#000000" font-family="sans-serif" font-size="14" font-style="italic" lengthAdjust="spacing" textLength="198" x="738.72" y="314.9531">voidPromise(): ChannelPromise</text></g><!--class ChannelPipeline--><g id="elem_ChannelPipeline"><rect codeLine="1" fill="#F1F1F1" height="32" id="ChannelPipeline" rx="2.5" ry="2.5" style="stroke:#181818;stroke-width:0.5;" width="135" x="647.22" y="382.0137"/><ellipse cx="662.22" cy="398.0137" fill="#B4A7E5" rx="11" ry="11" style="stroke:#181818;stroke-width:1.0;"/><path d="M658.8138,392.7949 L658.8138,391.8574 L664.6575,391.8574 L664.6575,392.7949 L662.8606,392.7949 Q662.6888,392.7949 662.6106,392.8574 Q662.5325,392.9199 662.5325,393.0605 L662.5325,402.5449 Q662.5325,402.6855 662.6106,402.748 Q662.6888,402.8105 662.8606,402.8105 L664.6575,402.8105 L664.6575,403.748 L658.8138,403.748 L658.8138,402.8105 L660.6106,402.8105 Q660.8294,402.8105 660.8763,402.7637 Q660.9388,402.7012 660.9388,402.5449 L660.9388,393.0605 Q660.9388,392.9043 660.8763,392.8574 Q660.8294,392.7949 660.6106,392.7949 L658.8138,392.7949 Z " fill="#000000"/><text fill="#000000" font-family="sans-serif" font-size="14" font-style="italic" lengthAdjust="spacing" textLength="103" x="676.22" y="403.8105">ChannelPipeline</text></g><!--class DefaultChannelPipeline--><g id="elem_DefaultChannelPipeline"><rect codeLine="1" fill="#F1F1F1" height="103.8633" id="DefaultChannelPipeline" rx="2.5" ry="2.5" style="stroke:#181818;stroke-width:0.5;" width="180" x="624.72" y="496.5137"/><ellipse cx="639.72" cy="512.5137" fill="#ADD1B2" rx="11" ry="11" style="stroke:#181818;stroke-width:1.0;"/><path d="M639.0638,518.373 Q637.0794,518.373 635.9075,516.9043 Q634.7513,515.4199 634.7513,512.3418 Q634.7513,509.7324 635.97,507.9824 Q637.2044,506.2324 639.3294,506.2324 Q639.8294,506.2324 640.3606,506.373 Q640.7981,506.5605 641.0638,506.5605 Q641.2825,506.5605 641.3763,506.5137 Q641.4856,506.4668 641.9388,505.873 L642.7044,509.6074 L641.8138,509.873 Q641.3606,508.4199 640.7513,507.8262 Q640.1575,507.2168 639.2044,507.2168 Q637.9856,507.2168 637.2669,508.6543 Q636.5481,510.0762 636.5481,512.2637 Q636.5481,514.6699 637.1575,515.9668 Q637.7825,517.248 639.1419,517.248 Q640.095,517.248 640.7825,516.5605 Q641.47,515.8574 641.7981,514.3574 L642.7044,514.7637 Q642.2981,516.4668 641.3294,517.4199 Q640.3763,518.373 639.0638,518.373 Z " fill="#000000"/><text fill="#000000" font-family="sans-serif" font-size="14" lengthAdjust="spacing" textLength="148" x="653.72" y="518.3105">DefaultChannelPipeline</text><line style="stroke:#181818;stroke-width:0.5;" x1="625.72" x2="803.72" y1="528.5137" y2="528.5137"/><polygon fill="none" points="635.72,539.3242,631.72,545.3242,639.72,545.3242" style="stroke:#1963A0;stroke-width:1.0;"/><text fill="#000000" font-family="sans-serif" font-size="14" lengthAdjust="spacing" textLength="121" x="644.72" y="547.6211">head: HeadContext</text><polygon fill="none" points="635.72,557.9453,631.72,563.9453,639.72,563.9453" style="stroke:#1963A0;stroke-width:1.0;"/><text fill="#000000" font-family="sans-serif" font-size="14" lengthAdjust="spacing" textLength="97" x="644.72" y="566.2422">tail: TailContext</text><line style="stroke:#181818;stroke-width:1.0;stroke-dasharray:1.0,2.0;" x1="625.72" x2="803.72" y1="573.7559" y2="573.7559"/><rect fill="none" height="6" style="stroke:#C82930;stroke-width:1.0;" width="6" x="632.72" y="585.5664"/><text fill="#000000" font-family="sans-serif" font-size="14" lengthAdjust="spacing" textLength="111" x="644.72" y="592.8633">channel: Channel</text></g><!--class AbstractChannelHandlerContext--><g id="elem_AbstractChannelHandlerContext"><rect codeLine="1" fill="#F1F1F1" height="149.1055" id="AbstractChannelHandlerContext" rx="2.5" ry="2.5" style="stroke:#181818;stroke-width:0.5;" width="264" x="325.72" y="474.0137"/><ellipse cx="353.77" cy="490.0137" fill="#A9DCDF" rx="11" ry="11" style="stroke:#181818;stroke-width:1.0;"/><path d="M354.1919,490.498 L351.6294,490.498 L351.0981,492.7949 Q351.0356,493.123 351.0356,493.2793 Q351.0356,493.498 351.0825,493.6543 Q351.145,493.8105 351.4263,493.8105 L351.895,493.8105 L351.895,494.748 L348.9106,494.748 L348.9106,493.8105 L349.3638,493.8105 Q349.5356,493.8105 349.6606,493.7168 Q349.7856,493.6074 349.8325,493.3105 L352.4731,482.9824 L353.8794,482.5137 L356.4575,493.2793 Q356.5669,493.5918 356.6919,493.7012 Q356.8325,493.8105 357.0044,493.8105 L357.4731,493.8105 L357.4731,494.748 L354.0825,494.748 L354.0825,493.8105 L354.6138,493.8105 Q354.8325,493.8105 354.8481,493.7637 Q354.8794,493.7012 354.8794,493.623 Q354.8794,493.4043 354.8325,493.2168 L354.1919,490.498 Z M349.6294,494.3418 L349.6294,494.3418 Z M350.3013,494.3418 L350.3013,494.3418 Z M355.02,494.3418 L355.02,494.3418 Z M356.145,494.3418 L356.145,494.3418 Z M352.9575,484.4043 L353.02,484.4043 L351.9106,489.5605 L354.0044,489.5605 L352.9575,484.4043 Z " fill="#000000"/><text fill="#000000" font-family="sans-serif" font-size="14" font-style="italic" lengthAdjust="spacing" textLength="203" x="370.67" y="495.8105">AbstractChannelHandlerContext</text><line style="stroke:#181818;stroke-width:0.5;" x1="326.72" x2="588.72" y1="506.0137" y2="506.0137"/><rect fill="none" height="6" style="stroke:#C82930;stroke-width:1.0;" width="6" x="333.72" y="517.8242"/><text fill="#000000" font-family="sans-serif" font-size="14" lengthAdjust="spacing" textLength="80" x="345.72" y="525.1211">name: String</text><polygon fill="none" points="336.72,535.4453,332.72,541.4453,340.72,541.4453" style="stroke:#1963A0;stroke-width:1.0;"/><text fill="#000000" font-family="sans-serif" font-size="14" lengthAdjust="spacing" textLength="238" x="345.72" y="543.7422">prev: AbstractChannelHandlerContext</text><polygon fill="none" points="336.72,554.0664,332.72,560.0664,340.72,560.0664" style="stroke:#1963A0;stroke-width:1.0;"/><text fill="#000000" font-family="sans-serif" font-size="14" lengthAdjust="spacing" textLength="236" x="345.72" y="562.3633">next: AbstractChannelHandlerContext</text><line style="stroke:#181818;stroke-width:1.0;stroke-dasharray:1.0,2.0;" x1="326.72" x2="588.72" y1="569.877" y2="569.877"/><rect fill="none" height="6" style="stroke:#C82930;stroke-width:1.0;" width="6" x="333.72" y="581.6875"/><text fill="#000000" font-family="sans-serif" font-size="14" lengthAdjust="spacing" textLength="205" x="345.72" y="588.9844">pipeline: DefaultChannelPipeline</text><line style="stroke:#181818;stroke-width:1.0;stroke-dasharray:1.0,2.0;" x1="326.72" x2="588.72" y1="596.498" y2="596.498"/><polygon fill="none" points="336.72,607.3086,332.72,613.3086,340.72,613.3086" style="stroke:#1963A0;stroke-width:1.0;"/><text fill="#000000" font-family="sans-serif" font-size="14" lengthAdjust="spacing" textLength="153" x="345.72" y="615.6055">executor: EventExecutor</text></g><!--class ChannelHandlerContext--><g id="elem_ChannelHandlerContext"><rect codeLine="1" fill="#F1F1F1" height="32" id="ChannelHandlerContext" rx="2.5" ry="2.5" style="stroke:#181818;stroke-width:0.5;" width="183" x="397.22" y="382.0137"/><ellipse cx="412.22" cy="398.0137" fill="#B4A7E5" rx="11" ry="11" style="stroke:#181818;stroke-width:1.0;"/><path d="M408.8138,392.7949 L408.8138,391.8574 L414.6575,391.8574 L414.6575,392.7949 L412.8606,392.7949 Q412.6888,392.7949 412.6106,392.8574 Q412.5325,392.9199 412.5325,393.0605 L412.5325,402.5449 Q412.5325,402.6855 412.6106,402.748 Q412.6888,402.8105 412.8606,402.8105 L414.6575,402.8105 L414.6575,403.748 L408.8138,403.748 L408.8138,402.8105 L410.6106,402.8105 Q410.8294,402.8105 410.8763,402.7637 Q410.9388,402.7012 410.9388,402.5449 L410.9388,393.0605 Q410.9388,392.9043 410.8763,392.8574 Q410.8294,392.7949 410.6106,392.7949 L408.8138,392.7949 Z " fill="#000000"/><text fill="#000000" font-family="sans-serif" font-size="14" font-style="italic" lengthAdjust="spacing" textLength="151" x="426.22" y="403.8105">ChannelHandlerContext</text></g><!--class DefaultChannelHandlerContext--><g id="elem_DefaultChannelHandlerContext"><rect codeLine="1" fill="#F1F1F1" height="85.2422" id="DefaultChannelHandlerContext" rx="2.5" ry="2.5" style="stroke:#181818;stroke-width:0.5;" width="227" x="344.22" y="687.0137"/><ellipse cx="359.22" cy="703.0137" fill="#ADD1B2" rx="11" ry="11" style="stroke:#181818;stroke-width:1.0;"/><path d="M358.5638,708.873 Q356.5794,708.873 355.4075,707.4043 Q354.2513,705.9199 354.2513,702.8418 Q354.2513,700.2324 355.47,698.4824 Q356.7044,696.7324 358.8294,696.7324 Q359.3294,696.7324 359.8606,696.873 Q360.2981,697.0605 360.5638,697.0605 Q360.7825,697.0605 360.8763,697.0137 Q360.9856,696.9668 361.4388,696.373 L362.2044,700.1074 L361.3138,700.373 Q360.8606,698.9199 360.2513,698.3262 Q359.6575,697.7168 358.7044,697.7168 Q357.4856,697.7168 356.7669,699.1543 Q356.0481,700.5762 356.0481,702.7637 Q356.0481,705.1699 356.6575,706.4668 Q357.2825,707.748 358.6419,707.748 Q359.595,707.748 360.2825,707.0605 Q360.97,706.3574 361.2981,704.8574 L362.2044,705.2637 Q361.7981,706.9668 360.8294,707.9199 Q359.8763,708.873 358.5638,708.873 Z " fill="#000000"/><text fill="#000000" font-family="sans-serif" font-size="14" lengthAdjust="spacing" textLength="195" x="373.22" y="708.8105">DefaultChannelHandlerContext</text><line style="stroke:#181818;stroke-width:0.5;" x1="345.22" x2="570.22" y1="719.0137" y2="719.0137"/><rect fill="none" height="6" style="stroke:#C82930;stroke-width:1.0;" width="6" x="352.22" y="730.8242"/><text fill="#000000" font-family="sans-serif" font-size="14" lengthAdjust="spacing" textLength="158" x="364.22" y="738.1211">handler: ChannelHandler</text><line style="stroke:#181818;stroke-width:1.0;" x1="345.22" x2="570.22" y1="745.6348" y2="745.6348"/><ellipse cx="355.22" cy="760.4453" fill="#84BE84" rx="3" ry="3" style="stroke:#038048;stroke-width:1.0;"/><text fill="#000000" font-family="sans-serif" font-size="14" lengthAdjust="spacing" textLength="168" x="364.22" y="764.7422">handler(): ChannelHandler</text></g><!--class HeadContext--><g id="elem_HeadContext"><rect codeLine="1" fill="#F1F1F1" height="85.2422" id="HeadContext" rx="2.5" ry="2.5" style="stroke:#181818;stroke-width:0.5;" width="179" x="292.22" y="1228.0137"/><ellipse cx="336.97" cy="1244.0137" fill="#ADD1B2" rx="11" ry="11" style="stroke:#181818;stroke-width:1.0;"/><path d="M336.3138,1249.873 Q334.3294,1249.873 333.1575,1248.4043 Q332.0013,1246.9199 332.0013,1243.8418 Q332.0013,1241.2324 333.22,1239.4824 Q334.4544,1237.7324 336.5794,1237.7324 Q337.0794,1237.7324 337.6106,1237.873 Q338.0481,1238.0605 338.3138,1238.0605 Q338.5325,1238.0605 338.6263,1238.0137 Q338.7356,1237.9668 339.1888,1237.373 L339.9544,1241.1074 L339.0638,1241.373 Q338.6106,1239.9199 338.0013,1239.3262 Q337.4075,1238.7168 336.4544,1238.7168 Q335.2356,1238.7168 334.5169,1240.1543 Q333.7981,1241.5762 333.7981,1243.7637 Q333.7981,1246.1699 334.4075,1247.4668 Q335.0325,1248.748 336.3919,1248.748 Q337.345,1248.748 338.0325,1248.0605 Q338.72,1247.3574 339.0481,1245.8574 L339.9544,1246.2637 Q339.5481,1247.9668 338.5794,1248.9199 Q337.6263,1249.873 336.3138,1249.873 Z " fill="#000000"/><text fill="#000000" font-family="sans-serif" font-size="14" lengthAdjust="spacing" textLength="81" x="357.47" y="1249.8105">HeadContext</text><line style="stroke:#181818;stroke-width:0.5;" x1="293.22" x2="470.22" y1="1260.0137" y2="1260.0137"/><rect fill="none" height="6" style="stroke:#C82930;stroke-width:1.0;" width="6" x="300.22" y="1271.8242"/><text fill="#000000" font-family="sans-serif" font-size="14" lengthAdjust="spacing" textLength="95" x="312.22" y="1279.1211">unsafe: Unsafe</text><line style="stroke:#181818;stroke-width:1.0;" x1="293.22" x2="470.22" y1="1286.6348" y2="1286.6348"/><rect fill="#F24D5C" height="6" style="stroke:#C82930;stroke-width:1.0;" width="6" x="300.22" y="1298.4453"/><text fill="#000000" font-family="sans-serif" font-size="14" lengthAdjust="spacing" textLength="153" x="312.22" y="1305.7422">readIfIsAutoRead(): void</text></g><!--class TailContext--><g id="elem_TailContext"><rect codeLine="1" fill="#F1F1F1" height="32" id="TailContext" rx="2.5" ry="2.5" style="stroke:#181818;stroke-width:0.5;" width="103" x="952.22" y="1254.5137"/><ellipse cx="967.22" cy="1270.5137" fill="#ADD1B2" rx="11" ry="11" style="stroke:#181818;stroke-width:1.0;"/><path d="M966.5638,1276.373 Q964.5794,1276.373 963.4075,1274.9043 Q962.2513,1273.4199 962.2513,1270.3418 Q962.2513,1267.7324 963.47,1265.9824 Q964.7044,1264.2324 966.8294,1264.2324 Q967.3294,1264.2324 967.8606,1264.373 Q968.2981,1264.5605 968.5638,1264.5605 Q968.7825,1264.5605 968.8763,1264.5137 Q968.9856,1264.4668 969.4388,1263.873 L970.2044,1267.6074 L969.3138,1267.873 Q968.8606,1266.4199 968.2513,1265.8262 Q967.6575,1265.2168 966.7044,1265.2168 Q965.4856,1265.2168 964.7669,1266.6543 Q964.0481,1268.0762 964.0481,1270.2637 Q964.0481,1272.6699 964.6575,1273.9668 Q965.2825,1275.248 966.6419,1275.248 Q967.595,1275.248 968.2825,1274.5605 Q968.97,1273.8574 969.2981,1272.3574 L970.2044,1272.7637 Q969.7981,1274.4668 968.8294,1275.4199 Q967.8763,1276.373 966.5638,1276.373 Z " fill="#000000"/><text fill="#000000" font-family="sans-serif" font-size="14" lengthAdjust="spacing" textLength="71" x="981.22" y="1276.3105">TailContext</text></g><!--class ChannelHandler--><g id="elem_ChannelHandler"><rect codeLine="1" fill="#F1F1F1" height="32" id="ChannelHandler" rx="2.5" ry="2.5" style="stroke:#181818;stroke-width:0.5;" width="135" x="391.22" y="836.0137"/><ellipse cx="406.22" cy="852.0137" fill="#B4A7E5" rx="11" ry="11" style="stroke:#181818;stroke-width:1.0;"/><path d="M402.8138,846.7949 L402.8138,845.8574 L408.6575,845.8574 L408.6575,846.7949 L406.8606,846.7949 Q406.6888,846.7949 406.6106,846.8574 Q406.5325,846.9199 406.5325,847.0605 L406.5325,856.5449 Q406.5325,856.6855 406.6106,856.748 Q406.6888,856.8105 406.8606,856.8105 L408.6575,856.8105 L408.6575,857.748 L402.8138,857.748 L402.8138,856.8105 L404.6106,856.8105 Q404.8294,856.8105 404.8763,856.7637 Q404.9388,856.7012 404.9388,856.5449 L404.9388,847.0605 Q404.9388,846.9043 404.8763,846.8574 Q404.8294,846.7949 404.6106,846.7949 L402.8138,846.7949 Z " fill="#000000"/><text fill="#000000" font-family="sans-serif" font-size="14" font-style="italic" lengthAdjust="spacing" textLength="103" x="420.22" y="857.8105">ChannelHandler</text></g><!--class ChannelInboundHandler--><g id="elem_ChannelInboundHandler"><rect codeLine="1" fill="#F1F1F1" height="239.5898" id="ChannelInboundHandler" rx="2.5" ry="2.5" style="stroke:#181818;stroke-width:0.5;" width="400" x="711.72" y="928.0137"/><ellipse cx="829.97" cy="944.0137" fill="#B4A7E5" rx="11" ry="11" style="stroke:#181818;stroke-width:1.0;"/><path d="M826.5638,938.7949 L826.5638,937.8574 L832.4075,937.8574 L832.4075,938.7949 L830.6106,938.7949 Q830.4388,938.7949 830.3606,938.8574 Q830.2825,938.9199 830.2825,939.0605 L830.2825,948.5449 Q830.2825,948.6855 830.3606,948.748 Q830.4388,948.8105 830.6106,948.8105 L832.4075,948.8105 L832.4075,949.748 L826.5638,949.748 L826.5638,948.8105 L828.3606,948.8105 Q828.5794,948.8105 828.6263,948.7637 Q828.6888,948.7012 828.6888,948.5449 L828.6888,939.0605 Q828.6888,938.9043 828.6263,938.8574 Q828.5794,938.7949 828.3606,938.7949 L826.5638,938.7949 Z " fill="#000000"/><text fill="#000000" font-family="sans-serif" font-size="14" font-style="italic" lengthAdjust="spacing" textLength="155" x="850.47" y="949.8105">ChannelInboundHandler</text><line style="stroke:#181818;stroke-width:0.5;" x1="712.72" x2="1110.72" y1="960.0137" y2="960.0137"/><ellipse cx="722.72" cy="974.8242" fill="#84BE84" rx="3" ry="3" style="stroke:#038048;stroke-width:1.0;"/><text fill="#000000" font-family="sans-serif" font-size="14" font-style="italic" lengthAdjust="spacing" textLength="313" x="731.72" y="979.1211">channelRegistered(ChannelHandlerContext): void</text><ellipse cx="722.72" cy="993.4453" fill="#84BE84" rx="3" ry="3" style="stroke:#038048;stroke-width:1.0;"/><text fill="#000000" font-family="sans-serif" font-size="14" font-style="italic" lengthAdjust="spacing" textLength="326" x="731.72" y="997.7422">channelUnregistered(ChannelHandlerContext): void</text><line style="stroke:#181818;stroke-width:1.0;stroke-dasharray:1.0,2.0;" x1="712.72" x2="1110.72" y1="1005.2559" y2="1005.2559"/><ellipse cx="722.72" cy="1020.0664" fill="#84BE84" rx="3" ry="3" style="stroke:#038048;stroke-width:1.0;"/><text fill="#000000" font-family="sans-serif" font-size="14" font-style="italic" lengthAdjust="spacing" textLength="281" x="731.72" y="1024.3633">channelActive(ChannelHandlerContext): void</text><ellipse cx="722.72" cy="1038.6875" fill="#84BE84" rx="3" ry="3" style="stroke:#038048;stroke-width:1.0;"/><text fill="#000000" font-family="sans-serif" font-size="14" font-style="italic" lengthAdjust="spacing" textLength="292" x="731.72" y="1042.9844">channelInactive(ChannelHandlerContext): void</text><line style="stroke:#181818;stroke-width:1.0;stroke-dasharray:1.0,2.0;" x1="712.72" x2="1110.72" y1="1050.498" y2="1050.498"/><ellipse cx="722.72" cy="1065.3086" fill="#84BE84" rx="3" ry="3" style="stroke:#038048;stroke-width:1.0;"/><text fill="#000000" font-family="sans-serif" font-size="14" font-style="italic" lengthAdjust="spacing" textLength="327" x="731.72" y="1069.6055">channelRead(ChannelHandlerContext, Object): void</text><ellipse cx="722.72" cy="1083.9297" fill="#84BE84" rx="3" ry="3" style="stroke:#038048;stroke-width:1.0;"/><text fill="#000000" font-family="sans-serif" font-size="14" font-style="italic" lengthAdjust="spacing" textLength="338" x="731.72" y="1088.2266">channelReadComplete(ChannelHandlerContext): void</text><ellipse cx="722.72" cy="1102.5508" fill="#84BE84" rx="3" ry="3" style="stroke:#038048;stroke-width:1.0;"/><text fill="#000000" font-family="sans-serif" font-size="14" font-style="italic" lengthAdjust="spacing" textLength="364" x="731.72" y="1106.8477">channelWritabilityChanged(ChannelHandlerContext): void</text><line style="stroke:#181818;stroke-width:1.0;stroke-dasharray:1.0,2.0;" x1="712.72" x2="1110.72" y1="1114.3613" y2="1114.3613"/><ellipse cx="722.72" cy="1129.1719" fill="#84BE84" rx="3" ry="3" style="stroke:#038048;stroke-width:1.0;"/><text fill="#000000" font-family="sans-serif" font-size="14" font-style="italic" lengthAdjust="spacing" textLength="374" x="731.72" y="1133.4688">exceptionCaught(ChannelHandlerContext, Throwable): void</text><line style="stroke:#181818;stroke-width:1.0;stroke-dasharray:1.0,2.0;" x1="712.72" x2="1110.72" y1="1140.9824" y2="1140.9824"/><ellipse cx="722.72" cy="1155.793" fill="#84BE84" rx="3" ry="3" style="stroke:#038048;stroke-width:1.0;"/><text fill="#000000" font-family="sans-serif" font-size="14" font-style="italic" lengthAdjust="spacing" textLength="368" x="731.72" y="1160.0898">userEventTriggered(ChannelHandlerContext, Object): void</text></g><!--class ChannelOutboundHandler--><g id="elem_ChannelOutboundHandler"><rect codeLine="1" fill="#F1F1F1" height="196.9688" id="ChannelOutboundHandler" rx="2.5" ry="2.5" style="stroke:#181818;stroke-width:0.5;" width="590" x="86.72" y="949.5137"/><ellipse cx="294.47" cy="965.5137" fill="#B4A7E5" rx="11" ry="11" style="stroke:#181818;stroke-width:1.0;"/><path d="M291.0638,960.2949 L291.0638,959.3574 L296.9075,959.3574 L296.9075,960.2949 L295.1106,960.2949 Q294.9388,960.2949 294.8606,960.3574 Q294.7825,960.4199 294.7825,960.5605 L294.7825,970.0449 Q294.7825,970.1855 294.8606,970.248 Q294.9388,970.3105 295.1106,970.3105 L296.9075,970.3105 L296.9075,971.248 L291.0638,971.248 L291.0638,970.3105 L292.8606,970.3105 Q293.0794,970.3105 293.1263,970.2637 Q293.1888,970.2012 293.1888,970.0449 L293.1888,960.5605 Q293.1888,960.4043 293.1263,960.3574 Q293.0794,960.2949 292.8606,960.2949 L291.0638,960.2949 Z " fill="#000000"/><text fill="#000000" font-family="sans-serif" font-size="14" font-style="italic" lengthAdjust="spacing" textLength="166" x="314.97" y="971.3105">ChannelOutboundHandler</text><line style="stroke:#181818;stroke-width:0.5;" x1="87.72" x2="675.72" y1="981.5137" y2="981.5137"/><ellipse cx="97.72" cy="996.3242" fill="#84BE84" rx="3" ry="3" style="stroke:#038048;stroke-width:1.0;"/><text fill="#000000" font-family="sans-serif" font-size="14" font-style="italic" lengthAdjust="spacing" textLength="437" x="106.72" y="1000.6211">bind(ChannelHandlerContext, SocketAddress, ChannelPromise): void</text><ellipse cx="97.72" cy="1014.9453" fill="#84BE84" rx="3" ry="3" style="stroke:#038048;stroke-width:1.0;"/><text fill="#000000" font-family="sans-serif" font-size="14" font-style="italic" lengthAdjust="spacing" textLength="564" x="106.72" y="1019.2422">connect(ChannelHandlerContext, SocketAddress, SocketAddress, ChannelPromise): void</text><ellipse cx="97.72" cy="1033.5664" fill="#84BE84" rx="3" ry="3" style="stroke:#038048;stroke-width:1.0;"/><text fill="#000000" font-family="sans-serif" font-size="14" font-style="italic" lengthAdjust="spacing" textLength="374" x="106.72" y="1037.8633">disconnect(ChannelHandlerContext, ChannelPromise): void</text><ellipse cx="97.72" cy="1052.1875" fill="#84BE84" rx="3" ry="3" style="stroke:#038048;stroke-width:1.0;"/><text fill="#000000" font-family="sans-serif" font-size="14" font-style="italic" lengthAdjust="spacing" textLength="339" x="106.72" y="1056.4844">close(ChannelHandlerContext, ChannelPromise): void</text><ellipse cx="97.72" cy="1070.8086" fill="#84BE84" rx="3" ry="3" style="stroke:#038048;stroke-width:1.0;"/><text fill="#000000" font-family="sans-serif" font-size="14" font-style="italic" lengthAdjust="spacing" textLength="370" x="106.72" y="1075.1055">deregister(ChannelHandlerContext, ChannelPromise): void</text><line style="stroke:#181818;stroke-width:1.0;stroke-dasharray:1.0,2.0;" x1="87.72" x2="675.72" y1="1082.6191" y2="1082.6191"/><ellipse cx="97.72" cy="1097.4297" fill="#84BE84" rx="3" ry="3" style="stroke:#038048;stroke-width:1.0;"/><text fill="#000000" font-family="sans-serif" font-size="14" font-style="italic" lengthAdjust="spacing" textLength="223" x="106.72" y="1101.7266">read(ChannelHandlerContext): void</text><ellipse cx="97.72" cy="1116.0508" fill="#84BE84" rx="3" ry="3" style="stroke:#038048;stroke-width:1.0;"/><text fill="#000000" font-family="sans-serif" font-size="14" font-style="italic" lengthAdjust="spacing" textLength="384" x="106.72" y="1120.3477">write(ChannelHandlerContext, Object, ChannelPromise): void</text><ellipse cx="97.72" cy="1134.6719" fill="#84BE84" rx="3" ry="3" style="stroke:#038048;stroke-width:1.0;"/><text fill="#000000" font-family="sans-serif" font-size="14" font-style="italic" lengthAdjust="spacing" textLength="224" x="106.72" y="1138.9688">flush(ChannelHandlerContext): void</text></g><!--reverse link Channel to AbstractChannel--><g id="link_Channel_AbstractChannel"><path codeLine="23" d="M935.4639,431.804 C938.9739,451.854 942.24,470.5337 947.45,500.2637 " fill="none" id="Channel-backto-AbstractChannel" style="stroke:#181818;stroke-width:1.0;stroke-dasharray:7.0,7.0;"/><polygon fill="none" points="932.36,414.0737,929.5538,432.8387,941.374,430.7694,932.36,414.0737" style="stroke:#181818;stroke-width:1.0;"/></g><!--reverse link ChannelHandlerContext to AbstractChannelHandlerContext--><g id="link_ChannelHandlerContext_AbstractChannelHandlerContext"><path codeLine="24" d="M481.9015,431.6938 C478.9015,446.0638 477.82,451.2337 473.08,473.9337 " fill="none" id="ChannelHandlerContext-backto-AbstractChannelHandlerContext" style="stroke:#181818;stroke-width:1.0;stroke-dasharray:7.0,7.0;"/><polygon fill="none" points="485.58,414.0737,476.0281,430.4676,487.7749,432.92,485.58,414.0737" style="stroke:#181818;stroke-width:1.0;"/></g><!--reverse link ChannelOutboundInvoker to Channel--><g id="link_ChannelOutboundInvoker_Channel"><path codeLine="25" d="M923.0376,339.921 C925.8876,364.211 926.35,368.2137 927.96,381.9737 " fill="none" id="ChannelOutboundInvoker-backto-Channel" style="stroke:#181818;stroke-width:1.0;"/><polygon fill="none" points="920.94,322.0437,917.0785,340.6202,928.9967,339.2218,920.94,322.0437" style="stroke:#181818;stroke-width:1.0;"/></g><!--reverse link ChannelInboundInvoker to ChannelHandlerContext--><g id="link_ChannelInboundInvoker_ChannelHandlerContext"><path codeLine="26" d="M488.72,320.7437 C488.72,352.4637 488.72,364.6837 488.72,382.0137 " fill="none" id="ChannelInboundInvoker-backto-ChannelHandlerContext" style="stroke:#181818;stroke-width:1.0;"/><polygon fill="none" points="488.72,302.7437,482.72,320.7437,494.72,320.7437,488.72,302.7437" style="stroke:#181818;stroke-width:1.0;"/></g><!--reverse link ChannelOutboundInvoker to ChannelHandlerContext--><g id="link_ChannelOutboundInvoker_ChannelHandlerContext"><path codeLine="27" d="M702.758,321.2616 C696.798,324.5216 706.64,319.0237 700.72,322.0137 C649.51,347.9137 587.21,368.8037 543.44,381.8837 " fill="none" id="ChannelOutboundInvoker-backto-ChannelHandlerContext" style="stroke:#181818;stroke-width:1.0;"/><polygon fill="none" points="718.55,312.6237,699.8787,315.9976,705.6373,326.5256,718.55,312.6237" style="stroke:#181818;stroke-width:1.0;"/></g><!--reverse link ChannelHandler to ChannelInboundHandler--><g id="link_ChannelHandler_ChannelInboundHandler"><path codeLine="28" d="M533.9425,872.7982 C582.4325,886.1682 635.64,902.7137 694.72,928.0137 C700.35,930.4237 706.02,932.9337 711.72,935.5237 " fill="none" id="ChannelHandler-backto-ChannelInboundHandler" style="stroke:#181818;stroke-width:1.0;"/><polygon fill="none" points="516.59,868.0137,532.3476,878.5824,535.5373,867.0141,516.59,868.0137" style="stroke:#181818;stroke-width:1.0;"/></g><!--reverse link ChannelHandler to ChannelOutboundHandler--><g id="link_ChannelHandler_ChannelOutboundHandler"><path codeLine="29" d="M446.0384,884.9635 C438.9084,902.9235 433.08,917.6037 420.57,949.1337 " fill="none" id="ChannelHandler-backto-ChannelOutboundHandler" style="stroke:#181818;stroke-width:1.0;"/><polygon fill="none" points="452.68,868.2337,440.4617,882.7497,451.615,887.1774,452.68,868.2337" style="stroke:#181818;stroke-width:1.0;"/></g><!--reverse link ChannelInboundInvoker to ChannelPipeline--><g id="link_ChannelInboundInvoker_ChannelPipeline"><path codeLine="30" d="M628.0215,315.1079 C661.5815,346.8279 680.49,364.6837 698.84,382.0137 " fill="none" id="ChannelInboundInvoker-backto-ChannelPipeline" style="stroke:#181818;stroke-width:1.0;"/><polygon fill="none" points="614.94,302.7437,623.9001,319.4684,632.1429,310.7474,614.94,302.7437" style="stroke:#181818;stroke-width:1.0;"/></g><!--reverse link ChannelOutboundInvoker to ChannelPipeline--><g id="link_ChannelOutboundInvoker_ChannelPipeline"><path codeLine="31" d="M769.4725,335.4891 C747.8525,359.7791 740.35,368.2137 728.1,381.9737 " fill="none" id="ChannelOutboundInvoker-backto-ChannelPipeline" style="stroke:#181818;stroke-width:1.0;"/><polygon fill="none" points="781.44,322.0437,764.9907,331.4999,773.9543,339.4783,781.44,322.0437" style="stroke:#181818;stroke-width:1.0;"/></g><!--reverse link AbstractChannelHandlerContext to DefaultChannelHandlerContext--><g id="link_AbstractChannelHandlerContext_DefaultChannelHandlerContext"><path codeLine="32" d="M457.72,641.0937 C457.72,661.3437 457.72,664.7137 457.72,682.8837 " fill="none" id="AbstractChannelHandlerContext-backto-DefaultChannelHandlerContext" style="stroke:#181818;stroke-width:1.0;"/><polygon fill="none" points="457.72,623.0937,451.72,641.0937,463.72,641.0937,457.72,623.0937" style="stroke:#181818;stroke-width:1.0;"/></g><!--reverse link ChannelPipeline to DefaultChannelPipeline--><g id="link_ChannelPipeline_DefaultChannelPipeline"><path codeLine="33" d="M714.72,432.0737 C714.72,451.2437 714.72,467.3537 714.72,496.2837 " fill="none" id="ChannelPipeline-backto-DefaultChannelPipeline" style="stroke:#181818;stroke-width:1.0;stroke-dasharray:7.0,7.0;"/><polygon fill="none" points="714.72,414.0737,708.72,432.0737,720.72,432.0737,714.72,414.0737" style="stroke:#181818;stroke-width:1.0;"/></g><!--reverse link AbstractChannelHandlerContext to HeadContext--><g id="link_AbstractChannelHandlerContext_HeadContext"><path codeLine="34" d="M326.8475,633.5485 C233.3675,700.2485 123.56,797.4837 68.72,928.0137 C27.4,1026.3537 6,1081.7337 68.72,1168.0137 C119.36,1237.6737 218.9,1260.4837 292.18,1267.4737 " fill="none" id="AbstractChannelHandlerContext-backto-HeadContext" style="stroke:#181818;stroke-width:1.0;"/><polygon fill="none" points="341.5,623.0937,323.3625,628.6644,330.3325,638.4327,341.5,623.0937" style="stroke:#181818;stroke-width:1.0;"/></g><!--reverse link ChannelOutboundHandler to HeadContext--><g id="link_ChannelOutboundHandler_HeadContext"><path codeLine="35" d="M381.72,1164.6937 C381.72,1193.2637 381.72,1204.9737 381.72,1228.0137 " fill="none" id="ChannelOutboundHandler-backto-HeadContext" style="stroke:#181818;stroke-width:1.0;stroke-dasharray:7.0,7.0;"/><polygon fill="none" points="381.72,1146.6937,375.72,1164.6937,387.72,1164.6937,381.72,1146.6937" style="stroke:#181818;stroke-width:1.0;"/></g><!--reverse link ChannelInboundHandler to HeadContext--><g id="link_ChannelInboundHandler_HeadContext"><path codeLine="36" d="M695.3391,1167.9584 C689.6491,1170.5684 700.34,1165.5837 694.72,1168.0137 C621.43,1199.6637 534.88,1227.0037 471.39,1245.3137 " fill="none" id="ChannelInboundHandler-backto-HeadContext" style="stroke:#181818;stroke-width:1.0;stroke-dasharray:7.0,7.0;"/><polygon fill="none" points="711.7,1160.4537,692.8375,1162.5048,697.8407,1173.412,711.7,1160.4537" style="stroke:#181818;stroke-width:1.0;"/></g><!--reverse link AbstractChannelHandlerContext to TailContext--><g id="link_AbstractChannelHandlerContext_TailContext"><path codeLine="37" d="M605.9492,622.9245 C792.8592,716.6845 1099.19,875.7737 1129.72,928.0137 C1183.54,1020.1037 1175.76,1071.7937 1129.72,1168.0137 C1110.32,1208.5537 1065.95,1238.0637 1035.4,1254.5037 " fill="none" id="AbstractChannelHandlerContext-backto-TailContext" style="stroke:#181818;stroke-width:1.0;"/><polygon fill="none" points="589.86,614.8537,603.2589,628.2876,608.6395,617.5615,589.86,614.8537" style="stroke:#181818;stroke-width:1.0;"/></g><!--reverse link ChannelInboundHandler to TailContext--><g id="link_ChannelInboundHandler_TailContext"><path codeLine="38" d="M968.4206,1184.9059 C982.7306,1219.2059 989.62,1235.7237 997.36,1254.2737 " fill="none" id="ChannelInboundHandler-backto-TailContext" style="stroke:#181818;stroke-width:1.0;stroke-dasharray:7.0,7.0;"/><polygon fill="none" points="961.49,1168.2937,962.8832,1187.2161,973.9581,1182.5957,961.49,1168.2937" style="stroke:#181818;stroke-width:1.0;"/></g><!--link DefaultChannelHandlerContext to ChannelHandler--><g id="link_DefaultChannelHandlerContext_ChannelHandler"><path codeLine="40" d="M572.72,732.5137 C592.06,732.5137 581.06,759.0837 571.72,776.0137 C556.09,804.3637 530.088,821.3583 504.328,833.3683 " fill="none" id="DefaultChannelHandlerContext-to-ChannelHandler" style="stroke:#181818;stroke-width:1.0;"/><polygon fill="#181818" points="498.89,835.9037,508.7373,835.726,503.4217,833.7909,505.3568,828.4753,498.89,835.9037" style="stroke:#181818;stroke-width:1.0;"/></g><!--SRC=[bLL1RiCW4Bpp2dBAoVZEeLALLegbIisX7y3s9aR161c86hNzUotP98RQbEIKB3FhOMV7sQYUdLg6hOP26kXRg3apS63LcPr0uoCJ6X1YfJOzgmok1DCQyuv8CEPAgeP92O8yJ-UxyJV-GdZuPBocU2eLzLXIN87W4YX-WIEpmb4EKtr4mGMaUUiwHV6h-uf-4DfmMGbR0oOadvwTbqppAf_Q46LRiGZZyjATeNV0GfQTbNKnLfDfxzQayTmzy-1-2OpbmIGG0nVsJDO2-bqt6FjfqgK-pFC5FqpV0wlJqH-CYt_HpQWXk54oVbgEHsbkEJmU2hD1h2BVJouNA6fQ0FOFaUkOMPNTGS6AekN6FiTFGn9bvJ7-w0BEL4NByug3NGwIbA-0GysnnNNKg3zeEQk1RRTtsspJqzhF2NxFO7OHfEy8ckKdJSES4EqS7IUbZNCv-sFnDb10gRePEA1N_YcsKTs9FPRhb5OkMtUr23LyoBzBNGjj2RtsYi4AHI3-6RJAN5tf5m00]--></g></svg>