<?xml version="1.0" encoding="us-ascii" standalone="no"?><svg xmlns="http://www.w3.org/2000/svg" xmlns:xlink="http://www.w3.org/1999/xlink" contentStyleType="text/css" height="507px" preserveAspectRatio="none" style="width:1007px;height:507px;background:#FFFFFF;" version="1.1" viewBox="0 0 1007 507" width="1007px" zoomAndPan="magnify"><defs/><g><!--cluster channel--><g id="cluster_channel"><path d="M8.5,6.0137 L121.5,6.0137 A3.75,3.75 0 0 1 124,8.5137 L131,30.6348 L997.5,30.6348 A2.5,2.5 0 0 1 1000,33.1348 L1000,497.5137 A2.5,2.5 0 0 1 997.5,500.0137 L8.5,500.0137 A2.5,2.5 0 0 1 6,497.5137 L6,8.5137 A2.5,2.5 0 0 1 8.5,6.0137 " fill="none" style="stroke:#000000;stroke-width:1.5;"/><line style="stroke:#000000;stroke-width:1.5;" x1="6" x2="131" y1="30.6348" y2="30.6348"/><text fill="#000000" font-family="sans-serif" font-size="14" font-weight="bold" lengthAdjust="spacing" textLength="112" x="10" y="23.1211">io.netty.channel</text></g><!--cluster nio--><g id="cluster_nio"><path d="M282.5,98.0137 L305.5,98.0137 A3.75,3.75 0 0 1 308,100.5137 L315,122.6348 L973.5,122.6348 A2.5,2.5 0 0 1 976,125.1348 L976,364.5137 A2.5,2.5 0 0 1 973.5,367.0137 L282.5,367.0137 A2.5,2.5 0 0 1 280,364.5137 L280,100.5137 A2.5,2.5 0 0 1 282.5,98.0137 " fill="none" style="stroke:#000000;stroke-width:1.5;"/><line style="stroke:#000000;stroke-width:1.5;" x1="280" x2="315" y1="122.6348" y2="122.6348"/><text fill="#000000" font-family="sans-serif" font-size="14" font-weight="bold" lengthAdjust="spacing" textLength="22" x="284" y="115.1211">nio</text></g><!--cluster nio--><g id="cluster_nio"><path d="M267.5,391.0137 L341.5,391.0137 A3.75,3.75 0 0 1 344,393.5137 L351,415.6348 L610.5,415.6348 A2.5,2.5 0 0 1 613,418.1348 L613,473.5137 A2.5,2.5 0 0 1 610.5,476.0137 L267.5,476.0137 A2.5,2.5 0 0 1 265,473.5137 L265,393.5137 A2.5,2.5 0 0 1 267.5,391.0137 " fill="none" style="stroke:#000000;stroke-width:1.5;"/><line style="stroke:#000000;stroke-width:1.5;" x1="265" x2="351" y1="415.6348" y2="415.6348"/><text fill="#000000" font-family="sans-serif" font-size="14" font-weight="bold" lengthAdjust="spacing" textLength="73" x="269" y="408.1211">socket.nio</text></g><!--class AbstractChannel$AbstractUnsafe--><g id="elem_AbstractChannel$AbstractUnsafe"><rect codeLine="1" fill="#F1F1F1" height="32" id="AbstractChannel$AbstractUnsafe" rx="2.5" ry="2.5" style="stroke:#181818;stroke-width:0.5;" width="242" x="22" y="135.0137"/><ellipse cx="37" cy="151.0137" fill="#A9DCDF" rx="11" ry="11" style="stroke:#181818;stroke-width:1.0;"/><path d="M37.4219,151.498 L34.8594,151.498 L34.3281,153.7949 Q34.2656,154.123 34.2656,154.2793 Q34.2656,154.498 34.3125,154.6543 Q34.375,154.8105 34.6563,154.8105 L35.125,154.8105 L35.125,155.748 L32.1406,155.748 L32.1406,154.8105 L32.5938,154.8105 Q32.7656,154.8105 32.8906,154.7168 Q33.0156,154.6074 33.0625,154.3105 L35.7031,143.9824 L37.1094,143.5137 L39.6875,154.2793 Q39.7969,154.5918 39.9219,154.7012 Q40.0625,154.8105 40.2344,154.8105 L40.7031,154.8105 L40.7031,155.748 L37.3125,155.748 L37.3125,154.8105 L37.8438,154.8105 Q38.0625,154.8105 38.0781,154.7637 Q38.1094,154.7012 38.1094,154.623 Q38.1094,154.4043 38.0625,154.2168 L37.4219,151.498 Z M32.8594,155.3418 L32.8594,155.3418 Z M33.5313,155.3418 L33.5313,155.3418 Z M38.25,155.3418 L38.25,155.3418 Z M39.375,155.3418 L39.375,155.3418 Z M36.1875,145.4043 L36.25,145.4043 L35.1406,150.5605 L37.2344,150.5605 L36.1875,145.4043 Z " fill="#000000"/><text fill="#000000" font-family="sans-serif" font-size="14" font-style="italic" lengthAdjust="spacing" textLength="210" x="51" y="156.8105">AbstractChannel$AbstractUnsafe</text></g><!--class Channel$Unsafe--><g id="elem_Channel$Unsafe"><rect codeLine="1" fill="#F1F1F1" height="32" id="Channel$Unsafe" rx="2.5" ry="2.5" style="stroke:#181818;stroke-width:0.5;" width="138" x="215" y="43.0137"/><ellipse cx="230" cy="59.0137" fill="#B4A7E5" rx="11" ry="11" style="stroke:#181818;stroke-width:1.0;"/><path d="M226.5938,53.7949 L226.5938,52.8574 L232.4375,52.8574 L232.4375,53.7949 L230.6406,53.7949 Q230.4688,53.7949 230.3906,53.8574 Q230.3125,53.9199 230.3125,54.0605 L230.3125,63.5449 Q230.3125,63.6855 230.3906,63.748 Q230.4688,63.8105 230.6406,63.8105 L232.4375,63.8105 L232.4375,64.748 L226.5938,64.748 L226.5938,63.8105 L228.3906,63.8105 Q228.6094,63.8105 228.6563,63.7637 Q228.7188,63.7012 228.7188,63.5449 L228.7188,54.0605 Q228.7188,53.9043 228.6563,53.8574 Q228.6094,53.7949 228.3906,53.7949 L226.5938,53.7949 Z " fill="#000000"/><text fill="#000000" font-family="sans-serif" font-size="14" font-style="italic" lengthAdjust="spacing" textLength="106" x="244" y="64.8105">Channel$Unsafe</text></g><!--class AbstractNioChannel$AbstractNioUnsafe--><g id="elem_AbstractNioChannel$AbstractNioUnsafe"><rect codeLine="1" fill="#F1F1F1" height="32" id="AbstractNioChannel$AbstractNioUnsafe" rx="2.5" ry="2.5" style="stroke:#181818;stroke-width:0.5;" width="284" x="296" y="227.0137"/><ellipse cx="311" cy="243.0137" fill="#A9DCDF" rx="11" ry="11" style="stroke:#181818;stroke-width:1.0;"/><path d="M311.4219,243.498 L308.8594,243.498 L308.3281,245.7949 Q308.2656,246.123 308.2656,246.2793 Q308.2656,246.498 308.3125,246.6543 Q308.375,246.8105 308.6563,246.8105 L309.125,246.8105 L309.125,247.748 L306.1406,247.748 L306.1406,246.8105 L306.5938,246.8105 Q306.7656,246.8105 306.8906,246.7168 Q307.0156,246.6074 307.0625,246.3105 L309.7031,235.9824 L311.1094,235.5137 L313.6875,246.2793 Q313.7969,246.5918 313.9219,246.7012 Q314.0625,246.8105 314.2344,246.8105 L314.7031,246.8105 L314.7031,247.748 L311.3125,247.748 L311.3125,246.8105 L311.8438,246.8105 Q312.0625,246.8105 312.0781,246.7637 Q312.1094,246.7012 312.1094,246.623 Q312.1094,246.4043 312.0625,246.2168 L311.4219,243.498 Z M306.8594,247.3418 L306.8594,247.3418 Z M307.5313,247.3418 L307.5313,247.3418 Z M312.25,247.3418 L312.25,247.3418 Z M313.375,247.3418 L313.375,247.3418 Z M310.1875,237.4043 L310.25,237.4043 L309.1406,242.5605 L311.2344,242.5605 L310.1875,237.4043 Z " fill="#000000"/><text fill="#000000" font-family="sans-serif" font-size="14" font-style="italic" lengthAdjust="spacing" textLength="252" x="325" y="248.8105">AbstractNioChannel$AbstractNioUnsafe</text></g><!--class AbstractNioByteChannel$NioByteUnsafe--><g id="elem_AbstractNioByteChannel$NioByteUnsafe"><rect codeLine="1" fill="#F1F1F1" height="32" id="AbstractNioByteChannel$NioByteUnsafe" rx="2.5" ry="2.5" style="stroke:#181818;stroke-width:0.5;" width="285" x="296.5" y="319.0137"/><ellipse cx="311.5" cy="335.0137" fill="#ADD1B2" rx="11" ry="11" style="stroke:#181818;stroke-width:1.0;"/><path d="M310.8438,340.873 Q308.8594,340.873 307.6875,339.4043 Q306.5313,337.9199 306.5313,334.8418 Q306.5313,332.2324 307.75,330.4824 Q308.9844,328.7324 311.1094,328.7324 Q311.6094,328.7324 312.1406,328.873 Q312.5781,329.0605 312.8438,329.0605 Q313.0625,329.0605 313.1563,329.0137 Q313.2656,328.9668 313.7188,328.373 L314.4844,332.1074 L313.5938,332.373 Q313.1406,330.9199 312.5313,330.3262 Q311.9375,329.7168 310.9844,329.7168 Q309.7656,329.7168 309.0469,331.1543 Q308.3281,332.5762 308.3281,334.7637 Q308.3281,337.1699 308.9375,338.4668 Q309.5625,339.748 310.9219,339.748 Q311.875,339.748 312.5625,339.0605 Q313.25,338.3574 313.5781,336.8574 L314.4844,337.2637 Q314.0781,338.9668 313.1094,339.9199 Q312.1563,340.873 310.8438,340.873 Z " fill="#000000"/><text fill="#000000" font-family="sans-serif" font-size="14" lengthAdjust="spacing" textLength="253" x="325.5" y="340.8105">AbstractNioByteChannel$NioByteUnsafe</text></g><!--class AbstractNioMessageChannel$NioMessageUnsafe--><g id="elem_AbstractNioMessageChannel$NioMessageUnsafe"><rect codeLine="1" fill="#F1F1F1" height="32" id="AbstractNioMessageChannel$NioMessageUnsafe" rx="2.5" ry="2.5" style="stroke:#181818;stroke-width:0.5;" width="343" x="616.5" y="319.0137"/><ellipse cx="631.5" cy="335.0137" fill="#ADD1B2" rx="11" ry="11" style="stroke:#181818;stroke-width:1.0;"/><path d="M630.8438,340.873 Q628.8594,340.873 627.6875,339.4043 Q626.5313,337.9199 626.5313,334.8418 Q626.5313,332.2324 627.75,330.4824 Q628.9844,328.7324 631.1094,328.7324 Q631.6094,328.7324 632.1406,328.873 Q632.5781,329.0605 632.8438,329.0605 Q633.0625,329.0605 633.1563,329.0137 Q633.2656,328.9668 633.7188,328.373 L634.4844,332.1074 L633.5938,332.373 Q633.1406,330.9199 632.5313,330.3262 Q631.9375,329.7168 630.9844,329.7168 Q629.7656,329.7168 629.0469,331.1543 Q628.3281,332.5762 628.3281,334.7637 Q628.3281,337.1699 628.9375,338.4668 Q629.5625,339.748 630.9219,339.748 Q631.875,339.748 632.5625,339.0605 Q633.25,338.3574 633.5781,336.8574 L634.4844,337.2637 Q634.0781,338.9668 633.1094,339.9199 Q632.1563,340.873 630.8438,340.873 Z " fill="#000000"/><text fill="#000000" font-family="sans-serif" font-size="14" lengthAdjust="spacing" textLength="311" x="645.5" y="340.8105">AbstractNioMessageChannel$NioMessageUnsafe</text></g><!--class AbstractNioChannel$NioUnsafe--><g id="elem_AbstractNioChannel$NioUnsafe"><rect codeLine="1" fill="#F1F1F1" height="32" id="AbstractNioChannel$NioUnsafe" rx="2.5" ry="2.5" style="stroke:#181818;stroke-width:0.5;" width="232" x="310" y="135.0137"/><ellipse cx="325" cy="151.0137" fill="#B4A7E5" rx="11" ry="11" style="stroke:#181818;stroke-width:1.0;"/><path d="M321.5938,145.7949 L321.5938,144.8574 L327.4375,144.8574 L327.4375,145.7949 L325.6406,145.7949 Q325.4688,145.7949 325.3906,145.8574 Q325.3125,145.9199 325.3125,146.0605 L325.3125,155.5449 Q325.3125,155.6855 325.3906,155.748 Q325.4688,155.8105 325.6406,155.8105 L327.4375,155.8105 L327.4375,156.748 L321.5938,156.748 L321.5938,155.8105 L323.3906,155.8105 Q323.6094,155.8105 323.6563,155.7637 Q323.7188,155.7012 323.7188,155.5449 L323.7188,146.0605 Q323.7188,145.9043 323.6563,145.8574 Q323.6094,145.7949 323.3906,145.7949 L321.5938,145.7949 Z " fill="#000000"/><text fill="#000000" font-family="sans-serif" font-size="14" font-style="italic" lengthAdjust="spacing" textLength="200" x="339" y="156.8105">AbstractNioChannel$NioUnsafe</text></g><!--class NioSocketChannel$NioSocketChannelUnsafe--><g id="elem_NioSocketChannel$NioSocketChannelUnsafe"><rect codeLine="1" fill="#F1F1F1" height="32" id="NioSocketChannel$NioSocketChannelUnsafe" rx="2.5" ry="2.5" style="stroke:#181818;stroke-width:0.5;" width="316" x="281" y="428.0137"/><ellipse cx="296" cy="444.0137" fill="#ADD1B2" rx="11" ry="11" style="stroke:#181818;stroke-width:1.0;"/><path d="M295.3438,449.873 Q293.3594,449.873 292.1875,448.4043 Q291.0313,446.9199 291.0313,443.8418 Q291.0313,441.2324 292.25,439.4824 Q293.4844,437.7324 295.6094,437.7324 Q296.1094,437.7324 296.6406,437.873 Q297.0781,438.0605 297.3438,438.0605 Q297.5625,438.0605 297.6563,438.0137 Q297.7656,437.9668 298.2188,437.373 L298.9844,441.1074 L298.0938,441.373 Q297.6406,439.9199 297.0313,439.3262 Q296.4375,438.7168 295.4844,438.7168 Q294.2656,438.7168 293.5469,440.1543 Q292.8281,441.5762 292.8281,443.7637 Q292.8281,446.1699 293.4375,447.4668 Q294.0625,448.748 295.4219,448.748 Q296.375,448.748 297.0625,448.0605 Q297.75,447.3574 298.0781,445.8574 L298.9844,446.2637 Q298.5781,447.9668 297.6094,448.9199 Q296.6563,449.873 295.3438,449.873 Z " fill="#000000"/><text fill="#000000" font-family="sans-serif" font-size="14" lengthAdjust="spacing" textLength="284" x="310" y="449.8105">NioSocketChannel$NioSocketChannelUnsafe</text></g><!--reverse link AbstractChannel$AbstractUnsafe to AbstractNioChannel$AbstractNioUnsafe--><g id="link_AbstractChannel$AbstractUnsafe_AbstractNioChannel$AbstractNioUnsafe"><path codeLine="11" d="M209.5959,172.3285 C264.0459,188.9485 333.94,210.2637 388.46,226.9037 " fill="none" id="AbstractChannel$AbstractUnsafe-backto-AbstractNioChannel$AbstractNioUnsafe" style="stroke:#181818;stroke-width:1.0;"/><polygon fill="none" points="192.38,167.0737,207.8442,178.0672,211.3475,166.5899,192.38,167.0737" style="stroke:#181818;stroke-width:1.0;"/></g><!--reverse link AbstractNioChannel$NioUnsafe to AbstractNioChannel$AbstractNioUnsafe--><g id="link_AbstractNioChannel$NioUnsafe_AbstractNioChannel$AbstractNioUnsafe"><path codeLine="12" d="M430.4189,185.1258 C432.6389,201.7758 433.79,210.4137 435.99,226.9737 " fill="none" id="AbstractNioChannel$NioUnsafe-backto-AbstractNioChannel$AbstractNioUnsafe" style="stroke:#181818;stroke-width:1.0;stroke-dasharray:7.0,7.0;"/><polygon fill="none" points="428.04,167.2837,424.4716,185.9188,436.3663,184.3328,428.04,167.2837" style="stroke:#181818;stroke-width:1.0;"/></g><!--reverse link Channel$Unsafe to AbstractChannel$AbstractUnsafe--><g id="link_Channel$Unsafe_AbstractChannel$AbstractUnsafe"><path codeLine="13" d="M245.2288,84.7604 C219.1988,101.3804 192.74,118.2637 166.68,134.9037 " fill="none" id="Channel$Unsafe-backto-AbstractChannel$AbstractUnsafe" style="stroke:#181818;stroke-width:1.0;stroke-dasharray:7.0,7.0;"/><polygon fill="none" points="260.4,75.0737,241.9998,79.7033,248.4577,89.8175,260.4,75.0737" style="stroke:#181818;stroke-width:1.0;"/></g><!--reverse link AbstractNioChannel$AbstractNioUnsafe to AbstractNioByteChannel$NioByteUnsafe--><g id="link_AbstractNioChannel$AbstractNioUnsafe_AbstractNioByteChannel$NioByteUnsafe"><path codeLine="14" d="M438.3646,277.2826 C438.5446,293.9326 438.65,302.4137 438.83,318.9737 " fill="none" id="AbstractNioChannel$AbstractNioUnsafe-backto-AbstractNioByteChannel$NioByteUnsafe" style="stroke:#181818;stroke-width:1.0;"/><polygon fill="none" points="438.17,259.2837,432.3649,277.3475,444.3642,277.2178,438.17,259.2837" style="stroke:#181818;stroke-width:1.0;"/></g><!--reverse link AbstractNioChannel$AbstractNioUnsafe to AbstractNioMessageChannel$NioMessageUnsafe--><g id="link_AbstractNioChannel$AbstractNioUnsafe_AbstractNioMessageChannel$NioMessageUnsafe"><path codeLine="15" d="M514.0129,263.5565 C578.7229,280.1965 664.85,302.3437 729.52,318.9737 " fill="none" id="AbstractNioChannel$AbstractNioUnsafe-backto-AbstractNioMessageChannel$NioMessageUnsafe" style="stroke:#181818;stroke-width:1.0;"/><polygon fill="none" points="496.58,259.0737,512.5186,269.3674,515.5071,257.7455,496.58,259.0737" style="stroke:#181818;stroke-width:1.0;"/></g><!--reverse link AbstractNioByteChannel$NioByteUnsafe to NioSocketChannel$NioSocketChannelUnsafe--><g id="link_AbstractNioByteChannel$NioByteUnsafe_NioSocketChannel$NioSocketChannelUnsafe"><path codeLine="16" d="M439,369.3437 C439,389.6837 439,407.3837 439,427.7137 " fill="none" id="AbstractNioByteChannel$NioByteUnsafe-backto-NioSocketChannel$NioSocketChannelUnsafe" style="stroke:#181818;stroke-width:1.0;"/><polygon fill="none" points="439,351.3437,433,369.3437,445,369.3437,439,351.3437" style="stroke:#181818;stroke-width:1.0;"/></g><!--reverse link Channel$Unsafe to AbstractNioChannel$NioUnsafe--><g id="link_Channel$Unsafe_AbstractNioChannel$NioUnsafe"><path codeLine="17" d="M322.9714,84.713 C349.1814,101.333 375.91,118.2637 402.15,134.9037 " fill="none" id="Channel$Unsafe-backto-AbstractNioChannel$NioUnsafe" style="stroke:#181818;stroke-width:1.0;"/><polygon fill="none" points="307.77,75.0737,319.7583,89.7802,326.1845,79.6459,307.77,75.0737" style="stroke:#181818;stroke-width:1.0;"/></g><!--SRC=[bP9D3e8m48NtFKL9s59kOAAkN6XCZ0SOol0JQ6reko3nyAA0La1IjpDllkcyrq0ra0kWLkD16cm4fYKOF0El84TDCwWr4XAKajSsHSfOp0kG4klOIWqPnjj4cmQuEPMtwwl2b1MrpuIdl0FlMeF-wYDgtJtUV-1ounMQVL_t7_DKkZBYk3Ni2sS6qiYgwBwXOsCgx5L-A6OLSr2EzgqXwtj6nDYTRt-cur0_OKqFMNkf2nm2T9XVaVw5dSORBkUzmFnv5bbpSmHDx295sNqE5CgqLA18iD4F]--></g></svg>