<?xml version="1.0" encoding="us-ascii" standalone="no"?><svg xmlns="http://www.w3.org/2000/svg" xmlns:xlink="http://www.w3.org/1999/xlink" contentStyleType="text/css" height="623px" preserveAspectRatio="none" style="width:1141px;height:623px;background:#FFFFFF;" version="1.1" viewBox="0 0 1141 623" width="1141px" zoomAndPan="magnify"><defs/><g><!--cluster channel--><g id="cluster_channel"><path d="M8.5,6.0137 L121.5,6.0137 A3.75,3.75 0 0 1 124,8.5137 L131,30.6348 L1131.5,30.6348 A2.5,2.5 0 0 1 1134,33.1348 L1134,613.5137 A2.5,2.5 0 0 1 1131.5,616.0137 L8.5,616.0137 A2.5,2.5 0 0 1 6,613.5137 L6,8.5137 A2.5,2.5 0 0 1 8.5,6.0137 " fill="none" style="stroke:#000000;stroke-width:1.5;"/><line style="stroke:#000000;stroke-width:1.5;" x1="6" x2="131" y1="30.6348" y2="30.6348"/><text fill="#000000" font-family="sans-serif" font-size="14" font-weight="bold" lengthAdjust="spacing" textLength="112" x="10" y="23.1211">io.netty.channel</text></g><!--cluster nio--><g id="cluster_nio"><path d="M32.5,282.0137 L55.5,282.0137 A3.75,3.75 0 0 1 58,284.5137 L65,306.6348 L496.5,306.6348 A2.5,2.5 0 0 1 499,309.1348 L499,456.5137 A2.5,2.5 0 0 1 496.5,459.0137 L32.5,459.0137 A2.5,2.5 0 0 1 30,456.5137 L30,284.5137 A2.5,2.5 0 0 1 32.5,282.0137 " fill="none" style="stroke:#000000;stroke-width:1.5;"/><line style="stroke:#000000;stroke-width:1.5;" x1="30" x2="65" y1="306.6348" y2="306.6348"/><text fill="#000000" font-family="sans-serif" font-size="14" font-weight="bold" lengthAdjust="spacing" textLength="22" x="34" y="299.1211">nio</text></g><!--cluster socket--><g id="cluster_socket"><path d="M659.5,282.0137 L707.5,282.0137 A3.75,3.75 0 0 1 710,284.5137 L717,306.6348 L1107.5,306.6348 A2.5,2.5 0 0 1 1110,309.1348 L1110,589.5137 A2.5,2.5 0 0 1 1107.5,592.0137 L659.5,592.0137 A2.5,2.5 0 0 1 657,589.5137 L657,284.5137 A2.5,2.5 0 0 1 659.5,282.0137 " fill="none" style="stroke:#000000;stroke-width:1.5;"/><line style="stroke:#000000;stroke-width:1.5;" x1="657" x2="717" y1="306.6348" y2="306.6348"/><text fill="#000000" font-family="sans-serif" font-size="14" font-weight="bold" lengthAdjust="spacing" textLength="47" x="661" y="299.1211">socket</text></g><!--cluster nio--><g id="cluster_nio"><path d="M683.5,483.0137 L706.5,483.0137 A3.75,3.75 0 0 1 709,485.5137 L716,507.6348 L1083.5,507.6348 A2.5,2.5 0 0 1 1086,510.1348 L1086,565.5137 A2.5,2.5 0 0 1 1083.5,568.0137 L683.5,568.0137 A2.5,2.5 0 0 1 681,565.5137 L681,485.5137 A2.5,2.5 0 0 1 683.5,483.0137 " fill="none" style="stroke:#000000;stroke-width:1.5;"/><line style="stroke:#000000;stroke-width:1.5;" x1="681" x2="716" y1="507.6348" y2="507.6348"/><text fill="#000000" font-family="sans-serif" font-size="14" font-weight="bold" lengthAdjust="spacing" textLength="22" x="685" y="500.1211">nio</text></g><!--class AbstractChannel--><g id="elem_AbstractChannel"><rect codeLine="1" fill="#F1F1F1" height="32" id="AbstractChannel" rx="2.5" ry="2.5" style="stroke:#181818;stroke-width:0.5;" width="137" x="363.5" y="227.0137"/><ellipse cx="378.5" cy="243.0137" fill="#A9DCDF" rx="11" ry="11" style="stroke:#181818;stroke-width:1.0;"/><path d="M378.9219,243.498 L376.3594,243.498 L375.8281,245.7949 Q375.7656,246.123 375.7656,246.2793 Q375.7656,246.498 375.8125,246.6543 Q375.875,246.8105 376.1563,246.8105 L376.625,246.8105 L376.625,247.748 L373.6406,247.748 L373.6406,246.8105 L374.0938,246.8105 Q374.2656,246.8105 374.3906,246.7168 Q374.5156,246.6074 374.5625,246.3105 L377.2031,235.9824 L378.6094,235.5137 L381.1875,246.2793 Q381.2969,246.5918 381.4219,246.7012 Q381.5625,246.8105 381.7344,246.8105 L382.2031,246.8105 L382.2031,247.748 L378.8125,247.748 L378.8125,246.8105 L379.3438,246.8105 Q379.5625,246.8105 379.5781,246.7637 Q379.6094,246.7012 379.6094,246.623 Q379.6094,246.4043 379.5625,246.2168 L378.9219,243.498 Z M374.3594,247.3418 L374.3594,247.3418 Z M375.0313,247.3418 L375.0313,247.3418 Z M379.75,247.3418 L379.75,247.3418 Z M380.875,247.3418 L380.875,247.3418 Z M377.6875,237.4043 L377.75,237.4043 L376.6406,242.5605 L378.7344,242.5605 L377.6875,237.4043 Z " fill="#000000"/><text fill="#000000" font-family="sans-serif" font-size="14" font-style="italic" lengthAdjust="spacing" textLength="105" x="392.5" y="248.8105">AbstractChannel</text></g><!--class Channel--><g id="elem_Channel"><rect codeLine="1" fill="#F1F1F1" height="32" id="Channel" rx="2.5" ry="2.5" style="stroke:#181818;stroke-width:0.5;" width="85" x="535.5" y="135.0137"/><ellipse cx="550.5" cy="151.0137" fill="#B4A7E5" rx="11" ry="11" style="stroke:#181818;stroke-width:1.0;"/><path d="M547.0938,145.7949 L547.0938,144.8574 L552.9375,144.8574 L552.9375,145.7949 L551.1406,145.7949 Q550.9688,145.7949 550.8906,145.8574 Q550.8125,145.9199 550.8125,146.0605 L550.8125,155.5449 Q550.8125,155.6855 550.8906,155.748 Q550.9688,155.8105 551.1406,155.8105 L552.9375,155.8105 L552.9375,156.748 L547.0938,156.748 L547.0938,155.8105 L548.8906,155.8105 Q549.1094,155.8105 549.1563,155.7637 Q549.2188,155.7012 549.2188,155.5449 L549.2188,146.0605 Q549.2188,145.9043 549.1563,145.8574 Q549.1094,145.7949 548.8906,145.7949 L547.0938,145.7949 Z " fill="#000000"/><text fill="#000000" font-family="sans-serif" font-size="14" font-style="italic" lengthAdjust="spacing" textLength="53" x="564.5" y="156.8105">Channel</text></g><!--class ServerChannel--><g id="elem_ServerChannel"><rect codeLine="1" fill="#F1F1F1" height="32" id="ServerChannel" rx="2.5" ry="2.5" style="stroke:#181818;stroke-width:0.5;" width="126" x="515" y="319.0137"/><ellipse cx="530" cy="335.0137" fill="#B4A7E5" rx="11" ry="11" style="stroke:#181818;stroke-width:1.0;"/><path d="M526.5938,329.7949 L526.5938,328.8574 L532.4375,328.8574 L532.4375,329.7949 L530.6406,329.7949 Q530.4688,329.7949 530.3906,329.8574 Q530.3125,329.9199 530.3125,330.0605 L530.3125,339.5449 Q530.3125,339.6855 530.3906,339.748 Q530.4688,339.8105 530.6406,339.8105 L532.4375,339.8105 L532.4375,340.748 L526.5938,340.748 L526.5938,339.8105 L528.3906,339.8105 Q528.6094,339.8105 528.6563,339.7637 Q528.7188,339.7012 528.7188,339.5449 L528.7188,330.0605 Q528.7188,329.9043 528.6563,329.8574 Q528.6094,329.7949 528.3906,329.7949 L526.5938,329.7949 Z " fill="#000000"/><text fill="#000000" font-family="sans-serif" font-size="14" font-style="italic" lengthAdjust="spacing" textLength="94" x="544" y="340.8105">ServerChannel</text></g><!--class ChannelOutboundInvoker--><g id="elem_ChannelOutboundInvoker"><rect codeLine="1" fill="#F1F1F1" height="32" id="ChannelOutboundInvoker" rx="2.5" ry="2.5" style="stroke:#181818;stroke-width:0.5;" width="195" x="480.5" y="43.0137"/><ellipse cx="495.5" cy="59.0137" fill="#B4A7E5" rx="11" ry="11" style="stroke:#181818;stroke-width:1.0;"/><path d="M492.0938,53.7949 L492.0938,52.8574 L497.9375,52.8574 L497.9375,53.7949 L496.1406,53.7949 Q495.9688,53.7949 495.8906,53.8574 Q495.8125,53.9199 495.8125,54.0605 L495.8125,63.5449 Q495.8125,63.6855 495.8906,63.748 Q495.9688,63.8105 496.1406,63.8105 L497.9375,63.8105 L497.9375,64.748 L492.0938,64.748 L492.0938,63.8105 L493.8906,63.8105 Q494.1094,63.8105 494.1563,63.7637 Q494.2188,63.7012 494.2188,63.5449 L494.2188,54.0605 Q494.2188,53.9043 494.1563,53.8574 Q494.1094,53.7949 493.8906,53.7949 L492.0938,53.7949 Z " fill="#000000"/><text fill="#000000" font-family="sans-serif" font-size="14" font-style="italic" lengthAdjust="spacing" textLength="163" x="509.5" y="64.8105">ChannelOutboundInvoker</text></g><!--class AbstractNioByteChannel--><g id="elem_AbstractNioByteChannel"><rect codeLine="1" fill="#F1F1F1" height="32" id="AbstractNioByteChannel" rx="2.5" ry="2.5" style="stroke:#181818;stroke-width:0.5;" width="186" x="297" y="411.0137"/><ellipse cx="312" cy="427.0137" fill="#A9DCDF" rx="11" ry="11" style="stroke:#181818;stroke-width:1.0;"/><path d="M312.4219,427.498 L309.8594,427.498 L309.3281,429.7949 Q309.2656,430.123 309.2656,430.2793 Q309.2656,430.498 309.3125,430.6543 Q309.375,430.8105 309.6563,430.8105 L310.125,430.8105 L310.125,431.748 L307.1406,431.748 L307.1406,430.8105 L307.5938,430.8105 Q307.7656,430.8105 307.8906,430.7168 Q308.0156,430.6074 308.0625,430.3105 L310.7031,419.9824 L312.1094,419.5137 L314.6875,430.2793 Q314.7969,430.5918 314.9219,430.7012 Q315.0625,430.8105 315.2344,430.8105 L315.7031,430.8105 L315.7031,431.748 L312.3125,431.748 L312.3125,430.8105 L312.8438,430.8105 Q313.0625,430.8105 313.0781,430.7637 Q313.1094,430.7012 313.1094,430.623 Q313.1094,430.4043 313.0625,430.2168 L312.4219,427.498 Z M307.8594,431.3418 L307.8594,431.3418 Z M308.5313,431.3418 L308.5313,431.3418 Z M313.25,431.3418 L313.25,431.3418 Z M314.375,431.3418 L314.375,431.3418 Z M311.1875,421.4043 L311.25,421.4043 L310.1406,426.5605 L312.2344,426.5605 L311.1875,421.4043 Z " fill="#000000"/><text fill="#000000" font-family="sans-serif" font-size="14" font-style="italic" lengthAdjust="spacing" textLength="154" x="326" y="432.8105">AbstractNioByteChannel</text></g><!--class AbstractNioChannel--><g id="elem_AbstractNioChannel"><rect codeLine="1" fill="#F1F1F1" height="32" id="AbstractNioChannel" rx="2.5" ry="2.5" style="stroke:#181818;stroke-width:0.5;" width="158" x="311" y="319.0137"/><ellipse cx="326" cy="335.0137" fill="#A9DCDF" rx="11" ry="11" style="stroke:#181818;stroke-width:1.0;"/><path d="M326.4219,335.498 L323.8594,335.498 L323.3281,337.7949 Q323.2656,338.123 323.2656,338.2793 Q323.2656,338.498 323.3125,338.6543 Q323.375,338.8105 323.6563,338.8105 L324.125,338.8105 L324.125,339.748 L321.1406,339.748 L321.1406,338.8105 L321.5938,338.8105 Q321.7656,338.8105 321.8906,338.7168 Q322.0156,338.6074 322.0625,338.3105 L324.7031,327.9824 L326.1094,327.5137 L328.6875,338.2793 Q328.7969,338.5918 328.9219,338.7012 Q329.0625,338.8105 329.2344,338.8105 L329.7031,338.8105 L329.7031,339.748 L326.3125,339.748 L326.3125,338.8105 L326.8438,338.8105 Q327.0625,338.8105 327.0781,338.7637 Q327.1094,338.7012 327.1094,338.623 Q327.1094,338.4043 327.0625,338.2168 L326.4219,335.498 Z M321.8594,339.3418 L321.8594,339.3418 Z M322.5313,339.3418 L322.5313,339.3418 Z M327.25,339.3418 L327.25,339.3418 Z M328.375,339.3418 L328.375,339.3418 Z M325.1875,329.4043 L325.25,329.4043 L324.1406,334.5605 L326.2344,334.5605 L325.1875,329.4043 Z " fill="#000000"/><text fill="#000000" font-family="sans-serif" font-size="14" font-style="italic" lengthAdjust="spacing" textLength="126" x="340" y="340.8105">AbstractNioChannel</text></g><!--class AbstractNioMessageChannel--><g id="elem_AbstractNioMessageChannel"><rect codeLine="1" fill="#F1F1F1" height="32" id="AbstractNioMessageChannel" rx="2.5" ry="2.5" style="stroke:#181818;stroke-width:0.5;" width="216" x="46" y="411.0137"/><ellipse cx="61" cy="427.0137" fill="#A9DCDF" rx="11" ry="11" style="stroke:#181818;stroke-width:1.0;"/><path d="M61.4219,427.498 L58.8594,427.498 L58.3281,429.7949 Q58.2656,430.123 58.2656,430.2793 Q58.2656,430.498 58.3125,430.6543 Q58.375,430.8105 58.6563,430.8105 L59.125,430.8105 L59.125,431.748 L56.1406,431.748 L56.1406,430.8105 L56.5938,430.8105 Q56.7656,430.8105 56.8906,430.7168 Q57.0156,430.6074 57.0625,430.3105 L59.7031,419.9824 L61.1094,419.5137 L63.6875,430.2793 Q63.7969,430.5918 63.9219,430.7012 Q64.0625,430.8105 64.2344,430.8105 L64.7031,430.8105 L64.7031,431.748 L61.3125,431.748 L61.3125,430.8105 L61.8438,430.8105 Q62.0625,430.8105 62.0781,430.7637 Q62.1094,430.7012 62.1094,430.623 Q62.1094,430.4043 62.0625,430.2168 L61.4219,427.498 Z M56.8594,431.3418 L56.8594,431.3418 Z M57.5313,431.3418 L57.5313,431.3418 Z M62.25,431.3418 L62.25,431.3418 Z M63.375,431.3418 L63.375,431.3418 Z M60.1875,421.4043 L60.25,421.4043 L59.1406,426.5605 L61.2344,426.5605 L60.1875,421.4043 Z " fill="#000000"/><text fill="#000000" font-family="sans-serif" font-size="14" font-style="italic" lengthAdjust="spacing" textLength="184" x="75" y="432.8105">AbstractNioMessageChannel</text></g><!--class DuplexChannel--><g id="elem_DuplexChannel"><rect codeLine="1" fill="#F1F1F1" height="32" id="DuplexChannel" rx="2.5" ry="2.5" style="stroke:#181818;stroke-width:0.5;" width="128" x="777" y="319.0137"/><ellipse cx="792" cy="335.0137" fill="#B4A7E5" rx="11" ry="11" style="stroke:#181818;stroke-width:1.0;"/><path d="M788.5938,329.7949 L788.5938,328.8574 L794.4375,328.8574 L794.4375,329.7949 L792.6406,329.7949 Q792.4688,329.7949 792.3906,329.8574 Q792.3125,329.9199 792.3125,330.0605 L792.3125,339.5449 Q792.3125,339.6855 792.3906,339.748 Q792.4688,339.8105 792.6406,339.8105 L794.4375,339.8105 L794.4375,340.748 L788.5938,340.748 L788.5938,339.8105 L790.3906,339.8105 Q790.6094,339.8105 790.6563,339.7637 Q790.7188,339.7012 790.7188,339.5449 L790.7188,330.0605 Q790.7188,329.9043 790.6563,329.8574 Q790.6094,329.7949 790.3906,329.7949 L788.5938,329.7949 Z " fill="#000000"/><text fill="#000000" font-family="sans-serif" font-size="14" font-style="italic" lengthAdjust="spacing" textLength="96" x="806" y="340.8105">DuplexChannel</text></g><!--class ServerSocketChannel--><g id="elem_ServerSocketChannel"><rect codeLine="1" fill="#F1F1F1" height="32" id="ServerSocketChannel" rx="2.5" ry="2.5" style="stroke:#181818;stroke-width:0.5;" width="170" x="690" y="411.0137"/><ellipse cx="705" cy="427.0137" fill="#B4A7E5" rx="11" ry="11" style="stroke:#181818;stroke-width:1.0;"/><path d="M701.5938,421.7949 L701.5938,420.8574 L707.4375,420.8574 L707.4375,421.7949 L705.6406,421.7949 Q705.4688,421.7949 705.3906,421.8574 Q705.3125,421.9199 705.3125,422.0605 L705.3125,431.5449 Q705.3125,431.6855 705.3906,431.748 Q705.4688,431.8105 705.6406,431.8105 L707.4375,431.8105 L707.4375,432.748 L701.5938,432.748 L701.5938,431.8105 L703.3906,431.8105 Q703.6094,431.8105 703.6563,431.7637 Q703.7188,431.7012 703.7188,431.5449 L703.7188,422.0605 Q703.7188,421.9043 703.6563,421.8574 Q703.6094,421.7949 703.3906,421.7949 L701.5938,421.7949 Z " fill="#000000"/><text fill="#000000" font-family="sans-serif" font-size="14" font-style="italic" lengthAdjust="spacing" textLength="138" x="719" y="432.8105">ServerSocketChannel</text></g><!--class SocketChannel--><g id="elem_SocketChannel"><rect codeLine="1" fill="#F1F1F1" height="32" id="SocketChannel" rx="2.5" ry="2.5" style="stroke:#181818;stroke-width:0.5;" width="129" x="913.5" y="411.0137"/><ellipse cx="928.5" cy="427.0137" fill="#B4A7E5" rx="11" ry="11" style="stroke:#181818;stroke-width:1.0;"/><path d="M925.0938,421.7949 L925.0938,420.8574 L930.9375,420.8574 L930.9375,421.7949 L929.1406,421.7949 Q928.9688,421.7949 928.8906,421.8574 Q928.8125,421.9199 928.8125,422.0605 L928.8125,431.5449 Q928.8125,431.6855 928.8906,431.748 Q928.9688,431.8105 929.1406,431.8105 L930.9375,431.8105 L930.9375,432.748 L925.0938,432.748 L925.0938,431.8105 L926.8906,431.8105 Q927.1094,431.8105 927.1563,431.7637 Q927.2188,431.7012 927.2188,431.5449 L927.2188,422.0605 Q927.2188,421.9043 927.1563,421.8574 Q927.1094,421.7949 926.8906,421.7949 L925.0938,421.7949 Z " fill="#000000"/><text fill="#000000" font-family="sans-serif" font-size="14" font-style="italic" lengthAdjust="spacing" textLength="97" x="942.5" y="432.8105">SocketChannel</text></g><!--class NioServerSocketChannel--><g id="elem_NioServerSocketChannel"><rect codeLine="1" fill="#F1F1F1" height="32" id="NioServerSocketChannel" rx="2.5" ry="2.5" style="stroke:#181818;stroke-width:0.5;" width="190" x="697" y="520.0137"/><ellipse cx="712" cy="536.0137" fill="#ADD1B2" rx="11" ry="11" style="stroke:#181818;stroke-width:1.0;"/><path d="M711.3438,541.873 Q709.3594,541.873 708.1875,540.4043 Q707.0313,538.9199 707.0313,535.8418 Q707.0313,533.2324 708.25,531.4824 Q709.4844,529.7324 711.6094,529.7324 Q712.1094,529.7324 712.6406,529.873 Q713.0781,530.0605 713.3438,530.0605 Q713.5625,530.0605 713.6563,530.0137 Q713.7656,529.9668 714.2188,529.373 L714.9844,533.1074 L714.0938,533.373 Q713.6406,531.9199 713.0313,531.3262 Q712.4375,530.7168 711.4844,530.7168 Q710.2656,530.7168 709.5469,532.1543 Q708.8281,533.5762 708.8281,535.7637 Q708.8281,538.1699 709.4375,539.4668 Q710.0625,540.748 711.4219,540.748 Q712.375,540.748 713.0625,540.0605 Q713.75,539.3574 714.0781,537.8574 L714.9844,538.2637 Q714.5781,539.9668 713.6094,540.9199 Q712.6563,541.873 711.3438,541.873 Z " fill="#000000"/><text fill="#000000" font-family="sans-serif" font-size="14" lengthAdjust="spacing" textLength="158" x="726" y="541.8105">NioServerSocketChannel</text></g><!--class NioSocketChannel--><g id="elem_NioSocketChannel"><rect codeLine="1" fill="#F1F1F1" height="32" id="NioSocketChannel" rx="2.5" ry="2.5" style="stroke:#181818;stroke-width:0.5;" width="148" x="922" y="520.0137"/><ellipse cx="937" cy="536.0137" fill="#ADD1B2" rx="11" ry="11" style="stroke:#181818;stroke-width:1.0;"/><path d="M936.3438,541.873 Q934.3594,541.873 933.1875,540.4043 Q932.0313,538.9199 932.0313,535.8418 Q932.0313,533.2324 933.25,531.4824 Q934.4844,529.7324 936.6094,529.7324 Q937.1094,529.7324 937.6406,529.873 Q938.0781,530.0605 938.3438,530.0605 Q938.5625,530.0605 938.6563,530.0137 Q938.7656,529.9668 939.2188,529.373 L939.9844,533.1074 L939.0938,533.373 Q938.6406,531.9199 938.0313,531.3262 Q937.4375,530.7168 936.4844,530.7168 Q935.2656,530.7168 934.5469,532.1543 Q933.8281,533.5762 933.8281,535.7637 Q933.8281,538.1699 934.4375,539.4668 Q935.0625,540.748 936.4219,540.748 Q937.375,540.748 938.0625,540.0605 Q938.75,539.3574 939.0781,537.8574 L939.9844,538.2637 Q939.5781,539.9668 938.6094,540.9199 Q937.6563,541.873 936.3438,541.873 Z " fill="#000000"/><text fill="#000000" font-family="sans-serif" font-size="14" lengthAdjust="spacing" textLength="116" x="951" y="541.8105">NioSocketChannel</text></g><!--reverse link Channel to AbstractChannel--><g id="link_Channel_AbstractChannel"><path codeLine="16" d="M538.2391,176.522 C511.2891,193.142 483.5,210.2637 456.52,226.9037 " fill="none" id="Channel-backto-AbstractChannel" style="stroke:#181818;stroke-width:1.0;stroke-dasharray:7.0,7.0;"/><polygon fill="none" points="553.56,167.0737,535.0897,171.4151,541.3886,181.629,553.56,167.0737" style="stroke:#181818;stroke-width:1.0;"/></g><!--reverse link AbstractNioChannel to AbstractNioByteChannel--><g id="link_AbstractNioChannel_AbstractNioByteChannel"><path codeLine="17" d="M390,369.2837 C390,385.9337 390,394.4137 390,410.9737 " fill="none" id="AbstractNioChannel-backto-AbstractNioByteChannel" style="stroke:#181818;stroke-width:1.0;"/><polygon fill="none" points="390,351.2837,384,369.2837,396,369.2837,390,351.2837" style="stroke:#181818;stroke-width:1.0;"/></g><!--reverse link AbstractChannel to AbstractNioChannel--><g id="link_AbstractChannel_AbstractNioChannel"><path codeLine="18" d="M417.2681,275.595 C409.4981,292.245 404.75,302.4137 397.02,318.9737 " fill="none" id="AbstractChannel-backto-AbstractNioChannel" style="stroke:#181818;stroke-width:1.0;"/><polygon fill="none" points="424.88,259.2837,411.831,273.0577,422.7052,278.1323,424.88,259.2837" style="stroke:#181818;stroke-width:1.0;"/></g><!--reverse link AbstractNioChannel to AbstractNioMessageChannel--><g id="link_AbstractNioChannel_AbstractNioMessageChannel"><path codeLine="19" d="M333.682,357.489 C290.112,374.109 237.25,394.2637 193.63,410.9037 " fill="none" id="AbstractNioChannel-backto-AbstractNioMessageChannel" style="stroke:#181818;stroke-width:1.0;"/><polygon fill="none" points="350.5,351.0737,331.5436,351.883,335.8205,363.095,350.5,351.0737" style="stroke:#181818;stroke-width:1.0;"/></g><!--reverse link ChannelOutboundInvoker to Channel--><g id="link_ChannelOutboundInvoker_Channel"><path codeLine="20" d="M578,93.2837 C578,109.9337 578,118.4137 578,134.9737 " fill="none" id="ChannelOutboundInvoker-backto-Channel" style="stroke:#181818;stroke-width:1.0;"/><polygon fill="none" points="578,75.2837,572,93.2837,584,93.2837,578,75.2837" style="stroke:#181818;stroke-width:1.0;"/></g><!--reverse link Channel to DuplexChannel--><g id="link_Channel_DuplexChannel"><path codeLine="21" d="M620.7491,175.9403 C659.2591,197.7703 715.87,231.3837 773,274.0137 C791.93,288.1337 812.02,306.3037 825.41,318.9337 " fill="none" id="Channel-backto-DuplexChannel" style="stroke:#181818;stroke-width:1.0;"/><polygon fill="none" points="605.09,167.0637,617.7902,181.1599,623.7079,170.7206,605.09,167.0637" style="stroke:#181818;stroke-width:1.0;"/></g><!--reverse link AbstractNioMessageChannel to NioServerSocketChannel--><g id="link_AbstractNioMessageChannel_NioServerSocketChannel"><path codeLine="22" d="M213.4564,448.8054 C237.6764,456.9254 251.71,460.8037 280,467.0137 C423.64,498.5437 593.36,517.5837 696.8,527.1937 " fill="none" id="AbstractNioMessageChannel-backto-NioServerSocketChannel" style="stroke:#181818;stroke-width:1.0;"/><polygon fill="none" points="196.39,443.0837,211.5492,454.4942,215.3636,443.1166,196.39,443.0837" style="stroke:#181818;stroke-width:1.0;"/></g><!--reverse link ServerSocketChannel to NioServerSocketChannel--><g id="link_ServerSocketChannel_NioServerSocketChannel"><path codeLine="23" d="M780.263,461.1209 C783.493,481.4609 786.34,499.3837 789.57,519.7137 " fill="none" id="ServerSocketChannel-backto-NioServerSocketChannel" style="stroke:#181818;stroke-width:1.0;stroke-dasharray:7.0,7.0;"/><polygon fill="none" points="777.44,443.3437,774.3373,462.0619,786.1888,460.1799,777.44,443.3437" style="stroke:#181818;stroke-width:1.0;"/></g><!--reverse link AbstractNioByteChannel to NioSocketChannel--><g id="link_AbstractNioByteChannel_NioSocketChannel"><path codeLine="24" d="M493.4546,445.9455 C545.6746,454.4755 596.11,461.6037 657,467.0137 C684.46,469.4537 878.72,466.6637 905,475.0137 C933.86,484.1837 962.19,505.3237 979.38,519.8937 " fill="none" id="AbstractNioByteChannel-backto-NioSocketChannel" style="stroke:#181818;stroke-width:1.0;"/><polygon fill="none" points="475.69,443.0437,492.4873,451.867,494.4218,440.0239,475.69,443.0437" style="stroke:#181818;stroke-width:1.0;"/></g><!--reverse link SocketChannel to NioSocketChannel--><g id="link_SocketChannel_NioSocketChannel"><path codeLine="25" d="M983.5647,461.0945 C986.9847,481.4345 990.01,499.3837 993.43,519.7137 " fill="none" id="SocketChannel-backto-NioSocketChannel" style="stroke:#181818;stroke-width:1.0;stroke-dasharray:7.0,7.0;"/><polygon fill="none" points="980.58,443.3437,977.6477,462.0894,989.4816,460.0996,980.58,443.3437" style="stroke:#181818;stroke-width:1.0;"/></g><!--reverse link Channel to ServerChannel--><g id="link_Channel_ServerChannel"><path codeLine="26" d="M578,185.2137 C578,219.5637 578,284.8037 578,318.9837 " fill="none" id="Channel-backto-ServerChannel" style="stroke:#181818;stroke-width:1.0;"/><polygon fill="none" points="578,167.2137,572,185.2137,584,185.2137,578,167.2137" style="stroke:#181818;stroke-width:1.0;"/></g><!--reverse link ServerChannel to ServerSocketChannel--><g id="link_ServerChannel_ServerSocketChannel"><path codeLine="27" d="M627.3416,358.555 C663.7116,375.175 705.51,394.2637 741.92,410.9037 " fill="none" id="ServerChannel-backto-ServerSocketChannel" style="stroke:#181818;stroke-width:1.0;"/><polygon fill="none" points="610.97,351.0737,624.8478,364.0122,629.8354,353.0978,610.97,351.0737" style="stroke:#181818;stroke-width:1.0;"/></g><!--reverse link DuplexChannel to SocketChannel--><g id="link_DuplexChannel_SocketChannel"><path codeLine="28" d="M878.9725,360.9592 C904.2625,377.5792 929.68,394.2637 954.99,410.9037 " fill="none" id="DuplexChannel-backto-SocketChannel" style="stroke:#181818;stroke-width:1.0;"/><polygon fill="none" points="863.93,351.0737,875.6773,365.9734,882.2677,355.9451,863.93,351.0737" style="stroke:#181818;stroke-width:1.0;"/></g><!--SRC=[bP9DQiCm48NtSmhb0B5lKEZF9eksWPn0bbyJOKaM-WaDzF0rE8PALeErrEXxC_E6jxEEdpLdqUDW0fn6Btd0aOk1d-7P5rSUH3jfX8ezMDEquiADWMexxgLedpiV71VXTQusDcgr0V-Guyije5vLhtY7zvENZSADs5kq2jyRuMc94zmLxZIA0Q52LSFF8whWklxRO2ijb3HOBlaPGpT6qn_CTHpWPY5biM5DjCtF4xi_gHmJjezsFr7hED2wbCC5Cat6W-uPKNP6IIOobiePACnCb_fFTxzNuOlot1Hc_Bdf6bzQ9qsJSENU7XXBT5H4ahCHqKLEWTBG7PoV7z0st9RIBm00]--></g></svg>