<?xml version="1.0" encoding="us-ascii" standalone="no"?><svg xmlns="http://www.w3.org/2000/svg" xmlns:xlink="http://www.w3.org/1999/xlink" contentStyleType="text/css" height="893px" preserveAspectRatio="none" style="width:1250px;height:893px;background:#FFFFFF;" version="1.1" viewBox="0 0 1250 893" width="1250px" zoomAndPan="magnify"><defs/><g><!--cluster channel--><g id="cluster_channel"><path d="M669.5,6.0137 L782.5,6.0137 A3.75,3.75 0 0 1 785,8.5137 L792,30.6348 L1240.5,30.6348 A2.5,2.5 0 0 1 1243,33.1348 L1243,884.0137 A2.5,2.5 0 0 1 1240.5,886.5137 L669.5,886.5137 A2.5,2.5 0 0 1 667,884.0137 L667,8.5137 A2.5,2.5 0 0 1 669.5,6.0137 " fill="none" style="stroke:#000000;stroke-width:1.5;"/><line style="stroke:#000000;stroke-width:1.5;" x1="667" x2="792" y1="30.6348" y2="30.6348"/><text fill="#000000" font-family="sans-serif" font-size="14" font-weight="bold" lengthAdjust="spacing" textLength="112" x="671" y="23.1211">io.netty.channel</text></g><!--cluster nio--><g id="cluster_nio"><path d="M705.5,386.0137 L728.5,386.0137 A3.75,3.75 0 0 1 731,388.5137 L738,410.6348 L1169.5,410.6348 A2.5,2.5 0 0 1 1172,413.1348 L1172,709.0137 A2.5,2.5 0 0 1 1169.5,711.5137 L705.5,711.5137 A2.5,2.5 0 0 1 703,709.0137 L703,388.5137 A2.5,2.5 0 0 1 705.5,386.0137 " fill="none" style="stroke:#000000;stroke-width:1.5;"/><line style="stroke:#000000;stroke-width:1.5;" x1="703" x2="738" y1="410.6348" y2="410.6348"/><text fill="#000000" font-family="sans-serif" font-size="14" font-weight="bold" lengthAdjust="spacing" textLength="22" x="707" y="403.1211">nio</text></g><!--cluster nio--><g id="cluster_nio"><path d="M693.5,750.5137 L767.5,750.5137 A3.75,3.75 0 0 1 770,753.0137 L777,775.1348 L1216.5,775.1348 A2.5,2.5 0 0 1 1219,777.6348 L1219,860.0137 A2.5,2.5 0 0 1 1216.5,862.5137 L693.5,862.5137 A2.5,2.5 0 0 1 691,860.0137 L691,753.0137 A2.5,2.5 0 0 1 693.5,750.5137 " fill="none" style="stroke:#000000;stroke-width:1.5;"/><line style="stroke:#000000;stroke-width:1.5;" x1="691" x2="777" y1="775.1348" y2="775.1348"/><text fill="#000000" font-family="sans-serif" font-size="14" font-weight="bold" lengthAdjust="spacing" textLength="73" x="695" y="767.6211">socket.nio</text></g><!--cluster channels--><g id="cluster_channels"><path d="M8.5,440.0137 L132.5,440.0137 A3.75,3.75 0 0 1 135,442.5137 L142,464.6348 L640.5,464.6348 A2.5,2.5 0 0 1 643,467.1348 L643,878.5137 A2.5,2.5 0 0 1 640.5,881.0137 L8.5,881.0137 A2.5,2.5 0 0 1 6,878.5137 L6,442.5137 A2.5,2.5 0 0 1 8.5,440.0137 " fill="none" style="stroke:#000000;stroke-width:1.5;"/><line style="stroke:#000000;stroke-width:1.5;" x1="6" x2="142" y1="464.6348" y2="464.6348"/><text fill="#000000" font-family="sans-serif" font-size="14" font-weight="bold" lengthAdjust="spacing" textLength="123" x="10" y="457.1211">java.nio.channels</text></g><!--cluster spi--><g id="cluster_spi"><path d="M263.5,613.0137 L285.5,613.0137 A3.75,3.75 0 0 1 288,615.5137 L295,637.6348 L616.5,637.6348 A2.5,2.5 0 0 1 619,640.1348 L619,722.5137 A2.5,2.5 0 0 1 616.5,725.0137 L263.5,725.0137 A2.5,2.5 0 0 1 261,722.5137 L261,615.5137 A2.5,2.5 0 0 1 263.5,613.0137 " fill="none" style="stroke:#000000;stroke-width:1.5;"/><line style="stroke:#000000;stroke-width:1.5;" x1="261" x2="295" y1="637.6348" y2="637.6348"/><text fill="#000000" font-family="sans-serif" font-size="14" font-weight="bold" lengthAdjust="spacing" textLength="21" x="265" y="630.1211">spi</text></g><!--class AbstractChannel--><g id="elem_AbstractChannel"><rect codeLine="1" fill="#F1F1F1" height="227.5898" id="AbstractChannel" rx="2.5" ry="2.5" style="stroke:#181818;stroke-width:0.5;" width="231" x="732.5" y="135.0137"/><ellipse cx="791.25" cy="151.0137" fill="#A9DCDF" rx="11" ry="11" style="stroke:#181818;stroke-width:1.0;"/><path d="M791.6719,151.498 L789.1094,151.498 L788.5781,153.7949 Q788.5156,154.123 788.5156,154.2793 Q788.5156,154.498 788.5625,154.6543 Q788.625,154.8105 788.9063,154.8105 L789.375,154.8105 L789.375,155.748 L786.3906,155.748 L786.3906,154.8105 L786.8438,154.8105 Q787.0156,154.8105 787.1406,154.7168 Q787.2656,154.6074 787.3125,154.3105 L789.9531,143.9824 L791.3594,143.5137 L793.9375,154.2793 Q794.0469,154.5918 794.1719,154.7012 Q794.3125,154.8105 794.4844,154.8105 L794.9531,154.8105 L794.9531,155.748 L791.5625,155.748 L791.5625,154.8105 L792.0938,154.8105 Q792.3125,154.8105 792.3281,154.7637 Q792.3594,154.7012 792.3594,154.623 Q792.3594,154.4043 792.3125,154.2168 L791.6719,151.498 Z M787.1094,155.3418 L787.1094,155.3418 Z M787.7813,155.3418 L787.7813,155.3418 Z M792.5,155.3418 L792.5,155.3418 Z M793.625,155.3418 L793.625,155.3418 Z M790.4375,145.4043 L790.5,145.4043 L789.3906,150.5605 L791.4844,150.5605 L790.4375,145.4043 Z " fill="#000000"/><text fill="#000000" font-family="sans-serif" font-size="14" font-style="italic" lengthAdjust="spacing" textLength="105" x="811.75" y="156.8105">AbstractChannel</text><line style="stroke:#181818;stroke-width:0.5;" x1="733.5" x2="962.5" y1="167.0137" y2="167.0137"/><rect fill="none" height="6" style="stroke:#C82930;stroke-width:1.0;" width="6" x="740.5" y="178.8242"/><text fill="#000000" font-family="sans-serif" font-size="14" lengthAdjust="spacing" textLength="83" x="752.5" y="186.1211">id: ChannelId</text><rect fill="none" height="6" style="stroke:#C82930;stroke-width:1.0;" width="6" x="740.5" y="197.4453"/><text fill="#000000" font-family="sans-serif" font-size="14" lengthAdjust="spacing" textLength="102" x="752.5" y="204.7422">parent: Channel</text><rect fill="none" height="6" style="stroke:#C82930;stroke-width:1.0;" width="6" x="740.5" y="216.0664"/><text fill="#000000" font-family="sans-serif" font-size="14" lengthAdjust="spacing" textLength="123" x="752.5" y="223.3633">registered: boolean</text><rect fill="none" height="6" style="stroke:#C82930;stroke-width:1.0;" width="6" x="740.5" y="257.3086"/><text fill="#000000" font-family="sans-serif" font-size="14" lengthAdjust="spacing" textLength="95" x="752.5" y="264.6055">unsafe: Unsafe</text><line style="stroke:#181818;stroke-width:1.0;stroke-dasharray:1.0,2.0;" x1="733.5" x2="826.5" y1="240.1875" y2="240.1875"/><text fill="#000000" font-family="sans-serif" font-size="14" lengthAdjust="spacing" textLength="43" x="826.5" y="245.4844">unsafe</text><line style="stroke:#181818;stroke-width:1.0;stroke-dasharray:1.0,2.0;" x1="869.5" x2="962.5" y1="240.1875" y2="240.1875"/><rect fill="none" height="6" style="stroke:#C82930;stroke-width:1.0;" width="6" x="740.5" y="298.5508"/><text fill="#000000" font-family="sans-serif" font-size="14" lengthAdjust="spacing" textLength="205" x="752.5" y="305.8477">pipeline: DefaultChannelPipeline</text><line style="stroke:#181818;stroke-width:1.0;stroke-dasharray:1.0,2.0;" x1="733.5" x2="823.5" y1="281.4297" y2="281.4297"/><text fill="#000000" font-family="sans-serif" font-size="14" lengthAdjust="spacing" textLength="49" x="823.5" y="286.7266">pipeline</text><line style="stroke:#181818;stroke-width:1.0;stroke-dasharray:1.0,2.0;" x1="872.5" x2="962.5" y1="281.4297" y2="281.4297"/><rect fill="none" height="6" style="stroke:#C82930;stroke-width:1.0;" width="6" x="740.5" y="339.793"/><text fill="#000000" font-family="sans-serif" font-size="14" lengthAdjust="spacing" textLength="143" x="752.5" y="347.0898">eventLoop: EventLoop</text><line style="stroke:#181818;stroke-width:1.0;stroke-dasharray:1.0,2.0;" x1="733.5" x2="817" y1="322.6719" y2="322.6719"/><text fill="#000000" font-family="sans-serif" font-size="14" lengthAdjust="spacing" textLength="62" x="817" y="327.9688">eventloop</text><line style="stroke:#181818;stroke-width:1.0;stroke-dasharray:1.0,2.0;" x1="879" x2="962.5" y1="322.6719" y2="322.6719"/><line style="stroke:#181818;stroke-width:1.0;" x1="733.5" x2="962.5" y1="354.6035" y2="354.6035"/></g><!--class Channel--><g id="elem_Channel"><rect codeLine="1" fill="#F1F1F1" height="32" id="Channel" rx="2.5" ry="2.5" style="stroke:#181818;stroke-width:0.5;" width="85" x="805.5" y="43.0137"/><ellipse cx="820.5" cy="59.0137" fill="#B4A7E5" rx="11" ry="11" style="stroke:#181818;stroke-width:1.0;"/><path d="M817.0938,53.7949 L817.0938,52.8574 L822.9375,52.8574 L822.9375,53.7949 L821.1406,53.7949 Q820.9688,53.7949 820.8906,53.8574 Q820.8125,53.9199 820.8125,54.0605 L820.8125,63.5449 Q820.8125,63.6855 820.8906,63.748 Q820.9688,63.8105 821.1406,63.8105 L822.9375,63.8105 L822.9375,64.748 L817.0938,64.748 L817.0938,63.8105 L818.8906,63.8105 Q819.1094,63.8105 819.1563,63.7637 Q819.2188,63.7012 819.2188,63.5449 L819.2188,54.0605 Q819.2188,53.9043 819.1563,53.8574 Q819.1094,53.7949 818.8906,53.7949 L817.0938,53.7949 Z " fill="#000000"/><text fill="#000000" font-family="sans-serif" font-size="14" font-style="italic" lengthAdjust="spacing" textLength="53" x="834.5" y="64.8105">Channel</text></g><!--class AbstractNioByteChannel--><g id="elem_AbstractNioByteChannel"><rect codeLine="1" fill="#F1F1F1" height="32" id="AbstractNioByteChannel" rx="2.5" ry="2.5" style="stroke:#181818;stroke-width:0.5;" width="186" x="719" y="663.5137"/><ellipse cx="734" cy="679.5137" fill="#A9DCDF" rx="11" ry="11" style="stroke:#181818;stroke-width:1.0;"/><path d="M734.4219,679.998 L731.8594,679.998 L731.3281,682.2949 Q731.2656,682.623 731.2656,682.7793 Q731.2656,682.998 731.3125,683.1543 Q731.375,683.3105 731.6563,683.3105 L732.125,683.3105 L732.125,684.248 L729.1406,684.248 L729.1406,683.3105 L729.5938,683.3105 Q729.7656,683.3105 729.8906,683.2168 Q730.0156,683.1074 730.0625,682.8105 L732.7031,672.4824 L734.1094,672.0137 L736.6875,682.7793 Q736.7969,683.0918 736.9219,683.2012 Q737.0625,683.3105 737.2344,683.3105 L737.7031,683.3105 L737.7031,684.248 L734.3125,684.248 L734.3125,683.3105 L734.8438,683.3105 Q735.0625,683.3105 735.0781,683.2637 Q735.1094,683.2012 735.1094,683.123 Q735.1094,682.9043 735.0625,682.7168 L734.4219,679.998 Z M729.8594,683.8418 L729.8594,683.8418 Z M730.5313,683.8418 L730.5313,683.8418 Z M735.25,683.8418 L735.25,683.8418 Z M736.375,683.8418 L736.375,683.8418 Z M733.1875,673.9043 L733.25,673.9043 L732.1406,679.0605 L734.2344,679.0605 L733.1875,673.9043 Z " fill="#000000"/><text fill="#000000" font-family="sans-serif" font-size="14" font-style="italic" lengthAdjust="spacing" textLength="154" x="748" y="685.3105">AbstractNioByteChannel</text></g><!--class AbstractNioChannel--><g id="elem_AbstractNioChannel"><rect codeLine="1" fill="#F1F1F1" height="159.7266" id="AbstractNioChannel" rx="2.5" ry="2.5" style="stroke:#181818;stroke-width:0.5;" width="242" x="727" y="427.0137"/><ellipse cx="780.75" cy="443.0137" fill="#A9DCDF" rx="11" ry="11" style="stroke:#181818;stroke-width:1.0;"/><path d="M781.1719,443.498 L778.6094,443.498 L778.0781,445.7949 Q778.0156,446.123 778.0156,446.2793 Q778.0156,446.498 778.0625,446.6543 Q778.125,446.8105 778.4063,446.8105 L778.875,446.8105 L778.875,447.748 L775.8906,447.748 L775.8906,446.8105 L776.3438,446.8105 Q776.5156,446.8105 776.6406,446.7168 Q776.7656,446.6074 776.8125,446.3105 L779.4531,435.9824 L780.8594,435.5137 L783.4375,446.2793 Q783.5469,446.5918 783.6719,446.7012 Q783.8125,446.8105 783.9844,446.8105 L784.4531,446.8105 L784.4531,447.748 L781.0625,447.748 L781.0625,446.8105 L781.5938,446.8105 Q781.8125,446.8105 781.8281,446.7637 Q781.8594,446.7012 781.8594,446.623 Q781.8594,446.4043 781.8125,446.2168 L781.1719,443.498 Z M776.6094,447.3418 L776.6094,447.3418 Z M777.2813,447.3418 L777.2813,447.3418 Z M782,447.3418 L782,447.3418 Z M783.125,447.3418 L783.125,447.3418 Z M779.9375,437.4043 L780,437.4043 L778.8906,442.5605 L780.9844,442.5605 L779.9375,437.4043 Z " fill="#000000"/><text fill="#000000" font-family="sans-serif" font-size="14" font-style="italic" lengthAdjust="spacing" textLength="126" x="801.25" y="448.8105">AbstractNioChannel</text><line style="stroke:#181818;stroke-width:0.5;" x1="728" x2="968" y1="459.0137" y2="459.0137"/><rect fill="none" height="6" style="stroke:#C82930;stroke-width:1.0;" width="6" x="735" y="470.8242"/><text fill="#000000" font-family="sans-serif" font-size="14" lengthAdjust="spacing" textLength="142" x="747" y="478.1211">ch: SelectableChannel</text><polygon fill="none" points="738,487.4453,742,491.4453,738,495.4453,734,491.4453" style="stroke:#B38D22;stroke-width:1.0;"/><text fill="#000000" font-family="sans-serif" font-size="14" lengthAdjust="spacing" textLength="118" x="747" y="496.7422">readInterestOp: int</text><polygon fill="none" points="738,507.0664,734,513.0664,742,513.0664" style="stroke:#1963A0;stroke-width:1.0;"/><text fill="#000000" font-family="sans-serif" font-size="14" lengthAdjust="spacing" textLength="170" x="747" y="515.3633">selectionKey: SelectionKey</text><line style="stroke:#181818;stroke-width:1.0;" x1="728" x2="968" y1="522.877" y2="522.877"/><polygon fill="#FFFF44" points="738,532.6875,742,536.6875,738,540.6875,734,536.6875" style="stroke:#B38D22;stroke-width:1.0;"/><text fill="#000000" font-family="sans-serif" font-size="14" lengthAdjust="spacing" textLength="216" x="747" y="541.9844">javaChannel(): SelectableChannel</text><polygon fill="#FFFF44" points="738,551.3086,742,555.3086,738,559.3086,734,555.3086" style="stroke:#B38D22;stroke-width:1.0;"/><text fill="#000000" font-family="sans-serif" font-size="14" lengthAdjust="spacing" textLength="180" x="747" y="560.6055">selectionKey(): SelectionKey</text><ellipse cx="738" cy="574.9297" fill="#84BE84" rx="3" ry="3" style="stroke:#038048;stroke-width:1.0;"/><text fill="#000000" font-family="sans-serif" font-size="14" lengthAdjust="spacing" textLength="153" x="747" y="579.2266">eventLoop(): EventLoop</text></g><!--class AbstractNioMessageChannel--><g id="elem_AbstractNioMessageChannel"><rect codeLine="1" fill="#F1F1F1" height="32" id="AbstractNioMessageChannel" rx="2.5" ry="2.5" style="stroke:#181818;stroke-width:0.5;" width="216" x="940" y="663.5137"/><ellipse cx="955" cy="679.5137" fill="#A9DCDF" rx="11" ry="11" style="stroke:#181818;stroke-width:1.0;"/><path d="M955.4219,679.998 L952.8594,679.998 L952.3281,682.2949 Q952.2656,682.623 952.2656,682.7793 Q952.2656,682.998 952.3125,683.1543 Q952.375,683.3105 952.6563,683.3105 L953.125,683.3105 L953.125,684.248 L950.1406,684.248 L950.1406,683.3105 L950.5938,683.3105 Q950.7656,683.3105 950.8906,683.2168 Q951.0156,683.1074 951.0625,682.8105 L953.7031,672.4824 L955.1094,672.0137 L957.6875,682.7793 Q957.7969,683.0918 957.9219,683.2012 Q958.0625,683.3105 958.2344,683.3105 L958.7031,683.3105 L958.7031,684.248 L955.3125,684.248 L955.3125,683.3105 L955.8438,683.3105 Q956.0625,683.3105 956.0781,683.2637 Q956.1094,683.2012 956.1094,683.123 Q956.1094,682.9043 956.0625,682.7168 L955.4219,679.998 Z M950.8594,683.8418 L950.8594,683.8418 Z M951.5313,683.8418 L951.5313,683.8418 Z M956.25,683.8418 L956.25,683.8418 Z M957.375,683.8418 L957.375,683.8418 Z M954.1875,673.9043 L954.25,673.9043 L953.1406,679.0605 L955.2344,679.0605 L954.1875,673.9043 Z " fill="#000000"/><text fill="#000000" font-family="sans-serif" font-size="14" font-style="italic" lengthAdjust="spacing" textLength="184" x="969" y="685.3105">AbstractNioMessageChannel</text></g><!--class NioServerSocketChannel--><g id="elem_NioServerSocketChannel"><rect codeLine="1" fill="#F1F1F1" height="58.6211" id="NioServerSocketChannel" rx="2.5" ry="2.5" style="stroke:#181818;stroke-width:0.5;" width="251" x="951.5" y="787.5137"/><ellipse cx="993.95" cy="803.5137" fill="#ADD1B2" rx="11" ry="11" style="stroke:#181818;stroke-width:1.0;"/><path d="M993.2938,809.373 Q991.3094,809.373 990.1375,807.9043 Q988.9813,806.4199 988.9813,803.3418 Q988.9813,800.7324 990.2,798.9824 Q991.4344,797.2324 993.5594,797.2324 Q994.0594,797.2324 994.5906,797.373 Q995.0281,797.5605 995.2938,797.5605 Q995.5125,797.5605 995.6063,797.5137 Q995.7156,797.4668 996.1688,796.873 L996.9344,800.6074 L996.0438,800.873 Q995.5906,799.4199 994.9813,798.8262 Q994.3875,798.2168 993.4344,798.2168 Q992.2156,798.2168 991.4969,799.6543 Q990.7781,801.0762 990.7781,803.2637 Q990.7781,805.6699 991.3875,806.9668 Q992.0125,808.248 993.3719,808.248 Q994.325,808.248 995.0125,807.5605 Q995.7,806.8574 996.0281,805.3574 L996.9344,805.7637 Q996.5281,807.4668 995.5594,808.4199 Q994.6063,809.373 993.2938,809.373 Z " fill="#000000"/><text fill="#000000" font-family="sans-serif" font-size="14" lengthAdjust="spacing" textLength="158" x="1014.05" y="809.3105">NioServerSocketChannel</text><line style="stroke:#181818;stroke-width:0.5;" x1="952.5" x2="1201.5" y1="819.5137" y2="819.5137"/><rect fill="none" height="6" style="stroke:#C82930;stroke-width:1.0;" width="6" x="959.5" y="831.3242"/><text fill="#000000" font-family="sans-serif" font-size="14" lengthAdjust="spacing" textLength="225" x="971.5" y="838.6211">config: ServerSocketChannelConfig</text></g><!--class NioSocketChannel--><g id="elem_NioSocketChannel"><rect codeLine="1" fill="#F1F1F1" height="58.6211" id="NioSocketChannel" rx="2.5" ry="2.5" style="stroke:#181818;stroke-width:0.5;" width="209" x="707.5" y="787.5137"/><ellipse cx="749.95" cy="803.5137" fill="#ADD1B2" rx="11" ry="11" style="stroke:#181818;stroke-width:1.0;"/><path d="M749.2938,809.373 Q747.3094,809.373 746.1375,807.9043 Q744.9813,806.4199 744.9813,803.3418 Q744.9813,800.7324 746.2,798.9824 Q747.4344,797.2324 749.5594,797.2324 Q750.0594,797.2324 750.5906,797.373 Q751.0281,797.5605 751.2938,797.5605 Q751.5125,797.5605 751.6063,797.5137 Q751.7156,797.4668 752.1688,796.873 L752.9344,800.6074 L752.0438,800.873 Q751.5906,799.4199 750.9813,798.8262 Q750.3875,798.2168 749.4344,798.2168 Q748.2156,798.2168 747.4969,799.6543 Q746.7781,801.0762 746.7781,803.2637 Q746.7781,805.6699 747.3875,806.9668 Q748.0125,808.248 749.3719,808.248 Q750.325,808.248 751.0125,807.5605 Q751.7,806.8574 752.0281,805.3574 L752.9344,805.7637 Q752.5281,807.4668 751.5594,808.4199 Q750.6063,809.373 749.2938,809.373 Z " fill="#000000"/><text fill="#000000" font-family="sans-serif" font-size="14" lengthAdjust="spacing" textLength="116" x="770.05" y="809.3105">NioSocketChannel</text><line style="stroke:#181818;stroke-width:0.5;" x1="708.5" x2="915.5" y1="819.5137" y2="819.5137"/><rect fill="none" height="6" style="stroke:#C82930;stroke-width:1.0;" width="6" x="715.5" y="831.3242"/><text fill="#000000" font-family="sans-serif" font-size="14" lengthAdjust="spacing" textLength="183" x="727.5" y="838.6211">config: SocketChannelConfig</text></g><!--class SelectableChannel--><g id="elem_SelectableChannel"><rect codeLine="12" fill="#F1F1F1" height="58.6211" id="SelectableChannel" rx="2.5" ry="2.5" style="stroke:#181818;stroke-width:0.5;" width="298" x="310" y="477.0137"/><ellipse cx="395.25" cy="493.0137" fill="#A9DCDF" rx="11" ry="11" style="stroke:#181818;stroke-width:1.0;"/><path d="M395.6719,493.498 L393.1094,493.498 L392.5781,495.7949 Q392.5156,496.123 392.5156,496.2793 Q392.5156,496.498 392.5625,496.6543 Q392.625,496.8105 392.9063,496.8105 L393.375,496.8105 L393.375,497.748 L390.3906,497.748 L390.3906,496.8105 L390.8438,496.8105 Q391.0156,496.8105 391.1406,496.7168 Q391.2656,496.6074 391.3125,496.3105 L393.9531,485.9824 L395.3594,485.5137 L397.9375,496.2793 Q398.0469,496.5918 398.1719,496.7012 Q398.3125,496.8105 398.4844,496.8105 L398.9531,496.8105 L398.9531,497.748 L395.5625,497.748 L395.5625,496.8105 L396.0938,496.8105 Q396.3125,496.8105 396.3281,496.7637 Q396.3594,496.7012 396.3594,496.623 Q396.3594,496.4043 396.3125,496.2168 L395.6719,493.498 Z M391.1094,497.3418 L391.1094,497.3418 Z M391.7813,497.3418 L391.7813,497.3418 Z M396.5,497.3418 L396.5,497.3418 Z M397.625,497.3418 L397.625,497.3418 Z M394.4375,487.4043 L394.5,487.4043 L393.3906,492.5605 L395.4844,492.5605 L394.4375,487.4043 Z " fill="#000000"/><text fill="#000000" font-family="sans-serif" font-size="14" font-style="italic" lengthAdjust="spacing" textLength="119" x="415.75" y="498.8105">SelectableChannel</text><line style="stroke:#181818;stroke-width:0.5;" x1="311" x2="607" y1="509.0137" y2="509.0137"/><ellipse cx="321" cy="523.8242" fill="#84BE84" rx="3" ry="3" style="stroke:#038048;stroke-width:1.0;"/><text fill="#000000" font-family="sans-serif" font-size="14" font-style="italic" lengthAdjust="spacing" textLength="272" x="330" y="528.1211">register(Selector, int, Object): SelectionKey</text></g><!--class ServerSocketChannel--><g id="elem_ServerSocketChannel"><rect codeLine="18" fill="#F1F1F1" height="95.8633" id="ServerSocketChannel" rx="2.5" ry="2.5" style="stroke:#181818;stroke-width:0.5;" width="328" x="22" y="769.0137"/><ellipse cx="112.75" cy="785.0137" fill="#A9DCDF" rx="11" ry="11" style="stroke:#181818;stroke-width:1.0;"/><path d="M113.1719,785.498 L110.6094,785.498 L110.0781,787.7949 Q110.0156,788.123 110.0156,788.2793 Q110.0156,788.498 110.0625,788.6543 Q110.125,788.8105 110.4063,788.8105 L110.875,788.8105 L110.875,789.748 L107.8906,789.748 L107.8906,788.8105 L108.3438,788.8105 Q108.5156,788.8105 108.6406,788.7168 Q108.7656,788.6074 108.8125,788.3105 L111.4531,777.9824 L112.8594,777.5137 L115.4375,788.2793 Q115.5469,788.5918 115.6719,788.7012 Q115.8125,788.8105 115.9844,788.8105 L116.4531,788.8105 L116.4531,789.748 L113.0625,789.748 L113.0625,788.8105 L113.5938,788.8105 Q113.8125,788.8105 113.8281,788.7637 Q113.8594,788.7012 113.8594,788.623 Q113.8594,788.4043 113.8125,788.2168 L113.1719,785.498 Z M108.6094,789.3418 L108.6094,789.3418 Z M109.2813,789.3418 L109.2813,789.3418 Z M114,789.3418 L114,789.3418 Z M115.125,789.3418 L115.125,789.3418 Z M111.9375,779.4043 L112,779.4043 L110.8906,784.5605 L112.9844,784.5605 L111.9375,779.4043 Z " fill="#000000"/><text fill="#000000" font-family="sans-serif" font-size="14" font-style="italic" lengthAdjust="spacing" textLength="138" x="133.25" y="790.8105">ServerSocketChannel</text><line style="stroke:#181818;stroke-width:0.5;" x1="23" x2="349" y1="801.0137" y2="801.0137"/><ellipse cx="33" cy="815.8242" fill="#84BE84" rx="3" ry="3" style="stroke:#038048;stroke-width:1.0;"/><text fill="#000000" font-family="sans-serif" font-size="14" lengthAdjust="spacing" text-decoration="underline" textLength="188" x="42" y="820.1211">open(): ServerSocketChannel</text><ellipse cx="33" cy="834.4453" fill="#84BE84" rx="3" ry="3" style="stroke:#038048;stroke-width:1.0;"/><text fill="#000000" font-family="sans-serif" font-size="14" font-style="italic" lengthAdjust="spacing" textLength="157" x="42" y="838.7422">accept(): SocketChannel</text><ellipse cx="33" cy="853.0664" fill="#84BE84" rx="3" ry="3" style="stroke:#038048;stroke-width:1.0;"/><text fill="#000000" font-family="sans-serif" font-size="14" font-style="italic" lengthAdjust="spacing" textLength="302" x="42" y="857.3633">bind(SocketAddress, int): ServerSocketChannel</text></g><!--class SocketChannel--><g id="elem_SocketChannel"><rect codeLine="23" fill="#F1F1F1" height="77.2422" id="SocketChannel" rx="2.5" ry="2.5" style="stroke:#181818;stroke-width:0.5;" width="241" x="385.5" y="778.5137"/><ellipse cx="453.25" cy="794.5137" fill="#A9DCDF" rx="11" ry="11" style="stroke:#181818;stroke-width:1.0;"/><path d="M453.6719,794.998 L451.1094,794.998 L450.5781,797.2949 Q450.5156,797.623 450.5156,797.7793 Q450.5156,797.998 450.5625,798.1543 Q450.625,798.3105 450.9063,798.3105 L451.375,798.3105 L451.375,799.248 L448.3906,799.248 L448.3906,798.3105 L448.8438,798.3105 Q449.0156,798.3105 449.1406,798.2168 Q449.2656,798.1074 449.3125,797.8105 L451.9531,787.4824 L453.3594,787.0137 L455.9375,797.7793 Q456.0469,798.0918 456.1719,798.2012 Q456.3125,798.3105 456.4844,798.3105 L456.9531,798.3105 L456.9531,799.248 L453.5625,799.248 L453.5625,798.3105 L454.0938,798.3105 Q454.3125,798.3105 454.3281,798.2637 Q454.3594,798.2012 454.3594,798.123 Q454.3594,797.9043 454.3125,797.7168 L453.6719,794.998 Z M449.1094,798.8418 L449.1094,798.8418 Z M449.7813,798.8418 L449.7813,798.8418 Z M454.5,798.8418 L454.5,798.8418 Z M455.625,798.8418 L455.625,798.8418 Z M452.4375,788.9043 L452.5,788.9043 L451.3906,794.0605 L453.4844,794.0605 L452.4375,788.9043 Z " fill="#000000"/><text fill="#000000" font-family="sans-serif" font-size="14" font-style="italic" lengthAdjust="spacing" textLength="97" x="473.75" y="800.3105">SocketChannel</text><line style="stroke:#181818;stroke-width:0.5;" x1="386.5" x2="625.5" y1="810.5137" y2="810.5137"/><ellipse cx="396.5" cy="825.3242" fill="#84BE84" rx="3" ry="3" style="stroke:#038048;stroke-width:1.0;"/><text fill="#000000" font-family="sans-serif" font-size="14" lengthAdjust="spacing" text-decoration="underline" textLength="146" x="405.5" y="829.6211">open(): SocketChannel</text><ellipse cx="396.5" cy="843.9453" fill="#84BE84" rx="3" ry="3" style="stroke:#038048;stroke-width:1.0;"/><text fill="#000000" font-family="sans-serif" font-size="14" font-style="italic" lengthAdjust="spacing" textLength="215" x="405.5" y="848.2422">connect(SocketAddress): boolean</text></g><!--class AbstractSelectableChannel--><g id="elem_AbstractSelectableChannel"><rect codeLine="15" fill="#F1F1F1" height="58.6211" id="AbstractSelectableChannel" rx="2.5" ry="2.5" style="stroke:#181818;stroke-width:0.5;" width="326" x="277" y="650.0137"/><ellipse cx="350.25" cy="666.0137" fill="#A9DCDF" rx="11" ry="11" style="stroke:#181818;stroke-width:1.0;"/><path d="M350.6719,666.498 L348.1094,666.498 L347.5781,668.7949 Q347.5156,669.123 347.5156,669.2793 Q347.5156,669.498 347.5625,669.6543 Q347.625,669.8105 347.9063,669.8105 L348.375,669.8105 L348.375,670.748 L345.3906,670.748 L345.3906,669.8105 L345.8438,669.8105 Q346.0156,669.8105 346.1406,669.7168 Q346.2656,669.6074 346.3125,669.3105 L348.9531,658.9824 L350.3594,658.5137 L352.9375,669.2793 Q353.0469,669.5918 353.1719,669.7012 Q353.3125,669.8105 353.4844,669.8105 L353.9531,669.8105 L353.9531,670.748 L350.5625,670.748 L350.5625,669.8105 L351.0938,669.8105 Q351.3125,669.8105 351.3281,669.7637 Q351.3594,669.7012 351.3594,669.623 Q351.3594,669.4043 351.3125,669.2168 L350.6719,666.498 Z M346.1094,670.3418 L346.1094,670.3418 Z M346.7813,670.3418 L346.7813,670.3418 Z M351.5,670.3418 L351.5,670.3418 Z M352.625,670.3418 L352.625,670.3418 Z M349.4375,660.4043 L349.5,660.4043 L348.3906,665.5605 L350.4844,665.5605 L349.4375,660.4043 Z " fill="#000000"/><text fill="#000000" font-family="sans-serif" font-size="14" font-style="italic" lengthAdjust="spacing" textLength="171" x="370.75" y="671.8105">AbstractSelectableChannel</text><line style="stroke:#181818;stroke-width:0.5;" x1="278" x2="602" y1="682.0137" y2="682.0137"/><ellipse cx="288" cy="696.8242" fill="#84BE84" rx="3" ry="3" style="stroke:#038048;stroke-width:1.0;"/><text fill="#000000" font-family="sans-serif" font-size="14" lengthAdjust="spacing" textLength="300" x="297" y="701.1211">configureBlocking(boolean): SelectableChannel</text></g><!--reverse link Channel to AbstractChannel--><g id="link_Channel_AbstractChannel"><path codeLine="29" d="M848,93.0837 C848,107.0237 848,111.1337 848,134.9537 " fill="none" id="Channel-backto-AbstractChannel" style="stroke:#181818;stroke-width:1.0;stroke-dasharray:7.0,7.0;"/><polygon fill="none" points="848,75.0837,842,93.0837,854,93.0837,848,75.0837" style="stroke:#181818;stroke-width:1.0;"/></g><!--reverse link AbstractNioChannel to AbstractNioByteChannel--><g id="link_AbstractNioChannel_AbstractNioByteChannel"><path codeLine="30" d="M826.8696,607.8771 C820.9796,635.8371 818.72,646.5737 815.19,663.3437 " fill="none" id="AbstractNioChannel-backto-AbstractNioByteChannel" style="stroke:#181818;stroke-width:1.0;"/><polygon fill="none" points="830.58,590.2637,820.9984,606.6403,832.7407,609.1139,830.58,590.2637" style="stroke:#181818;stroke-width:1.0;"/></g><!--reverse link AbstractChannel to AbstractNioChannel--><g id="link_AbstractChannel_AbstractNioChannel"><path codeLine="31" d="M848,381.1937 C848,401.2137 848,403.7237 848,422.7137 " fill="none" id="AbstractChannel-backto-AbstractNioChannel" style="stroke:#181818;stroke-width:1.0;"/><polygon fill="none" points="848,363.1937,842,381.1937,854,381.1937,848,363.1937" style="stroke:#181818;stroke-width:1.0;"/></g><!--reverse link AbstractNioChannel to AbstractNioMessageChannel--><g id="link_AbstractNioChannel_AbstractNioMessageChannel"><path codeLine="32" d="M958.4608,601.9614 C991.1608,629.9214 1010.65,646.5737 1030.26,663.3437 " fill="none" id="AbstractNioChannel-backto-AbstractNioMessageChannel" style="stroke:#181818;stroke-width:1.0;"/><polygon fill="none" points="944.78,590.2637,954.5616,606.5216,962.36,597.4011,944.78,590.2637" style="stroke:#181818;stroke-width:1.0;"/></g><!--reverse link AbstractNioMessageChannel to NioServerSocketChannel--><g id="link_AbstractNioMessageChannel_NioServerSocketChannel"><path codeLine="33" d="M1054.9815,713.1341 C1059.7215,735.2541 1064.88,759.3937 1070.89,787.4537 " fill="none" id="AbstractNioMessageChannel-backto-NioServerSocketChannel" style="stroke:#181818;stroke-width:1.0;"/><polygon fill="none" points="1051.21,695.5337,1049.1147,714.3913,1060.8483,711.8769,1051.21,695.5337" style="stroke:#181818;stroke-width:1.0;"/></g><!--reverse link AbstractNioByteChannel to NioSocketChannel--><g id="link_AbstractNioByteChannel_NioSocketChannel"><path codeLine="34" d="M812,713.5337 C812,735.6537 812,759.3937 812,787.4537 " fill="none" id="AbstractNioByteChannel-backto-NioSocketChannel" style="stroke:#181818;stroke-width:1.0;"/><polygon fill="none" points="812,695.5337,806,713.5337,818,713.5337,812,695.5337" style="stroke:#181818;stroke-width:1.0;"/></g><!--reverse link SelectableChannel to AbstractSelectableChannel--><g id="link_SelectableChannel_AbstractSelectableChannel"><path codeLine="37" d="M453.831,554.0234 C450.321,585.5934 446.7,618.1937 443.19,649.8037 " fill="none" id="SelectableChannel-backto-AbstractSelectableChannel" style="stroke:#181818;stroke-width:1.0;"/><polygon fill="none" points="455.82,536.1337,447.8677,553.3604,459.7942,554.6864,455.82,536.1337" style="stroke:#181818;stroke-width:1.0;"/></g><!--reverse link AbstractSelectableChannel to ServerSocketChannel--><g id="link_AbstractSelectableChannel_ServerSocketChannel"><path codeLine="38" d="M370.5578,717.5545 C338.0278,734.9045 311.59,749.0137 274.22,768.9537 " fill="none" id="AbstractSelectableChannel-backto-ServerSocketChannel" style="stroke:#181818;stroke-width:1.0;"/><polygon fill="none" points="386.44,709.0837,367.7342,712.2604,373.3814,722.8486,386.44,709.0837" style="stroke:#181818;stroke-width:1.0;"/></g><!--reverse link AbstractSelectableChannel to SocketChannel--><g id="link_AbstractSelectableChannel_SocketChannel"><path codeLine="39" d="M461.8821,725.4361 C471.6821,745.5561 476.99,756.4537 487.63,778.3137 " fill="none" id="AbstractSelectableChannel-backto-SocketChannel" style="stroke:#181818;stroke-width:1.0;"/><polygon fill="none" points="454,709.2537,456.488,728.0635,467.2763,722.8088,454,709.2537" style="stroke:#181818;stroke-width:1.0;"/></g><!--reverse link SelectableChannel to AbstractNioChannel--><g id="link_SelectableChannel_AbstractNioChannel"><path codeLine="41" d="M625.8609,478.6005 C664.1709,473.8105 687.59,472.5137 726,472.5137 " fill="none" id="SelectableChannel-backto-AbstractNioChannel" style="stroke:#181818;stroke-width:1.0;"/><polygon fill="none" points="608,480.8337,626.6053,484.5541,625.1165,472.6468,608,480.8337" style="stroke:#181818;stroke-width:1.0;"/></g><!--SRC=[bLJBRi8m4BpxAyofgG1pvr09UgggFYI-OECimU3OaUqW8Sg_rqhY2f90dToocjdPcUncKXh82w2LnJVbq1IO2N3u3Vm0ELgw1McHa8bGN5OPKiOMV0TAeLoaO0LVh5Bh373tsbHPMHKo0lufzFhaS3nhFEC3hVLU8ecHCDztW-Q8PgFv0Tq8LXzF2BJJKYx1Mhg78p0bD6lPbcrG8dUGoc23dWdrppamBtHgC1VMVyAa0MipeqAv6VrAz_xrUKcRkj3g7K_ayh-eBGKBETuROCgrsegyChYMtfbGUP9gBH7Kd-0LAKPr8DPWrZfmWdkhkaILr08zR2yMu1nBLwCVubAXigI1hBBC-AMfyxkZ4cCapiB3eNowoaTuEvTdjHdxCGZfN21bLSb-NcXeENnnT5wLSu_gNnRfbxhW0UJjaJteFdmu0uJRZgHxEWECAtjNiVGtjsNsjpDk6Jl2KMt6DHZu1Cibtz6vnAqR7fqyxOJ_unHOf6WigL-2NYWsaEwwt52mADqfb7u1]--></g></svg>