<svg xmlns="http://www.w3.org/2000/svg" xmlns:xlink="http://www.w3.org/1999/xlink" contentStyleType="text/css" height="777px" preserveAspectRatio="none" style="width:1152px;height:777px;background:#FFFFFF;" version="1.1" viewBox="0 0 1152 777" width="1152px" zoomAndPan="magnify"><title>&#20844;&#35785;&#21644;&#35299;-&#36866;&#29992;&#21028;&#26029;</title><defs/><g><text fill="#000000" font-family="sans-serif" font-size="14" font-weight="bold" lengthAdjust="spacing" textLength="120.1621" x="514.75" y="34.5332">&#20844;&#35785;&#21644;&#35299;-&#36866;&#29992;&#21028;&#26029;</text><rect fill="#F1F1F1" height="37.6094" rx="12.5" ry="12.5" style="stroke:#181818;stroke-width:1.5;" width="136.6621" x="10" y="388.3125"/><text fill="#000000" font-family="sans-serif" font-size="14" lengthAdjust="spacing" textLength="116.6621" x="20" y="412.8457">&#20844;&#35785;&#21644;&#35299;-&#36866;&#29992;&#21028;&#26029;</text><rect fill="#F1F1F1" height="37.6094" rx="12.5" ry="12.5" style="stroke:#181818;stroke-width:1.5;" width="76" x="196.6621" y="262.8125"/><text fill="#000000" font-family="sans-serif" font-size="14" lengthAdjust="spacing" textLength="56" x="206.6621" y="287.3457">&#21028;&#26029;&#36923;&#36753;</text><rect fill="#F1F1F1" height="37.6094" rx="12.5" ry="12.5" style="stroke:#181818;stroke-width:1.5;" width="76" x="322.6621" y="231.4375"/><text fill="#000000" font-family="sans-serif" font-size="14" lengthAdjust="spacing" textLength="56" x="332.6621" y="255.9707">&#20844;&#35785;&#26696;&#20214;</text><rect fill="#F1F1F1" height="37.6094" rx="12.5" ry="12.5" style="stroke:#181818;stroke-width:1.5;" width="76" x="448.6621" y="173.8281"/><text fill="#000000" font-family="sans-serif" font-size="14" lengthAdjust="spacing" textLength="56" x="458.6621" y="198.3613">&#25925;&#24847;&#29359;&#32618;</text><rect fill="#F1F1F1" height="37.6094" rx="12.5" ry="12.5" style="stroke:#181818;stroke-width:1.5;" width="90" x="574.6621" y="173.8281"/><text fill="#000000" font-family="sans-serif" font-size="14" lengthAdjust="spacing" textLength="70" x="584.6621" y="198.3613">&#27665;&#38388;&#19977;&#22235;&#20116;</text><rect fill="#F1F1F1" height="37.6094" rx="12.5" ry="12.5" style="stroke:#181818;stroke-width:1.5;" width="48" x="714.6621" y="87.4141"/><text fill="#000000" font-family="sans-serif" font-size="14" lengthAdjust="spacing" textLength="28" x="724.6621" y="111.9473">&#27665;&#38388;</text><rect fill="#F1F1F1" height="37.6094" rx="12.5" ry="12.5" style="stroke:#181818;stroke-width:1.5;" width="90" x="812.6621" y="58.6094"/><text fill="#000000" font-family="sans-serif" font-size="14" lengthAdjust="spacing" textLength="70" x="822.6621" y="83.1426">&#32769;&#30334;&#22995;&#20043;&#38388;</text><path d="M762.6621,106.2188 L772.6621,106.2188 C787.6621,106.2188 787.6621,77.4141 802.6621,77.4141 L812.6621,77.4141 " fill="none" style="stroke:#181818;stroke-width:1;"/><rect fill="#F1F1F1" height="37.6094" rx="12.5" ry="12.5" style="stroke:#181818;stroke-width:1.5;" width="62" x="812.6621" y="116.2188"/><text fill="#000000" font-family="sans-serif" font-size="14" lengthAdjust="spacing" textLength="42" x="822.6621" y="140.752">&#38750;&#27665;&#38388;</text><rect fill="#F1F1F1" height="37.6094" rx="12.5" ry="12.5" style="stroke:#181818;stroke-width:1.5;" width="216" x="924.6621" y="116.2188"/><text fill="#000000" font-family="sans-serif" font-size="14" lengthAdjust="spacing" textLength="196" x="934.6621" y="140.752">&#38599;&#40657;&#23547;&#34885;&#65292;&#20844;&#20247;&#22810;&#31867;&#65292;&#19981;&#21487;&#21644;&#35299;</text><path d="M874.6621,135.0234 L884.6621,135.0234 C899.6621,135.0234 899.6621,135.0234 914.6621,135.0234 L924.6621,135.0234 " fill="none" style="stroke:#181818;stroke-width:1;"/><path d="M762.6621,106.2188 L772.6621,106.2188 C787.6621,106.2188 787.6621,135.0234 802.6621,135.0234 L812.6621,135.0234 " fill="none" style="stroke:#181818;stroke-width:1;"/><path d="M664.6621,192.6328 L674.6621,192.6328 C689.6621,192.6328 689.6621,106.2188 704.6621,106.2188 L714.6621,106.2188 " fill="none" style="stroke:#181818;stroke-width:1;"/><rect fill="#F1F1F1" height="37.6094" rx="12.5" ry="12.5" style="stroke:#181818;stroke-width:1.5;" width="34" x="714.6621" y="173.8281"/><text fill="#000000" font-family="sans-serif" font-size="14" lengthAdjust="spacing" textLength="14" x="724.6621" y="198.3613">&#19977;</text><rect fill="#F1F1F1" height="37.6094" rx="12.5" ry="12.5" style="stroke:#181818;stroke-width:1.5;" width="104" x="798.6621" y="173.8281"/><text fill="#000000" font-family="sans-serif" font-size="14" lengthAdjust="spacing" textLength="84" x="808.6621" y="198.3613">&#19977;&#24180;&#20197;&#19979;&#21009;&#32602;</text><path d="M748.6621,192.6328 L758.6621,192.6328 C773.6621,192.6328 773.6621,192.6328 788.6621,192.6328 L798.6621,192.6328 " fill="none" style="stroke:#181818;stroke-width:1;"/><path d="M664.6621,192.6328 L674.6621,192.6328 C689.6621,192.6328 689.6621,192.6328 704.6621,192.6328 L714.6621,192.6328 " fill="none" style="stroke:#181818;stroke-width:1;"/><rect fill="#F1F1F1" height="37.6094" rx="12.5" ry="12.5" style="stroke:#181818;stroke-width:1.5;" width="48" x="714.6621" y="260.2422"/><text fill="#000000" font-family="sans-serif" font-size="14" lengthAdjust="spacing" textLength="28" x="724.6621" y="284.7754">&#22235;&#20116;</text><rect fill="#F1F1F1" height="37.6094" rx="12.5" ry="12.5" style="stroke:#181818;stroke-width:1.5;" width="76" x="812.6621" y="260.2422"/><text fill="#000000" font-family="sans-serif" font-size="14" lengthAdjust="spacing" textLength="56" x="822.6621" y="284.7754">&#21009;&#32602;&#20998;&#21017;</text><rect fill="#F1F1F1" height="37.6094" rx="12.5" ry="12.5" style="stroke:#181818;stroke-width:1.5;" width="160" x="938.6621" y="231.4375"/><text fill="#000000" font-family="sans-serif" font-size="14" lengthAdjust="spacing" textLength="140" x="948.6621" y="255.9707">&#31532;&#22235;&#31456;&#65292;&#20405;&#29359;&#20154;&#36523;&#26435;&#21033;</text><path d="M888.6621,279.0469 L898.6621,279.0469 C913.6621,279.0469 913.6621,250.2422 928.6621,250.2422 L938.6621,250.2422 " fill="none" style="stroke:#181818;stroke-width:1;"/><rect fill="#F1F1F1" height="37.6094" rx="12.5" ry="12.5" style="stroke:#181818;stroke-width:1.5;" width="160" x="938.6621" y="289.0469"/><text fill="#000000" font-family="sans-serif" font-size="14" lengthAdjust="spacing" textLength="140" x="948.6621" y="313.5801">&#31532;&#20116;&#31456;&#65292;&#20405;&#29359;&#36130;&#20135;&#26435;&#21033;</text><path d="M888.6621,279.0469 L898.6621,279.0469 C913.6621,279.0469 913.6621,307.8516 928.6621,307.8516 L938.6621,307.8516 " fill="none" style="stroke:#181818;stroke-width:1;"/><path d="M762.6621,279.0469 L772.6621,279.0469 C787.6621,279.0469 787.6621,279.0469 802.6621,279.0469 L812.6621,279.0469 " fill="none" style="stroke:#181818;stroke-width:1;"/><path d="M664.6621,192.6328 L674.6621,192.6328 C689.6621,192.6328 689.6621,279.0469 704.6621,279.0469 L714.6621,279.0469 " fill="none" style="stroke:#181818;stroke-width:1;"/><path d="M524.6621,192.6328 L534.6621,192.6328 C549.6621,192.6328 549.6621,192.6328 564.6621,192.6328 L574.6621,192.6328 " fill="none" style="stroke:#181818;stroke-width:1;"/><path d="M398.6621,250.2422 L408.6621,250.2422 C423.6621,250.2422 423.6621,192.6328 438.6621,192.6328 L448.6621,192.6328 " fill="none" style="stroke:#181818;stroke-width:1;"/><rect fill="#F1F1F1" height="37.6094" rx="12.5" ry="12.5" style="stroke:#181818;stroke-width:1.5;" width="76" x="448.6621" y="375.4609"/><text fill="#000000" font-family="sans-serif" font-size="14" lengthAdjust="spacing" textLength="56" x="458.6621" y="399.9941">&#36807;&#22833;&#29359;&#32618;</text><rect fill="#F1F1F1" height="37.6094" rx="12.5" ry="12.5" style="stroke:#181818;stroke-width:1.5;" width="90" x="574.6621" y="375.4609"/><text fill="#000000" font-family="sans-serif" font-size="14" lengthAdjust="spacing" textLength="70" x="584.6621" y="399.9941">&#38750;&#28174;&#19971;&#20197;&#19979;</text><rect fill="#F1F1F1" height="37.6094" rx="12.5" ry="12.5" style="stroke:#181818;stroke-width:1.5;" width="146" x="714.6621" y="346.6563"/><text fill="#000000" font-family="sans-serif" font-size="14" lengthAdjust="spacing" textLength="126" x="724.6621" y="371.1895">&#38750;&#28174;&#65306;&#19981;&#26159;&#28174;&#32844;&#29359;&#32618;</text><path d="M664.6621,394.2656 L674.6621,394.2656 C689.6621,394.2656 689.6621,365.4609 704.6621,365.4609 L714.6621,365.4609 " fill="none" style="stroke:#181818;stroke-width:1;"/><rect fill="#F1F1F1" height="37.6094" rx="12.5" ry="12.5" style="stroke:#181818;stroke-width:1.5;" width="160" x="714.6621" y="404.2656"/><text fill="#000000" font-family="sans-serif" font-size="14" lengthAdjust="spacing" textLength="140" x="724.6621" y="428.7988">&#19971;&#20197;&#19979;&#65306;&#19971;&#24180;&#20197;&#19979;&#21009;&#32602;</text><path d="M664.6621,394.2656 L674.6621,394.2656 C689.6621,394.2656 689.6621,423.0703 704.6621,423.0703 L714.6621,423.0703 " fill="none" style="stroke:#181818;stroke-width:1;"/><path d="M524.6621,394.2656 L534.6621,394.2656 C549.6621,394.2656 549.6621,394.2656 564.6621,394.2656 L574.6621,394.2656 " fill="none" style="stroke:#181818;stroke-width:1;"/><path d="M398.6621,250.2422 L408.6621,250.2422 C423.6621,250.2422 423.6621,394.2656 438.6621,394.2656 L448.6621,394.2656 " fill="none" style="stroke:#181818;stroke-width:1;"/><path d="M272.6621,281.6172 L282.6621,281.6172 C297.6621,281.6172 297.6621,250.2422 312.6621,250.2422 L322.6621,250.2422 " fill="none" style="stroke:#181818;stroke-width:1;"/><rect fill="#F1F1F1" height="42.75" rx="12.5" ry="12.5" style="stroke:#181818;stroke-width:1.5;" width="100.8896" x="322.6621" y="461.875"/><text fill="#000000" font-family="sans-serif" font-size="14" lengthAdjust="spacing" textLength="56" x="332.6621" y="491.5488">&#33258;&#35785;&#26696;&#20214;</text><path d="M405.1127,482.3762 L412.2498,475.2397 C412.8191,474.6703 412.8191,473.7469 412.2498,473.1776 C411.6798,472.6077 410.757,472.6077 410.1877,473.1776 L403.0506,480.3141 L395.9141,473.1776 C395.3448,472.6077 394.4208,472.6077 393.852,473.1776 C393.2821,473.7469 393.2821,474.6703 393.852,475.2397 L400.9885,482.3762 L393.8357,489.5296 C393.2658,490.0995 393.2658,491.0223 393.8357,491.5917 C394.1203,491.8763 394.4937,492.0187 394.867,492.0187 C395.2403,492.0187 395.6137,491.8763 395.8983,491.5917 L403.0512,484.4383 L410.1877,491.5748 C410.4723,491.8594 410.8457,492.0018 411.219,492.0018 C411.5923,492.0018 411.9651,491.8594 412.2503,491.5748 C412.8197,491.0048 412.8197,490.082 412.2503,489.5127 L405.1127,482.3762 " fill="#FE0000" style="stroke:;stroke-width:0;stroke-dasharray:;"/><path d="M272.6621,281.6172 L282.6621,281.6172 C297.6621,281.6172 297.6621,483.25 312.6621,483.25 L322.6621,483.25 " fill="none" style="stroke:#181818;stroke-width:1;"/><path d="M146.6621,407.1172 L156.6621,407.1172 C171.6621,407.1172 171.6621,281.6172 186.6621,281.6172 L196.6621,281.6172 " fill="none" style="stroke:#181818;stroke-width:1;"/><rect fill="#F1F1F1" height="37.6094" rx="12.5" ry="12.5" style="stroke:#181818;stroke-width:1.5;" width="48" x="196.6621" y="621.3203"/><text fill="#000000" font-family="sans-serif" font-size="14" lengthAdjust="spacing" textLength="28" x="206.6621" y="645.8535">&#21028;&#20363;</text><rect fill="#F1F1F1" height="42.75" rx="12.5" ry="12.5" style="stroke:#181818;stroke-width:1.5;" width="114.8896" x="294.6621" y="524.625"/><text fill="#000000" font-family="sans-serif" font-size="14" lengthAdjust="spacing" textLength="70" x="304.6621" y="554.2988">&#20132;&#36890;&#32903;&#20107;&#32618;</text><path d="M398.6528,535.4271 C397.8414,534.9009 396.7582,535.1319 396.2326,535.9428 L386.4268,551.0575 L381.6446,546.6358 C380.9347,545.9796 379.8281,546.0228 379.1718,546.7327 C378.5156,547.442 378.5588,548.5498 379.2687,549.2054 L385.5477,555.0108 C385.7279,555.1659 385.7279,555.1659 385.8113,555.2202 C386.1053,555.4115 386.4355,555.5025 386.7622,555.5025 C387.335,555.5025 387.8968,555.2213 388.2322,554.7045 L399.1685,537.8473 C399.6947,537.0365 399.4637,535.9527 398.6528,535.4271 " fill="#0000FE" style="stroke:;stroke-width:0;stroke-dasharray:;"/><rect fill="#F1F1F1" height="37.6094" rx="12.5" ry="12.5" style="stroke:#181818;stroke-width:1.5;" width="202" x="459.5518" y="527.1953"/><text fill="#000000" font-family="sans-serif" font-size="14" lengthAdjust="spacing" textLength="182" x="469.5518" y="551.7285">&#36807;&#22833;&#29359;&#32618;&#65292;&#38750;&#28174;&#32844;&#65292;&#19971;&#24180;&#20197;&#19979;</text><path d="M409.5518,546 L419.5518,546 C434.5518,546 434.5518,546 449.5518,546 L459.5518,546 " fill="none" style="stroke:#181818;stroke-width:1;"/><path d="M244.6621,640.125 L254.6621,640.125 C269.6621,640.125 269.6621,546 284.6621,546 L294.6621,546 " fill="none" style="stroke:#181818;stroke-width:1;"/><rect fill="#F1F1F1" height="42.75" rx="12.5" ry="12.5" style="stroke:#181818;stroke-width:1.5;" width="100.8896" x="294.6621" y="587.375"/><text fill="#000000" font-family="sans-serif" font-size="14" lengthAdjust="spacing" textLength="56" x="304.6621" y="617.0488">&#23547;&#34885;&#28363;&#20107;</text><path d="M377.1127,607.8762 L384.2498,600.7397 C384.8191,600.1703 384.8191,599.2469 384.2498,598.6776 C383.6798,598.1077 382.757,598.1077 382.1877,598.6776 L375.0506,605.8141 L367.9141,598.6776 C367.3448,598.1077 366.4208,598.1077 365.852,598.6776 C365.2821,599.2469 365.2821,600.1703 365.852,600.7397 L372.9885,607.8762 L365.8357,615.0296 C365.2658,615.5995 365.2658,616.5223 365.8357,617.0917 C366.1203,617.3763 366.4937,617.5187 366.867,617.5187 C367.2403,617.5187 367.6137,617.3763 367.8983,617.0917 L375.0512,609.9383 L382.1877,617.0748 C382.4723,617.3594 382.8457,617.5018 383.219,617.5018 C383.5923,617.5018 383.9651,617.3594 384.2503,617.0748 C384.8197,616.5048 384.8197,615.582 384.2503,615.0127 L377.1127,607.8762 " fill="#FE0000" style="stroke:;stroke-width:0;stroke-dasharray:;"/><rect fill="#F1F1F1" height="37.6094" rx="12.5" ry="12.5" style="stroke:#181818;stroke-width:1.5;" width="300" x="445.5518" y="589.9453"/><text fill="#000000" font-family="sans-serif" font-size="14" lengthAdjust="spacing" textLength="280" x="455.5518" y="614.4785">&#25925;&#24847;&#29359;&#32618;&#65292;&#23646;&#20110;&#31532;&#20845;&#31456;&#65292;&#22952;&#23475;&#31038;&#20250;&#31649;&#29702;&#31209;&#24207;&#32618;</text><path d="M395.5518,608.75 L405.5518,608.75 C420.5518,608.75 420.5518,608.75 435.5518,608.75 L445.5518,608.75 " fill="none" style="stroke:#181818;stroke-width:1;"/><path d="M244.6621,640.125 L254.6621,640.125 C269.6621,640.125 269.6621,608.75 284.6621,608.75 L294.6621,608.75 " fill="none" style="stroke:#181818;stroke-width:1;"/><rect fill="#F1F1F1" height="42.75" rx="12.5" ry="12.5" style="stroke:#181818;stroke-width:1.5;" width="128.8896" x="294.6621" y="650.125"/><text fill="#000000" font-family="sans-serif" font-size="14" lengthAdjust="spacing" textLength="84" x="304.6621" y="679.7988">&#30772;&#22351;&#35745;&#31639;&#31995;&#32479;</text><path d="M405.1127,670.6262 L412.2498,663.4897 C412.8191,662.9203 412.8191,661.9969 412.2498,661.4276 C411.6798,660.8577 410.757,660.8577 410.1877,661.4276 L403.0506,668.5641 L395.9141,661.4276 C395.3448,660.8577 394.4208,660.8577 393.852,661.4276 C393.2821,661.9969 393.2821,662.9203 393.852,663.4897 L400.9885,670.6262 L393.8357,677.7796 C393.2658,678.3495 393.2658,679.2723 393.8357,679.8417 C394.1203,680.1263 394.4937,680.2687 394.867,680.2687 C395.2403,680.2687 395.6137,680.1263 395.8983,679.8417 L403.0512,672.6883 L410.1877,679.8248 C410.4723,680.1094 410.8457,680.2518 411.219,680.2518 C411.5923,680.2518 411.9651,680.1094 412.2503,679.8248 C412.8197,679.2548 412.8197,678.332 412.2503,677.7627 L405.1127,670.6262 " fill="#FE0000" style="stroke:;stroke-width:0;stroke-dasharray:;"/><rect fill="#F1F1F1" height="37.6094" rx="12.5" ry="12.5" style="stroke:#181818;stroke-width:1.5;" width="300" x="473.5518" y="652.6953"/><text fill="#000000" font-family="sans-serif" font-size="14" lengthAdjust="spacing" textLength="280" x="483.5518" y="677.2285">&#25925;&#24847;&#29359;&#32618;&#65292;&#23646;&#20110;&#31532;&#20845;&#31456;&#65292;&#22952;&#23475;&#31038;&#20250;&#31649;&#29702;&#31209;&#24207;&#32618;</text><path d="M423.5518,671.5 L433.5518,671.5 C448.5518,671.5 448.5518,671.5 463.5518,671.5 L473.5518,671.5 " fill="none" style="stroke:#181818;stroke-width:1;"/><path d="M244.6621,640.125 L254.6621,640.125 C269.6621,640.125 269.6621,671.5 284.6621,671.5 L294.6621,671.5 " fill="none" style="stroke:#181818;stroke-width:1;"/><rect fill="#F1F1F1" height="42.75" rx="12.5" ry="12.5" style="stroke:#181818;stroke-width:1.5;" width="156.8896" x="294.6621" y="712.875"/><text fill="#000000" font-family="sans-serif" font-size="14" lengthAdjust="spacing" textLength="112" x="304.6621" y="742.5488">&#26292;&#21147;&#24178;&#28041;&#23130;&#23035;&#33258;&#30001;</text><path d="M433.1127,733.3762 L440.2498,726.2397 C440.8191,725.6703 440.8191,724.7469 440.2498,724.1776 C439.6798,723.6077 438.757,723.6077 438.1877,724.1776 L431.0506,731.3141 L423.9141,724.1776 C423.3448,723.6077 422.4208,723.6077 421.852,724.1776 C421.2821,724.7469 421.2821,725.6703 421.852,726.2397 L428.9885,733.3762 L421.8357,740.5296 C421.2658,741.0995 421.2658,742.0223 421.8357,742.5917 C422.1203,742.8763 422.4937,743.0187 422.867,743.0187 C423.2403,743.0187 423.6137,742.8763 423.8983,742.5917 L431.0512,735.4383 L438.1877,742.5748 C438.4723,742.8594 438.8457,743.0018 439.219,743.0018 C439.5923,743.0018 439.9651,742.8594 440.2503,742.5748 C440.8197,742.0048 440.8197,741.082 440.2503,740.5127 L433.1127,733.3762 " fill="#FE0000" style="stroke:;stroke-width:0;stroke-dasharray:;"/><rect fill="#F1F1F1" height="37.6094" rx="12.5" ry="12.5" style="stroke:#181818;stroke-width:1.5;" width="202" x="501.5518" y="715.4453"/><text fill="#000000" font-family="sans-serif" font-size="14" lengthAdjust="spacing" textLength="182" x="511.5518" y="739.9785">&#23646;&#20110;&#33258;&#35785;&#26696;&#20214;&#65292;&#21487;&#20197;&#33258;&#35785;&#21644;&#35299;</text><path d="M451.5518,734.25 L461.5518,734.25 C476.5518,734.25 476.5518,734.25 491.5518,734.25 L501.5518,734.25 " fill="none" style="stroke:#181818;stroke-width:1;"/><path d="M244.6621,640.125 L254.6621,640.125 C269.6621,640.125 269.6621,734.25 284.6621,734.25 L294.6621,734.25 " fill="none" style="stroke:#181818;stroke-width:1;"/><path d="M146.6621,407.1172 L156.6621,407.1172 C171.6621,407.1172 171.6621,640.125 186.6621,640.125 L196.6621,640.125 " fill="none" style="stroke:#181818;stroke-width:1;"/><!--SRC=[xLXVJzjM57_tfxXJNs1ImfyXL4MeegIWhG9KBRIlrOrpcxZOlf5zdIwT9j4oIYWCniR66aHNDZPAIybOMHKIIh-C7ITF_Gexrqw8Gt6SFknb0Y4Kt_Cxl_F_t9XXdM6DAPAQK71Q43wHL54s4WI5mptmgxEiJ7hICbQPeSWX3Wi1BkISXoKu4mGcCPaWQswlMbYmVbYgxlmUgiqyjDUUMxdjoi-l1E7JDa84Fo1t7cepvUh9gdDKFtRKAbivi_pczDWLLNwQgtoxOZyks6zVj8ZguhzMQ-k7Pd71sjWmIsiV8BoeSuKke3hpm7voOktyQ1ujjaVMDfy6iDLn6_ErygfLA5UtvjuVBq64vl6wjPst3yhmQ1Q_irOARfvyV8QOshZ18puwDCj_cCL5AxTglytxqBJ9IwCaNDlAFR9oJm9YilVsWCv- -On7SF8F5CKibQgbbvNDMIkt6wmCZdYLguU_cQMTSvIX7k_chUq3twhp8XINpUAicm31lrJ5vVV7USXsvPS2VAu-MFBXR6IrpkWepVfb6FoRVt7Qi6ZeaaOIaQyYLvfDRfuiUj1cQRisawy-d3TBYs0S5EAoGI8fWZFPssAAYDEt5QnDrmdEpm9apOq7Od0QgEcTTv2SVgkK5y7I6R_E7odUcWTFpT8oh-tSAxSyrf_FhVtNzlQ9UPotzxVixn_PExjMQSMRE2ZeiqDhSwKAylrr-tNPBl_wNrkiv0-jnnlMqT-LDmlMRjxQAKCTxBK3Nxkk8M-nkAsL0kJDFQnFe31CO2qsLkDmwwOSSdRW5Q5-S4t2IGqhw6km5UPrT3uXD8B5wQH63JKHfJBLa2mbKupBGVeDnoQWnE2c3xmkRO2J6Y5gEsO7u45d0y3P1fPgM4twEUqA6z2qeQLbFwWhR43z0_C4fL7TZ-tIsDZ8I3JQG6Q9BDDxFbXNw425i88bTIf5b0Rn65LPJBfFq6Uz0fSJ9Pt2kgG7vzABxlM1wzDPfwHUR7_xN7gX8t0afg0nEt96IgfK8ntK5Q5nIILdpviK7PfjIyN9L9MAH6L-kL6TehWbS8_YCc3EiCBmkBw9cdHQjQQOKGKpwZglCh0cKHNBqO_5tj186ckOdtoCsjKurLXGstNAnHZKdGLDMeTiKQh0k36_TgXh-j7nygaa2HK5Kcyosssje4ec24bx1wBLm2XiqRWiwId_bUVHRxLsBoMnixdnCJD9MR0b9oenYzKEeX9nWh1JOrWKfOH_pxUiuY3cEp2AkcU-uLaa4_WkCGAcdChWWaOJdWuCcB66XcCdJNM9IHboLVICmmVh7Ckaqq2Q8K0jS22r8i4DodT_9prLlmOvkMx4xnAHq_jb1sVWtYPQXxmPYS84ETGqY9ddlUDqDpTzw-2sdzMMNWwyGmJuCzHJ_ofoyIfsyIfsyIfsyIhsltyLky7_8NLpOXnbYARp6wOltD_RFn2-t1N334tI3EeRHBrzaO61oC0WYiQc41Tt2rqJNqmXdHfmmQ84N3-Q53VuJkuMhkCCHbyQiA4L4a7ygMjgeXl5HXk7Q5JDI1fL5TZAmlLR4ou8VKvPB4sP0nuS28r83CM81cwXMnF2DN876p83LP4c93KPGJUdnaANXN7OtWPEWg7xAI4AQvrfsGYAJluB]--></g></svg>