<svg xmlns="http://www.w3.org/2000/svg" xmlns:xlink="http://www.w3.org/1999/xlink" contentStyleType="text/css" height="1465px" preserveAspectRatio="none" style="width:1092px;height:1465px;background:#FFFFFF;" version="1.1" viewBox="0 0 1092 1465" width="1092px" zoomAndPan="magnify"><title>&#20943;&#21009;&#21644;&#20551;&#37322;</title><defs/><g><text fill="#000000" font-family="sans-serif" font-size="14" font-weight="bold" lengthAdjust="spacing" textLength="72.1875" x="508.4063" y="34.5332">&#20943;&#21009;&#21644;&#20551;&#37322;</text><rect fill="#F1F1F1" height="37.6094" rx="12.5" ry="12.5" style="stroke:#181818;stroke-width:1.5;" width="90" x="10" y="732.418"/><text fill="#000000" font-family="sans-serif" font-size="14" lengthAdjust="spacing" textLength="70" x="20" y="756.9512">&#20943;&#21009;&#21644;&#20551;&#37322;</text><rect fill="#F1F1F1" height="37.6094" rx="12.5" ry="12.5" style="stroke:#181818;stroke-width:1.5;" width="48" x="150" y="87.4141"/><text fill="#000000" font-family="sans-serif" font-size="14" lengthAdjust="spacing" textLength="28" x="160" y="111.9473">&#21306;&#20998;</text><rect fill="#F1F1F1" height="37.6094" rx="12.5" ry="12.5" style="stroke:#181818;stroke-width:1.5;" width="48" x="248" y="58.6094"/><text fill="#000000" font-family="sans-serif" font-size="14" lengthAdjust="spacing" textLength="28" x="258" y="83.1426">&#20943;&#21009;</text><rect fill="#F1F1F1" height="37.6094" rx="12.5" ry="12.5" style="stroke:#181818;stroke-width:1.5;" width="118" x="346" y="58.6094"/><text fill="#000000" font-family="sans-serif" font-size="14" lengthAdjust="spacing" textLength="98" x="356" y="83.1426">&#26102;&#38388;&#32500;&#24230;&#30340;&#22870;&#21169;</text><path d="M296,77.4141 L306,77.4141 C321,77.4141 321,77.4141 336,77.4141 L346,77.4141 " fill="none" style="stroke:#181818;stroke-width:1;"/><path d="M198,106.2188 L208,106.2188 C223,106.2188 223,77.4141 238,77.4141 L248,77.4141 " fill="none" style="stroke:#181818;stroke-width:1;"/><rect fill="#F1F1F1" height="37.6094" rx="12.5" ry="12.5" style="stroke:#181818;stroke-width:1.5;" width="48" x="248" y="116.2188"/><text fill="#000000" font-family="sans-serif" font-size="14" lengthAdjust="spacing" textLength="28" x="258" y="140.752">&#20551;&#37322;</text><rect fill="#F1F1F1" height="37.6094" rx="12.5" ry="12.5" style="stroke:#181818;stroke-width:1.5;" width="118" x="346" y="116.2188"/><text fill="#000000" font-family="sans-serif" font-size="14" lengthAdjust="spacing" textLength="98" x="356" y="140.752">&#31354;&#38388;&#32500;&#24230;&#30340;&#22870;&#21169;</text><rect fill="#F1F1F1" height="37.6094" rx="12.5" ry="12.5" style="stroke:#181818;stroke-width:1.5;" width="132" x="514" y="116.2188"/><text fill="#000000" font-family="sans-serif" font-size="14" lengthAdjust="spacing" textLength="112" x="524" y="140.752">&#36827;&#20837;&#31038;&#20250;&#65292;&#26356;&#24910;&#37325;</text><path d="M464,135.0234 L474,135.0234 C489,135.0234 489,135.0234 504,135.0234 L514,135.0234 " fill="none" style="stroke:#181818;stroke-width:1;"/><path d="M296,135.0234 L306,135.0234 C321,135.0234 321,135.0234 336,135.0234 L346,135.0234 " fill="none" style="stroke:#181818;stroke-width:1;"/><path d="M198,106.2188 L208,106.2188 C223,106.2188 223,135.0234 238,135.0234 L248,135.0234 " fill="none" style="stroke:#181818;stroke-width:1;"/><path d="M100,751.2227 L110,751.2227 C125,751.2227 125,106.2188 140,106.2188 L150,106.2188 " fill="none" style="stroke:#181818;stroke-width:1;"/><rect fill="#F1F1F1" height="37.6094" rx="12.5" ry="12.5" style="stroke:#181818;stroke-width:1.5;" width="76" x="150" y="332.2539"/><text fill="#000000" font-family="sans-serif" font-size="14" lengthAdjust="spacing" textLength="56" x="160" y="356.7871">&#32771;&#34385;&#22240;&#32032;</text><rect fill="#F1F1F1" height="37.6094" rx="12.5" ry="12.5" style="stroke:#181818;stroke-width:1.5;" width="48" x="276" y="274.6445"/><text fill="#000000" font-family="sans-serif" font-size="14" lengthAdjust="spacing" textLength="28" x="286" y="299.1777">&#20027;&#35266;</text><rect fill="#F1F1F1" height="37.6094" rx="12.5" ry="12.5" style="stroke:#181818;stroke-width:1.5;" width="76" x="374" y="274.6445"/><text fill="#000000" font-family="sans-serif" font-size="14" lengthAdjust="spacing" textLength="56" x="384" y="299.1777">&#24724;&#25913;&#34920;&#29616;</text><rect fill="#F1F1F1" height="37.6094" rx="12.5" ry="12.5" style="stroke:#181818;stroke-width:1.5;" width="76" x="500" y="274.6445"/><text fill="#000000" font-family="sans-serif" font-size="14" lengthAdjust="spacing" textLength="56" x="510" y="299.1777">&#36864;&#36180;&#24577;&#24230;</text><rect fill="#F1F1F1" height="37.6094" rx="12.5" ry="12.5" style="stroke:#181818;stroke-width:1.5;" width="62" x="626" y="245.8398"/><text fill="#000000" font-family="sans-serif" font-size="14" lengthAdjust="spacing" textLength="42" x="636" y="270.373">&#26377;&#33021;&#21147;</text><rect fill="#F1F1F1" height="37.6094" rx="12.5" ry="12.5" style="stroke:#181818;stroke-width:1.5;" width="118" x="738" y="202.6328"/><text fill="#000000" font-family="sans-serif" font-size="14" lengthAdjust="spacing" textLength="98" x="748" y="227.166">&#31215;&#26497;&#23653;&#34892;&#65292;&#20174;&#23485;</text><rect fill="#F1F1F1" height="37.6094" rx="12.5" ry="12.5" style="stroke:#181818;stroke-width:1.5;" width="76" x="906" y="173.8281"/><text fill="#000000" font-family="sans-serif" font-size="14" lengthAdjust="spacing" textLength="56" x="916" y="198.3613">&#35748;&#23450;&#24724;&#25913;</text><path d="M856,221.4375 L866,221.4375 C881,221.4375 881,192.6328 896,192.6328 L906,192.6328 " fill="none" style="stroke:#181818;stroke-width:1;"/><rect fill="#F1F1F1" height="37.6094" rx="12.5" ry="12.5" style="stroke:#181818;stroke-width:1.5;" width="174" x="906" y="231.4375"/><text fill="#000000" font-family="sans-serif" font-size="14" lengthAdjust="spacing" textLength="154" x="916" y="255.9707">&#23653;&#34892;&#21518;&#65292;&#26041;&#21487;&#20943;&#21009;&#12289;&#20551;&#37322;</text><path d="M856,221.4375 L866,221.4375 C881,221.4375 881,250.2422 896,250.2422 L906,250.2422 " fill="none" style="stroke:#181818;stroke-width:1;"/><path d="M688,264.6445 L698,264.6445 C713,264.6445 713,221.4375 728,221.4375 L738,221.4375 " fill="none" style="stroke:#181818;stroke-width:1;"/><rect fill="#F1F1F1" height="37.6094" rx="12.5" ry="12.5" style="stroke:#181818;stroke-width:1.5;" width="118" x="738" y="260.2422"/><text fill="#000000" font-family="sans-serif" font-size="14" lengthAdjust="spacing" textLength="98" x="748" y="284.7754">&#37096;&#20998;&#23653;&#34892;&#65292;&#20174;&#20005;</text><path d="M688,264.6445 L698,264.6445 C713,264.6445 713,279.0469 728,279.0469 L738,279.0469 " fill="none" style="stroke:#181818;stroke-width:1;"/><rect fill="#F1F1F1" height="37.6094" rx="12.5" ry="12.5" style="stroke:#181818;stroke-width:1.5;" width="104" x="738" y="317.8516"/><text fill="#000000" font-family="sans-serif" font-size="14" lengthAdjust="spacing" textLength="84" x="748" y="342.3848">&#19981;&#23653;&#34892;&#65292;&#20174;&#20005;</text><rect fill="#F1F1F1" height="37.6094" rx="12.5" ry="12.5" style="stroke:#181818;stroke-width:1.5;" width="90" x="892" y="317.8516"/><text fill="#000000" font-family="sans-serif" font-size="14" lengthAdjust="spacing" textLength="70" x="902" y="342.3848">&#19981;&#35748;&#23450;&#24724;&#25913;</text><path d="M842,336.6563 L852,336.6563 C867,336.6563 867,336.6563 882,336.6563 L892,336.6563 " fill="none" style="stroke:#181818;stroke-width:1;"/><path d="M688,264.6445 L698,264.6445 C713,264.6445 713,336.6563 728,336.6563 L738,336.6563 " fill="none" style="stroke:#181818;stroke-width:1;"/><path d="M576,293.4492 L586,293.4492 C601,293.4492 601,264.6445 616,264.6445 L626,264.6445 " fill="none" style="stroke:#181818;stroke-width:1;"/><rect fill="#F1F1F1" height="37.6094" rx="12.5" ry="12.5" style="stroke:#181818;stroke-width:1.5;" width="62" x="626" y="375.4609"/><text fill="#000000" font-family="sans-serif" font-size="14" lengthAdjust="spacing" textLength="42" x="636" y="399.9941">&#26080;&#33021;&#21147;</text><rect fill="#F1F1F1" height="37.6094" rx="12.5" ry="12.5" style="stroke:#181818;stroke-width:1.5;" width="118" x="738" y="375.4609"/><text fill="#000000" font-family="sans-serif" font-size="14" lengthAdjust="spacing" textLength="98" x="748" y="399.9941">&#19981;&#24433;&#21709;&#35748;&#23450;&#24724;&#32618;</text><path d="M688,394.2656 L698,394.2656 C713,394.2656 713,394.2656 728,394.2656 L738,394.2656 " fill="none" style="stroke:#181818;stroke-width:1;"/><path d="M576,293.4492 L586,293.4492 C601,293.4492 601,394.2656 616,394.2656 L626,394.2656 " fill="none" style="stroke:#181818;stroke-width:1;"/><path d="M450,293.4492 L460,293.4492 C475,293.4492 475,293.4492 490,293.4492 L500,293.4492 " fill="none" style="stroke:#181818;stroke-width:1;"/><path d="M324,293.4492 L334,293.4492 C349,293.4492 349,293.4492 364,293.4492 L374,293.4492 " fill="none" style="stroke:#181818;stroke-width:1;"/><path d="M226,351.0586 L236,351.0586 C251,351.0586 251,293.4492 266,293.4492 L276,293.4492 " fill="none" style="stroke:#181818;stroke-width:1;"/><rect fill="#F1F1F1" height="37.6094" rx="12.5" ry="12.5" style="stroke:#181818;stroke-width:1.5;" width="48" x="276" y="461.875"/><text fill="#000000" font-family="sans-serif" font-size="14" lengthAdjust="spacing" textLength="28" x="286" y="486.4082">&#23458;&#35266;</text><rect fill="#F1F1F1" height="37.6094" rx="12.5" ry="12.5" style="stroke:#181818;stroke-width:1.5;" width="90" x="374" y="433.0703"/><text fill="#000000" font-family="sans-serif" font-size="14" lengthAdjust="spacing" textLength="70" x="384" y="457.6035">&#36130;&#20135;&#24615;&#21028;&#39033;</text><path d="M324,480.6797 L334,480.6797 C349,480.6797 349,451.875 364,451.875 L374,451.875 " fill="none" style="stroke:#181818;stroke-width:1;"/><rect fill="#F1F1F1" height="37.6094" rx="12.5" ry="12.5" style="stroke:#181818;stroke-width:1.5;" width="76" x="374" y="490.6797"/><text fill="#000000" font-family="sans-serif" font-size="14" lengthAdjust="spacing" textLength="56" x="384" y="515.2129">&#37325;&#22823;&#31435;&#21151;</text><rect fill="#F1F1F1" height="37.6094" rx="12.5" ry="12.5" style="stroke:#181818;stroke-width:1.5;" width="146" x="500" y="490.6797"/><text fill="#000000" font-family="sans-serif" font-size="14" lengthAdjust="spacing" textLength="126" x="510" y="515.2129">&#19981;&#21463;&#36130;&#20135;&#24615;&#21028;&#39033;&#24433;&#21709;</text><path d="M450,509.4844 L460,509.4844 C475,509.4844 475,509.4844 490,509.4844 L500,509.4844 " fill="none" style="stroke:#181818;stroke-width:1;"/><path d="M324,480.6797 L334,480.6797 C349,480.6797 349,509.4844 364,509.4844 L374,509.4844 " fill="none" style="stroke:#181818;stroke-width:1;"/><path d="M226,351.0586 L236,351.0586 C251,351.0586 251,480.6797 266,480.6797 L276,480.6797 " fill="none" style="stroke:#181818;stroke-width:1;"/><path d="M100,751.2227 L110,751.2227 C125,751.2227 125,351.0586 140,351.0586 L150,351.0586 " fill="none" style="stroke:#181818;stroke-width:1;"/><rect fill="#F1F1F1" height="37.6094" rx="12.5" ry="12.5" style="stroke:#181818;stroke-width:1.5;" width="62" x="150" y="676.3594"/><text fill="#000000" font-family="sans-serif" font-size="14" lengthAdjust="spacing" textLength="42" x="160" y="700.8926">&#35841;&#20915;&#23450;</text><rect fill="#F1F1F1" height="37.6094" rx="12.5" ry="12.5" style="stroke:#181818;stroke-width:1.5;" width="48" x="262" y="676.3594"/><text fill="#000000" font-family="sans-serif" font-size="14" lengthAdjust="spacing" textLength="28" x="272" y="700.8926">&#27861;&#38498;</text><rect fill="#F1F1F1" height="37.6094" rx="12.5" ry="12.5" style="stroke:#181818;stroke-width:1.5;" width="48" x="360" y="613.6094"/><text fill="#000000" font-family="sans-serif" font-size="14" lengthAdjust="spacing" textLength="28" x="370" y="638.1426">&#31649;&#36758;</text><rect fill="#F1F1F1" height="42.75" rx="12.5" ry="12.5" style="stroke:#181818;stroke-width:1.5;" width="72.8896" x="458" y="548.2891"/><text fill="#000000" font-family="sans-serif" font-size="14" lengthAdjust="spacing" textLength="28" x="468" y="577.9629">&#39640;&#38498;</text><path d="M519.9907,559.0911 C519.1793,558.565 518.0961,558.796 517.5705,559.6068 L507.7646,574.7216 L502.9825,570.2999 C502.2726,569.6436 501.166,569.6868 500.5097,570.3967 C499.8535,571.1061 499.8966,572.2138 500.6066,572.8695 L506.8856,578.6748 C507.0658,578.83 507.0658,578.83 507.1492,578.8842 C507.4432,579.0756 507.7734,579.1666 508.1001,579.1666 C508.6729,579.1666 509.2346,578.8854 509.5701,578.3686 L520.5064,561.5114 C521.0326,560.7006 520.8016,559.6167 519.9907,559.0911 " fill="#5FED5F" style="stroke:;stroke-width:0;stroke-dasharray:;"/><rect fill="#F1F1F1" height="37.6094" rx="12.5" ry="12.5" style="stroke:#181818;stroke-width:1.5;" width="90" x="580.8896" y="550.8594"/><text fill="#000000" font-family="sans-serif" font-size="14" lengthAdjust="spacing" textLength="70" x="590.8896" y="575.3926">&#27515;&#32531;&#12289;&#26080;&#26399;</text><path d="M530.8896,569.6641 L540.8896,569.6641 C555.8896,569.6641 555.8896,569.6641 570.8896,569.6641 L580.8896,569.6641 " fill="none" style="stroke:#181818;stroke-width:1;"/><path d="M408,632.4141 L418,632.4141 C433,632.4141 433,569.6641 448,569.6641 L458,569.6641 " fill="none" style="stroke:#181818;stroke-width:1;"/><rect fill="#F1F1F1" height="42.75" rx="12.5" ry="12.5" style="stroke:#181818;stroke-width:1.5;" width="72.8896" x="458" y="611.0391"/><text fill="#000000" font-family="sans-serif" font-size="14" lengthAdjust="spacing" textLength="28" x="468" y="640.7129">&#20013;&#38498;</text><path d="M519.9907,621.8411 C519.1793,621.315 518.0961,621.546 517.5705,622.3568 L507.7646,637.4716 L502.9825,633.0499 C502.2726,632.3936 501.166,632.4368 500.5097,633.1467 C499.8535,633.8561 499.8966,634.9638 500.6066,635.6195 L506.8856,641.4248 C507.0658,641.58 507.0658,641.58 507.1492,641.6342 C507.4432,641.8256 507.7734,641.9166 508.1001,641.9166 C508.6729,641.9166 509.2346,641.6354 509.5701,641.1186 L520.5064,624.2614 C521.0326,623.4506 520.8016,622.3667 519.9907,621.8411 " fill="#5FED5F" style="stroke:;stroke-width:0;stroke-dasharray:;"/><rect fill="#F1F1F1" height="37.6094" rx="12.5" ry="12.5" style="stroke:#181818;stroke-width:1.5;" width="90" x="580.8896" y="613.6094"/><text fill="#000000" font-family="sans-serif" font-size="14" lengthAdjust="spacing" textLength="70" x="590.8896" y="638.1426">&#26377;&#26399;&#21450;&#20197;&#19979;</text><path d="M530.8896,632.4141 L540.8896,632.4141 C555.8896,632.4141 555.8896,632.4141 570.8896,632.4141 L580.8896,632.4141 " fill="none" style="stroke:#181818;stroke-width:1;"/><path d="M408,632.4141 L418,632.4141 C433,632.4141 433,632.4141 448,632.4141 L458,632.4141 " fill="none" style="stroke:#181818;stroke-width:1;"/><rect fill="#F1F1F1" height="42.75" rx="12.5" ry="12.5" style="stroke:#181818;stroke-width:1.5;" width="111.7793" x="458" y="673.7891"/><text fill="#000000" font-family="sans-serif" font-size="14" lengthAdjust="spacing" textLength="42" x="468" y="703.4629">&#22522;&#23618;&#38498;</text><path d="M526.4506,694.2902 L533.5876,687.1537 C534.157,686.5844 534.157,685.661 533.5876,685.0916 C533.0177,684.5217 532.0949,684.5217 531.5256,685.0916 L524.3885,692.2281 L517.252,685.0916 C516.6826,684.5217 515.7586,684.5217 515.1899,685.0916 C514.62,685.661 514.62,686.5844 515.1899,687.1537 L522.3264,694.2902 L515.1736,701.4436 C514.6036,702.0136 514.6036,702.9364 515.1736,703.5057 C515.4582,703.7904 515.8316,703.9327 516.2049,703.9327 C516.5782,703.9327 516.9516,703.7904 517.2362,703.5057 L524.3891,696.3523 L531.5256,703.4888 C531.8102,703.7735 532.1836,703.9158 532.5569,703.9158 C532.9302,703.9158 533.303,703.7735 533.5882,703.4888 C534.1576,702.9189 534.1576,701.9961 533.5882,701.4267 L526.4506,694.2902 " fill="#DD2E44" style="stroke:;stroke-width:0;stroke-dasharray:;"/><text fill="#000000" font-family="sans-serif" font-size="14" lengthAdjust="spacing" textLength="3.8896" x="534.8896" y="703.4629">&#160;</text><path d="M546.3626,703.6224 C546.3626,704.7891 546.3626,704.7891 545.196,704.7891 C544.0293,704.7891 544.0293,703.6224 544.0293,703.6224 L544.0293,684.9557 C544.0293,683.7891 544.0293,683.7891 545.196,683.7891 C546.3626,683.7891 546.3626,684.9557 546.3626,684.9557 L546.3626,703.6224 " fill="#66757F" style="stroke:;stroke-width:0;stroke-dasharray:;"/><path d="M545.196,686.1224 C545.196,684.8391 546.1503,684.2266 547.317,684.7615 L557.0744,689.2339 C558.241,689.7688 558.241,690.6438 557.0744,691.1781 L547.317,695.6506 C546.1503,696.1849 545.196,695.5724 545.196,694.2891 L545.196,686.1224 " fill="#DD2E44" style="stroke:;stroke-width:0;stroke-dasharray:;"/><path d="M408,632.4141 L418,632.4141 C433,632.4141 433,695.1641 448,695.1641 L458,695.1641 " fill="none" style="stroke:#181818;stroke-width:1;"/><path d="M310,695.1641 L320,695.1641 C335,695.1641 335,632.4141 350,632.4141 L360,632.4141 " fill="none" style="stroke:#181818;stroke-width:1;"/><rect fill="#F1F1F1" height="37.6094" rx="12.5" ry="12.5" style="stroke:#181818;stroke-width:1.5;" width="48" x="360" y="770.4844"/><text fill="#000000" font-family="sans-serif" font-size="14" lengthAdjust="spacing" textLength="28" x="370" y="795.0176">&#29992;&#35789;</text><rect fill="#F1F1F1" height="42.75" rx="12.5" ry="12.5" style="stroke:#181818;stroke-width:1.5;" width="72.8896" x="458" y="736.5391"/><text fill="#000000" font-family="sans-serif" font-size="14" lengthAdjust="spacing" textLength="28" x="468" y="766.2129">&#35009;&#23450;</text><path d="M519.9907,747.3411 C519.1793,746.815 518.0961,747.046 517.5705,747.8568 L507.7646,762.9716 L502.9825,758.5499 C502.2726,757.8936 501.166,757.9368 500.5097,758.6467 C499.8535,759.3561 499.8966,760.4638 500.6066,761.1195 L506.8856,766.9248 C507.0658,767.08 507.0658,767.08 507.1492,767.1342 C507.4432,767.3256 507.7734,767.4166 508.1001,767.4166 C508.6729,767.4166 509.2346,767.1354 509.5701,766.6186 L520.5064,749.7614 C521.0326,748.9506 520.8016,747.8667 519.9907,747.3411 " fill="#5FED5F" style="stroke:;stroke-width:0;stroke-dasharray:;"/><path d="M408,789.2891 L418,789.2891 C433,789.2891 433,757.9141 448,757.9141 L458,757.9141 " fill="none" style="stroke:#181818;stroke-width:1;"/><rect fill="#F1F1F1" height="42.75" rx="12.5" ry="12.5" style="stroke:#181818;stroke-width:1.5;" width="114.8896" x="458" y="799.2891"/><text fill="#000000" font-family="sans-serif" font-size="14" lengthAdjust="spacing" textLength="70" x="468" y="828.9629">&#21028;&#20915;&#12289;&#20915;&#23450;</text><path d="M554.4506,819.7902 L561.5876,812.6537 C562.157,812.0844 562.157,811.161 561.5876,810.5916 C561.0177,810.0217 560.0949,810.0217 559.5256,810.5916 L552.3885,817.7281 L545.252,810.5916 C544.6826,810.0217 543.7586,810.0217 543.1899,810.5916 C542.62,811.161 542.62,812.0844 543.1899,812.6537 L550.3264,819.7902 L543.1736,826.9436 C542.6036,827.5136 542.6036,828.4364 543.1736,829.0057 C543.4582,829.2904 543.8316,829.4327 544.2049,829.4327 C544.5782,829.4327 544.9516,829.2904 545.2362,829.0057 L552.3891,821.8523 L559.5256,828.9888 C559.8102,829.2735 560.1836,829.4158 560.5569,829.4158 C560.9302,829.4158 561.303,829.2735 561.5882,828.9888 C562.1576,828.4189 562.1576,827.4961 561.5882,826.9267 L554.4506,819.7902 " fill="#DD2E44" style="stroke:;stroke-width:0;stroke-dasharray:;"/><path d="M408,789.2891 L418,789.2891 C433,789.2891 433,820.6641 448,820.6641 L458,820.6641 " fill="none" style="stroke:#181818;stroke-width:1;"/><path d="M310,695.1641 L320,695.1641 C335,695.1641 335,789.2891 350,789.2891 L360,789.2891 " fill="none" style="stroke:#181818;stroke-width:1;"/><path d="M212,695.1641 L222,695.1641 C237,695.1641 237,695.1641 252,695.1641 L262,695.1641 " fill="none" style="stroke:#181818;stroke-width:1;"/><path d="M100,751.2227 L110,751.2227 C125,751.2227 125,695.1641 140,695.1641 L150,695.1641 " fill="none" style="stroke:#181818;stroke-width:1;"/><rect fill="#F1F1F1" height="37.6094" rx="12.5" ry="12.5" style="stroke:#181818;stroke-width:1.5;" width="48" x="150" y="1045.1484"/><text fill="#000000" font-family="sans-serif" font-size="14" lengthAdjust="spacing" textLength="28" x="160" y="1069.6816">&#23457;&#29702;</text><rect fill="#F1F1F1" height="37.6094" rx="12.5" ry="12.5" style="stroke:#181818;stroke-width:1.5;" width="118" x="248" y="890.8438"/><text fill="#000000" font-family="sans-serif" font-size="14" lengthAdjust="spacing" textLength="98" x="258" y="915.377">&#20070;&#38754;&#23457;&#65288;&#21407;&#21017;&#65289;</text><rect fill="#F1F1F1" height="42.75" rx="12.5" ry="12.5" style="stroke:#181818;stroke-width:1.5;" width="100.8896" x="416" y="888.2734"/><text fill="#000000" font-family="sans-serif" font-size="14" lengthAdjust="spacing" textLength="56" x="426" y="917.9473">&#25552;&#35759;&#32618;&#29359;</text><path d="M493.473,918.1068 C493.473,919.2734 493.473,919.2734 492.3063,919.2734 C491.1396,919.2734 491.1396,918.1068 491.1396,918.1068 L491.1396,899.4401 C491.1396,898.2734 491.1396,898.2734 492.3063,898.2734 C493.473,898.2734 493.473,899.4401 493.473,899.4401 L493.473,918.1068 " fill="#66757F" style="stroke:;stroke-width:0;stroke-dasharray:;"/><path d="M492.3063,900.6068 C492.3063,899.3234 493.2606,898.7109 494.4273,899.2459 L504.1847,903.7183 C505.3514,904.2532 505.3514,905.1282 504.1847,905.6625 L494.4273,910.1349 C493.2606,910.6693 492.3063,910.0568 492.3063,908.7734 L492.3063,900.6068 " fill="#DD2E44" style="stroke:;stroke-width:0;stroke-dasharray:;"/><rect fill="#F1F1F1" height="37.6094" rx="12.5" ry="12.5" style="stroke:#181818;stroke-width:1.5;" width="48" x="566.8896" y="862.0391"/><text fill="#000000" font-family="sans-serif" font-size="14" lengthAdjust="spacing" textLength="28" x="576.8896" y="886.5723">&#20943;&#21009;</text><rect fill="#F1F1F1" height="37.6094" rx="12.5" ry="12.5" style="stroke:#181818;stroke-width:1.5;" width="48" x="664.8896" y="862.0391"/><text fill="#000000" font-family="sans-serif" font-size="14" lengthAdjust="spacing" textLength="28" x="674.8896" y="886.5723">&#21487;&#20197;</text><path d="M614.8896,880.8438 L624.8896,880.8438 C639.8896,880.8438 639.8896,880.8438 654.8896,880.8438 L664.8896,880.8438 " fill="none" style="stroke:#181818;stroke-width:1;"/><path d="M516.8896,909.6484 L526.8896,909.6484 C541.8896,909.6484 541.8896,880.8438 556.8896,880.8438 L566.8896,880.8438 " fill="none" style="stroke:#181818;stroke-width:1;"/><rect fill="#F1F1F1" height="37.6094" rx="12.5" ry="12.5" style="stroke:#181818;stroke-width:1.5;" width="48" x="566.8896" y="919.6484"/><text fill="#000000" font-family="sans-serif" font-size="14" lengthAdjust="spacing" textLength="28" x="576.8896" y="944.1816">&#20551;&#37322;</text><rect fill="#F1F1F1" height="37.6094" rx="12.5" ry="12.5" style="stroke:#181818;stroke-width:1.5;" width="48" x="664.8896" y="919.6484"/><text fill="#000000" font-family="sans-serif" font-size="14" lengthAdjust="spacing" textLength="28" x="674.8896" y="944.1816">&#24212;&#24403;</text><path d="M614.8896,938.4531 L624.8896,938.4531 C639.8896,938.4531 639.8896,938.4531 654.8896,938.4531 L664.8896,938.4531 " fill="none" style="stroke:#181818;stroke-width:1;"/><path d="M516.8896,909.6484 L526.8896,909.6484 C541.8896,909.6484 541.8896,938.4531 556.8896,938.4531 L566.8896,938.4531 " fill="none" style="stroke:#181818;stroke-width:1;"/><path d="M366,909.6484 L376,909.6484 C391,909.6484 391,909.6484 406,909.6484 L416,909.6484 " fill="none" style="stroke:#181818;stroke-width:1;"/><path d="M198,1063.9531 L208,1063.9531 C223,1063.9531 223,909.6484 238,909.6484 L248,909.6484 " fill="none" style="stroke:#181818;stroke-width:1;"/><rect fill="#F1F1F1" height="37.6094" rx="12.5" ry="12.5" style="stroke:#181818;stroke-width:1.5;" width="118" x="248" y="1102.7578"/><text fill="#000000" font-family="sans-serif" font-size="14" lengthAdjust="spacing" textLength="98" x="258" y="1127.291">&#24320;&#24237;&#23457;&#65288;&#20363;&#22806;&#65289;</text><rect fill="#F1F1F1" height="37.6094" rx="12.5" ry="12.5" style="stroke:#181818;stroke-width:1.5;" width="48" x="416" y="979.8281"/><text fill="#000000" font-family="sans-serif" font-size="14" lengthAdjust="spacing" textLength="28" x="426" y="1004.3613">&#26465;&#20214;</text><rect fill="#F1F1F1" height="42.75" rx="12.5" ry="12.5" style="stroke:#181818;stroke-width:1.5;" width="100.8896" x="514" y="977.2578"/><text fill="#000000" font-family="sans-serif" font-size="14" lengthAdjust="spacing" textLength="56" x="524" y="1006.9316">&#32844;&#21153;&#40657;&#37329;</text><path d="M591.473,1007.0911 C591.473,1008.2578 591.473,1008.2578 590.3063,1008.2578 C589.1396,1008.2578 589.1396,1007.0911 589.1396,1007.0911 L589.1396,988.4245 C589.1396,987.2578 589.1396,987.2578 590.3063,987.2578 C591.473,987.2578 591.473,988.4245 591.473,988.4245 L591.473,1007.0911 " fill="#66757F" style="stroke:;stroke-width:0;stroke-dasharray:;"/><path d="M590.3063,989.5911 C590.3063,988.3078 591.2606,987.6953 592.4273,988.2302 L602.1847,992.7026 C603.3514,993.2376 603.3514,994.1126 602.1847,994.6469 L592.4273,999.1193 C591.2606,999.6536 590.3063,999.0411 590.3063,997.7578 L590.3063,989.5911 " fill="#DD2E44" style="stroke:;stroke-width:0;stroke-dasharray:;"/><path d="M464,998.6328 L474,998.6328 C489,998.6328 489,998.6328 504,998.6328 L514,998.6328 " fill="none" style="stroke:#181818;stroke-width:1;"/><path d="M366,1121.5625 L376,1121.5625 C391,1121.5625 391,998.6328 406,998.6328 L416,998.6328 " fill="none" style="stroke:#181818;stroke-width:1;"/><rect fill="#F1F1F1" height="37.6094" rx="12.5" ry="12.5" style="stroke:#181818;stroke-width:1.5;" width="76" x="416" y="1134.1328"/><text fill="#000000" font-family="sans-serif" font-size="14" lengthAdjust="spacing" textLength="56" x="426" y="1158.666">&#21442;&#21152;&#24237;&#23457;</text><rect fill="#F1F1F1" height="37.6094" rx="12.5" ry="12.5" style="stroke:#181818;stroke-width:1.5;" width="48" x="542" y="1105.3281"/><text fill="#000000" font-family="sans-serif" font-size="14" lengthAdjust="spacing" textLength="28" x="552" y="1129.8613">&#24212;&#24403;</text><rect fill="#F1F1F1" height="42.75" rx="12.5" ry="12.5" style="stroke:#181818;stroke-width:1.5;" width="170.8896" x="640" y="1040.0078"/><text fill="#000000" font-family="sans-serif" font-size="14" lengthAdjust="spacing" textLength="126" x="650" y="1069.6816">&#26816;&#23519;&#38498;&#65288;&#36827;&#34892;&#30417;&#30563;&#65289;</text><path d="M787.473,1069.8411 C787.473,1071.0078 787.473,1071.0078 786.3063,1071.0078 C785.1396,1071.0078 785.1396,1069.8411 785.1396,1069.8411 L785.1396,1051.1745 C785.1396,1050.0078 785.1396,1050.0078 786.3063,1050.0078 C787.473,1050.0078 787.473,1051.1745 787.473,1051.1745 L787.473,1069.8411 " fill="#66757F" style="stroke:;stroke-width:0;stroke-dasharray:;"/><path d="M786.3063,1052.3411 C786.3063,1051.0578 787.2606,1050.4453 788.4273,1050.9802 L798.1847,1055.4526 C799.3514,1055.9876 799.3514,1056.8626 798.1847,1057.3969 L788.4273,1061.8693 C787.2606,1062.4036 786.3063,1061.7911 786.3063,1060.5078 L786.3063,1052.3411 " fill="#DD2E44" style="stroke:;stroke-width:0;stroke-dasharray:;"/><path d="M590,1124.1328 L600,1124.1328 C615,1124.1328 615,1061.3828 630,1061.3828 L640,1061.3828 " fill="none" style="stroke:#181818;stroke-width:1;"/><rect fill="#F1F1F1" height="42.75" rx="12.5" ry="12.5" style="stroke:#181818;stroke-width:1.5;" width="184.8896" x="640" y="1102.7578"/><text fill="#000000" font-family="sans-serif" font-size="14" lengthAdjust="spacing" textLength="140" x="650" y="1132.4316">&#25191;&#34892;&#26426;&#20851;&#65288;&#20030;&#35777;&#36131;&#20219;&#65289;</text><path d="M801.473,1132.5911 C801.473,1133.7578 801.473,1133.7578 800.3063,1133.7578 C799.1396,1133.7578 799.1396,1132.5911 799.1396,1132.5911 L799.1396,1113.9245 C799.1396,1112.7578 799.1396,1112.7578 800.3063,1112.7578 C801.473,1112.7578 801.473,1113.9245 801.473,1113.9245 L801.473,1132.5911 " fill="#66757F" style="stroke:;stroke-width:0;stroke-dasharray:;"/><path d="M800.3063,1115.0911 C800.3063,1113.8078 801.2606,1113.1953 802.4273,1113.7302 L812.1847,1118.2026 C813.3514,1118.7376 813.3514,1119.6126 812.1847,1120.1469 L802.4273,1124.6193 C801.2606,1125.1536 800.3063,1124.5411 800.3063,1123.2578 L800.3063,1115.0911 " fill="#DD2E44" style="stroke:;stroke-width:0;stroke-dasharray:;"/><path d="M590,1124.1328 L600,1124.1328 C615,1124.1328 615,1124.1328 630,1124.1328 L640,1124.1328 " fill="none" style="stroke:#181818;stroke-width:1;"/><rect fill="#F1F1F1" height="37.6094" rx="12.5" ry="12.5" style="stroke:#181818;stroke-width:1.5;" width="118" x="640" y="1168.0781"/><text fill="#000000" font-family="sans-serif" font-size="14" lengthAdjust="spacing" textLength="98" x="650" y="1192.6113">&#32618;&#29359;&#65288;&#21463;&#30410;&#20154;&#65289;</text><rect fill="#F1F1F1" height="42.75" rx="12.5" ry="12.5" style="stroke:#181818;stroke-width:1.5;" width="139.7793" x="808" y="1165.5078"/><text fill="#000000" font-family="sans-serif" font-size="14" lengthAdjust="spacing" textLength="70" x="818" y="1195.1816">&#19981;&#33021;&#35831;&#24459;&#24072;</text><path d="M904.4506,1186.009 L911.5876,1178.8725 C912.157,1178.3031 912.157,1177.3797 911.5876,1176.8104 C911.0177,1176.2405 910.0949,1176.2405 909.5256,1176.8104 L902.3885,1183.9469 L895.252,1176.8104 C894.6826,1176.2405 893.7586,1176.2405 893.1899,1176.8104 C892.62,1177.3797 892.62,1178.3031 893.1899,1178.8725 L900.3264,1186.009 L893.1736,1193.1624 C892.6036,1193.7323 892.6036,1194.6551 893.1736,1195.2245 C893.4582,1195.5091 893.8316,1195.6515 894.2049,1195.6515 C894.5782,1195.6515 894.9516,1195.5091 895.2362,1195.2245 L902.3891,1188.0711 L909.5256,1195.2076 C909.8102,1195.4922 910.1836,1195.6346 910.5569,1195.6346 C910.9302,1195.6346 911.303,1195.4922 911.5882,1195.2076 C912.1576,1194.6376 912.1576,1193.7148 911.5882,1193.1455 L904.4506,1186.009 " fill="#DD2E44" style="stroke:;stroke-width:0;stroke-dasharray:;"/><text fill="#000000" font-family="sans-serif" font-size="14" lengthAdjust="spacing" textLength="3.8896" x="912.8896" y="1195.1816">&#160;</text><path d="M924.3626,1195.3411 C924.3626,1196.5078 924.3626,1196.5078 923.196,1196.5078 C922.0293,1196.5078 922.0293,1195.3411 922.0293,1195.3411 L922.0293,1176.6745 C922.0293,1175.5078 922.0293,1175.5078 923.196,1175.5078 C924.3626,1175.5078 924.3626,1176.6745 924.3626,1176.6745 L924.3626,1195.3411 " fill="#66757F" style="stroke:;stroke-width:0;stroke-dasharray:;"/><path d="M923.196,1177.8411 C923.196,1176.5578 924.1503,1175.9453 925.317,1176.4802 L935.0744,1180.9526 C936.241,1181.4876 936.241,1182.3626 935.0744,1182.8969 L925.317,1187.3693 C924.1503,1187.9036 923.196,1187.2911 923.196,1186.0078 L923.196,1177.8411 " fill="#DD2E44" style="stroke:;stroke-width:0;stroke-dasharray:;"/><path d="M758,1186.8828 L768,1186.8828 C783,1186.8828 783,1186.8828 798,1186.8828 L808,1186.8828 " fill="none" style="stroke:#181818;stroke-width:1;"/><path d="M590,1124.1328 L600,1124.1328 C615,1124.1328 615,1186.8828 630,1186.8828 L640,1186.8828 " fill="none" style="stroke:#181818;stroke-width:1;"/><path d="M492,1152.9375 L502,1152.9375 C517,1152.9375 517,1124.1328 532,1124.1328 L542,1124.1328 " fill="none" style="stroke:#181818;stroke-width:1;"/><rect fill="#F1F1F1" height="37.6094" rx="12.5" ry="12.5" style="stroke:#181818;stroke-width:1.5;" width="48" x="542" y="1228.2578"/><text fill="#000000" font-family="sans-serif" font-size="14" lengthAdjust="spacing" textLength="28" x="552" y="1252.791">&#21487;&#20197;</text><rect fill="#F1F1F1" height="37.6094" rx="12.5" ry="12.5" style="stroke:#181818;stroke-width:1.5;" width="272" x="640" y="1228.2578"/><text fill="#000000" font-family="sans-serif" font-size="14" lengthAdjust="spacing" textLength="252" x="650" y="1252.791">&#35777;&#20154;&#12289;&#19981;&#21516;&#24847;&#35265;&#30340;&#20154;&#12289;&#37492;&#23450;&#20154;&#12289;&#32763;&#35793;&#20154;&#21592;</text><path d="M590,1247.0625 L600,1247.0625 C615,1247.0625 615,1247.0625 630,1247.0625 L640,1247.0625 " fill="none" style="stroke:#181818;stroke-width:1;"/><path d="M492,1152.9375 L502,1152.9375 C517,1152.9375 517,1247.0625 532,1247.0625 L542,1247.0625 " fill="none" style="stroke:#181818;stroke-width:1;"/><path d="M366,1121.5625 L376,1121.5625 C391,1121.5625 391,1152.9375 406,1152.9375 L416,1152.9375 " fill="none" style="stroke:#181818;stroke-width:1;"/><path d="M198,1063.9531 L208,1063.9531 C223,1063.9531 223,1121.5625 238,1121.5625 L248,1121.5625 " fill="none" style="stroke:#181818;stroke-width:1;"/><path d="M100,751.2227 L110,751.2227 C125,751.2227 125,1063.9531 140,1063.9531 L150,1063.9531 " fill="none" style="stroke:#181818;stroke-width:1;"/><rect fill="#F1F1F1" height="37.6094" rx="12.5" ry="12.5" style="stroke:#181818;stroke-width:1.5;" width="48" x="150" y="1346.0469"/><text fill="#000000" font-family="sans-serif" font-size="14" lengthAdjust="spacing" textLength="28" x="160" y="1370.5801">&#30417;&#30563;</text><rect fill="#F1F1F1" height="37.6094" rx="12.5" ry="12.5" style="stroke:#181818;stroke-width:1.5;" width="62" x="248" y="1346.0469"/><text fill="#000000" font-family="sans-serif" font-size="14" lengthAdjust="spacing" textLength="42" x="258" y="1370.5801">&#26816;&#23519;&#38498;</text><rect fill="#F1F1F1" height="37.6094" rx="12.5" ry="12.5" style="stroke:#181818;stroke-width:1.5;" width="132" x="360" y="1285.8672"/><text fill="#000000" font-family="sans-serif" font-size="14" lengthAdjust="spacing" textLength="112" x="370" y="1310.4004">&#22914;&#26524;&#27861;&#38498;&#24320;&#24237;&#23457;&#29702;</text><rect fill="#F1F1F1" height="37.6094" rx="12.5" ry="12.5" style="stroke:#181818;stroke-width:1.5;" width="76" x="542" y="1285.8672"/><text fill="#000000" font-family="sans-serif" font-size="14" lengthAdjust="spacing" textLength="56" x="552" y="1310.4004">&#26816;&#35201;&#21442;&#21152;</text><path d="M492,1304.6719 L502,1304.6719 C517,1304.6719 517,1304.6719 532,1304.6719 L542,1304.6719 " fill="none" style="stroke:#181818;stroke-width:1;"/><path d="M310,1364.8516 L320,1364.8516 C335,1364.8516 335,1304.6719 350,1304.6719 L360,1304.6719 " fill="none" style="stroke:#181818;stroke-width:1;"/><rect fill="#F1F1F1" height="42.75" rx="12.5" ry="12.5" style="stroke:#181818;stroke-width:1.5;" width="114.8896" x="360" y="1372.2813"/><text fill="#000000" font-family="sans-serif" font-size="14" lengthAdjust="spacing" textLength="70" x="370" y="1401.9551">&#21457;&#29616;&#26377;&#38169;&#35823;</text><path d="M451.473,1402.1146 C451.473,1403.2813 451.473,1403.2813 450.3063,1403.2813 C449.1396,1403.2813 449.1396,1402.1146 449.1396,1402.1146 L449.1396,1383.4479 C449.1396,1382.2813 449.1396,1382.2813 450.3063,1382.2813 C451.473,1382.2813 451.473,1383.4479 451.473,1383.4479 L451.473,1402.1146 " fill="#66757F" style="stroke:;stroke-width:0;stroke-dasharray:;"/><path d="M450.3063,1384.6146 C450.3063,1383.3313 451.2606,1382.7188 452.4273,1383.2537 L462.1847,1387.7261 C463.3514,1388.261 463.3514,1389.136 462.1847,1389.6703 L452.4273,1394.1428 C451.2606,1394.6771 450.3063,1394.0646 450.3063,1392.7813 L450.3063,1384.6146 " fill="#DD2E44" style="stroke:;stroke-width:0;stroke-dasharray:;"/><rect fill="#F1F1F1" height="37.6094" rx="12.5" ry="12.5" style="stroke:#181818;stroke-width:1.5;" width="63.5723" x="524.8896" y="1374.8516"/><text fill="#000000" font-family="sans-serif" font-size="14" lengthAdjust="spacing" textLength="43.5723" x="534.8896" y="1399.3848">20&#22825;&#20869;</text><rect fill="#F1F1F1" height="37.6094" rx="12.5" ry="12.5" style="stroke:#181818;stroke-width:1.5;" width="62" x="638.4619" y="1346.0469"/><text fill="#000000" font-family="sans-serif" font-size="14" lengthAdjust="spacing" textLength="42" x="648.4619" y="1370.5801">&#21521;&#27861;&#38498;</text><rect fill="#F1F1F1" height="37.6094" rx="12.5" ry="12.5" style="stroke:#181818;stroke-width:1.5;" width="132" x="750.4619" y="1346.0469"/><text fill="#000000" font-family="sans-serif" font-size="14" lengthAdjust="spacing" textLength="112" x="760.4619" y="1370.5801">&#25552;&#20986;&#20070;&#38754;&#32416;&#27491;&#24847;&#35265;</text><rect fill="#F1F1F1" height="42.75" rx="12.5" ry="12.5" style="stroke:#181818;stroke-width:1.5;" width="100.8896" x="932.4619" y="1343.4766"/><text fill="#000000" font-family="sans-serif" font-size="14" lengthAdjust="spacing" textLength="56" x="942.4619" y="1373.1504">&#19981;&#21483;&#25239;&#35785;</text><path d="M1014.9125,1363.9777 L1022.0496,1356.8412 C1022.6189,1356.2719 1022.6189,1355.3485 1022.0496,1354.7791 C1021.4796,1354.2092 1020.5568,1354.2092 1019.9875,1354.7791 L1012.8504,1361.9156 L1005.7139,1354.7791 C1005.1446,1354.2092 1004.2206,1354.2092 1003.6518,1354.7791 C1003.0819,1355.3485 1003.0819,1356.2719 1003.6518,1356.8412 L1010.7883,1363.9777 L1003.6355,1371.1311 C1003.0656,1371.7011 1003.0656,1372.6239 1003.6355,1373.1932 C1003.9201,1373.4779 1004.2935,1373.6202 1004.6668,1373.6202 C1005.0401,1373.6202 1005.4135,1373.4779 1005.6981,1373.1932 L1012.851,1366.0398 L1019.9875,1373.1763 C1020.2721,1373.461 1020.6455,1373.6033 1021.0188,1373.6033 C1021.3921,1373.6033 1021.7649,1373.461 1022.0501,1373.1763 C1022.6195,1372.6064 1022.6195,1371.6836 1022.0501,1371.1142 L1014.9125,1363.9777 " fill="#DD2E44" style="stroke:;stroke-width:0;stroke-dasharray:;"/><path d="M882.4619,1364.8516 L892.4619,1364.8516 C907.4619,1364.8516 907.4619,1364.8516 922.4619,1364.8516 L932.4619,1364.8516 " fill="none" style="stroke:#181818;stroke-width:1;"/><path d="M700.4619,1364.8516 L710.4619,1364.8516 C725.4619,1364.8516 725.4619,1364.8516 740.4619,1364.8516 L750.4619,1364.8516 " fill="none" style="stroke:#181818;stroke-width:1;"/><path d="M588.4619,1393.6563 L598.4619,1393.6563 C613.4619,1393.6563 613.4619,1364.8516 628.4619,1364.8516 L638.4619,1364.8516 " fill="none" style="stroke:#181818;stroke-width:1;"/><rect fill="#F1F1F1" height="37.6094" rx="12.5" ry="12.5" style="stroke:#181818;stroke-width:1.5;" width="175.5723" x="638.4619" y="1406.2266"/><text fill="#000000" font-family="sans-serif" font-size="14" lengthAdjust="spacing" textLength="155.5723" x="648.4619" y="1430.7598">20&#22825;&#20869;&#65292;&#35009;&#23450;&#65292;&#26242;&#19981;&#29983;&#25928;</text><path d="M588.4619,1393.6563 L598.4619,1393.6563 C613.4619,1393.6563 613.4619,1425.0313 628.4619,1425.0313 L638.4619,1425.0313 " fill="none" style="stroke:#181818;stroke-width:1;"/><path d="M474.8896,1393.6563 L484.8896,1393.6563 C499.8896,1393.6563 499.8896,1393.6563 514.8896,1393.6563 L524.8896,1393.6563 " fill="none" style="stroke:#181818;stroke-width:1;"/><path d="M310,1364.8516 L320,1364.8516 C335,1364.8516 335,1393.6563 350,1393.6563 L360,1393.6563 " fill="none" style="stroke:#181818;stroke-width:1;"/><path d="M198,1364.8516 L208,1364.8516 C223,1364.8516 223,1364.8516 238,1364.8516 L248,1364.8516 " fill="none" style="stroke:#181818;stroke-width:1;"/><path d="M100,751.2227 L110,751.2227 C125,751.2227 125,1364.8516 140,1364.8516 L150,1364.8516 " fill="none" style="stroke:#181818;stroke-width:1;"/><rect fill="#F1F1F1" height="37.6094" rx="12.5" ry="12.5" style="stroke:#181818;stroke-width:1.5;" width="48" x="150" y="1403.6563"/><text fill="#000000" font-family="sans-serif" font-size="14" lengthAdjust="spacing" textLength="28" x="160" y="1428.1895">&#25764;&#38144;</text><path d="M100,751.2227 L110,751.2227 C125,751.2227 125,1422.4609 140,1422.4609 L150,1422.4609 " fill="none" style="stroke:#181818;stroke-width:1;"/><!--SRC=[xLbjJnDP5Fu-ls8sVj5DgCWIOXfZb0hPDMBCWdubb-cr7PdEDDFRkdMpIGiYfIAbMa5UbBS2kWOgaNMX1VmnzivCF_aNzinCIuUsqobcFvOGqfxptEUSUzxkpUL6Y22P17ZH6q11Xlc95paXxCMiotKPVaCaAk3BGG6991mGEdHO1-0w3BcB1nd349u8cAMJAPf8qvVJD3vPcamopCzr8XP-G3gTfubdnfUom82T2aoXCl-bDB-l5lPfVajTV4etvsXopxgeIbaLgX_oJHPLSThN9JgngMPFYaUBtu-cbQLzPMAcDFcYxA4M6zSMqdHfLTrVjPWi7XIqxR5QFySoIkPGMtklpdngOAaKYsd_P9HO73ogKvSPbgUqyMEQN6geBsziEwUyYzEzJMrj6Xmk5cRexh4jlhoBtIpTNJJzSu2Qn7HsHW_6t25DvSoSV0E_w-DSiyFnzv1Egsl5Wyqc-EB1YrR1fmiSjwBNowfZ57NJntlqLPLFFVxRMbExw_K9rlRNY_bj9RPD4zdIsc6D5eg6PhVLZyzfSeLfR34rNqDX-b2fjKzn-kmpU6FnG_dykhImNblRkslQoLoZ4llu1j3ijGizdNrzFPrkFqQHw33dnzpeS039e-xhTY7RAQX7ho3743jbkR7xEpz8lJm5Z3ILB1OsYmVF6r3JbJpT6pFOtN-uhyDV8lD8z8K590y_591lM1A7WrA8rDY0G6JUQxaNZRfw8mvnF9Utu4SY2_7N2zt8WkbDPLBjhgcprabLFDmglLq7yVUZ19rPeOc5xqTJjGCXDQljvg2mr6IkvLtP3aABCfM3O3PQPT-XeCndwF4hQuqVnMX-nzn2yUGvpSursCBRjMBXIwC8nwTfSgrKI9Scq-V864sDqUIgQPPnzB76buqOpQr0dO2_CBPXRgXBQVNj1dXzhkYMsQQsWK5PpjE9pte03awqN5pRtoWM2Zz6QEPPBuVKlBgKBERpjU6i7sRZnrhkNmgnFqYSi_YRLa8vHRauE07rh8-UsMdbQKhRZiDPQ0fBK_jGvEPdzMj1owNXCqs_OSeLRyQMQH3-sfHkZIdlbir1TLfIrcOvGw5jnSqQg2kCD1oRC2nAcGKjTzvswUgasG_qsOHTwS-c6mpIkcQbatcphTNyghApOGRC-KYYgOzASbxBJLacXhsBSDQPqqa_O1V7OBsQML5U9yfXLrvcIvaOmzp0S0khtCHkdBsONJEkNDUPik0MZtmo2h1_0eLhH0XZunFBzY9kr2TBOT7haGH9PWNUvoUw7hH_wLWlJ48PUstWPMq5x9Cn5fin6m0BEke0ZbQmaWnvjdFQL5QWmR0S5EoWfh82jT-OPLEo5B9Zkz3VtzlhyLIGKIm8qcCRhAaqe8mhW7Xno8y35U9-III3_1FC_jB9w7eS2FfHY0yvnzAAxhI1XqQZHagjsAxciRH2Uq74-Q7kMdA6zucIZ5l8AylUuKLSAwzIj6YsAPLE9eeIXqLY5nlHI8gP0bCq8W2cXXMQn_IDa_dJh5NLH0eW8fdEYmIiyPA81CzviVTa74GoqYNdMNPpH9A9KzcroaK8v9quTLgBR1uf0Er6xCgXlDAEJa-VY7sGKI2r1hFPr7BAf1VZeBKXpXheWoaw8l0Xl_t8iwm_Q-sndoUriR4nSrSYpfQCNN5H9BQmAmvvCJarXZYEzzhN_9bHxCJy45enPEbl-CxX0VG8XnswN1B01LdoMYhGeSSgAmmxS8xpX8_Wcvob7Uh6EH9mgnkfRW5oWHof0poSeFhiRwMcoiUWJXuAZpp2d4vl5nqKWNCRootoHdW9EiYWbfoOzRYt7Exgf3_RkCrxzKmjEvuX3FovThby5Mc__BHVVjelF-sNd_RBJ_lbf_toqtxvQR_y_3ylF_VqVxVT7xZ3Hh0SqY-qLrnTdLtThgiN1n5XxqeHzaeFstd5tTtjxkvXFOD3hAw-n5mS-6s83KbXkC-pNhZjoln8MBy2Nc9kemXYVm_3XJ20tQp-xUBGm2LsiAyYPFl422zBOW0kWSpj1mCcYFrL8eD1YHZWdkwENfwmWrW6jzW70ymj_1251G9BESdBYputUt-el-CgSqVF8_A1eIT-nWEtI297tQpdxdy0]--></g></svg>