<svg xmlns="http://www.w3.org/2000/svg" xmlns:xlink="http://www.w3.org/1999/xlink" contentStyleType="text/css" height="348px" preserveAspectRatio="none" style="width:695px;height:348px;background:#FFFFFF;" version="1.1" viewBox="0 0 695 348" width="695px" zoomAndPan="magnify"><title>&#25345;&#32493;&#26102;&#38388;</title><defs/><g><text fill="#000000" font-family="sans-serif" font-size="14" font-weight="bold" lengthAdjust="spacing" textLength="57.75" x="317.3042" y="34.5332">&#25345;&#32493;&#26102;&#38388;</text><rect fill="#F1F1F1" height="37.6094" rx="12.5" ry="12.5" style="stroke:#181818;stroke-width:1.5;" width="76" x="10" y="173.8281"/><text fill="#000000" font-family="sans-serif" font-size="14" lengthAdjust="spacing" textLength="56" x="20" y="198.3613">&#25345;&#32493;&#26102;&#38388;</text><rect fill="#F1F1F1" height="37.6094" rx="12.5" ry="12.5" style="stroke:#181818;stroke-width:1.5;" width="76" x="136" y="145.0234"/><text fill="#000000" font-family="sans-serif" font-size="14" lengthAdjust="spacing" textLength="56" x="146" y="169.5566">&#23457;&#26597;&#36215;&#35785;</text><rect fill="#F1F1F1" height="37.6094" rx="12.5" ry="12.5" style="stroke:#181818;stroke-width:1.5;" width="76" x="262" y="87.4141"/><text fill="#000000" font-family="sans-serif" font-size="14" lengthAdjust="spacing" textLength="56" x="272" y="111.9473">&#19968;&#33324;&#26696;&#20214;</text><rect fill="#F1F1F1" height="37.6094" rx="12.5" ry="12.5" style="stroke:#181818;stroke-width:1.5;" width="161.5723" x="388" y="58.6094"/><text fill="#000000" font-family="sans-serif" font-size="14" lengthAdjust="spacing" textLength="141.5723" x="398" y="83.1426">&#19968;&#20010;&#26376;&#65292;&#36824;&#33021;&#24310;&#38271;15&#22825;</text><path d="M338,106.2188 L348,106.2188 C363,106.2188 363,77.4141 378,77.4141 L388,77.4141 " fill="none" style="stroke:#181818;stroke-width:1;"/><rect fill="#F1F1F1" height="37.6094" rx="12.5" ry="12.5" style="stroke:#181818;stroke-width:1.5;" width="132" x="388" y="116.2188"/><text fill="#000000" font-family="sans-serif" font-size="14" lengthAdjust="spacing" textLength="112" x="398" y="140.752">&#19968;&#20010;&#26376;&#21040;&#19968;&#20010;&#21322;&#26376;</text><path d="M338,106.2188 L348,106.2188 C363,106.2188 363,135.0234 378,135.0234 L388,135.0234 " fill="none" style="stroke:#181818;stroke-width:1;"/><path d="M212,163.8281 L222,163.8281 C237,163.8281 237,106.2188 252,106.2188 L262,106.2188 " fill="none" style="stroke:#181818;stroke-width:1;"/><rect fill="#F1F1F1" height="37.6094" rx="12.5" ry="12.5" style="stroke:#181818;stroke-width:1.5;" width="104" x="262" y="202.6328"/><text fill="#000000" font-family="sans-serif" font-size="14" lengthAdjust="spacing" textLength="84" x="272" y="227.166">&#35748;&#32618;&#35748;&#32602;&#26696;&#20214;</text><rect fill="#F1F1F1" height="37.6094" rx="12.5" ry="12.5" style="stroke:#181818;stroke-width:1.5;" width="76" x="416" y="202.6328"/><text fill="#000000" font-family="sans-serif" font-size="14" lengthAdjust="spacing" textLength="56" x="426" y="227.166">&#36895;&#35009;&#26696;&#20214;</text><rect fill="#F1F1F1" height="37.6094" rx="12.5" ry="12.5" style="stroke:#181818;stroke-width:1.5;" width="141.3584" x="542" y="173.8281"/><text fill="#000000" font-family="sans-serif" font-size="14" lengthAdjust="spacing" textLength="121.3584" x="552" y="198.3613">10&#22825;&#65292;&#36824;&#33021;&#24310;&#38271;5&#22825;</text><path d="M492,221.4375 L502,221.4375 C517,221.4375 517,192.6328 532,192.6328 L542,192.6328 " fill="none" style="stroke:#181818;stroke-width:1;"/><rect fill="#F1F1F1" height="37.6094" rx="12.5" ry="12.5" style="stroke:#181818;stroke-width:1.5;" width="79.1445" x="542" y="231.4375"/><text fill="#000000" font-family="sans-serif" font-size="14" lengthAdjust="spacing" textLength="59.1445" x="552" y="255.9707">10&#21040;15&#22825;</text><path d="M492,221.4375 L502,221.4375 C517,221.4375 517,250.2422 532,250.2422 L542,250.2422 " fill="none" style="stroke:#181818;stroke-width:1;"/><path d="M366,221.4375 L376,221.4375 C391,221.4375 391,221.4375 406,221.4375 L416,221.4375 " fill="none" style="stroke:#181818;stroke-width:1;"/><path d="M212,163.8281 L222,163.8281 C237,163.8281 237,221.4375 252,221.4375 L262,221.4375 " fill="none" style="stroke:#181818;stroke-width:1;"/><path d="M86,192.6328 L96,192.6328 C111,192.6328 111,163.8281 126,163.8281 L136,163.8281 " fill="none" style="stroke:#181818;stroke-width:1;"/><rect fill="#F1F1F1" height="37.6094" rx="12.5" ry="12.5" style="stroke:#181818;stroke-width:1.5;" width="104" x="136" y="289.0469"/><text fill="#000000" font-family="sans-serif" font-size="14" lengthAdjust="spacing" textLength="84" x="146" y="313.5801">&#38468;&#26465;&#20214;&#19981;&#36215;&#35785;</text><rect fill="#F1F1F1" height="37.6094" rx="12.5" ry="12.5" style="stroke:#181818;stroke-width:1.5;" width="76" x="290" y="289.0469"/><text fill="#000000" font-family="sans-serif" font-size="14" lengthAdjust="spacing" textLength="56" x="300" y="313.5801">&#32771;&#39564;&#26399;&#38480;</text><rect fill="#F1F1F1" height="37.6094" rx="12.5" ry="12.5" style="stroke:#181818;stroke-width:1.5;" width="239.3584" x="416" y="289.0469"/><text fill="#000000" font-family="sans-serif" font-size="14" lengthAdjust="spacing" textLength="219.3584" x="426" y="313.5801">6&#20010;&#26376;&#20197;&#19978;12&#20010;&#26376;&#20197;&#19979;&#65288;&#19968;&#24180;&#21322;&#36733;&#65289;</text><path d="M366,307.8516 L376,307.8516 C391,307.8516 391,307.8516 406,307.8516 L416,307.8516 " fill="none" style="stroke:#181818;stroke-width:1;"/><path d="M240,307.8516 L250,307.8516 C265,307.8516 265,307.8516 280,307.8516 L290,307.8516 " fill="none" style="stroke:#181818;stroke-width:1;"/><path d="M86,192.6328 L96,192.6328 C111,192.6328 111,307.8516 126,307.8516 L136,307.8516 " fill="none" style="stroke:#181818;stroke-width:1;"/><!--SRC=[xLPFRzD85B_FfvWLbnOfQTBDLYX2g2IqOb5J8HAuJ-p16MhFMEDnK5YjL0I704NYWbXMhAfguK2r2noWsrLRyMMIu9pw5NYsuyH9SMnkUzWeiZpl_URt_izurL54AejntI8sGZymhfckJd4-lmH_HtLCkcIRX2lNCdC-B0UuN23FCv0Xf9WoAHxitFzozFVWnS7mnKU4pa-lCVpEu_wxlS7k6-_JFzxxHu4e5FSEjxtkNuEzRk_eO2mUgtg7-uDNtTFZ7U_pRzw3a_xHmV3vv-9F_TTlax3zxeVmlV_qCInZbhnthx-Sx0VFtxzfRxYzw_rv_nkgK5qiWDaPLyvuCePsFqpS1EgN3mT_x05lx_3fcHHusm-6-pk3Lxl3byzcN5e9W-eTlUaTFYuknrPFJe-x46Z_tuyGg7ToSdhy2A5L2eMCYhawNTkBGTKkeP7W2YE691R-1IpccwPBWpUCAqJRCgHmkLuLff3OP4PB-NhG_kfZTIAt9DKJu2Dj13OafNmUSm28eJifu4w45P9m8ydfK1b1RLVQPX8qL4RGvC1YGKdX9B6TMr-lLAhL2DcXfYdk9c13PG15UOimtcXHAo9U5rpLsJsAVomWNqyjkqKSvgJdCeuk9C2ThKvGqZXsUNukuz0AYBGMj6ScPvZ1XQGPwehn1kDqLZwXo6XsBfLFnhdGA5T9kU51KS8IXAAc2PWPLXYUq3TDid7L9cebBA94w3nNO8q9JipgzsAlIseJINp9zsoxt1HIfRLTLYwbeEugRT8oibM51UEcajfXj3E9pYyVfmPK54ZZoPntQgLLKgVKZW_4j84rE4MR9dDQoKTURF-qjRijfcPpas1cKwXqIq5KMeVm355fHATgR8ne6jEJUtxgA4vZlWsZwCJc6zOQhP4xr4sPSc622rBeiGvCcR5eHs375WvJh4qlQx5nE7ES4vDc3MGI0jI2f59R36vG_-pFqbEZQz0dTzpc7Qhvz4dP8MsujwdCoDjc0YOee1Pfp7xUCwTxSj9F3-xyMPtgvTGx1C7ZujBeK-J_ZyV_xCVZTV-Z_sPj0xUfTFoPAEQN2ykb_8M5Eb5uKxHnSGKNYkLIgLnQmTLw0_lgHRHG-xc17U72aO1r61Z9cgxVHOle6caJVCE5dh9e6VkhXKPj4TVN8Y5Uusqc1RUWZz2rMxKGXAyALRU52i0hfLo5ALod4jp2jshe2hrDN5F1LateZ1jbVBEndhk0Dg3VN6A0eNijL8L6LB9JnjNDhm00]--></g></svg>