<svg xmlns="http://www.w3.org/2000/svg" xmlns:xlink="http://www.w3.org/1999/xlink" contentStyleType="text/css" height="867px" preserveAspectRatio="none" style="width:802px;height:867px;background:#FFFFFF;" version="1.1" viewBox="0 0 802 867" width="802px" zoomAndPan="magnify"><title>&#24378;&#21046;&#25514;&#26045;-&#20915;&#23450;&#25209;&#20934;&#25191;&#34892;</title><defs/><g><text fill="#000000" font-family="sans-serif" font-size="14" font-weight="bold" lengthAdjust="spacing" textLength="149.0371" x="325.3125" y="34.5332">&#24378;&#21046;&#25514;&#26045;-&#20915;&#23450;&#25209;&#20934;&#25191;&#34892;</text><rect fill="#F1F1F1" height="37.6094" rx="12.5" ry="12.5" style="stroke:#181818;stroke-width:1.5;" width="164.6621" x="10" y="433.0703"/><text fill="#000000" font-family="sans-serif" font-size="14" lengthAdjust="spacing" textLength="144.6621" x="20" y="457.6035">&#24378;&#21046;&#25514;&#26045;-&#20915;&#23450;&#25209;&#20934;&#25191;&#34892;</text><rect fill="#F1F1F1" height="37.6094" rx="12.5" ry="12.5" style="stroke:#181818;stroke-width:1.5;" width="62" x="224.6621" y="260.2422"/><text fill="#000000" font-family="sans-serif" font-size="14" lengthAdjust="spacing" textLength="42" x="234.6621" y="284.7754">&#38750;&#32641;&#25276;</text><rect fill="#F1F1F1" height="37.6094" rx="12.5" ry="12.5" style="stroke:#181818;stroke-width:1.5;" width="48" x="336.6621" y="145.0234"/><text fill="#000000" font-family="sans-serif" font-size="14" lengthAdjust="spacing" textLength="28" x="346.6621" y="169.5566">&#25304;&#20256;</text><rect fill="#F1F1F1" height="37.6094" rx="12.5" ry="12.5" style="stroke:#181818;stroke-width:1.5;" width="48" x="434.6621" y="87.4141"/><text fill="#000000" font-family="sans-serif" font-size="14" lengthAdjust="spacing" textLength="28" x="444.6621" y="111.9473">&#35777;&#20214;</text><rect fill="#F1F1F1" height="37.6094" rx="12.5" ry="12.5" style="stroke:#181818;stroke-width:1.5;" width="104" x="532.6621" y="58.6094"/><text fill="#000000" font-family="sans-serif" font-size="14" lengthAdjust="spacing" textLength="84" x="542.6621" y="83.1426">&#24517;&#39035;&#20986;&#31034;&#35777;&#20214;</text><path d="M482.6621,106.2188 L492.6621,106.2188 C507.6621,106.2188 507.6621,77.4141 522.6621,77.4141 L532.6621,77.4141 " fill="none" style="stroke:#181818;stroke-width:1;"/><rect fill="#F1F1F1" height="37.6094" rx="12.5" ry="12.5" style="stroke:#181818;stroke-width:1.5;" width="48" x="532.6621" y="116.2188"/><text fill="#000000" font-family="sans-serif" font-size="14" lengthAdjust="spacing" textLength="28" x="542.6621" y="140.752">&#32771;&#28857;</text><rect fill="#F1F1F1" height="37.6094" rx="12.5" ry="12.5" style="stroke:#181818;stroke-width:1.5;" width="118" x="630.6621" y="116.2188"/><text fill="#000000" font-family="sans-serif" font-size="14" lengthAdjust="spacing" textLength="98" x="640.6621" y="140.752">&#21475;&#22836;&#25304;&#20256;&#65292;&#38169;&#35823;</text><path d="M580.6621,135.0234 L590.6621,135.0234 C605.6621,135.0234 605.6621,135.0234 620.6621,135.0234 L630.6621,135.0234 " fill="none" style="stroke:#181818;stroke-width:1;"/><path d="M482.6621,106.2188 L492.6621,106.2188 C507.6621,106.2188 507.6621,135.0234 522.6621,135.0234 L532.6621,135.0234 " fill="none" style="stroke:#181818;stroke-width:1;"/><path d="M384.6621,163.8281 L394.6621,163.8281 C409.6621,163.8281 409.6621,106.2188 424.6621,106.2188 L434.6621,106.2188 " fill="none" style="stroke:#181818;stroke-width:1;"/><rect fill="#F1F1F1" height="37.6094" rx="12.5" ry="12.5" style="stroke:#181818;stroke-width:1.5;" width="48" x="434.6621" y="202.6328"/><text fill="#000000" font-family="sans-serif" font-size="14" lengthAdjust="spacing" textLength="28" x="444.6621" y="227.166">&#26426;&#20851;</text><rect fill="#F1F1F1" height="37.6094" rx="12.5" ry="12.5" style="stroke:#181818;stroke-width:1.5;" width="48" x="532.6621" y="173.8281"/><text fill="#000000" font-family="sans-serif" font-size="14" lengthAdjust="spacing" textLength="28" x="542.6621" y="198.3613">&#20915;&#23450;</text><rect fill="#F1F1F1" height="37.6094" rx="12.5" ry="12.5" style="stroke:#181818;stroke-width:1.5;" width="93.9102" x="630.6621" y="173.8281"/><text fill="#000000" font-family="sans-serif" font-size="14" lengthAdjust="spacing" textLength="73.9102" x="640.6621" y="198.3613">&#20844; + &#26816; + &#27861;</text><path d="M580.6621,192.6328 L590.6621,192.6328 C605.6621,192.6328 605.6621,192.6328 620.6621,192.6328 L630.6621,192.6328 " fill="none" style="stroke:#181818;stroke-width:1;"/><path d="M482.6621,221.4375 L492.6621,221.4375 C507.6621,221.4375 507.6621,192.6328 522.6621,192.6328 L532.6621,192.6328 " fill="none" style="stroke:#181818;stroke-width:1;"/><rect fill="#F1F1F1" height="37.6094" rx="12.5" ry="12.5" style="stroke:#181818;stroke-width:1.5;" width="48" x="532.6621" y="231.4375"/><text fill="#000000" font-family="sans-serif" font-size="14" lengthAdjust="spacing" textLength="28" x="542.6621" y="255.9707">&#25191;&#34892;</text><rect fill="#F1F1F1" height="37.6094" rx="12.5" ry="12.5" style="stroke:#181818;stroke-width:1.5;" width="93.9102" x="630.6621" y="231.4375"/><text fill="#000000" font-family="sans-serif" font-size="14" lengthAdjust="spacing" textLength="73.9102" x="640.6621" y="255.9707">&#20844; + &#26816; + &#27861;</text><path d="M580.6621,250.2422 L590.6621,250.2422 C605.6621,250.2422 605.6621,250.2422 620.6621,250.2422 L630.6621,250.2422 " fill="none" style="stroke:#181818;stroke-width:1;"/><path d="M482.6621,221.4375 L492.6621,221.4375 C507.6621,221.4375 507.6621,250.2422 522.6621,250.2422 L532.6621,250.2422 " fill="none" style="stroke:#181818;stroke-width:1;"/><path d="M384.6621,163.8281 L394.6621,163.8281 C409.6621,163.8281 409.6621,221.4375 424.6621,221.4375 L434.6621,221.4375 " fill="none" style="stroke:#181818;stroke-width:1;"/><path d="M286.6621,279.0469 L296.6621,279.0469 C311.6621,279.0469 311.6621,163.8281 326.6621,163.8281 L336.6621,163.8281 " fill="none" style="stroke:#181818;stroke-width:1;"/><rect fill="#F1F1F1" height="37.6094" rx="12.5" ry="12.5" style="stroke:#181818;stroke-width:1.5;" width="76" x="336.6621" y="317.8516"/><text fill="#000000" font-family="sans-serif" font-size="14" lengthAdjust="spacing" textLength="56" x="346.6621" y="342.3848">&#21462;&#20445;&#20505;&#23457;</text><rect fill="#F1F1F1" height="37.6094" rx="12.5" ry="12.5" style="stroke:#181818;stroke-width:1.5;" width="48" x="462.6621" y="317.8516"/><text fill="#000000" font-family="sans-serif" font-size="14" lengthAdjust="spacing" textLength="28" x="472.6621" y="342.3848">&#26426;&#20851;</text><rect fill="#F1F1F1" height="37.6094" rx="12.5" ry="12.5" style="stroke:#181818;stroke-width:1.5;" width="48" x="560.6621" y="289.0469"/><text fill="#000000" font-family="sans-serif" font-size="14" lengthAdjust="spacing" textLength="28" x="570.6621" y="313.5801">&#20915;&#23450;</text><rect fill="#F1F1F1" height="37.6094" rx="12.5" ry="12.5" style="stroke:#181818;stroke-width:1.5;" width="93.9102" x="658.6621" y="289.0469"/><text fill="#000000" font-family="sans-serif" font-size="14" lengthAdjust="spacing" textLength="73.9102" x="668.6621" y="313.5801">&#20844; + &#26816; + &#27861;</text><path d="M608.6621,307.8516 L618.6621,307.8516 C633.6621,307.8516 633.6621,307.8516 648.6621,307.8516 L658.6621,307.8516 " fill="none" style="stroke:#181818;stroke-width:1;"/><path d="M510.6621,336.6563 L520.6621,336.6563 C535.6621,336.6563 535.6621,307.8516 550.6621,307.8516 L560.6621,307.8516 " fill="none" style="stroke:#181818;stroke-width:1;"/><rect fill="#F1F1F1" height="37.6094" rx="12.5" ry="12.5" style="stroke:#181818;stroke-width:1.5;" width="48" x="560.6621" y="346.6563"/><text fill="#000000" font-family="sans-serif" font-size="14" lengthAdjust="spacing" textLength="28" x="570.6621" y="371.1895">&#25191;&#34892;</text><rect fill="#F1F1F1" height="37.6094" rx="12.5" ry="12.5" style="stroke:#181818;stroke-width:1.5;" width="34" x="658.6621" y="346.6563"/><text fill="#000000" font-family="sans-serif" font-size="14" lengthAdjust="spacing" textLength="14" x="668.6621" y="371.1895">&#20844;</text><path d="M608.6621,365.4609 L618.6621,365.4609 C633.6621,365.4609 633.6621,365.4609 648.6621,365.4609 L658.6621,365.4609 " fill="none" style="stroke:#181818;stroke-width:1;"/><path d="M510.6621,336.6563 L520.6621,336.6563 C535.6621,336.6563 535.6621,365.4609 550.6621,365.4609 L560.6621,365.4609 " fill="none" style="stroke:#181818;stroke-width:1;"/><path d="M412.6621,336.6563 L422.6621,336.6563 C437.6621,336.6563 437.6621,336.6563 452.6621,336.6563 L462.6621,336.6563 " fill="none" style="stroke:#181818;stroke-width:1;"/><path d="M286.6621,279.0469 L296.6621,279.0469 C311.6621,279.0469 311.6621,336.6563 326.6621,336.6563 L336.6621,336.6563 " fill="none" style="stroke:#181818;stroke-width:1;"/><rect fill="#F1F1F1" height="37.6094" rx="12.5" ry="12.5" style="stroke:#181818;stroke-width:1.5;" width="76" x="336.6621" y="433.0703"/><text fill="#000000" font-family="sans-serif" font-size="14" lengthAdjust="spacing" textLength="56" x="346.6621" y="457.6035">&#30417;&#35270;&#23621;&#20303;</text><rect fill="#F1F1F1" height="37.6094" rx="12.5" ry="12.5" style="stroke:#181818;stroke-width:1.5;" width="48" x="462.6621" y="433.0703"/><text fill="#000000" font-family="sans-serif" font-size="14" lengthAdjust="spacing" textLength="28" x="472.6621" y="457.6035">&#26426;&#20851;</text><rect fill="#F1F1F1" height="37.6094" rx="12.5" ry="12.5" style="stroke:#181818;stroke-width:1.5;" width="48" x="560.6621" y="404.2656"/><text fill="#000000" font-family="sans-serif" font-size="14" lengthAdjust="spacing" textLength="28" x="570.6621" y="428.7988">&#20915;&#23450;</text><rect fill="#F1F1F1" height="37.6094" rx="12.5" ry="12.5" style="stroke:#181818;stroke-width:1.5;" width="93.9102" x="658.6621" y="404.2656"/><text fill="#000000" font-family="sans-serif" font-size="14" lengthAdjust="spacing" textLength="73.9102" x="668.6621" y="428.7988">&#20844; + &#26816; + &#27861;</text><path d="M608.6621,423.0703 L618.6621,423.0703 C633.6621,423.0703 633.6621,423.0703 648.6621,423.0703 L658.6621,423.0703 " fill="none" style="stroke:#181818;stroke-width:1;"/><path d="M510.6621,451.875 L520.6621,451.875 C535.6621,451.875 535.6621,423.0703 550.6621,423.0703 L560.6621,423.0703 " fill="none" style="stroke:#181818;stroke-width:1;"/><rect fill="#F1F1F1" height="37.6094" rx="12.5" ry="12.5" style="stroke:#181818;stroke-width:1.5;" width="48" x="560.6621" y="461.875"/><text fill="#000000" font-family="sans-serif" font-size="14" lengthAdjust="spacing" textLength="28" x="570.6621" y="486.4082">&#25191;&#34892;</text><rect fill="#F1F1F1" height="37.6094" rx="12.5" ry="12.5" style="stroke:#181818;stroke-width:1.5;" width="34" x="658.6621" y="461.875"/><text fill="#000000" font-family="sans-serif" font-size="14" lengthAdjust="spacing" textLength="14" x="668.6621" y="486.4082">&#20844;</text><path d="M608.6621,480.6797 L618.6621,480.6797 C633.6621,480.6797 633.6621,480.6797 648.6621,480.6797 L658.6621,480.6797 " fill="none" style="stroke:#181818;stroke-width:1;"/><path d="M510.6621,451.875 L520.6621,451.875 C535.6621,451.875 535.6621,480.6797 550.6621,480.6797 L560.6621,480.6797 " fill="none" style="stroke:#181818;stroke-width:1;"/><path d="M412.6621,451.875 L422.6621,451.875 C437.6621,451.875 437.6621,451.875 452.6621,451.875 L462.6621,451.875 " fill="none" style="stroke:#181818;stroke-width:1;"/><path d="M286.6621,279.0469 L296.6621,279.0469 C311.6621,279.0469 311.6621,451.875 326.6621,451.875 L336.6621,451.875 " fill="none" style="stroke:#181818;stroke-width:1;"/><path d="M174.6621,451.875 L184.6621,451.875 C199.6621,451.875 199.6621,279.0469 214.6621,279.0469 L224.6621,279.0469 " fill="none" style="stroke:#181818;stroke-width:1;"/><rect fill="#F1F1F1" height="37.6094" rx="12.5" ry="12.5" style="stroke:#181818;stroke-width:1.5;" width="48" x="224.6621" y="663.5078"/><text fill="#000000" font-family="sans-serif" font-size="14" lengthAdjust="spacing" textLength="28" x="234.6621" y="688.041">&#32641;&#25276;</text><rect fill="#F1F1F1" height="37.6094" rx="12.5" ry="12.5" style="stroke:#181818;stroke-width:1.5;" width="48" x="322.6621" y="577.0938"/><text fill="#000000" font-family="sans-serif" font-size="14" lengthAdjust="spacing" textLength="28" x="332.6621" y="601.627">&#25304;&#30041;</text><rect fill="#F1F1F1" height="37.6094" rx="12.5" ry="12.5" style="stroke:#181818;stroke-width:1.5;" width="48" x="420.6621" y="577.0938"/><text fill="#000000" font-family="sans-serif" font-size="14" lengthAdjust="spacing" textLength="28" x="430.6621" y="601.627">&#26426;&#20851;</text><rect fill="#F1F1F1" height="37.6094" rx="12.5" ry="12.5" style="stroke:#181818;stroke-width:1.5;" width="48" x="518.6621" y="548.2891"/><text fill="#000000" font-family="sans-serif" font-size="14" lengthAdjust="spacing" textLength="28" x="528.6621" y="572.8223">&#20915;&#23450;</text><rect fill="#F1F1F1" height="37.6094" rx="12.5" ry="12.5" style="stroke:#181818;stroke-width:1.5;" width="63.9551" x="616.6621" y="519.4844"/><text fill="#000000" font-family="sans-serif" font-size="14" lengthAdjust="spacing" textLength="43.9551" x="626.6621" y="544.0176">&#20844; + &#26816;</text><path d="M566.6621,567.0938 L576.6621,567.0938 C591.6621,567.0938 591.6621,538.2891 606.6621,538.2891 L616.6621,538.2891 " fill="none" style="stroke:#181818;stroke-width:1;"/><rect fill="#F1F1F1" height="37.6094" rx="12.5" ry="12.5" style="stroke:#181818;stroke-width:1.5;" width="48" x="616.6621" y="577.0938"/><text fill="#000000" font-family="sans-serif" font-size="14" lengthAdjust="spacing" textLength="28" x="626.6621" y="601.627">&#32771;&#28857;</text><rect fill="#F1F1F1" height="37.6094" rx="12.5" ry="12.5" style="stroke:#181818;stroke-width:1.5;" width="76" x="714.6621" y="577.0938"/><text fill="#000000" font-family="sans-serif" font-size="14" lengthAdjust="spacing" textLength="56" x="724.6621" y="601.627">&#27809;&#26377;&#27861;&#38498;</text><path d="M664.6621,595.8984 L674.6621,595.8984 C689.6621,595.8984 689.6621,595.8984 704.6621,595.8984 L714.6621,595.8984 " fill="none" style="stroke:#181818;stroke-width:1;"/><path d="M566.6621,567.0938 L576.6621,567.0938 C591.6621,567.0938 591.6621,595.8984 606.6621,595.8984 L616.6621,595.8984 " fill="none" style="stroke:#181818;stroke-width:1;"/><path d="M468.6621,595.8984 L478.6621,595.8984 C493.6621,595.8984 493.6621,567.0938 508.6621,567.0938 L518.6621,567.0938 " fill="none" style="stroke:#181818;stroke-width:1;"/><rect fill="#F1F1F1" height="37.6094" rx="12.5" ry="12.5" style="stroke:#181818;stroke-width:1.5;" width="48" x="518.6621" y="634.7031"/><text fill="#000000" font-family="sans-serif" font-size="14" lengthAdjust="spacing" textLength="28" x="528.6621" y="659.2363">&#25191;&#34892;</text><rect fill="#F1F1F1" height="37.6094" rx="12.5" ry="12.5" style="stroke:#181818;stroke-width:1.5;" width="34" x="616.6621" y="634.7031"/><text fill="#000000" font-family="sans-serif" font-size="14" lengthAdjust="spacing" textLength="14" x="626.6621" y="659.2363">&#20844;</text><path d="M566.6621,653.5078 L576.6621,653.5078 C591.6621,653.5078 591.6621,653.5078 606.6621,653.5078 L616.6621,653.5078 " fill="none" style="stroke:#181818;stroke-width:1;"/><path d="M468.6621,595.8984 L478.6621,595.8984 C493.6621,595.8984 493.6621,653.5078 508.6621,653.5078 L518.6621,653.5078 " fill="none" style="stroke:#181818;stroke-width:1;"/><path d="M370.6621,595.8984 L380.6621,595.8984 C395.6621,595.8984 395.6621,595.8984 410.6621,595.8984 L420.6621,595.8984 " fill="none" style="stroke:#181818;stroke-width:1;"/><path d="M272.6621,682.3125 L282.6621,682.3125 C297.6621,682.3125 297.6621,595.8984 312.6621,595.8984 L322.6621,595.8984 " fill="none" style="stroke:#181818;stroke-width:1;"/><rect fill="#F1F1F1" height="37.6094" rx="12.5" ry="12.5" style="stroke:#181818;stroke-width:1.5;" width="48" x="322.6621" y="749.9219"/><text fill="#000000" font-family="sans-serif" font-size="14" lengthAdjust="spacing" textLength="28" x="332.6621" y="774.4551">&#36910;&#25429;</text><rect fill="#F1F1F1" height="37.6094" rx="12.5" ry="12.5" style="stroke:#181818;stroke-width:1.5;" width="48" x="420.6621" y="749.9219"/><text fill="#000000" font-family="sans-serif" font-size="14" lengthAdjust="spacing" textLength="28" x="430.6621" y="774.4551">&#26426;&#20851;</text><rect fill="#F1F1F1" height="37.6094" rx="12.5" ry="12.5" style="stroke:#181818;stroke-width:1.5;" width="48" x="518.6621" y="692.3125"/><text fill="#000000" font-family="sans-serif" font-size="14" lengthAdjust="spacing" textLength="28" x="528.6621" y="716.8457">&#20915;&#23450;</text><rect fill="#F1F1F1" height="37.6094" rx="12.5" ry="12.5" style="stroke:#181818;stroke-width:1.5;" width="63.9551" x="616.6621" y="692.3125"/><text fill="#000000" font-family="sans-serif" font-size="14" lengthAdjust="spacing" textLength="43.9551" x="626.6621" y="716.8457">&#26816; + &#27861;</text><path d="M566.6621,711.1172 L576.6621,711.1172 C591.6621,711.1172 591.6621,711.1172 606.6621,711.1172 L616.6621,711.1172 " fill="none" style="stroke:#181818;stroke-width:1;"/><path d="M468.6621,768.7266 L478.6621,768.7266 C493.6621,768.7266 493.6621,711.1172 508.6621,711.1172 L518.6621,711.1172 " fill="none" style="stroke:#181818;stroke-width:1;"/><rect fill="#F1F1F1" height="37.6094" rx="12.5" ry="12.5" style="stroke:#181818;stroke-width:1.5;" width="48" x="518.6621" y="749.9219"/><text fill="#000000" font-family="sans-serif" font-size="14" lengthAdjust="spacing" textLength="28" x="528.6621" y="774.4551">&#25209;&#20934;</text><rect fill="#F1F1F1" height="37.6094" rx="12.5" ry="12.5" style="stroke:#181818;stroke-width:1.5;" width="34" x="616.6621" y="749.9219"/><text fill="#000000" font-family="sans-serif" font-size="14" lengthAdjust="spacing" textLength="14" x="626.6621" y="774.4551">&#26816;</text><path d="M566.6621,768.7266 L576.6621,768.7266 C591.6621,768.7266 591.6621,768.7266 606.6621,768.7266 L616.6621,768.7266 " fill="none" style="stroke:#181818;stroke-width:1;"/><path d="M468.6621,768.7266 L478.6621,768.7266 C493.6621,768.7266 493.6621,768.7266 508.6621,768.7266 L518.6621,768.7266 " fill="none" style="stroke:#181818;stroke-width:1;"/><rect fill="#F1F1F1" height="37.6094" rx="12.5" ry="12.5" style="stroke:#181818;stroke-width:1.5;" width="48" x="518.6621" y="807.5313"/><text fill="#000000" font-family="sans-serif" font-size="14" lengthAdjust="spacing" textLength="28" x="528.6621" y="832.0645">&#25191;&#34892;</text><rect fill="#F1F1F1" height="37.6094" rx="12.5" ry="12.5" style="stroke:#181818;stroke-width:1.5;" width="34" x="616.6621" y="807.5313"/><text fill="#000000" font-family="sans-serif" font-size="14" lengthAdjust="spacing" textLength="14" x="626.6621" y="832.0645">&#20844;</text><path d="M566.6621,826.3359 L576.6621,826.3359 C591.6621,826.3359 591.6621,826.3359 606.6621,826.3359 L616.6621,826.3359 " fill="none" style="stroke:#181818;stroke-width:1;"/><path d="M468.6621,768.7266 L478.6621,768.7266 C493.6621,768.7266 493.6621,826.3359 508.6621,826.3359 L518.6621,826.3359 " fill="none" style="stroke:#181818;stroke-width:1;"/><path d="M370.6621,768.7266 L380.6621,768.7266 C395.6621,768.7266 395.6621,768.7266 410.6621,768.7266 L420.6621,768.7266 " fill="none" style="stroke:#181818;stroke-width:1;"/><path d="M272.6621,682.3125 L282.6621,682.3125 C297.6621,682.3125 297.6621,768.7266 312.6621,768.7266 L322.6621,768.7266 " fill="none" style="stroke:#181818;stroke-width:1;"/><path d="M174.6621,451.875 L184.6621,451.875 C199.6621,451.875 199.6621,682.3125 214.6621,682.3125 L224.6621,682.3125 " fill="none" style="stroke:#181818;stroke-width:1;"/><!--SRC=[xLZTQXj75BxVfvZI6pj5ya-52I8KHufD6omJAYNtezt9QkBTcMLsLa4f1QV5Jjsc3OKwr6rIwYOGACMcTGd4SPgNyQwagxv2p-nAzihnQ3TjABcm449xpZVV-PjpHgDvNs8XNSei5tk6yGvbfXDO11MBK_3sPSSXKvw3cGnSfw1W1S0LOdcHWimm99KEGU71VlZ5q-YRNwFxBmhX-bwuyqEqyIoyinvjFEbjtpMCSvaG1AzpgF_mf-vVjwCl3-BdH1PzzVtXmSz7WaJOsxrz-FpfY31HX2_N-jlFmplxtSVxMb1lzVFkPyzUKGmOxZqA7_-PMFtxu6x_kwtUxku9yz63_N1jxpJpSMGwvhNVq7ieUhIgFlSsJrcUIaR-vShb-uSl7uQhM-7EzblYQSgxxe_VzfwiXx-l7RwuzpPv1vwTijUwcrjlracDVimU79ZzOpjwi07nzRT- -My5wA_kH5zllf6enYTTzRD-uRy9mfWdC9o60sf-T5vTY2VH1yP0S8bYMs0NVG9ynQOJaFWRGXLihjY21yogSeSBv52x9PKUj9ygh8N5YY2M1ZxG3i6s88IDOuu1ANGd0zmPOhd0pDOvdIY7K2yGdgE39ieXL1zOAYZ1VHtRkukBbKgrEaHsYEFmcnfieeoXHj75b3LQn1qIBt8cw_GMGUzF6qfFNA-5VUfdvpADdjR0_PLEND8qTdPyBjFG2eZC5cowNCvGct51SjGLeINAo4dvCKLEisEf51bZt2HCwdB3ug8a9KX4JGSm9rYXUHBVJ46FgdQibjp5aYVECmdMA6VOgRukzeeW7XPOILvdsSKc5p9hs-NbaXBgBhCwBITRbRlGRbAt7GOhTNIgV8pOK54WJITptDJAggH5Y9TkY5432p15cmxrM_gHbre_QkrcYygJkT6OMUOosr8SbTd1B4TK9hQ8F3A6JPDQ-Zq_CegpcAz3A_gf_ePdazJm3H9aT3btm0N1hTGEpEYnuOhOZiTzAccRN3HJxV3AECSEoHl8SGXG2vn9xL8uGTNipxEd1iUW8lU3vWrYAdfTTd0RpcqYSlAsAOSEYgbv5hFAU-vq7q_wqSOTtwiZUpdp337WuyBKuAV8sONex49qTY4wkn3zJnUYA-hFcQkr9TGcmbTpVgOuEprRAfwVg6E9bdaRpSoXwPbogLGkpQ5glO6KUjAOg7tKG3uFu9X35Xm2WZO3DHadZSkuZT770Sn9bvIHUffer2PHVM4eH0kiJGLdBin6u_ArMW927t9PzxYCmNEbGeLAL2S2t4BNQiObSXq7ZeIb9hSeiyleQcEnSDvOWXaQO1iCtMePLHYkKdJAgBhy3m00]--></g></svg>