<svg xmlns="http://www.w3.org/2000/svg" xmlns:xlink="http://www.w3.org/1999/xlink" contentStyleType="text/css" height="762px" preserveAspectRatio="none" style="width:826px;height:762px;background:#FFFFFF;" version="1.1" viewBox="0 0 826 762" width="826px" zoomAndPan="magnify"><title>&#26410;&#25104;&#24180;&#20043;&#19968;&#33324;&#35268;&#23450;</title><defs/><g><text fill="#000000" font-family="sans-serif" font-size="14" font-weight="bold" lengthAdjust="spacing" textLength="115.5" x="353.75" y="34.5332">&#26410;&#25104;&#24180;&#20043;&#19968;&#33324;&#35268;&#23450;</text><rect fill="#F1F1F1" height="37.6094" rx="12.5" ry="12.5" style="stroke:#181818;stroke-width:1.5;" width="76" x="10" y="380.6016"/><text fill="#000000" font-family="sans-serif" font-size="14" lengthAdjust="spacing" textLength="56" x="20" y="405.1348">&#19968;&#33324;&#35268;&#23450;</text><rect fill="#F1F1F1" height="37.6094" rx="12.5" ry="12.5" style="stroke:#181818;stroke-width:1.5;" width="90" x="136" y="145.0234"/><text fill="#000000" font-family="sans-serif" font-size="14" lengthAdjust="spacing" textLength="70" x="146" y="169.5566">&#35759;&#38382;&#21644;&#35759;&#38382;</text><rect fill="#F1F1F1" height="37.6094" rx="12.5" ry="12.5" style="stroke:#181818;stroke-width:1.5;" width="48" x="276" y="87.4141"/><text fill="#000000" font-family="sans-serif" font-size="14" lengthAdjust="spacing" textLength="28" x="286" y="111.9473">&#27425;&#25968;</text><rect fill="#F1F1F1" height="37.6094" rx="12.5" ry="12.5" style="stroke:#181818;stroke-width:1.5;" width="174" x="374" y="58.6094"/><text fill="#000000" font-family="sans-serif" font-size="14" lengthAdjust="spacing" textLength="154" x="384" y="83.1426">&#26410;&#25104;&#24180;&#23244;&#30097;&#20154;&#65292;&#19981;&#38480;&#27425;&#25968;</text><path d="M324,106.2188 L334,106.2188 C349,106.2188 349,77.4141 364,77.4141 L374,77.4141 " fill="none" style="stroke:#181818;stroke-width:1;"/><rect fill="#F1F1F1" height="37.6094" rx="12.5" ry="12.5" style="stroke:#181818;stroke-width:1.5;" width="230" x="374" y="116.2188"/><text fill="#000000" font-family="sans-serif" font-size="14" lengthAdjust="spacing" textLength="210" x="384" y="140.752">&#26410;&#25104;&#24180;&#35777;&#20154;&#21644;&#34987;&#23475;&#20154;&#65292;&#19968;&#27425;&#20026;&#21407;&#21017;</text><path d="M324,106.2188 L334,106.2188 C349,106.2188 349,135.0234 364,135.0234 L374,135.0234 " fill="none" style="stroke:#181818;stroke-width:1;"/><path d="M226,163.8281 L236,163.8281 C251,163.8281 251,106.2188 266,106.2188 L276,106.2188 " fill="none" style="stroke:#181818;stroke-width:1;"/><rect fill="#F1F1F1" height="37.6094" rx="12.5" ry="12.5" style="stroke:#181818;stroke-width:1.5;" width="48" x="276" y="202.6328"/><text fill="#000000" font-family="sans-serif" font-size="14" lengthAdjust="spacing" textLength="28" x="286" y="227.166">&#24515;&#29702;</text><rect fill="#F1F1F1" height="37.6094" rx="12.5" ry="12.5" style="stroke:#181818;stroke-width:1.5;" width="76" x="374" y="173.8281"/><text fill="#000000" font-family="sans-serif" font-size="14" lengthAdjust="spacing" textLength="56" x="384" y="198.3613">&#24515;&#29702;&#30095;&#23548;</text><rect fill="#F1F1F1" height="37.6094" rx="12.5" ry="12.5" style="stroke:#181818;stroke-width:1.5;" width="314" x="500" y="173.8281"/><text fill="#000000" font-family="sans-serif" font-size="14" lengthAdjust="spacing" textLength="294" x="510" y="198.3613">&#32531;&#35299;&#24773;&#32490;&#65292;&#26410;&#25104;&#24180;&#23244;&#30097;&#20154;&#12289;&#34987;&#23475;&#20154;&#12289;&#35777;&#20154;&#37117;&#21487;&#20197;</text><path d="M450,192.6328 L460,192.6328 C475,192.6328 475,192.6328 490,192.6328 L500,192.6328 " fill="none" style="stroke:#181818;stroke-width:1;"/><path d="M324,221.4375 L334,221.4375 C349,221.4375 349,192.6328 364,192.6328 L374,192.6328 " fill="none" style="stroke:#181818;stroke-width:1;"/><rect fill="#F1F1F1" height="37.6094" rx="12.5" ry="12.5" style="stroke:#181818;stroke-width:1.5;" width="76" x="374" y="231.4375"/><text fill="#000000" font-family="sans-serif" font-size="14" lengthAdjust="spacing" textLength="56" x="384" y="255.9707">&#24515;&#29702;&#27979;&#35780;</text><rect fill="#F1F1F1" height="37.6094" rx="12.5" ry="12.5" style="stroke:#181818;stroke-width:1.5;" width="230" x="500" y="231.4375"/><text fill="#000000" font-family="sans-serif" font-size="14" lengthAdjust="spacing" textLength="210" x="510" y="255.9707">&#27979;&#35797;&#20154;&#24615;&#65292;&#21482;&#33021;&#38024;&#23545;&#26410;&#25104;&#24180;&#23244;&#30097;&#20154;</text><path d="M450,250.2422 L460,250.2422 C475,250.2422 475,250.2422 490,250.2422 L500,250.2422 " fill="none" style="stroke:#181818;stroke-width:1;"/><path d="M324,221.4375 L334,221.4375 C349,221.4375 349,250.2422 364,250.2422 L374,250.2422 " fill="none" style="stroke:#181818;stroke-width:1;"/><path d="M226,163.8281 L236,163.8281 C251,163.8281 251,221.4375 266,221.4375 L276,221.4375 " fill="none" style="stroke:#181818;stroke-width:1;"/><path d="M86,399.4063 L96,399.4063 C111,399.4063 111,163.8281 126,163.8281 L136,163.8281 " fill="none" style="stroke:#181818;stroke-width:1;"/><rect fill="#F1F1F1" height="37.6094" rx="12.5" ry="12.5" style="stroke:#181818;stroke-width:1.5;" width="90" x="136" y="380.6016"/><text fill="#000000" font-family="sans-serif" font-size="14" lengthAdjust="spacing" textLength="70" x="146" y="405.1348">&#21512;&#36866;&#25104;&#24180;&#20154;</text><rect fill="#F1F1F1" height="37.6094" rx="12.5" ry="12.5" style="stroke:#181818;stroke-width:1.5;" width="76" x="276" y="317.8516"/><text fill="#000000" font-family="sans-serif" font-size="14" lengthAdjust="spacing" textLength="56" x="286" y="342.3848">&#35841;&#26377;&#36164;&#26684;</text><rect fill="#F1F1F1" height="37.6094" rx="12.5" ry="12.5" style="stroke:#181818;stroke-width:1.5;" width="48" x="402" y="289.0469"/><text fill="#000000" font-family="sans-serif" font-size="14" lengthAdjust="spacing" textLength="28" x="412" y="313.5801">&#20146;&#23646;</text><path d="M352,336.6563 L362,336.6563 C377,336.6563 377,307.8516 392,307.8516 L402,307.8516 " fill="none" style="stroke:#181818;stroke-width:1;"/><rect fill="#F1F1F1" height="37.6094" rx="12.5" ry="12.5" style="stroke:#181818;stroke-width:1.5;" width="230" x="402" y="346.6563"/><text fill="#000000" font-family="sans-serif" font-size="14" lengthAdjust="spacing" textLength="210" x="412" y="371.1895">&#20854;&#20182;&#20195;&#34920;&#65288;&#23398;&#26657;&#32769;&#24072;&#12289;&#20445;&#25252;&#32452;&#32455;&#65289;</text><path d="M352,336.6563 L362,336.6563 C377,336.6563 377,365.4609 392,365.4609 L402,365.4609 " fill="none" style="stroke:#181818;stroke-width:1;"/><path d="M226,399.4063 L236,399.4063 C251,399.4063 251,336.6563 266,336.6563 L276,336.6563 " fill="none" style="stroke:#181818;stroke-width:1;"/><rect fill="#F1F1F1" height="37.6094" rx="12.5" ry="12.5" style="stroke:#181818;stroke-width:1.5;" width="48" x="276" y="438.2109"/><text fill="#000000" font-family="sans-serif" font-size="14" lengthAdjust="spacing" textLength="28" x="286" y="462.7441">&#26435;&#21033;</text><rect fill="#F1F1F1" height="42.75" rx="12.5" ry="12.5" style="stroke:#181818;stroke-width:1.5;" width="254.8896" x="374" y="404.2656"/><text fill="#000000" font-family="sans-serif" font-size="14" lengthAdjust="spacing" textLength="210" x="384" y="433.9395">&#21512;&#36866;&#25104;&#24180;&#20154;&#20195;&#27861;&#20195;&#65292;&#27861;&#20195;&#20195;&#26410;&#25104;&#24180;</text><path d="M617.9907,415.0677 C617.1793,414.5415 616.0961,414.7725 615.5705,415.5834 L605.7646,430.6981 L600.9825,426.2765 C600.2726,425.6202 599.166,425.6634 598.5097,426.3733 C597.8535,427.0826 597.8966,428.1904 598.6066,428.846 L604.8856,434.6514 C605.0658,434.8065 605.0658,434.8065 605.1492,434.8608 C605.4432,435.0521 605.7734,435.1431 606.1001,435.1431 C606.6729,435.1431 607.2346,434.862 607.5701,434.3451 L618.5064,417.488 C619.0326,416.6771 618.8016,415.5933 617.9907,415.0677 " fill="#5FED5F" style="stroke:;stroke-width:0;stroke-dasharray:;"/><path d="M324,457.0156 L334,457.0156 C349,457.0156 349,425.6406 364,425.6406 L374,425.6406 " fill="none" style="stroke:#181818;stroke-width:1;"/><rect fill="#F1F1F1" height="42.75" rx="12.5" ry="12.5" style="stroke:#181818;stroke-width:1.5;" width="226.8896" x="374" y="467.0156"/><text fill="#000000" font-family="sans-serif" font-size="14" lengthAdjust="spacing" textLength="182" x="384" y="496.6895">&#21512;&#36866;&#25104;&#24180;&#20154;&#19981;&#33021;&#30452;&#25509;&#20195;&#26410;&#25104;&#24180;</text><path d="M582.4506,487.5168 L589.5876,480.3803 C590.157,479.811 590.157,478.8875 589.5876,478.3182 C589.0177,477.7483 588.0949,477.7483 587.5256,478.3182 L580.3885,485.4547 L573.252,478.3182 C572.6826,477.7483 571.7586,477.7483 571.1899,478.3182 C570.62,478.8875 570.62,479.811 571.1899,480.3803 L578.3264,487.5168 L571.1736,494.6702 C570.6036,495.2401 570.6036,496.163 571.1736,496.7323 C571.4582,497.017 571.8316,497.1593 572.2049,497.1593 C572.5782,497.1593 572.9516,497.017 573.2362,496.7323 L580.3891,489.5789 L587.5256,496.7154 C587.8102,497 588.1836,497.1424 588.5569,497.1424 C588.9302,497.1424 589.303,497 589.5882,496.7154 C590.1576,496.1455 590.1576,495.2226 589.5882,494.6533 L582.4506,487.5168 " fill="#FE0000" style="stroke:;stroke-width:0;stroke-dasharray:;"/><path d="M324,457.0156 L334,457.0156 C349,457.0156 349,488.3906 364,488.3906 L374,488.3906 " fill="none" style="stroke:#181818;stroke-width:1;"/><path d="M226,399.4063 L236,399.4063 C251,399.4063 251,457.0156 266,457.0156 L276,457.0156 " fill="none" style="stroke:#181818;stroke-width:1;"/><path d="M86,399.4063 L96,399.4063 C111,399.4063 111,399.4063 126,399.4063 L136,399.4063 " fill="none" style="stroke:#181818;stroke-width:1;"/><rect fill="#F1F1F1" height="37.6094" rx="12.5" ry="12.5" style="stroke:#181818;stroke-width:1.5;" width="76" x="136" y="616.1797"/><text fill="#000000" font-family="sans-serif" font-size="14" lengthAdjust="spacing" textLength="56" x="146" y="640.7129">&#23569;&#24180;&#27861;&#24237;</text><rect fill="#F1F1F1" height="37.6094" rx="12.5" ry="12.5" style="stroke:#181818;stroke-width:1.5;" width="48" x="262" y="529.7656"/><text fill="#000000" font-family="sans-serif" font-size="14" lengthAdjust="spacing" textLength="28" x="272" y="554.2988">&#24212;&#24403;</text><rect fill="#F1F1F1" height="37.6094" rx="12.5" ry="12.5" style="stroke:#181818;stroke-width:1.5;" width="55.8066" x="360" y="529.7656"/><text fill="#000000" font-family="sans-serif" font-size="14" lengthAdjust="spacing" textLength="35.8066" x="370" y="554.2988">18-20</text><path d="M310,548.5703 L320,548.5703 C335,548.5703 335,548.5703 350,548.5703 L360,548.5703 " fill="none" style="stroke:#181818;stroke-width:1;"/><path d="M212,634.9844 L222,634.9844 C237,634.9844 237,548.5703 252,548.5703 L262,548.5703 " fill="none" style="stroke:#181818;stroke-width:1;"/><rect fill="#F1F1F1" height="37.6094" rx="12.5" ry="12.5" style="stroke:#181818;stroke-width:1.5;" width="48" x="262" y="616.1797"/><text fill="#000000" font-family="sans-serif" font-size="14" lengthAdjust="spacing" textLength="28" x="272" y="640.7129">&#21487;&#20197;</text><rect fill="#F1F1F1" height="37.6094" rx="12.5" ry="12.5" style="stroke:#181818;stroke-width:1.5;" width="118" x="360" y="587.375"/><text fill="#000000" font-family="sans-serif" font-size="14" lengthAdjust="spacing" textLength="98" x="370" y="611.9082">&#20108;&#21313;&#20108;&#23681;&#22312;&#26657;&#29983;</text><path d="M310,634.9844 L320,634.9844 C335,634.9844 335,606.1797 350,606.1797 L360,606.1797 " fill="none" style="stroke:#181818;stroke-width:1;"/><rect fill="#F1F1F1" height="37.6094" rx="12.5" ry="12.5" style="stroke:#181818;stroke-width:1.5;" width="118" x="360" y="644.9844"/><text fill="#000000" font-family="sans-serif" font-size="14" lengthAdjust="spacing" textLength="98" x="370" y="669.5176">&#24615;&#34384;&#36951;&#24323;&#26410;&#25104;&#24180;</text><path d="M310,634.9844 L320,634.9844 C335,634.9844 335,663.7891 350,663.7891 L360,663.7891 " fill="none" style="stroke:#181818;stroke-width:1;"/><path d="M212,634.9844 L222,634.9844 C237,634.9844 237,634.9844 252,634.9844 L262,634.9844 " fill="none" style="stroke:#181818;stroke-width:1;"/><rect fill="#F1F1F1" height="37.6094" rx="12.5" ry="12.5" style="stroke:#181818;stroke-width:1.5;" width="48" x="262" y="702.5938"/><text fill="#000000" font-family="sans-serif" font-size="14" lengthAdjust="spacing" textLength="28" x="272" y="727.127">&#37196;&#24773;</text><rect fill="#F1F1F1" height="37.6094" rx="12.5" ry="12.5" style="stroke:#181818;stroke-width:1.5;" width="272" x="360" y="702.5938"/><text fill="#000000" font-family="sans-serif" font-size="14" lengthAdjust="spacing" textLength="252" x="370" y="727.127">&#20849;&#21516;&#29359;&#32618;&#65288;&#26377;&#22823;&#20154;&#65292;&#26377;&#23567;&#23401;&#65289;&#65292;&#38498;&#38271;&#20915;&#23450;</text><path d="M310,721.3984 L320,721.3984 C335,721.3984 335,721.3984 350,721.3984 L360,721.3984 " fill="none" style="stroke:#181818;stroke-width:1;"/><path d="M212,634.9844 L222,634.9844 C237,634.9844 237,721.3984 252,721.3984 L262,721.3984 " fill="none" style="stroke:#181818;stroke-width:1;"/><path d="M86,399.4063 L96,399.4063 C111,399.4063 111,634.9844 126,634.9844 L136,634.9844 " fill="none" style="stroke:#181818;stroke-width:1;"/><!--SRC=[xLXRJnj757xVNp5LNY2IZQ488Gj510VKHZ6AQfBNQBoUs1jsTwpTiLEdgcGNI9q40hb0H4kQa4j9IC0a91KO8tvCFMlxYR_Gixish0thTHuhWT1gzfnlldFct8PbM6TOOuganXIS58Jl95MKKp62_FuU-DLPHYOzIHchBAN8FXFc0vpFaliba0a2avXCaB6oRkGN-EwNykw3yawsclzONPlccty8mddKz8xWvpogRXPgppRvurbxOKbjZV5nrLZSEXBKXGrs_c6silIeN2mUbcRBEtErvONs-6eX1s3JpgiFV7ExiJ4BkyexHVxm1SylEuppWwdAmjqMCbjOMPhdXLAJobPNIa-gQw-DgPdAtZgGdtJrtspkoBgvjbogJUtp-K9vx-sfneol3wg5wLECMOf5s6zary0Odr-lJktN7kTvOVUauNgi-KA-blsjdfswj9w5hPonSg_wTTfuMMhnerpyp3_zrUhSp3_blQNotklgwhl3Kfvl_6syNArcStmd3mSh7pmtxh-fx4rNzdu_BDrpvlJv5C-_RoLhTWjOZUr5U9enj1Qcf74cD7Hk830wEX089WXEPsw82I9Etb2mDXcyuC6xCmSXglpvnNZujeLH8x7Wp_Nzi6_h4OZ1D2zkE4kY-9JlFscnqJlewmiuGQUbiboSvNCvy_avnrVUGQWgJr-q5cfshRgyKCizuwMf8zSSnBMPMQYi4sdun1TcA_SBbNsek3oaaBzPiqlRN6_Dyutta01uhIs_gYqUyBlRLYSE4-ZoHgSFDpV-aDNI5uIwu9A4unfMq2zWsX-LKyHQ8JI2nScuHbDgB4HbgY5PYYUOgGVjhoOs1Yc1kBh0wze6EAuHehPZjW0ETCO3d6bWgORLk9lJjh81JQQqfEm6jPKDgFl178VIgEx6TcviR6Ga56eWCqIMwMqNhAsqe89VmP8waI1AWtYCgYmYtI7e-u1WwecIJ61TqhrZwKG7NE3wPCPAgHFRrpwMJkW8YCG4r6b7paXnbMgaWxmYT4LIIQlycA93issfJ39LfI9HcLjiL2ifTWfiKLG6J0ihD8_jcwX9HraxLZEgO4PjvrK6rYIgOZdqhTYh6abY3PkIRzbsCKervbLsdN8n1dbdNftM8Lk8Aj1kpAqSwZlTwCpqgIGE6GLIPp3RJIslJCO8IJeRejd0A4pHg2pf2VUHvzZVRErsGcAjiN4nCqwPjoNhL686gnsSIiGnmewCOL6KOkurtpIAlPXlGYlgZlw6Tv64yIsIykXoAeCB6eqvAj2ZnnexB3j9gajCIfEBegCTJenpB9DE3t9y1CW5zgHM9BX1pTdVIKtLhq6JN4z5Rn7Hf7UB3ax3lKsq3ddJ4eKEigYf5xCPzux3VJpfcnktVQysrRBd7IB0OwYd_gV8sPV5sPV5sPV5_-_Bughvxu9huIieJJJT79Yz_hv0Nxz_i2k26HgdQTGxW0AzmVx-OFy02aKcaAdk5hh2FquWdQRWla0ncAQQ54sP8wPRk8pJ6FsKWe6Za20otxecmjqeCjeGeb4rBMbKLM3829UlXsqG-e6oI98o2ppGxnkH68eG3Tn2ryF29N8JfsG6MqKQazHu45sR6FCD2bTW6ALm70pTIGWXc59ComHHQFm_]--></g></svg>