<svg xmlns="http://www.w3.org/2000/svg" xmlns:xlink="http://www.w3.org/1999/xlink" contentStyleType="text/css" height="406px" preserveAspectRatio="none" style="width:710px;height:406px;background:#FFFFFF;" version="1.1" viewBox="0 0 710 406" width="710px" zoomAndPan="magnify"><title>&#27515;&#32531;&#21464;&#26356;</title><defs/><g><text fill="#000000" font-family="sans-serif" font-size="14" font-weight="bold" lengthAdjust="spacing" textLength="57.75" x="325.0698" y="34.5332">&#27515;&#32531;&#21464;&#26356;</text><rect fill="#F1F1F1" height="37.6094" rx="12.5" ry="12.5" style="stroke:#181818;stroke-width:1.5;" width="76" x="10" y="202.6328"/><text fill="#000000" font-family="sans-serif" font-size="14" lengthAdjust="spacing" textLength="56" x="20" y="227.166">&#27515;&#32531;&#21464;&#26356;</text><rect fill="#F1F1F1" height="37.6094" rx="12.5" ry="12.5" style="stroke:#181818;stroke-width:1.5;" width="48" x="136" y="202.6328"/><text fill="#000000" font-family="sans-serif" font-size="14" lengthAdjust="spacing" textLength="28" x="146" y="227.166">&#29359;&#32618;</text><rect fill="#F1F1F1" height="37.6094" rx="12.5" ry="12.5" style="stroke:#181818;stroke-width:1.5;" width="104" x="234" y="58.6094"/><text fill="#000000" font-family="sans-serif" font-size="14" lengthAdjust="spacing" textLength="84" x="244" y="83.1426">&#27809;&#26377;&#25925;&#24847;&#29359;&#32618;</text><rect fill="#F1F1F1" height="37.6094" rx="12.5" ry="12.5" style="stroke:#181818;stroke-width:1.5;" width="76" x="388" y="58.6094"/><text fill="#000000" font-family="sans-serif" font-size="14" lengthAdjust="spacing" textLength="56" x="398" y="83.1426">&#24212;&#24403;&#20943;&#21009;</text><path d="M338,77.4141 L348,77.4141 C363,77.4141 363,77.4141 378,77.4141 L388,77.4141 " fill="none" style="stroke:#181818;stroke-width:1;"/><path d="M184,221.4375 L194,221.4375 C209,221.4375 209,77.4141 224,77.4141 L234,77.4141 " fill="none" style="stroke:#181818;stroke-width:1;"/><rect fill="#F1F1F1" height="37.6094" rx="12.5" ry="12.5" style="stroke:#181818;stroke-width:1.5;" width="76" x="234" y="231.4375"/><text fill="#000000" font-family="sans-serif" font-size="14" lengthAdjust="spacing" textLength="56" x="244" y="255.9707">&#25925;&#24847;&#29359;&#32618;</text><rect fill="#F1F1F1" height="37.6094" rx="12.5" ry="12.5" style="stroke:#181818;stroke-width:1.5;" width="90" x="360" y="173.8281"/><text fill="#000000" font-family="sans-serif" font-size="14" lengthAdjust="spacing" textLength="70" x="370" y="198.3613">&#24773;&#33410;&#19981;&#24694;&#21155;</text><rect fill="#F1F1F1" height="37.6094" rx="12.5" ry="12.5" style="stroke:#181818;stroke-width:1.5;" width="132" x="500" y="116.2188"/><text fill="#000000" font-family="sans-serif" font-size="14" lengthAdjust="spacing" textLength="112" x="510" y="140.752">&#27515;&#32531;&#25191;&#34892;&#26399;&#38388;&#37325;&#31639;</text><path d="M450,192.6328 L460,192.6328 C475,192.6328 475,135.0234 490,135.0234 L500,135.0234 " fill="none" style="stroke:#181818;stroke-width:1;"/><rect fill="#F1F1F1" height="37.6094" rx="12.5" ry="12.5" style="stroke:#181818;stroke-width:1.5;" width="62" x="500" y="202.6328"/><text fill="#000000" font-family="sans-serif" font-size="14" lengthAdjust="spacing" textLength="42" x="510" y="227.166">&#26368;&#39640;&#38498;</text><rect fill="#F1F1F1" height="37.6094" rx="12.5" ry="12.5" style="stroke:#181818;stroke-width:1.5;" width="86.8896" x="612" y="173.8281"/><text fill="#000000" font-family="sans-serif" font-size="14" lengthAdjust="spacing" textLength="66.8896" x="622" y="198.3613">&#22791;&#26696;&#65288;O&#65289;</text><path d="M562,221.4375 L572,221.4375 C587,221.4375 587,192.6328 602,192.6328 L612,192.6328 " fill="none" style="stroke:#181818;stroke-width:1;"/><rect fill="#F1F1F1" height="37.6094" rx="12.5" ry="12.5" style="stroke:#181818;stroke-width:1.5;" width="85.3379" x="612" y="231.4375"/><text fill="#000000" font-family="sans-serif" font-size="14" lengthAdjust="spacing" textLength="65.3379" x="622" y="255.9707">&#26680;&#20934;&#65288;X&#65289;</text><path d="M562,221.4375 L572,221.4375 C587,221.4375 587,250.2422 602,250.2422 L612,250.2422 " fill="none" style="stroke:#181818;stroke-width:1;"/><path d="M450,192.6328 L460,192.6328 C475,192.6328 475,221.4375 490,221.4375 L500,221.4375 " fill="none" style="stroke:#181818;stroke-width:1;"/><path d="M310,250.2422 L320,250.2422 C335,250.2422 335,192.6328 350,192.6328 L360,192.6328 " fill="none" style="stroke:#181818;stroke-width:1;"/><rect fill="#F1F1F1" height="37.6094" rx="12.5" ry="12.5" style="stroke:#181818;stroke-width:1.5;" width="76" x="360" y="317.8516"/><text fill="#000000" font-family="sans-serif" font-size="14" lengthAdjust="spacing" textLength="56" x="370" y="342.3848">&#24773;&#33410;&#24694;&#21155;</text><rect fill="#F1F1F1" height="37.6094" rx="12.5" ry="12.5" style="stroke:#181818;stroke-width:1.5;" width="76" x="486" y="289.0469"/><text fill="#000000" font-family="sans-serif" font-size="14" lengthAdjust="spacing" textLength="56" x="496" y="313.5801">&#25191;&#34892;&#27515;&#21009;</text><path d="M436,336.6563 L446,336.6563 C461,336.6563 461,307.8516 476,307.8516 L486,307.8516 " fill="none" style="stroke:#181818;stroke-width:1;"/><rect fill="#F1F1F1" height="37.6094" rx="12.5" ry="12.5" style="stroke:#181818;stroke-width:1.5;" width="62" x="486" y="346.6563"/><text fill="#000000" font-family="sans-serif" font-size="14" lengthAdjust="spacing" textLength="42" x="496" y="371.1895">&#26368;&#39640;&#38498;</text><rect fill="#F1F1F1" height="37.6094" rx="12.5" ry="12.5" style="stroke:#181818;stroke-width:1.5;" width="86.8896" x="598" y="346.6563"/><text fill="#000000" font-family="sans-serif" font-size="14" lengthAdjust="spacing" textLength="66.8896" x="608" y="371.1895">&#26680;&#20934;&#65288;O&#65289;</text><path d="M548,365.4609 L558,365.4609 C573,365.4609 573,365.4609 588,365.4609 L598,365.4609 " fill="none" style="stroke:#181818;stroke-width:1;"/><path d="M436,336.6563 L446,336.6563 C461,336.6563 461,365.4609 476,365.4609 L486,365.4609 " fill="none" style="stroke:#181818;stroke-width:1;"/><path d="M310,250.2422 L320,250.2422 C335,250.2422 335,336.6563 350,336.6563 L360,336.6563 " fill="none" style="stroke:#181818;stroke-width:1;"/><path d="M184,221.4375 L194,221.4375 C209,221.4375 209,250.2422 224,250.2422 L234,250.2422 " fill="none" style="stroke:#181818;stroke-width:1;"/><path d="M86,221.4375 L96,221.4375 C111,221.4375 111,221.4375 126,221.4375 L136,221.4375 " fill="none" style="stroke:#181818;stroke-width:1;"/><!--SRC=[xLTRQnD157xVNp7YIoialHYAX28riKMbgM9IyNMoEsx6piuiixEHA8BtNb2AgAXOqAeWA2g8Y6ZzDsPhd_mBdjtDjflePDT7mH32pZdVVEVCkSrcnbDOAeTooy6kOUoZt6I-HL2nE0PVJtKO6NCPviftM2645G1NYEH52ZB3K5GnWeAtNxUtxdNN7mLFFXh6WVurWiy1jBtsVllRwsWH2u8Fcy76Ql3WPd1ZVK0P0xfVxdU_tUikhtTNxgRtwNS4rs_-MBls_VETuEgdxjgBFcqF4JaMhBxwiNaxs7Ywy_3ZplATxNSF_mJTkBBpvj7Eu-U_wNhklLmEDbT-RgsS_Bcrgi44ppvtbsy1vkmW9d5MxsdiuzklwTFdzsxNSkJT384C9rcUwK_wT9JEmqPFS9HYMs87NGBYOfFv97f2g8BD9LiAdrjLmOH4ZDej5Uf1Upd4MbWkIM9fu3rj0hOb8NmOSmH8eJiPu4w25H9pM-Tqh4oWhYzTfeF6oWIgFrZgK59uEhRzStELIhMQ83k4CN51WusL4TGeEfZoHeiu2V6SuAfEBn9qSDm8zSHnMzYZNdOiq-Xn3TnRwaGfJMCdXySo3Qs0o6n1zULoXjfSI98ZhmZDKqu6vNiKESqEfGh9E1ScuKeN6nub9Kv1B6eom0omGlF4lfcIxcPjJws4WvM8dUSAh571CQl-BVQK92wME9JypROZJI5LLjdbvL8AygwoEYqdMrKuq6vALmwzdJgwC7sSs91H84q7SzZKoigaHOYRReX-0xCmHPkCUYtzo4ljxxTseKNLO6mqPXQ4ohOKdShiO9xZL2QsYDerXasJMlgQxnl5MSpde1MzL7_3sYGrV9xu6Lqk6BWWXPMgm8mUItP4TbpXKKNRv8YPQeVVnZbc9Ez1zeu0kS2Pr0w56pIS_NbggdSDXkIUtpnFp91U5ntSXdkRo9oyRIgWWo9gaSKSnZrtkFScVN_Z3k_LlbhEl4CC-9aUwxsA_7-h_FVUAa-5VnCMQ_EeJQGNDij4SN9yibGyD5B72Ys8DfgOGkCJvLAfN9f2rNe3XUfHOwHsl84yuSEiG1PqagHDFoolKUC4RcDqseTYSqWPXQkHHcqKrMSJ8PhbRIe5Tw30Z1DdQZ487HEgxWeLWQTAXGfLg4uak8NEr8oZv1pscOAjfh0ejyjeiJ5NE6JCGo7ws0P35rj65IfKoKuPLHT-0G00]--></g></svg>