<svg xmlns="http://www.w3.org/2000/svg" xmlns:xlink="http://www.w3.org/1999/xlink" contentStyleType="text/css" height="671px" preserveAspectRatio="none" style="width:956px;height:671px;background:#FFFFFF;" version="1.1" viewBox="0 0 956 671" width="956px" zoomAndPan="magnify"><title>&#29983;&#25928;&#20043;&#26085;</title><defs/><g><text fill="#000000" font-family="sans-serif" font-size="14" font-weight="bold" lengthAdjust="spacing" textLength="57.75" x="447.9731" y="34.5332">&#29983;&#25928;&#20043;&#26085;</text><rect fill="#F1F1F1" height="37.6094" rx="12.5" ry="12.5" style="stroke:#181818;stroke-width:1.5;" width="76" x="10" y="335.4609"/><text fill="#000000" font-family="sans-serif" font-size="14" lengthAdjust="spacing" textLength="56" x="20" y="359.9941">&#29983;&#25928;&#20043;&#26085;</text><rect fill="#F1F1F1" height="37.6094" rx="12.5" ry="12.5" style="stroke:#181818;stroke-width:1.5;" width="76" x="136" y="96.2188"/><text fill="#000000" font-family="sans-serif" font-size="14" lengthAdjust="spacing" textLength="56" x="146" y="120.752">&#20390;&#26597;&#38454;&#27573;</text><path d="M86,354.2656 L96,354.2656 C111,354.2656 111,115.0234 126,115.0234 L136,115.0234 " fill="none" style="stroke:#181818;stroke-width:1;"/><rect fill="#F1F1F1" height="37.6094" rx="12.5" ry="12.5" style="stroke:#181818;stroke-width:1.5;" width="76" x="136" y="153.8281"/><text fill="#000000" font-family="sans-serif" font-size="14" lengthAdjust="spacing" textLength="56" x="146" y="178.3613">&#36215;&#35785;&#38454;&#27573;</text><rect fill="#F1F1F1" height="37.6094" rx="12.5" ry="12.5" style="stroke:#181818;stroke-width:1.5;" width="62" x="262" y="153.8281"/><text fill="#000000" font-family="sans-serif" font-size="14" lengthAdjust="spacing" textLength="42" x="272" y="178.3613">&#19981;&#36215;&#35785;</text><rect fill="#F1F1F1" height="37.6094" rx="12.5" ry="12.5" style="stroke:#181818;stroke-width:1.5;" width="76" x="374" y="116.2188"/><text fill="#000000" font-family="sans-serif" font-size="14" lengthAdjust="spacing" textLength="56" x="384" y="140.752">&#23459;&#21578;&#29983;&#25928;</text><rect fill="#F1F1F1" height="37.6094" rx="12.5" ry="12.5" style="stroke:#181818;stroke-width:1.5;" width="150.6963" x="500" y="116.2188"/><text fill="#000000" font-family="sans-serif" font-size="14" lengthAdjust="spacing" textLength="130.6963" x="510" y="140.752">&#27491;&#23447;&#19981;&#36215;&#35785;&#65288;P204&#65289;</text><rect fill="#F1F1F1" height="37.6094" rx="12.5" ry="12.5" style="stroke:#181818;stroke-width:1.5;" width="90" x="700.6963" y="58.6094"/><text fill="#000000" font-family="sans-serif" font-size="14" lengthAdjust="spacing" textLength="70" x="710.6963" y="83.1426">&#27861;&#23450;&#19981;&#36215;&#35785;</text><path d="M650.6963,135.0234 L660.6963,135.0234 C675.6963,135.0234 675.6963,77.4141 690.6963,77.4141 L700.6963,77.4141 " fill="none" style="stroke:#181818;stroke-width:1;"/><rect fill="#F1F1F1" height="37.6094" rx="12.5" ry="12.5" style="stroke:#181818;stroke-width:1.5;" width="90" x="700.6963" y="116.2188"/><text fill="#000000" font-family="sans-serif" font-size="14" lengthAdjust="spacing" textLength="70" x="710.6963" y="140.752">&#37196;&#23450;&#19981;&#36215;&#35785;</text><path d="M650.6963,135.0234 L660.6963,135.0234 C675.6963,135.0234 675.6963,135.0234 690.6963,135.0234 L700.6963,135.0234 " fill="none" style="stroke:#181818;stroke-width:1;"/><rect fill="#F1F1F1" height="37.6094" rx="12.5" ry="12.5" style="stroke:#181818;stroke-width:1.5;" width="90" x="700.6963" y="173.8281"/><text fill="#000000" font-family="sans-serif" font-size="14" lengthAdjust="spacing" textLength="70" x="710.6963" y="198.3613">&#23384;&#30097;&#19981;&#36215;&#35785;</text><path d="M650.6963,135.0234 L660.6963,135.0234 C675.6963,135.0234 675.6963,192.6328 690.6963,192.6328 L700.6963,192.6328 " fill="none" style="stroke:#181818;stroke-width:1;"/><path d="M450,135.0234 L460,135.0234 C475,135.0234 475,135.0234 490,135.0234 L500,135.0234 " fill="none" style="stroke:#181818;stroke-width:1;"/><path d="M324,172.6328 L334,172.6328 C349,172.6328 349,135.0234 364,135.0234 L374,135.0234 " fill="none" style="stroke:#181818;stroke-width:1;"/><rect fill="#F1F1F1" height="37.6094" rx="12.5" ry="12.5" style="stroke:#181818;stroke-width:1.5;" width="76" x="374" y="240.2422"/><text fill="#000000" font-family="sans-serif" font-size="14" lengthAdjust="spacing" textLength="56" x="384" y="264.7754">&#20316;&#20986;&#20043;&#26085;</text><rect fill="#F1F1F1" height="37.6094" rx="12.5" ry="12.5" style="stroke:#181818;stroke-width:1.5;" width="211.3584" x="500" y="240.2422"/><text fill="#000000" font-family="sans-serif" font-size="14" lengthAdjust="spacing" textLength="191.3584" x="510" y="264.7754">&#26410;&#25104;&#24180;-&#38468;&#26465;&#20214;&#19981;&#36215;&#35785;&#65288;P330&#65289;</text><rect fill="#F1F1F1" height="55.2188" rx="12.5" ry="12.5" style="stroke:#181818;stroke-width:1.5;" width="174" x="761.3584" y="231.4375"/><text fill="#000000" font-family="sans-serif" font-size="14" lengthAdjust="spacing" textLength="140" x="771.3584" y="255.9707">&#20174;&#20316;&#20986;&#12302;&#20915;&#23450;&#12303;&#36825;&#19968;&#22825;</text><text fill="#000000" font-family="sans-serif" font-size="14" lengthAdjust="spacing" textLength="154" x="771.3584" y="273.5801">&#12302;&#24320;&#22987;&#12303;&#35745;&#31639;&#12302;&#32771;&#39564;&#26399;&#12303;</text><path d="M711.3584,259.0469 L721.3584,259.0469 C736.3584,259.0469 736.3584,259.0469 751.3584,259.0469 L761.3584,259.0469 " fill="none" style="stroke:#181818;stroke-width:1;"/><path d="M450,259.0469 L460,259.0469 C475,259.0469 475,259.0469 490,259.0469 L500,259.0469 " fill="none" style="stroke:#181818;stroke-width:1;"/><path d="M324,172.6328 L334,172.6328 C349,172.6328 349,259.0469 364,259.0469 L374,259.0469 " fill="none" style="stroke:#181818;stroke-width:1;"/><path d="M212,172.6328 L222,172.6328 C237,172.6328 237,172.6328 252,172.6328 L262,172.6328 " fill="none" style="stroke:#181818;stroke-width:1;"/><path d="M86,354.2656 L96,354.2656 C111,354.2656 111,172.6328 126,172.6328 L136,172.6328 " fill="none" style="stroke:#181818;stroke-width:1;"/><rect fill="#F1F1F1" height="37.6094" rx="12.5" ry="12.5" style="stroke:#181818;stroke-width:1.5;" width="76" x="136" y="459.4844"/><text fill="#000000" font-family="sans-serif" font-size="14" lengthAdjust="spacing" textLength="56" x="146" y="484.0176">&#23457;&#21028;&#38454;&#27573;</text><rect fill="#F1F1F1" height="37.6094" rx="12.5" ry="12.5" style="stroke:#181818;stroke-width:1.5;" width="62" x="262" y="344.2656"/><text fill="#000000" font-family="sans-serif" font-size="14" lengthAdjust="spacing" textLength="42" x="272" y="368.7988">&#31532;&#19968;&#23457;</text><rect fill="#F1F1F1" height="37.6094" rx="12.5" ry="12.5" style="stroke:#181818;stroke-width:1.5;" width="132" x="374" y="344.2656"/><text fill="#000000" font-family="sans-serif" font-size="14" lengthAdjust="spacing" textLength="112" x="384" y="368.7988">&#31532;&#19968;&#23457;&#35009;&#23450;&#12289;&#21028;&#20915;</text><rect fill="#F1F1F1" height="37.6094" rx="12.5" ry="12.5" style="stroke:#181818;stroke-width:1.5;" width="104" x="556" y="306.6563"/><text fill="#000000" font-family="sans-serif" font-size="14" lengthAdjust="spacing" textLength="84" x="566" y="331.1895">&#26080;&#19978;&#35785;&#12289;&#25239;&#35785;</text><rect fill="#F1F1F1" height="37.6094" rx="12.5" ry="12.5" style="stroke:#181818;stroke-width:1.5;" width="188" x="710" y="306.6563"/><text fill="#000000" font-family="sans-serif" font-size="14" lengthAdjust="spacing" textLength="168" x="720" y="331.1895">&#22312;&#19978;&#35785;&#12289;&#25239;&#35785;&#26399;&#28385;&#20043;&#26085;&#29983;&#25928;</text><path d="M660,325.4609 L670,325.4609 C685,325.4609 685,325.4609 700,325.4609 L710,325.4609 " fill="none" style="stroke:#181818;stroke-width:1;"/><path d="M506,363.0703 L516,363.0703 C531,363.0703 531,325.4609 546,325.4609 L556,325.4609 " fill="none" style="stroke:#181818;stroke-width:1;"/><rect fill="#F1F1F1" height="37.6094" rx="12.5" ry="12.5" style="stroke:#181818;stroke-width:1.5;" width="160" x="556" y="373.0703"/><text fill="#000000" font-family="sans-serif" font-size="14" lengthAdjust="spacing" textLength="140" x="566" y="397.6035">&#26377;&#19978;&#35785;&#12289;&#25239;&#35785;&#65292;&#20294;&#25764;&#22238;</text><rect fill="#F1F1F1" height="55.2188" rx="12.5" ry="12.5" style="stroke:#181818;stroke-width:1.5;" width="178.6963" x="766" y="364.2656"/><text fill="#000000" font-family="sans-serif" font-size="14" lengthAdjust="spacing" textLength="154" x="776" y="388.7988">&#31532;&#20108;&#23457;&#27861;&#38498;&#20934;&#35768;&#30003;&#35831;&#25764;&#22238;</text><text fill="#000000" font-family="sans-serif" font-size="14" lengthAdjust="spacing" textLength="158.6963" x="776" y="406.4082">&#35009;&#23450;&#20070;&#36865;&#36798;&#20043;&#26085;&#65288;P263&#65289;</text><path d="M716,391.875 L726,391.875 C741,391.875 741,391.875 756,391.875 L766,391.875 " fill="none" style="stroke:#181818;stroke-width:1;"/><path d="M506,363.0703 L516,363.0703 C531,363.0703 531,391.875 546,391.875 L556,391.875 " fill="none" style="stroke:#181818;stroke-width:1;"/><path d="M324,363.0703 L334,363.0703 C349,363.0703 349,363.0703 364,363.0703 L374,363.0703 " fill="none" style="stroke:#181818;stroke-width:1;"/><path d="M212,478.2891 L222,478.2891 C237,478.2891 237,363.0703 252,363.0703 L262,363.0703 " fill="none" style="stroke:#181818;stroke-width:1;"/><rect fill="#F1F1F1" height="37.6094" rx="12.5" ry="12.5" style="stroke:#181818;stroke-width:1.5;" width="107.8896" x="262" y="439.4844"/><text fill="#000000" font-family="sans-serif" font-size="14" lengthAdjust="spacing" textLength="87.8896" x="272" y="464.0176">&#19978;&#35785;&#26399;/&#25239;&#35785;&#26399;</text><path d="M212,478.2891 L222,478.2891 C237,478.2891 237,458.2891 252,458.2891 L262,458.2891 " fill="none" style="stroke:#181818;stroke-width:1;"/><rect fill="#F1F1F1" height="37.6094" rx="12.5" ry="12.5" style="stroke:#181818;stroke-width:1.5;" width="62" x="262" y="497.0938"/><text fill="#000000" font-family="sans-serif" font-size="14" lengthAdjust="spacing" textLength="42" x="272" y="521.627">&#31532;&#20108;&#23457;</text><rect fill="#F1F1F1" height="37.6094" rx="12.5" ry="12.5" style="stroke:#181818;stroke-width:1.5;" width="248.6963" x="374" y="497.0938"/><text fill="#000000" font-family="sans-serif" font-size="14" lengthAdjust="spacing" textLength="228.6963" x="384" y="521.627">&#31532;&#20108;&#23457;&#65288;&#32456;&#23457;&#65289;&#35009;&#23450;&#12289;&#21028;&#20915;&#65288;P275&#65289;</text><rect fill="#F1F1F1" height="37.6094" rx="12.5" ry="12.5" style="stroke:#181818;stroke-width:1.5;" width="76" x="672.6963" y="497.0938"/><text fill="#000000" font-family="sans-serif" font-size="14" lengthAdjust="spacing" textLength="56" x="682.6963" y="521.627">&#23459;&#24067;&#20043;&#26085;</text><path d="M622.6963,515.8984 L632.6963,515.8984 C647.6963,515.8984 647.6963,515.8984 662.6963,515.8984 L672.6963,515.8984 " fill="none" style="stroke:#181818;stroke-width:1;"/><path d="M324,515.8984 L334,515.8984 C349,515.8984 349,515.8984 364,515.8984 L374,515.8984 " fill="none" style="stroke:#181818;stroke-width:1;"/><path d="M212,478.2891 L222,478.2891 C237,478.2891 237,515.8984 252,515.8984 L262,515.8984 " fill="none" style="stroke:#181818;stroke-width:1;"/><rect fill="#F1F1F1" height="37.6094" rx="12.5" ry="12.5" style="stroke:#181818;stroke-width:1.5;" width="76" x="262" y="554.7031"/><text fill="#000000" font-family="sans-serif" font-size="14" lengthAdjust="spacing" textLength="56" x="272" y="579.2363">&#27515;&#21009;&#22797;&#26680;</text><path d="M212,478.2891 L222,478.2891 C237,478.2891 237,573.5078 252,573.5078 L262,573.5078 " fill="none" style="stroke:#181818;stroke-width:1;"/><rect fill="#F1F1F1" height="37.6094" rx="12.5" ry="12.5" style="stroke:#181818;stroke-width:1.5;" width="48" x="262" y="612.3125"/><text fill="#000000" font-family="sans-serif" font-size="14" lengthAdjust="spacing" textLength="28" x="272" y="636.8457">&#20877;&#23457;</text><path d="M212,478.2891 L222,478.2891 C237,478.2891 237,631.1172 252,631.1172 L262,631.1172 " fill="none" style="stroke:#181818;stroke-width:1;"/><path d="M86,354.2656 L96,354.2656 C111,354.2656 111,478.2891 126,478.2891 L136,478.2891 " fill="none" style="stroke:#181818;stroke-width:1;"/><!--SRC=[xLZVJzj677_tNt7JNg1IGe2CLQYQA2begmX22-rJNoxsDRbYtqNsELKwJGhgHWE5RapjA1iRpQ3TLhNf0siR2cL_J6CdUU9Vs9sT12VWs7sS148e_du_z_d-_bxCXC6WpZHC50tc9EaJJ6JLL128HeVuhy4AAXhAgP0mKrCZ0XRXk8WZZs8kaoI6cOf0_U6s_QXKsxzlRpoLf0lTpu3_N02resVszjFcupTsvNLBr7Zzjl5gsIDg8QjhhgOZS-LMPSTQNt6fkrIksdwvOrKsEeUF3qjp8x7uyU7oAMmBl_V8glnojh4JLFFxrH0ew-NZ-i_hVexNtczPzzvvij7ZoDPpk_IZjVzFfBdvdVrRkNRmfYkAqT6OVnIrWmSk_OVY0sjfZ_lweVX3uz_DMhLexVvzWmZnOT7wyxuGLyhroWQND8ftcyzNxQrjBfIaTdRBLcdtL37gBru8gagv9wQElB6pw1XTvAUv0sV5j_6aLbtXmN2GlRBH9ujRV_K0kOlsGTdDd7_XjvPxZXqVhjRUBza_xLg__kvZI_Z_ZfUspDkWkVc7TM-fKQdM7-urNhrrpzqWRcIr_MVDucBZwCZrmcchiL5lGKJ7hhZE3dNSbium9Vcum3dh1oNdmt9FEXrpdtzsLltTWQZUxUahCGW7LcdTsbspdrGzOcjfJVWWJI0-xUs9d-XU09USqVv2QWckO9ZHeGQ-uJJHj6eYvnC0ar1UoEZK94g2gbG7AivacT1pxRS2gq1zGKUA3xobROCpEaAa7xC3yA0B0U126qjrI39-JhlADZHdwZdL3-egsr3_m3n1wTJmO_jqUdfoCf5e8mj8LUbj7wohTA1IL8EOp6UHrYQUfeIby1q4HcEIq2CjbuK6De9pwKN7VE36Gi4fgHSxqZ-NNkWa5ybPtdUXdC4PGdKKegu0p622UkKd527DzgKIP8HG6H7cbnlY5CKjWIjAgnpJmyg7n_LDrd6dQYTgHZN8gEiyOTmQfWIgYO_5pkae1tKe91zpx7AQwYoexS9oCSRhpe8cBIHRWcfyt9XVExHE-j69yX6KuHNbfDvazjjQGPLK4Cfv1wBRm1JVecaL6rd_bUSvtstjTXQptjpuc9cbBDYI4vLSW2H4L39K4EiOWxAC5V-Uxrh5GSmt-IWQdldcpp9Ambl839Xogd8NTAfuEZ1Wnjed73ivQc26y-Yox1c7K-iSgYXi82SXy5h0G6eDynjKxFumFTMw1WMvOQPl8LdG-sK7vlczZVIGl7bC-GGvr3I8MUGzTBfFDdttuFQVrQvU3hn39Fxdqb3hgyZv6yRv6yRv6yR_zmrZJlpxu5fo1kIHReZ5EHmTYOt4enS7Kf21MPe7msCWDZmUZu_7nq0YDG-4Ub0QI7ur3mngydi3A7ohwZXjYbKpA5s5UGY-DldYqT0u44y3yyb1a9fg2y4KoMET4eql6-dgzQGB0bzIbifHve37uf59p40AwTmjS3qfNK4teQaoVbIc2YQPSN1jVZfoKPhXIyc46MxeJbPAy6t5zC8uICp-1m00]--></g></svg>