<svg xmlns="http://www.w3.org/2000/svg" xmlns:xlink="http://www.w3.org/1999/xlink" contentStyleType="text/css" height="636px" preserveAspectRatio="none" style="width:854px;height:636px;background:#FFFFFF;" version="1.1" viewBox="0 0 854 636" width="854px" zoomAndPan="magnify"><title>&#29983;&#25928;&#20043;&#26085;</title><defs/><g><text fill="#000000" font-family="sans-serif" font-size="14" font-weight="bold" lengthAdjust="spacing" textLength="57.75" x="396.625" y="34.5332">&#29983;&#25928;&#20043;&#26085;</text><rect fill="#F1F1F1" height="37.6094" rx="12.5" ry="12.5" style="stroke:#181818;stroke-width:1.5;" width="76" x="10" y="317.8516"/><text fill="#000000" font-family="sans-serif" font-size="14" lengthAdjust="spacing" textLength="56" x="20" y="342.3848">&#29983;&#25928;&#20043;&#26085;</text><rect fill="#F1F1F1" height="37.6094" rx="12.5" ry="12.5" style="stroke:#181818;stroke-width:1.5;" width="48" x="136" y="58.6094"/><text fill="#000000" font-family="sans-serif" font-size="14" lengthAdjust="spacing" textLength="28" x="146" y="83.1426">&#36923;&#36753;</text><rect fill="#F1F1F1" height="37.6094" rx="12.5" ry="12.5" style="stroke:#181818;stroke-width:1.5;" width="248.6963" x="234" y="58.6094"/><text fill="#000000" font-family="sans-serif" font-size="14" lengthAdjust="spacing" textLength="228.6963" x="244" y="83.1426">&#19968;&#33324;&#30340;&#20915;&#23450;&#65292;&#26159;&#20316;&#20986;&#21363;&#29983;&#25928;&#65288;P204&#65289;</text><path d="M184,77.4141 L194,77.4141 C209,77.4141 209,77.4141 224,77.4141 L234,77.4141 " fill="none" style="stroke:#181818;stroke-width:1;"/><path d="M86,336.6563 L96,336.6563 C111,336.6563 111,77.4141 126,77.4141 L136,77.4141 " fill="none" style="stroke:#181818;stroke-width:1;"/><rect fill="#F1F1F1" height="37.6094" rx="12.5" ry="12.5" style="stroke:#181818;stroke-width:1.5;" width="48" x="136" y="231.4375"/><text fill="#000000" font-family="sans-serif" font-size="14" lengthAdjust="spacing" textLength="28" x="146" y="255.9707">&#20915;&#23450;</text><rect fill="#F1F1F1" height="37.6094" rx="12.5" ry="12.5" style="stroke:#181818;stroke-width:1.5;" width="76" x="234" y="116.2188"/><text fill="#000000" font-family="sans-serif" font-size="14" lengthAdjust="spacing" textLength="56" x="244" y="140.752">&#20316;&#20986;&#20043;&#26085;</text><rect fill="#F1F1F1" height="37.6094" rx="12.5" ry="12.5" style="stroke:#181818;stroke-width:1.5;" width="211.3584" x="360" y="116.2188"/><text fill="#000000" font-family="sans-serif" font-size="14" lengthAdjust="spacing" textLength="191.3584" x="370" y="140.752">&#26410;&#25104;&#24180;-&#38468;&#26465;&#20214;&#19981;&#36215;&#35785;&#65288;P330&#65289;</text><path d="M310,135.0234 L320,135.0234 C335,135.0234 335,135.0234 350,135.0234 L360,135.0234 " fill="none" style="stroke:#181818;stroke-width:1;"/><path d="M184,250.2422 L194,250.2422 C209,250.2422 209,135.0234 224,135.0234 L234,135.0234 " fill="none" style="stroke:#181818;stroke-width:1;"/><rect fill="#F1F1F1" height="37.6094" rx="12.5" ry="12.5" style="stroke:#181818;stroke-width:1.5;" width="76" x="234" y="202.6328"/><text fill="#000000" font-family="sans-serif" font-size="14" lengthAdjust="spacing" textLength="56" x="244" y="227.166">&#23459;&#24067;&#20043;&#26085;</text><rect fill="#F1F1F1" height="37.6094" rx="12.5" ry="12.5" style="stroke:#181818;stroke-width:1.5;" width="225.3584" x="360" y="173.8281"/><text fill="#000000" font-family="sans-serif" font-size="14" lengthAdjust="spacing" textLength="205.3584" x="370" y="198.3613">&#36215;&#35785;&#38454;&#27573;-&#19981;&#36215;&#35785;&#20915;&#23450;&#20070;&#65288;P204&#65289;</text><path d="M310,221.4375 L320,221.4375 C335,221.4375 335,192.6328 350,192.6328 L360,192.6328 " fill="none" style="stroke:#181818;stroke-width:1;"/><rect fill="#F1F1F1" height="37.6094" rx="12.5" ry="12.5" style="stroke:#181818;stroke-width:1.5;" width="192.6963" x="360" y="231.4375"/><text fill="#000000" font-family="sans-serif" font-size="14" lengthAdjust="spacing" textLength="172.6963" x="370" y="255.9707">&#31532;&#20108;&#23457;&#35009;&#23450;&#12289;&#21028;&#20915;&#65288;P275&#65289;</text><path d="M310,221.4375 L320,221.4375 C335,221.4375 335,250.2422 350,250.2422 L360,250.2422 " fill="none" style="stroke:#181818;stroke-width:1;"/><path d="M184,250.2422 L194,250.2422 C209,250.2422 209,221.4375 224,221.4375 L234,221.4375 " fill="none" style="stroke:#181818;stroke-width:1;"/><rect fill="#F1F1F1" height="37.6094" rx="12.5" ry="12.5" style="stroke:#181818;stroke-width:1.5;" width="135.8896" x="234" y="289.0469"/><text fill="#000000" font-family="sans-serif" font-size="14" lengthAdjust="spacing" textLength="115.8896" x="244" y="313.5801">&#36865;&#36798;&#29983;&#25928;/&#36865;&#36798;&#20043;&#26085;</text><rect fill="#F1F1F1" height="37.6094" rx="12.5" ry="12.5" style="stroke:#181818;stroke-width:1.5;" width="192.6963" x="419.8896" y="289.0469"/><text fill="#000000" font-family="sans-serif" font-size="14" lengthAdjust="spacing" textLength="172.6963" x="429.8896" y="313.5801">&#31532;&#19968;&#23457;&#35009;&#23450;&#12289;&#21028;&#20915;&#65288;P263&#65289;</text><path d="M369.8896,307.8516 L379.8896,307.8516 C394.8896,307.8516 394.8896,307.8516 409.8896,307.8516 L419.8896,307.8516 " fill="none" style="stroke:#181818;stroke-width:1;"/><path d="M184,250.2422 L194,250.2422 C209,250.2422 209,307.8516 224,307.8516 L234,307.8516 " fill="none" style="stroke:#181818;stroke-width:1;"/><rect fill="#F1F1F1" height="37.6094" rx="12.5" ry="12.5" style="stroke:#181818;stroke-width:1.5;" width="76" x="234" y="346.6563"/><text fill="#000000" font-family="sans-serif" font-size="14" lengthAdjust="spacing" textLength="56" x="244" y="371.1895">&#35009;&#23450;&#29983;&#25928;</text><path d="M184,250.2422 L194,250.2422 C209,250.2422 209,365.4609 224,365.4609 L234,365.4609 " fill="none" style="stroke:#181818;stroke-width:1;"/><path d="M86,336.6563 L96,336.6563 C111,336.6563 111,250.2422 126,250.2422 L136,250.2422 " fill="none" style="stroke:#181818;stroke-width:1;"/><rect fill="#F1F1F1" height="37.6094" rx="12.5" ry="12.5" style="stroke:#181818;stroke-width:1.5;" width="62" x="136" y="490.6797"/><text fill="#000000" font-family="sans-serif" font-size="14" lengthAdjust="spacing" textLength="42" x="146" y="515.2129">&#19981;&#36215;&#35785;</text><rect fill="#F1F1F1" height="37.6094" rx="12.5" ry="12.5" style="stroke:#181818;stroke-width:1.5;" width="76" x="248" y="404.2656"/><text fill="#000000" font-family="sans-serif" font-size="14" lengthAdjust="spacing" textLength="56" x="258" y="428.7988">&#20316;&#20986;&#29983;&#25928;</text><rect fill="#F1F1F1" height="37.6094" rx="12.5" ry="12.5" style="stroke:#181818;stroke-width:1.5;" width="104" x="374" y="404.2656"/><text fill="#000000" font-family="sans-serif" font-size="14" lengthAdjust="spacing" textLength="84" x="384" y="428.7988">&#38468;&#26465;&#20214;&#19981;&#36215;&#35785;</text><rect fill="#F1F1F1" height="37.6094" rx="12.5" ry="12.5" style="stroke:#181818;stroke-width:1.5;" width="314" x="528" y="404.2656"/><text fill="#000000" font-family="sans-serif" font-size="14" lengthAdjust="spacing" textLength="294" x="538" y="428.7988">&#20174;&#20316;&#20986;&#12302;&#20915;&#23450;&#12303;&#36825;&#19968;&#22825;&#12302;&#24320;&#22987;&#12303;&#35745;&#31639;&#12302;&#32771;&#39564;&#26399;&#12303;</text><path d="M478,423.0703 L488,423.0703 C503,423.0703 503,423.0703 518,423.0703 L528,423.0703 " fill="none" style="stroke:#181818;stroke-width:1;"/><path d="M324,423.0703 L334,423.0703 C349,423.0703 349,423.0703 364,423.0703 L374,423.0703 " fill="none" style="stroke:#181818;stroke-width:1;"/><path d="M198,509.4844 L208,509.4844 C223,509.4844 223,423.0703 238,423.0703 L248,423.0703 " fill="none" style="stroke:#181818;stroke-width:1;"/><rect fill="#F1F1F1" height="37.6094" rx="12.5" ry="12.5" style="stroke:#181818;stroke-width:1.5;" width="76" x="248" y="519.4844"/><text fill="#000000" font-family="sans-serif" font-size="14" lengthAdjust="spacing" textLength="56" x="258" y="544.0176">&#23459;&#21578;&#29983;&#25928;</text><rect fill="#F1F1F1" height="37.6094" rx="12.5" ry="12.5" style="stroke:#181818;stroke-width:1.5;" width="90" x="374" y="519.4844"/><text fill="#000000" font-family="sans-serif" font-size="14" lengthAdjust="spacing" textLength="70" x="384" y="544.0176">&#27491;&#23447;&#19981;&#36215;&#35785;</text><rect fill="#F1F1F1" height="37.6094" rx="12.5" ry="12.5" style="stroke:#181818;stroke-width:1.5;" width="90" x="514" y="461.875"/><text fill="#000000" font-family="sans-serif" font-size="14" lengthAdjust="spacing" textLength="70" x="524" y="486.4082">&#27861;&#23450;&#19981;&#36215;&#35785;</text><path d="M464,538.2891 L474,538.2891 C489,538.2891 489,480.6797 504,480.6797 L514,480.6797 " fill="none" style="stroke:#181818;stroke-width:1;"/><rect fill="#F1F1F1" height="37.6094" rx="12.5" ry="12.5" style="stroke:#181818;stroke-width:1.5;" width="90" x="514" y="519.4844"/><text fill="#000000" font-family="sans-serif" font-size="14" lengthAdjust="spacing" textLength="70" x="524" y="544.0176">&#37196;&#23450;&#19981;&#36215;&#35785;</text><path d="M464,538.2891 L474,538.2891 C489,538.2891 489,538.2891 504,538.2891 L514,538.2891 " fill="none" style="stroke:#181818;stroke-width:1;"/><rect fill="#F1F1F1" height="37.6094" rx="12.5" ry="12.5" style="stroke:#181818;stroke-width:1.5;" width="90" x="514" y="577.0938"/><text fill="#000000" font-family="sans-serif" font-size="14" lengthAdjust="spacing" textLength="70" x="524" y="601.627">&#23384;&#30097;&#19981;&#36215;&#35785;</text><path d="M464,538.2891 L474,538.2891 C489,538.2891 489,595.8984 504,595.8984 L514,595.8984 " fill="none" style="stroke:#181818;stroke-width:1;"/><path d="M324,538.2891 L334,538.2891 C349,538.2891 349,538.2891 364,538.2891 L374,538.2891 " fill="none" style="stroke:#181818;stroke-width:1;"/><path d="M198,509.4844 L208,509.4844 C223,509.4844 223,538.2891 238,538.2891 L248,538.2891 " fill="none" style="stroke:#181818;stroke-width:1;"/><path d="M86,336.6563 L96,336.6563 C111,336.6563 111,509.4844 126,509.4844 L136,509.4844 " fill="none" style="stroke:#181818;stroke-width:1;"/><!--SRC=[xLTHJnj747w_Nx5LNo2IZG6NHbPK4JkWDi88rKxUrtSRUyFThhMtvyYfAXabRPs6f4Lg2ece8aJQgX5n7cXI29J-67p6Vk8lPFVEX-yCvxiyDnQolBFVV3Cxiz_SCMjooBY1YMR0gg9yWecgMne2oUI4-3DvNKSJLHqIRXbwGi8I0fTmx4aiR8h2CTSHEFdbUUT9ixt_iBF-kw9S2gw1-5m2lSP1zsZDMRY6zbwZszmvUNRV_dxNRZqxFLpjRBnk_xjf__3EVhJhCfmUDfUcKkdJmmTz5XVhPt4SV946MvtDbvtcp_R-tudUq_kTtxRQ1s_RUu-wR_xflduWYQUdKnvndxorRU_Tkv3BzUfjlEsqtYJEMDnislj_3EKvy3lPsMc_MxLRMztj5G4zRgpOpHV2pN7u_BDW_5vZfNjqv9vymbrSc8matMk4aCvC1qbTZ4kgU9Nlvt-kZZwOBwrprGi0-lu7ZrsAuyPZjop7ZP-w_psLYRxuIneF6_QV3wMnjNNIMXUMRkDUx-LgP_EvC0vrOUt72pFflDgsM-kZqkZiFf4T6O7eVRSQWR1VRPpykZP0ACei4WBnH38RrCmLHmrVA7t3DGpB31hW6q6SBEaMSdu1a8NgSfbHYsWvgbC6T5okSBalTh-LM0soPOQq47X_rmEN6K9a5BC3yA7h4U2wXwKCad9Oqkwc1wrQhAg7GTrD3nf-CD-X63N3s3wTdyzcSpaFMKUwJk-4ODrD1wea3OX9iO8CZtYU4bx0Tn6OJYbo7ndL2ZIn6LrBFpeL0ZUNwqvB_TYfqRNqGxF2f5R43OoL32uJob2ClWAmW0aQjWyeOeOTIIN92A4g8ZoiDiHfYji2rrJI1MQ8LOZ7pKrb-AnhWsrE3SYfcppX8Xgc1Egv3yKkCLI534hBXxXTBL76ewvTN2xEHTzvbD9YikMe8UJ6mwv3tpECJhQFeBBeg23r5tFKr8hgf8PGrI-8O80vCKLBEZOhuIFFvn-CTgU2-N1jGi8iKXuToJcLMeSangbKg25-5WogAjR2xtnW54Sntn9ID7tw5ciLvU5jP4MedEeY1KOrtmsCq9ZduSIfKXDpN4DNLPySperpgAEu1naSGVG2Hb8RM3n1vUoFSwVwZq59RbgbsqYLz67LWJNnt4Oi9cyDKw4WXvf6CSkwnoxtOD87XJjQgu6x7FaCKSJNbOd-gyZ7b_AFB-N_ivVo9VbFwety0gWXPifPCvcSIasbavV72f23HLe3apCWDPb9fpFf6P0h587S7bV6ybyLWKajCMg19WOHmoLBgdDSkGvh47nj2QqQA0FaQgoO7mU5ESy8vaWDCqeCeK_b-isy2m9VKbweKkw0PzA9BEQWW9X82zpCAzVGBMZfNBYgLCEad04tYlE9oyg2qB45ooBGtOgI4mBdh9u1kSNt]--></g></svg>