<svg xmlns="http://www.w3.org/2000/svg" xmlns:xlink="http://www.w3.org/1999/xlink" contentStyleType="text/css" height="435px" preserveAspectRatio="none" style="width:970px;height:435px;background:#FFFFFF;" version="1.1" viewBox="0 0 970 435" width="970px" zoomAndPan="magnify"><title>&#32570;&#24109;&#23457;&#21028;-&#36866;&#29992;&#23545;&#35937;</title><defs/><g><text fill="#000000" font-family="sans-serif" font-size="14" font-weight="bold" lengthAdjust="spacing" textLength="120.1621" x="423.75" y="34.5332">&#32570;&#24109;&#23457;&#21028;-&#36866;&#29992;&#23545;&#35937;</text><rect fill="#F1F1F1" height="37.6094" rx="12.5" ry="12.5" style="stroke:#181818;stroke-width:1.5;" width="136.6621" x="10" y="217.0352"/><text fill="#000000" font-family="sans-serif" font-size="14" lengthAdjust="spacing" textLength="116.6621" x="20" y="241.5684">&#32570;&#24109;&#23457;&#21028;-&#36866;&#29992;&#23545;&#35937;</text><rect fill="#F1F1F1" height="37.6094" rx="12.5" ry="12.5" style="stroke:#181818;stroke-width:1.5;" width="188" x="196.6621" y="202.6328"/><text fill="#000000" font-family="sans-serif" font-size="14" lengthAdjust="spacing" textLength="168" x="206.6621" y="227.166">&#22269;&#24656;&#36138;&#65288;&#20154;&#27963;&#30528;&#65292;&#19981;&#24819;&#26469;&#65289;</text><rect fill="#F1F1F1" height="37.6094" rx="12.5" ry="12.5" style="stroke:#181818;stroke-width:1.5;" width="48" x="434.6621" y="145.0234"/><text fill="#000000" font-family="sans-serif" font-size="14" lengthAdjust="spacing" textLength="28" x="444.6621" y="169.5566">&#22269;&#24656;</text><rect fill="#F1F1F1" height="37.6094" rx="12.5" ry="12.5" style="stroke:#181818;stroke-width:1.5;" width="238.1758" x="532.6621" y="58.6094"/><text fill="#000000" font-family="sans-serif" font-size="14" lengthAdjust="spacing" textLength="218.1758" x="542.6621" y="83.1426">&#37325;&#22269;&#24656;&#65288;&#32618;&#21517;+&#31243;&#24230;&#65292;&#31532;&#19968;&#65292;&#29359;&#32618;&#65289;</text><path d="M482.6621,163.8281 L492.6621,163.8281 C507.6621,163.8281 507.6621,77.4141 522.6621,77.4141 L532.6621,77.4141 " fill="none" style="stroke:#181818;stroke-width:1;"/><rect fill="#F1F1F1" height="37.6094" rx="12.5" ry="12.5" style="stroke:#181818;stroke-width:1.5;" width="202" x="532.6621" y="116.2188"/><text fill="#000000" font-family="sans-serif" font-size="14" lengthAdjust="spacing" textLength="182" x="542.6621" y="140.752">&#22312;&#22659;&#22806;&#65288;&#31354;&#38388;&#65292;&#31532;&#20108;&#65292;&#36867;&#36305;&#65289;</text><path d="M482.6621,163.8281 L492.6621,163.8281 C507.6621,163.8281 507.6621,135.0234 522.6621,135.0234 L532.6621,135.0234 " fill="none" style="stroke:#181818;stroke-width:1;"/><rect fill="#F1F1F1" height="37.6094" rx="12.5" ry="12.5" style="stroke:#181818;stroke-width:1.5;" width="230" x="532.6621" y="173.8281"/><text fill="#000000" font-family="sans-serif" font-size="14" lengthAdjust="spacing" textLength="210" x="542.6621" y="198.3613">&#21450;&#26102;&#23457;&#65288;&#26102;&#38388;&#65292;&#31532;&#19977;&#65292;&#26377;&#20154;&#30528;&#24613;&#65289;</text><path d="M482.6621,163.8281 L492.6621,163.8281 C507.6621,163.8281 507.6621,192.6328 522.6621,192.6328 L532.6621,192.6328 " fill="none" style="stroke:#181818;stroke-width:1;"/><rect fill="#F1F1F1" height="37.6094" rx="12.5" ry="12.5" style="stroke:#181818;stroke-width:1.5;" width="230" x="532.6621" y="231.4375"/><text fill="#000000" font-family="sans-serif" font-size="14" lengthAdjust="spacing" textLength="210" x="542.6621" y="255.9707">&#26368;&#39640;&#26816;&#26680;&#65288;&#31243;&#24207;&#65292;&#31532;&#22235;&#65292;&#36208;&#27969;&#31243;&#65289;</text><rect fill="#F1F1F1" height="37.6094" rx="12.5" ry="12.5" style="stroke:#181818;stroke-width:1.5;" width="146" x="812.6621" y="231.4375"/><text fill="#000000" font-family="sans-serif" font-size="14" lengthAdjust="spacing" textLength="126" x="822.6621" y="255.9707">&#32771;&#28857;&#65306;&#29992;&#26368;&#39640;&#38498;&#36855;&#24785;</text><path d="M762.6621,250.2422 L772.6621,250.2422 C787.6621,250.2422 787.6621,250.2422 802.6621,250.2422 L812.6621,250.2422 " fill="none" style="stroke:#181818;stroke-width:1;"/><path d="M482.6621,163.8281 L492.6621,163.8281 C507.6621,163.8281 507.6621,250.2422 522.6621,250.2422 L532.6621,250.2422 " fill="none" style="stroke:#181818;stroke-width:1;"/><path d="M384.6621,221.4375 L394.6621,221.4375 C409.6621,221.4375 409.6621,163.8281 424.6621,163.8281 L434.6621,163.8281 " fill="none" style="stroke:#181818;stroke-width:1;"/><rect fill="#F1F1F1" height="37.6094" rx="12.5" ry="12.5" style="stroke:#181818;stroke-width:1.5;" width="34" x="434.6621" y="317.8516"/><text fill="#000000" font-family="sans-serif" font-size="14" lengthAdjust="spacing" textLength="14" x="444.6621" y="342.3848">&#36138;</text><rect fill="#F1F1F1" height="37.6094" rx="12.5" ry="12.5" style="stroke:#181818;stroke-width:1.5;" width="48" x="518.6621" y="289.0469"/><text fill="#000000" font-family="sans-serif" font-size="14" lengthAdjust="spacing" textLength="28" x="528.6621" y="313.5801">&#36138;&#23448;</text><rect fill="#F1F1F1" height="37.6094" rx="12.5" ry="12.5" style="stroke:#181818;stroke-width:1.5;" width="76" x="616.6621" y="289.0469"/><text fill="#000000" font-family="sans-serif" font-size="14" lengthAdjust="spacing" textLength="56" x="626.6621" y="313.5801">&#36138;&#27745;&#21463;&#36159;</text><rect fill="#F1F1F1" height="37.6094" rx="12.5" ry="12.5" style="stroke:#181818;stroke-width:1.5;" width="146" x="742.6621" y="289.0469"/><text fill="#000000" font-family="sans-serif" font-size="14" lengthAdjust="spacing" textLength="126" x="752.6621" y="313.5801">&#32771;&#28857;&#65306;&#29992;&#28174;&#32844;&#32618;&#36855;&#24785;</text><path d="M692.6621,307.8516 L702.6621,307.8516 C717.6621,307.8516 717.6621,307.8516 732.6621,307.8516 L742.6621,307.8516 " fill="none" style="stroke:#181818;stroke-width:1;"/><path d="M566.6621,307.8516 L576.6621,307.8516 C591.6621,307.8516 591.6621,307.8516 606.6621,307.8516 L616.6621,307.8516 " fill="none" style="stroke:#181818;stroke-width:1;"/><path d="M468.6621,336.6563 L478.6621,336.6563 C493.6621,336.6563 493.6621,307.8516 508.6621,307.8516 L518.6621,307.8516 " fill="none" style="stroke:#181818;stroke-width:1;"/><rect fill="#F1F1F1" height="37.6094" rx="12.5" ry="12.5" style="stroke:#181818;stroke-width:1.5;" width="48" x="518.6621" y="346.6563"/><text fill="#000000" font-family="sans-serif" font-size="14" lengthAdjust="spacing" textLength="28" x="528.6621" y="371.1895">&#22806;&#36867;</text><path d="M468.6621,336.6563 L478.6621,336.6563 C493.6621,336.6563 493.6621,365.4609 508.6621,365.4609 L518.6621,365.4609 " fill="none" style="stroke:#181818;stroke-width:1;"/><path d="M384.6621,221.4375 L394.6621,221.4375 C409.6621,221.4375 409.6621,336.6563 424.6621,336.6563 L434.6621,336.6563 " fill="none" style="stroke:#181818;stroke-width:1;"/><path d="M146.6621,235.8398 L156.6621,235.8398 C171.6621,235.8398 171.6621,221.4375 186.6621,221.4375 L196.6621,221.4375 " fill="none" style="stroke:#181818;stroke-width:1;"/><rect fill="#F1F1F1" height="37.6094" rx="12.5" ry="12.5" style="stroke:#181818;stroke-width:1.5;" width="188" x="196.6621" y="260.2422"/><text fill="#000000" font-family="sans-serif" font-size="14" lengthAdjust="spacing" textLength="168" x="206.6621" y="284.7754">&#30149;&#21322;&#24180;&#65288;&#20154;&#27963;&#30528;&#65292;&#19981;&#33021;&#26469;&#65289;</text><path d="M146.6621,235.8398 L156.6621,235.8398 C171.6621,235.8398 171.6621,279.0469 186.6621,279.0469 L196.6621,279.0469 " fill="none" style="stroke:#181818;stroke-width:1;"/><rect fill="#F1F1F1" height="37.6094" rx="12.5" ry="12.5" style="stroke:#181818;stroke-width:1.5;" width="132" x="196.6621" y="317.8516"/><text fill="#000000" font-family="sans-serif" font-size="14" lengthAdjust="spacing" textLength="112" x="206.6621" y="342.3848">&#27515;&#26080;&#32618;&#65288;&#20154;&#24050;&#27515;&#65289;</text><path d="M146.6621,235.8398 L156.6621,235.8398 C171.6621,235.8398 171.6621,336.6563 186.6621,336.6563 L196.6621,336.6563 " fill="none" style="stroke:#181818;stroke-width:1;"/><rect fill="#F1F1F1" height="37.6094" rx="12.5" ry="12.5" style="stroke:#181818;stroke-width:1.5;" width="132" x="196.6621" y="375.4609"/><text fill="#000000" font-family="sans-serif" font-size="14" lengthAdjust="spacing" textLength="112" x="206.6621" y="399.9941">&#27515;&#20877;&#23457;&#65288;&#20154;&#24050;&#27515;&#65289;</text><path d="M146.6621,235.8398 L156.6621,235.8398 C171.6621,235.8398 171.6621,394.2656 186.6621,394.2656 L196.6621,394.2656 " fill="none" style="stroke:#181818;stroke-width:1;"/><!--SRC=[xLTRJnj757xVNp5LNo2LpQK8HIYg20weZJ2AOfBtyUx4dh0xOytEEdAgIYPMcq1nIQGgJWkHGaegIdDfMgSO1vG_mwxj9_v2p-xQi3QirtdhGonaZS_vpdVcN7UPDYKMqg1CCt1EKJwZJDKjZQ1uV0J-J5dGoKXEnqnQXXvpOJ70nJnvd89CKIILEa6DWxfTUsM_th8VRCTQnNkDdtViD_lDjrkASg6F4i7d0h8t3ftbXytgxl71WwDwtQc-Rpmj7X-i7TNAJkaVv-cBuuCL3ng4dmXyOUj-sPS3H-DmrtvO_gAnywDT_nru6YzV7jLSmiRg6z05sTgCcplsyvAz_TWr_gFUgbJRLlKrEBIAfURUetEirbUTohyG5bZ1uTIgjW87PtC5Oe50dEABixREPh7rvnFdjwBphEOwTQ-wxflR6njmQBxxotct3F9UMz- -MImrxkqV7_mAkVIvMhyyRtxOSqgF0fc2bFRu1Odz-ibvXDLTv-sMlLvfLZ-SKP_Zi_PJStaDajdZivsPxSUGj7Pr6vNlxVAglLyzMzrcwJ1GNSZAg_TEvPbN8XTgx_qDaYwr_KFPJtYNMfacqC2T9fxkxkbBNhT-fRG5LoZE26oWRu4qdjOjufqGci7gKaPmYsa9hdE1T9h9IbSFskzSh8R5aY1Q2BojxO0pWX3MZza31D25272XW-K2iqpOfNrb1vgpH4uFW_hA3ZGyi41GWfjXR9_FpStC918TP87eEhyJWlML7bI96vYonImnEiHpdCaKlKlGbwEAgoT6BejDQaRdCeWU3O6RImMlf47iUFzS1g4p85Apq8a3NOPc61TaWBeYD4yPwPMVKWpejY-LIyOOLmcJORbXNb7y4lYYj0wO7bOO7lzkgg0dLJjLIsvWoVtBCmdUA6TOJtmizfeWEIomA_aOiyjfBcHKsmtA9INKNKPDse1i2Mx0kCcmTcXRXj6vvMCa0nK5qc0o-ssjg4fgXEI20z7jO1QsQ5gdPZPyvGNikxtToLBPcviGDmjSHdloeb8Bc0qGbOer8a-SOLMbMdZFTwtYAEPRC8fcOBxXjqgI-3Qn8gQSwt05mRL01qRCMCV2yvFZ9fKqJowhWN4uiywnJWODv3G4g0MEf3OeF47TtJz8JxKVWowvQQLl4zMb3yiEpiDpcuW1UVEKmmHvr3oAsStxmEa-tVJTWzj_LhjwEV8Pei3NfP7sgyYdb-PFByt_ivVcQ-u_UJUIyoXFXEdkWh7u-EZuHFpYK0fBjC3pQ6mIZOvDJKnCJKoYH6eHkUfXPIZvpI8okGMh46cmA0HDM-xq32jNSHwZwnRCaa6caFjhQ34vZ5Ap7I6QPNagE3DWVfIhDvC-27tDPIh7fGUUd8ZDK8bIHC2rqCsaSeNSmfOkmLJb6cMPANHZSIvsKPc7ERDm1XpTpIe9640f2bCeiV0V]--></g></svg>