<?xml version="1.0" encoding="us-ascii" standalone="no"?><svg xmlns="http://www.w3.org/2000/svg" xmlns:xlink="http://www.w3.org/1999/xlink" contentStyleType="text/css" height="170px" preserveAspectRatio="none" style="width:132px;height:170px;background:#FFFFFF;" version="1.1" viewBox="0 0 132 170" width="132px" zoomAndPan="magnify"><defs/><g><!--class A--><g id="elem_A"><rect codeLine="1" fill="#F1F1F1" height="48" id="A" rx="2.5" ry="2.5" style="stroke:#181818;stroke-width:0.5;" width="41" x="45" y="115"/><ellipse cx="60" cy="131" fill="#ADD1B2" rx="11" ry="11" style="stroke:#181818;stroke-width:1.0;"/><path d="M59.3438,136.8594 Q57.3594,136.8594 56.1875,135.3906 Q55.0313,133.9063 55.0313,130.8281 Q55.0313,128.2188 56.25,126.4688 Q57.4844,124.7188 59.6094,124.7188 Q60.1094,124.7188 60.6406,124.8594 Q61.0781,125.0469 61.3438,125.0469 Q61.5625,125.0469 61.6563,125 Q61.7656,124.9531 62.2188,124.3594 L62.9844,128.0938 L62.0938,128.3594 Q61.6406,126.9063 61.0313,126.3125 Q60.4375,125.7031 59.4844,125.7031 Q58.2656,125.7031 57.5469,127.1406 Q56.8281,128.5625 56.8281,130.75 Q56.8281,133.1563 57.4375,134.4531 Q58.0625,135.7344 59.4219,135.7344 Q60.375,135.7344 61.0625,135.0469 Q61.75,134.3438 62.0781,132.8438 L62.9844,133.25 Q62.5781,134.9531 61.6094,135.9063 Q60.6563,136.8594 59.3438,136.8594 Z " fill="#000000"/><text fill="#000000" font-family="sans-serif" font-size="14" lengthAdjust="spacing" textLength="9" x="74" y="136.7969">A</text><line style="stroke:#181818;stroke-width:0.5;" x1="46" x2="85" y1="147" y2="147"/><line style="stroke:#181818;stroke-width:0.5;" x1="46" x2="85" y1="155" y2="155"/></g><!--class B--><g id="elem_B"><rect fill="#F1F1F1" height="48" id="B" rx="2.5" ry="2.5" style="stroke:#181818;stroke-width:0.5;" width="41" x="7" y="7"/><ellipse cx="22" cy="23" fill="#ADD1B2" rx="11" ry="11" style="stroke:#181818;stroke-width:1.0;"/><path d="M21.3438,28.8594 Q19.3594,28.8594 18.1875,27.3906 Q17.0313,25.9063 17.0313,22.8281 Q17.0313,20.2188 18.25,18.4688 Q19.4844,16.7188 21.6094,16.7188 Q22.1094,16.7188 22.6406,16.8594 Q23.0781,17.0469 23.3438,17.0469 Q23.5625,17.0469 23.6563,17 Q23.7656,16.9531 24.2188,16.3594 L24.9844,20.0938 L24.0938,20.3594 Q23.6406,18.9063 23.0313,18.3125 Q22.4375,17.7031 21.4844,17.7031 Q20.2656,17.7031 19.5469,19.1406 Q18.8281,20.5625 18.8281,22.75 Q18.8281,25.1563 19.4375,26.4531 Q20.0625,27.7344 21.4219,27.7344 Q22.375,27.7344 23.0625,27.0469 Q23.75,26.3438 24.0781,24.8438 L24.9844,25.25 Q24.5781,26.9531 23.6094,27.9063 Q22.6563,28.8594 21.3438,28.8594 Z " fill="#000000"/><text fill="#000000" font-family="sans-serif" font-size="14" lengthAdjust="spacing" textLength="9" x="36" y="28.7969">B</text><line style="stroke:#181818;stroke-width:0.5;" x1="8" x2="47" y1="39" y2="39"/><line style="stroke:#181818;stroke-width:0.5;" x1="8" x2="47" y1="47" y2="47"/></g><!--class C--><g id="elem_C"><rect fill="#F1F1F1" height="48" id="C" rx="2.5" ry="2.5" style="stroke:#181818;stroke-width:0.5;" width="42" x="83.5" y="7"/><ellipse cx="98.5" cy="23" fill="#ADD1B2" rx="11" ry="11" style="stroke:#181818;stroke-width:1.0;"/><path d="M97.8438,28.8594 Q95.8594,28.8594 94.6875,27.3906 Q93.5313,25.9063 93.5313,22.8281 Q93.5313,20.2188 94.75,18.4688 Q95.9844,16.7188 98.1094,16.7188 Q98.6094,16.7188 99.1406,16.8594 Q99.5781,17.0469 99.8438,17.0469 Q100.0625,17.0469 100.1563,17 Q100.2656,16.9531 100.7188,16.3594 L101.4844,20.0938 L100.5938,20.3594 Q100.1406,18.9063 99.5313,18.3125 Q98.9375,17.7031 97.9844,17.7031 Q96.7656,17.7031 96.0469,19.1406 Q95.3281,20.5625 95.3281,22.75 Q95.3281,25.1563 95.9375,26.4531 Q96.5625,27.7344 97.9219,27.7344 Q98.875,27.7344 99.5625,27.0469 Q100.25,26.3438 100.5781,24.8438 L101.4844,25.25 Q101.0781,26.9531 100.1094,27.9063 Q99.1563,28.8594 97.8438,28.8594 Z " fill="#000000"/><text fill="#000000" font-family="sans-serif" font-size="14" lengthAdjust="spacing" textLength="10" x="112.5" y="28.7969">C</text><line style="stroke:#181818;stroke-width:0.5;" x1="84.5" x2="124.5" y1="39" y2="39"/><line style="stroke:#181818;stroke-width:0.5;" x1="84.5" x2="124.5" y1="47" y2="47"/></g><!--reverse link B to A--><g id="link_B_A"><path d="M41.8235,71.9444 C48.1535,89.6044 50.78,96.94 57.14,114.68 " fill="none" id="B-backto-A" style="stroke:#181818;stroke-width:1.0;"/><polygon fill="none" points="35.75,55,36.1754,73.9689,47.4716,69.9199,35.75,55" style="stroke:#181818;stroke-width:1.0;"/></g><!--reverse link C to A--><g id="link_C_A"><path d="M89.8226,71.8921 C83.3226,89.5521 80.61,96.94 74.08,114.68 " fill="none" id="C-backto-A" style="stroke:#181818;stroke-width:1.0;"/><polygon fill="none" points="96.04,55,84.1919,69.8197,95.4533,73.9646,96.04,55" style="stroke:#181818;stroke-width:1.0;"/></g><!--SRC=[Iyv9B2vMS5H8hIX9pKifLd3IKN1MgEQg1G00]--></g></svg>