<?xml version="1.0" encoding="us-ascii" standalone="no"?><svg xmlns="http://www.w3.org/2000/svg" xmlns:xlink="http://www.w3.org/1999/xlink" contentStyleType="text/css" height="202px" preserveAspectRatio="none" style="width:167px;height:202px;background:#FFFFFF;" version="1.1" viewBox="0 0 167 202" width="167px" zoomAndPan="magnify"><defs/><g><!--cluster X1--><g id="cluster_X1"><path d="M8.5,6.0137 L26.5,6.0137 A3.75,3.75 0 0 1 29,8.5137 L36,30.6348 L157.5,30.6348 A2.5,2.5 0 0 1 160,33.1348 L160,192.5137 A2.5,2.5 0 0 1 157.5,195.0137 L8.5,195.0137 A2.5,2.5 0 0 1 6,192.5137 L6,8.5137 A2.5,2.5 0 0 1 8.5,6.0137 " fill="none" style="stroke:#000000;stroke-width:1.5;"/><line style="stroke:#000000;stroke-width:1.5;" x1="6" x2="36" y1="30.6348" y2="30.6348"/><text fill="#000000" font-family="sans-serif" font-size="14" font-weight="bold" lengthAdjust="spacing" textLength="17" x="10" y="23.1211">X1</text></g><!--cluster X2--><g id="cluster_X2"><path d="M32.5,51.0137 L50.5,51.0137 A3.75,3.75 0 0 1 53,53.5137 L60,75.6348 L133.5,75.6348 A2.5,2.5 0 0 1 136,78.1348 L136,168.5137 A2.5,2.5 0 0 1 133.5,171.0137 L32.5,171.0137 A2.5,2.5 0 0 1 30,168.5137 L30,53.5137 A2.5,2.5 0 0 1 32.5,51.0137 " fill="none" style="stroke:#000000;stroke-width:1.5;"/><line style="stroke:#000000;stroke-width:1.5;" x1="30" x2="60" y1="75.6348" y2="75.6348"/><text fill="#000000" font-family="sans-serif" font-size="14" font-weight="bold" lengthAdjust="spacing" textLength="17" x="34" y="68.1211">X2</text></g><!--class foo--><g id="elem_foo"><rect codeLine="3" fill="#F1F1F1" height="66.6211" id="foo" rx="2.5" ry="2.5" style="stroke:#181818;stroke-width:0.5;" width="73" x="46.5" y="88.0137"/><ellipse cx="70.95" cy="104.0137" fill="#ADD1B2" rx="11" ry="11" style="stroke:#181818;stroke-width:1.0;"/><path d="M70.2938,109.873 Q68.3094,109.873 67.1375,108.4043 Q65.9813,106.9199 65.9813,103.8418 Q65.9813,101.2324 67.2,99.4824 Q68.4344,97.7324 70.5594,97.7324 Q71.0594,97.7324 71.5906,97.873 Q72.0281,98.0605 72.2938,98.0605 Q72.5125,98.0605 72.6063,98.0137 Q72.7156,97.9668 73.1688,97.373 L73.9344,101.1074 L73.0438,101.373 Q72.5906,99.9199 71.9813,99.3262 Q71.3875,98.7168 70.4344,98.7168 Q69.2156,98.7168 68.4969,100.1543 Q67.7781,101.5762 67.7781,103.7637 Q67.7781,106.1699 68.3875,107.4668 Q69.0125,108.748 70.3719,108.748 Q71.325,108.748 72.0125,108.0605 Q72.7,107.3574 73.0281,105.8574 L73.9344,106.2637 Q73.5281,107.9668 72.5594,108.9199 Q71.6063,109.873 70.2938,109.873 Z " fill="#000000"/><text fill="#000000" font-family="sans-serif" font-size="14" lengthAdjust="spacing" textLength="20" x="87.05" y="109.8105">foo</text><line style="stroke:#181818;stroke-width:0.5;" x1="47.5" x2="118.5" y1="120.0137" y2="120.0137"/><text fill="#000000" font-family="sans-serif" font-size="14" lengthAdjust="spacing" textLength="61" x="52.5" y="139.1211">some info</text><line style="stroke:#181818;stroke-width:0.5;" x1="47.5" x2="118.5" y1="146.6348" y2="146.6348"/></g><!--SRC=[AqujKIXEBKWiIYp9BrAmik9ApaaiBbQ8CBIoYZ2oiahBprUevb9GACxFJLN8p4lBvwhb0W00]--></g></svg>