<?xml version="1.0" encoding="us-ascii" standalone="no"?><svg xmlns="http://www.w3.org/2000/svg" xmlns:xlink="http://www.w3.org/1999/xlink" contentStyleType="text/css" height="106px" preserveAspectRatio="none" style="width:126px;height:106px;background:#FFFFFF;" version="1.1" viewBox="0 0 126 106" width="126px" zoomAndPan="magnify"><defs/><g><!--class Dummy--><g id="elem_Dummy"><rect codeLine="1" fill="#F1F1F1" height="85.2422" id="Dummy" rx="2.5" ry="2.5" style="stroke:#181818;stroke-width:0.5;" width="105" x="7" y="7"/><ellipse cx="33.7" cy="23" fill="#ADD1B2" rx="11" ry="11" style="stroke:#181818;stroke-width:1.0;"/><path d="M33.0438,28.8594 Q31.0594,28.8594 29.8875,27.3906 Q28.7313,25.9063 28.7313,22.8281 Q28.7313,20.2188 29.95,18.4688 Q31.1844,16.7188 33.3094,16.7188 Q33.8094,16.7188 34.3406,16.8594 Q34.7781,17.0469 35.0438,17.0469 Q35.2625,17.0469 35.3563,17 Q35.4656,16.9531 35.9188,16.3594 L36.6844,20.0938 L35.7938,20.3594 Q35.3406,18.9063 34.7313,18.3125 Q34.1375,17.7031 33.1844,17.7031 Q31.9656,17.7031 31.2469,19.1406 Q30.5281,20.5625 30.5281,22.75 Q30.5281,25.1563 31.1375,26.4531 Q31.7625,27.7344 33.1219,27.7344 Q34.075,27.7344 34.7625,27.0469 Q35.45,26.3438 35.7781,24.8438 L36.6844,25.25 Q36.2781,26.9531 35.3094,27.9063 Q34.3563,28.8594 33.0438,28.8594 Z " fill="#000000"/><text fill="#000000" font-family="sans-serif" font-size="14" lengthAdjust="spacing" textLength="47" x="50.3" y="28.7969">Dummy</text><line style="stroke:#181818;stroke-width:0.5;" x1="8" x2="111" y1="39" y2="39"/><text fill="#000000" font-family="sans-serif" font-size="14" lengthAdjust="spacing" text-decoration="underline" textLength="52" x="13" y="58.1074">String id</text><line style="stroke:#181818;stroke-width:0.5;" x1="8" x2="111" y1="65.6211" y2="65.6211"/><text fill="#000000" font-family="sans-serif" font-size="14" font-style="italic" lengthAdjust="spacing" textLength="93" x="13" y="84.7285">void methods()</text></g><!--SRC=[Iyv9B2vMS2dDpQrKgEPIKAWkBaaioKokLGWkAShCIrV8J0499YOLbnGb9fVKAfJbPwOevAQMPEId56jeSjK20000]--></g></svg>