<?xml version="1.0" encoding="us-ascii" standalone="no"?><svg xmlns="http://www.w3.org/2000/svg" xmlns:xlink="http://www.w3.org/1999/xlink" contentStyleType="text/css" height="278px" preserveAspectRatio="none" style="width:229px;height:278px;background:#FFFFFF;" version="1.1" viewBox="0 0 229 278" width="229px" zoomAndPan="magnify"><defs/><g><!--class Collection--><g id="elem_Collection"><rect codeLine="1" fill="#F1F1F1" height="48" id="Collection" rx="2.5" ry="2.5" style="stroke:#181818;stroke-width:0.5;" width="94" x="7" y="7"/><ellipse cx="22" cy="23" fill="#B4A7E5" rx="11" ry="11" style="stroke:#181818;stroke-width:1.0;"/><path d="M18.5938,17.7813 L18.5938,16.8438 L24.4375,16.8438 L24.4375,17.7813 L22.6406,17.7813 Q22.4688,17.7813 22.3906,17.8438 Q22.3125,17.9063 22.3125,18.0469 L22.3125,27.5313 Q22.3125,27.6719 22.3906,27.7344 Q22.4688,27.7969 22.6406,27.7969 L24.4375,27.7969 L24.4375,28.7344 L18.5938,28.7344 L18.5938,27.7969 L20.3906,27.7969 Q20.6094,27.7969 20.6563,27.75 Q20.7188,27.6875 20.7188,27.5313 L20.7188,18.0469 Q20.7188,17.8906 20.6563,17.8438 Q20.6094,17.7813 20.3906,17.7813 L18.5938,17.7813 Z " fill="#000000"/><text fill="#000000" font-family="sans-serif" font-size="14" font-style="italic" lengthAdjust="spacing" textLength="62" x="36" y="28.7969">Collection</text><line style="stroke:#181818;stroke-width:0.5;" x1="8" x2="100" y1="39" y2="39"/><line style="stroke:#181818;stroke-width:0.5;" x1="8" x2="100" y1="47" y2="47"/></g><!--class List--><g id="elem_List"><rect codeLine="2" fill="#F1F1F1" height="48" id="List" rx="2.5" ry="2.5" style="stroke:#181818;stroke-width:0.5;" width="54" x="27" y="115"/><ellipse cx="42" cy="131" fill="#B4A7E5" rx="11" ry="11" style="stroke:#181818;stroke-width:1.0;"/><path d="M38.5938,125.7813 L38.5938,124.8438 L44.4375,124.8438 L44.4375,125.7813 L42.6406,125.7813 Q42.4688,125.7813 42.3906,125.8438 Q42.3125,125.9063 42.3125,126.0469 L42.3125,135.5313 Q42.3125,135.6719 42.3906,135.7344 Q42.4688,135.7969 42.6406,135.7969 L44.4375,135.7969 L44.4375,136.7344 L38.5938,136.7344 L38.5938,135.7969 L40.3906,135.7969 Q40.6094,135.7969 40.6563,135.75 Q40.7188,135.6875 40.7188,135.5313 L40.7188,126.0469 Q40.7188,125.8906 40.6563,125.8438 Q40.6094,125.7813 40.3906,125.7813 L38.5938,125.7813 Z " fill="#000000"/><text fill="#000000" font-family="sans-serif" font-size="14" font-style="italic" lengthAdjust="spacing" textLength="22" x="56" y="136.7969">List</text><line style="stroke:#181818;stroke-width:0.5;" x1="28" x2="80" y1="147" y2="147"/><line style="stroke:#181818;stroke-width:0.5;" x1="28" x2="80" y1="155" y2="155"/></g><!--class AbstractList--><g id="elem_AbstractList"><rect codeLine="4" fill="#F1F1F1" height="48" id="AbstractList" rx="2.5" ry="2.5" style="stroke:#181818;stroke-width:0.5;" width="106" x="116" y="115"/><ellipse cx="131" cy="131" fill="#A9DCDF" rx="11" ry="11" style="stroke:#181818;stroke-width:1.0;"/><path d="M131.4219,131.4844 L128.8594,131.4844 L128.3281,133.7813 Q128.2656,134.1094 128.2656,134.2656 Q128.2656,134.4844 128.3125,134.6406 Q128.375,134.7969 128.6563,134.7969 L129.125,134.7969 L129.125,135.7344 L126.1406,135.7344 L126.1406,134.7969 L126.5938,134.7969 Q126.7656,134.7969 126.8906,134.7031 Q127.0156,134.5938 127.0625,134.2969 L129.7031,123.9688 L131.1094,123.5 L133.6875,134.2656 Q133.7969,134.5781 133.9219,134.6875 Q134.0625,134.7969 134.2344,134.7969 L134.7031,134.7969 L134.7031,135.7344 L131.3125,135.7344 L131.3125,134.7969 L131.8438,134.7969 Q132.0625,134.7969 132.0781,134.75 Q132.1094,134.6875 132.1094,134.6094 Q132.1094,134.3906 132.0625,134.2031 L131.4219,131.4844 Z M126.8594,135.3281 L126.8594,135.3281 Z M127.5313,135.3281 L127.5313,135.3281 Z M132.25,135.3281 L132.25,135.3281 Z M133.375,135.3281 L133.375,135.3281 Z M130.1875,125.3906 L130.25,125.3906 L129.1406,130.5469 L131.2344,130.5469 L130.1875,125.3906 Z " fill="#000000"/><text fill="#000000" font-family="sans-serif" font-size="14" font-style="italic" lengthAdjust="spacing" textLength="74" x="145" y="136.7969">AbstractList</text><line style="stroke:#181818;stroke-width:0.5;" x1="117" x2="221" y1="147" y2="147"/><line style="stroke:#181818;stroke-width:0.5;" x1="117" x2="221" y1="155" y2="155"/></g><!--class ArrayList--><g id="elem_ArrayList"><rect codeLine="5" fill="#F1F1F1" height="48" id="ArrayList" rx="2.5" ry="2.5" style="stroke:#181818;stroke-width:0.5;" width="88" x="67" y="223"/><ellipse cx="82" cy="239" fill="#ADD1B2" rx="11" ry="11" style="stroke:#181818;stroke-width:1.0;"/><path d="M81.3438,244.8594 Q79.3594,244.8594 78.1875,243.3906 Q77.0313,241.9063 77.0313,238.8281 Q77.0313,236.2188 78.25,234.4688 Q79.4844,232.7188 81.6094,232.7188 Q82.1094,232.7188 82.6406,232.8594 Q83.0781,233.0469 83.3438,233.0469 Q83.5625,233.0469 83.6563,233 Q83.7656,232.9531 84.2188,232.3594 L84.9844,236.0938 L84.0938,236.3594 Q83.6406,234.9063 83.0313,234.3125 Q82.4375,233.7031 81.4844,233.7031 Q80.2656,233.7031 79.5469,235.1406 Q78.8281,236.5625 78.8281,238.75 Q78.8281,241.1563 79.4375,242.4531 Q80.0625,243.7344 81.4219,243.7344 Q82.375,243.7344 83.0625,243.0469 Q83.75,242.3438 84.0781,240.8438 L84.9844,241.25 Q84.5781,242.9531 83.6094,243.9063 Q82.6563,244.8594 81.3438,244.8594 Z " fill="#000000"/><text fill="#000000" font-family="sans-serif" font-size="14" lengthAdjust="spacing" textLength="56" x="96" y="244.7969">ArrayList</text><line style="stroke:#181818;stroke-width:0.5;" x1="68" x2="154" y1="255" y2="255"/><line style="stroke:#181818;stroke-width:0.5;" x1="68" x2="154" y1="263" y2="263"/></g><!--reverse link Collection to List--><g id="link_Collection_List"><path d="M54,73 C54,90.66 54,96.94 54,114.68 " fill="none" id="Collection-backto-List" style="stroke:#181818;stroke-width:1.0;"/><polygon fill="none" points="54,55,48,73,60,73,54,55" style="stroke:#181818;stroke-width:1.0;"/></g><!--reverse link AbstractList to ArrayList--><g id="link_AbstractList_ArrayList"><path d="M147.7719,178.7919 C138.1119,196.4519 133.47,204.94 123.76,222.68 " fill="none" id="AbstractList-backto-ArrayList" style="stroke:#181818;stroke-width:1.0;"/><polygon fill="none" points="156.41,163,142.5079,175.9125,153.0358,181.6712,156.41,163" style="stroke:#181818;stroke-width:1.0;"/></g><!--reverse link List to ArrayList--><g id="link_List_ArrayList"><path d="M74.8904,178.8557 C84.3804,196.5157 88.92,204.94 98.46,222.68 " fill="none" id="List-backto-ArrayList" style="stroke:#181818;stroke-width:1.0;stroke-dasharray:7.0,7.0;"/><polygon fill="none" points="66.37,163,69.6052,181.6958,80.1756,176.0155,66.37,163" style="stroke:#181818;stroke-width:1.0;"/></g><!--SRC=[LOr12e0m30JlVKM-8bxzH8mH0cagIGxwUr6ArECECwnOikz837DJPKffLkI3YqG2dycsnMWKN2CTAO4K8s3gy_5BH-vu_VfH0gc7ScNBU4zk]--></g></svg>