<?xml version="1.0" encoding="us-ascii" standalone="no"?><svg xmlns="http://www.w3.org/2000/svg" xmlns:xlink="http://www.w3.org/1999/xlink" contentStyleType="text/css" height="106px" preserveAspectRatio="none" style="width:127px;height:106px;background:#FFFFFF;" version="1.1" viewBox="0 0 127 106" width="127px" zoomAndPan="magnify"><defs/><g><!--class Dummy--><g id="elem_Dummy"><rect codeLine="1" fill="#F1F1F1" height="85.2422" id="Dummy" rx="2.5" ry="2.5" style="stroke:#181818;stroke-width:0.5;" width="106" x="7" y="7"/><ellipse cx="34.15" cy="23" fill="#ADD1B2" rx="11" ry="11" style="stroke:#181818;stroke-width:1.0;"/><path d="M33.4938,28.8594 Q31.5094,28.8594 30.3375,27.3906 Q29.1813,25.9063 29.1813,22.8281 Q29.1813,20.2188 30.4,18.4688 Q31.6344,16.7188 33.7594,16.7188 Q34.2594,16.7188 34.7906,16.8594 Q35.2281,17.0469 35.4938,17.0469 Q35.7125,17.0469 35.8063,17 Q35.9156,16.9531 36.3688,16.3594 L37.1344,20.0938 L36.2438,20.3594 Q35.7906,18.9063 35.1813,18.3125 Q34.5875,17.7031 33.6344,17.7031 Q32.4156,17.7031 31.6969,19.1406 Q30.9781,20.5625 30.9781,22.75 Q30.9781,25.1563 31.5875,26.4531 Q32.2125,27.7344 33.5719,27.7344 Q34.525,27.7344 35.2125,27.0469 Q35.9,26.3438 36.2281,24.8438 L37.1344,25.25 Q36.7281,26.9531 35.7594,27.9063 Q34.8063,28.8594 33.4938,28.8594 Z " fill="#000000"/><text fill="#000000" font-family="sans-serif" font-size="14" lengthAdjust="spacing" textLength="47" x="50.85" y="28.7969">Dummy</text><line style="stroke:#181818;stroke-width:0.5;" x1="8" x2="112" y1="39" y2="39"/><text fill="#000000" font-family="sans-serif" font-size="14" lengthAdjust="spacing" textLength="69" x="13" y="58.1074">String data</text><line style="stroke:#181818;stroke-width:0.5;" x1="8" x2="112" y1="65.6211" y2="65.6211"/><text fill="#000000" font-family="sans-serif" font-size="14" lengthAdjust="spacing" textLength="94" x="13" y="84.7285">void methods()</text></g><!--SRC=[Iyv9B2vMS2dDpQrKgEPIK0WkAShCIrT8IIn91FBAyZDJ579JIpBoKuerDBbg0G00]--></g></svg>