<?xml version="1.0" encoding="us-ascii" standalone="no"?><svg xmlns="http://www.w3.org/2000/svg" xmlns:xlink="http://www.w3.org/1999/xlink" contentStyleType="text/css" height="321px" preserveAspectRatio="none" style="width:229px;height:321px;background:#FFFFFF;" version="1.1" viewBox="0 0 229 321" width="229px" zoomAndPan="magnify"><defs/><g><!--cluster A--><g id="cluster_A"><path d="M8.5,6.0137 L18.5,6.0137 A3.75,3.75 0 0 1 21,8.5137 L28,30.6348 L219.5,30.6348 A2.5,2.5 0 0 1 222,33.1348 L222,311.5137 A2.5,2.5 0 0 1 219.5,314.0137 L8.5,314.0137 A2.5,2.5 0 0 1 6,311.5137 L6,8.5137 A2.5,2.5 0 0 1 8.5,6.0137 " fill="none" style="stroke:#000000;stroke-width:1.5;"/><line style="stroke:#000000;stroke-width:1.5;" x1="6" x2="28" y1="30.6348" y2="30.6348"/><text fill="#000000" font-family="sans-serif" font-size="14" font-weight="bold" lengthAdjust="spacing" textLength="9" x="10" y="23.1211">A</text></g><!--cluster B--><g id="cluster_B"><path d="M32.5,51.0137 L43.5,51.0137 A3.75,3.75 0 0 1 46,53.5137 L53,75.6348 L195.5,75.6348 A2.5,2.5 0 0 1 198,78.1348 L198,287.5137 A2.5,2.5 0 0 1 195.5,290.0137 L32.5,290.0137 A2.5,2.5 0 0 1 30,287.5137 L30,53.5137 A2.5,2.5 0 0 1 32.5,51.0137 " fill="none" style="stroke:#000000;stroke-width:1.5;"/><line style="stroke:#000000;stroke-width:1.5;" x1="30" x2="53" y1="75.6348" y2="75.6348"/><text fill="#000000" font-family="sans-serif" font-size="14" font-weight="bold" lengthAdjust="spacing" textLength="10" x="34" y="68.1211">B</text></g><!--cluster C--><g id="cluster_C"><path d="M56.5,96.0137 L67.5,96.0137 A3.75,3.75 0 0 1 70,98.5137 L77,120.6348 L171.5,120.6348 A2.5,2.5 0 0 1 174,123.1348 L174,263.5137 A2.5,2.5 0 0 1 171.5,266.0137 L56.5,266.0137 A2.5,2.5 0 0 1 54,263.5137 L54,98.5137 A2.5,2.5 0 0 1 56.5,96.0137 " fill="none" style="stroke:#000000;stroke-width:1.5;"/><line style="stroke:#000000;stroke-width:1.5;" x1="54" x2="77" y1="120.6348" y2="120.6348"/><text fill="#000000" font-family="sans-serif" font-size="14" font-weight="bold" lengthAdjust="spacing" textLength="10" x="58" y="113.1211">C</text></g><!--cluster D--><g id="cluster_D"><path d="M80.5,141.0137 L91.5,141.0137 A3.75,3.75 0 0 1 94,143.5137 L101,165.6348 L147.5,165.6348 A2.5,2.5 0 0 1 150,168.1348 L150,239.5137 A2.5,2.5 0 0 1 147.5,242.0137 L80.5,242.0137 A2.5,2.5 0 0 1 78,239.5137 L78,143.5137 A2.5,2.5 0 0 1 80.5,141.0137 " fill="none" style="stroke:#000000;stroke-width:1.5;"/><line style="stroke:#000000;stroke-width:1.5;" x1="78" x2="101" y1="165.6348" y2="165.6348"/><text fill="#000000" font-family="sans-serif" font-size="14" font-weight="bold" lengthAdjust="spacing" textLength="10" x="82" y="158.1211">D</text></g><!--class Z--><g id="elem_Z"><rect codeLine="1" fill="#F1F1F1" height="48" id="Z" rx="2.5" ry="2.5" style="stroke:#181818;stroke-width:0.5;" width="40" x="94" y="178.0137"/><ellipse cx="109" cy="194.0137" fill="#ADD1B2" rx="11" ry="11" style="stroke:#181818;stroke-width:1.0;"/><path d="M108.3438,199.873 Q106.3594,199.873 105.1875,198.4043 Q104.0313,196.9199 104.0313,193.8418 Q104.0313,191.2324 105.25,189.4824 Q106.4844,187.7324 108.6094,187.7324 Q109.1094,187.7324 109.6406,187.873 Q110.0781,188.0605 110.3438,188.0605 Q110.5625,188.0605 110.6563,188.0137 Q110.7656,187.9668 111.2188,187.373 L111.9844,191.1074 L111.0938,191.373 Q110.6406,189.9199 110.0313,189.3262 Q109.4375,188.7168 108.4844,188.7168 Q107.2656,188.7168 106.5469,190.1543 Q105.8281,191.5762 105.8281,193.7637 Q105.8281,196.1699 106.4375,197.4668 Q107.0625,198.748 108.4219,198.748 Q109.375,198.748 110.0625,198.0605 Q110.75,197.3574 111.0781,195.8574 L111.9844,196.2637 Q111.5781,197.9668 110.6094,198.9199 Q109.6563,199.873 108.3438,199.873 Z " fill="#000000"/><text fill="#000000" font-family="sans-serif" font-size="14" lengthAdjust="spacing" textLength="8" x="123" y="199.8105">Z</text><line style="stroke:#181818;stroke-width:0.5;" x1="95" x2="133" y1="210.0137" y2="210.0137"/><line style="stroke:#181818;stroke-width:0.5;" x1="95" x2="133" y1="218.0137" y2="218.0137"/></g><!--SRC=[Iyv9B2vMSDHpqdFMSz6BKgZcgWK0]--></g></svg>