<?xml version="1.0" encoding="us-ascii" standalone="no"?><svg xmlns="http://www.w3.org/2000/svg" xmlns:xlink="http://www.w3.org/1999/xlink" contentStyleType="text/css" height="396px" preserveAspectRatio="none" style="width:592px;height:396px;background:#FFFFFF;" version="1.1" viewBox="0 0 592 396" width="592px" zoomAndPan="magnify"><defs/><g><!--class Object--><g id="elem_Object"><rect codeLine="1" fill="#F1F1F1" height="60.582" id="Object" rx="2.5" ry="2.5" style="stroke:#181818;stroke-width:0.5;" width="84" x="299.5" y="115"/><ellipse cx="314.5" cy="137.291" fill="#ADD1B2" rx="11" ry="11" style="stroke:#181818;stroke-width:1.0;"/><path d="M313.8438,143.1504 Q311.8594,143.1504 310.6875,141.6816 Q309.5313,140.1973 309.5313,137.1191 Q309.5313,134.5098 310.75,132.7598 Q311.9844,131.0098 314.1094,131.0098 Q314.6094,131.0098 315.1406,131.1504 Q315.5781,131.3379 315.8438,131.3379 Q316.0625,131.3379 316.1563,131.291 Q316.2656,131.2441 316.7188,130.6504 L317.4844,134.3848 L316.5938,134.6504 Q316.1406,133.1973 315.5313,132.6035 Q314.9375,131.9941 313.9844,131.9941 Q312.7656,131.9941 312.0469,133.4316 Q311.3281,134.8535 311.3281,137.041 Q311.3281,139.4473 311.9375,140.7441 Q312.5625,142.0254 313.9219,142.0254 Q314.875,142.0254 315.5625,141.3379 Q316.25,140.6348 316.5781,139.1348 L317.4844,139.541 Q317.0781,141.2441 316.1094,142.1973 Q315.1563,143.1504 313.8438,143.1504 Z " fill="#000000"/><text fill="#000000" font-family="sans-serif" font-size="12" font-style="italic" lengthAdjust="spacing" textLength="56" x="326.5" y="132.9492">&#171;general&#187;</text><text fill="#000000" font-family="sans-serif" font-size="14" lengthAdjust="spacing" textLength="41" x="334" y="151.0684">Object</text><line style="stroke:#181818;stroke-width:0.5;" x1="300.5" x2="382.5" y1="159.582" y2="159.582"/><line style="stroke:#181818;stroke-width:0.5;" x1="300.5" x2="382.5" y1="167.582" y2="167.582"/></g><!--class ArrayList--><g id="elem_ArrayList"><rect fill="#F1F1F1" height="48" id="ArrayList" rx="2.5" ry="2.5" style="stroke:#181818;stroke-width:0.5;" width="88" x="297.5" y="341"/><ellipse cx="312.5" cy="357" fill="#ADD1B2" rx="11" ry="11" style="stroke:#181818;stroke-width:1.0;"/><path d="M311.8438,362.8594 Q309.8594,362.8594 308.6875,361.3906 Q307.5313,359.9063 307.5313,356.8281 Q307.5313,354.2188 308.75,352.4688 Q309.9844,350.7188 312.1094,350.7188 Q312.6094,350.7188 313.1406,350.8594 Q313.5781,351.0469 313.8438,351.0469 Q314.0625,351.0469 314.1563,351 Q314.2656,350.9531 314.7188,350.3594 L315.4844,354.0938 L314.5938,354.3594 Q314.1406,352.9063 313.5313,352.3125 Q312.9375,351.7031 311.9844,351.7031 Q310.7656,351.7031 310.0469,353.1406 Q309.3281,354.5625 309.3281,356.75 Q309.3281,359.1563 309.9375,360.4531 Q310.5625,361.7344 311.9219,361.7344 Q312.875,361.7344 313.5625,361.0469 Q314.25,360.3438 314.5781,358.8438 L315.4844,359.25 Q315.0781,360.9531 314.1094,361.9063 Q313.1563,362.8594 311.8438,362.8594 Z " fill="#000000"/><text fill="#000000" font-family="sans-serif" font-size="14" lengthAdjust="spacing" textLength="56" x="326.5" y="362.7969">ArrayList</text><line style="stroke:#181818;stroke-width:0.5;" x1="298.5" x2="384.5" y1="373" y2="373"/><line style="stroke:#181818;stroke-width:0.5;" x1="298.5" x2="384.5" y1="381" y2="381"/></g><g id="elem_GMN5"><path d="M276.5,8.5 L276.5,53.082 A0,0 0 0 0 276.5,53.082 L337.5,53.082 L341.5,114.79 L345.5,53.082 L406.5,53.082 A0,0 0 0 0 406.5,53.082 L406.5,18.5 L396.5,8.5 L276.5,8.5 A0,0 0 0 0 276.5,8.5 " fill="#FEFFDD" style="stroke:#181818;stroke-width:0.5;"/><path d="M396.5,8.5 L396.5,18.5 L406.5,18.5 L396.5,8.5 " fill="#FEFFDD" style="stroke:#181818;stroke-width:0.5;"/><text fill="#000000" font-family="sans-serif" font-size="13" lengthAdjust="spacing" textLength="109" x="282.5" y="27.5283">In java, every class</text><text fill="#000000" font-family="sans-serif" font-size="13" lengthAdjust="spacing" textLength="100" x="282.5" y="44.8193">extends this one.</text></g><g id="elem_N1"><path d="M441.5,17.5 L441.5,44.791 L585.5,44.791 L585.5,27.5 L575.5,17.5 L441.5,17.5 " fill="#FEFFDD" style="stroke:#181818;stroke-width:0.5;"/><path d="M575.5,17.5 L575.5,27.5 L585.5,27.5 L575.5,17.5 " fill="#FEFFDD" style="stroke:#181818;stroke-width:1.0;"/><text fill="#000000" font-family="sans-serif" font-size="13" lengthAdjust="spacing" textLength="123" x="447.5" y="36.5283">This is a floating note</text></g><g id="elem_N2"><path d="M330.5,236 L330.5,280.582 L482.5,280.582 L482.5,246 L472.5,236 L330.5,236 " fill="#FEFFDD" style="stroke:#181818;stroke-width:0.5;"/><path d="M472.5,236 L472.5,246 L482.5,246 L472.5,236 " fill="#FEFFDD" style="stroke:#181818;stroke-width:1.0;"/><text fill="#000000" font-family="sans-serif" font-size="13" lengthAdjust="spacing" textLength="131" x="336.5" y="255.0283">This note is connected</text><text fill="#000000" font-family="sans-serif" font-size="13" lengthAdjust="spacing" textLength="105" x="336.5" y="272.3193">to several objects.</text></g><!--class Foo--><g id="elem_Foo"><rect codeLine="11" fill="#F1F1F1" height="48" id="Foo" rx="2.5" ry="2.5" style="stroke:#181818;stroke-width:0.5;" width="57" x="184" y="7"/><ellipse cx="199" cy="23" fill="#ADD1B2" rx="11" ry="11" style="stroke:#181818;stroke-width:1.0;"/><path d="M198.3438,28.8594 Q196.3594,28.8594 195.1875,27.3906 Q194.0313,25.9063 194.0313,22.8281 Q194.0313,20.2188 195.25,18.4688 Q196.4844,16.7188 198.6094,16.7188 Q199.1094,16.7188 199.6406,16.8594 Q200.0781,17.0469 200.3438,17.0469 Q200.5625,17.0469 200.6563,17 Q200.7656,16.9531 201.2188,16.3594 L201.9844,20.0938 L201.0938,20.3594 Q200.6406,18.9063 200.0313,18.3125 Q199.4375,17.7031 198.4844,17.7031 Q197.2656,17.7031 196.5469,19.1406 Q195.8281,20.5625 195.8281,22.75 Q195.8281,25.1563 196.4375,26.4531 Q197.0625,27.7344 198.4219,27.7344 Q199.375,27.7344 200.0625,27.0469 Q200.75,26.3438 201.0781,24.8438 L201.9844,25.25 Q201.5781,26.9531 200.6094,27.9063 Q199.6563,28.8594 198.3438,28.8594 Z " fill="#000000"/><text fill="#000000" font-family="sans-serif" font-size="14" lengthAdjust="spacing" textLength="25" x="213" y="28.7969">Foo</text><line style="stroke:#181818;stroke-width:0.5;" x1="185" x2="240" y1="39" y2="39"/><line style="stroke:#181818;stroke-width:0.5;" x1="185" x2="240" y1="47" y2="47"/></g><g id="elem_GMN13"><path d="M6,17.5 L6,44.791 A0,0 0 0 0 6,44.791 L149,44.791 A0,0 0 0 0 149,44.791 L149,35.5 L183.83,31 L149,27.5 L149,27.5 L139,17.5 L6,17.5 A0,0 0 0 0 6,17.5 " fill="#FEFFDD" style="stroke:#181818;stroke-width:0.5;"/><path d="M139,17.5 L139,27.5 L149,27.5 L139,17.5 " fill="#FEFFDD" style="stroke:#181818;stroke-width:0.5;"/><text fill="#000000" font-family="sans-serif" font-size="13" lengthAdjust="spacing" textLength="122" x="12" y="36.5283">On last defined class</text></g><!--reverse link Object to ArrayList--><g id="link_Object_ArrayList"><path codeLine="2" d="M323.6228,193.1395 C317.4528,210.3095 316.62,215.56 313.5,236 C310.48,255.77 310.26,261.26 313.5,281 C316.92,301.86 324.88,324.54 331.45,340.91 " fill="none" id="Object-backto-ArrayList" style="stroke:#181818;stroke-width:1.0;"/><polygon fill="none" points="329.71,176.2,317.9763,191.1104,329.2693,195.1685,329.71,176.2" style="stroke:#181818;stroke-width:1.0;"/></g><!--link Object to N2--><g id="link_Object_N2"><path codeLine="8" d="M358.92,176.25 C369.9,195 383.83,218.79 393.78,235.77 " fill="none" id="Object-N2" style="stroke:#181818;stroke-width:1.0;stroke-dasharray:7.0,7.0;"/></g><!--link N2 to ArrayList--><g id="link_N2_ArrayList"><path codeLine="9" d="M393.03,281.15 C382.17,298.61 366.94,323.1 355.85,340.93 " fill="none" id="N2-ArrayList" style="stroke:#181818;stroke-width:1.0;stroke-dasharray:7.0,7.0;"/></g><!--SRC=[JOx12eD034JlViNWkGhrA2BqKYWKlVJePQlHAf8KDqY5VdntjO8GI7QIsNdrQAn5-HoeLcGPEcAQp8Wy3tRn6qKHBjDabdjlDGXObA3oXhIxCSMDCPZPd40pJGjg_st5z57Yna9VlOKmnNzt-F22AuDs5ACzT_2B4CQYE1-Frj7rMfXT53KLgy3w68SfQxwDDsEoCyUnVnI97mxaAnMk8bl0IAscA1bELZJKzapDXXxy0000]--></g></svg>