<?xml version="1.0" encoding="us-ascii" standalone="no"?><svg xmlns="http://www.w3.org/2000/svg" xmlns:xlink="http://www.w3.org/1999/xlink" contentStyleType="text/css" height="209px" preserveAspectRatio="none" style="width:355px;height:209px;background:#FFFFFF;" version="1.1" viewBox="0 0 355 209" width="355px" zoomAndPan="magnify"><defs/><g><text fill="#000000" font-family="sans-serif" font-size="14" font-weight="bold" lengthAdjust="spacing" textLength="142" x="99.5" y="25.1074">Bracketed line color</text><!--class foo--><g id="elem_foo"><rect codeLine="2" fill="#F1F1F1" height="48" id="foo" rx="2.5" ry="2.5" style="stroke:#181818;stroke-width:0.5;" width="52" x="147.5" y="46.6211"/><ellipse cx="162.5" cy="62.6211" fill="#ADD1B2" rx="11" ry="11" style="stroke:#181818;stroke-width:1.0;"/><path d="M161.8438,68.4805 Q159.8594,68.4805 158.6875,67.0117 Q157.5313,65.5273 157.5313,62.4492 Q157.5313,59.8398 158.75,58.0898 Q159.9844,56.3398 162.1094,56.3398 Q162.6094,56.3398 163.1406,56.4805 Q163.5781,56.668 163.8438,56.668 Q164.0625,56.668 164.1563,56.6211 Q164.2656,56.5742 164.7188,55.9805 L165.4844,59.7148 L164.5938,59.9805 Q164.1406,58.5273 163.5313,57.9336 Q162.9375,57.3242 161.9844,57.3242 Q160.7656,57.3242 160.0469,58.7617 Q159.3281,60.1836 159.3281,62.3711 Q159.3281,64.7773 159.9375,66.0742 Q160.5625,67.3555 161.9219,67.3555 Q162.875,67.3555 163.5625,66.668 Q164.25,65.9648 164.5781,64.4648 L165.4844,64.8711 Q165.0781,66.5742 164.1094,67.5273 Q163.1563,68.4805 161.8438,68.4805 Z " fill="#000000"/><text fill="#000000" font-family="sans-serif" font-size="14" lengthAdjust="spacing" textLength="20" x="176.5" y="68.418">foo</text><line style="stroke:#181818;stroke-width:0.5;" x1="148.5" x2="198.5" y1="78.6211" y2="78.6211"/><line style="stroke:#181818;stroke-width:0.5;" x1="148.5" x2="198.5" y1="86.6211" y2="86.6211"/></g><!--class bar--><g id="elem_bar"><rect codeLine="3" fill="#F1F1F1" height="48" id="bar" rx="2.5" ry="2.5" style="stroke:#181818;stroke-width:0.5;" width="53" x="7" y="154.6211"/><ellipse cx="22" cy="170.6211" fill="#ADD1B2" rx="11" ry="11" style="stroke:#181818;stroke-width:1.0;"/><path d="M21.3438,176.4805 Q19.3594,176.4805 18.1875,175.0117 Q17.0313,173.5273 17.0313,170.4492 Q17.0313,167.8398 18.25,166.0898 Q19.4844,164.3398 21.6094,164.3398 Q22.1094,164.3398 22.6406,164.4805 Q23.0781,164.668 23.3438,164.668 Q23.5625,164.668 23.6563,164.6211 Q23.7656,164.5742 24.2188,163.9805 L24.9844,167.7148 L24.0938,167.9805 Q23.6406,166.5273 23.0313,165.9336 Q22.4375,165.3242 21.4844,165.3242 Q20.2656,165.3242 19.5469,166.7617 Q18.8281,168.1836 18.8281,170.3711 Q18.8281,172.7773 19.4375,174.0742 Q20.0625,175.3555 21.4219,175.3555 Q22.375,175.3555 23.0625,174.668 Q23.75,173.9648 24.0781,172.4648 L24.9844,172.8711 Q24.5781,174.5742 23.6094,175.5273 Q22.6563,176.4805 21.3438,176.4805 Z " fill="#000000"/><text fill="#000000" font-family="sans-serif" font-size="14" lengthAdjust="spacing" textLength="21" x="36" y="176.418">bar</text><line style="stroke:#181818;stroke-width:0.5;" x1="8" x2="59" y1="186.6211" y2="186.6211"/><line style="stroke:#181818;stroke-width:0.5;" x1="8" x2="59" y1="194.6211" y2="194.6211"/></g><!--class bar1--><g id="elem_bar1"><rect fill="#F1F1F1" height="48" id="bar1" rx="2.5" ry="2.5" style="stroke:#181818;stroke-width:0.5;" width="61" x="95" y="154.6211"/><ellipse cx="110" cy="170.6211" fill="#ADD1B2" rx="11" ry="11" style="stroke:#181818;stroke-width:1.0;"/><path d="M109.3438,176.4805 Q107.3594,176.4805 106.1875,175.0117 Q105.0313,173.5273 105.0313,170.4492 Q105.0313,167.8398 106.25,166.0898 Q107.4844,164.3398 109.6094,164.3398 Q110.1094,164.3398 110.6406,164.4805 Q111.0781,164.668 111.3438,164.668 Q111.5625,164.668 111.6563,164.6211 Q111.7656,164.5742 112.2188,163.9805 L112.9844,167.7148 L112.0938,167.9805 Q111.6406,166.5273 111.0313,165.9336 Q110.4375,165.3242 109.4844,165.3242 Q108.2656,165.3242 107.5469,166.7617 Q106.8281,168.1836 106.8281,170.3711 Q106.8281,172.7773 107.4375,174.0742 Q108.0625,175.3555 109.4219,175.3555 Q110.375,175.3555 111.0625,174.668 Q111.75,173.9648 112.0781,172.4648 L112.9844,172.8711 Q112.5781,174.5742 111.6094,175.5273 Q110.6563,176.4805 109.3438,176.4805 Z " fill="#000000"/><text fill="#000000" font-family="sans-serif" font-size="14" lengthAdjust="spacing" textLength="29" x="124" y="176.418">bar1</text><line style="stroke:#181818;stroke-width:0.5;" x1="96" x2="155" y1="186.6211" y2="186.6211"/><line style="stroke:#181818;stroke-width:0.5;" x1="96" x2="155" y1="194.6211" y2="194.6211"/></g><!--class bar2--><g id="elem_bar2"><rect fill="#F1F1F1" height="48" id="bar2" rx="2.5" ry="2.5" style="stroke:#181818;stroke-width:0.5;" width="61" x="191" y="154.6211"/><ellipse cx="206" cy="170.6211" fill="#ADD1B2" rx="11" ry="11" style="stroke:#181818;stroke-width:1.0;"/><path d="M205.3438,176.4805 Q203.3594,176.4805 202.1875,175.0117 Q201.0313,173.5273 201.0313,170.4492 Q201.0313,167.8398 202.25,166.0898 Q203.4844,164.3398 205.6094,164.3398 Q206.1094,164.3398 206.6406,164.4805 Q207.0781,164.668 207.3438,164.668 Q207.5625,164.668 207.6563,164.6211 Q207.7656,164.5742 208.2188,163.9805 L208.9844,167.7148 L208.0938,167.9805 Q207.6406,166.5273 207.0313,165.9336 Q206.4375,165.3242 205.4844,165.3242 Q204.2656,165.3242 203.5469,166.7617 Q202.8281,168.1836 202.8281,170.3711 Q202.8281,172.7773 203.4375,174.0742 Q204.0625,175.3555 205.4219,175.3555 Q206.375,175.3555 207.0625,174.668 Q207.75,173.9648 208.0781,172.4648 L208.9844,172.8711 Q208.5781,174.5742 207.6094,175.5273 Q206.6563,176.4805 205.3438,176.4805 Z " fill="#000000"/><text fill="#000000" font-family="sans-serif" font-size="14" lengthAdjust="spacing" textLength="29" x="220" y="176.418">bar2</text><line style="stroke:#181818;stroke-width:0.5;" x1="192" x2="251" y1="186.6211" y2="186.6211"/><line style="stroke:#181818;stroke-width:0.5;" x1="192" x2="251" y1="194.6211" y2="194.6211"/></g><!--class bar3--><g id="elem_bar3"><rect fill="#F1F1F1" height="48" id="bar3" rx="2.5" ry="2.5" style="stroke:#181818;stroke-width:0.5;" width="61" x="287" y="154.6211"/><ellipse cx="302" cy="170.6211" fill="#ADD1B2" rx="11" ry="11" style="stroke:#181818;stroke-width:1.0;"/><path d="M301.3438,176.4805 Q299.3594,176.4805 298.1875,175.0117 Q297.0313,173.5273 297.0313,170.4492 Q297.0313,167.8398 298.25,166.0898 Q299.4844,164.3398 301.6094,164.3398 Q302.1094,164.3398 302.6406,164.4805 Q303.0781,164.668 303.3438,164.668 Q303.5625,164.668 303.6563,164.6211 Q303.7656,164.5742 304.2188,163.9805 L304.9844,167.7148 L304.0938,167.9805 Q303.6406,166.5273 303.0313,165.9336 Q302.4375,165.3242 301.4844,165.3242 Q300.2656,165.3242 299.5469,166.7617 Q298.8281,168.1836 298.8281,170.3711 Q298.8281,172.7773 299.4375,174.0742 Q300.0625,175.3555 301.4219,175.3555 Q302.375,175.3555 303.0625,174.668 Q303.75,173.9648 304.0781,172.4648 L304.9844,172.8711 Q304.5781,174.5742 303.6094,175.5273 Q302.6563,176.4805 301.3438,176.4805 Z " fill="#000000"/><text fill="#000000" font-family="sans-serif" font-size="14" lengthAdjust="spacing" textLength="29" x="316" y="176.418">bar3</text><line style="stroke:#181818;stroke-width:0.5;" x1="288" x2="347" y1="186.6211" y2="186.6211"/><line style="stroke:#181818;stroke-width:0.5;" x1="288" x2="347" y1="194.6211" y2="194.6211"/></g><!--link foo to bar--><g id="link_foo_bar"><path codeLine="5" d="M147.5,91.3111 C122.67,110.1111 90.2039,134.6898 65.1039,153.6898 " fill="none" id="foo-to-bar" style="stroke:#181818;stroke-width:1.0;"/><polygon fill="#181818" points="60.32,157.3111,69.9101,155.0684,64.3066,154.2933,65.0817,148.6898,60.32,157.3111" style="stroke:#181818;stroke-width:1.0;"/></g><!--link foo to bar1--><g id="link_foo_bar1"><path codeLine="6" d="M163.08,94.6211 C155.09,112.2811 146.5642,131.095 138.5342,148.835 " fill="none" id="foo-to-bar1" style="stroke:#FF0000;stroke-width:1.0;"/><polygon fill="#FF0000" points="136.06,154.3011,143.4154,147.7514,138.1219,149.746,136.1273,144.4525,136.06,154.3011" style="stroke:#FF0000;stroke-width:1.0;"/></g><!--link foo to bar2--><g id="link_foo_bar2"><path codeLine="7" d="M183.92,94.6211 C191.91,112.2811 200.4358,131.095 208.4658,148.835 " fill="none" id="foo-to-bar2" style="stroke:#008000;stroke-width:1.0;"/><polygon fill="#008000" points="210.94,154.3011,210.8727,144.4525,208.8781,149.746,203.5846,147.7514,210.94,154.3011" style="stroke:#008000;stroke-width:1.0;"/></g><!--link foo to bar3--><g id="link_foo_bar3"><path codeLine="8" d="M199.58,90.8211 C224.14,108.8911 256.0976,132.4248 282.0376,151.5148 " fill="none" id="foo-to-bar3" style="stroke:#0000FF;stroke-width:1.0;"/><polygon fill="#0000FF" points="286.87,155.0711,281.9922,146.515,282.843,152.1075,277.2504,152.9582,286.87,155.0711" style="stroke:#0000FF;stroke-width:1.0;"/></g><!--SRC=[AyaioKbLS2fAJCvEBKbDKSZ9p4jLICxFoI_YIiv9B2vMIClFXxAI4ekuk81S1LrTEp07p8vMBafDYOM86CA4qejIK_EWWaOmmQISqbIec340]--></g></svg>