<?xml version="1.0" encoding="us-ascii" standalone="no"?><svg xmlns="http://www.w3.org/2000/svg" xmlns:xlink="http://www.w3.org/1999/xlink" contentStyleType="text/css" height="114px" preserveAspectRatio="none" style="width:85px;height:114px;background:#FFFFFF;" version="1.1" viewBox="0 0 85 114" width="85px" zoomAndPan="magnify"><defs/><g><!--cluster D--><g id="cluster_D"><path d="M8.5,6.0137 L60.5,6.0137 A3.75,3.75 0 0 1 63,8.5137 L70,30.6348 L75.5,30.6348 A2.5,2.5 0 0 1 78,33.1348 L78,104.5137 A2.5,2.5 0 0 1 75.5,107.0137 L8.5,107.0137 A2.5,2.5 0 0 1 6,104.5137 L6,8.5137 A2.5,2.5 0 0 1 8.5,6.0137 " fill="none" style="stroke:#000000;stroke-width:1.5;"/><line style="stroke:#000000;stroke-width:1.5;" x1="6" x2="70" y1="30.6348" y2="30.6348"/><text fill="#000000" font-family="sans-serif" font-size="14" font-weight="bold" lengthAdjust="spacing" textLength="51" x="10" y="23.1211">A.B.C.D</text></g><!--class Z--><g id="elem_Z"><rect codeLine="2" fill="#F1F1F1" height="48" id="Z" rx="2.5" ry="2.5" style="stroke:#181818;stroke-width:0.5;" width="40" x="22" y="43.0137"/><ellipse cx="37" cy="59.0137" fill="#ADD1B2" rx="11" ry="11" style="stroke:#181818;stroke-width:1.0;"/><path d="M36.3438,64.873 Q34.3594,64.873 33.1875,63.4043 Q32.0313,61.9199 32.0313,58.8418 Q32.0313,56.2324 33.25,54.4824 Q34.4844,52.7324 36.6094,52.7324 Q37.1094,52.7324 37.6406,52.873 Q38.0781,53.0605 38.3438,53.0605 Q38.5625,53.0605 38.6563,53.0137 Q38.7656,52.9668 39.2188,52.373 L39.9844,56.1074 L39.0938,56.373 Q38.6406,54.9199 38.0313,54.3262 Q37.4375,53.7168 36.4844,53.7168 Q35.2656,53.7168 34.5469,55.1543 Q33.8281,56.5762 33.8281,58.7637 Q33.8281,61.1699 34.4375,62.4668 Q35.0625,63.748 36.4219,63.748 Q37.375,63.748 38.0625,63.0605 Q38.75,62.3574 39.0781,60.8574 L39.9844,61.2637 Q39.5781,62.9668 38.6094,63.9199 Q37.6563,64.873 36.3438,64.873 Z " fill="#000000"/><text fill="#000000" font-family="sans-serif" font-size="14" lengthAdjust="spacing" textLength="8" x="51" y="64.8105">Z</text><line style="stroke:#181818;stroke-width:0.5;" x1="23" x2="61" y1="75.0137" y2="75.0137"/><line style="stroke:#181818;stroke-width:0.5;" x1="23" x2="61" y1="83.0137" y2="83.0137"/></g><!--SRC=[KomeIapFJLGeBKxrp2j9BSfDJSbCB4aDI4pEJanFBLP8IymfJkLApaaiBbPmr7FISzPpqOjIgEQg1G00]--></g></svg>