<?xml version="1.0" encoding="us-ascii" standalone="no"?><svg xmlns="http://www.w3.org/2000/svg" xmlns:xlink="http://www.w3.org/1999/xlink" contentStyleType="text/css" height="143px" preserveAspectRatio="none" style="width:112px;height:143px;background:#FFFFFF;" version="1.1" viewBox="0 0 112 143" width="112px" zoomAndPan="magnify"><defs/><g><!--class Dummy--><g id="elem_Dummy"><rect codeLine="1" fill="#F1F1F1" height="122.4844" id="Dummy" rx="2.5" ry="2.5" style="stroke:#181818;stroke-width:0.5;" width="91" x="7" y="7"/><ellipse cx="27.4" cy="23" fill="#ADD1B2" rx="11" ry="11" style="stroke:#181818;stroke-width:1.0;"/><path d="M26.7438,28.8594 Q24.7594,28.8594 23.5875,27.3906 Q22.4313,25.9063 22.4313,22.8281 Q22.4313,20.2188 23.65,18.4688 Q24.8844,16.7188 27.0094,16.7188 Q27.5094,16.7188 28.0406,16.8594 Q28.4781,17.0469 28.7438,17.0469 Q28.9625,17.0469 29.0563,17 Q29.1656,16.9531 29.6188,16.3594 L30.3844,20.0938 L29.4938,20.3594 Q29.0406,18.9063 28.4313,18.3125 Q27.8375,17.7031 26.8844,17.7031 Q25.6656,17.7031 24.9469,19.1406 Q24.2281,20.5625 24.2281,22.75 Q24.2281,25.1563 24.8375,26.4531 Q25.4625,27.7344 26.8219,27.7344 Q27.775,27.7344 28.4625,27.0469 Q29.15,26.3438 29.4781,24.8438 L30.3844,25.25 Q29.9781,26.9531 29.0094,27.9063 Q28.0563,28.8594 26.7438,28.8594 Z " fill="#000000"/><text fill="#000000" font-family="sans-serif" font-size="14" lengthAdjust="spacing" textLength="47" x="42.6" y="28.7969">Dummy</text><line style="stroke:#181818;stroke-width:0.5;" x1="8" x2="97" y1="39" y2="39"/><rect fill="none" height="6" style="stroke:#C82930;stroke-width:1.0;" width="6" x="15" y="50.8105"/><text fill="#000000" font-family="sans-serif" font-size="14" lengthAdjust="spacing" textLength="34" x="27" y="58.1074">field1</text><polygon fill="none" points="18,67.4316,22,71.4316,18,75.4316,14,71.4316" style="stroke:#B38D22;stroke-width:1.0;"/><text fill="#000000" font-family="sans-serif" font-size="14" lengthAdjust="spacing" textLength="34" x="27" y="76.7285">field2</text><line style="stroke:#181818;stroke-width:0.5;" x1="8" x2="97" y1="84.2422" y2="84.2422"/><polygon fill="#4177AF" points="18,95.0527,14,101.0527,22,101.0527" style="stroke:#1963A0;stroke-width:1.0;"/><text fill="#000000" font-family="sans-serif" font-size="14" lengthAdjust="spacing" textLength="65" x="27" y="103.3496">method1()</text><ellipse cx="18" cy="117.6738" fill="#84BE84" rx="3" ry="3" style="stroke:#038048;stroke-width:1.0;"/><text fill="#000000" font-family="sans-serif" font-size="14" lengthAdjust="spacing" textLength="65" x="27" y="121.9707">method2()</text></g><!--SRC=[Iyv9B2vMS2dDpQrKgEPIq4tBJCr9CUHIK0OpZBWKwd9JIpBoKmmrDBaKj25i8o2x5W00]--></g></svg>