<?xml version="1.0" encoding="us-ascii" standalone="no"?><svg xmlns="http://www.w3.org/2000/svg" xmlns:xlink="http://www.w3.org/1999/xlink" contentStyleType="text/css" height="226px" preserveAspectRatio="none" style="width:438px;height:226px;background:#FFFFFF;" version="1.1" viewBox="0 0 438 226" width="438px" zoomAndPan="magnify"><defs/><g><!--class Dummy--><g id="elem_Dummy"><rect codeLine="2" fill="#F1F1F1" height="48" id="Dummy" rx="2.5" ry="2.5" style="stroke:#181818;stroke-width:0.5;" width="79" x="75" y="7"/><ellipse cx="90" cy="23" fill="#ADD1B2" rx="11" ry="11" style="stroke:#181818;stroke-width:1.0;"/><path d="M89.3438,28.8594 Q87.3594,28.8594 86.1875,27.3906 Q85.0313,25.9063 85.0313,22.8281 Q85.0313,20.2188 86.25,18.4688 Q87.4844,16.7188 89.6094,16.7188 Q90.1094,16.7188 90.6406,16.8594 Q91.0781,17.0469 91.3438,17.0469 Q91.5625,17.0469 91.6563,17 Q91.7656,16.9531 92.2188,16.3594 L92.9844,20.0938 L92.0938,20.3594 Q91.6406,18.9063 91.0313,18.3125 Q90.4375,17.7031 89.4844,17.7031 Q88.2656,17.7031 87.5469,19.1406 Q86.8281,20.5625 86.8281,22.75 Q86.8281,25.1563 87.4375,26.4531 Q88.0625,27.7344 89.4219,27.7344 Q90.375,27.7344 91.0625,27.0469 Q91.75,26.3438 92.0781,24.8438 L92.9844,25.25 Q92.5781,26.9531 91.6094,27.9063 Q90.6563,28.8594 89.3438,28.8594 Z " fill="#000000"/><text fill="#000000" font-family="sans-serif" font-size="14" lengthAdjust="spacing" textLength="47" x="104" y="28.7969">Dummy</text><line style="stroke:#181818;stroke-width:0.5;" x1="76" x2="153" y1="39" y2="39"/><line style="stroke:#181818;stroke-width:0.5;" x1="76" x2="153" y1="47" y2="47"/></g><!--class Foo--><g id="elem_Foo"><rect fill="#F1F1F1" height="48" id="Foo" rx="2.5" ry="2.5" style="stroke:#181818;stroke-width:0.5;" width="57" x="7" y="171"/><ellipse cx="22" cy="187" fill="#ADD1B2" rx="11" ry="11" style="stroke:#181818;stroke-width:1.0;"/><path d="M21.3438,192.8594 Q19.3594,192.8594 18.1875,191.3906 Q17.0313,189.9063 17.0313,186.8281 Q17.0313,184.2188 18.25,182.4688 Q19.4844,180.7188 21.6094,180.7188 Q22.1094,180.7188 22.6406,180.8594 Q23.0781,181.0469 23.3438,181.0469 Q23.5625,181.0469 23.6563,181 Q23.7656,180.9531 24.2188,180.3594 L24.9844,184.0938 L24.0938,184.3594 Q23.6406,182.9063 23.0313,182.3125 Q22.4375,181.7031 21.4844,181.7031 Q20.2656,181.7031 19.5469,183.1406 Q18.8281,184.5625 18.8281,186.75 Q18.8281,189.1563 19.4375,190.4531 Q20.0625,191.7344 21.4219,191.7344 Q22.375,191.7344 23.0625,191.0469 Q23.75,190.3438 24.0781,188.8438 L24.9844,189.25 Q24.5781,190.9531 23.6094,191.9063 Q22.6563,192.8594 21.3438,192.8594 Z " fill="#000000"/><text fill="#000000" font-family="sans-serif" font-size="14" lengthAdjust="spacing" textLength="25" x="36" y="192.7969">Foo</text><line style="stroke:#181818;stroke-width:0.5;" x1="8" x2="63" y1="203" y2="203"/><line style="stroke:#181818;stroke-width:0.5;" x1="8" x2="63" y1="211" y2="211"/></g><!--class Foo2--><g id="elem_Foo2"><rect fill="#F1F1F1" height="48" id="Foo2" rx="2.5" ry="2.5" style="stroke:#181818;stroke-width:0.5;" width="65" x="161" y="171"/><ellipse cx="176" cy="187" fill="#ADD1B2" rx="11" ry="11" style="stroke:#181818;stroke-width:1.0;"/><path d="M175.3438,192.8594 Q173.3594,192.8594 172.1875,191.3906 Q171.0313,189.9063 171.0313,186.8281 Q171.0313,184.2188 172.25,182.4688 Q173.4844,180.7188 175.6094,180.7188 Q176.1094,180.7188 176.6406,180.8594 Q177.0781,181.0469 177.3438,181.0469 Q177.5625,181.0469 177.6563,181 Q177.7656,180.9531 178.2188,180.3594 L178.9844,184.0938 L178.0938,184.3594 Q177.6406,182.9063 177.0313,182.3125 Q176.4375,181.7031 175.4844,181.7031 Q174.2656,181.7031 173.5469,183.1406 Q172.8281,184.5625 172.8281,186.75 Q172.8281,189.1563 173.4375,190.4531 Q174.0625,191.7344 175.4219,191.7344 Q176.375,191.7344 177.0625,191.0469 Q177.75,190.3438 178.0781,188.8438 L178.9844,189.25 Q178.5781,190.9531 177.6094,191.9063 Q176.6563,192.8594 175.3438,192.8594 Z " fill="#000000"/><text fill="#000000" font-family="sans-serif" font-size="14" lengthAdjust="spacing" textLength="33" x="190" y="192.7969">Foo2</text><line style="stroke:#181818;stroke-width:0.5;" x1="162" x2="225" y1="203" y2="203"/><line style="stroke:#181818;stroke-width:0.5;" x1="162" x2="225" y1="211" y2="211"/></g><!--link Dummy to Foo--><g id="link_Dummy_Foo"><path codeLine="3" d="M74.9,47.39 C58.71,55.88 41.66,68.18 32.5,85 C18.02,111.6 21.395,141.6992 27.025,164.8992 " fill="none" id="Dummy-to-Foo" style="stroke:#181818;stroke-width:1.0;"/><polygon fill="#181818" points="28.44,170.73,30.2047,161.0405,27.2609,165.871,22.4304,162.9272,28.44,170.73" style="stroke:#181818;stroke-width:1.0;"/><text fill="#000000" font-family="sans-serif" font-size="13" lengthAdjust="spacing" textLength="33" x="75" y="100.0283">A link</text><path d="M37.5,109.291 L37.5,136.291 L145.5,136.291 L145.5,119.291 L135.5,109.291 L37.5,109.291 " fill="#FF0000" style="stroke:#181818;stroke-width:0.5;"/><path d="M135.5,109.291 L135.5,119.291 L145.5,119.291 L135.5,109.291 " fill="#FF0000" style="stroke:#181818;stroke-width:0.5;"/><text fill="#000000" font-family="sans-serif" font-size="13" lengthAdjust="spacing" textLength="87" x="43.5" y="128.3193">note that is red</text></g><!--link Dummy to Foo2--><g id="link_Dummy_Foo2"><path codeLine="6" d="M134.45,55.23 C141.43,64.14 148.91,74.65 154.5,85 C169.59,112.94 179.2687,142.1388 185.7187,164.8188 " fill="none" id="Dummy-to-Foo2" style="stroke:#181818;stroke-width:1.0;"/><polygon fill="#181818" points="187.36,170.59,188.7455,160.8391,185.9923,165.7807,181.0507,163.0274,187.36,170.59" style="stroke:#181818;stroke-width:1.0;"/><text fill="#000000" font-family="sans-serif" font-size="13" lengthAdjust="spacing" textLength="69" x="178.5" y="118.6738">Another link</text><path d="M253.5,91 L253.5,135 L431.5,135 L431.5,101 L421.5,91 L253.5,91 " fill="#008000" style="stroke:#181818;stroke-width:0.5;"/><path d="M421.5,91 L421.5,101 L431.5,101 L421.5,91 " fill="#008000" style="stroke:#181818;stroke-width:0.5;"/><text fill="#000000" font-family="sans-serif" font-size="13" lengthAdjust="spacing" textLength="157" x="259.5" y="110.0283">this is my note on right link</text><text fill="#000000" font-family="sans-serif" font-size="13" lengthAdjust="spacing" textLength="71" x="259.5" y="127.3193">and in green</text></g><!--SRC=[LOr12eGm34NtESM7MRjnwM9WGBn7qM2BDeKsBkRs4rl44K8Wd_T-vjsLWl68yKjre-lUc5B2W0_s81j9KaQIUk2LUHbG8_LE4GeieQVRdx8ndlDVHGwhrxjepSn2wgt1nkJhJ-EgvsH143IKxJWP-W40]--></g></svg>