<?xml version="1.0" encoding="us-ascii" standalone="no"?><svg xmlns="http://www.w3.org/2000/svg" xmlns:xlink="http://www.w3.org/1999/xlink" contentStyleType="text/css" height="170px" preserveAspectRatio="none" style="width:86px;height:170px;background:#FFFFFF;" version="1.1" viewBox="0 0 86 170" width="86px" zoomAndPan="magnify"><defs/><g><!--class Car--><g id="elem_Car"><rect fill="#F1F1F1" height="48" id="Car" rx="2.5" ry="2.5" style="stroke:#181818;stroke-width:0.5;" width="55" x="15.5" y="7"/><ellipse cx="30.5" cy="23" fill="#ADD1B2" rx="11" ry="11" style="stroke:#181818;stroke-width:1.0;"/><path d="M29.8438,28.8594 Q27.8594,28.8594 26.6875,27.3906 Q25.5313,25.9063 25.5313,22.8281 Q25.5313,20.2188 26.75,18.4688 Q27.9844,16.7188 30.1094,16.7188 Q30.6094,16.7188 31.1406,16.8594 Q31.5781,17.0469 31.8438,17.0469 Q32.0625,17.0469 32.1563,17 Q32.2656,16.9531 32.7188,16.3594 L33.4844,20.0938 L32.5938,20.3594 Q32.1406,18.9063 31.5313,18.3125 Q30.9375,17.7031 29.9844,17.7031 Q28.7656,17.7031 28.0469,19.1406 Q27.3281,20.5625 27.3281,22.75 Q27.3281,25.1563 27.9375,26.4531 Q28.5625,27.7344 29.9219,27.7344 Q30.875,27.7344 31.5625,27.0469 Q32.25,26.3438 32.5781,24.8438 L33.4844,25.25 Q33.0781,26.9531 32.1094,27.9063 Q31.1563,28.8594 29.8438,28.8594 Z " fill="#000000"/><text fill="#000000" font-family="sans-serif" font-size="14" lengthAdjust="spacing" textLength="23" x="44.5" y="28.7969">Car</text><line style="stroke:#181818;stroke-width:0.5;" x1="16.5" x2="69.5" y1="39" y2="39"/><line style="stroke:#181818;stroke-width:0.5;" x1="16.5" x2="69.5" y1="47" y2="47"/></g><!--class Wheel--><g id="elem_Wheel"><rect fill="#F1F1F1" height="48" id="Wheel" rx="2.5" ry="2.5" style="stroke:#181818;stroke-width:0.5;" width="72" x="7" y="115"/><ellipse cx="22" cy="131" fill="#ADD1B2" rx="11" ry="11" style="stroke:#181818;stroke-width:1.0;"/><path d="M21.3438,136.8594 Q19.3594,136.8594 18.1875,135.3906 Q17.0313,133.9063 17.0313,130.8281 Q17.0313,128.2188 18.25,126.4688 Q19.4844,124.7188 21.6094,124.7188 Q22.1094,124.7188 22.6406,124.8594 Q23.0781,125.0469 23.3438,125.0469 Q23.5625,125.0469 23.6563,125 Q23.7656,124.9531 24.2188,124.3594 L24.9844,128.0938 L24.0938,128.3594 Q23.6406,126.9063 23.0313,126.3125 Q22.4375,125.7031 21.4844,125.7031 Q20.2656,125.7031 19.5469,127.1406 Q18.8281,128.5625 18.8281,130.75 Q18.8281,133.1563 19.4375,134.4531 Q20.0625,135.7344 21.4219,135.7344 Q22.375,135.7344 23.0625,135.0469 Q23.75,134.3438 24.0781,132.8438 L24.9844,133.25 Q24.5781,134.9531 23.6094,135.9063 Q22.6563,136.8594 21.3438,136.8594 Z " fill="#000000"/><text fill="#000000" font-family="sans-serif" font-size="14" lengthAdjust="spacing" textLength="40" x="36" y="136.7969">Wheel</text><line style="stroke:#181818;stroke-width:0.5;" x1="8" x2="78" y1="147" y2="147"/><line style="stroke:#181818;stroke-width:0.5;" x1="8" x2="78" y1="155" y2="155"/></g><!--reverse link Car to Wheel--><g id="link_Car_Wheel"><path codeLine="1" d="M43,67 C43,84.66 43,96.94 43,114.68 " fill="none" id="Car-backto-Wheel" style="stroke:#181818;stroke-width:1.0;"/><polygon fill="#181818" points="43,55,39,61,43,67,47,61,43,55" style="stroke:#181818;stroke-width:1.0;"/><text fill="#000000" font-family="sans-serif" font-size="13" lengthAdjust="spacing" textLength="7" x="35.1469" y="76.9857">1</text><text fill="#000000" font-family="sans-serif" font-size="13" lengthAdjust="spacing" textLength="32" x="7.1" y="103.7439">many</text></g><!--SRC=[SquiKb0oL5BGqjLLKCfDpAjKKWZFI4tD0G00]--></g></svg>