<?xml version="1.0" encoding="us-ascii" standalone="no"?><svg xmlns="http://www.w3.org/2000/svg" xmlns:xlink="http://www.w3.org/1999/xlink" contentStyleType="text/css" height="271px" preserveAspectRatio="none" style="width:205px;height:271px;background:#FFFFFF;" version="1.1" viewBox="0 0 205 271" width="205px" zoomAndPan="magnify"><defs/><g><!--class Foo--><g id="elem_Foo"><rect codeLine="1" fill="#F1F1F1" height="85.2422" id="Foo" rx="2.5" ry="2.5" style="stroke:#181818;stroke-width:0.5;" width="60" x="89.44" y="7"/><ellipse cx="105.79" cy="23" fill="#ADD1B2" rx="11" ry="11" style="stroke:#181818;stroke-width:1.0;"/><path d="M105.1337,28.8594 Q103.1494,28.8594 101.9775,27.3906 Q100.8212,25.9063 100.8212,22.8281 Q100.8212,20.2188 102.04,18.4688 Q103.2744,16.7188 105.3994,16.7188 Q105.8994,16.7188 106.4306,16.8594 Q106.8681,17.0469 107.1337,17.0469 Q107.3525,17.0469 107.4462,17 Q107.5556,16.9531 108.0087,16.3594 L108.7744,20.0938 L107.8837,20.3594 Q107.4306,18.9063 106.8212,18.3125 Q106.2275,17.7031 105.2744,17.7031 Q104.0556,17.7031 103.3369,19.1406 Q102.6181,20.5625 102.6181,22.75 Q102.6181,25.1563 103.2275,26.4531 Q103.8525,27.7344 105.2119,27.7344 Q106.165,27.7344 106.8525,27.0469 Q107.54,26.3438 107.8681,24.8438 L108.7744,25.25 Q108.3681,26.9531 107.3994,27.9063 Q106.4462,28.8594 105.1337,28.8594 Z " fill="#000000"/><text fill="#000000" font-family="sans-serif" font-size="14" lengthAdjust="spacing" textLength="25" x="120.09" y="28.7969">Foo</text><line style="stroke:#181818;stroke-width:0.5;" x1="90.44" x2="148.44" y1="39" y2="39"/><ellipse cx="100.44" cy="53.8105" fill="none" rx="3" ry="3" style="stroke:#038048;stroke-width:1.0;"/><text fill="#000000" font-family="sans-serif" font-size="14" lengthAdjust="spacing" textLength="34" x="109.44" y="58.1074">field1</text><ellipse cx="100.44" cy="72.4316" fill="none" rx="3" ry="3" style="stroke:#038048;stroke-width:1.0;"/><text fill="#000000" font-family="sans-serif" font-size="14" lengthAdjust="spacing" textLength="34" x="109.44" y="76.7285">field2</text><line style="stroke:#181818;stroke-width:0.5;" x1="90.44" x2="148.44" y1="84.2422" y2="84.2422"/></g><!--class Bar--><g id="elem_Bar"><rect codeLine="6" fill="#F1F1F1" height="85.2422" id="Bar" rx="2.5" ry="2.5" style="stroke:#181818;stroke-width:0.5;" width="60" x="89.44" y="179"/><ellipse cx="107.14" cy="195" fill="#ADD1B2" rx="11" ry="11" style="stroke:#181818;stroke-width:1.0;"/><path d="M106.4838,200.8594 Q104.4994,200.8594 103.3275,199.3906 Q102.1713,197.9063 102.1713,194.8281 Q102.1713,192.2188 103.39,190.4688 Q104.6244,188.7188 106.7494,188.7188 Q107.2494,188.7188 107.7806,188.8594 Q108.2181,189.0469 108.4838,189.0469 Q108.7025,189.0469 108.7963,189 Q108.9056,188.9531 109.3588,188.3594 L110.1244,192.0938 L109.2338,192.3594 Q108.7806,190.9063 108.1713,190.3125 Q107.5775,189.7031 106.6244,189.7031 Q105.4056,189.7031 104.6869,191.1406 Q103.9681,192.5625 103.9681,194.75 Q103.9681,197.1563 104.5775,198.4531 Q105.2025,199.7344 106.5619,199.7344 Q107.515,199.7344 108.2025,199.0469 Q108.89,198.3438 109.2181,196.8438 L110.1244,197.25 Q109.7181,198.9531 108.7494,199.9063 Q107.7963,200.8594 106.4838,200.8594 Z " fill="#000000"/><text fill="#000000" font-family="sans-serif" font-size="14" lengthAdjust="spacing" textLength="22" x="121.74" y="200.7969">Bar</text><line style="stroke:#181818;stroke-width:0.5;" x1="90.44" x2="148.44" y1="211" y2="211"/><ellipse cx="100.44" cy="225.8105" fill="none" rx="3" ry="3" style="stroke:#038048;stroke-width:1.0;"/><text fill="#000000" font-family="sans-serif" font-size="14" lengthAdjust="spacing" textLength="34" x="109.44" y="230.1074">field3</text><ellipse cx="100.44" cy="244.4316" fill="none" rx="3" ry="3" style="stroke:#038048;stroke-width:1.0;"/><text fill="#000000" font-family="sans-serif" font-size="14" lengthAdjust="spacing" textLength="34" x="109.44" y="248.7285">field4</text><line style="stroke:#181818;stroke-width:0.5;" x1="90.44" x2="148.44" y1="256.2422" y2="256.2422"/></g><!--link Foo to Bar--><g id="link_Foo_Bar"><path codeLine="11" d="M88.44,52.5 C12,52.5 6,224.5 82.44,224.5 " fill="none" id="Foo-to-Bar" style="stroke:#181818;stroke-width:1.0;"/><polygon fill="#181818" points="88.44,224.5,79.44,220.5,83.44,224.5,79.44,228.5,88.44,224.5" style="stroke:#181818;stroke-width:1.0;"/><text fill="#000000" font-family="sans-serif" font-size="13" lengthAdjust="spacing" textLength="17" x="33.44" y="141.0283">foo</text></g><!--link Foo to Bar--><g id="link_Foo_Bar"><path codeLine="12" d="M150.44,70.5 C188.67,70.5 194.67,242.5 156.44,242.5 " fill="none" id="Foo-to-Bar-1" style="stroke:#181818;stroke-width:1.0;"/><polygon fill="#181818" points="150.44,242.5,159.44,246.5,155.44,242.5,159.44,238.5,150.44,242.5" style="stroke:#181818;stroke-width:1.0;"/><text fill="#000000" font-family="sans-serif" font-size="13" lengthAdjust="spacing" textLength="18" x="179.44" y="141.0283">bar</text></g><!--SRC=[Iyv9B2vMSClFLwZcqbP8oqpDIJ64COouQhcuai4Ad1AB40gCOGmJa0AWNYihY4O5NLqxa58etrZ1IY4jFnz9XH6Q2XEWYgJ48W00]--></g></svg>