<?xml version="1.0" encoding="us-ascii" standalone="no"?><svg xmlns="http://www.w3.org/2000/svg" xmlns:xlink="http://www.w3.org/1999/xlink" contentStyleType="text/css" height="170px" preserveAspectRatio="none" style="width:569px;height:170px;background:#FFFFFF;" version="1.1" viewBox="0 0 569 170" width="569px" zoomAndPan="magnify"><defs/><g><!--class Class01--><g id="elem_Class01"><rect fill="#F1F1F1" height="48" id="Class01" rx="2.5" ry="2.5" style="stroke:#181818;stroke-width:0.5;" width="83" x="7" y="7"/><ellipse cx="22" cy="23" fill="#ADD1B2" rx="11" ry="11" style="stroke:#181818;stroke-width:1.0;"/><path d="M21.3438,28.8594 Q19.3594,28.8594 18.1875,27.3906 Q17.0313,25.9063 17.0313,22.8281 Q17.0313,20.2188 18.25,18.4688 Q19.4844,16.7188 21.6094,16.7188 Q22.1094,16.7188 22.6406,16.8594 Q23.0781,17.0469 23.3438,17.0469 Q23.5625,17.0469 23.6563,17 Q23.7656,16.9531 24.2188,16.3594 L24.9844,20.0938 L24.0938,20.3594 Q23.6406,18.9063 23.0313,18.3125 Q22.4375,17.7031 21.4844,17.7031 Q20.2656,17.7031 19.5469,19.1406 Q18.8281,20.5625 18.8281,22.75 Q18.8281,25.1563 19.4375,26.4531 Q20.0625,27.7344 21.4219,27.7344 Q22.375,27.7344 23.0625,27.0469 Q23.75,26.3438 24.0781,24.8438 L24.9844,25.25 Q24.5781,26.9531 23.6094,27.9063 Q22.6563,28.8594 21.3438,28.8594 Z " fill="#000000"/><text fill="#000000" font-family="sans-serif" font-size="14" lengthAdjust="spacing" textLength="51" x="36" y="28.7969">Class01</text><line style="stroke:#181818;stroke-width:0.5;" x1="8" x2="89" y1="39" y2="39"/><line style="stroke:#181818;stroke-width:0.5;" x1="8" x2="89" y1="47" y2="47"/></g><!--class Class02--><g id="elem_Class02"><rect fill="#F1F1F1" height="48" id="Class02" rx="2.5" ry="2.5" style="stroke:#181818;stroke-width:0.5;" width="83" x="7" y="115"/><ellipse cx="22" cy="131" fill="#ADD1B2" rx="11" ry="11" style="stroke:#181818;stroke-width:1.0;"/><path d="M21.3438,136.8594 Q19.3594,136.8594 18.1875,135.3906 Q17.0313,133.9063 17.0313,130.8281 Q17.0313,128.2188 18.25,126.4688 Q19.4844,124.7188 21.6094,124.7188 Q22.1094,124.7188 22.6406,124.8594 Q23.0781,125.0469 23.3438,125.0469 Q23.5625,125.0469 23.6563,125 Q23.7656,124.9531 24.2188,124.3594 L24.9844,128.0938 L24.0938,128.3594 Q23.6406,126.9063 23.0313,126.3125 Q22.4375,125.7031 21.4844,125.7031 Q20.2656,125.7031 19.5469,127.1406 Q18.8281,128.5625 18.8281,130.75 Q18.8281,133.1563 19.4375,134.4531 Q20.0625,135.7344 21.4219,135.7344 Q22.375,135.7344 23.0625,135.0469 Q23.75,134.3438 24.0781,132.8438 L24.9844,133.25 Q24.5781,134.9531 23.6094,135.9063 Q22.6563,136.8594 21.3438,136.8594 Z " fill="#000000"/><text fill="#000000" font-family="sans-serif" font-size="14" lengthAdjust="spacing" textLength="51" x="36" y="136.7969">Class02</text><line style="stroke:#181818;stroke-width:0.5;" x1="8" x2="89" y1="147" y2="147"/><line style="stroke:#181818;stroke-width:0.5;" x1="8" x2="89" y1="155" y2="155"/></g><!--class Class03--><g id="elem_Class03"><rect fill="#F1F1F1" height="48" id="Class03" rx="2.5" ry="2.5" style="stroke:#181818;stroke-width:0.5;" width="83" x="125" y="7"/><ellipse cx="140" cy="23" fill="#ADD1B2" rx="11" ry="11" style="stroke:#181818;stroke-width:1.0;"/><path d="M139.3438,28.8594 Q137.3594,28.8594 136.1875,27.3906 Q135.0313,25.9063 135.0313,22.8281 Q135.0313,20.2188 136.25,18.4688 Q137.4844,16.7188 139.6094,16.7188 Q140.1094,16.7188 140.6406,16.8594 Q141.0781,17.0469 141.3438,17.0469 Q141.5625,17.0469 141.6563,17 Q141.7656,16.9531 142.2188,16.3594 L142.9844,20.0938 L142.0938,20.3594 Q141.6406,18.9063 141.0313,18.3125 Q140.4375,17.7031 139.4844,17.7031 Q138.2656,17.7031 137.5469,19.1406 Q136.8281,20.5625 136.8281,22.75 Q136.8281,25.1563 137.4375,26.4531 Q138.0625,27.7344 139.4219,27.7344 Q140.375,27.7344 141.0625,27.0469 Q141.75,26.3438 142.0781,24.8438 L142.9844,25.25 Q142.5781,26.9531 141.6094,27.9063 Q140.6563,28.8594 139.3438,28.8594 Z " fill="#000000"/><text fill="#000000" font-family="sans-serif" font-size="14" lengthAdjust="spacing" textLength="51" x="154" y="28.7969">Class03</text><line style="stroke:#181818;stroke-width:0.5;" x1="126" x2="207" y1="39" y2="39"/><line style="stroke:#181818;stroke-width:0.5;" x1="126" x2="207" y1="47" y2="47"/></g><!--class Class04--><g id="elem_Class04"><rect fill="#F1F1F1" height="48" id="Class04" rx="2.5" ry="2.5" style="stroke:#181818;stroke-width:0.5;" width="83" x="125" y="115"/><ellipse cx="140" cy="131" fill="#ADD1B2" rx="11" ry="11" style="stroke:#181818;stroke-width:1.0;"/><path d="M139.3438,136.8594 Q137.3594,136.8594 136.1875,135.3906 Q135.0313,133.9063 135.0313,130.8281 Q135.0313,128.2188 136.25,126.4688 Q137.4844,124.7188 139.6094,124.7188 Q140.1094,124.7188 140.6406,124.8594 Q141.0781,125.0469 141.3438,125.0469 Q141.5625,125.0469 141.6563,125 Q141.7656,124.9531 142.2188,124.3594 L142.9844,128.0938 L142.0938,128.3594 Q141.6406,126.9063 141.0313,126.3125 Q140.4375,125.7031 139.4844,125.7031 Q138.2656,125.7031 137.5469,127.1406 Q136.8281,128.5625 136.8281,130.75 Q136.8281,133.1563 137.4375,134.4531 Q138.0625,135.7344 139.4219,135.7344 Q140.375,135.7344 141.0625,135.0469 Q141.75,134.3438 142.0781,132.8438 L142.9844,133.25 Q142.5781,134.9531 141.6094,135.9063 Q140.6563,136.8594 139.3438,136.8594 Z " fill="#000000"/><text fill="#000000" font-family="sans-serif" font-size="14" lengthAdjust="spacing" textLength="51" x="154" y="136.7969">Class04</text><line style="stroke:#181818;stroke-width:0.5;" x1="126" x2="207" y1="147" y2="147"/><line style="stroke:#181818;stroke-width:0.5;" x1="126" x2="207" y1="155" y2="155"/></g><!--class Class05--><g id="elem_Class05"><rect fill="#F1F1F1" height="48" id="Class05" rx="2.5" ry="2.5" style="stroke:#181818;stroke-width:0.5;" width="83" x="243" y="7"/><ellipse cx="258" cy="23" fill="#ADD1B2" rx="11" ry="11" style="stroke:#181818;stroke-width:1.0;"/><path d="M257.3438,28.8594 Q255.3594,28.8594 254.1875,27.3906 Q253.0313,25.9063 253.0313,22.8281 Q253.0313,20.2188 254.25,18.4688 Q255.4844,16.7188 257.6094,16.7188 Q258.1094,16.7188 258.6406,16.8594 Q259.0781,17.0469 259.3438,17.0469 Q259.5625,17.0469 259.6563,17 Q259.7656,16.9531 260.2188,16.3594 L260.9844,20.0938 L260.0938,20.3594 Q259.6406,18.9063 259.0313,18.3125 Q258.4375,17.7031 257.4844,17.7031 Q256.2656,17.7031 255.5469,19.1406 Q254.8281,20.5625 254.8281,22.75 Q254.8281,25.1563 255.4375,26.4531 Q256.0625,27.7344 257.4219,27.7344 Q258.375,27.7344 259.0625,27.0469 Q259.75,26.3438 260.0781,24.8438 L260.9844,25.25 Q260.5781,26.9531 259.6094,27.9063 Q258.6563,28.8594 257.3438,28.8594 Z " fill="#000000"/><text fill="#000000" font-family="sans-serif" font-size="14" lengthAdjust="spacing" textLength="51" x="272" y="28.7969">Class05</text><line style="stroke:#181818;stroke-width:0.5;" x1="244" x2="325" y1="39" y2="39"/><line style="stroke:#181818;stroke-width:0.5;" x1="244" x2="325" y1="47" y2="47"/></g><!--class Class06--><g id="elem_Class06"><rect fill="#F1F1F1" height="48" id="Class06" rx="2.5" ry="2.5" style="stroke:#181818;stroke-width:0.5;" width="83" x="243" y="115"/><ellipse cx="258" cy="131" fill="#ADD1B2" rx="11" ry="11" style="stroke:#181818;stroke-width:1.0;"/><path d="M257.3438,136.8594 Q255.3594,136.8594 254.1875,135.3906 Q253.0313,133.9063 253.0313,130.8281 Q253.0313,128.2188 254.25,126.4688 Q255.4844,124.7188 257.6094,124.7188 Q258.1094,124.7188 258.6406,124.8594 Q259.0781,125.0469 259.3438,125.0469 Q259.5625,125.0469 259.6563,125 Q259.7656,124.9531 260.2188,124.3594 L260.9844,128.0938 L260.0938,128.3594 Q259.6406,126.9063 259.0313,126.3125 Q258.4375,125.7031 257.4844,125.7031 Q256.2656,125.7031 255.5469,127.1406 Q254.8281,128.5625 254.8281,130.75 Q254.8281,133.1563 255.4375,134.4531 Q256.0625,135.7344 257.4219,135.7344 Q258.375,135.7344 259.0625,135.0469 Q259.75,134.3438 260.0781,132.8438 L260.9844,133.25 Q260.5781,134.9531 259.6094,135.9063 Q258.6563,136.8594 257.3438,136.8594 Z " fill="#000000"/><text fill="#000000" font-family="sans-serif" font-size="14" lengthAdjust="spacing" textLength="51" x="272" y="136.7969">Class06</text><line style="stroke:#181818;stroke-width:0.5;" x1="244" x2="325" y1="147" y2="147"/><line style="stroke:#181818;stroke-width:0.5;" x1="244" x2="325" y1="155" y2="155"/></g><!--class Class07--><g id="elem_Class07"><rect fill="#F1F1F1" height="48" id="Class07" rx="2.5" ry="2.5" style="stroke:#181818;stroke-width:0.5;" width="83" x="361" y="7"/><ellipse cx="376" cy="23" fill="#ADD1B2" rx="11" ry="11" style="stroke:#181818;stroke-width:1.0;"/><path d="M375.3438,28.8594 Q373.3594,28.8594 372.1875,27.3906 Q371.0313,25.9063 371.0313,22.8281 Q371.0313,20.2188 372.25,18.4688 Q373.4844,16.7188 375.6094,16.7188 Q376.1094,16.7188 376.6406,16.8594 Q377.0781,17.0469 377.3438,17.0469 Q377.5625,17.0469 377.6563,17 Q377.7656,16.9531 378.2188,16.3594 L378.9844,20.0938 L378.0938,20.3594 Q377.6406,18.9063 377.0313,18.3125 Q376.4375,17.7031 375.4844,17.7031 Q374.2656,17.7031 373.5469,19.1406 Q372.8281,20.5625 372.8281,22.75 Q372.8281,25.1563 373.4375,26.4531 Q374.0625,27.7344 375.4219,27.7344 Q376.375,27.7344 377.0625,27.0469 Q377.75,26.3438 378.0781,24.8438 L378.9844,25.25 Q378.5781,26.9531 377.6094,27.9063 Q376.6563,28.8594 375.3438,28.8594 Z " fill="#000000"/><text fill="#000000" font-family="sans-serif" font-size="14" lengthAdjust="spacing" textLength="51" x="390" y="28.7969">Class07</text><line style="stroke:#181818;stroke-width:0.5;" x1="362" x2="443" y1="39" y2="39"/><line style="stroke:#181818;stroke-width:0.5;" x1="362" x2="443" y1="47" y2="47"/></g><!--class Class08--><g id="elem_Class08"><rect fill="#F1F1F1" height="48" id="Class08" rx="2.5" ry="2.5" style="stroke:#181818;stroke-width:0.5;" width="83" x="361" y="115"/><ellipse cx="376" cy="131" fill="#ADD1B2" rx="11" ry="11" style="stroke:#181818;stroke-width:1.0;"/><path d="M375.3438,136.8594 Q373.3594,136.8594 372.1875,135.3906 Q371.0313,133.9063 371.0313,130.8281 Q371.0313,128.2188 372.25,126.4688 Q373.4844,124.7188 375.6094,124.7188 Q376.1094,124.7188 376.6406,124.8594 Q377.0781,125.0469 377.3438,125.0469 Q377.5625,125.0469 377.6563,125 Q377.7656,124.9531 378.2188,124.3594 L378.9844,128.0938 L378.0938,128.3594 Q377.6406,126.9063 377.0313,126.3125 Q376.4375,125.7031 375.4844,125.7031 Q374.2656,125.7031 373.5469,127.1406 Q372.8281,128.5625 372.8281,130.75 Q372.8281,133.1563 373.4375,134.4531 Q374.0625,135.7344 375.4219,135.7344 Q376.375,135.7344 377.0625,135.0469 Q377.75,134.3438 378.0781,132.8438 L378.9844,133.25 Q378.5781,134.9531 377.6094,135.9063 Q376.6563,136.8594 375.3438,136.8594 Z " fill="#000000"/><text fill="#000000" font-family="sans-serif" font-size="14" lengthAdjust="spacing" textLength="51" x="390" y="136.7969">Class08</text><line style="stroke:#181818;stroke-width:0.5;" x1="362" x2="443" y1="147" y2="147"/><line style="stroke:#181818;stroke-width:0.5;" x1="362" x2="443" y1="155" y2="155"/></g><!--class Class09--><g id="elem_Class09"><rect fill="#F1F1F1" height="48" id="Class09" rx="2.5" ry="2.5" style="stroke:#181818;stroke-width:0.5;" width="83" x="479" y="7"/><ellipse cx="494" cy="23" fill="#ADD1B2" rx="11" ry="11" style="stroke:#181818;stroke-width:1.0;"/><path d="M493.3438,28.8594 Q491.3594,28.8594 490.1875,27.3906 Q489.0313,25.9063 489.0313,22.8281 Q489.0313,20.2188 490.25,18.4688 Q491.4844,16.7188 493.6094,16.7188 Q494.1094,16.7188 494.6406,16.8594 Q495.0781,17.0469 495.3438,17.0469 Q495.5625,17.0469 495.6563,17 Q495.7656,16.9531 496.2188,16.3594 L496.9844,20.0938 L496.0938,20.3594 Q495.6406,18.9063 495.0313,18.3125 Q494.4375,17.7031 493.4844,17.7031 Q492.2656,17.7031 491.5469,19.1406 Q490.8281,20.5625 490.8281,22.75 Q490.8281,25.1563 491.4375,26.4531 Q492.0625,27.7344 493.4219,27.7344 Q494.375,27.7344 495.0625,27.0469 Q495.75,26.3438 496.0781,24.8438 L496.9844,25.25 Q496.5781,26.9531 495.6094,27.9063 Q494.6563,28.8594 493.3438,28.8594 Z " fill="#000000"/><text fill="#000000" font-family="sans-serif" font-size="14" lengthAdjust="spacing" textLength="51" x="508" y="28.7969">Class09</text><line style="stroke:#181818;stroke-width:0.5;" x1="480" x2="561" y1="39" y2="39"/><line style="stroke:#181818;stroke-width:0.5;" x1="480" x2="561" y1="47" y2="47"/></g><!--class Class10--><g id="elem_Class10"><rect fill="#F1F1F1" height="48" id="Class10" rx="2.5" ry="2.5" style="stroke:#181818;stroke-width:0.5;" width="83" x="479" y="115"/><ellipse cx="494" cy="131" fill="#ADD1B2" rx="11" ry="11" style="stroke:#181818;stroke-width:1.0;"/><path d="M493.3438,136.8594 Q491.3594,136.8594 490.1875,135.3906 Q489.0313,133.9063 489.0313,130.8281 Q489.0313,128.2188 490.25,126.4688 Q491.4844,124.7188 493.6094,124.7188 Q494.1094,124.7188 494.6406,124.8594 Q495.0781,125.0469 495.3438,125.0469 Q495.5625,125.0469 495.6563,125 Q495.7656,124.9531 496.2188,124.3594 L496.9844,128.0938 L496.0938,128.3594 Q495.6406,126.9063 495.0313,126.3125 Q494.4375,125.7031 493.4844,125.7031 Q492.2656,125.7031 491.5469,127.1406 Q490.8281,128.5625 490.8281,130.75 Q490.8281,133.1563 491.4375,134.4531 Q492.0625,135.7344 493.4219,135.7344 Q494.375,135.7344 495.0625,135.0469 Q495.75,134.3438 496.0781,132.8438 L496.9844,133.25 Q496.5781,134.9531 495.6094,135.9063 Q494.6563,136.8594 493.3438,136.8594 Z " fill="#000000"/><text fill="#000000" font-family="sans-serif" font-size="14" lengthAdjust="spacing" textLength="51" x="508" y="136.7969">Class10</text><line style="stroke:#181818;stroke-width:0.5;" x1="480" x2="561" y1="147" y2="147"/><line style="stroke:#181818;stroke-width:0.5;" x1="480" x2="561" y1="155" y2="155"/></g><!--reverse link Class01 to Class02--><g id="link_Class01_Class02"><path codeLine="1" d="M48.5,60 C48.5,77.66 48.5,96.94 48.5,114.68 " fill="none" id="Class01-backto-Class02" style="stroke:#181818;stroke-width:1.0;"/><rect fill="#FFFFFF" height="10" style="stroke:#181818;stroke-width:1.5;" width="10" x="43.5" y="50"/></g><!--reverse link Class03 to Class04--><g id="link_Class03_Class04"><path codeLine="2" d="M166.5,63 C166.5,80.66 166.5,96.94 166.5,114.68 " fill="none" id="Class03-backto-Class04" style="stroke:#181818;stroke-width:1.0;"/><path d="M162.5,60 L170.5,68 M170.5,60 L162.5,68 " fill="none" style="stroke:#181818;stroke-width:1.0;"/></g><!--reverse link Class05 to Class06--><g id="link_Class05_Class06"><path codeLine="3" d="M284.5,63 C284.5,80.66 284.5,96.94 284.5,114.68 " fill="none" id="Class05-backto-Class06" style="stroke:#181818;stroke-width:1.0;"/><line style="stroke:#181818;stroke-width:1.0;" x1="284.5" x2="276.5" y1="63" y2="55"/><line style="stroke:#181818;stroke-width:1.0;" x1="284.5" x2="292.5" y1="63" y2="55"/><line style="stroke:#181818;stroke-width:1.0;" x1="284.5" x2="284.5" y1="63" y2="55"/></g><!--reverse link Class07 to Class08--><g id="link_Class07_Class08"><path codeLine="4" d="M402.5,71 C402.5,88.66 402.5,96.94 402.5,114.68 " fill="none" id="Class07-backto-Class08" style="stroke:#181818;stroke-width:1.0;"/><ellipse cx="402.5" cy="63" fill="#FFFFFF" rx="8" ry="8" style="stroke:#181818;stroke-width:1.0;"/><line style="stroke:#181818;stroke-width:1.0;" x1="402.5" x2="402.5" y1="71" y2="55"/><line style="stroke:#181818;stroke-width:1.0;" x1="394.5" x2="410.5" y1="63" y2="63"/></g><!--reverse link Class09 to Class10--><g id="link_Class09_Class10"><path codeLine="5" d="M520.5,73 C520.5,90.66 520.5,96.94 520.5,114.68 " fill="none" id="Class09-backto-Class10" style="stroke:#181818;stroke-width:1.0;"/><polygon fill="none" points="520.5,55,514.5,73,526.5,73,520.5,55" style="stroke:#181818;stroke-width:1.0;"/></g><!--SRC=[Syv9B2usC5HGrjLLS0QpZRWWjB521LpC12fcgb0B5pE3YfahQCF5BA1YbWfnC3530m00]--></g></svg>