<?xml version="1.0" encoding="us-ascii" standalone="no"?><svg xmlns="http://www.w3.org/2000/svg" xmlns:xlink="http://www.w3.org/1999/xlink" contentStyleType="text/css" height="449px" preserveAspectRatio="none" style="width:566px;height:449px;background:#FFFFFF;" version="1.1" viewBox="0 0 566 449" width="566px" zoomAndPan="magnify"><defs/><g><!--class MyAbstractClass--><g id="elem_MyAbstractClass"><rect codeLine="2" fill="#F1F1F1" height="48" id="MyAbstractClass" rx="2.5" ry="2.5" style="stroke:#181818;stroke-width:0.5;" width="138" x="7" y="7"/><ellipse cx="22" cy="23" fill="#A9DCDF" rx="11" ry="11" style="stroke:#181818;stroke-width:1.0;"/><path d="M22.4219,23.4844 L19.8594,23.4844 L19.3281,25.7813 Q19.2656,26.1094 19.2656,26.2656 Q19.2656,26.4844 19.3125,26.6406 Q19.375,26.7969 19.6563,26.7969 L20.125,26.7969 L20.125,27.7344 L17.1406,27.7344 L17.1406,26.7969 L17.5938,26.7969 Q17.7656,26.7969 17.8906,26.7031 Q18.0156,26.5938 18.0625,26.2969 L20.7031,15.9688 L22.1094,15.5 L24.6875,26.2656 Q24.7969,26.5781 24.9219,26.6875 Q25.0625,26.7969 25.2344,26.7969 L25.7031,26.7969 L25.7031,27.7344 L22.3125,27.7344 L22.3125,26.7969 L22.8438,26.7969 Q23.0625,26.7969 23.0781,26.75 Q23.1094,26.6875 23.1094,26.6094 Q23.1094,26.3906 23.0625,26.2031 L22.4219,23.4844 Z M17.8594,27.3281 L17.8594,27.3281 Z M18.5313,27.3281 L18.5313,27.3281 Z M23.25,27.3281 L23.25,27.3281 Z M24.375,27.3281 L24.375,27.3281 Z M21.1875,17.3906 L21.25,17.3906 L20.1406,22.5469 L22.2344,22.5469 L21.1875,17.3906 Z " fill="#000000"/><text fill="#000000" font-family="sans-serif" font-size="14" font-style="italic" lengthAdjust="spacing" textLength="106" x="36" y="28.7969">MyAbstractClass</text><line style="stroke:#181818;stroke-width:0.5;" x1="8" x2="144" y1="39" y2="39"/><line style="stroke:#181818;stroke-width:0.5;" x1="8" x2="144" y1="47" y2="47"/></g><!--class MyAnnotation--><g id="elem_MyAnnotation"><rect codeLine="3" fill="#F1F1F1" height="48" id="MyAnnotation" rx="2.5" ry="2.5" style="stroke:#181818;stroke-width:0.5;" width="118" x="180" y="7"/><ellipse cx="195" cy="23" fill="#E3664A" rx="11" ry="11" style="stroke:#181818;stroke-width:1.0;"/><path d="M194.4219,26.7031 Q193.875,26.7031 193.4531,26.0781 Q193.0313,25.4531 193.0313,24.3125 Q193.0313,22.7969 193.875,21.0781 Q194.7188,19.3438 195.875,19.3438 Q196.2344,19.3438 196.4688,19.5313 Q196.7188,19.7188 196.5469,19.875 L196.4531,19.2656 L197.7188,19.2656 L197.0781,23.75 Q197.0156,24.2969 196.9375,24.7031 Q196.875,25.0625 196.875,25.25 Q196.875,25.4219 196.9063,25.4844 Q196.9375,25.5313 196.9375,25.5156 Q197.2969,25.5156 197.6406,24.7031 Q198,23.875 198,22.3281 Q198,19.7813 197.1875,19 Q196.375,18.2031 195.4844,18.2031 Q194.4063,18.2031 193.5156,19.3594 Q192.625,20.5 192.625,23.3906 Q192.625,25.9063 193.3594,27.1094 Q194.0938,28.2969 195.2813,28.2969 Q196.2031,28.2969 196.9063,27.8125 Q197.6094,27.3281 198.2031,26.1094 L199.1719,26.4219 Q198.3438,28.0938 197.4063,28.7344 Q196.4844,29.3594 195.2813,29.3594 Q193.4219,29.3594 192.2969,27.6406 Q191.1719,25.9219 191.1719,23.3906 Q191.1719,20.5781 192.4375,18.9063 Q193.7031,17.2188 195.4844,17.2188 Q197,17.2188 198.0625,18.4375 Q199.1406,19.6406 199.1406,22.2656 Q199.1406,24.3281 198.4219,25.5156 Q197.7031,26.7031 196.75,26.7031 Q196.2813,26.7031 195.9844,26.3594 Q195.7031,26.0156 195.7813,25.9219 Q195.8281,26.0781 195.4063,26.3906 Q194.9844,26.7031 194.4219,26.7031 Z M194.6875,25.6406 Q194.9375,25.6406 195.2188,25.2656 Q195.5,24.875 195.6875,24 L196.1406,20.75 Q196.2031,20.4844 196.1094,20.375 Q196.0156,20.2656 195.875,20.2656 Q195.5938,20.2656 195,21.5313 Q194.4219,22.7813 194.4219,24.7813 Q194.4219,25.3125 194.5,25.4844 Q194.5938,25.6406 194.6875,25.6406 Z " fill="#000000"/><text fill="#000000" font-family="sans-serif" font-size="14" lengthAdjust="spacing" textLength="86" x="209" y="28.7969">MyAnnotation</text><line style="stroke:#181818;stroke-width:0.5;" x1="181" x2="297" y1="39" y2="39"/><line style="stroke:#181818;stroke-width:0.5;" x1="181" x2="297" y1="47" y2="47"/></g><!--entity MyCircle--><g id="elem_MyCircle"><ellipse cx="368" cy="31" fill="#F1F1F1" rx="8" ry="8" style="stroke:#181818;stroke-width:0.5;"/><text fill="#000000" font-family="sans-serif" font-size="14" lengthAdjust="spacing" textLength="54" x="341" y="63.1074">MyCircle</text></g><!--class MyClass--><g id="elem_MyClass"><rect codeLine="5" fill="#F1F1F1" height="48" id="MyClass" rx="2.5" ry="2.5" style="stroke:#181818;stroke-width:0.5;" width="85" x="438.5" y="7"/><ellipse cx="453.5" cy="23" fill="#ADD1B2" rx="11" ry="11" style="stroke:#181818;stroke-width:1.0;"/><path d="M452.8438,28.8594 Q450.8594,28.8594 449.6875,27.3906 Q448.5313,25.9063 448.5313,22.8281 Q448.5313,20.2188 449.75,18.4688 Q450.9844,16.7188 453.1094,16.7188 Q453.6094,16.7188 454.1406,16.8594 Q454.5781,17.0469 454.8438,17.0469 Q455.0625,17.0469 455.1563,17 Q455.2656,16.9531 455.7188,16.3594 L456.4844,20.0938 L455.5938,20.3594 Q455.1406,18.9063 454.5313,18.3125 Q453.9375,17.7031 452.9844,17.7031 Q451.7656,17.7031 451.0469,19.1406 Q450.3281,20.5625 450.3281,22.75 Q450.3281,25.1563 450.9375,26.4531 Q451.5625,27.7344 452.9219,27.7344 Q453.875,27.7344 454.5625,27.0469 Q455.25,26.3438 455.5781,24.8438 L456.4844,25.25 Q456.0781,26.9531 455.1094,27.9063 Q454.1563,28.8594 452.8438,28.8594 Z " fill="#000000"/><text fill="#000000" font-family="sans-serif" font-size="14" lengthAdjust="spacing" textLength="53" x="467.5" y="28.7969">MyClass</text><line style="stroke:#181818;stroke-width:0.5;" x1="439.5" x2="522.5" y1="39" y2="39"/><line style="stroke:#181818;stroke-width:0.5;" x1="439.5" x2="522.5" y1="47" y2="47"/></g><!--class MyClassStereo--><g id="elem_MyClassStereo"><rect codeLine="6" fill="#F1F1F1" height="60.582" id="MyClassStereo" rx="2.5" ry="2.5" style="stroke:#181818;stroke-width:0.5;" width="127" x="12.5" y="143.5"/><ellipse cx="27.5" cy="165.791" fill="#ADD1B2" rx="11" ry="11" style="stroke:#181818;stroke-width:1.0;"/><path d="M26.8438,171.6504 Q24.8594,171.6504 23.6875,170.1816 Q22.5313,168.6973 22.5313,165.6191 Q22.5313,163.0098 23.75,161.2598 Q24.9844,159.5098 27.1094,159.5098 Q27.6094,159.5098 28.1406,159.6504 Q28.5781,159.8379 28.8438,159.8379 Q29.0625,159.8379 29.1563,159.791 Q29.2656,159.7441 29.7188,159.1504 L30.4844,162.8848 L29.5938,163.1504 Q29.1406,161.6973 28.5313,161.1035 Q27.9375,160.4941 26.9844,160.4941 Q25.7656,160.4941 25.0469,161.9316 Q24.3281,163.3535 24.3281,165.541 Q24.3281,167.9473 24.9375,169.2441 Q25.5625,170.5254 26.9219,170.5254 Q27.875,170.5254 28.5625,169.8379 Q29.25,169.1348 29.5781,167.6348 L30.4844,168.041 Q30.0781,169.7441 29.1094,170.6973 Q28.1563,171.6504 26.8438,171.6504 Z " fill="#000000"/><text fill="#000000" font-family="sans-serif" font-size="12" font-style="italic" lengthAdjust="spacing" textLength="71" x="53.5" y="161.4492">&#171;stereotype&#187;</text><text fill="#000000" font-family="sans-serif" font-size="14" lengthAdjust="spacing" textLength="95" x="41.5" y="179.5684">MyClassStereo</text><line style="stroke:#181818;stroke-width:0.5;" x1="13.5" x2="138.5" y1="188.082" y2="188.082"/><line style="stroke:#181818;stroke-width:0.5;" x1="13.5" x2="138.5" y1="196.082" y2="196.082"/></g><g id="elem_MyDiamond"><polygon fill="#F1F1F1" points="187,162,199,174,187,186,175,174,187,162" style="stroke:#181818;stroke-width:0.5;"/></g><!--class MyEntity--><g id="elem_MyEntity"><rect codeLine="8" fill="#F1F1F1" height="48" id="MyEntity" rx="2.5" ry="2.5" style="stroke:#181818;stroke-width:0.5;" width="85" x="234.5" y="150"/><ellipse cx="249.5" cy="166" fill="#ADD1B2" rx="11" ry="11" style="stroke:#181818;stroke-width:1.0;"/><path d="M246.0313,160.7813 L246.0313,159.8438 L253,159.8438 L253.8594,162.5313 L253.0781,162.8281 Q252.4688,161.6719 251.9219,161.2344 Q251.3906,160.7813 250.75,160.7813 L248.8906,160.7813 Q248.7188,160.7813 248.6406,160.8438 Q248.5625,160.9063 248.5625,161.0469 L248.5625,164.8906 L250.2188,164.8906 Q250.7656,164.8906 250.9844,164.6406 Q251.2188,164.3906 251.2188,163.8281 L251.2188,163.1719 L252.1406,163.1719 L252.1406,167.6094 L251.2188,167.6094 L251.2188,167.0781 Q251.2188,166.4531 250.9844,166.1406 Q250.75,165.8281 250.2188,165.8281 L248.5625,165.8281 L248.5625,170.5313 Q248.5625,170.6719 248.6406,170.7344 Q248.7188,170.7969 248.8906,170.7969 L250.6094,170.7969 Q251.5156,170.7969 252.1406,170.2969 Q252.7813,169.7813 253.25,168.4063 L254.0625,168.7188 L253.2031,171.7344 L245.9688,171.7344 L245.9688,170.7969 L246.625,170.7969 Q246.8594,170.7969 246.9063,170.75 Q246.9688,170.6875 246.9688,170.5313 L246.9688,161.0469 Q246.9688,160.8906 246.9063,160.8438 Q246.8594,160.7813 246.625,160.7813 L246.0313,160.7813 Z " fill="#000000"/><text fill="#000000" font-family="sans-serif" font-size="14" lengthAdjust="spacing" textLength="53" x="263.5" y="171.7969">MyEntity</text><line style="stroke:#181818;stroke-width:0.5;" x1="235.5" x2="318.5" y1="182" y2="182"/><line style="stroke:#181818;stroke-width:0.5;" x1="235.5" x2="318.5" y1="190" y2="190"/></g><!--class TimeUnit--><g id="elem_TimeUnit"><rect codeLine="9" fill="#F1F1F1" height="103.8633" id="TimeUnit" rx="2.5" ry="2.5" style="stroke:#181818;stroke-width:0.5;" width="87" x="354.5" y="122"/><ellipse cx="369.5" cy="138" fill="#EB937F" rx="11" ry="11" style="stroke:#181818;stroke-width:1.0;"/><path d="M366.0313,132.7813 L366.0313,131.8438 L373,131.8438 L373.8594,134.5313 L373.0781,134.8281 Q372.4688,133.6719 371.9219,133.2344 Q371.3906,132.7813 370.75,132.7813 L368.8906,132.7813 Q368.7188,132.7813 368.6406,132.8438 Q368.5625,132.9063 368.5625,133.0469 L368.5625,136.8906 L370.2188,136.8906 Q370.7656,136.8906 370.9844,136.6406 Q371.2188,136.3906 371.2188,135.8281 L371.2188,135.1719 L372.1406,135.1719 L372.1406,139.6094 L371.2188,139.6094 L371.2188,139.0781 Q371.2188,138.4531 370.9844,138.1406 Q370.75,137.8281 370.2188,137.8281 L368.5625,137.8281 L368.5625,142.5313 Q368.5625,142.6719 368.6406,142.7344 Q368.7188,142.7969 368.8906,142.7969 L370.6094,142.7969 Q371.5156,142.7969 372.1406,142.2969 Q372.7813,141.7813 373.25,140.4063 L374.0625,140.7188 L373.2031,143.7344 L365.9688,143.7344 L365.9688,142.7969 L366.625,142.7969 Q366.8594,142.7969 366.9063,142.75 Q366.9688,142.6875 366.9688,142.5313 L366.9688,133.0469 Q366.9688,132.8906 366.9063,132.8438 Q366.8594,132.7813 366.625,132.7813 L366.0313,132.7813 Z " fill="#000000"/><text fill="#000000" font-family="sans-serif" font-size="14" lengthAdjust="spacing" textLength="55" x="383.5" y="143.7969">TimeUnit</text><line style="stroke:#181818;stroke-width:0.5;" x1="355.5" x2="440.5" y1="154" y2="154"/><text fill="#000000" font-family="sans-serif" font-size="14" lengthAdjust="spacing" textLength="37" x="360.5" y="173.1074">DAYS</text><text fill="#000000" font-family="sans-serif" font-size="14" lengthAdjust="spacing" textLength="48" x="360.5" y="191.7285">HOURS</text><text fill="#000000" font-family="sans-serif" font-size="14" lengthAdjust="spacing" textLength="59" x="360.5" y="210.3496">MINUTES</text><line style="stroke:#181818;stroke-width:0.5;" x1="355.5" x2="440.5" y1="217.8633" y2="217.8633"/></g><!--class MyException--><g id="elem_MyException"><rect codeLine="14" fill="#F1F1F1" height="48" id="MyException" rx="2.5" ry="2.5" style="stroke:#181818;stroke-width:0.5;" width="111" x="20.5" y="286"/><ellipse cx="35.5" cy="302" fill="#D94321" rx="11" ry="11" style="stroke:#181818;stroke-width:1.0;"/><path d="M36.2188,301.3594 L38.4688,306.2188 Q38.6406,306.5469 38.8125,306.6719 Q38.9844,306.7969 39.1719,306.7969 L39.6406,306.7969 L39.6406,307.7344 L36.25,307.7344 L36.25,306.7969 L36.7813,306.7969 Q36.9688,306.7969 36.9688,306.7969 Q36.9844,306.7813 36.9844,306.7344 Q36.9844,306.6719 36.9375,306.5938 L35.3906,303.1719 L34.1094,305.8438 Q33.9688,306.1719 33.9063,306.3594 Q33.7969,306.5938 33.7969,306.6094 Q33.7969,306.7188 33.8594,306.7656 Q33.9375,306.7969 34.125,306.7969 L34.5156,306.7969 L34.5156,307.7344 L31.4688,307.7344 L31.4688,306.7969 L32,306.7969 Q32.2344,306.7969 32.4375,306.6563 Q32.6563,306.5 32.7656,306.2813 L34.8281,301.8906 L32.6094,297.0625 Q32.5625,296.9375 32.4688,296.8594 Q32.375,296.7813 32.2031,296.7813 L31.6719,296.7813 L31.6719,295.8438 L34.9219,295.8438 L34.9219,296.7813 L34.4531,296.7813 Q34.25,296.7813 34.2188,296.8438 Q34.2031,296.9063 34.3125,297.2188 L35.6563,300.1875 L37,297.3281 Q37.1563,296.9531 37.125,296.875 Q37.1094,296.7813 36.9063,296.7813 L36.25,296.7813 L36.25,295.8438 L39.375,295.8438 L39.375,296.7813 L38.7031,296.7813 Q38.6563,296.7813 38.5,296.8906 Q38.3594,296.9844 38.2031,297.1875 L36.2188,301.3594 Z M32.3906,307.3281 L32.3906,307.3281 Z M33,307.3281 L33,307.3281 Z M37.9688,296.7813 L37.9688,296.7813 Z M37.1719,296.7813 L37.1719,296.7813 Z M37.1719,307.3281 L37.1719,307.3281 Z M38.3125,307.3281 L38.3125,307.3281 Z M33.4531,296.7813 L33.4531,296.7813 Z M32.3906,296.7813 L32.3906,296.7813 Z " fill="#000000"/><text fill="#000000" font-family="sans-serif" font-size="14" lengthAdjust="spacing" textLength="79" x="49.5" y="307.7969">MyException</text><line style="stroke:#181818;stroke-width:0.5;" x1="21.5" x2="130.5" y1="318" y2="318"/><line style="stroke:#181818;stroke-width:0.5;" x1="21.5" x2="130.5" y1="326" y2="326"/></g><!--class MyInterface--><g id="elem_MyInterface"><rect codeLine="15" fill="#F1F1F1" height="48" id="MyInterface" rx="2.5" ry="2.5" style="stroke:#181818;stroke-width:0.5;" width="107" x="166.5" y="286"/><ellipse cx="181.5" cy="302" fill="#B4A7E5" rx="11" ry="11" style="stroke:#181818;stroke-width:1.0;"/><path d="M178.0938,296.7813 L178.0938,295.8438 L183.9375,295.8438 L183.9375,296.7813 L182.1406,296.7813 Q181.9688,296.7813 181.8906,296.8438 Q181.8125,296.9063 181.8125,297.0469 L181.8125,306.5313 Q181.8125,306.6719 181.8906,306.7344 Q181.9688,306.7969 182.1406,306.7969 L183.9375,306.7969 L183.9375,307.7344 L178.0938,307.7344 L178.0938,306.7969 L179.8906,306.7969 Q180.1094,306.7969 180.1563,306.75 Q180.2188,306.6875 180.2188,306.5313 L180.2188,297.0469 Q180.2188,296.8906 180.1563,296.8438 Q180.1094,296.7813 179.8906,296.7813 L178.0938,296.7813 Z " fill="#000000"/><text fill="#000000" font-family="sans-serif" font-size="14" font-style="italic" lengthAdjust="spacing" textLength="75" x="195.5" y="307.7969">MyInterface</text><line style="stroke:#181818;stroke-width:0.5;" x1="167.5" x2="272.5" y1="318" y2="318"/><line style="stroke:#181818;stroke-width:0.5;" x1="167.5" x2="272.5" y1="326" y2="326"/></g><!--class MyMetaclass--><g id="elem_MyMetaclass"><rect codeLine="16" fill="#F1F1F1" height="48" id="MyMetaclass" rx="2.5" ry="2.5" style="stroke:#181818;stroke-width:0.5;" width="113" x="308.5" y="286"/><ellipse cx="323.5" cy="302" fill="#CCCCCC" rx="11" ry="11" style="stroke:#181818;stroke-width:1.0;"/><path d="M326.9688,306.5313 Q326.9688,306.6719 327.0469,306.7344 Q327.125,306.7969 327.2969,306.7969 L327.8281,306.7969 L327.8281,307.7344 L324.4531,307.7344 L324.4531,306.7969 L325.0469,306.7969 Q325.2656,306.7969 325.3125,306.75 Q325.375,306.6875 325.375,306.5313 L325.5156,297.9688 L325.6406,298 L323.4531,307.7344 L322.6406,307.7344 L320.6563,298.2031 L320.7969,298.1719 L320.9219,306.5313 Q320.9219,306.6719 321,306.7344 Q321.0938,306.7969 321.2656,306.7969 L321.7188,306.7969 L321.7188,307.7344 L319.2031,307.7344 L319.2031,306.7969 L319.6719,306.7969 Q319.8906,306.7969 319.9375,306.75 Q320,306.6875 320,306.5313 L320,297.0469 Q320,296.8906 319.9375,296.8438 Q319.8906,296.7813 319.6719,296.7813 L319.1406,296.7813 L319.1406,295.8438 L321.5469,295.8438 L323.3906,304.8438 L323.25,304.8438 L325.2188,295.8438 L327.8281,295.8438 L327.8281,296.7813 L327.2969,296.7813 Q327.125,296.7813 327.0469,296.8438 Q326.9688,296.9063 326.9688,297.0469 L326.9688,306.5313 Z " fill="#000000"/><text fill="#000000" font-family="sans-serif" font-size="14" lengthAdjust="spacing" textLength="81" x="337.5" y="307.7969">MyMetaclass</text><line style="stroke:#181818;stroke-width:0.5;" x1="309.5" x2="420.5" y1="318" y2="318"/><line style="stroke:#181818;stroke-width:0.5;" x1="309.5" x2="420.5" y1="326" y2="326"/></g><!--class MyProtocol--><g id="elem_MyProtocol"><rect codeLine="17" fill="#F1F1F1" height="48" id="MyProtocol" rx="2.5" ry="2.5" style="stroke:#181818;stroke-width:0.5;" width="102" x="457" y="286"/><ellipse cx="472" cy="302" fill="#F1F1F1" rx="11" ry="11" style="stroke:#181818;stroke-width:1.0;"/><path d="M472.3125,302.4219 L472.3125,306.5313 Q472.3125,306.6719 472.3906,306.7344 Q472.4688,306.7969 472.6406,306.7969 L473.375,306.7969 L473.375,307.7344 L469.6563,307.7344 L469.6563,306.7969 L470.375,306.7969 Q470.6094,306.7969 470.6563,306.75 Q470.7188,306.6875 470.7188,306.5313 L470.7188,297.0469 Q470.7188,296.8906 470.6563,296.8438 Q470.6094,296.7813 470.375,296.7813 L469.7188,296.7813 L469.7188,295.8438 L473.9063,295.8438 Q475.6719,295.8438 476.6406,296.75 Q477.625,297.6563 477.625,299.0313 Q477.625,300.6875 476.5625,301.5625 Q475.5156,302.4219 474.0938,302.4219 L472.3125,302.4219 Z M473.7031,301.4844 Q474.6094,301.4844 475.2813,300.9688 Q475.9531,300.4375 475.9531,299.0938 Q475.9531,297.875 475.4063,297.3281 Q474.8594,296.7813 473.5625,296.7813 L472.6406,296.7813 Q472.4688,296.7813 472.3906,296.8438 Q472.3125,296.9063 472.3125,297.0469 L472.3125,301.4844 L473.7031,301.4844 Z " fill="#000000"/><text fill="#000000" font-family="sans-serif" font-size="14" lengthAdjust="spacing" textLength="70" x="486" y="307.7969">MyProtocol</text><line style="stroke:#181818;stroke-width:0.5;" x1="458" x2="558" y1="318" y2="318"/><line style="stroke:#181818;stroke-width:0.5;" x1="458" x2="558" y1="326" y2="326"/></g><!--class MyStereotype--><g id="elem_MyStereotype"><rect codeLine="18" fill="#F1F1F1" height="48" id="MyStereotype" rx="2.5" ry="2.5" style="stroke:#181818;stroke-width:0.5;" width="119" x="16.5" y="394"/><ellipse cx="31.5" cy="410" fill="#FF77FF" rx="11" ry="11" style="stroke:#181818;stroke-width:1.0;"/><path d="M31.6406,410 Q29.8125,409.1875 29.0781,408.5469 Q28.3594,407.9063 28.3594,406.5156 Q28.3594,405.4063 29.2656,404.4375 Q30.1875,403.4688 31.8125,403.4688 Q32.5313,403.4688 33.1719,403.6719 Q33.7344,403.9219 33.9375,403.9219 Q34.0625,403.9219 34.1563,403.875 Q34.2656,403.8125 34.7813,402.8281 L35.1563,406.625 L34.4063,406.9219 Q33.7188,405.3594 33.1563,404.9063 Q32.5938,404.4531 31.6875,404.4531 Q30.5625,404.4531 30.1563,405.0625 Q29.7656,405.6719 29.7656,406.3906 Q29.7656,407 30.1406,407.3906 Q30.5156,407.7656 32.3906,408.5938 Q34.0313,409.2813 34.7813,410.1875 Q35.5313,411.0781 35.5313,412.2969 Q35.5313,413.5781 34.625,414.5938 Q33.7344,415.6094 32.0156,415.6094 Q31.2969,415.6094 30.7344,415.3281 Q30.1719,415.1563 29.8906,415.1563 Q29.7656,415.1563 29.6094,415.2656 Q29.4531,415.375 28.8438,415.8125 L28.2031,411.9063 L29.0781,411.625 Q29.5938,413.4688 30.3438,414.0469 Q31.1094,414.625 32.0781,414.625 Q33.0938,414.625 33.5781,414.0469 Q34.0781,413.4688 34.0781,412.2969 Q34.0781,411.7344 33.5,411.1719 Q32.9219,410.5938 31.6406,410 Z " fill="#000000"/><text fill="#000000" font-family="sans-serif" font-size="14" lengthAdjust="spacing" textLength="87" x="45.5" y="415.7969">MyStereotype</text><line style="stroke:#181818;stroke-width:0.5;" x1="17.5" x2="134.5" y1="426" y2="426"/><line style="stroke:#181818;stroke-width:0.5;" x1="17.5" x2="134.5" y1="434" y2="434"/></g><!--class MyStruct--><g id="elem_MyStruct"><rect codeLine="19" fill="#F1F1F1" height="48" id="MyStruct" rx="2.5" ry="2.5" style="stroke:#181818;stroke-width:0.5;" width="87" x="170.5" y="394"/><ellipse cx="185.5" cy="410" fill="#F1F1F1" rx="11" ry="11" style="stroke:#181818;stroke-width:1.0;"/><path d="M185.6406,410 Q183.8125,409.1875 183.0781,408.5469 Q182.3594,407.9063 182.3594,406.5156 Q182.3594,405.4063 183.2656,404.4375 Q184.1875,403.4688 185.8125,403.4688 Q186.5313,403.4688 187.1719,403.6719 Q187.7344,403.9219 187.9375,403.9219 Q188.0625,403.9219 188.1563,403.875 Q188.2656,403.8125 188.7813,402.8281 L189.1563,406.625 L188.4063,406.9219 Q187.7188,405.3594 187.1563,404.9063 Q186.5938,404.4531 185.6875,404.4531 Q184.5625,404.4531 184.1563,405.0625 Q183.7656,405.6719 183.7656,406.3906 Q183.7656,407 184.1406,407.3906 Q184.5156,407.7656 186.3906,408.5938 Q188.0313,409.2813 188.7813,410.1875 Q189.5313,411.0781 189.5313,412.2969 Q189.5313,413.5781 188.625,414.5938 Q187.7344,415.6094 186.0156,415.6094 Q185.2969,415.6094 184.7344,415.3281 Q184.1719,415.1563 183.8906,415.1563 Q183.7656,415.1563 183.6094,415.2656 Q183.4531,415.375 182.8438,415.8125 L182.2031,411.9063 L183.0781,411.625 Q183.5938,413.4688 184.3438,414.0469 Q185.1094,414.625 186.0781,414.625 Q187.0938,414.625 187.5781,414.0469 Q188.0781,413.4688 188.0781,412.2969 Q188.0781,411.7344 187.5,411.1719 Q186.9219,410.5938 185.6406,410 Z " fill="#000000"/><text fill="#000000" font-family="sans-serif" font-size="14" lengthAdjust="spacing" textLength="55" x="199.5" y="415.7969">MyStruct</text><line style="stroke:#181818;stroke-width:0.5;" x1="171.5" x2="256.5" y1="426" y2="426"/><line style="stroke:#181818;stroke-width:0.5;" x1="171.5" x2="256.5" y1="434" y2="434"/></g><!--SRC=[LP112eCm44NtSueSH0HHeIviIwEBBjCuXO0c4aUebDwz4pMMPlN-IuRvH3qcyagJqBsQ9b4lsIxoa45PwqYHSJPS7G6qyRf7TlaA4AUtgRya2JqwaIJJ2hICcARG6JKus_6ZOYD0IuOM5kKAdET1D6R0rXeIRn1yYkmkLpXTsjj6TNLkcrB21_2bSTohbf71M5xxL3gKhIB3WAHYopeoZDwHqwvdUTqHVgtPoYEmzpD_Mt01u0i0]--></g></svg>