<?xml version="1.0" encoding="us-ascii" standalone="no"?><svg xmlns="http://www.w3.org/2000/svg" xmlns:xlink="http://www.w3.org/1999/xlink" contentStyleType="text/css" height="130.3125px" preserveAspectRatio="none" style="width:750px;height:130px;background:#FFFFFF;" version="1.1" viewBox="0 0 750 130" width="750.9375px" zoomAndPan="magnify"><defs/><g><!--cluster foo1--><g id="cluster_foo1"><polygon fill="none" points="15,24.375,24.375,15,116.25,15,116.25,105,106.875,114.375,15,114.375,15,24.375" style="stroke:#181818;stroke-width:0.9375;"/><line style="stroke:#181818;stroke-width:0.9375;" x1="106.875" x2="116.25" y1="24.375" y2="15"/><line style="stroke:#181818;stroke-width:0.9375;" x1="15" x2="106.875" y1="24.375" y2="24.375"/><line style="stroke:#181818;stroke-width:0.9375;" x1="106.875" x2="106.875" y1="24.375" y2="114.375"/><text fill="#000000" font-family="sans-serif" font-size="13.125" font-weight="bold" lengthAdjust="spacing" textLength="29.0625" x="47.3438" y="41.3507">foo1</text></g><!--cluster foo2--><g id="cluster_foo2"><rect fill="none" height="94.6875" rx="2.3438" ry="2.3438" style="stroke:#181818;stroke-width:0.9375;" width="101.25" x="138.75" y="19.6875"/><text fill="#000000" font-family="sans-serif" font-size="13.125" font-weight="bold" lengthAdjust="spacing" textLength="29.0625" x="174.8438" y="35.7257">foo2</text></g><!--cluster foo3--><g id="cluster_foo3"><path d="M264.8438,19.6875 L294.8438,19.6875 A3.5156,3.5156 0 0 1 297.1875,22.0313 L303.75,42.7698 L361.4063,42.7698 A2.3438,2.3438 0 0 1 363.75,45.1135 L363.75,112.0313 A2.3438,2.3438 0 0 1 361.4063,114.375 L264.8438,114.375 A2.3438,2.3438 0 0 1 262.5,112.0313 L262.5,22.0313 A2.3438,2.3438 0 0 1 264.8438,19.6875 " fill="none" style="stroke:#000000;stroke-width:1.40625;"/><line style="stroke:#000000;stroke-width:1.40625;" x1="262.5" x2="303.75" y1="42.7698" y2="42.7698"/><text fill="#000000" font-family="sans-serif" font-size="13.125" font-weight="bold" lengthAdjust="spacing" textLength="29.0625" x="266.25" y="35.7257">foo3</text></g><!--cluster foo4--><g id="cluster_foo4"><rect fill="none" height="94.6875" rx="2.3438" ry="2.3438" style="stroke:#181818;stroke-width:0.9375;" width="101.25" x="386.25" y="19.6875"/><path d="M424.6875,19.6875 L424.6875,30.5823 L415.3125,39.9573 L386.25,39.9573 " fill="none" style="stroke:#181818;stroke-width:0.9375;"/><text fill="#000000" font-family="sans-serif" font-size="13.125" font-weight="bold" lengthAdjust="spacing" textLength="29.0625" x="389.0625" y="34.7882">foo4</text></g><!--cluster foo5--><g id="cluster_foo5"><path d="M526.0552,28.3004 C527.5795,22.6181 533.1163,20.7101 537.5101,25.0062 C540.0847,18.8467 544.7801,18.1257 549.1946,23.0701 C552.7936,15.5305 556.9656,15.4441 562.5445,21.061 C567.252,16.4015 572.4928,16.0344 574.8104,23.4822 C579.6331,18.8361 582.7607,20.7511 585.2103,25.9812 C594.1268,19.7489 602.0715,22.7095 603.75,33.75 C604.8574,33.8586 605.2468,34.3704 604.856,35.4523 C609.5133,38.2602 610.3488,42.0002 605.1545,45.1125 C611.5305,46.918 611.8785,51.5736 607.9846,56.0391 C613.5014,59.8116 613.9039,64.7526 607.2461,67.7578 C612.0253,71.666 611.4535,75.3863 606.6794,78.8045 C611.6943,83.1443 610.3899,88.017 604.9985,90.9122 C609.5661,98.2359 607.3527,106.7604 597.1875,106.875 C597.7907,106.5612 598.4632,106.7733 598.4176,107.5844 C595.1144,113.0753 589.8489,113.8203 585.6723,108.6263 C582.4522,114.3236 579.0288,116.3285 573.597,111.0623 C571.0871,116.9392 567.4898,117.8888 562.6432,113.5736 C557.4022,119.8112 551.4409,118.5378 549.2358,110.6849 C544.5969,116.4008 540.651,115.1577 537.768,108.9903 C527.7254,115.8159 519.4612,112.362 517.5,100.3125 C518.9553,100.0709 519.323,100.851 518.9899,102.1 C512.4478,100.1484 512.468,95.6771 516.2633,91.1512 C508.8068,89.1405 508.4675,84.8558 512.5135,79.2276 C507.3632,76.2713 506.476,71.68 511.4278,67.7668 C506.3056,62.4933 508.5973,58.8931 514.2981,56.3376 C510.32,53.3286 510.4647,48.3413 515.3001,46.2036 C508.3113,36.1543 513.2728,29.0447 524.0625,27.1875 C525.0668,26.6117 526.1041,26.9902 526.0552,28.3004 " fill="none" style="stroke:#181818;stroke-width:0.9375;"/><text fill="#000000" font-family="sans-serif" font-size="13.125" font-weight="bold" lengthAdjust="spacing" textLength="29.0625" x="546.0938" y="46.0382">foo5</text></g><!--cluster foo6--><g id="cluster_foo6"><path d="M633.75,15 C633.75,5.625 684.375,5.625 684.375,5.625 C684.375,5.625 735,5.625 735,15 L735,105 C735,114.375 684.375,114.375 684.375,114.375 C684.375,114.375 633.75,114.375 633.75,105 L633.75,15 " fill="none" style="stroke:#181818;stroke-width:0.9375;"/><path d="M633.75,15 C633.75,24.375 684.375,24.375 684.375,24.375 C684.375,24.375 735,24.375 735,15 " fill="none" style="stroke:#181818;stroke-width:0.9375;"/><text fill="#000000" font-family="sans-serif" font-size="13.125" font-weight="bold" lengthAdjust="spacing" textLength="29.0625" x="669.8438" y="40.4132">foo6</text></g><!--class Class1--><g id="elem_Class1"><rect codeLine="3" fill="#F1F1F1" height="45" id="Class1" rx="2.3438" ry="2.3438" style="stroke:#181818;stroke-width:0.46875;" width="70.3125" x="30.4688" y="54.375"/><ellipse cx="44.5313" cy="69.375" fill="#ADD1B2" rx="10.3125" ry="10.3125" style="stroke:#181818;stroke-width:0.9375;"/><path d="M43.916,74.8682 Q42.0557,74.8682 40.957,73.4912 Q39.873,72.0996 39.873,69.2139 Q39.873,66.7676 41.0156,65.127 Q42.1729,63.4863 44.165,63.4863 Q44.6338,63.4863 45.1318,63.6182 Q45.542,63.7939 45.791,63.7939 Q45.9961,63.7939 46.084,63.75 Q46.1865,63.7061 46.6113,63.1494 L47.3291,66.6504 L46.4941,66.8994 Q46.0693,65.5371 45.498,64.9805 Q44.9414,64.4092 44.0479,64.4092 Q42.9053,64.4092 42.2314,65.7568 Q41.5576,67.0898 41.5576,69.1406 Q41.5576,71.3965 42.1289,72.6123 Q42.7148,73.8135 43.9893,73.8135 Q44.8828,73.8135 45.5273,73.1689 Q46.1719,72.5098 46.4795,71.1035 L47.3291,71.4844 Q46.9482,73.0811 46.04,73.9746 Q45.1465,74.8682 43.916,74.8682 Z " fill="#000000"/><text fill="#000000" font-family="sans-serif" font-size="13.125" lengthAdjust="spacing" textLength="40.3125" x="57.6563" y="74.8096">Class1</text><line style="stroke:#181818;stroke-width:0.46875;" x1="31.4063" x2="99.8438" y1="84.375" y2="84.375"/><line style="stroke:#181818;stroke-width:0.46875;" x1="31.4063" x2="99.8438" y1="91.875" y2="91.875"/></g><!--class Class2--><g id="elem_Class2"><rect codeLine="7" fill="#F1F1F1" height="45" id="Class2" rx="2.3438" ry="2.3438" style="stroke:#181818;stroke-width:0.46875;" width="70.3125" x="154.2188" y="54.375"/><ellipse cx="168.2813" cy="69.375" fill="#ADD1B2" rx="10.3125" ry="10.3125" style="stroke:#181818;stroke-width:0.9375;"/><path d="M167.666,74.8682 Q165.8057,74.8682 164.707,73.4912 Q163.623,72.0996 163.623,69.2139 Q163.623,66.7676 164.7656,65.127 Q165.9229,63.4863 167.915,63.4863 Q168.3838,63.4863 168.8818,63.6182 Q169.292,63.7939 169.541,63.7939 Q169.7461,63.7939 169.834,63.75 Q169.9365,63.7061 170.3613,63.1494 L171.0791,66.6504 L170.2441,66.8994 Q169.8193,65.5371 169.248,64.9805 Q168.6914,64.4092 167.7979,64.4092 Q166.6553,64.4092 165.9814,65.7568 Q165.3076,67.0898 165.3076,69.1406 Q165.3076,71.3965 165.8789,72.6123 Q166.4648,73.8135 167.7393,73.8135 Q168.6328,73.8135 169.2773,73.1689 Q169.9219,72.5098 170.2295,71.1035 L171.0791,71.4844 Q170.6982,73.0811 169.79,73.9746 Q168.8965,74.8682 167.666,74.8682 Z " fill="#000000"/><text fill="#000000" font-family="sans-serif" font-size="13.125" lengthAdjust="spacing" textLength="40.3125" x="181.4063" y="74.8096">Class2</text><line style="stroke:#181818;stroke-width:0.46875;" x1="155.1563" x2="223.5938" y1="84.375" y2="84.375"/><line style="stroke:#181818;stroke-width:0.46875;" x1="155.1563" x2="223.5938" y1="91.875" y2="91.875"/></g><!--class Class3--><g id="elem_Class3"><rect codeLine="11" fill="#F1F1F1" height="45" id="Class3" rx="2.3438" ry="2.3438" style="stroke:#181818;stroke-width:0.46875;" width="70.3125" x="277.9688" y="54.375"/><ellipse cx="292.0313" cy="69.375" fill="#ADD1B2" rx="10.3125" ry="10.3125" style="stroke:#181818;stroke-width:0.9375;"/><path d="M291.416,74.8682 Q289.5557,74.8682 288.457,73.4912 Q287.373,72.0996 287.373,69.2139 Q287.373,66.7676 288.5156,65.127 Q289.6729,63.4863 291.665,63.4863 Q292.1338,63.4863 292.6318,63.6182 Q293.042,63.7939 293.291,63.7939 Q293.4961,63.7939 293.584,63.75 Q293.6865,63.7061 294.1113,63.1494 L294.8291,66.6504 L293.9941,66.8994 Q293.5693,65.5371 292.998,64.9805 Q292.4414,64.4092 291.5479,64.4092 Q290.4053,64.4092 289.7314,65.7568 Q289.0576,67.0898 289.0576,69.1406 Q289.0576,71.3965 289.6289,72.6123 Q290.2148,73.8135 291.4893,73.8135 Q292.3828,73.8135 293.0273,73.1689 Q293.6719,72.5098 293.9795,71.1035 L294.8291,71.4844 Q294.4482,73.0811 293.54,73.9746 Q292.6465,74.8682 291.416,74.8682 Z " fill="#000000"/><text fill="#000000" font-family="sans-serif" font-size="13.125" lengthAdjust="spacing" textLength="40.3125" x="305.1563" y="74.8096">Class3</text><line style="stroke:#181818;stroke-width:0.46875;" x1="278.9063" x2="347.3438" y1="84.375" y2="84.375"/><line style="stroke:#181818;stroke-width:0.46875;" x1="278.9063" x2="347.3438" y1="91.875" y2="91.875"/></g><!--class Class4--><g id="elem_Class4"><rect codeLine="15" fill="#F1F1F1" height="45" id="Class4" rx="2.3438" ry="2.3438" style="stroke:#181818;stroke-width:0.46875;" width="70.3125" x="401.7188" y="54.375"/><ellipse cx="415.7813" cy="69.375" fill="#ADD1B2" rx="10.3125" ry="10.3125" style="stroke:#181818;stroke-width:0.9375;"/><path d="M415.166,74.8682 Q413.3057,74.8682 412.207,73.4912 Q411.123,72.0996 411.123,69.2139 Q411.123,66.7676 412.2656,65.127 Q413.4229,63.4863 415.415,63.4863 Q415.8838,63.4863 416.3818,63.6182 Q416.792,63.7939 417.041,63.7939 Q417.2461,63.7939 417.334,63.75 Q417.4365,63.7061 417.8613,63.1494 L418.5791,66.6504 L417.7441,66.8994 Q417.3193,65.5371 416.748,64.9805 Q416.1914,64.4092 415.2979,64.4092 Q414.1553,64.4092 413.4814,65.7568 Q412.8076,67.0898 412.8076,69.1406 Q412.8076,71.3965 413.3789,72.6123 Q413.9648,73.8135 415.2393,73.8135 Q416.1328,73.8135 416.7773,73.1689 Q417.4219,72.5098 417.7295,71.1035 L418.5791,71.4844 Q418.1982,73.0811 417.29,73.9746 Q416.3965,74.8682 415.166,74.8682 Z " fill="#000000"/><text fill="#000000" font-family="sans-serif" font-size="13.125" lengthAdjust="spacing" textLength="40.3125" x="428.9063" y="74.8096">Class4</text><line style="stroke:#181818;stroke-width:0.46875;" x1="402.6563" x2="471.0938" y1="84.375" y2="84.375"/><line style="stroke:#181818;stroke-width:0.46875;" x1="402.6563" x2="471.0938" y1="91.875" y2="91.875"/></g><!--class Class5--><g id="elem_Class5"><rect codeLine="19" fill="#F1F1F1" height="45" id="Class5" rx="2.3438" ry="2.3438" style="stroke:#181818;stroke-width:0.46875;" width="70.3125" x="525.4688" y="54.375"/><ellipse cx="539.5313" cy="69.375" fill="#ADD1B2" rx="10.3125" ry="10.3125" style="stroke:#181818;stroke-width:0.9375;"/><path d="M538.916,74.8682 Q537.0557,74.8682 535.957,73.4912 Q534.873,72.0996 534.873,69.2139 Q534.873,66.7676 536.0156,65.127 Q537.1729,63.4863 539.165,63.4863 Q539.6338,63.4863 540.1318,63.6182 Q540.542,63.7939 540.791,63.7939 Q540.9961,63.7939 541.084,63.75 Q541.1865,63.7061 541.6113,63.1494 L542.3291,66.6504 L541.4941,66.8994 Q541.0693,65.5371 540.498,64.9805 Q539.9414,64.4092 539.0479,64.4092 Q537.9053,64.4092 537.2314,65.7568 Q536.5576,67.0898 536.5576,69.1406 Q536.5576,71.3965 537.1289,72.6123 Q537.7148,73.8135 538.9893,73.8135 Q539.8828,73.8135 540.5273,73.1689 Q541.1719,72.5098 541.4795,71.1035 L542.3291,71.4844 Q541.9482,73.0811 541.04,73.9746 Q540.1465,74.8682 538.916,74.8682 Z " fill="#000000"/><text fill="#000000" font-family="sans-serif" font-size="13.125" lengthAdjust="spacing" textLength="40.3125" x="552.6563" y="74.8096">Class5</text><line style="stroke:#181818;stroke-width:0.46875;" x1="526.4063" x2="594.8438" y1="84.375" y2="84.375"/><line style="stroke:#181818;stroke-width:0.46875;" x1="526.4063" x2="594.8438" y1="91.875" y2="91.875"/></g><!--class Class6--><g id="elem_Class6"><rect codeLine="23" fill="#F1F1F1" height="45" id="Class6" rx="2.3438" ry="2.3438" style="stroke:#181818;stroke-width:0.46875;" width="70.3125" x="649.2188" y="54.375"/><ellipse cx="663.2813" cy="69.375" fill="#ADD1B2" rx="10.3125" ry="10.3125" style="stroke:#181818;stroke-width:0.9375;"/><path d="M662.666,74.8682 Q660.8057,74.8682 659.707,73.4912 Q658.623,72.0996 658.623,69.2139 Q658.623,66.7676 659.7656,65.127 Q660.9229,63.4863 662.915,63.4863 Q663.3838,63.4863 663.8818,63.6182 Q664.292,63.7939 664.541,63.7939 Q664.7461,63.7939 664.834,63.75 Q664.9365,63.7061 665.3613,63.1494 L666.0791,66.6504 L665.2441,66.8994 Q664.8193,65.5371 664.248,64.9805 Q663.6914,64.4092 662.7979,64.4092 Q661.6553,64.4092 660.9814,65.7568 Q660.3076,67.0898 660.3076,69.1406 Q660.3076,71.3965 660.8789,72.6123 Q661.4648,73.8135 662.7393,73.8135 Q663.6328,73.8135 664.2773,73.1689 Q664.9219,72.5098 665.2295,71.1035 L666.0791,71.4844 Q665.6982,73.0811 664.79,73.9746 Q663.8965,74.8682 662.666,74.8682 Z " fill="#000000"/><text fill="#000000" font-family="sans-serif" font-size="13.125" lengthAdjust="spacing" textLength="40.3125" x="676.4063" y="74.8096">Class6</text><line style="stroke:#181818;stroke-width:0.46875;" x1="650.1563" x2="718.5938" y1="84.375" y2="84.375"/><line style="stroke:#181818;stroke-width:0.46875;" x1="650.1563" x2="718.5938" y1="91.875" y2="91.875"/></g><!--SRC=[RSmz3i8m343XtQVm4UXFob9rAM9au0OcCGLXSDMawe1wTz8DfLdUzEbvIy9uD0TSdYuyO2Jxee7nhbfWsrxKSTVX5n2jaFVORorWXNzPHdbb6-WpI8QN2QyYFwiudlQsIcozsOdUcMsTK1DfBpgxFJK9RI8zKQ0R-SouWVK7]--></g></svg>