<?xml version="1.0" encoding="us-ascii" standalone="no"?><svg xmlns="http://www.w3.org/2000/svg" xmlns:xlink="http://www.w3.org/1999/xlink" contentStyleType="text/css" height="170px" preserveAspectRatio="none" style="width:79px;height:170px;background:#FFFFFF;" version="1.1" viewBox="0 0 79 170" width="79px" zoomAndPan="magnify"><defs/><g><!--class Foo1--><g id="elem_Foo1"><rect codeLine="2" fill="#F1F1F1" height="48" id="Foo1" rx="2.5" ry="2.5" style="stroke:#181818;stroke-width:0.5;" width="65" x="7" y="115"/><ellipse cx="22" cy="131" fill="#ADD1B2" rx="11" ry="11" style="stroke:#181818;stroke-width:1.0;"/><path d="M21.3438,136.8594 Q19.3594,136.8594 18.1875,135.3906 Q17.0313,133.9063 17.0313,130.8281 Q17.0313,128.2188 18.25,126.4688 Q19.4844,124.7188 21.6094,124.7188 Q22.1094,124.7188 22.6406,124.8594 Q23.0781,125.0469 23.3438,125.0469 Q23.5625,125.0469 23.6563,125 Q23.7656,124.9531 24.2188,124.3594 L24.9844,128.0938 L24.0938,128.3594 Q23.6406,126.9063 23.0313,126.3125 Q22.4375,125.7031 21.4844,125.7031 Q20.2656,125.7031 19.5469,127.1406 Q18.8281,128.5625 18.8281,130.75 Q18.8281,133.1563 19.4375,134.4531 Q20.0625,135.7344 21.4219,135.7344 Q22.375,135.7344 23.0625,135.0469 Q23.75,134.3438 24.0781,132.8438 L24.9844,133.25 Q24.5781,134.9531 23.6094,135.9063 Q22.6563,136.8594 21.3438,136.8594 Z " fill="#000000"/><text fill="#000000" font-family="sans-serif" font-size="14" lengthAdjust="spacing" textLength="33" x="36" y="136.7969">Foo1</text><line style="stroke:#181818;stroke-width:0.5;" x1="8" x2="71" y1="147" y2="147"/><line style="stroke:#181818;stroke-width:0.5;" x1="8" x2="71" y1="155" y2="155"/></g><!--class Foo2--><!--reverse link Foo2 to Foo1--><!--SRC=[Iyv9B2vMSClFD-HAXZ6DkBX0f8AMhYv4XYiZCoKL8WC0]--></g></svg>