<?xml version="1.0" encoding="us-ascii" standalone="no"?><svg xmlns="http://www.w3.org/2000/svg" xmlns:xlink="http://www.w3.org/1999/xlink" contentStyleType="text/css" height="204px" preserveAspectRatio="none" style="width:244px;height:204px;background:#FFFFFF;" version="1.1" viewBox="0 0 244 204" width="244px" zoomAndPan="magnify"><defs/><g><!--class Dummy1--><g id="elem_Dummy1"><rect codeLine="2" fill="#F1F1F1" height="58.6211" id="Dummy1" rx="2.5" ry="2.5" style="stroke:#181818;stroke-width:0.5;" width="108" x="7" y="7"/><ellipse cx="31.45" cy="23" fill="#ADD1B2" rx="11" ry="11" style="stroke:#181818;stroke-width:1.0;"/><path d="M30.7938,28.8594 Q28.8094,28.8594 27.6375,27.3906 Q26.4813,25.9063 26.4813,22.8281 Q26.4813,20.2188 27.7,18.4688 Q28.9344,16.7188 31.0594,16.7188 Q31.5594,16.7188 32.0906,16.8594 Q32.5281,17.0469 32.7938,17.0469 Q33.0125,17.0469 33.1063,17 Q33.2156,16.9531 33.6688,16.3594 L34.4344,20.0938 L33.5438,20.3594 Q33.0906,18.9063 32.4813,18.3125 Q31.8875,17.7031 30.9344,17.7031 Q29.7156,17.7031 28.9969,19.1406 Q28.2781,20.5625 28.2781,22.75 Q28.2781,25.1563 28.8875,26.4531 Q29.5125,27.7344 30.8719,27.7344 Q31.825,27.7344 32.5125,27.0469 Q33.2,26.3438 33.5281,24.8438 L34.4344,25.25 Q34.0281,26.9531 33.0594,27.9063 Q32.1063,28.8594 30.7938,28.8594 Z " fill="#000000"/><text fill="#000000" font-family="sans-serif" font-size="14" lengthAdjust="spacing" textLength="55" x="47.55" y="28.7969">Dummy1</text><line style="stroke:#181818;stroke-width:0.5;" x1="8" x2="114" y1="39" y2="39"/><ellipse cx="18" cy="53.8105" fill="#84BE84" rx="3" ry="3" style="stroke:#038048;stroke-width:1.0;"/><text fill="#000000" font-family="sans-serif" font-size="14" lengthAdjust="spacing" textLength="82" x="27" y="58.1074">myMethods()</text></g><!--class Dummy2--><g id="elem_Dummy2"><rect codeLine="6" fill="#F1F1F1" height="32" id="Dummy2" rx="2.5" ry="2.5" style="stroke:#181818;stroke-width:0.5;" width="87" x="150.5" y="20.5"/><ellipse cx="165.5" cy="36.5" fill="#ADD1B2" rx="11" ry="11" style="stroke:#181818;stroke-width:1.0;"/><path d="M164.8438,42.3594 Q162.8594,42.3594 161.6875,40.8906 Q160.5313,39.4063 160.5313,36.3281 Q160.5313,33.7188 161.75,31.9688 Q162.9844,30.2188 165.1094,30.2188 Q165.6094,30.2188 166.1406,30.3594 Q166.5781,30.5469 166.8438,30.5469 Q167.0625,30.5469 167.1563,30.5 Q167.2656,30.4531 167.7188,29.8594 L168.4844,33.5938 L167.5938,33.8594 Q167.1406,32.4063 166.5313,31.8125 Q165.9375,31.2031 164.9844,31.2031 Q163.7656,31.2031 163.0469,32.6406 Q162.3281,34.0625 162.3281,36.25 Q162.3281,38.6563 162.9375,39.9531 Q163.5625,41.2344 164.9219,41.2344 Q165.875,41.2344 166.5625,40.5469 Q167.25,39.8438 167.5781,38.3438 L168.4844,38.75 Q168.0781,40.4531 167.1094,41.4063 Q166.1563,42.3594 164.8438,42.3594 Z " fill="#000000"/><text fill="#000000" font-family="sans-serif" font-size="14" lengthAdjust="spacing" textLength="55" x="179.5" y="42.2969">Dummy2</text></g><!--class Dummy3--><g id="elem_Dummy3"><rect codeLine="10" fill="#F1F1F1" height="71.2031" id="Dummy3" rx="2.5" ry="2.5" style="stroke:#181818;stroke-width:0.5;" width="88" x="17" y="126"/><text fill="#000000" font-family="sans-serif" font-size="12" font-style="italic" lengthAdjust="spacing" textLength="81" x="20.5" y="143.9492">&#171;Serializable&#187;</text><text fill="#000000" font-family="sans-serif" font-size="14" lengthAdjust="spacing" textLength="55" x="33.5" y="162.0684">Dummy3</text><line style="stroke:#181818;stroke-width:0.5;" x1="18" x2="104" y1="170.582" y2="170.582"/><text fill="#000000" font-family="sans-serif" font-size="14" lengthAdjust="spacing" textLength="76" x="23" y="189.6895">String name</text></g><!--SRC=[POun3i8m34Ltdy8ZY0cwLfrOcNg2D374KfnASH5g4NTla8KOCdx_zwplarF5wrDaFUCR44-otcY9Sz334Ju0_WzS38WS0cM36gR3lX-fi4kykIdHC5HfN0hd1sOdzCNh0q8XcQYeXSRnN7mYq3Y_VkF4Ljcj4UvCgPOx]--></g></svg>