<?xml version="1.0" encoding="us-ascii" standalone="no"?><svg xmlns="http://www.w3.org/2000/svg" xmlns:xlink="http://www.w3.org/1999/xlink" contentStyleType="text/css" height="228px" preserveAspectRatio="none" style="width:547px;height:228px;background:#FFFFFF;" version="1.1" viewBox="0 0 547 228" width="547px" zoomAndPan="magnify"><defs/><g><text fill="#000000" font-family="sans-serif" font-size="14" font-weight="bold" lengthAdjust="spacing" textLength="174" x="179.5" y="25.1074">Bracketed line thickness</text><!--class foo--><g id="elem_foo"><rect codeLine="2" fill="#F1F1F1" height="48" id="foo" rx="2.5" ry="2.5" style="stroke:#181818;stroke-width:0.5;" width="52" x="243.5" y="46.6211"/><ellipse cx="258.5" cy="62.6211" fill="#ADD1B2" rx="11" ry="11" style="stroke:#181818;stroke-width:1.0;"/><path d="M257.8438,68.4805 Q255.8594,68.4805 254.6875,67.0117 Q253.5313,65.5273 253.5313,62.4492 Q253.5313,59.8398 254.75,58.0898 Q255.9844,56.3398 258.1094,56.3398 Q258.6094,56.3398 259.1406,56.4805 Q259.5781,56.668 259.8438,56.668 Q260.0625,56.668 260.1563,56.6211 Q260.2656,56.5742 260.7188,55.9805 L261.4844,59.7148 L260.5938,59.9805 Q260.1406,58.5273 259.5313,57.9336 Q258.9375,57.3242 257.9844,57.3242 Q256.7656,57.3242 256.0469,58.7617 Q255.3281,60.1836 255.3281,62.3711 Q255.3281,64.7773 255.9375,66.0742 Q256.5625,67.3555 257.9219,67.3555 Q258.875,67.3555 259.5625,66.668 Q260.25,65.9648 260.5781,64.4648 L261.4844,64.8711 Q261.0781,66.5742 260.1094,67.5273 Q259.1563,68.4805 257.8438,68.4805 Z " fill="#000000"/><text fill="#000000" font-family="sans-serif" font-size="14" lengthAdjust="spacing" textLength="20" x="272.5" y="68.418">foo</text><line style="stroke:#181818;stroke-width:0.5;" x1="244.5" x2="294.5" y1="78.6211" y2="78.6211"/><line style="stroke:#181818;stroke-width:0.5;" x1="244.5" x2="294.5" y1="86.6211" y2="86.6211"/></g><!--class bar--><g id="elem_bar"><rect codeLine="3" fill="#F1F1F1" height="48" id="bar" rx="2.5" ry="2.5" style="stroke:#181818;stroke-width:0.5;" width="53" x="7" y="173.6211"/><ellipse cx="22" cy="189.6211" fill="#ADD1B2" rx="11" ry="11" style="stroke:#181818;stroke-width:1.0;"/><path d="M21.3438,195.4805 Q19.3594,195.4805 18.1875,194.0117 Q17.0313,192.5273 17.0313,189.4492 Q17.0313,186.8398 18.25,185.0898 Q19.4844,183.3398 21.6094,183.3398 Q22.1094,183.3398 22.6406,183.4805 Q23.0781,183.668 23.3438,183.668 Q23.5625,183.668 23.6563,183.6211 Q23.7656,183.5742 24.2188,182.9805 L24.9844,186.7148 L24.0938,186.9805 Q23.6406,185.5273 23.0313,184.9336 Q22.4375,184.3242 21.4844,184.3242 Q20.2656,184.3242 19.5469,185.7617 Q18.8281,187.1836 18.8281,189.3711 Q18.8281,191.7773 19.4375,193.0742 Q20.0625,194.3555 21.4219,194.3555 Q22.375,194.3555 23.0625,193.668 Q23.75,192.9648 24.0781,191.4648 L24.9844,191.8711 Q24.5781,193.5742 23.6094,194.5273 Q22.6563,195.4805 21.3438,195.4805 Z " fill="#000000"/><text fill="#000000" font-family="sans-serif" font-size="14" lengthAdjust="spacing" textLength="21" x="36" y="195.418">bar</text><line style="stroke:#181818;stroke-width:0.5;" x1="8" x2="59" y1="205.6211" y2="205.6211"/><line style="stroke:#181818;stroke-width:0.5;" x1="8" x2="59" y1="213.6211" y2="213.6211"/></g><!--class bar1--><g id="elem_bar1"><rect fill="#F1F1F1" height="48" id="bar1" rx="2.5" ry="2.5" style="stroke:#181818;stroke-width:0.5;" width="61" x="95" y="173.6211"/><ellipse cx="110" cy="189.6211" fill="#ADD1B2" rx="11" ry="11" style="stroke:#181818;stroke-width:1.0;"/><path d="M109.3438,195.4805 Q107.3594,195.4805 106.1875,194.0117 Q105.0313,192.5273 105.0313,189.4492 Q105.0313,186.8398 106.25,185.0898 Q107.4844,183.3398 109.6094,183.3398 Q110.1094,183.3398 110.6406,183.4805 Q111.0781,183.668 111.3438,183.668 Q111.5625,183.668 111.6563,183.6211 Q111.7656,183.5742 112.2188,182.9805 L112.9844,186.7148 L112.0938,186.9805 Q111.6406,185.5273 111.0313,184.9336 Q110.4375,184.3242 109.4844,184.3242 Q108.2656,184.3242 107.5469,185.7617 Q106.8281,187.1836 106.8281,189.3711 Q106.8281,191.7773 107.4375,193.0742 Q108.0625,194.3555 109.4219,194.3555 Q110.375,194.3555 111.0625,193.668 Q111.75,192.9648 112.0781,191.4648 L112.9844,191.8711 Q112.5781,193.5742 111.6094,194.5273 Q110.6563,195.4805 109.3438,195.4805 Z " fill="#000000"/><text fill="#000000" font-family="sans-serif" font-size="14" lengthAdjust="spacing" textLength="29" x="124" y="195.418">bar1</text><line style="stroke:#181818;stroke-width:0.5;" x1="96" x2="155" y1="205.6211" y2="205.6211"/><line style="stroke:#181818;stroke-width:0.5;" x1="96" x2="155" y1="213.6211" y2="213.6211"/></g><!--class bar2--><g id="elem_bar2"><rect fill="#F1F1F1" height="48" id="bar2" rx="2.5" ry="2.5" style="stroke:#181818;stroke-width:0.5;" width="61" x="191" y="173.6211"/><ellipse cx="206" cy="189.6211" fill="#ADD1B2" rx="11" ry="11" style="stroke:#181818;stroke-width:1.0;"/><path d="M205.3438,195.4805 Q203.3594,195.4805 202.1875,194.0117 Q201.0313,192.5273 201.0313,189.4492 Q201.0313,186.8398 202.25,185.0898 Q203.4844,183.3398 205.6094,183.3398 Q206.1094,183.3398 206.6406,183.4805 Q207.0781,183.668 207.3438,183.668 Q207.5625,183.668 207.6563,183.6211 Q207.7656,183.5742 208.2188,182.9805 L208.9844,186.7148 L208.0938,186.9805 Q207.6406,185.5273 207.0313,184.9336 Q206.4375,184.3242 205.4844,184.3242 Q204.2656,184.3242 203.5469,185.7617 Q202.8281,187.1836 202.8281,189.3711 Q202.8281,191.7773 203.4375,193.0742 Q204.0625,194.3555 205.4219,194.3555 Q206.375,194.3555 207.0625,193.668 Q207.75,192.9648 208.0781,191.4648 L208.9844,191.8711 Q208.5781,193.5742 207.6094,194.5273 Q206.6563,195.4805 205.3438,195.4805 Z " fill="#000000"/><text fill="#000000" font-family="sans-serif" font-size="14" lengthAdjust="spacing" textLength="29" x="220" y="195.418">bar2</text><line style="stroke:#181818;stroke-width:0.5;" x1="192" x2="251" y1="205.6211" y2="205.6211"/><line style="stroke:#181818;stroke-width:0.5;" x1="192" x2="251" y1="213.6211" y2="213.6211"/></g><!--class bar3--><g id="elem_bar3"><rect fill="#F1F1F1" height="48" id="bar3" rx="2.5" ry="2.5" style="stroke:#181818;stroke-width:0.5;" width="61" x="287" y="173.6211"/><ellipse cx="302" cy="189.6211" fill="#ADD1B2" rx="11" ry="11" style="stroke:#181818;stroke-width:1.0;"/><path d="M301.3438,195.4805 Q299.3594,195.4805 298.1875,194.0117 Q297.0313,192.5273 297.0313,189.4492 Q297.0313,186.8398 298.25,185.0898 Q299.4844,183.3398 301.6094,183.3398 Q302.1094,183.3398 302.6406,183.4805 Q303.0781,183.668 303.3438,183.668 Q303.5625,183.668 303.6563,183.6211 Q303.7656,183.5742 304.2188,182.9805 L304.9844,186.7148 L304.0938,186.9805 Q303.6406,185.5273 303.0313,184.9336 Q302.4375,184.3242 301.4844,184.3242 Q300.2656,184.3242 299.5469,185.7617 Q298.8281,187.1836 298.8281,189.3711 Q298.8281,191.7773 299.4375,193.0742 Q300.0625,194.3555 301.4219,194.3555 Q302.375,194.3555 303.0625,193.668 Q303.75,192.9648 304.0781,191.4648 L304.9844,191.8711 Q304.5781,193.5742 303.6094,194.5273 Q302.6563,195.4805 301.3438,195.4805 Z " fill="#000000"/><text fill="#000000" font-family="sans-serif" font-size="14" lengthAdjust="spacing" textLength="29" x="316" y="195.418">bar3</text><line style="stroke:#181818;stroke-width:0.5;" x1="288" x2="347" y1="205.6211" y2="205.6211"/><line style="stroke:#181818;stroke-width:0.5;" x1="288" x2="347" y1="213.6211" y2="213.6211"/></g><!--class bar4--><g id="elem_bar4"><rect fill="#F1F1F1" height="48" id="bar4" rx="2.5" ry="2.5" style="stroke:#181818;stroke-width:0.5;" width="61" x="383" y="173.6211"/><ellipse cx="398" cy="189.6211" fill="#ADD1B2" rx="11" ry="11" style="stroke:#181818;stroke-width:1.0;"/><path d="M397.3438,195.4805 Q395.3594,195.4805 394.1875,194.0117 Q393.0313,192.5273 393.0313,189.4492 Q393.0313,186.8398 394.25,185.0898 Q395.4844,183.3398 397.6094,183.3398 Q398.1094,183.3398 398.6406,183.4805 Q399.0781,183.668 399.3438,183.668 Q399.5625,183.668 399.6563,183.6211 Q399.7656,183.5742 400.2188,182.9805 L400.9844,186.7148 L400.0938,186.9805 Q399.6406,185.5273 399.0313,184.9336 Q398.4375,184.3242 397.4844,184.3242 Q396.2656,184.3242 395.5469,185.7617 Q394.8281,187.1836 394.8281,189.3711 Q394.8281,191.7773 395.4375,193.0742 Q396.0625,194.3555 397.4219,194.3555 Q398.375,194.3555 399.0625,193.668 Q399.75,192.9648 400.0781,191.4648 L400.9844,191.8711 Q400.5781,193.5742 399.6094,194.5273 Q398.6563,195.4805 397.3438,195.4805 Z " fill="#000000"/><text fill="#000000" font-family="sans-serif" font-size="14" lengthAdjust="spacing" textLength="29" x="412" y="195.418">bar4</text><line style="stroke:#181818;stroke-width:0.5;" x1="384" x2="443" y1="205.6211" y2="205.6211"/><line style="stroke:#181818;stroke-width:0.5;" x1="384" x2="443" y1="213.6211" y2="213.6211"/></g><!--class bar5--><g id="elem_bar5"><rect fill="#F1F1F1" height="48" id="bar5" rx="2.5" ry="2.5" style="stroke:#181818;stroke-width:0.5;" width="61" x="479" y="173.6211"/><ellipse cx="494" cy="189.6211" fill="#ADD1B2" rx="11" ry="11" style="stroke:#181818;stroke-width:1.0;"/><path d="M493.3438,195.4805 Q491.3594,195.4805 490.1875,194.0117 Q489.0313,192.5273 489.0313,189.4492 Q489.0313,186.8398 490.25,185.0898 Q491.4844,183.3398 493.6094,183.3398 Q494.1094,183.3398 494.6406,183.4805 Q495.0781,183.668 495.3438,183.668 Q495.5625,183.668 495.6563,183.6211 Q495.7656,183.5742 496.2188,182.9805 L496.9844,186.7148 L496.0938,186.9805 Q495.6406,185.5273 495.0313,184.9336 Q494.4375,184.3242 493.4844,184.3242 Q492.2656,184.3242 491.5469,185.7617 Q490.8281,187.1836 490.8281,189.3711 Q490.8281,191.7773 491.4375,193.0742 Q492.0625,194.3555 493.4219,194.3555 Q494.375,194.3555 495.0625,193.668 Q495.75,192.9648 496.0781,191.4648 L496.9844,191.8711 Q496.5781,193.5742 495.6094,194.5273 Q494.6563,195.4805 493.3438,195.4805 Z " fill="#000000"/><text fill="#000000" font-family="sans-serif" font-size="14" lengthAdjust="spacing" textLength="29" x="508" y="195.418">bar5</text><line style="stroke:#181818;stroke-width:0.5;" x1="480" x2="539" y1="205.6211" y2="205.6211"/><line style="stroke:#181818;stroke-width:0.5;" x1="480" x2="539" y1="213.6211" y2="213.6211"/></g><!--link foo to bar--><g id="link_foo_bar"><path codeLine="5" d="M243.46,85.0311 C222.81,95.6811 193.26,111.0111 167.5,124.6211 C130.14,144.3611 92.4162,164.6942 65.4162,179.3142 " fill="none" id="foo-to-bar" style="stroke:#181818;stroke-width:1.0;"/><polygon fill="#181818" points="60.14,182.1711,69.9589,181.4031,64.5368,179.7903,66.1496,174.3682,60.14,182.1711" style="stroke:#181818;stroke-width:1.0;"/><text fill="#000000" font-family="sans-serif" font-size="13" lengthAdjust="spacing" textLength="12" x="168.5" y="139.6494">&#8709;</text></g><!--link foo to bar1--><g id="link_foo_bar1"><path codeLine="6" d="M243.42,94.2611 C217.65,116.6311 182.9314,146.7683 156.8914,169.3683 " fill="none" id="foo-to-bar1" style="stroke:#181818;stroke-width:1.0;"/><polygon fill="#181818" points="152.36,173.3011,161.7789,170.4229,156.1361,170.0238,156.5352,164.381,152.36,173.3011" style="stroke:#181818;stroke-width:1.0;"/><text fill="#000000" font-family="sans-serif" font-size="13" lengthAdjust="spacing" textLength="15" x="207.5" y="139.6494">[1]</text></g><!--link foo to bar2--><g id="link_foo_bar2"><path codeLine="7" d="M260.58,94.8411 C251.96,117.2911 241.1197,145.5194 232.5197,167.9294 " fill="none" id="foo-to-bar2" style="stroke:#181818;stroke-width:2.0;"/><polygon fill="#181818" points="230.37,173.5311,237.329,166.5617,232.1614,168.863,229.8601,163.6954,230.37,173.5311" style="stroke:#181818;stroke-width:2.0;"/><text fill="#000000" font-family="sans-serif" font-size="13" lengthAdjust="spacing" textLength="15" x="248.5" y="139.6494">[2]</text></g><!--link foo to bar3--><g id="link_foo_bar3"><path codeLine="8" d="M278.42,94.8411 C287.04,117.2911 297.8803,145.5194 306.4803,167.9294 " fill="none" id="foo-to-bar3" style="stroke:#181818;stroke-width:4.0;"/><polygon fill="#181818" points="308.63,173.5311,309.1399,163.6954,306.8386,168.863,301.671,166.5617,308.63,173.5311" style="stroke:#181818;stroke-width:4.0;"/><text fill="#000000" font-family="sans-serif" font-size="13" lengthAdjust="spacing" textLength="15" x="296.5" y="139.6494">[4]</text></g><!--link foo to bar4--><g id="link_foo_bar4"><path codeLine="9" d="M295.58,94.2611 C321.35,116.6311 356.0686,146.7683 382.1086,169.3683 " fill="none" id="foo-to-bar4" style="stroke:#181818;stroke-width:8.0;"/><polygon fill="#181818" points="386.64,173.3011,382.4648,164.381,382.8639,170.0238,377.2211,170.4229,386.64,173.3011" style="stroke:#181818;stroke-width:8.0;"/><text fill="#000000" font-family="sans-serif" font-size="13" lengthAdjust="spacing" textLength="15" x="350.5" y="139.6494">[8]</text></g><!--link foo to bar5--><g id="link_foo_bar5"><path codeLine="10" d="M295.91,84.7411 C317.19,95.3711 347.86,110.7911 374.5,124.6211 C410.45,143.2811 446.1992,162.4127 473.4892,177.1327 " fill="none" id="foo-to-bar5" style="stroke:#181818;stroke-width:16.0;"/><polygon fill="#181818" points="478.77,179.9811,472.7478,172.188,474.3694,177.6074,468.9499,179.229,478.77,179.9811" style="stroke:#181818;stroke-width:16.0;"/><text fill="#000000" font-family="sans-serif" font-size="13" lengthAdjust="spacing" textLength="22" x="408.5" y="139.6494">[16]</text></g><!--SRC=[AyaioKbLS2fAJCvEBKbDKSZ9p4jLACd8JCxEIoqkvahEIImkLaZBpuUoaXABkBY0N0LTNJiGHm4TM2aywcY5g8Y66sDh60jHRWXM4MqOYw722Ah22AB225E52LI5CKI52QOA2wWA4uWA2qmLXcPG9QOGTvZ5SW40]--></g></svg>