<?xml version="1.0" encoding="us-ascii" standalone="no"?><svg xmlns="http://www.w3.org/2000/svg" xmlns:xlink="http://www.w3.org/1999/xlink" contentStyleType="text/css" height="170px" preserveAspectRatio="none" style="width:215px;height:170px;background:#FFFFFF;" version="1.1" viewBox="0 0 215 170" width="215px" zoomAndPan="magnify"><defs/><g><!--class Class01--><g id="elem_Class01"><rect fill="#F1F1F1" height="48" id="Class01" rx="2.5" ry="2.5" style="stroke:#181818;stroke-width:0.5;" width="83" x="7" y="7"/><ellipse cx="22" cy="23" fill="#ADD1B2" rx="11" ry="11" style="stroke:#181818;stroke-width:1.0;"/><path d="M21.3438,28.8594 Q19.3594,28.8594 18.1875,27.3906 Q17.0313,25.9063 17.0313,22.8281 Q17.0313,20.2188 18.25,18.4688 Q19.4844,16.7188 21.6094,16.7188 Q22.1094,16.7188 22.6406,16.8594 Q23.0781,17.0469 23.3438,17.0469 Q23.5625,17.0469 23.6563,17 Q23.7656,16.9531 24.2188,16.3594 L24.9844,20.0938 L24.0938,20.3594 Q23.6406,18.9063 23.0313,18.3125 Q22.4375,17.7031 21.4844,17.7031 Q20.2656,17.7031 19.5469,19.1406 Q18.8281,20.5625 18.8281,22.75 Q18.8281,25.1563 19.4375,26.4531 Q20.0625,27.7344 21.4219,27.7344 Q22.375,27.7344 23.0625,27.0469 Q23.75,26.3438 24.0781,24.8438 L24.9844,25.25 Q24.5781,26.9531 23.6094,27.9063 Q22.6563,28.8594 21.3438,28.8594 Z " fill="#000000"/><text fill="#000000" font-family="sans-serif" font-size="14" lengthAdjust="spacing" textLength="51" x="36" y="28.7969">Class01</text><line style="stroke:#181818;stroke-width:0.5;" x1="8" x2="89" y1="39" y2="39"/><line style="stroke:#181818;stroke-width:0.5;" x1="8" x2="89" y1="47" y2="47"/></g><!--class Class02--><g id="elem_Class02"><rect fill="#F1F1F1" height="48" id="Class02" rx="2.5" ry="2.5" style="stroke:#181818;stroke-width:0.5;" width="83" x="7" y="115"/><ellipse cx="22" cy="131" fill="#ADD1B2" rx="11" ry="11" style="stroke:#181818;stroke-width:1.0;"/><path d="M21.3438,136.8594 Q19.3594,136.8594 18.1875,135.3906 Q17.0313,133.9063 17.0313,130.8281 Q17.0313,128.2188 18.25,126.4688 Q19.4844,124.7188 21.6094,124.7188 Q22.1094,124.7188 22.6406,124.8594 Q23.0781,125.0469 23.3438,125.0469 Q23.5625,125.0469 23.6563,125 Q23.7656,124.9531 24.2188,124.3594 L24.9844,128.0938 L24.0938,128.3594 Q23.6406,126.9063 23.0313,126.3125 Q22.4375,125.7031 21.4844,125.7031 Q20.2656,125.7031 19.5469,127.1406 Q18.8281,128.5625 18.8281,130.75 Q18.8281,133.1563 19.4375,134.4531 Q20.0625,135.7344 21.4219,135.7344 Q22.375,135.7344 23.0625,135.0469 Q23.75,134.3438 24.0781,132.8438 L24.9844,133.25 Q24.5781,134.9531 23.6094,135.9063 Q22.6563,136.8594 21.3438,136.8594 Z " fill="#000000"/><text fill="#000000" font-family="sans-serif" font-size="14" lengthAdjust="spacing" textLength="51" x="36" y="136.7969">Class02</text><line style="stroke:#181818;stroke-width:0.5;" x1="8" x2="89" y1="147" y2="147"/><line style="stroke:#181818;stroke-width:0.5;" x1="8" x2="89" y1="155" y2="155"/></g><!--class Class03--><g id="elem_Class03"><rect fill="#F1F1F1" height="48" id="Class03" rx="2.5" ry="2.5" style="stroke:#181818;stroke-width:0.5;" width="83" x="125" y="7"/><ellipse cx="140" cy="23" fill="#ADD1B2" rx="11" ry="11" style="stroke:#181818;stroke-width:1.0;"/><path d="M139.3438,28.8594 Q137.3594,28.8594 136.1875,27.3906 Q135.0313,25.9063 135.0313,22.8281 Q135.0313,20.2188 136.25,18.4688 Q137.4844,16.7188 139.6094,16.7188 Q140.1094,16.7188 140.6406,16.8594 Q141.0781,17.0469 141.3438,17.0469 Q141.5625,17.0469 141.6563,17 Q141.7656,16.9531 142.2188,16.3594 L142.9844,20.0938 L142.0938,20.3594 Q141.6406,18.9063 141.0313,18.3125 Q140.4375,17.7031 139.4844,17.7031 Q138.2656,17.7031 137.5469,19.1406 Q136.8281,20.5625 136.8281,22.75 Q136.8281,25.1563 137.4375,26.4531 Q138.0625,27.7344 139.4219,27.7344 Q140.375,27.7344 141.0625,27.0469 Q141.75,26.3438 142.0781,24.8438 L142.9844,25.25 Q142.5781,26.9531 141.6094,27.9063 Q140.6563,28.8594 139.3438,28.8594 Z " fill="#000000"/><text fill="#000000" font-family="sans-serif" font-size="14" lengthAdjust="spacing" textLength="51" x="154" y="28.7969">Class03</text><line style="stroke:#181818;stroke-width:0.5;" x1="126" x2="207" y1="39" y2="39"/><line style="stroke:#181818;stroke-width:0.5;" x1="126" x2="207" y1="47" y2="47"/></g><!--class Class04--><g id="elem_Class04"><rect fill="#F1F1F1" height="48" id="Class04" rx="2.5" ry="2.5" style="stroke:#181818;stroke-width:0.5;" width="83" x="125" y="115"/><ellipse cx="140" cy="131" fill="#ADD1B2" rx="11" ry="11" style="stroke:#181818;stroke-width:1.0;"/><path d="M139.3438,136.8594 Q137.3594,136.8594 136.1875,135.3906 Q135.0313,133.9063 135.0313,130.8281 Q135.0313,128.2188 136.25,126.4688 Q137.4844,124.7188 139.6094,124.7188 Q140.1094,124.7188 140.6406,124.8594 Q141.0781,125.0469 141.3438,125.0469 Q141.5625,125.0469 141.6563,125 Q141.7656,124.9531 142.2188,124.3594 L142.9844,128.0938 L142.0938,128.3594 Q141.6406,126.9063 141.0313,126.3125 Q140.4375,125.7031 139.4844,125.7031 Q138.2656,125.7031 137.5469,127.1406 Q136.8281,128.5625 136.8281,130.75 Q136.8281,133.1563 137.4375,134.4531 Q138.0625,135.7344 139.4219,135.7344 Q140.375,135.7344 141.0625,135.0469 Q141.75,134.3438 142.0781,132.8438 L142.9844,133.25 Q142.5781,134.9531 141.6094,135.9063 Q140.6563,136.8594 139.3438,136.8594 Z " fill="#000000"/><text fill="#000000" font-family="sans-serif" font-size="14" lengthAdjust="spacing" textLength="51" x="154" y="136.7969">Class04</text><line style="stroke:#181818;stroke-width:0.5;" x1="126" x2="207" y1="147" y2="147"/><line style="stroke:#181818;stroke-width:0.5;" x1="126" x2="207" y1="155" y2="155"/></g><!--link Class01 to Class02--><g id="link_Class01_Class02"><path codeLine="1" d="M48.5,55 C48.5,72.66 48.5,96.94 48.5,114.68 " fill="none" id="Class01-Class02" style="stroke:#181818;stroke-width:1.0;stroke-dasharray:7.0,7.0;"/></g><!--link Class03 to Class04--><g id="link_Class03_Class04"><path codeLine="2" d="M166.5,55 C166.5,72.66 166.5,96.94 166.5,114.68 " fill="none" id="Class03-Class04" style="stroke:#181818;stroke-width:1.0;"/></g><!--SRC=[Syv9B2usC5JGqrDm1ZEDk22qiOAkBbJ81000]--></g></svg>