<?xml version="1.0" encoding="us-ascii" standalone="no"?><svg xmlns="http://www.w3.org/2000/svg" xmlns:xlink="http://www.w3.org/1999/xlink" contentStyleType="text/css" height="189px" preserveAspectRatio="none" style="width:333px;height:189px;background:#FFFFFF;" version="1.1" viewBox="0 0 333 189" width="333px" zoomAndPan="magnify"><defs/><g><!--class Class01--><g id="elem_Class01"><rect fill="#F1F1F1" height="48" id="Class01" rx="2.5" ry="2.5" style="stroke:#181818;stroke-width:0.5;" width="83" x="7" y="7"/><ellipse cx="22" cy="23" fill="#ADD1B2" rx="11" ry="11" style="stroke:#181818;stroke-width:1.0;"/><path d="M21.3438,28.8594 Q19.3594,28.8594 18.1875,27.3906 Q17.0313,25.9063 17.0313,22.8281 Q17.0313,20.2188 18.25,18.4688 Q19.4844,16.7188 21.6094,16.7188 Q22.1094,16.7188 22.6406,16.8594 Q23.0781,17.0469 23.3438,17.0469 Q23.5625,17.0469 23.6563,17 Q23.7656,16.9531 24.2188,16.3594 L24.9844,20.0938 L24.0938,20.3594 Q23.6406,18.9063 23.0313,18.3125 Q22.4375,17.7031 21.4844,17.7031 Q20.2656,17.7031 19.5469,19.1406 Q18.8281,20.5625 18.8281,22.75 Q18.8281,25.1563 19.4375,26.4531 Q20.0625,27.7344 21.4219,27.7344 Q22.375,27.7344 23.0625,27.0469 Q23.75,26.3438 24.0781,24.8438 L24.9844,25.25 Q24.5781,26.9531 23.6094,27.9063 Q22.6563,28.8594 21.3438,28.8594 Z " fill="#000000"/><text fill="#000000" font-family="sans-serif" font-size="14" lengthAdjust="spacing" textLength="51" x="36" y="28.7969">Class01</text><line style="stroke:#181818;stroke-width:0.5;" x1="8" x2="89" y1="39" y2="39"/><line style="stroke:#181818;stroke-width:0.5;" x1="8" x2="89" y1="47" y2="47"/></g><!--class Class02--><g id="elem_Class02"><rect fill="#F1F1F1" height="48" id="Class02" rx="2.5" ry="2.5" style="stroke:#181818;stroke-width:0.5;" width="83" x="7" y="134"/><ellipse cx="22" cy="150" fill="#ADD1B2" rx="11" ry="11" style="stroke:#181818;stroke-width:1.0;"/><path d="M21.3438,155.8594 Q19.3594,155.8594 18.1875,154.3906 Q17.0313,152.9063 17.0313,149.8281 Q17.0313,147.2188 18.25,145.4688 Q19.4844,143.7188 21.6094,143.7188 Q22.1094,143.7188 22.6406,143.8594 Q23.0781,144.0469 23.3438,144.0469 Q23.5625,144.0469 23.6563,144 Q23.7656,143.9531 24.2188,143.3594 L24.9844,147.0938 L24.0938,147.3594 Q23.6406,145.9063 23.0313,145.3125 Q22.4375,144.7031 21.4844,144.7031 Q20.2656,144.7031 19.5469,146.1406 Q18.8281,147.5625 18.8281,149.75 Q18.8281,152.1563 19.4375,153.4531 Q20.0625,154.7344 21.4219,154.7344 Q22.375,154.7344 23.0625,154.0469 Q23.75,153.3438 24.0781,151.8438 L24.9844,152.25 Q24.5781,153.9531 23.6094,154.9063 Q22.6563,155.8594 21.3438,155.8594 Z " fill="#000000"/><text fill="#000000" font-family="sans-serif" font-size="14" lengthAdjust="spacing" textLength="51" x="36" y="155.7969">Class02</text><line style="stroke:#181818;stroke-width:0.5;" x1="8" x2="89" y1="166" y2="166"/><line style="stroke:#181818;stroke-width:0.5;" x1="8" x2="89" y1="174" y2="174"/></g><!--class Class03--><g id="elem_Class03"><rect fill="#F1F1F1" height="48" id="Class03" rx="2.5" ry="2.5" style="stroke:#181818;stroke-width:0.5;" width="83" x="125" y="7"/><ellipse cx="140" cy="23" fill="#ADD1B2" rx="11" ry="11" style="stroke:#181818;stroke-width:1.0;"/><path d="M139.3438,28.8594 Q137.3594,28.8594 136.1875,27.3906 Q135.0313,25.9063 135.0313,22.8281 Q135.0313,20.2188 136.25,18.4688 Q137.4844,16.7188 139.6094,16.7188 Q140.1094,16.7188 140.6406,16.8594 Q141.0781,17.0469 141.3438,17.0469 Q141.5625,17.0469 141.6563,17 Q141.7656,16.9531 142.2188,16.3594 L142.9844,20.0938 L142.0938,20.3594 Q141.6406,18.9063 141.0313,18.3125 Q140.4375,17.7031 139.4844,17.7031 Q138.2656,17.7031 137.5469,19.1406 Q136.8281,20.5625 136.8281,22.75 Q136.8281,25.1563 137.4375,26.4531 Q138.0625,27.7344 139.4219,27.7344 Q140.375,27.7344 141.0625,27.0469 Q141.75,26.3438 142.0781,24.8438 L142.9844,25.25 Q142.5781,26.9531 141.6094,27.9063 Q140.6563,28.8594 139.3438,28.8594 Z " fill="#000000"/><text fill="#000000" font-family="sans-serif" font-size="14" lengthAdjust="spacing" textLength="51" x="154" y="28.7969">Class03</text><line style="stroke:#181818;stroke-width:0.5;" x1="126" x2="207" y1="39" y2="39"/><line style="stroke:#181818;stroke-width:0.5;" x1="126" x2="207" y1="47" y2="47"/></g><!--class Class04--><g id="elem_Class04"><rect fill="#F1F1F1" height="48" id="Class04" rx="2.5" ry="2.5" style="stroke:#181818;stroke-width:0.5;" width="83" x="125" y="134"/><ellipse cx="140" cy="150" fill="#ADD1B2" rx="11" ry="11" style="stroke:#181818;stroke-width:1.0;"/><path d="M139.3438,155.8594 Q137.3594,155.8594 136.1875,154.3906 Q135.0313,152.9063 135.0313,149.8281 Q135.0313,147.2188 136.25,145.4688 Q137.4844,143.7188 139.6094,143.7188 Q140.1094,143.7188 140.6406,143.8594 Q141.0781,144.0469 141.3438,144.0469 Q141.5625,144.0469 141.6563,144 Q141.7656,143.9531 142.2188,143.3594 L142.9844,147.0938 L142.0938,147.3594 Q141.6406,145.9063 141.0313,145.3125 Q140.4375,144.7031 139.4844,144.7031 Q138.2656,144.7031 137.5469,146.1406 Q136.8281,147.5625 136.8281,149.75 Q136.8281,152.1563 137.4375,153.4531 Q138.0625,154.7344 139.4219,154.7344 Q140.375,154.7344 141.0625,154.0469 Q141.75,153.3438 142.0781,151.8438 L142.9844,152.25 Q142.5781,153.9531 141.6094,154.9063 Q140.6563,155.8594 139.3438,155.8594 Z " fill="#000000"/><text fill="#000000" font-family="sans-serif" font-size="14" lengthAdjust="spacing" textLength="51" x="154" y="155.7969">Class04</text><line style="stroke:#181818;stroke-width:0.5;" x1="126" x2="207" y1="166" y2="166"/><line style="stroke:#181818;stroke-width:0.5;" x1="126" x2="207" y1="174" y2="174"/></g><!--class Class05--><g id="elem_Class05"><rect fill="#F1F1F1" height="48" id="Class05" rx="2.5" ry="2.5" style="stroke:#181818;stroke-width:0.5;" width="83" x="243" y="7"/><ellipse cx="258" cy="23" fill="#ADD1B2" rx="11" ry="11" style="stroke:#181818;stroke-width:1.0;"/><path d="M257.3438,28.8594 Q255.3594,28.8594 254.1875,27.3906 Q253.0313,25.9063 253.0313,22.8281 Q253.0313,20.2188 254.25,18.4688 Q255.4844,16.7188 257.6094,16.7188 Q258.1094,16.7188 258.6406,16.8594 Q259.0781,17.0469 259.3438,17.0469 Q259.5625,17.0469 259.6563,17 Q259.7656,16.9531 260.2188,16.3594 L260.9844,20.0938 L260.0938,20.3594 Q259.6406,18.9063 259.0313,18.3125 Q258.4375,17.7031 257.4844,17.7031 Q256.2656,17.7031 255.5469,19.1406 Q254.8281,20.5625 254.8281,22.75 Q254.8281,25.1563 255.4375,26.4531 Q256.0625,27.7344 257.4219,27.7344 Q258.375,27.7344 259.0625,27.0469 Q259.75,26.3438 260.0781,24.8438 L260.9844,25.25 Q260.5781,26.9531 259.6094,27.9063 Q258.6563,28.8594 257.3438,28.8594 Z " fill="#000000"/><text fill="#000000" font-family="sans-serif" font-size="14" lengthAdjust="spacing" textLength="51" x="272" y="28.7969">Class05</text><line style="stroke:#181818;stroke-width:0.5;" x1="244" x2="325" y1="39" y2="39"/><line style="stroke:#181818;stroke-width:0.5;" x1="244" x2="325" y1="47" y2="47"/></g><!--class Class06--><g id="elem_Class06"><rect fill="#F1F1F1" height="48" id="Class06" rx="2.5" ry="2.5" style="stroke:#181818;stroke-width:0.5;" width="83" x="243" y="134"/><ellipse cx="258" cy="150" fill="#ADD1B2" rx="11" ry="11" style="stroke:#181818;stroke-width:1.0;"/><path d="M257.3438,155.8594 Q255.3594,155.8594 254.1875,154.3906 Q253.0313,152.9063 253.0313,149.8281 Q253.0313,147.2188 254.25,145.4688 Q255.4844,143.7188 257.6094,143.7188 Q258.1094,143.7188 258.6406,143.8594 Q259.0781,144.0469 259.3438,144.0469 Q259.5625,144.0469 259.6563,144 Q259.7656,143.9531 260.2188,143.3594 L260.9844,147.0938 L260.0938,147.3594 Q259.6406,145.9063 259.0313,145.3125 Q258.4375,144.7031 257.4844,144.7031 Q256.2656,144.7031 255.5469,146.1406 Q254.8281,147.5625 254.8281,149.75 Q254.8281,152.1563 255.4375,153.4531 Q256.0625,154.7344 257.4219,154.7344 Q258.375,154.7344 259.0625,154.0469 Q259.75,153.3438 260.0781,151.8438 L260.9844,152.25 Q260.5781,153.9531 259.6094,154.9063 Q258.6563,155.8594 257.3438,155.8594 Z " fill="#000000"/><text fill="#000000" font-family="sans-serif" font-size="14" lengthAdjust="spacing" textLength="51" x="272" y="155.7969">Class06</text><line style="stroke:#181818;stroke-width:0.5;" x1="244" x2="325" y1="166" y2="166"/><line style="stroke:#181818;stroke-width:0.5;" x1="244" x2="325" y1="174" y2="174"/></g><!--reverse link Class01 to Class02--><g id="link_Class01_Class02"><path codeLine="1" d="M48.5,67.22 C48.5,89.67 48.5,111.5 48.5,133.91 " fill="none" id="Class01-backto-Class02" style="stroke:#181818;stroke-width:1.0;"/><polygon fill="#181818" points="48.5,55.22,44.5,61.22,48.5,67.22,52.5,61.22,48.5,55.22" style="stroke:#181818;stroke-width:1.0;"/><text fill="#000000" font-family="sans-serif" font-size="13" lengthAdjust="spacing" textLength="49" x="49.5" y="100.0283">contains</text><text fill="#000000" font-family="sans-serif" font-size="13" lengthAdjust="spacing" textLength="7" x="40.6906" y="76.8485">1</text><text fill="#000000" font-family="sans-serif" font-size="13" lengthAdjust="spacing" textLength="32" x="12.4" y="122.6244">many</text></g><!--reverse link Class03 to Class04--><g id="link_Class03_Class04"><path codeLine="2" d="M166.5,67.22 C166.5,89.67 166.5,111.5 166.5,133.91 " fill="none" id="Class03-backto-Class04" style="stroke:#181818;stroke-width:1.0;"/><polygon fill="none" points="166.5,55.22,162.5,61.22,166.5,67.22,170.5,61.22,166.5,55.22" style="stroke:#181818;stroke-width:1.0;"/><text fill="#000000" font-family="sans-serif" font-size="13" lengthAdjust="spacing" textLength="67" x="167.5" y="100.0283">aggregation</text></g><!--link Class05 to Class06--><g id="link_Class05_Class06"><path codeLine="3" d="M284.5,55.22 C284.5,77.67 284.5,105.5 284.5,127.91 " fill="none" id="Class05-to-Class06" style="stroke:#181818;stroke-width:1.0;"/><polygon fill="#181818" points="284.5,133.91,288.5,124.91,284.5,128.91,280.5,124.91,284.5,133.91" style="stroke:#181818;stroke-width:1.0;"/><text fill="#000000" font-family="sans-serif" font-size="13" lengthAdjust="spacing" textLength="7" x="276.6031" y="122.6244">1</text></g><!--SRC=[Syv9B2usC5HGCbHIqDBLLL3AJSohL59m1WiRALWf9EVdbIHcvXLpGOIC5VA1gY1i4w1qOdfwKMfwOabcVXvKXQc2hguTs3m8tmm0]--></g></svg>