<?xml version="1.0" encoding="us-ascii" standalone="no"?><svg xmlns="http://www.w3.org/2000/svg" xmlns:xlink="http://www.w3.org/1999/xlink" contentStyleType="text/css" height="247px" preserveAspectRatio="none" style="width:555px;height:247px;background:#FFFFFF;" version="1.1" viewBox="0 0 555 247" width="555px" zoomAndPan="magnify"><defs/><g><text fill="#000000" font-family="sans-serif" font-size="14" font-weight="bold" lengthAdjust="spacing" textLength="210" x="165.5" y="25.1074">Bracketed line style with label</text><!--class foo--><g id="elem_foo"><rect codeLine="2" fill="#F1F1F1" height="48" id="foo" rx="2.5" ry="2.5" style="stroke:#181818;stroke-width:0.5;" width="52" x="247.5" y="46.6211"/><ellipse cx="262.5" cy="62.6211" fill="#ADD1B2" rx="11" ry="11" style="stroke:#181818;stroke-width:1.0;"/><path d="M261.8438,68.4805 Q259.8594,68.4805 258.6875,67.0117 Q257.5313,65.5273 257.5313,62.4492 Q257.5313,59.8398 258.75,58.0898 Q259.9844,56.3398 262.1094,56.3398 Q262.6094,56.3398 263.1406,56.4805 Q263.5781,56.668 263.8438,56.668 Q264.0625,56.668 264.1563,56.6211 Q264.2656,56.5742 264.7188,55.9805 L265.4844,59.7148 L264.5938,59.9805 Q264.1406,58.5273 263.5313,57.9336 Q262.9375,57.3242 261.9844,57.3242 Q260.7656,57.3242 260.0469,58.7617 Q259.3281,60.1836 259.3281,62.3711 Q259.3281,64.7773 259.9375,66.0742 Q260.5625,67.3555 261.9219,67.3555 Q262.875,67.3555 263.5625,66.668 Q264.25,65.9648 264.5781,64.4648 L265.4844,64.8711 Q265.0781,66.5742 264.1094,67.5273 Q263.1563,68.4805 261.8438,68.4805 Z " fill="#000000"/><text fill="#000000" font-family="sans-serif" font-size="14" lengthAdjust="spacing" textLength="20" x="276.5" y="68.418">foo</text><line style="stroke:#181818;stroke-width:0.5;" x1="248.5" x2="298.5" y1="78.6211" y2="78.6211"/><line style="stroke:#181818;stroke-width:0.5;" x1="248.5" x2="298.5" y1="86.6211" y2="86.6211"/></g><!--class bar--><g id="elem_bar"><rect codeLine="3" fill="#F1F1F1" height="48" id="bar" rx="2.5" ry="2.5" style="stroke:#181818;stroke-width:0.5;" width="53" x="7" y="183.1211"/><ellipse cx="22" cy="199.1211" fill="#ADD1B2" rx="11" ry="11" style="stroke:#181818;stroke-width:1.0;"/><path d="M21.3438,204.9805 Q19.3594,204.9805 18.1875,203.5117 Q17.0313,202.0273 17.0313,198.9492 Q17.0313,196.3398 18.25,194.5898 Q19.4844,192.8398 21.6094,192.8398 Q22.1094,192.8398 22.6406,192.9805 Q23.0781,193.168 23.3438,193.168 Q23.5625,193.168 23.6563,193.1211 Q23.7656,193.0742 24.2188,192.4805 L24.9844,196.2148 L24.0938,196.4805 Q23.6406,195.0273 23.0313,194.4336 Q22.4375,193.8242 21.4844,193.8242 Q20.2656,193.8242 19.5469,195.2617 Q18.8281,196.6836 18.8281,198.8711 Q18.8281,201.2773 19.4375,202.5742 Q20.0625,203.8555 21.4219,203.8555 Q22.375,203.8555 23.0625,203.168 Q23.75,202.4648 24.0781,200.9648 L24.9844,201.3711 Q24.5781,203.0742 23.6094,204.0273 Q22.6563,204.9805 21.3438,204.9805 Z " fill="#000000"/><text fill="#000000" font-family="sans-serif" font-size="14" lengthAdjust="spacing" textLength="21" x="36" y="204.918">bar</text><line style="stroke:#181818;stroke-width:0.5;" x1="8" x2="59" y1="215.1211" y2="215.1211"/><line style="stroke:#181818;stroke-width:0.5;" x1="8" x2="59" y1="223.1211" y2="223.1211"/></g><!--class bar1--><g id="elem_bar1"><rect fill="#F1F1F1" height="66.6211" id="bar1" rx="2.5" ry="2.5" style="stroke:#181818;stroke-width:0.5;" width="61" x="95" y="173.6211"/><ellipse cx="110" cy="189.6211" fill="#ADD1B2" rx="11" ry="11" style="stroke:#181818;stroke-width:1.0;"/><path d="M109.3438,195.4805 Q107.3594,195.4805 106.1875,194.0117 Q105.0313,192.5273 105.0313,189.4492 Q105.0313,186.8398 106.25,185.0898 Q107.4844,183.3398 109.6094,183.3398 Q110.1094,183.3398 110.6406,183.4805 Q111.0781,183.668 111.3438,183.668 Q111.5625,183.668 111.6563,183.6211 Q111.7656,183.5742 112.2188,182.9805 L112.9844,186.7148 L112.0938,186.9805 Q111.6406,185.5273 111.0313,184.9336 Q110.4375,184.3242 109.4844,184.3242 Q108.2656,184.3242 107.5469,185.7617 Q106.8281,187.1836 106.8281,189.3711 Q106.8281,191.7773 107.4375,193.0742 Q108.0625,194.3555 109.4219,194.3555 Q110.375,194.3555 111.0625,193.668 Q111.75,192.9648 112.0781,191.4648 L112.9844,191.8711 Q112.5781,193.5742 111.6094,194.5273 Q110.6563,195.4805 109.3438,195.4805 Z " fill="#000000"/><text fill="#000000" font-family="sans-serif" font-size="14" lengthAdjust="spacing" textLength="29" x="124" y="195.418">bar1</text><line style="stroke:#181818;stroke-width:0.5;" x1="96" x2="155" y1="205.6211" y2="205.6211"/><text fill="#000000" font-family="sans-serif" font-size="14" lengthAdjust="spacing" textLength="35" x="101" y="224.7285">[bold]</text><line style="stroke:#181818;stroke-width:0.5;" x1="96" x2="155" y1="232.2422" y2="232.2422"/></g><!--class bar2--><g id="elem_bar2"><rect fill="#F1F1F1" height="66.6211" id="bar2" rx="2.5" ry="2.5" style="stroke:#181818;stroke-width:0.5;" width="67" x="191" y="173.6211"/><ellipse cx="208.7" cy="189.6211" fill="#ADD1B2" rx="11" ry="11" style="stroke:#181818;stroke-width:1.0;"/><path d="M208.0438,195.4805 Q206.0594,195.4805 204.8875,194.0117 Q203.7313,192.5273 203.7313,189.4492 Q203.7313,186.8398 204.95,185.0898 Q206.1844,183.3398 208.3094,183.3398 Q208.8094,183.3398 209.3406,183.4805 Q209.7781,183.668 210.0438,183.668 Q210.2625,183.668 210.3563,183.6211 Q210.4656,183.5742 210.9188,182.9805 L211.6844,186.7148 L210.7938,186.9805 Q210.3406,185.5273 209.7313,184.9336 Q209.1375,184.3242 208.1844,184.3242 Q206.9656,184.3242 206.2469,185.7617 Q205.5281,187.1836 205.5281,189.3711 Q205.5281,191.7773 206.1375,193.0742 Q206.7625,194.3555 208.1219,194.3555 Q209.075,194.3555 209.7625,193.668 Q210.45,192.9648 210.7781,191.4648 L211.6844,191.8711 Q211.2781,193.5742 210.3094,194.5273 Q209.3563,195.4805 208.0438,195.4805 Z " fill="#000000"/><text fill="#000000" font-family="sans-serif" font-size="14" lengthAdjust="spacing" textLength="29" x="223.3" y="195.418">bar2</text><line style="stroke:#181818;stroke-width:0.5;" x1="192" x2="257" y1="205.6211" y2="205.6211"/><text fill="#000000" font-family="sans-serif" font-size="14" lengthAdjust="spacing" textLength="55" x="197" y="224.7285">[dashed]</text><line style="stroke:#181818;stroke-width:0.5;" x1="192" x2="257" y1="232.2422" y2="232.2422"/></g><!--class bar3--><g id="elem_bar3"><rect fill="#F1F1F1" height="66.6211" id="bar3" rx="2.5" ry="2.5" style="stroke:#181818;stroke-width:0.5;" width="61" x="293" y="173.6211"/><ellipse cx="308" cy="189.6211" fill="#ADD1B2" rx="11" ry="11" style="stroke:#181818;stroke-width:1.0;"/><path d="M307.3438,195.4805 Q305.3594,195.4805 304.1875,194.0117 Q303.0313,192.5273 303.0313,189.4492 Q303.0313,186.8398 304.25,185.0898 Q305.4844,183.3398 307.6094,183.3398 Q308.1094,183.3398 308.6406,183.4805 Q309.0781,183.668 309.3438,183.668 Q309.5625,183.668 309.6563,183.6211 Q309.7656,183.5742 310.2188,182.9805 L310.9844,186.7148 L310.0938,186.9805 Q309.6406,185.5273 309.0313,184.9336 Q308.4375,184.3242 307.4844,184.3242 Q306.2656,184.3242 305.5469,185.7617 Q304.8281,187.1836 304.8281,189.3711 Q304.8281,191.7773 305.4375,193.0742 Q306.0625,194.3555 307.4219,194.3555 Q308.375,194.3555 309.0625,193.668 Q309.75,192.9648 310.0781,191.4648 L310.9844,191.8711 Q310.5781,193.5742 309.6094,194.5273 Q308.6563,195.4805 307.3438,195.4805 Z " fill="#000000"/><text fill="#000000" font-family="sans-serif" font-size="14" lengthAdjust="spacing" textLength="29" x="322" y="195.418">bar3</text><line style="stroke:#181818;stroke-width:0.5;" x1="294" x2="353" y1="205.6211" y2="205.6211"/><text fill="#000000" font-family="sans-serif" font-size="14" lengthAdjust="spacing" textLength="48" x="299" y="224.7285">[dotted]</text><line style="stroke:#181818;stroke-width:0.5;" x1="294" x2="353" y1="232.2422" y2="232.2422"/></g><!--class bar4--><g id="elem_bar4"><rect fill="#F1F1F1" height="66.6211" id="bar4" rx="2.5" ry="2.5" style="stroke:#181818;stroke-width:0.5;" width="63" x="389" y="173.6211"/><ellipse cx="404.9" cy="189.6211" fill="#ADD1B2" rx="11" ry="11" style="stroke:#181818;stroke-width:1.0;"/><path d="M404.2438,195.4805 Q402.2594,195.4805 401.0875,194.0117 Q399.9313,192.5273 399.9313,189.4492 Q399.9313,186.8398 401.15,185.0898 Q402.3844,183.3398 404.5094,183.3398 Q405.0094,183.3398 405.5406,183.4805 Q405.9781,183.668 406.2438,183.668 Q406.4625,183.668 406.5563,183.6211 Q406.6656,183.5742 407.1188,182.9805 L407.8844,186.7148 L406.9938,186.9805 Q406.5406,185.5273 405.9313,184.9336 Q405.3375,184.3242 404.3844,184.3242 Q403.1656,184.3242 402.4469,185.7617 Q401.7281,187.1836 401.7281,189.3711 Q401.7281,191.7773 402.3375,193.0742 Q402.9625,194.3555 404.3219,194.3555 Q405.275,194.3555 405.9625,193.668 Q406.65,192.9648 406.9781,191.4648 L407.8844,191.8711 Q407.4781,193.5742 406.5094,194.5273 Q405.5563,195.4805 404.2438,195.4805 Z " fill="#000000"/><text fill="#000000" font-family="sans-serif" font-size="14" lengthAdjust="spacing" textLength="29" x="419.1" y="195.418">bar4</text><line style="stroke:#181818;stroke-width:0.5;" x1="390" x2="451" y1="205.6211" y2="205.6211"/><text fill="#000000" font-family="sans-serif" font-size="14" lengthAdjust="spacing" textLength="51" x="395" y="224.7285">[hidden]</text><line style="stroke:#181818;stroke-width:0.5;" x1="390" x2="451" y1="232.2422" y2="232.2422"/></g><!--class bar5--><g id="elem_bar5"><rect fill="#F1F1F1" height="66.6211" id="bar5" rx="2.5" ry="2.5" style="stroke:#181818;stroke-width:0.5;" width="61" x="487" y="173.6211"/><ellipse cx="502" cy="189.6211" fill="#ADD1B2" rx="11" ry="11" style="stroke:#181818;stroke-width:1.0;"/><path d="M501.3438,195.4805 Q499.3594,195.4805 498.1875,194.0117 Q497.0313,192.5273 497.0313,189.4492 Q497.0313,186.8398 498.25,185.0898 Q499.4844,183.3398 501.6094,183.3398 Q502.1094,183.3398 502.6406,183.4805 Q503.0781,183.668 503.3438,183.668 Q503.5625,183.668 503.6563,183.6211 Q503.7656,183.5742 504.2188,182.9805 L504.9844,186.7148 L504.0938,186.9805 Q503.6406,185.5273 503.0313,184.9336 Q502.4375,184.3242 501.4844,184.3242 Q500.2656,184.3242 499.5469,185.7617 Q498.8281,187.1836 498.8281,189.3711 Q498.8281,191.7773 499.4375,193.0742 Q500.0625,194.3555 501.4219,194.3555 Q502.375,194.3555 503.0625,193.668 Q503.75,192.9648 504.0781,191.4648 L504.9844,191.8711 Q504.5781,193.5742 503.6094,194.5273 Q502.6563,195.4805 501.3438,195.4805 Z " fill="#000000"/><text fill="#000000" font-family="sans-serif" font-size="14" lengthAdjust="spacing" textLength="29" x="516" y="195.418">bar5</text><line style="stroke:#181818;stroke-width:0.5;" x1="488" x2="547" y1="205.6211" y2="205.6211"/><text fill="#000000" font-family="sans-serif" font-size="14" lengthAdjust="spacing" textLength="38" x="493" y="224.7285">[plain]</text><line style="stroke:#181818;stroke-width:0.5;" x1="488" x2="547" y1="232.2422" y2="232.2422"/></g><!--link foo to bar--><g id="link_foo_bar"><path codeLine="11" d="M247.49,79.9211 C220.39,89.0611 177.12,105.1111 142.5,124.6211 C112.65,141.4411 86.2757,161.5297 64.9957,179.1097 " fill="none" id="foo-to-bar" style="stroke:#181818;stroke-width:1.0;"/><polygon fill="#181818" points="60.37,182.9311,69.8561,180.2828,64.2247,179.7466,64.7609,174.1152,60.37,182.9311" style="stroke:#181818;stroke-width:1.0;"/><text fill="#000000" font-family="sans-serif" font-size="13" lengthAdjust="spacing" textLength="12" x="143.5" y="139.6494">&#8709;</text></g><!--link foo to bar1--><g id="link_foo_bar1"><path codeLine="12" d="M247.28,82.8411 C227.67,92.0911 201,106.6111 181.5,124.6211 C166.37,138.6011 156.2548,152.2651 146.4448,168.2751 " fill="none" id="foo-to-bar1" style="stroke:#181818;stroke-width:2.0;"/><polygon fill="#181818" points="143.31,173.3911,151.4228,167.807,145.9223,169.1278,144.6015,163.6273,143.31,173.3911" style="stroke:#181818;stroke-width:2.0;"/><text fill="#000000" font-family="sans-serif" font-size="13" lengthAdjust="spacing" textLength="32" x="182.5" y="139.6494">[bold]</text></g><!--link foo to bar2--><g id="link_foo_bar2"><path codeLine="13" d="M248.2,94.6911 C240.46,103.2711 232.85,113.6211 228.5,124.6211 C222.46,139.9011 220.9563,152.0722 221.2463,167.3722 " fill="none" id="foo-to-bar2" style="stroke:#181818;stroke-width:1.0;stroke-dasharray:7.0,7.0;"/><polygon fill="#181818" points="221.36,173.3711,225.1887,164.2969,221.2652,168.372,217.1902,164.4485,221.36,173.3711" style="stroke:#181818;stroke-width:1.0;"/><text fill="#000000" font-family="sans-serif" font-size="13" lengthAdjust="spacing" textLength="50" x="229.5" y="139.6494">[dashed]</text></g><!--link foo to bar3--><g id="link_foo_bar3"><path codeLine="14" d="M282.1,94.7411 C290.16,116.4511 300.2297,143.517 309.2797,167.867 " fill="none" id="foo-to-bar3" style="stroke:#181818;stroke-width:1.0;stroke-dasharray:1.0,3.0;"/><polygon fill="#181818" points="311.37,173.4911,311.984,163.6614,309.6281,168.8043,304.4852,166.4484,311.37,173.4911" style="stroke:#181818;stroke-width:1.0;"/><text fill="#000000" font-family="sans-serif" font-size="13" lengthAdjust="spacing" textLength="44" x="300.5" y="139.6494">[dotted]</text></g><!--link foo to bar4--><!--link foo to bar5--><g id="link_foo_bar5"><path codeLine="16" d="M299.67,77.2011 C331.46,84.7311 385.99,100.1011 427.5,124.6211 C449.64,137.7011 466.8799,152.5759 483.2999,169.0159 " fill="none" id="foo-to-bar5" style="stroke:#181818;stroke-width:1.0;"/><polygon fill="#181818" points="487.54,173.2611,484.0101,164.0666,484.0066,169.7234,478.3498,169.72,487.54,173.2611" style="stroke:#181818;stroke-width:1.0;"/><text fill="#000000" font-family="sans-serif" font-size="13" lengthAdjust="spacing" textLength="35" x="452.5" y="139.6494">[plain]</text></g><!--SRC=[LOv13i8W44Ntd68kq4NLRhfmuJMC2rh6G9mKKoOn7i34SteIWK-CPK5uFC8y3IfCfzNEDrPs965XIlhCbu-WdiHEB6OMcn9TOsodoQx6vAsdaSvJ57Sfj2laRF8CtbUEgeqFXNrmZfVAG-6xs93HvC-fwuxbQ_gjaJxl5nJ6u45VLHiCsyR2RqAQHmRy9Wo-PS5lGk6H2JtGN_WN]--></g></svg>