<?xml version="1.0" encoding="us-ascii" standalone="no"?><svg xmlns="http://www.w3.org/2000/svg" xmlns:xlink="http://www.w3.org/1999/xlink" contentStyleType="text/css" height="284px" preserveAspectRatio="none" style="width:456px;height:284px;background:#FFFFFF;" version="1.1" viewBox="0 0 456 284" width="456px" zoomAndPan="magnify"><defs/><g><!--cluster Classic Collections--><g id="cluster_Classic Collections"><path d="M8.5,6.0137 L142.5,6.0137 A3.75,3.75 0 0 1 145,8.5137 L152,30.6348 L152.5,30.6348 A2.5,2.5 0 0 1 155,33.1348 L155,250.5137 A2.5,2.5 0 0 1 152.5,253.0137 L8.5,253.0137 A2.5,2.5 0 0 1 6,250.5137 L6,8.5137 A2.5,2.5 0 0 1 8.5,6.0137 " fill="#DDDDDD" style="stroke:#000000;stroke-width:1.5;"/><line style="stroke:#000000;stroke-width:1.5;" x1="6" x2="152" y1="30.6348" y2="30.6348"/><text fill="#000000" font-family="sans-serif" font-size="14" font-weight="bold" lengthAdjust="spacing" textLength="133" x="10" y="23.1211">Classic Collections</text></g><!--cluster com--><g id="cluster_com"><path d="M181.5,107.0137 L211.5,107.0137 A3.75,3.75 0 0 1 214,109.5137 L221,131.6348 L446.5,131.6348 A2.5,2.5 0 0 1 449,134.1348 L449,274.5137 A2.5,2.5 0 0 1 446.5,277.0137 L181.5,277.0137 A2.5,2.5 0 0 1 179,274.5137 L179,109.5137 A2.5,2.5 0 0 1 181.5,107.0137 " fill="none" style="stroke:#000000;stroke-width:1.5;"/><line style="stroke:#000000;stroke-width:1.5;" x1="179" x2="221" y1="131.6348" y2="131.6348"/><text fill="#000000" font-family="sans-serif" font-size="14" font-weight="bold" lengthAdjust="spacing" textLength="29" x="183" y="124.1211">com</text></g><!--cluster plantuml--><g id="cluster_plantuml"><path d="M205.5,152.0137 L266.5,152.0137 A3.75,3.75 0 0 1 269,154.5137 L276,176.6348 L422.5,176.6348 A2.5,2.5 0 0 1 425,179.1348 L425,250.5137 A2.5,2.5 0 0 1 422.5,253.0137 L205.5,253.0137 A2.5,2.5 0 0 1 203,250.5137 L203,154.5137 A2.5,2.5 0 0 1 205.5,152.0137 " fill="none" style="stroke:#000000;stroke-width:1.5;"/><line style="stroke:#000000;stroke-width:1.5;" x1="203" x2="276" y1="176.6348" y2="176.6348"/><text fill="#000000" font-family="sans-serif" font-size="14" font-weight="bold" lengthAdjust="spacing" textLength="60" x="207" y="169.1211">plantuml</text></g><!--class Object--><g id="elem_Object"><rect fill="#F1F1F1" height="48" id="Object" rx="2.5" ry="2.5" style="stroke:#181818;stroke-width:0.5;" width="73" x="61.5" y="43.0137"/><ellipse cx="76.5" cy="59.0137" fill="#ADD1B2" rx="11" ry="11" style="stroke:#181818;stroke-width:1.0;"/><path d="M75.8438,64.873 Q73.8594,64.873 72.6875,63.4043 Q71.5313,61.9199 71.5313,58.8418 Q71.5313,56.2324 72.75,54.4824 Q73.9844,52.7324 76.1094,52.7324 Q76.6094,52.7324 77.1406,52.873 Q77.5781,53.0605 77.8438,53.0605 Q78.0625,53.0605 78.1563,53.0137 Q78.2656,52.9668 78.7188,52.373 L79.4844,56.1074 L78.5938,56.373 Q78.1406,54.9199 77.5313,54.3262 Q76.9375,53.7168 75.9844,53.7168 Q74.7656,53.7168 74.0469,55.1543 Q73.3281,56.5762 73.3281,58.7637 Q73.3281,61.1699 73.9375,62.4668 Q74.5625,63.748 75.9219,63.748 Q76.875,63.748 77.5625,63.0605 Q78.25,62.3574 78.5781,60.8574 L79.4844,61.2637 Q79.0781,62.9668 78.1094,63.9199 Q77.1563,64.873 75.8438,64.873 Z " fill="#000000"/><text fill="#000000" font-family="sans-serif" font-size="14" lengthAdjust="spacing" textLength="41" x="90.5" y="64.8105">Object</text><line style="stroke:#181818;stroke-width:0.5;" x1="62.5" x2="133.5" y1="75.0137" y2="75.0137"/><line style="stroke:#181818;stroke-width:0.5;" x1="62.5" x2="133.5" y1="83.0137" y2="83.0137"/></g><!--class ArrayList--><g id="elem_ArrayList"><rect fill="#F1F1F1" height="48" id="ArrayList" rx="2.5" ry="2.5" style="stroke:#181818;stroke-width:0.5;" width="88" x="51" y="189.0137"/><ellipse cx="66" cy="205.0137" fill="#ADD1B2" rx="11" ry="11" style="stroke:#181818;stroke-width:1.0;"/><path d="M65.3438,210.873 Q63.3594,210.873 62.1875,209.4043 Q61.0313,207.9199 61.0313,204.8418 Q61.0313,202.2324 62.25,200.4824 Q63.4844,198.7324 65.6094,198.7324 Q66.1094,198.7324 66.6406,198.873 Q67.0781,199.0605 67.3438,199.0605 Q67.5625,199.0605 67.6563,199.0137 Q67.7656,198.9668 68.2188,198.373 L68.9844,202.1074 L68.0938,202.373 Q67.6406,200.9199 67.0313,200.3262 Q66.4375,199.7168 65.4844,199.7168 Q64.2656,199.7168 63.5469,201.1543 Q62.8281,202.5762 62.8281,204.7637 Q62.8281,207.1699 63.4375,208.4668 Q64.0625,209.748 65.4219,209.748 Q66.375,209.748 67.0625,209.0605 Q67.75,208.3574 68.0781,206.8574 L68.9844,207.2637 Q68.5781,208.9668 67.6094,209.9199 Q66.6563,210.873 65.3438,210.873 Z " fill="#000000"/><text fill="#000000" font-family="sans-serif" font-size="14" lengthAdjust="spacing" textLength="56" x="80" y="210.8105">ArrayList</text><line style="stroke:#181818;stroke-width:0.5;" x1="52" x2="138" y1="221.0137" y2="221.0137"/><line style="stroke:#181818;stroke-width:0.5;" x1="52" x2="138" y1="229.0137" y2="229.0137"/></g><!--class Demo1--><g id="elem_Demo1"><rect fill="#F1F1F1" height="48" id="Demo1" rx="2.5" ry="2.5" style="stroke:#181818;stroke-width:0.5;" width="77" x="219.5" y="189.0137"/><ellipse cx="234.5" cy="205.0137" fill="#ADD1B2" rx="11" ry="11" style="stroke:#181818;stroke-width:1.0;"/><path d="M233.8438,210.873 Q231.8594,210.873 230.6875,209.4043 Q229.5313,207.9199 229.5313,204.8418 Q229.5313,202.2324 230.75,200.4824 Q231.9844,198.7324 234.1094,198.7324 Q234.6094,198.7324 235.1406,198.873 Q235.5781,199.0605 235.8438,199.0605 Q236.0625,199.0605 236.1563,199.0137 Q236.2656,198.9668 236.7188,198.373 L237.4844,202.1074 L236.5938,202.373 Q236.1406,200.9199 235.5313,200.3262 Q234.9375,199.7168 233.9844,199.7168 Q232.7656,199.7168 232.0469,201.1543 Q231.3281,202.5762 231.3281,204.7637 Q231.3281,207.1699 231.9375,208.4668 Q232.5625,209.748 233.9219,209.748 Q234.875,209.748 235.5625,209.0605 Q236.25,208.3574 236.5781,206.8574 L237.4844,207.2637 Q237.0781,208.9668 236.1094,209.9199 Q235.1563,210.873 233.8438,210.873 Z " fill="#000000"/><text fill="#000000" font-family="sans-serif" font-size="14" lengthAdjust="spacing" textLength="45" x="248.5" y="210.8105">Demo1</text><line style="stroke:#181818;stroke-width:0.5;" x1="220.5" x2="295.5" y1="221.0137" y2="221.0137"/><line style="stroke:#181818;stroke-width:0.5;" x1="220.5" x2="295.5" y1="229.0137" y2="229.0137"/></g><!--class Demo2--><g id="elem_Demo2"><rect fill="#F1F1F1" height="48" id="Demo2" rx="2.5" ry="2.5" style="stroke:#181818;stroke-width:0.5;" width="77" x="331.5" y="189.0137"/><ellipse cx="346.5" cy="205.0137" fill="#ADD1B2" rx="11" ry="11" style="stroke:#181818;stroke-width:1.0;"/><path d="M345.8438,210.873 Q343.8594,210.873 342.6875,209.4043 Q341.5313,207.9199 341.5313,204.8418 Q341.5313,202.2324 342.75,200.4824 Q343.9844,198.7324 346.1094,198.7324 Q346.6094,198.7324 347.1406,198.873 Q347.5781,199.0605 347.8438,199.0605 Q348.0625,199.0605 348.1563,199.0137 Q348.2656,198.9668 348.7188,198.373 L349.4844,202.1074 L348.5938,202.373 Q348.1406,200.9199 347.5313,200.3262 Q346.9375,199.7168 345.9844,199.7168 Q344.7656,199.7168 344.0469,201.1543 Q343.3281,202.5762 343.3281,204.7637 Q343.3281,207.1699 343.9375,208.4668 Q344.5625,209.748 345.9219,209.748 Q346.875,209.748 347.5625,209.0605 Q348.25,208.3574 348.5781,206.8574 L349.4844,207.2637 Q349.0781,208.9668 348.1094,209.9199 Q347.1563,210.873 345.8438,210.873 Z " fill="#000000"/><text fill="#000000" font-family="sans-serif" font-size="14" lengthAdjust="spacing" textLength="45" x="360.5" y="210.8105">Demo2</text><line style="stroke:#181818;stroke-width:0.5;" x1="332.5" x2="407.5" y1="221.0137" y2="221.0137"/><line style="stroke:#181818;stroke-width:0.5;" x1="332.5" x2="407.5" y1="229.0137" y2="229.0137"/></g><!--reverse link Object to ArrayList--><g id="link_Object_ArrayList"><path codeLine="3" d="M97.1449,109.1498 C96.5849,136.0198 96.04,162.0837 95.48,188.9337 " fill="none" id="Object-backto-ArrayList" style="stroke:#181818;stroke-width:1.0;"/><polygon fill="none" points="97.52,91.1537,91.1462,109.0247,103.1436,109.2748,97.52,91.1537" style="stroke:#181818;stroke-width:1.0;"/></g><!--reverse link Object to Demo1--><g id="link_Object_Demo1"><path codeLine="7" d="M150.3484,94.5542 C157.3484,98.5542 148.79,94.1537 155,99.0137 C189.05,125.7137 221.5,164.2237 240.58,188.6837 " fill="none" id="Object-backto-Demo1" style="stroke:#181818;stroke-width:1.0;"/><polygon fill="none" points="134.72,85.6237,147.3715,99.7636,153.3252,89.3447,134.72,85.6237" style="stroke:#181818;stroke-width:1.0;"/></g><!--reverse link Demo1 to Demo2--><g id="link_Demo1_Demo2"><path codeLine="8" d="M308.5,213.0137 C320.08,213.0137 319.66,213.0137 331.24,213.0137 " fill="none" id="Demo1-backto-Demo2" style="stroke:#181818;stroke-width:1.0;"/><polygon fill="#181818" points="296.5,213.0137,302.5,217.0137,308.5,213.0137,302.5,209.0137,296.5,213.0137" style="stroke:#181818;stroke-width:1.0;"/></g><!--SRC=[AqXCpavCJrLGSiv9B2xEJ5Pmpi_9IKqkoSpFArPIK7O10uLgBWK5_wGieBY2JOskhe9ZKL5YfKzcSGbNBHTN0TI8vFnSlOASnBoIqjmS31qkgRdvXa0nCAsW1H4m0ce70000]--></g></svg>