<?xml version="1.0" encoding="us-ascii" standalone="no"?><svg xmlns="http://www.w3.org/2000/svg" xmlns:xlink="http://www.w3.org/1999/xlink" contentStyleType="text/css" height="237px" preserveAspectRatio="none" style="width:366px;height:237px;background:#FFFFFF;" version="1.1" viewBox="0 0 366 237" width="366px" zoomAndPan="magnify"><defs/><g><!--class Foo1--><g id="elem_Foo1"><rect codeLine="1" fill="#F1F1F1" height="220.9688" id="Foo1" rx="2.5" ry="2.5" style="stroke:#181818;stroke-width:0.5;" width="204" x="7" y="8.5"/><ellipse cx="88.25" cy="24.5" fill="#ADD1B2" rx="11" ry="11" style="stroke:#181818;stroke-width:1.0;"/><path d="M87.5938,30.3594 Q85.6094,30.3594 84.4375,28.8906 Q83.2813,27.4063 83.2813,24.3281 Q83.2813,21.7188 84.5,19.9688 Q85.7344,18.2188 87.8594,18.2188 Q88.3594,18.2188 88.8906,18.3594 Q89.3281,18.5469 89.5938,18.5469 Q89.8125,18.5469 89.9063,18.5 Q90.0156,18.4531 90.4688,17.8594 L91.2344,21.5938 L90.3438,21.8594 Q89.8906,20.4063 89.2813,19.8125 Q88.6875,19.2031 87.7344,19.2031 Q86.5156,19.2031 85.7969,20.6406 Q85.0781,22.0625 85.0781,24.25 Q85.0781,26.6563 85.6875,27.9531 Q86.3125,29.2344 87.6719,29.2344 Q88.625,29.2344 89.3125,28.5469 Q90,27.8438 90.3281,26.3438 L91.2344,26.75 Q90.8281,28.4531 89.8594,29.4063 Q88.9063,30.3594 87.5938,30.3594 Z " fill="#000000"/><text fill="#000000" font-family="sans-serif" font-size="14" lengthAdjust="spacing" textLength="33" x="108.75" y="30.2969">Foo1</text><line style="stroke:#181818;stroke-width:0.5;" x1="8" x2="210" y1="40.5" y2="40.5"/><text fill="#000000" font-family="sans-serif" font-size="14" lengthAdjust="spacing" textLength="79" x="13" y="59.6074">You can use</text><text fill="#000000" font-family="sans-serif" font-size="14" lengthAdjust="spacing" textLength="79" x="13" y="78.2285">several lines</text><line style="stroke:#181818;stroke-width:1.0;stroke-dasharray:1.0,2.0;" x1="8" x2="210" y1="85.7422" y2="85.7422"/><text fill="#000000" font-family="sans-serif" font-size="14" lengthAdjust="spacing" textLength="75" x="13" y="104.8496">as you want</text><text fill="#000000" font-family="sans-serif" font-size="14" lengthAdjust="spacing" textLength="65" x="13" y="123.4707">and group</text><line style="stroke:#181818;stroke-width:1.0;" x1="8" x2="210" y1="130.9844" y2="130.9844"/><line style="stroke:#181818;stroke-width:1.0;" x1="8" x2="210" y1="132.9844" y2="132.9844"/><text fill="#000000" font-family="sans-serif" font-size="14" lengthAdjust="spacing" textLength="99" x="13" y="150.0918">things together.</text><line style="stroke:#181818;stroke-width:0.5;" x1="8" x2="210" y1="157.6055" y2="157.6055"/><text fill="#000000" font-family="sans-serif" font-size="14" lengthAdjust="spacing" textLength="192" x="13" y="176.7129">You can have as many groups</text><text fill="#000000" font-family="sans-serif" font-size="14" lengthAdjust="spacing" textLength="75" x="13" y="195.334">as you want</text><line style="stroke:#181818;stroke-width:1.0;" x1="8" x2="210" y1="202.8477" y2="202.8477"/><text fill="#000000" font-family="sans-serif" font-size="14" lengthAdjust="spacing" textLength="77" x="13" y="221.9551">End of class</text></g><!--class User--><g id="elem_User"><rect codeLine="16" fill="#F1F1F1" height="223.5898" id="User" rx="2.5" ry="2.5" style="stroke:#181818;stroke-width:0.5;" width="113" x="246.5" y="7"/><ellipse cx="284.9" cy="23" fill="#ADD1B2" rx="11" ry="11" style="stroke:#181818;stroke-width:1.0;"/><path d="M284.2438,28.8594 Q282.2594,28.8594 281.0875,27.3906 Q279.9313,25.9063 279.9313,22.8281 Q279.9313,20.2188 281.15,18.4688 Q282.3844,16.7188 284.5094,16.7188 Q285.0094,16.7188 285.5406,16.8594 Q285.9781,17.0469 286.2438,17.0469 Q286.4625,17.0469 286.5563,17 Q286.6656,16.9531 287.1188,16.3594 L287.8844,20.0938 L286.9938,20.3594 Q286.5406,18.9063 285.9313,18.3125 Q285.3375,17.7031 284.3844,17.7031 Q283.1656,17.7031 282.4469,19.1406 Q281.7281,20.5625 281.7281,22.75 Q281.7281,25.1563 282.3375,26.4531 Q282.9625,27.7344 284.3219,27.7344 Q285.275,27.7344 285.9625,27.0469 Q286.65,26.3438 286.9781,24.8438 L287.8844,25.25 Q287.4781,26.9531 286.5094,27.9063 Q285.5563,28.8594 284.2438,28.8594 Z " fill="#000000"/><text fill="#000000" font-family="sans-serif" font-size="14" lengthAdjust="spacing" textLength="29" x="304.1" y="28.7969">User</text><line style="stroke:#181818;stroke-width:0.5;" x1="247.5" x2="358.5" y1="39" y2="39"/><ellipse cx="257.5" cy="76.4316" fill="#84BE84" rx="3" ry="3" style="stroke:#038048;stroke-width:1.0;"/><text fill="#000000" font-family="sans-serif" font-size="14" lengthAdjust="spacing" textLength="66" x="266.5" y="80.7285">getName()</text><ellipse cx="257.5" cy="95.0527" fill="#84BE84" rx="3" ry="3" style="stroke:#038048;stroke-width:1.0;"/><text fill="#000000" font-family="sans-serif" font-size="14" lengthAdjust="spacing" textLength="82" x="266.5" y="99.3496">getAddress()</text><line style="stroke:#181818;stroke-width:1.0;stroke-dasharray:1.0,2.0;" x1="247.5" x2="260" y1="56.3105" y2="56.3105"/><text fill="#000000" font-family="sans-serif" font-size="14" lengthAdjust="spacing" textLength="86" x="260" y="61.6074">Simple Getter</text><line style="stroke:#181818;stroke-width:1.0;stroke-dasharray:1.0,2.0;" x1="346" x2="358.5" y1="56.3105" y2="56.3105"/><ellipse cx="257.5" cy="136.2949" fill="#84BE84" rx="3" ry="3" style="stroke:#038048;stroke-width:1.0;"/><text fill="#000000" font-family="sans-serif" font-size="14" lengthAdjust="spacing" textLength="65" x="266.5" y="140.5918">setName()</text><line style="stroke:#181818;stroke-width:1.0;stroke-dasharray:1.0,2.0;" x1="247.5" x2="265" y1="116.1738" y2="116.1738"/><text fill="#000000" font-family="sans-serif" font-size="14" lengthAdjust="spacing" textLength="76" x="265" y="121.4707">Some setter</text><line style="stroke:#181818;stroke-width:1.0;stroke-dasharray:1.0,2.0;" x1="341" x2="358.5" y1="116.1738" y2="116.1738"/><text fill="#000000" font-family="sans-serif" font-size="14" lengthAdjust="spacing" textLength="43" x="252.5" y="181.834">int age</text><line style="stroke:#181818;stroke-width:0.5;" x1="247.5" x2="265.5" y1="157.416" y2="157.416"/><text fill="#000000" font-family="sans-serif" font-size="14" lengthAdjust="spacing" textLength="75" x="265.5" y="162.7129">private data</text><line style="stroke:#181818;stroke-width:0.5;" x1="340.5" x2="358.5" y1="157.416" y2="157.416"/><text fill="#000000" font-family="sans-serif" font-size="14" lengthAdjust="spacing" textLength="101" x="252.5" y="223.0762">String password</text><line style="stroke:#181818;stroke-width:1.0;" x1="247.5" x2="271.5" y1="198.6582" y2="198.6582"/><text fill="#000000" font-family="sans-serif" font-size="14" lengthAdjust="spacing" textLength="63" x="271.5" y="203.9551">encrypted</text><line style="stroke:#181818;stroke-width:1.0;" x1="334.5" x2="358.5" y1="198.6582" y2="198.6582"/></g><!--SRC=[PO-nQiGm44HxVSMKES8PyW5Nf4ZIfJbIf3ABjR45jcIqQnyctB_VIYPWI3FiB9hHssua4Rodz89V1tod1Hr5BCBcX5VED68CaSLyqvYGOBDNDufQNFJeSrfccoyN4nr2x0MQUjQ1SqcqxQ5ve9LBnqHnsvFoh_HyDdcpvlI3hW2wktDrm9TmhgHDWskOvf7nmQgsh73Fi6y_QUAdqvzxzJwpI5sKK9hO3Zj6v11fMymvhAGCJqexUuWAwhcIWMENjrdPxvXNpNOmPeExfUpT_G40]--></g></svg>