<?xml version="1.0" encoding="us-ascii" standalone="no"?><svg xmlns="http://www.w3.org/2000/svg" xmlns:xlink="http://www.w3.org/1999/xlink" contentStyleType="text/css" height="189px" preserveAspectRatio="none" style="width:380px;height:189px;background:#FFFFFF;" version="1.1" viewBox="0 0 380 189" width="380px" zoomAndPan="magnify"><defs/><g><!--class Driver--><g id="elem_Driver"><rect fill="#F1F1F1" height="48" id="Driver" rx="2.5" ry="2.5" style="stroke:#181818;stroke-width:0.5;" width="70" x="7" y="7"/><ellipse cx="22" cy="23" fill="#ADD1B2" rx="11" ry="11" style="stroke:#181818;stroke-width:1.0;"/><path d="M21.3438,28.8594 Q19.3594,28.8594 18.1875,27.3906 Q17.0313,25.9063 17.0313,22.8281 Q17.0313,20.2188 18.25,18.4688 Q19.4844,16.7188 21.6094,16.7188 Q22.1094,16.7188 22.6406,16.8594 Q23.0781,17.0469 23.3438,17.0469 Q23.5625,17.0469 23.6563,17 Q23.7656,16.9531 24.2188,16.3594 L24.9844,20.0938 L24.0938,20.3594 Q23.6406,18.9063 23.0313,18.3125 Q22.4375,17.7031 21.4844,17.7031 Q20.2656,17.7031 19.5469,19.1406 Q18.8281,20.5625 18.8281,22.75 Q18.8281,25.1563 19.4375,26.4531 Q20.0625,27.7344 21.4219,27.7344 Q22.375,27.7344 23.0625,27.0469 Q23.75,26.3438 24.0781,24.8438 L24.9844,25.25 Q24.5781,26.9531 23.6094,27.9063 Q22.6563,28.8594 21.3438,28.8594 Z " fill="#000000"/><text fill="#000000" font-family="sans-serif" font-size="14" lengthAdjust="spacing" textLength="38" x="36" y="28.7969">Driver</text><line style="stroke:#181818;stroke-width:0.5;" x1="8" x2="76" y1="39" y2="39"/><line style="stroke:#181818;stroke-width:0.5;" x1="8" x2="76" y1="47" y2="47"/></g><!--class Car--><g id="elem_Car"><rect fill="#F1F1F1" height="48" id="Car" rx="2.5" ry="2.5" style="stroke:#181818;stroke-width:0.5;" width="55" x="159.5" y="7"/><ellipse cx="174.5" cy="23" fill="#ADD1B2" rx="11" ry="11" style="stroke:#181818;stroke-width:1.0;"/><path d="M173.8438,28.8594 Q171.8594,28.8594 170.6875,27.3906 Q169.5313,25.9063 169.5313,22.8281 Q169.5313,20.2188 170.75,18.4688 Q171.9844,16.7188 174.1094,16.7188 Q174.6094,16.7188 175.1406,16.8594 Q175.5781,17.0469 175.8438,17.0469 Q176.0625,17.0469 176.1563,17 Q176.2656,16.9531 176.7188,16.3594 L177.4844,20.0938 L176.5938,20.3594 Q176.1406,18.9063 175.5313,18.3125 Q174.9375,17.7031 173.9844,17.7031 Q172.7656,17.7031 172.0469,19.1406 Q171.3281,20.5625 171.3281,22.75 Q171.3281,25.1563 171.9375,26.4531 Q172.5625,27.7344 173.9219,27.7344 Q174.875,27.7344 175.5625,27.0469 Q176.25,26.3438 176.5781,24.8438 L177.4844,25.25 Q177.0781,26.9531 176.1094,27.9063 Q175.1563,28.8594 173.8438,28.8594 Z " fill="#000000"/><text fill="#000000" font-family="sans-serif" font-size="14" lengthAdjust="spacing" textLength="23" x="188.5" y="28.7969">Car</text><line style="stroke:#181818;stroke-width:0.5;" x1="160.5" x2="213.5" y1="39" y2="39"/><line style="stroke:#181818;stroke-width:0.5;" x1="160.5" x2="213.5" y1="47" y2="47"/></g><!--class Wheel--><g id="elem_Wheel"><rect fill="#F1F1F1" height="48" id="Wheel" rx="2.5" ry="2.5" style="stroke:#181818;stroke-width:0.5;" width="72" x="301" y="7"/><ellipse cx="316" cy="23" fill="#ADD1B2" rx="11" ry="11" style="stroke:#181818;stroke-width:1.0;"/><path d="M315.3438,28.8594 Q313.3594,28.8594 312.1875,27.3906 Q311.0313,25.9063 311.0313,22.8281 Q311.0313,20.2188 312.25,18.4688 Q313.4844,16.7188 315.6094,16.7188 Q316.1094,16.7188 316.6406,16.8594 Q317.0781,17.0469 317.3438,17.0469 Q317.5625,17.0469 317.6563,17 Q317.7656,16.9531 318.2188,16.3594 L318.9844,20.0938 L318.0938,20.3594 Q317.6406,18.9063 317.0313,18.3125 Q316.4375,17.7031 315.4844,17.7031 Q314.2656,17.7031 313.5469,19.1406 Q312.8281,20.5625 312.8281,22.75 Q312.8281,25.1563 313.4375,26.4531 Q314.0625,27.7344 315.4219,27.7344 Q316.375,27.7344 317.0625,27.0469 Q317.75,26.3438 318.0781,24.8438 L318.9844,25.25 Q318.5781,26.9531 317.6094,27.9063 Q316.6563,28.8594 315.3438,28.8594 Z " fill="#000000"/><text fill="#000000" font-family="sans-serif" font-size="14" lengthAdjust="spacing" textLength="40" x="330" y="28.7969">Wheel</text><line style="stroke:#181818;stroke-width:0.5;" x1="302" x2="372" y1="39" y2="39"/><line style="stroke:#181818;stroke-width:0.5;" x1="302" x2="372" y1="47" y2="47"/></g><!--class Person--><g id="elem_Person"><rect fill="#F1F1F1" height="48" id="Person" rx="2.5" ry="2.5" style="stroke:#181818;stroke-width:0.5;" width="77" x="148.5" y="134"/><ellipse cx="163.5" cy="150" fill="#ADD1B2" rx="11" ry="11" style="stroke:#181818;stroke-width:1.0;"/><path d="M162.8438,155.8594 Q160.8594,155.8594 159.6875,154.3906 Q158.5313,152.9063 158.5313,149.8281 Q158.5313,147.2188 159.75,145.4688 Q160.9844,143.7188 163.1094,143.7188 Q163.6094,143.7188 164.1406,143.8594 Q164.5781,144.0469 164.8438,144.0469 Q165.0625,144.0469 165.1563,144 Q165.2656,143.9531 165.7188,143.3594 L166.4844,147.0938 L165.5938,147.3594 Q165.1406,145.9063 164.5313,145.3125 Q163.9375,144.7031 162.9844,144.7031 Q161.7656,144.7031 161.0469,146.1406 Q160.3281,147.5625 160.3281,149.75 Q160.3281,152.1563 160.9375,153.4531 Q161.5625,154.7344 162.9219,154.7344 Q163.875,154.7344 164.5625,154.0469 Q165.25,153.3438 165.5781,151.8438 L166.4844,152.25 Q166.0781,153.9531 165.1094,154.9063 Q164.1563,155.8594 162.8438,155.8594 Z " fill="#000000"/><text fill="#000000" font-family="sans-serif" font-size="14" lengthAdjust="spacing" textLength="45" x="177.5" y="155.7969">Person</text><line style="stroke:#181818;stroke-width:0.5;" x1="149.5" x2="224.5" y1="166" y2="166"/><line style="stroke:#181818;stroke-width:0.5;" x1="149.5" x2="224.5" y1="174" y2="174"/></g><!--link Driver to Car--><g id="link_Driver_Car"><path codeLine="1" d="M77.1,31 C102.41,31 136.1,31 159.48,31 " fill="none" id="Driver-Car" style="stroke:#181818;stroke-width:1.0;"/><polygon fill="#000000" points="104.25,18.6455,95.2049,15.7066,95.2049,21.5844,104.25,18.6455" style="stroke:#000000;stroke-width:1.0;"/><text fill="#000000" font-family="sans-serif" font-size="13" lengthAdjust="spacing" textLength="33" x="108.25" y="24.0283">drives</text></g><!--reverse link Car to Wheel--><g id="link_Car_Wheel"><path codeLine="2" d="M226.51,31 C250.79,31 274.33,31 300.89,31 " fill="none" id="Car-backto-Wheel" style="stroke:#181818;stroke-width:1.0;"/><polygon fill="#181818" points="214.51,31,220.51,35,226.51,31,220.51,27,214.51,31" style="stroke:#181818;stroke-width:1.0;"/><polygon fill="#000000" points="241.75,18.6455,232.7049,15.7066,232.7049,21.5844,241.75,18.6455" style="stroke:#000000;stroke-width:1.0;"/><text fill="#000000" font-family="sans-serif" font-size="13" lengthAdjust="spacing" textLength="37" x="245.75" y="24.0283">have 4</text></g><!--link Car to Person--><g id="link_Car_Person"><path codeLine="3" d="M187,55.22 C187,77.67 187,111.5 187,133.91 " fill="none" id="Car-Person" style="stroke:#181818;stroke-width:1.0;"/><polygon fill="#000000" points="192,89.6455,189.0611,98.6906,194.9389,98.6906,192,89.6455" style="stroke:#000000;stroke-width:1.0;"/><text fill="#000000" font-family="sans-serif" font-size="13" lengthAdjust="spacing" textLength="30" x="201" y="100.0283">owns</text></g><!--SRC=[SodAB4ijKj1LS4uiKh1II05nYnNik41SBLs5y8pKr1oWU4PYMQg22LHSLrSX8BMeE3yFA66Za5-ULmm0]--></g></svg>