<?xml version="1.0" encoding="us-ascii" standalone="no"?><svg xmlns="http://www.w3.org/2000/svg" xmlns:xlink="http://www.w3.org/1999/xlink" contentStyleType="text/css" height="170px" preserveAspectRatio="none" style="width:149px;height:170px;background:#FFFFFF;" version="1.1" viewBox="0 0 149 170" width="149px" zoomAndPan="magnify"><defs/><g><!--class C1--><g id="elem_C1"><rect codeLine="1" fill="#F1F1F1" height="48" id="C1" rx="2.5" ry="2.5" style="stroke:#181818;stroke-width:0.5;" width="50" x="7" y="7"/><ellipse cx="22" cy="23" fill="#ADD1B2" rx="11" ry="11" style="stroke:#181818;stroke-width:1.0;"/><path d="M21.3438,28.8594 Q19.3594,28.8594 18.1875,27.3906 Q17.0313,25.9063 17.0313,22.8281 Q17.0313,20.2188 18.25,18.4688 Q19.4844,16.7188 21.6094,16.7188 Q22.1094,16.7188 22.6406,16.8594 Q23.0781,17.0469 23.3438,17.0469 Q23.5625,17.0469 23.6563,17 Q23.7656,16.9531 24.2188,16.3594 L24.9844,20.0938 L24.0938,20.3594 Q23.6406,18.9063 23.0313,18.3125 Q22.4375,17.7031 21.4844,17.7031 Q20.2656,17.7031 19.5469,19.1406 Q18.8281,20.5625 18.8281,22.75 Q18.8281,25.1563 19.4375,26.4531 Q20.0625,27.7344 21.4219,27.7344 Q22.375,27.7344 23.0625,27.0469 Q23.75,26.3438 24.0781,24.8438 L24.9844,25.25 Q24.5781,26.9531 23.6094,27.9063 Q22.6563,28.8594 21.3438,28.8594 Z " fill="#000000"/><text fill="#000000" font-family="sans-serif" font-size="14" lengthAdjust="spacing" textLength="18" x="36" y="28.7969">C1</text><line style="stroke:#181818;stroke-width:0.5;" x1="8" x2="56" y1="39" y2="39"/><line style="stroke:#181818;stroke-width:0.5;" x1="8" x2="56" y1="47" y2="47"/></g><!--class C2--><g id="elem_C2"><rect codeLine="2" fill="#F1F1F1" height="48" id="C2" rx="2.5" ry="2.5" style="stroke:#181818;stroke-width:0.5;" width="50" x="7" y="115"/><ellipse cx="22" cy="131" fill="#ADD1B2" rx="11" ry="11" style="stroke:#181818;stroke-width:1.0;"/><path d="M21.3438,136.8594 Q19.3594,136.8594 18.1875,135.3906 Q17.0313,133.9063 17.0313,130.8281 Q17.0313,128.2188 18.25,126.4688 Q19.4844,124.7188 21.6094,124.7188 Q22.1094,124.7188 22.6406,124.8594 Q23.0781,125.0469 23.3438,125.0469 Q23.5625,125.0469 23.6563,125 Q23.7656,124.9531 24.2188,124.3594 L24.9844,128.0938 L24.0938,128.3594 Q23.6406,126.9063 23.0313,126.3125 Q22.4375,125.7031 21.4844,125.7031 Q20.2656,125.7031 19.5469,127.1406 Q18.8281,128.5625 18.8281,130.75 Q18.8281,133.1563 19.4375,134.4531 Q20.0625,135.7344 21.4219,135.7344 Q22.375,135.7344 23.0625,135.0469 Q23.75,134.3438 24.0781,132.8438 L24.9844,133.25 Q24.5781,134.9531 23.6094,135.9063 Q22.6563,136.8594 21.3438,136.8594 Z " fill="#000000"/><text fill="#000000" font-family="sans-serif" font-size="14" lengthAdjust="spacing" textLength="18" x="36" y="136.7969">C2</text><line style="stroke:#181818;stroke-width:0.5;" x1="8" x2="56" y1="147" y2="147"/><line style="stroke:#181818;stroke-width:0.5;" x1="8" x2="56" y1="155" y2="155"/></g><!--class C3--><g id="elem_C3"><rect codeLine="3" fill="#F1F1F1" height="48" id="C3" rx="2.5" ry="2.5" style="stroke:#181818;stroke-width:0.5;" width="50" x="92" y="7"/><ellipse cx="107" cy="23" fill="#ADD1B2" rx="11" ry="11" style="stroke:#181818;stroke-width:1.0;"/><path d="M106.3438,28.8594 Q104.3594,28.8594 103.1875,27.3906 Q102.0313,25.9063 102.0313,22.8281 Q102.0313,20.2188 103.25,18.4688 Q104.4844,16.7188 106.6094,16.7188 Q107.1094,16.7188 107.6406,16.8594 Q108.0781,17.0469 108.3438,17.0469 Q108.5625,17.0469 108.6563,17 Q108.7656,16.9531 109.2188,16.3594 L109.9844,20.0938 L109.0938,20.3594 Q108.6406,18.9063 108.0313,18.3125 Q107.4375,17.7031 106.4844,17.7031 Q105.2656,17.7031 104.5469,19.1406 Q103.8281,20.5625 103.8281,22.75 Q103.8281,25.1563 104.4375,26.4531 Q105.0625,27.7344 106.4219,27.7344 Q107.375,27.7344 108.0625,27.0469 Q108.75,26.3438 109.0781,24.8438 L109.9844,25.25 Q109.5781,26.9531 108.6094,27.9063 Q107.6563,28.8594 106.3438,28.8594 Z " fill="#000000"/><text fill="#000000" font-family="sans-serif" font-size="14" lengthAdjust="spacing" textLength="18" x="121" y="28.7969">C3</text><line style="stroke:#181818;stroke-width:0.5;" x1="93" x2="141" y1="39" y2="39"/><line style="stroke:#181818;stroke-width:0.5;" x1="93" x2="141" y1="47" y2="47"/></g><!--link C1 to C2--><g id="link_C1_C2"><path codeLine="4" d="M32,55 C32,72.66 32,96.94 32,114.68 " fill="none" id="C1-C2" style="stroke:#181818;stroke-width:1.0;"/></g><!--SRC=[Iyv9B2vMS3RaIeOmZ60COovdGmLTNQ080000]--></g></svg>