<?xml version="1.0" encoding="utf-8"?>
<!-- Generator: Adobe Illustrator 16.0.0, SVG Export Plug-In . SVG Version: 6.00 Build 0)  -->
<!DOCTYPE svg PUBLIC "-//W3C//DTD SVG 1.1//EN" "http://www.w3.org/Graphics/SVG/1.1/DTD/svg11.dtd">
<svg version="1.1" id="Layer_1" xmlns="http://www.w3.org/2000/svg" xmlns:xlink="http://www.w3.org/1999/xlink" x="0px" y="0px"
	 width="329.412px" height="361.257px" viewBox="0 0 329.412 361.257" enable-background="new 0 0 329.412 361.257"
	 xml:space="preserve">
<circle fill="#F0FFFF" stroke="#000000" stroke-miterlimit="10" cx="164.706" cy="196.551" r="164.706"/>
<circle fill="#ADD8E6" stroke="#000000" stroke-miterlimit="10" cx="164.305" cy="196.642" r="87.166"/>
<g>
	<rect x="95.752" y="2.821" fill="none" width="138.779" height="58.049"/>
	<path d="M133.66,2.882v15.961c0,1.875,0.354,3.434,1.063,4.676c1.051,1.875,2.822,2.812,5.315,2.812
		c2.988,0,5.02-1.014,6.095-3.041c0.579-1.102,0.868-2.584,0.868-4.447V2.882h3.533v14.502c0,3.176-0.43,5.619-1.287,7.33
		c-1.576,3.117-4.552,4.676-8.926,4.676c-4.374,0-7.344-1.559-8.908-4.676c-0.858-1.711-1.287-4.154-1.287-7.33V2.882H133.66z"/>
	<path d="M157.338,22.798c0.096,1.055,0.364,1.863,0.808,2.426c0.812,1.02,2.225,1.529,4.233,1.529c1.196,0,2.249-0.255,3.158-0.765
		c0.909-0.51,1.362-1.298,1.362-2.364c0-0.809-0.362-1.424-1.09-1.846c-0.465-0.258-1.381-0.557-2.75-0.896l-2.555-0.633
		c-1.632-0.398-2.834-0.844-3.608-1.336c-1.382-0.855-2.072-2.039-2.072-3.551c0-1.781,0.65-3.223,1.95-4.324
		c1.301-1.102,3.05-1.652,5.247-1.652c2.874,0,4.946,0.832,6.216,2.496c0.796,1.055,1.183,2.191,1.158,3.41h-2.987
		c-0.062-0.711-0.318-1.357-0.773-1.94c-0.744-0.827-2.034-1.241-3.869-1.241c-1.224,0-2.15,0.228-2.78,0.683
		c-0.63,0.455-0.944,1.057-0.944,1.804c0,0.817,0.414,1.472,1.241,1.962c0.478,0.292,1.182,0.549,2.113,0.772l2.132,0.51
		c2.315,0.551,3.868,1.084,4.657,1.6c1.229,0.809,1.846,2.08,1.846,3.814c0,1.676-0.645,3.123-1.932,4.342
		c-1.287,1.219-3.248,1.828-5.882,1.828c-2.836,0-4.844-0.636-6.024-1.907c-1.18-1.271-1.812-2.845-1.896-4.72L157.338,22.798
		L157.338,22.798z"/>
	<path d="M185.086,10.397c1.246,0.627,2.195,1.438,2.849,2.435c0.629,0.949,1.047,2.057,1.258,3.322
		c0.186,0.867,0.279,2.25,0.279,4.148h-13.693c0.059,1.916,0.506,3.452,1.342,4.609c0.838,1.158,2.135,1.736,3.891,1.736
		c1.639,0,2.947-0.547,3.924-1.642c0.547-0.636,0.935-1.372,1.162-2.208h3.111c-0.082,0.691-0.355,1.462-0.818,2.312
		s-0.979,1.544-1.549,2.083c-0.953,0.938-2.135,1.57-3.541,1.898c-0.756,0.188-1.611,0.281-2.564,0.281
		c-2.329,0-4.303-0.853-5.922-2.558s-2.428-4.093-2.428-7.163c0-3.023,0.814-5.479,2.445-7.365c1.631-1.886,3.762-2.83,6.395-2.83
		C182.554,9.457,183.838,9.77,185.086,10.397z M186.219,17.789c-0.129-1.371-0.426-2.467-0.889-3.287
		c-0.861-1.523-2.297-2.285-4.308-2.285c-1.438,0-2.647,0.524-3.625,1.573c-0.977,1.049-1.494,2.382-1.551,3.999H186.219z"/>
	<path d="M193.567,9.878h3.006v3.252c0.246-0.633,0.85-1.403,1.811-2.312c0.961-0.909,2.068-1.362,3.322-1.362
		c0.059,0,0.158,0.006,0.299,0.018c0.141,0.012,0.381,0.035,0.721,0.07v3.34c-0.188-0.035-0.36-0.059-0.52-0.07
		s-0.33-0.018-0.518-0.018c-1.595,0-2.818,0.513-3.674,1.538c-0.856,1.025-1.283,2.206-1.283,3.542v10.828h-3.164V9.878
		L193.567,9.878z"/>
</g>
<g>
	<rect x="29.557" y="48.898" fill="none" width="263.094" height="92.279"/>
	<path d="M138.389,63.393c0.937,0.576,2.305,1.056,3.744,1.056c2.137,0,3.385-1.128,3.385-2.76c0-1.512-0.864-2.376-3.049-3.216
		c-2.64-0.936-4.272-2.304-4.272-4.584c0-2.521,2.089-4.393,5.232-4.393c1.656,0,2.856,0.384,3.577,0.792l-0.576,1.704
		c-0.528-0.288-1.608-0.768-3.072-0.768c-2.209,0-3.049,1.32-3.049,2.424c0,1.512,0.984,2.256,3.217,3.12
		c2.736,1.056,4.128,2.376,4.128,4.752c0,2.497-1.848,4.657-5.664,4.657c-1.561,0-3.265-0.456-4.129-1.032L138.389,63.393z"/>
	<path d="M150.437,48.896h2.112v7.249h0.048c0.336-0.6,0.864-1.128,1.513-1.488c0.624-0.36,1.368-0.6,2.16-0.6
		c1.56,0,4.056,0.96,4.056,4.968v6.913h-2.111v-6.672c0-1.873-0.696-3.457-2.688-3.457c-1.368,0-2.448,0.96-2.832,2.112
		c-0.12,0.288-0.145,0.6-0.145,1.008v7.009h-2.112L150.437,48.896L150.437,48.896z"/>
	<path d="M164.933,60.513c0.048,2.856,1.873,4.032,3.983,4.032c1.513,0,2.425-0.264,3.217-0.6l0.36,1.512
		c-0.744,0.336-2.018,0.72-3.864,0.72c-3.577,0-5.713-2.353-5.713-5.857c0-3.504,2.064-6.264,5.448-6.264
		c3.793,0,4.801,3.336,4.801,5.472c0,0.432-0.048,0.768-0.072,0.984L164.933,60.513L164.933,60.513z M171.125,59.001
		c0.022-1.344-0.554-3.433-2.929-3.433c-2.137,0-3.072,1.968-3.24,3.433H171.125z"/>
	<path d="M175.78,48.896h2.111v17.042h-2.111V48.896z"/>
	<path d="M181.444,48.896h2.111v17.042h-2.111V48.896z"/>
	<path d="M91.302,78.081c-1.753,2.352-3.024,5.472-3.024,9.816c0,4.272,1.32,7.345,3.024,9.745h-1.656
		c-1.513-1.992-3.145-5.064-3.145-9.745c0.024-4.728,1.632-7.8,3.145-9.816H91.302z"/>
	<path d="M95.694,78.561v9.577c0,3.625,1.608,5.161,3.769,5.161c2.4,0,3.937-1.584,3.937-5.161v-9.577h2.112v9.433
		c0,4.968-2.616,7.009-6.121,7.009c-3.312,0-5.809-1.896-5.809-6.913v-9.529H95.694z"/>
	<path d="M108.629,92.578c0.624,0.408,1.729,0.84,2.784,0.84c1.536,0,2.257-0.768,2.257-1.728c0-1.008-0.601-1.56-2.16-2.136
		c-2.089-0.744-3.072-1.896-3.072-3.288c0-1.872,1.512-3.408,4.008-3.408c1.177,0,2.208,0.336,2.856,0.72l-0.528,1.536
		c-0.456-0.288-1.296-0.672-2.376-0.672c-1.248,0-1.944,0.72-1.944,1.584c0,0.96,0.696,1.392,2.208,1.968
		c2.017,0.768,3.049,1.776,3.049,3.504c0,2.04-1.584,3.48-4.345,3.48c-1.271,0-2.448-0.312-3.264-0.792L108.629,92.578z"/>
	<path d="M119.598,89.313c0.048,2.856,1.872,4.032,3.984,4.032c1.512,0,2.424-0.264,3.216-0.6l0.36,1.512
		c-0.744,0.336-2.017,0.72-3.864,0.72c-3.577,0-5.713-2.353-5.713-5.857s2.064-6.264,5.448-6.264c3.793,0,4.801,3.336,4.801,5.472
		c0,0.432-0.048,0.768-0.072,0.984L119.598,89.313L119.598,89.313z M125.791,87.801c0.023-1.344-0.553-3.432-2.929-3.432
		c-2.136,0-3.072,1.968-3.24,3.432H125.791z"/>
	<path d="M130.445,86.745c0-1.368-0.023-2.544-0.096-3.625h1.848l0.072,2.28h0.096c0.528-1.56,1.801-2.544,3.217-2.544
		c0.24,0,0.408,0.024,0.6,0.072v1.992c-0.216-0.048-0.432-0.072-0.72-0.072c-1.488,0-2.544,1.128-2.832,2.712
		c-0.048,0.288-0.096,0.624-0.096,0.984v6.192h-2.089V86.745L130.445,86.745z"/>
	<path d="M145.541,78.561v16.177h-2.088V78.561H145.541z"/>
	<path d="M149.356,86.265c0-1.2-0.023-2.184-0.096-3.145h1.872l0.12,1.92h0.048c0.576-1.104,1.92-2.184,3.841-2.184
		c1.607,0,4.104,0.96,4.104,4.944v6.937h-2.111V88.04c0-1.872-0.696-3.432-2.688-3.432c-1.393,0-2.473,0.984-2.832,2.16
		c-0.097,0.264-0.145,0.624-0.145,0.984v6.984h-2.112L149.356,86.265L149.356,86.265z"/>
	<path d="M165.125,79.785v3.336h3.024v1.608h-3.024v6.265c0,1.44,0.408,2.256,1.585,2.256c0.553,0,0.96-0.072,1.225-0.144
		l0.096,1.584c-0.407,0.168-1.057,0.288-1.872,0.288c-0.983,0-1.775-0.312-2.28-0.888c-0.6-0.624-0.815-1.656-0.815-3.024V84.73
		h-1.801v-1.608h1.801v-2.784L165.125,79.785z"/>
	<path d="M171.558,89.313c0.047,2.856,1.871,4.032,3.983,4.032c1.513,0,2.424-0.264,3.216-0.6l0.36,1.512
		c-0.744,0.336-2.017,0.72-3.864,0.72c-3.577,0-5.713-2.353-5.713-5.857s2.064-6.264,5.447-6.264c3.794,0,4.802,3.336,4.802,5.472
		c0,0.432-0.048,0.768-0.072,0.984L171.558,89.313L171.558,89.313z M177.75,87.801c0.022-1.344-0.554-3.432-2.929-3.432
		c-2.137,0-3.072,1.968-3.24,3.432H177.75z"/>
	<path d="M182.403,86.745c0-1.368-0.022-2.544-0.096-3.625h1.849l0.071,2.28h0.097c0.528-1.56,1.801-2.544,3.217-2.544
		c0.24,0,0.408,0.024,0.601,0.072v1.992c-0.217-0.048-0.433-0.072-0.721-0.072c-1.488,0-2.544,1.128-2.832,2.712
		c-0.048,0.288-0.096,0.624-0.096,0.984v6.192h-2.09V86.745L182.403,86.745z"/>
	<path d="M191.187,94.738V84.729h-1.631v-1.608h1.631v-0.552c0-1.632,0.36-3.121,1.346-4.057c0.792-0.768,1.848-1.08,2.832-1.08
		c0.744,0,1.393,0.168,1.8,0.336l-0.288,1.632c-0.312-0.144-0.744-0.264-1.344-0.264c-1.801,0-2.256,1.584-2.256,3.36v0.624h2.808
		v1.608h-2.808v10.009L191.187,94.738L191.187,94.738z"/>
	<path d="M204.412,94.738l-0.168-1.464h-0.072c-0.647,0.912-1.896,1.729-3.552,1.729c-2.354,0-3.553-1.656-3.553-3.336
		c0-2.808,2.496-4.344,6.983-4.32v-0.24c0-0.96-0.264-2.688-2.64-2.688c-1.08,0-2.208,0.336-3.023,0.864l-0.48-1.392
		c0.961-0.624,2.353-1.032,3.816-1.032c3.553,0,4.416,2.424,4.416,4.752v4.344c0,1.008,0.049,1.992,0.191,2.784h-1.919V94.738z
		 M204.101,88.809c-2.306-0.048-4.922,0.36-4.922,2.616c0,1.368,0.912,2.017,1.992,2.017c1.514,0,2.473-0.96,2.809-1.944
		c0.071-0.216,0.121-0.456,0.121-0.672V88.809z"/>
	<path d="M217.829,94.306c-0.553,0.288-1.775,0.672-3.337,0.672c-3.505,0-5.784-2.376-5.784-5.929c0-3.576,2.447-6.168,6.24-6.168
		c1.248,0,2.353,0.312,2.929,0.6l-0.479,1.632c-0.504-0.288-1.297-0.552-2.448-0.552c-2.664,0-4.104,1.968-4.104,4.392
		c0,2.688,1.729,4.345,4.033,4.345c1.199,0,1.992-0.312,2.592-0.576L217.829,94.306z"/>
	<path d="M221.332,89.313c0.048,2.856,1.872,4.032,3.983,4.032c1.513,0,2.425-0.264,3.217-0.6l0.359,1.512
		c-0.744,0.336-2.017,0.72-3.863,0.72c-3.577,0-5.713-2.353-5.713-5.857s2.063-6.264,5.447-6.264c3.793,0,4.801,3.336,4.801,5.472
		c0,0.432-0.047,0.768-0.071,0.984L221.332,89.313L221.332,89.313z M227.524,87.801c0.022-1.344-0.553-3.432-2.93-3.432
		c-2.136,0-3.072,1.968-3.24,3.432H227.524z"/>
	<path d="M230.907,97.642c1.703-2.376,3.023-5.497,3.023-9.817c0-4.296-1.297-7.369-3.023-9.745h1.632
		c1.536,1.968,3.146,5.04,3.146,9.769c0,4.705-1.608,7.753-3.146,9.793H230.907z"/>
</g>
<g>
	<rect x="137.749" y="126.797" fill="none" width="76.83" height="37.316"/>
	<path d="M139.345,127.556h1.826v6.824h0.063c0.378-0.546,0.756-1.05,1.112-1.512l4.326-5.312h2.268l-5.123,6.005l5.521,8.146
		h-2.162l-4.662-6.95l-1.344,1.554v5.396h-1.826L139.345,127.556L139.345,127.556z"/>
	<path d="M151.692,136.962c0.042,2.499,1.638,3.527,3.485,3.527c1.323,0,2.12-0.231,2.813-0.525l0.314,1.323
		c-0.65,0.294-1.764,0.63-3.38,0.63c-3.128,0-4.997-2.058-4.997-5.123s1.806-5.48,4.766-5.48c3.318,0,4.199,2.918,4.199,4.787
		c0,0.378-0.041,0.672-0.062,0.861H151.692z M157.109,135.639c0.021-1.176-0.483-3.002-2.562-3.002
		c-1.869,0-2.688,1.722-2.834,3.002H157.109z"/>
	<path d="M161.185,134.715c0-1.197-0.021-2.226-0.084-3.17h1.616l0.063,1.995h0.084c0.461-1.365,1.574-2.226,2.812-2.226
		c0.212,0,0.357,0.021,0.525,0.063v1.743c-0.188-0.042-0.378-0.063-0.63-0.063c-1.302,0-2.226,0.987-2.479,2.373
		c-0.042,0.252-0.084,0.546-0.084,0.861v5.417h-1.826v-6.993H161.185z"/>
	<path d="M168.136,134.295c0-1.05-0.021-1.911-0.084-2.75h1.637l0.104,1.68h0.043c0.504-0.966,1.681-1.911,3.358-1.911
		c1.406,0,3.591,0.84,3.591,4.325v6.068h-1.849v-5.858c0-1.638-0.608-3.002-2.352-3.002c-1.219,0-2.162,0.861-2.479,1.89
		c-0.084,0.231-0.125,0.546-0.125,0.861v6.11h-1.848v-7.413H168.136z"/>
	<path d="M180.819,136.962c0.043,2.499,1.639,3.527,3.486,3.527c1.321,0,2.118-0.231,2.812-0.525l0.313,1.323
		c-0.65,0.294-1.764,0.63-3.379,0.63c-3.129,0-4.998-2.058-4.998-5.123s1.807-5.48,4.766-5.48c3.318,0,4.199,2.918,4.199,4.787
		c0,0.378-0.041,0.672-0.062,0.861H180.819z M186.237,135.639c0.02-1.176-0.484-3.002-2.562-3.002c-1.869,0-2.688,1.722-2.834,3.002
		H186.237z"/>
	<path d="M190.312,126.8h1.848v14.907h-1.848V126.8z"/>
</g>
<circle fill="#87CEFA" stroke="#000000" stroke-miterlimit="10" cx="164.294" cy="196.84" r="43.315"/>
<g>
	<rect x="124.461" y="189.445" fill="none" width="76.831" height="37.316"/>
	<path d="M155.892,203.894c-0.672,0.336-2.016,0.672-3.736,0.672c-3.99,0-6.992-2.521-6.992-7.16c0-4.43,3.002-7.434,7.391-7.434
		c1.764,0,2.877,0.379,3.359,0.631l-0.441,1.49c-0.692-0.336-1.68-0.588-2.855-0.588c-3.316,0-5.521,2.121-5.521,5.837
		c0,3.464,1.994,5.69,5.438,5.69c1.113,0,2.247-0.23,2.982-0.588L155.892,203.894z"/>
	<path d="M158.183,190.372c0.882-0.147,2.037-0.272,3.506-0.272c1.807,0,3.129,0.42,3.969,1.176
		c0.777,0.672,1.238,1.701,1.238,2.959c0,1.281-0.377,2.289-1.092,3.023c-0.965,1.029-2.541,1.555-4.324,1.555
		c-0.547,0-1.051-0.021-1.471-0.127v5.67h-1.826V190.372z M160.008,197.195c0.399,0.105,0.903,0.147,1.512,0.147
		c2.205,0,3.549-1.071,3.549-3.022c0-1.869-1.322-2.771-3.338-2.771c-0.799,0-1.407,0.062-1.723,0.146V197.195L160.008,197.195z"/>
	<path d="M171.181,190.204v8.377c0,3.17,1.406,4.515,3.297,4.515c2.1,0,3.443-1.387,3.443-4.515v-8.377h1.848v8.251
		c0,4.346-2.289,6.131-5.354,6.131c-2.898,0-5.082-1.658-5.082-6.047v-8.335H171.181z"/>
</g>
<g>
	<rect x="261.465" y="185.494" fill="none" width="62.373" height="32.896"/>
	<path d="M270.285,202.535c0.048-0.793,0.096-1.969,0.096-3v-14.041h2.089v7.297h0.049c0.744-1.297,2.088-2.137,3.959-2.137
		c2.881,0,4.922,2.4,4.896,5.928c0,4.152-2.616,6.217-5.208,6.217c-1.681,0-3.024-0.647-3.89-2.184h-0.071l-0.097,1.92H270.285
		L270.285,202.535z M272.469,197.876c0,0.265,0.048,0.528,0.097,0.769c0.408,1.464,1.631,2.472,3.168,2.472
		c2.207,0,3.527-1.8,3.527-4.464c0-2.327-1.199-4.319-3.455-4.319c-1.44,0-2.785,0.983-3.218,2.592
		c-0.048,0.24-0.118,0.527-0.118,0.863L272.469,197.876L272.469,197.876z"/>
	<path d="M290.468,202.535l-0.168-1.465h-0.072c-0.646,0.912-1.896,1.729-3.552,1.729c-2.353,0-3.553-1.655-3.553-3.336
		c0-2.808,2.496-4.344,6.983-4.319v-0.24c0-0.96-0.264-2.688-2.64-2.688c-1.079,0-2.208,0.336-3.024,0.865l-0.479-1.393
		c0.961-0.624,2.353-1.032,3.815-1.032c3.554,0,4.418,2.425,4.418,4.753v4.344c0,1.008,0.048,1.992,0.191,2.783H290.468
		L290.468,202.535z M290.157,196.605c-2.305-0.048-4.922,0.359-4.922,2.616c0,1.368,0.912,2.017,1.992,2.017
		c1.514,0,2.474-0.96,2.81-1.943c0.071-0.217,0.12-0.457,0.12-0.672V196.605z"/>
	<path d="M295.315,200.375c0.625,0.408,1.729,0.84,2.785,0.84c1.535,0,2.256-0.769,2.256-1.729c0-1.008-0.601-1.561-2.16-2.136
		c-2.088-0.744-3.071-1.896-3.071-3.288c0-1.872,1.513-3.408,4.008-3.408c1.177,0,2.208,0.336,2.856,0.721l-0.528,1.535
		c-0.456-0.287-1.296-0.672-2.376-0.672c-1.248,0-1.943,0.721-1.943,1.584c0,0.961,0.695,1.393,2.207,1.969
		c2.018,0.768,3.049,1.775,3.049,3.504c0,2.039-1.584,3.479-4.345,3.479c-1.271,0-2.448-0.312-3.264-0.792L295.315,200.375z"/>
	<path d="M305.108,185.492h2.111v7.25h0.049c0.336-0.601,0.863-1.129,1.513-1.488c0.624-0.36,1.368-0.601,2.159-0.601
		c1.561,0,4.057,0.96,4.057,4.968v6.914h-2.111v-6.673c0-1.873-0.695-3.457-2.688-3.457c-1.368,0-2.448,0.96-2.832,2.112
		c-0.12,0.288-0.145,0.6-0.145,1.008v7.01h-2.113V185.492L305.108,185.492z"/>
</g>
<g>
	<rect x="220.285" y="290.968" fill="none" width="62.373" height="32.895"/>
	<path d="M244.716,307.576c-0.553,0.287-1.775,0.672-3.337,0.672c-3.504,0-5.784-2.377-5.784-5.93c0-3.576,2.448-6.168,6.24-6.168
		c1.248,0,2.354,0.312,2.93,0.6l-0.48,1.633c-0.504-0.288-1.297-0.553-2.448-0.553c-2.664,0-4.104,1.969-4.104,4.394
		c0,2.688,1.729,4.345,4.033,4.345c1.199,0,1.992-0.312,2.592-0.576L244.716,307.576z"/>
	<path d="M246.899,305.848c0.623,0.407,1.729,0.839,2.783,0.839c1.536,0,2.258-0.768,2.258-1.729c0-1.008-0.602-1.561-2.16-2.137
		c-2.09-0.744-3.072-1.896-3.072-3.287c0-1.873,1.512-3.408,4.008-3.408c1.178,0,2.208,0.336,2.855,0.72l-0.527,1.536
		c-0.456-0.289-1.296-0.672-2.376-0.672c-1.248,0-1.944,0.721-1.944,1.584c0,0.961,0.696,1.393,2.209,1.969
		c2.017,0.77,3.049,1.775,3.049,3.505c0,2.038-1.584,3.479-4.346,3.479c-1.271,0-2.447-0.312-3.264-0.793L246.899,305.848z"/>
	<path d="M256.69,290.966h2.113v7.248h0.047c0.336-0.601,0.864-1.129,1.514-1.487c0.623-0.36,1.367-0.601,2.16-0.601
		c1.56,0,4.056,0.959,4.056,4.969v6.912h-2.11v-6.672c0-1.873-0.697-3.457-2.688-3.457c-1.368,0-2.448,0.959-2.832,2.111
		c-0.12,0.289-0.146,0.602-0.146,1.008v7.01h-2.111v-17.041H256.69z"/>
</g>
<g>
	<rect x="6.417" y="185.494" fill="none" width="62.373" height="32.896"/>
	<path d="M21.212,187.582v3.336h3.024v1.607h-3.024v6.266c0,1.439,0.408,2.256,1.585,2.256c0.552,0,0.96-0.072,1.224-0.145
		l0.096,1.584c-0.407,0.168-1.056,0.288-1.872,0.288c-0.983,0-1.775-0.312-2.28-0.888c-0.6-0.624-0.815-1.656-0.815-3.024v-6.336
		h-1.801v-1.608h1.801v-2.783L21.212,187.582z"/>
	<path d="M34.75,202.102c-0.553,0.288-1.776,0.672-3.337,0.672c-3.504,0-5.784-2.376-5.784-5.929c0-3.576,2.448-6.168,6.24-6.168
		c1.248,0,2.353,0.312,2.929,0.6l-0.48,1.633c-0.504-0.289-1.296-0.553-2.448-0.553c-2.664,0-4.104,1.969-4.104,4.393
		c0,2.688,1.729,4.344,4.033,4.344c1.199,0,1.992-0.311,2.592-0.575L34.75,202.102z"/>
	<path d="M36.933,200.375c0.624,0.408,1.729,0.84,2.784,0.84c1.536,0,2.257-0.769,2.257-1.729c0-1.008-0.601-1.561-2.16-2.136
		c-2.089-0.744-3.072-1.896-3.072-3.288c0-1.872,1.512-3.408,4.008-3.408c1.177,0,2.208,0.336,2.856,0.721l-0.528,1.535
		c-0.456-0.287-1.296-0.672-2.376-0.672c-1.248,0-1.944,0.721-1.944,1.584c0,0.961,0.696,1.393,2.208,1.969
		c2.017,0.768,3.049,1.775,3.049,3.504c0,2.039-1.584,3.479-4.345,3.479c-1.271,0-2.448-0.312-3.264-0.792L36.933,200.375z"/>
	<path d="M46.725,185.492h2.112v7.25h0.048c0.336-0.601,0.864-1.129,1.513-1.488c0.624-0.36,1.368-0.601,2.16-0.601
		c1.56,0,4.056,0.96,4.056,4.968v6.914h-2.111v-6.673c0-1.873-0.696-3.457-2.688-3.457c-1.368,0-2.448,0.96-2.832,2.112
		c-0.12,0.288-0.145,0.6-0.145,1.008v7.01h-2.112L46.725,185.492L46.725,185.492z"/>
</g>
<g>
	<rect x="45.953" y="290.968" fill="none" width="62.373" height="32.895"/>
	<path d="M61.023,306.783l5.257-6.84c0.504-0.625,0.984-1.177,1.512-1.801v-0.049h-6.288v-1.703h8.856l-0.023,1.32l-5.185,6.744
		c-0.48,0.647-0.96,1.225-1.488,1.824v0.047h6.793v1.682h-9.434V306.783z"/>
	<path d="M72.327,305.848c0.624,0.407,1.729,0.839,2.784,0.839c1.536,0,2.257-0.768,2.257-1.729c0-1.008-0.601-1.561-2.16-2.137
		c-2.089-0.744-3.072-1.896-3.072-3.287c0-1.873,1.512-3.408,4.008-3.408c1.177,0,2.208,0.336,2.856,0.72l-0.528,1.536
		c-0.456-0.289-1.296-0.672-2.376-0.672c-1.248,0-1.944,0.721-1.944,1.584c0,0.961,0.696,1.393,2.208,1.969
		c2.017,0.77,3.049,1.775,3.049,3.505c0,2.038-1.584,3.479-4.345,3.479c-1.271,0-2.448-0.312-3.264-0.793L72.327,305.848z"/>
	<path d="M82.119,290.966h2.112v7.248h0.048c0.336-0.601,0.864-1.129,1.513-1.487c0.624-0.36,1.368-0.601,2.16-0.601
		c1.56,0,4.056,0.959,4.056,4.969v6.912h-2.111v-6.672c0-1.873-0.696-3.457-2.688-3.457c-1.368,0-2.448,0.959-2.832,2.111
		c-0.12,0.289-0.145,0.602-0.145,1.008v7.01H82.12L82.119,290.966L82.119,290.966z"/>
</g>
</svg>
