<?xml version="1.0" encoding="us-ascii" standalone="no"?><svg xmlns="http://www.w3.org/2000/svg" xmlns:xlink="http://www.w3.org/1999/xlink" contentStyleType="text/css" height="407px" preserveAspectRatio="none" style="width:252px;height:407px;background:#FFFFFF;" version="1.1" viewBox="0 0 252 407" width="252px" zoomAndPan="magnify"><defs/><g><g id="elem_London"><rect fill="#F1F1F1" height="38.6211" style="stroke:#181818;stroke-width:0.5;" width="62" x="184.5" y="135.5"/><text fill="#000000" font-family="sans-serif" font-size="14" lengthAdjust="spacing" textLength="48" x="191.5" y="152.6074">London</text><line style="stroke:#181818;stroke-width:0.5;" x1="185.5" x2="245.5" y1="158.1211" y2="158.1211"/></g><g id="elem_Washington"><rect fill="#F1F1F1" height="38.6211" style="stroke:#181818;stroke-width:0.5;" width="89" x="7" y="264"/><text fill="#000000" font-family="sans-serif" font-size="14" lengthAdjust="spacing" textLength="75" x="14" y="281.1074">Washington</text><line style="stroke:#181818;stroke-width:0.5;" x1="8" x2="95" y1="286.6211" y2="286.6211"/></g><g id="elem_Berlin"><rect fill="#F1F1F1" height="38.6211" style="stroke:#181818;stroke-width:0.5;" width="50" x="124.5" y="363"/><text fill="#000000" font-family="sans-serif" font-size="14" lengthAdjust="spacing" textLength="36" x="131.5" y="380.1074">Berlin</text><line style="stroke:#181818;stroke-width:0.5;" x1="125.5" x2="173.5" y1="385.6211" y2="385.6211"/></g><g id="elem_NewYork"><rect fill="#F1F1F1" height="38.6211" style="stroke:#181818;stroke-width:0.5;" width="69" x="66" y="7"/><text fill="#000000" font-family="sans-serif" font-size="14" lengthAdjust="spacing" textLength="55" x="73" y="24.1074">NewYork</text><line style="stroke:#181818;stroke-width:0.5;" x1="67" x2="134" y1="29.6211" y2="29.6211"/></g><g id="elem_CapitalCity"><rect fill="#F1F1F1" height="90.4844" style="stroke:#181818;stroke-width:0.5;" width="82" x="59.5" y="110"/><text fill="#000000" font-family="sans-serif" font-size="14" lengthAdjust="spacing" textLength="68" x="66.5" y="127.1074">CapitalCity</text><line style="stroke:#181818;stroke-width:1.0;" x1="59.5" x2="141.5" y1="132.6211" y2="132.6211"/><text fill="#000000" font-family="sans-serif" font-size="14" lengthAdjust="spacing" textLength="18" x="91.5" y="149.7285">UK</text><line style="stroke:#181818;stroke-width:1.0;" x1="59.5" x2="141.5" y1="155.2422" y2="155.2422"/><text fill="#000000" font-family="sans-serif" font-size="14" lengthAdjust="spacing" textLength="27" x="87" y="172.3496">USA</text><line style="stroke:#181818;stroke-width:1.0;" x1="59.5" x2="141.5" y1="177.8633" y2="177.8633"/><text fill="#000000" font-family="sans-serif" font-size="14" lengthAdjust="spacing" textLength="58" x="71.5" y="194.9707">Germany</text></g><!--link CapitalCity to London--><g id="link_CapitalCity_London"><path d="M142.5,143 C156.31,150.24 165.6409,154.9569 178.4309,158.5269 " fill="none" id="CapitalCity-to-London" style="stroke:#181818;stroke-width:1.0;"/><polygon fill="#181818" points="184.21,160.14,176.6167,153.8676,179.3941,158.7958,174.466,161.5731,184.21,160.14" style="stroke:#181818;stroke-width:1.0;"/></g><!--link CapitalCity to Washington--><g id="link_CapitalCity_Washington"><path d="M58.5,166 C19.8,166 33.1763,225.1182 43.3663,258.0482 " fill="none" id="CapitalCity-to-Washington" style="stroke:#181818;stroke-width:1.0;"/><polygon fill="#181818" points="45.14,263.78,46.3007,253.9998,43.6619,259.0035,38.6582,256.3647,45.14,263.78" style="stroke:#181818;stroke-width:1.0;"/></g><!--link CapitalCity to Berlin--><g id="link_CapitalCity_Berlin"><path d="M142.5,188 C177.29,188 161.3479,308.5853 153.5979,357.0253 " fill="none" id="CapitalCity-to-Berlin" style="stroke:#181818;stroke-width:1.0;"/><polygon fill="#181818" points="152.65,362.95,158.0216,354.695,153.4399,358.0128,150.1221,353.4311,152.65,362.95" style="stroke:#181818;stroke-width:1.0;"/></g><!--link NewYork to CapitalCity--><g id="link_NewYork_CapitalCity"><path codeLine="12" d="M114.05,46.18 C140.44,83.98 198,166 148.5,166 " fill="none" id="NewYork-to-CapitalCity" style="stroke:#181818;stroke-width:1.0;"/><polygon fill="#181818" points="142.5,166,151.5,170,147.5,166,151.5,162,142.5,166" style="stroke:#181818;stroke-width:1.0;"/></g><!--SRC=[oq_AIaqkKV39pql9p-FAX_324uipClFIIn0YJgb5EPbmdbzgUMH-KJONLsvYWO9pOa5cIMAESsP9fK8rbqAejuAMhXtCG8NGO4SW7oY0PAQ2UsfHRc9U9KW2A0CrkvQB2sgk0aWKoLWhAw0f0000]--></g></svg>