<?xml version="1.0" encoding="us-ascii" standalone="no"?><svg xmlns="http://www.w3.org/2000/svg" xmlns:xlink="http://www.w3.org/1999/xlink" contentStyleType="text/css" height="104px" preserveAspectRatio="none" style="width:271px;height:104px;background:#FFFFFF;" version="1.1" viewBox="0 0 271 104" width="271px" zoomAndPan="magnify"><defs/><g><g id="elem_London"><rect fill="#F1F1F1" height="38.6211" style="stroke:#181818;stroke-width:0.5;" width="62" x="203.5" y="32.5"/><text fill="#000000" font-family="sans-serif" font-size="14" lengthAdjust="spacing" textLength="48" x="210.5" y="49.6074">London</text><line style="stroke:#181818;stroke-width:0.5;" x1="204.5" x2="264.5" y1="55.1211" y2="55.1211"/></g><g id="elem_CapitalCity"><rect fill="#F1F1F1" height="90.4844" style="stroke:#181818;stroke-width:0.5;" width="153" x="7" y="7"/><text fill="#000000" font-family="sans-serif" font-size="14" lengthAdjust="spacing" textLength="68" x="49.5" y="24.1074">CapitalCity</text><line style="stroke:#181818;stroke-width:1.0;" x1="7" x2="160" y1="29.6211" y2="29.6211"/><text fill="#000000" font-family="sans-serif" font-size="14" lengthAdjust="spacing" textLength="18" x="74.5" y="46.7285">UK</text><line style="stroke:#181818;stroke-width:1.0;" x1="7" x2="160" y1="52.2422" y2="52.2422"/><text fill="#000000" font-family="sans-serif" font-size="14" lengthAdjust="spacing" textLength="27" x="27.5" y="69.3496">USA</text><text fill="#000000" font-family="sans-serif" font-size="14" lengthAdjust="spacing" textLength="75" x="80" y="69.3496">Washington</text><line style="stroke:#181818;stroke-width:1.0;" x1="75" x2="75" y1="52.2422" y2="74.8633"/><line style="stroke:#181818;stroke-width:1.0;" x1="7" x2="160" y1="74.8633" y2="74.8633"/><text fill="#000000" font-family="sans-serif" font-size="14" lengthAdjust="spacing" textLength="58" x="12" y="91.9707">Germany</text><text fill="#000000" font-family="sans-serif" font-size="14" lengthAdjust="spacing" textLength="36" x="80" y="91.9707">Berlin</text><line style="stroke:#181818;stroke-width:1.0;" x1="75" x2="75" y1="74.8633" y2="97.4844"/></g><!--link CapitalCity to London--><g id="link_CapitalCity_London"><path d="M161.5,40 C175.31,47.24 184.6409,51.9569 197.4309,55.5269 " fill="none" id="CapitalCity-to-London" style="stroke:#181818;stroke-width:1.0;"/><polygon fill="#181818" points="203.21,57.14,195.6167,50.8676,198.3941,55.7958,193.466,58.5731,203.21,57.14" style="stroke:#181818;stroke-width:1.0;"/></g><!--SRC=[oq_AIaqkKV39pql9p-FYoaqiK71EBCWiISnnpYofLAZcKWZrLj3IjOEfK0WDTbImjLC8JopEoCnBBm49kQSMvIRcLOA4dLABSZBpk6e1]--></g></svg>