<?xml version="1.0" encoding="us-ascii" standalone="no"?><svg xmlns="http://www.w3.org/2000/svg" xmlns:xlink="http://www.w3.org/1999/xlink" contentStyleType="text/css" height="281px" preserveAspectRatio="none" style="width:124px;height:281px;background:#FFFFFF;" version="1.1" viewBox="0 0 124 281" width="124px" zoomAndPan="magnify"><defs/><g><!--cluster foo--><g id="cluster_foo"><path d="M10.5,166.0137 L34.5,166.0137 A3.75,3.75 0 0 1 37,168.5137 L44,190.6348 L108.5,190.6348 A2.5,2.5 0 0 1 111,193.1348 L111,271.5137 A2.5,2.5 0 0 1 108.5,274.0137 L10.5,274.0137 A2.5,2.5 0 0 1 8,271.5137 L8,168.5137 A2.5,2.5 0 0 1 10.5,166.0137 " fill="none" style="stroke:#000000;stroke-width:1.5;"/><line style="stroke:#000000;stroke-width:1.5;" x1="8" x2="44" y1="190.6348" y2="190.6348"/><text fill="#000000" font-family="sans-serif" font-size="14" font-weight="bold" lengthAdjust="spacing" textLength="23" x="12" y="183.1211">foo</text></g><!--cluster bar--><g id="cluster_bar"><path d="M8.5,6.0137 L32.5,6.0137 A3.75,3.75 0 0 1 35,8.5137 L42,30.6348 L89.5,30.6348 A2.5,2.5 0 0 1 92,33.1348 L92,131.5137 A2.5,2.5 0 0 1 89.5,134.0137 L8.5,134.0137 A2.5,2.5 0 0 1 6,131.5137 L6,8.5137 A2.5,2.5 0 0 1 8.5,6.0137 " fill="none" style="stroke:#000000;stroke-width:1.5;"/><line style="stroke:#000000;stroke-width:1.5;" x1="6" x2="42" y1="30.6348" y2="30.6348"/><text fill="#000000" font-family="sans-serif" font-size="14" font-weight="bold" lengthAdjust="spacing" textLength="23" x="10" y="23.1211">bar</text></g><g id="elem_baz"><rect fill="#F1F1F1" height="38.6211" style="stroke:#181818;stroke-width:0.5;" width="36" x="51" y="211.0137"/><text fill="#000000" font-family="sans-serif" font-size="14" lengthAdjust="spacing" textLength="22" x="58" y="228.1211">baz</text><line style="stroke:#181818;stroke-width:0.5;" x1="52" x2="86" y1="233.6348" y2="233.6348"/></g><g id="elem_A"><rect fill="#F1F1F1" height="67.8633" style="stroke:#181818;stroke-width:0.5;" width="32" x="33" y="47.0137"/><text fill="#000000" font-family="sans-serif" font-size="14" lengthAdjust="spacing" textLength="9" x="44.5" y="64.1211">A</text><line style="stroke:#181818;stroke-width:1.0;" x1="33" x2="65" y1="69.6348" y2="69.6348"/><text fill="#000000" font-family="sans-serif" font-size="14" lengthAdjust="spacing" textLength="8" x="45" y="86.7422">b</text><line style="stroke:#181818;stroke-width:1.0;" x1="33" x2="65" y1="92.2559" y2="92.2559"/><text fill="#000000" font-family="sans-serif" font-size="14" lengthAdjust="spacing" textLength="7" x="38.5" y="109.3633">c</text><text fill="#000000" font-family="sans-serif" font-size="14" lengthAdjust="spacing" textLength="4" x="56" y="109.3633">&#160;</text><line style="stroke:#181818;stroke-width:1.0;" x1="51" x2="51" y1="92.2559" y2="114.877"/></g><!--link A to baz--><g id="link_A_baz"><path d="M66,80.5137 C117.62,80.5137 92.65,165.3611 78.21,205.3011 " fill="none" id="A-to-baz" style="stroke:#181818;stroke-width:1.0;"/><polygon fill="#181818" points="76.17,210.9437,82.9917,203.8399,77.87,206.2416,75.4683,201.1198,76.17,210.9437" style="stroke:#181818;stroke-width:1.0;"/></g><!--link A to foo--><g id="link_A_foo"><path codeLine="12" d="M49,115.5137 C49,132.0637 40.05,134.2537 35,150.0137 C33.6575,154.2037 32.3616,158.5446 31.1206,162.9385 C30.9655,163.4877 30.8112,164.0378 30.6578,164.5885 C30.5811,164.8638 30.5046,165.1394 30.4284,165.415 C30.3903,165.5528 31.9469,159.9065 31.9089,160.0444 " fill="none" id="A-to-foo" style="stroke:#181818;stroke-width:1.0;"/><polygon fill="#181818" points="30.3142,165.8286,36.5624,158.2155,31.6431,161.0084,28.8502,156.0891,30.3142,165.8286" style="stroke:#181818;stroke-width:1.0;"/></g><!--SRC=[AqXCpavCJrL8oyzNgEPI08ByfApKv1A5fCGghbekhWAeV59Y4LG-Dx50mH7A1e4a1IrTEv1-FP0Mc6YoWgqTc5CBCiNHoYfPGHUY3000]--></g></svg>