<?xml version="1.0" encoding="us-ascii" standalone="no"?><svg xmlns="http://www.w3.org/2000/svg" xmlns:xlink="http://www.w3.org/1999/xlink" contentStyleType="text/css" height="323px" preserveAspectRatio="none" style="width:130px;height:323px;background:#FFFFFF;" version="1.1" viewBox="0 0 130 323" width="130px" zoomAndPan="magnify"><defs/><g><g id="elem_Foo"><rect fill="#F1F1F1" height="38.6211" style="stroke:#181818;stroke-width:0.5;" width="39" x="12" y="7"/><text fill="#000000" font-family="sans-serif" font-size="14" lengthAdjust="spacing" textLength="25" x="19" y="24.1074">Foo</text><line style="stroke:#181818;stroke-width:0.5;" x1="13" x2="50" y1="29.6211" y2="29.6211"/></g><g id="elem_Bar"><rect fill="#F1F1F1" height="67.8633" style="stroke:#181818;stroke-width:0.5;" width="47" x="7" y="129"/><text fill="#000000" font-family="sans-serif" font-size="14" lengthAdjust="spacing" textLength="22" x="19.5" y="146.1074">Bar</text><line style="stroke:#181818;stroke-width:1.0;" x1="7" x2="54" y1="151.6211" y2="151.6211"/><text fill="#000000" font-family="sans-serif" font-size="14" lengthAdjust="spacing" textLength="23" x="12" y="168.7285">abc</text><text fill="#000000" font-family="sans-serif" font-size="14" lengthAdjust="spacing" textLength="4" x="45" y="168.7285">&#160;</text><line style="stroke:#181818;stroke-width:1.0;" x1="40" x2="40" y1="151.6211" y2="174.2422"/><line style="stroke:#181818;stroke-width:1.0;" x1="7" x2="54" y1="174.2422" y2="174.2422"/><text fill="#000000" font-family="sans-serif" font-size="14" lengthAdjust="spacing" textLength="20" x="13.5" y="191.3496">def</text><text fill="#000000" font-family="sans-serif" font-size="14" lengthAdjust="spacing" textLength="4" x="45" y="191.3496">&#160;</text><line style="stroke:#181818;stroke-width:1.0;" x1="40" x2="40" y1="174.2422" y2="196.8633"/></g><g id="elem_Baz"><rect fill="#F1F1F1" height="38.6211" style="stroke:#181818;stroke-width:0.5;" width="37" x="13" y="279"/><text fill="#000000" font-family="sans-serif" font-size="14" lengthAdjust="spacing" textLength="23" x="20" y="296.1074">Baz</text><line style="stroke:#181818;stroke-width:0.5;" x1="14" x2="49" y1="301.6211" y2="301.6211"/></g><!--link Bar to Baz--><g id="link_Bar_Baz"><path codeLine="8" d="M55.5,162.5 C102.16,162.5 66.231,236.3946 45.461,273.4946 " fill="none" id="Bar-to-Baz" style="stroke:#181818;stroke-width:1.0;"/><polygon fill="#181818" points="42.53,278.73,50.4167,272.8309,44.9725,274.3672,43.4362,268.9229,42.53,278.73" style="stroke:#181818;stroke-width:1.0;"/><text fill="#000000" font-family="sans-serif" font-size="13" lengthAdjust="spacing" textLength="56" x="66.5" y="245.0283">Label one</text></g><!--link Foo to Bar--><g id="link_Foo_Bar"><path codeLine="9" d="M42.07,46.25 C64.67,88.1 117.27,185.5 61.5,185.5 " fill="none" id="Foo-to-Bar" style="stroke:#181818;stroke-width:1.0;"/><polygon fill="#181818" points="55.5,185.5,64.5,189.5,60.5,185.5,64.5,181.5,55.5,185.5" style="stroke:#181818;stroke-width:1.0;"/><text fill="#000000" font-family="sans-serif" font-size="13" lengthAdjust="spacing" textLength="55" x="64.5" y="91.0283">Label two</text></g><!--SRC=[oq_AIaqkKN3Bp-VAJInGS4eiKgZcKb18J4gsjGFIAQbfGBgMAn-Yp2cnYeiBgCRA2gX0GLVN3YIYOANWavYKcgEGdvVA1JG8AWvK1DGDbomfpmS0]--></g></svg>