<?xml version="1.0" encoding="us-ascii" standalone="no"?><svg xmlns="http://www.w3.org/2000/svg" xmlns:xlink="http://www.w3.org/1999/xlink" contentStyleType="text/css" height="234px" preserveAspectRatio="none" style="width:108px;height:234px;background:#FFFFFF;" version="1.1" viewBox="0 0 108 234" width="108px" zoomAndPan="magnify"><defs/><g><g id="elem_o1"><rect fill="#F1F1F1" height="38.6211" style="stroke:#181818;stroke-width:0.5;" width="30" x="7" y="7"/><text fill="#000000" font-family="sans-serif" font-size="14" lengthAdjust="spacing" textLength="16" x="14" y="24.1074">o1</text><line style="stroke:#181818;stroke-width:0.5;" x1="8" x2="36" y1="29.6211" y2="29.6211"/></g><g id="elem_o2"><rect fill="#F1F1F1" height="38.6211" style="stroke:#181818;stroke-width:0.5;" width="30" x="72" y="7"/><text fill="#000000" font-family="sans-serif" font-size="14" lengthAdjust="spacing" textLength="16" x="79" y="24.1074">o2</text><line style="stroke:#181818;stroke-width:0.5;" x1="73" x2="101" y1="29.6211" y2="29.6211"/></g><g id="elem_dia"><polygon fill="#F1F1F1" points="54,106,66,118,54,130,42,118,54,106" style="stroke:#181818;stroke-width:0.5;"/></g><g id="elem_o3"><rect fill="#F1F1F1" height="38.6211" style="stroke:#181818;stroke-width:0.5;" width="30" x="39" y="190"/><text fill="#000000" font-family="sans-serif" font-size="14" lengthAdjust="spacing" textLength="16" x="46" y="207.1074">o3</text><line style="stroke:#181818;stroke-width:0.5;" x1="40" x2="68" y1="212.6211" y2="212.6211"/></g><!--link o1 to dia--><g id="link_o1_dia"><path codeLine="6" d="M28.63,46.04 C35.51,65.3 43.95,88.8903 49.02,103.0703 " fill="none" id="o1-to-dia" style="stroke:#181818;stroke-width:1.0;"/><polygon fill="#181818" points="51.04,108.72,51.7764,98.8987,49.3566,104.0119,44.2435,101.5921,51.04,108.72" style="stroke:#181818;stroke-width:1.0;"/></g><!--link o2 to dia--><g id="link_o2_dia"><path codeLine="7" d="M80.16,46.04 C73.06,65.3 64.3563,88.9107 59.1263,103.0907 " fill="none" id="o2-to-dia" style="stroke:#181818;stroke-width:1.0;"/><polygon fill="#181818" points="57.05,108.72,63.9173,101.6602,58.7802,104.0289,56.4115,98.8919,57.05,108.72" style="stroke:#181818;stroke-width:1.0;"/></g><!--link dia to o3--><g id="link_dia_o3"><path codeLine="8" d="M54,130.34 C54,145.29 54,165.82 54,183.78 " fill="none" id="dia-to-o3" style="stroke:#181818;stroke-width:1.0;"/><polygon fill="#181818" points="54,189.78,58,180.78,54,184.78,50,180.78,54,189.78" style="stroke:#181818;stroke-width:1.0;"/></g><!--SRC=[oq_AIaqkKSWtvCg7ieouKZ8JS_FpKXI0D5pKc8ihtr11GLVN3Y9iX603CPYTRmm0]--></g></svg>