<?xml version="1.0" encoding="us-ascii" standalone="no"?><svg xmlns="http://www.w3.org/2000/svg" xmlns:xlink="http://www.w3.org/1999/xlink" contentStyleType="text/css" height="169px" preserveAspectRatio="none" style="width:439px;height:169px;background:#FFFFFF;" version="1.1" viewBox="0 0 439 169" width="439px" zoomAndPan="magnify"><defs/><g><g id="elem_Object01"><rect fill="#F1F1F1" height="38.6211" style="stroke:#181818;stroke-width:0.5;" width="71" x="7" y="7"/><text fill="#000000" font-family="sans-serif" font-size="14" lengthAdjust="spacing" textLength="57" x="14" y="24.1074">Object01</text><line style="stroke:#181818;stroke-width:0.5;" x1="8" x2="77" y1="29.6211" y2="29.6211"/></g><g id="elem_Object02"><rect fill="#F1F1F1" height="38.6211" style="stroke:#181818;stroke-width:0.5;" width="71" x="7" y="125"/><text fill="#000000" font-family="sans-serif" font-size="14" lengthAdjust="spacing" textLength="57" x="14" y="142.1074">Object02</text><line style="stroke:#181818;stroke-width:0.5;" x1="8" x2="77" y1="147.6211" y2="147.6211"/></g><g id="elem_Object03"><rect fill="#F1F1F1" height="38.6211" style="stroke:#181818;stroke-width:0.5;" width="71" x="113" y="7"/><text fill="#000000" font-family="sans-serif" font-size="14" lengthAdjust="spacing" textLength="57" x="120" y="24.1074">Object03</text><line style="stroke:#181818;stroke-width:0.5;" x1="114" x2="183" y1="29.6211" y2="29.6211"/></g><g id="elem_Object04"><rect fill="#F1F1F1" height="38.6211" style="stroke:#181818;stroke-width:0.5;" width="71" x="113" y="125"/><text fill="#000000" font-family="sans-serif" font-size="14" lengthAdjust="spacing" textLength="57" x="120" y="142.1074">Object04</text><line style="stroke:#181818;stroke-width:0.5;" x1="114" x2="183" y1="147.6211" y2="147.6211"/></g><g id="elem_Object05"><rect fill="#F1F1F1" height="38.6211" style="stroke:#181818;stroke-width:0.5;" width="71" x="219" y="7"/><text fill="#000000" font-family="sans-serif" font-size="14" lengthAdjust="spacing" textLength="57" x="226" y="24.1074">Object05</text><line style="stroke:#181818;stroke-width:0.5;" x1="220" x2="289" y1="29.6211" y2="29.6211"/></g><g id="elem_Object06"><rect fill="#F1F1F1" height="38.6211" style="stroke:#181818;stroke-width:0.5;" width="71" x="219" y="125"/><text fill="#000000" font-family="sans-serif" font-size="14" lengthAdjust="spacing" textLength="57" x="226" y="142.1074">Object06</text><line style="stroke:#181818;stroke-width:0.5;" x1="220" x2="289" y1="147.6211" y2="147.6211"/></g><g id="elem_Object07"><rect fill="#F1F1F1" height="38.6211" style="stroke:#181818;stroke-width:0.5;" width="71" x="325" y="7"/><text fill="#000000" font-family="sans-serif" font-size="14" lengthAdjust="spacing" textLength="57" x="332" y="24.1074">Object07</text><line style="stroke:#181818;stroke-width:0.5;" x1="326" x2="395" y1="29.6211" y2="29.6211"/></g><g id="elem_Object08"><rect fill="#F1F1F1" height="38.6211" style="stroke:#181818;stroke-width:0.5;" width="71" x="325" y="125"/><text fill="#000000" font-family="sans-serif" font-size="14" lengthAdjust="spacing" textLength="57" x="332" y="142.1074">Object08</text><line style="stroke:#181818;stroke-width:0.5;" x1="326" x2="395" y1="147.6211" y2="147.6211"/></g><!--reverse link Object01 to Object02--><g id="link_Object01_Object02"><path codeLine="10" d="M42.5,64.14 C42.5,85.78 42.5,103.28 42.5,124.91 " fill="none" id="Object01-backto-Object02" style="stroke:#181818;stroke-width:1.0;"/><polygon fill="none" points="42.5,46.14,36.5,64.14,48.5,64.14,42.5,46.14" style="stroke:#181818;stroke-width:1.0;"/></g><!--reverse link Object03 to Object04--><g id="link_Object03_Object04"><path codeLine="11" d="M148.5,58.14 C148.5,79.78 148.5,103.28 148.5,124.91 " fill="none" id="Object03-backto-Object04" style="stroke:#181818;stroke-width:1.0;"/><polygon fill="#181818" points="148.5,46.14,144.5,52.14,148.5,58.14,152.5,52.14,148.5,46.14" style="stroke:#181818;stroke-width:1.0;"/></g><!--reverse link Object05 to Object06--><g id="link_Object05_Object06"><path codeLine="12" d="M254.5,58.14 C254.5,79.78 254.5,103.28 254.5,124.91 " fill="none" id="Object05-backto-Object06" style="stroke:#181818;stroke-width:1.0;"/><polygon fill="none" points="254.5,46.14,250.5,52.14,254.5,58.14,258.5,52.14,254.5,46.14" style="stroke:#181818;stroke-width:1.0;"/><text fill="#000000" font-family="sans-serif" font-size="13" lengthAdjust="spacing" textLength="7" x="246.4719" y="113.7853">4</text></g><!--link Object07 to Object08--><g id="link_Object07_Object08"><path codeLine="13" d="M360.5,46.14 C360.5,67.78 360.5,103.28 360.5,124.91 " fill="none" id="Object07-Object08" style="stroke:#181818;stroke-width:1.0;stroke-dasharray:7.0,7.0;"/><text fill="#000000" font-family="sans-serif" font-size="13" lengthAdjust="spacing" textLength="70" x="361.5" y="91.0283">some labels</text></g><!--SRC=[oq_AIaqkKV07KmQ6NFaeV2CqlZ4QtmIDRuh6DqFZcwFnBRYuO3OhsDJewYBiXLcee8KGDO69cYha0qMLJ9GGzi0iKD3JWnkkOALGd9-Rgf2Jc9IQKmm0]--></g></svg>