<?xml version="1.0" encoding="us-ascii" standalone="no"?><svg xmlns="http://www.w3.org/2000/svg" xmlns:xlink="http://www.w3.org/1999/xlink" contentStyleType="text/css" height="610px" preserveAspectRatio="none" style="width:555px;height:610px;background:#FFFFFF;" version="1.1" viewBox="0 0 555 610" width="555px" zoomAndPan="magnify"><defs/><g><!--cluster channels--><g id="cluster_channels"><path d="M8.5,6.0137 L132.5,6.0137 A3.75,3.75 0 0 1 135,8.5137 L142,30.6348 L223.5,30.6348 A2.5,2.5 0 0 1 226,33.1348 L226,354.5137 A2.5,2.5 0 0 1 223.5,357.0137 L8.5,357.0137 A2.5,2.5 0 0 1 6,354.5137 L6,8.5137 A2.5,2.5 0 0 1 8.5,6.0137 " fill="none" style="stroke:#000000;stroke-width:1.5;"/><line style="stroke:#000000;stroke-width:1.5;" x1="6" x2="142" y1="30.6348" y2="30.6348"/><text fill="#000000" font-family="sans-serif" font-size="14" font-weight="bold" lengthAdjust="spacing" textLength="123" x="10" y="23.1211">java.nio.channels</text></g><!--cluster spi--><g id="cluster_spi"><path d="M34.5,248.0137 L56.5,248.0137 A3.75,3.75 0 0 1 59,250.5137 L66,272.6348 L197.5,272.6348 A2.5,2.5 0 0 1 200,275.1348 L200,330.5137 A2.5,2.5 0 0 1 197.5,333.0137 L34.5,333.0137 A2.5,2.5 0 0 1 32,330.5137 L32,250.5137 A2.5,2.5 0 0 1 34.5,248.0137 " fill="none" style="stroke:#000000;stroke-width:1.5;"/><line style="stroke:#000000;stroke-width:1.5;" x1="32" x2="66" y1="272.6348" y2="272.6348"/><text fill="#000000" font-family="sans-serif" font-size="14" font-weight="bold" lengthAdjust="spacing" textLength="21" x="36" y="265.1211">spi</text></g><!--cluster nio--><g id="cluster_nio"><path d="M252.5,58.5137 L391.5,58.5137 A3.75,3.75 0 0 1 394,61.0137 L401,83.1348 L545.5,83.1348 A2.5,2.5 0 0 1 548,85.6348 L548,186.0137 A2.5,2.5 0 0 1 545.5,188.5137 L252.5,188.5137 A2.5,2.5 0 0 1 250,186.0137 L250,61.0137 A2.5,2.5 0 0 1 252.5,58.5137 " fill="none" style="stroke:#000000;stroke-width:1.5;"/><line style="stroke:#000000;stroke-width:1.5;" x1="250" x2="401" y1="83.1348" y2="83.1348"/><text fill="#000000" font-family="sans-serif" font-size="14" font-weight="bold" lengthAdjust="spacing" textLength="138" x="254" y="75.6211">io.netty.channel.nio</text></g><!--cluster ch--><g id="cluster_ch"><path d="M14.5,381.0137 L88.5,381.0137 A3.75,3.75 0 0 1 91,383.5137 L98,405.6348 L396.5,405.6348 A2.5,2.5 0 0 1 399,408.1348 L399,600.5137 A2.5,2.5 0 0 1 396.5,603.0137 L14.5,603.0137 A2.5,2.5 0 0 1 12,600.5137 L12,383.5137 A2.5,2.5 0 0 1 14.5,381.0137 " fill="none" style="stroke:#000000;stroke-width:1.5;"/><line style="stroke:#000000;stroke-width:1.5;" x1="12" x2="98" y1="405.6348" y2="405.6348"/><text fill="#000000" font-family="sans-serif" font-size="14" font-weight="bold" lengthAdjust="spacing" textLength="73" x="16" y="398.1211">sun.nio.ch</text></g><!--class Selector--><g id="elem_Selector"><rect codeLine="1" fill="#F1F1F1" height="182.3477" id="Selector" rx="2.5" ry="2.5" style="stroke:#181818;stroke-width:0.5;" width="187" x="22.5" y="43.0137"/><ellipse cx="85.75" cy="59.0137" fill="#A9DCDF" rx="11" ry="11" style="stroke:#181818;stroke-width:1.0;"/><path d="M86.1719,59.498 L83.6094,59.498 L83.0781,61.7949 Q83.0156,62.123 83.0156,62.2793 Q83.0156,62.498 83.0625,62.6543 Q83.125,62.8105 83.4063,62.8105 L83.875,62.8105 L83.875,63.748 L80.8906,63.748 L80.8906,62.8105 L81.3438,62.8105 Q81.5156,62.8105 81.6406,62.7168 Q81.7656,62.6074 81.8125,62.3105 L84.4531,51.9824 L85.8594,51.5137 L88.4375,62.2793 Q88.5469,62.5918 88.6719,62.7012 Q88.8125,62.8105 88.9844,62.8105 L89.4531,62.8105 L89.4531,63.748 L86.0625,63.748 L86.0625,62.8105 L86.5938,62.8105 Q86.8125,62.8105 86.8281,62.7637 Q86.8594,62.7012 86.8594,62.623 Q86.8594,62.4043 86.8125,62.2168 L86.1719,59.498 Z M81.6094,63.3418 L81.6094,63.3418 Z M82.2813,63.3418 L82.2813,63.3418 Z M87,63.3418 L87,63.3418 Z M88.125,63.3418 L88.125,63.3418 Z M84.9375,53.4043 L85,53.4043 L83.8906,58.5605 L85.9844,58.5605 L84.9375,53.4043 Z " fill="#000000"/><text fill="#000000" font-family="sans-serif" font-size="14" font-style="italic" lengthAdjust="spacing" textLength="52" x="106.25" y="64.8105">Selector</text><line style="stroke:#181818;stroke-width:0.5;" x1="23.5" x2="208.5" y1="75.0137" y2="75.0137"/><text fill="#000000" font-family="sans-serif" font-size="14" lengthAdjust="spacing" textLength="175" x="28.5" y="116.7422">provider(): SelectorProvider</text><line style="stroke:#181818;stroke-width:1.0;stroke-dasharray:1.0,2.0;" x1="23.5" x2="90" y1="92.3242" y2="92.3242"/><text fill="#000000" font-family="sans-serif" font-size="14" lengthAdjust="spacing" textLength="52" x="90" y="97.6211">provider</text><line style="stroke:#181818;stroke-width:1.0;stroke-dasharray:1.0,2.0;" x1="142" x2="208.5" y1="92.3242" y2="92.3242"/><text fill="#000000" font-family="sans-serif" font-size="14" lengthAdjust="spacing" textLength="70" x="28.5" y="157.9844">select(): int</text><text fill="#000000" font-family="sans-serif" font-size="14" lengthAdjust="spacing" textLength="96" x="28.5" y="176.6055">selectNow(): int</text><line style="stroke:#181818;stroke-width:1.0;stroke-dasharray:1.0,2.0;" x1="23.5" x2="97.5" y1="133.5664" y2="133.5664"/><text fill="#000000" font-family="sans-serif" font-size="14" lengthAdjust="spacing" textLength="37" x="97.5" y="138.8633">select</text><line style="stroke:#181818;stroke-width:1.0;stroke-dasharray:1.0,2.0;" x1="134.5" x2="208.5" y1="133.5664" y2="133.5664"/><text fill="#000000" font-family="sans-serif" font-size="14" lengthAdjust="spacing" textLength="123" x="28.5" y="217.8477">selectedKeys(): Set</text><line style="stroke:#181818;stroke-width:1.0;stroke-dasharray:1.0,2.0;" x1="23.5" x2="73" y1="193.4297" y2="193.4297"/><text fill="#000000" font-family="sans-serif" font-size="14" lengthAdjust="spacing" textLength="86" x="73" y="198.7266">selected keys</text><line style="stroke:#181818;stroke-width:1.0;stroke-dasharray:1.0,2.0;" x1="159" x2="208.5" y1="193.4297" y2="193.4297"/></g><!--class AbstractSelector--><g id="elem_AbstractSelector"><rect codeLine="1" fill="#F1F1F1" height="32" id="AbstractSelector" rx="2.5" ry="2.5" style="stroke:#181818;stroke-width:0.5;" width="136" x="48" y="285.0137"/><ellipse cx="63" cy="301.0137" fill="#A9DCDF" rx="11" ry="11" style="stroke:#181818;stroke-width:1.0;"/><path d="M63.4219,301.498 L60.8594,301.498 L60.3281,303.7949 Q60.2656,304.123 60.2656,304.2793 Q60.2656,304.498 60.3125,304.6543 Q60.375,304.8105 60.6563,304.8105 L61.125,304.8105 L61.125,305.748 L58.1406,305.748 L58.1406,304.8105 L58.5938,304.8105 Q58.7656,304.8105 58.8906,304.7168 Q59.0156,304.6074 59.0625,304.3105 L61.7031,293.9824 L63.1094,293.5137 L65.6875,304.2793 Q65.7969,304.5918 65.9219,304.7012 Q66.0625,304.8105 66.2344,304.8105 L66.7031,304.8105 L66.7031,305.748 L63.3125,305.748 L63.3125,304.8105 L63.8438,304.8105 Q64.0625,304.8105 64.0781,304.7637 Q64.1094,304.7012 64.1094,304.623 Q64.1094,304.4043 64.0625,304.2168 L63.4219,301.498 Z M58.8594,305.3418 L58.8594,305.3418 Z M59.5313,305.3418 L59.5313,305.3418 Z M64.25,305.3418 L64.25,305.3418 Z M65.375,305.3418 L65.375,305.3418 Z M62.1875,295.4043 L62.25,295.4043 L61.1406,300.5605 L63.2344,300.5605 L62.1875,295.4043 Z " fill="#000000"/><text fill="#000000" font-family="sans-serif" font-size="14" font-style="italic" lengthAdjust="spacing" textLength="104" x="77" y="306.8105">AbstractSelector</text></g><!--class SelectedSelectionKeySetSelector--><g id="elem_SelectedSelectionKeySetSelector"><rect codeLine="1" fill="#F1F1F1" height="77.2422" id="SelectedSelectionKeySetSelector" rx="2.5" ry="2.5" style="stroke:#181818;stroke-width:0.5;" width="265" x="266.5" y="95.5137"/><ellipse cx="291.85" cy="111.5137" fill="#ADD1B2" rx="11" ry="11" style="stroke:#181818;stroke-width:1.0;"/><path d="M291.1938,117.373 Q289.2094,117.373 288.0375,115.9043 Q286.8813,114.4199 286.8813,111.3418 Q286.8813,108.7324 288.1,106.9824 Q289.3344,105.2324 291.4594,105.2324 Q291.9594,105.2324 292.4906,105.373 Q292.9281,105.5605 293.1938,105.5605 Q293.4125,105.5605 293.5063,105.5137 Q293.6156,105.4668 294.0688,104.873 L294.8344,108.6074 L293.9438,108.873 Q293.4906,107.4199 292.8813,106.8262 Q292.2875,106.2168 291.3344,106.2168 Q290.1156,106.2168 289.3969,107.6543 Q288.6781,109.0762 288.6781,111.2637 Q288.6781,113.6699 289.2875,114.9668 Q289.9125,116.248 291.2719,116.248 Q292.225,116.248 292.9125,115.5605 Q293.6,114.8574 293.9281,113.3574 L294.8344,113.7637 Q294.4281,115.4668 293.4594,116.4199 Q292.5063,117.373 291.1938,117.373 Z " fill="#000000"/><text fill="#000000" font-family="sans-serif" font-size="14" lengthAdjust="spacing" textLength="210" x="308.15" y="117.3105">SelectedSelectionKeySetSelector</text><line style="stroke:#181818;stroke-width:0.5;" x1="267.5" x2="530.5" y1="127.5137" y2="127.5137"/><text fill="#000000" font-family="sans-serif" font-size="14" lengthAdjust="spacing" textLength="253" x="272.5" y="146.6211">selectionKeys: SelectedSelectionKeySet</text><text fill="#000000" font-family="sans-serif" font-size="14" lengthAdjust="spacing" textLength="115" x="272.5" y="165.2422">delegate: Selector</text></g><!--class SelectorImpl--><g id="elem_SelectorImpl"><rect codeLine="1" fill="#F1F1F1" height="77.2422" id="SelectorImpl" rx="2.5" ry="2.5" style="stroke:#181818;stroke-width:0.5;" width="164" x="34" y="418.0137"/><ellipse cx="73.3" cy="434.0137" fill="#A9DCDF" rx="11" ry="11" style="stroke:#181818;stroke-width:1.0;"/><path d="M73.7219,434.498 L71.1594,434.498 L70.6281,436.7949 Q70.5656,437.123 70.5656,437.2793 Q70.5656,437.498 70.6125,437.6543 Q70.675,437.8105 70.9563,437.8105 L71.425,437.8105 L71.425,438.748 L68.4406,438.748 L68.4406,437.8105 L68.8938,437.8105 Q69.0656,437.8105 69.1906,437.7168 Q69.3156,437.6074 69.3625,437.3105 L72.0031,426.9824 L73.4094,426.5137 L75.9875,437.2793 Q76.0969,437.5918 76.2219,437.7012 Q76.3625,437.8105 76.5344,437.8105 L77.0031,437.8105 L77.0031,438.748 L73.6125,438.748 L73.6125,437.8105 L74.1438,437.8105 Q74.3625,437.8105 74.3781,437.7637 Q74.4094,437.7012 74.4094,437.623 Q74.4094,437.4043 74.3625,437.2168 L73.7219,434.498 Z M69.1594,438.3418 L69.1594,438.3418 Z M69.8313,438.3418 L69.8313,438.3418 Z M74.55,438.3418 L74.55,438.3418 Z M75.675,438.3418 L75.675,438.3418 Z M72.4875,428.4043 L72.55,428.4043 L71.4406,433.5605 L73.5344,433.5605 L72.4875,428.4043 Z " fill="#000000"/><text fill="#000000" font-family="sans-serif" font-size="14" font-style="italic" lengthAdjust="spacing" textLength="78" x="92.7" y="439.8105">SelectorImpl</text><line style="stroke:#181818;stroke-width:0.5;" x1="35" x2="197" y1="450.0137" y2="450.0137"/><text fill="#000000" font-family="sans-serif" font-size="14" lengthAdjust="spacing" textLength="113" x="40" y="469.1211">selectedKeys: Set</text><text fill="#000000" font-family="sans-serif" font-size="14" lengthAdjust="spacing" textLength="152" x="40" y="487.7422">publicSelectedKeys: Set</text></g><!--class WEPollSelectorImpl--><g id="elem_WEPollSelectorImpl"><rect codeLine="1" fill="#F1F1F1" height="32" id="WEPollSelectorImpl" rx="2.5" ry="2.5" style="stroke:#181818;stroke-width:0.5;" width="154" x="28" y="555.0137"/><ellipse cx="43" cy="571.0137" fill="#ADD1B2" rx="11" ry="11" style="stroke:#181818;stroke-width:1.0;"/><path d="M42.3438,576.873 Q40.3594,576.873 39.1875,575.4043 Q38.0313,573.9199 38.0313,570.8418 Q38.0313,568.2324 39.25,566.4824 Q40.4844,564.7324 42.6094,564.7324 Q43.1094,564.7324 43.6406,564.873 Q44.0781,565.0605 44.3438,565.0605 Q44.5625,565.0605 44.6563,565.0137 Q44.7656,564.9668 45.2188,564.373 L45.9844,568.1074 L45.0938,568.373 Q44.6406,566.9199 44.0313,566.3262 Q43.4375,565.7168 42.4844,565.7168 Q41.2656,565.7168 40.5469,567.1543 Q39.8281,568.5762 39.8281,570.7637 Q39.8281,573.1699 40.4375,574.4668 Q41.0625,575.748 42.4219,575.748 Q43.375,575.748 44.0625,575.0605 Q44.75,574.3574 45.0781,572.8574 L45.9844,573.2637 Q45.5781,574.9668 44.6094,575.9199 Q43.6563,576.873 42.3438,576.873 Z " fill="#000000"/><text fill="#000000" font-family="sans-serif" font-size="14" lengthAdjust="spacing" textLength="122" x="57" y="576.8105">WEPollSelectorImpl</text></g><!--class WindowsSelectorImpl--><g id="elem_WindowsSelectorImpl"><rect codeLine="1" fill="#F1F1F1" height="32" id="WindowsSelectorImpl" rx="2.5" ry="2.5" style="stroke:#181818;stroke-width:0.5;" width="165" x="217.5" y="555.0137"/><ellipse cx="232.5" cy="571.0137" fill="#ADD1B2" rx="11" ry="11" style="stroke:#181818;stroke-width:1.0;"/><path d="M231.8438,576.873 Q229.8594,576.873 228.6875,575.4043 Q227.5313,573.9199 227.5313,570.8418 Q227.5313,568.2324 228.75,566.4824 Q229.9844,564.7324 232.1094,564.7324 Q232.6094,564.7324 233.1406,564.873 Q233.5781,565.0605 233.8438,565.0605 Q234.0625,565.0605 234.1563,565.0137 Q234.2656,564.9668 234.7188,564.373 L235.4844,568.1074 L234.5938,568.373 Q234.1406,566.9199 233.5313,566.3262 Q232.9375,565.7168 231.9844,565.7168 Q230.7656,565.7168 230.0469,567.1543 Q229.3281,568.5762 229.3281,570.7637 Q229.3281,573.1699 229.9375,574.4668 Q230.5625,575.748 231.9219,575.748 Q232.875,575.748 233.5625,575.0605 Q234.25,574.3574 234.5781,572.8574 L235.4844,573.2637 Q235.0781,574.9668 234.1094,575.9199 Q233.1563,576.873 231.8438,576.873 Z " fill="#000000"/><text fill="#000000" font-family="sans-serif" font-size="14" lengthAdjust="spacing" textLength="133" x="246.5" y="576.8105">WindowsSelectorImpl</text></g><!--reverse link Selector to AbstractSelector--><g id="link_Selector_AbstractSelector"><path codeLine="10" d="M116,243.2337 C116,266.4137 116,270.7637 116,284.8937 " fill="none" id="Selector-backto-AbstractSelector" style="stroke:#181818;stroke-width:1.0;"/><polygon fill="none" points="116,225.2337,110,243.2337,122,243.2337,116,225.2337" style="stroke:#181818;stroke-width:1.0;"/></g><!--reverse link Selector to SelectedSelectionKeySetSelector--><g id="link_Selector_SelectedSelectionKeySetSelector"><path codeLine="11" d="M227.69,134.0137 C246.55,134.0137 247.4,134.0137 266.26,134.0137 " fill="none" id="Selector-backto-SelectedSelectionKeySetSelector" style="stroke:#181818;stroke-width:1.0;"/><polygon fill="none" points="209.69,134.0137,227.69,140.0137,227.69,128.0137,209.69,134.0137" style="stroke:#181818;stroke-width:1.0;"/></g><!--reverse link AbstractSelector to SelectorImpl--><g id="link_AbstractSelector_SelectorImpl"><path codeLine="12" d="M116,335.2937 C116,358.5737 116,385.6337 116,417.9837 " fill="none" id="AbstractSelector-backto-SelectorImpl" style="stroke:#181818;stroke-width:1.0;"/><polygon fill="none" points="116,317.2937,110,335.2937,122,335.2937,116,317.2937" style="stroke:#181818;stroke-width:1.0;"/></g><!--reverse link SelectorImpl to WEPollSelectorImpl--><g id="link_SelectorImpl_WEPollSelectorImpl"><path codeLine="13" d="M110.5563,513.198 C108.5563,533.628 107.95,539.7937 106.47,554.9837 " fill="none" id="SelectorImpl-backto-WEPollSelectorImpl" style="stroke:#181818;stroke-width:1.0;"/><polygon fill="none" points="112.31,495.2837,104.5848,512.6135,116.5277,513.7826,112.31,495.2837" style="stroke:#181818;stroke-width:1.0;"/></g><!--reverse link SelectorImpl to WindowsSelectorImpl--><g id="link_SelectorImpl_WindowsSelectorImpl"><path codeLine="14" d="M192.8869,504.5233 C226.3169,524.9633 250.44,539.7137 275.35,554.9437 " fill="none" id="SelectorImpl-backto-WindowsSelectorImpl" style="stroke:#181818;stroke-width:1.0;"/><polygon fill="none" points="177.53,495.1337,189.757,509.6423,196.0168,499.4043,177.53,495.1337" style="stroke:#181818;stroke-width:1.0;"/></g><!--SRC=[XO_D2i8m48JlUOhq0UeZ21uy52-57ZodoRG6Dp_a1oduy2f5XRJMqyBCxCwtbGzYD8BdYCOc10EbHK8hv5MCY7mG5C5OfQsahC0FVKn1oDI189CBEvyDVUrPXfgdTlQ4gSDs-gVS64-5TJwsZcWheArojxXCi9ASrzdNz_sdZVrXvpLXI2iRSylxN5d3biXbyqjZA-2hENRHppTXV9guWUaHuWC0]--></g></svg>