<svg xmlns="http://www.w3.org/2000/svg" xmlns:xlink="http://www.w3.org/1999/xlink" contentStyleType="text/css" height="1039px" preserveAspectRatio="none" style="width:899px;height:1039px;background:#FFFFFF;" version="1.1" viewBox="0 0 899 1039" width="899px" zoomAndPan="magnify"><title>&#19981;&#24403;&#24471;&#21033;</title><defs/><g><text fill="#000000" font-family="sans-serif" font-size="14" font-weight="bold" lengthAdjust="spacing" textLength="57.75" x="419.5698" y="34.5332">&#19981;&#24403;&#24471;&#21033;</text><rect fill="#F1F1F1" height="37.6094" rx="12.5" ry="12.5" style="stroke:#181818;stroke-width:1.5;" width="76" x="10" y="519.4844"/><text fill="#000000" font-family="sans-serif" font-size="14" lengthAdjust="spacing" textLength="56" x="20" y="544.0176">&#19981;&#24403;&#24471;&#21033;</text><rect fill="#F1F1F1" height="37.6094" rx="12.5" ry="12.5" style="stroke:#181818;stroke-width:1.5;" width="104" x="136" y="231.4375"/><text fill="#000000" font-family="sans-serif" font-size="14" lengthAdjust="spacing" textLength="84" x="146" y="255.9707">&#19981;&#24403;&#24471;&#21033;&#20043;&#21069;</text><rect fill="#F1F1F1" height="37.6094" rx="12.5" ry="12.5" style="stroke:#181818;stroke-width:1.5;" width="76" x="290" y="145.0234"/><text fill="#000000" font-family="sans-serif" font-size="14" lengthAdjust="spacing" textLength="56" x="300" y="169.5566">&#26500;&#25104;&#35201;&#20214;</text><rect fill="#F1F1F1" height="37.6094" rx="12.5" ry="12.5" style="stroke:#181818;stroke-width:1.5;" width="48" x="416" y="58.6094"/><text fill="#000000" font-family="sans-serif" font-size="14" lengthAdjust="spacing" textLength="28" x="426" y="83.1426">&#19981;&#24403;</text><rect fill="#F1F1F1" height="37.6094" rx="12.5" ry="12.5" style="stroke:#181818;stroke-width:1.5;" width="76" x="514" y="58.6094"/><text fill="#000000" font-family="sans-serif" font-size="14" lengthAdjust="spacing" textLength="56" x="524" y="83.1426">&#27809;&#26377;&#21407;&#22240;</text><path d="M464,77.4141 L474,77.4141 C489,77.4141 489,77.4141 504,77.4141 L514,77.4141 " fill="none" style="stroke:#181818;stroke-width:1;"/><path d="M366,163.8281 L376,163.8281 C391,163.8281 391,77.4141 406,77.4141 L416,77.4141 " fill="none" style="stroke:#181818;stroke-width:1;"/><rect fill="#F1F1F1" height="37.6094" rx="12.5" ry="12.5" style="stroke:#181818;stroke-width:1.5;" width="48" x="416" y="173.8281"/><text fill="#000000" font-family="sans-serif" font-size="14" lengthAdjust="spacing" textLength="28" x="426" y="198.3613">&#24471;&#21033;</text><rect fill="#F1F1F1" height="37.6094" rx="12.5" ry="12.5" style="stroke:#181818;stroke-width:1.5;" width="76" x="514" y="116.2188"/><text fill="#000000" font-family="sans-serif" font-size="14" lengthAdjust="spacing" textLength="56" x="524" y="140.752">&#19968;&#26041;&#33719;&#30410;</text><path d="M464,192.6328 L474,192.6328 C489,192.6328 489,135.0234 504,135.0234 L514,135.0234 " fill="none" style="stroke:#181818;stroke-width:1;"/><rect fill="#F1F1F1" height="37.6094" rx="12.5" ry="12.5" style="stroke:#181818;stroke-width:1.5;" width="76" x="514" y="173.8281"/><text fill="#000000" font-family="sans-serif" font-size="14" lengthAdjust="spacing" textLength="56" x="524" y="198.3613">&#19968;&#26041;&#21463;&#25439;</text><path d="M464,192.6328 L474,192.6328 C489,192.6328 489,192.6328 504,192.6328 L514,192.6328 " fill="none" style="stroke:#181818;stroke-width:1;"/><rect fill="#F1F1F1" height="37.6094" rx="12.5" ry="12.5" style="stroke:#181818;stroke-width:1.5;" width="104" x="514" y="231.4375"/><text fill="#000000" font-family="sans-serif" font-size="14" lengthAdjust="spacing" textLength="84" x="524" y="255.9707">&#30452;&#25509;&#22240;&#26524;&#20851;&#31995;</text><path d="M464,192.6328 L474,192.6328 C489,192.6328 489,250.2422 504,250.2422 L514,250.2422 " fill="none" style="stroke:#181818;stroke-width:1;"/><path d="M366,163.8281 L376,163.8281 C391,163.8281 391,192.6328 406,192.6328 L416,192.6328 " fill="none" style="stroke:#181818;stroke-width:1;"/><path d="M240,250.2422 L250,250.2422 C265,250.2422 265,163.8281 280,163.8281 L290,163.8281 " fill="none" style="stroke:#181818;stroke-width:1;"/><rect fill="#F1F1F1" height="37.6094" rx="12.5" ry="12.5" style="stroke:#181818;stroke-width:1.5;" width="48" x="290" y="346.6563"/><text fill="#000000" font-family="sans-serif" font-size="14" lengthAdjust="spacing" textLength="28" x="300" y="371.1895">&#20363;&#22806;</text><rect fill="#F1F1F1" height="37.6094" rx="12.5" ry="12.5" style="stroke:#181818;stroke-width:1.5;" width="118" x="388" y="346.6563"/><text fill="#000000" font-family="sans-serif" font-size="14" lengthAdjust="spacing" textLength="98" x="398" y="371.1895">&#19981;&#26500;&#25104;&#19981;&#24403;&#24471;&#21033;</text><rect fill="#90EE90" height="37.6094" rx="12.5" ry="12.5" style="stroke:#181818;stroke-width:1.5;" width="303.8896" x="556" y="289.0469"/><text fill="#000000" font-family="sans-serif" font-size="14" lengthAdjust="spacing" textLength="280" x="566" y="313.5801">&#20538;&#21153;&#26410;&#21040;&#26399;&#65292;&#20538;&#21153;&#20154;&#25552;&#21069;&#28165;&#20607;&#65292;&#20538;&#26435;&#20154;&#19981;&#26500;&#25104;</text><path d="M506,365.4609 L516,365.4609 C531,365.4609 531,307.8516 546,307.8516 L556,307.8516 " fill="none" style="stroke:#181818;stroke-width:1;"/><rect fill="#90EE90" height="37.6094" rx="12.5" ry="12.5" style="stroke:#181818;stroke-width:1.5;" width="247.8896" x="556" y="346.6563"/><text fill="#000000" font-family="sans-serif" font-size="14" lengthAdjust="spacing" textLength="224" x="566" y="371.1895">&#33258;&#28982;&#20043;&#20538;&#30340;&#33258;&#24895;&#23653;&#34892;&#65292;&#20538;&#26435;&#20154;&#19981;&#26500;&#25104;</text><path d="M506,365.4609 L516,365.4609 C531,365.4609 531,365.4609 546,365.4609 L556,365.4609 " fill="none" style="stroke:#181818;stroke-width:1;"/><rect fill="#90EE90" height="37.6094" rx="12.5" ry="12.5" style="stroke:#181818;stroke-width:1.5;" width="79.8896" x="556" y="404.2656"/><text fill="#000000" font-family="sans-serif" font-size="14" lengthAdjust="spacing" textLength="56" x="566" y="428.7988">&#24378;&#36843;&#24471;&#21033;</text><text fill="#000000" font-family="sans-serif" font-size="14" lengthAdjust="spacing" textLength="140" x="688.8896" y="428.7988">&#26410;&#32463;&#35768;&#21487;&#25830;&#36710;&#25110;&#25830;&#30382;&#38795;</text><path d="M635.8896,423.0703 L645.8896,423.0703 C660.8896,423.0703 660.8896,423.0703 675.8896,423.0703 L685.8896,423.0703 " fill="none" style="stroke:#181818;stroke-width:1;"/><path d="M506,365.4609 L516,365.4609 C531,365.4609 531,423.0703 546,423.0703 L556,423.0703 " fill="none" style="stroke:#181818;stroke-width:1;"/><path d="M338,365.4609 L348,365.4609 C363,365.4609 363,365.4609 378,365.4609 L388,365.4609 " fill="none" style="stroke:#181818;stroke-width:1;"/><path d="M240,250.2422 L250,250.2422 C265,250.2422 265,365.4609 280,365.4609 L290,365.4609 " fill="none" style="stroke:#181818;stroke-width:1;"/><path d="M86,538.2891 L96,538.2891 C111,538.2891 111,250.2422 126,250.2422 L136,250.2422 " fill="none" style="stroke:#181818;stroke-width:1;"/><rect fill="#F1F1F1" height="37.6094" rx="12.5" ry="12.5" style="stroke:#181818;stroke-width:1.5;" width="104" x="136" y="721.1172"/><text fill="#000000" font-family="sans-serif" font-size="14" lengthAdjust="spacing" textLength="84" x="146" y="745.6504">&#19981;&#24403;&#24471;&#21033;&#20043;&#21518;</text><rect fill="#F1F1F1" height="37.6094" rx="12.5" ry="12.5" style="stroke:#181818;stroke-width:1.5;" width="90" x="290" y="577.0938"/><text fill="#000000" font-family="sans-serif" font-size="14" lengthAdjust="spacing" textLength="70" x="300" y="601.627">&#21892;&#24847;&#24471;&#21033;&#20154;</text><rect fill="#F1F1F1" height="37.6094" rx="12.5" ry="12.5" style="stroke:#181818;stroke-width:1.5;" width="48" x="430" y="461.875"/><text fill="#000000" font-family="sans-serif" font-size="14" lengthAdjust="spacing" textLength="28" x="440" y="486.4082">&#23436;&#25972;</text><rect fill="#F1F1F1" height="37.6094" rx="12.5" ry="12.5" style="stroke:#181818;stroke-width:1.5;" width="118" x="528" y="461.875"/><text fill="#000000" font-family="sans-serif" font-size="14" lengthAdjust="spacing" textLength="98" x="538" y="486.4082">&#36820;&#36824;&#21407;&#29289;&#21644;&#23411;&#24687;</text><path d="M478,480.6797 L488,480.6797 C503,480.6797 503,480.6797 518,480.6797 L528,480.6797 " fill="none" style="stroke:#181818;stroke-width:1;"/><path d="M380,595.8984 L390,595.8984 C405,595.8984 405,480.6797 420,480.6797 L430,480.6797 " fill="none" style="stroke:#181818;stroke-width:1;"/><rect fill="#F1F1F1" height="37.6094" rx="12.5" ry="12.5" style="stroke:#181818;stroke-width:1.5;" width="48" x="430" y="519.4844"/><text fill="#000000" font-family="sans-serif" font-size="14" lengthAdjust="spacing" textLength="28" x="440" y="544.0176">&#37096;&#20998;</text><rect fill="#90EE90" height="37.6094" rx="12.5" ry="12.5" style="stroke:#181818;stroke-width:1.5;" width="117.2139" x="528" y="519.4844"/><text fill="#000000" font-family="sans-serif" font-size="14" lengthAdjust="spacing" textLength="93.3242" x="538" y="544.0176">&#36820;&#36824;&#8220;&#29616;&#23384;&#21033;&#30410;&#8221;</text><path d="M478,538.2891 L488,538.2891 C503,538.2891 503,538.2891 518,538.2891 L528,538.2891 " fill="none" style="stroke:#181818;stroke-width:1;"/><path d="M380,595.8984 L390,595.8984 C405,595.8984 405,538.2891 420,538.2891 L430,538.2891 " fill="none" style="stroke:#181818;stroke-width:1;"/><rect fill="#F1F1F1" height="37.6094" rx="12.5" ry="12.5" style="stroke:#181818;stroke-width:1.5;" width="118" x="430" y="634.7031"/><text fill="#000000" font-family="sans-serif" font-size="14" lengthAdjust="spacing" textLength="98" x="440" y="659.2363">&#26080;&#20607;&#36716;&#35753;&#31532;&#19977;&#20154;</text><rect fill="#F1F1F1" height="37.6094" rx="12.5" ry="12.5" style="stroke:#181818;stroke-width:1.5;" width="48" x="598" y="577.0938"/><text fill="#000000" font-family="sans-serif" font-size="14" lengthAdjust="spacing" textLength="28" x="608" y="601.627">&#36824;&#22312;</text><rect fill="#F1F1F1" height="37.6094" rx="12.5" ry="12.5" style="stroke:#181818;stroke-width:1.5;" width="118" x="696" y="577.0938"/><text fill="#000000" font-family="sans-serif" font-size="14" lengthAdjust="spacing" textLength="98" x="706" y="601.627">&#35831;&#27714;&#31532;&#19977;&#20154;&#36820;&#36824;</text><path d="M646,595.8984 L656,595.8984 C671,595.8984 671,595.8984 686,595.8984 L696,595.8984 " fill="none" style="stroke:#181818;stroke-width:1;"/><path d="M548,653.5078 L558,653.5078 C573,653.5078 573,595.8984 588,595.8984 L598,595.8984 " fill="none" style="stroke:#181818;stroke-width:1;"/><rect fill="#F1F1F1" height="37.6094" rx="12.5" ry="12.5" style="stroke:#181818;stroke-width:1.5;" width="48" x="598" y="663.5078"/><text fill="#000000" font-family="sans-serif" font-size="14" lengthAdjust="spacing" textLength="28" x="608" y="688.041">&#19981;&#22312;</text><rect fill="#90EE90" height="37.6094" rx="12.5" ry="12.5" style="stroke:#181818;stroke-width:1.5;" width="191.8896" x="696" y="634.7031"/><text fill="#000000" font-family="sans-serif" font-size="14" lengthAdjust="spacing" textLength="168" x="706" y="659.2363">&#21892;&#24847;&#24471;&#21033;&#20154;&#19981;&#25215;&#25285;&#36180;&#20607;&#36131;&#20219;</text><path d="M646,682.3125 L656,682.3125 C671,682.3125 671,653.5078 686,653.5078 L696,653.5078 " fill="none" style="stroke:#181818;stroke-width:1;"/><rect fill="#F1F1F1" height="37.6094" rx="12.5" ry="12.5" style="stroke:#181818;stroke-width:1.5;" width="132" x="696" y="692.3125"/><text fill="#000000" font-family="sans-serif" font-size="14" lengthAdjust="spacing" textLength="112" x="706" y="716.8457">&#31532;&#19977;&#20154;&#19981;&#25215;&#25285;&#36131;&#20219;</text><path d="M646,682.3125 L656,682.3125 C671,682.3125 671,711.1172 686,711.1172 L696,711.1172 " fill="none" style="stroke:#181818;stroke-width:1;"/><path d="M548,653.5078 L558,653.5078 C573,653.5078 573,682.3125 588,682.3125 L598,682.3125 " fill="none" style="stroke:#181818;stroke-width:1;"/><path d="M380,595.8984 L390,595.8984 C405,595.8984 405,653.5078 420,653.5078 L430,653.5078 " fill="none" style="stroke:#181818;stroke-width:1;"/><path d="M240,739.9219 L250,739.9219 C265,739.9219 265,595.8984 280,595.8984 L290,595.8984 " fill="none" style="stroke:#181818;stroke-width:1;"/><rect fill="#F1F1F1" height="37.6094" rx="12.5" ry="12.5" style="stroke:#181818;stroke-width:1.5;" width="90" x="290" y="865.1406"/><text fill="#000000" font-family="sans-serif" font-size="14" lengthAdjust="spacing" textLength="70" x="300" y="889.6738">&#24694;&#24847;&#24471;&#21033;&#20154;</text><rect fill="#F1F1F1" height="37.6094" rx="12.5" ry="12.5" style="stroke:#181818;stroke-width:1.5;" width="48" x="430" y="749.9219"/><text fill="#000000" font-family="sans-serif" font-size="14" lengthAdjust="spacing" textLength="28" x="440" y="774.4551">&#23436;&#25972;</text><rect fill="#F1F1F1" height="37.6094" rx="12.5" ry="12.5" style="stroke:#181818;stroke-width:1.5;" width="48" x="528" y="749.9219"/><text fill="#000000" font-family="sans-serif" font-size="14" lengthAdjust="spacing" textLength="28" x="538" y="774.4551">&#36820;&#36824;</text><path d="M478,768.7266 L488,768.7266 C503,768.7266 503,768.7266 518,768.7266 L528,768.7266 " fill="none" style="stroke:#181818;stroke-width:1;"/><path d="M380,883.9453 L390,883.9453 C405,883.9453 405,768.7266 420,768.7266 L430,768.7266 " fill="none" style="stroke:#181818;stroke-width:1;"/><rect fill="#F1F1F1" height="37.6094" rx="12.5" ry="12.5" style="stroke:#181818;stroke-width:1.5;" width="48" x="430" y="807.5313"/><text fill="#000000" font-family="sans-serif" font-size="14" lengthAdjust="spacing" textLength="28" x="440" y="832.0645">&#37096;&#20998;</text><rect fill="#90EE90" height="37.6094" rx="12.5" ry="12.5" style="stroke:#181818;stroke-width:1.5;" width="107.8896" x="528" y="807.5313"/><text fill="#000000" font-family="sans-serif" font-size="14" lengthAdjust="spacing" textLength="84" x="538" y="832.0645">&#20381;&#27861;&#36180;&#20607;&#25439;&#22833;</text><path d="M478,826.3359 L488,826.3359 C503,826.3359 503,826.3359 518,826.3359 L528,826.3359 " fill="none" style="stroke:#181818;stroke-width:1;"/><path d="M380,883.9453 L390,883.9453 C405,883.9453 405,826.3359 420,826.3359 L430,826.3359 " fill="none" style="stroke:#181818;stroke-width:1;"/><rect fill="#F1F1F1" height="37.6094" rx="12.5" ry="12.5" style="stroke:#181818;stroke-width:1.5;" width="118" x="430" y="922.75"/><text fill="#000000" font-family="sans-serif" font-size="14" lengthAdjust="spacing" textLength="98" x="440" y="947.2832">&#26080;&#20607;&#36716;&#35753;&#31532;&#19977;&#20154;</text><rect fill="#F1F1F1" height="37.6094" rx="12.5" ry="12.5" style="stroke:#181818;stroke-width:1.5;" width="48" x="598" y="865.1406"/><text fill="#000000" font-family="sans-serif" font-size="14" lengthAdjust="spacing" textLength="28" x="608" y="889.6738">&#36824;&#22312;</text><rect fill="#F1F1F1" height="37.6094" rx="12.5" ry="12.5" style="stroke:#181818;stroke-width:1.5;" width="118" x="696" y="865.1406"/><text fill="#000000" font-family="sans-serif" font-size="14" lengthAdjust="spacing" textLength="98" x="706" y="889.6738">&#35831;&#27714;&#31532;&#19977;&#20154;&#36820;&#36824;</text><path d="M646,883.9453 L656,883.9453 C671,883.9453 671,883.9453 686,883.9453 L696,883.9453 " fill="none" style="stroke:#181818;stroke-width:1;"/><path d="M548,941.5547 L558,941.5547 C573,941.5547 573,883.9453 588,883.9453 L598,883.9453 " fill="none" style="stroke:#181818;stroke-width:1;"/><rect fill="#F1F1F1" height="37.6094" rx="12.5" ry="12.5" style="stroke:#181818;stroke-width:1.5;" width="48" x="598" y="951.5547"/><text fill="#000000" font-family="sans-serif" font-size="14" lengthAdjust="spacing" textLength="28" x="608" y="976.0879">&#19981;&#22312;</text><rect fill="#90EE90" height="37.6094" rx="12.5" ry="12.5" style="stroke:#181818;stroke-width:1.5;" width="177.8896" x="696" y="922.75"/><text fill="#000000" font-family="sans-serif" font-size="14" lengthAdjust="spacing" textLength="154" x="706" y="947.2832">&#24694;&#24847;&#24471;&#21033;&#20154;&#25215;&#25285;&#36180;&#20607;&#36131;&#20219;</text><path d="M646,970.3594 L656,970.3594 C671,970.3594 671,941.5547 686,941.5547 L696,941.5547 " fill="none" style="stroke:#181818;stroke-width:1;"/><rect fill="#F1F1F1" height="37.6094" rx="12.5" ry="12.5" style="stroke:#181818;stroke-width:1.5;" width="132" x="696" y="980.3594"/><text fill="#000000" font-family="sans-serif" font-size="14" lengthAdjust="spacing" textLength="112" x="706" y="1004.8926">&#31532;&#19977;&#20154;&#19981;&#25215;&#25285;&#36131;&#20219;</text><path d="M646,970.3594 L656,970.3594 C671,970.3594 671,999.1641 686,999.1641 L696,999.1641 " fill="none" style="stroke:#181818;stroke-width:1;"/><path d="M548,941.5547 L558,941.5547 C573,941.5547 573,970.3594 588,970.3594 L598,970.3594 " fill="none" style="stroke:#181818;stroke-width:1;"/><path d="M380,883.9453 L390,883.9453 C405,883.9453 405,941.5547 420,941.5547 L430,941.5547 " fill="none" style="stroke:#181818;stroke-width:1;"/><path d="M240,739.9219 L250,739.9219 C265,739.9219 265,883.9453 280,883.9453 L290,883.9453 " fill="none" style="stroke:#181818;stroke-width:1;"/><path d="M86,538.2891 L96,538.2891 C111,538.2891 111,739.9219 126,739.9219 L136,739.9219 " fill="none" style="stroke:#181818;stroke-width:1;"/><!--SRC=[xLXTJzjM6BxthpZJRc0IuMC8LGWXIWhQAb9L2-tjTEAS9gVOFf5zd2gR9i4A6vHFhIsWyjLgBIeTXJ8OfQ6G_rB5Zdkrlx3NTXASW6EtsiKcWH2At_Tvd_Vxd9W-ZMELorH9oZWZ25zGHPJq946HI2lyQZmdaTQCX1MkorAB3Mi1N8iZZr2G2GAdN2AeU3Hhd3mqJfUCoIr1-Ahs6S5FhQZuRjgOcdKKhj9S7pSd5wpDiUBnOLNijQiHbct-V6QkJXbp6yRAqpeRZ-Dwib5pyPqrzxQqyi1NRSmlcRCR5wXBAmVct0jmPwwl6XFxfVrZJmh5qsdZ-UBvuDtKpXMaBk3HlF40qdbbJBunLpV-VZ_ZIehvl3c_0BKoZoQCiO8hDzVkWxnAZNfwY9n9OurglRqNS5k_lYgD7zeb7ysNdep3epbUCFPUMCzcFelFU9-t2d-ugJJ6ElZl4QHLEfwtTewC-LtpuQPricbEBiA7qfETZ-lJFkEnCEUfhR4uRexFbvNvV7stTsRCnmSNPLvuP1MMOK9AKrl6RpF6wtrpRBVE-EFzbyRaBxx67qPNItDlZDVBu1bcviFecd_AC99BJw5BricsjRDLsjuk7atLHrlXNZPMNrvSBsJjlZNtVgwQkt5SEAop_YHr5RERErKmfoUilnxP4HxyNZm-3j4yL0tZZC6nzUxksE7dDoTiDugdQ-R-OpTwM4xZ-Tx_emzrnVcNco08VGIExihntLTxclSuvtIlK1PSepYbOXdz25uY2KadpYU4-h4uabAPhYIZJ68gacWgpMqzQ7-oiKciZgWawGClQolWb4g8qeZP0NZGkG1mhe9bAbPIVa6xoWeqewiPoG_gAYjG_yGyIQbCysFxSd2mlpyQhI1pH9BOFH-igtIWGaJ6L1bE4xb2FCWK7gS_4FHrcs3hArCHN4ilkiq7hetad9PwiHsDQ-c5zeD8JCCeXWg6fXIcaX1zHMY8AgHUVaOHqcr3AfjCKPX85EvN6yLfYji2LvIG05F72ilZnYQgjDgrCpLdCkRC3LxXu8qo1KlHJyNUL4a6gzYMV8hPrGHJUT3OXUNY7FhEWpOj95kKoR1kt6ySofP-T7Rx59A2ZWAfjvYDJgsWJYO9oNWNejR109oY2ObgQVyZpsDVw-rUclBwslYukS5ui2SdAp67bH1PYJX9UDKP5aMQz9_vcgCuYFaEhABcsMzu5aaCtoLwm9Op2K9GMT8pWG4xLh5m_6IOHZdDagkYPntE7UTO8c4JEKi1Ue43gMKADwXzzeUPgV8rQ9DhUk8k4Mrwl-hWBDpRH0t9cwKCDiYXPa7CTjr3b_lifAzTtCQxMZFBWNU807zwMijVHIvV5ozV5ozV5ozV5ozV5_y3huitxN_itOeDeInHDViMR8zqj7LqHguqnJ57DrWMjNUXjlRkpixkpYuKZGyZMzqiDCM-7KOQq-5B04h25QdIX6xV6yt2TPp5w3iTRX6PT2FxgMaurepY0nKX6b2oL6MA33U7SFrsp0MXRnYFPnXtm5sTBVsKepXH8InqEoPS8tUmBd4m5LcIAgbkT6juiEMAC0GtZ8vJu0Zkz2XSFLpDWIx-3m00]--></g></svg>