<svg xmlns="http://www.w3.org/2000/svg" xmlns:xlink="http://www.w3.org/1999/xlink" contentStyleType="text/css" height="867px" preserveAspectRatio="none" style="width:903px;height:867px;background:#FFFFFF;" version="1.1" viewBox="0 0 903 867" width="903px" zoomAndPan="magnify"><title>&#20195;&#29702; - &#20844;&#21496;&#20195;&#29702;</title><defs/><g><text fill="#000000" font-family="sans-serif" font-size="14" font-weight="bold" lengthAdjust="spacing" textLength="99.0664" x="400.8838" y="34.5332">&#20195;&#29702; - &#20844;&#21496;&#20195;&#29702;</text><rect fill="#F1F1F1" height="37.6094" rx="12.5" ry="12.5" style="stroke:#181818;stroke-width:1.5;" width="57.3379" x="10" y="433.0703"/><text fill="#000000" font-family="sans-serif" font-size="14" lengthAdjust="spacing" textLength="37.3379" x="20" y="457.6035">A&#20844;&#21496;</text><rect fill="#F1F1F1" height="37.6094" rx="12.5" ry="12.5" style="stroke:#181818;stroke-width:1.5;" width="48" x="117.3379" y="433.0703"/><text fill="#000000" font-family="sans-serif" font-size="14" lengthAdjust="spacing" textLength="28" x="127.3379" y="457.6035">&#20195;&#29702;</text><rect fill="#F1F1F1" height="37.6094" rx="12.5" ry="12.5" style="stroke:#181818;stroke-width:1.5;" width="144.4756" x="215.3379" y="116.2188"/><text fill="#000000" font-family="sans-serif" font-size="14" lengthAdjust="spacing" textLength="124.4756" x="225.3379" y="140.752">1. &#24694;&#24847;&#20195;&#29702;&#65288;P71&#65289;</text><rect fill="#F1F1F1" height="37.6094" rx="12.5" ry="12.5" style="stroke:#181818;stroke-width:1.5;" width="34" x="409.8135" y="58.6094"/><text fill="#000000" font-family="sans-serif" font-size="14" lengthAdjust="spacing" textLength="14" x="419.8135" y="83.1426">&#20154;</text><rect fill="#F1F1F1" height="37.6094" rx="12.5" ry="12.5" style="stroke:#181818;stroke-width:1.5;" width="62" x="493.8135" y="58.6094"/><text fill="#000000" font-family="sans-serif" font-size="14" lengthAdjust="spacing" textLength="42" x="503.8135" y="83.1426">&#29616;&#21592;&#24037;</text><rect fill="#F1F1F1" height="37.6094" rx="12.5" ry="12.5" style="stroke:#181818;stroke-width:1.5;" width="146" x="605.8135" y="58.6094"/><text fill="#000000" font-family="sans-serif" font-size="14" lengthAdjust="spacing" textLength="126" x="615.8135" y="83.1426">&#21507;&#37324;&#25170;&#22806;&#65292;&#31169;&#25343;&#22238;&#25187;</text><path d="M555.8135,77.4141 L565.8135,77.4141 C580.8135,77.4141 580.8135,77.4141 595.8135,77.4141 L605.8135,77.4141 " fill="none" style="stroke:#181818;stroke-width:1;"/><path d="M443.8135,77.4141 L453.8135,77.4141 C468.8135,77.4141 468.8135,77.4141 483.8135,77.4141 L493.8135,77.4141 " fill="none" style="stroke:#181818;stroke-width:1;"/><path d="M359.8135,135.0234 L369.8135,135.0234 C384.8135,135.0234 384.8135,77.4141 399.8135,77.4141 L409.8135,77.4141 " fill="none" style="stroke:#181818;stroke-width:1;"/><rect fill="#F1F1F1" height="37.6094" rx="12.5" ry="12.5" style="stroke:#181818;stroke-width:1.5;" width="48" x="409.8135" y="116.2188"/><text fill="#000000" font-family="sans-serif" font-size="14" lengthAdjust="spacing" textLength="28" x="419.8135" y="140.752">&#25928;&#21147;</text><rect fill="#F1F1F1" height="37.6094" rx="12.5" ry="12.5" style="stroke:#181818;stroke-width:1.5;" width="76" x="507.8135" y="116.2188"/><text fill="#000000" font-family="sans-serif" font-size="14" lengthAdjust="spacing" textLength="56" x="517.8135" y="140.752">&#25928;&#21147;&#24453;&#23450;</text><path d="M457.8135,135.0234 L467.8135,135.0234 C482.8135,135.0234 482.8135,135.0234 497.8135,135.0234 L507.8135,135.0234 " fill="none" style="stroke:#181818;stroke-width:1;"/><path d="M359.8135,135.0234 L369.8135,135.0234 C384.8135,135.0234 384.8135,135.0234 399.8135,135.0234 L409.8135,135.0234 " fill="none" style="stroke:#181818;stroke-width:1;"/><rect fill="#F1F1F1" height="37.6094" rx="12.5" ry="12.5" style="stroke:#181818;stroke-width:1.5;" width="48" x="409.8135" y="173.8281"/><text fill="#000000" font-family="sans-serif" font-size="14" lengthAdjust="spacing" textLength="28" x="419.8135" y="198.3613">&#26377;&#21033;</text><rect fill="#F1F1F1" height="37.6094" rx="12.5" ry="12.5" style="stroke:#181818;stroke-width:1.5;" width="183.3379" x="507.8135" y="173.8281"/><text fill="#000000" font-family="sans-serif" font-size="14" lengthAdjust="spacing" textLength="163.3379" x="517.8135" y="198.3613">&#23545;&#34987;&#20195;&#29702;&#20154;&#65288;A&#20844;&#21496;&#65289;&#26377;&#21033;</text><path d="M457.8135,192.6328 L467.8135,192.6328 C482.8135,192.6328 482.8135,192.6328 497.8135,192.6328 L507.8135,192.6328 " fill="none" style="stroke:#181818;stroke-width:1;"/><path d="M359.8135,135.0234 L369.8135,135.0234 C384.8135,135.0234 384.8135,192.6328 399.8135,192.6328 L409.8135,192.6328 " fill="none" style="stroke:#181818;stroke-width:1;"/><path d="M165.3379,451.875 L175.3379,451.875 C190.3379,451.875 190.3379,135.0234 205.3379,135.0234 L215.3379,135.0234 " fill="none" style="stroke:#181818;stroke-width:1;"/><rect fill="#F1F1F1" height="37.6094" rx="12.5" ry="12.5" style="stroke:#181818;stroke-width:1.5;" width="144.4756" x="215.3379" y="289.0469"/><text fill="#000000" font-family="sans-serif" font-size="14" lengthAdjust="spacing" textLength="124.4756" x="225.3379" y="313.5801">2. &#32844;&#21153;&#20195;&#29702;&#65288;P73&#65289;</text><rect fill="#F1F1F1" height="37.6094" rx="12.5" ry="12.5" style="stroke:#181818;stroke-width:1.5;" width="34" x="409.8135" y="231.4375"/><text fill="#000000" font-family="sans-serif" font-size="14" lengthAdjust="spacing" textLength="14" x="419.8135" y="255.9707">&#20154;</text><rect fill="#F1F1F1" height="37.6094" rx="12.5" ry="12.5" style="stroke:#181818;stroke-width:1.5;" width="62" x="493.8135" y="231.4375"/><text fill="#000000" font-family="sans-serif" font-size="14" lengthAdjust="spacing" textLength="42" x="503.8135" y="255.9707">&#29616;&#21592;&#24037;</text><rect fill="#F1F1F1" height="37.6094" rx="12.5" ry="12.5" style="stroke:#181818;stroke-width:1.5;" width="286" x="605.8135" y="231.4375"/><text fill="#000000" font-family="sans-serif" font-size="14" lengthAdjust="spacing" textLength="266" x="615.8135" y="255.9707">&#23391;&#26576;&#24819;&#20303;&#26631;&#38388;&#65292;&#26032;&#26469;&#30340;&#23454;&#20064;&#29983;&#65292;&#32473;&#24320;&#20102;&#22871;&#25151;</text><path d="M555.8135,250.2422 L565.8135,250.2422 C580.8135,250.2422 580.8135,250.2422 595.8135,250.2422 L605.8135,250.2422 " fill="none" style="stroke:#181818;stroke-width:1;"/><path d="M443.8135,250.2422 L453.8135,250.2422 C468.8135,250.2422 468.8135,250.2422 483.8135,250.2422 L493.8135,250.2422 " fill="none" style="stroke:#181818;stroke-width:1;"/><path d="M359.8135,307.8516 L369.8135,307.8516 C384.8135,307.8516 384.8135,250.2422 399.8135,250.2422 L409.8135,250.2422 " fill="none" style="stroke:#181818;stroke-width:1;"/><rect fill="#F1F1F1" height="37.6094" rx="12.5" ry="12.5" style="stroke:#181818;stroke-width:1.5;" width="48" x="409.8135" y="289.0469"/><text fill="#000000" font-family="sans-serif" font-size="14" lengthAdjust="spacing" textLength="28" x="419.8135" y="313.5801">&#25928;&#21147;</text><rect fill="#F1F1F1" height="37.6094" rx="12.5" ry="12.5" style="stroke:#181818;stroke-width:1.5;" width="76" x="507.8135" y="289.0469"/><text fill="#000000" font-family="sans-serif" font-size="14" lengthAdjust="spacing" textLength="56" x="517.8135" y="313.5801">&#21512;&#27861;&#26377;&#25928;</text><path d="M457.8135,307.8516 L467.8135,307.8516 C482.8135,307.8516 482.8135,307.8516 497.8135,307.8516 L507.8135,307.8516 " fill="none" style="stroke:#181818;stroke-width:1;"/><path d="M359.8135,307.8516 L369.8135,307.8516 C384.8135,307.8516 384.8135,307.8516 399.8135,307.8516 L409.8135,307.8516 " fill="none" style="stroke:#181818;stroke-width:1;"/><rect fill="#F1F1F1" height="37.6094" rx="12.5" ry="12.5" style="stroke:#181818;stroke-width:1.5;" width="48" x="409.8135" y="346.6563"/><text fill="#000000" font-family="sans-serif" font-size="14" lengthAdjust="spacing" textLength="28" x="419.8135" y="371.1895">&#26377;&#21033;</text><rect fill="#F1F1F1" height="37.6094" rx="12.5" ry="12.5" style="stroke:#181818;stroke-width:1.5;" width="104" x="507.8135" y="346.6563"/><text fill="#000000" font-family="sans-serif" font-size="14" lengthAdjust="spacing" textLength="84" x="517.8135" y="371.1895">&#23545;&#30456;&#23545;&#20154;&#26377;&#21033;</text><path d="M457.8135,365.4609 L467.8135,365.4609 C482.8135,365.4609 482.8135,365.4609 497.8135,365.4609 L507.8135,365.4609 " fill="none" style="stroke:#181818;stroke-width:1;"/><path d="M359.8135,307.8516 L369.8135,307.8516 C384.8135,307.8516 384.8135,365.4609 399.8135,365.4609 L409.8135,365.4609 " fill="none" style="stroke:#181818;stroke-width:1;"/><path d="M165.3379,451.875 L175.3379,451.875 C190.3379,451.875 190.3379,307.8516 205.3379,307.8516 L215.3379,307.8516 " fill="none" style="stroke:#181818;stroke-width:1;"/><rect fill="#F1F1F1" height="37.6094" rx="12.5" ry="12.5" style="stroke:#181818;stroke-width:1.5;" width="144.4756" x="215.3379" y="490.6797"/><text fill="#000000" font-family="sans-serif" font-size="14" lengthAdjust="spacing" textLength="124.4756" x="225.3379" y="515.2129">3. &#26080;&#26435;&#20195;&#29702;&#65288;P74&#65289;</text><rect fill="#F1F1F1" height="37.6094" rx="12.5" ry="12.5" style="stroke:#181818;stroke-width:1.5;" width="34" x="409.8135" y="433.0703"/><text fill="#000000" font-family="sans-serif" font-size="14" lengthAdjust="spacing" textLength="14" x="419.8135" y="457.6035">&#20154;</text><rect fill="#F1F1F1" height="37.6094" rx="12.5" ry="12.5" style="stroke:#181818;stroke-width:1.5;" width="62" x="493.8135" y="404.2656"/><text fill="#000000" font-family="sans-serif" font-size="14" lengthAdjust="spacing" textLength="42" x="503.8135" y="428.7988">&#29616;&#21592;&#24037;</text><rect fill="#F1F1F1" height="37.6094" rx="12.5" ry="12.5" style="stroke:#181818;stroke-width:1.5;" width="128.9102" x="605.8135" y="404.2656"/><text fill="#000000" font-family="sans-serif" font-size="14" lengthAdjust="spacing" textLength="108.9102" x="615.8135" y="428.7988">&#27861;&#21153;&#23567;&#29579;&#65288;P74&#65289;</text><path d="M555.8135,423.0703 L565.8135,423.0703 C580.8135,423.0703 580.8135,423.0703 595.8135,423.0703 L605.8135,423.0703 " fill="none" style="stroke:#181818;stroke-width:1;"/><path d="M443.8135,451.875 L453.8135,451.875 C468.8135,451.875 468.8135,423.0703 483.8135,423.0703 L493.8135,423.0703 " fill="none" style="stroke:#181818;stroke-width:1;"/><rect fill="#F1F1F1" height="37.6094" rx="12.5" ry="12.5" style="stroke:#181818;stroke-width:1.5;" width="62" x="493.8135" y="461.875"/><text fill="#000000" font-family="sans-serif" font-size="14" lengthAdjust="spacing" textLength="42" x="503.8135" y="486.4082">&#21069;&#21592;&#24037;</text><rect fill="#F1F1F1" height="37.6094" rx="12.5" ry="12.5" style="stroke:#181818;stroke-width:1.5;" width="170.9102" x="605.8135" y="461.875"/><text fill="#000000" font-family="sans-serif" font-size="14" lengthAdjust="spacing" textLength="150.9102" x="615.8135" y="486.4082">&#28895;&#33609;&#20844;&#21496;&#32918;&#32463;&#29702;&#65288;P74&#65289;</text><path d="M555.8135,480.6797 L565.8135,480.6797 C580.8135,480.6797 580.8135,480.6797 595.8135,480.6797 L605.8135,480.6797 " fill="none" style="stroke:#181818;stroke-width:1;"/><path d="M443.8135,451.875 L453.8135,451.875 C468.8135,451.875 468.8135,480.6797 483.8135,480.6797 L493.8135,480.6797 " fill="none" style="stroke:#181818;stroke-width:1;"/><path d="M359.8135,509.4844 L369.8135,509.4844 C384.8135,509.4844 384.8135,451.875 399.8135,451.875 L409.8135,451.875 " fill="none" style="stroke:#181818;stroke-width:1;"/><rect fill="#F1F1F1" height="37.6094" rx="12.5" ry="12.5" style="stroke:#181818;stroke-width:1.5;" width="48" x="409.8135" y="519.4844"/><text fill="#000000" font-family="sans-serif" font-size="14" lengthAdjust="spacing" textLength="28" x="419.8135" y="544.0176">&#25928;&#21147;</text><rect fill="#F1F1F1" height="37.6094" rx="12.5" ry="12.5" style="stroke:#181818;stroke-width:1.5;" width="76" x="507.8135" y="519.4844"/><text fill="#000000" font-family="sans-serif" font-size="14" lengthAdjust="spacing" textLength="56" x="517.8135" y="544.0176">&#25928;&#21147;&#24453;&#23450;</text><path d="M457.8135,538.2891 L467.8135,538.2891 C482.8135,538.2891 482.8135,538.2891 497.8135,538.2891 L507.8135,538.2891 " fill="none" style="stroke:#181818;stroke-width:1;"/><path d="M359.8135,509.4844 L369.8135,509.4844 C384.8135,509.4844 384.8135,538.2891 399.8135,538.2891 L409.8135,538.2891 " fill="none" style="stroke:#181818;stroke-width:1;"/><rect fill="#F1F1F1" height="37.6094" rx="12.5" ry="12.5" style="stroke:#181818;stroke-width:1.5;" width="48" x="409.8135" y="577.0938"/><text fill="#000000" font-family="sans-serif" font-size="14" lengthAdjust="spacing" textLength="28" x="419.8135" y="601.627">&#26377;&#21033;</text><rect fill="#F1F1F1" height="37.6094" rx="12.5" ry="12.5" style="stroke:#181818;stroke-width:1.5;" width="183.3379" x="507.8135" y="577.0938"/><text fill="#000000" font-family="sans-serif" font-size="14" lengthAdjust="spacing" textLength="163.3379" x="517.8135" y="601.627">&#23545;&#34987;&#20195;&#29702;&#20154;&#65288;A&#20844;&#21496;&#65289;&#26377;&#21033;</text><path d="M457.8135,595.8984 L467.8135,595.8984 C482.8135,595.8984 482.8135,595.8984 497.8135,595.8984 L507.8135,595.8984 " fill="none" style="stroke:#181818;stroke-width:1;"/><path d="M359.8135,509.4844 L369.8135,509.4844 C384.8135,509.4844 384.8135,595.8984 399.8135,595.8984 L409.8135,595.8984 " fill="none" style="stroke:#181818;stroke-width:1;"/><path d="M165.3379,451.875 L175.3379,451.875 C190.3379,451.875 190.3379,509.4844 205.3379,509.4844 L215.3379,509.4844 " fill="none" style="stroke:#181818;stroke-width:1;"/><rect fill="#F1F1F1" height="37.6094" rx="12.5" ry="12.5" style="stroke:#181818;stroke-width:1.5;" width="144.4756" x="215.3379" y="721.1172"/><text fill="#000000" font-family="sans-serif" font-size="14" lengthAdjust="spacing" textLength="124.4756" x="225.3379" y="745.6504">4. &#34920;&#35265;&#20195;&#29702;&#65288;P75&#65289;</text><rect fill="#F1F1F1" height="37.6094" rx="12.5" ry="12.5" style="stroke:#181818;stroke-width:1.5;" width="34" x="409.8135" y="663.5078"/><text fill="#000000" font-family="sans-serif" font-size="14" lengthAdjust="spacing" textLength="14" x="419.8135" y="688.041">&#20154;</text><rect fill="#F1F1F1" height="37.6094" rx="12.5" ry="12.5" style="stroke:#181818;stroke-width:1.5;" width="62" x="493.8135" y="634.7031"/><text fill="#000000" font-family="sans-serif" font-size="14" lengthAdjust="spacing" textLength="42" x="503.8135" y="659.2363">&#29616;&#21592;&#24037;</text><rect fill="#F1F1F1" height="37.6094" rx="12.5" ry="12.5" style="stroke:#181818;stroke-width:1.5;" width="268.9102" x="605.8135" y="634.7031"/><text fill="#000000" font-family="sans-serif" font-size="14" lengthAdjust="spacing" textLength="248.9102" x="615.8135" y="659.2363">&#19994;&#21153;&#21592;&#20057;&#65292;&#35843;&#31163;&#21518;&#65292;&#21448;&#21435;&#31614;&#21512;&#21516;&#65288;P75&#65289;</text><path d="M555.8135,653.5078 L565.8135,653.5078 C580.8135,653.5078 580.8135,653.5078 595.8135,653.5078 L605.8135,653.5078 " fill="none" style="stroke:#181818;stroke-width:1;"/><path d="M443.8135,682.3125 L453.8135,682.3125 C468.8135,682.3125 468.8135,653.5078 483.8135,653.5078 L493.8135,653.5078 " fill="none" style="stroke:#181818;stroke-width:1;"/><rect fill="#F1F1F1" height="37.6094" rx="12.5" ry="12.5" style="stroke:#181818;stroke-width:1.5;" width="62" x="493.8135" y="692.3125"/><text fill="#000000" font-family="sans-serif" font-size="14" lengthAdjust="spacing" textLength="42" x="503.8135" y="716.8457">&#21069;&#21592;&#24037;</text><rect fill="#F1F1F1" height="37.6094" rx="12.5" ry="12.5" style="stroke:#181818;stroke-width:1.5;" width="286.0205" x="605.8135" y="692.3125"/><text fill="#000000" font-family="sans-serif" font-size="14" lengthAdjust="spacing" textLength="266.0205" x="615.8135" y="716.8457">&#21009;&#27861;&#35838;-&#26032;&#22411;&#19977;&#35282;&#35784;&#39575;-&#20882;&#21517;&#25910;&#27454;&#26696;&#65288;P288&#65289;</text><path d="M555.8135,711.1172 L565.8135,711.1172 C580.8135,711.1172 580.8135,711.1172 595.8135,711.1172 L605.8135,711.1172 " fill="none" style="stroke:#181818;stroke-width:1;"/><path d="M443.8135,682.3125 L453.8135,682.3125 C468.8135,682.3125 468.8135,711.1172 483.8135,711.1172 L493.8135,711.1172 " fill="none" style="stroke:#181818;stroke-width:1;"/><path d="M359.8135,739.9219 L369.8135,739.9219 C384.8135,739.9219 384.8135,682.3125 399.8135,682.3125 L409.8135,682.3125 " fill="none" style="stroke:#181818;stroke-width:1;"/><rect fill="#F1F1F1" height="37.6094" rx="12.5" ry="12.5" style="stroke:#181818;stroke-width:1.5;" width="48" x="409.8135" y="749.9219"/><text fill="#000000" font-family="sans-serif" font-size="14" lengthAdjust="spacing" textLength="28" x="419.8135" y="774.4551">&#25928;&#21147;</text><rect fill="#F1F1F1" height="37.6094" rx="12.5" ry="12.5" style="stroke:#181818;stroke-width:1.5;" width="76" x="507.8135" y="749.9219"/><text fill="#000000" font-family="sans-serif" font-size="14" lengthAdjust="spacing" textLength="56" x="517.8135" y="774.4551">&#21512;&#27861;&#26377;&#25928;</text><path d="M457.8135,768.7266 L467.8135,768.7266 C482.8135,768.7266 482.8135,768.7266 497.8135,768.7266 L507.8135,768.7266 " fill="none" style="stroke:#181818;stroke-width:1;"/><path d="M359.8135,739.9219 L369.8135,739.9219 C384.8135,739.9219 384.8135,768.7266 399.8135,768.7266 L409.8135,768.7266 " fill="none" style="stroke:#181818;stroke-width:1;"/><rect fill="#F1F1F1" height="37.6094" rx="12.5" ry="12.5" style="stroke:#181818;stroke-width:1.5;" width="48" x="409.8135" y="807.5313"/><text fill="#000000" font-family="sans-serif" font-size="14" lengthAdjust="spacing" textLength="28" x="419.8135" y="832.0645">&#26377;&#21033;</text><rect fill="#F1F1F1" height="37.6094" rx="12.5" ry="12.5" style="stroke:#181818;stroke-width:1.5;" width="104" x="507.8135" y="807.5313"/><text fill="#000000" font-family="sans-serif" font-size="14" lengthAdjust="spacing" textLength="84" x="517.8135" y="832.0645">&#23545;&#30456;&#23545;&#20154;&#26377;&#21033;</text><path d="M457.8135,826.3359 L467.8135,826.3359 C482.8135,826.3359 482.8135,826.3359 497.8135,826.3359 L507.8135,826.3359 " fill="none" style="stroke:#181818;stroke-width:1;"/><path d="M359.8135,739.9219 L369.8135,739.9219 C384.8135,739.9219 384.8135,826.3359 399.8135,826.3359 L409.8135,826.3359 " fill="none" style="stroke:#181818;stroke-width:1;"/><path d="M165.3379,451.875 L175.3379,451.875 C190.3379,451.875 190.3379,739.9219 205.3379,739.9219 L215.3379,739.9219 " fill="none" style="stroke:#181818;stroke-width:1;"/><path d="M67.3379,451.875 L77.3379,451.875 C92.3379,451.875 92.3379,451.875 107.3379,451.875 L117.3379,451.875 " fill="none" style="stroke:#181818;stroke-width:1;"/><!--SRC=[xLXRJnj757xVNp5LNm39vkPIXA8AS41jX2DKaxoFrnEpONV7sfrrv5QLIac87IusA8446YvDARqa0IbLogtaptZMvec_qBExDgmDwrqafBw0aEKzvvllp7pdCYpzEiCQKoGrgU2q87mcgQ9i90aAXzlXLsTPcRIdPQmoGv535Ym4k91j3qjW4mGcCPcWqk6RSd4QXH1_yfONzfn7GMX30uv1GF3JLeNP3uwXCupCoO_cuuBZEJtAZNxPUNgKFuDKrnqSr5aSQtb-bo-yvFziNV0vVbwSEdawQ-ON-QzBfqUpvUr9S-OJNrqpysyQ-CqNEVvizP8GZeCVF-7lLnhN_9pdkJykMSDtzYk__EKS23OEPwgA0ETgMDI6kiAeCZdBdssw1EY-DW7UhPlhHNFgG-dVWhdnz6JvRv31NDerNs-LLnxpzskb_OtoytLBcyDN_EZ7qi4qtresSv-2oiEBEVF32pWK8AuWJtbr3pxXJ1Vaw8PwMDumNq-vv8XSbnomLH2QxnRAypENCrTtc9zhobEUMg_CvPsSLdvQAXyMccpr_okj29JMvk-LxKcNbbzSbvQblHLBouMNfVrNK3-LtQdoRuUyE0_VUI77vm_BxuwXEdXnzlAumPJckGL8McNdE0HLozTcIdlvolPYPITtykToY4ylykAS-VoZ-VROtCnPSRfwUw-GWMkgNg6VmFYiZT3- -ebwovwLNmbLmsq9fpIieE-1EfoG3M9_GsWGYnCfZHfgCafbgY5PIeqpom_U7oni4ciJ6abwmAlU6ZYb4Q8sOxO1BdJM1vojOQc6rPJNfXrd3PesjBJi1NMSDQZtmLo7qgZknVRvyF3WO3HQGsQ9BDD77bZ7QKE5i88bTMoSA3NYOQgokFGTGTqTWkKdIdeSwvBkhwKRtU41roUoTahTsAxcMhgXWs0Inw460sr6IgbK8m7oYj28f996-pb5mB1DgImoLQKYKPcNDggT52S5ZYaX0wQ15Ph7sPkeIMTPEtSpgc16dSsh3A99LCLozAhOKOsaiOOjorMM3IIenlpABYWNOv1tvjTf0TcYL85sOrxbK5tfHMUbJoKfo2YGkiLiDhNyCfaa9ErkYFe0Gp154xAaZtkFFDVw-cYFnYNMg8r7cBkK-KUoJoLciHhWL29E4dOM38kYbFIk-RfHxCVy05fHT_KtF8iaXXyImwVBgGnRq6ZILO4-FLPROST9KrrYKeOCYAvsk33EiKo27kJy290Bx4kjI723MhC_I4rLhq6BN3SI3ubeqNkfWpDmRnCj86z6ej11DZNrOxPq3opt-QIlRzpclLfNoxvtY00VjzghVuhSlBBTlBBTlBBTlBBTlB9Ltz56hNzmtOkDe0pHTEicwWntTNH5mhqjSSpGNPf1dJseexCl4kcBzA1eV0nPxbQX9VRD6DAf0HSnIi8rfKa9mvhThS8TdC7eMmCckKBwaFNKCXPhHV6XcX4DgHb9ewe2qrkuSp_cWD3NbCNJbDdWdaXeK68eJZJO5heV4swJ1zYG6ImLQL9IKttetjXmg5SOWIblu1G4Wdir2kEVQLdmnVy3]--></g></svg>