<svg xmlns="http://www.w3.org/2000/svg" xmlns:xlink="http://www.w3.org/1999/xlink" contentStyleType="text/css" height="1212px" preserveAspectRatio="none" style="width:602px;height:1212px;background:#FFFFFF;" version="1.1" viewBox="0 0 602 1212" width="602px" zoomAndPan="magnify"><title>&#20538; - &#20998;&#31867;</title><defs/><g><text fill="#000000" font-family="sans-serif" font-size="14" font-weight="bold" lengthAdjust="spacing" textLength="55.7539" x="271.623" y="34.5332">&#20538; - &#20998;&#31867;</text><rect fill="#F1F1F1" height="37.6094" rx="12.5" ry="12.5" style="stroke:#181818;stroke-width:1.5;" width="34" x="10" y="605.8984"/><text fill="#000000" font-family="sans-serif" font-size="14" lengthAdjust="spacing" textLength="14" x="20" y="630.4316">&#20538;</text><rect fill="#F1F1F1" height="37.6094" rx="12.5" ry="12.5" style="stroke:#181818;stroke-width:1.5;" width="76" x="94" y="346.6563"/><text fill="#000000" font-family="sans-serif" font-size="14" lengthAdjust="spacing" textLength="56" x="104" y="371.1895">&#27861;&#23450;&#20998;&#31867;</text><rect fill="#F1F1F1" height="37.6094" rx="12.5" ry="12.5" style="stroke:#181818;stroke-width:1.5;" width="76" x="220" y="58.6094"/><text fill="#000000" font-family="sans-serif" font-size="14" lengthAdjust="spacing" textLength="56" x="230" y="83.1426">&#20998;&#31867;&#20381;&#25454;</text><rect fill="#F1F1F1" height="37.6094" rx="12.5" ry="12.5" style="stroke:#181818;stroke-width:1.5;" width="76" x="346" y="58.6094"/><text fill="#000000" font-family="sans-serif" font-size="14" lengthAdjust="spacing" textLength="56" x="356" y="83.1426">&#21457;&#29983;&#21407;&#22240;</text><path d="M296,77.4141 L306,77.4141 C321,77.4141 321,77.4141 336,77.4141 L346,77.4141 " fill="none" style="stroke:#181818;stroke-width:1;"/><path d="M170,365.4609 L180,365.4609 C195,365.4609 195,77.4141 210,77.4141 L220,77.4141 " fill="none" style="stroke:#181818;stroke-width:1;"/><rect fill="#F1F1F1" height="37.6094" rx="12.5" ry="12.5" style="stroke:#181818;stroke-width:1.5;" width="76" x="220" y="202.6328"/><text fill="#000000" font-family="sans-serif" font-size="14" lengthAdjust="spacing" textLength="56" x="230" y="227.166">&#33258;&#28982;&#20043;&#20538;</text><rect fill="#90EE90" height="37.6094" rx="12.5" ry="12.5" style="stroke:#181818;stroke-width:1.5;" width="135.8896" x="346" y="116.2188"/><text fill="#000000" font-family="sans-serif" font-size="14" lengthAdjust="spacing" textLength="112" x="356" y="140.752">&#24050;&#36807;&#35785;&#35772;&#26102;&#25928;&#20043;&#20538;</text><path d="M296,221.4375 L306,221.4375 C321,221.4375 321,135.0234 336,135.0234 L346,135.0234 " fill="none" style="stroke:#181818;stroke-width:1;"/><rect fill="#F1F1F1" height="37.6094" rx="12.5" ry="12.5" style="stroke:#181818;stroke-width:1.5;" width="202" x="346" y="173.8281"/><text fill="#000000" font-family="sans-serif" font-size="14" lengthAdjust="spacing" textLength="182" x="356" y="198.3613">&#36172;&#20538;&#12289;&#27602;&#36164;&#12289;&#23254;&#36164;&#31561;&#36829;&#27861;&#20043;&#20538;</text><path d="M296,221.4375 L306,221.4375 C321,221.4375 321,192.6328 336,192.6328 L346,192.6328 " fill="none" style="stroke:#181818;stroke-width:1;"/><rect fill="#F1F1F1" height="37.6094" rx="12.5" ry="12.5" style="stroke:#181818;stroke-width:1.5;" width="48" x="346" y="231.4375"/><text fill="#000000" font-family="sans-serif" font-size="14" lengthAdjust="spacing" textLength="28" x="356" y="255.9707">&#24425;&#31036;</text><path d="M296,221.4375 L306,221.4375 C321,221.4375 321,250.2422 336,250.2422 L346,250.2422 " fill="none" style="stroke:#181818;stroke-width:1;"/><rect fill="#F1F1F1" height="37.6094" rx="12.5" ry="12.5" style="stroke:#181818;stroke-width:1.5;" width="244" x="346" y="289.0469"/><text fill="#000000" font-family="sans-serif" font-size="14" lengthAdjust="spacing" textLength="224" x="356" y="313.5801">&#38480;&#23450;&#32487;&#25215;&#36229;&#20986;&#36951;&#20135;&#32487;&#25215;&#33539;&#22260;&#20197;&#22806;&#20043;&#20538;</text><path d="M296,221.4375 L306,221.4375 C321,221.4375 321,307.8516 336,307.8516 L346,307.8516 " fill="none" style="stroke:#181818;stroke-width:1;"/><path d="M170,365.4609 L180,365.4609 C195,365.4609 195,221.4375 210,221.4375 L220,221.4375 " fill="none" style="stroke:#181818;stroke-width:1;"/><rect fill="#F1F1F1" height="37.6094" rx="12.5" ry="12.5" style="stroke:#181818;stroke-width:1.5;" width="76" x="220" y="375.4609"/><text fill="#000000" font-family="sans-serif" font-size="14" lengthAdjust="spacing" textLength="56" x="230" y="399.9941">&#24847;&#23450;&#20043;&#20538;</text><rect fill="#F1F1F1" height="37.6094" rx="12.5" ry="12.5" style="stroke:#181818;stroke-width:1.5;" width="104" x="346" y="346.6563"/><text fill="#000000" font-family="sans-serif" font-size="14" lengthAdjust="spacing" textLength="84" x="356" y="371.1895">&#21333;&#26041;&#20801;&#35834;&#20043;&#20538;</text><path d="M296,394.2656 L306,394.2656 C321,394.2656 321,365.4609 336,365.4609 L346,365.4609 " fill="none" style="stroke:#181818;stroke-width:1;"/><rect fill="#90EE90" height="37.6094" rx="12.5" ry="12.5" style="stroke:#181818;stroke-width:1.5;" width="79.8896" x="346" y="404.2656"/><text fill="#000000" font-family="sans-serif" font-size="14" lengthAdjust="spacing" textLength="56" x="356" y="428.7988">&#21512;&#21516;&#20043;&#20538;</text><path d="M296,394.2656 L306,394.2656 C321,394.2656 321,423.0703 336,423.0703 L346,423.0703 " fill="none" style="stroke:#181818;stroke-width:1;"/><path d="M170,365.4609 L180,365.4609 C195,365.4609 195,394.2656 210,394.2656 L220,394.2656 " fill="none" style="stroke:#181818;stroke-width:1;"/><rect fill="#90EE90" height="37.6094" rx="12.5" ry="12.5" style="stroke:#181818;stroke-width:1.5;" width="79.8896" x="220" y="548.2891"/><text fill="#000000" font-family="sans-serif" font-size="14" lengthAdjust="spacing" textLength="56" x="230" y="572.8223">&#27861;&#23450;&#20043;&#20538;</text><rect fill="#F1F1F1" height="37.6094" rx="12.5" ry="12.5" style="stroke:#181818;stroke-width:1.5;" width="104" x="349.8896" y="461.875"/><text fill="#000000" font-family="sans-serif" font-size="14" lengthAdjust="spacing" textLength="84" x="359.8896" y="486.4082">&#26080;&#22240;&#31649;&#29702;&#20043;&#20538;</text><path d="M299.8896,567.0938 L309.8896,567.0938 C324.8896,567.0938 324.8896,480.6797 339.8896,480.6797 L349.8896,480.6797 " fill="none" style="stroke:#181818;stroke-width:1;"/><rect fill="#F1F1F1" height="37.6094" rx="12.5" ry="12.5" style="stroke:#181818;stroke-width:1.5;" width="104" x="349.8896" y="519.4844"/><text fill="#000000" font-family="sans-serif" font-size="14" lengthAdjust="spacing" textLength="84" x="359.8896" y="544.0176">&#19981;&#24403;&#24471;&#21033;&#20043;&#20538;</text><path d="M299.8896,567.0938 L309.8896,567.0938 C324.8896,567.0938 324.8896,538.2891 339.8896,538.2891 L349.8896,538.2891 " fill="none" style="stroke:#181818;stroke-width:1;"/><rect fill="#F1F1F1" height="37.6094" rx="12.5" ry="12.5" style="stroke:#181818;stroke-width:1.5;" width="104" x="349.8896" y="577.0938"/><text fill="#000000" font-family="sans-serif" font-size="14" lengthAdjust="spacing" textLength="84" x="359.8896" y="601.627">&#32532;&#32422;&#36807;&#22833;&#20043;&#20538;</text><path d="M299.8896,567.0938 L309.8896,567.0938 C324.8896,567.0938 324.8896,595.8984 339.8896,595.8984 L349.8896,595.8984 " fill="none" style="stroke:#181818;stroke-width:1;"/><rect fill="#F1F1F1" height="37.6094" rx="12.5" ry="12.5" style="stroke:#181818;stroke-width:1.5;" width="76" x="349.8896" y="634.7031"/><text fill="#000000" font-family="sans-serif" font-size="14" lengthAdjust="spacing" textLength="56" x="359.8896" y="659.2363">&#20405;&#26435;&#36131;&#20219;</text><path d="M299.8896,567.0938 L309.8896,567.0938 C324.8896,567.0938 324.8896,653.5078 339.8896,653.5078 L349.8896,653.5078 " fill="none" style="stroke:#181818;stroke-width:1;"/><path d="M170,365.4609 L180,365.4609 C195,365.4609 195,567.0938 210,567.0938 L220,567.0938 " fill="none" style="stroke:#181818;stroke-width:1;"/><path d="M44,624.7031 L54,624.7031 C69,624.7031 69,365.4609 84,365.4609 L94,365.4609 " fill="none" style="stroke:#181818;stroke-width:1;"/><rect fill="#F1F1F1" height="37.6094" rx="12.5" ry="12.5" style="stroke:#181818;stroke-width:1.5;" width="76" x="94" y="922.75"/><text fill="#000000" font-family="sans-serif" font-size="14" lengthAdjust="spacing" textLength="56" x="104" y="947.2832">&#23398;&#29702;&#20998;&#31867;</text><rect fill="#F1F1F1" height="37.6094" rx="12.5" ry="12.5" style="stroke:#181818;stroke-width:1.5;" width="76" x="220" y="692.3125"/><text fill="#000000" font-family="sans-serif" font-size="14" lengthAdjust="spacing" textLength="56" x="230" y="716.8457">&#20998;&#31867;&#20381;&#25454;</text><rect fill="#F1F1F1" height="37.6094" rx="12.5" ry="12.5" style="stroke:#181818;stroke-width:1.5;" width="104" x="346" y="692.3125"/><text fill="#000000" font-family="sans-serif" font-size="14" lengthAdjust="spacing" textLength="84" x="356" y="716.8457">&#20154;&#12289;&#29289;&#12289;&#20851;&#31995;</text><path d="M296,711.1172 L306,711.1172 C321,711.1172 321,711.1172 336,711.1172 L346,711.1172 " fill="none" style="stroke:#181818;stroke-width:1;"/><path d="M170,941.5547 L180,941.5547 C195,941.5547 195,711.1172 210,711.1172 L220,711.1172 " fill="none" style="stroke:#181818;stroke-width:1;"/><rect fill="#F1F1F1" height="37.6094" rx="12.5" ry="12.5" style="stroke:#181818;stroke-width:1.5;" width="76" x="220" y="793.1289"/><text fill="#000000" font-family="sans-serif" font-size="14" lengthAdjust="spacing" textLength="56" x="230" y="817.6621">&#20027;&#20307;&#25968;&#37327;</text><rect fill="#F1F1F1" height="37.6094" rx="12.5" ry="12.5" style="stroke:#181818;stroke-width:1.5;" width="76" x="346" y="749.9219"/><text fill="#000000" font-family="sans-serif" font-size="14" lengthAdjust="spacing" textLength="56" x="356" y="774.4551">&#21333;&#19968;&#20043;&#20538;</text><path d="M296,811.9336 L306,811.9336 C321,811.9336 321,768.7266 336,768.7266 L346,768.7266 " fill="none" style="stroke:#181818;stroke-width:1;"/><rect fill="#90EE90" height="37.6094" rx="12.5" ry="12.5" style="stroke:#181818;stroke-width:1.5;" width="93.8896" x="346" y="807.5313"/><text fill="#000000" font-family="sans-serif" font-size="14" lengthAdjust="spacing" textLength="70" x="356" y="832.0645">&#22810;&#25968;&#20154;&#20043;&#20538;</text><rect fill="#F1F1F1" height="37.6094" rx="12.5" ry="12.5" style="stroke:#181818;stroke-width:1.5;" width="76" x="489.8896" y="778.7266"/><text fill="#000000" font-family="sans-serif" font-size="14" lengthAdjust="spacing" textLength="56" x="499.8896" y="803.2598">&#25353;&#20221;&#20043;&#20538;</text><path d="M439.8896,826.3359 L449.8896,826.3359 C464.8896,826.3359 464.8896,797.5313 479.8896,797.5313 L489.8896,797.5313 " fill="none" style="stroke:#181818;stroke-width:1;"/><rect fill="#F1F1F1" height="37.6094" rx="12.5" ry="12.5" style="stroke:#181818;stroke-width:1.5;" width="76" x="489.8896" y="836.3359"/><text fill="#000000" font-family="sans-serif" font-size="14" lengthAdjust="spacing" textLength="56" x="499.8896" y="860.8691">&#36830;&#24102;&#20043;&#20538;</text><path d="M439.8896,826.3359 L449.8896,826.3359 C464.8896,826.3359 464.8896,855.1406 479.8896,855.1406 L489.8896,855.1406 " fill="none" style="stroke:#181818;stroke-width:1;"/><path d="M296,811.9336 L306,811.9336 C321,811.9336 321,826.3359 336,826.3359 L346,826.3359 " fill="none" style="stroke:#181818;stroke-width:1;"/><path d="M170,941.5547 L180,941.5547 C195,941.5547 195,811.9336 210,811.9336 L220,811.9336 " fill="none" style="stroke:#181818;stroke-width:1;"/><rect fill="#90EE90" height="37.6094" rx="12.5" ry="12.5" style="stroke:#181818;stroke-width:1.5;" width="65.8896" x="220" y="965.957"/><text fill="#000000" font-family="sans-serif" font-size="14" lengthAdjust="spacing" textLength="42" x="230" y="990.4902">&#26631;&#30340;&#29289;</text><rect fill="#F1F1F1" height="37.6094" rx="12.5" ry="12.5" style="stroke:#181818;stroke-width:1.5;" width="76" x="335.8896" y="922.75"/><text fill="#000000" font-family="sans-serif" font-size="14" lengthAdjust="spacing" textLength="56" x="345.8896" y="947.2832">&#36130;&#29289;&#20043;&#20538;</text><rect fill="#F1F1F1" height="37.6094" rx="12.5" ry="12.5" style="stroke:#181818;stroke-width:1.5;" width="76" x="461.8896" y="893.9453"/><text fill="#000000" font-family="sans-serif" font-size="14" lengthAdjust="spacing" textLength="56" x="471.8896" y="918.4785">&#29305;&#23450;&#20043;&#20538;</text><path d="M411.8896,941.5547 L421.8896,941.5547 C436.8896,941.5547 436.8896,912.75 451.8896,912.75 L461.8896,912.75 " fill="none" style="stroke:#181818;stroke-width:1;"/><rect fill="#F1F1F1" height="37.6094" rx="12.5" ry="12.5" style="stroke:#181818;stroke-width:1.5;" width="76" x="461.8896" y="951.5547"/><text fill="#000000" font-family="sans-serif" font-size="14" lengthAdjust="spacing" textLength="56" x="471.8896" y="976.0879">&#31181;&#31867;&#20043;&#20538;</text><path d="M411.8896,941.5547 L421.8896,941.5547 C436.8896,941.5547 436.8896,970.3594 451.8896,970.3594 L461.8896,970.3594 " fill="none" style="stroke:#181818;stroke-width:1;"/><path d="M285.8896,984.7617 L295.8896,984.7617 C310.8896,984.7617 310.8896,941.5547 325.8896,941.5547 L335.8896,941.5547 " fill="none" style="stroke:#181818;stroke-width:1;"/><rect fill="#F1F1F1" height="37.6094" rx="12.5" ry="12.5" style="stroke:#181818;stroke-width:1.5;" width="76" x="335.8896" y="980.3594"/><text fill="#000000" font-family="sans-serif" font-size="14" lengthAdjust="spacing" textLength="56" x="345.8896" y="1004.8926">&#21171;&#21153;&#20043;&#20538;</text><path d="M285.8896,984.7617 L295.8896,984.7617 C310.8896,984.7617 310.8896,999.1641 325.8896,999.1641 L335.8896,999.1641 " fill="none" style="stroke:#181818;stroke-width:1;"/><rect fill="#F1F1F1" height="37.6094" rx="12.5" ry="12.5" style="stroke:#181818;stroke-width:1.5;" width="76" x="335.8896" y="1037.9688"/><text fill="#000000" font-family="sans-serif" font-size="14" lengthAdjust="spacing" textLength="56" x="345.8896" y="1062.502">&#36135;&#24065;&#20043;&#20538;</text><path d="M285.8896,984.7617 L295.8896,984.7617 C310.8896,984.7617 310.8896,1056.7734 325.8896,1056.7734 L335.8896,1056.7734 " fill="none" style="stroke:#181818;stroke-width:1;"/><path d="M170,941.5547 L180,941.5547 C195,941.5547 195,984.7617 210,984.7617 L220,984.7617 " fill="none" style="stroke:#181818;stroke-width:1;"/><rect fill="#F1F1F1" height="37.6094" rx="12.5" ry="12.5" style="stroke:#181818;stroke-width:1.5;" width="104" x="220" y="1124.3828"/><text fill="#000000" font-family="sans-serif" font-size="14" lengthAdjust="spacing" textLength="84" x="230" y="1148.916">&#26631;&#30340;&#29289;&#30340;&#21487;&#36873;</text><rect fill="#F1F1F1" height="37.6094" rx="12.5" ry="12.5" style="stroke:#181818;stroke-width:1.5;" width="76" x="374" y="1095.5781"/><text fill="#000000" font-family="sans-serif" font-size="14" lengthAdjust="spacing" textLength="56" x="384" y="1120.1113">&#31616;&#21333;&#20043;&#20538;</text><path d="M324,1143.1875 L334,1143.1875 C349,1143.1875 349,1114.3828 364,1114.3828 L374,1114.3828 " fill="none" style="stroke:#181818;stroke-width:1;"/><rect fill="#90EE90" height="37.6094" rx="12.5" ry="12.5" style="stroke:#181818;stroke-width:1.5;" width="79.8896" x="374" y="1153.1875"/><text fill="#000000" font-family="sans-serif" font-size="14" lengthAdjust="spacing" textLength="56" x="384" y="1177.7207">&#36873;&#25321;&#20043;&#20538;</text><path d="M324,1143.1875 L334,1143.1875 C349,1143.1875 349,1171.9922 364,1171.9922 L374,1171.9922 " fill="none" style="stroke:#181818;stroke-width:1;"/><path d="M170,941.5547 L180,941.5547 C195,941.5547 195,1143.1875 210,1143.1875 L220,1143.1875 " fill="none" style="stroke:#181818;stroke-width:1;"/><path d="M44,624.7031 L54,624.7031 C69,624.7031 69,941.5547 84,941.5547 L94,941.5547 " fill="none" style="stroke:#181818;stroke-width:1;"/><!--SRC=[xLXjJzjM5FxkNt6dVO5A2Iz3g488KLBGLf6gMcY_tpYtoIssRsHVfyggIQ128IqCjXRGg5Zfna1iAgpZPP3mycCMn-PVx3YnmGbs7FQP24NsESzvphtdxUOog76iSfagAHbd1U4BgeYIdY8e6ks0Futd9TAHbR32TLcAsB08u29LUPI2J10uvH91naGHHP0n-yhyN1A4E_QxWE1p1rNsbeoTLKU3dCyT1re-MwlCxroA7TN2Z-Qx3yOF7uptwnuBQ-OFS-gmVFp6vVPO_FEtTJvZxHQidPFAoc5bQRO6G_tzHCvci4QrWO466-jW3X3_JanMTd-o3gRWmVXp6HxCJmNhV0rMxU_fTDlSE6aGNloy25iqIrkLmhbrE6tC52ycLyh5BKSozz9ulryk_MviB3TmGdIc5i3KtzNyKcNvs9YUj7QB_e35MMDnhjbEtUY7HwEoiWxHDdS-ceklV9sLZ-QDqxV6sOenk-qBC4_UcSLDI8EnyTcVuUoWilRIsl-jN2evjM5ysWH_DwcDSj5EcLdOjlCrlMVkUUtAHwNowTlAqbyNCmlNWra-cl0FuyOgc01nM9ISICqLogLJ7oQdhCv_COush-TvVSPSdO9rDot9_Ly14KXj5exzQyLHRytRKVFTukizu_L7NvMrlsKSJGQl5xwDXTsBYK9ZkdScx9ZwKGAuycRRBvh28851umwRmVhPqr-TAWE28xXFSLh5Cde1xD6af9Fg4q93M1nFgqnNKZ4cCHL9D9tXjXwqtzlO55R7LP8AW3jQ5vnM2L6QCLS17dG-19ntiKp5IZfeqJMb2ytgQbOAWjQKBZHuOvvDgKmBOljoP6HeA1PpaNaYIUnv0BQch4A5g8ofCfOXiaiymXIUeDyHz5MdOElTB8V7qelk381hu_bgIhtOxkQnz4A7G2Hce1HRMWnDAqmbBUGLeL6ga4Rv5KMBRfjIsMIAmaIYyA3OADMar59G4oKbm3ImGlFKrYQgz39hLshEPCnPRV4A1s-KALYAtHJxI2LPh69RSXEpUqccyh2oQvMBSyWx3-kq5jbYJ8Psuq7bu5W6qTdfKqWQCWgatc0scrfXcKmHalKsHBs3OPYYIObgcU2Hvx6lz_OyGtbZR0BSF6Gyt5DrLs8UAotiIiGfmY-TOL6agU2Qhnl5OSnFeHKrJt_3kqZY-1dHGxgSIR04bQKy5HZIOwv5rK-MQPJJ7BadUjhXsZZ74cbr8rTRW5pWK6gPmWbgp_vMQiev1croJKy-8w9D7nGTd8DpcwWjykOeWmwgKhCmPZlkBOVxQjBNDsxpNgshvT0pH82l_WxdfyZjvURsSdDxkRcztFoFoyqZ-vycZ-EZA4TKpPxPNT7kpkwUwDss1ERe8SkXhbxKsTNNqzFNqujYYJ5agzk5jlWtOqXZEXnPA0K3NQL9tPvoxS83dCFeMnrcdapwaFtMDXPlHubXLuY6bHnLcIB3d1CUF8dNGEXhnXDPnglWtfx84EKeGLHO5deI5-wJfrYNE9YAB4MLT1zwF3OIkIkCmZpKSHeSmGaKWq79rJpe4ly1]--></g></svg>