<svg xmlns="http://www.w3.org/2000/svg" xmlns:xlink="http://www.w3.org/1999/xlink" contentStyleType="text/css" height="1897px" preserveAspectRatio="none" style="width:1200px;height:1897px;background:#FFFFFF;" version="1.1" viewBox="0 0 1200 1897" width="1200px" zoomAndPan="magnify"><title>&#21344;&#26377; - &#20998;&#31867;</title><defs/><g><text fill="#000000" font-family="sans-serif" font-size="14" font-weight="bold" lengthAdjust="spacing" textLength="70.1914" x="563.8491" y="34.5332">&#21344;&#26377; - &#20998;&#31867;</text><rect fill="#F1F1F1" height="37.6094" rx="12.5" ry="12.5" style="stroke:#181818;stroke-width:1.5;" width="48" x="10" y="948.4531"/><text fill="#000000" font-family="sans-serif" font-size="14" lengthAdjust="spacing" textLength="28" x="20" y="972.9863">&#21344;&#26377;</text><rect fill="#F1F1F1" height="37.6094" rx="12.5" ry="12.5" style="stroke:#181818;stroke-width:1.5;" width="48" x="108" y="948.4531"/><text fill="#000000" font-family="sans-serif" font-size="14" lengthAdjust="spacing" textLength="28" x="118" y="972.9863">&#20998;&#31867;</text><rect fill="#F1F1F1" height="37.6094" rx="12.5" ry="12.5" style="stroke:#181818;stroke-width:1.5;" width="146" x="206" y="346.6563"/><text fill="#000000" font-family="sans-serif" font-size="14" lengthAdjust="spacing" textLength="126" x="216" y="371.1895">&#26377;&#26435;&#21344;&#26377;&#21644;&#26080;&#26435;&#21344;&#26377;</text><rect fill="#F1F1F1" height="37.6094" rx="12.5" ry="12.5" style="stroke:#181818;stroke-width:1.5;" width="48" x="402" y="145.0234"/><text fill="#000000" font-family="sans-serif" font-size="14" lengthAdjust="spacing" textLength="28" x="412" y="169.5566">&#20381;&#25454;</text><rect fill="#F1F1F1" height="37.6094" rx="12.5" ry="12.5" style="stroke:#181818;stroke-width:1.5;" width="48" x="500" y="145.0234"/><text fill="#000000" font-family="sans-serif" font-size="14" lengthAdjust="spacing" textLength="28" x="510" y="169.5566">&#26435;&#28304;</text><rect fill="#F1F1F1" height="37.6094" rx="12.5" ry="12.5" style="stroke:#181818;stroke-width:1.5;" width="76" x="598" y="145.0234"/><text fill="#000000" font-family="sans-serif" font-size="14" lengthAdjust="spacing" textLength="56" x="608" y="169.5566">&#21512;&#27861;&#21407;&#22240;</text><rect fill="#F1F1F1" height="37.6094" rx="12.5" ry="12.5" style="stroke:#181818;stroke-width:1.5;" width="76" x="724" y="87.4141"/><text fill="#000000" font-family="sans-serif" font-size="14" lengthAdjust="spacing" textLength="56" x="734" y="111.9473">&#27861;&#23450;&#21407;&#22240;</text><rect fill="#F1F1F1" height="37.6094" rx="12.5" ry="12.5" style="stroke:#181818;stroke-width:1.5;" width="76" x="850" y="58.6094"/><text fill="#000000" font-family="sans-serif" font-size="14" lengthAdjust="spacing" textLength="56" x="860" y="83.1426">&#27861;&#23450;&#30417;&#25252;</text><rect fill="#F1F1F1" height="37.6094" rx="12.5" ry="12.5" style="stroke:#181818;stroke-width:1.5;" width="175.5723" x="976" y="58.6094"/><text fill="#000000" font-family="sans-serif" font-size="14" lengthAdjust="spacing" textLength="155.5723" x="986" y="83.1426">&#29238;&#27597;&#24110;&#23401;&#23376;&#20445;&#31649;10&#26681;&#37329;&#26465;</text><path d="M926,77.4141 L936,77.4141 C951,77.4141 951,77.4141 966,77.4141 L976,77.4141 " fill="none" style="stroke:#181818;stroke-width:1;"/><path d="M800,106.2188 L810,106.2188 C825,106.2188 825,77.4141 840,77.4141 L850,77.4141 " fill="none" style="stroke:#181818;stroke-width:1;"/><rect fill="#F1F1F1" height="37.6094" rx="12.5" ry="12.5" style="stroke:#181818;stroke-width:1.5;" width="90" x="850" y="116.2188"/><text fill="#000000" font-family="sans-serif" font-size="14" lengthAdjust="spacing" textLength="70" x="860" y="140.752">&#36130;&#20135;&#20195;&#31649;&#20154;</text><rect fill="#F1F1F1" height="37.6094" rx="12.5" ry="12.5" style="stroke:#181818;stroke-width:1.5;" width="174" x="990" y="116.2188"/><text fill="#000000" font-family="sans-serif" font-size="14" lengthAdjust="spacing" textLength="154" x="1000" y="140.752">&#22971;&#23376;&#24110;&#22833;&#36394;&#19976;&#22827;&#31649;&#29702;&#36130;&#20135;</text><path d="M940,135.0234 L950,135.0234 C965,135.0234 965,135.0234 980,135.0234 L990,135.0234 " fill="none" style="stroke:#181818;stroke-width:1;"/><path d="M800,106.2188 L810,106.2188 C825,106.2188 825,135.0234 840,135.0234 L850,135.0234 " fill="none" style="stroke:#181818;stroke-width:1;"/><path d="M674,163.8281 L684,163.8281 C699,163.8281 699,106.2188 714,106.2188 L724,106.2188 " fill="none" style="stroke:#181818;stroke-width:1;"/><rect fill="#F1F1F1" height="37.6094" rx="12.5" ry="12.5" style="stroke:#181818;stroke-width:1.5;" width="76" x="724" y="202.6328"/><text fill="#000000" font-family="sans-serif" font-size="14" lengthAdjust="spacing" textLength="56" x="734" y="227.166">&#21512;&#21516;&#21407;&#22240;</text><rect fill="#F1F1F1" height="37.6094" rx="12.5" ry="12.5" style="stroke:#181818;stroke-width:1.5;" width="48" x="850" y="173.8281"/><text fill="#000000" font-family="sans-serif" font-size="14" lengthAdjust="spacing" textLength="28" x="860" y="198.3613">&#29289;&#26435;</text><rect fill="#F1F1F1" height="37.6094" rx="12.5" ry="12.5" style="stroke:#181818;stroke-width:1.5;" width="167.7861" x="948" y="173.8281"/><text fill="#000000" font-family="sans-serif" font-size="14" lengthAdjust="spacing" textLength="147.7861" x="958" y="198.3613">&#25269;&#25276;&#65306;&#20511;1&#19975;&#65292;&#25163;&#34920;&#25269;&#25276;</text><path d="M898,192.6328 L908,192.6328 C923,192.6328 923,192.6328 938,192.6328 L948,192.6328 " fill="none" style="stroke:#181818;stroke-width:1;"/><path d="M800,221.4375 L810,221.4375 C825,221.4375 825,192.6328 840,192.6328 L850,192.6328 " fill="none" style="stroke:#181818;stroke-width:1;"/><rect fill="#F1F1F1" height="37.6094" rx="12.5" ry="12.5" style="stroke:#181818;stroke-width:1.5;" width="48" x="850" y="231.4375"/><text fill="#000000" font-family="sans-serif" font-size="14" lengthAdjust="spacing" textLength="28" x="860" y="255.9707">&#20538;&#26435;</text><rect fill="#F1F1F1" height="37.6094" rx="12.5" ry="12.5" style="stroke:#181818;stroke-width:1.5;" width="174" x="948" y="231.4375"/><text fill="#000000" font-family="sans-serif" font-size="14" lengthAdjust="spacing" textLength="154" x="958" y="255.9707">&#31199;&#36161;&#65306;&#31199;&#25151;&#23376;&#65292;&#21344;&#26377;&#25151;&#23376;</text><path d="M898,250.2422 L908,250.2422 C923,250.2422 923,250.2422 938,250.2422 L948,250.2422 " fill="none" style="stroke:#181818;stroke-width:1;"/><path d="M800,221.4375 L810,221.4375 C825,221.4375 825,250.2422 840,250.2422 L850,250.2422 " fill="none" style="stroke:#181818;stroke-width:1;"/><path d="M674,163.8281 L684,163.8281 C699,163.8281 699,221.4375 714,221.4375 L724,221.4375 " fill="none" style="stroke:#181818;stroke-width:1;"/><path d="M548,163.8281 L558,163.8281 C573,163.8281 573,163.8281 588,163.8281 L598,163.8281 " fill="none" style="stroke:#181818;stroke-width:1;"/><path d="M450,163.8281 L460,163.8281 C475,163.8281 475,163.8281 490,163.8281 L500,163.8281 " fill="none" style="stroke:#181818;stroke-width:1;"/><path d="M352,365.4609 L362,365.4609 C377,365.4609 377,163.8281 392,163.8281 L402,163.8281 " fill="none" style="stroke:#181818;stroke-width:1;"/><rect fill="#F1F1F1" height="37.6094" rx="12.5" ry="12.5" style="stroke:#181818;stroke-width:1.5;" width="76" x="402" y="404.2656"/><text fill="#000000" font-family="sans-serif" font-size="14" lengthAdjust="spacing" textLength="56" x="412" y="428.7988">&#20851;&#38190;&#38382;&#39064;</text><rect fill="#F1F1F1" height="37.6094" rx="12.5" ry="12.5" style="stroke:#181818;stroke-width:1.5;" width="76" x="528" y="317.8516"/><text fill="#000000" font-family="sans-serif" font-size="14" lengthAdjust="spacing" textLength="56" x="538" y="342.3848">&#36716;&#25442;&#20851;&#31995;</text><rect fill="#F1F1F1" height="37.6094" rx="12.5" ry="12.5" style="stroke:#181818;stroke-width:1.5;" width="174" x="654" y="289.0469"/><text fill="#000000" font-family="sans-serif" font-size="14" lengthAdjust="spacing" textLength="154" x="664" y="313.5801">&#31199;&#25151;&#65292;&#31199;&#26399;&#20869;&#65292;&#26377;&#26435;&#21344;&#26377;</text><path d="M604,336.6563 L614,336.6563 C629,336.6563 629,307.8516 644,307.8516 L654,307.8516 " fill="none" style="stroke:#181818;stroke-width:1;"/><rect fill="#F1F1F1" height="37.6094" rx="12.5" ry="12.5" style="stroke:#181818;stroke-width:1.5;" width="174" x="654" y="346.6563"/><text fill="#000000" font-family="sans-serif" font-size="14" lengthAdjust="spacing" textLength="154" x="664" y="371.1895">&#31199;&#26399;&#23626;&#28385;&#65292;&#21464;&#20026;&#26080;&#26435;&#21344;&#26377;</text><path d="M604,336.6563 L614,336.6563 C629,336.6563 629,365.4609 644,365.4609 L654,365.4609 " fill="none" style="stroke:#181818;stroke-width:1;"/><path d="M478,423.0703 L488,423.0703 C503,423.0703 503,336.6563 518,336.6563 L528,336.6563 " fill="none" style="stroke:#181818;stroke-width:1;"/><rect fill="#F1F1F1" height="37.6094" rx="12.5" ry="12.5" style="stroke:#181818;stroke-width:1.5;" width="76" x="528" y="461.875"/><text fill="#000000" font-family="sans-serif" font-size="14" lengthAdjust="spacing" textLength="56" x="538" y="486.4082">&#30456;&#23545;&#32780;&#35328;</text><rect fill="#F1F1F1" height="37.6094" rx="12.5" ry="12.5" style="stroke:#181818;stroke-width:1.5;" width="244" x="654" y="404.2656"/><text fill="#000000" font-family="sans-serif" font-size="14" lengthAdjust="spacing" textLength="224" x="664" y="428.7988">&#23391;&#26576;&#30340;&#34920;&#65292;&#34987;&#39532;&#26576;&#20599;&#20102;&#65292;&#38144;&#36163;&#32473;&#26361;&#26576;</text><path d="M604,480.6797 L614,480.6797 C629,480.6797 629,423.0703 644,423.0703 L654,423.0703 " fill="none" style="stroke:#181818;stroke-width:1;"/><rect fill="#F1F1F1" height="37.6094" rx="12.5" ry="12.5" style="stroke:#181818;stroke-width:1.5;" width="342" x="654" y="461.875"/><text fill="#000000" font-family="sans-serif" font-size="14" lengthAdjust="spacing" textLength="322" x="664" y="486.4082">&#26361;&#26576;&#30456;&#23545;&#20110;&#39532;&#26576;&#65292;&#26159;&#26377;&#26435;&#21344;&#26377;&#65292;&#20004;&#20154;&#20043;&#38388;&#26377;&#20080;&#21334;&#21512;&#21516;</text><path d="M604,480.6797 L614,480.6797 C629,480.6797 629,480.6797 644,480.6797 L654,480.6797 " fill="none" style="stroke:#181818;stroke-width:1;"/><rect fill="#F1F1F1" height="37.6094" rx="12.5" ry="12.5" style="stroke:#181818;stroke-width:1.5;" width="328" x="654" y="519.4844"/><text fill="#000000" font-family="sans-serif" font-size="14" lengthAdjust="spacing" textLength="308" x="664" y="544.0176">&#26361;&#26576;&#30456;&#23545;&#20110;&#23391;&#26576;&#65292;&#26159;&#26080;&#26435;&#21344;&#26377;&#65292;&#23391;&#26576;&#26159;&#21407;&#25152;&#26377;&#26435;&#20154;</text><path d="M604,480.6797 L614,480.6797 C629,480.6797 629,538.2891 644,538.2891 L654,538.2891 " fill="none" style="stroke:#181818;stroke-width:1;"/><path d="M478,423.0703 L488,423.0703 C503,423.0703 503,480.6797 518,480.6797 L528,480.6797 " fill="none" style="stroke:#181818;stroke-width:1;"/><path d="M352,365.4609 L362,365.4609 C377,365.4609 377,423.0703 392,423.0703 L402,423.0703 " fill="none" style="stroke:#181818;stroke-width:1;"/><rect fill="#F1F1F1" height="37.6094" rx="12.5" ry="12.5" style="stroke:#181818;stroke-width:1.5;" width="76" x="402" y="605.8984"/><text fill="#000000" font-family="sans-serif" font-size="14" lengthAdjust="spacing" textLength="56" x="412" y="630.4316">&#21306;&#20998;&#24847;&#20041;</text><rect fill="#F1F1F1" height="37.6094" rx="12.5" ry="12.5" style="stroke:#181818;stroke-width:1.5;" width="146" x="528" y="605.8984"/><text fill="#000000" font-family="sans-serif" font-size="14" lengthAdjust="spacing" textLength="126" x="538" y="630.4316">&#12302;&#36820;&#36824;&#21407;&#29289;&#35831;&#27714;&#26435;&#12303;</text><rect fill="#F1F1F1" height="37.6094" rx="12.5" ry="12.5" style="stroke:#181818;stroke-width:1.5;" width="161.9414" x="724" y="577.0938"/><text fill="#000000" font-family="sans-serif" font-size="14" lengthAdjust="spacing" textLength="141.9414" x="734" y="601.627">&#25152;&#26377;&#26435;&#20154; ---&gt; &#26080;&#26435;&#21344;&#26377;</text><path d="M674,624.7031 L684,624.7031 C699,624.7031 699,595.8984 714,595.8984 L724,595.8984 " fill="none" style="stroke:#181818;stroke-width:1;"/><rect fill="#F1F1F1" height="37.6094" rx="12.5" ry="12.5" style="stroke:#181818;stroke-width:1.5;" width="203.9414" x="724" y="634.7031"/><text fill="#000000" font-family="sans-serif" font-size="14" lengthAdjust="spacing" textLength="183.9414" x="734" y="659.2363">&#38750;&#25152;&#26377;&#26435;&#20154;&#21344;&#26377; ---&gt; &#26080;&#26435;&#21344;&#26377;</text><path d="M674,624.7031 L684,624.7031 C699,624.7031 699,653.5078 714,653.5078 L724,653.5078 " fill="none" style="stroke:#181818;stroke-width:1;"/><path d="M478,624.7031 L488,624.7031 C503,624.7031 503,624.7031 518,624.7031 L528,624.7031 " fill="none" style="stroke:#181818;stroke-width:1;"/><path d="M352,365.4609 L362,365.4609 C377,365.4609 377,624.7031 392,624.7031 L402,624.7031 " fill="none" style="stroke:#181818;stroke-width:1;"/><path d="M156,967.2578 L166,967.2578 C181,967.2578 181,365.4609 196,365.4609 L206,365.4609 " fill="none" style="stroke:#181818;stroke-width:1;"/><rect fill="#F1F1F1" height="37.6094" rx="12.5" ry="12.5" style="stroke:#181818;stroke-width:1.5;" width="146" x="206" y="1092.4766"/><text fill="#000000" font-family="sans-serif" font-size="14" lengthAdjust="spacing" textLength="126" x="216" y="1117.0098">&#21892;&#24847;&#21344;&#26377;&#21644;&#24694;&#24847;&#21344;&#26377;</text><rect fill="#F1F1F1" height="37.6094" rx="12.5" ry="12.5" style="stroke:#181818;stroke-width:1.5;" width="48" x="402" y="726.2578"/><text fill="#000000" font-family="sans-serif" font-size="14" lengthAdjust="spacing" textLength="28" x="412" y="750.791">&#38582;&#23646;</text><rect fill="#F1F1F1" height="42.75" rx="12.5" ry="12.5" style="stroke:#181818;stroke-width:1.5;" width="100.8896" x="500" y="692.3125"/><text fill="#000000" font-family="sans-serif" font-size="14" lengthAdjust="spacing" textLength="56" x="510" y="721.9863">&#26080;&#26435;&#21344;&#26377;</text><path d="M589.9907,703.1146 C589.1793,702.5884 588.0961,702.8194 587.5705,703.6303 L577.7646,718.745 L572.9825,714.3233 C572.2726,713.6671 571.166,713.7103 570.5097,714.4202 C569.8535,715.1295 569.8966,716.2373 570.6066,716.8929 L576.8856,722.6983 C577.0658,722.8534 577.0658,722.8534 577.1492,722.9077 C577.4432,723.099 577.7734,723.19 578.1001,723.19 C578.6729,723.19 579.2346,722.9088 579.5701,722.392 L590.5064,705.5348 C591.0326,704.724 590.8016,703.6402 589.9907,703.1146 " fill="#FE0000" style="stroke:;stroke-width:0;stroke-dasharray:;"/><path d="M450,745.0625 L460,745.0625 C475,745.0625 475,713.6875 490,713.6875 L500,713.6875 " fill="none" style="stroke:#181818;stroke-width:1;"/><rect fill="#F1F1F1" height="42.75" rx="12.5" ry="12.5" style="stroke:#181818;stroke-width:1.5;" width="100.8896" x="500" y="755.0625"/><text fill="#000000" font-family="sans-serif" font-size="14" lengthAdjust="spacing" textLength="56" x="510" y="784.7363">&#26377;&#26435;&#21344;&#26377;</text><path d="M582.4506,775.5637 L589.5876,768.4272 C590.157,767.8578 590.157,766.9344 589.5876,766.3651 C589.0177,765.7952 588.0949,765.7952 587.5256,766.3651 L580.3885,773.5016 L573.252,766.3651 C572.6826,765.7952 571.7586,765.7952 571.1899,766.3651 C570.62,766.9344 570.62,767.8578 571.1899,768.4272 L578.3264,775.5637 L571.1736,782.7171 C570.6036,783.287 570.6036,784.2098 571.1736,784.7792 C571.4582,785.0638 571.8316,785.2062 572.2049,785.2062 C572.5782,785.2062 572.9516,785.0638 573.2362,784.7792 L580.3891,777.6258 L587.5256,784.7623 C587.8102,785.0469 588.1836,785.1893 588.5569,785.1893 C588.9302,785.1893 589.303,785.0469 589.5882,784.7623 C590.1576,784.1923 590.1576,783.2695 589.5882,782.7002 L582.4506,775.5637 " fill="#FE0000" style="stroke:;stroke-width:0;stroke-dasharray:;"/><path d="M450,745.0625 L460,745.0625 C475,745.0625 475,776.4375 490,776.4375 L500,776.4375 " fill="none" style="stroke:#181818;stroke-width:1;"/><path d="M352,1111.2813 L362,1111.2813 C377,1111.2813 377,745.0625 392,745.0625 L402,745.0625 " fill="none" style="stroke:#181818;stroke-width:1;"/><rect fill="#F1F1F1" height="37.6094" rx="12.5" ry="12.5" style="stroke:#181818;stroke-width:1.5;" width="76" x="402" y="938.1719"/><text fill="#000000" font-family="sans-serif" font-size="14" lengthAdjust="spacing" textLength="56" x="412" y="962.7051">&#20998;&#31867;&#26631;&#20934;</text><rect fill="#F1F1F1" height="37.6094" rx="12.5" ry="12.5" style="stroke:#181818;stroke-width:1.5;" width="104" x="528" y="938.1719"/><text fill="#000000" font-family="sans-serif" font-size="14" lengthAdjust="spacing" textLength="84" x="538" y="962.7051">&#35823;&#20449;&#19988;&#26080;&#24576;&#30097;</text><rect fill="#F1F1F1" height="37.6094" rx="12.5" ry="12.5" style="stroke:#181818;stroke-width:1.5;" width="90" x="682" y="880.5625"/><text fill="#000000" font-family="sans-serif" font-size="14" lengthAdjust="spacing" textLength="70" x="692" y="905.0957">&#26159;&#65288;&#21892;&#24847;&#65289;</text><rect fill="#F1F1F1" height="42.75" rx="12.5" ry="12.5" style="stroke:#181818;stroke-width:1.5;" width="128.8896" x="822" y="817.8125"/><text fill="#000000" font-family="sans-serif" font-size="14" lengthAdjust="spacing" textLength="84" x="832" y="847.4863">&#35823;&#25343;&#20182;&#20154;&#34892;&#26446;</text><path d="M927.473,847.6458 C927.473,848.8125 927.473,848.8125 926.3063,848.8125 C925.1396,848.8125 925.1396,847.6458 925.1396,847.6458 L925.1396,828.9792 C925.1396,827.8125 925.1396,827.8125 926.3063,827.8125 C927.473,827.8125 927.473,828.9792 927.473,828.9792 L927.473,847.6458 " fill="#66757F" style="stroke:;stroke-width:0;stroke-dasharray:;"/><path d="M926.3063,830.1458 C926.3063,828.8625 927.2606,828.25 928.4273,828.7849 L938.1847,833.2573 C939.3514,833.7923 939.3514,834.6673 938.1847,835.2016 L928.4273,839.674 C927.2606,840.2083 926.3063,839.5958 926.3063,838.3125 L926.3063,830.1458 " fill="#DD2E44" style="stroke:;stroke-width:0;stroke-dasharray:;"/><path d="M772,899.3672 L782,899.3672 C797,899.3672 797,839.1875 812,839.1875 L822,839.1875 " fill="none" style="stroke:#181818;stroke-width:1;"/><rect fill="#F1F1F1" height="42.75" rx="12.5" ry="12.5" style="stroke:#181818;stroke-width:1.5;" width="240.8896" x="822" y="880.5625"/><text fill="#000000" font-family="sans-serif" font-size="14" lengthAdjust="spacing" textLength="196" x="832" y="910.2363">&#12302;&#30423;&#36163;&#29289;&#12303;&#30340;&#12302;&#20080;&#21463;&#20154;&#12303;&#19981;&#30693;&#24773;</text><path d="M1039.473,910.3958 C1039.473,911.5625 1039.473,911.5625 1038.3063,911.5625 C1037.1396,911.5625 1037.1396,910.3958 1037.1396,910.3958 L1037.1396,891.7292 C1037.1396,890.5625 1037.1396,890.5625 1038.3063,890.5625 C1039.473,890.5625 1039.473,891.7292 1039.473,891.7292 L1039.473,910.3958 " fill="#66757F" style="stroke:;stroke-width:0;stroke-dasharray:;"/><path d="M1038.3063,892.8958 C1038.3063,891.6125 1039.2606,891 1040.4273,891.5349 L1050.1847,896.0073 C1051.3514,896.5423 1051.3514,897.4173 1050.1847,897.9516 L1040.4273,902.424 C1039.2606,902.9583 1038.3063,902.3458 1038.3063,901.0625 L1038.3063,892.8958 " fill="#DD2E44" style="stroke:;stroke-width:0;stroke-dasharray:;"/><path d="M772,899.3672 L782,899.3672 C797,899.3672 797,901.9375 812,901.9375 L822,901.9375 " fill="none" style="stroke:#181818;stroke-width:1;"/><rect fill="#F1F1F1" height="37.6094" rx="12.5" ry="12.5" style="stroke:#181818;stroke-width:1.5;" width="146" x="822" y="943.3125"/><text fill="#000000" font-family="sans-serif" font-size="14" lengthAdjust="spacing" textLength="126" x="832" y="967.8457">&#32487;&#25215;&#29289;&#20013;&#26377;&#20182;&#20154;&#20043;&#29289;</text><path d="M772,899.3672 L782,899.3672 C797,899.3672 797,962.1172 812,962.1172 L822,962.1172 " fill="none" style="stroke:#181818;stroke-width:1;"/><path d="M632,956.9766 L642,956.9766 C657,956.9766 657,899.3672 672,899.3672 L682,899.3672 " fill="none" style="stroke:#181818;stroke-width:1;"/><rect fill="#F1F1F1" height="37.6094" rx="12.5" ry="12.5" style="stroke:#181818;stroke-width:1.5;" width="90" x="682" y="1029.7266"/><text fill="#000000" font-family="sans-serif" font-size="14" lengthAdjust="spacing" textLength="70" x="692" y="1054.2598">&#21542;&#65288;&#24694;&#24847;&#65289;</text><rect fill="#F1F1F1" height="37.6094" rx="12.5" ry="12.5" style="stroke:#181818;stroke-width:1.5;" width="230" x="822" y="1000.9219"/><text fill="#000000" font-family="sans-serif" font-size="14" lengthAdjust="spacing" textLength="210" x="832" y="1025.4551">&#26126;&#30693;&#26159;&#21035;&#20154;&#30340;&#19996;&#35199;&#36824;&#20599;&#65288;&#20599;&#19996;&#35199;&#65289;</text><path d="M772,1048.5313 L782,1048.5313 C797,1048.5313 797,1019.7266 812,1019.7266 L822,1019.7266 " fill="none" style="stroke:#181818;stroke-width:1;"/><rect fill="#F1F1F1" height="37.6094" rx="12.5" ry="12.5" style="stroke:#181818;stroke-width:1.5;" width="258" x="822" y="1058.5313"/><text fill="#000000" font-family="sans-serif" font-size="14" lengthAdjust="spacing" textLength="238" x="832" y="1083.0645">&#26126;&#30693;&#26159;&#21035;&#20154;&#30340;&#19996;&#35199;&#36824;&#25441;&#65288;&#25342;&#24471;&#36951;&#22833;&#29289;&#65289;</text><path d="M772,1048.5313 L782,1048.5313 C797,1048.5313 797,1077.3359 812,1077.3359 L822,1077.3359 " fill="none" style="stroke:#181818;stroke-width:1;"/><path d="M632,956.9766 L642,956.9766 C657,956.9766 657,1048.5313 672,1048.5313 L682,1048.5313 " fill="none" style="stroke:#181818;stroke-width:1;"/><path d="M478,956.9766 L488,956.9766 C503,956.9766 503,956.9766 518,956.9766 L528,956.9766 " fill="none" style="stroke:#181818;stroke-width:1;"/><path d="M352,1111.2813 L362,1111.2813 C377,1111.2813 377,956.9766 392,956.9766 L402,956.9766 " fill="none" style="stroke:#181818;stroke-width:1;"/><rect fill="#F1F1F1" height="37.6094" rx="12.5" ry="12.5" style="stroke:#181818;stroke-width:1.5;" width="76" x="402" y="1304.3906"/><text fill="#000000" font-family="sans-serif" font-size="14" lengthAdjust="spacing" textLength="56" x="412" y="1328.9238">&#21306;&#20998;&#24847;&#20041;</text><rect fill="#F1F1F1" height="37.6094" rx="12.5" ry="12.5" style="stroke:#181818;stroke-width:1.5;" width="258" x="528" y="1116.1406"/><text fill="#000000" font-family="sans-serif" font-size="14" lengthAdjust="spacing" textLength="238" x="538" y="1140.6738">&#37325;&#28857;&#20854;&#23454;&#35201;&#20445;&#25252;&#30340;&#23601;&#26159;&#12302;&#26080;&#26435;&#21344;&#26377;&#20154;&#12303;</text><path d="M478,1323.1953 L488,1323.1953 C503,1323.1953 503,1134.9453 518,1134.9453 L528,1134.9453 " fill="none" style="stroke:#181818;stroke-width:1;"/><rect fill="#F1F1F1" height="37.6094" rx="12.5" ry="12.5" style="stroke:#181818;stroke-width:1.5;" width="118" x="528" y="1333.1953"/><text fill="#000000" font-family="sans-serif" font-size="14" lengthAdjust="spacing" textLength="98" x="538" y="1357.7285">&#26435;&#21033;&#21644;&#36131;&#20219;&#19981;&#21516;</text><rect fill="#F1F1F1" height="37.6094" rx="12.5" ry="12.5" style="stroke:#181818;stroke-width:1.5;" width="104" x="696" y="1207.6953"/><text fill="#000000" font-family="sans-serif" font-size="14" lengthAdjust="spacing" textLength="84" x="706" y="1232.2285">&#26435;&#21033;&#65288;&#22909;&#22788;&#65289;</text><rect fill="#F1F1F1" height="37.6094" rx="12.5" ry="12.5" style="stroke:#181818;stroke-width:1.5;" width="104" x="850" y="1207.6953"/><text fill="#000000" font-family="sans-serif" font-size="14" lengthAdjust="spacing" textLength="84" x="860" y="1232.2285">&#35831;&#27714;&#24517;&#35201;&#36153;&#29992;</text><rect fill="#F1F1F1" height="42.75" rx="12.5" ry="12.5" style="stroke:#181818;stroke-width:1.5;" width="100.8896" x="1004" y="1173.75"/><text fill="#000000" font-family="sans-serif" font-size="14" lengthAdjust="spacing" textLength="56" x="1014" y="1203.4238">&#21892;&#24847;&#21344;&#26377;</text><path d="M1093.9907,1184.5521 C1093.1793,1184.0259 1092.0961,1184.2569 1091.5705,1185.0678 L1081.7646,1200.1825 L1076.9825,1195.7608 C1076.2726,1195.1046 1075.166,1195.1478 1074.5097,1195.8577 C1073.8535,1196.567 1073.8966,1197.6748 1074.6066,1198.3304 L1080.8856,1204.1358 C1081.0658,1204.2909 1081.0658,1204.2909 1081.1492,1204.3452 C1081.4432,1204.5365 1081.7734,1204.6275 1082.1001,1204.6275 C1082.6729,1204.6275 1083.2346,1204.3463 1083.5701,1203.8295 L1094.5064,1186.9723 C1095.0326,1186.1615 1094.8016,1185.0777 1093.9907,1184.5521 " fill="#FE0000" style="stroke:;stroke-width:0;stroke-dasharray:;"/><path d="M954,1226.5 L964,1226.5 C979,1226.5 979,1195.125 994,1195.125 L1004,1195.125 " fill="none" style="stroke:#181818;stroke-width:1;"/><rect fill="#F1F1F1" height="42.75" rx="12.5" ry="12.5" style="stroke:#181818;stroke-width:1.5;" width="100.8896" x="1004" y="1236.5"/><text fill="#000000" font-family="sans-serif" font-size="14" lengthAdjust="spacing" textLength="56" x="1014" y="1266.1738">&#24694;&#24847;&#21344;&#26377;</text><path d="M1086.4506,1257.0012 L1093.5876,1249.8647 C1094.157,1249.2953 1094.157,1248.3719 1093.5876,1247.8026 C1093.0177,1247.2327 1092.0949,1247.2327 1091.5256,1247.8026 L1084.3885,1254.9391 L1077.252,1247.8026 C1076.6826,1247.2327 1075.7586,1247.2327 1075.1899,1247.8026 C1074.62,1248.3719 1074.62,1249.2953 1075.1899,1249.8647 L1082.3264,1257.0012 L1075.1736,1264.1546 C1074.6036,1264.7245 1074.6036,1265.6473 1075.1736,1266.2167 C1075.4582,1266.5013 1075.8316,1266.6437 1076.2049,1266.6437 C1076.5782,1266.6437 1076.9516,1266.5013 1077.2362,1266.2167 L1084.3891,1259.0633 L1091.5256,1266.1998 C1091.8102,1266.4844 1092.1836,1266.6268 1092.5569,1266.6268 C1092.9302,1266.6268 1093.303,1266.4844 1093.5882,1266.1998 C1094.1576,1265.6298 1094.1576,1264.707 1093.5882,1264.1377 L1086.4506,1257.0012 " fill="#FE0000" style="stroke:;stroke-width:0;stroke-dasharray:;"/><path d="M954,1226.5 L964,1226.5 C979,1226.5 979,1257.875 994,1257.875 L1004,1257.875 " fill="none" style="stroke:#181818;stroke-width:1;"/><path d="M800,1226.5 L810,1226.5 C825,1226.5 825,1226.5 840,1226.5 L850,1226.5 " fill="none" style="stroke:#181818;stroke-width:1;"/><path d="M646,1352 L656,1352 C671,1352 671,1226.5 686,1226.5 L696,1226.5 " fill="none" style="stroke:#181818;stroke-width:1;"/><rect fill="#F1F1F1" height="37.6094" rx="12.5" ry="12.5" style="stroke:#181818;stroke-width:1.5;" width="104" x="696" y="1395.9453"/><text fill="#000000" font-family="sans-serif" font-size="14" lengthAdjust="spacing" textLength="84" x="706" y="1420.4785">&#36131;&#20219;&#65288;&#22351;&#22788;&#65289;</text><rect fill="#F1F1F1" height="37.6094" rx="12.5" ry="12.5" style="stroke:#181818;stroke-width:1.5;" width="188" x="850" y="1333.1953"/><text fill="#000000" font-family="sans-serif" font-size="14" lengthAdjust="spacing" textLength="168" x="860" y="1357.7285">&#25215;&#25285;&#25439;&#23475;&#36180;&#20607;&#65288;&#29616;&#22312;&#26102;&#24577;&#65289;</text><rect fill="#F1F1F1" height="42.75" rx="12.5" ry="12.5" style="stroke:#181818;stroke-width:1.5;" width="100.8896" x="1088" y="1299.25"/><text fill="#000000" font-family="sans-serif" font-size="14" lengthAdjust="spacing" textLength="56" x="1098" y="1328.9238">&#21892;&#24847;&#21344;&#26377;</text><path d="M1170.4506,1319.7512 L1177.5876,1312.6147 C1178.157,1312.0453 1178.157,1311.1219 1177.5876,1310.5526 C1177.0177,1309.9827 1176.0949,1309.9827 1175.5256,1310.5526 L1168.3885,1317.6891 L1161.252,1310.5526 C1160.6826,1309.9827 1159.7586,1309.9827 1159.1899,1310.5526 C1158.62,1311.1219 1158.62,1312.0453 1159.1899,1312.6147 L1166.3264,1319.7512 L1159.1736,1326.9046 C1158.6036,1327.4745 1158.6036,1328.3973 1159.1736,1328.9667 C1159.4582,1329.2513 1159.8316,1329.3937 1160.2049,1329.3937 C1160.5782,1329.3937 1160.9516,1329.2513 1161.2362,1328.9667 L1168.3891,1321.8133 L1175.5256,1328.9498 C1175.8102,1329.2344 1176.1836,1329.3768 1176.5569,1329.3768 C1176.9302,1329.3768 1177.303,1329.2344 1177.5882,1328.9498 C1178.1576,1328.3798 1178.1576,1327.457 1177.5882,1326.8877 L1170.4506,1319.7512 " fill="#FE0000" style="stroke:;stroke-width:0;stroke-dasharray:;"/><path d="M1038,1352 L1048,1352 C1063,1352 1063,1320.625 1078,1320.625 L1088,1320.625 " fill="none" style="stroke:#181818;stroke-width:1;"/><rect fill="#F1F1F1" height="42.75" rx="12.5" ry="12.5" style="stroke:#181818;stroke-width:1.5;" width="100.8896" x="1088" y="1362"/><text fill="#000000" font-family="sans-serif" font-size="14" lengthAdjust="spacing" textLength="56" x="1098" y="1391.6738">&#24694;&#24847;&#21344;&#26377;</text><path d="M1177.9907,1372.8021 C1177.1793,1372.2759 1176.0961,1372.5069 1175.5705,1373.3178 L1165.7646,1388.4325 L1160.9825,1384.0108 C1160.2726,1383.3546 1159.166,1383.3978 1158.5097,1384.1077 C1157.8535,1384.817 1157.8966,1385.9248 1158.6066,1386.5804 L1164.8856,1392.3858 C1165.0658,1392.5409 1165.0658,1392.5409 1165.1492,1392.5952 C1165.4432,1392.7865 1165.7734,1392.8775 1166.1001,1392.8775 C1166.6729,1392.8775 1167.2346,1392.5963 1167.5701,1392.0795 L1178.5064,1375.2223 C1179.0326,1374.4115 1178.8016,1373.3277 1177.9907,1372.8021 " fill="#FE0000" style="stroke:;stroke-width:0;stroke-dasharray:;"/><path d="M1038,1352 L1048,1352 C1063,1352 1063,1383.375 1078,1383.375 L1088,1383.375 " fill="none" style="stroke:#181818;stroke-width:1;"/><path d="M800,1414.75 L810,1414.75 C825,1414.75 825,1352 840,1352 L850,1352 " fill="none" style="stroke:#181818;stroke-width:1;"/><rect fill="#F1F1F1" height="37.6094" rx="12.5" ry="12.5" style="stroke:#181818;stroke-width:1.5;" width="160" x="850" y="1458.6953"/><text fill="#000000" font-family="sans-serif" font-size="14" lengthAdjust="spacing" textLength="140" x="860" y="1483.2285">&#25215;&#25285;&#39118;&#38505;&#65288;&#26410;&#26469;&#26102;&#24577;&#65289;</text><rect fill="#F1F1F1" height="42.75" rx="12.5" ry="12.5" style="stroke:#181818;stroke-width:1.5;" width="100.8896" x="1060" y="1424.75"/><text fill="#000000" font-family="sans-serif" font-size="14" lengthAdjust="spacing" textLength="56" x="1070" y="1454.4238">&#21892;&#24847;&#21344;&#26377;</text><path d="M1142.4506,1445.2512 L1149.5876,1438.1147 C1150.157,1437.5453 1150.157,1436.6219 1149.5876,1436.0526 C1149.0177,1435.4827 1148.0949,1435.4827 1147.5256,1436.0526 L1140.3885,1443.1891 L1133.252,1436.0526 C1132.6826,1435.4827 1131.7586,1435.4827 1131.1899,1436.0526 C1130.62,1436.6219 1130.62,1437.5453 1131.1899,1438.1147 L1138.3264,1445.2512 L1131.1736,1452.4046 C1130.6036,1452.9745 1130.6036,1453.8973 1131.1736,1454.4667 C1131.4582,1454.7513 1131.8316,1454.8937 1132.2049,1454.8937 C1132.5782,1454.8937 1132.9516,1454.7513 1133.2362,1454.4667 L1140.3891,1447.3133 L1147.5256,1454.4498 C1147.8102,1454.7344 1148.1836,1454.8768 1148.5569,1454.8768 C1148.9302,1454.8768 1149.303,1454.7344 1149.5882,1454.4498 C1150.1576,1453.8798 1150.1576,1452.957 1149.5882,1452.3877 L1142.4506,1445.2512 " fill="#FE0000" style="stroke:;stroke-width:0;stroke-dasharray:;"/><path d="M1010,1477.5 L1020,1477.5 C1035,1477.5 1035,1446.125 1050,1446.125 L1060,1446.125 " fill="none" style="stroke:#181818;stroke-width:1;"/><rect fill="#F1F1F1" height="42.75" rx="12.5" ry="12.5" style="stroke:#181818;stroke-width:1.5;" width="100.8896" x="1060" y="1487.5"/><text fill="#000000" font-family="sans-serif" font-size="14" lengthAdjust="spacing" textLength="56" x="1070" y="1517.1738">&#24694;&#24847;&#21344;&#26377;</text><path d="M1149.9907,1498.3021 C1149.1793,1497.7759 1148.0961,1498.0069 1147.5705,1498.8178 L1137.7646,1513.9325 L1132.9825,1509.5108 C1132.2726,1508.8546 1131.166,1508.8978 1130.5097,1509.6077 C1129.8535,1510.317 1129.8966,1511.4248 1130.6066,1512.0804 L1136.8856,1517.8858 C1137.0658,1518.0409 1137.0658,1518.0409 1137.1492,1518.0952 C1137.4432,1518.2865 1137.7734,1518.3775 1138.1001,1518.3775 C1138.6729,1518.3775 1139.2346,1518.0963 1139.5701,1517.5795 L1150.5064,1500.7223 C1151.0326,1499.9115 1150.8016,1498.8277 1149.9907,1498.3021 " fill="#FE0000" style="stroke:;stroke-width:0;stroke-dasharray:;"/><path d="M1010,1477.5 L1020,1477.5 C1035,1477.5 1035,1508.875 1050,1508.875 L1060,1508.875 " fill="none" style="stroke:#181818;stroke-width:1;"/><path d="M800,1414.75 L810,1414.75 C825,1414.75 825,1477.5 840,1477.5 L850,1477.5 " fill="none" style="stroke:#181818;stroke-width:1;"/><path d="M646,1352 L656,1352 C671,1352 671,1414.75 686,1414.75 L696,1414.75 " fill="none" style="stroke:#181818;stroke-width:1;"/><path d="M478,1323.1953 L488,1323.1953 C503,1323.1953 503,1352 518,1352 L528,1352 " fill="none" style="stroke:#181818;stroke-width:1;"/><path d="M352,1111.2813 L362,1111.2813 C377,1111.2813 377,1323.1953 392,1323.1953 L402,1323.1953 " fill="none" style="stroke:#181818;stroke-width:1;"/><path d="M156,967.2578 L166,967.2578 C181,967.2578 181,1111.2813 196,1111.2813 L206,1111.2813 " fill="none" style="stroke:#181818;stroke-width:1;"/><rect fill="#F1F1F1" height="37.6094" rx="12.5" ry="12.5" style="stroke:#181818;stroke-width:1.5;" width="146" x="206" y="1579.0547"/><text fill="#000000" font-family="sans-serif" font-size="14" lengthAdjust="spacing" textLength="126" x="216" y="1603.5879">&#33258;&#20027;&#21344;&#26377;&#21644;&#20182;&#20027;&#21344;&#26377;</text><rect fill="#F1F1F1" height="37.6094" rx="12.5" ry="12.5" style="stroke:#181818;stroke-width:1.5;" width="48" x="402" y="1579.0547"/><text fill="#000000" font-family="sans-serif" font-size="14" lengthAdjust="spacing" textLength="28" x="412" y="1603.5879">&#24515;&#24577;</text><rect fill="#F1F1F1" height="37.6094" rx="12.5" ry="12.5" style="stroke:#181818;stroke-width:1.5;" width="48" x="500" y="1550.25"/><text fill="#000000" font-family="sans-serif" font-size="14" lengthAdjust="spacing" textLength="28" x="510" y="1574.7832">&#24819;&#36824;</text><rect fill="#F1F1F1" height="37.6094" rx="12.5" ry="12.5" style="stroke:#181818;stroke-width:1.5;" width="76" x="598" y="1550.25"/><text fill="#000000" font-family="sans-serif" font-size="14" lengthAdjust="spacing" textLength="56" x="608" y="1574.7832">&#20182;&#20027;&#21344;&#26377;</text><path d="M548,1569.0547 L558,1569.0547 C573,1569.0547 573,1569.0547 588,1569.0547 L598,1569.0547 " fill="none" style="stroke:#181818;stroke-width:1;"/><path d="M450,1597.8594 L460,1597.8594 C475,1597.8594 475,1569.0547 490,1569.0547 L500,1569.0547 " fill="none" style="stroke:#181818;stroke-width:1;"/><rect fill="#F1F1F1" height="37.6094" rx="12.5" ry="12.5" style="stroke:#181818;stroke-width:1.5;" width="62" x="500" y="1607.8594"/><text fill="#000000" font-family="sans-serif" font-size="14" lengthAdjust="spacing" textLength="42" x="510" y="1632.3926">&#19981;&#24819;&#36824;</text><rect fill="#F1F1F1" height="37.6094" rx="12.5" ry="12.5" style="stroke:#181818;stroke-width:1.5;" width="76" x="612" y="1607.8594"/><text fill="#000000" font-family="sans-serif" font-size="14" lengthAdjust="spacing" textLength="56" x="622" y="1632.3926">&#33258;&#20027;&#21344;&#26377;</text><path d="M562,1626.6641 L572,1626.6641 C587,1626.6641 587,1626.6641 602,1626.6641 L612,1626.6641 " fill="none" style="stroke:#181818;stroke-width:1;"/><path d="M450,1597.8594 L460,1597.8594 C475,1597.8594 475,1626.6641 490,1626.6641 L500,1626.6641 " fill="none" style="stroke:#181818;stroke-width:1;"/><path d="M352,1597.8594 L362,1597.8594 C377,1597.8594 377,1597.8594 392,1597.8594 L402,1597.8594 " fill="none" style="stroke:#181818;stroke-width:1;"/><path d="M156,967.2578 L166,967.2578 C181,967.2578 181,1597.8594 196,1597.8594 L206,1597.8594 " fill="none" style="stroke:#181818;stroke-width:1;"/><rect fill="#F1F1F1" height="37.6094" rx="12.5" ry="12.5" style="stroke:#181818;stroke-width:1.5;" width="146" x="206" y="1751.8828"/><text fill="#000000" font-family="sans-serif" font-size="14" lengthAdjust="spacing" textLength="126" x="216" y="1776.416">&#30452;&#25509;&#21344;&#26377;&#21644;&#38388;&#25509;&#21344;&#26377;</text><rect fill="#F1F1F1" height="37.6094" rx="12.5" ry="12.5" style="stroke:#181818;stroke-width:1.5;" width="48" x="402" y="1665.4688"/><text fill="#000000" font-family="sans-serif" font-size="14" lengthAdjust="spacing" textLength="28" x="412" y="1690.002">&#35760;&#24518;</text><rect fill="#F1F1F1" height="37.6094" rx="12.5" ry="12.5" style="stroke:#181818;stroke-width:1.5;" width="146" x="500" y="1665.4688"/><text fill="#000000" font-family="sans-serif" font-size="14" lengthAdjust="spacing" textLength="126" x="510" y="1690.002">&#33021;&#20511;&#33021;&#36824;&#65292;&#20877;&#20511;&#19981;&#38590;</text><path d="M450,1684.2734 L460,1684.2734 C475,1684.2734 475,1684.2734 490,1684.2734 L500,1684.2734 " fill="none" style="stroke:#181818;stroke-width:1;"/><path d="M352,1770.6875 L362,1770.6875 C377,1770.6875 377,1684.2734 392,1684.2734 L402,1684.2734 " fill="none" style="stroke:#181818;stroke-width:1;"/><rect fill="#F1F1F1" height="37.6094" rx="12.5" ry="12.5" style="stroke:#181818;stroke-width:1.5;" width="76" x="402" y="1780.6875"/><text fill="#000000" font-family="sans-serif" font-size="14" lengthAdjust="spacing" textLength="56" x="412" y="1805.2207">&#19977;&#20010;&#26465;&#20214;</text><rect fill="#F1F1F1" height="37.6094" rx="12.5" ry="12.5" style="stroke:#181818;stroke-width:1.5;" width="244" x="528" y="1723.0781"/><text fill="#000000" font-family="sans-serif" font-size="14" lengthAdjust="spacing" textLength="224" x="538" y="1747.6113">&#21344;&#26377;&#23186;&#20171;&#20851;&#31995;&#65288;&#23458;&#35266;&#65306;&#21512;&#21516;&#65292;&#33021;&#20511;&#65289;</text><path d="M478,1799.4922 L488,1799.4922 C503,1799.4922 503,1741.8828 518,1741.8828 L528,1741.8828 " fill="none" style="stroke:#181818;stroke-width:1;"/><rect fill="#F1F1F1" height="37.6094" rx="12.5" ry="12.5" style="stroke:#181818;stroke-width:1.5;" width="216" x="528" y="1780.6875"/><text fill="#000000" font-family="sans-serif" font-size="14" lengthAdjust="spacing" textLength="196" x="538" y="1805.2207">&#20182;&#20027;&#21344;&#26377;&#65288;&#20027;&#35266;&#65306;&#24515;&#24577;&#65292;&#33021;&#36824;&#65289;</text><path d="M478,1799.4922 L488,1799.4922 C503,1799.4922 503,1799.4922 518,1799.4922 L528,1799.4922 " fill="none" style="stroke:#181818;stroke-width:1;"/><rect fill="#F1F1F1" height="37.6094" rx="12.5" ry="12.5" style="stroke:#181818;stroke-width:1.5;" width="258" x="528" y="1838.2969"/><text fill="#000000" font-family="sans-serif" font-size="14" lengthAdjust="spacing" textLength="238" x="538" y="1862.8301">&#36820;&#36824;&#21407;&#29289;&#35831;&#27714;&#26435;&#65288;&#23458;&#35266;&#65306;&#26435;&#21033;&#65292;&#33021;&#36824;&#65289;</text><path d="M478,1799.4922 L488,1799.4922 C503,1799.4922 503,1857.1016 518,1857.1016 L528,1857.1016 " fill="none" style="stroke:#181818;stroke-width:1;"/><path d="M352,1770.6875 L362,1770.6875 C377,1770.6875 377,1799.4922 392,1799.4922 L402,1799.4922 " fill="none" style="stroke:#181818;stroke-width:1;"/><path d="M156,967.2578 L166,967.2578 C181,967.2578 181,1770.6875 196,1770.6875 L206,1770.6875 " fill="none" style="stroke:#181818;stroke-width:1;"/><path d="M58,967.2578 L68,967.2578 C83,967.2578 83,967.2578 98,967.2578 L108,967.2578 " fill="none" style="stroke:#181818;stroke-width:1;"/><!--SRC=[xLhTJnDP57-Vl-9kV56J8hZ464ACWf9T8yOiw2iPsh4TcSuqqodQtMpIobSBjA1XAGAr5450fK10x0VIFyQPEzCd_eKzTwQ5QUrqga-xIHlIz9vxpkzytwzmso_HekHbUPUNzb7KBoplv08k1hMrNOC_lnJac6i-ZkQbW9Tp43O7y3bqUXiBD8gIM8bZa19RmwjHv41AP58zA53KrJA9Gl2vMY6ZykSgWYcS73DubDUpEB5sFZpdCZZbqoIEPQg8POZa6CxFVpTHLZWVmOV_AF6Kih9MbwMC0JoPPHisCwkwyWfFRpHaDTZLo37UYodPZBAxe-pEoyMacabtjEErN6dg5KwcRRHfH-joVaikl0CfEPzlGg7olW1wYCAD0otxGSv6b8sF8AtEJnfW3S80qLBcPviAWnhTWS0tOG-U_eodJyvEbfLGgaFEJfsTpEBeZ9RUDYPir2YXV7DgrAsKzZaCQk07ZXGX1A38A2HZM5DEoiHXQI5JIcHAwqjrYahx-Wd7re59FInGbXe16RIG7wifPNA2k6QgvmPom7umZGjfOkFSafpDMnP-MMObg-pbjD2ijXsoglJT54xDgylZ45g0rTO_bdO-0KK9Vv7paq0fBOIqpsDguGrUoG7T0iQODFJ9-RY1GHnRsZFx1XGvkm4LAUTcIeaZeCYvVIMsQ5HGSzY6nMLia_yaAFeKqA4MSJHaQAwjV_1vDWyh2XwVatFrelOj5DUA2rfn2L2WNhMzB_ZW9G1z2yrPMMZIXHmEnotKC366K2dvrYnNMGCjfS7knN4m-cBL2n-V3siyB2qVAmTlwwrw9cJKVKbaN5qUXXuD3ZazZ7Dao4kB8rstwicPabYMUr73M5ccyTgKCZLPhpdszkHYMiuk42D28NNnbLKub_REJYA6jsSdqGOh3q3YcQ9SM8G0QkbPd8oZxYv9P6dU7U1eSUWfHxk717x89_YbEdvLvLnTIP12Z-v0dg4VW49gSou1q42Hip4rjOd79dvIWLhOmj4YeClPNLBskidG1K2nt8FUGnIC93UE0bwA4zkWx2CV0HMCbxEhscQHb73u2mabDBDE-MaS74iJOsPEbTD4APo0JG8ChqMpxQpIL4nzcLCcZfNCM-rz67Ors0r1ZR9_05eXukRoDE9UV-TM8ZlG0DhHExbGWCmqM3jqNXA2pQ_AnhXTDP5ELueJO9jsb5CNjkss6LD3DjzDDHQQkjYYiypxEl6Ok9ESitK7wWtFJE1OIiaSQfyNb32aFwB6zvNLRPmung5m8t5B1r_yZ4S_49MAtQLtyT8RaZcy-W4dD_z35aCQfk20L3XVY4apLuQr3L4S0xFh5V7O8RILHPej0SlJsLX3SRDvbFaqS8JZc-TMa_stCgonMiliAyMwI_ZOLpYFmJSe9_ljP0o6O4vf-RJst9sDobb8N5ek7DS1AblnuRLSc36EIwIeC-lQrajovjEF0-Guekkhb_Ng884m_2uBwo4tX7KpwmdNtU3D9bGM3XCATPk1YqxbidEx-kxJhTzgRb5bmbsMTekq5_q5kjk6kG2Z_qAeXtQEk4KXmBjw1KuG4SUwFHAPXzc_2QyBQWtgpuAzF5jXTeiCmpT2rXbCt44Rvc25Ln1XXxCosfYiiFe2ee-pOZKcAwpMZfcS4WM_5TgblhwUdjxU2cUGuJZXkGMlCQcpKcrUckK7FOot0jmdyD80-oU3Vcsdo3pZzNbeF-ktZwMPkzs2tJyIr5DgvhtUE9PcrXuWEJrGf4qPmxfvGMIQo2j23rYUgQLVG3IfjY4K0UDvmSdmabLiU3qfHWeCqZ07F3Meq3o6RKwHFS_QnRGaU6b9C8pd9T362ZpDzVuexoEHyT4YJIW_8dPdM10bkx9h5akI8E-INQSrYTOhUA7T9AjoA4jQmP7qyOmRCWgWvc0sMhNiCkbY69-v8QeLt8DLT9XZ_Hxh9SyaNwtjkOULQcDZeUQX8Dbhqhro1cc-2Q-Sj8kHpfNHJYVhigxvggNO3lafjABVrDymTZBzz3CcODFb0WScY8BBL84sFLQHqFN03OQLs57cZjFK3jyjvpJ7DEl8XGkG2zeMsil23ahM_cPgghmD4d1_OFWPuoJmLj6XHs7VPiGcSKTP0Jf8XnRia4dScmxtnKfVtRYDUxMgbctt40g-kg-LZoAjnzNMushhSRNrkDfwN6qzhhOULrkFgwt7rTRZQkjnjVMu-ZzuN7r4_cdaSVy3DCg8Vd9dx6Yxtdwzi-tcvG5QGW-5KTHn0xLtT7LsTdNUGBq3WuXCNw4kz_y-YFn20AxCo0KNIf4T3f1RrXNgFZrAepy2SEVoCbs8Z2uFzbz10_SgH7IF7sL5WVV2FOkw_wJVO4A_2TA0Jv1qvXkTZXvMGWEC26QX9_tKNUOf7U0a47KABfPtTw77WtsEczG3ieFHRb04D-1UkAX9OX3c1lu5]--></g></svg>