<svg xmlns="http://www.w3.org/2000/svg" xmlns:xlink="http://www.w3.org/1999/xlink" contentStyleType="text/css" height="521px" preserveAspectRatio="none" style="width:1008px;height:521px;background:#FFFFFF;" version="1.1" viewBox="0 0 1008 521" width="1008px" zoomAndPan="magnify"><title>&#21344;&#26377; - &#20998;&#31867;</title><defs/><g><text fill="#000000" font-family="sans-serif" font-size="14" font-weight="bold" lengthAdjust="spacing" textLength="70.1914" x="467.4043" y="34.5332">&#21344;&#26377; - &#20998;&#31867;</text><rect fill="#F1F1F1" height="37.6094" rx="12.5" ry="12.5" style="stroke:#181818;stroke-width:1.5;" width="48" x="10" y="260.2422"/><text fill="#000000" font-family="sans-serif" font-size="14" lengthAdjust="spacing" textLength="28" x="20" y="284.7754">&#21344;&#26377;</text><rect fill="#F1F1F1" height="37.6094" rx="12.5" ry="12.5" style="stroke:#181818;stroke-width:1.5;" width="48" x="108" y="260.2422"/><text fill="#000000" font-family="sans-serif" font-size="14" lengthAdjust="spacing" textLength="28" x="118" y="284.7754">&#20998;&#31867;</text><rect fill="#F1F1F1" height="37.6094" rx="12.5" ry="12.5" style="stroke:#181818;stroke-width:1.5;" width="146" x="206" y="260.2422"/><text fill="#000000" font-family="sans-serif" font-size="14" lengthAdjust="spacing" textLength="126" x="216" y="284.7754">&#26377;&#26435;&#21344;&#26377;&#21644;&#26080;&#26435;&#21344;&#26377;</text><rect fill="#F1F1F1" height="37.6094" rx="12.5" ry="12.5" style="stroke:#181818;stroke-width:1.5;" width="48" x="402" y="116.2188"/><text fill="#000000" font-family="sans-serif" font-size="14" lengthAdjust="spacing" textLength="28" x="412" y="140.752">&#20381;&#25454;</text><rect fill="#F1F1F1" height="37.6094" rx="12.5" ry="12.5" style="stroke:#181818;stroke-width:1.5;" width="48" x="500" y="116.2188"/><text fill="#000000" font-family="sans-serif" font-size="14" lengthAdjust="spacing" textLength="28" x="510" y="140.752">&#26435;&#28304;</text><rect fill="#F1F1F1" height="37.6094" rx="12.5" ry="12.5" style="stroke:#181818;stroke-width:1.5;" width="76" x="598" y="116.2188"/><text fill="#000000" font-family="sans-serif" font-size="14" lengthAdjust="spacing" textLength="56" x="608" y="140.752">&#21512;&#27861;&#21407;&#22240;</text><rect fill="#F1F1F1" height="37.6094" rx="12.5" ry="12.5" style="stroke:#181818;stroke-width:1.5;" width="48" x="724" y="58.6094"/><text fill="#000000" font-family="sans-serif" font-size="14" lengthAdjust="spacing" textLength="28" x="734" y="83.1426">&#29289;&#26435;</text><path d="M674,135.0234 L684,135.0234 C699,135.0234 699,77.4141 714,77.4141 L724,77.4141 " fill="none" style="stroke:#181818;stroke-width:1;"/><rect fill="#F1F1F1" height="37.6094" rx="12.5" ry="12.5" style="stroke:#181818;stroke-width:1.5;" width="48" x="724" y="116.2188"/><text fill="#000000" font-family="sans-serif" font-size="14" lengthAdjust="spacing" textLength="28" x="734" y="140.752">&#20538;&#26435;</text><path d="M674,135.0234 L684,135.0234 C699,135.0234 699,135.0234 714,135.0234 L724,135.0234 " fill="none" style="stroke:#181818;stroke-width:1;"/><rect fill="#F1F1F1" height="37.6094" rx="12.5" ry="12.5" style="stroke:#181818;stroke-width:1.5;" width="104" x="724" y="173.8281"/><text fill="#000000" font-family="sans-serif" font-size="14" lengthAdjust="spacing" textLength="84" x="734" y="198.3613">&#20854;&#20182;&#27861;&#24459;&#20851;&#31995;</text><path d="M674,135.0234 L684,135.0234 C699,135.0234 699,192.6328 714,192.6328 L724,192.6328 " fill="none" style="stroke:#181818;stroke-width:1;"/><path d="M548,135.0234 L558,135.0234 C573,135.0234 573,135.0234 588,135.0234 L598,135.0234 " fill="none" style="stroke:#181818;stroke-width:1;"/><path d="M450,135.0234 L460,135.0234 C475,135.0234 475,135.0234 490,135.0234 L500,135.0234 " fill="none" style="stroke:#181818;stroke-width:1;"/><path d="M352,279.0469 L362,279.0469 C377,279.0469 377,135.0234 392,135.0234 L402,135.0234 " fill="none" style="stroke:#181818;stroke-width:1;"/><rect fill="#F1F1F1" height="37.6094" rx="12.5" ry="12.5" style="stroke:#181818;stroke-width:1.5;" width="76" x="402" y="346.6563"/><text fill="#000000" font-family="sans-serif" font-size="14" lengthAdjust="spacing" textLength="56" x="412" y="371.1895">&#20851;&#38190;&#38382;&#39064;</text><rect fill="#F1F1F1" height="37.6094" rx="12.5" ry="12.5" style="stroke:#181818;stroke-width:1.5;" width="48" x="528" y="260.2422"/><text fill="#000000" font-family="sans-serif" font-size="14" lengthAdjust="spacing" textLength="28" x="538" y="284.7754">&#36716;&#25442;</text><rect fill="#F1F1F1" height="37.6094" rx="12.5" ry="12.5" style="stroke:#181818;stroke-width:1.5;" width="174" x="626" y="231.4375"/><text fill="#000000" font-family="sans-serif" font-size="14" lengthAdjust="spacing" textLength="154" x="636" y="255.9707">&#31199;&#25151;&#65292;&#31199;&#26399;&#20869;&#65292;&#26377;&#26435;&#21344;&#26377;</text><path d="M576,279.0469 L586,279.0469 C601,279.0469 601,250.2422 616,250.2422 L626,250.2422 " fill="none" style="stroke:#181818;stroke-width:1;"/><rect fill="#F1F1F1" height="37.6094" rx="12.5" ry="12.5" style="stroke:#181818;stroke-width:1.5;" width="174" x="626" y="289.0469"/><text fill="#000000" font-family="sans-serif" font-size="14" lengthAdjust="spacing" textLength="154" x="636" y="313.5801">&#31199;&#26399;&#23626;&#28385;&#65292;&#21464;&#20026;&#26080;&#26435;&#21344;&#26377;</text><path d="M576,279.0469 L586,279.0469 C601,279.0469 601,307.8516 616,307.8516 L626,307.8516 " fill="none" style="stroke:#181818;stroke-width:1;"/><path d="M478,365.4609 L488,365.4609 C503,365.4609 503,279.0469 518,279.0469 L528,279.0469 " fill="none" style="stroke:#181818;stroke-width:1;"/><rect fill="#F1F1F1" height="37.6094" rx="12.5" ry="12.5" style="stroke:#181818;stroke-width:1.5;" width="76" x="528" y="404.2656"/><text fill="#000000" font-family="sans-serif" font-size="14" lengthAdjust="spacing" textLength="56" x="538" y="428.7988">&#30456;&#23545;&#32780;&#35328;</text><rect fill="#F1F1F1" height="37.6094" rx="12.5" ry="12.5" style="stroke:#181818;stroke-width:1.5;" width="244" x="654" y="346.6563"/><text fill="#000000" font-family="sans-serif" font-size="14" lengthAdjust="spacing" textLength="224" x="664" y="371.1895">&#23391;&#26576;&#30340;&#34920;&#65292;&#34987;&#39532;&#26576;&#20599;&#20102;&#65292;&#38144;&#36163;&#32473;&#26361;&#26576;</text><path d="M604,423.0703 L614,423.0703 C629,423.0703 629,365.4609 644,365.4609 L654,365.4609 " fill="none" style="stroke:#181818;stroke-width:1;"/><rect fill="#F1F1F1" height="37.6094" rx="12.5" ry="12.5" style="stroke:#181818;stroke-width:1.5;" width="342" x="654" y="404.2656"/><text fill="#000000" font-family="sans-serif" font-size="14" lengthAdjust="spacing" textLength="322" x="664" y="428.7988">&#26361;&#26576;&#30456;&#23545;&#20110;&#39532;&#26576;&#65292;&#26159;&#26377;&#26435;&#21344;&#26377;&#65292;&#20004;&#20154;&#20043;&#38388;&#26377;&#20080;&#21334;&#21512;&#21516;</text><path d="M604,423.0703 L614,423.0703 C629,423.0703 629,423.0703 644,423.0703 L654,423.0703 " fill="none" style="stroke:#181818;stroke-width:1;"/><rect fill="#F1F1F1" height="37.6094" rx="12.5" ry="12.5" style="stroke:#181818;stroke-width:1.5;" width="328" x="654" y="461.875"/><text fill="#000000" font-family="sans-serif" font-size="14" lengthAdjust="spacing" textLength="308" x="664" y="486.4082">&#26361;&#26576;&#30456;&#23545;&#20110;&#23391;&#26576;&#65292;&#26159;&#26080;&#26435;&#21344;&#26377;&#65292;&#23391;&#26576;&#26159;&#21407;&#25152;&#26377;&#26435;&#20154;</text><path d="M604,423.0703 L614,423.0703 C629,423.0703 629,480.6797 644,480.6797 L654,480.6797 " fill="none" style="stroke:#181818;stroke-width:1;"/><path d="M478,365.4609 L488,365.4609 C503,365.4609 503,423.0703 518,423.0703 L528,423.0703 " fill="none" style="stroke:#181818;stroke-width:1;"/><path d="M352,279.0469 L362,279.0469 C377,279.0469 377,365.4609 392,365.4609 L402,365.4609 " fill="none" style="stroke:#181818;stroke-width:1;"/><path d="M156,279.0469 L166,279.0469 C181,279.0469 181,279.0469 196,279.0469 L206,279.0469 " fill="none" style="stroke:#181818;stroke-width:1;"/><rect fill="#F1F1F1" height="37.6094" rx="12.5" ry="12.5" style="stroke:#181818;stroke-width:1.5;" width="146" x="206" y="317.8516"/><text fill="#000000" font-family="sans-serif" font-size="14" lengthAdjust="spacing" textLength="126" x="216" y="342.3848">&#21892;&#24847;&#21344;&#26377;&#21644;&#24694;&#24847;&#21344;&#26377;</text><path d="M156,279.0469 L166,279.0469 C181,279.0469 181,336.6563 196,336.6563 L206,336.6563 " fill="none" style="stroke:#181818;stroke-width:1;"/><rect fill="#F1F1F1" height="37.6094" rx="12.5" ry="12.5" style="stroke:#181818;stroke-width:1.5;" width="146" x="206" y="375.4609"/><text fill="#000000" font-family="sans-serif" font-size="14" lengthAdjust="spacing" textLength="126" x="216" y="399.9941">&#33258;&#20027;&#21344;&#26377;&#21644;&#20182;&#20027;&#21344;&#26377;</text><path d="M156,279.0469 L166,279.0469 C181,279.0469 181,394.2656 196,394.2656 L206,394.2656 " fill="none" style="stroke:#181818;stroke-width:1;"/><rect fill="#F1F1F1" height="37.6094" rx="12.5" ry="12.5" style="stroke:#181818;stroke-width:1.5;" width="146" x="206" y="433.0703"/><text fill="#000000" font-family="sans-serif" font-size="14" lengthAdjust="spacing" textLength="126" x="216" y="457.6035">&#30452;&#25509;&#21344;&#26377;&#21644;&#38388;&#25509;&#21344;&#26377;</text><path d="M156,279.0469 L166,279.0469 C181,279.0469 181,451.875 196,451.875 L206,451.875 " fill="none" style="stroke:#181818;stroke-width:1;"/><path d="M58,279.0469 L68,279.0469 C83,279.0469 83,279.0469 98,279.0469 L108,279.0469 " fill="none" style="stroke:#181818;stroke-width:1;"/><!--SRC=[xLTRJnj757xVNp5LNW39vbA48XHLn0weZN0KrIJluzs9FM5tnvgTTUHMbOYu518Wg4g1bY0JrAf9cv96f2dORVfdl6lxAN-XPszcJRBUZTH7BClQEUURxyovxdZA49WBZUgAXikIz0dLPTLK24gdX-5hYAfAXiigreMfgIa7bW9SofMdASWaIL2X4cHj7DXFrb0AMQihhLSDIHhoHHA2pr0WHlvd287Atb_qCDPtw_REGNVPHNd8vjjzU-EeH-XJx2_QzQtt5Bx1hLNx-7jhisRj7NmGui5QQy-1fW_0MgZ709RVD1lRZgst3wtbuzPnGpeFEEuyFkhi77KETp_WHVkV5_R6OOGNhLzgzkg_x_vUTnwUrAoLPNWEXwxFFe2_Uc0tdi8Ewz5kywGU6MD_pzw9zVAqlR3UVhOG5TJVQtPjg_NZKllfCw1j7_xMUVu29DRzlvhr5P1q7Y-q_rniDNwmzqv17a7ZAJrxpVgcn-4ujliox1j8cYS_DUlrvkd3pivha3HF_x0sjY6rrjPwCcxln3vto7ydAAuAv50azjg2PnciXOhKsbwobnwT5UdzDzrb2DN-zjVcIQEBWcheBgLmU5_RcpztKOv3mLAIfWWqOD24KxqzUSNjjiyaNt2DuYB76leQkDC5rIJk4q8PBCyNEJDr9SjKnf5AYoNXw47xZODLC9_dH8c0-ze0NEI4wFsONK08NOq1LmCiurWlHXtQKmRGiidBQXJKKmRGQCT2Jd5cHB5Tcfd9PBBP05abgihkHM0zfGkLqXgc-bo9Q07n3DD5ddv5qASZagCdMhc43Mh4npAC7ec06_DLDwLXx5Z_M8QX6H399IZ6H8UXHPrnaY2l2CrIdPoNdr4aDDkNoY7JTIOJNKJ5HdUJugN04nLKm9nZXURnpYPpsitQcLem3Glc7LuNO8qo7QlPZyNUvAICENOa7xFjQe5n4LTsIRc4WBoBk4vBo9Pb6hIRY2e7VsSKdPC-dHGXeq0Q3cQ_gHMNIOMGShWXUWrCmnGjgDGeHO-yqFvUQ_TAL9oFJOIP6qp4MtAzagjOJ-2LZ1KYkiQmB5CbkkPxHd4SynreHIFKtx2MIGxV9MPCbpCLZi2P4gh0c1uBThXsoioWWbR8LJdK3k-DSwoIf8wSkG2vmB7K6eKtg3FxazIK_nfqo0spS9V83drKT705tjk49-IjK0OTv5ApE6Odxed3VJRfUnktVw_sr7BiEqI2dol3_bNauj9_SUc_kFJ_hvV-cywVx5kvMLGXt71csMXwR6HiF7rv88y5ki4gQ7G2ZOnEZezFZa-WR7uEEUf1QI3tnHmoc0cZ72amw3Wjc4xt3qhNSGMZBqsO1HgPHCvgO2utYFBJWH1DwnNAcQv1_qlNR-Sy4FgSYNoP2HSyCPxAK87oXCEnqEsST8tSmQOgOAlC5AeN9z6jkPdKPMaMveI9Ys089dCM1eZWLT3b_mC0]--></g></svg>