<svg xmlns="http://www.w3.org/2000/svg" xmlns:xlink="http://www.w3.org/1999/xlink" contentStyleType="text/css" height="743px" preserveAspectRatio="none" style="width:1402px;height:743px;background:#FFFFFF;" version="1.1" viewBox="0 0 1402 743" width="1402px" zoomAndPan="magnify"><title>&#21344;&#26377; - &#20998;&#31867;</title><defs/><g><text fill="#000000" font-family="sans-serif" font-size="14" font-weight="bold" lengthAdjust="spacing" textLength="70.1914" x="664.5767" y="34.5332">&#21344;&#26377; - &#20998;&#31867;</text><rect fill="#F1F1F1" height="37.6094" rx="12.5" ry="12.5" style="stroke:#181818;stroke-width:1.5;" width="76" x="10" y="371.3398"/><text fill="#000000" font-family="sans-serif" font-size="14" lengthAdjust="spacing" textLength="56" x="20" y="395.873">&#21344;&#26377;&#20998;&#31867;</text><rect fill="#F1F1F1" height="37.6094" rx="12.5" ry="12.5" style="stroke:#181818;stroke-width:1.5;" width="48" x="136" y="371.3398"/><text fill="#000000" font-family="sans-serif" font-size="14" lengthAdjust="spacing" textLength="28" x="146" y="395.873">&#22330;&#26223;</text><rect fill="#F1F1F1" height="42.75" rx="12.5" ry="12.5" style="stroke:#181818;stroke-width:1.5;" width="86.8896" x="234" y="250.9805"/><text fill="#000000" font-family="sans-serif" font-size="14" lengthAdjust="spacing" textLength="42" x="244" y="280.6543">&#36951;&#22833;&#29289;</text><path d="M297.473,280.8138 C297.473,281.9805 297.473,281.9805 296.3063,281.9805 C295.1396,281.9805 295.1396,280.8138 295.1396,280.8138 L295.1396,262.1471 C295.1396,260.9805 295.1396,260.9805 296.3063,260.9805 C297.473,260.9805 297.473,262.1471 297.473,262.1471 L297.473,280.8138 " fill="#66757F" style="stroke:;stroke-width:0;stroke-dasharray:;"/><path d="M296.3063,263.3138 C296.3063,262.0305 297.2606,261.418 298.4273,261.9529 L308.1847,266.4253 C309.3514,266.9602 309.3514,267.8352 308.1847,268.3696 L298.4273,272.842 C297.2606,273.3763 296.3063,272.7638 296.3063,271.4805 L296.3063,263.3138 " fill="#DD2E44" style="stroke:;stroke-width:0;stroke-dasharray:;"/><rect fill="#F1F1F1" height="37.6094" rx="12.5" ry="12.5" style="stroke:#181818;stroke-width:1.5;" width="62" x="370.8896" y="253.5508"/><text fill="#000000" font-family="sans-serif" font-size="14" lengthAdjust="spacing" textLength="42" x="380.8896" y="278.084">&#25342;&#24471;&#20154;</text><rect fill="#90EE90" height="37.6094" rx="12.5" ry="12.5" style="stroke:#181818;stroke-width:1.5;" width="79.8896" x="482.8896" y="106.957"/><text fill="#000000" font-family="sans-serif" font-size="14" lengthAdjust="spacing" textLength="56" x="492.8896" y="131.4902">&#26080;&#26435;&#21344;&#26377;</text><rect fill="#F1F1F1" height="42.75" rx="12.5" ry="12.5" style="stroke:#181818;stroke-width:1.5;" width="100.8896" x="612.7793" y="58.6094"/><text fill="#000000" font-family="sans-serif" font-size="14" lengthAdjust="spacing" textLength="56" x="622.7793" y="88.2832">&#21892;&#24847;&#21344;&#26377;</text><path d="M695.2299,79.1105 L702.3669,71.974 C702.9363,71.4047 702.9363,70.4813 702.3669,69.912 C701.797,69.342 700.8742,69.342 700.3049,69.912 L693.1678,77.0485 L686.0313,69.912 C685.4619,69.342 684.5379,69.342 683.9692,69.912 C683.3993,70.4813 683.3993,71.4047 683.9692,71.974 L691.1057,79.1105 L683.9529,86.264 C683.3829,86.8339 683.3829,87.7567 683.9529,88.326 C684.2375,88.6107 684.6109,88.753 684.9842,88.753 C685.3575,88.753 685.7309,88.6107 686.0155,88.326 L693.1684,81.1726 L700.3049,88.3091 C700.5895,88.5938 700.9629,88.7361 701.3362,88.7361 C701.7095,88.7361 702.0823,88.5938 702.3675,88.3091 C702.9369,87.7392 702.9369,86.8164 702.3675,86.247 L695.2299,79.1105 " fill="#FE0000" style="stroke:;stroke-width:0;stroke-dasharray:;"/><path d="M562.7793,125.7617 L572.7793,125.7617 C587.7793,125.7617 587.7793,79.9844 602.7793,79.9844 L612.7793,79.9844 " fill="none" style="stroke:#181818;stroke-width:1;"/><rect fill="#90EE90" height="42.75" rx="12.5" ry="12.5" style="stroke:#181818;stroke-width:1.5;" width="104.7793" x="612.7793" y="121.3594"/><text fill="#000000" font-family="sans-serif" font-size="14" lengthAdjust="spacing" textLength="56" x="622.7793" y="151.0332">&#24694;&#24847;&#21344;&#26377;</text><path d="M702.77,132.1615 C701.9586,131.6353 700.8754,131.8663 700.3498,132.6771 L690.5439,147.7919 L685.7618,143.3702 C685.0519,142.714 683.9453,142.7571 683.289,143.467 C682.6328,144.1764 682.6759,145.2841 683.3859,145.9398 L689.6649,151.7451 C689.8451,151.9003 689.8451,151.9003 689.9285,151.9545 C690.2225,152.1459 690.5527,152.2369 690.8794,152.2369 C691.4522,152.2369 692.0139,151.9557 692.3494,151.4389 L703.2857,134.5817 C703.8119,133.7709 703.5809,132.687 702.77,132.1615 " fill="#FE0000" style="stroke:;stroke-width:0;stroke-dasharray:;"/><text fill="#000000" font-family="sans-serif" font-size="14" lengthAdjust="spacing" textLength="3.8896" x="703.6689" y="151.0332">&#160;</text><rect fill="#F1F1F1" height="42.75" rx="12.5" ry="12.5" style="stroke:#181818;stroke-width:1.5;" width="114.8896" x="767.5586" y="92.5547"/><text fill="#000000" font-family="sans-serif" font-size="14" lengthAdjust="spacing" textLength="70" x="777.5586" y="122.2285">&#26368;&#23481;&#26131;&#31572;&#38169;</text><path d="M859.0316,122.388 C859.0316,123.5547 859.0316,123.5547 857.8649,123.5547 C856.6982,123.5547 856.6982,122.388 856.6982,122.388 L856.6982,103.7214 C856.6982,102.5547 856.6982,102.5547 857.8649,102.5547 C859.0316,102.5547 859.0316,103.7214 859.0316,103.7214 L859.0316,122.388 " fill="#66757F" style="stroke:;stroke-width:0;stroke-dasharray:;"/><path d="M857.8649,104.888 C857.8649,103.6047 858.8192,102.9922 859.9859,103.5271 L869.7433,107.9995 C870.91,108.5344 870.91,109.4094 869.7433,109.9438 L859.9859,114.4162 C858.8192,114.9505 857.8649,114.338 857.8649,113.0547 L857.8649,104.888 " fill="#DD2E44" style="stroke:;stroke-width:0;stroke-dasharray:;"/><path d="M717.5586,142.7344 L727.5586,142.7344 C742.5586,142.7344 742.5586,113.9297 757.5586,113.9297 L767.5586,113.9297 " fill="none" style="stroke:#181818;stroke-width:1;"/><rect fill="#F1F1F1" height="37.6094" rx="12.5" ry="12.5" style="stroke:#181818;stroke-width:1.5;" width="426" x="767.5586" y="155.3047"/><text fill="#000000" font-family="sans-serif" font-size="14" lengthAdjust="spacing" textLength="406" x="777.5586" y="179.8379">&#21407;&#22240;&#65306;&#25342;&#24471;&#12302;&#36951;&#22833;&#29289;&#12303;&#24212;&#24403;&#36820;&#36824;&#12302;&#26435;&#21033;&#20154;&#12303;&#25110;&#36865;&#20132;&#20844;&#23433;&#31561;&#26377;&#20851;&#37096;&#38376;</text><path d="M717.5586,142.7344 L727.5586,142.7344 C742.5586,142.7344 742.5586,174.1094 757.5586,174.1094 L767.5586,174.1094 " fill="none" style="stroke:#181818;stroke-width:1;"/><path d="M562.7793,125.7617 L572.7793,125.7617 C587.7793,125.7617 587.7793,142.7344 602.7793,142.7344 L612.7793,142.7344 " fill="none" style="stroke:#181818;stroke-width:1;"/><path d="M432.8896,272.3555 L442.8896,272.3555 C457.8896,272.3555 457.8896,125.7617 472.8896,125.7617 L482.8896,125.7617 " fill="none" style="stroke:#181818;stroke-width:1;"/><rect fill="#F1F1F1" height="37.6094" rx="12.5" ry="12.5" style="stroke:#181818;stroke-width:1.5;" width="48" x="482.8896" y="330.7031"/><text fill="#000000" font-family="sans-serif" font-size="14" lengthAdjust="spacing" textLength="28" x="492.8896" y="355.2363">&#24515;&#24577;</text><rect fill="#F1F1F1" height="37.6094" rx="12.5" ry="12.5" style="stroke:#181818;stroke-width:1.5;" width="48" x="580.8896" y="212.9141"/><text fill="#000000" font-family="sans-serif" font-size="14" lengthAdjust="spacing" textLength="28" x="590.8896" y="237.4473">&#24819;&#36824;</text><rect fill="#90EE90" height="37.6094" rx="12.5" ry="12.5" style="stroke:#181818;stroke-width:1.5;" width="135.8896" x="678.8896" y="212.9141"/><text fill="#000000" font-family="sans-serif" font-size="14" lengthAdjust="spacing" textLength="112" x="688.8896" y="237.4473">&#20182;&#20027;&#21344;&#26377;&#65288;&#24515;&#24577;&#65289;</text><rect fill="#F1F1F1" height="37.6094" rx="12.5" ry="12.5" style="stroke:#181818;stroke-width:1.5;" width="48" x="864.7793" y="212.9141"/><text fill="#000000" font-family="sans-serif" font-size="14" lengthAdjust="spacing" textLength="28" x="874.7793" y="237.4473">&#24773;&#24418;</text><rect fill="#F1F1F1" height="37.6094" rx="12.5" ry="12.5" style="stroke:#181818;stroke-width:1.5;" width="76" x="962.7793" y="212.9141"/><text fill="#000000" font-family="sans-serif" font-size="14" lengthAdjust="spacing" textLength="56" x="972.7793" y="237.4473">&#25307;&#39046;&#21551;&#20107;</text><path d="M912.7793,231.7188 L922.7793,231.7188 C937.7793,231.7188 937.7793,231.7188 952.7793,231.7188 L962.7793,231.7188 " fill="none" style="stroke:#181818;stroke-width:1;"/><path d="M814.7793,231.7188 L824.7793,231.7188 C839.7793,231.7188 839.7793,231.7188 854.7793,231.7188 L864.7793,231.7188 " fill="none" style="stroke:#181818;stroke-width:1;"/><path d="M628.8896,231.7188 L638.8896,231.7188 C653.8896,231.7188 653.8896,231.7188 668.8896,231.7188 L678.8896,231.7188 " fill="none" style="stroke:#181818;stroke-width:1;"/><path d="M530.8896,349.5078 L540.8896,349.5078 C555.8896,349.5078 555.8896,231.7188 570.8896,231.7188 L580.8896,231.7188 " fill="none" style="stroke:#181818;stroke-width:1;"/><rect fill="#F1F1F1" height="37.6094" rx="12.5" ry="12.5" style="stroke:#181818;stroke-width:1.5;" width="62" x="580.8896" y="359.5078"/><text fill="#000000" font-family="sans-serif" font-size="14" lengthAdjust="spacing" textLength="42" x="590.8896" y="384.041">&#19981;&#24819;&#36824;</text><rect fill="#90EE90" height="37.6094" rx="12.5" ry="12.5" style="stroke:#181818;stroke-width:1.5;" width="135.8896" x="692.8896" y="359.5078"/><text fill="#000000" font-family="sans-serif" font-size="14" lengthAdjust="spacing" textLength="112" x="702.8896" y="384.041">&#33258;&#20027;&#21344;&#26377;&#65288;&#24515;&#24577;&#65289;</text><rect fill="#F1F1F1" height="37.6094" rx="12.5" ry="12.5" style="stroke:#181818;stroke-width:1.5;" width="48" x="878.7793" y="270.5234"/><text fill="#000000" font-family="sans-serif" font-size="14" lengthAdjust="spacing" textLength="28" x="888.7793" y="295.0566">&#24773;&#24418;</text><rect fill="#F1F1F1" height="37.6094" rx="12.5" ry="12.5" style="stroke:#181818;stroke-width:1.5;" width="76" x="976.7793" y="270.5234"/><text fill="#000000" font-family="sans-serif" font-size="14" lengthAdjust="spacing" textLength="56" x="986.7793" y="295.0566">&#33258;&#24049;&#20351;&#29992;</text><path d="M926.7793,289.3281 L936.7793,289.3281 C951.7793,289.3281 951.7793,289.3281 966.7793,289.3281 L976.7793,289.3281 " fill="none" style="stroke:#181818;stroke-width:1;"/><path d="M828.7793,378.3125 L838.7793,378.3125 C853.7793,378.3125 853.7793,289.3281 868.7793,289.3281 L878.7793,289.3281 " fill="none" style="stroke:#181818;stroke-width:1;"/><rect fill="#F1F1F1" height="37.6094" rx="12.5" ry="12.5" style="stroke:#181818;stroke-width:1.5;" width="76" x="878.7793" y="388.3125"/><text fill="#000000" font-family="sans-serif" font-size="14" lengthAdjust="spacing" textLength="56" x="888.7793" y="412.8457">&#27861;&#24459;&#21518;&#26524;</text><rect fill="#F1F1F1" height="42.75" rx="12.5" ry="12.5" style="stroke:#181818;stroke-width:1.5;" width="130.4551" x="1004.7793" y="328.1328"/><text fill="#000000" font-family="sans-serif" font-size="14" lengthAdjust="spacing" textLength="85.5654" x="1014.7793" y="357.8066">1. &#20405;&#21344;&#36951;&#22833;&#29289;</text><path d="M1111.8177,357.9661 C1111.8177,359.1328 1111.8177,359.1328 1110.651,359.1328 C1109.4844,359.1328 1109.4844,357.9661 1109.4844,357.9661 L1109.4844,339.2995 C1109.4844,338.1328 1109.4844,338.1328 1110.651,338.1328 C1111.8177,338.1328 1111.8177,339.2995 1111.8177,339.2995 L1111.8177,357.9661 " fill="#66757F" style="stroke:;stroke-width:0;stroke-dasharray:;"/><path d="M1110.651,340.4661 C1110.651,339.1828 1111.6054,338.5703 1112.772,339.1052 L1122.5295,343.5776 C1123.6961,344.1126 1123.6961,344.9876 1122.5295,345.5219 L1112.772,349.9943 C1111.6054,350.5286 1110.651,349.9161 1110.651,348.6328 L1110.651,340.4661 " fill="#DD2E44" style="stroke:;stroke-width:0;stroke-dasharray:;"/><path d="M954.7793,407.1172 L964.7793,407.1172 C979.7793,407.1172 979.7793,349.5078 994.7793,349.5078 L1004.7793,349.5078 " fill="none" style="stroke:#181818;stroke-width:1;"/><rect fill="#F1F1F1" height="37.6094" rx="12.5" ry="12.5" style="stroke:#181818;stroke-width:1.5;" width="161.5654" x="1004.7793" y="390.8828"/><text fill="#000000" font-family="sans-serif" font-size="14" lengthAdjust="spacing" textLength="141.5654" x="1014.7793" y="415.416">2. &#27861;&#24459;&#38646;&#23481;&#24525;&#65292;&#36827;&#19968;&#27493;</text><rect fill="#F1F1F1" height="37.6094" rx="12.5" ry="12.5" style="stroke:#181818;stroke-width:1.5;" width="146" x="1216.3447" y="333.2734"/><text fill="#000000" font-family="sans-serif" font-size="14" lengthAdjust="spacing" textLength="126" x="1226.3447" y="357.8066">&#20007;&#22833;&#12302;&#20538;&#26435;&#35831;&#27714;&#26435;&#12303;</text><path d="M1166.3447,409.6875 L1176.3447,409.6875 C1191.3447,409.6875 1191.3447,352.0781 1206.3447,352.0781 L1216.3447,352.0781 " fill="none" style="stroke:#181818;stroke-width:1;"/><rect fill="#F1F1F1" height="37.6094" rx="12.5" ry="12.5" style="stroke:#181818;stroke-width:1.5;" width="174" x="1216.3447" y="390.8828"/><text fill="#000000" font-family="sans-serif" font-size="14" lengthAdjust="spacing" textLength="154" x="1226.3447" y="415.416">&#20007;&#22833;&#12302;&#24517;&#35201;&#36153;&#29992;&#35831;&#27714;&#26435;&#12303;</text><path d="M1166.3447,409.6875 L1176.3447,409.6875 C1191.3447,409.6875 1191.3447,409.6875 1206.3447,409.6875 L1216.3447,409.6875 " fill="none" style="stroke:#181818;stroke-width:1;"/><rect fill="#F1F1F1" height="37.6094" rx="12.5" ry="12.5" style="stroke:#181818;stroke-width:1.5;" width="174" x="1216.3447" y="448.4922"/><text fill="#000000" font-family="sans-serif" font-size="14" lengthAdjust="spacing" textLength="154" x="1226.3447" y="473.0254">&#20007;&#22833;&#12302;&#24748;&#36175;&#25253;&#37228;&#35831;&#27714;&#26435;&#12303;</text><path d="M1166.3447,409.6875 L1176.3447,409.6875 C1191.3447,409.6875 1191.3447,467.2969 1206.3447,467.2969 L1216.3447,467.2969 " fill="none" style="stroke:#181818;stroke-width:1;"/><path d="M954.7793,407.1172 L964.7793,407.1172 C979.7793,407.1172 979.7793,409.6875 994.7793,409.6875 L1004.7793,409.6875 " fill="none" style="stroke:#181818;stroke-width:1;"/><path d="M828.7793,378.3125 L838.7793,378.3125 C853.7793,378.3125 853.7793,407.1172 868.7793,407.1172 L878.7793,407.1172 " fill="none" style="stroke:#181818;stroke-width:1;"/><path d="M642.8896,378.3125 L652.8896,378.3125 C667.8896,378.3125 667.8896,378.3125 682.8896,378.3125 L692.8896,378.3125 " fill="none" style="stroke:#181818;stroke-width:1;"/><path d="M530.8896,349.5078 L540.8896,349.5078 C555.8896,349.5078 555.8896,378.3125 570.8896,378.3125 L580.8896,378.3125 " fill="none" style="stroke:#181818;stroke-width:1;"/><path d="M432.8896,272.3555 L442.8896,272.3555 C457.8896,272.3555 457.8896,349.5078 472.8896,349.5078 L482.8896,349.5078 " fill="none" style="stroke:#181818;stroke-width:1;"/><path d="M320.8896,272.3555 L330.8896,272.3555 C345.8896,272.3555 345.8896,272.3555 360.8896,272.3555 L370.8896,272.3555 " fill="none" style="stroke:#181818;stroke-width:1;"/><path d="M184,390.1445 L194,390.1445 C209,390.1445 209,272.3555 224,272.3555 L234,272.3555 " fill="none" style="stroke:#181818;stroke-width:1;"/><rect fill="#F1F1F1" height="42.75" rx="12.5" ry="12.5" style="stroke:#181818;stroke-width:1.5;" width="86.8896" x="234" y="561.1406"/><text fill="#000000" font-family="sans-serif" font-size="14" lengthAdjust="spacing" textLength="42" x="244" y="590.8145">&#30423;&#36163;&#29289;</text><path d="M297.473,590.974 C297.473,592.1406 297.473,592.1406 296.3063,592.1406 C295.1396,592.1406 295.1396,590.974 295.1396,590.974 L295.1396,572.3073 C295.1396,571.1406 295.1396,571.1406 296.3063,571.1406 C297.473,571.1406 297.473,572.3073 297.473,572.3073 L297.473,590.974 " fill="#66757F" style="stroke:;stroke-width:0;stroke-dasharray:;"/><path d="M296.3063,573.474 C296.3063,572.1906 297.2606,571.5781 298.4273,572.113 L308.1847,576.5855 C309.3514,577.1204 309.3514,577.9954 308.1847,578.5297 L298.4273,583.0021 C297.2606,583.5365 296.3063,582.924 296.3063,581.6406 L296.3063,573.474 " fill="#DD2E44" style="stroke:;stroke-width:0;stroke-dasharray:;"/><rect fill="#F1F1F1" height="37.6094" rx="12.5" ry="12.5" style="stroke:#181818;stroke-width:1.5;" width="48" x="370.8896" y="534.9063"/><text fill="#000000" font-family="sans-serif" font-size="14" lengthAdjust="spacing" textLength="28" x="380.8896" y="559.4395">&#23567;&#20599;</text><rect fill="#90EE90" height="37.6094" rx="12.5" ry="12.5" style="stroke:#181818;stroke-width:1.5;" width="79.8896" x="468.8896" y="506.1016"/><text fill="#000000" font-family="sans-serif" font-size="14" lengthAdjust="spacing" textLength="56" x="478.8896" y="530.6348">&#26080;&#26435;&#21344;&#26377;</text><rect fill="#90EE90" height="37.6094" rx="12.5" ry="12.5" style="stroke:#181818;stroke-width:1.5;" width="79.8896" x="598.7793" y="506.1016"/><text fill="#000000" font-family="sans-serif" font-size="14" lengthAdjust="spacing" textLength="56" x="608.7793" y="530.6348">&#24694;&#24847;&#21344;&#26377;</text><path d="M548.7793,524.9063 L558.7793,524.9063 C573.7793,524.9063 573.7793,524.9063 588.7793,524.9063 L598.7793,524.9063 " fill="none" style="stroke:#181818;stroke-width:1;"/><path d="M418.8896,553.7109 L428.8896,553.7109 C443.8896,553.7109 443.8896,524.9063 458.8896,524.9063 L468.8896,524.9063 " fill="none" style="stroke:#181818;stroke-width:1;"/><rect fill="#90EE90" height="37.6094" rx="12.5" ry="12.5" style="stroke:#181818;stroke-width:1.5;" width="79.8896" x="468.8896" y="563.7109"/><text fill="#000000" font-family="sans-serif" font-size="14" lengthAdjust="spacing" textLength="56" x="478.8896" y="588.2441">&#33258;&#20027;&#21344;&#26377;</text><path d="M418.8896,553.7109 L428.8896,553.7109 C443.8896,553.7109 443.8896,582.5156 458.8896,582.5156 L468.8896,582.5156 " fill="none" style="stroke:#181818;stroke-width:1;"/><path d="M320.8896,582.5156 L330.8896,582.5156 C345.8896,582.5156 345.8896,553.7109 360.8896,553.7109 L370.8896,553.7109 " fill="none" style="stroke:#181818;stroke-width:1;"/><rect fill="#F1F1F1" height="37.6094" rx="12.5" ry="12.5" style="stroke:#181818;stroke-width:1.5;" width="62" x="370.8896" y="621.3203"/><text fill="#000000" font-family="sans-serif" font-size="14" lengthAdjust="spacing" textLength="42" x="380.8896" y="645.8535">&#20080;&#21463;&#20154;</text><rect fill="#F1F1F1" height="37.6094" rx="12.5" ry="12.5" style="stroke:#181818;stroke-width:1.5;" width="62" x="482.8896" y="621.3203"/><text fill="#000000" font-family="sans-serif" font-size="14" lengthAdjust="spacing" textLength="42" x="492.8896" y="645.8535">&#19981;&#30693;&#24773;</text><rect fill="#90EE90" height="37.6094" rx="12.5" ry="12.5" style="stroke:#181818;stroke-width:1.5;" width="79.8896" x="594.8896" y="621.3203"/><text fill="#000000" font-family="sans-serif" font-size="14" lengthAdjust="spacing" textLength="56" x="604.8896" y="645.8535">&#26080;&#26435;&#21344;&#26377;</text><rect fill="#90EE90" height="37.6094" rx="12.5" ry="12.5" style="stroke:#181818;stroke-width:1.5;" width="79.8896" x="724.7793" y="621.3203"/><text fill="#000000" font-family="sans-serif" font-size="14" lengthAdjust="spacing" textLength="56" x="734.7793" y="645.8535">&#21892;&#24847;&#21344;&#26377;</text><path d="M674.7793,640.125 L684.7793,640.125 C699.7793,640.125 699.7793,640.125 714.7793,640.125 L724.7793,640.125 " fill="none" style="stroke:#181818;stroke-width:1;"/><path d="M544.8896,640.125 L554.8896,640.125 C569.8896,640.125 569.8896,640.125 584.8896,640.125 L594.8896,640.125 " fill="none" style="stroke:#181818;stroke-width:1;"/><path d="M432.8896,640.125 L442.8896,640.125 C457.8896,640.125 457.8896,640.125 472.8896,640.125 L482.8896,640.125 " fill="none" style="stroke:#181818;stroke-width:1;"/><path d="M320.8896,582.5156 L330.8896,582.5156 C345.8896,582.5156 345.8896,640.125 360.8896,640.125 L370.8896,640.125 " fill="none" style="stroke:#181818;stroke-width:1;"/><path d="M184,390.1445 L194,390.1445 C209,390.1445 209,582.5156 224,582.5156 L234,582.5156 " fill="none" style="stroke:#181818;stroke-width:1;"/><rect fill="#F1F1F1" height="42.75" rx="12.5" ry="12.5" style="stroke:#181818;stroke-width:1.5;" width="100.8896" x="234" y="678.9297"/><text fill="#000000" font-family="sans-serif" font-size="14" lengthAdjust="spacing" textLength="56" x="244" y="708.6035">&#25343;&#38169;&#34892;&#26446;</text><path d="M311.473,708.763 C311.473,709.9297 311.473,709.9297 310.3063,709.9297 C309.1396,709.9297 309.1396,708.763 309.1396,708.763 L309.1396,690.0964 C309.1396,688.9297 309.1396,688.9297 310.3063,688.9297 C311.473,688.9297 311.473,690.0964 311.473,690.0964 L311.473,708.763 " fill="#66757F" style="stroke:;stroke-width:0;stroke-dasharray:;"/><path d="M310.3063,691.263 C310.3063,689.9797 311.2606,689.3672 312.4273,689.9021 L322.1847,694.3745 C323.3514,694.9094 323.3514,695.7844 322.1847,696.3188 L312.4273,700.7912 C311.2606,701.3255 310.3063,700.713 310.3063,699.4297 L310.3063,691.263 " fill="#DD2E44" style="stroke:;stroke-width:0;stroke-dasharray:;"/><rect fill="#90EE90" height="37.6094" rx="12.5" ry="12.5" style="stroke:#181818;stroke-width:1.5;" width="79.8896" x="384.8896" y="681.5"/><text fill="#000000" font-family="sans-serif" font-size="14" lengthAdjust="spacing" textLength="56" x="394.8896" y="706.0332">&#26080;&#26435;&#21344;&#26377;</text><rect fill="#90EE90" height="37.6094" rx="12.5" ry="12.5" style="stroke:#181818;stroke-width:1.5;" width="79.8896" x="514.7793" y="681.5"/><text fill="#000000" font-family="sans-serif" font-size="14" lengthAdjust="spacing" textLength="56" x="524.7793" y="706.0332">&#21892;&#24847;&#21344;&#26377;</text><path d="M464.7793,700.3047 L474.7793,700.3047 C489.7793,700.3047 489.7793,700.3047 504.7793,700.3047 L514.7793,700.3047 " fill="none" style="stroke:#181818;stroke-width:1;"/><path d="M334.8896,700.3047 L344.8896,700.3047 C359.8896,700.3047 359.8896,700.3047 374.8896,700.3047 L384.8896,700.3047 " fill="none" style="stroke:#181818;stroke-width:1;"/><path d="M184,390.1445 L194,390.1445 C209,390.1445 209,700.3047 224,700.3047 L234,700.3047 " fill="none" style="stroke:#181818;stroke-width:1;"/><path d="M86,390.1445 L96,390.1445 C111,390.1445 111,390.1445 126,390.1445 L136,390.1445 " fill="none" style="stroke:#181818;stroke-width:1;"/><!--SRC=[xLXRJnj757xVNp5LNY2IpQK8HHP210VKHZYAQf9ND5uFzeJT7MizTkfMbUmGKYW18eL2KaX3ez2I2a8G9O2v-CV4kxQV-0izk-i5cx3UjLhreRA5BE-SRxvpvbnt64Xoh7APAb4P9mJX2wg8KYfAaD_V0Nz9df58HqB22a_9ai-0-G3dCzVz5DO4WLCk4QJDhUchCyY7jEadfPqZGRXUNQe-8_Z0qcfUVxbjFbWBbToozdQdDFCEzGMuIh4IIqbO7HkNS6oCAMC9bkI1_dEyjKUVFTLEbulvVDrwLRQyfh-Qh1hJrqVaH1mdQRA__pDirQ2bn_hZ1Hj_JINHmBS19x2U-tWP72SudHaJuqIS69EnEX7eTzTQ9LlDQkyFzHVFIrkBbSMNdiz_oVxvrzhAsjdnBvPJFcNdpptwARkWvHUra-VbmcAvy094XcUctu7ZGAHFBrMokMB-hJQrgRsVAMtD6B6QsgrCRbIMDwxmh5QOrBCv9yzCxeAA1dOMZvQA1qUMwywEfosoi-CPRzwobKnf9syQWkm4MQcyUQ8zsoxcPnqCBXxCkTfS_l7F_yvcKARjxnHF2gN53JVEtP-rqrdjsRp-wwe7vYu_AfxkmJ6QhxMh2RlzLHCgAnyXXRN2tDdnqt9XfNYGrRVMNGdi0Fm1na1IQjayv6LvUr_VUGG_83MRPYXCbN_FbVyw1DVz4nxzqMPvRq7_QRqojNabptLKMbakxqqsrwwq3mjQRlzVw5NrxQSHlZvtdR5m-CCFse93BuKQARrUXmnsigSf-w_gjrVjCSgt00sn_DjJ_TLyCsF1ipcDp1240GApq9w70_NZiSySVFr2TU4MnJ4Lo-XxKE6FI2bY_a9e48iJCPMbb6YGIKn54et5kI47wGy6DWgZ0iQ70xmgjS4nbH2b4RC9g45dNC0P6yjKyAoJqPRGXYPIQa9oWbf26-fyi9f3gIpfn7PjU7XmC1YqaHaYIUoX0zOIcb31BsEgZCQ9R1CFCuM7wNS4VTaf678xpEw-h4LtEi2J4napfBNOxiQ-h8KEmf8OXrpqP0oDAKmb7kAAq0XLoENr2mgFQXjI6MIAmaIYS2VVA6PGh11OIn49C9TOeNWisqILdaVjGioPZ3cpZ5SuQADCmLAmMUnTbIImYesLPhRTZ32LkwMTLoxE8UxShT8yiWMP3EN6dTAXkjE9pWYVGc8GKI2jTMQZhkKMoIWXYTg2g5Sm15qq8j5atBdbrUolr_OmJlbbtpYekSEukoRpL686AnvE9U8euUVAi2ZIg7FErxLYD-PnACLaJNt3iqX2-059kLGvay04bKLhCj2bnkmTfXwOd9JJDBafrfJ3P-qSIyJhGIwE0B70hjGoXGbgz7ulELKTWmPvCXLvG4I3tiaxE0rpcwWUUTEKGGMPrCoDsV2xPtTVTFhwmcrSgtMvx3f31FZgwwY-YhJktwtxT-l-tRf_j-xVhVlt_-_-VTVur_Ezq0XA4pLfl5Pq-RixktlyDzh2cACxB8swUb5dLw2d9z3JYuBXKMI8suMsqDUZACbIy5Q5el3EeT98oXZ4xS9jdCRecnICPPa4aF7KDXfgH-4XUn4DAMcgCaM6KIpSlX-oGEWhniC9narmRuzla78K9YgOXUw7X5ja7ASa3bj55gLAB83kZGxxRWWZXkTm31J1Ir8GPZbNCo0B_mq0]--></g></svg>