<svg xmlns="http://www.w3.org/2000/svg" xmlns:xlink="http://www.w3.org/1999/xlink" contentStyleType="text/css" height="738px" preserveAspectRatio="none" style="width:1377px;height:738px;background:#FFFFFF;" version="1.1" viewBox="0 0 1377 738" width="1377px" zoomAndPan="magnify"><title>&#21344;&#26377; - &#20998;&#31867;</title><defs/><g><text fill="#000000" font-family="sans-serif" font-size="14" font-weight="bold" lengthAdjust="spacing" textLength="70.1914" x="652.1318" y="34.5332">&#21344;&#26377; - &#20998;&#31867;</text><rect fill="#F1F1F1" height="37.6094" rx="12.5" ry="12.5" style="stroke:#181818;stroke-width:1.5;" width="76" x="10" y="368.7695"/><text fill="#000000" font-family="sans-serif" font-size="14" lengthAdjust="spacing" textLength="56" x="20" y="393.3027">&#21344;&#26377;&#20998;&#31867;</text><rect fill="#F1F1F1" height="37.6094" rx="12.5" ry="12.5" style="stroke:#181818;stroke-width:1.5;" width="48" x="136" y="368.7695"/><text fill="#000000" font-family="sans-serif" font-size="14" lengthAdjust="spacing" textLength="28" x="146" y="393.3027">&#22330;&#26223;</text><rect fill="#F1F1F1" height="37.6094" rx="12.5" ry="12.5" style="stroke:#181818;stroke-width:1.5;" width="62" x="234" y="253.5508"/><text fill="#000000" font-family="sans-serif" font-size="14" lengthAdjust="spacing" textLength="42" x="244" y="278.084">&#36951;&#22833;&#29289;</text><rect fill="#F1F1F1" height="37.6094" rx="12.5" ry="12.5" style="stroke:#181818;stroke-width:1.5;" width="62" x="346" y="253.5508"/><text fill="#000000" font-family="sans-serif" font-size="14" lengthAdjust="spacing" textLength="42" x="356" y="278.084">&#25342;&#24471;&#20154;</text><rect fill="#90EE90" height="37.6094" rx="12.5" ry="12.5" style="stroke:#181818;stroke-width:1.5;" width="79.8896" x="458" y="106.957"/><text fill="#000000" font-family="sans-serif" font-size="14" lengthAdjust="spacing" textLength="56" x="468" y="131.4902">&#26080;&#26435;&#21344;&#26377;</text><rect fill="#F1F1F1" height="42.75" rx="12.5" ry="12.5" style="stroke:#181818;stroke-width:1.5;" width="100.8896" x="587.8896" y="58.6094"/><text fill="#000000" font-family="sans-serif" font-size="14" lengthAdjust="spacing" textLength="56" x="597.8896" y="88.2832">&#21892;&#24847;&#21344;&#26377;</text><path d="M670.3402,79.1105 L677.4773,71.974 C678.0466,71.4047 678.0466,70.4813 677.4773,69.912 C676.9074,69.342 675.9845,69.342 675.4152,69.912 L668.2781,77.0485 L661.1416,69.912 C660.5723,69.342 659.6483,69.342 659.0795,69.912 C658.5096,70.4813 658.5096,71.4047 659.0795,71.974 L666.216,79.1105 L659.0632,86.264 C658.4933,86.8339 658.4933,87.7567 659.0632,88.326 C659.3479,88.6107 659.7212,88.753 660.0945,88.753 C660.4679,88.753 660.8412,88.6107 661.1259,88.326 L668.2787,81.1726 L675.4152,88.3091 C675.6999,88.5938 676.0732,88.7361 676.4465,88.7361 C676.8199,88.7361 677.1926,88.5938 677.4779,88.3091 C678.0472,87.7392 678.0472,86.8164 677.4779,86.247 L670.3402,79.1105 " fill="#FE0000" style="stroke:;stroke-width:0;stroke-dasharray:;"/><path d="M537.8896,125.7617 L547.8896,125.7617 C562.8896,125.7617 562.8896,79.9844 577.8896,79.9844 L587.8896,79.9844 " fill="none" style="stroke:#181818;stroke-width:1;"/><rect fill="#90EE90" height="42.75" rx="12.5" ry="12.5" style="stroke:#181818;stroke-width:1.5;" width="104.7793" x="587.8896" y="121.3594"/><text fill="#000000" font-family="sans-serif" font-size="14" lengthAdjust="spacing" textLength="56" x="597.8896" y="151.0332">&#24694;&#24847;&#21344;&#26377;</text><path d="M677.8804,132.1615 C677.069,131.6353 675.9857,131.8663 675.4601,132.6771 L665.6543,147.7919 L660.8721,143.3702 C660.1622,142.714 659.0556,142.7571 658.3994,143.467 C657.7431,144.1764 657.7863,145.2841 658.4962,145.9398 L664.7752,151.7451 C664.9555,151.9003 664.9555,151.9003 665.0389,151.9545 C665.3329,152.1459 665.663,152.2369 665.9897,152.2369 C666.5625,152.2369 667.1243,151.9557 667.4597,151.4389 L678.396,134.5817 C678.9222,133.7709 678.6912,132.687 677.8804,132.1615 " fill="#FE0000" style="stroke:;stroke-width:0;stroke-dasharray:;"/><text fill="#000000" font-family="sans-serif" font-size="14" lengthAdjust="spacing" textLength="3.8896" x="678.7793" y="151.0332">&#160;</text><rect fill="#F1F1F1" height="42.75" rx="12.5" ry="12.5" style="stroke:#181818;stroke-width:1.5;" width="114.8896" x="742.6689" y="92.5547"/><text fill="#000000" font-family="sans-serif" font-size="14" lengthAdjust="spacing" textLength="70" x="752.6689" y="122.2285">&#26368;&#23481;&#26131;&#31572;&#38169;</text><path d="M834.1419,122.388 C834.1419,123.5547 834.1419,123.5547 832.9753,123.5547 C831.8086,123.5547 831.8086,122.388 831.8086,122.388 L831.8086,103.7214 C831.8086,102.5547 831.8086,102.5547 832.9753,102.5547 C834.1419,102.5547 834.1419,103.7214 834.1419,103.7214 L834.1419,122.388 " fill="#66757F" style="stroke:;stroke-width:0;stroke-dasharray:;"/><path d="M832.9753,104.888 C832.9753,103.6047 833.9296,102.9922 835.0963,103.5271 L844.8537,107.9995 C846.0203,108.5344 846.0203,109.4094 844.8537,109.9438 L835.0963,114.4162 C833.9296,114.9505 832.9753,114.338 832.9753,113.0547 L832.9753,104.888 " fill="#DD2E44" style="stroke:;stroke-width:0;stroke-dasharray:;"/><path d="M692.6689,142.7344 L702.6689,142.7344 C717.6689,142.7344 717.6689,113.9297 732.6689,113.9297 L742.6689,113.9297 " fill="none" style="stroke:#181818;stroke-width:1;"/><rect fill="#F1F1F1" height="37.6094" rx="12.5" ry="12.5" style="stroke:#181818;stroke-width:1.5;" width="426" x="742.6689" y="155.3047"/><text fill="#000000" font-family="sans-serif" font-size="14" lengthAdjust="spacing" textLength="406" x="752.6689" y="179.8379">&#21407;&#22240;&#65306;&#25342;&#24471;&#12302;&#36951;&#22833;&#29289;&#12303;&#24212;&#24403;&#36820;&#36824;&#12302;&#26435;&#21033;&#20154;&#12303;&#25110;&#36865;&#20132;&#20844;&#23433;&#31561;&#26377;&#20851;&#37096;&#38376;</text><path d="M692.6689,142.7344 L702.6689,142.7344 C717.6689,142.7344 717.6689,174.1094 732.6689,174.1094 L742.6689,174.1094 " fill="none" style="stroke:#181818;stroke-width:1;"/><path d="M537.8896,125.7617 L547.8896,125.7617 C562.8896,125.7617 562.8896,142.7344 577.8896,142.7344 L587.8896,142.7344 " fill="none" style="stroke:#181818;stroke-width:1;"/><path d="M408,272.3555 L418,272.3555 C433,272.3555 433,125.7617 448,125.7617 L458,125.7617 " fill="none" style="stroke:#181818;stroke-width:1;"/><rect fill="#F1F1F1" height="37.6094" rx="12.5" ry="12.5" style="stroke:#181818;stroke-width:1.5;" width="48" x="458" y="330.7031"/><text fill="#000000" font-family="sans-serif" font-size="14" lengthAdjust="spacing" textLength="28" x="468" y="355.2363">&#24515;&#24577;</text><rect fill="#F1F1F1" height="37.6094" rx="12.5" ry="12.5" style="stroke:#181818;stroke-width:1.5;" width="48" x="556" y="212.9141"/><text fill="#000000" font-family="sans-serif" font-size="14" lengthAdjust="spacing" textLength="28" x="566" y="237.4473">&#24819;&#36824;</text><rect fill="#90EE90" height="37.6094" rx="12.5" ry="12.5" style="stroke:#181818;stroke-width:1.5;" width="135.8896" x="654" y="212.9141"/><text fill="#000000" font-family="sans-serif" font-size="14" lengthAdjust="spacing" textLength="112" x="664" y="237.4473">&#20182;&#20027;&#21344;&#26377;&#65288;&#24515;&#24577;&#65289;</text><rect fill="#F1F1F1" height="37.6094" rx="12.5" ry="12.5" style="stroke:#181818;stroke-width:1.5;" width="48" x="839.8896" y="212.9141"/><text fill="#000000" font-family="sans-serif" font-size="14" lengthAdjust="spacing" textLength="28" x="849.8896" y="237.4473">&#24773;&#24418;</text><rect fill="#F1F1F1" height="37.6094" rx="12.5" ry="12.5" style="stroke:#181818;stroke-width:1.5;" width="76" x="937.8896" y="212.9141"/><text fill="#000000" font-family="sans-serif" font-size="14" lengthAdjust="spacing" textLength="56" x="947.8896" y="237.4473">&#25307;&#39046;&#21551;&#20107;</text><path d="M887.8896,231.7188 L897.8896,231.7188 C912.8896,231.7188 912.8896,231.7188 927.8896,231.7188 L937.8896,231.7188 " fill="none" style="stroke:#181818;stroke-width:1;"/><path d="M789.8896,231.7188 L799.8896,231.7188 C814.8896,231.7188 814.8896,231.7188 829.8896,231.7188 L839.8896,231.7188 " fill="none" style="stroke:#181818;stroke-width:1;"/><path d="M604,231.7188 L614,231.7188 C629,231.7188 629,231.7188 644,231.7188 L654,231.7188 " fill="none" style="stroke:#181818;stroke-width:1;"/><path d="M506,349.5078 L516,349.5078 C531,349.5078 531,231.7188 546,231.7188 L556,231.7188 " fill="none" style="stroke:#181818;stroke-width:1;"/><rect fill="#F1F1F1" height="37.6094" rx="12.5" ry="12.5" style="stroke:#181818;stroke-width:1.5;" width="62" x="556" y="359.5078"/><text fill="#000000" font-family="sans-serif" font-size="14" lengthAdjust="spacing" textLength="42" x="566" y="384.041">&#19981;&#24819;&#36824;</text><rect fill="#90EE90" height="37.6094" rx="12.5" ry="12.5" style="stroke:#181818;stroke-width:1.5;" width="135.8896" x="668" y="359.5078"/><text fill="#000000" font-family="sans-serif" font-size="14" lengthAdjust="spacing" textLength="112" x="678" y="384.041">&#33258;&#20027;&#21344;&#26377;&#65288;&#24515;&#24577;&#65289;</text><rect fill="#F1F1F1" height="37.6094" rx="12.5" ry="12.5" style="stroke:#181818;stroke-width:1.5;" width="48" x="853.8896" y="270.5234"/><text fill="#000000" font-family="sans-serif" font-size="14" lengthAdjust="spacing" textLength="28" x="863.8896" y="295.0566">&#24773;&#24418;</text><rect fill="#F1F1F1" height="37.6094" rx="12.5" ry="12.5" style="stroke:#181818;stroke-width:1.5;" width="76" x="951.8896" y="270.5234"/><text fill="#000000" font-family="sans-serif" font-size="14" lengthAdjust="spacing" textLength="56" x="961.8896" y="295.0566">&#33258;&#24049;&#20351;&#29992;</text><path d="M901.8896,289.3281 L911.8896,289.3281 C926.8896,289.3281 926.8896,289.3281 941.8896,289.3281 L951.8896,289.3281 " fill="none" style="stroke:#181818;stroke-width:1;"/><path d="M803.8896,378.3125 L813.8896,378.3125 C828.8896,378.3125 828.8896,289.3281 843.8896,289.3281 L853.8896,289.3281 " fill="none" style="stroke:#181818;stroke-width:1;"/><rect fill="#F1F1F1" height="37.6094" rx="12.5" ry="12.5" style="stroke:#181818;stroke-width:1.5;" width="76" x="853.8896" y="388.3125"/><text fill="#000000" font-family="sans-serif" font-size="14" lengthAdjust="spacing" textLength="56" x="863.8896" y="412.8457">&#27861;&#24459;&#21518;&#26524;</text><rect fill="#F1F1F1" height="42.75" rx="12.5" ry="12.5" style="stroke:#181818;stroke-width:1.5;" width="130.4551" x="979.8896" y="328.1328"/><text fill="#000000" font-family="sans-serif" font-size="14" lengthAdjust="spacing" textLength="85.5654" x="989.8896" y="357.8066">1. &#20405;&#21344;&#36951;&#22833;&#29289;</text><path d="M1086.9281,357.9661 C1086.9281,359.1328 1086.9281,359.1328 1085.7614,359.1328 C1084.5947,359.1328 1084.5947,357.9661 1084.5947,357.9661 L1084.5947,339.2995 C1084.5947,338.1328 1084.5947,338.1328 1085.7614,338.1328 C1086.9281,338.1328 1086.9281,339.2995 1086.9281,339.2995 L1086.9281,357.9661 " fill="#66757F" style="stroke:;stroke-width:0;stroke-dasharray:;"/><path d="M1085.7614,340.4661 C1085.7614,339.1828 1086.7157,338.5703 1087.8824,339.1052 L1097.6398,343.5776 C1098.8065,344.1126 1098.8065,344.9876 1097.6398,345.5219 L1087.8824,349.9943 C1086.7157,350.5286 1085.7614,349.9161 1085.7614,348.6328 L1085.7614,340.4661 " fill="#DD2E44" style="stroke:;stroke-width:0;stroke-dasharray:;"/><path d="M929.8896,407.1172 L939.8896,407.1172 C954.8896,407.1172 954.8896,349.5078 969.8896,349.5078 L979.8896,349.5078 " fill="none" style="stroke:#181818;stroke-width:1;"/><rect fill="#F1F1F1" height="37.6094" rx="12.5" ry="12.5" style="stroke:#181818;stroke-width:1.5;" width="161.5654" x="979.8896" y="390.8828"/><text fill="#000000" font-family="sans-serif" font-size="14" lengthAdjust="spacing" textLength="141.5654" x="989.8896" y="415.416">2. &#27861;&#24459;&#38646;&#23481;&#24525;&#65292;&#36827;&#19968;&#27493;</text><rect fill="#F1F1F1" height="37.6094" rx="12.5" ry="12.5" style="stroke:#181818;stroke-width:1.5;" width="146" x="1191.4551" y="333.2734"/><text fill="#000000" font-family="sans-serif" font-size="14" lengthAdjust="spacing" textLength="126" x="1201.4551" y="357.8066">&#20007;&#22833;&#12302;&#20538;&#26435;&#35831;&#27714;&#26435;&#12303;</text><path d="M1141.4551,409.6875 L1151.4551,409.6875 C1166.4551,409.6875 1166.4551,352.0781 1181.4551,352.0781 L1191.4551,352.0781 " fill="none" style="stroke:#181818;stroke-width:1;"/><rect fill="#F1F1F1" height="37.6094" rx="12.5" ry="12.5" style="stroke:#181818;stroke-width:1.5;" width="174" x="1191.4551" y="390.8828"/><text fill="#000000" font-family="sans-serif" font-size="14" lengthAdjust="spacing" textLength="154" x="1201.4551" y="415.416">&#20007;&#22833;&#12302;&#24517;&#35201;&#36153;&#29992;&#35831;&#27714;&#26435;&#12303;</text><path d="M1141.4551,409.6875 L1151.4551,409.6875 C1166.4551,409.6875 1166.4551,409.6875 1181.4551,409.6875 L1191.4551,409.6875 " fill="none" style="stroke:#181818;stroke-width:1;"/><rect fill="#F1F1F1" height="37.6094" rx="12.5" ry="12.5" style="stroke:#181818;stroke-width:1.5;" width="174" x="1191.4551" y="448.4922"/><text fill="#000000" font-family="sans-serif" font-size="14" lengthAdjust="spacing" textLength="154" x="1201.4551" y="473.0254">&#20007;&#22833;&#12302;&#24748;&#36175;&#25253;&#37228;&#35831;&#27714;&#26435;&#12303;</text><path d="M1141.4551,409.6875 L1151.4551,409.6875 C1166.4551,409.6875 1166.4551,467.2969 1181.4551,467.2969 L1191.4551,467.2969 " fill="none" style="stroke:#181818;stroke-width:1;"/><path d="M929.8896,407.1172 L939.8896,407.1172 C954.8896,407.1172 954.8896,409.6875 969.8896,409.6875 L979.8896,409.6875 " fill="none" style="stroke:#181818;stroke-width:1;"/><path d="M803.8896,378.3125 L813.8896,378.3125 C828.8896,378.3125 828.8896,407.1172 843.8896,407.1172 L853.8896,407.1172 " fill="none" style="stroke:#181818;stroke-width:1;"/><path d="M618,378.3125 L628,378.3125 C643,378.3125 643,378.3125 658,378.3125 L668,378.3125 " fill="none" style="stroke:#181818;stroke-width:1;"/><path d="M506,349.5078 L516,349.5078 C531,349.5078 531,378.3125 546,378.3125 L556,378.3125 " fill="none" style="stroke:#181818;stroke-width:1;"/><path d="M408,272.3555 L418,272.3555 C433,272.3555 433,349.5078 448,349.5078 L458,349.5078 " fill="none" style="stroke:#181818;stroke-width:1;"/><path d="M296,272.3555 L306,272.3555 C321,272.3555 321,272.3555 336,272.3555 L346,272.3555 " fill="none" style="stroke:#181818;stroke-width:1;"/><path d="M184,387.5742 L194,387.5742 C209,387.5742 209,272.3555 224,272.3555 L234,272.3555 " fill="none" style="stroke:#181818;stroke-width:1;"/><rect fill="#F1F1F1" height="37.6094" rx="12.5" ry="12.5" style="stroke:#181818;stroke-width:1.5;" width="62" x="234" y="563.7109"/><text fill="#000000" font-family="sans-serif" font-size="14" lengthAdjust="spacing" textLength="42" x="244" y="588.2441">&#30423;&#36163;&#29289;</text><rect fill="#F1F1F1" height="37.6094" rx="12.5" ry="12.5" style="stroke:#181818;stroke-width:1.5;" width="48" x="346" y="534.9063"/><text fill="#000000" font-family="sans-serif" font-size="14" lengthAdjust="spacing" textLength="28" x="356" y="559.4395">&#23567;&#20599;</text><rect fill="#90EE90" height="37.6094" rx="12.5" ry="12.5" style="stroke:#181818;stroke-width:1.5;" width="79.8896" x="444" y="506.1016"/><text fill="#000000" font-family="sans-serif" font-size="14" lengthAdjust="spacing" textLength="56" x="454" y="530.6348">&#26080;&#26435;&#21344;&#26377;</text><rect fill="#90EE90" height="37.6094" rx="12.5" ry="12.5" style="stroke:#181818;stroke-width:1.5;" width="79.8896" x="573.8896" y="506.1016"/><text fill="#000000" font-family="sans-serif" font-size="14" lengthAdjust="spacing" textLength="56" x="583.8896" y="530.6348">&#24694;&#24847;&#21344;&#26377;</text><path d="M523.8896,524.9063 L533.8896,524.9063 C548.8896,524.9063 548.8896,524.9063 563.8896,524.9063 L573.8896,524.9063 " fill="none" style="stroke:#181818;stroke-width:1;"/><path d="M394,553.7109 L404,553.7109 C419,553.7109 419,524.9063 434,524.9063 L444,524.9063 " fill="none" style="stroke:#181818;stroke-width:1;"/><rect fill="#90EE90" height="37.6094" rx="12.5" ry="12.5" style="stroke:#181818;stroke-width:1.5;" width="79.8896" x="444" y="563.7109"/><text fill="#000000" font-family="sans-serif" font-size="14" lengthAdjust="spacing" textLength="56" x="454" y="588.2441">&#33258;&#20027;&#21344;&#26377;</text><path d="M394,553.7109 L404,553.7109 C419,553.7109 419,582.5156 434,582.5156 L444,582.5156 " fill="none" style="stroke:#181818;stroke-width:1;"/><path d="M296,582.5156 L306,582.5156 C321,582.5156 321,553.7109 336,553.7109 L346,553.7109 " fill="none" style="stroke:#181818;stroke-width:1;"/><rect fill="#F1F1F1" height="37.6094" rx="12.5" ry="12.5" style="stroke:#181818;stroke-width:1.5;" width="62" x="346" y="621.3203"/><text fill="#000000" font-family="sans-serif" font-size="14" lengthAdjust="spacing" textLength="42" x="356" y="645.8535">&#36141;&#20080;&#20154;</text><path d="M296,582.5156 L306,582.5156 C321,582.5156 321,640.125 336,640.125 L346,640.125 " fill="none" style="stroke:#181818;stroke-width:1;"/><path d="M184,387.5742 L194,387.5742 C209,387.5742 209,582.5156 224,582.5156 L234,582.5156 " fill="none" style="stroke:#181818;stroke-width:1;"/><rect fill="#F1F1F1" height="37.6094" rx="12.5" ry="12.5" style="stroke:#181818;stroke-width:1.5;" width="76" x="234" y="678.9297"/><text fill="#000000" font-family="sans-serif" font-size="14" lengthAdjust="spacing" textLength="56" x="244" y="703.4629">&#25343;&#38169;&#34892;&#26446;</text><path d="M184,387.5742 L194,387.5742 C209,387.5742 209,697.7344 224,697.7344 L234,697.7344 " fill="none" style="stroke:#181818;stroke-width:1;"/><path d="M86,387.5742 L96,387.5742 C111,387.5742 111,387.5742 126,387.5742 L136,387.5742 " fill="none" style="stroke:#181818;stroke-width:1;"/><!--SRC=[xLXjJzjM5FxkNt6dVe5A2Iz3g8eGegIWhI9LjT1-HJVE9Rd5zesSwtJfD2affODHe58Pj8Dkh6etEa4feXG8B_anZPta4tzXnx4D2TInsQP9aq08nUSyViwvvpMNlZJ7AfUf4fTnIX2-e8eeQN62Wi4s-4tph4JQKX9Mk2PB0HCM05oW9WzIa0a2frmYI9zPCPQdK03fau_Bc_k2SDKMsSy8Va2qN31URDGUB44rlwY_tYnFlJsHMN9Z-aW_MYmL2WroMxUuOhmSjmtsz10vbSHfckxjFOUrZIuyCXxDEVWhAec7lWsvWOtynxFW9C6Px8YO9EBOY8pLiL2ljrMRR3cdlzipdZyhhyzNvr-WdX1NALOIceJLaL499qQOCf9YQHvgngBF_gelhHmV_6m5vLDkzYHgdt9pUc5UFtnMASvNYiz1PKPcyYq43bJ6v48rboyLNkiJQ_gxgVBwb9cFYQtg-6frSVKpaTMBuqOkxnQPyIqmqSJFqlv2QNVV2jtnmQH5TdmmvIzQZf49_V1LKv1J84lLLu_rfnkbmhIBmwNT6K-VAp_y-T_v3CRqdStIOR4yl-h5kVMJVZIjFvqrVbdsmTmHHAMZRJZ6IMNyhLex9UmCsYvKbpv22Ul5cUE39vNYKcatPwo_yIHm4l07E0D5gUSAK9ULZHrZyo5yWDAyC4Dnel9xll9X3qBtJtYCXskLxJdZnpVLYRNFybn5vQN5olRu-P6alv_Jypl_mZng737Dy8trwOu5t8Vrqjxx-dbfjaWHXaxbjoV6orb14Fe8p7XdplSrZlsUsa3l5Mp13OeJAfRHTy0MZ4aQgNr2g1-BOmcLQKeyp2Ic8eacajpKW_Px4nk7yGWZqmLkQnrmGYL4QSPS0zIXinxWh8DbAXI-czEMqe6cD3KbkK4jfGDrFrZTeLIMTcExCZZOtnyEEyWiaIHstmLhAMjG8IXZgWmdYUmG3pA5H-a3Whvi5qozKnNUiQn7jxl0qsFPMahhiPtDOraFxGUHc8Joy-KCJIXC9JxoYj0GLSXP-Ic5JxDDgKmoHM4YKRXRR9HQKgmKMAAO19WphD0ybc-YIa-oTghcJCQSMSuh7AnHfc0fV57iRPMai8fDoKLUknvZAlSgExzSd4FUkLUd-MGBCndQZRkLW_sc6vsPFeKa8AD0MX_CPbFBAvDnGbBr3T5eO02cQ4oYwQJxoAjxlz7Q_IJbPsFZOkOMuzwMQgSIirZnSIeHnma_COP5aSRTQxvX57inZq8hfklw6vv54i7tYERHvKm25rGMhwj0ZnvptgZPWIysbDCCkIxMjSEvSOubulSWfqU0N61FQfd21ZLdlv-QijUWIPxMOlU8QDAxHGTdO6yJrITlXZBee1erys8su-uxtAUJlh5nc_TgGorxxX01_lIqsLz5Bk-Lb_VAotlbvRtoybxvVxfNtZR_LNWdCeGoH4sRwx8ZsDdUsHMyrXB57DrY6TJHZTexGbrTeQvk58uE8rFTAhH4lXv6QQR1jmKKXrsgqfXcBfXMuIREOFID1kj69Y5aFhKCHrfHTC0HeW4bGrMcoB1YX9jt8nO8VSLuDCLu3TpT5UYd74M92cwXkn7X1Xd5ciJXLP75gP88eJl3Wu5hmf1Ps3W1Xc3vXs57SJKBkkXV]--></g></svg>