<svg xmlns="http://www.w3.org/2000/svg" xmlns:xlink="http://www.w3.org/1999/xlink" contentStyleType="text/css" height="521px" preserveAspectRatio="none" style="width:714px;height:521px;background:#FFFFFF;" version="1.1" viewBox="0 0 714 521" width="714px" zoomAndPan="magnify"><title>&#21344;&#26377; - &#20998;&#31867;</title><defs/><g><text fill="#000000" font-family="sans-serif" font-size="14" font-weight="bold" lengthAdjust="spacing" textLength="70.1914" x="320.4043" y="34.5332">&#21344;&#26377; - &#20998;&#31867;</text><rect fill="#F1F1F1" height="37.6094" rx="12.5" ry="12.5" style="stroke:#181818;stroke-width:1.5;" width="48" x="10" y="260.2422"/><text fill="#000000" font-family="sans-serif" font-size="14" lengthAdjust="spacing" textLength="28" x="20" y="284.7754">&#21344;&#26377;</text><rect fill="#F1F1F1" height="37.6094" rx="12.5" ry="12.5" style="stroke:#181818;stroke-width:1.5;" width="48" x="108" y="260.2422"/><text fill="#000000" font-family="sans-serif" font-size="14" lengthAdjust="spacing" textLength="28" x="118" y="284.7754">&#20998;&#31867;</text><rect fill="#F1F1F1" height="37.6094" rx="12.5" ry="12.5" style="stroke:#181818;stroke-width:1.5;" width="48" x="206" y="173.8281"/><text fill="#000000" font-family="sans-serif" font-size="14" lengthAdjust="spacing" textLength="28" x="216" y="198.3613">&#26435;&#28304;</text><rect fill="#F1F1F1" height="37.6094" rx="12.5" ry="12.5" style="stroke:#181818;stroke-width:1.5;" width="76" x="304" y="116.2188"/><text fill="#000000" font-family="sans-serif" font-size="14" lengthAdjust="spacing" textLength="56" x="314" y="140.752">&#26377;&#26435;&#21344;&#26377;</text><rect fill="#F1F1F1" height="37.6094" rx="12.5" ry="12.5" style="stroke:#181818;stroke-width:1.5;" width="118" x="430" y="58.6094"/><text fill="#000000" font-family="sans-serif" font-size="14" lengthAdjust="spacing" textLength="98" x="440" y="83.1426">&#27809;&#26377;&#21892;&#24694;&#30340;&#38382;&#39064;</text><path d="M380,135.0234 L390,135.0234 C405,135.0234 405,77.4141 420,77.4141 L430,77.4141 " fill="none" style="stroke:#181818;stroke-width:1;"/><rect fill="#F1F1F1" height="37.6094" rx="12.5" ry="12.5" style="stroke:#181818;stroke-width:1.5;" width="104" x="430" y="145.0234"/><text fill="#000000" font-family="sans-serif" font-size="14" lengthAdjust="spacing" textLength="84" x="440" y="169.5566">&#21344;&#26377;&#23186;&#20171;&#20851;&#31995;</text><rect fill="#F1F1F1" height="37.6094" rx="12.5" ry="12.5" style="stroke:#181818;stroke-width:1.5;" width="76" x="584" y="116.2188"/><text fill="#000000" font-family="sans-serif" font-size="14" lengthAdjust="spacing" textLength="56" x="594" y="140.752">&#30452;&#25509;&#21344;&#26377;</text><path d="M534,163.8281 L544,163.8281 C559,163.8281 559,135.0234 574,135.0234 L584,135.0234 " fill="none" style="stroke:#181818;stroke-width:1;"/><rect fill="#F1F1F1" height="37.6094" rx="12.5" ry="12.5" style="stroke:#181818;stroke-width:1.5;" width="76" x="584" y="173.8281"/><text fill="#000000" font-family="sans-serif" font-size="14" lengthAdjust="spacing" textLength="56" x="594" y="198.3613">&#38388;&#25509;&#21344;&#26377;</text><path d="M534,163.8281 L544,163.8281 C559,163.8281 559,192.6328 574,192.6328 L584,192.6328 " fill="none" style="stroke:#181818;stroke-width:1;"/><path d="M380,135.0234 L390,135.0234 C405,135.0234 405,163.8281 420,163.8281 L430,163.8281 " fill="none" style="stroke:#181818;stroke-width:1;"/><path d="M254,192.6328 L264,192.6328 C279,192.6328 279,135.0234 294,135.0234 L304,135.0234 " fill="none" style="stroke:#181818;stroke-width:1;"/><rect fill="#F1F1F1" height="37.6094" rx="12.5" ry="12.5" style="stroke:#181818;stroke-width:1.5;" width="76" x="304" y="260.2422"/><text fill="#000000" font-family="sans-serif" font-size="14" lengthAdjust="spacing" textLength="56" x="314" y="284.7754">&#26080;&#26435;&#21344;&#26377;</text><rect fill="#F1F1F1" height="37.6094" rx="12.5" ry="12.5" style="stroke:#181818;stroke-width:1.5;" width="76" x="430" y="231.4375"/><text fill="#000000" font-family="sans-serif" font-size="14" lengthAdjust="spacing" textLength="56" x="440" y="255.9707">&#21892;&#24847;&#21344;&#26377;</text><path d="M380,279.0469 L390,279.0469 C405,279.0469 405,250.2422 420,250.2422 L430,250.2422 " fill="none" style="stroke:#181818;stroke-width:1;"/><rect fill="#F1F1F1" height="37.6094" rx="12.5" ry="12.5" style="stroke:#181818;stroke-width:1.5;" width="76" x="430" y="289.0469"/><text fill="#000000" font-family="sans-serif" font-size="14" lengthAdjust="spacing" textLength="56" x="440" y="313.5801">&#24694;&#24847;&#21344;&#26377;</text><path d="M380,279.0469 L390,279.0469 C405,279.0469 405,307.8516 420,307.8516 L430,307.8516 " fill="none" style="stroke:#181818;stroke-width:1;"/><path d="M254,192.6328 L264,192.6328 C279,192.6328 279,279.0469 294,279.0469 L304,279.0469 " fill="none" style="stroke:#181818;stroke-width:1;"/><path d="M156,279.0469 L166,279.0469 C181,279.0469 181,192.6328 196,192.6328 L206,192.6328 " fill="none" style="stroke:#181818;stroke-width:1;"/><rect fill="#F1F1F1" height="37.6094" rx="12.5" ry="12.5" style="stroke:#181818;stroke-width:1.5;" width="76" x="206" y="375.4609"/><text fill="#000000" font-family="sans-serif" font-size="14" lengthAdjust="spacing" textLength="56" x="216" y="399.9941">&#20027;&#35266;&#24515;&#24577;</text><rect fill="#F1F1F1" height="37.6094" rx="12.5" ry="12.5" style="stroke:#181818;stroke-width:1.5;" width="132" x="332" y="346.6563"/><text fill="#000000" font-family="sans-serif" font-size="14" lengthAdjust="spacing" textLength="112" x="342" y="371.1895">&#33258;&#20027;&#21344;&#26377;&#65288;&#20363;&#22806;&#65289;</text><rect fill="#F1F1F1" height="37.6094" rx="12.5" ry="12.5" style="stroke:#181818;stroke-width:1.5;" width="188" x="514" y="346.6563"/><text fill="#000000" font-family="sans-serif" font-size="14" lengthAdjust="spacing" textLength="168" x="524" y="371.1895">&#30423;&#36156;&#23545;&#20110;&#30423;&#31363;&#29289;&#30340;&#12302;&#21344;&#26377;&#12303;</text><path d="M464,365.4609 L474,365.4609 C489,365.4609 489,365.4609 504,365.4609 L514,365.4609 " fill="none" style="stroke:#181818;stroke-width:1;"/><path d="M282,394.2656 L292,394.2656 C307,394.2656 307,365.4609 322,365.4609 L332,365.4609 " fill="none" style="stroke:#181818;stroke-width:1;"/><rect fill="#F1F1F1" height="37.6094" rx="12.5" ry="12.5" style="stroke:#181818;stroke-width:1.5;" width="132" x="332" y="404.2656"/><text fill="#000000" font-family="sans-serif" font-size="14" lengthAdjust="spacing" textLength="112" x="342" y="428.7988">&#20182;&#20027;&#21344;&#26377;&#65288;&#21407;&#21017;&#65289;</text><rect fill="#F1F1F1" height="37.6094" rx="12.5" ry="12.5" style="stroke:#181818;stroke-width:1.5;" width="160" x="514" y="404.2656"/><text fill="#000000" font-family="sans-serif" font-size="14" lengthAdjust="spacing" textLength="140" x="524" y="428.7988">&#12302;&#38750;&#25152;&#26377;&#26435;&#20154;&#12303;&#30340;&#24515;&#24577;</text><path d="M464,423.0703 L474,423.0703 C489,423.0703 489,423.0703 504,423.0703 L514,423.0703 " fill="none" style="stroke:#181818;stroke-width:1;"/><path d="M282,394.2656 L292,394.2656 C307,394.2656 307,423.0703 322,423.0703 L332,423.0703 " fill="none" style="stroke:#181818;stroke-width:1;"/><path d="M156,279.0469 L166,279.0469 C181,279.0469 181,394.2656 196,394.2656 L206,394.2656 " fill="none" style="stroke:#181818;stroke-width:1;"/><rect fill="#F1F1F1" height="37.6094" rx="12.5" ry="12.5" style="stroke:#181818;stroke-width:1.5;" width="146" x="206" y="461.875"/><text fill="#000000" font-family="sans-serif" font-size="14" lengthAdjust="spacing" textLength="126" x="216" y="486.4082">&#30452;&#25509;&#21344;&#26377;&#21644;&#38388;&#25509;&#21344;&#26377;</text><path d="M156,279.0469 L166,279.0469 C181,279.0469 181,480.6797 196,480.6797 L206,480.6797 " fill="none" style="stroke:#181818;stroke-width:1;"/><path d="M58,279.0469 L68,279.0469 C83,279.0469 83,279.0469 98,279.0469 L108,279.0469 " fill="none" style="stroke:#181818;stroke-width:1;"/><!--SRC=[xLTRRzis57xNh-2mboI0dSkCe0YA8hMRO2lYegZTljCIAxEHI86YN7Z3W6H9jmJTqg4FIRTUDsmObeSDMujYYuFjnzIoawV-XHrALY8xeQK2UwnX6D8v7xzpU6wa5ts9XNGfirpi6SO7b9bEO15KB4x3rvTjXqnx3cOoS9s2WXK0LuZaHGeomv1KEWI5txpeFTb61HHkVTd_esCOKmEHWU0pbOZHu3E5UaytUWVVdWW6mYVR84yj757_-GCemjtDtlhh_lURntk_7V_uw1nSJ13kF-nsxeVtNlPVTiw0Oc3_yQlUpiyQUp7aU4y30NVsNeppLlcv-K2_cVNNPzLJgFjNv-YNBy9_DtfhwoFsZhxQ1ssyuktXLlUV- -5FksyFpoFlFzuxUdKO_lvtzs07dllx6_tjNo5aRzPsulLlrXwCi7SxksdsSETvkFNT-Up0SlpqMMzxBSvNz-00w81znElX-8OFlnwAfR58eEYImbiShiEBKOLTCWQ2AnJR0hleC-0kDfo0H4y8bR6vQWiUCAl27IwGG-scL7hGVgwm5XQhWbWQ-42RW6r121l7705Iw7O6k9rWkS3CrZaTAnEe5mZFqK5ZPGBLRoorAS5z7Tk7oylbSgMI8Dl4SVXT3JPMHb2Zw6BAwatY9iJBdCaQ_PIWZsOCfIUkryG-zRDZcKRFQE3-QZjAQHexDpwMQMWPH6OJYZ6NCzHcN90SUKLeXJ8oAZ-bo6bsB9KYOuoRX4bTR5YKb3W5iQZX06Q45PedziqKz2Hhfsh9NInvx3oJO8roXftAksAl2-9XWPNaNPPTRd0XiyekBvUKa7UPrMavsIhSXNQJkd8OhDJHgVGnOaD6WJGTp75JAokJ5Y5UkY663Ip156qur6_gHrvg_R2rkqqgHsEZCNEDosnBqQxCDcOvTcLYYyWJOzWqgQMl-Q5HdCLy6rhHJ_Ktl9kaYk-G8AFBkGCk26wbAZ2Znv8LaHsF-rJI5hbifjhXp3Z73icxaTCjG2vm9hLBuGHLipzFJGsEGKNk1uqxn5JqkkZW5fpRHEJaRL4E7HHHyonc5VVSuJwTzCEDExvNXsevymmnuEVYzE0gylwY-_wY-pzSTA-hFrCtgokeHOIl-dUsE3SpLofUcAXXYQxn5fgTHpEp2wNIGcaULMfrfDIJnaJraphoUG3Z2rdGt88s0bNnayPLtCBeHW3rxv85fDucwjL9L5jAX6Y9jQZWp8MQDwxUgiOWz36NDO_B23nVAfIfH3KYm2rqgsfS8RTnu4XOQdABCdi1tQml5ouOAz0R0RR144oZ2ZID56tGrVu3]--></g></svg>