<svg xmlns="http://www.w3.org/2000/svg" xmlns:xlink="http://www.w3.org/1999/xlink" contentStyleType="text/css" height="1328px" preserveAspectRatio="none" style="width:911px;height:1328px;background:#FFFFFF;" version="1.1" viewBox="0 0 911 1328" width="911px" zoomAndPan="magnify"><title>&#21512;&#21516; - &#23398;&#29702;&#20998;&#31867;</title><defs/><g><text fill="#000000" font-family="sans-serif" font-size="14" font-weight="bold" lengthAdjust="spacing" textLength="99.0664" x="404.7495" y="34.5332">&#21512;&#21516; - &#23398;&#29702;&#20998;&#31867;</text><rect fill="#F1F1F1" height="37.6094" rx="12.5" ry="12.5" style="stroke:#181818;stroke-width:1.5;" width="48" x="10" y="663.5078"/><text fill="#000000" font-family="sans-serif" font-size="14" lengthAdjust="spacing" textLength="28" x="20" y="688.041">&#21512;&#21516;</text><rect fill="#F1F1F1" height="37.6094" rx="12.5" ry="12.5" style="stroke:#181818;stroke-width:1.5;" width="76" x="108" y="663.5078"/><text fill="#000000" font-family="sans-serif" font-size="14" lengthAdjust="spacing" textLength="56" x="118" y="688.041">&#23398;&#29702;&#20998;&#31867;</text><rect fill="#F1F1F1" height="37.6094" rx="12.5" ry="12.5" style="stroke:#181818;stroke-width:1.5;" width="91.5654" x="234" y="87.4141"/><text fill="#000000" font-family="sans-serif" font-size="14" lengthAdjust="spacing" textLength="71.5654" x="244" y="111.9473">1. &#23545;&#24453;&#32473;&#20184;</text><rect fill="#F1F1F1" height="37.6094" rx="12.5" ry="12.5" style="stroke:#181818;stroke-width:1.5;" width="132" x="375.5654" y="58.6094"/><text fill="#000000" font-family="sans-serif" font-size="14" lengthAdjust="spacing" textLength="112" x="385.5654" y="83.1426">&#21333;&#21153;&#21512;&#21516;&#65288;&#20363;&#22806;&#65289;</text><rect fill="#F1F1F1" height="37.6094" rx="12.5" ry="12.5" style="stroke:#181818;stroke-width:1.5;" width="76" x="557.5654" y="58.6094"/><text fill="#000000" font-family="sans-serif" font-size="14" lengthAdjust="spacing" textLength="56" x="567.5654" y="83.1426">&#36192;&#19982;&#21512;&#21516;</text><path d="M507.5654,77.4141 L517.5654,77.4141 C532.5654,77.4141 532.5654,77.4141 547.5654,77.4141 L557.5654,77.4141 " fill="none" style="stroke:#181818;stroke-width:1;"/><path d="M325.5654,106.2188 L335.5654,106.2188 C350.5654,106.2188 350.5654,77.4141 365.5654,77.4141 L375.5654,77.4141 " fill="none" style="stroke:#181818;stroke-width:1;"/><rect fill="#F1F1F1" height="37.6094" rx="12.5" ry="12.5" style="stroke:#181818;stroke-width:1.5;" width="132" x="375.5654" y="116.2188"/><text fill="#000000" font-family="sans-serif" font-size="14" lengthAdjust="spacing" textLength="112" x="385.5654" y="140.752">&#21452;&#21153;&#21512;&#21516;&#65288;&#21407;&#21017;&#65289;</text><path d="M325.5654,106.2188 L335.5654,106.2188 C350.5654,106.2188 350.5654,135.0234 365.5654,135.0234 L375.5654,135.0234 " fill="none" style="stroke:#181818;stroke-width:1;"/><path d="M184,682.3125 L194,682.3125 C209,682.3125 209,106.2188 224,106.2188 L234,106.2188 " fill="none" style="stroke:#181818;stroke-width:1;"/><rect fill="#F1F1F1" height="37.6094" rx="12.5" ry="12.5" style="stroke:#181818;stroke-width:1.5;" width="147.5654" x="234" y="202.6328"/><text fill="#000000" font-family="sans-serif" font-size="14" lengthAdjust="spacing" textLength="127.5654" x="244" y="227.166">2. &#27861;&#24459;&#26159;&#21542;&#36171;&#20104;&#21517;&#31216;</text><rect fill="#F1F1F1" height="37.6094" rx="12.5" ry="12.5" style="stroke:#181818;stroke-width:1.5;" width="132" x="431.5654" y="173.8281"/><text fill="#000000" font-family="sans-serif" font-size="14" lengthAdjust="spacing" textLength="112" x="441.5654" y="198.3613">&#26377;&#21517;&#21512;&#21516;&#65288;&#21407;&#21017;&#65289;</text><path d="M381.5654,221.4375 L391.5654,221.4375 C406.5654,221.4375 406.5654,192.6328 421.5654,192.6328 L431.5654,192.6328 " fill="none" style="stroke:#181818;stroke-width:1;"/><rect fill="#90EE90" height="37.6094" rx="12.5" ry="12.5" style="stroke:#181818;stroke-width:1.5;" width="135.8896" x="431.5654" y="231.4375"/><text fill="#000000" font-family="sans-serif" font-size="14" lengthAdjust="spacing" textLength="112" x="441.5654" y="255.9707">&#26080;&#21517;&#21512;&#21516;&#65288;&#20363;&#22806;&#65289;</text><path d="M381.5654,221.4375 L391.5654,221.4375 C406.5654,221.4375 406.5654,250.2422 421.5654,250.2422 L431.5654,250.2422 " fill="none" style="stroke:#181818;stroke-width:1;"/><path d="M184,682.3125 L194,682.3125 C209,682.3125 209,221.4375 224,221.4375 L234,221.4375 " fill="none" style="stroke:#181818;stroke-width:1;"/><rect fill="#F1F1F1" height="37.6094" rx="12.5" ry="12.5" style="stroke:#181818;stroke-width:1.5;" width="119.5654" x="234" y="433.0703"/><text fill="#000000" font-family="sans-serif" font-size="14" lengthAdjust="spacing" textLength="99.5654" x="244" y="457.6035">3. &#26159;&#21542;&#23384;&#22312;&#23545;&#20215;</text><rect fill="#F1F1F1" height="37.6094" rx="12.5" ry="12.5" style="stroke:#181818;stroke-width:1.5;" width="132" x="403.5654" y="375.4609"/><text fill="#000000" font-family="sans-serif" font-size="14" lengthAdjust="spacing" textLength="112" x="413.5654" y="399.9941">&#26377;&#20607;&#21512;&#21516;&#65288;&#21407;&#21017;&#65289;</text><path d="M353.5654,451.875 L363.5654,451.875 C378.5654,451.875 378.5654,394.2656 393.5654,394.2656 L403.5654,394.2656 " fill="none" style="stroke:#181818;stroke-width:1;"/><rect fill="#F1F1F1" height="37.6094" rx="12.5" ry="12.5" style="stroke:#181818;stroke-width:1.5;" width="132" x="403.5654" y="433.0703"/><text fill="#000000" font-family="sans-serif" font-size="14" lengthAdjust="spacing" textLength="112" x="413.5654" y="457.6035">&#26080;&#20607;&#21512;&#21516;&#65288;&#20363;&#22806;&#65289;</text><rect fill="#F1F1F1" height="37.6094" rx="12.5" ry="12.5" style="stroke:#181818;stroke-width:1.5;" width="76" x="585.5654" y="346.6563"/><text fill="#000000" font-family="sans-serif" font-size="14" lengthAdjust="spacing" textLength="56" x="595.5654" y="371.1895">&#32431;&#31929;&#26080;&#20607;</text><rect fill="#F1F1F1" height="37.6094" rx="12.5" ry="12.5" style="stroke:#181818;stroke-width:1.5;" width="76" x="711.5654" y="289.0469"/><text fill="#000000" font-family="sans-serif" font-size="14" lengthAdjust="spacing" textLength="56" x="721.5654" y="313.5801">&#36192;&#19982;&#21512;&#21516;</text><path d="M661.5654,365.4609 L671.5654,365.4609 C686.5654,365.4609 686.5654,307.8516 701.5654,307.8516 L711.5654,307.8516 " fill="none" style="stroke:#181818;stroke-width:1;"/><rect fill="#F1F1F1" height="37.6094" rx="12.5" ry="12.5" style="stroke:#181818;stroke-width:1.5;" width="76" x="711.5654" y="346.6563"/><text fill="#000000" font-family="sans-serif" font-size="14" lengthAdjust="spacing" textLength="56" x="721.5654" y="371.1895">&#20511;&#29992;&#21512;&#21516;</text><path d="M661.5654,365.4609 L671.5654,365.4609 C686.5654,365.4609 686.5654,365.4609 701.5654,365.4609 L711.5654,365.4609 " fill="none" style="stroke:#181818;stroke-width:1;"/><rect fill="#F1F1F1" height="37.6094" rx="12.5" ry="12.5" style="stroke:#181818;stroke-width:1.5;" width="76" x="711.5654" y="404.2656"/><text fill="#000000" font-family="sans-serif" font-size="14" lengthAdjust="spacing" textLength="56" x="721.5654" y="428.7988">&#25285;&#20445;&#21512;&#21516;</text><path d="M661.5654,365.4609 L671.5654,365.4609 C686.5654,365.4609 686.5654,423.0703 701.5654,423.0703 L711.5654,423.0703 " fill="none" style="stroke:#181818;stroke-width:1;"/><path d="M535.5654,451.875 L545.5654,451.875 C560.5654,451.875 560.5654,365.4609 575.5654,365.4609 L585.5654,365.4609 " fill="none" style="stroke:#181818;stroke-width:1;"/><rect fill="#F1F1F1" height="37.6094" rx="12.5" ry="12.5" style="stroke:#181818;stroke-width:1.5;" width="104" x="585.5654" y="519.4844"/><text fill="#000000" font-family="sans-serif" font-size="14" lengthAdjust="spacing" textLength="84" x="595.5654" y="544.0176">&#21487;&#26377;&#20607;&#21487;&#26080;&#20607;</text><rect fill="#F1F1F1" height="37.6094" rx="12.5" ry="12.5" style="stroke:#181818;stroke-width:1.5;" width="76" x="739.5654" y="461.875"/><text fill="#000000" font-family="sans-serif" font-size="14" lengthAdjust="spacing" textLength="56" x="749.5654" y="486.4082">&#22996;&#25176;&#21512;&#21516;</text><path d="M689.5654,538.2891 L699.5654,538.2891 C714.5654,538.2891 714.5654,480.6797 729.5654,480.6797 L739.5654,480.6797 " fill="none" style="stroke:#181818;stroke-width:1;"/><rect fill="#F1F1F1" height="37.6094" rx="12.5" ry="12.5" style="stroke:#181818;stroke-width:1.5;" width="76" x="739.5654" y="519.4844"/><text fill="#000000" font-family="sans-serif" font-size="14" lengthAdjust="spacing" textLength="56" x="749.5654" y="544.0176">&#20445;&#31649;&#21512;&#21516;</text><path d="M689.5654,538.2891 L699.5654,538.2891 C714.5654,538.2891 714.5654,538.2891 729.5654,538.2891 L739.5654,538.2891 " fill="none" style="stroke:#181818;stroke-width:1;"/><rect fill="#F1F1F1" height="37.6094" rx="12.5" ry="12.5" style="stroke:#181818;stroke-width:1.5;" width="160" x="739.5654" y="577.0938"/><text fill="#000000" font-family="sans-serif" font-size="14" lengthAdjust="spacing" textLength="140" x="749.5654" y="601.627">&#33258;&#28982;&#20154;&#20043;&#38388;&#30340;&#20511;&#36151;&#21512;&#21516;</text><path d="M689.5654,538.2891 L699.5654,538.2891 C714.5654,538.2891 714.5654,595.8984 729.5654,595.8984 L739.5654,595.8984 " fill="none" style="stroke:#181818;stroke-width:1;"/><path d="M535.5654,451.875 L545.5654,451.875 C560.5654,451.875 560.5654,538.2891 575.5654,538.2891 L585.5654,538.2891 " fill="none" style="stroke:#181818;stroke-width:1;"/><path d="M353.5654,451.875 L363.5654,451.875 C378.5654,451.875 378.5654,451.875 393.5654,451.875 L403.5654,451.875 " fill="none" style="stroke:#181818;stroke-width:1;"/><path d="M184,682.3125 L194,682.3125 C209,682.3125 209,451.875 224,451.875 L234,451.875 " fill="none" style="stroke:#181818;stroke-width:1;"/><rect fill="#F1F1F1" height="37.6094" rx="12.5" ry="12.5" style="stroke:#181818;stroke-width:1.5;" width="91.5654" x="234" y="692.3125"/><text fill="#000000" font-family="sans-serif" font-size="14" lengthAdjust="spacing" textLength="71.5654" x="244" y="716.8457">4. &#25104;&#31435;&#26631;&#24535;</text><rect fill="#F1F1F1" height="37.6094" rx="12.5" ry="12.5" style="stroke:#181818;stroke-width:1.5;" width="146" x="375.5654" y="634.7031"/><text fill="#000000" font-family="sans-serif" font-size="14" lengthAdjust="spacing" textLength="126" x="385.5654" y="659.2363">&#35834;&#25104;&#24615;&#21512;&#21516;&#65288;&#21407;&#21017;&#65289;</text><path d="M325.5654,711.1172 L335.5654,711.1172 C350.5654,711.1172 350.5654,653.5078 365.5654,653.5078 L375.5654,653.5078 " fill="none" style="stroke:#181818;stroke-width:1;"/><rect fill="#90EE90" height="37.6094" rx="12.5" ry="12.5" style="stroke:#181818;stroke-width:1.5;" width="149.8896" x="375.5654" y="692.3125"/><text fill="#000000" font-family="sans-serif" font-size="14" lengthAdjust="spacing" textLength="126" x="385.5654" y="716.8457">&#23454;&#36341;&#24615;&#21512;&#21516;&#65288;&#20363;&#22806;&#65289;</text><rect fill="#F1F1F1" height="37.6094" rx="12.5" ry="12.5" style="stroke:#181818;stroke-width:1.5;" width="104" x="575.4551" y="663.5078"/><text fill="#000000" font-family="sans-serif" font-size="14" lengthAdjust="spacing" textLength="84" x="585.4551" y="688.041">&#20004;&#20010;&#19982;&#38065;&#26377;&#20851;</text><rect fill="#F1F1F1" height="37.6094" rx="12.5" ry="12.5" style="stroke:#181818;stroke-width:1.5;" width="76" x="729.4551" y="634.7031"/><text fill="#000000" font-family="sans-serif" font-size="14" lengthAdjust="spacing" textLength="56" x="739.4551" y="659.2363">&#23450;&#37329;&#21512;&#21516;</text><path d="M679.4551,682.3125 L689.4551,682.3125 C704.4551,682.3125 704.4551,653.5078 719.4551,653.5078 L729.4551,653.5078 " fill="none" style="stroke:#181818;stroke-width:1;"/><rect fill="#F1F1F1" height="37.6094" rx="12.5" ry="12.5" style="stroke:#181818;stroke-width:1.5;" width="160" x="729.4551" y="692.3125"/><text fill="#000000" font-family="sans-serif" font-size="14" lengthAdjust="spacing" textLength="140" x="739.4551" y="716.8457">&#33258;&#28982;&#20154;&#20043;&#38388;&#30340;&#20511;&#36151;&#21512;&#21516;</text><path d="M679.4551,682.3125 L689.4551,682.3125 C704.4551,682.3125 704.4551,711.1172 719.4551,711.1172 L729.4551,711.1172 " fill="none" style="stroke:#181818;stroke-width:1;"/><path d="M525.4551,711.1172 L535.4551,711.1172 C550.4551,711.1172 550.4551,682.3125 565.4551,682.3125 L575.4551,682.3125 " fill="none" style="stroke:#181818;stroke-width:1;"/><rect fill="#F1F1F1" height="37.6094" rx="12.5" ry="12.5" style="stroke:#181818;stroke-width:1.5;" width="104" x="575.4551" y="749.9219"/><text fill="#000000" font-family="sans-serif" font-size="14" lengthAdjust="spacing" textLength="84" x="585.4551" y="774.4551">&#20004;&#20010;&#19982;&#29289;&#26377;&#20851;</text><rect fill="#F1F1F1" height="37.6094" rx="12.5" ry="12.5" style="stroke:#181818;stroke-width:1.5;" width="76" x="729.4551" y="749.9219"/><text fill="#000000" font-family="sans-serif" font-size="14" lengthAdjust="spacing" textLength="56" x="739.4551" y="774.4551">&#20445;&#31649;&#21512;&#21516;</text><path d="M679.4551,768.7266 L689.4551,768.7266 C704.4551,768.7266 704.4551,768.7266 719.4551,768.7266 L729.4551,768.7266 " fill="none" style="stroke:#181818;stroke-width:1;"/><path d="M525.4551,711.1172 L535.4551,711.1172 C550.4551,711.1172 550.4551,768.7266 565.4551,768.7266 L575.4551,768.7266 " fill="none" style="stroke:#181818;stroke-width:1;"/><path d="M325.5654,711.1172 L335.5654,711.1172 C350.5654,711.1172 350.5654,711.1172 365.5654,711.1172 L375.5654,711.1172 " fill="none" style="stroke:#181818;stroke-width:1;"/><path d="M184,682.3125 L194,682.3125 C209,682.3125 209,711.1172 224,711.1172 L234,711.1172 " fill="none" style="stroke:#181818;stroke-width:1;"/><rect fill="#F1F1F1" height="37.6094" rx="12.5" ry="12.5" style="stroke:#181818;stroke-width:1.5;" width="147.5654" x="234" y="836.3359"/><text fill="#000000" font-family="sans-serif" font-size="14" lengthAdjust="spacing" textLength="127.5654" x="244" y="860.8691">5. &#26159;&#21542;&#38656;&#35201;&#29305;&#23450;&#24418;&#24335;</text><rect fill="#F1F1F1" height="37.6094" rx="12.5" ry="12.5" style="stroke:#181818;stroke-width:1.5;" width="76" x="431.5654" y="807.5313"/><text fill="#000000" font-family="sans-serif" font-size="14" lengthAdjust="spacing" textLength="56" x="441.5654" y="832.0645">&#35201;&#24335;&#21512;&#21516;</text><rect fill="#F1F1F1" height="37.6094" rx="12.5" ry="12.5" style="stroke:#181818;stroke-width:1.5;" width="76" x="557.5654" y="807.5313"/><text fill="#000000" font-family="sans-serif" font-size="14" lengthAdjust="spacing" textLength="56" x="567.5654" y="832.0645">&#25285;&#20445;&#21512;&#21516;</text><path d="M507.5654,826.3359 L517.5654,826.3359 C532.5654,826.3359 532.5654,826.3359 547.5654,826.3359 L557.5654,826.3359 " fill="none" style="stroke:#181818;stroke-width:1;"/><path d="M381.5654,855.1406 L391.5654,855.1406 C406.5654,855.1406 406.5654,826.3359 421.5654,826.3359 L431.5654,826.3359 " fill="none" style="stroke:#181818;stroke-width:1;"/><rect fill="#F1F1F1" height="37.6094" rx="12.5" ry="12.5" style="stroke:#181818;stroke-width:1.5;" width="90" x="431.5654" y="865.1406"/><text fill="#000000" font-family="sans-serif" font-size="14" lengthAdjust="spacing" textLength="70" x="441.5654" y="889.6738">&#19981;&#35201;&#24335;&#21512;&#21516;</text><rect fill="#F1F1F1" height="37.6094" rx="12.5" ry="12.5" style="stroke:#181818;stroke-width:1.5;" width="76" x="571.5654" y="865.1406"/><text fill="#000000" font-family="sans-serif" font-size="14" lengthAdjust="spacing" textLength="56" x="581.5654" y="889.6738">&#20080;&#21334;&#21512;&#21516;</text><path d="M521.5654,883.9453 L531.5654,883.9453 C546.5654,883.9453 546.5654,883.9453 561.5654,883.9453 L571.5654,883.9453 " fill="none" style="stroke:#181818;stroke-width:1;"/><path d="M381.5654,855.1406 L391.5654,855.1406 C406.5654,855.1406 406.5654,883.9453 421.5654,883.9453 L431.5654,883.9453 " fill="none" style="stroke:#181818;stroke-width:1;"/><path d="M184,682.3125 L194,682.3125 C209,682.3125 209,855.1406 224,855.1406 L234,855.1406 " fill="none" style="stroke:#181818;stroke-width:1;"/><rect fill="#F1F1F1" height="37.6094" rx="12.5" ry="12.5" style="stroke:#181818;stroke-width:1.5;" width="217.5654" x="234" y="980.3594"/><text fill="#000000" font-family="sans-serif" font-size="14" lengthAdjust="spacing" textLength="197.5654" x="244" y="1004.8926">6. &#21512;&#21516;&#30340;&#30446;&#30340;&#12289;&#20869;&#23481;&#21450;&#27861;&#24459;&#21518;&#26524;</text><rect fill="#F1F1F1" height="37.6094" rx="12.5" ry="12.5" style="stroke:#181818;stroke-width:1.5;" width="132" x="501.5654" y="922.75"/><text fill="#000000" font-family="sans-serif" font-size="14" lengthAdjust="spacing" textLength="112" x="511.5654" y="947.2832">&#26412;&#32422;&#21512;&#21516;&#65288;&#21407;&#21017;&#65289;</text><path d="M451.5654,999.1641 L461.5654,999.1641 C476.5654,999.1641 476.5654,941.5547 491.5654,941.5547 L501.5654,941.5547 " fill="none" style="stroke:#181818;stroke-width:1;"/><rect fill="#90EE90" height="37.6094" rx="12.5" ry="12.5" style="stroke:#181818;stroke-width:1.5;" width="135.8896" x="501.5654" y="980.3594"/><text fill="#000000" font-family="sans-serif" font-size="14" lengthAdjust="spacing" textLength="112" x="511.5654" y="1004.8926">&#39044;&#32422;&#21512;&#21516;&#65288;&#20363;&#22806;&#65289;</text><rect fill="#F1F1F1" height="37.6094" rx="12.5" ry="12.5" style="stroke:#181818;stroke-width:1.5;" width="62" x="687.4551" y="922.75"/><text fill="#000000" font-family="sans-serif" font-size="14" lengthAdjust="spacing" textLength="42" x="697.4551" y="947.2832">&#35748;&#36141;&#20070;</text><path d="M637.4551,999.1641 L647.4551,999.1641 C662.4551,999.1641 662.4551,941.5547 677.4551,941.5547 L687.4551,941.5547 " fill="none" style="stroke:#181818;stroke-width:1;"/><rect fill="#F1F1F1" height="37.6094" rx="12.5" ry="12.5" style="stroke:#181818;stroke-width:1.5;" width="62" x="687.4551" y="980.3594"/><text fill="#000000" font-family="sans-serif" font-size="14" lengthAdjust="spacing" textLength="42" x="697.4551" y="1004.8926">&#35746;&#36141;&#20070;</text><path d="M637.4551,999.1641 L647.4551,999.1641 C662.4551,999.1641 662.4551,999.1641 677.4551,999.1641 L687.4551,999.1641 " fill="none" style="stroke:#181818;stroke-width:1;"/><rect fill="#F1F1F1" height="37.6094" rx="12.5" ry="12.5" style="stroke:#181818;stroke-width:1.5;" width="62" x="687.4551" y="1037.9688"/><text fill="#000000" font-family="sans-serif" font-size="14" lengthAdjust="spacing" textLength="42" x="697.4551" y="1062.502">&#39044;&#23450;&#20070;</text><path d="M637.4551,999.1641 L647.4551,999.1641 C662.4551,999.1641 662.4551,1056.7734 677.4551,1056.7734 L687.4551,1056.7734 " fill="none" style="stroke:#181818;stroke-width:1;"/><path d="M451.5654,999.1641 L461.5654,999.1641 C476.5654,999.1641 476.5654,999.1641 491.5654,999.1641 L501.5654,999.1641 " fill="none" style="stroke:#181818;stroke-width:1;"/><path d="M184,682.3125 L194,682.3125 C209,682.3125 209,999.1641 224,999.1641 L234,999.1641 " fill="none" style="stroke:#181818;stroke-width:1;"/><rect fill="#F1F1F1" height="37.6094" rx="12.5" ry="12.5" style="stroke:#181818;stroke-width:1.5;" width="189.5654" x="234" y="1124.3828"/><text fill="#000000" font-family="sans-serif" font-size="14" lengthAdjust="spacing" textLength="169.5654" x="244" y="1148.916">7. &#32467;&#26524;&#30340;&#30830;&#23450;&#24615;&#21644;&#19981;&#30830;&#23450;&#24615;</text><rect fill="#F1F1F1" height="37.6094" rx="12.5" ry="12.5" style="stroke:#181818;stroke-width:1.5;" width="132" x="473.5654" y="1095.5781"/><text fill="#000000" font-family="sans-serif" font-size="14" lengthAdjust="spacing" textLength="112" x="483.5654" y="1120.1113">&#30830;&#23450;&#21512;&#21516;&#65288;&#21407;&#21017;&#65289;</text><path d="M423.5654,1143.1875 L433.5654,1143.1875 C448.5654,1143.1875 448.5654,1114.3828 463.5654,1114.3828 L473.5654,1114.3828 " fill="none" style="stroke:#181818;stroke-width:1;"/><rect fill="#F1F1F1" height="37.6094" rx="12.5" ry="12.5" style="stroke:#181818;stroke-width:1.5;" width="132" x="473.5654" y="1153.1875"/><text fill="#000000" font-family="sans-serif" font-size="14" lengthAdjust="spacing" textLength="112" x="483.5654" y="1177.7207">&#23556;&#24184;&#21512;&#21516;&#65288;&#20363;&#22806;&#65289;</text><rect fill="#F1F1F1" height="37.6094" rx="12.5" ry="12.5" style="stroke:#181818;stroke-width:1.5;" width="76" x="655.5654" y="1153.1875"/><text fill="#000000" font-family="sans-serif" font-size="14" lengthAdjust="spacing" textLength="56" x="665.5654" y="1177.7207">&#20445;&#38505;&#21512;&#21516;</text><path d="M605.5654,1171.9922 L615.5654,1171.9922 C630.5654,1171.9922 630.5654,1171.9922 645.5654,1171.9922 L655.5654,1171.9922 " fill="none" style="stroke:#181818;stroke-width:1;"/><path d="M423.5654,1143.1875 L433.5654,1143.1875 C448.5654,1143.1875 448.5654,1171.9922 463.5654,1171.9922 L473.5654,1171.9922 " fill="none" style="stroke:#181818;stroke-width:1;"/><path d="M184,682.3125 L194,682.3125 C209,682.3125 209,1143.1875 224,1143.1875 L234,1143.1875 " fill="none" style="stroke:#181818;stroke-width:1;"/><rect fill="#F1F1F1" height="37.6094" rx="12.5" ry="12.5" style="stroke:#181818;stroke-width:1.5;" width="91.5654" x="234" y="1239.6016"/><text fill="#000000" font-family="sans-serif" font-size="14" lengthAdjust="spacing" textLength="71.5654" x="244" y="1264.1348">8. &#26102;&#38388;&#22240;&#32032;</text><rect fill="#F1F1F1" height="37.6094" rx="12.5" ry="12.5" style="stroke:#181818;stroke-width:1.5;" width="146" x="375.5654" y="1210.7969"/><text fill="#000000" font-family="sans-serif" font-size="14" lengthAdjust="spacing" textLength="126" x="385.5654" y="1235.3301">&#19968;&#27425;&#24615;&#21512;&#21516;&#65288;&#21407;&#21017;&#65289;</text><rect fill="#F1F1F1" height="37.6094" rx="12.5" ry="12.5" style="stroke:#181818;stroke-width:1.5;" width="76" x="571.5654" y="1210.7969"/><text fill="#000000" font-family="sans-serif" font-size="14" lengthAdjust="spacing" textLength="56" x="581.5654" y="1235.3301">&#20080;&#21334;&#21512;&#21516;</text><path d="M521.5654,1229.6016 L531.5654,1229.6016 C546.5654,1229.6016 546.5654,1229.6016 561.5654,1229.6016 L571.5654,1229.6016 " fill="none" style="stroke:#181818;stroke-width:1;"/><path d="M325.5654,1258.4063 L335.5654,1258.4063 C350.5654,1258.4063 350.5654,1229.6016 365.5654,1229.6016 L375.5654,1229.6016 " fill="none" style="stroke:#181818;stroke-width:1;"/><rect fill="#F1F1F1" height="37.6094" rx="12.5" ry="12.5" style="stroke:#181818;stroke-width:1.5;" width="146" x="375.5654" y="1268.4063"/><text fill="#000000" font-family="sans-serif" font-size="14" lengthAdjust="spacing" textLength="126" x="385.5654" y="1292.9395">&#32487;&#32493;&#24615;&#21512;&#21516;&#65288;&#20363;&#22806;&#65289;</text><rect fill="#F1F1F1" height="37.6094" rx="12.5" ry="12.5" style="stroke:#181818;stroke-width:1.5;" width="76" x="571.5654" y="1268.4063"/><text fill="#000000" font-family="sans-serif" font-size="14" lengthAdjust="spacing" textLength="56" x="581.5654" y="1292.9395">&#31199;&#36161;&#21512;&#21516;</text><path d="M521.5654,1287.2109 L531.5654,1287.2109 C546.5654,1287.2109 546.5654,1287.2109 561.5654,1287.2109 L571.5654,1287.2109 " fill="none" style="stroke:#181818;stroke-width:1;"/><path d="M325.5654,1258.4063 L335.5654,1258.4063 C350.5654,1258.4063 350.5654,1287.2109 365.5654,1287.2109 L375.5654,1287.2109 " fill="none" style="stroke:#181818;stroke-width:1;"/><path d="M184,682.3125 L194,682.3125 C209,682.3125 209,1258.4063 224,1258.4063 L234,1258.4063 " fill="none" style="stroke:#181818;stroke-width:1;"/><path d="M58,682.3125 L68,682.3125 C83,682.3125 83,682.3125 98,682.3125 L108,682.3125 " fill="none" style="stroke:#181818;stroke-width:1;"/><!--SRC=[xLXRJnj757xVNp5LNy0IvX9A4KA8u83Q24THJV8-h2VsXlMEjHuxSgjA874DrwP9W8I6Yv19qc180m5Z2Z-c7g_zbB_Gizurh0rxYTItOY7BE-URxzpdxD2RO5XbCKa9nt1S4BwH555EXWdo-vlXBy7ICccEorXXoPZSfCEQ0DTKMVTBi2O8J68oGNnfcY_DeIR4TpFQqYIVdjG-vWN1Pme411zVhH2P7nzgzIE-b-Dd4rf-jP1VkP2Oc-PVyAUR1i-Nq-d2sIpVVldbTAO6Pa1BXnk5umMBIWlBufoLXI-iy-bLAuiFjVbHyTCBVZPRNDdZIvdIuMpX1E3psiv-7LbnRGRM7SXCsFA65NPXEUhk9h5u52UaH4-FnO1RO415DTzTuMjl8IQ5_D4rgiVEFQcsm9o2fftiQN_bZ0rNn2vnjSHtT5rx_jOHKfoTA9p_OGFHCxHdEWS_dApXEy-BCokEga2FbjrqX9IctclZdmid9uNSR7dvG7ir3YwK3exgDlbGEsHbUadxSxQuCSNFb-i2NTex0MbnTCSr9JpxfdHqQ4Mw58J5dUFjml5xI47vsKSzHXEVx4AJVLMU-ks_yFiQvThCEqVbrmRTXxwhLdLvRRIK6TDcSc0b_tkBdoxMnp8p1eksXjZMZsxZlClcGcwVpx-yObo7tpoX80xQwony_pCwnYSdU3R75vyQnm5VMYY-MRlIXn-qaunhqijRurQOvuoNijkbWzr2BdEjRCjM1leWkbQP3ttlHrh-Tt11zt4p2tAz29_DGT0k7klCDjRTItf_dEUEFPqoaBdowhihyU-4ubZ-37N8Nsze1njNqZfQ_B3ftbmEAJRzoUze-TrhU- -w4t5dlNGuPX89GY-1wLYTaBsr0xExCWfx17FXZeGZAewXNu3LFomdIUKNGdrO78ceDAc40rIcAfAbI9JfSf3-gcF3M1rHITW6Raghu8XAYEB4N05Oq6aNSBgAfIfM8dP66y8gD9vKux8Tr11MeVQEMPnIQSAExTk1WRw-GA2AJ1DPfazii8Qm0XNyCImfGr4Ign8FK8M5f9y9kjKYwF9g2xh7qefkiO4dHjALb5gnRSwnj4BxO4cCGlbvCaQAA5Gb7lAAqA2aaFhrImgFQXsfT395eI9Hc5rib4fIZ1GOIyCoOEfOeNaCsqHLkiZQfPZH66RKC5vXe4sY2fO3Nukzhv8uLh6-yZNRRWzJbRcLdLSknY3lpAtJFB85Q0pQZTcLWxdJZavFdq8Ya54WjGRJwTHoosIOaBYr8MeLzCCfEYnBYQZzaMVPNwljILHYzR6nKNEFCdTD5Q_4D5OyU2NYC64Noh0eIc7xcgyvYjsO7q4h9Ypz3SyY2UB79EdIvLG64rGQjbIWIuzLTrJqn6b2ObAAt1OjxN3bECSoyUh8fGkG2-nA7PDWWkfdlvUQCiUWJfv83Zyceavl5nsSWhbDL8-yAOb21rMegHkp7dVFuRuywMiRrxbNQshPTOO8yDNTRBwAtDp8RsxaDpVocnlvpOtyvaR-VxYHtzV_FVqWE8XIH4teBngj_hQMjdP_PqC8CtIFfb1h1sffxMflxshlG87G4DB5ZK93yCSXbA19UCz2ONWBKQNXf3wQ6uMxE8NHJqaOr37IXVIdXg5W8mhrLnTHlvAILAh4O3WBTny63H3wWR9GdB8AkAEzgKzYA4HKC0iz30fto2ESb1bi5MbOKY9TwC7GG5EdC0X3F8aZe0XUcm8mtPcQ1bdeNm00]--></g></svg>