<svg xmlns="http://www.w3.org/2000/svg" xmlns:xlink="http://www.w3.org/1999/xlink" contentStyleType="text/css" height="982px" preserveAspectRatio="none" style="width:504px;height:982px;background:#FFFFFF;" version="1.1" viewBox="0 0 504 982" width="504px" zoomAndPan="magnify"><title>&#21512;&#21516; - &#23398;&#29702;&#20998;&#31867;</title><defs/><g><text fill="#000000" font-family="sans-serif" font-size="14" font-weight="bold" lengthAdjust="spacing" textLength="99.0664" x="200.9668" y="34.5332">&#21512;&#21516; - &#23398;&#29702;&#20998;&#31867;</text><rect fill="#F1F1F1" height="37.6094" rx="12.5" ry="12.5" style="stroke:#181818;stroke-width:1.5;" width="48" x="10" y="490.6797"/><text fill="#000000" font-family="sans-serif" font-size="14" lengthAdjust="spacing" textLength="28" x="20" y="515.2129">&#21512;&#21516;</text><rect fill="#F1F1F1" height="37.6094" rx="12.5" ry="12.5" style="stroke:#181818;stroke-width:1.5;" width="76" x="108" y="87.4141"/><text fill="#000000" font-family="sans-serif" font-size="14" lengthAdjust="spacing" textLength="56" x="118" y="111.9473">&#20445;&#31649;&#21512;&#21516;</text><rect fill="#F1F1F1" height="37.6094" rx="12.5" ry="12.5" style="stroke:#181818;stroke-width:1.5;" width="104" x="234" y="58.6094"/><text fill="#000000" font-family="sans-serif" font-size="14" lengthAdjust="spacing" textLength="84" x="244" y="83.1426">&#21487;&#26377;&#20607;&#21487;&#26080;&#20607;</text><path d="M184,106.2188 L194,106.2188 C209,106.2188 209,77.4141 224,77.4141 L234,77.4141 " fill="none" style="stroke:#181818;stroke-width:1;"/><rect fill="#F1F1F1" height="37.6094" rx="12.5" ry="12.5" style="stroke:#181818;stroke-width:1.5;" width="174" x="234" y="116.2188"/><text fill="#000000" font-family="sans-serif" font-size="14" lengthAdjust="spacing" textLength="154" x="244" y="140.752">&#23454;&#36341;&#24615;&#21512;&#21516;&#65288;&#19982;&#29289;&#26377;&#20851;&#65289;</text><path d="M184,106.2188 L194,106.2188 C209,106.2188 209,135.0234 224,135.0234 L234,135.0234 " fill="none" style="stroke:#181818;stroke-width:1;"/><path d="M58,509.4844 L68,509.4844 C83,509.4844 83,106.2188 98,106.2188 L108,106.2188 " fill="none" style="stroke:#181818;stroke-width:1;"/><rect fill="#F1F1F1" height="37.6094" rx="12.5" ry="12.5" style="stroke:#181818;stroke-width:1.5;" width="76" x="108" y="173.8281"/><text fill="#000000" font-family="sans-serif" font-size="14" lengthAdjust="spacing" textLength="56" x="118" y="198.3613">&#20445;&#38505;&#21512;&#21516;</text><rect fill="#F1F1F1" height="37.6094" rx="12.5" ry="12.5" style="stroke:#181818;stroke-width:1.5;" width="76" x="234" y="173.8281"/><text fill="#000000" font-family="sans-serif" font-size="14" lengthAdjust="spacing" textLength="56" x="244" y="198.3613">&#23556;&#24184;&#21512;&#21516;</text><path d="M184,192.6328 L194,192.6328 C209,192.6328 209,192.6328 224,192.6328 L234,192.6328 " fill="none" style="stroke:#181818;stroke-width:1;"/><path d="M58,509.4844 L68,509.4844 C83,509.4844 83,192.6328 98,192.6328 L108,192.6328 " fill="none" style="stroke:#181818;stroke-width:1;"/><rect fill="#F1F1F1" height="37.6094" rx="12.5" ry="12.5" style="stroke:#181818;stroke-width:1.5;" width="76" x="108" y="260.2422"/><text fill="#000000" font-family="sans-serif" font-size="14" lengthAdjust="spacing" textLength="56" x="118" y="284.7754">&#25285;&#20445;&#21512;&#21516;</text><rect fill="#F1F1F1" height="37.6094" rx="12.5" ry="12.5" style="stroke:#181818;stroke-width:1.5;" width="104" x="234" y="231.4375"/><text fill="#000000" font-family="sans-serif" font-size="14" lengthAdjust="spacing" textLength="84" x="244" y="255.9707">&#32431;&#31929;&#26080;&#20607;&#21512;&#21516;</text><path d="M184,279.0469 L194,279.0469 C209,279.0469 209,250.2422 224,250.2422 L234,250.2422 " fill="none" style="stroke:#181818;stroke-width:1;"/><rect fill="#F1F1F1" height="37.6094" rx="12.5" ry="12.5" style="stroke:#181818;stroke-width:1.5;" width="76" x="234" y="289.0469"/><text fill="#000000" font-family="sans-serif" font-size="14" lengthAdjust="spacing" textLength="56" x="244" y="313.5801">&#35201;&#24335;&#21512;&#21516;</text><path d="M184,279.0469 L194,279.0469 C209,279.0469 209,307.8516 224,307.8516 L234,307.8516 " fill="none" style="stroke:#181818;stroke-width:1;"/><path d="M58,509.4844 L68,509.4844 C83,509.4844 83,279.0469 98,279.0469 L108,279.0469 " fill="none" style="stroke:#181818;stroke-width:1;"/><rect fill="#F1F1F1" height="37.6094" rx="12.5" ry="12.5" style="stroke:#181818;stroke-width:1.5;" width="76" x="108" y="346.6563"/><text fill="#000000" font-family="sans-serif" font-size="14" lengthAdjust="spacing" textLength="56" x="118" y="371.1895">&#23450;&#37329;&#21512;&#21516;</text><rect fill="#F1F1F1" height="37.6094" rx="12.5" ry="12.5" style="stroke:#181818;stroke-width:1.5;" width="174" x="234" y="346.6563"/><text fill="#000000" font-family="sans-serif" font-size="14" lengthAdjust="spacing" textLength="154" x="244" y="371.1895">&#23454;&#36341;&#24615;&#21512;&#21516;&#65288;&#19982;&#38065;&#26377;&#20851;&#65289;</text><path d="M184,365.4609 L194,365.4609 C209,365.4609 209,365.4609 224,365.4609 L234,365.4609 " fill="none" style="stroke:#181818;stroke-width:1;"/><path d="M58,509.4844 L68,509.4844 C83,509.4844 83,365.4609 98,365.4609 L108,365.4609 " fill="none" style="stroke:#181818;stroke-width:1;"/><rect fill="#F1F1F1" height="37.6094" rx="12.5" ry="12.5" style="stroke:#181818;stroke-width:1.5;" width="76" x="108" y="433.0703"/><text fill="#000000" font-family="sans-serif" font-size="14" lengthAdjust="spacing" textLength="56" x="118" y="457.6035">&#20511;&#29992;&#21512;&#21516;</text><rect fill="#F1F1F1" height="37.6094" rx="12.5" ry="12.5" style="stroke:#181818;stroke-width:1.5;" width="104" x="234" y="404.2656"/><text fill="#000000" font-family="sans-serif" font-size="14" lengthAdjust="spacing" textLength="84" x="244" y="428.7988">&#32431;&#31929;&#26080;&#20607;&#21512;&#21516;</text><path d="M184,451.875 L194,451.875 C209,451.875 209,423.0703 224,423.0703 L234,423.0703 " fill="none" style="stroke:#181818;stroke-width:1;"/><rect fill="#F1F1F1" height="37.6094" rx="12.5" ry="12.5" style="stroke:#181818;stroke-width:1.5;" width="174" x="234" y="461.875"/><text fill="#000000" font-family="sans-serif" font-size="14" lengthAdjust="spacing" textLength="154" x="244" y="486.4082">&#23454;&#36341;&#24615;&#21512;&#21516;&#65288;&#19982;&#29289;&#26377;&#20851;&#65289;</text><path d="M184,451.875 L194,451.875 C209,451.875 209,480.6797 224,480.6797 L234,480.6797 " fill="none" style="stroke:#181818;stroke-width:1;"/><path d="M58,509.4844 L68,509.4844 C83,509.4844 83,451.875 98,451.875 L108,451.875 " fill="none" style="stroke:#181818;stroke-width:1;"/><rect fill="#F1F1F1" height="37.6094" rx="12.5" ry="12.5" style="stroke:#181818;stroke-width:1.5;" width="76" x="108" y="548.2891"/><text fill="#000000" font-family="sans-serif" font-size="14" lengthAdjust="spacing" textLength="56" x="118" y="572.8223">&#20080;&#21334;&#21512;&#21516;</text><rect fill="#F1F1F1" height="37.6094" rx="12.5" ry="12.5" style="stroke:#181818;stroke-width:1.5;" width="90" x="234" y="519.4844"/><text fill="#000000" font-family="sans-serif" font-size="14" lengthAdjust="spacing" textLength="70" x="244" y="544.0176">&#19981;&#35201;&#24335;&#21512;&#21516;</text><path d="M184,567.0938 L194,567.0938 C209,567.0938 209,538.2891 224,538.2891 L234,538.2891 " fill="none" style="stroke:#181818;stroke-width:1;"/><rect fill="#F1F1F1" height="37.6094" rx="12.5" ry="12.5" style="stroke:#181818;stroke-width:1.5;" width="90" x="234" y="577.0938"/><text fill="#000000" font-family="sans-serif" font-size="14" lengthAdjust="spacing" textLength="70" x="244" y="601.627">&#19968;&#27425;&#24615;&#21512;&#21516;</text><path d="M184,567.0938 L194,567.0938 C209,567.0938 209,595.8984 224,595.8984 L234,595.8984 " fill="none" style="stroke:#181818;stroke-width:1;"/><path d="M58,509.4844 L68,509.4844 C83,509.4844 83,567.0938 98,567.0938 L108,567.0938 " fill="none" style="stroke:#181818;stroke-width:1;"/><rect fill="#F1F1F1" height="37.6094" rx="12.5" ry="12.5" style="stroke:#181818;stroke-width:1.5;" width="76" x="108" y="634.7031"/><text fill="#000000" font-family="sans-serif" font-size="14" lengthAdjust="spacing" textLength="56" x="118" y="659.2363">&#22996;&#25176;&#21512;&#21516;</text><rect fill="#F1F1F1" height="37.6094" rx="12.5" ry="12.5" style="stroke:#181818;stroke-width:1.5;" width="104" x="234" y="634.7031"/><text fill="#000000" font-family="sans-serif" font-size="14" lengthAdjust="spacing" textLength="84" x="244" y="659.2363">&#21487;&#26377;&#20607;&#21487;&#26080;&#20607;</text><path d="M184,653.5078 L194,653.5078 C209,653.5078 209,653.5078 224,653.5078 L234,653.5078 " fill="none" style="stroke:#181818;stroke-width:1;"/><path d="M58,509.4844 L68,509.4844 C83,509.4844 83,653.5078 98,653.5078 L108,653.5078 " fill="none" style="stroke:#181818;stroke-width:1;"/><rect fill="#F1F1F1" height="37.6094" rx="12.5" ry="12.5" style="stroke:#181818;stroke-width:1.5;" width="76" x="108" y="721.1172"/><text fill="#000000" font-family="sans-serif" font-size="14" lengthAdjust="spacing" textLength="56" x="118" y="745.6504">&#36192;&#19982;&#21512;&#21516;</text><rect fill="#F1F1F1" height="37.6094" rx="12.5" ry="12.5" style="stroke:#181818;stroke-width:1.5;" width="76" x="234" y="692.3125"/><text fill="#000000" font-family="sans-serif" font-size="14" lengthAdjust="spacing" textLength="56" x="244" y="716.8457">&#21333;&#21153;&#21512;&#21516;</text><path d="M184,739.9219 L194,739.9219 C209,739.9219 209,711.1172 224,711.1172 L234,711.1172 " fill="none" style="stroke:#181818;stroke-width:1;"/><rect fill="#F1F1F1" height="37.6094" rx="12.5" ry="12.5" style="stroke:#181818;stroke-width:1.5;" width="104" x="234" y="749.9219"/><text fill="#000000" font-family="sans-serif" font-size="14" lengthAdjust="spacing" textLength="84" x="244" y="774.4551">&#32431;&#31929;&#26080;&#20607;&#21512;&#21516;</text><path d="M184,739.9219 L194,739.9219 C209,739.9219 209,768.7266 224,768.7266 L234,768.7266 " fill="none" style="stroke:#181818;stroke-width:1;"/><path d="M58,509.4844 L68,509.4844 C83,509.4844 83,739.9219 98,739.9219 L108,739.9219 " fill="none" style="stroke:#181818;stroke-width:1;"/><rect fill="#F1F1F1" height="37.6094" rx="12.5" ry="12.5" style="stroke:#181818;stroke-width:1.5;" width="160" x="108" y="836.3359"/><text fill="#000000" font-family="sans-serif" font-size="14" lengthAdjust="spacing" textLength="140" x="118" y="860.8691">&#33258;&#28982;&#20154;&#20043;&#38388;&#30340;&#20511;&#36151;&#21512;&#21516;</text><rect fill="#F1F1F1" height="37.6094" rx="12.5" ry="12.5" style="stroke:#181818;stroke-width:1.5;" width="104" x="318" y="807.5313"/><text fill="#000000" font-family="sans-serif" font-size="14" lengthAdjust="spacing" textLength="84" x="328" y="832.0645">&#21487;&#26377;&#20607;&#21487;&#26080;&#20607;</text><path d="M268,855.1406 L278,855.1406 C293,855.1406 293,826.3359 308,826.3359 L318,826.3359 " fill="none" style="stroke:#181818;stroke-width:1;"/><rect fill="#F1F1F1" height="37.6094" rx="12.5" ry="12.5" style="stroke:#181818;stroke-width:1.5;" width="174" x="318" y="865.1406"/><text fill="#000000" font-family="sans-serif" font-size="14" lengthAdjust="spacing" textLength="154" x="328" y="889.6738">&#23454;&#36341;&#24615;&#21512;&#21516;&#65288;&#19982;&#38065;&#26377;&#20851;&#65289;</text><path d="M268,855.1406 L278,855.1406 C293,855.1406 293,883.9453 308,883.9453 L318,883.9453 " fill="none" style="stroke:#181818;stroke-width:1;"/><path d="M58,509.4844 L68,509.4844 C83,509.4844 83,855.1406 98,855.1406 L108,855.1406 " fill="none" style="stroke:#181818;stroke-width:1;"/><rect fill="#F1F1F1" height="37.6094" rx="12.5" ry="12.5" style="stroke:#181818;stroke-width:1.5;" width="76" x="108" y="922.75"/><text fill="#000000" font-family="sans-serif" font-size="14" lengthAdjust="spacing" textLength="56" x="118" y="947.2832">&#31199;&#36161;&#21512;&#21516;</text><rect fill="#F1F1F1" height="37.6094" rx="12.5" ry="12.5" style="stroke:#181818;stroke-width:1.5;" width="90" x="234" y="922.75"/><text fill="#000000" font-family="sans-serif" font-size="14" lengthAdjust="spacing" textLength="70" x="244" y="947.2832">&#32487;&#32493;&#24615;&#21512;&#21516;</text><path d="M184,941.5547 L194,941.5547 C209,941.5547 209,941.5547 224,941.5547 L234,941.5547 " fill="none" style="stroke:#181818;stroke-width:1;"/><path d="M58,509.4844 L68,509.4844 C83,509.4844 83,941.5547 98,941.5547 L108,941.5547 " fill="none" style="stroke:#181818;stroke-width:1;"/><!--SRC=[xLVVRzDM57xtNt6dlRH8INyigb25ffBGQaCDGalW_SQ-E9VQzrhNrq4PcjHA1LgWevlOsD0sw0iTqoYmqT5V4lzC7BTF_0ixjkF6gN7iIdiRKHJPvtptE-UUSxzZPyQMM4YJCit4bg9yGfbgE1f1nU8OV6tPDiYOPM0c7TCe-B02u0g1lKZ1fYYIIeCWTtt5NR-F2iXzySnRl-sktFPUxolAcPv3GV0vWphlVlMsDcAcqEm-UDdzPTLTUkTVF7eA5t7drc-7RxUxYvlXilS7AvsTRxtLv_wAMt-_FrZjSn_z_3p9_MhPtTqPoA9xxnQ04qXlxwNtrsuOF-4yVBRa7ZmOe76t7X_T-IuPy4Fv7dt_-cI-xk8Jx-7lfyiYTorsNxbhFoQMTtRM4lk8F8lTFpUEYQCKDnzsLt_AsoueqlPJo2U9N_l1lRkHTwT0S-SFR_cVpjvUP_VUqQCttkDbgDNXcxV_mRdvG1-ypIU7sql9xFOtlVqN_OeeoWm1aKH2cHdKpRb04PyhFSC5YdM1JNGJ28iDmo715K9bh2xeWZjCgt232sHGlIbzFtY_yR4Q5Wk2Q2dmdZS2wu8GDemv0CJGxGnmEy9oWPcUbdJeZA2M8omZ3Hew8sZwncAR4jnEO_jqRgvShbGYP9iO1h-HWWsT0LGfcfYoUfEO4V4SPx96loReit75znFJQcARsjcrZAF7K-3sGZjeQHmxERoMSMWPJ6eJJc2kPAZEk20v-ehGF6NafBrFaJFiK2gVZ36k4YRJQiE2feGj24qD0p0dM44yOMwgeCTTwxibDx7aOV9CGZJA6JOgfyLU5iJ20lkMqomxt-12PXsxl5nIGjzbbj9oibMu2NAJQSUXjpADpcyV8pfq54ZZnHmsjR8wgH5YnGKn660MfcZ3e7OpVUJ5rWz6kz6aycHjKi9SuZ8xKh0hjOrPZbsfM2FoE1XMLQgbd_c1KPp5V0saQCVq3VSggUBhnCbGEJSW1S6rs0dCq5Yq8eXZSPjAsYBdrPWS4kCS6oJlHlfRW5xWJ6gJmXFKd_rvpbJlCUYJsqxZEb5z-hJgu1Oyjud8oTkY71GKKFCiPh_kkSlTd_I3mXskrO6pdFaCKU3dt5ZlLUJZY_d75_F_uOlvPV_FwfNgF6eHOVlpPg8uEJvPAfuTgM69Bl4McfX2unFJfT9qQGfLQdNakqULaUgNTMHp1yOjqc0O2TfmV8MEAXTn2wEl7D2hIQQHVpTIhuwYscnaHBEiHGLd9cXKkNYr6eBG5rpMB2u3y5IfKAOIrOY0jD3LgdA1NCEE8M6foZNAz6bqfJvNEAlCWvOTh4CWc9uL4BaKRV3L_WK0]--></g></svg>