<svg xmlns="http://www.w3.org/2000/svg" xmlns:xlink="http://www.w3.org/1999/xlink" contentStyleType="text/css" height="1500px" preserveAspectRatio="none" style="width:504px;height:1500px;background:#FFFFFF;" version="1.1" viewBox="0 0 504 1500" width="504px" zoomAndPan="magnify"><title>&#21512;&#21516; - &#23398;&#29702;&#20998;&#31867;</title><defs/><g><text fill="#000000" font-family="sans-serif" font-size="14" font-weight="bold" lengthAdjust="spacing" textLength="99.0664" x="200.9668" y="34.5332">&#21512;&#21516; - &#23398;&#29702;&#20998;&#31867;</text><rect fill="#F1F1F1" height="37.6094" rx="12.5" ry="12.5" style="stroke:#181818;stroke-width:1.5;" width="48" x="10" y="749.9219"/><text fill="#000000" font-family="sans-serif" font-size="14" lengthAdjust="spacing" textLength="28" x="20" y="774.4551">&#21512;&#21516;</text><rect fill="#F1F1F1" height="37.6094" rx="12.5" ry="12.5" style="stroke:#181818;stroke-width:1.5;" width="76" x="108" y="87.4141"/><text fill="#000000" font-family="sans-serif" font-size="14" lengthAdjust="spacing" textLength="56" x="118" y="111.9473">&#20445;&#31649;&#21512;&#21516;</text><rect fill="#F1F1F1" height="37.6094" rx="12.5" ry="12.5" style="stroke:#181818;stroke-width:1.5;" width="104" x="234" y="58.6094"/><text fill="#000000" font-family="sans-serif" font-size="14" lengthAdjust="spacing" textLength="84" x="244" y="83.1426">&#21487;&#26377;&#20607;&#21487;&#26080;&#20607;</text><path d="M184,106.2188 L194,106.2188 C209,106.2188 209,77.4141 224,77.4141 L234,77.4141 " fill="none" style="stroke:#181818;stroke-width:1;"/><rect fill="#F1F1F1" height="37.6094" rx="12.5" ry="12.5" style="stroke:#181818;stroke-width:1.5;" width="174" x="234" y="116.2188"/><text fill="#000000" font-family="sans-serif" font-size="14" lengthAdjust="spacing" textLength="154" x="244" y="140.752">&#23454;&#36341;&#24615;&#21512;&#21516;&#65288;&#19982;&#29289;&#26377;&#20851;&#65289;</text><path d="M184,106.2188 L194,106.2188 C209,106.2188 209,135.0234 224,135.0234 L234,135.0234 " fill="none" style="stroke:#181818;stroke-width:1;"/><path d="M58,768.7266 L68,768.7266 C83,768.7266 83,106.2188 98,106.2188 L108,106.2188 " fill="none" style="stroke:#181818;stroke-width:1;"/><rect fill="#F1F1F1" height="37.6094" rx="12.5" ry="12.5" style="stroke:#181818;stroke-width:1.5;" width="76" x="108" y="173.8281"/><text fill="#000000" font-family="sans-serif" font-size="14" lengthAdjust="spacing" textLength="56" x="118" y="198.3613">&#20445;&#38505;&#21512;&#21516;</text><rect fill="#F1F1F1" height="37.6094" rx="12.5" ry="12.5" style="stroke:#181818;stroke-width:1.5;" width="76" x="234" y="173.8281"/><text fill="#000000" font-family="sans-serif" font-size="14" lengthAdjust="spacing" textLength="56" x="244" y="198.3613">&#23556;&#24184;&#21512;&#21516;</text><path d="M184,192.6328 L194,192.6328 C209,192.6328 209,192.6328 224,192.6328 L234,192.6328 " fill="none" style="stroke:#181818;stroke-width:1;"/><path d="M58,768.7266 L68,768.7266 C83,768.7266 83,192.6328 98,192.6328 L108,192.6328 " fill="none" style="stroke:#181818;stroke-width:1;"/><rect fill="#F1F1F1" height="37.6094" rx="12.5" ry="12.5" style="stroke:#181818;stroke-width:1.5;" width="76" x="108" y="260.2422"/><text fill="#000000" font-family="sans-serif" font-size="14" lengthAdjust="spacing" textLength="56" x="118" y="284.7754">&#25285;&#20445;&#21512;&#21516;</text><rect fill="#F1F1F1" height="37.6094" rx="12.5" ry="12.5" style="stroke:#181818;stroke-width:1.5;" width="104" x="234" y="231.4375"/><text fill="#000000" font-family="sans-serif" font-size="14" lengthAdjust="spacing" textLength="84" x="244" y="255.9707">&#32431;&#31929;&#26080;&#20607;&#21512;&#21516;</text><path d="M184,279.0469 L194,279.0469 C209,279.0469 209,250.2422 224,250.2422 L234,250.2422 " fill="none" style="stroke:#181818;stroke-width:1;"/><rect fill="#F1F1F1" height="37.6094" rx="12.5" ry="12.5" style="stroke:#181818;stroke-width:1.5;" width="76" x="234" y="289.0469"/><text fill="#000000" font-family="sans-serif" font-size="14" lengthAdjust="spacing" textLength="56" x="244" y="313.5801">&#35201;&#24335;&#21512;&#21516;</text><path d="M184,279.0469 L194,279.0469 C209,279.0469 209,307.8516 224,307.8516 L234,307.8516 " fill="none" style="stroke:#181818;stroke-width:1;"/><path d="M58,768.7266 L68,768.7266 C83,768.7266 83,279.0469 98,279.0469 L108,279.0469 " fill="none" style="stroke:#181818;stroke-width:1;"/><rect fill="#F1F1F1" height="37.6094" rx="12.5" ry="12.5" style="stroke:#181818;stroke-width:1.5;" width="76" x="108" y="346.6563"/><text fill="#000000" font-family="sans-serif" font-size="14" lengthAdjust="spacing" textLength="56" x="118" y="371.1895">&#23450;&#37329;&#21512;&#21516;</text><rect fill="#F1F1F1" height="37.6094" rx="12.5" ry="12.5" style="stroke:#181818;stroke-width:1.5;" width="174" x="234" y="346.6563"/><text fill="#000000" font-family="sans-serif" font-size="14" lengthAdjust="spacing" textLength="154" x="244" y="371.1895">&#23454;&#36341;&#24615;&#21512;&#21516;&#65288;&#19982;&#38065;&#26377;&#20851;&#65289;</text><path d="M184,365.4609 L194,365.4609 C209,365.4609 209,365.4609 224,365.4609 L234,365.4609 " fill="none" style="stroke:#181818;stroke-width:1;"/><path d="M58,768.7266 L68,768.7266 C83,768.7266 83,365.4609 98,365.4609 L108,365.4609 " fill="none" style="stroke:#181818;stroke-width:1;"/><rect fill="#F1F1F1" height="37.6094" rx="12.5" ry="12.5" style="stroke:#181818;stroke-width:1.5;" width="76" x="108" y="461.875"/><text fill="#000000" font-family="sans-serif" font-size="14" lengthAdjust="spacing" textLength="56" x="118" y="486.4082">&#20511;&#29992;&#21512;&#21516;</text><rect fill="#F1F1F1" height="37.6094" rx="12.5" ry="12.5" style="stroke:#181818;stroke-width:1.5;" width="76" x="234" y="404.2656"/><text fill="#000000" font-family="sans-serif" font-size="14" lengthAdjust="spacing" textLength="56" x="244" y="428.7988">&#26080;&#21517;&#21512;&#21516;</text><path d="M184,480.6797 L194,480.6797 C209,480.6797 209,423.0703 224,423.0703 L234,423.0703 " fill="none" style="stroke:#181818;stroke-width:1;"/><rect fill="#F1F1F1" height="37.6094" rx="12.5" ry="12.5" style="stroke:#181818;stroke-width:1.5;" width="104" x="234" y="461.875"/><text fill="#000000" font-family="sans-serif" font-size="14" lengthAdjust="spacing" textLength="84" x="244" y="486.4082">&#32431;&#31929;&#26080;&#20607;&#21512;&#21516;</text><path d="M184,480.6797 L194,480.6797 C209,480.6797 209,480.6797 224,480.6797 L234,480.6797 " fill="none" style="stroke:#181818;stroke-width:1;"/><rect fill="#F1F1F1" height="37.6094" rx="12.5" ry="12.5" style="stroke:#181818;stroke-width:1.5;" width="174" x="234" y="519.4844"/><text fill="#000000" font-family="sans-serif" font-size="14" lengthAdjust="spacing" textLength="154" x="244" y="544.0176">&#23454;&#36341;&#24615;&#21512;&#21516;&#65288;&#19982;&#29289;&#26377;&#20851;&#65289;</text><path d="M184,480.6797 L194,480.6797 C209,480.6797 209,538.2891 224,538.2891 L234,538.2891 " fill="none" style="stroke:#181818;stroke-width:1;"/><path d="M58,768.7266 L68,768.7266 C83,768.7266 83,480.6797 98,480.6797 L108,480.6797 " fill="none" style="stroke:#181818;stroke-width:1;"/><rect fill="#F1F1F1" height="37.6094" rx="12.5" ry="12.5" style="stroke:#181818;stroke-width:1.5;" width="76" x="108" y="605.8984"/><text fill="#000000" font-family="sans-serif" font-size="14" lengthAdjust="spacing" textLength="56" x="118" y="630.4316">&#21171;&#21153;&#21512;&#21516;</text><rect fill="#F1F1F1" height="37.6094" rx="12.5" ry="12.5" style="stroke:#181818;stroke-width:1.5;" width="76" x="234" y="577.0938"/><text fill="#000000" font-family="sans-serif" font-size="14" lengthAdjust="spacing" textLength="56" x="244" y="601.627">&#26377;&#20607;&#21512;&#21516;</text><path d="M184,624.7031 L194,624.7031 C209,624.7031 209,595.8984 224,595.8984 L234,595.8984 " fill="none" style="stroke:#181818;stroke-width:1;"/><rect fill="#F1F1F1" height="37.6094" rx="12.5" ry="12.5" style="stroke:#181818;stroke-width:1.5;" width="90" x="234" y="634.7031"/><text fill="#000000" font-family="sans-serif" font-size="14" lengthAdjust="spacing" textLength="70" x="244" y="659.2363">&#32487;&#32493;&#24615;&#21512;&#21516;</text><path d="M184,624.7031 L194,624.7031 C209,624.7031 209,653.5078 224,653.5078 L234,653.5078 " fill="none" style="stroke:#181818;stroke-width:1;"/><path d="M58,768.7266 L68,768.7266 C83,768.7266 83,624.7031 98,624.7031 L108,624.7031 " fill="none" style="stroke:#181818;stroke-width:1;"/><rect fill="#F1F1F1" height="37.6094" rx="12.5" ry="12.5" style="stroke:#181818;stroke-width:1.5;" width="76" x="108" y="807.5313"/><text fill="#000000" font-family="sans-serif" font-size="14" lengthAdjust="spacing" textLength="56" x="118" y="832.0645">&#20080;&#21334;&#21512;&#21516;</text><rect fill="#F1F1F1" height="37.6094" rx="12.5" ry="12.5" style="stroke:#181818;stroke-width:1.5;" width="76" x="234" y="692.3125"/><text fill="#000000" font-family="sans-serif" font-size="14" lengthAdjust="spacing" textLength="56" x="244" y="716.8457">&#21452;&#21153;&#21512;&#21516;</text><path d="M184,826.3359 L194,826.3359 C209,826.3359 209,711.1172 224,711.1172 L234,711.1172 " fill="none" style="stroke:#181818;stroke-width:1;"/><rect fill="#F1F1F1" height="37.6094" rx="12.5" ry="12.5" style="stroke:#181818;stroke-width:1.5;" width="76" x="234" y="749.9219"/><text fill="#000000" font-family="sans-serif" font-size="14" lengthAdjust="spacing" textLength="56" x="244" y="774.4551">&#26377;&#20607;&#21512;&#21516;</text><path d="M184,826.3359 L194,826.3359 C209,826.3359 209,768.7266 224,768.7266 L234,768.7266 " fill="none" style="stroke:#181818;stroke-width:1;"/><rect fill="#F1F1F1" height="37.6094" rx="12.5" ry="12.5" style="stroke:#181818;stroke-width:1.5;" width="90" x="234" y="807.5313"/><text fill="#000000" font-family="sans-serif" font-size="14" lengthAdjust="spacing" textLength="70" x="244" y="832.0645">&#35834;&#25104;&#24615;&#21512;&#21516;</text><path d="M184,826.3359 L194,826.3359 C209,826.3359 209,826.3359 224,826.3359 L234,826.3359 " fill="none" style="stroke:#181818;stroke-width:1;"/><rect fill="#F1F1F1" height="37.6094" rx="12.5" ry="12.5" style="stroke:#181818;stroke-width:1.5;" width="90" x="234" y="865.1406"/><text fill="#000000" font-family="sans-serif" font-size="14" lengthAdjust="spacing" textLength="70" x="244" y="889.6738">&#19981;&#35201;&#24335;&#21512;&#21516;</text><path d="M184,826.3359 L194,826.3359 C209,826.3359 209,883.9453 224,883.9453 L234,883.9453 " fill="none" style="stroke:#181818;stroke-width:1;"/><rect fill="#F1F1F1" height="37.6094" rx="12.5" ry="12.5" style="stroke:#181818;stroke-width:1.5;" width="90" x="234" y="922.75"/><text fill="#000000" font-family="sans-serif" font-size="14" lengthAdjust="spacing" textLength="70" x="244" y="947.2832">&#19968;&#27425;&#24615;&#21512;&#21516;</text><path d="M184,826.3359 L194,826.3359 C209,826.3359 209,941.5547 224,941.5547 L234,941.5547 " fill="none" style="stroke:#181818;stroke-width:1;"/><path d="M58,768.7266 L68,768.7266 C83,768.7266 83,826.3359 98,826.3359 L108,826.3359 " fill="none" style="stroke:#181818;stroke-width:1;"/><rect fill="#F1F1F1" height="37.6094" rx="12.5" ry="12.5" style="stroke:#181818;stroke-width:1.5;" width="76" x="108" y="980.3594"/><text fill="#000000" font-family="sans-serif" font-size="14" lengthAdjust="spacing" textLength="56" x="118" y="1004.8926">&#22996;&#25176;&#21512;&#21516;</text><rect fill="#F1F1F1" height="37.6094" rx="12.5" ry="12.5" style="stroke:#181818;stroke-width:1.5;" width="104" x="234" y="980.3594"/><text fill="#000000" font-family="sans-serif" font-size="14" lengthAdjust="spacing" textLength="84" x="244" y="1004.8926">&#21487;&#26377;&#20607;&#21487;&#26080;&#20607;</text><path d="M184,999.1641 L194,999.1641 C209,999.1641 209,999.1641 224,999.1641 L234,999.1641 " fill="none" style="stroke:#181818;stroke-width:1;"/><path d="M58,768.7266 L68,768.7266 C83,768.7266 83,999.1641 98,999.1641 L108,999.1641 " fill="none" style="stroke:#181818;stroke-width:1;"/><rect fill="#F1F1F1" height="37.6094" rx="12.5" ry="12.5" style="stroke:#181818;stroke-width:1.5;" width="76" x="108" y="1095.5781"/><text fill="#000000" font-family="sans-serif" font-size="14" lengthAdjust="spacing" textLength="56" x="118" y="1120.1113">&#36192;&#19982;&#21512;&#21516;</text><rect fill="#F1F1F1" height="37.6094" rx="12.5" ry="12.5" style="stroke:#181818;stroke-width:1.5;" width="76" x="234" y="1037.9688"/><text fill="#000000" font-family="sans-serif" font-size="14" lengthAdjust="spacing" textLength="56" x="244" y="1062.502">&#21333;&#21153;&#21512;&#21516;</text><path d="M184,1114.3828 L194,1114.3828 C209,1114.3828 209,1056.7734 224,1056.7734 L234,1056.7734 " fill="none" style="stroke:#181818;stroke-width:1;"/><rect fill="#F1F1F1" height="37.6094" rx="12.5" ry="12.5" style="stroke:#181818;stroke-width:1.5;" width="104" x="234" y="1095.5781"/><text fill="#000000" font-family="sans-serif" font-size="14" lengthAdjust="spacing" textLength="84" x="244" y="1120.1113">&#32431;&#31929;&#26080;&#20607;&#21512;&#21516;</text><path d="M184,1114.3828 L194,1114.3828 C209,1114.3828 209,1114.3828 224,1114.3828 L234,1114.3828 " fill="none" style="stroke:#181818;stroke-width:1;"/><rect fill="#F1F1F1" height="37.6094" rx="12.5" ry="12.5" style="stroke:#181818;stroke-width:1.5;" width="90" x="234" y="1153.1875"/><text fill="#000000" font-family="sans-serif" font-size="14" lengthAdjust="spacing" textLength="70" x="244" y="1177.7207">&#35834;&#25104;&#24615;&#21512;&#21516;</text><path d="M184,1114.3828 L194,1114.3828 C209,1114.3828 209,1171.9922 224,1171.9922 L234,1171.9922 " fill="none" style="stroke:#181818;stroke-width:1;"/><path d="M58,768.7266 L68,768.7266 C83,768.7266 83,1114.3828 98,1114.3828 L108,1114.3828 " fill="none" style="stroke:#181818;stroke-width:1;"/><rect fill="#F1F1F1" height="37.6094" rx="12.5" ry="12.5" style="stroke:#181818;stroke-width:1.5;" width="160" x="108" y="1239.6016"/><text fill="#000000" font-family="sans-serif" font-size="14" lengthAdjust="spacing" textLength="140" x="118" y="1264.1348">&#33258;&#28982;&#20154;&#20043;&#38388;&#30340;&#20511;&#36151;&#21512;&#21516;</text><rect fill="#F1F1F1" height="37.6094" rx="12.5" ry="12.5" style="stroke:#181818;stroke-width:1.5;" width="104" x="318" y="1210.7969"/><text fill="#000000" font-family="sans-serif" font-size="14" lengthAdjust="spacing" textLength="84" x="328" y="1235.3301">&#21487;&#26377;&#20607;&#21487;&#26080;&#20607;</text><path d="M268,1258.4063 L278,1258.4063 C293,1258.4063 293,1229.6016 308,1229.6016 L318,1229.6016 " fill="none" style="stroke:#181818;stroke-width:1;"/><rect fill="#F1F1F1" height="37.6094" rx="12.5" ry="12.5" style="stroke:#181818;stroke-width:1.5;" width="174" x="318" y="1268.4063"/><text fill="#000000" font-family="sans-serif" font-size="14" lengthAdjust="spacing" textLength="154" x="328" y="1292.9395">&#23454;&#36341;&#24615;&#21512;&#21516;&#65288;&#19982;&#38065;&#26377;&#20851;&#65289;</text><path d="M268,1258.4063 L278,1258.4063 C293,1258.4063 293,1287.2109 308,1287.2109 L318,1287.2109 " fill="none" style="stroke:#181818;stroke-width:1;"/><path d="M58,768.7266 L68,768.7266 C83,768.7266 83,1258.4063 98,1258.4063 L108,1258.4063 " fill="none" style="stroke:#181818;stroke-width:1;"/><rect fill="#F1F1F1" height="37.6094" rx="12.5" ry="12.5" style="stroke:#181818;stroke-width:1.5;" width="76" x="108" y="1383.625"/><text fill="#000000" font-family="sans-serif" font-size="14" lengthAdjust="spacing" textLength="56" x="118" y="1408.1582">&#31199;&#36161;&#21512;&#21516;</text><rect fill="#F1F1F1" height="37.6094" rx="12.5" ry="12.5" style="stroke:#181818;stroke-width:1.5;" width="76" x="234" y="1326.0156"/><text fill="#000000" font-family="sans-serif" font-size="14" lengthAdjust="spacing" textLength="56" x="244" y="1350.5488">&#26377;&#20607;&#21512;&#21516;</text><path d="M184,1402.4297 L194,1402.4297 C209,1402.4297 209,1344.8203 224,1344.8203 L234,1344.8203 " fill="none" style="stroke:#181818;stroke-width:1;"/><rect fill="#F1F1F1" height="37.6094" rx="12.5" ry="12.5" style="stroke:#181818;stroke-width:1.5;" width="90" x="234" y="1383.625"/><text fill="#000000" font-family="sans-serif" font-size="14" lengthAdjust="spacing" textLength="70" x="244" y="1408.1582">&#35834;&#25104;&#24615;&#21512;&#21516;</text><path d="M184,1402.4297 L194,1402.4297 C209,1402.4297 209,1402.4297 224,1402.4297 L234,1402.4297 " fill="none" style="stroke:#181818;stroke-width:1;"/><rect fill="#F1F1F1" height="37.6094" rx="12.5" ry="12.5" style="stroke:#181818;stroke-width:1.5;" width="90" x="234" y="1441.2344"/><text fill="#000000" font-family="sans-serif" font-size="14" lengthAdjust="spacing" textLength="70" x="244" y="1465.7676">&#32487;&#32493;&#24615;&#21512;&#21516;</text><path d="M184,1402.4297 L194,1402.4297 C209,1402.4297 209,1460.0391 224,1460.0391 L234,1460.0391 " fill="none" style="stroke:#181818;stroke-width:1;"/><path d="M58,768.7266 L68,768.7266 C83,768.7266 83,1402.4297 98,1402.4297 L108,1402.4297 " fill="none" style="stroke:#181818;stroke-width:1;"/><!--SRC=[xLXRRnD757xVNp5LNn8aEvT64OfG5MmIjIX6g3QyZtS7UyZkZ3KxQ-IYIeaK8042RaLBYze2BwHK9O52IcuIVoRhTPxu2psxwutNNgzte_O9nRAizJdVVEVCkOt7iwR4GXgKQGQkASfdbAcwfH6KpOx1svGDdOpLTCoaPUWP5vO1NCQJPod854LIgHDaDrVjvdsKGVQh5qxpjhrwstcphoXdEWe5mUiCElpmcxFvF2JonVR3hTQlQ_Ro1_VXyJDu22itVs-_tsujRVZBFXwi7kuySDPUkYjklVruiDRbFlhbPPJxzOgzkzFZHUlUBG17aCxUblFthcy_eco_MBOF7lRGs9jFZkvy7pKuoD-Z7zxq-silFNKU_H5Pxjflhf_CkRGXik- -jUz6mz-9VSJa_eQp_-gODGZpxcjx_QS1ARn_0khsrbvhjTbBtQ7VMO-4Ej0ijVvwtk-ElV6ejVPpsee2ozlF83PH_FgFWzmVNX83DW7IEtywA_ySxkqTxjuxUlpEUR82YMw_U_y_5Fs08d8sdhQtb_zxsFjphIYp14P2C1PcUwV4EQ__lrGwWWiKLmGsq4qWp9PrYtXF2EMmkbWHt69QdkjS89rMgjBLW_Ox5wjXiIY85WFlQ0DmHH32XZ5xW12waG1k15WkCAl4EUqh0sZD4ZKz3keh0sZynaAR4joCO_jyVZwNo-S3P8FeEhyHW_ML7bJ96fYoKfKO0V4yPx98loNeYt75rHEZLiKcDPDZ6KQFny3DnOQNqZ1sSdWimz0SYDGgL60gPsY5SK5Iv1MX1Sf8lxnBaTBiK2gNZ36k4YRZOiEyfFWfy4Lb7J1zhD0ylc-geCTPwwebDx3allDCWZNA6TRp9yLU5gI61NOb9rbslio5J2gxj5nIGjvbKgUbPCjp0zfDnfL3PsKSdPi-HYgGKI0D1tFOr4hAf4P8BTmGlGRcO8gMTMfMuqTUQ7sljHjLAljZ4sFc4fV9bhnTgGtCKknAnHgHnyQmgb8jlkPxHd4IypLeHJFKt_1T9GLydLW9NSvrS45mBLI12JqMhF3irBX99QsJysge7IBZ7EiaxKQwMu1Su4HgWy89wix-D3NLEGPTSjCgNoUgInyN7Lo7Svk8bBnrog63F6gUnEp6FNMukvE-jt67zsfFBIUU8Gfyd1lh_1GvlOQSNaDEho6V-3Nailj7n9N20geJORhJTI8xEJuvbJqxKiGINU9rD36DnYTcfgPcfgPHlbX2hdfK6IbyNK8cj-1mGHgCNa7BbZkFHfMBk8xHDnPC9uFC8FVRIAamYefpWH3DiJeLd1amaPIBLmi-27t5PR76fGUUdihag4H58i0jTBMWN23NiALBMAfoZRBA3BfIci-SLHPWSbcu0eRWhCZ3I9EY0RhYlm00]--></g></svg>