<svg xmlns="http://www.w3.org/2000/svg" xmlns:xlink="http://www.w3.org/1999/xlink" contentStyleType="text/css" height="1846px" preserveAspectRatio="none" style="width:911px;height:1846px;background:#FFFFFF;" version="1.1" viewBox="0 0 911 1846" width="911px" zoomAndPan="magnify"><title>&#21512;&#21516; - &#23398;&#29702;&#20998;&#31867;</title><defs/><g><text fill="#000000" font-family="sans-serif" font-size="14" font-weight="bold" lengthAdjust="spacing" textLength="99.0664" x="404.7495" y="34.5332">&#21512;&#21516; - &#23398;&#29702;&#20998;&#31867;</text><rect fill="#F1F1F1" height="37.6094" rx="12.5" ry="12.5" style="stroke:#181818;stroke-width:1.5;" width="48" x="10" y="922.75"/><text fill="#000000" font-family="sans-serif" font-size="14" lengthAdjust="spacing" textLength="28" x="20" y="947.2832">&#21512;&#21516;</text><rect fill="#F1F1F1" height="37.6094" rx="12.5" ry="12.5" style="stroke:#181818;stroke-width:1.5;" width="76" x="108" y="922.75"/><text fill="#000000" font-family="sans-serif" font-size="14" lengthAdjust="spacing" textLength="56" x="118" y="947.2832">&#23398;&#29702;&#20998;&#31867;</text><rect fill="#F1F1F1" height="37.6094" rx="12.5" ry="12.5" style="stroke:#181818;stroke-width:1.5;" width="91.5654" x="234" y="87.4141"/><text fill="#000000" font-family="sans-serif" font-size="14" lengthAdjust="spacing" textLength="71.5654" x="244" y="111.9473">1. &#23545;&#24453;&#32473;&#20184;</text><rect fill="#F1F1F1" height="37.6094" rx="12.5" ry="12.5" style="stroke:#181818;stroke-width:1.5;" width="132" x="375.5654" y="58.6094"/><text fill="#000000" font-family="sans-serif" font-size="14" lengthAdjust="spacing" textLength="112" x="385.5654" y="83.1426">&#21333;&#21153;&#21512;&#21516;&#65288;&#20363;&#22806;&#65289;</text><rect fill="#F1F1F1" height="37.6094" rx="12.5" ry="12.5" style="stroke:#181818;stroke-width:1.5;" width="76" x="557.5654" y="58.6094"/><text fill="#000000" font-family="sans-serif" font-size="14" lengthAdjust="spacing" textLength="56" x="567.5654" y="83.1426">&#36192;&#19982;&#21512;&#21516;</text><path d="M507.5654,77.4141 L517.5654,77.4141 C532.5654,77.4141 532.5654,77.4141 547.5654,77.4141 L557.5654,77.4141 " fill="none" style="stroke:#181818;stroke-width:1;"/><path d="M325.5654,106.2188 L335.5654,106.2188 C350.5654,106.2188 350.5654,77.4141 365.5654,77.4141 L375.5654,77.4141 " fill="none" style="stroke:#181818;stroke-width:1;"/><rect fill="#F1F1F1" height="37.6094" rx="12.5" ry="12.5" style="stroke:#181818;stroke-width:1.5;" width="132" x="375.5654" y="116.2188"/><text fill="#000000" font-family="sans-serif" font-size="14" lengthAdjust="spacing" textLength="112" x="385.5654" y="140.752">&#21452;&#21153;&#21512;&#21516;&#65288;&#21407;&#21017;&#65289;</text><rect fill="#F1F1F1" height="37.6094" rx="12.5" ry="12.5" style="stroke:#181818;stroke-width:1.5;" width="76" x="557.5654" y="116.2188"/><text fill="#000000" font-family="sans-serif" font-size="14" lengthAdjust="spacing" textLength="56" x="567.5654" y="140.752">&#20080;&#21334;&#21512;&#21516;</text><path d="M507.5654,135.0234 L517.5654,135.0234 C532.5654,135.0234 532.5654,135.0234 547.5654,135.0234 L557.5654,135.0234 " fill="none" style="stroke:#181818;stroke-width:1;"/><path d="M325.5654,106.2188 L335.5654,106.2188 C350.5654,106.2188 350.5654,135.0234 365.5654,135.0234 L375.5654,135.0234 " fill="none" style="stroke:#181818;stroke-width:1;"/><path d="M184,941.5547 L194,941.5547 C209,941.5547 209,106.2188 224,106.2188 L234,106.2188 " fill="none" style="stroke:#181818;stroke-width:1;"/><rect fill="#F1F1F1" height="37.6094" rx="12.5" ry="12.5" style="stroke:#181818;stroke-width:1.5;" width="147.5654" x="234" y="202.6328"/><text fill="#000000" font-family="sans-serif" font-size="14" lengthAdjust="spacing" textLength="127.5654" x="244" y="227.166">2. &#27861;&#24459;&#26159;&#21542;&#36171;&#20104;&#21517;&#31216;</text><rect fill="#F1F1F1" height="37.6094" rx="12.5" ry="12.5" style="stroke:#181818;stroke-width:1.5;" width="132" x="431.5654" y="173.8281"/><text fill="#000000" font-family="sans-serif" font-size="14" lengthAdjust="spacing" textLength="112" x="441.5654" y="198.3613">&#26377;&#21517;&#21512;&#21516;&#65288;&#21407;&#21017;&#65289;</text><path d="M381.5654,221.4375 L391.5654,221.4375 C406.5654,221.4375 406.5654,192.6328 421.5654,192.6328 L431.5654,192.6328 " fill="none" style="stroke:#181818;stroke-width:1;"/><rect fill="#90EE90" height="37.6094" rx="12.5" ry="12.5" style="stroke:#181818;stroke-width:1.5;" width="135.8896" x="431.5654" y="231.4375"/><text fill="#000000" font-family="sans-serif" font-size="14" lengthAdjust="spacing" textLength="112" x="441.5654" y="255.9707">&#26080;&#21517;&#21512;&#21516;&#65288;&#20363;&#22806;&#65289;</text><rect fill="#F1F1F1" height="37.6094" rx="12.5" ry="12.5" style="stroke:#181818;stroke-width:1.5;" width="76" x="617.4551" y="231.4375"/><text fill="#000000" font-family="sans-serif" font-size="14" lengthAdjust="spacing" textLength="56" x="627.4551" y="255.9707">&#20511;&#29992;&#21512;&#21516;</text><path d="M567.4551,250.2422 L577.4551,250.2422 C592.4551,250.2422 592.4551,250.2422 607.4551,250.2422 L617.4551,250.2422 " fill="none" style="stroke:#181818;stroke-width:1;"/><path d="M381.5654,221.4375 L391.5654,221.4375 C406.5654,221.4375 406.5654,250.2422 421.5654,250.2422 L431.5654,250.2422 " fill="none" style="stroke:#181818;stroke-width:1;"/><path d="M184,941.5547 L194,941.5547 C209,941.5547 209,221.4375 224,221.4375 L234,221.4375 " fill="none" style="stroke:#181818;stroke-width:1;"/><rect fill="#F1F1F1" height="37.6094" rx="12.5" ry="12.5" style="stroke:#181818;stroke-width:1.5;" width="119.5654" x="234" y="519.4844"/><text fill="#000000" font-family="sans-serif" font-size="14" lengthAdjust="spacing" textLength="99.5654" x="244" y="544.0176">3. &#26159;&#21542;&#23384;&#22312;&#23545;&#20215;</text><rect fill="#F1F1F1" height="37.6094" rx="12.5" ry="12.5" style="stroke:#181818;stroke-width:1.5;" width="132" x="403.5654" y="346.6563"/><text fill="#000000" font-family="sans-serif" font-size="14" lengthAdjust="spacing" textLength="112" x="413.5654" y="371.1895">&#26377;&#20607;&#21512;&#21516;&#65288;&#21407;&#21017;&#65289;</text><rect fill="#F1F1F1" height="37.6094" rx="12.5" ry="12.5" style="stroke:#181818;stroke-width:1.5;" width="76" x="585.5654" y="289.0469"/><text fill="#000000" font-family="sans-serif" font-size="14" lengthAdjust="spacing" textLength="56" x="595.5654" y="313.5801">&#21171;&#21153;&#21512;&#21516;</text><path d="M535.5654,365.4609 L545.5654,365.4609 C560.5654,365.4609 560.5654,307.8516 575.5654,307.8516 L585.5654,307.8516 " fill="none" style="stroke:#181818;stroke-width:1;"/><rect fill="#F1F1F1" height="37.6094" rx="12.5" ry="12.5" style="stroke:#181818;stroke-width:1.5;" width="76" x="585.5654" y="346.6563"/><text fill="#000000" font-family="sans-serif" font-size="14" lengthAdjust="spacing" textLength="56" x="595.5654" y="371.1895">&#20080;&#21334;&#21512;&#21516;</text><path d="M535.5654,365.4609 L545.5654,365.4609 C560.5654,365.4609 560.5654,365.4609 575.5654,365.4609 L585.5654,365.4609 " fill="none" style="stroke:#181818;stroke-width:1;"/><rect fill="#F1F1F1" height="37.6094" rx="12.5" ry="12.5" style="stroke:#181818;stroke-width:1.5;" width="76" x="585.5654" y="404.2656"/><text fill="#000000" font-family="sans-serif" font-size="14" lengthAdjust="spacing" textLength="56" x="595.5654" y="428.7988">&#31199;&#36161;&#21512;&#21516;</text><path d="M535.5654,365.4609 L545.5654,365.4609 C560.5654,365.4609 560.5654,423.0703 575.5654,423.0703 L585.5654,423.0703 " fill="none" style="stroke:#181818;stroke-width:1;"/><path d="M353.5654,538.2891 L363.5654,538.2891 C378.5654,538.2891 378.5654,365.4609 393.5654,365.4609 L403.5654,365.4609 " fill="none" style="stroke:#181818;stroke-width:1;"/><rect fill="#F1F1F1" height="37.6094" rx="12.5" ry="12.5" style="stroke:#181818;stroke-width:1.5;" width="132" x="403.5654" y="605.8984"/><text fill="#000000" font-family="sans-serif" font-size="14" lengthAdjust="spacing" textLength="112" x="413.5654" y="630.4316">&#26080;&#20607;&#21512;&#21516;&#65288;&#20363;&#22806;&#65289;</text><rect fill="#F1F1F1" height="37.6094" rx="12.5" ry="12.5" style="stroke:#181818;stroke-width:1.5;" width="76" x="585.5654" y="519.4844"/><text fill="#000000" font-family="sans-serif" font-size="14" lengthAdjust="spacing" textLength="56" x="595.5654" y="544.0176">&#32431;&#31929;&#26080;&#20607;</text><rect fill="#F1F1F1" height="37.6094" rx="12.5" ry="12.5" style="stroke:#181818;stroke-width:1.5;" width="76" x="711.5654" y="461.875"/><text fill="#000000" font-family="sans-serif" font-size="14" lengthAdjust="spacing" textLength="56" x="721.5654" y="486.4082">&#36192;&#19982;&#21512;&#21516;</text><path d="M661.5654,538.2891 L671.5654,538.2891 C686.5654,538.2891 686.5654,480.6797 701.5654,480.6797 L711.5654,480.6797 " fill="none" style="stroke:#181818;stroke-width:1;"/><rect fill="#F1F1F1" height="37.6094" rx="12.5" ry="12.5" style="stroke:#181818;stroke-width:1.5;" width="76" x="711.5654" y="519.4844"/><text fill="#000000" font-family="sans-serif" font-size="14" lengthAdjust="spacing" textLength="56" x="721.5654" y="544.0176">&#20511;&#29992;&#21512;&#21516;</text><path d="M661.5654,538.2891 L671.5654,538.2891 C686.5654,538.2891 686.5654,538.2891 701.5654,538.2891 L711.5654,538.2891 " fill="none" style="stroke:#181818;stroke-width:1;"/><rect fill="#F1F1F1" height="37.6094" rx="12.5" ry="12.5" style="stroke:#181818;stroke-width:1.5;" width="76" x="711.5654" y="577.0938"/><text fill="#000000" font-family="sans-serif" font-size="14" lengthAdjust="spacing" textLength="56" x="721.5654" y="601.627">&#25285;&#20445;&#21512;&#21516;</text><path d="M661.5654,538.2891 L671.5654,538.2891 C686.5654,538.2891 686.5654,595.8984 701.5654,595.8984 L711.5654,595.8984 " fill="none" style="stroke:#181818;stroke-width:1;"/><path d="M535.5654,624.7031 L545.5654,624.7031 C560.5654,624.7031 560.5654,538.2891 575.5654,538.2891 L585.5654,538.2891 " fill="none" style="stroke:#181818;stroke-width:1;"/><rect fill="#F1F1F1" height="37.6094" rx="12.5" ry="12.5" style="stroke:#181818;stroke-width:1.5;" width="104" x="585.5654" y="692.3125"/><text fill="#000000" font-family="sans-serif" font-size="14" lengthAdjust="spacing" textLength="84" x="595.5654" y="716.8457">&#21487;&#26377;&#20607;&#21487;&#26080;&#20607;</text><rect fill="#F1F1F1" height="37.6094" rx="12.5" ry="12.5" style="stroke:#181818;stroke-width:1.5;" width="76" x="739.5654" y="634.7031"/><text fill="#000000" font-family="sans-serif" font-size="14" lengthAdjust="spacing" textLength="56" x="749.5654" y="659.2363">&#22996;&#25176;&#21512;&#21516;</text><path d="M689.5654,711.1172 L699.5654,711.1172 C714.5654,711.1172 714.5654,653.5078 729.5654,653.5078 L739.5654,653.5078 " fill="none" style="stroke:#181818;stroke-width:1;"/><rect fill="#F1F1F1" height="37.6094" rx="12.5" ry="12.5" style="stroke:#181818;stroke-width:1.5;" width="76" x="739.5654" y="692.3125"/><text fill="#000000" font-family="sans-serif" font-size="14" lengthAdjust="spacing" textLength="56" x="749.5654" y="716.8457">&#20445;&#31649;&#21512;&#21516;</text><path d="M689.5654,711.1172 L699.5654,711.1172 C714.5654,711.1172 714.5654,711.1172 729.5654,711.1172 L739.5654,711.1172 " fill="none" style="stroke:#181818;stroke-width:1;"/><rect fill="#F1F1F1" height="37.6094" rx="12.5" ry="12.5" style="stroke:#181818;stroke-width:1.5;" width="160" x="739.5654" y="749.9219"/><text fill="#000000" font-family="sans-serif" font-size="14" lengthAdjust="spacing" textLength="140" x="749.5654" y="774.4551">&#33258;&#28982;&#20154;&#20043;&#38388;&#30340;&#20511;&#36151;&#21512;&#21516;</text><path d="M689.5654,711.1172 L699.5654,711.1172 C714.5654,711.1172 714.5654,768.7266 729.5654,768.7266 L739.5654,768.7266 " fill="none" style="stroke:#181818;stroke-width:1;"/><path d="M535.5654,624.7031 L545.5654,624.7031 C560.5654,624.7031 560.5654,711.1172 575.5654,711.1172 L585.5654,711.1172 " fill="none" style="stroke:#181818;stroke-width:1;"/><path d="M353.5654,538.2891 L363.5654,538.2891 C378.5654,538.2891 378.5654,624.7031 393.5654,624.7031 L403.5654,624.7031 " fill="none" style="stroke:#181818;stroke-width:1;"/><path d="M184,941.5547 L194,941.5547 C209,941.5547 209,538.2891 224,538.2891 L234,538.2891 " fill="none" style="stroke:#181818;stroke-width:1;"/><rect fill="#F1F1F1" height="37.6094" rx="12.5" ry="12.5" style="stroke:#181818;stroke-width:1.5;" width="91.5654" x="234" y="980.3594"/><text fill="#000000" font-family="sans-serif" font-size="14" lengthAdjust="spacing" textLength="71.5654" x="244" y="1004.8926">4. &#25104;&#31435;&#26631;&#24535;</text><rect fill="#F1F1F1" height="37.6094" rx="12.5" ry="12.5" style="stroke:#181818;stroke-width:1.5;" width="146" x="375.5654" y="865.1406"/><text fill="#000000" font-family="sans-serif" font-size="14" lengthAdjust="spacing" textLength="126" x="385.5654" y="889.6738">&#35834;&#25104;&#24615;&#21512;&#21516;&#65288;&#21407;&#21017;&#65289;</text><rect fill="#F1F1F1" height="37.6094" rx="12.5" ry="12.5" style="stroke:#181818;stroke-width:1.5;" width="76" x="571.5654" y="807.5313"/><text fill="#000000" font-family="sans-serif" font-size="14" lengthAdjust="spacing" textLength="56" x="581.5654" y="832.0645">&#20080;&#21334;&#21512;&#21516;</text><path d="M521.5654,883.9453 L531.5654,883.9453 C546.5654,883.9453 546.5654,826.3359 561.5654,826.3359 L571.5654,826.3359 " fill="none" style="stroke:#181818;stroke-width:1;"/><rect fill="#F1F1F1" height="37.6094" rx="12.5" ry="12.5" style="stroke:#181818;stroke-width:1.5;" width="76" x="571.5654" y="865.1406"/><text fill="#000000" font-family="sans-serif" font-size="14" lengthAdjust="spacing" textLength="56" x="581.5654" y="889.6738">&#36192;&#19982;&#21512;&#21516;</text><path d="M521.5654,883.9453 L531.5654,883.9453 C546.5654,883.9453 546.5654,883.9453 561.5654,883.9453 L571.5654,883.9453 " fill="none" style="stroke:#181818;stroke-width:1;"/><rect fill="#F1F1F1" height="37.6094" rx="12.5" ry="12.5" style="stroke:#181818;stroke-width:1.5;" width="76" x="571.5654" y="922.75"/><text fill="#000000" font-family="sans-serif" font-size="14" lengthAdjust="spacing" textLength="56" x="581.5654" y="947.2832">&#31199;&#36161;&#21512;&#21516;</text><path d="M521.5654,883.9453 L531.5654,883.9453 C546.5654,883.9453 546.5654,941.5547 561.5654,941.5547 L571.5654,941.5547 " fill="none" style="stroke:#181818;stroke-width:1;"/><path d="M325.5654,999.1641 L335.5654,999.1641 C350.5654,999.1641 350.5654,883.9453 365.5654,883.9453 L375.5654,883.9453 " fill="none" style="stroke:#181818;stroke-width:1;"/><rect fill="#90EE90" height="37.6094" rx="12.5" ry="12.5" style="stroke:#181818;stroke-width:1.5;" width="149.8896" x="375.5654" y="1066.7734"/><text fill="#000000" font-family="sans-serif" font-size="14" lengthAdjust="spacing" textLength="126" x="385.5654" y="1091.3066">&#23454;&#36341;&#24615;&#21512;&#21516;&#65288;&#20363;&#22806;&#65289;</text><rect fill="#F1F1F1" height="37.6094" rx="12.5" ry="12.5" style="stroke:#181818;stroke-width:1.5;" width="104" x="575.4551" y="1009.1641"/><text fill="#000000" font-family="sans-serif" font-size="14" lengthAdjust="spacing" textLength="84" x="585.4551" y="1033.6973">&#20004;&#20010;&#19982;&#38065;&#26377;&#20851;</text><rect fill="#F1F1F1" height="37.6094" rx="12.5" ry="12.5" style="stroke:#181818;stroke-width:1.5;" width="76" x="729.4551" y="980.3594"/><text fill="#000000" font-family="sans-serif" font-size="14" lengthAdjust="spacing" textLength="56" x="739.4551" y="1004.8926">&#23450;&#37329;&#21512;&#21516;</text><path d="M679.4551,1027.9688 L689.4551,1027.9688 C704.4551,1027.9688 704.4551,999.1641 719.4551,999.1641 L729.4551,999.1641 " fill="none" style="stroke:#181818;stroke-width:1;"/><rect fill="#F1F1F1" height="37.6094" rx="12.5" ry="12.5" style="stroke:#181818;stroke-width:1.5;" width="160" x="729.4551" y="1037.9688"/><text fill="#000000" font-family="sans-serif" font-size="14" lengthAdjust="spacing" textLength="140" x="739.4551" y="1062.502">&#33258;&#28982;&#20154;&#20043;&#38388;&#30340;&#20511;&#36151;&#21512;&#21516;</text><path d="M679.4551,1027.9688 L689.4551,1027.9688 C704.4551,1027.9688 704.4551,1056.7734 719.4551,1056.7734 L729.4551,1056.7734 " fill="none" style="stroke:#181818;stroke-width:1;"/><path d="M525.4551,1085.5781 L535.4551,1085.5781 C550.4551,1085.5781 550.4551,1027.9688 565.4551,1027.9688 L575.4551,1027.9688 " fill="none" style="stroke:#181818;stroke-width:1;"/><rect fill="#F1F1F1" height="37.6094" rx="12.5" ry="12.5" style="stroke:#181818;stroke-width:1.5;" width="104" x="575.4551" y="1124.3828"/><text fill="#000000" font-family="sans-serif" font-size="14" lengthAdjust="spacing" textLength="84" x="585.4551" y="1148.916">&#20004;&#20010;&#19982;&#29289;&#26377;&#20851;</text><rect fill="#F1F1F1" height="37.6094" rx="12.5" ry="12.5" style="stroke:#181818;stroke-width:1.5;" width="76" x="729.4551" y="1095.5781"/><text fill="#000000" font-family="sans-serif" font-size="14" lengthAdjust="spacing" textLength="56" x="739.4551" y="1120.1113">&#20445;&#31649;&#21512;&#21516;</text><path d="M679.4551,1143.1875 L689.4551,1143.1875 C704.4551,1143.1875 704.4551,1114.3828 719.4551,1114.3828 L729.4551,1114.3828 " fill="none" style="stroke:#181818;stroke-width:1;"/><rect fill="#F1F1F1" height="37.6094" rx="12.5" ry="12.5" style="stroke:#181818;stroke-width:1.5;" width="76" x="729.4551" y="1153.1875"/><text fill="#000000" font-family="sans-serif" font-size="14" lengthAdjust="spacing" textLength="56" x="739.4551" y="1177.7207">&#20511;&#29992;&#21512;&#21516;</text><path d="M679.4551,1143.1875 L689.4551,1143.1875 C704.4551,1143.1875 704.4551,1171.9922 719.4551,1171.9922 L729.4551,1171.9922 " fill="none" style="stroke:#181818;stroke-width:1;"/><path d="M525.4551,1085.5781 L535.4551,1085.5781 C550.4551,1085.5781 550.4551,1143.1875 565.4551,1143.1875 L575.4551,1143.1875 " fill="none" style="stroke:#181818;stroke-width:1;"/><path d="M325.5654,999.1641 L335.5654,999.1641 C350.5654,999.1641 350.5654,1085.5781 365.5654,1085.5781 L375.5654,1085.5781 " fill="none" style="stroke:#181818;stroke-width:1;"/><path d="M184,941.5547 L194,941.5547 C209,941.5547 209,999.1641 224,999.1641 L234,999.1641 " fill="none" style="stroke:#181818;stroke-width:1;"/><rect fill="#F1F1F1" height="37.6094" rx="12.5" ry="12.5" style="stroke:#181818;stroke-width:1.5;" width="147.5654" x="234" y="1239.6016"/><text fill="#000000" font-family="sans-serif" font-size="14" lengthAdjust="spacing" textLength="127.5654" x="244" y="1264.1348">5. &#26159;&#21542;&#38656;&#35201;&#29305;&#23450;&#24418;&#24335;</text><rect fill="#F1F1F1" height="37.6094" rx="12.5" ry="12.5" style="stroke:#181818;stroke-width:1.5;" width="76" x="431.5654" y="1210.7969"/><text fill="#000000" font-family="sans-serif" font-size="14" lengthAdjust="spacing" textLength="56" x="441.5654" y="1235.3301">&#35201;&#24335;&#21512;&#21516;</text><rect fill="#F1F1F1" height="37.6094" rx="12.5" ry="12.5" style="stroke:#181818;stroke-width:1.5;" width="76" x="557.5654" y="1210.7969"/><text fill="#000000" font-family="sans-serif" font-size="14" lengthAdjust="spacing" textLength="56" x="567.5654" y="1235.3301">&#25285;&#20445;&#21512;&#21516;</text><path d="M507.5654,1229.6016 L517.5654,1229.6016 C532.5654,1229.6016 532.5654,1229.6016 547.5654,1229.6016 L557.5654,1229.6016 " fill="none" style="stroke:#181818;stroke-width:1;"/><path d="M381.5654,1258.4063 L391.5654,1258.4063 C406.5654,1258.4063 406.5654,1229.6016 421.5654,1229.6016 L431.5654,1229.6016 " fill="none" style="stroke:#181818;stroke-width:1;"/><rect fill="#F1F1F1" height="37.6094" rx="12.5" ry="12.5" style="stroke:#181818;stroke-width:1.5;" width="90" x="431.5654" y="1268.4063"/><text fill="#000000" font-family="sans-serif" font-size="14" lengthAdjust="spacing" textLength="70" x="441.5654" y="1292.9395">&#19981;&#35201;&#24335;&#21512;&#21516;</text><rect fill="#F1F1F1" height="37.6094" rx="12.5" ry="12.5" style="stroke:#181818;stroke-width:1.5;" width="76" x="571.5654" y="1268.4063"/><text fill="#000000" font-family="sans-serif" font-size="14" lengthAdjust="spacing" textLength="56" x="581.5654" y="1292.9395">&#20080;&#21334;&#21512;&#21516;</text><path d="M521.5654,1287.2109 L531.5654,1287.2109 C546.5654,1287.2109 546.5654,1287.2109 561.5654,1287.2109 L571.5654,1287.2109 " fill="none" style="stroke:#181818;stroke-width:1;"/><path d="M381.5654,1258.4063 L391.5654,1258.4063 C406.5654,1258.4063 406.5654,1287.2109 421.5654,1287.2109 L431.5654,1287.2109 " fill="none" style="stroke:#181818;stroke-width:1;"/><path d="M184,941.5547 L194,941.5547 C209,941.5547 209,1258.4063 224,1258.4063 L234,1258.4063 " fill="none" style="stroke:#181818;stroke-width:1;"/><rect fill="#F1F1F1" height="37.6094" rx="12.5" ry="12.5" style="stroke:#181818;stroke-width:1.5;" width="217.5654" x="234" y="1383.625"/><text fill="#000000" font-family="sans-serif" font-size="14" lengthAdjust="spacing" textLength="197.5654" x="244" y="1408.1582">6. &#21512;&#21516;&#30340;&#30446;&#30340;&#12289;&#20869;&#23481;&#21450;&#27861;&#24459;&#21518;&#26524;</text><rect fill="#F1F1F1" height="37.6094" rx="12.5" ry="12.5" style="stroke:#181818;stroke-width:1.5;" width="132" x="501.5654" y="1326.0156"/><text fill="#000000" font-family="sans-serif" font-size="14" lengthAdjust="spacing" textLength="112" x="511.5654" y="1350.5488">&#26412;&#32422;&#21512;&#21516;&#65288;&#21407;&#21017;&#65289;</text><path d="M451.5654,1402.4297 L461.5654,1402.4297 C476.5654,1402.4297 476.5654,1344.8203 491.5654,1344.8203 L501.5654,1344.8203 " fill="none" style="stroke:#181818;stroke-width:1;"/><rect fill="#90EE90" height="37.6094" rx="12.5" ry="12.5" style="stroke:#181818;stroke-width:1.5;" width="135.8896" x="501.5654" y="1383.625"/><text fill="#000000" font-family="sans-serif" font-size="14" lengthAdjust="spacing" textLength="112" x="511.5654" y="1408.1582">&#39044;&#32422;&#21512;&#21516;&#65288;&#20363;&#22806;&#65289;</text><rect fill="#F1F1F1" height="37.6094" rx="12.5" ry="12.5" style="stroke:#181818;stroke-width:1.5;" width="62" x="687.4551" y="1326.0156"/><text fill="#000000" font-family="sans-serif" font-size="14" lengthAdjust="spacing" textLength="42" x="697.4551" y="1350.5488">&#35748;&#36141;&#20070;</text><path d="M637.4551,1402.4297 L647.4551,1402.4297 C662.4551,1402.4297 662.4551,1344.8203 677.4551,1344.8203 L687.4551,1344.8203 " fill="none" style="stroke:#181818;stroke-width:1;"/><rect fill="#F1F1F1" height="37.6094" rx="12.5" ry="12.5" style="stroke:#181818;stroke-width:1.5;" width="62" x="687.4551" y="1383.625"/><text fill="#000000" font-family="sans-serif" font-size="14" lengthAdjust="spacing" textLength="42" x="697.4551" y="1408.1582">&#35746;&#36141;&#20070;</text><path d="M637.4551,1402.4297 L647.4551,1402.4297 C662.4551,1402.4297 662.4551,1402.4297 677.4551,1402.4297 L687.4551,1402.4297 " fill="none" style="stroke:#181818;stroke-width:1;"/><rect fill="#F1F1F1" height="37.6094" rx="12.5" ry="12.5" style="stroke:#181818;stroke-width:1.5;" width="62" x="687.4551" y="1441.2344"/><text fill="#000000" font-family="sans-serif" font-size="14" lengthAdjust="spacing" textLength="42" x="697.4551" y="1465.7676">&#39044;&#23450;&#20070;</text><path d="M637.4551,1402.4297 L647.4551,1402.4297 C662.4551,1402.4297 662.4551,1460.0391 677.4551,1460.0391 L687.4551,1460.0391 " fill="none" style="stroke:#181818;stroke-width:1;"/><path d="M451.5654,1402.4297 L461.5654,1402.4297 C476.5654,1402.4297 476.5654,1402.4297 491.5654,1402.4297 L501.5654,1402.4297 " fill="none" style="stroke:#181818;stroke-width:1;"/><path d="M184,941.5547 L194,941.5547 C209,941.5547 209,1402.4297 224,1402.4297 L234,1402.4297 " fill="none" style="stroke:#181818;stroke-width:1;"/><rect fill="#F1F1F1" height="37.6094" rx="12.5" ry="12.5" style="stroke:#181818;stroke-width:1.5;" width="189.5654" x="234" y="1556.4531"/><text fill="#000000" font-family="sans-serif" font-size="14" lengthAdjust="spacing" textLength="169.5654" x="244" y="1580.9863">7. &#32467;&#26524;&#30340;&#30830;&#23450;&#24615;&#21644;&#19981;&#30830;&#23450;&#24615;</text><rect fill="#F1F1F1" height="37.6094" rx="12.5" ry="12.5" style="stroke:#181818;stroke-width:1.5;" width="132" x="473.5654" y="1498.8438"/><text fill="#000000" font-family="sans-serif" font-size="14" lengthAdjust="spacing" textLength="112" x="483.5654" y="1523.377">&#30830;&#23450;&#21512;&#21516;&#65288;&#21407;&#21017;&#65289;</text><path d="M423.5654,1575.2578 L433.5654,1575.2578 C448.5654,1575.2578 448.5654,1517.6484 463.5654,1517.6484 L473.5654,1517.6484 " fill="none" style="stroke:#181818;stroke-width:1;"/><rect fill="#F1F1F1" height="37.6094" rx="12.5" ry="12.5" style="stroke:#181818;stroke-width:1.5;" width="132" x="473.5654" y="1556.4531"/><text fill="#000000" font-family="sans-serif" font-size="14" lengthAdjust="spacing" textLength="112" x="483.5654" y="1580.9863">&#23556;&#24184;&#21512;&#21516;&#65288;&#20363;&#22806;&#65289;</text><rect fill="#F1F1F1" height="37.6094" rx="12.5" ry="12.5" style="stroke:#181818;stroke-width:1.5;" width="76" x="655.5654" y="1498.8438"/><text fill="#000000" font-family="sans-serif" font-size="14" lengthAdjust="spacing" textLength="56" x="665.5654" y="1523.377">&#20445;&#38505;&#21512;&#21516;</text><path d="M605.5654,1575.2578 L615.5654,1575.2578 C630.5654,1575.2578 630.5654,1517.6484 645.5654,1517.6484 L655.5654,1517.6484 " fill="none" style="stroke:#181818;stroke-width:1;"/><rect fill="#F1F1F1" height="37.6094" rx="12.5" ry="12.5" style="stroke:#181818;stroke-width:1.5;" width="76" x="655.5654" y="1556.4531"/><text fill="#000000" font-family="sans-serif" font-size="14" lengthAdjust="spacing" textLength="56" x="665.5654" y="1580.9863">&#24425;&#31080;&#21512;&#21516;</text><path d="M605.5654,1575.2578 L615.5654,1575.2578 C630.5654,1575.2578 630.5654,1575.2578 645.5654,1575.2578 L655.5654,1575.2578 " fill="none" style="stroke:#181818;stroke-width:1;"/><rect fill="#F1F1F1" height="37.6094" rx="12.5" ry="12.5" style="stroke:#181818;stroke-width:1.5;" width="146" x="655.5654" y="1614.0625"/><text fill="#000000" font-family="sans-serif" font-size="14" lengthAdjust="spacing" textLength="126" x="665.5654" y="1638.5957">&#25277;&#22870;&#24335;&#26377;&#22870;&#38144;&#21806;&#21512;&#21516;</text><path d="M605.5654,1575.2578 L615.5654,1575.2578 C630.5654,1575.2578 630.5654,1632.8672 645.5654,1632.8672 L655.5654,1632.8672 " fill="none" style="stroke:#181818;stroke-width:1;"/><path d="M423.5654,1575.2578 L433.5654,1575.2578 C448.5654,1575.2578 448.5654,1575.2578 463.5654,1575.2578 L473.5654,1575.2578 " fill="none" style="stroke:#181818;stroke-width:1;"/><path d="M184,941.5547 L194,941.5547 C209,941.5547 209,1575.2578 224,1575.2578 L234,1575.2578 " fill="none" style="stroke:#181818;stroke-width:1;"/><rect fill="#F1F1F1" height="37.6094" rx="12.5" ry="12.5" style="stroke:#181818;stroke-width:1.5;" width="91.5654" x="234" y="1729.2813"/><text fill="#000000" font-family="sans-serif" font-size="14" lengthAdjust="spacing" textLength="71.5654" x="244" y="1753.8145">8. &#26102;&#38388;&#22240;&#32032;</text><rect fill="#F1F1F1" height="37.6094" rx="12.5" ry="12.5" style="stroke:#181818;stroke-width:1.5;" width="146" x="375.5654" y="1671.6719"/><text fill="#000000" font-family="sans-serif" font-size="14" lengthAdjust="spacing" textLength="126" x="385.5654" y="1696.2051">&#19968;&#27425;&#24615;&#21512;&#21516;&#65288;&#21407;&#21017;&#65289;</text><rect fill="#F1F1F1" height="37.6094" rx="12.5" ry="12.5" style="stroke:#181818;stroke-width:1.5;" width="76" x="571.5654" y="1671.6719"/><text fill="#000000" font-family="sans-serif" font-size="14" lengthAdjust="spacing" textLength="56" x="581.5654" y="1696.2051">&#20080;&#21334;&#21512;&#21516;</text><path d="M521.5654,1690.4766 L531.5654,1690.4766 C546.5654,1690.4766 546.5654,1690.4766 561.5654,1690.4766 L571.5654,1690.4766 " fill="none" style="stroke:#181818;stroke-width:1;"/><path d="M325.5654,1748.0859 L335.5654,1748.0859 C350.5654,1748.0859 350.5654,1690.4766 365.5654,1690.4766 L375.5654,1690.4766 " fill="none" style="stroke:#181818;stroke-width:1;"/><rect fill="#F1F1F1" height="37.6094" rx="12.5" ry="12.5" style="stroke:#181818;stroke-width:1.5;" width="146" x="375.5654" y="1758.0859"/><text fill="#000000" font-family="sans-serif" font-size="14" lengthAdjust="spacing" textLength="126" x="385.5654" y="1782.6191">&#32487;&#32493;&#24615;&#21512;&#21516;&#65288;&#20363;&#22806;&#65289;</text><rect fill="#F1F1F1" height="37.6094" rx="12.5" ry="12.5" style="stroke:#181818;stroke-width:1.5;" width="76" x="571.5654" y="1729.2813"/><text fill="#000000" font-family="sans-serif" font-size="14" lengthAdjust="spacing" textLength="56" x="581.5654" y="1753.8145">&#31199;&#36161;&#21512;&#21516;</text><path d="M521.5654,1776.8906 L531.5654,1776.8906 C546.5654,1776.8906 546.5654,1748.0859 561.5654,1748.0859 L571.5654,1748.0859 " fill="none" style="stroke:#181818;stroke-width:1;"/><rect fill="#F1F1F1" height="37.6094" rx="12.5" ry="12.5" style="stroke:#181818;stroke-width:1.5;" width="76" x="571.5654" y="1786.8906"/><text fill="#000000" font-family="sans-serif" font-size="14" lengthAdjust="spacing" textLength="56" x="581.5654" y="1811.4238">&#21171;&#21160;&#21512;&#21516;</text><path d="M521.5654,1776.8906 L531.5654,1776.8906 C546.5654,1776.8906 546.5654,1805.6953 561.5654,1805.6953 L571.5654,1805.6953 " fill="none" style="stroke:#181818;stroke-width:1;"/><path d="M325.5654,1748.0859 L335.5654,1748.0859 C350.5654,1748.0859 350.5654,1776.8906 365.5654,1776.8906 L375.5654,1776.8906 " fill="none" style="stroke:#181818;stroke-width:1;"/><path d="M184,941.5547 L194,941.5547 C209,941.5547 209,1748.0859 224,1748.0859 L234,1748.0859 " fill="none" style="stroke:#181818;stroke-width:1;"/><path d="M58,941.5547 L68,941.5547 C83,941.5547 83,941.5547 98,941.5547 L108,941.5547 " fill="none" style="stroke:#181818;stroke-width:1;"/><!--SRC=[xLbRJnj757xVNp5LNmWIvX9A8uGGmG6r4OwYckHzM4_CXlMEjHuxSgjA8442609D2PU4Xekufi4a1GB69FoOUBpsK_v2ptfjixwiTschFjb2blUSRyxzd3qQUa8CgomWARu03Wh2Dv8Yoc4VGIvNC_o5M5GcpK4PAomSa9jqM1FWcd9qbmGqGM0IamdYyvDyVWOr8Nwmeyq_vPDFjGz9GMZCCmG4dyPI9if_6b6h2_731FyyeILNKidb8YT_QFObdzumv7ozc4nzZl6jnQyNKoKm0vevMK-TFJUfD4cPcp5BuS_N-EHATIcfn7i-krWcfH6rkL3ww2N_74il7_BvdSn9B7KEa5bjztsPhlJg5D1jT05iQTqCApg6khf883YCGrAekxkAVNnqJLlOgx3l9jYNiumVBFFLFOXeAdbQnRAnIqTHuDD7nO0v3T8LMzjTovoCLSs4xhR9XbhvrCuFjRyIne4AjatARU9LPbDi8dNvXwKtVEum7pduKSiQlhkGdbgkgGhqQF6Dcf3CixVQ-CVK-Nag4Sik7Mklni65pF5fHShR8UMJyzgViVJwCtwvL1RepE4vSDEZk_-ywXt6kMQ-UVnDvlJ4R8RZIa-TRQNEteBUx8iFUW8cZgpY7d-LVVRRVn7KAigrgVsQoXrarA9blokqR7PrDBCpfaqbm17-QPDVp9NdScSCY9QsMjQlxiQipM6BUTVXoWzl29NsEWxVNqR7-DC97a_mkMbZ5FBvv-atgnL3vfrslcCx_hARusQOuwB8nBSonmUfn4vLtgOb3_H1TCsyHlIz2sd9ty45tSUDEF3rEdqn0q4hFfQPRT1jlUFlntdYpD6KWynbL_QjXy-dVMrxpphrqv_uzYBaLw_HxSNimYXVY5SaynPKsj97g7l-UbqxNg-eaT7qkur_FIaWECbTBNbGjTUlCpHCRw22uuBGGs19AImgFQLxIrTk8-aMyeGx4lQhE81-0Qck8JbCShyGwiNYY5-bOSNdfZ9LaIpvXvdE1-wlEjQ7rH6L-2pWUMu1x5S9KMf9pW5CwAWDE5h0KXKhVYkZ3MO16WohGTaAQZ0BK6l7J4wfD6GbxTl-_jvUjxk0Z19Pfayii0Op1nLS0ImfWyCaK13SJnNcbNucw6QBeFCBxMuVIpEwnG8U6edcKch6jjMEfHdQ2oHn6ChFaJ6INw4gSP1NX0OaXPJJhqGuL5jJb2vCKQX856OL6oMN52C51cb81aoPL6WUmpPHbOfPks8p6i2C6iOh3BH9LC6o-xhO-oe9OXNhbEiSkpr4LMPNTavbCGPvPtQTvb2QcmQWtPXLEUHFMedJqwSGFsGKX9g3MMjgsMNIHqZGt12b2lfWYWx9KcZOUkIPpfTgUp8iiVBOMAYvHvczffnNOXGh3hmIiO-meZ8iYfBFkkPBHh6Tv4VGYY5JVyEpI3puCGdRT3cLmGIL-amLQDDZXHCvFK4QafWK8RT5KpjKZ7Ci4wUENBa0kS2seWCIl47rsU-aflAlGLruA3pqc8YwUAleu0YyjudgK6v4ej11ET7KJh8UTyVXlfhqfOrRkrTBQjds7IB0LrTpVXMfNupKBqRg5oFrYv7wnKZzOgH-CLA_6FcVBaRkw_-iUU0PG16YXlHzhzNLrjBMxhhLuCKCtQCHrDg1MbexszixspkGspk8TFODeS7puo0AqJ2ikyW7ow0g3ONr3Uc6S1T7CFef3FjIW7GY_QbXq7C3UViAHDIdH2ILAW7OaOIx3pq62Fr0cJT8MGxSqTxKAp7a9IgOXHvwX3la4GxB38wAr2Sf_axqOB2_wPOm0BjK6Fj14MolRbYoc1e5dlTl]--></g></svg>