<svg xmlns="http://www.w3.org/2000/svg" xmlns:xlink="http://www.w3.org/1999/xlink" contentStyleType="text/css" height="348px" preserveAspectRatio="none" style="width:770px;height:348px;background:#FFFFFF;" version="1.1" viewBox="0 0 770 348" width="770px" zoomAndPan="magnify"><title>&#21512;&#21516;&#30340;&#20445;&#20840; - &#20195;&#20301;&#26435;</title><defs/><g><text fill="#000000" font-family="sans-serif" font-size="14" font-weight="bold" lengthAdjust="spacing" textLength="127.9414" x="319.5293" y="34.5332">&#21512;&#21516;&#30340;&#20445;&#20840; - &#20195;&#20301;&#26435;</text><rect fill="#F1F1F1" height="37.6094" rx="12.5" ry="12.5" style="stroke:#181818;stroke-width:1.5;" width="146" x="10" y="173.8281"/><text fill="#000000" font-family="sans-serif" font-size="14" lengthAdjust="spacing" textLength="126" x="20" y="198.3613">&#21512;&#21516;&#30340;&#20445;&#20840;&#20043;&#20195;&#20301;&#26435;</text><rect fill="#F1F1F1" height="37.6094" rx="12.5" ry="12.5" style="stroke:#181818;stroke-width:1.5;" width="62" x="206" y="116.2188"/><text fill="#000000" font-family="sans-serif" font-size="14" lengthAdjust="spacing" textLength="42" x="216" y="140.752">&#20538;&#26435;&#20154;</text><rect fill="#F1F1F1" height="37.6094" rx="12.5" ry="12.5" style="stroke:#181818;stroke-width:1.5;" width="76" x="318" y="58.6094"/><text fill="#000000" font-family="sans-serif" font-size="14" lengthAdjust="spacing" textLength="56" x="328" y="83.1426">&#34892;&#26435;&#26041;&#24335;</text><rect fill="#F1F1F1" height="37.6094" rx="12.5" ry="12.5" style="stroke:#181818;stroke-width:1.5;" width="76" x="444" y="58.6094"/><text fill="#000000" font-family="sans-serif" font-size="14" lengthAdjust="spacing" textLength="56" x="454" y="83.1426">&#27861;&#38498;&#35785;&#35772;</text><path d="M394,77.4141 L404,77.4141 C419,77.4141 419,77.4141 434,77.4141 L444,77.4141 " fill="none" style="stroke:#181818;stroke-width:1;"/><path d="M268,135.0234 L278,135.0234 C293,135.0234 293,77.4141 308,77.4141 L318,77.4141 " fill="none" style="stroke:#181818;stroke-width:1;"/><rect fill="#F1F1F1" height="37.6094" rx="12.5" ry="12.5" style="stroke:#181818;stroke-width:1.5;" width="76" x="318" y="145.0234"/><text fill="#000000" font-family="sans-serif" font-size="14" lengthAdjust="spacing" textLength="56" x="328" y="169.5566">&#34892;&#26435;&#33539;&#22260;</text><rect fill="#F1F1F1" height="37.6094" rx="12.5" ry="12.5" style="stroke:#181818;stroke-width:1.5;" width="48" x="444" y="116.2188"/><text fill="#000000" font-family="sans-serif" font-size="14" lengthAdjust="spacing" textLength="28" x="454" y="140.752">&#21407;&#21017;</text><rect fill="#F1F1F1" height="37.6094" rx="12.5" ry="12.5" style="stroke:#181818;stroke-width:1.5;" width="160" x="542" y="116.2188"/><text fill="#000000" font-family="sans-serif" font-size="14" lengthAdjust="spacing" textLength="140" x="552" y="140.752">&#20538;&#26435;&#20154;&#30340;&#21040;&#26399;&#20538;&#26435;&#20026;&#38480;</text><path d="M492,135.0234 L502,135.0234 C517,135.0234 517,135.0234 532,135.0234 L542,135.0234 " fill="none" style="stroke:#181818;stroke-width:1;"/><path d="M394,163.8281 L404,163.8281 C419,163.8281 419,135.0234 434,135.0234 L444,135.0234 " fill="none" style="stroke:#181818;stroke-width:1;"/><rect fill="#F1F1F1" height="37.6094" rx="12.5" ry="12.5" style="stroke:#181818;stroke-width:1.5;" width="48" x="444" y="173.8281"/><text fill="#000000" font-family="sans-serif" font-size="14" lengthAdjust="spacing" textLength="28" x="454" y="198.3613">&#20363;&#22806;</text><rect fill="#F1F1F1" height="37.6094" rx="12.5" ry="12.5" style="stroke:#181818;stroke-width:1.5;" width="216" x="542" y="173.8281"/><text fill="#000000" font-family="sans-serif" font-size="14" lengthAdjust="spacing" textLength="196" x="552" y="198.3613">&#19981;&#33021;&#26159;&#19987;&#23646;&#20110;&#20538;&#21153;&#20154;&#33258;&#36523;&#30340;&#26435;&#21033;</text><path d="M492,192.6328 L502,192.6328 C517,192.6328 517,192.6328 532,192.6328 L542,192.6328 " fill="none" style="stroke:#181818;stroke-width:1;"/><path d="M394,163.8281 L404,163.8281 C419,163.8281 419,192.6328 434,192.6328 L444,192.6328 " fill="none" style="stroke:#181818;stroke-width:1;"/><path d="M268,135.0234 L278,135.0234 C293,135.0234 293,163.8281 308,163.8281 L318,163.8281 " fill="none" style="stroke:#181818;stroke-width:1;"/><path d="M156,192.6328 L166,192.6328 C181,192.6328 181,135.0234 196,135.0234 L206,135.0234 " fill="none" style="stroke:#181818;stroke-width:1;"/><rect fill="#F1F1F1" height="37.6094" rx="12.5" ry="12.5" style="stroke:#181818;stroke-width:1.5;" width="62" x="206" y="231.4375"/><text fill="#000000" font-family="sans-serif" font-size="14" lengthAdjust="spacing" textLength="42" x="216" y="255.9707">&#20538;&#21153;&#20154;</text><rect fill="#F1F1F1" height="37.6094" rx="12.5" ry="12.5" style="stroke:#181818;stroke-width:1.5;" width="76" x="318" y="231.4375"/><text fill="#000000" font-family="sans-serif" font-size="14" lengthAdjust="spacing" textLength="56" x="328" y="255.9707">&#24608;&#20110;&#34892;&#26435;</text><path d="M268,250.2422 L278,250.2422 C293,250.2422 293,250.2422 308,250.2422 L318,250.2422 " fill="none" style="stroke:#181818;stroke-width:1;"/><path d="M156,192.6328 L166,192.6328 C181,192.6328 181,250.2422 196,250.2422 L206,250.2422 " fill="none" style="stroke:#181818;stroke-width:1;"/><rect fill="#F1F1F1" height="37.6094" rx="12.5" ry="12.5" style="stroke:#181818;stroke-width:1.5;" width="62" x="206" y="289.0469"/><text fill="#000000" font-family="sans-serif" font-size="14" lengthAdjust="spacing" textLength="42" x="216" y="313.5801">&#30456;&#23545;&#20154;</text><rect fill="#F1F1F1" height="37.6094" rx="12.5" ry="12.5" style="stroke:#181818;stroke-width:1.5;" width="48" x="318" y="289.0469"/><text fill="#000000" font-family="sans-serif" font-size="14" lengthAdjust="spacing" textLength="28" x="328" y="313.5801">&#25239;&#36777;</text><path d="M268,307.8516 L278,307.8516 C293,307.8516 293,307.8516 308,307.8516 L318,307.8516 " fill="none" style="stroke:#181818;stroke-width:1;"/><path d="M156,192.6328 L166,192.6328 C181,192.6328 181,307.8516 196,307.8516 L206,307.8516 " fill="none" style="stroke:#181818;stroke-width:1;"/><!--SRC=[xLPRRnD757wVNp68bmJ9pgLMX2A4WasY5iK8OSFxU7TO3vcTMStE6XbK2IaW0WI8X4f9ARUs3wMLcbRjG-82_JExnlmBpkvwuxNfUfSt7h0iotFETxupvpOpAwucIjjCc3Pn43h2XC4za-9oUGw-hkvoEkTm8hHdyr88Am6k5CdB36G8QQOvnS7ELh2p_Uw76_v_JuERl-8Izl_zsNzph_zq4w5Zash_uEv8ZU43YEizMFYzNhIEPOENso3hFpe8NZyu5CUg_j_VlT_zQR1tU_37wuyi1jkRmPD_9Yo2-y-3hTqnuOHds5wmzMV_n-T3oNxl_UxE18l_zcxmowF_OV7txmqst_GVx_dx3uE_dlcz-y0It7a9l8DRlmrwlmCxa0PRhqO1n-hKzllNNu1X7CGGzkx9Vh1tC06xy_tWxIk4LYYKBIdTodWbJqGrEec6WjECM8hO-1hGb5lSez4_ZAl4sB2Kz8HParmgp9dLrg4UjD-6M9Ee3KND3FXGcu0jHQcOnXm1KkXk3hYROAKYmihQTAnCe8wd79u5ZPK9D3kmL51AkbbiHzVMgjLQBK5sAUVoIWOsLaPGLBO94yqsjHFYDIbqWrsb-Ajv5EgfxRI9ozpyNARHynbmTwCRbJIDNPoUopIq2YAZ3NrNQ3FC4bBH0dN5U9q9EYaVKHHqEvKg91D26bJehDo8g2Xn2M9HYmDcWXM69zwReTXXrKPgBMsYPRnveS4RauBmsgTYpodg44L2oQUOdMf9fVFQhYYNrb1tdJTf1TbgqePnqrdjCBJCeWlB9wW55GNIT3AddLfvbJGfTT83CUvW5KxH5cTkE_l8IzcFUxlIPdeoDnbkpagTxocAokWIKI0gWvXK7peZXi7Cx9uVEuhpc2_1ABgf-OQrGUlaClLofbnos8AIPge3SsOiiOZyED9bcdNeAICr3XyTvuJJee6CGe1Qa5ngcy4D6fxzHNfgU0s6vAxNkaoDa3uhEwG3zpPL1NaxJC84HTGoZpdCU-5qZqxwyS6TFgjZlPnxXo3uEJ4tV8fyUIf-9a_5S-63_a9z7NUeSiC9M2WlpYzMoiTd6aJZixA35vRm_C9ofR9SMSArHXE7wbaqK_-cYLtfmG60JHWFnLfUs3Epw0pf47pUWmwowJ8ELpFD-Ynkh2P2l2ewJ4bXGzUWCnVhCGX_BNN3aJe2BrLALQPnWohO5hvOHwVf9U9n3QQ6D9cmbl65vbhfE5g7xlA81OvWdclGTbfrGTVu0000]--></g></svg>