<svg xmlns="http://www.w3.org/2000/svg" xmlns:xlink="http://www.w3.org/1999/xlink" contentStyleType="text/css" height="699px" preserveAspectRatio="none" style="width:875px;height:699px;background:#FFFFFF;" version="1.1" viewBox="0 0 875 699" width="875px" zoomAndPan="magnify"><title>&#24314;&#31569;&#29289;&#21644;&#29289;&#20214;&#25439;&#23475;&#36131;&#20219;</title><defs/><g><text fill="#000000" font-family="sans-serif" font-size="14" font-weight="bold" lengthAdjust="spacing" textLength="144.375" x="364.2021" y="34.5332">&#24314;&#31569;&#29289;&#21644;&#29289;&#20214;&#25439;&#23475;&#36131;&#20219;</text><rect fill="#F1F1F1" height="37.6094" rx="12.5" ry="12.5" style="stroke:#181818;stroke-width:1.5;" width="160" x="10" y="349.2266"/><text fill="#000000" font-family="sans-serif" font-size="14" lengthAdjust="spacing" textLength="140" x="20" y="373.7598">&#24314;&#31569;&#29289;&#21644;&#29289;&#20214;&#25439;&#23475;&#36131;&#20219;</text><rect fill="#F1F1F1" height="37.6094" rx="12.5" ry="12.5" style="stroke:#181818;stroke-width:1.5;" width="132" x="220" y="202.6328"/><text fill="#000000" font-family="sans-serif" font-size="14" lengthAdjust="spacing" textLength="112" x="230" y="227.166">&#24314;&#31569;&#29289;&#20498;&#22604;&#25110;&#22604;&#38519;</text><rect fill="#90EE90" height="37.6094" rx="12.5" ry="12.5" style="stroke:#181818;stroke-width:1.5;" width="79.8896" x="402" y="173.8281"/><text fill="#000000" font-family="sans-serif" font-size="14" lengthAdjust="spacing" textLength="56" x="412" y="198.3613">&#36136;&#37327;&#32570;&#38519;</text><rect fill="#F1F1F1" height="37.6094" rx="12.5" ry="12.5" style="stroke:#181818;stroke-width:1.5;" width="76" x="531.8896" y="116.2188"/><text fill="#000000" font-family="sans-serif" font-size="14" lengthAdjust="spacing" textLength="56" x="541.8896" y="140.752">&#36131;&#20219;&#20027;&#20307;</text><rect fill="#F1F1F1" height="37.6094" rx="12.5" ry="12.5" style="stroke:#181818;stroke-width:1.5;" width="76" x="657.8896" y="87.4141"/><text fill="#000000" font-family="sans-serif" font-size="14" lengthAdjust="spacing" textLength="56" x="667.8896" y="111.9473">&#22810;&#20154;&#36131;&#20219;</text><rect fill="#90EE90" height="37.6094" rx="12.5" ry="12.5" style="stroke:#181818;stroke-width:1.5;" width="79.8896" x="783.8896" y="58.6094"/><text fill="#000000" font-family="sans-serif" font-size="14" lengthAdjust="spacing" textLength="56" x="793.8896" y="83.1426">&#24314;&#35774;&#21333;&#20301;</text><path d="M733.8896,106.2188 L743.8896,106.2188 C758.8896,106.2188 758.8896,77.4141 773.8896,77.4141 L783.8896,77.4141 " fill="none" style="stroke:#181818;stroke-width:1;"/><rect fill="#90EE90" height="37.6094" rx="12.5" ry="12.5" style="stroke:#181818;stroke-width:1.5;" width="79.8896" x="783.8896" y="116.2188"/><text fill="#000000" font-family="sans-serif" font-size="14" lengthAdjust="spacing" textLength="56" x="793.8896" y="140.752">&#26045;&#24037;&#21333;&#20301;</text><path d="M733.8896,106.2188 L743.8896,106.2188 C758.8896,106.2188 758.8896,135.0234 773.8896,135.0234 L783.8896,135.0234 " fill="none" style="stroke:#181818;stroke-width:1;"/><path d="M607.8896,135.0234 L617.8896,135.0234 C632.8896,135.0234 632.8896,106.2188 647.8896,106.2188 L657.8896,106.2188 " fill="none" style="stroke:#181818;stroke-width:1;"/><rect fill="#F1F1F1" height="37.6094" rx="12.5" ry="12.5" style="stroke:#181818;stroke-width:1.5;" width="76" x="657.8896" y="173.8281"/><text fill="#000000" font-family="sans-serif" font-size="14" lengthAdjust="spacing" textLength="56" x="667.8896" y="198.3613">&#25215;&#25285;&#26041;&#24335;</text><rect fill="#90EE90" height="37.6094" rx="12.5" ry="12.5" style="stroke:#181818;stroke-width:1.5;" width="79.8896" x="783.8896" y="173.8281"/><text fill="#000000" font-family="sans-serif" font-size="14" lengthAdjust="spacing" textLength="56" x="793.8896" y="198.3613">&#36830;&#24102;&#36131;&#20219;</text><path d="M733.8896,192.6328 L743.8896,192.6328 C758.8896,192.6328 758.8896,192.6328 773.8896,192.6328 L783.8896,192.6328 " fill="none" style="stroke:#181818;stroke-width:1;"/><path d="M607.8896,135.0234 L617.8896,135.0234 C632.8896,135.0234 632.8896,192.6328 647.8896,192.6328 L657.8896,192.6328 " fill="none" style="stroke:#181818;stroke-width:1;"/><path d="M481.8896,192.6328 L491.8896,192.6328 C506.8896,192.6328 506.8896,135.0234 521.8896,135.0234 L531.8896,135.0234 " fill="none" style="stroke:#181818;stroke-width:1;"/><rect fill="#F1F1F1" height="37.6094" rx="12.5" ry="12.5" style="stroke:#181818;stroke-width:1.5;" width="76" x="531.8896" y="231.4375"/><text fill="#000000" font-family="sans-serif" font-size="14" lengthAdjust="spacing" textLength="56" x="541.8896" y="255.9707">&#20813;&#36131;&#20107;&#30001;</text><rect fill="#90EE90" height="37.6094" rx="12.5" ry="12.5" style="stroke:#181818;stroke-width:1.5;" width="149.8896" x="657.8896" y="231.4375"/><text fill="#000000" font-family="sans-serif" font-size="14" lengthAdjust="spacing" textLength="126" x="667.8896" y="255.9707">&#35777;&#26126;&#19981;&#23384;&#22312;&#36136;&#37327;&#32570;&#38519;</text><path d="M607.8896,250.2422 L617.8896,250.2422 C632.8896,250.2422 632.8896,250.2422 647.8896,250.2422 L657.8896,250.2422 " fill="none" style="stroke:#181818;stroke-width:1;"/><path d="M481.8896,192.6328 L491.8896,192.6328 C506.8896,192.6328 506.8896,250.2422 521.8896,250.2422 L531.8896,250.2422 " fill="none" style="stroke:#181818;stroke-width:1;"/><rect fill="#F1F1F1" height="37.6094" rx="12.5" ry="12.5" style="stroke:#181818;stroke-width:1.5;" width="48" x="531.8896" y="289.0469"/><text fill="#000000" font-family="sans-serif" font-size="14" lengthAdjust="spacing" textLength="28" x="541.8896" y="313.5801">&#36861;&#20607;</text><rect fill="#90EE90" height="37.6094" rx="12.5" ry="12.5" style="stroke:#181818;stroke-width:1.5;" width="163.8896" x="629.8896" y="289.0469"/><text fill="#000000" font-family="sans-serif" font-size="14" lengthAdjust="spacing" textLength="140" x="639.8896" y="313.5801">&#26377;&#26435;&#21521;&#20854;&#20182;&#36131;&#20219;&#20154;&#36861;&#20607;</text><path d="M579.8896,307.8516 L589.8896,307.8516 C604.8896,307.8516 604.8896,307.8516 619.8896,307.8516 L629.8896,307.8516 " fill="none" style="stroke:#181818;stroke-width:1;"/><path d="M481.8896,192.6328 L491.8896,192.6328 C506.8896,192.6328 506.8896,307.8516 521.8896,307.8516 L531.8896,307.8516 " fill="none" style="stroke:#181818;stroke-width:1;"/><path d="M352,221.4375 L362,221.4375 C377,221.4375 377,192.6328 392,192.6328 L402,192.6328 " fill="none" style="stroke:#181818;stroke-width:1;"/><rect fill="#F1F1F1" height="37.6094" rx="12.5" ry="12.5" style="stroke:#181818;stroke-width:1.5;" width="76" x="402" y="346.6563"/><text fill="#000000" font-family="sans-serif" font-size="14" lengthAdjust="spacing" textLength="56" x="412" y="371.1895">&#20854;&#20182;&#21407;&#22240;</text><rect fill="#F1F1F1" height="37.6094" rx="12.5" ry="12.5" style="stroke:#181818;stroke-width:1.5;" width="230" x="528" y="346.6563"/><text fill="#000000" font-family="sans-serif" font-size="14" lengthAdjust="spacing" textLength="210" x="538" y="371.1895">&#25152;&#26377;&#20154;&#12289;&#31649;&#29702;&#20154;&#12289;&#20351;&#29992;&#20154;&#12289;&#31532;&#19977;&#20154;</text><path d="M478,365.4609 L488,365.4609 C503,365.4609 503,365.4609 518,365.4609 L528,365.4609 " fill="none" style="stroke:#181818;stroke-width:1;"/><path d="M352,221.4375 L362,221.4375 C377,221.4375 377,365.4609 392,365.4609 L402,365.4609 " fill="none" style="stroke:#181818;stroke-width:1;"/><path d="M170,368.0313 L180,368.0313 C195,368.0313 195,221.4375 210,221.4375 L220,221.4375 " fill="none" style="stroke:#181818;stroke-width:1;"/><rect fill="#F1F1F1" height="37.6094" rx="12.5" ry="12.5" style="stroke:#181818;stroke-width:1.5;" width="76" x="220" y="522.0547"/><text fill="#000000" font-family="sans-serif" font-size="14" lengthAdjust="spacing" textLength="56" x="230" y="546.5879">&#22320;&#38754;&#26045;&#24037;</text><rect fill="#F1F1F1" height="37.6094" rx="12.5" ry="12.5" style="stroke:#181818;stroke-width:1.5;" width="76" x="346" y="404.2656"/><text fill="#000000" font-family="sans-serif" font-size="14" lengthAdjust="spacing" textLength="56" x="356" y="428.7988">&#24402;&#36131;&#21407;&#21017;</text><rect fill="#F1F1F1" height="37.6094" rx="12.5" ry="12.5" style="stroke:#181818;stroke-width:1.5;" width="132" x="472" y="404.2656"/><text fill="#000000" font-family="sans-serif" font-size="14" lengthAdjust="spacing" textLength="112" x="482" y="428.7988">&#36807;&#38169;&#25512;&#23450;&#36131;&#20219;&#21407;&#21017;</text><path d="M422,423.0703 L432,423.0703 C447,423.0703 447,423.0703 462,423.0703 L472,423.0703 " fill="none" style="stroke:#181818;stroke-width:1;"/><path d="M296,540.8594 L306,540.8594 C321,540.8594 321,423.0703 336,423.0703 L346,423.0703 " fill="none" style="stroke:#181818;stroke-width:1;"/><rect fill="#F1F1F1" height="37.6094" rx="12.5" ry="12.5" style="stroke:#181818;stroke-width:1.5;" width="76" x="346" y="493.25"/><text fill="#000000" font-family="sans-serif" font-size="14" lengthAdjust="spacing" textLength="56" x="356" y="517.7832">&#36131;&#20219;&#20027;&#20307;</text><rect fill="#F1F1F1" height="37.6094" rx="12.5" ry="12.5" style="stroke:#181818;stroke-width:1.5;" width="76" x="472" y="461.875"/><text fill="#000000" font-family="sans-serif" font-size="14" lengthAdjust="spacing" textLength="56" x="482" y="486.4082">&#21333;&#20154;&#36131;&#20219;</text><rect fill="#90EE90" height="37.6094" rx="12.5" ry="12.5" style="stroke:#181818;stroke-width:1.5;" width="149.8896" x="598" y="461.875"/><text fill="#000000" font-family="sans-serif" font-size="14" lengthAdjust="spacing" textLength="126" x="608" y="486.4082">&#26045;&#24037;&#21333;&#20301;&#65292;&#21363;&#25215;&#21253;&#20154;</text><path d="M548,480.6797 L558,480.6797 C573,480.6797 573,480.6797 588,480.6797 L598,480.6797 " fill="none" style="stroke:#181818;stroke-width:1;"/><path d="M422,512.0547 L432,512.0547 C447,512.0547 447,480.6797 462,480.6797 L472,480.6797 " fill="none" style="stroke:#181818;stroke-width:1;"/><rect fill="#F1F1F1" height="37.6094" rx="12.5" ry="12.5" style="stroke:#181818;stroke-width:1.5;" width="48" x="472" y="522.0547"/><text fill="#000000" font-family="sans-serif" font-size="14" lengthAdjust="spacing" textLength="28" x="482" y="546.5879">&#25490;&#38500;</text><rect fill="#F1F1F1" height="42.75" rx="12.5" ry="12.5" style="stroke:#181818;stroke-width:1.5;" width="170.8896" x="570" y="519.4844"/><text fill="#000000" font-family="sans-serif" font-size="14" lengthAdjust="spacing" textLength="126" x="580" y="549.1582">&#24314;&#35774;&#21333;&#20301;&#65292;&#21363;&#21457;&#21253;&#20154;</text><path d="M722.4506,539.9855 L729.5876,532.849 C730.157,532.2797 730.157,531.3563 729.5876,530.787 C729.0177,530.217 728.0949,530.217 727.5256,530.787 L720.3885,537.9235 L713.252,530.787 C712.6826,530.217 711.7586,530.217 711.1899,530.787 C710.62,531.3563 710.62,532.2797 711.1899,532.849 L718.3264,539.9855 L711.1736,547.139 C710.6036,547.7089 710.6036,548.6317 711.1736,549.201 C711.4582,549.4857 711.8316,549.628 712.2049,549.628 C712.5782,549.628 712.9516,549.4857 713.2362,549.201 L720.3891,542.0476 L727.5256,549.1841 C727.8102,549.4688 728.1836,549.6111 728.5569,549.6111 C728.9302,549.6111 729.303,549.4688 729.5882,549.1841 C730.1576,548.6142 730.1576,547.6914 729.5882,547.122 L722.4506,539.9855 " fill="#FE0000" style="stroke:;stroke-width:0;stroke-dasharray:;"/><path d="M520,540.8594 L530,540.8594 C545,540.8594 545,540.8594 560,540.8594 L570,540.8594 " fill="none" style="stroke:#181818;stroke-width:1;"/><path d="M422,512.0547 L432,512.0547 C447,512.0547 447,540.8594 462,540.8594 L472,540.8594 " fill="none" style="stroke:#181818;stroke-width:1;"/><path d="M296,540.8594 L306,540.8594 C321,540.8594 321,512.0547 336,512.0547 L346,512.0547 " fill="none" style="stroke:#181818;stroke-width:1;"/><rect fill="#F1F1F1" height="37.6094" rx="12.5" ry="12.5" style="stroke:#181818;stroke-width:1.5;" width="76" x="346" y="611.0391"/><text fill="#000000" font-family="sans-serif" font-size="14" lengthAdjust="spacing" textLength="56" x="356" y="635.5723">&#20813;&#36131;&#20107;&#30001;</text><rect fill="#F1F1F1" height="37.6094" rx="12.5" ry="12.5" style="stroke:#181818;stroke-width:1.5;" width="146" x="472" y="611.0391"/><text fill="#000000" font-family="sans-serif" font-size="14" lengthAdjust="spacing" textLength="126" x="482" y="635.5723">&#23613;&#21040;&#20102;&#27861;&#23450;&#35686;&#31034;&#20041;&#21153;</text><rect fill="#F1F1F1" height="37.6094" rx="12.5" ry="12.5" style="stroke:#181818;stroke-width:1.5;" width="104" x="668" y="582.2344"/><text fill="#000000" font-family="sans-serif" font-size="14" lengthAdjust="spacing" textLength="84" x="678" y="606.7676">&#35774;&#32622;&#26126;&#26174;&#26631;&#24535;</text><path d="M618,629.8438 L628,629.8438 C643,629.8438 643,601.0391 658,601.0391 L668,601.0391 " fill="none" style="stroke:#181818;stroke-width:1;"/><rect fill="#F1F1F1" height="37.6094" rx="12.5" ry="12.5" style="stroke:#181818;stroke-width:1.5;" width="104" x="668" y="639.8438"/><text fill="#000000" font-family="sans-serif" font-size="14" lengthAdjust="spacing" textLength="84" x="678" y="664.377">&#37319;&#21462;&#23433;&#20840;&#25514;&#26045;</text><path d="M618,629.8438 L628,629.8438 C643,629.8438 643,658.6484 658,658.6484 L668,658.6484 " fill="none" style="stroke:#181818;stroke-width:1;"/><path d="M422,629.8438 L432,629.8438 C447,629.8438 447,629.8438 462,629.8438 L472,629.8438 " fill="none" style="stroke:#181818;stroke-width:1;"/><path d="M296,540.8594 L306,540.8594 C321,540.8594 321,629.8438 336,629.8438 L346,629.8438 " fill="none" style="stroke:#181818;stroke-width:1;"/><path d="M170,368.0313 L180,368.0313 C195,368.0313 195,540.8594 210,540.8594 L220,540.8594 " fill="none" style="stroke:#181818;stroke-width:1;"/><!--SRC=[xLXVJzjM57_tfxXJNs0IuSyGgYA4A2begvggMcZVRvpRnCNsZUphTDaq2JHHO2LG66NGqRLih69JoPYeMfeGyc7cwv2dVOKTsp4uD8xTTn2oadD-ztV-duiPrndMc2Af6GNd1U4pIHLb8qDGBDOFlpehogG_BsEL6OhSPyFw0DVdo6CIo0I1IKmcY5ShZOErnjAVV7qPdcRrdLLwoSj7Psz_DwjLGVWy387Wnm-QNUUxozRY9ZoRs-yTjGivUxlVN5Xjd5H0Z4P7YPBFOLtInyRECHxEvZMFgsRjfpPLozBUSxDIyHdl0AbMpigdlFJCh9M2BLtWhSqQV_z753nWb-hMatbhymC_MGsWEwl_oezVknvs2vJFbsnGvKbZuvyEbix-dhEsLipZ4Z_OuZlxaTDNh_6vUYVFTvQi5p_mfsjy_frPtMob6LBf7EXCQJjfW_dAI_xBA-5oAcQ14nZ-dPrhb7SRJn-xdyrQlR6ntvA_UMCUsnYlJtOEcoz-SnFkjr9R1tziAulR7yMpqDpOjbRsUVcvw_CbM9UE0M8eQc2tj5V-lvDbNZg2-lBbUJZJBSVModfpUq_etdak7rzTy_YkQIGJ_oRUdjs05W3LOOql7fgLnzRHCplqWzUDlOhvOOd_kDkfMSgdZLeP-iNQEhLUBV3wpnr0pOK5lhh9oqjyVjzQ-Gk25uHn0Xl4soBZxKjbr5aNOq9BS5F2MGqhw3kWZgLbWpYV49h0uanMeuQQIL2PQaYMiZbcwq7xlOtDO6q6OW-0jxGUEAiHedPZTW0-T344NFImLCDgDiXfL-b1yuQMbuEWhjA31WVc2qgZUX3RjQcfYOb4maCMYIpJHm5OL-b0XPY29NKwHnIFU8ggB2LzIz0N0uAjzxetF9T-z400N9yfEYNrOuUwvz8FdG2Hc8CUZEICb5MfHYBK5Q7Raaekooye8fhjIcMJgIeLYSg2SgCwHN5Bu8hICc0kiSBmkBw9cdHUjGiremfcr7LUPM1DeYgM4v-AlQkHFDQmBVcKOpVIL6DXRHULYp6eEmkRj8Xi2Qh0kB6WTcYT3AApowUIB5GKIFt9xBQrmYgP8IJl7uXs0vEmHTEofEU2LvxlVBkrHpc9NSvDW9axb8LRSg8IYrYD49M8CuIT6yEYA6M2Uxvj5OSnFu1Hr7tp3Tz5aiGFYH4ovLG65pIQyNLWo8nv9nmxUQfBJ2gG6w9l73vQvrWcKGEv205gWKEf5GbkK7ltH-cfrZLea-j6-Y4HRVgWxE02tDj4YyXRa2XCa4DDmvZjl4TEzyMcRn_SxhFQrikXTuW0Zz7-rfyYLsyjLsyjLsyjLsyj_hUMk_Q_EUubRwC2qNHx6G_6XWQ6XcFNUrAOeJkqW0P7qC1WV7WuFZo24gbfPAjxXPxaLzD8fmRSHIW3crgJqeQzldg5MxY0qTS6B3E5n97zhMSwsOjIavuGJQe5IQEg0WjCk7K_wOBGbvIbyfGvu97XlWc9eHJHm2rqFodS90-m8JCuAjACf6RZwDxqLDzruJOiEWDdmH1SBGdOW4mhWYxrFm00]--></g></svg>