<svg xmlns="http://www.w3.org/2000/svg" xmlns:xlink="http://www.w3.org/1999/xlink" contentStyleType="text/css" height="579px" preserveAspectRatio="none" style="width:476px;height:579px;background:#FFFFFF;" version="1.1" viewBox="0 0 476 579" width="476px" zoomAndPan="magnify"><title>&#27665;&#20107;&#26435;&#30410;</title><defs/><g><text fill="#000000" font-family="sans-serif" font-size="14" font-weight="bold" lengthAdjust="spacing" textLength="57.75" x="207.625" y="34.5332">&#27665;&#20107;&#26435;&#30410;</text><rect fill="#F1F1F1" height="37.6094" rx="12.5" ry="12.5" style="stroke:#181818;stroke-width:1.5;" width="76" x="10" y="289.0469"/><text fill="#000000" font-family="sans-serif" font-size="14" lengthAdjust="spacing" textLength="56" x="20" y="313.5801">&#27665;&#20107;&#26435;&#30410;</text><rect fill="#F1F1F1" height="37.6094" rx="12.5" ry="12.5" style="stroke:#181818;stroke-width:1.5;" width="48" x="136" y="87.4141"/><text fill="#000000" font-family="sans-serif" font-size="14" lengthAdjust="spacing" textLength="28" x="146" y="111.9473">&#36130;&#20135;</text><rect fill="#F1F1F1" height="37.6094" rx="12.5" ry="12.5" style="stroke:#181818;stroke-width:1.5;" width="48" x="234" y="58.6094"/><text fill="#000000" font-family="sans-serif" font-size="14" lengthAdjust="spacing" textLength="28" x="244" y="83.1426">&#29289;&#26435;</text><path d="M184,106.2188 L194,106.2188 C209,106.2188 209,77.4141 224,77.4141 L234,77.4141 " fill="none" style="stroke:#181818;stroke-width:1;"/><rect fill="#F1F1F1" height="37.6094" rx="12.5" ry="12.5" style="stroke:#181818;stroke-width:1.5;" width="48" x="234" y="116.2188"/><text fill="#000000" font-family="sans-serif" font-size="14" lengthAdjust="spacing" textLength="28" x="244" y="140.752">&#20538;&#26435;</text><path d="M184,106.2188 L194,106.2188 C209,106.2188 209,135.0234 224,135.0234 L234,135.0234 " fill="none" style="stroke:#181818;stroke-width:1;"/><path d="M86,307.8516 L96,307.8516 C111,307.8516 111,106.2188 126,106.2188 L136,106.2188 " fill="none" style="stroke:#181818;stroke-width:1;"/><rect fill="#F1F1F1" height="37.6094" rx="12.5" ry="12.5" style="stroke:#181818;stroke-width:1.5;" width="48" x="136" y="260.2422"/><text fill="#000000" font-family="sans-serif" font-size="14" lengthAdjust="spacing" textLength="28" x="146" y="284.7754">&#20154;&#36523;</text><rect fill="#F1F1F1" height="37.6094" rx="12.5" ry="12.5" style="stroke:#181818;stroke-width:1.5;" width="48" x="234" y="202.6328"/><text fill="#000000" font-family="sans-serif" font-size="14" lengthAdjust="spacing" textLength="28" x="244" y="227.166">&#26435;&#21033;</text><rect fill="#F1F1F1" height="37.6094" rx="12.5" ry="12.5" style="stroke:#181818;stroke-width:1.5;" width="62" x="332" y="173.8281"/><text fill="#000000" font-family="sans-serif" font-size="14" lengthAdjust="spacing" textLength="42" x="342" y="198.3613">&#20154;&#36523;&#26435;</text><path d="M282,221.4375 L292,221.4375 C307,221.4375 307,192.6328 322,192.6328 L332,192.6328 " fill="none" style="stroke:#181818;stroke-width:1;"/><rect fill="#F1F1F1" height="37.6094" rx="12.5" ry="12.5" style="stroke:#181818;stroke-width:1.5;" width="62" x="332" y="231.4375"/><text fill="#000000" font-family="sans-serif" font-size="14" lengthAdjust="spacing" textLength="42" x="342" y="255.9707">&#36523;&#20221;&#26435;</text><path d="M282,221.4375 L292,221.4375 C307,221.4375 307,250.2422 322,250.2422 L332,250.2422 " fill="none" style="stroke:#181818;stroke-width:1;"/><path d="M184,279.0469 L194,279.0469 C209,279.0469 209,221.4375 224,221.4375 L234,221.4375 " fill="none" style="stroke:#181818;stroke-width:1;"/><rect fill="#F1F1F1" height="37.6094" rx="12.5" ry="12.5" style="stroke:#181818;stroke-width:1.5;" width="48" x="234" y="317.8516"/><text fill="#000000" font-family="sans-serif" font-size="14" lengthAdjust="spacing" textLength="28" x="244" y="342.3848">&#21033;&#30410;</text><rect fill="#F1F1F1" height="37.6094" rx="12.5" ry="12.5" style="stroke:#181818;stroke-width:1.5;" width="118" x="332" y="289.0469"/><text fill="#000000" font-family="sans-serif" font-size="14" lengthAdjust="spacing" textLength="98" x="342" y="313.5801">&#32974;&#20799;&#21033;&#30410;&#30340;&#20445;&#25252;</text><path d="M282,336.6563 L292,336.6563 C307,336.6563 307,307.8516 322,307.8516 L332,307.8516 " fill="none" style="stroke:#181818;stroke-width:1;"/><rect fill="#F1F1F1" height="37.6094" rx="12.5" ry="12.5" style="stroke:#181818;stroke-width:1.5;" width="132" x="332" y="346.6563"/><text fill="#000000" font-family="sans-serif" font-size="14" lengthAdjust="spacing" textLength="112" x="342" y="371.1895">&#27515;&#32773;&#20154;&#21033;&#30410;&#30340;&#20445;&#25252;</text><path d="M282,336.6563 L292,336.6563 C307,336.6563 307,365.4609 322,365.4609 L332,365.4609 " fill="none" style="stroke:#181818;stroke-width:1;"/><path d="M184,279.0469 L194,279.0469 C209,279.0469 209,336.6563 224,336.6563 L234,336.6563 " fill="none" style="stroke:#181818;stroke-width:1;"/><path d="M86,307.8516 L96,307.8516 C111,307.8516 111,279.0469 126,279.0469 L136,279.0469 " fill="none" style="stroke:#181818;stroke-width:1;"/><rect fill="#F1F1F1" height="37.6094" rx="12.5" ry="12.5" style="stroke:#181818;stroke-width:1.5;" width="48" x="136" y="461.875"/><text fill="#000000" font-family="sans-serif" font-size="14" lengthAdjust="spacing" textLength="28" x="146" y="486.4082">&#32508;&#21512;</text><rect fill="#F1F1F1" height="37.6094" rx="12.5" ry="12.5" style="stroke:#181818;stroke-width:1.5;" width="76" x="234" y="404.2656"/><text fill="#000000" font-family="sans-serif" font-size="14" lengthAdjust="spacing" textLength="56" x="244" y="428.7988">&#30693;&#35782;&#20135;&#26435;</text><path d="M184,480.6797 L194,480.6797 C209,480.6797 209,423.0703 224,423.0703 L234,423.0703 " fill="none" style="stroke:#181818;stroke-width:1;"/><rect fill="#F1F1F1" height="37.6094" rx="12.5" ry="12.5" style="stroke:#181818;stroke-width:1.5;" width="62" x="234" y="461.875"/><text fill="#000000" font-family="sans-serif" font-size="14" lengthAdjust="spacing" textLength="42" x="244" y="486.4082">&#32487;&#25215;&#26435;</text><path d="M184,480.6797 L194,480.6797 C209,480.6797 209,480.6797 224,480.6797 L234,480.6797 " fill="none" style="stroke:#181818;stroke-width:1;"/><rect fill="#F1F1F1" height="37.6094" rx="12.5" ry="12.5" style="stroke:#181818;stroke-width:1.5;" width="48" x="234" y="519.4844"/><text fill="#000000" font-family="sans-serif" font-size="14" lengthAdjust="spacing" textLength="28" x="244" y="544.0176">&#32929;&#26435;</text><path d="M184,480.6797 L194,480.6797 C209,480.6797 209,538.2891 224,538.2891 L234,538.2891 " fill="none" style="stroke:#181818;stroke-width:1;"/><path d="M86,307.8516 L96,307.8516 C111,307.8516 111,480.6797 126,480.6797 L136,480.6797 " fill="none" style="stroke:#181818;stroke-width:1;"/><!--SRC=[xLPRQnD157xVNp7YIrj8UZ4KAI9jqXQLfeY9lazsfvjfPsUMsTcKA4BnHbKGVLL454MAY3xub2hzCscQd-6PtMmx6zti5dmqX90vvvllpBdEB0SAI-LHxdZOjwmBbDiiT0WgbsVX6wWk8xC-mro57YjfM0bmfKXUfY2pB4KL8sZm_LM_ztpmzk79csUMDPDU8_ZCeE6F3_tUvsWH2qwU7W3041plzHB13EhtUiFU5qCBgkFzWrE1YJ9fHiPwN_g7lyRezm-IqnZ0Xo-E7nt5gfFNZ_f7RmVFFevX1byFXtkFmTJVOE37uS_Zb_kcO-y-3Ryz0MVJzayEFm-U7gLbmmVljS1Q9f2190lBwQHSYS9zrHe9LYbs9VRGFQ0fjrX8edy8LR6zuqeHSgScc928KRUjj1wqzpNMmN974YS3Fj8cO5SImYSnHm03tSq1TnEia9YxMOUEbGdK3wNFig2nCe5cEsOu9KMGnNPnVRrQhTKIP9Sm9dOpiB4oWbfb3rFUR1Cl8LuNN3NeNO8kpLbQJpo_ZGCQvCVIHCzbm8ETRfHI4ximEPOcj0eYkmrrL-WmrEL2aW9vHMY3SZ8kFwCeQ7OYbIRZNDY4gwpOy2WfSGfYKOi1PemLcYS-cotfQTREr4fuM8duy5o1DIeuPhNpOczAucE9jUGysrPQGggyiYlAfHJaNULrMa6scl2WtLHMEOnsPj7fz77YGaQ1r0pcfAcLbqc74DziYBI1DPYYBKQ3TlR8C_QdhUssgHgFJOQPJQ7oBKLUsLtC2tXbOuUeKsFOjgcJNVEfKPp7l0Mj61Zz3MkRrF4s2NEwN30uWXIEKO4vFPRiYEpu8g2ATiYARRJ37-CSCrBKaJCN81SubzgZS8FgsL-afaRNe2OFmjOsiJLzLdHm1-vj8WloTgY03egeHHwpZdlXS9zD-dJZJkxLL2tdtY4M_5oP7Jr5_h_w_lshxwP-Pj-kRw0EaO4kvldomjn2fNnvge4LsXGTDB-8vkQNAfMboYAgDPf8gwUjgVhr9Wf42BsC7AXqILkXJl-qTGDtCBeLGZ5uP0dfrLIpFeqQQuaGhV4EbO9xK03MZJlr68Ik2TNmXOh0YvLIbIhK81AEXUxKhLMoXKEcOAij7ChT9NIxkLwwR6r0eOJO1KFGcZMe82Mxe6ly1W00]--></g></svg>