<svg xmlns="http://www.w3.org/2000/svg" xmlns:xlink="http://www.w3.org/1999/xlink" contentStyleType="text/css" height="492px" preserveAspectRatio="none" style="width:460px;height:492px;background:#FFFFFF;" version="1.1" viewBox="0 0 460 492" width="460px" zoomAndPan="magnify"><title>&#27665;&#20107;&#27861;&#24459;&#34892;&#20026;-&#21512;&#21516;-&#22235;&#20010;&#23618;&#38754;</title><defs/><g><text fill="#000000" font-family="sans-serif" font-size="14" font-weight="bold" lengthAdjust="spacing" textLength="182.5742" x="137.2456" y="34.5332">&#27665;&#20107;&#27861;&#24459;&#34892;&#20026;-&#21512;&#21516;-&#22235;&#20010;&#23618;&#38754;</text><rect fill="#F1F1F1" height="37.6094" rx="12.5" ry="12.5" style="stroke:#181818;stroke-width:1.5;" width="76" x="10" y="245.8398"/><text fill="#000000" font-family="sans-serif" font-size="14" lengthAdjust="spacing" textLength="56" x="20" y="270.373">&#22235;&#20010;&#23618;&#38754;</text><rect fill="#90EE90" height="37.6094" rx="12.5" ry="12.5" style="stroke:#181818;stroke-width:1.5;" width="107.8896" x="136" y="101.8164"/><text fill="#000000" font-family="sans-serif" font-size="14" lengthAdjust="spacing" textLength="84" x="146" y="126.3496">&#21512;&#21516;&#65288;&#22865;&#32422;&#65289;</text><rect fill="#F1F1F1" height="37.6094" rx="12.5" ry="12.5" style="stroke:#181818;stroke-width:1.5;" width="48" x="293.8896" y="87.4141"/><text fill="#000000" font-family="sans-serif" font-size="14" lengthAdjust="spacing" textLength="28" x="303.8896" y="111.9473">&#24418;&#24335;</text><rect fill="#F1F1F1" height="37.6094" rx="12.5" ry="12.5" style="stroke:#181818;stroke-width:1.5;" width="48" x="391.8896" y="58.6094"/><text fill="#000000" font-family="sans-serif" font-size="14" lengthAdjust="spacing" textLength="28" x="401.8896" y="83.1426">&#21475;&#22836;</text><path d="M341.8896,106.2188 L351.8896,106.2188 C366.8896,106.2188 366.8896,77.4141 381.8896,77.4141 L391.8896,77.4141 " fill="none" style="stroke:#181818;stroke-width:1;"/><rect fill="#F1F1F1" height="37.6094" rx="12.5" ry="12.5" style="stroke:#181818;stroke-width:1.5;" width="48" x="391.8896" y="116.2188"/><text fill="#000000" font-family="sans-serif" font-size="14" lengthAdjust="spacing" textLength="28" x="401.8896" y="140.752">&#20070;&#38754;</text><path d="M341.8896,106.2188 L351.8896,106.2188 C366.8896,106.2188 366.8896,135.0234 381.8896,135.0234 L391.8896,135.0234 " fill="none" style="stroke:#181818;stroke-width:1;"/><path d="M243.8896,120.6211 L253.8896,120.6211 C268.8896,120.6211 268.8896,106.2188 283.8896,106.2188 L293.8896,106.2188 " fill="none" style="stroke:#181818;stroke-width:1;"/><rect fill="#F1F1F1" height="37.6094" rx="12.5" ry="12.5" style="stroke:#181818;stroke-width:1.5;" width="48" x="293.8896" y="145.0234"/><text fill="#000000" font-family="sans-serif" font-size="14" lengthAdjust="spacing" textLength="28" x="303.8896" y="169.5566">&#20869;&#23481;</text><path d="M243.8896,120.6211 L253.8896,120.6211 C268.8896,120.6211 268.8896,163.8281 283.8896,163.8281 L293.8896,163.8281 " fill="none" style="stroke:#181818;stroke-width:1;"/><path d="M86,264.6445 L96,264.6445 C111,264.6445 111,120.6211 126,120.6211 L136,120.6211 " fill="none" style="stroke:#181818;stroke-width:1;"/><rect fill="#90EE90" height="37.6094" rx="12.5" ry="12.5" style="stroke:#181818;stroke-width:1.5;" width="65.8896" x="136" y="231.4375"/><text fill="#000000" font-family="sans-serif" font-size="14" lengthAdjust="spacing" textLength="42" x="146" y="255.9707">&#24403;&#20107;&#20154;</text><rect fill="#F1F1F1" height="37.6094" rx="12.5" ry="12.5" style="stroke:#181818;stroke-width:1.5;" width="62" x="251.8896" y="231.4375"/><text fill="#000000" font-family="sans-serif" font-size="14" lengthAdjust="spacing" textLength="42" x="261.8896" y="255.9707">&#20004;&#20010;&#20154;</text><rect fill="#F1F1F1" height="37.6094" rx="12.5" ry="12.5" style="stroke:#181818;stroke-width:1.5;" width="84.1758" x="363.8896" y="202.6328"/><text fill="#000000" font-family="sans-serif" font-size="14" lengthAdjust="spacing" textLength="64.1758" x="373.8896" y="227.166">&#35201;&#32422;+&#25215;&#35834;</text><path d="M313.8896,250.2422 L323.8896,250.2422 C338.8896,250.2422 338.8896,221.4375 353.8896,221.4375 L363.8896,221.4375 " fill="none" style="stroke:#181818;stroke-width:1;"/><rect fill="#F1F1F1" height="37.6094" rx="12.5" ry="12.5" style="stroke:#181818;stroke-width:1.5;" width="76" x="363.8896" y="260.2422"/><text fill="#000000" font-family="sans-serif" font-size="14" lengthAdjust="spacing" textLength="56" x="373.8896" y="284.7754">&#21512;&#24847;&#19968;&#33268;</text><path d="M313.8896,250.2422 L323.8896,250.2422 C338.8896,250.2422 338.8896,279.0469 353.8896,279.0469 L363.8896,279.0469 " fill="none" style="stroke:#181818;stroke-width:1;"/><path d="M201.8896,250.2422 L211.8896,250.2422 C226.8896,250.2422 226.8896,250.2422 241.8896,250.2422 L251.8896,250.2422 " fill="none" style="stroke:#181818;stroke-width:1;"/><path d="M86,264.6445 L96,264.6445 C111,264.6445 111,250.2422 126,250.2422 L136,250.2422 " fill="none" style="stroke:#181818;stroke-width:1;"/><rect fill="#90EE90" height="37.6094" rx="12.5" ry="12.5" style="stroke:#181818;stroke-width:1.5;" width="51.8896" x="136" y="317.8516"/><text fill="#000000" font-family="sans-serif" font-size="14" lengthAdjust="spacing" textLength="28" x="146" y="342.3848">&#31038;&#20250;</text><rect fill="#F1F1F1" height="37.6094" rx="12.5" ry="12.5" style="stroke:#181818;stroke-width:1.5;" width="160" x="237.8896" y="317.8516"/><text fill="#000000" font-family="sans-serif" font-size="14" lengthAdjust="spacing" textLength="140" x="247.8896" y="342.3848">&#20844;&#24207;&#33391;&#20439;&#65288;&#21512;&#21516;&#20869;&#23481;&#65289;</text><path d="M187.8896,336.6563 L197.8896,336.6563 C212.8896,336.6563 212.8896,336.6563 227.8896,336.6563 L237.8896,336.6563 " fill="none" style="stroke:#181818;stroke-width:1;"/><path d="M86,264.6445 L96,264.6445 C111,264.6445 111,336.6563 126,336.6563 L136,336.6563 " fill="none" style="stroke:#181818;stroke-width:1;"/><rect fill="#90EE90" height="37.6094" rx="12.5" ry="12.5" style="stroke:#181818;stroke-width:1.5;" width="51.8896" x="136" y="404.2656"/><text fill="#000000" font-family="sans-serif" font-size="14" lengthAdjust="spacing" textLength="28" x="146" y="428.7988">&#22269;&#23478;</text><rect fill="#F1F1F1" height="37.6094" rx="12.5" ry="12.5" style="stroke:#181818;stroke-width:1.5;" width="160" x="237.8896" y="375.4609"/><text fill="#000000" font-family="sans-serif" font-size="14" lengthAdjust="spacing" textLength="140" x="247.8896" y="399.9941">&#27861;&#24459;&#27861;&#35268;&#65288;&#21512;&#21516;&#20869;&#23481;&#65289;</text><path d="M187.8896,423.0703 L197.8896,423.0703 C212.8896,423.0703 212.8896,394.2656 227.8896,394.2656 L237.8896,394.2656 " fill="none" style="stroke:#181818;stroke-width:1;"/><rect fill="#F1F1F1" height="37.6094" rx="12.5" ry="12.5" style="stroke:#181818;stroke-width:1.5;" width="174" x="237.8896" y="433.0703"/><text fill="#000000" font-family="sans-serif" font-size="14" lengthAdjust="spacing" textLength="154" x="247.8896" y="457.6035">&#31243;&#24207;&#65306;&#24517;&#35201;&#30340;&#25209;&#20934;&#21644;&#30331;&#35760;</text><path d="M187.8896,423.0703 L197.8896,423.0703 C212.8896,423.0703 212.8896,451.875 227.8896,451.875 L237.8896,451.875 " fill="none" style="stroke:#181818;stroke-width:1;"/><path d="M86,264.6445 L96,264.6445 C111,264.6445 111,423.0703 126,423.0703 L136,423.0703 " fill="none" style="stroke:#181818;stroke-width:1;"/><!--SRC=[xLTTQzjM6BxNhpXZDyc6dO-PK4m8gTs4hSIXp6xlZwLJ-JJIEUReoCKjWsqaRKC2QJV6MC8krcNP62FjM1c9vpH_HdAyg_o5lKSVYUmXIxqTCqPOx_kSv_r-9Iyx4WjfKsROkArfxr6cMwv1KB4u0rz7TYqoqxOmawvj5HIi0BX282zIa6cQfD8YQF3wXTVR6VpnZVzsP_Z3hdVIA_ZFd_dFTml-mO5tygl_-vT_V_zIqpv08_S8FY0Aa9VzP_vFBovwHvVzRRIuIEns2plKMLeAK17oxANVtxiIHCAz7_t3DsD2x_GeDX2XdcpvnwUnnRElmLslrqipv9qSWfS06ACT7dq17duus3uVlXhNGHY3pJtlvFFXqpUHdOl3jrv_FpMQhT_ytjvm-vLt_gsAFaX3w2Va87RruCm__ZED8imuN8S_RwPGH9xyiWEsBllx_lcM2c9_Sx1zwZzzud-rU_7TNyFZrvgsJA0BuavO7csCnQ3aIreak4MnAR2D7eE5OjDoIV0BeGhMDqp1NMPKkSK5igZPaaeFsiyKri1YGn0Z1HvfOx0f266Jc0D00jtD07TZB1UOcMbEXyeOsdP5sqg3XieOcXvO8YZ1dJIszrTNAvLgDKPsYMNnXodOK1b0jQADAMkqY1qJht8cw_GHGH_DQaeVjqvsBfFesHIuiz4DIfh4pa_EPH9Q0P7UWfRCvGmr6HSaHrqHMgECZCklANAQdKYbo1ZZEc4oBJSiA4fOWb3Kj00pnWh34_gc2tfLjMkrv3QMF7IUIR16ESDMzLsnTmHfOu6Lv5sEtMno8RFQBY-Nb51tcJLfETcgt8Pnasdj49rCerFbOyI4YW9fCfcJjbPM9Gr2sic163Mm0bkqQL6dbRxo4kT7hJriKJcUcnGpwrncMmgYqhkOvOXAnmQHLyQmhbCZlUT7Ld4MytqOHISntt2lanf-GDoCAUSMk22uaUZ0Z1cBJmHssjoXadR8JJqn3lzQvzWYUGEv3W5gWJEfRGfFKBNxy_HKz1XKv8xRV41qHP-M7To1vpOHENaxbCC41TGyYrdbFNUwhpVzwE1EdjMHNivyXcXmMPo9NaN-V_FyRxvvtb5_D-xMrb2724SDr5nnVdQ-LBmnLSSIhVCEcbj0itFbKgbSMa3LUWCfzRGsLVkaWHpkmZv11aoRe4rNjU2qTXjtCFhKXOQqIHcfkwb6RHhLLs8XMc4TAZYpeGcrs_Tg8GXzp6MzpMK0NYWLAbIYEX7W5hfNqswH-zYr91pLkK6PMKPt6wk56zeQDAkBJJ3qgALLeOkbw9PHTVqV]--></g></svg>