<svg xmlns="http://www.w3.org/2000/svg" xmlns:xlink="http://www.w3.org/1999/xlink" contentStyleType="text/css" height="1097px" preserveAspectRatio="none" style="width:661px;height:1097px;background:#FFFFFF;" version="1.1" viewBox="0 0 661 1097" width="661px" zoomAndPan="magnify"><title>&#27861;&#20154; - &#20998;&#31867;</title><defs/><g><text fill="#000000" font-family="sans-serif" font-size="14" font-weight="bold" lengthAdjust="spacing" textLength="70.1914" x="294.3491" y="34.5332">&#27861;&#20154; - &#20998;&#31867;</text><rect fill="#F1F1F1" height="37.6094" rx="12.5" ry="12.5" style="stroke:#181818;stroke-width:1.5;" width="48" x="10" y="548.2891"/><text fill="#000000" font-family="sans-serif" font-size="14" lengthAdjust="spacing" textLength="28" x="20" y="572.8223">&#27861;&#20154;</text><rect fill="#F1F1F1" height="37.6094" rx="12.5" ry="12.5" style="stroke:#181818;stroke-width:1.5;" width="76" x="108" y="404.2656"/><text fill="#000000" font-family="sans-serif" font-size="14" lengthAdjust="spacing" textLength="56" x="118" y="428.7988">&#27861;&#23450;&#20998;&#31867;</text><rect fill="#F1F1F1" height="37.6094" rx="12.5" ry="12.5" style="stroke:#181818;stroke-width:1.5;" width="76" x="234" y="116.2188"/><text fill="#000000" font-family="sans-serif" font-size="14" lengthAdjust="spacing" textLength="56" x="244" y="140.752">&#33829;&#21033;&#27861;&#20154;</text><rect fill="#90EE90" height="37.6094" rx="12.5" ry="12.5" style="stroke:#181818;stroke-width:1.5;" width="65.8896" x="360" y="87.4141"/><text fill="#000000" font-family="sans-serif" font-size="14" lengthAdjust="spacing" textLength="42" x="370" y="111.9473">&#20844;&#21496;&#21046;</text><rect fill="#F1F1F1" height="37.6094" rx="12.5" ry="12.5" style="stroke:#181818;stroke-width:1.5;" width="104" x="475.8896" y="58.6094"/><text fill="#000000" font-family="sans-serif" font-size="14" lengthAdjust="spacing" textLength="84" x="485.8896" y="83.1426">&#26377;&#38480;&#36131;&#20219;&#20844;&#21496;</text><path d="M425.8896,106.2188 L435.8896,106.2188 C450.8896,106.2188 450.8896,77.4141 465.8896,77.4141 L475.8896,77.4141 " fill="none" style="stroke:#181818;stroke-width:1;"/><rect fill="#F1F1F1" height="37.6094" rx="12.5" ry="12.5" style="stroke:#181818;stroke-width:1.5;" width="104" x="475.8896" y="116.2188"/><text fill="#000000" font-family="sans-serif" font-size="14" lengthAdjust="spacing" textLength="84" x="485.8896" y="140.752">&#32929;&#20221;&#26377;&#38480;&#20844;&#21496;</text><path d="M425.8896,106.2188 L435.8896,106.2188 C450.8896,106.2188 450.8896,135.0234 465.8896,135.0234 L475.8896,135.0234 " fill="none" style="stroke:#181818;stroke-width:1;"/><path d="M310,135.0234 L320,135.0234 C335,135.0234 335,106.2188 350,106.2188 L360,106.2188 " fill="none" style="stroke:#181818;stroke-width:1;"/><rect fill="#F1F1F1" height="37.6094" rx="12.5" ry="12.5" style="stroke:#181818;stroke-width:1.5;" width="76" x="360" y="173.8281"/><text fill="#000000" font-family="sans-serif" font-size="14" lengthAdjust="spacing" textLength="56" x="370" y="198.3613">&#38750;&#20844;&#21496;&#21046;</text><rect fill="#F1F1F1" height="37.6094" rx="12.5" ry="12.5" style="stroke:#181818;stroke-width:1.5;" width="104" x="486" y="173.8281"/><text fill="#000000" font-family="sans-serif" font-size="14" lengthAdjust="spacing" textLength="84" x="496" y="198.3613">&#20854;&#20182;&#20225;&#19994;&#27861;&#20154;</text><path d="M436,192.6328 L446,192.6328 C461,192.6328 461,192.6328 476,192.6328 L486,192.6328 " fill="none" style="stroke:#181818;stroke-width:1;"/><path d="M310,135.0234 L320,135.0234 C335,135.0234 335,192.6328 350,192.6328 L360,192.6328 " fill="none" style="stroke:#181818;stroke-width:1;"/><path d="M184,423.0703 L194,423.0703 C209,423.0703 209,135.0234 224,135.0234 L234,135.0234 " fill="none" style="stroke:#181818;stroke-width:1;"/><rect fill="#F1F1F1" height="37.6094" rx="12.5" ry="12.5" style="stroke:#181818;stroke-width:1.5;" width="90" x="234" y="346.6563"/><text fill="#000000" font-family="sans-serif" font-size="14" lengthAdjust="spacing" textLength="70" x="244" y="371.1895">&#38750;&#33829;&#21033;&#27861;&#20154;</text><rect fill="#90EE90" height="37.6094" rx="12.5" ry="12.5" style="stroke:#181818;stroke-width:1.5;" width="107.8896" x="374" y="231.4375"/><text fill="#000000" font-family="sans-serif" font-size="14" lengthAdjust="spacing" textLength="84" x="384" y="255.9707">&#20107;&#19994;&#21333;&#20301;&#27861;&#20154;</text><path d="M324,365.4609 L334,365.4609 C349,365.4609 349,250.2422 364,250.2422 L374,250.2422 " fill="none" style="stroke:#181818;stroke-width:1;"/><rect fill="#F1F1F1" height="37.6094" rx="12.5" ry="12.5" style="stroke:#181818;stroke-width:1.5;" width="104" x="374" y="289.0469"/><text fill="#000000" font-family="sans-serif" font-size="14" lengthAdjust="spacing" textLength="84" x="384" y="313.5801">&#31038;&#20250;&#22242;&#20307;&#27861;&#20154;</text><path d="M324,365.4609 L334,365.4609 C349,365.4609 349,307.8516 364,307.8516 L374,307.8516 " fill="none" style="stroke:#181818;stroke-width:1;"/><rect fill="#90EE90" height="37.6094" rx="12.5" ry="12.5" style="stroke:#181818;stroke-width:1.5;" width="79.8896" x="374" y="404.2656"/><text fill="#000000" font-family="sans-serif" font-size="14" lengthAdjust="spacing" textLength="56" x="384" y="428.7988">&#25424;&#21161;&#27861;&#20154;</text><rect fill="#90EE90" height="37.6094" rx="12.5" ry="12.5" style="stroke:#181818;stroke-width:1.5;" width="93.8896" x="503.8896" y="346.6563"/><text fill="#000000" font-family="sans-serif" font-size="14" lengthAdjust="spacing" textLength="70" x="513.8896" y="371.1895">&#22522;&#37329;&#20250;&#27861;&#20154;</text><path d="M453.8896,423.0703 L463.8896,423.0703 C478.8896,423.0703 478.8896,365.4609 493.8896,365.4609 L503.8896,365.4609 " fill="none" style="stroke:#181818;stroke-width:1;"/><rect fill="#F1F1F1" height="37.6094" rx="12.5" ry="12.5" style="stroke:#181818;stroke-width:1.5;" width="104" x="503.8896" y="404.2656"/><text fill="#000000" font-family="sans-serif" font-size="14" lengthAdjust="spacing" textLength="84" x="513.8896" y="428.7988">&#23447;&#25945;&#27963;&#21160;&#22330;&#25152;</text><path d="M453.8896,423.0703 L463.8896,423.0703 C478.8896,423.0703 478.8896,423.0703 493.8896,423.0703 L503.8896,423.0703 " fill="none" style="stroke:#181818;stroke-width:1;"/><rect fill="#F1F1F1" height="37.6094" rx="12.5" ry="12.5" style="stroke:#181818;stroke-width:1.5;" width="104" x="503.8896" y="461.875"/><text fill="#000000" font-family="sans-serif" font-size="14" lengthAdjust="spacing" textLength="84" x="513.8896" y="486.4082">&#31038;&#20250;&#26381;&#21153;&#26426;&#26500;</text><path d="M453.8896,423.0703 L463.8896,423.0703 C478.8896,423.0703 478.8896,480.6797 493.8896,480.6797 L503.8896,480.6797 " fill="none" style="stroke:#181818;stroke-width:1;"/><path d="M324,365.4609 L334,365.4609 C349,365.4609 349,423.0703 364,423.0703 L374,423.0703 " fill="none" style="stroke:#181818;stroke-width:1;"/><path d="M184,423.0703 L194,423.0703 C209,423.0703 209,365.4609 224,365.4609 L234,365.4609 " fill="none" style="stroke:#181818;stroke-width:1;"/><rect fill="#F1F1F1" height="37.6094" rx="12.5" ry="12.5" style="stroke:#181818;stroke-width:1.5;" width="76" x="234" y="634.7031"/><text fill="#000000" font-family="sans-serif" font-size="14" lengthAdjust="spacing" textLength="56" x="244" y="659.2363">&#29305;&#21035;&#27861;&#20154;</text><rect fill="#90EE90" height="37.6094" rx="12.5" ry="12.5" style="stroke:#181818;stroke-width:1.5;" width="79.8896" x="360" y="519.4844"/><text fill="#000000" font-family="sans-serif" font-size="14" lengthAdjust="spacing" textLength="56" x="370" y="544.0176">&#26426;&#20851;&#27861;&#20154;</text><path d="M310,653.5078 L320,653.5078 C335,653.5078 335,538.2891 350,538.2891 L360,538.2891 " fill="none" style="stroke:#181818;stroke-width:1;"/><rect fill="#F1F1F1" height="37.6094" rx="12.5" ry="12.5" style="stroke:#181818;stroke-width:1.5;" width="160" x="360" y="577.0938"/><text fill="#000000" font-family="sans-serif" font-size="14" lengthAdjust="spacing" textLength="140" x="370" y="601.627">&#20892;&#26449;&#38598;&#20307;&#32463;&#27982;&#32452;&#32455;&#27861;&#20154;</text><path d="M310,653.5078 L320,653.5078 C335,653.5078 335,595.8984 350,595.8984 L360,595.8984 " fill="none" style="stroke:#181818;stroke-width:1;"/><rect fill="#F1F1F1" height="37.6094" rx="12.5" ry="12.5" style="stroke:#181818;stroke-width:1.5;" width="188" x="360" y="634.7031"/><text fill="#000000" font-family="sans-serif" font-size="14" lengthAdjust="spacing" textLength="168" x="370" y="659.2363">&#22478;&#38215;&#20892;&#26449;&#21512;&#20316;&#32463;&#27982;&#32452;&#32455;&#27861;&#20154;</text><path d="M310,653.5078 L320,653.5078 C335,653.5078 335,653.5078 350,653.5078 L360,653.5078 " fill="none" style="stroke:#181818;stroke-width:1;"/><rect fill="#90EE90" height="37.6094" rx="12.5" ry="12.5" style="stroke:#181818;stroke-width:1.5;" width="177.8896" x="360" y="721.1172"/><text fill="#000000" font-family="sans-serif" font-size="14" lengthAdjust="spacing" textLength="154" x="370" y="745.6504">&#22522;&#23618;&#32676;&#20247;&#24615;&#33258;&#27835;&#32452;&#32455;&#27861;&#20154;</text><rect fill="#F1F1F1" height="37.6094" rx="12.5" ry="12.5" style="stroke:#181818;stroke-width:1.5;" width="62" x="587.8896" y="692.3125"/><text fill="#000000" font-family="sans-serif" font-size="14" lengthAdjust="spacing" textLength="42" x="597.8896" y="716.8457">&#23621;&#22996;&#20250;</text><path d="M537.8896,739.9219 L547.8896,739.9219 C562.8896,739.9219 562.8896,711.1172 577.8896,711.1172 L587.8896,711.1172 " fill="none" style="stroke:#181818;stroke-width:1;"/><rect fill="#F1F1F1" height="37.6094" rx="12.5" ry="12.5" style="stroke:#181818;stroke-width:1.5;" width="62" x="587.8896" y="749.9219"/><text fill="#000000" font-family="sans-serif" font-size="14" lengthAdjust="spacing" textLength="42" x="597.8896" y="774.4551">&#26449;&#22996;&#20250;</text><path d="M537.8896,739.9219 L547.8896,739.9219 C562.8896,739.9219 562.8896,768.7266 577.8896,768.7266 L587.8896,768.7266 " fill="none" style="stroke:#181818;stroke-width:1;"/><path d="M310,653.5078 L320,653.5078 C335,653.5078 335,739.9219 350,739.9219 L360,739.9219 " fill="none" style="stroke:#181818;stroke-width:1;"/><path d="M184,423.0703 L194,423.0703 C209,423.0703 209,653.5078 224,653.5078 L234,653.5078 " fill="none" style="stroke:#181818;stroke-width:1;"/><path d="M58,567.0938 L68,567.0938 C83,567.0938 83,423.0703 98,423.0703 L108,423.0703 " fill="none" style="stroke:#181818;stroke-width:1;"/><rect fill="#F1F1F1" height="37.6094" rx="12.5" ry="12.5" style="stroke:#181818;stroke-width:1.5;" width="76" x="108" y="922.75"/><text fill="#000000" font-family="sans-serif" font-size="14" lengthAdjust="spacing" textLength="56" x="118" y="947.2832">&#23398;&#29702;&#20998;&#31867;</text><rect fill="#90EE90" height="37.6094" rx="12.5" ry="12.5" style="stroke:#181818;stroke-width:1.5;" width="65.8896" x="234" y="865.1406"/><text fill="#000000" font-family="sans-serif" font-size="14" lengthAdjust="spacing" textLength="42" x="244" y="889.6738">&#31169;&#27861;&#20154;</text><rect fill="#F1F1F1" height="37.6094" rx="12.5" ry="12.5" style="stroke:#181818;stroke-width:1.5;" width="76" x="349.8896" y="836.3359"/><text fill="#000000" font-family="sans-serif" font-size="14" lengthAdjust="spacing" textLength="56" x="359.8896" y="860.8691">&#31038;&#22242;&#27861;&#20154;</text><rect fill="#F1F1F1" height="37.6094" rx="12.5" ry="12.5" style="stroke:#181818;stroke-width:1.5;" width="118" x="475.8896" y="807.5313"/><text fill="#000000" font-family="sans-serif" font-size="14" lengthAdjust="spacing" textLength="98" x="485.8896" y="832.0645">&#33829;&#21033;&#30340;&#31038;&#22242;&#27861;&#20154;</text><path d="M425.8896,855.1406 L435.8896,855.1406 C450.8896,855.1406 450.8896,826.3359 465.8896,826.3359 L475.8896,826.3359 " fill="none" style="stroke:#181818;stroke-width:1;"/><rect fill="#F1F1F1" height="37.6094" rx="12.5" ry="12.5" style="stroke:#181818;stroke-width:1.5;" width="132" x="475.8896" y="865.1406"/><text fill="#000000" font-family="sans-serif" font-size="14" lengthAdjust="spacing" textLength="112" x="485.8896" y="889.6738">&#38750;&#33829;&#21033;&#30340;&#31038;&#22242;&#27861;&#20154;</text><path d="M425.8896,855.1406 L435.8896,855.1406 C450.8896,855.1406 450.8896,883.9453 465.8896,883.9453 L475.8896,883.9453 " fill="none" style="stroke:#181818;stroke-width:1;"/><path d="M299.8896,883.9453 L309.8896,883.9453 C324.8896,883.9453 324.8896,855.1406 339.8896,855.1406 L349.8896,855.1406 " fill="none" style="stroke:#181818;stroke-width:1;"/><rect fill="#F1F1F1" height="37.6094" rx="12.5" ry="12.5" style="stroke:#181818;stroke-width:1.5;" width="76" x="349.8896" y="922.75"/><text fill="#000000" font-family="sans-serif" font-size="14" lengthAdjust="spacing" textLength="56" x="359.8896" y="947.2832">&#36130;&#22242;&#27861;&#20154;</text><rect fill="#F1F1F1" height="37.6094" rx="12.5" ry="12.5" style="stroke:#181818;stroke-width:1.5;" width="76" x="475.8896" y="922.75"/><text fill="#000000" font-family="sans-serif" font-size="14" lengthAdjust="spacing" textLength="56" x="485.8896" y="947.2832">&#20844;&#30410;&#27861;&#20154;</text><path d="M425.8896,941.5547 L435.8896,941.5547 C450.8896,941.5547 450.8896,941.5547 465.8896,941.5547 L475.8896,941.5547 " fill="none" style="stroke:#181818;stroke-width:1;"/><path d="M299.8896,883.9453 L309.8896,883.9453 C324.8896,883.9453 324.8896,941.5547 339.8896,941.5547 L349.8896,941.5547 " fill="none" style="stroke:#181818;stroke-width:1;"/><path d="M184,941.5547 L194,941.5547 C209,941.5547 209,883.9453 224,883.9453 L234,883.9453 " fill="none" style="stroke:#181818;stroke-width:1;"/><rect fill="#F1F1F1" height="37.6094" rx="12.5" ry="12.5" style="stroke:#181818;stroke-width:1.5;" width="62" x="234" y="1009.1641"/><text fill="#000000" font-family="sans-serif" font-size="14" lengthAdjust="spacing" textLength="42" x="244" y="1033.6973">&#20844;&#27861;&#20154;</text><rect fill="#F1F1F1" height="37.6094" rx="12.5" ry="12.5" style="stroke:#181818;stroke-width:1.5;" width="76" x="346" y="980.3594"/><text fill="#000000" font-family="sans-serif" font-size="14" lengthAdjust="spacing" textLength="56" x="356" y="1004.8926">&#25919;&#24220;&#27861;&#20154;</text><path d="M296,1027.9688 L306,1027.9688 C321,1027.9688 321,999.1641 336,999.1641 L346,999.1641 " fill="none" style="stroke:#181818;stroke-width:1;"/><rect fill="#F1F1F1" height="37.6094" rx="12.5" ry="12.5" style="stroke:#181818;stroke-width:1.5;" width="76" x="346" y="1037.9688"/><text fill="#000000" font-family="sans-serif" font-size="14" lengthAdjust="spacing" textLength="56" x="356" y="1062.502">&#29305;&#27530;&#27861;&#20154;</text><path d="M296,1027.9688 L306,1027.9688 C321,1027.9688 321,1056.7734 336,1056.7734 L346,1056.7734 " fill="none" style="stroke:#181818;stroke-width:1;"/><path d="M184,941.5547 L194,941.5547 C209,941.5547 209,1027.9688 224,1027.9688 L234,1027.9688 " fill="none" style="stroke:#181818;stroke-width:1;"/><path d="M58,567.0938 L68,567.0938 C83,567.0938 83,941.5547 98,941.5547 L108,941.5547 " fill="none" style="stroke:#181818;stroke-width:1;"/><!--SRC=[xLZhJzjM5F_kl-9E_G982OyXL264A2begqXLBRJVR-pRv1RRDxAlKsNJfBRYFT5IjQmgfAtQTMFT0ucLLLq2tJ_Z1_mNEtuH1-pObVQH2A7udD_vdNFFwsAcT8urhb1LKd1D4BwWgYWR4a7v_23ywBmXay6QZ5LkA7BEXUK0b_FaUGeoGU2KomJPxxVCLWlbaBMwxEot1M4W40a8Fjw3jRSTA57m6K37cpzRg-yYo8xAMlh3UlJHMls09YQ8KgjYdUgJarsWWBgvTl9yy_ZW9xFTzerYGCSFNflj8nyQ0nf09ozUddgCiRUMFfZj7yt3- -R7xJFXUhOz3cAsVW0ZQsFBFDe8qfHueW7alFra7cvREs_CeoUnTFR6fhN-BeqeYFfLwsJbCV1bXEyzixUUsmTjQ_rNgzcor-x5WFm0xUQ6jVxQ1j3BnKWcdBL_hDNVu-Dkjgobz-a9i9QRzel79plBa02d_SZ- -w7JNdJQA_5DykhXoTQARs9jhff7pGmcBMl_WVFfhNdupBwtUxpoc_rNEufFpTB-ahNx578GruiGHaS7s3z_SJQNpxMziti_KoT06yIS8JewplPY2kwqENj1WUxWJIyMc0rdP_rSvuCuljXF_xLQpLWLj8Yz5p89KmGsJxXzfhgNqOItPYQ5G72Lueg65VGT4ERBia6yRmXDOt6XeZ53bGfCPXgIQQNANJreltUn4jOMD28bm0Dj2AveXAYzc3r01Dr80JT2BDEmMaaAsbU6q9gXrUGagAyCeSa7YnnAOteIswNPsUdfGY54DeWiixi9M5_fGOMyWgawNoLAI3pBL5wYtnBqvP3WwiE-Jizb53sK0DSN6bv9ezYHthcCGgT195QX-p85GoigqqY6kY8qHrLoLjwXoEYs9vLBfgfC92fFoetg5SKlWIygou0vmmh3uyScQlIqQXqrPmhcp0zUvU2DCXNBXS_5tj183MlObNoEsPKoqtXQssNbuXpgpjCcBIDRWIamRZof7GBB93gtV2gfG4M1D9hCNbihhP8I8RNeG7Gxc84jMfQfNarUUH7xRcztgvIVpKs2c-kCftloJYKsi9hXL2AM23zrXaMHIiaztxMAqvXlmoZgaVc6Pv4KyHrYf4mvao44ZKcH3aoPiT32yrDZEkMqJgw8aN4ujywnJB8Uf7C4g0LEfLOetA3kxi_IKy4rw9BhHlaE4LtwfEpWEjpRHCl8MwSC9iYZPcdCRjupfxkpwRi7j_UiTlLowXqYmA-9mU1FaOktdOktdOktdOktdV_ZRUU6-s-LcyKvL2UQxYxnuVp8qCXe_d9V2NDqdTNHy1WQ6XuV7HqV7KE5qZnorVr2N_7hUQGp0-um9C66rsZPSDTUlt0Drp7wne0bg91nv3xrpHVxKMac5A8PjKurfYgm-8Hhjue-27t5UAd6k0SU6yrDKuvAH8EmqAsYS9NSneRCmLHa4bKhu-Zc_6pkiZ072zB05N04Lr81DYVN6g0h_GS0]--></g></svg>