<svg xmlns="http://www.w3.org/2000/svg" xmlns:xlink="http://www.w3.org/1999/xlink" contentStyleType="text/css" height="463px" preserveAspectRatio="none" style="width:742px;height:463px;background:#FFFFFF;" version="1.1" viewBox="0 0 742 463" width="742px" zoomAndPan="magnify"><title>&#29289;&#26435;&#32534; - &#25285;&#20445;&#29289;&#26435; - &#30041;&#32622;&#26435;</title><defs/><g><text fill="#000000" font-family="sans-serif" font-size="14" font-weight="bold" lengthAdjust="spacing" textLength="169.2578" x="284.8711" y="34.5332">&#29289;&#26435;&#32534; - &#25285;&#20445;&#29289;&#26435; - &#30041;&#32622;&#26435;</text><rect fill="#F1F1F1" height="37.6094" rx="12.5" ry="12.5" style="stroke:#181818;stroke-width:1.5;" width="62" x="10" y="231.4375"/><text fill="#000000" font-family="sans-serif" font-size="14" lengthAdjust="spacing" textLength="42" x="20" y="255.9707">&#30041;&#32622;&#26435;</text><rect fill="#F1F1F1" height="37.6094" rx="12.5" ry="12.5" style="stroke:#181818;stroke-width:1.5;" width="48" x="122" y="58.6094"/><text fill="#000000" font-family="sans-serif" font-size="14" lengthAdjust="spacing" textLength="28" x="132" y="83.1426">&#23458;&#20307;</text><rect fill="#F1F1F1" height="37.6094" rx="12.5" ry="12.5" style="stroke:#181818;stroke-width:1.5;" width="90" x="220" y="58.6094"/><text fill="#000000" font-family="sans-serif" font-size="14" lengthAdjust="spacing" textLength="70" x="230" y="83.1426">&#21482;&#33021;&#26159;&#21160;&#20135;</text><path d="M170,77.4141 L180,77.4141 C195,77.4141 195,77.4141 210,77.4141 L220,77.4141 " fill="none" style="stroke:#181818;stroke-width:1;"/><path d="M72,250.2422 L82,250.2422 C97,250.2422 97,77.4141 112,77.4141 L122,77.4141 " fill="none" style="stroke:#181818;stroke-width:1;"/><rect fill="#F1F1F1" height="37.6094" rx="12.5" ry="12.5" style="stroke:#181818;stroke-width:1.5;" width="48" x="122" y="260.2422"/><text fill="#000000" font-family="sans-serif" font-size="14" lengthAdjust="spacing" textLength="28" x="132" y="284.7754">&#26435;&#21033;</text><rect fill="#F1F1F1" height="37.6094" rx="12.5" ry="12.5" style="stroke:#181818;stroke-width:1.5;" width="90" x="220" y="231.4375"/><text fill="#000000" font-family="sans-serif" font-size="14" lengthAdjust="spacing" textLength="70" x="230" y="255.9707">&#27665;&#20107;&#30041;&#32622;&#26435;</text><rect fill="#F1F1F1" height="37.6094" rx="12.5" ry="12.5" style="stroke:#181818;stroke-width:1.5;" width="48" x="360" y="116.2188"/><text fill="#000000" font-family="sans-serif" font-size="14" lengthAdjust="spacing" textLength="28" x="370" y="140.752">&#35760;&#24518;</text><rect fill="#F1F1F1" height="37.6094" rx="12.5" ry="12.5" style="stroke:#181818;stroke-width:1.5;" width="91.5723" x="458" y="116.2188"/><text fill="#000000" font-family="sans-serif" font-size="14" lengthAdjust="spacing" textLength="71.5723" x="468" y="140.752">4&#35201;&#20214;5&#24773;&#24418;</text><path d="M408,135.0234 L418,135.0234 C433,135.0234 433,135.0234 448,135.0234 L458,135.0234 " fill="none" style="stroke:#181818;stroke-width:1;"/><path d="M310,250.2422 L320,250.2422 C335,250.2422 335,135.0234 350,135.0234 L360,135.0234 " fill="none" style="stroke:#181818;stroke-width:1;"/><rect fill="#F1F1F1" height="37.6094" rx="12.5" ry="12.5" style="stroke:#181818;stroke-width:1.5;" width="76" x="360" y="260.2422"/><text fill="#000000" font-family="sans-serif" font-size="14" lengthAdjust="spacing" textLength="56" x="370" y="284.7754">&#25104;&#31435;&#35201;&#20214;</text><rect fill="#F1F1F1" height="37.6094" rx="12.5" ry="12.5" style="stroke:#181818;stroke-width:1.5;" width="118" x="486" y="173.8281"/><text fill="#000000" font-family="sans-serif" font-size="14" lengthAdjust="spacing" textLength="98" x="496" y="198.3613">&#12302;&#20538;&#26435;&#12303;&#24050;&#21040;&#26399;</text><path d="M436,279.0469 L446,279.0469 C461,279.0469 461,192.6328 476,192.6328 L486,192.6328 " fill="none" style="stroke:#181818;stroke-width:1;"/><rect fill="#F1F1F1" height="37.6094" rx="12.5" ry="12.5" style="stroke:#181818;stroke-width:1.5;" width="244" x="486" y="231.4375"/><text fill="#000000" font-family="sans-serif" font-size="14" lengthAdjust="spacing" textLength="224" x="496" y="255.9707">&#21512;&#27861;&#21344;&#26377;&#20538;&#21153;&#20154;&#25110;&#31532;&#19977;&#20154;&#30340;&#12302;&#21160;&#20135;&#12303;</text><path d="M436,279.0469 L446,279.0469 C461,279.0469 461,250.2422 476,250.2422 L486,250.2422 " fill="none" style="stroke:#181818;stroke-width:1;"/><rect fill="#F1F1F1" height="37.6094" rx="12.5" ry="12.5" style="stroke:#181818;stroke-width:1.5;" width="104" x="486" y="289.0469"/><text fill="#000000" font-family="sans-serif" font-size="14" lengthAdjust="spacing" textLength="84" x="496" y="313.5801">&#21516;&#19968;&#27861;&#24459;&#20851;&#31995;</text><path d="M436,279.0469 L446,279.0469 C461,279.0469 461,307.8516 476,307.8516 L486,307.8516 " fill="none" style="stroke:#181818;stroke-width:1;"/><rect fill="#F1F1F1" height="37.6094" rx="12.5" ry="12.5" style="stroke:#181818;stroke-width:1.5;" width="216" x="486" y="346.6563"/><text fill="#000000" font-family="sans-serif" font-size="14" lengthAdjust="spacing" textLength="196" x="496" y="371.1895">&#19977;&#19981;&#65292;&#19981;&#36829;&#27861;&#12289;&#19981;&#36829;&#32422;&#12289;&#19981;&#34987;&#35785;</text><path d="M436,279.0469 L446,279.0469 C461,279.0469 461,365.4609 476,365.4609 L486,365.4609 " fill="none" style="stroke:#181818;stroke-width:1;"/><path d="M310,250.2422 L320,250.2422 C335,250.2422 335,279.0469 350,279.0469 L360,279.0469 " fill="none" style="stroke:#181818;stroke-width:1;"/><path d="M170,279.0469 L180,279.0469 C195,279.0469 195,250.2422 210,250.2422 L220,250.2422 " fill="none" style="stroke:#181818;stroke-width:1;"/><rect fill="#F1F1F1" height="37.6094" rx="12.5" ry="12.5" style="stroke:#181818;stroke-width:1.5;" width="90" x="220" y="404.2656"/><text fill="#000000" font-family="sans-serif" font-size="14" lengthAdjust="spacing" textLength="70" x="230" y="428.7988">&#21830;&#20107;&#30041;&#32622;&#26435;</text><rect fill="#F1F1F1" height="37.6094" rx="12.5" ry="12.5" style="stroke:#181818;stroke-width:1.5;" width="76" x="360" y="404.2656"/><text fill="#000000" font-family="sans-serif" font-size="14" lengthAdjust="spacing" textLength="56" x="370" y="428.7988">&#25104;&#31435;&#35201;&#20214;</text><path d="M310,423.0703 L320,423.0703 C335,423.0703 335,423.0703 350,423.0703 L360,423.0703 " fill="none" style="stroke:#181818;stroke-width:1;"/><path d="M170,279.0469 L180,279.0469 C195,279.0469 195,423.0703 210,423.0703 L220,423.0703 " fill="none" style="stroke:#181818;stroke-width:1;"/><path d="M72,250.2422 L82,250.2422 C97,250.2422 97,279.0469 112,279.0469 L122,279.0469 " fill="none" style="stroke:#181818;stroke-width:1;"/><!--SRC=[xLVTRXD75BxVfvYgDmcIdP-w4OeG2ZQ9MXGZL1lknxl3UiZkZ3KxQ-HMbOpI88SqXQeAQX4HD1Uq51IYHceZGvg7YNVNTts5djcryJhDUfVhrhAicNE-yvsPyxVh9KTY8MtA31itDEqZodJBDGZAvsUYhoDR5fbfM9X9rxPo2fa3Q2wKvod8D4rIQH4KRBxqTzU3TuzH3lbR6xsJtKW2ss3df-1u7zQQTY6sGV2vWBpzlTxn3-5c87ZuMt_zsF_nZVVWrrxtbm4C3BpEonZCF_Y-rzqQPnjf-_i7tidzCM6aAFHVtEkz_UDJVtt3EzuxO-Lt7WMljYB4ERQdxU-yTXUSdROVUd_-xdKE_AVFpi5vZph-uOwt_Tn_kWa6teEVUzskttaSl7xTEzg4TV3a6yKLtW-upgNujdVKLYn_RNaRXy7XstD0Ykne- -zt0Dtkd-m2-hHzBre7tHU3zTwh_flDU7Xtxa-8srW4j2K2XJ4iZgNnMhaKbi1bRI2uIh4fi8s-0i9ypN99k4AeYFKrKt2N6ILkSO4iQjQbqeFsQuKri5WJn4Y03xH3i2a8OPEOGq0CtKe1juPOBZ0pamuTAOVGXYiQLX8qKWwXoHUBNKfm9udjuvMLOh5K6Y9RnBButGHif0oXMjx6b5Nhn1uIht0cA_HBWZwPrPIUs8qwTgYJ7iiuUZO1xgormfJ6iVEJOnc75a6arw7wCXs6cemBaY6l2ArIHixAHnGPtKwaKcICSPqmcHGR5YObIa4agbc0ESCApHETJHVqVTP6QibjB7bqU2R16-KCMwKFnTuGf845Lf8FCRjIuqAcbLrMBYaXxpAjqpAobRWDxIQJoc5WcKIdqiU82Ha5qdWm9qsjj4mQX3JY3J7kO1ccQCsYJZrvvCNinxtThLDvDZO9RgvpcUufl9NUmYp3hNHi4FdU6TPrQYJN_DWeJcE-3QtenFeRzZefupl4JUboRi4H13TY5PZIOqEBq4-3ErJI9hcYnzhXN-CSMoJhHKPNW5pWL6gRmXDKpVuiDJLu32fonwtT8RgYJueERi9pcuYCl4tAeOD2Qfx6hEAUEToZIJ_Uk9DxTQoMKvyX6lnScXcyYlp_9lhVU1EzeVwEt2oleYOHZcgmkVpyx7mXVt6gWYMwpfjeRW7DpYqM2ek51LIgL95IJsjJvS-hoE4kp1TaGFS9MdDLIKvhrt0JeozSA52RB2ArcwgMfr5bUIX4own91MSs5ALsxLOv0g7FkAmqk0p12uLSaKfK8GAEXMwLjQlaDdOj2QOwDoWp5z7DwahkehOAnUjY4np1k2X1LKlH0btb7m00]--></g></svg>