<svg xmlns="http://www.w3.org/2000/svg" xmlns:xlink="http://www.w3.org/1999/xlink" contentStyleType="text/css" height="1338px" preserveAspectRatio="none" style="width:826px;height:1338px;background:#FFFFFF;" version="1.1" viewBox="0 0 826 1338" width="826px" zoomAndPan="magnify"><title>&#29289;&#26435;&#32534; - &#25285;&#20445;&#29289;&#26435; - &#30041;&#32622;&#26435;</title><defs/><g><text fill="#000000" font-family="sans-serif" font-size="14" font-weight="bold" lengthAdjust="spacing" textLength="169.2578" x="326.8711" y="34.5332">&#29289;&#26435;&#32534; - &#25285;&#20445;&#29289;&#26435; - &#30041;&#32622;&#26435;</text><rect fill="#F1F1F1" height="37.6094" rx="12.5" ry="12.5" style="stroke:#181818;stroke-width:1.5;" width="62" x="10" y="668.6484"/><text fill="#000000" font-family="sans-serif" font-size="14" lengthAdjust="spacing" textLength="42" x="20" y="693.1816">&#30041;&#32622;&#26435;</text><rect fill="#F1F1F1" height="37.6094" rx="12.5" ry="12.5" style="stroke:#181818;stroke-width:1.5;" width="48" x="122" y="121.3594"/><text fill="#000000" font-family="sans-serif" font-size="14" lengthAdjust="spacing" textLength="28" x="132" y="145.8926">&#23458;&#20307;</text><rect fill="#F1F1F1" height="37.6094" rx="12.5" ry="12.5" style="stroke:#181818;stroke-width:1.5;" width="90" x="220" y="58.6094"/><text fill="#000000" font-family="sans-serif" font-size="14" lengthAdjust="spacing" textLength="70" x="230" y="83.1426">&#21482;&#33021;&#26159;&#21160;&#20135;</text><path d="M170,140.1641 L180,140.1641 C195,140.1641 195,77.4141 210,77.4141 L220,77.4141 " fill="none" style="stroke:#181818;stroke-width:1;"/><rect fill="#F1F1F1" height="42.75" rx="12.5" ry="12.5" style="stroke:#181818;stroke-width:1.5;" width="86.8896" x="220" y="116.2188"/><text fill="#000000" font-family="sans-serif" font-size="14" lengthAdjust="spacing" textLength="42" x="230" y="145.8926">&#19981;&#21160;&#20135;</text><path d="M288.4506,136.7199 L295.5876,129.5834 C296.157,129.0141 296.157,128.0907 295.5876,127.5213 C295.0177,126.9514 294.0949,126.9514 293.5256,127.5213 L286.3885,134.6578 L279.252,127.5213 C278.6826,126.9514 277.7586,126.9514 277.1899,127.5213 C276.62,128.0907 276.62,129.0141 277.1899,129.5834 L284.3264,136.7199 L277.1736,143.8733 C276.6036,144.4433 276.6036,145.3661 277.1736,145.9354 C277.4582,146.2201 277.8316,146.3624 278.2049,146.3624 C278.5782,146.3624 278.9516,146.2201 279.2362,145.9354 L286.3891,138.782 L293.5256,145.9185 C293.8102,146.2032 294.1836,146.3455 294.5569,146.3455 C294.9302,146.3455 295.303,146.2032 295.5882,145.9185 C296.1576,145.3486 296.1576,144.4258 295.5882,143.8564 L288.4506,136.7199 " fill="#FE0000" style="stroke:;stroke-width:0;stroke-dasharray:;"/><path d="M170,140.1641 L180,140.1641 C195,140.1641 195,137.5938 210,137.5938 L220,137.5938 " fill="none" style="stroke:#181818;stroke-width:1;"/><rect fill="#F1F1F1" height="42.75" rx="12.5" ry="12.5" style="stroke:#181818;stroke-width:1.5;" width="72.8896" x="220" y="178.9688"/><text fill="#000000" font-family="sans-serif" font-size="14" lengthAdjust="spacing" textLength="28" x="230" y="208.6426">&#26435;&#21033;</text><path d="M274.4506,199.4699 L281.5876,192.3334 C282.157,191.7641 282.157,190.8407 281.5876,190.2713 C281.0177,189.7014 280.0949,189.7014 279.5256,190.2713 L272.3885,197.4078 L265.252,190.2713 C264.6826,189.7014 263.7586,189.7014 263.1899,190.2713 C262.62,190.8407 262.62,191.7641 263.1899,192.3334 L270.3264,199.4699 L263.1736,206.6233 C262.6036,207.1933 262.6036,208.1161 263.1736,208.6854 C263.4582,208.9701 263.8316,209.1124 264.2049,209.1124 C264.5782,209.1124 264.9516,208.9701 265.2362,208.6854 L272.3891,201.532 L279.5256,208.6685 C279.8102,208.9532 280.1836,209.0955 280.5569,209.0955 C280.9302,209.0955 281.303,208.9532 281.5882,208.6685 C282.1576,208.0986 282.1576,207.1758 281.5882,206.6064 L274.4506,199.4699 " fill="#FE0000" style="stroke:;stroke-width:0;stroke-dasharray:;"/><path d="M170,140.1641 L180,140.1641 C195,140.1641 195,200.3438 210,200.3438 L220,200.3438 " fill="none" style="stroke:#181818;stroke-width:1;"/><path d="M72,687.4531 L82,687.4531 C97,687.4531 97,140.1641 112,140.1641 L122,140.1641 " fill="none" style="stroke:#181818;stroke-width:1;"/><rect fill="#F1F1F1" height="37.6094" rx="12.5" ry="12.5" style="stroke:#181818;stroke-width:1.5;" width="48" x="122" y="443.3516"/><text fill="#000000" font-family="sans-serif" font-size="14" lengthAdjust="spacing" textLength="28" x="132" y="467.8848">&#25104;&#31435;</text><rect fill="#F1F1F1" height="37.6094" rx="12.5" ry="12.5" style="stroke:#181818;stroke-width:1.5;" width="90" x="220" y="414.5469"/><text fill="#000000" font-family="sans-serif" font-size="14" lengthAdjust="spacing" textLength="70" x="230" y="439.0801">&#27665;&#20107;&#30041;&#32622;&#26435;</text><rect fill="#F1F1F1" height="37.6094" rx="12.5" ry="12.5" style="stroke:#181818;stroke-width:1.5;" width="48" x="360" y="241.7188"/><text fill="#000000" font-family="sans-serif" font-size="14" lengthAdjust="spacing" textLength="28" x="370" y="266.252">&#35760;&#24518;</text><rect fill="#F1F1F1" height="37.6094" rx="12.5" ry="12.5" style="stroke:#181818;stroke-width:1.5;" width="91.5723" x="458" y="241.7188"/><text fill="#000000" font-family="sans-serif" font-size="14" lengthAdjust="spacing" textLength="71.5723" x="468" y="266.252">4&#35201;&#20214;5&#24773;&#24418;</text><path d="M408,260.5234 L418,260.5234 C433,260.5234 433,260.5234 448,260.5234 L458,260.5234 " fill="none" style="stroke:#181818;stroke-width:1;"/><path d="M310,433.3516 L320,433.3516 C335,433.3516 335,260.5234 350,260.5234 L360,260.5234 " fill="none" style="stroke:#181818;stroke-width:1;"/><rect fill="#F1F1F1" height="37.6094" rx="12.5" ry="12.5" style="stroke:#181818;stroke-width:1.5;" width="76" x="360" y="443.3516"/><text fill="#000000" font-family="sans-serif" font-size="14" lengthAdjust="spacing" textLength="56" x="370" y="467.8848">&#25104;&#31435;&#35201;&#20214;</text><rect fill="#F1F1F1" height="37.6094" rx="12.5" ry="12.5" style="stroke:#181818;stroke-width:1.5;" width="174" x="486" y="299.3281"/><text fill="#000000" font-family="sans-serif" font-size="14" lengthAdjust="spacing" textLength="154" x="496" y="323.8613">&#20538;&#26435;&#24050;&#21040;&#26399;&#65288;&#26102;&#38388;&#32500;&#24230;&#65289;</text><path d="M436,462.1563 L446,462.1563 C461,462.1563 461,318.1328 476,318.1328 L486,318.1328 " fill="none" style="stroke:#181818;stroke-width:1;"/><rect fill="#F1F1F1" height="37.6094" rx="12.5" ry="12.5" style="stroke:#181818;stroke-width:1.5;" width="328" x="486" y="356.9375"/><text fill="#000000" font-family="sans-serif" font-size="14" lengthAdjust="spacing" textLength="308" x="496" y="381.4707">&#21512;&#27861;&#21344;&#26377;&#20538;&#21153;&#20154;&#25110;&#31532;&#19977;&#20154;&#30340;&#12302;&#21160;&#20135;&#12303;&#65288;&#21160;&#20135;&#32500;&#24230;&#65289;</text><path d="M436,462.1563 L446,462.1563 C461,462.1563 461,375.7422 476,375.7422 L486,375.7422 " fill="none" style="stroke:#181818;stroke-width:1;"/><rect fill="#F1F1F1" height="37.6094" rx="12.5" ry="12.5" style="stroke:#181818;stroke-width:1.5;" width="188" x="486" y="414.5469"/><text fill="#000000" font-family="sans-serif" font-size="14" lengthAdjust="spacing" textLength="168" x="496" y="439.0801">&#21516;&#19968;&#27861;&#24459;&#20851;&#31995;&#65288;&#27861;&#24459;&#32500;&#24230;&#65289;</text><path d="M436,462.1563 L446,462.1563 C461,462.1563 461,433.3516 476,433.3516 L486,433.3516 " fill="none" style="stroke:#181818;stroke-width:1;"/><rect fill="#F1F1F1" height="37.6094" rx="12.5" ry="12.5" style="stroke:#181818;stroke-width:1.5;" width="132" x="486" y="529.7656"/><text fill="#000000" font-family="sans-serif" font-size="14" lengthAdjust="spacing" textLength="112" x="496" y="554.2988">&#19977;&#19981;&#65288;&#34892;&#20026;&#32500;&#24230;&#65289;</text><rect fill="#F1F1F1" height="37.6094" rx="12.5" ry="12.5" style="stroke:#181818;stroke-width:1.5;" width="118" x="668" y="472.1563"/><text fill="#000000" font-family="sans-serif" font-size="14" lengthAdjust="spacing" textLength="98" x="678" y="496.6895">&#19981;&#36829;&#27861;&#65288;&#27861;&#24459;&#65289;</text><path d="M618,548.5703 L628,548.5703 C643,548.5703 643,490.9609 658,490.9609 L668,490.9609 " fill="none" style="stroke:#181818;stroke-width:1;"/><rect fill="#F1F1F1" height="37.6094" rx="12.5" ry="12.5" style="stroke:#181818;stroke-width:1.5;" width="146" x="668" y="529.7656"/><text fill="#000000" font-family="sans-serif" font-size="14" lengthAdjust="spacing" textLength="126" x="678" y="554.2988">&#19981;&#32972;&#20439;&#65288;&#20844;&#24207;&#33391;&#20439;&#65289;</text><path d="M618,548.5703 L628,548.5703 C643,548.5703 643,548.5703 658,548.5703 L668,548.5703 " fill="none" style="stroke:#181818;stroke-width:1;"/><rect fill="#F1F1F1" height="37.6094" rx="12.5" ry="12.5" style="stroke:#181818;stroke-width:1.5;" width="132" x="668" y="587.375"/><text fill="#000000" font-family="sans-serif" font-size="14" lengthAdjust="spacing" textLength="112" x="678" y="611.9082">&#19981;&#36829;&#32422;&#65288;&#24403;&#20107;&#20154;&#65289;</text><path d="M618,548.5703 L628,548.5703 C643,548.5703 643,606.1797 658,606.1797 L668,606.1797 " fill="none" style="stroke:#181818;stroke-width:1;"/><path d="M436,462.1563 L446,462.1563 C461,462.1563 461,548.5703 476,548.5703 L486,548.5703 " fill="none" style="stroke:#181818;stroke-width:1;"/><path d="M310,433.3516 L320,433.3516 C335,433.3516 335,462.1563 350,462.1563 L360,462.1563 " fill="none" style="stroke:#181818;stroke-width:1;"/><path d="M170,462.1563 L180,462.1563 C195,462.1563 195,433.3516 210,433.3516 L220,433.3516 " fill="none" style="stroke:#181818;stroke-width:1;"/><rect fill="#F1F1F1" height="37.6094" rx="12.5" ry="12.5" style="stroke:#181818;stroke-width:1.5;" width="90" x="220" y="644.9844"/><text fill="#000000" font-family="sans-serif" font-size="14" lengthAdjust="spacing" textLength="70" x="230" y="669.5176">&#21830;&#20107;&#30041;&#32622;&#26435;</text><rect fill="#F1F1F1" height="37.6094" rx="12.5" ry="12.5" style="stroke:#181818;stroke-width:1.5;" width="76" x="360" y="644.9844"/><text fill="#000000" font-family="sans-serif" font-size="14" lengthAdjust="spacing" textLength="56" x="370" y="669.5176">&#25104;&#31435;&#35201;&#20214;</text><path d="M310,663.7891 L320,663.7891 C335,663.7891 335,663.7891 350,663.7891 L360,663.7891 " fill="none" style="stroke:#181818;stroke-width:1;"/><path d="M170,462.1563 L180,462.1563 C195,462.1563 195,663.7891 210,663.7891 L220,663.7891 " fill="none" style="stroke:#181818;stroke-width:1;"/><path d="M72,687.4531 L82,687.4531 C97,687.4531 97,462.1563 112,462.1563 L122,462.1563 " fill="none" style="stroke:#181818;stroke-width:1;"/><rect fill="#F1F1F1" height="37.6094" rx="12.5" ry="12.5" style="stroke:#181818;stroke-width:1.5;" width="48" x="122" y="789.0078"/><text fill="#000000" font-family="sans-serif" font-size="14" lengthAdjust="spacing" textLength="28" x="132" y="813.541">&#23454;&#29616;</text><rect fill="#F1F1F1" height="37.6094" rx="12.5" ry="12.5" style="stroke:#181818;stroke-width:1.5;" width="90" x="220" y="702.5938"/><text fill="#000000" font-family="sans-serif" font-size="14" lengthAdjust="spacing" textLength="70" x="230" y="727.127">&#23485;&#38480;&#26399;&#21046;&#24230;</text><rect fill="#F1F1F1" height="37.6094" rx="12.5" ry="12.5" style="stroke:#181818;stroke-width:1.5;" width="49.5723" x="360" y="702.5938"/><text fill="#000000" font-family="sans-serif" font-size="14" lengthAdjust="spacing" textLength="29.5723" x="370" y="727.127">60&#22825;</text><path d="M310,721.3984 L320,721.3984 C335,721.3984 335,721.3984 350,721.3984 L360,721.3984 " fill="none" style="stroke:#181818;stroke-width:1;"/><path d="M170,807.8125 L180,807.8125 C195,807.8125 195,721.3984 210,721.3984 L220,721.3984 " fill="none" style="stroke:#181818;stroke-width:1;"/><rect fill="#F1F1F1" height="37.6094" rx="12.5" ry="12.5" style="stroke:#181818;stroke-width:1.5;" width="76" x="220" y="817.8125"/><text fill="#000000" font-family="sans-serif" font-size="14" lengthAdjust="spacing" textLength="56" x="230" y="842.3457">&#30041;&#32622;&#36130;&#20135;</text><rect fill="#F1F1F1" height="37.6094" rx="12.5" ry="12.5" style="stroke:#181818;stroke-width:1.5;" width="48" x="346" y="760.2031"/><text fill="#000000" font-family="sans-serif" font-size="14" lengthAdjust="spacing" textLength="28" x="356" y="784.7363">&#25240;&#20215;</text><path d="M296,836.6172 L306,836.6172 C321,836.6172 321,779.0078 336,779.0078 L346,779.0078 " fill="none" style="stroke:#181818;stroke-width:1;"/><rect fill="#F1F1F1" height="37.6094" rx="12.5" ry="12.5" style="stroke:#181818;stroke-width:1.5;" width="48" x="346" y="817.8125"/><text fill="#000000" font-family="sans-serif" font-size="14" lengthAdjust="spacing" textLength="28" x="356" y="842.3457">&#25293;&#21334;</text><path d="M296,836.6172 L306,836.6172 C321,836.6172 321,836.6172 336,836.6172 L346,836.6172 " fill="none" style="stroke:#181818;stroke-width:1;"/><rect fill="#F1F1F1" height="37.6094" rx="12.5" ry="12.5" style="stroke:#181818;stroke-width:1.5;" width="48" x="346" y="875.4219"/><text fill="#000000" font-family="sans-serif" font-size="14" lengthAdjust="spacing" textLength="28" x="356" y="899.9551">&#21464;&#21334;</text><path d="M296,836.6172 L306,836.6172 C321,836.6172 321,894.2266 336,894.2266 L346,894.2266 " fill="none" style="stroke:#181818;stroke-width:1;"/><path d="M170,807.8125 L180,807.8125 C195,807.8125 195,836.6172 210,836.6172 L220,836.6172 " fill="none" style="stroke:#181818;stroke-width:1;"/><path d="M72,687.4531 L82,687.4531 C97,687.4531 97,807.8125 112,807.8125 L122,807.8125 " fill="none" style="stroke:#181818;stroke-width:1;"/><rect fill="#F1F1F1" height="37.6094" rx="12.5" ry="12.5" style="stroke:#181818;stroke-width:1.5;" width="48" x="122" y="1105.8594"/><text fill="#000000" font-family="sans-serif" font-size="14" lengthAdjust="spacing" textLength="28" x="132" y="1130.3926">&#28040;&#28781;</text><rect fill="#F1F1F1" height="37.6094" rx="12.5" ry="12.5" style="stroke:#181818;stroke-width:1.5;" width="146" x="220" y="990.6406"/><text fill="#000000" font-family="sans-serif" font-size="14" lengthAdjust="spacing" textLength="126" x="230" y="1015.1738">&#29289;&#26435;&#28040;&#28781;&#65288;&#29289;&#29702;&#23618;&#65289;</text><rect fill="#F1F1F1" height="37.6094" rx="12.5" ry="12.5" style="stroke:#181818;stroke-width:1.5;" width="48" x="416" y="933.0313"/><text fill="#000000" font-family="sans-serif" font-size="14" lengthAdjust="spacing" textLength="28" x="426" y="957.5645">&#28781;&#22833;</text><path d="M366,1009.4453 L376,1009.4453 C391,1009.4453 391,951.8359 406,951.8359 L416,951.8359 " fill="none" style="stroke:#181818;stroke-width:1;"/><rect fill="#F1F1F1" height="37.6094" rx="12.5" ry="12.5" style="stroke:#181818;stroke-width:1.5;" width="48" x="416" y="990.6406"/><text fill="#000000" font-family="sans-serif" font-size="14" lengthAdjust="spacing" textLength="28" x="426" y="1015.1738">&#28151;&#21516;</text><path d="M366,1009.4453 L376,1009.4453 C391,1009.4453 391,1009.4453 406,1009.4453 L416,1009.4453 " fill="none" style="stroke:#181818;stroke-width:1;"/><rect fill="#F1F1F1" height="37.6094" rx="12.5" ry="12.5" style="stroke:#181818;stroke-width:1.5;" width="48" x="416" y="1048.25"/><text fill="#000000" font-family="sans-serif" font-size="14" lengthAdjust="spacing" textLength="28" x="426" y="1072.7832">&#25243;&#24323;</text><path d="M366,1009.4453 L376,1009.4453 C391,1009.4453 391,1067.0547 406,1067.0547 L416,1067.0547 " fill="none" style="stroke:#181818;stroke-width:1;"/><path d="M170,1124.6641 L180,1124.6641 C195,1124.6641 195,1009.4453 210,1009.4453 L220,1009.4453 " fill="none" style="stroke:#181818;stroke-width:1;"/><rect fill="#F1F1F1" height="37.6094" rx="12.5" ry="12.5" style="stroke:#181818;stroke-width:1.5;" width="160" x="220" y="1134.6641"/><text fill="#000000" font-family="sans-serif" font-size="14" lengthAdjust="spacing" textLength="140" x="230" y="1159.1973">&#25285;&#20445;&#29289;&#26435;&#65288;&#19978;&#20301;&#27010;&#24565;&#65289;</text><rect fill="#F1F1F1" height="37.6094" rx="12.5" ry="12.5" style="stroke:#181818;stroke-width:1.5;" width="104" x="430" y="1105.8594"/><text fill="#000000" font-family="sans-serif" font-size="14" lengthAdjust="spacing" textLength="84" x="440" y="1130.3926">&#20027;&#20538;&#26435;&#30340;&#28040;&#28781;</text><path d="M380,1153.4688 L390,1153.4688 C405,1153.4688 405,1124.6641 420,1124.6641 L430,1124.6641 " fill="none" style="stroke:#181818;stroke-width:1;"/><rect fill="#F1F1F1" height="37.6094" rx="12.5" ry="12.5" style="stroke:#181818;stroke-width:1.5;" width="118" x="430" y="1163.4688"/><text fill="#000000" font-family="sans-serif" font-size="14" lengthAdjust="spacing" textLength="98" x="440" y="1188.002">&#25285;&#20445;&#29289;&#26435;&#30340;&#23454;&#29616;</text><path d="M380,1153.4688 L390,1153.4688 C405,1153.4688 405,1182.2734 420,1182.2734 L430,1182.2734 " fill="none" style="stroke:#181818;stroke-width:1;"/><path d="M170,1124.6641 L180,1124.6641 C195,1124.6641 195,1153.4688 210,1153.4688 L220,1153.4688 " fill="none" style="stroke:#181818;stroke-width:1;"/><rect fill="#F1F1F1" height="37.6094" rx="12.5" ry="12.5" style="stroke:#181818;stroke-width:1.5;" width="104" x="220" y="1249.8828"/><text fill="#000000" font-family="sans-serif" font-size="14" lengthAdjust="spacing" textLength="84" x="230" y="1274.416">&#27861;&#23450;&#25285;&#20445;&#29289;&#26435;</text><rect fill="#F1F1F1" height="37.6094" rx="12.5" ry="12.5" style="stroke:#181818;stroke-width:1.5;" width="244" x="374" y="1221.0781"/><text fill="#000000" font-family="sans-serif" font-size="14" lengthAdjust="spacing" textLength="224" x="384" y="1245.6113">&#30041;&#32622;&#26435;&#20154;&#20027;&#21160;&#25918;&#24323;&#21344;&#26377;&#12289;&#25243;&#24323;&#30041;&#32622;&#29289;</text><path d="M324,1268.6875 L334,1268.6875 C349,1268.6875 349,1239.8828 364,1239.8828 L374,1239.8828 " fill="none" style="stroke:#181818;stroke-width:1;"/><rect fill="#F1F1F1" height="37.6094" rx="12.5" ry="12.5" style="stroke:#181818;stroke-width:1.5;" width="244" x="374" y="1278.6875"/><text fill="#000000" font-family="sans-serif" font-size="14" lengthAdjust="spacing" textLength="224" x="384" y="1303.2207">&#30041;&#32622;&#26435;&#20154;&#25509;&#21463;&#20538;&#21153;&#20154;&#21478;&#34892;&#25552;&#20379;&#30340;&#25285;&#20445;</text><path d="M324,1268.6875 L334,1268.6875 C349,1268.6875 349,1297.4922 364,1297.4922 L374,1297.4922 " fill="none" style="stroke:#181818;stroke-width:1;"/><path d="M170,1124.6641 L180,1124.6641 C195,1124.6641 195,1268.6875 210,1268.6875 L220,1268.6875 " fill="none" style="stroke:#181818;stroke-width:1;"/><path d="M72,687.4531 L82,687.4531 C97,687.4531 97,1124.6641 112,1124.6641 L122,1124.6641 " fill="none" style="stroke:#181818;stroke-width:1;"/><!--SRC=[xLXRJnj757xVNp5LNY2IpQKkYYmK4HnG6-4egadUn-k9lM6zOwrddRfL9GW56OWnLSeb5ze6fJIqX9120HaSVWnxSPxo5tfcruRrEcixhnKMidRE-SvtpiovZ9UXBCCgIqjA8eqpWl25f8YobY0e6Enn_h8iBvEUZ8mLfgNb04S601gmvK49P8B092OJPCrjcUlJriaA2Y1pOKO_NNSaiBIMdrgL7NWMXAkk1OBFLMJiREYL9_QY9YZzLPskc6jlZVdNUlbFbqO_AZeoD7X59OdmT-7hBYrG6eKjZmh4XINhxmKtRlTdlRpG6CQ5jhgpQvpEDWWTHQYwEQKV7tnbJiyObGsFbUF4GNp2rfWiy-WE_p4Ak-QBtpwU5CpLWm-h-zRnlb7U_7WozocRfOAvjsmKVpTVp86zCVzIBvVDmegrlQqVpS6pzUodiyb5vq3E9aj0wZot9dsi7qrotlSBnioUjNVCOx6NhSoumwCYGAilmRxi3ptFK_Lq7MZFoLjZfn_hfwiy_fbjerogphsrbwtPBHv0mQWyWLp2ORZXiCtbsHOfRaeMBy9VhSLTDyDEvSFJ9SYLKJY0lNeO1dgDLrikjEEfkh_XhjUQi_ar_VZGArme6iKLZz0ehTM5W3WeM5Dlt2xiPdB4i75OMakpnhj7tdC2vDGRuzKxhyV3GyXzKspFZPDfTsku-XQSw4VpUgLeRZuoJlzjzgCV7Jjr3ONe2RUP3J1DPynBO-UP6-NTIJs1a63kRVwr-SjxYDXfYhF9AMS33WmOMfYRYtyOfTNpFZ9Acr3APcb9V_-SXs_780X310PXVHWEDSx6GNlaNHTgWfiIJgeuZNu0fy6uh17x2Q5XB4uaLQefYGYLgOfaAPbYN0_Q7pasWTK9c50-y9gs3awgX2Yjc6s02vrl0yxNiLJ5Ij8lQ4TPXsOqDIFxGHrb7Ug_CTUcL9hrOxioEZey78dKaNaYo_IX3zPHsb0XcCQICfuYwJhnA5LOJFgUe2zx1QudwKmAPwLi-xDqetjzuDc9l9rIDxQ_zLcweSCW4bDGeHq58oKLgf8EyehGcAGGh_o2eaEtBQaucQ9GaIZCxsmKEobE2XnHN0QCXnMQnubDLANph5se6KrZHftW5GRU9AfWEVAvs3igoM0LSyddcDs8KvMrAxjEkHY3lBDsdTOXMuIceTsONpdKBFteUFeKaeIC0gdxC5jDhNQPJ12ISJT4euCHcA9nMSgc_4UUoxxHsyEKnBndu-FcDcNjFTcx4lDOwM1N8auGTkuCYwAKyA_vXb7SZla-j6BMrT-m5aaKFo1QcowdCeIWqeIh0jlqMDt2zfEXMOb9EN93TBL3qpZ7Ckbq8nTRW5pWjjHf2MvGFlixgQdQDSZ9irhy0H4vlT_fu1pSsqJja3SdKUWWcvgsO-Rdtl5nNqpwniPjtQiDjTps3X7WQx2dzbFayithyithyithyith__RcTOV_k-bkT0pbY9hb5qfViB-tFnIyrXN33DscETGtW7hxmg5GE3I08h5nnDNTGbVqct6KfHhSfoW1juqgnJK-Whk5MpY7qRSQ3EGq2IE-wXgFTgFOI5s8HfISf58b3KDOk7Klwe3GrvJ5CfJPu85GO5XYA4PK20lTYmetoNsioGnCHPgGb6GOtHqV3LmJnc1OQpW9Zk1wZC0KPseUTB7_0000]--></g></svg>