<svg xmlns="http://www.w3.org/2000/svg" xmlns:xlink="http://www.w3.org/1999/xlink" contentStyleType="text/css" height="521px" preserveAspectRatio="none" style="width:728px;height:521px;background:#FFFFFF;" version="1.1" viewBox="0 0 728 521" width="728px" zoomAndPan="magnify"><title>&#29289;&#26435;&#32534; - &#25152;&#26377;&#26435;</title><defs/><g><text fill="#000000" font-family="sans-serif" font-size="14" font-weight="bold" lengthAdjust="spacing" textLength="99.0664" x="312.9668" y="34.5332">&#29289;&#26435;&#32534; - &#25152;&#26377;&#26435;</text><rect fill="#F1F1F1" height="37.6094" rx="12.5" ry="12.5" style="stroke:#181818;stroke-width:1.5;" width="48" x="10" y="116.2188"/><text fill="#000000" font-family="sans-serif" font-size="14" lengthAdjust="spacing" textLength="28" x="20" y="140.752">&#29289;&#26435;</text><rect fill="#F1F1F1" height="37.6094" rx="12.5" ry="12.5" style="stroke:#181818;stroke-width:1.5;" width="219.9102" x="108" y="58.6094"/><text fill="#000000" font-family="sans-serif" font-size="14" lengthAdjust="spacing" textLength="199.9102" x="118" y="83.1426">&#33258;&#29289;&#26435; = &#25152;&#26377;&#26435; = &#26368;&#23436;&#25972;&#30340;&#29289;&#26435;</text><path d="M58,135.0234 L68,135.0234 C83,135.0234 83,77.4141 98,77.4141 L108,77.4141 " fill="none" style="stroke:#181818;stroke-width:1;"/><rect fill="#F1F1F1" height="37.6094" rx="12.5" ry="12.5" style="stroke:#181818;stroke-width:1.5;" width="62" x="108" y="116.2188"/><text fill="#000000" font-family="sans-serif" font-size="14" lengthAdjust="spacing" textLength="42" x="118" y="140.752">&#20934;&#29289;&#26435;</text><path d="M58,135.0234 L68,135.0234 C83,135.0234 83,135.0234 98,135.0234 L108,135.0234 " fill="none" style="stroke:#181818;stroke-width:1;"/><rect fill="#F1F1F1" height="37.6094" rx="12.5" ry="12.5" style="stroke:#181818;stroke-width:1.5;" width="62" x="108" y="173.8281"/><text fill="#000000" font-family="sans-serif" font-size="14" lengthAdjust="spacing" textLength="42" x="118" y="198.3613">&#20182;&#29289;&#26435;</text><path d="M58,135.0234 L68,135.0234 C83,135.0234 83,192.6328 98,192.6328 L108,192.6328 " fill="none" style="stroke:#181818;stroke-width:1;"/><rect fill="#F1F1F1" height="37.6094" rx="12.5" ry="12.5" style="stroke:#181818;stroke-width:1.5;" width="62" x="10" y="231.4375"/><text fill="#000000" font-family="sans-serif" font-size="14" lengthAdjust="spacing" textLength="42" x="20" y="255.9707">&#25152;&#26377;&#26435;</text><rect fill="#F1F1F1" height="37.6094" rx="12.5" ry="12.5" style="stroke:#181818;stroke-width:1.5;" width="594" x="122" y="231.4375"/><text fill="#000000" font-family="sans-serif" font-size="14" lengthAdjust="spacing" textLength="574" x="132" y="255.9707">&#25152;&#26377;&#26435;&#65292;&#23427;&#26159;&#26368;&#23436;&#25972;&#30340;&#29289;&#26435;&#65292;&#33021;&#22815;&#23545;&#19968;&#20010;&#26631;&#30340;&#29289;&#30340;&#20351;&#29992;&#20215;&#20540;&#21644;&#20132;&#25442;&#20215;&#20540;&#20840;&#38754;&#20104;&#20197;&#25903;&#37197;&#21644;&#21033;&#29992;&#12290;</text><path d="M72,250.2422 L82,250.2422 C97,250.2422 97,250.2422 112,250.2422 L122,250.2422 " fill="none" style="stroke:#181818;stroke-width:1;"/><rect fill="#F1F1F1" height="37.6094" rx="12.5" ry="12.5" style="stroke:#181818;stroke-width:1.5;" width="62" x="10" y="375.4609"/><text fill="#000000" font-family="sans-serif" font-size="14" lengthAdjust="spacing" textLength="42" x="20" y="399.9941">&#25152;&#26377;&#26435;</text><rect fill="#F1F1F1" height="37.6094" rx="12.5" ry="12.5" style="stroke:#181818;stroke-width:1.5;" width="76" x="122" y="317.8516"/><text fill="#000000" font-family="sans-serif" font-size="14" lengthAdjust="spacing" textLength="56" x="132" y="342.3848">&#20351;&#29992;&#20215;&#20540;</text><rect fill="#F1F1F1" height="37.6094" rx="12.5" ry="12.5" style="stroke:#181818;stroke-width:1.5;" width="48" x="248" y="289.0469"/><text fill="#000000" font-family="sans-serif" font-size="14" lengthAdjust="spacing" textLength="28" x="258" y="313.5801">&#21344;&#26377;</text><path d="M198,336.6563 L208,336.6563 C223,336.6563 223,307.8516 238,307.8516 L248,307.8516 " fill="none" style="stroke:#181818;stroke-width:1;"/><rect fill="#F1F1F1" height="37.6094" rx="12.5" ry="12.5" style="stroke:#181818;stroke-width:1.5;" width="48" x="248" y="346.6563"/><text fill="#000000" font-family="sans-serif" font-size="14" lengthAdjust="spacing" textLength="28" x="258" y="371.1895">&#20351;&#29992;</text><path d="M198,336.6563 L208,336.6563 C223,336.6563 223,365.4609 238,365.4609 L248,365.4609 " fill="none" style="stroke:#181818;stroke-width:1;"/><path d="M72,394.2656 L82,394.2656 C97,394.2656 97,336.6563 112,336.6563 L122,336.6563 " fill="none" style="stroke:#181818;stroke-width:1;"/><rect fill="#F1F1F1" height="37.6094" rx="12.5" ry="12.5" style="stroke:#181818;stroke-width:1.5;" width="76" x="122" y="433.0703"/><text fill="#000000" font-family="sans-serif" font-size="14" lengthAdjust="spacing" textLength="56" x="132" y="457.6035">&#20132;&#25442;&#20215;&#20540;</text><rect fill="#F1F1F1" height="37.6094" rx="12.5" ry="12.5" style="stroke:#181818;stroke-width:1.5;" width="48" x="248" y="404.2656"/><text fill="#000000" font-family="sans-serif" font-size="14" lengthAdjust="spacing" textLength="28" x="258" y="428.7988">&#25910;&#30410;</text><path d="M198,451.875 L208,451.875 C223,451.875 223,423.0703 238,423.0703 L248,423.0703 " fill="none" style="stroke:#181818;stroke-width:1;"/><rect fill="#F1F1F1" height="37.6094" rx="12.5" ry="12.5" style="stroke:#181818;stroke-width:1.5;" width="48" x="248" y="461.875"/><text fill="#000000" font-family="sans-serif" font-size="14" lengthAdjust="spacing" textLength="28" x="258" y="486.4082">&#22788;&#20998;</text><rect fill="#F1F1F1" height="37.6094" rx="12.5" ry="12.5" style="stroke:#181818;stroke-width:1.5;" width="76" x="346" y="461.875"/><text fill="#000000" font-family="sans-serif" font-size="14" lengthAdjust="spacing" textLength="56" x="356" y="486.4082">&#29289;&#26435;&#21464;&#21160;</text><path d="M296,480.6797 L306,480.6797 C321,480.6797 321,480.6797 336,480.6797 L346,480.6797 " fill="none" style="stroke:#181818;stroke-width:1;"/><path d="M198,451.875 L208,451.875 C223,451.875 223,480.6797 238,480.6797 L248,480.6797 " fill="none" style="stroke:#181818;stroke-width:1;"/><path d="M72,394.2656 L82,394.2656 C97,394.2656 97,451.875 112,451.875 L122,451.875 " fill="none" style="stroke:#181818;stroke-width:1;"/><!--SRC=[xLTRRnD757wVNp5LNn8aEvTQ4Ofe5MmIjIX6g3QyZtU7zP3PcTNih95RLR8Q80bAL0a5X5eG20Kfy41UgfQIeFwOUjVmrB_GixTu7RhUvR5ILzPgppdVV6VEdCkkLrnDbBQPC6tY8FGP4mRtJ8ghrJdukRhFwPp3YT2UpIiXh0AuIgIlCj0Xf9dc58zsNWPFDaSd3t451pk3uF4EY0YkSua9ORZEuVTRhs8PVpd6XS-F1_xhtU31hwEVRqyiyBVkJiZ3uuU93DHZJx7nLFxxPDT_lHayElgO5qplDz_v1q_zep-6RmR3Dw-2Prkn5Ux3Tt-EzW-7nx_xWnF__kxmxK6mzpmHxnn-UF9y-7PxUFmYs3_wS6SF0FxsIy3_DVZntxQJ9OjKIKXxpm2MKSIuT576PGOJxFys-kLUbkNWjhzzzrGHA-CG_PyU-VSE4LgXaDOqjIkJcRuGvV0hb2WkCM8fOkFlWR3QuHwDdZ2k4sF3Kj8JPaDogJ1dLbU7Th3-469DeZOKDNFWYJK5MufICOqv0cJG_G9mFyLAHOILj-dOc48TJpay3neRKsX-O9cWb7Jps3vVMwlN6uqKsQUSorivsDWOGL7L9aoqkzHEYTUaq2ts7SLVpAFGJcsdIrpc5fzb5ZsV0tSt-b5AizZ5wMUPXTP1PNIX-afjXbb2AbeYhnYlCq7FwiSK9TrEfGh9X9065JhlR4IKb3W5iQh30NE65PedtfkXs6dMncOjRQ9bl7cXmHkJWl36fsAlAkeGHKBDfooxs95A5vLTMIwj8U-wgDDAiZMa3UscyyeXMPb75wPFK0io2gJPmvmsjOeoQLBgP1jYqi4gJD4EPsutV-HbrazwkzLb-kpPvBYv8dMnfoWgeqz4YQWCOb9zwemO1ZFpQtvY51Sntu1MT3Fz3R91c-GczGgwN7BOWf9cfW8BUYnT4VbnfCiqwz6BHgOTFXhdXDEoWOn3W5oGGcgRmHiqdFrbQYfv3ORahjUvIOsGFkzqI0_UsrILvEqn2HqKKSiYvl3SIn_tUD9FDkxqNfsevS9t28BRXRdaK-J_Jyd_oAVarV0FmRNcEkvHvOOTib1Td5-iLS_Fj8Z6LsGFBopX-ONbMcsvjeGRhJOEpRDeflbD6xlIWm61JMWVnJfUM5Epw3Bf4Voj1nLcqsKSIZFjvYnkhQPAl2fwJ4bXGrMXozURCGX_BNNBaJe2BzKgTQPnYohO5hxUH9Ve3U9n3KiDQJ9XBUDhxRNAURGErUSH2nn1lpUWBBNgWwtr3m00]--></g></svg>