<svg xmlns="http://www.w3.org/2000/svg" xmlns:xlink="http://www.w3.org/1999/xlink" contentStyleType="text/css" height="1136px" preserveAspectRatio="none" style="width:1270px;height:1136px;background:#FFFFFF;" version="1.1" viewBox="0 0 1270 1136" width="1270px" zoomAndPan="magnify"><title>&#29289;&#26435;&#32534; - &#25152;&#26377;&#26435; - &#29289;&#26435;&#21464;&#21160;</title><defs/><g><text fill="#000000" font-family="sans-serif" font-size="14" font-weight="bold" lengthAdjust="spacing" textLength="169.2578" x="548.9536" y="34.5332">&#29289;&#26435;&#32534; - &#25152;&#26377;&#26435; - &#29289;&#26435;&#21464;&#21160;</text><rect fill="#F1F1F1" height="37.6094" rx="12.5" ry="12.5" style="stroke:#181818;stroke-width:1.5;" width="76" x="10" y="567.832"/><text fill="#000000" font-family="sans-serif" font-size="14" lengthAdjust="spacing" textLength="56" x="20" y="592.3652">&#29289;&#26435;&#21464;&#21160;</text><rect fill="#90EE90" height="42.75" rx="12.5" ry="12.5" style="stroke:#181818;stroke-width:1.5;" width="190.3447" x="136" y="262.8125"/><text fill="#000000" font-family="sans-serif" font-size="14" lengthAdjust="spacing" textLength="141.5654" x="146" y="292.4863">1. &#22522;&#20110;&#21512;&#21516;&#30340;&#29289;&#26435;&#21464;&#21160;</text><path d="M299.0384,292.6458 C299.0384,293.8125 299.0384,293.8125 297.8717,293.8125 C296.7051,293.8125 296.7051,292.6458 296.7051,292.6458 L296.7051,273.9792 C296.7051,272.8125 296.7051,272.8125 297.8717,272.8125 C299.0384,272.8125 299.0384,273.9792 299.0384,273.9792 L299.0384,292.6458 " fill="#66757F" style="stroke:;stroke-width:0;stroke-dasharray:;"/><path d="M297.8717,275.1458 C297.8717,273.8625 298.8261,273.25 299.9927,273.7849 L309.7502,278.2573 C310.9168,278.7923 310.9168,279.6673 309.7502,280.2016 L299.9927,284.674 C298.8261,285.2083 297.8717,284.5958 297.8717,283.3125 L297.8717,275.1458 " fill="#DD2E44" style="stroke:;stroke-width:0;stroke-dasharray:;"/><text fill="#000000" font-family="sans-serif" font-size="14" lengthAdjust="spacing" textLength="3.8896" x="312.4551" y="292.4863">&#160;</text><rect fill="#F1F1F1" height="37.6094" rx="12.5" ry="12.5" style="stroke:#181818;stroke-width:1.5;" width="48" x="376.3447" y="92.5547"/><text fill="#000000" font-family="sans-serif" font-size="14" lengthAdjust="spacing" textLength="28" x="386.3447" y="117.0879">&#34920;&#29616;</text><rect fill="#F1F1F1" height="42.75" rx="12.5" ry="12.5" style="stroke:#181818;stroke-width:1.5;" width="100.8896" x="474.3447" y="58.6094"/><text fill="#000000" font-family="sans-serif" font-size="14" lengthAdjust="spacing" textLength="56" x="484.3447" y="88.2832">&#20080;&#21334;&#21512;&#21516;</text><path d="M551.8177,88.4427 C551.8177,89.6094 551.8177,89.6094 550.651,89.6094 C549.4844,89.6094 549.4844,88.4427 549.4844,88.4427 L549.4844,69.776 C549.4844,68.6094 549.4844,68.6094 550.651,68.6094 C551.8177,68.6094 551.8177,69.776 551.8177,69.776 L551.8177,88.4427 " fill="#66757F" style="stroke:;stroke-width:0;stroke-dasharray:;"/><path d="M550.651,70.9427 C550.651,69.6594 551.6054,69.0469 552.772,69.5818 L562.5295,74.0542 C563.6961,74.5891 563.6961,75.4641 562.5295,75.9985 L552.772,80.4709 C551.6054,81.0052 550.651,80.3927 550.651,79.1094 L550.651,70.9427 " fill="#DD2E44" style="stroke:;stroke-width:0;stroke-dasharray:;"/><path d="M424.3447,111.3594 L434.3447,111.3594 C449.3447,111.3594 449.3447,79.9844 464.3447,79.9844 L474.3447,79.9844 " fill="none" style="stroke:#181818;stroke-width:1;"/><rect fill="#F1F1F1" height="42.75" rx="12.5" ry="12.5" style="stroke:#181818;stroke-width:1.5;" width="100.8896" x="474.3447" y="121.3594"/><text fill="#000000" font-family="sans-serif" font-size="14" lengthAdjust="spacing" textLength="56" x="484.3447" y="151.0332">&#36192;&#19982;&#21512;&#21516;</text><path d="M551.8177,151.1927 C551.8177,152.3594 551.8177,152.3594 550.651,152.3594 C549.4844,152.3594 549.4844,151.1927 549.4844,151.1927 L549.4844,132.526 C549.4844,131.3594 549.4844,131.3594 550.651,131.3594 C551.8177,131.3594 551.8177,132.526 551.8177,132.526 L551.8177,151.1927 " fill="#66757F" style="stroke:;stroke-width:0;stroke-dasharray:;"/><path d="M550.651,133.6927 C550.651,132.4094 551.6054,131.7969 552.772,132.3318 L562.5295,136.8042 C563.6961,137.3391 563.6961,138.2141 562.5295,138.7485 L552.772,143.2209 C551.6054,143.7552 550.651,143.1427 550.651,141.8594 L550.651,133.6927 " fill="#DD2E44" style="stroke:;stroke-width:0;stroke-dasharray:;"/><path d="M424.3447,111.3594 L434.3447,111.3594 C449.3447,111.3594 449.3447,142.7344 464.3447,142.7344 L474.3447,142.7344 " fill="none" style="stroke:#181818;stroke-width:1;"/><path d="M326.3447,284.1875 L336.3447,284.1875 C351.3447,284.1875 351.3447,111.3594 366.3447,111.3594 L376.3447,111.3594 " fill="none" style="stroke:#181818;stroke-width:1;"/><rect fill="#F1F1F1" height="37.6094" rx="12.5" ry="12.5" style="stroke:#181818;stroke-width:1.5;" width="48" x="376.3447" y="270.5234"/><text fill="#000000" font-family="sans-serif" font-size="14" lengthAdjust="spacing" textLength="28" x="386.3447" y="295.0566">&#22788;&#20998;</text><rect fill="#F1F1F1" height="37.6094" rx="12.5" ry="12.5" style="stroke:#181818;stroke-width:1.5;" width="76" x="474.3447" y="184.1094"/><text fill="#000000" font-family="sans-serif" font-size="14" lengthAdjust="spacing" textLength="56" x="484.3447" y="208.6426">&#26377;&#26435;&#22788;&#20998;</text><rect fill="#F1F1F1" height="37.6094" rx="12.5" ry="12.5" style="stroke:#181818;stroke-width:1.5;" width="377.8203" x="600.3447" y="184.1094"/><text fill="#000000" font-family="sans-serif" font-size="14" lengthAdjust="spacing" textLength="357.8203" x="610.3447" y="208.6426">&#26377;&#26435;&#22788;&#20998; + &#26377;&#25928;&#21512;&#21516; + &#30331;&#35760;&#25110;&#20132;&#20184; = &#29289;&#26435;&#21464;&#21160; = &#32487;&#21463;&#21462;&#24471;</text><path d="M550.3447,202.9141 L560.3447,202.9141 C575.3447,202.9141 575.3447,202.9141 590.3447,202.9141 L600.3447,202.9141 " fill="none" style="stroke:#181818;stroke-width:1;"/><path d="M424.3447,289.3281 L434.3447,289.3281 C449.3447,289.3281 449.3447,202.9141 464.3447,202.9141 L474.3447,202.9141 " fill="none" style="stroke:#181818;stroke-width:1;"/><rect fill="#F1F1F1" height="37.6094" rx="12.5" ry="12.5" style="stroke:#181818;stroke-width:1.5;" width="76" x="474.3447" y="299.3281"/><text fill="#000000" font-family="sans-serif" font-size="14" lengthAdjust="spacing" textLength="56" x="484.3447" y="323.8613">&#26080;&#26435;&#22788;&#20998;</text><rect fill="#F1F1F1" height="37.6094" rx="12.5" ry="12.5" style="stroke:#181818;stroke-width:1.5;" width="377.8203" x="600.3447" y="299.3281"/><text fill="#000000" font-family="sans-serif" font-size="14" lengthAdjust="spacing" textLength="357.8203" x="610.3447" y="323.8613">&#26080;&#26435;&#22788;&#20998; + &#26377;&#25928;&#21512;&#21516; + &#30331;&#35760;&#25110;&#20132;&#20184; = &#29289;&#26435;&#21464;&#21160; = &#21407;&#22987;&#21462;&#24471;</text><rect fill="#F1F1F1" height="37.6094" rx="12.5" ry="12.5" style="stroke:#181818;stroke-width:1.5;" width="76" x="1028.165" y="241.7188"/><text fill="#000000" font-family="sans-serif" font-size="14" lengthAdjust="spacing" textLength="56" x="1038.165" y="266.252">&#21892;&#24847;&#21462;&#24471;</text><path d="M978.165,318.1328 L988.165,318.1328 C1003.165,318.1328 1003.165,260.5234 1018.165,260.5234 L1028.165,260.5234 " fill="none" style="stroke:#181818;stroke-width:1;"/><rect fill="#F1F1F1" height="37.6094" rx="12.5" ry="12.5" style="stroke:#181818;stroke-width:1.5;" width="216" x="1028.165" y="299.3281"/><text fill="#000000" font-family="sans-serif" font-size="14" lengthAdjust="spacing" textLength="196" x="1038.165" y="323.8613">&#21892;&#24847;&#21462;&#24471;&#26159;&#21407;&#22987;&#21462;&#24471;&#39033;&#19979;&#30340;&#19968;&#31181;</text><path d="M978.165,318.1328 L988.165,318.1328 C1003.165,318.1328 1003.165,318.1328 1018.165,318.1328 L1028.165,318.1328 " fill="none" style="stroke:#181818;stroke-width:1;"/><rect fill="#F1F1F1" height="37.6094" rx="12.5" ry="12.5" style="stroke:#181818;stroke-width:1.5;" width="230" x="1028.165" y="356.9375"/><text fill="#000000" font-family="sans-serif" font-size="14" lengthAdjust="spacing" textLength="210" x="1038.165" y="381.4707">&#32771;&#35797;&#37325;&#28857;&#32771;&#21407;&#22987;&#21462;&#24471;&#39033;&#19979;&#21892;&#24847;&#21462;&#24471;</text><path d="M978.165,318.1328 L988.165,318.1328 C1003.165,318.1328 1003.165,375.7422 1018.165,375.7422 L1028.165,375.7422 " fill="none" style="stroke:#181818;stroke-width:1;"/><path d="M550.3447,318.1328 L560.3447,318.1328 C575.3447,318.1328 575.3447,318.1328 590.3447,318.1328 L600.3447,318.1328 " fill="none" style="stroke:#181818;stroke-width:1;"/><path d="M424.3447,289.3281 L434.3447,289.3281 C449.3447,289.3281 449.3447,318.1328 464.3447,318.1328 L474.3447,318.1328 " fill="none" style="stroke:#181818;stroke-width:1;"/><path d="M326.3447,284.1875 L336.3447,284.1875 C351.3447,284.1875 351.3447,289.3281 366.3447,289.3281 L376.3447,289.3281 " fill="none" style="stroke:#181818;stroke-width:1;"/><rect fill="#F1F1F1" height="37.6094" rx="12.5" ry="12.5" style="stroke:#181818;stroke-width:1.5;" width="76" x="376.3447" y="443.3516"/><text fill="#000000" font-family="sans-serif" font-size="14" lengthAdjust="spacing" textLength="56" x="386.3447" y="467.8848">&#20309;&#26102;&#29983;&#25928;</text><rect fill="#F1F1F1" height="37.6094" rx="12.5" ry="12.5" style="stroke:#181818;stroke-width:1.5;" width="62" x="502.3447" y="414.5469"/><text fill="#000000" font-family="sans-serif" font-size="14" lengthAdjust="spacing" textLength="42" x="512.3447" y="439.0801">&#19981;&#21160;&#20135;</text><rect fill="#F1F1F1" height="37.6094" rx="12.5" ry="12.5" style="stroke:#181818;stroke-width:1.5;" width="48" x="614.3447" y="414.5469"/><text fill="#000000" font-family="sans-serif" font-size="14" lengthAdjust="spacing" textLength="28" x="624.3447" y="439.0801">&#30331;&#35760;</text><path d="M564.3447,433.3516 L574.3447,433.3516 C589.3447,433.3516 589.3447,433.3516 604.3447,433.3516 L614.3447,433.3516 " fill="none" style="stroke:#181818;stroke-width:1;"/><path d="M452.3447,462.1563 L462.3447,462.1563 C477.3447,462.1563 477.3447,433.3516 492.3447,433.3516 L502.3447,433.3516 " fill="none" style="stroke:#181818;stroke-width:1;"/><rect fill="#F1F1F1" height="37.6094" rx="12.5" ry="12.5" style="stroke:#181818;stroke-width:1.5;" width="48" x="502.3447" y="472.1563"/><text fill="#000000" font-family="sans-serif" font-size="14" lengthAdjust="spacing" textLength="28" x="512.3447" y="496.6895">&#21160;&#20135;</text><rect fill="#F1F1F1" height="37.6094" rx="12.5" ry="12.5" style="stroke:#181818;stroke-width:1.5;" width="48" x="600.3447" y="472.1563"/><text fill="#000000" font-family="sans-serif" font-size="14" lengthAdjust="spacing" textLength="28" x="610.3447" y="496.6895">&#20132;&#20184;</text><path d="M550.3447,490.9609 L560.3447,490.9609 C575.3447,490.9609 575.3447,490.9609 590.3447,490.9609 L600.3447,490.9609 " fill="none" style="stroke:#181818;stroke-width:1;"/><path d="M452.3447,462.1563 L462.3447,462.1563 C477.3447,462.1563 477.3447,490.9609 492.3447,490.9609 L502.3447,490.9609 " fill="none" style="stroke:#181818;stroke-width:1;"/><path d="M326.3447,284.1875 L336.3447,284.1875 C351.3447,284.1875 351.3447,462.1563 366.3447,462.1563 L376.3447,462.1563 " fill="none" style="stroke:#181818;stroke-width:1;"/><path d="M86,586.6367 L96,586.6367 C111,586.6367 111,284.1875 126,284.1875 L136,284.1875 " fill="none" style="stroke:#181818;stroke-width:1;"/><rect fill="#F1F1F1" height="37.6094" rx="12.5" ry="12.5" style="stroke:#181818;stroke-width:1.5;" width="160" x="136" y="803.4102"/><text fill="#000000" font-family="sans-serif" font-size="14" lengthAdjust="spacing" textLength="140" x="146" y="827.9434">&#38750;&#22522;&#20110;&#21512;&#21516;&#30340;&#29289;&#26435;&#21464;&#21160;</text><rect fill="#F1F1F1" height="37.6094" rx="12.5" ry="12.5" style="stroke:#181818;stroke-width:1.5;" width="91.5654" x="346" y="558.5703"/><text fill="#000000" font-family="sans-serif" font-size="14" lengthAdjust="spacing" textLength="71.5654" x="356" y="583.1035">2. &#25919;&#24220;&#24449;&#25910;</text><rect fill="#F1F1F1" height="37.6094" rx="12.5" ry="12.5" style="stroke:#181818;stroke-width:1.5;" width="48" x="487.5654" y="529.7656"/><text fill="#000000" font-family="sans-serif" font-size="14" lengthAdjust="spacing" textLength="28" x="497.5654" y="554.2988">&#26469;&#28304;</text><rect fill="#F1F1F1" height="37.6094" rx="12.5" ry="12.5" style="stroke:#181818;stroke-width:1.5;" width="48" x="585.5654" y="529.7656"/><text fill="#000000" font-family="sans-serif" font-size="14" lengthAdjust="spacing" textLength="28" x="595.5654" y="554.2988">&#25919;&#24220;</text><path d="M535.5654,548.5703 L545.5654,548.5703 C560.5654,548.5703 560.5654,548.5703 575.5654,548.5703 L585.5654,548.5703 " fill="none" style="stroke:#181818;stroke-width:1;"/><path d="M437.5654,577.375 L447.5654,577.375 C462.5654,577.375 462.5654,548.5703 477.5654,548.5703 L487.5654,548.5703 " fill="none" style="stroke:#181818;stroke-width:1;"/><rect fill="#F1F1F1" height="37.6094" rx="12.5" ry="12.5" style="stroke:#181818;stroke-width:1.5;" width="76" x="487.5654" y="587.375"/><text fill="#000000" font-family="sans-serif" font-size="14" lengthAdjust="spacing" textLength="56" x="497.5654" y="611.9082">&#20309;&#26102;&#29983;&#25928;</text><rect fill="#F1F1F1" height="37.6094" rx="12.5" ry="12.5" style="stroke:#181818;stroke-width:1.5;" width="146" x="613.5654" y="587.375"/><text fill="#000000" font-family="sans-serif" font-size="14" lengthAdjust="spacing" textLength="126" x="623.5654" y="611.9082">&#65288;&#24449;&#25910;&#20915;&#23450;&#65289;&#29983;&#25928;&#26102;</text><path d="M563.5654,606.1797 L573.5654,606.1797 C588.5654,606.1797 588.5654,606.1797 603.5654,606.1797 L613.5654,606.1797 " fill="none" style="stroke:#181818;stroke-width:1;"/><path d="M437.5654,577.375 L447.5654,577.375 C462.5654,577.375 462.5654,606.1797 477.5654,606.1797 L487.5654,606.1797 " fill="none" style="stroke:#181818;stroke-width:1;"/><path d="M296,822.2148 L306,822.2148 C321,822.2148 321,577.375 336,577.375 L346,577.375 " fill="none" style="stroke:#181818;stroke-width:1;"/><rect fill="#90EE90" height="42.75" rx="12.5" ry="12.5" style="stroke:#181818;stroke-width:1.5;" width="120.3447" x="346" y="700.0234"/><text fill="#000000" font-family="sans-serif" font-size="14" lengthAdjust="spacing" textLength="71.5654" x="356" y="729.6973">3. &#27861;&#24459;&#25991;&#20070;</text><path d="M439.0384,729.8568 C439.0384,731.0234 439.0384,731.0234 437.8717,731.0234 C436.7051,731.0234 436.7051,729.8568 436.7051,729.8568 L436.7051,711.1901 C436.7051,710.0234 436.7051,710.0234 437.8717,710.0234 C439.0384,710.0234 439.0384,711.1901 439.0384,711.1901 L439.0384,729.8568 " fill="#66757F" style="stroke:;stroke-width:0;stroke-dasharray:;"/><path d="M437.8717,712.3568 C437.8717,711.0734 438.8261,710.4609 439.9927,710.9959 L449.7502,715.4683 C450.9168,716.0032 450.9168,716.8782 449.7502,717.4125 L439.9927,721.8849 C438.8261,722.4193 437.8717,721.8068 437.8717,720.5234 L437.8717,712.3568 " fill="#DD2E44" style="stroke:;stroke-width:0;stroke-dasharray:;"/><text fill="#000000" font-family="sans-serif" font-size="14" lengthAdjust="spacing" textLength="3.8896" x="452.4551" y="729.6973">&#160;</text><rect fill="#F1F1F1" height="37.6094" rx="12.5" ry="12.5" style="stroke:#181818;stroke-width:1.5;" width="48" x="516.3447" y="673.7891"/><text fill="#000000" font-family="sans-serif" font-size="14" lengthAdjust="spacing" textLength="28" x="526.3447" y="698.3223">&#26469;&#28304;</text><rect fill="#F1F1F1" height="37.6094" rx="12.5" ry="12.5" style="stroke:#181818;stroke-width:1.5;" width="48" x="614.3447" y="644.9844"/><text fill="#000000" font-family="sans-serif" font-size="14" lengthAdjust="spacing" textLength="28" x="624.3447" y="669.5176">&#27861;&#38498;</text><path d="M564.3447,692.5938 L574.3447,692.5938 C589.3447,692.5938 589.3447,663.7891 604.3447,663.7891 L614.3447,663.7891 " fill="none" style="stroke:#181818;stroke-width:1;"/><rect fill="#F1F1F1" height="37.6094" rx="12.5" ry="12.5" style="stroke:#181818;stroke-width:1.5;" width="76" x="614.3447" y="702.5938"/><text fill="#000000" font-family="sans-serif" font-size="14" lengthAdjust="spacing" textLength="56" x="624.3447" y="727.127">&#20210;&#35009;&#26426;&#26500;</text><path d="M564.3447,692.5938 L574.3447,692.5938 C589.3447,692.5938 589.3447,721.3984 604.3447,721.3984 L614.3447,721.3984 " fill="none" style="stroke:#181818;stroke-width:1;"/><path d="M466.3447,721.3984 L476.3447,721.3984 C491.3447,721.3984 491.3447,692.5938 506.3447,692.5938 L516.3447,692.5938 " fill="none" style="stroke:#181818;stroke-width:1;"/><rect fill="#F1F1F1" height="37.6094" rx="12.5" ry="12.5" style="stroke:#181818;stroke-width:1.5;" width="76" x="516.3447" y="760.2031"/><text fill="#000000" font-family="sans-serif" font-size="14" lengthAdjust="spacing" textLength="56" x="526.3447" y="784.7363">&#20309;&#26102;&#29983;&#25928;</text><rect fill="#F1F1F1" height="37.6094" rx="12.5" ry="12.5" style="stroke:#181818;stroke-width:1.5;" width="146" x="642.3447" y="760.2031"/><text fill="#000000" font-family="sans-serif" font-size="14" lengthAdjust="spacing" textLength="126" x="652.3447" y="784.7363">&#65288;&#27861;&#24459;&#25991;&#20070;&#65289;&#29983;&#25928;&#26102;</text><path d="M592.3447,779.0078 L602.3447,779.0078 C617.3447,779.0078 617.3447,779.0078 632.3447,779.0078 L642.3447,779.0078 " fill="none" style="stroke:#181818;stroke-width:1;"/><path d="M466.3447,721.3984 L476.3447,721.3984 C491.3447,721.3984 491.3447,779.0078 506.3447,779.0078 L516.3447,779.0078 " fill="none" style="stroke:#181818;stroke-width:1;"/><path d="M296,822.2148 L306,822.2148 C321,822.2148 321,721.3984 336,721.3984 L346,721.3984 " fill="none" style="stroke:#181818;stroke-width:1;"/><rect fill="#90EE90" height="42.75" rx="12.5" ry="12.5" style="stroke:#181818;stroke-width:1.5;" width="92.3447" x="346" y="844.0469"/><text fill="#000000" font-family="sans-serif" font-size="14" lengthAdjust="spacing" textLength="43.5654" x="356" y="873.7207">4. &#32487;&#25215;</text><path d="M411.0384,873.8802 C411.0384,875.0469 411.0384,875.0469 409.8717,875.0469 C408.7051,875.0469 408.7051,873.8802 408.7051,873.8802 L408.7051,855.2135 C408.7051,854.0469 408.7051,854.0469 409.8717,854.0469 C411.0384,854.0469 411.0384,855.2135 411.0384,855.2135 L411.0384,873.8802 " fill="#66757F" style="stroke:;stroke-width:0;stroke-dasharray:;"/><path d="M409.8717,856.3802 C409.8717,855.0969 410.8261,854.4844 411.9927,855.0193 L421.7502,859.4917 C422.9168,860.0266 422.9168,860.9016 421.7502,861.436 L411.9927,865.9084 C410.8261,866.4427 409.8717,865.8302 409.8717,864.5469 L409.8717,856.3802 " fill="#DD2E44" style="stroke:;stroke-width:0;stroke-dasharray:;"/><text fill="#000000" font-family="sans-serif" font-size="14" lengthAdjust="spacing" textLength="3.8896" x="424.4551" y="873.7207">&#160;</text><rect fill="#F1F1F1" height="37.6094" rx="12.5" ry="12.5" style="stroke:#181818;stroke-width:1.5;" width="48" x="488.3447" y="817.8125"/><text fill="#000000" font-family="sans-serif" font-size="14" lengthAdjust="spacing" textLength="28" x="498.3447" y="842.3457">&#26469;&#28304;</text><rect fill="#F1F1F1" height="37.6094" rx="12.5" ry="12.5" style="stroke:#181818;stroke-width:1.5;" width="76" x="586.3447" y="817.8125"/><text fill="#000000" font-family="sans-serif" font-size="14" lengthAdjust="spacing" textLength="56" x="596.3447" y="842.3457">&#34987;&#32487;&#25215;&#20154;</text><rect fill="#F1F1F1" height="37.6094" rx="12.5" ry="12.5" style="stroke:#181818;stroke-width:1.5;" width="90" x="712.3447" y="817.8125"/><text fill="#000000" font-family="sans-serif" font-size="14" lengthAdjust="spacing" textLength="70" x="722.3447" y="842.3457">&#21807;&#19968;&#32487;&#25215;&#20154;</text><path d="M662.3447,836.6172 L672.3447,836.6172 C687.3447,836.6172 687.3447,836.6172 702.3447,836.6172 L712.3447,836.6172 " fill="none" style="stroke:#181818;stroke-width:1;"/><path d="M536.3447,836.6172 L546.3447,836.6172 C561.3447,836.6172 561.3447,836.6172 576.3447,836.6172 L586.3447,836.6172 " fill="none" style="stroke:#181818;stroke-width:1;"/><path d="M438.3447,865.4219 L448.3447,865.4219 C463.3447,865.4219 463.3447,836.6172 478.3447,836.6172 L488.3447,836.6172 " fill="none" style="stroke:#181818;stroke-width:1;"/><rect fill="#F1F1F1" height="37.6094" rx="12.5" ry="12.5" style="stroke:#181818;stroke-width:1.5;" width="76" x="488.3447" y="875.4219"/><text fill="#000000" font-family="sans-serif" font-size="14" lengthAdjust="spacing" textLength="56" x="498.3447" y="899.9551">&#20309;&#26102;&#29983;&#25928;</text><rect fill="#F1F1F1" height="37.6094" rx="12.5" ry="12.5" style="stroke:#181818;stroke-width:1.5;" width="118" x="614.3447" y="875.4219"/><text fill="#000000" font-family="sans-serif" font-size="14" lengthAdjust="spacing" textLength="98" x="624.3447" y="899.9551">&#65288;&#32487;&#25215;&#65289;&#24320;&#22987;&#26102;</text><rect fill="#F1F1F1" height="37.6094" rx="12.5" ry="12.5" style="stroke:#181818;stroke-width:1.5;" width="118" x="782.3447" y="875.4219"/><text fill="#000000" font-family="sans-serif" font-size="14" lengthAdjust="spacing" textLength="98" x="792.3447" y="899.9551">&#34987;&#32487;&#25215;&#20154;&#27515;&#20129;&#26102;</text><path d="M732.3447,894.2266 L742.3447,894.2266 C757.3447,894.2266 757.3447,894.2266 772.3447,894.2266 L782.3447,894.2266 " fill="none" style="stroke:#181818;stroke-width:1;"/><path d="M564.3447,894.2266 L574.3447,894.2266 C589.3447,894.2266 589.3447,894.2266 604.3447,894.2266 L614.3447,894.2266 " fill="none" style="stroke:#181818;stroke-width:1;"/><path d="M438.3447,865.4219 L448.3447,865.4219 C463.3447,865.4219 463.3447,894.2266 478.3447,894.2266 L488.3447,894.2266 " fill="none" style="stroke:#181818;stroke-width:1;"/><path d="M296,822.2148 L306,822.2148 C321,822.2148 321,865.4219 336,865.4219 L346,865.4219 " fill="none" style="stroke:#181818;stroke-width:1;"/><rect fill="#F1F1F1" height="37.6094" rx="12.5" ry="12.5" style="stroke:#181818;stroke-width:1.5;" width="91.5654" x="346" y="1005.043"/><text fill="#000000" font-family="sans-serif" font-size="14" lengthAdjust="spacing" textLength="71.5654" x="356" y="1029.5762">5. &#20107;&#23454;&#34892;&#20026;</text><rect fill="#F1F1F1" height="37.6094" rx="12.5" ry="12.5" style="stroke:#181818;stroke-width:1.5;" width="48" x="487.5654" y="933.0313"/><text fill="#000000" font-family="sans-serif" font-size="14" lengthAdjust="spacing" textLength="28" x="497.5654" y="957.5645">&#26469;&#28304;</text><rect fill="#F1F1F1" height="37.6094" rx="12.5" ry="12.5" style="stroke:#181818;stroke-width:1.5;" width="132" x="585.5654" y="933.0313"/><text fill="#000000" font-family="sans-serif" font-size="14" lengthAdjust="spacing" textLength="112" x="595.5654" y="957.5645">&#21487;&#33021;&#26159;&#20010;&#20154;&#25110;&#20844;&#21496;</text><path d="M535.5654,951.8359 L545.5654,951.8359 C560.5654,951.8359 560.5654,951.8359 575.5654,951.8359 L585.5654,951.8359 " fill="none" style="stroke:#181818;stroke-width:1;"/><path d="M437.5654,1023.8477 L447.5654,1023.8477 C462.5654,1023.8477 462.5654,951.8359 477.5654,951.8359 L487.5654,951.8359 " fill="none" style="stroke:#181818;stroke-width:1;"/><rect fill="#F1F1F1" height="37.6094" rx="12.5" ry="12.5" style="stroke:#181818;stroke-width:1.5;" width="48" x="487.5654" y="1019.4453"/><text fill="#000000" font-family="sans-serif" font-size="14" lengthAdjust="spacing" textLength="28" x="497.5654" y="1043.9785">&#24314;&#36896;</text><rect fill="#F1F1F1" height="37.6094" rx="12.5" ry="12.5" style="stroke:#181818;stroke-width:1.5;" width="48" x="585.5654" y="1019.4453"/><text fill="#000000" font-family="sans-serif" font-size="14" lengthAdjust="spacing" textLength="28" x="595.5654" y="1043.9785">&#24314;&#36896;</text><rect fill="#F1F1F1" height="37.6094" rx="12.5" ry="12.5" style="stroke:#181818;stroke-width:1.5;" width="76" x="683.5654" y="990.6406"/><text fill="#000000" font-family="sans-serif" font-size="14" lengthAdjust="spacing" textLength="56" x="693.5654" y="1015.1738">&#21512;&#27861;&#24314;&#36896;</text><rect fill="#F1F1F1" height="37.6094" rx="12.5" ry="12.5" style="stroke:#181818;stroke-width:1.5;" width="118" x="809.5654" y="990.6406"/><text fill="#000000" font-family="sans-serif" font-size="14" lengthAdjust="spacing" textLength="98" x="819.5654" y="1015.1738">&#23436;&#25104;&#26102;&#25110;&#25104;&#23601;&#26102;</text><path d="M759.5654,1009.4453 L769.5654,1009.4453 C784.5654,1009.4453 784.5654,1009.4453 799.5654,1009.4453 L809.5654,1009.4453 " fill="none" style="stroke:#181818;stroke-width:1;"/><path d="M633.5654,1038.25 L643.5654,1038.25 C658.5654,1038.25 658.5654,1009.4453 673.5654,1009.4453 L683.5654,1009.4453 " fill="none" style="stroke:#181818;stroke-width:1;"/><rect fill="#F1F1F1" height="37.6094" rx="12.5" ry="12.5" style="stroke:#181818;stroke-width:1.5;" width="76" x="683.5654" y="1048.25"/><text fill="#000000" font-family="sans-serif" font-size="14" lengthAdjust="spacing" textLength="56" x="693.5654" y="1072.7832">&#36829;&#27861;&#24314;&#36896;</text><path d="M633.5654,1038.25 L643.5654,1038.25 C658.5654,1038.25 658.5654,1067.0547 673.5654,1067.0547 L683.5654,1067.0547 " fill="none" style="stroke:#181818;stroke-width:1;"/><path d="M535.5654,1038.25 L545.5654,1038.25 C560.5654,1038.25 560.5654,1038.25 575.5654,1038.25 L585.5654,1038.25 " fill="none" style="stroke:#181818;stroke-width:1;"/><path d="M437.5654,1023.8477 L447.5654,1023.8477 C462.5654,1023.8477 462.5654,1038.25 477.5654,1038.25 L487.5654,1038.25 " fill="none" style="stroke:#181818;stroke-width:1;"/><rect fill="#F1F1F1" height="37.6094" rx="12.5" ry="12.5" style="stroke:#181818;stroke-width:1.5;" width="48" x="487.5654" y="1077.0547"/><text fill="#000000" font-family="sans-serif" font-size="14" lengthAdjust="spacing" textLength="28" x="497.5654" y="1101.5879">&#25286;&#38500;</text><path d="M437.5654,1023.8477 L447.5654,1023.8477 C462.5654,1023.8477 462.5654,1095.8594 477.5654,1095.8594 L487.5654,1095.8594 " fill="none" style="stroke:#181818;stroke-width:1;"/><path d="M296,822.2148 L306,822.2148 C321,822.2148 321,1023.8477 336,1023.8477 L346,1023.8477 " fill="none" style="stroke:#181818;stroke-width:1;"/><path d="M86,586.6367 L96,586.6367 C111,586.6367 111,822.2148 126,822.2148 L136,822.2148 " fill="none" style="stroke:#181818;stroke-width:1;"/><!--SRC=[xLZRJXj76BxVfvYgDq1aSuYB8aGHmG6r4OwYckGM3Ul1J5ZlMEkn8xUgH0ebfXmlm434CQKbFG4jQcGCWPVPNTjNUON-ksl3sdYzIzMhoWYXdVc_-Vxp7EXFSApm69KZCHmNX4-eB4h9245-Vply9dXQ8krn2Siy6PDy1im7E9yvxwSm9mYSSecWmjml-lPquIABV4YVczAtvc08tzQyjhoX_V1E4DggnmX-sb2d7scxUJM_fAraj9M5mfiPEmZrzd25OZcQbB0oEYxXw2YJH-CimNlwK6ylYSKdS88c-lfCDeknkF-ki7HoFM5DgcSdscBMqj68j6PPyUyzDRTqXsLjI3kOqJApDJnMHEg8RelHFNEubYbhlOSAc-V5enCzarNp1-hv1lgyAex6yFnGMrxNbhFQvNgjulMzXefjud-XM5lQrGxdwoYsXICxeyyiUuRe6yTsqjB-cPgRXw9GSrE5mqK7WkBKTF5uhVHwiV3T6NpV9gXh11J5XpLz_NrXTHUShgsNt2AugEOFwmJD2alD0aUq5RjojPUsTnfKkysqBZ_ILw-q_9Ps-KfVVL-RrUsVzFnAlNoQQsfzSNBJ4d-yo5XAjDbJxUZDnuiv2mfhR0RT1uDErxJBUJtxMZtx-UwDwMRvwLffyssz-9t_LVpnbRwLrtTcxkoOtMG7nm9-et_qkQl_tANYszyiPZMVTohzrMEZikkYlFXdhGJFj8ifg7cxPywsw7-Sg_dzwYXyveT2dTUETehx2sekxzL5RVcuEFq1cbRD_MemPxBQzxzhoxdQvZZFbwRswgslBoWBLypyEKFAiAC5FRC2xe1s-D1E_cmGXglj-fJWu_niQVD04Fe9d8QL4x6_-e3iDO- -Fg4yyOZYg89Zw1kWyez9IM9-8JI0nScemf9o9CWafY29HYUu8GVfjmOsWfL9XKGSu6Lf1HnL294RCPi06phj0avNi4o1QdSosX9MeF6a4fUSe9Qm0dLspEQKmX9ER9yE3GqC18CLP9f84dlfWBM49bJmnp2LHoP8h48yn6GUfbyJTBz3CEIL3dQFfHtTuG1FJARDbDgnNOrZQOSEm9Gu0NNdoHWQbPb2FEGLeM4gazhv6mgFQXjI6MIop4GYSwVOo6PIh1HOKsCIO6fOeNaisqI5NcVjHinP37Dc6Izpq4QPZANWNR5F5HB72ZPcxhBiuHXJk5lPUUNY7FBEtJhD8rkGnQ3Tk5Cvb5SwqHdfaqaKCWgazc0sshNSCXaX96vlY6e5Wx2BZaaqCU6yvTdMLsjxEK5vRMmSr3nXt5sJwPMOnh87hqGS8VnQ6HP56d6k-Qgjs8rv75enOUjl68iaX5-Gf4kNCmbCK5Z4Le4kFLPPOUg1smpbD4KUYhPskBMTOubuTUJ61SW5TgMEKJX1ZRtVIqsLZq63F94SUq54WzufEZW5vpPHFFAcA8CECgcP6xCHTy_XljdfgnktSQzMrRBh6IB0dzxsybMa-G9lli2RB_3c2xpv0c- -mF-FB_2dnh-VduM6KOee2UDYqUdlwkWA-1-qX357JrWATNQZZiwUGA0dq8s2uH5aY5k5bj2N8oZ1ad2lGX6uTIXqB6aSnQt2Ovp2wAia7CmnqeECKSj8g1M51okJQ51EKON9CJYCXSVFGnO8VS5uECwu2UuE-0OeHs6YW5deUKXuHCPnKkAmL6GHAaTxqBEH8Ty3OTYePXm5HN1D2i9fpfKqoCB_0000]--></g></svg>