<svg xmlns="http://www.w3.org/2000/svg" xmlns:xlink="http://www.w3.org/1999/xlink" contentStyleType="text/css" height="699px" preserveAspectRatio="none" style="width:1096px;height:699px;background:#FFFFFF;" version="1.1" viewBox="0 0 1096 699" width="1096px" zoomAndPan="magnify"><title>&#29289;&#26435; - &#20307;&#31995;</title><defs/><g><text fill="#000000" font-family="sans-serif" font-size="14" font-weight="bold" lengthAdjust="spacing" textLength="70.1914" x="511.7388" y="34.5332">&#29289;&#26435; - &#20307;&#31995;</text><rect fill="#F1F1F1" height="37.6094" rx="12.5" ry="12.5" style="stroke:#181818;stroke-width:1.5;" width="76" x="542" y="349.2266"/><text fill="#000000" font-family="sans-serif" font-size="14" lengthAdjust="spacing" textLength="56" x="552" y="373.7598">&#29289;&#26435;&#20307;&#31995;</text><rect fill="#F1F1F1" height="37.6094" rx="12.5" ry="12.5" style="stroke:#181818;stroke-width:1.5;" width="48" x="668" y="349.2266"/><text fill="#000000" font-family="sans-serif" font-size="14" lengthAdjust="spacing" textLength="28" x="678" y="373.7598">&#20855;&#35937;</text><rect fill="#90EE90" height="37.6094" rx="12.5" ry="12.5" style="stroke:#181818;stroke-width:1.5;" width="65.8896" x="766" y="145.0234"/><text fill="#000000" font-family="sans-serif" font-size="14" lengthAdjust="spacing" textLength="42" x="776" y="169.5566">&#25152;&#26377;&#26435;</text><rect fill="#F1F1F1" height="37.6094" rx="12.5" ry="12.5" style="stroke:#181818;stroke-width:1.5;" width="76" x="881.8896" y="87.4141"/><text fill="#000000" font-family="sans-serif" font-size="14" lengthAdjust="spacing" textLength="56" x="891.8896" y="111.9473">&#20351;&#29992;&#20215;&#20540;</text><rect fill="#F1F1F1" height="37.6094" rx="12.5" ry="12.5" style="stroke:#181818;stroke-width:1.5;" width="48" x="1007.8896" y="58.6094"/><text fill="#000000" font-family="sans-serif" font-size="14" lengthAdjust="spacing" textLength="28" x="1017.8896" y="83.1426">&#21344;&#26377;</text><path d="M957.8896,106.2188 L967.8896,106.2188 C982.8896,106.2188 982.8896,77.4141 997.8896,77.4141 L1007.8896,77.4141 " fill="none" style="stroke:#181818;stroke-width:1;"/><rect fill="#F1F1F1" height="37.6094" rx="12.5" ry="12.5" style="stroke:#181818;stroke-width:1.5;" width="48" x="1007.8896" y="116.2188"/><text fill="#000000" font-family="sans-serif" font-size="14" lengthAdjust="spacing" textLength="28" x="1017.8896" y="140.752">&#20351;&#29992;</text><path d="M957.8896,106.2188 L967.8896,106.2188 C982.8896,106.2188 982.8896,135.0234 997.8896,135.0234 L1007.8896,135.0234 " fill="none" style="stroke:#181818;stroke-width:1;"/><path d="M831.8896,163.8281 L841.8896,163.8281 C856.8896,163.8281 856.8896,106.2188 871.8896,106.2188 L881.8896,106.2188 " fill="none" style="stroke:#181818;stroke-width:1;"/><rect fill="#F1F1F1" height="37.6094" rx="12.5" ry="12.5" style="stroke:#181818;stroke-width:1.5;" width="76" x="881.8896" y="202.6328"/><text fill="#000000" font-family="sans-serif" font-size="14" lengthAdjust="spacing" textLength="56" x="891.8896" y="227.166">&#20132;&#25442;&#20215;&#20540;</text><rect fill="#F1F1F1" height="37.6094" rx="12.5" ry="12.5" style="stroke:#181818;stroke-width:1.5;" width="48" x="1007.8896" y="173.8281"/><text fill="#000000" font-family="sans-serif" font-size="14" lengthAdjust="spacing" textLength="28" x="1017.8896" y="198.3613">&#25910;&#30410;</text><path d="M957.8896,221.4375 L967.8896,221.4375 C982.8896,221.4375 982.8896,192.6328 997.8896,192.6328 L1007.8896,192.6328 " fill="none" style="stroke:#181818;stroke-width:1;"/><rect fill="#F1F1F1" height="37.6094" rx="12.5" ry="12.5" style="stroke:#181818;stroke-width:1.5;" width="48" x="1007.8896" y="231.4375"/><text fill="#000000" font-family="sans-serif" font-size="14" lengthAdjust="spacing" textLength="28" x="1017.8896" y="255.9707">&#22788;&#20998;</text><path d="M957.8896,221.4375 L967.8896,221.4375 C982.8896,221.4375 982.8896,250.2422 997.8896,250.2422 L1007.8896,250.2422 " fill="none" style="stroke:#181818;stroke-width:1;"/><path d="M831.8896,163.8281 L841.8896,163.8281 C856.8896,163.8281 856.8896,221.4375 871.8896,221.4375 L881.8896,221.4375 " fill="none" style="stroke:#181818;stroke-width:1;"/><path d="M716,368.0313 L726,368.0313 C741,368.0313 741,163.8281 756,163.8281 L766,163.8281 " fill="none" style="stroke:#181818;stroke-width:1;"/><rect fill="#90EE90" height="37.6094" rx="12.5" ry="12.5" style="stroke:#181818;stroke-width:1.5;" width="79.8896" x="766" y="346.6563"/><text fill="#000000" font-family="sans-serif" font-size="14" lengthAdjust="spacing" textLength="56" x="776" y="371.1895">&#29992;&#30410;&#29289;&#26435;</text><rect fill="#F1F1F1" height="37.6094" rx="12.5" ry="12.5" style="stroke:#181818;stroke-width:1.5;" width="48" x="895.8896" y="289.0469"/><text fill="#000000" font-family="sans-serif" font-size="14" lengthAdjust="spacing" textLength="28" x="905.8896" y="313.5801">&#21344;&#26377;</text><path d="M845.8896,365.4609 L855.8896,365.4609 C870.8896,365.4609 870.8896,307.8516 885.8896,307.8516 L895.8896,307.8516 " fill="none" style="stroke:#181818;stroke-width:1;"/><rect fill="#F1F1F1" height="37.6094" rx="12.5" ry="12.5" style="stroke:#181818;stroke-width:1.5;" width="48" x="895.8896" y="346.6563"/><text fill="#000000" font-family="sans-serif" font-size="14" lengthAdjust="spacing" textLength="28" x="905.8896" y="371.1895">&#20351;&#29992;</text><path d="M845.8896,365.4609 L855.8896,365.4609 C870.8896,365.4609 870.8896,365.4609 885.8896,365.4609 L895.8896,365.4609 " fill="none" style="stroke:#181818;stroke-width:1;"/><rect fill="#F1F1F1" height="37.6094" rx="12.5" ry="12.5" style="stroke:#181818;stroke-width:1.5;" width="48" x="895.8896" y="404.2656"/><text fill="#000000" font-family="sans-serif" font-size="14" lengthAdjust="spacing" textLength="28" x="905.8896" y="428.7988">&#25910;&#30410;</text><path d="M845.8896,365.4609 L855.8896,365.4609 C870.8896,365.4609 870.8896,423.0703 885.8896,423.0703 L895.8896,423.0703 " fill="none" style="stroke:#181818;stroke-width:1;"/><path d="M716,368.0313 L726,368.0313 C741,368.0313 741,365.4609 756,365.4609 L766,365.4609 " fill="none" style="stroke:#181818;stroke-width:1;"/><rect fill="#90EE90" height="37.6094" rx="12.5" ry="12.5" style="stroke:#181818;stroke-width:1.5;" width="79.8896" x="766" y="550.8594"/><text fill="#000000" font-family="sans-serif" font-size="14" lengthAdjust="spacing" textLength="56" x="776" y="575.3926">&#25285;&#20445;&#29289;&#26435;</text><rect fill="#90EE90" height="37.6094" rx="12.5" ry="12.5" style="stroke:#181818;stroke-width:1.5;" width="65.8896" x="895.8896" y="493.25"/><text fill="#000000" font-family="sans-serif" font-size="14" lengthAdjust="spacing" textLength="42" x="905.8896" y="517.7832">&#25269;&#25276;&#26435;</text><rect fill="#F1F1F1" height="42.75" rx="12.5" ry="12.5" style="stroke:#181818;stroke-width:1.5;" width="72.8896" x="1011.7793" y="461.875"/><text fill="#000000" font-family="sans-serif" font-size="14" lengthAdjust="spacing" textLength="28" x="1021.7793" y="491.5488">&#21344;&#26377;</text><path d="M1066.2299,482.3762 L1073.3669,475.2397 C1073.9363,474.6703 1073.9363,473.7469 1073.3669,473.1776 C1072.797,472.6077 1071.8742,472.6077 1071.3049,473.1776 L1064.1678,480.3141 L1057.0313,473.1776 C1056.4619,472.6077 1055.5379,472.6077 1054.9692,473.1776 C1054.3993,473.7469 1054.3993,474.6703 1054.9692,475.2397 L1062.1057,482.3762 L1054.9529,489.5296 C1054.3829,490.0995 1054.3829,491.0223 1054.9529,491.5917 C1055.2375,491.8763 1055.6109,492.0187 1055.9842,492.0187 C1056.3575,492.0187 1056.7309,491.8763 1057.0155,491.5917 L1064.1684,484.4383 L1071.3049,491.5748 C1071.5895,491.8594 1071.9629,492.0018 1072.3362,492.0018 C1072.7095,492.0018 1073.0823,491.8594 1073.3675,491.5748 C1073.9369,491.0048 1073.9369,490.082 1073.3675,489.5127 L1066.2299,482.3762 " fill="#FE0000" style="stroke:;stroke-width:0;stroke-dasharray:;"/><path d="M961.7793,512.0547 L971.7793,512.0547 C986.7793,512.0547 986.7793,483.25 1001.7793,483.25 L1011.7793,483.25 " fill="none" style="stroke:#181818;stroke-width:1;"/><rect fill="#F1F1F1" height="37.6094" rx="12.5" ry="12.5" style="stroke:#181818;stroke-width:1.5;" width="48" x="1011.7793" y="524.625"/><text fill="#000000" font-family="sans-serif" font-size="14" lengthAdjust="spacing" textLength="28" x="1021.7793" y="549.1582">&#22788;&#20998;</text><path d="M961.7793,512.0547 L971.7793,512.0547 C986.7793,512.0547 986.7793,543.4297 1001.7793,543.4297 L1011.7793,543.4297 " fill="none" style="stroke:#181818;stroke-width:1;"/><path d="M845.8896,569.6641 L855.8896,569.6641 C870.8896,569.6641 870.8896,512.0547 885.8896,512.0547 L895.8896,512.0547 " fill="none" style="stroke:#181818;stroke-width:1;"/><rect fill="#90EE90" height="37.6094" rx="12.5" ry="12.5" style="stroke:#181818;stroke-width:1.5;" width="65.8896" x="895.8896" y="582.2344"/><text fill="#000000" font-family="sans-serif" font-size="14" lengthAdjust="spacing" textLength="42" x="905.8896" y="606.7676">&#36136;&#25276;&#26435;</text><rect fill="#F1F1F1" height="37.6094" rx="12.5" ry="12.5" style="stroke:#181818;stroke-width:1.5;" width="48" x="1011.7793" y="582.2344"/><text fill="#000000" font-family="sans-serif" font-size="14" lengthAdjust="spacing" textLength="28" x="1021.7793" y="606.7676">&#21344;&#26377;</text><path d="M961.7793,601.0391 L971.7793,601.0391 C986.7793,601.0391 986.7793,601.0391 1001.7793,601.0391 L1011.7793,601.0391 " fill="none" style="stroke:#181818;stroke-width:1;"/><path d="M845.8896,569.6641 L855.8896,569.6641 C870.8896,569.6641 870.8896,601.0391 885.8896,601.0391 L895.8896,601.0391 " fill="none" style="stroke:#181818;stroke-width:1;"/><rect fill="#90EE90" height="37.6094" rx="12.5" ry="12.5" style="stroke:#181818;stroke-width:1.5;" width="65.8896" x="895.8896" y="639.8438"/><text fill="#000000" font-family="sans-serif" font-size="14" lengthAdjust="spacing" textLength="42" x="905.8896" y="664.377">&#30041;&#32622;&#26435;</text><rect fill="#F1F1F1" height="37.6094" rx="12.5" ry="12.5" style="stroke:#181818;stroke-width:1.5;" width="48" x="1011.7793" y="639.8438"/><text fill="#000000" font-family="sans-serif" font-size="14" lengthAdjust="spacing" textLength="28" x="1021.7793" y="664.377">&#21344;&#26377;</text><path d="M961.7793,658.6484 L971.7793,658.6484 C986.7793,658.6484 986.7793,658.6484 1001.7793,658.6484 L1011.7793,658.6484 " fill="none" style="stroke:#181818;stroke-width:1;"/><path d="M845.8896,569.6641 L855.8896,569.6641 C870.8896,569.6641 870.8896,658.6484 885.8896,658.6484 L895.8896,658.6484 " fill="none" style="stroke:#181818;stroke-width:1;"/><path d="M716,368.0313 L726,368.0313 C741,368.0313 741,569.6641 756,569.6641 L766,569.6641 " fill="none" style="stroke:#181818;stroke-width:1;"/><rect fill="#90EE90" height="37.6094" rx="12.5" ry="12.5" style="stroke:#181818;stroke-width:1.5;" width="51.8896" x="766" y="608.4688"/><text fill="#000000" font-family="sans-serif" font-size="14" lengthAdjust="spacing" textLength="28" x="776" y="633.002">&#21344;&#26377;</text><path d="M716,368.0313 L726,368.0313 C741,368.0313 741,627.2734 756,627.2734 L766,627.2734 " fill="none" style="stroke:#181818;stroke-width:1;"/><path d="M618,368.0313 L628,368.0313 C643,368.0313 643,368.0313 658,368.0313 L668,368.0313 " fill="none" style="stroke:#181818;stroke-width:1;"/><rect fill="#F1F1F1" height="37.6094" rx="12.5" ry="12.5" style="stroke:#181818;stroke-width:1.5;" width="48" x="444" y="349.2266"/><text fill="#000000" font-family="sans-serif" font-size="14" lengthAdjust="spacing" textLength="28" x="454" y="373.7598">&#20849;&#24615;</text><rect fill="#F1F1F1" height="37.6094" rx="12.5" ry="12.5" style="stroke:#181818;stroke-width:1.5;" width="48" x="346" y="118.7891"/><text fill="#000000" font-family="sans-serif" font-size="14" lengthAdjust="spacing" textLength="28" x="356" y="143.3223">&#20998;&#31867;</text><rect fill="#F1F1F1" height="37.6094" rx="12.5" ry="12.5" style="stroke:#181818;stroke-width:1.5;" width="104" x="192" y="61.1797"/><text fill="#000000" font-family="sans-serif" font-size="14" lengthAdjust="spacing" textLength="84" x="202" y="85.7129">&#19981;&#21160;&#20135;&#21644;&#21160;&#20135;</text><path d="M346,137.5938 L336,137.5938 C321,137.5938 321,79.9844 306,79.9844 L296,79.9844 " fill="none" style="stroke:#181818;stroke-width:1;"/><rect fill="#F1F1F1" height="37.6094" rx="12.5" ry="12.5" style="stroke:#181818;stroke-width:1.5;" width="90" x="206" y="118.7891"/><text fill="#000000" font-family="sans-serif" font-size="14" lengthAdjust="spacing" textLength="70" x="216" y="143.3223">&#21407;&#29289;&#21644;&#23411;&#24687;</text><path d="M346,137.5938 L336,137.5938 C321,137.5938 321,137.5938 306,137.5938 L296,137.5938 " fill="none" style="stroke:#181818;stroke-width:1;"/><rect fill="#F1F1F1" height="37.6094" rx="12.5" ry="12.5" style="stroke:#181818;stroke-width:1.5;" width="90" x="206" y="176.3984"/><text fill="#000000" font-family="sans-serif" font-size="14" lengthAdjust="spacing" textLength="70" x="216" y="200.9316">&#20027;&#29289;&#21644;&#20174;&#29289;</text><path d="M346,137.5938 L336,137.5938 C321,137.5938 321,195.2031 306,195.2031 L296,195.2031 " fill="none" style="stroke:#181818;stroke-width:1;"/><path d="M444,368.0313 L434,368.0313 C419,368.0313 419,137.5938 404,137.5938 L394,137.5938 " fill="none" style="stroke:#181818;stroke-width:1;"/><rect fill="#F1F1F1" height="37.6094" rx="12.5" ry="12.5" style="stroke:#181818;stroke-width:1.5;" width="76" x="318" y="291.6172"/><text fill="#000000" font-family="sans-serif" font-size="14" lengthAdjust="spacing" textLength="56" x="328" y="316.1504">&#27861;&#24459;&#25928;&#21147;</text><rect fill="#F1F1F1" height="37.6094" rx="12.5" ry="12.5" style="stroke:#181818;stroke-width:1.5;" width="76" x="192" y="234.0078"/><text fill="#000000" font-family="sans-serif" font-size="14" lengthAdjust="spacing" textLength="56" x="202" y="258.541">&#36861;&#21450;&#25928;&#21147;</text><path d="M318,310.4219 L308,310.4219 C293,310.4219 293,252.8125 278,252.8125 L268,252.8125 " fill="none" style="stroke:#181818;stroke-width:1;"/><rect fill="#F1F1F1" height="37.6094" rx="12.5" ry="12.5" style="stroke:#181818;stroke-width:1.5;" width="76" x="192" y="291.6172"/><text fill="#000000" font-family="sans-serif" font-size="14" lengthAdjust="spacing" textLength="56" x="202" y="316.1504">&#25490;&#20182;&#25928;&#21147;</text><path d="M318,310.4219 L308,310.4219 C293,310.4219 293,310.4219 278,310.4219 L268,310.4219 " fill="none" style="stroke:#181818;stroke-width:1;"/><rect fill="#F1F1F1" height="37.6094" rx="12.5" ry="12.5" style="stroke:#181818;stroke-width:1.5;" width="76" x="192" y="349.2266"/><text fill="#000000" font-family="sans-serif" font-size="14" lengthAdjust="spacing" textLength="56" x="202" y="373.7598">&#20248;&#20808;&#25928;&#21147;</text><path d="M318,310.4219 L308,310.4219 C293,310.4219 293,368.0313 278,368.0313 L268,368.0313 " fill="none" style="stroke:#181818;stroke-width:1;"/><path d="M444,368.0313 L434,368.0313 C419,368.0313 419,310.4219 404,310.4219 L394,310.4219 " fill="none" style="stroke:#181818;stroke-width:1;"/><rect fill="#F1F1F1" height="37.6094" rx="12.5" ry="12.5" style="stroke:#181818;stroke-width:1.5;" width="48" x="346" y="522.0547"/><text fill="#000000" font-family="sans-serif" font-size="14" lengthAdjust="spacing" textLength="28" x="356" y="546.5879">&#20445;&#25252;</text><rect fill="#F1F1F1" height="37.6094" rx="12.5" ry="12.5" style="stroke:#181818;stroke-width:1.5;" width="118" x="178" y="406.8359"/><text fill="#000000" font-family="sans-serif" font-size="14" lengthAdjust="spacing" textLength="98" x="188" y="431.3691">&#30830;&#35748;&#29289;&#26435;&#35831;&#27714;&#26435;</text><path d="M346,540.8594 L336,540.8594 C321,540.8594 321,425.6406 306,425.6406 L296,425.6406 " fill="none" style="stroke:#181818;stroke-width:1;"/><rect fill="#F1F1F1" height="37.6094" rx="12.5" ry="12.5" style="stroke:#181818;stroke-width:1.5;" width="90" x="206" y="522.0547"/><text fill="#000000" font-family="sans-serif" font-size="14" lengthAdjust="spacing" textLength="70" x="216" y="546.5879">&#29289;&#19978;&#35831;&#27714;&#26435;</text><rect fill="#F1F1F1" height="37.6094" rx="12.5" ry="12.5" style="stroke:#181818;stroke-width:1.5;" width="90" x="66" y="464.4453"/><text fill="#000000" font-family="sans-serif" font-size="14" lengthAdjust="spacing" textLength="70" x="76" y="488.9785">&#29289;&#26435;&#35831;&#27714;&#26435;</text><path d="M206,540.8594 L196,540.8594 C181,540.8594 181,483.25 166,483.25 L156,483.25 " fill="none" style="stroke:#181818;stroke-width:1;"/><rect fill="#F1F1F1" height="37.6094" rx="12.5" ry="12.5" style="stroke:#181818;stroke-width:1.5;" width="118" x="38" y="522.0547"/><text fill="#000000" font-family="sans-serif" font-size="14" lengthAdjust="spacing" textLength="98" x="48" y="546.5879">&#21344;&#26377;&#20445;&#25252;&#35831;&#27714;&#26435;</text><path d="M206,540.8594 L196,540.8594 C181,540.8594 181,540.8594 166,540.8594 L156,540.8594 " fill="none" style="stroke:#181818;stroke-width:1;"/><rect fill="#F1F1F1" height="37.6094" rx="12.5" ry="12.5" style="stroke:#181818;stroke-width:1.5;" width="118" x="38" y="579.6641"/><text fill="#000000" font-family="sans-serif" font-size="14" lengthAdjust="spacing" textLength="98" x="48" y="604.1973">&#24674;&#22797;&#21407;&#29366;&#35831;&#27714;&#26435;</text><path d="M206,540.8594 L196,540.8594 C181,540.8594 181,598.4688 166,598.4688 L156,598.4688 " fill="none" style="stroke:#181818;stroke-width:1;"/><path d="M346,540.8594 L336,540.8594 C321,540.8594 321,540.8594 306,540.8594 L296,540.8594 " fill="none" style="stroke:#181818;stroke-width:1;"/><rect fill="#F1F1F1" height="37.6094" rx="12.5" ry="12.5" style="stroke:#181818;stroke-width:1.5;" width="90" x="206" y="637.2734"/><text fill="#000000" font-family="sans-serif" font-size="14" lengthAdjust="spacing" textLength="70" x="216" y="661.8066">&#20538;&#26435;&#35831;&#27714;&#26435;</text><rect fill="#F1F1F1" height="37.6094" rx="12.5" ry="12.5" style="stroke:#181818;stroke-width:1.5;" width="146" x="10" y="637.2734"/><text fill="#000000" font-family="sans-serif" font-size="14" lengthAdjust="spacing" textLength="126" x="20" y="661.8066">&#20405;&#26435;&#25439;&#23475;&#36180;&#20607;&#35831;&#27714;&#26435;</text><path d="M206,656.0781 L196,656.0781 C181,656.0781 181,656.0781 166,656.0781 L156,656.0781 " fill="none" style="stroke:#181818;stroke-width:1;"/><path d="M346,540.8594 L336,540.8594 C321,540.8594 321,656.0781 306,656.0781 L296,656.0781 " fill="none" style="stroke:#181818;stroke-width:1;"/><path d="M444,368.0313 L434,368.0313 C419,368.0313 419,540.8594 404,540.8594 L394,540.8594 " fill="none" style="stroke:#181818;stroke-width:1;"/><path d="M542,368.0313 L532,368.0313 C517,368.0313 517,368.0313 502,368.0313 L492,368.0313 " fill="none" style="stroke:#181818;stroke-width:1;"/><!--SRC=[xLTRJnj757xVNp5LNW39vbA48WiXWWDg8nn5CSdxU7Um9-pkMBEpJjsg4hGb0gUcKWfLgpHA4o65F9G8KKA48VmPxvgVqJDxmRicwpNlI0ZDdlFDTsvppendBO6vCAYf6RYgA5zHKzLjZQ1iTXJ-B57NoMXLnwQm3JqZOHd0PJnvbe9CKGGLEa6TpVVkgvzH1hNFVkySjXHb9125tpfP5iYY6W7L27BM3zpLTx22vSQppa5BBaTG-rFJQUorJzuvBtxr5xxSsNeDR5Buxw6xzY44jtnXkxK52u_CFTnnFZztTpQSnaiVTN5-vlpMY4hShHVjrXzHIVlqJsTzeoj1xVDNRcFNLtRUx5_ix_h1N7muTWz-WaMWsdpV_jI82yEuUwLEyn_txqsVk5VdhhrrTfiooCR77XFEwiaNoDgVZ-33RRvszWylZhQTjVCkGk6qN8cb-lZYu8sVdSrLy47MQNgQ6DKAjgWrCnFauEoyixtNRXqxgwSnbqEJdZx0dkowpRSnhBlziVEo4MxS_GMgwfc4FI0FJiTLgn4JCGjTEkG-NuUi9JAuZIEtSVf5NKYFfcznekM-oyrSyG_EntzxQVk3Ok_yrJdRJmLUseo2b5a23HOssMoyvwQzRffH0i5TYiiS6-W71Q5iIRU9jq9e3gihPSviKyipdN6aop9BFMX_b5WDynM8Cm4UQ4DmcHDYzcFs015qFGLS3x6COxESvBIl3A5LcrVr9AYl3A79WKM2uinAOhkri30tby-7o3hHTVOq0UihFQYIDJ0rboh428aNc2cAz7k2lXvJf3wiSdeke-Yn1BYrKlTA6iLEzCzb53e78hM2HWPpXfPDnia0TKLeaPgaLzwb6D1iNof9PffC9QP8oetf5SKlWIygwO3fOONcyNrJERsiMbSjc845yvqt1LYZpCHw_hhO1vnKCSTISfrjTqgCYxHZDoYN451taTPf0xBbcG7j9fAEGx0pYKwMpoHbg2YGHfFPRsgbLL8Zf1fjYBY1UPYY9PrQbUIH5zaVj_QqGaLlRXBCt6SYtP8NbLh7vW1HgLWZuj8OLbMug1FFV6mKfp4lGojQaVw6RvKKy1DYftGvqy45phJ82KpfiN27PwVAB2feZTnH8-rmPPnZdGmQI3S4g0LEfJOetA1ozWzofe9hK99RTka9KILzKdPm3UvjmWVahL467UHHipHccVU1qzsTzF76xT-hiRESUeSey6zwD7YAt3pgRnxrDu_wQptg7yWVoOyAYwX6k2LdrNXsOcnYCdjxg8W5kizgQ7mAZOtd9YTparCeNrn2KZsi31M-NK8Mis5K8mq66QSbMtRti78Frp1wQ4El6oI7vDVGKc4O5UT38PetQvGpqu3-LkuzBlWWz0qJnIeJ7dXgCZD71IeI3cwXnmNbBbd6jYvWgyeqQfPpwD7IGkQsiWXpmCPbC0IJDmy3Gl0ww8h_0m00]--></g></svg>