<svg xmlns="http://www.w3.org/2000/svg" xmlns:xlink="http://www.w3.org/1999/xlink" contentStyleType="text/css" height="406px" preserveAspectRatio="none" style="width:757px;height:406px;background:#FFFFFF;" version="1.1" viewBox="0 0 757 406" width="757px" zoomAndPan="magnify"><title>&#29289;&#26435;&#32534; - &#25285;&#20445;&#29289;&#26435; - &#21160;&#20135;&#25285;&#20445; - 7&#22823;&#23478;&#26063;</title><defs/><g><text fill="#000000" font-family="sans-serif" font-size="14" font-weight="bold" lengthAdjust="spacing" textLength="247.2354" x="253.6685" y="34.5332">&#29289;&#26435;&#32534; - &#25285;&#20445;&#29289;&#26435; - &#21160;&#20135;&#25285;&#20445; - 7&#22823;&#23478;&#26063;</text><rect fill="#F1F1F1" height="37.6094" rx="12.5" ry="12.5" style="stroke:#181818;stroke-width:1.5;" width="139.7861" x="10" y="202.6328"/><text fill="#000000" font-family="sans-serif" font-size="14" lengthAdjust="spacing" textLength="119.7861" x="20" y="227.166">&#21160;&#20135;&#25285;&#20445;&#30340;7&#22823;&#23478;&#26063;</text><rect fill="#F1F1F1" height="37.6094" rx="12.5" ry="12.5" style="stroke:#181818;stroke-width:1.5;" width="48" x="199.7861" y="202.6328"/><text fill="#000000" font-family="sans-serif" font-size="14" lengthAdjust="spacing" textLength="28" x="209.7861" y="227.166">&#21160;&#20135;</text><rect fill="#F1F1F1" height="37.6094" rx="12.5" ry="12.5" style="stroke:#181818;stroke-width:1.5;" width="69.7861" x="297.7861" y="145.0234"/><text fill="#000000" font-family="sans-serif" font-size="14" lengthAdjust="spacing" textLength="49.7861" x="307.7861" y="169.5566">5&#31867;&#20856;&#22411;</text><rect fill="#F1F1F1" height="37.6094" rx="12.5" ry="12.5" style="stroke:#181818;stroke-width:1.5;" width="48" x="417.5723" y="145.0234"/><text fill="#000000" font-family="sans-serif" font-size="14" lengthAdjust="spacing" textLength="28" x="427.5723" y="169.5566">&#29289;&#26435;</text><rect fill="#F1F1F1" height="37.6094" rx="12.5" ry="12.5" style="stroke:#181818;stroke-width:1.5;" width="62" x="515.5723" y="116.2188"/><text fill="#000000" font-family="sans-serif" font-size="14" lengthAdjust="spacing" textLength="42" x="525.5723" y="140.752">&#25269;&#25276;&#26435;</text><rect fill="#F1F1F1" height="37.6094" rx="12.5" ry="12.5" style="stroke:#181818;stroke-width:1.5;" width="48" x="627.5723" y="58.6094"/><text fill="#000000" font-family="sans-serif" font-size="14" lengthAdjust="spacing" textLength="28" x="637.5723" y="83.1426">&#26222;&#36890;</text><path d="M577.5723,135.0234 L587.5723,135.0234 C602.5723,135.0234 602.5723,77.4141 617.5723,77.4141 L627.5723,77.4141 " fill="none" style="stroke:#181818;stroke-width:1;"/><rect fill="#F1F1F1" height="37.6094" rx="12.5" ry="12.5" style="stroke:#181818;stroke-width:1.5;" width="48" x="627.5723" y="116.2188"/><text fill="#000000" font-family="sans-serif" font-size="14" lengthAdjust="spacing" textLength="28" x="637.5723" y="140.752">&#28014;&#21160;</text><path d="M577.5723,135.0234 L587.5723,135.0234 C602.5723,135.0234 602.5723,135.0234 617.5723,135.0234 L627.5723,135.0234 " fill="none" style="stroke:#181818;stroke-width:1;"/><rect fill="#F1F1F1" height="37.6094" rx="12.5" ry="12.5" style="stroke:#181818;stroke-width:1.5;" width="48" x="627.5723" y="173.8281"/><text fill="#000000" font-family="sans-serif" font-size="14" lengthAdjust="spacing" textLength="28" x="637.5723" y="198.3613">&#36229;&#32423;</text><path d="M577.5723,135.0234 L587.5723,135.0234 C602.5723,135.0234 602.5723,192.6328 617.5723,192.6328 L627.5723,192.6328 " fill="none" style="stroke:#181818;stroke-width:1;"/><path d="M465.5723,163.8281 L475.5723,163.8281 C490.5723,163.8281 490.5723,135.0234 505.5723,135.0234 L515.5723,135.0234 " fill="none" style="stroke:#181818;stroke-width:1;"/><rect fill="#F1F1F1" height="37.6094" rx="12.5" ry="12.5" style="stroke:#181818;stroke-width:1.5;" width="48" x="515.5723" y="173.8281"/><text fill="#000000" font-family="sans-serif" font-size="14" lengthAdjust="spacing" textLength="28" x="525.5723" y="198.3613">&#36136;&#26435;</text><path d="M465.5723,163.8281 L475.5723,163.8281 C490.5723,163.8281 490.5723,192.6328 505.5723,192.6328 L515.5723,192.6328 " fill="none" style="stroke:#181818;stroke-width:1;"/><rect fill="#F1F1F1" height="37.6094" rx="12.5" ry="12.5" style="stroke:#181818;stroke-width:1.5;" width="62" x="515.5723" y="231.4375"/><text fill="#000000" font-family="sans-serif" font-size="14" lengthAdjust="spacing" textLength="42" x="525.5723" y="255.9707">&#30041;&#32622;&#26435;</text><path d="M465.5723,163.8281 L475.5723,163.8281 C490.5723,163.8281 490.5723,250.2422 505.5723,250.2422 L515.5723,250.2422 " fill="none" style="stroke:#181818;stroke-width:1;"/><path d="M367.5723,163.8281 L377.5723,163.8281 C392.5723,163.8281 392.5723,163.8281 407.5723,163.8281 L417.5723,163.8281 " fill="none" style="stroke:#181818;stroke-width:1;"/><path d="M247.7861,221.4375 L257.7861,221.4375 C272.7861,221.4375 272.7861,163.8281 287.7861,163.8281 L297.7861,163.8281 " fill="none" style="stroke:#181818;stroke-width:1;"/><rect fill="#F1F1F1" height="37.6094" rx="12.5" ry="12.5" style="stroke:#181818;stroke-width:1.5;" width="83.7861" x="297.7861" y="317.8516"/><text fill="#000000" font-family="sans-serif" font-size="14" lengthAdjust="spacing" textLength="63.7861" x="307.7861" y="342.3848">2&#31867;&#38750;&#20856;&#22411;</text><rect fill="#F1F1F1" height="37.6094" rx="12.5" ry="12.5" style="stroke:#181818;stroke-width:1.5;" width="48" x="431.5723" y="317.8516"/><text fill="#000000" font-family="sans-serif" font-size="14" lengthAdjust="spacing" textLength="28" x="441.5723" y="342.3848">&#20538;&#26435;</text><rect fill="#F1F1F1" height="37.6094" rx="12.5" ry="12.5" style="stroke:#181818;stroke-width:1.5;" width="48" x="529.5723" y="317.8516"/><text fill="#000000" font-family="sans-serif" font-size="14" lengthAdjust="spacing" textLength="28" x="539.5723" y="342.3848">&#21512;&#21516;</text><rect fill="#F1F1F1" height="37.6094" rx="12.5" ry="12.5" style="stroke:#181818;stroke-width:1.5;" width="118" x="627.5723" y="289.0469"/><text fill="#000000" font-family="sans-serif" font-size="14" lengthAdjust="spacing" textLength="98" x="637.5723" y="313.5801">&#25152;&#26377;&#26435;&#20445;&#30041;&#20080;&#21334;</text><path d="M577.5723,336.6563 L587.5723,336.6563 C602.5723,336.6563 602.5723,307.8516 617.5723,307.8516 L627.5723,307.8516 " fill="none" style="stroke:#181818;stroke-width:1;"/><rect fill="#F1F1F1" height="37.6094" rx="12.5" ry="12.5" style="stroke:#181818;stroke-width:1.5;" width="76" x="627.5723" y="346.6563"/><text fill="#000000" font-family="sans-serif" font-size="14" lengthAdjust="spacing" textLength="56" x="637.5723" y="371.1895">&#34701;&#36164;&#31199;&#36161;</text><path d="M577.5723,336.6563 L587.5723,336.6563 C602.5723,336.6563 602.5723,365.4609 617.5723,365.4609 L627.5723,365.4609 " fill="none" style="stroke:#181818;stroke-width:1;"/><path d="M479.5723,336.6563 L489.5723,336.6563 C504.5723,336.6563 504.5723,336.6563 519.5723,336.6563 L529.5723,336.6563 " fill="none" style="stroke:#181818;stroke-width:1;"/><path d="M381.5723,336.6563 L391.5723,336.6563 C406.5723,336.6563 406.5723,336.6563 421.5723,336.6563 L431.5723,336.6563 " fill="none" style="stroke:#181818;stroke-width:1;"/><path d="M247.7861,221.4375 L257.7861,221.4375 C272.7861,221.4375 272.7861,336.6563 287.7861,336.6563 L297.7861,336.6563 " fill="none" style="stroke:#181818;stroke-width:1;"/><path d="M149.7861,221.4375 L159.7861,221.4375 C174.7861,221.4375 174.7861,221.4375 189.7861,221.4375 L199.7861,221.4375 " fill="none" style="stroke:#181818;stroke-width:1;"/><!--SRC=[xLTTRnD757sVNp5LNn8aEn-OW2A4WasY5iK8OSFxU7TO3vcTMStE6haLKX148W5KNg0AQjANIe6Ng9KQr58GVoPhXt_1dLrliauptkMrgXLPddlEd7jdxiTkba9DbFQPS7qI8FGD4mwFN8ghrHdu2tMVqvc04w4ZdrSChGAyIcAlCh0Xf9dc50yttmvs7Wq_lC8LF7YwSVXf9xN0CjvwS_X-BpN2ycBysrwy_sxmyqy8dHi3XwyVvq0CdmnF5gdXml2FV-ADl-BTfyV654ZzZHbJOB1rCDZwS1OsmhVtFw-_je47-n221Jnwjp7C1PS3_dnpTYp3bzl3Z_jvx1oUXnDztjazyr3n-lkpXU8NJ-8Npsn1RwuFVjc4ZUPINsuV_lrx_FoLxGoxpuyE7W_tVZqwU8ZG4eL2o8fXQRmsBYTPlu96XckCU8hu-4SGhdPuH9DV6DU9i-Of6Gct8RbKc3ElgmqEw0F3TObQKzIrq4TeHlOKfMAISaB8iVi5v7x6bOe8pnPq2cRK8581jr5JCAFQ3vOxb9AXJUtRbPLwlT78c7tAkRnluQPWGaLLdp3Hxb8_4rwHGhVO3nIVdqK6ftxG9I4BY-yopvwrqCErVfBIF7T-ybtcgNKmELselbB1C4z8HKla5UDL9kXf-ub4IRSJfOoO4DAXGjlkHYH9ILEGcZeSEATKeNdIs1p5ZhDs0clf4otJu8K6RqmAmXjVoxsfQ40KCPQlsNQr8vKkAhkoMbf3tdLHfvLKQqWVsatRoc6qqoPdqYUe1na5qVnbJffQHPbqAGto3J7kO1ccQ8Upi6iVURdzuzxkTva-VJSMDpUaBlQKdChf4r7YL0vngJvsHXo7kVQQ7nl5HSfteHN3N7_3sg5DSez61LqkEOIWf9khm88UotOaVW8PCirwzAgJQuT_ZNF2QTc3d1m1Sa4AfNq6Jr0p-ylKrEWnQCJ3g7EFEaRUTZka1yzjgahgzfY43agaPP6okVVIrtqowSSRTtAlZjLouJC4mTVbcT6hoFyld__Pby-Rvf-EsyrLtACgD3qrLvsVdQzLBqsrYCOtP0_FBU3PkSLQRR6sW1kjDZRmD9fgVj_6eOnWf60N6awnJcIgS1fT9ps2RqLGapvTn6OrrMvEuzPoPiJBeiUK53xK8Rf-fvcIy7TIjmAf4_92hL9d6hUeWh3mdIQwHk-IY6lOwaYN2MyHtswlL2wXLQZNY7ZW22P40mfPgpvWhIy0]--></g></svg>