<svg xmlns="http://www.w3.org/2000/svg" xmlns:xlink="http://www.w3.org/1999/xlink" contentStyleType="text/css" height="521px" preserveAspectRatio="none" style="width:588px;height:521px;background:#FFFFFF;" version="1.1" viewBox="0 0 588 521" width="588px" zoomAndPan="magnify"><title>&#29289;&#26435;&#32534; - &#25152;&#26377;&#26435; - &#20849;&#26377; - &#25353;&#20221;&#25152;&#26377;</title><defs/><g><text fill="#000000" font-family="sans-serif" font-size="14" font-weight="bold" lengthAdjust="spacing" textLength="210.5742" x="187.2129" y="34.5332">&#29289;&#26435;&#32534; - &#25152;&#26377;&#26435; - &#20849;&#26377; - &#25353;&#20221;&#25152;&#26377;</text><rect fill="#F1F1F1" height="37.6094" rx="12.5" ry="12.5" style="stroke:#181818;stroke-width:1.5;" width="76" x="10" y="260.2422"/><text fill="#000000" font-family="sans-serif" font-size="14" lengthAdjust="spacing" textLength="56" x="20" y="284.7754">&#25353;&#20221;&#25152;&#26377;</text><rect fill="#F1F1F1" height="37.6094" rx="12.5" ry="12.5" style="stroke:#181818;stroke-width:1.5;" width="76" x="136" y="202.6328"/><text fill="#000000" font-family="sans-serif" font-size="14" lengthAdjust="spacing" textLength="56" x="146" y="227.166">&#20869;&#37096;&#20851;&#31995;</text><rect fill="#F1F1F1" height="37.6094" rx="12.5" ry="12.5" style="stroke:#181818;stroke-width:1.5;" width="34" x="262" y="87.4141"/><text fill="#000000" font-family="sans-serif" font-size="14" lengthAdjust="spacing" textLength="14" x="272" y="111.9473">&#25104;</text><path d="M212,221.4375 L222,221.4375 C237,221.4375 237,106.2188 252,106.2188 L262,106.2188 " fill="none" style="stroke:#181818;stroke-width:1;"/><rect fill="#F1F1F1" height="37.6094" rx="12.5" ry="12.5" style="stroke:#181818;stroke-width:1.5;" width="34" x="262" y="145.0234"/><text fill="#000000" font-family="sans-serif" font-size="14" lengthAdjust="spacing" textLength="14" x="272" y="169.5566">&#20303;</text><rect fill="#F1F1F1" height="37.6094" rx="12.5" ry="12.5" style="stroke:#181818;stroke-width:1.5;" width="48" x="346" y="87.4141"/><text fill="#000000" font-family="sans-serif" font-size="14" lengthAdjust="spacing" textLength="28" x="356" y="111.9473">&#31649;&#29702;</text><rect fill="#F1F1F1" height="37.6094" rx="12.5" ry="12.5" style="stroke:#181818;stroke-width:1.5;" width="132" x="444" y="58.6094"/><text fill="#000000" font-family="sans-serif" font-size="14" lengthAdjust="spacing" textLength="112" x="454" y="83.1426">&#20445;&#23384;&#34892;&#20026;&#65288;&#19981;&#21464;&#65289;</text><path d="M394,106.2188 L404,106.2188 C419,106.2188 419,77.4141 434,77.4141 L444,77.4141 " fill="none" style="stroke:#181818;stroke-width:1;"/><rect fill="#F1F1F1" height="37.6094" rx="12.5" ry="12.5" style="stroke:#181818;stroke-width:1.5;" width="132" x="444" y="116.2188"/><text fill="#000000" font-family="sans-serif" font-size="14" lengthAdjust="spacing" textLength="112" x="454" y="140.752">&#37325;&#22823;&#20107;&#39033;&#65288;&#21464;&#21270;&#65289;</text><path d="M394,106.2188 L404,106.2188 C419,106.2188 419,135.0234 434,135.0234 L444,135.0234 " fill="none" style="stroke:#181818;stroke-width:1;"/><path d="M296,163.8281 L306,163.8281 C321,163.8281 321,106.2188 336,106.2188 L346,106.2188 " fill="none" style="stroke:#181818;stroke-width:1;"/><rect fill="#F1F1F1" height="37.6094" rx="12.5" ry="12.5" style="stroke:#181818;stroke-width:1.5;" width="132" x="346" y="173.8281"/><text fill="#000000" font-family="sans-serif" font-size="14" lengthAdjust="spacing" textLength="112" x="356" y="198.3613">&#25910;&#30410;&#20998;&#37197;&#65288;&#38065;&#21152;&#65289;</text><path d="M296,163.8281 L306,163.8281 C321,163.8281 321,192.6328 336,192.6328 L346,192.6328 " fill="none" style="stroke:#181818;stroke-width:1;"/><rect fill="#F1F1F1" height="37.6094" rx="12.5" ry="12.5" style="stroke:#181818;stroke-width:1.5;" width="132" x="346" y="231.4375"/><text fill="#000000" font-family="sans-serif" font-size="14" lengthAdjust="spacing" textLength="112" x="356" y="255.9707">&#36153;&#29992;&#36127;&#25285;&#65288;&#38065;&#20943;&#65289;</text><path d="M296,163.8281 L306,163.8281 C321,163.8281 321,250.2422 336,250.2422 L346,250.2422 " fill="none" style="stroke:#181818;stroke-width:1;"/><path d="M212,221.4375 L222,221.4375 C237,221.4375 237,163.8281 252,163.8281 L262,163.8281 " fill="none" style="stroke:#181818;stroke-width:1;"/><rect fill="#F1F1F1" height="37.6094" rx="12.5" ry="12.5" style="stroke:#181818;stroke-width:1.5;" width="34" x="262" y="317.8516"/><text fill="#000000" font-family="sans-serif" font-size="14" lengthAdjust="spacing" textLength="14" x="272" y="342.3848">&#22351;</text><rect fill="#F1F1F1" height="37.6094" rx="12.5" ry="12.5" style="stroke:#181818;stroke-width:1.5;" width="48" x="346" y="289.0469"/><text fill="#000000" font-family="sans-serif" font-size="14" lengthAdjust="spacing" textLength="28" x="356" y="313.5801">&#20998;&#21106;</text><path d="M296,336.6563 L306,336.6563 C321,336.6563 321,307.8516 336,307.8516 L346,307.8516 " fill="none" style="stroke:#181818;stroke-width:1;"/><rect fill="#F1F1F1" height="37.6094" rx="12.5" ry="12.5" style="stroke:#181818;stroke-width:1.5;" width="132" x="346" y="346.6563"/><text fill="#000000" font-family="sans-serif" font-size="14" lengthAdjust="spacing" textLength="112" x="356" y="371.1895">&#22788;&#20998;&#65288;&#29289;&#26435;&#21464;&#21160;&#65289;</text><path d="M296,336.6563 L306,336.6563 C321,336.6563 321,365.4609 336,365.4609 L346,365.4609 " fill="none" style="stroke:#181818;stroke-width:1;"/><path d="M212,221.4375 L222,221.4375 C237,221.4375 237,336.6563 252,336.6563 L262,336.6563 " fill="none" style="stroke:#181818;stroke-width:1;"/><path d="M86,279.0469 L96,279.0469 C111,279.0469 111,221.4375 126,221.4375 L136,221.4375 " fill="none" style="stroke:#181818;stroke-width:1;"/><rect fill="#F1F1F1" height="37.6094" rx="12.5" ry="12.5" style="stroke:#181818;stroke-width:1.5;" width="76" x="136" y="433.0703"/><text fill="#000000" font-family="sans-serif" font-size="14" lengthAdjust="spacing" textLength="56" x="146" y="457.6035">&#22806;&#37096;&#20851;&#31995;</text><rect fill="#F1F1F1" height="37.6094" rx="12.5" ry="12.5" style="stroke:#181818;stroke-width:1.5;" width="132" x="262" y="404.2656"/><text fill="#000000" font-family="sans-serif" font-size="14" lengthAdjust="spacing" textLength="112" x="272" y="428.7988">&#31532;&#19977;&#20154;&#20405;&#23475;&#20849;&#26377;&#29289;</text><path d="M212,451.875 L222,451.875 C237,451.875 237,423.0703 252,423.0703 L262,423.0703 " fill="none" style="stroke:#181818;stroke-width:1;"/><rect fill="#F1F1F1" height="37.6094" rx="12.5" ry="12.5" style="stroke:#181818;stroke-width:1.5;" width="132" x="262" y="461.875"/><text fill="#000000" font-family="sans-serif" font-size="14" lengthAdjust="spacing" textLength="112" x="272" y="486.4082">&#20849;&#26377;&#29289;&#20405;&#23475;&#31532;&#19977;&#20154;</text><path d="M212,451.875 L222,451.875 C237,451.875 237,480.6797 252,480.6797 L262,480.6797 " fill="none" style="stroke:#181818;stroke-width:1;"/><path d="M86,279.0469 L96,279.0469 C111,279.0469 111,451.875 126,451.875 L136,451.875 " fill="none" style="stroke:#181818;stroke-width:1;"/><!--SRC=[xLTlQnD967-_ds8EtxH2qZ-68aMa9hQSqeYOwFl9xhWPkpkppCv6SiV1WQOsjQKYKWGjTmN12fxWLQNMUlTbiadpogzmp-ncsqrqi-lRmn32plFyvlSyy_oRpO8hiP0sPOQD7KtxYJBTyWo2ylaf-BgoQP4fny9CUhQLKx0Su7A1F4z1fccIIekWNljLT-TUxsWRvL2t_NltUHkMyEottiAp4cwqEvy-XofDEpkyHl0vY_pLLl_Udj_Qx-r_2aIXkBlsABRgVDuwMOMItflTtgFL8U40-k-E_zVJuzsDpi7XbwErpi6cl_Nqor7x6z3-Wqt_nSlEuSF-xaU00ixVs1w5WYjFFlIUhVjhg_tM9i3wZz_wwtz-3Jj-zx7tPE_utH_TXwq1xC5M70PdtHaz1h3wxRz7XI_kWnmumlWglzRt8YQbtlvMn7glNtSEsft3myu_x_qt-s4EW25kFvA5a9CTchP0e1QYUbWOBeyBGU8lQWF1POfDWMtqAn3dQvP7WYU4YbXVCGNtc57Y5XV8ecPTAZreVrDO0uiLGOm4-40RWKr121l7701Yw6OAk1bXkS3CJ78wL4PGnnEEbGGDbH4q-M2nGmdk9h6TMLeg5akb2DaabiNl9c13PG3LyZQch5edTaIyn9ciq5y8EZUjAJsndJfsgPiUopXwEW7khZI3bCQni-DZ6OSMGQJNeH8pEKDDnWN9a5U4bYaZe_9JYencnr8fCiQuJfXCYWqBaXAc81JLBC2Ci4BpXBxfWfvaxLGjkOqb3vrd4gnHph1L-bxiTK4SBB2IVC-sIpKkP5hPPUMI4l8kqpej8rk9sz1kCgaS1ZkJw5Jw634Xeq0Q3-QugPMMIOCG9zuGmmOMOOhMBEhMaqTURF-mjRjrAaTZas3c6fVfbe9JwKtCCfnAnmQH9yQmhbCZkUQ7Hd4QysreHJVMtx3MIHdV8LvAbtCBN13SY5LWIez5Em8x3dUff0roIO-rmrVZ75iawq5EZm2vmAdKDeKRLCt-B3Krk0OLkUlLxX1TqIT51pVWtYOY8s-3SkYWW9gdCQkuPmxtwQGVRjpnlJfKowbtY0O_5wO6ho8_tZ__p- -VrzLVZvlbPTGWmbLjDPEVdPujvCzFLB14rtW3pSoXwPdvGc6-C8TAbIfIwabjedobYbpkmLH11lISe3LF5UAaTXKtCBhXGLdQP1wfrKIrF8agYv4GBR865PpPK8hQrLlb48H-vhBYS1c0vmgv8fMeGWIuXMwLjSlaDlOi2LjrRb1cpgERrQNSUMqPIjR39XY28L62MfQY2RhAVm00]--></g></svg>