<svg xmlns="http://www.w3.org/2000/svg" xmlns:xlink="http://www.w3.org/1999/xlink" contentStyleType="text/css" height="482px" preserveAspectRatio="none" style="width:531px;height:482px;background:#FFFFFF;" version="1.1" viewBox="0 0 531 482" width="531px" zoomAndPan="magnify"><defs/><g><polygon fill="#D2691E" points="311.7691,270,259.8076,300,207.8461,270,207.8461,210,259.8076,180,311.7691,210" style="stroke:#D2691E;stroke-width:1.0;"/><text fill="#FFFFFF" font-family="sans-serif" font-size="14" font-weight="bold" lengthAdjust="spacing" textLength="67.6758" x="225.9697" y="245.7969">Chocolate</text><polygon fill="#CD5C5C" points="415.6922,270,363.7307,300,311.7691,270,311.7691,210,363.7307,180,415.6922,210" style="stroke:#CD5C5C;stroke-width:1.0;"/><text fill="#FFFFFF" font-family="sans-serif" font-size="14" font-weight="bold" lengthAdjust="spacing" textLength="67.6689" x="329.8962" y="245.7969">IndianRed</text><polygon fill="#D87093" points="363.7307,360,311.7691,390,259.8076,360,259.8076,300,311.7691,270,363.7307,300" style="stroke:#D87093;stroke-width:1.0;"/><text fill="#000000" font-family="sans-serif" font-size="14" font-weight="bold" lengthAdjust="spacing" textLength="93.3652" x="265.0865" y="335.7969">PaleVioletRed</text><polygon fill="#FF6347" points="259.8076,360,207.8461,390,155.8846,360,155.8846,300,207.8461,270,259.8076,300" style="stroke:#FF6347;stroke-width:1.0;"/><text fill="#000000" font-family="sans-serif" font-size="14" font-weight="bold" lengthAdjust="spacing" textLength="50.5518" x="182.5702" y="335.7969">Tomato</text><polygon fill="#CD853F" points="207.8461,270,155.8846,300,103.923,270,103.923,210,155.8846,180,207.8461,210" style="stroke:#CD853F;stroke-width:1.0;"/><text fill="#000000" font-family="sans-serif" font-size="14" font-weight="bold" lengthAdjust="spacing" textLength="31.124" x="140.3226" y="245.7969">Peru</text><polygon fill="#B8860B" points="259.8076,180,207.8461,210,155.8846,180,155.8846,120,207.8461,90,259.8076,120" style="stroke:#B8860B;stroke-width:1.0;"/><text fill="#000000" font-family="sans-serif" font-size="14" font-weight="bold" lengthAdjust="spacing" textLength="31.1309" x="192.2807" y="146.4863">Dark</text><text fill="#000000" font-family="sans-serif" font-size="14" font-weight="bold" lengthAdjust="spacing" textLength="75.4346" x="170.1288" y="165.1074">GoldenRod</text><polygon fill="#DA70D6" points="363.7307,180,311.7691,210,259.8076,180,259.8076,120,311.7691,90,363.7307,120" style="stroke:#DA70D6;stroke-width:1.0;"/><text fill="#000000" font-family="sans-serif" font-size="14" font-weight="bold" lengthAdjust="spacing" textLength="45.1172" x="289.2106" y="155.7969">Orchid</text><polygon fill="#A0522D" points="519.6152,270,467.6537,300,415.6922,270,415.6922,210,467.6537,180,519.6152,210" style="stroke:#A0522D;stroke-width:1.0;"/><text fill="#FFFFFF" font-family="sans-serif" font-size="14" font-weight="bold" lengthAdjust="spacing" textLength="45.9033" x="444.7021" y="245.7969">Sienna</text><polygon fill="#FF69B4" points="467.6537,360,415.6922,390,363.7307,360,363.7307,300,415.6922,270,467.6537,300" style="stroke:#FF69B4;stroke-width:1.0;"/><text fill="#000000" font-family="sans-serif" font-size="14" font-weight="bold" lengthAdjust="spacing" textLength="52.8896" x="389.2474" y="335.7969">HotPink</text><polygon fill="#FF7F50" points="415.6922,450,363.7307,480,311.7691,450,311.7691,390,363.7307,360,415.6922,390" style="stroke:#FF7F50;stroke-width:1.0;"/><text fill="#000000" font-family="sans-serif" font-size="14" font-weight="bold" lengthAdjust="spacing" textLength="35.7861" x="345.8376" y="425.7969">Coral</text><polygon fill="#F08080" points="311.7691,450,259.8076,480,207.8461,450,207.8461,390,259.8076,360,311.7691,390" style="stroke:#F08080;stroke-width:1.0;"/><text fill="#000000" font-family="sans-serif" font-size="14" font-weight="bold" lengthAdjust="spacing" textLength="69.9932" x="224.811" y="425.7969">LightCoral</text><polygon fill="#FA8072" points="207.8461,450,155.8846,480,103.923,450,103.923,390,155.8846,360,207.8461,390" style="stroke:#FA8072;stroke-width:1.0;"/><text fill="#000000" font-family="sans-serif" font-size="14" font-weight="bold" lengthAdjust="spacing" textLength="50.5654" x="130.6019" y="425.7969">Salmon</text><polygon fill="#FF8C00" points="155.8846,360,103.923,390,51.9615,360,51.9615,300,103.923,270,155.8846,300" style="stroke:#FF8C00;stroke-width:1.0;"/><text fill="#000000" font-family="sans-serif" font-size="14" font-weight="bold" lengthAdjust="spacing" textLength="77.8066" x="65.0197" y="335.7969">Darkorange</text><polygon fill="#DAA520" points="103.923,270,51.9615,300,-0,270,-0,210,51.9615,180,103.923,210" style="stroke:#DAA520;stroke-width:1.0;"/><text fill="#000000" font-family="sans-serif" font-size="14" font-weight="bold" lengthAdjust="spacing" textLength="75.4346" x="14.2442" y="245.7969">GoldenRod</text><polygon fill="#FF4500" points="155.8846,180,103.923,210,51.9615,180,51.9615,120,103.923,90,155.8846,120" style="stroke:#FF4500;stroke-width:1.0;"/><text fill="#FFFFFF" font-family="sans-serif" font-size="14" font-weight="bold" lengthAdjust="spacing" textLength="75.4619" x="66.1921" y="155.7969">OrangeRed</text><polygon fill="#BA55D3" points="207.8461,90,155.8846,120,103.923,90,103.923,30,155.8846,0,207.8461,30" style="stroke:#BA55D3;stroke-width:1.0;"/><text fill="#000000" font-family="sans-serif" font-size="14" font-weight="bold" lengthAdjust="spacing" textLength="98.0068" x="106.8812" y="65.7969">MediumOrchid</text><polygon fill="#696969" points="311.7691,90,259.8076,120,207.8461,90,207.8461,30,259.8076,0,311.7691,30" style="stroke:#696969;stroke-width:1.0;"/><text fill="#FFFFFF" font-family="sans-serif" font-size="14" font-weight="bold" lengthAdjust="spacing" textLength="58.3584" x="230.6284" y="65.7969">DimGrey</text><polygon fill="#556B2F" points="415.6922,90,363.7307,120,311.7691,90,311.7691,30,363.7307,0,415.6922,30" style="stroke:#556B2F;stroke-width:1.0;"/><text fill="#FFFFFF" font-family="sans-serif" font-size="14" font-weight="bold" lengthAdjust="spacing" textLength="65.3721" x="331.0446" y="56.4863">DarkOlive</text><text fill="#FFFFFF" font-family="sans-serif" font-size="14" font-weight="bold" lengthAdjust="spacing" textLength="40.4619" x="343.4997" y="75.1074">Green</text><polygon fill="#808000" points="467.6537,180,415.6922,210,363.7307,180,363.7307,120,415.6922,90,467.6537,120" style="stroke:#808000;stroke-width:1.0;"/><text fill="#FFFFFF" font-family="sans-serif" font-size="14" font-weight="bold" lengthAdjust="spacing" textLength="34.2412" x="398.5716" y="155.7969">Olive</text><!--SRC=[IyxFoIygLaZEo4_EpqaiIGK0]--></g></svg>