<?xml version="1.0" encoding="us-ascii" standalone="no"?><svg xmlns="http://www.w3.org/2000/svg" xmlns:xlink="http://www.w3.org/1999/xlink" contentStyleType="text/css" height="302px" preserveAspectRatio="none" style="width:478px;height:302px;background:#FFFFFF;" version="1.1" viewBox="0 0 478 302" width="478px" zoomAndPan="magnify"><defs/><g><!--class PendingHandlerCallback--><g id="elem_PendingHandlerCallback"><rect codeLine="3" fill="#F1F1F1" height="103.8633" id="PendingHandlerCallback" rx="2.5" ry="2.5" style="stroke:#181818;stroke-width:0.5;" width="253" x="108" y="99"/><ellipse cx="151.8" cy="115" fill="#A9DCDF" rx="11" ry="11" style="stroke:#181818;stroke-width:1.0;"/><path d="M152.2219,115.4844 L149.6594,115.4844 L149.1281,117.7813 Q149.0656,118.1094 149.0656,118.2656 Q149.0656,118.4844 149.1125,118.6406 Q149.175,118.7969 149.4563,118.7969 L149.925,118.7969 L149.925,119.7344 L146.9406,119.7344 L146.9406,118.7969 L147.3938,118.7969 Q147.5656,118.7969 147.6906,118.7031 Q147.8156,118.5938 147.8625,118.2969 L150.5031,107.9688 L151.9094,107.5 L154.4875,118.2656 Q154.5969,118.5781 154.7219,118.6875 Q154.8625,118.7969 155.0344,118.7969 L155.5031,118.7969 L155.5031,119.7344 L152.1125,119.7344 L152.1125,118.7969 L152.6438,118.7969 Q152.8625,118.7969 152.8781,118.75 Q152.9094,118.6875 152.9094,118.6094 Q152.9094,118.3906 152.8625,118.2031 L152.2219,115.4844 Z M147.6594,119.3281 L147.6594,119.3281 Z M148.3313,119.3281 L148.3313,119.3281 Z M153.05,119.3281 L153.05,119.3281 Z M154.175,119.3281 L154.175,119.3281 Z M150.9875,109.3906 L151.05,109.3906 L149.9406,114.5469 L152.0344,114.5469 L150.9875,109.3906 Z " fill="#000000"/><text fill="#000000" font-family="sans-serif" font-size="14" font-style="italic" lengthAdjust="spacing" textLength="157" x="172.2" y="120.7969">PendingHandlerCallback</text><line style="stroke:#181818;stroke-width:0.5;" x1="109" x2="360" y1="131" y2="131"/><polygon fill="none" points="119,141.8105,115,147.8105,123,147.8105" style="stroke:#1963A0;stroke-width:1.0;"/><text fill="#000000" font-family="sans-serif" font-size="14" lengthAdjust="spacing" textLength="227" x="128" y="150.1074">ctx: AbstractChannelHandlerContext</text><polygon fill="none" points="119,160.4316,115,166.4316,123,166.4316" style="stroke:#1963A0;stroke-width:1.0;"/><text fill="#000000" font-family="sans-serif" font-size="14" lengthAdjust="spacing" textLength="189" x="128" y="168.7285">next: PendingHandlerCallback</text><line style="stroke:#181818;stroke-width:0.5;" x1="109" x2="360" y1="176.2422" y2="176.2422"/><polygon fill="#4177AF" points="119,187.0527,115,193.0527,123,193.0527" style="stroke:#1963A0;stroke-width:1.0;"/><text fill="#000000" font-family="sans-serif" font-size="14" font-style="italic" lengthAdjust="spacing" textLength="92" x="128" y="195.3496">execute(): void</text></g><!--class Runnable--><g id="elem_Runnable"><rect fill="#F1F1F1" height="32" id="Runnable" rx="2.5" ry="2.5" style="stroke:#181818;stroke-width:0.5;" width="93" x="188" y="7"/><ellipse cx="203" cy="23" fill="#B4A7E5" rx="11" ry="11" style="stroke:#181818;stroke-width:1.0;"/><path d="M199.5938,17.7813 L199.5938,16.8438 L205.4375,16.8438 L205.4375,17.7813 L203.6406,17.7813 Q203.4688,17.7813 203.3906,17.8438 Q203.3125,17.9063 203.3125,18.0469 L203.3125,27.5313 Q203.3125,27.6719 203.3906,27.7344 Q203.4688,27.7969 203.6406,27.7969 L205.4375,27.7969 L205.4375,28.7344 L199.5938,28.7344 L199.5938,27.7969 L201.3906,27.7969 Q201.6094,27.7969 201.6563,27.75 Q201.7188,27.6875 201.7188,27.5313 L201.7188,18.0469 Q201.7188,17.8906 201.6563,17.8438 Q201.6094,17.7813 201.3906,17.7813 L199.5938,17.7813 Z " fill="#000000"/><text fill="#000000" font-family="sans-serif" font-size="14" font-style="italic" lengthAdjust="spacing" textLength="61" x="217" y="28.7969">Runnable</text></g><!--class PendingHandlerAddedTask--><g id="elem_PendingHandlerAddedTask"><rect codeLine="9" fill="#F1F1F1" height="32" id="PendingHandlerAddedTask" rx="2.5" ry="2.5" style="stroke:#181818;stroke-width:0.5;" width="205" x="7" y="263"/><ellipse cx="22" cy="279" fill="#ADD1B2" rx="11" ry="11" style="stroke:#181818;stroke-width:1.0;"/><path d="M21.3438,284.8594 Q19.3594,284.8594 18.1875,283.3906 Q17.0313,281.9063 17.0313,278.8281 Q17.0313,276.2188 18.25,274.4688 Q19.4844,272.7188 21.6094,272.7188 Q22.1094,272.7188 22.6406,272.8594 Q23.0781,273.0469 23.3438,273.0469 Q23.5625,273.0469 23.6563,273 Q23.7656,272.9531 24.2188,272.3594 L24.9844,276.0938 L24.0938,276.3594 Q23.6406,274.9063 23.0313,274.3125 Q22.4375,273.7031 21.4844,273.7031 Q20.2656,273.7031 19.5469,275.1406 Q18.8281,276.5625 18.8281,278.75 Q18.8281,281.1563 19.4375,282.4531 Q20.0625,283.7344 21.4219,283.7344 Q22.375,283.7344 23.0625,283.0469 Q23.75,282.3438 24.0781,280.8438 L24.9844,281.25 Q24.5781,282.9531 23.6094,283.9063 Q22.6563,284.8594 21.3438,284.8594 Z " fill="#000000"/><text fill="#000000" font-family="sans-serif" font-size="14" lengthAdjust="spacing" textLength="173" x="36" y="284.7969">PendingHandlerAddedTask</text></g><!--class PendingHandlerRemovedTask--><g id="elem_PendingHandlerRemovedTask"><rect codeLine="11" fill="#F1F1F1" height="32" id="PendingHandlerRemovedTask" rx="2.5" ry="2.5" style="stroke:#181818;stroke-width:0.5;" width="224" x="247.5" y="263"/><ellipse cx="262.5" cy="279" fill="#ADD1B2" rx="11" ry="11" style="stroke:#181818;stroke-width:1.0;"/><path d="M261.8438,284.8594 Q259.8594,284.8594 258.6875,283.3906 Q257.5313,281.9063 257.5313,278.8281 Q257.5313,276.2188 258.75,274.4688 Q259.9844,272.7188 262.1094,272.7188 Q262.6094,272.7188 263.1406,272.8594 Q263.5781,273.0469 263.8438,273.0469 Q264.0625,273.0469 264.1563,273 Q264.2656,272.9531 264.7188,272.3594 L265.4844,276.0938 L264.5938,276.3594 Q264.1406,274.9063 263.5313,274.3125 Q262.9375,273.7031 261.9844,273.7031 Q260.7656,273.7031 260.0469,275.1406 Q259.3281,276.5625 259.3281,278.75 Q259.3281,281.1563 259.9375,282.4531 Q260.5625,283.7344 261.9219,283.7344 Q262.875,283.7344 263.5625,283.0469 Q264.25,282.3438 264.5781,280.8438 L265.4844,281.25 Q265.0781,282.9531 264.1094,283.9063 Q263.1563,284.8594 261.8438,284.8594 Z " fill="#000000"/><text fill="#000000" font-family="sans-serif" font-size="14" lengthAdjust="spacing" textLength="192" x="276.5" y="284.7969">PendingHandlerRemovedTask</text></g><!--reverse link Runnable to PendingHandlerCallback--><g id="link_Runnable_PendingHandlerCallback"><path d="M234.5,57.45 C234.5,72.3 234.5,77.58 234.5,98.96 " fill="none" id="Runnable-backto-PendingHandlerCallback" style="stroke:#181818;stroke-width:1.0;stroke-dasharray:7.0,7.0;"/><polygon fill="none" points="234.5,39.45,228.5,57.45,240.5,57.45,234.5,39.45" style="stroke:#181818;stroke-width:1.0;"/></g><!--reverse link PendingHandlerCallback to PendingHandlerAddedTask--><g id="link_PendingHandlerCallback_PendingHandlerAddedTask"><path d="M170.9826,216.0283 C149.6226,237.5583 139.06,248.21 124.39,262.99 " fill="none" id="PendingHandlerCallback-backto-PendingHandlerAddedTask" style="stroke:#181818;stroke-width:1.0;"/><polygon fill="none" points="183.66,203.25,166.7232,211.8025,175.242,220.2541,183.66,203.25" style="stroke:#181818;stroke-width:1.0;"/></g><!--reverse link PendingHandlerCallback to PendingHandlerRemovedTask--><g id="link_PendingHandlerCallback_PendingHandlerRemovedTask"><path d="M298.0174,216.0283 C319.3774,237.5583 329.94,248.21 344.61,262.99 " fill="none" id="PendingHandlerCallback-backto-PendingHandlerRemovedTask" style="stroke:#181818;stroke-width:1.0;"/><polygon fill="none" points="285.34,203.25,293.758,220.2541,302.2768,211.8025,285.34,203.25" style="stroke:#181818;stroke-width:1.0;"/></g><!--SRC=[ZOv1Zi8m34NtEONPpLoXEyG6TWXn0JVvb8Z4hM8N5LLmTg81TbGQhopv_-Ut6WftcMbKxCHGCa9amvxzXJiedJWfdEDMhR0tyebLQGy9KRejIqWe6qwfhGMAUKZ845CwZ2BS9j3igCx3szJG-atPd5a4wLFlw-F9NZcfMxF0_qlC7vKxFJ31ZuQVtuQkVGpkxjmtltK824VM2rLulIpwpmk00t9__J_Y70C8UR0RPUGMHPy0]--></g></svg>