<?xml version="1.0" encoding="us-ascii" standalone="no"?><svg xmlns="http://www.w3.org/2000/svg" xmlns:xlink="http://www.w3.org/1999/xlink" contentStyleType="text/css" height="601px" preserveAspectRatio="none" style="width:842px;height:601px;background:#FFFFFF;" version="1.1" viewBox="0 0 842 601" width="842px" zoomAndPan="magnify"><defs/><g><!--cluster channel--><g id="cluster_channel"><path d="M8.5,6.0137 L121.5,6.0137 A3.75,3.75 0 0 1 124,8.5137 L131,30.6348 L832.5,30.6348 A2.5,2.5 0 0 1 835,33.1348 L835,591.5137 A2.5,2.5 0 0 1 832.5,594.0137 L8.5,594.0137 A2.5,2.5 0 0 1 6,591.5137 L6,8.5137 A2.5,2.5 0 0 1 8.5,6.0137 " fill="none" style="stroke:#000000;stroke-width:1.5;"/><line style="stroke:#000000;stroke-width:1.5;" x1="6" x2="131" y1="30.6348" y2="30.6348"/><text fill="#000000" font-family="sans-serif" font-size="14" font-weight="bold" lengthAdjust="spacing" textLength="112" x="10" y="23.1211">io.netty.channel</text></g><!--class ChannelInboundInvoker--><g id="elem_ChannelInboundInvoker"><rect codeLine="1" fill="#F1F1F1" height="247.5898" id="ChannelInboundInvoker" rx="2.5" ry="2.5" style="stroke:#181818;stroke-width:0.5;" width="389" x="22.5" y="58.5137"/><ellipse cx="136.75" cy="74.5137" fill="#B4A7E5" rx="11" ry="11" style="stroke:#181818;stroke-width:1.0;"/><path d="M133.3438,69.2949 L133.3438,68.3574 L139.1875,68.3574 L139.1875,69.2949 L137.3906,69.2949 Q137.2188,69.2949 137.1406,69.3574 Q137.0625,69.4199 137.0625,69.5605 L137.0625,79.0449 Q137.0625,79.1855 137.1406,79.248 Q137.2188,79.3105 137.3906,79.3105 L139.1875,79.3105 L139.1875,80.248 L133.3438,80.248 L133.3438,79.3105 L135.1406,79.3105 Q135.3594,79.3105 135.4063,79.2637 Q135.4688,79.2012 135.4688,79.0449 L135.4688,69.5605 Q135.4688,69.4043 135.4063,69.3574 Q135.3594,69.2949 135.1406,69.2949 L133.3438,69.2949 Z " fill="#000000"/><text fill="#000000" font-family="sans-serif" font-size="14" font-style="italic" lengthAdjust="spacing" textLength="152" x="157.25" y="80.3105">ChannelInboundInvoker</text><line style="stroke:#181818;stroke-width:0.5;" x1="23.5" x2="410.5" y1="90.5137" y2="90.5137"/><ellipse cx="33.5" cy="105.3242" fill="#84BE84" rx="3" ry="3" style="stroke:#038048;stroke-width:1.0;"/><text fill="#000000" font-family="sans-serif" font-size="14" font-style="italic" lengthAdjust="spacing" textLength="312" x="42.5" y="109.6211">fireChannelRegistered(): ChannelInboundInvoker</text><ellipse cx="33.5" cy="123.9453" fill="#84BE84" rx="3" ry="3" style="stroke:#038048;stroke-width:1.0;"/><text fill="#000000" font-family="sans-serif" font-size="14" font-style="italic" lengthAdjust="spacing" textLength="325" x="42.5" y="128.2422">fireChannelUnregistered(): ChannelInboundInvoker</text><line style="stroke:#181818;stroke-width:1.0;stroke-dasharray:1.0,2.0;" x1="23.5" x2="410.5" y1="135.7559" y2="135.7559"/><ellipse cx="33.5" cy="150.5664" fill="#84BE84" rx="3" ry="3" style="stroke:#038048;stroke-width:1.0;"/><text fill="#000000" font-family="sans-serif" font-size="14" font-style="italic" lengthAdjust="spacing" textLength="280" x="42.5" y="154.8633">fireChannelActive(): ChannelInboundInvoker</text><ellipse cx="33.5" cy="169.1875" fill="#84BE84" rx="3" ry="3" style="stroke:#038048;stroke-width:1.0;"/><text fill="#000000" font-family="sans-serif" font-size="14" font-style="italic" lengthAdjust="spacing" textLength="291" x="42.5" y="173.4844">fireChannelInactive(): ChannelInboundInvoker</text><line style="stroke:#181818;stroke-width:1.0;stroke-dasharray:1.0,2.0;" x1="23.5" x2="410.5" y1="180.998" y2="180.998"/><ellipse cx="33.5" cy="195.8086" fill="#84BE84" rx="3" ry="3" style="stroke:#038048;stroke-width:1.0;"/><text fill="#000000" font-family="sans-serif" font-size="14" font-style="italic" lengthAdjust="spacing" textLength="318" x="42.5" y="200.1055">fireChannelRead(Object): ChannelInboundInvoker</text><ellipse cx="33.5" cy="214.4297" fill="#84BE84" rx="3" ry="3" style="stroke:#038048;stroke-width:1.0;"/><text fill="#000000" font-family="sans-serif" font-size="14" font-style="italic" lengthAdjust="spacing" textLength="337" x="42.5" y="218.7266">fireChannelReadComplete(): ChannelInboundInvoker</text><line style="stroke:#181818;stroke-width:1.0;stroke-dasharray:1.0,2.0;" x1="23.5" x2="410.5" y1="226.2402" y2="226.2402"/><ellipse cx="33.5" cy="241.0508" fill="#84BE84" rx="3" ry="3" style="stroke:#038048;stroke-width:1.0;"/><text fill="#000000" font-family="sans-serif" font-size="14" font-style="italic" lengthAdjust="spacing" textLength="358" x="42.5" y="245.3477">fireUserEventTriggered(Object): ChannelInboundInvoker</text><line style="stroke:#181818;stroke-width:1.0;stroke-dasharray:1.0,2.0;" x1="23.5" x2="410.5" y1="252.8613" y2="252.8613"/><ellipse cx="33.5" cy="267.6719" fill="#84BE84" rx="3" ry="3" style="stroke:#038048;stroke-width:1.0;"/><text fill="#000000" font-family="sans-serif" font-size="14" font-style="italic" lengthAdjust="spacing" textLength="363" x="42.5" y="271.9688">fireChannelWritabilityChanged(): ChannelInboundInvoker</text><line style="stroke:#181818;stroke-width:1.0;stroke-dasharray:1.0,2.0;" x1="23.5" x2="410.5" y1="279.4824" y2="279.4824"/><ellipse cx="33.5" cy="294.293" fill="#84BE84" rx="3" ry="3" style="stroke:#038048;stroke-width:1.0;"/><text fill="#000000" font-family="sans-serif" font-size="14" font-style="italic" lengthAdjust="spacing" textLength="363" x="42.5" y="298.5898">fireExceptionCaught(Throwable): ChannelInboundInvoker</text></g><!--class ChannelOutboundInvoker--><g id="elem_ChannelOutboundInvoker"><rect codeLine="1" fill="#F1F1F1" height="279.4531" id="ChannelOutboundInvoker" rx="2.5" ry="2.5" style="stroke:#181818;stroke-width:0.5;" width="372" x="447" y="43.0137"/><ellipse cx="547.25" cy="59.0137" fill="#B4A7E5" rx="11" ry="11" style="stroke:#181818;stroke-width:1.0;"/><path d="M543.8438,53.7949 L543.8438,52.8574 L549.6875,52.8574 L549.6875,53.7949 L547.8906,53.7949 Q547.7188,53.7949 547.6406,53.8574 Q547.5625,53.9199 547.5625,54.0605 L547.5625,63.5449 Q547.5625,63.6855 547.6406,63.748 Q547.7188,63.8105 547.8906,63.8105 L549.6875,63.8105 L549.6875,64.748 L543.8438,64.748 L543.8438,63.8105 L545.6406,63.8105 Q545.8594,63.8105 545.9063,63.7637 Q545.9688,63.7012 545.9688,63.5449 L545.9688,54.0605 Q545.9688,53.9043 545.9063,53.8574 Q545.8594,53.7949 545.6406,53.7949 L543.8438,53.7949 Z " fill="#000000"/><text fill="#000000" font-family="sans-serif" font-size="14" font-style="italic" lengthAdjust="spacing" textLength="163" x="567.75" y="64.8105">ChannelOutboundInvoker</text><line style="stroke:#181818;stroke-width:0.5;" x1="448" x2="818" y1="75.0137" y2="75.0137"/><ellipse cx="458" cy="89.8242" fill="#84BE84" rx="3" ry="3" style="stroke:#038048;stroke-width:1.0;"/><text fill="#000000" font-family="sans-serif" font-size="14" font-style="italic" lengthAdjust="spacing" textLength="236" x="467" y="94.1211">bind(SocketAddress): ChannelFuture</text><ellipse cx="458" cy="108.4453" fill="#84BE84" rx="3" ry="3" style="stroke:#038048;stroke-width:1.0;"/><text fill="#000000" font-family="sans-serif" font-size="14" font-style="italic" lengthAdjust="spacing" textLength="259" x="467" y="112.7422">connect(SocketAddress): ChannelFuture</text><ellipse cx="458" cy="127.0664" fill="#84BE84" rx="3" ry="3" style="stroke:#038048;stroke-width:1.0;"/><text fill="#000000" font-family="sans-serif" font-size="14" font-style="italic" lengthAdjust="spacing" textLength="181" x="467" y="131.3633">disconnect(): ChannelFuture</text><ellipse cx="458" cy="145.6875" fill="#84BE84" rx="3" ry="3" style="stroke:#038048;stroke-width:1.0;"/><text fill="#000000" font-family="sans-serif" font-size="14" font-style="italic" lengthAdjust="spacing" textLength="177" x="467" y="149.9844">deregister(): ChannelFuture</text><ellipse cx="458" cy="164.3086" fill="#84BE84" rx="3" ry="3" style="stroke:#038048;stroke-width:1.0;"/><text fill="#000000" font-family="sans-serif" font-size="14" font-style="italic" lengthAdjust="spacing" textLength="146" x="467" y="168.6055">close(): ChannelFuture</text><line style="stroke:#181818;stroke-width:1.0;stroke-dasharray:1.0,2.0;" x1="448" x2="818" y1="176.1191" y2="176.1191"/><ellipse cx="458" cy="190.9297" fill="#84BE84" rx="3" ry="3" style="stroke:#038048;stroke-width:1.0;"/><text fill="#000000" font-family="sans-serif" font-size="14" font-style="italic" lengthAdjust="spacing" textLength="210" x="467" y="195.2266">read(): ChannelOutboundInvoker</text><ellipse cx="458" cy="209.5508" fill="#84BE84" rx="3" ry="3" style="stroke:#038048;stroke-width:1.0;"/><text fill="#000000" font-family="sans-serif" font-size="14" font-style="italic" lengthAdjust="spacing" textLength="183" x="467" y="213.8477">write(Object): ChannelFuture</text><ellipse cx="458" cy="228.1719" fill="#84BE84" rx="3" ry="3" style="stroke:#038048;stroke-width:1.0;"/><text fill="#000000" font-family="sans-serif" font-size="14" font-style="italic" lengthAdjust="spacing" textLength="211" x="467" y="232.4688">flush(): ChannelOutboundInvoker</text><ellipse cx="458" cy="246.793" fill="#84BE84" rx="3" ry="3" style="stroke:#038048;stroke-width:1.0;"/><text fill="#000000" font-family="sans-serif" font-size="14" font-style="italic" lengthAdjust="spacing" textLength="243" x="467" y="251.0898">writeAndFlush(Object): ChannelFuture</text><line style="stroke:#181818;stroke-width:1.0;stroke-dasharray:1.0,2.0;" x1="448" x2="818" y1="258.6035" y2="258.6035"/><ellipse cx="458" cy="273.4141" fill="#84BE84" rx="3" ry="3" style="stroke:#038048;stroke-width:1.0;"/><text fill="#000000" font-family="sans-serif" font-size="14" font-style="italic" lengthAdjust="spacing" textLength="198" x="467" y="277.7109">newPromise(): ChannelPromise</text><ellipse cx="458" cy="292.0352" fill="#84BE84" rx="3" ry="3" style="stroke:#038048;stroke-width:1.0;"/><text fill="#000000" font-family="sans-serif" font-size="14" font-style="italic" lengthAdjust="spacing" textLength="346" x="467" y="296.332">newProgressivePromise(): ChannelProgressivePromise</text><ellipse cx="458" cy="310.6563" fill="#84BE84" rx="3" ry="3" style="stroke:#038048;stroke-width:1.0;"/><text fill="#000000" font-family="sans-serif" font-size="14" font-style="italic" lengthAdjust="spacing" textLength="198" x="467" y="314.9531">voidPromise(): ChannelPromise</text></g><!--class ChannelPipeline--><g id="elem_ChannelPipeline"><rect codeLine="1" fill="#F1F1F1" height="32" id="ChannelPipeline" rx="2.5" ry="2.5" style="stroke:#181818;stroke-width:0.5;" width="135" x="357.5" y="382.0137"/><ellipse cx="372.5" cy="398.0137" fill="#B4A7E5" rx="11" ry="11" style="stroke:#181818;stroke-width:1.0;"/><path d="M369.0938,392.7949 L369.0938,391.8574 L374.9375,391.8574 L374.9375,392.7949 L373.1406,392.7949 Q372.9688,392.7949 372.8906,392.8574 Q372.8125,392.9199 372.8125,393.0605 L372.8125,402.5449 Q372.8125,402.6855 372.8906,402.748 Q372.9688,402.8105 373.1406,402.8105 L374.9375,402.8105 L374.9375,403.748 L369.0938,403.748 L369.0938,402.8105 L370.8906,402.8105 Q371.1094,402.8105 371.1563,402.7637 Q371.2188,402.7012 371.2188,402.5449 L371.2188,393.0605 Q371.2188,392.9043 371.1563,392.8574 Q371.1094,392.7949 370.8906,392.7949 L369.0938,392.7949 Z " fill="#000000"/><text fill="#000000" font-family="sans-serif" font-size="14" font-style="italic" lengthAdjust="spacing" textLength="103" x="386.5" y="403.8105">ChannelPipeline</text></g><!--class DefaultChannelPipeline--><g id="elem_DefaultChannelPipeline"><rect codeLine="1" fill="#F1F1F1" height="103.8633" id="DefaultChannelPipeline" rx="2.5" ry="2.5" style="stroke:#181818;stroke-width:0.5;" width="180" x="335" y="474.0137"/><ellipse cx="350" cy="490.0137" fill="#ADD1B2" rx="11" ry="11" style="stroke:#181818;stroke-width:1.0;"/><path d="M349.3438,495.873 Q347.3594,495.873 346.1875,494.4043 Q345.0313,492.9199 345.0313,489.8418 Q345.0313,487.2324 346.25,485.4824 Q347.4844,483.7324 349.6094,483.7324 Q350.1094,483.7324 350.6406,483.873 Q351.0781,484.0605 351.3438,484.0605 Q351.5625,484.0605 351.6563,484.0137 Q351.7656,483.9668 352.2188,483.373 L352.9844,487.1074 L352.0938,487.373 Q351.6406,485.9199 351.0313,485.3262 Q350.4375,484.7168 349.4844,484.7168 Q348.2656,484.7168 347.5469,486.1543 Q346.8281,487.5762 346.8281,489.7637 Q346.8281,492.1699 347.4375,493.4668 Q348.0625,494.748 349.4219,494.748 Q350.375,494.748 351.0625,494.0605 Q351.75,493.3574 352.0781,491.8574 L352.9844,492.2637 Q352.5781,493.9668 351.6094,494.9199 Q350.6563,495.873 349.3438,495.873 Z " fill="#000000"/><text fill="#000000" font-family="sans-serif" font-size="14" lengthAdjust="spacing" textLength="148" x="364" y="495.8105">DefaultChannelPipeline</text><line style="stroke:#181818;stroke-width:0.5;" x1="336" x2="514" y1="506.0137" y2="506.0137"/><polygon fill="none" points="346,516.8242,342,522.8242,350,522.8242" style="stroke:#1963A0;stroke-width:1.0;"/><text fill="#000000" font-family="sans-serif" font-size="14" lengthAdjust="spacing" textLength="121" x="355" y="525.1211">head: HeadContext</text><polygon fill="none" points="346,535.4453,342,541.4453,350,541.4453" style="stroke:#1963A0;stroke-width:1.0;"/><text fill="#000000" font-family="sans-serif" font-size="14" lengthAdjust="spacing" textLength="97" x="355" y="543.7422">tail: TailContext</text><line style="stroke:#181818;stroke-width:1.0;stroke-dasharray:1.0,2.0;" x1="336" x2="514" y1="551.2559" y2="551.2559"/><rect fill="none" height="6" style="stroke:#C82930;stroke-width:1.0;" width="6" x="343" y="563.0664"/><text fill="#000000" font-family="sans-serif" font-size="14" lengthAdjust="spacing" textLength="111" x="355" y="570.3633">channel: Channel</text></g><!--reverse link ChannelInboundInvoker to ChannelPipeline--><g id="link_ChannelInboundInvoker_ChannelPipeline"><path codeLine="8" d="M349.65,319.6773 C379.01,349.8173 394.06,365.2637 410.25,381.8737 " fill="none" id="ChannelInboundInvoker-backto-ChannelPipeline" style="stroke:#181818;stroke-width:1.0;"/><polygon fill="none" points="337.09,306.7837,345.3521,323.864,353.9479,315.4907,337.09,306.7837" style="stroke:#181818;stroke-width:1.0;"/></g><!--reverse link ChannelOutboundInvoker to ChannelPipeline--><g id="link_ChannelOutboundInvoker_ChannelPipeline"><path codeLine="9" d="M485.4777,334.9351 C461.8077,359.2251 453.06,368.2137 439.65,381.9737 " fill="none" id="ChannelOutboundInvoker-backto-ChannelPipeline" style="stroke:#181818;stroke-width:1.0;"/><polygon fill="none" points="498.04,322.0437,481.1805,330.7476,489.7748,339.1225,498.04,322.0437" style="stroke:#181818;stroke-width:1.0;"/></g><!--reverse link ChannelPipeline to DefaultChannelPipeline--><g id="link_ChannelPipeline_DefaultChannelPipeline"><path codeLine="10" d="M425,432.4637 C425,447.3137 425,452.5937 425,473.9737 " fill="none" id="ChannelPipeline-backto-DefaultChannelPipeline" style="stroke:#181818;stroke-width:1.0;stroke-dasharray:7.0,7.0;"/><polygon fill="none" points="425,414.4637,419,432.4637,431,432.4637,425,414.4637" style="stroke:#181818;stroke-width:1.0;"/></g><!--SRC=[ZOz12eCm44NtEKKyWF46tRGRL_KAeturc8mXoHGAFNmBLWeYrEL_pEFFBqAaqPEMX9epeaTlAQEXRgOHIG_a4fGgB7TEUcXZgcuYPhZAycEP4Qlhccjk5-6-Nga9ujqPxIxvd1TiWBECJMo- -OHnmq3Yyg6eTbIN4ihNHH-k-dEyswAEUxMHO7xIXfMQxET_-92VsiEtYEaD]--></g></svg>