<svg xmlns="http://www.w3.org/2000/svg" xmlns:xlink="http://www.w3.org/1999/xlink" contentStyleType="text/css" height="692.4px" preserveAspectRatio="none" style="width:963px;height:692px;background:#FFFFFF;" version="1.1" viewBox="0 0 963 692" width="963.6px" zoomAndPan="magnify"><defs/><g><path d="M23.4,8.4 L462.6,8.4 A15,15 0 0 1 477.6,23.4 L477.6,42.7453 L8.4,42.7453 L8.4,23.4 A15,15 0 0 1 23.4,8.4 " fill="#F1F1F1" style="stroke:#F1F1F1;stroke-width:1.2;"/><rect fill="none" height="677.5453" rx="15" ry="15" style="stroke:#181818;stroke-width:0.6;" width="469.2" x="8.4" y="8.4"/><line style="stroke:#181818;stroke-width:0.6;" x1="8.4" x2="477.6" y1="42.7453" y2="42.7453"/><text fill="#000000" font-family="sans-serif" font-size="16.8" lengthAdjust="spacing" textLength="67.2" x="209.4" y="32.5289">&#25925;&#24847;&#29359;&#32618;</text><g id="intentional_crime.subjectivity1"><rect fill="#F1F1F1" height="60" rx="15" ry="15" style="stroke:#181818;stroke-width:0.6;" width="60" x="189.6" y="123.1453"/><line style="stroke:#181818;stroke-width:0.6;" x1="189.6" x2="249.6" y1="157.4906" y2="157.4906"/><text fill="#000000" font-family="sans-serif" font-size="16.8" lengthAdjust="spacing" textLength="33.6" x="202.8" y="147.2742">&#20027;&#35266;</text></g><g id="intentional_crime.objectivity1"><rect fill="#F1F1F1" height="60" rx="15" ry="15" style="stroke:#181818;stroke-width:0.6;" width="60" x="279.6" y="123.1453"/><line style="stroke:#181818;stroke-width:0.6;" x1="279.6" x2="339.6" y1="157.4906" y2="157.4906"/><text fill="#000000" font-family="sans-serif" font-size="16.8" lengthAdjust="spacing" textLength="33.6" x="292.8" y="147.2742">&#23458;&#35266;</text></g><ellipse cx="260.4" cy="67.9453" fill="#222222" rx="12" ry="12" style="stroke:#222222;stroke-width:1.2;"/><rect fill="#555555" height="9.6" style="stroke:none;stroke-width:1.2;" width="96" x="153.6" y="226.3453"/><rect fill="#555555" height="9.6" style="stroke:none;stroke-width:1.2;" width="96" x="153.6" y="382.3453"/><g id="intentional_crime.intention"><rect fill="#F1F1F1" height="60" rx="15" ry="15" style="stroke:#181818;stroke-width:0.6;" width="60" x="171.6" y="279.1453"/><line style="stroke:#181818;stroke-width:0.6;" x1="171.6" x2="231.6" y1="313.4906" y2="313.4906"/><text fill="#000000" font-family="sans-serif" font-size="16.8" lengthAdjust="spacing" textLength="33.6" x="184.8" y="303.2742">&#25925;&#24847;</text></g><rect fill="#555555" height="9.6" style="stroke:none;stroke-width:1.2;" width="96" x="271.2" y="226.3453"/><rect fill="#555555" height="9.6" style="stroke:none;stroke-width:1.2;" width="96" x="271.2" y="382.3453"/><g id="intentional_crime.danger1"><rect fill="#F1F1F1" height="60" rx="15" ry="15" style="stroke:#181818;stroke-width:0.6;" width="91.2" x="262.8" y="279.1453"/><line style="stroke:#181818;stroke-width:0.6;" x1="262.8" x2="354" y1="313.4906" y2="313.4906"/><text fill="#000000" font-family="sans-serif" font-size="16.8" lengthAdjust="spacing" textLength="67.2" x="274.8" y="303.2742">&#21361;&#38505;&#29366;&#24577;</text></g><g id="intentional_crime.actual_damage1"><rect fill="#F1F1F1" height="60" rx="15" ry="15" style="stroke:#181818;stroke-width:0.6;" width="91.2" x="375.6" y="279.1453"/><line style="stroke:#181818;stroke-width:0.6;" x1="375.6" x2="466.8" y1="313.4906" y2="313.4906"/><text fill="#000000" font-family="sans-serif" font-size="16.8" lengthAdjust="spacing" textLength="67.2" x="387.6" y="303.2742">&#23454;&#23475;&#32467;&#26524;</text></g><g id="intentional_crime.Integration_of_Subjectivity_and_Objectivity"><rect fill="#F1F1F1" height="60" rx="15" ry="15" style="stroke:#181818;stroke-width:0.6;" width="124.8" x="198" y="438.1453"/><line style="stroke:#181818;stroke-width:0.6;" x1="198" x2="322.8" y1="472.4906" y2="472.4906"/><text fill="#000000" font-family="sans-serif" font-size="16.8" lengthAdjust="spacing" textLength="100.8" x="210" y="462.2742">&#20027;&#23458;&#35266;&#30456;&#19968;&#33268;</text></g><g id="intentional_crime.criminal_law1"><rect fill="#F1F1F1" height="65.4984" rx="15" ry="15" style="stroke:#181818;stroke-width:0.6;" width="153.6" x="22.8" y="435.1453"/><line style="stroke:#181818;stroke-width:0.6;" x1="22.8" x2="176.4" y1="469.4906" y2="469.4906"/><text fill="#000000" font-family="sans-serif" font-size="16.8" lengthAdjust="spacing" textLength="33.6" x="82.8" y="459.2742">&#21009;&#27861;</text><text fill="#000000" font-family="sans-serif" font-size="14.4" lengthAdjust="spacing" textLength="129.6" x="28.8" y="491.0297">&#22788;&#32602;&#25925;&#24847;&#29359;&#32618;&#26159;&#21407;&#21017;</text></g><g id="intentional_crime.crime_establishment1"><rect fill="#F1F1F1" height="60" rx="15" ry="15" style="stroke:#181818;stroke-width:0.6;" width="91.2" x="134.4" y="544.3453"/><line style="stroke:#181818;stroke-width:0.6;" x1="134.4" x2="225.6" y1="578.6906" y2="578.6906"/><text fill="#000000" font-family="sans-serif" font-size="16.8" lengthAdjust="spacing" textLength="67.2" x="146.4" y="568.4742">&#29359;&#32618;&#25104;&#31435;</text></g><ellipse cx="180" cy="660.7453" fill="none" rx="13.2" ry="13.2" style="stroke:#222222;stroke-width:1.2;"/><ellipse cx="180" cy="660.7453" fill="#222222" rx="7.2" ry="7.2" style="stroke:#222222;stroke-width:1.2;"/><!--link *start*intentional_crime to subjectivity1--><g id="link_*start*intentional_crime_subjectivity1"><path d="M255.564,78.9733 C250.236,89.7613 244.6215,101.1464 237.0615,116.4944 " fill="none" id="*start*intentional_crime-to-subjectivity1" style="stroke:#181818;stroke-width:1.2;"/><polygon fill="#181818" points="233.88,122.9533,242.9582,115.3859,236.5313,117.5709,234.3463,111.1439,233.88,122.9533" style="stroke:#181818;stroke-width:1.2;"/></g><!--link *start*intentional_crime to objectivity1--><g id="link_*start*intentional_crime_objectivity1"><path d="M266.04,78.6493 C272.46,89.4373 279.5457,101.3678 288.7737,116.8958 " fill="none" id="*start*intentional_crime-to-objectivity1" style="stroke:#181818;stroke-width:1.2;"/><polygon fill="#181818" points="292.452,123.0853,291.0609,111.3488,289.3867,117.9274,282.8082,116.2533,292.452,123.0853" style="stroke:#181818;stroke-width:1.2;"/></g><!--link subjectivity1 to subjectivity1_fork--><g id="link_subjectivity1_subjectivity1_fork"><path d="M212.688,183.3613 C208.8,199.6813 206.045,211.3144 204.173,219.1504 " fill="none" id="subjectivity1-to-subjectivity1_fork" style="stroke:#181818;stroke-width:1.2;"/><polygon fill="#181818" points="202.5,226.1533,209.6781,216.7642,203.8942,220.3175,200.3409,214.5336,202.5,226.1533" style="stroke:#181818;stroke-width:1.2;"/></g><!--link subjectivity1_fork to intention--><g id="link_subjectivity1_fork_intention"><path d="M201.6,235.9933 C201.6,243.7813 201.6,255.4693 201.6,271.9333 " fill="none" id="subjectivity1_fork-to-intention" style="stroke:#181818;stroke-width:1.2;"/><polygon fill="#181818" points="201.6,279.1333,206.4,268.3333,201.6,273.1333,196.8,268.3333,201.6,279.1333" style="stroke:#181818;stroke-width:1.2;"/></g><!--link intention to subjectivity1_join--><g id="link_intention_subjectivity1_join"><path d="M201.6,339.3613 C201.6,355.6813 201.6,367.1173 201.6,374.9533 " fill="none" id="intention-to-subjectivity1_join" style="stroke:#181818;stroke-width:1.2;"/><polygon fill="#181818" points="201.6,382.1533,206.4,371.3533,201.6,376.1533,196.8,371.3533,201.6,382.1533" style="stroke:#181818;stroke-width:1.2;"/></g><!--link objectivity1 to objectivity1_fork--><g id="link_objectivity1_objectivity1_fork"><path d="M313.284,183.3613 C315.36,199.6813 316.8161,211.1748 317.8121,219.0108 " fill="none" id="objectivity1-to-objectivity1_fork" style="stroke:#181818;stroke-width:1.2;"/><polygon fill="#181818" points="318.72,226.1533,322.1199,214.8343,317.9635,220.2012,312.5965,216.0447,318.72,226.1533" style="stroke:#181818;stroke-width:1.2;"/></g><!--link objectivity1_fork to danger1--><g id="link_objectivity1_fork_danger1"><path d="M318.684,235.9933 C317.568,243.7813 315.8862,255.5417 313.5342,272.0057 " fill="none" id="objectivity1_fork-to-danger1" style="stroke:#181818;stroke-width:1.2;"/><polygon fill="#181818" points="312.516,279.1333,318.7951,269.1207,313.3645,273.1936,309.2916,267.763,312.516,279.1333" style="stroke:#181818;stroke-width:1.2;"/></g><!--link objectivity1_fork to actual_damage1--><g id="link_objectivity1_fork_actual_damage1"><path d="M324.12,235.9933 C334.62,243.7813 354.3226,258.3834 376.5466,274.8474 " fill="none" id="objectivity1_fork-to-actual_damage1" style="stroke:#181818;stroke-width:1.2;"/><polygon fill="#181818" points="382.332,279.1333,376.5112,268.8475,377.5108,275.5617,370.7966,276.5613,382.332,279.1333" style="stroke:#181818;stroke-width:1.2;"/></g><!--link danger1 to objectivity1_join--><g id="link_danger1_objectivity1_join"><path d="M312.54,339.3613 C314.88,355.6813 316.5288,367.1892 317.6448,375.0252 " fill="none" id="danger1-to-objectivity1_join" style="stroke:#181818;stroke-width:1.2;"/><polygon fill="#181818" points="318.66,382.1533,321.8893,370.7844,317.814,376.2133,312.3852,372.138,318.66,382.1533" style="stroke:#181818;stroke-width:1.2;"/></g><!--link actual_damage1 to objectivity1_join--><g id="link_actual_damage1_objectivity1_join"><path d="M382.056,339.3613 C360.036,355.6813 340.6683,370.0299 330.0963,377.8659 " fill="none" id="actual_damage1-to-objectivity1_join" style="stroke:#181818;stroke-width:1.2;"/><polygon fill="#181818" points="324.312,382.1533,335.8467,379.5785,329.1323,378.5805,330.1303,371.866,324.312,382.1533" style="stroke:#181818;stroke-width:1.2;"/></g><!--link subjectivity1_join to Integration_of_Subjectivity_and_Objectivity--><g id="link_subjectivity1_join_Integration_of_Subjectivity_and_Objectivity"><path d="M204.432,392.1373 C210.588,400.3573 221.3104,414.7045 234.2584,432.0085 " fill="none" id="subjectivity1_join-to-Integration_of_Subjectivity_and_Objectivity" style="stroke:#181818;stroke-width:1.2;"/><polygon fill="#181818" points="238.572,437.7733,235.9448,426.2504,234.9773,432.9693,228.2584,432.0019,238.572,437.7733" style="stroke:#181818;stroke-width:1.2;"/></g><!--link objectivity1_join to Integration_of_Subjectivity_and_Objectivity--><g id="link_objectivity1_join_Integration_of_Subjectivity_and_Objectivity"><path d="M316.368,392.1373 C310.212,400.3573 299.4896,414.7045 286.5416,432.0085 " fill="none" id="objectivity1_join-to-Integration_of_Subjectivity_and_Objectivity" style="stroke:#181818;stroke-width:1.2;"/><polygon fill="#181818" points="282.228,437.7733,292.5416,432.0019,285.8227,432.9693,284.8552,426.2504,282.228,437.7733" style="stroke:#181818;stroke-width:1.2;"/></g><!--link Integration_of_Subjectivity_and_Objectivity to crime_establishment1--><g id="link_Integration_of_Subjectivity_and_Objectivity_crime_establishment1"><path d="M238.008,498.2653 C226.944,512.5333 218.0441,524.0245 206.9681,538.3285 " fill="none" id="Integration_of_Subjectivity_and_Objectivity-to-crime_establishment1" style="stroke:#181818;stroke-width:1.2;"/><polygon fill="#181818" points="202.56,544.0213,212.9674,538.4208,206.2334,539.2773,205.377,532.5433,202.56,544.0213" style="stroke:#181818;stroke-width:1.2;"/></g><!--link criminal_law1 to crime_establishment1--><g id="link_criminal_law1_crime_establishment1"><path d="M124.596,501.6133 C135.108,515.1853 142.8279,525.1676 153.0639,538.3676 " fill="none" id="criminal_law1-to-crime_establishment1" style="stroke:#181818;stroke-width:1.2;"/><polygon fill="#181818" points="157.476,544.0573,154.651,532.5813,153.7992,539.3159,147.0646,538.4641,157.476,544.0573" style="stroke:#181818;stroke-width:1.2;"/></g><!--link crime_establishment1 to *end*intentional_crime--><g id="link_crime_establishment1_*end*intentional_crime"><path d="M180,604.4533 C180,619.0693 180,628.8373 180,640.0333 " fill="none" id="crime_establishment1-to-*end*intentional_crime" style="stroke:#181818;stroke-width:1.2;"/><polygon fill="#181818" points="180,647.2333,184.8,636.4333,180,641.2333,175.2,636.4333,180,647.2333" style="stroke:#181818;stroke-width:1.2;"/></g><path d="M534.6,25.2 L933,25.2 A15,15 0 0 1 948,40.2 L948,59.5453 L519.6,59.5453 L519.6,40.2 A15,15 0 0 1 534.6,25.2 " fill="#F1F1F1" style="stroke:#F1F1F1;stroke-width:1.2;"/><rect fill="none" height="643.9453" rx="15" ry="15" style="stroke:#181818;stroke-width:0.6;" width="428.4" x="519.6" y="25.2"/><line style="stroke:#181818;stroke-width:0.6;" x1="519.6" x2="948" y1="59.5453" y2="59.5453"/><text fill="#000000" font-family="sans-serif" font-size="16.8" lengthAdjust="spacing" textLength="67.2" x="700.2" y="49.3289">&#36807;&#22833;&#29359;&#32618;</text><g id="negligent_crime.subjectivity2"><rect fill="#F1F1F1" height="60" rx="15" ry="15" style="stroke:#181818;stroke-width:0.6;" width="60" x="570" y="139.9453"/><line style="stroke:#181818;stroke-width:0.6;" x1="570" x2="630" y1="174.2906" y2="174.2906"/><text fill="#000000" font-family="sans-serif" font-size="16.8" lengthAdjust="spacing" textLength="33.6" x="583.2" y="164.0742">&#20027;&#35266;</text></g><g id="negligent_crime.objectivity2"><rect fill="#F1F1F1" height="60" rx="15" ry="15" style="stroke:#181818;stroke-width:0.6;" width="60" x="660" y="139.9453"/><line style="stroke:#181818;stroke-width:0.6;" x1="660" x2="720" y1="174.2906" y2="174.2906"/><text fill="#000000" font-family="sans-serif" font-size="16.8" lengthAdjust="spacing" textLength="33.6" x="673.2" y="164.0742">&#23458;&#35266;</text></g><ellipse cx="640.8" cy="84.7453" fill="#222222" rx="12" ry="12" style="stroke:#222222;stroke-width:1.2;"/><rect fill="#555555" height="9.6" style="stroke:none;stroke-width:1.2;" width="96" x="534" y="243.1453"/><rect fill="#555555" height="9.6" style="stroke:none;stroke-width:1.2;" width="96" x="534" y="436.9453"/><g id="negligent_crime.negligence"><rect fill="#F1F1F1" height="60" rx="15" ry="15" style="stroke:#181818;stroke-width:0.6;" width="60" x="552" y="295.9453"/><line style="stroke:#181818;stroke-width:0.6;" x1="552" x2="612" y1="330.2906" y2="330.2906"/><text fill="#000000" font-family="sans-serif" font-size="16.8" lengthAdjust="spacing" textLength="33.6" x="565.2" y="320.0742">&#36807;&#22833;</text></g><rect fill="#555555" height="9.6" style="stroke:none;stroke-width:1.2;" width="96" x="651.6" y="243.1453"/><rect fill="#555555" height="9.6" style="stroke:none;stroke-width:1.2;" width="96" x="651.6" y="436.9453"/><g id="negligent_crime.actual_damage2"><rect fill="#F1F1F1" height="60" rx="15" ry="15" style="stroke:#181818;stroke-width:0.6;" width="91.2" x="654" y="295.9453"/><line style="stroke:#181818;stroke-width:0.6;" x1="654" x2="745.2" y1="330.2906" y2="330.2906"/><text fill="#000000" font-family="sans-serif" font-size="16.8" lengthAdjust="spacing" textLength="67.2" x="666" y="320.0742">&#23454;&#23475;&#32467;&#26524;</text></g><g id="negligent_crime.criminal_law2"><rect fill="#F1F1F1" height="84.6516" rx="15" ry="15" style="stroke:#181818;stroke-width:0.6;" width="168" x="769.2" y="399.1453"/><line style="stroke:#181818;stroke-width:0.6;" x1="769.2" x2="937.2" y1="433.4906" y2="433.4906"/><text fill="#000000" font-family="sans-serif" font-size="16.8" lengthAdjust="spacing" textLength="33.6" x="836.4" y="423.2742">&#21009;&#27861;</text><text fill="#000000" font-family="sans-serif" font-size="14.4" lengthAdjust="spacing" textLength="144" x="775.2" y="455.0297">&#22788;&#32602;&#36807;&#22833;&#29359;&#32618;&#26159;&#20363;&#22806;&#65292;</text><text fill="#000000" font-family="sans-serif" font-size="14.4" lengthAdjust="spacing" textLength="100.8" x="775.2" y="474.1828">&#39035;&#21009;&#27861;&#26126;&#30830;&#35268;&#23450;</text></g><g id="negligent_crime.crime_establishment2"><rect fill="#F1F1F1" height="60" rx="15" ry="15" style="stroke:#181818;stroke-width:0.6;" width="91.2" x="654" y="527.5453"/><line style="stroke:#181818;stroke-width:0.6;" x1="654" x2="745.2" y1="561.8906" y2="561.8906"/><text fill="#000000" font-family="sans-serif" font-size="16.8" lengthAdjust="spacing" textLength="67.2" x="666" y="551.6742">&#29359;&#32618;&#25104;&#31435;</text></g><ellipse cx="699.6" cy="643.9453" fill="none" rx="13.2" ry="13.2" style="stroke:#222222;stroke-width:1.2;"/><ellipse cx="699.6" cy="643.9453" fill="#222222" rx="7.2" ry="7.2" style="stroke:#222222;stroke-width:1.2;"/><!--link *start*negligent_crime to subjectivity2--><g id="link_*start*negligent_crime_subjectivity2"><path d="M635.964,95.7733 C630.636,106.5613 625.0215,117.9464 617.4615,133.2944 " fill="none" id="*start*negligent_crime-to-subjectivity2" style="stroke:#181818;stroke-width:1.2;"/><polygon fill="#181818" points="614.28,139.7533,623.3582,132.1859,616.9313,134.3709,614.7463,127.9439,614.28,139.7533" style="stroke:#181818;stroke-width:1.2;"/></g><!--link *start*negligent_crime to objectivity2--><g id="link_*start*negligent_crime_objectivity2"><path d="M646.44,95.4493 C652.86,106.2373 659.9457,118.1678 669.1737,133.6958 " fill="none" id="*start*negligent_crime-to-objectivity2" style="stroke:#181818;stroke-width:1.2;"/><polygon fill="#181818" points="672.852,139.8853,671.4609,128.1488,669.7867,134.7274,663.2082,133.0533,672.852,139.8853" style="stroke:#181818;stroke-width:1.2;"/></g><!--link subjectivity2 to subjectivity2_fork--><g id="link_subjectivity2_subjectivity2_fork"><path d="M593.088,200.1613 C589.2,216.4813 586.445,228.1144 584.573,235.9504 " fill="none" id="subjectivity2-to-subjectivity2_fork" style="stroke:#181818;stroke-width:1.2;"/><polygon fill="#181818" points="582.9,242.9533,590.0781,233.5642,584.2942,237.1175,580.7409,231.3336,582.9,242.9533" style="stroke:#181818;stroke-width:1.2;"/></g><!--link subjectivity2_fork to negligence--><g id="link_subjectivity2_fork_negligence"><path d="M582,252.7933 C582,260.5813 582,272.2693 582,288.7333 " fill="none" id="subjectivity2_fork-to-negligence" style="stroke:#181818;stroke-width:1.2;"/><polygon fill="#181818" points="582,295.9333,586.8,285.1333,582,289.9333,577.2,285.1333,582,295.9333" style="stroke:#181818;stroke-width:1.2;"/></g><!--link negligence to subjectivity2_join--><g id="link_negligence_subjectivity2_join"><path d="M582,356.3533 C582,384.4333 582,417.2053 582,429.5533 " fill="none" id="negligence-to-subjectivity2_join" style="stroke:#181818;stroke-width:1.2;"/><polygon fill="#181818" points="582,436.7533,586.8,425.9533,582,430.7533,577.2,425.9533,582,436.7533" style="stroke:#181818;stroke-width:1.2;"/></g><!--link objectivity2 to objectivity2_fork--><g id="link_objectivity2_objectivity2_fork"><path d="M693.684,200.1613 C695.76,216.4813 697.2161,227.9748 698.2121,235.8108 " fill="none" id="objectivity2-to-objectivity2_fork" style="stroke:#181818;stroke-width:1.2;"/><polygon fill="#181818" points="699.12,242.9533,702.5199,231.6343,698.3635,237.0012,692.9965,232.8447,699.12,242.9533" style="stroke:#181818;stroke-width:1.2;"/></g><!--link objectivity2_fork to actual_damage2--><g id="link_objectivity2_fork_actual_damage2"><path d="M699.6,252.7933 C699.6,260.5813 699.6,272.2693 699.6,288.7333 " fill="none" id="objectivity2_fork-to-actual_damage2" style="stroke:#181818;stroke-width:1.2;"/><polygon fill="#181818" points="699.6,295.9333,704.4,285.1333,699.6,289.9333,694.8,285.1333,699.6,295.9333" style="stroke:#181818;stroke-width:1.2;"/></g><!--link actual_damage2 to objectivity2_join--><g id="link_actual_damage2_objectivity2_join"><path d="M699.6,356.3533 C699.6,384.4333 699.6,417.2053 699.6,429.5533 " fill="none" id="actual_damage2-to-objectivity2_join" style="stroke:#181818;stroke-width:1.2;"/><polygon fill="#181818" points="699.6,436.7533,704.4,425.9533,699.6,430.7533,694.8,425.9533,699.6,436.7533" style="stroke:#181818;stroke-width:1.2;"/></g><!--link subjectivity2_join to crime_establishment2--><g id="link_subjectivity2_join_crime_establishment2"><path d="M585.912,446.7133 C598.74,459.0973 635.2219,494.2627 664.3699,522.3787 " fill="none" id="subjectivity2_join-to-crime_establishment2" style="stroke:#181818;stroke-width:1.2;"/><polygon fill="#181818" points="669.552,527.3773,665.1113,516.4247,665.2336,523.2118,658.4465,523.3341,669.552,527.3773" style="stroke:#181818;stroke-width:1.2;"/></g><!--link objectivity2_join to crime_establishment2--><g id="link_objectivity2_join_crime_establishment2"><path d="M699.6,446.7133 C699.6,459.0973 699.6,492.0613 699.6,520.1773 " fill="none" id="objectivity2_join-to-crime_establishment2" style="stroke:#181818;stroke-width:1.2;"/><polygon fill="#181818" points="699.6,527.3773,704.4,516.5773,699.6,521.3773,694.8,516.5773,699.6,527.3773" style="stroke:#181818;stroke-width:1.2;"/></g><!--link criminal_law2 to crime_establishment2--><g id="link_criminal_law2_crime_establishment2"><path d="M796.872,484.5253 C777.528,498.8173 762.1053,510.2021 744.4293,523.2461 " fill="none" id="criminal_law2-to-crime_establishment2" style="stroke:#181818;stroke-width:1.2;"/><polygon fill="#181818" points="738.636,527.5213,750.1761,524.9708,743.4638,523.9587,744.4759,517.2463,738.636,527.5213" style="stroke:#181818;stroke-width:1.2;"/></g><!--link crime_establishment2 to *end*negligent_crime--><g id="link_crime_establishment2_*end*negligent_crime"><path d="M699.6,587.6533 C699.6,602.2693 699.6,612.0373 699.6,623.2333 " fill="none" id="crime_establishment2-to-*end*negligent_crime" style="stroke:#181818;stroke-width:1.2;"/><polygon fill="#181818" points="699.6,630.4333,704.4,619.6333,699.6,624.4333,694.8,619.6333,699.6,630.4333" style="stroke:#181818;stroke-width:1.2;"/></g><!--SRC=[fLHDInj16BxlhrWy5ZmunoAvzzI3HotBc8pRqMG7ifiMAOMqf1YqjHLHr8f52GHRY8X50gdjdydk9gV-XSv7aftPcTqaDQVTVP_toVky7uyVm03P2z7HXwZnETwzYH- -BzZGjx4N82_0n8DbfrZ55MI_iMpwymM-t-qDskyvqg-jRw9YW5_XO7j9neITgp66f26hJrxOYui5G_8uegHO4g-IucoGwXODBI-pXq8X4xT9iCTnx471ZRIhgaLSPj3BvV-j0qL93AsoJTuCJAmeMIEPJIAPff2a1H1Z_ShKFjqEJw_ZtVke_extf0Gz5rLJaxq8EtTnxp2wEESOM0ngT55Ai09Tj9HQ5B47yTTklriVxFpa2SzeCzmgPErmo8Qp8dN3WLx9UPwyQqAI1ikbcH6fmaIFHsbwG_WO649Dom4Qbeo17oNllrYKyJGFehiZtcTskfZTS1c-5drIlZormrOZVZYJppywkGdtluNDKvbo56f-YN_iJOYHWsXulOpzbnMwse9_ZgAvo4mYfT3fq7I0Pr0piTvQraZ4uCzEsBgLJCv3RXcx53s7nO7f5WSoBGvaMHp8j3WmeyM1F8iJoXNDHQGjCD3hDNiSI0uiHPUy6hXoN0xCvdAv8lDT2QGF3MWpICGIerO3d_f9PnIIPpXEeEqy61-dlBRqEFk_zyBMyTzV7zUyuMLFq4Kd-_5bPz1kX9spUSyM6COxiQ1CF9aFhWZBXcPTCv2lsVe7]--></g></svg>