<svg xmlns="http://www.w3.org/2000/svg" xmlns:xlink="http://www.w3.org/1999/xlink" contentStyleType="text/css" height="777px" preserveAspectRatio="none" style="width:1457px;height:777px;background:#FFFFFF;" version="1.1" viewBox="0 0 1457 777" width="1457px" zoomAndPan="magnify"><title>&#36130;&#20135;&#29359;&#32618; - &#25968;&#39069; - &#20027;&#23458;&#35266;&#30456;&#19968;&#33268;</title><defs/><g><text fill="#000000" font-family="sans-serif" font-size="14" font-weight="bold" lengthAdjust="spacing" textLength="198.1328" x="628.2573" y="34.5332">&#36130;&#20135;&#29359;&#32618; - &#25968;&#39069; - &#20027;&#23458;&#35266;&#30456;&#19968;&#33268;</text><rect fill="#F1F1F1" height="37.6094" rx="12.5" ry="12.5" style="stroke:#181818;stroke-width:1.5;" width="164.6963" x="10" y="388.3125"/><text fill="#000000" font-family="sans-serif" font-size="14" lengthAdjust="spacing" textLength="144.6963" x="20" y="412.8457">&#20027;&#23458;&#35266;&#30456;&#19968;&#33268;&#65288;P282&#65289;</text><rect fill="#F1F1F1" height="37.6094" rx="12.5" ry="12.5" style="stroke:#181818;stroke-width:1.5;" width="48" x="224.6963" y="388.3125"/><text fill="#000000" font-family="sans-serif" font-size="14" lengthAdjust="spacing" textLength="28" x="234.6963" y="412.8457">&#24433;&#21709;</text><rect fill="#F1F1F1" height="37.6094" rx="12.5" ry="12.5" style="stroke:#181818;stroke-width:1.5;" width="76" x="322.6963" y="150.1641"/><text fill="#000000" font-family="sans-serif" font-size="14" lengthAdjust="spacing" textLength="56" x="332.6963" y="174.6973">&#29359;&#32618;&#25104;&#31435;</text><rect fill="#F1F1F1" height="37.6094" rx="12.5" ry="12.5" style="stroke:#181818;stroke-width:1.5;" width="348.2686" x="448.6963" y="150.1641"/><text fill="#000000" font-family="sans-serif" font-size="14" lengthAdjust="spacing" textLength="328.2686" x="458.6963" y="174.6973">&#20892;&#27665;&#30423;&#31363;&#26222;&#36890;&#33889;&#33796;&#65292;&#33889;&#33796;&#30340;&#23454;&#38469;&#20215;&#20540;&#26159;40&#19975;&#65288;P282&#65289;</text><rect fill="#F1F1F1" height="37.6094" rx="12.5" ry="12.5" style="stroke:#181818;stroke-width:1.5;" width="76" x="846.9648" y="121.3594"/><text fill="#000000" font-family="sans-serif" font-size="14" lengthAdjust="spacing" textLength="56" x="856.9648" y="145.8926">&#25104;&#31435;&#38382;&#39064;</text><rect fill="#F1F1F1" height="42.75" rx="12.5" ry="12.5" style="stroke:#181818;stroke-width:1.5;" width="450.8896" x="972.9648" y="58.6094"/><text fill="#000000" font-family="sans-serif" font-size="14" lengthAdjust="spacing" textLength="406" x="982.9648" y="88.2832">&#20027;&#35266;&#65292;&#35748;&#20026;&#26159;&#30423;&#31363;&#26222;&#36890;&#33889;&#33796;&#65292;&#23384;&#22312;&#20107;&#23454;&#35748;&#35782;&#38169;&#35823;&#65288;&#27861;&#24459;&#19981;&#20104;&#20445;&#25252;&#65289;</text><path d="M1405.4154,79.1105 L1412.5525,71.974 C1413.1218,71.4047 1413.1218,70.4813 1412.5525,69.912 C1411.9826,69.342 1411.0597,69.342 1410.4904,69.912 L1403.3533,77.0485 L1396.2168,69.912 C1395.6475,69.342 1394.7235,69.342 1394.1547,69.912 C1393.5848,70.4813 1393.5848,71.4047 1394.1547,71.974 L1401.2912,79.1105 L1394.1384,86.264 C1393.5685,86.8339 1393.5685,87.7567 1394.1384,88.326 C1394.4231,88.6107 1394.7964,88.753 1395.1697,88.753 C1395.5431,88.753 1395.9164,88.6107 1396.2011,88.326 L1403.3539,81.1726 L1410.4904,88.3091 C1410.7751,88.5938 1411.1484,88.7361 1411.5217,88.7361 C1411.8951,88.7361 1412.2678,88.5938 1412.5531,88.3091 C1413.1224,87.7392 1413.1224,86.8164 1412.5531,86.247 L1405.4154,79.1105 " fill="#FE0000" style="stroke:;stroke-width:0;stroke-dasharray:;"/><path d="M922.9648,140.1641 L932.9648,140.1641 C947.9648,140.1641 947.9648,79.9844 962.9648,79.9844 L972.9648,79.9844 " fill="none" style="stroke:#181818;stroke-width:1;"/><rect fill="#F1F1F1" height="42.75" rx="12.5" ry="12.5" style="stroke:#181818;stroke-width:1.5;" width="368.4619" x="972.9648" y="121.3594"/><text fill="#000000" font-family="sans-serif" font-size="14" lengthAdjust="spacing" textLength="323.5723" x="982.9648" y="151.0332">&#23458;&#35266;&#65292;&#33889;&#33796;&#30340;&#23454;&#38469;&#20215;&#20540;&#26159;40&#19975;&#65292;&#36798;&#21040;&#25968;&#39069;&#36739;&#22823;&#30340;&#26631;&#20934;</text><path d="M1330.5278,132.1615 C1329.7164,131.6353 1328.6332,131.8663 1328.1076,132.6771 L1318.3018,147.7919 L1313.5196,143.3702 C1312.8097,142.714 1311.7031,142.7571 1311.0468,143.467 C1310.3906,144.1764 1310.4338,145.2841 1311.1437,145.9398 L1317.4227,151.7451 C1317.6029,151.9003 1317.6029,151.9003 1317.6863,151.9545 C1317.9803,152.1459 1318.3105,152.2369 1318.6372,152.2369 C1319.21,152.2369 1319.7718,151.9557 1320.1072,151.4389 L1331.0435,134.5817 C1331.5697,133.7709 1331.3387,132.687 1330.5278,132.1615 " fill="#FE0000" style="stroke:;stroke-width:0;stroke-dasharray:;"/><path d="M922.9648,140.1641 L932.9648,140.1641 C947.9648,140.1641 947.9648,142.7344 962.9648,142.7344 L972.9648,142.7344 " fill="none" style="stroke:#181818;stroke-width:1;"/><rect fill="#F1F1F1" height="37.6094" rx="12.5" ry="12.5" style="stroke:#181818;stroke-width:1.5;" width="338.8965" x="972.9648" y="184.1094"/><text fill="#000000" font-family="sans-serif" font-size="14" lengthAdjust="spacing" textLength="318.8965" x="982.9648" y="208.6426">&#20027;&#23458;&#35266;&#19981;&#19968;&#33268;&#65292;40&#19975;&#33889;&#33796;&#20215;&#20540;&#21521;&#19979;&#20860;&#23481;&#20026;&#8220;&#26222;&#36890;&#33889;&#33796;&#8221;</text><path d="M922.9648,140.1641 L932.9648,140.1641 C947.9648,140.1641 947.9648,202.9141 962.9648,202.9141 L972.9648,202.9141 " fill="none" style="stroke:#181818;stroke-width:1;"/><path d="M796.9648,168.9688 L806.9648,168.9688 C821.9648,168.9688 821.9648,140.1641 836.9648,140.1641 L846.9648,140.1641 " fill="none" style="stroke:#181818;stroke-width:1;"/><rect fill="#F1F1F1" height="37.6094" rx="12.5" ry="12.5" style="stroke:#181818;stroke-width:1.5;" width="48" x="846.9648" y="241.7188"/><text fill="#000000" font-family="sans-serif" font-size="14" lengthAdjust="spacing" textLength="28" x="856.9648" y="266.252">&#32467;&#35770;</text><rect fill="#F1F1F1" height="37.6094" rx="12.5" ry="12.5" style="stroke:#181818;stroke-width:1.5;" width="104" x="944.9648" y="241.7188"/><text fill="#000000" font-family="sans-serif" font-size="14" lengthAdjust="spacing" textLength="84" x="954.9648" y="266.252">&#19981;&#26500;&#25104;&#30423;&#31363;&#32618;</text><path d="M894.9648,260.5234 L904.9648,260.5234 C919.9648,260.5234 919.9648,260.5234 934.9648,260.5234 L944.9648,260.5234 " fill="none" style="stroke:#181818;stroke-width:1;"/><path d="M796.9648,168.9688 L806.9648,168.9688 C821.9648,168.9688 821.9648,260.5234 836.9648,260.5234 L846.9648,260.5234 " fill="none" style="stroke:#181818;stroke-width:1;"/><path d="M398.6963,168.9688 L408.6963,168.9688 C423.6963,168.9688 423.6963,168.9688 438.6963,168.9688 L448.6963,168.9688 " fill="none" style="stroke:#181818;stroke-width:1;"/><path d="M272.6963,407.1172 L282.6963,407.1172 C297.6963,407.1172 297.6963,168.9688 312.6963,168.9688 L322.6963,168.9688 " fill="none" style="stroke:#181818;stroke-width:1;"/><rect fill="#F1F1F1" height="37.6094" rx="12.5" ry="12.5" style="stroke:#181818;stroke-width:1.5;" width="76" x="322.6963" y="393.4531"/><text fill="#000000" font-family="sans-serif" font-size="14" lengthAdjust="spacing" textLength="56" x="332.6963" y="417.9863">&#29359;&#32618;&#24418;&#24577;</text><rect fill="#F1F1F1" height="37.6094" rx="12.5" ry="12.5" style="stroke:#181818;stroke-width:1.5;" width="48" x="448.6963" y="393.4531"/><text fill="#000000" font-family="sans-serif" font-size="14" lengthAdjust="spacing" textLength="28" x="458.6963" y="417.9863">&#26410;&#36930;</text><rect fill="#F1F1F1" height="37.6094" rx="12.5" ry="12.5" style="stroke:#181818;stroke-width:1.5;" width="272.0547" x="546.6963" y="393.4531"/><text fill="#000000" font-family="sans-serif" font-size="14" lengthAdjust="spacing" textLength="252.0547" x="556.6963" y="417.9863">&#23567;&#20599;&#30423;&#31363;&#38065;&#21253;&#65292;&#21457;&#29616;&#21482;&#26377;100&#20803;&#65288;P283&#65289;</text><rect fill="#F1F1F1" height="37.6094" rx="12.5" ry="12.5" style="stroke:#181818;stroke-width:1.5;" width="76" x="868.751" y="333.2734"/><text fill="#000000" font-family="sans-serif" font-size="14" lengthAdjust="spacing" textLength="56" x="878.751" y="357.8066">&#25104;&#31435;&#38382;&#39064;</text><rect fill="#F1F1F1" height="42.75" rx="12.5" ry="12.5" style="stroke:#181818;stroke-width:1.5;" width="268.8896" x="994.751" y="299.3281"/><text fill="#000000" font-family="sans-serif" font-size="14" lengthAdjust="spacing" textLength="224" x="1004.751" y="329.002">&#20027;&#35266;&#19978;&#65292;&#26377;&#30423;&#31363;&#25968;&#39069;&#36739;&#22823;&#36130;&#29289;&#30340;&#25925;&#24847;</text><path d="M1252.7417,310.1302 C1251.9303,309.604 1250.847,309.835 1250.3215,310.6459 L1240.5156,325.7606 L1235.7335,321.339 C1235.0235,320.6827 1233.917,320.7259 1233.2607,321.4358 C1232.6045,322.1451 1232.6476,323.2529 1233.3575,323.9085 L1239.6365,329.7139 C1239.8168,329.869 1239.8168,329.869 1239.9002,329.9233 C1240.1942,330.1146 1240.5244,330.2056 1240.851,330.2056 C1241.4239,330.2056 1241.9856,329.9245 1242.321,329.4076 L1253.2574,312.5505 C1253.7835,311.7396 1253.5525,310.6558 1252.7417,310.1302 " fill="#FE0000" style="stroke:;stroke-width:0;stroke-dasharray:;"/><path d="M944.751,352.0781 L954.751,352.0781 C969.751,352.0781 969.751,320.7031 984.751,320.7031 L994.751,320.7031 " fill="none" style="stroke:#181818;stroke-width:1;"/><rect fill="#F1F1F1" height="42.75" rx="12.5" ry="12.5" style="stroke:#181818;stroke-width:1.5;" width="352.8896" x="994.751" y="362.0781"/><text fill="#000000" font-family="sans-serif" font-size="14" lengthAdjust="spacing" textLength="308" x="1004.751" y="391.752">&#23458;&#35266;&#19978;&#65292;&#26377;&#30423;&#31363;&#21040;&#25968;&#39069;&#36739;&#22823;&#36130;&#29289;&#30340;&#21487;&#33021;&#24615;&#12289;&#21361;&#38505;&#24615;</text><path d="M1336.7417,372.8802 C1335.9303,372.354 1334.847,372.585 1334.3215,373.3959 L1324.5156,388.5106 L1319.7335,384.089 C1319.0235,383.4327 1317.917,383.4759 1317.2607,384.1858 C1316.6045,384.8951 1316.6476,386.0029 1317.3575,386.6585 L1323.6365,392.4639 C1323.8168,392.619 1323.8168,392.619 1323.9002,392.6733 C1324.1942,392.8646 1324.5244,392.9556 1324.851,392.9556 C1325.4239,392.9556 1325.9856,392.6745 1326.321,392.1576 L1337.2574,375.3005 C1337.7835,374.4896 1337.5525,373.4058 1336.7417,372.8802 " fill="#FE0000" style="stroke:;stroke-width:0;stroke-dasharray:;"/><path d="M944.751,352.0781 L954.751,352.0781 C969.751,352.0781 969.751,383.4531 984.751,383.4531 L994.751,383.4531 " fill="none" style="stroke:#181818;stroke-width:1;"/><path d="M818.751,412.2578 L828.751,412.2578 C843.751,412.2578 843.751,352.0781 858.751,352.0781 L868.751,352.0781 " fill="none" style="stroke:#181818;stroke-width:1;"/><rect fill="#F1F1F1" height="37.6094" rx="12.5" ry="12.5" style="stroke:#181818;stroke-width:1.5;" width="76" x="868.751" y="427.3984"/><text fill="#000000" font-family="sans-serif" font-size="14" lengthAdjust="spacing" textLength="56" x="878.751" y="451.9316">&#26082;&#36930;&#38382;&#39064;</text><rect fill="#F1F1F1" height="42.75" rx="12.5" ry="12.5" style="stroke:#181818;stroke-width:1.5;" width="184.8896" x="994.751" y="424.8281"/><text fill="#000000" font-family="sans-serif" font-size="14" lengthAdjust="spacing" textLength="140" x="1004.751" y="454.502">&#30423;&#31363;&#21040;&#25968;&#39069;&#36739;&#22823;&#30340;&#36130;&#29289;</text><path d="M1161.2015,445.3293 L1168.3386,438.1928 C1168.908,437.6235 1168.908,436.7 1168.3386,436.1307 C1167.7687,435.5608 1166.8459,435.5608 1166.2765,436.1307 L1159.1395,443.2672 L1152.003,436.1307 C1151.4336,435.5608 1150.5096,435.5608 1149.9409,436.1307 C1149.371,436.7 1149.371,437.6235 1149.9409,438.1928 L1157.0774,445.3293 L1149.9245,452.4827 C1149.3546,453.0526 1149.3546,453.9755 1149.9245,454.5448 C1150.2092,454.8295 1150.5825,454.9718 1150.9559,454.9718 C1151.3292,454.9718 1151.7025,454.8295 1151.9872,454.5448 L1159.14,447.3914 L1166.2765,454.5279 C1166.5612,454.8125 1166.9345,454.9549 1167.3079,454.9549 C1167.6812,454.9549 1168.054,454.8125 1168.3392,454.5279 C1168.9085,453.958 1168.9085,453.0351 1168.3392,452.4658 L1161.2015,445.3293 " fill="#FE0000" style="stroke:;stroke-width:0;stroke-dasharray:;"/><path d="M944.751,446.2031 L954.751,446.2031 C969.751,446.2031 969.751,446.2031 984.751,446.2031 L994.751,446.2031 " fill="none" style="stroke:#181818;stroke-width:1;"/><path d="M818.751,412.2578 L828.751,412.2578 C843.751,412.2578 843.751,446.2031 858.751,446.2031 L868.751,446.2031 " fill="none" style="stroke:#181818;stroke-width:1;"/><rect fill="#F1F1F1" height="37.6094" rx="12.5" ry="12.5" style="stroke:#181818;stroke-width:1.5;" width="48" x="868.751" y="487.5781"/><text fill="#000000" font-family="sans-serif" font-size="14" lengthAdjust="spacing" textLength="28" x="878.751" y="512.1113">&#32467;&#35770;</text><rect fill="#F1F1F1" height="37.6094" rx="12.5" ry="12.5" style="stroke:#181818;stroke-width:1.5;" width="90" x="966.751" y="487.5781"/><text fill="#000000" font-family="sans-serif" font-size="14" lengthAdjust="spacing" textLength="70" x="976.751" y="512.1113">&#30423;&#31363;&#32618;&#26410;&#36930;</text><path d="M916.751,506.3828 L926.751,506.3828 C941.751,506.3828 941.751,506.3828 956.751,506.3828 L966.751,506.3828 " fill="none" style="stroke:#181818;stroke-width:1;"/><path d="M818.751,412.2578 L828.751,412.2578 C843.751,412.2578 843.751,506.3828 858.751,506.3828 L868.751,506.3828 " fill="none" style="stroke:#181818;stroke-width:1;"/><path d="M496.6963,412.2578 L506.6963,412.2578 C521.6963,412.2578 521.6963,412.2578 536.6963,412.2578 L546.6963,412.2578 " fill="none" style="stroke:#181818;stroke-width:1;"/><path d="M398.6963,412.2578 L408.6963,412.2578 C423.6963,412.2578 423.6963,412.2578 438.6963,412.2578 L448.6963,412.2578 " fill="none" style="stroke:#181818;stroke-width:1;"/><rect fill="#F1F1F1" height="37.6094" rx="12.5" ry="12.5" style="stroke:#181818;stroke-width:1.5;" width="48" x="448.6963" y="451.0625"/><text fill="#000000" font-family="sans-serif" font-size="14" lengthAdjust="spacing" textLength="28" x="458.6963" y="475.5957">&#26082;&#36930;</text><path d="M398.6963,412.2578 L408.6963,412.2578 C423.6963,412.2578 423.6963,469.8672 438.6963,469.8672 L448.6963,469.8672 " fill="none" style="stroke:#181818;stroke-width:1;"/><path d="M272.6963,407.1172 L282.6963,407.1172 C297.6963,407.1172 297.6963,412.2578 312.6963,412.2578 L322.6963,412.2578 " fill="none" style="stroke:#181818;stroke-width:1;"/><rect fill="#F1F1F1" height="37.6094" rx="12.5" ry="12.5" style="stroke:#181818;stroke-width:1.5;" width="48" x="322.6963" y="631.6016"/><text fill="#000000" font-family="sans-serif" font-size="14" lengthAdjust="spacing" textLength="28" x="332.6963" y="656.1348">&#37327;&#21009;</text><rect fill="#F1F1F1" height="37.6094" rx="12.5" ry="12.5" style="stroke:#181818;stroke-width:1.5;" width="384.0547" x="420.6963" y="545.1875"/><text fill="#000000" font-family="sans-serif" font-size="14" lengthAdjust="spacing" textLength="364.0547" x="430.6963" y="569.7207">&#26381;&#21153;&#21592;&#30423;&#31363;&#20960;&#21315;&#20803;&#33457;&#29942;&#65292;&#33457;&#29942;&#30340;&#23454;&#38469;&#20215;&#20540;&#26159;100&#19975;&#65288;P282&#65289;</text><path d="M370.6963,650.4063 L380.6963,650.4063 C395.6963,650.4063 395.6963,563.9922 410.6963,563.9922 L420.6963,563.9922 " fill="none" style="stroke:#181818;stroke-width:1;"/><rect fill="#F1F1F1" height="37.6094" rx="12.5" ry="12.5" style="stroke:#181818;stroke-width:1.5;" width="357.627" x="420.6963" y="660.4063"/><text fill="#000000" font-family="sans-serif" font-size="14" lengthAdjust="spacing" textLength="337.627" x="430.6963" y="684.9395">&#23567;&#20599;&#24819;&#30423;&#31363;3&#19975;&#20803;&#29664;&#23453;&#65292;&#23454;&#38469;&#30423;&#21462;3000&#20803;&#29664;&#23453;&#65288;P283&#65289;</text><rect fill="#F1F1F1" height="37.6094" rx="12.5" ry="12.5" style="stroke:#181818;stroke-width:1.5;" width="183.3242" x="828.3232" y="602.7969"/><text fill="#000000" font-family="sans-serif" font-size="14" lengthAdjust="spacing" textLength="163.3242" x="838.3232" y="627.3301">&#30423;&#31363;&#8220;&#25968;&#39069;&#24040;&#22823;&#36130;&#29289;&#8221;&#30340;&#26410;&#36930;</text><path d="M778.3232,679.2109 L788.3232,679.2109 C803.3232,679.2109 803.3232,621.6016 818.3232,621.6016 L828.3232,621.6016 " fill="none" style="stroke:#181818;stroke-width:1;"/><rect fill="#F1F1F1" height="37.6094" rx="12.5" ry="12.5" style="stroke:#181818;stroke-width:1.5;" width="183.3242" x="828.3232" y="660.4063"/><text fill="#000000" font-family="sans-serif" font-size="14" lengthAdjust="spacing" textLength="163.3242" x="838.3232" y="684.9395">&#30423;&#31363;&#8220;&#25968;&#39069;&#36739;&#22823;&#36130;&#29289;&#8221;&#30340;&#26082;&#36930;</text><path d="M778.3232,679.2109 L788.3232,679.2109 C803.3232,679.2109 803.3232,679.2109 818.3232,679.2109 L828.3232,679.2109 " fill="none" style="stroke:#181818;stroke-width:1;"/><rect fill="#F1F1F1" height="37.6094" rx="12.5" ry="12.5" style="stroke:#181818;stroke-width:1.5;" width="202" x="828.3232" y="718.0156"/><text fill="#000000" font-family="sans-serif" font-size="14" lengthAdjust="spacing" textLength="182" x="838.3232" y="742.5488">&#24819;&#35937;&#31454;&#21512;&#65292;&#25321;&#19968;&#12302;&#37325;&#21009;&#12303;&#35770;&#22788;</text><rect fill="#F1F1F1" height="37.6094" rx="12.5" ry="12.5" style="stroke:#181818;stroke-width:1.5;" width="365.3242" x="1080.3232" y="718.0156"/><text fill="#000000" font-family="sans-serif" font-size="14" lengthAdjust="spacing" textLength="345.3242" x="1090.3232" y="742.5488">&#27880;&#24847;&#65292;&#19981;&#26159;&#8220;&#37325;&#32618;&#8221;&#65292;&#22240;&#20026;&#26159;&#21516;&#19968;&#31181;&#32618;&#65292;&#21482;&#26159;&#37327;&#21009;&#31243;&#24230;&#19981;&#21516;</text><path d="M1030.3232,736.8203 L1040.3232,736.8203 C1055.3232,736.8203 1055.3232,736.8203 1070.3232,736.8203 L1080.3232,736.8203 " fill="none" style="stroke:#181818;stroke-width:1;"/><path d="M778.3232,679.2109 L788.3232,679.2109 C803.3232,679.2109 803.3232,736.8203 818.3232,736.8203 L828.3232,736.8203 " fill="none" style="stroke:#181818;stroke-width:1;"/><path d="M370.6963,650.4063 L380.6963,650.4063 C395.6963,650.4063 395.6963,679.2109 410.6963,679.2109 L420.6963,679.2109 " fill="none" style="stroke:#181818;stroke-width:1;"/><path d="M272.6963,407.1172 L282.6963,407.1172 C297.6963,407.1172 297.6963,650.4063 312.6963,650.4063 L322.6963,650.4063 " fill="none" style="stroke:#181818;stroke-width:1;"/><path d="M174.6963,407.1172 L184.6963,407.1172 C199.6963,407.1172 199.6963,407.1172 214.6963,407.1172 L224.6963,407.1172 " fill="none" style="stroke:#181818;stroke-width:1;"/><!--SRC=[xLZVJnDP57wVl-9kV54JQlaHOuWnIfNi6Z5cYxwQo_JQZioFPdfRjxlPf5YW2DJ2kgwWO92G1J7RGZ1h5u7zNxHtPlhalx3dpdHWMZfCUTad224pztxtE-UUyvrxvd8zHR5E5KcDAJWf2Dz9gYYdOmI5GfUStnJDokHIKiOgJIjo5qTs0RJB7Wz9C2O8LA8oGTR7rThkkZbTCVStKHSoNcxLLvVXeLRzpCghrlfJyqsrLirPXO-2SB7DwBUzgNizLtg-xJqJ4FnSH6n_cxqesY_EWCDjJCsP7sOEXnlOoILZQzvyyyhSp1kBvNhkjJN_pfeR_xOtwpoOhyTP-MrzSQBs-HFBxHaBbRvmhLfeCTfCwbYglohNLnUEJJiGs0RiWLifhzMgkq3RrWVsrm9RsgZjpe0FWBGga_NV5wrA1SmREo_PmKojMgpjJjN-NJQcry0PTFMSJcBzF_LVyx7hn2vuTxFMmG6RsdAIOHtasTewO8sL0YjCDema2Cva7ue98eu-LB0-wclpC6NSsKRAPcqxZXEERJOtNwlEi8azLlu78l8bj-IDnPVSSfj0cvzVMELTNxD5u-qupuKTML30CKcm_LKZDzOY2MDfipxsj8qrjbLYOvySjlflssnsWcUeD6y-tsAbJMFfMNSup2RoZZHwsqcZGtbu9LAhJeCL86_emvCGA1ppsNkUbfSJndZfT6dnog75HalU3ysmKiNAxnkvzQ-vCLRShY- -X-VJYi5ujGhH3TnyMq_01yUPG9cV80mlFpyLZcVRTT8ZbtgXnARcZmcboARViVc5XhE55LRCWm2iwMtpnT-yXko7upK6El4_GboT6VaTXxSNiC1gbbPOUPahpYQ3ELRwepTiIywTynMUks5ULNP0sQUDmzH2RN4H-Sc-PQLN58sLpT7o12Y_Oss_Cp-yPNDJN60pxw7yl-QUrmj5YERNN0bonDR6_PIoim6gXdMya1Sgu02iWuo1KHw5DolEkSdc090pr_cKNO-RCEZaozoOORj_mdB02C9r0itARLZNc_lNLRijNHCQ0pSb7DUnWdu1rq8ZSfhOJmWDO74qhcjfDHRHP4r7iXHFK3uFixzoR0oa3yhqWJTcNN1S9qGzYTa6UD3P073MnMewLkD-JZkJBZIPrfEo7zIPTA7-6_DiIjTIVcpd1WS71Y8H5vabigmzyS4wapPK22bOKeSJH7691pMLHgMV2UeD2toUACa4Jacfu5XwqM4VU6eqQwVKY-qvEPPUw00CYGdGRqVEI75Lqqa7UKNeZgIIrl4ZYWxDdaZ5oLHL4ubA_MAZsabnKk0CZSY0QM65ucdufb8WapGLon5TEapW4P9g2gPQM-mzdIInZld8QPRT6D5q6gIgJhaeXRJIe4Bga2sYAL1Dr2_RZPL-T3mxAeb3me3K6yoJ3gMWHCK8INhrtcpW5XoI8xAKIlYVQ9xrpTQU92JQ6XiVCtSr6cp9tfMOnMe7kn9nZD13OrWKfPY_f9jEsY3cHr1fAK_vmhj8Xl1ZaWueOaq65tGjvb5WG0cvAsmxIIqbKIb3ReYUSZXsMcEPTBgHeor0Bd0WjI91W-H7UoUQQdGvJfvAZpmc8gVtYmxEG5icUeUy6Kc32hAfjI1c7lUEmtrqa3SNxicrsgJbm1OXm9-hbnfV6cUNtxFBxzdbz-poUtRvFRly_j-NttlylxBtX-wW3D5JlEbtXth2FNsXA-UZcAAxMWPrNqRXxlw-llw-ooWI7KPy-e9mVkY7OPJIql3DWsBmHQ1B8sdU9Yy8jt46en_Jq3GLqe_us_dXeGieUiiTHBVKZAHhgWADKhZzOCW1eUyr6argr0PVxkiQa2YA4XtSGW-6X9la4KxB59QAManIu_te_l1WrnNX3ZJKD8w38VY4YK2dfNeMvgB_0G00]--></g></svg>