<svg xmlns="http://www.w3.org/2000/svg" xmlns:xlink="http://www.w3.org/1999/xlink" contentStyleType="text/css" height="291px" preserveAspectRatio="none" style="width:1185px;height:291px;background:#FFFFFF;" version="1.1" viewBox="0 0 1185 291" width="1185px" zoomAndPan="magnify"><title>&#36130;&#20135;&#29359;&#32618;-&#30423;&#31363;&#32618;&#65288;&#26500;&#25104;&#35201;&#20214;&#65289;</title><defs/><g><text fill="#000000" font-family="sans-serif" font-size="14" font-weight="bold" lengthAdjust="spacing" textLength="192.3496" x="495.165" y="34.5332">&#36130;&#20135;&#29359;&#32618;-&#30423;&#31363;&#32618;&#65288;&#26500;&#25104;&#35201;&#20214;&#65289;</text><rect fill="#F1F1F1" height="57.7344" rx="12.5" ry="12.5" style="stroke:#181818;stroke-width:1.5;" width="118.335" x="615.8896" y="134.9609"/><text fill="#000000" font-family="sans-serif" font-size="30" lengthAdjust="spacing" textLength="90" x="625.8896" y="176.1035">&#30423;&#31363;&#32618;</text><rect fill="#F1F1F1" height="37.6094" rx="12.5" ry="12.5" style="stroke:#181818;stroke-width:1.5;" width="62" x="784.2246" y="145.0234"/><text fill="#000000" font-family="sans-serif" font-size="14" lengthAdjust="spacing" textLength="42" x="794.2246" y="169.5566">&#21463;&#23475;&#20154;</text><rect fill="#F1F1F1" height="37.6094" rx="12.5" ry="12.5" style="stroke:#181818;stroke-width:1.5;" width="76" x="896.2246" y="145.0234"/><text fill="#000000" font-family="sans-serif" font-size="14" lengthAdjust="spacing" textLength="56" x="906.2246" y="169.5566">&#34892;&#20026;&#23545;&#35937;</text><rect fill="#FFA500" height="37.6094" rx="12.5" ry="12.5" style="stroke:#181818;stroke-width:1.5;" width="151.4551" x="1022.2246" y="145.0234"/><text fill="#000000" font-family="sans-serif" font-size="14" lengthAdjust="spacing" textLength="127.5654" x="1032.2246" y="169.5566">1. &#23558;&#20182;&#20154;&#21344;&#26377;&#30340;&#36130;&#29289;</text><path d="M972.2246,163.8281 L982.2246,163.8281 C997.2246,163.8281 997.2246,163.8281 1012.2246,163.8281 L1022.2246,163.8281 " fill="none" style="stroke:#181818;stroke-width:1;"/><path d="M846.2246,163.8281 L856.2246,163.8281 C871.2246,163.8281 871.2246,163.8281 886.2246,163.8281 L896.2246,163.8281 " fill="none" style="stroke:#181818;stroke-width:1;"/><path d="M734.2246,163.8281 L744.2246,163.8281 C759.2246,163.8281 759.2246,163.8281 774.2246,163.8281 L784.2246,163.8281 " fill="none" style="stroke:#181818;stroke-width:1;"/><rect fill="#F1F1F1" height="37.6094" rx="12.5" ry="12.5" style="stroke:#181818;stroke-width:1.5;" width="62" x="503.8896" y="145.0234"/><text fill="#000000" font-family="sans-serif" font-size="14" lengthAdjust="spacing" textLength="42" x="513.8896" y="169.5566">&#34892;&#20026;&#20154;</text><rect fill="#F1F1F1" height="37.6094" rx="12.5" ry="12.5" style="stroke:#181818;stroke-width:1.5;" width="48" x="405.8896" y="145.0234"/><text fill="#000000" font-family="sans-serif" font-size="14" lengthAdjust="spacing" textLength="28" x="415.8896" y="169.5566">&#34892;&#20026;</text><rect fill="#F1F1F1" height="37.6094" rx="12.5" ry="12.5" style="stroke:#181818;stroke-width:1.5;" width="48" x="307.8896" y="58.6094"/><text fill="#000000" font-family="sans-serif" font-size="14" lengthAdjust="spacing" textLength="28" x="317.8896" y="83.1426">&#25163;&#27573;</text><rect fill="#FFA500" height="37.6094" rx="12.5" ry="12.5" style="stroke:#181818;stroke-width:1.5;" width="95.4551" x="162.4346" y="58.6094"/><text fill="#000000" font-family="sans-serif" font-size="14" lengthAdjust="spacing" textLength="71.5654" x="172.4346" y="83.1426">2. &#24179;&#21644;&#26041;&#24335;</text><path d="M307.8896,77.4141 L297.8896,77.4141 C282.8896,77.4141 282.8896,77.4141 267.8896,77.4141 L257.8896,77.4141 " fill="none" style="stroke:#181818;stroke-width:1;"/><path d="M405.8896,163.8281 L395.8896,163.8281 C380.8896,163.8281 380.8896,77.4141 365.8896,77.4141 L355.8896,77.4141 " fill="none" style="stroke:#181818;stroke-width:1;"/><rect fill="#F1F1F1" height="37.6094" rx="12.5" ry="12.5" style="stroke:#181818;stroke-width:1.5;" width="48" x="307.8896" y="116.2188"/><text fill="#000000" font-family="sans-serif" font-size="14" lengthAdjust="spacing" textLength="28" x="317.8896" y="140.752">&#32467;&#26524;</text><rect fill="#FFA500" height="37.6094" rx="12.5" ry="12.5" style="stroke:#181818;stroke-width:1.5;" width="123.4551" x="134.4346" y="116.2188"/><text fill="#000000" font-family="sans-serif" font-size="14" lengthAdjust="spacing" textLength="99.5654" x="144.4346" y="140.752">3. &#36716;&#20026;&#33258;&#24049;&#21344;&#26377;</text><path d="M307.8896,135.0234 L297.8896,135.0234 C282.8896,135.0234 282.8896,135.0234 267.8896,135.0234 L257.8896,135.0234 " fill="none" style="stroke:#181818;stroke-width:1;"/><path d="M405.8896,163.8281 L395.8896,163.8281 C380.8896,163.8281 380.8896,135.0234 365.8896,135.0234 L355.8896,135.0234 " fill="none" style="stroke:#181818;stroke-width:1;"/><rect fill="#F1F1F1" height="37.6094" rx="12.5" ry="12.5" style="stroke:#181818;stroke-width:1.5;" width="90" x="265.8896" y="202.6328"/><text fill="#000000" font-family="sans-serif" font-size="14" lengthAdjust="spacing" textLength="70" x="275.8896" y="227.166">&#31192;&#23494;&#24615;&#38382;&#39064;</text><rect fill="#F1F1F1" height="37.6094" rx="12.5" ry="12.5" style="stroke:#181818;stroke-width:1.5;" width="76" x="139.8896" y="173.8281"/><text fill="#000000" font-family="sans-serif" font-size="14" lengthAdjust="spacing" textLength="56" x="149.8896" y="198.3613">&#31192;&#23494;&#30423;&#31363;</text><rect fill="#F1F1F1" height="37.6094" rx="12.5" ry="12.5" style="stroke:#181818;stroke-width:1.5;" width="76" x="13.8896" y="173.8281"/><text fill="#000000" font-family="sans-serif" font-size="14" lengthAdjust="spacing" textLength="56" x="23.8896" y="198.3613">&#24120;&#35265;&#24773;&#24418;</text><path d="M139.8896,192.6328 L129.8896,192.6328 C114.8896,192.6328 114.8896,192.6328 99.8896,192.6328 L89.8896,192.6328 " fill="none" style="stroke:#181818;stroke-width:1;"/><path d="M265.8896,221.4375 L255.8896,221.4375 C240.8896,221.4375 240.8896,192.6328 225.8896,192.6328 L215.8896,192.6328 " fill="none" style="stroke:#181818;stroke-width:1;"/><rect fill="#90EE90" height="37.6094" rx="12.5" ry="12.5" style="stroke:#181818;stroke-width:1.5;" width="79.8896" x="136" y="231.4375"/><text fill="#000000" font-family="sans-serif" font-size="14" lengthAdjust="spacing" textLength="56" x="146" y="255.9707">&#20844;&#24320;&#30423;&#31363;</text><rect fill="#F1F1F1" height="37.6094" rx="12.5" ry="12.5" style="stroke:#181818;stroke-width:1.5;" width="76" x="10" y="231.4375"/><text fill="#000000" font-family="sans-serif" font-size="14" lengthAdjust="spacing" textLength="56" x="20" y="255.9707">&#24120;&#32771;&#24773;&#24418;</text><path d="M136,250.2422 L126,250.2422 C111,250.2422 111,250.2422 96,250.2422 L86,250.2422 " fill="none" style="stroke:#181818;stroke-width:1;"/><path d="M265.8896,221.4375 L255.8896,221.4375 C240.8896,221.4375 240.8896,250.2422 225.8896,250.2422 L215.8896,250.2422 " fill="none" style="stroke:#181818;stroke-width:1;"/><path d="M405.8896,163.8281 L395.8896,163.8281 C380.8896,163.8281 380.8896,221.4375 365.8896,221.4375 L355.8896,221.4375 " fill="none" style="stroke:#181818;stroke-width:1;"/><path d="M503.8896,163.8281 L493.8896,163.8281 C478.8896,163.8281 478.8896,163.8281 463.8896,163.8281 L453.8896,163.8281 " fill="none" style="stroke:#181818;stroke-width:1;"/><path d="M615.8896,163.8281 L605.8896,163.8281 C590.8896,163.8281 590.8896,163.8281 575.8896,163.8281 L565.8896,163.8281 " fill="none" style="stroke:#181818;stroke-width:1;"/><!--SRC=[xLTRRnD757wVNp5LNn8aEucn8XH5KR19rA8OeThmFjwTh8VipbYpiqPkLIaeG0bGKRKIGIr29G-D6g6aY5vo_JTUsppn5tfsr-li6gztUSUohDrplldEcNERyRAjY5GMuxf5cWXzmRXcEZh5-VnCyBLLswGpJPDmvLXcpaFc09hpvNa6CWGVnPH9SV_ltSx9Nk_nOUzyFzVxRQUtlmLF7yuUTL_TxpxwgV_7lSxfln_EjX6wX8TglBXe4SPh3MhHfIM4JBgkiCrqYZ1yBk7-wwUTevFEoOd_7fKD1O6mk_saU_1FJ1We2ddi7hzpVtxQVNxidZq3WzHgDeZDx08OZ6DxfxzqNxqSGt8vZ_ldRy1g_uTzzx-txe-_TrzkJwRQU-4UFknkxhtVENY_-s8CPu088l6HEe2uHqVzlNlThGVk-UuO1lV16_TiCs28E3FYIvnkSsj0XoGp6h5Okyzst8DtusBj7XxttxuUsU4S1FQlXvtJvx0Y24Zlr_jG1BtjFqSYWz0oXH8BosmvNdMBVZ4jeO7W6YE691R-3ipbwwP3_IUCIqJRCAHmk5uMff3OzDptzA3ztiFgH6v8gYV01zeGR4XA-IHc7n11jrF0xH0h9E56ajE1CeGs7Taqaw21CeGcRoooAIdi9BOlLrTBfN8vHBQfQOgx2TX0wKDHVjYT0_2guAhAlgNuyYpoz66UqsCPHSycmEsDjf_IABOmEPPHQ0b4MWDgCvCppE12qWnvnNYDSJeglw38Q7OYbKV6kT0eLqcnuNvIWXG4ehe9c15MQ9w1Rrm16HESc6N9XWcyG2fX4IN6OczAsYIIU99FMNQrBgHAgwgiN4f1MbLQ8sLaAmiBkaabPNkmCedEomwd1YGCIAF1d3IKqXAbKzgCrdlSm0eCoRh9x4RoH8kiZrkxss1gD3O9Pcu8bMx9tvNM9Zp3hZIYKpKqHZGDpfV4aevDsZJcTUWqEzA-yAxH2hb3dPGc5YQu88KUgS2K5WfN-7QQmcQAjUXLBT8E7qrhOjAi6xdO0kI2f59R30v8RxHdgQd1AUUHsqxz3jKy-gJea1OSorHcv6qn0HtaKuiqPY_kcSDzCSZZZJkvLsErd7f48FXPd1dSD3vVMJzVMJ_jodhJ-mTqgxA6MrJQNglEvGkpXMB-obILA7n3jF3SF9wTMoWM5uhpk5ojOKyzZQOgNzUmBHoOL5Y7FfQixdZ5FOskanR1tpXGwXPTmDxRLAqoZQiheH2ly1QJWbjGtkZwxKe0mby9LMqAvOFdYxaIKxXA9RY5RrVGDRfE75F1KateZ1iB-5PjDNS5hK4RECG0Gp1uoj0VIhP1L_qV]--></g></svg>