<svg xmlns="http://www.w3.org/2000/svg" xmlns:xlink="http://www.w3.org/1999/xlink" contentStyleType="text/css" height="481px" preserveAspectRatio="none" style="width:1137px;height:481px;background:#FFFFFF;" version="1.1" viewBox="0 0 1137 481" width="1137px" zoomAndPan="magnify"><title>&#36130;&#20135;&#29359;&#32618;&#65288;&#32618;&#21517;&#20307;&#31995;&#65289;</title><defs/><g><text fill="#000000" font-family="sans-serif" font-size="14" font-weight="bold" lengthAdjust="spacing" textLength="144.375" x="495.2573" y="34.5332">&#36130;&#20135;&#29359;&#32618;&#65288;&#32618;&#21517;&#20307;&#31995;&#65289;</text><rect fill="#F1F1F1" height="37.6094" rx="12.5" ry="12.5" style="stroke:#181818;stroke-width:1.5;" width="76" x="10" y="240.2422"/><text fill="#000000" font-family="sans-serif" font-size="14" lengthAdjust="spacing" textLength="56" x="20" y="264.7754">&#36130;&#20135;&#29359;&#32618;</text><rect fill="#F1F1F1" height="37.6094" rx="12.5" ry="12.5" style="stroke:#181818;stroke-width:1.5;" width="62" x="136" y="58.6094"/><text fill="#000000" font-family="sans-serif" font-size="14" lengthAdjust="spacing" textLength="42" x="146" y="83.1426">&#27585;&#24323;&#22411;</text><rect fill="#90EE90" height="37.6094" rx="12.5" ry="12.5" style="stroke:#181818;stroke-width:1.5;" width="107.8896" x="248" y="58.6094"/><text fill="#000000" font-family="sans-serif" font-size="14" lengthAdjust="spacing" textLength="84" x="258" y="83.1426">&#25925;&#24847;&#27585;&#22351;&#36130;&#29289;</text><path d="M198,77.4141 L208,77.4141 C223,77.4141 223,77.4141 238,77.4141 L248,77.4141 " fill="none" style="stroke:#181818;stroke-width:1;"/><path d="M86,259.0469 L96,259.0469 C111,259.0469 111,77.4141 126,77.4141 L136,77.4141 " fill="none" style="stroke:#181818;stroke-width:1;"/><rect fill="#F1F1F1" height="37.6094" rx="12.5" ry="12.5" style="stroke:#181818;stroke-width:1.5;" width="62" x="136" y="269.0469"/><text fill="#000000" font-family="sans-serif" font-size="14" lengthAdjust="spacing" textLength="42" x="146" y="293.5801">&#21462;&#24471;&#22411;</text><rect fill="#F1F1F1" height="37.6094" rx="12.5" ry="12.5" style="stroke:#181818;stroke-width:1.5;" width="104" x="248" y="269.0469"/><text fill="#000000" font-family="sans-serif" font-size="14" lengthAdjust="spacing" textLength="84" x="258" y="293.5801">&#38750;&#27861;&#21344;&#26377;&#30446;&#30340;</text><rect fill="#F1F1F1" height="55.2188" rx="12.5" ry="12.5" style="stroke:#181818;stroke-width:1.5;" width="146" x="402" y="116.2188"/><text fill="#000000" font-family="sans-serif" font-size="14" lengthAdjust="spacing" textLength="126" x="412" y="140.752">&#12302;&#21344;&#26377;&#12303;&#21464;&#12302;&#25152;&#26377;&#12303;</text><text fill="#000000" font-family="sans-serif" font-size="14" lengthAdjust="spacing" textLength="126" x="412" y="158.3613">&#19981;&#38656;&#35201;&#36716;&#31227;&#12302;&#21344;&#26377;&#12303;</text><rect fill="#90EE90" height="37.6094" rx="12.5" ry="12.5" style="stroke:#181818;stroke-width:1.5;" width="65.8896" x="598" y="125.0234"/><text fill="#000000" font-family="sans-serif" font-size="14" lengthAdjust="spacing" textLength="42" x="608" y="149.5566">&#20405;&#21344;&#32618;</text><path d="M548,143.8281 L558,143.8281 C573,143.8281 573,143.8281 588,143.8281 L598,143.8281 " fill="none" style="stroke:#181818;stroke-width:1;"/><path d="M352,287.8516 L362,287.8516 C377,287.8516 377,143.8281 392,143.8281 L402,143.8281 " fill="none" style="stroke:#181818;stroke-width:1;"/><rect fill="#F1F1F1" height="37.6094" rx="12.5" ry="12.5" style="stroke:#181818;stroke-width:1.5;" width="104" x="402" y="306.6563"/><text fill="#000000" font-family="sans-serif" font-size="14" lengthAdjust="spacing" textLength="84" x="412" y="331.1895">&#36716;&#31227;&#12302;&#21344;&#26377;&#12303;</text><rect fill="#F1F1F1" height="37.6094" rx="12.5" ry="12.5" style="stroke:#181818;stroke-width:1.5;" width="90" x="556" y="220.2422"/><text fill="#000000" font-family="sans-serif" font-size="14" lengthAdjust="spacing" textLength="70" x="566" y="244.7754">&#34987;&#23475;&#20154;&#36716;&#31227;</text><rect fill="#FFA500" height="37.6094" rx="12.5" ry="12.5" style="stroke:#181818;stroke-width:1.5;" width="65.8896" x="696" y="191.4375"/><text fill="#000000" font-family="sans-serif" font-size="14" lengthAdjust="spacing" textLength="42" x="706" y="215.9707">&#35784;&#39575;&#32618;</text><rect fill="#F1F1F1" height="37.6094" rx="12.5" ry="12.5" style="stroke:#181818;stroke-width:1.5;" width="160" x="811.8896" y="191.4375"/><text fill="#000000" font-family="sans-serif" font-size="14" lengthAdjust="spacing" textLength="140" x="821.8896" y="215.9707">&#22522;&#20110;&#35748;&#35782;&#38169;&#35823;&#65288;&#34987;&#39575;&#65289;</text><path d="M761.8896,210.2422 L771.8896,210.2422 C786.8896,210.2422 786.8896,210.2422 801.8896,210.2422 L811.8896,210.2422 " fill="none" style="stroke:#181818;stroke-width:1;"/><path d="M646,239.0469 L656,239.0469 C671,239.0469 671,210.2422 686,210.2422 L696,210.2422 " fill="none" style="stroke:#181818;stroke-width:1;"/><rect fill="#90EE90" height="37.6094" rx="12.5" ry="12.5" style="stroke:#181818;stroke-width:1.5;" width="93.8896" x="696" y="249.0469"/><text fill="#000000" font-family="sans-serif" font-size="14" lengthAdjust="spacing" textLength="70" x="706" y="273.5801">&#25970;&#35784;&#21202;&#32034;&#32618;</text><rect fill="#F1F1F1" height="37.6094" rx="12.5" ry="12.5" style="stroke:#181818;stroke-width:1.5;" width="160" x="839.8896" y="249.0469"/><text fill="#000000" font-family="sans-serif" font-size="14" lengthAdjust="spacing" textLength="140" x="849.8896" y="273.5801">&#22522;&#20110;&#24656;&#24807;&#34892;&#26446;&#65288;&#34987;&#36843;&#65289;</text><path d="M789.8896,267.8516 L799.8896,267.8516 C814.8896,267.8516 814.8896,267.8516 829.8896,267.8516 L839.8896,267.8516 " fill="none" style="stroke:#181818;stroke-width:1;"/><path d="M646,239.0469 L656,239.0469 C671,239.0469 671,267.8516 686,267.8516 L696,267.8516 " fill="none" style="stroke:#181818;stroke-width:1;"/><path d="M506,325.4609 L516,325.4609 C531,325.4609 531,239.0469 546,239.0469 L556,239.0469 " fill="none" style="stroke:#181818;stroke-width:1;"/><rect fill="#F1F1F1" height="37.6094" rx="12.5" ry="12.5" style="stroke:#181818;stroke-width:1.5;" width="90" x="556" y="364.2656"/><text fill="#000000" font-family="sans-serif" font-size="14" lengthAdjust="spacing" textLength="70" x="566" y="388.7988">&#29359;&#32618;&#20154;&#36716;&#31227;</text><rect fill="#F1F1F1" height="37.6094" rx="12.5" ry="12.5" style="stroke:#181818;stroke-width:1.5;" width="104" x="696" y="364.2656"/><text fill="#000000" font-family="sans-serif" font-size="14" lengthAdjust="spacing" textLength="84" x="706" y="388.7988">&#25163;&#27573;&#26292;&#21147;&#31243;&#24230;</text><rect fill="#FFA500" height="37.6094" rx="12.5" ry="12.5" style="stroke:#181818;stroke-width:1.5;" width="65.8896" x="850" y="306.6563"/><text fill="#000000" font-family="sans-serif" font-size="14" lengthAdjust="spacing" textLength="42" x="860" y="331.1895">&#30423;&#31363;&#32618;</text><rect fill="#F1F1F1" height="37.6094" rx="12.5" ry="12.5" style="stroke:#181818;stroke-width:1.5;" width="160" x="965.8896" y="306.6563"/><text fill="#000000" font-family="sans-serif" font-size="14" lengthAdjust="spacing" textLength="140" x="975.8896" y="331.1895">&#23545;&#29289;&#24179;&#21644;&#65292;&#23545;&#20154;&#27809;&#21361;&#38505;</text><path d="M915.8896,325.4609 L925.8896,325.4609 C940.8896,325.4609 940.8896,325.4609 955.8896,325.4609 L965.8896,325.4609 " fill="none" style="stroke:#181818;stroke-width:1;"/><path d="M800,383.0703 L810,383.0703 C825,383.0703 825,325.4609 840,325.4609 L850,325.4609 " fill="none" style="stroke:#181818;stroke-width:1;"/><rect fill="#90EE90" height="37.6094" rx="12.5" ry="12.5" style="stroke:#181818;stroke-width:1.5;" width="65.8896" x="850" y="364.2656"/><text fill="#000000" font-family="sans-serif" font-size="14" lengthAdjust="spacing" textLength="42" x="860" y="388.7988">&#25250;&#22842;&#32618;</text><rect fill="#F1F1F1" height="37.6094" rx="12.5" ry="12.5" style="stroke:#181818;stroke-width:1.5;" width="160" x="965.8896" y="364.2656"/><text fill="#000000" font-family="sans-serif" font-size="14" lengthAdjust="spacing" textLength="140" x="975.8896" y="388.7988">&#23545;&#29289;&#26292;&#21147;&#65292;&#23545;&#20154;&#26377;&#21361;&#38505;</text><path d="M915.8896,383.0703 L925.8896,383.0703 C940.8896,383.0703 940.8896,383.0703 955.8896,383.0703 L965.8896,383.0703 " fill="none" style="stroke:#181818;stroke-width:1;"/><path d="M800,383.0703 L810,383.0703 C825,383.0703 825,383.0703 840,383.0703 L850,383.0703 " fill="none" style="stroke:#181818;stroke-width:1;"/><rect fill="#FFA500" height="37.6094" rx="12.5" ry="12.5" style="stroke:#181818;stroke-width:1.5;" width="65.8896" x="850" y="421.875"/><text fill="#000000" font-family="sans-serif" font-size="14" lengthAdjust="spacing" textLength="42" x="860" y="446.4082">&#25250;&#21163;&#32618;</text><rect fill="#F1F1F1" height="37.6094" rx="12.5" ry="12.5" style="stroke:#181818;stroke-width:1.5;" width="146" x="965.8896" y="421.875"/><text fill="#000000" font-family="sans-serif" font-size="14" lengthAdjust="spacing" textLength="126" x="975.8896" y="446.4082">&#23545;&#20154;&#26292;&#21147;&#65292;&#21387;&#21046;&#21453;&#25239;</text><path d="M915.8896,440.6797 L925.8896,440.6797 C940.8896,440.6797 940.8896,440.6797 955.8896,440.6797 L965.8896,440.6797 " fill="none" style="stroke:#181818;stroke-width:1;"/><path d="M800,383.0703 L810,383.0703 C825,383.0703 825,440.6797 840,440.6797 L850,440.6797 " fill="none" style="stroke:#181818;stroke-width:1;"/><path d="M646,383.0703 L656,383.0703 C671,383.0703 671,383.0703 686,383.0703 L696,383.0703 " fill="none" style="stroke:#181818;stroke-width:1;"/><path d="M506,325.4609 L516,325.4609 C531,325.4609 531,383.0703 546,383.0703 L556,383.0703 " fill="none" style="stroke:#181818;stroke-width:1;"/><path d="M352,287.8516 L362,287.8516 C377,287.8516 377,325.4609 392,325.4609 L402,325.4609 " fill="none" style="stroke:#181818;stroke-width:1;"/><path d="M198,287.8516 L208,287.8516 C223,287.8516 223,287.8516 238,287.8516 L248,287.8516 " fill="none" style="stroke:#181818;stroke-width:1;"/><path d="M86,259.0469 L96,259.0469 C111,259.0469 111,287.8516 126,287.8516 L136,287.8516 " fill="none" style="stroke:#181818;stroke-width:1;"/><!--SRC=[xLXTJnj757tVNp5LNm09yr648eGGmG6r4OwYckIfB-FTYJrXTyUQdNNaLfL0f1Ncor5QIXCWRL0K6gYm6fAgSI3zCV7kcYV-Gk_ksdWDh7VRjqfObkMPU-QSkVVElUFrk24m5nhL5Gtd9UaJgikggH2KIFJvRqCKLTANLx4kJ4tjTP6z0EtrvXCKvYH9KA4IL7-pKwlkEaiLvtZlz6WHFgr7gxNZ7vp3zwT79KdgQKD825uzoAxCMqSBrhDbRzoOM__EVbXsBTjbMEAKNg7HKQBbSzYWnjXOOwLL_idwiD6-ycJxcNsuRgt-Qc-LdCq3v-d3CwCF-3Ytvbi_pfMjyiymj4jp_l0hlVRNwidMNFtbVFtuTsVtVH3RHkDJrJwy1JDuSd5pBL0iflhEldLmMAjMVVG5H0DLMJpPssZN6pmdsBx2-gLQgwxL3rxKAz-V_FYaNgb0Ma0CQDo4NBx8NdyDIjRoOmSYtycvoxJi-KVsmcxz-OgzlUPhrV_Ulqoh1_cd8CffkxHi7xordxwnbZQTtvQjwiiEUt0sDvozXVWHQkoyyWvEcFNkq7gySdgq0aFObFtwkRNwnycJLntaxAKTwqKrTeo2Qhv3BRMjKYorfVt_u9pBVoQtjcmj_ccLL-sb3KcInWcKVRFqnzixmQXNu6DIO-86nLcEDVGD22OogacyRmXDO7asovcfAqccCevKciq9rmxMRrsiWlai9qe8l65jWhES4BqJimS8e8iHu68JopZMis6RzerDQDxaUJKCwXkRq7370avnPeInVJerDJ6HJ3QHHQAgx448rZTwK2cXOQhFv8ZM99vYkaZJhmdwh5zoxSqJ4XtB8Be_16xC5hsK1h63dMCPX4x0b9o3qnXhCpIhCqvYv1MXQQgJy_CjYfYo7QbSCbrdCj55M6nqBob-2lofZ0gOSwnGF8szwGB8ADEnckJqB84jf60Q5knIx6rEyfXZT-RVBBkUOLn4dQguN490MaLK8SLaIp8Dgac4PRknCepEpOvEif0m80q6irDJYagKGaW-UDxR1IQXIMPKQkJ2ErfWVRlQWnmLvsCJ8dEBYMWbpokvYFKONibO8U9C3CioLSAFT5kdZMA-1vLc1CeNnZ99uVl4Z2XYfi8ME5C29p2YX9ehF9qyCwYW1N9T3fJ3XMwDLHBNaPOBa0iSIQrHk23TrXxdJ3LkEPVSC3FtYUpIXqK75-1Q9ZmcRu4og22FcaKnkt6F7UvM8syltCwrsdQM8wy82Jv6-ng_DAuU8wuU8wuU8_xlZn6ttNyAxgIcKO5mmssV0ud1_i6XnBMkD1Re5YkWWM7KFp0oD3GoD8oIwHdachkbhjGNCyXW9jmUI87Uocd6T1jEjtGJ5p3wqeJsev4Hv8wwPbBTA3tPd4IJUe5ofclGSgIRTrC-27tEH3hFX0SU7kgTe0Ab2OTjeRifwGQvXqrLm5APALJFZg0xCrEzrwHfQ4qcpe8GN0P9w5c25y6M_WS0]--></g></svg>