<svg xmlns="http://www.w3.org/2000/svg" xmlns:xlink="http://www.w3.org/1999/xlink" contentStyleType="text/css" height="406px" preserveAspectRatio="none" style="width:1524px;height:406px;background:#FFFFFF;" version="1.1" viewBox="0 0 1524 406" width="1524px" zoomAndPan="magnify"><title>&#36130;&#20135;&#29359;&#32618;-&#20405;&#21344;&#32618;&#65288;&#26500;&#25104;&#35201;&#20214;&#65289;</title><defs/><g><text fill="#000000" font-family="sans-serif" font-size="14" font-weight="bold" lengthAdjust="spacing" textLength="192.3496" x="664.3271" y="34.5332">&#36130;&#20135;&#29359;&#32618;-&#20405;&#21344;&#32618;&#65288;&#26500;&#25104;&#35201;&#20214;&#65289;</text><rect fill="#FFD700" height="57.7344" rx="12.5" ry="12.5" style="stroke:#181818;stroke-width:1.5;" width="118.335" x="759.7793" y="192.5703"/><text fill="#000000" font-family="sans-serif" font-size="30" lengthAdjust="spacing" textLength="90" x="769.7793" y="233.7129">&#20405;&#21344;&#32618;</text><rect fill="#F1F1F1" height="37.6094" rx="12.5" ry="12.5" style="stroke:#181818;stroke-width:1.5;" width="62" x="928.1143" y="202.6328"/><text fill="#000000" font-family="sans-serif" font-size="14" lengthAdjust="spacing" textLength="42" x="938.1143" y="227.166">&#21463;&#23475;&#20154;</text><rect fill="#F1F1F1" height="37.6094" rx="12.5" ry="12.5" style="stroke:#181818;stroke-width:1.5;" width="76" x="1040.1143" y="202.6328"/><text fill="#000000" font-family="sans-serif" font-size="14" lengthAdjust="spacing" textLength="56" x="1050.1143" y="227.166">&#34892;&#20026;&#23545;&#35937;</text><rect fill="#FFA500" height="37.6094" rx="12.5" ry="12.5" style="stroke:#181818;stroke-width:1.5;" width="207.4551" x="1166.1143" y="116.2188"/><text fill="#000000" font-family="sans-serif" font-size="14" lengthAdjust="spacing" textLength="183.5654" x="1176.1143" y="140.752">1. &#20182;&#20154;&#25152;&#26377;&#12289;&#33258;&#24049;&#21344;&#26377;&#30340;&#36130;&#29289;</text><path d="M1116.1143,221.4375 L1126.1143,221.4375 C1141.1143,221.4375 1141.1143,135.0234 1156.1143,135.0234 L1166.1143,135.0234 " fill="none" style="stroke:#181818;stroke-width:1;"/><rect fill="#F1F1F1" height="37.6094" rx="12.5" ry="12.5" style="stroke:#181818;stroke-width:1.5;" width="48" x="1166.1143" y="231.4375"/><text fill="#000000" font-family="sans-serif" font-size="14" lengthAdjust="spacing" textLength="28" x="1176.1143" y="255.9707">&#20998;&#31867;</text><rect fill="#F1F1F1" height="37.6094" rx="12.5" ry="12.5" style="stroke:#181818;stroke-width:1.5;" width="76" x="1264.1143" y="173.8281"/><text fill="#000000" font-family="sans-serif" font-size="14" lengthAdjust="spacing" textLength="56" x="1274.1143" y="198.3613">&#20195;&#20026;&#20445;&#31649;</text><path d="M1214.1143,250.2422 L1224.1143,250.2422 C1239.1143,250.2422 1239.1143,192.6328 1254.1143,192.6328 L1264.1143,192.6328 " fill="none" style="stroke:#181818;stroke-width:1;"/><rect fill="#F1F1F1" height="37.6094" rx="12.5" ry="12.5" style="stroke:#181818;stroke-width:1.5;" width="118" x="1264.1143" y="231.4375"/><text fill="#000000" font-family="sans-serif" font-size="14" lengthAdjust="spacing" textLength="98" x="1274.1143" y="255.9707">&#36951;&#24536;&#29289;&#12289;&#22475;&#34255;&#29289;</text><path d="M1214.1143,250.2422 L1224.1143,250.2422 C1239.1143,250.2422 1239.1143,250.2422 1254.1143,250.2422 L1264.1143,250.2422 " fill="none" style="stroke:#181818;stroke-width:1;"/><rect fill="#F1F1F1" height="37.6094" rx="12.5" ry="12.5" style="stroke:#181818;stroke-width:1.5;" width="48" x="1264.1143" y="289.0469"/><text fill="#000000" font-family="sans-serif" font-size="14" lengthAdjust="spacing" textLength="28" x="1274.1143" y="313.5801">&#29305;&#27530;</text><rect fill="#90EE90" height="37.6094" rx="12.5" ry="12.5" style="stroke:#181818;stroke-width:1.5;" width="37.8896" x="1362.1143" y="289.0469"/><text fill="#000000" font-family="sans-serif" font-size="14" lengthAdjust="spacing" textLength="14" x="1372.1143" y="313.5801">&#38065;</text><rect fill="#F1F1F1" height="37.6094" rx="12.5" ry="12.5" style="stroke:#181818;stroke-width:1.5;" width="62" x="1450.0039" y="289.0469"/><text fill="#000000" font-family="sans-serif" font-size="14" lengthAdjust="spacing" textLength="42" x="1460.0039" y="313.5801">&#31181;&#31867;&#29289;</text><path d="M1400.0039,307.8516 L1410.0039,307.8516 C1425.0039,307.8516 1425.0039,307.8516 1440.0039,307.8516 L1450.0039,307.8516 " fill="none" style="stroke:#181818;stroke-width:1;"/><path d="M1312.1143,307.8516 L1322.1143,307.8516 C1337.1143,307.8516 1337.1143,307.8516 1352.1143,307.8516 L1362.1143,307.8516 " fill="none" style="stroke:#181818;stroke-width:1;"/><path d="M1214.1143,250.2422 L1224.1143,250.2422 C1239.1143,250.2422 1239.1143,307.8516 1254.1143,307.8516 L1264.1143,307.8516 " fill="none" style="stroke:#181818;stroke-width:1;"/><path d="M1116.1143,221.4375 L1126.1143,221.4375 C1141.1143,221.4375 1141.1143,250.2422 1156.1143,250.2422 L1166.1143,250.2422 " fill="none" style="stroke:#181818;stroke-width:1;"/><path d="M990.1143,221.4375 L1000.1143,221.4375 C1015.1143,221.4375 1015.1143,221.4375 1030.1143,221.4375 L1040.1143,221.4375 " fill="none" style="stroke:#181818;stroke-width:1;"/><path d="M878.1143,221.4375 L888.1143,221.4375 C903.1143,221.4375 903.1143,221.4375 918.1143,221.4375 L928.1143,221.4375 " fill="none" style="stroke:#181818;stroke-width:1;"/><rect fill="#F1F1F1" height="37.6094" rx="12.5" ry="12.5" style="stroke:#181818;stroke-width:1.5;" width="62" x="647.7793" y="202.6328"/><text fill="#000000" font-family="sans-serif" font-size="14" lengthAdjust="spacing" textLength="42" x="657.7793" y="227.166">&#26045;&#23475;&#20154;</text><rect fill="#F1F1F1" height="37.6094" rx="12.5" ry="12.5" style="stroke:#181818;stroke-width:1.5;" width="76" x="521.7793" y="202.6328"/><text fill="#000000" font-family="sans-serif" font-size="14" lengthAdjust="spacing" textLength="56" x="531.7793" y="227.166">&#34892;&#20026;&#26041;&#24335;</text><rect fill="#FFA500" height="37.6094" rx="12.5" ry="12.5" style="stroke:#181818;stroke-width:1.5;" width="263.4551" x="208.3242" y="58.6094"/><text fill="#000000" font-family="sans-serif" font-size="14" lengthAdjust="spacing" textLength="239.5654" x="218.3242" y="83.1426">2. &#34892;&#20026;&#20154;&#23558;&#12302;&#21344;&#26377;&#12303;&#21464;&#25104;&#12302;&#33258;&#24049;&#25152;&#26377;&#12303;</text><path d="M521.7793,221.4375 L511.7793,221.4375 C496.7793,221.4375 496.7793,77.4141 481.7793,77.4141 L471.7793,77.4141 " fill="none" style="stroke:#181818;stroke-width:1;"/><rect fill="#F1F1F1" height="37.6094" rx="12.5" ry="12.5" style="stroke:#181818;stroke-width:1.5;" width="48" x="423.7793" y="231.4375"/><text fill="#000000" font-family="sans-serif" font-size="14" lengthAdjust="spacing" textLength="28" x="433.7793" y="255.9707">&#20998;&#31867;</text><rect fill="#F1F1F1" height="37.6094" rx="12.5" ry="12.5" style="stroke:#181818;stroke-width:1.5;" width="76" x="297.7793" y="202.6328"/><text fill="#000000" font-family="sans-serif" font-size="14" lengthAdjust="spacing" textLength="56" x="307.7793" y="227.166">&#20316;&#20026;&#26041;&#24335;</text><rect fill="#90EE90" height="37.6094" rx="12.5" ry="12.5" style="stroke:#181818;stroke-width:1.5;" width="79.8896" x="167.8896" y="202.6328"/><text fill="#000000" font-family="sans-serif" font-size="14" lengthAdjust="spacing" textLength="56" x="177.8896" y="227.166">&#26080;&#26435;&#22788;&#20998;</text><rect fill="#F1F1F1" height="37.6094" rx="12.5" ry="12.5" style="stroke:#181818;stroke-width:1.5;" width="62" x="55.8896" y="116.2188"/><text fill="#000000" font-family="sans-serif" font-size="14" lengthAdjust="spacing" textLength="42" x="65.8896" y="140.752">&#21464;&#21334;&#25481;</text><path d="M167.8896,221.4375 L157.8896,221.4375 C142.8896,221.4375 142.8896,135.0234 127.8896,135.0234 L117.8896,135.0234 " fill="none" style="stroke:#181818;stroke-width:1;"/><rect fill="#F1F1F1" height="37.6094" rx="12.5" ry="12.5" style="stroke:#181818;stroke-width:1.5;" width="62" x="55.8896" y="173.8281"/><text fill="#000000" font-family="sans-serif" font-size="14" lengthAdjust="spacing" textLength="42" x="65.8896" y="198.3613">&#28040;&#36153;&#25481;</text><path d="M167.8896,221.4375 L157.8896,221.4375 C142.8896,221.4375 142.8896,192.6328 127.8896,192.6328 L117.8896,192.6328 " fill="none" style="stroke:#181818;stroke-width:1;"/><rect fill="#F1F1F1" height="37.6094" rx="12.5" ry="12.5" style="stroke:#181818;stroke-width:1.5;" width="62" x="55.8896" y="231.4375"/><text fill="#000000" font-family="sans-serif" font-size="14" lengthAdjust="spacing" textLength="42" x="65.8896" y="255.9707">&#25269;&#25276;&#25481;</text><path d="M167.8896,221.4375 L157.8896,221.4375 C142.8896,221.4375 142.8896,250.2422 127.8896,250.2422 L117.8896,250.2422 " fill="none" style="stroke:#181818;stroke-width:1;"/><rect fill="#F1F1F1" height="37.6094" rx="12.5" ry="12.5" style="stroke:#181818;stroke-width:1.5;" width="76" x="41.8896" y="289.0469"/><text fill="#000000" font-family="sans-serif" font-size="14" lengthAdjust="spacing" textLength="56" x="51.8896" y="313.5801">&#36192;&#19982;&#20182;&#20154;</text><path d="M167.8896,221.4375 L157.8896,221.4375 C142.8896,221.4375 142.8896,307.8516 127.8896,307.8516 L117.8896,307.8516 " fill="none" style="stroke:#181818;stroke-width:1;"/><path d="M297.7793,221.4375 L287.7793,221.4375 C272.7793,221.4375 272.7793,221.4375 257.7793,221.4375 L247.7793,221.4375 " fill="none" style="stroke:#181818;stroke-width:1;"/><path d="M423.7793,250.2422 L413.7793,250.2422 C398.7793,250.2422 398.7793,221.4375 383.7793,221.4375 L373.7793,221.4375 " fill="none" style="stroke:#181818;stroke-width:1;"/><rect fill="#F1F1F1" height="37.6094" rx="12.5" ry="12.5" style="stroke:#181818;stroke-width:1.5;" width="90" x="283.7793" y="346.6563"/><text fill="#000000" font-family="sans-serif" font-size="14" lengthAdjust="spacing" textLength="70" x="293.7793" y="371.1895">&#19981;&#20316;&#20026;&#26041;&#24335;</text><rect fill="#90EE90" height="37.6094" rx="12.5" ry="12.5" style="stroke:#181818;stroke-width:1.5;" width="79.8896" x="153.8896" y="346.6563"/><text fill="#000000" font-family="sans-serif" font-size="14" lengthAdjust="spacing" textLength="56" x="163.8896" y="371.1895">&#25298;&#19981;&#36820;&#36824;</text><rect fill="#90EE90" height="37.6094" rx="12.5" ry="12.5" style="stroke:#181818;stroke-width:1.5;" width="93.8896" x="10" y="346.6563"/><text fill="#000000" font-family="sans-serif" font-size="14" lengthAdjust="spacing" textLength="70" x="20" y="371.1895">&#36820;&#36824;&#35831;&#27714;&#26435;</text><path d="M153.8896,365.4609 L143.8896,365.4609 C128.8896,365.4609 128.8896,365.4609 113.8896,365.4609 L103.8896,365.4609 " fill="none" style="stroke:#181818;stroke-width:1;"/><path d="M283.7793,365.4609 L273.7793,365.4609 C258.7793,365.4609 258.7793,365.4609 243.7793,365.4609 L233.7793,365.4609 " fill="none" style="stroke:#181818;stroke-width:1;"/><path d="M423.7793,250.2422 L413.7793,250.2422 C398.7793,250.2422 398.7793,365.4609 383.7793,365.4609 L373.7793,365.4609 " fill="none" style="stroke:#181818;stroke-width:1;"/><path d="M521.7793,221.4375 L511.7793,221.4375 C496.7793,221.4375 496.7793,250.2422 481.7793,250.2422 L471.7793,250.2422 " fill="none" style="stroke:#181818;stroke-width:1;"/><path d="M647.7793,221.4375 L637.7793,221.4375 C622.7793,221.4375 622.7793,221.4375 607.7793,221.4375 L597.7793,221.4375 " fill="none" style="stroke:#181818;stroke-width:1;"/><path d="M759.7793,221.4375 L749.7793,221.4375 C734.7793,221.4375 734.7793,221.4375 719.7793,221.4375 L709.7793,221.4375 " fill="none" style="stroke:#181818;stroke-width:1;"/><!--SRC=[xLVTJXj75BxVfvYgDn391bo48eGGiGDg8nn5DSdzU7Um9-pEMBEpZjoe4hGenQJWAge0LKaBRTMekO2YXeJVyZ3nhZTNUOMUtRLXxRBURQzwWMLPk-Tyyvqvl-EPCYKMqg1CCt15KJwYJDKjZQ1qUYZuchAcaw6AZfcq33tb8LC0JVdoD0MPeaWgTOBSrpytZr-sLlTQPwzIpRyExBLjUFfmkkBykEoiVEV-jjGyUVFXjAueDz256arC69YokJ8noEIaefDvYKog4GN1vmPoDixitJ-RnyV-Uo1pTxvj7Xux6qVsQUD27AWowROMLjX_F7ctk0vMdEVrTuiDkx45cm29-yqh- -s-KryCvB01ObJAsAHc1ZRGpMUlF6djdtG90qNpxFdLUxY4E9lRpeklxL-NWIHafCT6Zxt6bhssuQpN-s2SDolkwwCOpEg1ithQ7-CUR3SFrvid6-7eXZmyN4lYvDDd07JFltVFjv8w6Q3TlRVE_bSGeUvbYg2bSbS9s8tDY1AmzuxS_PsUb8saKU1J9yDBGSA3GcZzi0nbsgh__X_JVlABLrpdBrgxErUetozjskTRm0vMxP-UkfiDUBu2rweVERkh4I5z_sm_QIHRBzTWdvuDPOf01tUwUAgxgIVyNfrKseBR59S4Dj1ZO4uNTOluJmXbiRfG4jnYMexhN23TouId1-sN7bR3Oa4GBGBUrdR09K48wyVi0qBeMWouri5oWLafQjE1iWEjMAAYHq43PGSQxLZ8AS7DABQFPsQosLokWwmHNUUF8h21qeSgwOlnrmRFS2OBz0k2FXc-Sd69wvhYBUoKI7oGm-ZX2BYvKFDp7SPc-WSv3Cs2I2r3JIRQ32qnBaY2X2CqIndfbLzI93JRbyeZOuohXCces30_Mq5k0b5H1qmFAtHLUszC0Xdb3EivGIyoUucKtC2INucz9qW52-n9_isoMqKkP5ov9UMI4j8gupei8LkE6z1cCYhRxPLHT5vs62b1me0q7Cn-qoekKHeXbN2zTnkOXkbPrAbPZXvreVNTrXwLgUoDJOIPkrp6M_AzKckO9V1AnHgH5yQmgi8P6bdINICuZdaUEiqCjI-ygoIF7n8hfebXL14ck1Qgm9WMwgpmxLIuIIMjabjgg1t-CSQnJf8wSka2v0B7KXiKJavlvYUfgVRnvv6RLl4XKJtwgEZWAfpNH2JahL8E7UHJypXcB-w9mtqvoBiRjt-lTjLox16XmC_4KFiloFLLuVggS7rL-1zT5Uvv5_lx-LbK9SBq9k58EZES6KtV72XWYUxoAXePGyCZuwEZuwDZA5UOGvvwK1d8VpQ7J6x1GO0q69E25YrlTWmgTt0Leyyjc2G66KVUsy1SVX0LfZj2DCsgL71cmFHGxZp81o3qAPU52fS-U6mqbQKI5OY0RQ47UUKscSUMBc6foZNAIkFe_jnCwgOo2rF6mYKm17Cz1-D7YXhe2dy3]--></g></svg>