<svg xmlns="http://www.w3.org/2000/svg" xmlns:xlink="http://www.w3.org/1999/xlink" contentStyleType="text/css" height="1529px" preserveAspectRatio="none" style="width:1165px;height:1529px;background:#FFFFFF;" version="1.1" viewBox="0 0 1165 1529" width="1165px" zoomAndPan="magnify"><title>&#36130;&#20135;&#29359;&#32618; - &#25968;&#39069;</title><defs/><g><text fill="#000000" font-family="sans-serif" font-size="14" font-weight="bold" lengthAdjust="spacing" textLength="99.0664" x="531.939" y="34.5332">&#36130;&#20135;&#29359;&#32618; - &#25968;&#39069;</text><rect fill="#F1F1F1" height="37.6094" rx="12.5" ry="12.5" style="stroke:#181818;stroke-width:1.5;" width="178.6963" x="10" y="764.3242"/><text fill="#000000" font-family="sans-serif" font-size="14" lengthAdjust="spacing" textLength="158.6963" x="20" y="788.8574">&#36130;&#20135;&#29359;&#32618;&#30340;&#25968;&#39069;&#65288;P281&#65289;</text><rect fill="#F1F1F1" height="37.6094" rx="12.5" ry="12.5" style="stroke:#181818;stroke-width:1.5;" width="136.6963" x="238.6963" y="101.8164"/><text fill="#000000" font-family="sans-serif" font-size="14" lengthAdjust="spacing" textLength="116.6963" x="248.6963" y="126.3496">&#36130;&#29289;&#20215;&#20540;&#65288;P284&#65289;</text><rect fill="#F1F1F1" height="37.6094" rx="12.5" ry="12.5" style="stroke:#181818;stroke-width:1.5;" width="76" x="425.3926" y="58.6094"/><text fill="#000000" font-family="sans-serif" font-size="14" lengthAdjust="spacing" textLength="56" x="435.3926" y="83.1426">&#31215;&#26497;&#20215;&#20540;</text><path d="M375.3926,120.6211 L385.3926,120.6211 C400.3926,120.6211 400.3926,77.4141 415.3926,77.4141 L425.3926,77.4141 " fill="none" style="stroke:#181818;stroke-width:1;"/><rect fill="#F1F1F1" height="37.6094" rx="12.5" ry="12.5" style="stroke:#181818;stroke-width:1.5;" width="76" x="425.3926" y="116.2188"/><text fill="#000000" font-family="sans-serif" font-size="14" lengthAdjust="spacing" textLength="56" x="435.3926" y="140.752">&#28040;&#26497;&#20215;&#20540;</text><rect fill="#F1F1F1" height="37.6094" rx="12.5" ry="12.5" style="stroke:#181818;stroke-width:1.5;" width="202" x="551.3926" y="87.4141"/><text fill="#000000" font-family="sans-serif" font-size="14" lengthAdjust="spacing" textLength="182" x="561.3926" y="111.9473">&#19981;&#33021;&#32473;&#20154;&#25110;&#31038;&#20250;&#24102;&#26469;&#31215;&#26497;&#20215;&#20540;</text><path d="M501.3926,135.0234 L511.3926,135.0234 C526.3926,135.0234 526.3926,106.2188 541.3926,106.2188 L551.3926,106.2188 " fill="none" style="stroke:#181818;stroke-width:1;"/><rect fill="#F1F1F1" height="37.6094" rx="12.5" ry="12.5" style="stroke:#181818;stroke-width:1.5;" width="412" x="551.3926" y="145.0234"/><text fill="#000000" font-family="sans-serif" font-size="14" lengthAdjust="spacing" textLength="392" x="561.3926" y="169.5566">&#20294;&#33853;&#20837;&#19981;&#27861;&#20998;&#23376;&#20043;&#25163;&#65292;&#20250;&#32473;&#20182;&#20154;&#25110;&#31038;&#20250;&#24102;&#26469;&#36130;&#20135;&#25439;&#22833;&#25110;&#20854;&#20182;&#21361;&#23475;</text><path d="M501.3926,135.0234 L511.3926,135.0234 C526.3926,135.0234 526.3926,163.8281 541.3926,163.8281 L551.3926,163.8281 " fill="none" style="stroke:#181818;stroke-width:1;"/><path d="M375.3926,120.6211 L385.3926,120.6211 C400.3926,120.6211 400.3926,135.0234 415.3926,135.0234 L425.3926,135.0234 " fill="none" style="stroke:#181818;stroke-width:1;"/><path d="M188.6963,783.1289 L198.6963,783.1289 C213.6963,783.1289 213.6963,120.6211 228.6963,120.6211 L238.6963,120.6211 " fill="none" style="stroke:#181818;stroke-width:1;"/><rect fill="#F1F1F1" height="37.6094" rx="12.5" ry="12.5" style="stroke:#181818;stroke-width:1.5;" width="197.3584" x="238.6963" y="461.875"/><text fill="#000000" font-family="sans-serif" font-size="14" lengthAdjust="spacing" textLength="177.3584" x="248.6963" y="486.4082">&#23450;&#32618;&#26631;&#20934;-&#25968;&#39069;&#26723;&#27425;&#65288;P281&#65289;</text><rect fill="#F1F1F1" height="37.6094" rx="12.5" ry="12.5" style="stroke:#181818;stroke-width:1.5;" width="132" x="486.0547" y="260.2422"/><text fill="#000000" font-family="sans-serif" font-size="14" lengthAdjust="spacing" textLength="112" x="496.0547" y="284.7754">&#31532;&#19968;&#26723;&#65292;&#25968;&#39069;&#36739;&#22823;</text><rect fill="#F1F1F1" height="37.6094" rx="12.5" ry="12.5" style="stroke:#181818;stroke-width:1.5;" width="48" x="668.0547" y="202.6328"/><text fill="#000000" font-family="sans-serif" font-size="14" lengthAdjust="spacing" textLength="28" x="678.0547" y="227.166">&#25968;&#39069;</text><rect fill="#F1F1F1" height="37.6094" rx="12.5" ry="12.5" style="stroke:#181818;stroke-width:1.5;" width="97.0342" x="766.0547" y="202.6328"/><text fill="#000000" font-family="sans-serif" font-size="14" lengthAdjust="spacing" textLength="77.0342" x="776.0547" y="227.166">2000 &#20803;&#24038;&#21491;</text><path d="M716.0547,221.4375 L726.0547,221.4375 C741.0547,221.4375 741.0547,221.4375 756.0547,221.4375 L766.0547,221.4375 " fill="none" style="stroke:#181818;stroke-width:1;"/><path d="M618.0547,279.0469 L628.0547,279.0469 C643.0547,279.0469 643.0547,221.4375 658.0547,221.4375 L668.0547,221.4375 " fill="none" style="stroke:#181818;stroke-width:1;"/><rect fill="#F1F1F1" height="37.6094" rx="12.5" ry="12.5" style="stroke:#181818;stroke-width:1.5;" width="76" x="668.0547" y="260.2422"/><text fill="#000000" font-family="sans-serif" font-size="14" lengthAdjust="spacing" textLength="56" x="678.0547" y="284.7754">&#23436;&#25972;&#20445;&#25252;</text><path d="M618.0547,279.0469 L628.0547,279.0469 C643.0547,279.0469 643.0547,279.0469 658.0547,279.0469 L668.0547,279.0469 " fill="none" style="stroke:#181818;stroke-width:1;"/><rect fill="#F1F1F1" height="37.6094" rx="12.5" ry="12.5" style="stroke:#181818;stroke-width:1.5;" width="48" x="668.0547" y="317.8516"/><text fill="#000000" font-family="sans-serif" font-size="14" lengthAdjust="spacing" textLength="28" x="678.0547" y="342.3848">&#31034;&#20363;</text><rect fill="#90EE90" height="37.6094" rx="12.5" ry="12.5" style="stroke:#181818;stroke-width:1.5;" width="65.8896" x="766.0547" y="317.8516"/><text fill="#000000" font-family="sans-serif" font-size="14" lengthAdjust="spacing" textLength="42" x="776.0547" y="342.3848">&#36141;&#29289;&#21345;</text><rect fill="#F1F1F1" height="37.6094" rx="12.5" ry="12.5" style="stroke:#181818;stroke-width:1.5;" width="216" x="881.9443" y="317.8516"/><text fill="#000000" font-family="sans-serif" font-size="14" lengthAdjust="spacing" textLength="196" x="891.9443" y="342.3848">&#19981;&#35760;&#21517;&#65292;&#19981;&#33021;&#25346;&#22833;&#65292;&#35841;&#37117;&#21487;&#20197;&#29992;</text><path d="M831.9443,336.6563 L841.9443,336.6563 C856.9443,336.6563 856.9443,336.6563 871.9443,336.6563 L881.9443,336.6563 " fill="none" style="stroke:#181818;stroke-width:1;"/><path d="M716.0547,336.6563 L726.0547,336.6563 C741.0547,336.6563 741.0547,336.6563 756.0547,336.6563 L766.0547,336.6563 " fill="none" style="stroke:#181818;stroke-width:1;"/><path d="M618.0547,279.0469 L628.0547,279.0469 C643.0547,279.0469 643.0547,336.6563 658.0547,336.6563 L668.0547,336.6563 " fill="none" style="stroke:#181818;stroke-width:1;"/><path d="M436.0547,480.6797 L446.0547,480.6797 C461.0547,480.6797 461.0547,279.0469 476.0547,279.0469 L486.0547,279.0469 " fill="none" style="stroke:#181818;stroke-width:1;"/><rect fill="#F1F1F1" height="37.6094" rx="12.5" ry="12.5" style="stroke:#181818;stroke-width:1.5;" width="132" x="486.0547" y="519.4844"/><text fill="#000000" font-family="sans-serif" font-size="14" lengthAdjust="spacing" textLength="112" x="496.0547" y="544.0176">&#31532;&#20108;&#26723;&#65292;&#25968;&#39069;&#19981;&#22823;</text><rect fill="#F1F1F1" height="37.6094" rx="12.5" ry="12.5" style="stroke:#181818;stroke-width:1.5;" width="48" x="668.0547" y="375.4609"/><text fill="#000000" font-family="sans-serif" font-size="14" lengthAdjust="spacing" textLength="28" x="678.0547" y="399.9941">&#25968;&#39069;</text><rect fill="#F1F1F1" height="37.6094" rx="12.5" ry="12.5" style="stroke:#181818;stroke-width:1.5;" width="127.3584" x="766.0547" y="375.4609"/><text fill="#000000" font-family="sans-serif" font-size="14" lengthAdjust="spacing" textLength="107.3584" x="776.0547" y="399.9941">&#27169;&#31946;&#65292;&#22823;&#27010;100&#20803;</text><path d="M716.0547,394.2656 L726.0547,394.2656 C741.0547,394.2656 741.0547,394.2656 756.0547,394.2656 L766.0547,394.2656 " fill="none" style="stroke:#181818;stroke-width:1;"/><path d="M618.0547,538.2891 L628.0547,538.2891 C643.0547,538.2891 643.0547,394.2656 658.0547,394.2656 L668.0547,394.2656 " fill="none" style="stroke:#181818;stroke-width:1;"/><rect fill="#F1F1F1" height="37.6094" rx="12.5" ry="12.5" style="stroke:#181818;stroke-width:1.5;" width="76" x="668.0547" y="519.4844"/><text fill="#000000" font-family="sans-serif" font-size="14" lengthAdjust="spacing" textLength="56" x="678.0547" y="544.0176">&#26377;&#38480;&#20445;&#25252;</text><rect fill="#F1F1F1" height="37.6094" rx="12.5" ry="12.5" style="stroke:#181818;stroke-width:1.5;" width="62" x="794.0547" y="461.875"/><text fill="#000000" font-family="sans-serif" font-size="14" lengthAdjust="spacing" textLength="42" x="804.0547" y="486.4082">&#25250;&#21163;&#32618;</text><path d="M744.0547,538.2891 L754.0547,538.2891 C769.0547,538.2891 769.0547,480.6797 784.0547,480.6797 L794.0547,480.6797 " fill="none" style="stroke:#181818;stroke-width:1;"/><rect fill="#F1F1F1" height="37.6094" rx="12.5" ry="12.5" style="stroke:#181818;stroke-width:1.5;" width="118" x="794.0547" y="519.4844"/><text fill="#000000" font-family="sans-serif" font-size="14" lengthAdjust="spacing" textLength="98" x="804.0547" y="544.0176">&#29305;&#27530;&#31867;&#22411;&#30423;&#31363;&#32618;</text><rect fill="#F1F1F1" height="37.6094" rx="12.5" ry="12.5" style="stroke:#181818;stroke-width:1.5;" width="76" x="962.0547" y="433.0703"/><text fill="#000000" font-family="sans-serif" font-size="14" lengthAdjust="spacing" textLength="56" x="972.0547" y="457.6035">&#22810;&#27425;&#30423;&#31363;</text><path d="M912.0547,538.2891 L922.0547,538.2891 C937.0547,538.2891 937.0547,451.875 952.0547,451.875 L962.0547,451.875 " fill="none" style="stroke:#181818;stroke-width:1;"/><rect fill="#F1F1F1" height="37.6094" rx="12.5" ry="12.5" style="stroke:#181818;stroke-width:1.5;" width="76" x="962.0547" y="490.6797"/><text fill="#000000" font-family="sans-serif" font-size="14" lengthAdjust="spacing" textLength="56" x="972.0547" y="515.2129">&#20837;&#25143;&#30423;&#31363;</text><path d="M912.0547,538.2891 L922.0547,538.2891 C937.0547,538.2891 937.0547,509.4844 952.0547,509.4844 L962.0547,509.4844 " fill="none" style="stroke:#181818;stroke-width:1;"/><rect fill="#F1F1F1" height="37.6094" rx="12.5" ry="12.5" style="stroke:#181818;stroke-width:1.5;" width="104" x="962.0547" y="548.2891"/><text fill="#000000" font-family="sans-serif" font-size="14" lengthAdjust="spacing" textLength="84" x="972.0547" y="572.8223">&#25658;&#24102;&#20982;&#22120;&#30423;&#31363;</text><path d="M912.0547,538.2891 L922.0547,538.2891 C937.0547,538.2891 937.0547,567.0938 952.0547,567.0938 L962.0547,567.0938 " fill="none" style="stroke:#181818;stroke-width:1;"/><rect fill="#F1F1F1" height="37.6094" rx="12.5" ry="12.5" style="stroke:#181818;stroke-width:1.5;" width="48" x="962.0547" y="605.8984"/><text fill="#000000" font-family="sans-serif" font-size="14" lengthAdjust="spacing" textLength="28" x="972.0547" y="630.4316">&#25170;&#31363;</text><path d="M912.0547,538.2891 L922.0547,538.2891 C937.0547,538.2891 937.0547,624.7031 952.0547,624.7031 L962.0547,624.7031 " fill="none" style="stroke:#181818;stroke-width:1;"/><path d="M744.0547,538.2891 L754.0547,538.2891 C769.0547,538.2891 769.0547,538.2891 784.0547,538.2891 L794.0547,538.2891 " fill="none" style="stroke:#181818;stroke-width:1;"/><path d="M618.0547,538.2891 L628.0547,538.2891 C643.0547,538.2891 643.0547,538.2891 658.0547,538.2891 L668.0547,538.2891 " fill="none" style="stroke:#181818;stroke-width:1;"/><rect fill="#F1F1F1" height="37.6094" rx="12.5" ry="12.5" style="stroke:#181818;stroke-width:1.5;" width="48" x="668.0547" y="663.5078"/><text fill="#000000" font-family="sans-serif" font-size="14" lengthAdjust="spacing" textLength="28" x="678.0547" y="688.041">&#31034;&#20363;</text><rect fill="#90EE90" height="37.6094" rx="12.5" ry="12.5" style="stroke:#181818;stroke-width:1.5;" width="65.8896" x="766.0547" y="663.5078"/><text fill="#000000" font-family="sans-serif" font-size="14" lengthAdjust="spacing" textLength="42" x="776.0547" y="688.041">&#38134;&#34892;&#21345;</text><rect fill="#F1F1F1" height="37.6094" rx="12.5" ry="12.5" style="stroke:#181818;stroke-width:1.5;" width="272" x="881.9443" y="663.5078"/><text fill="#000000" font-family="sans-serif" font-size="14" lengthAdjust="spacing" textLength="252" x="891.9443" y="688.041">&#35760;&#21517;&#65292;&#19981;&#33021;&#30452;&#25509;&#20351;&#29992;&#65292;&#21345;&#20027;&#21487;&#20197;&#38543;&#26102;&#25346;&#22833;</text><path d="M831.9443,682.3125 L841.9443,682.3125 C856.9443,682.3125 856.9443,682.3125 871.9443,682.3125 L881.9443,682.3125 " fill="none" style="stroke:#181818;stroke-width:1;"/><path d="M716.0547,682.3125 L726.0547,682.3125 C741.0547,682.3125 741.0547,682.3125 756.0547,682.3125 L766.0547,682.3125 " fill="none" style="stroke:#181818;stroke-width:1;"/><path d="M618.0547,538.2891 L628.0547,538.2891 C643.0547,538.2891 643.0547,682.3125 658.0547,682.3125 L668.0547,682.3125 " fill="none" style="stroke:#181818;stroke-width:1;"/><path d="M436.0547,480.6797 L446.0547,480.6797 C461.0547,480.6797 461.0547,538.2891 476.0547,538.2891 L486.0547,538.2891 " fill="none" style="stroke:#181818;stroke-width:1;"/><rect fill="#F1F1F1" height="37.6094" rx="12.5" ry="12.5" style="stroke:#181818;stroke-width:1.5;" width="132" x="486.0547" y="721.1172"/><text fill="#000000" font-family="sans-serif" font-size="14" lengthAdjust="spacing" textLength="112" x="496.0547" y="745.6504">&#31532;&#19977;&#26723;&#65292;&#25968;&#39069;&#24456;&#23567;</text><rect fill="#F1F1F1" height="37.6094" rx="12.5" ry="12.5" style="stroke:#181818;stroke-width:1.5;" width="76" x="668.0547" y="721.1172"/><text fill="#000000" font-family="sans-serif" font-size="14" lengthAdjust="spacing" textLength="56" x="678.0547" y="745.6504">&#19981;&#20104;&#20445;&#25252;</text><path d="M618.0547,739.9219 L628.0547,739.9219 C643.0547,739.9219 643.0547,739.9219 658.0547,739.9219 L668.0547,739.9219 " fill="none" style="stroke:#181818;stroke-width:1;"/><path d="M436.0547,480.6797 L446.0547,480.6797 C461.0547,480.6797 461.0547,739.9219 476.0547,739.9219 L486.0547,739.9219 " fill="none" style="stroke:#181818;stroke-width:1;"/><path d="M188.6963,783.1289 L198.6963,783.1289 C213.6963,783.1289 213.6963,480.6797 228.6963,480.6797 L238.6963,480.6797 " fill="none" style="stroke:#181818;stroke-width:1;"/><rect fill="#F1F1F1" height="37.6094" rx="12.5" ry="12.5" style="stroke:#181818;stroke-width:1.5;" width="136.6963" x="238.6963" y="836.3359"/><text fill="#000000" font-family="sans-serif" font-size="14" lengthAdjust="spacing" textLength="116.6963" x="248.6963" y="860.8691">&#37327;&#21009;&#26631;&#20934;&#65288;P282&#65289;</text><rect fill="#F1F1F1" height="37.6094" rx="12.5" ry="12.5" style="stroke:#181818;stroke-width:1.5;" width="76" x="425.3926" y="778.7266"/><text fill="#000000" font-family="sans-serif" font-size="14" lengthAdjust="spacing" textLength="56" x="435.3926" y="803.2598">&#25968;&#39069;&#36739;&#22823;</text><rect fill="#F1F1F1" height="37.6094" rx="12.5" ry="12.5" style="stroke:#181818;stroke-width:1.5;" width="65.1445" x="551.3926" y="778.7266"/><text fill="#000000" font-family="sans-serif" font-size="14" lengthAdjust="spacing" textLength="45.1445" x="561.3926" y="803.2598">2000&#20803;</text><path d="M501.3926,797.5313 L511.3926,797.5313 C526.3926,797.5313 526.3926,797.5313 541.3926,797.5313 L551.3926,797.5313 " fill="none" style="stroke:#181818;stroke-width:1;"/><path d="M375.3926,855.1406 L385.3926,855.1406 C400.3926,855.1406 400.3926,797.5313 415.3926,797.5313 L425.3926,797.5313 " fill="none" style="stroke:#181818;stroke-width:1;"/><rect fill="#F1F1F1" height="37.6094" rx="12.5" ry="12.5" style="stroke:#181818;stroke-width:1.5;" width="76" x="425.3926" y="836.3359"/><text fill="#000000" font-family="sans-serif" font-size="14" lengthAdjust="spacing" textLength="56" x="435.3926" y="860.8691">&#25968;&#39069;&#24040;&#22823;</text><rect fill="#F1F1F1" height="37.6094" rx="12.5" ry="12.5" style="stroke:#181818;stroke-width:1.5;" width="55.7861" x="551.3926" y="836.3359"/><text fill="#000000" font-family="sans-serif" font-size="14" lengthAdjust="spacing" textLength="35.7861" x="561.3926" y="860.8691">3&#19975;&#20803;</text><path d="M501.3926,855.1406 L511.3926,855.1406 C526.3926,855.1406 526.3926,855.1406 541.3926,855.1406 L551.3926,855.1406 " fill="none" style="stroke:#181818;stroke-width:1;"/><path d="M375.3926,855.1406 L385.3926,855.1406 C400.3926,855.1406 400.3926,855.1406 415.3926,855.1406 L425.3926,855.1406 " fill="none" style="stroke:#181818;stroke-width:1;"/><rect fill="#F1F1F1" height="37.6094" rx="12.5" ry="12.5" style="stroke:#181818;stroke-width:1.5;" width="104" x="425.3926" y="893.9453"/><text fill="#000000" font-family="sans-serif" font-size="14" lengthAdjust="spacing" textLength="84" x="435.3926" y="918.4785">&#25968;&#39069;&#29305;&#21035;&#24040;&#22823;</text><rect fill="#F1F1F1" height="37.6094" rx="12.5" ry="12.5" style="stroke:#181818;stroke-width:1.5;" width="63.5723" x="579.3926" y="893.9453"/><text fill="#000000" font-family="sans-serif" font-size="14" lengthAdjust="spacing" textLength="43.5723" x="589.3926" y="918.4785">30&#19975;&#20803;</text><path d="M529.3926,912.75 L539.3926,912.75 C554.3926,912.75 554.3926,912.75 569.3926,912.75 L579.3926,912.75 " fill="none" style="stroke:#181818;stroke-width:1;"/><path d="M375.3926,855.1406 L385.3926,855.1406 C400.3926,855.1406 400.3926,912.75 415.3926,912.75 L425.3926,912.75 " fill="none" style="stroke:#181818;stroke-width:1;"/><path d="M188.6963,783.1289 L198.6963,783.1289 C213.6963,783.1289 213.6963,855.1406 228.6963,855.1406 L238.6963,855.1406 " fill="none" style="stroke:#181818;stroke-width:1;"/><rect fill="#F1F1F1" height="37.6094" rx="12.5" ry="12.5" style="stroke:#181818;stroke-width:1.5;" width="164.6963" x="238.6963" y="1066.7734"/><text fill="#000000" font-family="sans-serif" font-size="14" lengthAdjust="spacing" textLength="144.6963" x="248.6963" y="1091.3066">&#20027;&#23458;&#35266;&#30456;&#19968;&#33268;&#65288;P282&#65289;</text><rect fill="#F1F1F1" height="37.6094" rx="12.5" ry="12.5" style="stroke:#181818;stroke-width:1.5;" width="48" x="453.3926" y="1066.7734"/><text fill="#000000" font-family="sans-serif" font-size="14" lengthAdjust="spacing" textLength="28" x="463.3926" y="1091.3066">&#24433;&#21709;</text><rect fill="#F1F1F1" height="37.6094" rx="12.5" ry="12.5" style="stroke:#181818;stroke-width:1.5;" width="76" x="551.3926" y="951.5547"/><text fill="#000000" font-family="sans-serif" font-size="14" lengthAdjust="spacing" textLength="56" x="561.3926" y="976.0879">&#29359;&#32618;&#25104;&#31435;</text><rect fill="#F1F1F1" height="37.6094" rx="12.5" ry="12.5" style="stroke:#181818;stroke-width:1.5;" width="287.5723" x="677.3926" y="951.5547"/><text fill="#000000" font-family="sans-serif" font-size="14" lengthAdjust="spacing" textLength="267.5723" x="687.3926" y="976.0879">&#20892;&#27665;&#30423;&#31363;&#26222;&#36890;&#33889;&#33796;&#65292;&#33889;&#33796;&#30340;&#23454;&#38469;&#20215;&#20540;&#26159;40&#19975;</text><path d="M627.3926,970.3594 L637.3926,970.3594 C652.3926,970.3594 652.3926,970.3594 667.3926,970.3594 L677.3926,970.3594 " fill="none" style="stroke:#181818;stroke-width:1;"/><path d="M501.3926,1085.5781 L511.3926,1085.5781 C526.3926,1085.5781 526.3926,970.3594 541.3926,970.3594 L551.3926,970.3594 " fill="none" style="stroke:#181818;stroke-width:1;"/><rect fill="#F1F1F1" height="37.6094" rx="12.5" ry="12.5" style="stroke:#181818;stroke-width:1.5;" width="76" x="551.3926" y="1037.9688"/><text fill="#000000" font-family="sans-serif" font-size="14" lengthAdjust="spacing" textLength="56" x="561.3926" y="1062.502">&#29359;&#32618;&#24418;&#24577;</text><rect fill="#F1F1F1" height="37.6094" rx="12.5" ry="12.5" style="stroke:#181818;stroke-width:1.5;" width="48" x="677.3926" y="1009.1641"/><text fill="#000000" font-family="sans-serif" font-size="14" lengthAdjust="spacing" textLength="28" x="687.3926" y="1033.6973">&#26410;&#36930;</text><rect fill="#F1F1F1" height="37.6094" rx="12.5" ry="12.5" style="stroke:#181818;stroke-width:1.5;" width="211.3584" x="775.3926" y="1009.1641"/><text fill="#000000" font-family="sans-serif" font-size="14" lengthAdjust="spacing" textLength="191.3584" x="785.3926" y="1033.6973">&#23567;&#20599;&#30423;&#31363;&#38065;&#21253;&#65292;&#21457;&#29616;&#21482;&#26377;100&#20803;</text><path d="M725.3926,1027.9688 L735.3926,1027.9688 C750.3926,1027.9688 750.3926,1027.9688 765.3926,1027.9688 L775.3926,1027.9688 " fill="none" style="stroke:#181818;stroke-width:1;"/><path d="M627.3926,1056.7734 L637.3926,1056.7734 C652.3926,1056.7734 652.3926,1027.9688 667.3926,1027.9688 L677.3926,1027.9688 " fill="none" style="stroke:#181818;stroke-width:1;"/><rect fill="#F1F1F1" height="37.6094" rx="12.5" ry="12.5" style="stroke:#181818;stroke-width:1.5;" width="48" x="677.3926" y="1066.7734"/><text fill="#000000" font-family="sans-serif" font-size="14" lengthAdjust="spacing" textLength="28" x="687.3926" y="1091.3066">&#26082;&#36930;</text><path d="M627.3926,1056.7734 L637.3926,1056.7734 C652.3926,1056.7734 652.3926,1085.5781 667.3926,1085.5781 L677.3926,1085.5781 " fill="none" style="stroke:#181818;stroke-width:1;"/><path d="M501.3926,1085.5781 L511.3926,1085.5781 C526.3926,1085.5781 526.3926,1056.7734 541.3926,1056.7734 L551.3926,1056.7734 " fill="none" style="stroke:#181818;stroke-width:1;"/><rect fill="#F1F1F1" height="37.6094" rx="12.5" ry="12.5" style="stroke:#181818;stroke-width:1.5;" width="48" x="551.3926" y="1153.1875"/><text fill="#000000" font-family="sans-serif" font-size="14" lengthAdjust="spacing" textLength="28" x="561.3926" y="1177.7207">&#37327;&#21009;</text><rect fill="#F1F1F1" height="37.6094" rx="12.5" ry="12.5" style="stroke:#181818;stroke-width:1.5;" width="323.3584" x="649.3926" y="1124.3828"/><text fill="#000000" font-family="sans-serif" font-size="14" lengthAdjust="spacing" textLength="303.3584" x="659.3926" y="1148.916">&#26381;&#21153;&#21592;&#30423;&#31363;&#20960;&#21315;&#20803;&#33457;&#29942;&#65292;&#33457;&#29942;&#30340;&#23454;&#38469;&#20215;&#20540;&#26159;100&#19975;</text><path d="M599.3926,1171.9922 L609.3926,1171.9922 C624.3926,1171.9922 624.3926,1143.1875 639.3926,1143.1875 L649.3926,1143.1875 " fill="none" style="stroke:#181818;stroke-width:1;"/><rect fill="#F1F1F1" height="37.6094" rx="12.5" ry="12.5" style="stroke:#181818;stroke-width:1.5;" width="296.9307" x="649.3926" y="1181.9922"/><text fill="#000000" font-family="sans-serif" font-size="14" lengthAdjust="spacing" textLength="276.9307" x="659.3926" y="1206.5254">&#23567;&#20599;&#24819;&#30423;&#31363;3&#19975;&#20803;&#29664;&#23453;&#65292;&#23454;&#38469;&#30423;&#21462;3000&#20803;&#29664;&#23453;</text><path d="M599.3926,1171.9922 L609.3926,1171.9922 C624.3926,1171.9922 624.3926,1200.7969 639.3926,1200.7969 L649.3926,1200.7969 " fill="none" style="stroke:#181818;stroke-width:1;"/><path d="M501.3926,1085.5781 L511.3926,1085.5781 C526.3926,1085.5781 526.3926,1171.9922 541.3926,1171.9922 L551.3926,1171.9922 " fill="none" style="stroke:#181818;stroke-width:1;"/><path d="M403.3926,1085.5781 L413.3926,1085.5781 C428.3926,1085.5781 428.3926,1085.5781 443.3926,1085.5781 L453.3926,1085.5781 " fill="none" style="stroke:#181818;stroke-width:1;"/><path d="M188.6963,783.1289 L198.6963,783.1289 C213.6963,783.1289 213.6963,1085.5781 228.6963,1085.5781 L238.6963,1085.5781 " fill="none" style="stroke:#181818;stroke-width:1;"/><rect fill="#F1F1F1" height="37.6094" rx="12.5" ry="12.5" style="stroke:#181818;stroke-width:1.5;" width="164.6963" x="238.6963" y="1297.2109"/><text fill="#000000" font-family="sans-serif" font-size="14" lengthAdjust="spacing" textLength="144.6963" x="248.6963" y="1321.7441">&#36829;&#31105;&#21697;&#30340;&#25968;&#39069;&#65288;P284&#65289;</text><rect fill="#F1F1F1" height="37.6094" rx="12.5" ry="12.5" style="stroke:#181818;stroke-width:1.5;" width="48" x="453.3926" y="1297.2109"/><text fill="#000000" font-family="sans-serif" font-size="14" lengthAdjust="spacing" textLength="28" x="463.3926" y="1321.7441">&#20030;&#20363;</text><rect fill="#F1F1F1" height="37.6094" rx="12.5" ry="12.5" style="stroke:#181818;stroke-width:1.5;" width="48" x="551.3926" y="1239.6016"/><text fill="#000000" font-family="sans-serif" font-size="14" lengthAdjust="spacing" textLength="28" x="561.3926" y="1264.1348">&#27602;&#21697;</text><path d="M501.3926,1316.0156 L511.3926,1316.0156 C526.3926,1316.0156 526.3926,1258.4063 541.3926,1258.4063 L551.3926,1258.4063 " fill="none" style="stroke:#181818;stroke-width:1;"/><rect fill="#F1F1F1" height="37.6094" rx="12.5" ry="12.5" style="stroke:#181818;stroke-width:1.5;" width="48" x="551.3926" y="1297.2109"/><text fill="#000000" font-family="sans-serif" font-size="14" lengthAdjust="spacing" textLength="28" x="561.3926" y="1321.7441">&#20551;&#24065;</text><path d="M501.3926,1316.0156 L511.3926,1316.0156 C526.3926,1316.0156 526.3926,1316.0156 541.3926,1316.0156 L551.3926,1316.0156 " fill="none" style="stroke:#181818;stroke-width:1;"/><rect fill="#F1F1F1" height="37.6094" rx="12.5" ry="12.5" style="stroke:#181818;stroke-width:1.5;" width="76" x="551.3926" y="1354.8203"/><text fill="#000000" font-family="sans-serif" font-size="14" lengthAdjust="spacing" textLength="56" x="561.3926" y="1379.3535">&#28139;&#31229;&#29289;&#21697;</text><path d="M501.3926,1316.0156 L511.3926,1316.0156 C526.3926,1316.0156 526.3926,1373.625 541.3926,1373.625 L551.3926,1373.625 " fill="none" style="stroke:#181818;stroke-width:1;"/><path d="M403.3926,1316.0156 L413.3926,1316.0156 C428.3926,1316.0156 428.3926,1316.0156 443.3926,1316.0156 L453.3926,1316.0156 " fill="none" style="stroke:#181818;stroke-width:1;"/><path d="M188.6963,783.1289 L198.6963,783.1289 C213.6963,783.1289 213.6963,1316.0156 228.6963,1316.0156 L238.6963,1316.0156 " fill="none" style="stroke:#181818;stroke-width:1;"/><rect fill="#F1F1F1" height="37.6094" rx="12.5" ry="12.5" style="stroke:#181818;stroke-width:1.5;" width="178.6963" x="238.6963" y="1441.2344"/><text fill="#000000" font-family="sans-serif" font-size="14" lengthAdjust="spacing" textLength="158.6963" x="248.6963" y="1465.7676">&#29359;&#32618;&#25968;&#39069;&#30340;&#35748;&#23450;&#65288;P285&#65289;</text><rect fill="#F1F1F1" height="37.6094" rx="12.5" ry="12.5" style="stroke:#181818;stroke-width:1.5;" width="202" x="467.3926" y="1412.4297"/><text fill="#000000" font-family="sans-serif" font-size="14" lengthAdjust="spacing" textLength="182" x="477.3926" y="1436.9629">&#29359;&#32618;&#25152;&#24471;&#30340;&#25968;&#39069;&#65288;&#26082;&#36930;&#25968;&#39069;&#65289;</text><rect fill="#F1F1F1" height="37.6094" rx="12.5" ry="12.5" style="stroke:#181818;stroke-width:1.5;" width="160" x="719.3926" y="1412.4297"/><text fill="#000000" font-family="sans-serif" font-size="14" lengthAdjust="spacing" textLength="140" x="729.3926" y="1436.9629">&#29359;&#32618;&#26102;&#65288;&#34892;&#20026;&#26102;&#65289;&#20026;&#20934;</text><path d="M669.3926,1431.2344 L679.3926,1431.2344 C694.3926,1431.2344 694.3926,1431.2344 709.3926,1431.2344 L719.3926,1431.2344 " fill="none" style="stroke:#181818;stroke-width:1;"/><path d="M417.3926,1460.0391 L427.3926,1460.0391 C442.3926,1460.0391 442.3926,1431.2344 457.3926,1431.2344 L467.3926,1431.2344 " fill="none" style="stroke:#181818;stroke-width:1;"/><rect fill="#F1F1F1" height="37.6094" rx="12.5" ry="12.5" style="stroke:#181818;stroke-width:1.5;" width="160" x="467.3926" y="1470.0391"/><text fill="#000000" font-family="sans-serif" font-size="14" lengthAdjust="spacing" textLength="140" x="477.3926" y="1494.5723">&#29359;&#32618;&#25152;&#24471;&#24471;&#25910;&#30410;&#24471;&#25968;&#39069;</text><rect fill="#F1F1F1" height="37.6094" rx="12.5" ry="12.5" style="stroke:#181818;stroke-width:1.5;" width="132" x="677.3926" y="1470.0391"/><text fill="#000000" font-family="sans-serif" font-size="14" lengthAdjust="spacing" textLength="112" x="687.3926" y="1494.5723">&#29359;&#32618;&#21518;&#26696;&#21457;&#26102;&#20026;&#20934;</text><path d="M627.3926,1488.8438 L637.3926,1488.8438 C652.3926,1488.8438 652.3926,1488.8438 667.3926,1488.8438 L677.3926,1488.8438 " fill="none" style="stroke:#181818;stroke-width:1;"/><path d="M417.3926,1460.0391 L427.3926,1460.0391 C442.3926,1460.0391 442.3926,1488.8438 457.3926,1488.8438 L467.3926,1488.8438 " fill="none" style="stroke:#181818;stroke-width:1;"/><path d="M188.6963,783.1289 L198.6963,783.1289 C213.6963,783.1289 213.6963,1460.0391 228.6963,1460.0391 L238.6963,1460.0391 " fill="none" style="stroke:#181818;stroke-width:1;"/><!--SRC=[xLbTJzj857tthvZLlhGhXGRALXL2LGijsgrALIsqxoQP1hUE7JaE5RjQYK0X7v0cbBOKADs6vMkX3I0Gf87GF-EnawV-XRtssE0uTfA-9ueYU-wPCtFlkNTcDBaTbLb93dD2CCn66EOdJWZmiI167HtNw3SgZ_FuMeHd1JaMvdqwqWTGdz7UmK4RmyYSp6DKELfJIbjQUayhxo0VKj_kLzTM6UQN6eEs_98Qlfyb7tNTxFn-bc8GV0oKblfFEJqX4sVKs6qPAK3RsbC_nYd0rgmU9-kRgKafPYfJPUrqIIcLrEGxRVrSELicnKrrTSELpEnLdgdaocHw0xghXsz9SePyoIbVPzNKxFUpEM3G2K_VrNDIFzNCFsJz04na-XXW97D02eUcZwIm335GFoL8OiP7uw3c_rK_vntHC1t-_5afJW00XgNWolaKMTzopDSCD79yVa5TVhyVaUafSh99ieUENgG0d4VAjrKrlUumQUibvNpMXR1oz0Ka8faywkt5uSWe6-MYjsxL0I-3NzWdkOmUD4C8TMuI8WElbVruTQfCidlAwORsPjlXScdExZ9q_G6NrUsyTfY6pj17tPpizFl1VsVd3wdgKix5SzESNYFfNP39nQQblgg5j7PmIZxEQYkBsiwK6yuCyFeo24jHNf3f3JLvqX2YvagGN2HnJ9Qs6mDJhvt61afM5uuh-RaMbNJ8gAqSgQysbF8ta4wFT2Ql54-fcDNbhBfuJ7Ls9dBAhYevJvBzR7svAgMaJHYOPo9BalEqO6YDTDNMI8EwqDFVhhu59YVRzU3hIZ7X1WR5INBNlOlVraUV_Iafh5Ms9hML8fHj9N7aEc5IFY0B6QTEnjge9dFQhfjQPEQ3kZzFvLUN2jM9vSfylf9xgPUIyG2hAYbyh2vDqmLDVR_NhK_ETHHINbCducw9_s6d6f_qIjNzB8cRgLfzVK3cfdNfi_FQgtsItO6ISYaratPnpKbhwUewYGn9vydyUpeKINmYcIaWhgGFj8LZtM7ZeTvX6D_fiNtcwjGXPJI5rhAVI65Lzy6W0Hl9lhjECuRQh6tfswgs6ISBSSVEvTYSbEAvizB0cRtNqD6vyCOJfEXiL4zsjQsolhYQ-8kSe5cu_B9IM8VTWuxzgsEVeCZK13bVjC-IHjvwJRddt284DGbhWL8i6SyfU81Yyw27h_hcM5j9wm_rY_15ZkLUgVaaf0TGcdpCRGnd3EkSSRlssD5hd2PkCMR3NOuDIMmO_GNa7IDy31jF2FMnWUSXIOm9mNwH5oN4Sw5HMRU3zMyT6sIbvn8EUi1DgmKEIHWBZPWDW0qztWGyRc55YHL2NfEcHWiQYKaHtWjAZHRKsp6RKv8OzMBxUM2Whw-_tqAEOvuNNtXWgT60CXrXbXE6Ht7O8XuG1Nc8-nF32iZeTci3QHvBEzhl0Oy-7pSajMEx6iVI3ks3fi0eP69Ba-52WYZX5dH5w04dO6Vx9KMBmpQaqia4GGnWGVQAZM28GYMWJICyO1oiK3pct0GPo3XHOFb-YRiGy18fYs5M5bsnZoGSOILMR_cHRdT6H4bkbbMjSiaoo2etAwGMsVh5C5IJxAMssTEBJbT7m24G34ZjmMoqA3KJAeXnn9xljGFSWqLoXEUYezuhcgr_xMWlHZdP6HkFOHwASlEH3Ay2uwpGWbS1DeZbYy7OG80BUgTqpKhRZFafL5hKLhxm7i23x3CSQrB48WzJaCIWBGERb93LmnWd8aOvcHl3TmAsSgXRhLaUj-h8fGkW1TkKEip11galxQtabBdBwUJHsCWp7D3flQB3Zi6sZAKMUSSu4Ih8e1QRCUjnRpdSbmjvRU4shjMQN6wwHJ3mqtlDF6cqxopQTnRjEulsdKNxpg9zPz6-isZVMRHmP_58_m_ayU03D8Qbg7vMw-peydTrTzoyCiJAwA4uXZfl87zdJtTtJ_SDr3yqZ7JpLURAuE_3A2h6uAYAWd2GaxYHc7wwkShSPyTOz4SCpZfXt8Fqjol3WrVHq3sh4TqJnZX95C9mlc7kFnca8FIRA0z5HDa0t-ZszN4o6i8IJ0iz6MJkugTiZ9UXQq0CSaAe1pqU7l3TP1x0EIZ6Xc0WE7dsmm59biR1DlG_]--></g></svg>