<svg xmlns="http://www.w3.org/2000/svg" xmlns:xlink="http://www.w3.org/1999/xlink" contentStyleType="text/css" height="953px" preserveAspectRatio="none" style="width:1298px;height:953px;background:#FFFFFF;" version="1.1" viewBox="0 0 1298 953" width="1298px" zoomAndPan="magnify"><title>&#36130;&#20135;&#29359;&#32618;-&#25970;&#35784;&#21202;&#32034;&#32618;</title><defs/><g><text fill="#000000" font-family="sans-serif" font-size="14" font-weight="bold" lengthAdjust="spacing" textLength="134.5996" x="580.2759" y="34.5332">&#36130;&#20135;&#29359;&#32618;-&#25970;&#35784;&#21202;&#32034;&#32618;</text><rect fill="#F1F1F1" height="37.6094" rx="12.5" ry="12.5" style="stroke:#181818;stroke-width:1.5;" width="90" x="10" y="476.2773"/><text fill="#000000" font-family="sans-serif" font-size="14" lengthAdjust="spacing" textLength="70" x="20" y="500.8105">&#25970;&#35784;&#21202;&#32034;&#32618;</text><rect fill="#F1F1F1" height="37.6094" rx="12.5" ry="12.5" style="stroke:#181818;stroke-width:1.5;" width="76" x="150" y="217.0352"/><text fill="#000000" font-family="sans-serif" font-size="14" lengthAdjust="spacing" textLength="56" x="160" y="241.5684">&#26500;&#25104;&#35201;&#20214;</text><rect fill="#F1F1F1" height="37.6094" rx="12.5" ry="12.5" style="stroke:#181818;stroke-width:1.5;" width="76" x="276" y="58.6094"/><text fill="#000000" font-family="sans-serif" font-size="14" lengthAdjust="spacing" textLength="56" x="286" y="83.1426">&#34892;&#20026;&#32467;&#26500;</text><rect fill="#90EE90" height="37.6094" rx="12.5" ry="12.5" style="stroke:#181818;stroke-width:1.5;" width="249.4551" x="402" y="58.6094"/><text fill="#000000" font-family="sans-serif" font-size="14" lengthAdjust="spacing" textLength="225.5654" x="412" y="83.1426">1. &#24102;&#30528;&#38750;&#27861;&#21344;&#26377;&#30446;&#30340;&#65292;&#23454;&#26045;&#24656;&#21523;&#34892;&#20026;</text><rect fill="#90EE90" height="37.6094" rx="12.5" ry="12.5" style="stroke:#181818;stroke-width:1.5;" width="147.5654" x="701.4551" y="58.6094"/><text fill="#000000" font-family="sans-serif" font-size="14" lengthAdjust="spacing" textLength="127.5654" x="711.4551" y="83.1426">2. &#23545;&#26041;&#20135;&#29983;&#24656;&#24807;&#24515;&#29702;</text><rect fill="#90EE90" height="37.6094" rx="12.5" ry="12.5" style="stroke:#181818;stroke-width:1.5;" width="203.5654" x="899.0205" y="58.6094"/><text fill="#000000" font-family="sans-serif" font-size="14" lengthAdjust="spacing" textLength="183.5654" x="909.0205" y="83.1426">3. &#23545;&#26041;&#22522;&#20110;&#24656;&#24807;&#24515;&#29702;&#20132;&#20184;&#36130;&#29289;</text><rect fill="#90EE90" height="37.6094" rx="12.5" ry="12.5" style="stroke:#181818;stroke-width:1.5;" width="133.5654" x="1152.5859" y="58.6094"/><text fill="#000000" font-family="sans-serif" font-size="14" lengthAdjust="spacing" textLength="113.5654" x="1162.5859" y="83.1426">4. &#34892;&#20026;&#20154;&#21462;&#24471;&#36130;&#29289;</text><path d="M1102.5859,77.4141 L1112.5859,77.4141 C1127.5859,77.4141 1127.5859,77.4141 1142.5859,77.4141 L1152.5859,77.4141 " fill="none" style="stroke:#181818;stroke-width:1;"/><path d="M849.0205,77.4141 L859.0205,77.4141 C874.0205,77.4141 874.0205,77.4141 889.0205,77.4141 L899.0205,77.4141 " fill="none" style="stroke:#181818;stroke-width:1;"/><path d="M651.4551,77.4141 L661.4551,77.4141 C676.4551,77.4141 676.4551,77.4141 691.4551,77.4141 L701.4551,77.4141 " fill="none" style="stroke:#181818;stroke-width:1;"/><path d="M352,77.4141 L362,77.4141 C377,77.4141 377,77.4141 392,77.4141 L402,77.4141 " fill="none" style="stroke:#181818;stroke-width:1;"/><path d="M226,235.8398 L236,235.8398 C251,235.8398 251,77.4141 266,77.4141 L276,77.4141 " fill="none" style="stroke:#181818;stroke-width:1;"/><rect fill="#F1F1F1" height="37.6094" rx="12.5" ry="12.5" style="stroke:#181818;stroke-width:1.5;" width="76" x="276" y="159.4258"/><text fill="#000000" font-family="sans-serif" font-size="14" lengthAdjust="spacing" textLength="56" x="286" y="183.959">&#25104;&#31435;&#26465;&#20214;</text><rect fill="#F1F1F1" height="37.6094" rx="12.5" ry="12.5" style="stroke:#181818;stroke-width:1.5;" width="55.7861" x="402" y="116.2188"/><text fill="#000000" font-family="sans-serif" font-size="14" lengthAdjust="spacing" textLength="35.7861" x="412" y="140.752">&#31532;1&#27493;</text><path d="M352,178.2305 L362,178.2305 C377,178.2305 377,135.0234 392,135.0234 L402,135.0234 " fill="none" style="stroke:#181818;stroke-width:1;"/><rect fill="#F1F1F1" height="37.6094" rx="12.5" ry="12.5" style="stroke:#181818;stroke-width:1.5;" width="48" x="402" y="173.8281"/><text fill="#000000" font-family="sans-serif" font-size="14" lengthAdjust="spacing" textLength="28" x="412" y="198.3613">&#26696;&#20363;</text><rect fill="#F1F1F1" height="37.6094" rx="12.5" ry="12.5" style="stroke:#181818;stroke-width:1.5;" width="62" x="500" y="145.0234"/><text fill="#000000" font-family="sans-serif" font-size="14" lengthAdjust="spacing" textLength="42" x="510" y="169.5566">&#19981;&#25104;&#31435;</text><rect fill="#F1F1F1" height="37.6094" rx="12.5" ry="12.5" style="stroke:#181818;stroke-width:1.5;" width="164.6963" x="612" y="145.0234"/><text fill="#000000" font-family="sans-serif" font-size="14" lengthAdjust="spacing" textLength="144.6963" x="622" y="169.5566">&#39740;&#38754;&#20855;&#21523;&#20154;&#26696;&#65288;P263&#65289;</text><path d="M562,163.8281 L572,163.8281 C587,163.8281 587,163.8281 602,163.8281 L612,163.8281 " fill="none" style="stroke:#181818;stroke-width:1;"/><path d="M450,192.6328 L460,192.6328 C475,192.6328 475,163.8281 490,163.8281 L500,163.8281 " fill="none" style="stroke:#181818;stroke-width:1;"/><rect fill="#F1F1F1" height="37.6094" rx="12.5" ry="12.5" style="stroke:#181818;stroke-width:1.5;" width="48" x="500" y="202.6328"/><text fill="#000000" font-family="sans-serif" font-size="14" lengthAdjust="spacing" textLength="28" x="510" y="227.166">&#25104;&#31435;</text><rect fill="#F1F1F1" height="37.6094" rx="12.5" ry="12.5" style="stroke:#181818;stroke-width:1.5;" width="206.6963" x="598" y="202.6328"/><text fill="#000000" font-family="sans-serif" font-size="14" lengthAdjust="spacing" textLength="186.6963" x="608" y="227.166">&#29992;&#36159;&#36162;&#20107;&#23454;&#21202;&#32034;&#20182;&#20154;&#65288;P263&#65289;</text><path d="M548,221.4375 L558,221.4375 C573,221.4375 573,221.4375 588,221.4375 L598,221.4375 " fill="none" style="stroke:#181818;stroke-width:1;"/><path d="M450,192.6328 L460,192.6328 C475,192.6328 475,221.4375 490,221.4375 L500,221.4375 " fill="none" style="stroke:#181818;stroke-width:1;"/><path d="M352,178.2305 L362,178.2305 C377,178.2305 377,192.6328 392,192.6328 L402,192.6328 " fill="none" style="stroke:#181818;stroke-width:1;"/><path d="M226,235.8398 L236,235.8398 C251,235.8398 251,178.2305 266,178.2305 L276,178.2305 " fill="none" style="stroke:#181818;stroke-width:1;"/><rect fill="#F1F1F1" height="37.6094" rx="12.5" ry="12.5" style="stroke:#181818;stroke-width:1.5;" width="76" x="276" y="317.8516"/><text fill="#000000" font-family="sans-serif" font-size="14" lengthAdjust="spacing" textLength="56" x="286" y="342.3848">&#26082;&#36930;&#26465;&#20214;</text><rect fill="#F1F1F1" height="37.6094" rx="12.5" ry="12.5" style="stroke:#181818;stroke-width:1.5;" width="175.5723" x="402" y="260.2422"/><text fill="#000000" font-family="sans-serif" font-size="14" lengthAdjust="spacing" textLength="155.5723" x="412" y="284.7754">&#31532;3&#27493;&#19982;&#31532;4&#27493;&#26377;&#22240;&#26524;&#20851;&#31995;</text><path d="M352,336.6563 L362,336.6563 C377,336.6563 377,279.0469 392,279.0469 L402,279.0469 " fill="none" style="stroke:#181818;stroke-width:1;"/><rect fill="#F1F1F1" height="37.6094" rx="12.5" ry="12.5" style="stroke:#181818;stroke-width:1.5;" width="48" x="402" y="346.6563"/><text fill="#000000" font-family="sans-serif" font-size="14" lengthAdjust="spacing" textLength="28" x="412" y="371.1895">&#26696;&#20363;</text><rect fill="#F1F1F1" height="37.6094" rx="12.5" ry="12.5" style="stroke:#181818;stroke-width:1.5;" width="48" x="500" y="346.6563"/><text fill="#000000" font-family="sans-serif" font-size="14" lengthAdjust="spacing" textLength="28" x="510" y="371.1895">&#26410;&#36930;</text><rect fill="#F1F1F1" height="37.6094" rx="12.5" ry="12.5" style="stroke:#181818;stroke-width:1.5;" width="206.6963" x="598" y="317.8516"/><text fill="#000000" font-family="sans-serif" font-size="14" lengthAdjust="spacing" textLength="186.6963" x="608" y="342.3848">&#23567;&#21949;&#21872;&#21202;&#32034;&#40657;&#24110;&#32769;&#22823;&#65288;P263&#65289;</text><path d="M548,365.4609 L558,365.4609 C573,365.4609 573,336.6563 588,336.6563 L598,336.6563 " fill="none" style="stroke:#181818;stroke-width:1;"/><rect fill="#F1F1F1" height="37.6094" rx="12.5" ry="12.5" style="stroke:#181818;stroke-width:1.5;" width="150.6963" x="598" y="375.4609"/><text fill="#000000" font-family="sans-serif" font-size="14" lengthAdjust="spacing" textLength="130.6963" x="608" y="399.9941">&#21202;&#32034;&#25253;&#35686;&#26696;&#65288;P263&#65289;</text><path d="M548,365.4609 L558,365.4609 C573,365.4609 573,394.2656 588,394.2656 L598,394.2656 " fill="none" style="stroke:#181818;stroke-width:1;"/><path d="M450,365.4609 L460,365.4609 C475,365.4609 475,365.4609 490,365.4609 L500,365.4609 " fill="none" style="stroke:#181818;stroke-width:1;"/><path d="M352,336.6563 L362,336.6563 C377,336.6563 377,365.4609 392,365.4609 L402,365.4609 " fill="none" style="stroke:#181818;stroke-width:1;"/><path d="M226,235.8398 L236,235.8398 C251,235.8398 251,336.6563 266,336.6563 L276,336.6563 " fill="none" style="stroke:#181818;stroke-width:1;"/><path d="M100,495.082 L110,495.082 C125,495.082 125,235.8398 140,235.8398 L150,235.8398 " fill="none" style="stroke:#181818;stroke-width:1;"/><rect fill="#F1F1F1" height="37.6094" rx="12.5" ry="12.5" style="stroke:#181818;stroke-width:1.5;" width="48" x="150" y="663.5078"/><text fill="#000000" font-family="sans-serif" font-size="14" lengthAdjust="spacing" textLength="28" x="160" y="688.041">&#20851;&#31995;</text><rect fill="#F1F1F1" height="37.6094" rx="12.5" ry="12.5" style="stroke:#181818;stroke-width:1.5;" width="48" x="248" y="490.6797"/><text fill="#000000" font-family="sans-serif" font-size="14" lengthAdjust="spacing" textLength="28" x="258" y="515.2129">&#25104;&#31435;</text><rect fill="#F1F1F1" height="37.6094" rx="12.5" ry="12.5" style="stroke:#181818;stroke-width:1.5;" width="76" x="346" y="490.6797"/><text fill="#000000" font-family="sans-serif" font-size="14" lengthAdjust="spacing" textLength="56" x="356" y="515.2129">&#34892;&#20351;&#26435;&#21033;</text><rect fill="#F1F1F1" height="37.6094" rx="12.5" ry="12.5" style="stroke:#181818;stroke-width:1.5;" width="153.7861" x="472" y="461.875"/><text fill="#000000" font-family="sans-serif" font-size="14" lengthAdjust="spacing" textLength="133.7861" x="482" y="486.4082">&#31532;1&#27493;&#65292;&#38750;&#27861;&#21344;&#26377;&#30446;&#30340;</text><rect fill="#F1F1F1" height="37.6094" rx="12.5" ry="12.5" style="stroke:#181818;stroke-width:1.5;" width="62" x="675.7861" y="461.875"/><text fill="#000000" font-family="sans-serif" font-size="14" lengthAdjust="spacing" textLength="42" x="685.7861" y="486.4082">&#35831;&#27714;&#26435;</text><rect fill="#F1F1F1" height="37.6094" rx="12.5" ry="12.5" style="stroke:#181818;stroke-width:1.5;" width="76" x="787.7861" y="433.0703"/><text fill="#000000" font-family="sans-serif" font-size="14" lengthAdjust="spacing" textLength="56" x="797.7861" y="457.6035">&#20107;&#23454;&#20381;&#25454;</text><path d="M737.7861,480.6797 L747.7861,480.6797 C762.7861,480.6797 762.7861,451.875 777.7861,451.875 L787.7861,451.875 " fill="none" style="stroke:#181818;stroke-width:1;"/><rect fill="#F1F1F1" height="37.6094" rx="12.5" ry="12.5" style="stroke:#181818;stroke-width:1.5;" width="76" x="787.7861" y="490.6797"/><text fill="#000000" font-family="sans-serif" font-size="14" lengthAdjust="spacing" textLength="56" x="797.7861" y="515.2129">&#27861;&#24459;&#20381;&#25454;</text><path d="M737.7861,480.6797 L747.7861,480.6797 C762.7861,480.6797 762.7861,509.4844 777.7861,509.4844 L787.7861,509.4844 " fill="none" style="stroke:#181818;stroke-width:1;"/><path d="M625.7861,480.6797 L635.7861,480.6797 C650.7861,480.6797 650.7861,480.6797 665.7861,480.6797 L675.7861,480.6797 " fill="none" style="stroke:#181818;stroke-width:1;"/><path d="M422,509.4844 L432,509.4844 C447,509.4844 447,480.6797 462,480.6797 L472,480.6797 " fill="none" style="stroke:#181818;stroke-width:1;"/><rect fill="#F1F1F1" height="37.6094" rx="12.5" ry="12.5" style="stroke:#181818;stroke-width:1.5;" width="181.7861" x="472" y="548.2891"/><text fill="#000000" font-family="sans-serif" font-size="14" lengthAdjust="spacing" textLength="161.7861" x="482" y="572.8223">&#31532;2&#27493;&#65292;&#26159;&#21542;&#23454;&#26045;&#24656;&#21523;&#34892;&#20026;</text><path d="M422,509.4844 L432,509.4844 C447,509.4844 447,567.0938 462,567.0938 L472,567.0938 " fill="none" style="stroke:#181818;stroke-width:1;"/><path d="M296,509.4844 L306,509.4844 C321,509.4844 321,509.4844 336,509.4844 L346,509.4844 " fill="none" style="stroke:#181818;stroke-width:1;"/><path d="M198,682.3125 L208,682.3125 C223,682.3125 223,509.4844 238,509.4844 L248,509.4844 " fill="none" style="stroke:#181818;stroke-width:1;"/><rect fill="#F1F1F1" height="37.6094" rx="12.5" ry="12.5" style="stroke:#181818;stroke-width:1.5;" width="104" x="248" y="692.3125"/><text fill="#000000" font-family="sans-serif" font-size="14" lengthAdjust="spacing" textLength="84" x="258" y="716.8457">&#20114;&#26021;&#65288;&#21306;&#20998;&#65289;</text><rect fill="#F1F1F1" height="37.6094" rx="12.5" ry="12.5" style="stroke:#181818;stroke-width:1.5;" width="62" x="402" y="692.3125"/><text fill="#000000" font-family="sans-serif" font-size="14" lengthAdjust="spacing" textLength="42" x="412" y="716.8457">&#25250;&#21163;&#32618;</text><rect fill="#F1F1F1" height="37.6094" rx="12.5" ry="12.5" style="stroke:#181818;stroke-width:1.5;" width="76" x="514" y="692.3125"/><text fill="#000000" font-family="sans-serif" font-size="14" lengthAdjust="spacing" textLength="56" x="524" y="716.8457">&#26412;&#36136;&#21306;&#21035;</text><rect fill="#F1F1F1" height="37.6094" rx="12.5" ry="12.5" style="stroke:#181818;stroke-width:1.5;" width="258" x="640" y="634.7031"/><text fill="#000000" font-family="sans-serif" font-size="14" lengthAdjust="spacing" textLength="238" x="650" y="659.2363">&#34987;&#23475;&#20154;&#12302;&#24847;&#24535;&#33258;&#30001;&#12303;&#34987;&#21093;&#22842;&#30340;&#31243;&#24230;&#19981;&#21516;</text><rect fill="#F1F1F1" height="37.6094" rx="12.5" ry="12.5" style="stroke:#181818;stroke-width:1.5;" width="132" x="948" y="605.8984"/><text fill="#000000" font-family="sans-serif" font-size="14" lengthAdjust="spacing" textLength="112" x="958" y="630.4316">&#26292;&#21147;&#19978;&#65292;&#26159;&#21542;&#21387;&#21046;</text><path d="M898,653.5078 L908,653.5078 C923,653.5078 923,624.7031 938,624.7031 L948,624.7031 " fill="none" style="stroke:#181818;stroke-width:1;"/><rect fill="#F1F1F1" height="37.6094" rx="12.5" ry="12.5" style="stroke:#181818;stroke-width:1.5;" width="132" x="948" y="663.5078"/><text fill="#000000" font-family="sans-serif" font-size="14" lengthAdjust="spacing" textLength="112" x="958" y="688.041">&#26102;&#38388;&#19978;&#65292;&#26159;&#21542;&#24403;&#22330;</text><path d="M898,653.5078 L908,653.5078 C923,653.5078 923,682.3125 938,682.3125 L948,682.3125 " fill="none" style="stroke:#181818;stroke-width:1;"/><path d="M590,711.1172 L600,711.1172 C615,711.1172 615,653.5078 630,653.5078 L640,653.5078 " fill="none" style="stroke:#181818;stroke-width:1;"/><rect fill="#F1F1F1" height="37.6094" rx="12.5" ry="12.5" style="stroke:#181818;stroke-width:1.5;" width="62" x="640" y="721.1172"/><text fill="#000000" font-family="sans-serif" font-size="14" lengthAdjust="spacing" textLength="42" x="650" y="745.6504">&#25250;&#21163;&#32618;</text><rect fill="#F1F1F1" height="37.6094" rx="12.5" ry="12.5" style="stroke:#181818;stroke-width:1.5;" width="258" x="752" y="721.1172"/><text fill="#000000" font-family="sans-serif" font-size="14" lengthAdjust="spacing" textLength="238" x="762" y="745.6504">&#23436;&#20840;&#21093;&#22842;&#65292;&#21387;&#21046;&#21453;&#25239;&#65292;&#27809;&#24471;&#36873;&#65292;&#21482;&#22909;&#32473;</text><path d="M702,739.9219 L712,739.9219 C727,739.9219 727,739.9219 742,739.9219 L752,739.9219 " fill="none" style="stroke:#181818;stroke-width:1;"/><path d="M590,711.1172 L600,711.1172 C615,711.1172 615,739.9219 630,739.9219 L640,739.9219 " fill="none" style="stroke:#181818;stroke-width:1;"/><rect fill="#F1F1F1" height="37.6094" rx="12.5" ry="12.5" style="stroke:#181818;stroke-width:1.5;" width="90" x="640" y="778.7266"/><text fill="#000000" font-family="sans-serif" font-size="14" lengthAdjust="spacing" textLength="70" x="650" y="803.2598">&#25970;&#35784;&#21202;&#32034;&#32618;</text><rect fill="#F1F1F1" height="37.6094" rx="12.5" ry="12.5" style="stroke:#181818;stroke-width:1.5;" width="272" x="780" y="778.7266"/><text fill="#000000" font-family="sans-serif" font-size="14" lengthAdjust="spacing" textLength="252" x="790" y="803.2598">&#37096;&#20998;&#21093;&#22842;&#65292;&#27809;&#21387;&#21046;&#21453;&#25239;&#65292;&#26377;&#30340;&#36873;&#65292;&#26368;&#22909;&#32473;</text><path d="M730,797.5313 L740,797.5313 C755,797.5313 755,797.5313 770,797.5313 L780,797.5313 " fill="none" style="stroke:#181818;stroke-width:1;"/><path d="M590,711.1172 L600,711.1172 C615,711.1172 615,797.5313 630,797.5313 L640,797.5313 " fill="none" style="stroke:#181818;stroke-width:1;"/><path d="M464,711.1172 L474,711.1172 C489,711.1172 489,711.1172 504,711.1172 L514,711.1172 " fill="none" style="stroke:#181818;stroke-width:1;"/><path d="M352,711.1172 L362,711.1172 C377,711.1172 377,711.1172 392,711.1172 L402,711.1172 " fill="none" style="stroke:#181818;stroke-width:1;"/><path d="M198,682.3125 L208,682.3125 C223,682.3125 223,711.1172 238,711.1172 L248,711.1172 " fill="none" style="stroke:#181818;stroke-width:1;"/><rect fill="#F1F1F1" height="37.6094" rx="12.5" ry="12.5" style="stroke:#181818;stroke-width:1.5;" width="104" x="248" y="865.1406"/><text fill="#000000" font-family="sans-serif" font-size="14" lengthAdjust="spacing" textLength="84" x="258" y="889.6738">&#29420;&#31435;&#65288;&#31454;&#21512;&#65289;</text><rect fill="#F1F1F1" height="37.6094" rx="12.5" ry="12.5" style="stroke:#181818;stroke-width:1.5;" width="62" x="402" y="836.3359"/><text fill="#000000" font-family="sans-serif" font-size="14" lengthAdjust="spacing" textLength="42" x="412" y="860.8691">&#35784;&#39575;&#32618;</text><rect fill="#F1F1F1" height="37.6094" rx="12.5" ry="12.5" style="stroke:#181818;stroke-width:1.5;" width="216" x="514" y="836.3359"/><text fill="#000000" font-family="sans-serif" font-size="14" lengthAdjust="spacing" textLength="196" x="524" y="860.8691">&#34987;&#23475;&#20154;&#22522;&#20110;&#35748;&#35782;&#38169;&#35823;&#32780;&#22788;&#20998;&#36130;&#29289;</text><path d="M464,855.1406 L474,855.1406 C489,855.1406 489,855.1406 504,855.1406 L514,855.1406 " fill="none" style="stroke:#181818;stroke-width:1;"/><path d="M352,883.9453 L362,883.9453 C377,883.9453 377,855.1406 392,855.1406 L402,855.1406 " fill="none" style="stroke:#181818;stroke-width:1;"/><rect fill="#F1F1F1" height="37.6094" rx="12.5" ry="12.5" style="stroke:#181818;stroke-width:1.5;" width="90" x="402" y="893.9453"/><text fill="#000000" font-family="sans-serif" font-size="14" lengthAdjust="spacing" textLength="70" x="412" y="918.4785">&#25970;&#35784;&#21202;&#32034;&#32618;</text><rect fill="#F1F1F1" height="37.6094" rx="12.5" ry="12.5" style="stroke:#181818;stroke-width:1.5;" width="202" x="542" y="893.9453"/><text fill="#000000" font-family="sans-serif" font-size="14" lengthAdjust="spacing" textLength="182" x="552" y="918.4785">&#34987;&#23475;&#20154;&#22522;&#20110;&#24656;&#24807;&#24515;&#29702;&#20132;&#20184;&#36130;&#29289;</text><path d="M492,912.75 L502,912.75 C517,912.75 517,912.75 532,912.75 L542,912.75 " fill="none" style="stroke:#181818;stroke-width:1;"/><path d="M352,883.9453 L362,883.9453 C377,883.9453 377,912.75 392,912.75 L402,912.75 " fill="none" style="stroke:#181818;stroke-width:1;"/><path d="M198,682.3125 L208,682.3125 C223,682.3125 223,883.9453 238,883.9453 L248,883.9453 " fill="none" style="stroke:#181818;stroke-width:1;"/><path d="M100,495.082 L110,495.082 C125,495.082 125,682.3125 140,682.3125 L150,682.3125 " fill="none" style="stroke:#181818;stroke-width:1;"/><!--SRC=[xLZhJnDP5Fy-VyNTx1VTX2hO44C8KQfaruWn2_fzQAzbT3gtcTxMD9jDYY1RMXvTULHvAGGG0LiLLh7bySSuTsRwYNzXpyoqC7rCf_jr0o6alUTtVkTvpvdXLeJoCWq9KY34Xpdk9q7oYz40HXxFDUitGkCYlXOMUOb6GsARWMm3Q9jvxX7WZ8CVAb0H8_rWNIcyrr9vxNYdJPt_ekUJBFrAErY7xnpt2wezGl03fwjZQZAZRuqenQ_caNMihqqgXmMjE0loysDBrEv1x71BMqcKLbRL_NaszKvTdj2MSjhYsDdH9CkjgWl7waY6PMOj4jJTZKFXOJuYH7fbNl8Fz_HKCLgi7S2Q_wukV3TYc7iB1EheUtOwgcN6wz2MnesA1djRK0hJTWsbiA4KNqD2j8aF3RKj1g-d7ATIAB2P1NQIhL61z2GpscvQNLcpfySIQNjxxUh7pPfJTIsfdAGR1AWSJbba3k6KzevAA-livJT87FW3F6T7oOSTdJVEZYOQq3NbqkQszODJ_PyNIY4D1R5ghXGNWBS1AP1brqiZBvoYl05HAeVJyCaBdw3OREcTkhhCNkvh-yLMmrUNTy24Wx_iqmnRE6RpdonFIyM_sM5EJuomZVTDab3MDLNKrAR-SQi-QI2lThDXvgn-FpvLLqPPyaC3xykrXlwkRte7l_JyD_Kpv7IqIGDQvL5ELjIfN1EOOV0axG0pdUkmd5DVvrbcg_uASdQJhzG5m2RPP84bnslp2iPIwoorMnaGjKNSqm-sJSrTfx3NTrbk7nhjHs9Q7PjXfrdzhnrjxlEFn8mXcjXa6mL8chQTPeKjk1CiCzaiyiK3bbfI3bCNmKsdMV9hCvNirrBse4hbU9Oj5npyTGxNrcAvIVPos_BT676c2sncIarb3IDVrc1ob18JXcXcXsqUQyKtJjOQp627SJ2w3UKvjsaOgJ4B_RSuPfbLbnCrPg4hqdlGvb1eRNULPPBrXGP7IZlPneK-hw8rM_NSXfuVByszqVDvFJ79DiR0jmRZrJt0Ech7iStTmh0MAwlnLlMcx3ONO0zNFhWZy46P3w4_m9vdI8nYynD2lRp_ML0cKIdW8oAHaIW4XwaX1-cV1ZR0oyza7720bwKLS536M6h6R09iwBWBE5x14jYBGIUdBM456exAOT49QWahKEV0R4799EB4zdDVNs-lprT1nh4eakSEM4jeGZbFPTsxvygElku0ZpoBcoMpOpkQvyeEjPuveF5QSaO8IaJ6BTGDeVk2X6lFBoXQDDkKoY2J9EB74dNAZMGc7Q4-8b7hQ4W4J0qhN8woRn85Ce58lEYJXL0bq0ia9I6UaeROXp8Eyp9ldFmNjTj3HAPkNTCg5wLGLkfsKLfayv4Gt1RgLEsofXETKHq91w5WG6fFPhEXurQe0CPXUxzN6xWBGt1852B3pXFBfbzjxVcmG6jpus3c0Q7kbioe_75UQY4gFn_0zDmOx_SB0UUMhfgaRinFuAP5RDSNlljnF_yKHrqkCH711Pa4R1teSeKg6gQTC8a8L8ZXstxRTQYRnho8Mmta8WIe1UzA7H9W0HgZkvMUAcynWpmI7NgA_GQzKtRu6AnTBBV86nC8t22JchWn6tblETqNWxpwuZQ_grMzxBeYEFZJVQty977v6dtv6dtv6dtv6dtv6dtv6lt_VOr-QFmd-L7_VHJ3SiHul6ZtT5ply7fkNXdWANf0OgYz4rrlx_9wkxoTo3SmY0pnLUvA_s-3A4AYy7I50l3i8Gj3KMCXN-NkyJ4U_Hw5zHp2NSZuTcMm_oeQk5ivH7Ubc20JAGGhcRltkDy2eLy97GWJQe8xlMsz0aK3M0QtqED-xWv-maT52gf-4X2aO1TwDDZNTfEx3wixoWV143mi-M2dKpaEie5_0G00]--></g></svg>