<svg xmlns="http://www.w3.org/2000/svg" xmlns:xlink="http://www.w3.org/1999/xlink" contentStyleType="text/css" height="1814px" preserveAspectRatio="none" style="width:1055px;height:1814px;background:#FFFFFF;" version="1.1" viewBox="0 0 1055 1814" width="1055px" zoomAndPan="magnify"><title>&#36130;&#20135;&#29359;&#32618; - &#36130;&#20135;&#24615;&#21033;&#30410; - &#23384;&#27454;&#38382;&#39064;</title><defs/><g><text fill="#000000" font-family="sans-serif" font-size="14" font-weight="bold" lengthAdjust="spacing" textLength="212.5703" x="419.9355" y="34.5332">&#36130;&#20135;&#29359;&#32618; - &#36130;&#20135;&#24615;&#21033;&#30410; - &#23384;&#27454;&#38382;&#39064;</text><rect fill="#F1F1F1" height="37.6094" rx="12.5" ry="12.5" style="stroke:#181818;stroke-width:1.5;" width="48" x="10" y="92.5547"/><text fill="#000000" font-family="sans-serif" font-size="14" lengthAdjust="spacing" textLength="28" x="20" y="117.0879">&#20538;&#26435;</text><rect fill="#F1F1F1" height="37.6094" rx="12.5" ry="12.5" style="stroke:#181818;stroke-width:1.5;" width="76" x="108" y="61.1797"/><text fill="#000000" font-family="sans-serif" font-size="14" lengthAdjust="spacing" textLength="56" x="118" y="85.7129">&#26222;&#36890;&#20538;&#26435;</text><rect fill="#F1F1F1" height="42.75" rx="12.5" ry="12.5" style="stroke:#181818;stroke-width:1.5;" width="156.8896" x="234" y="58.6094"/><text fill="#000000" font-family="sans-serif" font-size="14" lengthAdjust="spacing" textLength="112" x="244" y="88.2832">&#26080;&#27861;&#33258;&#30001;&#36716;&#31227;&#21344;&#26377;</text><path d="M372.4506,79.1105 L379.5876,71.974 C380.157,71.4047 380.157,70.4813 379.5876,69.912 C379.0177,69.342 378.0949,69.342 377.5256,69.912 L370.3885,77.0485 L363.252,69.912 C362.6826,69.342 361.7586,69.342 361.1899,69.912 C360.62,70.4813 360.62,71.4047 361.1899,71.974 L368.3264,79.1105 L361.1736,86.264 C360.6036,86.8339 360.6036,87.7567 361.1736,88.326 C361.4582,88.6107 361.8316,88.753 362.2049,88.753 C362.5782,88.753 362.9516,88.6107 363.2362,88.326 L370.3891,81.1726 L377.5256,88.3091 C377.8102,88.5938 378.1836,88.7361 378.5569,88.7361 C378.9302,88.7361 379.303,88.5938 379.5882,88.3091 C380.1576,87.7392 380.1576,86.8164 379.5882,86.247 L372.4506,79.1105 " fill="#FE0000" style="stroke:;stroke-width:0;stroke-dasharray:;"/><path d="M184,79.9844 L194,79.9844 C209,79.9844 209,79.9844 224,79.9844 L234,79.9844 " fill="none" style="stroke:#181818;stroke-width:1;"/><path d="M58,111.3594 L68,111.3594 C83,111.3594 83,79.9844 98,79.9844 L108,79.9844 " fill="none" style="stroke:#181818;stroke-width:1;"/><rect fill="#F1F1F1" height="37.6094" rx="12.5" ry="12.5" style="stroke:#181818;stroke-width:1.5;" width="76" x="108" y="123.9297"/><text fill="#000000" font-family="sans-serif" font-size="14" lengthAdjust="spacing" textLength="56" x="118" y="148.4629">&#23384;&#27454;&#20538;&#26435;</text><rect fill="#F1F1F1" height="42.75" rx="12.5" ry="12.5" style="stroke:#181818;stroke-width:1.5;" width="100.8896" x="234" y="121.3594"/><text fill="#000000" font-family="sans-serif" font-size="14" lengthAdjust="spacing" textLength="56" x="244" y="151.0332">&#36716;&#31227;&#21344;&#26377;</text><path d="M323.9907,132.1615 C323.1793,131.6353 322.0961,131.8663 321.5705,132.6771 L311.7646,147.7919 L306.9825,143.3702 C306.2726,142.714 305.166,142.7571 304.5097,143.467 C303.8535,144.1764 303.8966,145.2841 304.6066,145.9398 L310.8856,151.7451 C311.0658,151.9003 311.0658,151.9003 311.1492,151.9545 C311.4432,152.1459 311.7734,152.2369 312.1001,152.2369 C312.6729,152.2369 313.2346,151.9557 313.5701,151.4389 L324.5064,134.5817 C325.0326,133.7709 324.8016,132.687 323.9907,132.1615 " fill="#FE0000" style="stroke:;stroke-width:0;stroke-dasharray:;"/><rect fill="#F1F1F1" height="37.6094" rx="12.5" ry="12.5" style="stroke:#181818;stroke-width:1.5;" width="132" x="384.8896" y="123.9297"/><text fill="#000000" font-family="sans-serif" font-size="14" lengthAdjust="spacing" textLength="112" x="394.8896" y="148.4629">&#21487;&#20197;&#24403;&#25104;&#26377;&#24418;&#36130;&#29289;</text><path d="M334.8896,142.7344 L344.8896,142.7344 C359.8896,142.7344 359.8896,142.7344 374.8896,142.7344 L384.8896,142.7344 " fill="none" style="stroke:#181818;stroke-width:1;"/><path d="M184,142.7344 L194,142.7344 C209,142.7344 209,142.7344 224,142.7344 L234,142.7344 " fill="none" style="stroke:#181818;stroke-width:1;"/><path d="M58,111.3594 L68,111.3594 C83,111.3594 83,142.7344 98,142.7344 L108,142.7344 " fill="none" style="stroke:#181818;stroke-width:1;"/><rect fill="#F1F1F1" height="37.6094" rx="12.5" ry="12.5" style="stroke:#181818;stroke-width:1.5;" width="90" x="10" y="249.4297"/><text fill="#000000" font-family="sans-serif" font-size="14" lengthAdjust="spacing" textLength="70" x="20" y="273.9629">&#21345;&#20027;&#21644;&#38134;&#34892;</text><rect fill="#F1F1F1" height="37.6094" rx="12.5" ry="12.5" style="stroke:#181818;stroke-width:1.5;" width="48" x="150" y="218.0547"/><text fill="#000000" font-family="sans-serif" font-size="14" lengthAdjust="spacing" textLength="28" x="160" y="242.5879">&#21345;&#20027;</text><rect fill="#F1F1F1" height="37.6094" rx="12.5" ry="12.5" style="stroke:#181818;stroke-width:1.5;" width="84.1758" x="248" y="218.0547"/><text fill="#000000" font-family="sans-serif" font-size="14" lengthAdjust="spacing" textLength="64.1758" x="258" y="242.5879">&#25152;&#26377;+&#21344;&#26377;</text><rect fill="#F1F1F1" height="42.75" rx="12.5" ry="12.5" style="stroke:#181818;stroke-width:1.5;" width="156.8896" x="382.1758" y="184.1094"/><text fill="#000000" font-family="sans-serif" font-size="14" lengthAdjust="spacing" textLength="112" x="392.1758" y="213.7832">&#23384;&#27454;&#20538;&#26435;&#65288;&#36164;&#37329;&#65289;</text><path d="M528.1665,194.9115 C527.3551,194.3853 526.2718,194.6163 525.7463,195.4271 L515.9404,210.5419 L511.1583,206.1202 C510.4483,205.464 509.3418,205.5071 508.6855,206.217 C508.0293,206.9264 508.0724,208.0341 508.7823,208.6898 L515.0613,214.4951 C515.2416,214.6503 515.2416,214.6503 515.325,214.7045 C515.619,214.8959 515.9492,214.9869 516.2758,214.9869 C516.8487,214.9869 517.4104,214.7057 517.7458,214.1889 L528.6822,197.3317 C529.2083,196.5209 528.9773,195.437 528.1665,194.9115 " fill="#FE0000" style="stroke:;stroke-width:0;stroke-dasharray:;"/><path d="M332.1758,236.8594 L342.1758,236.8594 C357.1758,236.8594 357.1758,205.4844 372.1758,205.4844 L382.1758,205.4844 " fill="none" style="stroke:#181818;stroke-width:1;"/><rect fill="#F1F1F1" height="42.75" rx="12.5" ry="12.5" style="stroke:#181818;stroke-width:1.5;" width="142.8896" x="382.1758" y="246.8594"/><text fill="#000000" font-family="sans-serif" font-size="14" lengthAdjust="spacing" textLength="98" x="392.1758" y="276.5332">&#23384;&#27454;&#25351;&#21521;&#30340;&#29616;&#37329;</text><path d="M506.6263,267.3605 L513.7634,260.224 C514.3328,259.6547 514.3328,258.7313 513.7634,258.162 C513.1935,257.592 512.2707,257.592 511.7013,258.162 L504.5643,265.2985 L497.4278,258.162 C496.8584,257.592 495.9344,257.592 495.3657,258.162 C494.7958,258.7313 494.7958,259.6547 495.3657,260.224 L502.5022,267.3605 L495.3493,274.514 C494.7794,275.0839 494.7794,276.0067 495.3493,276.576 C495.634,276.8607 496.0073,277.003 496.3807,277.003 C496.754,277.003 497.1273,276.8607 497.412,276.576 L504.5648,269.4226 L511.7013,276.5591 C511.986,276.8438 512.3593,276.9861 512.7327,276.9861 C513.106,276.9861 513.4788,276.8438 513.764,276.5591 C514.3333,275.9892 514.3333,275.0664 513.764,274.497 L506.6263,267.3605 " fill="#FE0000" style="stroke:;stroke-width:0;stroke-dasharray:;"/><path d="M332.1758,236.8594 L342.1758,236.8594 C357.1758,236.8594 357.1758,268.2344 372.1758,268.2344 L382.1758,268.2344 " fill="none" style="stroke:#181818;stroke-width:1;"/><path d="M198,236.8594 L208,236.8594 C223,236.8594 223,236.8594 238,236.8594 L248,236.8594 " fill="none" style="stroke:#181818;stroke-width:1;"/><path d="M100,268.2344 L110,268.2344 C125,268.2344 125,236.8594 140,236.8594 L150,236.8594 " fill="none" style="stroke:#181818;stroke-width:1;"/><rect fill="#F1F1F1" height="37.6094" rx="12.5" ry="12.5" style="stroke:#181818;stroke-width:1.5;" width="48" x="150" y="312.1797"/><text fill="#000000" font-family="sans-serif" font-size="14" lengthAdjust="spacing" textLength="28" x="160" y="336.7129">&#38134;&#34892;</text><rect fill="#F1F1F1" height="37.6094" rx="12.5" ry="12.5" style="stroke:#181818;stroke-width:1.5;" width="84.1758" x="248" y="312.1797"/><text fill="#000000" font-family="sans-serif" font-size="14" lengthAdjust="spacing" textLength="64.1758" x="258" y="336.7129">&#25152;&#26377;+&#21344;&#26377;</text><rect fill="#F1F1F1" height="42.75" rx="12.5" ry="12.5" style="stroke:#181818;stroke-width:1.5;" width="142.8896" x="382.1758" y="309.6094"/><text fill="#000000" font-family="sans-serif" font-size="14" lengthAdjust="spacing" textLength="98" x="392.1758" y="339.2832">&#23384;&#27454;&#25351;&#21521;&#30340;&#29616;&#37329;</text><path d="M514.1665,320.4115 C513.3551,319.8853 512.2718,320.1163 511.7463,320.9271 L501.9404,336.0419 L497.1583,331.6202 C496.4483,330.964 495.3418,331.0071 494.6855,331.717 C494.0293,332.4264 494.0724,333.5341 494.7823,334.1898 L501.0613,339.9951 C501.2416,340.1503 501.2416,340.1503 501.325,340.2045 C501.619,340.3959 501.9492,340.4869 502.2758,340.4869 C502.8487,340.4869 503.4104,340.2057 503.7458,339.6889 L514.6822,322.8317 C515.2083,322.0209 514.9773,320.937 514.1665,320.4115 " fill="#FE0000" style="stroke:;stroke-width:0;stroke-dasharray:;"/><path d="M332.1758,330.9844 L342.1758,330.9844 C357.1758,330.9844 357.1758,330.9844 372.1758,330.9844 L382.1758,330.9844 " fill="none" style="stroke:#181818;stroke-width:1;"/><path d="M198,330.9844 L208,330.9844 C223,330.9844 223,330.9844 238,330.9844 L248,330.9844 " fill="none" style="stroke:#181818;stroke-width:1;"/><path d="M100,268.2344 L110,268.2344 C125,268.2344 125,330.9844 140,330.9844 L150,330.9844 " fill="none" style="stroke:#181818;stroke-width:1;"/><rect fill="#F1F1F1" height="37.6094" rx="12.5" ry="12.5" style="stroke:#181818;stroke-width:1.5;" width="48" x="10" y="372.3594"/><text fill="#000000" font-family="sans-serif" font-size="14" lengthAdjust="spacing" textLength="28" x="20" y="396.8926">&#21345;&#20027;</text><rect fill="#F1F1F1" height="37.6094" rx="12.5" ry="12.5" style="stroke:#181818;stroke-width:1.5;" width="48" x="108" y="372.3594"/><text fill="#000000" font-family="sans-serif" font-size="14" lengthAdjust="spacing" textLength="28" x="118" y="396.8926">&#21344;&#26377;</text><rect fill="#F1F1F1" height="37.6094" rx="12.5" ry="12.5" style="stroke:#181818;stroke-width:1.5;" width="160" x="206" y="372.3594"/><text fill="#000000" font-family="sans-serif" font-size="14" lengthAdjust="spacing" textLength="140" x="216" y="396.8926">&#23384;&#27454;&#20538;&#26435;&#65288;&#21345;&#37324;&#36164;&#37329;&#65289;</text><rect fill="#F1F1F1" height="37.6094" rx="12.5" ry="12.5" style="stroke:#181818;stroke-width:1.5;" width="118" x="416" y="372.3594"/><text fill="#000000" font-family="sans-serif" font-size="14" lengthAdjust="spacing" textLength="98" x="426" y="396.8926">&#23384;&#27454;&#25351;&#21521;&#30340;&#29616;&#37329;</text><rect fill="#F1F1F1" height="37.6094" rx="12.5" ry="12.5" style="stroke:#181818;stroke-width:1.5;" width="84.1758" x="584" y="372.3594"/><text fill="#000000" font-family="sans-serif" font-size="14" lengthAdjust="spacing" textLength="64.1758" x="594" y="396.8926">&#25152;&#26377;+&#21344;&#26377;</text><rect fill="#F1F1F1" height="37.6094" rx="12.5" ry="12.5" style="stroke:#181818;stroke-width:1.5;" width="48" x="718.1758" y="372.3594"/><text fill="#000000" font-family="sans-serif" font-size="14" lengthAdjust="spacing" textLength="28" x="728.1758" y="396.8926">&#38134;&#34892;</text><path d="M668.1758,391.1641 L678.1758,391.1641 C693.1758,391.1641 693.1758,391.1641 708.1758,391.1641 L718.1758,391.1641 " fill="none" style="stroke:#181818;stroke-width:1;"/><path d="M534,391.1641 L544,391.1641 C559,391.1641 559,391.1641 574,391.1641 L584,391.1641 " fill="none" style="stroke:#181818;stroke-width:1;"/><path d="M366,391.1641 L376,391.1641 C391,391.1641 391,391.1641 406,391.1641 L416,391.1641 " fill="none" style="stroke:#181818;stroke-width:1;"/><path d="M156,391.1641 L166,391.1641 C181,391.1641 181,391.1641 196,391.1641 L206,391.1641 " fill="none" style="stroke:#181818;stroke-width:1;"/><path d="M58,391.1641 L68,391.1641 C83,391.1641 83,391.1641 98,391.1641 L108,391.1641 " fill="none" style="stroke:#181818;stroke-width:1;"/><rect fill="#F1F1F1" height="37.6094" rx="12.5" ry="12.5" style="stroke:#181818;stroke-width:1.5;" width="76" x="10" y="1092.4766"/><text fill="#000000" font-family="sans-serif" font-size="14" lengthAdjust="spacing" textLength="56" x="20" y="1117.0098">&#23384;&#27454;&#38382;&#39064;</text><rect fill="#90EE90" height="37.6094" rx="12.5" ry="12.5" style="stroke:#181818;stroke-width:1.5;" width="79.8896" x="136" y="429.9688"/><text fill="#000000" font-family="sans-serif" font-size="14" lengthAdjust="spacing" textLength="56" x="146" y="454.502">&#26680;&#24515;&#38382;&#39064;</text><rect fill="#F1F1F1" height="37.6094" rx="12.5" ry="12.5" style="stroke:#181818;stroke-width:1.5;" width="76" x="265.8896" y="429.9688"/><text fill="#000000" font-family="sans-serif" font-size="14" lengthAdjust="spacing" textLength="56" x="275.8896" y="454.502">&#26576;&#20010;&#34892;&#20026;</text><rect fill="#F1F1F1" height="37.6094" rx="12.5" ry="12.5" style="stroke:#181818;stroke-width:1.5;" width="104" x="391.8896" y="429.9688"/><text fill="#000000" font-family="sans-serif" font-size="14" lengthAdjust="spacing" textLength="84" x="401.8896" y="454.502">&#26159;&#21542;&#26500;&#25104;&#29359;&#32618;</text><path d="M341.8896,448.7734 L351.8896,448.7734 C366.8896,448.7734 366.8896,448.7734 381.8896,448.7734 L391.8896,448.7734 " fill="none" style="stroke:#181818;stroke-width:1;"/><path d="M215.8896,448.7734 L225.8896,448.7734 C240.8896,448.7734 240.8896,448.7734 255.8896,448.7734 L265.8896,448.7734 " fill="none" style="stroke:#181818;stroke-width:1;"/><path d="M86,1111.2813 L96,1111.2813 C111,1111.2813 111,448.7734 126,448.7734 L136,448.7734 " fill="none" style="stroke:#181818;stroke-width:1;"/><rect fill="#F1F1F1" height="37.6094" rx="12.5" ry="12.5" style="stroke:#181818;stroke-width:1.5;" width="76" x="136" y="660.4063"/><text fill="#000000" font-family="sans-serif" font-size="14" lengthAdjust="spacing" textLength="56" x="146" y="684.9395">&#21512;&#27861;&#25910;&#20837;</text><rect fill="#F1F1F1" height="37.6094" rx="12.5" ry="12.5" style="stroke:#181818;stroke-width:1.5;" width="160" x="262" y="631.6016"/><text fill="#000000" font-family="sans-serif" font-size="14" lengthAdjust="spacing" textLength="140" x="272" y="656.1348">&#20107;&#23454;&#21344;&#26377;&#35828;&#65288;&#22810;&#25968;&#35828;&#65289;</text><rect fill="#90EE90" height="37.6094" rx="12.5" ry="12.5" style="stroke:#181818;stroke-width:1.5;" width="51.8896" x="472" y="487.5781"/><text fill="#000000" font-family="sans-serif" font-size="14" lengthAdjust="spacing" textLength="28" x="482" y="512.1113">&#25488;&#21345;</text><rect fill="#F1F1F1" height="37.6094" rx="12.5" ry="12.5" style="stroke:#FF6347;stroke-width:1.5;" width="65.8896" x="573.8896" y="487.5781"/><text fill="#000000" font-family="sans-serif" font-size="14" lengthAdjust="spacing" textLength="42" x="583.8896" y="512.1113">&#30423;&#31363;&#32618;</text><path d="M523.8896,506.3828 L533.8896,506.3828 C548.8896,506.3828 548.8896,506.3828 563.8896,506.3828 L573.8896,506.3828 " fill="none" style="stroke:#181818;stroke-width:1;"/><path d="M422,650.4063 L432,650.4063 C447,650.4063 447,506.3828 462,506.3828 L472,506.3828 " fill="none" style="stroke:#181818;stroke-width:1;"/><rect fill="#90EE90" height="37.6094" rx="12.5" ry="12.5" style="stroke:#181818;stroke-width:1.5;" width="93.8896" x="472" y="545.1875"/><text fill="#000000" font-family="sans-serif" font-size="14" lengthAdjust="spacing" textLength="70" x="482" y="569.7207">&#25488;&#21345;&#21518;&#36716;&#36134;</text><rect fill="#F1F1F1" height="37.6094" rx="12.5" ry="12.5" style="stroke:#181818;stroke-width:1.5;" width="90" x="615.8896" y="545.1875"/><text fill="#000000" font-family="sans-serif" font-size="14" lengthAdjust="spacing" textLength="70" x="625.8896" y="569.7207">&#19981;&#26500;&#25104;&#29359;&#32618;</text><path d="M565.8896,563.9922 L575.8896,563.9922 C590.8896,563.9922 590.8896,563.9922 605.8896,563.9922 L615.8896,563.9922 " fill="none" style="stroke:#181818;stroke-width:1;"/><path d="M422,650.4063 L432,650.4063 C447,650.4063 447,563.9922 462,563.9922 L472,563.9922 " fill="none" style="stroke:#181818;stroke-width:1;"/><rect fill="#90EE90" height="37.6094" rx="12.5" ry="12.5" style="stroke:#181818;stroke-width:1.5;" width="93.8896" x="472" y="689.2109"/><text fill="#000000" font-family="sans-serif" font-size="14" lengthAdjust="spacing" textLength="70" x="482" y="713.7441">&#25488;&#21345;&#21518;&#21462;&#27454;</text><rect fill="#F1F1F1" height="37.6094" rx="12.5" ry="12.5" style="stroke:#181818;stroke-width:1.5;" width="160" x="615.8896" y="631.6016"/><text fill="#000000" font-family="sans-serif" font-size="14" lengthAdjust="spacing" textLength="140" x="625.8896" y="656.1348">&#20107;&#23454;&#21344;&#26377;&#35828;&#65288;&#22810;&#25968;&#35828;&#65289;</text><rect fill="#F1F1F1" height="37.6094" rx="12.5" ry="12.5" style="stroke:#181818;stroke-width:1.5;" width="76" x="825.8896" y="602.7969"/><text fill="#000000" font-family="sans-serif" font-size="14" lengthAdjust="spacing" textLength="56" x="835.8896" y="627.3301">&#26588;&#21488;&#21462;&#27454;</text><rect fill="#F1F1F1" height="37.6094" rx="12.5" ry="12.5" style="stroke:#FF6347;stroke-width:1.5;" width="65.8896" x="951.8896" y="602.7969"/><text fill="#000000" font-family="sans-serif" font-size="14" lengthAdjust="spacing" textLength="42" x="961.8896" y="627.3301">&#35784;&#39575;&#32618;</text><path d="M901.8896,621.6016 L911.8896,621.6016 C926.8896,621.6016 926.8896,621.6016 941.8896,621.6016 L951.8896,621.6016 " fill="none" style="stroke:#181818;stroke-width:1;"/><path d="M775.8896,650.4063 L785.8896,650.4063 C800.8896,650.4063 800.8896,621.6016 815.8896,621.6016 L825.8896,621.6016 " fill="none" style="stroke:#181818;stroke-width:1;"/><rect fill="#F1F1F1" height="37.6094" rx="12.5" ry="12.5" style="stroke:#181818;stroke-width:1.5;" width="77.5518" x="825.8896" y="660.4063"/><text fill="#000000" font-family="sans-serif" font-size="14" lengthAdjust="spacing" textLength="57.5518" x="835.8896" y="684.9395">ATM&#21462;&#27454;</text><rect fill="#F1F1F1" height="37.6094" rx="12.5" ry="12.5" style="stroke:#FF6347;stroke-width:1.5;" width="65.8896" x="953.4414" y="660.4063"/><text fill="#000000" font-family="sans-serif" font-size="14" lengthAdjust="spacing" textLength="42" x="963.4414" y="684.9395">&#30423;&#31363;&#32618;</text><path d="M903.4414,679.2109 L913.4414,679.2109 C928.4414,679.2109 928.4414,679.2109 943.4414,679.2109 L953.4414,679.2109 " fill="none" style="stroke:#181818;stroke-width:1;"/><path d="M775.8896,650.4063 L785.8896,650.4063 C800.8896,650.4063 800.8896,679.2109 815.8896,679.2109 L825.8896,679.2109 " fill="none" style="stroke:#181818;stroke-width:1;"/><path d="M565.8896,708.0156 L575.8896,708.0156 C590.8896,708.0156 590.8896,650.4063 605.8896,650.4063 L615.8896,650.4063 " fill="none" style="stroke:#181818;stroke-width:1;"/><rect fill="#F1F1F1" height="37.6094" rx="12.5" ry="12.5" style="stroke:#181818;stroke-width:1.5;" width="160" x="615.8896" y="746.8203"/><text fill="#000000" font-family="sans-serif" font-size="14" lengthAdjust="spacing" textLength="140" x="625.8896" y="771.3535">&#27861;&#24459;&#21344;&#26377;&#35828;&#65288;&#23569;&#25968;&#35828;&#65289;</text><rect fill="#F1F1F1" height="37.6094" rx="12.5" ry="12.5" style="stroke:#181818;stroke-width:1.5;" width="90" x="825.8896" y="746.8203"/><text fill="#000000" font-family="sans-serif" font-size="14" lengthAdjust="spacing" textLength="70" x="835.8896" y="771.3535">&#19981;&#26500;&#25104;&#29359;&#32618;</text><rect fill="#F1F1F1" height="37.6094" rx="12.5" ry="12.5" style="stroke:#181818;stroke-width:1.5;" width="76" x="965.8896" y="718.0156"/><text fill="#000000" font-family="sans-serif" font-size="14" lengthAdjust="spacing" textLength="56" x="975.8896" y="742.5488">&#26588;&#21488;&#21462;&#27454;</text><path d="M915.8896,765.625 L925.8896,765.625 C940.8896,765.625 940.8896,736.8203 955.8896,736.8203 L965.8896,736.8203 " fill="none" style="stroke:#181818;stroke-width:1;"/><rect fill="#F1F1F1" height="37.6094" rx="12.5" ry="12.5" style="stroke:#181818;stroke-width:1.5;" width="77.5518" x="965.8896" y="775.625"/><text fill="#000000" font-family="sans-serif" font-size="14" lengthAdjust="spacing" textLength="57.5518" x="975.8896" y="800.1582">ATM&#21462;&#27454;</text><path d="M915.8896,765.625 L925.8896,765.625 C940.8896,765.625 940.8896,794.4297 955.8896,794.4297 L965.8896,794.4297 " fill="none" style="stroke:#181818;stroke-width:1;"/><path d="M775.8896,765.625 L785.8896,765.625 C800.8896,765.625 800.8896,765.625 815.8896,765.625 L825.8896,765.625 " fill="none" style="stroke:#181818;stroke-width:1;"/><path d="M565.8896,708.0156 L575.8896,708.0156 C590.8896,708.0156 590.8896,765.625 605.8896,765.625 L615.8896,765.625 " fill="none" style="stroke:#181818;stroke-width:1;"/><path d="M422,650.4063 L432,650.4063 C447,650.4063 447,708.0156 462,708.0156 L472,708.0156 " fill="none" style="stroke:#181818;stroke-width:1;"/><path d="M212,679.2109 L222,679.2109 C237,679.2109 237,650.4063 252,650.4063 L262,650.4063 " fill="none" style="stroke:#181818;stroke-width:1;"/><rect fill="#F1F1F1" height="37.6094" rx="12.5" ry="12.5" style="stroke:#181818;stroke-width:1.5;" width="90" x="262" y="833.2344"/><text fill="#000000" font-family="sans-serif" font-size="14" lengthAdjust="spacing" textLength="70" x="272" y="857.7676">&#27861;&#24459;&#21344;&#26377;&#35828;</text><rect fill="#90EE90" height="37.6094" rx="12.5" ry="12.5" style="stroke:#181818;stroke-width:1.5;" width="205.8896" x="402" y="833.2344"/><text fill="#000000" font-family="sans-serif" font-size="14" lengthAdjust="spacing" textLength="182" x="412" y="857.7676">&#25488;&#21345;&#12289;&#36716;&#36134;&#12289;&#21462;&#27454;&#19968;&#20307;&#21270;&#30475;&#24453;</text><rect fill="#F1F1F1" height="37.6094" rx="12.5" ry="12.5" style="stroke:#FF6347;stroke-width:1.5;" width="65.8896" x="657.8896" y="833.2344"/><text fill="#000000" font-family="sans-serif" font-size="14" lengthAdjust="spacing" textLength="42" x="667.8896" y="857.7676">&#20405;&#21344;&#32618;</text><path d="M607.8896,852.0391 L617.8896,852.0391 C632.8896,852.0391 632.8896,852.0391 647.8896,852.0391 L657.8896,852.0391 " fill="none" style="stroke:#181818;stroke-width:1;"/><path d="M352,852.0391 L362,852.0391 C377,852.0391 377,852.0391 392,852.0391 L402,852.0391 " fill="none" style="stroke:#181818;stroke-width:1;"/><path d="M212,679.2109 L222,679.2109 C237,679.2109 237,852.0391 252,852.0391 L262,852.0391 " fill="none" style="stroke:#181818;stroke-width:1;"/><path d="M86,1111.2813 L96,1111.2813 C111,1111.2813 111,679.2109 126,679.2109 L136,679.2109 " fill="none" style="stroke:#181818;stroke-width:1;"/><rect fill="#F1F1F1" height="37.6094" rx="12.5" ry="12.5" style="stroke:#181818;stroke-width:1.5;" width="133.9551" x="136" y="1006.0625"/><text fill="#000000" font-family="sans-serif" font-size="14" lengthAdjust="spacing" textLength="113.9551" x="146" y="1030.5957">&#38750;&#27861;&#25910;&#20837; + &#38750;&#20849;&#29359;</text><rect fill="#F1F1F1" height="37.6094" rx="12.5" ry="12.5" style="stroke:#181818;stroke-width:1.5;" width="146" x="319.9551" y="890.8438"/><text fill="#000000" font-family="sans-serif" font-size="14" lengthAdjust="spacing" textLength="126" x="329.9551" y="915.377">&#22810;&#25968;&#35828;&#65288;&#21496;&#27861;&#35299;&#37322;&#65289;</text><rect fill="#90EE90" height="37.6094" rx="12.5" ry="12.5" style="stroke:#181818;stroke-width:1.5;" width="205.8896" x="515.9551" y="890.8438"/><text fill="#000000" font-family="sans-serif" font-size="14" lengthAdjust="spacing" textLength="182" x="525.9551" y="915.377">&#25488;&#21345;&#12289;&#36716;&#36134;&#12289;&#21462;&#27454;&#19968;&#20307;&#21270;&#30475;&#24453;</text><rect fill="#F1F1F1" height="37.6094" rx="12.5" ry="12.5" style="stroke:#FF6347;stroke-width:1.5;" width="65.8896" x="771.8447" y="890.8438"/><text fill="#000000" font-family="sans-serif" font-size="14" lengthAdjust="spacing" textLength="42" x="781.8447" y="915.377">&#30423;&#31363;&#32618;</text><path d="M721.8447,909.6484 L731.8447,909.6484 C746.8447,909.6484 746.8447,909.6484 761.8447,909.6484 L771.8447,909.6484 " fill="none" style="stroke:#181818;stroke-width:1;"/><path d="M465.9551,909.6484 L475.9551,909.6484 C490.9551,909.6484 490.9551,909.6484 505.9551,909.6484 L515.9551,909.6484 " fill="none" style="stroke:#181818;stroke-width:1;"/><path d="M269.9551,1024.8672 L279.9551,1024.8672 C294.9551,1024.8672 294.9551,909.6484 309.9551,909.6484 L319.9551,909.6484 " fill="none" style="stroke:#181818;stroke-width:1;"/><rect fill="#F1F1F1" height="37.6094" rx="12.5" ry="12.5" style="stroke:#181818;stroke-width:1.5;" width="62" x="319.9551" y="1034.8672"/><text fill="#000000" font-family="sans-serif" font-size="14" lengthAdjust="spacing" textLength="42" x="329.9551" y="1059.4004">&#23569;&#25968;&#35828;</text><rect fill="#90EE90" height="37.6094" rx="12.5" ry="12.5" style="stroke:#181818;stroke-width:1.5;" width="51.8896" x="431.9551" y="948.4531"/><text fill="#000000" font-family="sans-serif" font-size="14" lengthAdjust="spacing" textLength="28" x="441.9551" y="972.9863">&#25488;&#21345;</text><rect fill="#F1F1F1" height="37.6094" rx="12.5" ry="12.5" style="stroke:#181818;stroke-width:1.5;" width="90" x="533.8447" y="948.4531"/><text fill="#000000" font-family="sans-serif" font-size="14" lengthAdjust="spacing" textLength="70" x="543.8447" y="972.9863">&#19981;&#26500;&#25104;&#29359;&#32618;</text><path d="M483.8447,967.2578 L493.8447,967.2578 C508.8447,967.2578 508.8447,967.2578 523.8447,967.2578 L533.8447,967.2578 " fill="none" style="stroke:#181818;stroke-width:1;"/><path d="M381.9551,1053.6719 L391.9551,1053.6719 C406.9551,1053.6719 406.9551,967.2578 421.9551,967.2578 L431.9551,967.2578 " fill="none" style="stroke:#181818;stroke-width:1;"/><rect fill="#90EE90" height="37.6094" rx="12.5" ry="12.5" style="stroke:#181818;stroke-width:1.5;" width="93.8896" x="431.9551" y="1006.0625"/><text fill="#000000" font-family="sans-serif" font-size="14" lengthAdjust="spacing" textLength="70" x="441.9551" y="1030.5957">&#25488;&#21345;&#21518;&#36716;&#36134;</text><rect fill="#F1F1F1" height="37.6094" rx="12.5" ry="12.5" style="stroke:#181818;stroke-width:1.5;" width="90" x="575.8447" y="1006.0625"/><text fill="#000000" font-family="sans-serif" font-size="14" lengthAdjust="spacing" textLength="70" x="585.8447" y="1030.5957">&#19981;&#26500;&#25104;&#29359;&#32618;</text><path d="M525.8447,1024.8672 L535.8447,1024.8672 C550.8447,1024.8672 550.8447,1024.8672 565.8447,1024.8672 L575.8447,1024.8672 " fill="none" style="stroke:#181818;stroke-width:1;"/><path d="M381.9551,1053.6719 L391.9551,1053.6719 C406.9551,1053.6719 406.9551,1024.8672 421.9551,1024.8672 L431.9551,1024.8672 " fill="none" style="stroke:#181818;stroke-width:1;"/><rect fill="#90EE90" height="37.6094" rx="12.5" ry="12.5" style="stroke:#181818;stroke-width:1.5;" width="93.8896" x="431.9551" y="1092.4766"/><text fill="#000000" font-family="sans-serif" font-size="14" lengthAdjust="spacing" textLength="70" x="441.9551" y="1117.0098">&#25488;&#21345;&#21518;&#21462;&#27454;</text><rect fill="#F1F1F1" height="37.6094" rx="12.5" ry="12.5" style="stroke:#181818;stroke-width:1.5;" width="76" x="575.8447" y="1063.6719"/><text fill="#000000" font-family="sans-serif" font-size="14" lengthAdjust="spacing" textLength="56" x="585.8447" y="1088.2051">&#22810;&#25968;&#24847;&#35265;</text><rect fill="#F1F1F1" height="37.6094" rx="12.5" ry="12.5" style="stroke:#FF6347;stroke-width:1.5;" width="149.8896" x="701.8447" y="1063.6719"/><text fill="#000000" font-family="sans-serif" font-size="14" lengthAdjust="spacing" textLength="126" x="711.8447" y="1088.2051">&#26500;&#25104;&#30423;&#31363;&#32618;&#25110;&#35784;&#39575;&#32618;</text><path d="M651.8447,1082.4766 L661.8447,1082.4766 C676.8447,1082.4766 676.8447,1082.4766 691.8447,1082.4766 L701.8447,1082.4766 " fill="none" style="stroke:#181818;stroke-width:1;"/><path d="M525.8447,1111.2813 L535.8447,1111.2813 C550.8447,1111.2813 550.8447,1082.4766 565.8447,1082.4766 L575.8447,1082.4766 " fill="none" style="stroke:#181818;stroke-width:1;"/><rect fill="#F1F1F1" height="37.6094" rx="12.5" ry="12.5" style="stroke:#181818;stroke-width:1.5;" width="76" x="575.8447" y="1121.2813"/><text fill="#000000" font-family="sans-serif" font-size="14" lengthAdjust="spacing" textLength="56" x="585.8447" y="1145.8145">&#23569;&#25968;&#24847;&#35265;</text><rect fill="#F1F1F1" height="37.6094" rx="12.5" ry="12.5" style="stroke:#181818;stroke-width:1.5;" width="90" x="701.8447" y="1121.2813"/><text fill="#000000" font-family="sans-serif" font-size="14" lengthAdjust="spacing" textLength="70" x="711.8447" y="1145.8145">&#19981;&#26500;&#25104;&#29359;&#32618;</text><path d="M651.8447,1140.0859 L661.8447,1140.0859 C676.8447,1140.0859 676.8447,1140.0859 691.8447,1140.0859 L701.8447,1140.0859 " fill="none" style="stroke:#181818;stroke-width:1;"/><path d="M525.8447,1111.2813 L535.8447,1111.2813 C550.8447,1111.2813 550.8447,1140.0859 565.8447,1140.0859 L575.8447,1140.0859 " fill="none" style="stroke:#181818;stroke-width:1;"/><path d="M381.9551,1053.6719 L391.9551,1053.6719 C406.9551,1053.6719 406.9551,1111.2813 421.9551,1111.2813 L431.9551,1111.2813 " fill="none" style="stroke:#181818;stroke-width:1;"/><path d="M269.9551,1024.8672 L279.9551,1024.8672 C294.9551,1024.8672 294.9551,1053.6719 309.9551,1053.6719 L319.9551,1053.6719 " fill="none" style="stroke:#181818;stroke-width:1;"/><path d="M86,1111.2813 L96,1111.2813 C111,1111.2813 111,1024.8672 126,1024.8672 L136,1024.8672 " fill="none" style="stroke:#181818;stroke-width:1;"/><rect fill="#F1F1F1" height="37.6094" rx="12.5" ry="12.5" style="stroke:#181818;stroke-width:1.5;" width="119.9551" x="136" y="1351.7188"/><text fill="#000000" font-family="sans-serif" font-size="14" lengthAdjust="spacing" textLength="99.9551" x="146" y="1376.252">&#38750;&#27861;&#25910;&#20837; + &#20849;&#29359;</text><rect fill="#F1F1F1" height="37.6094" rx="12.5" ry="12.5" style="stroke:#181818;stroke-width:1.5;" width="104" x="305.9551" y="1236.5"/><text fill="#000000" font-family="sans-serif" font-size="14" lengthAdjust="spacing" textLength="84" x="315.9551" y="1261.0332">&#20986;&#21806;&#21345;&#30340;&#34892;&#20026;</text><rect fill="#F1F1F1" height="37.6094" rx="12.5" ry="12.5" style="stroke:#181818;stroke-width:1.5;" width="118" x="459.9551" y="1178.8906"/><text fill="#000000" font-family="sans-serif" font-size="14" lengthAdjust="spacing" textLength="98" x="469.9551" y="1203.4238">&#35784;&#39575;&#32618;&#30340;&#24110;&#21161;&#29359;</text><path d="M409.9551,1255.3047 L419.9551,1255.3047 C434.9551,1255.3047 434.9551,1197.6953 449.9551,1197.6953 L459.9551,1197.6953 " fill="none" style="stroke:#181818;stroke-width:1;"/><rect fill="#F1F1F1" height="37.6094" rx="12.5" ry="12.5" style="stroke:#181818;stroke-width:1.5;" width="174" x="459.9551" y="1236.5"/><text fill="#000000" font-family="sans-serif" font-size="14" lengthAdjust="spacing" textLength="154" x="469.9551" y="1261.0332">&#24110;&#21161;&#20449;&#24687;&#32593;&#32476;&#29359;&#32618;&#27963;&#21160;&#32618;</text><path d="M409.9551,1255.3047 L419.9551,1255.3047 C434.9551,1255.3047 434.9551,1255.3047 449.9551,1255.3047 L459.9551,1255.3047 " fill="none" style="stroke:#181818;stroke-width:1;"/><rect fill="#F1F1F1" height="37.6094" rx="12.5" ry="12.5" style="stroke:#181818;stroke-width:1.5;" width="174" x="459.9551" y="1294.1094"/><text fill="#000000" font-family="sans-serif" font-size="14" lengthAdjust="spacing" textLength="154" x="469.9551" y="1318.6426">&#24819;&#35937;&#31454;&#21512;&#65292;&#25321;&#19968;&#37325;&#32618;&#35770;&#22788;</text><path d="M409.9551,1255.3047 L419.9551,1255.3047 C434.9551,1255.3047 434.9551,1312.9141 449.9551,1312.9141 L459.9551,1312.9141 " fill="none" style="stroke:#181818;stroke-width:1;"/><path d="M255.9551,1370.5234 L265.9551,1370.5234 C280.9551,1370.5234 280.9551,1255.3047 295.9551,1255.3047 L305.9551,1255.3047 " fill="none" style="stroke:#181818;stroke-width:1;"/><rect fill="#F1F1F1" height="37.6094" rx="12.5" ry="12.5" style="stroke:#181818;stroke-width:1.5;" width="132" x="305.9551" y="1438.1328"/><text fill="#000000" font-family="sans-serif" font-size="14" lengthAdjust="spacing" textLength="112" x="315.9551" y="1462.666">&#25488;&#21345;&#12289;&#36716;&#36134;&#12289;&#21462;&#27454;</text><rect fill="#F1F1F1" height="37.6094" rx="12.5" ry="12.5" style="stroke:#181818;stroke-width:1.5;" width="146" x="487.9551" y="1351.7188"/><text fill="#000000" font-family="sans-serif" font-size="14" lengthAdjust="spacing" textLength="126" x="497.9551" y="1376.252">&#22810;&#25968;&#35828;&#65288;&#21496;&#27861;&#35299;&#37322;&#65289;</text><rect fill="#90EE90" height="37.6094" rx="12.5" ry="12.5" style="stroke:#181818;stroke-width:1.5;" width="205.8896" x="683.9551" y="1351.7188"/><text fill="#000000" font-family="sans-serif" font-size="14" lengthAdjust="spacing" textLength="182" x="693.9551" y="1376.252">&#25488;&#21345;&#12289;&#36716;&#36134;&#12289;&#21462;&#27454;&#19968;&#20307;&#21270;&#30475;&#24453;</text><rect fill="#F1F1F1" height="37.6094" rx="12.5" ry="12.5" style="stroke:#FF6347;stroke-width:1.5;" width="65.8896" x="939.8447" y="1351.7188"/><text fill="#000000" font-family="sans-serif" font-size="14" lengthAdjust="spacing" textLength="42" x="949.8447" y="1376.252">&#30423;&#31363;&#32618;</text><path d="M889.8447,1370.5234 L899.8447,1370.5234 C914.8447,1370.5234 914.8447,1370.5234 929.8447,1370.5234 L939.8447,1370.5234 " fill="none" style="stroke:#181818;stroke-width:1;"/><path d="M633.9551,1370.5234 L643.9551,1370.5234 C658.9551,1370.5234 658.9551,1370.5234 673.9551,1370.5234 L683.9551,1370.5234 " fill="none" style="stroke:#181818;stroke-width:1;"/><path d="M437.9551,1456.9375 L447.9551,1456.9375 C462.9551,1456.9375 462.9551,1370.5234 477.9551,1370.5234 L487.9551,1370.5234 " fill="none" style="stroke:#181818;stroke-width:1;"/><rect fill="#F1F1F1" height="37.6094" rx="12.5" ry="12.5" style="stroke:#181818;stroke-width:1.5;" width="62" x="487.9551" y="1466.9375"/><text fill="#000000" font-family="sans-serif" font-size="14" lengthAdjust="spacing" textLength="42" x="497.9551" y="1491.4707">&#23569;&#25968;&#35828;</text><rect fill="#90EE90" height="37.6094" rx="12.5" ry="12.5" style="stroke:#181818;stroke-width:1.5;" width="93.8896" x="599.9551" y="1409.3281"/><text fill="#000000" font-family="sans-serif" font-size="14" lengthAdjust="spacing" textLength="70" x="609.9551" y="1433.8613">&#25488;&#21345;&#12289;&#36716;&#36134;</text><rect fill="#F1F1F1" height="37.6094" rx="12.5" ry="12.5" style="stroke:#181818;stroke-width:1.5;" width="90" x="743.8447" y="1409.3281"/><text fill="#000000" font-family="sans-serif" font-size="14" lengthAdjust="spacing" textLength="70" x="753.8447" y="1433.8613">&#19981;&#26500;&#25104;&#29359;&#32618;</text><path d="M693.8447,1428.1328 L703.8447,1428.1328 C718.8447,1428.1328 718.8447,1428.1328 733.8447,1428.1328 L743.8447,1428.1328 " fill="none" style="stroke:#181818;stroke-width:1;"/><path d="M549.9551,1485.7422 L559.9551,1485.7422 C574.9551,1485.7422 574.9551,1428.1328 589.9551,1428.1328 L599.9551,1428.1328 " fill="none" style="stroke:#181818;stroke-width:1;"/><rect fill="#90EE90" height="37.6094" rx="12.5" ry="12.5" style="stroke:#181818;stroke-width:1.5;" width="51.8896" x="599.9551" y="1495.7422"/><text fill="#000000" font-family="sans-serif" font-size="14" lengthAdjust="spacing" textLength="28" x="609.9551" y="1520.2754">&#21462;&#27454;</text><rect fill="#F1F1F1" height="37.6094" rx="12.5" ry="12.5" style="stroke:#181818;stroke-width:1.5;" width="76" x="701.8447" y="1466.9375"/><text fill="#000000" font-family="sans-serif" font-size="14" lengthAdjust="spacing" textLength="56" x="711.8447" y="1491.4707">&#22810;&#25968;&#24847;&#35265;</text><rect fill="#F1F1F1" height="37.6094" rx="12.5" ry="12.5" style="stroke:#FF6347;stroke-width:1.5;" width="121.8896" x="827.8447" y="1466.9375"/><text fill="#000000" font-family="sans-serif" font-size="14" lengthAdjust="spacing" textLength="98" x="837.8447" y="1491.4707">&#30423;&#31363;&#32618;&#25110;&#35784;&#39575;&#32618;</text><path d="M777.8447,1485.7422 L787.8447,1485.7422 C802.8447,1485.7422 802.8447,1485.7422 817.8447,1485.7422 L827.8447,1485.7422 " fill="none" style="stroke:#181818;stroke-width:1;"/><path d="M651.8447,1514.5469 L661.8447,1514.5469 C676.8447,1514.5469 676.8447,1485.7422 691.8447,1485.7422 L701.8447,1485.7422 " fill="none" style="stroke:#181818;stroke-width:1;"/><rect fill="#F1F1F1" height="37.6094" rx="12.5" ry="12.5" style="stroke:#181818;stroke-width:1.5;" width="76" x="701.8447" y="1524.5469"/><text fill="#000000" font-family="sans-serif" font-size="14" lengthAdjust="spacing" textLength="56" x="711.8447" y="1549.0801">&#23569;&#25968;&#24847;&#35265;</text><rect fill="#F1F1F1" height="37.6094" rx="12.5" ry="12.5" style="stroke:#181818;stroke-width:1.5;" width="90" x="827.8447" y="1524.5469"/><text fill="#000000" font-family="sans-serif" font-size="14" lengthAdjust="spacing" textLength="70" x="837.8447" y="1549.0801">&#19981;&#26500;&#25104;&#29359;&#32618;</text><path d="M777.8447,1543.3516 L787.8447,1543.3516 C802.8447,1543.3516 802.8447,1543.3516 817.8447,1543.3516 L827.8447,1543.3516 " fill="none" style="stroke:#181818;stroke-width:1;"/><path d="M651.8447,1514.5469 L661.8447,1514.5469 C676.8447,1514.5469 676.8447,1543.3516 691.8447,1543.3516 L701.8447,1543.3516 " fill="none" style="stroke:#181818;stroke-width:1;"/><path d="M549.9551,1485.7422 L559.9551,1485.7422 C574.9551,1485.7422 574.9551,1514.5469 589.9551,1514.5469 L599.9551,1514.5469 " fill="none" style="stroke:#181818;stroke-width:1;"/><path d="M437.9551,1456.9375 L447.9551,1456.9375 C462.9551,1456.9375 462.9551,1485.7422 477.9551,1485.7422 L487.9551,1485.7422 " fill="none" style="stroke:#181818;stroke-width:1;"/><path d="M255.9551,1370.5234 L265.9551,1370.5234 C280.9551,1370.5234 280.9551,1456.9375 295.9551,1456.9375 L305.9551,1456.9375 " fill="none" style="stroke:#181818;stroke-width:1;"/><path d="M86,1111.2813 L96,1111.2813 C111,1111.2813 111,1370.5234 126,1370.5234 L136,1370.5234 " fill="none" style="stroke:#181818;stroke-width:1;"/><rect fill="#F1F1F1" height="37.6094" rx="12.5" ry="12.5" style="stroke:#181818;stroke-width:1.5;" width="76" x="136" y="1668.5703"/><text fill="#000000" font-family="sans-serif" font-size="14" lengthAdjust="spacing" textLength="56" x="146" y="1693.1035">&#38169;&#35823;&#27719;&#27454;</text><rect fill="#F1F1F1" height="37.6094" rx="12.5" ry="12.5" style="stroke:#181818;stroke-width:1.5;" width="62" x="262" y="1610.9609"/><text fill="#000000" font-family="sans-serif" font-size="14" lengthAdjust="spacing" textLength="42" x="272" y="1635.4941">&#30002;&#23545;&#20057;</text><rect fill="#90EE90" height="37.6094" rx="12.5" ry="12.5" style="stroke:#181818;stroke-width:1.5;" width="93.8896" x="374" y="1582.1563"/><text fill="#000000" font-family="sans-serif" font-size="14" lengthAdjust="spacing" textLength="70" x="384" y="1606.6895">&#33457;&#25481;&#36825;&#31508;&#38065;</text><rect fill="#F1F1F1" height="37.6094" rx="12.5" ry="12.5" style="stroke:#181818;stroke-width:1.5;" width="90" x="517.8896" y="1582.1563"/><text fill="#000000" font-family="sans-serif" font-size="14" lengthAdjust="spacing" textLength="70" x="527.8896" y="1606.6895">&#19981;&#26500;&#25104;&#29359;&#32618;</text><path d="M467.8896,1600.9609 L477.8896,1600.9609 C492.8896,1600.9609 492.8896,1600.9609 507.8896,1600.9609 L517.8896,1600.9609 " fill="none" style="stroke:#181818;stroke-width:1;"/><path d="M324,1629.7656 L334,1629.7656 C349,1629.7656 349,1600.9609 364,1600.9609 L374,1600.9609 " fill="none" style="stroke:#181818;stroke-width:1;"/><rect fill="#90EE90" height="37.6094" rx="12.5" ry="12.5" style="stroke:#181818;stroke-width:1.5;" width="79.8896" x="374" y="1639.7656"/><text fill="#000000" font-family="sans-serif" font-size="14" lengthAdjust="spacing" textLength="56" x="384" y="1664.2988">&#25298;&#19981;&#36820;&#36824;</text><rect fill="#F1F1F1" height="37.6094" rx="12.5" ry="12.5" style="stroke:#FF6347;stroke-width:1.5;" width="65.8896" x="503.8896" y="1639.7656"/><text fill="#000000" font-family="sans-serif" font-size="14" lengthAdjust="spacing" textLength="42" x="513.8896" y="1664.2988">&#20405;&#21344;&#32618;</text><path d="M453.8896,1658.5703 L463.8896,1658.5703 C478.8896,1658.5703 478.8896,1658.5703 493.8896,1658.5703 L503.8896,1658.5703 " fill="none" style="stroke:#181818;stroke-width:1;"/><path d="M324,1629.7656 L334,1629.7656 C349,1629.7656 349,1658.5703 364,1658.5703 L374,1658.5703 " fill="none" style="stroke:#181818;stroke-width:1;"/><path d="M212,1687.375 L222,1687.375 C237,1687.375 237,1629.7656 252,1629.7656 L262,1629.7656 " fill="none" style="stroke:#181818;stroke-width:1;"/><rect fill="#F1F1F1" height="37.6094" rx="12.5" ry="12.5" style="stroke:#181818;stroke-width:1.5;" width="76" x="262" y="1726.1797"/><text fill="#000000" font-family="sans-serif" font-size="14" lengthAdjust="spacing" textLength="56" x="272" y="1750.7129">&#30002;&#23545;&#38134;&#34892;</text><rect fill="#90EE90" height="37.6094" rx="12.5" ry="12.5" style="stroke:#181818;stroke-width:1.5;" width="137.4414" x="388" y="1726.1797"/><text fill="#000000" font-family="sans-serif" font-size="14" lengthAdjust="spacing" textLength="113.5518" x="398" y="1750.7129">ATM&#26426;&#25110;&#26588;&#21488;&#21462;&#27454;</text><rect fill="#F1F1F1" height="37.6094" rx="12.5" ry="12.5" style="stroke:#181818;stroke-width:1.5;" width="62" x="575.4414" y="1697.375"/><text fill="#000000" font-family="sans-serif" font-size="14" lengthAdjust="spacing" textLength="42" x="585.4414" y="1721.9082">&#22810;&#25968;&#35828;</text><rect fill="#F1F1F1" height="37.6094" rx="12.5" ry="12.5" style="stroke:#FF6347;stroke-width:1.5;" width="121.8896" x="687.4414" y="1697.375"/><text fill="#000000" font-family="sans-serif" font-size="14" lengthAdjust="spacing" textLength="98" x="697.4414" y="1721.9082">&#30423;&#31363;&#32618;&#25110;&#35784;&#39575;&#32618;</text><path d="M637.4414,1716.1797 L647.4414,1716.1797 C662.4414,1716.1797 662.4414,1716.1797 677.4414,1716.1797 L687.4414,1716.1797 " fill="none" style="stroke:#181818;stroke-width:1;"/><path d="M525.4414,1744.9844 L535.4414,1744.9844 C550.4414,1744.9844 550.4414,1716.1797 565.4414,1716.1797 L575.4414,1716.1797 " fill="none" style="stroke:#181818;stroke-width:1;"/><rect fill="#F1F1F1" height="37.6094" rx="12.5" ry="12.5" style="stroke:#181818;stroke-width:1.5;" width="62" x="575.4414" y="1754.9844"/><text fill="#000000" font-family="sans-serif" font-size="14" lengthAdjust="spacing" textLength="42" x="585.4414" y="1779.5176">&#23569;&#25968;&#35828;</text><rect fill="#FFFAFA" height="37.6094" rx="12.5" ry="12.5" style="stroke:#808080;stroke-width:1.5;" width="93.8896" x="687.4414" y="1754.9844"/><text fill="#000000" font-family="sans-serif" font-size="14" lengthAdjust="spacing" textLength="70" x="697.4414" y="1779.5176">&#19981;&#26500;&#25104;&#29359;&#32618;</text><path d="M637.4414,1773.7891 L647.4414,1773.7891 C662.4414,1773.7891 662.4414,1773.7891 677.4414,1773.7891 L687.4414,1773.7891 " fill="none" style="stroke:#181818;stroke-width:1;"/><path d="M525.4414,1744.9844 L535.4414,1744.9844 C550.4414,1744.9844 550.4414,1773.7891 565.4414,1773.7891 L575.4414,1773.7891 " fill="none" style="stroke:#181818;stroke-width:1;"/><path d="M338,1744.9844 L348,1744.9844 C363,1744.9844 363,1744.9844 378,1744.9844 L388,1744.9844 " fill="none" style="stroke:#181818;stroke-width:1;"/><path d="M212,1687.375 L222,1687.375 C237,1687.375 237,1744.9844 252,1744.9844 L262,1744.9844 " fill="none" style="stroke:#181818;stroke-width:1;"/><path d="M86,1111.2813 L96,1111.2813 C111,1111.2813 111,1687.375 126,1687.375 L136,1687.375 " fill="none" style="stroke:#181818;stroke-width:1;"/><!--SRC=[xLfhJnDP6Fu-l-9i_E8bL7I9CQGXIfNi6chC5lrgXkcn7PbBCpsjszriWW7JSYzQ1HHPSLKMrgMmegaWy6EsS-ad_yA-SwFJTgOpucRtImaXxJdFUTxBUTvtvfnmAKreYV2i4EVf54LzmmeCbubZ50gTDN_J9CVXiocE5aY6vxfqP1T0kupn40jZ54LOmc6axRoixgwfasLrVmDrML-LqJMviAu-cuGH-Sz5vUr1RM6pzdAHeauZUNHNUJv68VWvZPIbpTheKyUGDRpmGddtMCjlgALjRV-jkhOdpxnGbYTG-8I4uxq_zlPPwqtoblKkQvAOpkPkCqdCZDpcQMd4egYlaUVArRtNyluZfL24PVB-IuX5dLWtV9vPhLRsv8VJjKSVjDLfsxWnwdHxOXHMdZ7jDjCxFFtygQ2z7w_bvpz_2kwUiLwPpil5UVNfk3gx1UjRyk7mBwXBxfGk_b3rJ1mbe86r9KW0r_BJHw46CT-0yGkXZh7YfautoiqYU56H3yVC8HGEOpwLfDDikg_FcQTVYzNA1d1KAxjDVYgBPRduHbaP1s6OEhV3BnP0fKhfW_pWjOEgkZibRwwOxchb7JqFhvugZxUCpyr9K6QBa2Lth-eezTc2kZ6cLrWup4WiZ_lwN7dauYn8NzjvuqTOhSoq1EH29iyzWMJwaWKFs9dmPNbkopJW2h4gkLoeRInuHrv7NXwA-hBvvT5oxTrZ-M2g8PwjURzuscNqM96tnjFYcUks_JrwtzG0V309gfNHwluZUVg9kZmb7ppmtSw3zs2XDKbGPSzNZWIFpkXVvGVR4A-p0zHtlY3FLVGkllPRBJ_ffVolzhRTbe8xziOTg-m2Lid_K79ccfNnEMtjlbU1cSRiz2Y59q5goKvPMsgtK5hKqIgD_AvSseGeeTcxDjeZ_m0WLpRboNKdWKLYZ5SFLvNxO7fUtLisVL1szkJ9trtoElPEsrvL_rY1PltvqxGojGxwgkLd0AbjxiglnYb_HL9kkVUN-Byeyw1F0NUvkpeInA1VJzDVclpL6b2nJJ46r6j0pRRLRMb9AvULxNnZhrLBVydbZzMFIyqgdTnMPYUqmoNrRQdsSFihotxg8G2qmv9sk7ZSlknqj-dzx-X9eYplGaATJvvW7SPDIiVRg7RYTCqKSB62839O8417NS9mMB4FB9SQpozXurZIHra3LrWw8T4y-XaCXOQv33O-8THFCoC9ISm8yOZ8YHBYs4IIwFCm-ukEZSEBBhpyUi2jMHkSa30MsZ4R00SwvmFEsLXHeeM4bzFcf0rDPQGKvmKr9sseTs2Ee2GnxSLsOc2WlpyIiP4vp77YFG-iEMb0gH1Fiy9G4lCsyO0ea1Zx4qRVTbFwl2r3_rmwqTqUyFH8pjXI9_Py-rmweVqmn2H1ZO6SOHE2AE40-uhG82lWvl4wHK2pRQbqCgjWl78Z69jYRe4vDCm1feaLYiVqpQXbYwi-JKIU9gBfl4306YiAD1VvKkmD2QTeYTP7lcJPvM5H8dwo2yf52EmxyQkqW6mHaOTo8rvoi5PwqUdR9-04x2YGEfFPhclvxMGSuvIp81eDN8KkEionwQHtotEiRxHsBycIvjnucBak4dzBHbHCZXO2HCNGSKoEZD4CmyQzDT_GYlsOxq0ffXtr3TyP7ANluenFbOiSk229SOS2VMhCNc7OIObfbh1PV9bnb4DBEwSv73IGUWYm5xGlDS_24rJl_K4qPJq6TV9qPlWkPdHwh-pGMNXkOoaWRvOLeO8CQj6FMSzxu7JNEtrZuRQlrGOj-pv3AFWJFckzYdHkHpktevtRqSxjQETsj7CxshaTxToETcv7ExUZdTlHpkteVt4xUaF_jusRqK6KnL9QF_IT2vtlFjyJkdWoHXDqNSoYSnTGzxdUdfxUdWie4Xj2-lGfwcJq-o6K5ZDmvaLnE15Ax716FoQTegxHMHhza8534uzxaVxjv53q58fTjGVHLI7BIgB0Wp_KjLjH4uI-4qai9H83VA6dgvybA8ObS0lTYb9Ny1qwmn5OoeXnLaZqefj30rqNgK4uK6Ne11Y28sm4Jbf4oi5Sx1y0]--></g></svg>