<svg xmlns="http://www.w3.org/2000/svg" xmlns:xlink="http://www.w3.org/1999/xlink" contentStyleType="text/css" height="809px" preserveAspectRatio="none" style="width:585px;height:809px;background:#FFFFFF;" version="1.1" viewBox="0 0 585 809" width="585px" zoomAndPan="magnify"><title>&#36130;&#20135;&#29359;&#32618;&#65288;&#23398;&#20064;&#24605;&#36335;&#65289;</title><defs/><g><text fill="#000000" font-family="sans-serif" font-size="14" font-weight="bold" lengthAdjust="spacing" textLength="144.375" x="219.1504" y="34.5332">&#36130;&#20135;&#29359;&#32618;&#65288;&#23398;&#20064;&#24605;&#36335;&#65289;</text><rect fill="#F1F1F1" height="37.6094" rx="12.5" ry="12.5" style="stroke:#181818;stroke-width:1.5;" width="76" x="10" y="404.2656"/><text fill="#000000" font-family="sans-serif" font-size="14" lengthAdjust="spacing" textLength="56" x="20" y="428.7988">&#36130;&#20135;&#29359;&#32618;</text><rect fill="#F1F1F1" height="37.6094" rx="12.5" ry="12.5" style="stroke:#181818;stroke-width:1.5;" width="76" x="136" y="289.0469"/><text fill="#000000" font-family="sans-serif" font-size="14" lengthAdjust="spacing" textLength="56" x="146" y="313.5801">&#19971;&#20010;&#32618;&#21517;</text><rect fill="#F1F1F1" height="37.6094" rx="12.5" ry="12.5" style="stroke:#181818;stroke-width:1.5;" width="55.7861" x="262" y="87.4141"/><text fill="#000000" font-family="sans-serif" font-size="14" lengthAdjust="spacing" textLength="35.7861" x="272" y="111.9473">&#31532;1&#23545;</text><rect fill="#F1F1F1" height="37.6094" rx="12.5" ry="12.5" style="stroke:#181818;stroke-width:1.5;" width="62" x="367.7861" y="58.6094"/><text fill="#000000" font-family="sans-serif" font-size="14" lengthAdjust="spacing" textLength="42" x="377.7861" y="83.1426">&#20405;&#21344;&#32618;</text><path d="M317.7861,106.2188 L327.7861,106.2188 C342.7861,106.2188 342.7861,77.4141 357.7861,77.4141 L367.7861,77.4141 " fill="none" style="stroke:#181818;stroke-width:1;"/><rect fill="#90EE90" height="37.6094" rx="12.5" ry="12.5" style="stroke:#181818;stroke-width:1.5;" width="65.8896" x="367.7861" y="116.2188"/><text fill="#000000" font-family="sans-serif" font-size="14" lengthAdjust="spacing" textLength="42" x="377.7861" y="140.752">&#30423;&#31363;&#32618;</text><path d="M317.7861,106.2188 L327.7861,106.2188 C342.7861,106.2188 342.7861,135.0234 357.7861,135.0234 L367.7861,135.0234 " fill="none" style="stroke:#181818;stroke-width:1;"/><path d="M212,307.8516 L222,307.8516 C237,307.8516 237,106.2188 252,106.2188 L262,106.2188 " fill="none" style="stroke:#181818;stroke-width:1;"/><rect fill="#F1F1F1" height="37.6094" rx="12.5" ry="12.5" style="stroke:#181818;stroke-width:1.5;" width="55.7861" x="262" y="202.6328"/><text fill="#000000" font-family="sans-serif" font-size="14" lengthAdjust="spacing" textLength="35.7861" x="272" y="227.166">&#31532;2&#23545;</text><rect fill="#F1F1F1" height="37.6094" rx="12.5" ry="12.5" style="stroke:#181818;stroke-width:1.5;" width="62" x="367.7861" y="173.8281"/><text fill="#000000" font-family="sans-serif" font-size="14" lengthAdjust="spacing" textLength="42" x="377.7861" y="198.3613">&#25250;&#22842;&#32618;</text><path d="M317.7861,221.4375 L327.7861,221.4375 C342.7861,221.4375 342.7861,192.6328 357.7861,192.6328 L367.7861,192.6328 " fill="none" style="stroke:#181818;stroke-width:1;"/><rect fill="#90EE90" height="37.6094" rx="12.5" ry="12.5" style="stroke:#181818;stroke-width:1.5;" width="65.8896" x="367.7861" y="231.4375"/><text fill="#000000" font-family="sans-serif" font-size="14" lengthAdjust="spacing" textLength="42" x="377.7861" y="255.9707">&#25250;&#21163;&#32618;</text><path d="M317.7861,221.4375 L327.7861,221.4375 C342.7861,221.4375 342.7861,250.2422 357.7861,250.2422 L367.7861,250.2422 " fill="none" style="stroke:#181818;stroke-width:1;"/><path d="M212,307.8516 L222,307.8516 C237,307.8516 237,221.4375 252,221.4375 L262,221.4375 " fill="none" style="stroke:#181818;stroke-width:1;"/><rect fill="#F1F1F1" height="37.6094" rx="12.5" ry="12.5" style="stroke:#181818;stroke-width:1.5;" width="55.7861" x="262" y="317.8516"/><text fill="#000000" font-family="sans-serif" font-size="14" lengthAdjust="spacing" textLength="35.7861" x="272" y="342.3848">&#31532;3&#23545;</text><rect fill="#F1F1F1" height="37.6094" rx="12.5" ry="12.5" style="stroke:#181818;stroke-width:1.5;" width="90" x="367.7861" y="289.0469"/><text fill="#000000" font-family="sans-serif" font-size="14" lengthAdjust="spacing" textLength="70" x="377.7861" y="313.5801">&#25970;&#35784;&#21202;&#32034;&#32618;</text><path d="M317.7861,336.6563 L327.7861,336.6563 C342.7861,336.6563 342.7861,307.8516 357.7861,307.8516 L367.7861,307.8516 " fill="none" style="stroke:#181818;stroke-width:1;"/><rect fill="#90EE90" height="37.6094" rx="12.5" ry="12.5" style="stroke:#181818;stroke-width:1.5;" width="65.8896" x="367.7861" y="346.6563"/><text fill="#000000" font-family="sans-serif" font-size="14" lengthAdjust="spacing" textLength="42" x="377.7861" y="371.1895">&#35784;&#39575;&#32618;</text><path d="M317.7861,336.6563 L327.7861,336.6563 C342.7861,336.6563 342.7861,365.4609 357.7861,365.4609 L367.7861,365.4609 " fill="none" style="stroke:#181818;stroke-width:1;"/><path d="M212,307.8516 L222,307.8516 C237,307.8516 237,336.6563 252,336.6563 L262,336.6563 " fill="none" style="stroke:#181818;stroke-width:1;"/><rect fill="#F1F1F1" height="37.6094" rx="12.5" ry="12.5" style="stroke:#181818;stroke-width:1.5;" width="55.7861" x="262" y="461.875"/><text fill="#000000" font-family="sans-serif" font-size="14" lengthAdjust="spacing" textLength="35.7861" x="272" y="486.4082">&#31532;7&#32618;</text><rect fill="#90EE90" height="37.6094" rx="12.5" ry="12.5" style="stroke:#181818;stroke-width:1.5;" width="93.8896" x="367.7861" y="461.875"/><text fill="#000000" font-family="sans-serif" font-size="14" lengthAdjust="spacing" textLength="70" x="377.7861" y="486.4082">&#32844;&#21153;&#20405;&#21344;&#32618;</text><rect fill="#F1F1F1" height="37.6094" rx="12.5" ry="12.5" style="stroke:#181818;stroke-width:1.5;" width="62" x="511.6758" y="404.2656"/><text fill="#000000" font-family="sans-serif" font-size="14" lengthAdjust="spacing" textLength="42" x="521.6758" y="428.7988">&#20405;&#21344;&#32618;</text><path d="M461.6758,480.6797 L471.6758,480.6797 C486.6758,480.6797 486.6758,423.0703 501.6758,423.0703 L511.6758,423.0703 " fill="none" style="stroke:#181818;stroke-width:1;"/><rect fill="#F1F1F1" height="37.6094" rx="12.5" ry="12.5" style="stroke:#181818;stroke-width:1.5;" width="62" x="511.6758" y="461.875"/><text fill="#000000" font-family="sans-serif" font-size="14" lengthAdjust="spacing" textLength="42" x="521.6758" y="486.4082">&#30423;&#31363;&#32618;</text><path d="M461.6758,480.6797 L471.6758,480.6797 C486.6758,480.6797 486.6758,480.6797 501.6758,480.6797 L511.6758,480.6797 " fill="none" style="stroke:#181818;stroke-width:1;"/><rect fill="#F1F1F1" height="37.6094" rx="12.5" ry="12.5" style="stroke:#181818;stroke-width:1.5;" width="62" x="511.6758" y="519.4844"/><text fill="#000000" font-family="sans-serif" font-size="14" lengthAdjust="spacing" textLength="42" x="521.6758" y="544.0176">&#35784;&#39575;&#32618;</text><path d="M461.6758,480.6797 L471.6758,480.6797 C486.6758,480.6797 486.6758,538.2891 501.6758,538.2891 L511.6758,538.2891 " fill="none" style="stroke:#181818;stroke-width:1;"/><path d="M317.7861,480.6797 L327.7861,480.6797 C342.7861,480.6797 342.7861,480.6797 357.7861,480.6797 L367.7861,480.6797 " fill="none" style="stroke:#181818;stroke-width:1;"/><path d="M212,307.8516 L222,307.8516 C237,307.8516 237,480.6797 252,480.6797 L262,480.6797 " fill="none" style="stroke:#181818;stroke-width:1;"/><path d="M86,423.0703 L96,423.0703 C111,423.0703 111,307.8516 126,307.8516 L136,307.8516 " fill="none" style="stroke:#181818;stroke-width:1;"/><rect fill="#F1F1F1" height="37.6094" rx="12.5" ry="12.5" style="stroke:#181818;stroke-width:1.5;" width="76" x="136" y="663.5078"/><text fill="#000000" font-family="sans-serif" font-size="14" lengthAdjust="spacing" textLength="56" x="146" y="688.041">&#20849;&#24615;&#38382;&#39064;</text><rect fill="#F1F1F1" height="37.6094" rx="12.5" ry="12.5" style="stroke:#181818;stroke-width:1.5;" width="48" x="262" y="577.0938"/><text fill="#000000" font-family="sans-serif" font-size="14" lengthAdjust="spacing" textLength="28" x="272" y="601.627">&#26082;&#36930;</text><path d="M212,682.3125 L222,682.3125 C237,682.3125 237,595.8984 252,595.8984 L262,595.8984 " fill="none" style="stroke:#181818;stroke-width:1;"/><rect fill="#F1F1F1" height="37.6094" rx="12.5" ry="12.5" style="stroke:#181818;stroke-width:1.5;" width="48" x="262" y="634.7031"/><text fill="#000000" font-family="sans-serif" font-size="14" lengthAdjust="spacing" textLength="28" x="272" y="659.2363">&#25968;&#39069;</text><path d="M212,682.3125 L222,682.3125 C237,682.3125 237,653.5078 252,653.5078 L262,653.5078 " fill="none" style="stroke:#181818;stroke-width:1;"/><rect fill="#F1F1F1" height="37.6094" rx="12.5" ry="12.5" style="stroke:#181818;stroke-width:1.5;" width="90" x="262" y="692.3125"/><text fill="#000000" font-family="sans-serif" font-size="14" lengthAdjust="spacing" textLength="70" x="272" y="716.8457">&#36130;&#20135;&#24615;&#21033;&#30410;</text><path d="M212,682.3125 L222,682.3125 C237,682.3125 237,711.1172 252,711.1172 L262,711.1172 " fill="none" style="stroke:#181818;stroke-width:1;"/><rect fill="#F1F1F1" height="37.6094" rx="12.5" ry="12.5" style="stroke:#181818;stroke-width:1.5;" width="76" x="262" y="749.9219"/><text fill="#000000" font-family="sans-serif" font-size="14" lengthAdjust="spacing" textLength="56" x="272" y="774.4551">&#32618;&#25968;&#32852;&#31995;</text><path d="M212,682.3125 L222,682.3125 C237,682.3125 237,768.7266 252,768.7266 L262,768.7266 " fill="none" style="stroke:#181818;stroke-width:1;"/><path d="M86,423.0703 L96,423.0703 C111,423.0703 111,682.3125 126,682.3125 L136,682.3125 " fill="none" style="stroke:#181818;stroke-width:1;"/><!--SRC=[xLTRQzj857wVNp5bNvA2dSkQj8GG4hi9snANKgTz7qjJUPhHZ1YDN4mf92s5r6rXMRQaK0AfMRQiDxlfRTdUVqqKnq_z2tiaMucSM9QMljO4OvtpdU_CkOwou6gYjCs4QHC7eJDC6DmpASxd9tf_hcvmEk5m8hHdyro0p04q5yhp36G8QQOvnOTlM_iVNdIQUvtFxQ-VDls_Vjz_ltEmldtuxzxNJmyGEZk0G1W-P_7-ktlxxzhmxF_yE1Jrn9tTtIb_x_sHf0_-ye__U2SoZg6VRNNQzq2Ev-QexTI8ozpv-K6wwTDq1ysM_zk7qtI1lFddQBeVXz0zUNsuj-a__ANpjdMQ55JTzjPeqdD3p3OU-StdHu4FDqxBq8ai3T4TdQvV5l_-guFr5zsjlxkjfx4p7corkXjtuu8dBxkjxPYWLsAmzJV_w3nhnkFxt0RquSQldJSV4LgWq75HroqCDk5Ss5lpg2-um8YbY8rl0rc-oZqQ_iAuI8mrIqbFc2N9fSASMJKTw45x9y2QHAqfQYR0-ze8R2bAnIZc4113DrB0ZGWh5H5Mqg5xoWZgUChXIT2UCe8c1nOBIaatYUs7vULYiLIAa0tAkRoLWEqfGoZAH_sNdgiuUZ81xgurmfB5iTEZSnM75a5arA2xCXs6MK8gcg5k6AymGK_AZoaokXr95P098GqgT59kH9XqZ9Ubq3rHbGFc12iCH_ziGWCPauBmac9s5EWnKakRQ3aKUqLHXoWIIFwFsM9LAftMDLcvj8QowhH1oSXMaZPCYqwgTjyoYIweZg0M50n8uyaSjNJI2cLIwiJxVT314Yp1AcTkBNbZnUm7lTsgCNqoDmbkBakTxYcCocWGaI4gWvXK7paZXi7Cv9OUsAHfp3TWqjpO-CApGSla9lLIXbXoE8AIPgm3KqOeiWZzED9bcjNfeX4RXrFRc72QDP3Z4A0M99NQPd011gixIq_rRx60tFMgDwaHq2TbXzJXsgKg8s-TIPYWa5gcCGTvpvpkuqK-EBYZPtMWbrEl20HVSnFzDudlRwZVtr2_wGtrIl3_pxNo2gvJvGQJEvMVdfmkvC-FLOZ6bsKTJytWoQdPGc6sC8DBbLKSgCVHMFdYAdQb1uiBcp3MYbMzeDV7qILI9_Yg1vrlqraSF8sjbiTnPIaIuYLHPqeA6xeTNRfUxe7mJr9N7Ab3y4mXLsGQLwY2O-7hPNI1tY0Urs1gI9C9QnPVMrtEdKShC1KUiS0HxA4IZ8jM3T1L_WC0]--></g></svg>