<svg xmlns="http://www.w3.org/2000/svg" xmlns:xlink="http://www.w3.org/1999/xlink" contentStyleType="text/css" height="463px" preserveAspectRatio="none" style="width:843px;height:463px;background:#FFFFFF;" version="1.1" viewBox="0 0 843 463" width="843px" zoomAndPan="magnify"><title>&#36130;&#20135;&#29359;&#32618;</title><defs/><g><text fill="#000000" font-family="sans-serif" font-size="14" font-weight="bold" lengthAdjust="spacing" textLength="57.75" x="391.5698" y="34.5332">&#36130;&#20135;&#29359;&#32618;</text><rect fill="#F1F1F1" height="37.6094" rx="12.5" ry="12.5" style="stroke:#181818;stroke-width:1.5;" width="76" x="10" y="231.4375"/><text fill="#000000" font-family="sans-serif" font-size="14" lengthAdjust="spacing" textLength="56" x="20" y="255.9707">&#36130;&#20135;&#29359;&#32618;</text><rect fill="#F1F1F1" height="37.6094" rx="12.5" ry="12.5" style="stroke:#181818;stroke-width:1.5;" width="62" x="136" y="58.6094"/><text fill="#000000" font-family="sans-serif" font-size="14" lengthAdjust="spacing" textLength="42" x="146" y="83.1426">&#19981;&#21344;&#26377;</text><rect fill="#F1F1F1" height="37.6094" rx="12.5" ry="12.5" style="stroke:#181818;stroke-width:1.5;" width="104" x="248" y="58.6094"/><text fill="#000000" font-family="sans-serif" font-size="14" lengthAdjust="spacing" textLength="84" x="258" y="83.1426">&#25925;&#24847;&#27585;&#22351;&#36130;&#29289;</text><path d="M198,77.4141 L208,77.4141 C223,77.4141 223,77.4141 238,77.4141 L248,77.4141 " fill="none" style="stroke:#181818;stroke-width:1;"/><path d="M86,250.2422 L96,250.2422 C111,250.2422 111,77.4141 126,77.4141 L136,77.4141 " fill="none" style="stroke:#181818;stroke-width:1;"/><rect fill="#F1F1F1" height="37.6094" rx="12.5" ry="12.5" style="stroke:#181818;stroke-width:1.5;" width="48" x="136" y="260.2422"/><text fill="#000000" font-family="sans-serif" font-size="14" lengthAdjust="spacing" textLength="28" x="146" y="284.7754">&#21344;&#26377;</text><rect fill="#F1F1F1" height="37.6094" rx="12.5" ry="12.5" style="stroke:#181818;stroke-width:1.5;" width="62" x="234" y="116.2188"/><text fill="#000000" font-family="sans-serif" font-size="14" lengthAdjust="spacing" textLength="42" x="244" y="140.752">&#19981;&#36716;&#31227;</text><rect fill="#F1F1F1" height="37.6094" rx="12.5" ry="12.5" style="stroke:#181818;stroke-width:1.5;" width="62" x="346" y="116.2188"/><text fill="#000000" font-family="sans-serif" font-size="14" lengthAdjust="spacing" textLength="42" x="356" y="140.752">&#20405;&#21344;&#32618;</text><path d="M296,135.0234 L306,135.0234 C321,135.0234 321,135.0234 336,135.0234 L346,135.0234 " fill="none" style="stroke:#181818;stroke-width:1;"/><path d="M184,279.0469 L194,279.0469 C209,279.0469 209,135.0234 224,135.0234 L234,135.0234 " fill="none" style="stroke:#181818;stroke-width:1;"/><rect fill="#F1F1F1" height="37.6094" rx="12.5" ry="12.5" style="stroke:#181818;stroke-width:1.5;" width="48" x="234" y="289.0469"/><text fill="#000000" font-family="sans-serif" font-size="14" lengthAdjust="spacing" textLength="28" x="244" y="313.5801">&#36716;&#31227;</text><rect fill="#F1F1F1" height="37.6094" rx="12.5" ry="12.5" style="stroke:#181818;stroke-width:1.5;" width="62" x="332" y="202.6328"/><text fill="#000000" font-family="sans-serif" font-size="14" lengthAdjust="spacing" textLength="42" x="342" y="227.166">&#34987;&#23475;&#20154;</text><rect fill="#90EE90" height="37.6094" rx="12.5" ry="12.5" style="stroke:#181818;stroke-width:1.5;" width="121.8896" x="444" y="173.8281"/><text fill="#000000" font-family="sans-serif" font-size="14" lengthAdjust="spacing" textLength="98" x="454" y="198.3613">&#35784;&#39575;&#32618;&#65288;&#34987;&#39575;&#65289;</text><path d="M394,221.4375 L404,221.4375 C419,221.4375 419,192.6328 434,192.6328 L444,192.6328 " fill="none" style="stroke:#181818;stroke-width:1;"/><rect fill="#F1F1F1" height="37.6094" rx="12.5" ry="12.5" style="stroke:#181818;stroke-width:1.5;" width="146" x="444" y="231.4375"/><text fill="#000000" font-family="sans-serif" font-size="14" lengthAdjust="spacing" textLength="126" x="454" y="255.9707">&#25970;&#35784;&#21202;&#32034;&#32618;&#65288;&#34987;&#36843;&#65289;</text><path d="M394,221.4375 L404,221.4375 C419,221.4375 419,250.2422 434,250.2422 L444,250.2422 " fill="none" style="stroke:#181818;stroke-width:1;"/><path d="M282,307.8516 L292,307.8516 C307,307.8516 307,221.4375 322,221.4375 L332,221.4375 " fill="none" style="stroke:#181818;stroke-width:1;"/><rect fill="#F1F1F1" height="37.6094" rx="12.5" ry="12.5" style="stroke:#181818;stroke-width:1.5;" width="62" x="332" y="346.6563"/><text fill="#000000" font-family="sans-serif" font-size="14" lengthAdjust="spacing" textLength="42" x="342" y="371.1895">&#29359;&#32618;&#20154;</text><rect fill="#F1F1F1" height="37.6094" rx="12.5" ry="12.5" style="stroke:#181818;stroke-width:1.5;" width="104" x="444" y="346.6563"/><text fill="#000000" font-family="sans-serif" font-size="14" lengthAdjust="spacing" textLength="84" x="454" y="371.1895">&#25163;&#27573;&#26292;&#21147;&#31243;&#24230;</text><rect fill="#90EE90" height="37.6094" rx="12.5" ry="12.5" style="stroke:#181818;stroke-width:1.5;" width="233.8896" x="598" y="289.0469"/><text fill="#000000" font-family="sans-serif" font-size="14" lengthAdjust="spacing" textLength="210" x="608" y="313.5801">&#30423;&#31363;&#32618;&#65288;&#23545;&#29289;&#24179;&#21644;&#65292;&#23545;&#20154;&#27809;&#21361;&#38505;&#65289;</text><path d="M548,365.4609 L558,365.4609 C573,365.4609 573,307.8516 588,307.8516 L598,307.8516 " fill="none" style="stroke:#181818;stroke-width:1;"/><rect fill="#F1F1F1" height="37.6094" rx="12.5" ry="12.5" style="stroke:#181818;stroke-width:1.5;" width="230" x="598" y="346.6563"/><text fill="#000000" font-family="sans-serif" font-size="14" lengthAdjust="spacing" textLength="210" x="608" y="371.1895">&#25250;&#22842;&#32618;&#65288;&#23545;&#29289;&#26292;&#21147;&#65292;&#23545;&#20154;&#26377;&#21361;&#38505;&#65289;</text><path d="M548,365.4609 L558,365.4609 C573,365.4609 573,365.4609 588,365.4609 L598,365.4609 " fill="none" style="stroke:#181818;stroke-width:1;"/><rect fill="#90EE90" height="37.6094" rx="12.5" ry="12.5" style="stroke:#181818;stroke-width:1.5;" width="219.8896" x="598" y="404.2656"/><text fill="#000000" font-family="sans-serif" font-size="14" lengthAdjust="spacing" textLength="196" x="608" y="428.7988">&#25250;&#21163;&#32618;&#65288;&#23545;&#20154;&#26292;&#21147;&#65292;&#21387;&#21046;&#21453;&#25239;&#65289;</text><path d="M548,365.4609 L558,365.4609 C573,365.4609 573,423.0703 588,423.0703 L598,423.0703 " fill="none" style="stroke:#181818;stroke-width:1;"/><path d="M394,365.4609 L404,365.4609 C419,365.4609 419,365.4609 434,365.4609 L444,365.4609 " fill="none" style="stroke:#181818;stroke-width:1;"/><path d="M282,307.8516 L292,307.8516 C307,307.8516 307,365.4609 322,365.4609 L332,365.4609 " fill="none" style="stroke:#181818;stroke-width:1;"/><path d="M184,279.0469 L194,279.0469 C209,279.0469 209,307.8516 224,307.8516 L234,307.8516 " fill="none" style="stroke:#181818;stroke-width:1;"/><path d="M86,250.2422 L96,250.2422 C111,250.2422 111,279.0469 126,279.0469 L136,279.0469 " fill="none" style="stroke:#181818;stroke-width:1;"/><!--SRC=[xLTRQnj757xVNp6bBtP0yWLXWZ76aMBJ1Yk4oidxQ7UocdXsPfcTLH2b3wKjM79SGo24vWAj2KbZbvZcKXhLQV-CT-Ky-I_qx4rQsLxjbhv66A4vvplVENDkkrvn59RAejomiArfdr6kCzSWg5oUYVuSrM5ancQOAzTYfG1P0cWfb9Sfo3HDKSK8EdcxTzn_CUWT3ZxiQzgbyJE2poLq_EUEj_Ep_wGRdYEP_-07__jT__1Rx-akc0owBsFmEIHOdtpuRV3Yhw4ibl_z3h29bqXs8V1axy1xzUQutn-Jnxh3hO_x3u7az6WBSF3xzAYBbfQ8PRUmGvtbvGkC_0UlmSxRlZ-0m1FJatyEmFICwoWD5xlskzl-gtV-exTUx_7Wrssl__mSA2Pv_72m_rtao3jy3wdoth_nxjyxFRe7Ho3tN__YxVp-yQUNkR77ddjxthD-cZ2AOaJuf3iadC3HEnXo14P3ZX-tlQq_lDqTltS-cvgsGg3haivR6M_4fR2_bhLOS9LYKs8BVGr1b9lC9U4lXAfOtpIbSBbH4qn8nAZPKe4UjDy4M0FBJKcC37YiJS2c98HFOWu1ANGd1zn9i49YRcO57IaJgErAcsL18sK2pRvOwb9IE5bidw-jLQkrMeBi4CR4tGnif0oXMZafOtwkqkZP3BYpsGbBbiREJyvL6be5aTw2JYmK33MvaAH0tH1QfvoSbOye2hgTI1MGSIvqmbLMRdYOT8JM15UHgCa0SuOLXYEEZIiWeu9ZLfFKIYuwGYfXOIKknDwGnCOI1vB_OdQbAQJAwvgYN4f1MLNUe1HagmaBfaLbLJkspA8BgiE92GK3qdGo9osTl48PXDZfVXzti0fBiCceqyhUM2dxSMztMrITpKs6c-j2vNiARwLtC2zmAnqRH0sTOLsdHdPBZstIFERRC6bEQdpXh9CwlaFSd24M34AGmaXrOCu89HQX7riuLD4skQAdnk7SDiQC5Bt8w0fG2vnBRL5u00QhkqXFnK-nWDnnctU87j1dPGUtuR5BP47UDXKmGI6ro6CEybuutQD5FZwuasTrh9Tp7n4QV2tDn6yIdzvIFxsb_k-tr1l1_q4tw-keJQGJJEzSUNvslbA-FDN02bqNRJItW6Rd5YkLnSe2gZKsKA2UrgRgNsuWHxYml901eorfqmtwVLgxXjiOVUL2zrja4GMdgOtwD6gi9aAqojjK2cv1nslNRjKZ4Ff2g8OjL0XUg9IgLA46aH0MkbNNhfBRs6KAJ7LXK6ukefiRQwNBsZfCXejDS0Ixg0OZesG7T8r_0G00]--></g></svg>