<svg xmlns="http://www.w3.org/2000/svg" xmlns:xlink="http://www.w3.org/1999/xlink" contentStyleType="text/css" height="463px" preserveAspectRatio="none" style="width:658px;height:463px;background:#FFFFFF;" version="1.1" viewBox="0 0 658 463" width="658px" zoomAndPan="magnify"><title>&#36130;&#20135;&#29359;&#32618; - &#35784;&#39575;&#32618; - &#19977;&#35282;&#35784;&#39575;</title><defs/><g><text fill="#000000" font-family="sans-serif" font-size="14" font-weight="bold" lengthAdjust="spacing" textLength="183.6953" x="235.6523" y="34.5332">&#36130;&#20135;&#29359;&#32618; - &#35784;&#39575;&#32618; - &#19977;&#35282;&#35784;&#39575;</text><rect fill="#F1F1F1" height="37.6094" rx="12.5" ry="12.5" style="stroke:#181818;stroke-width:1.5;" width="76" x="10" y="231.4375"/><text fill="#000000" font-family="sans-serif" font-size="14" lengthAdjust="spacing" textLength="56" x="20" y="255.9707">&#19977;&#35282;&#35784;&#39575;</text><rect fill="#F1F1F1" height="37.6094" rx="12.5" ry="12.5" style="stroke:#181818;stroke-width:1.5;" width="48" x="136" y="58.6094"/><text fill="#000000" font-family="sans-serif" font-size="14" lengthAdjust="spacing" textLength="28" x="146" y="83.1426">&#29305;&#28857;</text><rect fill="#F1F1F1" height="37.6094" rx="12.5" ry="12.5" style="stroke:#181818;stroke-width:1.5;" width="258" x="234" y="58.6094"/><text fill="#000000" font-family="sans-serif" font-size="14" lengthAdjust="spacing" textLength="238" x="244" y="83.1426">&#12302;&#21463;&#39575;&#20154;&#12303;&#21644;&#12302;&#34987;&#23475;&#20154;&#12303;&#19981;&#26159;&#21516;&#19968;&#20010;&#20154;</text><path d="M184,77.4141 L194,77.4141 C209,77.4141 209,77.4141 224,77.4141 L234,77.4141 " fill="none" style="stroke:#181818;stroke-width:1;"/><path d="M86,250.2422 L96,250.2422 C111,250.2422 111,77.4141 126,77.4141 L136,77.4141 " fill="none" style="stroke:#181818;stroke-width:1;"/><rect fill="#F1F1F1" height="37.6094" rx="12.5" ry="12.5" style="stroke:#181818;stroke-width:1.5;" width="48" x="136" y="145.0234"/><text fill="#000000" font-family="sans-serif" font-size="14" lengthAdjust="spacing" textLength="28" x="146" y="169.5566">&#21306;&#20998;</text><rect fill="#F1F1F1" height="37.6094" rx="12.5" ry="12.5" style="stroke:#181818;stroke-width:1.5;" width="104" x="234" y="116.2188"/><text fill="#000000" font-family="sans-serif" font-size="14" lengthAdjust="spacing" textLength="84" x="244" y="140.752">&#20256;&#32479;&#19977;&#35282;&#35784;&#39575;</text><rect fill="#F1F1F1" height="37.6094" rx="12.5" ry="12.5" style="stroke:#181818;stroke-width:1.5;" width="258" x="388" y="116.2188"/><text fill="#000000" font-family="sans-serif" font-size="14" lengthAdjust="spacing" textLength="238" x="398" y="140.752">&#12302;&#21463;&#39575;&#20154;&#12303;&#22788;&#20998;&#30340;&#26159;&#12302;&#34987;&#23475;&#20154;&#12303;&#30340;&#36130;&#29289;</text><path d="M338,135.0234 L348,135.0234 C363,135.0234 363,135.0234 378,135.0234 L388,135.0234 " fill="none" style="stroke:#181818;stroke-width:1;"/><path d="M184,163.8281 L194,163.8281 C209,163.8281 209,135.0234 224,135.0234 L234,135.0234 " fill="none" style="stroke:#181818;stroke-width:1;"/><rect fill="#F1F1F1" height="37.6094" rx="12.5" ry="12.5" style="stroke:#181818;stroke-width:1.5;" width="104" x="234" y="173.8281"/><text fill="#000000" font-family="sans-serif" font-size="14" lengthAdjust="spacing" textLength="84" x="244" y="198.3613">&#26032;&#22411;&#19977;&#35282;&#35784;&#39575;</text><rect fill="#F1F1F1" height="37.6094" rx="12.5" ry="12.5" style="stroke:#181818;stroke-width:1.5;" width="216" x="388" y="173.8281"/><text fill="#000000" font-family="sans-serif" font-size="14" lengthAdjust="spacing" textLength="196" x="398" y="198.3613">&#12302;&#21463;&#39575;&#20154;&#12303;&#22788;&#20998;&#30340;&#26159;&#33258;&#24049;&#30340;&#36130;&#29289;</text><path d="M338,192.6328 L348,192.6328 C363,192.6328 363,192.6328 378,192.6328 L388,192.6328 " fill="none" style="stroke:#181818;stroke-width:1;"/><path d="M184,163.8281 L194,163.8281 C209,163.8281 209,192.6328 224,192.6328 L234,192.6328 " fill="none" style="stroke:#181818;stroke-width:1;"/><path d="M86,250.2422 L96,250.2422 C111,250.2422 111,163.8281 126,163.8281 L136,163.8281 " fill="none" style="stroke:#181818;stroke-width:1;"/><rect fill="#F1F1F1" height="37.6094" rx="12.5" ry="12.5" style="stroke:#181818;stroke-width:1.5;" width="48" x="136" y="317.8516"/><text fill="#000000" font-family="sans-serif" font-size="14" lengthAdjust="spacing" textLength="28" x="146" y="342.3848">&#26696;&#20363;</text><rect fill="#F1F1F1" height="37.6094" rx="12.5" ry="12.5" style="stroke:#181818;stroke-width:1.5;" width="48" x="234" y="260.2422"/><text fill="#000000" font-family="sans-serif" font-size="14" lengthAdjust="spacing" textLength="28" x="244" y="284.7754">&#20256;&#32479;</text><rect fill="#F1F1F1" height="37.6094" rx="12.5" ry="12.5" style="stroke:#181818;stroke-width:1.5;" width="122.6963" x="332" y="231.4375"/><text fill="#000000" font-family="sans-serif" font-size="14" lengthAdjust="spacing" textLength="102.6963" x="342" y="255.9707">&#20445;&#22982;&#26696;&#65288;P274&#65289;</text><path d="M282,279.0469 L292,279.0469 C307,279.0469 307,250.2422 322,250.2422 L332,250.2422 " fill="none" style="stroke:#181818;stroke-width:1;"/><rect fill="#F1F1F1" height="37.6094" rx="12.5" ry="12.5" style="stroke:#181818;stroke-width:1.5;" width="122.6963" x="332" y="289.0469"/><text fill="#000000" font-family="sans-serif" font-size="14" lengthAdjust="spacing" textLength="102.6963" x="342" y="313.5801">&#24215;&#21592;&#26696;&#65288;P274&#65289;</text><path d="M282,279.0469 L292,279.0469 C307,279.0469 307,307.8516 322,307.8516 L332,307.8516 " fill="none" style="stroke:#181818;stroke-width:1;"/><path d="M184,336.6563 L194,336.6563 C209,336.6563 209,279.0469 224,279.0469 L234,279.0469 " fill="none" style="stroke:#181818;stroke-width:1;"/><rect fill="#F1F1F1" height="37.6094" rx="12.5" ry="12.5" style="stroke:#181818;stroke-width:1.5;" width="48" x="234" y="375.4609"/><text fill="#000000" font-family="sans-serif" font-size="14" lengthAdjust="spacing" textLength="28" x="244" y="399.9941">&#26032;&#22411;</text><rect fill="#F1F1F1" height="37.6094" rx="12.5" ry="12.5" style="stroke:#181818;stroke-width:1.5;" width="150.6963" x="332" y="346.6563"/><text fill="#000000" font-family="sans-serif" font-size="14" lengthAdjust="spacing" textLength="130.6963" x="342" y="371.1895">&#20882;&#21517;&#25910;&#27454;&#26696;&#65288;P288&#65289;</text><path d="M282,394.2656 L292,394.2656 C307,394.2656 307,365.4609 322,365.4609 L332,365.4609 " fill="none" style="stroke:#181818;stroke-width:1;"/><rect fill="#F1F1F1" height="37.6094" rx="12.5" ry="12.5" style="stroke:#181818;stroke-width:1.5;" width="220.6963" x="332" y="404.2656"/><text fill="#000000" font-family="sans-serif" font-size="14" lengthAdjust="spacing" textLength="200.6963" x="342" y="428.7988">&#20599;&#25442;&#20108;&#32500;&#30721;&#26696;&#65288;P288&#24041;&#22266;&#32852;&#31995;&#65289;</text><path d="M282,394.2656 L292,394.2656 C307,394.2656 307,423.0703 322,423.0703 L332,423.0703 " fill="none" style="stroke:#181818;stroke-width:1;"/><path d="M184,336.6563 L194,336.6563 C209,336.6563 209,394.2656 224,394.2656 L234,394.2656 " fill="none" style="stroke:#181818;stroke-width:1;"/><path d="M86,250.2422 L96,250.2422 C111,250.2422 111,336.6563 126,336.6563 L136,336.6563 " fill="none" style="stroke:#181818;stroke-width:1;"/><!--SRC=[xLTVRzjK57_tfxY8btPIqZz4fQecr2Lh1LCpLIJR-urzvzpLljUwliuK45ABfjAobergeXC861DIjO8eQ1FjqZ8-pEmuFEqhS6p7YvFMiU5vKHJPv_pExznppvzxisXBBAH9cMPYIr7UeKmr78sWOd4g-jgoRP0foy1CEgPH2905W1P2UP62J54KIQL1KE_v4xTpu7zvvFzrY0geTxJrp-5-zEoURFSEzYA9ebmQVaVmkOJyxHV-vo_2bqZmQlqhx_u-0DnEvzNwVMzl1oIz9xzulpsB9Ex9RlVHaVTWnprPTqyEGTYdydOwtjPcWiezU-oV_dZEQRgld-y2WV_jNU0VSGf2YDFVVfgWxtxpk_V3lVz7t_lYq3l-OvWL67_QSb_UEnV12Atxz_VUmIPWNvzjhSw-NtfzjZs2y3hxtjUFBaR4wnursTpp7kns7_xP_VLbR3W_Vm7rnd5t5nA-uvy-znzl3A3UyLFlkqvluw7_x3GmKnO9L5TSOOl31NSvhACFbBxWAiMwm2Rw59mL6uP3mYU4obXTqmLtc5RX1XV8e7fJ1dhGVXPWDIpM1D5Iu7rj3DO58MmSSmX8eDiPu7QCvG8pFMtHaJA6MewmZ3Hef8oXwO4bWXBSJcDxTtcvNAvKOcIR60Q_auADb25KAPgOidgJc37nCcUoHZyXwBrf9T0JqsfYczhPUvb4JwV0xRLscD8aTdRyNYQXPH2fJQZCN8kXEkE2vCWhGYkKaL7vW2Adsx5K0HbZN2LCfkqD2vCIfI0IDGp0ZB12y_JNnYIGKSwmKH7qJG87ICbDBFc5s5L1B2nm8FalPbSQNCYigihB9IMaLMOrKaws2ZUXcsHQjlkMQNH1TXZH8M50cjpCSKCfAr4Q8LQoteSTBC6GR1ZKRgPFj8JziBSxJIf7zoR5pNKkips5KQbjp794fMADo3VEiAfIBRsaXoPj5lCjw3GxqRxmhf8glasSZ2Rc1Yn1S2rHWHaj55k4VYnkKqbRv8gQQ8TpqneR96yWWn0W5pYJsgHmG0QZFKzDzK-vWDns6hU96j2dxGvkmR5CH4xU5kNGGI4rps8EzZttTWy6-N3ZZk_LeLhEF28K-BayrRzflBsjlhsjvhwjhWR_UsvKLr2B23leqfdYxFHigJW_KSCINUSjD3E7fcSMIgM5qXogrEeeK4yg4zMFwiZc3Wmff44B2zfmWhgULAxX5aOVEr3b9bb0mTj4lJg9Qakn42sn5XMScL3PohMRrGY4FkIoPd4PWkTAXJALg4O4B0lTh2fNoIti619CLQvHfY-W6_Nbmhoo0XtWO1qSmSofG6j8qGPTxLy0]--></g></svg>