<svg xmlns="http://www.w3.org/2000/svg" xmlns:xlink="http://www.w3.org/1999/xlink" contentStyleType="text/css" height="560px" preserveAspectRatio="none" style="width:1750px;height:560px;background:#FFFFFF;" version="1.1" viewBox="0 0 1750 560" width="1750px" zoomAndPan="magnify"><title>&#36130;&#20135;&#29359;&#32618;-&#35784;&#39575;&#32618;&#65288;&#26500;&#25104;&#35201;&#20214;&#65289;</title><defs/><g><text fill="#000000" font-family="sans-serif" font-size="14" font-weight="bold" lengthAdjust="spacing" textLength="192.3496" x="777.7251" y="34.5332">&#36130;&#20135;&#29359;&#32618;-&#35784;&#39575;&#32618;&#65288;&#26500;&#25104;&#35201;&#20214;&#65289;</text><rect fill="#90EE90" height="37.6094" rx="12.5" ry="12.5" style="stroke:#181818;stroke-width:1.5;" width="65.8896" x="795.5654" y="279.7852"/><text fill="#000000" font-family="sans-serif" font-size="14" lengthAdjust="spacing" textLength="42" x="805.5654" y="304.3184">&#35784;&#39575;&#32618;</text><rect fill="#F1F1F1" height="37.6094" rx="12.5" ry="12.5" style="stroke:#181818;stroke-width:1.5;" width="62" x="911.4551" y="279.7852"/><text fill="#000000" font-family="sans-serif" font-size="14" lengthAdjust="spacing" textLength="42" x="921.4551" y="304.3184">&#34987;&#23475;&#20154;</text><rect fill="#F1F1F1" height="37.6094" rx="12.5" ry="12.5" style="stroke:#181818;stroke-width:1.5;" width="91.5654" x="1023.4551" y="106.957"/><text fill="#000000" font-family="sans-serif" font-size="14" lengthAdjust="spacing" textLength="71.5654" x="1033.4551" y="131.4902">2. &#35748;&#35782;&#38169;&#35823;</text><rect fill="#F1F1F1" height="37.6094" rx="12.5" ry="12.5" style="stroke:#181818;stroke-width:1.5;" width="104" x="1165.0205" y="92.5547"/><text fill="#000000" font-family="sans-serif" font-size="14" lengthAdjust="spacing" textLength="84" x="1175.0205" y="117.0879">&#24847;&#24605;&#33258;&#27965;&#33021;&#21147;</text><rect fill="#F1F1F1" height="42.75" rx="12.5" ry="12.5" style="stroke:#181818;stroke-width:1.5;" width="72.8896" x="1319.0205" y="58.6094"/><text fill="#000000" font-family="sans-serif" font-size="14" lengthAdjust="spacing" textLength="28" x="1329.0205" y="88.2832">&#24188;&#20799;</text><path d="M1373.4711,79.1105 L1380.6082,71.974 C1381.1775,71.4047 1381.1775,70.4813 1380.6082,69.912 C1380.0382,69.342 1379.1154,69.342 1378.5461,69.912 L1371.409,77.0485 L1364.2725,69.912 C1363.7032,69.342 1362.7792,69.342 1362.2104,69.912 C1361.6405,70.4813 1361.6405,71.4047 1362.2104,71.974 L1369.3469,79.1105 L1362.1941,86.264 C1361.6242,86.8339 1361.6242,87.7567 1362.1941,88.326 C1362.4787,88.6107 1362.8521,88.753 1363.2254,88.753 C1363.5987,88.753 1363.9721,88.6107 1364.2567,88.326 L1371.4096,81.1726 L1378.5461,88.3091 C1378.8307,88.5938 1379.2041,88.7361 1379.5774,88.7361 C1379.9507,88.7361 1380.3235,88.5938 1380.6087,88.3091 C1381.1781,87.7392 1381.1781,86.8164 1380.6087,86.247 L1373.4711,79.1105 " fill="#FE0000" style="stroke:;stroke-width:0;stroke-dasharray:;"/><path d="M1269.0205,111.3594 L1279.0205,111.3594 C1294.0205,111.3594 1294.0205,79.9844 1309.0205,79.9844 L1319.0205,79.9844 " fill="none" style="stroke:#181818;stroke-width:1;"/><rect fill="#F1F1F1" height="42.75" rx="12.5" ry="12.5" style="stroke:#181818;stroke-width:1.5;" width="86.8896" x="1319.0205" y="121.3594"/><text fill="#000000" font-family="sans-serif" font-size="14" lengthAdjust="spacing" textLength="42" x="1329.0205" y="151.0332">&#31934;&#31070;&#30149;</text><path d="M1387.4711,141.8605 L1394.6082,134.724 C1395.1775,134.1547 1395.1775,133.2313 1394.6082,132.662 C1394.0382,132.092 1393.1154,132.092 1392.5461,132.662 L1385.409,139.7985 L1378.2725,132.662 C1377.7032,132.092 1376.7792,132.092 1376.2104,132.662 C1375.6405,133.2313 1375.6405,134.1547 1376.2104,134.724 L1383.3469,141.8605 L1376.1941,149.014 C1375.6242,149.5839 1375.6242,150.5067 1376.1941,151.076 C1376.4787,151.3607 1376.8521,151.503 1377.2254,151.503 C1377.5987,151.503 1377.9721,151.3607 1378.2567,151.076 L1385.4096,143.9226 L1392.5461,151.0591 C1392.8307,151.3438 1393.2041,151.4861 1393.5774,151.4861 C1393.9507,151.4861 1394.3235,151.3438 1394.6087,151.0591 C1395.1781,150.4892 1395.1781,149.5664 1394.6087,148.997 L1387.4711,141.8605 " fill="#FE0000" style="stroke:;stroke-width:0;stroke-dasharray:;"/><path d="M1269.0205,111.3594 L1279.0205,111.3594 C1294.0205,111.3594 1294.0205,142.7344 1309.0205,142.7344 L1319.0205,142.7344 " fill="none" style="stroke:#181818;stroke-width:1;"/><path d="M1115.0205,125.7617 L1125.0205,125.7617 C1140.0205,125.7617 1140.0205,111.3594 1155.0205,111.3594 L1165.0205,111.3594 " fill="none" style="stroke:#181818;stroke-width:1;"/><rect fill="#F1F1F1" height="42.75" rx="12.5" ry="12.5" style="stroke:#181818;stroke-width:1.5;" width="100.8896" x="1165.0205" y="150.1641"/><text fill="#000000" font-family="sans-serif" font-size="14" lengthAdjust="spacing" textLength="56" x="1175.0205" y="179.8379">&#26426;&#22120;&#34987;&#39575;</text><path d="M1247.4711,170.6652 L1254.6082,163.5287 C1255.1775,162.9594 1255.1775,162.036 1254.6082,161.4666 C1254.0382,160.8967 1253.1154,160.8967 1252.5461,161.4666 L1245.409,168.6031 L1238.2725,161.4666 C1237.7032,160.8967 1236.7792,160.8967 1236.2104,161.4666 C1235.6405,162.036 1235.6405,162.9594 1236.2104,163.5287 L1243.3469,170.6652 L1236.1941,177.8186 C1235.6242,178.3886 1235.6242,179.3114 1236.1941,179.8807 C1236.4787,180.1654 1236.8521,180.3077 1237.2254,180.3077 C1237.5987,180.3077 1237.9721,180.1654 1238.2567,179.8807 L1245.4096,172.7273 L1252.5461,179.8638 C1252.8307,180.1485 1253.2041,180.2908 1253.5774,180.2908 C1253.9507,180.2908 1254.3235,180.1485 1254.6087,179.8638 C1255.1781,179.2939 1255.1781,178.3711 1254.6087,177.8017 L1247.4711,170.6652 " fill="#FE0000" style="stroke:;stroke-width:0;stroke-dasharray:;"/><path d="M1115.0205,125.7617 L1125.0205,125.7617 C1140.0205,125.7617 1140.0205,171.5391 1155.0205,171.5391 L1165.0205,171.5391 " fill="none" style="stroke:#181818;stroke-width:1;"/><path d="M973.4551,298.5898 L983.4551,298.5898 C998.4551,298.5898 998.4551,125.7617 1013.4551,125.7617 L1023.4551,125.7617 " fill="none" style="stroke:#181818;stroke-width:1;"/><rect fill="#90EE90" height="37.6094" rx="12.5" ry="12.5" style="stroke:#181818;stroke-width:1.5;" width="95.4551" x="1023.4551" y="241.7188"/><text fill="#000000" font-family="sans-serif" font-size="14" lengthAdjust="spacing" textLength="71.5654" x="1033.4551" y="266.252">3. &#22788;&#20998;&#36130;&#29289;</text><rect fill="#FFA500" height="37.6094" rx="12.5" ry="12.5" style="stroke:#181818;stroke-width:1.5;" width="79.8896" x="1168.9102" y="241.7188"/><text fill="#000000" font-family="sans-serif" font-size="14" lengthAdjust="spacing" textLength="56" x="1178.9102" y="266.252">&#29359;&#32618;&#25104;&#31435;</text><rect fill="#F1F1F1" height="37.6094" rx="12.5" ry="12.5" style="stroke:#181818;stroke-width:1.5;" width="216" x="1298.7998" y="241.7188"/><text fill="#000000" font-family="sans-serif" font-size="14" lengthAdjust="spacing" textLength="196" x="1308.7998" y="266.252">&#34987;&#23475;&#20154;&#22522;&#20110;&#35748;&#35782;&#38169;&#35823;&#32780;&#22788;&#20998;&#36130;&#29289;</text><rect fill="#F1F1F1" height="37.6094" rx="12.5" ry="12.5" style="stroke:#181818;stroke-width:1.5;" width="174" x="1564.7998" y="212.9141"/><text fill="#000000" font-family="sans-serif" font-size="14" lengthAdjust="spacing" textLength="154" x="1574.7998" y="237.4473">&#19968;&#26159;&#65292;&#23458;&#35266;&#19978;&#26377;&#22788;&#20998;&#34892;&#20026;</text><path d="M1514.7998,260.5234 L1524.7998,260.5234 C1539.7998,260.5234 1539.7998,231.7188 1554.7998,231.7188 L1564.7998,231.7188 " fill="none" style="stroke:#181818;stroke-width:1;"/><rect fill="#F1F1F1" height="37.6094" rx="12.5" ry="12.5" style="stroke:#181818;stroke-width:1.5;" width="174" x="1564.7998" y="270.5234"/><text fill="#000000" font-family="sans-serif" font-size="14" lengthAdjust="spacing" textLength="154" x="1574.7998" y="295.0566">&#20108;&#26159;&#65292;&#20027;&#35266;&#19978;&#26377;&#22788;&#20998;&#24847;&#35782;</text><path d="M1514.7998,260.5234 L1524.7998,260.5234 C1539.7998,260.5234 1539.7998,289.3281 1554.7998,289.3281 L1564.7998,289.3281 " fill="none" style="stroke:#181818;stroke-width:1;"/><path d="M1248.7998,260.5234 L1258.7998,260.5234 C1273.7998,260.5234 1273.7998,260.5234 1288.7998,260.5234 L1298.7998,260.5234 " fill="none" style="stroke:#181818;stroke-width:1;"/><path d="M1118.9102,260.5234 L1128.9102,260.5234 C1143.9102,260.5234 1143.9102,260.5234 1158.9102,260.5234 L1168.9102,260.5234 " fill="none" style="stroke:#181818;stroke-width:1;"/><path d="M973.4551,298.5898 L983.4551,298.5898 C998.4551,298.5898 998.4551,260.5234 1013.4551,260.5234 L1023.4551,260.5234 " fill="none" style="stroke:#181818;stroke-width:1;"/><rect fill="#F1F1F1" height="37.6094" rx="12.5" ry="12.5" style="stroke:#181818;stroke-width:1.5;" width="91.5654" x="1023.4551" y="414.5469"/><text fill="#000000" font-family="sans-serif" font-size="14" lengthAdjust="spacing" textLength="71.5654" x="1033.4551" y="439.0801">5. &#36973;&#21463;&#25439;&#22833;</text><rect fill="#FFA500" height="37.6094" rx="12.5" ry="12.5" style="stroke:#181818;stroke-width:1.5;" width="79.8896" x="1165.0205" y="356.9375"/><text fill="#000000" font-family="sans-serif" font-size="14" lengthAdjust="spacing" textLength="56" x="1175.0205" y="381.4707">&#29359;&#32618;&#26082;&#36930;</text><rect fill="#F1F1F1" height="37.6094" rx="12.5" ry="12.5" style="stroke:#181818;stroke-width:1.5;" width="118" x="1294.9102" y="328.1328"/><text fill="#000000" font-family="sans-serif" font-size="14" lengthAdjust="spacing" textLength="98" x="1304.9102" y="352.666">&#34892;&#20026;&#20154;&#21462;&#24471;&#36130;&#29289;</text><path d="M1244.9102,375.7422 L1254.9102,375.7422 C1269.9102,375.7422 1269.9102,346.9375 1284.9102,346.9375 L1294.9102,346.9375 " fill="none" style="stroke:#181818;stroke-width:1;"/><rect fill="#F1F1F1" height="37.6094" rx="12.5" ry="12.5" style="stroke:#181818;stroke-width:1.5;" width="146" x="1294.9102" y="385.7422"/><text fill="#000000" font-family="sans-serif" font-size="14" lengthAdjust="spacing" textLength="126" x="1304.9102" y="410.2754">&#34987;&#23475;&#20154;&#23454;&#38469;&#36973;&#21463;&#25439;&#22833;</text><path d="M1244.9102,375.7422 L1254.9102,375.7422 C1269.9102,375.7422 1269.9102,404.5469 1284.9102,404.5469 L1294.9102,404.5469 " fill="none" style="stroke:#181818;stroke-width:1;"/><path d="M1115.0205,433.3516 L1125.0205,433.3516 C1140.0205,433.3516 1140.0205,375.7422 1155.0205,375.7422 L1165.0205,375.7422 " fill="none" style="stroke:#181818;stroke-width:1;"/><rect fill="#90EE90" height="37.6094" rx="12.5" ry="12.5" style="stroke:#181818;stroke-width:1.5;" width="79.8896" x="1165.0205" y="472.1563"/><text fill="#000000" font-family="sans-serif" font-size="14" lengthAdjust="spacing" textLength="56" x="1175.0205" y="496.6895">&#35266;&#28857;&#23637;&#31034;</text><rect fill="#F1F1F1" height="37.6094" rx="12.5" ry="12.5" style="stroke:#181818;stroke-width:1.5;" width="160" x="1294.9102" y="443.3516"/><text fill="#000000" font-family="sans-serif" font-size="14" lengthAdjust="spacing" textLength="140" x="1304.9102" y="467.8848">&#20010;&#21035;&#36130;&#20135;&#35828;&#65288;&#22810;&#25968;&#35828;&#65289;</text><path d="M1244.9102,490.9609 L1254.9102,490.9609 C1269.9102,490.9609 1269.9102,462.1563 1284.9102,462.1563 L1294.9102,462.1563 " fill="none" style="stroke:#181818;stroke-width:1;"/><rect fill="#F1F1F1" height="37.6094" rx="12.5" ry="12.5" style="stroke:#181818;stroke-width:1.5;" width="160" x="1294.9102" y="500.9609"/><text fill="#000000" font-family="sans-serif" font-size="14" lengthAdjust="spacing" textLength="140" x="1304.9102" y="525.4941">&#25972;&#20307;&#36130;&#20135;&#35828;&#65288;&#23569;&#25968;&#35828;&#65289;</text><path d="M1244.9102,490.9609 L1254.9102,490.9609 C1269.9102,490.9609 1269.9102,519.7656 1284.9102,519.7656 L1294.9102,519.7656 " fill="none" style="stroke:#181818;stroke-width:1;"/><path d="M1115.0205,433.3516 L1125.0205,433.3516 C1140.0205,433.3516 1140.0205,490.9609 1155.0205,490.9609 L1165.0205,490.9609 " fill="none" style="stroke:#181818;stroke-width:1;"/><path d="M973.4551,298.5898 L983.4551,298.5898 C998.4551,298.5898 998.4551,433.3516 1013.4551,433.3516 L1023.4551,433.3516 " fill="none" style="stroke:#181818;stroke-width:1;"/><path d="M861.4551,298.5898 L871.4551,298.5898 C886.4551,298.5898 886.4551,298.5898 901.4551,298.5898 L911.4551,298.5898 " fill="none" style="stroke:#181818;stroke-width:1;"/><rect fill="#F1F1F1" height="37.6094" rx="12.5" ry="12.5" style="stroke:#181818;stroke-width:1.5;" width="62" x="683.5654" y="279.7852"/><text fill="#000000" font-family="sans-serif" font-size="14" lengthAdjust="spacing" textLength="42" x="693.5654" y="304.3184">&#26045;&#23475;&#20154;</text><rect fill="#F1F1F1" height="37.6094" rx="12.5" ry="12.5" style="stroke:#181818;stroke-width:1.5;" width="91.5654" x="542" y="279.7852"/><text fill="#000000" font-family="sans-serif" font-size="14" lengthAdjust="spacing" textLength="71.5654" x="552" y="304.3184">1. &#27450;&#39575;&#34892;&#20026;</text><rect fill="#F1F1F1" height="37.6094" rx="12.5" ry="12.5" style="stroke:#181818;stroke-width:1.5;" width="76" x="416" y="106.957"/><text fill="#000000" font-family="sans-serif" font-size="14" lengthAdjust="spacing" textLength="56" x="426" y="131.4902">&#27450;&#39575;&#20869;&#23481;</text><rect fill="#F1F1F1" height="37.6094" rx="12.5" ry="12.5" style="stroke:#181818;stroke-width:1.5;" width="76" x="290" y="75.582"/><text fill="#000000" font-family="sans-serif" font-size="14" lengthAdjust="spacing" textLength="56" x="300" y="100.1152">&#20107;&#23454;&#21028;&#26029;</text><path d="M416,125.7617 L406,125.7617 C391,125.7617 391,94.3867 376,94.3867 L366,94.3867 " fill="none" style="stroke:#181818;stroke-width:1;"/><rect fill="#F1F1F1" height="42.75" rx="12.5" ry="12.5" style="stroke:#181818;stroke-width:1.5;" width="100.8896" x="265.1104" y="133.1914"/><text fill="#000000" font-family="sans-serif" font-size="14" lengthAdjust="spacing" textLength="56" x="275.1104" y="162.8652">&#20215;&#20540;&#35780;&#20215;</text><path d="M347.5609,153.6926 L354.698,146.5561 C355.2673,145.9867 355.2673,145.0633 354.698,144.494 C354.1281,143.9241 353.2053,143.9241 352.6359,144.494 L345.4988,151.6305 L338.3623,144.494 C337.793,143.9241 336.869,143.9241 336.3003,144.494 C335.7303,145.0633 335.7303,145.9867 336.3003,146.5561 L343.4368,153.6926 L336.2839,160.846 C335.714,161.4159 335.714,162.3387 336.2839,162.9081 C336.5686,163.1927 336.9419,163.3351 337.3153,163.3351 C337.6886,163.3351 338.0619,163.1927 338.3466,162.9081 L345.4994,155.7547 L352.6359,162.8912 C352.9206,163.1758 353.2939,163.3182 353.6673,163.3182 C354.0406,163.3182 354.4133,163.1758 354.6986,162.8912 C355.2679,162.3212 355.2679,161.3984 354.6986,160.8291 L347.5609,153.6926 " fill="#FE0000" style="stroke:;stroke-width:0;stroke-dasharray:;"/><path d="M416,125.7617 L406,125.7617 C391,125.7617 391,154.5664 376,154.5664 L366,154.5664 " fill="none" style="stroke:#181818;stroke-width:1;"/><path d="M542,298.5898 L532,298.5898 C517,298.5898 517,125.7617 502,125.7617 L492,125.7617 " fill="none" style="stroke:#181818;stroke-width:1;"/><rect fill="#F1F1F1" height="37.6094" rx="12.5" ry="12.5" style="stroke:#181818;stroke-width:1.5;" width="76" x="416" y="224.7461"/><text fill="#000000" font-family="sans-serif" font-size="14" lengthAdjust="spacing" textLength="56" x="426" y="249.2793">&#27450;&#39575;&#26041;&#24335;</text><rect fill="#F1F1F1" height="37.6094" rx="12.5" ry="12.5" style="stroke:#181818;stroke-width:1.5;" width="132" x="234" y="195.9414"/><text fill="#000000" font-family="sans-serif" font-size="14" lengthAdjust="spacing" textLength="112" x="244" y="220.4746">&#34394;&#26500;&#20107;&#23454;&#65288;&#20316;&#20026;&#65289;</text><path d="M416,243.5508 L406,243.5508 C391,243.5508 391,214.7461 376,214.7461 L366,214.7461 " fill="none" style="stroke:#181818;stroke-width:1;"/><rect fill="#F1F1F1" height="37.6094" rx="12.5" ry="12.5" style="stroke:#181818;stroke-width:1.5;" width="146" x="220" y="253.5508"/><text fill="#000000" font-family="sans-serif" font-size="14" lengthAdjust="spacing" textLength="126" x="230" y="278.084">&#38544;&#30610;&#30495;&#30456;&#65288;&#19981;&#20316;&#20026;&#65289;</text><path d="M416,243.5508 L406,243.5508 C391,243.5508 391,272.3555 376,272.3555 L366,272.3555 " fill="none" style="stroke:#181818;stroke-width:1;"/><path d="M542,298.5898 L532,298.5898 C517,298.5898 517,243.5508 502,243.5508 L492,243.5508 " fill="none" style="stroke:#181818;stroke-width:1;"/><rect fill="#F1F1F1" height="37.6094" rx="12.5" ry="12.5" style="stroke:#181818;stroke-width:1.5;" width="76" x="416" y="368.7695"/><text fill="#000000" font-family="sans-serif" font-size="14" lengthAdjust="spacing" textLength="56" x="426" y="393.3027">&#27450;&#39575;&#31867;&#22411;</text><rect fill="#F1F1F1" height="37.6094" rx="12.5" ry="12.5" style="stroke:#181818;stroke-width:1.5;" width="202" x="164" y="311.1602"/><text fill="#000000" font-family="sans-serif" font-size="14" lengthAdjust="spacing" textLength="182" x="174" y="335.6934">&#20351;&#23545;&#26041;&#20174;&#26080;&#21040;&#26377;&#20135;&#29983;&#35748;&#35782;&#38169;&#35823;</text><path d="M416,387.5742 L406,387.5742 C391,387.5742 391,329.9648 376,329.9648 L366,329.9648 " fill="none" style="stroke:#181818;stroke-width:1;"/><rect fill="#F1F1F1" height="37.6094" rx="12.5" ry="12.5" style="stroke:#181818;stroke-width:1.5;" width="174" x="192" y="397.5742"/><text fill="#000000" font-family="sans-serif" font-size="14" lengthAdjust="spacing" textLength="154" x="202" y="422.1074">&#21033;&#29992;&#23545;&#26041;&#24050;&#26377;&#30340;&#35748;&#35782;&#38169;&#35823;</text><rect fill="#F1F1F1" height="37.6094" rx="12.5" ry="12.5" style="stroke:#181818;stroke-width:1.5;" width="118" x="24" y="368.7695"/><text fill="#000000" font-family="sans-serif" font-size="14" lengthAdjust="spacing" textLength="98" x="34" y="393.3027">&#26377;&#21578;&#30693;&#30495;&#30456;&#20041;&#21153;</text><path d="M192,416.3789 L182,416.3789 C167,416.3789 167,387.5742 152,387.5742 L142,387.5742 " fill="none" style="stroke:#181818;stroke-width:1;"/><rect fill="#F1F1F1" height="37.6094" rx="12.5" ry="12.5" style="stroke:#181818;stroke-width:1.5;" width="132" x="10" y="426.3789"/><text fill="#000000" font-family="sans-serif" font-size="14" lengthAdjust="spacing" textLength="112" x="20" y="450.9121">&#27809;&#26377;&#21578;&#30693;&#30495;&#30456;&#20041;&#21153;</text><path d="M192,416.3789 L182,416.3789 C167,416.3789 167,445.1836 152,445.1836 L142,445.1836 " fill="none" style="stroke:#181818;stroke-width:1;"/><path d="M416,387.5742 L406,387.5742 C391,387.5742 391,416.3789 376,416.3789 L366,416.3789 " fill="none" style="stroke:#181818;stroke-width:1;"/><path d="M542,298.5898 L532,298.5898 C517,298.5898 517,387.5742 502,387.5742 L492,387.5742 " fill="none" style="stroke:#181818;stroke-width:1;"/><rect fill="#F1F1F1" height="37.6094" rx="12.5" ry="12.5" style="stroke:#181818;stroke-width:1.5;" width="76" x="416" y="483.9883"/><text fill="#000000" font-family="sans-serif" font-size="14" lengthAdjust="spacing" textLength="56" x="426" y="508.5215">&#27450;&#39575;&#31243;&#24230;</text><rect fill="#F1F1F1" height="37.6094" rx="12.5" ry="12.5" style="stroke:#181818;stroke-width:1.5;" width="132" x="234" y="483.9883"/><text fill="#000000" font-family="sans-serif" font-size="14" lengthAdjust="spacing" textLength="112" x="244" y="508.5215">&#36275;&#20197;&#20351;&#19968;&#33324;&#20154;&#30456;&#20449;</text><path d="M416,502.793 L406,502.793 C391,502.793 391,502.793 376,502.793 L366,502.793 " fill="none" style="stroke:#181818;stroke-width:1;"/><path d="M542,298.5898 L532,298.5898 C517,298.5898 517,502.793 502,502.793 L492,502.793 " fill="none" style="stroke:#181818;stroke-width:1;"/><path d="M683.5654,298.5898 L673.5654,298.5898 C658.5654,298.5898 658.5654,298.5898 643.5654,298.5898 L633.5654,298.5898 " fill="none" style="stroke:#181818;stroke-width:1;"/><rect fill="#F1F1F1" height="37.6094" rx="12.5" ry="12.5" style="stroke:#181818;stroke-width:1.5;" width="91.5654" x="542" y="337.3945"/><text fill="#000000" font-family="sans-serif" font-size="14" lengthAdjust="spacing" textLength="71.5654" x="552" y="361.9277">4. &#21462;&#24471;&#36130;&#29289;</text><path d="M683.5654,298.5898 L673.5654,298.5898 C658.5654,298.5898 658.5654,356.1992 643.5654,356.1992 L633.5654,356.1992 " fill="none" style="stroke:#181818;stroke-width:1;"/><path d="M795.5654,298.5898 L785.5654,298.5898 C770.5654,298.5898 770.5654,298.5898 755.5654,298.5898 L745.5654,298.5898 " fill="none" style="stroke:#181818;stroke-width:1;"/><!--SRC=[xLXRJzjM77_tfpXJNw0IuJA6AeGG9GLj5LJLe7q_98VWulX4zacwg9e435YujBGRbq4P30GjXPO0HIq4KhwCZssU-0hxsqx00JlEtlO0GiW-_z__VlEXJMLOON5HZiPnGX2-4-M8b8mI50hLEhygIqkaDY5XcINZKes5h05eZNqU4k5C40GcCeaWyt1Toxqt9hD6Vhl6p6REjnVWwU8qew-CwfdNvhjXxUJBnUc48Dn5bsJKqaBYYG6iYcfhgo2HVePKCKe413ztaJwVvxkVjLpEVdVEwaD8_vW3RdDjMZkweXGuR18V7-ExnoKaXwpbflZk2iziwFEVlCWdN_dGgPaTXGVKSaSXqUPVcbizLUZpn_nqnaE6kRW43ZkAm7ajlmnMMcxVX9ullJPM_Z2MLustHnRqwAKtkgZJs3_XArDUTkVFUFOOJD9ENkaB__3CdhuyOILZTjNStJ2pu-UpYsOswy79Cn-CsIs7cNyz03PZQRGiJy6WvGd-Pj9OtNIiruud-EIQ7_PWBHX-wUFM5C-zyuhhby_QoIPugXqDcPcFK1IMeBCrLsaqXX2VcUVV5g0KZOaFWg28iO6IWZBNTsuKL4C8-JeCLetEw4D_cxzlwuTvyxSydtph5SNZKpvwvbCn3iGu-6PihXWBO_vrjPpZYrjW8KJ10tGNVG_kROpopBZZNcdhNDDcTo5qdR4pvS8rj7gPTXaKlfhJSg_SmJ27fjqgVH8C6T7_obwSJlFTTVFzY7OqQUNRuRlPfEvkd7RujAEJQtmGTZ32vVmF8NG-_8dFBEWlL_d6lhU_2-ldmoF1_jesMVwwYwLSN7PNpXV7ogW7uusHOxu_Pspa_DDI3DOsp-mumzBC7aBVyuqbVMxFVlQQ4lhSePR_iuHXxyqLWz16O7eN9tXRwK1liUTqgr0uU23Yc8BZw0Me2VL9IM8_8TIE8uCnXIRbQ9XAL46IrJSM7QY_MjWeLWQX87tW1MeH75C8aSj9jW4kT3e0d2vYgOBbc9_H3h48JIILXEG7TOX5gBzZBgSKglf9kzFPsTuU3XUHQI99zBaFrY7QK25Kh9FWMBdHTJvmTJ1jfyoDRIWVApUq7OuY0r1l5HaZncIga0hoXb2NA9FhvrSYAbHRLfGbJ9PfXCZCBpQo7NI4EgdCdAC-2J3Nf49p56oJ6GWJgOobi2B6YuvU8HcDOqOziOyLai0Ajax-2zlzFggmeAgfL1PZa5OMr2WLIWlJE7GByyjsWTDFd9KTcSGWOI3K7SnoGoSeKL524kvwBrNG0KEmJnBL0V-9vU8lrVPyG6JNO-EZvX5bmPfiho9fB5VWLGH72RjKXYCH-73nBUcIIHeakHywJNMrBxn7I3T-Hf81JKmbC46XKLS51hHGaSFMaw2goCGKkHznjSEDQOmbKgaZLov0Bd2WwBW82z0QtPNKL66BMSBLPDyp4h74-qK7fs3j4gL2kIcHGWVPeccGP2lk5OVxQf2NDcxvNYsfvS0L8S2Vbjh2byJjRU_sjdTxsxkzxTtUzlu7jxt7rl_bddHteHHHL6iBreSQwXeQG_UgUZ13ZsWArJUXklhcniRcnYOKxkb55hbQgEh-gHUfD0aV0IWAAr8H-vBMtgWM7k8KHZydOOl4IJEotgfwkwjHJqVn47N8AL6XSXmsX_3mQRS3GZzIrfEWp0OtDTQqYmpr40NCGa-xXGUa7oSb1gmH6XNbM3DwqjjPSq_eWWsJn35G13iz3Ak7AMcWzVmB]--></g></svg>