<svg xmlns="http://www.w3.org/2000/svg" xmlns:xlink="http://www.w3.org/1999/xlink" contentStyleType="text/css" height="463px" preserveAspectRatio="none" style="width:899px;height:463px;background:#FFFFFF;" version="1.1" viewBox="0 0 899 463" width="899px" zoomAndPan="magnify"><title>&#36130;&#20135;&#29359;&#32618;-&#30423;&#31363;&#32618;&#65288;&#32618;&#25968;&#38382;&#39064;&#65289;</title><defs/><g><text fill="#000000" font-family="sans-serif" font-size="14" font-weight="bold" lengthAdjust="spacing" textLength="192.3496" x="352.27" y="34.5332">&#36130;&#20135;&#29359;&#32618;-&#30423;&#31363;&#32618;&#65288;&#32618;&#25968;&#38382;&#39064;&#65289;</text><rect fill="#F1F1F1" height="37.6094" rx="12.5" ry="12.5" style="stroke:#181818;stroke-width:1.5;" width="62" x="10" y="231.4375"/><text fill="#000000" font-family="sans-serif" font-size="14" lengthAdjust="spacing" textLength="42" x="20" y="255.9707">&#30423;&#31363;&#32618;</text><rect fill="#F1F1F1" height="37.6094" rx="12.5" ry="12.5" style="stroke:#181818;stroke-width:1.5;" width="76" x="122" y="231.4375"/><text fill="#000000" font-family="sans-serif" font-size="14" lengthAdjust="spacing" textLength="56" x="132" y="255.9707">&#32618;&#25968;&#38382;&#39064;</text><rect fill="#F1F1F1" height="37.6094" rx="12.5" ry="12.5" style="stroke:#181818;stroke-width:1.5;" width="76" x="248" y="87.4141"/><text fill="#000000" font-family="sans-serif" font-size="14" lengthAdjust="spacing" textLength="56" x="258" y="111.9473">&#26222;&#36890;&#36130;&#29289;</text><rect fill="#F1F1F1" height="37.6094" rx="12.5" ry="12.5" style="stroke:#181818;stroke-width:1.5;" width="48" x="374" y="87.4141"/><text fill="#000000" font-family="sans-serif" font-size="14" lengthAdjust="spacing" textLength="28" x="384" y="111.9473">&#38144;&#36163;</text><rect fill="#F1F1F1" height="37.6094" rx="12.5" ry="12.5" style="stroke:#181818;stroke-width:1.5;" width="104" x="472" y="58.6094"/><text fill="#000000" font-family="sans-serif" font-size="14" lengthAdjust="spacing" textLength="84" x="482" y="83.1426">&#27809;&#26377;&#27450;&#39575;&#20080;&#23478;</text><rect fill="#90EE90" height="37.6094" rx="12.5" ry="12.5" style="stroke:#181818;stroke-width:1.5;" width="261.8896" x="626" y="58.6094"/><text fill="#000000" font-family="sans-serif" font-size="14" lengthAdjust="spacing" textLength="238" x="636" y="83.1426">&#38144;&#36163;&#34892;&#20026;&#65292;&#19981;&#20855;&#26377;&#26399;&#24453;&#21487;&#33021;&#24615;&#65292;&#19981;&#21487;&#32602;</text><path d="M576,77.4141 L586,77.4141 C601,77.4141 601,77.4141 616,77.4141 L626,77.4141 " fill="none" style="stroke:#181818;stroke-width:1;"/><path d="M422,106.2188 L432,106.2188 C447,106.2188 447,77.4141 462,77.4141 L472,77.4141 " fill="none" style="stroke:#181818;stroke-width:1;"/><rect fill="#F1F1F1" height="37.6094" rx="12.5" ry="12.5" style="stroke:#181818;stroke-width:1.5;" width="76" x="472" y="116.2188"/><text fill="#000000" font-family="sans-serif" font-size="14" lengthAdjust="spacing" textLength="56" x="482" y="140.752">&#27450;&#39575;&#20080;&#23478;</text><rect fill="#90EE90" height="37.6094" rx="12.5" ry="12.5" style="stroke:#181818;stroke-width:1.5;" width="65.8896" x="598" y="116.2188"/><text fill="#000000" font-family="sans-serif" font-size="14" lengthAdjust="spacing" textLength="42" x="608" y="140.752">&#35784;&#39575;&#32618;</text><rect fill="#90EE90" height="37.6094" rx="12.5" ry="12.5" style="stroke:#181818;stroke-width:1.5;" width="79.8896" x="713.8896" y="116.2188"/><text fill="#000000" font-family="sans-serif" font-size="14" lengthAdjust="spacing" textLength="56" x="723.8896" y="140.752">&#25968;&#32618;&#24182;&#32602;</text><path d="M663.8896,135.0234 L673.8896,135.0234 C688.8896,135.0234 688.8896,135.0234 703.8896,135.0234 L713.8896,135.0234 " fill="none" style="stroke:#181818;stroke-width:1;"/><path d="M548,135.0234 L558,135.0234 C573,135.0234 573,135.0234 588,135.0234 L598,135.0234 " fill="none" style="stroke:#181818;stroke-width:1;"/><path d="M422,106.2188 L432,106.2188 C447,106.2188 447,135.0234 462,135.0234 L472,135.0234 " fill="none" style="stroke:#181818;stroke-width:1;"/><path d="M324,106.2188 L334,106.2188 C349,106.2188 349,106.2188 364,106.2188 L374,106.2188 " fill="none" style="stroke:#181818;stroke-width:1;"/><path d="M198,250.2422 L208,250.2422 C223,250.2422 223,106.2188 238,106.2188 L248,106.2188 " fill="none" style="stroke:#181818;stroke-width:1;"/><rect fill="#F1F1F1" height="37.6094" rx="12.5" ry="12.5" style="stroke:#181818;stroke-width:1.5;" width="62" x="248" y="289.0469"/><text fill="#000000" font-family="sans-serif" font-size="14" lengthAdjust="spacing" textLength="42" x="258" y="313.5801">&#36829;&#31105;&#21697;</text><rect fill="#90EE90" height="37.6094" rx="12.5" ry="12.5" style="stroke:#181818;stroke-width:1.5;" width="79.8896" x="360" y="260.2422"/><text fill="#000000" font-family="sans-serif" font-size="14" lengthAdjust="spacing" textLength="56" x="370" y="284.7754">&#25968;&#32618;&#24182;&#32602;</text><rect fill="#F1F1F1" height="37.6094" rx="12.5" ry="12.5" style="stroke:#181818;stroke-width:1.5;" width="48" x="489.8896" y="173.8281"/><text fill="#000000" font-family="sans-serif" font-size="14" lengthAdjust="spacing" textLength="28" x="499.8896" y="198.3613">&#20551;&#24065;</text><path d="M439.8896,279.0469 L449.8896,279.0469 C464.8896,279.0469 464.8896,192.6328 479.8896,192.6328 L489.8896,192.6328 " fill="none" style="stroke:#181818;stroke-width:1;"/><rect fill="#F1F1F1" height="37.6094" rx="12.5" ry="12.5" style="stroke:#181818;stroke-width:1.5;" width="48" x="489.8896" y="231.4375"/><text fill="#000000" font-family="sans-serif" font-size="14" lengthAdjust="spacing" textLength="28" x="499.8896" y="255.9707">&#25991;&#29289;</text><path d="M439.8896,279.0469 L449.8896,279.0469 C464.8896,279.0469 464.8896,250.2422 479.8896,250.2422 L489.8896,250.2422 " fill="none" style="stroke:#181818;stroke-width:1;"/><rect fill="#F1F1F1" height="37.6094" rx="12.5" ry="12.5" style="stroke:#181818;stroke-width:1.5;" width="48" x="489.8896" y="289.0469"/><text fill="#000000" font-family="sans-serif" font-size="14" lengthAdjust="spacing" textLength="28" x="499.8896" y="313.5801">&#27602;&#21697;</text><path d="M439.8896,279.0469 L449.8896,279.0469 C464.8896,279.0469 464.8896,307.8516 479.8896,307.8516 L489.8896,307.8516 " fill="none" style="stroke:#181818;stroke-width:1;"/><rect fill="#F1F1F1" height="37.6094" rx="12.5" ry="12.5" style="stroke:#181818;stroke-width:1.5;" width="76" x="489.8896" y="346.6563"/><text fill="#000000" font-family="sans-serif" font-size="14" lengthAdjust="spacing" textLength="56" x="499.8896" y="371.1895">&#28139;&#31229;&#29289;&#21697;</text><path d="M439.8896,279.0469 L449.8896,279.0469 C464.8896,279.0469 464.8896,365.4609 479.8896,365.4609 L489.8896,365.4609 " fill="none" style="stroke:#181818;stroke-width:1;"/><path d="M310,307.8516 L320,307.8516 C335,307.8516 335,279.0469 350,279.0469 L360,279.0469 " fill="none" style="stroke:#181818;stroke-width:1;"/><rect fill="#90EE90" height="37.6094" rx="12.5" ry="12.5" style="stroke:#181818;stroke-width:1.5;" width="93.8896" x="360" y="404.2656"/><text fill="#000000" font-family="sans-serif" font-size="14" lengthAdjust="spacing" textLength="70" x="370" y="428.7988">&#30423;&#31363;&#26538;&#25903;&#32618;</text><rect fill="#F1F1F1" height="37.6094" rx="12.5" ry="12.5" style="stroke:#181818;stroke-width:1.5;" width="48" x="503.8896" y="404.2656"/><text fill="#000000" font-family="sans-serif" font-size="14" lengthAdjust="spacing" textLength="28" x="513.8896" y="428.7988">&#26538;&#25903;</text><path d="M453.8896,423.0703 L463.8896,423.0703 C478.8896,423.0703 478.8896,423.0703 493.8896,423.0703 L503.8896,423.0703 " fill="none" style="stroke:#181818;stroke-width:1;"/><path d="M310,307.8516 L320,307.8516 C335,307.8516 335,423.0703 350,423.0703 L360,423.0703 " fill="none" style="stroke:#181818;stroke-width:1;"/><path d="M198,250.2422 L208,250.2422 C223,250.2422 223,307.8516 238,307.8516 L248,307.8516 " fill="none" style="stroke:#181818;stroke-width:1;"/><path d="M72,250.2422 L82,250.2422 C97,250.2422 97,250.2422 112,250.2422 L122,250.2422 " fill="none" style="stroke:#181818;stroke-width:1;"/><!--SRC=[xLTRQnj757wVNp4bBtP1ygN216EC8yMc3LO8bPBtqUvaDV7kp38xgw26W8q9YKjBe4tY94rRaeUOkCKofSt5sEsViMvF_WizUxDMibUxUSbJX5YqvtpdEtEkkrfo597AObotY8tG5unhfgjJdCzF1Lz7DKqwPPk4AzSoSnuo1z2SByypa27uAAPCYdj_lpe-sEb-t-eUxUQwlsntTpVXrydX0xXs7k_tj_VwhvwU76uXz2K-LICC7xYFGNnH8Euys-klFmVYxjQRKt6WwZzQx_spEIGCRVvwsNcnrVdpeB-xVVnXlxttzWmepj1x-SFn-uEJGxZ-sBxtpZDzyNlxttljXwtUvb5dVITKFOImdkE51MhPTU8mPt7nFD_fNdkj1m21UCTpnJWVxmEw_U5jedyW_U_NxkkDziyRw6Dj1zZsnlts-utpWdfoVpJzeQBrqwZBKF7kZ-xE4HYTFL5G-Cvlkvr7hTGa09CFH6Y9Gej6RReqtBKBVZCkeb1mcH534WlV0RfypNIf_mlZ8j7M32bShfU4AIGscL5NdXwqTpsiJkIQf7e2FDH6O4DIoiSn-u0Okfa2RaPO8GataWuTA2EexKhRJ886oWYQ75WiA2cS9BOBAol5OgaK8PlKDCNj16oWzA4eRn76gtLgHSGhWgiA-uxYhwRFDJQ4gIFFCEgBz2J7qTC9S6UjwTSwZfqTd-Guj0WYhGuDcUampE12qWm5ntYLSJeg7r1aT3kMoYFZN6YKgwJSSBzQGMq2KSq4p0WhJ5LuDgw0Z0bEp99afvKT89MmY1BdOgz9QXD9FCd7c5sg2QdIsYqhbr9GLfKsOHdPIiA2CLD9rGuja-Yywd1gGC60D9xCSTighL0wfNQytuSTBCFsh9dCgIUlkfZziBVRTQP6SvFWvgfGwPxygBGcuHcYqeXErQapecbCJsxfeHMSndmJ9is9ZI_SQxHCRb4tPOXXLL4kXHxhm9GHYYnyFxPmc68DUacBZSEPDKvCcZMGGGXG2v9ARJ5uSdexFqjFXOy_ZznnQxUevj4dPOSqu7bDPKRU1XCmGJwrI6FsyfuvtOD5FZouusTrg9TJ7n48BWjJuIl8vtVXp-_2d_PT-9htr-nwUHKtg7IyKP_9pqxF5l8N9of4uQkYWMVcyFJCVA4mNvZ3fKeLU-f9D57-feeTuSAcmphi0SbghZSSa-WAQH3yhGkZOj5vxDrDLCkJkB8S2V4oRp0fk0NZWQxSA0SW_BLG5Lie7pnNo1MPmXKguLZuHXbTfZU9QoemrOJEk36FhrTNSXVHAeoHImnm18kh1FEbP1DqbVy1]--></g></svg>