<svg xmlns="http://www.w3.org/2000/svg" xmlns:xlink="http://www.w3.org/1999/xlink" contentStyleType="text/css" height="233px" preserveAspectRatio="none" style="width:1158px;height:233px;background:#FFFFFF;" version="1.1" viewBox="0 0 1158 233" width="1158px" zoomAndPan="magnify"><title>&#36130;&#20135;&#29359;&#32618; - &#36130;&#20135;&#24615;&#21033;&#30410; - &#23384;&#27454;&#38382;&#39064;</title><defs/><g><text fill="#000000" font-family="sans-serif" font-size="14" font-weight="bold" lengthAdjust="spacing" textLength="212.5703" x="471.415" y="34.5332">&#36130;&#20135;&#29359;&#32618; - &#36130;&#20135;&#24615;&#21033;&#30410; - &#23384;&#27454;&#38382;&#39064;</text><rect fill="#F1F1F1" height="57.7344" rx="12.5" ry="12.5" style="stroke:#181818;stroke-width:1.5;" width="88.335" x="657.8896" y="106.1563"/><text fill="#000000" font-family="sans-serif" font-size="30" lengthAdjust="spacing" textLength="60" x="667.8896" y="147.2988">&#20511;&#21345;</text><rect fill="#F1F1F1" height="37.6094" rx="12.5" ry="12.5" style="stroke:#181818;stroke-width:1.5;" width="118" x="796.2246" y="116.2188"/><text fill="#000000" font-family="sans-serif" font-size="14" lengthAdjust="spacing" textLength="98" x="806.2246" y="140.752">&#23384;&#27454;&#25351;&#21521;&#30340;&#29616;&#37329;</text><rect fill="#F1F1F1" height="37.6094" rx="12.5" ry="12.5" style="stroke:#181818;stroke-width:1.5;" width="84.1758" x="964.2246" y="116.2188"/><text fill="#000000" font-family="sans-serif" font-size="14" lengthAdjust="spacing" textLength="64.1758" x="974.2246" y="140.752">&#25152;&#26377;+&#21344;&#26377;</text><rect fill="#F1F1F1" height="37.6094" rx="12.5" ry="12.5" style="stroke:#181818;stroke-width:1.5;" width="48" x="1098.4004" y="116.2188"/><text fill="#000000" font-family="sans-serif" font-size="14" lengthAdjust="spacing" textLength="28" x="1108.4004" y="140.752">&#38134;&#34892;</text><path d="M1048.4004,135.0234 L1058.4004,135.0234 C1073.4004,135.0234 1073.4004,135.0234 1088.4004,135.0234 L1098.4004,135.0234 " fill="none" style="stroke:#181818;stroke-width:1;"/><path d="M914.2246,135.0234 L924.2246,135.0234 C939.2246,135.0234 939.2246,135.0234 954.2246,135.0234 L964.2246,135.0234 " fill="none" style="stroke:#181818;stroke-width:1;"/><path d="M746.2246,135.0234 L756.2246,135.0234 C771.2246,135.0234 771.2246,135.0234 786.2246,135.0234 L796.2246,135.0234 " fill="none" style="stroke:#181818;stroke-width:1;"/><rect fill="#F1F1F1" height="37.6094" rx="12.5" ry="12.5" style="stroke:#181818;stroke-width:1.5;" width="160" x="447.8896" y="116.2188"/><text fill="#000000" font-family="sans-serif" font-size="14" lengthAdjust="spacing" textLength="140" x="457.8896" y="140.752">&#23384;&#27454;&#20538;&#26435;&#65288;&#21345;&#37324;&#36164;&#37329;&#65289;</text><rect fill="#F1F1F1" height="37.6094" rx="12.5" ry="12.5" style="stroke:#181818;stroke-width:1.5;" width="48" x="349.8896" y="58.6094"/><text fill="#000000" font-family="sans-serif" font-size="14" lengthAdjust="spacing" textLength="28" x="359.8896" y="83.1426">&#25152;&#26377;</text><rect fill="#F1F1F1" height="37.6094" rx="12.5" ry="12.5" style="stroke:#181818;stroke-width:1.5;" width="34" x="265.8896" y="58.6094"/><text fill="#000000" font-family="sans-serif" font-size="14" lengthAdjust="spacing" textLength="14" x="275.8896" y="83.1426">&#20057;</text><path d="M349.8896,77.4141 L339.8896,77.4141 C324.8896,77.4141 324.8896,77.4141 309.8896,77.4141 L299.8896,77.4141 " fill="none" style="stroke:#181818;stroke-width:1;"/><path d="M447.8896,135.0234 L437.8896,135.0234 C422.8896,135.0234 422.8896,77.4141 407.8896,77.4141 L397.8896,77.4141 " fill="none" style="stroke:#181818;stroke-width:1;"/><rect fill="#F1F1F1" height="37.6094" rx="12.5" ry="12.5" style="stroke:#181818;stroke-width:1.5;" width="48" x="349.8896" y="145.0234"/><text fill="#000000" font-family="sans-serif" font-size="14" lengthAdjust="spacing" textLength="28" x="359.8896" y="169.5566">&#21344;&#26377;</text><rect fill="#90EE90" height="37.6094" rx="12.5" ry="12.5" style="stroke:#181818;stroke-width:1.5;" width="177.8896" x="122" y="116.2188"/><text fill="#000000" font-family="sans-serif" font-size="14" lengthAdjust="spacing" textLength="154" x="132" y="140.752">&#20107;&#23454;&#21344;&#26377;&#35828;&#65288;&#23454;&#36136;&#26631;&#20934;&#65289;</text><rect fill="#F1F1F1" height="37.6094" rx="12.5" ry="12.5" style="stroke:#181818;stroke-width:1.5;" width="34" x="38" y="116.2188"/><text fill="#000000" font-family="sans-serif" font-size="14" lengthAdjust="spacing" textLength="14" x="48" y="140.752">&#20057;</text><path d="M122,135.0234 L112,135.0234 C97,135.0234 97,135.0234 82,135.0234 L72,135.0234 " fill="none" style="stroke:#181818;stroke-width:1;"/><path d="M349.8896,163.8281 L339.8896,163.8281 C324.8896,163.8281 324.8896,135.0234 309.8896,135.0234 L299.8896,135.0234 " fill="none" style="stroke:#181818;stroke-width:1;"/><rect fill="#90EE90" height="37.6094" rx="12.5" ry="12.5" style="stroke:#181818;stroke-width:1.5;" width="177.8896" x="122" y="173.8281"/><text fill="#000000" font-family="sans-serif" font-size="14" lengthAdjust="spacing" textLength="154" x="132" y="198.3613">&#27861;&#24459;&#21344;&#26377;&#35828;&#65288;&#34892;&#20351;&#26631;&#20934;&#65289;</text><rect fill="#F1F1F1" height="37.6094" rx="12.5" ry="12.5" style="stroke:#181818;stroke-width:1.5;" width="62" x="10" y="173.8281"/><text fill="#000000" font-family="sans-serif" font-size="14" lengthAdjust="spacing" textLength="42" x="20" y="198.3613">&#21345;&#20027;&#30002;</text><path d="M122,192.6328 L112,192.6328 C97,192.6328 97,192.6328 82,192.6328 L72,192.6328 " fill="none" style="stroke:#181818;stroke-width:1;"/><path d="M349.8896,163.8281 L339.8896,163.8281 C324.8896,163.8281 324.8896,192.6328 309.8896,192.6328 L299.8896,192.6328 " fill="none" style="stroke:#181818;stroke-width:1;"/><path d="M447.8896,135.0234 L437.8896,135.0234 C422.8896,135.0234 422.8896,163.8281 407.8896,163.8281 L397.8896,163.8281 " fill="none" style="stroke:#181818;stroke-width:1;"/><path d="M657.8896,135.0234 L647.8896,135.0234 C632.8896,135.0234 632.8896,135.0234 617.8896,135.0234 L607.8896,135.0234 " fill="none" style="stroke:#181818;stroke-width:1;"/><!--SRC=[xLTRRnD757wVNp5LNnAGdKkj24LH56mIjIX6g3QyZtSdwo6xCwlPMIEtGee4ghc4ggYWqXi5NcYhDbHjMhKfq3-JzUM9lz0pUudN8UlTFYBLigpiETzyvtvci-Of8fN3kEaG5w5t63TitwIuN9wBlfxgsdJEjGbNlcENDB84q58eBpEG8QIOiYaUxZyzF7WskFryyF97N8eV-plFWfi_3Bw-3PBWvuVzdrwDljWRFNs8q2aSx7mNt7s2LrOSmdYpJHswkefikgMmnqoAC7nEnOU2dOF-jzTVlxW91qQztU7lDqQzUwzVt0f14R1_QwV_pLWG2G__-Z852Uu-FW5oS2VOUnIfXi_tjOszHyFzx_kFUq7l4x013bB7RHEFUU0VFlQPj16xyjk3uDMTDENmoUxXotyAKqAKXt_-FRZ_AvBCQf-GZ_vkB_Zitk2h6uDFVu5Cl966qoU6Elhy3t04eJKAvKvAlZRP0IjXOLTHB3Z7Y2M9Wpy6gdBBzcdu5yPLOcnRKlZSh0bRI6nhFxKUjDSqrYHoMr8p0nvh4x0bAUNJc4D02jtD0NSJh924MrbEHye4wlhIjREWaJA1PWUM2aeABuljtOsDQhLMIv1TQjlYQWOsKePGL3wQb1Yy8RXgi8yeVcyUQNtILVcvJAFdC-3UTZSiQHgxE3sNQMWLH4OR-gwGCypYGj82TSLuat5wN3wcA6XsAfKcurmObAkitF2mA5498b7B1imnLXYUs3UkW8m9JkoQP4S572ELS8WI9s8lIkeIIRJalnmxsn9IvNLLKIwbeAmgRv0AijM40zEaigeTdyoYqzNXr8A20MawcTEMKbwXJ4hTTBzF6bY79TcocTVEtcYfyvFMhhQPEfwR33CNXCgt54PbT0al49L1JAgEZ173W8iaiwKdDcqUynPCcfSQNtWsQ9rSeNxE40iRN932J7LWpWWb9q8xhl2OOXrwraYDmnlRcjYqQ23Z4A0M99VQON11wjLUfAVYMqwJUtxh2ZKqVLPsI0UkPIeBydQOW0aAgKKUiyvxuNIF5_dau4wVrObUphqY4FoipCLl6l-_FhxDhuyNzNy6b-gRk4EbfyTceRmulrWfdvbf48KlY0vUMCBp2ykLod9b2TSQJQpLisYc_a4JUyA7hO5Dc2d9Mhvkj5bqddG8_j27jdFeCjPFCytwB6wi9qAypZjC2kv0gw7pb-iH2BylLCCLAWGlLKfLfd23Id0BNwwZStIB-BQ2euOm6RUMyQNcHkaCseIMz8a5Xc09rA1NbUo2hl4l]--></g></svg>