<svg xmlns="http://www.w3.org/2000/svg" xmlns:xlink="http://www.w3.org/1999/xlink" contentStyleType="text/css" height="990px" preserveAspectRatio="none" style="width:2027px;height:990px;background:#FFFFFF;" version="1.1" viewBox="0 0 2027 990" width="2027px" zoomAndPan="magnify"><title>&#36130;&#20135;&#29359;&#32618;-&#32844;&#21153;&#20405;&#21344;&#32618;&#65288;&#26500;&#25104;&#35201;&#20214;&#65289;</title><defs/><g><text fill="#000000" font-family="sans-serif" font-size="14" font-weight="bold" lengthAdjust="spacing" textLength="221.2246" x="901.5615" y="34.5332">&#36130;&#20135;&#29359;&#32618;-&#32844;&#21153;&#20405;&#21344;&#32618;&#65288;&#26500;&#25104;&#35201;&#20214;&#65289;</text><rect fill="#90EE90" height="37.6094" rx="12.5" ry="12.5" style="stroke:#181818;stroke-width:1.5;" width="93.8896" x="1630.5684" y="494.5352"/><text fill="#000000" font-family="sans-serif" font-size="14" lengthAdjust="spacing" textLength="70" x="1640.5684" y="519.0684">&#32844;&#21153;&#20405;&#21344;&#32618;</text><rect fill="#F1F1F1" height="37.6094" rx="12.5" ry="12.5" style="stroke:#181818;stroke-width:1.5;" width="76" x="1774.458" y="494.5352"/><text fill="#000000" font-family="sans-serif" font-size="14" lengthAdjust="spacing" textLength="56" x="1784.458" y="519.0684">&#34892;&#20026;&#23545;&#35937;</text><rect fill="#F1F1F1" height="37.6094" rx="12.5" ry="12.5" style="stroke:#181818;stroke-width:1.5;" width="90" x="1900.458" y="431.7852"/><text fill="#000000" font-family="sans-serif" font-size="14" lengthAdjust="spacing" textLength="70" x="1910.458" y="456.3184">&#21333;&#20301;&#30340;&#36130;&#20135;</text><path d="M1850.458,513.3398 L1860.458,513.3398 C1875.458,513.3398 1875.458,450.5898 1890.458,450.5898 L1900.458,450.5898 " fill="none" style="stroke:#181818;stroke-width:1;"/><rect fill="#F1F1F1" height="42.75" rx="12.5" ry="12.5" style="stroke:#181818;stroke-width:1.5;" width="114.8896" x="1900.458" y="489.3945"/><text fill="#000000" font-family="sans-serif" font-size="14" lengthAdjust="spacing" textLength="70" x="1910.458" y="519.0684">&#22269;&#23478;&#30340;&#36130;&#20135;</text><path d="M1996.9086,509.8957 L2004.0457,502.7592 C2004.615,502.1899 2004.615,501.2664 2004.0457,500.6971 C2003.4757,500.1272 2002.5529,500.1272 2001.9836,500.6971 L1994.8465,507.8336 L1987.71,500.6971 C1987.1407,500.1272 1986.2167,500.1272 1985.6479,500.6971 C1985.078,501.2664 1985.078,502.1899 1985.6479,502.7592 L1992.7844,509.8957 L1985.6316,517.0491 C1985.0617,517.619 1985.0617,518.5419 1985.6316,519.1112 C1985.9162,519.3959 1986.2896,519.5382 1986.6629,519.5382 C1987.0362,519.5382 1987.4096,519.3959 1987.6942,519.1112 L1994.8471,511.9578 L2001.9836,519.0943 C2002.2682,519.3789 2002.6416,519.5213 2003.0149,519.5213 C2003.3882,519.5213 2003.761,519.3789 2004.0462,519.0943 C2004.6156,518.5244 2004.6156,517.6015 2004.0462,517.0322 L1996.9086,509.8957 " fill="#FE0000" style="stroke:;stroke-width:0;stroke-dasharray:;"/><path d="M1850.458,513.3398 L1860.458,513.3398 C1875.458,513.3398 1875.458,510.7695 1890.458,510.7695 L1900.458,510.7695 " fill="none" style="stroke:#181818;stroke-width:1;"/><rect fill="#F1F1F1" height="42.75" rx="12.5" ry="12.5" style="stroke:#181818;stroke-width:1.5;" width="114.8896" x="1900.458" y="552.1445"/><text fill="#000000" font-family="sans-serif" font-size="14" lengthAdjust="spacing" textLength="70" x="1910.458" y="581.8184">&#20010;&#20154;&#30340;&#36130;&#20135;</text><path d="M1996.9086,572.6457 L2004.0457,565.5092 C2004.615,564.9399 2004.615,564.0164 2004.0457,563.4471 C2003.4757,562.8772 2002.5529,562.8772 2001.9836,563.4471 L1994.8465,570.5836 L1987.71,563.4471 C1987.1407,562.8772 1986.2167,562.8772 1985.6479,563.4471 C1985.078,564.0164 1985.078,564.9399 1985.6479,565.5092 L1992.7844,572.6457 L1985.6316,579.7991 C1985.0617,580.369 1985.0617,581.2919 1985.6316,581.8612 C1985.9162,582.1459 1986.2896,582.2882 1986.6629,582.2882 C1987.0362,582.2882 1987.4096,582.1459 1987.6942,581.8612 L1994.8471,574.7078 L2001.9836,581.8443 C2002.2682,582.1289 2002.6416,582.2713 2003.0149,582.2713 C2003.3882,582.2713 2003.761,582.1289 2004.0462,581.8443 C2004.6156,581.2744 2004.6156,580.3515 2004.0462,579.7822 L1996.9086,572.6457 " fill="#FE0000" style="stroke:;stroke-width:0;stroke-dasharray:;"/><path d="M1850.458,513.3398 L1860.458,513.3398 C1875.458,513.3398 1875.458,573.5195 1890.458,573.5195 L1900.458,573.5195 " fill="none" style="stroke:#181818;stroke-width:1;"/><path d="M1724.458,513.3398 L1734.458,513.3398 C1749.458,513.3398 1749.458,513.3398 1764.458,513.3398 L1774.458,513.3398 " fill="none" style="stroke:#181818;stroke-width:1;"/><rect fill="#F1F1F1" height="37.6094" rx="12.5" ry="12.5" style="stroke:#181818;stroke-width:1.5;" width="76" x="1504.5684" y="118.7891"/><text fill="#000000" font-family="sans-serif" font-size="14" lengthAdjust="spacing" textLength="56" x="1514.5684" y="143.3223">&#34892;&#20026;&#20027;&#20307;</text><rect fill="#F1F1F1" height="37.6094" rx="12.5" ry="12.5" style="stroke:#181818;stroke-width:1.5;" width="118" x="1336.5684" y="58.6094"/><text fill="#000000" font-family="sans-serif" font-size="14" lengthAdjust="spacing" textLength="98" x="1346.5684" y="83.1426">&#38750;&#22269;&#23478;&#24037;&#20316;&#20154;&#21592;</text><path d="M1504.5684,137.5938 L1494.5684,137.5938 C1479.5684,137.5938 1479.5684,77.4141 1464.5684,77.4141 L1454.5684,77.4141 " fill="none" style="stroke:#181818;stroke-width:1;"/><rect fill="#F1F1F1" height="42.75" rx="12.5" ry="12.5" style="stroke:#181818;stroke-width:1.5;" width="128.8896" x="1325.6787" y="116.2188"/><text fill="#000000" font-family="sans-serif" font-size="14" lengthAdjust="spacing" textLength="84" x="1335.6787" y="145.8926">&#22269;&#23478;&#24037;&#20316;&#20154;&#21592;</text><path d="M1436.1293,136.7199 L1443.2664,129.5834 C1443.8357,129.0141 1443.8357,128.0907 1443.2664,127.5213 C1442.6964,126.9514 1441.7736,126.9514 1441.2043,127.5213 L1434.0672,134.6578 L1426.9307,127.5213 C1426.3614,126.9514 1425.4374,126.9514 1424.8686,127.5213 C1424.2987,128.0907 1424.2987,129.0141 1424.8686,129.5834 L1432.0051,136.7199 L1424.8523,143.8733 C1424.2824,144.4433 1424.2824,145.3661 1424.8523,145.9354 C1425.1369,146.2201 1425.5103,146.3624 1425.8836,146.3624 C1426.2569,146.3624 1426.6303,146.2201 1426.9149,145.9354 L1434.0678,138.782 L1441.2043,145.9185 C1441.4889,146.2032 1441.8623,146.3455 1442.2356,146.3455 C1442.6089,146.3455 1442.9817,146.2032 1443.2669,145.9185 C1443.8363,145.3486 1443.8363,144.4258 1443.2669,143.8564 L1436.1293,136.7199 " fill="#FE0000" style="stroke:;stroke-width:0;stroke-dasharray:;"/><path d="M1504.5684,137.5938 L1494.5684,137.5938 C1479.5684,137.5938 1479.5684,137.5938 1464.5684,137.5938 L1454.5684,137.5938 " fill="none" style="stroke:#181818;stroke-width:1;"/><rect fill="#90EE90" height="37.6094" rx="12.5" ry="12.5" style="stroke:#181818;stroke-width:1.5;" width="79.8896" x="1374.6787" y="178.9688"/><text fill="#000000" font-family="sans-serif" font-size="14" lengthAdjust="spacing" textLength="56" x="1384.6787" y="203.502">&#21028;&#26029;&#26631;&#20934;</text><rect fill="#F1F1F1" height="37.6094" rx="12.5" ry="12.5" style="stroke:#181818;stroke-width:1.5;" width="104" x="1220.6787" y="178.9688"/><text fill="#000000" font-family="sans-serif" font-size="14" lengthAdjust="spacing" textLength="84" x="1230.6787" y="203.502">&#26159;&#21542;&#20174;&#20107;&#20844;&#21153;</text><rect fill="#F1F1F1" height="37.6094" rx="12.5" ry="12.5" style="stroke:#181818;stroke-width:1.5;" width="48" x="1122.6787" y="178.9688"/><text fill="#000000" font-family="sans-serif" font-size="14" lengthAdjust="spacing" textLength="28" x="1132.6787" y="203.502">&#26449;&#38271;</text><path d="M1220.6787,197.7734 L1210.6787,197.7734 C1195.6787,197.7734 1195.6787,197.7734 1180.6787,197.7734 L1170.6787,197.7734 " fill="none" style="stroke:#181818;stroke-width:1;"/><path d="M1374.6787,197.7734 L1364.6787,197.7734 C1349.6787,197.7734 1349.6787,197.7734 1334.6787,197.7734 L1324.6787,197.7734 " fill="none" style="stroke:#181818;stroke-width:1;"/><path d="M1504.5684,137.5938 L1494.5684,137.5938 C1479.5684,137.5938 1479.5684,197.7734 1464.5684,197.7734 L1454.5684,197.7734 " fill="none" style="stroke:#181818;stroke-width:1;"/><path d="M1630.5684,513.3398 L1620.5684,513.3398 C1605.5684,513.3398 1605.5684,137.5938 1590.5684,137.5938 L1580.5684,137.5938 " fill="none" style="stroke:#181818;stroke-width:1;"/><rect fill="#F1F1F1" height="37.6094" rx="12.5" ry="12.5" style="stroke:#181818;stroke-width:1.5;" width="76" x="1504.5684" y="583.5195"/><text fill="#000000" font-family="sans-serif" font-size="14" lengthAdjust="spacing" textLength="56" x="1514.5684" y="608.0527">&#23454;&#34892;&#34892;&#20026;</text><rect fill="#F1F1F1" height="37.6094" rx="12.5" ry="12.5" style="stroke:#181818;stroke-width:1.5;" width="136.6963" x="1317.8721" y="583.5195"/><text fill="#000000" font-family="sans-serif" font-size="14" lengthAdjust="spacing" textLength="116.6963" x="1327.8721" y="608.0527">&#35266;&#28857;&#23637;&#31034;&#65288;P278&#65289;</text><rect fill="#F1F1F1" height="37.6094" rx="12.5" ry="12.5" style="stroke:#181818;stroke-width:1.5;" width="62" x="1205.8721" y="554.7148"/><text fill="#000000" font-family="sans-serif" font-size="14" lengthAdjust="spacing" textLength="42" x="1215.8721" y="579.248">&#22810;&#25968;&#35828;</text><rect fill="#F1F1F1" height="37.6094" rx="12.5" ry="12.5" style="stroke:#181818;stroke-width:1.5;" width="48" x="1107.8721" y="236.5781"/><text fill="#000000" font-family="sans-serif" font-size="14" lengthAdjust="spacing" textLength="28" x="1117.8721" y="261.1113">&#21319;&#32423;</text><rect fill="#90EE90" height="37.6094" rx="12.5" ry="12.5" style="stroke:#181818;stroke-width:1.5;" width="225.748" x="832.124" y="236.5781"/><text fill="#000000" font-family="sans-serif" font-size="14" lengthAdjust="spacing" textLength="201.8584" x="842.124" y="261.1113">&#20405;&#21344;&#12289;&#30423;&#31363;&#12289;&#35784;&#39575; &#8594; &#32844;&#21153;&#20405;&#21344;&#32618;</text><path d="M1107.8721,255.3828 L1097.8721,255.3828 C1082.8721,255.3828 1082.8721,255.3828 1067.8721,255.3828 L1057.8721,255.3828 " fill="none" style="stroke:#181818;stroke-width:1;"/><path d="M1205.8721,573.5195 L1195.8721,573.5195 C1180.8721,573.5195 1180.8721,255.3828 1165.8721,255.3828 L1155.8721,255.3828 " fill="none" style="stroke:#181818;stroke-width:1;"/><rect fill="#F1F1F1" height="37.6094" rx="12.5" ry="12.5" style="stroke:#181818;stroke-width:1.5;" width="54.6309" x="1101.2412" y="583.5195"/><text fill="#000000" font-family="sans-serif" font-size="14" lengthAdjust="spacing" textLength="34.6309" x="1111.2412" y="608.0527">A + B</text><rect fill="#F1F1F1" height="37.6094" rx="12.5" ry="12.5" style="stroke:#181818;stroke-width:1.5;" width="29.3379" x="1021.9033" y="294.1875"/><text fill="#000000" font-family="sans-serif" font-size="14" lengthAdjust="spacing" textLength="9.3379" x="1031.9033" y="318.7207">A</text><rect fill="#F1F1F1" height="37.6094" rx="12.5" ry="12.5" style="stroke:#181818;stroke-width:1.5;" width="132" x="839.9033" y="294.1875"/><text fill="#000000" font-family="sans-serif" font-size="14" lengthAdjust="spacing" textLength="112" x="849.9033" y="318.7207">&#20405;&#21344;&#12289;&#30423;&#31363;&#12289;&#35784;&#39575;</text><path d="M1021.9033,312.9922 L1011.9033,312.9922 C996.9033,312.9922 996.9033,312.9922 981.9033,312.9922 L971.9033,312.9922 " fill="none" style="stroke:#181818;stroke-width:1;"/><path d="M1101.2412,602.3242 L1091.2412,602.3242 C1076.2412,602.3242 1076.2412,312.9922 1061.2412,312.9922 L1051.2412,312.9922 " fill="none" style="stroke:#181818;stroke-width:1;"/><rect fill="#F1F1F1" height="37.6094" rx="12.5" ry="12.5" style="stroke:#181818;stroke-width:1.5;" width="29.3379" x="1021.9033" y="612.3242"/><text fill="#000000" font-family="sans-serif" font-size="14" lengthAdjust="spacing" textLength="9.3379" x="1031.9033" y="636.8574">B</text><rect fill="#F1F1F1" height="37.6094" rx="12.5" ry="12.5" style="stroke:#181818;stroke-width:1.5;" width="37.124" x="934.7793" y="351.7969"/><text fill="#000000" font-family="sans-serif" font-size="14" lengthAdjust="spacing" textLength="17.124" x="944.7793" y="376.3301">B1</text><rect fill="#F1F1F1" height="37.6094" rx="12.5" ry="12.5" style="stroke:#181818;stroke-width:1.5;" width="76" x="808.7793" y="351.7969"/><text fill="#000000" font-family="sans-serif" font-size="14" lengthAdjust="spacing" textLength="56" x="818.7793" y="376.3301">&#34892;&#20026;&#20027;&#20307;</text><rect fill="#F1F1F1" height="37.6094" rx="12.5" ry="12.5" style="stroke:#181818;stroke-width:1.5;" width="118" x="640.7793" y="351.7969"/><text fill="#000000" font-family="sans-serif" font-size="14" lengthAdjust="spacing" textLength="98" x="650.7793" y="376.3301">&#38750;&#22269;&#23478;&#24037;&#20316;&#20154;&#21592;</text><path d="M808.7793,370.6016 L798.7793,370.6016 C783.7793,370.6016 783.7793,370.6016 768.7793,370.6016 L758.7793,370.6016 " fill="none" style="stroke:#181818;stroke-width:1;"/><path d="M934.7793,370.6016 L924.7793,370.6016 C909.7793,370.6016 909.7793,370.6016 894.7793,370.6016 L884.7793,370.6016 " fill="none" style="stroke:#181818;stroke-width:1;"/><path d="M1021.9033,631.1289 L1011.9033,631.1289 C996.9033,631.1289 996.9033,370.6016 981.9033,370.6016 L971.9033,370.6016 " fill="none" style="stroke:#181818;stroke-width:1;"/><rect fill="#F1F1F1" height="37.6094" rx="12.5" ry="12.5" style="stroke:#181818;stroke-width:1.5;" width="37.124" x="934.7793" y="409.4063"/><text fill="#000000" font-family="sans-serif" font-size="14" lengthAdjust="spacing" textLength="17.124" x="944.7793" y="433.9395">B2</text><rect fill="#F1F1F1" height="37.6094" rx="12.5" ry="12.5" style="stroke:#181818;stroke-width:1.5;" width="76" x="808.7793" y="409.4063"/><text fill="#000000" font-family="sans-serif" font-size="14" lengthAdjust="spacing" textLength="56" x="818.7793" y="433.9395">&#34892;&#20026;&#23545;&#35937;</text><rect fill="#F1F1F1" height="37.6094" rx="12.5" ry="12.5" style="stroke:#181818;stroke-width:1.5;" width="90" x="668.7793" y="409.4063"/><text fill="#000000" font-family="sans-serif" font-size="14" lengthAdjust="spacing" textLength="70" x="678.7793" y="433.9395">&#21333;&#20301;&#30340;&#36130;&#20135;</text><path d="M808.7793,428.2109 L798.7793,428.2109 C783.7793,428.2109 783.7793,428.2109 768.7793,428.2109 L758.7793,428.2109 " fill="none" style="stroke:#181818;stroke-width:1;"/><path d="M934.7793,428.2109 L924.7793,428.2109 C909.7793,428.2109 909.7793,428.2109 894.7793,428.2109 L884.7793,428.2109 " fill="none" style="stroke:#181818;stroke-width:1;"/><path d="M1021.9033,631.1289 L1011.9033,631.1289 C996.9033,631.1289 996.9033,428.2109 981.9033,428.2109 L971.9033,428.2109 " fill="none" style="stroke:#181818;stroke-width:1;"/><rect fill="#F1F1F1" height="37.6094" rx="12.5" ry="12.5" style="stroke:#181818;stroke-width:1.5;" width="37.124" x="934.7793" y="669.9336"/><text fill="#000000" font-family="sans-serif" font-size="14" lengthAdjust="spacing" textLength="17.124" x="944.7793" y="694.4668">B3</text><rect fill="#F1F1F1" height="37.6094" rx="12.5" ry="12.5" style="stroke:#181818;stroke-width:1.5;" width="76" x="808.7793" y="669.9336"/><text fill="#000000" font-family="sans-serif" font-size="14" lengthAdjust="spacing" textLength="56" x="818.7793" y="694.4668">&#34892;&#20026;&#26041;&#24335;</text><rect fill="#F1F1F1" height="37.6094" rx="12.5" ry="12.5" style="stroke:#181818;stroke-width:1.5;" width="104" x="654.7793" y="669.9336"/><text fill="#000000" font-family="sans-serif" font-size="14" lengthAdjust="spacing" textLength="84" x="664.7793" y="694.4668">&#21033;&#29992;&#32844;&#21153;&#20415;&#21033;</text><rect fill="#90EE90" height="37.6094" rx="12.5" ry="12.5" style="stroke:#181818;stroke-width:1.5;" width="51.8896" x="552.8896" y="582.2344"/><text fill="#000000" font-family="sans-serif" font-size="14" lengthAdjust="spacing" textLength="28" x="562.8896" y="606.7676">&#32844;&#21153;</text><rect fill="#F1F1F1" height="37.6094" rx="12.5" ry="12.5" style="stroke:#181818;stroke-width:1.5;" width="174" x="328.8896" y="495.8203"/><text fill="#000000" font-family="sans-serif" font-size="14" lengthAdjust="spacing" textLength="154" x="338.8896" y="520.3535">&#20855;&#26377;&#19968;&#23450;&#31649;&#29702;&#26435;&#38480;&#30340;&#32844;&#21153;</text><rect fill="#F1F1F1" height="37.6094" rx="12.5" ry="12.5" style="stroke:#181818;stroke-width:1.5;" width="90" x="188.8896" y="467.0156"/><text fill="#000000" font-family="sans-serif" font-size="14" lengthAdjust="spacing" textLength="70" x="198.8896" y="491.5488">&#20179;&#24211;&#31649;&#29702;&#21592;</text><path d="M328.8896,514.625 L318.8896,514.625 C303.8896,514.625 303.8896,485.8203 288.8896,485.8203 L278.8896,485.8203 " fill="none" style="stroke:#181818;stroke-width:1;"/><rect fill="#F1F1F1" height="37.6094" rx="12.5" ry="12.5" style="stroke:#181818;stroke-width:1.5;" width="90" x="188.8896" y="524.625"/><text fill="#000000" font-family="sans-serif" font-size="14" lengthAdjust="spacing" textLength="70" x="198.8896" y="549.1582">&#20135;&#21697;&#36136;&#26816;&#21592;</text><path d="M328.8896,514.625 L318.8896,514.625 C303.8896,514.625 303.8896,543.4297 288.8896,543.4297 L278.8896,543.4297 " fill="none" style="stroke:#181818;stroke-width:1;"/><path d="M552.8896,601.0391 L542.8896,601.0391 C527.8896,601.0391 527.8896,514.625 512.8896,514.625 L502.8896,514.625 " fill="none" style="stroke:#181818;stroke-width:1;"/><rect fill="#F1F1F1" height="42.75" rx="12.5" ry="12.5" style="stroke:#181818;stroke-width:1.5;" width="156.8896" x="346" y="637.2734"/><text fill="#000000" font-family="sans-serif" font-size="14" lengthAdjust="spacing" textLength="112" x="356" y="666.9473">&#32431;&#31929;&#30340;&#20307;&#21147;&#24615;&#21171;&#21153;</text><path d="M484.4506,657.7746 L491.5876,650.6381 C492.157,650.0688 492.157,649.1454 491.5876,648.576 C491.0177,648.0061 490.0949,648.0061 489.5256,648.576 L482.3885,655.7125 L475.252,648.576 C474.6826,648.0061 473.7586,648.0061 473.1899,648.576 C472.62,649.1454 472.62,650.0688 473.1899,650.6381 L480.3264,657.7746 L473.1736,664.928 C472.6036,665.4979 472.6036,666.4208 473.1736,666.9901 C473.4582,667.2748 473.8316,667.4171 474.2049,667.4171 C474.5782,667.4171 474.9516,667.2748 475.2362,666.9901 L482.3891,659.8367 L489.5256,666.9732 C489.8102,667.2579 490.1836,667.4002 490.5569,667.4002 C490.9302,667.4002 491.303,667.2579 491.5882,666.9732 C492.1576,666.4033 492.1576,665.4804 491.5882,664.9111 L484.4506,657.7746 " fill="#FE0000" style="stroke:;stroke-width:0;stroke-dasharray:;"/><rect fill="#F1F1F1" height="37.6094" rx="12.5" ry="12.5" style="stroke:#181818;stroke-width:1.5;" width="62" x="234" y="582.2344"/><text fill="#000000" font-family="sans-serif" font-size="14" lengthAdjust="spacing" textLength="42" x="244" y="606.7676">&#35013;&#21368;&#24037;</text><path d="M346,658.6484 L336,658.6484 C321,658.6484 321,601.0391 306,601.0391 L296,601.0391 " fill="none" style="stroke:#181818;stroke-width:1;"/><rect fill="#F1F1F1" height="37.6094" rx="12.5" ry="12.5" style="stroke:#181818;stroke-width:1.5;" width="62" x="234" y="639.8438"/><text fill="#000000" font-family="sans-serif" font-size="14" lengthAdjust="spacing" textLength="42" x="244" y="664.377">&#25644;&#36816;&#24037;</text><path d="M346,658.6484 L336,658.6484 C321,658.6484 321,658.6484 306,658.6484 L296,658.6484 " fill="none" style="stroke:#181818;stroke-width:1;"/><rect fill="#F1F1F1" height="37.6094" rx="12.5" ry="12.5" style="stroke:#181818;stroke-width:1.5;" width="62" x="234" y="697.4531"/><text fill="#000000" font-family="sans-serif" font-size="14" lengthAdjust="spacing" textLength="42" x="244" y="721.9863">&#20998;&#25315;&#21592;</text><path d="M346,658.6484 L336,658.6484 C321,658.6484 321,716.2578 306,716.2578 L296,716.2578 " fill="none" style="stroke:#181818;stroke-width:1;"/><path d="M552.8896,601.0391 L542.8896,601.0391 C527.8896,601.0391 527.8896,658.6484 512.8896,658.6484 L502.8896,658.6484 " fill="none" style="stroke:#181818;stroke-width:1;"/><path d="M654.7793,688.7383 L644.7793,688.7383 C629.7793,688.7383 629.7793,601.0391 614.7793,601.0391 L604.7793,601.0391 " fill="none" style="stroke:#181818;stroke-width:1;"/><rect fill="#90EE90" height="37.6094" rx="12.5" ry="12.5" style="stroke:#181818;stroke-width:1.5;" width="51.8896" x="552.8896" y="813.957"/><text fill="#000000" font-family="sans-serif" font-size="14" lengthAdjust="spacing" textLength="28" x="562.8896" y="838.4902">&#21033;&#29992;</text><rect fill="#F1F1F1" height="37.6094" rx="12.5" ry="12.5" style="stroke:#181818;stroke-width:1.5;" width="90" x="412.8896" y="755.0625"/><text fill="#000000" font-family="sans-serif" font-size="14" lengthAdjust="spacing" textLength="70" x="422.8896" y="779.5957">&#23454;&#36136;&#30340;&#21033;&#29992;</text><path d="M552.8896,832.7617 L542.8896,832.7617 C527.8896,832.7617 527.8896,773.8672 512.8896,773.8672 L502.8896,773.8672 " fill="none" style="stroke:#181818;stroke-width:1;"/><rect fill="#F1F1F1" height="42.75" rx="12.5" ry="12.5" style="stroke:#181818;stroke-width:1.5;" width="114.8896" x="388" y="812.6719"/><text fill="#000000" font-family="sans-serif" font-size="14" lengthAdjust="spacing" textLength="70" x="398" y="842.3457">&#24418;&#24335;&#30340;&#21033;&#29992;</text><path d="M484.4506,833.173 L491.5876,826.0365 C492.157,825.4672 492.157,824.5438 491.5876,823.9745 C491.0177,823.4045 490.0949,823.4045 489.5256,823.9745 L482.3885,831.111 L475.252,823.9745 C474.6826,823.4045 473.7586,823.4045 473.1899,823.9745 C472.62,824.5438 472.62,825.4672 473.1899,826.0365 L480.3264,833.173 L473.1736,840.3265 C472.6036,840.8964 472.6036,841.8192 473.1736,842.3885 C473.4582,842.6732 473.8316,842.8155 474.2049,842.8155 C474.5782,842.8155 474.9516,842.6732 475.2362,842.3885 L482.3891,835.2351 L489.5256,842.3716 C489.8102,842.6563 490.1836,842.7986 490.5569,842.7986 C490.9302,842.7986 491.303,842.6563 491.5882,842.3716 C492.1576,841.8017 492.1576,840.8789 491.5882,840.3095 L484.4506,833.173 " fill="#FE0000" style="stroke:;stroke-width:0;stroke-dasharray:;"/><rect fill="#F1F1F1" height="37.6094" rx="12.5" ry="12.5" style="stroke:#181818;stroke-width:1.5;" width="90" x="248" y="815.2422"/><text fill="#000000" font-family="sans-serif" font-size="14" lengthAdjust="spacing" textLength="70" x="258" y="839.7754">&#22240;&#24037;&#20316;&#20851;&#31995;</text><rect fill="#F1F1F1" height="37.6094" rx="12.5" ry="12.5" style="stroke:#181818;stroke-width:1.5;" width="160" x="38" y="757.6328"/><text fill="#000000" font-family="sans-serif" font-size="14" lengthAdjust="spacing" textLength="140" x="48" y="782.166">&#29087;&#24713;&#20316;&#26696;&#29615;&#22659;&#65288;&#29615;&#22659;&#65289;</text><path d="M248,834.0469 L238,834.0469 C223,834.0469 223,776.4375 208,776.4375 L198,776.4375 " fill="none" style="stroke:#181818;stroke-width:1;"/><rect fill="#F1F1F1" height="37.6094" rx="12.5" ry="12.5" style="stroke:#181818;stroke-width:1.5;" width="174" x="24" y="815.2422"/><text fill="#000000" font-family="sans-serif" font-size="14" lengthAdjust="spacing" textLength="154" x="34" y="839.7754">&#26131;&#20110;&#25509;&#36817;&#20316;&#26696;&#30446;&#26631;&#65288;&#29289;&#65289;</text><path d="M248,834.0469 L238,834.0469 C223,834.0469 223,834.0469 208,834.0469 L198,834.0469 " fill="none" style="stroke:#181818;stroke-width:1;"/><rect fill="#F1F1F1" height="37.6094" rx="12.5" ry="12.5" style="stroke:#181818;stroke-width:1.5;" width="188" x="10" y="872.8516"/><text fill="#000000" font-family="sans-serif" font-size="14" lengthAdjust="spacing" textLength="168" x="20" y="897.3848">&#23481;&#26131;&#36827;&#20837;&#20316;&#26696;&#22330;&#25152;&#65288;&#31354;&#38388;&#65289;</text><path d="M248,834.0469 L238,834.0469 C223,834.0469 223,891.6563 208,891.6563 L198,891.6563 " fill="none" style="stroke:#181818;stroke-width:1;"/><path d="M388,834.0469 L378,834.0469 C363,834.0469 363,834.0469 348,834.0469 L338,834.0469 " fill="none" style="stroke:#181818;stroke-width:1;"/><path d="M552.8896,832.7617 L542.8896,832.7617 C527.8896,832.7617 527.8896,834.0469 512.8896,834.0469 L502.8896,834.0469 " fill="none" style="stroke:#181818;stroke-width:1;"/><path d="M654.7793,688.7383 L644.7793,688.7383 C629.7793,688.7383 629.7793,832.7617 614.7793,832.7617 L604.7793,832.7617 " fill="none" style="stroke:#181818;stroke-width:1;"/><path d="M808.7793,688.7383 L798.7793,688.7383 C783.7793,688.7383 783.7793,688.7383 768.7793,688.7383 L758.7793,688.7383 " fill="none" style="stroke:#181818;stroke-width:1;"/><path d="M934.7793,688.7383 L924.7793,688.7383 C909.7793,688.7383 909.7793,688.7383 894.7793,688.7383 L884.7793,688.7383 " fill="none" style="stroke:#181818;stroke-width:1;"/><path d="M1021.9033,631.1289 L1011.9033,631.1289 C996.9033,631.1289 996.9033,688.7383 981.9033,688.7383 L971.9033,688.7383 " fill="none" style="stroke:#181818;stroke-width:1;"/><path d="M1101.2412,602.3242 L1091.2412,602.3242 C1076.2412,602.3242 1076.2412,631.1289 1061.2412,631.1289 L1051.2412,631.1289 " fill="none" style="stroke:#181818;stroke-width:1;"/><path d="M1205.8721,573.5195 L1195.8721,573.5195 C1180.8721,573.5195 1180.8721,602.3242 1165.8721,602.3242 L1155.8721,602.3242 " fill="none" style="stroke:#181818;stroke-width:1;"/><path d="M1317.8721,602.3242 L1307.8721,602.3242 C1292.8721,602.3242 1292.8721,573.5195 1277.8721,573.5195 L1267.8721,573.5195 " fill="none" style="stroke:#181818;stroke-width:1;"/><rect fill="#F1F1F1" height="37.6094" rx="12.5" ry="12.5" style="stroke:#181818;stroke-width:1.5;" width="62" x="1205.8721" y="930.4609"/><text fill="#000000" font-family="sans-serif" font-size="14" lengthAdjust="spacing" textLength="42" x="1215.8721" y="954.9941">&#23569;&#25968;&#35828;</text><rect fill="#F1F1F1" height="37.6094" rx="12.5" ry="12.5" style="stroke:#181818;stroke-width:1.5;" width="48" x="1107.8721" y="930.4609"/><text fill="#000000" font-family="sans-serif" font-size="14" lengthAdjust="spacing" textLength="28" x="1117.8721" y="954.9941">&#20405;&#21344;</text><path d="M1205.8721,949.2656 L1195.8721,949.2656 C1180.8721,949.2656 1180.8721,949.2656 1165.8721,949.2656 L1155.8721,949.2656 " fill="none" style="stroke:#181818;stroke-width:1;"/><path d="M1317.8721,602.3242 L1307.8721,602.3242 C1292.8721,602.3242 1292.8721,949.2656 1277.8721,949.2656 L1267.8721,949.2656 " fill="none" style="stroke:#181818;stroke-width:1;"/><path d="M1504.5684,602.3242 L1494.5684,602.3242 C1479.5684,602.3242 1479.5684,602.3242 1464.5684,602.3242 L1454.5684,602.3242 " fill="none" style="stroke:#181818;stroke-width:1;"/><path d="M1630.5684,513.3398 L1620.5684,513.3398 C1605.5684,513.3398 1605.5684,602.3242 1590.5684,602.3242 L1580.5684,602.3242 " fill="none" style="stroke:#181818;stroke-width:1;"/><!--SRC=[xLbVJnj747-_Jx5LNa8g7A28HWYXO0VKHX15XUHziJVcalEjTRTsQbMLW0Gm950e9Kb3GaD8Ga0fJXgQm172TsblxynJlaBdxdnm1jyVaFfcoxBkTdxpcztPcTdH-gBAiC8oefpAuAmWV2NAIIcN8YWME-zyLLQGoFciX6MMoqYD5h8He8tsU4o4CK4GcCWaWigRptLjrPmgcRlhZUMH-tngMV_yDvz-1kzVFXMDfRj6SRRyQaJV-V3bqwGWd4D7GAYZWsIoGrWLrSvEGI8t65B5514GV02yV5_VqlIj7NrttXvoXlUVBl75NRxnWNzygUy-qJMDpptoo8yBKSSPXQJQVsplzCAABum7VnhF9lZ4UFKyaETp3XcFIdpsbRupeslt-DWRc7uLe09wEhU_i5UPDzzOWgaxi_SOBA-EcgFR_Ds2-K83xrnj-VQ2vPLg8lxYiR7mjbpQh664Jq-OskenWIDqVFhly8Yv-D1SlmCFvL9nV_qX-cVyrs2t7-VgGb-Zk8-ThfhZmNFmeOe7KCMRVOK1mU4F3mwQ6lPR8jddfUtok-K8zldqWhuxRJw-w-HCaELl8bas7cppJxz4iLnSCtzxxKR07ho6AbNis2h1iH9WTkoZyMHItnhc6u_DZMLpTjnuUcV_zrdB1JPnPAvAREtCSstUOGhQEXzjRPNFZvGtNnihmoVHFeTChMJ-jGspXZZZKul6y2gVUc_xvLXDYUZMbJ4-lGLXU48zO_PDUM_sv7gyE6xSMucwQ3TUJhtjKFisNuEx79gJQEu-Xu0-q3orV_dYCoV7-TXxy_tEYRGhMpx-Xp4w2Gp6Sj6SAV7dTw1Skm-Jfo0q7ithsemnyxAyDrUXNTo0ayUYdLmx7IVVs0RQyjuY7tlfSF8dcZ4vR76kQViFDskSBM_dVCyMftGBWYAcXseSmaVgd7yzSu_V0qdDirVVMeSAN0iZN2JGcRZToSNgPgN3xa4wXSh09H6d5Pn1Fm5pR53A4Vi9eJXEtaehD2Ud4bIY2fAiDLboaFviOLDOkGK6VU0LgGjEAuJ8GSmsm8CkX80BBfOgM4xxJTeHkj1iJibAVb17w4Bz5-PPb49LFxOpFJtnU2BX8Wj4akXj7wmZjA52pAqNuRxoefjyuEgjWhrbNcnBiA-yq3WC9OSWr29DHapBL24HzWsXNb4cHySFAIAQ3QIoo6IP9edC_7mZsqv7g8VAp1aQb01pX1MIep8tcG6PI6Ki9HGnuoxq4Cbe1ZDQ4tjL8LciO6la96fTWrHXOL4JbOins5OMbYWHsH8q0zd2_7Qxekb7P-sEJDAmOK3gTMPGqGdRg1GXMM-yLnleXY8uA8dga7_5ykXNMxiz9BAZll4nSuMoS4lsgf85B4TOLHAd23imXfD9E5HyGxggaeOntu1CKptf2-z9qeTlabn84bC9fg3Gb2S2GrB8rR3jPAagCZ5FkfAUT3XMZR54eYxaS0cm5pYKEYF20MYLxYWnLJd5B78rDtYJ92rwF-_WF1oxH8d8cnSfP91DJSEOBRz7TlTX8QzEtE1ShOhbq2D2W9-EyvLEedwJKR_9gDzar6yowZSPzPkC-ar6_IRZVxl9k6hzdtAjhnVbYQ9Q7LvphAMffJLsuMm_PkWApQFcDjJKtDxQsjxQXXBz0yWIDmXd-xuVG2hDGOEBKj3-AU9Wpkg96eJBE8_H3pdea3Aa7LblPmVw6b1_jpk8kkMyg50v0rsHSFbwdmD2tr7MdwNC1hUrDiP5Xlg90jD2r_k4I-G6paaCL9Cq9ShfTdHjeAVnWj0BtLCEfy4GzAi9QAkOKW1P_ty0]--></g></svg>