<svg xmlns="http://www.w3.org/2000/svg" xmlns:xlink="http://www.w3.org/1999/xlink" contentStyleType="text/css" height="579px" preserveAspectRatio="none" style="width:1445px;height:579px;background:#FFFFFF;" version="1.1" viewBox="0 0 1445 579" width="1445px" zoomAndPan="magnify"><title>&#24615;&#26435;&#21033;</title><defs/><g><text fill="#000000" font-family="sans-serif" font-size="14" font-weight="bold" lengthAdjust="spacing" textLength="43.3125" x="699.4536" y="34.5332">&#24615;&#26435;&#21033;</text><rect fill="#F1F1F1" height="37.6094" rx="12.5" ry="12.5" style="stroke:#181818;stroke-width:1.5;" width="62" x="393.4619" y="289.0469"/><text fill="#000000" font-family="sans-serif" font-size="14" lengthAdjust="spacing" textLength="42" x="403.4619" y="313.5801">&#24615;&#26435;&#21033;</text><rect fill="#90EE90" height="37.6094" rx="12.5" ry="12.5" style="stroke:#181818;stroke-width:1.5;" width="65.8896" x="505.4619" y="289.0469"/><text fill="#000000" font-family="sans-serif" font-size="14" lengthAdjust="spacing" textLength="42" x="515.4619" y="313.5801">&#21463;&#23475;&#20154;</text><rect fill="#F1F1F1" height="37.6094" rx="12.5" ry="12.5" style="stroke:#181818;stroke-width:1.5;" width="132" x="621.3516" y="231.4375"/><text fill="#000000" font-family="sans-serif" font-size="14" lengthAdjust="spacing" textLength="112" x="631.3516" y="255.9707">&#24615;&#20132;&#65288;&#24615;&#21035;&#37325;&#35201;&#65289;</text><rect fill="#F1F1F1" height="37.6094" rx="12.5" ry="12.5" style="stroke:#181818;stroke-width:1.5;" width="48" x="803.3516" y="173.8281"/><text fill="#000000" font-family="sans-serif" font-size="14" lengthAdjust="spacing" textLength="28" x="813.3516" y="198.3613">&#22899;&#24615;</text><rect fill="#F1F1F1" height="37.6094" rx="12.5" ry="12.5" style="stroke:#181818;stroke-width:1.5;" width="62" x="901.3516" y="173.8281"/><text fill="#000000" font-family="sans-serif" font-size="14" lengthAdjust="spacing" textLength="42" x="911.3516" y="198.3613">&#24378;&#22904;&#32618;</text><rect fill="#F1F1F1" height="37.6094" rx="12.5" ry="12.5" style="stroke:#181818;stroke-width:1.5;" width="43.748" x="1013.3516" y="116.2188"/><text fill="#000000" font-family="sans-serif" font-size="14" lengthAdjust="spacing" textLength="23.748" x="1023.3516" y="140.752">14+</text><rect fill="#F1F1F1" height="37.6094" rx="12.5" ry="12.5" style="stroke:#181818;stroke-width:1.5;" width="43.748" x="1107.0996" y="58.6094"/><text fill="#000000" font-family="sans-serif" font-size="14" lengthAdjust="spacing" textLength="23.748" x="1117.0996" y="83.1426">16+</text><rect fill="#F1F1F1" height="37.6094" rx="12.5" ry="12.5" style="stroke:#181818;stroke-width:1.5;" width="62" x="1200.8477" y="58.6094"/><text fill="#000000" font-family="sans-serif" font-size="14" lengthAdjust="spacing" textLength="42" x="1210.8477" y="83.1426">&#24378;&#22904;&#32618;</text><path d="M1150.8477,77.4141 L1160.8477,77.4141 C1175.8477,77.4141 1175.8477,77.4141 1190.8477,77.4141 L1200.8477,77.4141 " fill="none" style="stroke:#181818;stroke-width:1;"/><path d="M1057.0996,135.0234 L1067.0996,135.0234 C1082.0996,135.0234 1082.0996,77.4141 1097.0996,77.4141 L1107.0996,77.4141 " fill="none" style="stroke:#181818;stroke-width:1;"/><rect fill="#F1F1F1" height="37.6094" rx="12.5" ry="12.5" style="stroke:#181818;stroke-width:1.5;" width="98.2305" x="1107.0996" y="145.0234"/><text fill="#000000" font-family="sans-serif" font-size="14" lengthAdjust="spacing" textLength="78.2305" x="1117.0996" y="169.5566">14 &lt;= x &lt; 16</text><rect fill="#FFA500" height="37.6094" rx="12.5" ry="12.5" style="stroke:#181818;stroke-width:1.5;" width="177.8896" x="1255.3301" y="116.2188"/><text fill="#000000" font-family="sans-serif" font-size="14" lengthAdjust="spacing" textLength="154" x="1265.3301" y="140.752">&#36127;&#26377;&#29031;&#25252;&#32844;&#36131;&#20154;&#21592;&#24615;&#20405;&#32618;</text><path d="M1205.3301,163.8281 L1215.3301,163.8281 C1230.3301,163.8281 1230.3301,135.0234 1245.3301,135.0234 L1255.3301,135.0234 " fill="none" style="stroke:#181818;stroke-width:1;"/><rect fill="#F1F1F1" height="37.6094" rx="12.5" ry="12.5" style="stroke:#181818;stroke-width:1.5;" width="90" x="1255.3301" y="173.8281"/><text fill="#000000" font-family="sans-serif" font-size="14" lengthAdjust="spacing" textLength="70" x="1265.3301" y="198.3613">&#19968;&#33324;&#20154;&#26080;&#32618;</text><path d="M1205.3301,163.8281 L1215.3301,163.8281 C1230.3301,163.8281 1230.3301,192.6328 1245.3301,192.6328 L1255.3301,192.6328 " fill="none" style="stroke:#181818;stroke-width:1;"/><path d="M1057.0996,135.0234 L1067.0996,135.0234 C1082.0996,135.0234 1082.0996,163.8281 1097.0996,163.8281 L1107.0996,163.8281 " fill="none" style="stroke:#181818;stroke-width:1;"/><path d="M963.3516,192.6328 L973.3516,192.6328 C988.3516,192.6328 988.3516,135.0234 1003.3516,135.0234 L1013.3516,135.0234 " fill="none" style="stroke:#181818;stroke-width:1;"/><rect fill="#F1F1F1" height="37.6094" rx="12.5" ry="12.5" style="stroke:#181818;stroke-width:1.5;" width="98.2305" x="1013.3516" y="231.4375"/><text fill="#000000" font-family="sans-serif" font-size="14" lengthAdjust="spacing" textLength="78.2305" x="1023.3516" y="255.9707">10 &lt;= x &lt; 14</text><rect fill="#F1F1F1" height="37.6094" rx="12.5" ry="12.5" style="stroke:#181818;stroke-width:1.5;" width="146" x="1161.582" y="231.4375"/><text fill="#000000" font-family="sans-serif" font-size="14" lengthAdjust="spacing" textLength="126" x="1171.582" y="255.9707">&#24378;&#22904;&#32618;&#65288;&#20174;&#37325;&#22788;&#32602;&#65289;</text><path d="M1111.582,250.2422 L1121.582,250.2422 C1136.582,250.2422 1136.582,250.2422 1151.582,250.2422 L1161.582,250.2422 " fill="none" style="stroke:#181818;stroke-width:1;"/><path d="M963.3516,192.6328 L973.3516,192.6328 C988.3516,192.6328 988.3516,250.2422 1003.3516,250.2422 L1013.3516,250.2422 " fill="none" style="stroke:#181818;stroke-width:1;"/><rect fill="#F1F1F1" height="37.6094" rx="12.5" ry="12.5" style="stroke:#181818;stroke-width:1.5;" width="43.748" x="1013.3516" y="289.0469"/><text fill="#000000" font-family="sans-serif" font-size="14" lengthAdjust="spacing" textLength="23.748" x="1023.3516" y="313.5801">&lt;10</text><rect fill="#F1F1F1" height="37.6094" rx="12.5" ry="12.5" style="stroke:#181818;stroke-width:1.5;" width="146" x="1107.0996" y="289.0469"/><text fill="#000000" font-family="sans-serif" font-size="14" lengthAdjust="spacing" textLength="126" x="1117.0996" y="313.5801">&#24378;&#22904;&#32618;&#65288;&#21152;&#37325;&#22788;&#32602;&#65289;</text><path d="M1057.0996,307.8516 L1067.0996,307.8516 C1082.0996,307.8516 1082.0996,307.8516 1097.0996,307.8516 L1107.0996,307.8516 " fill="none" style="stroke:#181818;stroke-width:1;"/><path d="M963.3516,192.6328 L973.3516,192.6328 C988.3516,192.6328 988.3516,307.8516 1003.3516,307.8516 L1013.3516,307.8516 " fill="none" style="stroke:#181818;stroke-width:1;"/><path d="M851.3516,192.6328 L861.3516,192.6328 C876.3516,192.6328 876.3516,192.6328 891.3516,192.6328 L901.3516,192.6328 " fill="none" style="stroke:#181818;stroke-width:1;"/><path d="M753.3516,250.2422 L763.3516,250.2422 C778.3516,250.2422 778.3516,192.6328 793.3516,192.6328 L803.3516,192.6328 " fill="none" style="stroke:#181818;stroke-width:1;"/><rect fill="#F1F1F1" height="37.6094" rx="12.5" ry="12.5" style="stroke:#181818;stroke-width:1.5;" width="48" x="803.3516" y="375.4609"/><text fill="#000000" font-family="sans-serif" font-size="14" lengthAdjust="spacing" textLength="28" x="813.3516" y="399.9941">&#30007;&#24615;</text><rect fill="#F1F1F1" height="37.6094" rx="12.5" ry="12.5" style="stroke:#181818;stroke-width:1.5;" width="91.5723" x="901.3516" y="346.6563"/><text fill="#000000" font-family="sans-serif" font-size="14" lengthAdjust="spacing" textLength="71.5723" x="911.3516" y="371.1895">&#24050;&#28385;14&#21608;&#23681;</text><rect fill="#FFA500" height="37.6094" rx="12.5" ry="12.5" style="stroke:#181818;stroke-width:1.5;" width="93.8896" x="1042.9238" y="346.6563"/><text fill="#000000" font-family="sans-serif" font-size="14" lengthAdjust="spacing" textLength="70" x="1052.9238" y="371.1895">&#24378;&#21046;&#29477;&#20149;&#32618;</text><path d="M992.9238,365.4609 L1002.9238,365.4609 C1017.9238,365.4609 1017.9238,365.4609 1032.9238,365.4609 L1042.9238,365.4609 " fill="none" style="stroke:#181818;stroke-width:1;"/><path d="M851.3516,394.2656 L861.3516,394.2656 C876.3516,394.2656 876.3516,365.4609 891.3516,365.4609 L901.3516,365.4609 " fill="none" style="stroke:#181818;stroke-width:1;"/><rect fill="#F1F1F1" height="37.6094" rx="12.5" ry="12.5" style="stroke:#181818;stroke-width:1.5;" width="91.5723" x="901.3516" y="404.2656"/><text fill="#000000" font-family="sans-serif" font-size="14" lengthAdjust="spacing" textLength="71.5723" x="911.3516" y="428.7988">&#19981;&#28385;14&#21608;&#23681;</text><rect fill="#FFA500" height="37.6094" rx="12.5" ry="12.5" style="stroke:#181818;stroke-width:1.5;" width="93.8896" x="1042.9238" y="404.2656"/><text fill="#000000" font-family="sans-serif" font-size="14" lengthAdjust="spacing" textLength="70" x="1052.9238" y="428.7988">&#29477;&#20149;&#20799;&#31461;&#32618;</text><path d="M992.9238,423.0703 L1002.9238,423.0703 C1017.9238,423.0703 1017.9238,423.0703 1032.9238,423.0703 L1042.9238,423.0703 " fill="none" style="stroke:#181818;stroke-width:1;"/><path d="M851.3516,394.2656 L861.3516,394.2656 C876.3516,394.2656 876.3516,423.0703 891.3516,423.0703 L901.3516,423.0703 " fill="none" style="stroke:#181818;stroke-width:1;"/><path d="M753.3516,250.2422 L763.3516,250.2422 C778.3516,250.2422 778.3516,394.2656 793.3516,394.2656 L803.3516,394.2656 " fill="none" style="stroke:#181818;stroke-width:1;"/><path d="M571.3516,307.8516 L581.3516,307.8516 C596.3516,307.8516 596.3516,250.2422 611.3516,250.2422 L621.3516,250.2422 " fill="none" style="stroke:#181818;stroke-width:1;"/><rect fill="#F1F1F1" height="37.6094" rx="12.5" ry="12.5" style="stroke:#181818;stroke-width:1.5;" width="132" x="621.3516" y="490.6797"/><text fill="#000000" font-family="sans-serif" font-size="14" lengthAdjust="spacing" textLength="112" x="631.3516" y="515.2129">&#29477;&#20149;&#65288;&#19981;&#20998;&#30007;&#22899;&#65289;</text><rect fill="#F1F1F1" height="37.6094" rx="12.5" ry="12.5" style="stroke:#181818;stroke-width:1.5;" width="91.5723" x="803.3516" y="461.875"/><text fill="#000000" font-family="sans-serif" font-size="14" lengthAdjust="spacing" textLength="71.5723" x="813.3516" y="486.4082">&#24050;&#28385;14&#21608;&#23681;</text><rect fill="#F1F1F1" height="37.6094" rx="12.5" ry="12.5" style="stroke:#181818;stroke-width:1.5;" width="90" x="944.9238" y="461.875"/><text fill="#000000" font-family="sans-serif" font-size="14" lengthAdjust="spacing" textLength="70" x="954.9238" y="486.4082">&#24378;&#21046;&#29477;&#20149;&#32618;</text><path d="M894.9238,480.6797 L904.9238,480.6797 C919.9238,480.6797 919.9238,480.6797 934.9238,480.6797 L944.9238,480.6797 " fill="none" style="stroke:#181818;stroke-width:1;"/><path d="M753.3516,509.4844 L763.3516,509.4844 C778.3516,509.4844 778.3516,480.6797 793.3516,480.6797 L803.3516,480.6797 " fill="none" style="stroke:#181818;stroke-width:1;"/><rect fill="#F1F1F1" height="37.6094" rx="12.5" ry="12.5" style="stroke:#181818;stroke-width:1.5;" width="91.5723" x="803.3516" y="519.4844"/><text fill="#000000" font-family="sans-serif" font-size="14" lengthAdjust="spacing" textLength="71.5723" x="813.3516" y="544.0176">&#19981;&#28385;14&#21608;&#23681;</text><rect fill="#F1F1F1" height="37.6094" rx="12.5" ry="12.5" style="stroke:#181818;stroke-width:1.5;" width="90" x="944.9238" y="519.4844"/><text fill="#000000" font-family="sans-serif" font-size="14" lengthAdjust="spacing" textLength="70" x="954.9238" y="544.0176">&#29477;&#20149;&#20799;&#31461;&#32618;</text><path d="M894.9238,538.2891 L904.9238,538.2891 C919.9238,538.2891 919.9238,538.2891 934.9238,538.2891 L944.9238,538.2891 " fill="none" style="stroke:#181818;stroke-width:1;"/><path d="M753.3516,509.4844 L763.3516,509.4844 C778.3516,509.4844 778.3516,538.2891 793.3516,538.2891 L803.3516,538.2891 " fill="none" style="stroke:#181818;stroke-width:1;"/><path d="M571.3516,307.8516 L581.3516,307.8516 C596.3516,307.8516 596.3516,509.4844 611.3516,509.4844 L621.3516,509.4844 " fill="none" style="stroke:#181818;stroke-width:1;"/><path d="M455.4619,307.8516 L465.4619,307.8516 C480.4619,307.8516 480.4619,307.8516 495.4619,307.8516 L505.4619,307.8516 " fill="none" style="stroke:#181818;stroke-width:1;"/><rect fill="#90EE90" height="37.6094" rx="12.5" ry="12.5" style="stroke:#181818;stroke-width:1.5;" width="65.8896" x="277.5723" y="289.0469"/><text fill="#000000" font-family="sans-serif" font-size="14" lengthAdjust="spacing" textLength="42" x="287.5723" y="313.5801">&#26045;&#23475;&#20154;</text><rect fill="#F1F1F1" height="37.6094" rx="12.5" ry="12.5" style="stroke:#181818;stroke-width:1.5;" width="91.5723" x="136" y="231.4375"/><text fill="#000000" font-family="sans-serif" font-size="14" lengthAdjust="spacing" textLength="71.5723" x="146" y="255.9707">&#24050;&#28385;16&#21608;&#23681;</text><rect fill="#F1F1F1" height="37.6094" rx="12.5" ry="12.5" style="stroke:#181818;stroke-width:1.5;" width="76" x="10" y="231.4375"/><text fill="#000000" font-family="sans-serif" font-size="14" lengthAdjust="spacing" textLength="56" x="20" y="255.9707">&#23436;&#20840;&#36131;&#20219;</text><path d="M136,250.2422 L126,250.2422 C111,250.2422 111,250.2422 96,250.2422 L86,250.2422 " fill="none" style="stroke:#181818;stroke-width:1;"/><path d="M277.5723,307.8516 L267.5723,307.8516 C252.5723,307.8516 252.5723,250.2422 237.5723,250.2422 L227.5723,250.2422 " fill="none" style="stroke:#181818;stroke-width:1;"/><rect fill="#F1F1F1" height="37.6094" rx="12.5" ry="12.5" style="stroke:#181818;stroke-width:1.5;" width="55.8066" x="171.7656" y="289.0469"/><text fill="#000000" font-family="sans-serif" font-size="14" lengthAdjust="spacing" textLength="35.8066" x="181.7656" y="313.5801">12-16</text><rect fill="#F1F1F1" height="37.6094" rx="12.5" ry="12.5" style="stroke:#181818;stroke-width:1.5;" width="76" x="45.7656" y="289.0469"/><text fill="#000000" font-family="sans-serif" font-size="14" lengthAdjust="spacing" textLength="56" x="55.7656" y="313.5801">&#30456;&#23545;&#36131;&#20219;</text><path d="M171.7656,307.8516 L161.7656,307.8516 C146.7656,307.8516 146.7656,307.8516 131.7656,307.8516 L121.7656,307.8516 " fill="none" style="stroke:#181818;stroke-width:1;"/><path d="M277.5723,307.8516 L267.5723,307.8516 C252.5723,307.8516 252.5723,307.8516 237.5723,307.8516 L227.5723,307.8516 " fill="none" style="stroke:#181818;stroke-width:1;"/><rect fill="#F1F1F1" height="37.6094" rx="12.5" ry="12.5" style="stroke:#181818;stroke-width:1.5;" width="43.748" x="183.8242" y="346.6563"/><text fill="#000000" font-family="sans-serif" font-size="14" lengthAdjust="spacing" textLength="23.748" x="193.8242" y="371.1895">&lt;12</text><rect fill="#F1F1F1" height="37.6094" rx="12.5" ry="12.5" style="stroke:#181818;stroke-width:1.5;" width="62" x="71.8242" y="346.6563"/><text fill="#000000" font-family="sans-serif" font-size="14" lengthAdjust="spacing" textLength="42" x="81.8242" y="371.1895">&#26080;&#36131;&#20219;</text><path d="M183.8242,365.4609 L173.8242,365.4609 C158.8242,365.4609 158.8242,365.4609 143.8242,365.4609 L133.8242,365.4609 " fill="none" style="stroke:#181818;stroke-width:1;"/><path d="M277.5723,307.8516 L267.5723,307.8516 C252.5723,307.8516 252.5723,365.4609 237.5723,365.4609 L227.5723,365.4609 " fill="none" style="stroke:#181818;stroke-width:1;"/><path d="M393.4619,307.8516 L383.4619,307.8516 C368.4619,307.8516 368.4619,307.8516 353.4619,307.8516 L343.4619,307.8516 " fill="none" style="stroke:#181818;stroke-width:1;"/><!--SRC=[xLXRRnj557wVNp68bmHanxOigufCbDfD15LSLJZj-tXtOa-pksFDphfO5L8ZMd2h15G9KSH5597GGb6HsaA3ay2VyThcgN-1C-lTP7rPx_Q1jrYMvPtppNVkPpnUjIKHqcIMRf8cGcynIpCSdU9qUcdqjcNRe4jDWrZICOsKGgO0clBMqmpM499C6XJtRp_kV_-9s_a5eNV23mRTajXcEaK8mmjaNvsuprxqkbrSB5ApsI0sirTMFE48uBvwtZ_wCLjm7pnnd- -S2dpXirttxfFXovzwHqUXFTbSAbkOW0w-FNH__siAMipc9e3zXuzy51AitXWtr_tYuNnpmTTUT__rSGU-k9sd_twsD_nvv_NnlKd33ru0O6pH5nnttOF3mSclKpBVjVoxCoM-j10jJS8VwC35z_17k8WdeZWD7RxyeV_TlS7Tn_tx-yETNHMuRjTzyBKAmzz_W9fGd7AXGCrcwntU7dP-0mR8mPmGP4xDowC4da8oUaUVGoRS_Jk3asycan6kXKn2FlV-eqW-ABKlNqKaTrJB-HcrFAwdy-TWzw3NJH105RIzUD8HdNlddy7JWsbID0bK8JlSSpkVWYjGgZFgTxudKrwWDx9vobw4q2g5iHICfjNnILNq1j0AyXSkCL8NnCItW3XTCnpgVSEuHBJjkk2EfPUvmGKsL7ihEKW_LbYTY6r1zGYuBmt0TK6fDO_P0uJGxHXmEy1oGQnwbD4ZOG1jEg9fH457mW0QxLZ8AS7jABQtrzTBfN8vGBQfOV2R4TYHq8EYT51fyR4AepCHS7kxxQKiZCtDZrKOMe8bhG4LbiWOLhUue0doXl46i-Za-Xb5GhLpgHIPPN6DMZ8gDfONT8pNkIL7IpK3C1Eiq1o-RPO4CiOjOfG5CmD7pv2IcqJocTYhWZQ986hbJRPTh74XuwecAPUKa5OProW9sShSX6wHKTdsTqRHgUnOj0u90z9mCESDdRX4wPGsm_K-hc0DXc3DO7OZUcA5zezhkzbWSZ8s4MgkS1cloVDAQnChWLSQqQayLKOq3NvVHPRqs2IDOzw2JhD3xGlF6gsG6zI9QM9kW0c2ww4AZ6cXO8Udfybj9bcBNjH2xJ0rZOb1apfovWBaWiHIcmmEG3MwazIKVuefSjkftQ2Qee-A3cd1iKj5GjuMuz117ZMFOrPnJnpkiq4-thZpUtMibcEF20GVnIN_byJvDURy6dD-ZJc_nlo_rvYhwf-KQvKDtAB2LkCzcyvbSldqXOKgaVWARq7buansEPzVpXTmkRg9bNWHBLG-sCGsT-1qmphCVi5gZXg8Y-WoQH7yeGFZqQJBM3qjR5OMSNKjMCHhLei9Rfam4j7bwvKH2B_FPRN9fGSkv5Cb9d6L2Z0BNw-WItIBE8Q4hHhNcLLVnjSsrrCNq0QCJeVKGH4SLcMOgLAqGLRz3m00]--></g></svg>