<svg xmlns="http://www.w3.org/2000/svg" xmlns:xlink="http://www.w3.org/1999/xlink" contentStyleType="text/css" height="1155px" preserveAspectRatio="none" style="width:1174px;height:1155px;background:#FFFFFF;" version="1.1" viewBox="0 0 1174 1155" width="1174px" zoomAndPan="magnify"><title>&#36130;&#20135;&#29359;&#32618;-&#22522;&#26412;&#21407;&#29702;</title><defs/><g><text fill="#000000" font-family="sans-serif" font-size="14" font-weight="bold" lengthAdjust="spacing" textLength="120.1621" x="525.6396" y="34.5332">&#36130;&#20135;&#29359;&#32618;-&#22522;&#26412;&#21407;&#29702;</text><rect fill="#F1F1F1" height="37.6094" rx="12.5" ry="12.5" style="stroke:#181818;stroke-width:1.5;" width="136.6621" x="10" y="577.0938"/><text fill="#000000" font-family="sans-serif" font-size="14" lengthAdjust="spacing" textLength="116.6621" x="20" y="601.627">&#36130;&#20135;&#29359;&#32618;-&#22522;&#26412;&#21407;&#29702;</text><rect fill="#F1F1F1" height="37.6094" rx="12.5" ry="12.5" style="stroke:#181818;stroke-width:1.5;" width="48" x="196.6621" y="145.0234"/><text fill="#000000" font-family="sans-serif" font-size="14" lengthAdjust="spacing" textLength="28" x="206.6621" y="169.5566">&#27861;&#30410;</text><rect fill="#90EE90" height="37.6094" rx="12.5" ry="12.5" style="stroke:#181818;stroke-width:1.5;" width="51.8896" x="294.6621" y="116.2188"/><text fill="#000000" font-family="sans-serif" font-size="14" lengthAdjust="spacing" textLength="28" x="304.6621" y="140.752">&#20998;&#31867;</text><rect fill="#F1F1F1" height="37.6094" rx="12.5" ry="12.5" style="stroke:#181818;stroke-width:1.5;" width="76" x="396.5518" y="58.6094"/><text fill="#000000" font-family="sans-serif" font-size="14" lengthAdjust="spacing" textLength="56" x="406.5518" y="83.1426">&#21512;&#27861;&#21344;&#26377;</text><path d="M346.5518,135.0234 L356.5518,135.0234 C371.5518,135.0234 371.5518,77.4141 386.5518,77.4141 L396.5518,77.4141 " fill="none" style="stroke:#181818;stroke-width:1;"/><rect fill="#F1F1F1" height="37.6094" rx="12.5" ry="12.5" style="stroke:#181818;stroke-width:1.5;" width="62" x="396.5518" y="116.2188"/><text fill="#000000" font-family="sans-serif" font-size="14" lengthAdjust="spacing" textLength="42" x="406.5518" y="140.752">&#25152;&#26377;&#26435;</text><path d="M346.5518,135.0234 L356.5518,135.0234 C371.5518,135.0234 371.5518,135.0234 386.5518,135.0234 L396.5518,135.0234 " fill="none" style="stroke:#181818;stroke-width:1;"/><rect fill="#F1F1F1" height="37.6094" rx="12.5" ry="12.5" style="stroke:#181818;stroke-width:1.5;" width="76" x="396.5518" y="173.8281"/><text fill="#000000" font-family="sans-serif" font-size="14" lengthAdjust="spacing" textLength="56" x="406.5518" y="198.3613">&#38750;&#27861;&#21344;&#26377;</text><path d="M346.5518,135.0234 L356.5518,135.0234 C371.5518,135.0234 371.5518,192.6328 386.5518,192.6328 L396.5518,192.6328 " fill="none" style="stroke:#181818;stroke-width:1;"/><path d="M244.6621,163.8281 L254.6621,163.8281 C269.6621,163.8281 269.6621,135.0234 284.6621,135.0234 L294.6621,135.0234 " fill="none" style="stroke:#181818;stroke-width:1;"/><rect fill="#90EE90" height="37.6094" rx="12.5" ry="12.5" style="stroke:#181818;stroke-width:1.5;" width="79.8896" x="294.6621" y="231.4375"/><text fill="#000000" font-family="sans-serif" font-size="14" lengthAdjust="spacing" textLength="56" x="304.6621" y="255.9707">&#20445;&#25252;&#31561;&#32423;</text><rect fill="#F1F1F1" height="37.6094" rx="12.5" ry="12.5" style="stroke:#181818;stroke-width:1.5;" width="76" x="424.5518" y="231.4375"/><text fill="#000000" font-family="sans-serif" font-size="14" lengthAdjust="spacing" textLength="56" x="434.5518" y="255.9707">&#21512;&#27861;&#21344;&#26377;</text><rect fill="#F1F1F1" height="37.6094" rx="12.5" ry="12.5" style="stroke:#181818;stroke-width:1.5;" width="62" x="550.5518" y="231.4375"/><text fill="#000000" font-family="sans-serif" font-size="14" lengthAdjust="spacing" textLength="42" x="560.5518" y="255.9707">&#25152;&#26377;&#26435;</text><rect fill="#F1F1F1" height="37.6094" rx="12.5" ry="12.5" style="stroke:#181818;stroke-width:1.5;" width="76" x="662.5518" y="231.4375"/><text fill="#000000" font-family="sans-serif" font-size="14" lengthAdjust="spacing" textLength="56" x="672.5518" y="255.9707">&#38750;&#27861;&#21344;&#26377;</text><rect fill="#F1F1F1" height="37.6094" rx="12.5" ry="12.5" style="stroke:#181818;stroke-width:1.5;" width="62" x="788.5518" y="231.4375"/><text fill="#000000" font-family="sans-serif" font-size="14" lengthAdjust="spacing" textLength="42" x="798.5518" y="255.9707">&#19968;&#33324;&#20154;</text><path d="M738.5518,250.2422 L748.5518,250.2422 C763.5518,250.2422 763.5518,250.2422 778.5518,250.2422 L788.5518,250.2422 " fill="none" style="stroke:#181818;stroke-width:1;"/><path d="M612.5518,250.2422 L622.5518,250.2422 C637.5518,250.2422 637.5518,250.2422 652.5518,250.2422 L662.5518,250.2422 " fill="none" style="stroke:#181818;stroke-width:1;"/><path d="M500.5518,250.2422 L510.5518,250.2422 C525.5518,250.2422 525.5518,250.2422 540.5518,250.2422 L550.5518,250.2422 " fill="none" style="stroke:#181818;stroke-width:1;"/><path d="M374.5518,250.2422 L384.5518,250.2422 C399.5518,250.2422 399.5518,250.2422 414.5518,250.2422 L424.5518,250.2422 " fill="none" style="stroke:#181818;stroke-width:1;"/><path d="M244.6621,163.8281 L254.6621,163.8281 C269.6621,163.8281 269.6621,250.2422 284.6621,250.2422 L294.6621,250.2422 " fill="none" style="stroke:#181818;stroke-width:1;"/><path d="M146.6621,595.8984 L156.6621,595.8984 C171.6621,595.8984 171.6621,163.8281 186.6621,163.8281 L196.6621,163.8281 " fill="none" style="stroke:#181818;stroke-width:1;"/><rect fill="#F1F1F1" height="37.6094" rx="12.5" ry="12.5" style="stroke:#181818;stroke-width:1.5;" width="76" x="196.6621" y="692.3125"/><text fill="#000000" font-family="sans-serif" font-size="14" lengthAdjust="spacing" textLength="56" x="206.6621" y="716.8457">&#26500;&#25104;&#35201;&#20214;</text><rect fill="#F1F1F1" height="37.6094" rx="12.5" ry="12.5" style="stroke:#181818;stroke-width:1.5;" width="48" x="322.6621" y="461.875"/><text fill="#000000" font-family="sans-serif" font-size="14" lengthAdjust="spacing" textLength="28" x="332.6621" y="486.4082">&#23458;&#35266;</text><rect fill="#F1F1F1" height="37.6094" rx="12.5" ry="12.5" style="stroke:#181818;stroke-width:1.5;" width="76" x="420.6621" y="461.875"/><text fill="#000000" font-family="sans-serif" font-size="14" lengthAdjust="spacing" textLength="56" x="430.6621" y="486.4082">&#34892;&#20026;&#23545;&#35937;</text><rect fill="#F1F1F1" height="37.6094" rx="12.5" ry="12.5" style="stroke:#181818;stroke-width:1.5;" width="76" x="546.6621" y="404.2656"/><text fill="#000000" font-family="sans-serif" font-size="14" lengthAdjust="spacing" textLength="56" x="556.6621" y="428.7988">&#26377;&#24418;&#36130;&#29289;</text><rect fill="#F1F1F1" height="42.75" rx="12.5" ry="12.5" style="stroke:#181818;stroke-width:1.5;" width="72.8896" x="672.6621" y="315.2813"/><text fill="#000000" font-family="sans-serif" font-size="14" lengthAdjust="spacing" textLength="28" x="682.6621" y="344.9551">&#20154;&#20307;</text><path d="M727.1127,335.7824 L734.2498,328.6459 C734.8191,328.0766 734.8191,327.1532 734.2498,326.5838 C733.6798,326.0139 732.757,326.0139 732.1877,326.5838 L725.0506,333.7203 L717.9141,326.5838 C717.3448,326.0139 716.4208,326.0139 715.852,326.5838 C715.2821,327.1532 715.2821,328.0766 715.852,328.6459 L722.9885,335.7824 L715.8357,342.9358 C715.2658,343.5058 715.2658,344.4286 715.8357,344.9979 C716.1203,345.2826 716.4937,345.4249 716.867,345.4249 C717.2403,345.4249 717.6137,345.2826 717.8983,344.9979 L725.0512,337.8445 L732.1877,344.981 C732.4723,345.2657 732.8457,345.408 733.219,345.408 C733.5923,345.408 733.9651,345.2657 734.2503,344.981 C734.8197,344.4111 734.8197,343.4883 734.2503,342.9189 L727.1127,335.7824 " fill="#FE0000" style="stroke:;stroke-width:0;stroke-dasharray:;"/><rect fill="#F1F1F1" height="42.75" rx="12.5" ry="12.5" style="stroke:#181818;stroke-width:1.5;" width="142.8896" x="795.5518" y="315.2813"/><text fill="#000000" font-family="sans-serif" font-size="14" lengthAdjust="spacing" textLength="98" x="805.5518" y="344.9551">&#20154;&#20307;&#20998;&#31163;&#20986;&#26469;&#30340;</text><path d="M927.5425,326.0833 C926.7311,325.5572 925.6478,325.7882 925.1222,326.599 L915.3164,341.7138 L910.5342,337.2921 C909.8243,336.6358 908.7177,336.679 908.0615,337.3889 C907.4052,338.0983 907.4484,339.206 908.1583,339.8617 L914.4373,345.667 C914.6176,345.8222 914.6176,345.8222 914.701,345.8764 C914.995,346.0678 915.3252,346.1588 915.6518,346.1588 C916.2247,346.1588 916.7864,345.8776 917.1218,345.3608 L928.0582,328.5036 C928.5843,327.6928 928.3533,326.6089 927.5425,326.0833 " fill="#5FED5F" style="stroke:;stroke-width:0;stroke-dasharray:;"/><rect fill="#F1F1F1" height="37.6094" rx="12.5" ry="12.5" style="stroke:#181818;stroke-width:1.5;" width="48" x="988.4414" y="289.0469"/><text fill="#000000" font-family="sans-serif" font-size="14" lengthAdjust="spacing" textLength="28" x="998.4414" y="313.5801">&#22120;&#23448;</text><path d="M938.4414,336.6563 L948.4414,336.6563 C963.4414,336.6563 963.4414,307.8516 978.4414,307.8516 L988.4414,307.8516 " fill="none" style="stroke:#181818;stroke-width:1;"/><rect fill="#F1F1F1" height="37.6094" rx="12.5" ry="12.5" style="stroke:#181818;stroke-width:1.5;" width="48" x="988.4414" y="346.6563"/><text fill="#000000" font-family="sans-serif" font-size="14" lengthAdjust="spacing" textLength="28" x="998.4414" y="371.1895">&#34880;&#28082;</text><path d="M938.4414,336.6563 L948.4414,336.6563 C963.4414,336.6563 963.4414,365.4609 978.4414,365.4609 L988.4414,365.4609 " fill="none" style="stroke:#181818;stroke-width:1;"/><path d="M745.5518,336.6563 L755.5518,336.6563 C770.5518,336.6563 770.5518,336.6563 785.5518,336.6563 L795.5518,336.6563 " fill="none" style="stroke:#181818;stroke-width:1;"/><path d="M622.6621,423.0703 L632.6621,423.0703 C647.6621,423.0703 647.6621,336.6563 662.6621,336.6563 L672.6621,336.6563 " fill="none" style="stroke:#181818;stroke-width:1;"/><rect fill="#F1F1F1" height="37.6094" rx="12.5" ry="12.5" style="stroke:#181818;stroke-width:1.5;" width="76" x="672.6621" y="404.2656"/><text fill="#000000" font-family="sans-serif" font-size="14" lengthAdjust="spacing" textLength="56" x="682.6621" y="428.7988">&#20538;&#21048;&#20973;&#35777;</text><rect fill="#F1F1F1" height="37.6094" rx="12.5" ry="12.5" style="stroke:#181818;stroke-width:1.5;" width="104" x="798.6621" y="404.2656"/><text fill="#000000" font-family="sans-serif" font-size="14" lengthAdjust="spacing" textLength="84" x="808.6621" y="428.7988">&#23384;&#25240;&#12289;&#38134;&#34892;&#21345;</text><path d="M748.6621,423.0703 L758.6621,423.0703 C773.6621,423.0703 773.6621,423.0703 788.6621,423.0703 L798.6621,423.0703 " fill="none" style="stroke:#181818;stroke-width:1;"/><path d="M622.6621,423.0703 L632.6621,423.0703 C647.6621,423.0703 647.6621,423.0703 662.6621,423.0703 L672.6621,423.0703 " fill="none" style="stroke:#181818;stroke-width:1;"/><rect fill="#F1F1F1" height="37.6094" rx="12.5" ry="12.5" style="stroke:#181818;stroke-width:1.5;" width="62" x="672.6621" y="461.875"/><text fill="#000000" font-family="sans-serif" font-size="14" lengthAdjust="spacing" textLength="42" x="682.6621" y="486.4082">&#19981;&#21160;&#20135;</text><rect fill="#F1F1F1" height="37.6094" rx="12.5" ry="12.5" style="stroke:#181818;stroke-width:1.5;" width="118" x="784.6621" y="461.875"/><text fill="#000000" font-family="sans-serif" font-size="14" lengthAdjust="spacing" textLength="98" x="794.6621" y="486.4082">&#25151;&#23627;&#12289;&#25151;&#23627;&#20135;&#26435;</text><path d="M734.6621,480.6797 L744.6621,480.6797 C759.6621,480.6797 759.6621,480.6797 774.6621,480.6797 L784.6621,480.6797 " fill="none" style="stroke:#181818;stroke-width:1;"/><path d="M622.6621,423.0703 L632.6621,423.0703 C647.6621,423.0703 647.6621,480.6797 662.6621,480.6797 L672.6621,480.6797 " fill="none" style="stroke:#181818;stroke-width:1;"/><rect fill="#F1F1F1" height="37.6094" rx="12.5" ry="12.5" style="stroke:#181818;stroke-width:1.5;" width="62" x="672.6621" y="519.4844"/><text fill="#000000" font-family="sans-serif" font-size="14" lengthAdjust="spacing" textLength="42" x="682.6621" y="544.0176">&#36829;&#31105;&#21697;</text><rect fill="#F1F1F1" height="37.6094" rx="12.5" ry="12.5" style="stroke:#181818;stroke-width:1.5;" width="90" x="784.6621" y="519.4844"/><text fill="#000000" font-family="sans-serif" font-size="14" lengthAdjust="spacing" textLength="70" x="794.6621" y="544.0176">&#27602;&#21697;&#12289;&#20551;&#24065;</text><path d="M734.6621,538.2891 L744.6621,538.2891 C759.6621,538.2891 759.6621,538.2891 774.6621,538.2891 L784.6621,538.2891 " fill="none" style="stroke:#181818;stroke-width:1;"/><path d="M622.6621,423.0703 L632.6621,423.0703 C647.6621,423.0703 647.6621,538.2891 662.6621,538.2891 L672.6621,538.2891 " fill="none" style="stroke:#181818;stroke-width:1;"/><path d="M496.6621,480.6797 L506.6621,480.6797 C521.6621,480.6797 521.6621,423.0703 536.6621,423.0703 L546.6621,423.0703 " fill="none" style="stroke:#181818;stroke-width:1;"/><rect fill="#F1F1F1" height="37.6094" rx="12.5" ry="12.5" style="stroke:#181818;stroke-width:1.5;" width="76" x="546.6621" y="605.8984"/><text fill="#000000" font-family="sans-serif" font-size="14" lengthAdjust="spacing" textLength="56" x="556.6621" y="630.4316">&#26080;&#24418;&#36130;&#29289;</text><rect fill="#F1F1F1" height="37.6094" rx="12.5" ry="12.5" style="stroke:#181818;stroke-width:1.5;" width="48" x="672.6621" y="577.0938"/><text fill="#000000" font-family="sans-serif" font-size="14" lengthAdjust="spacing" textLength="28" x="682.6621" y="601.627">&#33021;&#28304;</text><rect fill="#F1F1F1" height="37.6094" rx="12.5" ry="12.5" style="stroke:#181818;stroke-width:1.5;" width="132" x="770.6621" y="577.0938"/><text fill="#000000" font-family="sans-serif" font-size="14" lengthAdjust="spacing" textLength="112" x="780.6621" y="601.627">&#30005;&#12289;&#36890;&#20449;&#32593;&#32476;&#20449;&#21495;</text><path d="M720.6621,595.8984 L730.6621,595.8984 C745.6621,595.8984 745.6621,595.8984 760.6621,595.8984 L770.6621,595.8984 " fill="none" style="stroke:#181818;stroke-width:1;"/><path d="M622.6621,624.7031 L632.6621,624.7031 C647.6621,624.7031 647.6621,595.8984 662.6621,595.8984 L672.6621,595.8984 " fill="none" style="stroke:#181818;stroke-width:1;"/><rect fill="#F1F1F1" height="37.6094" rx="12.5" ry="12.5" style="stroke:#181818;stroke-width:1.5;" width="76" x="672.6621" y="634.7031"/><text fill="#000000" font-family="sans-serif" font-size="14" lengthAdjust="spacing" textLength="56" x="682.6621" y="659.2363">&#34394;&#25311;&#36130;&#20135;</text><rect fill="#F1F1F1" height="37.6094" rx="12.5" ry="12.5" style="stroke:#181818;stroke-width:1.5;" width="114.8896" x="798.6621" y="634.7031"/><text fill="#000000" font-family="sans-serif" font-size="14" lengthAdjust="spacing" textLength="94.8896" x="808.6621" y="659.2363">Q&#24065;&#12289;&#28216;&#25103;&#28857;&#21345;</text><path d="M748.6621,653.5078 L758.6621,653.5078 C773.6621,653.5078 773.6621,653.5078 788.6621,653.5078 L798.6621,653.5078 " fill="none" style="stroke:#181818;stroke-width:1;"/><path d="M622.6621,624.7031 L632.6621,624.7031 C647.6621,624.7031 647.6621,653.5078 662.6621,653.5078 L672.6621,653.5078 " fill="none" style="stroke:#181818;stroke-width:1;"/><path d="M496.6621,480.6797 L506.6621,480.6797 C521.6621,480.6797 521.6621,624.7031 536.6621,624.7031 L546.6621,624.7031 " fill="none" style="stroke:#181818;stroke-width:1;"/><path d="M370.6621,480.6797 L380.6621,480.6797 C395.6621,480.6797 395.6621,480.6797 410.6621,480.6797 L420.6621,480.6797 " fill="none" style="stroke:#181818;stroke-width:1;"/><path d="M272.6621,711.1172 L282.6621,711.1172 C297.6621,711.1172 297.6621,480.6797 312.6621,480.6797 L322.6621,480.6797 " fill="none" style="stroke:#181818;stroke-width:1;"/><rect fill="#F1F1F1" height="37.6094" rx="12.5" ry="12.5" style="stroke:#181818;stroke-width:1.5;" width="48" x="322.6621" y="893.9453"/><text fill="#000000" font-family="sans-serif" font-size="14" lengthAdjust="spacing" textLength="28" x="332.6621" y="918.4785">&#20027;&#35266;</text><rect fill="#F1F1F1" height="37.6094" rx="12.5" ry="12.5" style="stroke:#181818;stroke-width:1.5;" width="48" x="420.6621" y="893.9453"/><text fill="#000000" font-family="sans-serif" font-size="14" lengthAdjust="spacing" textLength="28" x="430.6621" y="918.4785">&#25925;&#24847;</text><rect fill="#90EE90" height="37.6094" rx="12.5" ry="12.5" style="stroke:#181818;stroke-width:1.5;" width="107.8896" x="518.6621" y="893.9453"/><text fill="#000000" font-family="sans-serif" font-size="14" lengthAdjust="spacing" textLength="84" x="528.6621" y="918.4785">&#38750;&#27861;&#21344;&#26377;&#30446;&#30340;</text><rect fill="#F1F1F1" height="37.6094" rx="12.5" ry="12.5" style="stroke:#181818;stroke-width:1.5;" width="76" x="676.5518" y="721.1172"/><text fill="#000000" font-family="sans-serif" font-size="14" lengthAdjust="spacing" textLength="56" x="686.5518" y="745.6504">&#29359;&#32618;&#31867;&#22411;</text><rect fill="#F1F1F1" height="37.6094" rx="12.5" ry="12.5" style="stroke:#181818;stroke-width:1.5;" width="118" x="802.5518" y="692.3125"/><text fill="#000000" font-family="sans-serif" font-size="14" lengthAdjust="spacing" textLength="98" x="812.5518" y="716.8457">&#21462;&#24471;&#22411;&#36130;&#20135;&#29359;&#32618;</text><path d="M752.5518,739.9219 L762.5518,739.9219 C777.5518,739.9219 777.5518,711.1172 792.5518,711.1172 L802.5518,711.1172 " fill="none" style="stroke:#181818;stroke-width:1;"/><rect fill="#F1F1F1" height="37.6094" rx="12.5" ry="12.5" style="stroke:#181818;stroke-width:1.5;" width="118" x="802.5518" y="749.9219"/><text fill="#000000" font-family="sans-serif" font-size="14" lengthAdjust="spacing" textLength="98" x="812.5518" y="774.4551">&#27585;&#24323;&#22411;&#36130;&#20135;&#29359;&#32618;</text><path d="M752.5518,739.9219 L762.5518,739.9219 C777.5518,739.9219 777.5518,768.7266 792.5518,768.7266 L802.5518,768.7266 " fill="none" style="stroke:#181818;stroke-width:1;"/><path d="M626.5518,912.75 L636.5518,912.75 C651.5518,912.75 651.5518,739.9219 666.5518,739.9219 L676.5518,739.9219 " fill="none" style="stroke:#181818;stroke-width:1;"/><rect fill="#F1F1F1" height="37.6094" rx="12.5" ry="12.5" style="stroke:#181818;stroke-width:1.5;" width="48" x="676.5518" y="893.9453"/><text fill="#000000" font-family="sans-serif" font-size="14" lengthAdjust="spacing" textLength="28" x="686.5518" y="918.4785">&#20869;&#28085;</text><rect fill="#F1F1F1" height="37.6094" rx="12.5" ry="12.5" style="stroke:#181818;stroke-width:1.5;" width="76" x="774.5518" y="836.3359"/><text fill="#000000" font-family="sans-serif" font-size="14" lengthAdjust="spacing" textLength="56" x="784.5518" y="860.8691">&#25490;&#38500;&#24847;&#24605;</text><rect fill="#F1F1F1" height="37.6094" rx="12.5" ry="12.5" style="stroke:#181818;stroke-width:1.5;" width="160" x="900.5518" y="807.5313"/><text fill="#000000" font-family="sans-serif" font-size="14" lengthAdjust="spacing" textLength="140" x="910.5518" y="832.0645">&#27704;&#20037;&#24615;&#25490;&#38500;&#21344;&#26377;&#20154;&#21344;&#26377;</text><path d="M850.5518,855.1406 L860.5518,855.1406 C875.5518,855.1406 875.5518,826.3359 890.5518,826.3359 L900.5518,826.3359 " fill="none" style="stroke:#181818;stroke-width:1;"/><rect fill="#F1F1F1" height="37.6094" rx="12.5" ry="12.5" style="stroke:#181818;stroke-width:1.5;" width="146" x="900.5518" y="865.1406"/><text fill="#000000" font-family="sans-serif" font-size="14" lengthAdjust="spacing" textLength="126" x="910.5518" y="889.6738">&#23558;&#36130;&#29289;&#36716;&#20026;&#33258;&#24049;&#21344;&#26377;</text><path d="M850.5518,855.1406 L860.5518,855.1406 C875.5518,855.1406 875.5518,883.9453 890.5518,883.9453 L900.5518,883.9453 " fill="none" style="stroke:#181818;stroke-width:1;"/><path d="M724.5518,912.75 L734.5518,912.75 C749.5518,912.75 749.5518,855.1406 764.5518,855.1406 L774.5518,855.1406 " fill="none" style="stroke:#181818;stroke-width:1;"/><rect fill="#F1F1F1" height="37.6094" rx="12.5" ry="12.5" style="stroke:#181818;stroke-width:1.5;" width="76" x="774.5518" y="951.5547"/><text fill="#000000" font-family="sans-serif" font-size="14" lengthAdjust="spacing" textLength="56" x="784.5518" y="976.0879">&#21033;&#29992;&#24847;&#24605;</text><rect fill="#F1F1F1" height="37.6094" rx="12.5" ry="12.5" style="stroke:#181818;stroke-width:1.5;" width="118" x="900.5518" y="951.5547"/><text fill="#000000" font-family="sans-serif" font-size="14" lengthAdjust="spacing" textLength="98" x="910.5518" y="976.0879">&#23545;&#36130;&#29289;&#36827;&#34892;&#21033;&#29992;</text><rect fill="#F1F1F1" height="37.6094" rx="12.5" ry="12.5" style="stroke:#181818;stroke-width:1.5;" width="76" x="1068.5518" y="922.75"/><text fill="#000000" font-family="sans-serif" font-size="14" lengthAdjust="spacing" textLength="56" x="1078.5518" y="947.2832">&#27491;&#24120;&#29992;&#36884;</text><path d="M1018.5518,970.3594 L1028.5518,970.3594 C1043.5518,970.3594 1043.5518,941.5547 1058.5518,941.5547 L1068.5518,941.5547 " fill="none" style="stroke:#181818;stroke-width:1;"/><rect fill="#90EE90" height="37.6094" rx="12.5" ry="12.5" style="stroke:#181818;stroke-width:1.5;" width="93.8896" x="1068.5518" y="980.3594"/><text fill="#000000" font-family="sans-serif" font-size="14" lengthAdjust="spacing" textLength="70" x="1078.5518" y="1004.8926">&#38750;&#27491;&#24120;&#29992;&#36884;</text><path d="M1018.5518,970.3594 L1028.5518,970.3594 C1043.5518,970.3594 1043.5518,999.1641 1058.5518,999.1641 L1068.5518,999.1641 " fill="none" style="stroke:#181818;stroke-width:1;"/><path d="M850.5518,970.3594 L860.5518,970.3594 C875.5518,970.3594 875.5518,970.3594 890.5518,970.3594 L900.5518,970.3594 " fill="none" style="stroke:#181818;stroke-width:1;"/><path d="M724.5518,912.75 L734.5518,912.75 C749.5518,912.75 749.5518,970.3594 764.5518,970.3594 L774.5518,970.3594 " fill="none" style="stroke:#181818;stroke-width:1;"/><path d="M626.5518,912.75 L636.5518,912.75 C651.5518,912.75 651.5518,912.75 666.5518,912.75 L676.5518,912.75 " fill="none" style="stroke:#181818;stroke-width:1;"/><rect fill="#F1F1F1" height="37.6094" rx="12.5" ry="12.5" style="stroke:#181818;stroke-width:1.5;" width="104" x="676.5518" y="1066.7734"/><text fill="#000000" font-family="sans-serif" font-size="14" lengthAdjust="spacing" textLength="84" x="686.5518" y="1091.3066">&#20026;&#35841;&#38750;&#27861;&#21344;&#26377;</text><rect fill="#F1F1F1" height="37.6094" rx="12.5" ry="12.5" style="stroke:#181818;stroke-width:1.5;" width="48" x="830.5518" y="1037.9688"/><text fill="#000000" font-family="sans-serif" font-size="14" lengthAdjust="spacing" textLength="28" x="840.5518" y="1062.502">&#33258;&#24049;</text><path d="M780.5518,1085.5781 L790.5518,1085.5781 C805.5518,1085.5781 805.5518,1056.7734 820.5518,1056.7734 L830.5518,1056.7734 " fill="none" style="stroke:#181818;stroke-width:1;"/><rect fill="#90EE90" height="37.6094" rx="12.5" ry="12.5" style="stroke:#181818;stroke-width:1.5;" width="51.8896" x="830.5518" y="1095.5781"/><text fill="#000000" font-family="sans-serif" font-size="14" lengthAdjust="spacing" textLength="28" x="840.5518" y="1120.1113">&#20182;&#20154;</text><path d="M780.5518,1085.5781 L790.5518,1085.5781 C805.5518,1085.5781 805.5518,1114.3828 820.5518,1114.3828 L830.5518,1114.3828 " fill="none" style="stroke:#181818;stroke-width:1;"/><path d="M626.5518,912.75 L636.5518,912.75 C651.5518,912.75 651.5518,1085.5781 666.5518,1085.5781 L676.5518,1085.5781 " fill="none" style="stroke:#181818;stroke-width:1;"/><path d="M468.6621,912.75 L478.6621,912.75 C493.6621,912.75 493.6621,912.75 508.6621,912.75 L518.6621,912.75 " fill="none" style="stroke:#181818;stroke-width:1;"/><path d="M370.6621,912.75 L380.6621,912.75 C395.6621,912.75 395.6621,912.75 410.6621,912.75 L420.6621,912.75 " fill="none" style="stroke:#181818;stroke-width:1;"/><path d="M272.6621,711.1172 L282.6621,711.1172 C297.6621,711.1172 297.6621,912.75 312.6621,912.75 L322.6621,912.75 " fill="none" style="stroke:#181818;stroke-width:1;"/><path d="M146.6621,595.8984 L156.6621,595.8984 C171.6621,595.8984 171.6621,711.1172 186.6621,711.1172 L196.6621,711.1172 " fill="none" style="stroke:#181818;stroke-width:1;"/><!--SRC=[xLXRJnj757xVNp5LNY0IvYA48WiXWWDg8uZIGl8Q3Uk9lM6zOwt7JgsgaXrk1agWWIJS2JG54d5j6s9CAJ-cdbtpBtfsrmvhO2_jQuqGsftvvZltStReJ32iifYaX6CuBWXVIOee9yC41GADrc-2fMNI69Unmf8nkS50DW2qmLmFIB0c24nYCa6bFpQBXMrzya0_-zZ0rmlQoYv_kQxFZWd2RPTD13-taVRxQtrvqdon5dXkJ3ywHUtj91QFueIKwEZuibj6pERW59z-fwrCNDdI9ZAmgAqENrc_M5sxVkGsAfwlQfFlzRq9lR3zdoIwIVMGVXrMp6TAkTrYeL1npTg8bfijRMMBfyTs1-rlbhPVND6mjF5JCL_W1oUbeusRD5oPu6UR40jzueE3aY2tU3Q7sc-f91pyFjZXfgW9DGArTSh72zhgh_hI29niQ-hkRciAHWbEfP-8KI8EFObXTSY5gspHuWxVN_00bJOosl5l3ihpJ87dydnyhtIGTL6Sxoreamj_Px8NSyVWCJwzuUIC_3IVt874TI7JSkVyQ0h8h0S0EsT0wNnLtyhoEJVbj8DN000-dXtd-UnDKNpxpYkAfU4phJ3h8aMV_sJOdragdc_ePp_hfolmm6S-E_4jBcbJwrOHkx1-2meRdiZdjToC_kB4xbd3cwVNCrPxFQgDp0ZkrQ8lxvkfvLIQDhlC3WETWwzDkMN0p1l-rrl0sFkIQr2o_CzXFtZW7XlLZZ-vaRryTR7u7gpMCgiUsQuTveiderfcspfZUGFgpgE9b1Kv7BEIf7Is2rsXDFwHVpxoR3yyzq6Vt_6bdT5dB07doqOTcITTpvIjslk5v_E0lSZC-u0RcM0xuISD37CFipuRhkKOjqPt-WPyNYrN43e93CtAuEoidgFjvdZi4CeBzoGSKN4C_G120eDoafXF27LXSIYYqgGI3b6PgaYM8b5cxCFkZmOs37qJ6h43lBnR0KTKGXGtPXDWGwSzmEaAbgfOYJWfRMrMeF6a6fUTeDPc1UficCqebIQSs6xrz7HrXK8LP9h8CdtkWBKsJQWGg8JHsrTsT9C3F36KDaDcnxQu-yeExO8bCGfPvaiPAQ9GbVY86qAzaaAkhbzI-1JhIcMGAGeLYSASVAEOJaUeXohCMXgK0NE55OgZh9l2W4oY2fP3gXIh67g9P3I66RqH-r0bSQnYO-NV7BixI5NcbJL-kHY3i3AlGl795g8ng1Rc5EtoIISw8peAYK30WDJkJBUcunMeC25nUxvN2-Y69ZWeIuceSyUodQ-MzZmgiQk-SH3pW39lIQPLOXehFgmISPYmByAmA4fXvvIkwgHUp4-XqXAsyeLtaVJXPoJfKSHK1XLK6hPbe4S9LKwOSk8q8J4fHUwAjdAuresnJFmQSca2n09xKiSa6816w_QJK-KfPf0daeFFY6ZGEta7fs3i4jKdRqgYK44cDVLYDlpkszsNZRowSDrhjIgNFKU407_Q6yjV4hLBTksINRjaroxPjKjsxPBzVxraFpJ-2_sehnUbY9emFZwQ0orDBQs1EtNzcA47D8MQsr1JSx2rDTZQXaBz0yZOhXVg-huPG0cQX6yl58Ol4rKQJ1hZkbwuZrCOVPU4uHqZGMIyrGtqrQF-xieYwbPIaagL60niuVxZFWk4lgQiFqwP2MvhRUYI6EedAgY57lS9zyXJd9GP71LfM58YGVHeeAVXZj0BWps98o08FgL2CF6PceQz_dy0]--></g></svg>