<svg xmlns="http://www.w3.org/2000/svg" xmlns:xlink="http://www.w3.org/1999/xlink" contentStyleType="text/css" height="828px" preserveAspectRatio="none" style="width:1068px;height:828px;background:#FFFFFF;" version="1.1" viewBox="0 0 1068 828" width="1068px" zoomAndPan="magnify"><title>&#36130;&#20135;&#29359;&#32618; - &#32618;&#25968;&#32852;&#31995;</title><defs/><g><text fill="#000000" font-family="sans-serif" font-size="14" font-weight="bold" lengthAdjust="spacing" textLength="127.9414" x="468.8774" y="34.5332">&#36130;&#20135;&#29359;&#32618; - &#32618;&#25968;&#32852;&#31995;</text><rect fill="#F1F1F1" height="37.6094" rx="12.5" ry="12.5" style="stroke:#181818;stroke-width:1.5;" width="76" x="10" y="413.5703"/><text fill="#000000" font-family="sans-serif" font-size="14" lengthAdjust="spacing" textLength="56" x="20" y="438.1035">&#32618;&#25968;&#32852;&#31995;</text><rect fill="#F1F1F1" height="37.6094" rx="12.5" ry="12.5" style="stroke:#181818;stroke-width:1.5;" width="76" x="136" y="197.5352"/><text fill="#000000" font-family="sans-serif" font-size="14" lengthAdjust="spacing" textLength="56" x="146" y="222.0684">&#24605;&#32771;&#32500;&#24230;</text><rect fill="#F1F1F1" height="37.6094" rx="12.5" ry="12.5" style="stroke:#181818;stroke-width:1.5;" width="48" x="262" y="58.6094"/><text fill="#000000" font-family="sans-serif" font-size="14" lengthAdjust="spacing" textLength="28" x="272" y="83.1426">&#20154;&#25968;</text><path d="M212,216.3398 L222,216.3398 C237,216.3398 237,77.4141 252,77.4141 L262,77.4141 " fill="none" style="stroke:#181818;stroke-width:1;"/><rect fill="#F1F1F1" height="37.6094" rx="12.5" ry="12.5" style="stroke:#181818;stroke-width:1.5;" width="48" x="262" y="116.2188"/><text fill="#000000" font-family="sans-serif" font-size="14" lengthAdjust="spacing" textLength="28" x="272" y="140.752">&#27861;&#30410;</text><text fill="#000000" font-family="sans-serif" font-size="14" lengthAdjust="spacing" textLength="182" x="363" y="74.3379">&#36825;&#37324;&#19968;&#23450;&#23450;&#26159;&#20405;&#29359;&#22810;&#20010;&#27861;&#30410;&#65292;</text><text fill="#000000" font-family="sans-serif" font-size="14" lengthAdjust="spacing" textLength="238" x="363" y="91.9473">&#22914;&#26524;&#21482;&#20405;&#29359;&#19968;&#20010;&#27861;&#30410;&#65292;&#27809;&#26377;&#35752;&#35770;&#30340;&#24517;&#35201;</text><path d="M310,135.0234 L320,135.0234 C335,135.0234 335,77.4141 350,77.4141 L360,77.4141 " fill="none" style="stroke:#181818;stroke-width:1;"/><rect fill="#F1F1F1" height="37.6094" rx="12.5" ry="12.5" style="stroke:#181818;stroke-width:1.5;" width="57.3379" x="360" y="106.0234"/><text fill="#000000" font-family="sans-serif" font-size="14" lengthAdjust="spacing" textLength="37.3379" x="370" y="130.5566">&#27861;&#30410;A</text><path d="M310,135.0234 L320,135.0234 C335,135.0234 335,124.8281 350,124.8281 L360,124.8281 " fill="none" style="stroke:#181818;stroke-width:1;"/><rect fill="#F1F1F1" height="37.6094" rx="12.5" ry="12.5" style="stroke:#181818;stroke-width:1.5;" width="57.3379" x="360" y="163.6328"/><text fill="#000000" font-family="sans-serif" font-size="14" lengthAdjust="spacing" textLength="37.3379" x="370" y="188.166">&#27861;&#30410;B</text><path d="M310,135.0234 L320,135.0234 C335,135.0234 335,182.4375 350,182.4375 L360,182.4375 " fill="none" style="stroke:#181818;stroke-width:1;"/><path d="M212,216.3398 L222,216.3398 C237,216.3398 237,135.0234 252,135.0234 L262,135.0234 " fill="none" style="stroke:#181818;stroke-width:1;"/><rect fill="#F1F1F1" height="37.6094" rx="12.5" ry="12.5" style="stroke:#181818;stroke-width:1.5;" width="48" x="262" y="250.0469"/><text fill="#000000" font-family="sans-serif" font-size="14" lengthAdjust="spacing" textLength="28" x="272" y="274.5801">&#34892;&#20026;</text><rect fill="#F1F1F1" height="37.6094" rx="12.5" ry="12.5" style="stroke:#181818;stroke-width:1.5;" width="48" x="360" y="221.2422"/><text fill="#000000" font-family="sans-serif" font-size="14" lengthAdjust="spacing" textLength="28" x="370" y="245.7754">&#19968;&#20010;</text><path d="M310,268.8516 L320,268.8516 C335,268.8516 335,240.0469 350,240.0469 L360,240.0469 " fill="none" style="stroke:#181818;stroke-width:1;"/><rect fill="#F1F1F1" height="37.6094" rx="12.5" ry="12.5" style="stroke:#181818;stroke-width:1.5;" width="48" x="360" y="278.8516"/><text fill="#000000" font-family="sans-serif" font-size="14" lengthAdjust="spacing" textLength="28" x="370" y="303.3848">&#20004;&#20010;</text><path d="M310,268.8516 L320,268.8516 C335,268.8516 335,297.6563 350,297.6563 L360,297.6563 " fill="none" style="stroke:#181818;stroke-width:1;"/><path d="M212,216.3398 L222,216.3398 C237,216.3398 237,268.8516 252,268.8516 L262,268.8516 " fill="none" style="stroke:#181818;stroke-width:1;"/><rect fill="#F1F1F1" height="37.6094" rx="12.5" ry="12.5" style="stroke:#181818;stroke-width:1.5;" width="90" x="262" y="336.4609"/><text fill="#000000" font-family="sans-serif" font-size="14" lengthAdjust="spacing" textLength="70" x="272" y="360.9941">&#36130;&#20135;&#24615;&#21033;&#30410;</text><path d="M212,216.3398 L222,216.3398 C237,216.3398 237,355.2656 252,355.2656 L262,355.2656 " fill="none" style="stroke:#181818;stroke-width:1;"/><path d="M86,432.375 L96,432.375 C111,432.375 111,216.3398 126,216.3398 L136,216.3398 " fill="none" style="stroke:#181818;stroke-width:1;"/><rect fill="#F1F1F1" height="37.6094" rx="12.5" ry="12.5" style="stroke:#181818;stroke-width:1.5;" width="48" x="136" y="581.3008"/><text fill="#000000" font-family="sans-serif" font-size="14" lengthAdjust="spacing" textLength="28" x="146" y="605.834">&#22330;&#26223;</text><rect fill="#F1F1F1" height="37.6094" rx="12.5" ry="12.5" style="stroke:#181818;stroke-width:1.5;" width="76" x="234" y="494.8867"/><text fill="#000000" font-family="sans-serif" font-size="14" lengthAdjust="spacing" textLength="56" x="244" y="519.4199">&#38144;&#36163;&#34892;&#20026;</text><rect fill="#F1F1F1" height="37.6094" rx="12.5" ry="12.5" style="stroke:#181818;stroke-width:1.5;" width="90" x="360" y="422.875"/><text fill="#000000" font-family="sans-serif" font-size="14" lengthAdjust="spacing" textLength="70" x="370" y="447.4082">&#30423;&#31363;&#19982;&#38144;&#36163;</text><rect fill="#F1F1F1" height="37.6094" rx="12.5" ry="12.5" style="stroke:#181818;stroke-width:1.5;" width="122.6963" x="500" y="422.875"/><text fill="#000000" font-family="sans-serif" font-size="14" lengthAdjust="spacing" textLength="102.6963" x="510" y="447.4082">&#21334;&#26641;&#26696;&#65288;P292&#65289;</text><rect fill="#F1F1F1" height="37.6094" rx="12.5" ry="12.5" style="stroke:#181818;stroke-width:1.5;" width="384" x="672.6963" y="394.0703"/><text fill="#000000" font-family="sans-serif" font-size="14" lengthAdjust="spacing" textLength="364" x="682.6963" y="418.6035">&#19968;&#20010;&#34892;&#20026;&#65288;&#21334;&#26641;&#65289;&#65292;&#20294;&#28041;&#21450;&#20004;&#20010;&#34987;&#23475;&#20154;&#65288;&#37051;&#23621;&#21644;&#26408;&#26448;&#21830;&#65289;&#12290;</text><path d="M622.6963,441.6797 L632.6963,441.6797 C647.6963,441.6797 647.6963,412.875 662.6963,412.875 L672.6963,412.875 " fill="none" style="stroke:#181818;stroke-width:1;"/><rect fill="#F1F1F1" height="37.6094" rx="12.5" ry="12.5" style="stroke:#181818;stroke-width:1.5;" width="356" x="672.6963" y="451.6797"/><text fill="#000000" font-family="sans-serif" font-size="14" lengthAdjust="spacing" textLength="336" x="682.6963" y="476.2129">&#22240;&#27492;&#65292;&#30423;&#31363;&#32618;&#21644;&#35784;&#39575;&#32618;&#21487;&#20197;&#24819;&#35937;&#31454;&#21512;&#65292;&#25321;&#19968;&#37325;&#32618;&#35770;&#22788;&#12290;</text><path d="M622.6963,441.6797 L632.6963,441.6797 C647.6963,441.6797 647.6963,470.4844 662.6963,470.4844 L672.6963,470.4844 " fill="none" style="stroke:#181818;stroke-width:1;"/><path d="M450,441.6797 L460,441.6797 C475,441.6797 475,441.6797 490,441.6797 L500,441.6797 " fill="none" style="stroke:#181818;stroke-width:1;"/><path d="M310,513.6914 L320,513.6914 C335,513.6914 335,441.6797 350,441.6797 L360,441.6797 " fill="none" style="stroke:#181818;stroke-width:1;"/><rect fill="#F1F1F1" height="37.6094" rx="12.5" ry="12.5" style="stroke:#181818;stroke-width:1.5;" width="90" x="360" y="538.0938"/><text fill="#000000" font-family="sans-serif" font-size="14" lengthAdjust="spacing" textLength="70" x="370" y="562.627">&#35784;&#39575;&#19982;&#38144;&#36163;</text><rect fill="#F1F1F1" height="37.6094" rx="12.5" ry="12.5" style="stroke:#181818;stroke-width:1.5;" width="122.6963" x="500" y="538.0938"/><text fill="#000000" font-family="sans-serif" font-size="14" lengthAdjust="spacing" textLength="102.6963" x="510" y="562.627">&#20004;&#22836;&#39575;&#65288;P292&#65289;</text><rect fill="#F1F1F1" height="37.6094" rx="12.5" ry="12.5" style="stroke:#181818;stroke-width:1.5;" width="174" x="672.6963" y="509.2891"/><text fill="#000000" font-family="sans-serif" font-size="14" lengthAdjust="spacing" textLength="154" x="682.6963" y="533.8223">&#20004;&#20010;&#34892;&#20026;&#65292;&#20004;&#20010;&#27861;&#30410;&#20405;&#23475;</text><path d="M622.6963,556.8984 L632.6963,556.8984 C647.6963,556.8984 647.6963,528.0938 662.6963,528.0938 L672.6963,528.0938 " fill="none" style="stroke:#181818;stroke-width:1;"/><rect fill="#F1F1F1" height="37.6094" rx="12.5" ry="12.5" style="stroke:#181818;stroke-width:1.5;" width="132" x="672.6963" y="566.8984"/><text fill="#000000" font-family="sans-serif" font-size="14" lengthAdjust="spacing" textLength="112" x="682.6963" y="591.4316">&#20004;&#20010;&#35784;&#39575;&#32618;&#65292;&#24182;&#32602;</text><path d="M622.6963,556.8984 L632.6963,556.8984 C647.6963,556.8984 647.6963,585.7031 662.6963,585.7031 L672.6963,585.7031 " fill="none" style="stroke:#181818;stroke-width:1;"/><path d="M450,556.8984 L460,556.8984 C475,556.8984 475,556.8984 490,556.8984 L500,556.8984 " fill="none" style="stroke:#181818;stroke-width:1;"/><path d="M310,513.6914 L320,513.6914 C335,513.6914 335,556.8984 350,556.8984 L360,556.8984 " fill="none" style="stroke:#181818;stroke-width:1;"/><rect fill="#F1F1F1" height="37.6094" rx="12.5" ry="12.5" style="stroke:#181818;stroke-width:1.5;" width="90" x="360" y="595.7031"/><text fill="#000000" font-family="sans-serif" font-size="14" lengthAdjust="spacing" textLength="70" x="370" y="620.2363">&#20405;&#21344;&#19982;&#38144;&#36163;</text><path d="M310,513.6914 L320,513.6914 C335,513.6914 335,614.5078 350,614.5078 L360,614.5078 " fill="none" style="stroke:#181818;stroke-width:1;"/><path d="M184,600.1055 L194,600.1055 C209,600.1055 209,513.6914 224,513.6914 L234,513.6914 " fill="none" style="stroke:#181818;stroke-width:1;"/><rect fill="#F1F1F1" height="37.6094" rx="12.5" ry="12.5" style="stroke:#181818;stroke-width:1.5;" width="104" x="234" y="710.9219"/><text fill="#000000" font-family="sans-serif" font-size="14" lengthAdjust="spacing" textLength="84" x="244" y="735.4551">&#20813;&#38500;&#36820;&#36824;&#20041;&#21153;</text><rect fill="#F1F1F1" height="37.6094" rx="12.5" ry="12.5" style="stroke:#181818;stroke-width:1.5;" width="104" x="388" y="653.3125"/><text fill="#000000" font-family="sans-serif" font-size="14" lengthAdjust="spacing" textLength="84" x="398" y="677.8457">&#20808;&#20405;&#21344;&#21518;&#35784;&#39575;</text><path d="M338,729.7266 L348,729.7266 C363,729.7266 363,672.1172 378,672.1172 L388,672.1172 " fill="none" style="stroke:#181818;stroke-width:1;"/><rect fill="#F1F1F1" height="37.6094" rx="12.5" ry="12.5" style="stroke:#181818;stroke-width:1.5;" width="104" x="388" y="710.9219"/><text fill="#000000" font-family="sans-serif" font-size="14" lengthAdjust="spacing" textLength="84" x="398" y="735.4551">&#20808;&#20405;&#21344;&#21518;&#26432;&#23475;</text><path d="M338,729.7266 L348,729.7266 C363,729.7266 363,729.7266 378,729.7266 L388,729.7266 " fill="none" style="stroke:#181818;stroke-width:1;"/><rect fill="#F1F1F1" height="37.6094" rx="12.5" ry="12.5" style="stroke:#181818;stroke-width:1.5;" width="104" x="388" y="768.5313"/><text fill="#000000" font-family="sans-serif" font-size="14" lengthAdjust="spacing" textLength="84" x="398" y="793.0645">&#20808;&#35784;&#39575;&#21518;&#25250;&#21163;</text><path d="M338,729.7266 L348,729.7266 C363,729.7266 363,787.3359 378,787.3359 L388,787.3359 " fill="none" style="stroke:#181818;stroke-width:1;"/><path d="M184,600.1055 L194,600.1055 C209,600.1055 209,729.7266 224,729.7266 L234,729.7266 " fill="none" style="stroke:#181818;stroke-width:1;"/><rect fill="#F1F1F1" height="37.6094" rx="12.5" ry="12.5" style="stroke:#181818;stroke-width:1.5;" width="76" x="234" y="768.5313"/><text fill="#000000" font-family="sans-serif" font-size="14" lengthAdjust="spacing" textLength="56" x="244" y="793.0645">&#20808;&#20599;&#21518;&#39575;</text><path d="M184,600.1055 L194,600.1055 C209,600.1055 209,787.3359 224,787.3359 L234,787.3359 " fill="none" style="stroke:#181818;stroke-width:1;"/><path d="M86,432.375 L96,432.375 C111,432.375 111,600.1055 126,600.1055 L136,600.1055 " fill="none" style="stroke:#181818;stroke-width:1;"/><!--SRC=[xLXjJzjM5FxkNt6dVG6aX9SXrA5gWgIWhI8LMcW_JPfkdDl4nVQDxEjKsJGfG6b31eLDi9Qt2b16Mz1W7RIZ0SQFQUmud_WBExOJS0AEiyy3HIW-vpdFEVUyNSo0oh32946EIpZ5SPy9CYzgSOA2mKxdexACI3fJ8fQP9ea12na0QC2M1mMGSHmJc4YGURXLAhukv_VBfpieWE2tiVIdER5OFZZck8xwPmG_7SZ8hflPgVBneLxSjaMEk5Gi0j8bC0wMoglv2u4j_1wPPykLPxEbewo-jm8Vu-L-wP_tu5ulh9IETXoRyvFPxsHzUz9ujQRFxpXwi73hZRysZRKPS- -DkLSihppHpwRDxObwNzK01g-LXbo1cfiGJx41vlYx8YouXHtLx1dPrthkRUsm7KXVAnhB-ovOPJ5hlf-wrazvzKLvPwfqzDp1r6chR7E_6Hk_69kvyvFSQC-NFUSdCrTGxfWTDm1s304E-IgTFZK-pEZpUUS8vjQkldS09GDOPV9OVpUj_pfhhBqnrXVqfQTWyYaxwU54Nzqm_YW0fHCvD0YOclkvoiuBw_lyVkduTsFgm7otMTvzfI_ah6Bz_1P2gpoR0m3KIoyyQQI7JDeCpV80aUk5Gm2ra8U2Am-ppgDJTsWcE7XpkzfPm5J_-A5ykjBO1S0njt4rLCZDz5nbkM2UBPfdBqiVP_JyPeEfFfrphFM5vuwV9W1ZFTiOgmrm32r0ValFxzRvp-aJVuF68kO62Eo7seuOg5yPj-rDy1LN5TmHS4B14leHo88nKIFsDuH2c1zFA5IJus4gKWM9GYB9B3reVxAmSQoCAoJk0QzgQ-24GeZSZDa6kD0P7t2cXgKAbXDUGJlA6ZIbAIdH2-eeQr3lWxaEfL3LY-tpuU5GA1ok8JD45EbZ3woZjA5SKCA2F9OaKerucCeiAln0q1TTdAKdKYg9LK7rpwKRtUK1LySpTadTs9xckNH3Go3Yaz1zBGKZ96Iga1RgYj2889D6-IL5YswRKbbaianv8ZEltCXsKPmIEAAO29W6LXYUQcmo0pA1obWCAy950I-HZ4gOqMknemf9OGLRalzYDXYZ2lFhgbQv68EoChz1Qf4jJ2MO9kPLxQgb5vrL7Paae610wavciwNaLwWu8IbtlzSx688b6HC5DUczqLpszTuU9mNMc1iFD_Sey_TaduhFOBc5K_4uJjY5CyppGjoxfUishH_pGvWqrJM-yCoJ27v4D9yXfYA4eD2ugmDzHgXcOVj9KLLWGfeCygvnkBAjiKXQFSZb4Q0Ms9TQ4k22j5PxAprLlUKiSbMBFIAyHU-L7Po6QvaeBVAc1GeJP5DJFsOhxosd-tAHrmzkyrcjwsNVAuA3NxSxgtzftBnltBnltBnl_6_UDqQj_ptSZuoWD55KQyzs1tkwUdg3jzgYcA5xD8sw-r1NTtzlRtzl7mf7nv2bRkVQ8j-C8PLgSCsWE2nXHOXfrcPgv-xYD4RVQh2d9DAFhAUsiKWxYWxLX6X8JWiAbINOJTpT1n47XBwcB9gYp0RtzGP20aDHea1Ow464kqCUOaraOChJk20d-j7ziU70BMu4TfY64-08ReqmB3UcP40N_HS0]--></g></svg>