<svg xmlns="http://www.w3.org/2000/svg" xmlns:xlink="http://www.w3.org/1999/xlink" contentStyleType="text/css" height="521px" preserveAspectRatio="none" style="width:1753px;height:521px;background:#FFFFFF;" version="1.1" viewBox="0 0 1753 521" width="1753px" zoomAndPan="magnify"><title>&#36130;&#20135;&#29359;&#32618;&#65288;&#26500;&#25104;&#35201;&#20214;&#65289;</title><defs/><g><text fill="#000000" font-family="sans-serif" font-size="14" font-weight="bold" lengthAdjust="spacing" textLength="144.375" x="803.2593" y="34.5332">&#36130;&#20135;&#29359;&#32618;&#65288;&#26500;&#25104;&#35201;&#20214;&#65289;</text><rect fill="#FFD700" height="57.7344" rx="12.5" ry="12.5" style="stroke:#181818;stroke-width:1.5;" width="148.335" x="815.7793" y="250.1797"/><text fill="#000000" font-family="sans-serif" font-size="30" lengthAdjust="spacing" textLength="120" x="825.7793" y="291.3223">&#36130;&#20135;&#29359;&#32618;</text><rect fill="#F1F1F1" height="37.6094" rx="12.5" ry="12.5" style="stroke:#181818;stroke-width:1.5;" width="62" x="1014.1143" y="260.2422"/><text fill="#000000" font-family="sans-serif" font-size="14" lengthAdjust="spacing" textLength="42" x="1024.1143" y="284.7754">&#21463;&#23475;&#20154;</text><rect fill="#F1F1F1" height="37.6094" rx="12.5" ry="12.5" style="stroke:#181818;stroke-width:1.5;" width="76" x="1126.1143" y="260.2422"/><text fill="#000000" font-family="sans-serif" font-size="14" lengthAdjust="spacing" textLength="56" x="1136.1143" y="284.7754">&#34892;&#20026;&#23545;&#35937;</text><rect fill="#F1F1F1" height="37.6094" rx="12.5" ry="12.5" style="stroke:#181818;stroke-width:1.5;" width="76" x="1252.1143" y="202.6328"/><text fill="#000000" font-family="sans-serif" font-size="14" lengthAdjust="spacing" textLength="56" x="1262.1143" y="227.166">&#26377;&#24418;&#36130;&#29289;</text><rect fill="#F1F1F1" height="42.75" rx="12.5" ry="12.5" style="stroke:#181818;stroke-width:1.5;" width="72.8896" x="1378.1143" y="113.6484"/><text fill="#000000" font-family="sans-serif" font-size="14" lengthAdjust="spacing" textLength="28" x="1388.1143" y="143.3223">&#20154;&#20307;</text><path d="M1432.5648,134.1496 L1439.7019,127.0131 C1440.2712,126.4438 1440.2712,125.5204 1439.7019,124.951 C1439.132,124.3811 1438.2092,124.3811 1437.6398,124.951 L1430.5027,132.0875 L1423.3662,124.951 C1422.7969,124.3811 1421.8729,124.3811 1421.3042,124.951 C1420.7342,125.5204 1420.7342,126.4438 1421.3042,127.0131 L1428.4407,134.1496 L1421.2878,141.303 C1420.7179,141.8729 1420.7179,142.7958 1421.2878,143.3651 C1421.5725,143.6498 1421.9458,143.7921 1422.3192,143.7921 C1422.6925,143.7921 1423.0658,143.6498 1423.3505,143.3651 L1430.5033,136.2117 L1437.6398,143.3482 C1437.9245,143.6329 1438.2978,143.7752 1438.6712,143.7752 C1439.0445,143.7752 1439.4172,143.6329 1439.7025,143.3482 C1440.2718,142.7783 1440.2718,141.8554 1439.7025,141.2861 L1432.5648,134.1496 " fill="#FE0000" style="stroke:;stroke-width:0;stroke-dasharray:;"/><rect fill="#F1F1F1" height="42.75" rx="12.5" ry="12.5" style="stroke:#181818;stroke-width:1.5;" width="142.8896" x="1501.0039" y="113.6484"/><text fill="#000000" font-family="sans-serif" font-size="14" lengthAdjust="spacing" textLength="98" x="1511.0039" y="143.3223">&#20154;&#20307;&#20998;&#31163;&#20986;&#26469;&#30340;</text><path d="M1632.9946,124.4505 C1632.1832,123.9244 1631.1,124.1554 1630.5744,124.9662 L1620.7686,140.0809 L1615.9864,135.6593 C1615.2765,135.003 1614.1699,135.0462 1613.5136,135.7561 C1612.8574,136.4654 1612.9006,137.5732 1613.6105,138.2289 L1619.8895,144.0342 C1620.0697,144.1894 1620.0697,144.1894 1620.1531,144.2436 C1620.4471,144.4349 1620.7773,144.5259 1621.104,144.5259 C1621.6768,144.5259 1622.2386,144.2448 1622.574,143.7279 L1633.5103,126.8708 C1634.0365,126.0599 1633.8055,124.9761 1632.9946,124.4505 " fill="#FE0000" style="stroke:;stroke-width:0;stroke-dasharray:;"/><rect fill="#F1F1F1" height="37.6094" rx="12.5" ry="12.5" style="stroke:#181818;stroke-width:1.5;" width="48" x="1693.8936" y="87.4141"/><text fill="#000000" font-family="sans-serif" font-size="14" lengthAdjust="spacing" textLength="28" x="1703.8936" y="111.9473">&#22120;&#23448;</text><path d="M1643.8936,135.0234 L1653.8936,135.0234 C1668.8936,135.0234 1668.8936,106.2188 1683.8936,106.2188 L1693.8936,106.2188 " fill="none" style="stroke:#181818;stroke-width:1;"/><rect fill="#F1F1F1" height="37.6094" rx="12.5" ry="12.5" style="stroke:#181818;stroke-width:1.5;" width="48" x="1693.8936" y="145.0234"/><text fill="#000000" font-family="sans-serif" font-size="14" lengthAdjust="spacing" textLength="28" x="1703.8936" y="169.5566">&#34880;&#28082;</text><path d="M1643.8936,135.0234 L1653.8936,135.0234 C1668.8936,135.0234 1668.8936,163.8281 1683.8936,163.8281 L1693.8936,163.8281 " fill="none" style="stroke:#181818;stroke-width:1;"/><path d="M1451.0039,135.0234 L1461.0039,135.0234 C1476.0039,135.0234 1476.0039,135.0234 1491.0039,135.0234 L1501.0039,135.0234 " fill="none" style="stroke:#181818;stroke-width:1;"/><path d="M1328.1143,221.4375 L1338.1143,221.4375 C1353.1143,221.4375 1353.1143,135.0234 1368.1143,135.0234 L1378.1143,135.0234 " fill="none" style="stroke:#181818;stroke-width:1;"/><rect fill="#F1F1F1" height="37.6094" rx="12.5" ry="12.5" style="stroke:#181818;stroke-width:1.5;" width="76" x="1378.1143" y="202.6328"/><text fill="#000000" font-family="sans-serif" font-size="14" lengthAdjust="spacing" textLength="56" x="1388.1143" y="227.166">&#20538;&#21048;&#20973;&#35777;</text><rect fill="#F1F1F1" height="37.6094" rx="12.5" ry="12.5" style="stroke:#181818;stroke-width:1.5;" width="104" x="1504.1143" y="202.6328"/><text fill="#000000" font-family="sans-serif" font-size="14" lengthAdjust="spacing" textLength="84" x="1514.1143" y="227.166">&#23384;&#25240;&#12289;&#38134;&#34892;&#21345;</text><path d="M1454.1143,221.4375 L1464.1143,221.4375 C1479.1143,221.4375 1479.1143,221.4375 1494.1143,221.4375 L1504.1143,221.4375 " fill="none" style="stroke:#181818;stroke-width:1;"/><path d="M1328.1143,221.4375 L1338.1143,221.4375 C1353.1143,221.4375 1353.1143,221.4375 1368.1143,221.4375 L1378.1143,221.4375 " fill="none" style="stroke:#181818;stroke-width:1;"/><rect fill="#F1F1F1" height="37.6094" rx="12.5" ry="12.5" style="stroke:#181818;stroke-width:1.5;" width="62" x="1378.1143" y="260.2422"/><text fill="#000000" font-family="sans-serif" font-size="14" lengthAdjust="spacing" textLength="42" x="1388.1143" y="284.7754">&#19981;&#21160;&#20135;</text><rect fill="#F1F1F1" height="37.6094" rx="12.5" ry="12.5" style="stroke:#181818;stroke-width:1.5;" width="118" x="1490.1143" y="260.2422"/><text fill="#000000" font-family="sans-serif" font-size="14" lengthAdjust="spacing" textLength="98" x="1500.1143" y="284.7754">&#25151;&#23627;&#12289;&#25151;&#23627;&#20135;&#26435;</text><path d="M1440.1143,279.0469 L1450.1143,279.0469 C1465.1143,279.0469 1465.1143,279.0469 1480.1143,279.0469 L1490.1143,279.0469 " fill="none" style="stroke:#181818;stroke-width:1;"/><path d="M1328.1143,221.4375 L1338.1143,221.4375 C1353.1143,221.4375 1353.1143,279.0469 1368.1143,279.0469 L1378.1143,279.0469 " fill="none" style="stroke:#181818;stroke-width:1;"/><rect fill="#F1F1F1" height="37.6094" rx="12.5" ry="12.5" style="stroke:#181818;stroke-width:1.5;" width="62" x="1378.1143" y="317.8516"/><text fill="#000000" font-family="sans-serif" font-size="14" lengthAdjust="spacing" textLength="42" x="1388.1143" y="342.3848">&#36829;&#31105;&#21697;</text><rect fill="#F1F1F1" height="37.6094" rx="12.5" ry="12.5" style="stroke:#181818;stroke-width:1.5;" width="90" x="1490.1143" y="317.8516"/><text fill="#000000" font-family="sans-serif" font-size="14" lengthAdjust="spacing" textLength="70" x="1500.1143" y="342.3848">&#27602;&#21697;&#12289;&#20551;&#24065;</text><path d="M1440.1143,336.6563 L1450.1143,336.6563 C1465.1143,336.6563 1465.1143,336.6563 1480.1143,336.6563 L1490.1143,336.6563 " fill="none" style="stroke:#181818;stroke-width:1;"/><path d="M1328.1143,221.4375 L1338.1143,221.4375 C1353.1143,221.4375 1353.1143,336.6563 1368.1143,336.6563 L1378.1143,336.6563 " fill="none" style="stroke:#181818;stroke-width:1;"/><path d="M1202.1143,279.0469 L1212.1143,279.0469 C1227.1143,279.0469 1227.1143,221.4375 1242.1143,221.4375 L1252.1143,221.4375 " fill="none" style="stroke:#181818;stroke-width:1;"/><rect fill="#F1F1F1" height="37.6094" rx="12.5" ry="12.5" style="stroke:#181818;stroke-width:1.5;" width="76" x="1252.1143" y="404.2656"/><text fill="#000000" font-family="sans-serif" font-size="14" lengthAdjust="spacing" textLength="56" x="1262.1143" y="428.7988">&#26080;&#24418;&#36130;&#29289;</text><rect fill="#F1F1F1" height="37.6094" rx="12.5" ry="12.5" style="stroke:#181818;stroke-width:1.5;" width="48" x="1378.1143" y="375.4609"/><text fill="#000000" font-family="sans-serif" font-size="14" lengthAdjust="spacing" textLength="28" x="1388.1143" y="399.9941">&#33021;&#28304;</text><rect fill="#F1F1F1" height="37.6094" rx="12.5" ry="12.5" style="stroke:#181818;stroke-width:1.5;" width="132" x="1476.1143" y="375.4609"/><text fill="#000000" font-family="sans-serif" font-size="14" lengthAdjust="spacing" textLength="112" x="1486.1143" y="399.9941">&#30005;&#12289;&#36890;&#20449;&#32593;&#32476;&#20449;&#21495;</text><path d="M1426.1143,394.2656 L1436.1143,394.2656 C1451.1143,394.2656 1451.1143,394.2656 1466.1143,394.2656 L1476.1143,394.2656 " fill="none" style="stroke:#181818;stroke-width:1;"/><path d="M1328.1143,423.0703 L1338.1143,423.0703 C1353.1143,423.0703 1353.1143,394.2656 1368.1143,394.2656 L1378.1143,394.2656 " fill="none" style="stroke:#181818;stroke-width:1;"/><rect fill="#F1F1F1" height="37.6094" rx="12.5" ry="12.5" style="stroke:#181818;stroke-width:1.5;" width="76" x="1378.1143" y="433.0703"/><text fill="#000000" font-family="sans-serif" font-size="14" lengthAdjust="spacing" textLength="56" x="1388.1143" y="457.6035">&#34394;&#25311;&#36130;&#20135;</text><rect fill="#F1F1F1" height="37.6094" rx="12.5" ry="12.5" style="stroke:#181818;stroke-width:1.5;" width="114.8896" x="1504.1143" y="433.0703"/><text fill="#000000" font-family="sans-serif" font-size="14" lengthAdjust="spacing" textLength="94.8896" x="1514.1143" y="457.6035">Q&#24065;&#12289;&#28216;&#25103;&#28857;&#21345;</text><path d="M1454.1143,451.875 L1464.1143,451.875 C1479.1143,451.875 1479.1143,451.875 1494.1143,451.875 L1504.1143,451.875 " fill="none" style="stroke:#181818;stroke-width:1;"/><path d="M1328.1143,423.0703 L1338.1143,423.0703 C1353.1143,423.0703 1353.1143,451.875 1368.1143,451.875 L1378.1143,451.875 " fill="none" style="stroke:#181818;stroke-width:1;"/><path d="M1202.1143,279.0469 L1212.1143,279.0469 C1227.1143,279.0469 1227.1143,423.0703 1242.1143,423.0703 L1252.1143,423.0703 " fill="none" style="stroke:#181818;stroke-width:1;"/><path d="M1076.1143,279.0469 L1086.1143,279.0469 C1101.1143,279.0469 1101.1143,279.0469 1116.1143,279.0469 L1126.1143,279.0469 " fill="none" style="stroke:#181818;stroke-width:1;"/><path d="M964.1143,279.0469 L974.1143,279.0469 C989.1143,279.0469 989.1143,279.0469 1004.1143,279.0469 L1014.1143,279.0469 " fill="none" style="stroke:#181818;stroke-width:1;"/><rect fill="#F1F1F1" height="37.6094" rx="12.5" ry="12.5" style="stroke:#181818;stroke-width:1.5;" width="62" x="703.7793" y="260.2422"/><text fill="#000000" font-family="sans-serif" font-size="14" lengthAdjust="spacing" textLength="42" x="713.7793" y="284.7754">&#26045;&#23475;&#20154;</text><rect fill="#F1F1F1" height="37.6094" rx="12.5" ry="12.5" style="stroke:#181818;stroke-width:1.5;" width="76" x="577.7793" y="87.4141"/><text fill="#000000" font-family="sans-serif" font-size="14" lengthAdjust="spacing" textLength="56" x="587.7793" y="111.9473">&#29359;&#32618;&#31867;&#22411;</text><rect fill="#F1F1F1" height="37.6094" rx="12.5" ry="12.5" style="stroke:#181818;stroke-width:1.5;" width="118" x="409.7793" y="58.6094"/><text fill="#000000" font-family="sans-serif" font-size="14" lengthAdjust="spacing" textLength="98" x="419.7793" y="83.1426">&#21462;&#24471;&#22411;&#36130;&#20135;&#29359;&#32618;</text><path d="M577.7793,106.2188 L567.7793,106.2188 C552.7793,106.2188 552.7793,77.4141 537.7793,77.4141 L527.7793,77.4141 " fill="none" style="stroke:#181818;stroke-width:1;"/><rect fill="#F1F1F1" height="37.6094" rx="12.5" ry="12.5" style="stroke:#181818;stroke-width:1.5;" width="118" x="409.7793" y="116.2188"/><text fill="#000000" font-family="sans-serif" font-size="14" lengthAdjust="spacing" textLength="98" x="419.7793" y="140.752">&#27585;&#24323;&#22411;&#36130;&#20135;&#29359;&#32618;</text><path d="M577.7793,106.2188 L567.7793,106.2188 C552.7793,106.2188 552.7793,135.0234 537.7793,135.0234 L527.7793,135.0234 " fill="none" style="stroke:#181818;stroke-width:1;"/><path d="M703.7793,279.0469 L693.7793,279.0469 C678.7793,279.0469 678.7793,106.2188 663.7793,106.2188 L653.7793,106.2188 " fill="none" style="stroke:#181818;stroke-width:1;"/><rect fill="#90EE90" height="37.6094" rx="12.5" ry="12.5" style="stroke:#181818;stroke-width:1.5;" width="107.8896" x="545.8896" y="317.8516"/><text fill="#000000" font-family="sans-serif" font-size="14" lengthAdjust="spacing" textLength="84" x="555.8896" y="342.3848">&#38750;&#27861;&#21344;&#26377;&#30446;&#30340;</text><rect fill="#F1F1F1" height="37.6094" rx="12.5" ry="12.5" style="stroke:#181818;stroke-width:1.5;" width="48" x="447.8896" y="260.2422"/><text fill="#000000" font-family="sans-serif" font-size="14" lengthAdjust="spacing" textLength="28" x="457.8896" y="284.7754">&#20869;&#28085;</text><rect fill="#F1F1F1" height="37.6094" rx="12.5" ry="12.5" style="stroke:#181818;stroke-width:1.5;" width="76" x="321.8896" y="202.6328"/><text fill="#000000" font-family="sans-serif" font-size="14" lengthAdjust="spacing" textLength="56" x="331.8896" y="227.166">&#25490;&#38500;&#24847;&#24605;</text><rect fill="#F1F1F1" height="37.6094" rx="12.5" ry="12.5" style="stroke:#181818;stroke-width:1.5;" width="160" x="111.8896" y="173.8281"/><text fill="#000000" font-family="sans-serif" font-size="14" lengthAdjust="spacing" textLength="140" x="121.8896" y="198.3613">&#27704;&#20037;&#24615;&#25490;&#38500;&#21344;&#26377;&#20154;&#21344;&#26377;</text><path d="M321.8896,221.4375 L311.8896,221.4375 C296.8896,221.4375 296.8896,192.6328 281.8896,192.6328 L271.8896,192.6328 " fill="none" style="stroke:#181818;stroke-width:1;"/><rect fill="#F1F1F1" height="37.6094" rx="12.5" ry="12.5" style="stroke:#181818;stroke-width:1.5;" width="146" x="125.8896" y="231.4375"/><text fill="#000000" font-family="sans-serif" font-size="14" lengthAdjust="spacing" textLength="126" x="135.8896" y="255.9707">&#23558;&#36130;&#29289;&#36716;&#20026;&#33258;&#24049;&#21344;&#26377;</text><path d="M321.8896,221.4375 L311.8896,221.4375 C296.8896,221.4375 296.8896,250.2422 281.8896,250.2422 L271.8896,250.2422 " fill="none" style="stroke:#181818;stroke-width:1;"/><path d="M447.8896,279.0469 L437.8896,279.0469 C422.8896,279.0469 422.8896,221.4375 407.8896,221.4375 L397.8896,221.4375 " fill="none" style="stroke:#181818;stroke-width:1;"/><rect fill="#F1F1F1" height="37.6094" rx="12.5" ry="12.5" style="stroke:#181818;stroke-width:1.5;" width="76" x="321.8896" y="317.8516"/><text fill="#000000" font-family="sans-serif" font-size="14" lengthAdjust="spacing" textLength="56" x="331.8896" y="342.3848">&#21033;&#29992;&#24847;&#24605;</text><rect fill="#F1F1F1" height="37.6094" rx="12.5" ry="12.5" style="stroke:#181818;stroke-width:1.5;" width="118" x="153.8896" y="317.8516"/><text fill="#000000" font-family="sans-serif" font-size="14" lengthAdjust="spacing" textLength="98" x="163.8896" y="342.3848">&#23545;&#36130;&#29289;&#36827;&#34892;&#21033;&#29992;</text><rect fill="#F1F1F1" height="37.6094" rx="12.5" ry="12.5" style="stroke:#181818;stroke-width:1.5;" width="76" x="27.8896" y="289.0469"/><text fill="#000000" font-family="sans-serif" font-size="14" lengthAdjust="spacing" textLength="56" x="37.8896" y="313.5801">&#27491;&#24120;&#29992;&#36884;</text><path d="M153.8896,336.6563 L143.8896,336.6563 C128.8896,336.6563 128.8896,307.8516 113.8896,307.8516 L103.8896,307.8516 " fill="none" style="stroke:#181818;stroke-width:1;"/><rect fill="#90EE90" height="37.6094" rx="12.5" ry="12.5" style="stroke:#181818;stroke-width:1.5;" width="93.8896" x="10" y="346.6563"/><text fill="#000000" font-family="sans-serif" font-size="14" lengthAdjust="spacing" textLength="70" x="20" y="371.1895">&#38750;&#27491;&#24120;&#29992;&#36884;</text><path d="M153.8896,336.6563 L143.8896,336.6563 C128.8896,336.6563 128.8896,365.4609 113.8896,365.4609 L103.8896,365.4609 " fill="none" style="stroke:#181818;stroke-width:1;"/><path d="M321.8896,336.6563 L311.8896,336.6563 C296.8896,336.6563 296.8896,336.6563 281.8896,336.6563 L271.8896,336.6563 " fill="none" style="stroke:#181818;stroke-width:1;"/><path d="M447.8896,279.0469 L437.8896,279.0469 C422.8896,279.0469 422.8896,336.6563 407.8896,336.6563 L397.8896,336.6563 " fill="none" style="stroke:#181818;stroke-width:1;"/><path d="M545.8896,336.6563 L535.8896,336.6563 C520.8896,336.6563 520.8896,279.0469 505.8896,279.0469 L495.8896,279.0469 " fill="none" style="stroke:#181818;stroke-width:1;"/><rect fill="#F1F1F1" height="37.6094" rx="12.5" ry="12.5" style="stroke:#181818;stroke-width:1.5;" width="104" x="391.8896" y="433.0703"/><text fill="#000000" font-family="sans-serif" font-size="14" lengthAdjust="spacing" textLength="84" x="401.8896" y="457.6035">&#20026;&#35841;&#38750;&#27861;&#21344;&#26377;</text><rect fill="#F1F1F1" height="37.6094" rx="12.5" ry="12.5" style="stroke:#181818;stroke-width:1.5;" width="48" x="293.8896" y="404.2656"/><text fill="#000000" font-family="sans-serif" font-size="14" lengthAdjust="spacing" textLength="28" x="303.8896" y="428.7988">&#33258;&#24049;</text><path d="M391.8896,451.875 L381.8896,451.875 C366.8896,451.875 366.8896,423.0703 351.8896,423.0703 L341.8896,423.0703 " fill="none" style="stroke:#181818;stroke-width:1;"/><rect fill="#90EE90" height="37.6094" rx="12.5" ry="12.5" style="stroke:#181818;stroke-width:1.5;" width="51.8896" x="290" y="461.875"/><text fill="#000000" font-family="sans-serif" font-size="14" lengthAdjust="spacing" textLength="28" x="300" y="486.4082">&#20182;&#20154;</text><path d="M391.8896,451.875 L381.8896,451.875 C366.8896,451.875 366.8896,480.6797 351.8896,480.6797 L341.8896,480.6797 " fill="none" style="stroke:#181818;stroke-width:1;"/><path d="M545.8896,336.6563 L535.8896,336.6563 C520.8896,336.6563 520.8896,451.875 505.8896,451.875 L495.8896,451.875 " fill="none" style="stroke:#181818;stroke-width:1;"/><path d="M703.7793,279.0469 L693.7793,279.0469 C678.7793,279.0469 678.7793,336.6563 663.7793,336.6563 L653.7793,336.6563 " fill="none" style="stroke:#181818;stroke-width:1;"/><path d="M815.7793,279.0469 L805.7793,279.0469 C790.7793,279.0469 790.7793,279.0469 775.7793,279.0469 L765.7793,279.0469 " fill="none" style="stroke:#181818;stroke-width:1;"/><!--SRC=[xLXTJzjM6BxthpXJRm29y364gWWXIWhQAb9r2-rjTM8V4XVR9x9FqcNJf6HG2316LnXV1LQwZT9gVAqh3O6C7xFO3bVz2tjj9-24ECdkGGWvxtdUv_r-Jyo0nh3AP54HP1pZkCz4XPVY0a4-NuVpgx6aH3fY4bPON9RQBMGxGDjjkKy46SSnaKa45Vz-NSYzCMSFpFoxJsSPOslIo3mlxgGBfyUVpcOuhgq2WVhwP2mger4Ya_v-JY9Z36cYG3W4Fst8MCxh- -yBkPpzsP4vYkRHgRurTobsZlI5PVsV5P2xJLHXZ8EqVZRXXMb35vjRnljVzFbNniQC-NBVN9y47uaSYs9DrC35AejJpupZ3nN2afcVNboi_MvCBXYfpMl79SXXjd3op4YzSR2EIOZLUV1GqW-dm75pvcqn_sSXcojElzC_7dbe03hprbpQhUk5Vd1I8Zn_MTp-qT6eYIrvlVURdiq2vYArL0TcfT65h9T3Aup3j3llDI9n0grnK3XTXfnLygjY95hHH_h2ohK-Wc31iXN-qNPrZspCwFdNJbfgcSpb2lb5r7TB9OB_6t-_HsOTc9wPCdTEzUcSiVc7tKosLfJWHF8n7oNy-6CPg-CU92NlrtRr_TKwWE9soZZ-grRzKpazazMdzue7QQ_wxwqQiwl_fj8NYyTM_UUtQqMSdTTdTs5Sl5evSwuVpG69ym10OtEYLXNFDysTjBxevOnny08EWKTFJ-lPT7LPLbxLAqjn8c_addimcqiVh1XJwuNpRJF_itcw0G_wmiTQF6lhnjolpdhmOFiAdBEYpMQDp8BvmucLDOuR8B0_opjqe7AbzjcRifyh2UwAEA9Y6Nq71dnXAKxi9uG6CJyUKMbS4G9KeYgIh4wspk7qUmihGBD00td0IwTbS4GbHAd7R0DSw6G3SBACfIfM8bvEEuTbQ2oknYGlg7DOXde7vWfAfPeNswtXuS71GA2CJ199eayziCwX3ULybtTG2JnC5HOIloNeyywQoX4g2PobM5uwZPFiHdTwmBNnf5rhDxQxVfBTq44GyL5epwQS4ICALKaJ1KTeH5H8jVoAeacpTQaiCaMXF56OLsuKkrfERHnHM09C5IjCLSatXG6PI1Ki1LJnih9NI4Pbp6XDx0ELnB2ABSd_KRiJfYfhr6xDSZ46PMMD9gn9jW2LOSoOLxLBcbvqLdKK4e620QaxcVMsLQD22OJ4tFrUQM08jcTO4hMezwfpwLTQUneLMNLkFCpSfwon9JigFecL9gBYiK3OfJ7Cy_0TnBEbArPm8-Onc3JDDRxmcIT1_8J46mmnh2gYg5HmTM234Ifhs7PYL1EPc21tUDSuN5lZM2BD1d8L0jG2DwIMHRWvhPtVJ4-LhZ-BN8k7dn3UelVA3ax0VKtK9daJ8eK9igbf8sOhxqsd-sgHLmvk_LcjwEM6LmG7V_ewIbz1RbxKRbxKRbxKRbxKRbxKx3Up1zO_jHu6Hr22g9fr3tNvkZkxUtotMqAOeViqWRfwKMUNlwV7tzEB0g5HP1stSYt1BqUHHkDm3IC1BYbL3CUjpTtAtSC9ZBwEmnwNYHzPdrf6WwqeD5GMeY4b8QfKaM5tS_SU1HqG-eAoK8mo6zpRqpueCXGYAhY57WMvksGCnoK6gZmLH2NYHmz7XzjlSoEmu-Cu0eRWLWt0ycTg4iv2_m40]--></g></svg>