<svg xmlns="http://www.w3.org/2000/svg" xmlns:xlink="http://www.w3.org/1999/xlink" contentStyleType="text/css" height="643px" preserveAspectRatio="none" style="width:1277px;height:643px;" version="1.1" viewBox="0 0 1277 643" width="1277px" zoomAndPan="magnify"><title>&#36130;&#20135;&#29359;&#32618;-&#25250;&#22842;&#32618;</title><defs/><g><text fill="#000000" font-family="sans-serif" font-size="14" font-weight="bold" lengthAdjust="spacing" textLength="105.7246" x="584.5825" y="34.5332">&#36130;&#20135;&#29359;&#32618;-&#25250;&#22842;&#32618;</text><rect fill="#F1F1F1" height="37.6094" rx="12.5" ry="12.5" style="stroke:#181818;stroke-width:1.5;" width="62" x="10" y="321.0586"/><text fill="#000000" font-family="sans-serif" font-size="14" lengthAdjust="spacing" textLength="42" x="20" y="345.5918">&#25250;&#22842;&#32618;</text><rect fill="#F1F1F1" height="37.6094" rx="12.5" ry="12.5" style="stroke:#181818;stroke-width:1.5;" width="76" x="122" y="58.6094"/><text fill="#000000" font-family="sans-serif" font-size="14" lengthAdjust="spacing" textLength="56" x="132" y="83.1426">&#26500;&#25104;&#35201;&#20214;</text><rect fill="#F1F1F1" height="37.6094" rx="12.5" ry="12.5" style="stroke:#181818;stroke-width:1.5;" width="48" x="248" y="58.6094"/><text fill="#000000" font-family="sans-serif" font-size="14" lengthAdjust="spacing" textLength="28" x="258" y="83.1426">&#34892;&#20026;</text><rect fill="#90EE90" height="37.6094" rx="12.5" ry="12.5" style="stroke:#181818;stroke-width:1.5;" width="79.8896" x="346" y="58.6094"/><text fill="#000000" font-family="sans-serif" font-size="14" lengthAdjust="spacing" textLength="56" x="356" y="83.1426">&#34892;&#20026;&#32467;&#26500;</text><rect fill="#F1F1F1" height="37.6094" rx="12.5" ry="12.5" style="stroke:#181818;stroke-width:1.5;" width="104" x="475.8896" y="58.6094"/><text fill="#000000" font-family="sans-serif" font-size="14" lengthAdjust="spacing" textLength="84" x="485.8896" y="83.1426">&#23545;&#29289;&#23454;&#26045;&#26292;&#21147;</text><rect fill="#F1F1F1" height="37.6094" rx="12.5" ry="12.5" style="stroke:#181818;stroke-width:1.5;" width="90" x="629.8896" y="58.6094"/><text fill="#000000" font-family="sans-serif" font-size="14" lengthAdjust="spacing" textLength="70" x="639.8896" y="83.1426">&#23545;&#20154;&#26377;&#21361;&#38505;</text><path d="M579.8896,77.4141 L589.8896,77.4141 C604.8896,77.4141 604.8896,77.4141 619.8896,77.4141 L629.8896,77.4141 " fill="none" style="stroke:#181818;stroke-width:1;"/><path d="M425.8896,77.4141 L435.8896,77.4141 C450.8896,77.4141 450.8896,77.4141 465.8896,77.4141 L475.8896,77.4141 " fill="none" style="stroke:#181818;stroke-width:1;"/><path d="M296,77.4141 L306,77.4141 C321,77.4141 321,77.4141 336,77.4141 L346,77.4141 " fill="none" style="stroke:#181818;stroke-width:1;"/><path d="M198,77.4141 L208,77.4141 C223,77.4141 223,77.4141 238,77.4141 L248,77.4141 " fill="none" style="stroke:#181818;stroke-width:1;"/><path d="M72,339.8633 L82,339.8633 C97,339.8633 97,77.4141 112,77.4141 L122,77.4141 " fill="none" style="stroke:#181818;stroke-width:1;"/><rect fill="#F1F1F1" height="37.6094" rx="12.5" ry="12.5" style="stroke:#181818;stroke-width:1.5;" width="48" x="122" y="292.2539"/><text fill="#000000" font-family="sans-serif" font-size="14" lengthAdjust="spacing" textLength="28" x="132" y="316.7871">&#27861;&#26465;</text><rect fill="#90EE90" height="37.6094" rx="12.5" ry="12.5" style="stroke:#181818;stroke-width:1.5;" width="79.8896" x="220" y="292.2539"/><text fill="#000000" font-family="sans-serif" font-size="14" lengthAdjust="spacing" textLength="56" x="230" y="316.7871">&#27861;&#26465;&#25311;&#21046;</text><rect fill="#F1F1F1" height="37.6094" rx="12.5" ry="12.5" style="stroke:#181818;stroke-width:1.5;" width="244" x="349.8896" y="292.2539"/><text fill="#000000" font-family="sans-serif" font-size="14" lengthAdjust="spacing" textLength="224" x="359.8896" y="316.7871">&#12302;&#25658;&#24102;&#20982;&#22120;&#25250;&#22842;&#12303;&#25311;&#21046;&#20026;&#12302;&#25250;&#21163;&#32618;&#12303;</text><rect fill="#F1F1F1" height="37.6094" rx="12.5" ry="12.5" style="stroke:#181818;stroke-width:1.5;" width="48" x="643.8896" y="292.2539"/><text fill="#000000" font-family="sans-serif" font-size="14" lengthAdjust="spacing" textLength="28" x="653.8896" y="316.7871">&#35299;&#37322;</text><rect fill="#F1F1F1" height="37.6094" rx="12.5" ry="12.5" style="stroke:#181818;stroke-width:1.5;" width="48" x="741.8896" y="159.4258"/><text fill="#000000" font-family="sans-serif" font-size="14" lengthAdjust="spacing" textLength="28" x="751.8896" y="183.959">&#20982;&#22120;</text><rect fill="#F1F1F1" height="37.6094" rx="12.5" ry="12.5" style="stroke:#181818;stroke-width:1.5;" width="104" x="839.8896" y="116.2188"/><text fill="#000000" font-family="sans-serif" font-size="14" lengthAdjust="spacing" textLength="84" x="849.8896" y="140.752">&#24615;&#36136;&#19978;&#30340;&#20982;&#22120;</text><path d="M789.8896,178.2305 L799.8896,178.2305 C814.8896,178.2305 814.8896,135.0234 829.8896,135.0234 L839.8896,135.0234 " fill="none" style="stroke:#181818;stroke-width:1;"/><rect fill="#FFA500" height="37.6094" rx="12.5" ry="12.5" style="stroke:#181818;stroke-width:1.5;" width="107.8896" x="839.8896" y="173.8281"/><text fill="#000000" font-family="sans-serif" font-size="14" lengthAdjust="spacing" textLength="84" x="849.8896" y="198.3613">&#29992;&#27861;&#19978;&#30340;&#20982;&#22120;</text><rect fill="#F1F1F1" height="37.6094" rx="12.5" ry="12.5" style="stroke:#181818;stroke-width:1.5;" width="90" x="997.7793" y="145.0234"/><text fill="#000000" font-family="sans-serif" font-size="14" lengthAdjust="spacing" textLength="70" x="1007.7793" y="169.5566">&#26432;&#20260;&#21147;&#22823;&#23567;</text><path d="M947.7793,192.6328 L957.7793,192.6328 C972.7793,192.6328 972.7793,163.8281 987.7793,163.8281 L997.7793,163.8281 " fill="none" style="stroke:#181818;stroke-width:1;"/><rect fill="#F1F1F1" height="37.6094" rx="12.5" ry="12.5" style="stroke:#181818;stroke-width:1.5;" width="90" x="997.7793" y="202.6328"/><text fill="#000000" font-family="sans-serif" font-size="14" lengthAdjust="spacing" textLength="70" x="1007.7793" y="227.166">&#30031;&#24807;&#24863;&#22823;&#23567;</text><path d="M947.7793,192.6328 L957.7793,192.6328 C972.7793,192.6328 972.7793,221.4375 987.7793,221.4375 L997.7793,221.4375 " fill="none" style="stroke:#181818;stroke-width:1;"/><path d="M789.8896,178.2305 L799.8896,178.2305 C814.8896,178.2305 814.8896,192.6328 829.8896,192.6328 L839.8896,192.6328 " fill="none" style="stroke:#181818;stroke-width:1;"/><path d="M691.8896,311.0586 L701.8896,311.0586 C716.8896,311.0586 716.8896,178.2305 731.8896,178.2305 L741.8896,178.2305 " fill="none" style="stroke:#181818;stroke-width:1;"/><rect fill="#F1F1F1" height="37.6094" rx="12.5" ry="12.5" style="stroke:#181818;stroke-width:1.5;" width="48" x="741.8896" y="364.2656"/><text fill="#000000" font-family="sans-serif" font-size="14" lengthAdjust="spacing" textLength="28" x="751.8896" y="388.7988">&#25658;&#24102;</text><rect fill="#F1F1F1" height="37.6094" rx="12.5" ry="12.5" style="stroke:#181818;stroke-width:1.5;" width="48" x="839.8896" y="277.8516"/><text fill="#000000" font-family="sans-serif" font-size="14" lengthAdjust="spacing" textLength="28" x="849.8896" y="302.3848">&#35841;&#24102;</text><path d="M789.8896,383.0703 L799.8896,383.0703 C814.8896,383.0703 814.8896,296.6563 829.8896,296.6563 L839.8896,296.6563 " fill="none" style="stroke:#181818;stroke-width:1;"/><rect fill="#F1F1F1" height="37.6094" rx="12.5" ry="12.5" style="stroke:#181818;stroke-width:1.5;" width="48" x="839.8896" y="335.4609"/><text fill="#000000" font-family="sans-serif" font-size="14" lengthAdjust="spacing" textLength="28" x="849.8896" y="359.9941">&#20351;&#29992;</text><rect fill="#F1F1F1" height="37.6094" rx="12.5" ry="12.5" style="stroke:#181818;stroke-width:1.5;" width="132" x="937.8896" y="260.2422"/><text fill="#000000" font-family="sans-serif" font-size="14" lengthAdjust="spacing" textLength="112" x="947.8896" y="284.7754">&#19981;&#35201;&#27714;&#26174;&#31034;&#12289;&#26263;&#31034;</text><path d="M887.8896,354.2656 L897.8896,354.2656 C912.8896,354.2656 912.8896,279.0469 927.8896,279.0469 L937.8896,279.0469 " fill="none" style="stroke:#181818;stroke-width:1;"/><rect fill="#F1F1F1" height="37.6094" rx="12.5" ry="12.5" style="stroke:#181818;stroke-width:1.5;" width="90" x="937.8896" y="335.4609"/><text fill="#000000" font-family="sans-serif" font-size="14" lengthAdjust="spacing" textLength="70" x="947.8896" y="359.9941">&#19981;&#35201;&#27714;&#20351;&#29992;</text><rect fill="#F1F1F1" height="72.8281" rx="12.5" ry="12.5" style="stroke:#181818;stroke-width:1.5;" width="188" x="1077.8896" y="317.8516"/><text fill="#000000" font-family="sans-serif" font-size="14" lengthAdjust="spacing" textLength="168" x="1087.8896" y="342.3848">&#22914;&#26524;&#20351;&#29992;&#20982;&#22120;&#65292;&#23545;&#20154;&#26292;&#21147;&#65292;</text><text fill="#000000" font-family="sans-serif" font-size="14" lengthAdjust="spacing" textLength="98" x="1087.8896" y="359.9941">&#30452;&#25509;&#23450;&#25250;&#21163;&#32618;&#65292;</text><text fill="#000000" font-family="sans-serif" font-size="14" lengthAdjust="spacing" textLength="154" x="1087.8896" y="377.6035">&#23601;&#19981;&#26159;&#36825;&#37324;&#30340;&#27861;&#24459;&#25311;&#21046;&#20102;</text><path d="M1027.8896,354.2656 L1037.8896,354.2656 C1052.8896,354.2656 1052.8896,354.2656 1067.8896,354.2656 L1077.8896,354.2656 " fill="none" style="stroke:#181818;stroke-width:1;"/><path d="M887.8896,354.2656 L897.8896,354.2656 C912.8896,354.2656 912.8896,354.2656 927.8896,354.2656 L937.8896,354.2656 " fill="none" style="stroke:#181818;stroke-width:1;"/><rect fill="#F1F1F1" height="37.6094" rx="12.5" ry="12.5" style="stroke:#181818;stroke-width:1.5;" width="132" x="937.8896" y="410.6797"/><text fill="#000000" font-family="sans-serif" font-size="14" lengthAdjust="spacing" textLength="112" x="947.8896" y="435.2129">&#38543;&#26102;&#20351;&#29992;&#30340;&#21487;&#33021;&#24615;</text><path d="M887.8896,354.2656 L897.8896,354.2656 C912.8896,354.2656 912.8896,429.4844 927.8896,429.4844 L937.8896,429.4844 " fill="none" style="stroke:#181818;stroke-width:1;"/><path d="M789.8896,383.0703 L799.8896,383.0703 C814.8896,383.0703 814.8896,354.2656 829.8896,354.2656 L839.8896,354.2656 " fill="none" style="stroke:#181818;stroke-width:1;"/><rect fill="#F1F1F1" height="37.6094" rx="12.5" ry="12.5" style="stroke:#181818;stroke-width:1.5;" width="174" x="839.8896" y="468.2891"/><text fill="#000000" font-family="sans-serif" font-size="14" lengthAdjust="spacing" textLength="154" x="849.8896" y="492.8223">&#23545;&#20154;&#20351;&#29992;&#30340;&#24847;&#22270;&#65288;&#20027;&#35266;&#65289;</text><path d="M789.8896,383.0703 L799.8896,383.0703 C814.8896,383.0703 814.8896,487.0938 829.8896,487.0938 L839.8896,487.0938 " fill="none" style="stroke:#181818;stroke-width:1;"/><path d="M691.8896,311.0586 L701.8896,311.0586 C716.8896,311.0586 716.8896,383.0703 731.8896,383.0703 L741.8896,383.0703 " fill="none" style="stroke:#181818;stroke-width:1;"/><path d="M593.8896,311.0586 L603.8896,311.0586 C618.8896,311.0586 618.8896,311.0586 633.8896,311.0586 L643.8896,311.0586 " fill="none" style="stroke:#181818;stroke-width:1;"/><path d="M299.8896,311.0586 L309.8896,311.0586 C324.8896,311.0586 324.8896,311.0586 339.8896,311.0586 L349.8896,311.0586 " fill="none" style="stroke:#181818;stroke-width:1;"/><path d="M170,311.0586 L180,311.0586 C195,311.0586 195,311.0586 210,311.0586 L220,311.0586 " fill="none" style="stroke:#181818;stroke-width:1;"/><path d="M72,339.8633 L82,339.8633 C97,339.8633 97,311.0586 112,311.0586 L122,311.0586 " fill="none" style="stroke:#181818;stroke-width:1;"/><rect fill="#F1F1F1" height="37.6094" rx="12.5" ry="12.5" style="stroke:#181818;stroke-width:1.5;" width="76" x="122" y="554.7031"/><text fill="#000000" font-family="sans-serif" font-size="14" lengthAdjust="spacing" textLength="56" x="132" y="579.2363">&#21496;&#27861;&#35299;&#37322;</text><rect fill="#90EE90" height="37.6094" rx="12.5" ry="12.5" style="stroke:#181818;stroke-width:1.5;" width="79.8896" x="248" y="525.8984"/><text fill="#000000" font-family="sans-serif" font-size="14" lengthAdjust="spacing" textLength="56" x="258" y="550.4316">&#39134;&#36710;&#25250;&#22842;</text><rect fill="#F1F1F1" height="37.6094" rx="12.5" ry="12.5" style="stroke:#181818;stroke-width:1.5;" width="300" x="377.8896" y="525.8984"/><text fill="#000000" font-family="sans-serif" font-size="14" lengthAdjust="spacing" textLength="280" x="387.8896" y="550.4316">&#35268;&#23450;&#20102;&#20960;&#31181;&#12302;&#25250;&#22842;&#24773;&#26223;&#12303;&#24212;&#25353;&#12302;&#25250;&#21163;&#32618;&#12303;&#22788;&#29702;</text><path d="M327.8896,544.7031 L337.8896,544.7031 C352.8896,544.7031 352.8896,544.7031 367.8896,544.7031 L377.8896,544.7031 " fill="none" style="stroke:#181818;stroke-width:1;"/><path d="M198,573.5078 L208,573.5078 C223,573.5078 223,544.7031 238,544.7031 L248,544.7031 " fill="none" style="stroke:#181818;stroke-width:1;"/><rect fill="#90EE90" height="37.6094" rx="12.5" ry="12.5" style="stroke:#181818;stroke-width:1.5;" width="93.8896" x="248" y="583.5078"/><text fill="#000000" font-family="sans-serif" font-size="14" lengthAdjust="spacing" textLength="70" x="258" y="608.041">&#32467;&#26524;&#21152;&#37325;&#29359;</text><rect fill="#F1F1F1" height="37.6094" rx="12.5" ry="12.5" style="stroke:#181818;stroke-width:1.5;" width="160" x="391.8896" y="583.5078"/><text fill="#000000" font-family="sans-serif" font-size="14" lengthAdjust="spacing" textLength="140" x="401.8896" y="608.041">&#25250;&#22842;&#32618;&#33268;&#20154;&#37325;&#20260;&#12289;&#27515;&#20129;</text><path d="M341.8896,602.3125 L351.8896,602.3125 C366.8896,602.3125 366.8896,602.3125 381.8896,602.3125 L391.8896,602.3125 " fill="none" style="stroke:#181818;stroke-width:1;"/><path d="M198,573.5078 L208,573.5078 C223,573.5078 223,602.3125 238,602.3125 L248,602.3125 " fill="none" style="stroke:#181818;stroke-width:1;"/><path d="M72,339.8633 L82,339.8633 C97,339.8633 97,573.5078 112,573.5078 L122,573.5078 " fill="none" style="stroke:#181818;stroke-width:1;"/><!--SRC=[xLZRJzjM67_tNt6clK2bX8jGLI64A2begqXLBRHFUpbnJeEBxHFPnwcYQHANh84K6gIrQxcKbfOHkca5D8IoSEaVqzWnJ_mB-tn9S58SUyyZGf7zdT_vxj_lv32YCgmmIP1J4ivmt3U2p8jQYg1ejCVvKrbE93qP4SjCayI8XOm0D6BBemB8E4wT5kGCLh24afYVJYjKarCnAb85CGNBAYmHcN4S4vX8a7dulbOjrujxzTC_8aRnlRvTXIUEku4kNn1yu7qpRooic3kpjUCZM-I8pQsbMgNQ57Y5zUDVOHCQ6Y9IPWghWZeyt89piFhUF_N5Z_gdJUEtKsFjK2-kVmLg0clLgh6ng2yVdAz-RBZrzqlZpPR78KTWF7khBnpvsxw1limyDrQgUcL7BnpfgxjEk5zcIivESDy2WB3u9-G0v5UuRfO_d1UAVkxQQgzST1sTAPk7kxLAiRwM3mJNN-n2O5wm9xR-AnBRPklDJEra6tAhRvVr_L80klwoPCoNZVpR3cZGQMUlWy_c_cndGEtqCyGLu4ojiWnDPnpC6Q_FwbQ5PesrL_0GTbi88sx1TkQCpGq7xgJuucJ9RJgxB-7rHxc-VcWy_rt_jDRi3Lkixn-0HUFrdlbvzRom15M2SkbdpznkgZuDSFTyhMIyEdACMoKkxPdpfz0X7RBdkDRSOkHB-lhPnSb2hN9ibkSkJXRT2T5B5V2bhLV1ueTDytJ7QVjESsAMyn0jHA0NtjNBo-vKR5UD-L-CrJqO3BtwmbXQR9iMVJjVNtdgCMUJmOPUV7TUM0QwwMInoJncuH0YX0tGkrRT_pgkLRSuReG0FpOuSgILCeTi9XpcNC4T0QSj9lm9J4IJeaRi9uH6svXH5D9Jp5g7rPyjR0ehqmf9-S3TrGOuhH0YTz9i0ppeN00ury1IOEoqdzFEOWEQqPICw0Tr5XjG_y0yGIbKzTFsxVZuw6Wira3cY2ZI9pvOPz66Sj56oODpvKNt-i3LwPnTCY-sltEklD1H4F5Jq6-Xd17ICbL8YBeXD278f5r-gIAasOwgB6MoJ7auoFro8zj9HsYSoimH9KN0j6c5uN1zanae4wYCnPWYI8r0Bv6CIfZHAx7t5MBzth0a_sNRxIHLM53NXDN569IL1GrAI6qnAi6qCBzgkplzr5dLaKaQ2WPAlSdiH3f1XKeHal7sUwk1CI31f2YeK_wCvTdVQkt9bC3QS-DZvXvbmPRigFWSbaD4nUCKOKrZcEU5b7zBjp1faEP7C6cgPtpXdITn_9Xe0KDCHN11eIbF1mQCK6E7RIT3LO49MNARzup3LsoCHH8saCiGe1OuKBKam05eKNUOdd9FCKkvgYKV4zvIxvSTd8LZboWXzMO52XDagwP1cgsyXqxt9P6t3cxdMMtfvS0ZWeEleHxtbyJrVUhwFdLzdxg-J_rFxbFthVyjFOXFe2nHLEkSwOlsz_OFH6zr9J13zsWMzTr4lNs30mE30pTHB369hELkhYl-_IHIgGR7B4h18QG8ISrYvcxkBivYz8C6F2sHGMIzTKt6kr5Yh254Ot9MKAWiMJnwzs7S0Q7lA4jaABF1DmSYem932QA0M-XXdBj37c5DPB2Lfob1JW-Y1vFZaLlS172uXjDW24xD650rKtAmblWN]--></g></svg>