<svg xmlns="http://www.w3.org/2000/svg" xmlns:xlink="http://www.w3.org/1999/xlink" contentStyleType="text/css" height="1310px" preserveAspectRatio="none" style="width:1291px;height:1310px;background:#FFFFFF;" version="1.1" viewBox="0 0 1291 1310" width="1291px" zoomAndPan="magnify"><title>&#25296;&#21334;&#22919;&#22899;&#20799;&#31461;&#32618;</title><defs/><g><text fill="#000000" font-family="sans-serif" font-size="14" font-weight="bold" lengthAdjust="spacing" textLength="101.0625" x="593.9136" y="34.5332">&#25296;&#21334;&#22919;&#22899;&#20799;&#31461;&#32618;</text><rect fill="#F1F1F1" height="37.6094" rx="12.5" ry="12.5" style="stroke:#181818;stroke-width:1.5;" width="118" x="10" y="654.8828"/><text fill="#000000" font-family="sans-serif" font-size="14" lengthAdjust="spacing" textLength="98" x="20" y="679.416">&#25296;&#21334;&#22919;&#22899;&#20799;&#31461;&#32618;</text><rect fill="#F1F1F1" height="37.6094" rx="12.5" ry="12.5" style="stroke:#181818;stroke-width:1.5;" width="48" x="178" y="87.4141"/><text fill="#000000" font-family="sans-serif" font-size="14" lengthAdjust="spacing" textLength="28" x="188" y="111.9473">&#27861;&#30410;</text><rect fill="#90EE90" height="37.6094" rx="12.5" ry="12.5" style="stroke:#181818;stroke-width:1.5;" width="163.8896" x="276" y="58.6094"/><text fill="#000000" font-family="sans-serif" font-size="14" lengthAdjust="spacing" textLength="140" x="286" y="83.1426">&#22919;&#22899;&#12289;&#20799;&#31461;&#30340;&#20154;&#36523;&#33258;&#30001;</text><path d="M226,106.2188 L236,106.2188 C251,106.2188 251,77.4141 266,77.4141 L276,77.4141 " fill="none" style="stroke:#181818;stroke-width:1;"/><rect fill="#F1F1F1" height="37.6094" rx="12.5" ry="12.5" style="stroke:#181818;stroke-width:1.5;" width="76" x="276" y="116.2188"/><text fill="#000000" font-family="sans-serif" font-size="14" lengthAdjust="spacing" textLength="56" x="286" y="140.752">&#35266;&#28857;&#23637;&#31034;</text><rect fill="#F1F1F1" height="37.6094" rx="12.5" ry="12.5" style="stroke:#181818;stroke-width:1.5;" width="104.0205" x="402" y="116.2188"/><text fill="#000000" font-family="sans-serif" font-size="14" lengthAdjust="spacing" textLength="84.0205" x="412" y="140.752">&#22810;&#25968;&#35828;(P221)</text><rect fill="#F1F1F1" height="37.6094" rx="12.5" ry="12.5" style="stroke:#181818;stroke-width:1.5;" width="412" x="556.0205" y="116.2188"/><text fill="#000000" font-family="sans-serif" font-size="14" lengthAdjust="spacing" textLength="392" x="566.0205" y="140.752">&#25104;&#24180;&#22919;&#22899;&#65292;&#22914;&#26524;&#21516;&#24847;&#25918;&#24323;&#35813;&#27861;&#30410;&#65292;&#21017;&#34892;&#20026;&#20154;&#19981;&#26500;&#25104;&#25296;&#21334;&#22919;&#22899;&#32618;&#12290;</text><path d="M506.0205,135.0234 L516.0205,135.0234 C531.0205,135.0234 531.0205,135.0234 546.0205,135.0234 L556.0205,135.0234 " fill="none" style="stroke:#181818;stroke-width:1;"/><path d="M352,135.0234 L362,135.0234 C377,135.0234 377,135.0234 392,135.0234 L402,135.0234 " fill="none" style="stroke:#181818;stroke-width:1;"/><path d="M226,106.2188 L236,106.2188 C251,106.2188 251,135.0234 266,135.0234 L276,135.0234 " fill="none" style="stroke:#181818;stroke-width:1;"/><path d="M128,673.6875 L138,673.6875 C153,673.6875 153,106.2188 168,106.2188 L178,106.2188 " fill="none" style="stroke:#181818;stroke-width:1;"/><rect fill="#F1F1F1" height="37.6094" rx="12.5" ry="12.5" style="stroke:#181818;stroke-width:1.5;" width="76" x="178" y="565.8984"/><text fill="#000000" font-family="sans-serif" font-size="14" lengthAdjust="spacing" textLength="56" x="188" y="590.4316">&#26500;&#25104;&#35201;&#20214;</text><rect fill="#F1F1F1" height="37.6094" rx="12.5" ry="12.5" style="stroke:#181818;stroke-width:1.5;" width="48" x="304" y="508.2891"/><text fill="#000000" font-family="sans-serif" font-size="14" lengthAdjust="spacing" textLength="28" x="314" y="532.8223">&#23458;&#35266;</text><rect fill="#F1F1F1" height="37.6094" rx="12.5" ry="12.5" style="stroke:#181818;stroke-width:1.5;" width="48" x="402" y="508.2891"/><text fill="#000000" font-family="sans-serif" font-size="14" lengthAdjust="spacing" textLength="28" x="412" y="532.8223">&#34892;&#20026;</text><rect fill="#90EE90" height="37.6094" rx="12.5" ry="12.5" style="stroke:#181818;stroke-width:1.5;" width="79.8896" x="500" y="202.6328"/><text fill="#000000" font-family="sans-serif" font-size="14" lengthAdjust="spacing" textLength="56" x="510" y="227.166">&#34892;&#20026;&#32467;&#26500;</text><rect fill="#F1F1F1" height="37.6094" rx="12.5" ry="12.5" style="stroke:#181818;stroke-width:1.5;" width="197.3379" x="629.8896" y="173.8281"/><text fill="#000000" font-family="sans-serif" font-size="14" lengthAdjust="spacing" textLength="177.3379" x="639.8896" y="198.3613">&#30446;&#30340;&#19968;&#65288;&#23454;&#21147;&#25511;&#21046;A&#30340;&#30446;&#30340;&#65289;</text><rect fill="#F1F1F1" height="37.6094" rx="12.5" ry="12.5" style="stroke:#181818;stroke-width:1.5;" width="197.3379" x="877.2275" y="173.8281"/><text fill="#000000" font-family="sans-serif" font-size="14" lengthAdjust="spacing" textLength="177.3379" x="887.2275" y="198.3613">&#34892;&#20026;&#19968;&#65288;&#23454;&#21147;&#25511;&#21046;A&#30340;&#34892;&#20026;&#65289;</text><path d="M827.2275,192.6328 L837.2275,192.6328 C852.2275,192.6328 852.2275,192.6328 867.2275,192.6328 L877.2275,192.6328 " fill="none" style="stroke:#181818;stroke-width:1;"/><path d="M579.8896,221.4375 L589.8896,221.4375 C604.8896,221.4375 604.8896,192.6328 619.8896,192.6328 L629.8896,192.6328 " fill="none" style="stroke:#181818;stroke-width:1;"/><rect fill="#F1F1F1" height="37.6094" rx="12.5" ry="12.5" style="stroke:#181818;stroke-width:1.5;" width="146" x="629.8896" y="231.4375"/><text fill="#000000" font-family="sans-serif" font-size="14" lengthAdjust="spacing" textLength="126" x="639.8896" y="255.9707">&#30446;&#30340;&#20108;&#65288;&#20986;&#21334;&#30446;&#30340;&#65289;</text><rect fill="#F1F1F1" height="37.6094" rx="12.5" ry="12.5" style="stroke:#181818;stroke-width:1.5;" width="146" x="825.8896" y="231.4375"/><text fill="#000000" font-family="sans-serif" font-size="14" lengthAdjust="spacing" textLength="126" x="835.8896" y="255.9707">&#34892;&#20026;&#20108;&#65288;&#20986;&#21334;&#34892;&#20026;&#65289;</text><path d="M775.8896,250.2422 L785.8896,250.2422 C800.8896,250.2422 800.8896,250.2422 815.8896,250.2422 L825.8896,250.2422 " fill="none" style="stroke:#181818;stroke-width:1;"/><path d="M579.8896,221.4375 L589.8896,221.4375 C604.8896,221.4375 604.8896,250.2422 619.8896,250.2422 L629.8896,250.2422 " fill="none" style="stroke:#181818;stroke-width:1;"/><path d="M450,527.0938 L460,527.0938 C475,527.0938 475,221.4375 490,221.4375 L500,221.4375 " fill="none" style="stroke:#181818;stroke-width:1;"/><rect fill="#F1F1F1" height="37.6094" rx="12.5" ry="12.5" style="stroke:#181818;stroke-width:1.5;" width="76" x="500" y="565.8984"/><text fill="#000000" font-family="sans-serif" font-size="14" lengthAdjust="spacing" textLength="56" x="510" y="590.4316">&#23454;&#34892;&#34892;&#20026;</text><rect fill="#90EE90" height="37.6094" rx="12.5" ry="12.5" style="stroke:#181818;stroke-width:1.5;" width="191.8896" x="626" y="317.8516"/><text fill="#000000" font-family="sans-serif" font-size="14" lengthAdjust="spacing" textLength="168" x="636" y="342.3848">&#23454;&#34892;&#34892;&#20026;&#19968;&#65306;&#32465;&#26550;&#65288;&#26292;&#21147;&#65289;</text><rect fill="#F1F1F1" height="37.6094" rx="12.5" ry="12.5" style="stroke:#181818;stroke-width:1.5;" width="90" x="867.8896" y="317.8516"/><text fill="#000000" font-family="sans-serif" font-size="14" lengthAdjust="spacing" textLength="70" x="877.8896" y="342.3848">&#25104;&#31435;&#21644;&#26082;&#36930;</text><rect fill="#F1F1F1" height="37.6094" rx="12.5" ry="12.5" style="stroke:#181818;stroke-width:1.5;" width="48" x="1007.8896" y="289.0469"/><text fill="#000000" font-family="sans-serif" font-size="14" lengthAdjust="spacing" textLength="28" x="1017.8896" y="313.5801">&#25104;&#31435;</text><rect fill="#F1F1F1" height="37.6094" rx="12.5" ry="12.5" style="stroke:#181818;stroke-width:1.5;" width="146" x="1105.8896" y="289.0469"/><text fill="#000000" font-family="sans-serif" font-size="14" lengthAdjust="spacing" textLength="126" x="1115.8896" y="313.5801">&#23454;&#26045;&#20102;&#23454;&#21147;&#25511;&#21046;&#34892;&#20026;</text><path d="M1055.8896,307.8516 L1065.8896,307.8516 C1080.8896,307.8516 1080.8896,307.8516 1095.8896,307.8516 L1105.8896,307.8516 " fill="none" style="stroke:#181818;stroke-width:1;"/><path d="M957.8896,336.6563 L967.8896,336.6563 C982.8896,336.6563 982.8896,307.8516 997.8896,307.8516 L1007.8896,307.8516 " fill="none" style="stroke:#181818;stroke-width:1;"/><rect fill="#F1F1F1" height="37.6094" rx="12.5" ry="12.5" style="stroke:#181818;stroke-width:1.5;" width="48" x="1007.8896" y="346.6563"/><text fill="#000000" font-family="sans-serif" font-size="14" lengthAdjust="spacing" textLength="28" x="1017.8896" y="371.1895">&#26082;&#36930;</text><rect fill="#F1F1F1" height="37.6094" rx="12.5" ry="12.5" style="stroke:#181818;stroke-width:1.5;" width="160" x="1105.8896" y="346.6563"/><text fill="#000000" font-family="sans-serif" font-size="14" lengthAdjust="spacing" textLength="140" x="1115.8896" y="371.1895">&#23558;&#22919;&#22899;&#12289;&#20799;&#31461;&#25511;&#21046;&#21040;&#25163;</text><path d="M1055.8896,365.4609 L1065.8896,365.4609 C1080.8896,365.4609 1080.8896,365.4609 1095.8896,365.4609 L1105.8896,365.4609 " fill="none" style="stroke:#181818;stroke-width:1;"/><path d="M957.8896,336.6563 L967.8896,336.6563 C982.8896,336.6563 982.8896,365.4609 997.8896,365.4609 L1007.8896,365.4609 " fill="none" style="stroke:#181818;stroke-width:1;"/><path d="M817.8896,336.6563 L827.8896,336.6563 C842.8896,336.6563 842.8896,336.6563 857.8896,336.6563 L867.8896,336.6563 " fill="none" style="stroke:#181818;stroke-width:1;"/><path d="M576,584.7031 L586,584.7031 C601,584.7031 601,336.6563 616,336.6563 L626,336.6563 " fill="none" style="stroke:#181818;stroke-width:1;"/><rect fill="#90EE90" height="37.6094" rx="12.5" ry="12.5" style="stroke:#181818;stroke-width:1.5;" width="205.8896" x="626" y="433.0703"/><text fill="#000000" font-family="sans-serif" font-size="14" lengthAdjust="spacing" textLength="182" x="636" y="457.6035">&#23454;&#34892;&#34892;&#20026;&#22235;&#65306;&#25296;&#39575;&#65288;&#36719;&#26292;&#21147;&#65289;</text><rect fill="#F1F1F1" height="37.6094" rx="12.5" ry="12.5" style="stroke:#181818;stroke-width:1.5;" width="48" x="881.8896" y="433.0703"/><text fill="#000000" font-family="sans-serif" font-size="14" lengthAdjust="spacing" textLength="28" x="891.8896" y="457.6035">&#32618;&#21517;</text><rect fill="#F1F1F1" height="37.6094" rx="12.5" ry="12.5" style="stroke:#181818;stroke-width:1.5;" width="48" x="979.8896" y="404.2656"/><text fill="#000000" font-family="sans-serif" font-size="14" lengthAdjust="spacing" textLength="28" x="989.8896" y="428.7988">&#25104;&#31435;</text><rect fill="#F1F1F1" height="37.6094" rx="12.5" ry="12.5" style="stroke:#181818;stroke-width:1.5;" width="202" x="1077.8896" y="404.2656"/><text fill="#000000" font-family="sans-serif" font-size="14" lengthAdjust="spacing" textLength="182" x="1087.8896" y="428.7988">&#24102;&#30528;&#20986;&#21334;&#30446;&#30340;&#65292;&#23454;&#26045;&#27450;&#39575;&#34892;&#20026;</text><path d="M1027.8896,423.0703 L1037.8896,423.0703 C1052.8896,423.0703 1052.8896,423.0703 1067.8896,423.0703 L1077.8896,423.0703 " fill="none" style="stroke:#181818;stroke-width:1;"/><path d="M929.8896,451.875 L939.8896,451.875 C954.8896,451.875 954.8896,423.0703 969.8896,423.0703 L979.8896,423.0703 " fill="none" style="stroke:#181818;stroke-width:1;"/><rect fill="#F1F1F1" height="37.6094" rx="12.5" ry="12.5" style="stroke:#181818;stroke-width:1.5;" width="48" x="979.8896" y="461.875"/><text fill="#000000" font-family="sans-serif" font-size="14" lengthAdjust="spacing" textLength="28" x="989.8896" y="486.4082">&#26082;&#36930;</text><rect fill="#F1F1F1" height="37.6094" rx="12.5" ry="12.5" style="stroke:#181818;stroke-width:1.5;" width="48" x="1077.8896" y="461.875"/><text fill="#000000" font-family="sans-serif" font-size="14" lengthAdjust="spacing" textLength="28" x="1087.8896" y="486.4082">&#21334;&#25481;</text><path d="M1027.8896,480.6797 L1037.8896,480.6797 C1052.8896,480.6797 1052.8896,480.6797 1067.8896,480.6797 L1077.8896,480.6797 " fill="none" style="stroke:#181818;stroke-width:1;"/><path d="M929.8896,451.875 L939.8896,451.875 C954.8896,451.875 954.8896,480.6797 969.8896,480.6797 L979.8896,480.6797 " fill="none" style="stroke:#181818;stroke-width:1;"/><path d="M831.8896,451.875 L841.8896,451.875 C856.8896,451.875 856.8896,451.875 871.8896,451.875 L881.8896,451.875 " fill="none" style="stroke:#181818;stroke-width:1;"/><path d="M576,584.7031 L586,584.7031 C601,584.7031 601,451.875 616,451.875 L626,451.875 " fill="none" style="stroke:#181818;stroke-width:1;"/><rect fill="#90EE90" height="37.6094" rx="12.5" ry="12.5" style="stroke:#181818;stroke-width:1.5;" width="205.8896" x="626" y="623.5078"/><text fill="#000000" font-family="sans-serif" font-size="14" lengthAdjust="spacing" textLength="182" x="636" y="648.041">&#23454;&#34892;&#34892;&#20026;&#20108;&#65306;&#20986;&#21334;&#65288;&#29983;&#20135;&#21830;&#65289;</text><rect fill="#F1F1F1" height="37.6094" rx="12.5" ry="12.5" style="stroke:#181818;stroke-width:1.5;" width="48" x="881.8896" y="537.0938"/><text fill="#000000" font-family="sans-serif" font-size="14" lengthAdjust="spacing" textLength="28" x="891.8896" y="561.627">&#35760;&#24518;</text><rect fill="#F1F1F1" height="72.8281" rx="12.5" ry="12.5" style="stroke:#181818;stroke-width:1.5;" width="211.3242" x="979.8896" y="519.4844"/><text fill="#000000" font-family="sans-serif" font-size="14" lengthAdjust="spacing" textLength="191.3242" x="989.8896" y="544.0176">&#23558;&#23401;&#23376;&#24403;&#25104;&#20102;&#8220;&#21830;&#21697;&#8221;&#36827;&#34892;&#20986;&#21334;&#65292;</text><text fill="#000000" font-family="sans-serif" font-size="14" lengthAdjust="spacing" textLength="154" x="989.8896" y="561.627">&#29983;&#20135;&#21830;&#21487;&#33021;&#26159;&#29238;&#27597;&#20146;&#29983;&#65292;</text><text fill="#000000" font-family="sans-serif" font-size="14" lengthAdjust="spacing" textLength="126" x="989.8896" y="579.2363">&#20063;&#21487;&#33021;&#26159;&#22312;&#27827;&#36793;&#25441;&#21040;</text><path d="M929.8896,555.8984 L939.8896,555.8984 C954.8896,555.8984 954.8896,555.8984 969.8896,555.8984 L979.8896,555.8984 " fill="none" style="stroke:#181818;stroke-width:1;"/><path d="M831.8896,642.3125 L841.8896,642.3125 C856.8896,642.3125 856.8896,555.8984 871.8896,555.8984 L881.8896,555.8984 " fill="none" style="stroke:#181818;stroke-width:1;"/><rect fill="#F1F1F1" height="37.6094" rx="12.5" ry="12.5" style="stroke:#181818;stroke-width:1.5;" width="48" x="881.8896" y="612.3125"/><text fill="#000000" font-family="sans-serif" font-size="14" lengthAdjust="spacing" textLength="28" x="891.8896" y="636.8457">&#21069;&#25552;</text><rect fill="#F1F1F1" height="37.6094" rx="12.5" ry="12.5" style="stroke:#181818;stroke-width:1.5;" width="286" x="979.8896" y="612.3125"/><text fill="#000000" font-family="sans-serif" font-size="14" lengthAdjust="spacing" textLength="266" x="989.8896" y="636.8457">&#19981;&#23384;&#22312;&#34892;&#20026;&#19968;&#65288;&#32465;&#26550;&#34892;&#20026;&#65292;&#23454;&#21147;&#25511;&#21046;&#34892;&#20026;&#65289;</text><path d="M929.8896,631.1172 L939.8896,631.1172 C954.8896,631.1172 954.8896,631.1172 969.8896,631.1172 L979.8896,631.1172 " fill="none" style="stroke:#181818;stroke-width:1;"/><path d="M831.8896,642.3125 L841.8896,642.3125 C856.8896,642.3125 856.8896,631.1172 871.8896,631.1172 L881.8896,631.1172 " fill="none" style="stroke:#181818;stroke-width:1;"/><rect fill="#F1F1F1" height="37.6094" rx="12.5" ry="12.5" style="stroke:#181818;stroke-width:1.5;" width="48" x="881.8896" y="698.7266"/><text fill="#000000" font-family="sans-serif" font-size="14" lengthAdjust="spacing" textLength="28" x="891.8896" y="723.2598">&#32618;&#21517;</text><rect fill="#F1F1F1" height="37.6094" rx="12.5" ry="12.5" style="stroke:#181818;stroke-width:1.5;" width="48" x="979.8896" y="669.9219"/><text fill="#000000" font-family="sans-serif" font-size="14" lengthAdjust="spacing" textLength="28" x="989.8896" y="694.4551">&#25104;&#31435;</text><rect fill="#F1F1F1" height="37.6094" rx="12.5" ry="12.5" style="stroke:#181818;stroke-width:1.5;" width="118" x="1077.8896" y="669.9219"/><text fill="#000000" font-family="sans-serif" font-size="14" lengthAdjust="spacing" textLength="98" x="1087.8896" y="694.4551">&#23454;&#26045;&#20102;&#36137;&#21334;&#34892;&#20026;</text><path d="M1027.8896,688.7266 L1037.8896,688.7266 C1052.8896,688.7266 1052.8896,688.7266 1067.8896,688.7266 L1077.8896,688.7266 " fill="none" style="stroke:#181818;stroke-width:1;"/><path d="M929.8896,717.5313 L939.8896,717.5313 C954.8896,717.5313 954.8896,688.7266 969.8896,688.7266 L979.8896,688.7266 " fill="none" style="stroke:#181818;stroke-width:1;"/><rect fill="#F1F1F1" height="37.6094" rx="12.5" ry="12.5" style="stroke:#181818;stroke-width:1.5;" width="48" x="979.8896" y="727.5313"/><text fill="#000000" font-family="sans-serif" font-size="14" lengthAdjust="spacing" textLength="28" x="989.8896" y="752.0645">&#26082;&#36930;</text><rect fill="#F1F1F1" height="37.6094" rx="12.5" ry="12.5" style="stroke:#181818;stroke-width:1.5;" width="48" x="1077.8896" y="727.5313"/><text fill="#000000" font-family="sans-serif" font-size="14" lengthAdjust="spacing" textLength="28" x="1087.8896" y="752.0645">&#21334;&#25481;</text><path d="M1027.8896,746.3359 L1037.8896,746.3359 C1052.8896,746.3359 1052.8896,746.3359 1067.8896,746.3359 L1077.8896,746.3359 " fill="none" style="stroke:#181818;stroke-width:1;"/><path d="M929.8896,717.5313 L939.8896,717.5313 C954.8896,717.5313 954.8896,746.3359 969.8896,746.3359 L979.8896,746.3359 " fill="none" style="stroke:#181818;stroke-width:1;"/><path d="M831.8896,642.3125 L841.8896,642.3125 C856.8896,642.3125 856.8896,717.5313 871.8896,717.5313 L881.8896,717.5313 " fill="none" style="stroke:#181818;stroke-width:1;"/><path d="M576,584.7031 L586,584.7031 C601,584.7031 601,642.3125 616,642.3125 L626,642.3125 " fill="none" style="stroke:#181818;stroke-width:1;"/><rect fill="#90EE90" height="37.6094" rx="12.5" ry="12.5" style="stroke:#181818;stroke-width:1.5;" width="205.8896" x="626" y="813.9453"/><text fill="#000000" font-family="sans-serif" font-size="14" lengthAdjust="spacing" textLength="182" x="636" y="838.4785">&#23454;&#34892;&#34892;&#20026;&#19977;&#65306;&#25910;&#20080;&#65288;&#20013;&#38388;&#21830;&#65289;</text><rect fill="#F1F1F1" height="37.6094" rx="12.5" ry="12.5" style="stroke:#181818;stroke-width:1.5;" width="48" x="881.8896" y="813.9453"/><text fill="#000000" font-family="sans-serif" font-size="14" lengthAdjust="spacing" textLength="28" x="891.8896" y="838.4785">&#32618;&#21517;</text><rect fill="#F1F1F1" height="37.6094" rx="12.5" ry="12.5" style="stroke:#181818;stroke-width:1.5;" width="48" x="979.8896" y="785.1406"/><text fill="#000000" font-family="sans-serif" font-size="14" lengthAdjust="spacing" textLength="28" x="989.8896" y="809.6738">&#25104;&#31435;</text><rect fill="#F1F1F1" height="37.6094" rx="12.5" ry="12.5" style="stroke:#181818;stroke-width:1.5;" width="202" x="1077.8896" y="785.1406"/><text fill="#000000" font-family="sans-serif" font-size="14" lengthAdjust="spacing" textLength="182" x="1087.8896" y="809.6738">&#24102;&#30528;&#20986;&#21334;&#30446;&#30340;&#65292;&#23454;&#26045;&#25910;&#20080;&#34892;&#20026;</text><path d="M1027.8896,803.9453 L1037.8896,803.9453 C1052.8896,803.9453 1052.8896,803.9453 1067.8896,803.9453 L1077.8896,803.9453 " fill="none" style="stroke:#181818;stroke-width:1;"/><path d="M929.8896,832.75 L939.8896,832.75 C954.8896,832.75 954.8896,803.9453 969.8896,803.9453 L979.8896,803.9453 " fill="none" style="stroke:#181818;stroke-width:1;"/><rect fill="#F1F1F1" height="37.6094" rx="12.5" ry="12.5" style="stroke:#181818;stroke-width:1.5;" width="48" x="979.8896" y="842.75"/><text fill="#000000" font-family="sans-serif" font-size="14" lengthAdjust="spacing" textLength="28" x="989.8896" y="867.2832">&#26082;&#36930;</text><rect fill="#F1F1F1" height="37.6094" rx="12.5" ry="12.5" style="stroke:#181818;stroke-width:1.5;" width="62" x="1077.8896" y="842.75"/><text fill="#000000" font-family="sans-serif" font-size="14" lengthAdjust="spacing" textLength="42" x="1087.8896" y="867.2832">&#20080;&#21040;&#25163;</text><path d="M1027.8896,861.5547 L1037.8896,861.5547 C1052.8896,861.5547 1052.8896,861.5547 1067.8896,861.5547 L1077.8896,861.5547 " fill="none" style="stroke:#181818;stroke-width:1;"/><path d="M929.8896,832.75 L939.8896,832.75 C954.8896,832.75 954.8896,861.5547 969.8896,861.5547 L979.8896,861.5547 " fill="none" style="stroke:#181818;stroke-width:1;"/><path d="M831.8896,832.75 L841.8896,832.75 C856.8896,832.75 856.8896,832.75 871.8896,832.75 L881.8896,832.75 " fill="none" style="stroke:#181818;stroke-width:1;"/><path d="M576,584.7031 L586,584.7031 C601,584.7031 601,832.75 616,832.75 L626,832.75 " fill="none" style="stroke:#181818;stroke-width:1;"/><path d="M450,527.0938 L460,527.0938 C475,527.0938 475,584.7031 490,584.7031 L500,584.7031 " fill="none" style="stroke:#181818;stroke-width:1;"/><path d="M352,527.0938 L362,527.0938 C377,527.0938 377,527.0938 392,527.0938 L402,527.0938 " fill="none" style="stroke:#181818;stroke-width:1;"/><path d="M254,584.7031 L264,584.7031 C279,584.7031 279,527.0938 294,527.0938 L304,527.0938 " fill="none" style="stroke:#181818;stroke-width:1;"/><rect fill="#F1F1F1" height="37.6094" rx="12.5" ry="12.5" style="stroke:#181818;stroke-width:1.5;" width="48" x="304" y="929.1641"/><text fill="#000000" font-family="sans-serif" font-size="14" lengthAdjust="spacing" textLength="28" x="314" y="953.6973">&#20027;&#35266;</text><rect fill="#F1F1F1" height="37.6094" rx="12.5" ry="12.5" style="stroke:#181818;stroke-width:1.5;" width="48" x="402" y="929.1641"/><text fill="#000000" font-family="sans-serif" font-size="14" lengthAdjust="spacing" textLength="28" x="412" y="953.6973">&#25925;&#24847;</text><rect fill="#F1F1F1" height="37.6094" rx="12.5" ry="12.5" style="stroke:#181818;stroke-width:1.5;" width="62" x="500" y="900.3594"/><text fill="#000000" font-family="sans-serif" font-size="14" lengthAdjust="spacing" textLength="42" x="510" y="924.8926">&#30446;&#30340;&#19968;</text><rect fill="#F1F1F1" height="37.6094" rx="12.5" ry="12.5" style="stroke:#181818;stroke-width:1.5;" width="188" x="612" y="900.3594"/><text fill="#000000" font-family="sans-serif" font-size="14" lengthAdjust="spacing" textLength="168" x="622" y="924.8926">&#23454;&#21147;&#25511;&#21046;&#22919;&#22899;&#12289;&#20799;&#31461;&#30340;&#30446;&#30340;</text><path d="M562,919.1641 L572,919.1641 C587,919.1641 587,919.1641 602,919.1641 L612,919.1641 " fill="none" style="stroke:#181818;stroke-width:1;"/><path d="M450,947.9688 L460,947.9688 C475,947.9688 475,919.1641 490,919.1641 L500,919.1641 " fill="none" style="stroke:#181818;stroke-width:1;"/><rect fill="#F1F1F1" height="37.6094" rx="12.5" ry="12.5" style="stroke:#181818;stroke-width:1.5;" width="62" x="500" y="957.9688"/><text fill="#000000" font-family="sans-serif" font-size="14" lengthAdjust="spacing" textLength="42" x="510" y="982.502">&#30446;&#30340;&#20108;</text><rect fill="#F1F1F1" height="37.6094" rx="12.5" ry="12.5" style="stroke:#181818;stroke-width:1.5;" width="76" x="612" y="957.9688"/><text fill="#000000" font-family="sans-serif" font-size="14" lengthAdjust="spacing" textLength="56" x="622" y="982.502">&#20986;&#21334;&#30446;&#30340;</text><path d="M562,976.7734 L572,976.7734 C587,976.7734 587,976.7734 602,976.7734 L612,976.7734 " fill="none" style="stroke:#181818;stroke-width:1;"/><path d="M450,947.9688 L460,947.9688 C475,947.9688 475,976.7734 490,976.7734 L500,976.7734 " fill="none" style="stroke:#181818;stroke-width:1;"/><path d="M352,947.9688 L362,947.9688 C377,947.9688 377,947.9688 392,947.9688 L402,947.9688 " fill="none" style="stroke:#181818;stroke-width:1;"/><path d="M254,584.7031 L264,584.7031 C279,584.7031 279,947.9688 294,947.9688 L304,947.9688 " fill="none" style="stroke:#181818;stroke-width:1;"/><path d="M128,673.6875 L138,673.6875 C153,673.6875 153,584.7031 168,584.7031 L178,584.7031 " fill="none" style="stroke:#181818;stroke-width:1;"/><rect fill="#F1F1F1" height="37.6094" rx="12.5" ry="12.5" style="stroke:#181818;stroke-width:1.5;" width="118" x="178" y="1133.3672"/><text fill="#000000" font-family="sans-serif" font-size="14" lengthAdjust="spacing" textLength="98" x="188" y="1157.9004">&#27861;&#23450;&#21009;&#21319;&#26684;&#26465;&#20214;</text><rect fill="#F1F1F1" height="37.6094" rx="12.5" ry="12.5" style="stroke:#181818;stroke-width:1.5;" width="62" x="346" y="1104.5625"/><text fill="#000000" font-family="sans-serif" font-size="14" lengthAdjust="spacing" textLength="42" x="356" y="1129.0957">&#32467;&#21512;&#29359;</text><rect fill="#F1F1F1" height="37.6094" rx="12.5" ry="12.5" style="stroke:#181818;stroke-width:1.5;" width="62" x="458" y="1075.7578"/><text fill="#000000" font-family="sans-serif" font-size="14" lengthAdjust="spacing" textLength="42" x="468" y="1100.291">&#24615;&#26435;&#21033;</text><rect fill="#F1F1F1" height="37.6094" rx="12.5" ry="12.5" style="stroke:#181818;stroke-width:1.5;" width="233.9102" x="570" y="1015.5781"/><text fill="#000000" font-family="sans-serif" font-size="14" lengthAdjust="spacing" textLength="213.9102" x="580" y="1040.1113">&#26412;&#32618; + &#24378;&#22904;&#32618; = &#26412;&#32618;&#65288;&#21152;&#37325;&#22788;&#32602;&#65289;</text><path d="M520,1094.5625 L530,1094.5625 C545,1094.5625 545,1034.3828 560,1034.3828 L570,1034.3828 " fill="none" style="stroke:#181818;stroke-width:1;"/><rect fill="#F1F1F1" height="37.6094" rx="12.5" ry="12.5" style="stroke:#181818;stroke-width:1.5;" width="345.9102" x="570" y="1073.1875"/><text fill="#000000" font-family="sans-serif" font-size="14" lengthAdjust="spacing" textLength="325.9102" x="580" y="1097.7207">&#26412;&#32618; + &#24341;&#35825;&#21334;&#28139;&#32618;&#12289;&#24378;&#36843;&#21334;&#28139;&#32618; = &#26412;&#32618;&#65288;&#21152;&#37325;&#22788;&#32602;&#65289;</text><path d="M520,1094.5625 L530,1094.5625 C545,1094.5625 545,1091.9922 560,1091.9922 L570,1091.9922 " fill="none" style="stroke:#181818;stroke-width:1;"/><rect fill="#F1F1F1" height="42.75" rx="12.5" ry="12.5" style="stroke:#181818;stroke-width:1.5;" width="286.7998" x="570" y="1130.7969"/><text fill="#000000" font-family="sans-serif" font-size="14" lengthAdjust="spacing" textLength="241.9102" x="580" y="1160.4707">&#26412;&#32618; + &#24378;&#21046;&#29477;&#20149;&#32618; = &#26412;&#32618;&#65288;&#21152;&#37325;&#22788;&#32602;&#65289;</text><path d="M838.3607,1151.298 L845.4978,1144.1615 C846.0671,1143.5922 846.0671,1142.6688 845.4978,1142.0995 C844.9279,1141.5295 844.0051,1141.5295 843.4357,1142.0995 L836.2986,1149.236 L829.1621,1142.0995 C828.5928,1141.5295 827.6688,1141.5295 827.1001,1142.0995 C826.5301,1142.6688 826.5301,1143.5922 827.1001,1144.1615 L834.2366,1151.298 L827.0837,1158.4515 C826.5138,1159.0214 826.5138,1159.9442 827.0837,1160.5135 C827.3684,1160.7982 827.7417,1160.9405 828.1151,1160.9405 C828.4884,1160.9405 828.8617,1160.7982 829.1464,1160.5135 L836.2992,1153.3601 L843.4357,1160.4966 C843.7204,1160.7813 844.0937,1160.9236 844.4671,1160.9236 C844.8404,1160.9236 845.2131,1160.7813 845.4984,1160.4966 C846.0677,1159.9267 846.0677,1159.0039 845.4984,1158.4345 L838.3607,1151.298 " fill="#FE0000" style="stroke:;stroke-width:0;stroke-dasharray:;"/><rect fill="#F1F1F1" height="37.6094" rx="12.5" ry="12.5" style="stroke:#181818;stroke-width:1.5;" width="90" x="906.7998" y="1133.3672"/><text fill="#000000" font-family="sans-serif" font-size="14" lengthAdjust="spacing" textLength="70" x="916.7998" y="1157.9004">&#24212;&#25968;&#32618;&#24182;&#32602;</text><path d="M856.7998,1152.1719 L866.7998,1152.1719 C881.7998,1152.1719 881.7998,1152.1719 896.7998,1152.1719 L906.7998,1152.1719 " fill="none" style="stroke:#181818;stroke-width:1;"/><path d="M520,1094.5625 L530,1094.5625 C545,1094.5625 545,1152.1719 560,1152.1719 L570,1152.1719 " fill="none" style="stroke:#181818;stroke-width:1;"/><path d="M408,1123.3672 L418,1123.3672 C433,1123.3672 433,1094.5625 448,1094.5625 L458,1094.5625 " fill="none" style="stroke:#181818;stroke-width:1;"/><rect fill="#F1F1F1" height="37.6094" rx="12.5" ry="12.5" style="stroke:#181818;stroke-width:1.5;" width="48" x="458" y="1193.5469"/><text fill="#000000" font-family="sans-serif" font-size="14" lengthAdjust="spacing" textLength="28" x="468" y="1218.0801">&#22320;&#22495;</text><rect fill="#F1F1F1" height="37.6094" rx="12.5" ry="12.5" style="stroke:#181818;stroke-width:1.5;" width="401.9102" x="556" y="1193.5469"/><text fill="#000000" font-family="sans-serif" font-size="14" lengthAdjust="spacing" textLength="381.9102" x="566" y="1218.0801">&#26412;&#32618; + &#32452;&#32455;&#12289;&#36816;&#36865;&#20182;&#20154;&#20599;&#36234;&#22269;&#65288;&#36793;&#65289;&#22659;&#32618; = &#26412;&#32618;&#65288;&#21152;&#37325;&#22788;&#32602;&#65289;</text><path d="M506,1212.3516 L516,1212.3516 C531,1212.3516 531,1212.3516 546,1212.3516 L556,1212.3516 " fill="none" style="stroke:#181818;stroke-width:1;"/><path d="M408,1123.3672 L418,1123.3672 C433,1123.3672 433,1212.3516 448,1212.3516 L458,1212.3516 " fill="none" style="stroke:#181818;stroke-width:1;"/><path d="M296,1152.1719 L306,1152.1719 C321,1152.1719 321,1123.3672 336,1123.3672 L346,1123.3672 " fill="none" style="stroke:#181818;stroke-width:1;"/><rect fill="#F1F1F1" height="37.6094" rx="12.5" ry="12.5" style="stroke:#181818;stroke-width:1.5;" width="90" x="346" y="1251.1563"/><text fill="#000000" font-family="sans-serif" font-size="14" lengthAdjust="spacing" textLength="70" x="356" y="1275.6895">&#32467;&#26524;&#21152;&#37325;&#29359;</text><rect fill="#F1F1F1" height="37.6094" rx="12.5" ry="12.5" style="stroke:#181818;stroke-width:1.5;" width="84.1758" x="486" y="1251.1563"/><text fill="#000000" font-family="sans-serif" font-size="14" lengthAdjust="spacing" textLength="64.1758" x="496" y="1275.6895">&#20154;&#36523;+&#29983;&#21629;</text><rect fill="#F1F1F1" height="37.6094" rx="12.5" ry="12.5" style="stroke:#181818;stroke-width:1.5;" width="426" x="620.1758" y="1251.1563"/><text fill="#000000" font-family="sans-serif" font-size="14" lengthAdjust="spacing" textLength="406" x="630.1758" y="1275.6895">&#36896;&#25104;&#34987;&#25296;&#21334;&#30340;&#22919;&#22899;&#12289;&#20799;&#31461;&#25110;&#32773;&#20854;&#20182;&#20146;&#23646;&#37325;&#20260;&#12289;&#27515;&#20129;&#25110;&#20854;&#20182;&#20005;&#37325;&#21518;&#26524;</text><path d="M570.1758,1269.9609 L580.1758,1269.9609 C595.1758,1269.9609 595.1758,1269.9609 610.1758,1269.9609 L620.1758,1269.9609 " fill="none" style="stroke:#181818;stroke-width:1;"/><path d="M436,1269.9609 L446,1269.9609 C461,1269.9609 461,1269.9609 476,1269.9609 L486,1269.9609 " fill="none" style="stroke:#181818;stroke-width:1;"/><path d="M296,1152.1719 L306,1152.1719 C321,1152.1719 321,1269.9609 336,1269.9609 L346,1269.9609 " fill="none" style="stroke:#181818;stroke-width:1;"/><path d="M128,673.6875 L138,673.6875 C153,673.6875 153,1152.1719 168,1152.1719 L178,1152.1719 " fill="none" style="stroke:#181818;stroke-width:1;"/><!--SRC=[xLdTJnDP57-Vl-9kV84rL2746C8QfKfsZHYpe4_xChHZ6PtEDDDftMQpIVaG2hPQLq2tV0dXOnMXe6njfotyBzexCppvB-ovCvqoBPrEsH2VIWXfx_dTy_6xvznxxkLwKA95oS_oNZyTeAWVMDx3XRmCShak6Rz1AS8nbm8SpKiXFzT1a1q0xT37NIoCKPJ4IXo3b6T9d9Z7crDuunEUE5AtDzJYUuhwqKQ0u0Tad-RKXHdzYp5WmBv6Hyl8r4H9bZLvMvjwhyxkezvUnXyOeODiyDeroonjQqmTo-7zENLThWoN5QwdbBazBNtGTg-hgxEzIbhs8PR4kGF3yBT276-EASkBE1bN9bueiuUuCAwbDmm_YJJsjxOQBsLbSAkKJIZB4p3T6Y74zZKwPeQdYxNDqL8-OmroTmqyhd7KK5l7FqEWvb-1jle4LEFLXLr2MpRwhH33kyjuPa5vleLZcHimQiY-5QRhphNQgp_VaDdDhzYMusJkb0oidC6YPPQz7SBUCeXjw3eDqGD9gVcNod86z2kf0uW8D3jJMKaFTViP_Ykkl5ux7XspHLhH3K4L5vNvOacUj5BS82YB2MS_oYRs9clAoR22OtlAzBCcgCCBG5GAillu_MkWJYkcpymUb0DE9iwDjEockXIjJgoumQJoGGOlpvd0nBpoVBgP72EfcpBy0gBKsPMIl8Nd9iz0bBQxXuycAUSLtNc7TvAu-0f8W-pv4bq4E_ZLw9VeadQq0EwONiH_uoj-u1TfRRoel4chiOoIJfJaZo3I8QNSIaM85_zHFdxI3dDAOXLof86pU3gXl4WwE0lR8zvv0qgj6ufHXsPvnqydV-ETufpJoQn1xU1TPTFv_icJdIPLDfifvVQ0eL9sv_ZrmTcIv_jLcUxb-H852iix4cLDdlpf8rAPUmg7CjNWoBEdkv9cfpiCOpRLu3IpKskXY3hfQF1k2iTUuiIKyhQWBArMd_rmZkDaJ9r9ryOMtLAMnd7iNRqEPV43h32wY711nXjPylcdyY0vCMVU7aybyFg4MapLFp4jy-Uqz3x9pC_RUgCo2Xgre-tAoF_MAmEpQdoZ9F_RM0lglI0otfxVU-ow5opFGhz64ZgNWIcrtTpY7bvPQUIAcfzGyrCGcNQKF8v2upKFdHeU_QnbPl12aPnYXpdm0w-DDncklcIa8zJbfnVEw4ylmeQANnRhU7OSVKjwmBLjeqk4LAazb6FpMlGfVfhHVVs8zvV1Jgcm3W1b9r-ILm5GbcOtY8l9v-0E1J_N6UZRpTxzUdKhtwjtwDUeyi1DblQ9j1_z0HwwXhaGetz2g8_sFFQ9GeZtkWLE4177-aOa8WVfdmJhfSN7i68syBBK1Fj4Xk4RQTO15dJ40HmniO98ypuxfmsX2Gs4n01d1pM49jG-C4jGeX2qqtQXlx-lp-qsaH66uuGdDbX3g4CfbxchEtDbHL-sWGSVH_GbisAx6dDbXVR1a6S4KhKfPrWVBuXC4-k6q1sMPsh7JrGqQRQXAgACvmKFmqjstF0wwGZr2xna30rpWAdH2iLHzesNG1ahy3Jd5bc_6UW9KXByj2JKnTuJcG0jqcJaBDDk30kYv9GrpUgI95XMoQbGcjJc5lnGBPBTQfTdsgaZgyCpFbWmK6ebiz6cuxHGNeO9MFEzsi0js0I7EJOuOhzZMUPNMtiomagrtDYOkIj8pfRqg3mHccyYAW_jPQIACThZORtsALsrapffVWYL5hIKBtptC0Fq8oRaKCG21ow8WjUIWGubPCxGxGI482knOUQ6nr8EftPZccEQ3UGa15WBsb6rduK3a6pTpUHK-HGZoeEXuKUCXwYtOuSEmx7BY4tg3RC2L92kMd3IJ7XlckwJZRowS1lNQbKkEnuH5FpflLJk95hlVArtljOxN-kTh_NErthdQxtpjTxvMkzyhNU-rZlVTt_dkqV-5tz_u0uACsAGt7ywNLsNkxfTLzi6QGdT5SAeymgwtDdJtTtJVGMv1uSG4RTJRGE_3A6W48Bh7_B2vKXaXqFanj1EtQR3DFer1FS7FzE3oBUseO5sD7ZB74It-30h2hmVxWpKxGS31WZzB4Y30K7ImLUwE_fO2Gqo8hY57WnGDvc7T8YJOAf7yBAyhmVT7-hlk4hTWRj5YFQ18RZDkU7I8OaHa0t-1m00]--></g></svg>