<svg xmlns="http://www.w3.org/2000/svg" xmlns:xlink="http://www.w3.org/1999/xlink" contentStyleType="text/css" height="1227px" preserveAspectRatio="none" style="width:941px;height:1227px;background:#FFFFFF;" version="1.1" viewBox="0 0 941 1227" width="941px" zoomAndPan="magnify"><title>&#25925;&#24847;&#20260;&#23475;&#32618;</title><defs/><g><text fill="#000000" font-family="sans-serif" font-size="14" font-weight="bold" lengthAdjust="spacing" textLength="72.1875" x="432.9614" y="34.5332">&#25925;&#24847;&#20260;&#23475;&#32618;</text><rect fill="#F1F1F1" height="37.6094" rx="12.5" ry="12.5" style="stroke:#181818;stroke-width:1.5;" width="90" x="10" y="613.0781"/><text fill="#000000" font-family="sans-serif" font-size="14" lengthAdjust="spacing" textLength="70" x="20" y="637.6113">&#25925;&#24847;&#20260;&#23475;&#32618;</text><rect fill="#F1F1F1" height="37.6094" rx="12.5" ry="12.5" style="stroke:#181818;stroke-width:1.5;" width="48" x="150" y="58.6094"/><text fill="#000000" font-family="sans-serif" font-size="14" lengthAdjust="spacing" textLength="28" x="160" y="83.1426">&#27861;&#30410;</text><rect fill="#F1F1F1" height="37.6094" rx="12.5" ry="12.5" style="stroke:#181818;stroke-width:1.5;" width="132" x="248" y="58.6094"/><text fill="#000000" font-family="sans-serif" font-size="14" lengthAdjust="spacing" textLength="112" x="258" y="83.1426">&#20182;&#20154;&#30340;&#36523;&#20307;&#20581;&#24247;&#26435;</text><path d="M198,77.4141 L208,77.4141 C223,77.4141 223,77.4141 238,77.4141 L248,77.4141 " fill="none" style="stroke:#181818;stroke-width:1;"/><path d="M100,631.8828 L110,631.8828 C125,631.8828 125,77.4141 140,77.4141 L150,77.4141 " fill="none" style="stroke:#181818;stroke-width:1;"/><rect fill="#F1F1F1" height="37.6094" rx="12.5" ry="12.5" style="stroke:#181818;stroke-width:1.5;" width="93.1104" x="150" y="390.8828"/><text fill="#000000" font-family="sans-serif" font-size="14" lengthAdjust="spacing" textLength="73.1104" x="160" y="415.416">&#26500;&#25104;&#35201;&#20214;(3)</text><rect fill="#F1F1F1" height="37.6094" rx="12.5" ry="12.5" style="stroke:#181818;stroke-width:1.5;" width="76" x="293.1104" y="145.0234"/><text fill="#000000" font-family="sans-serif" font-size="14" lengthAdjust="spacing" textLength="56" x="303.1104" y="169.5566">&#34892;&#20026;&#20027;&#20307;</text><rect fill="#F1F1F1" height="37.6094" rx="12.5" ry="12.5" style="stroke:#181818;stroke-width:1.5;" width="146" x="419.1104" y="116.2188"/><text fill="#000000" font-family="sans-serif" font-size="14" lengthAdjust="spacing" textLength="126" x="429.1104" y="140.752">&#25925;&#24847;&#20260;&#23475;&#32618;&#33268;&#20154;&#36731;&#20260;</text><rect fill="#F1F1F1" height="37.6094" rx="12.5" ry="12.5" style="stroke:#181818;stroke-width:1.5;" width="147.5723" x="615.1104" y="116.2188"/><text fill="#000000" font-family="sans-serif" font-size="14" lengthAdjust="spacing" textLength="127.5723" x="625.1104" y="140.752">&#24050;&#28385;16&#21608;&#23681;&#30340;&#33258;&#28982;&#20154;</text><path d="M565.1104,135.0234 L575.1104,135.0234 C590.1104,135.0234 590.1104,135.0234 605.1104,135.0234 L615.1104,135.0234 " fill="none" style="stroke:#181818;stroke-width:1;"/><path d="M369.1104,163.8281 L379.1104,163.8281 C394.1104,163.8281 394.1104,135.0234 409.1104,135.0234 L419.1104,135.0234 " fill="none" style="stroke:#181818;stroke-width:1;"/><rect fill="#F1F1F1" height="37.6094" rx="12.5" ry="12.5" style="stroke:#181818;stroke-width:1.5;" width="188" x="419.1104" y="173.8281"/><text fill="#000000" font-family="sans-serif" font-size="14" lengthAdjust="spacing" textLength="168" x="429.1104" y="198.3613">&#25925;&#24847;&#20260;&#23475;&#32618;&#33268;&#20154;&#37325;&#20260;&#25110;&#27515;&#20129;</text><rect fill="#F1F1F1" height="37.6094" rx="12.5" ry="12.5" style="stroke:#181818;stroke-width:1.5;" width="147.5723" x="657.1104" y="173.8281"/><text fill="#000000" font-family="sans-serif" font-size="14" lengthAdjust="spacing" textLength="127.5723" x="667.1104" y="198.3613">&#24050;&#28385;12&#21608;&#23681;&#30340;&#33258;&#28982;&#20154;</text><path d="M607.1104,192.6328 L617.1104,192.6328 C632.1104,192.6328 632.1104,192.6328 647.1104,192.6328 L657.1104,192.6328 " fill="none" style="stroke:#181818;stroke-width:1;"/><path d="M369.1104,163.8281 L379.1104,163.8281 C394.1104,163.8281 394.1104,192.6328 409.1104,192.6328 L419.1104,192.6328 " fill="none" style="stroke:#181818;stroke-width:1;"/><path d="M243.1104,409.6875 L253.1104,409.6875 C268.1104,409.6875 268.1104,163.8281 283.1104,163.8281 L293.1104,163.8281 " fill="none" style="stroke:#181818;stroke-width:1;"/><rect fill="#F1F1F1" height="37.6094" rx="12.5" ry="12.5" style="stroke:#181818;stroke-width:1.5;" width="76" x="293.1104" y="385.7422"/><text fill="#000000" font-family="sans-serif" font-size="14" lengthAdjust="spacing" textLength="56" x="303.1104" y="410.2754">&#20260;&#23475;&#34892;&#20026;</text><rect fill="#F1F1F1" height="37.6094" rx="12.5" ry="12.5" style="stroke:#181818;stroke-width:1.5;" width="132" x="419.1104" y="260.2422"/><text fill="#000000" font-family="sans-serif" font-size="14" lengthAdjust="spacing" textLength="112" x="429.1104" y="284.7754">&#20260;&#23475;&#34892;&#20026;&#25104;&#31435;&#26465;&#20214;</text><rect fill="#F1F1F1" height="37.6094" rx="12.5" ry="12.5" style="stroke:#181818;stroke-width:1.5;" width="286" x="601.1104" y="231.4375"/><text fill="#000000" font-family="sans-serif" font-size="14" lengthAdjust="spacing" textLength="266" x="611.1104" y="255.9707">&#12302;&#20027;&#35266;&#24515;&#29702;&#12303;&#65292;&#20855;&#26377;&#36896;&#25104;&#12302;&#36731;&#20260;&#12303;&#30340;&#24847;&#22270;&#12290;</text><path d="M551.1104,279.0469 L561.1104,279.0469 C576.1104,279.0469 576.1104,250.2422 591.1104,250.2422 L601.1104,250.2422 " fill="none" style="stroke:#181818;stroke-width:1;"/><rect fill="#F1F1F1" height="37.6094" rx="12.5" ry="12.5" style="stroke:#181818;stroke-width:1.5;" width="328" x="601.1104" y="289.0469"/><text fill="#000000" font-family="sans-serif" font-size="14" lengthAdjust="spacing" textLength="308" x="611.1104" y="313.5801">&#12302;&#23458;&#35266;&#34892;&#20026;&#12303;&#65292;&#20855;&#26377;&#36896;&#25104;&#12302;&#36731;&#20260;&#12303;&#30340;&#19968;&#33324;&#21487;&#33021;&#24615;&#12290;</text><path d="M551.1104,279.0469 L561.1104,279.0469 C576.1104,279.0469 576.1104,307.8516 591.1104,307.8516 L601.1104,307.8516 " fill="none" style="stroke:#181818;stroke-width:1;"/><path d="M369.1104,404.5469 L379.1104,404.5469 C394.1104,404.5469 394.1104,279.0469 409.1104,279.0469 L419.1104,279.0469 " fill="none" style="stroke:#181818;stroke-width:1;"/><rect fill="#F1F1F1" height="37.6094" rx="12.5" ry="12.5" style="stroke:#181818;stroke-width:1.5;" width="76" x="419.1104" y="443.3516"/><text fill="#000000" font-family="sans-serif" font-size="14" lengthAdjust="spacing" textLength="56" x="429.1104" y="467.8848">&#20260;&#23475;&#32467;&#26524;</text><rect fill="#F1F1F1" height="42.75" rx="12.5" ry="12.5" style="stroke:#181818;stroke-width:1.5;" width="86.8896" x="545.1104" y="346.6563"/><text fill="#000000" font-family="sans-serif" font-size="14" lengthAdjust="spacing" textLength="42" x="555.1104" y="376.3301">&#36731;&#24494;&#20260;</text><path d="M613.9722,367.1586 L619.7373,361.3935 C620.4209,360.7104 620.4209,359.6021 619.7373,358.9184 C619.0536,358.2353 617.9464,358.2353 617.2628,358.9184 L611.4977,364.6835 L605.7326,358.919 C605.0495,358.2353 603.9412,358.2353 603.2575,358.919 C602.5744,359.6021 602.5744,360.7104 603.2575,361.3941 L609.0226,367.1586 L603.2435,372.9377 C602.5604,373.6208 602.5604,374.7291 603.2435,375.4122 C603.5848,375.754 604.0333,375.9249 604.4808,375.9249 C604.9282,375.9249 605.3768,375.754 605.7186,375.4122 L611.4971,369.6337 L617.2616,375.3982 C617.6034,375.74 618.0514,375.9109 618.4988,375.9109 C618.9463,375.9109 619.3943,375.74 619.7361,375.3982 C620.4198,374.7151 620.4198,373.6068 619.7361,372.9237 L613.9722,367.1586 " fill="#FE0000" style="stroke:;stroke-width:0;stroke-dasharray:;"/><path d="M495.1104,462.1563 L505.1104,462.1563 C520.1104,462.1563 520.1104,368.0313 535.1104,368.0313 L545.1104,368.0313 " fill="none" style="stroke:#181818;stroke-width:1;"/><rect fill="#F1F1F1" height="42.75" rx="12.5" ry="12.5" style="stroke:#181818;stroke-width:1.5;" width="72.8896" x="545.1104" y="409.4063"/><text fill="#000000" font-family="sans-serif" font-size="14" lengthAdjust="spacing" textLength="28" x="555.1104" y="439.0801">&#36731;&#20260;</text><path d="M607.1011,420.2083 C606.2897,419.6822 605.2064,419.9132 604.6808,420.724 L594.875,435.8388 L590.0928,431.4171 C589.3829,430.7608 588.2763,430.804 587.6201,431.5139 C586.9638,432.2233 587.007,433.331 587.7169,433.9867 L593.9959,439.792 C594.1762,439.9472 594.1762,439.9472 594.2596,440.0014 C594.5536,440.1928 594.8838,440.2838 595.2104,440.2838 C595.7833,440.2838 596.345,440.0026 596.6804,439.4858 L607.6168,422.6286 C608.1429,421.8178 607.9119,420.7339 607.1011,420.2083 " fill="#FE0000" style="stroke:;stroke-width:0;stroke-dasharray:;"/><path d="M495.1104,462.1563 L505.1104,462.1563 C520.1104,462.1563 520.1104,430.7813 535.1104,430.7813 L545.1104,430.7813 " fill="none" style="stroke:#181818;stroke-width:1;"/><rect fill="#F1F1F1" height="42.75" rx="12.5" ry="12.5" style="stroke:#181818;stroke-width:1.5;" width="72.8896" x="545.1104" y="472.1563"/><text fill="#000000" font-family="sans-serif" font-size="14" lengthAdjust="spacing" textLength="28" x="555.1104" y="501.8301">&#37325;&#20260;</text><path d="M607.1011,482.9583 C606.2897,482.4322 605.2064,482.6632 604.6808,483.474 L594.875,498.5888 L590.0928,494.1671 C589.3829,493.5108 588.2763,493.554 587.6201,494.2639 C586.9638,494.9733 587.007,496.081 587.7169,496.7367 L593.9959,502.542 C594.1762,502.6972 594.1762,502.6972 594.2596,502.7514 C594.5536,502.9428 594.8838,503.0338 595.2104,503.0338 C595.7833,503.0338 596.345,502.7526 596.6804,502.2358 L607.6168,485.3786 C608.1429,484.5678 607.9119,483.4839 607.1011,482.9583 " fill="#FE0000" style="stroke:;stroke-width:0;stroke-dasharray:;"/><path d="M495.1104,462.1563 L505.1104,462.1563 C520.1104,462.1563 520.1104,493.5313 535.1104,493.5313 L545.1104,493.5313 " fill="none" style="stroke:#181818;stroke-width:1;"/><rect fill="#F1F1F1" height="42.75" rx="12.5" ry="12.5" style="stroke:#181818;stroke-width:1.5;" width="100.8896" x="545.1104" y="534.9063"/><text fill="#000000" font-family="sans-serif" font-size="14" lengthAdjust="spacing" textLength="56" x="555.1104" y="564.5801">&#20260;&#23475;&#33268;&#27515;</text><path d="M635.1011,545.7083 C634.2897,545.1822 633.2064,545.4132 632.6808,546.224 L622.875,561.3388 L618.0928,556.9171 C617.3829,556.2608 616.2763,556.304 615.6201,557.0139 C614.9638,557.7233 615.007,558.831 615.7169,559.4867 L621.9959,565.292 C622.1762,565.4472 622.1762,565.4472 622.2596,565.5014 C622.5536,565.6928 622.8838,565.7838 623.2104,565.7838 C623.7833,565.7838 624.345,565.5026 624.6804,564.9858 L635.6168,548.1286 C636.1429,547.3178 635.9119,546.2339 635.1011,545.7083 " fill="#FE0000" style="stroke:;stroke-width:0;stroke-dasharray:;"/><path d="M495.1104,462.1563 L505.1104,462.1563 C520.1104,462.1563 520.1104,556.2813 535.1104,556.2813 L545.1104,556.2813 " fill="none" style="stroke:#181818;stroke-width:1;"/><path d="M369.1104,404.5469 L379.1104,404.5469 C394.1104,404.5469 394.1104,462.1563 409.1104,462.1563 L419.1104,462.1563 " fill="none" style="stroke:#181818;stroke-width:1;"/><path d="M243.1104,409.6875 L253.1104,409.6875 C268.1104,409.6875 268.1104,404.5469 283.1104,404.5469 L293.1104,404.5469 " fill="none" style="stroke:#181818;stroke-width:1;"/><rect fill="#F1F1F1" height="37.6094" rx="12.5" ry="12.5" style="stroke:#181818;stroke-width:1.5;" width="76" x="293.1104" y="631.6016"/><text fill="#000000" font-family="sans-serif" font-size="14" lengthAdjust="spacing" textLength="56" x="303.1104" y="656.1348">&#34892;&#20026;&#23545;&#35937;</text><rect fill="#F1F1F1" height="42.75" rx="12.5" ry="12.5" style="stroke:#181818;stroke-width:1.5;" width="114.8896" x="419.1104" y="597.6563"/><text fill="#000000" font-family="sans-serif" font-size="14" lengthAdjust="spacing" textLength="70" x="429.1104" y="627.3301">&#20182;&#20154;&#30340;&#36523;&#20307;</text><path d="M523.1011,608.4583 C522.2897,607.9322 521.2064,608.1632 520.6808,608.974 L510.875,624.0888 L506.0928,619.6671 C505.3829,619.0108 504.2763,619.054 503.6201,619.7639 C502.9638,620.4733 503.007,621.581 503.7169,622.2367 L509.9959,628.042 C510.1762,628.1972 510.1762,628.1972 510.2596,628.2514 C510.5536,628.4428 510.8838,628.5338 511.2104,628.5338 C511.7833,628.5338 512.345,628.2526 512.6804,627.7358 L523.6168,610.8786 C524.1429,610.0678 523.9119,608.9839 523.1011,608.4583 " fill="#FE0000" style="stroke:;stroke-width:0;stroke-dasharray:;"/><path d="M369.1104,650.4063 L379.1104,650.4063 C394.1104,650.4063 394.1104,619.0313 409.1104,619.0313 L419.1104,619.0313 " fill="none" style="stroke:#181818;stroke-width:1;"/><rect fill="#F1F1F1" height="42.75" rx="12.5" ry="12.5" style="stroke:#181818;stroke-width:1.5;" width="184.8896" x="419.1104" y="660.4063"/><text fill="#000000" font-family="sans-serif" font-size="14" lengthAdjust="spacing" textLength="140" x="429.1104" y="690.0801">&#20551;&#32930;&#12289;&#20551;&#29273;&#12289;&#38544;&#24418;&#30524;&#38236;</text><path d="M585.9722,680.9086 L591.7373,675.1435 C592.4209,674.4604 592.4209,673.3521 591.7373,672.6684 C591.0536,671.9853 589.9464,671.9853 589.2628,672.6684 L583.4977,678.4335 L577.7326,672.669 C577.0495,671.9853 575.9412,671.9853 575.2575,672.669 C574.5744,673.3521 574.5744,674.4604 575.2575,675.1441 L581.0226,680.9086 L575.2435,686.6877 C574.5604,687.3708 574.5604,688.4791 575.2435,689.1622 C575.5848,689.504 576.0333,689.6749 576.4808,689.6749 C576.9282,689.6749 577.3768,689.504 577.7186,689.1622 L583.4971,683.3837 L589.2616,689.1482 C589.6034,689.49 590.0514,689.6609 590.4988,689.6609 C590.9463,689.6609 591.3943,689.49 591.7361,689.1482 C592.4198,688.4651 592.4198,687.3568 591.7361,686.6737 L585.9722,680.9086 " fill="#FE0000" style="stroke:;stroke-width:0;stroke-dasharray:;"/><rect fill="#F1F1F1" height="37.6094" rx="12.5" ry="12.5" style="stroke:#181818;stroke-width:1.5;" width="118" x="654" y="662.9766"/><text fill="#000000" font-family="sans-serif" font-size="14" lengthAdjust="spacing" textLength="98" x="664" y="687.5098">&#25925;&#24847;&#27585;&#22351;&#36130;&#29289;&#32618;</text><path d="M604,681.7813 L614,681.7813 C629,681.7813 629,681.7813 644,681.7813 L654,681.7813 " fill="none" style="stroke:#181818;stroke-width:1;"/><path d="M369.1104,650.4063 L379.1104,650.4063 C394.1104,650.4063 394.1104,681.7813 409.1104,681.7813 L419.1104,681.7813 " fill="none" style="stroke:#181818;stroke-width:1;"/><path d="M243.1104,409.6875 L253.1104,409.6875 C268.1104,409.6875 268.1104,650.4063 283.1104,650.4063 L293.1104,650.4063 " fill="none" style="stroke:#181818;stroke-width:1;"/><path d="M100,631.8828 L110,631.8828 C125,631.8828 125,409.6875 140,409.6875 L150,409.6875 " fill="none" style="stroke:#181818;stroke-width:1;"/><rect fill="#F1F1F1" height="37.6094" rx="12.5" ry="12.5" style="stroke:#181818;stroke-width:1.5;" width="48" x="150" y="882.6016"/><text fill="#000000" font-family="sans-serif" font-size="14" lengthAdjust="spacing" textLength="28" x="160" y="907.1348">&#21306;&#20998;</text><rect fill="#F1F1F1" height="37.6094" rx="12.5" ry="12.5" style="stroke:#181818;stroke-width:1.5;" width="90" x="248" y="757.1016"/><text fill="#000000" font-family="sans-serif" font-size="14" lengthAdjust="spacing" textLength="70" x="258" y="781.6348">&#25925;&#24847;&#26432;&#20154;&#32618;</text><rect fill="#F1F1F1" height="42.75" rx="12.5" ry="12.5" style="stroke:#181818;stroke-width:1.5;" width="133.5518" x="388" y="723.1563"/><text fill="#000000" font-family="sans-serif" font-size="14" lengthAdjust="spacing" textLength="88.6621" x="398" y="752.8301">&#20260;&#23475;&#34892;&#20026;-&#25925;&#24847;</text><path d="M510.6528,733.9583 C509.8414,733.4322 508.7582,733.6632 508.2326,734.474 L498.4268,749.5888 L493.6446,745.1671 C492.9347,744.5108 491.8281,744.554 491.1718,745.2639 C490.5156,745.9733 490.5588,747.081 491.2687,747.7367 L497.5477,753.542 C497.7279,753.6972 497.7279,753.6972 497.8113,753.7514 C498.1053,753.9428 498.4355,754.0338 498.7622,754.0338 C499.335,754.0338 499.8968,753.7526 500.2322,753.2358 L511.1685,736.3786 C511.6947,735.5678 511.4637,734.4839 510.6528,733.9583 " fill="#FE0000" style="stroke:;stroke-width:0;stroke-dasharray:;"/><path d="M338,775.9063 L348,775.9063 C363,775.9063 363,744.5313 378,744.5313 L388,744.5313 " fill="none" style="stroke:#181818;stroke-width:1;"/><rect fill="#F1F1F1" height="42.75" rx="12.5" ry="12.5" style="stroke:#181818;stroke-width:1.5;" width="133.5518" x="388" y="785.9063"/><text fill="#000000" font-family="sans-serif" font-size="14" lengthAdjust="spacing" textLength="88.6621" x="398" y="815.5801">&#27515;&#20129;&#32467;&#26524;-&#25925;&#24847;</text><path d="M510.6528,796.7083 C509.8414,796.1822 508.7582,796.4132 508.2326,797.224 L498.4268,812.3388 L493.6446,807.9171 C492.9347,807.2608 491.8281,807.304 491.1718,808.0139 C490.5156,808.7233 490.5588,809.831 491.2687,810.4867 L497.5477,816.292 C497.7279,816.4472 497.7279,816.4472 497.8113,816.5014 C498.1053,816.6928 498.4355,816.7838 498.7622,816.7838 C499.335,816.7838 499.8968,816.5026 500.2322,815.9858 L511.1685,799.1286 C511.6947,798.3178 511.4637,797.2339 510.6528,796.7083 " fill="#FE0000" style="stroke:;stroke-width:0;stroke-dasharray:;"/><path d="M338,775.9063 L348,775.9063 C363,775.9063 363,807.2813 378,807.2813 L388,807.2813 " fill="none" style="stroke:#181818;stroke-width:1;"/><path d="M198,901.4063 L208,901.4063 C223,901.4063 223,775.9063 238,775.9063 L248,775.9063 " fill="none" style="stroke:#181818;stroke-width:1;"/><rect fill="#F1F1F1" height="37.6094" rx="12.5" ry="12.5" style="stroke:#181818;stroke-width:1.5;" width="174" x="248" y="882.6016"/><text fill="#000000" font-family="sans-serif" font-size="14" lengthAdjust="spacing" textLength="154" x="258" y="907.1348">&#25925;&#24847;&#20260;&#23475;&#32618;&#65288;&#33268;&#20154;&#27515;&#20129;&#65289;</text><rect fill="#F1F1F1" height="42.75" rx="12.5" ry="12.5" style="stroke:#181818;stroke-width:1.5;" width="133.5518" x="472" y="848.6563"/><text fill="#000000" font-family="sans-serif" font-size="14" lengthAdjust="spacing" textLength="88.6621" x="482" y="878.3301">&#20260;&#23475;&#34892;&#20026;-&#25925;&#24847;</text><path d="M594.6528,859.4583 C593.8414,858.9322 592.7582,859.1632 592.2326,859.974 L582.4268,875.0888 L577.6446,870.6671 C576.9347,870.0108 575.8281,870.054 575.1718,870.7639 C574.5156,871.4733 574.5588,872.581 575.2687,873.2367 L581.5477,879.042 C581.7279,879.1972 581.7279,879.1972 581.8113,879.2514 C582.1053,879.4428 582.4355,879.5338 582.7622,879.5338 C583.335,879.5338 583.8968,879.2526 584.2322,878.7358 L595.1685,861.8786 C595.6947,861.0678 595.4637,859.9839 594.6528,859.4583 " fill="#FE0000" style="stroke:;stroke-width:0;stroke-dasharray:;"/><path d="M422,901.4063 L432,901.4063 C447,901.4063 447,870.0313 462,870.0313 L472,870.0313 " fill="none" style="stroke:#181818;stroke-width:1;"/><rect fill="#F1F1F1" height="42.75" rx="12.5" ry="12.5" style="stroke:#181818;stroke-width:1.5;" width="133.5518" x="472" y="911.4063"/><text fill="#000000" font-family="sans-serif" font-size="14" lengthAdjust="spacing" textLength="88.6621" x="482" y="941.0801">&#27515;&#20129;&#32467;&#26524;-&#25925;&#24847;</text><path d="M587.5239,931.9086 L593.289,926.1435 C593.9727,925.4604 593.9727,924.3521 593.289,923.6684 C592.6053,922.9853 591.4982,922.9853 590.8145,923.6684 L585.0494,929.4335 L579.2843,923.669 C578.6013,922.9853 577.4929,922.9853 576.8093,923.669 C576.1262,924.3521 576.1262,925.4604 576.8093,926.1441 L582.5743,931.9086 L576.7953,937.6877 C576.1122,938.3708 576.1122,939.4791 576.7953,940.1622 C577.1365,940.504 577.5851,940.6749 578.0325,940.6749 C578.4799,940.6749 578.9285,940.504 579.2703,940.1622 L585.0488,934.3837 L590.8133,940.1482 C591.1552,940.49 591.6032,940.6609 592.0506,940.6609 C592.498,940.6609 592.946,940.49 593.2878,940.1482 C593.9715,939.4651 593.9715,938.3568 593.2878,937.6737 L587.5239,931.9086 " fill="#FE0000" style="stroke:;stroke-width:0;stroke-dasharray:;"/><path d="M422,901.4063 L432,901.4063 C447,901.4063 447,932.7813 462,932.7813 L472,932.7813 " fill="none" style="stroke:#181818;stroke-width:1;"/><path d="M198,901.4063 L208,901.4063 C223,901.4063 223,901.4063 238,901.4063 L248,901.4063 " fill="none" style="stroke:#181818;stroke-width:1;"/><rect fill="#F1F1F1" height="37.6094" rx="12.5" ry="12.5" style="stroke:#181818;stroke-width:1.5;" width="118" x="248" y="1008.1016"/><text fill="#000000" font-family="sans-serif" font-size="14" lengthAdjust="spacing" textLength="98" x="258" y="1032.6348">&#36807;&#22833;&#33268;&#20154;&#27515;&#20129;&#32618;</text><rect fill="#F1F1F1" height="42.75" rx="12.5" ry="12.5" style="stroke:#181818;stroke-width:1.5;" width="133.5518" x="416" y="974.1563"/><text fill="#000000" font-family="sans-serif" font-size="14" lengthAdjust="spacing" textLength="88.6621" x="426" y="1003.8301">&#20260;&#23475;&#34892;&#20026;-&#25925;&#24847;</text><path d="M531.5239,994.6586 L537.289,988.8935 C537.9727,988.2104 537.9727,987.1021 537.289,986.4184 C536.6053,985.7353 535.4982,985.7353 534.8145,986.4184 L529.0494,992.1835 L523.2843,986.419 C522.6013,985.7353 521.4929,985.7353 520.8093,986.419 C520.1262,987.1021 520.1262,988.2104 520.8093,988.8941 L526.5743,994.6586 L520.7953,1000.4377 C520.1122,1001.1208 520.1122,1002.2291 520.7953,1002.9122 C521.1365,1003.254 521.5851,1003.4249 522.0325,1003.4249 C522.4799,1003.4249 522.9285,1003.254 523.2703,1002.9122 L529.0488,997.1337 L534.8133,1002.8982 C535.1552,1003.24 535.6032,1003.4109 536.0506,1003.4109 C536.498,1003.4109 536.946,1003.24 537.2878,1002.8982 C537.9715,1002.2151 537.9715,1001.1068 537.2878,1000.4237 L531.5239,994.6586 " fill="#FE0000" style="stroke:;stroke-width:0;stroke-dasharray:;"/><path d="M366,1026.9063 L376,1026.9063 C391,1026.9063 391,995.5313 406,995.5313 L416,995.5313 " fill="none" style="stroke:#181818;stroke-width:1;"/><rect fill="#F1F1F1" height="42.75" rx="12.5" ry="12.5" style="stroke:#181818;stroke-width:1.5;" width="133.5518" x="416" y="1036.9063"/><text fill="#000000" font-family="sans-serif" font-size="14" lengthAdjust="spacing" textLength="88.6621" x="426" y="1066.5801">&#27515;&#20129;&#32467;&#26524;-&#25925;&#24847;</text><path d="M531.5239,1057.4086 L537.289,1051.6435 C537.9727,1050.9604 537.9727,1049.8521 537.289,1049.1684 C536.6053,1048.4853 535.4982,1048.4853 534.8145,1049.1684 L529.0494,1054.9335 L523.2843,1049.169 C522.6013,1048.4853 521.4929,1048.4853 520.8093,1049.169 C520.1262,1049.8521 520.1262,1050.9604 520.8093,1051.6441 L526.5743,1057.4086 L520.7953,1063.1877 C520.1122,1063.8708 520.1122,1064.9791 520.7953,1065.6622 C521.1365,1066.004 521.5851,1066.1749 522.0325,1066.1749 C522.4799,1066.1749 522.9285,1066.004 523.2703,1065.6622 L529.0488,1059.8837 L534.8133,1065.6482 C535.1552,1065.99 535.6032,1066.1609 536.0506,1066.1609 C536.498,1066.1609 536.946,1065.99 537.2878,1065.6482 C537.9715,1064.9651 537.9715,1063.8568 537.2878,1063.1737 L531.5239,1057.4086 " fill="#FE0000" style="stroke:;stroke-width:0;stroke-dasharray:;"/><path d="M366,1026.9063 L376,1026.9063 C391,1026.9063 391,1058.2813 406,1058.2813 L416,1058.2813 " fill="none" style="stroke:#181818;stroke-width:1;"/><path d="M198,901.4063 L208,901.4063 C223,901.4063 223,1026.9063 238,1026.9063 L248,1026.9063 " fill="none" style="stroke:#181818;stroke-width:1;"/><path d="M100,631.8828 L110,631.8828 C125,631.8828 125,901.4063 140,901.4063 L150,901.4063 " fill="none" style="stroke:#181818;stroke-width:1;"/><rect fill="#F1F1F1" height="37.6094" rx="12.5" ry="12.5" style="stroke:#181818;stroke-width:1.5;" width="76" x="150" y="1133.6016"/><text fill="#000000" font-family="sans-serif" font-size="14" lengthAdjust="spacing" textLength="56" x="160" y="1158.1348">&#29305;&#27530;&#22330;&#26223;</text><rect fill="#F1F1F1" height="42.75" rx="12.5" ry="12.5" style="stroke:#181818;stroke-width:1.5;" width="100.8896" x="276" y="1099.6563"/><text fill="#000000" font-family="sans-serif" font-size="14" lengthAdjust="spacing" textLength="56" x="286" y="1129.3301">&#33258;&#20260;&#33258;&#27531;</text><path d="M358.8618,1120.1586 L364.6269,1114.3935 C365.3106,1113.7104 365.3106,1112.6021 364.6269,1111.9184 C363.9432,1111.2353 362.8361,1111.2353 362.1524,1111.9184 L356.3873,1117.6835 L350.6222,1111.919 C349.9391,1111.2353 348.8308,1111.2353 348.1471,1111.919 C347.4641,1112.6021 347.4641,1113.7104 348.1471,1114.3941 L353.9122,1120.1586 L348.1331,1125.9377 C347.4501,1126.6208 347.4501,1127.7291 348.1331,1128.4122 C348.4744,1128.754 348.923,1128.9249 349.3704,1128.9249 C349.8178,1128.9249 350.2664,1128.754 350.6082,1128.4122 L356.3867,1122.6337 L362.1512,1128.3982 C362.4931,1128.74 362.9411,1128.9109 363.3885,1128.9109 C363.8359,1128.9109 364.2839,1128.74 364.6257,1128.3982 C365.3094,1127.7151 365.3094,1126.6068 364.6257,1125.9237 L358.8618,1120.1586 " fill="#FE0000" style="stroke:;stroke-width:0;stroke-dasharray:;"/><path d="M226,1152.4063 L236,1152.4063 C251,1152.4063 251,1121.0313 266,1121.0313 L276,1121.0313 " fill="none" style="stroke:#181818;stroke-width:1;"/><rect fill="#F1F1F1" height="42.75" rx="12.5" ry="12.5" style="stroke:#181818;stroke-width:1.5;" width="191.9307" x="276" y="1162.4063"/><text fill="#000000" font-family="sans-serif" font-size="14" lengthAdjust="spacing" textLength="147.041" x="286" y="1192.0801">&#25112;&#26102;&#33258;&#20260;&#32618;&#65288;Law434&#65289;</text><path d="M449.9028,1182.9086 L455.6679,1177.1435 C456.3516,1176.4604 456.3516,1175.3521 455.6679,1174.6684 C454.9842,1173.9853 453.8771,1173.9853 453.1934,1174.6684 L447.4283,1180.4335 L441.6632,1174.669 C440.9802,1173.9853 439.8718,1173.9853 439.1882,1174.669 C438.5051,1175.3521 438.5051,1176.4604 439.1882,1177.1441 L444.9532,1182.9086 L439.1742,1188.6877 C438.4911,1189.3708 438.4911,1190.4791 439.1742,1191.1622 C439.5154,1191.504 439.964,1191.6749 440.4114,1191.6749 C440.8588,1191.6749 441.3074,1191.504 441.6492,1191.1622 L447.4277,1185.3837 L453.1922,1191.1482 C453.5341,1191.49 453.9821,1191.6609 454.4295,1191.6609 C454.8769,1191.6609 455.3249,1191.49 455.6667,1191.1482 C456.3504,1190.4651 456.3504,1189.3568 455.6667,1188.6737 L449.9028,1182.9086 " fill="#FE0000" style="stroke:;stroke-width:0;stroke-dasharray:;"/><path d="M226,1152.4063 L236,1152.4063 C251,1152.4063 251,1183.7813 266,1183.7813 L276,1183.7813 " fill="none" style="stroke:#181818;stroke-width:1;"/><path d="M100,631.8828 L110,631.8828 C125,631.8828 125,1152.4063 140,1152.4063 L150,1152.4063 " fill="none" style="stroke:#181818;stroke-width:1;"/><!--SRC=[xLXTJzjM6BxthpXJRw1ImaSZL4MeegIWhI9LjT3UeXFdD76nVIBxE2og9YL0cz2omLJHhIrK0tNhHZTGMmGqWVR743lXYh-mrtPSd137Pffs1KAHSyxpFk_tUNqoeZAiC4cGKnBESjnNWioBMegWSBZF_bTPNYHzMH7BJ9F4a8aC0JHahOS5MECu9Z2H86FbeJ6_L3juhMzzg1zkSjpbCqi8_c3rmqhzvMFhYxrGgpwhLIhr5_EDojlQuLEz-9jUsJFMvXpygtcZlDpulLYhxlPSwNK9DjONQ_kLsduLfBuiDuLQLJTAEw2YSLY5bHQaZTRttXlLzO4X_QS_zFT5qvBIPdr-5qI2q1wNVe0Le_pC-BjQgwnxymzsuOSmMAosJsrgtLiGY_hR9yRQEeIZWwgZmeyGaCQRMVtpN7tvqL5XwUHWKN-uPwmk71T-1M40s760BR04tD5VVZegp7RcqhSsWClMxCjLsoyqod_fIzkDkKEZyAQTrF6ZNdrgl5hje0-uz4zR04B3bnIIYcO8pkMd94raGbOKUCm4Aazz5xtMMRHTZiyGVdfAmifqHmaxQ-UHQ6QXj0DvzfTpobFV_jXujzuUYDQI3sO5r56nr9ZTE2eKuQ6-y1mUZbyiwuSRzTM3uvNLyqVDBcTZkwYlBJLsDkeBVvwsgRvOqSkFk3FWjO9fUHFMkKH3DZIeLtRRs5KHMFHCBvuSbErsjEbE3XR-Fmkx11lAu7D9V_tERTlve-UJpNzjuMLKN_XeR3tMLol6ysstqQLDi0a-ZQqdmLqrohyOF-_QidPA9l1Cv4e4ak57md4Z1AQGCub6MWVJi3Llhd7DXHi2JYjOGWz0TpWfQiHwGcWKyzDfXMfoAaP5gY1HI6UOkG-xtvlO56GNpF20DtSTS5eXHEx6R05SwBmFEEzWgOBbj9VHzgO3pMfALlI2sfiErDinbrCALRtOBesFZux6OWuoJqIHpdXWxKqBoeM9bCrWLL3zO-L6ztl0rUcybJ8tTh1xhDpGKLZYCr2CWOmHqZ9LI82y8JGXoAHz_PGYeDgkL2QPB5EUoCmhDh8LT8J6gSpifQG8c3PMQ8wcRJ83CkWnBCOKGN8SFKKoAc56Es9lAoIB5Qj3poDsFKaLvbSrGRaOWxGolqO9o1QZ4dGByyfsKzABpioEJDAGC21r1xFReUENg1GXMNUzjoeOWqCmAGfgnll4SictQfl92AmzDXvgRb7chydoYizZEO1NF4uHzaKPvdaXvLtIBIUf7_Czw3JLrRxmdITnV9zeFarCHJ11eIbN1Vgqa2DXwSbILM12ZbpdNUrmvZJ68WdgoAaBa0liIoq9C03Depj8JJMdc4ckQidxX3VflQA3Sp1sYHAGDoTGw22Bclenct4F7ExJWxorSRltQaij-uu83Zw6-vfl4XUtrejRwyMjzUBMUd5hlRYr_cUtrjlcxwHtuXCeHnJLdEO3uS7-mKZuQay2CtIBvj304EeVY4OYqSWGYYKcaRdTo_N4lvb4AjNWPGQbODGhGb8pTVHoDt4Eesyrc8OIYIBpMyzal1Sbnfn5D2Rd18NA4an0xkRTk0r2NrEMo59cWOSYeL61eGHHm2nqDyxT8FSm-0AYF4q9SZgAxaoEXwvo4p0fDPm6HV1k4eCHofGyx2N-0G00]--></g></svg>