<svg xmlns="http://www.w3.org/2000/svg" xmlns:xlink="http://www.w3.org/1999/xlink" contentStyleType="text/css" height="709px" preserveAspectRatio="none" style="width:984px;height:709px;background:#FFFFFF;" version="1.1" viewBox="0 0 984 709" width="984px" zoomAndPan="magnify"><title>&#36951;&#24323;&#32618;</title><defs/><g><text fill="#000000" font-family="sans-serif" font-size="14" font-weight="bold" lengthAdjust="spacing" textLength="43.3125" x="469.2334" y="34.5332">&#36951;&#24323;&#32618;</text><rect fill="#F1F1F1" height="37.6094" rx="12.5" ry="12.5" style="stroke:#181818;stroke-width:1.5;" width="62" x="10" y="354.3672"/><text fill="#000000" font-family="sans-serif" font-size="14" lengthAdjust="spacing" textLength="42" x="20" y="378.9004">&#36951;&#24323;&#32618;</text><rect fill="#F1F1F1" height="37.6094" rx="12.5" ry="12.5" style="stroke:#181818;stroke-width:1.5;" width="76" x="122" y="296.7578"/><text fill="#000000" font-family="sans-serif" font-size="14" lengthAdjust="spacing" textLength="56" x="132" y="321.291">&#26500;&#25104;&#35201;&#20214;</text><rect fill="#90EE90" height="37.6094" rx="12.5" ry="12.5" style="stroke:#181818;stroke-width:1.5;" width="79.8896" x="248" y="181.5391"/><text fill="#000000" font-family="sans-serif" font-size="14" lengthAdjust="spacing" textLength="56" x="258" y="206.0723">&#34892;&#20026;&#20027;&#20307;</text><rect fill="#F1F1F1" height="37.6094" rx="12.5" ry="12.5" style="stroke:#181818;stroke-width:1.5;" width="132" x="377.8896" y="181.5391"/><text fill="#000000" font-family="sans-serif" font-size="14" lengthAdjust="spacing" textLength="112" x="387.8896" y="206.0723">&#36127;&#26377;&#25206;&#20859;&#20041;&#21153;&#30340;&#20154;</text><rect fill="#F1F1F1" height="37.6094" rx="12.5" ry="12.5" style="stroke:#181818;stroke-width:1.5;" width="76" x="559.8896" y="87.4141"/><text fill="#000000" font-family="sans-serif" font-size="14" lengthAdjust="spacing" textLength="56" x="569.8896" y="111.9473">&#25193;&#22823;&#35299;&#37322;</text><rect fill="#F1F1F1" height="37.6094" rx="12.5" ry="12.5" style="stroke:#181818;stroke-width:1.5;" width="76" x="685.8896" y="58.6094"/><text fill="#000000" font-family="sans-serif" font-size="14" lengthAdjust="spacing" textLength="56" x="695.8896" y="83.1426">&#25206;&#21161;&#20041;&#21153;</text><path d="M635.8896,106.2188 L645.8896,106.2188 C660.8896,106.2188 660.8896,77.4141 675.8896,77.4141 L685.8896,77.4141 " fill="none" style="stroke:#181818;stroke-width:1;"/><rect fill="#90EE90" height="37.6094" rx="12.5" ry="12.5" style="stroke:#181818;stroke-width:1.5;" width="79.8896" x="685.8896" y="116.2188"/><text fill="#000000" font-family="sans-serif" font-size="14" lengthAdjust="spacing" textLength="56" x="695.8896" y="140.752">&#25937;&#21161;&#20041;&#21153;</text><text fill="#000000" font-family="sans-serif" font-size="14" lengthAdjust="spacing" textLength="154" x="818.7793" y="140.752">&#20132;&#36890;&#32903;&#20107;&#21518;&#65292;&#26377;&#25937;&#21161;&#20041;&#21153;</text><path d="M765.7793,135.0234 L775.7793,135.0234 C790.7793,135.0234 790.7793,135.0234 805.7793,135.0234 L815.7793,135.0234 " fill="none" style="stroke:#181818;stroke-width:1;"/><path d="M635.8896,106.2188 L645.8896,106.2188 C660.8896,106.2188 660.8896,135.0234 675.8896,135.0234 L685.8896,135.0234 " fill="none" style="stroke:#181818;stroke-width:1;"/><path d="M509.8896,200.3438 L519.8896,200.3438 C534.8896,200.3438 534.8896,106.2188 549.8896,106.2188 L559.8896,106.2188 " fill="none" style="stroke:#181818;stroke-width:1;"/><rect fill="#F1F1F1" height="37.6094" rx="12.5" ry="12.5" style="stroke:#181818;stroke-width:1.5;" width="48" x="559.8896" y="239.1484"/><text fill="#000000" font-family="sans-serif" font-size="14" lengthAdjust="spacing" textLength="28" x="569.8896" y="263.6816">&#20855;&#20307;</text><rect fill="#F1F1F1" height="42.75" rx="12.5" ry="12.5" style="stroke:#181818;stroke-width:1.5;" width="100.8896" x="657.8896" y="176.3984"/><text fill="#000000" font-family="sans-serif" font-size="14" lengthAdjust="spacing" textLength="56" x="667.8896" y="206.0723">&#23478;&#24237;&#25104;&#21592;</text><path d="M747.8804,187.2005 C747.069,186.6744 745.9857,186.9054 745.4601,187.7162 L735.6543,202.8309 L730.8721,198.4093 C730.1622,197.753 729.0556,197.7962 728.3994,198.5061 C727.7431,199.2154 727.7863,200.3232 728.4962,200.9789 L734.7752,206.7842 C734.9555,206.9394 734.9555,206.9394 735.0389,206.9936 C735.3329,207.1849 735.663,207.2759 735.9897,207.2759 C736.5625,207.2759 737.1243,206.9948 737.4597,206.4779 L748.396,189.6208 C748.9222,188.8099 748.6912,187.7261 747.8804,187.2005 " fill="#FE0000" style="stroke:;stroke-width:0;stroke-dasharray:;"/><path d="M607.8896,257.9531 L617.8896,257.9531 C632.8896,257.9531 632.8896,197.7734 647.8896,197.7734 L657.8896,197.7734 " fill="none" style="stroke:#181818;stroke-width:1;"/><rect fill="#90EE90" height="37.6094" rx="12.5" ry="12.5" style="stroke:#181818;stroke-width:1.5;" width="93.8896" x="657.8896" y="239.1484"/><text fill="#000000" font-family="sans-serif" font-size="14" lengthAdjust="spacing" textLength="70" x="667.8896" y="263.6816">&#38750;&#23478;&#24237;&#25104;&#21592;</text><rect fill="#F1F1F1" height="42.75" rx="12.5" ry="12.5" style="stroke:#181818;stroke-width:1.5;" width="128.8896" x="801.7793" y="173.8281"/><text fill="#000000" font-family="sans-serif" font-size="14" lengthAdjust="spacing" textLength="84" x="811.7793" y="203.502">&#23396;&#20799;&#38498;&#65288;&#23569;&#65289;</text><path d="M919.77,184.6302 C918.9586,184.104 917.8754,184.335 917.3498,185.1459 L907.5439,200.2606 L902.7618,195.839 C902.0519,195.1827 900.9453,195.2259 900.289,195.9358 C899.6328,196.6451 899.6759,197.7529 900.3859,198.4085 L906.6649,204.2139 C906.8451,204.369 906.8451,204.369 906.9285,204.4233 C907.2225,204.6146 907.5527,204.7056 907.8794,204.7056 C908.4522,204.7056 909.0139,204.4245 909.3494,203.9076 L920.2857,187.0505 C920.8119,186.2396 920.5809,185.1558 919.77,184.6302 " fill="#FE0000" style="stroke:;stroke-width:0;stroke-dasharray:;"/><path d="M751.7793,257.9531 L761.7793,257.9531 C776.7793,257.9531 776.7793,195.2031 791.7793,195.2031 L801.7793,195.2031 " fill="none" style="stroke:#181818;stroke-width:1;"/><rect fill="#F1F1F1" height="42.75" rx="12.5" ry="12.5" style="stroke:#181818;stroke-width:1.5;" width="128.8896" x="801.7793" y="236.5781"/><text fill="#000000" font-family="sans-serif" font-size="14" lengthAdjust="spacing" textLength="84" x="811.7793" y="266.252">&#20859;&#32769;&#38498;&#65288;&#32769;&#65289;</text><path d="M919.77,247.3802 C918.9586,246.854 917.8754,247.085 917.3498,247.8959 L907.5439,263.0106 L902.7618,258.589 C902.0519,257.9327 900.9453,257.9759 900.289,258.6858 C899.6328,259.3951 899.6759,260.5029 900.3859,261.1585 L906.6649,266.9639 C906.8451,267.119 906.8451,267.119 906.9285,267.1733 C907.2225,267.3646 907.5527,267.4556 907.8794,267.4556 C908.4522,267.4556 909.0139,267.1745 909.3494,266.6576 L920.2857,249.8005 C920.8119,248.9896 920.5809,247.9058 919.77,247.3802 " fill="#FE0000" style="stroke:;stroke-width:0;stroke-dasharray:;"/><path d="M751.7793,257.9531 L761.7793,257.9531 C776.7793,257.9531 776.7793,257.9531 791.7793,257.9531 L801.7793,257.9531 " fill="none" style="stroke:#181818;stroke-width:1;"/><rect fill="#F1F1F1" height="42.75" rx="12.5" ry="12.5" style="stroke:#181818;stroke-width:1.5;" width="156.8896" x="801.7793" y="299.3281"/><text fill="#000000" font-family="sans-serif" font-size="14" lengthAdjust="spacing" textLength="112" x="811.7793" y="329.002">&#31934;&#31070;&#30149;&#38498;&#65288;&#31070;&#26234;&#65289;</text><path d="M947.77,310.1302 C946.9586,309.604 945.8754,309.835 945.3498,310.6459 L935.5439,325.7606 L930.7618,321.339 C930.0519,320.6827 928.9453,320.7259 928.289,321.4358 C927.6328,322.1451 927.6759,323.2529 928.3859,323.9085 L934.6649,329.7139 C934.8451,329.869 934.8451,329.869 934.9285,329.9233 C935.2225,330.1146 935.5527,330.2056 935.8794,330.2056 C936.4522,330.2056 937.0139,329.9245 937.3494,329.4076 L948.2857,312.5505 C948.8119,311.7396 948.5809,310.6558 947.77,310.1302 " fill="#FE0000" style="stroke:;stroke-width:0;stroke-dasharray:;"/><path d="M751.7793,257.9531 L761.7793,257.9531 C776.7793,257.9531 776.7793,320.7031 791.7793,320.7031 L801.7793,320.7031 " fill="none" style="stroke:#181818;stroke-width:1;"/><path d="M607.8896,257.9531 L617.8896,257.9531 C632.8896,257.9531 632.8896,257.9531 647.8896,257.9531 L657.8896,257.9531 " fill="none" style="stroke:#181818;stroke-width:1;"/><path d="M509.8896,200.3438 L519.8896,200.3438 C534.8896,200.3438 534.8896,257.9531 549.8896,257.9531 L559.8896,257.9531 " fill="none" style="stroke:#181818;stroke-width:1;"/><path d="M327.8896,200.3438 L337.8896,200.3438 C352.8896,200.3438 352.8896,200.3438 367.8896,200.3438 L377.8896,200.3438 " fill="none" style="stroke:#181818;stroke-width:1;"/><path d="M198,315.5625 L208,315.5625 C223,315.5625 223,200.3438 238,200.3438 L248,200.3438 " fill="none" style="stroke:#181818;stroke-width:1;"/><rect fill="#F1F1F1" height="37.6094" rx="12.5" ry="12.5" style="stroke:#181818;stroke-width:1.5;" width="62" x="248" y="448.4922"/><text fill="#000000" font-family="sans-serif" font-size="14" lengthAdjust="spacing" textLength="42" x="258" y="473.0254">&#19981;&#20316;&#20026;</text><rect fill="#F1F1F1" height="37.6094" rx="12.5" ry="12.5" style="stroke:#181818;stroke-width:1.5;" width="48" x="360" y="362.0781"/><text fill="#000000" font-family="sans-serif" font-size="14" lengthAdjust="spacing" textLength="28" x="370" y="386.6113">&#29305;&#28857;</text><rect fill="#90EE90" height="37.6094" rx="12.5" ry="12.5" style="stroke:#181818;stroke-width:1.5;" width="135.8896" x="458" y="362.0781"/><text fill="#000000" font-family="sans-serif" font-size="14" lengthAdjust="spacing" textLength="112" x="468" y="386.6113">&#30495;&#27491;&#30340;&#19981;&#20316;&#20026;&#29359;&#32618;</text><path d="M408,380.8828 L418,380.8828 C433,380.8828 433,380.8828 448,380.8828 L458,380.8828 " fill="none" style="stroke:#181818;stroke-width:1;"/><path d="M310,467.2969 L320,467.2969 C335,467.2969 335,380.8828 350,380.8828 L360,380.8828 " fill="none" style="stroke:#181818;stroke-width:1;"/><rect fill="#F1F1F1" height="37.6094" rx="12.5" ry="12.5" style="stroke:#181818;stroke-width:1.5;" width="76" x="360" y="477.2969"/><text fill="#000000" font-family="sans-serif" font-size="14" lengthAdjust="spacing" textLength="56" x="370" y="501.8301">&#34920;&#29616;&#24418;&#24335;</text><rect fill="#F1F1F1" height="37.6094" rx="12.5" ry="12.5" style="stroke:#181818;stroke-width:1.5;" width="90" x="486" y="419.6875"/><text fill="#000000" font-family="sans-serif" font-size="14" lengthAdjust="spacing" textLength="70" x="496" y="444.2207">&#31215;&#26497;&#30340;&#20030;&#21160;</text><rect fill="#F1F1F1" height="37.6094" rx="12.5" ry="12.5" style="stroke:#181818;stroke-width:1.5;" width="160" x="626" y="419.6875"/><text fill="#000000" font-family="sans-serif" font-size="14" lengthAdjust="spacing" textLength="140" x="636" y="444.2207">&#23558;&#23156;&#20799;&#25918;&#21040;&#27665;&#25919;&#23616;&#38376;&#21475;</text><path d="M576,438.4922 L586,438.4922 C601,438.4922 601,438.4922 616,438.4922 L626,438.4922 " fill="none" style="stroke:#181818;stroke-width:1;"/><path d="M436,496.1016 L446,496.1016 C461,496.1016 461,438.4922 476,438.4922 L486,438.4922 " fill="none" style="stroke:#181818;stroke-width:1;"/><rect fill="#F1F1F1" height="37.6094" rx="12.5" ry="12.5" style="stroke:#181818;stroke-width:1.5;" width="90" x="486" y="506.1016"/><text fill="#000000" font-family="sans-serif" font-size="14" lengthAdjust="spacing" textLength="70" x="496" y="530.6348">&#28040;&#26497;&#30340;&#38745;&#27490;</text><rect fill="#F1F1F1" height="37.6094" rx="12.5" ry="12.5" style="stroke:#181818;stroke-width:1.5;" width="174" x="626" y="477.2969"/><text fill="#000000" font-family="sans-serif" font-size="14" lengthAdjust="spacing" textLength="154" x="636" y="501.8301">&#31163;&#23478;&#20986;&#36208;&#65292;&#19981;&#31649;&#23478;&#20013;&#23156;&#20799;</text><path d="M576,524.9063 L586,524.9063 C601,524.9063 601,496.1016 616,496.1016 L626,496.1016 " fill="none" style="stroke:#181818;stroke-width:1;"/><rect fill="#F1F1F1" height="37.6094" rx="12.5" ry="12.5" style="stroke:#181818;stroke-width:1.5;" width="286" x="626" y="534.9063"/><text fill="#000000" font-family="sans-serif" font-size="14" lengthAdjust="spacing" textLength="266" x="636" y="559.4395">&#24320;&#36710;&#19981;&#24910;&#25758;&#20260;&#20154;&#65292;&#39550;&#36710;&#36867;&#36920;&#65292;&#19981;&#31649;&#21463;&#20260;&#30340;&#20154;</text><path d="M576,524.9063 L586,524.9063 C601,524.9063 601,553.7109 616,553.7109 L626,553.7109 " fill="none" style="stroke:#181818;stroke-width:1;"/><path d="M436,496.1016 L446,496.1016 C461,496.1016 461,524.9063 476,524.9063 L486,524.9063 " fill="none" style="stroke:#181818;stroke-width:1;"/><path d="M310,467.2969 L320,467.2969 C335,467.2969 335,496.1016 350,496.1016 L360,496.1016 " fill="none" style="stroke:#181818;stroke-width:1;"/><path d="M198,315.5625 L208,315.5625 C223,315.5625 223,467.2969 238,467.2969 L248,467.2969 " fill="none" style="stroke:#181818;stroke-width:1;"/><path d="M72,373.1719 L82,373.1719 C97,373.1719 97,315.5625 112,315.5625 L122,315.5625 " fill="none" style="stroke:#181818;stroke-width:1;"/><rect fill="#F1F1F1" height="37.6094" rx="12.5" ry="12.5" style="stroke:#181818;stroke-width:1.5;" width="48" x="122" y="621.3203"/><text fill="#000000" font-family="sans-serif" font-size="14" lengthAdjust="spacing" textLength="28" x="132" y="645.8535">&#21306;&#20998;</text><rect fill="#90EE90" height="37.6094" rx="12.5" ry="12.5" style="stroke:#181818;stroke-width:1.5;" width="191.8896" x="220" y="621.3203"/><text fill="#000000" font-family="sans-serif" font-size="14" lengthAdjust="spacing" textLength="168" x="230" y="645.8535">&#29983;&#21629;&#25152;&#38754;&#20020;&#30340;&#21361;&#38505;&#26159;&#21542;&#32039;&#36843;</text><rect fill="#F1F1F1" height="37.6094" rx="12.5" ry="12.5" style="stroke:#181818;stroke-width:1.5;" width="34" x="461.8896" y="592.5156"/><text fill="#000000" font-family="sans-serif" font-size="14" lengthAdjust="spacing" textLength="14" x="471.8896" y="617.0488">&#26159;</text><rect fill="#FFA500" height="37.6094" rx="12.5" ry="12.5" style="stroke:#181818;stroke-width:1.5;" width="149.8896" x="545.8896" y="592.5156"/><text fill="#000000" font-family="sans-serif" font-size="14" lengthAdjust="spacing" textLength="126" x="555.8896" y="617.0488">&#19981;&#20316;&#20026;&#30340;&#25925;&#24847;&#26432;&#20154;&#32618;</text><path d="M495.8896,611.3203 L505.8896,611.3203 C520.8896,611.3203 520.8896,611.3203 535.8896,611.3203 L545.8896,611.3203 " fill="none" style="stroke:#181818;stroke-width:1;"/><path d="M411.8896,640.125 L421.8896,640.125 C436.8896,640.125 436.8896,611.3203 451.8896,611.3203 L461.8896,611.3203 " fill="none" style="stroke:#181818;stroke-width:1;"/><rect fill="#F1F1F1" height="37.6094" rx="12.5" ry="12.5" style="stroke:#181818;stroke-width:1.5;" width="34" x="461.8896" y="650.125"/><text fill="#000000" font-family="sans-serif" font-size="14" lengthAdjust="spacing" textLength="14" x="471.8896" y="674.6582">&#21542;</text><rect fill="#F1F1F1" height="37.6094" rx="12.5" ry="12.5" style="stroke:#181818;stroke-width:1.5;" width="62" x="545.8896" y="650.125"/><text fill="#000000" font-family="sans-serif" font-size="14" lengthAdjust="spacing" textLength="42" x="555.8896" y="674.6582">&#36951;&#24323;&#32618;</text><path d="M495.8896,668.9297 L505.8896,668.9297 C520.8896,668.9297 520.8896,668.9297 535.8896,668.9297 L545.8896,668.9297 " fill="none" style="stroke:#181818;stroke-width:1;"/><path d="M411.8896,640.125 L421.8896,640.125 C436.8896,640.125 436.8896,668.9297 451.8896,668.9297 L461.8896,668.9297 " fill="none" style="stroke:#181818;stroke-width:1;"/><path d="M170,640.125 L180,640.125 C195,640.125 195,640.125 210,640.125 L220,640.125 " fill="none" style="stroke:#181818;stroke-width:1;"/><path d="M72,373.1719 L82,373.1719 C97,373.1719 97,640.125 112,640.125 L122,640.125 " fill="none" style="stroke:#181818;stroke-width:1;"/><!--SRC=[xLXRJnj757xVNp5LNW09Sn52aOKGmG6r4KHHJVAAnkk9lM6zOwt7ZgogaaaWO4guj4G4n4LSogKLmQaeDSQ6FxCN-uc_qBExNhm6h-tqiS92rkwPRxvpF-DX8CQmp2A258pWACTz9qYy60yIvF5qM7ynbXH9HrJ44ej7n7O3sGxGTbFk4K36SKnW8a6boLKr_rul_C5nROuN19ysf6rDQRDBnOD9vVBS55dYuiwyaiqfsKkby1lgwoEHQ1Z7X5X__oscZ3lRrZRIMlfSdRvKBjBgt8w-FgNaSbMmigRqiRf_M3pSAytCtLks8UVgtB75umRvj7mBSJUiQiyuKdBxfTHwyTsCalj5NLguoSyRHZkOQfYhJly3lhjOeNuvLtCd43Xr-JFgUoIJe3TCS28vpeS9Fp4UmVA4jzzbRsbpgtfxKquWzMHVdRekhUtUv6VLpF9DFlrjYcslBekfIOi57luZY_xNbVxxbhuwRH71ixQMQugh3IdPZqfX0uhhJYNfwGlztKMDHEWRszh9db5MzavzxXGAk6vPxXpf2ncriAlc5sjH7fvgMvCcvPKwT-IMvCm7zVWCWgwjNAcp6IsphArSgrzJfTKZTN6lLeMVprgqfSqrxMJNXLO_k3JoFvCh_fs1IWIlz2yx856o9vOwDtFogMBX0E3Qz8BswvQItuS-0uBIyHN8IwdtfLIsmhUu2W17ByB- -Pmw-y6H2NrbMrqkQEbKQNDNoPu1MFtujRHsh7q-LPSEzBF3ulMVzO8Ck1f1g6HfVKhxDArDBMgRAR2YEcFTzzX0PGqsn-mQ830BxNauK3qU-yofry-L1Ky5799n1Fq4Z9w062Vc4qA3c9y8oJGk1NrKf38IXL2O6Ukm-hE13KArGWMxmCkhDZWa4oBLOpO13dIo0JXfOwcCfP2RqTQY3Ot6vQZe1hKMRQYxOmwdP1fpOtiqF3muwFFPo2GHHVhM1Mijcb3EOoUzSQoSw4uNU6mYQQRCYUsk7oidT114V1XAgobZX914PT94tX0Q4IHoLrwXQ59jNIg3J98eJoJc5Xl933f2mrHYbYWW0kOEApH7sJQ90Pb09IpwP25YErf1CXh1ZDR4lf195ClOa7pBjYS1AhD6LTCi5sEGLjQeKPfayz48T0jpotPvfnkTaHs9X21XGEeCPhsXqoXHGKAYpdglLZ04Gp0W2h6m-yHoxA_MzZOiiBknSL7pdBB6caol-2IMcl2Anq72RfLXdXU2xYLTDKaRCR-6JeivsXVUUJAAtv1uWoQc8fWWqw2Z0XkqaBt3r1EbCO492VA4TxJ3lMcCHTAi8nKN81Uu8NL4W0FG6DtDr5Jv53F8O_706y8Rz6xHmGauTedS96z2eD119ZLjn6p4lUbmLmPvTUFMxzMgMcvuH73mrTTH_YNnS7Twk3izt9qUxax_mxlJ2-D_HYz7Hr22o37ZJEdoT7TsztWUj_WnGyzf0dNreiukRq-FjwSN-VnZo5XkvLf6VnX3CHg78nK5uS2HXK3ScCAjt3ESmEZ7ECpa2F4YuwrbRBGL-OTi8HgI4e9CfGZCOUxPgr4BXBwdp1-bp0JtzhGF2WpvYGnceLUZt5Fo6iT51bjv6XIaa1Uz71jkVyoDmBoEun0eWXFI1uESoKbOy_yB]--></g></svg>