<svg xmlns="http://www.w3.org/2000/svg" xmlns:xlink="http://www.w3.org/1999/xlink" contentStyleType="text/css" height="997px" preserveAspectRatio="none" style="width:1302px;height:997px;" version="1.1" viewBox="0 0 1302 997" width="1302px" zoomAndPan="magnify"><title>&#36130;&#20135;&#29359;&#32618;-&#25250;&#21163;&#32618;-&#27491;&#24120;&#25250;&#21163;</title><defs/><g><text fill="#000000" font-family="sans-serif" font-size="14" font-weight="bold" lengthAdjust="spacing" textLength="168.1367" x="565.4316" y="34.5332">&#36130;&#20135;&#29359;&#32618;-&#25250;&#21163;&#32618;-&#27491;&#24120;&#25250;&#21163;</text><rect fill="#F1F1F1" height="37.6094" rx="12.5" ry="12.5" style="stroke:#181818;stroke-width:1.5;" width="76" x="10" y="498.3789"/><text fill="#000000" font-family="sans-serif" font-size="14" lengthAdjust="spacing" textLength="56" x="20" y="522.9121">&#27491;&#24120;&#25250;&#21163;</text><rect fill="#F1F1F1" height="37.6094" rx="12.5" ry="12.5" style="stroke:#181818;stroke-width:1.5;" width="76" x="136" y="67.4141"/><text fill="#000000" font-family="sans-serif" font-size="14" lengthAdjust="spacing" textLength="56" x="146" y="91.9473">&#34892;&#20026;&#32467;&#26500;</text><rect fill="#90EE90" height="55.2188" rx="12.5" ry="12.5" style="stroke:#181818;stroke-width:1.5;" width="191.8896" x="262" y="58.6094"/><text fill="#000000" font-family="sans-serif" font-size="14" lengthAdjust="spacing" textLength="141.5654" x="272" y="83.1426">1. &#24102;&#26377;&#38750;&#27861;&#21344;&#26377;&#30446;&#30340;&#65292;</text><text fill="#000000" font-family="sans-serif" font-size="14" lengthAdjust="spacing" textLength="168" x="272" y="100.752">&#23454;&#26045;&#26292;&#21147;&#12289;&#32961;&#36843;&#31561;&#24378;&#21046;&#25163;&#27573;</text><rect fill="#90EE90" height="37.6094" rx="12.5" ry="12.5" style="stroke:#181818;stroke-width:1.5;" width="119.5654" x="503.8896" y="67.4141"/><text fill="#000000" font-family="sans-serif" font-size="14" lengthAdjust="spacing" textLength="99.5654" x="513.8896" y="91.9473">2. &#21387;&#21046;&#23545;&#26041;&#21453;&#25239;</text><rect fill="#90EE90" height="55.2188" rx="12.5" ry="12.5" style="stroke:#181818;stroke-width:1.5;" width="133.5654" x="673.4551" y="58.6094"/><text fill="#000000" font-family="sans-serif" font-size="14" lengthAdjust="spacing" textLength="113.5654" x="683.4551" y="83.1426">3. &#23545;&#26041;&#22240;&#26080;&#27861;&#21453;&#25239;</text><text fill="#000000" font-family="sans-serif" font-size="14" lengthAdjust="spacing" textLength="70" x="683.4551" y="100.752">&#32780;&#25918;&#24323;&#36130;&#29289;</text><rect fill="#90EE90" height="37.6094" rx="12.5" ry="12.5" style="stroke:#181818;stroke-width:1.5;" width="133.5654" x="857.0205" y="67.4141"/><text fill="#000000" font-family="sans-serif" font-size="14" lengthAdjust="spacing" textLength="113.5654" x="867.0205" y="91.9473">4. &#34892;&#20026;&#20154;&#21462;&#24471;&#36130;&#29289;</text><path d="M807.0205,86.2188 L817.0205,86.2188 C832.0205,86.2188 832.0205,86.2188 847.0205,86.2188 L857.0205,86.2188 " fill="none" style="stroke:#181818;stroke-width:1;"/><path d="M623.4551,86.2188 L633.4551,86.2188 C648.4551,86.2188 648.4551,86.2188 663.4551,86.2188 L673.4551,86.2188 " fill="none" style="stroke:#181818;stroke-width:1;"/><path d="M453.8896,86.2188 L463.8896,86.2188 C478.8896,86.2188 478.8896,86.2188 493.8896,86.2188 L503.8896,86.2188 " fill="none" style="stroke:#181818;stroke-width:1;"/><path d="M212,86.2188 L222,86.2188 C237,86.2188 237,86.2188 252,86.2188 L262,86.2188 " fill="none" style="stroke:#181818;stroke-width:1;"/><path d="M86,517.1836 L96,517.1836 C111,517.1836 111,86.2188 126,86.2188 L136,86.2188 " fill="none" style="stroke:#181818;stroke-width:1;"/><rect fill="#F1F1F1" height="37.6094" rx="12.5" ry="12.5" style="stroke:#181818;stroke-width:1.5;" width="76" x="136" y="307.9414"/><text fill="#000000" font-family="sans-serif" font-size="14" lengthAdjust="spacing" textLength="56" x="146" y="332.4746">&#26500;&#25104;&#35201;&#20214;</text><rect fill="#F1F1F1" height="37.6094" rx="12.5" ry="12.5" style="stroke:#181818;stroke-width:1.5;" width="48" x="262" y="307.9414"/><text fill="#000000" font-family="sans-serif" font-size="14" lengthAdjust="spacing" textLength="28" x="272" y="332.4746">&#34892;&#20026;</text><rect fill="#F1F1F1" height="37.6094" rx="12.5" ry="12.5" style="stroke:#181818;stroke-width:1.5;" width="76" x="360" y="191.4375"/><text fill="#000000" font-family="sans-serif" font-size="14" lengthAdjust="spacing" textLength="56" x="370" y="215.9707">&#34892;&#20026;&#25163;&#27573;</text><rect fill="#F1F1F1" height="37.6094" rx="12.5" ry="12.5" style="stroke:#181818;stroke-width:1.5;" width="48" x="486" y="133.8281"/><text fill="#000000" font-family="sans-serif" font-size="14" lengthAdjust="spacing" textLength="28" x="496" y="158.3613">&#26292;&#21147;</text><path d="M436,210.2422 L446,210.2422 C461,210.2422 461,152.6328 476,152.6328 L486,152.6328 " fill="none" style="stroke:#181818;stroke-width:1;"/><rect fill="#F1F1F1" height="37.6094" rx="12.5" ry="12.5" style="stroke:#181818;stroke-width:1.5;" width="48" x="486" y="191.4375"/><text fill="#000000" font-family="sans-serif" font-size="14" lengthAdjust="spacing" textLength="28" x="496" y="215.9707">&#32961;&#36843;</text><path d="M436,210.2422 L446,210.2422 C461,210.2422 461,210.2422 476,210.2422 L486,210.2422 " fill="none" style="stroke:#181818;stroke-width:1;"/><rect fill="#F1F1F1" height="37.6094" rx="12.5" ry="12.5" style="stroke:#181818;stroke-width:1.5;" width="76" x="486" y="249.0469"/><text fill="#000000" font-family="sans-serif" font-size="14" lengthAdjust="spacing" textLength="56" x="496" y="273.5801">&#20854;&#20182;&#26041;&#27861;</text><path d="M436,210.2422 L446,210.2422 C461,210.2422 461,267.8516 476,267.8516 L486,267.8516 " fill="none" style="stroke:#181818;stroke-width:1;"/><path d="M310,326.7461 L320,326.7461 C335,326.7461 335,210.2422 350,210.2422 L360,210.2422 " fill="none" style="stroke:#181818;stroke-width:1;"/><rect fill="#F1F1F1" height="37.6094" rx="12.5" ry="12.5" style="stroke:#181818;stroke-width:1.5;" width="76" x="360" y="394.3555"/><text fill="#000000" font-family="sans-serif" font-size="14" lengthAdjust="spacing" textLength="56" x="370" y="418.8887">&#34892;&#20026;&#23545;&#35937;</text><rect fill="#F1F1F1" height="37.6094" rx="12.5" ry="12.5" style="stroke:#181818;stroke-width:1.5;" width="62" x="486" y="306.6563"/><text fill="#000000" font-family="sans-serif" font-size="14" lengthAdjust="spacing" textLength="42" x="496" y="331.1895">&#21344;&#26377;&#32773;</text><path d="M436,413.1602 L446,413.1602 C461,413.1602 461,325.4609 476,325.4609 L486,325.4609 " fill="none" style="stroke:#181818;stroke-width:1;"/><rect fill="#F1F1F1" height="37.6094" rx="12.5" ry="12.5" style="stroke:#181818;stroke-width:1.5;" width="104" x="486" y="364.2656"/><text fill="#000000" font-family="sans-serif" font-size="14" lengthAdjust="spacing" textLength="84" x="496" y="388.7988">&#21344;&#26377;&#30340;&#36741;&#21161;&#32773;</text><path d="M436,413.1602 L446,413.1602 C461,413.1602 461,383.0703 476,383.0703 L486,383.0703 " fill="none" style="stroke:#181818;stroke-width:1;"/><rect fill="#F1F1F1" height="37.6094" rx="12.5" ry="12.5" style="stroke:#181818;stroke-width:1.5;" width="104" x="486" y="421.875"/><text fill="#000000" font-family="sans-serif" font-size="14" lengthAdjust="spacing" textLength="84" x="496" y="446.4082">&#36130;&#29289;&#30340;&#20445;&#25252;&#32773;</text><rect fill="#F1F1F1" height="42.75" rx="12.5" ry="12.5" style="stroke:#181818;stroke-width:1.5;" width="259.5859" x="640" y="361.6953"/><text fill="#000000" font-family="sans-serif" font-size="14" lengthAdjust="spacing" textLength="214.6963" x="650" y="391.3691">&#32593;&#21543;&#32769;&#26495;&#20445;&#25252;&#39038;&#23458;&#30340;&#36130;&#29289;&#65288;P251&#65289;</text><path d="M888.687,372.4974 C887.8756,371.9712 886.7924,372.2022 886.2668,373.0131 L876.4609,388.1278 L871.6788,383.7061 C870.9689,383.0499 869.8623,383.0931 869.206,383.803 C868.5498,384.5123 868.5929,385.6201 869.3029,386.2757 L875.5819,392.0811 C875.7621,392.2362 875.7621,392.2362 875.8455,392.2905 C876.1395,392.4818 876.4697,392.5728 876.7964,392.5728 C877.3692,392.5728 877.9309,392.2916 878.2664,391.7748 L889.2027,374.9176 C889.7289,374.1068 889.4979,373.023 888.687,372.4974 " fill="#FE0000" style="stroke:;stroke-width:0;stroke-dasharray:;"/><path d="M590,440.6797 L600,440.6797 C615,440.6797 615,383.0703 630,383.0703 L640,383.0703 " fill="none" style="stroke:#181818;stroke-width:1;"/><rect fill="#F1F1F1" height="42.75" rx="12.5" ry="12.5" style="stroke:#181818;stroke-width:1.5;" width="189.5859" x="640" y="450.6797"/><text fill="#000000" font-family="sans-serif" font-size="14" lengthAdjust="spacing" textLength="144.6963" x="650" y="480.3535">&#23041;&#32961;&#21106;&#32819;&#26421;&#26696;&#65288;P251&#65289;</text><path d="M811.1469,471.1809 L818.2839,464.0444 C818.8533,463.475 818.8533,462.5516 818.2839,461.9823 C817.714,461.4124 816.7912,461.4124 816.2219,461.9823 L809.0848,469.1188 L801.9483,461.9823 C801.3789,461.4124 800.4549,461.4124 799.8862,461.9823 C799.3163,462.5516 799.3163,463.475 799.8862,464.0444 L807.0227,471.1809 L799.8699,478.3343 C799.2999,478.9042 799.2999,479.827 799.8699,480.3964 C800.1545,480.681 800.5279,480.8234 800.9012,480.8234 C801.2745,480.8234 801.6479,480.681 801.9325,480.3964 L809.0854,473.2429 L816.2219,480.3794 C816.5065,480.6641 816.8799,480.8064 817.2532,480.8064 C817.6265,480.8064 817.9993,480.6641 818.2845,480.3794 C818.8539,479.8095 818.8539,478.8867 818.2845,478.3174 L811.1469,471.1809 " fill="#FE0000" style="stroke:;stroke-width:0;stroke-dasharray:;"/><rect fill="#F1F1F1" height="37.6094" rx="12.5" ry="12.5" style="stroke:#181818;stroke-width:1.5;" width="328" x="879.5859" y="424.4453"/><text fill="#000000" font-family="sans-serif" font-size="14" lengthAdjust="spacing" textLength="308" x="889.5859" y="448.9785">&#23567;&#23401;&#27809;&#26377;&#34920;&#29616;&#20986;&#20445;&#25252;&#24847;&#24605;&#21644;&#20445;&#25252;&#34892;&#21160;&#65292;&#19981;&#26159;&#20445;&#25252;&#32773;</text><path d="M829.5859,472.0547 L839.5859,472.0547 C854.5859,472.0547 854.5859,443.25 869.5859,443.25 L879.5859,443.25 " fill="none" style="stroke:#181818;stroke-width:1;"/><rect fill="#F1F1F1" height="37.6094" rx="12.5" ry="12.5" style="stroke:#181818;stroke-width:1.5;" width="90" x="879.5859" y="482.0547"/><text fill="#000000" font-family="sans-serif" font-size="14" lengthAdjust="spacing" textLength="70" x="889.5859" y="506.5879">&#26500;&#25104;&#30423;&#31363;&#32618;</text><path d="M829.5859,472.0547 L839.5859,472.0547 C854.5859,472.0547 854.5859,500.8594 869.5859,500.8594 L879.5859,500.8594 " fill="none" style="stroke:#181818;stroke-width:1;"/><path d="M590,440.6797 L600,440.6797 C615,440.6797 615,472.0547 630,472.0547 L640,472.0547 " fill="none" style="stroke:#181818;stroke-width:1;"/><path d="M436,413.1602 L446,413.1602 C461,413.1602 461,440.6797 476,440.6797 L486,440.6797 " fill="none" style="stroke:#181818;stroke-width:1;"/><path d="M310,326.7461 L320,326.7461 C335,326.7461 335,413.1602 350,413.1602 L360,413.1602 " fill="none" style="stroke:#181818;stroke-width:1;"/><path d="M212,326.7461 L222,326.7461 C237,326.7461 237,326.7461 252,326.7461 L262,326.7461 " fill="none" style="stroke:#181818;stroke-width:1;"/><path d="M86,517.1836 L96,517.1836 C111,517.1836 111,326.7461 126,326.7461 L136,326.7461 " fill="none" style="stroke:#181818;stroke-width:1;"/><rect fill="#F1F1F1" height="37.6094" rx="12.5" ry="12.5" style="stroke:#181818;stroke-width:1.5;" width="90" x="136" y="738.9063"/><text fill="#000000" font-family="sans-serif" font-size="14" lengthAdjust="spacing" textLength="70" x="146" y="763.4395">&#25104;&#31435;&#21644;&#26082;&#36930;</text><rect fill="#F1F1F1" height="37.6094" rx="12.5" ry="12.5" style="stroke:#181818;stroke-width:1.5;" width="48" x="276" y="710.1016"/><text fill="#000000" font-family="sans-serif" font-size="14" lengthAdjust="spacing" textLength="28" x="286" y="734.6348">&#25104;&#31435;</text><rect fill="#F1F1F1" height="37.6094" rx="12.5" ry="12.5" style="stroke:#181818;stroke-width:1.5;" width="132" x="374" y="710.1016"/><text fill="#000000" font-family="sans-serif" font-size="14" lengthAdjust="spacing" textLength="112" x="384" y="734.6348">&#25250;&#21163;&#32618;&#30340;&#23454;&#34892;&#34892;&#20026;</text><rect fill="#F1F1F1" height="37.6094" rx="12.5" ry="12.5" style="stroke:#181818;stroke-width:1.5;" width="48" x="556" y="539.6641"/><text fill="#000000" font-family="sans-serif" font-size="14" lengthAdjust="spacing" textLength="28" x="566" y="564.1973">&#26292;&#21147;</text><rect fill="#F1F1F1" height="37.6094" rx="12.5" ry="12.5" style="stroke:#181818;stroke-width:1.5;" width="230" x="654" y="539.6641"/><text fill="#000000" font-family="sans-serif" font-size="14" lengthAdjust="spacing" textLength="210" x="664" y="564.1973">&#26292;&#21147;&#30340;&#31243;&#24230;&#35201;&#27714;&#36275;&#20197;&#21387;&#21046;&#23545;&#26041;&#21453;&#25239;</text><path d="M604,558.4688 L614,558.4688 C629,558.4688 629,558.4688 644,558.4688 L654,558.4688 " fill="none" style="stroke:#181818;stroke-width:1;"/><path d="M506,728.9063 L516,728.9063 C531,728.9063 531,558.4688 546,558.4688 L556,558.4688 " fill="none" style="stroke:#181818;stroke-width:1;"/><rect fill="#F1F1F1" height="37.6094" rx="12.5" ry="12.5" style="stroke:#181818;stroke-width:1.5;" width="48" x="556" y="623.6875"/><text fill="#000000" font-family="sans-serif" font-size="14" lengthAdjust="spacing" textLength="28" x="566" y="648.2207">&#32961;&#36843;</text><rect fill="#F1F1F1" height="90.4375" rx="12.5" ry="12.5" style="stroke:#181818;stroke-width:1.5;" width="160" x="654" y="597.2734"/><text fill="#000000" font-family="sans-serif" font-size="14" lengthAdjust="spacing" textLength="98" x="664" y="621.8066">&#20197;&#24694;&#23475;&#30456;&#36890;&#21578;&#65292;</text><text fill="#000000" font-family="sans-serif" font-size="14" lengthAdjust="spacing" textLength="140" x="664" y="639.416">&#20351;&#23545;&#26041;&#20135;&#29983;&#24656;&#24807;&#24515;&#29702;&#12290;</text><text fill="#000000" font-family="sans-serif" font-size="14" lengthAdjust="spacing" textLength="140" x="664" y="657.0254">&#24656;&#24807;&#24515;&#29702;&#30340;&#31243;&#24230;&#35201;&#27714;&#26159;</text><text fill="#000000" font-family="sans-serif" font-size="14" lengthAdjust="spacing" textLength="140" x="664" y="674.6348">&#36275;&#20197;&#20351;&#23545;&#26041;&#19981;&#25954;&#21453;&#25239;&#12290;</text><rect fill="#F1F1F1" height="37.6094" rx="12.5" ry="12.5" style="stroke:#181818;stroke-width:1.5;" width="104" x="864" y="623.6875"/><text fill="#000000" font-family="sans-serif" font-size="14" lengthAdjust="spacing" textLength="84" x="874" y="648.2207">&#20197;&#26292;&#21147;&#30456;&#32961;&#36843;</text><path d="M814,642.4922 L824,642.4922 C839,642.4922 839,642.4922 854,642.4922 L864,642.4922 " fill="none" style="stroke:#181818;stroke-width:1;"/><path d="M604,642.4922 L614,642.4922 C629,642.4922 629,642.4922 644,642.4922 L654,642.4922 " fill="none" style="stroke:#181818;stroke-width:1;"/><path d="M506,728.9063 L516,728.9063 C531,728.9063 531,642.4922 546,642.4922 L556,642.4922 " fill="none" style="stroke:#181818;stroke-width:1;"/><rect fill="#F1F1F1" height="37.6094" rx="12.5" ry="12.5" style="stroke:#181818;stroke-width:1.5;" width="76" x="556" y="794.125"/><text fill="#000000" font-family="sans-serif" font-size="14" lengthAdjust="spacing" textLength="56" x="566" y="818.6582">&#20854;&#20182;&#26041;&#27861;</text><rect fill="#F1F1F1" height="37.6094" rx="12.5" ry="12.5" style="stroke:#181818;stroke-width:1.5;" width="216" x="682" y="736.5156"/><text fill="#000000" font-family="sans-serif" font-size="14" lengthAdjust="spacing" textLength="196" x="692" y="761.0488">&#26127;&#37257;&#22411;&#25250;&#21163;&#65288;&#20351;&#23545;&#26041;&#19981;&#30693;&#21453;&#25239;&#65289;</text><rect fill="#F1F1F1" height="37.6094" rx="12.5" ry="12.5" style="stroke:#181818;stroke-width:1.5;" width="178.6621" x="948" y="707.7109"/><text fill="#000000" font-family="sans-serif" font-size="14" lengthAdjust="spacing" textLength="158.6621" x="958" y="732.2441">&#27700;&#27986;-&#26234;&#21462;&#29983;&#36784;&#32434;&#65288;&#31034;&#20363;&#65289;</text><path d="M898,755.3203 L908,755.3203 C923,755.3203 923,726.5156 938,726.5156 L948,726.5156 " fill="none" style="stroke:#181818;stroke-width:1;"/><rect fill="#F1F1F1" height="37.6094" rx="12.5" ry="12.5" style="stroke:#181818;stroke-width:1.5;" width="76" x="948" y="765.3203"/><text fill="#000000" font-family="sans-serif" font-size="14" lengthAdjust="spacing" textLength="56" x="958" y="789.8535">&#33258;&#34892;&#26127;&#37257;</text><rect fill="#F1F1F1" height="37.6094" rx="12.5" ry="12.5" style="stroke:#181818;stroke-width:1.5;" width="104" x="1074" y="765.3203"/><text fill="#000000" font-family="sans-serif" font-size="14" lengthAdjust="spacing" textLength="84" x="1084" y="789.8535">&#20165;&#25104;&#31435;&#30423;&#31363;&#32618;</text><path d="M1024,784.125 L1034,784.125 C1049,784.125 1049,784.125 1064,784.125 L1074,784.125 " fill="none" style="stroke:#181818;stroke-width:1;"/><path d="M898,755.3203 L908,755.3203 C923,755.3203 923,784.125 938,784.125 L948,784.125 " fill="none" style="stroke:#181818;stroke-width:1;"/><path d="M632,812.9297 L642,812.9297 C657,812.9297 657,755.3203 672,755.3203 L682,755.3203 " fill="none" style="stroke:#181818;stroke-width:1;"/><rect fill="#F1F1F1" height="37.6094" rx="12.5" ry="12.5" style="stroke:#181818;stroke-width:1.5;" width="216" x="682" y="851.7344"/><text fill="#000000" font-family="sans-serif" font-size="14" lengthAdjust="spacing" textLength="196" x="692" y="876.2676">&#25304;&#31105;&#22411;&#25250;&#21163;&#65288;&#20351;&#23545;&#26041;&#19981;&#33021;&#21453;&#25239;&#65289;</text><rect fill="#F1F1F1" height="37.6094" rx="12.5" ry="12.5" style="stroke:#181818;stroke-width:1.5;" width="342" x="948" y="822.9297"/><text fill="#000000" font-family="sans-serif" font-size="14" lengthAdjust="spacing" textLength="322" x="958" y="847.4629">&#21033;&#29992;&#33258;&#24049;&#24050;&#32463;&#32467;&#26463;&#30340;&#20260;&#23475;&#34892;&#20026;&#65292;&#25343;&#38065;&#65292;&#19981;&#26500;&#25104;&#25250;&#21163;&#32618;</text><path d="M898,870.5391 L908,870.5391 C923,870.5391 923,841.7344 938,841.7344 L948,841.7344 " fill="none" style="stroke:#181818;stroke-width:1;"/><rect fill="#F1F1F1" height="37.6094" rx="12.5" ry="12.5" style="stroke:#181818;stroke-width:1.5;" width="300" x="948" y="880.5391"/><text fill="#000000" font-family="sans-serif" font-size="14" lengthAdjust="spacing" textLength="280" x="958" y="905.0723">&#21033;&#29992;&#33258;&#24049;&#25345;&#32493;&#30340;&#25304;&#31105;&#34892;&#20026;&#65292;&#25343;&#38065;&#65292;&#26500;&#25104;&#25250;&#21163;&#32618;</text><path d="M898,870.5391 L908,870.5391 C923,870.5391 923,899.3438 938,899.3438 L948,899.3438 " fill="none" style="stroke:#181818;stroke-width:1;"/><path d="M632,812.9297 L642,812.9297 C657,812.9297 657,870.5391 672,870.5391 L682,870.5391 " fill="none" style="stroke:#181818;stroke-width:1;"/><path d="M506,728.9063 L516,728.9063 C531,728.9063 531,812.9297 546,812.9297 L556,812.9297 " fill="none" style="stroke:#181818;stroke-width:1;"/><path d="M324,728.9063 L334,728.9063 C349,728.9063 349,728.9063 364,728.9063 L374,728.9063 " fill="none" style="stroke:#181818;stroke-width:1;"/><path d="M226,757.7109 L236,757.7109 C251,757.7109 251,728.9063 266,728.9063 L276,728.9063 " fill="none" style="stroke:#181818;stroke-width:1;"/><rect fill="#F1F1F1" height="37.6094" rx="12.5" ry="12.5" style="stroke:#181818;stroke-width:1.5;" width="48" x="276" y="938.1484"/><text fill="#000000" font-family="sans-serif" font-size="14" lengthAdjust="spacing" textLength="28" x="286" y="962.6816">&#26082;&#36930;</text><rect fill="#F1F1F1" height="37.6094" rx="12.5" ry="12.5" style="stroke:#181818;stroke-width:1.5;" width="230" x="374" y="938.1484"/><text fill="#000000" font-family="sans-serif" font-size="14" lengthAdjust="spacing" textLength="210" x="384" y="962.6816">&#35201;&#27714;&#31532;&#19977;&#27493;&#19982;&#31532;&#22235;&#27493;&#20855;&#26377;&#22240;&#26524;&#20851;&#31995;</text><path d="M324,956.9531 L334,956.9531 C349,956.9531 349,956.9531 364,956.9531 L374,956.9531 " fill="none" style="stroke:#181818;stroke-width:1;"/><path d="M226,757.7109 L236,757.7109 C251,757.7109 251,956.9531 266,956.9531 L276,956.9531 " fill="none" style="stroke:#181818;stroke-width:1;"/><path d="M86,517.1836 L96,517.1836 C111,517.1836 111,757.7109 126,757.7109 L136,757.7109 " fill="none" style="stroke:#181818;stroke-width:1;"/><!--SRC=[xLZjJnD96F- -VyLS_A8chS9nnX12b2gvCsBCWNuoCTjsR5Uskytkj5vpkQGLKDgYeAVWMK7BAO8Ayg9OMrx-63kpooV_XNjsfuLjwROrkOyGGcRd-SrldkUPvsM6SpeHDHAHb614Z0h2Jv8Ia6D1ZBpUK_nN9maPduhAea9Y4TbZ8Jq0zTZpNWdc144VbfIeg8aHv1S3mo5DZIb1dogh6YAQgEWWmWeH128H6IFpqtov-DR8V3IsttbOPfvctjkZvNzfeS2_1U4aglb6y7CIcVc9Sg5ebFvcSwFs59_ky29QM60lqdkpSspZANtm2iP6RiLuFlfzQ-A6GbVcsFGsU_w9PdBVaYbp96NklZUMqtIhICStMJhBLZwZdXuSYOP5NTBxGEL0kBTtVmU-IoViyZ0B2-Z7hspwAvrym38pDHYE-nbm795xnMPUMGhPq1kAcPnWJtRerWXum4Wl7LhBrtTvAtQMYqKwEKrtPXnmSClSA1kVCXTIvTAcmmTyIPtAV98Rs41Jxf460kwX1W8wjbakJODjO5N3lS1oSotVQALzA6Pop5K6fsNkZD7CKcCGTmA0ohkpBFEw4OW3ZUr7TEgjcKonsLsEtSllq9LvYz_c-BurVhNpbuxlMsdKSqp3mUum5kE9cu4m3WpVZ8ZQS7Ul2pLTj8A7fjVDv0PxyPdbnmzn_U6ok4AmEacNbzXwtl95Vj5uk4hl5xcIR7II9MVfuucAVVa9cbc4y2qN7h1d7viRxOmC8pTZl1k1XAh62qozpm8lcvdVIzrrX0oNr1tZVZw2ko1lG8q6aTKqV9n2834MixIu0F7ArkwQcnlbqfksiiWb1BaGI5Xgawvi6Bd2Nl8vVPInyxoylSjPhVBov2LBJR6HjtHtn9YwzorvzuRYdAZJ35mC-MchTy02ddywppM4zKqyR-d3xSqLVZnt74vxDhbtBqtdilmK8BYSoXWltt1b8DgQXS7g9_RviOVzOrKFS8EviseKru7BU5qixsIRBpRlluFpvdgumgf6Z_48gesu1WfbdnaBAJUhp97jTgoYuql6aqLGZtvPer_MZTAarGPcNre5OUirX08FKuW3bjtTUxnMoHmx9VPZkar-Df4oIil0p3K_pEn62xRM9bd5gNQ86Hy-b0jfjlocN7W8OvhBmPYEVO5IO7MAkHTqRCFOA0d2EGozkDgFpzMsvnwxw_OAbOaBaXYokkwViAFNByUmFKAehwuBor8eJ2mvIF-oi44eSr2kNE0LQHKSqZ1McZ7R00SwqGASg69LQBKXDwMvi0gDnhIex0RbmYhKtJ27KPggkx4Tw-_lw_FvgiW4bcNrZWkM2sseuAtU85hxoea-xGBNXnFsaJcndSrzvOJoQmo4NrlAI255rN0RvuRGPKd1zVC756rksvJA8bCKDG2NHZVVABRJ4UfN5SAd_39WwbWXEIgwAGJ895KHPPycHQg67Y296X69sX1xLSFMtTQQ-P5bv_sgHbf5JRjSXC2nabQ9qYQRJur0jX2tqwwiTAEpJaV18JWm87KwirdHQNLGGOoZpdYltU0Y546_BEbXzuhbM5-xsvsmHEfzuxBD5PMqticsAf0GbJQi2eX1JFOt4mC1AUWUqZMLj1NpBSWqtP6-y1t00-9j76kHnAeCAcXgq161BLAekiBU9whg4f7Y-7p0aGw7gh4eutODEJ01pa9iIHsHe05QfRkTcAfqCOjSZ_bluu15x-OTCGvj5sjjyiOb5JB8fbPRCLj-RzlT1uMyDd6RvsfDBBTi4GBywJbLkKaSlTsFtkv7R_UZj_lHs_texNxqTlzVt-vNhV-PNnkuZE9OqwqxJOUtytHdb_ViyK6He2jg77MSGQSxkhkwkhlE8D_W4BB49uJZ0xyD8LsDmPKE1U72eqd-c7KBE25S4kCY-Zq6Tu88xaRMr_6XWHDey69r4brKufAcAX6hPr-wFi11w5UL34PLOeFFT7dw9886iGPgeUi3mWLyIup919O6rA2aXBhHjQ5-prdXCjmNOc88De8RcW-k1KHBW6pmFm00]--></g></svg>