<svg xmlns="http://www.w3.org/2000/svg" xmlns:xlink="http://www.w3.org/1999/xlink" contentStyleType="text/css" height="809px" preserveAspectRatio="none" style="width:1039px;height:809px;background:#FFFFFF;" version="1.1" viewBox="0 0 1039 809" width="1039px" zoomAndPan="magnify"><title>&#36130;&#20135;&#29359;&#32618;-&#20405;&#21344;&#32618;</title><defs/><g><text fill="#000000" font-family="sans-serif" font-size="14" font-weight="bold" lengthAdjust="spacing" textLength="105.7246" x="465.5825" y="34.5332">&#36130;&#20135;&#29359;&#32618;-&#20405;&#21344;&#32618;</text><rect fill="#F1F1F1" height="37.6094" rx="12.5" ry="12.5" style="stroke:#181818;stroke-width:1.5;" width="62" x="10" y="404.2656"/><text fill="#000000" font-family="sans-serif" font-size="14" lengthAdjust="spacing" textLength="42" x="20" y="428.7988">&#20405;&#21344;&#32618;</text><rect fill="#F1F1F1" height="37.6094" rx="12.5" ry="12.5" style="stroke:#181818;stroke-width:1.5;" width="48" x="122" y="87.4141"/><text fill="#000000" font-family="sans-serif" font-size="14" lengthAdjust="spacing" textLength="28" x="132" y="111.9473">&#27861;&#30410;</text><rect fill="#F1F1F1" height="37.6094" rx="12.5" ry="12.5" style="stroke:#181818;stroke-width:1.5;" width="188" x="220" y="58.6094"/><text fill="#000000" font-family="sans-serif" font-size="14" lengthAdjust="spacing" textLength="168" x="230" y="83.1426">&#21482;&#20405;&#23475;&#20102;&#20182;&#20154;&#30340;&#12302;&#25152;&#26377;&#26435;&#12303;</text><path d="M170,106.2188 L180,106.2188 C195,106.2188 195,77.4141 210,77.4141 L220,77.4141 " fill="none" style="stroke:#181818;stroke-width:1;"/><rect fill="#F1F1F1" height="37.6094" rx="12.5" ry="12.5" style="stroke:#181818;stroke-width:1.5;" width="188" x="220" y="116.2188"/><text fill="#000000" font-family="sans-serif" font-size="14" lengthAdjust="spacing" textLength="168" x="230" y="140.752">&#27809;&#26377;&#20405;&#29359;&#20182;&#20154;&#30340;&#12302;&#21344;&#26377;&#26435;&#12303;</text><path d="M170,106.2188 L180,106.2188 C195,106.2188 195,135.0234 210,135.0234 L220,135.0234 " fill="none" style="stroke:#181818;stroke-width:1;"/><path d="M72,423.0703 L82,423.0703 C97,423.0703 97,106.2188 112,106.2188 L122,106.2188 " fill="none" style="stroke:#181818;stroke-width:1;"/><rect fill="#F1F1F1" height="37.6094" rx="12.5" ry="12.5" style="stroke:#181818;stroke-width:1.5;" width="76" x="122" y="461.875"/><text fill="#000000" font-family="sans-serif" font-size="14" lengthAdjust="spacing" textLength="56" x="132" y="486.4082">&#26500;&#25104;&#35201;&#20214;</text><rect fill="#F1F1F1" height="37.6094" rx="12.5" ry="12.5" style="stroke:#181818;stroke-width:1.5;" width="48" x="248" y="461.875"/><text fill="#000000" font-family="sans-serif" font-size="14" lengthAdjust="spacing" textLength="28" x="258" y="486.4082">&#23458;&#35266;</text><rect fill="#F1F1F1" height="37.6094" rx="12.5" ry="12.5" style="stroke:#181818;stroke-width:1.5;" width="48" x="346" y="461.875"/><text fill="#000000" font-family="sans-serif" font-size="14" lengthAdjust="spacing" textLength="28" x="356" y="486.4082">&#34892;&#20026;</text><rect fill="#90EE90" height="37.6094" rx="12.5" ry="12.5" style="stroke:#181818;stroke-width:1.5;" width="79.8896" x="444" y="173.8281"/><text fill="#000000" font-family="sans-serif" font-size="14" lengthAdjust="spacing" textLength="56" x="454" y="198.3613">&#34892;&#20026;&#32467;&#26500;</text><rect fill="#F1F1F1" height="37.6094" rx="12.5" ry="12.5" style="stroke:#181818;stroke-width:1.5;" width="202" x="573.8896" y="173.8281"/><text fill="#000000" font-family="sans-serif" font-size="14" lengthAdjust="spacing" textLength="182" x="583.8896" y="198.3613">&#23558;&#20182;&#20154;&#25152;&#26377;&#12289;&#33258;&#24049;&#21344;&#26377;&#30340;&#36130;&#29289;</text><rect fill="#F1F1F1" height="37.6094" rx="12.5" ry="12.5" style="stroke:#181818;stroke-width:1.5;" width="104" x="825.8896" y="173.8281"/><text fill="#000000" font-family="sans-serif" font-size="14" lengthAdjust="spacing" textLength="84" x="835.8896" y="198.3613">&#21464;&#25104;&#33258;&#24049;&#25152;&#26377;</text><path d="M775.8896,192.6328 L785.8896,192.6328 C800.8896,192.6328 800.8896,192.6328 815.8896,192.6328 L825.8896,192.6328 " fill="none" style="stroke:#181818;stroke-width:1;"/><path d="M523.8896,192.6328 L533.8896,192.6328 C548.8896,192.6328 548.8896,192.6328 563.8896,192.6328 L573.8896,192.6328 " fill="none" style="stroke:#181818;stroke-width:1;"/><path d="M394,480.6797 L404,480.6797 C419,480.6797 419,192.6328 434,192.6328 L444,192.6328 " fill="none" style="stroke:#181818;stroke-width:1;"/><rect fill="#F1F1F1" height="37.6094" rx="12.5" ry="12.5" style="stroke:#181818;stroke-width:1.5;" width="76" x="444" y="289.0469"/><text fill="#000000" font-family="sans-serif" font-size="14" lengthAdjust="spacing" textLength="56" x="454" y="313.5801">&#34892;&#20026;&#23545;&#35937;</text><rect fill="#F1F1F1" height="37.6094" rx="12.5" ry="12.5" style="stroke:#181818;stroke-width:1.5;" width="188" x="570" y="231.4375"/><text fill="#000000" font-family="sans-serif" font-size="14" lengthAdjust="spacing" textLength="168" x="580" y="255.9707">&#20182;&#20154;&#25152;&#26377;&#12289;&#33258;&#24049;&#21344;&#26377;&#30340;&#36130;&#29289;</text><path d="M520,307.8516 L530,307.8516 C545,307.8516 545,250.2422 560,250.2422 L570,250.2422 " fill="none" style="stroke:#181818;stroke-width:1;"/><rect fill="#F1F1F1" height="37.6094" rx="12.5" ry="12.5" style="stroke:#181818;stroke-width:1.5;" width="48" x="570" y="317.8516"/><text fill="#000000" font-family="sans-serif" font-size="14" lengthAdjust="spacing" textLength="28" x="580" y="342.3848">&#20998;&#31867;</text><rect fill="#F1F1F1" height="37.6094" rx="12.5" ry="12.5" style="stroke:#181818;stroke-width:1.5;" width="76" x="668" y="289.0469"/><text fill="#000000" font-family="sans-serif" font-size="14" lengthAdjust="spacing" textLength="56" x="678" y="313.5801">&#20195;&#20026;&#20445;&#31649;</text><path d="M618,336.6563 L628,336.6563 C643,336.6563 643,307.8516 658,307.8516 L668,307.8516 " fill="none" style="stroke:#181818;stroke-width:1;"/><rect fill="#F1F1F1" height="37.6094" rx="12.5" ry="12.5" style="stroke:#181818;stroke-width:1.5;" width="118" x="668" y="346.6563"/><text fill="#000000" font-family="sans-serif" font-size="14" lengthAdjust="spacing" textLength="98" x="678" y="371.1895">&#36951;&#24536;&#29289;&#12289;&#22475;&#34255;&#29289;</text><path d="M618,336.6563 L628,336.6563 C643,336.6563 643,365.4609 658,365.4609 L668,365.4609 " fill="none" style="stroke:#181818;stroke-width:1;"/><path d="M520,307.8516 L530,307.8516 C545,307.8516 545,336.6563 560,336.6563 L570,336.6563 " fill="none" style="stroke:#181818;stroke-width:1;"/><path d="M394,480.6797 L404,480.6797 C419,480.6797 419,307.8516 434,307.8516 L444,307.8516 " fill="none" style="stroke:#181818;stroke-width:1;"/><rect fill="#F1F1F1" height="37.6094" rx="12.5" ry="12.5" style="stroke:#181818;stroke-width:1.5;" width="76" x="444" y="577.0938"/><text fill="#000000" font-family="sans-serif" font-size="14" lengthAdjust="spacing" textLength="56" x="454" y="601.627">&#34892;&#20026;&#26041;&#24335;</text><rect fill="#F1F1F1" height="37.6094" rx="12.5" ry="12.5" style="stroke:#181818;stroke-width:1.5;" width="258" x="570" y="404.2656"/><text fill="#000000" font-family="sans-serif" font-size="14" lengthAdjust="spacing" textLength="238" x="580" y="428.7988">&#34892;&#20026;&#20154;&#23558;&#12302;&#21344;&#26377;&#12303;&#21464;&#25104;&#12302;&#33258;&#24049;&#25152;&#26377;&#12303;&#12290;</text><path d="M520,595.8984 L530,595.8984 C545,595.8984 545,423.0703 560,423.0703 L570,423.0703 " fill="none" style="stroke:#181818;stroke-width:1;"/><rect fill="#F1F1F1" height="37.6094" rx="12.5" ry="12.5" style="stroke:#181818;stroke-width:1.5;" width="48" x="570" y="577.0938"/><text fill="#000000" font-family="sans-serif" font-size="14" lengthAdjust="spacing" textLength="28" x="580" y="601.627">&#20998;&#31867;</text><rect fill="#F1F1F1" height="37.6094" rx="12.5" ry="12.5" style="stroke:#181818;stroke-width:1.5;" width="76" x="668" y="548.2891"/><text fill="#000000" font-family="sans-serif" font-size="14" lengthAdjust="spacing" textLength="56" x="678" y="572.8223">&#20316;&#20026;&#26041;&#24335;</text><rect fill="#F1F1F1" height="37.6094" rx="12.5" ry="12.5" style="stroke:#181818;stroke-width:1.5;" width="76" x="794" y="548.2891"/><text fill="#000000" font-family="sans-serif" font-size="14" lengthAdjust="spacing" textLength="56" x="804" y="572.8223">&#26080;&#26435;&#22788;&#20998;</text><rect fill="#F1F1F1" height="37.6094" rx="12.5" ry="12.5" style="stroke:#181818;stroke-width:1.5;" width="62" x="920" y="461.875"/><text fill="#000000" font-family="sans-serif" font-size="14" lengthAdjust="spacing" textLength="42" x="930" y="486.4082">&#21464;&#21334;&#25481;</text><path d="M870,567.0938 L880,567.0938 C895,567.0938 895,480.6797 910,480.6797 L920,480.6797 " fill="none" style="stroke:#181818;stroke-width:1;"/><rect fill="#F1F1F1" height="37.6094" rx="12.5" ry="12.5" style="stroke:#181818;stroke-width:1.5;" width="62" x="920" y="519.4844"/><text fill="#000000" font-family="sans-serif" font-size="14" lengthAdjust="spacing" textLength="42" x="930" y="544.0176">&#28040;&#36153;&#25481;</text><path d="M870,567.0938 L880,567.0938 C895,567.0938 895,538.2891 910,538.2891 L920,538.2891 " fill="none" style="stroke:#181818;stroke-width:1;"/><rect fill="#F1F1F1" height="37.6094" rx="12.5" ry="12.5" style="stroke:#181818;stroke-width:1.5;" width="62" x="920" y="577.0938"/><text fill="#000000" font-family="sans-serif" font-size="14" lengthAdjust="spacing" textLength="42" x="930" y="601.627">&#25269;&#25276;&#25481;</text><path d="M870,567.0938 L880,567.0938 C895,567.0938 895,595.8984 910,595.8984 L920,595.8984 " fill="none" style="stroke:#181818;stroke-width:1;"/><rect fill="#F1F1F1" height="37.6094" rx="12.5" ry="12.5" style="stroke:#181818;stroke-width:1.5;" width="76" x="920" y="634.7031"/><text fill="#000000" font-family="sans-serif" font-size="14" lengthAdjust="spacing" textLength="56" x="930" y="659.2363">&#36192;&#19982;&#20182;&#20154;</text><path d="M870,567.0938 L880,567.0938 C895,567.0938 895,653.5078 910,653.5078 L920,653.5078 " fill="none" style="stroke:#181818;stroke-width:1;"/><path d="M744,567.0938 L754,567.0938 C769,567.0938 769,567.0938 784,567.0938 L794,567.0938 " fill="none" style="stroke:#181818;stroke-width:1;"/><path d="M618,595.8984 L628,595.8984 C643,595.8984 643,567.0938 658,567.0938 L668,567.0938 " fill="none" style="stroke:#181818;stroke-width:1;"/><rect fill="#F1F1F1" height="37.6094" rx="12.5" ry="12.5" style="stroke:#181818;stroke-width:1.5;" width="90" x="668" y="692.3125"/><text fill="#000000" font-family="sans-serif" font-size="14" lengthAdjust="spacing" textLength="70" x="678" y="716.8457">&#19981;&#20316;&#20026;&#26041;&#24335;</text><rect fill="#F1F1F1" height="37.6094" rx="12.5" ry="12.5" style="stroke:#181818;stroke-width:1.5;" width="76" x="808" y="692.3125"/><text fill="#000000" font-family="sans-serif" font-size="14" lengthAdjust="spacing" textLength="56" x="818" y="716.8457">&#25298;&#19981;&#36820;&#36824;</text><rect fill="#90EE90" height="37.6094" rx="12.5" ry="12.5" style="stroke:#181818;stroke-width:1.5;" width="93.8896" x="934" y="692.3125"/><text fill="#000000" font-family="sans-serif" font-size="14" lengthAdjust="spacing" textLength="70" x="944" y="716.8457">&#36820;&#36824;&#35831;&#27714;&#26435;</text><path d="M884,711.1172 L894,711.1172 C909,711.1172 909,711.1172 924,711.1172 L934,711.1172 " fill="none" style="stroke:#181818;stroke-width:1;"/><path d="M758,711.1172 L768,711.1172 C783,711.1172 783,711.1172 798,711.1172 L808,711.1172 " fill="none" style="stroke:#181818;stroke-width:1;"/><path d="M618,595.8984 L628,595.8984 C643,595.8984 643,711.1172 658,711.1172 L668,711.1172 " fill="none" style="stroke:#181818;stroke-width:1;"/><path d="M520,595.8984 L530,595.8984 C545,595.8984 545,595.8984 560,595.8984 L570,595.8984 " fill="none" style="stroke:#181818;stroke-width:1;"/><rect fill="#F1F1F1" height="37.6094" rx="12.5" ry="12.5" style="stroke:#181818;stroke-width:1.5;" width="48" x="570" y="749.9219"/><text fill="#000000" font-family="sans-serif" font-size="14" lengthAdjust="spacing" textLength="28" x="580" y="774.4551">&#29305;&#27530;</text><rect fill="#F1F1F1" height="37.6094" rx="12.5" ry="12.5" style="stroke:#181818;stroke-width:1.5;" width="34" x="668" y="749.9219"/><text fill="#000000" font-family="sans-serif" font-size="14" lengthAdjust="spacing" textLength="14" x="678" y="774.4551">&#38065;</text><rect fill="#F1F1F1" height="37.6094" rx="12.5" ry="12.5" style="stroke:#181818;stroke-width:1.5;" width="62" x="752" y="749.9219"/><text fill="#000000" font-family="sans-serif" font-size="14" lengthAdjust="spacing" textLength="42" x="762" y="774.4551">&#31181;&#31867;&#29289;</text><path d="M702,768.7266 L712,768.7266 C727,768.7266 727,768.7266 742,768.7266 L752,768.7266 " fill="none" style="stroke:#181818;stroke-width:1;"/><path d="M618,768.7266 L628,768.7266 C643,768.7266 643,768.7266 658,768.7266 L668,768.7266 " fill="none" style="stroke:#181818;stroke-width:1;"/><path d="M520,595.8984 L530,595.8984 C545,595.8984 545,768.7266 560,768.7266 L570,768.7266 " fill="none" style="stroke:#181818;stroke-width:1;"/><path d="M394,480.6797 L404,480.6797 C419,480.6797 419,595.8984 434,595.8984 L444,595.8984 " fill="none" style="stroke:#181818;stroke-width:1;"/><path d="M296,480.6797 L306,480.6797 C321,480.6797 321,480.6797 336,480.6797 L346,480.6797 " fill="none" style="stroke:#181818;stroke-width:1;"/><path d="M198,480.6797 L208,480.6797 C223,480.6797 223,480.6797 238,480.6797 L248,480.6797 " fill="none" style="stroke:#181818;stroke-width:1;"/><path d="M72,423.0703 L82,423.0703 C97,423.0703 97,480.6797 112,480.6797 L122,480.6797 " fill="none" style="stroke:#181818;stroke-width:1;"/><!--SRC=[xLXRJnj757xVNp5LNo2IpKKMYX12n0weZN0KrIJluzs9FM5tnvgTTMHLbGn5AIO1ehG5r2Ojf5LHUO3IX8HBKduCzdhxBtfsrulNXBqaRvMmBCjxvflltCzuF648p8L6TKN35KdwZEgoQYe4fTC3tjiGDPKCL5Ii2rDJKmuo1T2KAqzJa4cIe48bo7xzidcytLxQQx_VIJN_EMWjRy8tIRg6kWy8NjUGzUh7zizBxeCdQAtkE9ZTLytZHysJjURnSVkdXRFwYjMeMyyRrejlp-gh0RZrznQ8OGSe2y91IIySeByiM8jFxJ_ccYTlWWftNzhRy-S2JsXlFMaU7lS8Wmlja- -13OsD4QrInWOrniS_m7RO_-fuuTb_Lf-plzjflTttx0DR8LJjnf-NxlO3ik6OxUxoI4BDQkqTsVjR8PPyiXbWmkAZzlv9X8tDazz0VVFqHNjtAmBsxznwwtG3z83-rg-FxVNLotJwtbXhHwrtgo4cUH1m209ydcx8jHSja0G31lAp-lmdE_V-URGrWMfStuIIQ_s-0AIHqFFKjfRNh9L60gprPj5-VPGGktHWBRrBXhKFDfk7ArvnH0NXSFbZul3u6MomJt-mJpUIsE02xRstrluyn2z9NxKRHzRkKbIjFTkFCRAzlGo9ToeGNXC4nfu_-YPw9-6OE-36fOxW9iKbZZNqDV2dYwf9t6y8PR4yM-BCr9KSKnb7AYsLXRCEgzyuM0NpMKwK47XdrGUNE25w5BCB2A1hCU2QZsKSwwKmexr57renUKKDWtgBFZJSiO1Jd1bXR9zFJMMpkPoFh15LPGz3iDwY2vNIVgd4nog87Wo16xCrDsL1x71qh8BGB8ZaCXHN8cDeIMUS9CWRGjDK9nVbNOg4QYEf739TPpBHHLXiT3Ve24qnNNYYeWgO2wpG71tRT05abEbOpN6g-OvsaO9fMB1BiNSugM2E7Sd7RBjHP5p4LKrIBY4WhIAkKHAovPW6tIB2ijtP6KRdP4Sd9KWOa0Q36JLquXAb4589rdklWaaOWaML6kNmYHNOtwljOPcAYx49KNERYNXDhbTo3Ui9l9AnGiIvCYpBL0alwPv96iTy7phD2BGlFCiaZnyGCwQ9cGecSAO4AZ2cXVmThfuACwYWLN933hJ31zCOgoIf8rqN81SubbgZS00wepj9JNLECOVSC8iFYEpGXqK7L-7O9JmXRvKow22NciKnEt5F7Exk8EzjtEXUxQdbs2D2We-nWSulYQjhqjKrwUgQT7LD-dzVa-uu_mJTpK-ZAk66StmCfOS7XpFfwtq5BD1jLaL38sXmQ3IJ6SsCe5nX1ZdB_L9V_iiPP30JJa-amDd2QT5q1cw_T0jNCVhAXF6haL7aFFNDvFjHOT8NeaczIZdJDHYvqgrxUG-4lc2YK6721OzaKbagK85mC0lToqitoNrigWAsoaoXUcaKtPsPIbsNfc4qcxW4Yk0mpC7C5hm6QuN_0000]--></g></svg>