<svg xmlns="http://www.w3.org/2000/svg" xmlns:xlink="http://www.w3.org/1999/xlink" contentStyleType="text/css" height="579px" preserveAspectRatio="none" style="width:936px;height:579px;background:#FFFFFF;" version="1.1" viewBox="0 0 936 579" width="936px" zoomAndPan="magnify"><title>&#36130;&#20135;&#29359;&#32618; - &#30423;&#31363;&#32618; - &#21344;&#26377;</title><defs/><g><text fill="#000000" font-family="sans-serif" font-size="14" font-weight="bold" lengthAdjust="spacing" textLength="154.8203" x="389.2573" y="34.5332">&#36130;&#20135;&#29359;&#32618; - &#30423;&#31363;&#32618; - &#21344;&#26377;</text><rect fill="#F1F1F1" height="57.7344" rx="12.5" ry="12.5" style="stroke:#181818;stroke-width:1.5;" width="88.335" x="10" y="278.9844"/><text fill="#000000" font-family="sans-serif" font-size="30" lengthAdjust="spacing" textLength="60" x="20" y="320.127">&#21344;&#26377;</text><rect fill="#F1F1F1" height="37.6094" rx="12.5" ry="12.5" style="stroke:#181818;stroke-width:1.5;" width="48" x="148.335" y="58.6094"/><text fill="#000000" font-family="sans-serif" font-size="14" lengthAdjust="spacing" textLength="28" x="158.335" y="83.1426">&#35299;&#37322;</text><rect fill="#F1F1F1" height="37.6094" rx="12.5" ry="12.5" style="stroke:#181818;stroke-width:1.5;" width="272" x="246.335" y="58.6094"/><text fill="#000000" font-family="sans-serif" font-size="14" lengthAdjust="spacing" textLength="252" x="256.335" y="83.1426">&#23545;&#19968;&#20010;&#36130;&#29289;&#30340;&#25511;&#21046;&#21147;&#21644;&#25903;&#37197;&#21147;&#22823;&#23567;&#30340;&#38382;&#39064;</text><path d="M196.335,77.4141 L206.335,77.4141 C221.335,77.4141 221.335,77.4141 236.335,77.4141 L246.335,77.4141 " fill="none" style="stroke:#181818;stroke-width:1;"/><path d="M98.335,307.8516 L108.335,307.8516 C123.335,307.8516 123.335,77.4141 138.335,77.4141 L148.335,77.4141 " fill="none" style="stroke:#181818;stroke-width:1;"/><rect fill="#F1F1F1" height="37.6094" rx="12.5" ry="12.5" style="stroke:#181818;stroke-width:1.5;" width="48" x="148.335" y="317.8516"/><text fill="#000000" font-family="sans-serif" font-size="14" lengthAdjust="spacing" textLength="28" x="158.335" y="342.3848">&#20998;&#31867;</text><rect fill="#F1F1F1" height="37.6094" rx="12.5" ry="12.5" style="stroke:#181818;stroke-width:1.5;" width="104" x="246.335" y="289.0469"/><text fill="#000000" font-family="sans-serif" font-size="14" lengthAdjust="spacing" textLength="84" x="256.335" y="313.5801">&#20107;&#23454;&#19978;&#30340;&#21344;&#26377;</text><rect fill="#F1F1F1" height="37.6094" rx="12.5" ry="12.5" style="stroke:#181818;stroke-width:1.5;" width="48" x="400.335" y="173.8281"/><text fill="#000000" font-family="sans-serif" font-size="14" lengthAdjust="spacing" textLength="28" x="410.335" y="198.3613">&#31354;&#38388;</text><rect fill="#F1F1F1" height="37.6094" rx="12.5" ry="12.5" style="stroke:#181818;stroke-width:1.5;" width="104" x="498.335" y="145.0234"/><text fill="#000000" font-family="sans-serif" font-size="14" lengthAdjust="spacing" textLength="84" x="508.335" y="169.5566">&#31354;&#38388;&#36317;&#31163;&#38382;&#39064;</text><rect fill="#F1F1F1" height="37.6094" rx="12.5" ry="12.5" style="stroke:#181818;stroke-width:1.5;" width="76" x="652.335" y="116.2188"/><text fill="#000000" font-family="sans-serif" font-size="14" lengthAdjust="spacing" textLength="56" x="662.335" y="140.752">&#32039;&#23494;&#21344;&#26377;</text><path d="M602.335,163.8281 L612.335,163.8281 C627.335,163.8281 627.335,135.0234 642.335,135.0234 L652.335,135.0234 " fill="none" style="stroke:#181818;stroke-width:1;"/><rect fill="#F1F1F1" height="37.6094" rx="12.5" ry="12.5" style="stroke:#181818;stroke-width:1.5;" width="76" x="652.335" y="173.8281"/><text fill="#000000" font-family="sans-serif" font-size="14" lengthAdjust="spacing" textLength="56" x="662.335" y="198.3613">&#26494;&#24347;&#21344;&#26377;</text><path d="M602.335,163.8281 L612.335,163.8281 C627.335,163.8281 627.335,192.6328 642.335,192.6328 L652.335,192.6328 " fill="none" style="stroke:#181818;stroke-width:1;"/><path d="M448.335,192.6328 L458.335,192.6328 C473.335,192.6328 473.335,163.8281 488.335,163.8281 L498.335,163.8281 " fill="none" style="stroke:#181818;stroke-width:1;"/><rect fill="#F1F1F1" height="37.6094" rx="12.5" ry="12.5" style="stroke:#181818;stroke-width:1.5;" width="104" x="498.335" y="231.4375"/><text fill="#000000" font-family="sans-serif" font-size="14" lengthAdjust="spacing" textLength="84" x="508.335" y="255.9707">&#23553;&#32516;&#29289;&#30340;&#21344;&#26377;</text><rect fill="#F1F1F1" height="37.6094" rx="12.5" ry="12.5" style="stroke:#181818;stroke-width:1.5;" width="62" x="652.335" y="231.4375"/><text fill="#000000" font-family="sans-serif" font-size="14" lengthAdjust="spacing" textLength="42" x="662.335" y="255.9707">&#20869;&#19982;&#22806;</text><path d="M602.335,250.2422 L612.335,250.2422 C627.335,250.2422 627.335,250.2422 642.335,250.2422 L652.335,250.2422 " fill="none" style="stroke:#181818;stroke-width:1;"/><path d="M448.335,192.6328 L458.335,192.6328 C473.335,192.6328 473.335,250.2422 488.335,250.2422 L498.335,250.2422 " fill="none" style="stroke:#181818;stroke-width:1;"/><path d="M350.335,307.8516 L360.335,307.8516 C375.335,307.8516 375.335,192.6328 390.335,192.6328 L400.335,192.6328 " fill="none" style="stroke:#181818;stroke-width:1;"/><rect fill="#F1F1F1" height="37.6094" rx="12.5" ry="12.5" style="stroke:#181818;stroke-width:1.5;" width="48" x="400.335" y="289.0469"/><text fill="#000000" font-family="sans-serif" font-size="14" lengthAdjust="spacing" textLength="28" x="410.335" y="313.5801">&#26102;&#38388;</text><rect fill="#F1F1F1" height="37.6094" rx="12.5" ry="12.5" style="stroke:#181818;stroke-width:1.5;" width="160" x="498.335" y="289.0469"/><text fill="#000000" font-family="sans-serif" font-size="14" lengthAdjust="spacing" textLength="140" x="508.335" y="313.5801">&#30701;&#26242;&#36951;&#24536;&#38382;&#39064;&#65288;&#26102;&#38388;&#65289;</text><rect fill="#F1F1F1" height="37.6094" rx="12.5" ry="12.5" style="stroke:#181818;stroke-width:1.5;" width="216" x="708.335" y="289.0469"/><text fill="#000000" font-family="sans-serif" font-size="14" lengthAdjust="spacing" textLength="196" x="718.335" y="313.5801">&#26131;&#28151;&#28102;&#12302;&#20405;&#21344;&#32618;&#12303;&#30340;&#12302;&#36951;&#24536;&#29289;&#12303;</text><path d="M658.335,307.8516 L668.335,307.8516 C683.335,307.8516 683.335,307.8516 698.335,307.8516 L708.335,307.8516 " fill="none" style="stroke:#181818;stroke-width:1;"/><path d="M448.335,307.8516 L458.335,307.8516 C473.335,307.8516 473.335,307.8516 488.335,307.8516 L498.335,307.8516 " fill="none" style="stroke:#181818;stroke-width:1;"/><path d="M350.335,307.8516 L360.335,307.8516 C375.335,307.8516 375.335,307.8516 390.335,307.8516 L400.335,307.8516 " fill="none" style="stroke:#181818;stroke-width:1;"/><rect fill="#F1F1F1" height="37.6094" rx="12.5" ry="12.5" style="stroke:#181818;stroke-width:1.5;" width="76" x="400.335" y="404.2656"/><text fill="#000000" font-family="sans-serif" font-size="14" lengthAdjust="spacing" textLength="56" x="410.335" y="428.7988">&#36807;&#24230;&#29366;&#24577;</text><rect fill="#F1F1F1" height="37.6094" rx="12.5" ry="12.5" style="stroke:#181818;stroke-width:1.5;" width="160" x="526.335" y="346.6563"/><text fill="#000000" font-family="sans-serif" font-size="14" lengthAdjust="spacing" textLength="140" x="536.335" y="371.1895">&#19978;&#19979;&#21344;&#26377;&#38382;&#39064;&#65288;&#31243;&#24230;&#65289;</text><path d="M476.335,423.0703 L486.335,423.0703 C501.335,423.0703 501.335,365.4609 516.335,365.4609 L526.335,365.4609 " fill="none" style="stroke:#181818;stroke-width:1;"/><rect fill="#F1F1F1" height="37.6094" rx="12.5" ry="12.5" style="stroke:#181818;stroke-width:1.5;" width="132" x="526.335" y="404.2656"/><text fill="#000000" font-family="sans-serif" font-size="14" lengthAdjust="spacing" textLength="112" x="536.335" y="428.7988">&#20849;&#21516;&#21344;&#26377;&#65288;&#24179;&#20998;&#65289;</text><path d="M476.335,423.0703 L486.335,423.0703 C501.335,423.0703 501.335,423.0703 516.335,423.0703 L526.335,423.0703 " fill="none" style="stroke:#181818;stroke-width:1;"/><rect fill="#F1F1F1" height="37.6094" rx="12.5" ry="12.5" style="stroke:#181818;stroke-width:1.5;" width="174" x="526.335" y="461.875"/><text fill="#000000" font-family="sans-serif" font-size="14" lengthAdjust="spacing" textLength="154" x="536.335" y="486.4082">&#21344;&#26377;&#30340;&#36716;&#21270;&#38382;&#39064;&#65288;&#23436;&#20840;&#65289;</text><rect fill="#F1F1F1" height="37.6094" rx="12.5" ry="12.5" style="stroke:#181818;stroke-width:1.5;" width="104" x="750.335" y="461.875"/><text fill="#000000" font-family="sans-serif" font-size="14" lengthAdjust="spacing" textLength="84" x="760.335" y="486.4082">&#20174;&#33258;&#24049;&#21040;&#20182;&#20154;</text><path d="M700.335,480.6797 L710.335,480.6797 C725.335,480.6797 725.335,480.6797 740.335,480.6797 L750.335,480.6797 " fill="none" style="stroke:#181818;stroke-width:1;"/><path d="M476.335,423.0703 L486.335,423.0703 C501.335,423.0703 501.335,480.6797 516.335,480.6797 L526.335,480.6797 " fill="none" style="stroke:#181818;stroke-width:1;"/><path d="M350.335,307.8516 L360.335,307.8516 C375.335,307.8516 375.335,423.0703 390.335,423.0703 L400.335,423.0703 " fill="none" style="stroke:#181818;stroke-width:1;"/><path d="M196.335,336.6563 L206.335,336.6563 C221.335,336.6563 221.335,307.8516 236.335,307.8516 L246.335,307.8516 " fill="none" style="stroke:#181818;stroke-width:1;"/><rect fill="#F1F1F1" height="37.6094" rx="12.5" ry="12.5" style="stroke:#181818;stroke-width:1.5;" width="104" x="246.335" y="346.6563"/><text fill="#000000" font-family="sans-serif" font-size="14" lengthAdjust="spacing" textLength="84" x="256.335" y="371.1895">&#35266;&#24565;&#19978;&#30340;&#21344;&#26377;</text><path d="M196.335,336.6563 L206.335,336.6563 C221.335,336.6563 221.335,365.4609 236.335,365.4609 L246.335,365.4609 " fill="none" style="stroke:#181818;stroke-width:1;"/><rect fill="#F1F1F1" height="37.6094" rx="12.5" ry="12.5" style="stroke:#181818;stroke-width:1.5;" width="76" x="246.335" y="519.4844"/><text fill="#000000" font-family="sans-serif" font-size="14" lengthAdjust="spacing" textLength="56" x="256.335" y="544.0176">&#24847;&#24605;&#21344;&#26377;</text><rect fill="#F1F1F1" height="37.6094" rx="12.5" ry="12.5" style="stroke:#181818;stroke-width:1.5;" width="104" x="372.335" y="519.4844"/><text fill="#000000" font-family="sans-serif" font-size="14" lengthAdjust="spacing" textLength="84" x="382.335" y="544.0176">&#27515;&#32773;&#21344;&#26377;&#38382;&#39064;</text><path d="M322.335,538.2891 L332.335,538.2891 C347.335,538.2891 347.335,538.2891 362.335,538.2891 L372.335,538.2891 " fill="none" style="stroke:#181818;stroke-width:1;"/><path d="M196.335,336.6563 L206.335,336.6563 C221.335,336.6563 221.335,538.2891 236.335,538.2891 L246.335,538.2891 " fill="none" style="stroke:#181818;stroke-width:1;"/><path d="M98.335,307.8516 L108.335,307.8516 C123.335,307.8516 123.335,336.6563 138.335,336.6563 L148.335,336.6563 " fill="none" style="stroke:#181818;stroke-width:1;"/><!--SRC=[xLVjJzj66F_kl-AcVG6aX9SXL264A2begvggMcY_N-nhSiNsHVOvLLPD2Xrl1KgdRG9KnZPrLTEYbHUD0Wsq_37DsScd_WjxR2VWi3ZEzXaB8VjvVlUxv_qkOoR71jUehcWu9qbVK5rMBOMWUBpN_pDvGIMzEHNhtDBKc8kC0JJcoUCKP18yd7ALeEh1Yqgvv2pjEX-sKGmvc-lEzW_-ktZwX_th4qdggR-XaH4DKtqgIpGoEYeXU7fGjVHdRM79-_05OlTzvRXOETu6PkV96-VvhBrQ4ek7OcbJ_BHY_x9RctlglhyiYRrdeAsjxzHURDJPnEAyityIOAkKbyNERvNZ9K3MxK61fmSvRygrzOCcOL1HFTfoNfq4zcW1F2Y9tVaMv1SGU-kZEDqCWO3LUpFEwQplR5iUCJzNELuLBzSkEM6l7uOuyVjR-_dZsiowEDlmdVXykkYZFv-6MhlnitrqP1_DVogkLZw-0uiWdv-ARh11ufE1iI2vP4RrR46KNpbBXtPnfeKna8NAyRBluBanpkjbMDFA671tRb_ykE8l0AXu_pVaDmJgWS32weU_nChQERtOMH5phyDzhPoiLXUsnT6-MDohdAnLokL0yLHBZyNPkvR50r6QVMONjrhMbFtsf5gS2pegIMC4sgtHScFD7JZYDTQeL1VSe3XZO0qz0jfuMhM8zuRGE9QdCmQpT2N1L6OWbMQotDM3zdiNgs1ZsY1A2BokRO0p1Y5wEsOF440N8i251fOPMC-46Uqh6z2SPUJKCAYlR4337GiuPJ0pZEtBoSdnyKIYWImGLMKFGx2-qeDAyVEPLGTFCfsdw7S4VTKdkNgYvRBOf6PqB8FelX2uELtmKXh43hIFPH0w3Y8v2pNOaJ4qepE3T91NX6vHdLoMNr1qk6rRAfTCrvbCT1uM6zrBYfy2NvHM0NE95PgdRflEWOmo7Qi9Wvudy0B9cOOvQuczOv0SDh0h-I_BhgUPmQEggbCkpY6jFAgHEcHBC0swYOTbkxuoZCxDZauoa30W3GQptL2AIfH2I2vOxyqRJC2GJAlKp8PFjC3wvjqUPYc_79kGRMup7hsJvvLSm7e7NibO8VnyCopBL0alwQP96yLy7phD3BGlVCiaYHyGAwA9cGec64m9L6142pLMUFlac4avpPFhSg0T_ZMjiKewTUJ21SW5ZgJMA1oGxcZlfARgfvnBRbhf1qHswSEYW_DmB1EZGzuyPT117ZMBOdRZtd6uBmPvS-EsxzMcMeuy8YJuDz9RlsbSNT-lhkzNr_V_Uts_u_uolfkyXVB4CDsnrHyVw1iOZ5_hIc6ERhCywXz2VVt3WuF3WqCeaPf2hhfRwaf-CuLCPi7KHWhCD8EcBRVHkwMRE8_HjnQqlKQ6aVlLDPNiHgc9XX1Dw7bgC5s3LfTktalw8FGruwaSunvuQ30sJZbA4GFCGlUIqWro7rigXwKoKwYU6KPtfoPZrwHRC18id86DO0WdO5Pmem2wr3y0]--></g></svg>