<svg xmlns="http://www.w3.org/2000/svg" xmlns:xlink="http://www.w3.org/1999/xlink" contentStyleType="text/css" height="924px" preserveAspectRatio="none" style="width:1165px;height:924px;background:#FFFFFF;" version="1.1" viewBox="0 0 1165 924" width="1165px" zoomAndPan="magnify"><title>&#35820;&#21578;&#38519;&#23475;&#32618;</title><defs/><g><text fill="#000000" font-family="sans-serif" font-size="14" font-weight="bold" lengthAdjust="spacing" textLength="72.1875" x="545.3511" y="34.5332">&#35820;&#21578;&#38519;&#23475;&#32618;</text><rect fill="#F1F1F1" height="37.6094" rx="12.5" ry="12.5" style="stroke:#181818;stroke-width:1.5;" width="90" x="10" y="461.875"/><text fill="#000000" font-family="sans-serif" font-size="14" lengthAdjust="spacing" textLength="70" x="20" y="486.4082">&#35820;&#21578;&#38519;&#23475;&#32618;</text><rect fill="#F1F1F1" height="37.6094" rx="12.5" ry="12.5" style="stroke:#181818;stroke-width:1.5;" width="48" x="150" y="116.2188"/><text fill="#000000" font-family="sans-serif" font-size="14" lengthAdjust="spacing" textLength="28" x="160" y="140.752">&#27861;&#30410;</text><rect fill="#90EE90" height="37.6094" rx="12.5" ry="12.5" style="stroke:#181818;stroke-width:1.5;" width="65.8896" x="248" y="87.4141"/><text fill="#000000" font-family="sans-serif" font-size="14" lengthAdjust="spacing" textLength="42" x="258" y="111.9473">&#22810;&#25968;&#35828;</text><rect fill="#F1F1F1" height="37.6094" rx="12.5" ry="12.5" style="stroke:#181818;stroke-width:1.5;" width="62" x="363.8896" y="87.4141"/><text fill="#000000" font-family="sans-serif" font-size="14" lengthAdjust="spacing" textLength="42" x="373.8896" y="111.9473">&#20154;&#36523;&#26435;</text><rect fill="#F1F1F1" height="37.6094" rx="12.5" ry="12.5" style="stroke:#181818;stroke-width:1.5;" width="132" x="475.8896" y="58.6094"/><text fill="#000000" font-family="sans-serif" font-size="14" lengthAdjust="spacing" textLength="112" x="485.8896" y="83.1426">&#20154;&#36523;&#33258;&#30001;&#65288;&#20027;&#35201;&#65289;</text><path d="M425.8896,106.2188 L435.8896,106.2188 C450.8896,106.2188 450.8896,77.4141 465.8896,77.4141 L475.8896,77.4141 " fill="none" style="stroke:#181818;stroke-width:1;"/><rect fill="#F1F1F1" height="37.6094" rx="12.5" ry="12.5" style="stroke:#181818;stroke-width:1.5;" width="48" x="475.8896" y="116.2188"/><text fill="#000000" font-family="sans-serif" font-size="14" lengthAdjust="spacing" textLength="28" x="485.8896" y="140.752">&#21517;&#35465;</text><path d="M425.8896,106.2188 L435.8896,106.2188 C450.8896,106.2188 450.8896,135.0234 465.8896,135.0234 L475.8896,135.0234 " fill="none" style="stroke:#181818;stroke-width:1;"/><path d="M313.8896,106.2188 L323.8896,106.2188 C338.8896,106.2188 338.8896,106.2188 353.8896,106.2188 L363.8896,106.2188 " fill="none" style="stroke:#181818;stroke-width:1;"/><path d="M198,135.0234 L208,135.0234 C223,135.0234 223,106.2188 238,106.2188 L248,106.2188 " fill="none" style="stroke:#181818;stroke-width:1;"/><rect fill="#90EE90" height="37.6094" rx="12.5" ry="12.5" style="stroke:#181818;stroke-width:1.5;" width="65.8896" x="248" y="173.8281"/><text fill="#000000" font-family="sans-serif" font-size="14" lengthAdjust="spacing" textLength="42" x="258" y="198.3613">&#23569;&#25968;&#35828;</text><rect fill="#F1F1F1" height="37.6094" rx="12.5" ry="12.5" style="stroke:#181818;stroke-width:1.5;" width="146" x="363.8896" y="173.8281"/><text fill="#000000" font-family="sans-serif" font-size="14" lengthAdjust="spacing" textLength="126" x="373.8896" y="198.3613">&#21496;&#27861;&#26426;&#20851;&#30340;&#21496;&#27861;&#31209;&#24207;</text><path d="M313.8896,192.6328 L323.8896,192.6328 C338.8896,192.6328 338.8896,192.6328 353.8896,192.6328 L363.8896,192.6328 " fill="none" style="stroke:#181818;stroke-width:1;"/><path d="M198,135.0234 L208,135.0234 C223,135.0234 223,192.6328 238,192.6328 L248,192.6328 " fill="none" style="stroke:#181818;stroke-width:1;"/><path d="M100,480.6797 L110,480.6797 C125,480.6797 125,135.0234 140,135.0234 L150,135.0234 " fill="none" style="stroke:#181818;stroke-width:1;"/><rect fill="#F1F1F1" height="37.6094" rx="12.5" ry="12.5" style="stroke:#181818;stroke-width:1.5;" width="76" x="150" y="375.4609"/><text fill="#000000" font-family="sans-serif" font-size="14" lengthAdjust="spacing" textLength="56" x="160" y="399.9941">&#26500;&#25104;&#35201;&#20214;</text><rect fill="#F1F1F1" height="37.6094" rx="12.5" ry="12.5" style="stroke:#181818;stroke-width:1.5;" width="76" x="276" y="231.4375"/><text fill="#000000" font-family="sans-serif" font-size="14" lengthAdjust="spacing" textLength="56" x="286" y="255.9707">&#34892;&#20026;&#20027;&#20307;</text><rect fill="#F1F1F1" height="37.6094" rx="12.5" ry="12.5" style="stroke:#181818;stroke-width:1.5;" width="119.5723" x="402" y="231.4375"/><text fill="#000000" font-family="sans-serif" font-size="14" lengthAdjust="spacing" textLength="99.5723" x="412" y="255.9707">&#24050;&#28385;16&#21608;&#23681;&#30340;&#20154;</text><path d="M352,250.2422 L362,250.2422 C377,250.2422 377,250.2422 392,250.2422 L402,250.2422 " fill="none" style="stroke:#181818;stroke-width:1;"/><path d="M226,394.2656 L236,394.2656 C251,394.2656 251,250.2422 266,250.2422 L276,250.2422 " fill="none" style="stroke:#181818;stroke-width:1;"/><rect fill="#F1F1F1" height="37.6094" rx="12.5" ry="12.5" style="stroke:#181818;stroke-width:1.5;" width="48" x="276" y="404.2656"/><text fill="#000000" font-family="sans-serif" font-size="14" lengthAdjust="spacing" textLength="28" x="286" y="428.7988">&#34892;&#20026;</text><rect fill="#90EE90" height="37.6094" rx="12.5" ry="12.5" style="stroke:#181818;stroke-width:1.5;" width="79.8896" x="374" y="289.0469"/><text fill="#000000" font-family="sans-serif" font-size="14" lengthAdjust="spacing" textLength="56" x="384" y="313.5801">&#30528;&#25163;&#26631;&#20934;</text><rect fill="#F1F1F1" height="37.6094" rx="12.5" ry="12.5" style="stroke:#181818;stroke-width:1.5;" width="174" x="503.8896" y="289.0469"/><text fill="#000000" font-family="sans-serif" font-size="14" lengthAdjust="spacing" textLength="154" x="513.8896" y="313.5801">&#21521;&#21496;&#27861;&#26426;&#20851;&#23454;&#26045;&#21578;&#21457;&#34892;&#20026;</text><path d="M453.8896,307.8516 L463.8896,307.8516 C478.8896,307.8516 478.8896,307.8516 493.8896,307.8516 L503.8896,307.8516 " fill="none" style="stroke:#181818;stroke-width:1;"/><path d="M324,423.0703 L334,423.0703 C349,423.0703 349,307.8516 364,307.8516 L374,307.8516 " fill="none" style="stroke:#181818;stroke-width:1;"/><rect fill="#90EE90" height="37.6094" rx="12.5" ry="12.5" style="stroke:#181818;stroke-width:1.5;" width="79.8896" x="374" y="346.6563"/><text fill="#000000" font-family="sans-serif" font-size="14" lengthAdjust="spacing" textLength="56" x="384" y="371.1895">&#39044;&#22791;&#34892;&#20026;</text><rect fill="#F1F1F1" height="37.6094" rx="12.5" ry="12.5" style="stroke:#181818;stroke-width:1.5;" width="76" x="503.8896" y="346.6563"/><text fill="#000000" font-family="sans-serif" font-size="14" lengthAdjust="spacing" textLength="56" x="513.8896" y="371.1895">&#25423;&#36896;&#20107;&#23454;</text><path d="M453.8896,365.4609 L463.8896,365.4609 C478.8896,365.4609 478.8896,365.4609 493.8896,365.4609 L503.8896,365.4609 " fill="none" style="stroke:#181818;stroke-width:1;"/><path d="M324,423.0703 L334,423.0703 C349,423.0703 349,365.4609 364,365.4609 L374,365.4609 " fill="none" style="stroke:#181818;stroke-width:1;"/><rect fill="#90EE90" height="37.6094" rx="12.5" ry="12.5" style="stroke:#181818;stroke-width:1.5;" width="79.8896" x="374" y="404.2656"/><text fill="#000000" font-family="sans-serif" font-size="14" lengthAdjust="spacing" textLength="56" x="384" y="428.7988">&#23454;&#34892;&#34892;&#20026;</text><rect fill="#F1F1F1" height="37.6094" rx="12.5" ry="12.5" style="stroke:#181818;stroke-width:1.5;" width="76" x="503.8896" y="404.2656"/><text fill="#000000" font-family="sans-serif" font-size="14" lengthAdjust="spacing" textLength="56" x="513.8896" y="428.7988">&#23454;&#26045;&#35820;&#21578;</text><rect fill="#F1F1F1" height="37.6094" rx="12.5" ry="12.5" style="stroke:#181818;stroke-width:1.5;" width="258" x="629.8896" y="404.2656"/><text fill="#000000" font-family="sans-serif" font-size="14" lengthAdjust="spacing" textLength="238" x="639.8896" y="428.7988">&#21521;&#20844;&#23433;&#12289;&#21496;&#27861;&#26426;&#20851;&#25110;&#26377;&#20851;&#22269;&#23478;&#26426;&#20851;&#21578;&#21457;</text><path d="M579.8896,423.0703 L589.8896,423.0703 C604.8896,423.0703 604.8896,423.0703 619.8896,423.0703 L629.8896,423.0703 " fill="none" style="stroke:#181818;stroke-width:1;"/><path d="M453.8896,423.0703 L463.8896,423.0703 C478.8896,423.0703 478.8896,423.0703 493.8896,423.0703 L503.8896,423.0703 " fill="none" style="stroke:#181818;stroke-width:1;"/><path d="M324,423.0703 L334,423.0703 C349,423.0703 349,423.0703 364,423.0703 L374,423.0703 " fill="none" style="stroke:#181818;stroke-width:1;"/><rect fill="#90EE90" height="37.6094" rx="12.5" ry="12.5" style="stroke:#181818;stroke-width:1.5;" width="79.8896" x="374" y="490.6797"/><text fill="#000000" font-family="sans-serif" font-size="14" lengthAdjust="spacing" textLength="56" x="384" y="515.2129">&#26082;&#36930;&#26631;&#20934;</text><rect fill="#F1F1F1" height="37.6094" rx="12.5" ry="12.5" style="stroke:#181818;stroke-width:1.5;" width="342" x="503.8896" y="490.6797"/><text fill="#000000" font-family="sans-serif" font-size="14" lengthAdjust="spacing" textLength="322" x="513.8896" y="515.2129">&#21496;&#27861;&#26426;&#20851;&#25910;&#21040;&#26448;&#26009;&#65292;&#36275;&#20197;&#24341;&#36215;&#21496;&#27861;&#26426;&#20851;&#30340;&#35843;&#26597;&#27963;&#21160;&#12290;</text><rect fill="#F1F1F1" height="37.6094" rx="12.5" ry="12.5" style="stroke:#181818;stroke-width:1.5;" width="230" x="895.8896" y="461.875"/><text fill="#000000" font-family="sans-serif" font-size="14" lengthAdjust="spacing" textLength="210" x="905.8896" y="486.4082">&#19981;&#35201;&#27714;&#20844;&#23433;&#21496;&#27861;&#26426;&#20851;&#21551;&#21160;&#35843;&#26597;&#31243;&#24207;</text><path d="M845.8896,509.4844 L855.8896,509.4844 C870.8896,509.4844 870.8896,480.6797 885.8896,480.6797 L895.8896,480.6797 " fill="none" style="stroke:#181818;stroke-width:1;"/><rect fill="#F1F1F1" height="37.6094" rx="12.5" ry="12.5" style="stroke:#181818;stroke-width:1.5;" width="258" x="895.8896" y="519.4844"/><text fill="#000000" font-family="sans-serif" font-size="14" lengthAdjust="spacing" textLength="238" x="905.8896" y="544.0176">&#26356;&#19981;&#35201;&#27714;&#23454;&#38469;&#36861;&#31350;&#20102;&#34987;&#23475;&#20154;&#30340;&#21009;&#20107;&#36131;&#20219;</text><path d="M845.8896,509.4844 L855.8896,509.4844 C870.8896,509.4844 870.8896,538.2891 885.8896,538.2891 L895.8896,538.2891 " fill="none" style="stroke:#181818;stroke-width:1;"/><path d="M453.8896,509.4844 L463.8896,509.4844 C478.8896,509.4844 478.8896,509.4844 493.8896,509.4844 L503.8896,509.4844 " fill="none" style="stroke:#181818;stroke-width:1;"/><path d="M324,423.0703 L334,423.0703 C349,423.0703 349,509.4844 364,509.4844 L374,509.4844 " fill="none" style="stroke:#181818;stroke-width:1;"/><path d="M226,394.2656 L236,394.2656 C251,394.2656 251,423.0703 266,423.0703 L276,423.0703 " fill="none" style="stroke:#181818;stroke-width:1;"/><path d="M100,480.6797 L110,480.6797 C125,480.6797 125,394.2656 140,394.2656 L150,394.2656 " fill="none" style="stroke:#181818;stroke-width:1;"/><rect fill="#F1F1F1" height="37.6094" rx="12.5" ry="12.5" style="stroke:#181818;stroke-width:1.5;" width="48" x="150" y="605.8984"/><text fill="#000000" font-family="sans-serif" font-size="14" lengthAdjust="spacing" textLength="28" x="160" y="630.4316">&#36523;&#20221;</text><rect fill="#F1F1F1" height="37.6094" rx="12.5" ry="12.5" style="stroke:#181818;stroke-width:1.5;" width="149.1445" x="248" y="577.0938"/><text fill="#000000" font-family="sans-serif" font-size="14" lengthAdjust="spacing" textLength="129.1445" x="258" y="601.627">&#35820;&#21578;&#38519;&#23475;&#32618;&#65288;L243&#65289;</text><rect fill="#F1F1F1" height="37.6094" rx="12.5" ry="12.5" style="stroke:#181818;stroke-width:1.5;" width="202" x="447.1445" y="577.0938"/><text fill="#000000" font-family="sans-serif" font-size="14" lengthAdjust="spacing" textLength="182" x="457.1445" y="601.627">&#22269;&#23478;&#26426;&#20851;&#24037;&#20316;&#20154;&#21592;&#26159;&#37327;&#21009;&#36523;&#20221;</text><rect fill="#F1F1F1" height="37.6094" rx="12.5" ry="12.5" style="stroke:#181818;stroke-width:1.5;" width="104" x="699.1445" y="577.0938"/><text fill="#000000" font-family="sans-serif" font-size="14" lengthAdjust="spacing" textLength="84" x="709.1445" y="601.627">&#19981;&#30495;&#27491;&#36523;&#20221;&#29359;</text><path d="M649.1445,595.8984 L659.1445,595.8984 C674.1445,595.8984 674.1445,595.8984 689.1445,595.8984 L699.1445,595.8984 " fill="none" style="stroke:#181818;stroke-width:1;"/><path d="M397.1445,595.8984 L407.1445,595.8984 C422.1445,595.8984 422.1445,595.8984 437.1445,595.8984 L447.1445,595.8984 " fill="none" style="stroke:#181818;stroke-width:1;"/><path d="M198,624.7031 L208,624.7031 C223,624.7031 223,595.8984 238,595.8984 L248,595.8984 " fill="none" style="stroke:#181818;stroke-width:1;"/><rect fill="#F1F1F1" height="37.6094" rx="12.5" ry="12.5" style="stroke:#181818;stroke-width:1.5;" width="149.1445" x="248" y="634.7031"/><text fill="#000000" font-family="sans-serif" font-size="14" lengthAdjust="spacing" textLength="129.1445" x="258" y="659.2363">&#25253;&#22797;&#38519;&#23475;&#32618;&#65288;L254&#65289;</text><rect fill="#F1F1F1" height="37.6094" rx="12.5" ry="12.5" style="stroke:#181818;stroke-width:1.5;" width="216" x="447.1445" y="634.7031"/><text fill="#000000" font-family="sans-serif" font-size="14" lengthAdjust="spacing" textLength="196" x="457.1445" y="659.2363">&#22269;&#23478;&#26426;&#20851;&#24037;&#20316;&#20154;&#21592;&#26159;&#30495;&#27491;&#36523;&#20221;&#29359;</text><path d="M397.1445,653.5078 L407.1445,653.5078 C422.1445,653.5078 422.1445,653.5078 437.1445,653.5078 L447.1445,653.5078 " fill="none" style="stroke:#181818;stroke-width:1;"/><path d="M198,624.7031 L208,624.7031 C223,624.7031 223,653.5078 238,653.5078 L248,653.5078 " fill="none" style="stroke:#181818;stroke-width:1;"/><path d="M100,480.6797 L110,480.6797 C125,480.6797 125,624.7031 140,624.7031 L150,624.7031 " fill="none" style="stroke:#181818;stroke-width:1;"/><rect fill="#F1F1F1" height="37.6094" rx="12.5" ry="12.5" style="stroke:#181818;stroke-width:1.5;" width="48" x="150" y="778.7266"/><text fill="#000000" font-family="sans-serif" font-size="14" lengthAdjust="spacing" textLength="28" x="160" y="803.2598">&#23545;&#27604;</text><rect fill="#F1F1F1" height="37.6094" rx="12.5" ry="12.5" style="stroke:#181818;stroke-width:1.5;" width="62" x="248" y="721.1172"/><text fill="#000000" font-family="sans-serif" font-size="14" lengthAdjust="spacing" textLength="42" x="258" y="745.6504">&#20398;&#36785;&#32618;</text><rect fill="#F1F1F1" height="37.6094" rx="12.5" ry="12.5" style="stroke:#181818;stroke-width:1.5;" width="76" x="360" y="692.3125"/><text fill="#000000" font-family="sans-serif" font-size="14" lengthAdjust="spacing" textLength="56" x="370" y="716.8457">&#30495;&#23454;&#20107;&#23454;</text><path d="M310,739.9219 L320,739.9219 C335,739.9219 335,711.1172 350,711.1172 L360,711.1172 " fill="none" style="stroke:#181818;stroke-width:1;"/><rect fill="#F1F1F1" height="37.6094" rx="12.5" ry="12.5" style="stroke:#181818;stroke-width:1.5;" width="76" x="360" y="749.9219"/><text fill="#000000" font-family="sans-serif" font-size="14" lengthAdjust="spacing" textLength="56" x="370" y="774.4551">&#34394;&#20551;&#20107;&#23454;</text><path d="M310,739.9219 L320,739.9219 C335,739.9219 335,768.7266 350,768.7266 L360,768.7266 " fill="none" style="stroke:#181818;stroke-width:1;"/><path d="M198,797.5313 L208,797.5313 C223,797.5313 223,739.9219 238,739.9219 L248,739.9219 " fill="none" style="stroke:#181818;stroke-width:1;"/><rect fill="#F1F1F1" height="37.6094" rx="12.5" ry="12.5" style="stroke:#181818;stroke-width:1.5;" width="62" x="248" y="807.5313"/><text fill="#000000" font-family="sans-serif" font-size="14" lengthAdjust="spacing" textLength="42" x="258" y="832.0645">&#35837;&#35876;&#32618;</text><rect fill="#F1F1F1" height="37.6094" rx="12.5" ry="12.5" style="stroke:#181818;stroke-width:1.5;" width="104" x="360" y="807.5313"/><text fill="#000000" font-family="sans-serif" font-size="14" lengthAdjust="spacing" textLength="84" x="370" y="832.0645">&#25423;&#36896;&#34394;&#20551;&#20107;&#23454;</text><path d="M310,826.3359 L320,826.3359 C335,826.3359 335,826.3359 350,826.3359 L360,826.3359 " fill="none" style="stroke:#181818;stroke-width:1;"/><path d="M198,797.5313 L208,797.5313 C223,797.5313 223,826.3359 238,826.3359 L248,826.3359 " fill="none" style="stroke:#181818;stroke-width:1;"/><rect fill="#F1F1F1" height="37.6094" rx="12.5" ry="12.5" style="stroke:#181818;stroke-width:1.5;" width="90" x="248" y="865.1406"/><text fill="#000000" font-family="sans-serif" font-size="14" lengthAdjust="spacing" textLength="70" x="258" y="889.6738">&#35820;&#21578;&#38519;&#23475;&#32618;</text><rect fill="#F1F1F1" height="37.6094" rx="12.5" ry="12.5" style="stroke:#181818;stroke-width:1.5;" width="146" x="388" y="865.1406"/><text fill="#000000" font-family="sans-serif" font-size="14" lengthAdjust="spacing" textLength="70" x="398" y="889.6738">&#25423;&#36896;&#34394;&#20551;&#30340;</text><text fill="#000000" font-family="sans-serif" font-size="14" lengthAdjust="spacing" text-decoration="underline" textLength="28" x="468" y="889.6738">&#29359;&#32618;</text><text fill="#000000" font-family="sans-serif" font-size="14" lengthAdjust="spacing" textLength="28" x="496" y="889.6738">&#20107;&#23454;</text><path d="M338,883.9453 L348,883.9453 C363,883.9453 363,883.9453 378,883.9453 L388,883.9453 " fill="none" style="stroke:#181818;stroke-width:1;"/><path d="M198,797.5313 L208,797.5313 C223,797.5313 223,883.9453 238,883.9453 L248,883.9453 " fill="none" style="stroke:#181818;stroke-width:1;"/><path d="M100,480.6797 L110,480.6797 C125,480.6797 125,797.5313 140,797.5313 L150,797.5313 " fill="none" style="stroke:#181818;stroke-width:1;"/><!--SRC=[xLXTJzjM6BxthpZJRg0IuMCPgb24A2begqXLBRJt9ybfS75y8kSuLLHD0WhbgmYY0IlVBOMDqYwXXG5BIFTZQZlcYh-mrtPSd13Zz6PNH0Z5vttUvptlDwOdnR344hmOI-0antt7Yr51ZX7ayxLQFocM4KXhKi0YanD2Yu5i0MYBUUxZuOpZ6Cy4WlJy1pKxSxvoekOEowLzZhjrvGZ1vnRI3fVAQpFcWtMWxgngImTw_WW50YIH7C8fFjNT_HLWWPH2GI-yrpQULvqxPVhaVddnuyNPb79QrFyOlJYRhWDL5-Rq_McdyOEijt5r_XHkhQqNr8d3ykguzLZ-yvrQcBUTsXpNfXR0h58yTh3hRrugfmMua5BwhPRpv9DMVDFUgMRtr4-Zm0fUND6iqIblZ6ZJizhhINNoXVjzRK-ppckhkKrjkGJfKEUpTRdFjyVLdKbBvCMjpSsVZxnM2hF0MkjMRXCu6gEnxcHLoHNnfHSJ7zJSz9UHKQSxsjIojZvj-BLMKdF75HzDxsekfFs-VJuwrc3Cd1OMZzMf0srZGLjUkJXxgHyVAiLTzMn9__kafXpqW-VQrgvsL5HdzhwCZBbuefpEGNbe7ySiVwfoiv07LOkcl3ThLrMTkAyTNTBaDizN9lH_I-LtnqhXXRxz7heCQiYepwaiv4O_UgiKYvNwXFvGYYLdVLNt9hJDG8V_XzgcWP0uutkogvJMmOQQVQMzofzFpeEb6kOgXylhMzfVRor4UIRlCA_DxAexSzNcV_H_a_bwvA2G_qVBBpeiAPzp-kUFzlXnzDBw5eImRWthAwlgw6IDo0XPIJ_OkSfaTOEhqjKPM5yL4XUGkoGIwmPl01febRihTF3f8J2ZxJdTKpss0-OqxkOg1tTv79Tm0Zq3Oxw881Fp6qAzE3eSbwWine9Ke18I-FWGC-GW_TN0nh0q3FPTu1Mf3OvBX8ZNCPi01phZ0SxOM2fXCUvsQKjeGvEob1JSe9RGXhexvd1AeYatjk_x-tjxWq4RcI62G9-wO2sX2ULyziJnZfKJtUO2Jmrdp9GviHtNnye9xOMZw11KNaENuUCYbKW3UKDeW1T9xVabHODchwKoo4IHHed8t68Zca57g9-Ap3gA282fOONcgDnDP436Kn4BGObFs8vU8XbDO4RhOXz898abR9nyYzgT29MOLzKqoiKOf9LvDKg3R46QW6vXRjckQBhH6TaHIHmI1gJEO5utTBmI5ICawQptQWDzC0GZ0fyQSfzO3lrgQq-7U5OR6nSpzodpjcHw5SrWiG6leZX6s5TZE1hbO-ubNJL9lPWVGwUb7EqBpr4Ima-8xD74L80hI3Jcg42F5h8rJ3j9ck8PdoPteevsk3ADiK0QTUJI1SW5zgHEyB00ZT7TI4rLjfX1df8ZJqZKe7UB3ax3sYLIWxnfda87cTJKYzc8UyFXlXparOrxVQzMrRBdYk3WLw2ryfV4pJlTpJlTpJlTpJlTpJlT__PEzy3u7zl3q01A4obbxBfsNqTRXzztkocC6RfFqwYz4xMrT_dzNVvE50mF8aFSp3M5VXv4AIh3gaSnM8GI7v6DxT3CtSDfZ7wHOLSaI1Sodfe6Gyqet6SVeZunpKjKJC1-uEuz2baWz1DbuIHb9hZJtzBBCnGc4bmBFGfnTybZB0iCLACqnelnBlHmiB_bDZS0UqJ6SJ04cpi82uP96P25_mC0]--></g></svg>