<svg xmlns="http://www.w3.org/2000/svg" xmlns:xlink="http://www.w3.org/1999/xlink" contentStyleType="text/css" height="406px" preserveAspectRatio="none" style="width:829px;height:406px;background:#FFFFFF;" version="1.1" viewBox="0 0 829 406" width="829px" zoomAndPan="magnify"><title>&#36130;&#20135;&#29359;&#32618; - &#36130;&#20135;&#24615;&#21033;&#30410;</title><defs/><g><text fill="#000000" font-family="sans-serif" font-size="14" font-weight="bold" lengthAdjust="spacing" textLength="142.3789" x="342.2554" y="34.5332">&#36130;&#20135;&#29359;&#32618; - &#36130;&#20135;&#24615;&#21033;&#30410;</text><rect fill="#F1F1F1" height="37.6094" rx="12.5" ry="12.5" style="stroke:#181818;stroke-width:1.5;" width="76" x="10" y="116.2188"/><text fill="#000000" font-family="sans-serif" font-size="14" lengthAdjust="spacing" textLength="56" x="20" y="140.752">&#36130;&#20135;&#29359;&#32618;</text><rect fill="#F1F1F1" height="37.6094" rx="12.5" ry="12.5" style="stroke:#181818;stroke-width:1.5;" width="76" x="136" y="116.2188"/><text fill="#000000" font-family="sans-serif" font-size="14" lengthAdjust="spacing" textLength="56" x="146" y="140.752">&#34892;&#20026;&#23545;&#35937;</text><rect fill="#F1F1F1" height="37.6094" rx="12.5" ry="12.5" style="stroke:#181818;stroke-width:1.5;" width="48" x="262" y="87.4141"/><text fill="#000000" font-family="sans-serif" font-size="14" lengthAdjust="spacing" textLength="28" x="272" y="111.9473">&#36130;&#29289;</text><rect fill="#F1F1F1" height="37.6094" rx="12.5" ry="12.5" style="stroke:#181818;stroke-width:1.5;" width="90" x="360" y="58.6094"/><text fill="#000000" font-family="sans-serif" font-size="14" lengthAdjust="spacing" textLength="70" x="370" y="83.1426">&#26377;&#20307;&#30340;&#36130;&#29289;</text><path d="M310,106.2188 L320,106.2188 C335,106.2188 335,77.4141 350,77.4141 L360,77.4141 " fill="none" style="stroke:#181818;stroke-width:1;"/><rect fill="#F1F1F1" height="37.6094" rx="12.5" ry="12.5" style="stroke:#181818;stroke-width:1.5;" width="90" x="360" y="116.2188"/><text fill="#000000" font-family="sans-serif" font-size="14" lengthAdjust="spacing" textLength="70" x="370" y="140.752">&#26080;&#20307;&#30340;&#36130;&#29289;</text><path d="M310,106.2188 L320,106.2188 C335,106.2188 335,135.0234 350,135.0234 L360,135.0234 " fill="none" style="stroke:#181818;stroke-width:1;"/><path d="M212,135.0234 L222,135.0234 C237,135.0234 237,106.2188 252,106.2188 L262,106.2188 " fill="none" style="stroke:#181818;stroke-width:1;"/><rect fill="#90EE90" height="37.6094" rx="12.5" ry="12.5" style="stroke:#181818;stroke-width:1.5;" width="93.8896" x="262" y="173.8281"/><text fill="#000000" font-family="sans-serif" font-size="14" lengthAdjust="spacing" textLength="70" x="272" y="198.3613">&#36130;&#20135;&#24615;&#21033;&#30410;</text><rect fill="#F1F1F1" height="37.6094" rx="12.5" ry="12.5" style="stroke:#181818;stroke-width:1.5;" width="412" x="405.8896" y="173.8281"/><text fill="#000000" font-family="sans-serif" font-size="14" lengthAdjust="spacing" textLength="392" x="415.8896" y="198.3613">&#12302;&#26377;&#20307;&#36130;&#29289;&#12303;&#21644;&#12302;&#26080;&#20307;&#36130;&#29289;&#12303;&#20043;&#22806;&#30340;&#19968;&#20123;&#20855;&#26377;&#36130;&#20135;&#24615;&#20215;&#20540;&#30340;&#21033;&#30410;</text><path d="M355.8896,192.6328 L365.8896,192.6328 C380.8896,192.6328 380.8896,192.6328 395.8896,192.6328 L405.8896,192.6328 " fill="none" style="stroke:#181818;stroke-width:1;"/><path d="M212,135.0234 L222,135.0234 C237,135.0234 237,192.6328 252,192.6328 L262,192.6328 " fill="none" style="stroke:#181818;stroke-width:1;"/><path d="M86,135.0234 L96,135.0234 C111,135.0234 111,135.0234 126,135.0234 L136,135.0234 " fill="none" style="stroke:#181818;stroke-width:1;"/><rect fill="#F1F1F1" height="37.6094" rx="12.5" ry="12.5" style="stroke:#181818;stroke-width:1.5;" width="90" x="10" y="289.0469"/><text fill="#000000" font-family="sans-serif" font-size="14" lengthAdjust="spacing" textLength="70" x="20" y="313.5801">&#36130;&#20135;&#24615;&#21033;&#30410;</text><rect fill="#F1F1F1" height="37.6094" rx="12.5" ry="12.5" style="stroke:#181818;stroke-width:1.5;" width="76" x="150" y="231.4375"/><text fill="#000000" font-family="sans-serif" font-size="14" lengthAdjust="spacing" textLength="56" x="160" y="255.9707">&#20538;&#26435;&#38382;&#39064;</text><path d="M100,307.8516 L110,307.8516 C125,307.8516 125,250.2422 140,250.2422 L150,250.2422 " fill="none" style="stroke:#181818;stroke-width:1;"/><rect fill="#F1F1F1" height="37.6094" rx="12.5" ry="12.5" style="stroke:#181818;stroke-width:1.5;" width="76" x="150" y="289.0469"/><text fill="#000000" font-family="sans-serif" font-size="14" lengthAdjust="spacing" textLength="56" x="160" y="313.5801">&#23384;&#27454;&#38382;&#39064;</text><rect fill="#F1F1F1" height="37.6094" rx="12.5" ry="12.5" style="stroke:#181818;stroke-width:1.5;" width="76" x="276" y="289.0469"/><text fill="#000000" font-family="sans-serif" font-size="14" lengthAdjust="spacing" textLength="56" x="286" y="313.5801">&#38169;&#35823;&#27719;&#27454;</text><path d="M226,307.8516 L236,307.8516 C251,307.8516 251,307.8516 266,307.8516 L276,307.8516 " fill="none" style="stroke:#181818;stroke-width:1;"/><path d="M100,307.8516 L110,307.8516 C125,307.8516 125,307.8516 140,307.8516 L150,307.8516 " fill="none" style="stroke:#181818;stroke-width:1;"/><rect fill="#F1F1F1" height="37.6094" rx="12.5" ry="12.5" style="stroke:#181818;stroke-width:1.5;" width="160" x="150" y="346.6563"/><text fill="#000000" font-family="sans-serif" font-size="14" lengthAdjust="spacing" textLength="140" x="160" y="371.1895">&#30005;&#21147;&#12289;&#30005;&#35805;&#12289;&#32593;&#32476;&#38382;&#39064;</text><path d="M100,307.8516 L110,307.8516 C125,307.8516 125,365.4609 140,365.4609 L150,365.4609 " fill="none" style="stroke:#181818;stroke-width:1;"/><!--SRC=[xLPRRnD757xVNp4LBmcIdKkj24LH56mIKHGZX0tluzrXFMHsPZKxQ-HMbLn1LKXH4HILIq0gKIL4rTP2eW92mv-9Byc_w9czE6itwzs-yK1aHRlV-UOxC-Ssk-OfB9L3kULWrp2-eDnalaLGiJWN_ZpLPcJEPPWhts45pIm0jH3WHGgOOIYg6467RtPxUo-7sztX_k-e4BqEEY_xjryDTxODu_GOmq3m1z2BkxrtU_tk-yFNBm8eWj_i3k-y6W4XE7XsfxV_y_3fhPEjZtuzqNfwSYTePOKuRXDxr5jTdH0vwFmKUWb53Zht-W_kQZ0G7u6zzp_sV_i5VFNUTNfxE_tltyAgaPlUXxVzpZzWdJnv8XYXktvdR_3yvj6Zluvs7yVGduy7VtnCG25yzF39ORSxUFq362FcyE7V_UsTWyvty73OVQuVzkyFFpoBrXfh198Q9tPjFCyhGVfMZGWuHx4jiOE-0UbYW_aaU4AeZCqjMmgVMnN1X4ICsasbxM3zLdCjBBSaiLBeaJKcsv8GFaqv82JOxGnoE-OAYRcTjkdG65DTNxeiZHeQOshwmHA7ai9BKpkriL4kLoeniqqO4pTIkA4ne1f51rDURn8d5juGNDNermHzEMzeUro-sR5CikTJwDvMEqXfahiuFPP9QXaWimdrc6iprEP2aXnvHMYJSZA97qlaT3jLIejnBap2LLfiU92KC0KXr630cL25vedsnXM8KS4ngqWwIk0nKma7At4Yzv8aBfPO8_zdsTc6a2ghgl9gAGLfLLcDb5Ej8Xpe9fMMxMXbcfpE3YSs90n4ay6SDfIo4cKHuYRhVTp1EWp91gDUCtsY9TQFUxlHf6eoDYbkBWgLxIaubTd6FCUfJ6mHDNA6JPDQwIKzDccpbAz1ftc9zeLtarJnTU9dDB5Wi0Kfh4G5PhHGl2BmumgFAjeYPyr4E_ndMcD6yXxa-0YG2vmfxL2u8FLeprDJqIsdnJs_SPsOMZujEhW5rpAHENLRL4071T8YIrd7FNUuZmVvUEDExzMnMiwy8Wpujp8NVMby_aZyz3yIB-cl_2lLJTGYqjFDiL1Sd5yi5S_CrB125qKBBIoX-ONbKccvj8GgjJhIvbbZflfL7Nd2Xzc0BEWSIHk-BgTPum9kONJPX-9oo3BIRpFrwYoghSSWMkSjAWLteA2C2rUh8GcT5whc2XMGbqg5CbMeHYHi2rsj6kV8DUmp1KjDOL5kBwChzOt26MCJ2i_7DZY2Lgz0HIhP1bljNm00]--></g></svg>