<svg xmlns="http://www.w3.org/2000/svg" xmlns:xlink="http://www.w3.org/1999/xlink" contentStyleType="text/css" height="1650px" preserveAspectRatio="none" style="width:1288px;height:1650px;" version="1.1" viewBox="0 0 1288 1650" width="1288px" zoomAndPan="magnify"><title>&#36130;&#20135;&#29359;&#32618;-&#30423;&#31363;&#32618;</title><defs/><g><text fill="#000000" font-family="sans-serif" font-size="14" font-weight="bold" lengthAdjust="spacing" textLength="105.7246" x="589.6377" y="34.5332">&#36130;&#20135;&#29359;&#32618;-&#30423;&#31363;&#32618;</text><rect fill="#F1F1F1" height="37.6094" rx="12.5" ry="12.5" style="stroke:#181818;stroke-width:1.5;" width="62" x="10" y="824.5039"/><text fill="#000000" font-family="sans-serif" font-size="14" lengthAdjust="spacing" textLength="42" x="20" y="849.0371">&#30423;&#31363;&#32618;</text><rect fill="#F1F1F1" height="37.6094" rx="12.5" ry="12.5" style="stroke:#181818;stroke-width:1.5;" width="48" x="122" y="58.6094"/><text fill="#000000" font-family="sans-serif" font-size="14" lengthAdjust="spacing" textLength="28" x="132" y="83.1426">&#27861;&#30410;</text><path d="M72,843.3086 L82,843.3086 C97,843.3086 97,77.4141 112,77.4141 L122,77.4141 " fill="none" style="stroke:#181818;stroke-width:1;"/><rect fill="#FFA500" height="37.6094" rx="12.5" ry="12.5" style="stroke:#181818;stroke-width:1.5;" width="51.8896" x="122" y="116.2188"/><text fill="#000000" font-family="sans-serif" font-size="14" lengthAdjust="spacing" textLength="28" x="132" y="140.752">&#21306;&#20998;</text><rect fill="#F1F1F1" height="37.6094" rx="12.5" ry="12.5" style="stroke:#181818;stroke-width:1.5;" width="62" x="223.8896" y="87.4141"/><text fill="#000000" font-family="sans-serif" font-size="14" lengthAdjust="spacing" textLength="42" x="233.8896" y="111.9473">&#30423;&#31363;&#32618;</text><rect fill="#F1F1F1" height="37.6094" rx="12.5" ry="12.5" style="stroke:#181818;stroke-width:1.5;" width="146" x="335.8896" y="87.4141"/><text fill="#000000" font-family="sans-serif" font-size="14" lengthAdjust="spacing" textLength="126" x="345.8896" y="111.9473">&#20182;&#20154;&#12302;&#21344;&#26377;&#12303;&#30340;&#36130;&#29289;</text><rect fill="#F1F1F1" height="37.6094" rx="12.5" ry="12.5" style="stroke:#181818;stroke-width:1.5;" width="104" x="531.8896" y="87.4141"/><text fill="#000000" font-family="sans-serif" font-size="14" lengthAdjust="spacing" textLength="84" x="541.8896" y="111.9473">&#33258;&#24049;&#12302;&#21344;&#26377;&#12303;</text><path d="M481.8896,106.2188 L491.8896,106.2188 C506.8896,106.2188 506.8896,106.2188 521.8896,106.2188 L531.8896,106.2188 " fill="none" style="stroke:#181818;stroke-width:1;"/><path d="M285.8896,106.2188 L295.8896,106.2188 C310.8896,106.2188 310.8896,106.2188 325.8896,106.2188 L335.8896,106.2188 " fill="none" style="stroke:#181818;stroke-width:1;"/><path d="M173.8896,135.0234 L183.8896,135.0234 C198.8896,135.0234 198.8896,106.2188 213.8896,106.2188 L223.8896,106.2188 " fill="none" style="stroke:#181818;stroke-width:1;"/><rect fill="#F1F1F1" height="37.6094" rx="12.5" ry="12.5" style="stroke:#181818;stroke-width:1.5;" width="62" x="223.8896" y="145.0234"/><text fill="#000000" font-family="sans-serif" font-size="14" lengthAdjust="spacing" textLength="42" x="233.8896" y="169.5566">&#20405;&#21344;&#32618;</text><rect fill="#F1F1F1" height="37.6094" rx="12.5" ry="12.5" style="stroke:#181818;stroke-width:1.5;" width="244" x="335.8896" y="145.0234"/><text fill="#000000" font-family="sans-serif" font-size="14" lengthAdjust="spacing" textLength="224" x="345.8896" y="169.5566">&#20182;&#20154;&#12302;&#25152;&#26377;&#12303;&#12289;&#33258;&#24049;&#12302;&#21344;&#26377;&#12303;&#30340;&#36130;&#29289;</text><rect fill="#F1F1F1" height="37.6094" rx="12.5" ry="12.5" style="stroke:#181818;stroke-width:1.5;" width="104" x="629.8896" y="145.0234"/><text fill="#000000" font-family="sans-serif" font-size="14" lengthAdjust="spacing" textLength="84" x="639.8896" y="169.5566">&#33258;&#24049;&#12302;&#25152;&#26377;&#12303;</text><path d="M579.8896,163.8281 L589.8896,163.8281 C604.8896,163.8281 604.8896,163.8281 619.8896,163.8281 L629.8896,163.8281 " fill="none" style="stroke:#181818;stroke-width:1;"/><path d="M285.8896,163.8281 L295.8896,163.8281 C310.8896,163.8281 310.8896,163.8281 325.8896,163.8281 L335.8896,163.8281 " fill="none" style="stroke:#181818;stroke-width:1;"/><path d="M173.8896,135.0234 L183.8896,135.0234 C198.8896,135.0234 198.8896,163.8281 213.8896,163.8281 L223.8896,163.8281 " fill="none" style="stroke:#181818;stroke-width:1;"/><path d="M72,843.3086 L82,843.3086 C97,843.3086 97,135.0234 112,135.0234 L122,135.0234 " fill="none" style="stroke:#181818;stroke-width:1;"/><rect fill="#F1F1F1" height="37.6094" rx="12.5" ry="12.5" style="stroke:#181818;stroke-width:1.5;" width="76" x="122" y="637.2734"/><text fill="#000000" font-family="sans-serif" font-size="14" lengthAdjust="spacing" textLength="56" x="132" y="661.8066">&#26500;&#25104;&#35201;&#20214;</text><rect fill="#F1F1F1" height="37.6094" rx="12.5" ry="12.5" style="stroke:#181818;stroke-width:1.5;" width="48" x="248" y="637.2734"/><text fill="#000000" font-family="sans-serif" font-size="14" lengthAdjust="spacing" textLength="28" x="258" y="661.8066">&#34892;&#20026;</text><rect fill="#F1F1F1" height="37.6094" rx="12.5" ry="12.5" style="stroke:#181818;stroke-width:1.5;" width="76" x="346" y="202.6328"/><text fill="#000000" font-family="sans-serif" font-size="14" lengthAdjust="spacing" textLength="56" x="356" y="227.166">&#34892;&#20026;&#32467;&#26500;</text><rect fill="#90EE90" height="37.6094" rx="12.5" ry="12.5" style="stroke:#181818;stroke-width:1.5;" width="135.8896" x="472" y="202.6328"/><text fill="#000000" font-family="sans-serif" font-size="14" lengthAdjust="spacing" textLength="112" x="482" y="227.166">&#23558;&#20182;&#20154;&#21344;&#26377;&#30340;&#36130;&#29289;</text><rect fill="#90EE90" height="37.6094" rx="12.5" ry="12.5" style="stroke:#181818;stroke-width:1.5;" width="104" x="657.8896" y="202.6328"/><text fill="#000000" font-family="sans-serif" font-size="14" lengthAdjust="spacing" textLength="84" x="667.8896" y="227.166">&#36890;&#36807;&#24179;&#21644;&#25163;&#27573;</text><rect fill="#90EE90" height="37.6094" rx="12.5" ry="12.5" style="stroke:#181818;stroke-width:1.5;" width="118" x="811.8896" y="202.6328"/><text fill="#000000" font-family="sans-serif" font-size="14" lengthAdjust="spacing" textLength="98" x="821.8896" y="227.166">&#36716;&#31227;&#20026;&#33258;&#24049;&#21344;&#26377;</text><path d="M761.8896,221.4375 L771.8896,221.4375 C786.8896,221.4375 786.8896,221.4375 801.8896,221.4375 L811.8896,221.4375 " fill="none" style="stroke:#181818;stroke-width:1;"/><path d="M607.8896,221.4375 L617.8896,221.4375 C632.8896,221.4375 632.8896,221.4375 647.8896,221.4375 L657.8896,221.4375 " fill="none" style="stroke:#181818;stroke-width:1;"/><path d="M422,221.4375 L432,221.4375 C447,221.4375 447,221.4375 462,221.4375 L472,221.4375 " fill="none" style="stroke:#181818;stroke-width:1;"/><path d="M296,656.0781 L306,656.0781 C321,656.0781 321,221.4375 336,221.4375 L346,221.4375 " fill="none" style="stroke:#181818;stroke-width:1;"/><rect fill="#F1F1F1" height="37.6094" rx="12.5" ry="12.5" style="stroke:#181818;stroke-width:1.5;" width="76" x="346" y="291.6172"/><text fill="#000000" font-family="sans-serif" font-size="14" lengthAdjust="spacing" textLength="56" x="356" y="316.1504">&#34892;&#20026;&#25163;&#27573;</text><rect fill="#90EE90" height="37.6094" rx="12.5" ry="12.5" style="stroke:#181818;stroke-width:1.5;" width="79.8896" x="472" y="260.2422"/><text fill="#000000" font-family="sans-serif" font-size="14" lengthAdjust="spacing" textLength="56" x="482" y="284.7754">&#24179;&#21644;&#26041;&#24335;</text><path d="M422,310.4219 L432,310.4219 C447,310.4219 447,279.0469 462,279.0469 L472,279.0469 " fill="none" style="stroke:#181818;stroke-width:1;"/><rect fill="#F1F1F1" height="42.75" rx="12.5" ry="12.5" style="stroke:#181818;stroke-width:1.5;" width="86.8896" x="472" y="317.8516"/><text fill="#000000" font-family="sans-serif" font-size="14" lengthAdjust="spacing" textLength="42" x="482" y="347.5254">&#31192;&#23494;&#24615;</text><path d="M540.4506,338.3527 L547.5876,331.2162 C548.157,330.6469 548.157,329.7235 547.5876,329.1541 C547.0177,328.5842 546.0949,328.5842 545.5256,329.1541 L538.3885,336.2906 L531.252,329.1541 C530.6826,328.5842 529.7586,328.5842 529.1899,329.1541 C528.62,329.7235 528.62,330.6469 529.1899,331.2162 L536.3264,338.3527 L529.1736,345.5061 C528.6036,346.0761 528.6036,346.9989 529.1736,347.5682 C529.4582,347.8529 529.8316,347.9952 530.2049,347.9952 C530.5782,347.9952 530.9516,347.8529 531.2362,347.5682 L538.3891,340.4148 L545.5256,347.5513 C545.8102,347.836 546.1836,347.9783 546.5569,347.9783 C546.9302,347.9783 547.303,347.836 547.5882,347.5513 C548.1576,346.9814 548.1576,346.0586 547.5882,345.4892 L540.4506,338.3527 " fill="#FE0000" style="stroke:;stroke-width:0;stroke-dasharray:;"/><path d="M422,310.4219 L432,310.4219 C447,310.4219 447,339.2266 462,339.2266 L472,339.2266 " fill="none" style="stroke:#181818;stroke-width:1;"/><path d="M296,656.0781 L306,656.0781 C321,656.0781 321,310.4219 336,310.4219 L346,310.4219 " fill="none" style="stroke:#181818;stroke-width:1;"/><rect fill="#F1F1F1" height="37.6094" rx="12.5" ry="12.5" style="stroke:#181818;stroke-width:1.5;" width="104" x="346" y="611.0391"/><text fill="#000000" font-family="sans-serif" font-size="14" lengthAdjust="spacing" textLength="84" x="356" y="635.5723">&#21344;&#26377;&#65288;&#29366;&#24577;&#65289;</text><rect fill="#F1F1F1" height="37.6094" rx="12.5" ry="12.5" style="stroke:#181818;stroke-width:1.5;" width="48" x="500" y="380.6016"/><text fill="#000000" font-family="sans-serif" font-size="14" lengthAdjust="spacing" textLength="28" x="510" y="405.1348">&#35299;&#37322;</text><rect fill="#F1F1F1" height="37.6094" rx="12.5" ry="12.5" style="stroke:#181818;stroke-width:1.5;" width="272" x="598" y="380.6016"/><text fill="#000000" font-family="sans-serif" font-size="14" lengthAdjust="spacing" textLength="252" x="608" y="405.1348">&#23545;&#19968;&#20010;&#36130;&#29289;&#30340;&#25511;&#21046;&#21147;&#21644;&#25903;&#37197;&#21147;&#22823;&#23567;&#30340;&#38382;&#39064;</text><path d="M548,399.4063 L558,399.4063 C573,399.4063 573,399.4063 588,399.4063 L598,399.4063 " fill="none" style="stroke:#181818;stroke-width:1;"/><path d="M450,629.8438 L460,629.8438 C475,629.8438 475,399.4063 490,399.4063 L500,399.4063 " fill="none" style="stroke:#181818;stroke-width:1;"/><rect fill="#F1F1F1" height="37.6094" rx="12.5" ry="12.5" style="stroke:#181818;stroke-width:1.5;" width="48" x="500" y="639.8438"/><text fill="#000000" font-family="sans-serif" font-size="14" lengthAdjust="spacing" textLength="28" x="510" y="664.377">&#20998;&#31867;</text><rect fill="#F1F1F1" height="37.6094" rx="12.5" ry="12.5" style="stroke:#181818;stroke-width:1.5;" width="104" x="598" y="611.0391"/><text fill="#000000" font-family="sans-serif" font-size="14" lengthAdjust="spacing" textLength="84" x="608" y="635.5723">&#20107;&#23454;&#19978;&#30340;&#21344;&#26377;</text><rect fill="#F1F1F1" height="37.6094" rx="12.5" ry="12.5" style="stroke:#181818;stroke-width:1.5;" width="48" x="752" y="495.8203"/><text fill="#000000" font-family="sans-serif" font-size="14" lengthAdjust="spacing" textLength="28" x="762" y="520.3535">&#31354;&#38388;</text><rect fill="#F1F1F1" height="37.6094" rx="12.5" ry="12.5" style="stroke:#181818;stroke-width:1.5;" width="104" x="850" y="467.0156"/><text fill="#000000" font-family="sans-serif" font-size="14" lengthAdjust="spacing" textLength="84" x="860" y="491.5488">&#31354;&#38388;&#36317;&#31163;&#38382;&#39064;</text><rect fill="#F1F1F1" height="37.6094" rx="12.5" ry="12.5" style="stroke:#181818;stroke-width:1.5;" width="76" x="1004" y="438.2109"/><text fill="#000000" font-family="sans-serif" font-size="14" lengthAdjust="spacing" textLength="56" x="1014" y="462.7441">&#32039;&#23494;&#21344;&#26377;</text><path d="M954,485.8203 L964,485.8203 C979,485.8203 979,457.0156 994,457.0156 L1004,457.0156 " fill="none" style="stroke:#181818;stroke-width:1;"/><rect fill="#F1F1F1" height="37.6094" rx="12.5" ry="12.5" style="stroke:#181818;stroke-width:1.5;" width="76" x="1004" y="495.8203"/><text fill="#000000" font-family="sans-serif" font-size="14" lengthAdjust="spacing" textLength="56" x="1014" y="520.3535">&#26494;&#24347;&#21344;&#26377;</text><path d="M954,485.8203 L964,485.8203 C979,485.8203 979,514.625 994,514.625 L1004,514.625 " fill="none" style="stroke:#181818;stroke-width:1;"/><path d="M800,514.625 L810,514.625 C825,514.625 825,485.8203 840,485.8203 L850,485.8203 " fill="none" style="stroke:#181818;stroke-width:1;"/><rect fill="#F1F1F1" height="37.6094" rx="12.5" ry="12.5" style="stroke:#181818;stroke-width:1.5;" width="104" x="850" y="553.4297"/><text fill="#000000" font-family="sans-serif" font-size="14" lengthAdjust="spacing" textLength="84" x="860" y="577.9629">&#23553;&#32516;&#29289;&#30340;&#21344;&#26377;</text><rect fill="#F1F1F1" height="37.6094" rx="12.5" ry="12.5" style="stroke:#181818;stroke-width:1.5;" width="62" x="1004" y="553.4297"/><text fill="#000000" font-family="sans-serif" font-size="14" lengthAdjust="spacing" textLength="42" x="1014" y="577.9629">&#20869;&#19982;&#22806;</text><path d="M954,572.2344 L964,572.2344 C979,572.2344 979,572.2344 994,572.2344 L1004,572.2344 " fill="none" style="stroke:#181818;stroke-width:1;"/><path d="M800,514.625 L810,514.625 C825,514.625 825,572.2344 840,572.2344 L850,572.2344 " fill="none" style="stroke:#181818;stroke-width:1;"/><path d="M702,629.8438 L712,629.8438 C727,629.8438 727,514.625 742,514.625 L752,514.625 " fill="none" style="stroke:#181818;stroke-width:1;"/><rect fill="#F1F1F1" height="37.6094" rx="12.5" ry="12.5" style="stroke:#181818;stroke-width:1.5;" width="48" x="752" y="611.0391"/><text fill="#000000" font-family="sans-serif" font-size="14" lengthAdjust="spacing" textLength="28" x="762" y="635.5723">&#26102;&#38388;</text><rect fill="#F1F1F1" height="37.6094" rx="12.5" ry="12.5" style="stroke:#181818;stroke-width:1.5;" width="160" x="850" y="611.0391"/><text fill="#000000" font-family="sans-serif" font-size="14" lengthAdjust="spacing" textLength="140" x="860" y="635.5723">&#30701;&#26242;&#36951;&#24536;&#38382;&#39064;&#65288;&#26102;&#38388;&#65289;</text><rect fill="#F1F1F1" height="37.6094" rx="12.5" ry="12.5" style="stroke:#181818;stroke-width:1.5;" width="216" x="1060" y="611.0391"/><text fill="#000000" font-family="sans-serif" font-size="14" lengthAdjust="spacing" textLength="196" x="1070" y="635.5723">&#26131;&#28151;&#28102;&#12302;&#20405;&#21344;&#32618;&#12303;&#30340;&#12302;&#36951;&#24536;&#29289;&#12303;</text><path d="M1010,629.8438 L1020,629.8438 C1035,629.8438 1035,629.8438 1050,629.8438 L1060,629.8438 " fill="none" style="stroke:#181818;stroke-width:1;"/><path d="M800,629.8438 L810,629.8438 C825,629.8438 825,629.8438 840,629.8438 L850,629.8438 " fill="none" style="stroke:#181818;stroke-width:1;"/><path d="M702,629.8438 L712,629.8438 C727,629.8438 727,629.8438 742,629.8438 L752,629.8438 " fill="none" style="stroke:#181818;stroke-width:1;"/><rect fill="#F1F1F1" height="37.6094" rx="12.5" ry="12.5" style="stroke:#181818;stroke-width:1.5;" width="76" x="752" y="726.2578"/><text fill="#000000" font-family="sans-serif" font-size="14" lengthAdjust="spacing" textLength="56" x="762" y="750.791">&#36807;&#24230;&#29366;&#24577;</text><rect fill="#F1F1F1" height="37.6094" rx="12.5" ry="12.5" style="stroke:#181818;stroke-width:1.5;" width="160" x="878" y="668.6484"/><text fill="#000000" font-family="sans-serif" font-size="14" lengthAdjust="spacing" textLength="140" x="888" y="693.1816">&#19978;&#19979;&#21344;&#26377;&#38382;&#39064;&#65288;&#31243;&#24230;&#65289;</text><path d="M828,745.0625 L838,745.0625 C853,745.0625 853,687.4531 868,687.4531 L878,687.4531 " fill="none" style="stroke:#181818;stroke-width:1;"/><rect fill="#F1F1F1" height="37.6094" rx="12.5" ry="12.5" style="stroke:#181818;stroke-width:1.5;" width="132" x="878" y="726.2578"/><text fill="#000000" font-family="sans-serif" font-size="14" lengthAdjust="spacing" textLength="112" x="888" y="750.791">&#20849;&#21516;&#21344;&#26377;&#65288;&#24179;&#20998;&#65289;</text><path d="M828,745.0625 L838,745.0625 C853,745.0625 853,745.0625 868,745.0625 L878,745.0625 " fill="none" style="stroke:#181818;stroke-width:1;"/><rect fill="#F1F1F1" height="37.6094" rx="12.5" ry="12.5" style="stroke:#181818;stroke-width:1.5;" width="174" x="878" y="783.8672"/><text fill="#000000" font-family="sans-serif" font-size="14" lengthAdjust="spacing" textLength="154" x="888" y="808.4004">&#21344;&#26377;&#30340;&#36716;&#21270;&#38382;&#39064;&#65288;&#23436;&#20840;&#65289;</text><rect fill="#F1F1F1" height="37.6094" rx="12.5" ry="12.5" style="stroke:#181818;stroke-width:1.5;" width="104" x="1102" y="783.8672"/><text fill="#000000" font-family="sans-serif" font-size="14" lengthAdjust="spacing" textLength="84" x="1112" y="808.4004">&#20174;&#33258;&#24049;&#21040;&#20182;&#20154;</text><path d="M1052,802.6719 L1062,802.6719 C1077,802.6719 1077,802.6719 1092,802.6719 L1102,802.6719 " fill="none" style="stroke:#181818;stroke-width:1;"/><path d="M828,745.0625 L838,745.0625 C853,745.0625 853,802.6719 868,802.6719 L878,802.6719 " fill="none" style="stroke:#181818;stroke-width:1;"/><path d="M702,629.8438 L712,629.8438 C727,629.8438 727,745.0625 742,745.0625 L752,745.0625 " fill="none" style="stroke:#181818;stroke-width:1;"/><path d="M548,658.6484 L558,658.6484 C573,658.6484 573,629.8438 588,629.8438 L598,629.8438 " fill="none" style="stroke:#181818;stroke-width:1;"/><rect fill="#F1F1F1" height="37.6094" rx="12.5" ry="12.5" style="stroke:#181818;stroke-width:1.5;" width="104" x="598" y="668.6484"/><text fill="#000000" font-family="sans-serif" font-size="14" lengthAdjust="spacing" textLength="84" x="608" y="693.1816">&#35266;&#24565;&#19978;&#30340;&#21344;&#26377;</text><path d="M548,658.6484 L558,658.6484 C573,658.6484 573,687.4531 588,687.4531 L598,687.4531 " fill="none" style="stroke:#181818;stroke-width:1;"/><rect fill="#F1F1F1" height="37.6094" rx="12.5" ry="12.5" style="stroke:#181818;stroke-width:1.5;" width="76" x="598" y="841.4766"/><text fill="#000000" font-family="sans-serif" font-size="14" lengthAdjust="spacing" textLength="56" x="608" y="866.0098">&#24847;&#24605;&#21344;&#26377;</text><rect fill="#F1F1F1" height="37.6094" rx="12.5" ry="12.5" style="stroke:#181818;stroke-width:1.5;" width="104" x="724" y="841.4766"/><text fill="#000000" font-family="sans-serif" font-size="14" lengthAdjust="spacing" textLength="84" x="734" y="866.0098">&#27515;&#32773;&#21344;&#26377;&#38382;&#39064;</text><path d="M674,860.2813 L684,860.2813 C699,860.2813 699,860.2813 714,860.2813 L724,860.2813 " fill="none" style="stroke:#181818;stroke-width:1;"/><path d="M548,658.6484 L558,658.6484 C573,658.6484 573,860.2813 588,860.2813 L598,860.2813 " fill="none" style="stroke:#181818;stroke-width:1;"/><path d="M450,629.8438 L460,629.8438 C475,629.8438 475,658.6484 490,658.6484 L500,658.6484 " fill="none" style="stroke:#181818;stroke-width:1;"/><path d="M296,656.0781 L306,656.0781 C321,656.0781 321,629.8438 336,629.8438 L346,629.8438 " fill="none" style="stroke:#181818;stroke-width:1;"/><rect fill="#F1F1F1" height="37.6094" rx="12.5" ry="12.5" style="stroke:#181818;stroke-width:1.5;" width="76" x="346" y="985.5"/><text fill="#000000" font-family="sans-serif" font-size="14" lengthAdjust="spacing" textLength="56" x="356" y="1010.0332">&#29305;&#27530;&#31867;&#22411;</text><rect fill="#F1F1F1" height="37.6094" rx="12.5" ry="12.5" style="stroke:#181818;stroke-width:1.5;" width="76" x="472" y="899.0859"/><text fill="#000000" font-family="sans-serif" font-size="14" lengthAdjust="spacing" textLength="56" x="482" y="923.6191">&#22810;&#27425;&#30423;&#31363;</text><path d="M422,1004.3047 L432,1004.3047 C447,1004.3047 447,917.8906 462,917.8906 L472,917.8906 " fill="none" style="stroke:#181818;stroke-width:1;"/><rect fill="#F1F1F1" height="37.6094" rx="12.5" ry="12.5" style="stroke:#181818;stroke-width:1.5;" width="76" x="472" y="956.6953"/><text fill="#000000" font-family="sans-serif" font-size="14" lengthAdjust="spacing" textLength="56" x="482" y="981.2285">&#20837;&#25143;&#30423;&#31363;</text><path d="M422,1004.3047 L432,1004.3047 C447,1004.3047 447,975.5 462,975.5 L472,975.5 " fill="none" style="stroke:#181818;stroke-width:1;"/><rect fill="#F1F1F1" height="37.6094" rx="12.5" ry="12.5" style="stroke:#181818;stroke-width:1.5;" width="104" x="472" y="1014.3047"/><text fill="#000000" font-family="sans-serif" font-size="14" lengthAdjust="spacing" textLength="84" x="482" y="1038.8379">&#25658;&#24102;&#20982;&#22120;&#30423;&#31363;</text><path d="M422,1004.3047 L432,1004.3047 C447,1004.3047 447,1033.1094 462,1033.1094 L472,1033.1094 " fill="none" style="stroke:#181818;stroke-width:1;"/><rect fill="#F1F1F1" height="37.6094" rx="12.5" ry="12.5" style="stroke:#181818;stroke-width:1.5;" width="48" x="472" y="1071.9141"/><text fill="#000000" font-family="sans-serif" font-size="14" lengthAdjust="spacing" textLength="28" x="482" y="1096.4473">&#25170;&#31363;</text><path d="M422,1004.3047 L432,1004.3047 C447,1004.3047 447,1090.7188 462,1090.7188 L472,1090.7188 " fill="none" style="stroke:#181818;stroke-width:1;"/><path d="M296,656.0781 L306,656.0781 C321,656.0781 321,1004.3047 336,1004.3047 L346,1004.3047 " fill="none" style="stroke:#181818;stroke-width:1;"/><path d="M198,656.0781 L208,656.0781 C223,656.0781 223,656.0781 238,656.0781 L248,656.0781 " fill="none" style="stroke:#181818;stroke-width:1;"/><path d="M72,843.3086 L82,843.3086 C97,843.3086 97,656.0781 112,656.0781 L122,656.0781 " fill="none" style="stroke:#181818;stroke-width:1;"/><rect fill="#F1F1F1" height="37.6094" rx="12.5" ry="12.5" style="stroke:#181818;stroke-width:1.5;" width="90" x="122" y="1158.3281"/><text fill="#000000" font-family="sans-serif" font-size="14" lengthAdjust="spacing" textLength="70" x="132" y="1182.8613">&#25104;&#31435;&#21644;&#26082;&#36930;</text><rect fill="#F1F1F1" height="37.6094" rx="12.5" ry="12.5" style="stroke:#181818;stroke-width:1.5;" width="48" x="262" y="1129.5234"/><text fill="#000000" font-family="sans-serif" font-size="14" lengthAdjust="spacing" textLength="28" x="272" y="1154.0566">&#25104;&#31435;</text><rect fill="#90EE90" height="37.6094" rx="12.5" ry="12.5" style="stroke:#181818;stroke-width:1.5;" width="163.8896" x="360" y="1129.5234"/><text fill="#000000" font-family="sans-serif" font-size="14" lengthAdjust="spacing" textLength="140" x="370" y="1154.0566">&#30772;&#22351;&#20182;&#20154;&#23545;&#36130;&#29289;&#30340;&#21344;&#26377;</text><path d="M310,1148.3281 L320,1148.3281 C335,1148.3281 335,1148.3281 350,1148.3281 L360,1148.3281 " fill="none" style="stroke:#181818;stroke-width:1;"/><path d="M212,1177.1328 L222,1177.1328 C237,1177.1328 237,1148.3281 252,1148.3281 L262,1148.3281 " fill="none" style="stroke:#181818;stroke-width:1;"/><rect fill="#F1F1F1" height="37.6094" rx="12.5" ry="12.5" style="stroke:#181818;stroke-width:1.5;" width="48" x="262" y="1187.1328"/><text fill="#000000" font-family="sans-serif" font-size="14" lengthAdjust="spacing" textLength="28" x="272" y="1211.666">&#26082;&#36930;</text><rect fill="#90EE90" height="37.6094" rx="12.5" ry="12.5" style="stroke:#181818;stroke-width:1.5;" width="163.8896" x="360" y="1187.1328"/><text fill="#000000" font-family="sans-serif" font-size="14" lengthAdjust="spacing" textLength="140" x="370" y="1211.666">&#24314;&#31435;&#33258;&#24049;&#23545;&#36130;&#29289;&#30340;&#21344;&#26377;</text><path d="M310,1205.9375 L320,1205.9375 C335,1205.9375 335,1205.9375 350,1205.9375 L360,1205.9375 " fill="none" style="stroke:#181818;stroke-width:1;"/><path d="M212,1177.1328 L222,1177.1328 C237,1177.1328 237,1205.9375 252,1205.9375 L262,1205.9375 " fill="none" style="stroke:#181818;stroke-width:1;"/><path d="M72,843.3086 L82,843.3086 C97,843.3086 97,1177.1328 112,1177.1328 L122,1177.1328 " fill="none" style="stroke:#181818;stroke-width:1;"/><rect fill="#F1F1F1" height="37.6094" rx="12.5" ry="12.5" style="stroke:#181818;stroke-width:1.5;" width="76" x="122" y="1417.5703"/><text fill="#000000" font-family="sans-serif" font-size="14" lengthAdjust="spacing" textLength="56" x="132" y="1442.1035">&#32618;&#25968;&#38382;&#39064;</text><rect fill="#F1F1F1" height="37.6094" rx="12.5" ry="12.5" style="stroke:#181818;stroke-width:1.5;" width="76" x="248" y="1273.5469"/><text fill="#000000" font-family="sans-serif" font-size="14" lengthAdjust="spacing" textLength="56" x="258" y="1298.0801">&#26222;&#36890;&#36130;&#29289;</text><rect fill="#F1F1F1" height="37.6094" rx="12.5" ry="12.5" style="stroke:#181818;stroke-width:1.5;" width="48" x="374" y="1273.5469"/><text fill="#000000" font-family="sans-serif" font-size="14" lengthAdjust="spacing" textLength="28" x="384" y="1298.0801">&#38144;&#36163;</text><rect fill="#F1F1F1" height="37.6094" rx="12.5" ry="12.5" style="stroke:#181818;stroke-width:1.5;" width="104" x="472" y="1244.7422"/><text fill="#000000" font-family="sans-serif" font-size="14" lengthAdjust="spacing" textLength="84" x="482" y="1269.2754">&#27809;&#26377;&#27450;&#39575;&#20080;&#23478;</text><rect fill="#90EE90" height="37.6094" rx="12.5" ry="12.5" style="stroke:#181818;stroke-width:1.5;" width="261.8896" x="626" y="1244.7422"/><text fill="#000000" font-family="sans-serif" font-size="14" lengthAdjust="spacing" textLength="238" x="636" y="1269.2754">&#38144;&#36163;&#34892;&#20026;&#65292;&#19981;&#20855;&#26377;&#26399;&#24453;&#21487;&#33021;&#24615;&#65292;&#19981;&#21487;&#32602;</text><path d="M576,1263.5469 L586,1263.5469 C601,1263.5469 601,1263.5469 616,1263.5469 L626,1263.5469 " fill="none" style="stroke:#181818;stroke-width:1;"/><path d="M422,1292.3516 L432,1292.3516 C447,1292.3516 447,1263.5469 462,1263.5469 L472,1263.5469 " fill="none" style="stroke:#181818;stroke-width:1;"/><rect fill="#F1F1F1" height="37.6094" rx="12.5" ry="12.5" style="stroke:#181818;stroke-width:1.5;" width="76" x="472" y="1302.3516"/><text fill="#000000" font-family="sans-serif" font-size="14" lengthAdjust="spacing" textLength="56" x="482" y="1326.8848">&#27450;&#39575;&#20080;&#23478;</text><rect fill="#90EE90" height="37.6094" rx="12.5" ry="12.5" style="stroke:#181818;stroke-width:1.5;" width="65.8896" x="598" y="1302.3516"/><text fill="#000000" font-family="sans-serif" font-size="14" lengthAdjust="spacing" textLength="42" x="608" y="1326.8848">&#35784;&#39575;&#32618;</text><rect fill="#90EE90" height="37.6094" rx="12.5" ry="12.5" style="stroke:#181818;stroke-width:1.5;" width="79.8896" x="713.8896" y="1302.3516"/><text fill="#000000" font-family="sans-serif" font-size="14" lengthAdjust="spacing" textLength="56" x="723.8896" y="1326.8848">&#25968;&#32618;&#24182;&#32602;</text><path d="M663.8896,1321.1563 L673.8896,1321.1563 C688.8896,1321.1563 688.8896,1321.1563 703.8896,1321.1563 L713.8896,1321.1563 " fill="none" style="stroke:#181818;stroke-width:1;"/><path d="M548,1321.1563 L558,1321.1563 C573,1321.1563 573,1321.1563 588,1321.1563 L598,1321.1563 " fill="none" style="stroke:#181818;stroke-width:1;"/><path d="M422,1292.3516 L432,1292.3516 C447,1292.3516 447,1321.1563 462,1321.1563 L472,1321.1563 " fill="none" style="stroke:#181818;stroke-width:1;"/><path d="M324,1292.3516 L334,1292.3516 C349,1292.3516 349,1292.3516 364,1292.3516 L374,1292.3516 " fill="none" style="stroke:#181818;stroke-width:1;"/><path d="M198,1436.375 L208,1436.375 C223,1436.375 223,1292.3516 238,1292.3516 L248,1292.3516 " fill="none" style="stroke:#181818;stroke-width:1;"/><rect fill="#F1F1F1" height="37.6094" rx="12.5" ry="12.5" style="stroke:#181818;stroke-width:1.5;" width="62" x="248" y="1475.1797"/><text fill="#000000" font-family="sans-serif" font-size="14" lengthAdjust="spacing" textLength="42" x="258" y="1499.7129">&#36829;&#31105;&#21697;</text><rect fill="#90EE90" height="37.6094" rx="12.5" ry="12.5" style="stroke:#181818;stroke-width:1.5;" width="79.8896" x="360" y="1446.375"/><text fill="#000000" font-family="sans-serif" font-size="14" lengthAdjust="spacing" textLength="56" x="370" y="1470.9082">&#25968;&#32618;&#24182;&#32602;</text><rect fill="#F1F1F1" height="37.6094" rx="12.5" ry="12.5" style="stroke:#181818;stroke-width:1.5;" width="48" x="489.8896" y="1359.9609"/><text fill="#000000" font-family="sans-serif" font-size="14" lengthAdjust="spacing" textLength="28" x="499.8896" y="1384.4941">&#20551;&#24065;</text><path d="M439.8896,1465.1797 L449.8896,1465.1797 C464.8896,1465.1797 464.8896,1378.7656 479.8896,1378.7656 L489.8896,1378.7656 " fill="none" style="stroke:#181818;stroke-width:1;"/><rect fill="#F1F1F1" height="37.6094" rx="12.5" ry="12.5" style="stroke:#181818;stroke-width:1.5;" width="48" x="489.8896" y="1417.5703"/><text fill="#000000" font-family="sans-serif" font-size="14" lengthAdjust="spacing" textLength="28" x="499.8896" y="1442.1035">&#25991;&#29289;</text><path d="M439.8896,1465.1797 L449.8896,1465.1797 C464.8896,1465.1797 464.8896,1436.375 479.8896,1436.375 L489.8896,1436.375 " fill="none" style="stroke:#181818;stroke-width:1;"/><rect fill="#F1F1F1" height="37.6094" rx="12.5" ry="12.5" style="stroke:#181818;stroke-width:1.5;" width="48" x="489.8896" y="1475.1797"/><text fill="#000000" font-family="sans-serif" font-size="14" lengthAdjust="spacing" textLength="28" x="499.8896" y="1499.7129">&#27602;&#21697;</text><path d="M439.8896,1465.1797 L449.8896,1465.1797 C464.8896,1465.1797 464.8896,1493.9844 479.8896,1493.9844 L489.8896,1493.9844 " fill="none" style="stroke:#181818;stroke-width:1;"/><rect fill="#F1F1F1" height="37.6094" rx="12.5" ry="12.5" style="stroke:#181818;stroke-width:1.5;" width="76" x="489.8896" y="1532.7891"/><text fill="#000000" font-family="sans-serif" font-size="14" lengthAdjust="spacing" textLength="56" x="499.8896" y="1557.3223">&#28139;&#31229;&#29289;&#21697;</text><path d="M439.8896,1465.1797 L449.8896,1465.1797 C464.8896,1465.1797 464.8896,1551.5938 479.8896,1551.5938 L489.8896,1551.5938 " fill="none" style="stroke:#181818;stroke-width:1;"/><path d="M310,1493.9844 L320,1493.9844 C335,1493.9844 335,1465.1797 350,1465.1797 L360,1465.1797 " fill="none" style="stroke:#181818;stroke-width:1;"/><rect fill="#90EE90" height="37.6094" rx="12.5" ry="12.5" style="stroke:#181818;stroke-width:1.5;" width="93.8896" x="360" y="1590.3984"/><text fill="#000000" font-family="sans-serif" font-size="14" lengthAdjust="spacing" textLength="70" x="370" y="1614.9316">&#30423;&#31363;&#26538;&#25903;&#32618;</text><rect fill="#F1F1F1" height="37.6094" rx="12.5" ry="12.5" style="stroke:#181818;stroke-width:1.5;" width="48" x="503.8896" y="1590.3984"/><text fill="#000000" font-family="sans-serif" font-size="14" lengthAdjust="spacing" textLength="28" x="513.8896" y="1614.9316">&#26538;&#25903;</text><path d="M453.8896,1609.2031 L463.8896,1609.2031 C478.8896,1609.2031 478.8896,1609.2031 493.8896,1609.2031 L503.8896,1609.2031 " fill="none" style="stroke:#181818;stroke-width:1;"/><path d="M310,1493.9844 L320,1493.9844 C335,1493.9844 335,1609.2031 350,1609.2031 L360,1609.2031 " fill="none" style="stroke:#181818;stroke-width:1;"/><path d="M198,1436.375 L208,1436.375 C223,1436.375 223,1493.9844 238,1493.9844 L248,1493.9844 " fill="none" style="stroke:#181818;stroke-width:1;"/><path d="M72,843.3086 L82,843.3086 C97,843.3086 97,1436.375 112,1436.375 L122,1436.375 " fill="none" style="stroke:#181818;stroke-width:1;"/><!--SRC=[xLbRRzD857xthvWLBx1I0rGLGbLLGGFLBg88RGllJc9IKyUE72Tij5efWIPDqj9MN9hIqd9Pje5GahAqkRRmOyZOoHD_OSzaSd5IEpRlgQeedlFDTywSEUVCyUHAG65bnSUB7X_hPvXVUD4j13qSSZZEq_-04XQuytw15PMWJnWXo160ZZJ77JoCCKnWWHVzhCpwa8jrBtXbAIXwd98WoKYHMJ408avK64RX5O53zSEtjKf6I-Mra-o8jftMie_W6yFyYheF2Fv-HUgNvzfsglM0Loeu4KSJ4vpFFyy6-C3ev6HJHCMzSxlZjUf6hLBv7bd5Zr-hBvFV8slQrYAOe2K_z20fkhwKnSNFUhHEHUth4GmFKA4c8tJIzqZqD9CjlHsAjWjs5zN4UdqlMgiMTARKtwpKIfK-E-YWLdqAamnqu8CujPHQr357vz8fs2ttlCwllGoDo5Rzsn8kVy5FLjJaifexCWIsh3dPrp9LC8YkZIerjDY42YoccZRA-7XDPwM1VR3_cKsSZwkH39eu8tEUyJ_79_kKKGj-72UqL46DH7yS9uqs8lDFOobbidwSBzTAaLefInq77bHNCpXHmAbjOkUpV2Fsc7n_by47PBiRwLpZxQRHmX9nxNFLH4kjienpkxLI2XWClDQtx0-LHlhG5A07rOixsbxLn2Q3IOSPSAY50LsuklCL7s_RW9D0Z6h7YzI1jlbnF5OhhU9t6mESeQOBDfpnwfEwzR0HJUDlczGP419qfb5866ZPVAeMYsen3kdQAGaqls644iFYzBN38CuWZofxD18j38P8g9MMgQCw1cllbs6-bS7WjjXdlBxI2NsIKOcuZMcT4d6oZrSsEcfnRWN7tjlpKwswsahzn04jF2O1NyyynD-EB0CUFB-ufaPsB7D2_LIjHs9wX_LL0YrPLdCfo42yksoKdU-srFqtz40n4iV-LHD5Kx6wNi6bFRnKm2_UcuEIJze2U4YiQn-NIGL9lsr47-hAF9NqM__w4E-ijKfvljofHNJ1ndMIv4OFTsifrGhmjtR91XKeFycgpm_wl0hiBtBaS3XzlC6XyInIFpBqmNzlG8cwNsbaqxNo0SuLp8wT9WCzAtuSm-TZ72kIgIzVuQynl9QlFpg1mjyIhK5ViMLrMjZGMiyd00Bh7Sobutn-06XSBfZg9saFDJYAdqQPdvshsxJe4Yv5ZHQriMJSNQZv9_qgMuBYHorp0fDEMqH3LztDmh5cwGJIfn0Wmp1NEEWasztabTxcSgBPCquohO5hFEibFUDVmETm2K6k-GsXgRuUKk2zymgHW_HlWlMmyWASyIRmbhGDzieS9mvYRW9qwB05EDp6Ij0jUSsCfi8sr1-K_O8Pb0hRKFE5wHObIm4pjZFJqrDJJcSR6UO4GNfWWgN29fHnjFVNsbTwz0KJU60XtDmoFNPqiA_qKDg9Gc3PCeRtYfBCsTWtX6xo8jS_tgMmgNOW5I4JHSaDhpnclX6RJaTeMX8LEkGI0DF72idHiarKW8oNH5PmohollT0kKf5yh28POc_B77ap8oC_C-sgIv8LgwYnowKeiAsALQBOP7DAFiWMnMotMpFDwCZkY9mNDWn8zSuSL7IiDih3SNvzlFSgk0v5q2NmWNdpYgMRtwljmJolzFl6HCqjIR7Mr5oLEyoADbRbPZsSqb76kjsynpoaUogf5VCzoBI0BdtXsStDiFUve4KIImAO84iUNGHQf51xHbEFNmhm2X_YhhfrwN2g6hC2PtSXtIN0Nh2Mr3uU3a1Ikkt4LEiK8-I1eEi-voRqPjvXGt3iSh9DtX0lGGOrgIKhPk9ts-xk5lBUn1sSgpsnR7b4CF0nSRxLIGnldeOtJyERf-7Dq_3cQNZpDBnv6juy3M-UXZTFpQkcs-JtoZipDr68amEa8x_e6BqmEkQuV7QMLT0jAOGkNa8NBewFZOsFNKBEsJb4nEUOipE_pw6058GN4kI1TbtcNK7ImvvZRh0X5lqHX8xMnuqZydHsRkOSchtU7aJNnH0lIwAFT9mtxivG4FfDKcRzaj84NneRcU8LDCl9O1QwEyDSu-wnGK61gMx9mulUSNHdRdhaCdCJkjqWwmL5y7xXXAPMaSCWc_qV]--></g></svg>