<svg xmlns="http://www.w3.org/2000/svg" xmlns:xlink="http://www.w3.org/1999/xlink" contentStyleType="text/css" height="521px" preserveAspectRatio="none" style="width:1124px;height:521px;background:#FFFFFF;" version="1.1" viewBox="0 0 1124 521" width="1124px" zoomAndPan="magnify"><title>&#36130;&#20135;&#29359;&#32618; - &#26082;&#36930;</title><defs/><g><text fill="#000000" font-family="sans-serif" font-size="14" font-weight="bold" lengthAdjust="spacing" textLength="99.0664" x="511.3149" y="34.5332">&#36130;&#20135;&#29359;&#32618; - &#26082;&#36930;</text><rect fill="#F1F1F1" height="37.6094" rx="12.5" ry="12.5" style="stroke:#181818;stroke-width:1.5;" width="178.6963" x="10" y="260.2422"/><text fill="#000000" font-family="sans-serif" font-size="14" lengthAdjust="spacing" textLength="158.6963" x="20" y="284.7754">&#36130;&#20135;&#29359;&#32618;&#30340;&#26082;&#36930;&#65288;P280&#65289;</text><rect fill="#F1F1F1" height="37.6094" rx="12.5" ry="12.5" style="stroke:#181818;stroke-width:1.5;" width="48" x="238.6963" y="87.4141"/><text fill="#000000" font-family="sans-serif" font-size="14" lengthAdjust="spacing" textLength="28" x="248.6963" y="111.9473">&#23398;&#35828;</text><rect fill="#F1F1F1" height="37.6094" rx="12.5" ry="12.5" style="stroke:#181818;stroke-width:1.5;" width="62" x="336.6963" y="58.6094"/><text fill="#000000" font-family="sans-serif" font-size="14" lengthAdjust="spacing" textLength="42" x="346.6963" y="83.1426">&#22833;&#25511;&#35828;</text><path d="M286.6963,106.2188 L296.6963,106.2188 C311.6963,106.2188 311.6963,77.4141 326.6963,77.4141 L336.6963,77.4141 " fill="none" style="stroke:#181818;stroke-width:1;"/><rect fill="#90EE90" height="37.6094" rx="12.5" ry="12.5" style="stroke:#181818;stroke-width:1.5;" width="93.8896" x="336.6963" y="116.2188"/><text fill="#000000" font-family="sans-serif" font-size="14" lengthAdjust="spacing" textLength="70" x="346.6963" y="140.752">&#21462;&#24471;&#25511;&#21046;&#35828;</text><path d="M286.6963,106.2188 L296.6963,106.2188 C311.6963,106.2188 311.6963,135.0234 326.6963,135.0234 L336.6963,135.0234 " fill="none" style="stroke:#181818;stroke-width:1;"/><path d="M188.6963,279.0469 L198.6963,279.0469 C213.6963,279.0469 213.6963,106.2188 228.6963,106.2188 L238.6963,106.2188 " fill="none" style="stroke:#181818;stroke-width:1;"/><rect fill="#F1F1F1" height="37.6094" rx="12.5" ry="12.5" style="stroke:#181818;stroke-width:1.5;" width="76" x="238.6963" y="202.6328"/><text fill="#000000" font-family="sans-serif" font-size="14" lengthAdjust="spacing" textLength="56" x="248.6963" y="227.166">&#26082;&#36930;&#26631;&#20934;</text><rect fill="#F1F1F1" height="37.6094" rx="12.5" ry="12.5" style="stroke:#181818;stroke-width:1.5;" width="104" x="364.6963" y="202.6328"/><text fill="#000000" font-family="sans-serif" font-size="14" lengthAdjust="spacing" textLength="84" x="374.6963" y="227.166">&#21462;&#24471;&#25511;&#21046;&#36130;&#29289;</text><rect fill="#F1F1F1" height="37.6094" rx="12.5" ry="12.5" style="stroke:#181818;stroke-width:1.5;" width="48" x="518.6963" y="202.6328"/><text fill="#000000" font-family="sans-serif" font-size="14" lengthAdjust="spacing" textLength="28" x="528.6963" y="227.166">&#35299;&#37322;</text><rect fill="#F1F1F1" height="37.6094" rx="12.5" ry="12.5" style="stroke:#181818;stroke-width:1.5;" width="76" x="616.6963" y="202.6328"/><text fill="#000000" font-family="sans-serif" font-size="14" lengthAdjust="spacing" textLength="56" x="626.6963" y="227.166">&#21462;&#24471;&#25511;&#21046;</text><rect fill="#F1F1F1" height="37.6094" rx="12.5" ry="12.5" style="stroke:#181818;stroke-width:1.5;" width="48" x="742.6963" y="173.8281"/><text fill="#000000" font-family="sans-serif" font-size="14" lengthAdjust="spacing" textLength="28" x="752.6963" y="198.3613">&#31215;&#26497;</text><rect fill="#F1F1F1" height="37.6094" rx="12.5" ry="12.5" style="stroke:#181818;stroke-width:1.5;" width="272" x="840.6963" y="173.8281"/><text fill="#000000" font-family="sans-serif" font-size="14" lengthAdjust="spacing" textLength="252" x="850.6963" y="198.3613">&#34892;&#20026;&#20154;&#23558;&#36130;&#29289;&#32622;&#20110;&#33258;&#24049;&#23454;&#38469;&#25511;&#21046;&#33539;&#22260;&#20043;&#20869;</text><path d="M790.6963,192.6328 L800.6963,192.6328 C815.6963,192.6328 815.6963,192.6328 830.6963,192.6328 L840.6963,192.6328 " fill="none" style="stroke:#181818;stroke-width:1;"/><path d="M692.6963,221.4375 L702.6963,221.4375 C717.6963,221.4375 717.6963,192.6328 732.6963,192.6328 L742.6963,192.6328 " fill="none" style="stroke:#181818;stroke-width:1;"/><rect fill="#F1F1F1" height="37.6094" rx="12.5" ry="12.5" style="stroke:#181818;stroke-width:1.5;" width="48" x="742.6963" y="231.4375"/><text fill="#000000" font-family="sans-serif" font-size="14" lengthAdjust="spacing" textLength="28" x="752.6963" y="255.9707">&#28040;&#26497;</text><rect fill="#F1F1F1" height="37.6094" rx="12.5" ry="12.5" style="stroke:#181818;stroke-width:1.5;" width="174" x="840.6963" y="231.4375"/><text fill="#000000" font-family="sans-serif" font-size="14" lengthAdjust="spacing" textLength="154" x="850.6963" y="255.9707">&#25490;&#38500;&#20102;&#20182;&#20154;&#25903;&#37197;&#30340;&#21487;&#33021;&#24615;</text><path d="M790.6963,250.2422 L800.6963,250.2422 C815.6963,250.2422 815.6963,250.2422 830.6963,250.2422 L840.6963,250.2422 " fill="none" style="stroke:#181818;stroke-width:1;"/><path d="M692.6963,221.4375 L702.6963,221.4375 C717.6963,221.4375 717.6963,250.2422 732.6963,250.2422 L742.6963,250.2422 " fill="none" style="stroke:#181818;stroke-width:1;"/><path d="M566.6963,221.4375 L576.6963,221.4375 C591.6963,221.4375 591.6963,221.4375 606.6963,221.4375 L616.6963,221.4375 " fill="none" style="stroke:#181818;stroke-width:1;"/><path d="M468.6963,221.4375 L478.6963,221.4375 C493.6963,221.4375 493.6963,221.4375 508.6963,221.4375 L518.6963,221.4375 " fill="none" style="stroke:#181818;stroke-width:1;"/><path d="M314.6963,221.4375 L324.6963,221.4375 C339.6963,221.4375 339.6963,221.4375 354.6963,221.4375 L364.6963,221.4375 " fill="none" style="stroke:#181818;stroke-width:1;"/><path d="M188.6963,279.0469 L198.6963,279.0469 C213.6963,279.0469 213.6963,221.4375 228.6963,221.4375 L238.6963,221.4375 " fill="none" style="stroke:#181818;stroke-width:1;"/><rect fill="#F1F1F1" height="37.6094" rx="12.5" ry="12.5" style="stroke:#181818;stroke-width:1.5;" width="76" x="238.6963" y="375.4609"/><text fill="#000000" font-family="sans-serif" font-size="14" lengthAdjust="spacing" textLength="56" x="248.6963" y="399.9941">&#20855;&#20307;&#20998;&#26512;</text><rect fill="#F1F1F1" height="37.6094" rx="12.5" ry="12.5" style="stroke:#181818;stroke-width:1.5;" width="76" x="364.6963" y="289.0469"/><text fill="#000000" font-family="sans-serif" font-size="14" lengthAdjust="spacing" textLength="56" x="374.6963" y="313.5801">&#23567;&#20214;&#36130;&#29289;</text><path d="M314.6963,394.2656 L324.6963,394.2656 C339.6963,394.2656 339.6963,307.8516 354.6963,307.8516 L364.6963,307.8516 " fill="none" style="stroke:#181818;stroke-width:1;"/><rect fill="#F1F1F1" height="37.6094" rx="12.5" ry="12.5" style="stroke:#181818;stroke-width:1.5;" width="76" x="364.6963" y="346.6563"/><text fill="#000000" font-family="sans-serif" font-size="14" lengthAdjust="spacing" textLength="56" x="374.6963" y="371.1895">&#22823;&#20214;&#36130;&#29289;</text><path d="M314.6963,394.2656 L324.6963,394.2656 C339.6963,394.2656 339.6963,365.4609 354.6963,365.4609 L364.6963,365.4609 " fill="none" style="stroke:#181818;stroke-width:1;"/><rect fill="#F1F1F1" height="37.6094" rx="12.5" ry="12.5" style="stroke:#181818;stroke-width:1.5;" width="48" x="364.6963" y="433.0703"/><text fill="#000000" font-family="sans-serif" font-size="14" lengthAdjust="spacing" textLength="28" x="374.6963" y="457.6035">&#31354;&#38388;</text><rect fill="#F1F1F1" height="37.6094" rx="12.5" ry="12.5" style="stroke:#181818;stroke-width:1.5;" width="76" x="462.6963" y="404.2656"/><text fill="#000000" font-family="sans-serif" font-size="14" lengthAdjust="spacing" textLength="56" x="472.6963" y="428.7988">&#32039;&#23494;&#21344;&#26377;</text><path d="M412.6963,451.875 L422.6963,451.875 C437.6963,451.875 437.6963,423.0703 452.6963,423.0703 L462.6963,423.0703 " fill="none" style="stroke:#181818;stroke-width:1;"/><rect fill="#F1F1F1" height="37.6094" rx="12.5" ry="12.5" style="stroke:#181818;stroke-width:1.5;" width="76" x="462.6963" y="461.875"/><text fill="#000000" font-family="sans-serif" font-size="14" lengthAdjust="spacing" textLength="56" x="472.6963" y="486.4082">&#26494;&#24347;&#21344;&#26377;</text><rect fill="#F1F1F1" height="37.6094" rx="12.5" ry="12.5" style="stroke:#181818;stroke-width:1.5;" width="76" x="588.6963" y="461.875"/><text fill="#000000" font-family="sans-serif" font-size="14" lengthAdjust="spacing" textLength="56" x="598.6963" y="486.4082">&#38544;&#34109;&#22320;&#28857;</text><path d="M538.6963,480.6797 L548.6963,480.6797 C563.6963,480.6797 563.6963,480.6797 578.6963,480.6797 L588.6963,480.6797 " fill="none" style="stroke:#181818;stroke-width:1;"/><path d="M412.6963,451.875 L422.6963,451.875 C437.6963,451.875 437.6963,480.6797 452.6963,480.6797 L462.6963,480.6797 " fill="none" style="stroke:#181818;stroke-width:1;"/><path d="M314.6963,394.2656 L324.6963,394.2656 C339.6963,394.2656 339.6963,451.875 354.6963,451.875 L364.6963,451.875 " fill="none" style="stroke:#181818;stroke-width:1;"/><path d="M188.6963,279.0469 L198.6963,279.0469 C213.6963,279.0469 213.6963,394.2656 228.6963,394.2656 L238.6963,394.2656 " fill="none" style="stroke:#181818;stroke-width:1;"/><!--SRC=[xLTRRnD757xVNp5LNn8aEqvgHL4KHS4cKOjY5DM6z_7kO0_PdR5cPurSXCIbSH8A2MeH4PT6D20ia8g3P44nCR_6kxQV-0kTlILh9-lTllG9AxAyvtppdPbppdTciwHpoBY6YQB1YYHzXuci6We2oUIK-wVpcegcAYeatD3KX8rC26Z2iIUni4aInrn5eDywwBORlNlDNkSjI01hxs1m-uuadHjoz9x-wZg-7csjpSoblXvjIq1ypW7pxzVzPijvy0oltbixZH7RxcFpovumcriVX0SiB22jKeOwrXSNFHwNtdgnQMxMmrQs3dhRRuwTBg3VU3dOl3TaFBtobDk5z1fDQ__scKwF_A_xtN_QtNRRFAoxqNkTTztsJd_phVdnlVbkV_1amzlR_RlcirRtqszcVICaclLXQtmqQ-VtmPDNtNQz-_cnY6azQWus7eZCcxlD_jsETQlXftpZOxVpXxbLj_OV1bDrkDlzF9eaknwDiyozD-t1NciacRrMmspMpGSlhEVR8oxhpo_cqRCpNAvxyFHX_r77V7xOk_D9afQGQ4o_EPU6UtN1QS55oJDSmB34e0Pk2D9aKJMGymk039JNIumQHCbIbJAWubAPstxXlMbZ5SZM6L92u9xN1vSOGcGSimC8e6iHu9gFfGoIKjYcNQSFhHYieeP1NQSF3JzOu52Cwc5itw-iP3BPh8-i8LMbrqEmhjE1IaaDOb8e8yqdNg64v_4l2FoGaco_hzleN0RHgH2ulbvpIXh4pepFPH2Q4IQvBBelrcPmYL26OjGLW5LCqAZzX29csB5KDXaXL4Q4X-M6E4LnI-2QYgh0ZB0AyNXx8roGOKgWccNuk80dI4uroEcPs3M6Af11s_9VbfqlKiQZkYek5-UYh3nAI37PibGJQk9XrVPMXj7PrI6e90ecI8F973UKeWgb85G9zljmW6Kn98igrilX4osmVZZQzJBcexa92NE9ykX8pgda6YGnJYL31V7ZO52MiHBUqaEJDehvgb2Q7f2lU9PH3bv3HeI8gIgsmAWIwC082Vahd3WLgcEEg-Yy7933gMaDLHJt82T74BM0aTGQ5XUaFThZz9Htozdakb6yXcIRFYmxi2gkPSHYybOn5Gfog6aKivttsEa-6UJ3mXslrQ5UZhmY9F6rCEMzQNnxqVtselj_lEYksVzjNSwjWYfYkYtmwUHCQYQTd9l8GmukqIgOdWMfwVbqUZuz2xBv0h3Taz94xgS2qAaXvXjGXFePBXgs92QbYx0AmS-648Y6ve7zD578JOByicy4owIA6IMQ48LqyKhE1O4VASzNA7V0i-b41dEGHqni2rp9IHVGLMYeN2oLgO99QHvSBgmavgHL8Hu3baGWCQwoGbMSrOGl_oy0]--></g></svg>