<svg xmlns="http://www.w3.org/2000/svg" xmlns:xlink="http://www.w3.org/1999/xlink" contentStyleType="text/css" height="935px" preserveAspectRatio="none" style="width:1074px;height:935px;background:#FFFFFF;" version="1.1" viewBox="0 0 1074 935" width="1074px" zoomAndPan="magnify"><title>&#24378;&#21046;&#29477;&#20149;&#20398;&#36785;&#32618;</title><defs/><g><text fill="#000000" font-family="sans-serif" font-size="14" font-weight="bold" lengthAdjust="spacing" textLength="101.0625" x="485.4136" y="34.5332">&#24378;&#21046;&#29477;&#20149;&#20398;&#36785;&#32618;</text><rect fill="#F1F1F1" height="37.6094" rx="12.5" ry="12.5" style="stroke:#181818;stroke-width:1.5;" width="118" x="10" y="467.0156"/><text fill="#000000" font-family="sans-serif" font-size="14" lengthAdjust="spacing" textLength="98" x="20" y="491.5488">&#24378;&#21046;&#29477;&#20149;&#20398;&#36785;&#32618;</text><rect fill="#F1F1F1" height="37.6094" rx="12.5" ry="12.5" style="stroke:#181818;stroke-width:1.5;" width="48" x="178" y="58.6094"/><text fill="#000000" font-family="sans-serif" font-size="14" lengthAdjust="spacing" textLength="28" x="188" y="83.1426">&#27861;&#30410;</text><rect fill="#F1F1F1" height="37.6094" rx="12.5" ry="12.5" style="stroke:#181818;stroke-width:1.5;" width="118" x="276" y="58.6094"/><text fill="#000000" font-family="sans-serif" font-size="14" lengthAdjust="spacing" textLength="98" x="286" y="83.1426">&#20182;&#20154;&#30340;&#24615;&#33258;&#20027;&#26435;</text><rect fill="#F1F1F1" height="37.6094" rx="12.5" ry="12.5" style="stroke:#181818;stroke-width:1.5;" width="76" x="444" y="58.6094"/><text fill="#000000" font-family="sans-serif" font-size="14" lengthAdjust="spacing" textLength="56" x="454" y="83.1426">&#24615;&#32670;&#32827;&#24515;</text><path d="M394,77.4141 L404,77.4141 C419,77.4141 419,77.4141 434,77.4141 L444,77.4141 " fill="none" style="stroke:#181818;stroke-width:1;"/><path d="M226,77.4141 L236,77.4141 C251,77.4141 251,77.4141 266,77.4141 L276,77.4141 " fill="none" style="stroke:#181818;stroke-width:1;"/><path d="M128,485.8203 L138,485.8203 C153,485.8203 153,77.4141 168,77.4141 L178,77.4141 " fill="none" style="stroke:#181818;stroke-width:1;"/><rect fill="#F1F1F1" height="37.6094" rx="12.5" ry="12.5" style="stroke:#181818;stroke-width:1.5;" width="76" x="178" y="438.2109"/><text fill="#000000" font-family="sans-serif" font-size="14" lengthAdjust="spacing" textLength="56" x="188" y="462.7441">&#26500;&#25104;&#35201;&#20214;</text><rect fill="#F1F1F1" height="37.6094" rx="12.5" ry="12.5" style="stroke:#181818;stroke-width:1.5;" width="76" x="304" y="116.2188"/><text fill="#000000" font-family="sans-serif" font-size="14" lengthAdjust="spacing" textLength="56" x="314" y="140.752">&#34892;&#20026;&#20027;&#20307;</text><rect fill="#F1F1F1" height="37.6094" rx="12.5" ry="12.5" style="stroke:#181818;stroke-width:1.5;" width="147.5723" x="430" y="116.2188"/><text fill="#000000" font-family="sans-serif" font-size="14" lengthAdjust="spacing" textLength="127.5723" x="440" y="140.752">&#24050;&#28385;16&#21608;&#23681;&#30340;&#33258;&#28982;&#20154;</text><path d="M380,135.0234 L390,135.0234 C405,135.0234 405,135.0234 420,135.0234 L430,135.0234 " fill="none" style="stroke:#181818;stroke-width:1;"/><path d="M254,457.0156 L264,457.0156 C279,457.0156 279,135.0234 294,135.0234 L304,135.0234 " fill="none" style="stroke:#181818;stroke-width:1;"/><rect fill="#F1F1F1" height="37.6094" rx="12.5" ry="12.5" style="stroke:#181818;stroke-width:1.5;" width="76" x="304" y="231.4375"/><text fill="#000000" font-family="sans-serif" font-size="14" lengthAdjust="spacing" textLength="56" x="314" y="255.9707">&#34892;&#20026;&#23545;&#35937;</text><rect fill="#F1F1F1" height="37.6094" rx="12.5" ry="12.5" style="stroke:#181818;stroke-width:1.5;" width="147.5723" x="430" y="202.6328"/><text fill="#000000" font-family="sans-serif" font-size="14" lengthAdjust="spacing" textLength="127.5723" x="440" y="227.166">&#24050;&#28385;14&#21608;&#23681;&#30340;&#33258;&#28982;&#20154;</text><rect fill="#F1F1F1" height="37.6094" rx="12.5" ry="12.5" style="stroke:#181818;stroke-width:1.5;" width="48" x="627.5723" y="173.8281"/><text fill="#000000" font-family="sans-serif" font-size="14" lengthAdjust="spacing" textLength="28" x="637.5723" y="198.3613">&#22899;&#24615;</text><path d="M577.5723,221.4375 L587.5723,221.4375 C602.5723,221.4375 602.5723,192.6328 617.5723,192.6328 L627.5723,192.6328 " fill="none" style="stroke:#181818;stroke-width:1;"/><rect fill="#90EE90" height="37.6094" rx="12.5" ry="12.5" style="stroke:#181818;stroke-width:1.5;" width="51.8896" x="627.5723" y="231.4375"/><text fill="#000000" font-family="sans-serif" font-size="14" lengthAdjust="spacing" textLength="28" x="637.5723" y="255.9707">&#30007;&#24615;</text><path d="M577.5723,221.4375 L587.5723,221.4375 C602.5723,221.4375 602.5723,250.2422 617.5723,250.2422 L627.5723,250.2422 " fill="none" style="stroke:#181818;stroke-width:1;"/><path d="M380,250.2422 L390,250.2422 C405,250.2422 405,221.4375 420,221.4375 L430,221.4375 " fill="none" style="stroke:#181818;stroke-width:1;"/><rect fill="#F1F1F1" height="37.6094" rx="12.5" ry="12.5" style="stroke:#181818;stroke-width:1.5;" width="133.5723" x="430" y="289.0469"/><text fill="#000000" font-family="sans-serif" font-size="14" lengthAdjust="spacing" textLength="113.5723" x="440" y="313.5801">&#19981;&#28385;14&#21608;&#23681;&#30340;&#20799;&#31461;</text><rect fill="#FFA500" height="37.6094" rx="12.5" ry="12.5" style="stroke:#181818;stroke-width:1.5;" width="93.8896" x="613.5723" y="289.0469"/><text fill="#000000" font-family="sans-serif" font-size="14" lengthAdjust="spacing" textLength="70" x="623.5723" y="313.5801">&#29477;&#20149;&#20799;&#31461;&#32618;</text><path d="M563.5723,307.8516 L573.5723,307.8516 C588.5723,307.8516 588.5723,307.8516 603.5723,307.8516 L613.5723,307.8516 " fill="none" style="stroke:#181818;stroke-width:1;"/><path d="M380,250.2422 L390,250.2422 C405,250.2422 405,307.8516 420,307.8516 L430,307.8516 " fill="none" style="stroke:#181818;stroke-width:1;"/><path d="M254,457.0156 L264,457.0156 C279,457.0156 279,250.2422 294,250.2422 L304,250.2422 " fill="none" style="stroke:#181818;stroke-width:1;"/><rect fill="#F1F1F1" height="37.6094" rx="12.5" ry="12.5" style="stroke:#181818;stroke-width:1.5;" width="76" x="304" y="553.4297"/><text fill="#000000" font-family="sans-serif" font-size="14" lengthAdjust="spacing" textLength="56" x="314" y="577.9629">&#34892;&#20026;&#26041;&#24335;</text><rect fill="#F1F1F1" height="37.6094" rx="12.5" ry="12.5" style="stroke:#181818;stroke-width:1.5;" width="76" x="430" y="346.6563"/><text fill="#000000" font-family="sans-serif" font-size="14" lengthAdjust="spacing" textLength="56" x="440" y="371.1895">&#24378;&#21046;&#26041;&#27861;</text><rect fill="#F1F1F1" height="37.6094" rx="12.5" ry="12.5" style="stroke:#181818;stroke-width:1.5;" width="48" x="556" y="346.6563"/><text fill="#000000" font-family="sans-serif" font-size="14" lengthAdjust="spacing" textLength="28" x="566" y="371.1895">&#29305;&#28857;</text><rect fill="#F1F1F1" height="37.6094" rx="12.5" ry="12.5" style="stroke:#181818;stroke-width:1.5;" width="244" x="654" y="346.6563"/><text fill="#000000" font-family="sans-serif" font-size="14" lengthAdjust="spacing" textLength="224" x="664" y="371.1895">&#20351;&#20154;&#19981;&#33021;&#21453;&#25239;&#12289;&#19981;&#25954;&#21453;&#25239;&#12289;&#19981;&#30693;&#21453;&#25239;</text><path d="M604,365.4609 L614,365.4609 C629,365.4609 629,365.4609 644,365.4609 L654,365.4609 " fill="none" style="stroke:#181818;stroke-width:1;"/><path d="M506,365.4609 L516,365.4609 C531,365.4609 531,365.4609 546,365.4609 L556,365.4609 " fill="none" style="stroke:#181818;stroke-width:1;"/><path d="M380,572.2344 L390,572.2344 C405,572.2344 405,365.4609 420,365.4609 L430,365.4609 " fill="none" style="stroke:#181818;stroke-width:1;"/><rect fill="#F1F1F1" height="37.6094" rx="12.5" ry="12.5" style="stroke:#181818;stroke-width:1.5;" width="104" x="430" y="582.2344"/><text fill="#000000" font-family="sans-serif" font-size="14" lengthAdjust="spacing" textLength="84" x="440" y="606.7676">&#20405;&#29359;&#24615;&#32670;&#32827;&#24515;</text><rect fill="#F1F1F1" height="37.6094" rx="12.5" ry="12.5" style="stroke:#181818;stroke-width:1.5;" width="48" x="584" y="553.4297"/><text fill="#000000" font-family="sans-serif" font-size="14" lengthAdjust="spacing" textLength="28" x="594" y="577.9629">&#29477;&#20149;</text><rect fill="#F1F1F1" height="37.6094" rx="12.5" ry="12.5" style="stroke:#181818;stroke-width:1.5;" width="174" x="682" y="404.2656"/><text fill="#000000" font-family="sans-serif" font-size="14" lengthAdjust="spacing" textLength="154" x="692" y="428.7988">&#30452;&#25509;&#23545;&#20182;&#20154;&#23454;&#26045;&#29477;&#20149;&#34892;&#20026;</text><path d="M632,572.2344 L642,572.2344 C657,572.2344 657,423.0703 672,423.0703 L682,423.0703 " fill="none" style="stroke:#181818;stroke-width:1;"/><rect fill="#F1F1F1" height="37.6094" rx="12.5" ry="12.5" style="stroke:#181818;stroke-width:1.5;" width="76" x="682" y="519.4844"/><text fill="#000000" font-family="sans-serif" font-size="14" lengthAdjust="spacing" textLength="56" x="692" y="544.0176">&#24378;&#36843;&#20182;&#20154;</text><rect fill="#F1F1F1" height="37.6094" rx="12.5" ry="12.5" style="stroke:#181818;stroke-width:1.5;" width="76" x="808" y="461.875"/><text fill="#000000" font-family="sans-serif" font-size="14" lengthAdjust="spacing" textLength="56" x="818" y="486.4082">&#33258;&#34892;&#29477;&#20149;</text><path d="M758,538.2891 L768,538.2891 C783,538.2891 783,480.6797 798,480.6797 L808,480.6797 " fill="none" style="stroke:#181818;stroke-width:1;"/><rect fill="#F1F1F1" height="37.6094" rx="12.5" ry="12.5" style="stroke:#181818;stroke-width:1.5;" width="216" x="808" y="519.4844"/><text fill="#000000" font-family="sans-serif" font-size="14" lengthAdjust="spacing" textLength="196" x="818" y="544.0176">&#23545;&#34892;&#20026;&#20154;&#33258;&#24049;&#25110;&#31532;&#19977;&#20154;&#23454;&#26045;&#29477;&#20149;</text><path d="M758,538.2891 L768,538.2891 C783,538.2891 783,538.2891 798,538.2891 L808,538.2891 " fill="none" style="stroke:#181818;stroke-width:1;"/><rect fill="#F1F1F1" height="37.6094" rx="12.5" ry="12.5" style="stroke:#181818;stroke-width:1.5;" width="118" x="808" y="577.0938"/><text fill="#000000" font-family="sans-serif" font-size="14" lengthAdjust="spacing" textLength="98" x="818" y="601.627">&#35266;&#30475;&#20854;&#20182;&#20154;&#29477;&#20149;</text><path d="M758,538.2891 L768,538.2891 C783,538.2891 783,595.8984 798,595.8984 L808,595.8984 " fill="none" style="stroke:#181818;stroke-width:1;"/><path d="M632,572.2344 L642,572.2344 C657,572.2344 657,538.2891 672,538.2891 L682,538.2891 " fill="none" style="stroke:#181818;stroke-width:1;"/><rect fill="#F1F1F1" height="37.6094" rx="12.5" ry="12.5" style="stroke:#181818;stroke-width:1.5;" width="48" x="682" y="668.6484"/><text fill="#000000" font-family="sans-serif" font-size="14" lengthAdjust="spacing" textLength="28" x="692" y="693.1816">&#25490;&#38500;</text><rect fill="#F1F1F1" height="42.75" rx="12.5" ry="12.5" style="stroke:#181818;stroke-width:1.5;" width="170.8896" x="780" y="634.7031"/><text fill="#000000" font-family="sans-serif" font-size="14" lengthAdjust="spacing" textLength="126" x="790" y="664.377">&#20599;&#30475;&#20182;&#20154;&#27927;&#28577;&#12289;&#20570;&#29233;</text><path d="M932.8618,655.2055 L938.6269,649.4404 C939.3106,648.7573 939.3106,647.649 938.6269,646.9653 C937.9432,646.2822 936.8361,646.2822 936.1524,646.9653 L930.3873,652.7304 L924.6222,646.9659 C923.9391,646.2822 922.8308,646.2822 922.1471,646.9659 C921.4641,647.649 921.4641,648.7573 922.1471,649.441 L927.9122,655.2055 L922.1331,660.9845 C921.4501,661.6676 921.4501,662.776 922.1331,663.459 C922.4744,663.8009 922.923,663.9718 923.3704,663.9718 C923.8178,663.9718 924.2664,663.8009 924.6082,663.459 L930.3867,657.6805 L936.1512,663.445 C936.4931,663.7869 936.9411,663.9578 937.3885,663.9578 C937.8359,663.9578 938.2839,663.7869 938.6257,663.445 C939.3094,662.762 939.3094,661.6536 938.6257,660.9705 L932.8618,655.2055 " fill="#FE0000" style="stroke:;stroke-width:0;stroke-dasharray:;"/><path d="M730,687.4531 L740,687.4531 C755,687.4531 755,656.0781 770,656.0781 L780,656.0781 " fill="none" style="stroke:#181818;stroke-width:1;"/><rect fill="#F1F1F1" height="42.75" rx="12.5" ry="12.5" style="stroke:#181818;stroke-width:1.5;" width="282.8896" x="780" y="697.4531"/><text fill="#000000" font-family="sans-serif" font-size="14" lengthAdjust="spacing" textLength="238" x="790" y="727.127">&#20844;&#20849;&#22330;&#25152;&#38706;&#38452;&#12289;&#25163;&#28139;&#20294;&#19981;&#24378;&#36843;&#20182;&#20154;&#35266;&#30475;</text><path d="M1044.8618,717.9555 L1050.6269,712.1904 C1051.3106,711.5073 1051.3106,710.399 1050.6269,709.7153 C1049.9432,709.0322 1048.8361,709.0322 1048.1524,709.7153 L1042.3873,715.4804 L1036.6222,709.7159 C1035.9391,709.0322 1034.8308,709.0322 1034.1471,709.7159 C1033.4641,710.399 1033.4641,711.5073 1034.1471,712.191 L1039.9122,717.9555 L1034.1331,723.7345 C1033.4501,724.4176 1033.4501,725.526 1034.1331,726.209 C1034.4744,726.5509 1034.923,726.7218 1035.3704,726.7218 C1035.8178,726.7218 1036.2664,726.5509 1036.6082,726.209 L1042.3867,720.4305 L1048.1512,726.195 C1048.4931,726.5369 1048.9411,726.7078 1049.3885,726.7078 C1049.8359,726.7078 1050.2839,726.5369 1050.6257,726.195 C1051.3094,725.512 1051.3094,724.4036 1050.6257,723.7205 L1044.8618,717.9555 " fill="#FE0000" style="stroke:;stroke-width:0;stroke-dasharray:;"/><path d="M730,687.4531 L740,687.4531 C755,687.4531 755,718.8281 770,718.8281 L780,718.8281 " fill="none" style="stroke:#181818;stroke-width:1;"/><path d="M632,572.2344 L642,572.2344 C657,572.2344 657,687.4531 672,687.4531 L682,687.4531 " fill="none" style="stroke:#181818;stroke-width:1;"/><path d="M534,601.0391 L544,601.0391 C559,601.0391 559,572.2344 574,572.2344 L584,572.2344 " fill="none" style="stroke:#181818;stroke-width:1;"/><rect fill="#F1F1F1" height="37.6094" rx="12.5" ry="12.5" style="stroke:#181818;stroke-width:1.5;" width="48" x="584" y="760.2031"/><text fill="#000000" font-family="sans-serif" font-size="14" lengthAdjust="spacing" textLength="28" x="594" y="784.7363">&#20398;&#36785;</text><rect fill="#F1F1F1" height="37.6094" rx="12.5" ry="12.5" style="stroke:#181818;stroke-width:1.5;" width="104" x="682" y="760.2031"/><text fill="#000000" font-family="sans-serif" font-size="14" lengthAdjust="spacing" textLength="84" x="692" y="784.7363">&#20405;&#29359;&#24615;&#32670;&#32827;&#24515;</text><path d="M632,779.0078 L642,779.0078 C657,779.0078 657,779.0078 672,779.0078 L682,779.0078 " fill="none" style="stroke:#181818;stroke-width:1;"/><path d="M534,601.0391 L544,601.0391 C559,601.0391 559,779.0078 574,779.0078 L584,779.0078 " fill="none" style="stroke:#181818;stroke-width:1;"/><path d="M380,572.2344 L390,572.2344 C405,572.2344 405,601.0391 420,601.0391 L430,601.0391 " fill="none" style="stroke:#181818;stroke-width:1;"/><path d="M254,457.0156 L264,457.0156 C279,457.0156 279,572.2344 294,572.2344 L304,572.2344 " fill="none" style="stroke:#181818;stroke-width:1;"/><path d="M128,485.8203 L138,485.8203 C153,485.8203 153,457.0156 168,457.0156 L178,457.0156 " fill="none" style="stroke:#181818;stroke-width:1;"/><rect fill="#F1F1F1" height="37.6094" rx="12.5" ry="12.5" style="stroke:#181818;stroke-width:1.5;" width="76" x="178" y="846.6172"/><text fill="#000000" font-family="sans-serif" font-size="14" lengthAdjust="spacing" textLength="56" x="188" y="871.1504">&#29305;&#27530;&#24773;&#26223;</text><rect fill="#F1F1F1" height="37.6094" rx="12.5" ry="12.5" style="stroke:#181818;stroke-width:1.5;" width="90" x="304" y="846.6172"/><text fill="#000000" font-family="sans-serif" font-size="14" lengthAdjust="spacing" textLength="70" x="314" y="871.1504">&#24378;&#36843;&#21457;&#35064;&#29031;</text><rect fill="#F1F1F1" height="37.6094" rx="12.5" ry="12.5" style="stroke:#181818;stroke-width:1.5;" width="174" x="444" y="817.8125"/><text fill="#000000" font-family="sans-serif" font-size="14" lengthAdjust="spacing" textLength="154" x="454" y="842.3457">&#33509;&#26159;&#25104;&#24180;&#20154;&#65292;&#19981;&#26500;&#25104;&#26412;&#32618;</text><path d="M394,865.4219 L404,865.4219 C419,865.4219 419,836.6172 434,836.6172 L444,836.6172 " fill="none" style="stroke:#181818;stroke-width:1;"/><rect fill="#F1F1F1" height="37.6094" rx="12.5" ry="12.5" style="stroke:#181818;stroke-width:1.5;" width="247.1445" x="444" y="875.4219"/><text fill="#000000" font-family="sans-serif" font-size="14" lengthAdjust="spacing" textLength="227.1445" x="454" y="899.9551">&#33509;&#26159;&#24180;&#28385;14&#23681;&#26410;&#28385;18&#23681;&#65292;&#21017;&#26500;&#25104;&#26412;&#32618;</text><rect fill="#90EE90" height="37.6094" rx="12.5" ry="12.5" style="stroke:#181818;stroke-width:1.5;" width="79.8896" x="741.1445" y="875.4219"/><text fill="#000000" font-family="sans-serif" font-size="14" lengthAdjust="spacing" textLength="56" x="751.1445" y="899.9551">&#21496;&#27861;&#35299;&#37322;</text><path d="M691.1445,894.2266 L701.1445,894.2266 C716.1445,894.2266 716.1445,894.2266 731.1445,894.2266 L741.1445,894.2266 " fill="none" style="stroke:#181818;stroke-width:1;"/><path d="M394,865.4219 L404,865.4219 C419,865.4219 419,894.2266 434,894.2266 L444,894.2266 " fill="none" style="stroke:#181818;stroke-width:1;"/><path d="M254,865.4219 L264,865.4219 C279,865.4219 279,865.4219 294,865.4219 L304,865.4219 " fill="none" style="stroke:#181818;stroke-width:1;"/><path d="M128,485.8203 L138,485.8203 C153,485.8203 153,865.4219 168,865.4219 L178,865.4219 " fill="none" style="stroke:#181818;stroke-width:1;"/><!--SRC=[xLXTJzjM6BxthpXJRw0IuKCHGX52b1IqLL1L2-rjTUAS9YwsJsGVfukcIQJ0-6nPjvMMbZ6nBcC2189I2870ZrbiXwlzXRt-Aaw8a_HYTo24ulC-x_D-loTcK6LOOP8W9oISvhYl19aNjGH1eL2dywkoh4WwqoAMcIQ97HQo0w0Tzdb8W3EEOm8J2TBFYlhSaRcKBnS_bSztA-VxPccBusu7213yt4R6nzVc-mNxmJaedwwKYqNptRGnkLcPtIeNJetVfZxBNQN9JVDylJ9vgbzCUJphqyRSJvM_SkNJ8nzRPMEfN2W2IRdqIms9VdnWd6vqz-gl_jOFSc0Gh9dJHs3ychw-TrBPtwYl7swWxmFdFuBJTGJchySWGFtzH4gdi2ge0mCrTig55zLszEaBSpjVZylEi2E63Fj8UtoiNb36oeb-jbmRb5qg445TwbcOFp6VdrmJk8wMBY1uSBSoLTANNnWBR_wPp5dUl_x3_sZ-ddSUQ-Cy_sGkx5qhRRqG0nmmtnyQB_DGBAU7zDrrOwNaQ3WX1-X1q9MBRKUfBiHDs-mMq3Jmm6M3Pd6whbW45VrutvXRCNTsoeNv6gSQsTfyRgujwZD7xZWq2jju-VFbwf-DFCeT0vd3P1o-CSute19wxfqvju_wRoaa4KaHdCa-bZIH2MbHu34JgFpukyX08zAP7NrcNryh6lEJbsi7bsyFWTIONpIEjykb7w7E_gmwuNofCQidh6qHr6_r6yRkKcDtmPYQCLRtkDeowyklAXyAvincJVjL5lF6sptO8Vh98NZyxzcIrRhsLZ7MTho5LOi7i3ES1pbZRSlws0SVGLcVMmrKTjrPBi2GLJO_NCukLCy_DqXW7NihUR1wG_VRYtU0Sm_k2ZYfO0bz3nP2SL4ZzYU4XZ0_aLIe9YUYLAGA4eLaYbboaFvWOHDOcO1g1C1TgGTEAeJ8ZPXjW0-TRGBEUbYgO3aPvBGZzA1fJKcBGL17w4630_C5fL0rYEtMoCZGK3Jg8RD45Ecp0AmZjA5SoAjYyrpvqLq1S7KYQvVCZ-rfd2i_T0YE-1IqMalE24cPAgI5kY4qAiYazloAeaMp3QaiCbccF95PK6vaE-a8ZL2PEKTn4J0rh30Shcyo0p9ODLYCAeBa1Ng5P5J2ZDR5Fb186YlseleIjJjngh1cNTCg5sDGLjPiK5faYr89feK5LTlL3AApgYEJ91GCIFt9RBHqcXKgGKZQt-_L1ePX2SP5GKq5RooVVhMrPoc1rUOcmCnzoffRigFYirXk8IeU9mZxR0ppl908RkcgJTgC-GbCckeRNtZcoHX-IhGcGqn5S46X2Ly7DXaXJyEsawQgm8GCkSFxnk7QDiOYQJMGgn2W5hWfjIJ01MYjxbPwoht5B79LYpybl4KVb1sSWMkNA2toPWGA4sHJqsRCLjvRJlVL8gyUtCQpMjNBJQy83lxqTxhV96vUtsvUtsvUtsvUtsvUt_wFrxS7rd_E7ewDeWnHLEjQwmxrTFM4GtrjCSpGVPf1tRsegpiI3aV2lIWQ6qUMk9rh6_jc7AbKWriT9U3EKuIuPgMwdRk7CnXzgy6r8948ifxQniVQKMpOEqJ3SaPGg2p1LS3TUpJcWD3NbCNIbDdWtd37aC1GZ2ZW5deqnjqbJp2K55HvcX3aP0Gz71_fwED6uShGS18CmIKTXRk4ALcGnVu3]--></g></svg>