<svg xmlns="http://www.w3.org/2000/svg" xmlns:xlink="http://www.w3.org/1999/xlink" contentStyleType="text/css" height="296px" preserveAspectRatio="none" style="width:875px;height:296px;background:#FFFFFF;" version="1.1" viewBox="0 0 875 296" width="875px" zoomAndPan="magnify"><title>&#36127;&#26377;&#29031;&#25252;&#32844;&#36131;&#20154;&#21592;&#24615;&#20405;&#32618;</title><defs/><g><text fill="#000000" font-family="sans-serif" font-size="14" font-weight="bold" lengthAdjust="spacing" textLength="158.8125" x="356.6108" y="34.5332">&#36127;&#26377;&#29031;&#25252;&#32844;&#36131;&#20154;&#21592;&#24615;&#20405;&#32618;</text><rect fill="#F1F1F1" height="37.6094" rx="12.5" ry="12.5" style="stroke:#181818;stroke-width:1.5;" width="174" x="10" y="147.5938"/><text fill="#000000" font-family="sans-serif" font-size="14" lengthAdjust="spacing" textLength="154" x="20" y="172.127">&#36127;&#26377;&#29031;&#25252;&#32844;&#36131;&#20154;&#21592;&#24615;&#20405;&#32618;</text><rect fill="#F1F1F1" height="37.6094" rx="12.5" ry="12.5" style="stroke:#181818;stroke-width:1.5;" width="48" x="234" y="58.6094"/><text fill="#000000" font-family="sans-serif" font-size="14" lengthAdjust="spacing" textLength="28" x="244" y="83.1426">&#27861;&#30410;</text><rect fill="#F1F1F1" height="37.6094" rx="12.5" ry="12.5" style="stroke:#181818;stroke-width:1.5;" width="118" x="332" y="58.6094"/><text fill="#000000" font-family="sans-serif" font-size="14" lengthAdjust="spacing" textLength="98" x="342" y="83.1426">&#22919;&#22899;&#30340;&#24615;&#33258;&#20027;&#26435;</text><path d="M282,77.4141 L292,77.4141 C307,77.4141 307,77.4141 322,77.4141 L332,77.4141 " fill="none" style="stroke:#181818;stroke-width:1;"/><path d="M184,166.3984 L194,166.3984 C209,166.3984 209,77.4141 224,77.4141 L234,77.4141 " fill="none" style="stroke:#181818;stroke-width:1;"/><rect fill="#F1F1F1" height="37.6094" rx="12.5" ry="12.5" style="stroke:#181818;stroke-width:1.5;" width="76" x="234" y="176.3984"/><text fill="#000000" font-family="sans-serif" font-size="14" lengthAdjust="spacing" textLength="56" x="244" y="200.9316">&#26500;&#25104;&#35201;&#20214;</text><rect fill="#F1F1F1" height="37.6094" rx="12.5" ry="12.5" style="stroke:#181818;stroke-width:1.5;" width="76" x="360" y="116.2188"/><text fill="#000000" font-family="sans-serif" font-size="14" lengthAdjust="spacing" textLength="56" x="370" y="140.752">&#34892;&#20026;&#20027;&#20307;</text><rect fill="#F1F1F1" height="37.6094" rx="12.5" ry="12.5" style="stroke:#181818;stroke-width:1.5;" width="132" x="486" y="116.2188"/><text fill="#000000" font-family="sans-serif" font-size="14" lengthAdjust="spacing" textLength="112" x="496" y="140.752">&#36127;&#26377;&#29031;&#39038;&#32844;&#36131;&#30340;&#20154;</text><rect fill="#90EE90" height="37.6094" rx="12.5" ry="12.5" style="stroke:#181818;stroke-width:1.5;" width="149.8896" x="668" y="116.2188"/><text fill="#000000" font-family="sans-serif" font-size="14" lengthAdjust="spacing" textLength="126" x="678" y="140.752">&#36127;&#26377;&#31283;&#23450;&#30340;&#29031;&#25252;&#32844;&#36131;</text><path d="M618,135.0234 L628,135.0234 C643,135.0234 643,135.0234 658,135.0234 L668,135.0234 " fill="none" style="stroke:#181818;stroke-width:1;"/><path d="M436,135.0234 L446,135.0234 C461,135.0234 461,135.0234 476,135.0234 L486,135.0234 " fill="none" style="stroke:#181818;stroke-width:1;"/><path d="M310,195.2031 L320,195.2031 C335,195.2031 335,135.0234 350,135.0234 L360,135.0234 " fill="none" style="stroke:#181818;stroke-width:1;"/><rect fill="#F1F1F1" height="37.6094" rx="12.5" ry="12.5" style="stroke:#181818;stroke-width:1.5;" width="76" x="360" y="173.8281"/><text fill="#000000" font-family="sans-serif" font-size="14" lengthAdjust="spacing" textLength="56" x="370" y="198.3613">&#34892;&#20026;&#23545;&#35937;</text><rect fill="#F1F1F1" height="37.6094" rx="12.5" ry="12.5" style="stroke:#181818;stroke-width:1.5;" width="205.1445" x="486" y="173.8281"/><text fill="#000000" font-family="sans-serif" font-size="14" lengthAdjust="spacing" textLength="185.1445" x="496" y="198.3613">&#24050;&#28385;14&#21608;&#23681;&#19981;&#28385;16&#21608;&#23681;&#30340;&#23569;&#22899;</text><rect fill="#90EE90" height="37.6094" rx="12.5" ry="12.5" style="stroke:#181818;stroke-width:1.5;" width="121.8896" x="741.1445" y="173.8281"/><text fill="#000000" font-family="sans-serif" font-size="14" lengthAdjust="spacing" textLength="98" x="751.1445" y="198.3613">&#34987;&#23475;&#20154;&#25215;&#35834;&#26080;&#25928;</text><path d="M691.1445,192.6328 L701.1445,192.6328 C716.1445,192.6328 716.1445,192.6328 731.1445,192.6328 L741.1445,192.6328 " fill="none" style="stroke:#181818;stroke-width:1;"/><path d="M436,192.6328 L446,192.6328 C461,192.6328 461,192.6328 476,192.6328 L486,192.6328 " fill="none" style="stroke:#181818;stroke-width:1;"/><path d="M310,195.2031 L320,195.2031 C335,195.2031 335,192.6328 350,192.6328 L360,192.6328 " fill="none" style="stroke:#181818;stroke-width:1;"/><rect fill="#F1F1F1" height="37.6094" rx="12.5" ry="12.5" style="stroke:#181818;stroke-width:1.5;" width="76" x="360" y="234.0078"/><text fill="#000000" font-family="sans-serif" font-size="14" lengthAdjust="spacing" textLength="56" x="370" y="258.541">&#34892;&#20026;&#26041;&#24335;</text><rect fill="#F1F1F1" height="37.6094" rx="12.5" ry="12.5" style="stroke:#181818;stroke-width:1.5;" width="104" x="486" y="234.0078"/><text fill="#000000" font-family="sans-serif" font-size="14" lengthAdjust="spacing" textLength="84" x="496" y="258.541">&#21457;&#29983;&#24615;&#20132;&#34892;&#20026;</text><rect fill="#F1F1F1" height="42.75" rx="12.5" ry="12.5" style="stroke:#181818;stroke-width:1.5;" width="142.8896" x="640" y="231.4375"/><text fill="#000000" font-family="sans-serif" font-size="14" lengthAdjust="spacing" textLength="98" x="650" y="261.1113">&#19981;&#21253;&#25324;&#29477;&#20149;&#34892;&#20026;</text><path d="M764.8618,251.9398 L770.6269,246.1748 C771.3106,245.4917 771.3106,244.3833 770.6269,243.6997 C769.9432,243.0166 768.8361,243.0166 768.1524,243.6997 L762.3873,249.4648 L756.6222,243.7003 C755.9391,243.0166 754.8308,243.0166 754.1471,243.7003 C753.4641,244.3833 753.4641,245.4917 754.1471,246.1753 L759.9122,251.9398 L754.1331,257.7189 C753.4501,258.402 753.4501,259.5103 754.1331,260.1934 C754.4744,260.5353 754.923,260.7062 755.3704,260.7062 C755.8178,260.7062 756.2664,260.5353 756.6082,260.1934 L762.3867,254.4149 L768.1512,260.1794 C768.4931,260.5213 768.9411,260.6922 769.3885,260.6922 C769.8359,260.6922 770.2839,260.5213 770.6257,260.1794 C771.3094,259.4963 771.3094,258.388 770.6257,257.7049 L764.8618,251.9398 " fill="#FE0000" style="stroke:;stroke-width:0;stroke-dasharray:;"/><path d="M590,252.8125 L600,252.8125 C615,252.8125 615,252.8125 630,252.8125 L640,252.8125 " fill="none" style="stroke:#181818;stroke-width:1;"/><path d="M436,252.8125 L446,252.8125 C461,252.8125 461,252.8125 476,252.8125 L486,252.8125 " fill="none" style="stroke:#181818;stroke-width:1;"/><path d="M310,195.2031 L320,195.2031 C335,195.2031 335,252.8125 350,252.8125 L360,252.8125 " fill="none" style="stroke:#181818;stroke-width:1;"/><path d="M184,166.3984 L194,166.3984 C209,166.3984 209,195.2031 224,195.2031 L234,195.2031 " fill="none" style="stroke:#181818;stroke-width:1;"/><!--SRC=[xLTRRnD757xVNp4LBmcIdOki25bM56mIjIX6g0wyel7ki1uoExEQdJMrgagD2kAMYaOjBU9IcfQRQ0KjWJOuXVuPxzhyYvxTzPAroNgNTwp8yfpppNSkSywPoPAZi5GMvOQ5RKtxX7ATkGP1nU9CzEUe3YCpDiDSkHOh1CW2G0kXl4X1fccAAaRGuCKz_ywL_iL7_jNxWutDmOlVUjskjtNJ__fHxytB_kidcdOu1mZ1vp3oTsxqRryD5v70UtZ9Ux3JltK1a8DBJtgxU_xTRsBmpnVyozyD7cxqzlvER1biR_Psku3ilVx-dNYeYjruk_qcSWEOmPCHs0ZqyOxtz1Q0agwZIeLOTWixr5bSVC-mz-pLuA_jCSFUFy_zlUsvahVrs7k-qTlzDbWjH2jWz_xSWYWFykBNtxsdE-2XV-M_mREk_zCl_etBa-txFxxo_hq-Rl_wLl-7Uq6sk_SZs076m2rlyw9_xO_-veDUzsM4GvL3aXZb5i7jpXdBPOhQZEfOKS7FV55UrBGb0aKK5zBIQ5rLmd9Pr8Q2OnIR4bleIp1UR3ANXByGgc9ztPJ2vKPDC24HesPB1NhGVXLW3IpNmOiK-50RWqr929_4708Iw4u6k1DZXSJSJ7CwKiPGsvKsIuD6oXYQ7bWYA2cSDBP3AolLQgqM8pk4CN4-1HifGwXMZ8ieErT9z6mAt5dlX4UMnCvFpbKIMWMHte8gpEKCDRcG9CUv8RHAEHcNxrFaD3kHAY3ZNEY4gxJSy33f2Aq8hY9Ham5cZ1MQO-WRLq06BOPPJL8h3dGVgOI5bJWGUr8I6ykmGJzasz6ca2ghQl9oAGN7gh8Q9ITRJLZGBIhjj8Sxq-Y2q-74X0C3qcGo9msTh8Co2B6JzJvgO1c6O9DHfvK-iHBxHwsTRr4rdfiKCoU4ohOKHgLtCCyHbOuDejuPmxfEZVII7fcaMSndeTESHFl2MYTrV8wu6Kqi6BWWXP6em8mMYdU4TcpXK4NRvAYUQ8VtfZ5c96yW-o70MU1CQel21HYCxZmrDRp50dB7RPuZUa2VbXtSXckNo9oyRIgWWq9gaSKSv3rtklS7-MZZJkxLaLhEl28q-AhC35yI7n-T7n-Tuu_Eay5_AQVggwXDf1CqurnnVdQ-L3morS0AdH1jDBU0PkVAfLAvj81gZJKKgAUrgVfdQyWHBimYP42dIjfq0nFJsd7SnkXp5uhP8cKKhARMwjEeiHmBqJ9lKocu1GMi7JzTZq3eKw4Qjb0XUA5Kg5A56aI2M-XqNJj6pc881RRgmg3SBADJQok58zeg5BgBJJ04ewK67Q1a1tID_m40]--></g></svg>