<svg xmlns="http://www.w3.org/2000/svg" xmlns:xlink="http://www.w3.org/1999/xlink" contentStyleType="text/css" height="1319px" preserveAspectRatio="none" style="width:1020px;height:1319px;background:#FFFFFF;" version="1.1" viewBox="0 0 1020 1319" width="1020px" zoomAndPan="magnify"><title>&#36130;&#20135;&#29359;&#32618; - &#36130;&#20135;&#24615;&#21033;&#30410; - &#20538;&#26435;&#38382;&#39064;</title><defs/><g><text fill="#000000" font-family="sans-serif" font-size="14" font-weight="bold" lengthAdjust="spacing" textLength="212.5703" x="402.6372" y="34.5332">&#36130;&#20135;&#29359;&#32618; - &#36130;&#20135;&#24615;&#21033;&#30410; - &#20538;&#26435;&#38382;&#39064;</text><rect fill="#F1F1F1" height="37.6094" rx="12.5" ry="12.5" style="stroke:#181818;stroke-width:1.5;" width="76" x="10" y="659.3867"/><text fill="#000000" font-family="sans-serif" font-size="14" lengthAdjust="spacing" textLength="56" x="20" y="683.9199">&#20538;&#26435;&#38382;&#39064;</text><rect fill="#F1F1F1" height="37.6094" rx="12.5" ry="12.5" style="stroke:#181818;stroke-width:1.5;" width="147.9551" x="136" y="400.1445"/><text fill="#000000" font-family="sans-serif" font-size="14" lengthAdjust="spacing" textLength="127.9551" x="146" y="424.6777">&#20538;&#21153;&#20154; + &#21512;&#27861;&#20538;&#26435;&#20154;</text><rect fill="#F1F1F1" height="37.6094" rx="12.5" ry="12.5" style="stroke:#181818;stroke-width:1.5;" width="48" x="333.9551" y="58.6094"/><text fill="#000000" font-family="sans-serif" font-size="14" lengthAdjust="spacing" textLength="28" x="343.9551" y="83.1426">&#35299;&#35835;</text><rect fill="#F1F1F1" height="37.6094" rx="12.5" ry="12.5" style="stroke:#181818;stroke-width:1.5;" width="90" x="431.9551" y="58.6094"/><text fill="#000000" font-family="sans-serif" font-size="14" lengthAdjust="spacing" textLength="70" x="441.9551" y="83.1426">&#36130;&#20135;&#24615;&#21033;&#30410;</text><rect fill="#F1F1F1" height="37.6094" rx="12.5" ry="12.5" style="stroke:#181818;stroke-width:1.5;" width="104" x="571.9551" y="58.6094"/><text fill="#000000" font-family="sans-serif" font-size="14" lengthAdjust="spacing" textLength="84" x="581.9551" y="83.1426">&#24310;&#36831;&#23653;&#34892;&#20538;&#26435;</text><path d="M521.9551,77.4141 L531.9551,77.4141 C546.9551,77.4141 546.9551,77.4141 561.9551,77.4141 L571.9551,77.4141 " fill="none" style="stroke:#181818;stroke-width:1;"/><path d="M381.9551,77.4141 L391.9551,77.4141 C406.9551,77.4141 406.9551,77.4141 421.9551,77.4141 L431.9551,77.4141 " fill="none" style="stroke:#181818;stroke-width:1;"/><path d="M283.9551,418.9492 L293.9551,418.9492 C308.9551,418.9492 308.9551,77.4141 323.9551,77.4141 L333.9551,77.4141 " fill="none" style="stroke:#181818;stroke-width:1;"/><rect fill="#F1F1F1" height="37.6094" rx="12.5" ry="12.5" style="stroke:#181818;stroke-width:1.5;" width="132" x="333.9551" y="207.7734"/><text fill="#000000" font-family="sans-serif" font-size="14" lengthAdjust="spacing" textLength="112" x="343.9551" y="232.3066">&#29992;&#35784;&#39575;&#12289;&#25250;&#21163;&#26041;&#24335;</text><rect fill="#F1F1F1" height="37.6094" rx="12.5" ry="12.5" style="stroke:#181818;stroke-width:1.5;" width="48" x="515.9551" y="150.1641"/><text fill="#000000" font-family="sans-serif" font-size="14" lengthAdjust="spacing" textLength="28" x="525.9551" y="174.6973">&#20998;&#26512;</text><rect fill="#F1F1F1" height="37.6094" rx="12.5" ry="12.5" style="stroke:#181818;stroke-width:1.5;" width="160" x="613.9551" y="150.1641"/><text fill="#000000" font-family="sans-serif" font-size="14" lengthAdjust="spacing" textLength="140" x="623.9551" y="174.6973">&#20351;&#20538;&#26435;&#20154;&#25918;&#24323;&#34892;&#20351;&#20538;&#26435;</text><rect fill="#F1F1F1" height="42.75" rx="12.5" ry="12.5" style="stroke:#181818;stroke-width:1.5;" width="184.8896" x="823.9551" y="116.2188"/><text fill="#000000" font-family="sans-serif" font-size="14" lengthAdjust="spacing" textLength="140" x="833.9551" y="145.8926">&#65288;&#34987;&#36843;&#65289;&#25918;&#24323;&#34892;&#20351;&#20538;&#26435;</text><path d="M997.9458,127.0208 C997.1344,126.4947 996.0511,126.7257 995.5256,127.5365 L985.7197,142.6513 L980.9376,138.2296 C980.2276,137.5733 979.1211,137.6165 978.4648,138.3264 C977.8086,139.0358 977.8517,140.1435 978.5616,140.7992 L984.8406,146.6045 C985.0209,146.7597 985.0209,146.7597 985.1043,146.8139 C985.3983,147.0053 985.7285,147.0963 986.0551,147.0963 C986.628,147.0963 987.1897,146.8151 987.5251,146.2983 L998.4615,129.4411 C998.9876,128.6303 998.7566,127.5464 997.9458,127.0208 " fill="#FE0000" style="stroke:;stroke-width:0;stroke-dasharray:;"/><path d="M773.9551,168.9688 L783.9551,168.9688 C798.9551,168.9688 798.9551,137.5938 813.9551,137.5938 L823.9551,137.5938 " fill="none" style="stroke:#181818;stroke-width:1;"/><rect fill="#F1F1F1" height="42.75" rx="12.5" ry="12.5" style="stroke:#181818;stroke-width:1.5;" width="156.8896" x="823.9551" y="178.9688"/><text fill="#000000" font-family="sans-serif" font-size="14" lengthAdjust="spacing" textLength="112" x="833.9551" y="208.6426">&#26080;&#27861;&#24403;&#22330;&#34892;&#20351;&#20538;&#26435;</text><path d="M969.9458,189.7708 C969.1344,189.2447 968.0511,189.4757 967.5256,190.2865 L957.7197,205.4013 L952.9376,200.9796 C952.2276,200.3233 951.1211,200.3665 950.4648,201.0764 C949.8086,201.7858 949.8517,202.8935 950.5616,203.5492 L956.8406,209.3545 C957.0209,209.5097 957.0209,209.5097 957.1043,209.5639 C957.3983,209.7553 957.7285,209.8463 958.0551,209.8463 C958.628,209.8463 959.1897,209.5651 959.5251,209.0483 L970.4615,192.1911 C970.9876,191.3803 970.7566,190.2964 969.9458,189.7708 " fill="#FE0000" style="stroke:;stroke-width:0;stroke-dasharray:;"/><path d="M773.9551,168.9688 L783.9551,168.9688 C798.9551,168.9688 798.9551,200.3438 813.9551,200.3438 L823.9551,200.3438 " fill="none" style="stroke:#181818;stroke-width:1;"/><path d="M563.9551,168.9688 L573.9551,168.9688 C588.9551,168.9688 588.9551,168.9688 603.9551,168.9688 L613.9551,168.9688 " fill="none" style="stroke:#181818;stroke-width:1;"/><path d="M465.9551,226.5781 L475.9551,226.5781 C490.9551,226.5781 490.9551,168.9688 505.9551,168.9688 L515.9551,168.9688 " fill="none" style="stroke:#181818;stroke-width:1;"/><rect fill="#F1F1F1" height="37.6094" rx="12.5" ry="12.5" style="stroke:#181818;stroke-width:1.5;" width="76" x="515.9551" y="270.5234"/><text fill="#000000" font-family="sans-serif" font-size="14" lengthAdjust="spacing" textLength="56" x="525.9551" y="295.0566">&#25104;&#31435;&#38382;&#39064;</text><rect fill="#F1F1F1" height="37.6094" rx="12.5" ry="12.5" style="stroke:#181818;stroke-width:1.5;" width="62" x="641.9551" y="241.7188"/><text fill="#000000" font-family="sans-serif" font-size="14" lengthAdjust="spacing" textLength="42" x="651.9551" y="266.252">&#22810;&#25968;&#35828;</text><rect fill="#F1F1F1" height="37.6094" rx="12.5" ry="12.5" style="stroke:#181818;stroke-width:1.5;" width="146" x="753.9551" y="241.7188"/><text fill="#000000" font-family="sans-serif" font-size="14" lengthAdjust="spacing" textLength="126" x="763.9551" y="266.252">&#26500;&#25104;&#35784;&#39575;&#32618;&#12289;&#25250;&#21163;&#32618;</text><path d="M703.9551,260.5234 L713.9551,260.5234 C728.9551,260.5234 728.9551,260.5234 743.9551,260.5234 L753.9551,260.5234 " fill="none" style="stroke:#181818;stroke-width:1;"/><path d="M591.9551,289.3281 L601.9551,289.3281 C616.9551,289.3281 616.9551,260.5234 631.9551,260.5234 L641.9551,260.5234 " fill="none" style="stroke:#181818;stroke-width:1;"/><rect fill="#F1F1F1" height="37.6094" rx="12.5" ry="12.5" style="stroke:#181818;stroke-width:1.5;" width="62" x="641.9551" y="299.3281"/><text fill="#000000" font-family="sans-serif" font-size="14" lengthAdjust="spacing" textLength="42" x="651.9551" y="323.8613">&#23569;&#25968;&#35828;</text><rect fill="#F1F1F1" height="37.6094" rx="12.5" ry="12.5" style="stroke:#181818;stroke-width:1.5;" width="160" x="753.9551" y="299.3281"/><text fill="#000000" font-family="sans-serif" font-size="14" lengthAdjust="spacing" textLength="140" x="763.9551" y="323.8613">&#19981;&#26500;&#25104;&#35784;&#39575;&#32618;&#12289;&#25250;&#21163;&#32618;</text><path d="M703.9551,318.1328 L713.9551,318.1328 C728.9551,318.1328 728.9551,318.1328 743.9551,318.1328 L753.9551,318.1328 " fill="none" style="stroke:#181818;stroke-width:1;"/><path d="M591.9551,289.3281 L601.9551,289.3281 C616.9551,289.3281 616.9551,318.1328 631.9551,318.1328 L641.9551,318.1328 " fill="none" style="stroke:#181818;stroke-width:1;"/><path d="M465.9551,226.5781 L475.9551,226.5781 C490.9551,226.5781 490.9551,289.3281 505.9551,289.3281 L515.9551,289.3281 " fill="none" style="stroke:#181818;stroke-width:1;"/><path d="M283.9551,418.9492 L293.9551,418.9492 C308.9551,418.9492 308.9551,226.5781 323.9551,226.5781 L333.9551,226.5781 " fill="none" style="stroke:#181818;stroke-width:1;"/><rect fill="#F1F1F1" height="37.6094" rx="12.5" ry="12.5" style="stroke:#181818;stroke-width:1.5;" width="90" x="333.9551" y="448.4922"/><text fill="#000000" font-family="sans-serif" font-size="14" lengthAdjust="spacing" textLength="70" x="343.9551" y="473.0254">&#29992;&#30423;&#31363;&#26041;&#24335;</text><rect fill="#F1F1F1" height="37.6094" rx="12.5" ry="12.5" style="stroke:#181818;stroke-width:1.5;" width="48" x="473.9551" y="390.8828"/><text fill="#000000" font-family="sans-serif" font-size="14" lengthAdjust="spacing" textLength="28" x="483.9551" y="415.416">&#20998;&#26512;</text><rect fill="#F1F1F1" height="37.6094" rx="12.5" ry="12.5" style="stroke:#181818;stroke-width:1.5;" width="76" x="571.9551" y="390.8828"/><text fill="#000000" font-family="sans-serif" font-size="14" lengthAdjust="spacing" textLength="56" x="581.9551" y="415.416">&#36867;&#36991;&#20538;&#26435;</text><rect fill="#F1F1F1" height="42.75" rx="12.5" ry="12.5" style="stroke:#181818;stroke-width:1.5;" width="184.8896" x="697.9551" y="356.9375"/><text fill="#000000" font-family="sans-serif" font-size="14" lengthAdjust="spacing" textLength="140" x="707.9551" y="386.6113">&#65288;&#34987;&#36843;&#65289;&#25918;&#24323;&#34892;&#20351;&#20538;&#26435;</text><path d="M864.4056,377.4387 L871.5427,370.3022 C872.1121,369.7328 872.1121,368.8094 871.5427,368.2401 C870.9728,367.6702 870.05,367.6702 869.4806,368.2401 L862.3436,375.3766 L855.2071,368.2401 C854.6377,367.6702 853.7137,367.6702 853.145,368.2401 C852.5751,368.8094 852.5751,369.7328 853.145,370.3022 L860.2815,377.4387 L853.1286,384.5921 C852.5587,385.162 852.5587,386.0848 853.1286,386.6542 C853.4133,386.9388 853.7866,387.0812 854.16,387.0812 C854.5333,387.0812 854.9066,386.9388 855.1913,386.6542 L862.3441,379.5008 L869.4806,386.6373 C869.7653,386.9219 870.1386,387.0643 870.512,387.0643 C870.8853,387.0643 871.2581,386.9219 871.5433,386.6373 C872.1126,386.0673 872.1126,385.1445 871.5433,384.5752 L864.4056,377.4387 " fill="#FE0000" style="stroke:;stroke-width:0;stroke-dasharray:;"/><path d="M647.9551,409.6875 L657.9551,409.6875 C672.9551,409.6875 672.9551,378.3125 687.9551,378.3125 L697.9551,378.3125 " fill="none" style="stroke:#181818;stroke-width:1;"/><rect fill="#F1F1F1" height="42.75" rx="12.5" ry="12.5" style="stroke:#181818;stroke-width:1.5;" width="156.8896" x="697.9551" y="419.6875"/><text fill="#000000" font-family="sans-serif" font-size="14" lengthAdjust="spacing" textLength="112" x="707.9551" y="449.3613">&#26080;&#27861;&#24403;&#22330;&#34892;&#20351;&#20538;&#26435;</text><path d="M843.9458,430.4896 C843.1344,429.9634 842.0511,430.1944 841.5256,431.0053 L831.7197,446.12 L826.9376,441.6983 C826.2276,441.0421 825.1211,441.0853 824.4648,441.7952 C823.8086,442.5045 823.8517,443.6123 824.5616,444.2679 L830.8406,450.0733 C831.0209,450.2284 831.0209,450.2284 831.1043,450.2827 C831.3983,450.474 831.7285,450.565 832.0551,450.565 C832.628,450.565 833.1897,450.2838 833.5251,449.767 L844.4615,432.9098 C844.9876,432.099 844.7566,431.0152 843.9458,430.4896 " fill="#FE0000" style="stroke:;stroke-width:0;stroke-dasharray:;"/><path d="M647.9551,409.6875 L657.9551,409.6875 C672.9551,409.6875 672.9551,441.0625 687.9551,441.0625 L697.9551,441.0625 " fill="none" style="stroke:#181818;stroke-width:1;"/><path d="M521.9551,409.6875 L531.9551,409.6875 C546.9551,409.6875 546.9551,409.6875 561.9551,409.6875 L571.9551,409.6875 " fill="none" style="stroke:#181818;stroke-width:1;"/><path d="M423.9551,467.2969 L433.9551,467.2969 C448.9551,467.2969 448.9551,409.6875 463.9551,409.6875 L473.9551,409.6875 " fill="none" style="stroke:#181818;stroke-width:1;"/><rect fill="#F1F1F1" height="37.6094" rx="12.5" ry="12.5" style="stroke:#181818;stroke-width:1.5;" width="76" x="473.9551" y="511.2422"/><text fill="#000000" font-family="sans-serif" font-size="14" lengthAdjust="spacing" textLength="56" x="483.9551" y="535.7754">&#25104;&#31435;&#20998;&#26512;</text><rect fill="#F1F1F1" height="37.6094" rx="12.5" ry="12.5" style="stroke:#181818;stroke-width:1.5;" width="62" x="599.9551" y="482.4375"/><text fill="#000000" font-family="sans-serif" font-size="14" lengthAdjust="spacing" textLength="42" x="609.9551" y="506.9707">&#22810;&#25968;&#35828;</text><rect fill="#F1F1F1" height="37.6094" rx="12.5" ry="12.5" style="stroke:#181818;stroke-width:1.5;" width="104" x="711.9551" y="482.4375"/><text fill="#000000" font-family="sans-serif" font-size="14" lengthAdjust="spacing" textLength="84" x="721.9551" y="506.9707">&#19981;&#26500;&#25104;&#30423;&#31363;&#32618;</text><path d="M661.9551,501.2422 L671.9551,501.2422 C686.9551,501.2422 686.9551,501.2422 701.9551,501.2422 L711.9551,501.2422 " fill="none" style="stroke:#181818;stroke-width:1;"/><path d="M549.9551,530.0469 L559.9551,530.0469 C574.9551,530.0469 574.9551,501.2422 589.9551,501.2422 L599.9551,501.2422 " fill="none" style="stroke:#181818;stroke-width:1;"/><rect fill="#F1F1F1" height="37.6094" rx="12.5" ry="12.5" style="stroke:#181818;stroke-width:1.5;" width="62" x="599.9551" y="540.0469"/><text fill="#000000" font-family="sans-serif" font-size="14" lengthAdjust="spacing" textLength="42" x="609.9551" y="564.5801">&#23569;&#25968;&#35828;</text><rect fill="#F1F1F1" height="37.6094" rx="12.5" ry="12.5" style="stroke:#181818;stroke-width:1.5;" width="90" x="711.9551" y="540.0469"/><text fill="#000000" font-family="sans-serif" font-size="14" lengthAdjust="spacing" textLength="70" x="721.9551" y="564.5801">&#26500;&#25104;&#30423;&#31363;&#32618;</text><path d="M661.9551,558.8516 L671.9551,558.8516 C686.9551,558.8516 686.9551,558.8516 701.9551,558.8516 L711.9551,558.8516 " fill="none" style="stroke:#181818;stroke-width:1;"/><path d="M549.9551,530.0469 L559.9551,530.0469 C574.9551,530.0469 574.9551,558.8516 589.9551,558.8516 L599.9551,558.8516 " fill="none" style="stroke:#181818;stroke-width:1;"/><path d="M423.9551,467.2969 L433.9551,467.2969 C448.9551,467.2969 448.9551,530.0469 463.9551,530.0469 L473.9551,530.0469 " fill="none" style="stroke:#181818;stroke-width:1;"/><path d="M283.9551,418.9492 L293.9551,418.9492 C308.9551,418.9492 308.9551,467.2969 323.9551,467.2969 L333.9551,467.2969 " fill="none" style="stroke:#181818;stroke-width:1;"/><rect fill="#F1F1F1" height="37.6094" rx="12.5" ry="12.5" style="stroke:#181818;stroke-width:1.5;" width="62" x="333.9551" y="669.668"/><text fill="#000000" font-family="sans-serif" font-size="14" lengthAdjust="spacing" textLength="42" x="343.9551" y="694.2012">&#31363;&#20197;&#20026;</text><rect fill="#F1F1F1" height="37.6094" rx="12.5" ry="12.5" style="stroke:#181818;stroke-width:1.5;" width="155.3242" x="445.9551" y="597.6563"/><text fill="#000000" font-family="sans-serif" font-size="14" lengthAdjust="spacing" textLength="135.3242" x="455.9551" y="622.1895">&#8220;&#20599;&#20599;&#28316;&#25481;&#8221;&#20250;&#32473;&#20104;&#23485;&#23481;</text><path d="M395.9551,688.4727 L405.9551,688.4727 C420.9551,688.4727 420.9551,616.4609 435.9551,616.4609 L445.9551,616.4609 " fill="none" style="stroke:#181818;stroke-width:1;"/><rect fill="#F1F1F1" height="37.6094" rx="12.5" ry="12.5" style="stroke:#181818;stroke-width:1.5;" width="318.6484" x="445.9551" y="655.2656"/><text fill="#000000" font-family="sans-serif" font-size="14" lengthAdjust="spacing" textLength="298.6484" x="455.9551" y="679.7988">&#32780;&#8220;&#25925;&#24847;&#20026;&#20043;&#8221;&#23454;&#26045;&#30340;&#8220;&#35784;&#39575;&#12289;&#25250;&#21163;&#8221;&#65292;&#23601;&#35201;&#20005;&#21385;&#22788;&#32602;</text><rect fill="#F1F1F1" height="37.6094" rx="12.5" ry="12.5" style="stroke:#181818;stroke-width:1.5;" width="104" x="814.6035" y="626.4609"/><text fill="#000000" font-family="sans-serif" font-size="14" lengthAdjust="spacing" textLength="84" x="824.6035" y="650.9941">&#35784;&#39575;&#65288;&#27450;&#39575;&#65289;</text><path d="M764.6035,674.0703 L774.6035,674.0703 C789.6035,674.0703 789.6035,645.2656 804.6035,645.2656 L814.6035,645.2656 " fill="none" style="stroke:#181818;stroke-width:1;"/><rect fill="#F1F1F1" height="37.6094" rx="12.5" ry="12.5" style="stroke:#181818;stroke-width:1.5;" width="104" x="814.6035" y="684.0703"/><text fill="#000000" font-family="sans-serif" font-size="14" lengthAdjust="spacing" textLength="84" x="824.6035" y="708.6035">&#25250;&#21163;&#65288;&#26292;&#21147;&#65289;</text><path d="M764.6035,674.0703 L774.6035,674.0703 C789.6035,674.0703 789.6035,702.875 804.6035,702.875 L814.6035,702.875 " fill="none" style="stroke:#181818;stroke-width:1;"/><path d="M395.9551,688.4727 L405.9551,688.4727 C420.9551,688.4727 420.9551,674.0703 435.9551,674.0703 L445.9551,674.0703 " fill="none" style="stroke:#181818;stroke-width:1;"/><rect fill="#F1F1F1" height="37.6094" rx="12.5" ry="12.5" style="stroke:#181818;stroke-width:1.5;" width="360.6484" x="445.9551" y="741.6797"/><text fill="#000000" font-family="sans-serif" font-size="14" lengthAdjust="spacing" textLength="340.6484" x="455.9551" y="766.2129">&#22823;&#27010;&#22914;&#27492;&#65292;&#25925;&#24847;&#31361;&#26174;&#8220;&#33258;&#24049;&#30340;&#32874;&#26126;&#8221;&#24448;&#24448;&#25307;&#33268;&#21035;&#20154;&#30340;&#8220;&#24616;&#24680;&#8221;</text><path d="M395.9551,688.4727 L405.9551,688.4727 C420.9551,688.4727 420.9551,760.4844 435.9551,760.4844 L445.9551,760.4844 " fill="none" style="stroke:#181818;stroke-width:1;"/><path d="M283.9551,418.9492 L293.9551,418.9492 C308.9551,418.9492 308.9551,688.4727 323.9551,688.4727 L333.9551,688.4727 " fill="none" style="stroke:#181818;stroke-width:1;"/><path d="M86,678.1914 L96,678.1914 C111,678.1914 111,418.9492 126,418.9492 L136,418.9492 " fill="none" style="stroke:#181818;stroke-width:1;"/><rect fill="#F1F1F1" height="37.6094" rx="12.5" ry="12.5" style="stroke:#181818;stroke-width:1.5;" width="147.9551" x="136" y="856.8984"/><text fill="#000000" font-family="sans-serif" font-size="14" lengthAdjust="spacing" textLength="127.9551" x="146" y="881.4316">&#20538;&#21153;&#20154; + &#38750;&#27861;&#20538;&#26435;&#20154;</text><rect fill="#F1F1F1" height="37.6094" rx="12.5" ry="12.5" style="stroke:#181818;stroke-width:1.5;" width="174" x="333.9551" y="799.2891"/><text fill="#000000" font-family="sans-serif" font-size="14" lengthAdjust="spacing" textLength="154" x="343.9551" y="823.8223">&#27861;&#24459;&#30340;&#36130;&#20135;&#35828;&#65288;&#23569;&#25968;&#35828;&#65289;</text><path d="M283.9551,875.7031 L293.9551,875.7031 C308.9551,875.7031 308.9551,818.0938 323.9551,818.0938 L333.9551,818.0938 " fill="none" style="stroke:#181818;stroke-width:1;"/><rect fill="#F1F1F1" height="37.6094" rx="12.5" ry="12.5" style="stroke:#181818;stroke-width:1.5;" width="174" x="333.9551" y="856.8984"/><text fill="#000000" font-family="sans-serif" font-size="14" lengthAdjust="spacing" textLength="154" x="343.9551" y="881.4316">&#32463;&#27982;&#30340;&#36130;&#20135;&#35828;&#65288;&#23569;&#25968;&#35828;&#65289;</text><path d="M283.9551,875.7031 L293.9551,875.7031 C308.9551,875.7031 308.9551,875.7031 323.9551,875.7031 L333.9551,875.7031 " fill="none" style="stroke:#181818;stroke-width:1;"/><rect fill="#90EE90" height="37.6094" rx="12.5" ry="12.5" style="stroke:#181818;stroke-width:1.5;" width="219.8896" x="333.9551" y="914.5078"/><text fill="#000000" font-family="sans-serif" font-size="14" lengthAdjust="spacing" textLength="196" x="343.9551" y="939.041">&#27861;&#24459;&#19982;&#32463;&#27982;&#30340;&#36130;&#20135;&#35828;&#65288;&#22810;&#25968;&#35828;&#65289;</text><path d="M283.9551,875.7031 L293.9551,875.7031 C308.9551,875.7031 308.9551,933.3125 323.9551,933.3125 L333.9551,933.3125 " fill="none" style="stroke:#181818;stroke-width:1;"/><path d="M86,678.1914 L96,678.1914 C111,678.1914 111,875.7031 126,875.7031 L136,875.7031 " fill="none" style="stroke:#181818;stroke-width:1;"/><rect fill="#F1F1F1" height="37.6094" rx="12.5" ry="12.5" style="stroke:#181818;stroke-width:1.5;" width="118" x="136" y="1116.1406"/><text fill="#000000" font-family="sans-serif" font-size="14" lengthAdjust="spacing" textLength="98" x="146" y="1140.6738">&#26080;&#20538;&#26435;&#20538;&#21153;&#20851;&#31995;</text><rect fill="#F1F1F1" height="37.6094" rx="12.5" ry="12.5" style="stroke:#181818;stroke-width:1.5;" width="220.6963" x="304" y="1000.9219"/><text fill="#000000" font-family="sans-serif" font-size="14" lengthAdjust="spacing" textLength="200.6963" x="314" y="1025.4551">&#29983;&#25104;&#38750;&#27861;&#20538;&#26435;&#65288;&#20266;&#36896;&#65289;&#65288;P287&#65289;</text><rect fill="#F1F1F1" height="37.6094" rx="12.5" ry="12.5" style="stroke:#181818;stroke-width:1.5;" width="76" x="574.6963" y="972.1172"/><text fill="#000000" font-family="sans-serif" font-size="14" lengthAdjust="spacing" textLength="56" x="584.6963" y="996.6504">&#25104;&#31435;&#38382;&#39064;</text><rect fill="#F1F1F1" height="37.6094" rx="12.5" ry="12.5" style="stroke:#181818;stroke-width:1.5;" width="104" x="700.6963" y="972.1172"/><text fill="#000000" font-family="sans-serif" font-size="14" lengthAdjust="spacing" textLength="84" x="710.6963" y="996.6504">&#26500;&#25104;&#36130;&#20135;&#29359;&#32618;</text><path d="M650.6963,990.9219 L660.6963,990.9219 C675.6963,990.9219 675.6963,990.9219 690.6963,990.9219 L700.6963,990.9219 " fill="none" style="stroke:#181818;stroke-width:1;"/><path d="M524.6963,1019.7266 L534.6963,1019.7266 C549.6963,1019.7266 549.6963,990.9219 564.6963,990.9219 L574.6963,990.9219 " fill="none" style="stroke:#181818;stroke-width:1;"/><rect fill="#F1F1F1" height="37.6094" rx="12.5" ry="12.5" style="stroke:#181818;stroke-width:1.5;" width="76" x="574.6963" y="1029.7266"/><text fill="#000000" font-family="sans-serif" font-size="14" lengthAdjust="spacing" textLength="56" x="584.6963" y="1054.2598">&#26082;&#36930;&#38382;&#39064;</text><rect fill="#F1F1F1" height="37.6094" rx="12.5" ry="12.5" style="stroke:#181818;stroke-width:1.5;" width="258" x="700.6963" y="1029.7266"/><text fill="#000000" font-family="sans-serif" font-size="14" lengthAdjust="spacing" textLength="238" x="710.6963" y="1054.2598">&#33509;&#32473;&#34987;&#23475;&#20154;&#36896;&#25104;&#23454;&#38469;&#25439;&#22833;&#65292;&#21017;&#26500;&#25104;&#26082;&#36930;</text><path d="M650.6963,1048.5313 L660.6963,1048.5313 C675.6963,1048.5313 675.6963,1048.5313 690.6963,1048.5313 L700.6963,1048.5313 " fill="none" style="stroke:#181818;stroke-width:1;"/><path d="M524.6963,1019.7266 L534.6963,1019.7266 C549.6963,1019.7266 549.6963,1048.5313 564.6963,1048.5313 L574.6963,1048.5313 " fill="none" style="stroke:#181818;stroke-width:1;"/><path d="M254,1134.9453 L264,1134.9453 C279,1134.9453 279,1019.7266 294,1019.7266 L304,1019.7266 " fill="none" style="stroke:#181818;stroke-width:1;"/><rect fill="#F1F1F1" height="37.6094" rx="12.5" ry="12.5" style="stroke:#181818;stroke-width:1.5;" width="220.6963" x="304" y="1087.3359"/><text fill="#000000" font-family="sans-serif" font-size="14" lengthAdjust="spacing" textLength="200.6963" x="314" y="1111.8691">&#38750;&#27861;&#20351;&#29992;&#34987;&#23475;&#20154;&#30340;&#36130;&#20135;&#65288;P287&#65289;</text><rect fill="#F1F1F1" height="37.6094" rx="12.5" ry="12.5" style="stroke:#181818;stroke-width:1.5;" width="76" x="574.6963" y="1087.3359"/><text fill="#000000" font-family="sans-serif" font-size="14" lengthAdjust="spacing" textLength="56" x="584.6963" y="1111.8691">&#25104;&#31435;&#38382;&#39064;</text><rect fill="#F1F1F1" height="37.6094" rx="12.5" ry="12.5" style="stroke:#181818;stroke-width:1.5;" width="202" x="700.6963" y="1087.3359"/><text fill="#000000" font-family="sans-serif" font-size="14" lengthAdjust="spacing" textLength="182" x="710.6963" y="1111.8691">&#19981;&#26500;&#25104;&#20405;&#29359;&#36130;&#20135;&#24615;&#21033;&#30410;&#30340;&#29359;&#32618;</text><path d="M650.6963,1106.1406 L660.6963,1106.1406 C675.6963,1106.1406 675.6963,1106.1406 690.6963,1106.1406 L700.6963,1106.1406 " fill="none" style="stroke:#181818;stroke-width:1;"/><path d="M524.6963,1106.1406 L534.6963,1106.1406 C549.6963,1106.1406 549.6963,1106.1406 564.6963,1106.1406 L574.6963,1106.1406 " fill="none" style="stroke:#181818;stroke-width:1;"/><path d="M254,1134.9453 L264,1134.9453 C279,1134.9453 279,1106.1406 294,1106.1406 L304,1106.1406 " fill="none" style="stroke:#181818;stroke-width:1;"/><rect fill="#F1F1F1" height="37.6094" rx="12.5" ry="12.5" style="stroke:#181818;stroke-width:1.5;" width="104" x="304" y="1202.5547"/><text fill="#000000" font-family="sans-serif" font-size="14" lengthAdjust="spacing" textLength="84" x="314" y="1227.0879">&#20882;&#21517;&#34892;&#20351;&#20538;&#26435;</text><rect fill="#F1F1F1" height="37.6094" rx="12.5" ry="12.5" style="stroke:#181818;stroke-width:1.5;" width="76" x="458" y="1173.75"/><text fill="#000000" font-family="sans-serif" font-size="14" lengthAdjust="spacing" textLength="56" x="468" y="1198.2832">&#25104;&#31435;&#38382;&#39064;</text><rect fill="#F1F1F1" height="37.6094" rx="12.5" ry="12.5" style="stroke:#181818;stroke-width:1.5;" width="62" x="584" y="1144.9453"/><text fill="#000000" font-family="sans-serif" font-size="14" lengthAdjust="spacing" textLength="42" x="594" y="1169.4785">&#22810;&#25968;&#35828;</text><rect fill="#F1F1F1" height="37.6094" rx="12.5" ry="12.5" style="stroke:#181818;stroke-width:1.5;" width="104" x="696" y="1144.9453"/><text fill="#000000" font-family="sans-serif" font-size="14" lengthAdjust="spacing" textLength="84" x="706" y="1169.4785">&#26032;&#22411;&#19977;&#35282;&#35784;&#39575;</text><path d="M646,1163.75 L656,1163.75 C671,1163.75 671,1163.75 686,1163.75 L696,1163.75 " fill="none" style="stroke:#181818;stroke-width:1;"/><path d="M534,1192.5547 L544,1192.5547 C559,1192.5547 559,1163.75 574,1163.75 L584,1163.75 " fill="none" style="stroke:#181818;stroke-width:1;"/><rect fill="#F1F1F1" height="37.6094" rx="12.5" ry="12.5" style="stroke:#181818;stroke-width:1.5;" width="62" x="584" y="1202.5547"/><text fill="#000000" font-family="sans-serif" font-size="14" lengthAdjust="spacing" textLength="42" x="594" y="1227.0879">&#23569;&#25968;&#35828;</text><rect fill="#F1F1F1" height="37.6094" rx="12.5" ry="12.5" style="stroke:#181818;stroke-width:1.5;" width="62" x="696" y="1202.5547"/><text fill="#000000" font-family="sans-serif" font-size="14" lengthAdjust="spacing" textLength="42" x="706" y="1227.0879">&#30423;&#31363;&#32618;</text><path d="M646,1221.3594 L656,1221.3594 C671,1221.3594 671,1221.3594 686,1221.3594 L696,1221.3594 " fill="none" style="stroke:#181818;stroke-width:1;"/><path d="M534,1192.5547 L544,1192.5547 C559,1192.5547 559,1221.3594 574,1221.3594 L584,1221.3594 " fill="none" style="stroke:#181818;stroke-width:1;"/><path d="M408,1221.3594 L418,1221.3594 C433,1221.3594 433,1192.5547 448,1192.5547 L458,1192.5547 " fill="none" style="stroke:#181818;stroke-width:1;"/><rect fill="#F1F1F1" height="37.6094" rx="12.5" ry="12.5" style="stroke:#181818;stroke-width:1.5;" width="76" x="458" y="1260.1641"/><text fill="#000000" font-family="sans-serif" font-size="14" lengthAdjust="spacing" textLength="56" x="468" y="1284.6973">&#26631;&#20934;&#26696;&#20363;</text><rect fill="#F1F1F1" height="37.6094" rx="12.5" ry="12.5" style="stroke:#181818;stroke-width:1.5;" width="150.6963" x="584" y="1260.1641"/><text fill="#000000" font-family="sans-serif" font-size="14" lengthAdjust="spacing" textLength="130.6963" x="594" y="1284.6973">&#20882;&#21517;&#25910;&#27454;&#26696;&#65288;P288&#65289;</text><rect fill="#F1F1F1" height="37.6094" rx="12.5" ry="12.5" style="stroke:#181818;stroke-width:1.5;" width="118" x="784.6963" y="1260.1641"/><text fill="#000000" font-family="sans-serif" font-size="14" lengthAdjust="spacing" textLength="98" x="794.6963" y="1284.6973">&#20599;&#25442;&#20108;&#32500;&#30721;&#25910;&#27454;</text><path d="M734.6963,1278.9688 L744.6963,1278.9688 C759.6963,1278.9688 759.6963,1278.9688 774.6963,1278.9688 L784.6963,1278.9688 " fill="none" style="stroke:#181818;stroke-width:1;"/><path d="M534,1278.9688 L544,1278.9688 C559,1278.9688 559,1278.9688 574,1278.9688 L584,1278.9688 " fill="none" style="stroke:#181818;stroke-width:1;"/><path d="M408,1221.3594 L418,1221.3594 C433,1221.3594 433,1278.9688 448,1278.9688 L458,1278.9688 " fill="none" style="stroke:#181818;stroke-width:1;"/><path d="M254,1134.9453 L264,1134.9453 C279,1134.9453 279,1221.3594 294,1221.3594 L304,1221.3594 " fill="none" style="stroke:#181818;stroke-width:1;"/><path d="M86,678.1914 L96,678.1914 C111,678.1914 111,1134.9453 126,1134.9453 L136,1134.9453 " fill="none" style="stroke:#181818;stroke-width:1;"/><!--SRC=[xLbTRzDM6BxthpWJDx2feNGLgwggWWQg3L64bi8jEdKEYQbZHuuJoAP92Iqq_QHZGA65KhgMifJrGorGaZJy5-Ppx5pn5_RQJb8dZUl0kDX5K8JizpplSzvl7vsUYQbOKIE258pWACTz8qYy60yIvFETj7ynDIcIar4HIsey8hQPo3Q0jbbodm0oZbC5LIJ8s5tMSclwnAQ-dqLjvLUMMgEPl_I52P3GL8uz6odDRPIM7tFSjxNl2FvP8ZhnGilbq7U8pcROpaCR118BOQECjJ-DpNnLK1RMxbUpMYRFlpK-FAVRgyQBAPlMmQa_U6LiPahPkNzIQJQnJ2VMsQFtj72lRXUQkSiMPnkGQ_iVggQo1qLQ685Tgi932hRIfqB6M5utFgn_AemVLa8znnGIx0uJd4XUuyE47xuMmSfmTwyB6vjRCWEs_mTzcckEfyuvbfdLroST2QdpVMMUFTmoDdVTzbyS1GOxYb03rK32SoEshT-FPDFsffiXj3AdBypfsP7FIrWfDL9AVuNqtFgA-MYK3bS7lD9H3Q0TdI_BWXi3X3qxekLNjRrSdTKVKqzf-XtyMEufcnd_c7gc5URr_1Cjbw4R-tJZVNtVfgP0XJsymqRl0PlsVX9KwCOYUxIlpu_2KbrRmkgdmXJTsZPUfhMzLJepJbT6zVtv1ixPcf15zZfdFOmt0Dci9cX-bquir8FCEA-nbxVfozlixnNOsRPKpwRPuw9ftLYMlji6IurqbZsUCMqlfk379XUCiLsQMOTvOFl1KgzO-XK06iowqhD5brbdYekJ9hyrto1JO6erQqvh8INvU-pDJ7DOcrVRcsciLAajK48zFIGI3UEO4EljvQgbRHjhEq7lxEWx-PgUV0vbu_GAIBL2jfHQ0aPuljpHzSFXK7iCeF8yS7ndwlNdbalfswxwnkGg52AqDDtOWIY3CK07fLPwSeTDFwShssPXPPxOszXS3fziRw2BpKz5XQCQjo_rgTgbMl4D-5Jt5GFwEaUXRkxUfxFJhb-N_px67stHHQYCSMFjljr1Np0t6iyS85yQesDtsOkCLfniH6lvnXwyPQ-B0BA3sjMeSSju63FJ4B4fFR-hBwLjHOuxG-0yKpdJdAazulHO9vTUhYmu9-2GWYFeLzZ1DoJ6YVM4K1_cXqEA79U2VbcK5IGAeR1ghiFgRoOs22CRnhWBlBnQ0OSKGgIZc2s00vtq02ShM5d1KiZDQ7kn0et6bQZe1hKNAr1tnnnEANBCZUrOVtzVdzzVGIQ9ACetNR3seWNbV14iI8DX4gaGzykI6X1-8UZxTivShqmYxrWwqUqkyDXmqagf4zjnT2oTq3uGyM4emwQC4KAIh90cyehGHK4YzV83YYQtFPBA99CacIUIwXORoKgAdG9RD2G2feuLcgTicwG2cI1BMFGhGZM11qXLZc1LReYzh90eLh0f-HoriqEoedfLLRDSgWffLRqQgKaslno1RbBTibtMTACpioEH42GCI9t1F6eeUIKgI4ZKMU-r6vo78Jaa2h6m-qHpwDVkTZCigFMnSTdcagnwxsHvnIUnr8HNF0uIjRePvdaXw5xIDPFMY_awT5hCqRxmpfC1V8F4FPfO5i44HGuwAj2ZXIeQrZvHEIQeGeASvHtjS6XQOv4qwyY12v0Bx4aT4U03QOxsPcgg_9KpoMFneHk4D-dTeeCJy5acIfEy2K663hAePIzcC-vDX_jWaDSsxj6zMbFBdfy83lxhELa-QRJkHrht8wtxaTRzIEj-f7K_qheVQTsF_C_kHowRVzkvCd0H9OWICy-5ftmTxHsTlgxZ0QoYIt82dJgDsazrTtPsTvv6_i0WCfTFSCS7VXf4CJaEns8KX4EZ8Wp5pPFK2Uu2Jc3qSnpELH7IZSotuuC39r3WV4M8pai9GP6b29obk0jN1smG-b5M0r5PjS2dEzlw11K5Y09ceQi3t3bo7ST55LHvEIX8eMvqPR2_hOkx26UkE0x1Hd3AzSDXJ5MIi1Ru5m00]--></g></svg>