<svg xmlns="http://www.w3.org/2000/svg" xmlns:xlink="http://www.w3.org/1999/xlink" contentStyleType="text/css" height="1757px" preserveAspectRatio="none" style="width:1439px;height:1757px;background:#FFFFFF;" version="1.1" viewBox="0 0 1439 1757" width="1439px" zoomAndPan="magnify"><title>&#38750;&#27861;&#25304;&#31105;&#32618;</title><defs/><g><text fill="#000000" font-family="sans-serif" font-size="14" font-weight="bold" lengthAdjust="spacing" textLength="72.1875" x="682.2407" y="34.5332">&#38750;&#27861;&#25304;&#31105;&#32618;</text><rect fill="#F1F1F1" height="37.6094" rx="12.5" ry="12.5" style="stroke:#181818;stroke-width:1.5;" width="90" x="10" y="878.1719"/><text fill="#000000" font-family="sans-serif" font-size="14" lengthAdjust="spacing" textLength="70" x="20" y="902.7051">&#38750;&#27861;&#25304;&#31105;&#32618;</text><rect fill="#F1F1F1" height="37.6094" rx="12.5" ry="12.5" style="stroke:#181818;stroke-width:1.5;" width="48" x="150" y="58.6094"/><text fill="#000000" font-family="sans-serif" font-size="14" lengthAdjust="spacing" textLength="28" x="160" y="83.1426">&#27861;&#30410;</text><rect fill="#F1F1F1" height="37.6094" rx="12.5" ry="12.5" style="stroke:#181818;stroke-width:1.5;" width="76" x="248" y="58.6094"/><text fill="#000000" font-family="sans-serif" font-size="14" lengthAdjust="spacing" textLength="56" x="258" y="83.1426">&#20154;&#36523;&#33258;&#30001;</text><path d="M198,77.4141 L208,77.4141 C223,77.4141 223,77.4141 238,77.4141 L248,77.4141 " fill="none" style="stroke:#181818;stroke-width:1;"/><path d="M100,896.9766 L110,896.9766 C125,896.9766 125,77.4141 140,77.4141 L150,77.4141 " fill="none" style="stroke:#181818;stroke-width:1;"/><rect fill="#F1F1F1" height="37.6094" rx="12.5" ry="12.5" style="stroke:#181818;stroke-width:1.5;" width="76" x="150" y="299.3281"/><text fill="#000000" font-family="sans-serif" font-size="14" lengthAdjust="spacing" textLength="56" x="160" y="323.8613">&#26500;&#25104;&#35201;&#20214;</text><rect fill="#F1F1F1" height="37.6094" rx="12.5" ry="12.5" style="stroke:#181818;stroke-width:1.5;" width="76" x="276" y="270.5234"/><text fill="#000000" font-family="sans-serif" font-size="14" lengthAdjust="spacing" textLength="56" x="286" y="295.0566">&#25304;&#31105;&#34892;&#20026;</text><rect fill="#F1F1F1" height="37.6094" rx="12.5" ry="12.5" style="stroke:#181818;stroke-width:1.5;" width="76" x="402" y="118.7891"/><text fill="#000000" font-family="sans-serif" font-size="14" lengthAdjust="spacing" textLength="56" x="412" y="143.3223">&#21046;&#36896;&#21361;&#38505;</text><rect fill="#F1F1F1" height="42.75" rx="12.5" ry="12.5" style="stroke:#181818;stroke-width:1.5;" width="408.8896" x="528" y="116.2188"/><text fill="#000000" font-family="sans-serif" font-size="14" lengthAdjust="spacing" textLength="364" x="538" y="145.8926">&#39550;&#39542;&#27773;&#36710;&#24555;&#36895;&#34892;&#39542;&#65292;&#20351;&#27442;&#19979;&#36710;&#30340;&#20056;&#23458;&#22522;&#20110;&#24656;&#24807;&#24515;&#29702;&#26080;&#27861;&#19979;&#36710;</text><path d="M925.9907,127.0208 C925.1793,126.4947 924.0961,126.7257 923.5705,127.5365 L913.7646,142.6513 L908.9825,138.2296 C908.2726,137.5733 907.166,137.6165 906.5097,138.3264 C905.8535,139.0358 905.8966,140.1435 906.6066,140.7992 L912.8856,146.6045 C913.0658,146.7597 913.0658,146.7597 913.1492,146.8139 C913.4432,147.0053 913.7734,147.0963 914.1001,147.0963 C914.6729,147.0963 915.2346,146.8151 915.5701,146.2983 L926.5064,129.4411 C927.0326,128.6303 926.8016,127.5464 925.9907,127.0208 " fill="#5FED5F" style="stroke:;stroke-width:0;stroke-dasharray:;"/><path d="M478,137.5938 L488,137.5938 C503,137.5938 503,137.5938 518,137.5938 L528,137.5938 " fill="none" style="stroke:#181818;stroke-width:1;"/><path d="M352,289.3281 L362,289.3281 C377,289.3281 377,137.5938 392,137.5938 L402,137.5938 " fill="none" style="stroke:#181818;stroke-width:1;"/><rect fill="#F1F1F1" height="37.6094" rx="12.5" ry="12.5" style="stroke:#181818;stroke-width:1.5;" width="132" x="402" y="181.5391"/><text fill="#000000" font-family="sans-serif" font-size="14" lengthAdjust="spacing" textLength="112" x="412" y="206.0723">&#24050;&#28982;&#21361;&#38505;&#65292;&#19981;&#20316;&#20026;</text><rect fill="#F1F1F1" height="42.75" rx="12.5" ry="12.5" style="stroke:#181818;stroke-width:1.5;" width="282.8896" x="584" y="178.9688"/><text fill="#000000" font-family="sans-serif" font-size="14" lengthAdjust="spacing" textLength="238" x="594" y="208.6426">&#21457;&#29616;&#23558;&#21516;&#23398;&#38169;&#20851;&#22312;&#25151;&#38388;&#65292;&#21364;&#25925;&#24847;&#19981;&#24320;&#38376;</text><path d="M855.9907,189.7708 C855.1793,189.2447 854.0961,189.4757 853.5705,190.2865 L843.7646,205.4013 L838.9825,200.9796 C838.2726,200.3233 837.166,200.3665 836.5097,201.0764 C835.8535,201.7858 835.8966,202.8935 836.6066,203.5492 L842.8856,209.3545 C843.0658,209.5097 843.0658,209.5097 843.1492,209.5639 C843.4432,209.7553 843.7734,209.8463 844.1001,209.8463 C844.6729,209.8463 845.2346,209.5651 845.5701,209.0483 L856.5064,192.1911 C857.0326,191.3803 856.8016,190.2964 855.9907,189.7708 " fill="#5FED5F" style="stroke:;stroke-width:0;stroke-dasharray:;"/><rect fill="#F1F1F1" height="37.6094" rx="12.5" ry="12.5" style="stroke:#181818;stroke-width:1.5;" width="174" x="916.8896" y="181.5391"/><text fill="#000000" font-family="sans-serif" font-size="14" lengthAdjust="spacing" textLength="154" x="926.8896" y="206.0723">&#26500;&#25104;&#19981;&#20316;&#20026;&#30340;&#38750;&#27861;&#25304;&#31105;&#32618;</text><path d="M866.8896,200.3438 L876.8896,200.3438 C891.8896,200.3438 891.8896,200.3438 906.8896,200.3438 L916.8896,200.3438 " fill="none" style="stroke:#181818;stroke-width:1;"/><path d="M534,200.3438 L544,200.3438 C559,200.3438 559,200.3438 574,200.3438 L584,200.3438 " fill="none" style="stroke:#181818;stroke-width:1;"/><path d="M352,289.3281 L362,289.3281 C377,289.3281 377,200.3438 392,200.3438 L402,200.3438 " fill="none" style="stroke:#181818;stroke-width:1;"/><rect fill="#F1F1F1" height="37.6094" rx="12.5" ry="12.5" style="stroke:#181818;stroke-width:1.5;" width="118" x="402" y="333.2734"/><text fill="#000000" font-family="sans-serif" font-size="14" lengthAdjust="spacing" textLength="98" x="412" y="357.8066">&#34394;&#20551;&#21361;&#38505;&#65292;&#27450;&#39575;</text><rect fill="#F1F1F1" height="37.6094" rx="12.5" ry="12.5" style="stroke:#181818;stroke-width:1.5;" width="48" x="570" y="270.5234"/><text fill="#000000" font-family="sans-serif" font-size="14" lengthAdjust="spacing" textLength="28" x="580" y="295.0566">&#20182;&#20154;</text><rect fill="#F1F1F1" height="42.75" rx="12.5" ry="12.5" style="stroke:#181818;stroke-width:1.5;" width="226.8896" x="668" y="267.9531"/><text fill="#000000" font-family="sans-serif" font-size="14" lengthAdjust="spacing" textLength="182" x="678" y="297.627">&#21521;&#35686;&#23519;&#25253;&#20551;&#26696;&#65292;&#21009;&#20107;&#25304;&#30041;&#20182;&#20154;</text><path d="M883.9907,278.7552 C883.1793,278.229 882.0961,278.46 881.5705,279.2709 L871.7646,294.3856 L866.9825,289.964 C866.2726,289.3077 865.166,289.3509 864.5097,290.0608 C863.8535,290.7701 863.8966,291.8779 864.6066,292.5335 L870.8856,298.3389 C871.0658,298.494 871.0658,298.494 871.1492,298.5483 C871.4432,298.7396 871.7734,298.8306 872.1001,298.8306 C872.6729,298.8306 873.2346,298.5495 873.5701,298.0326 L884.5064,281.1755 C885.0326,280.3646 884.8016,279.2808 883.9907,278.7552 " fill="#5FED5F" style="stroke:;stroke-width:0;stroke-dasharray:;"/><rect fill="#F1F1F1" height="37.6094" rx="12.5" ry="12.5" style="stroke:#181818;stroke-width:1.5;" width="160" x="944.8896" y="241.7188"/><text fill="#000000" font-family="sans-serif" font-size="14" lengthAdjust="spacing" textLength="140" x="954.8896" y="266.252">&#38750;&#27861;&#25304;&#31105;&#32618;&#30340;&#38388;&#25509;&#27491;&#29359;</text><path d="M894.8896,289.3281 L904.8896,289.3281 C919.8896,289.3281 919.8896,260.5234 934.8896,260.5234 L944.8896,260.5234 " fill="none" style="stroke:#181818;stroke-width:1;"/><rect fill="#F1F1F1" height="37.6094" rx="12.5" ry="12.5" style="stroke:#181818;stroke-width:1.5;" width="90" x="944.8896" y="299.3281"/><text fill="#000000" font-family="sans-serif" font-size="14" lengthAdjust="spacing" textLength="70" x="954.8896" y="323.8613">&#35820;&#21578;&#38519;&#23475;&#32618;</text><path d="M894.8896,289.3281 L904.8896,289.3281 C919.8896,289.3281 919.8896,318.1328 934.8896,318.1328 L944.8896,318.1328 " fill="none" style="stroke:#181818;stroke-width:1;"/><path d="M618,289.3281 L628,289.3281 C643,289.3281 643,289.3281 658,289.3281 L668,289.3281 " fill="none" style="stroke:#181818;stroke-width:1;"/><path d="M520,352.0781 L530,352.0781 C545,352.0781 545,289.3281 560,289.3281 L570,289.3281 " fill="none" style="stroke:#181818;stroke-width:1;"/><rect fill="#F1F1F1" height="37.6094" rx="12.5" ry="12.5" style="stroke:#181818;stroke-width:1.5;" width="62" x="570" y="390.8828"/><text fill="#000000" font-family="sans-serif" font-size="14" lengthAdjust="spacing" textLength="42" x="580" y="415.416">&#34987;&#23475;&#20154;</text><rect fill="#F1F1F1" height="37.6094" rx="12.5" ry="12.5" style="stroke:#181818;stroke-width:1.5;" width="104" x="682" y="359.5078"/><text fill="#000000" font-family="sans-serif" font-size="14" lengthAdjust="spacing" textLength="84" x="692" y="384.041">&#20107;&#23454;&#35748;&#35782;&#38169;&#35823;</text><rect fill="#F1F1F1" height="42.75" rx="12.5" ry="12.5" style="stroke:#181818;stroke-width:1.5;" width="450.8896" x="836" y="356.9375"/><text fill="#000000" font-family="sans-serif" font-size="14" lengthAdjust="spacing" textLength="406" x="846" y="386.6113">&#30002;&#27450;&#39575;&#20057;&#36827;&#30005;&#26799;&#21518;&#20851;&#38381;&#30005;&#28304;&#65292;&#23548;&#33268;&#20057;&#20986;&#19981;&#21435;&#12290;&#30002;&#23545;&#20057;&#35854;&#31216;&#30005;&#26799;&#32500;&#20462;</text><path d="M1275.9907,367.7396 C1275.1793,367.2134 1274.0961,367.4444 1273.5705,368.2553 L1263.7646,383.37 L1258.9825,378.9483 C1258.2726,378.2921 1257.166,378.3353 1256.5097,379.0452 C1255.8535,379.7545 1255.8966,380.8623 1256.6066,381.5179 L1262.8856,387.3233 C1263.0658,387.4784 1263.0658,387.4784 1263.1492,387.5327 C1263.4432,387.724 1263.7734,387.815 1264.1001,387.815 C1264.6729,387.815 1265.2346,387.5338 1265.5701,387.017 L1276.5064,370.1598 C1277.0326,369.349 1276.8016,368.2652 1275.9907,367.7396 " fill="#5FED5F" style="stroke:;stroke-width:0;stroke-dasharray:;"/><path d="M786,378.3125 L796,378.3125 C811,378.3125 811,378.3125 826,378.3125 L836,378.3125 " fill="none" style="stroke:#181818;stroke-width:1;"/><path d="M632,409.6875 L642,409.6875 C657,409.6875 657,378.3125 672,378.3125 L682,378.3125 " fill="none" style="stroke:#181818;stroke-width:1;"/><rect fill="#F1F1F1" height="37.6094" rx="12.5" ry="12.5" style="stroke:#181818;stroke-width:1.5;" width="76" x="682" y="422.2578"/><text fill="#000000" font-family="sans-serif" font-size="14" lengthAdjust="spacing" textLength="56" x="692" y="446.791">&#21160;&#26426;&#38169;&#35823;</text><rect fill="#F1F1F1" height="42.75" rx="12.5" ry="12.5" style="stroke:#181818;stroke-width:1.5;" width="310.8896" x="808" y="419.6875"/><text fill="#000000" font-family="sans-serif" font-size="14" lengthAdjust="spacing" textLength="266" x="818" y="449.3613">&#30002;&#27450;&#39575;&#20057;&#20570;&#20307;&#26816;&#65292;&#35753;&#20057;&#19981;&#35201;&#20986;&#21435;&#65292;&#38376;&#27809;&#26377;&#38145;</text><path d="M1100.4506,440.1887 L1107.5876,433.0522 C1108.157,432.4828 1108.157,431.5594 1107.5876,430.9901 C1107.0177,430.4202 1106.0949,430.4202 1105.5256,430.9901 L1098.3885,438.1266 L1091.252,430.9901 C1090.6826,430.4202 1089.7586,430.4202 1089.1899,430.9901 C1088.62,431.5594 1088.62,432.4828 1089.1899,433.0522 L1096.3264,440.1887 L1089.1736,447.3421 C1088.6036,447.912 1088.6036,448.8348 1089.1736,449.4042 C1089.4582,449.6888 1089.8316,449.8312 1090.2049,449.8312 C1090.5782,449.8312 1090.9516,449.6888 1091.2362,449.4042 L1098.3891,442.2508 L1105.5256,449.3873 C1105.8102,449.6719 1106.1836,449.8143 1106.5569,449.8143 C1106.9302,449.8143 1107.303,449.6719 1107.5882,449.3873 C1108.1576,448.8173 1108.1576,447.8945 1107.5882,447.3252 L1100.4506,440.1887 " fill="#FE0000" style="stroke:;stroke-width:0;stroke-dasharray:;"/><path d="M758,441.0625 L768,441.0625 C783,441.0625 783,441.0625 798,441.0625 L808,441.0625 " fill="none" style="stroke:#181818;stroke-width:1;"/><path d="M632,409.6875 L642,409.6875 C657,409.6875 657,441.0625 672,441.0625 L682,441.0625 " fill="none" style="stroke:#181818;stroke-width:1;"/><path d="M520,352.0781 L530,352.0781 C545,352.0781 545,409.6875 560,409.6875 L570,409.6875 " fill="none" style="stroke:#181818;stroke-width:1;"/><path d="M352,289.3281 L362,289.3281 C377,289.3281 377,352.0781 392,352.0781 L402,352.0781 " fill="none" style="stroke:#181818;stroke-width:1;"/><path d="M226,318.1328 L236,318.1328 C251,318.1328 251,289.3281 266,289.3281 L276,289.3281 " fill="none" style="stroke:#181818;stroke-width:1;"/><rect fill="#F1F1F1" height="37.6094" rx="12.5" ry="12.5" style="stroke:#181818;stroke-width:1.5;" width="76" x="276" y="482.4375"/><text fill="#000000" font-family="sans-serif" font-size="14" lengthAdjust="spacing" textLength="56" x="286" y="506.9707">&#25304;&#31105;&#26102;&#38388;</text><rect fill="#F1F1F1" height="37.6094" rx="12.5" ry="12.5" style="stroke:#181818;stroke-width:1.5;" width="161.5723" x="402" y="482.4375"/><text fill="#000000" font-family="sans-serif" font-size="14" lengthAdjust="spacing" textLength="141.5723" x="412" y="506.9707">&#19968;&#33324;&#24773;&#20917;&#65292;&#22823;&#20110;24&#23567;&#26102;</text><path d="M352,501.2422 L362,501.2422 C377,501.2422 377,501.2422 392,501.2422 L402,501.2422 " fill="none" style="stroke:#181818;stroke-width:1;"/><path d="M226,318.1328 L236,318.1328 C251,318.1328 251,501.2422 266,501.2422 L276,501.2422 " fill="none" style="stroke:#181818;stroke-width:1;"/><path d="M100,896.9766 L110,896.9766 C125,896.9766 125,318.1328 140,318.1328 L150,318.1328 " fill="none" style="stroke:#181818;stroke-width:1;"/><rect fill="#F1F1F1" height="37.6094" rx="12.5" ry="12.5" style="stroke:#181818;stroke-width:1.5;" width="118" x="150" y="888.4531"/><text fill="#000000" font-family="sans-serif" font-size="14" lengthAdjust="spacing" textLength="98" x="160" y="912.9863">&#27861;&#23450;&#21009;&#21319;&#26684;&#26465;&#20214;</text><rect fill="#F1F1F1" height="37.6094" rx="12.5" ry="12.5" style="stroke:#181818;stroke-width:1.5;" width="76" x="318" y="830.8438"/><text fill="#000000" font-family="sans-serif" font-size="14" lengthAdjust="spacing" textLength="56" x="328" y="855.377">&#19968;&#20010;&#34892;&#20026;</text><rect fill="#F1F1F1" height="37.6094" rx="12.5" ry="12.5" style="stroke:#181818;stroke-width:1.5;" width="48" x="444" y="540.0469"/><text fill="#000000" font-family="sans-serif" font-size="14" lengthAdjust="spacing" textLength="28" x="454" y="564.5801">&#34892;&#20026;</text><rect fill="#F1F1F1" height="37.6094" rx="12.5" ry="12.5" style="stroke:#181818;stroke-width:1.5;" width="160" x="542" y="540.0469"/><text fill="#000000" font-family="sans-serif" font-size="14" lengthAdjust="spacing" textLength="140" x="552" y="564.5801">&#38750;&#27861;&#25304;&#31105;&#32618;&#30340;&#23454;&#34892;&#34892;&#20026;</text><path d="M492,558.8516 L502,558.8516 C517,558.8516 517,558.8516 532,558.8516 L542,558.8516 " fill="none" style="stroke:#181818;stroke-width:1;"/><path d="M394,849.6484 L404,849.6484 C419,849.6484 419,558.8516 434,558.8516 L444,558.8516 " fill="none" style="stroke:#181818;stroke-width:1;"/><rect fill="#90EE90" height="37.6094" rx="12.5" ry="12.5" style="stroke:#181818;stroke-width:1.5;" width="93.8896" x="444" y="859.6484"/><text fill="#000000" font-family="sans-serif" font-size="14" lengthAdjust="spacing" textLength="70" x="454" y="884.1816">&#32467;&#26524;&#21152;&#37325;&#29359;</text><rect fill="#90EE90" height="37.6094" rx="12.5" ry="12.5" style="stroke:#181818;stroke-width:1.5;" width="37.8896" x="587.8896" y="637.8359"/><text fill="#000000" font-family="sans-serif" font-size="14" lengthAdjust="spacing" textLength="14" x="597.8896" y="662.3691">&#22240;</text><rect fill="#90EE90" height="37.6094" rx="12.5" ry="12.5" style="stroke:#181818;stroke-width:1.5;" width="177.8896" x="675.7793" y="597.6563"/><text fill="#000000" font-family="sans-serif" font-size="14" lengthAdjust="spacing" textLength="154" x="685.7793" y="622.1895">&#34892;&#20026;&#19982;&#30446;&#30340;&#21516;&#26102;&#23384;&#22312;&#21407;&#21017;</text><path d="M625.7793,656.6406 L635.7793,656.6406 C650.7793,656.6406 650.7793,616.4609 665.7793,616.4609 L675.7793,616.4609 " fill="none" style="stroke:#181818;stroke-width:1;"/><rect fill="#F1F1F1" height="60.3594" rx="12.5" ry="12.5" style="stroke:#181818;stroke-width:1.5;" width="286" x="675.7793" y="655.2656"/><text fill="#000000" font-family="sans-serif" font-size="14" lengthAdjust="spacing" textLength="266" x="685.7793" y="679.7988">&#30002;&#38750;&#27861;&#25304;&#31105;&#20057;&#20004;&#22825;&#65292;&#24050;&#32463;&#26500;&#25104;&#38750;&#27861;&#25304;&#31105;&#32618;&#12290;</text><text fill="#000000" font-family="sans-serif" font-size="14" lengthAdjust="spacing" textLength="238" x="685.7793" y="702.5488">&#31532;&#19977;&#22825;&#65292;&#30001;&#20110;&#32499;&#23376;&#32465;&#30340;&#22826;&#32039;&#65292;&#20057;&#27515;&#20129;&#12290;</text><path d="M947.77,683.6771 C946.9586,683.1509 945.8754,683.3819 945.3498,684.1928 L935.5439,699.3075 L930.7618,694.8858 C930.0519,694.2296 928.9453,694.2728 928.289,694.9827 C927.6328,695.692 927.6759,696.7998 928.3859,697.4554 L934.6649,703.2608 C934.8451,703.4159 934.8451,703.4159 934.9285,703.4702 C935.2225,703.6615 935.5527,703.7525 935.8794,703.7525 C936.4522,703.7525 937.0139,703.4713 937.3494,702.9545 L948.2857,686.0973 C948.8119,685.2865 948.5809,684.2027 947.77,683.6771 " fill="#5FED5F" style="stroke:;stroke-width:0;stroke-dasharray:;"/><path d="M625.7793,656.6406 L635.7793,656.6406 C650.7793,656.6406 650.7793,685.4453 665.7793,685.4453 L675.7793,685.4453 " fill="none" style="stroke:#181818;stroke-width:1;"/><path d="M537.8896,878.4531 L547.8896,878.4531 C562.8896,878.4531 562.8896,656.6406 577.8896,656.6406 L587.8896,656.6406 " fill="none" style="stroke:#181818;stroke-width:1;"/><rect fill="#90EE90" height="37.6094" rx="12.5" ry="12.5" style="stroke:#181818;stroke-width:1.5;" width="79.8896" x="587.8896" y="813.4141"/><text fill="#000000" font-family="sans-serif" font-size="14" lengthAdjust="spacing" textLength="56" x="597.8896" y="837.9473">&#22240;&#26524;&#20851;&#31995;</text><rect fill="#90EE90" height="37.6094" rx="12.5" ry="12.5" style="stroke:#181818;stroke-width:1.5;" width="79.8896" x="717.7793" y="813.4141"/><text fill="#000000" font-family="sans-serif" font-size="14" lengthAdjust="spacing" textLength="56" x="727.7793" y="837.9473">&#20171;&#20837;&#22240;&#32032;</text><rect fill="#F1F1F1" height="37.6094" rx="12.5" ry="12.5" style="stroke:#181818;stroke-width:1.5;" width="48" x="847.6689" y="764.4297"/><text fill="#000000" font-family="sans-serif" font-size="14" lengthAdjust="spacing" textLength="28" x="857.6689" y="788.9629">&#24322;&#24120;</text><rect fill="#F1F1F1" height="60.3594" rx="12.5" ry="12.5" style="stroke:#181818;stroke-width:1.5;" width="272" x="945.6689" y="753.0547"/><text fill="#000000" font-family="sans-serif" font-size="14" lengthAdjust="spacing" textLength="252" x="955.6689" y="777.5879">&#30002;&#20026;&#20102;&#32034;&#20538;&#65292;&#23558;&#20057;&#20851;&#22312;&#23627;&#23376;&#37324;&#65292;&#30002;&#22806;&#20986;&#12290;</text><text fill="#000000" font-family="sans-serif" font-size="14" lengthAdjust="spacing" textLength="210" x="955.6689" y="800.3379">&#20057;&#24863;&#35273;&#26080;&#21147;&#36824;&#20538;&#65292;&#36339;&#27004;&#33258;&#26432;&#36523;&#20129;&#12290;</text><path d="M1182.1195,791.1652 L1189.2566,784.0287 C1189.8259,783.4594 1189.8259,782.536 1189.2566,781.9666 C1188.6867,781.3967 1187.7638,781.3967 1187.1945,781.9666 L1180.0574,789.1031 L1172.9209,781.9666 C1172.3516,781.3967 1171.4276,781.3967 1170.8588,781.9666 C1170.2889,782.536 1170.2889,783.4594 1170.8588,784.0287 L1177.9953,791.1652 L1170.8425,798.3186 C1170.2726,798.8886 1170.2726,799.8114 1170.8425,800.3807 C1171.1272,800.6654 1171.5005,800.8077 1171.8738,800.8077 C1172.2472,800.8077 1172.6205,800.6654 1172.9052,800.3807 L1180.058,793.2273 L1187.1945,800.3638 C1187.4792,800.6485 1187.8525,800.7908 1188.2258,800.7908 C1188.5992,800.7908 1188.9719,800.6485 1189.2572,800.3638 C1189.8265,799.7939 1189.8265,798.8711 1189.2572,798.3017 L1182.1195,791.1652 " fill="#FE0000" style="stroke:;stroke-width:0;stroke-dasharray:;"/><rect fill="#F1F1F1" height="37.6094" rx="12.5" ry="12.5" style="stroke:#181818;stroke-width:1.5;" width="160" x="1267.6689" y="735.625"/><text fill="#000000" font-family="sans-serif" font-size="14" lengthAdjust="spacing" textLength="140" x="1277.6689" y="760.1582">&#20171;&#20837;&#22240;&#32032;&#24322;&#24120;&#65292;&#20316;&#29992;&#22823;</text><path d="M1217.6689,783.2344 L1227.6689,783.2344 C1242.6689,783.2344 1242.6689,754.4297 1257.6689,754.4297 L1267.6689,754.4297 " fill="none" style="stroke:#181818;stroke-width:1;"/><rect fill="#90EE90" height="37.6094" rx="12.5" ry="12.5" style="stroke:#181818;stroke-width:1.5;" width="121.8896" x="1267.6689" y="793.2344"/><text fill="#000000" font-family="sans-serif" font-size="14" lengthAdjust="spacing" textLength="98" x="1277.6689" y="817.7676">&#34987;&#23475;&#20154;&#33258;&#38519;&#21361;&#38505;</text><path d="M1217.6689,783.2344 L1227.6689,783.2344 C1242.6689,783.2344 1242.6689,812.0391 1257.6689,812.0391 L1267.6689,812.0391 " fill="none" style="stroke:#181818;stroke-width:1;"/><path d="M895.6689,783.2344 L905.6689,783.2344 C920.6689,783.2344 920.6689,783.2344 935.6689,783.2344 L945.6689,783.2344 " fill="none" style="stroke:#181818;stroke-width:1;"/><path d="M797.6689,832.2188 L807.6689,832.2188 C822.6689,832.2188 822.6689,783.2344 837.6689,783.2344 L847.6689,783.2344 " fill="none" style="stroke:#181818;stroke-width:1;"/><rect fill="#F1F1F1" height="37.6094" rx="12.5" ry="12.5" style="stroke:#181818;stroke-width:1.5;" width="62" x="847.6689" y="871.0234"/><text fill="#000000" font-family="sans-serif" font-size="14" lengthAdjust="spacing" textLength="42" x="857.6689" y="895.5566">&#19981;&#24322;&#24120;</text><rect fill="#F1F1F1" height="77.9688" rx="12.5" ry="12.5" style="stroke:#181818;stroke-width:1.5;" width="216" x="959.6689" y="850.8438"/><text fill="#000000" font-family="sans-serif" font-size="14" lengthAdjust="spacing" textLength="196" x="969.6689" y="875.377">&#30002;&#20026;&#20102;&#32034;&#20538;&#65292;&#23558;&#20057;&#20851;&#22312;&#23627;&#23376;&#37324;&#12290;</text><text fill="#000000" font-family="sans-serif" font-size="14" lengthAdjust="spacing" textLength="154" x="969.6689" y="892.9863">&#20057;&#36867;&#33073;&#65292;&#30002;&#21457;&#29616;&#21518;&#32039;&#36861;&#65292;</text><text fill="#000000" font-family="sans-serif" font-size="14" lengthAdjust="spacing" textLength="168" x="969.6689" y="915.7363">&#20057;&#36305;&#21521;&#38451;&#21488;&#19981;&#24910;&#36300;&#33853;&#25684;&#27515;&#12290;</text><path d="M1161.6597,896.8646 C1160.8483,896.3384 1159.765,896.5694 1159.2394,897.3803 L1149.4336,912.495 L1144.6514,908.0733 C1143.9415,907.4171 1142.8349,907.4603 1142.1787,908.1702 C1141.5224,908.8795 1141.5656,909.9873 1142.2755,910.6429 L1148.5545,916.4483 C1148.7348,916.6034 1148.7348,916.6034 1148.8182,916.6577 C1149.1122,916.849 1149.4423,916.94 1149.769,916.94 C1150.3418,916.94 1150.9036,916.6588 1151.239,916.142 L1162.1753,899.2848 C1162.7015,898.474 1162.4705,897.3902 1161.6597,896.8646 " fill="#5FED5F" style="stroke:;stroke-width:0;stroke-dasharray:;"/><path d="M909.6689,889.8281 L919.6689,889.8281 C934.6689,889.8281 934.6689,889.8281 949.6689,889.8281 L959.6689,889.8281 " fill="none" style="stroke:#181818;stroke-width:1;"/><path d="M797.6689,832.2188 L807.6689,832.2188 C822.6689,832.2188 822.6689,889.8281 837.6689,889.8281 L847.6689,889.8281 " fill="none" style="stroke:#181818;stroke-width:1;"/><path d="M667.7793,832.2188 L677.7793,832.2188 C692.7793,832.2188 692.7793,832.2188 707.7793,832.2188 L717.7793,832.2188 " fill="none" style="stroke:#181818;stroke-width:1;"/><path d="M537.8896,878.4531 L547.8896,878.4531 C562.8896,878.4531 562.8896,832.2188 577.8896,832.2188 L587.8896,832.2188 " fill="none" style="stroke:#181818;stroke-width:1;"/><rect fill="#F1F1F1" height="37.6094" rx="12.5" ry="12.5" style="stroke:#181818;stroke-width:1.5;" width="48" x="587.8896" y="1035.2266"/><text fill="#000000" font-family="sans-serif" font-size="14" lengthAdjust="spacing" textLength="28" x="597.8896" y="1059.7598">&#20027;&#35266;</text><rect fill="#90EE90" height="37.6094" rx="12.5" ry="12.5" style="stroke:#181818;stroke-width:1.5;" width="51.8896" x="685.8896" y="948.8125"/><text fill="#000000" font-family="sans-serif" font-size="14" lengthAdjust="spacing" textLength="28" x="695.8896" y="973.3457">&#36807;&#22833;</text><rect fill="#F1F1F1" height="37.6094" rx="12.5" ry="12.5" style="stroke:#181818;stroke-width:1.5;" width="90" x="787.7793" y="948.8125"/><text fill="#000000" font-family="sans-serif" font-size="14" lengthAdjust="spacing" textLength="70" x="797.7793" y="973.3457">&#32467;&#26524;&#21152;&#37325;&#29359;</text><path d="M737.7793,967.6172 L747.7793,967.6172 C762.7793,967.6172 762.7793,967.6172 777.7793,967.6172 L787.7793,967.6172 " fill="none" style="stroke:#181818;stroke-width:1;"/><path d="M635.8896,1054.0313 L645.8896,1054.0313 C660.8896,1054.0313 660.8896,967.6172 675.8896,967.6172 L685.8896,967.6172 " fill="none" style="stroke:#181818;stroke-width:1;"/><rect fill="#FFA500" height="37.6094" rx="12.5" ry="12.5" style="stroke:#181818;stroke-width:1.5;" width="51.8896" x="685.8896" y="1064.0313"/><text fill="#000000" font-family="sans-serif" font-size="14" lengthAdjust="spacing" textLength="28" x="695.8896" y="1088.5645">&#25925;&#24847;</text><rect fill="#F1F1F1" height="77.9688" rx="12.5" ry="12.5" style="stroke:#181818;stroke-width:1.5;" width="146" x="787.7793" y="1043.8516"/><text fill="#000000" font-family="sans-serif" font-size="14" lengthAdjust="spacing" textLength="126" x="797.7793" y="1068.3848">&#30002;&#20026;&#20102;&#38750;&#27861;&#25304;&#31105;&#20057;&#65292;</text><text fill="#000000" font-family="sans-serif" font-size="14" lengthAdjust="spacing" textLength="126" x="797.7793" y="1085.9941">&#22823;&#21147;&#21453;&#25197;&#20057;&#30340;&#33011;&#33162;&#65292;</text><text fill="#000000" font-family="sans-serif" font-size="14" lengthAdjust="spacing" textLength="98" x="797.7793" y="1108.7441">&#20057;&#30340;&#33011;&#33162;&#25240;&#26029;&#12290;</text><path d="M912.2299,1099.5715 L919.3669,1092.435 C919.9363,1091.8656 919.9363,1090.9422 919.3669,1090.3729 C918.797,1089.803 917.8742,1089.803 917.3049,1090.3729 L910.1678,1097.5094 L903.0313,1090.3729 C902.4619,1089.803 901.5379,1089.803 900.9692,1090.3729 C900.3993,1090.9422 900.3993,1091.8656 900.9692,1092.435 L908.1057,1099.5715 L900.9529,1106.7249 C900.3829,1107.2948 900.3829,1108.2176 900.9529,1108.787 C901.2375,1109.0716 901.6109,1109.214 901.9842,1109.214 C902.3575,1109.214 902.7309,1109.0716 903.0155,1108.787 L910.1684,1101.6336 L917.3049,1108.7701 C917.5895,1109.0547 917.9629,1109.1971 918.3362,1109.1971 C918.7095,1109.1971 919.0823,1109.0547 919.3675,1108.7701 C919.9369,1108.2001 919.9369,1107.2773 919.3675,1106.708 L912.2299,1099.5715 " fill="#FE0000" style="stroke:;stroke-width:0;stroke-dasharray:;"/><rect fill="#F1F1F1" height="37.6094" rx="12.5" ry="12.5" style="stroke:#181818;stroke-width:1.5;" width="146" x="983.7793" y="1035.2266"/><text fill="#000000" font-family="sans-serif" font-size="14" lengthAdjust="spacing" textLength="126" x="993.7793" y="1059.7598">&#24819;&#35937;&#31454;&#21512;&#65292;&#25321;&#19968;&#37325;&#32618;</text><rect fill="#F1F1F1" height="37.6094" rx="12.5" ry="12.5" style="stroke:#181818;stroke-width:1.5;" width="90" x="1179.7793" y="1006.4219"/><text fill="#000000" font-family="sans-serif" font-size="14" lengthAdjust="spacing" textLength="70" x="1189.7793" y="1030.9551">&#38750;&#27861;&#25304;&#31105;&#32618;</text><path d="M1129.7793,1054.0313 L1139.7793,1054.0313 C1154.7793,1054.0313 1154.7793,1025.2266 1169.7793,1025.2266 L1179.7793,1025.2266 " fill="none" style="stroke:#181818;stroke-width:1;"/><rect fill="#F1F1F1" height="37.6094" rx="12.5" ry="12.5" style="stroke:#181818;stroke-width:1.5;" width="146" x="1179.7793" y="1064.0313"/><text fill="#000000" font-family="sans-serif" font-size="14" lengthAdjust="spacing" textLength="126" x="1189.7793" y="1088.5645">&#25925;&#24847;&#20260;&#23475;&#32618;&#65288;&#37325;&#20260;&#65289;</text><path d="M1129.7793,1054.0313 L1139.7793,1054.0313 C1154.7793,1054.0313 1154.7793,1082.8359 1169.7793,1082.8359 L1179.7793,1082.8359 " fill="none" style="stroke:#181818;stroke-width:1;"/><path d="M933.7793,1082.8359 L943.7793,1082.8359 C958.7793,1082.8359 958.7793,1054.0313 973.7793,1054.0313 L983.7793,1054.0313 " fill="none" style="stroke:#181818;stroke-width:1;"/><rect fill="#F1F1F1" height="37.6094" rx="12.5" ry="12.5" style="stroke:#181818;stroke-width:1.5;" width="160" x="983.7793" y="1121.6406"/><text fill="#000000" font-family="sans-serif" font-size="14" lengthAdjust="spacing" textLength="140" x="993.7793" y="1146.1738">&#23450;&#25925;&#24847;&#20260;&#23475;&#32618;&#65288;&#37325;&#20260;&#65289;</text><path d="M933.7793,1082.8359 L943.7793,1082.8359 C958.7793,1082.8359 958.7793,1140.4453 973.7793,1140.4453 L983.7793,1140.4453 " fill="none" style="stroke:#181818;stroke-width:1;"/><path d="M737.7793,1082.8359 L747.7793,1082.8359 C762.7793,1082.8359 762.7793,1082.8359 777.7793,1082.8359 L787.7793,1082.8359 " fill="none" style="stroke:#181818;stroke-width:1;"/><path d="M635.8896,1054.0313 L645.8896,1054.0313 C660.8896,1054.0313 660.8896,1082.8359 675.8896,1082.8359 L685.8896,1082.8359 " fill="none" style="stroke:#181818;stroke-width:1;"/><path d="M537.8896,878.4531 L547.8896,878.4531 C562.8896,878.4531 562.8896,1054.0313 577.8896,1054.0313 L587.8896,1054.0313 " fill="none" style="stroke:#181818;stroke-width:1;"/><path d="M394,849.6484 L404,849.6484 C419,849.6484 419,878.4531 434,878.4531 L444,878.4531 " fill="none" style="stroke:#181818;stroke-width:1;"/><path d="M268,907.2578 L278,907.2578 C293,907.2578 293,849.6484 308,849.6484 L318,849.6484 " fill="none" style="stroke:#181818;stroke-width:1;"/><rect fill="#F1F1F1" height="37.6094" rx="12.5" ry="12.5" style="stroke:#181818;stroke-width:1.5;" width="76" x="318" y="1208.0547"/><text fill="#000000" font-family="sans-serif" font-size="14" lengthAdjust="spacing" textLength="56" x="328" y="1232.5879">&#20004;&#20010;&#34892;&#20026;</text><rect fill="#F1F1F1" height="37.6094" rx="12.5" ry="12.5" style="stroke:#181818;stroke-width:1.5;" width="48" x="444" y="1179.25"/><text fill="#000000" font-family="sans-serif" font-size="14" lengthAdjust="spacing" textLength="28" x="454" y="1203.7832">&#34892;&#20026;</text><rect fill="#F1F1F1" height="37.6094" rx="12.5" ry="12.5" style="stroke:#181818;stroke-width:1.5;" width="203.9551" x="542" y="1179.25"/><text fill="#000000" font-family="sans-serif" font-size="14" lengthAdjust="spacing" textLength="183.9551" x="552" y="1203.7832">&#38750;&#27861;&#25304;&#31105;&#23454;&#34892;&#34892;&#20026; + &#26292;&#21147;&#34892;&#20026;</text><path d="M492,1198.0547 L502,1198.0547 C517,1198.0547 517,1198.0547 532,1198.0547 L542,1198.0547 " fill="none" style="stroke:#181818;stroke-width:1;"/><path d="M394,1226.8594 L404,1226.8594 C419,1226.8594 419,1198.0547 434,1198.0547 L444,1198.0547 " fill="none" style="stroke:#181818;stroke-width:1;"/><rect fill="#90EE90" height="37.6094" rx="12.5" ry="12.5" style="stroke:#181818;stroke-width:1.5;" width="79.8896" x="444" y="1236.8594"/><text fill="#000000" font-family="sans-serif" font-size="14" lengthAdjust="spacing" textLength="56" x="454" y="1261.3926">&#27861;&#24459;&#25311;&#21046;</text><rect fill="#F1F1F1" height="37.6094" rx="12.5" ry="12.5" style="stroke:#181818;stroke-width:1.5;" width="395.6895" x="573.8896" y="1236.8594"/><text fill="#000000" font-family="sans-serif" font-size="14" lengthAdjust="spacing" textLength="375.6895" x="583.8896" y="1261.3926">&#38750;&#27861;&#25304;&#31105;&#32618; + &#26292;&#21147;&#65288;&#36807;&#22833;&#65289;&#33268;&#20154;&#37325;&#20260;/&#27515;&#20129; = &#25925;&#24847;&#20260;&#23475;/&#26432;&#20154;&#32618;</text><path d="M523.8896,1255.6641 L533.8896,1255.6641 C548.8896,1255.6641 548.8896,1255.6641 563.8896,1255.6641 L573.8896,1255.6641 " fill="none" style="stroke:#181818;stroke-width:1;"/><path d="M394,1226.8594 L404,1226.8594 C419,1226.8594 419,1255.6641 434,1255.6641 L444,1255.6641 " fill="none" style="stroke:#181818;stroke-width:1;"/><path d="M268,907.2578 L278,907.2578 C293,907.2578 293,1226.8594 308,1226.8594 L318,1226.8594 " fill="none" style="stroke:#181818;stroke-width:1;"/><path d="M100,896.9766 L110,896.9766 C125,896.9766 125,907.2578 140,907.2578 L150,907.2578 " fill="none" style="stroke:#181818;stroke-width:1;"/><rect fill="#90EE90" height="37.6094" rx="12.5" ry="12.5" style="stroke:#181818;stroke-width:1.5;" width="51.8896" x="150" y="1496.1016"/><text fill="#000000" font-family="sans-serif" font-size="14" lengthAdjust="spacing" textLength="28" x="160" y="1520.6348">&#24635;&#32467;</text><rect fill="#F1F1F1" height="37.6094" rx="12.5" ry="12.5" style="stroke:#181818;stroke-width:1.5;" width="76" x="251.8896" y="1352.0781"/><text fill="#000000" font-family="sans-serif" font-size="14" lengthAdjust="spacing" textLength="56" x="261.8896" y="1376.6113">&#19968;&#20010;&#34892;&#20026;</text><rect fill="#F1F1F1" height="37.6094" rx="12.5" ry="12.5" style="stroke:#181818;stroke-width:1.5;" width="146" x="377.8896" y="1294.4688"/><text fill="#000000" font-family="sans-serif" font-size="14" lengthAdjust="spacing" textLength="126" x="387.8896" y="1319.002">&#38750;&#27861;&#25304;&#31105;&#30340;&#23454;&#34892;&#34892;&#20026;</text><path d="M327.8896,1370.8828 L337.8896,1370.8828 C352.8896,1370.8828 352.8896,1313.2734 367.8896,1313.2734 L377.8896,1313.2734 " fill="none" style="stroke:#181818;stroke-width:1;"/><rect fill="#F1F1F1" height="37.6094" rx="12.5" ry="12.5" style="stroke:#181818;stroke-width:1.5;" width="48" x="377.8896" y="1380.8828"/><text fill="#000000" font-family="sans-serif" font-size="14" lengthAdjust="spacing" textLength="28" x="387.8896" y="1405.416">&#20027;&#35266;</text><rect fill="#F1F1F1" height="37.6094" rx="12.5" ry="12.5" style="stroke:#181818;stroke-width:1.5;" width="48" x="475.8896" y="1352.0781"/><text fill="#000000" font-family="sans-serif" font-size="14" lengthAdjust="spacing" textLength="28" x="485.8896" y="1376.6113">&#36807;&#22833;</text><rect fill="#F1F1F1" height="37.6094" rx="12.5" ry="12.5" style="stroke:#181818;stroke-width:1.5;" width="90" x="573.8896" y="1352.0781"/><text fill="#000000" font-family="sans-serif" font-size="14" lengthAdjust="spacing" textLength="70" x="583.8896" y="1376.6113">&#32467;&#26524;&#21152;&#37325;&#29359;</text><path d="M523.8896,1370.8828 L533.8896,1370.8828 C548.8896,1370.8828 548.8896,1370.8828 563.8896,1370.8828 L573.8896,1370.8828 " fill="none" style="stroke:#181818;stroke-width:1;"/><path d="M425.8896,1399.6875 L435.8896,1399.6875 C450.8896,1399.6875 450.8896,1370.8828 465.8896,1370.8828 L475.8896,1370.8828 " fill="none" style="stroke:#181818;stroke-width:1;"/><rect fill="#F1F1F1" height="37.6094" rx="12.5" ry="12.5" style="stroke:#181818;stroke-width:1.5;" width="48" x="475.8896" y="1409.6875"/><text fill="#000000" font-family="sans-serif" font-size="14" lengthAdjust="spacing" textLength="28" x="485.8896" y="1434.2207">&#25925;&#24847;</text><rect fill="#F1F1F1" height="37.6094" rx="12.5" ry="12.5" style="stroke:#181818;stroke-width:1.5;" width="76" x="573.8896" y="1409.6875"/><text fill="#000000" font-family="sans-serif" font-size="14" lengthAdjust="spacing" textLength="56" x="583.8896" y="1434.2207">&#24819;&#35937;&#31454;&#21512;</text><path d="M523.8896,1428.4922 L533.8896,1428.4922 C548.8896,1428.4922 548.8896,1428.4922 563.8896,1428.4922 L573.8896,1428.4922 " fill="none" style="stroke:#181818;stroke-width:1;"/><path d="M425.8896,1399.6875 L435.8896,1399.6875 C450.8896,1399.6875 450.8896,1428.4922 465.8896,1428.4922 L475.8896,1428.4922 " fill="none" style="stroke:#181818;stroke-width:1;"/><path d="M327.8896,1370.8828 L337.8896,1370.8828 C352.8896,1370.8828 352.8896,1399.6875 367.8896,1399.6875 L377.8896,1399.6875 " fill="none" style="stroke:#181818;stroke-width:1;"/><path d="M201.8896,1514.9063 L211.8896,1514.9063 C226.8896,1514.9063 226.8896,1370.8828 241.8896,1370.8828 L251.8896,1370.8828 " fill="none" style="stroke:#181818;stroke-width:1;"/><rect fill="#F1F1F1" height="37.6094" rx="12.5" ry="12.5" style="stroke:#181818;stroke-width:1.5;" width="76" x="251.8896" y="1582.5156"/><text fill="#000000" font-family="sans-serif" font-size="14" lengthAdjust="spacing" textLength="56" x="261.8896" y="1607.0488">&#20004;&#20010;&#34892;&#20026;</text><rect fill="#F1F1F1" height="37.6094" rx="12.5" ry="12.5" style="stroke:#181818;stroke-width:1.5;" width="217.9551" x="377.8896" y="1467.2969"/><text fill="#000000" font-family="sans-serif" font-size="14" lengthAdjust="spacing" textLength="197.9551" x="387.8896" y="1491.8301">&#38750;&#27861;&#25304;&#31105;&#30340;&#23454;&#34892;&#34892;&#20026; + &#26292;&#21147;&#34892;&#20026;</text><path d="M327.8896,1601.3203 L337.8896,1601.3203 C352.8896,1601.3203 352.8896,1486.1016 367.8896,1486.1016 L377.8896,1486.1016 " fill="none" style="stroke:#181818;stroke-width:1;"/><rect fill="#F1F1F1" height="37.6094" rx="12.5" ry="12.5" style="stroke:#181818;stroke-width:1.5;" width="48" x="377.8896" y="1611.3203"/><text fill="#000000" font-family="sans-serif" font-size="14" lengthAdjust="spacing" textLength="28" x="387.8896" y="1635.8535">&#20027;&#35266;</text><rect fill="#F1F1F1" height="37.6094" rx="12.5" ry="12.5" style="stroke:#181818;stroke-width:1.5;" width="48" x="475.8896" y="1553.7109"/><text fill="#000000" font-family="sans-serif" font-size="14" lengthAdjust="spacing" textLength="28" x="485.8896" y="1578.2441">&#36807;&#22833;</text><rect fill="#F1F1F1" height="37.6094" rx="12.5" ry="12.5" style="stroke:#181818;stroke-width:1.5;" width="76" x="573.8896" y="1524.9063"/><text fill="#000000" font-family="sans-serif" font-size="14" lengthAdjust="spacing" textLength="56" x="583.8896" y="1549.4395">&#27861;&#24459;&#25311;&#21046;</text><path d="M523.8896,1572.5156 L533.8896,1572.5156 C548.8896,1572.5156 548.8896,1543.7109 563.8896,1543.7109 L573.8896,1543.7109 " fill="none" style="stroke:#181818;stroke-width:1;"/><rect fill="#F1F1F1" height="37.6094" rx="12.5" ry="12.5" style="stroke:#181818;stroke-width:1.5;" width="76" x="573.8896" y="1582.5156"/><text fill="#000000" font-family="sans-serif" font-size="14" lengthAdjust="spacing" textLength="56" x="583.8896" y="1607.0488">&#32618;&#25968;&#38382;&#39064;</text><rect fill="#F1F1F1" height="37.6094" rx="12.5" ry="12.5" style="stroke:#181818;stroke-width:1.5;" width="104" x="699.8896" y="1582.5156"/><text fill="#000000" font-family="sans-serif" font-size="14" lengthAdjust="spacing" textLength="84" x="709.8896" y="1607.0488">&#31105;&#27490;&#37325;&#22797;&#22788;&#32602;</text><path d="M649.8896,1601.3203 L659.8896,1601.3203 C674.8896,1601.3203 674.8896,1601.3203 689.8896,1601.3203 L699.8896,1601.3203 " fill="none" style="stroke:#181818;stroke-width:1;"/><path d="M523.8896,1572.5156 L533.8896,1572.5156 C548.8896,1572.5156 548.8896,1601.3203 563.8896,1601.3203 L573.8896,1601.3203 " fill="none" style="stroke:#181818;stroke-width:1;"/><path d="M425.8896,1630.125 L435.8896,1630.125 C450.8896,1630.125 450.8896,1572.5156 465.8896,1572.5156 L475.8896,1572.5156 " fill="none" style="stroke:#181818;stroke-width:1;"/><rect fill="#F1F1F1" height="37.6094" rx="12.5" ry="12.5" style="stroke:#181818;stroke-width:1.5;" width="48" x="475.8896" y="1668.9297"/><text fill="#000000" font-family="sans-serif" font-size="14" lengthAdjust="spacing" textLength="28" x="485.8896" y="1693.4629">&#25925;&#24847;</text><rect fill="#F1F1F1" height="37.6094" rx="12.5" ry="12.5" style="stroke:#181818;stroke-width:1.5;" width="76" x="573.8896" y="1640.125"/><text fill="#000000" font-family="sans-serif" font-size="14" lengthAdjust="spacing" textLength="56" x="583.8896" y="1664.6582">&#25968;&#32618;&#24182;&#32602;</text><path d="M523.8896,1687.7344 L533.8896,1687.7344 C548.8896,1687.7344 548.8896,1658.9297 563.8896,1658.9297 L573.8896,1658.9297 " fill="none" style="stroke:#181818;stroke-width:1;"/><rect fill="#F1F1F1" height="37.6094" rx="12.5" ry="12.5" style="stroke:#181818;stroke-width:1.5;" width="76" x="573.8896" y="1697.7344"/><text fill="#000000" font-family="sans-serif" font-size="14" lengthAdjust="spacing" textLength="56" x="583.8896" y="1722.2676">&#32618;&#25968;&#38382;&#39064;</text><rect fill="#F1F1F1" height="37.6094" rx="12.5" ry="12.5" style="stroke:#181818;stroke-width:1.5;" width="104" x="699.8896" y="1697.7344"/><text fill="#000000" font-family="sans-serif" font-size="14" lengthAdjust="spacing" textLength="84" x="709.8896" y="1722.2676">&#31105;&#27490;&#36951;&#28431;&#22788;&#32602;</text><path d="M649.8896,1716.5391 L659.8896,1716.5391 C674.8896,1716.5391 674.8896,1716.5391 689.8896,1716.5391 L699.8896,1716.5391 " fill="none" style="stroke:#181818;stroke-width:1;"/><path d="M523.8896,1687.7344 L533.8896,1687.7344 C548.8896,1687.7344 548.8896,1716.5391 563.8896,1716.5391 L573.8896,1716.5391 " fill="none" style="stroke:#181818;stroke-width:1;"/><path d="M425.8896,1630.125 L435.8896,1630.125 C450.8896,1630.125 450.8896,1687.7344 465.8896,1687.7344 L475.8896,1687.7344 " fill="none" style="stroke:#181818;stroke-width:1;"/><path d="M327.8896,1601.3203 L337.8896,1601.3203 C352.8896,1601.3203 352.8896,1630.125 367.8896,1630.125 L377.8896,1630.125 " fill="none" style="stroke:#181818;stroke-width:1;"/><path d="M201.8896,1514.9063 L211.8896,1514.9063 C226.8896,1514.9063 226.8896,1601.3203 241.8896,1601.3203 L251.8896,1601.3203 " fill="none" style="stroke:#181818;stroke-width:1;"/><path d="M100,896.9766 L110,896.9766 C125,896.9766 125,1514.9063 140,1514.9063 L150,1514.9063 " fill="none" style="stroke:#181818;stroke-width:1;"/><!--SRC=[xLfRJ-FM5dxth_1HNsPQSHc4K8NeQ0fbr5CDLLMcVJfIPH8tkEFOaUFGekf8ORW724652RVXrWmC30c1f11oQNvClRVjf_aBPsqx3auQ9sREUJbI44AJjR-zzbhVkcLlpPEWp4YodnEyVYP0KV_W10yVyh9qPsUN-HkK9tcsAy0pWXpoynq4sG7G3aFUoO6CecHEvbbQVxs7CnjuQLCzdb9BPnJryTz4DFnyJ8D8tOaO7qo1aizh-NVQ_9cwVcbXzcRmGamxdb8ArpQagKexN5Po-QhON48Brthu0ArSwbkdDKlcidxwftvwZIzBMkaObT_fuNtG0fBtnMMbLCRdLqfk2PRKxHdbTXEbZj1-Nib7yLGCJv-WyhGQcyFn0x3SXD437_Lr3m_tTVUFiyp4v0-USTRpuWS_8xteVrnlrysLEdDjsaKEowqefTrwyolGrJKrcaRfEHHRHibZVNqBpMRGxbkyKDRZMTYCLh9uOnRFh88ML0phyRUk3R5nQ51RjGCyRXIcExosjOscvgiEuFEyVXPlOBrIU0M1T3WKnTQqv36wsCUHDw0D7ouGTnRMbFmIENTZoznzRtSgmQrrWBWKp-Be6vpyNOrSDDceNPoZjOY-TODIcNhFAuYZTx3cx1WuW59xMYgXNSn1mBIBPiUfwrScVShjbbRUKTV_m4SNA1Q5CEln9FcOZn5UBehQV1OmQ3vF8Xqj_1L-2NlHnItPc8wg9sbphrh8AkNK1oG1Yhp5k_bx6OocjfNIR_ZtC5YefKv10hP1XOAHO2488HtnrI7UNTJNfy0aYVNs_s8pmAfU7B-6wDGbcP8BQmldU7eMpVr164YSGFNrzABqAi3l-WPARKFIe9LvV534hmzhcmFeK79d3Pj30w5Jvf1e7YutrA8MViDxkoXoeC-lG5xH0mEiFp3E1BdWuyUDoddde3d4RfkIYwexAN9-R1bSHibDA7mKtKSBMswKGA3ihXZ1IQ04ALZIW0ghPjNNkGjfzIz1FJzNSeic5XemyAuMCYWPKmjhn9p4cPez8OthTWid2qh-43RTA-4C8WXlinarKt3ZZ59OGhDlO9UQTS5WvOpYIvJBEGAgB16gytDgzWY5yuISz1n9RQFDeiibS5kVNpQ8k4A9Lv3Q1aN4zvbzxMGHPW2Ax6ZbJNEtTfF1Rw1Mp_3hC4omAZdrgUziaTrLqmLZ8Esgws-X1bmegFOdi8BqCQDDkoND62F_EzuihlJmj3PpMM7Hd6cnA6IHLYw1q81eDsim4lJD35fDWnLuDghTB6kn4bvRXooxVuefkO9syjAfmihpA77fbfIwAdUQeiOSjkdiQQxKOh2kIWq-8DAGLMXr1IycGGPLfqrdjBc8HLPLW2ER-5NIVOw1cR3lyb1zjuTYPEBYfLFeaiIn1iEkPNTqiQFozQIOC0Vg- -8270OVtnSNMrWAhTtDPXBgn7_LvkqDdlw4njjPKjADr961yoTyFu4cVDsgsTTHLLKCJfZf1qwGePxFcpvrcSsK_go6iYve902nVLSE5o0V6n_UTEBLsDDqgZcKZbKsr8TLYPKALEkyT1VR9WurZ-A7-MUFlHC5fJEyaTRZAVreirdfmrUUv17GX1BmEwEMjkzDraOQpaAtrutsVeWjKt5SNAtOGb5FMBZzMJV09xKNmW7ZdlUOgWY-u1YVnFZfN-6CpZ4-n1h_ekb1nlF29uaXmJiayg94yvnlN2RhiFflWlL2uuQEvG2lh5fWdyIoGZFD1i26dcm1dhImeiG8FYUZpKKB6WX90Tu9QYvQK6V7R4v9Oj19sqTFdmuE3WrPo4cMvyMV7R3ceW6bEgscq9ehExhR0HvyCMc4p8xjQSwL7Je88iyu99ahOpYV84giYxZHz3DEOElbTofS7jjK5L4c2AA75MGdRWI3T9f-AWgoAHhZ0LEd5OgZOfiWWp9E51X-IEBybgDtI5dqCxBO4FkDn0OOYI6I-spxV4oKv5PPurQNB4DOvLQ5ubBRaEY7Qf6TebtPwQIEH4TWVH0mK6edirdJQHKeByi6xFbUUy0mDC4ndWkEEtSis_xQqtuUv-HwRXoE-LgKMvzaUEMPP0GNNdaOBojN3sCy7ixhdD8rdRILvX-XqeAsyeNF7dQ4-OaDjIXYaGSJ9D5hoy0M9MJjCCu9Y45EvYROppssSlXRDsPurgqZTov0B9YMglqS343IkjtaL6MA4UN1qDXFh8UeTsA7cO2noqekzKvm8bIGeLfifPdmxfhkkqPUMxZDQxKcbrkE20h-37HLlacqNulRhyNjr-BsQt7xjRZzMjn-BMw_5hTVYzklnUtNulPhSVkr-F_mjVWRyl-2lXjvHa-mKf3SeXzrzdJtz7P- -c2KaUclnGdwKH_T_QY_jxU_juyU6drEa-M7r8EHVpwdWs98yh2q5wxO4ZSM8lVEXzHNp0H3Vnk2MwYVxQV9fmVFHnxIeyEMa1uM9ZX95FnmywI- -dx41D5VYl9eG9GDS5zlno0dqwEi16RHtuzGNx0_CY5UXgqUqSi9ldxwk-TFEpwbdi4DDSJuu21Me8RWwYfBax0s-Xy0]--></g></svg>