<svg xmlns="http://www.w3.org/2000/svg" xmlns:xlink="http://www.w3.org/1999/xlink" contentStyleType="text/css" height="1567px" preserveAspectRatio="none" style="width:772px;height:1567px;background:#FFFFFF;" version="1.1" viewBox="0 0 772 1567" width="772px" zoomAndPan="magnify"><title>&#32452;&#32455;&#20986;&#21334;&#20154;&#20307;&#22120;&#23448;&#32618;</title><defs/><g><text fill="#000000" font-family="sans-serif" font-size="14" font-weight="bold" lengthAdjust="spacing" textLength="129.9375" x="319.707" y="34.5332">&#32452;&#32455;&#20986;&#21334;&#20154;&#20307;&#22120;&#23448;&#32618;</text><rect fill="#F1F1F1" height="37.6094" rx="12.5" ry="12.5" style="stroke:#181818;stroke-width:1.5;" width="146" x="10" y="783.3359"/><text fill="#000000" font-family="sans-serif" font-size="14" lengthAdjust="spacing" textLength="126" x="20" y="807.8691">&#32452;&#32455;&#20986;&#21334;&#20154;&#20307;&#22120;&#23448;&#32618;</text><rect fill="#F1F1F1" height="37.6094" rx="12.5" ry="12.5" style="stroke:#181818;stroke-width:1.5;" width="76" x="206" y="374.9297"/><text fill="#000000" font-family="sans-serif" font-size="14" lengthAdjust="spacing" textLength="56" x="216" y="399.4629">&#20154;&#20307;&#22120;&#23448;</text><rect fill="#F1F1F1" height="37.6094" rx="12.5" ry="12.5" style="stroke:#181818;stroke-width:1.5;" width="48" x="332" y="218.0547"/><text fill="#000000" font-family="sans-serif" font-size="14" lengthAdjust="spacing" textLength="28" x="342" y="242.5879">&#22120;&#23448;</text><rect fill="#F1F1F1" height="37.6094" rx="12.5" ry="12.5" style="stroke:#181818;stroke-width:1.5;" width="62" x="430" y="123.9297"/><text fill="#000000" font-family="sans-serif" font-size="14" lengthAdjust="spacing" textLength="42" x="440" y="148.4629">&#21487;&#31227;&#26893;</text><rect fill="#F1F1F1" height="42.75" rx="12.5" ry="12.5" style="stroke:#181818;stroke-width:1.5;" width="86.8896" x="542" y="58.6094"/><text fill="#000000" font-family="sans-serif" font-size="14" lengthAdjust="spacing" textLength="42" x="552" y="88.2832">&#30524;&#35282;&#33180;</text><path d="M617.9907,69.4115 C617.1793,68.8853 616.0961,69.1163 615.5705,69.9271 L605.7646,85.0419 L600.9825,80.6202 C600.2726,79.964 599.166,80.0071 598.5097,80.717 C597.8535,81.4264 597.8966,82.5341 598.6066,83.1898 L604.8856,88.9951 C605.0658,89.1503 605.0658,89.1503 605.1492,89.2045 C605.4432,89.3959 605.7734,89.4869 606.1001,89.4869 C606.6729,89.4869 607.2346,89.2057 607.5701,88.6889 L618.5064,71.8317 C619.0326,71.0209 618.8016,69.937 617.9907,69.4115 " fill="#FE0000" style="stroke:;stroke-width:0;stroke-dasharray:;"/><path d="M492,142.7344 L502,142.7344 C517,142.7344 517,79.9844 532,79.9844 L542,79.9844 " fill="none" style="stroke:#181818;stroke-width:1;"/><rect fill="#F1F1F1" height="42.75" rx="12.5" ry="12.5" style="stroke:#181818;stroke-width:1.5;" width="72.8896" x="542" y="121.3594"/><text fill="#000000" font-family="sans-serif" font-size="14" lengthAdjust="spacing" textLength="28" x="552" y="151.0332">&#30382;&#32932;</text><path d="M603.9907,132.1615 C603.1793,131.6353 602.0961,131.8663 601.5705,132.6771 L591.7646,147.7919 L586.9825,143.3702 C586.2726,142.714 585.166,142.7571 584.5097,143.467 C583.8535,144.1764 583.8966,145.2841 584.6066,145.9398 L590.8856,151.7451 C591.0658,151.9003 591.0658,151.9003 591.1492,151.9545 C591.4432,152.1459 591.7734,152.2369 592.1001,152.2369 C592.6729,152.2369 593.2346,151.9557 593.5701,151.4389 L604.5064,134.5817 C605.0326,133.7709 604.8016,132.687 603.9907,132.1615 " fill="#FE0000" style="stroke:;stroke-width:0;stroke-dasharray:;"/><path d="M492,142.7344 L502,142.7344 C517,142.7344 517,142.7344 532,142.7344 L542,142.7344 " fill="none" style="stroke:#181818;stroke-width:1;"/><rect fill="#F1F1F1" height="42.75" rx="12.5" ry="12.5" style="stroke:#181818;stroke-width:1.5;" width="72.8896" x="542" y="184.1094"/><text fill="#000000" font-family="sans-serif" font-size="14" lengthAdjust="spacing" textLength="28" x="552" y="213.7832">&#39592;&#22836;</text><path d="M603.9907,194.9115 C603.1793,194.3853 602.0961,194.6163 601.5705,195.4271 L591.7646,210.5419 L586.9825,206.1202 C586.2726,205.464 585.166,205.5071 584.5097,206.217 C583.8535,206.9264 583.8966,208.0341 584.6066,208.6898 L590.8856,214.4951 C591.0658,214.6503 591.0658,214.6503 591.1492,214.7045 C591.4432,214.8959 591.7734,214.9869 592.1001,214.9869 C592.6729,214.9869 593.2346,214.7057 593.5701,214.1889 L604.5064,197.3317 C605.0326,196.5209 604.8016,195.437 603.9907,194.9115 " fill="#FE0000" style="stroke:;stroke-width:0;stroke-dasharray:;"/><path d="M492,142.7344 L502,142.7344 C517,142.7344 517,205.4844 532,205.4844 L542,205.4844 " fill="none" style="stroke:#181818;stroke-width:1;"/><path d="M380,236.8594 L390,236.8594 C405,236.8594 405,142.7344 420,142.7344 L430,142.7344 " fill="none" style="stroke:#181818;stroke-width:1;"/><rect fill="#F1F1F1" height="37.6094" rx="12.5" ry="12.5" style="stroke:#181818;stroke-width:1.5;" width="62" x="430" y="312.1797"/><text fill="#000000" font-family="sans-serif" font-size="14" lengthAdjust="spacing" textLength="42" x="440" y="336.7129">&#19981;&#21253;&#25324;</text><rect fill="#F1F1F1" height="42.75" rx="12.5" ry="12.5" style="stroke:#181818;stroke-width:1.5;" width="72.8896" x="542" y="246.8594"/><text fill="#000000" font-family="sans-serif" font-size="14" lengthAdjust="spacing" textLength="28" x="552" y="276.5332">&#34880;&#28082;</text><path d="M596.8618,267.3617 L602.6269,261.5966 C603.3106,260.9135 603.3106,259.8052 602.6269,259.1215 C601.9432,258.4385 600.8361,258.4385 600.1524,259.1215 L594.3873,264.8866 L588.6222,259.1221 C587.9391,258.4385 586.8308,258.4385 586.1471,259.1221 C585.4641,259.8052 585.4641,260.9135 586.1471,261.5972 L591.9122,267.3617 L586.1331,273.1408 C585.4501,273.8239 585.4501,274.9322 586.1331,275.6153 C586.4744,275.9571 586.923,276.128 587.3704,276.128 C587.8178,276.128 588.2664,275.9571 588.6082,275.6153 L594.3867,269.8368 L600.1512,275.6013 C600.4931,275.9431 600.9411,276.114 601.3885,276.114 C601.8359,276.114 602.2839,275.9431 602.6257,275.6013 C603.3094,274.9182 603.3094,273.8099 602.6257,273.1268 L596.8618,267.3617 " fill="#FE0000" style="stroke:;stroke-width:0;stroke-dasharray:;"/><path d="M492,330.9844 L502,330.9844 C517,330.9844 517,268.2344 532,268.2344 L542,268.2344 " fill="none" style="stroke:#181818;stroke-width:1;"/><rect fill="#F1F1F1" height="42.75" rx="12.5" ry="12.5" style="stroke:#181818;stroke-width:1.5;" width="72.8896" x="542" y="309.6094"/><text fill="#000000" font-family="sans-serif" font-size="14" lengthAdjust="spacing" textLength="28" x="552" y="339.2832">&#39592;&#39635;</text><path d="M596.8618,330.1117 L602.6269,324.3466 C603.3106,323.6635 603.3106,322.5552 602.6269,321.8715 C601.9432,321.1885 600.8361,321.1885 600.1524,321.8715 L594.3873,327.6366 L588.6222,321.8721 C587.9391,321.1885 586.8308,321.1885 586.1471,321.8721 C585.4641,322.5552 585.4641,323.6635 586.1471,324.3472 L591.9122,330.1117 L586.1331,335.8908 C585.4501,336.5739 585.4501,337.6822 586.1331,338.3653 C586.4744,338.7071 586.923,338.878 587.3704,338.878 C587.8178,338.878 588.2664,338.7071 588.6082,338.3653 L594.3867,332.5868 L600.1512,338.3513 C600.4931,338.6931 600.9411,338.864 601.3885,338.864 C601.8359,338.864 602.2839,338.6931 602.6257,338.3513 C603.3094,337.6682 603.3094,336.5599 602.6257,335.8768 L596.8618,330.1117 " fill="#FE0000" style="stroke:;stroke-width:0;stroke-dasharray:;"/><path d="M492,330.9844 L502,330.9844 C517,330.9844 517,330.9844 532,330.9844 L542,330.9844 " fill="none" style="stroke:#181818;stroke-width:1;"/><rect fill="#F1F1F1" height="42.75" rx="12.5" ry="12.5" style="stroke:#181818;stroke-width:1.5;" width="72.8896" x="542" y="372.3594"/><text fill="#000000" font-family="sans-serif" font-size="14" lengthAdjust="spacing" textLength="28" x="552" y="402.0332">&#32454;&#32990;</text><path d="M596.8618,392.8617 L602.6269,387.0966 C603.3106,386.4135 603.3106,385.3052 602.6269,384.6215 C601.9432,383.9385 600.8361,383.9385 600.1524,384.6215 L594.3873,390.3866 L588.6222,384.6221 C587.9391,383.9385 586.8308,383.9385 586.1471,384.6221 C585.4641,385.3052 585.4641,386.4135 586.1471,387.0972 L591.9122,392.8617 L586.1331,398.6408 C585.4501,399.3239 585.4501,400.4322 586.1331,401.1153 C586.4744,401.4571 586.923,401.628 587.3704,401.628 C587.8178,401.628 588.2664,401.4571 588.6082,401.1153 L594.3867,395.3368 L600.1512,401.1013 C600.4931,401.4431 600.9411,401.614 601.3885,401.614 C601.8359,401.614 602.2839,401.4431 602.6257,401.1013 C603.3094,400.4182 603.3094,399.3099 602.6257,398.6268 L596.8618,392.8617 " fill="#FE0000" style="stroke:;stroke-width:0;stroke-dasharray:;"/><path d="M492,330.9844 L502,330.9844 C517,330.9844 517,393.7344 532,393.7344 L542,393.7344 " fill="none" style="stroke:#181818;stroke-width:1;"/><path d="M380,236.8594 L390,236.8594 C405,236.8594 405,330.9844 420,330.9844 L430,330.9844 " fill="none" style="stroke:#181818;stroke-width:1;"/><path d="M282,393.7344 L292,393.7344 C307,393.7344 307,236.8594 322,236.8594 L332,236.8594 " fill="none" style="stroke:#181818;stroke-width:1;"/><rect fill="#F1F1F1" height="37.6094" rx="12.5" ry="12.5" style="stroke:#181818;stroke-width:1.5;" width="48" x="332" y="469.0547"/><text fill="#000000" font-family="sans-serif" font-size="14" lengthAdjust="spacing" textLength="28" x="342" y="493.5879">&#20154;&#20307;</text><rect fill="#F1F1F1" height="42.75" rx="12.5" ry="12.5" style="stroke:#181818;stroke-width:1.5;" width="72.8896" x="430" y="435.1094"/><text fill="#000000" font-family="sans-serif" font-size="14" lengthAdjust="spacing" textLength="28" x="440" y="464.7832">&#27963;&#20307;</text><path d="M491.9907,445.9115 C491.1793,445.3853 490.0961,445.6163 489.5705,446.4271 L479.7646,461.5419 L474.9825,457.1202 C474.2726,456.464 473.166,456.5071 472.5097,457.217 C471.8535,457.9264 471.8966,459.0341 472.6066,459.6898 L478.8856,465.4951 C479.0658,465.6503 479.0658,465.6503 479.1492,465.7045 C479.4432,465.8959 479.7734,465.9869 480.1001,465.9869 C480.6729,465.9869 481.2346,465.7057 481.5701,465.1889 L492.5064,448.3317 C493.0326,447.5209 492.8016,446.437 491.9907,445.9115 " fill="#FE0000" style="stroke:;stroke-width:0;stroke-dasharray:;"/><path d="M380,487.8594 L390,487.8594 C405,487.8594 405,456.4844 420,456.4844 L430,456.4844 " fill="none" style="stroke:#181818;stroke-width:1;"/><rect fill="#F1F1F1" height="42.75" rx="12.5" ry="12.5" style="stroke:#181818;stroke-width:1.5;" width="72.8896" x="430" y="497.8594"/><text fill="#000000" font-family="sans-serif" font-size="14" lengthAdjust="spacing" textLength="28" x="440" y="527.5332">&#23608;&#20307;</text><path d="M484.8618,518.3617 L490.6269,512.5966 C491.3106,511.9135 491.3106,510.8052 490.6269,510.1215 C489.9432,509.4385 488.8361,509.4385 488.1524,510.1215 L482.3873,515.8866 L476.6222,510.1221 C475.9391,509.4385 474.8308,509.4385 474.1471,510.1221 C473.4641,510.8052 473.4641,511.9135 474.1471,512.5972 L479.9122,518.3617 L474.1331,524.1408 C473.4501,524.8239 473.4501,525.9322 474.1331,526.6153 C474.4744,526.9571 474.923,527.128 475.3704,527.128 C475.8178,527.128 476.2664,526.9571 476.6082,526.6153 L482.3867,520.8368 L488.1512,526.6013 C488.4931,526.9431 488.9411,527.114 489.3885,527.114 C489.8359,527.114 490.2839,526.9431 490.6257,526.6013 C491.3094,525.9182 491.3094,524.8099 490.6257,524.1268 L484.8618,518.3617 " fill="#FE0000" style="stroke:;stroke-width:0;stroke-dasharray:;"/><path d="M380,487.8594 L390,487.8594 C405,487.8594 405,519.2344 420,519.2344 L430,519.2344 " fill="none" style="stroke:#181818;stroke-width:1;"/><path d="M282,393.7344 L292,393.7344 C307,393.7344 307,487.8594 322,487.8594 L332,487.8594 " fill="none" style="stroke:#181818;stroke-width:1;"/><rect fill="#F1F1F1" height="37.6094" rx="12.5" ry="12.5" style="stroke:#181818;stroke-width:1.5;" width="34" x="332" y="625.9297"/><text fill="#000000" font-family="sans-serif" font-size="14" lengthAdjust="spacing" textLength="14" x="342" y="650.4629">&#20154;</text><rect fill="#F1F1F1" height="37.6094" rx="12.5" ry="12.5" style="stroke:#181818;stroke-width:1.5;" width="174" x="416" y="563.1797"/><text fill="#000000" font-family="sans-serif" font-size="14" lengthAdjust="spacing" textLength="154" x="426" y="587.7129">&#24180;&#40836;&#65288;&#26032;&#25163;&#26449;&#65292;&#20445;&#25252;&#26399;&#65289;</text><rect fill="#90EE90" height="42.75" rx="12.5" ry="12.5" style="stroke:#181818;stroke-width:1.5;" width="120.3516" x="640" y="560.6094"/><text fill="#000000" font-family="sans-serif" font-size="14" lengthAdjust="spacing" textLength="71.5723" x="650" y="590.2832">&#19981;&#28385;18&#21608;&#23681;</text><path d="M738.4341,581.1117 L744.1992,575.3466 C744.8828,574.6635 744.8828,573.5552 744.1992,572.8715 C743.5155,572.1885 742.4083,572.1885 741.7247,572.8715 L735.9596,578.6366 L730.1945,572.8721 C729.5114,572.1885 728.4031,572.1885 727.7194,572.8721 C727.0363,573.5552 727.0363,574.6635 727.7194,575.3472 L733.4845,581.1117 L727.7054,586.8908 C727.0223,587.5739 727.0223,588.6822 727.7054,589.3653 C728.0467,589.7071 728.4952,589.878 728.9427,589.878 C729.3901,589.878 729.8387,589.7071 730.1805,589.3653 L735.959,583.5868 L741.7235,589.3513 C742.0653,589.6931 742.5133,589.864 742.9607,589.864 C743.4082,589.864 743.8562,589.6931 744.198,589.3513 C744.8817,588.6682 744.8817,587.5599 744.198,586.8768 L738.4341,581.1117 " fill="#FE0000" style="stroke:;stroke-width:0;stroke-dasharray:;"/><text fill="#000000" font-family="sans-serif" font-size="14" lengthAdjust="spacing" textLength="3.8896" x="746.4619" y="590.2832">&#160;</text><path d="M590,581.9844 L600,581.9844 C615,581.9844 615,581.9844 630,581.9844 L640,581.9844 " fill="none" style="stroke:#181818;stroke-width:1;"/><path d="M366,644.7344 L376,644.7344 C391,644.7344 391,581.9844 406,581.9844 L416,581.9844 " fill="none" style="stroke:#181818;stroke-width:1;"/><rect fill="#F1F1F1" height="37.6094" rx="12.5" ry="12.5" style="stroke:#181818;stroke-width:1.5;" width="140.1758" x="416" y="625.9297"/><text fill="#000000" font-family="sans-serif" font-size="14" lengthAdjust="spacing" textLength="120.1758" x="426" y="650.4629">&#24847;&#24535;+&#35748;&#35782;&#65288;&#33258;&#36523;&#65289;</text><rect fill="#90EE90" height="42.75" rx="12.5" ry="12.5" style="stroke:#181818;stroke-width:1.5;" width="132.7793" x="606.1758" y="623.3594"/><text fill="#000000" font-family="sans-serif" font-size="14" lengthAdjust="spacing" textLength="84" x="616.1758" y="653.0332">&#26410;&#32463;&#26412;&#20154;&#21516;&#24847;</text><path d="M717.0376,643.8617 L722.8027,638.0966 C723.4863,637.4135 723.4863,636.3052 722.8027,635.6215 C722.119,634.9385 721.0118,634.9385 720.3282,635.6215 L714.5631,641.3866 L708.798,635.6221 C708.1149,634.9385 707.0066,634.9385 706.3229,635.6221 C705.6398,636.3052 705.6398,637.4135 706.3229,638.0972 L712.088,643.8617 L706.3089,649.6408 C705.6258,650.3239 705.6258,651.4322 706.3089,652.1153 C706.6502,652.4571 707.0988,652.628 707.5462,652.628 C707.9936,652.628 708.4422,652.4571 708.784,652.1153 L714.5625,646.3368 L720.327,652.1013 C720.6688,652.4431 721.1168,652.614 721.5643,652.614 C722.0117,652.614 722.4597,652.4431 722.8015,652.1013 C723.4852,651.4182 723.4852,650.3099 722.8015,649.6268 L717.0376,643.8617 " fill="#FE0000" style="stroke:;stroke-width:0;stroke-dasharray:;"/><text fill="#000000" font-family="sans-serif" font-size="14" lengthAdjust="spacing" textLength="3.8896" x="725.0654" y="653.0332">&#160;</text><path d="M556.1758,644.7344 L566.1758,644.7344 C581.1758,644.7344 581.1758,644.7344 596.1758,644.7344 L606.1758,644.7344 " fill="none" style="stroke:#181818;stroke-width:1;"/><path d="M366,644.7344 L376,644.7344 C391,644.7344 391,644.7344 406,644.7344 L416,644.7344 " fill="none" style="stroke:#181818;stroke-width:1;"/><rect fill="#F1F1F1" height="37.6094" rx="12.5" ry="12.5" style="stroke:#181818;stroke-width:1.5;" width="132" x="416" y="688.6797"/><text fill="#000000" font-family="sans-serif" font-size="14" lengthAdjust="spacing" textLength="112" x="426" y="713.2129">&#22806;&#37096;&#29615;&#22659;&#65288;&#20182;&#20154;&#65289;</text><rect fill="#90EE90" height="42.75" rx="12.5" ry="12.5" style="stroke:#181818;stroke-width:1.5;" width="146.7793" x="598" y="686.1094"/><text fill="#000000" font-family="sans-serif" font-size="14" lengthAdjust="spacing" textLength="98" x="608" y="715.7832">&#24378;&#36843;&#12289;&#27450;&#39575;&#20182;&#20154;</text><path d="M722.8618,706.6117 L728.6269,700.8466 C729.3106,700.1635 729.3106,699.0552 728.6269,698.3715 C727.9432,697.6885 726.8361,697.6885 726.1524,698.3715 L720.3873,704.1366 L714.6222,698.3721 C713.9391,697.6885 712.8308,697.6885 712.1471,698.3721 C711.4641,699.0552 711.4641,700.1635 712.1471,700.8472 L717.9122,706.6117 L712.1331,712.3908 C711.4501,713.0739 711.4501,714.1822 712.1331,714.8653 C712.4744,715.2071 712.923,715.378 713.3704,715.378 C713.8178,715.378 714.2664,715.2071 714.6082,714.8653 L720.3867,709.0868 L726.1512,714.8513 C726.4931,715.1931 726.9411,715.364 727.3885,715.364 C727.8359,715.364 728.2839,715.1931 728.6257,714.8513 C729.3094,714.1682 729.3094,713.0599 728.6257,712.3768 L722.8618,706.6117 " fill="#FE0000" style="stroke:;stroke-width:0;stroke-dasharray:;"/><text fill="#000000" font-family="sans-serif" font-size="14" lengthAdjust="spacing" textLength="3.8896" x="730.8896" y="715.7832">&#160;</text><path d="M548,707.4844 L558,707.4844 C573,707.4844 573,707.4844 588,707.4844 L598,707.4844 " fill="none" style="stroke:#181818;stroke-width:1;"/><path d="M366,644.7344 L376,644.7344 C391,644.7344 391,707.4844 406,707.4844 L416,707.4844 " fill="none" style="stroke:#181818;stroke-width:1;"/><path d="M282,393.7344 L292,393.7344 C307,393.7344 307,644.7344 322,644.7344 L332,644.7344 " fill="none" style="stroke:#181818;stroke-width:1;"/><path d="M156,802.1406 L166,802.1406 C181,802.1406 181,393.7344 196,393.7344 L206,393.7344 " fill="none" style="stroke:#181818;stroke-width:1;"/><rect fill="#F1F1F1" height="37.6094" rx="12.5" ry="12.5" style="stroke:#181818;stroke-width:1.5;" width="48" x="206" y="984.4375"/><text fill="#000000" font-family="sans-serif" font-size="14" lengthAdjust="spacing" textLength="28" x="216" y="1008.9707">&#19977;&#26041;</text><rect fill="#F1F1F1" height="37.6094" rx="12.5" ry="12.5" style="stroke:#181818;stroke-width:1.5;" width="160" x="304" y="748.8594"/><text fill="#000000" font-family="sans-serif" font-size="14" lengthAdjust="spacing" textLength="140" x="314" y="773.3926">&#20986;&#21334;&#32773;&#65288;&#22120;&#23448;&#25552;&#20379;&#32773;&#65289;</text><rect fill="#F1F1F1" height="37.6094" rx="12.5" ry="12.5" style="stroke:#181818;stroke-width:1.5;" width="90" x="514" y="748.8594"/><text fill="#000000" font-family="sans-serif" font-size="14" lengthAdjust="spacing" textLength="70" x="524" y="773.3926">&#19981;&#26500;&#25104;&#26412;&#32618;</text><path d="M464,767.6641 L474,767.6641 C489,767.6641 489,767.6641 504,767.6641 L514,767.6641 " fill="none" style="stroke:#181818;stroke-width:1;"/><path d="M254,1003.2422 L264,1003.2422 C279,1003.2422 279,767.6641 294,767.6641 L304,767.6641 " fill="none" style="stroke:#181818;stroke-width:1;"/><rect fill="#F1F1F1" height="37.6094" rx="12.5" ry="12.5" style="stroke:#181818;stroke-width:1.5;" width="62" x="304" y="955.6328"/><text fill="#000000" font-family="sans-serif" font-size="14" lengthAdjust="spacing" textLength="42" x="314" y="980.166">&#32452;&#32455;&#32773;</text><rect fill="#F1F1F1" height="37.6094" rx="12.5" ry="12.5" style="stroke:#181818;stroke-width:1.5;" width="90" x="416" y="806.4688"/><text fill="#000000" font-family="sans-serif" font-size="14" lengthAdjust="spacing" textLength="70" x="426" y="831.002">&#26377;&#25928;&#30340;&#25215;&#35834;</text><path d="M366,974.4375 L376,974.4375 C391,974.4375 391,825.2734 406,825.2734 L416,825.2734 " fill="none" style="stroke:#181818;stroke-width:1;"/><rect fill="#F1F1F1" height="37.6094" rx="12.5" ry="12.5" style="stroke:#181818;stroke-width:1.5;" width="76" x="416" y="921.6875"/><text fill="#000000" font-family="sans-serif" font-size="14" lengthAdjust="spacing" textLength="56" x="426" y="946.2207">&#32452;&#32455;&#34892;&#20026;</text><rect fill="#F1F1F1" height="37.6094" rx="12.5" ry="12.5" style="stroke:#181818;stroke-width:1.5;" width="48" x="542" y="864.0781"/><text fill="#000000" font-family="sans-serif" font-size="14" lengthAdjust="spacing" textLength="28" x="552" y="888.6113">&#25307;&#21215;</text><path d="M492,940.4922 L502,940.4922 C517,940.4922 517,882.8828 532,882.8828 L542,882.8828 " fill="none" style="stroke:#181818;stroke-width:1;"/><rect fill="#F1F1F1" height="37.6094" rx="12.5" ry="12.5" style="stroke:#181818;stroke-width:1.5;" width="48" x="542" y="921.6875"/><text fill="#000000" font-family="sans-serif" font-size="14" lengthAdjust="spacing" textLength="28" x="552" y="946.2207">&#24341;&#35825;</text><path d="M492,940.4922 L502,940.4922 C517,940.4922 517,940.4922 532,940.4922 L542,940.4922 " fill="none" style="stroke:#181818;stroke-width:1;"/><rect fill="#F1F1F1" height="37.6094" rx="12.5" ry="12.5" style="stroke:#181818;stroke-width:1.5;" width="48" x="542" y="979.2969"/><text fill="#000000" font-family="sans-serif" font-size="14" lengthAdjust="spacing" textLength="28" x="552" y="1003.8301">&#20171;&#32461;</text><path d="M492,940.4922 L502,940.4922 C517,940.4922 517,998.1016 532,998.1016 L542,998.1016 " fill="none" style="stroke:#181818;stroke-width:1;"/><path d="M366,974.4375 L376,974.4375 C391,974.4375 391,940.4922 406,940.4922 L416,940.4922 " fill="none" style="stroke:#181818;stroke-width:1;"/><rect fill="#F1F1F1" height="37.6094" rx="12.5" ry="12.5" style="stroke:#181818;stroke-width:1.5;" width="76" x="416" y="1070.8516"/><text fill="#000000" font-family="sans-serif" font-size="14" lengthAdjust="spacing" textLength="56" x="426" y="1095.3848">&#20986;&#21334;&#26041;&#24335;</text><rect fill="#F1F1F1" height="42.75" rx="12.5" ry="12.5" style="stroke:#181818;stroke-width:1.5;" width="100.8896" x="542" y="1036.9063"/><text fill="#000000" font-family="sans-serif" font-size="14" lengthAdjust="spacing" textLength="56" x="552" y="1066.5801">&#38750;&#27861;&#20080;&#21334;</text><path d="M624.8618,1057.4086 L630.6269,1051.6435 C631.3106,1050.9604 631.3106,1049.8521 630.6269,1049.1684 C629.9432,1048.4853 628.8361,1048.4853 628.1524,1049.1684 L622.3873,1054.9335 L616.6222,1049.169 C615.9391,1048.4853 614.8308,1048.4853 614.1471,1049.169 C613.4641,1049.8521 613.4641,1050.9604 614.1471,1051.6441 L619.9122,1057.4086 L614.1331,1063.1877 C613.4501,1063.8708 613.4501,1064.9791 614.1331,1065.6622 C614.4744,1066.004 614.923,1066.1749 615.3704,1066.1749 C615.8178,1066.1749 616.2664,1066.004 616.6082,1065.6622 L622.3867,1059.8837 L628.1512,1065.6482 C628.4931,1065.99 628.9411,1066.1609 629.3885,1066.1609 C629.8359,1066.1609 630.2839,1065.99 630.6257,1065.6482 C631.3094,1064.9651 631.3094,1063.8568 630.6257,1063.1737 L624.8618,1057.4086 " fill="#FE0000" style="stroke:;stroke-width:0;stroke-dasharray:;"/><path d="M492,1089.6563 L502,1089.6563 C517,1089.6563 517,1058.2813 532,1058.2813 L542,1058.2813 " fill="none" style="stroke:#181818;stroke-width:1;"/><rect fill="#F1F1F1" height="42.75" rx="12.5" ry="12.5" style="stroke:#181818;stroke-width:1.5;" width="100.8896" x="542" y="1099.6563"/><text fill="#000000" font-family="sans-serif" font-size="14" lengthAdjust="spacing" textLength="56" x="552" y="1129.3301">&#21512;&#27861;&#25424;&#29486;</text><path d="M631.9907,1110.4583 C631.1793,1109.9322 630.0961,1110.1632 629.5705,1110.974 L619.7646,1126.0888 L614.9825,1121.6671 C614.2726,1121.0108 613.166,1121.054 612.5097,1121.7639 C611.8535,1122.4733 611.8966,1123.581 612.6066,1124.2367 L618.8856,1130.042 C619.0658,1130.1972 619.0658,1130.1972 619.1492,1130.2514 C619.4432,1130.4428 619.7734,1130.5338 620.1001,1130.5338 C620.6729,1130.5338 621.2346,1130.2526 621.5701,1129.7358 L632.5064,1112.8786 C633.0326,1112.0678 632.8016,1110.9839 631.9907,1110.4583 " fill="#FE0000" style="stroke:;stroke-width:0;stroke-dasharray:;"/><path d="M492,1089.6563 L502,1089.6563 C517,1089.6563 517,1121.0313 532,1121.0313 L542,1121.0313 " fill="none" style="stroke:#181818;stroke-width:1;"/><path d="M366,974.4375 L376,974.4375 C391,974.4375 391,1089.6563 406,1089.6563 L416,1089.6563 " fill="none" style="stroke:#181818;stroke-width:1;"/><path d="M254,1003.2422 L264,1003.2422 C279,1003.2422 279,974.4375 294,974.4375 L304,974.4375 " fill="none" style="stroke:#181818;stroke-width:1;"/><rect fill="#F1F1F1" height="37.6094" rx="12.5" ry="12.5" style="stroke:#181818;stroke-width:1.5;" width="62" x="304" y="1191.2109"/><text fill="#000000" font-family="sans-serif" font-size="14" lengthAdjust="spacing" textLength="42" x="314" y="1215.7441">&#36141;&#20080;&#32773;</text><rect fill="#F1F1F1" height="37.6094" rx="12.5" ry="12.5" style="stroke:#181818;stroke-width:1.5;" width="258" x="416" y="1162.4063"/><text fill="#000000" font-family="sans-serif" font-size="14" lengthAdjust="spacing" textLength="238" x="426" y="1186.9395">&#21333;&#32431;&#36141;&#20080;&#32773;&#12289;&#22120;&#23448;&#25509;&#21463;&#32773;&#65292;&#19981;&#26500;&#25104;&#26412;&#32618;</text><path d="M366,1210.0156 L376,1210.0156 C391,1210.0156 391,1181.2109 406,1181.2109 L416,1181.2109 " fill="none" style="stroke:#181818;stroke-width:1;"/><rect fill="#F1F1F1" height="37.6094" rx="12.5" ry="12.5" style="stroke:#181818;stroke-width:1.5;" width="202" x="416" y="1220.0156"/><text fill="#000000" font-family="sans-serif" font-size="14" lengthAdjust="spacing" textLength="182" x="426" y="1244.5488">&#22914;&#26524;&#26377;&#32452;&#32455;&#34892;&#20026;&#65292;&#21017;&#26500;&#25104;&#26412;&#32618;</text><path d="M366,1210.0156 L376,1210.0156 C391,1210.0156 391,1238.8203 406,1238.8203 L416,1238.8203 " fill="none" style="stroke:#181818;stroke-width:1;"/><path d="M254,1003.2422 L264,1003.2422 C279,1003.2422 279,1210.0156 294,1210.0156 L304,1210.0156 " fill="none" style="stroke:#181818;stroke-width:1;"/><path d="M156,802.1406 L166,802.1406 C181,802.1406 181,1003.2422 196,1003.2422 L206,1003.2422 " fill="none" style="stroke:#181818;stroke-width:1;"/><rect fill="#F1F1F1" height="37.6094" rx="12.5" ry="12.5" style="stroke:#181818;stroke-width:1.5;" width="76" x="206" y="1392.8438"/><text fill="#000000" font-family="sans-serif" font-size="14" lengthAdjust="spacing" textLength="56" x="216" y="1417.377">&#32618;&#21517;&#36716;&#21270;</text><rect fill="#F1F1F1" height="37.6094" rx="12.5" ry="12.5" style="stroke:#181818;stroke-width:1.5;" width="48" x="332" y="1335.2344"/><text fill="#000000" font-family="sans-serif" font-size="14" lengthAdjust="spacing" textLength="28" x="342" y="1359.7676">&#21069;&#25552;</text><rect fill="#F1F1F1" height="37.6094" rx="12.5" ry="12.5" style="stroke:#181818;stroke-width:1.5;" width="91.5723" x="430" y="1277.625"/><text fill="#000000" font-family="sans-serif" font-size="14" lengthAdjust="spacing" textLength="71.5723" x="440" y="1302.1582">&#19981;&#28385;18&#21608;&#23681;</text><path d="M380,1354.0391 L390,1354.0391 C405,1354.0391 405,1296.4297 420,1296.4297 L430,1296.4297 " fill="none" style="stroke:#181818;stroke-width:1;"/><rect fill="#F1F1F1" height="37.6094" rx="12.5" ry="12.5" style="stroke:#181818;stroke-width:1.5;" width="104" x="430" y="1335.2344"/><text fill="#000000" font-family="sans-serif" font-size="14" lengthAdjust="spacing" textLength="84" x="440" y="1359.7676">&#26410;&#32463;&#26412;&#20154;&#21516;&#24847;</text><path d="M380,1354.0391 L390,1354.0391 C405,1354.0391 405,1354.0391 420,1354.0391 L430,1354.0391 " fill="none" style="stroke:#181818;stroke-width:1;"/><rect fill="#F1F1F1" height="37.6094" rx="12.5" ry="12.5" style="stroke:#181818;stroke-width:1.5;" width="118" x="430" y="1392.8438"/><text fill="#000000" font-family="sans-serif" font-size="14" lengthAdjust="spacing" textLength="98" x="440" y="1417.377">&#24378;&#36843;&#12289;&#27450;&#39575;&#20182;&#20154;</text><path d="M380,1354.0391 L390,1354.0391 C405,1354.0391 405,1411.6484 420,1411.6484 L430,1411.6484 " fill="none" style="stroke:#181818;stroke-width:1;"/><path d="M282,1411.6484 L292,1411.6484 C307,1411.6484 307,1354.0391 322,1354.0391 L332,1354.0391 " fill="none" style="stroke:#181818;stroke-width:1;"/><rect fill="#F1F1F1" height="37.6094" rx="12.5" ry="12.5" style="stroke:#181818;stroke-width:1.5;" width="48" x="332" y="1479.2578"/><text fill="#000000" font-family="sans-serif" font-size="14" lengthAdjust="spacing" textLength="28" x="342" y="1503.791">&#25104;&#20026;</text><rect fill="#90EE90" height="37.6094" rx="12.5" ry="12.5" style="stroke:#181818;stroke-width:1.5;" width="93.8896" x="430" y="1450.4531"/><text fill="#000000" font-family="sans-serif" font-size="14" lengthAdjust="spacing" textLength="70" x="440" y="1474.9863">&#25925;&#24847;&#20260;&#23475;&#32618;</text><path d="M380,1498.0625 L390,1498.0625 C405,1498.0625 405,1469.2578 420,1469.2578 L430,1469.2578 " fill="none" style="stroke:#181818;stroke-width:1;"/><rect fill="#90EE90" height="37.6094" rx="12.5" ry="12.5" style="stroke:#181818;stroke-width:1.5;" width="93.8896" x="430" y="1508.0625"/><text fill="#000000" font-family="sans-serif" font-size="14" lengthAdjust="spacing" textLength="70" x="440" y="1532.5957">&#25925;&#24847;&#26432;&#20154;&#32618;</text><path d="M380,1498.0625 L390,1498.0625 C405,1498.0625 405,1526.8672 420,1526.8672 L430,1526.8672 " fill="none" style="stroke:#181818;stroke-width:1;"/><path d="M282,1411.6484 L292,1411.6484 C307,1411.6484 307,1498.0625 322,1498.0625 L332,1498.0625 " fill="none" style="stroke:#181818;stroke-width:1;"/><path d="M156,802.1406 L166,802.1406 C181,802.1406 181,1411.6484 196,1411.6484 L206,1411.6484 " fill="none" style="stroke:#181818;stroke-width:1;"/><!--SRC=[xLXRJnj757xVNp5LNY0LvYA444A8u83QA8wYckGL3Uk9lM5tnrgFdLfH9HAkBdOWZO0cCKHKReCCnJH15TWc_9XwryiJVw5drzwmDbxleZvL0Y5ad_dET-RSvimm6cDOOP8WXoGSvRXl19aNuo62VBxksc-C9KNI7HMnpEAIs6KWkm3QPSfz0iWuZWbC9AXQcg-MbjIbefhPg1IBbTCtwjjTzU3NwccUuswtNKRmSnlPfQQe9cuIr8MhXUh7afRBDCXhQzLiMV_uYxwOHSEt518QYX2SI4xn4SBFJ4bOcHaQQQNqxa1_cRkEndb-LyqTUTC0vuupQdf1MzblmQJlp6f_VsfWak8Y4wAYm6CcK7dgHwSTdE-zkRvUjRIepsrxrRCIq-IGTbG2eLVtrSFZPhIRoMQ6awFpB_CNvMLjur1BhMXRho_AwShPblPpJij-k2YdMZWAGTTAExs3wkjTzTCB5-jeU9X8qGYE2R6HvkrhywlgsUQt-a5EBop27lIbl5xSQsrKo-QhfLKjkmy-g6jfKFqFXjNSnldSRlLLGVrj3knMIaRljBQhbelwsTu_io-q_U9vVhC6lRPf8sWfRUF4te1cp-gp2x21MZDggskLB-zDIUfgdMlRyzho6WJ0Qcshwem309IQOvjDQUlBrNVpMkfCBpIdlQwrawuS5ri5U-MzklAXPJJMzS9VhMgYj58jPPh3RBe8RglbrLQDjhMjVLwld1m2wFhjfgujWxQMMQkc3zpx1Ow3ep_1rDL0gPdrQh7mTHKoNS_6gz_LrKqp6scdyDSP_dYfRMSXuFQeWfQw_FQA5eJ-DA-kPVJJVJMzOI-7L0RopxNhDCwj8pWFfMip2JjhJZy8rnU0gLBEgGUVOQjjszU4QbkpG7i5oeqIc7xM11nj78Z3vfmRuUg2km8EArX2py60RrgC4_CJGcEOdmahD2w7_5Ia2XA5S8GPwx3wau4DGP8XyGxm-ge53Yk4oEsOJO0DdNG19oqiLR0STjfqRT62HkDAL7I2rXOjgBDZDgSK6dDYkpKnCJRczrl89155-im1MriqePpFog9xhEpe7WTuR2PffioExMiVApjq34Hy1AhDqsQ4i4mLuY5l2DqNPD8ilwJmQBOjbK4covGdCdEAZMm67Q49AhEQQ5e4J1ChD4TzRp83CZWJiUXN1Cboz1B9g8GPRObzg90eLimJzJfgTwQfmjognYiNOv1MvjOe7jdyL89kOKxPhciwqHdPaKaO4WQazc2sEtJS4XKY96glzqO3ut08Jej2BE9yOjdq6wqzYmYiEJOEPXvGvcx9z8fFOjc3LpmE4VRL6EPv8UHSqWqdgHlp4-YqcArzuJjF0lWfYRiqCHLX2meDsIhGfOKi3TDEbCO49YJ87TxM3bTEOomIhuvSkW2vmAxKaW03q3YwlTHKVOePvB7uz5F26_HEqS496Bj4ySYR42Xqa4bDtPYDk7iEz-L1tjYuxNkrePPTHmG7VuQxwpU9czVopMlvvhLyyrg-UItVl9R_zw_bXyR_XHy5xgC4KMB6BQBNrzVJr-yRx0XYXXxG1EeTG3szG_tzG_q3o1-SHCPo9zSH-7uInMWSBb4e15SCHPYE6pNHoTt32On-YCCKbiWGChvrJ0OwKN3S4g9nEI4eL9PWydBt7WTg8FGTPS4ePIPueBzhJ60eI1JO5deSuEwI9nXg3rHv6XBay11wD3dHDSZTXmaTns4m17SYFunkfYHXBVWl]--></g></svg>