<svg xmlns="http://www.w3.org/2000/svg" xmlns:xlink="http://www.w3.org/1999/xlink" contentStyleType="text/css" height="550px" preserveAspectRatio="none" style="width:997px;height:550px;background:#FFFFFF;" version="1.1" viewBox="0 0 997 550" width="997px" zoomAndPan="magnify"><title>&#20027;&#35266;&#35201;&#20214;-&#29359;&#32618;&#25925;&#24847;-&#21028;&#26029;&#26631;&#20934;</title><defs/><g><text fill="#000000" font-family="sans-serif" font-size="14" font-weight="bold" lengthAdjust="spacing" textLength="182.5742" x="405.7646" y="34.5332">&#20027;&#35266;&#35201;&#20214;-&#29359;&#32618;&#25925;&#24847;-&#21028;&#26029;&#26631;&#20934;</text><rect fill="#F1F1F1" height="37.6094" rx="12.5" ry="12.5" style="stroke:#181818;stroke-width:1.5;" width="197.3242" x="10" y="274.6445"/><text fill="#000000" font-family="sans-serif" font-size="14" lengthAdjust="spacing" textLength="177.3242" x="20" y="299.1777">&#20027;&#35266;&#35201;&#20214;-&#29359;&#32618;&#25925;&#24847;-&#21028;&#26029;&#26631;&#20934;</text><rect fill="#F1F1F1" height="37.6094" rx="12.5" ry="12.5" style="stroke:#181818;stroke-width:1.5;" width="90" x="257.3242" y="87.4141"/><text fill="#000000" font-family="sans-serif" font-size="14" lengthAdjust="spacing" textLength="70" x="267.3242" y="111.9473">&#20004;&#38454;&#23618;&#20307;&#31995;</text><rect fill="#F1F1F1" height="37.6094" rx="12.5" ry="12.5" style="stroke:#181818;stroke-width:1.5;" width="90" x="397.3242" y="58.6094"/><text fill="#000000" font-family="sans-serif" font-size="14" lengthAdjust="spacing" textLength="70" x="407.3242" y="83.1426">&#23458;&#35266;&#36829;&#27861;&#23618;</text><path d="M347.3242,106.2188 L357.3242,106.2188 C372.3242,106.2188 372.3242,77.4141 387.3242,77.4141 L397.3242,77.4141 " fill="none" style="stroke:#181818;stroke-width:1;"/><rect fill="#F1F1F1" height="37.6094" rx="12.5" ry="12.5" style="stroke:#181818;stroke-width:1.5;" width="90" x="397.3242" y="116.2188"/><text fill="#000000" font-family="sans-serif" font-size="14" lengthAdjust="spacing" textLength="70" x="407.3242" y="140.752">&#20027;&#35266;&#36131;&#20219;&#23618;</text><path d="M347.3242,106.2188 L357.3242,106.2188 C372.3242,106.2188 372.3242,135.0234 387.3242,135.0234 L397.3242,135.0234 " fill="none" style="stroke:#181818;stroke-width:1;"/><path d="M207.3242,293.4492 L217.3242,293.4492 C232.3242,293.4492 232.3242,106.2188 247.3242,106.2188 L257.3242,106.2188 " fill="none" style="stroke:#181818;stroke-width:1;"/><rect fill="#90EE90" height="37.6094" rx="12.5" ry="12.5" style="stroke:#181818;stroke-width:1.5;" width="135.8896" x="257.3242" y="332.2539"/><text fill="#000000" font-family="sans-serif" font-size="14" lengthAdjust="spacing" textLength="112" x="267.3242" y="356.7871">&#20027;&#23458;&#35266;&#30456;&#19968;&#33268;&#21407;&#21017;</text><rect fill="#90EE90" height="37.6094" rx="12.5" ry="12.5" style="stroke:#181818;stroke-width:1.5;" width="79.8896" x="443.2139" y="245.8398"/><text fill="#000000" font-family="sans-serif" font-size="14" lengthAdjust="spacing" textLength="56" x="453.2139" y="270.373">&#20869;&#23481;&#19968;&#33268;</text><rect fill="#F1F1F1" height="37.6094" rx="12.5" ry="12.5" style="stroke:#181818;stroke-width:1.5;" width="356" x="573.1035" y="173.8281"/><text fill="#000000" font-family="sans-serif" font-size="14" lengthAdjust="spacing" textLength="336" x="583.1035" y="198.3613">&#23458;&#35266;&#65306;&#34892;&#20026;&#20154;&#12289;&#34892;&#20026;&#12289;&#34892;&#20026;&#23545;&#35937;&#12289;&#21361;&#23475;&#32467;&#26524;&#12289;&#22240;&#26524;&#20851;&#31995;</text><path d="M523.1035,264.6445 L533.1035,264.6445 C548.1035,264.6445 548.1035,192.6328 563.1035,192.6328 L573.1035,192.6328 " fill="none" style="stroke:#181818;stroke-width:1;"/><rect fill="#F1F1F1" height="37.6094" rx="12.5" ry="12.5" style="stroke:#181818;stroke-width:1.5;" width="90" x="573.1035" y="274.6445"/><text fill="#000000" font-family="sans-serif" font-size="14" lengthAdjust="spacing" textLength="70" x="583.1035" y="299.1777">&#20027;&#35266;&#65306;&#35748;&#35782;</text><rect fill="#90EE90" height="37.6094" rx="12.5" ry="12.5" style="stroke:#181818;stroke-width:1.5;" width="107.8896" x="713.1035" y="231.4375"/><text fill="#000000" font-family="sans-serif" font-size="14" lengthAdjust="spacing" textLength="84" x="723.1035" y="255.9707">&#20107;&#23454;&#35748;&#35782;&#27491;&#30830;</text><path d="M663.1035,293.4492 L673.1035,293.4492 C688.1035,293.4492 688.1035,250.2422 703.1035,250.2422 L713.1035,250.2422 " fill="none" style="stroke:#181818;stroke-width:1;"/><rect fill="#C0C0C0" height="37.6094" rx="12.5" ry="12.5" style="stroke:#181818;stroke-width:1.5;" width="104" x="713.1035" y="289.0469"/><text fill="#000000" font-family="sans-serif" font-size="14" lengthAdjust="spacing" textLength="84" x="723.1035" y="313.5801">&#20107;&#23454;&#35748;&#35782;&#38169;&#35823;</text><rect fill="#F1F1F1" height="37.6094" rx="12.5" ry="12.5" style="stroke:#181818;stroke-width:1.5;" width="118" x="867.1035" y="260.2422"/><text fill="#000000" font-family="sans-serif" font-size="14" lengthAdjust="spacing" textLength="98" x="877.1035" y="284.7754">&#20855;&#20307;&#30340;&#35748;&#35782;&#38169;&#35823;</text><path d="M817.1035,307.8516 L827.1035,307.8516 C842.1035,307.8516 842.1035,279.0469 857.1035,279.0469 L867.1035,279.0469 " fill="none" style="stroke:#181818;stroke-width:1;"/><rect fill="#F1F1F1" height="37.6094" rx="12.5" ry="12.5" style="stroke:#181818;stroke-width:1.5;" width="118" x="867.1035" y="317.8516"/><text fill="#000000" font-family="sans-serif" font-size="14" lengthAdjust="spacing" textLength="98" x="877.1035" y="342.3848">&#25277;&#35937;&#30340;&#35748;&#35782;&#38169;&#35823;</text><path d="M817.1035,307.8516 L827.1035,307.8516 C842.1035,307.8516 842.1035,336.6563 857.1035,336.6563 L867.1035,336.6563 " fill="none" style="stroke:#181818;stroke-width:1;"/><path d="M663.1035,293.4492 L673.1035,293.4492 C688.1035,293.4492 688.1035,307.8516 703.1035,307.8516 L713.1035,307.8516 " fill="none" style="stroke:#181818;stroke-width:1;"/><path d="M523.1035,264.6445 L533.1035,264.6445 C548.1035,264.6445 548.1035,293.4492 563.1035,293.4492 L573.1035,293.4492 " fill="none" style="stroke:#181818;stroke-width:1;"/><path d="M393.2139,351.0586 L403.2139,351.0586 C418.2139,351.0586 418.2139,264.6445 433.2139,264.6445 L443.2139,264.6445 " fill="none" style="stroke:#181818;stroke-width:1;"/><rect fill="#90EE90" height="37.6094" rx="12.5" ry="12.5" style="stroke:#181818;stroke-width:1.5;" width="261.8896" x="443.2139" y="433.0703"/><text fill="#000000" font-family="sans-serif" font-size="14" lengthAdjust="spacing" textLength="238" x="453.2139" y="457.6035">&#26102;&#38388;&#19968;&#33268;&#65288;&#34892;&#20026;&#19982;&#30446;&#30340;&#21516;&#26102;&#23384;&#22312;&#21407;&#21017;&#65289;</text><rect fill="#F1F1F1" height="37.6094" rx="12.5" ry="12.5" style="stroke:#181818;stroke-width:1.5;" width="90" x="755.1035" y="375.4609"/><text fill="#000000" font-family="sans-serif" font-size="14" lengthAdjust="spacing" textLength="70" x="765.1035" y="399.9941">&#23458;&#35266;&#65306;&#34892;&#20026;</text><path d="M705.1035,451.875 L715.1035,451.875 C730.1035,451.875 730.1035,394.2656 745.1035,394.2656 L755.1035,394.2656 " fill="none" style="stroke:#181818;stroke-width:1;"/><rect fill="#F1F1F1" height="37.6094" rx="12.5" ry="12.5" style="stroke:#181818;stroke-width:1.5;" width="90" x="755.1035" y="433.0703"/><text fill="#000000" font-family="sans-serif" font-size="14" lengthAdjust="spacing" textLength="70" x="765.1035" y="457.6035">&#20027;&#35266;&#65306;&#30446;&#30340;</text><rect fill="#C0C0C0" height="37.6094" rx="12.5" ry="12.5" style="stroke:#181818;stroke-width:1.5;" width="90" x="895.1035" y="375.4609"/><text fill="#000000" font-family="sans-serif" font-size="14" lengthAdjust="spacing" textLength="70" x="905.1035" y="399.9941">&#20107;&#21069;&#30340;&#24515;&#29702;</text><path d="M845.1035,451.875 L855.1035,451.875 C870.1035,451.875 870.1035,394.2656 885.1035,394.2656 L895.1035,394.2656 " fill="none" style="stroke:#181818;stroke-width:1;"/><rect fill="#90EE90" height="37.6094" rx="12.5" ry="12.5" style="stroke:#181818;stroke-width:1.5;" width="90" x="895.1035" y="433.0703"/><text fill="#000000" font-family="sans-serif" font-size="14" lengthAdjust="spacing" textLength="70" x="905.1035" y="457.6035">&#34892;&#20026;&#26102;&#24515;&#29702;</text><path d="M845.1035,451.875 L855.1035,451.875 C870.1035,451.875 870.1035,451.875 885.1035,451.875 L895.1035,451.875 " fill="none" style="stroke:#181818;stroke-width:1;"/><rect fill="#C0C0C0" height="37.6094" rx="12.5" ry="12.5" style="stroke:#181818;stroke-width:1.5;" width="76" x="895.1035" y="490.6797"/><text fill="#000000" font-family="sans-serif" font-size="14" lengthAdjust="spacing" textLength="56" x="905.1035" y="515.2129">&#20107;&#21518;&#24515;&#29702;</text><path d="M845.1035,451.875 L855.1035,451.875 C870.1035,451.875 870.1035,509.4844 885.1035,509.4844 L895.1035,509.4844 " fill="none" style="stroke:#181818;stroke-width:1;"/><path d="M705.1035,451.875 L715.1035,451.875 C730.1035,451.875 730.1035,451.875 745.1035,451.875 L755.1035,451.875 " fill="none" style="stroke:#181818;stroke-width:1;"/><path d="M393.2139,351.0586 L403.2139,351.0586 C418.2139,351.0586 418.2139,451.875 433.2139,451.875 L443.2139,451.875 " fill="none" style="stroke:#181818;stroke-width:1;"/><path d="M207.3242,293.4492 L217.3242,293.4492 C232.3242,293.4492 232.3242,351.0586 247.3242,351.0586 L257.3242,351.0586 " fill="none" style="stroke:#181818;stroke-width:1;"/><!--SRC=[xLTRJnj757xVNp5LNg2IJOWi526420weZN0KrIGlLHx6knCpONV7cfrrP5L8IHekIHEAbAQvaAQXGMrL2Li8H1qCoe-frpPF_8MUsGkiWVKkxo0UTi_vpdSkSywPzPWbC1S6DJK3bnJbAsggkgqHb4uFXFyjKT79G4d7fh0DFINnAJ18kV8q1PcY22fqWfhrHkUlnvq_7pKREwdsirfx_v_Mg_dMavzJpj9wwzUDriT5Pt51KRvEYaJm9y7h1szsdCt7pVsNxQs6A_KqJlKFIVFbjzRMAz27DBw3xK_DHYFGk5BFfBrQRzOVTXQtdUNVdQMtQ6I46AKPR55hT3JClp3lL3zxoBCnuJWEzzvrrfutwxlDtTt_7ZxodeyUdDhdpkOQl3elDftgLhlnilNXlNnT_GWFplnMEBLm4fAskjwfBNHfVSJkJqxrWwTkRNnghrMZmtGjlhzaKRrC-DqkquDVtdPgjLDeFxdvVsNXtpr9W6qzsuSaex2WVxrpy7hRA-ZXtf9VhlfoUxKAHixASm0u6s-Sztzx1tEuz_GSTOygdySULuodBsG8NtvihooS1TLfSKOKEI7cNUIvax56miFCAyi-JXaZC6p1m8rrpz-8Er2ZYY-uJd6HOmFz0EpfWcuJzmcXSQpE5ZcpJItBTCQH6vVKWtPEOZNCPpdH8k2-DW2x2VLYTW4XT2K6N0cmZ6Ep61MqfmoW9PkNz2YefmoWqOc5akBCYcAxD3avFfxD1iWAqNNs80BhALseaWvwCBvMOVGuvAdEG2ycig95at6IeC08JL6Jd9GVKoHqsvDAafacKuaf8cWiqwqEGfFC59wee0Fc12jqiH-RAO2CCXFhMKwD8D5Zf6065knCx2rEIfXZAJcFsRK2uoBkU9Do2G77Ak8wEY5RbXdGrYBgj7tBA3fvEYOfme41QRYOlRP3t45fX9IisOgBdZlbO0AsLK6drapqQWdPTtjxC4F5oTf4kBd9HBmdDokrWiq4MQbO8-B86LPLgaMtTDVAYsE-1vDcXSONtbMIm_U97JF4J8SGEDD27HWpGe65wwV4B2fecLnJG-DmQcrYdIHDv3W5E0iSIsrGkAdaZatIK_vr8yajkt2Vg98-gZgu3FSZuGbvovJ11BdKB8vPrZrnkVrP3fRWqU3sdjMkNkwz9LpcEMLamB_oBxwVBxwVBxwVp_lzV4l-9BsTcq80jEIw6anVkNmbaxxQbyS2tMHbD3Y4BWyEPpB3cI6KpKyZgUvN-dBVJYEBsR2jaGQxZDE2BGUyNxc1onXzPyEu6sGOoRU-wLm_oay4GZHXbYbdfW4Zhjoua_D0w1icyYKcNF1G9ZLE1SeJ3c6XEpdbEhc7RLs0gSeqQXQ7qUtfoTHLPGfMWOsBu0YMRnPsXE0LqEN_1m00]--></g></svg>