<svg xmlns="http://www.w3.org/2000/svg" xmlns:xlink="http://www.w3.org/1999/xlink" contentStyleType="text/css" height="574px" preserveAspectRatio="none" style="width:411px;height:574px;background:#FFFFFF;" version="1.1" viewBox="0 0 411 574" width="411px" zoomAndPan="magnify"><defs/><g><path d="M19.5,7 L385.5,7 A12.5,12.5 0 0 1 398,19.5 L398,34.6094 L7,34.6094 L7,19.5 A12.5,12.5 0 0 1 19.5,7 " fill="#F1F1F1" style="stroke:#F1F1F1;stroke-width:1;"/><rect fill="none" height="561.6094" rx="12.5" ry="12.5" style="stroke:#181818;stroke-width:0.5;" width="391" x="7" y="7"/><line style="stroke:#181818;stroke-width:0.5;" x1="7" x2="398" y1="34.6094" y2="34.6094"/><text fill="#000000" font-family="sans-serif" font-size="14" lengthAdjust="spacing" textLength="56" x="174.5" y="26.5332">&#25925;&#24847;&#29359;&#32618;</text><g id="intentional_crime.subjectivity1"><rect fill="#F1F1F1" height="50" rx="12.5" ry="12.5" style="stroke:#181818;stroke-width:0.5;" width="50" x="158" y="101.6094"/><line style="stroke:#181818;stroke-width:0.5;" x1="158" x2="208" y1="129.2188" y2="129.2188"/><text fill="#000000" font-family="sans-serif" font-size="14" lengthAdjust="spacing" textLength="28" x="169" y="121.1426">&#20027;&#35266;</text></g><g id="intentional_crime.objectivity1"><rect fill="#F1F1F1" height="50" rx="12.5" ry="12.5" style="stroke:#181818;stroke-width:0.5;" width="50" x="233" y="101.6094"/><line style="stroke:#181818;stroke-width:0.5;" x1="233" x2="283" y1="129.2188" y2="129.2188"/><text fill="#000000" font-family="sans-serif" font-size="14" lengthAdjust="spacing" textLength="28" x="244" y="121.1426">&#23458;&#35266;</text></g><rect fill="#555555" height="8" style="stroke:none;stroke-width:1;" width="80" x="128" y="187.6094"/><rect fill="#555555" height="8" style="stroke:none;stroke-width:1;" width="80" x="128" y="317.6094"/><g id="intentional_crime.intention"><rect fill="#F1F1F1" height="50" rx="12.5" ry="12.5" style="stroke:#181818;stroke-width:0.5;" width="50" x="143" y="231.6094"/><line style="stroke:#181818;stroke-width:0.5;" x1="143" x2="193" y1="259.2188" y2="259.2188"/><text fill="#000000" font-family="sans-serif" font-size="14" lengthAdjust="spacing" textLength="28" x="154" y="251.1426">&#25925;&#24847;</text></g><rect fill="#555555" height="8" style="stroke:none;stroke-width:1;" width="80" x="226" y="187.6094"/><rect fill="#555555" height="8" style="stroke:none;stroke-width:1;" width="80" x="226" y="317.6094"/><g id="intentional_crime.danger1"><rect fill="#F1F1F1" height="50" rx="12.5" ry="12.5" style="stroke:#181818;stroke-width:0.5;" width="76" x="219" y="231.6094"/><line style="stroke:#181818;stroke-width:0.5;" x1="219" x2="295" y1="259.2188" y2="259.2188"/><text fill="#000000" font-family="sans-serif" font-size="14" lengthAdjust="spacing" textLength="56" x="229" y="251.1426">&#21361;&#38505;&#29366;&#24577;</text></g><g id="intentional_crime.actual_damage1"><rect fill="#F1F1F1" height="50" rx="12.5" ry="12.5" style="stroke:#181818;stroke-width:0.5;" width="76" x="313" y="231.6094"/><line style="stroke:#181818;stroke-width:0.5;" x1="313" x2="389" y1="259.2188" y2="259.2188"/><text fill="#000000" font-family="sans-serif" font-size="14" lengthAdjust="spacing" textLength="56" x="323" y="251.1426">&#23454;&#23475;&#32467;&#26524;</text></g><g id="intentional_crime.Integration_of_Subjectivity_and_Objectivity"><rect fill="#F1F1F1" height="50" rx="12.5" ry="12.5" style="stroke:#181818;stroke-width:0.5;" width="104" x="165" y="363.1094"/><line style="stroke:#181818;stroke-width:0.5;" x1="165" x2="269" y1="390.7188" y2="390.7188"/><text fill="#000000" font-family="sans-serif" font-size="14" lengthAdjust="spacing" textLength="84" x="175" y="382.6426">&#20027;&#23458;&#35266;&#30456;&#19968;&#33268;</text></g><g id="intentional_crime.criminal_law1"><rect fill="#F1F1F1" height="52.7031" rx="12.5" ry="12.5" style="stroke:#181818;stroke-width:0.5;" width="128" x="19" y="361.6094"/><line style="stroke:#181818;stroke-width:0.5;" x1="19" x2="147" y1="389.2188" y2="389.2188"/><text fill="#000000" font-family="sans-serif" font-size="14" lengthAdjust="spacing" textLength="28" x="69" y="381.1426">&#21009;&#27861;</text><text fill="#000000" font-family="sans-serif" font-size="12" lengthAdjust="spacing" textLength="108" x="24" y="406.6758">&#22788;&#32602;&#25925;&#24847;&#29359;&#32618;&#26159;&#21407;&#21017;</text></g><g id="intentional_crime.crime_establishment1"><rect fill="#F1F1F1" height="50" rx="12.5" ry="12.5" style="stroke:#181818;stroke-width:0.5;" width="76" x="112" y="450.6094"/><line style="stroke:#181818;stroke-width:0.5;" x1="112" x2="188" y1="478.2188" y2="478.2188"/><text fill="#000000" font-family="sans-serif" font-size="14" lengthAdjust="spacing" textLength="56" x="122" y="470.1426">&#29359;&#32618;&#25104;&#31435;</text></g><ellipse cx="217" cy="55.6094" fill="#222222" rx="10" ry="10" style="stroke:#222222;stroke-width:1;"/><ellipse cx="150" cy="547.6094" fill="none" rx="11" ry="11" style="stroke:#222222;stroke-width:1;"/><ellipse cx="150" cy="547.6094" fill="#222222" rx="6" ry="6" style="stroke:#222222;stroke-width:1;"/><!--link *start*intentional_crime to subjectivity1--><g id="link_*start*intentional_crime_subjectivity1"><path d="M212.97,64.7994 C208.53,73.7894 203.8513,83.2769 197.5513,96.0669 " fill="none" id="*start*intentional_crime-to-subjectivity1" style="stroke:#181818;stroke-width:1;"/><polygon fill="#181818" points="194.9,101.4494,202.4652,95.1432,197.1094,96.964,195.2886,91.6082,194.9,101.4494" style="stroke:#181818;stroke-width:1;"/></g><!--link *start*intentional_crime to objectivity1--><g id="link_*start*intentional_crime_objectivity1"><path d="M221.7,64.5294 C227.05,73.5194 232.9547,83.4614 240.6447,96.4014 " fill="none" id="*start*intentional_crime-to-objectivity1" style="stroke:#181818;stroke-width:1;"/><polygon fill="#181818" points="243.71,101.5594,242.5507,91.779,241.1556,97.2611,235.6735,95.866,243.71,101.5594" style="stroke:#181818;stroke-width:1;"/></g><!--link subjectivity1 to subjectivity1_fork--><g id="link_subjectivity1_subjectivity1_fork"><path d="M177.24,151.7894 C174,165.3894 171.7042,175.0836 170.1442,181.6136 " fill="none" id="subjectivity1-to-subjectivity1_fork" style="stroke:#181818;stroke-width:1;"/><polygon fill="#181818" points="168.75,187.4494,174.7317,179.6251,169.9118,182.5862,166.9507,177.7663,168.75,187.4494" style="stroke:#181818;stroke-width:1;"/></g><!--link subjectivity1_fork to intention--><g id="link_subjectivity1_fork_intention"><path d="M168,195.6494 C168,202.1394 168,211.8794 168,225.5994 " fill="none" id="subjectivity1_fork-to-intention" style="stroke:#181818;stroke-width:1;"/><polygon fill="#181818" points="168,231.5994,172,222.5994,168,226.5994,164,222.5994,168,231.5994" style="stroke:#181818;stroke-width:1;"/></g><!--link intention to subjectivity1_join--><g id="link_intention_subjectivity1_join"><path d="M168,281.7894 C168,295.3894 168,304.9194 168,311.4494 " fill="none" id="intention-to-subjectivity1_join" style="stroke:#181818;stroke-width:1;"/><polygon fill="#181818" points="168,317.4494,172,308.4494,168,312.4494,164,308.4494,168,317.4494" style="stroke:#181818;stroke-width:1;"/></g><!--link objectivity1 to objectivity1_fork--><g id="link_objectivity1_objectivity1_fork"><path d="M261.07,151.7894 C262.8,165.3894 264.0135,174.9673 264.8435,181.4973 " fill="none" id="objectivity1-to-objectivity1_fork" style="stroke:#181818;stroke-width:1;"/><polygon fill="#181818" points="265.6,187.4494,268.4333,178.0168,264.9695,182.4893,260.4971,179.0256,265.6,187.4494" style="stroke:#181818;stroke-width:1;"/></g><!--link objectivity1_fork to danger1--><g id="link_objectivity1_fork_danger1"><path d="M265.57,195.6494 C264.64,202.1394 263.2385,211.9397 261.2785,225.6597 " fill="none" id="objectivity1_fork-to-danger1" style="stroke:#181818;stroke-width:1;"/><polygon fill="#181818" points="260.43,231.5994,265.6626,223.2555,261.1371,226.6496,257.743,222.1241,260.43,231.5994" style="stroke:#181818;stroke-width:1;"/></g><!--link objectivity1_fork to actual_damage1--><g id="link_objectivity1_fork_actual_damage1"><path d="M270.1,195.6494 C278.85,202.1394 295.2688,214.3078 313.7888,228.0278 " fill="none" id="objectivity1_fork-to-actual_damage1" style="stroke:#181818;stroke-width:1;"/><polygon fill="#181818" points="318.61,231.5994,313.7593,223.0278,314.5924,228.623,308.9972,229.4561,318.61,231.5994" style="stroke:#181818;stroke-width:1;"/></g><!--link danger1 to objectivity1_join--><g id="link_danger1_objectivity1_join"><path d="M260.45,281.7894 C262.4,295.3894 263.774,304.9793 264.704,311.5093 " fill="none" id="danger1-to-objectivity1_join" style="stroke:#181818;stroke-width:1;"/><polygon fill="#181818" points="265.55,317.4494,268.2411,307.9753,264.845,312.4993,260.321,309.1033,265.55,317.4494" style="stroke:#181818;stroke-width:1;"/></g><!--link actual_damage1 to objectivity1_join--><g id="link_actual_damage1_objectivity1_join"><path d="M318.38,281.7894 C300.03,295.3894 283.8903,307.3466 275.0803,313.8766 " fill="none" id="actual_damage1-to-objectivity1_join" style="stroke:#181818;stroke-width:1;"/><polygon fill="#181818" points="270.26,317.4494,279.8723,315.3037,274.2769,314.472,275.1085,308.8767,270.26,317.4494" style="stroke:#181818;stroke-width:1;"/></g><!--link subjectivity1_join to Integration_of_Subjectivity_and_Objectivity--><g id="link_subjectivity1_join_Integration_of_Subjectivity_and_Objectivity"><path d="M170.36,325.7194 C175.45,332.4094 184.2114,343.941 194.9414,358.071 " fill="none" id="subjectivity1_join-to-Integration_of_Subjectivity_and_Objectivity" style="stroke:#181818;stroke-width:1;"/><polygon fill="#181818" points="198.57,362.8494,196.3127,353.2627,195.5462,358.8674,189.9415,358.1008,198.57,362.8494" style="stroke:#181818;stroke-width:1;"/></g><!--link objectivity1_join to Integration_of_Subjectivity_and_Objectivity--><g id="link_objectivity1_join_Integration_of_Subjectivity_and_Objectivity"><path d="M263.64,325.7194 C258.55,332.4094 249.7886,343.941 239.0586,358.071 " fill="none" id="objectivity1_join-to-Integration_of_Subjectivity_and_Objectivity" style="stroke:#181818;stroke-width:1;"/><polygon fill="#181818" points="235.43,362.8494,244.0585,358.1008,238.4538,358.8674,237.6873,353.2627,235.43,362.8494" style="stroke:#181818;stroke-width:1;"/></g><!--link Integration_of_Subjectivity_and_Objectivity to crime_establishment1--><g id="link_Integration_of_Subjectivity_and_Objectivity_crime_establishment1"><path d="M197.98,413.3794 C188.85,425.0294 181.6394,434.2255 172.5394,445.8455 " fill="none" id="Integration_of_Subjectivity_and_Objectivity-to-crime_establishment1" style="stroke:#181818;stroke-width:1;"/><polygon fill="#181818" points="168.84,450.5694,177.5383,445.9499,171.9228,446.6329,171.2399,441.0174,168.84,450.5694" style="stroke:#181818;stroke-width:1;"/></g><!--link criminal_law1 to crime_establishment1--><g id="link_criminal_law1_crime_establishment1"><path d="M103.1,414.7594 C111.97,426.0794 118.6291,434.5768 127.3591,445.7168 " fill="none" id="criminal_law1-to-crime_establishment1" style="stroke:#181818;stroke-width:1;"/><polygon fill="#181818" points="131.06,450.4394,128.657,440.8882,127.9759,446.5039,122.3602,445.8227,131.06,450.4394" style="stroke:#181818;stroke-width:1;"/></g><!--link crime_establishment1 to *end*intentional_crime--><g id="link_crime_establishment1_*end*intentional_crime"><path d="M150,500.6994 C150,512.8794 150,521.0194 150,530.3494 " fill="none" id="crime_establishment1-to-*end*intentional_crime" style="stroke:#181818;stroke-width:1;"/><polygon fill="#181818" points="150,536.3494,154,527.3494,150,531.3494,146,527.3494,150,536.3494" style="stroke:#181818;stroke-width:1;"/></g><!--SRC=[fLHTIyCm57tlhwXx53hPgyZUVVB1Hv6IjN56sqJQL14HL1J7n2zau5GcY20gRCX41kA_iQt-2vEqQj9rVfO-9Bdddjvpxas74BQSm8PwiJWYlpvTTk38WWCm3Lp7S16s3HSi6EAyYDYPflaKKAWNeiPMjBaVrplnqqr11xwEC8MO8eA1OreUSg6-ekdiIV7FlSUNgms1z8FA7BGeMaHqkIHZmlR5EuPa8LF3qxfXb7EItoDAYYRnAYdc3F7cMMXiZ2_AvO6uEOAmmF65WakrgwgJkCpGNwxuTZymAOcZLRQFNGuJBqhMI7ucaNoda6G5aDpwbQxjthqsh-FwGxIsBZon0Qv2BzFPLjZknez7KUjCO8150pOeDd115POoWvBCGNpQU-wjlMpVYuHnPaRL0zmEayoOav8R9i2sEV6vxnFoQR1SMZuYKrZYSPhMRuXe0qUeQLy0SuQCW_ybxqyiIdjgXr6t8NpcLnVnE-o0fSGdvMHK3oytuwSJ-Vf7nvrmxpoiDMNAD5GxY6ztFeYX2LcuuY1_rcMZdV3_ecWXSY2HKkZtq6n0PB2VYRQglG40]--></g></svg>