<svg xmlns="http://www.w3.org/2000/svg" xmlns:xlink="http://www.w3.org/1999/xlink" contentStyleType="text/css" height="1311px" preserveAspectRatio="none" style="width:1342px;height:1311px;background:#FFFFFF;" version="1.1" viewBox="0 0 1342 1311" width="1342px" zoomAndPan="magnify"><defs/><g><rect fill="#F1F1F1" height="38.6211" rx="12.5" ry="12.5" style="stroke:#181818;stroke-width:1.5;" width="202" x="10" y="635.5215"/><text fill="#000000" font-family="sans-serif" font-size="14" lengthAdjust="spacing" textLength="182" x="20" y="660.6289">&#32467;&#26524;&#30340;&#25512;&#36831;&#21457;&#29983;&#65288;&#20107;&#21069;&#25925;&#24847;&#65289;</text><rect fill="#F1F1F1" height="38.6211" rx="12.5" ry="12.5" style="stroke:#181818;stroke-width:1.5;" width="76" x="262" y="49.3105"/><text fill="#000000" font-family="sans-serif" font-size="14" lengthAdjust="spacing" textLength="56" x="272" y="74.418">&#34892;&#20026;&#20844;&#24335;</text><rect fill="#F1F1F1" height="38.6211" rx="12.5" ry="12.5" style="stroke:#181818;stroke-width:1.5;" width="119.9551" x="388" y="49.3105"/><text fill="#000000" font-family="sans-serif" font-size="14" lengthAdjust="spacing" textLength="99.9551" x="398" y="74.418">&#21069;&#34892;&#20026; + &#21518;&#34892;&#20026;</text><rect fill="#F1F1F1" height="38.6211" rx="12.5" ry="12.5" style="stroke:#181818;stroke-width:1.5;" width="272" x="557.9551" y="20"/><text fill="#000000" font-family="sans-serif" font-size="14" lengthAdjust="spacing" textLength="252" x="567.9551" y="45.1074">&#21069;&#34892;&#20026;&#65306;&#30002;&#26432;&#20057;&#65292;&#33268;&#20057;&#26127;&#36855;&#65292;&#20197;&#20026;&#20057;&#27515;&#20129;</text><path d="M507.9551,68.6211 L517.9551,68.6211 C532.9551,68.6211 532.9551,39.3105 547.9551,39.3105 L557.9551,39.3105 " fill="none" style="stroke:#181818;stroke-width:1.0;"/><rect fill="#F1F1F1" height="38.6211" rx="12.5" ry="12.5" style="stroke:#181818;stroke-width:1.5;" width="169.3242" x="557.9551" y="78.6211"/><text fill="#000000" font-family="sans-serif" font-size="14" lengthAdjust="spacing" textLength="149.3242" x="567.9551" y="103.7285">&#21518;&#34892;&#20026;&#65306;&#25243;&#8220;&#23608;&#8221;&#65292;&#28153;&#27515;&#20057;</text><path d="M507.9551,68.6211 L517.9551,68.6211 C532.9551,68.6211 532.9551,97.9316 547.9551,97.9316 L557.9551,97.9316 " fill="none" style="stroke:#181818;stroke-width:1.0;"/><path d="M338,68.6211 L348,68.6211 C363,68.6211 363,68.6211 378,68.6211 L388,68.6211 " fill="none" style="stroke:#181818;stroke-width:1.0;"/><path d="M212,654.832 L222,654.832 C237,654.832 237,68.6211 252,68.6211 L262,68.6211 " fill="none" style="stroke:#181818;stroke-width:1.0;"/><rect fill="#F1F1F1" height="38.6211" rx="12.5" ry="12.5" style="stroke:#181818;stroke-width:1.5;" width="76" x="262" y="137.2422"/><text fill="#000000" font-family="sans-serif" font-size="14" lengthAdjust="spacing" textLength="56" x="272" y="162.3496">&#28966;&#28857;&#38382;&#39064;</text><rect fill="#F1F1F1" height="38.6211" rx="12.5" ry="12.5" style="stroke:#181818;stroke-width:1.5;" width="244" x="388" y="137.2422"/><text fill="#000000" font-family="sans-serif" font-size="14" lengthAdjust="spacing" textLength="224" x="398" y="162.3496">&#27515;&#20129;&#32467;&#26524;&#65292;&#19982;&#21738;&#20010;&#34892;&#20026;&#26377;&#22240;&#26524;&#20851;&#31995;&#65311;</text><path d="M338,156.5527 L348,156.5527 C363,156.5527 363,156.5527 378,156.5527 L388,156.5527 " fill="none" style="stroke:#181818;stroke-width:1.0;"/><path d="M212,654.832 L222,654.832 C237,654.832 237,156.5527 252,156.5527 L262,156.5527 " fill="none" style="stroke:#181818;stroke-width:1.0;"/><rect fill="#F1F1F1" height="38.6211" rx="12.5" ry="12.5" style="stroke:#181818;stroke-width:1.5;" width="48" x="262" y="664.832"/><text fill="#000000" font-family="sans-serif" font-size="14" lengthAdjust="spacing" textLength="28" x="272" y="689.9395">&#20998;&#26512;</text><rect fill="#F1F1F1" height="38.6211" rx="12.5" ry="12.5" style="stroke:#181818;stroke-width:1.5;" width="76" x="360" y="254.4844"/><text fill="#000000" font-family="sans-serif" font-size="14" lengthAdjust="spacing" textLength="56" x="370" y="279.5918">&#21021;&#27493;&#20998;&#26512;</text><rect fill="#F1F1F1" height="38.6211" rx="12.5" ry="12.5" style="stroke:#181818;stroke-width:1.5;" width="146" x="486" y="225.1738"/><text fill="#000000" font-family="sans-serif" font-size="14" lengthAdjust="spacing" textLength="126" x="496" y="250.2813">&#21069;&#34892;&#20026;&#65306;&#25925;&#24847;&#26432;&#20154;&#32618;</text><rect fill="#F1F1F1" height="38.6211" rx="12.5" ry="12.5" style="stroke:#181818;stroke-width:1.5;" width="76" x="682" y="195.8633"/><text fill="#000000" font-family="sans-serif" font-size="14" lengthAdjust="spacing" textLength="56" x="692" y="220.9707">&#32618;&#21517;&#25104;&#31435;</text><path d="M632,244.4844 L642,244.4844 C657,244.4844 657,215.1738 672,215.1738 L682,215.1738 " fill="none" style="stroke:#181818;stroke-width:1.0;"/><rect fill="#90EE90" height="38.6211" rx="12.5" ry="12.5" style="stroke:#181818;stroke-width:1.5;" width="177.8896" x="682" y="254.4844"/><text fill="#000000" font-family="sans-serif" font-size="14" lengthAdjust="spacing" textLength="154" x="692" y="279.5918">&#26159;&#21542;&#26082;&#36930;&#65292;&#26377;&#24453;&#20110;&#35752;&#35770;&#65311;</text><path d="M632,244.4844 L642,244.4844 C657,244.4844 657,273.7949 672,273.7949 L682,273.7949 " fill="none" style="stroke:#181818;stroke-width:1.0;"/><path d="M436,273.7949 L446,273.7949 C461,273.7949 461,244.4844 476,244.4844 L486,244.4844 " fill="none" style="stroke:#181818;stroke-width:1.0;"/><rect fill="#F1F1F1" height="38.6211" rx="12.5" ry="12.5" style="stroke:#181818;stroke-width:1.5;" width="174" x="486" y="313.1055"/><text fill="#000000" font-family="sans-serif" font-size="14" lengthAdjust="spacing" textLength="154" x="496" y="338.2129">&#21518;&#34892;&#20026;&#65306;&#36807;&#22833;&#33268;&#20154;&#27515;&#20129;&#32618;</text><path d="M436,273.7949 L446,273.7949 C461,273.7949 461,332.416 476,332.416 L486,332.416 " fill="none" style="stroke:#181818;stroke-width:1.0;"/><path d="M310,684.1426 L320,684.1426 C335,684.1426 335,273.7949 350,273.7949 L360,273.7949 " fill="none" style="stroke:#181818;stroke-width:1.0;"/><rect fill="#F1F1F1" height="38.6211" rx="12.5" ry="12.5" style="stroke:#181818;stroke-width:1.5;" width="104" x="360" y="518.2793"/><text fill="#000000" font-family="sans-serif" font-size="14" lengthAdjust="spacing" textLength="84" x="370" y="543.3867">&#20171;&#20837;&#22240;&#32032;&#20998;&#26512;</text><rect fill="#F1F1F1" height="38.6211" rx="12.5" ry="12.5" style="stroke:#181818;stroke-width:1.5;" width="132" x="514" y="371.7266"/><text fill="#000000" font-family="sans-serif" font-size="14" lengthAdjust="spacing" textLength="112" x="524" y="396.834">&#20171;&#20837;&#22240;&#32032;&#26159;&#20160;&#20040;&#65311;</text><rect fill="#F1F1F1" height="38.6211" rx="12.5" ry="12.5" style="stroke:#181818;stroke-width:1.5;" width="62" x="696" y="371.7266"/><text fill="#000000" font-family="sans-serif" font-size="14" lengthAdjust="spacing" textLength="42" x="706" y="396.834">&#21518;&#34892;&#20026;</text><path d="M646,391.0371 L656,391.0371 C671,391.0371 671,391.0371 686,391.0371 L696,391.0371 " fill="none" style="stroke:#181818;stroke-width:1.0;"/><path d="M464,537.5898 L474,537.5898 C489,537.5898 489,391.0371 504,391.0371 L514,391.0371 " fill="none" style="stroke:#181818;stroke-width:1.0;"/><rect fill="#F1F1F1" height="38.6211" rx="12.5" ry="12.5" style="stroke:#181818;stroke-width:1.5;" width="202" x="514" y="547.5898"/><text fill="#000000" font-family="sans-serif" font-size="14" lengthAdjust="spacing" textLength="182" x="524" y="572.6973">&#31532;&#19968;&#27493;&#65292;&#20171;&#20837;&#22240;&#32032;&#26159;&#21542;&#24322;&#24120;&#65311;</text><rect fill="#F1F1F1" height="38.6211" rx="12.5" ry="12.5" style="stroke:#181818;stroke-width:1.5;" width="118" x="766" y="459.6582"/><text fill="#000000" font-family="sans-serif" font-size="14" lengthAdjust="spacing" textLength="98" x="776" y="484.7656">&#35266;&#28857;&#19968;&#65306;&#19981;&#24322;&#24120;</text><rect fill="#F1F1F1" height="38.6211" rx="12.5" ry="12.5" style="stroke:#181818;stroke-width:1.5;" width="337.3242" x="934" y="430.3477"/><text fill="#000000" font-family="sans-serif" font-size="14" lengthAdjust="spacing" textLength="317.3242" x="944" y="455.4551">&#29702;&#30001;&#65306;&#8220;&#20808;&#26432;&#20154;&#65292;&#21518;&#25243;&#23608;&#8221;&#65292;&#26159;&#24120;&#35268;&#25805;&#20316;&#65292;&#22240;&#27492;&#19981;&#24322;&#24120;</text><path d="M884,478.9688 L894,478.9688 C909,478.9688 909,449.6582 924,449.6582 L934,449.6582 " fill="none" style="stroke:#181818;stroke-width:1.0;"/><rect fill="#F1F1F1" height="38.6211" rx="12.5" ry="12.5" style="stroke:#181818;stroke-width:1.5;" width="314" x="934" y="488.9688"/><text fill="#000000" font-family="sans-serif" font-size="14" lengthAdjust="spacing" textLength="294" x="944" y="514.0762">&#22240;&#26524;&#20851;&#31995;&#65306;&#21069;&#34892;&#20026;&#19982;&#32467;&#26524;&#26377;&#22240;&#26524;&#20851;&#31995;&#65292;&#20108;&#22240;&#19968;&#26524;</text><path d="M884,478.9688 L894,478.9688 C909,478.9688 909,508.2793 924,508.2793 L934,508.2793 " fill="none" style="stroke:#181818;stroke-width:1.0;"/><path d="M716,566.9004 L726,566.9004 C741,566.9004 741,478.9688 756,478.9688 L766,478.9688 " fill="none" style="stroke:#181818;stroke-width:1.0;"/><rect fill="#F1F1F1" height="38.6211" rx="12.5" ry="12.5" style="stroke:#181818;stroke-width:1.5;" width="104" x="766" y="606.2109"/><text fill="#000000" font-family="sans-serif" font-size="14" lengthAdjust="spacing" textLength="84" x="776" y="631.3184">&#35266;&#28857;&#20108;&#65306;&#24322;&#24120;</text><rect fill="#F1F1F1" height="38.6211" rx="12.5" ry="12.5" style="stroke:#181818;stroke-width:1.5;" width="407.3242" x="920" y="547.5898"/><text fill="#000000" font-family="sans-serif" font-size="14" lengthAdjust="spacing" textLength="387.3242" x="930" y="572.6973">&#29702;&#30001;&#65306;&#8220;&#20057;&#21482;&#26159;&#26127;&#36855;&#65292;&#24182;&#26410;&#30495;&#27491;&#27515;&#20129;&#8221;&#65292;&#23558;&#27963;&#20154;&#25243;&#27700;&#37324;&#65292;&#22240;&#27492;&#24322;&#24120;</text><path d="M870,625.5215 L880,625.5215 C895,625.5215 895,566.9004 910,566.9004 L920,566.9004 " fill="none" style="stroke:#181818;stroke-width:1.0;"/><rect fill="#F1F1F1" height="38.6211" rx="12.5" ry="12.5" style="stroke:#181818;stroke-width:1.5;" width="160" x="920" y="635.5215"/><text fill="#000000" font-family="sans-serif" font-size="14" lengthAdjust="spacing" textLength="140" x="930" y="660.6289">&#31532;&#20108;&#27493;&#65292;&#35841;&#30340;&#20316;&#29992;&#22823;&#65311;</text><rect fill="#F1F1F1" height="38.6211" rx="12.5" ry="12.5" style="stroke:#181818;stroke-width:1.5;" width="186.0586" x="1130" y="606.2109"/><text fill="#000000" font-family="sans-serif" font-size="14" lengthAdjust="spacing" textLength="166.0586" x="1140" y="631.3184">&#35266;&#28857;&#9312;&#65306;&#19968;&#26679;&#22823;&#65307;&#20108;&#22240;&#19968;&#26524;</text><path d="M1080,654.832 L1090,654.832 C1105,654.832 1105,625.5215 1120,625.5215 L1130,625.5215 " fill="none" style="stroke:#181818;stroke-width:1.0;"/><rect fill="#F1F1F1" height="38.6211" rx="12.5" ry="12.5" style="stroke:#181818;stroke-width:1.5;" width="200.0586" x="1130" y="664.832"/><text fill="#000000" font-family="sans-serif" font-size="14" lengthAdjust="spacing" textLength="180.0586" x="1140" y="689.9395">&#35266;&#28857;&#9313;&#65306;&#21518;&#34892;&#20026;&#22823;&#65307;&#21518;&#22240;&#19968;&#26524;</text><path d="M1080,654.832 L1090,654.832 C1105,654.832 1105,684.1426 1120,684.1426 L1130,684.1426 " fill="none" style="stroke:#181818;stroke-width:1.0;"/><path d="M870,625.5215 L880,625.5215 C895,625.5215 895,654.832 910,654.832 L920,654.832 " fill="none" style="stroke:#181818;stroke-width:1.0;"/><path d="M716,566.9004 L726,566.9004 C741,566.9004 741,625.5215 756,625.5215 L766,625.5215 " fill="none" style="stroke:#181818;stroke-width:1.0;"/><path d="M464,537.5898 L474,537.5898 C489,537.5898 489,566.9004 504,566.9004 L514,566.9004 " fill="none" style="stroke:#181818;stroke-width:1.0;"/><path d="M310,684.1426 L320,684.1426 C335,684.1426 335,537.5898 350,537.5898 L360,537.5898 " fill="none" style="stroke:#181818;stroke-width:1.0;"/><rect fill="#90EE90" height="38.6211" rx="12.5" ry="12.5" style="stroke:#181818;stroke-width:1.5;" width="93.8896" x="360" y="928.627"/><text fill="#000000" font-family="sans-serif" font-size="14" lengthAdjust="spacing" textLength="70" x="370" y="953.7344">&#26159;&#21542;&#26082;&#36930;&#65311;</text><rect fill="#F1F1F1" height="38.6211" rx="12.5" ry="12.5" style="stroke:#181818;stroke-width:1.5;" width="76" x="503.8896" y="928.627"/><text fill="#000000" font-family="sans-serif" font-size="14" lengthAdjust="spacing" textLength="56" x="513.8896" y="953.7344">&#22240;&#26524;&#20851;&#31995;</text><rect fill="#90EE90" height="38.6211" rx="12.5" ry="12.5" style="stroke:#181818;stroke-width:1.5;" width="149.8896" x="629.8896" y="811.3848"/><text fill="#000000" font-family="sans-serif" font-size="14" lengthAdjust="spacing" textLength="126" x="639.8896" y="836.4922">&#20108;&#22240;&#19968;&#26524;&#65288;&#22810;&#25968;&#35828;&#65289;</text><rect fill="#F1F1F1" height="38.6211" rx="12.5" ry="12.5" style="stroke:#181818;stroke-width:1.5;" width="174" x="829.7793" y="723.4531"/><text fill="#000000" font-family="sans-serif" font-size="14" lengthAdjust="spacing" textLength="154" x="839.7793" y="748.5605">&#21069;&#34892;&#20026;&#65306;&#25925;&#24847;&#26432;&#20154;&#32618;&#26082;&#36930;</text><path d="M779.7793,830.6953 L789.7793,830.6953 C804.7793,830.6953 804.7793,742.7637 819.7793,742.7637 L829.7793,742.7637 " fill="none" style="stroke:#181818;stroke-width:1.0;"/><rect fill="#F1F1F1" height="38.6211" rx="12.5" ry="12.5" style="stroke:#181818;stroke-width:1.5;" width="174" x="829.7793" y="782.0742"/><text fill="#000000" font-family="sans-serif" font-size="14" lengthAdjust="spacing" textLength="154" x="839.7793" y="807.1816">&#21518;&#34892;&#20026;&#65306;&#36807;&#22833;&#33268;&#20154;&#27515;&#20129;&#32618;</text><path d="M779.7793,830.6953 L789.7793,830.6953 C804.7793,830.6953 804.7793,801.3848 819.7793,801.3848 L829.7793,801.3848 " fill="none" style="stroke:#181818;stroke-width:1.0;"/><rect fill="#F1F1F1" height="38.6211" rx="12.5" ry="12.5" style="stroke:#181818;stroke-width:1.5;" width="174" x="829.7793" y="840.6953"/><text fill="#000000" font-family="sans-serif" font-size="14" lengthAdjust="spacing" textLength="154" x="839.7793" y="865.8027">&#32618;&#25968;&#38382;&#39064;&#65306;&#37325;&#32618;&#21560;&#25910;&#36731;&#32618;</text><path d="M779.7793,830.6953 L789.7793,830.6953 C804.7793,830.6953 804.7793,860.0059 819.7793,860.0059 L829.7793,860.0059 " fill="none" style="stroke:#181818;stroke-width:1.0;"/><rect fill="#F1F1F1" height="38.6211" rx="12.5" ry="12.5" style="stroke:#181818;stroke-width:1.5;" width="160" x="829.7793" y="899.3164"/><text fill="#000000" font-family="sans-serif" font-size="14" lengthAdjust="spacing" textLength="140" x="839.7793" y="924.4238">&#23450;&#32618;&#65306;&#25925;&#24847;&#26432;&#20154;&#32618;&#26082;&#36930;</text><path d="M779.7793,830.6953 L789.7793,830.6953 C804.7793,830.6953 804.7793,918.627 819.7793,918.627 L829.7793,918.627 " fill="none" style="stroke:#181818;stroke-width:1.0;"/><path d="M579.8896,947.9375 L589.8896,947.9375 C604.8896,947.9375 604.8896,830.6953 619.8896,830.6953 L629.8896,830.6953 " fill="none" style="stroke:#181818;stroke-width:1.0;"/><rect fill="#90EE90" height="38.6211" rx="12.5" ry="12.5" style="stroke:#181818;stroke-width:1.5;" width="149.8896" x="629.8896" y="1045.8691"/><text fill="#000000" font-family="sans-serif" font-size="14" lengthAdjust="spacing" textLength="126" x="639.8896" y="1070.9766">&#21518;&#22240;&#19968;&#26524;&#65288;&#23569;&#25968;&#35828;&#65289;</text><rect fill="#F1F1F1" height="38.6211" rx="12.5" ry="12.5" style="stroke:#181818;stroke-width:1.5;" width="160" x="829.7793" y="957.9375"/><text fill="#000000" font-family="sans-serif" font-size="14" lengthAdjust="spacing" textLength="140" x="839.7793" y="983.0449">&#21069;&#34892;&#20026;&#65306;&#25925;&#24847;&#26432;&#20154;&#26410;&#36930;</text><path d="M779.7793,1065.1797 L789.7793,1065.1797 C804.7793,1065.1797 804.7793,977.248 819.7793,977.248 L829.7793,977.248 " fill="none" style="stroke:#181818;stroke-width:1.0;"/><rect fill="#F1F1F1" height="38.6211" rx="12.5" ry="12.5" style="stroke:#181818;stroke-width:1.5;" width="174" x="829.7793" y="1016.5586"/><text fill="#000000" font-family="sans-serif" font-size="14" lengthAdjust="spacing" textLength="154" x="839.7793" y="1041.666">&#21518;&#34892;&#20026;&#65306;&#36807;&#22833;&#33268;&#20154;&#27515;&#20129;&#32618;</text><path d="M779.7793,1065.1797 L789.7793,1065.1797 C804.7793,1065.1797 804.7793,1035.8691 819.7793,1035.8691 L829.7793,1035.8691 " fill="none" style="stroke:#181818;stroke-width:1.0;"/><rect fill="#F1F1F1" height="38.6211" rx="12.5" ry="12.5" style="stroke:#181818;stroke-width:1.5;" width="146" x="829.7793" y="1075.1797"/><text fill="#000000" font-family="sans-serif" font-size="14" lengthAdjust="spacing" textLength="126" x="839.7793" y="1100.2871">&#32618;&#25968;&#38382;&#39064;&#65306;&#20004;&#32618;&#24182;&#32602;</text><path d="M779.7793,1065.1797 L789.7793,1065.1797 C804.7793,1065.1797 804.7793,1094.4902 819.7793,1094.4902 L829.7793,1094.4902 " fill="none" style="stroke:#181818;stroke-width:1.0;"/><rect fill="#F1F1F1" height="38.6211" rx="12.5" ry="12.5" style="stroke:#181818;stroke-width:1.5;" width="252.1758" x="829.7793" y="1133.8008"/><text fill="#000000" font-family="sans-serif" font-size="14" lengthAdjust="spacing" textLength="232.1758" x="839.7793" y="1158.9082">&#23450;&#32618;&#65306;&#25925;&#24847;&#26432;&#20154;&#26410;&#36930;+&#36807;&#22833;&#33268;&#20154;&#27515;&#20129;&#32618;</text><path d="M779.7793,1065.1797 L789.7793,1065.1797 C804.7793,1065.1797 804.7793,1153.1113 819.7793,1153.1113 L829.7793,1153.1113 " fill="none" style="stroke:#181818;stroke-width:1.0;"/><path d="M579.8896,947.9375 L589.8896,947.9375 C604.8896,947.9375 604.8896,1065.1797 619.8896,1065.1797 L629.8896,1065.1797 " fill="none" style="stroke:#181818;stroke-width:1.0;"/><path d="M453.8896,947.9375 L463.8896,947.9375 C478.8896,947.9375 478.8896,947.9375 493.8896,947.9375 L503.8896,947.9375 " fill="none" style="stroke:#181818;stroke-width:1.0;"/><path d="M310,684.1426 L320,684.1426 C335,684.1426 335,947.9375 350,947.9375 L360,947.9375 " fill="none" style="stroke:#181818;stroke-width:1.0;"/><path d="M212,654.832 L222,654.832 C237,654.832 237,684.1426 252,684.1426 L262,684.1426 " fill="none" style="stroke:#181818;stroke-width:1.0;"/><rect fill="#F1F1F1" height="38.6211" rx="12.5" ry="12.5" style="stroke:#181818;stroke-width:1.5;" width="48" x="262" y="1221.7324"/><text fill="#000000" font-family="sans-serif" font-size="14" lengthAdjust="spacing" textLength="28" x="272" y="1246.8398">&#32467;&#35770;</text><rect fill="#90EE90" height="38.6211" rx="12.5" ry="12.5" style="stroke:#181818;stroke-width:1.5;" width="65.8896" x="360" y="1192.4219"/><text fill="#000000" font-family="sans-serif" font-size="14" lengthAdjust="spacing" textLength="42" x="370" y="1217.5293">&#22810;&#25968;&#35828;</text><rect fill="#F1F1F1" height="38.6211" rx="12.5" ry="12.5" style="stroke:#181818;stroke-width:1.5;" width="202" x="475.8896" y="1192.4219"/><text fill="#000000" font-family="sans-serif" font-size="14" lengthAdjust="spacing" textLength="182" x="485.8896" y="1217.5293">&#20108;&#22240;&#19968;&#26524;&#65292;&#23450;&#25925;&#24847;&#26432;&#20154;&#32618;&#26082;&#36930;</text><path d="M425.8896,1211.7324 L435.8896,1211.7324 C450.8896,1211.7324 450.8896,1211.7324 465.8896,1211.7324 L475.8896,1211.7324 " fill="none" style="stroke:#181818;stroke-width:1.0;"/><path d="M310,1241.043 L320,1241.043 C335,1241.043 335,1211.7324 350,1211.7324 L360,1211.7324 " fill="none" style="stroke:#181818;stroke-width:1.0;"/><rect fill="#90EE90" height="38.6211" rx="12.5" ry="12.5" style="stroke:#181818;stroke-width:1.5;" width="65.8896" x="360" y="1251.043"/><text fill="#000000" font-family="sans-serif" font-size="14" lengthAdjust="spacing" textLength="42" x="370" y="1276.1504">&#23569;&#25968;&#35828;</text><rect fill="#F1F1F1" height="38.6211" rx="12.5" ry="12.5" style="stroke:#181818;stroke-width:1.5;" width="342" x="475.8896" y="1251.043"/><text fill="#000000" font-family="sans-serif" font-size="14" lengthAdjust="spacing" textLength="322" x="485.8896" y="1276.1504">&#21518;&#22240;&#19968;&#26524;&#65292;&#23450;&#25925;&#24847;&#26432;&#20154;&#26410;&#36930;&#19982;&#36807;&#22833;&#33268;&#20154;&#27515;&#20129;&#32618;&#65292;&#24182;&#32602;</text><path d="M425.8896,1270.3535 L435.8896,1270.3535 C450.8896,1270.3535 450.8896,1270.3535 465.8896,1270.3535 L475.8896,1270.3535 " fill="none" style="stroke:#181818;stroke-width:1.0;"/><path d="M310,1241.043 L320,1241.043 C335,1241.043 335,1270.3535 350,1270.3535 L360,1270.3535 " fill="none" style="stroke:#181818;stroke-width:1.0;"/><path d="M212,654.832 L222,654.832 C237,654.832 237,1241.043 252,1241.043 L262,1241.043 " fill="none" style="stroke:#181818;stroke-width:1.0;"/><!--SRC=[xLZTJzjM57_tNt6dFQobIYXLDJg440A6D5QqQT2-kyHBhJfsv3XCgAe4Y40e0OB8L3x2LnS-b458LmIE4yR_Wdnjvub_OUVwnjJvS63IzfOa3yuzl_Cxd_VaABqHXPML42y6GcoOORxYnJ4X6k2Gtz_k_aIK2O5h3mkig4H3We_WVQ3Wiy_zF9mnp3SAhmWSqjMYTJXj7KpfnNEVhYtWtBQLorYdi-NKkdLwwiERkyPs6iS-cv-BbIEpk0f7viQCiNHaNUtWvHKpjSCmRQYXuAOK9xJpYyRlCMDc-QOqpo1ujI5hBw6h6euTuzAoVKIF0Kabw172oINwV2klmToKDipKNyRMf5vOloabhBapU33Mbgsh2_Yg5_S1GqvEYhgsLqlYa0E9yNxpUZADy-hrv1Oe6XS5eb9OhxXgpXoOquNoXrpvuvhBLKfBeoRcr2MycjNLBAKrqlFkvDsKTYfiE3vhR2VT8SUtZ9FzckFwI6a2IR2QPbvcgv0LFo-pEBben9FcdmiDnCRQAKuU61y-bgUcIPJWuDynNLkoSaTM3YpieEvkBXH-pKRuI4zFatHPLtCuyubaMzCgIN3vquRquWAExKFqvjbkmx3S0F1ABq81uqw6FEpMK9Z7nxew2Ncp2rr51q7YqZHMrSQCqEzGJL26I7HraKBhS1KhoLapzGc0f3rYSPfyi0XUGSzyQHWmgghMuOonkgXVacOWfJ_9t4LVtI0RjzM6Lg9jLTT42LqZt2JqxRHtS5g2qDqtCkXql9o586wl3YwS6-cicTunJlwW5QQ1uloiSLOaPN-_QUJFodE9srYRMuDgQGbQBIi_1JC2qcIcZd3ci56HQkEvNjcrYpLfx5xOAfjDqr2llaVIuNGIPO2lzGorbwJvbN1Lfa4ft2x25CGPkC5vw_GCHg0twxskFlNEI-_U5xLkU81_TCY1QdbkqHudgf4wjowBtdeujm72UpjfErYLb_pAVv8NwDV_FIcwcY59APoRbnl_9XtKjqVUbkqVJnZ2xby5fr-QjM1rZoN0UFCg0AsJxZk6VHDQ6WtCg8RnqEb14iGmlHniAiwsqbkzl7JRsqWFKpaOuDcWp8RGMt35_qg8SlOJGdtis9kWB4N5GByaI38I-E1hXSX1-evW0wpyHkO27l2Ar047POuJcp7R01TwuWxmX8ELP5OCUZbDXGuq79N3WXUK2XseTs2ke6GfuiNszU1WNrz_luESu0H1-iq3IuKsbF4xhN5thWYQ5nLEL7X9P0KF1KKAiOfaWqKk2Eg0RvuioYjAOzx8Y0Z-leDtTtkbcLfhQ6iDRQsXhJMqjOQsrj3M6jfQGnkieJ-JlyLU33z7uvmSWPK5TVYVF7xorD_vO8HLq0WNHeyxKSTtNHtFkZewKV_8A2BYXyo3uHz6KKIAocCS2l0HHUPVHSdAyv0POiTPz4iK5g0GruL-2dFYqC2FpW7wNXpdPKaCmHh33BqS_WBuzgclZoSMPV04lHnc1hXVsQYWWCQO5E35O1TwCJheUyOyXtqeoWQ16zQjVbX_57a2P2F_0000]--></g></svg>