<svg xmlns="http://www.w3.org/2000/svg" xmlns:xlink="http://www.w3.org/1999/xlink" contentStyleType="text/css" height="354px" preserveAspectRatio="none" style="width:812px;height:354px;background:#FFFFFF;" version="1.1" viewBox="0 0 812 354" width="812px" zoomAndPan="magnify"><title>&#20027;&#35266;&#35201;&#20214;-&#20107;&#23454;&#35748;&#35782;&#38169;&#35823;-&#24433;&#21709;</title><defs/><g><text fill="#000000" font-family="sans-serif" font-size="14" font-weight="bold" lengthAdjust="spacing" textLength="182.5742" x="313.6577" y="35.1074">&#20027;&#35266;&#35201;&#20214;-&#20107;&#23454;&#35748;&#35782;&#38169;&#35823;-&#24433;&#21709;</text><rect fill="#F1F1F1" height="38.6211" rx="12.5" ry="12.5" style="stroke:#181818;stroke-width:1.5;" width="132" x="10" y="176.8633"/><text fill="#000000" font-family="sans-serif" font-size="14" lengthAdjust="spacing" textLength="112" x="20" y="201.9707">&#20107;&#23454;&#35748;&#35782;&#38169;&#35823;&#24433;&#21709;</text><rect fill="#F1F1F1" height="38.6211" rx="12.5" ry="12.5" style="stroke:#181818;stroke-width:1.5;" width="76" x="192" y="88.9316"/><text fill="#000000" font-family="sans-serif" font-size="14" lengthAdjust="spacing" textLength="56" x="202" y="114.0391">&#23458;&#35266;&#38454;&#23618;</text><rect fill="#F1F1F1" height="38.6211" rx="12.5" ry="12.5" style="stroke:#181818;stroke-width:1.5;" width="48" x="318" y="88.9316"/><text fill="#000000" font-family="sans-serif" font-size="14" lengthAdjust="spacing" textLength="28" x="328" y="114.0391">&#34892;&#20026;</text><rect fill="#90EE90" height="38.6211" rx="12.5" ry="12.5" style="stroke:#181818;stroke-width:1.5;" width="93.8896" x="416" y="59.6211"/><text fill="#000000" font-family="sans-serif" font-size="14" lengthAdjust="spacing" textLength="70" x="426" y="84.7285">&#26080;&#21361;&#23475;&#34892;&#20026;</text><text fill="#000000" font-family="sans-serif" font-size="14" lengthAdjust="spacing" textLength="224" x="562.8896" y="75.418">&#30002;&#22312;&#27801;&#28448;&#37324;&#65292;&#30475;&#21040;&#21069;&#26041;&#31449;&#30528;&#20167;&#20154;&#20057;&#65292;</text><text fill="#000000" font-family="sans-serif" font-size="14" lengthAdjust="spacing" textLength="238" x="562.8896" y="94.0391">&#21521;&#20854;&#24320;&#26538;&#65292;&#23454;&#38469;&#26159;&#31291;&#33609;&#20154;&#65292;&#22235;&#19979;&#26080;&#20154;&#12290;</text><path d="M509.8896,78.9316 L519.8896,78.9316 C534.8896,78.9316 534.8896,78.9316 549.8896,78.9316 L559.8896,78.9316 " fill="none" style="stroke:#181818;stroke-width:1.0;"/><path d="M366,108.2422 L376,108.2422 C391,108.2422 391,78.9316 406,78.9316 L416,78.9316 " fill="none" style="stroke:#181818;stroke-width:1.0;"/><rect fill="#90EE90" height="38.6211" rx="12.5" ry="12.5" style="stroke:#181818;stroke-width:1.5;" width="93.8896" x="416" y="118.2422"/><text fill="#000000" font-family="sans-serif" font-size="14" lengthAdjust="spacing" textLength="70" x="426" y="143.3496">&#26377;&#21361;&#23475;&#34892;&#20026;</text><path d="M366,108.2422 L376,108.2422 C391,108.2422 391,137.5527 406,137.5527 L416,137.5527 " fill="none" style="stroke:#181818;stroke-width:1.0;"/><path d="M268,108.2422 L278,108.2422 C293,108.2422 293,108.2422 308,108.2422 L318,108.2422 " fill="none" style="stroke:#181818;stroke-width:1.0;"/><path d="M142,196.1738 L152,196.1738 C167,196.1738 167,108.2422 182,108.2422 L192,108.2422 " fill="none" style="stroke:#181818;stroke-width:1.0;"/><rect fill="#F1F1F1" height="38.6211" rx="12.5" ry="12.5" style="stroke:#181818;stroke-width:1.5;" width="76" x="192" y="235.4844"/><text fill="#000000" font-family="sans-serif" font-size="14" lengthAdjust="spacing" textLength="56" x="202" y="260.5918">&#20027;&#35266;&#38454;&#23618;</text><rect fill="#F1F1F1" height="38.6211" rx="12.5" ry="12.5" style="stroke:#181818;stroke-width:1.5;" width="48" x="318" y="176.8633"/><text fill="#000000" font-family="sans-serif" font-size="14" lengthAdjust="spacing" textLength="28" x="328" y="201.9707">&#24847;&#22806;</text><text fill="#000000" font-family="sans-serif" font-size="14" lengthAdjust="spacing" textLength="238" x="419" y="192.6602">&#30002;&#22312;&#26641;&#26519;&#37324;&#65292;&#30475;&#21040;&#21069;&#26041;&#26377;&#37326;&#20820;&#65292;&#24320;&#26538;&#65292;</text><text fill="#000000" font-family="sans-serif" font-size="14" lengthAdjust="spacing" textLength="224" x="419" y="211.2813">&#23454;&#38469;&#26159;&#20057;&#65292;&#20057;&#34987;&#25171;&#27515;&#12290;&#65288;&#21487;&#33021;&#24847;&#22806;&#65289;</text><path d="M366,196.1738 L376,196.1738 C391,196.1738 391,196.1738 406,196.1738 L416,196.1738 " fill="none" style="stroke:#181818;stroke-width:1.0;"/><path d="M268,254.7949 L278,254.7949 C293,254.7949 293,196.1738 308,196.1738 L318,196.1738 " fill="none" style="stroke:#181818;stroke-width:1.0;"/><rect fill="#90EE90" height="38.6211" rx="12.5" ry="12.5" style="stroke:#181818;stroke-width:1.5;" width="51.8896" x="318" y="235.4844"/><text fill="#000000" font-family="sans-serif" font-size="14" lengthAdjust="spacing" textLength="28" x="328" y="260.5918">&#36807;&#22833;</text><text fill="#000000" font-family="sans-serif" font-size="14" lengthAdjust="spacing" textLength="238" x="422.8896" y="251.2813">&#30002;&#22312;&#26641;&#26519;&#37324;&#65292;&#30475;&#21040;&#21069;&#26041;&#26377;&#37326;&#20820;&#65292;&#24320;&#26538;&#65292;</text><text fill="#000000" font-family="sans-serif" font-size="14" lengthAdjust="spacing" textLength="224" x="422.8896" y="269.9023">&#23454;&#38469;&#26159;&#20057;&#65292;&#20057;&#34987;&#25171;&#27515;&#12290;&#65288;&#21487;&#33021;&#36807;&#22833;&#65289;</text><path d="M369.8896,254.7949 L379.8896,254.7949 C394.8896,254.7949 394.8896,254.7949 409.8896,254.7949 L419.8896,254.7949 " fill="none" style="stroke:#181818;stroke-width:1.0;"/><path d="M268,254.7949 L278,254.7949 C293,254.7949 293,254.7949 308,254.7949 L318,254.7949 " fill="none" style="stroke:#181818;stroke-width:1.0;"/><rect fill="#90EE90" height="38.6211" rx="12.5" ry="12.5" style="stroke:#181818;stroke-width:1.5;" width="51.8896" x="318" y="294.1055"/><text fill="#000000" font-family="sans-serif" font-size="14" lengthAdjust="spacing" textLength="28" x="328" y="319.2129">&#25925;&#24847;</text><text fill="#000000" font-family="sans-serif" font-size="14" lengthAdjust="spacing" textLength="196" x="422.8896" y="309.9023">&#30002;&#30475;&#21040;&#21069;&#26041;&#31449;&#30528;&#20167;&#20154;&#20057;&#65292;&#24320;&#26538;&#65292;</text><text fill="#000000" font-family="sans-serif" font-size="14" lengthAdjust="spacing" textLength="168" x="422.8896" y="328.5234">&#23454;&#38469;&#26159;&#36335;&#20154;&#19993;&#65292;&#19993;&#34987;&#25171;&#27515;&#12290;</text><path d="M369.8896,313.416 L379.8896,313.416 C394.8896,313.416 394.8896,313.416 409.8896,313.416 L419.8896,313.416 " fill="none" style="stroke:#181818;stroke-width:1.0;"/><path d="M268,254.7949 L278,254.7949 C293,254.7949 293,313.416 308,313.416 L318,313.416 " fill="none" style="stroke:#181818;stroke-width:1.0;"/><path d="M142,196.1738 L152,196.1738 C167,196.1738 167,254.7949 182,254.7949 L192,254.7949 " fill="none" style="stroke:#181818;stroke-width:1.0;"/><!--SRC=[xPPHJzDG5CVV-ockyGL8DXWXWij2o8Oaeel60Kycvh9TIqDxkzoscCMG88fZWOa411QG825A96uE4npRY1_6tgvxuYjuswww2HrFFicsBDtv_-wv_tFMSzCXHOL4bGISa62Iusu8E2vg2GJy_kxcZwAcHDIT525MDKdqMRoFBV3PSR_0OXod2gg8W5wgc9_cpOylzCg9JoylqVokcJym2w_hwpcpKF3Hio9Tot9S5xWeDZJ0Nbs0vlTPelhM2ItEso4dR7vOralbtm4dQ6pkqMoHvhyvAWY5a9ISWegW30wse3R-1DJMZ-dEeN6SCwfxzVJoUNMvjhD45x_IJDROEAqTvMhlv_HAMY-NzTCSKnzZ-dQLBfpGwfon-va5cF5wRi7OAjGEAsOsmq0hkBsjbvQO5_RpvzpytnvtCkqzTZLwTw5auzKAFTZWBgzXRzNOtRnO0zkjddv35zOjNwvhLeRhswcBVPlxHqPcpVXIOOxFgujqfM2-F7DsFAzccXl_8qqFYjwj_SUMdErRBHdl5fZJgoor_silSs9-BrXwoVPJQl73SKE8pOexBqEjunEovs6GQmI61SWJA87dp9L_KjIGVGL06CQdUI9hE16HHPa0KU2dL4jdwgp59Y2P9YZXWJTK5-O9GhXTPXjeebDNm2cNbGd4l9TfHtJHf4QIeXVgY2xgNLXJKKHMlBBT71a9XoCHbqmXKPIVUR2EQAEStxrBhkwLHGjOHLWLP0n5ZmMgB45Ljc6CUBQSyUsRvUJ5SjoRL33pEylUeUx6pNHzi5uVhF_TmVhGUjGOZzu7CuWeR0X1mD_Rqzldx- -8GHN4K1Bqz8F0xM1W81Ze1v7O6B3aJguZUdSCAB96uWWa14KbmgHc3N4dDmfd87YaiP6MK10yI28yEdpF3O0xU4OWCfROO7AZ4z4_mAq-NrYmTYJC2PY8SiFeATH4bQs8oma1yq4mFZRY6-3kimdN8CzoimCamWPQ9IccnNu1]--></g></svg>