<svg xmlns="http://www.w3.org/2000/svg" xmlns:xlink="http://www.w3.org/1999/xlink" contentStyleType="text/css" height="442px" preserveAspectRatio="none" style="width:997px;height:442px;background:#FFFFFF;" version="1.1" viewBox="0 0 997 442" width="997px" zoomAndPan="magnify"><title>&#20027;&#35266;&#35201;&#20214;-&#29359;&#32618;&#25925;&#24847;-&#21028;&#26029;&#26631;&#20934;</title><defs/><g><text fill="#000000" font-family="sans-serif" font-size="14" font-weight="bold" lengthAdjust="spacing" textLength="182.5742" x="405.7646" y="35.1074">&#20027;&#35266;&#35201;&#20214;-&#29359;&#32618;&#25925;&#24847;-&#21028;&#26029;&#26631;&#20934;</text><rect fill="#F1F1F1" height="38.6211" rx="12.5" ry="12.5" style="stroke:#181818;stroke-width:1.5;" width="197.3242" x="10" y="220.8291"/><text fill="#000000" font-family="sans-serif" font-size="14" lengthAdjust="spacing" textLength="177.3242" x="20" y="245.9365">&#20027;&#35266;&#35201;&#20214;-&#29359;&#32618;&#25925;&#24847;-&#21028;&#26029;&#26631;&#20934;</text><rect fill="#90EE90" height="38.6211" rx="12.5" ry="12.5" style="stroke:#181818;stroke-width:1.5;" width="135.8896" x="257.3242" y="220.8291"/><text fill="#000000" font-family="sans-serif" font-size="14" lengthAdjust="spacing" textLength="112" x="267.3242" y="245.9365">&#20027;&#23458;&#35266;&#30456;&#19968;&#33268;&#21407;&#21017;</text><rect fill="#90EE90" height="38.6211" rx="12.5" ry="12.5" style="stroke:#181818;stroke-width:1.5;" width="79.8896" x="443.2139" y="132.8975"/><text fill="#000000" font-family="sans-serif" font-size="14" lengthAdjust="spacing" textLength="56" x="453.2139" y="158.0049">&#20869;&#23481;&#19968;&#33268;</text><rect fill="#F1F1F1" height="38.6211" rx="12.5" ry="12.5" style="stroke:#181818;stroke-width:1.5;" width="356" x="573.1035" y="59.6211"/><text fill="#000000" font-family="sans-serif" font-size="14" lengthAdjust="spacing" textLength="336" x="583.1035" y="84.7285">&#23458;&#35266;&#65306;&#34892;&#20026;&#20154;&#12289;&#34892;&#20026;&#12289;&#34892;&#20026;&#23545;&#35937;&#12289;&#21361;&#23475;&#32467;&#26524;&#12289;&#22240;&#26524;&#20851;&#31995;</text><path d="M523.1035,152.208 L533.1035,152.208 C548.1035,152.208 548.1035,78.9316 563.1035,78.9316 L573.1035,78.9316 " fill="none" style="stroke:#181818;stroke-width:1.0;"/><rect fill="#F1F1F1" height="38.6211" rx="12.5" ry="12.5" style="stroke:#181818;stroke-width:1.5;" width="90" x="573.1035" y="162.208"/><text fill="#000000" font-family="sans-serif" font-size="14" lengthAdjust="spacing" textLength="70" x="583.1035" y="187.3154">&#20027;&#35266;&#65306;&#35748;&#35782;</text><rect fill="#90EE90" height="38.6211" rx="12.5" ry="12.5" style="stroke:#181818;stroke-width:1.5;" width="107.8896" x="713.1035" y="118.2422"/><text fill="#000000" font-family="sans-serif" font-size="14" lengthAdjust="spacing" textLength="84" x="723.1035" y="143.3496">&#20107;&#23454;&#35748;&#35782;&#27491;&#30830;</text><path d="M663.1035,181.5186 L673.1035,181.5186 C688.1035,181.5186 688.1035,137.5527 703.1035,137.5527 L713.1035,137.5527 " fill="none" style="stroke:#181818;stroke-width:1.0;"/><rect fill="#C0C0C0" height="38.6211" rx="12.5" ry="12.5" style="stroke:#181818;stroke-width:1.5;" width="104" x="713.1035" y="176.8633"/><text fill="#000000" font-family="sans-serif" font-size="14" lengthAdjust="spacing" textLength="84" x="723.1035" y="201.9707">&#20107;&#23454;&#35748;&#35782;&#38169;&#35823;</text><rect fill="#F1F1F1" height="38.6211" rx="12.5" ry="12.5" style="stroke:#181818;stroke-width:1.5;" width="118" x="867.1035" y="147.5527"/><text fill="#000000" font-family="sans-serif" font-size="14" lengthAdjust="spacing" textLength="98" x="877.1035" y="172.6602">&#20855;&#20307;&#30340;&#35748;&#35782;&#38169;&#35823;</text><path d="M817.1035,196.1738 L827.1035,196.1738 C842.1035,196.1738 842.1035,166.8633 857.1035,166.8633 L867.1035,166.8633 " fill="none" style="stroke:#181818;stroke-width:1.0;"/><rect fill="#F1F1F1" height="38.6211" rx="12.5" ry="12.5" style="stroke:#181818;stroke-width:1.5;" width="118" x="867.1035" y="206.1738"/><text fill="#000000" font-family="sans-serif" font-size="14" lengthAdjust="spacing" textLength="98" x="877.1035" y="231.2813">&#25277;&#35937;&#30340;&#35748;&#35782;&#38169;&#35823;</text><path d="M817.1035,196.1738 L827.1035,196.1738 C842.1035,196.1738 842.1035,225.4844 857.1035,225.4844 L867.1035,225.4844 " fill="none" style="stroke:#181818;stroke-width:1.0;"/><path d="M663.1035,181.5186 L673.1035,181.5186 C688.1035,181.5186 688.1035,196.1738 703.1035,196.1738 L713.1035,196.1738 " fill="none" style="stroke:#181818;stroke-width:1.0;"/><path d="M523.1035,152.208 L533.1035,152.208 C548.1035,152.208 548.1035,181.5186 563.1035,181.5186 L573.1035,181.5186 " fill="none" style="stroke:#181818;stroke-width:1.0;"/><path d="M393.2139,240.1396 L403.2139,240.1396 C418.2139,240.1396 418.2139,152.208 433.2139,152.208 L443.2139,152.208 " fill="none" style="stroke:#181818;stroke-width:1.0;"/><rect fill="#90EE90" height="38.6211" rx="12.5" ry="12.5" style="stroke:#181818;stroke-width:1.5;" width="261.8896" x="443.2139" y="323.416"/><text fill="#000000" font-family="sans-serif" font-size="14" lengthAdjust="spacing" textLength="238" x="453.2139" y="348.5234">&#26102;&#38388;&#19968;&#33268;&#65288;&#34892;&#20026;&#19982;&#30446;&#30340;&#21516;&#26102;&#23384;&#22312;&#21407;&#21017;&#65289;</text><rect fill="#F1F1F1" height="38.6211" rx="12.5" ry="12.5" style="stroke:#181818;stroke-width:1.5;" width="90" x="755.1035" y="264.7949"/><text fill="#000000" font-family="sans-serif" font-size="14" lengthAdjust="spacing" textLength="70" x="765.1035" y="289.9023">&#23458;&#35266;&#65306;&#34892;&#20026;</text><path d="M705.1035,342.7266 L715.1035,342.7266 C730.1035,342.7266 730.1035,284.1055 745.1035,284.1055 L755.1035,284.1055 " fill="none" style="stroke:#181818;stroke-width:1.0;"/><rect fill="#F1F1F1" height="38.6211" rx="12.5" ry="12.5" style="stroke:#181818;stroke-width:1.5;" width="90" x="755.1035" y="323.416"/><text fill="#000000" font-family="sans-serif" font-size="14" lengthAdjust="spacing" textLength="70" x="765.1035" y="348.5234">&#20027;&#35266;&#65306;&#30446;&#30340;</text><rect fill="#C0C0C0" height="38.6211" rx="12.5" ry="12.5" style="stroke:#181818;stroke-width:1.5;" width="90" x="895.1035" y="264.7949"/><text fill="#000000" font-family="sans-serif" font-size="14" lengthAdjust="spacing" textLength="70" x="905.1035" y="289.9023">&#20107;&#21069;&#30340;&#24515;&#29702;</text><path d="M845.1035,342.7266 L855.1035,342.7266 C870.1035,342.7266 870.1035,284.1055 885.1035,284.1055 L895.1035,284.1055 " fill="none" style="stroke:#181818;stroke-width:1.0;"/><rect fill="#90EE90" height="38.6211" rx="12.5" ry="12.5" style="stroke:#181818;stroke-width:1.5;" width="90" x="895.1035" y="323.416"/><text fill="#000000" font-family="sans-serif" font-size="14" lengthAdjust="spacing" textLength="70" x="905.1035" y="348.5234">&#34892;&#20026;&#26102;&#24515;&#29702;</text><path d="M845.1035,342.7266 L855.1035,342.7266 C870.1035,342.7266 870.1035,342.7266 885.1035,342.7266 L895.1035,342.7266 " fill="none" style="stroke:#181818;stroke-width:1.0;"/><rect fill="#C0C0C0" height="38.6211" rx="12.5" ry="12.5" style="stroke:#181818;stroke-width:1.5;" width="76" x="895.1035" y="382.0371"/><text fill="#000000" font-family="sans-serif" font-size="14" lengthAdjust="spacing" textLength="56" x="905.1035" y="407.1445">&#20107;&#21518;&#24515;&#29702;</text><path d="M845.1035,342.7266 L855.1035,342.7266 C870.1035,342.7266 870.1035,401.3477 885.1035,401.3477 L895.1035,401.3477 " fill="none" style="stroke:#181818;stroke-width:1.0;"/><path d="M705.1035,342.7266 L715.1035,342.7266 C730.1035,342.7266 730.1035,342.7266 745.1035,342.7266 L755.1035,342.7266 " fill="none" style="stroke:#181818;stroke-width:1.0;"/><path d="M393.2139,240.1396 L403.2139,240.1396 C418.2139,240.1396 418.2139,342.7266 433.2139,342.7266 L443.2139,342.7266 " fill="none" style="stroke:#181818;stroke-width:1.0;"/><path d="M207.3242,240.1396 L217.3242,240.1396 C232.3242,240.1396 232.3242,240.1396 247.3242,240.1396 L257.3242,240.1396 " fill="none" style="stroke:#181818;stroke-width:1.0;"/><!--SRC=[xPHTJnD158RlzrUCuGPCMYWXWar3I8iaeet60ZU6Yw4TbmcxiytiBAOn9A2qV0X8Wefy14696XFQ40YM5kAFiTCjL_m5Px-mA2juBPkzcDdtEU-UStRFTEaCKgPYab9XMf9kO99KZ1G2mM1p_QspZ8AQBImWk82z3M93LII9OQOWK2cMQv-VrpvDLCe70NEsO1v_hRx9LYTV1VZqTlNjJdLpYa_b9EdcLKaWBXlc-G-2DzUAbU9uRMgVBxpdqoiW4a5gUXZgME_ij5c7vxaipnywvCMCozccfqUhjQsvIh5KAPL-Z4yuwxC5BnpMThV4bi_lyloUMLwgRgnRsxLDiU3PFNEl_9kjKvjbcz-k5NBdL9SelUJv3KUkxdmqj_B-QTeHZnjqh8mYEdWkzEJrIgrG-8DsYyj-gnmlcQkJLs2hiyUYI3zMwCi79ylxJaDFZwRTTXKNpBMy2EABSmBWE-_u-XVdmvmUpVn3t_tQvxXVreoPUIk5xo_CnTn5g8BbOIPJXCWWS5vdvUgBrpilBhYSr8N4P7ZJqNL-M2Bs67HAxeDk36KALV1Ck0U750FPAm2YC3aYKyqWgPYcQ1JOULcwKCSiDWNf24Kf7znLFTWkw6_EDb17Pow1CnwhKKXalwGTqKFJ1aqhVgWZUgX_ONL5KKttSslewOb6Op6Fp215qPxwi8veenRh_OLNwvOLWGb3X66DGCKdY6agPDfP046oi14nbxVDyITQqf_MYPlzc1HfTd-kw_Fr-dpzNyxNXmeah3z-7mXG5rC8Gi7MbjQsO7jZ0ZAGG6dGqWv2jyEXZd2e7SGIVS2IcwJ6-Dq-e6i6JIAGmZgZUCYmfhX9weMZ43mon4ohA0mUf17fxRxdFG1to2Yc6b75H4gz0_5VmAssG1HRRwGY4p0GbxhH4sWeJ4GajHGcSXZqz_K4EgJxOhmDA0jlSOh4n2GpcX5QuYS0]--></g></svg>