<svg xmlns="http://www.w3.org/2000/svg" xmlns:xlink="http://www.w3.org/1999/xlink" contentStyleType="text/css" height="765px" preserveAspectRatio="none" style="width:983px;height:765px;background:#FFFFFF;" version="1.1" viewBox="0 0 983 765" width="983px" zoomAndPan="magnify"><title>&#20027;&#35266;&#35201;&#20214;-&#29359;&#32618;&#25925;&#24847;&#22411;&#20107;&#23454;&#35748;&#35782;&#38169;&#35823;-&#20998;&#31867;</title><defs/><g><text fill="#000000" font-family="sans-serif" font-size="14" font-weight="bold" lengthAdjust="spacing" textLength="254.7617" x="363.064" y="35.1074">&#20027;&#35266;&#35201;&#20214;-&#29359;&#32618;&#25925;&#24847;&#22411;&#20107;&#23454;&#35748;&#35782;&#38169;&#35823;-&#20998;&#31867;</text><rect fill="#F1F1F1" height="57.2422" rx="12.5" ry="12.5" style="stroke:#181818;stroke-width:1.5;" width="132" x="10" y="372.7266"/><text fill="#000000" font-family="sans-serif" font-size="14" lengthAdjust="spacing" textLength="112" x="20" y="397.834">&#20855;&#26377;&#29359;&#32618;&#25925;&#24847;&#22411;&#30340;</text><text fill="#000000" font-family="sans-serif" font-size="14" lengthAdjust="spacing" textLength="112" x="20" y="416.4551">&#20107;&#23454;&#35748;&#35782;&#38169;&#35823;&#20998;&#31867;</text><rect fill="#F1F1F1" height="57.2422" rx="12.5" ry="12.5" style="stroke:#181818;stroke-width:1.5;" width="118" x="192" y="284.7949"/><text fill="#000000" font-family="sans-serif" font-size="14" lengthAdjust="spacing" textLength="98" x="202" y="309.9023">&#20855;&#20307;&#30340;&#35748;&#35782;&#38169;&#35823;</text><text fill="#000000" font-family="sans-serif" font-size="14" lengthAdjust="spacing" textLength="98" x="202" y="328.5234">&#21516;&#19968;&#29359;&#32618;&#26500;&#25104;&#20869;</text><rect fill="#90EE90" height="38.6211" rx="12.5" ry="12.5" style="stroke:#181818;stroke-width:1.5;" width="177.8896" x="360" y="118.2422"/><text fill="#000000" font-family="sans-serif" font-size="14" lengthAdjust="spacing" textLength="154" x="370" y="143.3496">&#23545;&#35937;&#38169;&#35823;&#65288;&#26080;&#35266;&#28857;&#20105;&#35758;&#65289;</text><rect fill="#F1F1F1" height="38.6211" rx="12.5" ry="12.5" style="stroke:#181818;stroke-width:1.5;" width="118" x="587.8896" y="88.9316"/><text fill="#000000" font-family="sans-serif" font-size="14" lengthAdjust="spacing" textLength="98" x="597.8896" y="114.0391">&#19981;&#24433;&#21709;&#32618;&#21517;&#26082;&#36930;</text><rect fill="#F1F1F1" height="38.6211" rx="12.5" ry="12.5" style="stroke:#181818;stroke-width:1.5;" width="174" x="755.8896" y="59.6211"/><text fill="#000000" font-family="sans-serif" font-size="14" lengthAdjust="spacing" textLength="154" x="765.8896" y="84.7285">&#25925;&#24847;&#26432;&#20154;&#32618;&#65288;&#19968;&#33324;&#23545;&#35937;&#65289;</text><path d="M705.8896,108.2422 L715.8896,108.2422 C730.8896,108.2422 730.8896,78.9316 745.8896,78.9316 L755.8896,78.9316 " fill="none" style="stroke:#181818;stroke-width:1.0;"/><rect fill="#F1F1F1" height="38.6211" rx="12.5" ry="12.5" style="stroke:#181818;stroke-width:1.5;" width="174" x="755.8896" y="118.2422"/><text fill="#000000" font-family="sans-serif" font-size="14" lengthAdjust="spacing" textLength="154" x="765.8896" y="143.3496">&#38750;&#27861;&#25304;&#31105;&#32618;&#65288;&#19968;&#33324;&#23545;&#35937;&#65289;</text><path d="M705.8896,108.2422 L715.8896,108.2422 C730.8896,108.2422 730.8896,137.5527 745.8896,137.5527 L755.8896,137.5527 " fill="none" style="stroke:#181818;stroke-width:1.0;"/><path d="M537.8896,137.5527 L547.8896,137.5527 C562.8896,137.5527 562.8896,108.2422 577.8896,108.2422 L587.8896,108.2422 " fill="none" style="stroke:#181818;stroke-width:1.0;"/><rect fill="#F1F1F1" height="38.6211" rx="12.5" ry="12.5" style="stroke:#181818;stroke-width:1.5;" width="104" x="587.8896" y="176.8633"/><text fill="#000000" font-family="sans-serif" font-size="14" lengthAdjust="spacing" textLength="84" x="597.8896" y="201.9707">&#24433;&#21709;&#32618;&#21517;&#26082;&#36930;</text><rect fill="#F1F1F1" height="38.6211" rx="12.5" ry="12.5" style="stroke:#181818;stroke-width:1.5;" width="178.6621" x="741.8896" y="176.8633"/><text fill="#000000" font-family="sans-serif" font-size="14" lengthAdjust="spacing" textLength="158.6621" x="751.8896" y="201.9707">&#32465;&#26550;&#32618;&#65288;&#29305;&#23450;&#23545;&#35937;-&#20154;&#36136;&#65289;</text><path d="M691.8896,196.1738 L701.8896,196.1738 C716.8896,196.1738 716.8896,196.1738 731.8896,196.1738 L741.8896,196.1738 " fill="none" style="stroke:#181818;stroke-width:1.0;"/><path d="M537.8896,137.5527 L547.8896,137.5527 C562.8896,137.5527 562.8896,196.1738 577.8896,196.1738 L587.8896,196.1738 " fill="none" style="stroke:#181818;stroke-width:1.0;"/><path d="M310,313.416 L320,313.416 C335,313.416 335,137.5527 350,137.5527 L360,137.5527 " fill="none" style="stroke:#181818;stroke-width:1.0;"/><rect fill="#90EE90" height="38.6211" rx="12.5" ry="12.5" style="stroke:#181818;stroke-width:1.5;" width="177.8896" x="360" y="264.7949"/><text fill="#000000" font-family="sans-serif" font-size="14" lengthAdjust="spacing" textLength="154" x="370" y="289.9023">&#25171;&#20987;&#38169;&#35823;&#65288;&#26377;&#35266;&#28857;&#20105;&#35758;&#65289;</text><rect fill="#F1F1F1" height="38.6211" rx="12.5" ry="12.5" style="stroke:#181818;stroke-width:1.5;" width="202" x="587.8896" y="235.4844"/><text fill="#000000" font-family="sans-serif" font-size="14" lengthAdjust="spacing" textLength="182" x="597.8896" y="260.5918">&#20855;&#20307;&#31526;&#21512;&#35828;&#65288;&#20391;&#37325;&#20445;&#35777;&#20154;&#26435;&#65289;</text><path d="M537.8896,284.1055 L547.8896,284.1055 C562.8896,284.1055 562.8896,254.7949 577.8896,254.7949 L587.8896,254.7949 " fill="none" style="stroke:#181818;stroke-width:1.0;"/><rect fill="#F1F1F1" height="38.6211" rx="12.5" ry="12.5" style="stroke:#181818;stroke-width:1.5;" width="202" x="587.8896" y="294.1055"/><text fill="#000000" font-family="sans-serif" font-size="14" lengthAdjust="spacing" textLength="182" x="597.8896" y="319.2129">&#27861;&#23450;&#31526;&#21512;&#35828;&#65288;&#20391;&#37325;&#20445;&#25252;&#27861;&#30410;&#65289;</text><path d="M537.8896,284.1055 L547.8896,284.1055 C562.8896,284.1055 562.8896,313.416 577.8896,313.416 L587.8896,313.416 " fill="none" style="stroke:#181818;stroke-width:1.0;"/><path d="M310,313.416 L320,313.416 C335,313.416 335,284.1055 350,284.1055 L360,284.1055 " fill="none" style="stroke:#181818;stroke-width:1.0;"/><rect fill="#90EE90" height="38.6211" rx="12.5" ry="12.5" style="stroke:#181818;stroke-width:1.5;" width="107.8896" x="360" y="440.6582"/><text fill="#000000" font-family="sans-serif" font-size="14" lengthAdjust="spacing" textLength="84" x="370" y="465.7656">&#22240;&#26524;&#20851;&#31995;&#38169;&#35823;</text><rect fill="#F1F1F1" height="38.6211" rx="12.5" ry="12.5" style="stroke:#181818;stroke-width:1.5;" width="48" x="517.8896" y="352.7266"/><text fill="#000000" font-family="sans-serif" font-size="14" lengthAdjust="spacing" textLength="28" x="527.8896" y="377.834">&#20316;&#29992;</text><rect fill="#F1F1F1" height="38.6211" rx="12.5" ry="12.5" style="stroke:#181818;stroke-width:1.5;" width="356" x="615.8896" y="352.7266"/><text fill="#000000" font-family="sans-serif" font-size="14" lengthAdjust="spacing" textLength="336" x="625.8896" y="377.834">&#25925;&#24847;&#29359;&#32618;&#32943;&#23450;&#25104;&#31435;&#65292;&#20851;&#38190;&#26159;&#29359;&#32618;&#26159;&#21542;&#26082;&#36930;&#65292;&#36824;&#26159;&#26410;&#36930;&#65311;</text><path d="M565.8896,372.0371 L575.8896,372.0371 C590.8896,372.0371 590.8896,372.0371 605.8896,372.0371 L615.8896,372.0371 " fill="none" style="stroke:#181818;stroke-width:1.0;"/><path d="M467.8896,459.9688 L477.8896,459.9688 C492.8896,459.9688 492.8896,372.0371 507.8896,372.0371 L517.8896,372.0371 " fill="none" style="stroke:#181818;stroke-width:1.0;"/><rect fill="#F1F1F1" height="38.6211" rx="12.5" ry="12.5" style="stroke:#181818;stroke-width:1.5;" width="48" x="517.8896" y="469.9688"/><text fill="#000000" font-family="sans-serif" font-size="14" lengthAdjust="spacing" textLength="28" x="527.8896" y="495.0762">&#20998;&#31867;</text><rect fill="#F1F1F1" height="38.6211" rx="12.5" ry="12.5" style="stroke:#181818;stroke-width:1.5;" width="146" x="615.8896" y="411.3477"/><text fill="#000000" font-family="sans-serif" font-size="14" lengthAdjust="spacing" textLength="126" x="625.8896" y="436.4551">&#20384;&#20041;&#30340;&#22240;&#26524;&#20851;&#31995;&#38169;&#35823;</text><rect fill="#F1F1F1" height="38.6211" rx="12.5" ry="12.5" style="stroke:#181818;stroke-width:1.5;" width="132" x="811.8896" y="411.3477"/><text fill="#000000" font-family="sans-serif" font-size="14" lengthAdjust="spacing" textLength="112" x="821.8896" y="436.4551">&#26500;&#25104;&#25925;&#24847;&#29359;&#32618;&#26082;&#36930;</text><path d="M761.8896,430.6582 L771.8896,430.6582 C786.8896,430.6582 786.8896,430.6582 801.8896,430.6582 L811.8896,430.6582 " fill="none" style="stroke:#181818;stroke-width:1.0;"/><path d="M565.8896,489.2793 L575.8896,489.2793 C590.8896,489.2793 590.8896,430.6582 605.8896,430.6582 L615.8896,430.6582 " fill="none" style="stroke:#181818;stroke-width:1.0;"/><rect fill="#F1F1F1" height="38.6211" rx="12.5" ry="12.5" style="stroke:#181818;stroke-width:1.5;" width="146" x="615.8896" y="499.2793"/><text fill="#000000" font-family="sans-serif" font-size="14" lengthAdjust="spacing" textLength="126" x="625.8896" y="524.3867">&#24191;&#20041;&#30340;&#22240;&#26524;&#20851;&#31995;&#38169;&#35823;</text><rect fill="#F1F1F1" height="38.6211" rx="12.5" ry="12.5" style="stroke:#181818;stroke-width:1.5;" width="118" x="811.8896" y="469.9688"/><text fill="#000000" font-family="sans-serif" font-size="14" lengthAdjust="spacing" textLength="98" x="821.8896" y="495.0762">&#32467;&#26524;&#30340;&#25512;&#36831;&#21457;&#29983;</text><path d="M761.8896,518.5898 L771.8896,518.5898 C786.8896,518.5898 786.8896,489.2793 801.8896,489.2793 L811.8896,489.2793 " fill="none" style="stroke:#181818;stroke-width:1.0;"/><rect fill="#F1F1F1" height="38.6211" rx="12.5" ry="12.5" style="stroke:#181818;stroke-width:1.5;" width="118" x="811.8896" y="528.5898"/><text fill="#000000" font-family="sans-serif" font-size="14" lengthAdjust="spacing" textLength="98" x="821.8896" y="553.6973">&#32467;&#26524;&#30340;&#25552;&#21069;&#21457;&#29983;</text><path d="M761.8896,518.5898 L771.8896,518.5898 C786.8896,518.5898 786.8896,547.9004 801.8896,547.9004 L811.8896,547.9004 " fill="none" style="stroke:#181818;stroke-width:1.0;"/><path d="M565.8896,489.2793 L575.8896,489.2793 C590.8896,489.2793 590.8896,518.5898 605.8896,518.5898 L615.8896,518.5898 " fill="none" style="stroke:#181818;stroke-width:1.0;"/><path d="M467.8896,459.9688 L477.8896,459.9688 C492.8896,459.9688 492.8896,489.2793 507.8896,489.2793 L517.8896,489.2793 " fill="none" style="stroke:#181818;stroke-width:1.0;"/><path d="M310,313.416 L320,313.416 C335,313.416 335,459.9688 350,459.9688 L360,459.9688 " fill="none" style="stroke:#181818;stroke-width:1.0;"/><path d="M142,401.3477 L152,401.3477 C167,401.3477 167,313.416 182,313.416 L192,313.416 " fill="none" style="stroke:#181818;stroke-width:1.0;"/><rect fill="#F1F1F1" height="57.2422" rx="12.5" ry="12.5" style="stroke:#181818;stroke-width:1.5;" width="118" x="192" y="636.5215"/><text fill="#000000" font-family="sans-serif" font-size="14" lengthAdjust="spacing" textLength="98" x="202" y="661.6289">&#25277;&#35937;&#30340;&#35748;&#35782;&#38169;&#35823;</text><text fill="#000000" font-family="sans-serif" font-size="14" lengthAdjust="spacing" textLength="98" x="202" y="680.25">&#19981;&#21516;&#29359;&#32618;&#26500;&#25104;&#38388;</text><rect fill="#F1F1F1" height="38.6211" rx="12.5" ry="12.5" style="stroke:#181818;stroke-width:1.5;" width="48" x="360" y="616.5215"/><text fill="#000000" font-family="sans-serif" font-size="14" lengthAdjust="spacing" textLength="28" x="370" y="641.6289">&#26500;&#20214;</text><rect fill="#90EE90" height="38.6211" rx="12.5" ry="12.5" style="stroke:#181818;stroke-width:1.5;" width="79.8896" x="458" y="587.2109"/><text fill="#000000" font-family="sans-serif" font-size="14" lengthAdjust="spacing" textLength="56" x="468" y="612.3184">&#23545;&#35937;&#38169;&#35823;</text><path d="M408,635.832 L418,635.832 C433,635.832 433,606.5215 448,606.5215 L458,606.5215 " fill="none" style="stroke:#181818;stroke-width:1.0;"/><rect fill="#90EE90" height="38.6211" rx="12.5" ry="12.5" style="stroke:#181818;stroke-width:1.5;" width="79.8896" x="458" y="645.832"/><text fill="#000000" font-family="sans-serif" font-size="14" lengthAdjust="spacing" textLength="56" x="468" y="670.9395">&#25171;&#20987;&#38169;&#35823;</text><path d="M408,635.832 L418,635.832 C433,635.832 433,665.1426 448,665.1426 L458,665.1426 " fill="none" style="stroke:#181818;stroke-width:1.0;"/><path d="M310,665.1426 L320,665.1426 C335,665.1426 335,635.832 350,635.832 L360,635.832 " fill="none" style="stroke:#181818;stroke-width:1.0;"/><rect fill="#F1F1F1" height="38.6211" rx="12.5" ry="12.5" style="stroke:#181818;stroke-width:1.5;" width="48" x="360" y="704.4531"/><text fill="#000000" font-family="sans-serif" font-size="14" lengthAdjust="spacing" textLength="28" x="370" y="729.5605">&#20998;&#26512;</text><rect fill="#F1F1F1" height="38.6211" rx="12.5" ry="12.5" style="stroke:#181818;stroke-width:1.5;" width="314" x="458" y="704.4531"/><text fill="#000000" font-family="sans-serif" font-size="14" lengthAdjust="spacing" textLength="294" x="468" y="729.5605">&#20998;&#21035;&#20998;&#26512;&#20004;&#20010;&#32618;&#65292;&#24819;&#35937;&#31454;&#21512;&#65292;&#27880;&#24847;&#21253;&#23481;&#20851;&#31995;&#35780;&#20215;</text><path d="M408,723.7637 L418,723.7637 C433,723.7637 433,723.7637 448,723.7637 L458,723.7637 " fill="none" style="stroke:#181818;stroke-width:1.0;"/><path d="M310,665.1426 L320,665.1426 C335,665.1426 335,723.7637 350,723.7637 L360,723.7637 " fill="none" style="stroke:#181818;stroke-width:1.0;"/><path d="M142,401.3477 L152,401.3477 C167,401.3477 167,665.1426 182,665.1426 L192,665.1426 " fill="none" style="stroke:#181818;stroke-width:1.0;"/><!--SRC=[xLTRJnD157xVNp765pLf4MD42I648eaeqGZwvClQZdNZThRP2wOn988KMsYb1WoefQ0XIC1qGqgqfLJ-pCxizec_uDbBPQ4iwBEqVTYTytrdldEPCscVelAocX18BC4dEUw2GAAY5iCe7Exm_nGr9UAEfCWJLKk88HiV0aB8MGyBiCPngg2A61dLklLjqbgVCEe_GkQCRZOssOSqcvgZfLbZTvQMIrPvpTAdcmiVBLqFqSoqkLtdk2k8fd-oOlOOm_mqzOIqqpmMWez3D1hpWFGZdX1Qo1dLrvw_qXJB5EXqsg5uDBrcRNznqGTx6RQu2hhDoPgncxNAvOEzBEhfmOdaSruHbDxUFqINR5JpjB5Dv_FWd1RoRF5hSsBo2CR5kO6mvTV6xYv0OH_GP6M-kvl39YTmciibLld0PfVCzOcpEH38tmWnw-zPwOVhpipMQFcJwou4mgoT3RzNK9sTfs_hXwafPlyXDLuvlg_JGiRITspvlxurt-QD_MLBdu3jsFARzY0WOj1q8elDh87L_3npL2JzlCfAHPgkc1LFwga5QnJDXOt02hbjOatg808wnToQFTZBWU_cGfajwLuJBUcqiEvc6ApM_XAiiEAcyxfoF0k77NfCoAzLevQ5RctNtuRs53hDwzSPM6LQs_z7vsPz7e30OEyshFqLElVUN5Wv4pjNeDcy3miYPnhGJMs7q3udXPp_43ONTxWZiS6SE9uxtyayhQR-DZqPvzI1bGhjnQ6PBTTaLDUCwgPpC7BiJSKEOgi4JMY_LZRiAPHBqtBDJQMbWzoV7DU7OLwsPcRVqH7Quyp4NivR613ukCmdq2lG47ugQjXvGgYVZxw8ov96OX59b6Ga2l7dgcq7wxYDZV7o2nd70k2UjGMEonYJqpmx01ywTGOurS9ACa_YGQ9TOmkQrEIa60HrZIreS62-e6H92V9sSN2mlpyIQI5JM1Ibbm5Or-X0kN2hISxEbOqMY8g9AaY45mC8gfJWLSa14nm7Ek1FJvRhbqZHOAH2GEyuV7iwl6OwlrpFBzVpo_NySltlBjS7zb-EHyFtq1YM5HZ4g3DyxUgrw-6kIoEyYaPm4btjGfstkZjlTdTseSZ8ABBDbxbBmtT6aI9fSXIZcA2eil1KimVvPMw87-FHGmt6UW9te_j9J8O6xhOMq6qo9iWIIS1mveOU3ny2RbmFzGlsZZ8eGO-7kG7yZDT45HXHAIQGU3TwD3eOkidTWoclyN7m3PT818QwAgV0Dl8R]--></g></svg>