<svg xmlns="http://www.w3.org/2000/svg" xmlns:xlink="http://www.w3.org/1999/xlink" contentStyleType="text/css" height="574px" preserveAspectRatio="none" style="width:803px;height:574px;background:#FFFFFF;" version="1.1" viewBox="0 0 803 574" width="803px" zoomAndPan="magnify"><defs/><g><path d="M19.5,7 L385.5,7 A12.5,12.5 0 0 1 398,19.5 L398,34.6094 L7,34.6094 L7,19.5 A12.5,12.5 0 0 1 19.5,7 " fill="#F1F1F1" style="stroke:#F1F1F1;stroke-width:1;"/><rect fill="none" height="561.6094" rx="12.5" ry="12.5" style="stroke:#181818;stroke-width:0.5;" width="391" x="7" y="7"/><line style="stroke:#181818;stroke-width:0.5;" x1="7" x2="398" y1="34.6094" y2="34.6094"/><text fill="#000000" font-family="sans-serif" font-size="14" lengthAdjust="spacing" textLength="56" x="174.5" y="26.5332">&#25925;&#24847;&#29359;&#32618;</text><g id="intentional_crime.subjectivity1"><rect fill="#F1F1F1" height="50" rx="12.5" ry="12.5" style="stroke:#181818;stroke-width:0.5;" width="50" x="158" y="101.6094"/><line style="stroke:#181818;stroke-width:0.5;" x1="158" x2="208" y1="129.2188" y2="129.2188"/><text fill="#000000" font-family="sans-serif" font-size="14" lengthAdjust="spacing" textLength="28" x="169" y="121.1426">&#20027;&#35266;</text></g><g id="intentional_crime.objectivity1"><rect fill="#F1F1F1" height="50" rx="12.5" ry="12.5" style="stroke:#181818;stroke-width:0.5;" width="50" x="233" y="101.6094"/><line style="stroke:#181818;stroke-width:0.5;" x1="233" x2="283" y1="129.2188" y2="129.2188"/><text fill="#000000" font-family="sans-serif" font-size="14" lengthAdjust="spacing" textLength="28" x="244" y="121.1426">&#23458;&#35266;</text></g><rect fill="#555555" height="8" style="stroke:none;stroke-width:1;" width="80" x="128" y="187.6094"/><rect fill="#555555" height="8" style="stroke:none;stroke-width:1;" width="80" x="128" y="317.6094"/><g id="intentional_crime.intention"><rect fill="#F1F1F1" height="50" rx="12.5" ry="12.5" style="stroke:#181818;stroke-width:0.5;" width="50" x="143" y="231.6094"/><line style="stroke:#181818;stroke-width:0.5;" x1="143" x2="193" y1="259.2188" y2="259.2188"/><text fill="#000000" font-family="sans-serif" font-size="14" lengthAdjust="spacing" textLength="28" x="154" y="251.1426">&#25925;&#24847;</text></g><rect fill="#555555" height="8" style="stroke:none;stroke-width:1;" width="80" x="226" y="187.6094"/><rect fill="#555555" height="8" style="stroke:none;stroke-width:1;" width="80" x="226" y="317.6094"/><g id="intentional_crime.danger1"><rect fill="#F1F1F1" height="50" rx="12.5" ry="12.5" style="stroke:#181818;stroke-width:0.5;" width="76" x="219" y="231.6094"/><line style="stroke:#181818;stroke-width:0.5;" x1="219" x2="295" y1="259.2188" y2="259.2188"/><text fill="#000000" font-family="sans-serif" font-size="14" lengthAdjust="spacing" textLength="56" x="229" y="251.1426">&#21361;&#38505;&#29366;&#24577;</text></g><g id="intentional_crime.actual_damage1"><rect fill="#F1F1F1" height="50" rx="12.5" ry="12.5" style="stroke:#181818;stroke-width:0.5;" width="76" x="313" y="231.6094"/><line style="stroke:#181818;stroke-width:0.5;" x1="313" x2="389" y1="259.2188" y2="259.2188"/><text fill="#000000" font-family="sans-serif" font-size="14" lengthAdjust="spacing" textLength="56" x="323" y="251.1426">&#23454;&#23475;&#32467;&#26524;</text></g><g id="intentional_crime.Integration_of_Subjectivity_and_Objectivity"><rect fill="#F1F1F1" height="50" rx="12.5" ry="12.5" style="stroke:#181818;stroke-width:0.5;" width="104" x="165" y="363.1094"/><line style="stroke:#181818;stroke-width:0.5;" x1="165" x2="269" y1="390.7188" y2="390.7188"/><text fill="#000000" font-family="sans-serif" font-size="14" lengthAdjust="spacing" textLength="84" x="175" y="382.6426">&#20027;&#23458;&#35266;&#30456;&#19968;&#33268;</text></g><g id="intentional_crime.criminal_law1"><rect fill="#F1F1F1" height="52.7031" rx="12.5" ry="12.5" style="stroke:#181818;stroke-width:0.5;" width="128" x="19" y="361.6094"/><line style="stroke:#181818;stroke-width:0.5;" x1="19" x2="147" y1="389.2188" y2="389.2188"/><text fill="#000000" font-family="sans-serif" font-size="14" lengthAdjust="spacing" textLength="28" x="69" y="381.1426">&#21009;&#27861;</text><text fill="#000000" font-family="sans-serif" font-size="12" lengthAdjust="spacing" textLength="108" x="24" y="406.6758">&#22788;&#32602;&#25925;&#24847;&#29359;&#32618;&#26159;&#21407;&#21017;</text></g><g id="intentional_crime.crime_establishment1"><rect fill="#F1F1F1" height="50" rx="12.5" ry="12.5" style="stroke:#181818;stroke-width:0.5;" width="76" x="112" y="450.6094"/><line style="stroke:#181818;stroke-width:0.5;" x1="112" x2="188" y1="478.2188" y2="478.2188"/><text fill="#000000" font-family="sans-serif" font-size="14" lengthAdjust="spacing" textLength="56" x="122" y="470.1426">&#29359;&#32618;&#25104;&#31435;</text></g><ellipse cx="217" cy="55.6094" fill="#222222" rx="10" ry="10" style="stroke:#222222;stroke-width:1;"/><ellipse cx="150" cy="547.6094" fill="none" rx="11" ry="11" style="stroke:#222222;stroke-width:1;"/><ellipse cx="150" cy="547.6094" fill="#222222" rx="6" ry="6" style="stroke:#222222;stroke-width:1;"/><!--link *start*intentional_crime to subjectivity1--><g id="link_*start*intentional_crime_subjectivity1"><path d="M212.97,64.7994 C208.53,73.7894 203.8513,83.2769 197.5513,96.0669 " fill="none" id="*start*intentional_crime-to-subjectivity1" style="stroke:#181818;stroke-width:1;"/><polygon fill="#181818" points="194.9,101.4494,202.4652,95.1432,197.1094,96.964,195.2886,91.6082,194.9,101.4494" style="stroke:#181818;stroke-width:1;"/></g><!--link *start*intentional_crime to objectivity1--><g id="link_*start*intentional_crime_objectivity1"><path d="M221.7,64.5294 C227.05,73.5194 232.9547,83.4614 240.6447,96.4014 " fill="none" id="*start*intentional_crime-to-objectivity1" style="stroke:#181818;stroke-width:1;"/><polygon fill="#181818" points="243.71,101.5594,242.5507,91.779,241.1556,97.2611,235.6735,95.866,243.71,101.5594" style="stroke:#181818;stroke-width:1;"/></g><!--link subjectivity1 to subjectivity1_fork--><g id="link_subjectivity1_subjectivity1_fork"><path d="M177.24,151.7894 C174,165.3894 171.7042,175.0836 170.1442,181.6136 " fill="none" id="subjectivity1-to-subjectivity1_fork" style="stroke:#181818;stroke-width:1;"/><polygon fill="#181818" points="168.75,187.4494,174.7317,179.6251,169.9118,182.5862,166.9507,177.7663,168.75,187.4494" style="stroke:#181818;stroke-width:1;"/></g><!--link subjectivity1_fork to intention--><g id="link_subjectivity1_fork_intention"><path d="M168,195.6494 C168,202.1394 168,211.8794 168,225.5994 " fill="none" id="subjectivity1_fork-to-intention" style="stroke:#181818;stroke-width:1;"/><polygon fill="#181818" points="168,231.5994,172,222.5994,168,226.5994,164,222.5994,168,231.5994" style="stroke:#181818;stroke-width:1;"/></g><!--link intention to subjectivity1_join--><g id="link_intention_subjectivity1_join"><path d="M168,281.7894 C168,295.3894 168,304.9194 168,311.4494 " fill="none" id="intention-to-subjectivity1_join" style="stroke:#181818;stroke-width:1;"/><polygon fill="#181818" points="168,317.4494,172,308.4494,168,312.4494,164,308.4494,168,317.4494" style="stroke:#181818;stroke-width:1;"/></g><!--link objectivity1 to objectivity1_fork--><g id="link_objectivity1_objectivity1_fork"><path d="M261.07,151.7894 C262.8,165.3894 264.0135,174.9673 264.8435,181.4973 " fill="none" id="objectivity1-to-objectivity1_fork" style="stroke:#181818;stroke-width:1;"/><polygon fill="#181818" points="265.6,187.4494,268.4333,178.0168,264.9695,182.4893,260.4971,179.0256,265.6,187.4494" style="stroke:#181818;stroke-width:1;"/></g><!--link objectivity1_fork to danger1--><g id="link_objectivity1_fork_danger1"><path d="M265.57,195.6494 C264.64,202.1394 263.2385,211.9397 261.2785,225.6597 " fill="none" id="objectivity1_fork-to-danger1" style="stroke:#181818;stroke-width:1;"/><polygon fill="#181818" points="260.43,231.5994,265.6626,223.2555,261.1371,226.6496,257.743,222.1241,260.43,231.5994" style="stroke:#181818;stroke-width:1;"/></g><!--link objectivity1_fork to actual_damage1--><g id="link_objectivity1_fork_actual_damage1"><path d="M270.1,195.6494 C278.85,202.1394 295.2688,214.3078 313.7888,228.0278 " fill="none" id="objectivity1_fork-to-actual_damage1" style="stroke:#181818;stroke-width:1;"/><polygon fill="#181818" points="318.61,231.5994,313.7593,223.0278,314.5924,228.623,308.9972,229.4561,318.61,231.5994" style="stroke:#181818;stroke-width:1;"/></g><!--link danger1 to objectivity1_join--><g id="link_danger1_objectivity1_join"><path d="M260.45,281.7894 C262.4,295.3894 263.774,304.9793 264.704,311.5093 " fill="none" id="danger1-to-objectivity1_join" style="stroke:#181818;stroke-width:1;"/><polygon fill="#181818" points="265.55,317.4494,268.2411,307.9753,264.845,312.4993,260.321,309.1033,265.55,317.4494" style="stroke:#181818;stroke-width:1;"/></g><!--link actual_damage1 to objectivity1_join--><g id="link_actual_damage1_objectivity1_join"><path d="M318.38,281.7894 C300.03,295.3894 283.8903,307.3466 275.0803,313.8766 " fill="none" id="actual_damage1-to-objectivity1_join" style="stroke:#181818;stroke-width:1;"/><polygon fill="#181818" points="270.26,317.4494,279.8723,315.3037,274.2769,314.472,275.1085,308.8767,270.26,317.4494" style="stroke:#181818;stroke-width:1;"/></g><!--link subjectivity1_join to Integration_of_Subjectivity_and_Objectivity--><g id="link_subjectivity1_join_Integration_of_Subjectivity_and_Objectivity"><path d="M170.36,325.7194 C175.45,332.4094 184.2114,343.941 194.9414,358.071 " fill="none" id="subjectivity1_join-to-Integration_of_Subjectivity_and_Objectivity" style="stroke:#181818;stroke-width:1;"/><polygon fill="#181818" points="198.57,362.8494,196.3127,353.2627,195.5462,358.8674,189.9415,358.1008,198.57,362.8494" style="stroke:#181818;stroke-width:1;"/></g><!--link objectivity1_join to Integration_of_Subjectivity_and_Objectivity--><g id="link_objectivity1_join_Integration_of_Subjectivity_and_Objectivity"><path d="M263.64,325.7194 C258.55,332.4094 249.7886,343.941 239.0586,358.071 " fill="none" id="objectivity1_join-to-Integration_of_Subjectivity_and_Objectivity" style="stroke:#181818;stroke-width:1;"/><polygon fill="#181818" points="235.43,362.8494,244.0585,358.1008,238.4538,358.8674,237.6873,353.2627,235.43,362.8494" style="stroke:#181818;stroke-width:1;"/></g><!--link Integration_of_Subjectivity_and_Objectivity to crime_establishment1--><g id="link_Integration_of_Subjectivity_and_Objectivity_crime_establishment1"><path d="M197.98,413.3794 C188.85,425.0294 181.6394,434.2255 172.5394,445.8455 " fill="none" id="Integration_of_Subjectivity_and_Objectivity-to-crime_establishment1" style="stroke:#181818;stroke-width:1;"/><polygon fill="#181818" points="168.84,450.5694,177.5383,445.9499,171.9228,446.6329,171.2399,441.0174,168.84,450.5694" style="stroke:#181818;stroke-width:1;"/></g><!--link criminal_law1 to crime_establishment1--><g id="link_criminal_law1_crime_establishment1"><path d="M103.1,414.7594 C111.97,426.0794 118.6291,434.5768 127.3591,445.7168 " fill="none" id="criminal_law1-to-crime_establishment1" style="stroke:#181818;stroke-width:1;"/><polygon fill="#181818" points="131.06,450.4394,128.657,440.8882,127.9759,446.5039,122.3602,445.8227,131.06,450.4394" style="stroke:#181818;stroke-width:1;"/></g><!--link crime_establishment1 to *end*intentional_crime--><g id="link_crime_establishment1_*end*intentional_crime"><path d="M150,500.6994 C150,512.8794 150,521.0194 150,530.3494 " fill="none" id="crime_establishment1-to-*end*intentional_crime" style="stroke:#181818;stroke-width:1;"/><polygon fill="#181818" points="150,536.3494,154,527.3494,150,531.3494,146,527.3494,150,536.3494" style="stroke:#181818;stroke-width:1;"/></g><path d="M445.5,21.5 L777.5,21.5 A12.5,12.5 0 0 1 790,34 L790,49.1094 L433,49.1094 L433,34 A12.5,12.5 0 0 1 445.5,21.5 " fill="#F1F1F1" style="stroke:#F1F1F1;stroke-width:1;"/><rect fill="none" height="532.6094" rx="12.5" ry="12.5" style="stroke:#181818;stroke-width:0.5;" width="357" x="433" y="21.5"/><line style="stroke:#181818;stroke-width:0.5;" x1="433" x2="790" y1="49.1094" y2="49.1094"/><text fill="#000000" font-family="sans-serif" font-size="14" lengthAdjust="spacing" textLength="56" x="583.5" y="41.0332">&#36807;&#22833;&#29359;&#32618;</text><g id="negligent_crime.subjectivity2"><rect fill="#F1F1F1" height="50" rx="12.5" ry="12.5" style="stroke:#181818;stroke-width:0.5;" width="50" x="475" y="116.1094"/><line style="stroke:#181818;stroke-width:0.5;" x1="475" x2="525" y1="143.7188" y2="143.7188"/><text fill="#000000" font-family="sans-serif" font-size="14" lengthAdjust="spacing" textLength="28" x="486" y="135.6426">&#20027;&#35266;</text></g><g id="negligent_crime.objectivity2"><rect fill="#F1F1F1" height="50" rx="12.5" ry="12.5" style="stroke:#181818;stroke-width:0.5;" width="50" x="550" y="116.1094"/><line style="stroke:#181818;stroke-width:0.5;" x1="550" x2="600" y1="143.7188" y2="143.7188"/><text fill="#000000" font-family="sans-serif" font-size="14" lengthAdjust="spacing" textLength="28" x="561" y="135.6426">&#23458;&#35266;</text></g><rect fill="#555555" height="8" style="stroke:none;stroke-width:1;" width="80" x="445" y="202.1094"/><rect fill="#555555" height="8" style="stroke:none;stroke-width:1;" width="80" x="445" y="362.1094"/><g id="negligent_crime.negligence"><rect fill="#F1F1F1" height="50" rx="12.5" ry="12.5" style="stroke:#181818;stroke-width:0.5;" width="50" x="460" y="246.1094"/><line style="stroke:#181818;stroke-width:0.5;" x1="460" x2="510" y1="273.7188" y2="273.7188"/><text fill="#000000" font-family="sans-serif" font-size="14" lengthAdjust="spacing" textLength="28" x="471" y="265.6426">&#36807;&#22833;</text></g><rect fill="#555555" height="8" style="stroke:none;stroke-width:1;" width="80" x="543" y="202.1094"/><rect fill="#555555" height="8" style="stroke:none;stroke-width:1;" width="80" x="543" y="362.1094"/><g id="negligent_crime.actual_damage2"><rect fill="#F1F1F1" height="50" rx="12.5" ry="12.5" style="stroke:#181818;stroke-width:0.5;" width="76" x="545" y="246.1094"/><line style="stroke:#181818;stroke-width:0.5;" x1="545" x2="621" y1="273.7188" y2="273.7188"/><text fill="#000000" font-family="sans-serif" font-size="14" lengthAdjust="spacing" textLength="56" x="555" y="265.6426">&#23454;&#23475;&#32467;&#26524;</text></g><g id="negligent_crime.criminal_law2"><rect fill="#F1F1F1" height="67.7969" rx="12.5" ry="12.5" style="stroke:#181818;stroke-width:0.5;" width="140" x="641" y="332.1094"/><line style="stroke:#181818;stroke-width:0.5;" x1="641" x2="781" y1="359.7188" y2="359.7188"/><text fill="#000000" font-family="sans-serif" font-size="14" lengthAdjust="spacing" textLength="28" x="697" y="351.6426">&#21009;&#27861;</text><text fill="#000000" font-family="sans-serif" font-size="12" lengthAdjust="spacing" textLength="120" x="646" y="377.1758">&#22788;&#32602;&#36807;&#22833;&#29359;&#32618;&#26159;&#20363;&#22806;&#65292;</text><text fill="#000000" font-family="sans-serif" font-size="12" lengthAdjust="spacing" textLength="84" x="646" y="392.2695">&#39035;&#21009;&#27861;&#26126;&#30830;&#35268;&#23450;</text></g><g id="negligent_crime.crime_establishment2"><rect fill="#F1F1F1" height="50" rx="12.5" ry="12.5" style="stroke:#181818;stroke-width:0.5;" width="76" x="545" y="436.1094"/><line style="stroke:#181818;stroke-width:0.5;" x1="545" x2="621" y1="463.7188" y2="463.7188"/><text fill="#000000" font-family="sans-serif" font-size="14" lengthAdjust="spacing" textLength="56" x="555" y="455.6426">&#29359;&#32618;&#25104;&#31435;</text></g><ellipse cx="534" cy="70.1094" fill="#222222" rx="10" ry="10" style="stroke:#222222;stroke-width:1;"/><ellipse cx="583" cy="533.1094" fill="none" rx="11" ry="11" style="stroke:#222222;stroke-width:1;"/><ellipse cx="583" cy="533.1094" fill="#222222" rx="6" ry="6" style="stroke:#222222;stroke-width:1;"/><!--link *start*negligent_crime to subjectivity2--><g id="link_*start*negligent_crime_subjectivity2"><path d="M529.97,79.2994 C525.53,88.2894 520.8513,97.7769 514.5513,110.5669 " fill="none" id="*start*negligent_crime-to-subjectivity2" style="stroke:#181818;stroke-width:1;"/><polygon fill="#181818" points="511.9,115.9494,519.4652,109.6432,514.1094,111.464,512.2886,106.1082,511.9,115.9494" style="stroke:#181818;stroke-width:1;"/></g><!--link *start*negligent_crime to objectivity2--><g id="link_*start*negligent_crime_objectivity2"><path d="M538.7,79.0294 C544.05,88.0194 549.9547,97.9614 557.6447,110.9014 " fill="none" id="*start*negligent_crime-to-objectivity2" style="stroke:#181818;stroke-width:1;"/><polygon fill="#181818" points="560.71,116.0594,559.5507,106.279,558.1556,111.7611,552.6735,110.366,560.71,116.0594" style="stroke:#181818;stroke-width:1;"/></g><!--link subjectivity2 to subjectivity2_fork--><g id="link_subjectivity2_subjectivity2_fork"><path d="M494.24,166.2894 C491,179.8894 488.7042,189.5836 487.1442,196.1136 " fill="none" id="subjectivity2-to-subjectivity2_fork" style="stroke:#181818;stroke-width:1;"/><polygon fill="#181818" points="485.75,201.9494,491.7317,194.1251,486.9118,197.0862,483.9507,192.2663,485.75,201.9494" style="stroke:#181818;stroke-width:1;"/></g><!--link subjectivity2_fork to negligence--><g id="link_subjectivity2_fork_negligence"><path d="M485,210.1494 C485,216.6394 485,226.3794 485,240.0994 " fill="none" id="subjectivity2_fork-to-negligence" style="stroke:#181818;stroke-width:1;"/><polygon fill="#181818" points="485,246.0994,489,237.0994,485,241.0994,481,237.0994,485,246.0994" style="stroke:#181818;stroke-width:1;"/></g><!--link negligence to subjectivity2_join--><g id="link_negligence_subjectivity2_join"><path d="M485,296.5394 C485,319.5794 485,346.0194 485,356.0394 " fill="none" id="negligence-to-subjectivity2_join" style="stroke:#181818;stroke-width:1;"/><polygon fill="#181818" points="485,362.0394,489,353.0394,485,357.0394,481,353.0394,485,362.0394" style="stroke:#181818;stroke-width:1;"/></g><!--link objectivity2 to objectivity2_fork--><g id="link_objectivity2_objectivity2_fork"><path d="M578.07,166.2894 C579.8,179.8894 581.0135,189.4673 581.8435,195.9973 " fill="none" id="objectivity2-to-objectivity2_fork" style="stroke:#181818;stroke-width:1;"/><polygon fill="#181818" points="582.6,201.9494,585.4333,192.5168,581.9695,196.9893,577.4971,193.5256,582.6,201.9494" style="stroke:#181818;stroke-width:1;"/></g><!--link objectivity2_fork to actual_damage2--><g id="link_objectivity2_fork_actual_damage2"><path d="M583,210.1494 C583,216.6394 583,226.3794 583,240.0994 " fill="none" id="objectivity2_fork-to-actual_damage2" style="stroke:#181818;stroke-width:1;"/><polygon fill="#181818" points="583,246.0994,587,237.0994,583,241.0994,579,237.0994,583,246.0994" style="stroke:#181818;stroke-width:1;"/></g><!--link actual_damage2 to objectivity2_join--><g id="link_actual_damage2_objectivity2_join"><path d="M583,296.5394 C583,319.5794 583,346.0194 583,356.0394 " fill="none" id="actual_damage2-to-objectivity2_join" style="stroke:#181818;stroke-width:1;"/><polygon fill="#181818" points="583,362.0394,587,353.0394,583,357.0394,579,353.0394,583,362.0394" style="stroke:#181818;stroke-width:1;"/></g><!--link subjectivity2_join to crime_establishment2--><g id="link_subjectivity2_join_crime_establishment2"><path d="M488.26,370.1994 C498.89,380.2894 528.8876,408.7594 553.1576,431.7894 " fill="none" id="subjectivity2_join-to-crime_establishment2" style="stroke:#181818;stroke-width:1;"/><polygon fill="#181818" points="557.51,435.9194,553.7348,426.8228,553.883,432.4777,548.2281,432.626,557.51,435.9194" style="stroke:#181818;stroke-width:1;"/></g><!--link objectivity2_join to crime_establishment2--><g id="link_objectivity2_join_crime_establishment2"><path d="M583,370.1994 C583,380.2894 583,406.8894 583,429.9194 " fill="none" id="objectivity2_join-to-crime_establishment2" style="stroke:#181818;stroke-width:1;"/><polygon fill="#181818" points="583,435.9194,587,426.9194,583,430.9194,579,426.9194,583,435.9194" style="stroke:#181818;stroke-width:1;"/></g><!--link criminal_law2 to crime_establishment2--><g id="link_criminal_law2_crime_establishment2"><path d="M665.51,400.1594 C649.27,411.9594 636.143,421.4911 621.123,432.4111 " fill="none" id="criminal_law2-to-crime_establishment2" style="stroke:#181818;stroke-width:1;"/><polygon fill="#181818" points="616.27,435.9394,625.9016,433.8823,620.3141,432.9992,621.1973,427.4117,616.27,435.9394" style="stroke:#181818;stroke-width:1;"/></g><!--link crime_establishment2 to *end*negligent_crime--><g id="link_crime_establishment2_*end*negligent_crime"><path d="M583,486.1994 C583,498.3794 583,506.5194 583,515.8494 " fill="none" id="crime_establishment2-to-*end*negligent_crime" style="stroke:#181818;stroke-width:1;"/><polygon fill="#181818" points="583,521.8494,587,512.8494,583,516.8494,579,512.8494,583,521.8494" style="stroke:#181818;stroke-width:1;"/></g><!--SRC=[fLHDRzD04BtxLvWUaPogUqHLxfmuS0HaRUsjsMBlLh43gX1IGK6DMYWWLDGFLDGgKbMGKbL5A58e_9dOJa_y1TRh9Dwrrqu2KGxspfldURCpxnOcbjkqaLwhBOf_FzXmqUAw2qdGz5p3myGsFBXkyFCQPcUQvWSmGFf2jFSwQhsBjo_YwwyBElHrJ0940am9T4shWJsaFzTqzXlX1xt-yEmLH_hDbJLa1VWf3ZQMH4pOFHrZQ1xouFOZtJ3gYkHnH4hH15ufnLobZISijBoSFDJhfRWrYWd79GyIRgHTLft6HOPYkVpRHM1QKeAMsIPl2gQaA54ZdKqYdQQGvWLGPVtIhRszl3auZxT_H9ilUKziI1pKoDtiSTYzYliVe-FF70EjeCa6nOOUTD1IRb3IEOYFUeFUvd3hEq-uovhXD63I3fEkclU5RfYGsEQzxBqW96kmM9eQaIiixV4ehTWGVWq9Gawh02g6B07_bxn_Of6kf_qXkjhZVKvM5oSxxC9dQP-aapjws6d5ruVY-aVx5-7kbx1z85AEGkttyRUT2J4o4GklkDX_xB7HJlddA9gBB2MI2fqEpGTu1ZCJxSN4v8Q_jyBEfM1o13akTXXw3ei3qoqEb5eSABCuK6fnO4QB0rKMbogND5keCC2WMA_Quq2sO3cwx5N1LU5oO3QNgnHPxKeWlsYWS0UPMAhKgk2JZugCgUGPbXCKPXwCbrCSMxQSWryxOUVJdvzl7fARatvA5-tlnYVTuLahx1xEkxP0SRqJ2oh5q_dWah1oQDas0t6RjRy0]--></g></svg>