<svg xmlns="http://www.w3.org/2000/svg" xmlns:xlink="http://www.w3.org/1999/xlink" contentStyleType="text/css" height="545px" preserveAspectRatio="none" style="width:377px;height:545px;background:#FFFFFF;" version="1.1" viewBox="0 0 377 545" width="377px" zoomAndPan="magnify"><defs/><g><path d="M19.5,7 L351.5,7 A12.5,12.5 0 0 1 364,19.5 L364,34.6094 L7,34.6094 L7,19.5 A12.5,12.5 0 0 1 19.5,7 " fill="#F1F1F1" style="stroke:#F1F1F1;stroke-width:1;"/><rect fill="none" height="532.6094" rx="12.5" ry="12.5" style="stroke:#181818;stroke-width:0.5;" width="357" x="7" y="7"/><line style="stroke:#181818;stroke-width:0.5;" x1="7" x2="364" y1="34.6094" y2="34.6094"/><text fill="#000000" font-family="sans-serif" font-size="14" lengthAdjust="spacing" textLength="56" x="157.5" y="26.5332">&#36807;&#22833;&#29359;&#32618;</text><g id="negligent_crime.subjectivity2"><rect fill="#F1F1F1" height="50" rx="12.5" ry="12.5" style="stroke:#181818;stroke-width:0.5;" width="50" x="49" y="101.6094"/><line style="stroke:#181818;stroke-width:0.5;" x1="49" x2="99" y1="129.2188" y2="129.2188"/><text fill="#000000" font-family="sans-serif" font-size="14" lengthAdjust="spacing" textLength="28" x="60" y="121.1426">&#20027;&#35266;</text></g><g id="negligent_crime.objectivity2"><rect fill="#F1F1F1" height="50" rx="12.5" ry="12.5" style="stroke:#181818;stroke-width:0.5;" width="50" x="124" y="101.6094"/><line style="stroke:#181818;stroke-width:0.5;" x1="124" x2="174" y1="129.2188" y2="129.2188"/><text fill="#000000" font-family="sans-serif" font-size="14" lengthAdjust="spacing" textLength="28" x="135" y="121.1426">&#23458;&#35266;</text></g><rect fill="#555555" height="8" style="stroke:none;stroke-width:1;" width="80" x="19" y="187.6094"/><rect fill="#555555" height="8" style="stroke:none;stroke-width:1;" width="80" x="19" y="347.6094"/><g id="negligent_crime.negligence"><rect fill="#F1F1F1" height="50" rx="12.5" ry="12.5" style="stroke:#181818;stroke-width:0.5;" width="50" x="34" y="231.6094"/><line style="stroke:#181818;stroke-width:0.5;" x1="34" x2="84" y1="259.2188" y2="259.2188"/><text fill="#000000" font-family="sans-serif" font-size="14" lengthAdjust="spacing" textLength="28" x="45" y="251.1426">&#36807;&#22833;</text></g><rect fill="#555555" height="8" style="stroke:none;stroke-width:1;" width="80" x="117" y="187.6094"/><rect fill="#555555" height="8" style="stroke:none;stroke-width:1;" width="80" x="117" y="347.6094"/><g id="negligent_crime.actual_damage2"><rect fill="#F1F1F1" height="50" rx="12.5" ry="12.5" style="stroke:#181818;stroke-width:0.5;" width="76" x="119" y="231.6094"/><line style="stroke:#181818;stroke-width:0.5;" x1="119" x2="195" y1="259.2188" y2="259.2188"/><text fill="#000000" font-family="sans-serif" font-size="14" lengthAdjust="spacing" textLength="56" x="129" y="251.1426">&#23454;&#23475;&#32467;&#26524;</text></g><g id="negligent_crime.criminal_law2"><rect fill="#F1F1F1" height="67.7969" rx="12.5" ry="12.5" style="stroke:#181818;stroke-width:0.5;" width="140" x="215" y="317.6094"/><line style="stroke:#181818;stroke-width:0.5;" x1="215" x2="355" y1="345.2188" y2="345.2188"/><text fill="#000000" font-family="sans-serif" font-size="14" lengthAdjust="spacing" textLength="28" x="271" y="337.1426">&#21009;&#27861;</text><text fill="#000000" font-family="sans-serif" font-size="12" lengthAdjust="spacing" textLength="120" x="220" y="362.6758">&#22788;&#32602;&#36807;&#22833;&#29359;&#32618;&#26159;&#20363;&#22806;&#65292;</text><text fill="#000000" font-family="sans-serif" font-size="12" lengthAdjust="spacing" textLength="84" x="220" y="377.7695">&#39035;&#21009;&#27861;&#26126;&#30830;&#35268;&#23450;</text></g><g id="negligent_crime.crime_establishment2"><rect fill="#F1F1F1" height="50" rx="12.5" ry="12.5" style="stroke:#181818;stroke-width:0.5;" width="76" x="119" y="421.6094"/><line style="stroke:#181818;stroke-width:0.5;" x1="119" x2="195" y1="449.2188" y2="449.2188"/><text fill="#000000" font-family="sans-serif" font-size="14" lengthAdjust="spacing" textLength="56" x="129" y="441.1426">&#29359;&#32618;&#25104;&#31435;</text></g><ellipse cx="108" cy="55.6094" fill="#222222" rx="10" ry="10" style="stroke:#222222;stroke-width:1;"/><ellipse cx="157" cy="518.6094" fill="none" rx="11" ry="11" style="stroke:#222222;stroke-width:1;"/><ellipse cx="157" cy="518.6094" fill="#222222" rx="6" ry="6" style="stroke:#222222;stroke-width:1;"/><!--link *start*negligent_crime to subjectivity2--><g id="link_*start*negligent_crime_subjectivity2"><path d="M103.97,64.7994 C99.53,73.7894 94.8513,83.2769 88.5513,96.0669 " fill="none" id="*start*negligent_crime-to-subjectivity2" style="stroke:#181818;stroke-width:1;"/><polygon fill="#181818" points="85.9,101.4494,93.4652,95.1432,88.1094,96.964,86.2886,91.6082,85.9,101.4494" style="stroke:#181818;stroke-width:1;"/></g><!--link *start*negligent_crime to objectivity2--><g id="link_*start*negligent_crime_objectivity2"><path d="M112.7,64.5294 C118.05,73.5194 123.9547,83.4614 131.6447,96.4014 " fill="none" id="*start*negligent_crime-to-objectivity2" style="stroke:#181818;stroke-width:1;"/><polygon fill="#181818" points="134.71,101.5594,133.5507,91.779,132.1556,97.2611,126.6735,95.866,134.71,101.5594" style="stroke:#181818;stroke-width:1;"/></g><!--link subjectivity2 to subjectivity2_fork--><g id="link_subjectivity2_subjectivity2_fork"><path d="M68.24,151.7894 C65,165.3894 62.7042,175.0836 61.1442,181.6136 " fill="none" id="subjectivity2-to-subjectivity2_fork" style="stroke:#181818;stroke-width:1;"/><polygon fill="#181818" points="59.75,187.4494,65.7317,179.6251,60.9118,182.5862,57.9507,177.7663,59.75,187.4494" style="stroke:#181818;stroke-width:1;"/></g><!--link subjectivity2_fork to negligence--><g id="link_subjectivity2_fork_negligence"><path d="M59,195.6494 C59,202.1394 59,211.8794 59,225.5994 " fill="none" id="subjectivity2_fork-to-negligence" style="stroke:#181818;stroke-width:1;"/><polygon fill="#181818" points="59,231.5994,63,222.5994,59,226.5994,55,222.5994,59,231.5994" style="stroke:#181818;stroke-width:1;"/></g><!--link negligence to subjectivity2_join--><g id="link_negligence_subjectivity2_join"><path d="M59,282.0394 C59,305.0794 59,331.5194 59,341.5394 " fill="none" id="negligence-to-subjectivity2_join" style="stroke:#181818;stroke-width:1;"/><polygon fill="#181818" points="59,347.5394,63,338.5394,59,342.5394,55,338.5394,59,347.5394" style="stroke:#181818;stroke-width:1;"/></g><!--link objectivity2 to objectivity2_fork--><g id="link_objectivity2_objectivity2_fork"><path d="M152.07,151.7894 C153.8,165.3894 155.0135,174.9673 155.8435,181.4973 " fill="none" id="objectivity2-to-objectivity2_fork" style="stroke:#181818;stroke-width:1;"/><polygon fill="#181818" points="156.6,187.4494,159.4333,178.0168,155.9695,182.4893,151.4971,179.0256,156.6,187.4494" style="stroke:#181818;stroke-width:1;"/></g><!--link objectivity2_fork to actual_damage2--><g id="link_objectivity2_fork_actual_damage2"><path d="M157,195.6494 C157,202.1394 157,211.8794 157,225.5994 " fill="none" id="objectivity2_fork-to-actual_damage2" style="stroke:#181818;stroke-width:1;"/><polygon fill="#181818" points="157,231.5994,161,222.5994,157,226.5994,153,222.5994,157,231.5994" style="stroke:#181818;stroke-width:1;"/></g><!--link actual_damage2 to objectivity2_join--><g id="link_actual_damage2_objectivity2_join"><path d="M157,282.0394 C157,305.0794 157,331.5194 157,341.5394 " fill="none" id="actual_damage2-to-objectivity2_join" style="stroke:#181818;stroke-width:1;"/><polygon fill="#181818" points="157,347.5394,161,338.5394,157,342.5394,153,338.5394,157,347.5394" style="stroke:#181818;stroke-width:1;"/></g><!--link subjectivity2_join to crime_establishment2--><g id="link_subjectivity2_join_crime_establishment2"><path d="M62.26,355.6994 C72.89,365.7894 102.8876,394.2594 127.1576,417.2894 " fill="none" id="subjectivity2_join-to-crime_establishment2" style="stroke:#181818;stroke-width:1;"/><polygon fill="#181818" points="131.51,421.4194,127.7348,412.3228,127.883,417.9777,122.2281,418.126,131.51,421.4194" style="stroke:#181818;stroke-width:1;"/></g><!--link objectivity2_join to crime_establishment2--><g id="link_objectivity2_join_crime_establishment2"><path d="M157,355.6994 C157,365.7894 157,392.3894 157,415.4194 " fill="none" id="objectivity2_join-to-crime_establishment2" style="stroke:#181818;stroke-width:1;"/><polygon fill="#181818" points="157,421.4194,161,412.4194,157,416.4194,153,412.4194,157,421.4194" style="stroke:#181818;stroke-width:1;"/></g><!--link criminal_law2 to crime_establishment2--><g id="link_criminal_law2_crime_establishment2"><path d="M239.51,385.6594 C223.27,397.4594 210.143,406.9911 195.123,417.9111 " fill="none" id="criminal_law2-to-crime_establishment2" style="stroke:#181818;stroke-width:1;"/><polygon fill="#181818" points="190.27,421.4394,199.9016,419.3823,194.3141,418.4992,195.1973,412.9117,190.27,421.4394" style="stroke:#181818;stroke-width:1;"/></g><!--link crime_establishment2 to *end*negligent_crime--><g id="link_crime_establishment2_*end*negligent_crime"><path d="M157,471.6994 C157,483.8794 157,492.0194 157,501.3494 " fill="none" id="crime_establishment2-to-*end*negligent_crime" style="stroke:#181818;stroke-width:1;"/><polygon fill="#181818" points="157,507.3494,161,498.3494,157,502.3494,153,498.3494,157,507.3494" style="stroke:#181818;stroke-width:1;"/></g><!--SRC=[bPFHIiCm58Rl-nHnbq8tsAMClOXAoReuCzDahAaon1iPE9o88ieOCfWC18KEsOqmfo-pjlFALp1Djzbq7SpIY_ISx_pd_6coXQb9d382sMmk_jgyGL2kHY3bZaLq2zEoRi6QBkDPB6AQPdF84SZClYwymLjmEGmcBna0RK1HXU0AejmmwzX2u5G3ufdJq_VnxFbSShPJgYAJusFC6_auuxbF2uObaTtjVQ3hnPJYHKOfqMAwIebnmEf78bKeX8jYSIrNPPXABbmetDovujb44H2NM9rNDby5evb2EY7tzvcY5SuLjyasSyasDEcvFSyT1UCxl_SehKAJEv0OPMZ12egsdYNTibIpBDLhYfuQMbMCB2jJjcxzqRsSBpnqc8fo0ayYEIMo0xn1CvXquyVMxmoddsrlyF3pSRL7l_lZICxlN0TzT_RSzDnklDcyg7KJlBQNBP61HBf4i7reYREVJ_czSfT3CsjvzZzSCROUNRB9Z2mHzqOx4xlv2m00]--></g></svg>