<svg xmlns="http://www.w3.org/2000/svg" xmlns:xlink="http://www.w3.org/1999/xlink" contentStyleType="text/css" height="438px" preserveAspectRatio="none" style="width:1429px;height:438px;background:#FFFFFF;" version="1.1" viewBox="0 0 1429 438" width="1429px" zoomAndPan="magnify"><defs/><g><line style="stroke:#181818;stroke-width:1.5;" x1="62" x2="62" y1="65.9609" y2="85.9609"/><rect fill="#90EE90" height="35.9609" style="stroke:#181818;stroke-width:1.5;" width="104" x="10" y="85.9609"/><text fill="#000000" font-family="sans-serif" font-size="12" lengthAdjust="spacing" textLength="84" x="20" y="108.9102">&#22806;&#37096;&#19990;&#30028;&#65288;&#20837;&#65289;</text><line style="stroke:#181818;stroke-width:1.5;" x1="384" x2="384" y1="65.9609" y2="85.9609"/><rect fill="#90EE90" height="35.9609" style="stroke:#181818;stroke-width:1.5;" width="44" x="362" y="85.9609"/><text fill="#000000" font-family="sans-serif" font-size="12" lengthAdjust="spacing" textLength="24" x="372" y="108.9102">&#35748;&#35782;</text><line style="stroke:#181818;stroke-width:1.5;" x1="374" x2="384" y1="154.9023" y2="154.9023"/><rect fill="#F1F1F1" height="35.9609" style="stroke:#181818;stroke-width:1.5;" width="104" x="270" y="136.9219"/><text fill="#000000" font-family="sans-serif" font-size="12" lengthAdjust="spacing" textLength="84" x="280" y="159.8711">&#23458;&#35266;&#19990;&#30028;&#30340;&#35748;&#35782;</text><line style="stroke:#181818;stroke-width:1.5;" x1="312" x2="322" y1="205.8633" y2="205.8633"/><rect fill="#F1F1F1" height="35.9609" style="stroke:#181818;stroke-width:1.5;" width="80" x="232" y="187.8828"/><text fill="#000000" font-family="sans-serif" font-size="12" lengthAdjust="spacing" textLength="60" x="242" y="210.832">&#20107;&#23454;&#30340;&#35748;&#35782;</text><line style="stroke:#181818;stroke-width:1.5;" x1="262" x2="272" y1="256.8242" y2="256.8242"/><rect fill="#F1F1F1" height="35.9609" style="stroke:#181818;stroke-width:1.5;" width="128" x="134" y="238.8438"/><text fill="#000000" font-family="sans-serif" font-size="12" lengthAdjust="spacing" textLength="108" x="144" y="261.793">&#23545;&#35937;&#35748;&#35782;&#65288;&#34892;&#20026;&#21069;&#65289;</text><line style="stroke:#181818;stroke-width:1.5;" x1="262" x2="272" y1="307.7852" y2="307.7852"/><rect fill="#F1F1F1" height="35.9609" style="stroke:#181818;stroke-width:1.5;" width="128" x="134" y="289.8047"/><text fill="#000000" font-family="sans-serif" font-size="12" lengthAdjust="spacing" textLength="108" x="144" y="312.7539">&#25171;&#20987;&#38169;&#35823;&#65288;&#34892;&#20026;&#20013;&#65289;</text><line style="stroke:#181818;stroke-width:1.5;" x1="262" x2="272" y1="358.7461" y2="358.7461"/><rect fill="#F1F1F1" height="35.9609" style="stroke:#181818;stroke-width:1.5;" width="128" x="134" y="340.7656"/><text fill="#000000" font-family="sans-serif" font-size="12" lengthAdjust="spacing" textLength="108" x="144" y="363.7148">&#22240;&#26524;&#20851;&#31995;&#65288;&#34892;&#20026;&#21518;&#65289;</text><line style="stroke:#181818;stroke-width:1.5;" x1="272" x2="272" y1="223.8438" y2="358.7461"/><line style="stroke:#181818;stroke-width:1.5;" x1="312" x2="322" y1="409.707" y2="409.707"/><rect fill="#F1F1F1" height="35.9609" style="stroke:#181818;stroke-width:1.5;" width="80" x="232" y="391.7266"/><text fill="#000000" font-family="sans-serif" font-size="12" lengthAdjust="spacing" textLength="60" x="242" y="414.6758">&#27861;&#24459;&#30340;&#35748;&#35782;</text><line style="stroke:#181818;stroke-width:1.5;" x1="322" x2="322" y1="172.8828" y2="409.707"/><line style="stroke:#181818;stroke-width:1.5;" x1="384" x2="394" y1="154.9023" y2="154.9023"/><rect fill="#F1F1F1" height="35.9609" style="stroke:#181818;stroke-width:1.5;" width="104" x="394" y="136.9219"/><text fill="#000000" font-family="sans-serif" font-size="12" lengthAdjust="spacing" textLength="84" x="404" y="159.8711">&#34892;&#20026;&#35745;&#21010;&#30340;&#35748;&#35782;</text><line style="stroke:#181818;stroke-width:1.5;" x1="384" x2="384" y1="121.9219" y2="154.9023"/><line style="stroke:#181818;stroke-width:1.5;" x1="540" x2="540" y1="65.9609" y2="85.9609"/><rect fill="#90EE90" height="35.9609" style="stroke:#181818;stroke-width:1.5;" width="44" x="518" y="85.9609"/><text fill="#000000" font-family="sans-serif" font-size="12" lengthAdjust="spacing" textLength="24" x="528" y="108.9102">&#24605;&#32771;</text><line style="stroke:#181818;stroke-width:1.5;" x1="540" x2="550" y1="154.9023" y2="154.9023"/><rect fill="#F1F1F1" height="35.9609" style="stroke:#181818;stroke-width:1.5;" width="68" x="550" y="136.9219"/><text fill="#000000" font-family="sans-serif" font-size="12" lengthAdjust="spacing" textLength="48" x="560" y="159.8711">&#27973;&#26174;&#24605;&#32771;</text><line style="stroke:#181818;stroke-width:1.5;" x1="584" x2="594" y1="205.8633" y2="205.8633"/><rect fill="#F1F1F1" height="35.9609" style="stroke:#181818;stroke-width:1.5;" width="44" x="594" y="187.8828"/><text fill="#000000" font-family="sans-serif" font-size="12" lengthAdjust="spacing" textLength="24" x="604" y="210.832">&#36923;&#36753;</text><line style="stroke:#181818;stroke-width:1.5;" x1="584" x2="594" y1="256.8242" y2="256.8242"/><rect fill="#F1F1F1" height="35.9609" style="stroke:#181818;stroke-width:1.5;" width="44" x="594" y="238.8438"/><text fill="#000000" font-family="sans-serif" font-size="12" lengthAdjust="spacing" textLength="24" x="604" y="261.793">&#26435;&#34913;</text><line style="stroke:#181818;stroke-width:1.5;" x1="584" x2="584" y1="172.8828" y2="256.8242"/><line style="stroke:#181818;stroke-width:1.5;" x1="540" x2="550" y1="307.7852" y2="307.7852"/><rect fill="#F1F1F1" height="35.9609" style="stroke:#181818;stroke-width:1.5;" width="68" x="550" y="289.8047"/><text fill="#000000" font-family="sans-serif" font-size="12" lengthAdjust="spacing" textLength="48" x="560" y="312.7539">&#28145;&#24230;&#21453;&#24605;</text><line style="stroke:#181818;stroke-width:1.5;" x1="584" x2="594" y1="358.7461" y2="358.7461"/><rect fill="#F1F1F1" height="35.9609" style="stroke:#181818;stroke-width:1.5;" width="44" x="594" y="340.7656"/><text fill="#000000" font-family="sans-serif" font-size="12" lengthAdjust="spacing" textLength="24" x="604" y="363.7148">&#20869;&#27714;</text><line style="stroke:#181818;stroke-width:1.5;" x1="584" x2="584" y1="325.7656" y2="358.7461"/><line style="stroke:#181818;stroke-width:1.5;" x1="540" x2="540" y1="121.9219" y2="307.7852"/><line style="stroke:#181818;stroke-width:1.5;" x1="748" x2="748" y1="65.9609" y2="85.9609"/><rect fill="#90EE90" height="35.9609" style="stroke:#181818;stroke-width:1.5;" width="44" x="726" y="85.9609"/><text fill="#000000" font-family="sans-serif" font-size="12" lengthAdjust="spacing" textLength="24" x="736" y="108.9102">&#24847;&#22270;</text><line style="stroke:#181818;stroke-width:1.5;" x1="738" x2="748" y1="154.9023" y2="154.9023"/><rect fill="#F1F1F1" height="35.9609" style="stroke:#181818;stroke-width:1.5;" width="80" x="658" y="136.9219"/><text fill="#000000" font-family="sans-serif" font-size="12" lengthAdjust="spacing" textLength="60" x="668" y="159.8711">&#30446;&#30340;&#65288;&#26524;&#65289;</text><line style="stroke:#181818;stroke-width:1.5;" x1="748" x2="758" y1="154.9023" y2="154.9023"/><rect fill="#F1F1F1" height="35.9609" style="stroke:#181818;stroke-width:1.5;" width="80" x="758" y="136.9219"/><text fill="#000000" font-family="sans-serif" font-size="12" lengthAdjust="spacing" textLength="60" x="768" y="159.8711">&#21160;&#26426;&#65288;&#22240;&#65289;</text><line style="stroke:#181818;stroke-width:1.5;" x1="748" x2="748" y1="121.9219" y2="154.9023"/><line style="stroke:#181818;stroke-width:1.5;" x1="968" x2="968" y1="65.9609" y2="85.9609"/><rect fill="#90EE90" height="35.9609" style="stroke:#181818;stroke-width:1.5;" width="44" x="946" y="85.9609"/><text fill="#000000" font-family="sans-serif" font-size="12" lengthAdjust="spacing" textLength="24" x="956" y="108.9102">&#24847;&#24535;</text><line style="stroke:#181818;stroke-width:1.5;" x1="902" x2="968" y1="154.9023" y2="154.9023"/><rect fill="#F1F1F1" height="35.9609" style="stroke:#181818;stroke-width:1.5;" width="44" x="858" y="136.9219"/><text fill="#000000" font-family="sans-serif" font-size="12" lengthAdjust="spacing" textLength="24" x="868" y="159.8711">&#26377;&#24847;</text><line style="stroke:#181818;stroke-width:1.5;" x1="880" x2="890" y1="205.8633" y2="205.8633"/><rect fill="#F1F1F1" height="35.9609" style="stroke:#181818;stroke-width:1.5;" width="68" x="890" y="187.8828"/><text fill="#000000" font-family="sans-serif" font-size="12" lengthAdjust="spacing" textLength="48" x="900" y="210.832">&#38388;&#25509;&#25925;&#24847;</text><line style="stroke:#181818;stroke-width:1.5;" x1="880" x2="890" y1="256.8242" y2="256.8242"/><rect fill="#F1F1F1" height="35.9609" style="stroke:#181818;stroke-width:1.5;" width="68" x="890" y="238.8438"/><text fill="#000000" font-family="sans-serif" font-size="12" lengthAdjust="spacing" textLength="48" x="900" y="261.793">&#30452;&#25509;&#25925;&#24847;</text><line style="stroke:#181818;stroke-width:1.5;" x1="880" x2="880" y1="172.8828" y2="256.8242"/><line style="stroke:#181818;stroke-width:1.5;" x1="968" x2="978" y1="154.9023" y2="154.9023"/><rect fill="#F1F1F1" height="35.9609" style="stroke:#181818;stroke-width:1.5;" width="44" x="978" y="136.9219"/><text fill="#000000" font-family="sans-serif" font-size="12" lengthAdjust="spacing" textLength="24" x="988" y="159.8711">&#26080;&#24847;</text><line style="stroke:#181818;stroke-width:1.5;" x1="1000" x2="1010" y1="205.8633" y2="205.8633"/><rect fill="#F1F1F1" height="35.9609" style="stroke:#181818;stroke-width:1.5;" width="44" x="1010" y="187.8828"/><text fill="#000000" font-family="sans-serif" font-size="12" lengthAdjust="spacing" textLength="24" x="1020" y="210.832">&#26080;&#36807;</text><line style="stroke:#181818;stroke-width:1.5;" x1="1000" x2="1010" y1="256.8242" y2="256.8242"/><rect fill="#F1F1F1" height="35.9609" style="stroke:#181818;stroke-width:1.5;" width="44" x="1010" y="238.8438"/><text fill="#000000" font-family="sans-serif" font-size="12" lengthAdjust="spacing" textLength="24" x="1020" y="261.793">&#24847;&#22806;</text><line style="stroke:#181818;stroke-width:1.5;" x1="1000" x2="1010" y1="307.7852" y2="307.7852"/><rect fill="#F1F1F1" height="35.9609" style="stroke:#181818;stroke-width:1.5;" width="44" x="1010" y="289.8047"/><text fill="#000000" font-family="sans-serif" font-size="12" lengthAdjust="spacing" textLength="24" x="1020" y="312.7539">&#36807;&#22833;</text><line style="stroke:#181818;stroke-width:1.5;" x1="1000" x2="1000" y1="172.8828" y2="307.7852"/><line style="stroke:#181818;stroke-width:1.5;" x1="968" x2="968" y1="121.9219" y2="154.9023"/><line style="stroke:#181818;stroke-width:1.5;" x1="1108" x2="1108" y1="65.9609" y2="85.9609"/><rect fill="#90EE90" height="35.9609" style="stroke:#181818;stroke-width:1.5;" width="68" x="1074" y="85.9609"/><text fill="#000000" font-family="sans-serif" font-size="12" lengthAdjust="spacing" textLength="48" x="1084" y="108.9102">&#25511;&#21046;&#33021;&#21147;</text><line style="stroke:#181818;stroke-width:1.5;" x1="1108" x2="1118" y1="154.9023" y2="154.9023"/><rect fill="#F1F1F1" height="35.9609" style="stroke:#181818;stroke-width:1.5;" width="68" x="1118" y="136.9219"/><text fill="#000000" font-family="sans-serif" font-size="12" lengthAdjust="spacing" textLength="48" x="1128" y="159.8711">&#23458;&#35266;&#26465;&#20214;</text><line style="stroke:#181818;stroke-width:1.5;" x1="1108" x2="1118" y1="205.8633" y2="205.8633"/><rect fill="#F1F1F1" height="35.9609" style="stroke:#181818;stroke-width:1.5;" width="68" x="1118" y="187.8828"/><text fill="#000000" font-family="sans-serif" font-size="12" lengthAdjust="spacing" textLength="48" x="1128" y="210.832">&#33258;&#36523;&#33021;&#21147;</text><line style="stroke:#181818;stroke-width:1.5;" x1="1108" x2="1108" y1="121.9219" y2="205.8633"/><line style="stroke:#181818;stroke-width:1.5;" x1="1228" x2="1228" y1="65.9609" y2="85.9609"/><rect fill="#90EE90" height="35.9609" style="stroke:#181818;stroke-width:1.5;" width="44" x="1206" y="85.9609"/><text fill="#000000" font-family="sans-serif" font-size="12" lengthAdjust="spacing" textLength="24" x="1216" y="108.9102">&#34892;&#20026;</text><line style="stroke:#181818;stroke-width:1.5;" x1="1228" x2="1238" y1="154.9023" y2="154.9023"/><rect fill="#F1F1F1" height="35.9609" style="stroke:#181818;stroke-width:1.5;" width="56" x="1238" y="136.9219"/><text fill="#000000" font-family="sans-serif" font-size="12" lengthAdjust="spacing" textLength="36" x="1248" y="159.8711">&#19981;&#20316;&#20026;</text><line style="stroke:#181818;stroke-width:1.5;" x1="1228" x2="1238" y1="205.8633" y2="205.8633"/><rect fill="#F1F1F1" height="35.9609" style="stroke:#181818;stroke-width:1.5;" width="44" x="1238" y="187.8828"/><text fill="#000000" font-family="sans-serif" font-size="12" lengthAdjust="spacing" textLength="24" x="1248" y="210.832">&#20316;&#20026;</text><line style="stroke:#181818;stroke-width:1.5;" x1="1228" x2="1228" y1="121.9219" y2="205.8633"/><line style="stroke:#181818;stroke-width:1.5;" x1="1366" x2="1366" y1="65.9609" y2="85.9609"/><rect fill="#90EE90" height="35.9609" style="stroke:#181818;stroke-width:1.5;" width="104" x="1314" y="85.9609"/><text fill="#000000" font-family="sans-serif" font-size="12" lengthAdjust="spacing" textLength="84" x="1324" y="108.9102">&#22806;&#37096;&#19990;&#30028;&#65288;&#20986;&#65289;</text><line style="stroke:#181818;stroke-width:1.5;" x1="62" x2="1366" y1="65.9609" y2="65.9609"/><rect fill="#F1F1F1" height="35.9609" style="stroke:#181818;stroke-width:1.5;" width="32" x="698" y="10"/><text fill="#000000" font-family="sans-serif" font-size="12" lengthAdjust="spacing" textLength="12" x="708" y="32.9492">&#20154;</text><line style="stroke:#181818;stroke-width:1.5;" x1="714" x2="714" y1="45.9609" y2="65.9609"/><line style="stroke:#181818;stroke-width:1.0;" x1="518" x2="479.1659" y1="115.8684" y2="136.9219"/><polygon fill="#181818" points="479.1659,136.9219,488.9844,136.1489,483.5615,134.5389,485.1715,129.116,479.1659,136.9219" style="stroke:#181818;stroke-width:1.0;"/><line style="stroke:#181818;stroke-width:1.0;" x1="658" x2="562" y1="142.0008" y2="111.0372"/><polygon fill="#181818" points="562,111.0372,569.3376,117.6068,566.7586,112.5721,571.7933,109.993,562,111.0372" style="stroke:#181818;stroke-width:1.0;"/><line style="stroke:#181818;stroke-width:1.0;" x1="838" x2="858" y1="154.9023" y2="154.9023"/><polygon fill="#181818" points="858,154.9023,849,150.9023,853,154.9023,849,158.9023,858,154.9023" style="stroke:#181818;stroke-width:1.0;"/><!--SRC=[xLTRJnj757xVNp7bAK6o2L5KKcHP92QHIkCsAYJluzs9FM5tnvgTDRAgIYZ40P90UWFQ6Y9SaIPgLID4crAJa3_ZNIzF-Gizi-CBnXUSgezObZLppZVVDsVEcRFh2KTWBkPIZgPzH6tTT0s2ej4H-3eYRvAHh8bjuLfc122Hq1IbCDKqRHXLAnLjU1XvE-l72w-g1-krjQVltonvXHVltooZM8nOsGnsg1EFIrHGtWbs7vqs3yUGL_ubUFb0BQ_z_53Xf0jyrSeJh_oytIgNxFuJx9MK3HI3qjFgGSLRNW7T1iHV_jvRF3p-uQTWTxS9gHxySGBY5RVzvvjUOR-sVzXY-MQr0G6I_JNlw4cRV1mDAM1GBdbBtpLzGmWxI1wMZ7N8dzyAvXVQWWq18aFjMMgd9HFo_ohuFnufQ2Y8ZkSFWwDlrTZVMWXA9GNyUy-h_EezMm6iSdgF2lxU0odbFtpc5O-w7EjGhLY6tK5W42I45EfZQjM3y1w_yZShCbt5xORNOeBciA3CRZ2_s-XWHlx6DhZgczpO3jujriU0trbNOp1wEtlrZVYRo-0B5QWjY5qNaF5k_Eclll3N2at2Mh7DWlpLbzxIws3XhVUusBaLLJh-Lgbw-3eq18k_1PNV5JmikZ1LdGkh1olLjvlWKhF6iAEK5oiTfQmrSeWYaRZAE9ngE6bcjtMGeRqLjJP1R2EyR1EjUnSBhrLSWyaanMcEBVIL5gMspNHO1cC4d-jOdqrpvjf6WfcC8yTcSw7Z9hE5CgLCm2WmumRXoWfyUUrhJHBMTu7D1ASMwK4ic8K5ww0nC9_bnEZAb61MrYIY5sDZwMbAjTzkXDU4W1Fl5JhZs4wJWOANqdLuLvqKuxrKJ9hE21qMc_-7qcrEifYhakYkboUcEMXAcQaIOPCqR1E4-YKq32HbkWEU625PPpOVuZibRa3LfapgP8ZHAzadrhVhpMMe85sAeAlGvqoShQLIb8SRE4XaEZQ8QCfXNQT6x-iLKgSv8ODntsESE7MyP8UvJfBuFd5vtxJ8J1ARC-C3in-k2PMopA7GRCWrlKzjPR591W-c5GRa19z9Rb7eNvmvWz_8HXzntDHzeak1NcU4Sz0l2H-OEKSPDAAGd9t5BS__0uxznELkF0tEhfrJhQ1_ossx1Vrx7q0r-8cDr1yTvszZvszZvszZ__rjxBRybtCdUGlb27SaS3Hw-TBbAz6n2zDOe6cIHPV6qEWduwDNnqV7K69w1adtHUr2yjCPv30NkZqoe0zocd8bzKLj2kSm-j858OkCeo-on9wQ_AnXG3Vi7ENCjc0ZsjJTP0lmyPN8TIeLEUm4tKrga-GUTaq1AtHcG3JZwCxCpSXLxHRq0HUdWHlQJ08QXE1vy4t_2m00]--></g></svg>