<svg xmlns="http://www.w3.org/2000/svg" xmlns:xlink="http://www.w3.org/1999/xlink" contentStyleType="text/css" height="1503px" preserveAspectRatio="none" style="width:1205px;height:1503px;background:#FFFFFF;" version="1.1" viewBox="0 0 1205 1503" width="1205px" zoomAndPan="magnify"><defs/><g><rect fill="#F1F1F1" height="37.6094" rx="12.5" ry="12.5" style="stroke:#181818;stroke-width:1.5;" width="136.6621" x="10" y="731.875"/><text fill="#000000" font-family="sans-serif" font-size="14" lengthAdjust="spacing" textLength="116.6621" x="20" y="756.4082">&#20849;&#21516;&#29359;&#32618;-&#21442;&#19982;&#26102;&#38388;</text><rect fill="#F1F1F1" height="37.6094" rx="12.5" ry="12.5" style="stroke:#181818;stroke-width:1.5;" width="48" x="196.6621" y="221.6328"/><text fill="#000000" font-family="sans-serif" font-size="14" lengthAdjust="spacing" textLength="28" x="206.6621" y="246.166">&#21442;&#21152;</text><rect fill="#F1F1F1" height="37.6094" rx="12.5" ry="12.5" style="stroke:#181818;stroke-width:1.5;" width="48" x="294.6621" y="20"/><text fill="#000000" font-family="sans-serif" font-size="14" lengthAdjust="spacing" textLength="28" x="304.6621" y="44.5332">&#24773;&#26223;</text><rect fill="#F1F1F1" height="37.6094" rx="12.5" ry="12.5" style="stroke:#181818;stroke-width:1.5;" width="230" x="392.6621" y="20"/><text fill="#000000" font-family="sans-serif" font-size="14" lengthAdjust="spacing" textLength="210" x="402.6621" y="44.5332">&#21069;&#21322;&#31243;&#65292;&#21482;&#26377;&#30002;&#65307;&#21518;&#21322;&#31243;&#65292;&#20057;&#21152;&#20837;</text><path d="M342.6621,38.8047 L352.6621,38.8047 C367.6621,38.8047 367.6621,38.8047 382.6621,38.8047 L392.6621,38.8047 " fill="none" style="stroke:#181818;stroke-width:1;"/><path d="M244.6621,240.4375 L254.6621,240.4375 C269.6621,240.4375 269.6621,38.8047 284.6621,38.8047 L294.6621,38.8047 " fill="none" style="stroke:#181818;stroke-width:1;"/><rect fill="#F1F1F1" height="37.6094" rx="12.5" ry="12.5" style="stroke:#181818;stroke-width:1.5;" width="48" x="294.6621" y="250.4375"/><text fill="#000000" font-family="sans-serif" font-size="14" lengthAdjust="spacing" textLength="28" x="304.6621" y="274.9707">&#26102;&#38388;</text><rect fill="#F1F1F1" height="37.6094" rx="12.5" ry="12.5" style="stroke:#181818;stroke-width:1.5;" width="76" x="392.6621" y="77.6094"/><text fill="#000000" font-family="sans-serif" font-size="14" lengthAdjust="spacing" textLength="56" x="402.6621" y="102.1426">&#20107;&#21069;&#21442;&#21152;</text><rect fill="#F1F1F1" height="37.6094" rx="12.5" ry="12.5" style="stroke:#181818;stroke-width:1.5;" width="48" x="518.6621" y="77.6094"/><text fill="#000000" font-family="sans-serif" font-size="14" lengthAdjust="spacing" textLength="28" x="528.6621" y="102.1426">&#20840;&#31243;</text><rect fill="#F1F1F1" height="37.6094" rx="12.5" ry="12.5" style="stroke:#181818;stroke-width:1.5;" width="146" x="616.6621" y="77.6094"/><text fill="#000000" font-family="sans-serif" font-size="14" lengthAdjust="spacing" textLength="126" x="626.6621" y="102.1426">&#37096;&#20998;&#23454;&#34892;&#65292;&#20840;&#37096;&#36127;&#36131;</text><path d="M566.6621,96.4141 L576.6621,96.4141 C591.6621,96.4141 591.6621,96.4141 606.6621,96.4141 L616.6621,96.4141 " fill="none" style="stroke:#181818;stroke-width:1;"/><path d="M468.6621,96.4141 L478.6621,96.4141 C493.6621,96.4141 493.6621,96.4141 508.6621,96.4141 L518.6621,96.4141 " fill="none" style="stroke:#181818;stroke-width:1;"/><path d="M342.6621,269.2422 L352.6621,269.2422 C367.6621,269.2422 367.6621,96.4141 382.6621,96.4141 L392.6621,96.4141 " fill="none" style="stroke:#181818;stroke-width:1;"/><rect fill="#F1F1F1" height="37.6094" rx="12.5" ry="12.5" style="stroke:#181818;stroke-width:1.5;" width="76" x="392.6621" y="164.0234"/><text fill="#000000" font-family="sans-serif" font-size="14" lengthAdjust="spacing" textLength="56" x="402.6621" y="188.5566">&#20013;&#36884;&#21442;&#21152;</text><rect fill="#F1F1F1" height="37.6094" rx="12.5" ry="12.5" style="stroke:#181818;stroke-width:1.5;" width="62" x="518.6621" y="135.2188"/><text fill="#000000" font-family="sans-serif" font-size="14" lengthAdjust="spacing" textLength="42" x="528.6621" y="159.752">&#21069;&#21322;&#31243;</text><rect fill="#F1F1F1" height="37.6094" rx="12.5" ry="12.5" style="stroke:#181818;stroke-width:1.5;" width="62" x="630.6621" y="135.2188"/><text fill="#000000" font-family="sans-serif" font-size="14" lengthAdjust="spacing" textLength="42" x="640.6621" y="159.752">&#30002;&#36127;&#36131;</text><path d="M580.6621,154.0234 L590.6621,154.0234 C605.6621,154.0234 605.6621,154.0234 620.6621,154.0234 L630.6621,154.0234 " fill="none" style="stroke:#181818;stroke-width:1;"/><path d="M468.6621,182.8281 L478.6621,182.8281 C493.6621,182.8281 493.6621,154.0234 508.6621,154.0234 L518.6621,154.0234 " fill="none" style="stroke:#181818;stroke-width:1;"/><rect fill="#F1F1F1" height="37.6094" rx="12.5" ry="12.5" style="stroke:#181818;stroke-width:1.5;" width="62" x="518.6621" y="192.8281"/><text fill="#000000" font-family="sans-serif" font-size="14" lengthAdjust="spacing" textLength="42" x="528.6621" y="217.3613">&#21518;&#21322;&#31243;</text><rect fill="#F1F1F1" height="37.6094" rx="12.5" ry="12.5" style="stroke:#181818;stroke-width:1.5;" width="118" x="630.6621" y="192.8281"/><text fill="#000000" font-family="sans-serif" font-size="14" lengthAdjust="spacing" textLength="98" x="640.6621" y="217.3613">&#30002;&#21644;&#20057;&#20849;&#21516;&#36127;&#36131;</text><path d="M580.6621,211.6328 L590.6621,211.6328 C605.6621,211.6328 605.6621,211.6328 620.6621,211.6328 L630.6621,211.6328 " fill="none" style="stroke:#181818;stroke-width:1;"/><path d="M468.6621,182.8281 L478.6621,182.8281 C493.6621,182.8281 493.6621,211.6328 508.6621,211.6328 L518.6621,211.6328 " fill="none" style="stroke:#181818;stroke-width:1;"/><path d="M342.6621,269.2422 L352.6621,269.2422 C367.6621,269.2422 367.6621,182.8281 382.6621,182.8281 L392.6621,182.8281 " fill="none" style="stroke:#181818;stroke-width:1;"/><rect fill="#F1F1F1" height="37.6094" rx="12.5" ry="12.5" style="stroke:#181818;stroke-width:1.5;" width="76" x="392.6621" y="336.8516"/><text fill="#000000" font-family="sans-serif" font-size="14" lengthAdjust="spacing" textLength="56" x="402.6621" y="361.3848">&#20107;&#21518;&#21442;&#21152;</text><rect fill="#F1F1F1" height="37.6094" rx="12.5" ry="12.5" style="stroke:#181818;stroke-width:1.5;" width="132" x="518.6621" y="250.4375"/><text fill="#000000" font-family="sans-serif" font-size="14" lengthAdjust="spacing" textLength="112" x="528.6621" y="274.9707">&#25972;&#20010;&#36807;&#31243;&#24050;&#32463;&#32467;&#26463;</text><path d="M468.6621,355.6563 L478.6621,355.6563 C493.6621,355.6563 493.6621,269.2422 508.6621,269.2422 L518.6621,269.2422 " fill="none" style="stroke:#181818;stroke-width:1;"/><rect fill="#F1F1F1" height="37.6094" rx="12.5" ry="12.5" style="stroke:#181818;stroke-width:1.5;" width="76" x="518.6621" y="365.6563"/><text fill="#000000" font-family="sans-serif" font-size="14" lengthAdjust="spacing" textLength="56" x="528.6621" y="390.1895">&#24110;&#21161;&#23545;&#35937;</text><rect fill="#F1F1F1" height="37.6094" rx="12.5" ry="12.5" style="stroke:#181818;stroke-width:1.5;" width="48" x="644.6621" y="308.0469"/><text fill="#000000" font-family="sans-serif" font-size="14" lengthAdjust="spacing" textLength="28" x="654.6621" y="332.5801">&#35777;&#25454;</text><rect fill="#F1F1F1" height="37.6094" rx="12.5" ry="12.5" style="stroke:#181818;stroke-width:1.5;" width="160" x="742.6621" y="308.0469"/><text fill="#000000" font-family="sans-serif" font-size="14" lengthAdjust="spacing" textLength="140" x="752.6621" y="332.5801">&#24110;&#21161;&#27585;&#28781;&#12289;&#20266;&#36896;&#35777;&#25454;&#32618;</text><path d="M692.6621,326.8516 L702.6621,326.8516 C717.6621,326.8516 717.6621,326.8516 732.6621,326.8516 L742.6621,326.8516 " fill="none" style="stroke:#181818;stroke-width:1;"/><path d="M594.6621,384.4609 L604.6621,384.4609 C619.6621,384.4609 619.6621,326.8516 634.6621,326.8516 L644.6621,326.8516 " fill="none" style="stroke:#181818;stroke-width:1;"/><rect fill="#F1F1F1" height="37.6094" rx="12.5" ry="12.5" style="stroke:#181818;stroke-width:1.5;" width="48" x="644.6621" y="365.6563"/><text fill="#000000" font-family="sans-serif" font-size="14" lengthAdjust="spacing" textLength="28" x="654.6621" y="390.1895">&#36163;&#29289;</text><rect fill="#F1F1F1" height="37.6094" rx="12.5" ry="12.5" style="stroke:#181818;stroke-width:1.5;" width="146" x="742.6621" y="365.6563"/><text fill="#000000" font-family="sans-serif" font-size="14" lengthAdjust="spacing" textLength="126" x="752.6621" y="390.1895">&#25513;&#39280;&#12289;&#38544;&#30610;&#29359;&#32618;&#25152;&#24471;</text><path d="M692.6621,384.4609 L702.6621,384.4609 C717.6621,384.4609 717.6621,384.4609 732.6621,384.4609 L742.6621,384.4609 " fill="none" style="stroke:#181818;stroke-width:1;"/><path d="M594.6621,384.4609 L604.6621,384.4609 C619.6621,384.4609 619.6621,384.4609 634.6621,384.4609 L644.6621,384.4609 " fill="none" style="stroke:#181818;stroke-width:1;"/><rect fill="#F1F1F1" height="37.6094" rx="12.5" ry="12.5" style="stroke:#181818;stroke-width:1.5;" width="62" x="644.6621" y="423.2656"/><text fill="#000000" font-family="sans-serif" font-size="14" lengthAdjust="spacing" textLength="42" x="654.6621" y="447.7988">&#29359;&#32618;&#20154;</text><rect fill="#F1F1F1" height="37.6094" rx="12.5" ry="12.5" style="stroke:#181818;stroke-width:1.5;" width="104" x="756.6621" y="423.2656"/><text fill="#000000" font-family="sans-serif" font-size="14" lengthAdjust="spacing" textLength="84" x="766.6621" y="447.7988">&#31389;&#34255;&#12289;&#21253;&#24199;&#32618;</text><path d="M706.6621,442.0703 L716.6621,442.0703 C731.6621,442.0703 731.6621,442.0703 746.6621,442.0703 L756.6621,442.0703 " fill="none" style="stroke:#181818;stroke-width:1;"/><path d="M594.6621,384.4609 L604.6621,384.4609 C619.6621,384.4609 619.6621,442.0703 634.6621,442.0703 L644.6621,442.0703 " fill="none" style="stroke:#181818;stroke-width:1;"/><path d="M468.6621,355.6563 L478.6621,355.6563 C493.6621,355.6563 493.6621,384.4609 508.6621,384.4609 L518.6621,384.4609 " fill="none" style="stroke:#181818;stroke-width:1;"/><path d="M342.6621,269.2422 L352.6621,269.2422 C367.6621,269.2422 367.6621,355.6563 382.6621,355.6563 L392.6621,355.6563 " fill="none" style="stroke:#181818;stroke-width:1;"/><path d="M244.6621,240.4375 L254.6621,240.4375 C269.6621,240.4375 269.6621,269.2422 284.6621,269.2422 L294.6621,269.2422 " fill="none" style="stroke:#181818;stroke-width:1;"/><path d="M146.6621,750.6797 L156.6621,750.6797 C171.6621,750.6797 171.6621,240.4375 186.6621,240.4375 L196.6621,240.4375 " fill="none" style="stroke:#181818;stroke-width:1;"/><rect fill="#F1F1F1" height="37.6094" rx="12.5" ry="12.5" style="stroke:#181818;stroke-width:1.5;" width="76" x="196.6621" y="962.3125"/><text fill="#000000" font-family="sans-serif" font-size="14" lengthAdjust="spacing" textLength="56" x="206.6621" y="986.8457">&#20013;&#36884;&#36864;&#20986;</text><rect fill="#F1F1F1" height="37.6094" rx="12.5" ry="12.5" style="stroke:#181818;stroke-width:1.5;" width="48" x="322.6621" y="538.4844"/><text fill="#000000" font-family="sans-serif" font-size="14" lengthAdjust="spacing" textLength="28" x="332.6621" y="563.0176">&#24635;&#35272;</text><rect fill="#F1F1F1" height="37.6094" rx="12.5" ry="12.5" style="stroke:#181818;stroke-width:1.5;" width="76" x="420.6621" y="480.875"/><text fill="#000000" font-family="sans-serif" font-size="14" lengthAdjust="spacing" textLength="56" x="430.6621" y="505.4082">&#26368;&#22909;&#32467;&#26524;</text><rect fill="#F1F1F1" height="37.6094" rx="12.5" ry="12.5" style="stroke:#181818;stroke-width:1.5;" width="76" x="546.6621" y="480.875"/><text fill="#000000" font-family="sans-serif" font-size="14" lengthAdjust="spacing" textLength="56" x="556.6621" y="505.4082">&#29359;&#32618;&#20013;&#27490;</text><path d="M496.6621,499.6797 L506.6621,499.6797 C521.6621,499.6797 521.6621,499.6797 536.6621,499.6797 L546.6621,499.6797 " fill="none" style="stroke:#181818;stroke-width:1;"/><path d="M370.6621,557.2891 L380.6621,557.2891 C395.6621,557.2891 395.6621,499.6797 410.6621,499.6797 L420.6621,499.6797 " fill="none" style="stroke:#181818;stroke-width:1;"/><rect fill="#F1F1F1" height="37.6094" rx="12.5" ry="12.5" style="stroke:#181818;stroke-width:1.5;" width="62" x="420.6621" y="567.2891"/><text fill="#000000" font-family="sans-serif" font-size="14" lengthAdjust="spacing" textLength="42" x="430.6621" y="591.8223">&#22914;&#20309;&#20570;</text><rect fill="#F1F1F1" height="37.6094" rx="12.5" ry="12.5" style="stroke:#181818;stroke-width:1.5;" width="118" x="532.6621" y="567.2891"/><text fill="#000000" font-family="sans-serif" font-size="14" lengthAdjust="spacing" textLength="98" x="542.6621" y="591.8223">&#28040;&#38500;&#33258;&#24049;&#30340;&#36129;&#29486;</text><rect fill="#F1F1F1" height="37.6094" rx="12.5" ry="12.5" style="stroke:#181818;stroke-width:1.5;" width="118" x="700.6621" y="538.4844"/><text fill="#000000" font-family="sans-serif" font-size="14" lengthAdjust="spacing" textLength="98" x="710.6621" y="563.0176">&#28040;&#38500;&#24515;&#29702;&#24615;&#36129;&#29486;</text><path d="M650.6621,586.0938 L660.6621,586.0938 C675.6621,586.0938 675.6621,557.2891 690.6621,557.2891 L700.6621,557.2891 " fill="none" style="stroke:#181818;stroke-width:1;"/><rect fill="#F1F1F1" height="37.6094" rx="12.5" ry="12.5" style="stroke:#181818;stroke-width:1.5;" width="118" x="700.6621" y="596.0938"/><text fill="#000000" font-family="sans-serif" font-size="14" lengthAdjust="spacing" textLength="98" x="710.6621" y="620.627">&#28040;&#38500;&#29289;&#29702;&#24615;&#36129;&#29486;</text><path d="M650.6621,586.0938 L660.6621,586.0938 C675.6621,586.0938 675.6621,614.8984 690.6621,614.8984 L700.6621,614.8984 " fill="none" style="stroke:#181818;stroke-width:1;"/><path d="M482.6621,586.0938 L492.6621,586.0938 C507.6621,586.0938 507.6621,586.0938 522.6621,586.0938 L532.6621,586.0938 " fill="none" style="stroke:#181818;stroke-width:1;"/><path d="M370.6621,557.2891 L380.6621,557.2891 C395.6621,557.2891 395.6621,586.0938 410.6621,586.0938 L420.6621,586.0938 " fill="none" style="stroke:#181818;stroke-width:1;"/><path d="M272.6621,981.1172 L282.6621,981.1172 C297.6621,981.1172 297.6621,557.2891 312.6621,557.2891 L322.6621,557.2891 " fill="none" style="stroke:#181818;stroke-width:1;"/><rect fill="#F1F1F1" height="37.6094" rx="12.5" ry="12.5" style="stroke:#181818;stroke-width:1.5;" width="62" x="322.6621" y="771.4922"/><text fill="#000000" font-family="sans-serif" font-size="14" lengthAdjust="spacing" textLength="42" x="332.6621" y="796.0254">&#25945;&#21766;&#29359;</text><rect fill="#F1F1F1" height="37.6094" rx="12.5" ry="12.5" style="stroke:#181818;stroke-width:1.5;" width="48" x="434.6621" y="742.6875"/><text fill="#000000" font-family="sans-serif" font-size="14" lengthAdjust="spacing" textLength="28" x="444.6621" y="767.2207">&#21407;&#21017;</text><rect fill="#F1F1F1" height="42.75" rx="12.5" ry="12.5" style="stroke:#181818;stroke-width:1.5;" width="128.8896" x="532.6621" y="708.7422"/><text fill="#000000" font-family="sans-serif" font-size="14" lengthAdjust="spacing" textLength="84" x="542.6621" y="738.416">&#28040;&#38500;&#24515;&#29702;&#36129;&#29486;</text><path d="M650.6528,719.5443 C649.8414,719.0181 648.7582,719.2491 648.2326,720.0599 L638.4268,735.1747 L633.6446,730.753 C632.9347,730.0968 631.8281,730.1399 631.1718,730.8499 C630.5156,731.5592 630.5588,732.6669 631.2687,733.3226 L637.5477,739.1279 C637.7279,739.2831 637.7279,739.2831 637.8113,739.3374 C638.1053,739.5287 638.4355,739.6197 638.7622,739.6197 C639.335,739.6197 639.8968,739.3385 640.2322,738.8217 L651.1685,721.9645 C651.6947,721.1537 651.4637,720.0699 650.6528,719.5443 " fill="#FE0000" style="stroke:;stroke-width:0;stroke-dasharray:;"/><rect fill="#F1F1F1" height="37.6094" rx="12.5" ry="12.5" style="stroke:#181818;stroke-width:1.5;" width="76" x="711.5518" y="711.3125"/><text fill="#000000" font-family="sans-serif" font-size="14" lengthAdjust="spacing" textLength="56" x="721.5518" y="735.8457">&#25171;&#28040;&#29359;&#24847;</text><rect fill="#F1F1F1" height="37.6094" rx="12.5" ry="12.5" style="stroke:#181818;stroke-width:1.5;" width="48" x="837.5518" y="653.7031"/><text fill="#000000" font-family="sans-serif" font-size="14" lengthAdjust="spacing" textLength="28" x="847.5518" y="678.2363">&#25253;&#35686;</text><path d="M787.5518,730.1172 L797.5518,730.1172 C812.5518,730.1172 812.5518,672.5078 827.5518,672.5078 L837.5518,672.5078 " fill="none" style="stroke:#181818;stroke-width:1;"/><rect fill="#F1F1F1" height="37.6094" rx="12.5" ry="12.5" style="stroke:#181818;stroke-width:1.5;" width="104" x="837.5518" y="711.3125"/><text fill="#000000" font-family="sans-serif" font-size="14" lengthAdjust="spacing" textLength="84" x="847.5518" y="735.8457">&#20146;&#33258;&#25318;&#25130;&#26432;&#25163;</text><path d="M787.5518,730.1172 L797.5518,730.1172 C812.5518,730.1172 812.5518,730.1172 827.5518,730.1172 L837.5518,730.1172 " fill="none" style="stroke:#181818;stroke-width:1;"/><rect fill="#F1F1F1" height="37.6094" rx="12.5" ry="12.5" style="stroke:#181818;stroke-width:1.5;" width="118" x="837.5518" y="768.9219"/><text fill="#000000" font-family="sans-serif" font-size="14" lengthAdjust="spacing" textLength="98" x="847.5518" y="793.4551">&#32473;&#34987;&#23475;&#20154;&#25171;&#30005;&#35805;</text><path d="M787.5518,730.1172 L797.5518,730.1172 C812.5518,730.1172 812.5518,787.7266 827.5518,787.7266 L837.5518,787.7266 " fill="none" style="stroke:#181818;stroke-width:1;"/><path d="M661.5518,730.1172 L671.5518,730.1172 C686.5518,730.1172 686.5518,730.1172 701.5518,730.1172 L711.5518,730.1172 " fill="none" style="stroke:#181818;stroke-width:1;"/><path d="M482.6621,761.4922 L492.6621,761.4922 C507.6621,761.4922 507.6621,730.1172 522.6621,730.1172 L532.6621,730.1172 " fill="none" style="stroke:#181818;stroke-width:1;"/><rect fill="#F1F1F1" height="42.75" rx="12.5" ry="12.5" style="stroke:#181818;stroke-width:1.5;" width="142.8896" x="532.6621" y="826.5313"/><text fill="#000000" font-family="sans-serif" font-size="14" lengthAdjust="spacing" textLength="98" x="542.6621" y="856.2051">&#28040;&#38500;&#29289;&#29702;&#24615;&#36129;&#29486;</text><path d="M657.5239,847.0336 L663.289,841.2685 C663.9727,840.5854 663.9727,839.4771 663.289,838.7934 C662.6053,838.1103 661.4982,838.1103 660.8145,838.7934 L655.0494,844.5585 L649.2843,838.794 C648.6013,838.1103 647.4929,838.1103 646.8093,838.794 C646.1262,839.4771 646.1262,840.5854 646.8093,841.2691 L652.5743,847.0336 L646.7953,852.8127 C646.1122,853.4958 646.1122,854.6041 646.7953,855.2872 C647.1365,855.629 647.5851,855.7999 648.0325,855.7999 C648.4799,855.7999 648.9285,855.629 649.2703,855.2872 L655.0488,849.5087 L660.8133,855.2732 C661.1552,855.615 661.6032,855.7859 662.0506,855.7859 C662.498,855.7859 662.946,855.615 663.2878,855.2732 C663.9715,854.5901 663.9715,853.4818 663.2878,852.7987 L657.5239,847.0336 " fill="#FE0000" style="stroke:;stroke-width:0;stroke-dasharray:;"/><path d="M482.6621,761.4922 L492.6621,761.4922 C507.6621,761.4922 507.6621,847.9063 522.6621,847.9063 L532.6621,847.9063 " fill="none" style="stroke:#181818;stroke-width:1;"/><path d="M384.6621,790.2969 L394.6621,790.2969 C409.6621,790.2969 409.6621,761.4922 424.6621,761.4922 L434.6621,761.4922 " fill="none" style="stroke:#181818;stroke-width:1;"/><rect fill="#F1F1F1" height="37.6094" rx="12.5" ry="12.5" style="stroke:#181818;stroke-width:1.5;" width="48" x="434.6621" y="889.2813"/><text fill="#000000" font-family="sans-serif" font-size="14" lengthAdjust="spacing" textLength="28" x="444.6621" y="913.8145">&#31034;&#20363;</text><rect fill="#F1F1F1" height="37.6094" rx="12.5" ry="12.5" style="stroke:#181818;stroke-width:1.5;" width="412" x="532.6621" y="889.2813"/><text fill="#000000" font-family="sans-serif" font-size="14" lengthAdjust="spacing" textLength="392" x="542.6621" y="913.8145">&#22914;&#26524;&#27809;&#26377;&#25171;&#28040;&#12302;&#23454;&#34892;&#20154;&#12303;&#30340;&#12302;&#29359;&#24847;&#12303;&#65292;&#21017;&#19981;&#26500;&#25104;&#12302;&#29359;&#32618;&#20013;&#27490;&#12303;&#12290;</text><path d="M482.6621,908.0859 L492.6621,908.0859 C507.6621,908.0859 507.6621,908.0859 522.6621,908.0859 L532.6621,908.0859 " fill="none" style="stroke:#181818;stroke-width:1;"/><path d="M384.6621,790.2969 L394.6621,790.2969 C409.6621,790.2969 409.6621,908.0859 424.6621,908.0859 L434.6621,908.0859 " fill="none" style="stroke:#181818;stroke-width:1;"/><path d="M272.6621,981.1172 L282.6621,981.1172 C297.6621,981.1172 297.6621,790.2969 312.6621,790.2969 L322.6621,790.2969 " fill="none" style="stroke:#181818;stroke-width:1;"/><rect fill="#F1F1F1" height="37.6094" rx="12.5" ry="12.5" style="stroke:#181818;stroke-width:1.5;" width="62" x="322.6621" y="1069.8203"/><text fill="#000000" font-family="sans-serif" font-size="14" lengthAdjust="spacing" textLength="42" x="332.6621" y="1094.3535">&#24110;&#21161;&#29359;</text><rect fill="#F1F1F1" height="37.6094" rx="12.5" ry="12.5" style="stroke:#181818;stroke-width:1.5;" width="48" x="434.6621" y="980.8359"/><text fill="#000000" font-family="sans-serif" font-size="14" lengthAdjust="spacing" textLength="28" x="444.6621" y="1005.3691">&#21407;&#21017;</text><rect fill="#F1F1F1" height="42.75" rx="12.5" ry="12.5" style="stroke:#181818;stroke-width:1.5;" width="128.8896" x="532.6621" y="946.8906"/><text fill="#000000" font-family="sans-serif" font-size="14" lengthAdjust="spacing" textLength="84" x="542.6621" y="976.5645">&#28040;&#38500;&#24515;&#29702;&#36129;&#29486;</text><path d="M650.6528,957.6927 C649.8414,957.1665 648.7582,957.3975 648.2326,958.2084 L638.4268,973.3231 L633.6446,968.9015 C632.9347,968.2452 631.8281,968.2884 631.1718,968.9983 C630.5156,969.7076 630.5588,970.8154 631.2687,971.471 L637.5477,977.2764 C637.7279,977.4315 637.7279,977.4315 637.8113,977.4858 C638.1053,977.6771 638.4355,977.7681 638.7622,977.7681 C639.335,977.7681 639.8968,977.487 640.2322,976.9701 L651.1685,960.113 C651.6947,959.3021 651.4637,958.2183 650.6528,957.6927 " fill="#FE0000" style="stroke:;stroke-width:0;stroke-dasharray:;"/><path d="M482.6621,999.6406 L492.6621,999.6406 C507.6621,999.6406 507.6621,968.2656 522.6621,968.2656 L532.6621,968.2656 " fill="none" style="stroke:#181818;stroke-width:1;"/><rect fill="#F1F1F1" height="42.75" rx="12.5" ry="12.5" style="stroke:#181818;stroke-width:1.5;" width="128.8896" x="532.6621" y="1009.6406"/><text fill="#000000" font-family="sans-serif" font-size="14" lengthAdjust="spacing" textLength="84" x="542.6621" y="1039.3145">&#28040;&#38500;&#29289;&#29702;&#36129;&#29486;</text><path d="M650.6528,1020.4427 C649.8414,1019.9165 648.7582,1020.1475 648.2326,1020.9584 L638.4268,1036.0731 L633.6446,1031.6515 C632.9347,1030.9952 631.8281,1031.0384 631.1718,1031.7483 C630.5156,1032.4576 630.5588,1033.5654 631.2687,1034.221 L637.5477,1040.0264 C637.7279,1040.1815 637.7279,1040.1815 637.8113,1040.2358 C638.1053,1040.4271 638.4355,1040.5181 638.7622,1040.5181 C639.335,1040.5181 639.8968,1040.237 640.2322,1039.7201 L651.1685,1022.863 C651.6947,1022.0521 651.4637,1020.9683 650.6528,1020.4427 " fill="#FE0000" style="stroke:;stroke-width:0;stroke-dasharray:;"/><path d="M482.6621,999.6406 L492.6621,999.6406 C507.6621,999.6406 507.6621,1031.0156 522.6621,1031.0156 L532.6621,1031.0156 " fill="none" style="stroke:#181818;stroke-width:1;"/><path d="M384.6621,1088.625 L394.6621,1088.625 C409.6621,1088.625 409.6621,999.6406 424.6621,999.6406 L434.6621,999.6406 " fill="none" style="stroke:#181818;stroke-width:1;"/><rect fill="#F1F1F1" height="37.6094" rx="12.5" ry="12.5" style="stroke:#181818;stroke-width:1.5;" width="48" x="434.6621" y="1132.5703"/><text fill="#000000" font-family="sans-serif" font-size="14" lengthAdjust="spacing" textLength="28" x="444.6621" y="1157.1035">&#31034;&#20363;</text><rect fill="#F1F1F1" height="42.75" rx="12.5" ry="12.5" style="stroke:#181818;stroke-width:1.5;" width="254.8896" x="532.6621" y="1072.3906"/><text fill="#000000" font-family="sans-serif" font-size="14" lengthAdjust="spacing" textLength="210" x="542.6621" y="1102.0645">&#20057;&#22797;&#21046;&#20102;&#38053;&#21273;&#65292;&#30002;&#35201;&#22238;&#20102;&#21407;&#26469;&#38053;&#21273;</text><path d="M769.5239,1092.893 L775.289,1087.1279 C775.9727,1086.4448 775.9727,1085.3365 775.289,1084.6528 C774.6053,1083.9697 773.4982,1083.9697 772.8145,1084.6528 L767.0494,1090.4179 L761.2843,1084.6534 C760.6013,1083.9697 759.4929,1083.9697 758.8093,1084.6534 C758.1262,1085.3365 758.1262,1086.4448 758.8093,1087.1285 L764.5743,1092.893 L758.7953,1098.672 C758.1122,1099.3551 758.1122,1100.4635 758.7953,1101.1465 C759.1365,1101.4884 759.5851,1101.6593 760.0325,1101.6593 C760.4799,1101.6593 760.9285,1101.4884 761.2703,1101.1465 L767.0488,1095.368 L772.8133,1101.1325 C773.1552,1101.4744 773.6032,1101.6453 774.0506,1101.6453 C774.498,1101.6453 774.946,1101.4744 775.2878,1101.1325 C775.9715,1100.4495 775.9715,1099.3411 775.2878,1098.658 L769.5239,1092.893 " fill="#FE0000" style="stroke:;stroke-width:0;stroke-dasharray:;"/><rect fill="#F1F1F1" height="37.6094" rx="12.5" ry="12.5" style="stroke:#181818;stroke-width:1.5;" width="160" x="837.5518" y="1074.9609"/><text fill="#000000" font-family="sans-serif" font-size="14" lengthAdjust="spacing" textLength="140" x="847.5518" y="1099.4941">&#29289;&#29702;&#36129;&#29486;&#27809;&#26377;&#20999;&#23454;&#28040;&#38500;</text><path d="M787.5518,1093.7656 L797.5518,1093.7656 C812.5518,1093.7656 812.5518,1093.7656 827.5518,1093.7656 L837.5518,1093.7656 " fill="none" style="stroke:#181818;stroke-width:1;"/><path d="M482.6621,1151.375 L492.6621,1151.375 C507.6621,1151.375 507.6621,1093.7656 522.6621,1093.7656 L532.6621,1093.7656 " fill="none" style="stroke:#181818;stroke-width:1;"/><rect fill="#F1F1F1" height="42.75" rx="12.5" ry="12.5" style="stroke:#181818;stroke-width:1.5;" width="170.8896" x="532.6621" y="1161.375"/><text fill="#000000" font-family="sans-serif" font-size="14" lengthAdjust="spacing" textLength="126" x="542.6621" y="1191.0488">&#31572;&#24212;&#26395;&#39118;&#65292;&#24708;&#24708;&#28316;&#36208;</text><path d="M685.5239,1181.8773 L691.289,1176.1123 C691.9727,1175.4292 691.9727,1174.3208 691.289,1173.6372 C690.6053,1172.9541 689.4982,1172.9541 688.8145,1173.6372 L683.0494,1179.4023 L677.2843,1173.6378 C676.6013,1172.9541 675.4929,1172.9541 674.8093,1173.6378 C674.1262,1174.3208 674.1262,1175.4292 674.8093,1176.1128 L680.5743,1181.8773 L674.7953,1187.6564 C674.1122,1188.3395 674.1122,1189.4478 674.7953,1190.1309 C675.1365,1190.4728 675.5851,1190.6437 676.0325,1190.6437 C676.4799,1190.6437 676.9285,1190.4728 677.2703,1190.1309 L683.0488,1184.3524 L688.8133,1190.1169 C689.1552,1190.4588 689.6032,1190.6297 690.0506,1190.6297 C690.498,1190.6297 690.946,1190.4588 691.2878,1190.1169 C691.9715,1189.4338 691.9715,1188.3255 691.2878,1187.6424 L685.5239,1181.8773 " fill="#FE0000" style="stroke:;stroke-width:0;stroke-dasharray:;"/><rect fill="#F1F1F1" height="37.6094" rx="12.5" ry="12.5" style="stroke:#181818;stroke-width:1.5;" width="104" x="753.5518" y="1135.1406"/><text fill="#000000" font-family="sans-serif" font-size="14" lengthAdjust="spacing" textLength="84" x="763.5518" y="1159.6738">&#29289;&#29702;&#36129;&#29486;&#28040;&#38500;</text><path d="M703.5518,1182.75 L713.5518,1182.75 C728.5518,1182.75 728.5518,1153.9453 743.5518,1153.9453 L753.5518,1153.9453 " fill="none" style="stroke:#181818;stroke-width:1;"/><rect fill="#F1F1F1" height="37.6094" rx="12.5" ry="12.5" style="stroke:#181818;stroke-width:1.5;" width="132" x="753.5518" y="1192.75"/><text fill="#000000" font-family="sans-serif" font-size="14" lengthAdjust="spacing" textLength="112" x="763.5518" y="1217.2832">&#24515;&#29702;&#36129;&#29486;&#27809;&#26377;&#28040;&#38500;</text><path d="M703.5518,1182.75 L713.5518,1182.75 C728.5518,1182.75 728.5518,1211.5547 743.5518,1211.5547 L753.5518,1211.5547 " fill="none" style="stroke:#181818;stroke-width:1;"/><path d="M482.6621,1151.375 L492.6621,1151.375 C507.6621,1151.375 507.6621,1182.75 522.6621,1182.75 L532.6621,1182.75 " fill="none" style="stroke:#181818;stroke-width:1;"/><path d="M384.6621,1088.625 L394.6621,1088.625 C409.6621,1088.625 409.6621,1151.375 424.6621,1151.375 L434.6621,1151.375 " fill="none" style="stroke:#181818;stroke-width:1;"/><path d="M272.6621,981.1172 L282.6621,981.1172 C297.6621,981.1172 297.6621,1088.625 312.6621,1088.625 L322.6621,1088.625 " fill="none" style="stroke:#181818;stroke-width:1;"/><rect fill="#F1F1F1" height="37.6094" rx="12.5" ry="12.5" style="stroke:#181818;stroke-width:1.5;" width="76" x="322.6621" y="1347.0547"/><text fill="#000000" font-family="sans-serif" font-size="14" lengthAdjust="spacing" textLength="56" x="332.6621" y="1371.5879">&#20849;&#21516;&#27491;&#29359;</text><rect fill="#F1F1F1" height="37.6094" rx="12.5" ry="12.5" style="stroke:#181818;stroke-width:1.5;" width="48" x="448.6621" y="1347.0547"/><text fill="#000000" font-family="sans-serif" font-size="14" lengthAdjust="spacing" textLength="28" x="458.6621" y="1371.5879">&#21407;&#21017;</text><rect fill="#F1F1F1" height="37.6094" rx="12.5" ry="12.5" style="stroke:#181818;stroke-width:1.5;" width="76" x="546.6621" y="1284.3047"/><text fill="#000000" font-family="sans-serif" font-size="14" lengthAdjust="spacing" textLength="56" x="556.6621" y="1308.8379">&#39044;&#22791;&#38454;&#27573;</text><rect fill="#F1F1F1" height="42.75" rx="12.5" ry="12.5" style="stroke:#181818;stroke-width:1.5;" width="128.8896" x="672.6621" y="1250.3594"/><text fill="#000000" font-family="sans-serif" font-size="14" lengthAdjust="spacing" textLength="84" x="682.6621" y="1280.0332">&#28040;&#38500;&#24515;&#29702;&#36129;&#29486;</text><path d="M790.6528,1261.1615 C789.8414,1260.6353 788.7582,1260.8663 788.2326,1261.6771 L778.4268,1276.7919 L773.6446,1272.3702 C772.9347,1271.714 771.8281,1271.7571 771.1718,1272.467 C770.5156,1273.1764 770.5588,1274.2841 771.2687,1274.9398 L777.5477,1280.7451 C777.7279,1280.9003 777.7279,1280.9003 777.8113,1280.9545 C778.1053,1281.1459 778.4355,1281.2369 778.7622,1281.2369 C779.335,1281.2369 779.8968,1280.9557 780.2322,1280.4389 L791.1685,1263.5817 C791.6947,1262.7709 791.4637,1261.687 790.6528,1261.1615 " fill="#FE0000" style="stroke:;stroke-width:0;stroke-dasharray:;"/><rect fill="#F1F1F1" height="37.6094" rx="12.5" ry="12.5" style="stroke:#181818;stroke-width:1.5;" width="300" x="851.5518" y="1252.9297"/><text fill="#000000" font-family="sans-serif" font-size="14" lengthAdjust="spacing" textLength="280" x="861.5518" y="1277.4629">&#26126;&#30830;&#21578;&#30693;&#23545;&#26041;&#36864;&#20986;&#30340;&#24847;&#24605;&#65292;&#20415;&#21487;&#25104;&#31435;&#29359;&#32618;&#20013;&#27490;</text><path d="M801.5518,1271.7344 L811.5518,1271.7344 C826.5518,1271.7344 826.5518,1271.7344 841.5518,1271.7344 L851.5518,1271.7344 " fill="none" style="stroke:#181818;stroke-width:1;"/><path d="M622.6621,1303.1094 L632.6621,1303.1094 C647.6621,1303.1094 647.6621,1271.7344 662.6621,1271.7344 L672.6621,1271.7344 " fill="none" style="stroke:#181818;stroke-width:1;"/><rect fill="#F1F1F1" height="42.75" rx="12.5" ry="12.5" style="stroke:#181818;stroke-width:1.5;" width="128.8896" x="672.6621" y="1313.1094"/><text fill="#000000" font-family="sans-serif" font-size="14" lengthAdjust="spacing" textLength="84" x="682.6621" y="1342.7832">&#28040;&#38500;&#29289;&#29702;&#36129;&#29486;</text><path d="M783.5239,1333.6117 L789.289,1327.8466 C789.9727,1327.1635 789.9727,1326.0552 789.289,1325.3715 C788.6053,1324.6885 787.4982,1324.6885 786.8145,1325.3715 L781.0494,1331.1366 L775.2843,1325.3721 C774.6013,1324.6885 773.4929,1324.6885 772.8093,1325.3721 C772.1262,1326.0552 772.1262,1327.1635 772.8093,1327.8472 L778.5743,1333.6117 L772.7953,1339.3908 C772.1122,1340.0739 772.1122,1341.1822 772.7953,1341.8653 C773.1365,1342.2071 773.5851,1342.378 774.0325,1342.378 C774.4799,1342.378 774.9285,1342.2071 775.2703,1341.8653 L781.0488,1336.0868 L786.8133,1341.8513 C787.1552,1342.1931 787.6032,1342.364 788.0506,1342.364 C788.498,1342.364 788.946,1342.1931 789.2878,1341.8513 C789.9715,1341.1682 789.9715,1340.0599 789.2878,1339.3768 L783.5239,1333.6117 " fill="#FE0000" style="stroke:;stroke-width:0;stroke-dasharray:;"/><path d="M622.6621,1303.1094 L632.6621,1303.1094 C647.6621,1303.1094 647.6621,1334.4844 662.6621,1334.4844 L672.6621,1334.4844 " fill="none" style="stroke:#181818;stroke-width:1;"/><path d="M496.6621,1365.8594 L506.6621,1365.8594 C521.6621,1365.8594 521.6621,1303.1094 536.6621,1303.1094 L546.6621,1303.1094 " fill="none" style="stroke:#181818;stroke-width:1;"/><rect fill="#F1F1F1" height="37.6094" rx="12.5" ry="12.5" style="stroke:#181818;stroke-width:1.5;" width="76" x="546.6621" y="1409.8047"/><text fill="#000000" font-family="sans-serif" font-size="14" lengthAdjust="spacing" textLength="56" x="556.6621" y="1434.3379">&#23454;&#34892;&#38454;&#27573;</text><rect fill="#F1F1F1" height="42.75" rx="12.5" ry="12.5" style="stroke:#181818;stroke-width:1.5;" width="128.8896" x="672.6621" y="1375.8594"/><text fill="#000000" font-family="sans-serif" font-size="14" lengthAdjust="spacing" textLength="84" x="682.6621" y="1405.5332">&#28040;&#38500;&#24515;&#29702;&#36129;&#29486;</text><path d="M790.6528,1386.6615 C789.8414,1386.1353 788.7582,1386.3663 788.2326,1387.1771 L778.4268,1402.2919 L773.6446,1397.8702 C772.9347,1397.214 771.8281,1397.2571 771.1718,1397.967 C770.5156,1398.6764 770.5588,1399.7841 771.2687,1400.4398 L777.5477,1406.2451 C777.7279,1406.4003 777.7279,1406.4003 777.8113,1406.4545 C778.1053,1406.6459 778.4355,1406.7369 778.7622,1406.7369 C779.335,1406.7369 779.8968,1406.4557 780.2322,1405.9389 L791.1685,1389.0817 C791.6947,1388.2709 791.4637,1387.187 790.6528,1386.6615 " fill="#FE0000" style="stroke:;stroke-width:0;stroke-dasharray:;"/><path d="M622.6621,1428.6094 L632.6621,1428.6094 C647.6621,1428.6094 647.6621,1397.2344 662.6621,1397.2344 L672.6621,1397.2344 " fill="none" style="stroke:#181818;stroke-width:1;"/><rect fill="#F1F1F1" height="42.75" rx="12.5" ry="12.5" style="stroke:#181818;stroke-width:1.5;" width="128.8896" x="672.6621" y="1438.6094"/><text fill="#000000" font-family="sans-serif" font-size="14" lengthAdjust="spacing" textLength="84" x="682.6621" y="1468.2832">&#28040;&#38500;&#29289;&#29702;&#36129;&#29486;</text><path d="M790.6528,1449.4115 C789.8414,1448.8853 788.7582,1449.1163 788.2326,1449.9271 L778.4268,1465.0419 L773.6446,1460.6202 C772.9347,1459.964 771.8281,1460.0071 771.1718,1460.717 C770.5156,1461.4264 770.5588,1462.5341 771.2687,1463.1898 L777.5477,1468.9951 C777.7279,1469.1503 777.7279,1469.1503 777.8113,1469.2045 C778.1053,1469.3959 778.4355,1469.4869 778.7622,1469.4869 C779.335,1469.4869 779.8968,1469.2057 780.2322,1468.6889 L791.1685,1451.8317 C791.6947,1451.0209 791.4637,1449.937 790.6528,1449.4115 " fill="#FE0000" style="stroke:;stroke-width:0;stroke-dasharray:;"/><rect fill="#F1F1F1" height="37.6094" rx="12.5" ry="12.5" style="stroke:#181818;stroke-width:1.5;" width="342" x="851.5518" y="1441.1797"/><text fill="#000000" font-family="sans-serif" font-size="14" lengthAdjust="spacing" textLength="322" x="861.5518" y="1465.7129">&#21407;&#21017;&#65306;&#26377;&#25928;&#38459;&#27490;&#29359;&#32618;&#65288;&#19981;&#19968;&#23450;&#25104;&#21151;&#65292;&#20294;&#35201;&#31469;&#23613;&#20840;&#21147;&#65289;</text><path d="M801.5518,1459.9844 L811.5518,1459.9844 C826.5518,1459.9844 826.5518,1459.9844 841.5518,1459.9844 L851.5518,1459.9844 " fill="none" style="stroke:#181818;stroke-width:1;"/><path d="M622.6621,1428.6094 L632.6621,1428.6094 C647.6621,1428.6094 647.6621,1459.9844 662.6621,1459.9844 L672.6621,1459.9844 " fill="none" style="stroke:#181818;stroke-width:1;"/><path d="M496.6621,1365.8594 L506.6621,1365.8594 C521.6621,1365.8594 521.6621,1428.6094 536.6621,1428.6094 L546.6621,1428.6094 " fill="none" style="stroke:#181818;stroke-width:1;"/><path d="M398.6621,1365.8594 L408.6621,1365.8594 C423.6621,1365.8594 423.6621,1365.8594 438.6621,1365.8594 L448.6621,1365.8594 " fill="none" style="stroke:#181818;stroke-width:1;"/><path d="M272.6621,981.1172 L282.6621,981.1172 C297.6621,981.1172 297.6621,1365.8594 312.6621,1365.8594 L322.6621,1365.8594 " fill="none" style="stroke:#181818;stroke-width:1;"/><path d="M146.6621,750.6797 L156.6621,750.6797 C171.6621,750.6797 171.6621,981.1172 186.6621,981.1172 L196.6621,981.1172 " fill="none" style="stroke:#181818;stroke-width:1;"/><!--SRC=[xLbRRzD857xth_2A5rYfuQ8AeGeXQA3QHHIXRU4LkSwGc3fsv3XX8uJatfEqJRfGjgHN2aqfGKcWsvQIjl1ZcXaxJ_qBUsp7hHFYn4Mx-x1Ab8TwpZVVkHzFfjV3CYF9GKxm1PaGHVt42ImVyI7Qupbl_uRb68_EXtX6a2D1laF7Ty263cFTmy4QHVrCux5FU6PAJHRLWrm7JW-NTrDaRgSojqNHy05vUXWdNniFvW8P6IEPul525PMOnjD9TMFoQ7yAftDaCQ7ERXxjB-2PrF5w-Ki6cF1OravsekfaiLoQrFbg5TjqZMq0uNS2KrWPsS3nSLnOrbQdT5l6Dc15srhHjjxMQzdDLvHPPosMHmwAmBy6jDMzbjVEU_5p8nv6y1kR1q406YVpoCkjycvE-pO1Ml3dJNKlhUwz84ihZQpPBU3aUrpyedrQTJ18AmwHwK93ePs358VKeVoXCbJUprMKr-Okg1idrkqHDV6-2Ij9lQzaFm9VPNv6NNvk5Y59AFZhd5Fa34YvL6h2gkQMjBaqiEAfCLoQiEopCbvH53nHijUWigUzYzU5domgE7kWntHvaNAqOpTFyc_gMs5zk7pm4W_DDyhQJhoIMTCcSlZp9tL-LDjQLQSA3gwQMFnjH9qP9yex5rW8TaEiNYqPF3iEHjVRcbh1yGpLNBd9Hbyz8o5VLm0nqTX3De3OmOT1HXhikkPaKk85a81ACffkLWB9h9PVRm8ebpOXNcHodSHpP4aXYSbcgT_BQ6y-uC9VK25WW3gxhHMNA9Vngl4m6E5bBiHpB2Dpel3mzpe_GTLQgVnrib6xhGz3pP3DLHY2PX0EbPGvaC2gGoKDYOSLCpBmg4-fUAQyEqsMHqbynXGT5nS03fLXghuJ_wDKraRgDBkR14YVUslJEBvJBerNdcVnL0P2e8_JzI6yi0oBu0fPofgYqoJ5fjjchva979-079ZUDEhd_2mkpPB5XShR55X3XaVrRsbHs_xu3rZGM6irRxR4L8kc5cwzead-xIcoNdapYjScAgzsI67RnO3vaHwlihnAgQi5_4TINSd2EuRy-SKSi53bKDz4MTBV_5-_uNGHYblzCEauELtNd8iSG62CXljN_V_nvcYKmwFzUJttB-ELLtiG6ZDCH_jn60pbNGKNvY5yEBcYH_DW75f5_P377m_WV8EJ2qVx2Ge-rn6S2ArJuVNQG-9LuzHtZQektEGOlyG4wQTWbsU0Zo3ZBvhkPjX1loH619zNv4M9vZb_GDRb87scOttW3NZe0AzABR1VGaXencm0REXO2t3CmeeI8_YTZ3Q55ZGKaKAy4zGKMb1dnsnEIMBOYUrCJqztjzTh8ME8vyKd3bXJQ40f3mg60aoO2xUEbHtT3Nwo0QWWLxiulo1Ao4M0QVeE9w3wzHCAbsgRKkbaWY2oI90TQCA24HsQxX45sLmQu05JnmfLNBLDa84C1WB3UoKkQ3bwWfJ582EB3R7t91HY96ESd6RRZG5HabkbrosNB4DQvLOLxPBDAmQXh6MdR5TtEj7fsH6G7n86fFPWDfiEhHBbGoWK7emPw6VVARW5qsg0vy81vz5Ysr-hxKc0a-jZuw3chYYtrcHunSOOmOLNBED3yh4oXcKvdtD9ruoyLioFeDF2jlQ5PnRrCezHf4KJYpoO88a-MmMsQ25hXw4d98OvcOkY6woj7RuRcmoFt3fouWBaWcb97UJWJQNFM3SrLNtTwEJXoC1ZnEhqJj5Xel1-H99BtYWdGWSPr68hPZtkhiDTxMLh21utRlDUhQdbvbF2O7v6NJrVVUMtBtdQbppjIvxs9K_xagTzoTE-v6bVyhGlUVutbpptz7_ktU-zGqUH5DRFr1SzbovSwlHSETl7oFHTCKfVl4nVkDZLsTdLUPdszlNJklWSTRRtrtuwB4RW9mNjWmEtn0r4z3YVesupKOR-BG9dqY3gelMdi_szv-Y-MzOYVKk8Sf8e1E4SIjr-q6k2w5z4kIyaoWRuScT7DoVJVKW2i-W7lTHDz8Y1VC9MLlHnWh-Blj_Vqt65kWFdrGZZ1qNm2y4B1rbPYe6ixsy0]--></g></svg>