<svg xmlns="http://www.w3.org/2000/svg" xmlns:xlink="http://www.w3.org/1999/xlink" contentStyleType="text/css" height="388px" preserveAspectRatio="none" style="width:458px;height:388px;background:#FFFFFF;" version="1.1" viewBox="0 0 458 388" width="458px" zoomAndPan="magnify"><defs/><g><rect fill="#F1F1F1" height="37.6094" rx="12.5" ry="12.5" style="stroke:#181818;stroke-width:1.5;" width="76" x="10" y="174.3047"/><text fill="#000000" font-family="sans-serif" font-size="14" lengthAdjust="spacing" textLength="56" x="20" y="198.8379">&#20849;&#21516;&#29359;&#32618;</text><rect fill="#F1F1F1" height="37.6094" rx="12.5" ry="12.5" style="stroke:#181818;stroke-width:1.5;" width="48" x="136" y="111.5547"/><text fill="#000000" font-family="sans-serif" font-size="14" lengthAdjust="spacing" textLength="28" x="146" y="136.0879">&#27491;&#29359;</text><rect fill="#F1F1F1" height="37.6094" rx="12.5" ry="12.5" style="stroke:#181818;stroke-width:1.5;" width="62" x="234" y="51.375"/><text fill="#000000" font-family="sans-serif" font-size="14" lengthAdjust="spacing" textLength="42" x="244" y="75.9082">&#25968;&#37327;&#19978;</text><rect fill="#F1F1F1" height="37.6094" rx="12.5" ry="12.5" style="stroke:#181818;stroke-width:1.5;" width="76" x="346" y="20"/><text fill="#000000" font-family="sans-serif" font-size="14" lengthAdjust="spacing" textLength="56" x="356" y="44.5332">&#21333;&#29420;&#27491;&#29359;</text><path d="M296,70.1797 L306,70.1797 C321,70.1797 321,38.8047 336,38.8047 L346,38.8047 " fill="none" style="stroke:#181818;stroke-width:1;"/><rect fill="#90EE90" height="42.75" rx="12.5" ry="12.5" style="stroke:#181818;stroke-width:1.5;" width="100.8896" x="346" y="77.6094"/><text fill="#000000" font-family="sans-serif" font-size="14" lengthAdjust="spacing" textLength="56" x="356" y="107.2832">&#20849;&#21516;&#27491;&#29359;</text><path d="M419.5833,107.4427 C419.5833,108.6094 419.5833,108.6094 418.4167,108.6094 C417.25,108.6094 417.25,107.4427 417.25,107.4427 L417.25,88.776 C417.25,87.6094 417.25,87.6094 418.4167,87.6094 C419.5833,87.6094 419.5833,88.776 419.5833,88.776 L419.5833,107.4427 " fill="#66757F" style="stroke:;stroke-width:0;stroke-dasharray:;"/><path d="M418.4167,89.9427 C418.4167,88.6594 419.371,88.0469 420.5377,88.5818 L430.2951,93.0542 C431.4618,93.5891 431.4618,94.4641 430.2951,94.9985 L420.5377,99.4709 C419.371,100.0052 418.4167,99.3927 418.4167,98.1094 L418.4167,89.9427 " fill="#DD2E44" style="stroke:;stroke-width:0;stroke-dasharray:;"/><text fill="#000000" font-family="sans-serif" font-size="14" lengthAdjust="spacing" textLength="3.8896" x="433" y="107.2832">&#160;</text><path d="M296,70.1797 L306,70.1797 C321,70.1797 321,98.9844 336,98.9844 L346,98.9844 " fill="none" style="stroke:#181818;stroke-width:1;"/><path d="M184,130.3594 L194,130.3594 C209,130.3594 209,70.1797 224,70.1797 L234,70.1797 " fill="none" style="stroke:#181818;stroke-width:1;"/><rect fill="#F1F1F1" height="37.6094" rx="12.5" ry="12.5" style="stroke:#181818;stroke-width:1.5;" width="62" x="234" y="171.7344"/><text fill="#000000" font-family="sans-serif" font-size="14" lengthAdjust="spacing" textLength="42" x="244" y="196.2676">&#26041;&#24335;&#19978;</text><rect fill="#F1F1F1" height="37.6094" rx="12.5" ry="12.5" style="stroke:#181818;stroke-width:1.5;" width="76" x="346" y="140.3594"/><text fill="#000000" font-family="sans-serif" font-size="14" lengthAdjust="spacing" textLength="56" x="356" y="164.8926">&#30452;&#25509;&#27491;&#29359;</text><path d="M296,190.5391 L306,190.5391 C321,190.5391 321,159.1641 336,159.1641 L346,159.1641 " fill="none" style="stroke:#181818;stroke-width:1;"/><rect fill="#90EE90" height="42.75" rx="12.5" ry="12.5" style="stroke:#181818;stroke-width:1.5;" width="100.8896" x="346" y="197.9688"/><text fill="#000000" font-family="sans-serif" font-size="14" lengthAdjust="spacing" textLength="56" x="356" y="227.6426">&#38388;&#25509;&#27491;&#29359;</text><path d="M419.5833,227.8021 C419.5833,228.9688 419.5833,228.9688 418.4167,228.9688 C417.25,228.9688 417.25,227.8021 417.25,227.8021 L417.25,209.1354 C417.25,207.9688 417.25,207.9688 418.4167,207.9688 C419.5833,207.9688 419.5833,209.1354 419.5833,209.1354 L419.5833,227.8021 " fill="#66757F" style="stroke:;stroke-width:0;stroke-dasharray:;"/><path d="M418.4167,210.3021 C418.4167,209.0188 419.371,208.4063 420.5377,208.9412 L430.2951,213.4136 C431.4618,213.9485 431.4618,214.8235 430.2951,215.3578 L420.5377,219.8303 C419.371,220.3646 418.4167,219.7521 418.4167,218.4688 L418.4167,210.3021 " fill="#DD2E44" style="stroke:;stroke-width:0;stroke-dasharray:;"/><text fill="#000000" font-family="sans-serif" font-size="14" lengthAdjust="spacing" textLength="3.8896" x="433" y="227.6426">&#160;</text><path d="M296,190.5391 L306,190.5391 C321,190.5391 321,219.3438 336,219.3438 L346,219.3438 " fill="none" style="stroke:#181818;stroke-width:1;"/><path d="M184,130.3594 L194,130.3594 C209,130.3594 209,190.5391 224,190.5391 L234,190.5391 " fill="none" style="stroke:#181818;stroke-width:1;"/><path d="M86,193.1094 L96,193.1094 C111,193.1094 111,130.3594 126,130.3594 L136,130.3594 " fill="none" style="stroke:#181818;stroke-width:1;"/><rect fill="#F1F1F1" height="37.6094" rx="12.5" ry="12.5" style="stroke:#181818;stroke-width:1.5;" width="48" x="136" y="294.6641"/><text fill="#000000" font-family="sans-serif" font-size="14" lengthAdjust="spacing" textLength="28" x="146" y="319.1973">&#20849;&#29359;</text><rect fill="#90EE90" height="42.75" rx="12.5" ry="12.5" style="stroke:#181818;stroke-width:1.5;" width="86.8896" x="234" y="260.7188"/><text fill="#000000" font-family="sans-serif" font-size="14" lengthAdjust="spacing" textLength="42" x="244" y="290.3926">&#25945;&#21766;&#29359;</text><path d="M293.5833,290.5521 C293.5833,291.7188 293.5833,291.7188 292.4167,291.7188 C291.25,291.7188 291.25,290.5521 291.25,290.5521 L291.25,271.8854 C291.25,270.7188 291.25,270.7188 292.4167,270.7188 C293.5833,270.7188 293.5833,271.8854 293.5833,271.8854 L293.5833,290.5521 " fill="#66757F" style="stroke:;stroke-width:0;stroke-dasharray:;"/><path d="M292.4167,273.0521 C292.4167,271.7688 293.371,271.1563 294.5377,271.6912 L304.2951,276.1636 C305.4618,276.6985 305.4618,277.5735 304.2951,278.1078 L294.5377,282.5803 C293.371,283.1146 292.4167,282.5021 292.4167,281.2188 L292.4167,273.0521 " fill="#DD2E44" style="stroke:;stroke-width:0;stroke-dasharray:;"/><text fill="#000000" font-family="sans-serif" font-size="14" lengthAdjust="spacing" textLength="3.8896" x="307" y="290.3926">&#160;</text><path d="M184,313.4688 L194,313.4688 C209,313.4688 209,282.0938 224,282.0938 L234,282.0938 " fill="none" style="stroke:#181818;stroke-width:1;"/><rect fill="#90EE90" height="42.75" rx="12.5" ry="12.5" style="stroke:#181818;stroke-width:1.5;" width="86.8896" x="234" y="323.4688"/><text fill="#000000" font-family="sans-serif" font-size="14" lengthAdjust="spacing" textLength="42" x="244" y="353.1426">&#24110;&#21161;&#29359;</text><path d="M293.5833,353.3021 C293.5833,354.4688 293.5833,354.4688 292.4167,354.4688 C291.25,354.4688 291.25,353.3021 291.25,353.3021 L291.25,334.6354 C291.25,333.4688 291.25,333.4688 292.4167,333.4688 C293.5833,333.4688 293.5833,334.6354 293.5833,334.6354 L293.5833,353.3021 " fill="#66757F" style="stroke:;stroke-width:0;stroke-dasharray:;"/><path d="M292.4167,335.8021 C292.4167,334.5188 293.371,333.9063 294.5377,334.4412 L304.2951,338.9136 C305.4618,339.4485 305.4618,340.3235 304.2951,340.8578 L294.5377,345.3303 C293.371,345.8646 292.4167,345.2521 292.4167,343.9688 L292.4167,335.8021 " fill="#DD2E44" style="stroke:;stroke-width:0;stroke-dasharray:;"/><text fill="#000000" font-family="sans-serif" font-size="14" lengthAdjust="spacing" textLength="3.8896" x="307" y="353.1426">&#160;</text><path d="M184,313.4688 L194,313.4688 C209,313.4688 209,344.8438 224,344.8438 L234,344.8438 " fill="none" style="stroke:#181818;stroke-width:1;"/><path d="M86,193.1094 L96,193.1094 C111,193.1094 111,313.4688 126,313.4688 L136,313.4688 " fill="none" style="stroke:#181818;stroke-width:1;"/><!--SRC=[xLPBQzj04BxhLspf9GbOUM12CCOaTcBQ48TGExc6jRIHDrdjYjNAnPGSsqBwF3GjfSVIGqkVq4CAxR-fO_8lEbf9YUn4bjDJ3nK-U6U- -MPdvx6xx2iibKkvxMBFC6vGRh709iWqPzC_N_KOcVKOvYfmMI745y2WeEKc1PbXpA3-_M_zvuy7Hry6lpuO2BuPTFhfBQpr8XOSVprx-EptoT6vB9BtdnmF7dqSWSSgJHkfoYKbAUPEmB3StMFOsHLyrnE-AbLGkKnShuDzwbSgQOylV_H_Nk5nyERxwTDtLteyUtMXkfP7lTdHW5_tNppukwttJpxtZzvVnzOmbWdaCiddyd1wopfV5ICMh5BiIEoYU-3IRBE0w7y8LR5ru4WHSBicc928KQUZGZre3qEiZUM197O6FDOcO4SImiSnQq0AtSi1znAia70aMPkEb0dK2wJ7ig2HCe5c1vOAIWe_Y-rclLwjrce9iaSO4tSpi95IGmsJSYuimbK6rkSQYL1TS1M9sWmmMhP1EObaaD6U4T4f8AE2OrQJr4ssUu5KmiLAN8dTaiJ34eUIwvYjj8LKUQ5EogKKrBNAo-w4R3NXGefLLivYoomw-4nE72X084qVvhXEoKkKJOZd7_Gq-l2IWpNet3QZVYUxpLBsmzxkTgWQFPiCDvj2vNlIKLazp2U8oi8sKUVEi6LHExkaXze_ZtbFIEB7w90RrXPfu7qIoB7fS0I3BKXXfoemfuKI2-q7nYnLj4jMh5GxN1eXc9590xa80NA1SwbT2bCxd3UJr5GyUaDoFsZl4okappeTt8MxWiW9URjKG0TfQf7779xxnCSTzt98dDna-VKoqkJZ-tgexiTF5DtjXqPvDhug_pzh_i5dpLRu4DrkRA0kaNxOEVFcmjn2qLoQQcA5DaKNpI-YkVbIiLWgBg9QiuL2zRGnrRZTGhu8O70W6zfAqdOGri-qiOwx6Dq9e9fSKaBXQghLc4RDjKI8rdYNIi5Tg21ZVQSHWT0jePgUK1gyM2nKgK9D8c5RQATXh98z7305ffQmANTAQBjLBomP6s78s057KCWrA44bUw1h_W40]--></g></svg>