<svg xmlns="http://www.w3.org/2000/svg" xmlns:xlink="http://www.w3.org/1999/xlink" contentStyleType="text/css" height="770px" preserveAspectRatio="none" style="width:1166px;height:770px;background:#FFFFFF;" version="1.1" viewBox="0 0 1166 770" width="1166px" zoomAndPan="magnify"><defs/><g><rect fill="#F1F1F1" height="37.6094" rx="12.5" ry="12.5" style="stroke:#181818;stroke-width:1.5;" width="136.6621" x="10" y="365.6563"/><text fill="#000000" font-family="sans-serif" font-size="14" lengthAdjust="spacing" textLength="116.6621" x="20" y="390.1895">&#20849;&#21516;&#27491;&#29359;-&#35266;&#28857;&#23637;&#31034;</text><rect fill="#F1F1F1" height="37.6094" rx="12.5" ry="12.5" style="stroke:#181818;stroke-width:1.5;" width="48" x="196.6621" y="20"/><text fill="#000000" font-family="sans-serif" font-size="14" lengthAdjust="spacing" textLength="28" x="206.6621" y="44.5332">&#26696;&#20363;</text><rect fill="#F1F1F1" height="37.6094" rx="12.5" ry="12.5" style="stroke:#181818;stroke-width:1.5;" width="426" x="294.6621" y="20"/><text fill="#000000" font-family="sans-serif" font-size="14" lengthAdjust="spacing" textLength="406" x="304.6621" y="44.5332">&#25171;&#37326;&#29482;&#26696;&#65292;&#30002;&#21644;&#20057;&#20004;&#20010;&#20154;&#25171;&#37326;&#29482;&#65292;&#19981;&#23567;&#24515;&#25171;&#27515;&#20154;&#65292;&#19981;&#28165;&#26970;&#26159;&#35841;&#25171;&#30340;</text><path d="M244.6621,38.8047 L254.6621,38.8047 C269.6621,38.8047 269.6621,38.8047 284.6621,38.8047 L294.6621,38.8047 " fill="none" style="stroke:#181818;stroke-width:1;"/><path d="M146.6621,384.4609 L156.6621,384.4609 C171.6621,384.4609 171.6621,38.8047 186.6621,38.8047 L196.6621,38.8047 " fill="none" style="stroke:#181818;stroke-width:1;"/><rect fill="#F1F1F1" height="37.6094" rx="12.5" ry="12.5" style="stroke:#181818;stroke-width:1.5;" width="48" x="196.6621" y="394.4609"/><text fill="#000000" font-family="sans-serif" font-size="14" lengthAdjust="spacing" textLength="28" x="206.6621" y="418.9941">&#35266;&#28857;</text><rect fill="#F1F1F1" height="37.6094" rx="12.5" ry="12.5" style="stroke:#181818;stroke-width:1.5;" width="118" x="294.6621" y="221.6328"/><text fill="#000000" font-family="sans-serif" font-size="14" lengthAdjust="spacing" textLength="98" x="304.6621" y="246.166">&#37096;&#20998;&#29359;&#32618;&#20849;&#21516;&#35828;</text><rect fill="#F1F1F1" height="37.6094" rx="12.5" ry="12.5" style="stroke:#181818;stroke-width:1.5;" width="132" x="462.6621" y="106.4141"/><text fill="#000000" font-family="sans-serif" font-size="14" lengthAdjust="spacing" textLength="112" x="472.6621" y="130.9473">&#26159;&#21542;&#25104;&#31435;&#20849;&#21516;&#29359;&#32618;</text><rect fill="#F1F1F1" height="37.6094" rx="12.5" ry="12.5" style="stroke:#181818;stroke-width:1.5;" width="48" x="644.6621" y="77.6094"/><text fill="#000000" font-family="sans-serif" font-size="14" lengthAdjust="spacing" textLength="28" x="654.6621" y="102.1426">&#35201;&#27714;</text><rect fill="#F1F1F1" height="37.6094" rx="12.5" ry="12.5" style="stroke:#181818;stroke-width:1.5;" width="266.1758" x="742.6621" y="77.6094"/><text fill="#000000" font-family="sans-serif" font-size="14" lengthAdjust="spacing" textLength="246.1758" x="752.6621" y="102.1426">&#20027;&#35266;&#19978;&#65292;&#25925;&#24847;+&#25925;&#24847;&#65292;&#25165;&#33021;&#25104;&#20026;&#20849;&#21516;&#27491;&#29359;</text><path d="M692.6621,96.4141 L702.6621,96.4141 C717.6621,96.4141 717.6621,96.4141 732.6621,96.4141 L742.6621,96.4141 " fill="none" style="stroke:#181818;stroke-width:1;"/><path d="M594.6621,125.2188 L604.6621,125.2188 C619.6621,125.2188 619.6621,96.4141 634.6621,96.4141 L644.6621,96.4141 " fill="none" style="stroke:#181818;stroke-width:1;"/><rect fill="#F1F1F1" height="37.6094" rx="12.5" ry="12.5" style="stroke:#181818;stroke-width:1.5;" width="48" x="644.6621" y="135.2188"/><text fill="#000000" font-family="sans-serif" font-size="14" lengthAdjust="spacing" textLength="28" x="654.6621" y="159.752">&#20107;&#23454;</text><rect fill="#F1F1F1" height="37.6094" rx="12.5" ry="12.5" style="stroke:#181818;stroke-width:1.5;" width="258" x="742.6621" y="135.2188"/><text fill="#000000" font-family="sans-serif" font-size="14" lengthAdjust="spacing" textLength="238" x="752.6621" y="159.752">&#20004;&#20154;&#37117;&#19981;&#20855;&#26377;&#25925;&#24847;&#65292;&#26080;&#27861;&#25104;&#31435;&#20849;&#21516;&#27491;&#29359;</text><rect fill="#F1F1F1" height="37.6094" rx="12.5" ry="12.5" style="stroke:#181818;stroke-width:1.5;" width="104" x="1050.6621" y="135.2188"/><text fill="#000000" font-family="sans-serif" font-size="14" lengthAdjust="spacing" textLength="84" x="1060.6621" y="159.752">&#21482;&#33021;&#21333;&#29420;&#22788;&#29702;</text><path d="M1000.6621,154.0234 L1010.6621,154.0234 C1025.6621,154.0234 1025.6621,154.0234 1040.6621,154.0234 L1050.6621,154.0234 " fill="none" style="stroke:#181818;stroke-width:1;"/><path d="M692.6621,154.0234 L702.6621,154.0234 C717.6621,154.0234 717.6621,154.0234 732.6621,154.0234 L742.6621,154.0234 " fill="none" style="stroke:#181818;stroke-width:1;"/><path d="M594.6621,125.2188 L604.6621,125.2188 C619.6621,125.2188 619.6621,154.0234 634.6621,154.0234 L644.6621,154.0234 " fill="none" style="stroke:#181818;stroke-width:1;"/><path d="M412.6621,240.4375 L422.6621,240.4375 C437.6621,240.4375 437.6621,125.2188 452.6621,125.2188 L462.6621,125.2188 " fill="none" style="stroke:#181818;stroke-width:1;"/><rect fill="#F1F1F1" height="37.6094" rx="12.5" ry="12.5" style="stroke:#181818;stroke-width:1.5;" width="76" x="462.6621" y="221.6328"/><text fill="#000000" font-family="sans-serif" font-size="14" lengthAdjust="spacing" textLength="56" x="472.6621" y="246.166">&#23450;&#32618;&#20998;&#26512;</text><rect fill="#F1F1F1" height="37.6094" rx="12.5" ry="12.5" style="stroke:#181818;stroke-width:1.5;" width="440" x="588.6621" y="192.8281"/><text fill="#000000" font-family="sans-serif" font-size="14" lengthAdjust="spacing" textLength="420" x="598.6621" y="217.3613">&#30002;&#65306;&#26696;&#20214;&#26080;&#27861;&#26597;&#26126;&#65292;&#21487;&#33021;&#26159;&#20057;&#25171;&#27515;&#30340;&#65292;&#19981;&#26500;&#25104;&#36807;&#22833;&#33268;&#20154;&#27515;&#20129;&#32618;&#65292;&#26080;&#32618;</text><path d="M538.6621,240.4375 L548.6621,240.4375 C563.6621,240.4375 563.6621,211.6328 578.6621,211.6328 L588.6621,211.6328 " fill="none" style="stroke:#181818;stroke-width:1;"/><rect fill="#F1F1F1" height="37.6094" rx="12.5" ry="12.5" style="stroke:#181818;stroke-width:1.5;" width="440" x="588.6621" y="250.4375"/><text fill="#000000" font-family="sans-serif" font-size="14" lengthAdjust="spacing" textLength="420" x="598.6621" y="274.9707">&#20057;&#65306;&#26696;&#20214;&#26080;&#27861;&#26597;&#26126;&#65292;&#21487;&#33021;&#26159;&#30002;&#25171;&#27515;&#30340;&#65292;&#19981;&#26500;&#25104;&#36807;&#22833;&#33268;&#20154;&#27515;&#20129;&#32618;&#65292;&#26080;&#32618;</text><path d="M538.6621,240.4375 L548.6621,240.4375 C563.6621,240.4375 563.6621,269.2422 578.6621,269.2422 L588.6621,269.2422 " fill="none" style="stroke:#181818;stroke-width:1;"/><path d="M412.6621,240.4375 L422.6621,240.4375 C437.6621,240.4375 437.6621,240.4375 452.6621,240.4375 L462.6621,240.4375 " fill="none" style="stroke:#181818;stroke-width:1;"/><rect fill="#F1F1F1" height="37.6094" rx="12.5" ry="12.5" style="stroke:#181818;stroke-width:1.5;" width="48" x="462.6621" y="336.8516"/><text fill="#000000" font-family="sans-serif" font-size="14" lengthAdjust="spacing" textLength="28" x="472.6621" y="361.3848">&#35780;&#20215;</text><rect fill="#F1F1F1" height="37.6094" rx="12.5" ry="12.5" style="stroke:#181818;stroke-width:1.5;" width="48" x="560.6621" y="308.0469"/><text fill="#000000" font-family="sans-serif" font-size="14" lengthAdjust="spacing" textLength="28" x="570.6621" y="332.5801">&#20248;&#28857;</text><rect fill="#F1F1F1" height="37.6094" rx="12.5" ry="12.5" style="stroke:#181818;stroke-width:1.5;" width="342" x="658.6621" y="308.0469"/><text fill="#000000" font-family="sans-serif" font-size="14" lengthAdjust="spacing" textLength="322" x="668.6621" y="332.5801">&#21009;&#27861;&#21482;&#35268;&#23450;&#20102;&#12302;&#20849;&#21516;&#25925;&#24847;&#29359;&#32618;&#12303;&#65292;&#31526;&#21512;&#12302;&#24418;&#24335;&#27491;&#20041;&#12303;</text><path d="M608.6621,326.8516 L618.6621,326.8516 C633.6621,326.8516 633.6621,326.8516 648.6621,326.8516 L658.6621,326.8516 " fill="none" style="stroke:#181818;stroke-width:1;"/><path d="M510.6621,355.6563 L520.6621,355.6563 C535.6621,355.6563 535.6621,326.8516 550.6621,326.8516 L560.6621,326.8516 " fill="none" style="stroke:#181818;stroke-width:1;"/><rect fill="#F1F1F1" height="37.6094" rx="12.5" ry="12.5" style="stroke:#181818;stroke-width:1.5;" width="48" x="560.6621" y="365.6563"/><text fill="#000000" font-family="sans-serif" font-size="14" lengthAdjust="spacing" textLength="28" x="570.6621" y="390.1895">&#32570;&#28857;</text><rect fill="#F1F1F1" height="37.6094" rx="12.5" ry="12.5" style="stroke:#181818;stroke-width:1.5;" width="356" x="658.6621" y="365.6563"/><text fill="#000000" font-family="sans-serif" font-size="14" lengthAdjust="spacing" textLength="336" x="668.6621" y="390.1895">&#23458;&#35266;&#19978;&#65292;&#26377;&#20154;&#27515;&#20129;&#65292;&#20294;&#26159;&#20004;&#20010;&#20154;&#37117;&#26080;&#32618;&#65292;&#26174;&#28982;&#19981;&#21512;&#29702;&#12290;</text><path d="M608.6621,384.4609 L618.6621,384.4609 C633.6621,384.4609 633.6621,384.4609 648.6621,384.4609 L658.6621,384.4609 " fill="none" style="stroke:#181818;stroke-width:1;"/><path d="M510.6621,355.6563 L520.6621,355.6563 C535.6621,355.6563 535.6621,384.4609 550.6621,384.4609 L560.6621,384.4609 " fill="none" style="stroke:#181818;stroke-width:1;"/><path d="M412.6621,240.4375 L422.6621,240.4375 C437.6621,240.4375 437.6621,355.6563 452.6621,355.6563 L462.6621,355.6563 " fill="none" style="stroke:#181818;stroke-width:1;"/><path d="M244.6621,413.2656 L254.6621,413.2656 C269.6621,413.2656 269.6621,240.4375 284.6621,240.4375 L294.6621,240.4375 " fill="none" style="stroke:#181818;stroke-width:1;"/><rect fill="#F1F1F1" height="37.6094" rx="12.5" ry="12.5" style="stroke:#181818;stroke-width:1.5;" width="90" x="294.6621" y="567.2891"/><text fill="#000000" font-family="sans-serif" font-size="14" lengthAdjust="spacing" textLength="70" x="304.6621" y="591.8223">&#34892;&#20026;&#20849;&#21516;&#35828;</text><rect fill="#F1F1F1" height="37.6094" rx="12.5" ry="12.5" style="stroke:#181818;stroke-width:1.5;" width="132" x="434.6621" y="452.0703"/><text fill="#000000" font-family="sans-serif" font-size="14" lengthAdjust="spacing" textLength="112" x="444.6621" y="476.6035">&#26159;&#21542;&#25104;&#31435;&#20849;&#21516;&#29359;&#32618;</text><rect fill="#F1F1F1" height="37.6094" rx="12.5" ry="12.5" style="stroke:#181818;stroke-width:1.5;" width="48" x="616.6621" y="423.2656"/><text fill="#000000" font-family="sans-serif" font-size="14" lengthAdjust="spacing" textLength="28" x="626.6621" y="447.7988">&#35201;&#27714;</text><rect fill="#F1F1F1" height="37.6094" rx="12.5" ry="12.5" style="stroke:#181818;stroke-width:1.5;" width="147.9551" x="714.6621" y="423.2656"/><text fill="#000000" font-family="sans-serif" font-size="14" lengthAdjust="spacing" textLength="127.9551" x="724.6621" y="447.7988">&#24847;&#24605;&#32852;&#32476; + &#23454;&#34892;&#34892;&#20026;</text><path d="M664.6621,442.0703 L674.6621,442.0703 C689.6621,442.0703 689.6621,442.0703 704.6621,442.0703 L714.6621,442.0703 " fill="none" style="stroke:#181818;stroke-width:1;"/><path d="M566.6621,470.875 L576.6621,470.875 C591.6621,470.875 591.6621,442.0703 606.6621,442.0703 L616.6621,442.0703 " fill="none" style="stroke:#181818;stroke-width:1;"/><rect fill="#F1F1F1" height="37.6094" rx="12.5" ry="12.5" style="stroke:#181818;stroke-width:1.5;" width="48" x="616.6621" y="480.875"/><text fill="#000000" font-family="sans-serif" font-size="14" lengthAdjust="spacing" textLength="28" x="626.6621" y="505.4082">&#20107;&#23454;</text><rect fill="#F1F1F1" height="37.6094" rx="12.5" ry="12.5" style="stroke:#181818;stroke-width:1.5;" width="272" x="714.6621" y="480.875"/><text fill="#000000" font-family="sans-serif" font-size="14" lengthAdjust="spacing" textLength="252" x="724.6621" y="505.4082">&#20004;&#20154;&#37117;&#26159;&#36807;&#22833;&#65292;&#26500;&#25104;&#12302;&#36807;&#22833;&#30340;&#20849;&#21516;&#29359;&#32618;&#12303;</text><path d="M664.6621,499.6797 L674.6621,499.6797 C689.6621,499.6797 689.6621,499.6797 704.6621,499.6797 L714.6621,499.6797 " fill="none" style="stroke:#181818;stroke-width:1;"/><path d="M566.6621,470.875 L576.6621,470.875 C591.6621,470.875 591.6621,499.6797 606.6621,499.6797 L616.6621,499.6797 " fill="none" style="stroke:#181818;stroke-width:1;"/><path d="M384.6621,586.0938 L394.6621,586.0938 C409.6621,586.0938 409.6621,470.875 424.6621,470.875 L434.6621,470.875 " fill="none" style="stroke:#181818;stroke-width:1;"/><rect fill="#F1F1F1" height="37.6094" rx="12.5" ry="12.5" style="stroke:#181818;stroke-width:1.5;" width="76" x="434.6621" y="567.2891"/><text fill="#000000" font-family="sans-serif" font-size="14" lengthAdjust="spacing" textLength="56" x="444.6621" y="591.8223">&#23450;&#32618;&#20998;&#26512;</text><rect fill="#F1F1F1" height="37.6094" rx="12.5" ry="12.5" style="stroke:#181818;stroke-width:1.5;" width="146" x="560.6621" y="538.4844"/><text fill="#000000" font-family="sans-serif" font-size="14" lengthAdjust="spacing" textLength="126" x="570.6621" y="563.0176">&#30002;&#65306;&#36807;&#22833;&#33268;&#20154;&#27515;&#20129;&#32618;</text><path d="M510.6621,586.0938 L520.6621,586.0938 C535.6621,586.0938 535.6621,557.2891 550.6621,557.2891 L560.6621,557.2891 " fill="none" style="stroke:#181818;stroke-width:1;"/><rect fill="#F1F1F1" height="37.6094" rx="12.5" ry="12.5" style="stroke:#181818;stroke-width:1.5;" width="146" x="560.6621" y="596.0938"/><text fill="#000000" font-family="sans-serif" font-size="14" lengthAdjust="spacing" textLength="126" x="570.6621" y="620.627">&#20057;&#65306;&#36807;&#22833;&#33268;&#20154;&#27515;&#20129;&#32618;</text><path d="M510.6621,586.0938 L520.6621,586.0938 C535.6621,586.0938 535.6621,614.8984 550.6621,614.8984 L560.6621,614.8984 " fill="none" style="stroke:#181818;stroke-width:1;"/><path d="M384.6621,586.0938 L394.6621,586.0938 C409.6621,586.0938 409.6621,586.0938 424.6621,586.0938 L434.6621,586.0938 " fill="none" style="stroke:#181818;stroke-width:1;"/><rect fill="#F1F1F1" height="37.6094" rx="12.5" ry="12.5" style="stroke:#181818;stroke-width:1.5;" width="48" x="434.6621" y="682.5078"/><text fill="#000000" font-family="sans-serif" font-size="14" lengthAdjust="spacing" textLength="28" x="444.6621" y="707.041">&#35780;&#20215;</text><rect fill="#F1F1F1" height="37.6094" rx="12.5" ry="12.5" style="stroke:#181818;stroke-width:1.5;" width="48" x="532.6621" y="653.7031"/><text fill="#000000" font-family="sans-serif" font-size="14" lengthAdjust="spacing" textLength="28" x="542.6621" y="678.2363">&#20248;&#28857;</text><rect fill="#F1F1F1" height="37.6094" rx="12.5" ry="12.5" style="stroke:#181818;stroke-width:1.5;" width="132" x="630.6621" y="653.7031"/><text fill="#000000" font-family="sans-serif" font-size="14" lengthAdjust="spacing" textLength="112" x="640.6621" y="678.2363">&#31526;&#21512;&#12302;&#23454;&#36136;&#27491;&#20041;&#12303;</text><path d="M580.6621,672.5078 L590.6621,672.5078 C605.6621,672.5078 605.6621,672.5078 620.6621,672.5078 L630.6621,672.5078 " fill="none" style="stroke:#181818;stroke-width:1;"/><path d="M482.6621,701.3125 L492.6621,701.3125 C507.6621,701.3125 507.6621,672.5078 522.6621,672.5078 L532.6621,672.5078 " fill="none" style="stroke:#181818;stroke-width:1;"/><rect fill="#F1F1F1" height="37.6094" rx="12.5" ry="12.5" style="stroke:#181818;stroke-width:1.5;" width="48" x="532.6621" y="711.3125"/><text fill="#000000" font-family="sans-serif" font-size="14" lengthAdjust="spacing" textLength="28" x="542.6621" y="735.8457">&#32570;&#28857;</text><rect fill="#F1F1F1" height="37.6094" rx="12.5" ry="12.5" style="stroke:#181818;stroke-width:1.5;" width="314" x="630.6621" y="711.3125"/><text fill="#000000" font-family="sans-serif" font-size="14" lengthAdjust="spacing" textLength="294" x="640.6621" y="735.8457">&#21009;&#27861;&#21482;&#35268;&#23450;&#20102;&#12302;&#20849;&#21516;&#25925;&#24847;&#29359;&#32618;&#12303;&#65292;&#19982;&#21009;&#27861;&#19981;&#31526;&#21512;</text><path d="M580.6621,730.1172 L590.6621,730.1172 C605.6621,730.1172 605.6621,730.1172 620.6621,730.1172 L630.6621,730.1172 " fill="none" style="stroke:#181818;stroke-width:1;"/><path d="M482.6621,701.3125 L492.6621,701.3125 C507.6621,701.3125 507.6621,730.1172 522.6621,730.1172 L532.6621,730.1172 " fill="none" style="stroke:#181818;stroke-width:1;"/><path d="M384.6621,586.0938 L394.6621,586.0938 C409.6621,586.0938 409.6621,701.3125 424.6621,701.3125 L434.6621,701.3125 " fill="none" style="stroke:#181818;stroke-width:1;"/><path d="M244.6621,413.2656 L254.6621,413.2656 C269.6621,413.2656 269.6621,586.0938 284.6621,586.0938 L294.6621,586.0938 " fill="none" style="stroke:#181818;stroke-width:1;"/><path d="M146.6621,384.4609 L156.6621,384.4609 C171.6621,384.4609 171.6621,413.2656 186.6621,413.2656 L196.6621,413.2656 " fill="none" style="stroke:#181818;stroke-width:1;"/><!--SRC=[xLXRJnj757xVNp5LNo2HJOWGYb1K4HnG6-4egadUn_R4R5ZlMBjZHrQ5nCM02JUt3QgBA2qf8H5DS6XHOWmaFuQzcAVyXPxPNUC5l5w7gc-saF2Uy-svVUVCOUXN6LPOKfJZIPmIXAz4EIQbumG5Wrtk7vLb9TALah3CqaafmF41U25WoOCYo0JX6j9dzlJ2el7sJ_DPAL1zDMLE7UXxg-PMHK3mkOQCpRpsSS5wS0JpFv_EBPkBEw3vVBHeFlzR_sbHE_XLAszfvHsjKZa3W5OhB-dlLlHFqo0qtXw2rXOQvHdZvPfHB5NVJOBANCivxkm8NEvEfr_h-La8pZpUiMEjblRFz4v8nP9Us3Ro1VEl1HjZuy_17FlRayRUr2M5hTJAX-1VAp-388tL6IEtSjt-nP_dbwhJn-13ArVSDMlWGwiiwBiRdZwse0gdqyUyD3CVZFNvkejV_Z3-MNMduU6YRarVsO6ezALLS-6DlfKp2xCNIgFlhl72vMUDZKA3K86zpqThdEF3zuxxtryQnMM8HbyfyOIB9U3MPWzOSjZRo46KrKzp-jPUTMwVSywvtGHFTXgDQm-6V9r1GF_L6P1Socc77nf5S5HqTzU5KkL_X91uHL_be6nQPVPaOjdXmQB8RggJ2SwL-MPRB-GvuFY5VhG2H6a7yw1gLEEZIXEdko_gBRS-VvOTp_rubbU_DbRGCdQo75dyQERUymugv87pauafmJKorSt5ioRz_uO52c9C_5QTV6uUhgFhaCW6-BLTNtac-85W4Srpj7Y72jiIw0Ttj1TBtMAdDsmZprRrHr-rr-hj0sNRVttrzlcIdjNAopOU6iSEGE2VVWABfBPC-i_lbjlMilX6S0HtHPnGS1Bz0E44erAQMDyG6i2niOH2qt8yH2Mg84bCZ3Ak1-qunyQnCgQGk0VSqTR02OKGkPbb2-12Ptt0sHgMAbXEU0LjAslGL5f9ILvGMrc3UYVcIagXgfUrhuU61WP2eHeoIoI9FlN0saeBAWH5MQOn8ZCFh2fRI8I6gCniKLG2Z2KR5cLYou3Hh62ROs1Cf3AMGegOh8LRHpAQn8msn3vGI0ehc4k-vBKxKQemlrHRjSKOIQQO7xijMWlH953Cl3XptlGo1v-WJ1BGW63KNSnca-97L9oGb3gMjT3ZbnmCmkH69L4TzHupr_ldlJqT5Td5sdYukK-PloShgrWMoora5SDnmiwSuLXCZ7ktzBdnzxFyc2f4TT3SDZp7I1W_8McbAHq9Aa482esxEj1dX6flM7vIL1MPc25tOgvnk7I4O8cqcaWz1U02-vfEYd1gy_EcbPvoZbvkN4r7dv0OD-zL7Po1NK6K5krcH0eJP9ccVfPvtLikjpFBt31C_2XMHTM_NouCUVEvFjVtpKyKQzh7XTjTpgfitwdQTwhsdQfzfshVgTftAliIzO3_2-vXU1XbYABojTqTl7dZPa_mLaS4CtIVPb1tBxhHtTVJqzVJYqAH4SJLdK97-BiHfD8q_DM2uh3J5J6QvikhKxY7CnXzduPLbYHzY3zrZ8GxKMIm9aI3SaPKg9o4zINSUnIsGUXRoY8foYnmRqzWG6GeGXG82pqA2tV9OvoM6BmQet5HJlIXXoD3WLl2CAovD4w08zYY8TX_JCc2Bl8l]--></g></svg>