<svg xmlns="http://www.w3.org/2000/svg" xmlns:xlink="http://www.w3.org/1999/xlink" contentStyleType="text/css" height="749px" preserveAspectRatio="none" style="width:1127px;height:749px;background:#FFFFFF;" version="1.1" viewBox="0 0 1127 749" width="1127px" zoomAndPan="magnify"><defs/><g><rect fill="#F1F1F1" height="37.6094" rx="12.5" ry="12.5" style="stroke:#181818;stroke-width:1.5;" width="76" x="10" y="354.8438"/><text fill="#000000" font-family="sans-serif" font-size="14" lengthAdjust="spacing" textLength="56" x="20" y="379.377">&#29255;&#38754;&#23454;&#34892;</text><rect fill="#F1F1F1" height="37.6094" rx="12.5" ry="12.5" style="stroke:#181818;stroke-width:1.5;" width="48" x="136" y="77.6094"/><text fill="#000000" font-family="sans-serif" font-size="14" lengthAdjust="spacing" textLength="28" x="146" y="102.1426">&#24773;&#26223;</text><rect fill="#F1F1F1" height="37.6094" rx="12.5" ry="12.5" style="stroke:#181818;stroke-width:1.5;" width="48" x="234" y="20"/><text fill="#000000" font-family="sans-serif" font-size="14" lengthAdjust="spacing" textLength="28" x="244" y="44.5332">&#20154;&#29289;</text><rect fill="#F1F1F1" height="37.6094" rx="12.5" ry="12.5" style="stroke:#181818;stroke-width:1.5;" width="34" x="332" y="20"/><text fill="#000000" font-family="sans-serif" font-size="14" lengthAdjust="spacing" textLength="14" x="342" y="44.5332">&#30002;</text><rect fill="#F1F1F1" height="37.6094" rx="12.5" ry="12.5" style="stroke:#181818;stroke-width:1.5;" width="34" x="416" y="20"/><text fill="#000000" font-family="sans-serif" font-size="14" lengthAdjust="spacing" textLength="14" x="426" y="44.5332">&#20057;</text><rect fill="#F1F1F1" height="37.6094" rx="12.5" ry="12.5" style="stroke:#181818;stroke-width:1.5;" width="34" x="500" y="20"/><text fill="#000000" font-family="sans-serif" font-size="14" lengthAdjust="spacing" textLength="14" x="510" y="44.5332">&#19993;</text><path d="M450,38.8047 L460,38.8047 C475,38.8047 475,38.8047 490,38.8047 L500,38.8047 " fill="none" style="stroke:#181818;stroke-width:1;"/><path d="M366,38.8047 L376,38.8047 C391,38.8047 391,38.8047 406,38.8047 L416,38.8047 " fill="none" style="stroke:#181818;stroke-width:1;"/><path d="M282,38.8047 L292,38.8047 C307,38.8047 307,38.8047 322,38.8047 L332,38.8047 " fill="none" style="stroke:#181818;stroke-width:1;"/><path d="M184,96.4141 L194,96.4141 C209,96.4141 209,38.8047 224,38.8047 L234,38.8047 " fill="none" style="stroke:#181818;stroke-width:1;"/><rect fill="#F1F1F1" height="37.6094" rx="12.5" ry="12.5" style="stroke:#181818;stroke-width:1.5;" width="48" x="234" y="106.4141"/><text fill="#000000" font-family="sans-serif" font-size="14" lengthAdjust="spacing" textLength="28" x="244" y="130.9473">&#26696;&#24773;</text><rect fill="#F1F1F1" height="37.6094" rx="12.5" ry="12.5" style="stroke:#181818;stroke-width:1.5;" width="440" x="332" y="77.6094"/><text fill="#000000" font-family="sans-serif" font-size="14" lengthAdjust="spacing" textLength="420" x="342" y="102.1426">&#30002;&#26263;&#20013;&#24110;&#21161;&#20057;&#65292;&#20057;&#19981;&#30693;&#24773;&#65292;&#20057;&#27442;&#24378;&#22904;&#19993;&#65307;&#30002;&#26263;&#20013;&#25171;&#26197;&#19993;&#65292;&#20057;&#24378;&#22904;&#19993;&#12290;</text><path d="M282,125.2188 L292,125.2188 C307,125.2188 307,96.4141 322,96.4141 L332,96.4141 " fill="none" style="stroke:#181818;stroke-width:1;"/><rect fill="#F1F1F1" height="37.6094" rx="12.5" ry="12.5" style="stroke:#181818;stroke-width:1.5;" width="219.9102" x="332" y="135.2188"/><text fill="#000000" font-family="sans-serif" font-size="14" lengthAdjust="spacing" textLength="199.9102" x="342" y="159.752">&#24378;&#22904; = &#26292;&#21147;&#65288;&#30002;&#65289; + &#22904;&#28139;&#65288;&#20057;&#65289;</text><path d="M282,125.2188 L292,125.2188 C307,125.2188 307,154.0234 322,154.0234 L332,154.0234 " fill="none" style="stroke:#181818;stroke-width:1;"/><path d="M184,96.4141 L194,96.4141 C209,96.4141 209,125.2188 224,125.2188 L234,125.2188 " fill="none" style="stroke:#181818;stroke-width:1;"/><path d="M86,373.6484 L96,373.6484 C111,373.6484 111,96.4141 126,96.4141 L136,96.4141 " fill="none" style="stroke:#181818;stroke-width:1;"/><rect fill="#F1F1F1" height="37.6094" rx="12.5" ry="12.5" style="stroke:#181818;stroke-width:1.5;" width="48" x="136" y="441.2578"/><text fill="#000000" font-family="sans-serif" font-size="14" lengthAdjust="spacing" textLength="28" x="146" y="465.791">&#20998;&#26512;</text><rect fill="#F1F1F1" height="37.6094" rx="12.5" ry="12.5" style="stroke:#181818;stroke-width:1.5;" width="34" x="234" y="224.2031"/><text fill="#000000" font-family="sans-serif" font-size="14" lengthAdjust="spacing" textLength="14" x="244" y="248.7363">&#20057;</text><rect fill="#F1F1F1" height="42.75" rx="12.5" ry="12.5" style="stroke:#181818;stroke-width:1.5;" width="100.8896" x="318" y="192.8281"/><text fill="#000000" font-family="sans-serif" font-size="14" lengthAdjust="spacing" textLength="56" x="328" y="222.502">&#20849;&#21516;&#29359;&#32618;</text><path d="M400.8618,213.3305 L406.6269,207.5654 C407.3106,206.8823 407.3106,205.774 406.6269,205.0903 C405.9432,204.4072 404.8361,204.4072 404.1524,205.0903 L398.3873,210.8554 L392.6222,205.0909 C391.9391,204.4072 390.8308,204.4072 390.1471,205.0909 C389.4641,205.774 389.4641,206.8823 390.1471,207.566 L395.9122,213.3305 L390.1331,219.1095 C389.4501,219.7926 389.4501,220.901 390.1331,221.584 C390.4744,221.9259 390.923,222.0968 391.3704,222.0968 C391.8178,222.0968 392.2664,221.9259 392.6082,221.584 L398.3867,215.8055 L404.1512,221.57 C404.4931,221.9119 404.9411,222.0828 405.3885,222.0828 C405.8359,222.0828 406.2839,221.9119 406.6257,221.57 C407.3094,220.887 407.3094,219.7786 406.6257,219.0955 L400.8618,213.3305 " fill="#FE0000" style="stroke:;stroke-width:0;stroke-dasharray:;"/><rect fill="#F1F1F1" height="37.6094" rx="12.5" ry="12.5" style="stroke:#181818;stroke-width:1.5;" width="118" x="468.8896" y="195.3984"/><text fill="#000000" font-family="sans-serif" font-size="14" lengthAdjust="spacing" textLength="98" x="478.8896" y="219.9316">&#29420;&#33258;&#30340;&#21333;&#29420;&#29359;&#32618;</text><path d="M418.8896,214.2031 L428.8896,214.2031 C443.8896,214.2031 443.8896,214.2031 458.8896,214.2031 L468.8896,214.2031 " fill="none" style="stroke:#181818;stroke-width:1;"/><path d="M268,243.0078 L278,243.0078 C293,243.0078 293,214.2031 308,214.2031 L318,214.2031 " fill="none" style="stroke:#181818;stroke-width:1;"/><rect fill="#F1F1F1" height="37.6094" rx="12.5" ry="12.5" style="stroke:#181818;stroke-width:1.5;" width="48" x="318" y="255.5781"/><text fill="#000000" font-family="sans-serif" font-size="14" lengthAdjust="spacing" textLength="28" x="328" y="280.1113">&#32618;&#21517;</text><rect fill="#F1F1F1" height="37.6094" rx="12.5" ry="12.5" style="stroke:#181818;stroke-width:1.5;" width="104" x="416" y="255.5781"/><text fill="#000000" font-family="sans-serif" font-size="14" lengthAdjust="spacing" textLength="84" x="426" y="280.1113">&#21333;&#29420;&#30340;&#24378;&#22904;&#32618;</text><path d="M366,274.3828 L376,274.3828 C391,274.3828 391,274.3828 406,274.3828 L416,274.3828 " fill="none" style="stroke:#181818;stroke-width:1;"/><path d="M268,243.0078 L278,243.0078 C293,243.0078 293,274.3828 308,274.3828 L318,274.3828 " fill="none" style="stroke:#181818;stroke-width:1;"/><path d="M184,460.0625 L194,460.0625 C209,460.0625 209,243.0078 224,243.0078 L234,243.0078 " fill="none" style="stroke:#181818;stroke-width:1;"/><rect fill="#F1F1F1" height="37.6094" rx="12.5" ry="12.5" style="stroke:#181818;stroke-width:1.5;" width="34" x="234" y="501.4375"/><text fill="#000000" font-family="sans-serif" font-size="14" lengthAdjust="spacing" textLength="14" x="244" y="525.9707">&#30002;</text><rect fill="#F1F1F1" height="42.75" rx="12.5" ry="12.5" style="stroke:#181818;stroke-width:1.5;" width="156.8896" x="318" y="498.8672"/><text fill="#000000" font-family="sans-serif" font-size="14" lengthAdjust="spacing" textLength="112" x="328" y="528.541">&#26159;&#21542;&#26500;&#25104;&#20849;&#21516;&#29359;&#32618;</text><path d="M453.8063,524.6172 C452.8397,524.6172 452.0563,523.8338 452.0563,522.8672 L452.0563,520.5339 C452.0563,519.5673 452.8397,518.7839 453.8063,518.7839 C454.1581,518.7804 457.3063,518.2005 457.3063,515.8672 C457.3063,514.7005 456.1396,513.5339 454.3896,513.5339 C452.9657,513.5339 452.0563,514.7005 452.0563,515.2839 C452.0563,516.2504 451.2729,517.0339 450.3063,517.0339 C449.3397,517.0339 448.5563,516.2504 448.5563,515.2839 C448.5563,512.4384 451.228,510.0339 454.3896,510.0339 C459.0563,510.0339 460.8063,513.5234 460.8063,516.4505 C460.8063,518.8684 459.4781,520.7164 457.0654,521.6539 C456.5404,521.8586 456.0212,521.9963 455.5563,522.0896 L455.5563,522.8672 C455.5563,523.8338 454.7729,524.6172 453.8063,524.6172 " fill="#BE1931" style="stroke:;stroke-width:0;stroke-dasharray:;"/><ellipse cx="453.8063" cy="527.5339" fill="#BE1931" rx="1.75" ry="1.75" style="stroke:#BE1931;stroke-width:1.5;"/><rect fill="#FFA500" height="37.6094" rx="12.5" ry="12.5" style="stroke:#181818;stroke-width:1.5;" width="202" x="524.8896" y="347.1328"/><text fill="#000000" font-family="sans-serif" font-size="14" lengthAdjust="spacing" textLength="182" x="534.8896" y="371.666">&#32943;&#23450;&#35828;&#65288;&#20445;&#25252;&#27861;&#30410;&#65292;&#22810;&#25968;&#35828;&#65289;</text><rect fill="#F1F1F1" height="42.75" rx="12.5" ry="12.5" style="stroke:#181818;stroke-width:1.5;" width="100.8896" x="776.8896" y="313.1875"/><text fill="#000000" font-family="sans-serif" font-size="14" lengthAdjust="spacing" textLength="56" x="786.8896" y="342.8613">&#20849;&#21516;&#29359;&#32618;</text><path d="M866.8804,323.9896 C866.069,323.4634 864.9857,323.6944 864.4601,324.5053 L854.6543,339.62 L849.8721,335.1983 C849.1622,334.5421 848.0556,334.5853 847.3994,335.2952 C846.7431,336.0045 846.7863,337.1123 847.4962,337.7679 L853.7752,343.5733 C853.9555,343.7284 853.9555,343.7284 854.0389,343.7827 C854.3329,343.974 854.663,344.065 854.9897,344.065 C855.5625,344.065 856.1243,343.7838 856.4597,343.267 L867.396,326.4098 C867.9222,325.599 867.6912,324.5152 866.8804,323.9896 " fill="#FE0000" style="stroke:;stroke-width:0;stroke-dasharray:;"/><rect fill="#F1F1F1" height="37.6094" rx="12.5" ry="12.5" style="stroke:#181818;stroke-width:1.5;" width="132" x="927.7793" y="315.7578"/><text fill="#000000" font-family="sans-serif" font-size="14" lengthAdjust="spacing" textLength="112" x="937.7793" y="340.291">&#21333;&#26041;&#38754;&#30340;&#20849;&#21516;&#29359;&#32618;</text><path d="M877.7793,334.5625 L887.7793,334.5625 C902.7793,334.5625 902.7793,334.5625 917.7793,334.5625 L927.7793,334.5625 " fill="none" style="stroke:#181818;stroke-width:1;"/><path d="M726.8896,365.9375 L736.8896,365.9375 C751.8896,365.9375 751.8896,334.5625 766.8896,334.5625 L776.8896,334.5625 " fill="none" style="stroke:#181818;stroke-width:1;"/><rect fill="#F1F1F1" height="37.6094" rx="12.5" ry="12.5" style="stroke:#181818;stroke-width:1.5;" width="48" x="776.8896" y="378.5078"/><text fill="#000000" font-family="sans-serif" font-size="14" lengthAdjust="spacing" textLength="28" x="786.8896" y="403.041">&#32618;&#21517;</text><rect fill="#F1F1F1" height="42.75" rx="12.5" ry="12.5" style="stroke:#181818;stroke-width:1.5;" width="240.8896" x="874.8896" y="375.9375"/><text fill="#000000" font-family="sans-serif" font-size="14" lengthAdjust="spacing" textLength="196" x="884.8896" y="405.6113">&#24378;&#22904;&#32618;&#30340;&#29255;&#38754;&#30340;&#23454;&#34892;&#29359;&#65288;&#27491;&#29359;&#65289;</text><path d="M1104.8804,386.7396 C1104.069,386.2134 1102.9857,386.4444 1102.4601,387.2553 L1092.6543,402.37 L1087.8721,397.9483 C1087.1622,397.2921 1086.0556,397.3353 1085.3994,398.0452 C1084.7431,398.7545 1084.7863,399.8623 1085.4962,400.5179 L1091.7752,406.3233 C1091.9555,406.4784 1091.9555,406.4784 1092.0389,406.5327 C1092.3329,406.724 1092.663,406.815 1092.9897,406.815 C1093.5625,406.815 1094.1243,406.5338 1094.4597,406.017 L1105.396,389.1598 C1105.9222,388.349 1105.6912,387.2652 1104.8804,386.7396 " fill="#FE0000" style="stroke:;stroke-width:0;stroke-dasharray:;"/><path d="M824.8896,397.3125 L834.8896,397.3125 C849.8896,397.3125 849.8896,397.3125 864.8896,397.3125 L874.8896,397.3125 " fill="none" style="stroke:#181818;stroke-width:1;"/><path d="M726.8896,365.9375 L736.8896,365.9375 C751.8896,365.9375 751.8896,397.3125 766.8896,397.3125 L776.8896,397.3125 " fill="none" style="stroke:#181818;stroke-width:1;"/><path d="M474.8896,520.2422 L484.8896,520.2422 C499.8896,520.2422 499.8896,365.9375 514.8896,365.9375 L524.8896,365.9375 " fill="none" style="stroke:#181818;stroke-width:1;"/><rect fill="#F1F1F1" height="37.6094" rx="12.5" ry="12.5" style="stroke:#181818;stroke-width:1.5;" width="146" x="524.8896" y="564.1875"/><text fill="#000000" font-family="sans-serif" font-size="14" lengthAdjust="spacing" textLength="126" x="534.8896" y="588.7207">&#21542;&#23450;&#35828;&#65288;&#20445;&#38556;&#20154;&#26435;&#65289;</text><rect fill="#F1F1F1" height="42.75" rx="12.5" ry="12.5" style="stroke:#181818;stroke-width:1.5;" width="100.8896" x="720.8896" y="438.6875"/><text fill="#000000" font-family="sans-serif" font-size="14" lengthAdjust="spacing" textLength="56" x="730.8896" y="468.3613">&#20849;&#21516;&#29359;&#32618;</text><path d="M803.7515,459.1898 L809.5165,453.4248 C810.2002,452.7417 810.2002,451.6333 809.5165,450.9497 C808.8329,450.2666 807.7257,450.2666 807.042,450.9497 L801.277,456.7148 L795.5119,450.9503 C794.8288,450.2666 793.7205,450.2666 793.0368,450.9503 C792.3537,451.6333 792.3537,452.7417 793.0368,453.4253 L798.8019,459.1898 L793.0228,464.9689 C792.3397,465.652 792.3397,466.7603 793.0228,467.4434 C793.364,467.7853 793.8126,467.9562 794.26,467.9562 C794.7075,467.9562 795.156,467.7853 795.4979,467.4434 L801.2764,461.6649 L807.0409,467.4294 C807.3827,467.7713 807.8307,467.9422 808.2781,467.9422 C808.7255,467.9422 809.1735,467.7713 809.5154,467.4294 C810.199,466.7463 810.199,465.638 809.5154,464.9549 L803.7515,459.1898 " fill="#FE0000" style="stroke:;stroke-width:0;stroke-dasharray:;"/><rect fill="#F1F1F1" height="37.6094" rx="12.5" ry="12.5" style="stroke:#181818;stroke-width:1.5;" width="104" x="871.7793" y="441.2578"/><text fill="#000000" font-family="sans-serif" font-size="14" lengthAdjust="spacing" textLength="84" x="881.7793" y="465.791">&#21333;&#29420;&#26500;&#25104;&#29359;&#32618;</text><path d="M821.7793,460.0625 L831.7793,460.0625 C846.7793,460.0625 846.7793,460.0625 861.7793,460.0625 L871.7793,460.0625 " fill="none" style="stroke:#181818;stroke-width:1;"/><path d="M670.8896,582.9922 L680.8896,582.9922 C695.8896,582.9922 695.8896,460.0625 710.8896,460.0625 L720.8896,460.0625 " fill="none" style="stroke:#181818;stroke-width:1;"/><rect fill="#F1F1F1" height="37.6094" rx="12.5" ry="12.5" style="stroke:#181818;stroke-width:1.5;" width="48" x="720.8896" y="566.7578"/><text fill="#000000" font-family="sans-serif" font-size="14" lengthAdjust="spacing" textLength="28" x="730.8896" y="591.291">&#32618;&#21517;</text><rect fill="#F1F1F1" height="42.75" rx="12.5" ry="12.5" style="stroke:#181818;stroke-width:1.5;" width="156.8896" x="818.8896" y="501.4375"/><text fill="#000000" font-family="sans-serif" font-size="14" lengthAdjust="spacing" textLength="112" x="828.8896" y="531.1113">&#21333;&#29420;&#30340;&#25925;&#24847;&#20260;&#23475;&#32618;</text><path d="M964.8804,512.2396 C964.069,511.7134 962.9857,511.9444 962.4601,512.7553 L952.6543,527.87 L947.8721,523.4483 C947.1622,522.7921 946.0556,522.8353 945.3994,523.5452 C944.7431,524.2545 944.7863,525.3623 945.4962,526.0179 L951.7752,531.8233 C951.9555,531.9784 951.9555,531.9784 952.0389,532.0327 C952.3329,532.224 952.663,532.315 952.9897,532.315 C953.5625,532.315 954.1243,532.0338 954.4597,531.517 L965.396,514.6598 C965.9222,513.849 965.6912,512.7652 964.8804,512.2396 " fill="#FE0000" style="stroke:;stroke-width:0;stroke-dasharray:;"/><path d="M768.8896,585.5625 L778.8896,585.5625 C793.8896,585.5625 793.8896,522.8125 808.8896,522.8125 L818.8896,522.8125 " fill="none" style="stroke:#181818;stroke-width:1;"/><rect fill="#F1F1F1" height="42.75" rx="12.5" ry="12.5" style="stroke:#181818;stroke-width:1.5;" width="184.8896" x="818.8896" y="564.1875"/><text fill="#000000" font-family="sans-serif" font-size="14" lengthAdjust="spacing" textLength="140" x="828.8896" y="593.8613">&#24378;&#22904;&#32618;&#30340;&#29255;&#38754;&#30340;&#24110;&#21161;&#29359;</text><path d="M992.8804,574.9896 C992.069,574.4634 990.9857,574.6944 990.4601,575.5053 L980.6543,590.62 L975.8721,586.1983 C975.1622,585.5421 974.0556,585.5853 973.3994,586.2952 C972.7431,587.0045 972.7863,588.1123 973.4962,588.7679 L979.7752,594.5733 C979.9555,594.7284 979.9555,594.7284 980.0389,594.7827 C980.3329,594.974 980.663,595.065 980.9897,595.065 C981.5625,595.065 982.1243,594.7838 982.4597,594.267 L993.396,577.4098 C993.9222,576.599 993.6912,575.5152 992.8804,574.9896 " fill="#FE0000" style="stroke:;stroke-width:0;stroke-dasharray:;"/><path d="M768.8896,585.5625 L778.8896,585.5625 C793.8896,585.5625 793.8896,585.5625 808.8896,585.5625 L818.8896,585.5625 " fill="none" style="stroke:#181818;stroke-width:1;"/><rect fill="#F1F1F1" height="42.75" rx="12.5" ry="12.5" style="stroke:#181818;stroke-width:1.5;" width="226.8896" x="818.8896" y="626.9375"/><text fill="#000000" font-family="sans-serif" font-size="14" lengthAdjust="spacing" textLength="182" x="828.8896" y="656.6113">&#19981;&#26500;&#25104;&#24378;&#22904;&#32618;&#30340;&#29255;&#38754;&#30340;&#23454;&#34892;&#29359;</text><path d="M1027.7515,647.4398 L1033.5165,641.6748 C1034.2002,640.9917 1034.2002,639.8833 1033.5165,639.1997 C1032.8329,638.5166 1031.7257,638.5166 1031.042,639.1997 L1025.277,644.9648 L1019.5119,639.2003 C1018.8288,638.5166 1017.7205,638.5166 1017.0368,639.2003 C1016.3537,639.8833 1016.3537,640.9917 1017.0368,641.6753 L1022.8019,647.4398 L1017.0228,653.2189 C1016.3397,653.902 1016.3397,655.0103 1017.0228,655.6934 C1017.364,656.0353 1017.8126,656.2062 1018.26,656.2062 C1018.7075,656.2062 1019.156,656.0353 1019.4979,655.6934 L1025.2764,649.9149 L1031.0409,655.6794 C1031.3827,656.0213 1031.8307,656.1922 1032.2781,656.1922 C1032.7255,656.1922 1033.1735,656.0213 1033.5154,655.6794 C1034.199,654.9963 1034.199,653.888 1033.5154,653.2049 L1027.7515,647.4398 " fill="#FE0000" style="stroke:;stroke-width:0;stroke-dasharray:;"/><path d="M768.8896,585.5625 L778.8896,585.5625 C793.8896,585.5625 793.8896,648.3125 808.8896,648.3125 L818.8896,648.3125 " fill="none" style="stroke:#181818;stroke-width:1;"/><path d="M670.8896,582.9922 L680.8896,582.9922 C695.8896,582.9922 695.8896,585.5625 710.8896,585.5625 L720.8896,585.5625 " fill="none" style="stroke:#181818;stroke-width:1;"/><rect fill="#F1F1F1" height="37.6094" rx="12.5" ry="12.5" style="stroke:#181818;stroke-width:1.5;" width="48" x="720.8896" y="689.6875"/><text fill="#000000" font-family="sans-serif" font-size="14" lengthAdjust="spacing" textLength="28" x="730.8896" y="714.2207">&#23450;&#32618;</text><rect fill="#F1F1F1" height="37.6094" rx="12.5" ry="12.5" style="stroke:#181818;stroke-width:1.5;" width="174" x="818.8896" y="689.6875"/><text fill="#000000" font-family="sans-serif" font-size="14" lengthAdjust="spacing" textLength="154" x="828.8896" y="714.2207">&#24819;&#35937;&#31454;&#21512;&#65292;&#25321;&#19968;&#37325;&#32618;&#35770;&#22788;</text><path d="M768.8896,708.4922 L778.8896,708.4922 C793.8896,708.4922 793.8896,708.4922 808.8896,708.4922 L818.8896,708.4922 " fill="none" style="stroke:#181818;stroke-width:1;"/><path d="M670.8896,582.9922 L680.8896,582.9922 C695.8896,582.9922 695.8896,708.4922 710.8896,708.4922 L720.8896,708.4922 " fill="none" style="stroke:#181818;stroke-width:1;"/><path d="M474.8896,520.2422 L484.8896,520.2422 C499.8896,520.2422 499.8896,582.9922 514.8896,582.9922 L524.8896,582.9922 " fill="none" style="stroke:#181818;stroke-width:1;"/><path d="M268,520.2422 L278,520.2422 C293,520.2422 293,520.2422 308,520.2422 L318,520.2422 " fill="none" style="stroke:#181818;stroke-width:1;"/><path d="M184,460.0625 L194,460.0625 C209,460.0625 209,520.2422 224,520.2422 L234,520.2422 " fill="none" style="stroke:#181818;stroke-width:1;"/><path d="M86,373.6484 L96,373.6484 C111,373.6484 111,460.0625 126,460.0625 L136,460.0625 " fill="none" style="stroke:#181818;stroke-width:1;"/><!--SRC=[xLXTJnj757tVNp4LBv0A4oA48ej610VKHZYAQfANgaBZtOazONV7tPrrQbL8KG854r0jjRJ552fQ4WcIc2P4geCSzSUKNPid_aBlVi7wO-qjLT-m4FBUEVVSkMVklQFrkCwnnXMgIWhE2S97L1LbGo8e5XiA_kcy89EXd8nLRYZoe8qV18T1nnwZO1E4AwXUN3hP-isiR3TsLWK4dol8UhfeRHmu3wxX-EYeNjmxCxZ6-WzlcomUzFr6czLRgMu4AAsTPGZJJccLVpgklZQh5NDb3xXEQwlm_xYwLl_rEU3TH-lLMxDsP3wl0kLfRVFCoof-RssiEqORTeRv-_6Jba3k4le4MULtvihcQMqPI4vhHVGn0hlrvqkmED6BdYJcyhVMTaa8pnCWYs_CqcfzvQ3-OH-DzMb4YcS9pXTc5KFcD2TJ4NFArDclupSww5P_zggnj5ylBvXhw_3TfMcLvyE-MLhhuEpvWBEJLz2p_Pn0-vyFpD8BQtl1MYurxph-bK5qUvUTzlX57zEmcY5VeiQJ0xDIRXoyisNwQyjQsRKEr-kRAw2xkLksrlzmbeeXXH0gb9WbujoiWhMv3k6RihL-V0z5QoSSu0e95w9QQp403FZSRh29dOO0OaZHUlsxywKOVRV0MdeHrEYa_0jqaRNrz0AwH2YWrbfm3_S_wk9NbRM-Q2ryTrpRDIk75pspZXexNGwRl0WZp0IlWhiUtqM4XErMoc72-IFoiF5cf_vosomjGzLRp_QEguzFbjR0gr4vCdSN1FYC4vZG_fGURnxQOyuKlY5uXbiKPpIie6yWPYmj6yJvXj045kSo6ZDKAS5afY6PPhBSNeVLUHihWKwGO0ZSM_N16OqGjHkp0mYW2pt01H_hJeOGjBleGtE6bfF3eEwY3mrFB92KnlGmjhwfgOc9HC975eWiiqSXM7VHWGenekIoMATwRws2w0d8Kyn2TKJoeXcLQII2m0XDKvMqsiyf8eRjIcMJgIeJYSf3Q7JLKGUXAQPorvIM0TF22bNixKtbG0PjXkM4HXK_qNCaPmhch2FshaPoM7EQzD-utKmpZVSwtgXSdCEnybuL7P4jmHGeQnvssfvd69rzEYh9m841QL3CRjEXrq59XEJqkOA3dcyBC0dJAYrJFHi-MWB-pT4UPIblrIOap1t6UqToiX8BM8sGbOWbmi-2OL6aKdX9DusyNimFeDFqGFl2iqYI-24nUZGnas4B6fC25TYZXNmF9qwEwPJJFBaf1jgXRMnYcKHDv3m5E0lSargXS5FPCpPAJNdNZKsk6-c7HBJfmzJ1URWVYHQHDqyPT913pNensxf7bjlhPNy8dZLkzrvjgkNkKy9XdXV6Xhmh__Abw_Abw_Abw_Abw_Abwtz_wRfh__XrBpcDyaJJxJjkE7RjwhMHsFN-5ERe3ikZuL5qTJW-CX8V6KM9r0oobmU4_kHdCqXd1bpnI88BKADfmzxzW70Rvp7wt80xGY5nP3_rpoG7K6hIDw99DKyrfYfmBmYtxoTT4FgKyLIESGSyEZ8uGJbA4GssXUudXLla0GQLm5La4bKpSNHlPchmkZ0DdM_W30I26pi15mlN2h2M-WS0]--></g></svg>