<svg xmlns="http://www.w3.org/2000/svg" xmlns:xlink="http://www.w3.org/1999/xlink" contentStyleType="text/css" height="598px" preserveAspectRatio="none" style="width:1330px;height:598px;background:#FFFFFF;" version="1.1" viewBox="0 0 1330 598" width="1330px" zoomAndPan="magnify"><defs/><g><rect fill="#F1F1F1" height="37.6094" rx="12.5" ry="12.5" style="stroke:#181818;stroke-width:1.5;" width="136.6621" x="10" y="279.2422"/><text fill="#000000" font-family="sans-serif" font-size="14" lengthAdjust="spacing" textLength="116.6621" x="20" y="303.7754">&#38388;&#25509;&#27491;&#29359;-&#25104;&#31435;&#26465;&#20214;</text><rect fill="#F1F1F1" height="37.6094" rx="12.5" ry="12.5" style="stroke:#181818;stroke-width:1.5;" width="90" x="196.6621" y="250.4375"/><text fill="#000000" font-family="sans-serif" font-size="14" lengthAdjust="spacing" textLength="70" x="206.6621" y="274.9707">&#23458;&#35266;&#36829;&#27861;&#23618;</text><rect fill="#F1F1F1" height="37.6094" rx="12.5" ry="12.5" style="stroke:#181818;stroke-width:1.5;" width="48" x="336.6621" y="192.8281"/><text fill="#000000" font-family="sans-serif" font-size="14" lengthAdjust="spacing" textLength="28" x="346.6621" y="217.3613">&#24341;&#36215;</text><path d="M286.6621,269.2422 L296.6621,269.2422 C311.6621,269.2422 311.6621,211.6328 326.6621,211.6328 L336.6621,211.6328 " fill="none" style="stroke:#181818;stroke-width:1;"/><rect fill="#90EE90" height="37.6094" rx="12.5" ry="12.5" style="stroke:#181818;stroke-width:1.5;" width="51.8896" x="336.6621" y="250.4375"/><text fill="#000000" font-family="sans-serif" font-size="14" lengthAdjust="spacing" textLength="28" x="346.6621" y="274.9707">&#25903;&#37197;</text><rect fill="#F1F1F1" height="37.6094" rx="12.5" ry="12.5" style="stroke:#181818;stroke-width:1.5;" width="76" x="438.5518" y="77.6094"/><text fill="#000000" font-family="sans-serif" font-size="14" lengthAdjust="spacing" textLength="56" x="448.5518" y="102.1426">&#24378;&#21046;&#25163;&#27573;</text><rect fill="#F1F1F1" height="37.6094" rx="12.5" ry="12.5" style="stroke:#181818;stroke-width:1.5;" width="202" x="564.5518" y="20"/><text fill="#000000" font-family="sans-serif" font-size="14" lengthAdjust="spacing" textLength="182" x="574.5518" y="44.5332">&#36843;&#20351;&#26080;&#36131;&#20219;&#24180;&#40836;&#30340;&#20154;&#23454;&#26045;&#29359;&#32618;</text><path d="M514.5518,96.4141 L524.5518,96.4141 C539.5518,96.4141 539.5518,38.8047 554.5518,38.8047 L564.5518,38.8047 " fill="none" style="stroke:#181818;stroke-width:1;"/><rect fill="#F1F1F1" height="37.6094" rx="12.5" ry="12.5" style="stroke:#181818;stroke-width:1.5;" width="132" x="564.5518" y="77.6094"/><text fill="#000000" font-family="sans-serif" font-size="14" lengthAdjust="spacing" textLength="112" x="574.5518" y="102.1426">&#24378;&#36843;&#20182;&#20154;&#23454;&#26045;&#29359;&#32618;</text><path d="M514.5518,96.4141 L524.5518,96.4141 C539.5518,96.4141 539.5518,96.4141 554.5518,96.4141 L564.5518,96.4141 " fill="none" style="stroke:#181818;stroke-width:1;"/><rect fill="#F1F1F1" height="37.6094" rx="12.5" ry="12.5" style="stroke:#181818;stroke-width:1.5;" width="174" x="564.5518" y="135.2188"/><text fill="#000000" font-family="sans-serif" font-size="14" lengthAdjust="spacing" textLength="154" x="574.5518" y="159.752">&#24378;&#36843;&#34987;&#23475;&#20154;&#23454;&#26045;&#33258;&#25439;&#34892;&#20026;</text><path d="M514.5518,96.4141 L524.5518,96.4141 C539.5518,96.4141 539.5518,154.0234 554.5518,154.0234 L564.5518,154.0234 " fill="none" style="stroke:#181818;stroke-width:1;"/><path d="M388.5518,269.2422 L398.5518,269.2422 C413.5518,269.2422 413.5518,96.4141 428.5518,96.4141 L438.5518,96.4141 " fill="none" style="stroke:#181818;stroke-width:1;"/><rect fill="#F1F1F1" height="37.6094" rx="12.5" ry="12.5" style="stroke:#181818;stroke-width:1.5;" width="76" x="438.5518" y="279.2422"/><text fill="#000000" font-family="sans-serif" font-size="14" lengthAdjust="spacing" textLength="56" x="448.5518" y="303.7754">&#27450;&#39575;&#25163;&#27573;</text><rect fill="#F1F1F1" height="37.6094" rx="12.5" ry="12.5" style="stroke:#181818;stroke-width:1.5;" width="48" x="564.5518" y="192.8281"/><text fill="#000000" font-family="sans-serif" font-size="14" lengthAdjust="spacing" textLength="28" x="574.5518" y="217.3613">&#24341;&#35825;</text><rect fill="#F1F1F1" height="37.6094" rx="12.5" ry="12.5" style="stroke:#181818;stroke-width:1.5;" width="202" x="662.5518" y="192.8281"/><text fill="#000000" font-family="sans-serif" font-size="14" lengthAdjust="spacing" textLength="182" x="672.5518" y="217.3613">&#26080;&#36131;&#20219;&#24180;&#40836;&#12289;&#26080;&#36131;&#20219;&#33021;&#21147;&#30340;&#20154;</text><path d="M612.5518,211.6328 L622.5518,211.6328 C637.5518,211.6328 637.5518,211.6328 652.5518,211.6328 L662.5518,211.6328 " fill="none" style="stroke:#181818;stroke-width:1;"/><path d="M514.5518,298.0469 L524.5518,298.0469 C539.5518,298.0469 539.5518,211.6328 554.5518,211.6328 L564.5518,211.6328 " fill="none" style="stroke:#181818;stroke-width:1;"/><rect fill="#F1F1F1" height="37.6094" rx="12.5" ry="12.5" style="stroke:#181818;stroke-width:1.5;" width="48" x="564.5518" y="308.0469"/><text fill="#000000" font-family="sans-serif" font-size="14" lengthAdjust="spacing" textLength="28" x="574.5518" y="332.5801">&#27450;&#39575;</text><rect fill="#F1F1F1" height="37.6094" rx="12.5" ry="12.5" style="stroke:#181818;stroke-width:1.5;" width="160" x="662.5518" y="250.4375"/><text fill="#000000" font-family="sans-serif" font-size="14" lengthAdjust="spacing" textLength="140" x="672.5518" y="274.9707">&#21033;&#29992;&#20182;&#20154;&#26377;&#36807;&#22833;&#30340;&#34892;&#20026;</text><path d="M612.5518,326.8516 L622.5518,326.8516 C637.5518,326.8516 637.5518,269.2422 652.5518,269.2422 L662.5518,269.2422 " fill="none" style="stroke:#181818;stroke-width:1;"/><rect fill="#F1F1F1" height="37.6094" rx="12.5" ry="12.5" style="stroke:#181818;stroke-width:1.5;" width="160" x="662.5518" y="308.0469"/><text fill="#000000" font-family="sans-serif" font-size="14" lengthAdjust="spacing" textLength="140" x="672.5518" y="332.5801">&#21033;&#29992;&#20182;&#20154;&#26377;&#25925;&#24847;&#30340;&#34892;&#20026;</text><rect fill="#F1F1F1" height="37.6094" rx="12.5" ry="12.5" style="stroke:#181818;stroke-width:1.5;" width="76" x="872.5518" y="308.0469"/><text fill="#000000" font-family="sans-serif" font-size="14" lengthAdjust="spacing" textLength="56" x="882.5518" y="332.5801">&#34892;&#20026;&#27169;&#22411;</text><rect fill="#F1F1F1" height="37.6094" rx="12.5" ry="12.5" style="stroke:#181818;stroke-width:1.5;" width="320.2344" x="998.5518" y="308.0469"/><text fill="#000000" font-family="sans-serif" font-size="14" lengthAdjust="spacing" textLength="300.2344" x="1008.5518" y="332.5801">&#21033;&#29992;&#20182;&#20154;&#29359; A &#32618;&#30340;&#25925;&#24847;&#65292;&#23454;&#29616;&#33258;&#24049;&#29359; B &#32618;&#30340;&#30446;&#30340;</text><path d="M948.5518,326.8516 L958.5518,326.8516 C973.5518,326.8516 973.5518,326.8516 988.5518,326.8516 L998.5518,326.8516 " fill="none" style="stroke:#181818;stroke-width:1;"/><path d="M822.5518,326.8516 L832.5518,326.8516 C847.5518,326.8516 847.5518,326.8516 862.5518,326.8516 L872.5518,326.8516 " fill="none" style="stroke:#181818;stroke-width:1;"/><path d="M612.5518,326.8516 L622.5518,326.8516 C637.5518,326.8516 637.5518,326.8516 652.5518,326.8516 L662.5518,326.8516 " fill="none" style="stroke:#181818;stroke-width:1;"/><rect fill="#F1F1F1" height="37.6094" rx="12.5" ry="12.5" style="stroke:#181818;stroke-width:1.5;" width="146" x="662.5518" y="365.6563"/><text fill="#000000" font-family="sans-serif" font-size="14" lengthAdjust="spacing" textLength="126" x="672.5518" y="390.1895">&#34987;&#23475;&#20154;&#23454;&#26045;&#33258;&#25439;&#34892;&#20026;</text><path d="M612.5518,326.8516 L622.5518,326.8516 C637.5518,326.8516 637.5518,384.4609 652.5518,384.4609 L662.5518,384.4609 " fill="none" style="stroke:#181818;stroke-width:1;"/><path d="M514.5518,298.0469 L524.5518,298.0469 C539.5518,298.0469 539.5518,326.8516 554.5518,326.8516 L564.5518,326.8516 " fill="none" style="stroke:#181818;stroke-width:1;"/><path d="M388.5518,269.2422 L398.5518,269.2422 C413.5518,269.2422 413.5518,298.0469 428.5518,298.0469 L438.5518,298.0469 " fill="none" style="stroke:#181818;stroke-width:1;"/><rect fill="#F1F1F1" height="37.6094" rx="12.5" ry="12.5" style="stroke:#181818;stroke-width:1.5;" width="76" x="438.5518" y="452.0703"/><text fill="#000000" font-family="sans-serif" font-size="14" lengthAdjust="spacing" textLength="56" x="448.5518" y="476.6035">&#27861;&#23450;&#36523;&#20221;</text><rect fill="#F1F1F1" height="37.6094" rx="12.5" ry="12.5" style="stroke:#181818;stroke-width:1.5;" width="76" x="564.5518" y="423.2656"/><text fill="#000000" font-family="sans-serif" font-size="14" lengthAdjust="spacing" textLength="56" x="574.5518" y="447.7988">&#34892;&#20026;&#27169;&#22411;</text><rect fill="#F1F1F1" height="37.6094" rx="12.5" ry="12.5" style="stroke:#181818;stroke-width:1.5;" width="160" x="690.5518" y="423.2656"/><text fill="#000000" font-family="sans-serif" font-size="14" lengthAdjust="spacing" textLength="140" x="700.5518" y="447.7988">&#26377;&#36523;&#20221;&#32773;&#21033;&#29992;&#26080;&#36523;&#20221;&#32773;</text><path d="M640.5518,442.0703 L650.5518,442.0703 C665.5518,442.0703 665.5518,442.0703 680.5518,442.0703 L690.5518,442.0703 " fill="none" style="stroke:#181818;stroke-width:1;"/><path d="M514.5518,470.875 L524.5518,470.875 C539.5518,470.875 539.5518,442.0703 554.5518,442.0703 L564.5518,442.0703 " fill="none" style="stroke:#181818;stroke-width:1;"/><rect fill="#F1F1F1" height="37.6094" rx="12.5" ry="12.5" style="stroke:#181818;stroke-width:1.5;" width="48" x="564.5518" y="480.875"/><text fill="#000000" font-family="sans-serif" font-size="14" lengthAdjust="spacing" textLength="28" x="574.5518" y="505.4082">&#31034;&#20363;</text><rect fill="#F1F1F1" height="37.6094" rx="12.5" ry="12.5" style="stroke:#181818;stroke-width:1.5;" width="118" x="662.5518" y="480.875"/><text fill="#000000" font-family="sans-serif" font-size="14" lengthAdjust="spacing" textLength="98" x="672.5518" y="505.4082">&#34384;&#24453;&#34987;&#30417;&#31649;&#20154;&#32618;</text><rect fill="#F1F1F1" height="37.6094" rx="12.5" ry="12.5" style="stroke:#181818;stroke-width:1.5;" width="62" x="830.5518" y="480.875"/><text fill="#000000" font-family="sans-serif" font-size="14" lengthAdjust="spacing" textLength="42" x="840.5518" y="505.4082">&#36523;&#20221;&#29359;</text><rect fill="#F1F1F1" height="37.6094" rx="12.5" ry="12.5" style="stroke:#181818;stroke-width:1.5;" width="76" x="942.5518" y="480.875"/><text fill="#000000" font-family="sans-serif" font-size="14" lengthAdjust="spacing" textLength="56" x="952.5518" y="505.4082">&#30417;&#31649;&#20154;&#21592;</text><path d="M892.5518,499.6797 L902.5518,499.6797 C917.5518,499.6797 917.5518,499.6797 932.5518,499.6797 L942.5518,499.6797 " fill="none" style="stroke:#181818;stroke-width:1;"/><path d="M780.5518,499.6797 L790.5518,499.6797 C805.5518,499.6797 805.5518,499.6797 820.5518,499.6797 L830.5518,499.6797 " fill="none" style="stroke:#181818;stroke-width:1;"/><path d="M612.5518,499.6797 L622.5518,499.6797 C637.5518,499.6797 637.5518,499.6797 652.5518,499.6797 L662.5518,499.6797 " fill="none" style="stroke:#181818;stroke-width:1;"/><path d="M514.5518,470.875 L524.5518,470.875 C539.5518,470.875 539.5518,499.6797 554.5518,499.6797 L564.5518,499.6797 " fill="none" style="stroke:#181818;stroke-width:1;"/><path d="M388.5518,269.2422 L398.5518,269.2422 C413.5518,269.2422 413.5518,470.875 428.5518,470.875 L438.5518,470.875 " fill="none" style="stroke:#181818;stroke-width:1;"/><path d="M286.6621,269.2422 L296.6621,269.2422 C311.6621,269.2422 311.6621,269.2422 326.6621,269.2422 L336.6621,269.2422 " fill="none" style="stroke:#181818;stroke-width:1;"/><path d="M146.6621,298.0469 L156.6621,298.0469 C171.6621,298.0469 171.6621,269.2422 186.6621,269.2422 L196.6621,269.2422 " fill="none" style="stroke:#181818;stroke-width:1;"/><rect fill="#F1F1F1" height="37.6094" rx="12.5" ry="12.5" style="stroke:#181818;stroke-width:1.5;" width="90" x="196.6621" y="538.4844"/><text fill="#000000" font-family="sans-serif" font-size="14" lengthAdjust="spacing" textLength="70" x="206.6621" y="563.0176">&#20027;&#35266;&#36131;&#20219;&#23618;</text><rect fill="#90EE90" height="37.6094" rx="12.5" ry="12.5" style="stroke:#181818;stroke-width:1.5;" width="93.8896" x="336.6621" y="538.4844"/><text fill="#000000" font-family="sans-serif" font-size="14" lengthAdjust="spacing" textLength="70" x="346.6621" y="563.0176">&#24517;&#39035;&#26159;&#25925;&#24847;</text><path d="M286.6621,557.2891 L296.6621,557.2891 C311.6621,557.2891 311.6621,557.2891 326.6621,557.2891 L336.6621,557.2891 " fill="none" style="stroke:#181818;stroke-width:1;"/><path d="M146.6621,298.0469 L156.6621,298.0469 C171.6621,298.0469 171.6621,557.2891 186.6621,557.2891 L196.6621,557.2891 " fill="none" style="stroke:#181818;stroke-width:1;"/><!--SRC=[xLXRJnj757xVNp5LNo2IJOWGYX12O0VKHZYAQfBtyUx4th2xOytEEh8gf3G5XOGaJQGGqj2a9KdL55fJ57Af7V2FgNUzVkfVwDcRMOFNk-ap227xdEzyPyvrD4ph73Ekofgauh8WV25hec981ANJ8-5VdLSLCb9MiCODLKav-1GOf5nvMWQP89n1dOrzwy6lrf-lsdTtKzRgm_REclLygzLuBo3uEOFCsalxjrjsyxdrTjtSk-LAVSsdTVlTXv30UhpRMRcF9YU9MYvXNTQdfhhQmAHkhhwtxgnPjNSzAazjDtTQ1qrhunTx_rMhqJ3_tkySBhUVBRVgTRFsmdfo06Ti7sptiGHYnxZn92dKVhbZrjvsqVRjRUl-p_RMlTR7-h4pMt_KEziRaMTsih2xTqBXs_Q6yi_DxxeI-_i3y-wc5rmVMizh1Asv-dlxyHilMkkdEtRpjlbw3wZwd3_Io5fViPP_66paLyK5M6-sp1ThaR2JFg00Q0P13S27v-pVJ_SWs-q7Vq6spGzx3Y3Z0zgRDVWRSVBFg1NqQEsPNOTEE13-HoJ00EbqpUsRAruqJiK2IH_Ezkjwwp2ApVxneNcu0kTlRpvgrxQShFJfoH3UTGI9YSbpbyvyzDIVqzR7XZEdNhVrpcbpfRFLi9xkUbNedKz1c2QmHu9TCjsxMYRTNJ4b-88BCYuohA9lWJrTK0pYVa8eWyN58gE69cMfGXbIv6A9EthGBZbO2RD5HgG8kAyDm4L6Y3Q8sGM4qDKOS3N0KeQrOjIXFMK0BHkih4H1FMK0ZGui51IZUXJRbtDpcKms6o2hH57eZGYiftIXGZeeOtokmkWCn2cMe2yIMSb5ZJAI8C48pSiQEIu_eaZeTY2LGwPfL2GQZw3HDJSx2CrHZNkYWWAOOwpGnVxPD0vaCjMmacMo6WHwXEHKnPpsnLvcf8mPTYIVOpPJe8p7bJSf5-TGLXxNqGdPibI5jkPHrVOje-YSwcYa20K3qd0o1ss7k499X9JrnQgBNZhXO1QsLK6HzLBqQWdPztgxKPBvyTn4kBb4URmdDognYhK4KObO8hph38kYB4MtTC_AYsE-1fEcXyONleiaXwyJ8sQ8gG97O5GATM3C20KMhfyorMKkLyYC61g74siJAoHf84SXG2rmBBKgmqtbxDWaFULVDmwvRXIk4z6XZyeEhi3zI5X2tefCOO9SQXh7xEGzSRhzMGwMO7Tm1yzgJoyFtX8kyv8mEU9V-QTFWzEdmUdJuFHfq7qBN7R-aN0bDuygXEdE9XvDdpjxRYnzVYYFERf4AsXq79qTdHWRcnWRHzdy0dBKmy9Gxki5f5C3BY8amPfcSi5mTjUmS15NCFh6W4scaWdaV1jQo0sZ_6mWHBDQHMPKKs5x2HUlvZmG-ehoV9bo5pm-bih87EK9WsEXgpdX0hc63OM3gKWbMIjEe2iBSwdpmZniEGCNmH7SArbOVvnLGPV_3m00]--></g></svg>