<svg xmlns="http://www.w3.org/2000/svg" xmlns:xlink="http://www.w3.org/1999/xlink" contentStyleType="text/css" height="1254px" preserveAspectRatio="none" style="width:1032px;height:1254px;background:#FFFFFF;" version="1.1" viewBox="0 0 1032 1254" width="1032px" zoomAndPan="magnify"><defs/><g><rect fill="#F1F1F1" height="37.6094" rx="12.5" ry="12.5" style="stroke:#181818;stroke-width:1.5;" width="62" x="10" y="607.6602"/><text fill="#000000" font-family="sans-serif" font-size="14" lengthAdjust="spacing" textLength="42" x="20" y="632.1934">&#24110;&#21161;&#29359;</text><rect fill="#F1F1F1" height="37.6094" rx="12.5" ry="12.5" style="stroke:#181818;stroke-width:1.5;" width="76" x="122" y="175.5898"/><text fill="#000000" font-family="sans-serif" font-size="14" lengthAdjust="spacing" textLength="56" x="132" y="200.123">&#25104;&#31435;&#26465;&#20214;</text><rect fill="#F1F1F1" height="37.6094" rx="12.5" ry="12.5" style="stroke:#181818;stroke-width:1.5;" width="90" x="248" y="112.8398"/><text fill="#000000" font-family="sans-serif" font-size="14" lengthAdjust="spacing" textLength="70" x="258" y="137.373">&#23458;&#35266;&#36829;&#27861;&#23618;</text><rect fill="#F1F1F1" height="42.75" rx="12.5" ry="12.5" style="stroke:#181818;stroke-width:1.5;" width="72.8896" x="388" y="75.0391"/><text fill="#000000" font-family="sans-serif" font-size="14" lengthAdjust="spacing" textLength="28" x="398" y="104.7129">&#20419;&#36827;</text><path d="M449.9907,85.8411 C449.1793,85.315 448.0961,85.546 447.5705,86.3568 L437.7646,101.4716 L432.9825,97.0499 C432.2726,96.3936 431.166,96.4368 430.5097,97.1467 C429.8535,97.8561 429.8966,98.9638 430.6066,99.6195 L436.8856,105.4248 C437.0658,105.58 437.0658,105.58 437.1492,105.6342 C437.4432,105.8256 437.7734,105.9166 438.1001,105.9166 C438.6729,105.9166 439.2346,105.6354 439.5701,105.1186 L450.5064,88.2614 C451.0326,87.4506 450.8016,86.3667 449.9907,85.8411 " fill="#FE0000" style="stroke:;stroke-width:0;stroke-dasharray:;"/><rect fill="#F1F1F1" height="37.6094" rx="12.5" ry="12.5" style="stroke:#181818;stroke-width:1.5;" width="76" x="510.8896" y="20"/><text fill="#000000" font-family="sans-serif" font-size="14" lengthAdjust="spacing" textLength="56" x="520.8896" y="44.5332">&#20419;&#36827;&#34892;&#20026;</text><rect fill="#F1F1F1" height="37.6094" rx="12.5" ry="12.5" style="stroke:#181818;stroke-width:1.5;" width="118" x="636.8896" y="20"/><text fill="#000000" font-family="sans-serif" font-size="14" lengthAdjust="spacing" textLength="98" x="646.8896" y="44.5332">&#21487;&#33021;&#30340;&#20419;&#36827;&#20316;&#29992;</text><rect fill="#F1F1F1" height="37.6094" rx="12.5" ry="12.5" style="stroke:#181818;stroke-width:1.5;" width="216" x="804.8896" y="20"/><text fill="#000000" font-family="sans-serif" font-size="14" lengthAdjust="spacing" textLength="196" x="814.8896" y="44.5332">&#36830;&#25509;&#21040;&#12302;&#27491;&#29359;&#12303;&#30340;&#12302;&#36829;&#27861;&#34892;&#20026;&#12303;</text><path d="M754.8896,38.8047 L764.8896,38.8047 C779.8896,38.8047 779.8896,38.8047 794.8896,38.8047 L804.8896,38.8047 " fill="none" style="stroke:#181818;stroke-width:1;"/><path d="M586.8896,38.8047 L596.8896,38.8047 C611.8896,38.8047 611.8896,38.8047 626.8896,38.8047 L636.8896,38.8047 " fill="none" style="stroke:#181818;stroke-width:1;"/><path d="M460.8896,96.4141 L470.8896,96.4141 C485.8896,96.4141 485.8896,38.8047 500.8896,38.8047 L510.8896,38.8047 " fill="none" style="stroke:#181818;stroke-width:1;"/><rect fill="#F1F1F1" height="37.6094" rx="12.5" ry="12.5" style="stroke:#181818;stroke-width:1.5;" width="76" x="510.8896" y="106.4141"/><text fill="#000000" font-family="sans-serif" font-size="14" lengthAdjust="spacing" textLength="56" x="520.8896" y="130.9473">&#20419;&#36827;&#34920;&#29616;</text><rect fill="#F1F1F1" height="37.6094" rx="12.5" ry="12.5" style="stroke:#181818;stroke-width:1.5;" width="90" x="636.8896" y="77.6094"/><text fill="#000000" font-family="sans-serif" font-size="14" lengthAdjust="spacing" textLength="70" x="646.8896" y="102.1426">&#29289;&#29702;&#24615;&#24110;&#21161;</text><path d="M586.8896,125.2188 L596.8896,125.2188 C611.8896,125.2188 611.8896,96.4141 626.8896,96.4141 L636.8896,96.4141 " fill="none" style="stroke:#181818;stroke-width:1;"/><rect fill="#F1F1F1" height="37.6094" rx="12.5" ry="12.5" style="stroke:#181818;stroke-width:1.5;" width="90" x="636.8896" y="135.2188"/><text fill="#000000" font-family="sans-serif" font-size="14" lengthAdjust="spacing" textLength="70" x="646.8896" y="159.752">&#24515;&#29702;&#24615;&#24110;&#21161;</text><path d="M586.8896,125.2188 L596.8896,125.2188 C611.8896,125.2188 611.8896,154.0234 626.8896,154.0234 L636.8896,154.0234 " fill="none" style="stroke:#181818;stroke-width:1;"/><path d="M460.8896,96.4141 L470.8896,96.4141 C485.8896,96.4141 485.8896,125.2188 500.8896,125.2188 L510.8896,125.2188 " fill="none" style="stroke:#181818;stroke-width:1;"/><path d="M338,131.6445 L348,131.6445 C363,131.6445 363,96.4141 378,96.4141 L388,96.4141 " fill="none" style="stroke:#181818;stroke-width:1;"/><rect fill="#F1F1F1" height="42.75" rx="12.5" ry="12.5" style="stroke:#181818;stroke-width:1.5;" width="72.8896" x="388" y="137.7891"/><text fill="#000000" font-family="sans-serif" font-size="14" lengthAdjust="spacing" textLength="28" x="398" y="167.4629">&#24341;&#36215;</text><path d="M442.8618,158.2914 L448.6269,152.5263 C449.3106,151.8432 449.3106,150.7349 448.6269,150.0512 C447.9432,149.3681 446.8361,149.3681 446.1524,150.0512 L440.3873,155.8163 L434.6222,150.0518 C433.9391,149.3681 432.8308,149.3681 432.1471,150.0518 C431.4641,150.7349 431.4641,151.8432 432.1471,152.5269 L437.9122,158.2914 L432.1331,164.0705 C431.4501,164.7536 431.4501,165.8619 432.1331,166.545 C432.4744,166.8868 432.923,167.0577 433.3704,167.0577 C433.8178,167.0577 434.2664,166.8868 434.6082,166.545 L440.3867,160.7665 L446.1512,166.531 C446.4931,166.8728 446.9411,167.0437 447.3885,167.0437 C447.8359,167.0437 448.2839,166.8728 448.6257,166.531 C449.3094,165.8479 449.3094,164.7396 448.6257,164.0565 L442.8618,158.2914 " fill="#FE0000" style="stroke:;stroke-width:0;stroke-dasharray:;"/><path d="M338,131.6445 L348,131.6445 C363,131.6445 363,159.1641 378,159.1641 L388,159.1641 " fill="none" style="stroke:#181818;stroke-width:1;"/><rect fill="#F1F1F1" height="42.75" rx="12.5" ry="12.5" style="stroke:#181818;stroke-width:1.5;" width="72.8896" x="388" y="200.5391"/><text fill="#000000" font-family="sans-serif" font-size="14" lengthAdjust="spacing" textLength="28" x="398" y="230.2129">&#25903;&#37197;</text><path d="M442.8618,221.0414 L448.6269,215.2763 C449.3106,214.5932 449.3106,213.4849 448.6269,212.8012 C447.9432,212.1181 446.8361,212.1181 446.1524,212.8012 L440.3873,218.5663 L434.6222,212.8018 C433.9391,212.1181 432.8308,212.1181 432.1471,212.8018 C431.4641,213.4849 431.4641,214.5932 432.1471,215.2769 L437.9122,221.0414 L432.1331,226.8205 C431.4501,227.5036 431.4501,228.6119 432.1331,229.295 C432.4744,229.6368 432.923,229.8077 433.3704,229.8077 C433.8178,229.8077 434.2664,229.6368 434.6082,229.295 L440.3867,223.5165 L446.1512,229.281 C446.4931,229.6228 446.9411,229.7937 447.3885,229.7937 C447.8359,229.7937 448.2839,229.6228 448.6257,229.281 C449.3094,228.5979 449.3094,227.4896 448.6257,226.8065 L442.8618,221.0414 " fill="#FE0000" style="stroke:;stroke-width:0;stroke-dasharray:;"/><path d="M338,131.6445 L348,131.6445 C363,131.6445 363,221.9141 378,221.9141 L388,221.9141 " fill="none" style="stroke:#181818;stroke-width:1;"/><path d="M198,194.3945 L208,194.3945 C223,194.3945 223,131.6445 238,131.6445 L248,131.6445 " fill="none" style="stroke:#181818;stroke-width:1;"/><rect fill="#F1F1F1" height="37.6094" rx="12.5" ry="12.5" style="stroke:#181818;stroke-width:1.5;" width="90" x="248" y="297.2344"/><text fill="#000000" font-family="sans-serif" font-size="14" lengthAdjust="spacing" textLength="70" x="258" y="321.7676">&#20027;&#35266;&#36131;&#20219;&#23618;</text><rect fill="#F1F1F1" height="42.75" rx="12.5" ry="12.5" style="stroke:#181818;stroke-width:1.5;" width="72.8896" x="388" y="263.2891"/><text fill="#000000" font-family="sans-serif" font-size="14" lengthAdjust="spacing" textLength="28" x="398" y="292.9629">&#25925;&#24847;</text><path d="M449.9907,274.0911 C449.1793,273.565 448.0961,273.796 447.5705,274.6068 L437.7646,289.7216 L432.9825,285.2999 C432.2726,284.6436 431.166,284.6868 430.5097,285.3967 C429.8535,286.1061 429.8966,287.2138 430.6066,287.8695 L436.8856,293.6748 C437.0658,293.83 437.0658,293.83 437.1492,293.8842 C437.4432,294.0756 437.7734,294.1666 438.1001,294.1666 C438.6729,294.1666 439.2346,293.8854 439.5701,293.3686 L450.5064,276.5114 C451.0326,275.7006 450.8016,274.6167 449.9907,274.0911 " fill="#FE0000" style="stroke:;stroke-width:0;stroke-dasharray:;"/><path d="M338,316.0391 L348,316.0391 C363,316.0391 363,284.6641 378,284.6641 L388,284.6641 " fill="none" style="stroke:#181818;stroke-width:1;"/><rect fill="#F1F1F1" height="42.75" rx="12.5" ry="12.5" style="stroke:#181818;stroke-width:1.5;" width="72.8896" x="388" y="326.0391"/><text fill="#000000" font-family="sans-serif" font-size="14" lengthAdjust="spacing" textLength="28" x="398" y="355.7129">&#36807;&#22833;</text><path d="M442.8618,346.5414 L448.6269,340.7763 C449.3106,340.0932 449.3106,338.9849 448.6269,338.3012 C447.9432,337.6181 446.8361,337.6181 446.1524,338.3012 L440.3873,344.0663 L434.6222,338.3018 C433.9391,337.6181 432.8308,337.6181 432.1471,338.3018 C431.4641,338.9849 431.4641,340.0932 432.1471,340.7769 L437.9122,346.5414 L432.1331,352.3205 C431.4501,353.0036 431.4501,354.1119 432.1331,354.795 C432.4744,355.1368 432.923,355.3077 433.3704,355.3077 C433.8178,355.3077 434.2664,355.1368 434.6082,354.795 L440.3867,349.0165 L446.1512,354.781 C446.4931,355.1228 446.9411,355.2937 447.3885,355.2937 C447.8359,355.2937 448.2839,355.1228 448.6257,354.781 C449.3094,354.0979 449.3094,352.9896 448.6257,352.3065 L442.8618,346.5414 " fill="#FE0000" style="stroke:;stroke-width:0;stroke-dasharray:;"/><path d="M338,316.0391 L348,316.0391 C363,316.0391 363,347.4141 378,347.4141 L388,347.4141 " fill="none" style="stroke:#181818;stroke-width:1;"/><path d="M198,194.3945 L208,194.3945 C223,194.3945 223,316.0391 238,316.0391 L248,316.0391 " fill="none" style="stroke:#181818;stroke-width:1;"/><path d="M72,626.4648 L82,626.4648 C97,626.4648 97,194.3945 112,194.3945 L122,194.3945 " fill="none" style="stroke:#181818;stroke-width:1;"/><rect fill="#F1F1F1" height="37.6094" rx="12.5" ry="12.5" style="stroke:#181818;stroke-width:1.5;" width="76" x="122" y="691.2383"/><text fill="#000000" font-family="sans-serif" font-size="14" lengthAdjust="spacing" textLength="56" x="132" y="715.7715">&#29359;&#32618;&#24418;&#24577;</text><rect fill="#F1F1F1" height="37.6094" rx="12.5" ry="12.5" style="stroke:#181818;stroke-width:1.5;" width="48" x="248" y="388.7891"/><text fill="#000000" font-family="sans-serif" font-size="14" lengthAdjust="spacing" textLength="28" x="258" y="413.3223">&#24773;&#26223;</text><rect fill="#F1F1F1" height="37.6094" rx="12.5" ry="12.5" style="stroke:#181818;stroke-width:1.5;" width="384" x="346" y="388.7891"/><text fill="#000000" font-family="sans-serif" font-size="14" lengthAdjust="spacing" textLength="364" x="356" y="413.3223">&#30002;&#30423;&#31363;&#65292;&#20057;&#25552;&#20379;&#38053;&#21273;&#65292;&#21435;&#19993;&#23478;&#65292;&#30002;&#30423;&#31363;&#25104;&#21151;&#65292;&#20057;&#29359;&#20160;&#20040;&#32618;&#65311;</text><path d="M296,407.5938 L306,407.5938 C321,407.5938 321,407.5938 336,407.5938 L346,407.5938 " fill="none" style="stroke:#181818;stroke-width:1;"/><path d="M198,710.043 L208,710.043 C223,710.043 223,407.5938 238,407.5938 L248,407.5938 " fill="none" style="stroke:#181818;stroke-width:1;"/><rect fill="#F1F1F1" height="37.6094" rx="12.5" ry="12.5" style="stroke:#181818;stroke-width:1.5;" width="90" x="248" y="504.0078"/><text fill="#000000" font-family="sans-serif" font-size="14" lengthAdjust="spacing" textLength="70" x="258" y="528.541">&#37325;&#35201;&#26102;&#38388;&#28857;</text><rect fill="#F1F1F1" height="37.6094" rx="12.5" ry="12.5" style="stroke:#181818;stroke-width:1.5;" width="132" x="388" y="446.3984"/><text fill="#000000" font-family="sans-serif" font-size="14" lengthAdjust="spacing" textLength="112" x="398" y="470.9316">&#26159;&#21542;&#25104;&#31435;&#24110;&#21161;&#29359;&#65311;</text><rect fill="#F1F1F1" height="37.6094" rx="12.5" ry="12.5" style="stroke:#181818;stroke-width:1.5;" width="230" x="570" y="446.3984"/><text fill="#000000" font-family="sans-serif" font-size="14" lengthAdjust="spacing" textLength="210" x="580" y="470.9316">&#12302;&#24110;&#21161;&#34892;&#20026;&#12303;&#36830;&#25509;&#21040;&#12302;&#27491;&#29359;&#34892;&#20026;&#12303;</text><path d="M520,465.2031 L530,465.2031 C545,465.2031 545,465.2031 560,465.2031 L570,465.2031 " fill="none" style="stroke:#181818;stroke-width:1;"/><path d="M338,522.8125 L348,522.8125 C363,522.8125 363,465.2031 378,465.2031 L388,465.2031 " fill="none" style="stroke:#181818;stroke-width:1;"/><rect fill="#F1F1F1" height="37.6094" rx="12.5" ry="12.5" style="stroke:#181818;stroke-width:1.5;" width="174" x="388" y="504.0078"/><text fill="#000000" font-family="sans-serif" font-size="14" lengthAdjust="spacing" textLength="154" x="398" y="528.541">&#21306;&#20998;&#39044;&#22791;&#38454;&#27573;&#21644;&#23454;&#34892;&#38454;&#27573;</text><rect fill="#F1F1F1" height="37.6094" rx="12.5" ry="12.5" style="stroke:#181818;stroke-width:1.5;" width="62" x="612" y="504.0078"/><text fill="#000000" font-family="sans-serif" font-size="14" lengthAdjust="spacing" textLength="42" x="622" y="528.541">&#30528;&#25163;&#28857;</text><rect fill="#F1F1F1" height="37.6094" rx="12.5" ry="12.5" style="stroke:#181818;stroke-width:1.5;" width="118" x="724" y="504.0078"/><text fill="#000000" font-family="sans-serif" font-size="14" lengthAdjust="spacing" textLength="98" x="734" y="528.541">&#38053;&#21273;&#21644;&#38145;&#30340;&#25509;&#35302;</text><path d="M674,522.8125 L684,522.8125 C699,522.8125 699,522.8125 714,522.8125 L724,522.8125 " fill="none" style="stroke:#181818;stroke-width:1;"/><path d="M562,522.8125 L572,522.8125 C587,522.8125 587,522.8125 602,522.8125 L612,522.8125 " fill="none" style="stroke:#181818;stroke-width:1;"/><path d="M338,522.8125 L348,522.8125 C363,522.8125 363,522.8125 378,522.8125 L388,522.8125 " fill="none" style="stroke:#181818;stroke-width:1;"/><rect fill="#F1F1F1" height="37.6094" rx="12.5" ry="12.5" style="stroke:#181818;stroke-width:1.5;" width="132" x="388" y="561.6172"/><text fill="#000000" font-family="sans-serif" font-size="14" lengthAdjust="spacing" textLength="112" x="398" y="586.1504">&#24110;&#21161;&#29359;&#26159;&#21542;&#26082;&#36930;&#65311;</text><rect fill="#F1F1F1" height="37.6094" rx="12.5" ry="12.5" style="stroke:#181818;stroke-width:1.5;" width="300" x="570" y="561.6172"/><text fill="#000000" font-family="sans-serif" font-size="14" lengthAdjust="spacing" textLength="280" x="580" y="586.1504">&#12302;&#24110;&#21161;&#34892;&#20026;&#12303;&#19982;&#12302;&#27491;&#29359;&#32467;&#26524;&#12303;&#20855;&#26377;&#12302;&#22240;&#26524;&#24615;&#12303;</text><path d="M520,580.4219 L530,580.4219 C545,580.4219 545,580.4219 560,580.4219 L570,580.4219 " fill="none" style="stroke:#181818;stroke-width:1;"/><path d="M338,522.8125 L348,522.8125 C363,522.8125 363,580.4219 378,580.4219 L388,580.4219 " fill="none" style="stroke:#181818;stroke-width:1;"/><path d="M198,710.043 L208,710.043 C223,710.043 223,522.8125 238,522.8125 L248,522.8125 " fill="none" style="stroke:#181818;stroke-width:1;"/><rect fill="#F1F1F1" height="37.6094" rx="12.5" ry="12.5" style="stroke:#181818;stroke-width:1.5;" width="48" x="248" y="648.0313"/><text fill="#000000" font-family="sans-serif" font-size="14" lengthAdjust="spacing" textLength="28" x="258" y="672.5645">&#26080;&#32618;</text><rect fill="#F1F1F1" height="37.6094" rx="12.5" ry="12.5" style="stroke:#181818;stroke-width:1.5;" width="174" x="346" y="619.2266"/><text fill="#000000" font-family="sans-serif" font-size="14" lengthAdjust="spacing" textLength="154" x="356" y="643.7598">&#20057;&#27809;&#26377;&#23558;&#38053;&#21273;&#20132;&#21040;&#30002;&#25163;&#37324;</text><path d="M296,666.8359 L306,666.8359 C321,666.8359 321,638.0313 336,638.0313 L346,638.0313 " fill="none" style="stroke:#181818;stroke-width:1;"/><rect fill="#F1F1F1" height="37.6094" rx="12.5" ry="12.5" style="stroke:#181818;stroke-width:1.5;" width="188" x="346" y="676.8359"/><text fill="#000000" font-family="sans-serif" font-size="14" lengthAdjust="spacing" textLength="168" x="356" y="701.3691">&#20057;&#25552;&#20379;&#32473;&#30002;&#19968;&#25226;&#26080;&#29992;&#30340;&#38053;&#21273;</text><path d="M296,666.8359 L306,666.8359 C321,666.8359 321,695.6406 336,695.6406 L346,695.6406 " fill="none" style="stroke:#181818;stroke-width:1;"/><path d="M198,710.043 L208,710.043 C223,710.043 223,666.8359 238,666.8359 L248,666.8359 " fill="none" style="stroke:#181818;stroke-width:1;"/><rect fill="#F1F1F1" height="37.6094" rx="12.5" ry="12.5" style="stroke:#181818;stroke-width:1.5;" width="76" x="248" y="777.6523"/><text fill="#000000" font-family="sans-serif" font-size="14" lengthAdjust="spacing" textLength="56" x="258" y="802.1855">&#39044;&#22791;&#38454;&#27573;</text><rect fill="#F1F1F1" height="37.6094" rx="12.5" ry="12.5" style="stroke:#181818;stroke-width:1.5;" width="76" x="374" y="734.4453"/><text fill="#000000" font-family="sans-serif" font-size="14" lengthAdjust="spacing" textLength="56" x="384" y="758.9785">&#29359;&#32618;&#20013;&#27490;</text><path d="M324,796.457 L334,796.457 C349,796.457 349,753.25 364,753.25 L374,753.25 " fill="none" style="stroke:#181818;stroke-width:1;"/><rect fill="#F1F1F1" height="37.6094" rx="12.5" ry="12.5" style="stroke:#181818;stroke-width:1.5;" width="76" x="374" y="792.0547"/><text fill="#000000" font-family="sans-serif" font-size="14" lengthAdjust="spacing" textLength="56" x="384" y="816.5879">&#29359;&#32618;&#39044;&#22791;</text><rect fill="#F1F1F1" height="37.6094" rx="12.5" ry="12.5" style="stroke:#181818;stroke-width:1.5;" width="468" x="500" y="763.25"/><text fill="#000000" font-family="sans-serif" font-size="14" lengthAdjust="spacing" textLength="448" x="510" y="787.7832">&#20057;&#23558;&#38053;&#21273;&#20132;&#32473;&#30002;&#65292;&#21435;&#19993;&#23478;&#30340;&#36884;&#20013;&#65292;&#30002;&#25226;&#38053;&#21273;&#20002;&#20102;&#65288;&#27809;&#26377;&#38053;&#21273;&#21644;&#38145;&#30340;&#25509;&#35302;&#65289;</text><path d="M450,810.8594 L460,810.8594 C475,810.8594 475,782.0547 490,782.0547 L500,782.0547 " fill="none" style="stroke:#181818;stroke-width:1;"/><rect fill="#F1F1F1" height="37.6094" rx="12.5" ry="12.5" style="stroke:#181818;stroke-width:1.5;" width="230" x="500" y="820.8594"/><text fill="#000000" font-family="sans-serif" font-size="14" lengthAdjust="spacing" textLength="210" x="510" y="845.3926">&#20057;&#23558;&#38053;&#21273;&#20132;&#32473;&#30002;&#65292;&#21435;&#19993;&#23478;&#65292;&#38376;&#24320;&#30528;</text><path d="M450,810.8594 L460,810.8594 C475,810.8594 475,839.6641 490,839.6641 L500,839.6641 " fill="none" style="stroke:#181818;stroke-width:1;"/><path d="M324,796.457 L334,796.457 C349,796.457 349,810.8594 364,810.8594 L374,810.8594 " fill="none" style="stroke:#181818;stroke-width:1;"/><path d="M198,710.043 L208,710.043 C223,710.043 223,796.457 238,796.457 L248,796.457 " fill="none" style="stroke:#181818;stroke-width:1;"/><rect fill="#F1F1F1" height="37.6094" rx="12.5" ry="12.5" style="stroke:#181818;stroke-width:1.5;" width="76" x="248" y="936.0781"/><text fill="#000000" font-family="sans-serif" font-size="14" lengthAdjust="spacing" textLength="56" x="258" y="960.6113">&#23454;&#34892;&#38454;&#27573;</text><rect fill="#F1F1F1" height="37.6094" rx="12.5" ry="12.5" style="stroke:#181818;stroke-width:1.5;" width="76" x="374" y="878.4688"/><text fill="#000000" font-family="sans-serif" font-size="14" lengthAdjust="spacing" textLength="56" x="384" y="903.002">&#29359;&#32618;&#20013;&#27490;</text><path d="M324,954.8828 L334,954.8828 C349,954.8828 349,897.2734 364,897.2734 L374,897.2734 " fill="none" style="stroke:#181818;stroke-width:1;"/><rect fill="#F1F1F1" height="37.6094" rx="12.5" ry="12.5" style="stroke:#181818;stroke-width:1.5;" width="76" x="374" y="936.0781"/><text fill="#000000" font-family="sans-serif" font-size="14" lengthAdjust="spacing" textLength="56" x="384" y="960.6113">&#29359;&#32618;&#26410;&#36930;</text><rect fill="#F1F1F1" height="37.6094" rx="12.5" ry="12.5" style="stroke:#181818;stroke-width:1.5;" width="440" x="500" y="936.0781"/><text fill="#000000" font-family="sans-serif" font-size="14" lengthAdjust="spacing" textLength="420" x="510" y="960.6113">&#20057;&#23558;&#26377;&#29992;&#38053;&#21273;&#20132;&#32473;&#30002;&#65292;&#30002;&#24320;&#38145;&#65292;&#30528;&#24613;&#65292;&#27809;&#26377;&#25171;&#24320;&#65292;&#38053;&#21273;&#27809;&#26377;&#21457;&#25381;&#20316;&#29992;</text><path d="M450,954.8828 L460,954.8828 C475,954.8828 475,954.8828 490,954.8828 L500,954.8828 " fill="none" style="stroke:#181818;stroke-width:1;"/><path d="M324,954.8828 L334,954.8828 C349,954.8828 349,954.8828 364,954.8828 L374,954.8828 " fill="none" style="stroke:#181818;stroke-width:1;"/><rect fill="#F1F1F1" height="37.6094" rx="12.5" ry="12.5" style="stroke:#181818;stroke-width:1.5;" width="76" x="374" y="993.6875"/><text fill="#000000" font-family="sans-serif" font-size="14" lengthAdjust="spacing" textLength="56" x="384" y="1018.2207">&#29359;&#32618;&#26082;&#36930;</text><rect fill="#F1F1F1" height="37.6094" rx="12.5" ry="12.5" style="stroke:#181818;stroke-width:1.5;" width="230" x="500" y="993.6875"/><text fill="#000000" font-family="sans-serif" font-size="14" lengthAdjust="spacing" textLength="210" x="510" y="1018.2207">&#20057;&#23558;&#26377;&#29992;&#38053;&#21273;&#20132;&#32473;&#30002;&#65292;&#30002;&#24320;&#38145;&#25104;&#21151;</text><path d="M450,1012.4922 L460,1012.4922 C475,1012.4922 475,1012.4922 490,1012.4922 L500,1012.4922 " fill="none" style="stroke:#181818;stroke-width:1;"/><path d="M324,954.8828 L334,954.8828 C349,954.8828 349,1012.4922 364,1012.4922 L374,1012.4922 " fill="none" style="stroke:#181818;stroke-width:1;"/><path d="M198,710.043 L208,710.043 C223,710.043 223,954.8828 238,954.8828 L248,954.8828 " fill="none" style="stroke:#181818;stroke-width:1;"/><path d="M72,626.4648 L82,626.4648 C97,626.4648 97,710.043 112,710.043 L122,710.043 " fill="none" style="stroke:#181818;stroke-width:1;"/><rect fill="#F1F1F1" height="37.6094" rx="12.5" ry="12.5" style="stroke:#181818;stroke-width:1.5;" width="48" x="122" y="1123.3086"/><text fill="#000000" font-family="sans-serif" font-size="14" lengthAdjust="spacing" textLength="28" x="132" y="1147.8418">&#26696;&#20363;</text><rect fill="#F1F1F1" height="37.6094" rx="12.5" ry="12.5" style="stroke:#181818;stroke-width:1.5;" width="90" x="220" y="1094.5039"/><text fill="#000000" font-family="sans-serif" font-size="14" lengthAdjust="spacing" textLength="70" x="230" y="1119.0371">&#20132;&#36890;&#32903;&#20107;&#32618;</text><rect fill="#F1F1F1" height="37.6094" rx="12.5" ry="12.5" style="stroke:#181818;stroke-width:1.5;" width="90" x="360" y="1051.2969"/><text fill="#000000" font-family="sans-serif" font-size="14" lengthAdjust="spacing" textLength="70" x="370" y="1075.8301">&#26159;&#36807;&#22833;&#29359;&#32618;</text><path d="M310,1113.3086 L320,1113.3086 C335,1113.3086 335,1070.1016 350,1070.1016 L360,1070.1016 " fill="none" style="stroke:#181818;stroke-width:1;"/><rect fill="#F1F1F1" height="37.6094" rx="12.5" ry="12.5" style="stroke:#181818;stroke-width:1.5;" width="90" x="360" y="1108.9063"/><text fill="#000000" font-family="sans-serif" font-size="14" lengthAdjust="spacing" textLength="70" x="370" y="1133.4395">&#22240;&#27492;&#19981;&#23384;&#22312;</text><rect fill="#F1F1F1" height="37.6094" rx="12.5" ry="12.5" style="stroke:#181818;stroke-width:1.5;" width="188" x="500" y="1080.1016"/><text fill="#000000" font-family="sans-serif" font-size="14" lengthAdjust="spacing" textLength="168" x="510" y="1104.6348">&#24110;&#21161;&#29359;&#65288;&#24517;&#39035;&#26159;&#25925;&#24847;&#29359;&#32618;&#65289;</text><path d="M450,1127.7109 L460,1127.7109 C475,1127.7109 475,1098.9063 490,1098.9063 L500,1098.9063 " fill="none" style="stroke:#181818;stroke-width:1;"/><rect fill="#F1F1F1" height="37.6094" rx="12.5" ry="12.5" style="stroke:#181818;stroke-width:1.5;" width="188" x="500" y="1137.7109"/><text fill="#000000" font-family="sans-serif" font-size="14" lengthAdjust="spacing" textLength="168" x="510" y="1162.2441">&#25945;&#21766;&#29359;&#65288;&#24517;&#39035;&#26159;&#25925;&#24847;&#29359;&#32618;&#65289;</text><path d="M450,1127.7109 L460,1127.7109 C475,1127.7109 475,1156.5156 490,1156.5156 L500,1156.5156 " fill="none" style="stroke:#181818;stroke-width:1;"/><path d="M310,1113.3086 L320,1113.3086 C335,1113.3086 335,1127.7109 350,1127.7109 L360,1127.7109 " fill="none" style="stroke:#181818;stroke-width:1;"/><path d="M170,1142.1133 L180,1142.1133 C195,1142.1133 195,1113.3086 210,1113.3086 L220,1113.3086 " fill="none" style="stroke:#181818;stroke-width:1;"/><rect fill="#F1F1F1" height="37.6094" rx="12.5" ry="12.5" style="stroke:#181818;stroke-width:1.5;" width="90" x="220" y="1195.3203"/><text fill="#000000" font-family="sans-serif" font-size="14" lengthAdjust="spacing" textLength="70" x="230" y="1219.8535">&#21307;&#30103;&#20107;&#25925;&#32618;</text><rect fill="#F1F1F1" height="37.6094" rx="12.5" ry="12.5" style="stroke:#181818;stroke-width:1.5;" width="76" x="360" y="1195.3203"/><text fill="#000000" font-family="sans-serif" font-size="14" lengthAdjust="spacing" textLength="56" x="370" y="1219.8535">&#36807;&#22833;&#29359;&#32618;</text><path d="M310,1214.125 L320,1214.125 C335,1214.125 335,1214.125 350,1214.125 L360,1214.125 " fill="none" style="stroke:#181818;stroke-width:1;"/><path d="M170,1142.1133 L180,1142.1133 C195,1142.1133 195,1214.125 210,1214.125 L220,1214.125 " fill="none" style="stroke:#181818;stroke-width:1;"/><path d="M72,626.4648 L82,626.4648 C97,626.4648 97,1142.1133 112,1142.1133 L122,1142.1133 " fill="none" style="stroke:#181818;stroke-width:1;"/><!--SRC=[xLXTJnDP6BwVNt4stgW9HGqnXXY3LCck4MCMzDOCqsCxCZEdcJcjsnYJ0W85Ah1QjbRm0mH5Du2wYeM2_1ZdextYB-mxSzeo_HWww-McX92PSvxpl5_FUSyPUZJAgrGMbP3CHpdk5r4Hf5W8eq2Wq_shqOI4EwCIhz2OB7NO-0vOqE6C1qGOuxZJoCXl6jFlhUaj3i7FQMIcvgs_PymNotfXsnbYmyRcIl7TQF7WXVdFWl5fj3h3PlM3iUB18hfuGiMXxWZcuuaxGWGBmtTaNXtklbI3TgyeBgVr_6x3TDdat5PnRDzw_eXXzVqbAxFU5ClmnOENvkoQaVhu8pbhRho1a7uavs0vl3A_cJKOFCQVTMlseuS_rjHxQtx2JBvZAVFo-c3C4mMpUml5hzzg4YN792f69L7WgKYKEt_KfGigajagZJ_skmP2oHViKdrvenSAZQKo5yRDHtF-IcNdTD9O_UJ7DkHdUilQ_s3ihvZ94PSxvjYucTkguxKodwt5hFLXx70lhU_apBbv_VjYwScQaSx1Y35RqFCvOtCRdgj84AOn_OhXmPHUIEexAJ1ukFVAPQqq-RZuTiJCRfUoNwpHdVhWdsqPys-PnAl2TnCSGK4r355LJQE-cWiAgfpUDL8JfPL7nkfawTcskVdLU98sDby2dhqsiMUzI9fJC_Kkkm9paWCyfSm8Y1eyARvxMs-t4b8vpknAQMJKRtXwVhOQc5LuQhvSWa5Z_9kvD6M35r_32CZQ7IqaDFiQIb3V3Q2WdvTXdV5nWhcjxwv2tg2K469fCjq4xmZ0AkG0e-UJvlIqpPnPXqWPWxl4hhpMoygHe9xVC3TMcawnjSts_qxExItpn2r5svDa1gYP9i73CZY_ekzE7EwbMCXDotIuD_Kp9k6vb5qtzfAWZPfMx24a7_6RInz04fxEG02Gz4QNu2-u0I7Ppo3Kv1eyi83DgQSmPRlgh2eNVkvFCxtMf6DN_N2a-VD-i6PGERAMK_ht6NS7t5qj9PyNHoVrtPb6USBcO6sDkLA_Xq3e6wjw_h6nySnOMc_Yegjnf8o3yT9o0HXPMsMCpSjjBkICp8JFPNOFALX_PI40W3HwMHC0_FHWk0nKBWGzjVU3Yyw1Vuah3rmH-R3Ao-W1K0Q6f1XsdX3gvONXi4fYIYX89A8YIGn7g3qFimzjR0WE23W6FE3bsGeuh6Ai7CVi05peH0jmee8bAg-4lPncanLeDAP69Iyecwn0lGDp1QKIpOljH5zVRsymM44ci2IH-nvODkb0kG2Men5U4xNMkNAZUo5E8G92yBLA32j4nJuIZD1rKS7ruqSKFiqUIsMJAGeHi48zQ3J5oGv2VKIXR6X80amTAwYux9j2WGmk8xmKL4Mv4kWHaXAPfwGfzgQAexpgN6N-oxBBGqIbhShhbujIA2jjfMYVR44YWwofLxNBAxtexEeeE0m50r9tCe_h3gqA5S8ugWqd7FJ31WDNeLiDIQ8MyMujhlMrrkv7H5gV6mypDmXjRSc9IaZmYe-e13w4QTKOBmXYo5lIDIsl5VDTs6cQQ_l2ku3x-Niurc8J4mbSK4d8fS0MMwYomh4J9Pf8nJY-BBYsGqFRv2NiDv2Z4A0MV4jgMOIJokwnVZHLFcviSYqsT0yBDhrNTlWud8zOzSaR5mdi88UQj6Asy-uxtUMzN6c2rOrx_5wjqVBnNS9XViXTx2mV-Utl-_RtVVlxllrzt_w-Rt_Vjx_l_o_VzpVjV-dVwh-EubZLxElKsS2vC-Uw0XTE3l0KtI1nTFOyEdEskwkhk-iy2WuC8dlw57Uo_xT1f94Ot2PH2EvQgZWKitlyAUuQ7-VHxp6uZiYu6zbl9mVxJw61gvL1T5M9YofHPBY2SDTkzpCG-fNGWIYX3lXyLqUlID40Li4jTBkVkuBlyd2Mm5A1X4Gbt8rk3VPrNE2kmrKbneV145mEWt27eMe2vWR-1G00]--></g></svg>