<svg xmlns="http://www.w3.org/2000/svg" xmlns:xlink="http://www.w3.org/1999/xlink" contentStyleType="text/css" height="589px" preserveAspectRatio="none" style="width:1378px;height:589px;background:#FFFFFF;" version="1.1" viewBox="0 0 1378 589" width="1378px" zoomAndPan="magnify"><defs/><g><rect fill="#F1F1F1" height="37.6094" rx="12.5" ry="12.5" style="stroke:#181818;stroke-width:1.5;" width="136.6963" x="10" y="275.1211"/><text fill="#000000" font-family="sans-serif" font-size="14" lengthAdjust="spacing" textLength="116.6963" x="20" y="299.6543">&#20849;&#21516;&#29359;&#32618;&#65288;P123&#65289;</text><rect fill="#F1F1F1" height="37.6094" rx="12.5" ry="12.5" style="stroke:#181818;stroke-width:1.5;" width="48" x="196.6963" y="77.6094"/><text fill="#000000" font-family="sans-serif" font-size="14" lengthAdjust="spacing" textLength="28" x="206.6963" y="102.1426">&#35299;&#37322;</text><rect fill="#F1F1F1" height="37.6094" rx="12.5" ry="12.5" style="stroke:#181818;stroke-width:1.5;" width="76" x="294.6963" y="77.6094"/><text fill="#000000" font-family="sans-serif" font-size="14" lengthAdjust="spacing" textLength="56" x="304.6963" y="102.1426">&#20849;&#21516;&#29359;&#32618;</text><rect fill="#F1F1F1" height="37.6094" rx="12.5" ry="12.5" style="stroke:#181818;stroke-width:1.5;" width="231.9551" x="420.6963" y="77.6094"/><text fill="#000000" font-family="sans-serif" font-size="14" lengthAdjust="spacing" textLength="211.9551" x="430.6963" y="102.1426">&#30456;&#21516;&#24615;&#65288;&#24418;&#23481;&#35789;&#65289; + &#29359;&#32618;&#65288;&#21517;&#35789;&#65289;</text><rect fill="#F1F1F1" height="37.6094" rx="12.5" ry="12.5" style="stroke:#181818;stroke-width:1.5;" width="76" x="702.6514" y="20"/><text fill="#000000" font-family="sans-serif" font-size="14" lengthAdjust="spacing" textLength="56" x="712.6514" y="44.5332">&#23458;&#35266;&#34892;&#20026;</text><path d="M652.6514,96.4141 L662.6514,96.4141 C677.6514,96.4141 677.6514,38.8047 692.6514,38.8047 L702.6514,38.8047 " fill="none" style="stroke:#181818;stroke-width:1;"/><rect fill="#F1F1F1" height="37.6094" rx="12.5" ry="12.5" style="stroke:#181818;stroke-width:1.5;" width="76" x="702.6514" y="77.6094"/><text fill="#000000" font-family="sans-serif" font-size="14" lengthAdjust="spacing" textLength="56" x="712.6514" y="102.1426">&#20027;&#35266;&#25925;&#24847;</text><path d="M652.6514,96.4141 L662.6514,96.4141 C677.6514,96.4141 677.6514,96.4141 692.6514,96.4141 L702.6514,96.4141 " fill="none" style="stroke:#181818;stroke-width:1;"/><rect fill="#F1F1F1" height="37.6094" rx="12.5" ry="12.5" style="stroke:#181818;stroke-width:1.5;" width="76" x="702.6514" y="135.2188"/><text fill="#000000" font-family="sans-serif" font-size="14" lengthAdjust="spacing" textLength="56" x="712.6514" y="159.752">&#35302;&#29359;&#32618;&#21517;</text><path d="M652.6514,96.4141 L662.6514,96.4141 C677.6514,96.4141 677.6514,154.0234 692.6514,154.0234 L702.6514,154.0234 " fill="none" style="stroke:#181818;stroke-width:1;"/><path d="M370.6963,96.4141 L380.6963,96.4141 C395.6963,96.4141 395.6963,96.4141 410.6963,96.4141 L420.6963,96.4141 " fill="none" style="stroke:#181818;stroke-width:1;"/><rect fill="#F1F1F1" height="37.6094" rx="12.5" ry="12.5" style="stroke:#181818;stroke-width:1.5;" width="217.9551" x="420.6963" y="135.2188"/><text fill="#000000" font-family="sans-serif" font-size="14" lengthAdjust="spacing" textLength="197.9551" x="430.6963" y="159.752">&#19968;&#36215;&#24178;&#65288;&#21103;&#35789;&#65289; + &#29359;&#32618;&#65288;&#21160;&#35789;&#65289;</text><path d="M370.6963,96.4141 L380.6963,96.4141 C395.6963,96.4141 395.6963,154.0234 410.6963,154.0234 L420.6963,154.0234 " fill="none" style="stroke:#181818;stroke-width:1;"/><path d="M244.6963,96.4141 L254.6963,96.4141 C269.6963,96.4141 269.6963,96.4141 284.6963,96.4141 L294.6963,96.4141 " fill="none" style="stroke:#181818;stroke-width:1;"/><path d="M146.6963,293.9258 L156.6963,293.9258 C171.6963,293.9258 171.6963,96.4141 186.6963,96.4141 L196.6963,96.4141 " fill="none" style="stroke:#181818;stroke-width:1;"/><rect fill="#F1F1F1" height="37.6094" rx="12.5" ry="12.5" style="stroke:#181818;stroke-width:1.5;" width="76" x="196.6963" y="361.5352"/><text fill="#000000" font-family="sans-serif" font-size="14" lengthAdjust="spacing" textLength="56" x="206.6963" y="386.0684">&#35266;&#28857;&#23637;&#31034;</text><rect fill="#F1F1F1" height="37.6094" rx="12.5" ry="12.5" style="stroke:#181818;stroke-width:1.5;" width="90" x="322.6963" y="267.4102"/><text fill="#000000" font-family="sans-serif" font-size="14" lengthAdjust="spacing" textLength="70" x="332.6963" y="291.9434">&#29359;&#32618;&#20849;&#21516;&#35828;</text><rect fill="#F1F1F1" height="37.6094" rx="12.5" ry="12.5" style="stroke:#181818;stroke-width:1.5;" width="118" x="462.6963" y="192.8281"/><text fill="#000000" font-family="sans-serif" font-size="14" lengthAdjust="spacing" textLength="98" x="472.6963" y="217.3613">&#23436;&#20840;&#29359;&#32618;&#20849;&#21516;&#35828;</text><rect fill="#F1F1F1" height="37.6094" rx="12.5" ry="12.5" style="stroke:#181818;stroke-width:1.5;" width="174" x="630.6963" y="192.8281"/><text fill="#000000" font-family="sans-serif" font-size="14" lengthAdjust="spacing" textLength="154" x="640.6963" y="217.3613">&#20108;&#20154;&#26041;&#26041;&#38754;&#38754;&#37117;&#23436;&#20840;&#30456;&#21516;</text><path d="M580.6963,211.6328 L590.6963,211.6328 C605.6963,211.6328 605.6963,211.6328 620.6963,211.6328 L630.6963,211.6328 " fill="none" style="stroke:#181818;stroke-width:1;"/><path d="M412.6963,286.2148 L422.6963,286.2148 C437.6963,286.2148 437.6963,211.6328 452.6963,211.6328 L462.6963,211.6328 " fill="none" style="stroke:#181818;stroke-width:1;"/><rect fill="#F1F1F1" height="42.75" rx="12.5" ry="12.5" style="stroke:#181818;stroke-width:1.5;" width="142.8896" x="462.6963" y="293.6445"/><text fill="#000000" font-family="sans-serif" font-size="14" lengthAdjust="spacing" textLength="98" x="472.6963" y="323.3184">&#37096;&#20998;&#29359;&#32618;&#20849;&#21516;&#35828;</text><path d="M582.1693,323.4779 C582.1693,324.6445 582.1693,324.6445 581.0026,324.6445 C579.8359,324.6445 579.8359,323.4779 579.8359,323.4779 L579.8359,304.8112 C579.8359,303.6445 579.8359,303.6445 581.0026,303.6445 C582.1693,303.6445 582.1693,304.8112 582.1693,304.8112 L582.1693,323.4779 " fill="#66757F" style="stroke:;stroke-width:0;stroke-dasharray:;"/><path d="M581.0026,305.9779 C581.0026,304.6945 581.9569,304.082 583.1236,304.6169 L592.881,309.0894 C594.0477,309.6243 594.0477,310.4993 592.881,311.0336 L583.1236,315.506 C581.9569,316.0404 581.0026,315.4279 581.0026,314.1445 L581.0026,305.9779 " fill="#DD2E44" style="stroke:;stroke-width:0;stroke-dasharray:;"/><rect fill="#F1F1F1" height="37.6094" rx="12.5" ry="12.5" style="stroke:#181818;stroke-width:1.5;" width="188" x="655.5859" y="279.2422"/><text fill="#000000" font-family="sans-serif" font-size="14" lengthAdjust="spacing" textLength="168" x="665.5859" y="303.7754">&#20108;&#20154;&#26377;&#37096;&#20998;&#30456;&#21516;&#30340;&#22320;&#26041;&#21363;&#21487;</text><rect fill="#F1F1F1" height="37.6094" rx="12.5" ry="12.5" style="stroke:#181818;stroke-width:1.5;" width="188" x="893.5859" y="250.4375"/><text fill="#000000" font-family="sans-serif" font-size="14" lengthAdjust="spacing" textLength="168" x="903.5859" y="274.9707">&#23458;&#35266;&#34892;&#20026;&#26377;&#37096;&#20998;&#30456;&#21516;&#30340;&#22320;&#26041;</text><rect fill="#F1F1F1" height="37.6094" rx="12.5" ry="12.5" style="stroke:#181818;stroke-width:1.5;" width="164.6484" x="1131.5859" y="250.4375"/><text fill="#000000" font-family="sans-serif" font-size="14" lengthAdjust="spacing" textLength="144.6484" x="1141.5859" y="274.9707">&#8220;&#26432;&#23475;&#8221;&#21253;&#23481;&#35780;&#20215;&#20026;&#8220;&#20260;&#23475;&#8221;</text><path d="M1081.5859,269.2422 L1091.5859,269.2422 C1106.5859,269.2422 1106.5859,269.2422 1121.5859,269.2422 L1131.5859,269.2422 " fill="none" style="stroke:#181818;stroke-width:1;"/><path d="M843.5859,298.0469 L853.5859,298.0469 C868.5859,298.0469 868.5859,269.2422 883.5859,269.2422 L893.5859,269.2422 " fill="none" style="stroke:#181818;stroke-width:1;"/><rect fill="#F1F1F1" height="37.6094" rx="12.5" ry="12.5" style="stroke:#181818;stroke-width:1.5;" width="202" x="893.5859" y="308.0469"/><text fill="#000000" font-family="sans-serif" font-size="14" lengthAdjust="spacing" textLength="182" x="903.5859" y="332.5801">&#20027;&#35266;&#25925;&#24847;&#19978;&#26377;&#37096;&#20998;&#30456;&#21516;&#30340;&#22320;&#26041;</text><rect fill="#F1F1F1" height="37.6094" rx="12.5" ry="12.5" style="stroke:#181818;stroke-width:1.5;" width="220.6484" x="1145.5859" y="308.0469"/><text fill="#000000" font-family="sans-serif" font-size="14" lengthAdjust="spacing" textLength="200.6484" x="1155.5859" y="332.5801">&#8220;&#26432;&#23475;&#24847;&#22270;&#8221;&#21253;&#23481;&#35780;&#20215;&#20026;&#8220;&#20260;&#23475;&#24847;&#22270;&#8221;</text><path d="M1095.5859,326.8516 L1105.5859,326.8516 C1120.5859,326.8516 1120.5859,326.8516 1135.5859,326.8516 L1145.5859,326.8516 " fill="none" style="stroke:#181818;stroke-width:1;"/><path d="M843.5859,298.0469 L853.5859,298.0469 C868.5859,298.0469 868.5859,326.8516 883.5859,326.8516 L893.5859,326.8516 " fill="none" style="stroke:#181818;stroke-width:1;"/><path d="M605.5859,315.0195 L615.5859,315.0195 C630.5859,315.0195 630.5859,298.0469 645.5859,298.0469 L655.5859,298.0469 " fill="none" style="stroke:#181818;stroke-width:1;"/><rect fill="#F1F1F1" height="42.75" rx="12.5" ry="12.5" style="stroke:#181818;stroke-width:1.5;" width="156.8896" x="655.5859" y="336.8516"/><text fill="#000000" font-family="sans-serif" font-size="14" lengthAdjust="spacing" textLength="112" x="665.5859" y="366.5254">&#19981;&#35201;&#27714;&#23450;&#30456;&#21516;&#32618;&#21517;</text><path d="M794.0365,357.3527 L801.1736,350.2162 C801.7429,349.6469 801.7429,348.7235 801.1736,348.1541 C800.6037,347.5842 799.6808,347.5842 799.1115,348.1541 L791.9744,355.2906 L784.8379,348.1541 C784.2686,347.5842 783.3446,347.5842 782.7758,348.1541 C782.2059,348.7235 782.2059,349.6469 782.7758,350.2162 L789.9123,357.3527 L782.7595,364.5061 C782.1896,365.0761 782.1896,365.9989 782.7595,366.5682 C783.0442,366.8529 783.4175,366.9952 783.7908,366.9952 C784.1642,366.9952 784.5375,366.8529 784.8222,366.5682 L791.975,359.4148 L799.1115,366.5513 C799.3962,366.836 799.7695,366.9783 800.1428,366.9783 C800.5162,366.9783 800.8889,366.836 801.1742,366.5513 C801.7435,365.9814 801.7435,365.0586 801.1742,364.4892 L794.0365,357.3527 " fill="#FE0000" style="stroke:;stroke-width:0;stroke-dasharray:;"/><path d="M605.5859,315.0195 L615.5859,315.0195 C630.5859,315.0195 630.5859,358.2266 645.5859,358.2266 L655.5859,358.2266 " fill="none" style="stroke:#181818;stroke-width:1;"/><path d="M412.6963,286.2148 L422.6963,286.2148 C437.6963,286.2148 437.6963,315.0195 452.6963,315.0195 L462.6963,315.0195 " fill="none" style="stroke:#181818;stroke-width:1;"/><path d="M272.6963,380.3398 L282.6963,380.3398 C297.6963,380.3398 297.6963,286.2148 312.6963,286.2148 L322.6963,286.2148 " fill="none" style="stroke:#181818;stroke-width:1;"/><rect fill="#F1F1F1" height="42.75" rx="12.5" ry="12.5" style="stroke:#181818;stroke-width:1.5;" width="114.8896" x="322.6963" y="462.3516"/><text fill="#000000" font-family="sans-serif" font-size="14" lengthAdjust="spacing" textLength="70" x="332.6963" y="492.0254">&#34892;&#20026;&#20849;&#21516;&#35828;</text><path d="M414.1693,492.1849 C414.1693,493.3516 414.1693,493.3516 413.0026,493.3516 C411.8359,493.3516 411.8359,492.1849 411.8359,492.1849 L411.8359,473.5182 C411.8359,472.3516 411.8359,472.3516 413.0026,472.3516 C414.1693,472.3516 414.1693,473.5182 414.1693,473.5182 L414.1693,492.1849 " fill="#66757F" style="stroke:;stroke-width:0;stroke-dasharray:;"/><path d="M413.0026,474.6849 C413.0026,473.4016 413.9569,472.7891 415.1236,473.324 L424.881,477.7964 C426.0477,478.3313 426.0477,479.2063 424.881,479.7406 L415.1236,484.2131 C413.9569,484.7474 413.0026,484.1349 413.0026,482.8516 L413.0026,474.6849 " fill="#DD2E44" style="stroke:;stroke-width:0;stroke-dasharray:;"/><rect fill="#F1F1F1" height="37.6094" rx="12.5" ry="12.5" style="stroke:#181818;stroke-width:1.5;" width="62" x="487.5859" y="402.1719"/><text fill="#000000" font-family="sans-serif" font-size="14" lengthAdjust="spacing" textLength="42" x="497.5859" y="426.7051">&#23458;&#35266;&#23618;</text><rect fill="#F1F1F1" height="42.75" rx="12.5" ry="12.5" style="stroke:#181818;stroke-width:1.5;" width="184.8896" x="599.5859" y="399.6016"/><text fill="#000000" font-family="sans-serif" font-size="14" lengthAdjust="spacing" textLength="140" x="609.5859" y="429.2754">&#34892;&#20026;&#19968;&#36215;&#21046;&#36896;&#36829;&#27861;&#20107;&#23454;</text><path d="M773.5767,410.4036 C772.7653,409.8775 771.682,410.1085 771.1564,410.9193 L761.3506,426.0341 L756.5684,421.6124 C755.8585,420.9561 754.7519,420.9993 754.0957,421.7092 C753.4394,422.4186 753.4826,423.5263 754.1925,424.182 L760.4715,429.9873 C760.6518,430.1425 760.6518,430.1425 760.7352,430.1967 C761.0292,430.3881 761.3593,430.4791 761.686,430.4791 C762.2588,430.4791 762.8206,430.1979 763.156,429.6811 L774.0923,412.8239 C774.6185,412.0131 774.3875,410.9292 773.5767,410.4036 " fill="#FE0000" style="stroke:;stroke-width:0;stroke-dasharray:;"/><path d="M549.5859,420.9766 L559.5859,420.9766 C574.5859,420.9766 574.5859,420.9766 589.5859,420.9766 L599.5859,420.9766 " fill="none" style="stroke:#181818;stroke-width:1;"/><path d="M437.5859,483.7266 L447.5859,483.7266 C462.5859,483.7266 462.5859,420.9766 477.5859,420.9766 L487.5859,420.9766 " fill="none" style="stroke:#181818;stroke-width:1;"/><rect fill="#F1F1F1" height="37.6094" rx="12.5" ry="12.5" style="stroke:#181818;stroke-width:1.5;" width="62" x="487.5859" y="496.2969"/><text fill="#000000" font-family="sans-serif" font-size="14" lengthAdjust="spacing" textLength="42" x="497.5859" y="520.8301">&#19981;&#35201;&#27714;</text><rect fill="#F1F1F1" height="42.75" rx="12.5" ry="12.5" style="stroke:#181818;stroke-width:1.5;" width="198.8896" x="599.5859" y="462.3516"/><text fill="#000000" font-family="sans-serif" font-size="14" lengthAdjust="spacing" textLength="154" x="609.5859" y="492.0254">&#20027;&#35266;&#38454;&#23618;&#30340;&#35201;&#32032;&#20445;&#25345;&#19968;&#33268;</text><path d="M780.0365,482.8527 L787.1736,475.7162 C787.7429,475.1469 787.7429,474.2235 787.1736,473.6541 C786.6037,473.0842 785.6808,473.0842 785.1115,473.6541 L777.9744,480.7906 L770.8379,473.6541 C770.2686,473.0842 769.3446,473.0842 768.7758,473.6541 C768.2059,474.2235 768.2059,475.1469 768.7758,475.7162 L775.9123,482.8527 L768.7595,490.0061 C768.1896,490.5761 768.1896,491.4989 768.7595,492.0682 C769.0442,492.3529 769.4175,492.4952 769.7908,492.4952 C770.1642,492.4952 770.5375,492.3529 770.8222,492.0682 L777.975,484.9148 L785.1115,492.0513 C785.3962,492.336 785.7695,492.4783 786.1428,492.4783 C786.5162,492.4783 786.8889,492.336 787.1742,492.0513 C787.7435,491.4814 787.7435,490.5586 787.1742,489.9892 L780.0365,482.8527 " fill="#FE0000" style="stroke:;stroke-width:0;stroke-dasharray:;"/><path d="M549.5859,515.1016 L559.5859,515.1016 C574.5859,515.1016 574.5859,483.7266 589.5859,483.7266 L599.5859,483.7266 " fill="none" style="stroke:#181818;stroke-width:1;"/><rect fill="#F1F1F1" height="42.75" rx="12.5" ry="12.5" style="stroke:#181818;stroke-width:1.5;" width="156.8896" x="599.5859" y="525.1016"/><text fill="#000000" font-family="sans-serif" font-size="14" lengthAdjust="spacing" textLength="112" x="609.5859" y="554.7754">&#19981;&#35201;&#27714;&#23450;&#30456;&#21516;&#32618;&#21517;</text><path d="M738.0365,545.6027 L745.1736,538.4662 C745.7429,537.8969 745.7429,536.9735 745.1736,536.4041 C744.6037,535.8342 743.6808,535.8342 743.1115,536.4041 L735.9744,543.5406 L728.8379,536.4041 C728.2686,535.8342 727.3446,535.8342 726.7758,536.4041 C726.2059,536.9735 726.2059,537.8969 726.7758,538.4662 L733.9123,545.6027 L726.7595,552.7561 C726.1896,553.3261 726.1896,554.2489 726.7595,554.8182 C727.0442,555.1029 727.4175,555.2452 727.7908,555.2452 C728.1642,555.2452 728.5375,555.1029 728.8222,554.8182 L735.975,547.6648 L743.1115,554.8013 C743.3962,555.086 743.7695,555.2283 744.1428,555.2283 C744.5162,555.2283 744.8889,555.086 745.1742,554.8013 C745.7435,554.2314 745.7435,553.3086 745.1742,552.7392 L738.0365,545.6027 " fill="#FE0000" style="stroke:;stroke-width:0;stroke-dasharray:;"/><path d="M549.5859,515.1016 L559.5859,515.1016 C574.5859,515.1016 574.5859,546.4766 589.5859,546.4766 L599.5859,546.4766 " fill="none" style="stroke:#181818;stroke-width:1;"/><path d="M437.5859,483.7266 L447.5859,483.7266 C462.5859,483.7266 462.5859,515.1016 477.5859,515.1016 L487.5859,515.1016 " fill="none" style="stroke:#181818;stroke-width:1;"/><path d="M272.6963,380.3398 L282.6963,380.3398 C297.6963,380.3398 297.6963,483.7266 312.6963,483.7266 L322.6963,483.7266 " fill="none" style="stroke:#181818;stroke-width:1;"/><path d="M146.6963,293.9258 L156.6963,293.9258 C171.6963,293.9258 171.6963,380.3398 186.6963,380.3398 L196.6963,380.3398 " fill="none" style="stroke:#181818;stroke-width:1;"/><!--SRC=[xLXRJnj757xVNp5LNY0HvXA48Wj510VKHZX2DSah6gy7UyBkZ3KxwzIjAZa46g16oGjLbK2LqYYWFa0fD047slyIUMtpbB-GinURjV5wZVBG5z0AsUTyvpjdpcrOnWo9XTGfI-augoXVKQPgPegWIAJV_nWohv7-h8QPD7MjpyRtWK6V8uzGa2dATMGjxLilYjNLlUhfdvzEbgS7Xsv-EbbH4FnSHxNjFywUhJfVN84VtH2xgkgh8r1L2jl0OfrkMRl7jRqre48tK8FTUh7c2fjiFUhThThsGkttOlcer4PTFle0wihwKcNnUHjrRVkjwmLSAAsMXTe_xwtZl-q0LlRQHBMwuulAvbgeBXnR- -lLDoNVsJr-9mErlKEbDVoYjRJJ2UD5KogMIwNAByVmd6rksS_JKy_OoM0BxzdJ7MlvfnPUD1gLWcAMDZKiPkSqd9xbR3RB3Hcz7UnpOyKZS_nKNovQ6tz15DRQWVLyxuBPnQe44RGrTSq_5ZOgcmLhz-1ZOTCgBZbDiLZ-y1xOG5K-UUEg0fpxQru-MlqI_y1WlVgtGnGDGDlUMwkzVLBPNx1sNtg-dKP3ezS4IKM_yoKTkiV9rULBLS-rjR_GhhyTLg-Lbz-T5LxN_jki7AoNIpzRkxzvWMG8pkLdrGnHvsTrBEOlU6WS9730pdvz1m50QW5NFNnT1YV59xRRPuTjJdkf52dA686LLLzROyrRRDHPIxSLJt2NuhJ0Ele1V4MIcacSJmYDOtK-BRZ9KZ6kSO4qciv8Mm_Q7sri2iuD7WFWdhOEJWj2M2Tc1-13vqF0-JgM2oXvKD2kiWxDcYAh1K5TPHqQV33VeGGtWjYkJKwEZyTYTMIUQ1f_781rbGvKYUYOifaCqUl4avp91FsUe9i3YgqdUZQ33Mg4vzAF7WY06_DvfwH-x53dNFgXuo1ICz2KNGL3qumBqaLT4PgYZBJApocwTDkHoYPZZAk4oQ3SCASeRWbSKL83J0ih38yRcofeeshdQibrBBaRF9FWZNA6jTXbiTE2PB70jkGoPdUINCYmjkkMIqgekmoRj2xPObo7SPD1xU1P1j7PvMCa3HK5KdyoEssji4gc2Cdw1wBPmGHiqQH6ZKpmolFPDtjxdA6oDJS1Rkvp6Ux9EPMQnwoBKwauHMJ36LPLcWhk-QPL7COy1wDe-EORlgiaZXyHCsJAkGOX29xoTM38ZDKj73zmfLD9S-IEwXk72-iSQwJRWvmV0Mg1Gwbr2ZUelVkxwIdl6hJ93JFvYAWsVL1sS0xkRIAwvCrH3XFaKFCmPZllNQVxVDCt3sxdMMtgvT0xH85Ve_tUdo9NRqTNRqTNRqTNRqV_nzlHjFrlcmVnAPGZmh2N_c1aQ61eE7Ah9u4bkizpQ7043Gn6XuUZmoCebfX1jhfNwOb_CuCCRiATXr9m8mYQDEqrsQlSmpcClZLXQUeaYknlFJFnNfIOg0lH1CjHmPaEYrAvzp3kWj3NN2QoN3hWaU6-SIfHWWW82psCAtV973Or2QOgJr6MZg87CvDzjvGfkwGu3OxW2el1ffKY3xh4Pm00]--></g></svg>