<svg xmlns="http://www.w3.org/2000/svg" xmlns:xlink="http://www.w3.org/1999/xlink" contentStyleType="text/css" height="367px" preserveAspectRatio="none" style="width:714px;height:367px;background:#FFFFFF;" version="1.1" viewBox="0 0 714 367" width="714px" zoomAndPan="magnify"><defs/><g><rect fill="#F1F1F1" height="37.6094" rx="12.5" ry="12.5" style="stroke:#181818;stroke-width:1.5;" width="76" x="10" y="164.0234"/><text fill="#000000" font-family="sans-serif" font-size="14" lengthAdjust="spacing" textLength="56" x="20" y="188.5566">&#20849;&#21516;&#27491;&#29359;</text><rect fill="#F1F1F1" height="37.6094" rx="12.5" ry="12.5" style="stroke:#181818;stroke-width:1.5;" width="90" x="136" y="106.4141"/><text fill="#000000" font-family="sans-serif" font-size="14" lengthAdjust="spacing" textLength="70" x="146" y="130.9473">&#20004;&#38454;&#23618;&#20307;&#31995;</text><rect fill="#F1F1F1" height="37.6094" rx="12.5" ry="12.5" style="stroke:#181818;stroke-width:1.5;" width="90" x="276" y="48.8047"/><text fill="#000000" font-family="sans-serif" font-size="14" lengthAdjust="spacing" textLength="70" x="286" y="73.3379">&#23458;&#35266;&#36829;&#27861;&#23618;</text><rect fill="#F1F1F1" height="37.6094" rx="12.5" ry="12.5" style="stroke:#181818;stroke-width:1.5;" width="132" x="416" y="48.8047"/><text fill="#000000" font-family="sans-serif" font-size="14" lengthAdjust="spacing" textLength="112" x="426" y="73.3379">&#19968;&#36215;&#23454;&#26045;&#23454;&#34892;&#34892;&#20026;</text><rect fill="#F1F1F1" height="37.6094" rx="12.5" ry="12.5" style="stroke:#181818;stroke-width:1.5;" width="76" x="598" y="20"/><text fill="#000000" font-family="sans-serif" font-size="14" lengthAdjust="spacing" textLength="56" x="608" y="44.5332">&#24847;&#24605;&#32852;&#32476;</text><path d="M548,67.6094 L558,67.6094 C573,67.6094 573,38.8047 588,38.8047 L598,38.8047 " fill="none" style="stroke:#181818;stroke-width:1;"/><rect fill="#F1F1F1" height="37.6094" rx="12.5" ry="12.5" style="stroke:#181818;stroke-width:1.5;" width="76" x="598" y="77.6094"/><text fill="#000000" font-family="sans-serif" font-size="14" lengthAdjust="spacing" textLength="56" x="608" y="102.1426">&#23454;&#34892;&#34892;&#20026;</text><path d="M548,67.6094 L558,67.6094 C573,67.6094 573,96.4141 588,96.4141 L598,96.4141 " fill="none" style="stroke:#181818;stroke-width:1;"/><path d="M366,67.6094 L376,67.6094 C391,67.6094 391,67.6094 406,67.6094 L416,67.6094 " fill="none" style="stroke:#181818;stroke-width:1;"/><path d="M226,125.2188 L236,125.2188 C251,125.2188 251,67.6094 266,67.6094 L276,67.6094 " fill="none" style="stroke:#181818;stroke-width:1;"/><rect fill="#F1F1F1" height="37.6094" rx="12.5" ry="12.5" style="stroke:#181818;stroke-width:1.5;" width="90" x="276" y="164.0234"/><text fill="#000000" font-family="sans-serif" font-size="14" lengthAdjust="spacing" textLength="70" x="286" y="188.5566">&#20027;&#35266;&#36131;&#20219;&#23618;</text><rect fill="#F1F1F1" height="37.6094" rx="12.5" ry="12.5" style="stroke:#181818;stroke-width:1.5;" width="62" x="416" y="164.0234"/><text fill="#000000" font-family="sans-serif" font-size="14" lengthAdjust="spacing" textLength="42" x="426" y="188.5566">&#19981;&#32771;&#34385;</text><rect fill="#F1F1F1" height="37.6094" rx="12.5" ry="12.5" style="stroke:#181818;stroke-width:1.5;" width="90" x="528" y="135.2188"/><text fill="#000000" font-family="sans-serif" font-size="14" lengthAdjust="spacing" textLength="70" x="538" y="159.752">&#25925;&#24847;&#12289;&#36807;&#22833;</text><path d="M478,182.8281 L488,182.8281 C503,182.8281 503,154.0234 518,154.0234 L528,154.0234 " fill="none" style="stroke:#181818;stroke-width:1;"/><rect fill="#F1F1F1" height="37.6094" rx="12.5" ry="12.5" style="stroke:#181818;stroke-width:1.5;" width="146" x="528" y="192.8281"/><text fill="#000000" font-family="sans-serif" font-size="14" lengthAdjust="spacing" textLength="126" x="538" y="217.3613">&#36131;&#20219;&#24180;&#40836;&#12289;&#36131;&#20219;&#33021;&#21147;</text><path d="M478,182.8281 L488,182.8281 C503,182.8281 503,211.6328 518,211.6328 L528,211.6328 " fill="none" style="stroke:#181818;stroke-width:1;"/><path d="M366,182.8281 L376,182.8281 C391,182.8281 391,182.8281 406,182.8281 L416,182.8281 " fill="none" style="stroke:#181818;stroke-width:1;"/><path d="M226,125.2188 L236,125.2188 C251,125.2188 251,182.8281 266,182.8281 L276,182.8281 " fill="none" style="stroke:#181818;stroke-width:1;"/><path d="M86,182.8281 L96,182.8281 C111,182.8281 111,125.2188 126,125.2188 L136,125.2188 " fill="none" style="stroke:#181818;stroke-width:1;"/><rect fill="#F1F1F1" height="37.6094" rx="12.5" ry="12.5" style="stroke:#181818;stroke-width:1.5;" width="76" x="136" y="279.2422"/><text fill="#000000" font-family="sans-serif" font-size="14" lengthAdjust="spacing" textLength="56" x="146" y="303.7754">&#27861;&#24459;&#21518;&#26524;</text><rect fill="#F1F1F1" height="37.6094" rx="12.5" ry="12.5" style="stroke:#181818;stroke-width:1.5;" width="76" x="262" y="250.4375"/><text fill="#000000" font-family="sans-serif" font-size="14" lengthAdjust="spacing" textLength="56" x="272" y="274.9707">&#20849;&#21516;&#27491;&#29359;</text><rect fill="#F1F1F1" height="37.6094" rx="12.5" ry="12.5" style="stroke:#181818;stroke-width:1.5;" width="266.1758" x="388" y="250.4375"/><text fill="#000000" font-family="sans-serif" font-size="14" lengthAdjust="spacing" textLength="246.1758" x="398" y="274.9707">&#37096;&#20998;&#23454;&#34892;&#65292;&#20840;&#37096;&#36127;&#36131;&#65288;&#26597;&#26126;+&#26080;&#27861;&#26597;&#26126;&#65289;</text><path d="M338,269.2422 L348,269.2422 C363,269.2422 363,269.2422 378,269.2422 L388,269.2422 " fill="none" style="stroke:#181818;stroke-width:1;"/><path d="M212,298.0469 L222,298.0469 C237,298.0469 237,269.2422 252,269.2422 L262,269.2422 " fill="none" style="stroke:#181818;stroke-width:1;"/><rect fill="#F1F1F1" height="37.6094" rx="12.5" ry="12.5" style="stroke:#181818;stroke-width:1.5;" width="62" x="262" y="308.0469"/><text fill="#000000" font-family="sans-serif" font-size="14" lengthAdjust="spacing" textLength="42" x="272" y="332.5801">&#21516;&#26102;&#29359;</text><rect fill="#F1F1F1" height="37.6094" rx="12.5" ry="12.5" style="stroke:#181818;stroke-width:1.5;" width="118" x="374" y="308.0469"/><text fill="#000000" font-family="sans-serif" font-size="14" lengthAdjust="spacing" textLength="98" x="384" y="332.5801">&#26080;&#27861;&#26597;&#26126;&#30340;&#24773;&#24418;</text><rect fill="#F1F1F1" height="37.6094" rx="12.5" ry="12.5" style="stroke:#181818;stroke-width:1.5;" width="160" x="542" y="308.0469"/><text fill="#000000" font-family="sans-serif" font-size="14" lengthAdjust="spacing" textLength="140" x="552" y="332.5801">&#23384;&#30097;&#26102;&#26377;&#21033;&#20110;&#34987;&#21578;&#21407;&#21017;</text><path d="M492,326.8516 L502,326.8516 C517,326.8516 517,326.8516 532,326.8516 L542,326.8516 " fill="none" style="stroke:#181818;stroke-width:1;"/><path d="M324,326.8516 L334,326.8516 C349,326.8516 349,326.8516 364,326.8516 L374,326.8516 " fill="none" style="stroke:#181818;stroke-width:1;"/><path d="M212,298.0469 L222,298.0469 C237,298.0469 237,326.8516 252,326.8516 L262,326.8516 " fill="none" style="stroke:#181818;stroke-width:1;"/><path d="M86,182.8281 L96,182.8281 C111,182.8281 111,298.0469 126,298.0469 L136,298.0469 " fill="none" style="stroke:#181818;stroke-width:1;"/><!--SRC=[xLRTJjn65BxtKqpL6qYrIuXMA49HHTY0seYDeYx9_QmzCHDiZpKURxIga4Y0bb1AWzeaf2MX9QcQgaeg59gcMKWUfcklkU8LUiO_u8NrUdiVorhjdFETxypv6y-O8p0N9hKq4zkAyX6rLCFL22eMXzAl8ne66R8DR0dND0eINm23GYWlKf0foXdaBUruzrRz5q_RAtyg29upgFNcsS76Qs_dJcl_-_QhPYYDDDxBxU2tEy7xn_wh-w0_qYHsyy5VVtild_WFzk4t-6KLtjQRjnsm2EelVkVFFmvk_z1kRdPHTxMM3fhI_UxJLhFPpVstmVn2y6Yzcx_xI-3ot_dRmVkllMSxNH0nwp-x1-yM9IvS1WlxtifFSLfapE- -yUwj-KysqpavcS1ZrS72Ss_vgoYOmxrLR-avI8BTBI0_t5lsjtxrDzO-yH_-3CpHud3lRfePQ1- -FasRjcZ_kEWlB7dxszso-6AZ_M0TAFpDkzxoxwstQy7s7zxwYhUsvIq_Kk0P8z13IH-DTRRLXR1FFbLYmIMATOvDz2KuAjOCbuJ_41h7wgpEcMjfPMOmZWogpmYf1-sSn6gOptAYPS1ZRGBMEI5MB-OGa48tSi2D1CiujlIiJKVA16gxt3Qoe94oWMO7bWgACoUBxUF9oV7nSZb1DeXXi5iPs4WPGfKYjIoc4ajaO1qhH28qoImHYMe6O4BP5BL898EADfI8JW0PPHOsofoQoNQFaOAPMB2ksAkSs9XZAVa_PXThZ8kyKFlb4eAOjiYhRfziPMP2YKLMpMBBB3fuYXRHeG61D9tCNfEILoYD4DkPROJekLCE9c1oQmPrPhB7B6NVwUtM31KdSvFXvWeJ-Px2gDG6jlg8IiKQ4KVEiAfIBRkbEyO_Z_a6uyI9qP8RrYgfu9l4vJtBeJC3ji2Pbkh0d15AB48_DdEee7LoKKsDmwaZ11katq2EGu1Qu5ngayAfBS-RVdegFdebkUFMRX9LqcTb1zVXMq5udxnroc22GcgMnopptdUwurcMn33nCzYXJdw_d1ZotdFTqVUzJvHmskUK2qFnf_B3TUh3TUhe_dHLNholLQPGdN17JknmyTpPSwNY-O4g5kWAgwFX4NHsUBHK6YsDe79r6adre39G-NmQESo50mjfCCwSrbpPjuFAPLp7w0iNkjWaeqYk1gOhWwWwaGZHX5Mdd5acTAvo-Neb0g7FcAZQJ8JWaL9Xd0fK9HosXQvNb4la1dOD0QOgqwYbZw9hqvE5yyeKTBYBTN040rI6rXUy0RhgVm00]--></g></svg>