<svg xmlns="http://www.w3.org/2000/svg" xmlns:xlink="http://www.w3.org/1999/xlink" contentStyleType="text/css" height="351px" preserveAspectRatio="none" style="width:654px;height:351px;background:#FFFFFF;" version="1.1" viewBox="0 0 654 351" width="654px" zoomAndPan="magnify"><defs/><g><rect fill="#F1F1F1" height="37.6094" rx="12.5" ry="12.5" style="stroke:#181818;stroke-width:1.5;" width="76" x="10" y="156.0469"/><text fill="#000000" font-family="sans-serif" font-size="14" lengthAdjust="spacing" textLength="56" x="20" y="180.5801">&#20849;&#21516;&#29359;&#32618;</text><rect fill="#F1F1F1" height="37.6094" rx="12.5" ry="12.5" style="stroke:#181818;stroke-width:1.5;" width="76" x="136" y="80.1797"/><text fill="#000000" font-family="sans-serif" font-size="14" lengthAdjust="spacing" textLength="56" x="146" y="104.7129">&#20849;&#21516;&#27491;&#29359;</text><rect fill="#F1F1F1" height="42.75" rx="12.5" ry="12.5" style="stroke:#181818;stroke-width:1.5;" width="72.8896" x="262" y="46.2344"/><text fill="#000000" font-family="sans-serif" font-size="14" lengthAdjust="spacing" textLength="28" x="272" y="75.9082">&#25925;&#24847;</text><path d="M323.9907,57.0365 C323.1793,56.5103 322.0961,56.7413 321.5705,57.5521 L311.7646,72.6669 L306.9825,68.2452 C306.2726,67.589 305.166,67.6321 304.5097,68.342 C303.8535,69.0514 303.8966,70.1591 304.6066,70.8148 L310.8856,76.6201 C311.0658,76.7753 311.0658,76.7753 311.1492,76.8295 C311.4432,77.0209 311.7734,77.1119 312.1001,77.1119 C312.6729,77.1119 313.2346,76.8307 313.5701,76.3139 L324.5064,59.4567 C325.0326,58.6459 324.8016,57.562 323.9907,57.0365 " fill="#FE0000" style="stroke:;stroke-width:0;stroke-dasharray:;"/><rect fill="#F1F1F1" height="37.6094" rx="12.5" ry="12.5" style="stroke:#181818;stroke-width:1.5;" width="118" x="384.8896" y="20"/><text fill="#000000" font-family="sans-serif" font-size="14" lengthAdjust="spacing" textLength="98" x="394.8896" y="44.5332">&#37096;&#20998;&#29359;&#32618;&#20849;&#21516;&#35828;</text><path d="M334.8896,67.6094 L344.8896,67.6094 C359.8896,67.6094 359.8896,38.8047 374.8896,38.8047 L384.8896,38.8047 " fill="none" style="stroke:#181818;stroke-width:1;"/><rect fill="#F1F1F1" height="37.6094" rx="12.5" ry="12.5" style="stroke:#181818;stroke-width:1.5;" width="90" x="384.8896" y="77.6094"/><text fill="#000000" font-family="sans-serif" font-size="14" lengthAdjust="spacing" textLength="70" x="394.8896" y="102.1426">&#34892;&#20026;&#20849;&#21516;&#35828;</text><path d="M334.8896,67.6094 L344.8896,67.6094 C359.8896,67.6094 359.8896,96.4141 374.8896,96.4141 L384.8896,96.4141 " fill="none" style="stroke:#181818;stroke-width:1;"/><path d="M212,98.9844 L222,98.9844 C237,98.9844 237,67.6094 252,67.6094 L262,67.6094 " fill="none" style="stroke:#181818;stroke-width:1;"/><rect fill="#F1F1F1" height="42.75" rx="12.5" ry="12.5" style="stroke:#181818;stroke-width:1.5;" width="93.8896" x="262" y="135.2188"/><text fill="#000000" font-family="sans-serif" font-size="14" lengthAdjust="spacing" textLength="28" x="272" y="164.8926">&#36807;&#22833;</text><path d="M313.8063,160.9688 C312.8397,160.9688 312.0563,160.1853 312.0563,159.2188 L312.0563,156.8854 C312.0563,155.9188 312.8397,155.1354 313.8063,155.1354 C314.1581,155.1319 317.3063,154.5521 317.3063,152.2188 C317.3063,151.0521 316.1396,149.8854 314.3896,149.8854 C312.9657,149.8854 312.0563,151.0521 312.0563,151.6354 C312.0563,152.602 311.2729,153.3854 310.3063,153.3854 C309.3397,153.3854 308.5563,152.602 308.5563,151.6354 C308.5563,148.7899 311.228,146.3854 314.3896,146.3854 C319.0563,146.3854 320.8063,149.8749 320.8063,152.8021 C320.8063,155.22 319.4781,157.068 317.0654,158.0054 C316.5404,158.2102 316.0212,158.3478 315.5563,158.4412 L315.5563,159.2188 C315.5563,160.1853 314.7729,160.9688 313.8063,160.9688 " fill="#BE1931" style="stroke:;stroke-width:0;stroke-dasharray:;"/><ellipse cx="313.8063" cy="163.8854" fill="#BE1931" rx="1.75" ry="1.75" style="stroke:#BE1931;stroke-width:1.5;"/><path d="M332.473,165.0521 C332.473,166.2188 332.473,166.2188 331.3063,166.2188 C330.1396,166.2188 330.1396,165.0521 330.1396,165.0521 L330.1396,146.3854 C330.1396,145.2188 330.1396,145.2188 331.3063,145.2188 C332.473,145.2188 332.473,146.3854 332.473,146.3854 L332.473,165.0521 " fill="#66757F" style="stroke:;stroke-width:0;stroke-dasharray:;"/><path d="M331.3063,147.5521 C331.3063,146.2688 332.2606,145.6563 333.4273,146.1912 L343.1847,150.6636 C344.3514,151.1985 344.3514,152.0735 343.1847,152.6078 L333.4273,157.0803 C332.2606,157.6146 331.3063,157.0021 331.3063,155.7188 L331.3063,147.5521 " fill="#DD2E44" style="stroke:;stroke-width:0;stroke-dasharray:;"/><rect fill="#F1F1F1" height="37.6094" rx="12.5" ry="12.5" style="stroke:#181818;stroke-width:1.5;" width="90" x="405.8896" y="137.7891"/><text fill="#000000" font-family="sans-serif" font-size="14" lengthAdjust="spacing" textLength="70" x="415.8896" y="162.3223">&#34892;&#20026;&#20849;&#21516;&#35828;</text><path d="M355.8896,156.5938 L365.8896,156.5938 C380.8896,156.5938 380.8896,156.5938 395.8896,156.5938 L405.8896,156.5938 " fill="none" style="stroke:#181818;stroke-width:1;"/><path d="M212,98.9844 L222,98.9844 C237,98.9844 237,156.5938 252,156.5938 L262,156.5938 " fill="none" style="stroke:#181818;stroke-width:1;"/><path d="M86,174.8516 L96,174.8516 C111,174.8516 111,98.9844 126,98.9844 L136,98.9844 " fill="none" style="stroke:#181818;stroke-width:1;"/><rect fill="#F1F1F1" height="37.6094" rx="12.5" ry="12.5" style="stroke:#181818;stroke-width:1.5;" width="174" x="136" y="245.0313"/><text fill="#000000" font-family="sans-serif" font-size="14" lengthAdjust="spacing" textLength="154" x="146" y="269.5645">&#20849;&#29359;&#65288;&#25945;&#21766;&#29359;&#12289;&#24110;&#21161;&#29359;&#65289;</text><rect fill="#F1F1F1" height="42.75" rx="12.5" ry="12.5" style="stroke:#181818;stroke-width:1.5;" width="114.8896" x="360" y="224.2031"/><text fill="#000000" font-family="sans-serif" font-size="14" lengthAdjust="spacing" textLength="70" x="370" y="253.877">&#24517;&#39035;&#26159;&#25925;&#24847;</text><path d="M463.9907,235.0052 C463.1793,234.479 462.0961,234.71 461.5705,235.5209 L451.7646,250.6356 L446.9825,246.214 C446.2726,245.5577 445.166,245.6009 444.5097,246.3108 C443.8535,247.0201 443.8966,248.1279 444.6066,248.7835 L450.8856,254.5889 C451.0658,254.744 451.0658,254.744 451.1492,254.7983 C451.4432,254.9896 451.7734,255.0806 452.1001,255.0806 C452.6729,255.0806 453.2346,254.7995 453.5701,254.2826 L464.5064,237.4255 C465.0326,236.6146 464.8016,235.5308 463.9907,235.0052 " fill="#FE0000" style="stroke:;stroke-width:0;stroke-dasharray:;"/><rect fill="#F1F1F1" height="37.6094" rx="12.5" ry="12.5" style="stroke:#181818;stroke-width:1.5;" width="118" x="524.8896" y="197.9688"/><text fill="#000000" font-family="sans-serif" font-size="14" lengthAdjust="spacing" textLength="98" x="534.8896" y="222.502">&#37096;&#20998;&#29359;&#32618;&#20849;&#21516;&#35828;</text><path d="M474.8896,245.5781 L484.8896,245.5781 C499.8896,245.5781 499.8896,216.7734 514.8896,216.7734 L524.8896,216.7734 " fill="none" style="stroke:#181818;stroke-width:1;"/><rect fill="#F1F1F1" height="37.6094" rx="12.5" ry="12.5" style="stroke:#181818;stroke-width:1.5;" width="90" x="524.8896" y="255.5781"/><text fill="#000000" font-family="sans-serif" font-size="14" lengthAdjust="spacing" textLength="70" x="534.8896" y="280.1113">&#34892;&#20026;&#20849;&#21516;&#35828;</text><path d="M474.8896,245.5781 L484.8896,245.5781 C499.8896,245.5781 499.8896,274.3828 514.8896,274.3828 L524.8896,274.3828 " fill="none" style="stroke:#181818;stroke-width:1;"/><path d="M310,263.8359 L320,263.8359 C335,263.8359 335,245.5781 350,245.5781 L360,245.5781 " fill="none" style="stroke:#181818;stroke-width:1;"/><rect fill="#F1F1F1" height="42.75" rx="12.5" ry="12.5" style="stroke:#181818;stroke-width:1.5;" width="72.8896" x="360" y="286.9531"/><text fill="#000000" font-family="sans-serif" font-size="14" lengthAdjust="spacing" textLength="28" x="370" y="316.627">&#36807;&#22833;</text><path d="M414.8618,307.4555 L420.6269,301.6904 C421.3106,301.0073 421.3106,299.899 420.6269,299.2153 C419.9432,298.5322 418.8361,298.5322 418.1524,299.2153 L412.3873,304.9804 L406.6222,299.2159 C405.9391,298.5322 404.8308,298.5322 404.1471,299.2159 C403.4641,299.899 403.4641,301.0073 404.1471,301.691 L409.9122,307.4555 L404.1331,313.2345 C403.4501,313.9176 403.4501,315.026 404.1331,315.709 C404.4744,316.0509 404.923,316.2218 405.3704,316.2218 C405.8178,316.2218 406.2664,316.0509 406.6082,315.709 L412.3867,309.9305 L418.1512,315.695 C418.4931,316.0369 418.9411,316.2078 419.3885,316.2078 C419.8359,316.2078 420.2839,316.0369 420.6257,315.695 C421.3094,315.012 421.3094,313.9036 420.6257,313.2205 L414.8618,307.4555 " fill="#FE0000" style="stroke:;stroke-width:0;stroke-dasharray:;"/><path d="M310,263.8359 L320,263.8359 C335,263.8359 335,308.3281 350,308.3281 L360,308.3281 " fill="none" style="stroke:#181818;stroke-width:1;"/><path d="M86,174.8516 L96,174.8516 C111,174.8516 111,263.8359 126,263.8359 L136,263.8359 " fill="none" style="stroke:#181818;stroke-width:1;"/><!--SRC=[xLRFQnD15BxlNp7YfHMIjX9AMKAfJLkqDAMOwZLCTgURiRCpw-niwY85HQjL13qew57qe88MmOFu0_yOJLfF_Wk-cSsssn-RZISHN7B8llVDz-RDUz-RdGaLbigdtFLnO5cdA7TOv19KBezbVw6A6HaB6EOgybb9uqkme6JiPGesopg3kbllkuyUxDxVsVtwnaBmfARUsnTWDQR4t7korRlz45LFI-BQRO8xSTDf4sUzwMEvRa_l8nFqprklkjjt4jw4S6_dmn7CtlC7Fpv-Eku5pxUxtPVlKTM-6f5GKS7jwQgj9CNSYnYMpJM6lQRWpK24wbZeasXDLh2RNr-sUq-UTH_hdNs_SRFxyLtt_cjZlvS9t_sszVFvvzxJdR-HSoQM7p550qOThC-WUGqYMjOCWSAdnPyvt0jLKznfgs-OezYJs4VN8KovnI9Y_Y4qYvrrJug8kpN1X4ICUcsb_U3Tr5WNqeDjvC3xtXJiIKBu86O3oA3Z0d2SOeM4WkTjEd6cq22I0Sk39iuKcfzO9YafmZosqmiBixErMegC2MDY8mURE0tKAbFEXKEuoi66t20HMX1S9QOM0uonBL5E4XjKDBOIEWLaq1YOrIJrq-qU89NmiH8dObSa2R0qRVKdoywrX5H5gGxBfHJn0rLKtI7PQiA74gkyclLNvj71K-R4WmO4qknX3b9AKQ5SGe9mFJRepMC1va6vBKR3ThxCCkiFHzjeKtNqR7B2B0jL7CbavSIO3v6LWrsYzeDXnw5kVaiVadyHyvgGCEmJjEQ6TuVKyHKIoO7by0I3BKZXPZgmG4Bf2XC7BX6gQ8USSp9oE3P2C2F39dAG0jG25rBx5AQsdZV3z5H_z6hoC6fT8OwcppiTt86xWiWXUJjKW88CjIXYrkS-z77tjQo9GV5j7DAmk5-EY7omhW_r_U29OjI-QLN7-bVb_s-WV_qRQ4L_ubwgBw4EaQ6MsKJvxFZPIdbgf84LMXOTD369nYViIiMkJA9QOnLfzwWrKh-mYa8HmPH1BcXGqbQaOunQYxY3qSK8MiydDj9l8wlrKTIOJureddUe5Do7ThCMBzSJ43elL2CGoe0dAwLPgb23IDWMkbotviWQXbnWgIDSoZqRNLfTA4rPIxgWs8D0qFKrw5SbO_0rVWC0]--></g></svg>