<svg xmlns="http://www.w3.org/2000/svg" xmlns:xlink="http://www.w3.org/1999/xlink" contentStyleType="text/css" height="665px" preserveAspectRatio="none" style="width:1099px;height:665px;background:#FFFFFF;" version="1.1" viewBox="0 0 1099 665" width="1099px" zoomAndPan="magnify"><defs/><g><rect fill="#F1F1F1" height="37.6094" rx="12.5" ry="12.5" style="stroke:#181818;stroke-width:1.5;" width="76" x="10" y="313.1875"/><text fill="#000000" font-family="sans-serif" font-size="14" lengthAdjust="spacing" textLength="56" x="20" y="337.7207">&#29255;&#38754;&#24110;&#21161;</text><rect fill="#F1F1F1" height="37.6094" rx="12.5" ry="12.5" style="stroke:#181818;stroke-width:1.5;" width="48" x="136" y="48.8047"/><text fill="#000000" font-family="sans-serif" font-size="14" lengthAdjust="spacing" textLength="28" x="146" y="73.3379">&#24773;&#26223;</text><rect fill="#F1F1F1" height="37.6094" rx="12.5" ry="12.5" style="stroke:#181818;stroke-width:1.5;" width="48" x="234" y="20"/><text fill="#000000" font-family="sans-serif" font-size="14" lengthAdjust="spacing" textLength="28" x="244" y="44.5332">&#20154;&#29289;</text><rect fill="#F1F1F1" height="37.6094" rx="12.5" ry="12.5" style="stroke:#181818;stroke-width:1.5;" width="34" x="332" y="20"/><text fill="#000000" font-family="sans-serif" font-size="14" lengthAdjust="spacing" textLength="14" x="342" y="44.5332">&#30002;</text><rect fill="#F1F1F1" height="37.6094" rx="12.5" ry="12.5" style="stroke:#181818;stroke-width:1.5;" width="34" x="416" y="20"/><text fill="#000000" font-family="sans-serif" font-size="14" lengthAdjust="spacing" textLength="14" x="426" y="44.5332">&#20057;</text><rect fill="#F1F1F1" height="37.6094" rx="12.5" ry="12.5" style="stroke:#181818;stroke-width:1.5;" width="34" x="500" y="20"/><text fill="#000000" font-family="sans-serif" font-size="14" lengthAdjust="spacing" textLength="14" x="510" y="44.5332">&#19993;</text><path d="M450,38.8047 L460,38.8047 C475,38.8047 475,38.8047 490,38.8047 L500,38.8047 " fill="none" style="stroke:#181818;stroke-width:1;"/><path d="M366,38.8047 L376,38.8047 C391,38.8047 391,38.8047 406,38.8047 L416,38.8047 " fill="none" style="stroke:#181818;stroke-width:1;"/><path d="M282,38.8047 L292,38.8047 C307,38.8047 307,38.8047 322,38.8047 L332,38.8047 " fill="none" style="stroke:#181818;stroke-width:1;"/><path d="M184,67.6094 L194,67.6094 C209,67.6094 209,38.8047 224,38.8047 L234,38.8047 " fill="none" style="stroke:#181818;stroke-width:1;"/><rect fill="#F1F1F1" height="37.6094" rx="12.5" ry="12.5" style="stroke:#181818;stroke-width:1.5;" width="48" x="234" y="77.6094"/><text fill="#000000" font-family="sans-serif" font-size="14" lengthAdjust="spacing" textLength="28" x="244" y="102.1426">&#26696;&#24773;</text><rect fill="#F1F1F1" height="37.6094" rx="12.5" ry="12.5" style="stroke:#181818;stroke-width:1.5;" width="426" x="332" y="77.6094"/><text fill="#000000" font-family="sans-serif" font-size="14" lengthAdjust="spacing" textLength="406" x="342" y="102.1426">&#30002;&#26263;&#20013;&#24110;&#21161;&#20057;&#65292;&#20057;&#19981;&#30693;&#24773;&#65292;&#20057;&#36861;&#26432;&#19993;&#65307;&#30002;&#26263;&#20013;&#32458;&#20498;&#19993;&#65292;&#20057;&#26432;&#23475;&#19993;&#12290;</text><path d="M282,96.4141 L292,96.4141 C307,96.4141 307,96.4141 322,96.4141 L332,96.4141 " fill="none" style="stroke:#181818;stroke-width:1;"/><path d="M184,67.6094 L194,67.6094 C209,67.6094 209,96.4141 224,96.4141 L234,96.4141 " fill="none" style="stroke:#181818;stroke-width:1;"/><path d="M86,331.9922 L96,331.9922 C111,331.9922 111,67.6094 126,67.6094 L136,67.6094 " fill="none" style="stroke:#181818;stroke-width:1;"/><rect fill="#F1F1F1" height="37.6094" rx="12.5" ry="12.5" style="stroke:#181818;stroke-width:1.5;" width="48" x="136" y="370.7969"/><text fill="#000000" font-family="sans-serif" font-size="14" lengthAdjust="spacing" textLength="28" x="146" y="395.3301">&#20998;&#26512;</text><rect fill="#F1F1F1" height="37.6094" rx="12.5" ry="12.5" style="stroke:#181818;stroke-width:1.5;" width="34" x="234" y="166.5938"/><text fill="#000000" font-family="sans-serif" font-size="14" lengthAdjust="spacing" textLength="14" x="244" y="191.127">&#20057;</text><rect fill="#F1F1F1" height="42.75" rx="12.5" ry="12.5" style="stroke:#181818;stroke-width:1.5;" width="100.8896" x="318" y="135.2188"/><text fill="#000000" font-family="sans-serif" font-size="14" lengthAdjust="spacing" textLength="56" x="328" y="164.8926">&#20849;&#21516;&#29359;&#32618;</text><path d="M400.8618,155.7211 L406.6269,149.956 C407.3106,149.2729 407.3106,148.1646 406.6269,147.4809 C405.9432,146.7978 404.8361,146.7978 404.1524,147.4809 L398.3873,153.246 L392.6222,147.4815 C391.9391,146.7978 390.8308,146.7978 390.1471,147.4815 C389.4641,148.1646 389.4641,149.2729 390.1471,149.9566 L395.9122,155.7211 L390.1331,161.5002 C389.4501,162.1833 389.4501,163.2916 390.1331,163.9747 C390.4744,164.3165 390.923,164.4874 391.3704,164.4874 C391.8178,164.4874 392.2664,164.3165 392.6082,163.9747 L398.3867,158.1962 L404.1512,163.9607 C404.4931,164.3025 404.9411,164.4734 405.3885,164.4734 C405.8359,164.4734 406.2839,164.3025 406.6257,163.9607 C407.3094,163.2776 407.3094,162.1693 406.6257,161.4862 L400.8618,155.7211 " fill="#FE0000" style="stroke:;stroke-width:0;stroke-dasharray:;"/><rect fill="#F1F1F1" height="37.6094" rx="12.5" ry="12.5" style="stroke:#181818;stroke-width:1.5;" width="118" x="468.8896" y="137.7891"/><text fill="#000000" font-family="sans-serif" font-size="14" lengthAdjust="spacing" textLength="98" x="478.8896" y="162.3223">&#29420;&#33258;&#30340;&#21333;&#29420;&#29359;&#32618;</text><path d="M418.8896,156.5938 L428.8896,156.5938 C443.8896,156.5938 443.8896,156.5938 458.8896,156.5938 L468.8896,156.5938 " fill="none" style="stroke:#181818;stroke-width:1;"/><path d="M268,185.3984 L278,185.3984 C293,185.3984 293,156.5938 308,156.5938 L318,156.5938 " fill="none" style="stroke:#181818;stroke-width:1;"/><rect fill="#F1F1F1" height="37.6094" rx="12.5" ry="12.5" style="stroke:#181818;stroke-width:1.5;" width="48" x="318" y="197.9688"/><text fill="#000000" font-family="sans-serif" font-size="14" lengthAdjust="spacing" textLength="28" x="328" y="222.502">&#32618;&#21517;</text><rect fill="#F1F1F1" height="37.6094" rx="12.5" ry="12.5" style="stroke:#181818;stroke-width:1.5;" width="132" x="416" y="197.9688"/><text fill="#000000" font-family="sans-serif" font-size="14" lengthAdjust="spacing" textLength="112" x="426" y="222.502">&#21333;&#29420;&#30340;&#25925;&#24847;&#26432;&#20154;&#32618;</text><path d="M366,216.7734 L376,216.7734 C391,216.7734 391,216.7734 406,216.7734 L416,216.7734 " fill="none" style="stroke:#181818;stroke-width:1;"/><path d="M268,185.3984 L278,185.3984 C293,185.3984 293,216.7734 308,216.7734 L318,216.7734 " fill="none" style="stroke:#181818;stroke-width:1;"/><path d="M184,389.6016 L194,389.6016 C209,389.6016 209,185.3984 224,185.3984 L234,185.3984 " fill="none" style="stroke:#181818;stroke-width:1;"/><rect fill="#F1F1F1" height="37.6094" rx="12.5" ry="12.5" style="stroke:#181818;stroke-width:1.5;" width="34" x="234" y="430.9766"/><text fill="#000000" font-family="sans-serif" font-size="14" lengthAdjust="spacing" textLength="14" x="244" y="455.5098">&#30002;</text><rect fill="#F1F1F1" height="42.75" rx="12.5" ry="12.5" style="stroke:#181818;stroke-width:1.5;" width="156.8896" x="318" y="428.4063"/><text fill="#000000" font-family="sans-serif" font-size="14" lengthAdjust="spacing" textLength="112" x="328" y="458.0801">&#26159;&#21542;&#26500;&#25104;&#20849;&#21516;&#29359;&#32618;</text><path d="M453.8063,454.1563 C452.8397,454.1563 452.0563,453.3728 452.0563,452.4063 L452.0563,450.0729 C452.0563,449.1063 452.8397,448.3229 453.8063,448.3229 C454.1581,448.3194 457.3063,447.7396 457.3063,445.4063 C457.3063,444.2396 456.1396,443.0729 454.3896,443.0729 C452.9657,443.0729 452.0563,444.2396 452.0563,444.8229 C452.0563,445.7895 451.2729,446.5729 450.3063,446.5729 C449.3397,446.5729 448.5563,445.7895 448.5563,444.8229 C448.5563,441.9774 451.228,439.5729 454.3896,439.5729 C459.0563,439.5729 460.8063,443.0624 460.8063,445.9896 C460.8063,448.4075 459.4781,450.2555 457.0654,451.1929 C456.5404,451.3977 456.0212,451.5353 455.5563,451.6287 L455.5563,452.4063 C455.5563,453.3728 454.7729,454.1563 453.8063,454.1563 " fill="#BE1931" style="stroke:;stroke-width:0;stroke-dasharray:;"/><ellipse cx="453.8063" cy="457.0729" fill="#BE1931" rx="1.75" ry="1.75" style="stroke:#BE1931;stroke-width:1.5;"/><rect fill="#F1F1F1" height="37.6094" rx="12.5" ry="12.5" style="stroke:#181818;stroke-width:1.5;" width="146" x="524.8896" y="286.9531"/><text fill="#000000" font-family="sans-serif" font-size="14" lengthAdjust="spacing" textLength="126" x="534.8896" y="311.4863">&#32943;&#23450;&#35828;&#65288;&#20445;&#25252;&#27861;&#30410;&#65289;</text><rect fill="#F1F1F1" height="42.75" rx="12.5" ry="12.5" style="stroke:#181818;stroke-width:1.5;" width="100.8896" x="720.8896" y="255.5781"/><text fill="#000000" font-family="sans-serif" font-size="14" lengthAdjust="spacing" textLength="56" x="730.8896" y="285.252">&#20849;&#21516;&#29359;&#32618;</text><path d="M810.8804,266.3802 C810.069,265.854 808.9857,266.085 808.4601,266.8959 L798.6543,282.0106 L793.8721,277.589 C793.1622,276.9327 792.0556,276.9759 791.3994,277.6858 C790.7431,278.3951 790.7863,279.5029 791.4962,280.1585 L797.7752,285.9639 C797.9555,286.119 797.9555,286.119 798.0389,286.1733 C798.3329,286.3646 798.663,286.4556 798.9897,286.4556 C799.5625,286.4556 800.1243,286.1745 800.4597,285.6576 L811.396,268.8005 C811.9222,267.9896 811.6912,266.9058 810.8804,266.3802 " fill="#FE0000" style="stroke:;stroke-width:0;stroke-dasharray:;"/><rect fill="#F1F1F1" height="37.6094" rx="12.5" ry="12.5" style="stroke:#181818;stroke-width:1.5;" width="132" x="871.7793" y="258.1484"/><text fill="#000000" font-family="sans-serif" font-size="14" lengthAdjust="spacing" textLength="112" x="881.7793" y="282.6816">&#21333;&#26041;&#38754;&#30340;&#20849;&#21516;&#29359;&#32618;</text><path d="M821.7793,276.9531 L831.7793,276.9531 C846.7793,276.9531 846.7793,276.9531 861.7793,276.9531 L871.7793,276.9531 " fill="none" style="stroke:#181818;stroke-width:1;"/><path d="M670.8896,305.7578 L680.8896,305.7578 C695.8896,305.7578 695.8896,276.9531 710.8896,276.9531 L720.8896,276.9531 " fill="none" style="stroke:#181818;stroke-width:1;"/><rect fill="#F1F1F1" height="37.6094" rx="12.5" ry="12.5" style="stroke:#181818;stroke-width:1.5;" width="48" x="720.8896" y="318.3281"/><text fill="#000000" font-family="sans-serif" font-size="14" lengthAdjust="spacing" textLength="28" x="730.8896" y="342.8613">&#32618;&#21517;</text><rect fill="#F1F1F1" height="37.6094" rx="12.5" ry="12.5" style="stroke:#181818;stroke-width:1.5;" width="188" x="818.8896" y="318.3281"/><text fill="#000000" font-family="sans-serif" font-size="14" lengthAdjust="spacing" textLength="168" x="828.8896" y="342.8613">&#25925;&#24847;&#26432;&#20154;&#32618;&#30340;&#29255;&#38754;&#30340;&#24110;&#21161;&#29359;</text><path d="M768.8896,337.1328 L778.8896,337.1328 C793.8896,337.1328 793.8896,337.1328 808.8896,337.1328 L818.8896,337.1328 " fill="none" style="stroke:#181818;stroke-width:1;"/><path d="M670.8896,305.7578 L680.8896,305.7578 C695.8896,305.7578 695.8896,337.1328 710.8896,337.1328 L720.8896,337.1328 " fill="none" style="stroke:#181818;stroke-width:1;"/><path d="M474.8896,449.7813 L484.8896,449.7813 C499.8896,449.7813 499.8896,305.7578 514.8896,305.7578 L524.8896,305.7578 " fill="none" style="stroke:#181818;stroke-width:1;"/><rect fill="#F1F1F1" height="37.6094" rx="12.5" ry="12.5" style="stroke:#181818;stroke-width:1.5;" width="146" x="524.8896" y="491.1563"/><text fill="#000000" font-family="sans-serif" font-size="14" lengthAdjust="spacing" textLength="126" x="534.8896" y="515.6895">&#21542;&#23450;&#35828;&#65288;&#20445;&#38556;&#20154;&#26435;&#65289;</text><rect fill="#F1F1F1" height="42.75" rx="12.5" ry="12.5" style="stroke:#181818;stroke-width:1.5;" width="100.8896" x="720.8896" y="430.9766"/><text fill="#000000" font-family="sans-serif" font-size="14" lengthAdjust="spacing" textLength="56" x="730.8896" y="460.6504">&#20849;&#21516;&#29359;&#32618;</text><path d="M803.7515,451.4789 L809.5165,445.7138 C810.2002,445.0307 810.2002,443.9224 809.5165,443.2387 C808.8329,442.5556 807.7257,442.5556 807.042,443.2387 L801.277,449.0038 L795.5119,443.2393 C794.8288,442.5556 793.7205,442.5556 793.0368,443.2393 C792.3537,443.9224 792.3537,445.0307 793.0368,445.7144 L798.8019,451.4789 L793.0228,457.258 C792.3397,457.9411 792.3397,459.0494 793.0228,459.7325 C793.364,460.0743 793.8126,460.2452 794.26,460.2452 C794.7075,460.2452 795.156,460.0743 795.4979,459.7325 L801.2764,453.954 L807.0409,459.7185 C807.3827,460.0603 807.8307,460.2312 808.2781,460.2312 C808.7255,460.2312 809.1735,460.0603 809.5154,459.7185 C810.199,459.0354 810.199,457.9271 809.5154,457.244 L803.7515,451.4789 " fill="#FE0000" style="stroke:;stroke-width:0;stroke-dasharray:;"/><rect fill="#F1F1F1" height="37.6094" rx="12.5" ry="12.5" style="stroke:#181818;stroke-width:1.5;" width="216" x="871.7793" y="375.9375"/><text fill="#000000" font-family="sans-serif" font-size="14" lengthAdjust="spacing" textLength="196" x="881.7793" y="400.4707">&#30002;&#23545;&#20057;&#21046;&#36896;&#30340;&#36829;&#27861;&#20107;&#23454;&#19981;&#29992;&#36127;&#36131;</text><path d="M821.7793,452.3516 L831.7793,452.3516 C846.7793,452.3516 846.7793,394.7422 861.7793,394.7422 L871.7793,394.7422 " fill="none" style="stroke:#181818;stroke-width:1;"/><rect fill="#F1F1F1" height="37.6094" rx="12.5" ry="12.5" style="stroke:#181818;stroke-width:1.5;" width="160" x="871.7793" y="433.5469"/><text fill="#000000" font-family="sans-serif" font-size="14" lengthAdjust="spacing" textLength="140" x="881.7793" y="458.0801">&#30002;&#21482;&#23545;&#33258;&#24049;&#30340;&#34892;&#20026;&#36127;&#36131;</text><path d="M821.7793,452.3516 L831.7793,452.3516 C846.7793,452.3516 846.7793,452.3516 861.7793,452.3516 L871.7793,452.3516 " fill="none" style="stroke:#181818;stroke-width:1;"/><rect fill="#F1F1F1" height="37.6094" rx="12.5" ry="12.5" style="stroke:#181818;stroke-width:1.5;" width="76" x="871.7793" y="491.1563"/><text fill="#000000" font-family="sans-serif" font-size="14" lengthAdjust="spacing" textLength="56" x="881.7793" y="515.6895">&#21333;&#29420;&#22788;&#29702;</text><path d="M821.7793,452.3516 L831.7793,452.3516 C846.7793,452.3516 846.7793,509.9609 861.7793,509.9609 L871.7793,509.9609 " fill="none" style="stroke:#181818;stroke-width:1;"/><path d="M670.8896,509.9609 L680.8896,509.9609 C695.8896,509.9609 695.8896,452.3516 710.8896,452.3516 L720.8896,452.3516 " fill="none" style="stroke:#181818;stroke-width:1;"/><rect fill="#F1F1F1" height="37.6094" rx="12.5" ry="12.5" style="stroke:#181818;stroke-width:1.5;" width="48" x="720.8896" y="548.7656"/><text fill="#000000" font-family="sans-serif" font-size="14" lengthAdjust="spacing" textLength="28" x="730.8896" y="573.2988">&#32618;&#21517;</text><rect fill="#F1F1F1" height="37.6094" rx="12.5" ry="12.5" style="stroke:#181818;stroke-width:1.5;" width="90" x="818.8896" y="548.7656"/><text fill="#000000" font-family="sans-serif" font-size="14" lengthAdjust="spacing" textLength="70" x="828.8896" y="573.2988">&#19981;&#26500;&#25104;&#29359;&#32618;</text><path d="M768.8896,567.5703 L778.8896,567.5703 C793.8896,567.5703 793.8896,567.5703 808.8896,567.5703 L818.8896,567.5703 " fill="none" style="stroke:#181818;stroke-width:1;"/><path d="M670.8896,509.9609 L680.8896,509.9609 C695.8896,509.9609 695.8896,567.5703 710.8896,567.5703 L720.8896,567.5703 " fill="none" style="stroke:#181818;stroke-width:1;"/><rect fill="#F1F1F1" height="37.6094" rx="12.5" ry="12.5" style="stroke:#181818;stroke-width:1.5;" width="48" x="720.8896" y="606.375"/><text fill="#000000" font-family="sans-serif" font-size="14" lengthAdjust="spacing" textLength="28" x="730.8896" y="630.9082">&#35780;&#20215;</text><rect fill="#90EE90" height="37.6094" rx="12.5" ry="12.5" style="stroke:#181818;stroke-width:1.5;" width="163.8896" x="818.8896" y="606.375"/><text fill="#000000" font-family="sans-serif" font-size="14" lengthAdjust="spacing" textLength="140" x="828.8896" y="630.9082">&#32473;&#30002;&#23450;&#26080;&#32618;&#26159;&#19981;&#21512;&#29702;&#30340;</text><path d="M768.8896,625.1797 L778.8896,625.1797 C793.8896,625.1797 793.8896,625.1797 808.8896,625.1797 L818.8896,625.1797 " fill="none" style="stroke:#181818;stroke-width:1;"/><path d="M670.8896,509.9609 L680.8896,509.9609 C695.8896,509.9609 695.8896,625.1797 710.8896,625.1797 L720.8896,625.1797 " fill="none" style="stroke:#181818;stroke-width:1;"/><path d="M474.8896,449.7813 L484.8896,449.7813 C499.8896,449.7813 499.8896,509.9609 514.8896,509.9609 L524.8896,509.9609 " fill="none" style="stroke:#181818;stroke-width:1;"/><path d="M268,449.7813 L278,449.7813 C293,449.7813 293,449.7813 308,449.7813 L318,449.7813 " fill="none" style="stroke:#181818;stroke-width:1;"/><path d="M184,389.6016 L194,389.6016 C209,389.6016 209,449.7813 224,449.7813 L234,449.7813 " fill="none" style="stroke:#181818;stroke-width:1;"/><path d="M86,331.9922 L96,331.9922 C111,331.9922 111,389.6016 126,389.6016 L136,389.6016 " fill="none" style="stroke:#181818;stroke-width:1;"/><!--SRC=[xLXRJnj757xVNp5LNY0I9aG8HHP210VKHZYAQf9NDDwTs1DsTzpTMQTMXOGIanW2YbM5fZY596qQDQZ5Ia4DL-N7rBjhdlWBENk3DNYzRjugOI7BS-OxtxdE6GsZEiSQLwWgARWW25zHLPGDYQ14eZ_yf_EIJFeBCbQveSXz3huF5FfSUOA2J10k8tlXoT7Qh-REfhduNa3mkOoiH_FMQjrTU8B6tfwzyFv4u0djvt-tI7pexkevgR-pingYjDvKmCnvIglseh7pb-SES1qVBC5tOsVPVlKxuBrbyzEXjJO7VCS7BqzKxFr5S-v7L-XW061kRi7otxc7VbXcvR6rNXMYVGN8_0UpkcGlrkt33JHyIIDICazmiJIj63Ad1PcAc5EcJd-V76aJk_tqp-QJ3RjMDfTNuBT7SpR4mmspkjn6sTUfbQsLUQlyp0aGiXxIFvznoEBFTRFwpbelMvLgg-_9xmoYExwszRJvi6vkrfhrxUE3IkFJchNurjfQiLyk7XyiH5GlCZDYdeWpqmhMPjfOQWdF-caNEir9JuWhmbn4caAHjsO9MBr6TkZTvW7wTbcklWi7VbJx1VIjjKTV47WNBT5IEhE-2mrdLluvcdiDNZOXxLihZRsdvkQwqz_F_sXklsfk_nP3ycm3UA3Bp8yV798tIusTlLX5hxVCjsMx-lXB4mu-UdtMiMxDUhcn_x5J3FkhJXYRDUl5Qw211WPYire1po0UD3nCb48UwrGV6H44OPJ0Z0lct6Zhs1jsvzY8u0jkK9pJi89-0EE9h6mGznT2OrYSoMdCKAKKavc6P9hBSsSVTcSTh0Ij2rMDWFkx0JYd4Q9sOdO18NGf1bmAi4p3QYxAQMypW1OChI17GRtD01eTM2WeZUbHR9Sc9iR6Kga0MIAop1v4OBrD5oeaWZB6vogC7eCunJoqILTQDASoZNIHO8GcgKhEoayfkZJRaSeXKrKc4fL7qEYgcns49fZAFL5M1imPLkXYtpUL0ndC5YodDAe4WPuYELCmPssnjpLIm9excVwBslKiqtXSURlbuXpAokCwkaks55EWhNbKjNtDA3gdEYh9GS60D9pCJjCXhb0I8GLzfkIYPyyP68TfbPMfdeyUBI7zLciFyfIVpKs4cLkCnrjoen9BMEqYAX5BX9yOmw98fUYMRXbvSSptuAJfeUCBQv6ayNrYn1nY9eCB6fD27HXpX08Drqw1wPJJ8hakXex3kR69PT9j8ASXG2rmBBL2uQPoPcmtFULVDmwvRcJl4z6XZyeEBiBzIBGkUOkKmGbogLaSivFthjFjd-LW29uStCvdjQMNEqy9btbM6Exth_oBPyl5i-NYsNBnRFbVF5jkE_-0kPEUH4MYwSujCP2uUkNgOE9QJmPpT8iLqS0GkZAG71nC3WwXL6OAETkzGa_wcocaCmCkIIJ15QBHhE6Kh5UuYOiOVMl0b5L84ZchdgbqBygC1q8qhXQfnbG59gjmysxQ0w6l6SyK67V1GuDzOvIZ3D70BNGtBTmWzp2q1gYAJA9gBedkJ4tqNHCcOG8RE0U6uCvBmMZcMWdsCfy1]--></g></svg>