<svg xmlns="http://www.w3.org/2000/svg" xmlns:xlink="http://www.w3.org/1999/xlink" contentStyleType="text/css" height="1178px" preserveAspectRatio="none" style="width:1102px;height:1178px;background:#FFFFFF;" version="1.1" viewBox="0 0 1102 1178" width="1102px" zoomAndPan="magnify"><defs/><g><rect fill="#F1F1F1" height="37.6094" rx="12.5" ry="12.5" style="stroke:#181818;stroke-width:1.5;" width="62" x="10" y="569.3281"/><text fill="#000000" font-family="sans-serif" font-size="14" lengthAdjust="spacing" textLength="42" x="20" y="593.8613">&#25945;&#21766;&#29359;</text><rect fill="#F1F1F1" height="37.6094" rx="12.5" ry="12.5" style="stroke:#181818;stroke-width:1.5;" width="76" x="122" y="116.6953"/><text fill="#000000" font-family="sans-serif" font-size="14" lengthAdjust="spacing" textLength="56" x="132" y="141.2285">&#25104;&#31435;&#26465;&#20214;</text><rect fill="#F1F1F1" height="37.6094" rx="12.5" ry="12.5" style="stroke:#181818;stroke-width:1.5;" width="90" x="248" y="53.9453"/><text fill="#000000" font-family="sans-serif" font-size="14" lengthAdjust="spacing" textLength="70" x="258" y="78.4785">&#23458;&#35266;&#36829;&#27861;&#23618;</text><rect fill="#F1F1F1" height="42.75" rx="12.5" ry="12.5" style="stroke:#181818;stroke-width:1.5;" width="72.8896" x="388" y="20"/><text fill="#000000" font-family="sans-serif" font-size="14" lengthAdjust="spacing" textLength="28" x="398" y="49.6738">&#24341;&#36215;</text><path d="M449.9907,30.8021 C449.1793,30.2759 448.0961,30.5069 447.5705,31.3178 L437.7646,46.4325 L432.9825,42.0108 C432.2726,41.3546 431.166,41.3978 430.5097,42.1077 C429.8535,42.817 429.8966,43.9248 430.6066,44.5804 L436.8856,50.3858 C437.0658,50.5409 437.0658,50.5409 437.1492,50.5952 C437.4432,50.7865 437.7734,50.8775 438.1001,50.8775 C438.6729,50.8775 439.2346,50.5963 439.5701,50.0795 L450.5064,33.2223 C451.0326,32.4115 450.8016,31.3277 449.9907,30.8021 " fill="#FE0000" style="stroke:;stroke-width:0;stroke-dasharray:;"/><path d="M338,72.75 L348,72.75 C363,72.75 363,41.375 378,41.375 L388,41.375 " fill="none" style="stroke:#181818;stroke-width:1;"/><rect fill="#F1F1F1" height="42.75" rx="12.5" ry="12.5" style="stroke:#181818;stroke-width:1.5;" width="72.8896" x="388" y="82.75"/><text fill="#000000" font-family="sans-serif" font-size="14" lengthAdjust="spacing" textLength="28" x="398" y="112.4238">&#25903;&#37197;</text><path d="M442.8618,103.2523 L448.6269,97.4873 C449.3106,96.8042 449.3106,95.6958 448.6269,95.0122 C447.9432,94.3291 446.8361,94.3291 446.1524,95.0122 L440.3873,100.7773 L434.6222,95.0128 C433.9391,94.3291 432.8308,94.3291 432.1471,95.0128 C431.4641,95.6958 431.4641,96.8042 432.1471,97.4878 L437.9122,103.2523 L432.1331,109.0314 C431.4501,109.7145 431.4501,110.8228 432.1331,111.5059 C432.4744,111.8478 432.923,112.0187 433.3704,112.0187 C433.8178,112.0187 434.2664,111.8478 434.6082,111.5059 L440.3867,105.7274 L446.1512,111.4919 C446.4931,111.8338 446.9411,112.0047 447.3885,112.0047 C447.8359,112.0047 448.2839,111.8338 448.6257,111.4919 C449.3094,110.8088 449.3094,109.7005 448.6257,109.0174 L442.8618,103.2523 " fill="#FE0000" style="stroke:;stroke-width:0;stroke-dasharray:;"/><path d="M338,72.75 L348,72.75 C363,72.75 363,104.125 378,104.125 L388,104.125 " fill="none" style="stroke:#181818;stroke-width:1;"/><path d="M198,135.5 L208,135.5 C223,135.5 223,72.75 238,72.75 L248,72.75 " fill="none" style="stroke:#181818;stroke-width:1;"/><rect fill="#F1F1F1" height="37.6094" rx="12.5" ry="12.5" style="stroke:#181818;stroke-width:1.5;" width="90" x="248" y="179.4453"/><text fill="#000000" font-family="sans-serif" font-size="14" lengthAdjust="spacing" textLength="70" x="258" y="203.9785">&#20027;&#35266;&#36131;&#20219;&#23618;</text><rect fill="#F1F1F1" height="42.75" rx="12.5" ry="12.5" style="stroke:#181818;stroke-width:1.5;" width="72.8896" x="388" y="145.5"/><text fill="#000000" font-family="sans-serif" font-size="14" lengthAdjust="spacing" textLength="28" x="398" y="175.1738">&#25925;&#24847;</text><path d="M449.9907,156.3021 C449.1793,155.7759 448.0961,156.0069 447.5705,156.8178 L437.7646,171.9325 L432.9825,167.5108 C432.2726,166.8546 431.166,166.8978 430.5097,167.6077 C429.8535,168.317 429.8966,169.4248 430.6066,170.0804 L436.8856,175.8858 C437.0658,176.0409 437.0658,176.0409 437.1492,176.0952 C437.4432,176.2865 437.7734,176.3775 438.1001,176.3775 C438.6729,176.3775 439.2346,176.0963 439.5701,175.5795 L450.5064,158.7223 C451.0326,157.9115 450.8016,156.8277 449.9907,156.3021 " fill="#FE0000" style="stroke:;stroke-width:0;stroke-dasharray:;"/><path d="M338,198.25 L348,198.25 C363,198.25 363,166.875 378,166.875 L388,166.875 " fill="none" style="stroke:#181818;stroke-width:1;"/><rect fill="#F1F1F1" height="42.75" rx="12.5" ry="12.5" style="stroke:#181818;stroke-width:1.5;" width="72.8896" x="388" y="208.25"/><text fill="#000000" font-family="sans-serif" font-size="14" lengthAdjust="spacing" textLength="28" x="398" y="237.9238">&#36807;&#22833;</text><path d="M442.8618,228.7523 L448.6269,222.9873 C449.3106,222.3042 449.3106,221.1958 448.6269,220.5122 C447.9432,219.8291 446.8361,219.8291 446.1524,220.5122 L440.3873,226.2773 L434.6222,220.5128 C433.9391,219.8291 432.8308,219.8291 432.1471,220.5128 C431.4641,221.1958 431.4641,222.3042 432.1471,222.9878 L437.9122,228.7523 L432.1331,234.5314 C431.4501,235.2145 431.4501,236.3228 432.1331,237.0059 C432.4744,237.3478 432.923,237.5187 433.3704,237.5187 C433.8178,237.5187 434.2664,237.3478 434.6082,237.0059 L440.3867,231.2274 L446.1512,236.9919 C446.4931,237.3338 446.9411,237.5047 447.3885,237.5047 C447.8359,237.5047 448.2839,237.3338 448.6257,236.9919 C449.3094,236.3088 449.3094,235.2005 448.6257,234.5174 L442.8618,228.7523 " fill="#FE0000" style="stroke:;stroke-width:0;stroke-dasharray:;"/><path d="M338,198.25 L348,198.25 C363,198.25 363,229.625 378,229.625 L388,229.625 " fill="none" style="stroke:#181818;stroke-width:1;"/><path d="M198,135.5 L208,135.5 C223,135.5 223,198.25 238,198.25 L248,198.25 " fill="none" style="stroke:#181818;stroke-width:1;"/><path d="M72,588.1328 L82,588.1328 C97,588.1328 97,135.5 112,135.5 L122,135.5 " fill="none" style="stroke:#181818;stroke-width:1;"/><rect fill="#F1F1F1" height="37.6094" rx="12.5" ry="12.5" style="stroke:#181818;stroke-width:1.5;" width="48" x="122" y="443.8281"/><text fill="#000000" font-family="sans-serif" font-size="14" lengthAdjust="spacing" textLength="28" x="132" y="468.3613">&#22788;&#32602;</text><rect fill="#F1F1F1" height="37.6094" rx="12.5" ry="12.5" style="stroke:#181818;stroke-width:1.5;" width="48" x="220" y="299.8047"/><text fill="#000000" font-family="sans-serif" font-size="14" lengthAdjust="spacing" textLength="28" x="230" y="324.3379">&#20316;&#29992;</text><rect fill="#F1F1F1" height="37.6094" rx="12.5" ry="12.5" style="stroke:#181818;stroke-width:1.5;" width="76" x="318" y="271"/><text fill="#000000" font-family="sans-serif" font-size="14" lengthAdjust="spacing" textLength="56" x="328" y="295.5332">&#20027;&#35201;&#20316;&#29992;</text><rect fill="#F1F1F1" height="37.6094" rx="12.5" ry="12.5" style="stroke:#181818;stroke-width:1.5;" width="48" x="444" y="271"/><text fill="#000000" font-family="sans-serif" font-size="14" lengthAdjust="spacing" textLength="28" x="454" y="295.5332">&#20027;&#29359;</text><path d="M394,289.8047 L404,289.8047 C419,289.8047 419,289.8047 434,289.8047 L444,289.8047 " fill="none" style="stroke:#181818;stroke-width:1;"/><path d="M268,318.6094 L278,318.6094 C293,318.6094 293,289.8047 308,289.8047 L318,289.8047 " fill="none" style="stroke:#181818;stroke-width:1;"/><rect fill="#F1F1F1" height="37.6094" rx="12.5" ry="12.5" style="stroke:#181818;stroke-width:1.5;" width="76" x="318" y="328.6094"/><text fill="#000000" font-family="sans-serif" font-size="14" lengthAdjust="spacing" textLength="56" x="328" y="353.1426">&#27425;&#35201;&#20316;&#29992;</text><rect fill="#F1F1F1" height="37.6094" rx="12.5" ry="12.5" style="stroke:#181818;stroke-width:1.5;" width="48" x="444" y="328.6094"/><text fill="#000000" font-family="sans-serif" font-size="14" lengthAdjust="spacing" textLength="28" x="454" y="353.1426">&#20174;&#29359;</text><path d="M394,347.4141 L404,347.4141 C419,347.4141 419,347.4141 434,347.4141 L444,347.4141 " fill="none" style="stroke:#181818;stroke-width:1;"/><path d="M268,318.6094 L278,318.6094 C293,318.6094 293,347.4141 308,347.4141 L318,347.4141 " fill="none" style="stroke:#181818;stroke-width:1;"/><path d="M170,462.6328 L180,462.6328 C195,462.6328 195,318.6094 210,318.6094 L220,318.6094 " fill="none" style="stroke:#181818;stroke-width:1;"/><rect fill="#F1F1F1" height="37.6094" rx="12.5" ry="12.5" style="stroke:#181818;stroke-width:1.5;" width="48" x="220" y="415.0234"/><text fill="#000000" font-family="sans-serif" font-size="14" lengthAdjust="spacing" textLength="28" x="230" y="439.5566">&#23545;&#35937;</text><rect fill="#F1F1F1" height="37.6094" rx="12.5" ry="12.5" style="stroke:#181818;stroke-width:1.5;" width="48" x="318" y="386.2188"/><text fill="#000000" font-family="sans-serif" font-size="14" lengthAdjust="spacing" textLength="28" x="328" y="410.752">&#29305;&#23450;</text><rect fill="#F1F1F1" height="37.6094" rx="12.5" ry="12.5" style="stroke:#181818;stroke-width:1.5;" width="48" x="416" y="386.2188"/><text fill="#000000" font-family="sans-serif" font-size="14" lengthAdjust="spacing" textLength="28" x="426" y="410.752">&#25945;&#21766;</text><path d="M366,405.0234 L376,405.0234 C391,405.0234 391,405.0234 406,405.0234 L416,405.0234 " fill="none" style="stroke:#181818;stroke-width:1;"/><path d="M268,433.8281 L278,433.8281 C293,433.8281 293,405.0234 308,405.0234 L318,405.0234 " fill="none" style="stroke:#181818;stroke-width:1;"/><rect fill="#F1F1F1" height="37.6094" rx="12.5" ry="12.5" style="stroke:#181818;stroke-width:1.5;" width="62" x="318" y="443.8281"/><text fill="#000000" font-family="sans-serif" font-size="14" lengthAdjust="spacing" textLength="42" x="328" y="468.3613">&#19981;&#29305;&#23450;</text><rect fill="#F1F1F1" height="37.6094" rx="12.5" ry="12.5" style="stroke:#181818;stroke-width:1.5;" width="48" x="430" y="443.8281"/><text fill="#000000" font-family="sans-serif" font-size="14" lengthAdjust="spacing" textLength="28" x="440" y="468.3613">&#29053;&#21160;</text><path d="M380,462.6328 L390,462.6328 C405,462.6328 405,462.6328 420,462.6328 L430,462.6328 " fill="none" style="stroke:#181818;stroke-width:1;"/><path d="M268,433.8281 L278,433.8281 C293,433.8281 293,462.6328 308,462.6328 L318,462.6328 " fill="none" style="stroke:#181818;stroke-width:1;"/><path d="M170,462.6328 L180,462.6328 C195,462.6328 195,433.8281 210,433.8281 L220,433.8281 " fill="none" style="stroke:#181818;stroke-width:1;"/><rect fill="#F1F1F1" height="37.6094" rx="12.5" ry="12.5" style="stroke:#181818;stroke-width:1.5;" width="76" x="220" y="530.2422"/><text fill="#000000" font-family="sans-serif" font-size="14" lengthAdjust="spacing" textLength="56" x="230" y="554.7754">&#20174;&#37325;&#22788;&#32602;</text><rect fill="#F1F1F1" height="37.6094" rx="12.5" ry="12.5" style="stroke:#181818;stroke-width:1.5;" width="105.5723" x="346" y="530.2422"/><text fill="#000000" font-family="sans-serif" font-size="14" lengthAdjust="spacing" textLength="85.5723" x="356" y="554.7754">&#24180;&#40836;&#23567;&#20110;18&#23681;</text><rect fill="#F1F1F1" height="37.6094" rx="12.5" ry="12.5" style="stroke:#181818;stroke-width:1.5;" width="175.5723" x="501.5723" y="501.4375"/><text fill="#000000" font-family="sans-serif" font-size="14" lengthAdjust="spacing" textLength="155.5723" x="511.5723" y="525.9707">&#22823;&#20110;&#25110;&#31561;&#20110;12&#23681;&#65292;&#25945;&#21766;&#29359;</text><path d="M451.5723,549.0469 L461.5723,549.0469 C476.5723,549.0469 476.5723,520.2422 491.5723,520.2422 L501.5723,520.2422 " fill="none" style="stroke:#181818;stroke-width:1;"/><rect fill="#F1F1F1" height="37.6094" rx="12.5" ry="12.5" style="stroke:#181818;stroke-width:1.5;" width="147.5723" x="501.5723" y="559.0469"/><text fill="#000000" font-family="sans-serif" font-size="14" lengthAdjust="spacing" textLength="127.5723" x="511.5723" y="583.5801">&#23567;&#20110;12&#23681;&#65292;&#38388;&#25509;&#27491;&#29359;</text><path d="M451.5723,549.0469 L461.5723,549.0469 C476.5723,549.0469 476.5723,577.8516 491.5723,577.8516 L501.5723,577.8516 " fill="none" style="stroke:#181818;stroke-width:1;"/><path d="M296,549.0469 L306,549.0469 C321,549.0469 321,549.0469 336,549.0469 L346,549.0469 " fill="none" style="stroke:#181818;stroke-width:1;"/><path d="M170,462.6328 L180,462.6328 C195,462.6328 195,549.0469 210,549.0469 L220,549.0469 " fill="none" style="stroke:#181818;stroke-width:1;"/><rect fill="#F1F1F1" height="37.6094" rx="12.5" ry="12.5" style="stroke:#181818;stroke-width:1.5;" width="76" x="220" y="616.6563"/><text fill="#000000" font-family="sans-serif" font-size="14" lengthAdjust="spacing" textLength="56" x="230" y="641.1895">&#20174;&#36731;&#22788;&#32602;</text><rect fill="#F1F1F1" height="37.6094" rx="12.5" ry="12.5" style="stroke:#181818;stroke-width:1.5;" width="258" x="346" y="616.6563"/><text fill="#000000" font-family="sans-serif" font-size="14" lengthAdjust="spacing" textLength="238" x="356" y="641.1895">&#12302;&#34987;&#25945;&#21766;&#30340;&#20154;&#12303;&#27809;&#26377;&#29359;&#12302;&#34987;&#25945;&#21766;&#30340;&#32618;&#12303;</text><path d="M296,635.4609 L306,635.4609 C321,635.4609 321,635.4609 336,635.4609 L346,635.4609 " fill="none" style="stroke:#181818;stroke-width:1;"/><path d="M170,462.6328 L180,462.6328 C195,462.6328 195,635.4609 210,635.4609 L220,635.4609 " fill="none" style="stroke:#181818;stroke-width:1;"/><path d="M72,588.1328 L82,588.1328 C97,588.1328 97,462.6328 112,462.6328 L122,462.6328 " fill="none" style="stroke:#181818;stroke-width:1;"/><rect fill="#F1F1F1" height="37.6094" rx="12.5" ry="12.5" style="stroke:#181818;stroke-width:1.5;" width="48" x="122" y="896.4609"/><text fill="#000000" font-family="sans-serif" font-size="14" lengthAdjust="spacing" textLength="28" x="132" y="920.9941">&#31034;&#20363;</text><rect fill="#F1F1F1" height="37.6094" rx="12.5" ry="12.5" style="stroke:#181818;stroke-width:1.5;" width="62" x="220" y="802.3359"/><text fill="#000000" font-family="sans-serif" font-size="14" lengthAdjust="spacing" textLength="42" x="230" y="826.8691">&#19981;&#25104;&#31435;</text><rect fill="#F1F1F1" height="42.75" rx="12.5" ry="12.5" style="stroke:#181818;stroke-width:1.5;" width="310.8896" x="332" y="674.2656"/><text fill="#000000" font-family="sans-serif" font-size="14" lengthAdjust="spacing" textLength="266" x="342" y="703.9395">&#20057;&#26089;&#26377;&#29359;&#26576;&#32618;&#30340;&#24847;&#22270;&#65292;&#30002;&#25945;&#21766;&#20057;&#21435;&#29359;&#35813;&#32618;&#12290;</text><path d="M624.8618,694.768 L630.6269,689.0029 C631.3106,688.3198 631.3106,687.2115 630.6269,686.5278 C629.9432,685.8447 628.8361,685.8447 628.1524,686.5278 L622.3873,692.2929 L616.6222,686.5284 C615.9391,685.8447 614.8308,685.8447 614.1471,686.5284 C613.4641,687.2115 613.4641,688.3198 614.1471,689.0035 L619.9122,694.768 L614.1331,700.547 C613.4501,701.2301 613.4501,702.3385 614.1331,703.0215 C614.4744,703.3634 614.923,703.5343 615.3704,703.5343 C615.8178,703.5343 616.2664,703.3634 616.6082,703.0215 L622.3867,697.243 L628.1512,703.0075 C628.4931,703.3494 628.9411,703.5203 629.3885,703.5203 C629.8359,703.5203 630.2839,703.3494 630.6257,703.0075 C631.3094,702.3245 631.3094,701.2161 630.6257,700.533 L624.8618,694.768 " fill="#FE0000" style="stroke:;stroke-width:0;stroke-dasharray:;"/><rect fill="#F1F1F1" height="37.6094" rx="12.5" ry="12.5" style="stroke:#181818;stroke-width:1.5;" width="85.3242" x="692.8896" y="676.8359"/><text fill="#000000" font-family="sans-serif" font-size="14" lengthAdjust="spacing" textLength="65.3242" x="702.8896" y="701.3691">&#27809;&#26377;&#8220;&#24341;&#36215;&#8221;</text><path d="M642.8896,695.6406 L652.8896,695.6406 C667.8896,695.6406 667.8896,695.6406 682.8896,695.6406 L692.8896,695.6406 " fill="none" style="stroke:#181818;stroke-width:1;"/><path d="M282,821.1406 L292,821.1406 C307,821.1406 307,695.6406 322,695.6406 L332,695.6406 " fill="none" style="stroke:#181818;stroke-width:1;"/><rect fill="#F1F1F1" height="42.75" rx="12.5" ry="12.5" style="stroke:#181818;stroke-width:1.5;" width="380.8896" x="332" y="737.0156"/><text fill="#000000" font-family="sans-serif" font-size="14" lengthAdjust="spacing" textLength="336" x="342" y="766.6895">&#20057;&#26377;&#29359;&#12302;&#22522;&#26412;&#29359;&#12303;&#30340;&#24847;&#22270;&#65292;&#30002;&#25945;&#21766;&#20057;&#29359;&#12302;&#25968;&#39069;&#21152;&#37325;&#29359;&#12303;</text><path d="M694.8618,757.518 L700.6269,751.7529 C701.3106,751.0698 701.3106,749.9615 700.6269,749.2778 C699.9432,748.5947 698.8361,748.5947 698.1524,749.2778 L692.3873,755.0429 L686.6222,749.2784 C685.9391,748.5947 684.8308,748.5947 684.1471,749.2784 C683.4641,749.9615 683.4641,751.0698 684.1471,751.7535 L689.9122,757.518 L684.1331,763.297 C683.4501,763.9801 683.4501,765.0885 684.1331,765.7715 C684.4744,766.1134 684.923,766.2843 685.3704,766.2843 C685.8178,766.2843 686.2664,766.1134 686.6082,765.7715 L692.3867,759.993 L698.1512,765.7575 C698.4931,766.0994 698.9411,766.2703 699.3885,766.2703 C699.8359,766.2703 700.2839,766.0994 700.6257,765.7575 C701.3094,765.0745 701.3094,763.9661 700.6257,763.283 L694.8618,757.518 " fill="#FE0000" style="stroke:;stroke-width:0;stroke-dasharray:;"/><rect fill="#F1F1F1" height="37.6094" rx="12.5" ry="12.5" style="stroke:#181818;stroke-width:1.5;" width="188" x="762.8896" y="739.5859"/><text fill="#000000" font-family="sans-serif" font-size="14" lengthAdjust="spacing" textLength="168" x="772.8896" y="764.1191">&#65288;&#24515;&#29702;&#24615;&#65289;&#24110;&#21161;&#29359;&#65288;&#37327;&#21464;&#65289;</text><path d="M712.8896,758.3906 L722.8896,758.3906 C737.8896,758.3906 737.8896,758.3906 752.8896,758.3906 L762.8896,758.3906 " fill="none" style="stroke:#181818;stroke-width:1;"/><path d="M282,821.1406 L292,821.1406 C307,821.1406 307,758.3906 322,758.3906 L332,758.3906 " fill="none" style="stroke:#181818;stroke-width:1;"/><rect fill="#F1F1F1" height="42.75" rx="12.5" ry="12.5" style="stroke:#181818;stroke-width:1.5;" width="394.8896" x="332" y="799.7656"/><text fill="#000000" font-family="sans-serif" font-size="14" lengthAdjust="spacing" textLength="350" x="342" y="829.4395">&#20057;&#26377;&#29359;&#12302;&#37325;&#32618;&#12303;&#30340;&#24847;&#22270;&#65292;&#30002;&#25945;&#21766;&#20057;&#29359;&#24615;&#36136;&#30456;&#21516;&#30340;&#12302;&#36731;&#32618;&#12303;</text><path d="M708.8618,820.268 L714.6269,814.5029 C715.3106,813.8198 715.3106,812.7115 714.6269,812.0278 C713.9432,811.3447 712.8361,811.3447 712.1524,812.0278 L706.3873,817.7929 L700.6222,812.0284 C699.9391,811.3447 698.8308,811.3447 698.1471,812.0284 C697.4641,812.7115 697.4641,813.8198 698.1471,814.5035 L703.9122,820.268 L698.1331,826.047 C697.4501,826.7301 697.4501,827.8385 698.1331,828.5215 C698.4744,828.8634 698.923,829.0343 699.3704,829.0343 C699.8178,829.0343 700.2664,828.8634 700.6082,828.5215 L706.3867,822.743 L712.1512,828.5075 C712.4931,828.8494 712.9411,829.0203 713.3885,829.0203 C713.8359,829.0203 714.2839,828.8494 714.6257,828.5075 C715.3094,827.8245 715.3094,826.7161 714.6257,826.033 L708.8618,820.268 " fill="#FE0000" style="stroke:;stroke-width:0;stroke-dasharray:;"/><rect fill="#F1F1F1" height="37.6094" rx="12.5" ry="12.5" style="stroke:#181818;stroke-width:1.5;" width="146" x="776.8896" y="802.3359"/><text fill="#000000" font-family="sans-serif" font-size="14" lengthAdjust="spacing" textLength="126" x="786.8896" y="826.8691">&#24615;&#36136;&#30456;&#21516;&#65292;&#38477;&#20302;&#21361;&#38505;</text><path d="M726.8896,821.1406 L736.8896,821.1406 C751.8896,821.1406 751.8896,821.1406 766.8896,821.1406 L776.8896,821.1406 " fill="none" style="stroke:#181818;stroke-width:1;"/><path d="M282,821.1406 L292,821.1406 C307,821.1406 307,821.1406 322,821.1406 L332,821.1406 " fill="none" style="stroke:#181818;stroke-width:1;"/><rect fill="#F1F1F1" height="42.75" rx="12.5" ry="12.5" style="stroke:#181818;stroke-width:1.5;" width="394.8896" x="332" y="862.5156"/><text fill="#000000" font-family="sans-serif" font-size="14" lengthAdjust="spacing" textLength="350" x="342" y="892.1895">&#30002;&#21644;&#20057;&#32842;&#22825;&#65292;&#35328;&#32773;&#26080;&#24515;&#65292;&#21548;&#32773;&#26377;&#24847;&#65292;&#20057;&#26377;&#20102;&#29359;&#32618;&#30340;&#24847;&#22270;&#12290;</text><path d="M708.8618,883.018 L714.6269,877.2529 C715.3106,876.5698 715.3106,875.4615 714.6269,874.7778 C713.9432,874.0947 712.8361,874.0947 712.1524,874.7778 L706.3873,880.5429 L700.6222,874.7784 C699.9391,874.0947 698.8308,874.0947 698.1471,874.7784 C697.4641,875.4615 697.4641,876.5698 698.1471,877.2535 L703.9122,883.018 L698.1331,888.797 C697.4501,889.4801 697.4501,890.5885 698.1331,891.2715 C698.4744,891.6134 698.923,891.7843 699.3704,891.7843 C699.8178,891.7843 700.2664,891.6134 700.6082,891.2715 L706.3867,885.493 L712.1512,891.2575 C712.4931,891.5994 712.9411,891.7703 713.3885,891.7703 C713.8359,891.7703 714.2839,891.5994 714.6257,891.2575 C715.3094,890.5745 715.3094,889.4661 714.6257,888.783 L708.8618,883.018 " fill="#FE0000" style="stroke:;stroke-width:0;stroke-dasharray:;"/><rect fill="#F1F1F1" height="37.6094" rx="12.5" ry="12.5" style="stroke:#181818;stroke-width:1.5;" width="85.3242" x="776.8896" y="865.0859"/><text fill="#000000" font-family="sans-serif" font-size="14" lengthAdjust="spacing" textLength="65.3242" x="786.8896" y="889.6191">&#27809;&#26377;&#8220;&#25925;&#24847;&#8221;</text><path d="M726.8896,883.8906 L736.8896,883.8906 C751.8896,883.8906 751.8896,883.8906 766.8896,883.8906 L776.8896,883.8906 " fill="none" style="stroke:#181818;stroke-width:1;"/><path d="M282,821.1406 L292,821.1406 C307,821.1406 307,883.8906 322,883.8906 L332,883.8906 " fill="none" style="stroke:#181818;stroke-width:1;"/><rect fill="#F1F1F1" height="42.75" rx="12.5" ry="12.5" style="stroke:#181818;stroke-width:1.5;" width="240.8896" x="332" y="925.2656"/><text fill="#000000" font-family="sans-serif" font-size="14" lengthAdjust="spacing" textLength="196" x="342" y="954.9395">&#30002;&#32473;&#20057;&#19968;&#25226;&#31354;&#26538;&#65292;&#35753;&#20057;&#21435;&#26432;&#20154;&#12290;</text><path d="M554.8618,945.768 L560.6269,940.0029 C561.3106,939.3198 561.3106,938.2115 560.6269,937.5278 C559.9432,936.8447 558.8361,936.8447 558.1524,937.5278 L552.3873,943.2929 L546.6222,937.5284 C545.9391,936.8447 544.8308,936.8447 544.1471,937.5284 C543.4641,938.2115 543.4641,939.3198 544.1471,940.0035 L549.9122,945.768 L544.1331,951.547 C543.4501,952.2301 543.4501,953.3385 544.1331,954.0215 C544.4744,954.3634 544.923,954.5343 545.3704,954.5343 C545.8178,954.5343 546.2664,954.3634 546.6082,954.0215 L552.3867,948.243 L558.1512,954.0075 C558.4931,954.3494 558.9411,954.5203 559.3885,954.5203 C559.8359,954.5203 560.2839,954.3494 560.6257,954.0075 C561.3094,953.3245 561.3094,952.2161 560.6257,951.533 L554.8618,945.768 " fill="#FE0000" style="stroke:;stroke-width:0;stroke-dasharray:;"/><rect fill="#F1F1F1" height="37.6094" rx="12.5" ry="12.5" style="stroke:#181818;stroke-width:1.5;" width="146" x="622.8896" y="927.8359"/><text fill="#000000" font-family="sans-serif" font-size="14" lengthAdjust="spacing" textLength="126" x="632.8896" y="952.3691">&#25925;&#24847;&#25945;&#21766;&#12302;&#19981;&#33021;&#29359;&#12303;</text><path d="M572.8896,946.6406 L582.8896,946.6406 C597.8896,946.6406 597.8896,946.6406 612.8896,946.6406 L622.8896,946.6406 " fill="none" style="stroke:#181818;stroke-width:1;"/><path d="M282,821.1406 L292,821.1406 C307,821.1406 307,946.6406 322,946.6406 L332,946.6406 " fill="none" style="stroke:#181818;stroke-width:1;"/><path d="M170,915.2656 L180,915.2656 C195,915.2656 195,821.1406 210,821.1406 L220,821.1406 " fill="none" style="stroke:#181818;stroke-width:1;"/><rect fill="#F1F1F1" height="37.6094" rx="12.5" ry="12.5" style="stroke:#181818;stroke-width:1.5;" width="48" x="220" y="1053.3359"/><text fill="#000000" font-family="sans-serif" font-size="14" lengthAdjust="spacing" textLength="28" x="230" y="1077.8691">&#25104;&#31435;</text><rect fill="#F1F1F1" height="42.75" rx="12.5" ry="12.5" style="stroke:#181818;stroke-width:1.5;" width="324.8896" x="318" y="988.0156"/><text fill="#000000" font-family="sans-serif" font-size="14" lengthAdjust="spacing" textLength="280" x="328" y="1017.6895">&#20057;&#26377;&#29359;&#12302;&#36731;&#32618;&#12303;&#30340;&#24847;&#22270;&#65292;&#30002;&#25945;&#21766;&#20057;&#29359;&#12302;&#37325;&#32618;&#12303;</text><path d="M631.9907,998.8177 C631.1793,998.2915 630.0961,998.5225 629.5705,999.3334 L619.7646,1014.4481 L614.9825,1010.0265 C614.2726,1009.3702 613.166,1009.4134 612.5097,1010.1233 C611.8535,1010.8326 611.8966,1011.9404 612.6066,1012.596 L618.8856,1018.4014 C619.0658,1018.5565 619.0658,1018.5565 619.1492,1018.6108 C619.4432,1018.8021 619.7734,1018.8931 620.1001,1018.8931 C620.6729,1018.8931 621.2346,1018.612 621.5701,1018.0951 L632.5064,1001.238 C633.0326,1000.4271 632.8016,999.3433 631.9907,998.8177 " fill="#FE0000" style="stroke:;stroke-width:0;stroke-dasharray:;"/><path d="M268,1072.1406 L278,1072.1406 C293,1072.1406 293,1009.3906 308,1009.3906 L318,1009.3906 " fill="none" style="stroke:#181818;stroke-width:1;"/><rect fill="#F1F1F1" height="42.75" rx="12.5" ry="12.5" style="stroke:#181818;stroke-width:1.5;" width="436.8896" x="318" y="1050.7656"/><text fill="#000000" font-family="sans-serif" font-size="14" lengthAdjust="spacing" textLength="392" x="328" y="1080.4395">&#20057;&#26377;&#29359;&#12302;&#22522;&#26412;&#29359;&#12303;&#30340;&#24847;&#22270;&#65292;&#30002;&#25945;&#21766;&#20057;&#29359;&#12302;&#24773;&#33410;&#21152;&#37325;&#29359;&#12303;&#65288;&#36136;&#21464;&#65289;</text><path d="M743.9907,1061.5677 C743.1793,1061.0415 742.0961,1061.2725 741.5705,1062.0834 L731.7646,1077.1981 L726.9825,1072.7765 C726.2726,1072.1202 725.166,1072.1634 724.5097,1072.8733 C723.8535,1073.5826 723.8966,1074.6904 724.6066,1075.346 L730.8856,1081.1514 C731.0658,1081.3065 731.0658,1081.3065 731.1492,1081.3608 C731.4432,1081.5521 731.7734,1081.6431 732.1001,1081.6431 C732.6729,1081.6431 733.2346,1081.362 733.5701,1080.8451 L744.5064,1063.988 C745.0326,1063.1771 744.8016,1062.0933 743.9907,1061.5677 " fill="#FE0000" style="stroke:;stroke-width:0;stroke-dasharray:;"/><path d="M268,1072.1406 L278,1072.1406 C293,1072.1406 293,1072.1406 308,1072.1406 L318,1072.1406 " fill="none" style="stroke:#181818;stroke-width:1;"/><rect fill="#F1F1F1" height="42.75" rx="12.5" ry="12.5" style="stroke:#181818;stroke-width:1.5;" width="394.8896" x="318" y="1113.5156"/><text fill="#000000" font-family="sans-serif" font-size="14" lengthAdjust="spacing" textLength="350" x="328" y="1143.1895">&#20057;&#26377;&#29359;&#12302;&#37325;&#32618;&#12303;&#30340;&#24847;&#22270;&#65292;&#30002;&#25945;&#21766;&#20057;&#29359;&#24615;&#36136;&#19981;&#21516;&#30340;&#12302;&#36731;&#32618;&#12303;</text><path d="M701.9907,1124.3177 C701.1793,1123.7915 700.0961,1124.0225 699.5705,1124.8334 L689.7646,1139.9481 L684.9825,1135.5265 C684.2726,1134.8702 683.166,1134.9134 682.5097,1135.6233 C681.8535,1136.3326 681.8966,1137.4404 682.6066,1138.096 L688.8856,1143.9014 C689.0658,1144.0565 689.0658,1144.0565 689.1492,1144.1108 C689.4432,1144.3021 689.7734,1144.3931 690.1001,1144.3931 C690.6729,1144.3931 691.2346,1144.112 691.5701,1143.5951 L702.5064,1126.738 C703.0326,1125.9271 702.8016,1124.8433 701.9907,1124.3177 " fill="#FE0000" style="stroke:;stroke-width:0;stroke-dasharray:;"/><rect fill="#F1F1F1" height="37.6094" rx="12.5" ry="12.5" style="stroke:#181818;stroke-width:1.5;" width="328" x="762.8896" y="1116.0859"/><text fill="#000000" font-family="sans-serif" font-size="14" lengthAdjust="spacing" textLength="308" x="772.8896" y="1140.6191">&#24615;&#36136;&#19981;&#21516;&#65292;&#26367;&#20195;&#21361;&#38505;&#65288;&#27809;&#26377;&#12302;&#32039;&#24613;&#36991;&#38505;&#12303;&#26469;&#35268;&#36991;&#65289;</text><path d="M712.8896,1134.8906 L722.8896,1134.8906 C737.8896,1134.8906 737.8896,1134.8906 752.8896,1134.8906 L762.8896,1134.8906 " fill="none" style="stroke:#181818;stroke-width:1;"/><path d="M268,1072.1406 L278,1072.1406 C293,1072.1406 293,1134.8906 308,1134.8906 L318,1134.8906 " fill="none" style="stroke:#181818;stroke-width:1;"/><path d="M170,915.2656 L180,915.2656 C195,915.2656 195,1072.1406 210,1072.1406 L220,1072.1406 " fill="none" style="stroke:#181818;stroke-width:1;"/><path d="M72,588.1328 L82,588.1328 C97,588.1328 97,915.2656 112,915.2656 L122,915.2656 " fill="none" style="stroke:#181818;stroke-width:1;"/><!--SRC=[xLZjJnD97Fw-VyLS_A8cL37444ACKYLtHemvqAzcs8xjokvEipkjrrnC2e9AvIqNE8-tKnGEy0M4u-wWfVA_QFUbd_mNxZUxNTmMjbsvRvSIFZ0pppo_j-StEyDbdM6DAP8QKt1I4BwJL55EnGYAHCxvVtMMaScvf8nLbbBa5evlWGqjpdn4WZb1E8lCcLbZ-h6LsnGG_C3uwPJrzfcvk5Gg_ErCkTF6nYjxTSW-M3J_d36sXWvNAglxC_PV_w3EKng9TIG8JcVkYWaY3jnLi3RGSQa6RKvlbaV6gz1AIcPIKfP4p2Igtlt9j-SiAkqMkEsTrwL2uQXjSsR479uCQzi-U68iRuMn3L4j3rl5ERyZnGLhUgs6aNltn-0nIuVBNd9zFhzRghkdCE7V0vvixjbRIpKarkYUiJ5tp7Qtf4VS70_SO8qKZToQKEL0-SbuJVmLL_PsoX-7ZG-JfVn4QxknFNWCdx6y2glcqr-jzwCSTW5WN_R7ggLMiyKbh23BptVCYHNp_UlgD81RTh5mh5kVinFsgxSL2tF3fNp-StRIt5uo5qQ1esRLAhw1rKgLhULywUEpAhcDkqrGcy6zMVFvkajelfW24g02wHdp7y5bQthRvGUOCS5hRc-kE8Q6mYhTLq77yK_P1RUnFcKNZ_75YynuaJSNtZb_JmPvv2BDcG_bLuj6xYKKryL_ksjVzfyQ1u-igSTcTlNB_gYnks7are4CvijF9et9ts2oZhFSifFzEfu2ixspPitl6bDZ0EF5AnRSNIT8fO-CAsjsl5ISCCQtohFhjVqqlMtyCWOks8CvOtaTmFPQriwEcCzVGiGmDARUyU72A3WEGpUiKfuhsY-6_rPnzpWxMd7mpYhCWitIRjRCvQprlFdx6-xZnhghE7CnwwZ-9COTcsu98DlG0FQZeYiGNry4DiLXYtbLgg_2Gmc4FRDFAFP78tPko2zsa2X8mPNeIMo7rovai85s0qtwLUlIy9Dp_g1KUEsg5g9mnGBSriwgcLqf3nx0F3_l5bVirM4OyXuKXCi4RWZUBU5ozQMXqxa5N18g4rSb7DUmWdu6NoBzSeeuVo7KXSM1k4PJQYnAPQeXMOed65-7rOSS6uC88Ae0U6NL0ySrGjHwp0x0Xyuq06SyBDMm6WzosbtqeCcKbfI3eEwY1mqEp1UKHlKWjbFTtLrTqQY7p11PfWy2iEwY0nKYH4aci2xfZNFbHtT1d682r1DgbnHNgKP291YX6v9AQkU_KeGqMvUAawag5OdA0cXqrSaEGjrKPUvKlmoO6bPGSSKtbG4Pd7bOZcgIuWNw5SceWXaz5djB8qciEIVcjsoxqayrrgYyORaOWxAoHeeEoHQb2iYQ1LMxiZE8ZbT79N4e693wardlT6XKg1WXINqWuw0V7Z5m3KwhVbdI4y57Ysz_jRK72OdLvYR0p4tA6bjoeX8pM0qHbOXZX1qQmw8enO8bNNNaDMA-1vsc-zeNnYBfmVT9ga4JKnbSq6ZCfy06BUJjSEmagIunAKskYBvsE79iOfc43UHh250Bt91QaU1BnS_OC9ggV6uukPxglqz4JX-K7Po6xoFHGlAc9GeTv53JHimyxw7JNUbbxn0yRDpwlLgbvVgdXCFyKEWyL_daDn_zpKT_yz7VVFGt7_tDHt_pqV-_VlJVul_ylzrp0wM9flCxLclamlaBRP7sqxsOePiqZLelelEj7Mrj7MqNKRIt3_7bCyBfdX_wa4vJSCL4CRY0QL9_YalfZ70Tfp7wCGLt58Lq83uwtTTp1lLUyoRHDJKjQLHLu5uYNB_JuuBGzvJr9Ybpm1VRMheaXdg91cwXEpt2LN8FWsHXgqXZaXhlGBVxkblQXHjmVqdXE1Y26sCKBZPCoy1Qxxy0]--></g></svg>