<svg xmlns="http://www.w3.org/2000/svg" xmlns:xlink="http://www.w3.org/1999/xlink" contentStyleType="text/css" height="540px" preserveAspectRatio="none" style="width:1225px;height:540px;background:#FFFFFF;" version="1.1" viewBox="0 0 1225 540" width="1225px" zoomAndPan="magnify"><defs/><g><rect fill="#F1F1F1" height="37.6094" rx="12.5" ry="12.5" style="stroke:#181818;stroke-width:1.5;" width="104" x="10" y="250.4375"/><text fill="#000000" font-family="sans-serif" font-size="14" lengthAdjust="spacing" textLength="84" x="20" y="274.9707">&#20849;&#21516;&#27491;&#29359;&#20998;&#31867;</text><rect fill="#90EE90" height="37.6094" rx="12.5" ry="12.5" style="stroke:#181818;stroke-width:1.5;" width="93.8896" x="164" y="20"/><text fill="#000000" font-family="sans-serif" font-size="14" lengthAdjust="spacing" textLength="70" x="174" y="44.5332">&#20849;&#21516;&#23454;&#34892;&#29359;</text><rect fill="#F1F1F1" height="37.6094" rx="12.5" ry="12.5" style="stroke:#181818;stroke-width:1.5;" width="132" x="307.8896" y="20"/><text fill="#000000" font-family="sans-serif" font-size="14" lengthAdjust="spacing" textLength="112" x="317.8896" y="44.5332">&#19968;&#36215;&#23454;&#26045;&#23454;&#34892;&#34892;&#20026;</text><path d="M257.8896,38.8047 L267.8896,38.8047 C282.8896,38.8047 282.8896,38.8047 297.8896,38.8047 L307.8896,38.8047 " fill="none" style="stroke:#181818;stroke-width:1;"/><path d="M114,269.2422 L124,269.2422 C139,269.2422 139,38.8047 154,38.8047 L164,38.8047 " fill="none" style="stroke:#181818;stroke-width:1;"/><rect fill="#F1F1F1" height="37.6094" rx="12.5" ry="12.5" style="stroke:#181818;stroke-width:1.5;" width="48" x="164" y="279.2422"/><text fill="#000000" font-family="sans-serif" font-size="14" lengthAdjust="spacing" textLength="28" x="174" y="303.7754">&#20854;&#20182;</text><rect fill="#90EE90" height="37.6094" rx="12.5" ry="12.5" style="stroke:#181818;stroke-width:1.5;" width="149.8896" x="262" y="135.2188"/><text fill="#000000" font-family="sans-serif" font-size="14" lengthAdjust="spacing" textLength="126" x="272" y="159.752">&#29289;&#29702;&#20316;&#29992;&#22411;&#20849;&#21516;&#27491;&#29359;</text><rect fill="#F1F1F1" height="37.6094" rx="12.5" ry="12.5" style="stroke:#181818;stroke-width:1.5;" width="188" x="461.8896" y="135.2188"/><text fill="#000000" font-family="sans-serif" font-size="14" lengthAdjust="spacing" textLength="168" x="471.8896" y="159.752">&#30002;&#20174;&#21518;&#38754;&#25265;&#20303;&#19993;&#65292;&#20057;&#25331;&#25171;&#19993;</text><rect fill="#F1F1F1" height="37.6094" rx="12.5" ry="12.5" style="stroke:#181818;stroke-width:1.5;" width="34" x="699.8896" y="135.2188"/><text fill="#000000" font-family="sans-serif" font-size="14" lengthAdjust="spacing" textLength="14" x="709.8896" y="159.752">&#30002;</text><rect fill="#F1F1F1" height="37.6094" rx="12.5" ry="12.5" style="stroke:#181818;stroke-width:1.5;" width="48" x="783.8896" y="106.4141"/><text fill="#000000" font-family="sans-serif" font-size="14" lengthAdjust="spacing" textLength="28" x="793.8896" y="130.9473">&#20316;&#29992;</text><rect fill="#F1F1F1" height="37.6094" rx="12.5" ry="12.5" style="stroke:#181818;stroke-width:1.5;" width="90" x="881.8896" y="77.6094"/><text fill="#000000" font-family="sans-serif" font-size="14" lengthAdjust="spacing" textLength="70" x="891.8896" y="102.1426">&#22823;&#20110;&#24110;&#21161;&#29359;</text><path d="M831.8896,125.2188 L841.8896,125.2188 C856.8896,125.2188 856.8896,96.4141 871.8896,96.4141 L881.8896,96.4141 " fill="none" style="stroke:#181818;stroke-width:1;"/><rect fill="#F1F1F1" height="37.6094" rx="12.5" ry="12.5" style="stroke:#181818;stroke-width:1.5;" width="90" x="881.8896" y="135.2188"/><text fill="#000000" font-family="sans-serif" font-size="14" lengthAdjust="spacing" textLength="70" x="891.8896" y="159.752">&#23567;&#20110;&#23454;&#34892;&#29359;</text><path d="M831.8896,125.2188 L841.8896,125.2188 C856.8896,125.2188 856.8896,154.0234 871.8896,154.0234 L881.8896,154.0234 " fill="none" style="stroke:#181818;stroke-width:1;"/><path d="M733.8896,154.0234 L743.8896,154.0234 C758.8896,154.0234 758.8896,125.2188 773.8896,125.2188 L783.8896,125.2188 " fill="none" style="stroke:#181818;stroke-width:1;"/><rect fill="#F1F1F1" height="37.6094" rx="12.5" ry="12.5" style="stroke:#181818;stroke-width:1.5;" width="48" x="783.8896" y="192.8281"/><text fill="#000000" font-family="sans-serif" font-size="14" lengthAdjust="spacing" textLength="28" x="793.8896" y="217.3613">&#35748;&#23450;</text><rect fill="#F1F1F1" height="37.6094" rx="12.5" ry="12.5" style="stroke:#181818;stroke-width:1.5;" width="76" x="881.8896" y="192.8281"/><text fill="#000000" font-family="sans-serif" font-size="14" lengthAdjust="spacing" textLength="56" x="891.8896" y="217.3613">&#20849;&#21516;&#27491;&#29359;</text><path d="M831.8896,211.6328 L841.8896,211.6328 C856.8896,211.6328 856.8896,211.6328 871.8896,211.6328 L881.8896,211.6328 " fill="none" style="stroke:#181818;stroke-width:1;"/><path d="M733.8896,154.0234 L743.8896,154.0234 C758.8896,154.0234 758.8896,211.6328 773.8896,211.6328 L783.8896,211.6328 " fill="none" style="stroke:#181818;stroke-width:1;"/><path d="M649.8896,154.0234 L659.8896,154.0234 C674.8896,154.0234 674.8896,154.0234 689.8896,154.0234 L699.8896,154.0234 " fill="none" style="stroke:#181818;stroke-width:1;"/><path d="M411.8896,154.0234 L421.8896,154.0234 C436.8896,154.0234 436.8896,154.0234 451.8896,154.0234 L461.8896,154.0234 " fill="none" style="stroke:#181818;stroke-width:1;"/><path d="M212,298.0469 L222,298.0469 C237,298.0469 237,154.0234 252,154.0234 L262,154.0234 " fill="none" style="stroke:#181818;stroke-width:1;"/><rect fill="#90EE90" height="37.6094" rx="12.5" ry="12.5" style="stroke:#181818;stroke-width:1.5;" width="149.8896" x="262" y="365.6563"/><text fill="#000000" font-family="sans-serif" font-size="14" lengthAdjust="spacing" textLength="126" x="272" y="390.1895">&#24515;&#29702;&#20316;&#29992;&#22411;&#20849;&#21516;&#27491;&#29359;</text><rect fill="#90EE90" height="37.6094" rx="12.5" ry="12.5" style="stroke:#181818;stroke-width:1.5;" width="107.8896" x="461.8896" y="279.2422"/><text fill="#000000" font-family="sans-serif" font-size="14" lengthAdjust="spacing" textLength="84" x="471.8896" y="303.7754">&#20849;&#35851;&#20849;&#21516;&#27491;&#29359;</text><rect fill="#F1F1F1" height="37.6094" rx="12.5" ry="12.5" style="stroke:#181818;stroke-width:1.5;" width="328" x="619.7793" y="250.4375"/><text fill="#000000" font-family="sans-serif" font-size="14" lengthAdjust="spacing" textLength="308" x="629.7793" y="274.9707">&#30002;&#21644;&#20057;&#20849;&#35851;&#30423;&#31363;&#65292;&#30002;&#26377;&#20107;&#27809;&#26377;&#21435;&#25104;&#65292;&#20057;&#30423;&#31363;&#25104;&#21151;&#12290;</text><path d="M569.7793,298.0469 L579.7793,298.0469 C594.7793,298.0469 594.7793,269.2422 609.7793,269.2422 L619.7793,269.2422 " fill="none" style="stroke:#181818;stroke-width:1;"/><rect fill="#F1F1F1" height="37.6094" rx="12.5" ry="12.5" style="stroke:#181818;stroke-width:1.5;" width="286" x="619.7793" y="308.0469"/><text fill="#000000" font-family="sans-serif" font-size="14" lengthAdjust="spacing" textLength="266" x="629.7793" y="332.5801">&#30002;&#21644;&#20057;&#20849;&#35851;&#30423;&#31363;&#65292;&#30002;&#35774;&#35745;&#26041;&#26696;&#65292;&#20057;&#21435;&#25191;&#34892;&#12290;</text><path d="M569.7793,298.0469 L579.7793,298.0469 C594.7793,298.0469 594.7793,326.8516 609.7793,326.8516 L619.7793,326.8516 " fill="none" style="stroke:#181818;stroke-width:1;"/><path d="M411.8896,384.4609 L421.8896,384.4609 C436.8896,384.4609 436.8896,298.0469 451.8896,298.0469 L461.8896,298.0469 " fill="none" style="stroke:#181818;stroke-width:1;"/><rect fill="#90EE90" height="37.6094" rx="12.5" ry="12.5" style="stroke:#181818;stroke-width:1.5;" width="149.8896" x="461.8896" y="423.2656"/><text fill="#000000" font-family="sans-serif" font-size="14" lengthAdjust="spacing" textLength="126" x="471.8896" y="447.7988">&#32769;&#22823;&#25351;&#27966;&#22411;&#20849;&#21516;&#27491;&#29359;</text><rect fill="#F1F1F1" height="37.6094" rx="12.5" ry="12.5" style="stroke:#181818;stroke-width:1.5;" width="202" x="661.7793" y="423.2656"/><text fill="#000000" font-family="sans-serif" font-size="14" lengthAdjust="spacing" textLength="182" x="671.7793" y="447.7988">&#32769;&#22823;&#25351;&#27966;&#23567;&#24351;&#30423;&#31363;&#65292;&#30423;&#31363;&#25104;&#21151;</text><rect fill="#F1F1F1" height="37.6094" rx="12.5" ry="12.5" style="stroke:#181818;stroke-width:1.5;" width="48" x="913.7793" y="423.2656"/><text fill="#000000" font-family="sans-serif" font-size="14" lengthAdjust="spacing" textLength="28" x="923.7793" y="447.7988">&#32769;&#22823;</text><rect fill="#F1F1F1" height="37.6094" rx="12.5" ry="12.5" style="stroke:#181818;stroke-width:1.5;" width="48" x="1011.7793" y="394.4609"/><text fill="#000000" font-family="sans-serif" font-size="14" lengthAdjust="spacing" textLength="28" x="1021.7793" y="418.9941">&#20316;&#29992;</text><rect fill="#F1F1F1" height="37.6094" rx="12.5" ry="12.5" style="stroke:#181818;stroke-width:1.5;" width="90" x="1109.7793" y="365.6563"/><text fill="#000000" font-family="sans-serif" font-size="14" lengthAdjust="spacing" textLength="70" x="1119.7793" y="390.1895">&#22823;&#20110;&#25945;&#21766;&#29359;</text><path d="M1059.7793,413.2656 L1069.7793,413.2656 C1084.7793,413.2656 1084.7793,384.4609 1099.7793,384.4609 L1109.7793,384.4609 " fill="none" style="stroke:#181818;stroke-width:1;"/><rect fill="#F1F1F1" height="37.6094" rx="12.5" ry="12.5" style="stroke:#181818;stroke-width:1.5;" width="104" x="1109.7793" y="423.2656"/><text fill="#000000" font-family="sans-serif" font-size="14" lengthAdjust="spacing" textLength="84" x="1119.7793" y="447.7988">&#23567;&#20110;&#38388;&#25509;&#27491;&#29359;</text><path d="M1059.7793,413.2656 L1069.7793,413.2656 C1084.7793,413.2656 1084.7793,442.0703 1099.7793,442.0703 L1109.7793,442.0703 " fill="none" style="stroke:#181818;stroke-width:1;"/><path d="M961.7793,442.0703 L971.7793,442.0703 C986.7793,442.0703 986.7793,413.2656 1001.7793,413.2656 L1011.7793,413.2656 " fill="none" style="stroke:#181818;stroke-width:1;"/><rect fill="#F1F1F1" height="37.6094" rx="12.5" ry="12.5" style="stroke:#181818;stroke-width:1.5;" width="48" x="1011.7793" y="480.875"/><text fill="#000000" font-family="sans-serif" font-size="14" lengthAdjust="spacing" textLength="28" x="1021.7793" y="505.4082">&#35748;&#23450;</text><rect fill="#F1F1F1" height="37.6094" rx="12.5" ry="12.5" style="stroke:#181818;stroke-width:1.5;" width="76" x="1109.7793" y="480.875"/><text fill="#000000" font-family="sans-serif" font-size="14" lengthAdjust="spacing" textLength="56" x="1119.7793" y="505.4082">&#20849;&#21516;&#27491;&#29359;</text><path d="M1059.7793,499.6797 L1069.7793,499.6797 C1084.7793,499.6797 1084.7793,499.6797 1099.7793,499.6797 L1109.7793,499.6797 " fill="none" style="stroke:#181818;stroke-width:1;"/><path d="M961.7793,442.0703 L971.7793,442.0703 C986.7793,442.0703 986.7793,499.6797 1001.7793,499.6797 L1011.7793,499.6797 " fill="none" style="stroke:#181818;stroke-width:1;"/><path d="M863.7793,442.0703 L873.7793,442.0703 C888.7793,442.0703 888.7793,442.0703 903.7793,442.0703 L913.7793,442.0703 " fill="none" style="stroke:#181818;stroke-width:1;"/><path d="M611.7793,442.0703 L621.7793,442.0703 C636.7793,442.0703 636.7793,442.0703 651.7793,442.0703 L661.7793,442.0703 " fill="none" style="stroke:#181818;stroke-width:1;"/><path d="M411.8896,384.4609 L421.8896,384.4609 C436.8896,384.4609 436.8896,442.0703 451.8896,442.0703 L461.8896,442.0703 " fill="none" style="stroke:#181818;stroke-width:1;"/><path d="M212,298.0469 L222,298.0469 C237,298.0469 237,384.4609 252,384.4609 L262,384.4609 " fill="none" style="stroke:#181818;stroke-width:1;"/><path d="M114,269.2422 L124,269.2422 C139,269.2422 139,298.0469 154,298.0469 L164,298.0469 " fill="none" style="stroke:#181818;stroke-width:1;"/><!--SRC=[xLXTRnj557tVNp68bmJ9JbDPKHL5KMet4LHnLU6qx-FTgJtDxeurE-lAGf425I5VSY88gGAbLQ2e50cJb09fqfGVm-xQVU8lSFVBMJjUxuPNOld1E_VSS-_SU-UCrZE6m5neL5SqN9EazwWkgwP2K3Ox5lqQeg6IiPgATM5gQiR5Py0XuwrdAQn9qWV8_lpGtjvqVlcXlVwhlRhIFZoH47n2WzrwqjdV11kQcY9QhOeDQanFUn0VPXqjTtx_4s3ExgaFXgzrTDnb-SCwsOtWssilsjihrkdZzivFzfEDQFZ18GAtdPVMITFURhxxxdjd_T0wtRAEzlvviscztdCsVdFMleB77fUksxdL86ylWu768FDdpwtZfdtKijTVG7B3a0TRBZAiL4p0JkkPtVfc64sa5962sNyz_2y50rpd82MwMolxIxUWlclxsqVjdnz2YM7TURnc7MyuB_VXXzqySLQt_TBx67Yqrv_-lVpPnKWxhRUTrhwp-zhPN_NfNEgrvr35VYwetlAdq11dymldrTlKLHZWUh1bltbwbaKa_xYsUTv3sfOmID5XShxUitTMXWrJTA3UFNhbD7_icuSBpzM0sPAa6GBQ4Uh7JA-SJ7dwC2q52pSehd2ieKyWGhQiciJxXL0UouiLpanTAJ2LSQJIIbMuTh0kkLW5yqLEb1XuO0t15Kw8FepP0qJGZGHm8yGoZlLANDA-COJMJ5vJuw2-COJ6RoooASwCEBRtv-Ro-K8XH3Q8gh87CLZVw46bR3ZfoRMAelEmJxaASv3AYrPqnacA0YCqJtNIltv6aJBiK2gNJDUPJ7GHGsFeNdKGccEwy9VAAc3wM66AWznq0MIKwLWjSAg56pr32gPXmGPYRtDImnoxAnTnkrvcN2IrDosN4D1MaJJHATaAJ8En5d7T3ZpZwDpkwAG23GFIQ367gKDIenH2QiPYmqCldGim2sfLLgbHZPUMY7zlj0TLAlfh4nFc5XF9aRnToGsifzYLZ1KYki6mB5CbVgHx92-9-HwSD2DoVE5P9aLydvW9XvYfa09dIcG24uvGwE75gJ632bedr-N8SJWdcrWbQJTojWNe1KwarYZSLAx6ffcfuBfnoGspV9_8BdrSTN0TxaV2K_BMAOCJv56p96QtxgdB7PpbK0Ix1tVuMUsPvU4guJ4lILDZmPL_-Jfm-Jfm-JhmFtyTkEt-ON2dE8_gX1kk-evdhrwvcijU6obXWMwnEXgVG5V69tEvoTm4AfGMa6iUbKQA7oqWWvbm-I05f9dJikdgrQXq4zSn-jW4zTB897AVHXQAewWq6owYMRrEETCrK2pfvjsY3q8VCb6gCU619tAPF1MeH3YaXUuMfHla7ZPL0QuoKwXUcKHt5kOorwHvK3OJLo0Gt2K5a3p16s0h_Gi0]--></g></svg>