<svg xmlns="http://www.w3.org/2000/svg" xmlns:xlink="http://www.w3.org/1999/xlink" contentStyleType="text/css" height="702px" preserveAspectRatio="none" style="width:366px;height:702px;background:#FFFFFF;" version="1.1" viewBox="0 0 366 702" width="366px" zoomAndPan="magnify"><defs/><g><ellipse cx="182.4" cy="19.2" fill="#222222" rx="12" ry="12" style="stroke:#222222;stroke-width:1.2;"/><g id="&#25512;&#19979;&#20117;"><rect fill="#F1F1F1" height="60" rx="15" ry="15" style="stroke:#181818;stroke-width:0.6;" width="74.4" x="145.2" y="103.2"/><line style="stroke:#181818;stroke-width:0.6;" x1="145.2" x2="219.6" y1="137.5453" y2="137.5453"/><text fill="#000000" font-family="sans-serif" font-size="16.8" lengthAdjust="spacing" textLength="50.4" x="157.2" y="127.3289">&#25512;&#19979;&#20117;</text></g><rect fill="#555555" height="9.6" style="stroke:none;stroke-width:1.2;" width="96" x="134.4" y="235.2"/><rect fill="#555555" height="9.6" style="stroke:none;stroke-width:1.2;" width="96" x="134.4" y="454.8"/><g id="&#28153;&#27515;"><rect fill="#F1F1F1" height="65.4984" rx="15" ry="15" style="stroke:#181818;stroke-width:0.6;" width="153.6" x="8.4" y="316.8"/><line style="stroke:#181818;stroke-width:0.6;" x1="8.4" x2="162" y1="351.1453" y2="351.1453"/><text fill="#000000" font-family="sans-serif" font-size="16.8" lengthAdjust="spacing" textLength="33.6" x="68.4" y="340.9289">&#28153;&#27515;</text><text fill="#000000" font-family="sans-serif" font-size="14.4" lengthAdjust="spacing" textLength="129.6" x="14.4" y="372.6844">&#20027;&#35266;&#35748;&#20026;&#30340;&#27515;&#20129;&#26041;&#24335;</text></g><g id="&#25684;&#27515;"><rect fill="#F1F1F1" height="65.4984" rx="15" ry="15" style="stroke:#181818;stroke-width:0.6;" width="153.6" x="204" y="316.8"/><line style="stroke:#181818;stroke-width:0.6;" x1="204" x2="357.6" y1="351.1453" y2="351.1453"/><text fill="#000000" font-family="sans-serif" font-size="16.8" lengthAdjust="spacing" textLength="33.6" x="264" y="340.9289">&#25684;&#27515;</text><text fill="#000000" font-family="sans-serif" font-size="14.4" lengthAdjust="spacing" textLength="129.6" x="210" y="372.6844">&#23454;&#38469;&#21457;&#29983;&#30340;&#27515;&#20129;&#26041;&#24335;</text></g><g id="&#27515;&#20129;"><rect fill="#F1F1F1" height="60" rx="15" ry="15" style="stroke:#181818;stroke-width:0.6;" width="60" x="152.4" y="536.4"/><line style="stroke:#181818;stroke-width:0.6;" x1="152.4" x2="212.4" y1="570.7453" y2="570.7453"/><text fill="#000000" font-family="sans-serif" font-size="16.8" lengthAdjust="spacing" textLength="33.6" x="165.6" y="560.5289">&#27515;&#20129;</text></g><ellipse cx="182.4" cy="681.6" fill="none" rx="13.2" ry="13.2" style="stroke:#222222;stroke-width:1.2;"/><ellipse cx="182.4" cy="681.6" fill="#222222" rx="7.2" ry="7.2" style="stroke:#222222;stroke-width:1.2;"/><!--link *start* to ???--><g id="link_*start*_&#25512;&#19979;&#20117;"><path d="M182.4,31.512 C182.4,48.048 182.4,72.504 182.4,95.892 " fill="none" id="*start*-to-&#25512;&#19979;&#20117;" style="stroke:#181818;stroke-width:1.2;"/><polygon fill="#181818" points="182.4,103.092,187.2,92.292,182.4,97.092,177.6,92.292,182.4,103.092" style="stroke:#181818;stroke-width:1.2;"/></g><!--link ??? to ?????--><g id="link_&#25512;&#19979;&#20117;_&#25512;&#19979;&#20117;&#20998;&#25903;"><path d="M182.4,163.476 C182.4,189.06 182.4,216.732 182.4,227.952 " fill="none" id="&#25512;&#19979;&#20117;-to-&#25512;&#19979;&#20117;&#20998;&#25903;" style="stroke:#181818;stroke-width:1.2;"/><polygon fill="#181818" points="182.4,235.152,187.2,224.352,182.4,229.152,177.6,224.352,182.4,235.152" style="stroke:#181818;stroke-width:1.2;"/></g><!--link ????? to ??--><g id="link_&#25512;&#19979;&#20117;&#20998;&#25903;_&#28153;&#27515;"><path d="M178.704,245.28 C168.24,256.848 142.4119,285.3861 119.0359,311.2101 " fill="none" id="&#25512;&#19979;&#20117;&#20998;&#25903;-to-&#28153;&#27515;" style="stroke:#181818;stroke-width:1.2;"/><polygon fill="#181818" points="114.204,316.548,125.0104,311.7624,118.2306,312.0998,117.8932,305.3199,114.204,316.548" style="stroke:#181818;stroke-width:1.2;"/></g><!--link ????? to ??--><g id="link_&#25512;&#19979;&#20117;&#20998;&#25903;_&#25684;&#27515;"><path d="M186.132,245.28 C196.74,256.848 222.9077,285.4157 246.5717,311.2397 " fill="none" id="&#25512;&#19979;&#20117;&#20998;&#25903;-to-&#25684;&#27515;" style="stroke:#181818;stroke-width:1.2;"/><polygon fill="#181818" points="251.436,316.548,247.6784,305.3426,247.3824,312.1244,240.6006,311.8284,251.436,316.548" style="stroke:#181818;stroke-width:1.2;"/></g><!--link ?? to ?????--><g id="link_&#28153;&#27515;_&#25512;&#19979;&#20117;&#21512;&#24182;"><path d="M114.36,383.22 C137.628,408.924 163.1701,437.1483 173.7421,448.8363 " fill="none" id="&#28153;&#27515;-to-&#25512;&#19979;&#20117;&#21512;&#24182;" style="stroke:#181818;stroke-width:1.2;"/><polygon fill="#181818" points="178.572,454.176,174.887,442.9465,174.5471,449.7262,167.7674,449.3863,178.572,454.176" style="stroke:#181818;stroke-width:1.2;"/></g><!--link ?? to ?????--><g id="link_&#25684;&#27515;_&#25512;&#19979;&#20117;&#21512;&#24182;"><path d="M251.28,383.22 C227.724,408.924 201.8427,437.1782 191.1387,448.8662 " fill="none" id="&#25684;&#27515;-to-&#25512;&#19979;&#20117;&#21512;&#24182;" style="stroke:#181818;stroke-width:1.2;"/><polygon fill="#181818" points="186.276,454.176,197.11,449.4532,190.3283,449.7512,190.0303,442.9695,186.276,454.176" style="stroke:#181818;stroke-width:1.2;"/></g><!--link ????? to ??--><g id="link_&#25512;&#19979;&#20117;&#21512;&#24182;_&#27515;&#20129;"><path d="M182.4,464.76 C182.4,476.316 182.4,503.496 182.4,528.828 " fill="none" id="&#25512;&#19979;&#20117;&#21512;&#24182;-to-&#27515;&#20129;" style="stroke:#181818;stroke-width:1.2;"/><polygon fill="#181818" points="182.4,536.028,187.2,525.228,182.4,530.028,177.6,525.228,182.4,536.028" style="stroke:#181818;stroke-width:1.2;"/></g><!--link ?? to *end*--><g id="link_&#27515;&#20129;_*end*"><path d="M182.4,596.652 C182.4,619.884 182.4,644.1 182.4,661.08 " fill="none" id="&#27515;&#20129;-to-*end*" style="stroke:#181818;stroke-width:1.2;"/><polygon fill="#181818" points="182.4,668.28,187.2,657.48,182.4,662.28,177.6,657.48,182.4,668.28" style="stroke:#181818;stroke-width:1.2;"/></g><!--SRC=[YzQALT3LjLDurhVYoOxk9xkcSXMN99Qa8lXFEzgUJLclO6EJbb-KRMU78JsXu-dERGXfBhWCgh4GOv2aeUQ25MtV-MpjRknI4wU0fBWWIj2C15iDbR9IUB9ZzulbJI_MBNcoOzVpMIr0iIUx5ZwRjlFfddwWVh0vsFM3fQmKdgwRzt9cwzF-YS-dpCVKZ-PVi45W5LmG2YmIhHNB1G00]--></g></svg>