<svg xmlns="http://www.w3.org/2000/svg" xmlns:xlink="http://www.w3.org/1999/xlink" contentStyleType="text/css" height="765px" preserveAspectRatio="none" style="width:961px;height:765px;background:#FFFFFF;" version="1.1" viewBox="0 0 961 765" width="961px" zoomAndPan="magnify"><title>&#21009;&#27861;&#35299;&#37322;-&#20307;&#31995;&#35299;&#37322;-&#31034;&#20363;</title><defs/><g><text fill="#000000" font-family="sans-serif" font-size="14" font-weight="bold" lengthAdjust="spacing" textLength="153.6992" x="402.5693" y="35.1074">&#21009;&#27861;&#35299;&#37322;-&#20307;&#31995;&#35299;&#37322;-&#31034;&#20363;</text><rect fill="#F1F1F1" height="38.6211" rx="12.5" ry="12.5" style="stroke:#181818;stroke-width:1.5;" width="136.6621" x="10" y="382.0371"/><text fill="#000000" font-family="sans-serif" font-size="14" lengthAdjust="spacing" textLength="116.6621" x="20" y="407.1445">&#21009;&#27861;&#35299;&#37322;-&#20307;&#31995;&#35299;&#37322;</text><rect fill="#F1F1F1" height="38.6211" rx="12.5" ry="12.5" style="stroke:#181818;stroke-width:1.5;" width="76" x="196.6621" y="323.416"/><text fill="#000000" font-family="sans-serif" font-size="14" lengthAdjust="spacing" textLength="56" x="206.6621" y="348.5234">&#19968;&#35789;&#22810;&#20041;</text><rect fill="#F1F1F1" height="38.6211" rx="12.5" ry="12.5" style="stroke:#181818;stroke-width:1.5;" width="48" x="322.6621" y="88.9316"/><text fill="#000000" font-family="sans-serif" font-size="14" lengthAdjust="spacing" textLength="28" x="332.6621" y="114.0391">&#20256;&#25773;</text><rect fill="#F1F1F1" height="38.6211" rx="12.5" ry="12.5" style="stroke:#181818;stroke-width:1.5;" width="160" x="420.6621" y="59.6211"/><text fill="#000000" font-family="sans-serif" font-size="14" lengthAdjust="spacing" textLength="140" x="430.6621" y="84.7285">&#20351;&#19981;&#29305;&#23450;&#30340;&#20154;&#30693;&#26195;&#20869;&#23481;</text><rect fill="#F1F1F1" height="38.6211" rx="12.5" ry="12.5" style="stroke:#181818;stroke-width:1.5;" width="146" x="630.6621" y="59.6211"/><text fill="#000000" font-family="sans-serif" font-size="14" lengthAdjust="spacing" textLength="126" x="640.6621" y="84.7285">&#20256;&#25773;&#28139;&#31229;&#29289;&#21697;&#29279;&#21033;&#32618;</text><path d="M580.6621,78.9316 L590.6621,78.9316 C605.6621,78.9316 605.6621,78.9316 620.6621,78.9316 L630.6621,78.9316 " fill="none" style="stroke:#181818;stroke-width:1.0;"/><path d="M370.6621,108.2422 L380.6621,108.2422 C395.6621,108.2422 395.6621,78.9316 410.6621,78.9316 L420.6621,78.9316 " fill="none" style="stroke:#181818;stroke-width:1.0;"/><rect fill="#F1F1F1" height="38.6211" rx="12.5" ry="12.5" style="stroke:#181818;stroke-width:1.5;" width="48" x="420.6621" y="118.2422"/><text fill="#000000" font-family="sans-serif" font-size="14" lengthAdjust="spacing" textLength="28" x="430.6621" y="143.3496">&#20256;&#26579;</text><rect fill="#F1F1F1" height="38.6211" rx="12.5" ry="12.5" style="stroke:#181818;stroke-width:1.5;" width="90" x="518.6621" y="118.2422"/><text fill="#000000" font-family="sans-serif" font-size="14" lengthAdjust="spacing" textLength="70" x="528.6621" y="143.3496">&#20256;&#25773;&#24615;&#30149;&#32618;</text><path d="M468.6621,137.5527 L478.6621,137.5527 C493.6621,137.5527 493.6621,137.5527 508.6621,137.5527 L518.6621,137.5527 " fill="none" style="stroke:#181818;stroke-width:1.0;"/><path d="M370.6621,108.2422 L380.6621,108.2422 C395.6621,108.2422 395.6621,137.5527 410.6621,137.5527 L420.6621,137.5527 " fill="none" style="stroke:#181818;stroke-width:1.0;"/><path d="M272.6621,342.7266 L282.6621,342.7266 C297.6621,342.7266 297.6621,108.2422 312.6621,108.2422 L322.6621,108.2422 " fill="none" style="stroke:#181818;stroke-width:1.0;"/><rect fill="#F1F1F1" height="38.6211" rx="12.5" ry="12.5" style="stroke:#181818;stroke-width:1.5;" width="48" x="322.6621" y="206.1738"/><text fill="#000000" font-family="sans-serif" font-size="14" lengthAdjust="spacing" textLength="28" x="332.6621" y="231.2813">&#20398;&#36785;</text><rect fill="#F1F1F1" height="38.6211" rx="12.5" ry="12.5" style="stroke:#181818;stroke-width:1.5;" width="132" x="420.6621" y="176.8633"/><text fill="#000000" font-family="sans-serif" font-size="14" lengthAdjust="spacing" textLength="112" x="430.6621" y="201.9707">&#20405;&#29359;&#20154;&#30340;&#24615;&#32670;&#32827;&#24515;</text><rect fill="#F1F1F1" height="38.6211" rx="12.5" ry="12.5" style="stroke:#181818;stroke-width:1.5;" width="132" x="602.6621" y="176.8633"/><text fill="#000000" font-family="sans-serif" font-size="14" lengthAdjust="spacing" textLength="112" x="612.6621" y="201.9707">&#24378;&#21046;&#29477;&#20149;&#12289;&#20398;&#36785;&#32618;</text><text fill="#000000" font-family="sans-serif" font-size="14" lengthAdjust="spacing" textLength="98" x="787.6621" y="201.9707">&#24378;&#34892;&#33073;&#22919;&#22899;&#34915;&#26381;</text><path d="M734.6621,196.1738 L744.6621,196.1738 C759.6621,196.1738 759.6621,196.1738 774.6621,196.1738 L784.6621,196.1738 " fill="none" style="stroke:#181818;stroke-width:1.0;"/><path d="M552.6621,196.1738 L562.6621,196.1738 C577.6621,196.1738 577.6621,196.1738 592.6621,196.1738 L602.6621,196.1738 " fill="none" style="stroke:#181818;stroke-width:1.0;"/><path d="M370.6621,225.4844 L380.6621,225.4844 C395.6621,225.4844 395.6621,196.1738 410.6621,196.1738 L420.6621,196.1738 " fill="none" style="stroke:#181818;stroke-width:1.0;"/><rect fill="#F1F1F1" height="38.6211" rx="12.5" ry="12.5" style="stroke:#181818;stroke-width:1.5;" width="104" x="420.6621" y="235.4844"/><text fill="#000000" font-family="sans-serif" font-size="14" lengthAdjust="spacing" textLength="84" x="430.6621" y="260.5918">&#20405;&#29359;&#20154;&#30340;&#21517;&#35465;</text><rect fill="#F1F1F1" height="38.6211" rx="12.5" ry="12.5" style="stroke:#181818;stroke-width:1.5;" width="62" x="574.6621" y="235.4844"/><text fill="#000000" font-family="sans-serif" font-size="14" lengthAdjust="spacing" textLength="42" x="584.6621" y="260.5918">&#20398;&#36785;&#32618;</text><text fill="#000000" font-family="sans-serif" font-size="14" lengthAdjust="spacing" textLength="126" x="689.6621" y="260.5918">&#24448;&#22919;&#22899;&#36523;&#19978;&#27900;&#27922;&#31914;&#20415;</text><path d="M636.6621,254.7949 L646.6621,254.7949 C661.6621,254.7949 661.6621,254.7949 676.6621,254.7949 L686.6621,254.7949 " fill="none" style="stroke:#181818;stroke-width:1.0;"/><path d="M524.6621,254.7949 L534.6621,254.7949 C549.6621,254.7949 549.6621,254.7949 564.6621,254.7949 L574.6621,254.7949 " fill="none" style="stroke:#181818;stroke-width:1.0;"/><path d="M370.6621,225.4844 L380.6621,225.4844 C395.6621,225.4844 395.6621,254.7949 410.6621,254.7949 L420.6621,254.7949 " fill="none" style="stroke:#181818;stroke-width:1.0;"/><path d="M272.6621,342.7266 L282.6621,342.7266 C297.6621,342.7266 297.6621,225.4844 312.6621,225.4844 L322.6621,225.4844 " fill="none" style="stroke:#181818;stroke-width:1.0;"/><rect fill="#F1F1F1" height="38.6211" rx="12.5" ry="12.5" style="stroke:#181818;stroke-width:1.5;" width="48" x="322.6621" y="352.7266"/><text fill="#000000" font-family="sans-serif" font-size="14" lengthAdjust="spacing" textLength="28" x="332.6621" y="377.834">&#32961;&#36843;</text><rect fill="#F1F1F1" height="38.6211" rx="12.5" ry="12.5" style="stroke:#181818;stroke-width:1.5;" width="48" x="420.6621" y="294.1055"/><text fill="#000000" font-family="sans-serif" font-size="14" lengthAdjust="spacing" textLength="28" x="430.6621" y="319.2129">&#26292;&#21147;</text><rect fill="#F1F1F1" height="38.6211" rx="12.5" ry="12.5" style="stroke:#181818;stroke-width:1.5;" width="62" x="518.6621" y="294.1055"/><text fill="#000000" font-family="sans-serif" font-size="14" lengthAdjust="spacing" textLength="42" x="528.6621" y="319.2129">&#25250;&#21163;&#32618;</text><path d="M468.6621,313.416 L478.6621,313.416 C493.6621,313.416 493.6621,313.416 508.6621,313.416 L518.6621,313.416 " fill="none" style="stroke:#181818;stroke-width:1.0;"/><path d="M370.6621,372.0371 L380.6621,372.0371 C395.6621,372.0371 395.6621,313.416 410.6621,313.416 L420.6621,313.416 " fill="none" style="stroke:#181818;stroke-width:1.0;"/><rect fill="#F1F1F1" height="38.6211" rx="12.5" ry="12.5" style="stroke:#181818;stroke-width:1.5;" width="62" x="420.6621" y="352.7266"/><text fill="#000000" font-family="sans-serif" font-size="14" lengthAdjust="spacing" textLength="42" x="430.6621" y="377.834">&#38750;&#26292;&#21147;</text><rect fill="#F1F1F1" height="38.6211" rx="12.5" ry="12.5" style="stroke:#181818;stroke-width:1.5;" width="90" x="532.6621" y="352.7266"/><text fill="#000000" font-family="sans-serif" font-size="14" lengthAdjust="spacing" textLength="70" x="542.6621" y="377.834">&#25970;&#35784;&#21202;&#32034;&#32618;</text><text fill="#000000" font-family="sans-serif" font-size="14" lengthAdjust="spacing" textLength="154" x="675.6621" y="377.834">&#19981;&#32473;&#38065;&#65292;&#23601;&#26333;&#20809;&#20320;&#30340;&#35064;&#29031;</text><path d="M622.6621,372.0371 L632.6621,372.0371 C647.6621,372.0371 647.6621,372.0371 662.6621,372.0371 L672.6621,372.0371 " fill="none" style="stroke:#181818;stroke-width:1.0;"/><path d="M482.6621,372.0371 L492.6621,372.0371 C507.6621,372.0371 507.6621,372.0371 522.6621,372.0371 L532.6621,372.0371 " fill="none" style="stroke:#181818;stroke-width:1.0;"/><path d="M370.6621,372.0371 L380.6621,372.0371 C395.6621,372.0371 395.6621,372.0371 410.6621,372.0371 L420.6621,372.0371 " fill="none" style="stroke:#181818;stroke-width:1.0;"/><rect fill="#F1F1F1" height="38.6211" rx="12.5" ry="12.5" style="stroke:#181818;stroke-width:1.5;" width="98.1758" x="420.6621" y="411.3477"/><text fill="#000000" font-family="sans-serif" font-size="14" lengthAdjust="spacing" textLength="78.1758" x="430.6621" y="436.4551">&#26292;&#21147;+&#38750;&#26292;&#21147;</text><rect fill="#F1F1F1" height="38.6211" rx="12.5" ry="12.5" style="stroke:#181818;stroke-width:1.5;" width="62" x="568.8379" y="411.3477"/><text fill="#000000" font-family="sans-serif" font-size="14" lengthAdjust="spacing" textLength="42" x="578.8379" y="436.4551">&#24378;&#22904;&#32618;</text><text fill="#000000" font-family="sans-serif" font-size="14" lengthAdjust="spacing" textLength="266" x="683.8379" y="436.4551">&#38750;&#26292;&#21147;&#65306;&#19981;&#31572;&#24212;&#36319;&#25105;&#30561;&#35273;&#65292;&#23601;&#26333;&#20809;&#20320;&#30340;&#35064;&#29031;</text><path d="M630.8379,430.6582 L640.8379,430.6582 C655.8379,430.6582 655.8379,430.6582 670.8379,430.6582 L680.8379,430.6582 " fill="none" style="stroke:#181818;stroke-width:1.0;"/><path d="M518.8379,430.6582 L528.8379,430.6582 C543.8379,430.6582 543.8379,430.6582 558.8379,430.6582 L568.8379,430.6582 " fill="none" style="stroke:#181818;stroke-width:1.0;"/><path d="M370.6621,372.0371 L380.6621,372.0371 C395.6621,372.0371 395.6621,430.6582 410.6621,430.6582 L420.6621,430.6582 " fill="none" style="stroke:#181818;stroke-width:1.0;"/><path d="M272.6621,342.7266 L282.6621,342.7266 C297.6621,342.7266 297.6621,372.0371 312.6621,372.0371 L322.6621,372.0371 " fill="none" style="stroke:#181818;stroke-width:1.0;"/><rect fill="#F1F1F1" height="38.6211" rx="12.5" ry="12.5" style="stroke:#181818;stroke-width:1.5;" width="90" x="322.6621" y="528.5898"/><text fill="#000000" font-family="sans-serif" font-size="14" lengthAdjust="spacing" textLength="70" x="332.6621" y="553.6973">&#20266;&#36896;&#21644;&#21464;&#36896;</text><rect fill="#F1F1F1" height="38.6211" rx="12.5" ry="12.5" style="stroke:#181818;stroke-width:1.5;" width="178.6484" x="462.6621" y="499.2793"/><text fill="#000000" font-family="sans-serif" font-size="14" lengthAdjust="spacing" textLength="158.6484" x="472.6621" y="524.3867">&#8220;&#20266;&#36896;&#8221;&#21644;&#8220;&#21464;&#36896;&#8221;&#26159;&#24182;&#21015;&#20851;&#31995;</text><rect fill="#F1F1F1" height="38.6211" rx="12.5" ry="12.5" style="stroke:#181818;stroke-width:1.5;" width="76" x="691.3105" y="499.2793"/><text fill="#000000" font-family="sans-serif" font-size="14" lengthAdjust="spacing" textLength="56" x="701.3105" y="524.3867">&#36135;&#24065;&#39046;&#22495;</text><rect fill="#F1F1F1" height="38.6211" rx="12.5" ry="12.5" style="stroke:#181818;stroke-width:1.5;" width="90" x="817.3105" y="469.9688"/><text fill="#000000" font-family="sans-serif" font-size="14" lengthAdjust="spacing" textLength="70" x="827.3105" y="495.0762">&#20266;&#36896;&#36135;&#24065;&#32618;</text><path d="M767.3105,518.5898 L777.3105,518.5898 C792.3105,518.5898 792.3105,489.2793 807.3105,489.2793 L817.3105,489.2793 " fill="none" style="stroke:#181818;stroke-width:1.0;"/><rect fill="#F1F1F1" height="38.6211" rx="12.5" ry="12.5" style="stroke:#181818;stroke-width:1.5;" width="90" x="817.3105" y="528.5898"/><text fill="#000000" font-family="sans-serif" font-size="14" lengthAdjust="spacing" textLength="70" x="827.3105" y="553.6973">&#21464;&#36896;&#36135;&#24065;&#32618;</text><path d="M767.3105,518.5898 L777.3105,518.5898 C792.3105,518.5898 792.3105,547.9004 807.3105,547.9004 L817.3105,547.9004 " fill="none" style="stroke:#181818;stroke-width:1.0;"/><path d="M641.3105,518.5898 L651.3105,518.5898 C666.3105,518.5898 666.3105,518.5898 681.3105,518.5898 L691.3105,518.5898 " fill="none" style="stroke:#181818;stroke-width:1.0;"/><path d="M412.6621,547.9004 L422.6621,547.9004 C437.6621,547.9004 437.6621,518.5898 452.6621,518.5898 L462.6621,518.5898 " fill="none" style="stroke:#181818;stroke-width:1.0;"/><rect fill="#F1F1F1" height="38.6211" rx="12.5" ry="12.5" style="stroke:#181818;stroke-width:1.5;" width="178.6484" x="462.6621" y="587.2109"/><text fill="#000000" font-family="sans-serif" font-size="14" lengthAdjust="spacing" textLength="158.6484" x="472.6621" y="612.3184">&#8220;&#20266;&#36896;&#8221;&#21644;&#8220;&#21464;&#36896;&#8221;&#26159;&#21253;&#21547;&#20851;&#31995;</text><rect fill="#F1F1F1" height="38.6211" rx="12.5" ry="12.5" style="stroke:#181818;stroke-width:1.5;" width="76" x="691.3105" y="587.2109"/><text fill="#000000" font-family="sans-serif" font-size="14" lengthAdjust="spacing" textLength="56" x="701.3105" y="612.3184">&#35777;&#25454;&#39046;&#22495;</text><rect fill="#F1F1F1" height="38.6211" rx="12.5" ry="12.5" style="stroke:#181818;stroke-width:1.5;" width="118" x="817.3105" y="587.2109"/><text fill="#000000" font-family="sans-serif" font-size="14" lengthAdjust="spacing" textLength="98" x="827.3105" y="612.3184">&#24110;&#21161;&#20266;&#36896;&#35777;&#25454;&#32618;</text><path d="M767.3105,606.5215 L777.3105,606.5215 C792.3105,606.5215 792.3105,606.5215 807.3105,606.5215 L817.3105,606.5215 " fill="none" style="stroke:#181818;stroke-width:1.0;"/><path d="M641.3105,606.5215 L651.3105,606.5215 C666.3105,606.5215 666.3105,606.5215 681.3105,606.5215 L691.3105,606.5215 " fill="none" style="stroke:#181818;stroke-width:1.0;"/><path d="M412.6621,547.9004 L422.6621,547.9004 C437.6621,547.9004 437.6621,606.5215 452.6621,606.5215 L462.6621,606.5215 " fill="none" style="stroke:#181818;stroke-width:1.0;"/><path d="M272.6621,342.7266 L282.6621,342.7266 C297.6621,342.7266 297.6621,547.9004 312.6621,547.9004 L322.6621,547.9004 " fill="none" style="stroke:#181818;stroke-width:1.0;"/><path d="M146.6621,401.3477 L156.6621,401.3477 C171.6621,401.3477 171.6621,342.7266 186.6621,342.7266 L196.6621,342.7266 " fill="none" style="stroke:#181818;stroke-width:1.0;"/><rect fill="#F1F1F1" height="38.6211" rx="12.5" ry="12.5" style="stroke:#181818;stroke-width:1.5;" width="76" x="196.6621" y="675.1426"/><text fill="#000000" font-family="sans-serif" font-size="14" lengthAdjust="spacing" textLength="56" x="206.6621" y="700.25">&#22810;&#35789;&#19968;&#20041;</text><rect fill="#F1F1F1" height="38.6211" rx="12.5" ry="12.5" style="stroke:#181818;stroke-width:1.5;" width="118" x="322.6621" y="645.832"/><text fill="#000000" font-family="sans-serif" font-size="14" lengthAdjust="spacing" textLength="98" x="332.6621" y="670.9395">&#26377;&#20607;&#36716;&#35753;&#25152;&#26377;&#26435;</text><rect fill="#F1F1F1" height="38.6211" rx="12.5" ry="12.5" style="stroke:#181818;stroke-width:1.5;" width="174" x="490.6621" y="645.832"/><text fill="#000000" font-family="sans-serif" font-size="14" lengthAdjust="spacing" textLength="154" x="500.6621" y="670.9395">&#20986;&#21806;&#12289;&#38144;&#21806;&#12289;&#20498;&#21334;&#12289;&#36137;&#21334;</text><path d="M440.6621,665.1426 L450.6621,665.1426 C465.6621,665.1426 465.6621,665.1426 480.6621,665.1426 L490.6621,665.1426 " fill="none" style="stroke:#181818;stroke-width:1.0;"/><path d="M272.6621,694.4531 L282.6621,694.4531 C297.6621,694.4531 297.6621,665.1426 312.6621,665.1426 L322.6621,665.1426 " fill="none" style="stroke:#181818;stroke-width:1.0;"/><rect fill="#F1F1F1" height="38.6211" rx="12.5" ry="12.5" style="stroke:#181818;stroke-width:1.5;" width="244" x="322.6621" y="704.4531"/><text fill="#000000" font-family="sans-serif" font-size="14" lengthAdjust="spacing" textLength="224" x="332.6621" y="729.5605">&#20197;&#24694;&#23475;&#30456;&#36890;&#21578;&#65292;&#20351;&#23545;&#26041;&#20135;&#29983;&#24656;&#24807;&#24515;&#29702;</text><rect fill="#F1F1F1" height="38.6211" rx="12.5" ry="12.5" style="stroke:#181818;stroke-width:1.5;" width="174" x="616.6621" y="704.4531"/><text fill="#000000" font-family="sans-serif" font-size="14" lengthAdjust="spacing" textLength="154" x="626.6621" y="729.5605">&#24656;&#21523;&#12289;&#32961;&#36843;&#12289;&#23041;&#32961;&#12289;&#25970;&#35784;</text><path d="M566.6621,723.7637 L576.6621,723.7637 C591.6621,723.7637 591.6621,723.7637 606.6621,723.7637 L616.6621,723.7637 " fill="none" style="stroke:#181818;stroke-width:1.0;"/><path d="M272.6621,694.4531 L282.6621,694.4531 C297.6621,694.4531 297.6621,723.7637 312.6621,723.7637 L322.6621,723.7637 " fill="none" style="stroke:#181818;stroke-width:1.0;"/><path d="M146.6621,401.3477 L156.6621,401.3477 C171.6621,401.3477 171.6621,694.4531 186.6621,694.4531 L196.6621,694.4531 " fill="none" style="stroke:#181818;stroke-width:1.0;"/><!--SRC=[XLHRJnfH47xVNt4UrKOZnjJM9rDjarfDcwA-DblTcaraCRYOz6qtYh88AGBUKCGRfKY5AgYmSlalTkUSmvD_eMS5hIBWFitC-MQ-R_RCcO4vcNV8Db6Qil6p72UByeo0mBsACsiqVbXPzdGQnI39NDKSSgGRfHMEwsYEuH3xEf2HKsZQ1qTX8w_TXchXmXuEdDm7Qi5YsSZvY9Q7L9Y45mrT9z4OtWh2aWjI-KVWXrNmPPB4YqHBG50bMXJS2L8yvfuYey7c9PGusN0zJ6CdfHGjdTRNAPqJJzfK5buqaqgxLBc2yaA3ob3GmNr1l353F_-hgDLozShkuLzCFDttqiLJ-BaCiGpTFyGxlXRquFVHOwrHIyyobPGQXvuqSXwSAU1iW9mT6wNoW_xfWahBoJe1E9m5ptO3Kkmv04_owO-lH7QRvwoTqRGRLW8aUz12hZaJLrkLmEbDmGj_Jl5s15oQKTnZ_u0UveWhtb3ZYrRCvjt4SYquxvDl2c6J_oG4UeXUHh5xbKJsQLnxLeivMiSLPGy2NlYnoOmwbTVAJXLmhKGOXhbL67FnPXho5-3U05U6lQS6-cas3ZcrSh04qMZZ5chiLM3JHb6Lip7gMOrU5_YJpJMcLUnBjTG8kHHu4ZMbjt1JGsrpi9t1DWVR7uyt1zxHG2tJuc-QIc1DOIwEBDJfXcKTGYdsw2eXfMg04W3VEZDeDi6CXxTq5SFg1QGoP3jNKSAmwc5NopOHfFDuFM_eSHAAOjMF5-BicHF_KlsmgNxm1yt2jy_5fFfbsioeZZV73GXigzvjraypl2IFZuwWUS4n9zebPEdgwUxfxUfhi_8oiWgpgBiFMLxtMrxrM_hGe7KCcSVjNDle-p4qPtSw9WKq9Sx93l6hKsRvxTmmFy-Zpqv95cr2F_euAqZ3Gn_k0kYjD2ywx99Da6HkU6BqF-1bR-SRqMHqC2LeOfGR4hxnpXcPPKpQfqHfkX-DZxthVCMDyDAqavzcjGM96xIpkexlxCpw3m00]--></g></svg>