<svg xmlns="http://www.w3.org/2000/svg" xmlns:xlink="http://www.w3.org/1999/xlink" contentStyleType="text/css" height="1857px" preserveAspectRatio="none" style="width:1358px;height:1857px;background:#FFFFFF;" version="1.1" viewBox="0 0 1358 1857" width="1358px" zoomAndPan="magnify"><defs/><g><rect fill="#F1F1F1" height="37.6094" rx="12.5" ry="12.5" style="stroke:#181818;stroke-width:1.5;" width="76" x="10" y="908.8242"/><text fill="#000000" font-family="sans-serif" font-size="14" lengthAdjust="spacing" textLength="56" x="20" y="933.3574">&#26432;&#20154;&#38382;&#39064;</text><rect fill="#F1F1F1" height="37.6094" rx="12.5" ry="12.5" style="stroke:#181818;stroke-width:1.5;" width="48" x="136" y="279.2422"/><text fill="#000000" font-family="sans-serif" font-size="14" lengthAdjust="spacing" textLength="28" x="146" y="303.7754">&#22330;&#26223;</text><rect fill="#F1F1F1" height="37.6094" rx="12.5" ry="12.5" style="stroke:#181818;stroke-width:1.5;" width="48" x="234" y="48.8047"/><text fill="#000000" font-family="sans-serif" font-size="14" lengthAdjust="spacing" textLength="28" x="244" y="73.3379">&#20154;&#25968;</text><rect fill="#F1F1F1" height="37.6094" rx="12.5" ry="12.5" style="stroke:#181818;stroke-width:1.5;" width="48" x="332" y="20"/><text fill="#000000" font-family="sans-serif" font-size="14" lengthAdjust="spacing" textLength="28" x="342" y="44.5332">&#20004;&#20154;</text><path d="M282,67.6094 L292,67.6094 C307,67.6094 307,38.8047 322,38.8047 L332,38.8047 " fill="none" style="stroke:#181818;stroke-width:1;"/><rect fill="#F1F1F1" height="37.6094" rx="12.5" ry="12.5" style="stroke:#181818;stroke-width:1.5;" width="48" x="332" y="77.6094"/><text fill="#000000" font-family="sans-serif" font-size="14" lengthAdjust="spacing" textLength="28" x="342" y="102.1426">&#19977;&#20154;</text><path d="M282,67.6094 L292,67.6094 C307,67.6094 307,96.4141 322,96.4141 L332,96.4141 " fill="none" style="stroke:#181818;stroke-width:1;"/><path d="M184,298.0469 L194,298.0469 C209,298.0469 209,67.6094 224,67.6094 L234,67.6094 " fill="none" style="stroke:#181818;stroke-width:1;"/><rect fill="#F1F1F1" height="37.6094" rx="12.5" ry="12.5" style="stroke:#181818;stroke-width:1.5;" width="76" x="234" y="336.8516"/><text fill="#000000" font-family="sans-serif" font-size="14" lengthAdjust="spacing" textLength="56" x="244" y="361.3848">&#39044;&#26399;&#30446;&#26631;</text><rect fill="#F1F1F1" height="37.6094" rx="12.5" ry="12.5" style="stroke:#181818;stroke-width:1.5;" width="34" x="360" y="221.6328"/><text fill="#000000" font-family="sans-serif" font-size="14" lengthAdjust="spacing" textLength="14" x="370" y="246.166">&#20154;</text><rect fill="#F1F1F1" height="37.6094" rx="12.5" ry="12.5" style="stroke:#181818;stroke-width:1.5;" width="62" x="444" y="164.0234"/><text fill="#000000" font-family="sans-serif" font-size="14" lengthAdjust="spacing" textLength="42" x="454" y="188.5566">&#23454;&#34892;&#20154;</text><rect fill="#F1F1F1" height="37.6094" rx="12.5" ry="12.5" style="stroke:#181818;stroke-width:1.5;" width="76" x="556" y="135.2188"/><text fill="#000000" font-family="sans-serif" font-size="14" lengthAdjust="spacing" textLength="56" x="566" y="159.752">&#39044;&#26399;&#30446;&#26631;</text><path d="M506,182.8281 L516,182.8281 C531,182.8281 531,154.0234 546,154.0234 L556,154.0234 " fill="none" style="stroke:#181818;stroke-width:1;"/><rect fill="#F1F1F1" height="37.6094" rx="12.5" ry="12.5" style="stroke:#181818;stroke-width:1.5;" width="62" x="556" y="192.8281"/><text fill="#000000" font-family="sans-serif" font-size="14" lengthAdjust="spacing" textLength="42" x="566" y="217.3613">&#34987;&#23475;&#20154;</text><path d="M506,182.8281 L516,182.8281 C531,182.8281 531,211.6328 546,211.6328 L556,211.6328 " fill="none" style="stroke:#181818;stroke-width:1;"/><path d="M394,240.4375 L404,240.4375 C419,240.4375 419,182.8281 434,182.8281 L444,182.8281 " fill="none" style="stroke:#181818;stroke-width:1;"/><rect fill="#F1F1F1" height="37.6094" rx="12.5" ry="12.5" style="stroke:#181818;stroke-width:1.5;" width="62" x="444" y="279.2422"/><text fill="#000000" font-family="sans-serif" font-size="14" lengthAdjust="spacing" textLength="42" x="454" y="303.7754">&#25945;&#21766;&#20154;</text><rect fill="#F1F1F1" height="37.6094" rx="12.5" ry="12.5" style="stroke:#181818;stroke-width:1.5;" width="62" x="556" y="279.2422"/><text fill="#000000" font-family="sans-serif" font-size="14" lengthAdjust="spacing" textLength="42" x="566" y="303.7754">&#23454;&#34892;&#20154;</text><rect fill="#F1F1F1" height="37.6094" rx="12.5" ry="12.5" style="stroke:#181818;stroke-width:1.5;" width="76" x="668" y="250.4375"/><text fill="#000000" font-family="sans-serif" font-size="14" lengthAdjust="spacing" textLength="56" x="678" y="274.9707">&#39044;&#26399;&#30446;&#26631;</text><path d="M618,298.0469 L628,298.0469 C643,298.0469 643,269.2422 658,269.2422 L668,269.2422 " fill="none" style="stroke:#181818;stroke-width:1;"/><rect fill="#F1F1F1" height="37.6094" rx="12.5" ry="12.5" style="stroke:#181818;stroke-width:1.5;" width="62" x="668" y="308.0469"/><text fill="#000000" font-family="sans-serif" font-size="14" lengthAdjust="spacing" textLength="42" x="678" y="332.5801">&#34987;&#23475;&#20154;</text><path d="M618,298.0469 L628,298.0469 C643,298.0469 643,326.8516 658,326.8516 L668,326.8516 " fill="none" style="stroke:#181818;stroke-width:1;"/><path d="M506,298.0469 L516,298.0469 C531,298.0469 531,298.0469 546,298.0469 L556,298.0469 " fill="none" style="stroke:#181818;stroke-width:1;"/><path d="M394,240.4375 L404,240.4375 C419,240.4375 419,298.0469 434,298.0469 L444,298.0469 " fill="none" style="stroke:#181818;stroke-width:1;"/><path d="M310,355.6563 L320,355.6563 C335,355.6563 335,240.4375 350,240.4375 L360,240.4375 " fill="none" style="stroke:#181818;stroke-width:1;"/><rect fill="#F1F1F1" height="37.6094" rx="12.5" ry="12.5" style="stroke:#181818;stroke-width:1.5;" width="34" x="360" y="452.0703"/><text fill="#000000" font-family="sans-serif" font-size="14" lengthAdjust="spacing" textLength="14" x="370" y="476.6035">&#29289;</text><rect fill="#F1F1F1" height="37.6094" rx="12.5" ry="12.5" style="stroke:#181818;stroke-width:1.5;" width="62" x="444" y="394.4609"/><text fill="#000000" font-family="sans-serif" font-size="14" lengthAdjust="spacing" textLength="42" x="454" y="418.9941">&#23454;&#34892;&#20154;</text><rect fill="#F1F1F1" height="37.6094" rx="12.5" ry="12.5" style="stroke:#181818;stroke-width:1.5;" width="34" x="556" y="365.6563"/><text fill="#000000" font-family="sans-serif" font-size="14" lengthAdjust="spacing" textLength="14" x="566" y="390.1895">&#29289;</text><path d="M506,413.2656 L516,413.2656 C531,413.2656 531,384.4609 546,384.4609 L556,384.4609 " fill="none" style="stroke:#181818;stroke-width:1;"/><rect fill="#F1F1F1" height="37.6094" rx="12.5" ry="12.5" style="stroke:#181818;stroke-width:1.5;" width="62" x="556" y="423.2656"/><text fill="#000000" font-family="sans-serif" font-size="14" lengthAdjust="spacing" textLength="42" x="566" y="447.7988">&#34987;&#23475;&#20154;</text><path d="M506,413.2656 L516,413.2656 C531,413.2656 531,442.0703 546,442.0703 L556,442.0703 " fill="none" style="stroke:#181818;stroke-width:1;"/><path d="M394,470.875 L404,470.875 C419,470.875 419,413.2656 434,413.2656 L444,413.2656 " fill="none" style="stroke:#181818;stroke-width:1;"/><rect fill="#F1F1F1" height="37.6094" rx="12.5" ry="12.5" style="stroke:#181818;stroke-width:1.5;" width="62" x="444" y="509.6797"/><text fill="#000000" font-family="sans-serif" font-size="14" lengthAdjust="spacing" textLength="42" x="454" y="534.2129">&#25945;&#21766;&#20154;</text><rect fill="#F1F1F1" height="37.6094" rx="12.5" ry="12.5" style="stroke:#181818;stroke-width:1.5;" width="62" x="556" y="509.6797"/><text fill="#000000" font-family="sans-serif" font-size="14" lengthAdjust="spacing" textLength="42" x="566" y="534.2129">&#23454;&#34892;&#20154;</text><rect fill="#F1F1F1" height="37.6094" rx="12.5" ry="12.5" style="stroke:#181818;stroke-width:1.5;" width="34" x="668" y="480.875"/><text fill="#000000" font-family="sans-serif" font-size="14" lengthAdjust="spacing" textLength="14" x="678" y="505.4082">&#29289;</text><path d="M618,528.4844 L628,528.4844 C643,528.4844 643,499.6797 658,499.6797 L668,499.6797 " fill="none" style="stroke:#181818;stroke-width:1;"/><rect fill="#F1F1F1" height="37.6094" rx="12.5" ry="12.5" style="stroke:#181818;stroke-width:1.5;" width="62" x="668" y="538.4844"/><text fill="#000000" font-family="sans-serif" font-size="14" lengthAdjust="spacing" textLength="42" x="678" y="563.0176">&#34987;&#23475;&#20154;</text><path d="M618,528.4844 L628,528.4844 C643,528.4844 643,557.2891 658,557.2891 L668,557.2891 " fill="none" style="stroke:#181818;stroke-width:1;"/><path d="M506,528.4844 L516,528.4844 C531,528.4844 531,528.4844 546,528.4844 L556,528.4844 " fill="none" style="stroke:#181818;stroke-width:1;"/><path d="M394,470.875 L404,470.875 C419,470.875 419,528.4844 434,528.4844 L444,528.4844 " fill="none" style="stroke:#181818;stroke-width:1;"/><path d="M310,355.6563 L320,355.6563 C335,355.6563 335,470.875 350,470.875 L360,470.875 " fill="none" style="stroke:#181818;stroke-width:1;"/><path d="M184,298.0469 L194,298.0469 C209,298.0469 209,355.6563 224,355.6563 L234,355.6563 " fill="none" style="stroke:#181818;stroke-width:1;"/><path d="M86,927.6289 L96,927.6289 C111,927.6289 111,298.0469 126,298.0469 L136,298.0469 " fill="none" style="stroke:#181818;stroke-width:1;"/><rect fill="#F1F1F1" height="37.6094" rx="12.5" ry="12.5" style="stroke:#181818;stroke-width:1.5;" width="62" x="136" y="1024.043"/><text fill="#000000" font-family="sans-serif" font-size="14" lengthAdjust="spacing" textLength="42" x="146" y="1048.5762">&#20004;&#38454;&#23618;</text><rect fill="#F1F1F1" height="37.6094" rx="12.5" ry="12.5" style="stroke:#181818;stroke-width:1.5;" width="62" x="248" y="725.7148"/><text fill="#000000" font-family="sans-serif" font-size="14" lengthAdjust="spacing" textLength="42" x="258" y="750.248">&#23458;&#35266;&#23618;</text><rect fill="#F1F1F1" height="37.6094" rx="12.5" ry="12.5" style="stroke:#181818;stroke-width:1.5;" width="76" x="360" y="696.9102"/><text fill="#000000" font-family="sans-serif" font-size="14" lengthAdjust="spacing" textLength="56" x="370" y="721.4434">&#23458;&#35266;&#35201;&#20214;</text><rect fill="#F1F1F1" height="37.6094" rx="12.5" ry="12.5" style="stroke:#181818;stroke-width:1.5;" width="48" x="486" y="639.3008"/><text fill="#000000" font-family="sans-serif" font-size="14" lengthAdjust="spacing" textLength="28" x="496" y="663.834">&#34892;&#20026;</text><rect fill="#F1F1F1" height="37.6094" rx="12.5" ry="12.5" style="stroke:#181818;stroke-width:1.5;" width="76" x="584" y="596.0938"/><text fill="#000000" font-family="sans-serif" font-size="14" lengthAdjust="spacing" textLength="56" x="594" y="620.627">&#19968;&#20010;&#34892;&#20026;</text><path d="M534,658.1055 L544,658.1055 C559,658.1055 559,614.8984 574,614.8984 L584,614.8984 " fill="none" style="stroke:#181818;stroke-width:1;"/><rect fill="#F1F1F1" height="37.6094" rx="12.5" ry="12.5" style="stroke:#181818;stroke-width:1.5;" width="76" x="584" y="653.7031"/><text fill="#000000" font-family="sans-serif" font-size="14" lengthAdjust="spacing" textLength="56" x="594" y="678.2363">&#20004;&#20010;&#34892;&#20026;</text><rect fill="#F1F1F1" height="37.6094" rx="12.5" ry="12.5" style="stroke:#181818;stroke-width:1.5;" width="62" x="710" y="624.8984"/><text fill="#000000" font-family="sans-serif" font-size="14" lengthAdjust="spacing" textLength="42" x="720" y="649.4316">&#20808;&#34892;&#20026;</text><path d="M660,672.5078 L670,672.5078 C685,672.5078 685,643.7031 700,643.7031 L710,643.7031 " fill="none" style="stroke:#181818;stroke-width:1;"/><rect fill="#F1F1F1" height="37.6094" rx="12.5" ry="12.5" style="stroke:#181818;stroke-width:1.5;" width="62" x="710" y="682.5078"/><text fill="#000000" font-family="sans-serif" font-size="14" lengthAdjust="spacing" textLength="42" x="720" y="707.041">&#21518;&#34892;&#20026;</text><path d="M660,672.5078 L670,672.5078 C685,672.5078 685,701.3125 700,701.3125 L710,701.3125 " fill="none" style="stroke:#181818;stroke-width:1;"/><path d="M534,658.1055 L544,658.1055 C559,658.1055 559,672.5078 574,672.5078 L584,672.5078 " fill="none" style="stroke:#181818;stroke-width:1;"/><path d="M436,715.7148 L446,715.7148 C461,715.7148 461,658.1055 476,658.1055 L486,658.1055 " fill="none" style="stroke:#181818;stroke-width:1;"/><rect fill="#F1F1F1" height="37.6094" rx="12.5" ry="12.5" style="stroke:#181818;stroke-width:1.5;" width="76" x="486" y="768.9219"/><text fill="#000000" font-family="sans-serif" font-size="14" lengthAdjust="spacing" textLength="56" x="496" y="793.4551">&#21361;&#23475;&#32467;&#26524;</text><rect fill="#F1F1F1" height="37.6094" rx="12.5" ry="12.5" style="stroke:#181818;stroke-width:1.5;" width="76" x="612" y="768.9219"/><text fill="#000000" font-family="sans-serif" font-size="14" lengthAdjust="spacing" textLength="56" x="622" y="793.4551">&#27861;&#30410;&#31867;&#22411;</text><rect fill="#F1F1F1" height="37.6094" rx="12.5" ry="12.5" style="stroke:#181818;stroke-width:1.5;" width="76" x="738" y="740.1172"/><text fill="#000000" font-family="sans-serif" font-size="14" lengthAdjust="spacing" textLength="56" x="748" y="764.6504">&#21516;&#19968;&#29359;&#32618;</text><path d="M688,787.7266 L698,787.7266 C713,787.7266 713,758.9219 728,758.9219 L738,758.9219 " fill="none" style="stroke:#181818;stroke-width:1;"/><rect fill="#F1F1F1" height="37.6094" rx="12.5" ry="12.5" style="stroke:#181818;stroke-width:1.5;" width="76" x="738" y="797.7266"/><text fill="#000000" font-family="sans-serif" font-size="14" lengthAdjust="spacing" textLength="56" x="748" y="822.2598">&#19981;&#21516;&#29359;&#32618;</text><path d="M688,787.7266 L698,787.7266 C713,787.7266 713,816.5313 728,816.5313 L738,816.5313 " fill="none" style="stroke:#181818;stroke-width:1;"/><path d="M562,787.7266 L572,787.7266 C587,787.7266 587,787.7266 602,787.7266 L612,787.7266 " fill="none" style="stroke:#181818;stroke-width:1;"/><path d="M436,715.7148 L446,715.7148 C461,715.7148 461,787.7266 476,787.7266 L486,787.7266 " fill="none" style="stroke:#181818;stroke-width:1;"/><path d="M310,744.5195 L320,744.5195 C335,744.5195 335,715.7148 350,715.7148 L360,715.7148 " fill="none" style="stroke:#181818;stroke-width:1;"/><rect fill="#F1F1F1" height="37.6094" rx="12.5" ry="12.5" style="stroke:#181818;stroke-width:1.5;" width="132" x="360" y="855.3359"/><text fill="#000000" font-family="sans-serif" font-size="14" lengthAdjust="spacing" textLength="112" x="370" y="879.8691">&#23458;&#35266;&#36829;&#27861;&#38459;&#21364;&#20107;&#30001;</text><rect fill="#F1F1F1" height="37.6094" rx="12.5" ry="12.5" style="stroke:#181818;stroke-width:1.5;" width="76" x="542" y="855.3359"/><text fill="#000000" font-family="sans-serif" font-size="14" lengthAdjust="spacing" textLength="56" x="552" y="879.8691">&#27491;&#24403;&#38450;&#21355;</text><rect fill="#90EE90" height="37.6094" rx="12.5" ry="12.5" style="stroke:#181818;stroke-width:1.5;" width="79.8896" x="668" y="855.3359"/><text fill="#000000" font-family="sans-serif" font-size="14" lengthAdjust="spacing" textLength="56" x="678" y="879.8691">&#20598;&#28982;&#38450;&#21355;</text><path d="M618,874.1406 L628,874.1406 C643,874.1406 643,874.1406 658,874.1406 L668,874.1406 " fill="none" style="stroke:#181818;stroke-width:1;"/><path d="M492,874.1406 L502,874.1406 C517,874.1406 517,874.1406 532,874.1406 L542,874.1406 " fill="none" style="stroke:#181818;stroke-width:1;"/><path d="M310,744.5195 L320,744.5195 C335,744.5195 335,874.1406 350,874.1406 L360,874.1406 " fill="none" style="stroke:#181818;stroke-width:1;"/><path d="M198,1042.8477 L208,1042.8477 C223,1042.8477 223,744.5195 238,744.5195 L248,744.5195 " fill="none" style="stroke:#181818;stroke-width:1;"/><rect fill="#F1F1F1" height="37.6094" rx="12.5" ry="12.5" style="stroke:#181818;stroke-width:1.5;" width="62" x="248" y="1182.4688"/><text fill="#000000" font-family="sans-serif" font-size="14" lengthAdjust="spacing" textLength="42" x="258" y="1207.002">&#20027;&#35266;&#23618;</text><rect fill="#F1F1F1" height="37.6094" rx="12.5" ry="12.5" style="stroke:#181818;stroke-width:1.5;" width="48" x="360" y="1081.6523"/><text fill="#000000" font-family="sans-serif" font-size="14" lengthAdjust="spacing" textLength="28" x="370" y="1106.1855">&#35748;&#35782;</text><rect fill="#F1F1F1" height="37.6094" rx="12.5" ry="12.5" style="stroke:#181818;stroke-width:1.5;" width="104" x="458" y="1024.043"/><text fill="#000000" font-family="sans-serif" font-size="14" lengthAdjust="spacing" textLength="84" x="468" y="1048.5762">&#20107;&#23454;&#35748;&#35782;&#27491;&#30830;</text><path d="M408,1100.457 L418,1100.457 C433,1100.457 433,1042.8477 448,1042.8477 L458,1042.8477 " fill="none" style="stroke:#181818;stroke-width:1;"/><rect fill="#F1F1F1" height="37.6094" rx="12.5" ry="12.5" style="stroke:#181818;stroke-width:1.5;" width="104" x="458" y="1081.6523"/><text fill="#000000" font-family="sans-serif" font-size="14" lengthAdjust="spacing" textLength="84" x="468" y="1106.1855">&#20107;&#23454;&#35748;&#35782;&#38169;&#35823;</text><rect fill="#F1F1F1" height="37.6094" rx="12.5" ry="12.5" style="stroke:#181818;stroke-width:1.5;" width="76" x="612" y="952.0313"/><text fill="#000000" font-family="sans-serif" font-size="14" lengthAdjust="spacing" textLength="56" x="622" y="976.5645">&#23545;&#35937;&#38169;&#35823;</text><path d="M562,1100.457 L572,1100.457 C587,1100.457 587,970.8359 602,970.8359 L612,970.8359 " fill="none" style="stroke:#181818;stroke-width:1;"/><rect fill="#90EE90" height="37.6094" rx="12.5" ry="12.5" style="stroke:#181818;stroke-width:1.5;" width="79.8896" x="612" y="1009.6406"/><text fill="#000000" font-family="sans-serif" font-size="14" lengthAdjust="spacing" textLength="56" x="622" y="1034.1738">&#25171;&#20987;&#38169;&#35823;</text><rect fill="#F1F1F1" height="42.75" rx="12.5" ry="12.5" style="stroke:#181818;stroke-width:1.5;" width="72.8896" x="741.8896" y="944.3203"/><text fill="#000000" font-family="sans-serif" font-size="14" lengthAdjust="spacing" textLength="28" x="751.8896" y="973.9941">&#36807;&#22833;</text><path d="M793.696,970.0703 C792.7294,970.0703 791.946,969.2869 791.946,968.3203 L791.946,965.987 C791.946,965.0204 792.7294,964.237 793.696,964.237 C794.0477,964.2335 797.196,963.6536 797.196,961.3203 C797.196,960.1536 796.0293,958.987 794.2793,958.987 C792.8554,958.987 791.946,960.1536 791.946,960.737 C791.946,961.7036 791.1625,962.487 790.196,962.487 C789.2294,962.487 788.446,961.7036 788.446,960.737 C788.446,957.8915 791.1176,955.487 794.2793,955.487 C798.946,955.487 800.696,958.9765 800.696,961.9036 C800.696,964.3216 799.3677,966.1696 796.955,967.107 C796.43,967.3117 795.9109,967.4494 795.446,967.5427 L795.446,968.3203 C795.446,969.2869 794.6625,970.0703 793.696,970.0703 " fill="#BE1931" style="stroke:;stroke-width:0;stroke-dasharray:;"/><ellipse cx="793.696" cy="972.987" fill="#BE1931" rx="1.75" ry="1.75" style="stroke:#BE1931;stroke-width:1.5;"/><rect fill="#F1F1F1" height="42.75" rx="12.5" ry="12.5" style="stroke:#181818;stroke-width:1.5;" width="198.8896" x="864.7793" y="912.9453"/><text fill="#000000" font-family="sans-serif" font-size="14" lengthAdjust="spacing" textLength="154" x="874.7793" y="942.6191">&#20855;&#20307;&#31526;&#21512;&#35828;&#65288;&#23454;&#20107;&#27714;&#26159;&#65289;</text><path d="M1052.77,923.7474 C1051.9586,923.2212 1050.8754,923.4522 1050.3498,924.2631 L1040.5439,939.3778 L1035.7618,934.9561 C1035.0519,934.2999 1033.9453,934.3431 1033.289,935.053 C1032.6328,935.7623 1032.6759,936.8701 1033.3859,937.5257 L1039.6649,943.3311 C1039.8451,943.4862 1039.8451,943.4862 1039.9285,943.5405 C1040.2225,943.7318 1040.5527,943.8228 1040.8794,943.8228 C1041.4522,943.8228 1042.0139,943.5416 1042.3494,943.0248 L1053.2857,926.1676 C1053.8119,925.3568 1053.5809,924.273 1052.77,923.7474 " fill="#FE0000" style="stroke:;stroke-width:0;stroke-dasharray:;"/><path d="M814.7793,965.6953 L824.7793,965.6953 C839.7793,965.6953 839.7793,934.3203 854.7793,934.3203 L864.7793,934.3203 " fill="none" style="stroke:#181818;stroke-width:1;"/><rect fill="#F1F1F1" height="42.75" rx="12.5" ry="12.5" style="stroke:#181818;stroke-width:1.5;" width="380.8896" x="864.7793" y="975.6953"/><text fill="#000000" font-family="sans-serif" font-size="14" lengthAdjust="spacing" textLength="336" x="874.7793" y="1005.3691">&#27861;&#23450;&#31526;&#21512;&#35828;&#65288;&#23558;&#12302;&#36807;&#22833;&#12303;&#25311;&#21046;&#20026;&#12302;&#25925;&#24847;&#12303;&#65292;&#20005;&#24809;&#29359;&#32618;&#65289;</text><path d="M1234.77,986.4974 C1233.9586,985.9712 1232.8754,986.2022 1232.3498,987.0131 L1222.5439,1002.1278 L1217.7618,997.7061 C1217.0519,997.0499 1215.9453,997.0931 1215.289,997.803 C1214.6328,998.5123 1214.6759,999.6201 1215.3859,1000.2757 L1221.6649,1006.0811 C1221.8451,1006.2362 1221.8451,1006.2362 1221.9285,1006.2905 C1222.2225,1006.4818 1222.5527,1006.5728 1222.8794,1006.5728 C1223.4522,1006.5728 1224.0139,1006.2916 1224.3494,1005.7748 L1235.2857,988.9176 C1235.8119,988.1068 1235.5809,987.023 1234.77,986.4974 " fill="#FE0000" style="stroke:;stroke-width:0;stroke-dasharray:;"/><path d="M814.7793,965.6953 L824.7793,965.6953 C839.7793,965.6953 839.7793,997.0703 854.7793,997.0703 L864.7793,997.0703 " fill="none" style="stroke:#181818;stroke-width:1;"/><path d="M691.8896,1028.4453 L701.8896,1028.4453 C716.8896,1028.4453 716.8896,965.6953 731.8896,965.6953 L741.8896,965.6953 " fill="none" style="stroke:#181818;stroke-width:1;"/><rect fill="#F1F1F1" height="37.6094" rx="12.5" ry="12.5" style="stroke:#181818;stroke-width:1.5;" width="160" x="741.8896" y="1072.3906"/><text fill="#000000" font-family="sans-serif" font-size="14" lengthAdjust="spacing" textLength="140" x="751.8896" y="1096.9238">&#24847;&#22806;&#20107;&#20214;&#65288;&#26080;&#27861;&#39044;&#26399;&#65289;</text><rect fill="#F1F1F1" height="42.75" rx="12.5" ry="12.5" style="stroke:#181818;stroke-width:1.5;" width="198.8896" x="951.8896" y="1038.4453"/><text fill="#000000" font-family="sans-serif" font-size="14" lengthAdjust="spacing" textLength="154" x="961.8896" y="1068.1191">&#20855;&#20307;&#31526;&#21512;&#35828;&#65288;&#23454;&#20107;&#27714;&#26159;&#65289;</text><path d="M1139.8804,1049.2474 C1139.069,1048.7212 1137.9857,1048.9522 1137.4601,1049.7631 L1127.6543,1064.8778 L1122.8721,1060.4561 C1122.1622,1059.7999 1121.0556,1059.8431 1120.3994,1060.553 C1119.7431,1061.2623 1119.7863,1062.3701 1120.4962,1063.0257 L1126.7752,1068.8311 C1126.9555,1068.9862 1126.9555,1068.9862 1127.0389,1069.0405 C1127.3329,1069.2318 1127.663,1069.3228 1127.9897,1069.3228 C1128.5625,1069.3228 1129.1243,1069.0416 1129.4597,1068.5248 L1140.396,1051.6676 C1140.9222,1050.8568 1140.6912,1049.773 1139.8804,1049.2474 " fill="#FE0000" style="stroke:;stroke-width:0;stroke-dasharray:;"/><path d="M901.8896,1091.1953 L911.8896,1091.1953 C926.8896,1091.1953 926.8896,1059.8203 941.8896,1059.8203 L951.8896,1059.8203 " fill="none" style="stroke:#181818;stroke-width:1;"/><rect fill="#F1F1F1" height="42.75" rx="12.5" ry="12.5" style="stroke:#181818;stroke-width:1.5;" width="394.8896" x="951.8896" y="1101.1953"/><text fill="#000000" font-family="sans-serif" font-size="14" lengthAdjust="spacing" textLength="350" x="961.8896" y="1130.8691">&#27861;&#23450;&#31526;&#21512;&#35828;&#65288;&#23558;&#12302;&#24847;&#22806;&#20107;&#20214;&#12303;&#25311;&#21046;&#20026;&#12302;&#25925;&#24847;&#12303;&#65292;&#22826;&#31163;&#35889;&#65289;</text><path d="M1328.7515,1121.6976 L1334.5165,1115.9326 C1335.2002,1115.2495 1335.2002,1114.1411 1334.5165,1113.4575 C1333.8329,1112.7744 1332.7257,1112.7744 1332.042,1113.4575 L1326.277,1119.2226 L1320.5119,1113.4581 C1319.8288,1112.7744 1318.7205,1112.7744 1318.0368,1113.4581 C1317.3537,1114.1411 1317.3537,1115.2495 1318.0368,1115.9331 L1323.8019,1121.6976 L1318.0228,1127.4767 C1317.3397,1128.1598 1317.3397,1129.2681 1318.0228,1129.9512 C1318.364,1130.2931 1318.8126,1130.464 1319.26,1130.464 C1319.7075,1130.464 1320.156,1130.2931 1320.4979,1129.9512 L1326.2764,1124.1727 L1332.0409,1129.9372 C1332.3827,1130.2791 1332.8307,1130.45 1333.2781,1130.45 C1333.7255,1130.45 1334.1735,1130.2791 1334.5154,1129.9372 C1335.199,1129.2541 1335.199,1128.1458 1334.5154,1127.4627 L1328.7515,1121.6976 " fill="#FE0000" style="stroke:;stroke-width:0;stroke-dasharray:;"/><path d="M901.8896,1091.1953 L911.8896,1091.1953 C926.8896,1091.1953 926.8896,1122.5703 941.8896,1122.5703 L951.8896,1122.5703 " fill="none" style="stroke:#181818;stroke-width:1;"/><path d="M691.8896,1028.4453 L701.8896,1028.4453 C716.8896,1028.4453 716.8896,1091.1953 731.8896,1091.1953 L741.8896,1091.1953 " fill="none" style="stroke:#181818;stroke-width:1;"/><path d="M562,1100.457 L572,1100.457 C587,1100.457 587,1028.4453 602,1028.4453 L612,1028.4453 " fill="none" style="stroke:#181818;stroke-width:1;"/><rect fill="#F1F1F1" height="37.6094" rx="12.5" ry="12.5" style="stroke:#181818;stroke-width:1.5;" width="104" x="612" y="1207.1523"/><text fill="#000000" font-family="sans-serif" font-size="14" lengthAdjust="spacing" textLength="84" x="622" y="1231.6855">&#22240;&#26524;&#20851;&#31995;&#38169;&#35823;</text><rect fill="#F1F1F1" height="37.6094" rx="12.5" ry="12.5" style="stroke:#181818;stroke-width:1.5;" width="146" x="766" y="1163.9453"/><text fill="#000000" font-family="sans-serif" font-size="14" lengthAdjust="spacing" textLength="126" x="776" y="1188.4785">&#29421;&#20041;&#30340;&#22240;&#26524;&#20851;&#31995;&#38169;&#35823;</text><path d="M716,1225.957 L726,1225.957 C741,1225.957 741,1182.75 756,1182.75 L766,1182.75 " fill="none" style="stroke:#181818;stroke-width:1;"/><rect fill="#F1F1F1" height="37.6094" rx="12.5" ry="12.5" style="stroke:#181818;stroke-width:1.5;" width="146" x="766" y="1221.5547"/><text fill="#000000" font-family="sans-serif" font-size="14" lengthAdjust="spacing" textLength="126" x="776" y="1246.0879">&#24191;&#20041;&#30340;&#22240;&#26524;&#20851;&#31995;&#38169;&#35823;</text><rect fill="#90EE90" height="37.6094" rx="12.5" ry="12.5" style="stroke:#181818;stroke-width:1.5;" width="121.8896" x="962" y="1192.75"/><text fill="#000000" font-family="sans-serif" font-size="14" lengthAdjust="spacing" textLength="98" x="972" y="1217.2832">&#32467;&#26524;&#30340;&#25552;&#21069;&#21457;&#29983;</text><path d="M912,1240.3594 L922,1240.3594 C937,1240.3594 937,1211.5547 952,1211.5547 L962,1211.5547 " fill="none" style="stroke:#181818;stroke-width:1;"/><rect fill="#90EE90" height="37.6094" rx="12.5" ry="12.5" style="stroke:#181818;stroke-width:1.5;" width="121.8896" x="962" y="1250.3594"/><text fill="#000000" font-family="sans-serif" font-size="14" lengthAdjust="spacing" textLength="98" x="972" y="1274.8926">&#32467;&#26524;&#30340;&#25512;&#36831;&#21457;&#29983;</text><path d="M912,1240.3594 L922,1240.3594 C937,1240.3594 937,1269.1641 952,1269.1641 L962,1269.1641 " fill="none" style="stroke:#181818;stroke-width:1;"/><path d="M716,1225.957 L726,1225.957 C741,1225.957 741,1240.3594 756,1240.3594 L766,1240.3594 " fill="none" style="stroke:#181818;stroke-width:1;"/><path d="M562,1100.457 L572,1100.457 C587,1100.457 587,1225.957 602,1225.957 L612,1225.957 " fill="none" style="stroke:#181818;stroke-width:1;"/><path d="M408,1100.457 L418,1100.457 C433,1100.457 433,1100.457 448,1100.457 L458,1100.457 " fill="none" style="stroke:#181818;stroke-width:1;"/><path d="M310,1201.2734 L320,1201.2734 C335,1201.2734 335,1100.457 350,1100.457 L360,1100.457 " fill="none" style="stroke:#181818;stroke-width:1;"/><rect fill="#F1F1F1" height="37.6094" rx="12.5" ry="12.5" style="stroke:#181818;stroke-width:1.5;" width="48" x="360" y="1379.9805"/><text fill="#000000" font-family="sans-serif" font-size="14" lengthAdjust="spacing" textLength="28" x="370" y="1404.5137">&#24847;&#24535;</text><rect fill="#F1F1F1" height="37.6094" rx="12.5" ry="12.5" style="stroke:#181818;stroke-width:1.5;" width="48" x="458" y="1307.9688"/><text fill="#000000" font-family="sans-serif" font-size="14" lengthAdjust="spacing" textLength="28" x="468" y="1332.502">&#25925;&#24847;</text><path d="M408,1398.7852 L418,1398.7852 C433,1398.7852 433,1326.7734 448,1326.7734 L458,1326.7734 " fill="none" style="stroke:#181818;stroke-width:1;"/><rect fill="#F1F1F1" height="37.6094" rx="12.5" ry="12.5" style="stroke:#181818;stroke-width:1.5;" width="48" x="458" y="1365.5781"/><text fill="#000000" font-family="sans-serif" font-size="14" lengthAdjust="spacing" textLength="28" x="468" y="1390.1113">&#36807;&#22833;</text><path d="M408,1398.7852 L418,1398.7852 C433,1398.7852 433,1384.3828 448,1384.3828 L458,1384.3828 " fill="none" style="stroke:#181818;stroke-width:1;"/><rect fill="#F1F1F1" height="37.6094" rx="12.5" ry="12.5" style="stroke:#181818;stroke-width:1.5;" width="48" x="458" y="1423.1875"/><text fill="#000000" font-family="sans-serif" font-size="14" lengthAdjust="spacing" textLength="28" x="468" y="1447.7207">&#26080;&#36807;</text><rect fill="#F1F1F1" height="37.6094" rx="12.5" ry="12.5" style="stroke:#181818;stroke-width:1.5;" width="76" x="556" y="1394.3828"/><text fill="#000000" font-family="sans-serif" font-size="14" lengthAdjust="spacing" textLength="56" x="566" y="1418.916">&#24847;&#22806;&#20107;&#20214;</text><path d="M506,1441.9922 L516,1441.9922 C531,1441.9922 531,1413.1875 546,1413.1875 L556,1413.1875 " fill="none" style="stroke:#181818;stroke-width:1;"/><rect fill="#F1F1F1" height="37.6094" rx="12.5" ry="12.5" style="stroke:#181818;stroke-width:1.5;" width="76" x="556" y="1451.9922"/><text fill="#000000" font-family="sans-serif" font-size="14" lengthAdjust="spacing" textLength="56" x="566" y="1476.5254">&#19981;&#21487;&#25239;&#21147;</text><path d="M506,1441.9922 L516,1441.9922 C531,1441.9922 531,1470.7969 546,1470.7969 L556,1470.7969 " fill="none" style="stroke:#181818;stroke-width:1;"/><path d="M408,1398.7852 L418,1398.7852 C433,1398.7852 433,1441.9922 448,1441.9922 L458,1441.9922 " fill="none" style="stroke:#181818;stroke-width:1;"/><path d="M310,1201.2734 L320,1201.2734 C335,1201.2734 335,1398.7852 350,1398.7852 L360,1398.7852 " fill="none" style="stroke:#181818;stroke-width:1;"/><path d="M198,1042.8477 L208,1042.8477 C223,1042.8477 223,1201.2734 238,1201.2734 L248,1201.2734 " fill="none" style="stroke:#181818;stroke-width:1;"/><path d="M86,927.6289 L96,927.6289 C111,927.6289 111,1042.8477 126,1042.8477 L136,1042.8477 " fill="none" style="stroke:#181818;stroke-width:1;"/><rect fill="#F1F1F1" height="37.6094" rx="12.5" ry="12.5" style="stroke:#181818;stroke-width:1.5;" width="48" x="136" y="1653.625"/><text fill="#000000" font-family="sans-serif" font-size="14" lengthAdjust="spacing" textLength="28" x="146" y="1678.1582">&#23450;&#32618;</text><rect fill="#F1F1F1" height="37.6094" rx="12.5" ry="12.5" style="stroke:#181818;stroke-width:1.5;" width="48" x="234" y="1596.0156"/><text fill="#000000" font-family="sans-serif" font-size="14" lengthAdjust="spacing" textLength="28" x="244" y="1620.5488">&#32618;&#21517;</text><rect fill="#F1F1F1" height="37.6094" rx="12.5" ry="12.5" style="stroke:#181818;stroke-width:1.5;" width="90" x="332" y="1538.4063"/><text fill="#000000" font-family="sans-serif" font-size="14" lengthAdjust="spacing" textLength="70" x="342" y="1562.9395">&#25925;&#24847;&#26432;&#20154;&#32618;</text><rect fill="#F1F1F1" height="37.6094" rx="12.5" ry="12.5" style="stroke:#181818;stroke-width:1.5;" width="76" x="472" y="1509.6016"/><text fill="#000000" font-family="sans-serif" font-size="14" lengthAdjust="spacing" textLength="56" x="482" y="1534.1348">&#26159;&#21542;&#25104;&#31435;</text><path d="M422,1557.2109 L432,1557.2109 C447,1557.2109 447,1528.4063 462,1528.4063 L472,1528.4063 " fill="none" style="stroke:#181818;stroke-width:1;"/><rect fill="#F1F1F1" height="37.6094" rx="12.5" ry="12.5" style="stroke:#181818;stroke-width:1.5;" width="76" x="472" y="1567.2109"/><text fill="#000000" font-family="sans-serif" font-size="14" lengthAdjust="spacing" textLength="56" x="482" y="1591.7441">&#26159;&#21542;&#26082;&#36930;</text><path d="M422,1557.2109 L432,1557.2109 C447,1557.2109 447,1586.0156 462,1586.0156 L472,1586.0156 " fill="none" style="stroke:#181818;stroke-width:1;"/><path d="M282,1614.8203 L292,1614.8203 C307,1614.8203 307,1557.2109 322,1557.2109 L332,1557.2109 " fill="none" style="stroke:#181818;stroke-width:1;"/><rect fill="#F1F1F1" height="37.6094" rx="12.5" ry="12.5" style="stroke:#181818;stroke-width:1.5;" width="90" x="332" y="1624.8203"/><text fill="#000000" font-family="sans-serif" font-size="14" lengthAdjust="spacing" textLength="70" x="342" y="1649.3535">&#36807;&#22833;&#26432;&#20154;&#32618;</text><rect fill="#F1F1F1" height="37.6094" rx="12.5" ry="12.5" style="stroke:#181818;stroke-width:1.5;" width="76" x="472" y="1624.8203"/><text fill="#000000" font-family="sans-serif" font-size="14" lengthAdjust="spacing" textLength="56" x="482" y="1649.3535">&#26159;&#21542;&#25104;&#31435;</text><path d="M422,1643.625 L432,1643.625 C447,1643.625 447,1643.625 462,1643.625 L472,1643.625 " fill="none" style="stroke:#181818;stroke-width:1;"/><path d="M282,1614.8203 L292,1614.8203 C307,1614.8203 307,1643.625 322,1643.625 L332,1643.625 " fill="none" style="stroke:#181818;stroke-width:1;"/><rect fill="#F1F1F1" height="37.6094" rx="12.5" ry="12.5" style="stroke:#181818;stroke-width:1.5;" width="76" x="332" y="1682.4297"/><text fill="#000000" font-family="sans-serif" font-size="14" lengthAdjust="spacing" textLength="56" x="342" y="1706.9629">&#24847;&#22806;&#20107;&#20214;</text><path d="M282,1614.8203 L292,1614.8203 C307,1614.8203 307,1701.2344 322,1701.2344 L332,1701.2344 " fill="none" style="stroke:#181818;stroke-width:1;"/><path d="M184,1672.4297 L194,1672.4297 C209,1672.4297 209,1614.8203 224,1614.8203 L234,1614.8203 " fill="none" style="stroke:#181818;stroke-width:1;"/><rect fill="#F1F1F1" height="37.6094" rx="12.5" ry="12.5" style="stroke:#181818;stroke-width:1.5;" width="48" x="234" y="1768.8438"/><text fill="#000000" font-family="sans-serif" font-size="14" lengthAdjust="spacing" textLength="28" x="244" y="1793.377">&#22788;&#32602;</text><rect fill="#F1F1F1" height="37.6094" rx="12.5" ry="12.5" style="stroke:#181818;stroke-width:1.5;" width="76" x="332" y="1740.0391"/><text fill="#000000" font-family="sans-serif" font-size="14" lengthAdjust="spacing" textLength="56" x="342" y="1764.5723">&#24819;&#35937;&#31454;&#21512;</text><path d="M282,1787.6484 L292,1787.6484 C307,1787.6484 307,1758.8438 322,1758.8438 L332,1758.8438 " fill="none" style="stroke:#181818;stroke-width:1;"/><rect fill="#F1F1F1" height="37.6094" rx="12.5" ry="12.5" style="stroke:#181818;stroke-width:1.5;" width="76" x="332" y="1797.6484"/><text fill="#000000" font-family="sans-serif" font-size="14" lengthAdjust="spacing" textLength="56" x="342" y="1822.1816">&#25968;&#32618;&#24182;&#32602;</text><path d="M282,1787.6484 L292,1787.6484 C307,1787.6484 307,1816.4531 322,1816.4531 L332,1816.4531 " fill="none" style="stroke:#181818;stroke-width:1;"/><path d="M184,1672.4297 L194,1672.4297 C209,1672.4297 209,1787.6484 224,1787.6484 L234,1787.6484 " fill="none" style="stroke:#181818;stroke-width:1;"/><path d="M86,927.6289 L96,927.6289 C111,927.6289 111,1672.4297 126,1672.4297 L136,1672.4297 " fill="none" style="stroke:#181818;stroke-width:1;"/><!--SRC=[xLbRJnj757xVNp5L7feWuLo4eiX2KO8Jr4OXYWh9QpIi9_Q6zOwxE-lKgY8H0WcN4gY0Ga82XBgqWSR69QA0W_WnyUxQJ_aBFRlsmc9sTfqyL9Lgn0C-yvtlNEQSC-FXYiQmobAI4a_Xj21y9IcYhCS9YaJEmg_6iZ8vcvQnmlIKt6x3sW7NxiWZ4iY4hmMX3Pcl1yjxUzNvV7LrGK3mquQCLtlcYuBpeIO0W3ctUIYe2tTo83yX7FCAsr1rTTXyjMmjvisLPutO1kswyVnIvSrFVciXX4UGokg6aT_ofpVdNXYpJ_dqmUQRT278ZJPaZRtzWhZzjFwTS7cM_QmxPL5Ts3QAGuBNochbzo6lp2klh3qkbxPzdBSzs-5vNjuPBE-iXq1omP2w5oEZuPZfvnmCh4qM8GDMQSPSUiNnnDoQinR7hMB9M9e8j08c1gtnWhM_7W0hxqm2qWTscD63rs2nkb0o9j-NzoQisQ9VQRpxrTYVgIxyPKnkyAhZyROrl5s3eCvEaaediIPfbozxPyDEoNTlA_bSfV3KnouuP5UTimm-M6_o8Q3gx8jAeS1piR1RARu9X9XZCyQpKWtY7uLFwHqyCt95r1dzNYSQawWIvQFTAlgxl3zZ_RbcJ8zM2ky_VHY5020CipXaBXG-VHX3dQTK4eyc2Svaxub98WxSIs5r89GOTjB8lpn6lFdqu-3pceiV1wVCYMLZT1jg4uJct8WvF0N2Jn-Wb7updxojbSaNsGVRmrD6xXU80XeK39lpAtPTEUCF6Fzh6V5w6v0N8xTkhPKgcyL65rAwpAIqB8dOtl5xFt0SWSWMLw3NZP4jQwiKK7hryJdnhhmxPhqS_YmjO_VWixNgzfn119hcrBGnDcbC_MpDBZTNzuq4p_-e72o74TIgv63Uz_InioxmsijFOtu5reJmQXJuet6gO8xF6-EBxcq6IiKp9o6-_NLZUbBmSxLs6VARle1OA1ZJQ-RejBKnmL-UNwq-FZ4AdMY_Y9iJD4IL6xRsNpPYdsp1CBGsbg0nJiItQSUzksrh2LS8N1hTY-ELu_V8JkU6U5ce2wv9EA7Y5FeH22FziawSln3gmk90GgMw4ezHcQf8bX99Pg_3wYCR6uTMXjxYmEkhBZYX4g84CJi03peR0iwwMAfY9S5pkhReGjEwcfPvqDgY2-K7vWbAfHgFxLHtTrTNBEOYiqIMwKCEjhReG8M8suJXkVAYko1ECGbbq9IMb52eIff8C48t9OKqoeyecZGRI6MJAGeLYS8uD9hYP0UXRggmcgXV1am3ArHntJU50HbCU2p7L2db1dg4P3I56VN5tbP96glE-V0vQbVxgSh2jhTPBiPWMrbOHJV95gCfA6l6s-sw9e_EtXs59633WDIRpA3f4BPHSKBIsa3MGJywOU0wJAj-MTAI_D7YqJzkxM5IOesvuPYvHLcu9ISgCOkL9g8ISPomGsDO5AKulwIFZRmmvllGQPgdVU6pI7hm0wA7D36LmGMLnZqL6D92hePZ9qqrYKaPSbNqjCE9iObbqcmWHo70Nk1GwfG49vKzOvkfgVfnOvDhUly38jhqlEpW39oFH6sIDoDHw227ceOnstblEjtrNdQ7u67Z1lVgiLeEdX8EyoEXyspzo6yz1xMUWrhFGQtdeDPpKEivgFKSr7eEQZq7_G-VWsxR_pAyqtCJPOYgsRVlyv4BvovqH2wTxiKCtQ8PTFuYEdS-sj4HxRY8Ohrzo5u-8vpk-ROFQLI7Bnye3bTpLUhNxSOv8zp06Oo-q-7scY9HP7ywtTTp1lLUTuNekfAHLAgauCOgtBZRKmEXRoZhJLFcW2zsj7T93FKI5Tn2Ttk4Q-G-XWO5LP769IKHHNVwkjil2JVXPglZ11Y2xn8nkF8oDGjhlVy0]--></g></svg>