<svg xmlns="http://www.w3.org/2000/svg" xmlns:xlink="http://www.w3.org/1999/xlink" contentStyleType="text/css" height="871px" preserveAspectRatio="none" style="width:1393px;height:871px;background:#FFFFFF;" version="1.1" viewBox="0 0 1393 871" width="1393px" zoomAndPan="magnify"><title>&#25925;&#24847;&#26432;&#20154;&#32618;</title><defs/><g><text fill="#000000" font-family="sans-serif" font-size="14" font-weight="bold" lengthAdjust="spacing" textLength="72.1875" x="659.2959" y="34.5332">&#25925;&#24847;&#26432;&#20154;&#32618;</text><rect fill="#F1F1F1" height="37.6094" rx="12.5" ry="12.5" style="stroke:#181818;stroke-width:1.5;" width="90" x="10" y="435.375"/><text fill="#000000" font-family="sans-serif" font-size="14" lengthAdjust="spacing" textLength="70" x="20" y="459.9082">&#25925;&#24847;&#26432;&#20154;&#32618;</text><rect fill="#F1F1F1" height="37.6094" rx="12.5" ry="12.5" style="stroke:#181818;stroke-width:1.5;" width="48" x="150" y="58.6094"/><text fill="#000000" font-family="sans-serif" font-size="14" lengthAdjust="spacing" textLength="28" x="160" y="83.1426">&#27861;&#30410;</text><rect fill="#90EE90" height="37.6094" rx="12.5" ry="12.5" style="stroke:#181818;stroke-width:1.5;" width="107.8896" x="248" y="58.6094"/><text fill="#000000" font-family="sans-serif" font-size="14" lengthAdjust="spacing" textLength="84" x="258" y="83.1426">&#20182;&#20154;&#30340;&#29983;&#21629;&#26435;</text><path d="M198,77.4141 L208,77.4141 C223,77.4141 223,77.4141 238,77.4141 L248,77.4141 " fill="none" style="stroke:#181818;stroke-width:1;"/><path d="M100,454.1797 L110,454.1797 C125,454.1797 125,77.4141 140,77.4141 L150,77.4141 " fill="none" style="stroke:#181818;stroke-width:1;"/><rect fill="#F1F1F1" height="37.6094" rx="12.5" ry="12.5" style="stroke:#181818;stroke-width:1.5;" width="76" x="150" y="145.0234"/><text fill="#000000" font-family="sans-serif" font-size="14" lengthAdjust="spacing" textLength="56" x="160" y="169.5566">&#27861;&#24459;&#21518;&#26524;</text><rect fill="#F1F1F1" height="37.6094" rx="12.5" ry="12.5" style="stroke:#181818;stroke-width:1.5;" width="253.3584" x="276" y="116.2188"/><text fill="#000000" font-family="sans-serif" font-size="14" lengthAdjust="spacing" textLength="233.3584" x="286" y="140.752">&#24773;&#33410;&#36739;&#36731;&#65292;3&#24180;&#20197;&#19978;10&#24180;&#20197;&#19979;&#26377;&#26399;&#24466;&#21009;</text><path d="M226,163.8281 L236,163.8281 C251,163.8281 251,135.0234 266,135.0234 L276,135.0234 " fill="none" style="stroke:#181818;stroke-width:1;"/><rect fill="#F1F1F1" height="37.6094" rx="12.5" ry="12.5" style="stroke:#181818;stroke-width:1.5;" width="245.5723" x="276" y="173.8281"/><text fill="#000000" font-family="sans-serif" font-size="14" lengthAdjust="spacing" textLength="225.5723" x="286" y="198.3613">10&#24180;&#20197;&#19978;&#26377;&#26399;&#24466;&#21009;&#12289;&#26080;&#26399;&#24466;&#21009;&#12289;&#27515;&#21009;</text><path d="M226,163.8281 L236,163.8281 C251,163.8281 251,192.6328 266,192.6328 L276,192.6328 " fill="none" style="stroke:#181818;stroke-width:1;"/><path d="M100,454.1797 L110,454.1797 C125,454.1797 125,163.8281 140,163.8281 L150,163.8281 " fill="none" style="stroke:#181818;stroke-width:1;"/><rect fill="#F1F1F1" height="37.6094" rx="12.5" ry="12.5" style="stroke:#181818;stroke-width:1.5;" width="76" x="150" y="521.7891"/><text fill="#000000" font-family="sans-serif" font-size="14" lengthAdjust="spacing" textLength="56" x="160" y="546.3223">&#29305;&#27530;&#22330;&#26223;</text><rect fill="#F1F1F1" height="37.6094" rx="12.5" ry="12.5" style="stroke:#181818;stroke-width:1.5;" width="76" x="276" y="354.3672"/><text fill="#000000" font-family="sans-serif" font-size="14" lengthAdjust="spacing" textLength="56" x="286" y="378.9004">&#20182;&#20154;&#23454;&#26045;</text><rect fill="#F1F1F1" height="42.75" rx="12.5" ry="12.5" style="stroke:#181818;stroke-width:1.5;" width="86.8896" x="402" y="257.6719"/><text fill="#000000" font-family="sans-serif" font-size="14" lengthAdjust="spacing" textLength="42" x="412" y="287.3457">&#23433;&#20048;&#27515;</text><path d="M470.8618,278.1742 L476.6269,272.4091 C477.3106,271.726 477.3106,270.6177 476.6269,269.934 C475.9432,269.251 474.8361,269.251 474.1524,269.934 L468.3873,275.6991 L462.6222,269.9346 C461.9391,269.251 460.8308,269.251 460.1471,269.9346 C459.4641,270.6177 459.4641,271.726 460.1471,272.4097 L465.9122,278.1742 L460.1331,283.9533 C459.4501,284.6364 459.4501,285.7447 460.1331,286.4278 C460.4744,286.7696 460.923,286.9405 461.3704,286.9405 C461.8178,286.9405 462.2664,286.7696 462.6082,286.4278 L468.3867,280.6493 L474.1512,286.4138 C474.4931,286.7556 474.9411,286.9265 475.3885,286.9265 C475.8359,286.9265 476.2839,286.7556 476.6257,286.4138 C477.3094,285.7307 477.3094,284.6224 476.6257,283.9393 L470.8618,278.1742 " fill="#FE0000" style="stroke:;stroke-width:0;stroke-dasharray:;"/><rect fill="#F1F1F1" height="37.6094" rx="12.5" ry="12.5" style="stroke:#181818;stroke-width:1.5;" width="160" x="538.8896" y="231.4375"/><text fill="#000000" font-family="sans-serif" font-size="14" lengthAdjust="spacing" textLength="140" x="548.8896" y="255.9707">&#26500;&#25104;&#20316;&#20026;&#30340;&#25925;&#24847;&#26432;&#20154;&#32618;</text><path d="M488.8896,279.0469 L498.8896,279.0469 C513.8896,279.0469 513.8896,250.2422 528.8896,250.2422 L538.8896,250.2422 " fill="none" style="stroke:#181818;stroke-width:1;"/><rect fill="#F1F1F1" height="37.6094" rx="12.5" ry="12.5" style="stroke:#181818;stroke-width:1.5;" width="160" x="538.8896" y="289.0469"/><text fill="#000000" font-family="sans-serif" font-size="14" lengthAdjust="spacing" textLength="140" x="548.8896" y="313.5801">&#25215;&#35834;&#25918;&#24323;&#29983;&#21629;&#26159;&#26080;&#25928;&#30340;</text><path d="M488.8896,279.0469 L498.8896,279.0469 C513.8896,279.0469 513.8896,307.8516 528.8896,307.8516 L538.8896,307.8516 " fill="none" style="stroke:#181818;stroke-width:1;"/><path d="M352,373.1719 L362,373.1719 C377,373.1719 377,279.0469 392,279.0469 L402,279.0469 " fill="none" style="stroke:#181818;stroke-width:1;"/><rect fill="#90EE90" height="37.6094" rx="12.5" ry="12.5" style="stroke:#181818;stroke-width:1.5;" width="93.8896" x="402" y="411.9766"/><text fill="#000000" font-family="sans-serif" font-size="14" lengthAdjust="spacing" textLength="70" x="412" y="436.5098">&#34987;&#23475;&#20154;&#25215;&#35834;</text><rect fill="#F1F1F1" height="37.6094" rx="12.5" ry="12.5" style="stroke:#181818;stroke-width:1.5;" width="76" x="545.8896" y="349.2266"/><text fill="#000000" font-family="sans-serif" font-size="14" lengthAdjust="spacing" textLength="56" x="555.8896" y="373.7598">&#25215;&#35834;&#26377;&#25928;</text><rect fill="#F1F1F1" height="42.75" rx="12.5" ry="12.5" style="stroke:#181818;stroke-width:1.5;" width="72.8896" x="671.8896" y="346.6563"/><text fill="#000000" font-family="sans-serif" font-size="14" lengthAdjust="spacing" textLength="28" x="681.8896" y="376.3301">&#36731;&#20260;</text><path d="M733.8804,357.4583 C733.069,356.9322 731.9857,357.1632 731.4601,357.974 L721.6543,373.0888 L716.8721,368.6671 C716.1622,368.0108 715.0556,368.054 714.3994,368.7639 C713.7431,369.4733 713.7863,370.581 714.4962,371.2367 L720.7752,377.042 C720.9555,377.1972 720.9555,377.1972 721.0389,377.2514 C721.3329,377.4428 721.663,377.5338 721.9897,377.5338 C722.5625,377.5338 723.1243,377.2526 723.4597,376.7358 L734.396,359.8786 C734.9222,359.0678 734.6912,357.9839 733.8804,357.4583 " fill="#FE0000" style="stroke:;stroke-width:0;stroke-dasharray:;"/><path d="M621.8896,368.0313 L631.8896,368.0313 C646.8896,368.0313 646.8896,368.0313 661.8896,368.0313 L671.8896,368.0313 " fill="none" style="stroke:#181818;stroke-width:1;"/><path d="M495.8896,430.7813 L505.8896,430.7813 C520.8896,430.7813 520.8896,368.0313 535.8896,368.0313 L545.8896,368.0313 " fill="none" style="stroke:#181818;stroke-width:1;"/><rect fill="#F1F1F1" height="37.6094" rx="12.5" ry="12.5" style="stroke:#181818;stroke-width:1.5;" width="76" x="545.8896" y="443.3516"/><text fill="#000000" font-family="sans-serif" font-size="14" lengthAdjust="spacing" textLength="56" x="555.8896" y="467.8848">&#25215;&#35834;&#26080;&#25928;</text><rect fill="#F1F1F1" height="42.75" rx="12.5" ry="12.5" style="stroke:#181818;stroke-width:1.5;" width="72.8896" x="671.8896" y="409.4063"/><text fill="#000000" font-family="sans-serif" font-size="14" lengthAdjust="spacing" textLength="28" x="681.8896" y="439.0801">&#37325;&#20260;</text><path d="M726.7515,429.9086 L732.5165,424.1435 C733.2002,423.4604 733.2002,422.3521 732.5165,421.6684 C731.8329,420.9853 730.7257,420.9853 730.042,421.6684 L724.277,427.4335 L718.5119,421.669 C717.8288,420.9853 716.7205,420.9853 716.0368,421.669 C715.3537,422.3521 715.3537,423.4604 716.0368,424.1441 L721.8019,429.9086 L716.0228,435.6877 C715.3397,436.3708 715.3397,437.4791 716.0228,438.1622 C716.364,438.504 716.8126,438.6749 717.26,438.6749 C717.7075,438.6749 718.156,438.504 718.4979,438.1622 L724.2764,432.3837 L730.0409,438.1482 C730.3827,438.49 730.8307,438.6609 731.2781,438.6609 C731.7255,438.6609 732.1735,438.49 732.5154,438.1482 C733.199,437.4651 733.199,436.3568 732.5154,435.6737 L726.7515,429.9086 " fill="#FE0000" style="stroke:;stroke-width:0;stroke-dasharray:;"/><path d="M621.8896,462.1563 L631.8896,462.1563 C646.8896,462.1563 646.8896,430.7813 661.8896,430.7813 L671.8896,430.7813 " fill="none" style="stroke:#181818;stroke-width:1;"/><rect fill="#F1F1F1" height="42.75" rx="12.5" ry="12.5" style="stroke:#181818;stroke-width:1.5;" width="72.8896" x="671.8896" y="472.1563"/><text fill="#000000" font-family="sans-serif" font-size="14" lengthAdjust="spacing" textLength="28" x="681.8896" y="501.8301">&#29983;&#21629;</text><path d="M726.7515,492.6586 L732.5165,486.8935 C733.2002,486.2104 733.2002,485.1021 732.5165,484.4184 C731.8329,483.7353 730.7257,483.7353 730.042,484.4184 L724.277,490.1835 L718.5119,484.419 C717.8288,483.7353 716.7205,483.7353 716.0368,484.419 C715.3537,485.1021 715.3537,486.2104 716.0368,486.8941 L721.8019,492.6586 L716.0228,498.4377 C715.3397,499.1208 715.3397,500.2291 716.0228,500.9122 C716.364,501.254 716.8126,501.4249 717.26,501.4249 C717.7075,501.4249 718.156,501.254 718.4979,500.9122 L724.2764,495.1337 L730.0409,500.8982 C730.3827,501.24 730.8307,501.4109 731.2781,501.4109 C731.7255,501.4109 732.1735,501.24 732.5154,500.8982 C733.199,500.2151 733.199,499.1068 732.5154,498.4237 L726.7515,492.6586 " fill="#FE0000" style="stroke:;stroke-width:0;stroke-dasharray:;"/><rect fill="#90EE90" height="37.6094" rx="12.5" ry="12.5" style="stroke:#181818;stroke-width:1.5;" width="163.8896" x="794.7793" y="474.7266"/><text fill="#000000" font-family="sans-serif" font-size="14" lengthAdjust="spacing" textLength="140" x="804.7793" y="499.2598">&#25215;&#35834;&#25918;&#24323;&#29983;&#21629;&#26159;&#26080;&#25928;&#30340;</text><path d="M744.7793,493.5313 L754.7793,493.5313 C769.7793,493.5313 769.7793,493.5313 784.7793,493.5313 L794.7793,493.5313 " fill="none" style="stroke:#181818;stroke-width:1;"/><path d="M621.8896,462.1563 L631.8896,462.1563 C646.8896,462.1563 646.8896,493.5313 661.8896,493.5313 L671.8896,493.5313 " fill="none" style="stroke:#181818;stroke-width:1;"/><path d="M495.8896,430.7813 L505.8896,430.7813 C520.8896,430.7813 520.8896,462.1563 535.8896,462.1563 L545.8896,462.1563 " fill="none" style="stroke:#181818;stroke-width:1;"/><path d="M352,373.1719 L362,373.1719 C377,373.1719 377,430.7813 392,430.7813 L402,430.7813 " fill="none" style="stroke:#181818;stroke-width:1;"/><path d="M226,540.5938 L236,540.5938 C251,540.5938 251,373.1719 266,373.1719 L276,373.1719 " fill="none" style="stroke:#181818;stroke-width:1;"/><rect fill="#F1F1F1" height="37.6094" rx="12.5" ry="12.5" style="stroke:#181818;stroke-width:1.5;" width="76" x="276" y="673.5234"/><text fill="#000000" font-family="sans-serif" font-size="14" lengthAdjust="spacing" textLength="56" x="286" y="698.0566">&#33258;&#24049;&#23454;&#26045;</text><rect fill="#F1F1F1" height="37.6094" rx="12.5" ry="12.5" style="stroke:#181818;stroke-width:1.5;" width="48" x="402" y="598.9414"/><text fill="#000000" font-family="sans-serif" font-size="14" lengthAdjust="spacing" textLength="28" x="412" y="623.4746">&#33258;&#26432;</text><rect fill="#F1F1F1" height="37.6094" rx="12.5" ry="12.5" style="stroke:#181818;stroke-width:1.5;" width="90" x="500" y="541.332"/><text fill="#000000" font-family="sans-serif" font-size="14" lengthAdjust="spacing" textLength="70" x="510" y="565.8652">&#26080;&#21035;&#20154;&#21442;&#19982;</text><path d="M450,617.7461 L460,617.7461 C475,617.7461 475,560.1367 490,560.1367 L500,560.1367 " fill="none" style="stroke:#181818;stroke-width:1;"/><rect fill="#F1F1F1" height="37.6094" rx="12.5" ry="12.5" style="stroke:#181818;stroke-width:1.5;" width="90" x="500" y="598.9414"/><text fill="#000000" font-family="sans-serif" font-size="14" lengthAdjust="spacing" textLength="70" x="510" y="623.4746">&#26377;&#21035;&#20154;&#21442;&#19982;</text><rect fill="#F1F1F1" height="42.75" rx="12.5" ry="12.5" style="stroke:#181818;stroke-width:1.5;" width="226.8896" x="640" y="534.9063"/><text fill="#000000" font-family="sans-serif" font-size="14" lengthAdjust="spacing" textLength="182" x="650" y="564.5801">&#21035;&#20154;&#24378;&#36843;&#12289;&#27450;&#39575;&#65292;&#24418;&#25104;&#25903;&#37197;&#21147;</text><path d="M848.8618,555.4086 L854.6269,549.6435 C855.3106,548.9604 855.3106,547.8521 854.6269,547.1684 C853.9432,546.4853 852.8361,546.4853 852.1524,547.1684 L846.3873,552.9335 L840.6222,547.169 C839.9391,546.4853 838.8308,546.4853 838.1471,547.169 C837.4641,547.8521 837.4641,548.9604 838.1471,549.6441 L843.9122,555.4086 L838.1331,561.1877 C837.4501,561.8708 837.4501,562.9791 838.1331,563.6622 C838.4744,564.004 838.923,564.1749 839.3704,564.1749 C839.8178,564.1749 840.2664,564.004 840.6082,563.6622 L846.3867,557.8837 L852.1512,563.6482 C852.4931,563.99 852.9411,564.1609 853.3885,564.1609 C853.8359,564.1609 854.2839,563.99 854.6257,563.6482 C855.3094,562.9651 855.3094,561.8568 854.6257,561.1737 L848.8618,555.4086 " fill="#FE0000" style="stroke:;stroke-width:0;stroke-dasharray:;"/><rect fill="#90EE90" height="37.6094" rx="12.5" ry="12.5" style="stroke:#181818;stroke-width:1.5;" width="79.8896" x="916.8896" y="537.4766"/><text fill="#000000" font-family="sans-serif" font-size="14" lengthAdjust="spacing" textLength="56" x="926.8896" y="562.0098">&#38388;&#25509;&#27491;&#29359;</text><path d="M866.8896,556.2813 L876.8896,556.2813 C891.8896,556.2813 891.8896,556.2813 906.8896,556.2813 L916.8896,556.2813 " fill="none" style="stroke:#181818;stroke-width:1;"/><path d="M590,617.7461 L600,617.7461 C615,617.7461 615,556.2813 630,556.2813 L640,556.2813 " fill="none" style="stroke:#181818;stroke-width:1;"/><rect fill="#F1F1F1" height="42.75" rx="12.5" ry="12.5" style="stroke:#181818;stroke-width:1.5;" width="226.8896" x="640" y="626.4609"/><text fill="#000000" font-family="sans-serif" font-size="14" lengthAdjust="spacing" textLength="182" x="650" y="656.1348">&#21035;&#20154;&#25945;&#21766;&#12289;&#24110;&#21161;&#65292;&#27809;&#26377;&#25903;&#37197;&#21147;</text><path d="M845.8063,652.2109 C844.8397,652.2109 844.0563,651.4275 844.0563,650.4609 L844.0563,648.1276 C844.0563,647.161 844.8397,646.3776 845.8063,646.3776 C846.1581,646.3741 849.3063,645.7943 849.3063,643.4609 C849.3063,642.2943 848.1396,641.1276 846.3896,641.1276 C844.9657,641.1276 844.0563,642.2943 844.0563,642.8776 C844.0563,643.8442 843.2729,644.6276 842.3063,644.6276 C841.3397,644.6276 840.5563,643.8442 840.5563,642.8776 C840.5563,640.0321 843.228,637.6276 846.3896,637.6276 C851.0563,637.6276 852.8063,641.1171 852.8063,644.0443 C852.8063,646.4622 851.4781,648.3102 849.0654,649.2476 C848.5404,649.4524 848.0212,649.59 847.5563,649.6834 L847.5563,650.4609 C847.5563,651.4275 846.7729,652.2109 845.8063,652.2109 " fill="#BE1931" style="stroke:;stroke-width:0;stroke-dasharray:;"/><ellipse cx="845.8063" cy="655.1276" fill="#BE1931" rx="1.75" ry="1.75" style="stroke:#BE1931;stroke-width:1.5;"/><rect fill="#F1F1F1" height="42.75" rx="12.5" ry="12.5" style="stroke:#181818;stroke-width:1.5;" width="72.8896" x="916.8896" y="595.0859"/><text fill="#000000" font-family="sans-serif" font-size="14" lengthAdjust="spacing" textLength="28" x="926.8896" y="624.7598">&#26080;&#32618;</text><path d="M978.8804,605.888 C978.069,605.3619 976.9857,605.5929 976.4601,606.4037 L966.6543,621.5184 L961.8721,617.0968 C961.1622,616.4405 960.0556,616.4837 959.3994,617.1936 C958.7431,617.9029 958.7863,619.0107 959.4962,619.6664 L965.7752,625.4717 C965.9555,625.6269 965.9555,625.6269 966.0389,625.6811 C966.3329,625.8724 966.663,625.9634 966.9897,625.9634 C967.5625,625.9634 968.1243,625.6823 968.4597,625.1654 L979.396,608.3083 C979.9222,607.4974 979.6912,606.4136 978.8804,605.888 " fill="#FE0000" style="stroke:;stroke-width:0;stroke-dasharray:;"/><rect fill="#90EE90" height="37.6094" rx="12.5" ry="12.5" style="stroke:#181818;stroke-width:1.5;" width="93.8896" x="1039.7793" y="597.6563"/><text fill="#000000" font-family="sans-serif" font-size="14" lengthAdjust="spacing" textLength="70" x="1049.7793" y="622.1895">&#20849;&#29359;&#20174;&#23646;&#24615;</text><path d="M989.7793,616.4609 L999.7793,616.4609 C1014.7793,616.4609 1014.7793,616.4609 1029.7793,616.4609 L1039.7793,616.4609 " fill="none" style="stroke:#181818;stroke-width:1;"/><path d="M866.8896,647.8359 L876.8896,647.8359 C891.8896,647.8359 891.8896,616.4609 906.8896,616.4609 L916.8896,616.4609 " fill="none" style="stroke:#181818;stroke-width:1;"/><rect fill="#F1F1F1" height="42.75" rx="12.5" ry="12.5" style="stroke:#181818;stroke-width:1.5;" width="142.8896" x="916.8896" y="657.8359"/><text fill="#000000" font-family="sans-serif" font-size="14" lengthAdjust="spacing" textLength="98" x="926.8896" y="687.5098">&#26377;&#32618;&#65288;&#22810;&#25968;&#35828;&#65289;</text><path d="M1041.7515,678.3383 L1047.5165,672.5732 C1048.2002,671.8901 1048.2002,670.7818 1047.5165,670.0981 C1046.8329,669.415 1045.7257,669.415 1045.042,670.0981 L1039.277,675.8632 L1033.5119,670.0987 C1032.8288,669.415 1031.7205,669.415 1031.0368,670.0987 C1030.3537,670.7818 1030.3537,671.8901 1031.0368,672.5738 L1036.8019,678.3383 L1031.0228,684.1174 C1030.3397,684.8004 1030.3397,685.9088 1031.0228,686.5919 C1031.364,686.9337 1031.8126,687.1046 1032.26,687.1046 C1032.7075,687.1046 1033.156,686.9337 1033.4979,686.5919 L1039.2764,680.8134 L1045.0409,686.5779 C1045.3827,686.9197 1045.8307,687.0906 1046.2781,687.0906 C1046.7255,687.0906 1047.1735,686.9197 1047.5154,686.5779 C1048.199,685.8948 1048.199,684.7864 1047.5154,684.1034 L1041.7515,678.3383 " fill="#FE0000" style="stroke:;stroke-width:0;stroke-dasharray:;"/><rect fill="#F1F1F1" height="37.6094" rx="12.5" ry="12.5" style="stroke:#181818;stroke-width:1.5;" width="272" x="1109.7793" y="660.4063"/><text fill="#000000" font-family="sans-serif" font-size="14" lengthAdjust="spacing" textLength="252" x="1119.7793" y="684.9395">&#29983;&#21629;&#35201;&#32477;&#23545;&#20445;&#25252;&#65292;&#20849;&#29359;&#20174;&#23646;&#24615;&#21487;&#20197;&#26377;&#20363;&#22806;</text><path d="M1059.7793,679.2109 L1069.7793,679.2109 C1084.7793,679.2109 1084.7793,679.2109 1099.7793,679.2109 L1109.7793,679.2109 " fill="none" style="stroke:#181818;stroke-width:1;"/><path d="M866.8896,647.8359 L876.8896,647.8359 C891.8896,647.8359 891.8896,679.2109 906.8896,679.2109 L916.8896,679.2109 " fill="none" style="stroke:#181818;stroke-width:1;"/><path d="M590,617.7461 L600,617.7461 C615,617.7461 615,647.8359 630,647.8359 L640,647.8359 " fill="none" style="stroke:#181818;stroke-width:1;"/><path d="M450,617.7461 L460,617.7461 C475,617.7461 475,617.7461 490,617.7461 L500,617.7461 " fill="none" style="stroke:#181818;stroke-width:1;"/><path d="M352,692.3281 L362,692.3281 C377,692.3281 377,617.7461 392,617.7461 L402,617.7461 " fill="none" style="stroke:#181818;stroke-width:1;"/><rect fill="#F1F1F1" height="37.6094" rx="12.5" ry="12.5" style="stroke:#181818;stroke-width:1.5;" width="48" x="402" y="766.3633"/><text fill="#000000" font-family="sans-serif" font-size="14" lengthAdjust="spacing" textLength="28" x="412" y="790.8965">&#33258;&#20260;</text><rect fill="#F1F1F1" height="37.6094" rx="12.5" ry="12.5" style="stroke:#181818;stroke-width:1.5;" width="90" x="500" y="720.5859"/><text fill="#000000" font-family="sans-serif" font-size="14" lengthAdjust="spacing" textLength="70" x="510" y="745.1191">&#26080;&#21035;&#20154;&#21442;&#19982;</text><path d="M450,785.168 L460,785.168 C475,785.168 475,739.3906 490,739.3906 L500,739.3906 " fill="none" style="stroke:#181818;stroke-width:1;"/><rect fill="#F1F1F1" height="37.6094" rx="12.5" ry="12.5" style="stroke:#181818;stroke-width:1.5;" width="90" x="500" y="778.1953"/><text fill="#000000" font-family="sans-serif" font-size="14" lengthAdjust="spacing" textLength="70" x="510" y="802.7285">&#26377;&#21035;&#20154;&#21442;&#19982;</text><rect fill="#F1F1F1" height="42.75" rx="12.5" ry="12.5" style="stroke:#181818;stroke-width:1.5;" width="226.8896" x="640" y="744.25"/><text fill="#000000" font-family="sans-serif" font-size="14" lengthAdjust="spacing" textLength="182" x="650" y="773.9238">&#21035;&#20154;&#24378;&#36843;&#12289;&#27450;&#39575;&#65292;&#24418;&#25104;&#25903;&#37197;&#21147;</text><path d="M848.8618,764.7523 L854.6269,758.9873 C855.3106,758.3042 855.3106,757.1958 854.6269,756.5122 C853.9432,755.8291 852.8361,755.8291 852.1524,756.5122 L846.3873,762.2773 L840.6222,756.5128 C839.9391,755.8291 838.8308,755.8291 838.1471,756.5128 C837.4641,757.1958 837.4641,758.3042 838.1471,758.9878 L843.9122,764.7523 L838.1331,770.5314 C837.4501,771.2145 837.4501,772.3228 838.1331,773.0059 C838.4744,773.3478 838.923,773.5187 839.3704,773.5187 C839.8178,773.5187 840.2664,773.3478 840.6082,773.0059 L846.3867,767.2274 L852.1512,772.9919 C852.4931,773.3338 852.9411,773.5047 853.3885,773.5047 C853.8359,773.5047 854.2839,773.3338 854.6257,772.9919 C855.3094,772.3088 855.3094,771.2005 854.6257,770.5174 L848.8618,764.7523 " fill="#FE0000" style="stroke:;stroke-width:0;stroke-dasharray:;"/><rect fill="#F1F1F1" height="37.6094" rx="12.5" ry="12.5" style="stroke:#181818;stroke-width:1.5;" width="76" x="916.8896" y="746.8203"/><text fill="#000000" font-family="sans-serif" font-size="14" lengthAdjust="spacing" textLength="56" x="926.8896" y="771.3535">&#38388;&#25509;&#27491;&#29359;</text><path d="M866.8896,765.625 L876.8896,765.625 C891.8896,765.625 891.8896,765.625 906.8896,765.625 L916.8896,765.625 " fill="none" style="stroke:#181818;stroke-width:1;"/><path d="M590,797 L600,797 C615,797 615,765.625 630,765.625 L640,765.625 " fill="none" style="stroke:#181818;stroke-width:1;"/><rect fill="#F1F1F1" height="42.75" rx="12.5" ry="12.5" style="stroke:#181818;stroke-width:1.5;" width="226.8896" x="640" y="807"/><text fill="#000000" font-family="sans-serif" font-size="14" lengthAdjust="spacing" textLength="182" x="650" y="836.6738">&#21035;&#20154;&#25945;&#21766;&#12289;&#24110;&#21161;&#65292;&#27809;&#26377;&#25903;&#37197;&#21147;</text><path d="M855.9907,817.8021 C855.1793,817.2759 854.0961,817.5069 853.5705,818.3178 L843.7646,833.4325 L838.9825,829.0108 C838.2726,828.3546 837.166,828.3978 836.5097,829.1077 C835.8535,829.817 835.8966,830.9248 836.6066,831.5804 L842.8856,837.3858 C843.0658,837.5409 843.0658,837.5409 843.1492,837.5952 C843.4432,837.7865 843.7734,837.8775 844.1001,837.8775 C844.6729,837.8775 845.2346,837.5963 845.5701,837.0795 L856.5064,820.2223 C857.0326,819.4115 856.8016,818.3277 855.9907,817.8021 " fill="#FE0000" style="stroke:;stroke-width:0;stroke-dasharray:;"/><rect fill="#F1F1F1" height="37.6094" rx="12.5" ry="12.5" style="stroke:#181818;stroke-width:1.5;" width="90" x="916.8896" y="809.5703"/><text fill="#000000" font-family="sans-serif" font-size="14" lengthAdjust="spacing" textLength="70" x="926.8896" y="834.1035">&#20849;&#29359;&#20174;&#23646;&#24615;</text><path d="M866.8896,828.375 L876.8896,828.375 C891.8896,828.375 891.8896,828.375 906.8896,828.375 L916.8896,828.375 " fill="none" style="stroke:#181818;stroke-width:1;"/><path d="M590,797 L600,797 C615,797 615,828.375 630,828.375 L640,828.375 " fill="none" style="stroke:#181818;stroke-width:1;"/><path d="M450,785.168 L460,785.168 C475,785.168 475,797 490,797 L500,797 " fill="none" style="stroke:#181818;stroke-width:1;"/><path d="M352,692.3281 L362,692.3281 C377,692.3281 377,785.168 392,785.168 L402,785.168 " fill="none" style="stroke:#181818;stroke-width:1;"/><path d="M226,540.5938 L236,540.5938 C251,540.5938 251,692.3281 266,692.3281 L276,692.3281 " fill="none" style="stroke:#181818;stroke-width:1;"/><path d="M100,454.1797 L110,454.1797 C125,454.1797 125,540.5938 140,540.5938 L150,540.5938 " fill="none" style="stroke:#181818;stroke-width:1;"/><!--SRC=[xLXjJzjM5FxkNt6dVe5AX9SXL4K8KLBGLfMg6hHVqOrpcxZOlfbzdIwQ9j42QvAkG2S2Qniews3JO2LZHHeG0Z-ciGcV-0ixTXBYl3XssRSg227xtkSyzzpdd7EFByCgmmgJ13aauIZ7VI78lAY52FBvkk5NPN6HT4T5B3DD4hjCM1VWkgnndm1Z7CS49X9afEUDkKLZRQPmT7IMt-Quwmr327vWz4Fwx4tAUYaD578h9k3rtDdoM_rbtbYRHOE3H8f6i2geGqDLC_takRwqOAndRCR6x7mnzRHuCblCvowEV_fIFzmlvBOA1wdUdihZSoEJD39lzPEVzSHBcsaLaR8ZFiuyCLOtQbxVvogMrz5Pyj3OJUcP8-DLjc4J-kwwiPA_72vDwRl9mk4IaA31Qme9-IC4n-9JaYOo8IeAF6O2bQU-ym_Lc9Ltjpvd99OA-KpXm1IecQ1r1idJOlR8M3xHZsVBSlwIDRUJJe1zdMF5TplwxWVWAbargjwK6wHA9ngcoupvNE5uisQVV8JmqrCILgRzBKWj3nr8pv-zg2Vr85uvMfO6Lx7recTpnK26PzlwltjDam6c87xDX5ZTq1CxPWujFYqSB3H3P98j4ULiAq6EZugdEsRk_dLqlhqAbQ7dtq4g6SlPy_aNUkhDrIKvNzqt5hQCzx-TfRAjKyRka95-fI__20xf1xjwwazmoFZdLpENgWxvlzM8QZhGEYAh6v3wtbEipfdvFN2xa5lGzzQDcJ_S_R-K7XQzE4xecw-DzD_5xFx5SVAg4jepi_ZxaxFScfuzB9ok6QbDCqwr7kgByBm5wnVWyDjSQSmcA8tF9Pl-Rm9zQaeqf0F73HFeWvLUE5pR6WUjfZV4bGTk2JYiO0bz3_o-eAWHwmcX4SnFXnMgoQ405Qc2H24SOUOypFvWOaFW5NZg02_FLi1XXH2v5RC5iA7ZBk1u1KiLB8UTd2vDLg1HJOcAJj3IP0Ngl37RfXIgEh5T6niR6Ga4AiWu4KNws05RchIWdAzIn-vQsT4z3d1rEcw5p8xjQwsL7Je2Gtm44ioJCq9OfWhn43U4xWWogH-lKdXSjYMLIIRBb2SoSz96jaH7Q8pAh3GK505Jnmh5KVPDPa06Hm4M0ueWLJPQHJ8gOKQROkyf98eLwo3v5BERGQemjwpnoiKOX9Mv5Of7jW2Le5gOKxJBbavqPdHa4eQ00QbTp5Q7ZbkWGeH4xVbUky0e7891KL0ZpYUMpRvsjSSHWTLhux3CNShSLx9snSUnx65NF0uHThaOvdaXv9pIDIUf6_D3g3JLLhxmpfDn_8XeBaLCHN11eI5R1hgKKCN2MYTALO49CNAJjvL3mscCHU9r8zKjG2omAxKaG0CqZsulELNkOYQvgWKV4TwaTr87nw3j4iKZRqoWK44MDNLZDdNtB7Vr8AyjtDQrMfFBhYs2Wp-3tUKlYVRLkNrrRb-TsrVdzjMvVNN-lAxEzyp_6DyVluDYH57DJufUNrzFNx_lHiS4PkWkZQ7U0TJJw-_lz_SFeC3493AdExcEyQydaKer-A928VZUK8IWPahHoTt6COo-qQ0bIyIFpBUEoV5ED35Q6KIZSanGg2n16-PkFnWlWT1Nb4r4ARF00_rT8m934qG1jz23SUuMUOX1SZ3bQKYGmtvqVtAiwmPt1zgrXiEm47mW1Q2FCoKESnF_0G00]--></g></svg>