<svg xmlns="http://www.w3.org/2000/svg" xmlns:xlink="http://www.w3.org/1999/xlink" contentStyleType="text/css" height="579px" preserveAspectRatio="none" style="width:1191px;height:579px;background:#FFFFFF;" version="1.1" viewBox="0 0 1191 579" width="1191px" zoomAndPan="magnify"><title>&#21152;&#37325;&#29359;-&#22240;&#26524;&#20851;&#31995;</title><defs/><g><text fill="#000000" font-family="sans-serif" font-size="14" font-weight="bold" lengthAdjust="spacing" textLength="105.7246" x="541.4136" y="34.5332">&#21152;&#37325;&#29359;-&#22240;&#26524;&#20851;&#31995;</text><rect fill="#F1F1F1" height="37.6094" rx="12.5" ry="12.5" style="stroke:#181818;stroke-width:1.5;" width="122.6621" x="10" y="289.0469"/><text fill="#000000" font-family="sans-serif" font-size="14" lengthAdjust="spacing" textLength="102.6621" x="20" y="313.5801">&#21152;&#37325;&#29359;-&#22240;&#26524;&#20851;&#31995;</text><rect fill="#F1F1F1" height="37.6094" rx="12.5" ry="12.5" style="stroke:#181818;stroke-width:1.5;" width="76" x="182.6621" y="116.2188"/><text fill="#000000" font-family="sans-serif" font-size="14" lengthAdjust="spacing" textLength="56" x="192.6621" y="140.752">&#22240;&#26524;&#20851;&#31995;</text><rect fill="#F1F1F1" height="37.6094" rx="12.5" ry="12.5" style="stroke:#181818;stroke-width:1.5;" width="34" x="308.6621" y="58.6094"/><text fill="#000000" font-family="sans-serif" font-size="14" lengthAdjust="spacing" textLength="14" x="318.6621" y="83.1426">&#22240;</text><rect fill="#F1F1F1" height="37.6094" rx="12.5" ry="12.5" style="stroke:#181818;stroke-width:1.5;" width="132" x="392.6621" y="58.6094"/><text fill="#000000" font-family="sans-serif" font-size="14" lengthAdjust="spacing" textLength="112" x="402.6621" y="83.1426">&#22522;&#26412;&#29359;&#30340;&#23454;&#34892;&#34892;&#20026;</text><path d="M342.6621,77.4141 L352.6621,77.4141 C367.6621,77.4141 367.6621,77.4141 382.6621,77.4141 L392.6621,77.4141 " fill="none" style="stroke:#181818;stroke-width:1;"/><path d="M258.6621,135.0234 L268.6621,135.0234 C283.6621,135.0234 283.6621,77.4141 298.6621,77.4141 L308.6621,77.4141 " fill="none" style="stroke:#181818;stroke-width:1;"/><rect fill="#F1F1F1" height="37.6094" rx="12.5" ry="12.5" style="stroke:#181818;stroke-width:1.5;" width="34" x="308.6621" y="116.2188"/><text fill="#000000" font-family="sans-serif" font-size="14" lengthAdjust="spacing" textLength="14" x="318.6621" y="140.752">&#26524;</text><rect fill="#F1F1F1" height="37.6094" rx="12.5" ry="12.5" style="stroke:#181818;stroke-width:1.5;" width="76" x="392.6621" y="116.2188"/><text fill="#000000" font-family="sans-serif" font-size="14" lengthAdjust="spacing" textLength="56" x="402.6621" y="140.752">&#21152;&#37325;&#32467;&#26524;</text><path d="M342.6621,135.0234 L352.6621,135.0234 C367.6621,135.0234 367.6621,135.0234 382.6621,135.0234 L392.6621,135.0234 " fill="none" style="stroke:#181818;stroke-width:1;"/><path d="M258.6621,135.0234 L268.6621,135.0234 C283.6621,135.0234 283.6621,135.0234 298.6621,135.0234 L308.6621,135.0234 " fill="none" style="stroke:#181818;stroke-width:1;"/><rect fill="#F1F1F1" height="37.6094" rx="12.5" ry="12.5" style="stroke:#181818;stroke-width:1.5;" width="48" x="308.6621" y="173.8281"/><text fill="#000000" font-family="sans-serif" font-size="14" lengthAdjust="spacing" textLength="28" x="318.6621" y="198.3613">&#22240;&#26524;</text><rect fill="#F1F1F1" height="37.6094" rx="12.5" ry="12.5" style="stroke:#181818;stroke-width:1.5;" width="538" x="406.6621" y="173.8281"/><text fill="#000000" font-family="sans-serif" font-size="14" lengthAdjust="spacing" textLength="518" x="416.6621" y="198.3613">&#12302;&#21152;&#37325;&#32467;&#26524;&#12303;&#24517;&#39035;&#26159;&#12302;&#22522;&#26412;&#29359;&#30340;&#23454;&#34892;&#34892;&#20026;&#12303;&#23548;&#33268;&#30340;&#65292;&#32780;&#19981;&#33021;&#26159;&#20854;&#20182;&#29359;&#32618;&#34892;&#20026;&#23548;&#33268;&#30340;&#12290;</text><path d="M356.6621,192.6328 L366.6621,192.6328 C381.6621,192.6328 381.6621,192.6328 396.6621,192.6328 L406.6621,192.6328 " fill="none" style="stroke:#181818;stroke-width:1;"/><path d="M258.6621,135.0234 L268.6621,135.0234 C283.6621,135.0234 283.6621,192.6328 298.6621,192.6328 L308.6621,192.6328 " fill="none" style="stroke:#181818;stroke-width:1;"/><path d="M132.6621,307.8516 L142.6621,307.8516 C157.6621,307.8516 157.6621,135.0234 172.6621,135.0234 L182.6621,135.0234 " fill="none" style="stroke:#181818;stroke-width:1;"/><rect fill="#F1F1F1" height="37.6094" rx="12.5" ry="12.5" style="stroke:#181818;stroke-width:1.5;" width="48" x="182.6621" y="231.4375"/><text fill="#000000" font-family="sans-serif" font-size="14" lengthAdjust="spacing" textLength="28" x="192.6621" y="255.9707">&#21028;&#26029;</text><rect fill="#F1F1F1" height="37.6094" rx="12.5" ry="12.5" style="stroke:#181818;stroke-width:1.5;" width="174" x="280.6621" y="231.4375"/><text fill="#000000" font-family="sans-serif" font-size="14" lengthAdjust="spacing" textLength="154" x="290.6621" y="255.9707">&#34892;&#20026;&#19982;&#30446;&#30340;&#21516;&#26102;&#23384;&#22312;&#21407;&#21017;</text><path d="M230.6621,250.2422 L240.6621,250.2422 C255.6621,250.2422 255.6621,250.2422 270.6621,250.2422 L280.6621,250.2422 " fill="none" style="stroke:#181818;stroke-width:1;"/><path d="M132.6621,307.8516 L142.6621,307.8516 C157.6621,307.8516 157.6621,250.2422 172.6621,250.2422 L182.6621,250.2422 " fill="none" style="stroke:#181818;stroke-width:1;"/><rect fill="#F1F1F1" height="37.6094" rx="12.5" ry="12.5" style="stroke:#181818;stroke-width:1.5;" width="48" x="182.6621" y="404.2656"/><text fill="#000000" font-family="sans-serif" font-size="14" lengthAdjust="spacing" textLength="28" x="192.6621" y="428.7988">&#26696;&#20363;</text><rect fill="#F1F1F1" height="42.75" rx="12.5" ry="12.5" style="stroke:#181818;stroke-width:1.5;" width="436.8896" x="280.6621" y="315.2813"/><text fill="#000000" font-family="sans-serif" font-size="14" lengthAdjust="spacing" textLength="392" x="290.6621" y="344.9551">&#30002;&#27442;&#25250;&#21163;&#20057;&#65292;&#20057;&#21453;&#25239;&#65292;&#30002;&#20026;&#20102;&#25250;&#21163;&#21040;&#36130;&#29289;&#65292;&#26432;&#27515;&#20057;&#65292;&#25343;&#36208;&#36130;&#29289;&#12290;</text><path d="M706.6528,326.0833 C705.8414,325.5572 704.7582,325.7882 704.2326,326.599 L694.4268,341.7138 L689.6446,337.2921 C688.9347,336.6358 687.8281,336.679 687.1718,337.3889 C686.5156,338.0983 686.5588,339.206 687.2687,339.8617 L693.5477,345.667 C693.7279,345.8222 693.7279,345.8222 693.8113,345.8764 C694.1053,346.0678 694.4355,346.1588 694.7622,346.1588 C695.335,346.1588 695.8968,345.8776 696.2322,345.3608 L707.1685,328.5036 C707.6947,327.6928 707.4637,326.6089 706.6528,326.0833 " fill="#FE0000" style="stroke:;stroke-width:0;stroke-dasharray:;"/><rect fill="#F1F1F1" height="37.6094" rx="12.5" ry="12.5" style="stroke:#181818;stroke-width:1.5;" width="90" x="767.5518" y="289.0469"/><text fill="#000000" font-family="sans-serif" font-size="14" lengthAdjust="spacing" textLength="70" x="777.5518" y="313.5801">&#34892;&#20026;&#19982;&#30446;&#30340;</text><rect fill="#F1F1F1" height="37.6094" rx="12.5" ry="12.5" style="stroke:#181818;stroke-width:1.5;" width="202" x="907.5518" y="289.0469"/><text fill="#000000" font-family="sans-serif" font-size="14" lengthAdjust="spacing" textLength="182" x="917.5518" y="313.5801">&#30002;&#30340;&#26432;&#20154;&#34892;&#20026;&#26159;&#20026;&#20102;&#25250;&#21163;&#36130;&#29289;</text><path d="M857.5518,307.8516 L867.5518,307.8516 C882.5518,307.8516 882.5518,307.8516 897.5518,307.8516 L907.5518,307.8516 " fill="none" style="stroke:#181818;stroke-width:1;"/><path d="M717.5518,336.6563 L727.5518,336.6563 C742.5518,336.6563 742.5518,307.8516 757.5518,307.8516 L767.5518,307.8516 " fill="none" style="stroke:#181818;stroke-width:1;"/><rect fill="#F1F1F1" height="37.6094" rx="12.5" ry="12.5" style="stroke:#181818;stroke-width:1.5;" width="48" x="767.5518" y="346.6563"/><text fill="#000000" font-family="sans-serif" font-size="14" lengthAdjust="spacing" textLength="28" x="777.5518" y="371.1895">&#23450;&#32618;</text><rect fill="#F1F1F1" height="37.6094" rx="12.5" ry="12.5" style="stroke:#181818;stroke-width:1.5;" width="174" x="865.5518" y="346.6563"/><text fill="#000000" font-family="sans-serif" font-size="14" lengthAdjust="spacing" textLength="154" x="875.5518" y="371.1895">&#25250;&#21163;&#32618;&#65288;&#25925;&#24847;&#65289;&#33268;&#20154;&#27515;&#20129;</text><path d="M815.5518,365.4609 L825.5518,365.4609 C840.5518,365.4609 840.5518,365.4609 855.5518,365.4609 L865.5518,365.4609 " fill="none" style="stroke:#181818;stroke-width:1;"/><path d="M717.5518,336.6563 L727.5518,336.6563 C742.5518,336.6563 742.5518,365.4609 757.5518,365.4609 L767.5518,365.4609 " fill="none" style="stroke:#181818;stroke-width:1;"/><path d="M230.6621,423.0703 L240.6621,423.0703 C255.6621,423.0703 255.6621,336.6563 270.6621,336.6563 L280.6621,336.6563 " fill="none" style="stroke:#181818;stroke-width:1;"/><rect fill="#F1F1F1" height="42.75" rx="12.5" ry="12.5" style="stroke:#181818;stroke-width:1.5;" width="310.8896" x="280.6621" y="459.3047"/><text fill="#000000" font-family="sans-serif" font-size="14" lengthAdjust="spacing" textLength="266" x="290.6621" y="488.9785">&#30002;&#25250;&#21163;&#21040;&#20057;&#30340;&#36130;&#29289;&#21518;&#65292;&#20026;&#20102;&#28781;&#21475;&#32780;&#26432;&#27515;&#20057;&#12290;</text><path d="M573.5239,479.807 L579.289,474.0419 C579.9727,473.3589 579.9727,472.2505 579.289,471.5669 C578.6053,470.8838 577.4982,470.8838 576.8145,471.5669 L571.0494,477.3319 L565.2843,471.5674 C564.6013,470.8838 563.4929,470.8838 562.8093,471.5674 C562.1262,472.2505 562.1262,473.3589 562.8093,474.0425 L568.5743,479.807 L562.7953,485.5861 C562.1122,486.2692 562.1122,487.3775 562.7953,488.0606 C563.1365,488.4024 563.5851,488.5734 564.0325,488.5734 C564.4799,488.5734 564.9285,488.4024 565.2703,488.0606 L571.0488,482.2821 L576.8133,488.0466 C577.1552,488.3884 577.6032,488.5594 578.0506,488.5594 C578.498,488.5594 578.946,488.3884 579.2878,488.0466 C579.9715,487.3635 579.9715,486.2552 579.2878,485.5721 L573.5239,479.807 " fill="#FE0000" style="stroke:;stroke-width:0;stroke-dasharray:;"/><rect fill="#F1F1F1" height="37.6094" rx="12.5" ry="12.5" style="stroke:#181818;stroke-width:1.5;" width="90" x="641.5518" y="404.2656"/><text fill="#000000" font-family="sans-serif" font-size="14" lengthAdjust="spacing" textLength="70" x="651.5518" y="428.7988">&#34892;&#20026;&#19982;&#30446;&#30340;</text><rect fill="#F1F1F1" height="37.6094" rx="12.5" ry="12.5" style="stroke:#181818;stroke-width:1.5;" width="398" x="781.5518" y="404.2656"/><text fill="#000000" font-family="sans-serif" font-size="14" lengthAdjust="spacing" textLength="378" x="791.5518" y="428.7988">&#30002;&#30340;&#26432;&#20154;&#34892;&#20026;&#19981;&#26159;&#20026;&#20102;&#21163;&#21462;&#36130;&#29289;&#65292;&#32780;&#26159;&#25925;&#24847;&#26432;&#20154;&#32618;&#30340;&#23454;&#34892;&#34892;&#20026;</text><path d="M731.5518,423.0703 L741.5518,423.0703 C756.5518,423.0703 756.5518,423.0703 771.5518,423.0703 L781.5518,423.0703 " fill="none" style="stroke:#181818;stroke-width:1;"/><path d="M591.5518,480.6797 L601.5518,480.6797 C616.5518,480.6797 616.5518,423.0703 631.5518,423.0703 L641.5518,423.0703 " fill="none" style="stroke:#181818;stroke-width:1;"/><rect fill="#F1F1F1" height="37.6094" rx="12.5" ry="12.5" style="stroke:#181818;stroke-width:1.5;" width="48" x="641.5518" y="490.6797"/><text fill="#000000" font-family="sans-serif" font-size="14" lengthAdjust="spacing" textLength="28" x="651.5518" y="515.2129">&#23450;&#32618;</text><rect fill="#F1F1F1" height="37.6094" rx="12.5" ry="12.5" style="stroke:#181818;stroke-width:1.5;" width="90" x="739.5518" y="461.875"/><text fill="#000000" font-family="sans-serif" font-size="14" lengthAdjust="spacing" textLength="70" x="749.5518" y="486.4082">&#25250;&#21163;&#32618;&#26082;&#36930;</text><path d="M689.5518,509.4844 L699.5518,509.4844 C714.5518,509.4844 714.5518,480.6797 729.5518,480.6797 L739.5518,480.6797 " fill="none" style="stroke:#181818;stroke-width:1;"/><rect fill="#F1F1F1" height="37.6094" rx="12.5" ry="12.5" style="stroke:#181818;stroke-width:1.5;" width="118" x="739.5518" y="519.4844"/><text fill="#000000" font-family="sans-serif" font-size="14" lengthAdjust="spacing" textLength="98" x="749.5518" y="544.0176">&#25925;&#24847;&#26432;&#20154;&#32618;&#26082;&#36930;</text><path d="M689.5518,509.4844 L699.5518,509.4844 C714.5518,509.4844 714.5518,538.2891 729.5518,538.2891 L739.5518,538.2891 " fill="none" style="stroke:#181818;stroke-width:1;"/><path d="M591.5518,480.6797 L601.5518,480.6797 C616.5518,480.6797 616.5518,509.4844 631.5518,509.4844 L641.5518,509.4844 " fill="none" style="stroke:#181818;stroke-width:1;"/><path d="M230.6621,423.0703 L240.6621,423.0703 C255.6621,423.0703 255.6621,480.6797 270.6621,480.6797 L280.6621,480.6797 " fill="none" style="stroke:#181818;stroke-width:1;"/><path d="M132.6621,307.8516 L142.6621,307.8516 C157.6621,307.8516 157.6621,423.0703 172.6621,423.0703 L182.6621,423.0703 " fill="none" style="stroke:#181818;stroke-width:1;"/><!--SRC=[xLZTJnDP57-Vl-9kV85DMeGGOXfYa0hPDTGOYxwIsvbhUsLcRdFdJjt6cA0hYiY7oUu2Agl2xiD-26pKDMx1zO-XCorF_0jxxaodJ2l3p2Rxjf2cQS_vdT_vlETs6B44viAWfcRWig9yGKrLjpM2qka-U5cYgfE-ievDOHjwIi9IW4jvyZG5cQ88AdI2dFbN1myN6_CxAUVvA_V5kZFxjl5sLr6-ZD8W-0DbjwWjRdzhILxMtFNNmD9uTj_PVj7SM81N_KCjP0H4tKQ-wztlmgh0QHTsVsOf3D-VMNO-pHvixBfhEr8LuLx2TlQQ3z-1_71leJa3miNcjn_1ofbzNzzTaIOVV_F1RUJ-pBqW_xcVtPMjK6m-ilvXgV5yM_fwik2kldUsrfprNvobbyxSqvQXkp5N__jnoB3n_HltzHjtVjEP_xt-rrC81jwTvKLtVXK-WrRIrXxu06VkZ-QxpSQZNq7b_ZZZRktw9kxZJyq_Moe84WsVuKJBb0YkLAVK4b6dfmpCfpFdkshN5NI7jXqTAC1LlLRpqL2XS4I-p-x-RJ-3uXr3vzk0xd1lplrXrhs_VBZt26eBx3ANsaPNOOAa8Ki8m_VbF5cIHV9YQDpTSfP_WkwrYz6TlM7hWfPrgc91cJdrpNzI0vYLTXbaWCihxQx8MDPs_Dny4yWsQlQJLijTtJouU-yuHAUV5auP8R0MWjKmqhafXhqTS5vf2IvINEJOGBU1FLtGRU9zGcWKgzD5pcnJopATSQJJOab8FMZlIAm60mLbZe2tj06uo0anJsBs025qDGPS3R2COxCO5RIl3A1bcvVrAAYl3A3HYOMIuioAOZipFZuwciq6o2hHTNOh0kihFQYI9aQvX2rgnTSgZ1uuEVymT1H4QWb69v43MZGP9mbwWT04DKct_8WYeTiJgIIPQJALc2A2nZAzGY8qpapXYmewOBfOOU1RiPa2o60lO3tBgH4aUeGKpC227OkzmaaPSs-h_1kp2mN6HTma9EKI0jegueO_8LkM6N02H5ItMvPHTB8x9Yb2mu0qNCoJ5abSepH2ojPqrKFV-Sp162osWawjKlGM2jbtUhjLegAxDX5kBZCHxydBIgrYCq5MAjQ8Q3l3gagrw97ks8vnp3VWf5cXumlVLPB3DuaTSuYP3Y5mfeKcCEO81HQUdpApgA0LSa4D7OVFDYpMIT94ZbA0Nk1OQeF2fIRNSPAPQjrCajoo2pU9AkcZgeChS9KIdf2tGXcS88-QnJ7BkYSkzz4Yxpou9v_LZbcElI8KU1lkQ_qwE7qwE7qwE7qw-1yy7LoH_oEubfj05S8jkM7xqmDd1mRJvthoMA3Bh8BwXz3P_ipWO6Pm26NpaqYgUvMUtDUJo68sN318W_NBQS6MDUnLBk4AHbTjs506oI3vhMSoruloOu4GZPaLofbfm5PIBbtF-I3q5HFvCXCUU6WmDKe5oXCEOQ7hEUKYkO6XLs2gCesQnGowDZcUEgTCmFQoSH4SmNsHXRKcU1Lq-Ny0]--></g></svg>