<svg xmlns="http://www.w3.org/2000/svg" xmlns:xlink="http://www.w3.org/1999/xlink" contentStyleType="text/css" height="828px" preserveAspectRatio="none" style="width:970px;height:828px;background:#FFFFFF;" version="1.1" viewBox="0 0 970 828" width="970px" zoomAndPan="magnify"><defs/><g><rect fill="#F1F1F1" height="37.6094" rx="12.5" ry="12.5" style="stroke:#181818;stroke-width:1.5;" width="136.6963" x="10" y="394.4609"/><text fill="#000000" font-family="sans-serif" font-size="14" lengthAdjust="spacing" textLength="116.6963" x="20" y="418.9941">&#20132;&#36890;&#32903;&#20107;&#65288;P299&#65289;</text><rect fill="#F1F1F1" height="37.6094" rx="12.5" ry="12.5" style="stroke:#181818;stroke-width:1.5;" width="76" x="196.6963" y="20"/><text fill="#000000" font-family="sans-serif" font-size="14" lengthAdjust="spacing" textLength="56" x="206.6963" y="44.5332">&#34892;&#20026;&#32467;&#26500;</text><rect fill="#F1F1F1" height="37.6094" rx="12.5" ry="12.5" style="stroke:#181818;stroke-width:1.5;" width="275.9102" x="322.6963" y="20"/><text fill="#000000" font-family="sans-serif" font-size="14" lengthAdjust="spacing" textLength="255.9102" x="332.6963" y="44.5332">&#32903;&#20107;&#34892;&#20026; + &#19981;&#20316;&#20026;&#65288;&#19981;&#25937;&#20154;&#65289; + &#20171;&#20837;&#22240;&#32032;</text><rect fill="#F1F1F1" height="37.6094" rx="12.5" ry="12.5" style="stroke:#181818;stroke-width:1.5;" width="76" x="648.6064" y="20"/><text fill="#000000" font-family="sans-serif" font-size="14" lengthAdjust="spacing" textLength="56" x="658.6064" y="44.5332">&#27515;&#20129;&#32467;&#26524;</text><path d="M598.6064,38.8047 L608.6064,38.8047 C623.6064,38.8047 623.6064,38.8047 638.6064,38.8047 L648.6064,38.8047 " fill="none" style="stroke:#181818;stroke-width:1;"/><path d="M272.6963,38.8047 L282.6963,38.8047 C297.6963,38.8047 297.6963,38.8047 312.6963,38.8047 L322.6963,38.8047 " fill="none" style="stroke:#181818;stroke-width:1;"/><path d="M146.6963,413.2656 L156.6963,413.2656 C171.6963,413.2656 171.6963,38.8047 186.6963,38.8047 L196.6963,38.8047 " fill="none" style="stroke:#181818;stroke-width:1;"/><rect fill="#F1F1F1" height="37.6094" rx="12.5" ry="12.5" style="stroke:#181818;stroke-width:1.5;" width="76" x="196.6963" y="135.2188"/><text fill="#000000" font-family="sans-serif" font-size="14" lengthAdjust="spacing" textLength="56" x="206.6963" y="159.752">&#35201;&#32032;&#20998;&#26512;</text><rect fill="#F1F1F1" height="37.6094" rx="12.5" ry="12.5" style="stroke:#181818;stroke-width:1.5;" width="34" x="322.6963" y="106.4141"/><text fill="#000000" font-family="sans-serif" font-size="14" lengthAdjust="spacing" textLength="14" x="332.6963" y="130.9473">&#30002;</text><rect fill="#F1F1F1" height="37.6094" rx="12.5" ry="12.5" style="stroke:#181818;stroke-width:1.5;" width="76" x="406.6963" y="77.6094"/><text fill="#000000" font-family="sans-serif" font-size="14" lengthAdjust="spacing" textLength="56" x="416.6963" y="102.1426">&#32903;&#20107;&#34892;&#20026;</text><rect fill="#F1F1F1" height="37.6094" rx="12.5" ry="12.5" style="stroke:#181818;stroke-width:1.5;" width="118" x="532.6963" y="77.6094"/><text fill="#000000" font-family="sans-serif" font-size="14" lengthAdjust="spacing" textLength="98" x="542.6963" y="102.1426">&#25758;&#27515;&#20057;&#65292;&#25758;&#20260;&#19993;</text><path d="M482.6963,96.4141 L492.6963,96.4141 C507.6963,96.4141 507.6963,96.4141 522.6963,96.4141 L532.6963,96.4141 " fill="none" style="stroke:#181818;stroke-width:1;"/><path d="M356.6963,125.2188 L366.6963,125.2188 C381.6963,125.2188 381.6963,96.4141 396.6963,96.4141 L406.6963,96.4141 " fill="none" style="stroke:#181818;stroke-width:1;"/><rect fill="#F1F1F1" height="37.6094" rx="12.5" ry="12.5" style="stroke:#181818;stroke-width:1.5;" width="160" x="406.6963" y="135.2188"/><text fill="#000000" font-family="sans-serif" font-size="14" lengthAdjust="spacing" textLength="140" x="416.6963" y="159.752">&#19981;&#20316;&#20026;&#65288;&#36867;&#36920;&#19981;&#25937;&#20154;&#65289;</text><rect fill="#F1F1F1" height="37.6094" rx="12.5" ry="12.5" style="stroke:#181818;stroke-width:1.5;" width="188" x="616.6963" y="135.2188"/><text fill="#000000" font-family="sans-serif" font-size="14" lengthAdjust="spacing" textLength="168" x="626.6963" y="159.752">&#19969;&#39550;&#36710;&#19981;&#24910;&#21387;&#21040;&#19993;&#65292;&#19993;&#27515;&#20129;</text><path d="M566.6963,154.0234 L576.6963,154.0234 C591.6963,154.0234 591.6963,154.0234 606.6963,154.0234 L616.6963,154.0234 " fill="none" style="stroke:#181818;stroke-width:1;"/><path d="M356.6963,125.2188 L366.6963,125.2188 C381.6963,125.2188 381.6963,154.0234 396.6963,154.0234 L406.6963,154.0234 " fill="none" style="stroke:#181818;stroke-width:1;"/><path d="M272.6963,154.0234 L282.6963,154.0234 C297.6963,154.0234 297.6963,125.2188 312.6963,125.2188 L322.6963,125.2188 " fill="none" style="stroke:#181818;stroke-width:1;"/><rect fill="#F1F1F1" height="37.6094" rx="12.5" ry="12.5" style="stroke:#181818;stroke-width:1.5;" width="34" x="322.6963" y="192.8281"/><text fill="#000000" font-family="sans-serif" font-size="14" lengthAdjust="spacing" textLength="14" x="332.6963" y="217.3613">&#19969;</text><rect fill="#F1F1F1" height="37.6094" rx="12.5" ry="12.5" style="stroke:#181818;stroke-width:1.5;" width="188" x="406.6963" y="192.8281"/><text fill="#000000" font-family="sans-serif" font-size="14" lengthAdjust="spacing" textLength="168" x="416.6963" y="217.3613">&#19969;&#39550;&#36710;&#19981;&#24910;&#21387;&#21040;&#19993;&#65292;&#19993;&#27515;&#20129;</text><path d="M356.6963,211.6328 L366.6963,211.6328 C381.6963,211.6328 381.6963,211.6328 396.6963,211.6328 L406.6963,211.6328 " fill="none" style="stroke:#181818;stroke-width:1;"/><path d="M272.6963,154.0234 L282.6963,154.0234 C297.6963,154.0234 297.6963,211.6328 312.6963,211.6328 L322.6963,211.6328 " fill="none" style="stroke:#181818;stroke-width:1;"/><path d="M146.6963,413.2656 L156.6963,413.2656 C171.6963,413.2656 171.6963,154.0234 186.6963,154.0234 L196.6963,154.0234 " fill="none" style="stroke:#181818;stroke-width:1;"/><rect fill="#F1F1F1" height="37.6094" rx="12.5" ry="12.5" style="stroke:#181818;stroke-width:1.5;" width="48" x="196.6963" y="509.6797"/><text fill="#000000" font-family="sans-serif" font-size="14" lengthAdjust="spacing" textLength="28" x="206.6963" y="534.2129">&#20998;&#26512;</text><rect fill="#F1F1F1" height="37.6094" rx="12.5" ry="12.5" style="stroke:#181818;stroke-width:1.5;" width="34" x="294.6963" y="279.2422"/><text fill="#000000" font-family="sans-serif" font-size="14" lengthAdjust="spacing" textLength="14" x="304.6963" y="303.7754">&#19969;</text><rect fill="#F1F1F1" height="37.6094" rx="12.5" ry="12.5" style="stroke:#181818;stroke-width:1.5;" width="62" x="378.6963" y="279.2422"/><text fill="#000000" font-family="sans-serif" font-size="14" lengthAdjust="spacing" textLength="42" x="388.6963" y="303.7754">&#19993;&#27515;&#20129;</text><rect fill="#F1F1F1" height="37.6094" rx="12.5" ry="12.5" style="stroke:#181818;stroke-width:1.5;" width="62" x="490.6963" y="250.4375"/><text fill="#000000" font-family="sans-serif" font-size="14" lengthAdjust="spacing" textLength="42" x="500.6963" y="274.9707">&#26377;&#36807;&#22833;</text><rect fill="#F1F1F1" height="37.6094" rx="12.5" ry="12.5" style="stroke:#FF6347;stroke-width:1.5;" width="93.8896" x="602.6963" y="250.4375"/><text fill="#000000" font-family="sans-serif" font-size="14" lengthAdjust="spacing" textLength="70" x="612.6963" y="274.9707">&#20132;&#36890;&#32903;&#20107;&#32618;</text><path d="M552.6963,269.2422 L562.6963,269.2422 C577.6963,269.2422 577.6963,269.2422 592.6963,269.2422 L602.6963,269.2422 " fill="none" style="stroke:#181818;stroke-width:1;"/><path d="M440.6963,298.0469 L450.6963,298.0469 C465.6963,298.0469 465.6963,269.2422 480.6963,269.2422 L490.6963,269.2422 " fill="none" style="stroke:#181818;stroke-width:1;"/><rect fill="#F1F1F1" height="37.6094" rx="12.5" ry="12.5" style="stroke:#181818;stroke-width:1.5;" width="62" x="490.6963" y="308.0469"/><text fill="#000000" font-family="sans-serif" font-size="14" lengthAdjust="spacing" textLength="42" x="500.6963" y="332.5801">&#26080;&#36807;&#22833;</text><rect fill="#F1F1F1" height="37.6094" rx="12.5" ry="12.5" style="stroke:#181818;stroke-width:1.5;" width="76" x="602.6963" y="308.0469"/><text fill="#000000" font-family="sans-serif" font-size="14" lengthAdjust="spacing" textLength="56" x="612.6963" y="332.5801">&#24847;&#22806;&#20107;&#20214;</text><path d="M552.6963,326.8516 L562.6963,326.8516 C577.6963,326.8516 577.6963,326.8516 592.6963,326.8516 L602.6963,326.8516 " fill="none" style="stroke:#181818;stroke-width:1;"/><path d="M440.6963,298.0469 L450.6963,298.0469 C465.6963,298.0469 465.6963,326.8516 480.6963,326.8516 L490.6963,326.8516 " fill="none" style="stroke:#181818;stroke-width:1;"/><path d="M328.6963,298.0469 L338.6963,298.0469 C353.6963,298.0469 353.6963,298.0469 368.6963,298.0469 L378.6963,298.0469 " fill="none" style="stroke:#181818;stroke-width:1;"/><path d="M244.6963,528.4844 L254.6963,528.4844 C269.6963,528.4844 269.6963,298.0469 284.6963,298.0469 L294.6963,298.0469 " fill="none" style="stroke:#181818;stroke-width:1;"/><rect fill="#F1F1F1" height="37.6094" rx="12.5" ry="12.5" style="stroke:#181818;stroke-width:1.5;" width="34" x="294.6963" y="567.2891"/><text fill="#000000" font-family="sans-serif" font-size="14" lengthAdjust="spacing" textLength="14" x="304.6963" y="591.8223">&#30002;</text><rect fill="#F1F1F1" height="37.6094" rx="12.5" ry="12.5" style="stroke:#181818;stroke-width:1.5;" width="62" x="378.6963" y="365.6563"/><text fill="#000000" font-family="sans-serif" font-size="14" lengthAdjust="spacing" textLength="42" x="388.6963" y="390.1895">&#20057;&#27515;&#20129;</text><rect fill="#F1F1F1" height="37.6094" rx="12.5" ry="12.5" style="stroke:#181818;stroke-width:1.5;" width="76" x="490.6963" y="365.6563"/><text fill="#000000" font-family="sans-serif" font-size="14" lengthAdjust="spacing" textLength="56" x="500.6963" y="390.1895">&#32903;&#20107;&#34892;&#20026;</text><rect fill="#F1F1F1" height="37.6094" rx="12.5" ry="12.5" style="stroke:#FF6347;stroke-width:1.5;" width="93.8896" x="616.6963" y="365.6563"/><text fill="#000000" font-family="sans-serif" font-size="14" lengthAdjust="spacing" textLength="70" x="626.6963" y="390.1895">&#20132;&#36890;&#32903;&#20107;&#32618;</text><path d="M566.6963,384.4609 L576.6963,384.4609 C591.6963,384.4609 591.6963,384.4609 606.6963,384.4609 L616.6963,384.4609 " fill="none" style="stroke:#181818;stroke-width:1;"/><path d="M440.6963,384.4609 L450.6963,384.4609 C465.6963,384.4609 465.6963,384.4609 480.6963,384.4609 L490.6963,384.4609 " fill="none" style="stroke:#181818;stroke-width:1;"/><path d="M328.6963,586.0938 L338.6963,586.0938 C353.6963,586.0938 353.6963,384.4609 368.6963,384.4609 L378.6963,384.4609 " fill="none" style="stroke:#181818;stroke-width:1;"/><rect fill="#F1F1F1" height="37.6094" rx="12.5" ry="12.5" style="stroke:#181818;stroke-width:1.5;" width="62" x="378.6963" y="596.0938"/><text fill="#000000" font-family="sans-serif" font-size="14" lengthAdjust="spacing" textLength="42" x="388.6963" y="620.627">&#19993;&#27515;&#20129;</text><rect fill="#F1F1F1" height="37.6094" rx="12.5" ry="12.5" style="stroke:#181818;stroke-width:1.5;" width="76" x="490.6963" y="423.2656"/><text fill="#000000" font-family="sans-serif" font-size="14" lengthAdjust="spacing" textLength="56" x="500.6963" y="447.7988">&#20171;&#20837;&#22240;&#32032;</text><rect fill="#F1F1F1" height="37.6094" rx="12.5" ry="12.5" style="stroke:#181818;stroke-width:1.5;" width="48" x="616.6963" y="423.2656"/><text fill="#000000" font-family="sans-serif" font-size="14" lengthAdjust="spacing" textLength="28" x="626.6963" y="447.7988">&#27491;&#24120;</text><rect fill="#F1F1F1" height="37.6094" rx="12.5" ry="12.5" style="stroke:#181818;stroke-width:1.5;" width="90" x="714.6963" y="423.2656"/><text fill="#000000" font-family="sans-serif" font-size="14" lengthAdjust="spacing" textLength="70" x="724.6963" y="447.7988">&#26377;&#22240;&#26524;&#20851;&#31995;</text><path d="M664.6963,442.0703 L674.6963,442.0703 C689.6963,442.0703 689.6963,442.0703 704.6963,442.0703 L714.6963,442.0703 " fill="none" style="stroke:#181818;stroke-width:1;"/><path d="M566.6963,442.0703 L576.6963,442.0703 C591.6963,442.0703 591.6963,442.0703 606.6963,442.0703 L616.6963,442.0703 " fill="none" style="stroke:#181818;stroke-width:1;"/><path d="M440.6963,614.8984 L450.6963,614.8984 C465.6963,614.8984 465.6963,442.0703 480.6963,442.0703 L490.6963,442.0703 " fill="none" style="stroke:#181818;stroke-width:1;"/><rect fill="#F1F1F1" height="37.6094" rx="12.5" ry="12.5" style="stroke:#181818;stroke-width:1.5;" width="76" x="490.6963" y="538.4844"/><text fill="#000000" font-family="sans-serif" font-size="14" lengthAdjust="spacing" textLength="56" x="500.6963" y="563.0176">&#19977;&#22240;&#19968;&#26524;</text><rect fill="#F1F1F1" height="37.6094" rx="12.5" ry="12.5" style="stroke:#181818;stroke-width:1.5;" width="48" x="616.6963" y="509.6797"/><text fill="#000000" font-family="sans-serif" font-size="14" lengthAdjust="spacing" textLength="28" x="626.6963" y="534.2129">&#30002;&#30340;</text><rect fill="#F1F1F1" height="37.6094" rx="12.5" ry="12.5" style="stroke:#181818;stroke-width:1.5;" width="76" x="714.6963" y="480.875"/><text fill="#000000" font-family="sans-serif" font-size="14" lengthAdjust="spacing" textLength="56" x="724.6963" y="505.4082">&#32903;&#20107;&#34892;&#20026;</text><path d="M664.6963,528.4844 L674.6963,528.4844 C689.6963,528.4844 689.6963,499.6797 704.6963,499.6797 L714.6963,499.6797 " fill="none" style="stroke:#181818;stroke-width:1;"/><rect fill="#F1F1F1" height="37.6094" rx="12.5" ry="12.5" style="stroke:#181818;stroke-width:1.5;" width="160" x="714.6963" y="538.4844"/><text fill="#000000" font-family="sans-serif" font-size="14" lengthAdjust="spacing" textLength="140" x="724.6963" y="563.0176">&#19981;&#20316;&#20026;&#65288;&#36867;&#36920;&#19981;&#25937;&#20154;&#65289;</text><path d="M664.6963,528.4844 L674.6963,528.4844 C689.6963,528.4844 689.6963,557.2891 704.6963,557.2891 L714.6963,557.2891 " fill="none" style="stroke:#181818;stroke-width:1;"/><path d="M566.6963,557.2891 L576.6963,557.2891 C591.6963,557.2891 591.6963,528.4844 606.6963,528.4844 L616.6963,528.4844 " fill="none" style="stroke:#181818;stroke-width:1;"/><rect fill="#F1F1F1" height="37.6094" rx="12.5" ry="12.5" style="stroke:#181818;stroke-width:1.5;" width="132" x="616.6963" y="596.0938"/><text fill="#000000" font-family="sans-serif" font-size="14" lengthAdjust="spacing" textLength="112" x="626.6963" y="620.627">&#19969;&#39550;&#36710;&#19981;&#24910;&#21387;&#21040;&#19993;</text><path d="M566.6963,557.2891 L576.6963,557.2891 C591.6963,557.2891 591.6963,614.8984 606.6963,614.8984 L616.6963,614.8984 " fill="none" style="stroke:#181818;stroke-width:1;"/><path d="M440.6963,614.8984 L450.6963,614.8984 C465.6963,614.8984 465.6963,557.2891 480.6963,557.2891 L490.6963,557.2891 " fill="none" style="stroke:#181818;stroke-width:1;"/><rect fill="#F1F1F1" height="37.6094" rx="12.5" ry="12.5" style="stroke:#181818;stroke-width:1.5;" width="76" x="490.6963" y="682.5078"/><text fill="#000000" font-family="sans-serif" font-size="14" lengthAdjust="spacing" textLength="56" x="500.6963" y="707.041">&#32618;&#25968;&#38382;&#39064;</text><rect fill="#F1F1F1" height="37.6094" rx="12.5" ry="12.5" style="stroke:#181818;stroke-width:1.5;" width="342" x="616.6963" y="653.7031"/><text fill="#000000" font-family="sans-serif" font-size="14" lengthAdjust="spacing" textLength="322" x="626.6963" y="678.2363">&#30002;&#26377;&#20004;&#20010;&#34892;&#20026;&#65292;&#20294;&#21482;&#26377;&#19968;&#20010;&#27515;&#20129;&#32467;&#26524;&#65292;&#21482;&#33021;&#22788;&#32602;&#19968;&#27425;</text><path d="M566.6963,701.3125 L576.6963,701.3125 C591.6963,701.3125 591.6963,672.5078 606.6963,672.5078 L616.6963,672.5078 " fill="none" style="stroke:#181818;stroke-width:1;"/><rect fill="#F1F1F1" height="37.6094" rx="12.5" ry="12.5" style="stroke:#181818;stroke-width:1.5;" width="314" x="616.6963" y="711.3125"/><text fill="#000000" font-family="sans-serif" font-size="14" lengthAdjust="spacing" textLength="294" x="626.6963" y="735.8457">&#22914;&#26524;&#22788;&#32602;&#20004;&#27425;&#30340;&#35805;&#65292;&#23601;&#36829;&#21453;&#20102;&#31105;&#27490;&#37325;&#22797;&#22788;&#32602;&#21407;&#21017;</text><path d="M566.6963,701.3125 L576.6963,701.3125 C591.6963,701.3125 591.6963,730.1172 606.6963,730.1172 L616.6963,730.1172 " fill="none" style="stroke:#181818;stroke-width:1;"/><path d="M440.6963,614.8984 L450.6963,614.8984 C465.6963,614.8984 465.6963,701.3125 480.6963,701.3125 L490.6963,701.3125 " fill="none" style="stroke:#181818;stroke-width:1;"/><rect fill="#F1F1F1" height="37.6094" rx="12.5" ry="12.5" style="stroke:#181818;stroke-width:1.5;" width="48" x="490.6963" y="768.9219"/><text fill="#000000" font-family="sans-serif" font-size="14" lengthAdjust="spacing" textLength="28" x="500.6963" y="793.4551">&#23450;&#32618;</text><rect fill="#F1F1F1" height="37.6094" rx="12.5" ry="12.5" style="stroke:#FF6347;stroke-width:1.5;" width="317.8896" x="588.6963" y="768.9219"/><text fill="#000000" font-family="sans-serif" font-size="14" lengthAdjust="spacing" textLength="294" x="598.6963" y="793.4551">&#12302;&#20132;&#36890;&#32903;&#20107;&#32618;&#12303;&#30340;&#22522;&#30784;&#19978;&#12302;&#22240;&#36867;&#36920;&#32780;&#33268;&#20154;&#27515;&#20129;&#12303;</text><path d="M538.6963,787.7266 L548.6963,787.7266 C563.6963,787.7266 563.6963,787.7266 578.6963,787.7266 L588.6963,787.7266 " fill="none" style="stroke:#181818;stroke-width:1;"/><path d="M440.6963,614.8984 L450.6963,614.8984 C465.6963,614.8984 465.6963,787.7266 480.6963,787.7266 L490.6963,787.7266 " fill="none" style="stroke:#181818;stroke-width:1;"/><path d="M328.6963,586.0938 L338.6963,586.0938 C353.6963,586.0938 353.6963,614.8984 368.6963,614.8984 L378.6963,614.8984 " fill="none" style="stroke:#181818;stroke-width:1;"/><path d="M244.6963,528.4844 L254.6963,528.4844 C269.6963,528.4844 269.6963,586.0938 284.6963,586.0938 L294.6963,586.0938 " fill="none" style="stroke:#181818;stroke-width:1;"/><path d="M146.6963,413.2656 L156.6963,413.2656 C171.6963,413.2656 171.6963,528.4844 186.6963,528.4844 L196.6963,528.4844 " fill="none" style="stroke:#181818;stroke-width:1;"/><!--SRC=[xLXRJnj757xVNp5LNu0ASob22KA8u83Q24Ue9daVhoVsXDqTQtVMaLjLCWdNSkijJKC9WTH5AcfIqaILQt3pOxBhonD_eMTsRLWRhzT4wXi8MUjplldEVGxBkC6npbMgnLMSagIFg2OhPfoWKAWFVWsUKKXVIi4QDrMbLy1w0TVho4CKP9BKWwn2hfhThZnSjWfhfoShCuFNhv-Uh4e8VdfGPN_ToXVAnp-KTXSSKKtie5qb-WHP-Gshk0FFS1wUIu-_imhml2fKnslsuc_sBtlbjtjd12v9wUMnLTXtk7VgvWxc0MUlB9Lsl_MOA__uLzDPhmCDgXhrzxk2_P-dfoVhy6oTvApyqoOAhzFLxADgDkzrlGMfbP-l_lvlfNWWS8kRzkQQlN84l603Fjref0Quz844FUX22bgnDTlqnB-pMdctRETUNz3LpdfgNYuUej5HMQSg6HjhnVLahorNQM7Bplq4HDRntsrh1kNmTRXjFI_ZS_ky-7QZjoj_jVFvbigpt081zAoz-ARyvhXbemY4bS_M6_iY1B9JtbveOoKm8H_KnEtxi4KeaEZIuwFgarVL5p_xXm8fiV8mOeUklwAVYqlsrg4ZpuBSE-gW1LNbKT7EBPIBso9DV-pxSDi73qMYQy0S025hbJ-V2OwZrvLtp-oj3QkmL3wOBxryKLtUi7CRBjZUV6wlj0h8VhKDCVcOUv_TREgozzaji6W_BvJt8Ovl002LTHDToQvNbjz2ejtW0EbfIMcSm9rSlvV76w_fKUS27fDgWfiK9tIieg_0gr1CCOdpXD04bkSIEZErU9WfJ4SAJIIvq8FsQu6DOtrE9t4VU4rR1oTqGhHsp0x0Wyu4W3DrBDEnbl1psbNMeIbJJob-K5TPX_e7vWbAPuOVsyTJKnCJuN0TcI6AmXxuO5sb0vL2AgRQR9AeTU8ffl4e_PAWJ_ibeITgAeaDQWJdqelkzu4RSncdf5xiOFjSUg4J89AJqBeTEKCJ6jD91tL5Q9fgf5b-Jj6XsRPKWapJc4mqxfSRpIcAMm9N55C0qyGAm-FwvWnVZUjSpPcAENETrpXOeqp3IlYos1cTfB2EXUGonsx4cCw3sgvJBiwXxZneqZfa2pCLnetxjKFjf1-TA9z64b1H8FKcizsj5LJ9E24fxq0q6fY4MpIcK2FfV-LvpZTQUv2al3atFcPkCnvioObApc2jWwXa72Vyp1YMPHhtx_c6gpY8-HwCek6PR_WkamY-Jyo0AMSAkA2pkAS30sQiViAnas86vJHDRiYUSRXmdME5T1h8UGXG2nn8hLBOeEBkxwIdQcjGa1jcx3wH1RrVTd0QzZRHE-HDKmOJv52p86QHzuxJVNxJDmvk-rbjwEN07IB1nsXVxK-Hg_V0g_V0g_V0g_V0g_V0__CzS4RyA-vEP1gbYMw8zJOG6kmV70fTwufYZcwpD1eOHlq38qD38qF3A1oTHKBTBNL5Ffz51ZDXkwCux3wTnaon4BgbMpYDqHSch0ULZ23nhMisqesYatKXcjJIL6UQ2Yj1kdKtueBGPun7KumxuE6XtWdAKPJeu1Qw6v5kadlOL3WSbLcSQeaHT6TsglUQD0shmyG9C0JBEWmxXUiPq4N_0m00]--></g></svg>