<svg xmlns="http://www.w3.org/2000/svg" xmlns:xlink="http://www.w3.org/1999/xlink" contentStyleType="text/css" height="1074px" preserveAspectRatio="none" style="width:963px;height:1074px;background:#FFFFFF;" version="1.1" viewBox="0 0 963 1074" width="963px" zoomAndPan="magnify"><defs/><g><rect fill="#F1F1F1" height="37.6094" rx="12.5" ry="12.5" style="stroke:#181818;stroke-width:1.5;" width="48" x="10" y="517.3906"/><text fill="#000000" font-family="sans-serif" font-size="14" lengthAdjust="spacing" textLength="28" x="20" y="541.9238">&#34892;&#20026;</text><rect fill="#F1F1F1" height="37.6094" rx="12.5" ry="12.5" style="stroke:#181818;stroke-width:1.5;" width="48" x="108" y="517.3906"/><text fill="#000000" font-family="sans-serif" font-size="14" lengthAdjust="spacing" textLength="28" x="118" y="541.9238">&#25163;&#27573;</text><rect fill="#F1F1F1" height="37.6094" rx="12.5" ry="12.5" style="stroke:#181818;stroke-width:1.5;" width="178.6963" x="206" y="164.0234"/><text fill="#000000" font-family="sans-serif" font-size="14" lengthAdjust="spacing" textLength="158.6963" x="216" y="188.5566">&#30002;&#23454;&#21147;&#25511;&#21046;&#20057;&#22899;&#65288;P224&#65289;</text><rect fill="#F1F1F1" height="37.6094" rx="12.5" ry="12.5" style="stroke:#181818;stroke-width:1.5;" width="104" x="434.6963" y="20"/><text fill="#000000" font-family="sans-serif" font-size="14" lengthAdjust="spacing" textLength="84" x="444.6963" y="44.5332">&#20165;&#26377;&#25304;&#31105;&#30446;&#30340;</text><rect fill="#F1F1F1" height="37.6094" rx="12.5" ry="12.5" style="stroke:#181818;stroke-width:1.5;" width="90" x="588.6963" y="20"/><text fill="#000000" font-family="sans-serif" font-size="14" lengthAdjust="spacing" textLength="70" x="598.6963" y="44.5332">&#38750;&#27861;&#25304;&#31105;&#32618;</text><path d="M538.6963,38.8047 L548.6963,38.8047 C563.6963,38.8047 563.6963,38.8047 578.6963,38.8047 L588.6963,38.8047 " fill="none" style="stroke:#181818;stroke-width:1;"/><path d="M384.6963,182.8281 L394.6963,182.8281 C409.6963,182.8281 409.6963,38.8047 424.6963,38.8047 L434.6963,38.8047 " fill="none" style="stroke:#181818;stroke-width:1;"/><rect fill="#F1F1F1" height="37.6094" rx="12.5" ry="12.5" style="stroke:#181818;stroke-width:1.5;" width="76" x="434.6963" y="77.6094"/><text fill="#000000" font-family="sans-serif" font-size="14" lengthAdjust="spacing" textLength="56" x="444.6963" y="102.1426">&#22904;&#28139;&#30446;&#30340;</text><rect fill="#F1F1F1" height="37.6094" rx="12.5" ry="12.5" style="stroke:#181818;stroke-width:1.5;" width="62" x="560.6963" y="77.6094"/><text fill="#000000" font-family="sans-serif" font-size="14" lengthAdjust="spacing" textLength="42" x="570.6963" y="102.1426">&#24378;&#22904;&#32618;</text><path d="M510.6963,96.4141 L520.6963,96.4141 C535.6963,96.4141 535.6963,96.4141 550.6963,96.4141 L560.6963,96.4141 " fill="none" style="stroke:#181818;stroke-width:1;"/><path d="M384.6963,182.8281 L394.6963,182.8281 C409.6963,182.8281 409.6963,96.4141 424.6963,96.4141 L434.6963,96.4141 " fill="none" style="stroke:#181818;stroke-width:1;"/><rect fill="#F1F1F1" height="37.6094" rx="12.5" ry="12.5" style="stroke:#181818;stroke-width:1.5;" width="104" x="434.6963" y="135.2188"/><text fill="#000000" font-family="sans-serif" font-size="14" lengthAdjust="spacing" textLength="84" x="444.6963" y="159.752">&#21521;&#20057;&#35201;&#38065;&#30446;&#30340;</text><rect fill="#F1F1F1" height="37.6094" rx="12.5" ry="12.5" style="stroke:#181818;stroke-width:1.5;" width="62" x="588.6963" y="135.2188"/><text fill="#000000" font-family="sans-serif" font-size="14" lengthAdjust="spacing" textLength="42" x="598.6963" y="159.752">&#25250;&#21163;&#32618;</text><path d="M538.6963,154.0234 L548.6963,154.0234 C563.6963,154.0234 563.6963,154.0234 578.6963,154.0234 L588.6963,154.0234 " fill="none" style="stroke:#181818;stroke-width:1;"/><path d="M384.6963,182.8281 L394.6963,182.8281 C409.6963,182.8281 409.6963,154.0234 424.6963,154.0234 L434.6963,154.0234 " fill="none" style="stroke:#181818;stroke-width:1;"/><rect fill="#F1F1F1" height="37.6094" rx="12.5" ry="12.5" style="stroke:#181818;stroke-width:1.5;" width="146" x="434.6963" y="192.8281"/><text fill="#000000" font-family="sans-serif" font-size="14" lengthAdjust="spacing" textLength="126" x="444.6963" y="217.3613">&#21521;&#20057;&#30340;&#23478;&#20154;&#35201;&#38065;&#30446;&#30340;</text><rect fill="#F1F1F1" height="37.6094" rx="12.5" ry="12.5" style="stroke:#181818;stroke-width:1.5;" width="62" x="630.6963" y="192.8281"/><text fill="#000000" font-family="sans-serif" font-size="14" lengthAdjust="spacing" textLength="42" x="640.6963" y="217.3613">&#32465;&#26550;&#32618;</text><path d="M580.6963,211.6328 L590.6963,211.6328 C605.6963,211.6328 605.6963,211.6328 620.6963,211.6328 L630.6963,211.6328 " fill="none" style="stroke:#181818;stroke-width:1;"/><path d="M384.6963,182.8281 L394.6963,182.8281 C409.6963,182.8281 409.6963,211.6328 424.6963,211.6328 L434.6963,211.6328 " fill="none" style="stroke:#181818;stroke-width:1;"/><rect fill="#F1F1F1" height="37.6094" rx="12.5" ry="12.5" style="stroke:#181818;stroke-width:1.5;" width="76" x="434.6963" y="250.4375"/><text fill="#000000" font-family="sans-serif" font-size="14" lengthAdjust="spacing" textLength="56" x="444.6963" y="274.9707">&#20986;&#21334;&#30446;&#30340;</text><rect fill="#F1F1F1" height="37.6094" rx="12.5" ry="12.5" style="stroke:#181818;stroke-width:1.5;" width="90" x="560.6963" y="250.4375"/><text fill="#000000" font-family="sans-serif" font-size="14" lengthAdjust="spacing" textLength="70" x="570.6963" y="274.9707">&#25296;&#21334;&#22919;&#22899;&#32618;</text><path d="M510.6963,269.2422 L520.6963,269.2422 C535.6963,269.2422 535.6963,269.2422 550.6963,269.2422 L560.6963,269.2422 " fill="none" style="stroke:#181818;stroke-width:1;"/><path d="M384.6963,182.8281 L394.6963,182.8281 C409.6963,182.8281 409.6963,269.2422 424.6963,269.2422 L434.6963,269.2422 " fill="none" style="stroke:#181818;stroke-width:1;"/><rect fill="#F1F1F1" height="37.6094" rx="12.5" ry="12.5" style="stroke:#181818;stroke-width:1.5;" width="188" x="434.6963" y="308.0469"/><text fill="#000000" font-family="sans-serif" font-size="14" lengthAdjust="spacing" textLength="168" x="444.6963" y="332.5801">&#27809;&#26377;&#20986;&#21334;&#30446;&#30340;&#65292;&#20057;&#33509;&#26159;&#20799;&#31461;</text><rect fill="#F1F1F1" height="37.6094" rx="12.5" ry="12.5" style="stroke:#181818;stroke-width:1.5;" width="90" x="672.6963" y="308.0469"/><text fill="#000000" font-family="sans-serif" font-size="14" lengthAdjust="spacing" textLength="70" x="682.6963" y="332.5801">&#25296;&#39575;&#20799;&#31461;&#32618;</text><path d="M622.6963,326.8516 L632.6963,326.8516 C647.6963,326.8516 647.6963,326.8516 662.6963,326.8516 L672.6963,326.8516 " fill="none" style="stroke:#181818;stroke-width:1;"/><path d="M384.6963,182.8281 L394.6963,182.8281 C409.6963,182.8281 409.6963,326.8516 424.6963,326.8516 L434.6963,326.8516 " fill="none" style="stroke:#181818;stroke-width:1;"/><path d="M156,536.1953 L166,536.1953 C181,536.1953 181,182.8281 196,182.8281 L206,182.8281 " fill="none" style="stroke:#181818;stroke-width:1;"/><rect fill="#F1F1F1" height="37.6094" rx="12.5" ry="12.5" style="stroke:#181818;stroke-width:1.5;" width="139.8203" x="206" y="538.4844"/><text fill="#000000" font-family="sans-serif" font-size="14" lengthAdjust="spacing" textLength="119.8203" x="216" y="563.0176">&#32961;&#36843;&#65288;P8&#65292;P208&#65289;</text><rect fill="#F1F1F1" height="37.6094" rx="12.5" ry="12.5" style="stroke:#181818;stroke-width:1.5;" width="62" x="395.8203" y="452.0703"/><text fill="#000000" font-family="sans-serif" font-size="14" lengthAdjust="spacing" textLength="42" x="405.8203" y="476.6035">&#21516;&#20041;&#35789;</text><rect fill="#F1F1F1" height="37.6094" rx="12.5" ry="12.5" style="stroke:#181818;stroke-width:1.5;" width="48" x="507.8203" y="365.6563"/><text fill="#000000" font-family="sans-serif" font-size="14" lengthAdjust="spacing" textLength="28" x="517.8203" y="390.1895">&#23041;&#32961;</text><path d="M457.8203,470.875 L467.8203,470.875 C482.8203,470.875 482.8203,384.4609 497.8203,384.4609 L507.8203,384.4609 " fill="none" style="stroke:#181818;stroke-width:1;"/><rect fill="#F1F1F1" height="37.6094" rx="12.5" ry="12.5" style="stroke:#181818;stroke-width:1.5;" width="48" x="507.8203" y="423.2656"/><text fill="#000000" font-family="sans-serif" font-size="14" lengthAdjust="spacing" textLength="28" x="517.8203" y="447.7988">&#32961;&#36843;</text><path d="M457.8203,470.875 L467.8203,470.875 C482.8203,470.875 482.8203,442.0703 497.8203,442.0703 L507.8203,442.0703 " fill="none" style="stroke:#181818;stroke-width:1;"/><rect fill="#F1F1F1" height="37.6094" rx="12.5" ry="12.5" style="stroke:#181818;stroke-width:1.5;" width="48" x="507.8203" y="480.875"/><text fill="#000000" font-family="sans-serif" font-size="14" lengthAdjust="spacing" textLength="28" x="517.8203" y="505.4082">&#24656;&#21523;</text><path d="M457.8203,470.875 L467.8203,470.875 C482.8203,470.875 482.8203,499.6797 497.8203,499.6797 L507.8203,499.6797 " fill="none" style="stroke:#181818;stroke-width:1;"/><rect fill="#F1F1F1" height="37.6094" rx="12.5" ry="12.5" style="stroke:#181818;stroke-width:1.5;" width="48" x="507.8203" y="538.4844"/><text fill="#000000" font-family="sans-serif" font-size="14" lengthAdjust="spacing" textLength="28" x="517.8203" y="563.0176">&#25970;&#35784;</text><path d="M457.8203,470.875 L467.8203,470.875 C482.8203,470.875 482.8203,557.2891 497.8203,557.2891 L507.8203,557.2891 " fill="none" style="stroke:#181818;stroke-width:1;"/><path d="M345.8203,557.2891 L355.8203,557.2891 C370.8203,557.2891 370.8203,470.875 385.8203,470.875 L395.8203,470.875 " fill="none" style="stroke:#181818;stroke-width:1;"/><rect fill="#F1F1F1" height="37.6094" rx="12.5" ry="12.5" style="stroke:#181818;stroke-width:1.5;" width="48" x="395.8203" y="624.8984"/><text fill="#000000" font-family="sans-serif" font-size="14" lengthAdjust="spacing" textLength="28" x="405.8203" y="649.4316">&#20998;&#31867;</text><rect fill="#F1F1F1" height="37.6094" rx="12.5" ry="12.5" style="stroke:#181818;stroke-width:1.5;" width="76" x="493.8203" y="596.0938"/><text fill="#000000" font-family="sans-serif" font-size="14" lengthAdjust="spacing" textLength="56" x="503.8203" y="620.627">&#26292;&#21147;&#32961;&#36843;</text><path d="M443.8203,643.7031 L453.8203,643.7031 C468.8203,643.7031 468.8203,614.8984 483.8203,614.8984 L493.8203,614.8984 " fill="none" style="stroke:#181818;stroke-width:1;"/><rect fill="#F1F1F1" height="37.6094" rx="12.5" ry="12.5" style="stroke:#181818;stroke-width:1.5;" width="90" x="493.8203" y="653.7031"/><text fill="#000000" font-family="sans-serif" font-size="14" lengthAdjust="spacing" textLength="70" x="503.8203" y="678.2363">&#38750;&#26292;&#21147;&#32961;&#36843;</text><rect fill="#F1F1F1" height="37.6094" rx="12.5" ry="12.5" style="stroke:#181818;stroke-width:1.5;" width="132" x="633.8203" y="653.7031"/><text fill="#000000" font-family="sans-serif" font-size="14" lengthAdjust="spacing" textLength="112" x="643.8203" y="678.2363">&#20363;&#22914;&#65292;&#25581;&#21457;&#38544;&#31169;&#29031;</text><path d="M583.8203,672.5078 L593.8203,672.5078 C608.8203,672.5078 608.8203,672.5078 623.8203,672.5078 L633.8203,672.5078 " fill="none" style="stroke:#181818;stroke-width:1;"/><path d="M443.8203,643.7031 L453.8203,643.7031 C468.8203,643.7031 468.8203,672.5078 483.8203,672.5078 L493.8203,672.5078 " fill="none" style="stroke:#181818;stroke-width:1;"/><path d="M345.8203,557.2891 L355.8203,557.2891 C370.8203,557.2891 370.8203,643.7031 385.8203,643.7031 L395.8203,643.7031 " fill="none" style="stroke:#181818;stroke-width:1;"/><rect fill="#F1F1F1" height="37.6094" rx="12.5" ry="12.5" style="stroke:#181818;stroke-width:1.5;" width="48" x="395.8203" y="711.3125"/><text fill="#000000" font-family="sans-serif" font-size="14" lengthAdjust="spacing" textLength="28" x="405.8203" y="735.8457">&#31034;&#20363;</text><rect fill="#F1F1F1" height="37.6094" rx="12.5" ry="12.5" style="stroke:#181818;stroke-width:1.5;" width="457.9102" x="493.8203" y="711.3125"/><text fill="#000000" font-family="sans-serif" font-size="14" lengthAdjust="spacing" textLength="437.9102" x="503.8203" y="735.8457">&#24378;&#22904;&#32618;&#20013;&#30340;&#12302;&#32961;&#36843;&#12303; = &#25250;&#21163;&#32618;&#20013;&#30340;&#12302;&#32961;&#36843;&#12303; + &#25970;&#35784;&#21202;&#32034;&#32618;&#20013;&#30340;&#12302;&#32961;&#36843;&#12303;</text><path d="M443.8203,730.1172 L453.8203,730.1172 C468.8203,730.1172 468.8203,730.1172 483.8203,730.1172 L493.8203,730.1172 " fill="none" style="stroke:#181818;stroke-width:1;"/><path d="M345.8203,557.2891 L355.8203,557.2891 C370.8203,557.2891 370.8203,730.1172 385.8203,730.1172 L395.8203,730.1172 " fill="none" style="stroke:#181818;stroke-width:1;"/><path d="M156,536.1953 L166,536.1953 C181,536.1953 181,557.2891 196,557.2891 L206,557.2891 " fill="none" style="stroke:#181818;stroke-width:1;"/><rect fill="#F1F1F1" height="37.6094" rx="12.5" ry="12.5" style="stroke:#181818;stroke-width:1.5;" width="48" x="206" y="891.8516"/><text fill="#000000" font-family="sans-serif" font-size="14" lengthAdjust="spacing" textLength="28" x="216" y="916.3848">&#26127;&#37257;</text><rect fill="#F1F1F1" height="37.6094" rx="12.5" ry="12.5" style="stroke:#181818;stroke-width:1.5;" width="90" x="304" y="797.7266"/><text fill="#000000" font-family="sans-serif" font-size="14" lengthAdjust="spacing" textLength="70" x="314" y="822.2598">&#21457;&#29983;&#24615;&#34892;&#20026;</text><rect fill="#F1F1F1" height="42.75" rx="12.5" ry="12.5" style="stroke:#181818;stroke-width:1.5;" width="86.8896" x="444" y="795.1563"/><text fill="#000000" font-family="sans-serif" font-size="14" lengthAdjust="spacing" textLength="42" x="454" y="824.8301">&#24378;&#22904;&#32618;</text><path d="M519.9907,805.9583 C519.1793,805.4322 518.0961,805.6632 517.5705,806.474 L507.7646,821.5888 L502.9825,817.1671 C502.2726,816.5108 501.166,816.554 500.5097,817.2639 C499.8535,817.9733 499.8966,819.081 500.6066,819.7367 L506.8856,825.542 C507.0658,825.6972 507.0658,825.6972 507.1492,825.7514 C507.4432,825.9428 507.7734,826.0338 508.1001,826.0338 C508.6729,826.0338 509.2346,825.7526 509.5701,825.2358 L520.5064,808.3786 C521.0326,807.5678 520.8016,806.4839 519.9907,805.9583 " fill="#FE0000" style="stroke:;stroke-width:0;stroke-dasharray:;"/><rect fill="#F1F1F1" height="37.6094" rx="12.5" ry="12.5" style="stroke:#181818;stroke-width:1.5;" width="76" x="580.8896" y="768.9219"/><text fill="#000000" font-family="sans-serif" font-size="14" lengthAdjust="spacing" textLength="56" x="590.8896" y="793.4551">&#20182;&#20154;&#26127;&#37257;</text><path d="M530.8896,816.5313 L540.8896,816.5313 C555.8896,816.5313 555.8896,787.7266 570.8896,787.7266 L580.8896,787.7266 " fill="none" style="stroke:#181818;stroke-width:1;"/><rect fill="#F1F1F1" height="37.6094" rx="12.5" ry="12.5" style="stroke:#181818;stroke-width:1.5;" width="76" x="580.8896" y="826.5313"/><text fill="#000000" font-family="sans-serif" font-size="14" lengthAdjust="spacing" textLength="56" x="590.8896" y="851.0645">&#33258;&#34892;&#26127;&#37257;</text><path d="M530.8896,816.5313 L540.8896,816.5313 C555.8896,816.5313 555.8896,845.3359 570.8896,845.3359 L580.8896,845.3359 " fill="none" style="stroke:#181818;stroke-width:1;"/><path d="M394,816.5313 L404,816.5313 C419,816.5313 419,816.5313 434,816.5313 L444,816.5313 " fill="none" style="stroke:#181818;stroke-width:1;"/><path d="M254,910.6563 L264,910.6563 C279,910.6563 279,816.5313 294,816.5313 L304,816.5313 " fill="none" style="stroke:#181818;stroke-width:1;"/><rect fill="#F1F1F1" height="37.6094" rx="12.5" ry="12.5" style="stroke:#181818;stroke-width:1.5;" width="136.6963" x="304" y="949.4609"/><text fill="#000000" font-family="sans-serif" font-size="14" lengthAdjust="spacing" textLength="116.6963" x="314" y="973.9941">&#36130;&#29289;&#34987;&#30423;&#65288;P252&#65289;</text><rect fill="#F1F1F1" height="37.6094" rx="12.5" ry="12.5" style="stroke:#181818;stroke-width:1.5;" width="76" x="490.6963" y="886.7109"/><text fill="#000000" font-family="sans-serif" font-size="14" lengthAdjust="spacing" textLength="56" x="500.6963" y="911.2441">&#20182;&#20154;&#26127;&#37257;</text><rect fill="#F1F1F1" height="42.75" rx="12.5" ry="12.5" style="stroke:#181818;stroke-width:1.5;" width="86.8896" x="616.6963" y="884.1406"/><text fill="#000000" font-family="sans-serif" font-size="14" lengthAdjust="spacing" textLength="42" x="626.6963" y="913.8145">&#25250;&#21163;&#32618;</text><path d="M692.687,894.9427 C691.8756,894.4165 690.7924,894.6475 690.2668,895.4584 L680.4609,910.5731 L675.6788,906.1515 C674.9689,905.4952 673.8623,905.5384 673.206,906.2483 C672.5498,906.9576 672.5929,908.0654 673.3029,908.721 L679.5819,914.5264 C679.7621,914.6815 679.7621,914.6815 679.8455,914.7358 C680.1395,914.9271 680.4697,915.0181 680.7964,915.0181 C681.3692,915.0181 681.9309,914.737 682.2664,914.2201 L693.2027,897.363 C693.7289,896.5521 693.4979,895.4683 692.687,894.9427 " fill="#FE0000" style="stroke:;stroke-width:0;stroke-dasharray:;"/><path d="M566.6963,905.5156 L576.6963,905.5156 C591.6963,905.5156 591.6963,905.5156 606.6963,905.5156 L616.6963,905.5156 " fill="none" style="stroke:#181818;stroke-width:1;"/><path d="M440.6963,968.2656 L450.6963,968.2656 C465.6963,968.2656 465.6963,905.5156 480.6963,905.5156 L490.6963,905.5156 " fill="none" style="stroke:#181818;stroke-width:1;"/><rect fill="#F1F1F1" height="37.6094" rx="12.5" ry="12.5" style="stroke:#181818;stroke-width:1.5;" width="76" x="490.6963" y="980.8359"/><text fill="#000000" font-family="sans-serif" font-size="14" lengthAdjust="spacing" textLength="56" x="500.6963" y="1005.3691">&#33258;&#34892;&#26127;&#37257;</text><rect fill="#F1F1F1" height="42.75" rx="12.5" ry="12.5" style="stroke:#181818;stroke-width:1.5;" width="86.8896" x="616.6963" y="946.8906"/><text fill="#000000" font-family="sans-serif" font-size="14" lengthAdjust="spacing" textLength="42" x="626.6963" y="976.5645">&#25250;&#21163;&#32618;</text><path d="M685.1469,967.3918 L692.2839,960.2553 C692.8533,959.686 692.8533,958.7625 692.2839,958.1932 C691.714,957.6233 690.7912,957.6233 690.2219,958.1932 L683.0848,965.3297 L675.9483,958.1932 C675.3789,957.6233 674.4549,957.6233 673.8862,958.1932 C673.3163,958.7625 673.3163,959.686 673.8862,960.2553 L681.0227,967.3918 L673.8699,974.5452 C673.2999,975.1151 673.2999,976.038 673.8699,976.6073 C674.1545,976.892 674.5279,977.0343 674.9012,977.0343 C675.2745,977.0343 675.6479,976.892 675.9325,976.6073 L683.0854,969.4539 L690.2219,976.5904 C690.5065,976.875 690.8799,977.0174 691.2532,977.0174 C691.6265,977.0174 691.9993,976.875 692.2845,976.5904 C692.8539,976.0205 692.8539,975.0976 692.2845,974.5283 L685.1469,967.3918 " fill="#FE0000" style="stroke:;stroke-width:0;stroke-dasharray:;"/><path d="M566.6963,999.6406 L576.6963,999.6406 C591.6963,999.6406 591.6963,968.2656 606.6963,968.2656 L616.6963,968.2656 " fill="none" style="stroke:#181818;stroke-width:1;"/><rect fill="#90EE90" height="42.75" rx="12.5" ry="12.5" style="stroke:#181818;stroke-width:1.5;" width="90.7793" x="616.6963" y="1009.6406"/><text fill="#000000" font-family="sans-serif" font-size="14" lengthAdjust="spacing" textLength="42" x="626.6963" y="1039.3145">&#30423;&#31363;&#32618;</text><path d="M692.687,1020.4427 C691.8756,1019.9165 690.7924,1020.1475 690.2668,1020.9584 L680.4609,1036.0731 L675.6788,1031.6515 C674.9689,1030.9952 673.8623,1031.0384 673.206,1031.7483 C672.5498,1032.4576 672.5929,1033.5654 673.3029,1034.221 L679.5819,1040.0264 C679.7621,1040.1815 679.7621,1040.1815 679.8455,1040.2358 C680.1395,1040.4271 680.4697,1040.5181 680.7964,1040.5181 C681.3692,1040.5181 681.9309,1040.237 682.2664,1039.7201 L693.2027,1022.863 C693.7289,1022.0521 693.4979,1020.9683 692.687,1020.4427 " fill="#FE0000" style="stroke:;stroke-width:0;stroke-dasharray:;"/><text fill="#000000" font-family="sans-serif" font-size="14" lengthAdjust="spacing" textLength="3.8896" x="693.5859" y="1039.3145">&#160;</text><path d="M566.6963,999.6406 L576.6963,999.6406 C591.6963,999.6406 591.6963,1031.0156 606.6963,1031.0156 L616.6963,1031.0156 " fill="none" style="stroke:#181818;stroke-width:1;"/><path d="M440.6963,968.2656 L450.6963,968.2656 C465.6963,968.2656 465.6963,999.6406 480.6963,999.6406 L490.6963,999.6406 " fill="none" style="stroke:#181818;stroke-width:1;"/><path d="M254,910.6563 L264,910.6563 C279,910.6563 279,968.2656 294,968.2656 L304,968.2656 " fill="none" style="stroke:#181818;stroke-width:1;"/><path d="M156,536.1953 L166,536.1953 C181,536.1953 181,910.6563 196,910.6563 L206,910.6563 " fill="none" style="stroke:#181818;stroke-width:1;"/><path d="M58,536.1953 L68,536.1953 C83,536.1953 83,536.1953 98,536.1953 L108,536.1953 " fill="none" style="stroke:#181818;stroke-width:1;"/><!--SRC=[xLXRJnj757xVNp5LNY0L1YoAa4KHmG6r4OvGJV8QZTSJUyFkZhKxwyIgAk7cmiL9C6akbBHKGGLQK40XAQM6DZycxAvvuY_qxDg6jTdnRjv12E4vt_dE_Gp3iCwmnXH9JIiu9mXVIAee6sc28f5k-DPPGIRTEHchp53aBWVM1RWkzpmYmPaWN4RLDu-FzYi2Wg_Bo9ehMTj_kHzg1_RpNNDxnPn_RJtTC6VtZlxvsLnxVt8uEn6DzfqSpfqYQ-YZWuVMBtDMQSbUBzglj-tb1qs06kZurnNh_OiwwD_D5WfpRT_wUukhR1vM0E6ZLbu4twhhnUDdxxZArlogER_5KmOTStllg589OB4F5gsLFH-McOhvv2NVUAaCOdDz1X9uNjdQVGEPyrAS73vs8YgjMKixveEFzjQQF-dnvgkQs4iAPRrVh7xSSYer04mJqPw1y-Koos1Yhhhpn2_HVnI1maTG8_RpfLWsop_v2LxiLdTcMstFFhBV7VYXbpz0kt6jEDtJ3b5lnFzAvlgF4BYryDPSM3nUBjiRHVlXHeiJzkyLGBPhiwFzjr2BJzDFQ-O-JI-Why_wo4VwPJrSi_JC_h3gY_5KoLfQE7vqhYmBY_Rptwpf3SzeSjn3WvSqaevb2SuNRebP8axTKh0s5HlYvUNW9JIuZrLFVMSsmQwlOrK8QExFwYgCvojt1tmLRMsgq6PESnW-X3Q-yNdlSNC1GTYRzzjvW0O7YPBBObtIXuO4OPZ0dctisk7crJleBjKXeNvmLS8P3IleUx0TISa6SNz3Q0IBKncD6cewJcMg8LdAP9aZ1-aF3ZODXi4P3hmkRO0p6Y5gEsONu44N0i251fPgMCtmdAu96z2SeULa7hGcR43vWNc2qgZEOxiqDZOo4eyta0KYo_Gk1riJkb0XqgXYSAwyw1uEN9ygk2NpOgFjS-M5Zi2Hc8K63EMCb56fHaBK3Q5nIIMjvsSK8SssfNB8L9MAH6MytAXkqX4Qeogh7QLamBImmd3KVLCPa4bKnN9SavH6e6T8HXNCg2zsGYCvh67dv7FKhgIeneAw9YmNOr1M5ZGe8TdYL85fORngrpLvT4vrL9A1WW6fDvdjbavGeTA4vBpztcnW59PWIfRqB7zZUVIRhTtDIgmrDnmproaBjkH69HQm6Y8g4QS9EpM6HL5AyrkwQPC6CT-6ITCzumkVHPB0TuWHCCHK1XSqclPqOC08DJHSEpcgIqpAaokYPnpERMCiax21d8K0jS21r8e45w2pkiFqLFqMSyXr8tM7Y0uzBpiu3zSkqKBovYKA4-HIqo1c9- -Xqtsso9i7j_siDlLou1KXm8_1xlfV4XTFiukdsSNJxE9fTl4q-zodsOJp7wyRYN6K9vhkN5czaMXFj2yoq97435sdUTJRZtfwOtrziRv-54zE8aVSANGalfr4EZNWnaPfkCyqAMKuIxvJk8Rp67rdmCfNI0mvdpec4vqeETeuHADgNjAegi2Q5wxTJDH0w1lAaZdAN71_NzU8n52IQE0MkfaGhfBRs90Pg8eqBQcP6BenETOr88p3TM3W31Y22pWEzmJJ2Y1B_Wy0]--></g></svg>