<svg xmlns="http://www.w3.org/2000/svg" xmlns:xlink="http://www.w3.org/1999/xlink" contentStyleType="text/css" height="751px" preserveAspectRatio="none" style="width:802px;height:751px;background:#FFFFFF;" version="1.1" viewBox="0 0 802 751" width="802px" zoomAndPan="magnify"><title>&#21152;&#37325;&#29359;-&#32467;&#26524;&#21152;&#37325;&#29359;&#65288;&#26131;&#32771;&#65289;</title><defs/><g><text fill="#000000" font-family="sans-serif" font-size="14" font-weight="bold" lengthAdjust="spacing" textLength="177.9121" x="310.875" y="34.5332">&#21152;&#37325;&#29359;-&#32467;&#26524;&#21152;&#37325;&#29359;&#65288;&#26131;&#32771;&#65289;</text><rect fill="#F1F1F1" height="37.6094" rx="12.5" ry="12.5" style="stroke:#181818;stroke-width:1.5;" width="192.6621" x="10" y="375.4609"/><text fill="#000000" font-family="sans-serif" font-size="14" lengthAdjust="spacing" textLength="172.6621" x="20" y="399.9941">&#21152;&#37325;&#29359;-&#32467;&#26524;&#21152;&#37325;&#29359;&#65288;&#26131;&#32771;&#65289;</text><rect fill="#90EE90" height="37.6094" rx="12.5" ry="12.5" style="stroke:#181818;stroke-width:1.5;" width="76" x="252.6621" y="231.4375"/><text fill="#000000" font-family="sans-serif" font-size="14" lengthAdjust="spacing" textLength="56" x="262.6621" y="255.9707">&#36807;&#22833;&#24515;&#29702;</text><rect fill="#F1F1F1" height="37.6094" rx="12.5" ry="12.5" style="stroke:#181818;stroke-width:1.5;" width="76" x="378.6621" y="58.6094"/><text fill="#000000" font-family="sans-serif" font-size="14" lengthAdjust="spacing" textLength="56" x="388.6621" y="83.1426">&#25925;&#24847;&#20260;&#23475;</text><rect fill="#F1F1F1" height="37.6094" rx="12.5" ry="12.5" style="stroke:#181818;stroke-width:1.5;" width="76" x="504.6621" y="58.6094"/><text fill="#000000" font-family="sans-serif" font-size="14" lengthAdjust="spacing" textLength="56" x="514.6621" y="83.1426">&#33268;&#20154;&#27515;&#20129;</text><path d="M454.6621,77.4141 L464.6621,77.4141 C479.6621,77.4141 479.6621,77.4141 494.6621,77.4141 L504.6621,77.4141 " fill="none" style="stroke:#181818;stroke-width:1;"/><path d="M328.6621,250.2422 L338.6621,250.2422 C353.6621,250.2422 353.6621,77.4141 368.6621,77.4141 L378.6621,77.4141 " fill="none" style="stroke:#181818;stroke-width:1;"/><rect fill="#F1F1F1" height="37.6094" rx="12.5" ry="12.5" style="stroke:#181818;stroke-width:1.5;" width="90" x="378.6621" y="116.2188"/><text fill="#000000" font-family="sans-serif" font-size="14" lengthAdjust="spacing" textLength="70" x="388.6621" y="140.752">&#38750;&#27861;&#25304;&#31105;&#32618;</text><rect fill="#F1F1F1" height="37.6094" rx="12.5" ry="12.5" style="stroke:#181818;stroke-width:1.5;" width="118" x="518.6621" y="116.2188"/><text fill="#000000" font-family="sans-serif" font-size="14" lengthAdjust="spacing" textLength="98" x="528.6621" y="140.752">&#33268;&#20154;&#37325;&#20260;&#12289;&#27515;&#20129;</text><path d="M468.6621,135.0234 L478.6621,135.0234 C493.6621,135.0234 493.6621,135.0234 508.6621,135.0234 L518.6621,135.0234 " fill="none" style="stroke:#181818;stroke-width:1;"/><path d="M328.6621,250.2422 L338.6621,250.2422 C353.6621,250.2422 353.6621,135.0234 368.6621,135.0234 L378.6621,135.0234 " fill="none" style="stroke:#181818;stroke-width:1;"/><rect fill="#F1F1F1" height="37.6094" rx="12.5" ry="12.5" style="stroke:#181818;stroke-width:1.5;" width="146" x="378.6621" y="173.8281"/><text fill="#000000" font-family="sans-serif" font-size="14" lengthAdjust="spacing" textLength="126" x="388.6621" y="198.3613">&#26292;&#21147;&#24178;&#28041;&#23130;&#23035;&#33258;&#30001;&#32618;</text><rect fill="#F1F1F1" height="37.6094" rx="12.5" ry="12.5" style="stroke:#181818;stroke-width:1.5;" width="76" x="574.6621" y="173.8281"/><text fill="#000000" font-family="sans-serif" font-size="14" lengthAdjust="spacing" textLength="56" x="584.6621" y="198.3613">&#33268;&#20154;&#27515;&#20129;</text><path d="M524.6621,192.6328 L534.6621,192.6328 C549.6621,192.6328 549.6621,192.6328 564.6621,192.6328 L574.6621,192.6328 " fill="none" style="stroke:#181818;stroke-width:1;"/><path d="M328.6621,250.2422 L338.6621,250.2422 C353.6621,250.2422 353.6621,192.6328 368.6621,192.6328 L378.6621,192.6328 " fill="none" style="stroke:#181818;stroke-width:1;"/><rect fill="#F1F1F1" height="37.6094" rx="12.5" ry="12.5" style="stroke:#181818;stroke-width:1.5;" width="118" x="378.6621" y="289.0469"/><text fill="#000000" font-family="sans-serif" font-size="14" lengthAdjust="spacing" textLength="98" x="388.6621" y="313.5801">&#34384;&#24453;&#32618;&#33268;&#20154;&#27515;&#20129;</text><rect fill="#FFA500" height="37.6094" rx="12.5" ry="12.5" style="stroke:#181818;stroke-width:1.5;" width="118" x="546.6621" y="289.0469"/><text fill="#000000" font-family="sans-serif" font-size="14" lengthAdjust="spacing" textLength="98" x="556.6621" y="313.5801">&#21306;&#20998;&#65288;&#19981;&#26500;&#25104;&#65289;</text><rect fill="#F1F1F1" height="37.6094" rx="12.5" ry="12.5" style="stroke:#181818;stroke-width:1.5;" width="62" x="714.6621" y="231.4375"/><text fill="#000000" font-family="sans-serif" font-size="14" lengthAdjust="spacing" textLength="42" x="724.6621" y="255.9707">&#20398;&#36785;&#32618;</text><path d="M664.6621,307.8516 L674.6621,307.8516 C689.6621,307.8516 689.6621,250.2422 704.6621,250.2422 L714.6621,250.2422 " fill="none" style="stroke:#181818;stroke-width:1;"/><rect fill="#F1F1F1" height="37.6094" rx="12.5" ry="12.5" style="stroke:#181818;stroke-width:1.5;" width="62" x="714.6621" y="289.0469"/><text fill="#000000" font-family="sans-serif" font-size="14" lengthAdjust="spacing" textLength="42" x="724.6621" y="313.5801">&#35837;&#35876;&#32618;</text><path d="M664.6621,307.8516 L674.6621,307.8516 C689.6621,307.8516 689.6621,307.8516 704.6621,307.8516 L714.6621,307.8516 " fill="none" style="stroke:#181818;stroke-width:1;"/><rect fill="#F1F1F1" height="37.6094" rx="12.5" ry="12.5" style="stroke:#181818;stroke-width:1.5;" width="62" x="714.6621" y="346.6563"/><text fill="#000000" font-family="sans-serif" font-size="14" lengthAdjust="spacing" textLength="42" x="724.6621" y="371.1895">&#36951;&#24323;&#32618;</text><path d="M664.6621,307.8516 L674.6621,307.8516 C689.6621,307.8516 689.6621,365.4609 704.6621,365.4609 L714.6621,365.4609 " fill="none" style="stroke:#181818;stroke-width:1;"/><path d="M496.6621,307.8516 L506.6621,307.8516 C521.6621,307.8516 521.6621,307.8516 536.6621,307.8516 L546.6621,307.8516 " fill="none" style="stroke:#181818;stroke-width:1;"/><path d="M328.6621,250.2422 L338.6621,250.2422 C353.6621,250.2422 353.6621,307.8516 368.6621,307.8516 L378.6621,307.8516 " fill="none" style="stroke:#181818;stroke-width:1;"/><rect fill="#F1F1F1" height="37.6094" rx="12.5" ry="12.5" style="stroke:#181818;stroke-width:1.5;" width="118" x="378.6621" y="404.2656"/><text fill="#000000" font-family="sans-serif" font-size="14" lengthAdjust="spacing" textLength="98" x="388.6621" y="428.7988">&#25250;&#22842;&#32618;&#65288;&#36807;&#22833;&#65289;</text><rect fill="#F1F1F1" height="37.6094" rx="12.5" ry="12.5" style="stroke:#181818;stroke-width:1.5;" width="244" x="546.6621" y="404.2656"/><text fill="#000000" font-family="sans-serif" font-size="14" lengthAdjust="spacing" textLength="224" x="556.6621" y="428.7988">&#33268;&#20154;&#37325;&#20260;&#12289;&#27515;&#20129;&#65288;&#21496;&#27861;&#35299;&#37322;&#30340;&#35268;&#23450;&#65289;</text><path d="M496.6621,423.0703 L506.6621,423.0703 C521.6621,423.0703 521.6621,423.0703 536.6621,423.0703 L546.6621,423.0703 " fill="none" style="stroke:#181818;stroke-width:1;"/><path d="M328.6621,250.2422 L338.6621,250.2422 C353.6621,250.2422 353.6621,423.0703 368.6621,423.0703 L378.6621,423.0703 " fill="none" style="stroke:#181818;stroke-width:1;"/><path d="M202.6621,394.2656 L212.6621,394.2656 C227.6621,394.2656 227.6621,250.2422 242.6621,250.2422 L252.6621,250.2422 " fill="none" style="stroke:#181818;stroke-width:1;"/><rect fill="#90EE90" height="37.6094" rx="12.5" ry="12.5" style="stroke:#181818;stroke-width:1.5;" width="90" x="252.6621" y="577.0938"/><text fill="#000000" font-family="sans-serif" font-size="14" lengthAdjust="spacing" textLength="70" x="262.6621" y="601.627">&#25925;&#24847;&#25110;&#36807;&#22833;</text><rect fill="#F1F1F1" height="37.6094" rx="12.5" ry="12.5" style="stroke:#181818;stroke-width:1.5;" width="62" x="392.6621" y="461.875"/><text fill="#000000" font-family="sans-serif" font-size="14" lengthAdjust="spacing" textLength="42" x="402.6621" y="486.4082">&#25250;&#21163;&#32618;</text><rect fill="#F1F1F1" height="37.6094" rx="12.5" ry="12.5" style="stroke:#181818;stroke-width:1.5;" width="118" x="504.6621" y="461.875"/><text fill="#000000" font-family="sans-serif" font-size="14" lengthAdjust="spacing" textLength="98" x="514.6621" y="486.4082">&#33268;&#20154;&#37325;&#20260;&#12289;&#27515;&#20129;</text><path d="M454.6621,480.6797 L464.6621,480.6797 C479.6621,480.6797 479.6621,480.6797 494.6621,480.6797 L504.6621,480.6797 " fill="none" style="stroke:#181818;stroke-width:1;"/><path d="M342.6621,595.8984 L352.6621,595.8984 C367.6621,595.8984 367.6621,480.6797 382.6621,480.6797 L392.6621,480.6797 " fill="none" style="stroke:#181818;stroke-width:1;"/><rect fill="#F1F1F1" height="37.6094" rx="12.5" ry="12.5" style="stroke:#181818;stroke-width:1.5;" width="62" x="392.6621" y="548.2891"/><text fill="#000000" font-family="sans-serif" font-size="14" lengthAdjust="spacing" textLength="42" x="402.6621" y="572.8223">&#24378;&#22904;&#32618;</text><rect fill="#F1F1F1" height="37.6094" rx="12.5" ry="12.5" style="stroke:#181818;stroke-width:1.5;" width="118" x="504.6621" y="519.4844"/><text fill="#000000" font-family="sans-serif" font-size="14" lengthAdjust="spacing" textLength="98" x="514.6621" y="544.0176">&#33268;&#20154;&#37325;&#20260;&#12289;&#27515;&#20129;</text><path d="M454.6621,567.0938 L464.6621,567.0938 C479.6621,567.0938 479.6621,538.2891 494.6621,538.2891 L504.6621,538.2891 " fill="none" style="stroke:#181818;stroke-width:1;"/><rect fill="#FFA500" height="37.6094" rx="12.5" ry="12.5" style="stroke:#181818;stroke-width:1.5;" width="118" x="504.6621" y="577.0938"/><text fill="#000000" font-family="sans-serif" font-size="14" lengthAdjust="spacing" textLength="98" x="514.6621" y="601.627">&#21306;&#20998;&#65288;&#19981;&#26500;&#25104;&#65289;</text><rect fill="#FFA500" height="37.6094" rx="12.5" ry="12.5" style="stroke:#181818;stroke-width:1.5;" width="90" x="672.6621" y="577.0938"/><text fill="#000000" font-family="sans-serif" font-size="14" lengthAdjust="spacing" textLength="70" x="682.6621" y="601.627">&#24378;&#21046;&#29477;&#20149;&#32618;</text><path d="M622.6621,595.8984 L632.6621,595.8984 C647.6621,595.8984 647.6621,595.8984 662.6621,595.8984 L672.6621,595.8984 " fill="none" style="stroke:#181818;stroke-width:1;"/><path d="M454.6621,567.0938 L464.6621,567.0938 C479.6621,567.0938 479.6621,595.8984 494.6621,595.8984 L504.6621,595.8984 " fill="none" style="stroke:#181818;stroke-width:1;"/><path d="M342.6621,595.8984 L352.6621,595.8984 C367.6621,595.8984 367.6621,567.0938 382.6621,567.0938 L392.6621,567.0938 " fill="none" style="stroke:#181818;stroke-width:1;"/><rect fill="#F1F1F1" height="37.6094" rx="12.5" ry="12.5" style="stroke:#181818;stroke-width:1.5;" width="132" x="392.6621" y="634.7031"/><text fill="#000000" font-family="sans-serif" font-size="14" lengthAdjust="spacing" textLength="112" x="402.6621" y="659.2363">&#25296;&#21334;&#22919;&#22899;&#12289;&#20799;&#31461;&#32618;</text><rect fill="#F1F1F1" height="37.6094" rx="12.5" ry="12.5" style="stroke:#181818;stroke-width:1.5;" width="118" x="574.6621" y="634.7031"/><text fill="#000000" font-family="sans-serif" font-size="14" lengthAdjust="spacing" textLength="98" x="584.6621" y="659.2363">&#33268;&#20154;&#37325;&#20260;&#12289;&#27515;&#20129;</text><path d="M524.6621,653.5078 L534.6621,653.5078 C549.6621,653.5078 549.6621,653.5078 564.6621,653.5078 L574.6621,653.5078 " fill="none" style="stroke:#181818;stroke-width:1;"/><path d="M342.6621,595.8984 L352.6621,595.8984 C367.6621,595.8984 367.6621,653.5078 382.6621,653.5078 L392.6621,653.5078 " fill="none" style="stroke:#181818;stroke-width:1;"/><rect fill="#F1F1F1" height="37.6094" rx="12.5" ry="12.5" style="stroke:#181818;stroke-width:1.5;" width="62" x="392.6621" y="692.3125"/><text fill="#000000" font-family="sans-serif" font-size="14" lengthAdjust="spacing" textLength="42" x="402.6621" y="716.8457">&#25918;&#28779;&#32618;</text><rect fill="#F1F1F1" height="37.6094" rx="12.5" ry="12.5" style="stroke:#181818;stroke-width:1.5;" width="118" x="504.6621" y="692.3125"/><text fill="#000000" font-family="sans-serif" font-size="14" lengthAdjust="spacing" textLength="98" x="514.6621" y="716.8457">&#33268;&#20154;&#37325;&#20260;&#12289;&#27515;&#20129;</text><path d="M454.6621,711.1172 L464.6621,711.1172 C479.6621,711.1172 479.6621,711.1172 494.6621,711.1172 L504.6621,711.1172 " fill="none" style="stroke:#181818;stroke-width:1;"/><path d="M342.6621,595.8984 L352.6621,595.8984 C367.6621,595.8984 367.6621,711.1172 382.6621,711.1172 L392.6621,711.1172 " fill="none" style="stroke:#181818;stroke-width:1;"/><path d="M202.6621,394.2656 L212.6621,394.2656 C227.6621,394.2656 227.6621,595.8984 242.6621,595.8984 L252.6621,595.8984 " fill="none" style="stroke:#181818;stroke-width:1;"/><!--SRC=[xLTRJnj757xVNp5LNo2IJK08HSX2n0weZN0KrIJluzs9cR2xOytEEhAgI46Gc3X1GSgbAMrHBn3KH2LDIIDg7FWnzQpDK_v2p-xQUC5UTibJ7x2GvJtdEz-PSvrbqXAO2uEQce6BYl85DLNTrWXA9eVWpn9bdGmLTMmAsz0JBYm1k8GdJrAGAOeYgD09ajMV3oihpUhRH7FlgRF-uz7pf_goy_9fwzxYf_f3HRaG4uZWSm6r3YfouvqyM6okFaYb2fmGSsB2q_bwv_bzP-b9exuXjtUEn6tJolj6hURyiTUe_HAmEFnftTbvxZnwsNorqFpukgyH70Se_xstq6FjhBsNrH_aFtyv7nxAtzVarbwhyhhvx5qOKmz1w_jLkNyVu7trFaO-hidb1v2DnkwAixxaBAz2Gb8fnh5P887mknQD_UtMViyXsXxVVcpzkT5VTxZmdQml1dKGOlLNkL436Hp0Jt-d715f0hnyiWl9RMtzTbYfDjUMMbjBSdkjMqs_Mixo2v-tRq71U_NDsGiZwpMvkNjMky_Dj-jj-KFpyMQZzZVux8E5I1wjofKNybL5Rkw0Pxbqq7op-HaTzso_kH0x8OeoIM2IEzCyUNouKzxOJYXjmHMA2nmRw5kWJkPrctY_44fZTRx0cMrg6QOpZdHQc1Ek7hHtNQo6-JmdMWYyhUs0lHgVnkm10kXo1BZSmVf93q7xoWwqQFEY7WRrbHreU621e3YpmjY-d9vEfpEP3h9CT9tT2S7wIW-g98bHdCCMjQ9p5KIFd1v_49e6aJe7lHFB0IsOZ9COjK1eXfhafBnB4TFjgLGkcMaobPWYXCOolKGYDCrCuOloEc1Ei4B3jyzc2Y2ZpCHwXbEZ4sWNAPY11UkBlSv94NFiIivYTZdFk8ZgXBXSGa1PHLJpnsJBC0CcG8HLksqPHkTMnoG5A1YG1fDvsYA9AfH6ID6QBtlekpqEfc2nvNLgpOLleO3zSMztvgWucPiGDzUOYFRaHQMMiHaZAXLhH1mvmwfAjV2MFhOTevXlmQHPWV65PvLayMrYHmmnq-48d6c13emOeOw5vwV8B2feYLnM0-FGis6nJk86qWq1Qe4ZgGqAbvgxZkFqLFjcSiajEt-Rg2vzM7Pm2QvImcFobYY32VAeMHIpc_VOwUukykE3U_gi7klbo2j2WQ_KKFljuFo5_lo5_lo5_l_vGd_T_K_yHdO6bGYttAKud1ovE3AQl3IGmm9TOoKqF8Ok3e-FZewFZg5CRXQvwa5b8FlrBBAO3NS2qc1ZSfgttJKog5p59Oo-iM6f66GSkKy3izb1b9lg2D6KMQAScGOi4kNgpQmFGbynaIiouO77HXDfAb2ES3WMkfbLhf1RsDO5cAfCesPX7DsOdKvSKcOWgJOkW2DOyHdOH8ANGPVx3m00]--></g></svg>