<svg xmlns="http://www.w3.org/2000/svg" xmlns:xlink="http://www.w3.org/1999/xlink" contentStyleType="text/css" height="463px" preserveAspectRatio="none" style="width:634px;height:463px;background:#FFFFFF;" version="1.1" viewBox="0 0 634 463" width="634px" zoomAndPan="magnify"><title>&#21009;&#27861; - &#26696;&#20363; - &#20849;&#21516;&#29359;&#32618; - &#21457;&#30701;&#20449;&#26696;</title><defs/><g><text fill="#000000" font-family="sans-serif" font-size="14" font-weight="bold" lengthAdjust="spacing" textLength="210.5742" x="210.561" y="34.5332">&#21009;&#27861; - &#26696;&#20363; - &#20849;&#21516;&#29359;&#32618; - &#21457;&#30701;&#20449;&#26696;</text><rect fill="#F1F1F1" height="37.6094" rx="12.5" ry="12.5" style="stroke:#181818;stroke-width:1.5;" width="136.6963" x="10" y="231.4375"/><text fill="#000000" font-family="sans-serif" font-size="14" lengthAdjust="spacing" textLength="116.6963" x="20" y="255.9707">&#21457;&#30701;&#20449;&#26696;&#65288;P124&#65289;</text><rect fill="#F1F1F1" height="37.6094" rx="12.5" ry="12.5" style="stroke:#181818;stroke-width:1.5;" width="76" x="196.6963" y="173.8281"/><text fill="#000000" font-family="sans-serif" font-size="14" lengthAdjust="spacing" textLength="56" x="206.6963" y="198.3613">&#35201;&#32032;&#20998;&#26512;</text><rect fill="#F1F1F1" height="37.6094" rx="12.5" ry="12.5" style="stroke:#181818;stroke-width:1.5;" width="76" x="322.6963" y="58.6094"/><text fill="#000000" font-family="sans-serif" font-size="14" lengthAdjust="spacing" textLength="56" x="332.6963" y="83.1426">&#23458;&#35266;&#34892;&#20026;</text><rect fill="#F1F1F1" height="37.6094" rx="12.5" ry="12.5" style="stroke:#181818;stroke-width:1.5;" width="160" x="448.6963" y="58.6094"/><text fill="#000000" font-family="sans-serif" font-size="14" lengthAdjust="spacing" textLength="140" x="458.6963" y="83.1426">&#30002;&#20057;&#25235;&#20303;&#19993;&#22899;&#26159;&#30456;&#21516;&#30340;</text><path d="M398.6963,77.4141 L408.6963,77.4141 C423.6963,77.4141 423.6963,77.4141 438.6963,77.4141 L448.6963,77.4141 " fill="none" style="stroke:#181818;stroke-width:1;"/><path d="M272.6963,192.6328 L282.6963,192.6328 C297.6963,192.6328 297.6963,77.4141 312.6963,77.4141 L322.6963,77.4141 " fill="none" style="stroke:#181818;stroke-width:1;"/><rect fill="#F1F1F1" height="37.6094" rx="12.5" ry="12.5" style="stroke:#181818;stroke-width:1.5;" width="76" x="322.6963" y="145.0234"/><text fill="#000000" font-family="sans-serif" font-size="14" lengthAdjust="spacing" textLength="56" x="332.6963" y="169.5566">&#20027;&#35266;&#25925;&#24847;</text><rect fill="#F1F1F1" height="37.6094" rx="12.5" ry="12.5" style="stroke:#181818;stroke-width:1.5;" width="34" x="448.6963" y="116.2188"/><text fill="#000000" font-family="sans-serif" font-size="14" lengthAdjust="spacing" textLength="14" x="458.6963" y="140.752">&#30002;</text><rect fill="#F1F1F1" height="37.6094" rx="12.5" ry="12.5" style="stroke:#181818;stroke-width:1.5;" width="90" x="532.6963" y="116.2188"/><text fill="#000000" font-family="sans-serif" font-size="14" lengthAdjust="spacing" textLength="70" x="542.6963" y="140.752">&#25250;&#21163;&#32618;&#24847;&#22270;</text><path d="M482.6963,135.0234 L492.6963,135.0234 C507.6963,135.0234 507.6963,135.0234 522.6963,135.0234 L532.6963,135.0234 " fill="none" style="stroke:#181818;stroke-width:1;"/><path d="M398.6963,163.8281 L408.6963,163.8281 C423.6963,163.8281 423.6963,135.0234 438.6963,135.0234 L448.6963,135.0234 " fill="none" style="stroke:#181818;stroke-width:1;"/><rect fill="#F1F1F1" height="37.6094" rx="12.5" ry="12.5" style="stroke:#181818;stroke-width:1.5;" width="34" x="448.6963" y="173.8281"/><text fill="#000000" font-family="sans-serif" font-size="14" lengthAdjust="spacing" textLength="14" x="458.6963" y="198.3613">&#20057;</text><rect fill="#F1F1F1" height="37.6094" rx="12.5" ry="12.5" style="stroke:#181818;stroke-width:1.5;" width="90" x="532.6963" y="173.8281"/><text fill="#000000" font-family="sans-serif" font-size="14" lengthAdjust="spacing" textLength="70" x="542.6963" y="198.3613">&#24378;&#22904;&#32618;&#24847;&#22270;</text><path d="M482.6963,192.6328 L492.6963,192.6328 C507.6963,192.6328 507.6963,192.6328 522.6963,192.6328 L532.6963,192.6328 " fill="none" style="stroke:#181818;stroke-width:1;"/><path d="M398.6963,163.8281 L408.6963,163.8281 C423.6963,163.8281 423.6963,192.6328 438.6963,192.6328 L448.6963,192.6328 " fill="none" style="stroke:#181818;stroke-width:1;"/><path d="M272.6963,192.6328 L282.6963,192.6328 C297.6963,192.6328 297.6963,163.8281 312.6963,163.8281 L322.6963,163.8281 " fill="none" style="stroke:#181818;stroke-width:1;"/><rect fill="#F1F1F1" height="37.6094" rx="12.5" ry="12.5" style="stroke:#181818;stroke-width:1.5;" width="48" x="322.6963" y="260.2422"/><text fill="#000000" font-family="sans-serif" font-size="14" lengthAdjust="spacing" textLength="28" x="332.6963" y="284.7754">&#32618;&#21517;</text><rect fill="#F1F1F1" height="37.6094" rx="12.5" ry="12.5" style="stroke:#181818;stroke-width:1.5;" width="34" x="420.6963" y="231.4375"/><text fill="#000000" font-family="sans-serif" font-size="14" lengthAdjust="spacing" textLength="14" x="430.6963" y="255.9707">&#30002;</text><rect fill="#F1F1F1" height="37.6094" rx="12.5" ry="12.5" style="stroke:#181818;stroke-width:1.5;" width="90" x="504.6963" y="231.4375"/><text fill="#000000" font-family="sans-serif" font-size="14" lengthAdjust="spacing" textLength="70" x="514.6963" y="255.9707">&#25250;&#21163;&#32618;&#26410;&#36930;</text><path d="M454.6963,250.2422 L464.6963,250.2422 C479.6963,250.2422 479.6963,250.2422 494.6963,250.2422 L504.6963,250.2422 " fill="none" style="stroke:#181818;stroke-width:1;"/><path d="M370.6963,279.0469 L380.6963,279.0469 C395.6963,279.0469 395.6963,250.2422 410.6963,250.2422 L420.6963,250.2422 " fill="none" style="stroke:#181818;stroke-width:1;"/><rect fill="#F1F1F1" height="37.6094" rx="12.5" ry="12.5" style="stroke:#181818;stroke-width:1.5;" width="34" x="420.6963" y="289.0469"/><text fill="#000000" font-family="sans-serif" font-size="14" lengthAdjust="spacing" textLength="14" x="430.6963" y="313.5801">&#20057;</text><rect fill="#F1F1F1" height="37.6094" rx="12.5" ry="12.5" style="stroke:#181818;stroke-width:1.5;" width="90" x="504.6963" y="289.0469"/><text fill="#000000" font-family="sans-serif" font-size="14" lengthAdjust="spacing" textLength="70" x="514.6963" y="313.5801">&#24378;&#22904;&#32618;&#26410;&#36930;</text><path d="M454.6963,307.8516 L464.6963,307.8516 C479.6963,307.8516 479.6963,307.8516 494.6963,307.8516 L504.6963,307.8516 " fill="none" style="stroke:#181818;stroke-width:1;"/><path d="M370.6963,279.0469 L380.6963,279.0469 C395.6963,279.0469 395.6963,307.8516 410.6963,307.8516 L420.6963,307.8516 " fill="none" style="stroke:#181818;stroke-width:1;"/><path d="M272.6963,192.6328 L282.6963,192.6328 C297.6963,192.6328 297.6963,279.0469 312.6963,279.0469 L322.6963,279.0469 " fill="none" style="stroke:#181818;stroke-width:1;"/><path d="M146.6963,250.2422 L156.6963,250.2422 C171.6963,250.2422 171.6963,192.6328 186.6963,192.6328 L196.6963,192.6328 " fill="none" style="stroke:#181818;stroke-width:1;"/><rect fill="#F1F1F1" height="37.6094" rx="12.5" ry="12.5" style="stroke:#181818;stroke-width:1.5;" width="118" x="196.6963" y="346.6563"/><text fill="#000000" font-family="sans-serif" font-size="14" lengthAdjust="spacing" textLength="98" x="206.6963" y="371.1895">&#37096;&#20998;&#29359;&#32618;&#20849;&#21516;&#35828;</text><rect fill="#F1F1F1" height="37.6094" rx="12.5" ry="12.5" style="stroke:#181818;stroke-width:1.5;" width="146" x="364.6963" y="346.6563"/><text fill="#000000" font-family="sans-serif" font-size="14" lengthAdjust="spacing" textLength="126" x="374.6963" y="371.1895">&#30002;&#20057;&#19981;&#26500;&#25104;&#20849;&#21516;&#29359;&#32618;</text><path d="M314.6963,365.4609 L324.6963,365.4609 C339.6963,365.4609 339.6963,365.4609 354.6963,365.4609 L364.6963,365.4609 " fill="none" style="stroke:#181818;stroke-width:1;"/><path d="M146.6963,250.2422 L156.6963,250.2422 C171.6963,250.2422 171.6963,365.4609 186.6963,365.4609 L196.6963,365.4609 " fill="none" style="stroke:#181818;stroke-width:1;"/><rect fill="#F1F1F1" height="37.6094" rx="12.5" ry="12.5" style="stroke:#181818;stroke-width:1.5;" width="90" x="196.6963" y="404.2656"/><text fill="#000000" font-family="sans-serif" font-size="14" lengthAdjust="spacing" textLength="70" x="206.6963" y="428.7988">&#34892;&#20026;&#20849;&#21516;&#35828;</text><rect fill="#F1F1F1" height="37.6094" rx="12.5" ry="12.5" style="stroke:#181818;stroke-width:1.5;" width="132" x="336.6963" y="404.2656"/><text fill="#000000" font-family="sans-serif" font-size="14" lengthAdjust="spacing" textLength="112" x="346.6963" y="428.7988">&#30002;&#20057;&#26500;&#25104;&#20849;&#21516;&#29359;&#32618;</text><path d="M286.6963,423.0703 L296.6963,423.0703 C311.6963,423.0703 311.6963,423.0703 326.6963,423.0703 L336.6963,423.0703 " fill="none" style="stroke:#181818;stroke-width:1;"/><path d="M146.6963,250.2422 L156.6963,250.2422 C171.6963,250.2422 171.6963,423.0703 186.6963,423.0703 L196.6963,423.0703 " fill="none" style="stroke:#181818;stroke-width:1;"/><!--SRC=[xLVTRjis5BxdKt3OJHB0pi-Ce0YA8RMRO2lY8fZTtjCIQxEHI86YN7Z5BjgbWvUrI8gjmBeEtLAWsv1X2xRsmkkIxcKiERtgA-nGicBPgIpblePXIETyvpla-IEzwYeYbSsuQHC7eGyODopFfBXOd8UlgpeMdNSimfLdMmKDAm2k4CgB36G8AQOiYltkm-358rp0mNwt__eRUF3l_UNltH_i70wE3_JhxiF1Jt_q_zi7049pO-zlZxgRYqkbjqTV8moVENpoovt1ov_zxbV1qxrG58dzFv-T_7htPFz-l_VgL1of1j_ztV_dSR3pRVzujzzxx3z_4Nn_E7ZIqqluOJl1qU_z2np1etl1zkvPZZ5990rsdlaxlyCcmC1_ydh21fo-myO_UkK_xvsr0H_71_xUWtCw_l7WpPsxvtGyifd3Rxxy3M8PfI9AoydXIpGPl7xlGV1qE-Zk9JCN9oICURhjEmpHAeMYYWjhTRpEBeOLz34Q2YupqfJ4nhU1kDYmF1e-OLmcnbPJ2e-R5M49YItMR2cj1-qN6ciIkIMfcG8VQcDmKrBAfp67W0Iwam7kn5WX2M-cBJfInb37auwL1esKCJHzOubDIU6ciNsulbukLoeniaCjIznAmKRA48gADc6ytg9sJBmkkAgnpod-Q05fFRMT5d6PcntB97eX1UvkTSAK9h5BqsEPX9P1PBIW4dCjXZMva3H7NZ7UO9nEoaSKETrEfT9ad0k3SfKM6nuc9Kf196fOW9bWXUQ9rcP8TfgraLe9coWHBPuhyCO49rRblDXDIHqYYPQSn-nIGqYLLNPvkPI2lAkiJil9LX4sj9jAAuUXPHgTJX-dJSWea2Q3EMrgPMNIfDH9DiIuWpMOeWsBkQtqaPUm7_TsgyNKP6nIt5mLAjjJk2kZGtYENHd4fEhK6J4CPgRN_DWepcA-0Qte9leRtWrQ9JUfbz7bme8bI64cAZ2ZnsABq8yZNAPOcruo4krmPfmJY-RTo6WBa0kIIMqpE47rxCzJKyDZK9ExNkCcDJHzMdH86yvjAdFojfc03WgfHHQpZdlkS8yc_NZZJk_LiLhEF4CG_5oS7rv5tbzatrzaSrnaD_MVeMlL3TocqjNzkLXSMbWg5I_Cr8Z2LqKRBoxZXSMLKccbj8mhjJhMwbaqK_sqZbtXmNZ29ZIlP0rFL_GikaBQ17_cGNtRT0NhjvbwTHRNrc8XNkDj9WMteQRHbUlL28G_4Qhc21M2bqk5CbEuHYKi2r-leilq1l4i1QQ6C1blhk1hzVN21RG1jU-H9ZY2QLE1fb2o0xhQ_m00]--></g></svg>