<svg xmlns="http://www.w3.org/2000/svg" xmlns:xlink="http://www.w3.org/1999/xlink" contentStyleType="text/css" height="787px" preserveAspectRatio="none" style="width:1522px;height:787px;background:#FFFFFF;" version="1.1" viewBox="0 0 1522 787" width="1522px" zoomAndPan="magnify"><title>&#21009;&#27861;-&#35266;&#28857;&#23637;&#31034;-&#27010;&#35272;</title><defs/><g><text fill="#000000" font-family="sans-serif" font-size="14" font-weight="bold" lengthAdjust="spacing" textLength="124.8242" x="697.1499" y="35.1074">&#21009;&#27861;-&#35266;&#28857;&#23637;&#31034;-&#27010;&#35272;</text><rect fill="#F1F1F1" height="38.6211" rx="12.5" ry="12.5" style="stroke:#181818;stroke-width:1.5;" width="108.6621" x="10" y="393.0286"/><text fill="#000000" font-family="sans-serif" font-size="14" lengthAdjust="spacing" textLength="88.6621" x="20" y="418.136">&#21009;&#27861;-&#35266;&#28857;&#23637;&#31034;</text><rect fill="#F1F1F1" height="38.6211" rx="12.5" ry="12.5" style="stroke:#181818;stroke-width:1.5;" width="76" x="168.6621" y="147.5527"/><text fill="#000000" font-family="sans-serif" font-size="14" lengthAdjust="spacing" textLength="56" x="178.6621" y="172.6602">&#19981;&#21516;&#35266;&#28857;</text><rect fill="#F1F1F1" height="38.6211" rx="12.5" ry="12.5" style="stroke:#181818;stroke-width:1.5;" width="48" x="294.6621" y="88.9316"/><text fill="#000000" font-family="sans-serif" font-size="14" lengthAdjust="spacing" textLength="28" x="304.6621" y="114.0391">&#26412;&#36136;</text><rect fill="#90EE90" height="38.6211" rx="12.5" ry="12.5" style="stroke:#181818;stroke-width:1.5;" width="163.8896" x="392.6621" y="59.6211"/><text fill="#000000" font-family="sans-serif" font-size="14" lengthAdjust="spacing" textLength="140" x="402.6621" y="84.7285">&#34892;&#20026;&#20154;&#65306;&#20391;&#37325;&#20445;&#38556;&#20154;&#26435;</text><path d="M342.6621,108.2422 L352.6621,108.2422 C367.6621,108.2422 367.6621,78.9316 382.6621,78.9316 L392.6621,78.9316 " fill="none" style="stroke:#181818;stroke-width:1.0;"/><rect fill="#90EE90" height="38.6211" rx="12.5" ry="12.5" style="stroke:#181818;stroke-width:1.5;" width="163.8896" x="392.6621" y="118.2422"/><text fill="#000000" font-family="sans-serif" font-size="14" lengthAdjust="spacing" textLength="140" x="402.6621" y="143.3496">&#21463;&#23475;&#32773;&#65306;&#20391;&#37325;&#20445;&#25252;&#27861;&#30410;</text><path d="M342.6621,108.2422 L352.6621,108.2422 C367.6621,108.2422 367.6621,137.5527 382.6621,137.5527 L392.6621,137.5527 " fill="none" style="stroke:#181818;stroke-width:1.0;"/><path d="M244.6621,166.8633 L254.6621,166.8633 C269.6621,166.8633 269.6621,108.2422 284.6621,108.2422 L294.6621,108.2422 " fill="none" style="stroke:#181818;stroke-width:1.0;"/><rect fill="#F1F1F1" height="38.6211" rx="12.5" ry="12.5" style="stroke:#181818;stroke-width:1.5;" width="76" x="294.6621" y="206.1738"/><text fill="#000000" font-family="sans-serif" font-size="14" lengthAdjust="spacing" textLength="56" x="304.6621" y="231.2813">&#34920;&#29616;&#24418;&#24335;</text><rect fill="#F1F1F1" height="38.6211" rx="12.5" ry="12.5" style="stroke:#181818;stroke-width:1.5;" width="90" x="420.6621" y="206.1738"/><text fill="#000000" font-family="sans-serif" font-size="14" lengthAdjust="spacing" textLength="70" x="430.6621" y="231.2813">&#25972;&#20307;&#21644;&#32454;&#33410;</text><rect fill="#90EE90" height="38.6211" rx="12.5" ry="12.5" style="stroke:#181818;stroke-width:1.5;" width="205.8896" x="560.6621" y="176.8633"/><text fill="#000000" font-family="sans-serif" font-size="14" lengthAdjust="spacing" textLength="182" x="570.6621" y="201.9707">&#20855;&#20307;&#31526;&#21512;&#35828;&#65288;&#20391;&#37325;&#20445;&#38556;&#20154;&#26435;&#65289;</text><path d="M510.6621,225.4844 L520.6621,225.4844 C535.6621,225.4844 535.6621,196.1738 550.6621,196.1738 L560.6621,196.1738 " fill="none" style="stroke:#181818;stroke-width:1.0;"/><rect fill="#90EE90" height="38.6211" rx="12.5" ry="12.5" style="stroke:#181818;stroke-width:1.5;" width="205.8896" x="560.6621" y="235.4844"/><text fill="#000000" font-family="sans-serif" font-size="14" lengthAdjust="spacing" textLength="182" x="570.6621" y="260.5918">&#27861;&#23450;&#31526;&#21512;&#35828;&#65288;&#20391;&#37325;&#20445;&#25252;&#27861;&#30410;&#65289;</text><path d="M510.6621,225.4844 L520.6621,225.4844 C535.6621,225.4844 535.6621,254.7949 550.6621,254.7949 L560.6621,254.7949 " fill="none" style="stroke:#181818;stroke-width:1.0;"/><path d="M370.6621,225.4844 L380.6621,225.4844 C395.6621,225.4844 395.6621,225.4844 410.6621,225.4844 L420.6621,225.4844 " fill="none" style="stroke:#181818;stroke-width:1.0;"/><path d="M244.6621,166.8633 L254.6621,166.8633 C269.6621,166.8633 269.6621,225.4844 284.6621,225.4844 L294.6621,225.4844 " fill="none" style="stroke:#181818;stroke-width:1.0;"/><path d="M118.6621,412.3391 L128.6621,412.3391 C143.6621,412.3391 143.6621,166.8633 158.6621,166.8633 L168.6621,166.8633 " fill="none" style="stroke:#181818;stroke-width:1.0;"/><rect fill="#F1F1F1" height="38.6211" rx="12.5" ry="12.5" style="stroke:#181818;stroke-width:1.5;" width="90" x="168.6621" y="352.7266"/><text fill="#000000" font-family="sans-serif" font-size="14" lengthAdjust="spacing" textLength="70" x="178.6621" y="377.834">&#23458;&#35266;&#36829;&#27861;&#23618;</text><rect fill="#F1F1F1" height="38.6211" rx="12.5" ry="12.5" style="stroke:#181818;stroke-width:1.5;" width="76" x="308.6621" y="294.1055"/><text fill="#000000" font-family="sans-serif" font-size="14" lengthAdjust="spacing" textLength="56" x="318.6621" y="319.2129">&#23458;&#35266;&#35201;&#20214;</text><rect fill="#F1F1F1" height="38.6211" rx="12.5" ry="12.5" style="stroke:#181818;stroke-width:1.5;" width="48" x="434.6621" y="294.1055"/><text fill="#000000" font-family="sans-serif" font-size="14" lengthAdjust="spacing" textLength="28" x="444.6621" y="319.2129">&#34892;&#20026;</text><path d="M384.6621,313.416 L394.6621,313.416 C409.6621,313.416 409.6621,313.416 424.6621,313.416 L434.6621,313.416 " fill="none" style="stroke:#181818;stroke-width:1.0;"/><path d="M258.6621,372.0371 L268.6621,372.0371 C283.6621,372.0371 283.6621,313.416 298.6621,313.416 L308.6621,313.416 " fill="none" style="stroke:#181818;stroke-width:1.0;"/><rect fill="#F1F1F1" height="38.6211" rx="12.5" ry="12.5" style="stroke:#181818;stroke-width:1.5;" width="132" x="308.6621" y="382.0371"/><text fill="#000000" font-family="sans-serif" font-size="14" lengthAdjust="spacing" textLength="112" x="318.6621" y="407.1445">&#23458;&#35266;&#36829;&#27861;&#38459;&#21364;&#20107;&#30001;</text><rect fill="#F1F1F1" height="38.6211" rx="12.5" ry="12.5" style="stroke:#181818;stroke-width:1.5;" width="76" x="490.6621" y="382.0371"/><text fill="#000000" font-family="sans-serif" font-size="14" lengthAdjust="spacing" textLength="56" x="500.6621" y="407.1445">&#27491;&#24403;&#38450;&#21355;</text><rect fill="#90EE90" height="38.6211" rx="12.5" ry="12.5" style="stroke:#181818;stroke-width:1.5;" width="123.4619" x="616.6621" y="382.0371"/><text fill="#000000" font-family="sans-serif" font-size="14" lengthAdjust="spacing" textLength="99.5723" x="626.6621" y="407.1445">&#20598;&#28982;&#38450;&#21355;&#65288;62&#65289;</text><rect fill="#F1F1F1" height="38.6211" rx="12.5" ry="12.5" style="stroke:#181818;stroke-width:1.5;" width="286" x="790.124" y="352.7266"/><text fill="#000000" font-family="sans-serif" font-size="14" lengthAdjust="spacing" textLength="266" x="800.124" y="377.834">&#38450;&#21355;&#35748;&#35782;&#19981;&#35201;&#35828;&#65288;&#20391;&#37325;&#20445;&#38556;&#34892;&#20026;&#20154;&#30340;&#20154;&#26435;&#65289;</text><path d="M740.124,401.3477 L750.124,401.3477 C765.124,401.3477 765.124,372.0371 780.124,372.0371 L790.124,372.0371 " fill="none" style="stroke:#181818;stroke-width:1.0;"/><rect fill="#F1F1F1" height="38.6211" rx="12.5" ry="12.5" style="stroke:#181818;stroke-width:1.5;" width="286" x="790.124" y="411.3477"/><text fill="#000000" font-family="sans-serif" font-size="14" lengthAdjust="spacing" textLength="266" x="800.124" y="436.4551">&#38450;&#21355;&#35748;&#35782;&#24517;&#35201;&#35828;&#65288;&#20391;&#37325;&#20445;&#25252;&#21463;&#23475;&#32773;&#30340;&#27861;&#30410;&#65289;</text><path d="M740.124,401.3477 L750.124,401.3477 C765.124,401.3477 765.124,430.6582 780.124,430.6582 L790.124,430.6582 " fill="none" style="stroke:#181818;stroke-width:1.0;"/><path d="M566.6621,401.3477 L576.6621,401.3477 C591.6621,401.3477 591.6621,401.3477 606.6621,401.3477 L616.6621,401.3477 " fill="none" style="stroke:#181818;stroke-width:1.0;"/><path d="M440.6621,401.3477 L450.6621,401.3477 C465.6621,401.3477 465.6621,401.3477 480.6621,401.3477 L490.6621,401.3477 " fill="none" style="stroke:#181818;stroke-width:1.0;"/><path d="M258.6621,372.0371 L268.6621,372.0371 C283.6621,372.0371 283.6621,401.3477 298.6621,401.3477 L308.6621,401.3477 " fill="none" style="stroke:#181818;stroke-width:1.0;"/><path d="M118.6621,412.3391 L128.6621,412.3391 C143.6621,412.3391 143.6621,372.0371 158.6621,372.0371 L168.6621,372.0371 " fill="none" style="stroke:#181818;stroke-width:1.0;"/><rect fill="#F1F1F1" height="38.6211" rx="12.5" ry="12.5" style="stroke:#181818;stroke-width:1.5;" width="90" x="168.6621" y="598.2024"/><text fill="#000000" font-family="sans-serif" font-size="14" lengthAdjust="spacing" textLength="70" x="178.6621" y="623.3098">&#20027;&#35266;&#36131;&#20219;&#23618;</text><rect fill="#F1F1F1" height="38.6211" rx="12.5" ry="12.5" style="stroke:#181818;stroke-width:1.5;" width="48" x="308.6621" y="480.9602"/><text fill="#000000" font-family="sans-serif" font-size="14" lengthAdjust="spacing" textLength="28" x="318.6621" y="506.0676">&#25925;&#24847;</text><path d="M258.6621,617.5129 L268.6621,617.5129 C283.6621,617.5129 283.6621,500.2708 298.6621,500.2708 L308.6621,500.2708 " fill="none" style="stroke:#181818;stroke-width:1.0;"/><rect fill="#F1F1F1" height="38.6211" rx="12.5" ry="12.5" style="stroke:#181818;stroke-width:1.5;" width="48" x="308.6621" y="539.5813"/><text fill="#000000" font-family="sans-serif" font-size="14" lengthAdjust="spacing" textLength="28" x="318.6621" y="564.6887">&#36807;&#22833;</text><path d="M258.6621,617.5129 L268.6621,617.5129 C283.6621,617.5129 283.6621,558.8918 298.6621,558.8918 L308.6621,558.8918 " fill="none" style="stroke:#181818;stroke-width:1.0;"/><rect fill="#F1F1F1" height="38.6211" rx="12.5" ry="12.5" style="stroke:#181818;stroke-width:1.5;" width="104" x="308.6621" y="598.2024"/><text fill="#000000" font-family="sans-serif" font-size="14" lengthAdjust="spacing" textLength="84" x="318.6621" y="623.3098">&#20107;&#23454;&#35748;&#35782;&#38169;&#35823;</text><rect fill="#F1F1F1" height="38.6211" rx="12.5" ry="12.5" style="stroke:#181818;stroke-width:1.5;" width="146" x="462.6621" y="598.2024"/><text fill="#000000" font-family="sans-serif" font-size="14" lengthAdjust="spacing" textLength="126" x="472.6621" y="623.3098">&#20855;&#20307;&#30340;&#20107;&#23454;&#35748;&#35782;&#38169;&#35823;</text><rect fill="#F1F1F1" height="38.6211" rx="12.5" ry="12.5" style="stroke:#181818;stroke-width:1.5;" width="76" x="658.6621" y="469.9688"/><text fill="#000000" font-family="sans-serif" font-size="14" lengthAdjust="spacing" textLength="56" x="668.6621" y="495.0762">&#23545;&#35937;&#38169;&#35823;</text><path d="M608.6621,617.5129 L618.6621,617.5129 C633.6621,617.5129 633.6621,489.2793 648.6621,489.2793 L658.6621,489.2793 " fill="none" style="stroke:#181818;stroke-width:1.0;"/><rect fill="#90EE90" height="38.6211" rx="12.5" ry="12.5" style="stroke:#181818;stroke-width:1.5;" width="123.4619" x="658.6621" y="528.5898"/><text fill="#000000" font-family="sans-serif" font-size="14" lengthAdjust="spacing" textLength="99.5723" x="668.6621" y="553.6973">&#25171;&#20987;&#38169;&#35823;&#65288;86&#65289;</text><rect fill="#F1F1F1" height="38.6211" rx="12.5" ry="12.5" style="stroke:#181818;stroke-width:1.5;" width="90" x="832.124" y="499.2793"/><text fill="#000000" font-family="sans-serif" font-size="14" lengthAdjust="spacing" textLength="70" x="842.124" y="524.3867">&#20855;&#20307;&#31526;&#21512;&#35828;</text><path d="M782.124,547.9004 L792.124,547.9004 C807.124,547.9004 807.124,518.5898 822.124,518.5898 L832.124,518.5898 " fill="none" style="stroke:#181818;stroke-width:1.0;"/><rect fill="#F1F1F1" height="38.6211" rx="12.5" ry="12.5" style="stroke:#181818;stroke-width:1.5;" width="90" x="832.124" y="557.9004"/><text fill="#000000" font-family="sans-serif" font-size="14" lengthAdjust="spacing" textLength="70" x="842.124" y="583.0078">&#27861;&#23450;&#31526;&#21512;&#35828;</text><path d="M782.124,547.9004 L792.124,547.9004 C807.124,547.9004 807.124,577.2109 822.124,577.2109 L832.124,577.2109 " fill="none" style="stroke:#181818;stroke-width:1.0;"/><path d="M608.6621,617.5129 L618.6621,617.5129 C633.6621,617.5129 633.6621,547.9004 648.6621,547.9004 L658.6621,547.9004 " fill="none" style="stroke:#181818;stroke-width:1.0;"/><rect fill="#F1F1F1" height="38.6211" rx="12.5" ry="12.5" style="stroke:#181818;stroke-width:1.5;" width="104" x="658.6621" y="671.4788"/><text fill="#000000" font-family="sans-serif" font-size="14" lengthAdjust="spacing" textLength="84" x="668.6621" y="696.5862">&#22240;&#26524;&#20851;&#31995;&#38169;&#35823;</text><rect fill="#F1F1F1" height="38.6211" rx="12.5" ry="12.5" style="stroke:#181818;stroke-width:1.5;" width="146" x="812.6621" y="616.5215"/><text fill="#000000" font-family="sans-serif" font-size="14" lengthAdjust="spacing" textLength="126" x="822.6621" y="641.6289">&#29421;&#20041;&#30340;&#22240;&#26524;&#20851;&#31995;&#38169;&#35823;</text><path d="M762.6621,690.7893 L772.6621,690.7893 C787.6621,690.7893 787.6621,635.832 802.6621,635.832 L812.6621,635.832 " fill="none" style="stroke:#181818;stroke-width:1.0;"/><rect fill="#F1F1F1" height="38.6211" rx="12.5" ry="12.5" style="stroke:#181818;stroke-width:1.5;" width="146" x="812.6621" y="675.1426"/><text fill="#000000" font-family="sans-serif" font-size="14" lengthAdjust="spacing" textLength="126" x="822.6621" y="700.25">&#24191;&#20041;&#30340;&#22240;&#26524;&#20851;&#31995;&#38169;&#35823;</text><rect fill="#F1F1F1" height="38.6211" rx="12.5" ry="12.5" style="stroke:#181818;stroke-width:1.5;" width="118" x="1008.6621" y="623.8491"/><text fill="#000000" font-family="sans-serif" font-size="14" lengthAdjust="spacing" textLength="98" x="1018.6621" y="648.9565">&#32467;&#26524;&#30340;&#25512;&#36831;&#21457;&#29983;</text><path d="M958.6621,694.4531 L968.6621,694.4531 C983.6621,694.4531 983.6621,643.1597 998.6621,643.1597 L1008.6621,643.1597 " fill="none" style="stroke:#181818;stroke-width:1.0;"/><rect fill="#F1F1F1" height="38.6211" rx="12.5" ry="12.5" style="stroke:#181818;stroke-width:1.5;" width="118" x="1008.6621" y="682.4702"/><text fill="#000000" font-family="sans-serif" font-size="14" lengthAdjust="spacing" textLength="98" x="1018.6621" y="707.5776">&#32467;&#26524;&#30340;&#25552;&#21069;&#21457;&#29983;</text><rect fill="#F1F1F1" height="38.6211" rx="12.5" ry="12.5" style="stroke:#181818;stroke-width:1.5;" width="76" x="1176.6621" y="638.5044"/><text fill="#000000" font-family="sans-serif" font-size="14" lengthAdjust="spacing" textLength="56" x="1186.6621" y="663.6118">&#39044;&#22791;&#34892;&#20026;</text><path d="M1126.6621,701.7808 L1136.6621,701.7808 C1151.6621,701.7808 1151.6621,657.8149 1166.6621,657.8149 L1176.6621,657.8149 " fill="none" style="stroke:#181818;stroke-width:1.0;"/><rect fill="#90EE90" height="38.6211" rx="12.5" ry="12.5" style="stroke:#181818;stroke-width:1.5;" width="123.4619" x="1176.6621" y="697.1255"/><text fill="#000000" font-family="sans-serif" font-size="14" lengthAdjust="spacing" textLength="99.5723" x="1186.6621" y="722.2329">&#23454;&#34892;&#34892;&#20026;&#65288;89&#65289;</text><rect fill="#F1F1F1" height="38.6211" rx="12.5" ry="12.5" style="stroke:#181818;stroke-width:1.5;" width="160" x="1350.124" y="667.8149"/><text fill="#000000" font-family="sans-serif" font-size="14" lengthAdjust="spacing" textLength="140" x="1360.124" y="692.9224">&#22810;&#25968;&#35828;&#65288;&#27861;&#23450;&#31526;&#21512;&#35828;&#65289;</text><path d="M1300.124,716.436 L1310.124,716.436 C1325.124,716.436 1325.124,687.1255 1340.124,687.1255 L1350.124,687.1255 " fill="none" style="stroke:#181818;stroke-width:1.0;"/><rect fill="#F1F1F1" height="38.6211" rx="12.5" ry="12.5" style="stroke:#181818;stroke-width:1.5;" width="160" x="1350.124" y="726.436"/><text fill="#000000" font-family="sans-serif" font-size="14" lengthAdjust="spacing" textLength="140" x="1360.124" y="751.5435">&#23569;&#25968;&#35828;&#65288;&#20855;&#20307;&#31526;&#21512;&#35828;&#65289;</text><path d="M1300.124,716.436 L1310.124,716.436 C1325.124,716.436 1325.124,745.7466 1340.124,745.7466 L1350.124,745.7466 " fill="none" style="stroke:#181818;stroke-width:1.0;"/><path d="M1126.6621,701.7808 L1136.6621,701.7808 C1151.6621,701.7808 1151.6621,716.436 1166.6621,716.436 L1176.6621,716.436 " fill="none" style="stroke:#181818;stroke-width:1.0;"/><path d="M958.6621,694.4531 L968.6621,694.4531 C983.6621,694.4531 983.6621,701.7808 998.6621,701.7808 L1008.6621,701.7808 " fill="none" style="stroke:#181818;stroke-width:1.0;"/><path d="M762.6621,690.7893 L772.6621,690.7893 C787.6621,690.7893 787.6621,694.4531 802.6621,694.4531 L812.6621,694.4531 " fill="none" style="stroke:#181818;stroke-width:1.0;"/><path d="M608.6621,617.5129 L618.6621,617.5129 C633.6621,617.5129 633.6621,690.7893 648.6621,690.7893 L658.6621,690.7893 " fill="none" style="stroke:#181818;stroke-width:1.0;"/><path d="M412.6621,617.5129 L422.6621,617.5129 C437.6621,617.5129 437.6621,617.5129 452.6621,617.5129 L462.6621,617.5129 " fill="none" style="stroke:#181818;stroke-width:1.0;"/><path d="M258.6621,617.5129 L268.6621,617.5129 C283.6621,617.5129 283.6621,617.5129 298.6621,617.5129 L308.6621,617.5129 " fill="none" style="stroke:#181818;stroke-width:1.0;"/><path d="M118.6621,412.3391 L128.6621,412.3391 C143.6621,412.3391 143.6621,617.5129 158.6621,617.5129 L168.6621,617.5129 " fill="none" style="stroke:#181818;stroke-width:1.0;"/><!--SRC=[xPVTJzDG5C3VxrznZIzgiY74019224CIKQ8HzBrkrzdOjKi_C8inaSc48NCWBEh43t014dLZRa5PmVqplMttnB_WwThDiQqmNyssFIpd_CxdFUkv6vLaHfH3B1y8CM64ph6ydrC217kzFV2Hv0X7Ui8SmyjAYFDOc0SuJrNkPK66aCpA7C5qSLKlf3pcJjI87j1yoiYKFFfsrDnPHEXIEot2yBg4jLy9kh9iAweYMwnlV3EBktM1BJGtbxLV9QrKEZvCQxztAWi9hVoXaju0YVxXEHuU9g7mGqPYfP6H9akQV4Ep1VDPhD5INyf0KiRxfVQMLhnTuzKUFTgYXyacXtggg1sjqTVBXlh2N8gUq3eXOp-1CBvjqvL5CrSyFbniJVduCEwUjHEeaABPT5itzVpRke4CiblGLnD0y96FDXJcQBRdD7M_ROzRsQgNobkL9efQwQMndczkoFSlz6YjylO7JNnjrusvVMD-trP33VrzPvPkszaMPZPZvbx0g43AhRsiZuMHdg_tjGD_j1nhzGTDhGyB-Aitk3wkgjMDuXTDLK_sL4_5zFbau_IK5sWcto20lj7iHpjsPVsTcSkXjYDZLN4gwT2v0pE_wQhMusjqGRNLKE1WVuSTRvfR5wffBDkbz_wp_d63nWf6GNL9qWQDbz-rWpXKtR45FIZ_auKJHrq3s3hJLxjc-HDDhXhhdphYaoiqdZY3TyPhQvvc5ff-Gov5m05lBjkeTJvNEpgV9X-Pj9xQioUuvK4HxyJ1tchTGSi3AuxGA86zKDiDeoTNnN1r2OmWHp3ECa6H2U4d4DPxdrD8zHl6Oup_KL0K53xW4pX1n1mRV2XRUj0-jTW08puIIS05TxGrE2WImf_ckGeqq94pu4YD5KI63xebRIjhQ5WHmvmRQYjhg7jX3KM9WkJcxVp4nDYOprSZ8uJZXCSkhAsieiXRcwEpUsNHB2yJNcO5dk5S36GXnCX25UP94Co1FxrPjbzUyBkJ4W_vFeNtS8ypJDtRHFSsqRrDT6yJtTl4_twRk6tzgRmxTHFF4b62pODxlNsN-wvu1ovCCpAU9c5yUG3tNXtg7Hpg7S2-wHbigI-Y2rFNPx0aAAAVu00hoI9xNx4srqKqoSmo-8u2Uon4Xl2jCE4dns_K1FWQFykA0X-2ROGcxqtz1VglUCPOAw88cU1xKsYSF60KJWOBln1W-U0GlZipuHb4Ds6jAKmGVCFMzC4MayK8wAR_0000]--></g></svg>