<svg xmlns="http://www.w3.org/2000/svg" xmlns:xlink="http://www.w3.org/1999/xlink" contentStyleType="text/css" height="1289px" preserveAspectRatio="none" style="width:1221px;height:1289px;background:#FFFFFF;" version="1.1" viewBox="0 0 1221 1289" width="1221px" zoomAndPan="magnify"><defs/><g><rect fill="#F1F1F1" height="37.6094" rx="12.5" ry="12.5" style="stroke:#181818;stroke-width:1.5;" width="90" x="10" y="624.8984"/><text fill="#000000" font-family="sans-serif" font-size="14" lengthAdjust="spacing" textLength="70" x="20" y="649.4316">&#21009;&#27861;&#30340;&#25928;&#21147;</text><rect fill="#F1F1F1" height="37.6094" rx="12.5" ry="12.5" style="stroke:#181818;stroke-width:1.5;" width="76" x="150" y="509.6797"/><text fill="#000000" font-family="sans-serif" font-size="14" lengthAdjust="spacing" textLength="56" x="160" y="534.2129">&#31354;&#38388;&#25928;&#21147;</text><rect fill="#F1F1F1" height="37.6094" rx="12.5" ry="12.5" style="stroke:#181818;stroke-width:1.5;" width="76" x="276" y="336.8516"/><text fill="#000000" font-family="sans-serif" font-size="14" lengthAdjust="spacing" textLength="56" x="286" y="361.3848">&#20013;&#22269;&#22659;&#20869;</text><rect fill="#F1F1F1" height="37.6094" rx="12.5" ry="12.5" style="stroke:#181818;stroke-width:1.5;" width="48" x="402" y="77.6094"/><text fill="#000000" font-family="sans-serif" font-size="14" lengthAdjust="spacing" textLength="28" x="412" y="102.1426">&#22659;&#20869;</text><rect fill="#F1F1F1" height="37.6094" rx="12.5" ry="12.5" style="stroke:#181818;stroke-width:1.5;" width="132" x="500" y="20"/><text fill="#000000" font-family="sans-serif" font-size="14" lengthAdjust="spacing" textLength="112" x="510" y="44.5332">&#39046;&#22303;&#12289;&#39046;&#31354;&#12289;&#39046;&#28023;</text><path d="M450,96.4141 L460,96.4141 C475,96.4141 475,38.8047 490,38.8047 L500,38.8047 " fill="none" style="stroke:#181818;stroke-width:1;"/><rect fill="#F1F1F1" height="37.6094" rx="12.5" ry="12.5" style="stroke:#181818;stroke-width:1.5;" width="76" x="500" y="106.4141"/><text fill="#000000" font-family="sans-serif" font-size="14" lengthAdjust="spacing" textLength="56" x="510" y="130.9473">&#20132;&#36890;&#24037;&#20855;</text><rect fill="#90EE90" height="37.6094" rx="12.5" ry="12.5" style="stroke:#181818;stroke-width:1.5;" width="191.8896" x="626" y="77.6094"/><text fill="#000000" font-family="sans-serif" font-size="14" lengthAdjust="spacing" textLength="168" x="636" y="102.1426">&#26159;&#65306;&#26071;&#22269;&#20027;&#20041;&#65292;&#39134;&#26426;&#12289;&#33337;&#21482;</text><path d="M576,125.2188 L586,125.2188 C601,125.2188 601,96.4141 616,96.4141 L626,96.4141 " fill="none" style="stroke:#181818;stroke-width:1;"/><rect fill="#F1F1F1" height="37.6094" rx="12.5" ry="12.5" style="stroke:#181818;stroke-width:1.5;" width="118" x="626" y="135.2188"/><text fill="#000000" font-family="sans-serif" font-size="14" lengthAdjust="spacing" textLength="98" x="636" y="159.752">&#21542;&#65306;&#28779;&#36710;&#12289;&#27773;&#36710;</text><path d="M576,125.2188 L586,125.2188 C601,125.2188 601,154.0234 616,154.0234 L626,154.0234 " fill="none" style="stroke:#181818;stroke-width:1;"/><path d="M450,96.4141 L460,96.4141 C475,96.4141 475,125.2188 490,125.2188 L500,125.2188 " fill="none" style="stroke:#181818;stroke-width:1;"/><path d="M352,355.6563 L362,355.6563 C377,355.6563 377,96.4141 392,96.4141 L402,96.4141 " fill="none" style="stroke:#181818;stroke-width:1;"/><rect fill="#90EE90" height="37.6094" rx="12.5" ry="12.5" style="stroke:#181818;stroke-width:1.5;" width="79.8896" x="402" y="423.2656"/><text fill="#000000" font-family="sans-serif" font-size="14" lengthAdjust="spacing" textLength="56" x="412" y="447.7988">&#23646;&#22320;&#31649;&#36758;</text><rect fill="#F1F1F1" height="37.6094" rx="12.5" ry="12.5" style="stroke:#181818;stroke-width:1.5;" width="90" x="531.8896" y="308.0469"/><text fill="#000000" font-family="sans-serif" font-size="14" lengthAdjust="spacing" textLength="70" x="541.8896" y="332.5801">&#29359;&#32618;&#34892;&#20026;&#22320;</text><rect fill="#F1F1F1" height="37.6094" rx="12.5" ry="12.5" style="stroke:#181818;stroke-width:1.5;" width="104" x="671.8896" y="250.4375"/><text fill="#000000" font-family="sans-serif" font-size="14" lengthAdjust="spacing" textLength="84" x="681.8896" y="274.9707">&#20849;&#21516;&#29359;&#32618;&#35282;&#24230;</text><rect fill="#F1F1F1" height="37.6094" rx="12.5" ry="12.5" style="stroke:#181818;stroke-width:1.5;" width="90" x="825.8896" y="192.8281"/><text fill="#000000" font-family="sans-serif" font-size="14" lengthAdjust="spacing" textLength="70" x="835.8896" y="217.3613">&#23454;&#34892;&#34892;&#20026;&#22320;</text><path d="M775.8896,269.2422 L785.8896,269.2422 C800.8896,269.2422 800.8896,211.6328 815.8896,211.6328 L825.8896,211.6328 " fill="none" style="stroke:#181818;stroke-width:1;"/><rect fill="#F1F1F1" height="37.6094" rx="12.5" ry="12.5" style="stroke:#181818;stroke-width:1.5;" width="230" x="825.8896" y="250.4375"/><text fill="#000000" font-family="sans-serif" font-size="14" lengthAdjust="spacing" textLength="210" x="835.8896" y="274.9707">&#25945;&#21766;&#34892;&#20026;&#22320;&#65288;&#29399;&#34507;&#25945;&#21766;&#23567;&#33459;&#26432;&#20154;&#65289;</text><path d="M775.8896,269.2422 L785.8896,269.2422 C800.8896,269.2422 800.8896,269.2422 815.8896,269.2422 L825.8896,269.2422 " fill="none" style="stroke:#181818;stroke-width:1;"/><rect fill="#F1F1F1" height="37.6094" rx="12.5" ry="12.5" style="stroke:#181818;stroke-width:1.5;" width="90" x="825.8896" y="308.0469"/><text fill="#000000" font-family="sans-serif" font-size="14" lengthAdjust="spacing" textLength="70" x="835.8896" y="332.5801">&#24110;&#21161;&#34892;&#20026;&#22320;</text><path d="M775.8896,269.2422 L785.8896,269.2422 C800.8896,269.2422 800.8896,326.8516 815.8896,326.8516 L825.8896,326.8516 " fill="none" style="stroke:#181818;stroke-width:1;"/><path d="M621.8896,326.8516 L631.8896,326.8516 C646.8896,326.8516 646.8896,269.2422 661.8896,269.2422 L671.8896,269.2422 " fill="none" style="stroke:#181818;stroke-width:1;"/><rect fill="#F1F1F1" height="37.6094" rx="12.5" ry="12.5" style="stroke:#181818;stroke-width:1.5;" width="104" x="671.8896" y="394.4609"/><text fill="#000000" font-family="sans-serif" font-size="14" lengthAdjust="spacing" textLength="84" x="681.8896" y="418.9941">&#29359;&#32618;&#24418;&#24577;&#35282;&#24230;</text><rect fill="#F1F1F1" height="37.6094" rx="12.5" ry="12.5" style="stroke:#181818;stroke-width:1.5;" width="90" x="825.8896" y="365.6563"/><text fill="#000000" font-family="sans-serif" font-size="14" lengthAdjust="spacing" textLength="70" x="835.8896" y="390.1895">&#23454;&#34892;&#34892;&#20026;&#22320;</text><path d="M775.8896,413.2656 L785.8896,413.2656 C800.8896,413.2656 800.8896,384.4609 815.8896,384.4609 L825.8896,384.4609 " fill="none" style="stroke:#181818;stroke-width:1;"/><rect fill="#F1F1F1" height="37.6094" rx="12.5" ry="12.5" style="stroke:#181818;stroke-width:1.5;" width="230" x="825.8896" y="423.2656"/><text fill="#000000" font-family="sans-serif" font-size="14" lengthAdjust="spacing" textLength="210" x="835.8896" y="447.7988">&#39044;&#22791;&#34892;&#20026;&#22320;&#65288;&#29399;&#34507;&#22312;&#20113;&#21335;&#20080;&#28856;&#33647;&#65289;</text><path d="M775.8896,413.2656 L785.8896,413.2656 C800.8896,413.2656 800.8896,442.0703 815.8896,442.0703 L825.8896,442.0703 " fill="none" style="stroke:#181818;stroke-width:1;"/><path d="M621.8896,326.8516 L631.8896,326.8516 C646.8896,326.8516 646.8896,413.2656 661.8896,413.2656 L671.8896,413.2656 " fill="none" style="stroke:#181818;stroke-width:1;"/><path d="M481.8896,442.0703 L491.8896,442.0703 C506.8896,442.0703 506.8896,326.8516 521.8896,326.8516 L531.8896,326.8516 " fill="none" style="stroke:#181818;stroke-width:1;"/><rect fill="#F1F1F1" height="37.6094" rx="12.5" ry="12.5" style="stroke:#181818;stroke-width:1.5;" width="90" x="531.8896" y="567.2891"/><text fill="#000000" font-family="sans-serif" font-size="14" lengthAdjust="spacing" textLength="70" x="541.8896" y="591.8223">&#29359;&#32618;&#32467;&#26524;&#22320;</text><rect fill="#F1F1F1" height="37.6094" rx="12.5" ry="12.5" style="stroke:#181818;stroke-width:1.5;" width="104" x="671.8896" y="509.6797"/><text fill="#000000" font-family="sans-serif" font-size="14" lengthAdjust="spacing" textLength="84" x="681.8896" y="534.2129">&#20849;&#21516;&#29359;&#32618;&#35282;&#24230;</text><rect fill="#F1F1F1" height="37.6094" rx="12.5" ry="12.5" style="stroke:#181818;stroke-width:1.5;" width="90" x="825.8896" y="480.875"/><text fill="#000000" font-family="sans-serif" font-size="14" lengthAdjust="spacing" textLength="70" x="835.8896" y="505.4082">&#25972;&#20307;&#32467;&#26524;&#22320;</text><path d="M775.8896,528.4844 L785.8896,528.4844 C800.8896,528.4844 800.8896,499.6797 815.8896,499.6797 L825.8896,499.6797 " fill="none" style="stroke:#181818;stroke-width:1;"/><rect fill="#F1F1F1" height="37.6094" rx="12.5" ry="12.5" style="stroke:#181818;stroke-width:1.5;" width="146" x="825.8896" y="538.4844"/><text fill="#000000" font-family="sans-serif" font-size="14" lengthAdjust="spacing" textLength="126" x="835.8896" y="563.0176">&#37096;&#20998;&#20849;&#29359;&#20154;&#30340;&#32467;&#26524;&#22320;</text><path d="M775.8896,528.4844 L785.8896,528.4844 C800.8896,528.4844 800.8896,557.2891 815.8896,557.2891 L825.8896,557.2891 " fill="none" style="stroke:#181818;stroke-width:1;"/><path d="M621.8896,586.0938 L631.8896,586.0938 C646.8896,586.0938 646.8896,528.4844 661.8896,528.4844 L671.8896,528.4844 " fill="none" style="stroke:#181818;stroke-width:1;"/><rect fill="#F1F1F1" height="37.6094" rx="12.5" ry="12.5" style="stroke:#181818;stroke-width:1.5;" width="104" x="671.8896" y="624.8984"/><text fill="#000000" font-family="sans-serif" font-size="14" lengthAdjust="spacing" textLength="84" x="681.8896" y="649.4316">&#29359;&#32618;&#24418;&#24577;&#35282;&#24230;</text><rect fill="#F1F1F1" height="37.6094" rx="12.5" ry="12.5" style="stroke:#181818;stroke-width:1.5;" width="90" x="825.8896" y="596.0938"/><text fill="#000000" font-family="sans-serif" font-size="14" lengthAdjust="spacing" textLength="70" x="835.8896" y="620.627">&#23454;&#23475;&#32467;&#26524;&#22320;</text><path d="M775.8896,643.7031 L785.8896,643.7031 C800.8896,643.7031 800.8896,614.8984 815.8896,614.8984 L825.8896,614.8984 " fill="none" style="stroke:#181818;stroke-width:1;"/><rect fill="#F1F1F1" height="37.6094" rx="12.5" ry="12.5" style="stroke:#181818;stroke-width:1.5;" width="90" x="825.8896" y="653.7031"/><text fill="#000000" font-family="sans-serif" font-size="14" lengthAdjust="spacing" textLength="70" x="835.8896" y="678.2363">&#21361;&#38505;&#21457;&#29983;&#22320;</text><path d="M775.8896,643.7031 L785.8896,643.7031 C800.8896,643.7031 800.8896,672.5078 815.8896,672.5078 L825.8896,672.5078 " fill="none" style="stroke:#181818;stroke-width:1;"/><path d="M621.8896,586.0938 L631.8896,586.0938 C646.8896,586.0938 646.8896,643.7031 661.8896,643.7031 L671.8896,643.7031 " fill="none" style="stroke:#181818;stroke-width:1;"/><path d="M481.8896,442.0703 L491.8896,442.0703 C506.8896,442.0703 506.8896,586.0938 521.8896,586.0938 L531.8896,586.0938 " fill="none" style="stroke:#181818;stroke-width:1;"/><path d="M352,355.6563 L362,355.6563 C377,355.6563 377,442.0703 392,442.0703 L402,442.0703 " fill="none" style="stroke:#181818;stroke-width:1;"/><path d="M226,528.4844 L236,528.4844 C251,528.4844 251,355.6563 266,355.6563 L276,355.6563 " fill="none" style="stroke:#181818;stroke-width:1;"/><rect fill="#F1F1F1" height="37.6094" rx="12.5" ry="12.5" style="stroke:#181818;stroke-width:1.5;" width="76" x="276" y="855.3359"/><text fill="#000000" font-family="sans-serif" font-size="14" lengthAdjust="spacing" textLength="56" x="286" y="879.8691">&#20013;&#22269;&#22659;&#22806;</text><rect fill="#90EE90" height="37.6094" rx="12.5" ry="12.5" style="stroke:#181818;stroke-width:1.5;" width="79.8896" x="402" y="740.1172"/><text fill="#000000" font-family="sans-serif" font-size="14" lengthAdjust="spacing" textLength="56" x="412" y="764.6504">&#23646;&#20154;&#31649;&#36758;</text><rect fill="#F1F1F1" height="37.6094" rx="12.5" ry="12.5" style="stroke:#181818;stroke-width:1.5;" width="132" x="531.8896" y="740.1172"/><text fill="#000000" font-family="sans-serif" font-size="14" lengthAdjust="spacing" textLength="112" x="541.8896" y="764.6504">&#20013;&#22269;&#20154;&#22312;&#22659;&#22806;&#29359;&#32618;</text><rect fill="#F1F1F1" height="37.6094" rx="12.5" ry="12.5" style="stroke:#181818;stroke-width:1.5;" width="146" x="713.8896" y="711.3125"/><text fill="#000000" font-family="sans-serif" font-size="14" lengthAdjust="spacing" textLength="126" x="723.8896" y="735.8457">&#29359;&#36731;&#32618;&#65292;&#21487;&#20197;&#19981;&#36861;&#31350;</text><path d="M663.8896,758.9219 L673.8896,758.9219 C688.8896,758.9219 688.8896,730.1172 703.8896,730.1172 L713.8896,730.1172 " fill="none" style="stroke:#181818;stroke-width:1;"/><rect fill="#F1F1F1" height="37.6094" rx="12.5" ry="12.5" style="stroke:#181818;stroke-width:1.5;" width="216" x="713.8896" y="768.9219"/><text fill="#000000" font-family="sans-serif" font-size="14" lengthAdjust="spacing" textLength="196" x="723.8896" y="793.4551">&#22269;&#23478;&#24037;&#20316;&#20154;&#21592;&#21644;&#20891;&#20154;&#65292;&#19968;&#24459;&#36861;&#31350;</text><path d="M663.8896,758.9219 L673.8896,758.9219 C688.8896,758.9219 688.8896,787.7266 703.8896,787.7266 L713.8896,787.7266 " fill="none" style="stroke:#181818;stroke-width:1;"/><path d="M481.8896,758.9219 L491.8896,758.9219 C506.8896,758.9219 506.8896,758.9219 521.8896,758.9219 L531.8896,758.9219 " fill="none" style="stroke:#181818;stroke-width:1;"/><path d="M352,874.1406 L362,874.1406 C377,874.1406 377,758.9219 392,758.9219 L402,758.9219 " fill="none" style="stroke:#181818;stroke-width:1;"/><rect fill="#90EE90" height="37.6094" rx="12.5" ry="12.5" style="stroke:#181818;stroke-width:1.5;" width="79.8896" x="402" y="884.1406"/><text fill="#000000" font-family="sans-serif" font-size="14" lengthAdjust="spacing" textLength="56" x="412" y="908.6738">&#20445;&#25252;&#31649;&#36758;</text><rect fill="#F1F1F1" height="37.6094" rx="12.5" ry="12.5" style="stroke:#181818;stroke-width:1.5;" width="188" x="531.8896" y="855.3359"/><text fill="#000000" font-family="sans-serif" font-size="14" lengthAdjust="spacing" textLength="168" x="541.8896" y="879.8691">&#22806;&#22269;&#20154;&#22312;&#22659;&#22806;&#23545;&#20013;&#22269;&#20154;&#29359;&#32618;</text><rect fill="#F1F1F1" height="37.6094" rx="12.5" ry="12.5" style="stroke:#181818;stroke-width:1.5;" width="62" x="769.8896" y="826.5313"/><text fill="#000000" font-family="sans-serif" font-size="14" lengthAdjust="spacing" textLength="42" x="779.8896" y="851.0645">&#29359;&#37325;&#32618;</text><path d="M719.8896,874.1406 L729.8896,874.1406 C744.8896,874.1406 744.8896,845.3359 759.8896,845.3359 L769.8896,845.3359 " fill="none" style="stroke:#181818;stroke-width:1;"/><rect fill="#F1F1F1" height="37.6094" rx="12.5" ry="12.5" style="stroke:#181818;stroke-width:1.5;" width="104" x="769.8896" y="884.1406"/><text fill="#000000" font-family="sans-serif" font-size="14" lengthAdjust="spacing" textLength="84" x="779.8896" y="908.6738">&#21452;&#37325;&#29359;&#32618;&#21407;&#21017;</text><path d="M719.8896,874.1406 L729.8896,874.1406 C744.8896,874.1406 744.8896,902.9453 759.8896,902.9453 L769.8896,902.9453 " fill="none" style="stroke:#181818;stroke-width:1;"/><path d="M481.8896,902.9453 L491.8896,902.9453 C506.8896,902.9453 506.8896,874.1406 521.8896,874.1406 L531.8896,874.1406 " fill="none" style="stroke:#181818;stroke-width:1;"/><rect fill="#F1F1F1" height="37.6094" rx="12.5" ry="12.5" style="stroke:#181818;stroke-width:1.5;" width="677.9727" x="531.8896" y="941.75"/><text fill="#000000" font-family="sans-serif" font-size="14" lengthAdjust="spacing" textLength="657.9727" x="541.8896" y="966.2832">&#20363;&#22806;&#65306;&#22312;&#22269;&#22806;&#65292;&#20013;&#22269;&#20154;&#23545;&#20013;&#22269;&#20154;&#29359;&#32618;&#65292;&#19981;&#23646;&#20110;&#8220;&#20445;&#25252;&#31649;&#36758;&#8221;&#65292;&#22240;&#20026;&#19981;&#26159;&#8220;&#22806;&#22269;&#20154;&#8221;&#23454;&#34892;&#30340;&#29359;&#32618;&#65292;&#24212;&#26159;&#8220;&#23646;&#20154;&#31649;&#36758;&#8221;&#12290;</text><path d="M481.8896,902.9453 L491.8896,902.9453 C506.8896,902.9453 506.8896,960.5547 521.8896,960.5547 L531.8896,960.5547 " fill="none" style="stroke:#181818;stroke-width:1;"/><path d="M352,874.1406 L362,874.1406 C377,874.1406 377,902.9453 392,902.9453 L402,902.9453 " fill="none" style="stroke:#181818;stroke-width:1;"/><rect fill="#F1F1F1" height="37.6094" rx="12.5" ry="12.5" style="stroke:#181818;stroke-width:1.5;" width="76" x="402" y="999.3594"/><text fill="#000000" font-family="sans-serif" font-size="14" lengthAdjust="spacing" textLength="56" x="412" y="1023.8926">&#26222;&#36941;&#31649;&#36758;</text><rect fill="#F1F1F1" height="37.6094" rx="12.5" ry="12.5" style="stroke:#181818;stroke-width:1.5;" width="76" x="528" y="999.3594"/><text fill="#000000" font-family="sans-serif" font-size="14" lengthAdjust="spacing" textLength="56" x="538" y="1023.8926">&#22269;&#38469;&#29359;&#32618;</text><path d="M478,1018.1641 L488,1018.1641 C503,1018.1641 503,1018.1641 518,1018.1641 L528,1018.1641 " fill="none" style="stroke:#181818;stroke-width:1;"/><path d="M352,874.1406 L362,874.1406 C377,874.1406 377,1018.1641 392,1018.1641 L402,1018.1641 " fill="none" style="stroke:#181818;stroke-width:1;"/><path d="M226,528.4844 L236,528.4844 C251,528.4844 251,874.1406 266,874.1406 L276,874.1406 " fill="none" style="stroke:#181818;stroke-width:1;"/><path d="M100,643.7031 L110,643.7031 C125,643.7031 125,528.4844 140,528.4844 L150,528.4844 " fill="none" style="stroke:#181818;stroke-width:1;"/><rect fill="#F1F1F1" height="37.6094" rx="12.5" ry="12.5" style="stroke:#181818;stroke-width:1.5;" width="76" x="150" y="1143.3828"/><text fill="#000000" font-family="sans-serif" font-size="14" lengthAdjust="spacing" textLength="56" x="160" y="1167.916">&#26102;&#38388;&#25928;&#21147;</text><rect fill="#F1F1F1" height="37.6094" rx="12.5" ry="12.5" style="stroke:#181818;stroke-width:1.5;" width="286" x="276" y="1085.7734"/><text fill="#000000" font-family="sans-serif" font-size="14" lengthAdjust="spacing" textLength="266" x="286" y="1110.3066">&#21009;&#27861;&#26465;&#25991;&#65288;&#25110;&#27861;&#26465;&#20462;&#35746;&#65289;&#65288;&#27861;&#26465;&#30340;&#26377;&#21644;&#26080;&#65289;</text><rect fill="#90EE90" height="37.6094" rx="12.5" ry="12.5" style="stroke:#181818;stroke-width:1.5;" width="79.8896" x="612" y="1056.9688"/><text fill="#000000" font-family="sans-serif" font-size="14" lengthAdjust="spacing" textLength="56" x="622" y="1081.502">&#26410;&#20915;&#26696;&#20214;</text><rect fill="#90EE90" height="37.6094" rx="12.5" ry="12.5" style="stroke:#181818;stroke-width:1.5;" width="93.8896" x="741.8896" y="1056.9688"/><text fill="#000000" font-family="sans-serif" font-size="14" lengthAdjust="spacing" textLength="70" x="751.8896" y="1081.502">&#20174;&#26087;&#20860;&#20174;&#36731;</text><path d="M691.8896,1075.7734 L701.8896,1075.7734 C716.8896,1075.7734 716.8896,1075.7734 731.8896,1075.7734 L741.8896,1075.7734 " fill="none" style="stroke:#181818;stroke-width:1;"/><path d="M562,1104.5781 L572,1104.5781 C587,1104.5781 587,1075.7734 602,1075.7734 L612,1075.7734 " fill="none" style="stroke:#181818;stroke-width:1;"/><rect fill="#90EE90" height="37.6094" rx="12.5" ry="12.5" style="stroke:#181818;stroke-width:1.5;" width="121.8896" x="612" y="1114.5781"/><text fill="#000000" font-family="sans-serif" font-size="14" lengthAdjust="spacing" textLength="98" x="622" y="1139.1113">&#24050;&#20915;&#26696;&#20214;&#65306;&#20174;&#26087;</text><rect fill="#F1F1F1" height="37.6094" rx="12.5" ry="12.5" style="stroke:#181818;stroke-width:1.5;" width="384" x="783.8896" y="1114.5781"/><text fill="#000000" font-family="sans-serif" font-size="14" lengthAdjust="spacing" textLength="364" x="793.8896" y="1139.1113">&#20877;&#23457;&#26696;&#20214;&#65306;&#20174;&#26087;&#65288;&#29399;&#34507;&#21028;&#27969;&#27667;&#32618;&#65292;&#37322;&#25918;&#65292;&#20877;&#23457;&#65292;&#25353;&#26087;&#27861;&#21028;&#65289;</text><path d="M733.8896,1133.3828 L743.8896,1133.3828 C758.8896,1133.3828 758.8896,1133.3828 773.8896,1133.3828 L783.8896,1133.3828 " fill="none" style="stroke:#181818;stroke-width:1;"/><path d="M562,1104.5781 L572,1104.5781 C587,1104.5781 587,1133.3828 602,1133.3828 L612,1133.3828 " fill="none" style="stroke:#181818;stroke-width:1;"/><path d="M226,1162.1875 L236,1162.1875 C251,1162.1875 251,1104.5781 266,1104.5781 L276,1104.5781 " fill="none" style="stroke:#181818;stroke-width:1;"/><rect fill="#F1F1F1" height="37.6094" rx="12.5" ry="12.5" style="stroke:#181818;stroke-width:1.5;" width="230" x="276" y="1200.9922"/><text fill="#000000" font-family="sans-serif" font-size="14" lengthAdjust="spacing" textLength="210" x="286" y="1225.5254">&#21496;&#27861;&#35299;&#37322;&#65288;&#27861;&#26465;&#26377;&#65292;&#20294;&#35299;&#37322;&#19981;&#21516;&#65289;</text><rect fill="#F1F1F1" height="37.6094" rx="12.5" ry="12.5" style="stroke:#181818;stroke-width:1.5;" width="76" x="556" y="1172.1875"/><text fill="#000000" font-family="sans-serif" font-size="14" lengthAdjust="spacing" textLength="56" x="566" y="1196.7207">&#21069;&#26080;&#21518;&#26377;</text><path d="M506,1219.7969 L516,1219.7969 C531,1219.7969 531,1190.9922 546,1190.9922 L556,1190.9922 " fill="none" style="stroke:#181818;stroke-width:1;"/><rect fill="#F1F1F1" height="37.6094" rx="12.5" ry="12.5" style="stroke:#181818;stroke-width:1.5;" width="76" x="556" y="1229.7969"/><text fill="#000000" font-family="sans-serif" font-size="14" lengthAdjust="spacing" textLength="56" x="566" y="1254.3301">&#21069;&#26377;&#21518;&#26377;</text><rect fill="#F1F1F1" height="37.6094" rx="12.5" ry="12.5" style="stroke:#181818;stroke-width:1.5;" width="90" x="682" y="1229.7969"/><text fill="#000000" font-family="sans-serif" font-size="14" lengthAdjust="spacing" textLength="70" x="692" y="1254.3301">&#20174;&#26087;&#20860;&#20174;&#36731;</text><path d="M632,1248.6016 L642,1248.6016 C657,1248.6016 657,1248.6016 672,1248.6016 L682,1248.6016 " fill="none" style="stroke:#181818;stroke-width:1;"/><path d="M506,1219.7969 L516,1219.7969 C531,1219.7969 531,1248.6016 546,1248.6016 L556,1248.6016 " fill="none" style="stroke:#181818;stroke-width:1;"/><path d="M226,1162.1875 L236,1162.1875 C251,1162.1875 251,1219.7969 266,1219.7969 L276,1219.7969 " fill="none" style="stroke:#181818;stroke-width:1;"/><path d="M100,643.7031 L110,643.7031 C125,643.7031 125,1162.1875 140,1162.1875 L150,1162.1875 " fill="none" style="stroke:#181818;stroke-width:1;"/><!--SRC=[xLbTJnDP6BwVNt4sUwCcr8yGOmWXIfNi6Z5cGU-7zbX6ftEQcMbDip4fAgL0ouS25IWWY1-usGABOYaK_ulEcRPN_8LzpqnRXhRJ6HClImYPUT_dFEVzFFFcS5rHULaD2f8_o8SuxZT1yebXFqOUpqNpLr6Z8huO4db93GV53eRi06Y78VS88ECuxWAYYLbzRxwuz4AVJz29PGx1pmLKtCgNqvyj8bEivVwbomMwyPp6HsjYKzL4Q2hA6t6QMViH6u47e3KVz2zVcq2r_6OvjaI_lgEZZMeJeh_UFZbQqjDfi4FB7Me7uoT7oVBRLJt3c4k90phz2NLtus1ec5S4fQV7XeVEl0UUuiW_fS9xMAZl5k2XtgNTLPhPAMRNIySBhJaXO1FRnSAdqdfIo-LXaTskexjq9bd1VdX9y- -R0YlWx2hmjQQi16L-aSx5QyYJeqHnCbrQdZJbT6UwDB6dhyIqVFxaQBpLZhaidTXoSi8qdnOsT0ZuhtEYlF62ReurEa4p7xNyB4sbjOETuhDSARNTp8cgMSN3L_fgvXTbG9__h1LUjQQi6F_y8qt4WHoO8SpGJaw6_6mKQNRFZI4qjLjUtABJiyMvDIlIshkR2us5pensLUWc3S0XBoQPwOczcwN28UYXJUdqjdRuJikbIjyAnQrzkmo1aTbzE0IqGePjC_kQlapI-B9HlL0SCNeysOG0BFkseaziklC2pAxpWcuVr5npygWybhBNq-aaqvlfdLgZYSLcKJoUX3tX16BxWyFiENaQsWPR36tAoDFKzrZ6wkhts0gBxV8Rw1l0m049W9f_e3LRa9LabOhcvoemI-81-IFsh2wc-cAsF98o0LpJN9KNHotXWXNf_MPV3lCpew-iwmjZqDfwOi5yrRvbIzaDw6WcD2JiKvGPXvphwJVrdGxqcKyqlgUl9xJ3VSTIFPpIqn_ew14yG17Qmy6yh__LQ24hvah78egdQ7QzRj7fkPNOrB-Cw3klp9YNnoRqkMCMV6CLFEZ9SS23qu2qEifAA0VYqeUtiAWM5mWAgu92t9IpSfX9DWQ8ZgSWS7Hc2l1DL13PHbNJSC5qS1t3T56TCAwV7JYwZJcYXwi8RWfyGEQ3w6yWzWo9OMmy8TJB-nu7P1AM_5uY4Xc9Gc1OPNhGFcLOFoy_bh7V1bxHLi416MEf5RC1iA2Z3k1e5KjaNWhO6Mqggz1GM0w9Tb1JMONQEsPnIYQA7TllVNszlLvl5Hd5eaYUs61DfG7bFDMwTOwL5NsbjVzMQ2-8VCDGDQus408IaR6BN21qHv1mlVoKmkMsBQaOcIGH7vPK6nf5CWA9K1-HL5Cq90AcZXKAlcARf0APG2HUzCf2iEheAL8bGLubJR7tP1pYPPv9VcRPZI4YgqwLu9PBLI6jgbFnksJpaY1qW6gNxSfAEpgM7Ga78650QWrcguF4AL5-Z4FAuwY1VjgmmIqus8P4GHcsFuKiwy_kzcHOKEjZOxFDNQ8wxsHuvOloaWklVBmVgxNDU9zFyDkNz9dJqOdv8NIQOcbVUFVXVluH3ZiqCH7119duBHNeq4BL5SO-8Q88gX31DtoMTcWuONaHktNar0N81Uz87HJWeyQEOpSrLVaoCN8bFFG8-nYzNNJu27nAiUoIDo8Gw223cZWnixYx3lVfGNwsSLltwfbQTln4SF2d-s9bEcZVCBHl6Det3EqRXlODG_k6eNt3qBvXQ7d3S8_zh-9-_nqKmRB2fhJBdYkNhdHwhfqRu5LqbqJGvQleqkMkpiwkpgl8Ep28cFeyTwx_pq6aa30CgSWF8vmi38NPN7EUkyr7UFHN6AQS8Ev2xEtSOFzvD72hAaItf8WW4oa8amrt-q6_2K9_47KWH5G3VBMperTGqG2MmIpqe9-xYH_oOL65fJxY5wH05xe_sDTnZRi34r2O3y16C7DwOJHIvIZe1lu7]--></g></svg>