<svg xmlns="http://www.w3.org/2000/svg" xmlns:xlink="http://www.w3.org/1999/xlink" contentStyleType="text/css" height="420px" preserveAspectRatio="none" style="width:1425px;height:420px;background:#FFFFFF;" version="1.1" viewBox="0 0 1425 420" width="1425px" zoomAndPan="magnify"><defs/><g><rect fill="#F1F1F1" height="37.6094" rx="12.5" ry="12.5" style="stroke:#181818;stroke-width:1.5;" width="76" x="10" y="190.4375"/><text fill="#000000" font-family="sans-serif" font-size="14" lengthAdjust="spacing" textLength="56" x="20" y="214.9707">&#34892;&#20026;&#32467;&#26500;</text><rect fill="#F1F1F1" height="37.6094" rx="12.5" ry="12.5" style="stroke:#181818;stroke-width:1.5;" width="76" x="136" y="132.8281"/><text fill="#000000" font-family="sans-serif" font-size="14" lengthAdjust="spacing" textLength="56" x="146" y="157.3613">&#20154;&#36523;&#29359;&#32618;</text><path d="M86,209.2422 L96,209.2422 C111,209.2422 111,151.6328 126,151.6328 L136,151.6328 " fill="none" style="stroke:#181818;stroke-width:1;"/><rect fill="#F1F1F1" height="37.6094" rx="12.5" ry="12.5" style="stroke:#181818;stroke-width:1.5;" width="76" x="136" y="190.4375"/><text fill="#000000" font-family="sans-serif" font-size="14" lengthAdjust="spacing" textLength="56" x="146" y="214.9707">&#36130;&#20135;&#29359;&#32618;</text><rect fill="#90EE90" height="37.6094" rx="12.5" ry="12.5" style="stroke:#181818;stroke-width:1.5;" width="65.8896" x="262" y="20"/><text fill="#000000" font-family="sans-serif" font-size="14" lengthAdjust="spacing" textLength="42" x="272" y="44.5332">&#20405;&#21344;&#32618;</text><rect fill="#F1F1F1" height="37.6094" rx="12.5" ry="12.5" style="stroke:#181818;stroke-width:1.5;" width="217.5654" x="377.8896" y="20"/><text fill="#000000" font-family="sans-serif" font-size="14" lengthAdjust="spacing" textLength="197.5654" x="387.8896" y="44.5332">1. &#23558;&#20182;&#20154;&#25152;&#26377;&#12289;&#33258;&#24049;&#21344;&#26377;&#30340;&#36130;&#29289;</text><rect fill="#F1F1F1" height="37.6094" rx="12.5" ry="12.5" style="stroke:#181818;stroke-width:1.5;" width="119.5654" x="645.4551" y="20"/><text fill="#000000" font-family="sans-serif" font-size="14" lengthAdjust="spacing" textLength="99.5654" x="655.4551" y="44.5332">2. &#21464;&#25104;&#33258;&#24049;&#25152;&#26377;</text><path d="M595.4551,38.8047 L605.4551,38.8047 C620.4551,38.8047 620.4551,38.8047 635.4551,38.8047 L645.4551,38.8047 " fill="none" style="stroke:#181818;stroke-width:1;"/><path d="M327.8896,38.8047 L337.8896,38.8047 C352.8896,38.8047 352.8896,38.8047 367.8896,38.8047 L377.8896,38.8047 " fill="none" style="stroke:#181818;stroke-width:1;"/><path d="M212,209.2422 L222,209.2422 C237,209.2422 237,38.8047 252,38.8047 L262,38.8047 " fill="none" style="stroke:#181818;stroke-width:1;"/><rect fill="#90EE90" height="37.6094" rx="12.5" ry="12.5" style="stroke:#181818;stroke-width:1.5;" width="65.8896" x="262" y="77.6094"/><text fill="#000000" font-family="sans-serif" font-size="14" lengthAdjust="spacing" textLength="42" x="272" y="102.1426">&#30423;&#31363;&#32618;</text><rect fill="#F1F1F1" height="37.6094" rx="12.5" ry="12.5" style="stroke:#181818;stroke-width:1.5;" width="147.5654" x="377.8896" y="77.6094"/><text fill="#000000" font-family="sans-serif" font-size="14" lengthAdjust="spacing" textLength="127.5654" x="387.8896" y="102.1426">1. &#23558;&#20182;&#20154;&#21344;&#26377;&#30340;&#36130;&#29289;</text><rect fill="#F1F1F1" height="37.6094" rx="12.5" ry="12.5" style="stroke:#181818;stroke-width:1.5;" width="119.5654" x="575.4551" y="77.6094"/><text fill="#000000" font-family="sans-serif" font-size="14" lengthAdjust="spacing" textLength="99.5654" x="585.4551" y="102.1426">2. &#36890;&#36807;&#24179;&#21644;&#25163;&#27573;</text><rect fill="#F1F1F1" height="37.6094" rx="12.5" ry="12.5" style="stroke:#181818;stroke-width:1.5;" width="133.5654" x="745.0205" y="77.6094"/><text fill="#000000" font-family="sans-serif" font-size="14" lengthAdjust="spacing" textLength="113.5654" x="755.0205" y="102.1426">3. &#36716;&#31227;&#20026;&#33258;&#24049;&#21344;&#26377;</text><path d="M695.0205,96.4141 L705.0205,96.4141 C720.0205,96.4141 720.0205,96.4141 735.0205,96.4141 L745.0205,96.4141 " fill="none" style="stroke:#181818;stroke-width:1;"/><path d="M525.4551,96.4141 L535.4551,96.4141 C550.4551,96.4141 550.4551,96.4141 565.4551,96.4141 L575.4551,96.4141 " fill="none" style="stroke:#181818;stroke-width:1;"/><path d="M327.8896,96.4141 L337.8896,96.4141 C352.8896,96.4141 352.8896,96.4141 367.8896,96.4141 L377.8896,96.4141 " fill="none" style="stroke:#181818;stroke-width:1;"/><path d="M212,209.2422 L222,209.2422 C237,209.2422 237,96.4141 252,96.4141 L262,96.4141 " fill="none" style="stroke:#181818;stroke-width:1;"/><rect fill="#90EE90" height="37.6094" rx="12.5" ry="12.5" style="stroke:#181818;stroke-width:1.5;" width="65.8896" x="262" y="135.2188"/><text fill="#000000" font-family="sans-serif" font-size="14" lengthAdjust="spacing" textLength="42" x="272" y="159.752">&#25250;&#22842;&#32618;</text><rect fill="#F1F1F1" height="37.6094" rx="12.5" ry="12.5" style="stroke:#181818;stroke-width:1.5;" width="119.5654" x="377.8896" y="135.2188"/><text fill="#000000" font-family="sans-serif" font-size="14" lengthAdjust="spacing" textLength="99.5654" x="387.8896" y="159.752">1. &#23545;&#29289;&#23454;&#26045;&#26292;&#21147;</text><rect fill="#F1F1F1" height="37.6094" rx="12.5" ry="12.5" style="stroke:#181818;stroke-width:1.5;" width="105.5654" x="547.4551" y="135.2188"/><text fill="#000000" font-family="sans-serif" font-size="14" lengthAdjust="spacing" textLength="85.5654" x="557.4551" y="159.752">2. &#23545;&#20154;&#26377;&#21361;&#38505;</text><path d="M497.4551,154.0234 L507.4551,154.0234 C522.4551,154.0234 522.4551,154.0234 537.4551,154.0234 L547.4551,154.0234 " fill="none" style="stroke:#181818;stroke-width:1;"/><path d="M327.8896,154.0234 L337.8896,154.0234 C352.8896,154.0234 352.8896,154.0234 367.8896,154.0234 L377.8896,154.0234 " fill="none" style="stroke:#181818;stroke-width:1;"/><path d="M212,209.2422 L222,209.2422 C237,209.2422 237,154.0234 252,154.0234 L262,154.0234 " fill="none" style="stroke:#181818;stroke-width:1;"/><rect fill="#90EE90" height="37.6094" rx="12.5" ry="12.5" style="stroke:#181818;stroke-width:1.5;" width="65.8896" x="262" y="201.6328"/><text fill="#000000" font-family="sans-serif" font-size="14" lengthAdjust="spacing" textLength="42" x="272" y="226.166">&#25250;&#21163;&#32618;</text><rect fill="#F1F1F1" height="55.2188" rx="12.5" ry="12.5" style="stroke:#181818;stroke-width:1.5;" width="188" x="377.8896" y="192.8281"/><text fill="#000000" font-family="sans-serif" font-size="14" lengthAdjust="spacing" textLength="141.5654" x="387.8896" y="217.3613">1. &#24102;&#26377;&#38750;&#27861;&#21344;&#26377;&#30446;&#30340;&#65292;</text><text fill="#000000" font-family="sans-serif" font-size="14" lengthAdjust="spacing" textLength="168" x="387.8896" y="234.9707">&#23454;&#26045;&#26292;&#21147;&#12289;&#32961;&#36843;&#31561;&#24378;&#21046;&#25163;&#27573;</text><rect fill="#F1F1F1" height="37.6094" rx="12.5" ry="12.5" style="stroke:#181818;stroke-width:1.5;" width="119.5654" x="615.8896" y="201.6328"/><text fill="#000000" font-family="sans-serif" font-size="14" lengthAdjust="spacing" textLength="99.5654" x="625.8896" y="226.166">2. &#21387;&#21046;&#23545;&#26041;&#21453;&#25239;</text><rect fill="#F1F1F1" height="55.2188" rx="12.5" ry="12.5" style="stroke:#181818;stroke-width:1.5;" width="146" x="785.4551" y="192.8281"/><text fill="#000000" font-family="sans-serif" font-size="14" lengthAdjust="spacing" textLength="113.5654" x="795.4551" y="217.3613">3. &#23545;&#26041;&#22240;&#26080;&#27861;&#21453;&#25239;</text><text fill="#000000" font-family="sans-serif" font-size="14" lengthAdjust="spacing" textLength="126" x="795.4551" y="234.9707">&#32780;&#65288;&#34987;&#36843;&#65289;&#25918;&#24323;&#36130;&#29289;</text><rect fill="#F1F1F1" height="37.6094" rx="12.5" ry="12.5" style="stroke:#181818;stroke-width:1.5;" width="133.5654" x="981.4551" y="201.6328"/><text fill="#000000" font-family="sans-serif" font-size="14" lengthAdjust="spacing" textLength="113.5654" x="991.4551" y="226.166">4. &#34892;&#20026;&#20154;&#21462;&#24471;&#36130;&#29289;</text><path d="M931.4551,220.4375 L941.4551,220.4375 C956.4551,220.4375 956.4551,220.4375 971.4551,220.4375 L981.4551,220.4375 " fill="none" style="stroke:#181818;stroke-width:1;"/><path d="M735.4551,220.4375 L745.4551,220.4375 C760.4551,220.4375 760.4551,220.4375 775.4551,220.4375 L785.4551,220.4375 " fill="none" style="stroke:#181818;stroke-width:1;"/><path d="M565.8896,220.4375 L575.8896,220.4375 C590.8896,220.4375 590.8896,220.4375 605.8896,220.4375 L615.8896,220.4375 " fill="none" style="stroke:#181818;stroke-width:1;"/><path d="M327.8896,220.4375 L337.8896,220.4375 C352.8896,220.4375 352.8896,220.4375 367.8896,220.4375 L377.8896,220.4375 " fill="none" style="stroke:#181818;stroke-width:1;"/><path d="M212,209.2422 L222,209.2422 C237,209.2422 237,220.4375 252,220.4375 L262,220.4375 " fill="none" style="stroke:#181818;stroke-width:1;"/><rect fill="#90EE90" height="37.6094" rx="12.5" ry="12.5" style="stroke:#181818;stroke-width:1.5;" width="93.8896" x="262" y="276.8516"/><text fill="#000000" font-family="sans-serif" font-size="14" lengthAdjust="spacing" textLength="70" x="272" y="301.3848">&#25970;&#35784;&#21202;&#32034;&#32618;</text><rect fill="#F1F1F1" height="55.2188" rx="12.5" ry="12.5" style="stroke:#181818;stroke-width:1.5;" width="161.5654" x="405.8896" y="268.0469"/><text fill="#000000" font-family="sans-serif" font-size="14" lengthAdjust="spacing" textLength="141.5654" x="415.8896" y="292.5801">1. &#24102;&#30528;&#38750;&#27861;&#21344;&#26377;&#30446;&#30340;&#65292;</text><text fill="#000000" font-family="sans-serif" font-size="14" lengthAdjust="spacing" textLength="84" x="415.8896" y="310.1895">&#23454;&#26045;&#24656;&#21523;&#34892;&#20026;</text><rect fill="#F1F1F1" height="37.6094" rx="12.5" ry="12.5" style="stroke:#181818;stroke-width:1.5;" width="147.5654" x="617.4551" y="276.8516"/><text fill="#000000" font-family="sans-serif" font-size="14" lengthAdjust="spacing" textLength="127.5654" x="627.4551" y="301.3848">2. &#23545;&#26041;&#20135;&#29983;&#24656;&#24807;&#24515;&#29702;</text><rect fill="#F1F1F1" height="37.6094" rx="12.5" ry="12.5" style="stroke:#181818;stroke-width:1.5;" width="259.5654" x="815.0205" y="276.8516"/><text fill="#000000" font-family="sans-serif" font-size="14" lengthAdjust="spacing" textLength="239.5654" x="825.0205" y="301.3848">3. &#23545;&#26041;&#22522;&#20110;&#24656;&#24807;&#24515;&#29702;&#65288;&#34987;&#36843;&#65289;&#20132;&#20184;&#36130;&#29289;</text><rect fill="#F1F1F1" height="37.6094" rx="12.5" ry="12.5" style="stroke:#181818;stroke-width:1.5;" width="133.5654" x="1124.5859" y="276.8516"/><text fill="#000000" font-family="sans-serif" font-size="14" lengthAdjust="spacing" textLength="113.5654" x="1134.5859" y="301.3848">4. &#34892;&#20026;&#20154;&#21462;&#24471;&#36130;&#29289;</text><path d="M1074.5859,295.6563 L1084.5859,295.6563 C1099.5859,295.6563 1099.5859,295.6563 1114.5859,295.6563 L1124.5859,295.6563 " fill="none" style="stroke:#181818;stroke-width:1;"/><path d="M765.0205,295.6563 L775.0205,295.6563 C790.0205,295.6563 790.0205,295.6563 805.0205,295.6563 L815.0205,295.6563 " fill="none" style="stroke:#181818;stroke-width:1;"/><path d="M567.4551,295.6563 L577.4551,295.6563 C592.4551,295.6563 592.4551,295.6563 607.4551,295.6563 L617.4551,295.6563 " fill="none" style="stroke:#181818;stroke-width:1;"/><path d="M355.8896,295.6563 L365.8896,295.6563 C380.8896,295.6563 380.8896,295.6563 395.8896,295.6563 L405.8896,295.6563 " fill="none" style="stroke:#181818;stroke-width:1;"/><path d="M212,209.2422 L222,209.2422 C237,209.2422 237,295.6563 252,295.6563 L262,295.6563 " fill="none" style="stroke:#181818;stroke-width:1;"/><rect fill="#90EE90" height="37.6094" rx="12.5" ry="12.5" style="stroke:#181818;stroke-width:1.5;" width="65.8896" x="262" y="352.0703"/><text fill="#000000" font-family="sans-serif" font-size="14" lengthAdjust="spacing" textLength="42" x="272" y="376.6035">&#35784;&#39575;&#32618;</text><rect fill="#F1F1F1" height="55.2188" rx="12.5" ry="12.5" style="stroke:#181818;stroke-width:1.5;" width="161.5654" x="377.8896" y="343.2656"/><text fill="#000000" font-family="sans-serif" font-size="14" lengthAdjust="spacing" textLength="141.5654" x="387.8896" y="367.7988">1. &#24102;&#30528;&#38750;&#27861;&#21344;&#26377;&#30446;&#30340;&#65292;</text><text fill="#000000" font-family="sans-serif" font-size="14" lengthAdjust="spacing" textLength="84" x="387.8896" y="385.4082">&#23454;&#26045;&#27450;&#39575;&#34892;&#20026;</text><rect fill="#F1F1F1" height="37.6094" rx="12.5" ry="12.5" style="stroke:#181818;stroke-width:1.5;" width="189.5654" x="589.4551" y="352.0703"/><text fill="#000000" font-family="sans-serif" font-size="14" lengthAdjust="spacing" textLength="169.5654" x="599.4551" y="376.6035">2. &#23545;&#26041;&#20135;&#29983;&#25110;&#32500;&#25345;&#35748;&#35782;&#38169;&#35823;</text><rect fill="#F1F1F1" height="37.6094" rx="12.5" ry="12.5" style="stroke:#181818;stroke-width:1.5;" width="203.5654" x="829.0205" y="352.0703"/><text fill="#000000" font-family="sans-serif" font-size="14" lengthAdjust="spacing" textLength="183.5654" x="839.0205" y="376.6035">3. &#23545;&#26041;&#22522;&#20110;&#35748;&#35782;&#38169;&#35823;&#22788;&#20998;&#36130;&#29289;</text><rect fill="#F1F1F1" height="37.6094" rx="12.5" ry="12.5" style="stroke:#181818;stroke-width:1.5;" width="133.5654" x="1082.5859" y="352.0703"/><text fill="#000000" font-family="sans-serif" font-size="14" lengthAdjust="spacing" textLength="113.5654" x="1092.5859" y="376.6035">4. &#34892;&#20026;&#20154;&#21462;&#24471;&#36130;&#29289;</text><rect fill="#F1F1F1" height="37.6094" rx="12.5" ry="12.5" style="stroke:#181818;stroke-width:1.5;" width="147.5654" x="1266.1514" y="352.0703"/><text fill="#000000" font-family="sans-serif" font-size="14" lengthAdjust="spacing" textLength="127.5654" x="1276.1514" y="376.6035">5. &#23545;&#26041;&#36973;&#21463;&#36130;&#20135;&#25439;&#22833;</text><path d="M1216.1514,370.875 L1226.1514,370.875 C1241.1514,370.875 1241.1514,370.875 1256.1514,370.875 L1266.1514,370.875 " fill="none" style="stroke:#181818;stroke-width:1;"/><path d="M1032.5859,370.875 L1042.5859,370.875 C1057.5859,370.875 1057.5859,370.875 1072.5859,370.875 L1082.5859,370.875 " fill="none" style="stroke:#181818;stroke-width:1;"/><path d="M779.0205,370.875 L789.0205,370.875 C804.0205,370.875 804.0205,370.875 819.0205,370.875 L829.0205,370.875 " fill="none" style="stroke:#181818;stroke-width:1;"/><path d="M539.4551,370.875 L549.4551,370.875 C564.4551,370.875 564.4551,370.875 579.4551,370.875 L589.4551,370.875 " fill="none" style="stroke:#181818;stroke-width:1;"/><path d="M327.8896,370.875 L337.8896,370.875 C352.8896,370.875 352.8896,370.875 367.8896,370.875 L377.8896,370.875 " fill="none" style="stroke:#181818;stroke-width:1;"/><path d="M212,209.2422 L222,209.2422 C237,209.2422 237,370.875 252,370.875 L262,370.875 " fill="none" style="stroke:#181818;stroke-width:1;"/><path d="M86,209.2422 L96,209.2422 C111,209.2422 111,209.2422 126,209.2422 L136,209.2422 " fill="none" style="stroke:#181818;stroke-width:1;"/><!--SRC=[xLXRJnj757xVNp5LNo0IvX8NHGWXWWDg8nn5DSbJNiRUYRrXTyPQZnqvLIKGYDXS0ae8JY01Yb1H8C6b8MqmjnzJzk8d_aBFUcrO4zQxQVC8GWYV-SvtpdndpXc6tXJ7AbSaAYeuAGZVIJGcfqM20e5M-4xnh4nQapAcFAt8BHQi1N0j5Nj00fiWN4FcRzCddql6_WjzULn0y7KDdPHAPcdBc2mQXvjLaxcxTbBQS9YgoADFsimgs51tDr6I2PoIKZqzPm0Rr1v0sXyJ9_iBmAldH_Gt-Nz6HisdczhVE-0C7ut5SU0tyk_g76td3d2UVQNdvcm7sz-HWR5KC3R7lY83No7B8ulcyLDjxwFsV5hFJ-dRdxx0sTZh0MGUlZSsza53vvOS6UgJQzfwoKU6nJt8HzjUrXSEzSLTRNB9HOxYdYNacxmsirD-_Uv2fCaj7v4-_mxkvRVB-iUNLJcMja6HquFf1zIPW5MdiL7pUCluaDSEIbhkBnSnxCIUJG42qjCNzhJP6Nsou2vQ5RMqgXTMhImgy0VK79a-FSYPQriGy_GWhyyVQGTZBeKwvmi6ggVOAk_iWdPKkE02qhpyqopcjAdd1gpu4SXuEz9OeD4vRUw57TQrJh15gslcLm2jZsrensF6t8IdA2kmZsTE3wSa9wNra_rNtq8IqAEyMVWsOhml0PLlCN8BnlwkFZrgRg-RnOdo_6kpMFIdYjD3Mn_NSXF_NudBtNwe1IwFVj1c2_RyqsTMjFKTGUWbC75hKxUtVWXtLyPhZr0rt99mNCKA-WNY1Q9ocbH-GwWFnuRZAajJCSHafY9PYYUujGwhlrfO4Ql3AX5TuDNL6ZYk4a8RCLS03dJM0vojOPcAQTmjQNkn1ascrQJi1hKNQr3tZJasfRAK6zlt0mDzVQ5G3PabiimUks3jnGfK22XOeaC9ejI81nZb4Ua9GTVRBdMECraKBCTQXtYBx4ItkS1JmzbAhPtOZiOYEw5zO8ebu9JwIaQAKwOI7mL7Q52YvABzdC9ds8PK5XcbB4OeTzE6LgfbryOsHMN0N625hghcHZcGIOnYEQHAPvKzHtAcOCuknTvLIHAhsB9yZTlDA5Evrt7poyKvb9LxTPXFjX1JeCsuMxMhdcvqLdKeYKF1WDGfPgDfvLKeaP2ayxpN1-Y7wHcLfLJ2VTGv_EkZFKv8_A8sBc7kCEuTgRAhM1PJ7xkAOP7mis0u5fD4zoDTDuAzc1z2fwKSxGkVOoIC7v6qHnF3g29KPQBZ17gqKCsZ4YV9KXANCkHcpD4ENunnB1E_6pdV0jG2Ur8h4joSriptSwQgrvz5daf77v6OHU-c3ix0VKrKdxmPYK47LQYP5xEbks-vpmTvVUCsxjMwi-nvHGZmexkr-YV8rUlkwdLtzRgxUjrTlUx- - -lkhlNlitlXGPGXQigwlDe37MqTmS2DfWZcw0xBeFPErDRU5Gns1JjHA3A4hELceIdyqn1AiJJStKY4cqsLecbht3SBjt46ev_JCFmLqeMiJqr3uMOKwQyPKJ_DI2gZ2WnyuVRzi0r2Fp8UIJ9U0NS6M_eaZY94XRJG_R1mYpp4QPc3Quo94erteNj30oqtX46u6D8u3e7WAWx1ZS7LBAn5_WK0]--></g></svg>