<svg xmlns="http://www.w3.org/2000/svg" xmlns:xlink="http://www.w3.org/1999/xlink" contentStyleType="text/css" height="406px" preserveAspectRatio="none" style="width:704px;height:406px;background:#FFFFFF;" version="1.1" viewBox="0 0 704 406" width="704px" zoomAndPan="magnify"><title>&#21152;&#37325;&#29359;-&#20998;&#31867;</title><defs/><g><text fill="#000000" font-family="sans-serif" font-size="14" font-weight="bold" lengthAdjust="spacing" textLength="76.8496" x="312.4063" y="34.5332">&#21152;&#37325;&#29359;-&#20998;&#31867;</text><rect fill="#F1F1F1" height="37.6094" rx="12.5" ry="12.5" style="stroke:#181818;stroke-width:1.5;" width="94.6621" x="10" y="202.6328"/><text fill="#000000" font-family="sans-serif" font-size="14" lengthAdjust="spacing" textLength="74.6621" x="20" y="227.166">&#21152;&#37325;&#29359;-&#20998;&#31867;</text><rect fill="#F1F1F1" height="37.6094" rx="12.5" ry="12.5" style="stroke:#181818;stroke-width:1.5;" width="62" x="154.6621" y="173.8281"/><text fill="#000000" font-family="sans-serif" font-size="14" lengthAdjust="spacing" textLength="42" x="164.6621" y="198.3613">&#20004;&#37096;&#20998;</text><rect fill="#F1F1F1" height="37.6094" rx="12.5" ry="12.5" style="stroke:#181818;stroke-width:1.5;" width="76" x="266.6621" y="58.6094"/><text fill="#000000" font-family="sans-serif" font-size="14" lengthAdjust="spacing" textLength="56" x="276.6621" y="83.1426">&#22522;&#26412;&#37096;&#20998;</text><rect fill="#F1F1F1" height="37.6094" rx="12.5" ry="12.5" style="stroke:#181818;stroke-width:1.5;" width="62" x="392.6621" y="58.6094"/><text fill="#000000" font-family="sans-serif" font-size="14" lengthAdjust="spacing" textLength="42" x="402.6621" y="83.1426">&#25250;&#21163;&#32618;</text><path d="M342.6621,77.4141 L352.6621,77.4141 C367.6621,77.4141 367.6621,77.4141 382.6621,77.4141 L392.6621,77.4141 " fill="none" style="stroke:#181818;stroke-width:1;"/><path d="M216.6621,192.6328 L226.6621,192.6328 C241.6621,192.6328 241.6621,77.4141 256.6621,77.4141 L266.6621,77.4141 " fill="none" style="stroke:#181818;stroke-width:1;"/><rect fill="#F1F1F1" height="37.6094" rx="12.5" ry="12.5" style="stroke:#181818;stroke-width:1.5;" width="76" x="266.6621" y="202.6328"/><text fill="#000000" font-family="sans-serif" font-size="14" lengthAdjust="spacing" textLength="56" x="276.6621" y="227.166">&#21152;&#37325;&#37096;&#20998;</text><rect fill="#F1F1F1" height="37.6094" rx="12.5" ry="12.5" style="stroke:#181818;stroke-width:1.5;" width="76" x="392.6621" y="116.2188"/><text fill="#000000" font-family="sans-serif" font-size="14" lengthAdjust="spacing" textLength="56" x="402.6621" y="140.752">&#32467;&#26524;&#21152;&#37325;</text><rect fill="#F1F1F1" height="37.6094" rx="12.5" ry="12.5" style="stroke:#181818;stroke-width:1.5;" width="118" x="518.6621" y="116.2188"/><text fill="#000000" font-family="sans-serif" font-size="14" lengthAdjust="spacing" textLength="98" x="528.6621" y="140.752">&#25250;&#21163;&#32618;&#33268;&#20154;&#27515;&#20129;</text><path d="M468.6621,135.0234 L478.6621,135.0234 C493.6621,135.0234 493.6621,135.0234 508.6621,135.0234 L518.6621,135.0234 " fill="none" style="stroke:#181818;stroke-width:1;"/><path d="M342.6621,221.4375 L352.6621,221.4375 C367.6621,221.4375 367.6621,135.0234 382.6621,135.0234 L392.6621,135.0234 " fill="none" style="stroke:#181818;stroke-width:1;"/><rect fill="#F1F1F1" height="37.6094" rx="12.5" ry="12.5" style="stroke:#181818;stroke-width:1.5;" width="76" x="392.6621" y="173.8281"/><text fill="#000000" font-family="sans-serif" font-size="14" lengthAdjust="spacing" textLength="56" x="402.6621" y="198.3613">&#24773;&#33410;&#21152;&#37325;</text><rect fill="#F1F1F1" height="37.6094" rx="12.5" ry="12.5" style="stroke:#181818;stroke-width:1.5;" width="76" x="518.6621" y="173.8281"/><text fill="#000000" font-family="sans-serif" font-size="14" lengthAdjust="spacing" textLength="56" x="528.6621" y="198.3613">&#20837;&#25143;&#25250;&#21163;</text><path d="M468.6621,192.6328 L478.6621,192.6328 C493.6621,192.6328 493.6621,192.6328 508.6621,192.6328 L518.6621,192.6328 " fill="none" style="stroke:#181818;stroke-width:1;"/><path d="M342.6621,221.4375 L352.6621,221.4375 C367.6621,221.4375 367.6621,192.6328 382.6621,192.6328 L392.6621,192.6328 " fill="none" style="stroke:#181818;stroke-width:1;"/><rect fill="#F1F1F1" height="37.6094" rx="12.5" ry="12.5" style="stroke:#181818;stroke-width:1.5;" width="76" x="392.6621" y="231.4375"/><text fill="#000000" font-family="sans-serif" font-size="14" lengthAdjust="spacing" textLength="56" x="402.6621" y="255.9707">&#25968;&#39069;&#21152;&#37325;</text><rect fill="#F1F1F1" height="37.6094" rx="12.5" ry="12.5" style="stroke:#181818;stroke-width:1.5;" width="174" x="518.6621" y="231.4375"/><text fill="#000000" font-family="sans-serif" font-size="14" lengthAdjust="spacing" textLength="154" x="528.6621" y="255.9707">&#25250;&#21163;&#25968;&#39069;&#29305;&#21035;&#24040;&#22823;&#30340;&#36130;&#29289;</text><path d="M468.6621,250.2422 L478.6621,250.2422 C493.6621,250.2422 493.6621,250.2422 508.6621,250.2422 L518.6621,250.2422 " fill="none" style="stroke:#181818;stroke-width:1;"/><path d="M342.6621,221.4375 L352.6621,221.4375 C367.6621,221.4375 367.6621,250.2422 382.6621,250.2422 L392.6621,250.2422 " fill="none" style="stroke:#181818;stroke-width:1;"/><rect fill="#F1F1F1" height="37.6094" rx="12.5" ry="12.5" style="stroke:#181818;stroke-width:1.5;" width="76" x="392.6621" y="289.0469"/><text fill="#000000" font-family="sans-serif" font-size="14" lengthAdjust="spacing" textLength="56" x="402.6621" y="313.5801">&#23545;&#35937;&#21152;&#37325;</text><rect fill="#F1F1F1" height="37.6094" rx="12.5" ry="12.5" style="stroke:#181818;stroke-width:1.5;" width="104" x="518.6621" y="289.0469"/><text fill="#000000" font-family="sans-serif" font-size="14" lengthAdjust="spacing" textLength="84" x="528.6621" y="313.5801">&#25250;&#21163;&#20891;&#29992;&#29289;&#36164;</text><path d="M468.6621,307.8516 L478.6621,307.8516 C493.6621,307.8516 493.6621,307.8516 508.6621,307.8516 L518.6621,307.8516 " fill="none" style="stroke:#181818;stroke-width:1;"/><path d="M342.6621,221.4375 L352.6621,221.4375 C367.6621,221.4375 367.6621,307.8516 382.6621,307.8516 L392.6621,307.8516 " fill="none" style="stroke:#181818;stroke-width:1;"/><path d="M216.6621,192.6328 L226.6621,192.6328 C241.6621,192.6328 241.6621,221.4375 256.6621,221.4375 L266.6621,221.4375 " fill="none" style="stroke:#181818;stroke-width:1;"/><path d="M104.6621,221.4375 L114.6621,221.4375 C129.6621,221.4375 129.6621,192.6328 144.6621,192.6328 L154.6621,192.6328 " fill="none" style="stroke:#181818;stroke-width:1;"/><rect fill="#F1F1F1" height="37.6094" rx="12.5" ry="12.5" style="stroke:#181818;stroke-width:1.5;" width="48" x="154.6621" y="346.6563"/><text fill="#000000" font-family="sans-serif" font-size="14" lengthAdjust="spacing" textLength="28" x="164.6621" y="371.1895">&#35760;&#24518;</text><rect fill="#F1F1F1" height="37.6094" rx="12.5" ry="12.5" style="stroke:#181818;stroke-width:1.5;" width="355.6855" x="252.6621" y="346.6563"/><text fill="#000000" font-family="sans-serif" font-size="14" lengthAdjust="spacing" textLength="335.6855" x="262.6621" y="371.1895">&#24773;&#33410;&#65288;&#29615;&#22659;&#65289;&#8594; &#23545;&#35937; &#8594; &#25968;&#39069;&#65288;&#37327;&#21464;&#65289; &#8594; &#32467;&#26524;&#65288;&#36136;&#21464;&#65289;</text><path d="M202.6621,365.4609 L212.6621,365.4609 C227.6621,365.4609 227.6621,365.4609 242.6621,365.4609 L252.6621,365.4609 " fill="none" style="stroke:#181818;stroke-width:1;"/><path d="M104.6621,221.4375 L114.6621,221.4375 C129.6621,221.4375 129.6621,365.4609 144.6621,365.4609 L154.6621,365.4609 " fill="none" style="stroke:#181818;stroke-width:1;"/><!--SRC=[xLTTRnD757sVNp6eBmcI7H9PKHIXAjWaAYX6g0wyZtU7zP3PcTNih965U26G3qij4hHIrT8F8ggcfH2GKb4IAluBodgT9_u2TtUzPEsmtkqpM9QrU- -PS-VUEVVkUi7LH6cR2TCc3aAdc32uPr9SBa_1rzKTJgSSJeJsR5uAOIN0bI9xcO4D8SqqfzZl_dQqyKtGtItvc-l1YmE4Jf-qOVYSneV_FZvQsm5JT1_R_5_tUm__7Z77hbvts-y-2VxxAmsFc3yA3muUz7vv60E6N2Di_Oszm_tztjE3m_r7en7NxlQxjpCf_Bk_zpPVnaIZAxz_VhJzSqxm61HilV8td_WlT_p7VmG_tkdlRGTRVuxG-Rkl-YyUvT3vwpy5t-t0ulu_TmOLxZzxxhz9bpVEwDthpU3RNNzxxTthhRVhzmVqEBoCzmI0eurx_hqV012PusA2kR-t4viHGWiKn988Pc5OFsSZPNo91eRpZ5YAsFWcxANSv1wDhZ2k4cFLKj8JParogJ1dLak7Vl3U2h4cKQkAcXdmWJS1MufICOuv0gJGdHnm9y5AHOILjUdOcK0TJpay2nex4sXsOgcab7IpsBvOMgfMQxK4sQ6SoniPsDWPGL6PsawBkCpDhrKQFJC-_pIq2YQZ1O8h581PGYfQu2mmNcQ2ZjgFAGg67KiLaWaX3Ifq1eqhea9Yl2I5ZarD3fWHLX3yO6z20ncJWl2QOdQIw35IIvje-L7iPKKTeaXe-J_BpZMbqdbAACgbDHohpXD_GRQQjA43TDPf3rPcqOMd8wW51mQawMAE6oHv1sLIwhYhdGXzwqI0HHXiJSxSLlOKIgqVZdQZnVHeRJB2N98wFrAKbT4Xea1M1Z6f_X2C60OpioKzD1tpcAz1fxcfzeLxWzR9TUhbDB7ai0KbpPG2SreeMH75SQJBD6lJSqQg7KvCMC9fqKIEKu2p8BdKDeE7MZYEYsXgy6GAoLslUPqQ8NrMTKWR7gLK5UHjCmaT557BFEQmxeNBVJp8XnjtVAyEQJdt4O7Wv-pKuEtWyplZ9_tEU3dyFt6blepRLBbXtqsNPyxCLCfp4msYyINPnjEp-CpqVAKoNvd5jSOA3jsJQA9-OGMxqeEnWqreIiMQNgZKINIHj0d-sWFTsdGUXtSJA_L9t5XCZ7XHj9cImWQjeejNwp48VoLrmv4w0izMIbMcSOCgs1Q-MaVdwJNYSGrB3MaoOStZAojBfJcq39hsY0M1O8hKGEnQTS3NU0y0]--></g></svg>