<svg xmlns="http://www.w3.org/2000/svg" xmlns:xlink="http://www.w3.org/1999/xlink" contentStyleType="text/css" height="1270px" preserveAspectRatio="none" style="width:1257px;height:1270px;background:#FFFFFF;" version="1.1" viewBox="0 0 1257 1270" width="1257px" zoomAndPan="magnify"><title>&#20998;&#35770;&#27010;&#35828;</title><defs/><g><text fill="#000000" font-family="sans-serif" font-size="14" font-weight="bold" lengthAdjust="spacing" textLength="57.75" x="598.4595" y="34.5332">&#20998;&#35770;&#27010;&#35828;</text><rect fill="#F1F1F1" height="37.6094" rx="12.5" ry="12.5" style="stroke:#181818;stroke-width:1.5;" width="76" x="10" y="634.7031"/><text fill="#000000" font-family="sans-serif" font-size="14" lengthAdjust="spacing" textLength="56" x="20" y="659.2363">&#20998;&#35770;&#27010;&#35828;</text><rect fill="#F1F1F1" height="37.6094" rx="12.5" ry="12.5" style="stroke:#181818;stroke-width:1.5;" width="48" x="136" y="116.2188"/><text fill="#000000" font-family="sans-serif" font-size="14" lengthAdjust="spacing" textLength="28" x="146" y="140.752">&#32618;&#21517;</text><rect fill="#F1F1F1" height="37.6094" rx="12.5" ry="12.5" style="stroke:#181818;stroke-width:1.5;" width="118" x="234" y="116.2188"/><text fill="#000000" font-family="sans-serif" font-size="14" lengthAdjust="spacing" textLength="98" x="244" y="140.752">&#31867;&#32618;&#21517;&#65288;&#31456;&#33410;&#65289;</text><rect fill="#F1F1F1" height="37.6094" rx="12.5" ry="12.5" style="stroke:#181818;stroke-width:1.5;" width="132" x="402" y="116.2188"/><text fill="#000000" font-family="sans-serif" font-size="14" lengthAdjust="spacing" textLength="112" x="412" y="140.752">&#20855;&#20307;&#32618;&#21517;&#65288;&#27861;&#26465;&#65289;</text><rect fill="#F1F1F1" height="37.6094" rx="12.5" ry="12.5" style="stroke:#181818;stroke-width:1.5;" width="76" x="584" y="58.6094"/><text fill="#000000" font-family="sans-serif" font-size="14" lengthAdjust="spacing" textLength="56" x="594" y="83.1426">&#21333;&#19968;&#32618;&#21517;</text><path d="M534,135.0234 L544,135.0234 C559,135.0234 559,77.4141 574,77.4141 L584,77.4141 " fill="none" style="stroke:#181818;stroke-width:1;"/><rect fill="#90EE90" height="37.6094" rx="12.5" ry="12.5" style="stroke:#181818;stroke-width:1.5;" width="93.8896" x="584" y="116.2188"/><text fill="#000000" font-family="sans-serif" font-size="14" lengthAdjust="spacing" textLength="70" x="594" y="140.752">&#36873;&#25321;&#24615;&#32618;&#21517;</text><path d="M534,135.0234 L544,135.0234 C559,135.0234 559,135.0234 574,135.0234 L584,135.0234 " fill="none" style="stroke:#181818;stroke-width:1;"/><rect fill="#F1F1F1" height="37.6094" rx="12.5" ry="12.5" style="stroke:#181818;stroke-width:1.5;" width="76" x="584" y="173.8281"/><text fill="#000000" font-family="sans-serif" font-size="14" lengthAdjust="spacing" textLength="56" x="594" y="198.3613">&#27010;&#25324;&#32618;&#21517;</text><path d="M534,135.0234 L544,135.0234 C559,135.0234 559,192.6328 574,192.6328 L584,192.6328 " fill="none" style="stroke:#181818;stroke-width:1;"/><path d="M352,135.0234 L362,135.0234 C377,135.0234 377,135.0234 392,135.0234 L402,135.0234 " fill="none" style="stroke:#181818;stroke-width:1;"/><path d="M184,135.0234 L194,135.0234 C209,135.0234 209,135.0234 224,135.0234 L234,135.0234 " fill="none" style="stroke:#181818;stroke-width:1;"/><path d="M86,653.5078 L96,653.5078 C111,653.5078 111,135.0234 126,135.0234 L136,135.0234 " fill="none" style="stroke:#181818;stroke-width:1;"/><rect fill="#F1F1F1" height="37.6094" rx="12.5" ry="12.5" style="stroke:#181818;stroke-width:1.5;" width="48" x="136" y="317.8516"/><text fill="#000000" font-family="sans-serif" font-size="14" lengthAdjust="spacing" textLength="28" x="146" y="342.3848">&#32618;&#29366;</text><rect fill="#F1F1F1" height="37.6094" rx="12.5" ry="12.5" style="stroke:#181818;stroke-width:1.5;" width="76" x="234" y="231.4375"/><text fill="#000000" font-family="sans-serif" font-size="14" lengthAdjust="spacing" textLength="56" x="244" y="255.9707">&#31616;&#21333;&#32618;&#29366;</text><path d="M184,336.6563 L194,336.6563 C209,336.6563 209,250.2422 224,250.2422 L234,250.2422 " fill="none" style="stroke:#181818;stroke-width:1;"/><rect fill="#F1F1F1" height="37.6094" rx="12.5" ry="12.5" style="stroke:#181818;stroke-width:1.5;" width="76" x="234" y="289.0469"/><text fill="#000000" font-family="sans-serif" font-size="14" lengthAdjust="spacing" textLength="56" x="244" y="313.5801">&#21465;&#26126;&#32618;&#29366;</text><path d="M184,336.6563 L194,336.6563 C209,336.6563 209,307.8516 224,307.8516 L234,307.8516 " fill="none" style="stroke:#181818;stroke-width:1;"/><rect fill="#87CEEB" height="37.6094" rx="12.5" ry="12.5" style="stroke:#181818;stroke-width:1.5;" width="79.8896" x="234" y="346.6563"/><text fill="#000000" font-family="sans-serif" font-size="14" lengthAdjust="spacing" textLength="56" x="244" y="371.1895">&#24341;&#35777;&#32618;&#29366;</text><rect fill="#F1F1F1" height="37.6094" rx="12.5" ry="12.5" style="stroke:#181818;stroke-width:1.5;" width="160" x="363.8896" y="346.6563"/><text fill="#000000" font-family="sans-serif" font-size="14" lengthAdjust="spacing" textLength="140" x="373.8896" y="371.1895">&#24341;&#29992;&#30340;&#26159;&#21009;&#27861;&#33258;&#36523;&#26465;&#25991;</text><path d="M313.8896,365.4609 L323.8896,365.4609 C338.8896,365.4609 338.8896,365.4609 353.8896,365.4609 L363.8896,365.4609 " fill="none" style="stroke:#181818;stroke-width:1;"/><path d="M184,336.6563 L194,336.6563 C209,336.6563 209,365.4609 224,365.4609 L234,365.4609 " fill="none" style="stroke:#181818;stroke-width:1;"/><rect fill="#87CEEB" height="37.6094" rx="12.5" ry="12.5" style="stroke:#181818;stroke-width:1.5;" width="79.8896" x="234" y="404.2656"/><text fill="#000000" font-family="sans-serif" font-size="14" lengthAdjust="spacing" textLength="56" x="244" y="428.7988">&#31354;&#30333;&#32618;&#29366;</text><rect fill="#F1F1F1" height="37.6094" rx="12.5" ry="12.5" style="stroke:#181818;stroke-width:1.5;" width="146" x="363.8896" y="404.2656"/><text fill="#000000" font-family="sans-serif" font-size="14" lengthAdjust="spacing" textLength="126" x="373.8896" y="428.7988">&#24341;&#29992;&#30340;&#26159;&#34892;&#25919;&#27861;&#26465;&#25991;</text><path d="M313.8896,423.0703 L323.8896,423.0703 C338.8896,423.0703 338.8896,423.0703 353.8896,423.0703 L363.8896,423.0703 " fill="none" style="stroke:#181818;stroke-width:1;"/><path d="M184,336.6563 L194,336.6563 C209,336.6563 209,423.0703 224,423.0703 L234,423.0703 " fill="none" style="stroke:#181818;stroke-width:1;"/><path d="M86,653.5078 L96,653.5078 C111,653.5078 111,336.6563 126,336.6563 L136,336.6563 " fill="none" style="stroke:#181818;stroke-width:1;"/><rect fill="#F1F1F1" height="37.6094" rx="12.5" ry="12.5" style="stroke:#181818;stroke-width:1.5;" width="146" x="136" y="836.3359"/><text fill="#000000" font-family="sans-serif" font-size="14" lengthAdjust="spacing" textLength="126" x="146" y="860.8691">&#20174;&#32618;&#29366;&#21040;&#32618;&#21517;&#30340;&#26144;&#23556;</text><rect fill="#F1F1F1" height="37.6094" rx="12.5" ry="12.5" style="stroke:#181818;stroke-width:1.5;" width="146" x="332" y="461.875"/><text fill="#000000" font-family="sans-serif" font-size="14" lengthAdjust="spacing" textLength="126" x="342" y="486.4082">&#27491;&#24120;&#22788;&#29702;&#65288;&#25968;&#37327;&#22810;&#65289;</text><path d="M282,855.1406 L292,855.1406 C307,855.1406 307,480.6797 322,480.6797 L332,480.6797 " fill="none" style="stroke:#181818;stroke-width:1;"/><rect fill="#F1F1F1" height="37.6094" rx="12.5" ry="12.5" style="stroke:#181818;stroke-width:1.5;" width="146" x="332" y="519.4844"/><text fill="#000000" font-family="sans-serif" font-size="14" lengthAdjust="spacing" textLength="126" x="342" y="544.0176">&#27880;&#24847;&#35268;&#23450;&#65288;&#25968;&#37327;&#23569;&#65289;</text><rect fill="#F1F1F1" height="37.6094" rx="12.5" ry="12.5" style="stroke:#181818;stroke-width:1.5;" width="132" x="528" y="519.4844"/><text fill="#000000" font-family="sans-serif" font-size="14" lengthAdjust="spacing" textLength="112" x="538" y="544.0176">&#25552;&#31034;&#21496;&#27861;&#20154;&#21592;&#27880;&#24847;</text><path d="M478,538.2891 L488,538.2891 C503,538.2891 503,538.2891 518,538.2891 L528,538.2891 " fill="none" style="stroke:#181818;stroke-width:1;"/><path d="M282,855.1406 L292,855.1406 C307,855.1406 307,538.2891 322,538.2891 L332,538.2891 " fill="none" style="stroke:#181818;stroke-width:1;"/><rect fill="#90EE90" height="37.6094" rx="12.5" ry="12.5" style="stroke:#181818;stroke-width:1.5;" width="149.8896" x="332" y="893.9453"/><text fill="#000000" font-family="sans-serif" font-size="14" lengthAdjust="spacing" textLength="126" x="342" y="918.4785">&#27861;&#24459;&#25311;&#21046;&#65288;&#25968;&#37327;&#23569;&#65289;</text><rect fill="#F1F1F1" height="37.6094" rx="12.5" ry="12.5" style="stroke:#181818;stroke-width:1.5;" width="328" x="531.8896" y="577.0938"/><text fill="#000000" font-family="sans-serif" font-size="14" lengthAdjust="spacing" textLength="308" x="541.8896" y="601.627">&#23558;&#21407;&#26412;&#19981;&#31526;&#21512;&#26576;&#31181;&#35268;&#23450;&#30340;&#34892;&#20026;&#65292;&#20063;&#25353;&#29031;&#35813;&#35268;&#23450;&#22788;&#29702;</text><path d="M481.8896,912.75 L491.8896,912.75 C506.8896,912.75 506.8896,595.8984 521.8896,595.8984 L531.8896,595.8984 " fill="none" style="stroke:#181818;stroke-width:1;"/><rect fill="#FFA500" height="37.6094" rx="12.5" ry="12.5" style="stroke:#181818;stroke-width:1.5;" width="121.8896" x="531.8896" y="922.75"/><text fill="#000000" font-family="sans-serif" font-size="14" lengthAdjust="spacing" textLength="98" x="541.8896" y="947.2832">&#24120;&#32771;&#30340;&#27861;&#24459;&#25311;&#21046;</text><rect fill="#90EE90" height="37.6094" rx="12.5" ry="12.5" style="stroke:#181818;stroke-width:1.5;" width="93.8896" x="703.7793" y="836.3359"/><text fill="#000000" font-family="sans-serif" font-size="14" lengthAdjust="spacing" textLength="70" x="713.7793" y="860.8691">&#25925;&#24847;&#26432;&#20154;&#32618;</text><rect fill="#F1F1F1" height="37.6094" rx="12.5" ry="12.5" style="stroke:#181818;stroke-width:1.5;" width="62" x="847.6689" y="692.3125"/><text fill="#000000" font-family="sans-serif" font-size="14" lengthAdjust="spacing" textLength="42" x="857.6689" y="716.8457">&#26377;&#36523;&#20221;</text><rect fill="#F1F1F1" height="37.6094" rx="12.5" ry="12.5" style="stroke:#181818;stroke-width:1.5;" width="90" x="959.6689" y="634.7031"/><text fill="#000000" font-family="sans-serif" font-size="14" lengthAdjust="spacing" textLength="70" x="969.6689" y="659.2363">&#21009;&#35759;&#36924;&#20379;&#32618;</text><rect fill="#F1F1F1" height="37.6094" rx="12.5" ry="12.5" style="stroke:#181818;stroke-width:1.5;" width="118" x="1099.6689" y="634.7031"/><text fill="#000000" font-family="sans-serif" font-size="14" lengthAdjust="spacing" textLength="98" x="1109.6689" y="659.2363">&#33268;&#20154;&#20260;&#27531;&#12289;&#27515;&#20129;</text><path d="M1049.6689,653.5078 L1059.6689,653.5078 C1074.6689,653.5078 1074.6689,653.5078 1089.6689,653.5078 L1099.6689,653.5078 " fill="none" style="stroke:#181818;stroke-width:1;"/><path d="M909.6689,711.1172 L919.6689,711.1172 C934.6689,711.1172 934.6689,653.5078 949.6689,653.5078 L959.6689,653.5078 " fill="none" style="stroke:#181818;stroke-width:1;"/><rect fill="#F1F1F1" height="37.6094" rx="12.5" ry="12.5" style="stroke:#181818;stroke-width:1.5;" width="90" x="959.6689" y="692.3125"/><text fill="#000000" font-family="sans-serif" font-size="14" lengthAdjust="spacing" textLength="70" x="969.6689" y="716.8457">&#26292;&#21147;&#21462;&#35777;&#32618;</text><rect fill="#F1F1F1" height="37.6094" rx="12.5" ry="12.5" style="stroke:#181818;stroke-width:1.5;" width="118" x="1099.6689" y="692.3125"/><text fill="#000000" font-family="sans-serif" font-size="14" lengthAdjust="spacing" textLength="98" x="1109.6689" y="716.8457">&#33268;&#20154;&#20260;&#27531;&#12289;&#27515;&#20129;</text><path d="M1049.6689,711.1172 L1059.6689,711.1172 C1074.6689,711.1172 1074.6689,711.1172 1089.6689,711.1172 L1099.6689,711.1172 " fill="none" style="stroke:#181818;stroke-width:1;"/><path d="M909.6689,711.1172 L919.6689,711.1172 C934.6689,711.1172 934.6689,711.1172 949.6689,711.1172 L959.6689,711.1172 " fill="none" style="stroke:#181818;stroke-width:1;"/><rect fill="#F1F1F1" height="37.6094" rx="12.5" ry="12.5" style="stroke:#181818;stroke-width:1.5;" width="118" x="959.6689" y="749.9219"/><text fill="#000000" font-family="sans-serif" font-size="14" lengthAdjust="spacing" textLength="98" x="969.6689" y="774.4551">&#34384;&#24453;&#34987;&#30417;&#31649;&#20154;&#32618;</text><rect fill="#F1F1F1" height="37.6094" rx="12.5" ry="12.5" style="stroke:#181818;stroke-width:1.5;" width="118" x="1127.6689" y="749.9219"/><text fill="#000000" font-family="sans-serif" font-size="14" lengthAdjust="spacing" textLength="98" x="1137.6689" y="774.4551">&#33268;&#20154;&#20260;&#27531;&#12289;&#27515;&#20129;</text><path d="M1077.6689,768.7266 L1087.6689,768.7266 C1102.6689,768.7266 1102.6689,768.7266 1117.6689,768.7266 L1127.6689,768.7266 " fill="none" style="stroke:#181818;stroke-width:1;"/><path d="M909.6689,711.1172 L919.6689,711.1172 C934.6689,711.1172 934.6689,768.7266 949.6689,768.7266 L959.6689,768.7266 " fill="none" style="stroke:#181818;stroke-width:1;"/><path d="M797.6689,855.1406 L807.6689,855.1406 C822.6689,855.1406 822.6689,711.1172 837.6689,711.1172 L847.6689,711.1172 " fill="none" style="stroke:#181818;stroke-width:1;"/><rect fill="#F1F1F1" height="37.6094" rx="12.5" ry="12.5" style="stroke:#181818;stroke-width:1.5;" width="62" x="847.6689" y="865.1406"/><text fill="#000000" font-family="sans-serif" font-size="14" lengthAdjust="spacing" textLength="42" x="857.6689" y="889.6738">&#26080;&#36523;&#20221;</text><rect fill="#F1F1F1" height="37.6094" rx="12.5" ry="12.5" style="stroke:#181818;stroke-width:1.5;" width="90" x="959.6689" y="807.5313"/><text fill="#000000" font-family="sans-serif" font-size="14" lengthAdjust="spacing" textLength="70" x="969.6689" y="832.0645">&#38750;&#27861;&#25304;&#31105;&#32618;</text><rect fill="#F1F1F1" height="37.6094" rx="12.5" ry="12.5" style="stroke:#181818;stroke-width:1.5;" width="146" x="1099.6689" y="807.5313"/><text fill="#000000" font-family="sans-serif" font-size="14" lengthAdjust="spacing" textLength="126" x="1109.6689" y="832.0645">&#26292;&#21147;&#33268;&#20154;&#37325;&#20260;&#12289;&#27515;&#20129;</text><path d="M1049.6689,826.3359 L1059.6689,826.3359 C1074.6689,826.3359 1074.6689,826.3359 1089.6689,826.3359 L1099.6689,826.3359 " fill="none" style="stroke:#181818;stroke-width:1;"/><path d="M909.6689,883.9453 L919.6689,883.9453 C934.6689,883.9453 934.6689,826.3359 949.6689,826.3359 L959.6689,826.3359 " fill="none" style="stroke:#181818;stroke-width:1;"/><rect fill="#F1F1F1" height="37.6094" rx="12.5" ry="12.5" style="stroke:#181818;stroke-width:1.5;" width="90" x="959.6689" y="865.1406"/><text fill="#000000" font-family="sans-serif" font-size="14" lengthAdjust="spacing" textLength="70" x="969.6689" y="889.6738">&#32858;&#20247;&#26007;&#27572;&#32618;</text><rect fill="#F1F1F1" height="37.6094" rx="12.5" ry="12.5" style="stroke:#181818;stroke-width:1.5;" width="118" x="1099.6689" y="865.1406"/><text fill="#000000" font-family="sans-serif" font-size="14" lengthAdjust="spacing" textLength="98" x="1109.6689" y="889.6738">&#33268;&#20154;&#37325;&#20260;&#12289;&#27515;&#20129;</text><path d="M1049.6689,883.9453 L1059.6689,883.9453 C1074.6689,883.9453 1074.6689,883.9453 1089.6689,883.9453 L1099.6689,883.9453 " fill="none" style="stroke:#181818;stroke-width:1;"/><path d="M909.6689,883.9453 L919.6689,883.9453 C934.6689,883.9453 934.6689,883.9453 949.6689,883.9453 L959.6689,883.9453 " fill="none" style="stroke:#181818;stroke-width:1;"/><rect fill="#F1F1F1" height="37.6094" rx="12.5" ry="12.5" style="stroke:#181818;stroke-width:1.5;" width="99.3242" x="959.6689" y="922.75"/><text fill="#000000" font-family="sans-serif" font-size="14" lengthAdjust="spacing" textLength="79.3242" x="969.6689" y="947.2832">&#32858;&#20247;&#8220;&#25171;&#30776;&#25250;&#8221;</text><rect fill="#F1F1F1" height="37.6094" rx="12.5" ry="12.5" style="stroke:#181818;stroke-width:1.5;" width="118" x="1108.9932" y="922.75"/><text fill="#000000" font-family="sans-serif" font-size="14" lengthAdjust="spacing" textLength="98" x="1118.9932" y="947.2832">&#33268;&#20154;&#20260;&#27531;&#12289;&#27515;&#20129;</text><path d="M1058.9932,941.5547 L1068.9932,941.5547 C1083.9932,941.5547 1083.9932,941.5547 1098.9932,941.5547 L1108.9932,941.5547 " fill="none" style="stroke:#181818;stroke-width:1;"/><path d="M909.6689,883.9453 L919.6689,883.9453 C934.6689,883.9453 934.6689,941.5547 949.6689,941.5547 L959.6689,941.5547 " fill="none" style="stroke:#181818;stroke-width:1;"/><path d="M797.6689,855.1406 L807.6689,855.1406 C822.6689,855.1406 822.6689,883.9453 837.6689,883.9453 L847.6689,883.9453 " fill="none" style="stroke:#181818;stroke-width:1;"/><rect fill="#F1F1F1" height="37.6094" rx="12.5" ry="12.5" style="stroke:#181818;stroke-width:1.5;" width="48" x="847.6689" y="1009.1641"/><text fill="#000000" font-family="sans-serif" font-size="14" lengthAdjust="spacing" textLength="28" x="857.6689" y="1033.6973">&#24635;&#32467;</text><rect fill="#F1F1F1" height="37.6094" rx="12.5" ry="12.5" style="stroke:#181818;stroke-width:1.5;" width="174" x="945.6689" y="980.3594"/><text fill="#000000" font-family="sans-serif" font-size="14" lengthAdjust="spacing" textLength="154" x="955.6689" y="1004.8926">&#23458;&#35266;&#23618;&#38754;&#65292;&#37117;&#26377;&#26292;&#21147;&#22240;&#32032;</text><path d="M895.6689,1027.9688 L905.6689,1027.9688 C920.6689,1027.9688 920.6689,999.1641 935.6689,999.1641 L945.6689,999.1641 " fill="none" style="stroke:#181818;stroke-width:1;"/><rect fill="#F1F1F1" height="37.6094" rx="12.5" ry="12.5" style="stroke:#181818;stroke-width:1.5;" width="220.6484" x="945.6689" y="1037.9688"/><text fill="#000000" font-family="sans-serif" font-size="14" lengthAdjust="spacing" textLength="200.6484" x="955.6689" y="1062.502">&#20027;&#35266;&#23618;&#38754;&#65292;&#23558;&#8220;&#36807;&#22833;&#8221;&#25311;&#21046;&#20026;&#8220;&#25925;&#24847;&#8221;</text><path d="M895.6689,1027.9688 L905.6689,1027.9688 C920.6689,1027.9688 920.6689,1056.7734 935.6689,1056.7734 L945.6689,1056.7734 " fill="none" style="stroke:#181818;stroke-width:1;"/><path d="M797.6689,855.1406 L807.6689,855.1406 C822.6689,855.1406 822.6689,1027.9688 837.6689,1027.9688 L847.6689,1027.9688 " fill="none" style="stroke:#181818;stroke-width:1;"/><path d="M653.7793,941.5547 L663.7793,941.5547 C678.7793,941.5547 678.7793,855.1406 693.7793,855.1406 L703.7793,855.1406 " fill="none" style="stroke:#181818;stroke-width:1;"/><rect fill="#90EE90" height="37.6094" rx="12.5" ry="12.5" style="stroke:#181818;stroke-width:1.5;" width="65.8896" x="703.7793" y="1153.1875"/><text fill="#000000" font-family="sans-serif" font-size="14" lengthAdjust="spacing" textLength="42" x="713.7793" y="1177.7207">&#25250;&#21163;&#32618;</text><rect fill="#F1F1F1" height="37.6094" rx="12.5" ry="12.5" style="stroke:#181818;stroke-width:1.5;" width="104" x="819.6689" y="1095.5781"/><text fill="#000000" font-family="sans-serif" font-size="14" lengthAdjust="spacing" textLength="84" x="829.6689" y="1120.1113">&#25658;&#24102;&#20982;&#22120;&#25250;&#22842;</text><path d="M769.6689,1171.9922 L779.6689,1171.9922 C794.6689,1171.9922 794.6689,1114.3828 809.6689,1114.3828 L819.6689,1114.3828 " fill="none" style="stroke:#181818;stroke-width:1;"/><rect fill="#F1F1F1" height="37.6094" rx="12.5" ry="12.5" style="stroke:#181818;stroke-width:1.5;" width="359.9102" x="819.6689" y="1153.1875"/><text fill="#000000" font-family="sans-serif" font-size="14" lengthAdjust="spacing" textLength="339.9102" x="829.6689" y="1177.7207">&#30423;&#31363;&#32618;&#65288;&#35784;&#39575;&#32618;&#12289;&#25250;&#22842;&#32618;&#65289; + &#25925;&#24847;&#20260;&#23475; = &#20107;&#21518;&#36716;&#21270;&#25250;&#21163;</text><path d="M769.6689,1171.9922 L779.6689,1171.9922 C794.6689,1171.9922 794.6689,1171.9922 809.6689,1171.9922 L819.6689,1171.9922 " fill="none" style="stroke:#181818;stroke-width:1;"/><rect fill="#F1F1F1" height="37.6094" rx="12.5" ry="12.5" style="stroke:#181818;stroke-width:1.5;" width="281.3242" x="819.6689" y="1210.7969"/><text fill="#000000" font-family="sans-serif" font-size="14" lengthAdjust="spacing" textLength="261.3242" x="829.6689" y="1235.3301">&#32858;&#20247;&#8220;&#25171;&#30776;&#25250;&#8221;&#20013;&#65292;&#25925;&#24847;&#27585;&#22351;&#36130;&#29289;&#12289;&#25250;&#22842;&#36130;&#29289;</text><path d="M769.6689,1171.9922 L779.6689,1171.9922 C794.6689,1171.9922 794.6689,1229.6016 809.6689,1229.6016 L819.6689,1229.6016 " fill="none" style="stroke:#181818;stroke-width:1;"/><path d="M653.7793,941.5547 L663.7793,941.5547 C678.7793,941.5547 678.7793,1171.9922 693.7793,1171.9922 L703.7793,1171.9922 " fill="none" style="stroke:#181818;stroke-width:1;"/><path d="M481.8896,912.75 L491.8896,912.75 C506.8896,912.75 506.8896,941.5547 521.8896,941.5547 L531.8896,941.5547 " fill="none" style="stroke:#181818;stroke-width:1;"/><path d="M282,855.1406 L292,855.1406 C307,855.1406 307,912.75 322,912.75 L332,912.75 " fill="none" style="stroke:#181818;stroke-width:1;"/><path d="M86,653.5078 L96,653.5078 C111,653.5078 111,855.1406 126,855.1406 L136,855.1406 " fill="none" style="stroke:#181818;stroke-width:1;"/><!--SRC=[xLXhJnDP6Fu-l-9izekweI8XnX3MA5MoQyIO1Vq-jCSoEfrffgSrpMQJWc1R2hG4kSjoMHOKiCL8t6vRzB_ed9df9__2ldCfJ0lJ6HApdqeCOTxtESzxFnTlHGahaJ0d1CDiX65-u8G07mjYvFDTXNzHak3nrGZF2YGMvZjqM0VWEWovZmCPmn2Ey1ZHz4kjK5PsnhJY4SDSQVn6y7C5gSTxD3zjV5Y2znLJzgsQLlStjCcnRzNCYTx4q8b_vEEv4vZoOLvPsso6MT3fURcKRB9oggubCqhshPBSDH6ejnU78oDib8lUl7aE75nNiWSsDYC0TVAZFO124eoU4TFSih8qSrPSdTUAewROPhspoRm1L5-zKLV6bQKYJSz2p5fgJollG-JAGifk_srPNJw-8AEsEQMy-cmciavt1SaLos6QFZI3Dj0Rz73SPb1vznSjbUZsk9f_gLTZ_h2Moj7j5Nj10FNXZJAUqtR7QM7b57KuUxQwIYwlRfTfhWJkoEKodLqorpQGpTDFMIMxJjCVcyYSImWH7xwaC-lAwmEvDAqUxD1yMbdFgxlJfbSG6wH1BfM_LQVaVzULgOmwiQiL_pQrPdpDXAMIbdoX9yNcaCs3hlExQ7u2mb7MaX0TfBLrqrbBNcUWrdBb-5ozvKnwLYiKQycg_6aLQ1sH9bfB7O5vkRgj5B9VawFAkufStcp1hgmSqSbLcbims_KxislBUVffGjlQLrTdrSAccPZlPWEyNznmpLzjxKzz0B9Bwew72Cryc3xKKjFWXgSuHrVawgAoiAWKZhn6U57sBydNIcPEtIWfarjVaclVCul9YbgPQzM2XIrjTuo-7wkjRS4KrLuSG-DQdREweHvjj5WhbohsjJ2h48ZsEKMttqCKvcZ1SEhH6VDpNcZWukGMdTptEbNvCYtjqDH7kln6NxXTTW2ggulgtWjWXSr6AwPhUulmjvujOv4Xpw2VhC66NDB21_GpaijPcf_HZW_er8Bf5tE1kicbTv06QwyeZjArd7QqfMRUdfWrFnc6kONXeAuVrhSQp-vUurI-oLY2EnmRajWm-XqyyGtpCMpyXL0V6tWMaiIO4FIBl2WXdWkD45qFsZzqR92Ldaauw02tj7LmIC9OQCLi06peX0iuKSUA4Yk4d9msbNLe92P5U2UegQn3dGEp1IM9KIUs7_lx-_hy_ZeoWNbUVEw0DPK6bF7LEzGzLtPqfmCy-YnXbCoExMgTApkq3qI14MX7Jyvm8K6Ki8Uw8NIV4t2p_9J2ezcML3gP88W1B12dt0X6qX7g5mLYYePvm3Inmd1OlWa4o3XHO7c_n8NhWPuYYHXcYNWkzg648wp4wfABBBizB4h4hMkySX42PILkW-AHpI-6OLg8KxMjbKvqUdK478A20QazcQqs7RT21J6EsFkzqS1Ts0I7UIuwuhnZsTOtMdi-mf7ct3YOUI0ITqj6L844AtY8Ai06CJannWO2ND2vfHjsKZVc9p1fKTlumdS03x1FSSnbY4KUN934eAq3NKQeliAm4n6Z7E7Y-7R0DWvdTcEMnru3EGq1Qi6wKeSvE03rhTjBJrcdc4uUZGq_nG6TtYaxR1oENInvv8rp8aoGGIswCUjvzvpkqusySN1Rpsf3BxiU4GpywhrgtIJQR_lssxxzjc-_xTjl-_RRllss_r_VzW_r_tD_D70VnR4KrUyyrtnTdLtTlXkN1bc27eXnTEqwwhpMqztTqtqT-GU7aAw-p5mQ-7K8HSKONFbG42v44ZSSqsy9bvbxR9n5lyNWpX36FKZ_kZGqS1aDtgqBqLqXpacY48Px0dFlyO09Gh-8P30Y4WDylRkZZoDe44lW5deymDp1JzWOJs1fG0noGgW7FHhgxxZ1t8VxH8mDWI6umVdXea6a1EW6_mC0]--></g></svg>