<svg xmlns="http://www.w3.org/2000/svg" xmlns:xlink="http://www.w3.org/1999/xlink" contentStyleType="text/css" height="521px" preserveAspectRatio="none" style="width:928px;height:521px;background:#FFFFFF;" version="1.1" viewBox="0 0 928 521" width="928px" zoomAndPan="magnify"><title>&#21009;&#27861; - &#26696;&#20363; - &#20882;&#21517;&#25910;&#27454;&#26696;</title><defs/><g><text fill="#000000" font-family="sans-serif" font-size="14" font-weight="bold" lengthAdjust="spacing" textLength="154.8203" x="385.438" y="34.5332">&#21009;&#27861; - &#26696;&#20363; - &#20882;&#21517;&#25910;&#27454;&#26696;</text><rect fill="#F1F1F1" height="37.6094" rx="12.5" ry="12.5" style="stroke:#181818;stroke-width:1.5;" width="150.6963" x="10" y="260.2422"/><text fill="#000000" font-family="sans-serif" font-size="14" lengthAdjust="spacing" textLength="130.6963" x="20" y="284.7754">&#20882;&#21517;&#25910;&#27454;&#26696;&#65288;P288&#65289;</text><rect fill="#F1F1F1" height="37.6094" rx="12.5" ry="12.5" style="stroke:#181818;stroke-width:1.5;" width="48" x="210.6963" y="145.0234"/><text fill="#000000" font-family="sans-serif" font-size="14" lengthAdjust="spacing" textLength="28" x="220.6963" y="169.5566">&#20998;&#26512;</text><rect fill="#F1F1F1" height="37.6094" rx="12.5" ry="12.5" style="stroke:#181818;stroke-width:1.5;" width="160" x="308.6963" y="87.4141"/><text fill="#000000" font-family="sans-serif" font-size="14" lengthAdjust="spacing" textLength="140" x="318.6963" y="111.9473">&#31532;&#19968;&#27493;&#65292;&#20538;&#26435;&#20538;&#21153;&#20851;&#31995;</text><rect fill="#F1F1F1" height="37.6094" rx="12.5" ry="12.5" style="stroke:#181818;stroke-width:1.5;" width="132" x="518.6963" y="58.6094"/><text fill="#000000" font-family="sans-serif" font-size="14" lengthAdjust="spacing" textLength="112" x="528.6963" y="83.1426">&#20538;&#26435;&#20154;&#65288;&#30002;&#20844;&#21496;&#65289;</text><path d="M468.6963,106.2188 L478.6963,106.2188 C493.6963,106.2188 493.6963,77.4141 508.6963,77.4141 L518.6963,77.4141 " fill="none" style="stroke:#181818;stroke-width:1;"/><rect fill="#F1F1F1" height="37.6094" rx="12.5" ry="12.5" style="stroke:#181818;stroke-width:1.5;" width="132" x="518.6963" y="116.2188"/><text fill="#000000" font-family="sans-serif" font-size="14" lengthAdjust="spacing" textLength="112" x="528.6963" y="140.752">&#20538;&#21153;&#20154;&#65288;&#20057;&#23458;&#25143;&#65289;</text><path d="M468.6963,106.2188 L478.6963,106.2188 C493.6963,106.2188 493.6963,135.0234 508.6963,135.0234 L518.6963,135.0234 " fill="none" style="stroke:#181818;stroke-width:1;"/><path d="M258.6963,163.8281 L268.6963,163.8281 C283.6963,163.8281 283.6963,106.2188 298.6963,106.2188 L308.6963,106.2188 " fill="none" style="stroke:#181818;stroke-width:1;"/><rect fill="#F1F1F1" height="37.6094" rx="12.5" ry="12.5" style="stroke:#181818;stroke-width:1.5;" width="160" x="308.6963" y="202.6328"/><text fill="#000000" font-family="sans-serif" font-size="14" lengthAdjust="spacing" textLength="140" x="318.6963" y="227.166">&#31532;&#20108;&#27493;&#65292;&#34987;&#23475;&#20154;&#26159;&#35841;&#65311;</text><rect fill="#F1F1F1" height="37.6094" rx="12.5" ry="12.5" style="stroke:#181818;stroke-width:1.5;" width="118" x="518.6963" y="173.8281"/><text fill="#000000" font-family="sans-serif" font-size="14" lengthAdjust="spacing" textLength="98" x="528.6963" y="198.3613">&#29359;&#32618;&#20154;&#65288;&#29399;&#34507;&#65289;</text><path d="M468.6963,221.4375 L478.6963,221.4375 C493.6963,221.4375 493.6963,192.6328 508.6963,192.6328 L518.6963,192.6328 " fill="none" style="stroke:#181818;stroke-width:1;"/><rect fill="#F1F1F1" height="37.6094" rx="12.5" ry="12.5" style="stroke:#181818;stroke-width:1.5;" width="132" x="518.6963" y="231.4375"/><text fill="#000000" font-family="sans-serif" font-size="14" lengthAdjust="spacing" textLength="112" x="528.6963" y="255.9707">&#34987;&#23475;&#20154;&#65288;&#30002;&#20844;&#21496;&#65289;</text><path d="M468.6963,221.4375 L478.6963,221.4375 C493.6963,221.4375 493.6963,250.2422 508.6963,250.2422 L518.6963,250.2422 " fill="none" style="stroke:#181818;stroke-width:1;"/><path d="M258.6963,163.8281 L268.6963,163.8281 C283.6963,163.8281 283.6963,221.4375 298.6963,221.4375 L308.6963,221.4375 " fill="none" style="stroke:#181818;stroke-width:1;"/><path d="M160.6963,279.0469 L170.6963,279.0469 C185.6963,279.0469 185.6963,163.8281 200.6963,163.8281 L210.6963,163.8281 " fill="none" style="stroke:#181818;stroke-width:1;"/><rect fill="#F1F1F1" height="37.6094" rx="12.5" ry="12.5" style="stroke:#181818;stroke-width:1.5;" width="48" x="210.6963" y="375.4609"/><text fill="#000000" font-family="sans-serif" font-size="14" lengthAdjust="spacing" textLength="28" x="220.6963" y="399.9941">&#23450;&#32618;</text><rect fill="#F1F1F1" height="37.6094" rx="12.5" ry="12.5" style="stroke:#181818;stroke-width:1.5;" width="76" x="308.6963" y="375.4609"/><text fill="#000000" font-family="sans-serif" font-size="14" lengthAdjust="spacing" textLength="56" x="318.6963" y="399.9941">&#35266;&#28857;&#23637;&#31034;</text><rect fill="#F1F1F1" height="37.6094" rx="12.5" ry="12.5" style="stroke:#181818;stroke-width:1.5;" width="174" x="434.6963" y="346.6563"/><text fill="#000000" font-family="sans-serif" font-size="14" lengthAdjust="spacing" textLength="154" x="444.6963" y="371.1895">&#26032;&#22411;&#19977;&#35282;&#35784;&#39575;&#65288;&#22810;&#25968;&#35828;&#65289;</text><rect fill="#F1F1F1" height="37.6094" rx="12.5" ry="12.5" style="stroke:#181818;stroke-width:1.5;" width="76" x="658.6963" y="346.6563"/><text fill="#000000" font-family="sans-serif" font-size="14" lengthAdjust="spacing" textLength="56" x="668.6963" y="371.1895">&#19977;&#35282;&#20851;&#31995;</text><rect fill="#F1F1F1" height="37.6094" rx="12.5" ry="12.5" style="stroke:#181818;stroke-width:1.5;" width="118" x="784.6963" y="289.0469"/><text fill="#000000" font-family="sans-serif" font-size="14" lengthAdjust="spacing" textLength="98" x="794.6963" y="313.5801">&#29359;&#32618;&#20154;&#65288;&#29399;&#34507;&#65289;</text><path d="M734.6963,365.4609 L744.6963,365.4609 C759.6963,365.4609 759.6963,307.8516 774.6963,307.8516 L784.6963,307.8516 " fill="none" style="stroke:#181818;stroke-width:1;"/><rect fill="#F1F1F1" height="37.6094" rx="12.5" ry="12.5" style="stroke:#181818;stroke-width:1.5;" width="132" x="784.6963" y="346.6563"/><text fill="#000000" font-family="sans-serif" font-size="14" lengthAdjust="spacing" textLength="112" x="794.6963" y="371.1895">&#21463;&#39575;&#20154;&#65288;&#20057;&#23458;&#25143;&#65289;</text><path d="M734.6963,365.4609 L744.6963,365.4609 C759.6963,365.4609 759.6963,365.4609 774.6963,365.4609 L784.6963,365.4609 " fill="none" style="stroke:#181818;stroke-width:1;"/><rect fill="#F1F1F1" height="37.6094" rx="12.5" ry="12.5" style="stroke:#181818;stroke-width:1.5;" width="132" x="784.6963" y="404.2656"/><text fill="#000000" font-family="sans-serif" font-size="14" lengthAdjust="spacing" textLength="112" x="794.6963" y="428.7988">&#34987;&#23475;&#20154;&#65288;&#30002;&#20844;&#21496;&#65289;</text><path d="M734.6963,365.4609 L744.6963,365.4609 C759.6963,365.4609 759.6963,423.0703 774.6963,423.0703 L784.6963,423.0703 " fill="none" style="stroke:#181818;stroke-width:1;"/><path d="M608.6963,365.4609 L618.6963,365.4609 C633.6963,365.4609 633.6963,365.4609 648.6963,365.4609 L658.6963,365.4609 " fill="none" style="stroke:#181818;stroke-width:1;"/><path d="M384.6963,394.2656 L394.6963,394.2656 C409.6963,394.2656 409.6963,365.4609 424.6963,365.4609 L434.6963,365.4609 " fill="none" style="stroke:#181818;stroke-width:1;"/><rect fill="#F1F1F1" height="37.6094" rx="12.5" ry="12.5" style="stroke:#181818;stroke-width:1.5;" width="132" x="434.6963" y="461.875"/><text fill="#000000" font-family="sans-serif" font-size="14" lengthAdjust="spacing" textLength="112" x="444.6963" y="486.4082">&#30423;&#31363;&#32618;&#65288;&#23569;&#25968;&#35828;&#65289;</text><rect fill="#F1F1F1" height="37.6094" rx="12.5" ry="12.5" style="stroke:#181818;stroke-width:1.5;" width="174" x="616.6963" y="461.875"/><text fill="#000000" font-family="sans-serif" font-size="14" lengthAdjust="spacing" textLength="154" x="626.6963" y="486.4082">&#30423;&#31363;&#20538;&#26435;&#65288;&#36130;&#20135;&#24615;&#21033;&#30410;&#65289;</text><path d="M566.6963,480.6797 L576.6963,480.6797 C591.6963,480.6797 591.6963,480.6797 606.6963,480.6797 L616.6963,480.6797 " fill="none" style="stroke:#181818;stroke-width:1;"/><path d="M384.6963,394.2656 L394.6963,394.2656 C409.6963,394.2656 409.6963,480.6797 424.6963,480.6797 L434.6963,480.6797 " fill="none" style="stroke:#181818;stroke-width:1;"/><path d="M258.6963,394.2656 L268.6963,394.2656 C283.6963,394.2656 283.6963,394.2656 298.6963,394.2656 L308.6963,394.2656 " fill="none" style="stroke:#181818;stroke-width:1;"/><path d="M160.6963,279.0469 L170.6963,279.0469 C185.6963,279.0469 185.6963,394.2656 200.6963,394.2656 L210.6963,394.2656 " fill="none" style="stroke:#181818;stroke-width:1;"/><!--SRC=[xLTTJzjM6BxthpZJRc1ImiSYX50rqQIWhI8LMjBUdzYdpYdsET7nSQgigaHRjKgXKpzKnbQqJaMjK1a3DggDPgo_9dQoA_x2NjinE2cEpTqk6aMH_RxFUTxlrywi9R6G9cMQYMkAyXbbgc5h16MpO_2rPCCWOpK3CscRHiQ3PG2NyULP2Z95aLGQ13dDf-x16ieWzrMp_M4LBfm7pvmdtxlF_tHtFe1GKRuO51qVDHSdfwUFZnug23wWRpvmNpxnRm91PsUdVRZi_lRc-EYHiznoVxu7lyxAA-V-GUVWxnDWxxGFQBTQmDjv_eTpVyTvV1YIzy608O2rt__ax6wwpR-YiC1iwr5WjhlvgxDx073tnxtk_ftZery6-3ehUvr_jdjcLzUx6wiVspmXESirS6dt1L147EXktUtSVU_yljPvtHgWSd_OTrwkjWyVThUUTVUQ_swl0wVp-eMxjj_TUpTeEZWJeCz8sdcYY6JmyJgO7PB1SmGVyM1ZlRDz3vpmujb_EYoU01hK6z3TTvljrfQxlEKqttOsLhmpoYo1ZWwxUhQ_oI_uxVkLqXDSebWNs4Itm5AsOjZ4lq8eZzKbNN2RQGLkS84CgbUbfmVjRG-hOR4aY1O3xsb3i2u8OSEOVK04tKW0Dq8i5vZfSKu7oX1QiqNDY8C6oX0Q7rWaAC6jEBRFv-Vp-K8XH3Q8OV2RCTX0wKELh8afArU96HBFSoPBz3k2lXnNF3qnQrLiKIivbr7qU0pSMchu9OrY9uVdCWhDWqYjGakcSeRgZ0kIegu8BL161kMd52dD3gNoo1ZZAc4oBZVCBqfGWa1KCG0pm0h3q_EDII2Zd66Z8EX90K-HafjOyZEnYuBKiC2Uv3p7BbQua4bTbPPBIYYhJ1gab6m5Ri8qoRXgzqx6qNdLOKI7WW5fD9d3bb9IeJH2Qj5-xpSm1qkoOb2h6h_H8kVxhTsiKZcOcnWpLxXCjkH7fJOmIn6LYZKYJunXLQLQV4ltRTeavkimQLPaVE5U9KLyWzW9GymDS45mBTA12ICKdl3jrBX59QsJYsfa73xQrjWWQGCv3G5gWHEfJGeFI6-rf-cftbFE8xVioWsYUlHnsS5rU2mJaPAtJZbCa4_DavYzlATEz-aYxn_SuRFQryk9ZmW5VYwCzTuqFhqaVtf9_h-_92zw__Ak5XTGdGZBMmuJsSdnoLnsUgI49Rh2wsXY2erFpEHoCxafL2YLaQSULKQAtvIHnMtOZKY3pI5enVR6QLIvZEiOVMl3S9ba1dbt8-NYA2hDXK8qn-fKS6R2G2cNhnK34FgQorADInyybSlagKGb8i0jTAseN2BNiMr8EAfoZJ9z1bqjpsUcbGKOF1lhO0XMNG4cKee6w4h_0G00]--></g></svg>