<svg xmlns="http://www.w3.org/2000/svg" xmlns:xlink="http://www.w3.org/1999/xlink" contentStyleType="text/css" height="310px" preserveAspectRatio="none" style="width:610px;height:310px;background:#FFFFFF;" version="1.1" viewBox="0 0 610 310" width="610px" zoomAndPan="magnify"><defs/><g><rect fill="#F1F1F1" height="37.6094" rx="12.5" ry="12.5" style="stroke:#181818;stroke-width:1.5;" width="108.6621" x="10" y="135.2188"/><text fill="#000000" font-family="sans-serif" font-size="14" lengthAdjust="spacing" textLength="88.6621" x="20" y="159.752">&#25925;&#24847;&#29359;&#32618;-&#26082;&#36930;</text><rect fill="#F1F1F1" height="37.6094" rx="12.5" ry="12.5" style="stroke:#181818;stroke-width:1.5;" width="62" x="168.6621" y="106.4141"/><text fill="#000000" font-family="sans-serif" font-size="14" lengthAdjust="spacing" textLength="42" x="178.6621" y="130.9473">&#20004;&#38454;&#23618;</text><rect fill="#F1F1F1" height="37.6094" rx="12.5" ry="12.5" style="stroke:#181818;stroke-width:1.5;" width="62" x="280.6621" y="77.6094"/><text fill="#000000" font-family="sans-serif" font-size="14" lengthAdjust="spacing" textLength="42" x="290.6621" y="102.1426">&#23458;&#35266;&#23618;</text><rect fill="#90EE90" height="37.6094" rx="12.5" ry="12.5" style="stroke:#181818;stroke-width:1.5;" width="79.8896" x="392.6621" y="20"/><text fill="#000000" font-family="sans-serif" font-size="14" lengthAdjust="spacing" textLength="56" x="402.6621" y="44.5332">&#21361;&#23475;&#34892;&#20026;</text><path d="M342.6621,96.4141 L352.6621,96.4141 C367.6621,96.4141 367.6621,38.8047 382.6621,38.8047 L392.6621,38.8047 " fill="none" style="stroke:#181818;stroke-width:1;"/><rect fill="#FFA500" height="37.6094" rx="12.5" ry="12.5" style="stroke:#181818;stroke-width:1.5;" width="79.8896" x="392.6621" y="77.6094"/><text fill="#000000" font-family="sans-serif" font-size="14" lengthAdjust="spacing" textLength="56" x="402.6621" y="102.1426">&#21361;&#23475;&#32467;&#26524;</text><rect fill="#F1F1F1" height="37.6094" rx="12.5" ry="12.5" style="stroke:#181818;stroke-width:1.5;" width="76" x="522.5518" y="48.8047"/><text fill="#000000" font-family="sans-serif" font-size="14" lengthAdjust="spacing" textLength="56" x="532.5518" y="73.3379">&#21361;&#38505;&#29366;&#24577;</text><path d="M472.5518,96.4141 L482.5518,96.4141 C497.5518,96.4141 497.5518,67.6094 512.5518,67.6094 L522.5518,67.6094 " fill="none" style="stroke:#181818;stroke-width:1;"/><rect fill="#F1F1F1" height="37.6094" rx="12.5" ry="12.5" style="stroke:#181818;stroke-width:1.5;" width="76" x="522.5518" y="106.4141"/><text fill="#000000" font-family="sans-serif" font-size="14" lengthAdjust="spacing" textLength="56" x="532.5518" y="130.9473">&#23454;&#23475;&#32467;&#26524;</text><path d="M472.5518,96.4141 L482.5518,96.4141 C497.5518,96.4141 497.5518,125.2188 512.5518,125.2188 L522.5518,125.2188 " fill="none" style="stroke:#181818;stroke-width:1;"/><path d="M342.6621,96.4141 L352.6621,96.4141 C367.6621,96.4141 367.6621,96.4141 382.6621,96.4141 L392.6621,96.4141 " fill="none" style="stroke:#181818;stroke-width:1;"/><rect fill="#FFA500" height="37.6094" rx="12.5" ry="12.5" style="stroke:#181818;stroke-width:1.5;" width="79.8896" x="392.6621" y="135.2188"/><text fill="#000000" font-family="sans-serif" font-size="14" lengthAdjust="spacing" textLength="56" x="402.6621" y="159.752">&#22240;&#26524;&#20851;&#31995;</text><path d="M342.6621,96.4141 L352.6621,96.4141 C367.6621,96.4141 367.6621,154.0234 382.6621,154.0234 L392.6621,154.0234 " fill="none" style="stroke:#181818;stroke-width:1;"/><path d="M230.6621,125.2188 L240.6621,125.2188 C255.6621,125.2188 255.6621,96.4141 270.6621,96.4141 L280.6621,96.4141 " fill="none" style="stroke:#181818;stroke-width:1;"/><rect fill="#F1F1F1" height="37.6094" rx="12.5" ry="12.5" style="stroke:#181818;stroke-width:1.5;" width="62" x="280.6621" y="192.8281"/><text fill="#000000" font-family="sans-serif" font-size="14" lengthAdjust="spacing" textLength="42" x="290.6621" y="217.3613">&#20027;&#35266;&#23618;</text><rect fill="#90EE90" height="37.6094" rx="12.5" ry="12.5" style="stroke:#181818;stroke-width:1.5;" width="51.8896" x="392.6621" y="192.8281"/><text fill="#000000" font-family="sans-serif" font-size="14" lengthAdjust="spacing" textLength="28" x="402.6621" y="217.3613">&#25925;&#24847;</text><path d="M342.6621,211.6328 L352.6621,211.6328 C367.6621,211.6328 367.6621,211.6328 382.6621,211.6328 L392.6621,211.6328 " fill="none" style="stroke:#181818;stroke-width:1;"/><path d="M230.6621,125.2188 L240.6621,125.2188 C255.6621,125.2188 255.6621,211.6328 270.6621,211.6328 L280.6621,211.6328 " fill="none" style="stroke:#181818;stroke-width:1;"/><path d="M118.6621,154.0234 L128.6621,154.0234 C143.6621,154.0234 143.6621,125.2188 158.6621,125.2188 L168.6621,125.2188 " fill="none" style="stroke:#181818;stroke-width:1;"/><rect fill="#F1F1F1" height="37.6094" rx="12.5" ry="12.5" style="stroke:#181818;stroke-width:1.5;" width="76" x="168.6621" y="250.4375"/><text fill="#000000" font-family="sans-serif" font-size="14" lengthAdjust="spacing" textLength="56" x="178.6621" y="274.9707">&#26082;&#36930;&#26465;&#20214;</text><rect fill="#F1F1F1" height="37.6094" rx="12.5" ry="12.5" style="stroke:#181818;stroke-width:1.5;" width="160" x="294.6621" y="250.4375"/><text fill="#000000" font-family="sans-serif" font-size="14" lengthAdjust="spacing" textLength="140" x="304.6621" y="274.9707">&#23545;&#27861;&#30410;&#35201;&#21046;&#36896;&#23454;&#23475;&#32467;&#26524;</text><path d="M244.6621,269.2422 L254.6621,269.2422 C269.6621,269.2422 269.6621,269.2422 284.6621,269.2422 L294.6621,269.2422 " fill="none" style="stroke:#181818;stroke-width:1;"/><path d="M118.6621,154.0234 L128.6621,154.0234 C143.6621,154.0234 143.6621,269.2422 158.6621,269.2422 L168.6621,269.2422 " fill="none" style="stroke:#181818;stroke-width:1;"/><!--SRC=[xLRTIXj15BxVfvZI6nKIVmWY4aGJ3QqOaKQzd-oEcz7TcMLsDX9AGQL2aPPU56cBhQYKblP2aK2m3NqRavYtwDbDLZVHpMvlUjKGGkQSRxupvtTcrfPOI9CopSIMeZoYJ3KSZQ1aSXI-jgmOPDGoC9EEQIHSM09m2K-Uf21Jb17KFDnlldpREhXe_VwHQBu_Q-_kAGW-8-ZwwalxGwrnsLbtP8tpivjlUq5PL_xcid5UlJbzVNtr2wNJnBHAsARspCo3k5RzNVFuKm0tqGUy1RS_VcyTr9exkm-fpuzlkVhD79s0iB5VRLNh8MPS_-eF-jA9o7qlGEE5f_dvzBfU2mRbucUpUjWwEhZvkjjuLMlldFGSJPaba20_IREzEKjxsPXHke9vYdM1JVGSw9D5mo7UFuGoMDtI1NUObkK65yYWUacwUj2-SB4Q5bk2Q27mhjO7wu8GDeZP0mJGbGXmnSToWPaUTkYEqeTQZh2CC6X7wKF37Giu9RWTnlOubyjaibaVMI66mRT3i1sb1rMIVWL4nog87Wk1sriLBsL1xCJWM0MX6H2f9QYtM8UXEkE2nCWRGakKaNxv7KLCimEfN3B6k4gO38iDyuAEK8upsH4L3S3qiK9pTC_6991Hph2H5TJq7Rr3IcvYoH_4hWXYOO5ToTzicojo8QEg9YwNb91M6TKeCTcot8HkaM7PxkuCetEpmuWE2GFIO3073PseH6c4MC5wxpMm04EmQ52x53wn0ljxhMsNgEoFJOYPPIwZBNbUgHNCOdYbOet8MsDOLQaMNj8zapIAUGCwpGwqBwnLaiURn8beOcx04GJN0XKOqKB-3i-EnMqgQPdCgO5sk3UDiK7YEdBd0kG2HrAR52v0TtJ7gQdkBUQIsqvnawWkVLXqS1ckNI9YyfOfXmxog7aKinltsE6-6-IzZJkuLtjgEVAAKE0dFTfzIVn_q_tpDzsA-yPUoo-XCX6sM-lZoOcnYLHoQgY09LhcPJG-YSR6frEfwTGaoXPMaQiULeRoJrUHpHreTQH18mXQTDpg65OMSHcZPmxKYaccaRiQMiqFeyA2BqGBh4m5PoRKXxAudk-0q1Ck2nQN7dWobSXGYGf4mB7GUbwP9nlOCIHiLRb6cJwDrbPpYIbb2Uh8mJeOWixDGe59KG5TuGy0]--></g></svg>