<svg xmlns="http://www.w3.org/2000/svg" xmlns:xlink="http://www.w3.org/1999/xlink" contentStyleType="text/css" height="706px" preserveAspectRatio="none" style="width:1105px;height:706px;background:#FFFFFF;" version="1.1" viewBox="0 0 1105 706" width="1105px" zoomAndPan="magnify"><title>&#21009;&#27861;-&#32618;&#21517;-&#21253;&#23481;&#35780;&#20215;&#20851;&#31995;</title><defs/><g><text fill="#000000" font-family="sans-serif" font-size="14" font-weight="bold" lengthAdjust="spacing" textLength="153.6992" x="474.4761" y="35.1074">&#21009;&#27861;-&#32618;&#21517;-&#21253;&#23481;&#35780;&#20215;&#20851;&#31995;</text><rect fill="#F1F1F1" height="38.6211" rx="12.5" ry="12.5" style="stroke:#181818;stroke-width:1.5;" width="161.5723" x="10" y="352.7266"/><text fill="#000000" font-family="sans-serif" font-size="14" lengthAdjust="spacing" textLength="141.5723" x="20" y="377.834">&#32618;&#21517;-&#21253;&#23481;&#35780;&#20215;&#65288;P92&#65289;</text><rect fill="#F1F1F1" height="38.6211" rx="12.5" ry="12.5" style="stroke:#181818;stroke-width:1.5;" width="48" x="221.5723" y="118.2422"/><text fill="#000000" font-family="sans-serif" font-size="14" lengthAdjust="spacing" textLength="28" x="231.5723" y="143.3496">&#26412;&#36136;</text><rect fill="#F1F1F1" height="38.6211" rx="12.5" ry="12.5" style="stroke:#181818;stroke-width:1.5;" width="71.3379" x="319.5723" y="59.6211"/><text fill="#000000" font-family="sans-serif" font-size="14" lengthAdjust="spacing" textLength="51.3379" x="329.5723" y="84.7285">&#36731;&#32618;&#65306;A</text><path d="M269.5723,137.5527 L279.5723,137.5527 C294.5723,137.5527 294.5723,78.9316 309.5723,78.9316 L319.5723,78.9316 " fill="none" style="stroke:#181818;stroke-width:1.0;"/><rect fill="#F1F1F1" height="38.6211" rx="12.5" ry="12.5" style="stroke:#181818;stroke-width:1.5;" width="88.8516" x="319.5723" y="118.2422"/><text fill="#000000" font-family="sans-serif" font-size="14" lengthAdjust="spacing" textLength="68.8516" x="329.5723" y="143.3496">&#37325;&#32618;&#65306;A+B</text><path d="M269.5723,137.5527 L279.5723,137.5527 C294.5723,137.5527 294.5723,137.5527 309.5723,137.5527 L319.5723,137.5527 " fill="none" style="stroke:#181818;stroke-width:1.0;"/><rect fill="#F1F1F1" height="38.6211" rx="12.5" ry="12.5" style="stroke:#181818;stroke-width:1.5;" width="468" x="319.5723" y="176.8633"/><text fill="#000000" font-family="sans-serif" font-size="14" lengthAdjust="spacing" textLength="280" x="329.5723" y="201.9707">&#20004;&#20010;&#32618;&#21517;&#65292;&#20855;&#26377;&#30456;&#21516;&#24615;&#36136;&#12289;&#19981;&#21516;&#31243;&#24230;&#30340;&#20851;&#31995;&#65292;</text><text fill="#000000" font-family="sans-serif" font-size="14" lengthAdjust="spacing" text-decoration="underline" textLength="28" x="609.5723" y="201.9707">&#37325;&#32618;</text><text fill="#000000" font-family="sans-serif" font-size="14" lengthAdjust="spacing" textLength="98" x="637.5723" y="201.9707">&#21487;&#20197;&#21253;&#23481;&#35780;&#20215;&#20026;</text><text fill="#000000" font-family="sans-serif" font-size="14" lengthAdjust="spacing" text-decoration="underline" textLength="28" x="735.5723" y="201.9707">&#36731;&#32618;</text><text fill="#000000" font-family="sans-serif" font-size="14" lengthAdjust="spacing" textLength="14" x="763.5723" y="201.9707">&#12290;</text><path d="M269.5723,137.5527 L279.5723,137.5527 C294.5723,137.5527 294.5723,196.1738 309.5723,196.1738 L319.5723,196.1738 " fill="none" style="stroke:#181818;stroke-width:1.0;"/><path d="M171.5723,372.0371 L181.5723,372.0371 C196.5723,372.0371 196.5723,137.5527 211.5723,137.5527 L221.5723,137.5527 " fill="none" style="stroke:#181818;stroke-width:1.0;"/><rect fill="#F1F1F1" height="38.6211" rx="12.5" ry="12.5" style="stroke:#181818;stroke-width:1.5;" width="76" x="221.5723" y="440.6582"/><text fill="#000000" font-family="sans-serif" font-size="14" lengthAdjust="spacing" textLength="56" x="231.5723" y="465.7656">&#34920;&#29616;&#24418;&#24335;</text><rect fill="#F1F1F1" height="38.6211" rx="12.5" ry="12.5" style="stroke:#181818;stroke-width:1.5;" width="76" x="347.5723" y="323.416"/><text fill="#000000" font-family="sans-serif" font-size="14" lengthAdjust="spacing" textLength="56" x="357.5723" y="348.5234">&#20154;&#36523;&#29359;&#32618;</text><rect fill="#F1F1F1" height="38.6211" rx="12.5" ry="12.5" style="stroke:#181818;stroke-width:1.5;" width="200.0791" x="473.5723" y="235.4844"/><text fill="#000000" font-family="sans-serif" font-size="14" lengthAdjust="spacing" textLength="180.0791" x="483.5723" y="260.5918">&#36523;&#20307;&#21644;&#29983;&#21629;&#65288;&#31243;&#24230;&#65306;&#36731;&#8594;&#37325;&#65289;</text><rect fill="#F1F1F1" height="38.6211" rx="12.5" ry="12.5" style="stroke:#181818;stroke-width:1.5;" width="90" x="723.6514" y="235.4844"/><text fill="#000000" font-family="sans-serif" font-size="14" lengthAdjust="spacing" textLength="70" x="733.6514" y="260.5918">&#25925;&#24847;&#20260;&#23475;&#32618;</text><rect fill="#F1F1F1" height="38.6211" rx="12.5" ry="12.5" style="stroke:#181818;stroke-width:1.5;" width="90" x="863.6514" y="235.4844"/><text fill="#000000" font-family="sans-serif" font-size="14" lengthAdjust="spacing" textLength="70" x="873.6514" y="260.5918">&#25925;&#24847;&#26432;&#20154;&#32618;</text><path d="M813.6514,254.7949 L823.6514,254.7949 C838.6514,254.7949 838.6514,254.7949 853.6514,254.7949 L863.6514,254.7949 " fill="none" style="stroke:#181818;stroke-width:1.0;"/><path d="M673.6514,254.7949 L683.6514,254.7949 C698.6514,254.7949 698.6514,254.7949 713.6514,254.7949 L723.6514,254.7949 " fill="none" style="stroke:#181818;stroke-width:1.0;"/><path d="M423.5723,342.7266 L433.5723,342.7266 C448.5723,342.7266 448.5723,254.7949 463.5723,254.7949 L473.5723,254.7949 " fill="none" style="stroke:#181818;stroke-width:1.0;"/><rect fill="#F1F1F1" height="38.6211" rx="12.5" ry="12.5" style="stroke:#181818;stroke-width:1.5;" width="172.0791" x="473.5723" y="294.1055"/><text fill="#000000" font-family="sans-serif" font-size="14" lengthAdjust="spacing" textLength="152.0791" x="483.5723" y="319.2129">&#24615;&#26435;&#21033;&#65288;&#31243;&#24230;&#65306;&#36731;&#8594;&#37325;&#65289;</text><rect fill="#F1F1F1" height="38.6211" rx="12.5" ry="12.5" style="stroke:#181818;stroke-width:1.5;" width="90" x="695.6514" y="294.1055"/><text fill="#000000" font-family="sans-serif" font-size="14" lengthAdjust="spacing" textLength="70" x="705.6514" y="319.2129">&#24378;&#21046;&#29477;&#20149;&#32618;</text><rect fill="#F1F1F1" height="38.6211" rx="12.5" ry="12.5" style="stroke:#181818;stroke-width:1.5;" width="62" x="835.6514" y="294.1055"/><text fill="#000000" font-family="sans-serif" font-size="14" lengthAdjust="spacing" textLength="42" x="845.6514" y="319.2129">&#24378;&#22904;&#32618;</text><path d="M785.6514,313.416 L795.6514,313.416 C810.6514,313.416 810.6514,313.416 825.6514,313.416 L835.6514,313.416 " fill="none" style="stroke:#181818;stroke-width:1.0;"/><path d="M645.6514,313.416 L655.6514,313.416 C670.6514,313.416 670.6514,313.416 685.6514,313.416 L695.6514,313.416 " fill="none" style="stroke:#181818;stroke-width:1.0;"/><path d="M423.5723,342.7266 L433.5723,342.7266 C448.5723,342.7266 448.5723,313.416 463.5723,313.416 L473.5723,313.416 " fill="none" style="stroke:#181818;stroke-width:1.0;"/><rect fill="#F1F1F1" height="38.6211" rx="12.5" ry="12.5" style="stroke:#181818;stroke-width:1.5;" width="186.0791" x="473.5723" y="382.0371"/><text fill="#000000" font-family="sans-serif" font-size="14" lengthAdjust="spacing" textLength="166.0791" x="483.5723" y="407.1445">&#20154;&#36523;&#33258;&#30001;&#65288;&#31243;&#24230;&#65306;&#36731;&#8594;&#37325;&#65289;</text><rect fill="#F1F1F1" height="38.6211" rx="12.5" ry="12.5" style="stroke:#181818;stroke-width:1.5;" width="90" x="709.6514" y="352.7266"/><text fill="#000000" font-family="sans-serif" font-size="14" lengthAdjust="spacing" textLength="70" x="719.6514" y="377.834">&#38750;&#27861;&#25304;&#31105;&#32618;</text><rect fill="#F1F1F1" height="38.6211" rx="12.5" ry="12.5" style="stroke:#181818;stroke-width:1.5;" width="62" x="849.6514" y="352.7266"/><text fill="#000000" font-family="sans-serif" font-size="14" lengthAdjust="spacing" textLength="42" x="859.6514" y="377.834">&#32465;&#26550;&#32618;</text><path d="M799.6514,372.0371 L809.6514,372.0371 C824.6514,372.0371 824.6514,372.0371 839.6514,372.0371 L849.6514,372.0371 " fill="none" style="stroke:#181818;stroke-width:1.0;"/><path d="M659.6514,401.3477 L669.6514,401.3477 C684.6514,401.3477 684.6514,372.0371 699.6514,372.0371 L709.6514,372.0371 " fill="none" style="stroke:#181818;stroke-width:1.0;"/><rect fill="#F1F1F1" height="38.6211" rx="12.5" ry="12.5" style="stroke:#181818;stroke-width:1.5;" width="90" x="709.6514" y="411.3477"/><text fill="#000000" font-family="sans-serif" font-size="14" lengthAdjust="spacing" textLength="70" x="719.6514" y="436.4551">&#25296;&#39575;&#20799;&#31461;&#32618;</text><rect fill="#F1F1F1" height="38.6211" rx="12.5" ry="12.5" style="stroke:#181818;stroke-width:1.5;" width="90" x="849.6514" y="411.3477"/><text fill="#000000" font-family="sans-serif" font-size="14" lengthAdjust="spacing" textLength="70" x="859.6514" y="436.4551">&#25296;&#21334;&#20799;&#31461;&#32618;</text><path d="M799.6514,430.6582 L809.6514,430.6582 C824.6514,430.6582 824.6514,430.6582 839.6514,430.6582 L849.6514,430.6582 " fill="none" style="stroke:#181818;stroke-width:1.0;"/><path d="M659.6514,401.3477 L669.6514,401.3477 C684.6514,401.3477 684.6514,430.6582 699.6514,430.6582 L709.6514,430.6582 " fill="none" style="stroke:#181818;stroke-width:1.0;"/><path d="M423.5723,342.7266 L433.5723,342.7266 C448.5723,342.7266 448.5723,401.3477 463.5723,401.3477 L473.5723,401.3477 " fill="none" style="stroke:#181818;stroke-width:1.0;"/><path d="M297.5723,459.9688 L307.5723,459.9688 C322.5723,459.9688 322.5723,342.7266 337.5723,342.7266 L347.5723,342.7266 " fill="none" style="stroke:#181818;stroke-width:1.0;"/><rect fill="#F1F1F1" height="38.6211" rx="12.5" ry="12.5" style="stroke:#181818;stroke-width:1.5;" width="76" x="347.5723" y="557.9004"/><text fill="#000000" font-family="sans-serif" font-size="14" lengthAdjust="spacing" textLength="56" x="357.5723" y="583.0078">&#36130;&#20135;&#29359;&#32618;</text><rect fill="#F1F1F1" height="38.6211" rx="12.5" ry="12.5" style="stroke:#181818;stroke-width:1.5;" width="48" x="473.5723" y="499.2793"/><text fill="#000000" font-family="sans-serif" font-size="14" lengthAdjust="spacing" textLength="28" x="483.5723" y="524.3867">&#31243;&#24230;</text><rect fill="#F1F1F1" height="38.6211" rx="12.5" ry="12.5" style="stroke:#181818;stroke-width:1.5;" width="130.0791" x="571.5723" y="499.2793"/><text fill="#000000" font-family="sans-serif" font-size="14" lengthAdjust="spacing" textLength="110.0791" x="581.5723" y="524.3867">&#25250;&#21163;&#32618;&#65288;&#37325;&#8594;&#36731;&#65289;</text><rect fill="#F1F1F1" height="38.6211" rx="12.5" ry="12.5" style="stroke:#181818;stroke-width:1.5;" width="118" x="751.6514" y="469.9688"/><text fill="#000000" font-family="sans-serif" font-size="14" lengthAdjust="spacing" textLength="98" x="761.6514" y="495.0762">&#25250;&#22842;&#32618;&#65288;&#26292;&#21147;&#65289;</text><rect fill="#F1F1F1" height="38.6211" rx="12.5" ry="12.5" style="stroke:#181818;stroke-width:1.5;" width="62" x="919.6514" y="469.9688"/><text fill="#000000" font-family="sans-serif" font-size="14" lengthAdjust="spacing" textLength="42" x="929.6514" y="495.0762">&#30423;&#31363;&#32618;</text><rect fill="#F1F1F1" height="38.6211" rx="12.5" ry="12.5" style="stroke:#181818;stroke-width:1.5;" width="62" x="1031.6514" y="469.9688"/><text fill="#000000" font-family="sans-serif" font-size="14" lengthAdjust="spacing" textLength="42" x="1041.6514" y="495.0762">&#20405;&#21344;&#32618;</text><path d="M981.6514,489.2793 L991.6514,489.2793 C1006.6514,489.2793 1006.6514,489.2793 1021.6514,489.2793 L1031.6514,489.2793 " fill="none" style="stroke:#181818;stroke-width:1.0;"/><path d="M869.6514,489.2793 L879.6514,489.2793 C894.6514,489.2793 894.6514,489.2793 909.6514,489.2793 L919.6514,489.2793 " fill="none" style="stroke:#181818;stroke-width:1.0;"/><path d="M701.6514,518.5898 L711.6514,518.5898 C726.6514,518.5898 726.6514,489.2793 741.6514,489.2793 L751.6514,489.2793 " fill="none" style="stroke:#181818;stroke-width:1.0;"/><rect fill="#F1F1F1" height="38.6211" rx="12.5" ry="12.5" style="stroke:#181818;stroke-width:1.5;" width="146" x="751.6514" y="528.5898"/><text fill="#000000" font-family="sans-serif" font-size="14" lengthAdjust="spacing" textLength="126" x="761.6514" y="553.6973">&#25970;&#35784;&#21202;&#32034;&#32618;&#65288;&#32961;&#36843;&#65289;</text><path d="M701.6514,518.5898 L711.6514,518.5898 C726.6514,518.5898 726.6514,547.9004 741.6514,547.9004 L751.6514,547.9004 " fill="none" style="stroke:#181818;stroke-width:1.0;"/><path d="M521.5723,518.5898 L531.5723,518.5898 C546.5723,518.5898 546.5723,518.5898 561.5723,518.5898 L571.5723,518.5898 " fill="none" style="stroke:#181818;stroke-width:1.0;"/><path d="M423.5723,577.2109 L433.5723,577.2109 C448.5723,577.2109 448.5723,518.5898 463.5723,518.5898 L473.5723,518.5898 " fill="none" style="stroke:#181818;stroke-width:1.0;"/><rect fill="#F1F1F1" height="38.6211" rx="12.5" ry="12.5" style="stroke:#181818;stroke-width:1.5;" width="90" x="473.5723" y="616.5215"/><text fill="#000000" font-family="sans-serif" font-size="14" lengthAdjust="spacing" textLength="70" x="483.5723" y="641.6289">&#19968;&#33324;&#19982;&#20855;&#20307;</text><rect fill="#F1F1F1" height="38.6211" rx="12.5" ry="12.5" style="stroke:#181818;stroke-width:1.5;" width="62" x="613.5723" y="587.2109"/><text fill="#000000" font-family="sans-serif" font-size="14" lengthAdjust="spacing" textLength="42" x="623.5723" y="612.3184">&#35784;&#39575;&#32618;</text><rect fill="#F1F1F1" height="38.6211" rx="12.5" ry="12.5" style="stroke:#181818;stroke-width:1.5;" width="90" x="725.5723" y="587.2109"/><text fill="#000000" font-family="sans-serif" font-size="14" lengthAdjust="spacing" textLength="70" x="735.5723" y="612.3184">&#37329;&#34701;&#35784;&#39575;&#32618;</text><path d="M675.5723,606.5215 L685.5723,606.5215 C700.5723,606.5215 700.5723,606.5215 715.5723,606.5215 L725.5723,606.5215 " fill="none" style="stroke:#181818;stroke-width:1.0;"/><path d="M563.5723,635.832 L573.5723,635.832 C588.5723,635.832 588.5723,606.5215 603.5723,606.5215 L613.5723,606.5215 " fill="none" style="stroke:#181818;stroke-width:1.0;"/><rect fill="#F1F1F1" height="38.6211" rx="12.5" ry="12.5" style="stroke:#181818;stroke-width:1.5;" width="62" x="613.5723" y="645.832"/><text fill="#000000" font-family="sans-serif" font-size="14" lengthAdjust="spacing" textLength="42" x="623.5723" y="670.9395">&#30423;&#31363;&#32618;</text><rect fill="#F1F1F1" height="38.6211" rx="12.5" ry="12.5" style="stroke:#181818;stroke-width:1.5;" width="90" x="725.5723" y="645.832"/><text fill="#000000" font-family="sans-serif" font-size="14" lengthAdjust="spacing" textLength="70" x="735.5723" y="670.9395">&#30423;&#31363;&#26538;&#25903;&#32618;</text><path d="M675.5723,665.1426 L685.5723,665.1426 C700.5723,665.1426 700.5723,665.1426 715.5723,665.1426 L725.5723,665.1426 " fill="none" style="stroke:#181818;stroke-width:1.0;"/><path d="M563.5723,635.832 L573.5723,635.832 C588.5723,635.832 588.5723,665.1426 603.5723,665.1426 L613.5723,665.1426 " fill="none" style="stroke:#181818;stroke-width:1.0;"/><path d="M423.5723,577.2109 L433.5723,577.2109 C448.5723,577.2109 448.5723,635.832 463.5723,635.832 L473.5723,635.832 " fill="none" style="stroke:#181818;stroke-width:1.0;"/><path d="M297.5723,459.9688 L307.5723,459.9688 C322.5723,459.9688 322.5723,577.2109 337.5723,577.2109 L347.5723,577.2109 " fill="none" style="stroke:#181818;stroke-width:1.0;"/><path d="M171.5723,372.0371 L181.5723,372.0371 C196.5723,372.0371 196.5723,459.9688 211.5723,459.9688 L221.5723,459.9688 " fill="none" style="stroke:#181818;stroke-width:1.0;"/><!--SRC=[xPRRJzDm5CVV-rVyZ2-esRZ4o2N4u8Oa8aGYbzUbR3z7OzSklM0MGp84PB2Dco26cqf0SJEYWZAxJVuNwQyjJ_mBdhQh35WXFFd2jeVsdC_lVCyv_VNyrY9Aj21562uKeQCKTOtXWgmSmiZhhOQVACLON1rbQKwI8wp7n3p0UIoxbm4RHKcCn6944hFQpe97BsR8JDf3KcFaoozZUrJDxv6n7NqdJr4tKGNdKI7HrLXtL9YW47nk8ctbix6xPTtO1gEOXsL7XQLxPSR3yNJ9UCjNPbPp6sekOwiS5L9aR4zRcT2NSsGcfSK_Gjo3-B2QIyEjlfKaoWTzQTHE3k10m0uQ293fRJM_MPwacbC20JkHGE0W_gAKg_5-Iv_wIehhf31TdeMY64fMdzm6_9-vj4B9giLNP2wbpxybiqKetau4Ae7mVrxEGGvEBqwkr1R6jD5fjR11lkoSZdkQqbRZaCDPTUY1jZf24fykeKiA2adyr5ERglB3NTUaDdDd5UrM6ECPVVxR9KGFLzTWBsd9D_g7ONTHFJ-hhVsiv8TIapE7cKKokgzdDyzfLtA6f5-VfU11xQwhoiUApz0kefBcv3gPp5hxCW6bGO5GPgK2Z_4DnSQrfLqokUp6bdIN5_NCY5inPJt__OEatvstHxuRsmcIdDDtrsrrOsJOsC-ULZTVfxYH-Apcfk15WcrReMG816rsrpeSdpNMqkxKHLKvVcqjeyrRpu9gmJ2fd6dLSd9uDLjZwIvLChGoT5YW8-WvnFRsipAshX3oqS6dOO6NkP2VPta1iKnuG3Bzu1qosH0jF1Lmo0KlUHquB63CdHVP0ihes0Lmp65vWUR2RadRJWUDoaAKTKDjfuEw5rPMbC2BRj6kjxNvV7w_GyOmo_BFN5ZRQQ6K5qUY0xJ8Y1VtogGPJiASnF0SpReiaFW8BV4MpE4mB0V-_6RPSJa-w4wA7EGx1D_cwj9ckZhVhiwtg_Fjwdpx7-TRb_d7kxUp0mrYGOHPY6gzTJLrjxtrLTsqXBfn5DNKezh6fjg6fjfwvE_kGQRx1bNL-Q07YRmi134ACQ8aCFsoEKjlKEtq88qUop1P8xW9FOfYhhtreMD0zxb1Hk2v2Cn7ghslynYuSzlZOqn50J91VPrKAtv2owm4Au9yYE72JQYtfytJG7N0e9NfCCI6EUw7kIe9CV1r_mK0]--></g></svg>