<svg xmlns="http://www.w3.org/2000/svg" xmlns:xlink="http://www.w3.org/1999/xlink" contentStyleType="text/css" height="945px" preserveAspectRatio="none" style="width:899px;height:945px;background:#FFFFFF;" version="1.1" viewBox="0 0 899 945" width="899px" zoomAndPan="magnify"><title>&#32467;&#26524;&#21152;&#37325;&#29359;&#65288;&#27861;&#30410;&#35270;&#35282;&#65289;</title><defs/><g><text fill="#000000" font-family="sans-serif" font-size="14" font-weight="bold" lengthAdjust="spacing" textLength="158.8125" x="369.0386" y="34.5332">&#32467;&#26524;&#21152;&#37325;&#29359;&#65288;&#27861;&#30410;&#35270;&#35282;&#65289;</text><rect fill="#F1F1F1" height="37.6094" rx="12.5" ry="12.5" style="stroke:#181818;stroke-width:1.5;" width="174" x="10" y="472.1563"/><text fill="#000000" font-family="sans-serif" font-size="14" lengthAdjust="spacing" textLength="154" x="20" y="496.6895">&#32467;&#26524;&#21152;&#37325;&#29359;&#65288;&#27861;&#30410;&#35270;&#35282;&#65289;</text><rect fill="#F1F1F1" height="37.6094" rx="12.5" ry="12.5" style="stroke:#181818;stroke-width:1.5;" width="104" x="234" y="443.3516"/><text fill="#000000" font-family="sans-serif" font-size="14" lengthAdjust="spacing" textLength="84" x="244" y="467.8848">&#20405;&#29359;&#20010;&#20154;&#27861;&#30410;</text><rect fill="#F1F1F1" height="37.6094" rx="12.5" ry="12.5" style="stroke:#181818;stroke-width:1.5;" width="76" x="388" y="385.7422"/><text fill="#000000" font-family="sans-serif" font-size="14" lengthAdjust="spacing" textLength="56" x="398" y="410.2754">&#20154;&#36523;&#29359;&#32618;</text><rect fill="#F1F1F1" height="37.6094" rx="12.5" ry="12.5" style="stroke:#181818;stroke-width:1.5;" width="90" x="514" y="118.7891"/><text fill="#000000" font-family="sans-serif" font-size="14" lengthAdjust="spacing" textLength="70" x="524" y="143.3223">&#29983;&#21629;&#12289;&#36523;&#20307;</text><rect fill="#FF0000" height="37.6094" rx="12.5" ry="12.5" style="stroke:#181818;stroke-width:1.5;" width="90" x="654" y="58.6094"/><text fill="#000000" font-family="sans-serif" font-size="14" lengthAdjust="spacing" textLength="70" x="664" y="83.1426">&#25925;&#24847;&#26432;&#20154;&#32618;</text><path d="M604,137.5938 L614,137.5938 C629,137.5938 629,77.4141 644,77.4141 L654,77.4141 " fill="none" style="stroke:#181818;stroke-width:1;"/><rect fill="#90EE90" height="37.6094" rx="12.5" ry="12.5" style="stroke:#181818;stroke-width:1.5;" width="93.8896" x="654" y="116.2188"/><text fill="#000000" font-family="sans-serif" font-size="14" lengthAdjust="spacing" textLength="70" x="664" y="140.752">&#25925;&#24847;&#20260;&#23475;&#32618;</text><rect fill="#F1F1F1" height="37.6094" rx="12.5" ry="12.5" style="stroke:#181818;stroke-width:1.5;" width="48" x="797.8896" y="116.2188"/><text fill="#000000" font-family="sans-serif" font-size="14" lengthAdjust="spacing" textLength="28" x="807.8896" y="140.752">&#36807;&#22833;</text><path d="M747.8896,135.0234 L757.8896,135.0234 C772.8896,135.0234 772.8896,135.0234 787.8896,135.0234 L797.8896,135.0234 " fill="none" style="stroke:#181818;stroke-width:1;"/><path d="M604,137.5938 L614,137.5938 C629,137.5938 629,135.0234 644,135.0234 L654,135.0234 " fill="none" style="stroke:#181818;stroke-width:1;"/><rect fill="#F1F1F1" height="42.75" rx="12.5" ry="12.5" style="stroke:#181818;stroke-width:1.5;" width="86.8896" x="654" y="173.8281"/><text fill="#000000" font-family="sans-serif" font-size="14" lengthAdjust="spacing" textLength="42" x="664" y="203.502">&#36951;&#24323;&#32618;</text><path d="M722.4506,194.3293 L729.5876,187.1928 C730.157,186.6235 730.157,185.7 729.5876,185.1307 C729.0177,184.5608 728.0949,184.5608 727.5256,185.1307 L720.3885,192.2672 L713.252,185.1307 C712.6826,184.5608 711.7586,184.5608 711.1899,185.1307 C710.62,185.7 710.62,186.6235 711.1899,187.1928 L718.3264,194.3293 L711.1736,201.4827 C710.6036,202.0526 710.6036,202.9755 711.1736,203.5448 C711.4582,203.8295 711.8316,203.9718 712.2049,203.9718 C712.5782,203.9718 712.9516,203.8295 713.2362,203.5448 L720.3891,196.3914 L727.5256,203.5279 C727.8102,203.8125 728.1836,203.9549 728.5569,203.9549 C728.9302,203.9549 729.303,203.8125 729.5882,203.5279 C730.1576,202.958 730.1576,202.0351 729.5882,201.4658 L722.4506,194.3293 " fill="#FE0000" style="stroke:;stroke-width:0;stroke-dasharray:;"/><text fill="#000000" font-family="sans-serif" font-size="14" lengthAdjust="spacing" textLength="70" x="793.8896" y="200.9316">&#19981;&#20316;&#20026;&#29359;&#32618;</text><path d="M740.8896,195.2031 L750.8896,195.2031 C765.8896,195.2031 765.8896,195.2031 780.8896,195.2031 L790.8896,195.2031 " fill="none" style="stroke:#181818;stroke-width:1;"/><path d="M604,137.5938 L614,137.5938 C629,137.5938 629,195.2031 644,195.2031 L654,195.2031 " fill="none" style="stroke:#181818;stroke-width:1;"/><path d="M464,404.5469 L474,404.5469 C489,404.5469 489,137.5938 504,137.5938 L514,137.5938 " fill="none" style="stroke:#181818;stroke-width:1;"/><rect fill="#F1F1F1" height="37.6094" rx="12.5" ry="12.5" style="stroke:#181818;stroke-width:1.5;" width="62" x="514" y="267.9531"/><text fill="#000000" font-family="sans-serif" font-size="14" lengthAdjust="spacing" textLength="42" x="524" y="292.4863">&#24615;&#26435;&#21033;</text><rect fill="#90EE90" height="37.6094" rx="12.5" ry="12.5" style="stroke:#181818;stroke-width:1.5;" width="65.8896" x="626" y="236.5781"/><text fill="#000000" font-family="sans-serif" font-size="14" lengthAdjust="spacing" textLength="42" x="636" y="261.1113">&#24378;&#22904;&#32618;</text><path d="M576,286.7578 L586,286.7578 C601,286.7578 601,255.3828 616,255.3828 L626,255.3828 " fill="none" style="stroke:#181818;stroke-width:1;"/><rect fill="#F1F1F1" height="42.75" rx="12.5" ry="12.5" style="stroke:#181818;stroke-width:1.5;" width="156.8896" x="626" y="294.1875"/><text fill="#000000" font-family="sans-serif" font-size="14" lengthAdjust="spacing" textLength="112" x="636" y="323.8613">&#24378;&#21046;&#29477;&#20149;&#12289;&#20398;&#36785;&#32618;</text><path d="M764.4506,314.6887 L771.5876,307.5522 C772.157,306.9828 772.157,306.0594 771.5876,305.4901 C771.0177,304.9202 770.0949,304.9202 769.5256,305.4901 L762.3885,312.6266 L755.252,305.4901 C754.6826,304.9202 753.7586,304.9202 753.1899,305.4901 C752.62,306.0594 752.62,306.9828 753.1899,307.5522 L760.3264,314.6887 L753.1736,321.8421 C752.6036,322.412 752.6036,323.3348 753.1736,323.9042 C753.4582,324.1888 753.8316,324.3312 754.2049,324.3312 C754.5782,324.3312 754.9516,324.1888 755.2362,323.9042 L762.3891,316.7508 L769.5256,323.8873 C769.8102,324.1719 770.1836,324.3143 770.5569,324.3143 C770.9302,324.3143 771.303,324.1719 771.5882,323.8873 C772.1576,323.3173 772.1576,322.3945 771.5882,321.8252 L764.4506,314.6887 " fill="#FE0000" style="stroke:;stroke-width:0;stroke-dasharray:;"/><path d="M576,286.7578 L586,286.7578 C601,286.7578 601,315.5625 616,315.5625 L626,315.5625 " fill="none" style="stroke:#181818;stroke-width:1;"/><path d="M464,404.5469 L474,404.5469 C489,404.5469 489,286.7578 504,286.7578 L514,286.7578 " fill="none" style="stroke:#181818;stroke-width:1;"/><rect fill="#F1F1F1" height="37.6094" rx="12.5" ry="12.5" style="stroke:#181818;stroke-width:1.5;" width="76" x="514" y="414.5469"/><text fill="#000000" font-family="sans-serif" font-size="14" lengthAdjust="spacing" textLength="56" x="524" y="439.0801">&#20154;&#36523;&#33258;&#30001;</text><rect fill="#90EE90" height="37.6094" rx="12.5" ry="12.5" style="stroke:#181818;stroke-width:1.5;" width="93.8896" x="640" y="356.9375"/><text fill="#000000" font-family="sans-serif" font-size="14" lengthAdjust="spacing" textLength="70" x="650" y="381.4707">&#38750;&#27861;&#25304;&#31105;&#32618;</text><rect fill="#F1F1F1" height="37.6094" rx="12.5" ry="12.5" style="stroke:#181818;stroke-width:1.5;" width="48" x="783.8896" y="356.9375"/><text fill="#000000" font-family="sans-serif" font-size="14" lengthAdjust="spacing" textLength="28" x="793.8896" y="381.4707">&#36807;&#22833;</text><path d="M733.8896,375.7422 L743.8896,375.7422 C758.8896,375.7422 758.8896,375.7422 773.8896,375.7422 L783.8896,375.7422 " fill="none" style="stroke:#181818;stroke-width:1;"/><path d="M590,433.3516 L600,433.3516 C615,433.3516 615,375.7422 630,375.7422 L640,375.7422 " fill="none" style="stroke:#181818;stroke-width:1;"/><rect fill="#90EE90" height="37.6094" rx="12.5" ry="12.5" style="stroke:#181818;stroke-width:1.5;" width="65.8896" x="640" y="414.5469"/><text fill="#000000" font-family="sans-serif" font-size="14" lengthAdjust="spacing" textLength="42" x="650" y="439.0801">&#32465;&#26550;&#32618;</text><path d="M590,433.3516 L600,433.3516 C615,433.3516 615,433.3516 630,433.3516 L640,433.3516 " fill="none" style="stroke:#181818;stroke-width:1;"/><rect fill="#90EE90" height="37.6094" rx="12.5" ry="12.5" style="stroke:#181818;stroke-width:1.5;" width="135.8896" x="640" y="472.1563"/><text fill="#000000" font-family="sans-serif" font-size="14" lengthAdjust="spacing" textLength="112" x="650" y="496.6895">&#25296;&#21334;&#22919;&#22899;&#12289;&#20799;&#31461;&#32618;</text><path d="M590,433.3516 L600,433.3516 C615,433.3516 615,490.9609 630,490.9609 L640,490.9609 " fill="none" style="stroke:#181818;stroke-width:1;"/><path d="M464,404.5469 L474,404.5469 C489,404.5469 489,433.3516 504,433.3516 L514,433.3516 " fill="none" style="stroke:#181818;stroke-width:1;"/><rect fill="#F1F1F1" height="37.6094" rx="12.5" ry="12.5" style="stroke:#181818;stroke-width:1.5;" width="118" x="514" y="563.7109"/><text fill="#000000" font-family="sans-serif" font-size="14" lengthAdjust="spacing" textLength="98" x="524" y="588.2441">&#21517;&#35465;&#26435;&#12289;&#20154;&#36523;&#26435;</text><rect fill="#F1F1F1" height="42.75" rx="12.5" ry="12.5" style="stroke:#181818;stroke-width:1.5;" width="86.8896" x="682" y="529.7656"/><text fill="#000000" font-family="sans-serif" font-size="14" lengthAdjust="spacing" textLength="42" x="692" y="559.4395">&#20398;&#36785;&#32618;</text><path d="M750.4506,550.2668 L757.5876,543.1303 C758.157,542.561 758.157,541.6375 757.5876,541.0682 C757.0177,540.4983 756.0949,540.4983 755.5256,541.0682 L748.3885,548.2047 L741.252,541.0682 C740.6826,540.4983 739.7586,540.4983 739.1899,541.0682 C738.62,541.6375 738.62,542.561 739.1899,543.1303 L746.3264,550.2668 L739.1736,557.4202 C738.6036,557.9901 738.6036,558.913 739.1736,559.4823 C739.4582,559.767 739.8316,559.9093 740.2049,559.9093 C740.5782,559.9093 740.9516,559.767 741.2362,559.4823 L748.3891,552.3289 L755.5256,559.4654 C755.8102,559.75 756.1836,559.8924 756.5569,559.8924 C756.9302,559.8924 757.303,559.75 757.5882,559.4654 C758.1576,558.8955 758.1576,557.9726 757.5882,557.4033 L750.4506,550.2668 " fill="#FE0000" style="stroke:;stroke-width:0;stroke-dasharray:;"/><path d="M632,582.5156 L642,582.5156 C657,582.5156 657,551.1406 672,551.1406 L682,551.1406 " fill="none" style="stroke:#181818;stroke-width:1;"/><rect fill="#F1F1F1" height="42.75" rx="12.5" ry="12.5" style="stroke:#181818;stroke-width:1.5;" width="86.8896" x="682" y="592.5156"/><text fill="#000000" font-family="sans-serif" font-size="14" lengthAdjust="spacing" textLength="42" x="692" y="622.1895">&#35837;&#35876;&#32618;</text><path d="M750.4506,613.0168 L757.5876,605.8803 C758.157,605.311 758.157,604.3875 757.5876,603.8182 C757.0177,603.2483 756.0949,603.2483 755.5256,603.8182 L748.3885,610.9547 L741.252,603.8182 C740.6826,603.2483 739.7586,603.2483 739.1899,603.8182 C738.62,604.3875 738.62,605.311 739.1899,605.8803 L746.3264,613.0168 L739.1736,620.1702 C738.6036,620.7401 738.6036,621.663 739.1736,622.2323 C739.4582,622.517 739.8316,622.6593 740.2049,622.6593 C740.5782,622.6593 740.9516,622.517 741.2362,622.2323 L748.3891,615.0789 L755.5256,622.2154 C755.8102,622.5 756.1836,622.6424 756.5569,622.6424 C756.9302,622.6424 757.303,622.5 757.5882,622.2154 C758.1576,621.6455 758.1576,620.7226 757.5882,620.1533 L750.4506,613.0168 " fill="#FE0000" style="stroke:;stroke-width:0;stroke-dasharray:;"/><path d="M632,582.5156 L642,582.5156 C657,582.5156 657,613.8906 672,613.8906 L682,613.8906 " fill="none" style="stroke:#181818;stroke-width:1;"/><path d="M464,404.5469 L474,404.5469 C489,404.5469 489,582.5156 504,582.5156 L514,582.5156 " fill="none" style="stroke:#181818;stroke-width:1;"/><rect fill="#F1F1F1" height="37.6094" rx="12.5" ry="12.5" style="stroke:#181818;stroke-width:1.5;" width="76" x="514" y="684.0703"/><text fill="#000000" font-family="sans-serif" font-size="14" lengthAdjust="spacing" textLength="56" x="524" y="708.6035">&#23130;&#23035;&#23478;&#24237;</text><rect fill="#90EE90" height="37.6094" rx="12.5" ry="12.5" style="stroke:#181818;stroke-width:1.5;" width="149.8896" x="640" y="655.2656"/><text fill="#000000" font-family="sans-serif" font-size="14" lengthAdjust="spacing" textLength="126" x="650" y="679.7988">&#26292;&#21147;&#24178;&#28041;&#23130;&#23035;&#33258;&#30001;&#32618;</text><rect fill="#F1F1F1" height="37.6094" rx="12.5" ry="12.5" style="stroke:#181818;stroke-width:1.5;" width="48" x="839.8896" y="655.2656"/><text fill="#000000" font-family="sans-serif" font-size="14" lengthAdjust="spacing" textLength="28" x="849.8896" y="679.7988">&#36807;&#22833;</text><path d="M789.8896,674.0703 L799.8896,674.0703 C814.8896,674.0703 814.8896,674.0703 829.8896,674.0703 L839.8896,674.0703 " fill="none" style="stroke:#181818;stroke-width:1;"/><path d="M590,702.875 L600,702.875 C615,702.875 615,674.0703 630,674.0703 L640,674.0703 " fill="none" style="stroke:#181818;stroke-width:1;"/><rect fill="#90EE90" height="37.6094" rx="12.5" ry="12.5" style="stroke:#181818;stroke-width:1.5;" width="65.8896" x="640" y="712.875"/><text fill="#000000" font-family="sans-serif" font-size="14" lengthAdjust="spacing" textLength="42" x="650" y="737.4082">&#34384;&#24453;&#32618;</text><rect fill="#F1F1F1" height="37.6094" rx="12.5" ry="12.5" style="stroke:#181818;stroke-width:1.5;" width="48" x="755.8896" y="712.875"/><text fill="#000000" font-family="sans-serif" font-size="14" lengthAdjust="spacing" textLength="28" x="765.8896" y="737.4082">&#36807;&#22833;</text><path d="M705.8896,731.6797 L715.8896,731.6797 C730.8896,731.6797 730.8896,731.6797 745.8896,731.6797 L755.8896,731.6797 " fill="none" style="stroke:#181818;stroke-width:1;"/><path d="M590,702.875 L600,702.875 C615,702.875 615,731.6797 630,731.6797 L640,731.6797 " fill="none" style="stroke:#181818;stroke-width:1;"/><path d="M464,404.5469 L474,404.5469 C489,404.5469 489,702.875 504,702.875 L514,702.875 " fill="none" style="stroke:#181818;stroke-width:1;"/><path d="M338,462.1563 L348,462.1563 C363,462.1563 363,404.5469 378,404.5469 L388,404.5469 " fill="none" style="stroke:#181818;stroke-width:1;"/><rect fill="#F1F1F1" height="37.6094" rx="12.5" ry="12.5" style="stroke:#181818;stroke-width:1.5;" width="76" x="388" y="799.2891"/><text fill="#000000" font-family="sans-serif" font-size="14" lengthAdjust="spacing" textLength="56" x="398" y="823.8223">&#36130;&#20135;&#29359;&#32618;</text><rect fill="#90EE90" height="37.6094" rx="12.5" ry="12.5" style="stroke:#181818;stroke-width:1.5;" width="233.8896" x="514" y="770.4844"/><text fill="#000000" font-family="sans-serif" font-size="14" lengthAdjust="spacing" textLength="210" x="524" y="795.0176">&#25250;&#22842;&#32618;&#65288;&#23545;&#29289;&#26292;&#21147;&#65292;&#23545;&#20154;&#26377;&#21361;&#38505;&#65289;</text><rect fill="#F1F1F1" height="37.6094" rx="12.5" ry="12.5" style="stroke:#181818;stroke-width:1.5;" width="48" x="797.8896" y="770.4844"/><text fill="#000000" font-family="sans-serif" font-size="14" lengthAdjust="spacing" textLength="28" x="807.8896" y="795.0176">&#36807;&#22833;</text><path d="M747.8896,789.2891 L757.8896,789.2891 C772.8896,789.2891 772.8896,789.2891 787.8896,789.2891 L797.8896,789.2891 " fill="none" style="stroke:#181818;stroke-width:1;"/><path d="M464,818.0938 L474,818.0938 C489,818.0938 489,789.2891 504,789.2891 L514,789.2891 " fill="none" style="stroke:#181818;stroke-width:1;"/><rect fill="#90EE90" height="37.6094" rx="12.5" ry="12.5" style="stroke:#181818;stroke-width:1.5;" width="219.8896" x="514" y="828.0938"/><text fill="#000000" font-family="sans-serif" font-size="14" lengthAdjust="spacing" textLength="196" x="524" y="852.627">&#25250;&#21163;&#32618;&#65288;&#23545;&#20154;&#26292;&#21147;&#65292;&#21387;&#21046;&#21453;&#25239;&#65289;</text><path d="M464,818.0938 L474,818.0938 C489,818.0938 489,846.8984 504,846.8984 L514,846.8984 " fill="none" style="stroke:#181818;stroke-width:1;"/><path d="M338,462.1563 L348,462.1563 C363,462.1563 363,818.0938 378,818.0938 L388,818.0938 " fill="none" style="stroke:#181818;stroke-width:1;"/><path d="M184,490.9609 L194,490.9609 C209,490.9609 209,462.1563 224,462.1563 L234,462.1563 " fill="none" style="stroke:#181818;stroke-width:1;"/><rect fill="#F1F1F1" height="37.6094" rx="12.5" ry="12.5" style="stroke:#181818;stroke-width:1.5;" width="104" x="234" y="885.7031"/><text fill="#000000" font-family="sans-serif" font-size="14" lengthAdjust="spacing" textLength="84" x="244" y="910.2363">&#20405;&#29359;&#31038;&#20250;&#27861;&#30410;</text><rect fill="#F1F1F1" height="37.6094" rx="12.5" ry="12.5" style="stroke:#181818;stroke-width:1.5;" width="104" x="388" y="885.7031"/><text fill="#000000" font-family="sans-serif" font-size="14" lengthAdjust="spacing" textLength="84" x="398" y="910.2363">&#21361;&#23475;&#20844;&#20849;&#23433;&#20840;</text><rect fill="#90EE90" height="37.6094" rx="12.5" ry="12.5" style="stroke:#181818;stroke-width:1.5;" width="65.8896" x="542" y="885.7031"/><text fill="#000000" font-family="sans-serif" font-size="14" lengthAdjust="spacing" textLength="42" x="552" y="910.2363">&#25918;&#28779;&#32618;</text><path d="M492,904.5078 L502,904.5078 C517,904.5078 517,904.5078 532,904.5078 L542,904.5078 " fill="none" style="stroke:#181818;stroke-width:1;"/><path d="M338,904.5078 L348,904.5078 C363,904.5078 363,904.5078 378,904.5078 L388,904.5078 " fill="none" style="stroke:#181818;stroke-width:1;"/><path d="M184,490.9609 L194,490.9609 C209,490.9609 209,904.5078 224,904.5078 L234,904.5078 " fill="none" style="stroke:#181818;stroke-width:1;"/><!--SRC=[xLXVJzjM57_tfxXJNw0IuOzGLKKHegIWhI9LjT2-JZVERN1nV2Fx9brKJGAr31AQbQvqNIcmgO8oO8CnMaH3I3_CVEtmn5VOiHr30d7ihOyZGf5zpk_-pZr_Row36iCgIqjACeqpWl25f8XoDabGADGDVnhBowGx8sE5PTDobmNh0boNBGz981C4WKbC9iWyV66iBF7YhySp9REuSrAPDVPUcc-AjVNlQ-i_dbGAWd0r00Z1vohIgnz0hHziwkMoWx0LTMMvN2jlWTuysZmLEofpuHV-_EZloIa0w4SlchGEmdWvRJnvPYnF0WkiZqHKaXmOy0JgbLM-lGT058cGT6OSQvBM0kuigNsQuQkxBRYEfrxnocERvGhO2tyRzg3u1ka79VreIJyej_JFc5mtbX_psOqMHdYbpDSEVBVg06VtpQThUla3X4glRjUgkzwRSmDUczaq5rfwjxm2EJBcVZRVJNrkfCp3vyRAVW0dZBbvNlg9lvlXQtlW17_ooTnQQxiE79ylrJOB443BQzidU6x1xHUHkWyxHxK_Lzl5ZMyiylL3lhtFot-qSc7nFI- -uH__ClOB3jG9yUV6iFPwdbUd_niB2Dw_rSlhhQkl-9QlMbq3VSjtFfg53SU5ayfJUBLQTQd0Ixl7hpUWa_qIs6BxZeNYrga5Y_BKmWzpKBNyMSaelcf9xquDSxMgLnOlJ0tO67God_wTJyD3WK__TjxsGjMSsheGDa4O930StG4vs3ml8_Oa713gWfiIJgauZHu1ToWXPudzXD0G5YTIAiqgoIYLgOfaAJNEB3relxEmIQnEG15vmEjQ5vnI2L7QCTk01dJU1vntiLJ5IifhquxIXMQoQaRsWZfA5-hjM8DJAjMysAwCZ0mDHQCkCazacJxqm3fA6og4t3JwnweHtUC1roRoTieQiNtjOzK87GAHE0w55cWpKagXAWcGDuH69OMSbvzH13JRbieYKnGg4eLvnKQnWuxG25MO8qh8W3d72irHtvl2W4oY2fQZgfHs7Jr3Cfh6ZBR4tb591glOaloRPJSIL6L-LHEKYp58A_Dhb81iKPg6Rc5UsQwlzAApigEG52GCI1k3sMxe-2KgIKYciTwR3Gp344p8aZRkFR4QrZTRUpWkiVEnyJ1pcp9_IxPNOXuh0RmISPAmKsDO5AMaTqatJL8_vllGQLf3-yAxI6Bu0SdwD36LOGigJJPKe4yBkIjiEncgIKpAaHjYGpjScCPO9a4TENC1Se5zgTCI783Mw0vIK_LJp2BNiea7HBJelQA3St3i4ZKWRqwYq44sDVLZjk8UEDndWxovSTltQbCj-nuH0dn5kkk_92xlKvVtgSlxrELzwdzodxfZ_M_fRcmKvOYgMUTCRwYlfwy_TBqZZXcwJNEeznhgwGttzuVxhw5eV0nPwawX8_RL6D9e5evPb8H3I9KIMMioTmgtS0wZhxCmfzCaZAotZh5O9ueFkq8qhEGabIffcCt2hNin1uI-f2oUeSm6N-ll6f8OYXCLjeNknOIRv3xEoWoMYZGfAQamkZisqdLT68KPdiKfC0IdPXI6ErFpe8l_0m00]--></g></svg>