<svg xmlns="http://www.w3.org/2000/svg" xmlns:xlink="http://www.w3.org/1999/xlink" contentStyleType="text/css" height="924px" preserveAspectRatio="none" style="width:896px;height:924px;background:#FFFFFF;" version="1.1" viewBox="0 0 896 924" width="896px" zoomAndPan="magnify"><title>&#32467;&#26524;&#21152;&#37325;&#29359;&#65288;&#27861;&#30410;&#35270;&#35282;&#65289;</title><defs/><g><text fill="#000000" font-family="sans-serif" font-size="14" font-weight="bold" lengthAdjust="spacing" textLength="158.8125" x="367.0938" y="34.5332">&#32467;&#26524;&#21152;&#37325;&#29359;&#65288;&#27861;&#30410;&#35270;&#35282;&#65289;</text><rect fill="#F1F1F1" height="37.6094" rx="12.5" ry="12.5" style="stroke:#181818;stroke-width:1.5;" width="174" x="10" y="461.875"/><text fill="#000000" font-family="sans-serif" font-size="14" lengthAdjust="spacing" textLength="154" x="20" y="486.4082">&#32467;&#26524;&#21152;&#37325;&#29359;&#65288;&#27861;&#30410;&#35270;&#35282;&#65289;</text><rect fill="#F1F1F1" height="37.6094" rx="12.5" ry="12.5" style="stroke:#181818;stroke-width:1.5;" width="104" x="234" y="433.0703"/><text fill="#000000" font-family="sans-serif" font-size="14" lengthAdjust="spacing" textLength="84" x="244" y="457.6035">&#20405;&#29359;&#20010;&#20154;&#27861;&#30410;</text><rect fill="#F1F1F1" height="37.6094" rx="12.5" ry="12.5" style="stroke:#181818;stroke-width:1.5;" width="76" x="388" y="375.4609"/><text fill="#000000" font-family="sans-serif" font-size="14" lengthAdjust="spacing" textLength="56" x="398" y="399.9941">&#20154;&#36523;&#29359;&#32618;</text><rect fill="#F1F1F1" height="37.6094" rx="12.5" ry="12.5" style="stroke:#181818;stroke-width:1.5;" width="90" x="514" y="116.2188"/><text fill="#000000" font-family="sans-serif" font-size="14" lengthAdjust="spacing" textLength="70" x="524" y="140.752">&#29983;&#21629;&#12289;&#36523;&#20307;</text><rect fill="#FF0000" height="37.6094" rx="12.5" ry="12.5" style="stroke:#181818;stroke-width:1.5;" width="90" x="654" y="58.6094"/><text fill="#000000" font-family="sans-serif" font-size="14" lengthAdjust="spacing" textLength="70" x="664" y="83.1426">&#25925;&#24847;&#26432;&#20154;&#32618;</text><path d="M604,135.0234 L614,135.0234 C629,135.0234 629,77.4141 644,77.4141 L654,77.4141 " fill="none" style="stroke:#181818;stroke-width:1;"/><rect fill="#90EE90" height="37.6094" rx="12.5" ry="12.5" style="stroke:#181818;stroke-width:1.5;" width="90" x="654" y="116.2188"/><text fill="#000000" font-family="sans-serif" font-size="14" lengthAdjust="spacing" textLength="70" x="664" y="140.752">&#25925;&#24847;&#20260;&#23475;&#32618;</text><rect fill="#F1F1F1" height="37.6094" rx="12.5" ry="12.5" style="stroke:#181818;stroke-width:1.5;" width="48" x="794" y="116.2188"/><text fill="#000000" font-family="sans-serif" font-size="14" lengthAdjust="spacing" textLength="28" x="804" y="140.752">&#36807;&#22833;</text><path d="M744,135.0234 L754,135.0234 C769,135.0234 769,135.0234 784,135.0234 L794,135.0234 " fill="none" style="stroke:#181818;stroke-width:1;"/><path d="M604,135.0234 L614,135.0234 C629,135.0234 629,135.0234 644,135.0234 L654,135.0234 " fill="none" style="stroke:#181818;stroke-width:1;"/><rect fill="#D3D3D3" height="37.6094" rx="12.5" ry="12.5" style="stroke:#181818;stroke-width:1.5;" width="62" x="654" y="173.8281"/><text fill="#000000" font-family="sans-serif" font-size="14" lengthAdjust="spacing" textLength="42" x="664" y="198.3613">&#36951;&#24323;&#32618;</text><text fill="#000000" font-family="sans-serif" font-size="14" lengthAdjust="spacing" textLength="70" x="769" y="198.3613">&#19981;&#20316;&#20026;&#29359;&#32618;</text><path d="M716,192.6328 L726,192.6328 C741,192.6328 741,192.6328 756,192.6328 L766,192.6328 " fill="none" style="stroke:#181818;stroke-width:1;"/><path d="M604,135.0234 L614,135.0234 C629,135.0234 629,192.6328 644,192.6328 L654,192.6328 " fill="none" style="stroke:#181818;stroke-width:1;"/><path d="M464,394.2656 L474,394.2656 C489,394.2656 489,135.0234 504,135.0234 L514,135.0234 " fill="none" style="stroke:#181818;stroke-width:1;"/><rect fill="#F1F1F1" height="37.6094" rx="12.5" ry="12.5" style="stroke:#181818;stroke-width:1.5;" width="62" x="514" y="260.2422"/><text fill="#000000" font-family="sans-serif" font-size="14" lengthAdjust="spacing" textLength="42" x="524" y="284.7754">&#24615;&#26435;&#21033;</text><rect fill="#90EE90" height="37.6094" rx="12.5" ry="12.5" style="stroke:#181818;stroke-width:1.5;" width="62" x="626" y="231.4375"/><text fill="#000000" font-family="sans-serif" font-size="14" lengthAdjust="spacing" textLength="42" x="636" y="255.9707">&#24378;&#22904;&#32618;</text><path d="M576,279.0469 L586,279.0469 C601,279.0469 601,250.2422 616,250.2422 L626,250.2422 " fill="none" style="stroke:#181818;stroke-width:1;"/><rect fill="#D3D3D3" height="37.6094" rx="12.5" ry="12.5" style="stroke:#181818;stroke-width:1.5;" width="132" x="626" y="289.0469"/><text fill="#000000" font-family="sans-serif" font-size="14" lengthAdjust="spacing" textLength="112" x="636" y="313.5801">&#24378;&#21046;&#29477;&#20149;&#12289;&#20398;&#36785;&#32618;</text><path d="M576,279.0469 L586,279.0469 C601,279.0469 601,307.8516 616,307.8516 L626,307.8516 " fill="none" style="stroke:#181818;stroke-width:1;"/><path d="M464,394.2656 L474,394.2656 C489,394.2656 489,279.0469 504,279.0469 L514,279.0469 " fill="none" style="stroke:#181818;stroke-width:1;"/><rect fill="#F1F1F1" height="37.6094" rx="12.5" ry="12.5" style="stroke:#181818;stroke-width:1.5;" width="76" x="514" y="404.2656"/><text fill="#000000" font-family="sans-serif" font-size="14" lengthAdjust="spacing" textLength="56" x="524" y="428.7988">&#20154;&#36523;&#33258;&#30001;</text><rect fill="#90EE90" height="37.6094" rx="12.5" ry="12.5" style="stroke:#181818;stroke-width:1.5;" width="90" x="640" y="346.6563"/><text fill="#000000" font-family="sans-serif" font-size="14" lengthAdjust="spacing" textLength="70" x="650" y="371.1895">&#38750;&#27861;&#25304;&#31105;&#32618;</text><rect fill="#F1F1F1" height="37.6094" rx="12.5" ry="12.5" style="stroke:#181818;stroke-width:1.5;" width="48" x="780" y="346.6563"/><text fill="#000000" font-family="sans-serif" font-size="14" lengthAdjust="spacing" textLength="28" x="790" y="371.1895">&#36807;&#22833;</text><path d="M730,365.4609 L740,365.4609 C755,365.4609 755,365.4609 770,365.4609 L780,365.4609 " fill="none" style="stroke:#181818;stroke-width:1;"/><path d="M590,423.0703 L600,423.0703 C615,423.0703 615,365.4609 630,365.4609 L640,365.4609 " fill="none" style="stroke:#181818;stroke-width:1;"/><rect fill="#90EE90" height="37.6094" rx="12.5" ry="12.5" style="stroke:#181818;stroke-width:1.5;" width="132" x="640" y="404.2656"/><text fill="#000000" font-family="sans-serif" font-size="14" lengthAdjust="spacing" textLength="112" x="650" y="428.7988">&#25296;&#21334;&#22919;&#22899;&#12289;&#20799;&#31461;&#32618;</text><path d="M590,423.0703 L600,423.0703 C615,423.0703 615,423.0703 630,423.0703 L640,423.0703 " fill="none" style="stroke:#181818;stroke-width:1;"/><rect fill="#F1F1F1" height="37.6094" rx="12.5" ry="12.5" style="stroke:#181818;stroke-width:1.5;" width="62" x="640" y="461.875"/><text fill="#000000" font-family="sans-serif" font-size="14" lengthAdjust="spacing" textLength="42" x="650" y="486.4082">&#32465;&#26550;&#32618;</text><path d="M590,423.0703 L600,423.0703 C615,423.0703 615,480.6797 630,480.6797 L640,480.6797 " fill="none" style="stroke:#181818;stroke-width:1;"/><path d="M464,394.2656 L474,394.2656 C489,394.2656 489,423.0703 504,423.0703 L514,423.0703 " fill="none" style="stroke:#181818;stroke-width:1;"/><rect fill="#F1F1F1" height="37.6094" rx="12.5" ry="12.5" style="stroke:#181818;stroke-width:1.5;" width="118" x="514" y="548.2891"/><text fill="#000000" font-family="sans-serif" font-size="14" lengthAdjust="spacing" textLength="98" x="524" y="572.8223">&#21517;&#35465;&#26435;&#12289;&#20154;&#36523;&#26435;</text><rect fill="#D3D3D3" height="37.6094" rx="12.5" ry="12.5" style="stroke:#181818;stroke-width:1.5;" width="62" x="682" y="519.4844"/><text fill="#000000" font-family="sans-serif" font-size="14" lengthAdjust="spacing" textLength="42" x="692" y="544.0176">&#20398;&#36785;&#32618;</text><path d="M632,567.0938 L642,567.0938 C657,567.0938 657,538.2891 672,538.2891 L682,538.2891 " fill="none" style="stroke:#181818;stroke-width:1;"/><rect fill="#D3D3D3" height="37.6094" rx="12.5" ry="12.5" style="stroke:#181818;stroke-width:1.5;" width="62" x="682" y="577.0938"/><text fill="#000000" font-family="sans-serif" font-size="14" lengthAdjust="spacing" textLength="42" x="692" y="601.627">&#35837;&#35876;&#32618;</text><path d="M632,567.0938 L642,567.0938 C657,567.0938 657,595.8984 672,595.8984 L682,595.8984 " fill="none" style="stroke:#181818;stroke-width:1;"/><path d="M464,394.2656 L474,394.2656 C489,394.2656 489,567.0938 504,567.0938 L514,567.0938 " fill="none" style="stroke:#181818;stroke-width:1;"/><rect fill="#F1F1F1" height="37.6094" rx="12.5" ry="12.5" style="stroke:#181818;stroke-width:1.5;" width="76" x="514" y="663.5078"/><text fill="#000000" font-family="sans-serif" font-size="14" lengthAdjust="spacing" textLength="56" x="524" y="688.041">&#23130;&#23035;&#23478;&#24237;</text><rect fill="#90EE90" height="37.6094" rx="12.5" ry="12.5" style="stroke:#181818;stroke-width:1.5;" width="146" x="640" y="634.7031"/><text fill="#000000" font-family="sans-serif" font-size="14" lengthAdjust="spacing" textLength="126" x="650" y="659.2363">&#26292;&#21147;&#24178;&#28041;&#23130;&#23035;&#33258;&#30001;&#32618;</text><rect fill="#F1F1F1" height="37.6094" rx="12.5" ry="12.5" style="stroke:#181818;stroke-width:1.5;" width="48" x="836" y="634.7031"/><text fill="#000000" font-family="sans-serif" font-size="14" lengthAdjust="spacing" textLength="28" x="846" y="659.2363">&#36807;&#22833;</text><path d="M786,653.5078 L796,653.5078 C811,653.5078 811,653.5078 826,653.5078 L836,653.5078 " fill="none" style="stroke:#181818;stroke-width:1;"/><path d="M590,682.3125 L600,682.3125 C615,682.3125 615,653.5078 630,653.5078 L640,653.5078 " fill="none" style="stroke:#181818;stroke-width:1;"/><rect fill="#90EE90" height="37.6094" rx="12.5" ry="12.5" style="stroke:#181818;stroke-width:1.5;" width="62" x="640" y="692.3125"/><text fill="#000000" font-family="sans-serif" font-size="14" lengthAdjust="spacing" textLength="42" x="650" y="716.8457">&#34384;&#24453;&#32618;</text><rect fill="#F1F1F1" height="37.6094" rx="12.5" ry="12.5" style="stroke:#181818;stroke-width:1.5;" width="48" x="752" y="692.3125"/><text fill="#000000" font-family="sans-serif" font-size="14" lengthAdjust="spacing" textLength="28" x="762" y="716.8457">&#36807;&#22833;</text><path d="M702,711.1172 L712,711.1172 C727,711.1172 727,711.1172 742,711.1172 L752,711.1172 " fill="none" style="stroke:#181818;stroke-width:1;"/><path d="M590,682.3125 L600,682.3125 C615,682.3125 615,711.1172 630,711.1172 L640,711.1172 " fill="none" style="stroke:#181818;stroke-width:1;"/><path d="M464,394.2656 L474,394.2656 C489,394.2656 489,682.3125 504,682.3125 L514,682.3125 " fill="none" style="stroke:#181818;stroke-width:1;"/><path d="M338,451.875 L348,451.875 C363,451.875 363,394.2656 378,394.2656 L388,394.2656 " fill="none" style="stroke:#181818;stroke-width:1;"/><rect fill="#F1F1F1" height="37.6094" rx="12.5" ry="12.5" style="stroke:#181818;stroke-width:1.5;" width="76" x="388" y="778.7266"/><text fill="#000000" font-family="sans-serif" font-size="14" lengthAdjust="spacing" textLength="56" x="398" y="803.2598">&#36130;&#20135;&#29359;&#32618;</text><rect fill="#90EE90" height="37.6094" rx="12.5" ry="12.5" style="stroke:#181818;stroke-width:1.5;" width="230" x="514" y="749.9219"/><text fill="#000000" font-family="sans-serif" font-size="14" lengthAdjust="spacing" textLength="210" x="524" y="774.4551">&#25250;&#22842;&#32618;&#65288;&#23545;&#29289;&#26292;&#21147;&#65292;&#23545;&#20154;&#26377;&#21361;&#38505;&#65289;</text><rect fill="#F1F1F1" height="37.6094" rx="12.5" ry="12.5" style="stroke:#181818;stroke-width:1.5;" width="48" x="794" y="749.9219"/><text fill="#000000" font-family="sans-serif" font-size="14" lengthAdjust="spacing" textLength="28" x="804" y="774.4551">&#36807;&#22833;</text><path d="M744,768.7266 L754,768.7266 C769,768.7266 769,768.7266 784,768.7266 L794,768.7266 " fill="none" style="stroke:#181818;stroke-width:1;"/><path d="M464,797.5313 L474,797.5313 C489,797.5313 489,768.7266 504,768.7266 L514,768.7266 " fill="none" style="stroke:#181818;stroke-width:1;"/><rect fill="#90EE90" height="37.6094" rx="12.5" ry="12.5" style="stroke:#181818;stroke-width:1.5;" width="216" x="514" y="807.5313"/><text fill="#000000" font-family="sans-serif" font-size="14" lengthAdjust="spacing" textLength="196" x="524" y="832.0645">&#25250;&#21163;&#32618;&#65288;&#23545;&#20154;&#26292;&#21147;&#65292;&#21387;&#21046;&#21453;&#25239;&#65289;</text><path d="M464,797.5313 L474,797.5313 C489,797.5313 489,826.3359 504,826.3359 L514,826.3359 " fill="none" style="stroke:#181818;stroke-width:1;"/><path d="M338,451.875 L348,451.875 C363,451.875 363,797.5313 378,797.5313 L388,797.5313 " fill="none" style="stroke:#181818;stroke-width:1;"/><path d="M184,480.6797 L194,480.6797 C209,480.6797 209,451.875 224,451.875 L234,451.875 " fill="none" style="stroke:#181818;stroke-width:1;"/><rect fill="#F1F1F1" height="37.6094" rx="12.5" ry="12.5" style="stroke:#181818;stroke-width:1.5;" width="104" x="234" y="865.1406"/><text fill="#000000" font-family="sans-serif" font-size="14" lengthAdjust="spacing" textLength="84" x="244" y="889.6738">&#20405;&#29359;&#31038;&#20250;&#27861;&#30410;</text><rect fill="#F1F1F1" height="37.6094" rx="12.5" ry="12.5" style="stroke:#181818;stroke-width:1.5;" width="104" x="388" y="865.1406"/><text fill="#000000" font-family="sans-serif" font-size="14" lengthAdjust="spacing" textLength="84" x="398" y="889.6738">&#21361;&#23475;&#20844;&#20849;&#23433;&#20840;</text><rect fill="#90EE90" height="37.6094" rx="12.5" ry="12.5" style="stroke:#181818;stroke-width:1.5;" width="62" x="542" y="865.1406"/><text fill="#000000" font-family="sans-serif" font-size="14" lengthAdjust="spacing" textLength="42" x="552" y="889.6738">&#25918;&#28779;&#32618;</text><path d="M492,883.9453 L502,883.9453 C517,883.9453 517,883.9453 532,883.9453 L542,883.9453 " fill="none" style="stroke:#181818;stroke-width:1;"/><path d="M338,883.9453 L348,883.9453 C363,883.9453 363,883.9453 378,883.9453 L388,883.9453 " fill="none" style="stroke:#181818;stroke-width:1;"/><path d="M184,480.6797 L194,480.6797 C209,480.6797 209,883.9453 224,883.9453 L234,883.9453 " fill="none" style="stroke:#181818;stroke-width:1;"/><!--SRC=[xLXVJzjM57_tfxZJNg0IeI24AeGG9GLj5QcgXVQrkh5lWulZ6zdNgQAf4gXbaD2qTANhIe5D5PG16upH8Xf2-c7cQuSdliAExHWIYEDKVPf4X2BxdD_zdJ_td7Dp6TGPrbXALgKKJWl2Dx8gAeP4K2JI2NywoogaCwrWbHaffSE1TG2kmvL7P909Wi1afX1a7xwqLfPu_lVZcOATtpafpLfxh-ot-ShwJvNrdqzAEK6uqW88mUSACiiVGMqUR9h5eeTm5LLbiLWfRe7UFjey5NigU-4t_kBetyaf09X7B-kq7i9wDMqzUMujJm8BhE_lruWqC108D4khV7lF1IOrGjG6K0zU-Jp3LtSRy1nFlUQbnpv3DeZW7Z8F2kRHadbGR1YPDRbkBJ_ciniDJF1IaQyTD7NI0ytksq_NpE97I91PtgwKTuFSyfDScTcq5nf6jRm2-sBD_Mg_d_gQx5Xpyxpm2ty_mzVsm2l-vBEzjHOIYNtumbhPlvWYFb-eREOWIqvuhllmt61zyz2h3kySLVvU3KuFtrZawuTyUvyN_seKrk87dd_BF_rZxUSyg9V9hqbLvSqyBqz_EGC8FhmpY-kDooh_ZgywZG2jo7S-sRaDp_MJqbDuTRflASSBkyTlDg0vcsrA0xSzzlpMARj3Tyh-R0xAaJylMFdN5wZz0M2lbitIueK100v1K_BfF_aqFEJuz1_dxIwKxQcjkbG9mY216UVFkS7wiTVl3hG1eIgu8UEaXbFeH-2D91I3k4y83M5n8gbHGvMYLA4QKkJaE7Fqe7taO2MiJS102O1NjJxOTQqPimkeGMT3m5aVIpMi9eESzfG-D6reQIK8wYbzQ71WDK5fL0zY-tPaP6We6lMHMQ8ez640rbEwK252KkbnhCjwUAvgqTtDuw-53e5878V2QSc0d5IfHbhO2uH6PPMSbvzHj6YsAPL3fgfK92eBeD5LDv48ZL2LUQA40fXph53mLTzK1cGoLR4IrUIK7-WPaj4KPhGXzhP6qbZ3ZkHBbbrFK8s5LKAhN8p1jhAmuc-HBKfJq04iQBUhAuFedDrHIH8s34Xhazbia8Hjb4H8Mf_8kkX75mmCms1BAB8-7Zo5QjRNMtiuBhFpkGamSukoS4jkL68Mgor49MA9i5DZM1HbARYawwPZ6FDzw3IzfdtXNIGn_80O8KrC5N11er9D1OQqaB_2jPEckipa3BakrhJ3XGcB5T9g86SXm5xWKEgK38UQCuvRgQdgoUIGwqRY0H4T-g3iu0mSfKHhaJSZK-WWbvg6CJjvRpdTPuEyld6RzsfTBOSU4G9yzNTMVnrSNdKkhpgNLvtBgyx_wwfps_dlpPtOACeGJNUEYwv8zzNkdiYrjZXcw1RDeAvUTBMhhwUdhwSNHUDZo56t2ssnxyUGJWquBP44Puac9mndmBOBDt46enyC6BSfqeUSjxQnM3kA3_j2DAncP8sgAHYnmisxCG-4lgCidgRC1VVsT0p93CM91cwXkp7X1hcF3ON1Kf5AifhiGtV6HZgk2QCmYWsS14Dm-4LXHZCj2xhuVm00]--></g></svg>