<svg xmlns="http://www.w3.org/2000/svg" xmlns:xlink="http://www.w3.org/1999/xlink" contentStyleType="text/css" height="882px" preserveAspectRatio="none" style="width:836px;height:882px;background:#FFFFFF;" version="1.1" viewBox="0 0 836 882" width="836px" zoomAndPan="magnify"><title>&#21152;&#37325;&#29359;-&#29359;&#32618;&#24418;&#24577;</title><defs/><g><text fill="#000000" font-family="sans-serif" font-size="14" font-weight="bold" lengthAdjust="spacing" textLength="105.7246" x="363.8911" y="34.5332">&#21152;&#37325;&#29359;-&#29359;&#32618;&#24418;&#24577;</text><rect fill="#F1F1F1" height="37.6094" rx="12.5" ry="12.5" style="stroke:#181818;stroke-width:1.5;" width="122.6621" x="10" y="440.7813"/><text fill="#000000" font-family="sans-serif" font-size="14" lengthAdjust="spacing" textLength="102.6621" x="20" y="465.3145">&#21152;&#37325;&#29359;-&#29359;&#32618;&#24418;&#24577;</text><rect fill="#F1F1F1" height="37.6094" rx="12.5" ry="12.5" style="stroke:#181818;stroke-width:1.5;" width="34" x="182.6621" y="234.0078"/><text fill="#000000" font-family="sans-serif" font-size="14" lengthAdjust="spacing" textLength="14" x="192.6621" y="258.541">&#20154;</text><rect fill="#F1F1F1" height="37.6094" rx="12.5" ry="12.5" style="stroke:#181818;stroke-width:1.5;" width="62" x="266.6621" y="147.5938"/><text fill="#000000" font-family="sans-serif" font-size="14" lengthAdjust="spacing" textLength="42" x="276.6621" y="172.127">&#22522;&#26412;&#29359;</text><rect fill="#F1F1F1" height="37.6094" rx="12.5" ry="12.5" style="stroke:#181818;stroke-width:1.5;" width="48" x="378.6621" y="116.2188"/><text fill="#000000" font-family="sans-serif" font-size="14" lengthAdjust="spacing" textLength="28" x="388.6621" y="140.752">&#25925;&#24847;</text><rect fill="#F1F1F1" height="37.6094" rx="12.5" ry="12.5" style="stroke:#181818;stroke-width:1.5;" width="76" x="476.6621" y="116.2188"/><text fill="#000000" font-family="sans-serif" font-size="14" lengthAdjust="spacing" textLength="56" x="486.6621" y="140.752">&#29359;&#32618;&#24418;&#24577;</text><rect fill="#F1F1F1" height="37.6094" rx="12.5" ry="12.5" style="stroke:#181818;stroke-width:1.5;" width="48" x="602.6621" y="58.6094"/><text fill="#000000" font-family="sans-serif" font-size="14" lengthAdjust="spacing" textLength="28" x="612.6621" y="83.1426">&#26410;&#36930;</text><path d="M552.6621,135.0234 L562.6621,135.0234 C577.6621,135.0234 577.6621,77.4141 592.6621,77.4141 L602.6621,77.4141 " fill="none" style="stroke:#181818;stroke-width:1;"/><rect fill="#F1F1F1" height="37.6094" rx="12.5" ry="12.5" style="stroke:#181818;stroke-width:1.5;" width="48" x="602.6621" y="116.2188"/><text fill="#000000" font-family="sans-serif" font-size="14" lengthAdjust="spacing" textLength="28" x="612.6621" y="140.752">&#20013;&#27490;</text><path d="M552.6621,135.0234 L562.6621,135.0234 C577.6621,135.0234 577.6621,135.0234 592.6621,135.0234 L602.6621,135.0234 " fill="none" style="stroke:#181818;stroke-width:1;"/><rect fill="#F1F1F1" height="37.6094" rx="12.5" ry="12.5" style="stroke:#181818;stroke-width:1.5;" width="48" x="602.6621" y="173.8281"/><text fill="#000000" font-family="sans-serif" font-size="14" lengthAdjust="spacing" textLength="28" x="612.6621" y="198.3613">&#26082;&#36930;</text><path d="M552.6621,135.0234 L562.6621,135.0234 C577.6621,135.0234 577.6621,192.6328 592.6621,192.6328 L602.6621,192.6328 " fill="none" style="stroke:#181818;stroke-width:1;"/><path d="M426.6621,135.0234 L436.6621,135.0234 C451.6621,135.0234 451.6621,135.0234 466.6621,135.0234 L476.6621,135.0234 " fill="none" style="stroke:#181818;stroke-width:1;"/><path d="M328.6621,166.3984 L338.6621,166.3984 C353.6621,166.3984 353.6621,135.0234 368.6621,135.0234 L378.6621,135.0234 " fill="none" style="stroke:#181818;stroke-width:1;"/><rect fill="#F1F1F1" height="42.75" rx="12.5" ry="12.5" style="stroke:#181818;stroke-width:1.5;" width="72.8896" x="378.6621" y="231.4375"/><text fill="#000000" font-family="sans-serif" font-size="14" lengthAdjust="spacing" textLength="28" x="388.6621" y="261.1113">&#36807;&#22833;</text><path d="M433.5239,251.9398 L439.289,246.1748 C439.9727,245.4917 439.9727,244.3833 439.289,243.6997 C438.6053,243.0166 437.4982,243.0166 436.8145,243.6997 L431.0494,249.4648 L425.2843,243.7003 C424.6013,243.0166 423.4929,243.0166 422.8093,243.7003 C422.1262,244.3833 422.1262,245.4917 422.8093,246.1753 L428.5743,251.9398 L422.7953,257.7189 C422.1122,258.402 422.1122,259.5103 422.7953,260.1934 C423.1365,260.5353 423.5851,260.7062 424.0325,260.7062 C424.4799,260.7062 424.9285,260.5353 425.2703,260.1934 L431.0488,254.4149 L436.8133,260.1794 C437.1552,260.5213 437.6032,260.6922 438.0506,260.6922 C438.498,260.6922 438.946,260.5213 439.2878,260.1794 C439.9715,259.4963 439.9715,258.388 439.2878,257.7049 L433.5239,251.9398 " fill="#FE0000" style="stroke:;stroke-width:0;stroke-dasharray:;"/><rect fill="#F1F1F1" height="37.6094" rx="12.5" ry="12.5" style="stroke:#181818;stroke-width:1.5;" width="188" x="501.5518" y="234.0078"/><text fill="#000000" font-family="sans-serif" font-size="14" lengthAdjust="spacing" textLength="168" x="511.5518" y="258.541">&#22522;&#26412;&#29359;&#37117;&#26159;&#25925;&#24847;&#65292;&#27809;&#26377;&#36807;&#22833;</text><path d="M451.5518,252.8125 L461.5518,252.8125 C476.5518,252.8125 476.5518,252.8125 491.5518,252.8125 L501.5518,252.8125 " fill="none" style="stroke:#181818;stroke-width:1;"/><path d="M328.6621,166.3984 L338.6621,166.3984 C353.6621,166.3984 353.6621,252.8125 368.6621,252.8125 L378.6621,252.8125 " fill="none" style="stroke:#181818;stroke-width:1;"/><path d="M216.6621,252.8125 L226.6621,252.8125 C241.6621,252.8125 241.6621,166.3984 256.6621,166.3984 L266.6621,166.3984 " fill="none" style="stroke:#181818;stroke-width:1;"/><rect fill="#F1F1F1" height="37.6094" rx="12.5" ry="12.5" style="stroke:#181818;stroke-width:1.5;" width="62" x="266.6621" y="351.7969"/><text fill="#000000" font-family="sans-serif" font-size="14" lengthAdjust="spacing" textLength="42" x="276.6621" y="376.3301">&#21152;&#37325;&#29359;</text><rect fill="#F1F1F1" height="37.6094" rx="12.5" ry="12.5" style="stroke:#181818;stroke-width:1.5;" width="48" x="378.6621" y="351.7969"/><text fill="#000000" font-family="sans-serif" font-size="14" lengthAdjust="spacing" textLength="28" x="388.6621" y="376.3301">&#25925;&#24847;</text><rect fill="#F1F1F1" height="37.6094" rx="12.5" ry="12.5" style="stroke:#181818;stroke-width:1.5;" width="76" x="476.6621" y="351.7969"/><text fill="#000000" font-family="sans-serif" font-size="14" lengthAdjust="spacing" textLength="56" x="486.6621" y="376.3301">&#29359;&#32618;&#24418;&#24577;</text><rect fill="#F1F1F1" height="37.6094" rx="12.5" ry="12.5" style="stroke:#181818;stroke-width:1.5;" width="48" x="602.6621" y="294.1875"/><text fill="#000000" font-family="sans-serif" font-size="14" lengthAdjust="spacing" textLength="28" x="612.6621" y="318.7207">&#26410;&#36930;</text><path d="M552.6621,370.6016 L562.6621,370.6016 C577.6621,370.6016 577.6621,312.9922 592.6621,312.9922 L602.6621,312.9922 " fill="none" style="stroke:#181818;stroke-width:1;"/><rect fill="#F1F1F1" height="37.6094" rx="12.5" ry="12.5" style="stroke:#181818;stroke-width:1.5;" width="48" x="602.6621" y="351.7969"/><text fill="#000000" font-family="sans-serif" font-size="14" lengthAdjust="spacing" textLength="28" x="612.6621" y="376.3301">&#20013;&#27490;</text><path d="M552.6621,370.6016 L562.6621,370.6016 C577.6621,370.6016 577.6621,370.6016 592.6621,370.6016 L602.6621,370.6016 " fill="none" style="stroke:#181818;stroke-width:1;"/><rect fill="#F1F1F1" height="37.6094" rx="12.5" ry="12.5" style="stroke:#181818;stroke-width:1.5;" width="48" x="602.6621" y="409.4063"/><text fill="#000000" font-family="sans-serif" font-size="14" lengthAdjust="spacing" textLength="28" x="612.6621" y="433.9395">&#26082;&#36930;</text><path d="M552.6621,370.6016 L562.6621,370.6016 C577.6621,370.6016 577.6621,428.2109 592.6621,428.2109 L602.6621,428.2109 " fill="none" style="stroke:#181818;stroke-width:1;"/><path d="M426.6621,370.6016 L436.6621,370.6016 C451.6621,370.6016 451.6621,370.6016 466.6621,370.6016 L476.6621,370.6016 " fill="none" style="stroke:#181818;stroke-width:1;"/><path d="M328.6621,370.6016 L338.6621,370.6016 C353.6621,370.6016 353.6621,370.6016 368.6621,370.6016 L378.6621,370.6016 " fill="none" style="stroke:#181818;stroke-width:1;"/><rect fill="#F1F1F1" height="37.6094" rx="12.5" ry="12.5" style="stroke:#181818;stroke-width:1.5;" width="48" x="378.6621" y="409.4063"/><text fill="#000000" font-family="sans-serif" font-size="14" lengthAdjust="spacing" textLength="28" x="388.6621" y="433.9395">&#36807;&#22833;</text><path d="M328.6621,370.6016 L338.6621,370.6016 C353.6621,370.6016 353.6621,428.2109 368.6621,428.2109 L378.6621,428.2109 " fill="none" style="stroke:#181818;stroke-width:1;"/><path d="M216.6621,252.8125 L226.6621,252.8125 C241.6621,252.8125 241.6621,370.6016 256.6621,370.6016 L266.6621,370.6016 " fill="none" style="stroke:#181818;stroke-width:1;"/><path d="M132.6621,459.5859 L142.6621,459.5859 C157.6621,459.5859 157.6621,252.8125 172.6621,252.8125 L182.6621,252.8125 " fill="none" style="stroke:#181818;stroke-width:1;"/><rect fill="#F1F1F1" height="37.6094" rx="12.5" ry="12.5" style="stroke:#181818;stroke-width:1.5;" width="48" x="182.6621" y="558.5703"/><text fill="#000000" font-family="sans-serif" font-size="14" lengthAdjust="spacing" textLength="28" x="192.6621" y="583.1035">&#25286;&#20998;</text><rect fill="#FFA500" height="37.6094" rx="12.5" ry="12.5" style="stroke:#181818;stroke-width:1.5;" width="62" x="280.6621" y="558.5703"/><text fill="#000000" font-family="sans-serif" font-size="14" lengthAdjust="spacing" textLength="42" x="290.6621" y="583.1035">&#22522;&#26412;&#29359;</text><rect fill="#F1F1F1" height="42.75" rx="12.5" ry="12.5" style="stroke:#181818;stroke-width:1.5;" width="114.8896" x="392.6621" y="495.8203"/><text fill="#000000" font-family="sans-serif" font-size="14" lengthAdjust="spacing" textLength="70" x="402.6621" y="525.4941">&#26410;&#36930;&#25110;&#20013;&#27490;</text><path d="M496.6528,506.6224 C495.8414,506.0962 494.7582,506.3272 494.2326,507.1381 L484.4268,522.2528 L479.6446,517.8311 C478.9347,517.1749 477.8281,517.2181 477.1718,517.928 C476.5156,518.6373 476.5588,519.7451 477.2687,520.4007 L483.5477,526.2061 C483.7279,526.3612 483.7279,526.3612 483.8113,526.4155 C484.1053,526.6068 484.4355,526.6978 484.7622,526.6978 C485.335,526.6978 485.8968,526.4166 486.2322,525.8998 L497.1685,509.0426 C497.6947,508.2318 497.4637,507.148 496.6528,506.6224 " fill="#FE0000" style="stroke:;stroke-width:0;stroke-dasharray:;"/><rect fill="#FF6347" height="37.6094" rx="12.5" ry="12.5" style="stroke:#181818;stroke-width:1.5;" width="62" x="557.5518" y="498.3906"/><text fill="#000000" font-family="sans-serif" font-size="14" lengthAdjust="spacing" textLength="42" x="567.5518" y="522.9238">&#21152;&#37325;&#29359;</text><rect fill="#F1F1F1" height="37.6094" rx="12.5" ry="12.5" style="stroke:#181818;stroke-width:1.5;" width="90" x="669.5518" y="467.0156"/><text fill="#000000" font-family="sans-serif" font-size="14" lengthAdjust="spacing" textLength="70" x="679.5518" y="491.5488">&#26410;&#36930;&#21644;&#20013;&#27490;</text><path d="M619.5518,517.1953 L629.5518,517.1953 C644.5518,517.1953 644.5518,485.8203 659.5518,485.8203 L669.5518,485.8203 " fill="none" style="stroke:#181818;stroke-width:1;"/><rect fill="#F1F1F1" height="42.75" rx="12.5" ry="12.5" style="stroke:#181818;stroke-width:1.5;" width="72.8896" x="669.5518" y="524.625"/><text fill="#000000" font-family="sans-serif" font-size="14" lengthAdjust="spacing" textLength="28" x="679.5518" y="554.2988">&#26082;&#36930;</text><path d="M731.5425,535.4271 C730.7311,534.9009 729.6478,535.1319 729.1222,535.9428 L719.3164,551.0575 L714.5342,546.6358 C713.8243,545.9796 712.7177,546.0228 712.0615,546.7327 C711.4052,547.442 711.4484,548.5498 712.1583,549.2054 L718.4373,555.0108 C718.6176,555.1659 718.6176,555.1659 718.701,555.2202 C718.995,555.4115 719.3252,555.5025 719.6518,555.5025 C720.2247,555.5025 720.7864,555.2213 721.1218,554.7045 L732.0582,537.8473 C732.5843,537.0365 732.3533,535.9527 731.5425,535.4271 " fill="#FE0000" style="stroke:;stroke-width:0;stroke-dasharray:;"/><path d="M619.5518,517.1953 L629.5518,517.1953 C644.5518,517.1953 644.5518,546 659.5518,546 L669.5518,546 " fill="none" style="stroke:#181818;stroke-width:1;"/><path d="M507.5518,517.1953 L517.5518,517.1953 C532.5518,517.1953 532.5518,517.1953 547.5518,517.1953 L557.5518,517.1953 " fill="none" style="stroke:#181818;stroke-width:1;"/><path d="M342.6621,577.375 L352.6621,577.375 C367.6621,577.375 367.6621,517.1953 382.6621,517.1953 L392.6621,517.1953 " fill="none" style="stroke:#181818;stroke-width:1;"/><rect fill="#F1F1F1" height="42.75" rx="12.5" ry="12.5" style="stroke:#181818;stroke-width:1.5;" width="72.8896" x="392.6621" y="616.1797"/><text fill="#000000" font-family="sans-serif" font-size="14" lengthAdjust="spacing" textLength="28" x="402.6621" y="645.8535">&#26082;&#36930;</text><path d="M454.6528,626.9818 C453.8414,626.4556 452.7582,626.6866 452.2326,627.4974 L442.4268,642.6122 L437.6446,638.1905 C436.9347,637.5343 435.8281,637.5774 435.1718,638.2874 C434.5156,638.9967 434.5588,640.1044 435.2687,640.7601 L441.5477,646.5654 C441.7279,646.7206 441.7279,646.7206 441.8113,646.7749 C442.1053,646.9662 442.4355,647.0572 442.7622,647.0572 C443.335,647.0572 443.8968,646.776 444.2322,646.2592 L455.1685,629.402 C455.6947,628.5912 455.4637,627.5074 454.6528,626.9818 " fill="#FE0000" style="stroke:;stroke-width:0;stroke-dasharray:;"/><rect fill="#FF6347" height="37.6094" rx="12.5" ry="12.5" style="stroke:#181818;stroke-width:1.5;" width="62" x="515.5518" y="618.75"/><text fill="#000000" font-family="sans-serif" font-size="14" lengthAdjust="spacing" textLength="42" x="525.5518" y="643.2832">&#21152;&#37325;&#29359;</text><rect fill="#F1F1F1" height="42.75" rx="12.5" ry="12.5" style="stroke:#181818;stroke-width:1.5;" width="114.8896" x="627.5518" y="587.375"/><text fill="#000000" font-family="sans-serif" font-size="14" lengthAdjust="spacing" textLength="70" x="637.5518" y="617.0488">&#26410;&#36930;&#21644;&#20013;&#27490;</text><path d="M731.5425,598.1771 C730.7311,597.6509 729.6478,597.8819 729.1222,598.6928 L719.3164,613.8075 L714.5342,609.3858 C713.8243,608.7296 712.7177,608.7728 712.0615,609.4827 C711.4052,610.192 711.4484,611.2998 712.1583,611.9554 L718.4373,617.7608 C718.6176,617.9159 718.6176,617.9159 718.701,617.9702 C718.995,618.1615 719.3252,618.2525 719.6518,618.2525 C720.2247,618.2525 720.7864,617.9713 721.1218,617.4545 L732.0582,600.5973 C732.5843,599.7865 732.3533,598.7027 731.5425,598.1771 " fill="#FE0000" style="stroke:;stroke-width:0;stroke-dasharray:;"/><path d="M577.5518,637.5547 L587.5518,637.5547 C602.5518,637.5547 602.5518,608.75 617.5518,608.75 L627.5518,608.75 " fill="none" style="stroke:#181818;stroke-width:1;"/><rect fill="#F1F1F1" height="37.6094" rx="12.5" ry="12.5" style="stroke:#181818;stroke-width:1.5;" width="48" x="627.5518" y="650.125"/><text fill="#000000" font-family="sans-serif" font-size="14" lengthAdjust="spacing" textLength="28" x="637.5518" y="674.6582">&#26082;&#36930;</text><path d="M577.5518,637.5547 L587.5518,637.5547 C602.5518,637.5547 602.5518,668.9297 617.5518,668.9297 L627.5518,668.9297 " fill="none" style="stroke:#181818;stroke-width:1;"/><path d="M465.5518,637.5547 L475.5518,637.5547 C490.5518,637.5547 490.5518,637.5547 505.5518,637.5547 L515.5518,637.5547 " fill="none" style="stroke:#181818;stroke-width:1;"/><path d="M342.6621,577.375 L352.6621,577.375 C367.6621,577.375 367.6621,637.5547 382.6621,637.5547 L392.6621,637.5547 " fill="none" style="stroke:#181818;stroke-width:1;"/><path d="M230.6621,577.375 L240.6621,577.375 C255.6621,577.375 255.6621,577.375 270.6621,577.375 L280.6621,577.375 " fill="none" style="stroke:#181818;stroke-width:1;"/><path d="M132.6621,459.5859 L142.6621,459.5859 C157.6621,459.5859 157.6621,577.375 172.6621,577.375 L182.6621,577.375 " fill="none" style="stroke:#181818;stroke-width:1;"/><rect fill="#90EE90" height="37.6094" rx="12.5" ry="12.5" style="stroke:#181818;stroke-width:1.5;" width="51.8896" x="182.6621" y="765.3438"/><text fill="#000000" font-family="sans-serif" font-size="14" lengthAdjust="spacing" textLength="28" x="192.6621" y="789.877">&#32467;&#35770;</text><rect fill="#F1F1F1" height="37.6094" rx="12.5" ry="12.5" style="stroke:#181818;stroke-width:1.5;" width="217.9551" x="284.5518" y="736.5391"/><text fill="#000000" font-family="sans-serif" font-size="14" lengthAdjust="spacing" textLength="197.9551" x="294.5518" y="761.0723">&#22522;&#26412;&#29359;&#26410;&#36930;&#25110;&#20013;&#27490; + &#21152;&#37325;&#29359;&#26082;&#36930;</text><rect fill="#F1F1F1" height="37.6094" rx="12.5" ry="12.5" style="stroke:#181818;stroke-width:1.5;" width="230" x="552.5068" y="707.7344"/><text fill="#000000" font-family="sans-serif" font-size="14" lengthAdjust="spacing" textLength="210" x="562.5068" y="732.2676">&#20808;&#23450;&#21152;&#37325;&#29359;&#26082;&#36930;&#65292;&#36866;&#29992;&#21319;&#26684;&#27861;&#23450;&#21009;</text><path d="M502.5068,755.3438 L512.5068,755.3438 C527.5068,755.3438 527.5068,726.5391 542.5068,726.5391 L552.5068,726.5391 " fill="none" style="stroke:#181818;stroke-width:1;"/><rect fill="#F1F1F1" height="37.6094" rx="12.5" ry="12.5" style="stroke:#181818;stroke-width:1.5;" width="272" x="552.5068" y="765.3438"/><text fill="#000000" font-family="sans-serif" font-size="14" lengthAdjust="spacing" textLength="252" x="562.5068" y="789.877">&#20877;&#36866;&#29992;&#26410;&#36930;&#29359;&#12289;&#20013;&#27490;&#29359;&#30340;&#35268;&#23450;&#65292;&#20174;&#23485;&#22788;&#32602;</text><path d="M502.5068,755.3438 L512.5068,755.3438 C527.5068,755.3438 527.5068,784.1484 542.5068,784.1484 L552.5068,784.1484 " fill="none" style="stroke:#181818;stroke-width:1;"/><path d="M234.5518,784.1484 L244.5518,784.1484 C259.5518,784.1484 259.5518,755.3438 274.5518,755.3438 L284.5518,755.3438 " fill="none" style="stroke:#181818;stroke-width:1;"/><rect fill="#F1F1F1" height="37.6094" rx="12.5" ry="12.5" style="stroke:#181818;stroke-width:1.5;" width="217.9551" x="284.5518" y="822.9531"/><text fill="#000000" font-family="sans-serif" font-size="14" lengthAdjust="spacing" textLength="197.9551" x="294.5518" y="847.4863">&#22522;&#26412;&#29359;&#26082;&#36930; + &#21152;&#37325;&#29359;&#26410;&#36930;&#25110;&#20013;&#27490;</text><rect fill="#F1F1F1" height="37.6094" rx="12.5" ry="12.5" style="stroke:#181818;stroke-width:1.5;" width="174" x="552.5068" y="822.9531"/><text fill="#000000" font-family="sans-serif" font-size="14" lengthAdjust="spacing" textLength="154" x="562.5068" y="847.4863">&#24819;&#35937;&#31454;&#21512;&#65292;&#25321;&#19968;&#37325;&#32618;&#35770;&#22788;</text><path d="M502.5068,841.7578 L512.5068,841.7578 C527.5068,841.7578 527.5068,841.7578 542.5068,841.7578 L552.5068,841.7578 " fill="none" style="stroke:#181818;stroke-width:1;"/><path d="M234.5518,784.1484 L244.5518,784.1484 C259.5518,784.1484 259.5518,841.7578 274.5518,841.7578 L284.5518,841.7578 " fill="none" style="stroke:#181818;stroke-width:1;"/><path d="M132.6621,459.5859 L142.6621,459.5859 C157.6621,459.5859 157.6621,784.1484 172.6621,784.1484 L182.6621,784.1484 " fill="none" style="stroke:#181818;stroke-width:1;"/><!--SRC=[xLXTJzjM6BxthpWJDy2KK524gYX2D2begqXLBRGtLOLExDFa5FkSwFWuNJHLWfP2rfPzTviGsbfKQHjRgRhULBJHViom0rVx2trjnyJvSEngDzC40XIVztcVzxpVc7bJOY4DoZG3rnJb0yfKtT88IgUduDkK3PrCrNJCf6NeAHUM0bpAEqzJE5CKIQLEaFtWoSdMTll1YnJyj5lxTclFMLjNbCae2OAlINHqUEXzyf_idm-TtJy0TdhcdpkFxpiRN_OS-e81na68ixj_idutGdZq-hdpV2zAyuUzVir9TFpNblti9SgD2Q9bgmJN6ok6fKjQqwcA9ULivTFit92RdhfsSg_b_FZ2z-YVju-SFvywkv_xhE58147xhqUYaqVduQRTtEmwS7sC2ymgv4PqJhtRECtlVSiz4LMhH5rTCR1O7HRBwsEI6rZo6n5HwhTXV_CeWNV9Bl1-w7zttUGs1h84zV3cs-E3GvJB4QDMnIOrv-Q6DLf_5ZxiNd9eqktxJVjWfmy3PNooThVztQ_szfRpvAtpwh6BQNxThxkvxSDyew3-zzgwRzUjtfsDurysG17OZjvyOH-qx6SRxTREq5lxEGXVjjUF_fpTUtNyycdxzv_ihvfkpptyxUZrcglOseSWWHr5KUO9ZC1W3CxtJiMSD-_cbCx1HOeh0XleCp2JBkiMyJuXbCVgQaLmYsa5hdE1T5gfIbSEqZikLeFqGKeZu1rf0Au8GjWePWyGGZTYm8q0wxTc1DeN1j2Q9Mfw5DGN1j1enq9E2Mv6iOqjBkRpXKA0R11TvxSZiBxGWohfeCBZOnL6pupsFmpDmv5QXJfAP81M61SaGIuGMgACz9ztAHAQ7KdbaZ76LS9a18t9l40YjCYPz8_AEc3wMA7WEtTZ4iXWqM6z8AWHEDf5-jDkAFQA83Kil3NvFceNobp8k4f8oYKbf5N65Nz2jW8te0DaLBOxcb5qRdOOgK32W3GSp56392vH6Y4rSxNXeUyC65Y0mLRMgLcDda8X_LvhjwjKziScminbBkCjULwf3SmIUALYZSXJOrXLgHPTqZtJCOxv9dIQ6MfVU5P94TyYLamJSnsk8BWMgi2O5WeqF3irRb99w-I26cg7WGcBTPBKaQuBa0iSIsrGM6hkE4vIKvtDv9ARLlaMKLtwgEZWEgnI8XBorYc73lAeUHop6_V4uUuEyjx67TshFRKSko8K-9MRwlnrSFOcTFOcTFOcTFOczBzw4xhY_k_dQd49rOamtMqodPuvDvD9dnylOOakypgQdaNdfhEPJ3OpYmgbPUIA9vJnuiVBoEGMB5EamQeHj6ovGs52kOJh67rYmJGsI1QvJ-FBnGbKMWWEqGAhKy6P0HDOkNIjw8FGHroMQbnwuDbCAaybAX41rqBNYif5SXF3y05LbMkKLRBewl9Ywhoo1ArduGeOWjrOW14kHGDafNS0]--></g></svg>