<svg xmlns="http://www.w3.org/2000/svg" xmlns:xlink="http://www.w3.org/1999/xlink" contentStyleType="text/css" height="691.2px" preserveAspectRatio="none" style="width:259px;height:691px;background:#FFFFFF;" version="1.1" viewBox="0 0 259 691" width="259.2px" zoomAndPan="magnify"><defs/><g><ellipse cx="126" cy="19.2" fill="#222222" rx="12" ry="12" style="stroke:#222222;stroke-width:1.2;"/><g id="&#20808;&#34892;&#20026;"><rect fill="#F1F1F1" height="65.4984" rx="15" ry="15" style="stroke:#181818;stroke-width:0.6;" width="225.6" x="13.2" y="103.2"/><line style="stroke:#181818;stroke-width:0.6;" x1="13.2" x2="238.8" y1="137.5453" y2="137.5453"/><text fill="#000000" font-family="sans-serif" font-size="16.8" lengthAdjust="spacing" textLength="50.4" x="100.8" y="127.3289">&#20808;&#34892;&#20026;</text><text fill="#000000" font-family="sans-serif" font-size="14.4" lengthAdjust="spacing" textLength="201.6" x="19.2" y="159.0844">&#30002;&#26432;&#20057;&#65292;&#33268;&#20057;&#26127;&#36855;&#65292;&#20197;&#20026;&#20057;&#27515;&#20129;</text></g><path d="M23.4,241.2 L228.6,241.2 A15,15 0 0 1 243.6,256.2 L243.6,300.6984 L8.4,300.6984 L8.4,256.2 A15,15 0 0 1 23.4,241.2 " fill="#F1F1F1" style="stroke:#F1F1F1;stroke-width:1.2;"/><rect fill="none" height="211.8984" rx="15" ry="15" style="stroke:#181818;stroke-width:0.6;" width="235.2" x="8.4" y="241.2"/><line style="stroke:#181818;stroke-width:0.6;" x1="8.4" x2="243.6" y1="300.6984" y2="300.6984"/><line style="stroke:#181818;stroke-width:0.6;" x1="8.4" x2="243.6" y1="275.5453" y2="275.5453"/><text fill="#000000" font-family="sans-serif" font-size="16.8" lengthAdjust="spacing" textLength="50.4" x="100.8" y="265.3289">&#21518;&#34892;&#20026;</text><text fill="#000000" font-family="sans-serif" font-size="14.4" lengthAdjust="spacing" textLength="124.7906" x="14.4" y="291.0844">&#25243;&#8220;&#23608;&#8221;&#27700;&#37324;&#65292;&#28153;&#27515;&#20057;</text><ellipse cx="124.8" cy="325.8984" fill="#222222" rx="12" ry="12" style="stroke:#222222;stroke-width:1.2;"/><g id="&#21518;&#34892;&#20026;.&#33258;&#24049;&#23454;&#26045;"><rect fill="#F1F1F1" height="60" rx="15" ry="15" style="stroke:#181818;stroke-width:0.6;" width="91.2" x="22.8" y="381.0984"/><line style="stroke:#181818;stroke-width:0.6;" x1="22.8" x2="114" y1="415.4437" y2="415.4437"/><text fill="#000000" font-family="sans-serif" font-size="16.8" lengthAdjust="spacing" textLength="67.2" x="34.8" y="405.2273">&#33258;&#24049;&#23454;&#26045;</text></g><g id="&#21518;&#34892;&#20026;.&#21035;&#20154;&#23454;&#26045;"><rect fill="#F1F1F1" height="60" rx="15" ry="15" style="stroke:#181818;stroke-width:0.6;" width="91.2" x="135.6" y="381.0984"/><line style="stroke:#181818;stroke-width:0.6;" x1="135.6" x2="226.8" y1="415.4437" y2="415.4437"/><text fill="#000000" font-family="sans-serif" font-size="16.8" lengthAdjust="spacing" textLength="67.2" x="147.6" y="405.2273">&#21035;&#20154;&#23454;&#26045;</text></g><!--link *start*??? to ????--><g id="link_*start*&#21518;&#34892;&#20026;_&#33258;&#24049;&#23454;&#26045;"><path d="M118.548,336.2784 C111.264,346.9704 102.9218,359.2241 92.2778,374.8481 " fill="none" id="*start*&#21518;&#34892;&#20026;-to-&#33258;&#24049;&#23454;&#26045;" style="stroke:#181818;stroke-width:1.2;"/><polygon fill="#181818" points="88.224,380.7984,98.2716,374.5754,91.6021,375.8398,90.3377,369.1704,88.224,380.7984" style="stroke:#181818;stroke-width:1.2;"/></g><!--link *start*??? to ????--><g id="link_*start*&#21518;&#34892;&#20026;_&#21035;&#20154;&#23454;&#26045;"><path d="M131.052,336.2784 C138.336,346.9704 146.6782,359.2241 157.3222,374.8481 " fill="none" id="*start*&#21518;&#34892;&#20026;-to-&#21035;&#20154;&#23454;&#26045;" style="stroke:#181818;stroke-width:1.2;"/><polygon fill="#181818" points="161.376,380.7984,159.2623,369.1704,157.9979,375.8398,151.3284,374.5754,161.376,380.7984" style="stroke:#181818;stroke-width:1.2;"/></g><g id="&#27515;&#20129;"><rect fill="#F1F1F1" height="60" rx="15" ry="15" style="stroke:#181818;stroke-width:0.6;" width="60" x="96" y="525.6"/><line style="stroke:#181818;stroke-width:0.6;" x1="96" x2="156" y1="559.9453" y2="559.9453"/><text fill="#000000" font-family="sans-serif" font-size="16.8" lengthAdjust="spacing" textLength="33.6" x="109.2" y="549.7289">&#27515;&#20129;</text></g><ellipse cx="126" cy="670.8" fill="none" rx="13.2" ry="13.2" style="stroke:#222222;stroke-width:1.2;"/><ellipse cx="126" cy="670.8" fill="#222222" rx="7.2" ry="7.2" style="stroke:#222222;stroke-width:1.2;"/><!--link *start* to ???--><g id="link_*start*_&#20808;&#34892;&#20026;"><path d="M126,31.392 C126,47.748 126,71.952 126,95.916 " fill="none" id="*start*-to-&#20808;&#34892;&#20026;" style="stroke:#181818;stroke-width:1.2;"/><polygon fill="#181818" points="126,103.116,130.8,92.316,126,97.116,121.2,92.316,126,103.116" style="stroke:#181818;stroke-width:1.2;"/></g><!--link ??? to ???--><g id="link_&#20808;&#34892;&#20026;_&#21518;&#34892;&#20026;"><path d="M126,169.572 C126,189.012 126,207.816 126,233.88 " fill="none" id="&#20808;&#34892;&#20026;-to-&#21518;&#34892;&#20026;" style="stroke:#181818;stroke-width:1.2;"/><polygon fill="#181818" points="126,241.08,130.8,230.28,126,235.08,121.2,230.28,126,241.08" style="stroke:#181818;stroke-width:1.2;"/></g><!--link ??? to ??--><g id="link_&#21518;&#34892;&#20026;_&#27515;&#20129;"><path d="M126,453.612 C126,479.964 126,498.948 126,518.016 " fill="none" id="&#21518;&#34892;&#20026;-to-&#27515;&#20129;" style="stroke:#181818;stroke-width:1.2;"/><polygon fill="#181818" points="126,525.216,130.8,514.416,126,519.216,121.2,514.416,126,525.216" style="stroke:#181818;stroke-width:1.2;"/></g><!--link ?? to *end*--><g id="link_&#27515;&#20129;_*end*"><path d="M126,585.852 C126,609.084 126,633.3 126,650.28 " fill="none" id="&#27515;&#20129;-to-*end*" style="stroke:#181818;stroke-width:1.2;"/><polygon fill="#181818" points="126,657.48,130.8,646.68,126,651.48,121.2,646.68,126,657.48" style="stroke:#181818;stroke-width:1.2;"/></g><!--SRC=[YzQALT3LjLDusjhnOc7FansxkBZWJ8Z4X3we15pSIk7vb4tFvZOysJdp_PwU5-rRW8ndC_fVxDyEv3xPlHIe12IoTlUJNGkvk8fB4ajI4SOeL7Cf006SRwNmh6lseuOvJpViUDGmzzc6BI_RUu36FDk-4sJ0pfbWrT5GLxveN_Lq-yQdw-OzcxONHU9fn-edktP19Mg1Ve1R1vA5EOKBmW2B0NLo0G00]--></g></svg>