<svg xmlns="http://www.w3.org/2000/svg" xmlns:xlink="http://www.w3.org/1999/xlink" contentStyleType="text/css" height="1355px" preserveAspectRatio="none" style="width:983px;height:1355px;background:#FFFFFF;" version="1.1" viewBox="0 0 983 1355" width="983px" zoomAndPan="magnify"><defs/><g><rect fill="#F1F1F1" height="38.6211" rx="12.5" ry="12.5" style="stroke:#181818;stroke-width:1.5;" width="76" x="10" y="657.5044"/><text fill="#000000" font-family="sans-serif" font-size="14" lengthAdjust="spacing" textLength="56" x="20" y="682.6118">&#26432;&#20154;&#38382;&#39064;</text><rect fill="#F1F1F1" height="38.6211" rx="12.5" ry="12.5" style="stroke:#181818;stroke-width:1.5;" width="48" x="136" y="107.9316"/><text fill="#000000" font-family="sans-serif" font-size="14" lengthAdjust="spacing" textLength="28" x="146" y="133.0391">&#22330;&#26223;</text><rect fill="#F1F1F1" height="38.6211" rx="12.5" ry="12.5" style="stroke:#181818;stroke-width:1.5;" width="48" x="234" y="49.3105"/><text fill="#000000" font-family="sans-serif" font-size="14" lengthAdjust="spacing" textLength="28" x="244" y="74.418">&#20154;&#25968;</text><rect fill="#F1F1F1" height="38.6211" rx="12.5" ry="12.5" style="stroke:#181818;stroke-width:1.5;" width="48" x="332" y="20"/><text fill="#000000" font-family="sans-serif" font-size="14" lengthAdjust="spacing" textLength="28" x="342" y="45.1074">&#20004;&#20154;</text><path d="M282,68.6211 L292,68.6211 C307,68.6211 307,39.3105 322,39.3105 L332,39.3105 " fill="none" style="stroke:#181818;stroke-width:1.0;"/><rect fill="#F1F1F1" height="38.6211" rx="12.5" ry="12.5" style="stroke:#181818;stroke-width:1.5;" width="48" x="332" y="78.6211"/><text fill="#000000" font-family="sans-serif" font-size="14" lengthAdjust="spacing" textLength="28" x="342" y="103.7285">&#19977;&#20154;</text><path d="M282,68.6211 L292,68.6211 C307,68.6211 307,97.9316 322,97.9316 L332,97.9316 " fill="none" style="stroke:#181818;stroke-width:1.0;"/><path d="M184,127.2422 L194,127.2422 C209,127.2422 209,68.6211 224,68.6211 L234,68.6211 " fill="none" style="stroke:#181818;stroke-width:1.0;"/><rect fill="#F1F1F1" height="38.6211" rx="12.5" ry="12.5" style="stroke:#181818;stroke-width:1.5;" width="76" x="234" y="166.5527"/><text fill="#000000" font-family="sans-serif" font-size="14" lengthAdjust="spacing" textLength="56" x="244" y="191.6602">&#39044;&#26399;&#30446;&#26631;</text><rect fill="#F1F1F1" height="38.6211" rx="12.5" ry="12.5" style="stroke:#181818;stroke-width:1.5;" width="34" x="360" y="137.2422"/><text fill="#000000" font-family="sans-serif" font-size="14" lengthAdjust="spacing" textLength="14" x="370" y="162.3496">&#20154;</text><path d="M310,185.8633 L320,185.8633 C335,185.8633 335,156.5527 350,156.5527 L360,156.5527 " fill="none" style="stroke:#181818;stroke-width:1.0;"/><rect fill="#F1F1F1" height="38.6211" rx="12.5" ry="12.5" style="stroke:#181818;stroke-width:1.5;" width="34" x="360" y="195.8633"/><text fill="#000000" font-family="sans-serif" font-size="14" lengthAdjust="spacing" textLength="14" x="370" y="220.9707">&#29289;</text><path d="M310,185.8633 L320,185.8633 C335,185.8633 335,215.1738 350,215.1738 L360,215.1738 " fill="none" style="stroke:#181818;stroke-width:1.0;"/><path d="M184,127.2422 L194,127.2422 C209,127.2422 209,185.8633 224,185.8633 L234,185.8633 " fill="none" style="stroke:#181818;stroke-width:1.0;"/><path d="M86,676.8149 L96,676.8149 C111,676.8149 111,127.2422 126,127.2422 L136,127.2422 " fill="none" style="stroke:#181818;stroke-width:1.0;"/><rect fill="#F1F1F1" height="38.6211" rx="12.5" ry="12.5" style="stroke:#181818;stroke-width:1.5;" width="62" x="136" y="386.3818"/><text fill="#000000" font-family="sans-serif" font-size="14" lengthAdjust="spacing" textLength="42" x="146" y="411.4893">&#23458;&#35266;&#23618;</text><rect fill="#F1F1F1" height="38.6211" rx="12.5" ry="12.5" style="stroke:#181818;stroke-width:1.5;" width="76" x="248" y="357.0713"/><text fill="#000000" font-family="sans-serif" font-size="14" lengthAdjust="spacing" textLength="56" x="258" y="382.1787">&#23458;&#35266;&#35201;&#20214;</text><rect fill="#F1F1F1" height="38.6211" rx="12.5" ry="12.5" style="stroke:#181818;stroke-width:1.5;" width="48" x="374" y="298.4502"/><text fill="#000000" font-family="sans-serif" font-size="14" lengthAdjust="spacing" textLength="28" x="384" y="323.5576">&#34892;&#20026;</text><rect fill="#F1F1F1" height="38.6211" rx="12.5" ry="12.5" style="stroke:#181818;stroke-width:1.5;" width="76" x="472" y="254.4844"/><text fill="#000000" font-family="sans-serif" font-size="14" lengthAdjust="spacing" textLength="56" x="482" y="279.5918">&#19968;&#20010;&#34892;&#20026;</text><path d="M422,317.7607 L432,317.7607 C447,317.7607 447,273.7949 462,273.7949 L472,273.7949 " fill="none" style="stroke:#181818;stroke-width:1.0;"/><rect fill="#F1F1F1" height="38.6211" rx="12.5" ry="12.5" style="stroke:#181818;stroke-width:1.5;" width="76" x="472" y="313.1055"/><text fill="#000000" font-family="sans-serif" font-size="14" lengthAdjust="spacing" textLength="56" x="482" y="338.2129">&#20004;&#20010;&#34892;&#20026;</text><rect fill="#F1F1F1" height="38.6211" rx="12.5" ry="12.5" style="stroke:#181818;stroke-width:1.5;" width="62" x="598" y="283.7949"/><text fill="#000000" font-family="sans-serif" font-size="14" lengthAdjust="spacing" textLength="42" x="608" y="308.9023">&#20808;&#34892;&#20026;</text><path d="M548,332.416 L558,332.416 C573,332.416 573,303.1055 588,303.1055 L598,303.1055 " fill="none" style="stroke:#181818;stroke-width:1.0;"/><rect fill="#F1F1F1" height="38.6211" rx="12.5" ry="12.5" style="stroke:#181818;stroke-width:1.5;" width="62" x="598" y="342.416"/><text fill="#000000" font-family="sans-serif" font-size="14" lengthAdjust="spacing" textLength="42" x="608" y="367.5234">&#21518;&#34892;&#20026;</text><path d="M548,332.416 L558,332.416 C573,332.416 573,361.7266 588,361.7266 L598,361.7266 " fill="none" style="stroke:#181818;stroke-width:1.0;"/><path d="M422,317.7607 L432,317.7607 C447,317.7607 447,332.416 462,332.416 L472,332.416 " fill="none" style="stroke:#181818;stroke-width:1.0;"/><path d="M324,376.3818 L334,376.3818 C349,376.3818 349,317.7607 364,317.7607 L374,317.7607 " fill="none" style="stroke:#181818;stroke-width:1.0;"/><rect fill="#F1F1F1" height="38.6211" rx="12.5" ry="12.5" style="stroke:#181818;stroke-width:1.5;" width="76" x="374" y="430.3477"/><text fill="#000000" font-family="sans-serif" font-size="14" lengthAdjust="spacing" textLength="56" x="384" y="455.4551">&#21361;&#23475;&#32467;&#26524;</text><rect fill="#F1F1F1" height="38.6211" rx="12.5" ry="12.5" style="stroke:#181818;stroke-width:1.5;" width="76" x="500" y="430.3477"/><text fill="#000000" font-family="sans-serif" font-size="14" lengthAdjust="spacing" textLength="56" x="510" y="455.4551">&#27861;&#30410;&#31867;&#22411;</text><rect fill="#F1F1F1" height="38.6211" rx="12.5" ry="12.5" style="stroke:#181818;stroke-width:1.5;" width="76" x="626" y="401.0371"/><text fill="#000000" font-family="sans-serif" font-size="14" lengthAdjust="spacing" textLength="56" x="636" y="426.1445">&#21516;&#19968;&#29359;&#32618;</text><path d="M576,449.6582 L586,449.6582 C601,449.6582 601,420.3477 616,420.3477 L626,420.3477 " fill="none" style="stroke:#181818;stroke-width:1.0;"/><rect fill="#F1F1F1" height="38.6211" rx="12.5" ry="12.5" style="stroke:#181818;stroke-width:1.5;" width="76" x="626" y="459.6582"/><text fill="#000000" font-family="sans-serif" font-size="14" lengthAdjust="spacing" textLength="56" x="636" y="484.7656">&#19981;&#21516;&#29359;&#32618;</text><path d="M576,449.6582 L586,449.6582 C601,449.6582 601,478.9688 616,478.9688 L626,478.9688 " fill="none" style="stroke:#181818;stroke-width:1.0;"/><path d="M450,449.6582 L460,449.6582 C475,449.6582 475,449.6582 490,449.6582 L500,449.6582 " fill="none" style="stroke:#181818;stroke-width:1.0;"/><path d="M324,376.3818 L334,376.3818 C349,376.3818 349,449.6582 364,449.6582 L374,449.6582 " fill="none" style="stroke:#181818;stroke-width:1.0;"/><path d="M198,405.6924 L208,405.6924 C223,405.6924 223,376.3818 238,376.3818 L248,376.3818 " fill="none" style="stroke:#181818;stroke-width:1.0;"/><rect fill="#F1F1F1" height="38.6211" rx="12.5" ry="12.5" style="stroke:#181818;stroke-width:1.5;" width="132" x="248" y="518.2793"/><text fill="#000000" font-family="sans-serif" font-size="14" lengthAdjust="spacing" textLength="112" x="258" y="543.3867">&#23458;&#35266;&#36829;&#27861;&#38459;&#21364;&#20107;&#30001;</text><rect fill="#F1F1F1" height="38.6211" rx="12.5" ry="12.5" style="stroke:#181818;stroke-width:1.5;" width="76" x="430" y="518.2793"/><text fill="#000000" font-family="sans-serif" font-size="14" lengthAdjust="spacing" textLength="56" x="440" y="543.3867">&#27491;&#24403;&#38450;&#21355;</text><rect fill="#90EE90" height="38.6211" rx="12.5" ry="12.5" style="stroke:#181818;stroke-width:1.5;" width="79.8896" x="556" y="518.2793"/><text fill="#000000" font-family="sans-serif" font-size="14" lengthAdjust="spacing" textLength="56" x="566" y="543.3867">&#20598;&#28982;&#38450;&#21355;</text><path d="M506,537.5898 L516,537.5898 C531,537.5898 531,537.5898 546,537.5898 L556,537.5898 " fill="none" style="stroke:#181818;stroke-width:1.0;"/><path d="M380,537.5898 L390,537.5898 C405,537.5898 405,537.5898 420,537.5898 L430,537.5898 " fill="none" style="stroke:#181818;stroke-width:1.0;"/><path d="M198,405.6924 L208,405.6924 C223,405.6924 223,537.5898 238,537.5898 L248,537.5898 " fill="none" style="stroke:#181818;stroke-width:1.0;"/><path d="M86,676.8149 L96,676.8149 C111,676.8149 111,405.6924 126,405.6924 L136,405.6924 " fill="none" style="stroke:#181818;stroke-width:1.0;"/><rect fill="#F1F1F1" height="38.6211" rx="12.5" ry="12.5" style="stroke:#181818;stroke-width:1.5;" width="62" x="136" y="760.0913"/><text fill="#000000" font-family="sans-serif" font-size="14" lengthAdjust="spacing" textLength="42" x="146" y="785.1987">&#20027;&#35266;&#23618;</text><rect fill="#F1F1F1" height="38.6211" rx="12.5" ry="12.5" style="stroke:#181818;stroke-width:1.5;" width="48" x="248" y="657.5044"/><text fill="#000000" font-family="sans-serif" font-size="14" lengthAdjust="spacing" textLength="28" x="258" y="682.6118">&#35748;&#35782;</text><rect fill="#F1F1F1" height="38.6211" rx="12.5" ry="12.5" style="stroke:#181818;stroke-width:1.5;" width="104" x="346" y="598.8833"/><text fill="#000000" font-family="sans-serif" font-size="14" lengthAdjust="spacing" textLength="84" x="356" y="623.9907">&#20107;&#23454;&#35748;&#35782;&#27491;&#30830;</text><path d="M296,676.8149 L306,676.8149 C321,676.8149 321,618.1938 336,618.1938 L346,618.1938 " fill="none" style="stroke:#181818;stroke-width:1.0;"/><rect fill="#F1F1F1" height="38.6211" rx="12.5" ry="12.5" style="stroke:#181818;stroke-width:1.5;" width="104" x="346" y="657.5044"/><text fill="#000000" font-family="sans-serif" font-size="14" lengthAdjust="spacing" textLength="84" x="356" y="682.6118">&#20107;&#23454;&#35748;&#35782;&#38169;&#35823;</text><rect fill="#F1F1F1" height="38.6211" rx="12.5" ry="12.5" style="stroke:#181818;stroke-width:1.5;" width="76" x="500" y="576.9004"/><text fill="#000000" font-family="sans-serif" font-size="14" lengthAdjust="spacing" textLength="56" x="510" y="602.0078">&#23545;&#35937;&#38169;&#35823;</text><path d="M450,676.8149 L460,676.8149 C475,676.8149 475,596.2109 490,596.2109 L500,596.2109 " fill="none" style="stroke:#181818;stroke-width:1.0;"/><rect fill="#90EE90" height="38.6211" rx="12.5" ry="12.5" style="stroke:#181818;stroke-width:1.5;" width="79.8896" x="500" y="635.5215"/><text fill="#000000" font-family="sans-serif" font-size="14" lengthAdjust="spacing" textLength="56" x="510" y="660.6289">&#25171;&#20987;&#38169;&#35823;</text><path d="M450,676.8149 L460,676.8149 C475,676.8149 475,654.832 490,654.832 L500,654.832 " fill="none" style="stroke:#181818;stroke-width:1.0;"/><rect fill="#F1F1F1" height="38.6211" rx="12.5" ry="12.5" style="stroke:#181818;stroke-width:1.5;" width="104" x="500" y="694.1426"/><text fill="#000000" font-family="sans-serif" font-size="14" lengthAdjust="spacing" textLength="84" x="510" y="719.25">&#22240;&#26524;&#20851;&#31995;&#38169;&#35823;</text><rect fill="#F1F1F1" height="38.6211" rx="12.5" ry="12.5" style="stroke:#181818;stroke-width:1.5;" width="146" x="654" y="650.1768"/><text fill="#000000" font-family="sans-serif" font-size="14" lengthAdjust="spacing" textLength="126" x="664" y="675.2842">&#29421;&#20041;&#30340;&#22240;&#26524;&#20851;&#31995;&#38169;&#35823;</text><path d="M604,713.4531 L614,713.4531 C629,713.4531 629,669.4873 644,669.4873 L654,669.4873 " fill="none" style="stroke:#181818;stroke-width:1.0;"/><rect fill="#F1F1F1" height="38.6211" rx="12.5" ry="12.5" style="stroke:#181818;stroke-width:1.5;" width="146" x="654" y="708.7979"/><text fill="#000000" font-family="sans-serif" font-size="14" lengthAdjust="spacing" textLength="126" x="664" y="733.9053">&#24191;&#20041;&#30340;&#22240;&#26524;&#20851;&#31995;&#38169;&#35823;</text><rect fill="#90EE90" height="38.6211" rx="12.5" ry="12.5" style="stroke:#181818;stroke-width:1.5;" width="121.8896" x="850" y="679.4873"/><text fill="#000000" font-family="sans-serif" font-size="14" lengthAdjust="spacing" textLength="98" x="860" y="704.5947">&#32467;&#26524;&#30340;&#25552;&#21069;&#21457;&#29983;</text><path d="M800,728.1084 L810,728.1084 C825,728.1084 825,698.7979 840,698.7979 L850,698.7979 " fill="none" style="stroke:#181818;stroke-width:1.0;"/><rect fill="#90EE90" height="38.6211" rx="12.5" ry="12.5" style="stroke:#181818;stroke-width:1.5;" width="121.8896" x="850" y="738.1084"/><text fill="#000000" font-family="sans-serif" font-size="14" lengthAdjust="spacing" textLength="98" x="860" y="763.2158">&#32467;&#26524;&#30340;&#25512;&#36831;&#21457;&#29983;</text><path d="M800,728.1084 L810,728.1084 C825,728.1084 825,757.4189 840,757.4189 L850,757.4189 " fill="none" style="stroke:#181818;stroke-width:1.0;"/><path d="M604,713.4531 L614,713.4531 C629,713.4531 629,728.1084 644,728.1084 L654,728.1084 " fill="none" style="stroke:#181818;stroke-width:1.0;"/><path d="M450,676.8149 L460,676.8149 C475,676.8149 475,713.4531 490,713.4531 L500,713.4531 " fill="none" style="stroke:#181818;stroke-width:1.0;"/><path d="M296,676.8149 L306,676.8149 C321,676.8149 321,676.8149 336,676.8149 L346,676.8149 " fill="none" style="stroke:#181818;stroke-width:1.0;"/><path d="M198,779.4019 L208,779.4019 C223,779.4019 223,676.8149 238,676.8149 L248,676.8149 " fill="none" style="stroke:#181818;stroke-width:1.0;"/><rect fill="#F1F1F1" height="38.6211" rx="12.5" ry="12.5" style="stroke:#181818;stroke-width:1.5;" width="48" x="248" y="870.0059"/><text fill="#000000" font-family="sans-serif" font-size="14" lengthAdjust="spacing" textLength="28" x="258" y="895.1133">&#24847;&#24535;</text><rect fill="#F1F1F1" height="38.6211" rx="12.5" ry="12.5" style="stroke:#181818;stroke-width:1.5;" width="48" x="346" y="796.7295"/><text fill="#000000" font-family="sans-serif" font-size="14" lengthAdjust="spacing" textLength="28" x="356" y="821.8369">&#25925;&#24847;</text><path d="M296,889.3164 L306,889.3164 C321,889.3164 321,816.04 336,816.04 L346,816.04 " fill="none" style="stroke:#181818;stroke-width:1.0;"/><rect fill="#F1F1F1" height="38.6211" rx="12.5" ry="12.5" style="stroke:#181818;stroke-width:1.5;" width="48" x="346" y="855.3506"/><text fill="#000000" font-family="sans-serif" font-size="14" lengthAdjust="spacing" textLength="28" x="356" y="880.458">&#36807;&#22833;</text><path d="M296,889.3164 L306,889.3164 C321,889.3164 321,874.6611 336,874.6611 L346,874.6611 " fill="none" style="stroke:#181818;stroke-width:1.0;"/><rect fill="#F1F1F1" height="38.6211" rx="12.5" ry="12.5" style="stroke:#181818;stroke-width:1.5;" width="48" x="346" y="913.9717"/><text fill="#000000" font-family="sans-serif" font-size="14" lengthAdjust="spacing" textLength="28" x="356" y="939.0791">&#26080;&#36807;</text><rect fill="#F1F1F1" height="38.6211" rx="12.5" ry="12.5" style="stroke:#181818;stroke-width:1.5;" width="76" x="444" y="884.6611"/><text fill="#000000" font-family="sans-serif" font-size="14" lengthAdjust="spacing" textLength="56" x="454" y="909.7686">&#24847;&#22806;&#20107;&#20214;</text><path d="M394,933.2822 L404,933.2822 C419,933.2822 419,903.9717 434,903.9717 L444,903.9717 " fill="none" style="stroke:#181818;stroke-width:1.0;"/><rect fill="#F1F1F1" height="38.6211" rx="12.5" ry="12.5" style="stroke:#181818;stroke-width:1.5;" width="76" x="444" y="943.2822"/><text fill="#000000" font-family="sans-serif" font-size="14" lengthAdjust="spacing" textLength="56" x="454" y="968.3896">&#19981;&#21487;&#25239;&#21147;</text><path d="M394,933.2822 L404,933.2822 C419,933.2822 419,962.5928 434,962.5928 L444,962.5928 " fill="none" style="stroke:#181818;stroke-width:1.0;"/><path d="M296,889.3164 L306,889.3164 C321,889.3164 321,933.2822 336,933.2822 L346,933.2822 " fill="none" style="stroke:#181818;stroke-width:1.0;"/><path d="M198,779.4019 L208,779.4019 C223,779.4019 223,889.3164 238,889.3164 L248,889.3164 " fill="none" style="stroke:#181818;stroke-width:1.0;"/><path d="M86,676.8149 L96,676.8149 C111,676.8149 111,779.4019 126,779.4019 L136,779.4019 " fill="none" style="stroke:#181818;stroke-width:1.0;"/><rect fill="#F1F1F1" height="38.6211" rx="12.5" ry="12.5" style="stroke:#181818;stroke-width:1.5;" width="48" x="136" y="1148.4561"/><text fill="#000000" font-family="sans-serif" font-size="14" lengthAdjust="spacing" textLength="28" x="146" y="1173.5635">&#23450;&#32618;</text><rect fill="#F1F1F1" height="38.6211" rx="12.5" ry="12.5" style="stroke:#181818;stroke-width:1.5;" width="48" x="234" y="1089.835"/><text fill="#000000" font-family="sans-serif" font-size="14" lengthAdjust="spacing" textLength="28" x="244" y="1114.9424">&#32618;&#21517;</text><rect fill="#F1F1F1" height="38.6211" rx="12.5" ry="12.5" style="stroke:#181818;stroke-width:1.5;" width="90" x="332" y="1031.2139"/><text fill="#000000" font-family="sans-serif" font-size="14" lengthAdjust="spacing" textLength="70" x="342" y="1056.3213">&#25925;&#24847;&#26432;&#20154;&#32618;</text><rect fill="#F1F1F1" height="38.6211" rx="12.5" ry="12.5" style="stroke:#181818;stroke-width:1.5;" width="76" x="472" y="1001.9033"/><text fill="#000000" font-family="sans-serif" font-size="14" lengthAdjust="spacing" textLength="56" x="482" y="1027.0107">&#26159;&#21542;&#25104;&#31435;</text><path d="M422,1050.5244 L432,1050.5244 C447,1050.5244 447,1021.2139 462,1021.2139 L472,1021.2139 " fill="none" style="stroke:#181818;stroke-width:1.0;"/><rect fill="#F1F1F1" height="38.6211" rx="12.5" ry="12.5" style="stroke:#181818;stroke-width:1.5;" width="76" x="472" y="1060.5244"/><text fill="#000000" font-family="sans-serif" font-size="14" lengthAdjust="spacing" textLength="56" x="482" y="1085.6318">&#26159;&#21542;&#26082;&#36930;</text><path d="M422,1050.5244 L432,1050.5244 C447,1050.5244 447,1079.835 462,1079.835 L472,1079.835 " fill="none" style="stroke:#181818;stroke-width:1.0;"/><path d="M282,1109.1455 L292,1109.1455 C307,1109.1455 307,1050.5244 322,1050.5244 L332,1050.5244 " fill="none" style="stroke:#181818;stroke-width:1.0;"/><rect fill="#F1F1F1" height="38.6211" rx="12.5" ry="12.5" style="stroke:#181818;stroke-width:1.5;" width="90" x="332" y="1119.1455"/><text fill="#000000" font-family="sans-serif" font-size="14" lengthAdjust="spacing" textLength="70" x="342" y="1144.2529">&#36807;&#22833;&#26432;&#20154;&#32618;</text><rect fill="#F1F1F1" height="38.6211" rx="12.5" ry="12.5" style="stroke:#181818;stroke-width:1.5;" width="76" x="472" y="1119.1455"/><text fill="#000000" font-family="sans-serif" font-size="14" lengthAdjust="spacing" textLength="56" x="482" y="1144.2529">&#26159;&#21542;&#25104;&#31435;</text><path d="M422,1138.4561 L432,1138.4561 C447,1138.4561 447,1138.4561 462,1138.4561 L472,1138.4561 " fill="none" style="stroke:#181818;stroke-width:1.0;"/><path d="M282,1109.1455 L292,1109.1455 C307,1109.1455 307,1138.4561 322,1138.4561 L332,1138.4561 " fill="none" style="stroke:#181818;stroke-width:1.0;"/><rect fill="#F1F1F1" height="38.6211" rx="12.5" ry="12.5" style="stroke:#181818;stroke-width:1.5;" width="76" x="332" y="1177.7666"/><text fill="#000000" font-family="sans-serif" font-size="14" lengthAdjust="spacing" textLength="56" x="342" y="1202.874">&#24847;&#22806;&#20107;&#20214;</text><path d="M282,1109.1455 L292,1109.1455 C307,1109.1455 307,1197.0771 322,1197.0771 L332,1197.0771 " fill="none" style="stroke:#181818;stroke-width:1.0;"/><path d="M184,1167.7666 L194,1167.7666 C209,1167.7666 209,1109.1455 224,1109.1455 L234,1109.1455 " fill="none" style="stroke:#181818;stroke-width:1.0;"/><rect fill="#F1F1F1" height="38.6211" rx="12.5" ry="12.5" style="stroke:#181818;stroke-width:1.5;" width="48" x="234" y="1265.6982"/><text fill="#000000" font-family="sans-serif" font-size="14" lengthAdjust="spacing" textLength="28" x="244" y="1290.8057">&#22788;&#32602;</text><rect fill="#F1F1F1" height="38.6211" rx="12.5" ry="12.5" style="stroke:#181818;stroke-width:1.5;" width="76" x="332" y="1236.3877"/><text fill="#000000" font-family="sans-serif" font-size="14" lengthAdjust="spacing" textLength="56" x="342" y="1261.4951">&#24819;&#35937;&#31454;&#21512;</text><path d="M282,1285.0088 L292,1285.0088 C307,1285.0088 307,1255.6982 322,1255.6982 L332,1255.6982 " fill="none" style="stroke:#181818;stroke-width:1.0;"/><rect fill="#F1F1F1" height="38.6211" rx="12.5" ry="12.5" style="stroke:#181818;stroke-width:1.5;" width="76" x="332" y="1295.0088"/><text fill="#000000" font-family="sans-serif" font-size="14" lengthAdjust="spacing" textLength="56" x="342" y="1320.1162">&#25968;&#32618;&#24182;&#32602;</text><path d="M282,1285.0088 L292,1285.0088 C307,1285.0088 307,1314.3193 322,1314.3193 L332,1314.3193 " fill="none" style="stroke:#181818;stroke-width:1.0;"/><path d="M184,1167.7666 L194,1167.7666 C209,1167.7666 209,1285.0088 224,1285.0088 L234,1285.0088 " fill="none" style="stroke:#181818;stroke-width:1.0;"/><path d="M86,676.8149 L96,676.8149 C111,676.8149 111,1167.7666 126,1167.7666 L136,1167.7666 " fill="none" style="stroke:#181818;stroke-width:1.0;"/><!--SRC=[xLXjJzjM5FxkNt6dVLYBH2XLDJg442KKQQnirQ3zVcFV1XVRDxgsKqNJ961Xl2qb4p0eKDuMTLjHap8c14I8FnFRoR_eiHr3NcmdJFkm3o24udEUyvnpxZdtd9W1LSDCaqL5a762upuJ5LxI1O8YaIxuLRMKHBeI4bOqNPOwRLWdu3eTUKG46VS5ntKWy-rKwVoyifwl76nm27uwaB5zRhufE0-k003csiShGLLucWDvat2XLjY1AWTfStlNsigRUtEDs2PhQ-4lBuJyGVcF6UDefeRAbPNVJPUA9ms6vVrVIgVrR5uyKwNJzo7gNB2wwdLsFboVVUsZ1tdcoCWVMyKLSsVRnxDvl6PjBLf7HMDdAP0PQAUinO9ryJu0KZhD0Ae1SdLIbs_1IsMZQ6J-APqlMQj73I6Q7tutBbOg6tyRcKEV48tf4ojzugfHNn-H4nDO5TN-VivpNcogKJcVAnT-RYhqaf7VSLNWqzhFXm0ggs_AXO9VE8Mpyj5-eDfSM37cYgwwETe6ggqzg8enUsmT5mC8gmsvzA5qjc1jfjksCCukRsHHzUEq2LYPorbZ8MCi_sgjxePduMVy-i_ovMwOCHnJUjcuN6ziXBLPa3VUgSiv8zVKCkjx8FSxVk3D_GQ5RBoSruswN30Nrut5hQihlbdVjV1aP3E-eRb3okyU06AZO6JVcVDPwt0fMBr-K9cUyStmNt4790nPvTBMnMOZzgTZQ5thSCV8pZVbzz7E- -p4jk8620npRw0FrC_tFcToztDLmP28umpBw0SWZCGadJYV41h4_6ISKLqHebIY34bYV4ApzQ3zqSOAc4qo8WJ0greF76U4A67C3g06dMe1JdbOoh0I3mhQLNhGXCuIKX3KLNhGuCHgac9K3MBxV7XuS30QzP0f8adqLG3MLJfGBY8g2kM9eWLWLSL18ZHC5SqLnIJ0k63A1C9SATGqnRc46j29LC5Ib8boKC0QbR56csYyClenHQaC9wQHbXrGJ-d6wqVuIDDWrcYjQjawUTjr5Uxh9qQP5jPVF1XB_uMdfumaCCEsf5NnsoWfbTn2A2GEOOAZi8BMtjSsyY0aeKwc77opYySmGMAIg4u4N_SQ-tf_hoP4ZVWqWQ-ZRwdMsfTReXHMsigCnmBHhjnXdXU5uEjLDufQSx-WZAXLlCqEppmPnI-9paBBObUIA8mADwo-O-DuIb1LrCGaUSI7z5O2IwJzPAxJW9hWbkIo27l4de1jtnDlZgXwx2NXRGT1PuIJiBy8QvivAL8OH0uvRSLjd_yDZhtcSdlVWrhtJiCe21-vTRSWVFO1b8C_VLtL5NxxsdNxsdNxsdNxsdNxslK_VErwQl_BxDde4vGaJBNtQ7Va_htx3o8zTyQmXiP80jthGTrVzNO_xEtkGT6nSMIhxt9tHhyUHohLuQi44c39CZ6cstlaBZU2anXzhyDMaKal-Yv1b96XRpm1UgmaHKOL6RO8D_9yz1hmvOFEGT7so20Iz7oK6o8li2vfOC5JGLJYlUZP-73dG-u9B1aTnu4RTbWKje_6Kg0R-mG0]--></g></svg>