<svg xmlns="http://www.w3.org/2000/svg" xmlns:xlink="http://www.w3.org/1999/xlink" contentStyleType="text/css" height="579px" preserveAspectRatio="none" style="width:775px;height:579px;background:#FFFFFF;" version="1.1" viewBox="0 0 775 579" width="775px" zoomAndPan="magnify"><title>&#21009;&#32602;&#35770;-&#21009;&#32602;&#30340;&#25191;&#34892;-&#20943;&#21009;</title><defs/><g><text fill="#000000" font-family="sans-serif" font-size="14" font-weight="bold" lengthAdjust="spacing" textLength="153.6992" x="309.5933" y="34.5332">&#21009;&#32602;&#35770;-&#21009;&#32602;&#30340;&#25191;&#34892;-&#20943;&#21009;</text><rect fill="#F1F1F1" height="37.6094" rx="12.5" ry="12.5" style="stroke:#181818;stroke-width:1.5;" width="122.6621" x="10" y="289.0469"/><text fill="#000000" font-family="sans-serif" font-size="14" lengthAdjust="spacing" textLength="102.6621" x="20" y="313.5801">&#21009;&#32602;&#30340;&#25191;&#34892;-&#20943;&#21009;</text><rect fill="#F1F1F1" height="37.6094" rx="12.5" ry="12.5" style="stroke:#181818;stroke-width:1.5;" width="48" x="182.6621" y="145.0234"/><text fill="#000000" font-family="sans-serif" font-size="14" lengthAdjust="spacing" textLength="28" x="192.6621" y="169.5566">&#23545;&#35937;</text><rect fill="#F1F1F1" height="37.6094" rx="12.5" ry="12.5" style="stroke:#181818;stroke-width:1.5;" width="48" x="280.6621" y="58.6094"/><text fill="#000000" font-family="sans-serif" font-size="14" lengthAdjust="spacing" textLength="28" x="290.6621" y="83.1426">&#31649;&#21046;</text><path d="M230.6621,163.8281 L240.6621,163.8281 C255.6621,163.8281 255.6621,77.4141 270.6621,77.4141 L280.6621,77.4141 " fill="none" style="stroke:#181818;stroke-width:1;"/><rect fill="#F1F1F1" height="37.6094" rx="12.5" ry="12.5" style="stroke:#181818;stroke-width:1.5;" width="48" x="280.6621" y="116.2188"/><text fill="#000000" font-family="sans-serif" font-size="14" lengthAdjust="spacing" textLength="28" x="290.6621" y="140.752">&#25304;&#24441;</text><path d="M230.6621,163.8281 L240.6621,163.8281 C255.6621,163.8281 255.6621,135.0234 270.6621,135.0234 L280.6621,135.0234 " fill="none" style="stroke:#181818;stroke-width:1;"/><rect fill="#F1F1F1" height="37.6094" rx="12.5" ry="12.5" style="stroke:#181818;stroke-width:1.5;" width="76" x="280.6621" y="173.8281"/><text fill="#000000" font-family="sans-serif" font-size="14" lengthAdjust="spacing" textLength="56" x="290.6621" y="198.3613">&#26377;&#26399;&#24466;&#21009;</text><path d="M230.6621,163.8281 L240.6621,163.8281 C255.6621,163.8281 255.6621,192.6328 270.6621,192.6328 L280.6621,192.6328 " fill="none" style="stroke:#181818;stroke-width:1;"/><rect fill="#F1F1F1" height="37.6094" rx="12.5" ry="12.5" style="stroke:#181818;stroke-width:1.5;" width="76" x="280.6621" y="231.4375"/><text fill="#000000" font-family="sans-serif" font-size="14" lengthAdjust="spacing" textLength="56" x="290.6621" y="255.9707">&#26080;&#26399;&#24466;&#21009;</text><path d="M230.6621,163.8281 L240.6621,163.8281 C255.6621,163.8281 255.6621,250.2422 270.6621,250.2422 L280.6621,250.2422 " fill="none" style="stroke:#181818;stroke-width:1;"/><path d="M132.6621,307.8516 L142.6621,307.8516 C157.6621,307.8516 157.6621,163.8281 172.6621,163.8281 L182.6621,163.8281 " fill="none" style="stroke:#181818;stroke-width:1;"/><rect fill="#F1F1F1" height="37.6094" rx="12.5" ry="12.5" style="stroke:#181818;stroke-width:1.5;" width="146" x="182.6621" y="404.2656"/><text fill="#000000" font-family="sans-serif" font-size="14" lengthAdjust="spacing" textLength="126" x="192.6621" y="428.7988">&#23454;&#38469;&#25191;&#34892;&#21009;&#26399;&#30340;&#24213;&#32447;</text><rect fill="#F1F1F1" height="37.6094" rx="12.5" ry="12.5" style="stroke:#181818;stroke-width:1.5;" width="160" x="378.6621" y="289.0469"/><text fill="#000000" font-family="sans-serif" font-size="14" lengthAdjust="spacing" textLength="140" x="388.6621" y="313.5801">&#31649;&#21046;&#12289;&#25304;&#24441;&#12289;&#26377;&#26399;&#24466;&#21009;</text><rect fill="#F1F1F1" height="37.6094" rx="12.5" ry="12.5" style="stroke:#181818;stroke-width:1.5;" width="165.4619" x="588.6621" y="289.0469"/><text fill="#000000" font-family="sans-serif" font-size="14" lengthAdjust="spacing" textLength="145.4619" x="598.6621" y="313.5801">&#19981;&#33021;&#23569;&#20110;&#21407;&#21028;&#21009;&#26399;&#30340;1/2</text><path d="M538.6621,307.8516 L548.6621,307.8516 C563.6621,307.8516 563.6621,307.8516 578.6621,307.8516 L588.6621,307.8516 " fill="none" style="stroke:#181818;stroke-width:1;"/><path d="M328.6621,423.0703 L338.6621,423.0703 C353.6621,423.0703 353.6621,307.8516 368.6621,307.8516 L378.6621,307.8516 " fill="none" style="stroke:#181818;stroke-width:1;"/><rect fill="#F1F1F1" height="37.6094" rx="12.5" ry="12.5" style="stroke:#181818;stroke-width:1.5;" width="76" x="378.6621" y="346.6563"/><text fill="#000000" font-family="sans-serif" font-size="14" lengthAdjust="spacing" textLength="56" x="388.6621" y="371.1895">&#26080;&#26399;&#24466;&#21009;</text><rect fill="#F1F1F1" height="37.6094" rx="12.5" ry="12.5" style="stroke:#181818;stroke-width:1.5;" width="105.5723" x="504.6621" y="346.6563"/><text fill="#000000" font-family="sans-serif" font-size="14" lengthAdjust="spacing" textLength="85.5723" x="514.6621" y="371.1895">&#19981;&#33021;&#23569;&#20110;13&#24180;</text><path d="M454.6621,365.4609 L464.6621,365.4609 C479.6621,365.4609 479.6621,365.4609 494.6621,365.4609 L504.6621,365.4609 " fill="none" style="stroke:#181818;stroke-width:1;"/><path d="M328.6621,423.0703 L338.6621,423.0703 C353.6621,423.0703 353.6621,365.4609 368.6621,365.4609 L378.6621,365.4609 " fill="none" style="stroke:#181818;stroke-width:1;"/><rect fill="#F1F1F1" height="37.6094" rx="12.5" ry="12.5" style="stroke:#181818;stroke-width:1.5;" width="186.0791" x="378.6621" y="404.2656"/><text fill="#000000" font-family="sans-serif" font-size="14" lengthAdjust="spacing" textLength="166.0791" x="388.6621" y="428.7988">&#27515;&#32531;&#8594;&#26377;&#26399;&#24466;&#21009;&#12289;&#26080;&#26399;&#24466;&#21009;</text><rect fill="#F1F1F1" height="37.6094" rx="12.5" ry="12.5" style="stroke:#181818;stroke-width:1.5;" width="105.5723" x="614.7412" y="404.2656"/><text fill="#000000" font-family="sans-serif" font-size="14" lengthAdjust="spacing" textLength="85.5723" x="624.7412" y="428.7988">&#19981;&#33021;&#23569;&#20110;15&#24180;</text><path d="M564.7412,423.0703 L574.7412,423.0703 C589.7412,423.0703 589.7412,423.0703 604.7412,423.0703 L614.7412,423.0703 " fill="none" style="stroke:#181818;stroke-width:1;"/><path d="M328.6621,423.0703 L338.6621,423.0703 C353.6621,423.0703 353.6621,423.0703 368.6621,423.0703 L378.6621,423.0703 " fill="none" style="stroke:#181818;stroke-width:1;"/><rect fill="#F1F1F1" height="37.6094" rx="12.5" ry="12.5" style="stroke:#181818;stroke-width:1.5;" width="229.6514" x="378.6621" y="461.875"/><text fill="#000000" font-family="sans-serif" font-size="14" lengthAdjust="spacing" textLength="209.6514" x="388.6621" y="486.4082">&#27515;&#32531;&#65288;&#38480;&#21046;&#20943;&#21009;&#65289;&#8594;&#26377;&#26399;&#24466;&#21009;25&#24180;</text><rect fill="#F1F1F1" height="37.6094" rx="12.5" ry="12.5" style="stroke:#181818;stroke-width:1.5;" width="105.5723" x="658.3135" y="461.875"/><text fill="#000000" font-family="sans-serif" font-size="14" lengthAdjust="spacing" textLength="85.5723" x="668.3135" y="486.4082">&#19981;&#33021;&#23569;&#20110;20&#24180;</text><path d="M608.3135,480.6797 L618.3135,480.6797 C633.3135,480.6797 633.3135,480.6797 648.3135,480.6797 L658.3135,480.6797 " fill="none" style="stroke:#181818;stroke-width:1;"/><path d="M328.6621,423.0703 L338.6621,423.0703 C353.6621,423.0703 353.6621,480.6797 368.6621,480.6797 L378.6621,480.6797 " fill="none" style="stroke:#181818;stroke-width:1;"/><rect fill="#F1F1F1" height="37.6094" rx="12.5" ry="12.5" style="stroke:#181818;stroke-width:1.5;" width="200.0791" x="378.6621" y="519.4844"/><text fill="#000000" font-family="sans-serif" font-size="14" lengthAdjust="spacing" textLength="180.0791" x="388.6621" y="544.0176">&#27515;&#32531;&#65288;&#38480;&#21046;&#20943;&#21009;&#65289;&#8594;&#26080;&#26399;&#24466;&#21009;</text><rect fill="#F1F1F1" height="37.6094" rx="12.5" ry="12.5" style="stroke:#181818;stroke-width:1.5;" width="105.5723" x="628.7412" y="519.4844"/><text fill="#000000" font-family="sans-serif" font-size="14" lengthAdjust="spacing" textLength="85.5723" x="638.7412" y="544.0176">&#19981;&#33021;&#23569;&#20110;25&#24180;</text><path d="M578.7412,538.2891 L588.7412,538.2891 C603.7412,538.2891 603.7412,538.2891 618.7412,538.2891 L628.7412,538.2891 " fill="none" style="stroke:#181818;stroke-width:1;"/><path d="M328.6621,423.0703 L338.6621,423.0703 C353.6621,423.0703 353.6621,538.2891 368.6621,538.2891 L378.6621,538.2891 " fill="none" style="stroke:#181818;stroke-width:1;"/><path d="M132.6621,307.8516 L142.6621,307.8516 C157.6621,307.8516 157.6621,423.0703 172.6621,423.0703 L182.6621,423.0703 " fill="none" style="stroke:#181818;stroke-width:1;"/><!--SRC=[xLTRQnD157xVNp7YIoiaRM8iKaHgOejA8sBQlazsnytOsPbbTZOIH52yjNXNn0kY5WIVh0eYjhRwNzHjwfD_mJExMRjfkzaLV3I4i7lEDzyvS-PyPpSJdi9IEPHR3dODOm_b9lCjWeh5aUZhgGuZ8ox3NFaEAsXa0Q25q5waO3CCHHKZA5Yurrr_khcyMeYkka-lR2o-tbowMGYktm6JOUn3AHu47t2-NTbylnJUH8RkybAmy35XsBZnE5XVIHgUBMuyUn5ykH-pzCoFNlQRWNpv-SydLwEmO0KtP16iFkokVjqHyVl5Ir4aVR5RX0ZyuzEjpSlhmRjxFrPl1xTV10kl_X2NHig3qjcTexG_MFcGNFRcStVjmRThzvCvw9HoqXtOZUxNsiBF9tTXar7fVwqjRWjGxbksaxOycfysNw9HHFXC46Z3k1Kd-ZlpKDXmXusUuIZ5jiGEEW-ynIRpINY5K1MRyxOKFhTgWWc96BLRIll1Uq5ZBIpd9R5Iu3rl3BOb8NmGSmX8e3iPu4wC5H9pEotfo1b3NL-wB0qQEMDe-iOIcvB2IsFREpLLhTPgCR9361FdKh2HCuGQHUAuBUnHBxjMIVHe2joRxuH7biIM1zSg2Qs2oMn1a-LAXjfSI9BZt12QffnijszHv0mxa4gJSIvCmbLQRNXOT8Ic15UHgSa0iuqLnD7BZIiWeu9ZLfFKYJUwXLJ2mKhiYZqbYOibrfQ_MNQaAQJAwfgyN4h1iQeieUHagma7rABIJhktCerEdmudDXmOa2QBEMZeP1sKHOYRxFV-09Cm19kCUgtqYPLOtn_jN8kgxRL92NDIgEn8uQxC3kOvTcLYYwW_mR1fKYkzfVicQHRp6L2Qbv0lt9kaZiyIFqF4Wa4AKbY93ioGKBmYZECAZohQ9aVCX1nsJ6FCIDwDR6q1pW9dKZiK7e1wTEVfgTvJJ9DxVlCiCJLzMdLm6nwxHERaRLC12WgfHHQphdlkScyDydxX3jPgNozdFY8C-3aqqdkJ-F_Q-l-rzT-_jfxI_vHcwzEeJQIdvLmgbaVBbUB1eGPMwAHeez8O6YsDLohZbJ5KQymWxHusXkh7Pv0dV9Xco0AjIzhqjG26ZHEuZT5f7-JWa76axuPcwiEeCHaRqIHlKocu0n8mJipL8n0w9bJ35Ie4ZrKALQfGWqX82ytLZQFa3FQPWgMci2Ytnz7ip5JXe34DKl6n3O5WEDL0GqfsmDVu3G00]--></g></svg>