<svg xmlns="http://www.w3.org/2000/svg" xmlns:xlink="http://www.w3.org/1999/xlink" contentStyleType="text/css" height="665px" preserveAspectRatio="none" style="width:945px;height:665px;background:#FFFFFF;" version="1.1" viewBox="0 0 945 665" width="945px" zoomAndPan="magnify"><title>&#21009;&#32602;&#35770;-&#21009;&#32602;&#30340;&#25191;&#34892;-&#20551;&#37322;</title><defs/><g><text fill="#000000" font-family="sans-serif" font-size="14" font-weight="bold" lengthAdjust="spacing" textLength="153.6992" x="394.1504" y="34.5332">&#21009;&#32602;&#35770;-&#21009;&#32602;&#30340;&#25191;&#34892;-&#20551;&#37322;</text><rect fill="#F1F1F1" height="37.6094" rx="12.5" ry="12.5" style="stroke:#181818;stroke-width:1.5;" width="122.6621" x="10" y="332.2539"/><text fill="#000000" font-family="sans-serif" font-size="14" lengthAdjust="spacing" textLength="102.6621" x="20" y="356.7871">&#21009;&#32602;&#30340;&#25191;&#34892;-&#20551;&#37322;</text><rect fill="#F1F1F1" height="37.6094" rx="12.5" ry="12.5" style="stroke:#181818;stroke-width:1.5;" width="76" x="182.6621" y="217.0352"/><text fill="#000000" font-family="sans-serif" font-size="14" lengthAdjust="spacing" textLength="56" x="192.6621" y="241.5684">&#25104;&#31435;&#26465;&#20214;</text><rect fill="#F1F1F1" height="37.6094" rx="12.5" ry="12.5" style="stroke:#181818;stroke-width:1.5;" width="80.6621" x="308.6621" y="87.4141"/><text fill="#000000" font-family="sans-serif" font-size="14" lengthAdjust="spacing" textLength="60.6621" x="318.6621" y="111.9473">&#23545;&#35937;-&#20027;&#21009;</text><rect fill="#F1F1F1" height="37.6094" rx="12.5" ry="12.5" style="stroke:#181818;stroke-width:1.5;" width="76" x="439.3242" y="58.6094"/><text fill="#000000" font-family="sans-serif" font-size="14" lengthAdjust="spacing" textLength="56" x="449.3242" y="83.1426">&#26377;&#26399;&#24466;&#21009;</text><path d="M389.3242,106.2188 L399.3242,106.2188 C414.3242,106.2188 414.3242,77.4141 429.3242,77.4141 L439.3242,77.4141 " fill="none" style="stroke:#181818;stroke-width:1;"/><rect fill="#F1F1F1" height="37.6094" rx="12.5" ry="12.5" style="stroke:#181818;stroke-width:1.5;" width="76" x="439.3242" y="116.2188"/><text fill="#000000" font-family="sans-serif" font-size="14" lengthAdjust="spacing" textLength="56" x="449.3242" y="140.752">&#26080;&#26399;&#24466;&#21009;</text><path d="M389.3242,106.2188 L399.3242,106.2188 C414.3242,106.2188 414.3242,135.0234 429.3242,135.0234 L439.3242,135.0234 " fill="none" style="stroke:#181818;stroke-width:1;"/><path d="M258.6621,235.8398 L268.6621,235.8398 C283.6621,235.8398 283.6621,106.2188 298.6621,106.2188 L308.6621,106.2188 " fill="none" style="stroke:#181818;stroke-width:1;"/><rect fill="#F1F1F1" height="37.6094" rx="12.5" ry="12.5" style="stroke:#181818;stroke-width:1.5;" width="80.6621" x="308.6621" y="217.0352"/><text fill="#000000" font-family="sans-serif" font-size="14" lengthAdjust="spacing" textLength="60.6621" x="318.6621" y="241.5684">&#23545;&#35937;-&#25490;&#38500;</text><rect fill="#90EE90" height="37.6094" rx="12.5" ry="12.5" style="stroke:#181818;stroke-width:1.5;" width="65.8896" x="439.3242" y="217.0352"/><text fill="#000000" font-family="sans-serif" font-size="14" lengthAdjust="spacing" textLength="42" x="449.3242" y="241.5684">&#20004;&#31181;&#20154;</text><rect fill="#90EE90" height="37.6094" rx="12.5" ry="12.5" style="stroke:#181818;stroke-width:1.5;" width="48" x="555.2139" y="173.8281"/><text fill="#000000" font-family="sans-serif" font-size="14" lengthAdjust="spacing" textLength="28" x="565.2139" y="198.3613">&#32047;&#29359;</text><path d="M505.2139,235.8398 L515.2139,235.8398 C530.2139,235.8398 530.2139,192.6328 545.2139,192.6328 L555.2139,192.6328 " fill="none" style="stroke:#181818;stroke-width:1;"/><rect fill="#90EE90" height="37.6094" rx="12.5" ry="12.5" style="stroke:#181818;stroke-width:1.5;" width="55.7861" x="555.2139" y="231.4375"/><text fill="#000000" font-family="sans-serif" font-size="14" lengthAdjust="spacing" textLength="35.7861" x="565.2139" y="255.9707">8&#31181;&#32618;</text><rect fill="#90EE90" height="37.6094" rx="12.5" ry="12.5" style="stroke:#181818;stroke-width:1.5;" width="272" x="661" y="202.6328"/><text fill="#000000" font-family="sans-serif" font-size="14" lengthAdjust="spacing" textLength="252" x="671" y="227.166">&#28903;&#26432;&#28139;&#25504;&#65292;&#32465;&#36208;&#26292;&#24466;&#65288;&#32465;&#12289;&#32452;&#12289;&#29190;&#12289;&#25237;&#65289;</text><path d="M611,250.2422 L621,250.2422 C636,250.2422 636,221.4375 651,221.4375 L661,221.4375 " fill="none" style="stroke:#181818;stroke-width:1;"/><rect fill="#90EE90" height="37.6094" rx="12.5" ry="12.5" style="stroke:#181818;stroke-width:1.5;" width="53.4619" x="661" y="260.2422"/><text fill="#000000" font-family="sans-serif" font-size="14" lengthAdjust="spacing" textLength="33.4619" x="671" y="284.7754">10 &#24180;</text><path d="M611,250.2422 L621,250.2422 C636,250.2422 636,279.0469 651,279.0469 L661,279.0469 " fill="none" style="stroke:#181818;stroke-width:1;"/><path d="M505.2139,235.8398 L515.2139,235.8398 C530.2139,235.8398 530.2139,250.2422 545.2139,250.2422 L555.2139,250.2422 " fill="none" style="stroke:#181818;stroke-width:1;"/><path d="M389.3242,235.8398 L399.3242,235.8398 C414.3242,235.8398 414.3242,235.8398 429.3242,235.8398 L439.3242,235.8398 " fill="none" style="stroke:#181818;stroke-width:1;"/><path d="M258.6621,235.8398 L268.6621,235.8398 C283.6621,235.8398 283.6621,235.8398 298.6621,235.8398 L308.6621,235.8398 " fill="none" style="stroke:#181818;stroke-width:1;"/><rect fill="#F1F1F1" height="37.6094" rx="12.5" ry="12.5" style="stroke:#181818;stroke-width:1.5;" width="76" x="308.6621" y="346.6563"/><text fill="#000000" font-family="sans-serif" font-size="14" lengthAdjust="spacing" textLength="56" x="318.6621" y="371.1895">&#26102;&#38388;&#26465;&#20214;</text><rect fill="#F1F1F1" height="37.6094" rx="12.5" ry="12.5" style="stroke:#181818;stroke-width:1.5;" width="90" x="434.6621" y="317.8516"/><text fill="#000000" font-family="sans-serif" font-size="14" lengthAdjust="spacing" textLength="70" x="444.6621" y="342.3848">&#24050;&#25191;&#34892;&#21009;&#26399;</text><path d="M384.6621,365.4609 L394.6621,365.4609 C409.6621,365.4609 409.6621,336.6563 424.6621,336.6563 L434.6621,336.6563 " fill="none" style="stroke:#181818;stroke-width:1;"/><rect fill="#F1F1F1" height="37.6094" rx="12.5" ry="12.5" style="stroke:#181818;stroke-width:1.5;" width="90" x="434.6621" y="375.4609"/><text fill="#000000" font-family="sans-serif" font-size="14" lengthAdjust="spacing" textLength="70" x="444.6621" y="399.9941">&#32771;&#39564;&#26399;&#26399;&#38480;</text><path d="M384.6621,365.4609 L394.6621,365.4609 C409.6621,365.4609 409.6621,394.2656 424.6621,394.2656 L434.6621,394.2656 " fill="none" style="stroke:#181818;stroke-width:1;"/><path d="M258.6621,235.8398 L268.6621,235.8398 C283.6621,235.8398 283.6621,365.4609 298.6621,365.4609 L308.6621,365.4609 " fill="none" style="stroke:#181818;stroke-width:1;"/><path d="M132.6621,351.0586 L142.6621,351.0586 C157.6621,351.0586 157.6621,235.8398 172.6621,235.8398 L182.6621,235.8398 " fill="none" style="stroke:#181818;stroke-width:1;"/><rect fill="#F1F1F1" height="37.6094" rx="12.5" ry="12.5" style="stroke:#181818;stroke-width:1.5;" width="76" x="182.6621" y="519.4844"/><text fill="#000000" font-family="sans-serif" font-size="14" lengthAdjust="spacing" textLength="56" x="192.6621" y="544.0176">&#27861;&#24459;&#21518;&#26524;</text><rect fill="#F1F1F1" height="37.6094" rx="12.5" ry="12.5" style="stroke:#181818;stroke-width:1.5;" width="48" x="308.6621" y="433.0703"/><text fill="#000000" font-family="sans-serif" font-size="14" lengthAdjust="spacing" textLength="28" x="318.6621" y="457.6035">&#25104;&#21151;</text><rect fill="#F1F1F1" height="37.6094" rx="12.5" ry="12.5" style="stroke:#181818;stroke-width:1.5;" width="188" x="406.6621" y="433.0703"/><text fill="#000000" font-family="sans-serif" font-size="14" lengthAdjust="spacing" textLength="168" x="416.6621" y="457.6035">&#35748;&#20026;&#21407;&#21028;&#21009;&#32602;&#24050;&#32463;&#25191;&#34892;&#23436;&#27605;</text><path d="M356.6621,451.875 L366.6621,451.875 C381.6621,451.875 381.6621,451.875 396.6621,451.875 L406.6621,451.875 " fill="none" style="stroke:#181818;stroke-width:1;"/><path d="M258.6621,538.2891 L268.6621,538.2891 C283.6621,538.2891 283.6621,451.875 298.6621,451.875 L308.6621,451.875 " fill="none" style="stroke:#181818;stroke-width:1;"/><rect fill="#F1F1F1" height="37.6094" rx="12.5" ry="12.5" style="stroke:#181818;stroke-width:1.5;" width="48" x="308.6621" y="548.2891"/><text fill="#000000" font-family="sans-serif" font-size="14" lengthAdjust="spacing" textLength="28" x="318.6621" y="572.8223">&#22833;&#36133;</text><rect fill="#F1F1F1" height="37.6094" rx="12.5" ry="12.5" style="stroke:#181818;stroke-width:1.5;" width="90" x="406.6621" y="490.6797"/><text fill="#000000" font-family="sans-serif" font-size="14" lengthAdjust="spacing" textLength="70" x="416.6621" y="515.2129">&#20551;&#37322;&#34987;&#25764;&#38144;</text><path d="M356.6621,567.0938 L366.6621,567.0938 C381.6621,567.0938 381.6621,509.4844 396.6621,509.4844 L406.6621,509.4844 " fill="none" style="stroke:#181818;stroke-width:1;"/><rect fill="#F1F1F1" height="37.6094" rx="12.5" ry="12.5" style="stroke:#181818;stroke-width:1.5;" width="146" x="406.6621" y="548.2891"/><text fill="#000000" font-family="sans-serif" font-size="14" lengthAdjust="spacing" textLength="126" x="416.6621" y="572.8223">&#32771;&#39564;&#26399;&#20869;&#65292;&#19977;&#31181;&#24773;&#24418;</text><rect fill="#F1F1F1" height="37.6094" rx="12.5" ry="12.5" style="stroke:#181818;stroke-width:1.5;" width="76" x="602.6621" y="490.6797"/><text fill="#000000" font-family="sans-serif" font-size="14" lengthAdjust="spacing" textLength="56" x="612.6621" y="515.2129">&#21457;&#29616;&#28431;&#32618;</text><path d="M552.6621,567.0938 L562.6621,567.0938 C577.6621,567.0938 577.6621,509.4844 592.6621,509.4844 L602.6621,509.4844 " fill="none" style="stroke:#181818;stroke-width:1;"/><rect fill="#F1F1F1" height="37.6094" rx="12.5" ry="12.5" style="stroke:#181818;stroke-width:1.5;" width="76" x="602.6621" y="548.2891"/><text fill="#000000" font-family="sans-serif" font-size="14" lengthAdjust="spacing" textLength="56" x="612.6621" y="572.8223">&#21448;&#29359;&#26032;&#32618;</text><path d="M552.6621,567.0938 L562.6621,567.0938 C577.6621,567.0938 577.6621,567.0938 592.6621,567.0938 L602.6621,567.0938 " fill="none" style="stroke:#181818;stroke-width:1;"/><rect fill="#F1F1F1" height="37.6094" rx="12.5" ry="12.5" style="stroke:#181818;stroke-width:1.5;" width="188" x="602.6621" y="605.8984"/><text fill="#000000" font-family="sans-serif" font-size="14" lengthAdjust="spacing" textLength="168" x="612.6621" y="630.4316">&#36829;&#21453;&#27861;&#24459;&#12289;&#27861;&#35268;&#25110;&#30417;&#31649;&#35268;&#23450;</text><path d="M552.6621,567.0938 L562.6621,567.0938 C577.6621,567.0938 577.6621,624.7031 592.6621,624.7031 L602.6621,624.7031 " fill="none" style="stroke:#181818;stroke-width:1;"/><path d="M356.6621,567.0938 L366.6621,567.0938 C381.6621,567.0938 381.6621,567.0938 396.6621,567.0938 L406.6621,567.0938 " fill="none" style="stroke:#181818;stroke-width:1;"/><path d="M258.6621,538.2891 L268.6621,538.2891 C283.6621,538.2891 283.6621,567.0938 298.6621,567.0938 L308.6621,567.0938 " fill="none" style="stroke:#181818;stroke-width:1;"/><path d="M132.6621,351.0586 L142.6621,351.0586 C157.6621,351.0586 157.6621,538.2891 172.6621,538.2891 L182.6621,538.2891 " fill="none" style="stroke:#181818;stroke-width:1;"/><!--SRC=[xLTRJzj857xthvZLla2bX8jGXH12b1IqMv6gQcZV9_OqJB4zqNYSAbgjH0Lj0wNSjBGg2zjIPOLK9A1RjgLSkZzcOpjvuY_iiHs34sASVGT5bdtEDz-PSyvynsRO49WBZUgAXlEIz0FLPTLK24eck_oV8OegwSghM1UcfYPSP0AW2S-Uf62J9465If1LMd5ErwkxHmd_pbcVjUUsgriB2UlfYzgBUKcwWI8y2Fvk8BkqxEoyj3UtAiTVF9DljlQ-LJzj9Ig7nx3wt5vViZ5dRxoplg-sSBrvVzbrpcOlhjRUbfkML0xBplQhoj4H6XmaMduI6zGOuLYN9uU66g0-t3dOS-RtMZZwWSKv_NZ9KrysisrlJjjVT-p5zsSd2yxnIlNlVNlz0BPwTbA2nt-ddph7i-wrz1okzlpQsSbS15bFDxA-7KZXjB_KtXmq5R6U-jU__B93HQ0qJTxgz4pjumBOuLTxknpqvFEQzVsbjRne_x4HZb9QjkOlCUoMAuT7rk8xgrJs6mqHdUEbUj3T1NjlBTo9ygVgmP_DU_GEHFN3ZhrQhlqs7RL7w_apA5tbS0ugRSyyiqu_j6Y3jRJYBExR9qkjUk6wIz0- -_L-QtVrdqrhwPMVlzk5pslLxLcxzDhvVSNPtO9xQtTTagHX0j89v3FSgAP1JoH3Kjrmc-8Snnhw1Q8biwf9l3k4Hh0ybUFCr9KKKnb7AirD2jSFtbzTh8Bv52TA1Bpk3S0vJeX-5RC72A6BCU1YW6KWXLpKfdrd0CsRFAz6GNrd08rEB9GKPqOKsuzZOoCZgLI0B19LPKyYiBxJWqh9GE7njGgZkoFWnbJHQraOstjrhS9GVyp0iMjhCpIdCqxQw1j2urGdpVOBYZR3NadbakawauakecgZUqL7Q8pfmZTbLS0qiO8uwdlJ1P1HfcCrnQaM97g154p3WhN4tkCaZpbsBVzdsQqiuoBkrBJB9GIqLSG9fKss5DD0BIAgs_MLKNHkTtIIWuO1QRYOLmsTk4OfXEJ3vxqnm2WCmQnAZSdeYHLQtnZjoIGLpRM927ENYVX8NbPo4UjjP2LZXOZpO5YMgH9zf1icQHpp8r2Q4P8lFCiaZHyJCqR4J8KjSAQ4Jc2CX88LNfmyCwYW1N9B3idXqZJ6AcataOiKe1SubbgZy09qHtSxPwh-5dF93JFxcCWkVLHrS05UkuItoLkW31JaKRCuPhVkRPVxOf0t2lTghJQSvTXNX0INmQxwbyJrf_Rrf_RrfxRxRNtF_O_qGNeS5GWtt17Ka-pjxkrBzdTai41tMG7rt4JTFGDzVGDzDr4gCu5STwVKaVvv0XdCX0cC59XFd6PDLxITqXrSmEY-2HBMo01odpecqfqeCneOqQXUe9pf6iXMklCmxOFGJqnayanuu9jzYH4gK8Pms1Pwc9PkaqVOL0KibPb2zTm0UZ0nbkYNna7U9iv181YeAT2zu4NmPVu3]--></g></svg>