<svg xmlns="http://www.w3.org/2000/svg" xmlns:xlink="http://www.w3.org/1999/xlink" contentStyleType="text/css" height="324px" preserveAspectRatio="none" style="width:752px;height:324px;background:#FFFFFF;" version="1.1" viewBox="0 0 752 324" width="752px" zoomAndPan="magnify"><title>&#21009;&#32602;&#35770;-&#21009;&#32602;&#30340;&#20307;&#31995;-&#38468;&#21152;&#21009;</title><defs/><g><text fill="#000000" font-family="sans-serif" font-size="14" font-weight="bold" lengthAdjust="spacing" textLength="168.1367" x="290.4834" y="34.5332">&#21009;&#32602;&#35770;-&#21009;&#32602;&#30340;&#20307;&#31995;-&#38468;&#21152;&#21009;</text><rect fill="#F1F1F1" height="37.6094" rx="12.5" ry="12.5" style="stroke:#181818;stroke-width:1.5;" width="183.3242" x="10" y="161.9961"/><text fill="#000000" font-family="sans-serif" font-size="14" lengthAdjust="spacing" textLength="163.3242" x="20" y="186.5293">&#21009;&#32602;&#35770;-&#21009;&#32602;&#30340;&#20307;&#31995;-&#38468;&#21152;&#21009;</text><rect fill="#F1F1F1" height="37.6094" rx="12.5" ry="12.5" style="stroke:#181818;stroke-width:1.5;" width="62" x="243.3242" y="104.3867"/><text fill="#000000" font-family="sans-serif" font-size="14" lengthAdjust="spacing" textLength="42" x="253.3242" y="128.9199">&#36130;&#20135;&#21009;</text><rect fill="#90EE90" height="37.6094" rx="12.5" ry="12.5" style="stroke:#181818;stroke-width:1.5;" width="51.8896" x="355.3242" y="58.6094"/><text fill="#000000" font-family="sans-serif" font-size="14" lengthAdjust="spacing" textLength="28" x="365.3242" y="83.1426">&#32602;&#37329;</text><path d="M305.3242,123.1914 L315.3242,123.1914 C330.3242,123.1914 330.3242,77.4141 345.3242,77.4141 L355.3242,77.4141 " fill="none" style="stroke:#181818;stroke-width:1;"/><rect fill="#90EE90" height="37.6094" rx="12.5" ry="12.5" style="stroke:#181818;stroke-width:1.5;" width="79.8896" x="355.3242" y="116.2188"/><text fill="#000000" font-family="sans-serif" font-size="14" lengthAdjust="spacing" textLength="56" x="365.3242" y="140.752">&#27809;&#25910;&#36130;&#20135;</text><rect fill="#F1F1F1" height="37.6094" rx="12.5" ry="12.5" style="stroke:#181818;stroke-width:1.5;" width="76" x="485.2139" y="116.2188"/><text fill="#000000" font-family="sans-serif" font-size="14" lengthAdjust="spacing" textLength="56" x="495.2139" y="140.752">&#21512;&#27861;&#36130;&#20135;</text><rect fill="#F1F1F1" height="42.75" rx="12.5" ry="12.5" style="stroke:#181818;stroke-width:1.5;" width="128.8896" x="611.2139" y="82.2734"/><text fill="#000000" font-family="sans-serif" font-size="14" lengthAdjust="spacing" textLength="84" x="621.2139" y="111.9473">&#20010;&#20154;&#25152;&#26377;&#36130;&#20135;</text><path d="M729.2046,93.0755 C728.3932,92.5494 727.3099,92.7804 726.7843,93.5912 L716.9785,108.7059 L712.1963,104.2843 C711.4864,103.628 710.3798,103.6712 709.7236,104.3811 C709.0673,105.0904 709.1105,106.1982 709.8204,106.8539 L716.0994,112.6592 C716.2797,112.8144 716.2797,112.8144 716.3631,112.8686 C716.6571,113.0599 716.9873,113.1509 717.3139,113.1509 C717.8868,113.1509 718.4485,112.8698 718.7839,112.3529 L729.7203,95.4958 C730.2464,94.6849 730.0154,93.6011 729.2046,93.0755 " fill="#FE0000" style="stroke:;stroke-width:0;stroke-dasharray:;"/><path d="M561.2139,135.0234 L571.2139,135.0234 C586.2139,135.0234 586.2139,103.6484 601.2139,103.6484 L611.2139,103.6484 " fill="none" style="stroke:#181818;stroke-width:1;"/><rect fill="#F1F1F1" height="42.75" rx="12.5" ry="12.5" style="stroke:#181818;stroke-width:1.5;" width="128.8896" x="611.2139" y="145.0234"/><text fill="#000000" font-family="sans-serif" font-size="14" lengthAdjust="spacing" textLength="84" x="621.2139" y="174.6973">&#23478;&#23646;&#25152;&#26377;&#36130;&#20135;</text><path d="M722.0757,165.5258 L727.8408,159.7607 C728.5244,159.0776 728.5244,157.9693 727.8408,157.2856 C727.1571,156.6025 726.0499,156.6025 725.3663,157.2856 L719.6012,163.0507 L713.8361,157.2862 C713.153,156.6025 712.0447,156.6025 711.361,157.2862 C710.6779,157.9693 710.6779,159.0776 711.361,159.7613 L717.1261,165.5258 L711.347,171.3049 C710.6639,171.9879 710.6639,173.0963 711.347,173.7794 C711.6883,174.1212 712.1368,174.2921 712.5843,174.2921 C713.0317,174.2921 713.4803,174.1212 713.8221,173.7794 L719.6006,168.0009 L725.3651,173.7654 C725.7069,174.1072 726.1549,174.2781 726.6023,174.2781 C727.0498,174.2781 727.4978,174.1072 727.8396,173.7654 C728.5233,173.0823 728.5233,171.9739 727.8396,171.2909 L722.0757,165.5258 " fill="#FE0000" style="stroke:;stroke-width:0;stroke-dasharray:;"/><path d="M561.2139,135.0234 L571.2139,135.0234 C586.2139,135.0234 586.2139,166.3984 601.2139,166.3984 L611.2139,166.3984 " fill="none" style="stroke:#181818;stroke-width:1;"/><path d="M435.2139,135.0234 L445.2139,135.0234 C460.2139,135.0234 460.2139,135.0234 475.2139,135.0234 L485.2139,135.0234 " fill="none" style="stroke:#181818;stroke-width:1;"/><path d="M305.3242,123.1914 L315.3242,123.1914 C330.3242,123.1914 330.3242,135.0234 345.3242,135.0234 L355.3242,135.0234 " fill="none" style="stroke:#181818;stroke-width:1;"/><path d="M193.3242,180.8008 L203.3242,180.8008 C218.3242,180.8008 218.3242,123.1914 233.3242,123.1914 L243.3242,123.1914 " fill="none" style="stroke:#181818;stroke-width:1;"/><rect fill="#F1F1F1" height="37.6094" rx="12.5" ry="12.5" style="stroke:#181818;stroke-width:1.5;" width="62" x="243.3242" y="207.7734"/><text fill="#000000" font-family="sans-serif" font-size="14" lengthAdjust="spacing" textLength="42" x="253.3242" y="232.3066">&#25919;&#27835;&#21009;</text><rect fill="#90EE90" height="37.6094" rx="12.5" ry="12.5" style="stroke:#181818;stroke-width:1.5;" width="107.8896" x="355.3242" y="207.7734"/><text fill="#000000" font-family="sans-serif" font-size="14" lengthAdjust="spacing" textLength="84" x="365.3242" y="232.3066">&#21093;&#22842;&#25919;&#27835;&#26435;&#21033;</text><path d="M305.3242,226.5781 L315.3242,226.5781 C330.3242,226.5781 330.3242,226.5781 345.3242,226.5781 L355.3242,226.5781 " fill="none" style="stroke:#181818;stroke-width:1;"/><path d="M193.3242,180.8008 L203.3242,180.8008 C218.3242,180.8008 218.3242,226.5781 233.3242,226.5781 L243.3242,226.5781 " fill="none" style="stroke:#181818;stroke-width:1;"/><rect fill="#F1F1F1" height="37.6094" rx="12.5" ry="12.5" style="stroke:#181818;stroke-width:1.5;" width="62" x="243.3242" y="265.3828"/><text fill="#000000" font-family="sans-serif" font-size="14" lengthAdjust="spacing" textLength="42" x="253.3242" y="289.916">&#22320;&#22495;&#21009;</text><rect fill="#90EE90" height="37.6094" rx="12.5" ry="12.5" style="stroke:#181818;stroke-width:1.5;" width="79.8896" x="355.3242" y="265.3828"/><text fill="#000000" font-family="sans-serif" font-size="14" lengthAdjust="spacing" textLength="56" x="365.3242" y="289.916">&#39537;&#36880;&#20986;&#22659;</text><path d="M305.3242,284.1875 L315.3242,284.1875 C330.3242,284.1875 330.3242,284.1875 345.3242,284.1875 L355.3242,284.1875 " fill="none" style="stroke:#181818;stroke-width:1;"/><path d="M193.3242,180.8008 L203.3242,180.8008 C218.3242,180.8008 218.3242,284.1875 233.3242,284.1875 L243.3242,284.1875 " fill="none" style="stroke:#181818;stroke-width:1;"/><!--SRC=[xLPVQzDG57_FfxYobqrezuSof8onjMweh3BitEkuJUxIwsxk3JStrIA2iC4sdnJrmJ6T3aNcmr0d8fNXbrcwxLjuaZGksPOcFWgMKffpVkTtxlbxC-KeB9L5kM5XMzEkKAupro2eM1mEluvgCp9iCyoLQx62Zom0j138YnHacgQeOWHv6y-E3xTEzZk5yD_nrjhHuVFZWv-5qrThtfEt8DMqgxbW23vNqScttQFEn-Wvb871wVepD351BBk97UfCJiQqtQ_lkY- -XtQNOqASztIZU_0on2LKeVhenwUZJgUx-RYxlHcH3KXYb9i4jzfBUfFeAqiMbYlboKkilVtltfStgTQMonIr6TMnee8lFUXnmE5V_Ef-_PaCrzlyuBtlX9hkwrLlO-zYM83Q_kpjx2GjJ_U-d3v-wgrtlDtLf8scJH4eTrJogMG7J0I5dTHwWkiKcn9Rw25G5nlC9S4_X2fONp6bSBbH5Kn8nAZPLBuUj8zyh07fWQ1Ju3rj13Ob8RmVSm28eTiPu7Q45H9pC-tGeJA2sgwqMHeqL4RGzC1YGKdXfB4DpCvMAjLgX6mJniJz56oe3A1QCIfZTgxYwB7-ySUX5H3fJUYVN0weoOKaEMg1q1pbvBpyZ2AdsxvKFXddGYTSfT0uF4WaGhE2gr3KO80vnmeDtpiRLq06KufPLL8h2lGCgOI5bRWKEo-9ZMKmutzZDjqGKcLrGbukfQ2iAglvSx9LXGKJeDAgtRDCe_Ehmua91GFIU3BxBPAiGXc4sCvAEq0_kk1W1XPRWr6dcRw5OlP9R_URL9tFJOgRsq9bUmgYqjkOvuXAnmPHVvnXNQT6UaidjcCMyp9CcXCRNtZMIGtV8sx640i6Hv32Y7LWnWX55e4VMpXKqHQPrcFZS673OaRo1d8M0jG2Pr9R52urVntdwQdUpUIJEsxZ7j5z-hJiu1PSfKJcv6rH0HCKK8iiPZ_lkTDzjiYJWzj_LXEzd7b5QF0pCTnxE_Z_olSll_BD-s_pTsjpg4Mauu_DQ75iPAnKl3POnmhT5YqqEev6HikbKhaqZghr1UIhXxJ1siq5v0WNjWOoOAOaRRX-H4FQBTp2w8uBRMUHClAV1XTgGwW-4mdH36zHARW5hQRTMgo587H3gBejL00UBnKgLA4waN0ij5ZJhfDb39a3KrqOb9jbT7TXjd1DcuEMTB49Zc09LA5NbMo3hluR]--></g></svg>