<svg xmlns="http://www.w3.org/2000/svg" xmlns:xlink="http://www.w3.org/1999/xlink" contentStyleType="text/css" height="1070px" preserveAspectRatio="none" style="width:1139px;height:1070px;background:#FFFFFF;" version="1.1" viewBox="0 0 1139 1070" width="1139px" zoomAndPan="magnify"><title>&#21009;&#32602;&#30340;&#20307;&#31995;</title><defs/><g><text fill="#000000" font-family="sans-serif" font-size="14" font-weight="bold" lengthAdjust="spacing" textLength="72.1875" x="532.127" y="34.5332">&#21009;&#32602;&#30340;&#20307;&#31995;</text><rect fill="#F1F1F1" height="37.6094" rx="12.5" ry="12.5" style="stroke:#181818;stroke-width:1.5;" width="136.6621" x="10" y="534.9063"/><text fill="#000000" font-family="sans-serif" font-size="14" lengthAdjust="spacing" textLength="116.6621" x="20" y="559.4395">&#21009;&#32602;&#35770;-&#21009;&#32602;&#30340;&#20307;&#31995;</text><rect fill="#F1F1F1" height="37.6094" rx="12.5" ry="12.5" style="stroke:#181818;stroke-width:1.5;" width="76" x="196.6621" y="289.0469"/><text fill="#000000" font-family="sans-serif" font-size="14" lengthAdjust="spacing" textLength="56" x="206.6621" y="313.5801">&#21009;&#32602;&#25514;&#26045;</text><rect fill="#F1F1F1" height="37.6094" rx="12.5" ry="12.5" style="stroke:#181818;stroke-width:1.5;" width="48" x="322.6621" y="173.8281"/><text fill="#000000" font-family="sans-serif" font-size="14" lengthAdjust="spacing" textLength="28" x="332.6621" y="198.3613">&#20027;&#21009;</text><rect fill="#F1F1F1" height="37.6094" rx="12.5" ry="12.5" style="stroke:#181818;stroke-width:1.5;" width="62" x="420.6621" y="145.0234"/><text fill="#000000" font-family="sans-serif" font-size="14" lengthAdjust="spacing" textLength="42" x="430.6621" y="169.5566">&#33258;&#30001;&#21009;</text><rect fill="#F1F1F1" height="37.6094" rx="12.5" ry="12.5" style="stroke:#181818;stroke-width:1.5;" width="76" x="532.6621" y="58.6094"/><text fill="#000000" font-family="sans-serif" font-size="14" lengthAdjust="spacing" textLength="56" x="542.6621" y="83.1426">&#38480;&#21046;&#33258;&#30001;</text><rect fill="#90EE90" height="37.6094" rx="12.5" ry="12.5" style="stroke:#181818;stroke-width:1.5;" width="51.8896" x="658.6621" y="58.6094"/><text fill="#000000" font-family="sans-serif" font-size="14" lengthAdjust="spacing" textLength="28" x="668.6621" y="83.1426">&#31649;&#21046;</text><path d="M608.6621,77.4141 L618.6621,77.4141 C633.6621,77.4141 633.6621,77.4141 648.6621,77.4141 L658.6621,77.4141 " fill="none" style="stroke:#181818;stroke-width:1;"/><path d="M482.6621,163.8281 L492.6621,163.8281 C507.6621,163.8281 507.6621,77.4141 522.6621,77.4141 L532.6621,77.4141 " fill="none" style="stroke:#181818;stroke-width:1;"/><rect fill="#F1F1F1" height="37.6094" rx="12.5" ry="12.5" style="stroke:#181818;stroke-width:1.5;" width="76" x="532.6621" y="173.8281"/><text fill="#000000" font-family="sans-serif" font-size="14" lengthAdjust="spacing" textLength="56" x="542.6621" y="198.3613">&#21093;&#22842;&#33258;&#30001;</text><rect fill="#F1F1F1" height="37.6094" rx="12.5" ry="12.5" style="stroke:#181818;stroke-width:1.5;" width="90" x="658.6621" y="116.2188"/><text fill="#000000" font-family="sans-serif" font-size="14" lengthAdjust="spacing" textLength="70" x="668.6621" y="140.752">&#30701;&#26399;&#33258;&#30001;&#21009;</text><rect fill="#90EE90" height="37.6094" rx="12.5" ry="12.5" style="stroke:#181818;stroke-width:1.5;" width="51.8896" x="798.6621" y="116.2188"/><text fill="#000000" font-family="sans-serif" font-size="14" lengthAdjust="spacing" textLength="28" x="808.6621" y="140.752">&#25304;&#24441;</text><path d="M748.6621,135.0234 L758.6621,135.0234 C773.6621,135.0234 773.6621,135.0234 788.6621,135.0234 L798.6621,135.0234 " fill="none" style="stroke:#181818;stroke-width:1;"/><path d="M608.6621,192.6328 L618.6621,192.6328 C633.6621,192.6328 633.6621,135.0234 648.6621,135.0234 L658.6621,135.0234 " fill="none" style="stroke:#181818;stroke-width:1;"/><rect fill="#F1F1F1" height="37.6094" rx="12.5" ry="12.5" style="stroke:#181818;stroke-width:1.5;" width="90" x="658.6621" y="202.6328"/><text fill="#000000" font-family="sans-serif" font-size="14" lengthAdjust="spacing" textLength="70" x="668.6621" y="227.166">&#38271;&#26399;&#33258;&#30001;&#21009;</text><rect fill="#90EE90" height="37.6094" rx="12.5" ry="12.5" style="stroke:#181818;stroke-width:1.5;" width="79.8896" x="798.6621" y="173.8281"/><text fill="#000000" font-family="sans-serif" font-size="14" lengthAdjust="spacing" textLength="56" x="808.6621" y="198.3613">&#26377;&#26399;&#24466;&#21009;</text><path d="M748.6621,221.4375 L758.6621,221.4375 C773.6621,221.4375 773.6621,192.6328 788.6621,192.6328 L798.6621,192.6328 " fill="none" style="stroke:#181818;stroke-width:1;"/><rect fill="#90EE90" height="37.6094" rx="12.5" ry="12.5" style="stroke:#181818;stroke-width:1.5;" width="79.8896" x="798.6621" y="231.4375"/><text fill="#000000" font-family="sans-serif" font-size="14" lengthAdjust="spacing" textLength="56" x="808.6621" y="255.9707">&#26080;&#26399;&#24466;&#21009;</text><path d="M748.6621,221.4375 L758.6621,221.4375 C773.6621,221.4375 773.6621,250.2422 788.6621,250.2422 L798.6621,250.2422 " fill="none" style="stroke:#181818;stroke-width:1;"/><path d="M608.6621,192.6328 L618.6621,192.6328 C633.6621,192.6328 633.6621,221.4375 648.6621,221.4375 L658.6621,221.4375 " fill="none" style="stroke:#181818;stroke-width:1;"/><path d="M482.6621,163.8281 L492.6621,163.8281 C507.6621,163.8281 507.6621,192.6328 522.6621,192.6328 L532.6621,192.6328 " fill="none" style="stroke:#181818;stroke-width:1;"/><path d="M370.6621,192.6328 L380.6621,192.6328 C395.6621,192.6328 395.6621,163.8281 410.6621,163.8281 L420.6621,163.8281 " fill="none" style="stroke:#181818;stroke-width:1;"/><rect fill="#F1F1F1" height="37.6094" rx="12.5" ry="12.5" style="stroke:#181818;stroke-width:1.5;" width="62" x="420.6621" y="289.0469"/><text fill="#000000" font-family="sans-serif" font-size="14" lengthAdjust="spacing" textLength="42" x="430.6621" y="313.5801">&#29983;&#21629;&#22411;</text><rect fill="#90EE90" height="37.6094" rx="12.5" ry="12.5" style="stroke:#181818;stroke-width:1.5;" width="51.8896" x="532.6621" y="289.0469"/><text fill="#000000" font-family="sans-serif" font-size="14" lengthAdjust="spacing" textLength="28" x="542.6621" y="313.5801">&#27515;&#21009;</text><path d="M482.6621,307.8516 L492.6621,307.8516 C507.6621,307.8516 507.6621,307.8516 522.6621,307.8516 L532.6621,307.8516 " fill="none" style="stroke:#181818;stroke-width:1;"/><path d="M370.6621,192.6328 L380.6621,192.6328 C395.6621,192.6328 395.6621,307.8516 410.6621,307.8516 L420.6621,307.8516 " fill="none" style="stroke:#181818;stroke-width:1;"/><path d="M272.6621,307.8516 L282.6621,307.8516 C297.6621,307.8516 297.6621,192.6328 312.6621,192.6328 L322.6621,192.6328 " fill="none" style="stroke:#181818;stroke-width:1;"/><rect fill="#F1F1F1" height="37.6094" rx="12.5" ry="12.5" style="stroke:#181818;stroke-width:1.5;" width="62" x="322.6621" y="433.0703"/><text fill="#000000" font-family="sans-serif" font-size="14" lengthAdjust="spacing" textLength="42" x="332.6621" y="457.6035">&#38468;&#21152;&#21009;</text><rect fill="#F1F1F1" height="37.6094" rx="12.5" ry="12.5" style="stroke:#181818;stroke-width:1.5;" width="62" x="434.6621" y="375.4609"/><text fill="#000000" font-family="sans-serif" font-size="14" lengthAdjust="spacing" textLength="42" x="444.6621" y="399.9941">&#36130;&#20135;&#21009;</text><rect fill="#90EE90" height="37.6094" rx="12.5" ry="12.5" style="stroke:#181818;stroke-width:1.5;" width="51.8896" x="546.6621" y="346.6563"/><text fill="#000000" font-family="sans-serif" font-size="14" lengthAdjust="spacing" textLength="28" x="556.6621" y="371.1895">&#32602;&#37329;</text><path d="M496.6621,394.2656 L506.6621,394.2656 C521.6621,394.2656 521.6621,365.4609 536.6621,365.4609 L546.6621,365.4609 " fill="none" style="stroke:#181818;stroke-width:1;"/><rect fill="#90EE90" height="37.6094" rx="12.5" ry="12.5" style="stroke:#181818;stroke-width:1.5;" width="79.8896" x="546.6621" y="404.2656"/><text fill="#000000" font-family="sans-serif" font-size="14" lengthAdjust="spacing" textLength="56" x="556.6621" y="428.7988">&#27809;&#25910;&#36130;&#20135;</text><rect fill="#F1F1F1" height="37.6094" rx="12.5" ry="12.5" style="stroke:#181818;stroke-width:1.5;" width="104" x="676.5518" y="404.2656"/><text fill="#000000" font-family="sans-serif" font-size="14" lengthAdjust="spacing" textLength="84" x="686.5518" y="428.7988">&#20010;&#20154;&#21512;&#27861;&#36130;&#20135;</text><path d="M626.5518,423.0703 L636.5518,423.0703 C651.5518,423.0703 651.5518,423.0703 666.5518,423.0703 L676.5518,423.0703 " fill="none" style="stroke:#181818;stroke-width:1;"/><path d="M496.6621,394.2656 L506.6621,394.2656 C521.6621,394.2656 521.6621,423.0703 536.6621,423.0703 L546.6621,423.0703 " fill="none" style="stroke:#181818;stroke-width:1;"/><path d="M384.6621,451.875 L394.6621,451.875 C409.6621,451.875 409.6621,394.2656 424.6621,394.2656 L434.6621,394.2656 " fill="none" style="stroke:#181818;stroke-width:1;"/><rect fill="#F1F1F1" height="37.6094" rx="12.5" ry="12.5" style="stroke:#181818;stroke-width:1.5;" width="62" x="434.6621" y="461.875"/><text fill="#000000" font-family="sans-serif" font-size="14" lengthAdjust="spacing" textLength="42" x="444.6621" y="486.4082">&#25919;&#27835;&#21009;</text><rect fill="#90EE90" height="37.6094" rx="12.5" ry="12.5" style="stroke:#181818;stroke-width:1.5;" width="107.8896" x="546.6621" y="461.875"/><text fill="#000000" font-family="sans-serif" font-size="14" lengthAdjust="spacing" textLength="84" x="556.6621" y="486.4082">&#21093;&#22842;&#25919;&#27835;&#26435;&#21033;</text><path d="M496.6621,480.6797 L506.6621,480.6797 C521.6621,480.6797 521.6621,480.6797 536.6621,480.6797 L546.6621,480.6797 " fill="none" style="stroke:#181818;stroke-width:1;"/><path d="M384.6621,451.875 L394.6621,451.875 C409.6621,451.875 409.6621,480.6797 424.6621,480.6797 L434.6621,480.6797 " fill="none" style="stroke:#181818;stroke-width:1;"/><rect fill="#F1F1F1" height="37.6094" rx="12.5" ry="12.5" style="stroke:#181818;stroke-width:1.5;" width="62" x="434.6621" y="519.4844"/><text fill="#000000" font-family="sans-serif" font-size="14" lengthAdjust="spacing" textLength="42" x="444.6621" y="544.0176">&#22320;&#22495;&#21009;</text><rect fill="#90EE90" height="37.6094" rx="12.5" ry="12.5" style="stroke:#181818;stroke-width:1.5;" width="79.8896" x="546.6621" y="519.4844"/><text fill="#000000" font-family="sans-serif" font-size="14" lengthAdjust="spacing" textLength="56" x="556.6621" y="544.0176">&#39537;&#36880;&#20986;&#22659;</text><path d="M496.6621,538.2891 L506.6621,538.2891 C521.6621,538.2891 521.6621,538.2891 536.6621,538.2891 L546.6621,538.2891 " fill="none" style="stroke:#181818;stroke-width:1;"/><path d="M384.6621,451.875 L394.6621,451.875 C409.6621,451.875 409.6621,538.2891 424.6621,538.2891 L434.6621,538.2891 " fill="none" style="stroke:#181818;stroke-width:1;"/><path d="M272.6621,307.8516 L282.6621,307.8516 C297.6621,307.8516 297.6621,451.875 312.6621,451.875 L322.6621,451.875 " fill="none" style="stroke:#181818;stroke-width:1;"/><path d="M146.6621,553.7109 L156.6621,553.7109 C171.6621,553.7109 171.6621,307.8516 186.6621,307.8516 L196.6621,307.8516 " fill="none" style="stroke:#181818;stroke-width:1;"/><rect fill="#F1F1F1" height="37.6094" rx="12.5" ry="12.5" style="stroke:#181818;stroke-width:1.5;" width="90" x="196.6621" y="765.3438"/><text fill="#000000" font-family="sans-serif" font-size="14" lengthAdjust="spacing" textLength="70" x="206.6621" y="789.877">&#38750;&#21009;&#32602;&#25514;&#26045;</text><rect fill="#90EE90" height="37.6094" rx="12.5" ry="12.5" style="stroke:#181818;stroke-width:1.5;" width="79.8896" x="336.6621" y="707.7344"/><text fill="#000000" font-family="sans-serif" font-size="14" lengthAdjust="spacing" textLength="56" x="346.6621" y="732.2676">&#20174;&#19994;&#31105;&#27490;</text><path d="M286.6621,784.1484 L296.6621,784.1484 C311.6621,784.1484 311.6621,726.5391 326.6621,726.5391 L336.6621,726.5391 " fill="none" style="stroke:#181818;stroke-width:1;"/><rect fill="#90EE90" height="37.6094" rx="12.5" ry="12.5" style="stroke:#181818;stroke-width:1.5;" width="79.8896" x="336.6621" y="765.3438"/><text fill="#000000" font-family="sans-serif" font-size="14" lengthAdjust="spacing" textLength="56" x="346.6621" y="789.877">&#27809;&#25910;&#36130;&#29289;</text><rect fill="#F1F1F1" height="37.6094" rx="12.5" ry="12.5" style="stroke:#181818;stroke-width:1.5;" width="146" x="466.5518" y="736.5391"/><text fill="#000000" font-family="sans-serif" font-size="14" lengthAdjust="spacing" textLength="126" x="476.5518" y="761.0723">&#36829;&#27861;&#25152;&#24471;&#30340;&#19968;&#20999;&#36130;&#29289;</text><rect fill="#F1F1F1" height="37.6094" rx="12.5" ry="12.5" style="stroke:#181818;stroke-width:1.5;" width="146" x="662.5518" y="673.7891"/><text fill="#000000" font-family="sans-serif" font-size="14" lengthAdjust="spacing" textLength="126" x="672.5518" y="698.3223">&#36829;&#27861;&#25152;&#24471;&#30340;&#36130;&#29289;&#26412;&#36523;</text><rect fill="#F1F1F1" height="42.75" rx="12.5" ry="12.5" style="stroke:#181818;stroke-width:1.5;" width="114.8896" x="858.5518" y="577.0938"/><text fill="#000000" font-family="sans-serif" font-size="14" lengthAdjust="spacing" textLength="70" x="868.5518" y="606.7676">&#36172;&#21338;&#36194;&#30340;&#38065;</text><path d="M962.5425,587.8958 C961.7311,587.3697 960.6478,587.6007 960.1222,588.4115 L950.3164,603.5263 L945.5342,599.1046 C944.8243,598.4483 943.7177,598.4915 943.0615,599.2014 C942.4052,599.9108 942.4484,601.0185 943.1583,601.6742 L949.4373,607.4795 C949.6176,607.6347 949.6176,607.6347 949.701,607.6889 C949.995,607.8803 950.3252,607.9713 950.6518,607.9713 C951.2247,607.9713 951.7864,607.6901 952.1218,607.1733 L963.0582,590.3161 C963.5843,589.5053 963.3533,588.4214 962.5425,587.8958 " fill="#FE0000" style="stroke:;stroke-width:0;stroke-dasharray:;"/><path d="M808.5518,692.5938 L818.5518,692.5938 C833.5518,692.5938 833.5518,598.4688 848.5518,598.4688 L858.5518,598.4688 " fill="none" style="stroke:#181818;stroke-width:1;"/><rect fill="#F1F1F1" height="42.75" rx="12.5" ry="12.5" style="stroke:#181818;stroke-width:1.5;" width="128.8896" x="858.5518" y="639.8438"/><text fill="#000000" font-family="sans-serif" font-size="14" lengthAdjust="spacing" textLength="84" x="868.5518" y="669.5176">&#36172;&#21338;&#36755;&#25481;&#30340;&#38065;</text><path d="M969.4136,660.3461 L975.1787,654.581 C975.8623,653.8979 975.8623,652.7896 975.1787,652.1059 C974.495,651.4228 973.3878,651.4228 972.7042,652.1059 L966.9391,657.871 L961.174,652.1065 C960.4909,651.4228 959.3826,651.4228 958.6989,652.1065 C958.0158,652.7896 958.0158,653.8979 958.6989,654.5816 L964.464,660.3461 L958.6849,666.1252 C958.0018,666.8083 958.0018,667.9166 958.6849,668.5997 C959.0262,668.9415 959.4747,669.1124 959.9222,669.1124 C960.3696,669.1124 960.8182,668.9415 961.16,668.5997 L966.9385,662.8212 L972.703,668.5857 C973.0448,668.9275 973.4928,669.0984 973.9402,669.0984 C974.3877,669.0984 974.8357,668.9275 975.1775,668.5857 C975.8612,667.9026 975.8612,666.7943 975.1775,666.1112 L969.4136,660.3461 " fill="#FE0000" style="stroke:;stroke-width:0;stroke-dasharray:;"/><path d="M808.5518,692.5938 L818.5518,692.5938 C833.5518,692.5938 833.5518,661.2188 848.5518,661.2188 L858.5518,661.2188 " fill="none" style="stroke:#181818;stroke-width:1;"/><rect fill="#F1F1F1" height="42.75" rx="12.5" ry="12.5" style="stroke:#181818;stroke-width:1.5;" width="114.8896" x="858.5518" y="702.5938"/><text fill="#000000" font-family="sans-serif" font-size="14" lengthAdjust="spacing" textLength="70" x="868.5518" y="732.2676">&#21463;&#36159;&#25910;&#30340;&#38065;</text><path d="M962.5425,713.3958 C961.7311,712.8697 960.6478,713.1007 960.1222,713.9115 L950.3164,729.0263 L945.5342,724.6046 C944.8243,723.9483 943.7177,723.9915 943.0615,724.7014 C942.4052,725.4108 942.4484,726.5185 943.1583,727.1742 L949.4373,732.9795 C949.6176,733.1347 949.6176,733.1347 949.701,733.1889 C949.995,733.3803 950.3252,733.4713 950.6518,733.4713 C951.2247,733.4713 951.7864,733.1901 952.1218,732.6733 L963.0582,715.8161 C963.5843,715.0053 963.3533,713.9214 962.5425,713.3958 " fill="#FE0000" style="stroke:;stroke-width:0;stroke-dasharray:;"/><path d="M808.5518,692.5938 L818.5518,692.5938 C833.5518,692.5938 833.5518,723.9688 848.5518,723.9688 L858.5518,723.9688 " fill="none" style="stroke:#181818;stroke-width:1;"/><rect fill="#F1F1F1" height="42.75" rx="12.5" ry="12.5" style="stroke:#181818;stroke-width:1.5;" width="142.8896" x="858.5518" y="765.3438"/><text fill="#000000" font-family="sans-serif" font-size="14" lengthAdjust="spacing" textLength="98" x="868.5518" y="795.0176">&#21463;&#38599;&#26432;&#20154;&#30340;&#37228;&#37329;</text><path d="M990.5425,776.1458 C989.7311,775.6197 988.6478,775.8507 988.1222,776.6615 L978.3164,791.7763 L973.5342,787.3546 C972.8243,786.6983 971.7177,786.7415 971.0615,787.4514 C970.4052,788.1608 970.4484,789.2685 971.1583,789.9242 L977.4373,795.7295 C977.6176,795.8847 977.6176,795.8847 977.701,795.9389 C977.995,796.1303 978.3252,796.2213 978.6518,796.2213 C979.2247,796.2213 979.7864,795.9401 980.1218,795.4233 L991.0582,778.5661 C991.5843,777.7553 991.3533,776.6714 990.5425,776.1458 " fill="#FE0000" style="stroke:;stroke-width:0;stroke-dasharray:;"/><path d="M808.5518,692.5938 L818.5518,692.5938 C833.5518,692.5938 833.5518,786.7188 848.5518,786.7188 L858.5518,786.7188 " fill="none" style="stroke:#181818;stroke-width:1;"/><path d="M612.5518,755.3438 L622.5518,755.3438 C637.5518,755.3438 637.5518,692.5938 652.5518,692.5938 L662.5518,692.5938 " fill="none" style="stroke:#181818;stroke-width:1;"/><rect fill="#F1F1F1" height="37.6094" rx="12.5" ry="12.5" style="stroke:#181818;stroke-width:1.5;" width="174" x="662.5518" y="862.0391"/><text fill="#000000" font-family="sans-serif" font-size="14" lengthAdjust="spacing" textLength="154" x="672.5518" y="886.5723">&#36829;&#27861;&#25152;&#24471;&#36130;&#29289;&#20135;&#29983;&#30340;&#25910;&#30410;</text><rect fill="#F1F1F1" height="42.75" rx="12.5" ry="12.5" style="stroke:#181818;stroke-width:1.5;" width="212.8896" x="886.5518" y="828.0938"/><text fill="#000000" font-family="sans-serif" font-size="14" lengthAdjust="spacing" textLength="168" x="896.5518" y="857.7676">&#25910;&#21463;&#30340;&#36159;&#36162;&#25918;&#36151;&#20135;&#29983;&#30340;&#21033;&#24687;</text><path d="M1088.5425,838.8958 C1087.7311,838.3697 1086.6478,838.6007 1086.1222,839.4115 L1076.3164,854.5263 L1071.5342,850.1046 C1070.8243,849.4483 1069.7177,849.4915 1069.0615,850.2014 C1068.4052,850.9108 1068.4484,852.0185 1069.1583,852.6742 L1075.4373,858.4795 C1075.6176,858.6347 1075.6176,858.6347 1075.701,858.6889 C1075.995,858.8803 1076.3252,858.9713 1076.6518,858.9713 C1077.2247,858.9713 1077.7864,858.6901 1078.1218,858.1733 L1089.0582,841.3161 C1089.5843,840.5053 1089.3533,839.4214 1088.5425,838.8958 " fill="#FE0000" style="stroke:;stroke-width:0;stroke-dasharray:;"/><path d="M836.5518,880.8438 L846.5518,880.8438 C861.5518,880.8438 861.5518,849.4688 876.5518,849.4688 L886.5518,849.4688 " fill="none" style="stroke:#181818;stroke-width:1;"/><rect fill="#F1F1F1" height="42.75" rx="12.5" ry="12.5" style="stroke:#181818;stroke-width:1.5;" width="240.8896" x="886.5518" y="890.8438"/><text fill="#000000" font-family="sans-serif" font-size="14" lengthAdjust="spacing" textLength="196" x="896.5518" y="920.5176">&#25910;&#21463;&#30340;&#36159;&#36162;&#29992;&#20110;&#28818;&#32929;&#33719;&#24471;&#30340;&#21033;&#28070;</text><path d="M1116.5425,901.6458 C1115.7311,901.1197 1114.6478,901.3507 1114.1222,902.1615 L1104.3164,917.2763 L1099.5342,912.8546 C1098.8243,912.1983 1097.7177,912.2415 1097.0615,912.9514 C1096.4052,913.6608 1096.4484,914.7685 1097.1583,915.4242 L1103.4373,921.2295 C1103.6176,921.3847 1103.6176,921.3847 1103.701,921.4389 C1103.995,921.6303 1104.3252,921.7213 1104.6518,921.7213 C1105.2247,921.7213 1105.7864,921.4401 1106.1218,920.9233 L1117.0582,904.0661 C1117.5843,903.2553 1117.3533,902.1714 1116.5425,901.6458 " fill="#FE0000" style="stroke:;stroke-width:0;stroke-dasharray:;"/><path d="M836.5518,880.8438 L846.5518,880.8438 C861.5518,880.8438 861.5518,912.2188 876.5518,912.2188 L886.5518,912.2188 " fill="none" style="stroke:#181818;stroke-width:1;"/><path d="M612.5518,755.3438 L622.5518,755.3438 C637.5518,755.3438 637.5518,880.8438 652.5518,880.8438 L662.5518,880.8438 " fill="none" style="stroke:#181818;stroke-width:1;"/><path d="M416.5518,784.1484 L426.5518,784.1484 C441.5518,784.1484 441.5518,755.3438 456.5518,755.3438 L466.5518,755.3438 " fill="none" style="stroke:#181818;stroke-width:1;"/><rect fill="#F1F1F1" height="37.6094" rx="12.5" ry="12.5" style="stroke:#181818;stroke-width:1.5;" width="160" x="466.5518" y="953.5938"/><text fill="#000000" font-family="sans-serif" font-size="14" lengthAdjust="spacing" textLength="140" x="476.5518" y="978.127">&#20379;&#29359;&#32618;&#25152;&#29992;&#30340;&#26412;&#20154;&#36130;&#29289;</text><path d="M416.5518,784.1484 L426.5518,784.1484 C441.5518,784.1484 441.5518,972.3984 456.5518,972.3984 L466.5518,972.3984 " fill="none" style="stroke:#181818;stroke-width:1;"/><path d="M286.6621,784.1484 L296.6621,784.1484 C311.6621,784.1484 311.6621,784.1484 326.6621,784.1484 L336.6621,784.1484 " fill="none" style="stroke:#181818;stroke-width:1;"/><path d="M146.6621,553.7109 L156.6621,553.7109 C171.6621,553.7109 171.6621,784.1484 186.6621,784.1484 L196.6621,784.1484 " fill="none" style="stroke:#181818;stroke-width:1;"/><rect fill="#F1F1F1" height="37.6094" rx="12.5" ry="12.5" style="stroke:#181818;stroke-width:1.5;" width="104" x="196.6621" y="1011.2031"/><text fill="#000000" font-family="sans-serif" font-size="14" lengthAdjust="spacing" textLength="84" x="206.6621" y="1035.7363">&#21333;&#32431;&#23459;&#21578;&#26377;&#32618;</text><path d="M146.6621,553.7109 L156.6621,553.7109 C171.6621,553.7109 171.6621,1030.0078 186.6621,1030.0078 L196.6621,1030.0078 " fill="none" style="stroke:#181818;stroke-width:1;"/><!--SRC=[xLXRJnj757xVNp5LNg2IJK08HHP210VKHZYA2iah6gydzeJT7MjtrgaLHI8a5PSq58WfBPSGQ9isb4j9W50Zmv_nxff_qRExDjZ6wztqsGWXEESxtxdE70_z6iSgbwcIa75Q4BwYYYZf2OB2uGxtM-DPYNIa9QnmNPP2DZ84q90Z3rEG2GAdN2B8c5wm2YlMoijYuOtrwLGGlYwBIdlvKBqImLT5RyvjcpyN794hBfwSWkPIu0fBKzjMxg1UxkekVfqtfezTn3Mr2x7sDW62Udk9d4vXZMfzVGs8Z9a_ZD_ppOasTisr3Uzehf3cgr-Cmh_DNPRZNpeFohas0qZZR15W_inbc-Lt0MmWizo6iL0mthvgK1XpzzJJsgx_IsFsNOEU7MuLytysxXaq_c9gmQyXviTDCtViyWIfPF5akvZF6_FJvgSbrwek93DtRduyRHoIstqNOQw_CAO_D2kNiVQFiR7XCP0V3YucvesflB7ruZe7wDVVUit-wLpnPCLw_zpStV8gzsLHh9cc4PRErw4Cvio4SRPi7xsJ2MDwoZLh47CTsiMPQpkb_DyUnIuT_MYyNYaTRG7yOl40zTvGIIAI8ZYJ7HDJH1mVax4w7kbhRdxsnfoRQS0WwnAdQOcAc5EcZ7tloMFyj5mwF8UA_BymmFnYTSfSdu31iHb-s77cCYX9RU7Sgi7OmM42CZkerLaFnw04tqwfpqj7asRkh7Ju-T8Kfizyll-boTHnMhc_YlavQtAnDBbPclliTjPcFduVZ1a6ycpLcjst2jkG8D3PIQtjGAcgvWXg-7h9okyRUxyP2xDmHG5Q48H-0bkbibdwQnTDhxC_-eIou0x5IHNBw2dmXUEIJfpV41h0udXIPRgIY3A9gKYYoHItzQ1zPcCJ43AauG4lQolWf4g8qepP0LIXipxWR0NBLAmalO9sbHLeMbVJaXVKLLQWtebL9QKopOljnj3Gm40qMa5cYIIn9nvOL-b0XN3bHl6lLJMwgtd-rT0148af69n03cXIOIe9q0k4Xgb2wkLN507TDgMooHI5YKJX7ZIQuXGIeI6cS5SKbm1Jnme3NuvDuK06TnoMeYgLAubU8JcJCMSDiVTLaiQgSqD-YTdjE5EvtoG4vU8SsihzXZyWMvJ9S0AuLxVBbbvqTdSKaeI60MbrCPjT97wDIX2IriQp3lhPDGU3SB759Qgbl6-XAljQRqzIbDVNniFDFSRzFJbPYLci1CXAn0d2BvrXKQG9xv6kkHtzc1_1ITEgZY_yBP8OVanqdqFC90X1POcg2VGvGXKBnq-QQPJJ3BajLXs7QpSibaZGHAvIW5vWNsgPmbAph-CWCrNUJ3QvfiSV4z6czweEpi0g9Mf0tWnbS88SQkR7RDSzSBclBlBQWzlyhDRCik-A4E17RqVvqq7hPTbwMRPUbgsNPUjbsNfPUhuixzl_ctmG6qOPechsTkuCTztiwWxVQXl17DrZ6TJPWsvsHhgx8zqzA3eoYcnrkz0M-tOKQKo73oSe0QjRfN7TdeTsuIxEOFIT3jjD9X5a_zKs6cj78uCL8HfKCbHbYWmRJRZxCEQ2q3UCZwGPTy0ztQ41oj48KI4iz30ct26FCCmTc8eiGPLa13qO7GhT4ePXy-au2OxWiqOKLY9Niw0R-Gy0]--></g></svg>