<svg xmlns="http://www.w3.org/2000/svg" xmlns:xlink="http://www.w3.org/1999/xlink" contentStyleType="text/css" height="876px" preserveAspectRatio="none" style="width:1102px;height:876px;background:#FFFFFF;" version="1.1" viewBox="0 0 1102 876" width="1102px" zoomAndPan="magnify"><title>&#21009;&#32602;&#35770;-&#21009;&#32602;&#30340;&#20307;&#31995;-&#38750;&#21009;&#32602;&#22788;&#32602;&#25514;&#26045;</title><defs/><g><text fill="#000000" font-family="sans-serif" font-size="14" font-weight="bold" lengthAdjust="spacing" textLength="225.8867" x="436.6084" y="34.5332">&#21009;&#32602;&#35770;-&#21009;&#32602;&#30340;&#20307;&#31995;-&#38750;&#21009;&#32602;&#22788;&#32602;&#25514;&#26045;</text><rect fill="#F1F1F1" height="37.6094" rx="12.5" ry="12.5" style="stroke:#181818;stroke-width:1.5;" width="239.3242" x="10" y="437.6797"/><text fill="#000000" font-family="sans-serif" font-size="14" lengthAdjust="spacing" textLength="219.3242" x="20" y="462.2129">&#21009;&#32602;&#35770;-&#21009;&#32602;&#30340;&#20307;&#31995;-&#38750;&#21009;&#32602;&#22788;&#32602;&#25514;&#26045;</text><rect fill="#90EE90" height="37.6094" rx="12.5" ry="12.5" style="stroke:#181818;stroke-width:1.5;" width="79.8896" x="299.3242" y="380.0703"/><text fill="#000000" font-family="sans-serif" font-size="14" lengthAdjust="spacing" textLength="56" x="309.3242" y="404.6035">&#20174;&#19994;&#31105;&#27490;</text><path d="M249.3242,456.4844 L259.3242,456.4844 C274.3242,456.4844 274.3242,398.875 289.3242,398.875 L299.3242,398.875 " fill="none" style="stroke:#181818;stroke-width:1;"/><rect fill="#90EE90" height="37.6094" rx="12.5" ry="12.5" style="stroke:#181818;stroke-width:1.5;" width="79.8896" x="299.3242" y="437.6797"/><text fill="#000000" font-family="sans-serif" font-size="14" lengthAdjust="spacing" textLength="56" x="309.3242" y="462.2129">&#27809;&#25910;&#36130;&#29289;</text><rect fill="#F1F1F1" height="37.6094" rx="12.5" ry="12.5" style="stroke:#181818;stroke-width:1.5;" width="146" x="429.2139" y="218.0547"/><text fill="#000000" font-family="sans-serif" font-size="14" lengthAdjust="spacing" textLength="126" x="439.2139" y="242.5879">&#36829;&#27861;&#25152;&#24471;&#30340;&#19968;&#20999;&#36130;&#29289;</text><rect fill="#F1F1F1" height="37.6094" rx="12.5" ry="12.5" style="stroke:#181818;stroke-width:1.5;" width="146" x="625.2139" y="155.3047"/><text fill="#000000" font-family="sans-serif" font-size="14" lengthAdjust="spacing" textLength="126" x="635.2139" y="179.8379">&#36829;&#27861;&#25152;&#24471;&#30340;&#36130;&#29289;&#26412;&#36523;</text><rect fill="#F1F1F1" height="42.75" rx="12.5" ry="12.5" style="stroke:#181818;stroke-width:1.5;" width="114.8896" x="821.2139" y="58.6094"/><text fill="#000000" font-family="sans-serif" font-size="14" lengthAdjust="spacing" textLength="70" x="831.2139" y="88.2832">&#36172;&#21338;&#36194;&#30340;&#38065;</text><path d="M925.2046,69.4115 C924.3932,68.8853 923.3099,69.1163 922.7843,69.9271 L912.9785,85.0419 L908.1963,80.6202 C907.4864,79.964 906.3798,80.0071 905.7236,80.717 C905.0673,81.4264 905.1105,82.5341 905.8204,83.1898 L912.0994,88.9951 C912.2797,89.1503 912.2797,89.1503 912.3631,89.2045 C912.6571,89.3959 912.9873,89.4869 913.3139,89.4869 C913.8868,89.4869 914.4485,89.2057 914.7839,88.6889 L925.7203,71.8317 C926.2464,71.0209 926.0154,69.937 925.2046,69.4115 " fill="#FE0000" style="stroke:;stroke-width:0;stroke-dasharray:;"/><path d="M771.2139,174.1094 L781.2139,174.1094 C796.2139,174.1094 796.2139,79.9844 811.2139,79.9844 L821.2139,79.9844 " fill="none" style="stroke:#181818;stroke-width:1;"/><rect fill="#F1F1F1" height="42.75" rx="12.5" ry="12.5" style="stroke:#181818;stroke-width:1.5;" width="128.8896" x="821.2139" y="121.3594"/><text fill="#000000" font-family="sans-serif" font-size="14" lengthAdjust="spacing" textLength="84" x="831.2139" y="151.0332">&#36172;&#21338;&#36755;&#25481;&#30340;&#38065;</text><path d="M932.0757,141.8617 L937.8408,136.0966 C938.5244,135.4135 938.5244,134.3052 937.8408,133.6215 C937.1571,132.9385 936.0499,132.9385 935.3663,133.6215 L929.6012,139.3866 L923.8361,133.6221 C923.153,132.9385 922.0447,132.9385 921.361,133.6221 C920.6779,134.3052 920.6779,135.4135 921.361,136.0972 L927.1261,141.8617 L921.347,147.6408 C920.6639,148.3239 920.6639,149.4322 921.347,150.1153 C921.6883,150.4571 922.1368,150.628 922.5843,150.628 C923.0317,150.628 923.4803,150.4571 923.8221,150.1153 L929.6006,144.3368 L935.3651,150.1013 C935.7069,150.4431 936.1549,150.614 936.6023,150.614 C937.0498,150.614 937.4978,150.4431 937.8396,150.1013 C938.5233,149.4182 938.5233,148.3099 937.8396,147.6268 L932.0757,141.8617 " fill="#FE0000" style="stroke:;stroke-width:0;stroke-dasharray:;"/><path d="M771.2139,174.1094 L781.2139,174.1094 C796.2139,174.1094 796.2139,142.7344 811.2139,142.7344 L821.2139,142.7344 " fill="none" style="stroke:#181818;stroke-width:1;"/><rect fill="#F1F1F1" height="42.75" rx="12.5" ry="12.5" style="stroke:#181818;stroke-width:1.5;" width="114.8896" x="821.2139" y="184.1094"/><text fill="#000000" font-family="sans-serif" font-size="14" lengthAdjust="spacing" textLength="70" x="831.2139" y="213.7832">&#21463;&#36159;&#25910;&#30340;&#38065;</text><path d="M925.2046,194.9115 C924.3932,194.3853 923.3099,194.6163 922.7843,195.4271 L912.9785,210.5419 L908.1963,206.1202 C907.4864,205.464 906.3798,205.5071 905.7236,206.217 C905.0673,206.9264 905.1105,208.0341 905.8204,208.6898 L912.0994,214.4951 C912.2797,214.6503 912.2797,214.6503 912.3631,214.7045 C912.6571,214.8959 912.9873,214.9869 913.3139,214.9869 C913.8868,214.9869 914.4485,214.7057 914.7839,214.1889 L925.7203,197.3317 C926.2464,196.5209 926.0154,195.437 925.2046,194.9115 " fill="#FE0000" style="stroke:;stroke-width:0;stroke-dasharray:;"/><path d="M771.2139,174.1094 L781.2139,174.1094 C796.2139,174.1094 796.2139,205.4844 811.2139,205.4844 L821.2139,205.4844 " fill="none" style="stroke:#181818;stroke-width:1;"/><rect fill="#F1F1F1" height="42.75" rx="12.5" ry="12.5" style="stroke:#181818;stroke-width:1.5;" width="142.8896" x="821.2139" y="246.8594"/><text fill="#000000" font-family="sans-serif" font-size="14" lengthAdjust="spacing" textLength="98" x="831.2139" y="276.5332">&#21463;&#38599;&#26432;&#20154;&#30340;&#37228;&#37329;</text><path d="M953.2046,257.6615 C952.3932,257.1353 951.3099,257.3663 950.7843,258.1771 L940.9785,273.2919 L936.1963,268.8702 C935.4864,268.214 934.3798,268.2571 933.7236,268.967 C933.0673,269.6764 933.1105,270.7841 933.8204,271.4398 L940.0994,277.2451 C940.2797,277.4003 940.2797,277.4003 940.3631,277.4545 C940.6571,277.6459 940.9873,277.7369 941.3139,277.7369 C941.8868,277.7369 942.4485,277.4557 942.7839,276.9389 L953.7203,260.0817 C954.2464,259.2709 954.0154,258.187 953.2046,257.6615 " fill="#FE0000" style="stroke:;stroke-width:0;stroke-dasharray:;"/><path d="M771.2139,174.1094 L781.2139,174.1094 C796.2139,174.1094 796.2139,268.2344 811.2139,268.2344 L821.2139,268.2344 " fill="none" style="stroke:#181818;stroke-width:1;"/><path d="M575.2139,236.8594 L585.2139,236.8594 C600.2139,236.8594 600.2139,174.1094 615.2139,174.1094 L625.2139,174.1094 " fill="none" style="stroke:#181818;stroke-width:1;"/><rect fill="#F1F1F1" height="37.6094" rx="12.5" ry="12.5" style="stroke:#181818;stroke-width:1.5;" width="174" x="625.2139" y="343.5547"/><text fill="#000000" font-family="sans-serif" font-size="14" lengthAdjust="spacing" textLength="154" x="635.2139" y="368.0879">&#36829;&#27861;&#25152;&#24471;&#36130;&#29289;&#20135;&#29983;&#30340;&#25910;&#30410;</text><rect fill="#F1F1F1" height="42.75" rx="12.5" ry="12.5" style="stroke:#181818;stroke-width:1.5;" width="212.8896" x="849.2139" y="309.6094"/><text fill="#000000" font-family="sans-serif" font-size="14" lengthAdjust="spacing" textLength="168" x="859.2139" y="339.2832">&#25910;&#21463;&#30340;&#36159;&#36162;&#25918;&#36151;&#20135;&#29983;&#30340;&#21033;&#24687;</text><path d="M1051.2046,320.4115 C1050.3932,319.8853 1049.3099,320.1163 1048.7843,320.9271 L1038.9785,336.0419 L1034.1963,331.6202 C1033.4864,330.964 1032.3798,331.0071 1031.7236,331.717 C1031.0673,332.4264 1031.1105,333.5341 1031.8204,334.1898 L1038.0994,339.9951 C1038.2797,340.1503 1038.2797,340.1503 1038.3631,340.2045 C1038.6571,340.3959 1038.9873,340.4869 1039.3139,340.4869 C1039.8868,340.4869 1040.4485,340.2057 1040.7839,339.6889 L1051.7203,322.8317 C1052.2464,322.0209 1052.0154,320.937 1051.2046,320.4115 " fill="#FE0000" style="stroke:;stroke-width:0;stroke-dasharray:;"/><path d="M799.2139,362.3594 L809.2139,362.3594 C824.2139,362.3594 824.2139,330.9844 839.2139,330.9844 L849.2139,330.9844 " fill="none" style="stroke:#181818;stroke-width:1;"/><rect fill="#F1F1F1" height="42.75" rx="12.5" ry="12.5" style="stroke:#181818;stroke-width:1.5;" width="240.8896" x="849.2139" y="372.3594"/><text fill="#000000" font-family="sans-serif" font-size="14" lengthAdjust="spacing" textLength="196" x="859.2139" y="402.0332">&#25910;&#21463;&#30340;&#36159;&#36162;&#29992;&#20110;&#28818;&#32929;&#33719;&#24471;&#30340;&#21033;&#28070;</text><path d="M1079.2046,383.1615 C1078.3932,382.6353 1077.3099,382.8663 1076.7843,383.6771 L1066.9785,398.7919 L1062.1963,394.3702 C1061.4864,393.714 1060.3798,393.7571 1059.7236,394.467 C1059.0673,395.1764 1059.1105,396.2841 1059.8204,396.9398 L1066.0994,402.7451 C1066.2797,402.9003 1066.2797,402.9003 1066.3631,402.9545 C1066.6571,403.1459 1066.9873,403.2369 1067.3139,403.2369 C1067.8868,403.2369 1068.4485,402.9557 1068.7839,402.4389 L1079.7203,385.5817 C1080.2464,384.7709 1080.0154,383.687 1079.2046,383.1615 " fill="#FE0000" style="stroke:;stroke-width:0;stroke-dasharray:;"/><path d="M799.2139,362.3594 L809.2139,362.3594 C824.2139,362.3594 824.2139,393.7344 839.2139,393.7344 L849.2139,393.7344 " fill="none" style="stroke:#181818;stroke-width:1;"/><path d="M575.2139,236.8594 L585.2139,236.8594 C600.2139,236.8594 600.2139,362.3594 615.2139,362.3594 L625.2139,362.3594 " fill="none" style="stroke:#181818;stroke-width:1;"/><path d="M379.2139,456.4844 L389.2139,456.4844 C404.2139,456.4844 404.2139,236.8594 419.2139,236.8594 L429.2139,236.8594 " fill="none" style="stroke:#181818;stroke-width:1;"/><rect fill="#F1F1F1" height="37.6094" rx="12.5" ry="12.5" style="stroke:#181818;stroke-width:1.5;" width="160" x="429.2139" y="625.9297"/><text fill="#000000" font-family="sans-serif" font-size="14" lengthAdjust="spacing" textLength="140" x="439.2139" y="650.4629">&#20379;&#29359;&#32618;&#25152;&#29992;&#30340;&#26412;&#20154;&#36130;&#29289;</text><rect fill="#F1F1F1" height="37.6094" rx="12.5" ry="12.5" style="stroke:#181818;stroke-width:1.5;" width="76" x="639.2139" y="500.4297"/><text fill="#000000" font-family="sans-serif" font-size="14" lengthAdjust="spacing" textLength="56" x="649.2139" y="524.9629">&#29359;&#32618;&#24037;&#20855;</text><rect fill="#F1F1F1" height="42.75" rx="12.5" ry="12.5" style="stroke:#181818;stroke-width:1.5;" width="114.8896" x="765.2139" y="435.1094"/><text fill="#000000" font-family="sans-serif" font-size="14" lengthAdjust="spacing" textLength="70" x="775.2139" y="464.7832">&#26432;&#20154;&#30340;&#20992;&#20855;</text><path d="M869.2046,445.9115 C868.3932,445.3853 867.3099,445.6163 866.7843,446.4271 L856.9785,461.5419 L852.1963,457.1202 C851.4864,456.464 850.3798,456.5071 849.7236,457.217 C849.0673,457.9264 849.1105,459.0341 849.8204,459.6898 L856.0994,465.4951 C856.2797,465.6503 856.2797,465.6503 856.3631,465.7045 C856.6571,465.8959 856.9873,465.9869 857.3139,465.9869 C857.8868,465.9869 858.4485,465.7057 858.7839,465.1889 L869.7203,448.3317 C870.2464,447.5209 870.0154,446.437 869.2046,445.9115 " fill="#FE0000" style="stroke:;stroke-width:0;stroke-dasharray:;"/><path d="M715.2139,519.2344 L725.2139,519.2344 C740.2139,519.2344 740.2139,456.4844 755.2139,456.4844 L765.2139,456.4844 " fill="none" style="stroke:#181818;stroke-width:1;"/><rect fill="#F1F1F1" height="42.75" rx="12.5" ry="12.5" style="stroke:#181818;stroke-width:1.5;" width="114.8896" x="765.2139" y="497.8594"/><text fill="#000000" font-family="sans-serif" font-size="14" lengthAdjust="spacing" textLength="70" x="775.2139" y="527.5332">&#36208;&#31169;&#30340;&#33337;&#21482;</text><path d="M869.2046,508.6615 C868.3932,508.1353 867.3099,508.3663 866.7843,509.1771 L856.9785,524.2919 L852.1963,519.8702 C851.4864,519.214 850.3798,519.2571 849.7236,519.967 C849.0673,520.6764 849.1105,521.7841 849.8204,522.4398 L856.0994,528.2451 C856.2797,528.4003 856.2797,528.4003 856.3631,528.4545 C856.6571,528.6459 856.9873,528.7369 857.3139,528.7369 C857.8868,528.7369 858.4485,528.4557 858.7839,527.9389 L869.7203,511.0817 C870.2464,510.2709 870.0154,509.187 869.2046,508.6615 " fill="#FE0000" style="stroke:;stroke-width:0;stroke-dasharray:;"/><path d="M715.2139,519.2344 L725.2139,519.2344 C740.2139,519.2344 740.2139,519.2344 755.2139,519.2344 L765.2139,519.2344 " fill="none" style="stroke:#181818;stroke-width:1;"/><rect fill="#F1F1F1" height="42.75" rx="12.5" ry="12.5" style="stroke:#181818;stroke-width:1.5;" width="170.8896" x="765.2139" y="560.6094"/><text fill="#000000" font-family="sans-serif" font-size="14" lengthAdjust="spacing" textLength="126" x="775.2139" y="590.2832">&#38750;&#27861;&#34892;&#21307;&#30340;&#21307;&#30103;&#22120;&#20855;</text><path d="M925.2046,571.4115 C924.3932,570.8853 923.3099,571.1163 922.7843,571.9271 L912.9785,587.0419 L908.1963,582.6202 C907.4864,581.964 906.3798,582.0071 905.7236,582.717 C905.0673,583.4264 905.1105,584.5341 905.8204,585.1898 L912.0994,590.9951 C912.2797,591.1503 912.2797,591.1503 912.3631,591.2045 C912.6571,591.3959 912.9873,591.4869 913.3139,591.4869 C913.8868,591.4869 914.4485,591.2057 914.7839,590.6889 L925.7203,573.8317 C926.2464,573.0209 926.0154,571.937 925.2046,571.4115 " fill="#FE0000" style="stroke:;stroke-width:0;stroke-dasharray:;"/><path d="M715.2139,519.2344 L725.2139,519.2344 C740.2139,519.2344 740.2139,581.9844 755.2139,581.9844 L765.2139,581.9844 " fill="none" style="stroke:#181818;stroke-width:1;"/><path d="M589.2139,644.7344 L599.2139,644.7344 C614.2139,644.7344 614.2139,519.2344 629.2139,519.2344 L639.2139,519.2344 " fill="none" style="stroke:#181818;stroke-width:1;"/><rect fill="#F1F1F1" height="37.6094" rx="12.5" ry="12.5" style="stroke:#181818;stroke-width:1.5;" width="132" x="639.2139" y="720.0547"/><text fill="#000000" font-family="sans-serif" font-size="14" lengthAdjust="spacing" textLength="112" x="649.2139" y="744.5879">&#32452;&#25104;&#29359;&#32618;&#34892;&#20026;&#20043;&#29289;</text><rect fill="#F1F1F1" height="42.75" rx="12.5" ry="12.5" style="stroke:#181818;stroke-width:1.5;" width="114.8896" x="821.2139" y="623.3594"/><text fill="#000000" font-family="sans-serif" font-size="14" lengthAdjust="spacing" textLength="70" x="831.2139" y="653.0332">&#36208;&#31169;&#30340;&#36135;&#29289;</text><path d="M925.2046,634.1615 C924.3932,633.6353 923.3099,633.8663 922.7843,634.6771 L912.9785,649.7919 L908.1963,645.3702 C907.4864,644.714 906.3798,644.7571 905.7236,645.467 C905.0673,646.1764 905.1105,647.2841 905.8204,647.9398 L912.0994,653.7451 C912.2797,653.9003 912.2797,653.9003 912.3631,653.9545 C912.6571,654.1459 912.9873,654.2369 913.3139,654.2369 C913.8868,654.2369 914.4485,653.9557 914.7839,653.4389 L925.7203,636.5817 C926.2464,635.7709 926.0154,634.687 925.2046,634.1615 " fill="#FE0000" style="stroke:;stroke-width:0;stroke-dasharray:;"/><path d="M771.2139,738.8594 L781.2139,738.8594 C796.2139,738.8594 796.2139,644.7344 811.2139,644.7344 L821.2139,644.7344 " fill="none" style="stroke:#181818;stroke-width:1;"/><rect fill="#F1F1F1" height="42.75" rx="12.5" ry="12.5" style="stroke:#181818;stroke-width:1.5;" width="114.8896" x="821.2139" y="686.1094"/><text fill="#000000" font-family="sans-serif" font-size="14" lengthAdjust="spacing" textLength="70" x="831.2139" y="715.7832">&#34892;&#36159;&#30340;&#36130;&#29289;</text><path d="M925.2046,696.9115 C924.3932,696.3853 923.3099,696.6163 922.7843,697.4271 L912.9785,712.5419 L908.1963,708.1202 C907.4864,707.464 906.3798,707.5071 905.7236,708.217 C905.0673,708.9264 905.1105,710.0341 905.8204,710.6898 L912.0994,716.4951 C912.2797,716.6503 912.2797,716.6503 912.3631,716.7045 C912.6571,716.8959 912.9873,716.9869 913.3139,716.9869 C913.8868,716.9869 914.4485,716.7057 914.7839,716.1889 L925.7203,699.3317 C926.2464,698.5209 926.0154,697.437 925.2046,696.9115 " fill="#FE0000" style="stroke:;stroke-width:0;stroke-dasharray:;"/><path d="M771.2139,738.8594 L781.2139,738.8594 C796.2139,738.8594 796.2139,707.4844 811.2139,707.4844 L821.2139,707.4844 " fill="none" style="stroke:#181818;stroke-width:1;"/><rect fill="#F1F1F1" height="42.75" rx="12.5" ry="12.5" style="stroke:#181818;stroke-width:1.5;" width="142.8896" x="821.2139" y="748.8594"/><text fill="#000000" font-family="sans-serif" font-size="14" lengthAdjust="spacing" textLength="98" x="831.2139" y="778.5332">&#32858;&#20247;&#36172;&#21338;&#30340;&#36172;&#36164;</text><path d="M953.2046,759.6615 C952.3932,759.1353 951.3099,759.3663 950.7843,760.1771 L940.9785,775.2919 L936.1963,770.8702 C935.4864,770.214 934.3798,770.2571 933.7236,770.967 C933.0673,771.6764 933.1105,772.7841 933.8204,773.4398 L940.0994,779.2451 C940.2797,779.4003 940.2797,779.4003 940.3631,779.4545 C940.6571,779.6459 940.9873,779.7369 941.3139,779.7369 C941.8868,779.7369 942.4485,779.4557 942.7839,778.9389 L953.7203,762.0817 C954.2464,761.2709 954.0154,760.187 953.2046,759.6615 " fill="#FE0000" style="stroke:;stroke-width:0;stroke-dasharray:;"/><path d="M771.2139,738.8594 L781.2139,738.8594 C796.2139,738.8594 796.2139,770.2344 811.2139,770.2344 L821.2139,770.2344 " fill="none" style="stroke:#181818;stroke-width:1;"/><rect fill="#F1F1F1" height="42.75" rx="12.5" ry="12.5" style="stroke:#181818;stroke-width:1.5;" width="128.8896" x="821.2139" y="811.6094"/><text fill="#000000" font-family="sans-serif" font-size="14" lengthAdjust="spacing" textLength="84" x="831.2139" y="841.2832">&#36172;&#21338;&#36755;&#25481;&#30340;&#38065;</text><path d="M932.0757,832.1117 L937.8408,826.3466 C938.5244,825.6635 938.5244,824.5552 937.8408,823.8715 C937.1571,823.1885 936.0499,823.1885 935.3663,823.8715 L929.6012,829.6366 L923.8361,823.8721 C923.153,823.1885 922.0447,823.1885 921.361,823.8721 C920.6779,824.5552 920.6779,825.6635 921.361,826.3472 L927.1261,832.1117 L921.347,837.8908 C920.6639,838.5739 920.6639,839.6822 921.347,840.3653 C921.6883,840.7071 922.1368,840.878 922.5843,840.878 C923.0317,840.878 923.4803,840.7071 923.8221,840.3653 L929.6006,834.5868 L935.3651,840.3513 C935.7069,840.6931 936.1549,840.864 936.6023,840.864 C937.0498,840.864 937.4978,840.6931 937.8396,840.3513 C938.5233,839.6682 938.5233,838.5599 937.8396,837.8768 L932.0757,832.1117 " fill="#FE0000" style="stroke:;stroke-width:0;stroke-dasharray:;"/><path d="M771.2139,738.8594 L781.2139,738.8594 C796.2139,738.8594 796.2139,832.9844 811.2139,832.9844 L821.2139,832.9844 " fill="none" style="stroke:#181818;stroke-width:1;"/><path d="M589.2139,644.7344 L599.2139,644.7344 C614.2139,644.7344 614.2139,738.8594 629.2139,738.8594 L639.2139,738.8594 " fill="none" style="stroke:#181818;stroke-width:1;"/><path d="M379.2139,456.4844 L389.2139,456.4844 C404.2139,456.4844 404.2139,644.7344 419.2139,644.7344 L429.2139,644.7344 " fill="none" style="stroke:#181818;stroke-width:1;"/><path d="M249.3242,456.4844 L259.3242,456.4844 C274.3242,456.4844 274.3242,456.4844 289.3242,456.4844 L299.3242,456.4844 " fill="none" style="stroke:#181818;stroke-width:1;"/><!--SRC=[xLXVJzjM57_tfxXJNw1IGa6egYA4A2begqXLBRIlwCQ-JMwnVIFxEbrKLG94HUWONLjMD2YRG5jf6Lkt5GeD0xvC_8TliMCxXYJ4s7dOqq38IkxvdT_vVovcIETOumfL9GKN1U4Bgego8H6KJFRulpelowIdA6EL6ugSS949W2QyyoI5Cq7WbCi4cPKNzk6AyqSruN-oLsPhXw_iZmU9axMV_2FpbrbuMejRrkj3GRZQiGg2dwkeTh1Osr-ntqvRls-WWG6Y50jOf_hWO5rk_RrkBNroTZRi-VVdvJx6ELwpFlvWpK-PHykkrVqfipBdgvoYsY9zZFLcswd-reIietSNpEzMdDqDW9wy_0iDND68b2eGN2fFY0KYJaueM9jC3OQh7hso5kVRQ2k6p6bHfYBcbAaJtxJbC9ylEpl747tdva7rP7NEMfkgLQkkzjFjaxaNyGYQa-Hdg5RTj9T-1YBNcTLdRGo206nwAJrsTcUifIDdP-zKpQoyjwO_T1902v-zzAvMNRHdNZepwyxYdbyzb_NJssXMQBAZLVlP1_jm2u82AZUGDzkGchOzuYFDlL_DftljF0kIQbQc0D5PK_nfRqwxGLK-cy-tEb654OAQEEiBviA1QnkUhvVD7z_5zW3YEfYrAj_xqG5HRRzQ-_njQ_YjZkviUdFNGOph2r2oqzdgI7LwfVRFiZyvBi7kWhCx-zyEdI0C4TYMmSOSQbwW0zvU71Jg1xSepcjOGO_1T38d6yJxXD0m5YVp6ZDKASrafY6PvWlSbOFqYOkLm65m8mHUbmRWl4Q8UX6p1sX0boF0vG3BDApcmvpsXG6qQ6X5EGpg2mDeU60DGMbC3sExCZewF9nE1yWoaMNsA0Jh2psea0okWkXSDQBxBew_4JeCHs81-YgM0PfNcKPYr0AXCQgIrlCpYfXcBwHooLILYKJb8JIwwYKIeL6cSlye9mEcXHKQlkwRoe4CvWRBQOqgGQ1dICuKp5bRx5sD5B7cJLqdQZTpJEDHdH2NYtCeAuzg_fXiQQR01F2mQjSrm-ZSwgWa3mK3qiPaNhH8eWeb4LBK9yiU-iav0oEms78orGlXMwX1lzdQemBbhRa9CNE7yMXBNbHY6QineXAnHFYfCIoAL0flwQRj6CNy02PDRnXV-2wI37v8Z8WXPZAue36feGCZHYZGyEmKcKuvBP6ROiCudDkmM2Pn0paB0Mg18waL2fUQkuxZz5JzPdB9TIFta8WkVLXsS0ckKgB5v2rH1XFaKRCePZVliTDzjiYR1_VYMMtgvSWhGe37G4_zhuFBDwRBDwRBDwRBDwR_vHlJNVT_IVSoOwX4DDszTNgJVTVw-fCtkhAOepkiX7gleskzgVx-LFzrbCwE8rVSBNHblXf7EZFWqaKIN4aQpHckZMxXDYvXzBK1MriXAUH-wnhFTAFiI728HjGIrPYgmAOMRj_F-23q9UFP8kCU-7f_OfXob2KQk8NkPuHRv066M41LP19LyobqRtmqSKCOWurku3mOWZiq3QkUQsMGPVy5]--></g></svg>