<svg xmlns="http://www.w3.org/2000/svg" xmlns:xlink="http://www.w3.org/1999/xlink" contentStyleType="text/css" height="1039px" preserveAspectRatio="none" style="width:1012px;height:1039px;background:#FFFFFF;" version="1.1" viewBox="0 0 1012 1039" width="1012px" zoomAndPan="magnify"><title>&#21009;&#32602;&#35770;-&#21009;&#32602;&#30340;&#28040;&#28781;-&#36861;&#35785;&#26102;&#25928;</title><defs/><g><text fill="#000000" font-family="sans-serif" font-size="14" font-weight="bold" lengthAdjust="spacing" textLength="182.5742" x="413.5439" y="34.5332">&#21009;&#32602;&#35770;-&#21009;&#32602;&#30340;&#28040;&#28781;-&#36861;&#35785;&#26102;&#25928;</text><rect fill="#F1F1F1" height="37.6094" rx="12.5" ry="12.5" style="stroke:#181818;stroke-width:1.5;" width="150.6621" x="10" y="519.4844"/><text fill="#000000" font-family="sans-serif" font-size="14" lengthAdjust="spacing" textLength="130.6621" x="20" y="544.0176">&#21009;&#32602;&#30340;&#28040;&#28781;-&#36861;&#35785;&#26102;&#25928;</text><rect fill="#F1F1F1" height="37.6094" rx="12.5" ry="12.5" style="stroke:#181818;stroke-width:1.5;" width="118" x="210.6621" y="173.8281"/><text fill="#000000" font-family="sans-serif" font-size="14" lengthAdjust="spacing" textLength="98" x="220.6621" y="198.3613">&#26102;&#38388;&#24320;&#22987;&#21644;&#32467;&#26463;</text><rect fill="#F1F1F1" height="37.6094" rx="12.5" ry="12.5" style="stroke:#181818;stroke-width:1.5;" width="62" x="378.6621" y="145.0234"/><text fill="#000000" font-family="sans-serif" font-size="14" lengthAdjust="spacing" textLength="42" x="388.6621" y="169.5566">&#36215;&#31639;&#26085;</text><rect fill="#F1F1F1" height="37.6094" rx="12.5" ry="12.5" style="stroke:#181818;stroke-width:1.5;" width="104" x="490.6621" y="116.2188"/><text fill="#000000" font-family="sans-serif" font-size="14" lengthAdjust="spacing" textLength="84" x="500.6621" y="140.752">&#29359;&#32618;&#25104;&#31435;&#20043;&#26085;</text><rect fill="#F1F1F1" height="37.6094" rx="12.5" ry="12.5" style="stroke:#181818;stroke-width:1.5;" width="62" x="644.6621" y="87.4141"/><text fill="#000000" font-family="sans-serif" font-size="14" lengthAdjust="spacing" textLength="42" x="654.6621" y="111.9473">&#25925;&#24847;&#29359;</text><rect fill="#F1F1F1" height="37.6094" rx="12.5" ry="12.5" style="stroke:#181818;stroke-width:1.5;" width="244" x="756.6621" y="58.6094"/><text fill="#000000" font-family="sans-serif" font-size="14" lengthAdjust="spacing" textLength="224" x="766.6621" y="83.1426">&#23454;&#26045;&#34892;&#20026;&#65292;&#20135;&#29983;&#21361;&#38505;&#65292;&#29359;&#32618;&#23601;&#25104;&#31435;&#12290;</text><path d="M706.6621,106.2188 L716.6621,106.2188 C731.6621,106.2188 731.6621,77.4141 746.6621,77.4141 L756.6621,77.4141 " fill="none" style="stroke:#181818;stroke-width:1;"/><rect fill="#F1F1F1" height="37.6094" rx="12.5" ry="12.5" style="stroke:#181818;stroke-width:1.5;" width="188" x="756.6621" y="116.2188"/><text fill="#000000" font-family="sans-serif" font-size="14" lengthAdjust="spacing" textLength="168" x="766.6621" y="140.752">&#36896;&#25104;&#23454;&#23475;&#32467;&#26524;&#65292;&#29359;&#32618;&#26082;&#36930;&#12290;</text><path d="M706.6621,106.2188 L716.6621,106.2188 C731.6621,106.2188 731.6621,135.0234 746.6621,135.0234 L756.6621,135.0234 " fill="none" style="stroke:#181818;stroke-width:1;"/><path d="M594.6621,135.0234 L604.6621,135.0234 C619.6621,135.0234 619.6621,106.2188 634.6621,106.2188 L644.6621,106.2188 " fill="none" style="stroke:#181818;stroke-width:1;"/><rect fill="#F1F1F1" height="37.6094" rx="12.5" ry="12.5" style="stroke:#181818;stroke-width:1.5;" width="62" x="644.6621" y="173.8281"/><text fill="#000000" font-family="sans-serif" font-size="14" lengthAdjust="spacing" textLength="42" x="654.6621" y="198.3613">&#36807;&#22833;&#29359;</text><rect fill="#F1F1F1" height="37.6094" rx="12.5" ry="12.5" style="stroke:#181818;stroke-width:1.5;" width="188" x="756.6621" y="173.8281"/><text fill="#000000" font-family="sans-serif" font-size="14" lengthAdjust="spacing" textLength="168" x="766.6621" y="198.3613">&#36896;&#25104;&#23454;&#23475;&#32467;&#26524;&#65292;&#29359;&#32618;&#25104;&#31435;&#12290;</text><path d="M706.6621,192.6328 L716.6621,192.6328 C731.6621,192.6328 731.6621,192.6328 746.6621,192.6328 L756.6621,192.6328 " fill="none" style="stroke:#181818;stroke-width:1;"/><path d="M594.6621,135.0234 L604.6621,135.0234 C619.6621,135.0234 619.6621,192.6328 634.6621,192.6328 L644.6621,192.6328 " fill="none" style="stroke:#181818;stroke-width:1;"/><path d="M440.6621,163.8281 L450.6621,163.8281 C465.6621,163.8281 465.6621,135.0234 480.6621,135.0234 L490.6621,135.0234 " fill="none" style="stroke:#181818;stroke-width:1;"/><rect fill="#F1F1F1" height="37.6094" rx="12.5" ry="12.5" style="stroke:#181818;stroke-width:1.5;" width="48" x="490.6621" y="231.4375"/><text fill="#000000" font-family="sans-serif" font-size="14" lengthAdjust="spacing" textLength="28" x="500.6621" y="255.9707">&#20363;&#22806;</text><rect fill="#F1F1F1" height="37.6094" rx="12.5" ry="12.5" style="stroke:#181818;stroke-width:1.5;" width="398" x="588.6621" y="231.4375"/><text fill="#000000" font-family="sans-serif" font-size="14" lengthAdjust="spacing" textLength="378" x="598.6621" y="255.9707">&#36830;&#32493;&#29366;&#24577;&#65288;&#36830;&#32493;&#29359;&#12289;&#32487;&#32493;&#29359;&#65289;&#65292;&#20174;&#29359;&#32618;&#34892;&#20026;&#32456;&#20102;&#20043;&#26085;&#36215;&#35745;&#31639;&#12290;</text><path d="M538.6621,250.2422 L548.6621,250.2422 C563.6621,250.2422 563.6621,250.2422 578.6621,250.2422 L588.6621,250.2422 " fill="none" style="stroke:#181818;stroke-width:1;"/><path d="M440.6621,163.8281 L450.6621,163.8281 C465.6621,163.8281 465.6621,250.2422 480.6621,250.2422 L490.6621,250.2422 " fill="none" style="stroke:#181818;stroke-width:1;"/><path d="M328.6621,192.6328 L338.6621,192.6328 C353.6621,192.6328 353.6621,163.8281 368.6621,163.8281 L378.6621,163.8281 " fill="none" style="stroke:#181818;stroke-width:1;"/><rect fill="#F1F1F1" height="37.6094" rx="12.5" ry="12.5" style="stroke:#181818;stroke-width:1.5;" width="62" x="378.6621" y="289.0469"/><text fill="#000000" font-family="sans-serif" font-size="14" lengthAdjust="spacing" textLength="42" x="388.6621" y="313.5801">&#25130;&#27490;&#26085;</text><rect fill="#F1F1F1" height="37.6094" rx="12.5" ry="12.5" style="stroke:#181818;stroke-width:1.5;" width="76" x="490.6621" y="289.0469"/><text fill="#000000" font-family="sans-serif" font-size="14" lengthAdjust="spacing" textLength="56" x="500.6621" y="313.5801">&#23457;&#21028;&#20043;&#26085;</text><rect fill="#F1F1F1" height="37.6094" rx="12.5" ry="12.5" style="stroke:#181818;stroke-width:1.5;" width="328" x="616.6621" y="289.0469"/><text fill="#000000" font-family="sans-serif" font-size="14" lengthAdjust="spacing" textLength="308" x="626.6621" y="313.5801">&#21482;&#35201;&#23457;&#21028;&#20043;&#26085;&#65292;&#36824;&#27809;&#26377;&#36229;&#36807;&#36861;&#35785;&#26399;&#38480;&#65292;&#23601;&#33021;&#36861;&#35785;&#12290;</text><path d="M566.6621,307.8516 L576.6621,307.8516 C591.6621,307.8516 591.6621,307.8516 606.6621,307.8516 L616.6621,307.8516 " fill="none" style="stroke:#181818;stroke-width:1;"/><path d="M440.6621,307.8516 L450.6621,307.8516 C465.6621,307.8516 465.6621,307.8516 480.6621,307.8516 L490.6621,307.8516 " fill="none" style="stroke:#181818;stroke-width:1;"/><path d="M328.6621,192.6328 L338.6621,192.6328 C353.6621,192.6328 353.6621,307.8516 368.6621,307.8516 L378.6621,307.8516 " fill="none" style="stroke:#181818;stroke-width:1;"/><path d="M160.6621,538.2891 L170.6621,538.2891 C185.6621,538.2891 185.6621,192.6328 200.6621,192.6328 L210.6621,192.6328 " fill="none" style="stroke:#181818;stroke-width:1;"/><rect fill="#F1F1F1" height="37.6094" rx="12.5" ry="12.5" style="stroke:#181818;stroke-width:1.5;" width="76" x="210.6621" y="577.0938"/><text fill="#000000" font-family="sans-serif" font-size="14" lengthAdjust="spacing" textLength="56" x="220.6621" y="601.627">&#36861;&#35785;&#26399;&#38480;</text><rect fill="#F1F1F1" height="37.6094" rx="12.5" ry="12.5" style="stroke:#181818;stroke-width:1.5;" width="76" x="336.6621" y="461.875"/><text fill="#000000" font-family="sans-serif" font-size="14" lengthAdjust="spacing" textLength="56" x="346.6621" y="486.4082">&#19968;&#33324;&#24773;&#20917;</text><rect fill="#F1F1F1" height="37.6094" rx="12.5" ry="12.5" style="stroke:#181818;stroke-width:1.5;" width="125.7861" x="462.6621" y="346.6563"/><text fill="#000000" font-family="sans-serif" font-size="14" lengthAdjust="spacing" textLength="105.7861" x="472.6621" y="371.1895">&#19981;&#28385;5&#24180;&#26377;&#26399;&#24466;&#21009;</text><rect fill="#F1F1F1" height="37.6094" rx="12.5" ry="12.5" style="stroke:#181818;stroke-width:1.5;" width="83.7861" x="638.4482" y="346.6563"/><text fill="#000000" font-family="sans-serif" font-size="14" lengthAdjust="spacing" textLength="63.7861" x="648.4482" y="371.1895">&#26399;&#38480;&#65306;5&#24180;</text><path d="M588.4482,365.4609 L598.4482,365.4609 C613.4482,365.4609 613.4482,365.4609 628.4482,365.4609 L638.4482,365.4609 " fill="none" style="stroke:#181818;stroke-width:1;"/><path d="M412.6621,480.6797 L422.6621,480.6797 C437.6621,480.6797 437.6621,365.4609 452.6621,365.4609 L462.6621,365.4609 " fill="none" style="stroke:#181818;stroke-width:1;"/><rect fill="#F1F1F1" height="37.6094" rx="12.5" ry="12.5" style="stroke:#181818;stroke-width:1.5;" width="127.3584" x="462.6621" y="404.2656"/><text fill="#000000" font-family="sans-serif" font-size="14" lengthAdjust="spacing" textLength="107.3584" x="472.6621" y="428.7988">5&#24180;&#20197;&#19978;&#19981;&#28385;10&#24180;</text><rect fill="#F1F1F1" height="37.6094" rx="12.5" ry="12.5" style="stroke:#181818;stroke-width:1.5;" width="91.5723" x="640.0205" y="404.2656"/><text fill="#000000" font-family="sans-serif" font-size="14" lengthAdjust="spacing" textLength="71.5723" x="650.0205" y="428.7988">&#26399;&#38480;&#65306;10&#24180;</text><path d="M590.0205,423.0703 L600.0205,423.0703 C615.0205,423.0703 615.0205,423.0703 630.0205,423.0703 L640.0205,423.0703 " fill="none" style="stroke:#181818;stroke-width:1;"/><path d="M412.6621,480.6797 L422.6621,480.6797 C437.6621,480.6797 437.6621,423.0703 452.6621,423.0703 L462.6621,423.0703 " fill="none" style="stroke:#181818;stroke-width:1;"/><rect fill="#F1F1F1" height="37.6094" rx="12.5" ry="12.5" style="stroke:#181818;stroke-width:1.5;" width="133.5723" x="462.6621" y="461.875"/><text fill="#000000" font-family="sans-serif" font-size="14" lengthAdjust="spacing" textLength="113.5723" x="472.6621" y="486.4082">10&#24180;&#20197;&#19978;&#26377;&#26399;&#24466;&#21009;</text><rect fill="#F1F1F1" height="37.6094" rx="12.5" ry="12.5" style="stroke:#181818;stroke-width:1.5;" width="91.5723" x="646.2344" y="461.875"/><text fill="#000000" font-family="sans-serif" font-size="14" lengthAdjust="spacing" textLength="71.5723" x="656.2344" y="486.4082">&#26399;&#38480;&#65306;15&#24180;</text><path d="M596.2344,480.6797 L606.2344,480.6797 C621.2344,480.6797 621.2344,480.6797 636.2344,480.6797 L646.2344,480.6797 " fill="none" style="stroke:#181818;stroke-width:1;"/><path d="M412.6621,480.6797 L422.6621,480.6797 C437.6621,480.6797 437.6621,480.6797 452.6621,480.6797 L462.6621,480.6797 " fill="none" style="stroke:#181818;stroke-width:1;"/><rect fill="#F1F1F1" height="37.6094" rx="12.5" ry="12.5" style="stroke:#181818;stroke-width:1.5;" width="76" x="462.6621" y="548.2891"/><text fill="#000000" font-family="sans-serif" font-size="14" lengthAdjust="spacing" textLength="56" x="472.6621" y="572.8223">&#26080;&#26399;&#24466;&#21009;</text><rect fill="#F1F1F1" height="37.6094" rx="12.5" ry="12.5" style="stroke:#181818;stroke-width:1.5;" width="91.5723" x="588.6621" y="519.4844"/><text fill="#000000" font-family="sans-serif" font-size="14" lengthAdjust="spacing" textLength="71.5723" x="598.6621" y="544.0176">&#26399;&#38480;&#65306;20&#24180;</text><path d="M538.6621,567.0938 L548.6621,567.0938 C563.6621,567.0938 563.6621,538.2891 578.6621,538.2891 L588.6621,538.2891 " fill="none" style="stroke:#181818;stroke-width:1;"/><rect fill="#F1F1F1" height="37.6094" rx="12.5" ry="12.5" style="stroke:#181818;stroke-width:1.5;" width="104" x="588.6621" y="577.0938"/><text fill="#000000" font-family="sans-serif" font-size="14" lengthAdjust="spacing" textLength="84" x="598.6621" y="601.627">&#29305;&#21035;&#36861;&#35785;&#21046;&#24230;</text><path d="M538.6621,567.0938 L548.6621,567.0938 C563.6621,567.0938 563.6621,595.8984 578.6621,595.8984 L588.6621,595.8984 " fill="none" style="stroke:#181818;stroke-width:1;"/><path d="M412.6621,480.6797 L422.6621,480.6797 C437.6621,480.6797 437.6621,567.0938 452.6621,567.0938 L462.6621,567.0938 " fill="none" style="stroke:#181818;stroke-width:1;"/><path d="M286.6621,595.8984 L296.6621,595.8984 C311.6621,595.8984 311.6621,480.6797 326.6621,480.6797 L336.6621,480.6797 " fill="none" style="stroke:#181818;stroke-width:1;"/><rect fill="#F1F1F1" height="37.6094" rx="12.5" ry="12.5" style="stroke:#181818;stroke-width:1.5;" width="48" x="336.6621" y="721.1172"/><text fill="#000000" font-family="sans-serif" font-size="14" lengthAdjust="spacing" textLength="28" x="346.6621" y="745.6504">&#24310;&#38271;</text><rect fill="#F1F1F1" height="37.6094" rx="12.5" ry="12.5" style="stroke:#181818;stroke-width:1.5;" width="76" x="434.6621" y="663.5078"/><text fill="#000000" font-family="sans-serif" font-size="14" lengthAdjust="spacing" textLength="56" x="444.6621" y="688.041">&#26080;&#38480;&#24310;&#38271;</text><rect fill="#F1F1F1" height="37.6094" rx="12.5" ry="12.5" style="stroke:#181818;stroke-width:1.5;" width="216" x="560.6621" y="634.7031"/><text fill="#000000" font-family="sans-serif" font-size="14" lengthAdjust="spacing" textLength="196" x="570.6621" y="659.2363">&#36867;&#36991;&#20390;&#23519;&#25110;&#23457;&#21028;&#65288;&#29359;&#32618;&#23244;&#30097;&#20154;&#65289;</text><path d="M510.6621,682.3125 L520.6621,682.3125 C535.6621,682.3125 535.6621,653.5078 550.6621,653.5078 L560.6621,653.5078 " fill="none" style="stroke:#181818;stroke-width:1;"/><rect fill="#F1F1F1" height="37.6094" rx="12.5" ry="12.5" style="stroke:#181818;stroke-width:1.5;" width="244" x="560.6621" y="692.3125"/><text fill="#000000" font-family="sans-serif" font-size="14" lengthAdjust="spacing" textLength="224" x="570.6621" y="716.8457">&#24212;&#24403;&#31435;&#26696;&#32780;&#19981;&#20104;&#31435;&#26696;&#65288;&#34987;&#23475;&#20154;&#35270;&#35282;&#65289;</text><path d="M510.6621,682.3125 L520.6621,682.3125 C535.6621,682.3125 535.6621,711.1172 550.6621,711.1172 L560.6621,711.1172 " fill="none" style="stroke:#181818;stroke-width:1;"/><path d="M384.6621,739.9219 L394.6621,739.9219 C409.6621,739.9219 409.6621,682.3125 424.6621,682.3125 L434.6621,682.3125 " fill="none" style="stroke:#181818;stroke-width:1;"/><rect fill="#F1F1F1" height="37.6094" rx="12.5" ry="12.5" style="stroke:#181818;stroke-width:1.5;" width="76" x="434.6621" y="778.7266"/><text fill="#000000" font-family="sans-serif" font-size="14" lengthAdjust="spacing" textLength="56" x="444.6621" y="803.2598">&#37325;&#26032;&#35745;&#31639;</text><rect fill="#F1F1F1" height="37.6094" rx="12.5" ry="12.5" style="stroke:#181818;stroke-width:1.5;" width="48" x="560.6621" y="778.7266"/><text fill="#000000" font-family="sans-serif" font-size="14" lengthAdjust="spacing" textLength="28" x="570.6621" y="803.2598">&#27010;&#24565;</text><rect fill="#F1F1F1" height="37.6094" rx="12.5" ry="12.5" style="stroke:#181818;stroke-width:1.5;" width="48" x="658.6621" y="749.9219"/><text fill="#000000" font-family="sans-serif" font-size="14" lengthAdjust="spacing" textLength="28" x="668.6621" y="774.4551">&#21069;&#32618;</text><path d="M608.6621,797.5313 L618.6621,797.5313 C633.6621,797.5313 633.6621,768.7266 648.6621,768.7266 L658.6621,768.7266 " fill="none" style="stroke:#181818;stroke-width:1;"/><rect fill="#F1F1F1" height="37.6094" rx="12.5" ry="12.5" style="stroke:#181818;stroke-width:1.5;" width="48" x="658.6621" y="807.5313"/><text fill="#000000" font-family="sans-serif" font-size="14" lengthAdjust="spacing" textLength="28" x="668.6621" y="832.0645">&#21518;&#32618;</text><path d="M608.6621,797.5313 L618.6621,797.5313 C633.6621,797.5313 633.6621,826.3359 648.6621,826.3359 L658.6621,826.3359 " fill="none" style="stroke:#181818;stroke-width:1;"/><path d="M510.6621,797.5313 L520.6621,797.5313 C535.6621,797.5313 535.6621,797.5313 550.6621,797.5313 L560.6621,797.5313 " fill="none" style="stroke:#181818;stroke-width:1;"/><path d="M384.6621,739.9219 L394.6621,739.9219 C409.6621,739.9219 409.6621,797.5313 424.6621,797.5313 L434.6621,797.5313 " fill="none" style="stroke:#181818;stroke-width:1;"/><path d="M286.6621,595.8984 L296.6621,595.8984 C311.6621,595.8984 311.6621,739.9219 326.6621,739.9219 L336.6621,739.9219 " fill="none" style="stroke:#181818;stroke-width:1;"/><path d="M160.6621,538.2891 L170.6621,538.2891 C185.6621,538.2891 185.6621,595.8984 200.6621,595.8984 L210.6621,595.8984 " fill="none" style="stroke:#181818;stroke-width:1;"/><rect fill="#F1F1F1" height="37.6094" rx="12.5" ry="12.5" style="stroke:#181818;stroke-width:1.5;" width="76" x="210.6621" y="922.75"/><text fill="#000000" font-family="sans-serif" font-size="14" lengthAdjust="spacing" textLength="56" x="220.6621" y="947.2832">&#20855;&#20307;&#22330;&#26223;</text><rect fill="#F1F1F1" height="37.6094" rx="12.5" ry="12.5" style="stroke:#181818;stroke-width:1.5;" width="76" x="336.6621" y="865.1406"/><text fill="#000000" font-family="sans-serif" font-size="14" lengthAdjust="spacing" textLength="56" x="346.6621" y="889.6738">&#21333;&#20301;&#29359;&#32618;</text><path d="M286.6621,941.5547 L296.6621,941.5547 C311.6621,941.5547 311.6621,883.9453 326.6621,883.9453 L336.6621,883.9453 " fill="none" style="stroke:#181818;stroke-width:1;"/><rect fill="#F1F1F1" height="37.6094" rx="12.5" ry="12.5" style="stroke:#181818;stroke-width:1.5;" width="76" x="336.6621" y="922.75"/><text fill="#000000" font-family="sans-serif" font-size="14" lengthAdjust="spacing" textLength="56" x="346.6621" y="947.2832">&#20849;&#21516;&#29359;&#32618;</text><path d="M286.6621,941.5547 L296.6621,941.5547 C311.6621,941.5547 311.6621,941.5547 326.6621,941.5547 L336.6621,941.5547 " fill="none" style="stroke:#181818;stroke-width:1;"/><rect fill="#F1F1F1" height="37.6094" rx="12.5" ry="12.5" style="stroke:#181818;stroke-width:1.5;" width="202" x="336.6621" y="980.3594"/><text fill="#000000" font-family="sans-serif" font-size="14" lengthAdjust="spacing" textLength="182" x="346.6621" y="1004.8926">&#20004;&#20010;&#32618;&#65288;&#24819;&#35937;&#31454;&#21512;&#12289;&#29301;&#36830;&#32618;&#65289;</text><path d="M286.6621,941.5547 L296.6621,941.5547 C311.6621,941.5547 311.6621,999.1641 326.6621,999.1641 L336.6621,999.1641 " fill="none" style="stroke:#181818;stroke-width:1;"/><path d="M160.6621,538.2891 L170.6621,538.2891 C185.6621,538.2891 185.6621,941.5547 200.6621,941.5547 L210.6621,941.5547 " fill="none" style="stroke:#181818;stroke-width:1;"/><!--SRC=[xLZTJXj75BxVfvYgDu1a1n2D8XHL10VKHX15XUH-i2Tca_MEjHuxigf89WIo3ZWXFq115EA8W0e5GXC8s1WU9ZkxwojUeMTtlR0Oh-rUzGQ4aEUSRxvpvlpCyT2JO5XXCL6En71S47uGvR2KZ10K35vpVXCiBP5hSGdBB1cJ0XOo0D20BG-A81C49ZA98Aw-CKgBvdOXu7mo5f_h-wenjXKmJqhcJbQVtzTdLK5eGtNr27xQ42pAyr_vKOQlJ_6tqqRndVxdYgrpzERUDsDxNf__T2PpvCRB7QEqeQipnkQKTZXL3QYGpqxepry3z9BEqVFjPNskPEQdjOF2wT6qLbWttg_mt6vvuIzOEYRuvrt7olVCCn-QSkO3G82CRt-n3h2yTBPRd_zO7djMQoiSxUG5NztrzwuURKsFsf1sFCLNvshQMZQAMyRBVJqpTdgakikTxvanexZkV3uzobf1ABvoR3XXCOggLfXq8WovCBVpa0wlOOYokg5lVRoS8hwTv-ggRtBuwmrpRSmB0klcoH_wFtbzAMlkJq1yAWMpj59Uc04jvC8SBpb2rmVhRESWZrlQGSPK_zR79_ZaNdMO3d9wCVyJF_mAbc0ZFtuBfLghW2gM5ori5OabqegVj8EN3br7UpMcYkCoe0tPCeUbMLSwQlYYptzeQc-dZuz6zf2hcquWkRhF2skUGFBYVddsvB95eAoXScjtl3nseXslyPqLNPrpiWo5L-cfpMbZxerMWARBrggCmdjUUWS5hkTLCmDLcDCAghEqQlVZ9ZG4R3RN9ytrjzKKOFj5Jf_xx5HghM2iFUCdUtutGZO7_lafPrwvIbXCVDDAx_XIGL_OyGOhDwkLSiunlUA9NJupVKci7Qng1niWWtFfur_CtRonkSndLAijitjMbrggh23q4BYutSkxv-9TVjE-edyMAeBR8eugE8P-1pl14Ib9x4y8zUBmuwX2at8aH2Mg84cCZZ9B3zgd5ZQ2bSSAYVZ0AreN75K8aUinsm0FEjq0d7QnLC5orCzfH-b2uqabBlb17QKBzJ-Ovr0AJVYn_TZVtziR2hd8D94a-iG7woXjg10aiVWeJeY9nh7oejjzu8d7QJjbNcnd_LXveRqW2ez2uJNbZ1YLgKAQo1j20w9CgkNd54sQhKjbaSao3HEP-SL6jeEEK3-LcICQaG1JnGhDKV5DPa0cKXbB8KMCkGSzHp8QmupMnDvJI1mhs9BybsstHgZ26bLDiroCGLfPeqPfaYr4Oz0jp2_RbPr-T5PsP1A5X06fDvZrBfr6YOeG4lVM-qK3VN09ZaXYOjJ_nlBilsZjoQZ8gcFZO-OkPOqjsQSAfx7SnAd2E4BOcJ4S3eiH_vA-S9CsOdu8dPRmj2-imsGGFoB91arC9N11eH5F1JPe8NU7RITE4o8JK-HMsDCEbsvZB95c3t9-1CW5RaWT4s40MbTtCpLLcM8MUI8vyeY4BNg_wE0KZ5sYDCcR4Ybqa4rD6p5RSMywtESN-SN6hT-h5sgvuOWGuC_DQvLl4bSFlQk7tjL3x-gXT_NG-tyVUlUi_yRT7nn0AQ8ah07O4Unix-mAtcWPmWpTfIdKSHsrTtHtTNLtNKUXeM5agLk5bi5VXr629c7-emXCHqKSILeZerMuWrCO_PQ40H8ZtSXQjGmFjgAXFbU8-kIKg50v1aD3kFDWq06XNoWRYbDcWwzt1Nf5XeQ80cwX1uF2RV8G9oK6MyCq8ihHRdH_k3zmGnY0uPB4KJ04upm4KuSfQT0D_Gi0]--></g></svg>