<svg xmlns="http://www.w3.org/2000/svg" xmlns:xlink="http://www.w3.org/1999/xlink" contentStyleType="text/css" height="1182px" preserveAspectRatio="none" style="width:1123px;height:1182px;background:#FFFFFF;" version="1.1" viewBox="0 0 1123 1182" width="1123px" zoomAndPan="magnify"><title>&#21009;&#32602;&#35770;-&#21009;&#32602;&#30340;&#35009;&#37327;-&#32047;&#29359;</title><defs/><g><text fill="#000000" font-family="sans-serif" font-size="14" font-weight="bold" lengthAdjust="spacing" textLength="153.6992" x="483.5952" y="34.5332">&#21009;&#32602;&#35770;-&#21009;&#32602;&#30340;&#35009;&#37327;-&#32047;&#29359;</text><rect fill="#F1F1F1" height="37.6094" rx="12.5" ry="12.5" style="stroke:#181818;stroke-width:1.5;" width="169.3242" x="10" y="590.9648"/><text fill="#000000" font-family="sans-serif" font-size="14" lengthAdjust="spacing" textLength="149.3242" x="20" y="615.498">&#21009;&#32602;&#35770;-&#21009;&#32602;&#30340;&#35009;&#37327;-&#32047;&#29359;</text><rect fill="#F1F1F1" height="37.6094" rx="12.5" ry="12.5" style="stroke:#181818;stroke-width:1.5;" width="76" x="229.3242" y="468.0352"/><text fill="#000000" font-family="sans-serif" font-size="14" lengthAdjust="spacing" textLength="56" x="239.3242" y="492.5684">&#25104;&#31435;&#26465;&#20214;</text><rect fill="#90EE90" height="37.6094" rx="12.5" ry="12.5" style="stroke:#181818;stroke-width:1.5;" width="79.8896" x="355.3242" y="321.4414"/><text fill="#000000" font-family="sans-serif" font-size="14" lengthAdjust="spacing" textLength="56" x="365.3242" y="345.9746">&#19968;&#33324;&#32047;&#29359;</text><rect fill="#F1F1F1" height="37.6094" rx="12.5" ry="12.5" style="stroke:#181818;stroke-width:1.5;" width="76" x="485.2139" y="89.9844"/><text fill="#000000" font-family="sans-serif" font-size="14" lengthAdjust="spacing" textLength="56" x="495.2139" y="114.5176">&#20027;&#35266;&#26465;&#20214;</text><rect fill="#F1F1F1" height="37.6094" rx="12.5" ry="12.5" style="stroke:#181818;stroke-width:1.5;" width="48" x="611.2139" y="58.6094"/><text fill="#000000" font-family="sans-serif" font-size="14" lengthAdjust="spacing" textLength="28" x="621.2139" y="83.1426">&#25925;&#24847;</text><path d="M561.2139,108.7891 L571.2139,108.7891 C586.2139,108.7891 586.2139,77.4141 601.2139,77.4141 L611.2139,77.4141 " fill="none" style="stroke:#181818;stroke-width:1;"/><rect fill="#F1F1F1" height="42.75" rx="12.5" ry="12.5" style="stroke:#181818;stroke-width:1.5;" width="100.8896" x="611.2139" y="116.2188"/><text fill="#000000" font-family="sans-serif" font-size="14" lengthAdjust="spacing" textLength="56" x="621.2139" y="145.8926">&#25490;&#38500;&#36807;&#22833;</text><path d="M694.0757,136.7211 L699.8408,130.956 C700.5244,130.2729 700.5244,129.1646 699.8408,128.4809 C699.1571,127.7978 698.0499,127.7978 697.3663,128.4809 L691.6012,134.246 L685.8361,128.4815 C685.153,127.7978 684.0447,127.7978 683.361,128.4815 C682.6779,129.1646 682.6779,130.2729 683.361,130.9566 L689.1261,136.7211 L683.347,142.5002 C682.6639,143.1833 682.6639,144.2916 683.347,144.9747 C683.6883,145.3165 684.1368,145.4874 684.5843,145.4874 C685.0317,145.4874 685.4803,145.3165 685.8221,144.9747 L691.6006,139.1962 L697.3651,144.9607 C697.7069,145.3025 698.1549,145.4734 698.6023,145.4734 C699.0498,145.4734 699.4978,145.3025 699.8396,144.9607 C700.5233,144.2776 700.5233,143.1693 699.8396,142.4862 L694.0757,136.7211 " fill="#FE0000" style="stroke:;stroke-width:0;stroke-dasharray:;"/><rect fill="#F1F1F1" height="37.6094" rx="12.5" ry="12.5" style="stroke:#181818;stroke-width:1.5;" width="279.7861" x="762.1035" y="118.7891"/><text fill="#000000" font-family="sans-serif" font-size="14" lengthAdjust="spacing" textLength="259.7861" x="772.1035" y="143.3223">&#20363;&#22914;&#65292;&#36807;&#22833;&#33268;&#20154;&#27515;&#20129;&#32618;&#65292;&#21028;2&#24180;&#26377;&#26399;&#24466;&#21009;&#12290;</text><path d="M712.1035,137.5938 L722.1035,137.5938 C737.1035,137.5938 737.1035,137.5938 752.1035,137.5938 L762.1035,137.5938 " fill="none" style="stroke:#181818;stroke-width:1;"/><path d="M561.2139,108.7891 L571.2139,108.7891 C586.2139,108.7891 586.2139,137.5938 601.2139,137.5938 L611.2139,137.5938 " fill="none" style="stroke:#181818;stroke-width:1;"/><path d="M435.2139,340.2461 L445.2139,340.2461 C460.2139,340.2461 460.2139,108.7891 475.2139,108.7891 L485.2139,108.7891 " fill="none" style="stroke:#181818;stroke-width:1;"/><rect fill="#F1F1F1" height="37.6094" rx="12.5" ry="12.5" style="stroke:#181818;stroke-width:1.5;" width="76" x="485.2139" y="178.9688"/><text fill="#000000" font-family="sans-serif" font-size="14" lengthAdjust="spacing" textLength="56" x="495.2139" y="203.502">&#24180;&#40836;&#26465;&#20214;</text><rect fill="#F1F1F1" height="37.6094" rx="12.5" ry="12.5" style="stroke:#181818;stroke-width:1.5;" width="77.5723" x="611.2139" y="178.9688"/><text fill="#000000" font-family="sans-serif" font-size="14" lengthAdjust="spacing" textLength="57.5723" x="621.2139" y="203.502">&#24050;&#28385;18&#23681;</text><path d="M561.2139,197.7734 L571.2139,197.7734 C586.2139,197.7734 586.2139,197.7734 601.2139,197.7734 L611.2139,197.7734 " fill="none" style="stroke:#181818;stroke-width:1;"/><path d="M435.2139,340.2461 L445.2139,340.2461 C460.2139,340.2461 460.2139,197.7734 475.2139,197.7734 L485.2139,197.7734 " fill="none" style="stroke:#181818;stroke-width:1;"/><rect fill="#F1F1F1" height="37.6094" rx="12.5" ry="12.5" style="stroke:#181818;stroke-width:1.5;" width="76" x="485.2139" y="333.2734"/><text fill="#000000" font-family="sans-serif" font-size="14" lengthAdjust="spacing" textLength="56" x="495.2139" y="357.8066">&#21009;&#24230;&#26465;&#20214;</text><rect fill="#F1F1F1" height="42.75" rx="12.5" ry="12.5" style="stroke:#181818;stroke-width:1.5;" width="170.8896" x="611.2139" y="236.5781"/><text fill="#000000" font-family="sans-serif" font-size="14" lengthAdjust="spacing" textLength="126" x="621.2139" y="266.252">&#26377;&#26399;&#24466;&#21009;&#20197;&#19978;&#30340;&#21009;&#32602;</text><path d="M771.2046,247.3802 C770.3932,246.854 769.3099,247.085 768.7843,247.8959 L758.9785,263.0106 L754.1963,258.589 C753.4864,257.9327 752.3798,257.9759 751.7236,258.6858 C751.0673,259.3951 751.1105,260.5029 751.8204,261.1585 L758.0994,266.9639 C758.2797,267.119 758.2797,267.119 758.3631,267.1733 C758.6571,267.3646 758.9873,267.4556 759.3139,267.4556 C759.8868,267.4556 760.4485,267.1745 760.7839,266.6576 L771.7203,249.8005 C772.2464,248.9896 772.0154,247.9058 771.2046,247.3802 " fill="#FE0000" style="stroke:;stroke-width:0;stroke-dasharray:;"/><path d="M561.2139,352.0781 L571.2139,352.0781 C586.2139,352.0781 586.2139,257.9531 601.2139,257.9531 L611.2139,257.9531 " fill="none" style="stroke:#181818;stroke-width:1;"/><rect fill="#F1F1F1" height="42.75" rx="12.5" ry="12.5" style="stroke:#181818;stroke-width:1.5;" width="114.8896" x="611.2139" y="299.3281"/><text fill="#000000" font-family="sans-serif" font-size="14" lengthAdjust="spacing" textLength="70" x="621.2139" y="329.002">&#19981;&#21253;&#25324;&#25304;&#24441;</text><path d="M708.0757,319.8305 L713.8408,314.0654 C714.5244,313.3823 714.5244,312.274 713.8408,311.5903 C713.1571,310.9072 712.0499,310.9072 711.3663,311.5903 L705.6012,317.3554 L699.8361,311.5909 C699.153,310.9072 698.0447,310.9072 697.361,311.5909 C696.6779,312.274 696.6779,313.3823 697.361,314.066 L703.1261,319.8305 L697.347,325.6095 C696.6639,326.2926 696.6639,327.401 697.347,328.084 C697.6883,328.4259 698.1368,328.5968 698.5843,328.5968 C699.0317,328.5968 699.4803,328.4259 699.8221,328.084 L705.6006,322.3055 L711.3651,328.07 C711.7069,328.4119 712.1549,328.5828 712.6023,328.5828 C713.0498,328.5828 713.4978,328.4119 713.8396,328.07 C714.5233,327.387 714.5233,326.2786 713.8396,325.5955 L708.0757,319.8305 " fill="#FE0000" style="stroke:;stroke-width:0;stroke-dasharray:;"/><path d="M561.2139,352.0781 L571.2139,352.0781 C586.2139,352.0781 586.2139,320.7031 601.2139,320.7031 L611.2139,320.7031 " fill="none" style="stroke:#181818;stroke-width:1;"/><rect fill="#F1F1F1" height="42.75" rx="12.5" ry="12.5" style="stroke:#181818;stroke-width:1.5;" width="114.8896" x="611.2139" y="362.0781"/><text fill="#000000" font-family="sans-serif" font-size="14" lengthAdjust="spacing" textLength="70" x="621.2139" y="391.752">&#19981;&#21253;&#25324;&#31649;&#21046;</text><path d="M708.0757,382.5805 L713.8408,376.8154 C714.5244,376.1323 714.5244,375.024 713.8408,374.3403 C713.1571,373.6572 712.0499,373.6572 711.3663,374.3403 L705.6012,380.1054 L699.8361,374.3409 C699.153,373.6572 698.0447,373.6572 697.361,374.3409 C696.6779,375.024 696.6779,376.1323 697.361,376.816 L703.1261,382.5805 L697.347,388.3595 C696.6639,389.0426 696.6639,390.151 697.347,390.834 C697.6883,391.1759 698.1368,391.3468 698.5843,391.3468 C699.0317,391.3468 699.4803,391.1759 699.8221,390.834 L705.6006,385.0555 L711.3651,390.82 C711.7069,391.1619 712.1549,391.3328 712.6023,391.3328 C713.0498,391.3328 713.4978,391.1619 713.8396,390.82 C714.5233,390.137 714.5233,389.0286 713.8396,388.3455 L708.0757,382.5805 " fill="#FE0000" style="stroke:;stroke-width:0;stroke-dasharray:;"/><path d="M561.2139,352.0781 L571.2139,352.0781 C586.2139,352.0781 586.2139,383.4531 601.2139,383.4531 L611.2139,383.4531 " fill="none" style="stroke:#181818;stroke-width:1;"/><rect fill="#F1F1F1" height="42.75" rx="12.5" ry="12.5" style="stroke:#181818;stroke-width:1.5;" width="128.8896" x="611.2139" y="424.8281"/><text fill="#000000" font-family="sans-serif" font-size="14" lengthAdjust="spacing" textLength="84" x="621.2139" y="454.502">&#19981;&#21253;&#25324;&#38468;&#21152;&#21009;</text><path d="M722.0757,445.3305 L727.8408,439.5654 C728.5244,438.8823 728.5244,437.774 727.8408,437.0903 C727.1571,436.4072 726.0499,436.4072 725.3663,437.0903 L719.6012,442.8554 L713.8361,437.0909 C713.153,436.4072 712.0447,436.4072 711.361,437.0909 C710.6779,437.774 710.6779,438.8823 711.361,439.566 L717.1261,445.3305 L711.347,451.1095 C710.6639,451.7926 710.6639,452.901 711.347,453.584 C711.6883,453.9259 712.1368,454.0968 712.5843,454.0968 C713.0317,454.0968 713.4803,453.9259 713.8221,453.584 L719.6006,447.8055 L725.3651,453.57 C725.7069,453.9119 726.1549,454.0828 726.6023,454.0828 C727.0498,454.0828 727.4978,453.9119 727.8396,453.57 C728.5233,452.887 728.5233,451.7786 727.8396,451.0955 L722.0757,445.3305 " fill="#FE0000" style="stroke:;stroke-width:0;stroke-dasharray:;"/><path d="M561.2139,352.0781 L571.2139,352.0781 C586.2139,352.0781 586.2139,446.2031 601.2139,446.2031 L611.2139,446.2031 " fill="none" style="stroke:#181818;stroke-width:1;"/><path d="M435.2139,340.2461 L445.2139,340.2461 C460.2139,340.2461 460.2139,352.0781 475.2139,352.0781 L485.2139,352.0781 " fill="none" style="stroke:#181818;stroke-width:1;"/><rect fill="#F1F1F1" height="37.6094" rx="12.5" ry="12.5" style="stroke:#181818;stroke-width:1.5;" width="76" x="485.2139" y="535.9258"/><text fill="#000000" font-family="sans-serif" font-size="14" lengthAdjust="spacing" textLength="56" x="495.2139" y="560.459">&#26102;&#38388;&#26465;&#20214;</text><rect fill="#F1F1F1" height="37.6094" rx="12.5" ry="12.5" style="stroke:#181818;stroke-width:1.5;" width="55.7861" x="611.2139" y="535.9258"/><text fill="#000000" font-family="sans-serif" font-size="14" lengthAdjust="spacing" textLength="35.7861" x="621.2139" y="560.459">5&#24180;&#20869;</text><rect fill="#F1F1F1" height="37.6094" rx="12.5" ry="12.5" style="stroke:#181818;stroke-width:1.5;" width="118" x="717" y="535.9258"/><text fill="#000000" font-family="sans-serif" font-size="14" lengthAdjust="spacing" textLength="98" x="727" y="560.459">&#21518;&#32618;&#21457;&#29983;&#20110;&#21069;&#32618;</text><rect fill="#F1F1F1" height="37.6094" rx="12.5" ry="12.5" style="stroke:#181818;stroke-width:1.5;" width="104" x="885" y="521.5234"/><text fill="#000000" font-family="sans-serif" font-size="14" lengthAdjust="spacing" textLength="84" x="895" y="546.0566">&#21009;&#32602;&#25191;&#34892;&#23436;&#27605;</text><rect fill="#F1F1F1" height="42.75" rx="12.5" ry="12.5" style="stroke:#181818;stroke-width:1.5;" width="72.8896" x="1039" y="487.5781"/><text fill="#000000" font-family="sans-serif" font-size="14" lengthAdjust="spacing" textLength="28" x="1049" y="517.252">&#32531;&#21009;</text><path d="M1093.8618,508.0805 L1099.6269,502.3154 C1100.3106,501.6323 1100.3106,500.524 1099.6269,499.8403 C1098.9432,499.1572 1097.8361,499.1572 1097.1524,499.8403 L1091.3873,505.6054 L1085.6222,499.8409 C1084.9391,499.1572 1083.8308,499.1572 1083.1471,499.8409 C1082.4641,500.524 1082.4641,501.6323 1083.1471,502.316 L1088.9122,508.0805 L1083.1331,513.8595 C1082.4501,514.5426 1082.4501,515.651 1083.1331,516.334 C1083.4744,516.6759 1083.923,516.8468 1084.3704,516.8468 C1084.8178,516.8468 1085.2664,516.6759 1085.6082,516.334 L1091.3867,510.5555 L1097.1512,516.32 C1097.4931,516.6619 1097.9411,516.8328 1098.3885,516.8328 C1098.8359,516.8328 1099.2839,516.6619 1099.6257,516.32 C1100.3094,515.637 1100.3094,514.5286 1099.6257,513.8455 L1093.8618,508.0805 " fill="#FE0000" style="stroke:;stroke-width:0;stroke-dasharray:;"/><path d="M989,540.3281 L999,540.3281 C1014,540.3281 1014,508.9531 1029,508.9531 L1039,508.9531 " fill="none" style="stroke:#181818;stroke-width:1;"/><rect fill="#F1F1F1" height="42.75" rx="12.5" ry="12.5" style="stroke:#181818;stroke-width:1.5;" width="72.8896" x="1039" y="550.3281"/><text fill="#000000" font-family="sans-serif" font-size="14" lengthAdjust="spacing" textLength="28" x="1049" y="580.002">&#20551;&#37322;</text><path d="M1100.9907,561.1302 C1100.1793,560.604 1099.0961,560.835 1098.5705,561.6459 L1088.7646,576.7606 L1083.9825,572.339 C1083.2726,571.6827 1082.166,571.7259 1081.5097,572.4358 C1080.8535,573.1451 1080.8966,574.2529 1081.6066,574.9085 L1087.8856,580.7139 C1088.0658,580.869 1088.0658,580.869 1088.1492,580.9233 C1088.4432,581.1146 1088.7734,581.2056 1089.1001,581.2056 C1089.6729,581.2056 1090.2346,580.9245 1090.5701,580.4076 L1101.5064,563.5505 C1102.0326,562.7396 1101.8016,561.6558 1100.9907,561.1302 " fill="#FE0000" style="stroke:;stroke-width:0;stroke-dasharray:;"/><path d="M989,540.3281 L999,540.3281 C1014,540.3281 1014,571.7031 1029,571.7031 L1039,571.7031 " fill="none" style="stroke:#181818;stroke-width:1;"/><path d="M835,554.7305 L845,554.7305 C860,554.7305 860,540.3281 875,540.3281 L885,540.3281 " fill="none" style="stroke:#181818;stroke-width:1;"/><rect fill="#F1F1F1" height="42.75" rx="12.5" ry="12.5" style="stroke:#181818;stroke-width:1.5;" width="72.8896" x="885" y="579.1328"/><text fill="#000000" font-family="sans-serif" font-size="14" lengthAdjust="spacing" textLength="28" x="895" y="608.8066">&#36198;&#20813;</text><path d="M946.9907,589.9349 C946.1793,589.4087 945.0961,589.6397 944.5705,590.4506 L934.7646,605.5653 L929.9825,601.1436 C929.2726,600.4874 928.166,600.5306 927.5097,601.2405 C926.8535,601.9498 926.8966,603.0576 927.6066,603.7132 L933.8856,609.5186 C934.0658,609.6737 934.0658,609.6737 934.1492,609.728 C934.4432,609.9193 934.7734,610.0103 935.1001,610.0103 C935.6729,610.0103 936.2346,609.7291 936.5701,609.2123 L947.5064,592.3551 C948.0326,591.5443 947.8016,590.4605 946.9907,589.9349 " fill="#FE0000" style="stroke:;stroke-width:0;stroke-dasharray:;"/><path d="M835,554.7305 L845,554.7305 C860,554.7305 860,600.5078 875,600.5078 L885,600.5078 " fill="none" style="stroke:#181818;stroke-width:1;"/><path d="M667,554.7305 L677,554.7305 C692,554.7305 692,554.7305 707,554.7305 L717,554.7305 " fill="none" style="stroke:#181818;stroke-width:1;"/><path d="M561.2139,554.7305 L571.2139,554.7305 C586.2139,554.7305 586.2139,554.7305 601.2139,554.7305 L611.2139,554.7305 " fill="none" style="stroke:#181818;stroke-width:1;"/><path d="M435.2139,340.2461 L445.2139,340.2461 C460.2139,340.2461 460.2139,554.7305 475.2139,554.7305 L485.2139,554.7305 " fill="none" style="stroke:#181818;stroke-width:1;"/><path d="M305.3242,486.8398 L315.3242,486.8398 C330.3242,486.8398 330.3242,340.2461 345.3242,340.2461 L355.3242,340.2461 " fill="none" style="stroke:#181818;stroke-width:1;"/><rect fill="#90EE90" height="37.6094" rx="12.5" ry="12.5" style="stroke:#181818;stroke-width:1.5;" width="79.8896" x="355.3242" y="759.6719"/><text fill="#000000" font-family="sans-serif" font-size="14" lengthAdjust="spacing" textLength="56" x="365.3242" y="784.2051">&#29305;&#27530;&#32047;&#29359;</text><rect fill="#F1F1F1" height="37.6094" rx="12.5" ry="12.5" style="stroke:#181818;stroke-width:1.5;" width="76" x="485.2139" y="673.2578"/><text fill="#000000" font-family="sans-serif" font-size="14" lengthAdjust="spacing" textLength="56" x="495.2139" y="697.791">&#20027;&#35266;&#26465;&#20214;</text><rect fill="#F1F1F1" height="37.6094" rx="12.5" ry="12.5" style="stroke:#181818;stroke-width:1.5;" width="48" x="611.2139" y="641.8828"/><text fill="#000000" font-family="sans-serif" font-size="14" lengthAdjust="spacing" textLength="28" x="621.2139" y="666.416">&#25925;&#24847;</text><path d="M561.2139,692.0625 L571.2139,692.0625 C586.2139,692.0625 586.2139,660.6875 601.2139,660.6875 L611.2139,660.6875 " fill="none" style="stroke:#181818;stroke-width:1;"/><rect fill="#F1F1F1" height="42.75" rx="12.5" ry="12.5" style="stroke:#181818;stroke-width:1.5;" width="100.8896" x="611.2139" y="699.4922"/><text fill="#000000" font-family="sans-serif" font-size="14" lengthAdjust="spacing" textLength="56" x="621.2139" y="729.166">&#25490;&#38500;&#36807;&#22833;</text><path d="M694.0757,719.9945 L699.8408,714.2294 C700.5244,713.5464 700.5244,712.438 699.8408,711.7544 C699.1571,711.0713 698.0499,711.0713 697.3663,711.7544 L691.6012,717.5194 L685.8361,711.7549 C685.153,711.0713 684.0447,711.0713 683.361,711.7549 C682.6779,712.438 682.6779,713.5464 683.361,714.23 L689.1261,719.9945 L683.347,725.7736 C682.6639,726.4567 682.6639,727.565 683.347,728.2481 C683.6883,728.5899 684.1368,728.7609 684.5843,728.7609 C685.0317,728.7609 685.4803,728.5899 685.8221,728.2481 L691.6006,722.4696 L697.3651,728.2341 C697.7069,728.5759 698.1549,728.7469 698.6023,728.7469 C699.0498,728.7469 699.4978,728.5759 699.8396,728.2341 C700.5233,727.551 700.5233,726.4427 699.8396,725.7596 L694.0757,719.9945 " fill="#FE0000" style="stroke:;stroke-width:0;stroke-dasharray:;"/><path d="M561.2139,692.0625 L571.2139,692.0625 C586.2139,692.0625 586.2139,720.8672 601.2139,720.8672 L611.2139,720.8672 " fill="none" style="stroke:#181818;stroke-width:1;"/><path d="M435.2139,778.4766 L445.2139,778.4766 C460.2139,778.4766 460.2139,692.0625 475.2139,692.0625 L485.2139,692.0625 " fill="none" style="stroke:#181818;stroke-width:1;"/><rect fill="#F1F1F1" height="37.6094" rx="12.5" ry="12.5" style="stroke:#181818;stroke-width:1.5;" width="90" x="485.2139" y="819.8516"/><text fill="#000000" font-family="sans-serif" font-size="14" lengthAdjust="spacing" textLength="70" x="495.2139" y="844.3848">&#21069;&#21518;&#32618;&#31181;&#31867;</text><rect fill="#F1F1F1" height="37.6094" rx="12.5" ry="12.5" style="stroke:#181818;stroke-width:1.5;" width="118" x="625.2139" y="762.2422"/><text fill="#000000" font-family="sans-serif" font-size="14" lengthAdjust="spacing" textLength="98" x="635.2139" y="786.7754">&#21361;&#23475;&#22269;&#23478;&#23433;&#20840;&#32618;</text><path d="M575.2139,838.6563 L585.2139,838.6563 C600.2139,838.6563 600.2139,781.0469 615.2139,781.0469 L625.2139,781.0469 " fill="none" style="stroke:#181818;stroke-width:1;"/><rect fill="#F1F1F1" height="37.6094" rx="12.5" ry="12.5" style="stroke:#181818;stroke-width:1.5;" width="90" x="625.2139" y="819.8516"/><text fill="#000000" font-family="sans-serif" font-size="14" lengthAdjust="spacing" textLength="70" x="635.2139" y="844.3848">&#24656;&#24598;&#27963;&#21160;&#32618;</text><path d="M575.2139,838.6563 L585.2139,838.6563 C600.2139,838.6563 600.2139,838.6563 615.2139,838.6563 L625.2139,838.6563 " fill="none" style="stroke:#181818;stroke-width:1;"/><rect fill="#F1F1F1" height="37.6094" rx="12.5" ry="12.5" style="stroke:#181818;stroke-width:1.5;" width="146" x="625.2139" y="877.4609"/><text fill="#000000" font-family="sans-serif" font-size="14" lengthAdjust="spacing" textLength="126" x="635.2139" y="901.9941">&#40657;&#31038;&#20250;&#24615;&#36136;&#30340;&#32452;&#32455;&#32618;</text><path d="M575.2139,838.6563 L585.2139,838.6563 C600.2139,838.6563 600.2139,896.2656 615.2139,896.2656 L625.2139,896.2656 " fill="none" style="stroke:#181818;stroke-width:1;"/><path d="M435.2139,778.4766 L445.2139,778.4766 C460.2139,778.4766 460.2139,838.6563 475.2139,838.6563 L485.2139,838.6563 " fill="none" style="stroke:#181818;stroke-width:1;"/><path d="M305.3242,486.8398 L315.3242,486.8398 C330.3242,486.8398 330.3242,778.4766 345.3242,778.4766 L355.3242,778.4766 " fill="none" style="stroke:#181818;stroke-width:1;"/><path d="M179.3242,609.7695 L189.3242,609.7695 C204.3242,609.7695 204.3242,486.8398 219.3242,486.8398 L229.3242,486.8398 " fill="none" style="stroke:#181818;stroke-width:1;"/><rect fill="#F1F1F1" height="37.6094" rx="12.5" ry="12.5" style="stroke:#181818;stroke-width:1.5;" width="118" x="229.3242" y="1029.1953"/><text fill="#000000" font-family="sans-serif" font-size="14" lengthAdjust="spacing" textLength="98" x="239.3242" y="1053.7285">&#27861;&#24459;&#65288;&#22351;&#65289;&#21518;&#26524;</text><rect fill="#90EE90" height="37.6094" rx="12.5" ry="12.5" style="stroke:#181818;stroke-width:1.5;" width="79.8896" x="397.3242" y="935.0703"/><text fill="#000000" font-family="sans-serif" font-size="14" lengthAdjust="spacing" textLength="56" x="407.3242" y="959.6035">&#20174;&#37325;&#22788;&#32602;</text><path d="M347.3242,1048 L357.3242,1048 C372.3242,1048 372.3242,953.875 387.3242,953.875 L397.3242,953.875 " fill="none" style="stroke:#181818;stroke-width:1;"/><rect fill="#F1F1F1" height="42.75" rx="12.5" ry="12.5" style="stroke:#181818;stroke-width:1.5;" width="128.8896" x="397.3242" y="992.6797"/><text fill="#000000" font-family="sans-serif" font-size="14" lengthAdjust="spacing" textLength="84" x="407.3242" y="1022.3535">&#19981;&#33021;&#36866;&#29992;&#32531;&#21009;</text><path d="M508.186,1013.182 L513.9511,1007.4169 C514.6348,1006.7339 514.6348,1005.6255 513.9511,1004.9419 C513.2675,1004.2588 512.1603,1004.2588 511.4766,1004.9419 L505.7115,1010.7069 L499.9465,1004.9424 C499.2634,1004.2588 498.155,1004.2588 497.4714,1004.9424 C496.7883,1005.6255 496.7883,1006.7339 497.4714,1007.4175 L503.2365,1013.182 L497.4574,1018.9611 C496.7743,1019.6442 496.7743,1020.7525 497.4574,1021.4356 C497.7986,1021.7774 498.2472,1021.9484 498.6946,1021.9484 C499.142,1021.9484 499.5906,1021.7774 499.9325,1021.4356 L505.711,1015.6571 L511.4755,1021.4216 C511.8173,1021.7634 512.2653,1021.9344 512.7127,1021.9344 C513.1601,1021.9344 513.6081,1021.7634 513.95,1021.4216 C514.6336,1020.7385 514.6336,1019.6302 513.95,1018.9471 L508.186,1013.182 " fill="#FE0000" style="stroke:;stroke-width:0;stroke-dasharray:;"/><path d="M347.3242,1048 L357.3242,1048 C372.3242,1048 372.3242,1014.0547 387.3242,1014.0547 L397.3242,1014.0547 " fill="none" style="stroke:#181818;stroke-width:1;"/><rect fill="#F1F1F1" height="42.75" rx="12.5" ry="12.5" style="stroke:#181818;stroke-width:1.5;" width="128.8896" x="397.3242" y="1055.4297"/><text fill="#000000" font-family="sans-serif" font-size="14" lengthAdjust="spacing" textLength="84" x="407.3242" y="1085.1035">&#19981;&#33021;&#36866;&#29992;&#20551;&#37322;</text><path d="M508.186,1075.932 L513.9511,1070.1669 C514.6348,1069.4839 514.6348,1068.3755 513.9511,1067.6919 C513.2675,1067.0088 512.1603,1067.0088 511.4766,1067.6919 L505.7115,1073.4569 L499.9465,1067.6924 C499.2634,1067.0088 498.155,1067.0088 497.4714,1067.6924 C496.7883,1068.3755 496.7883,1069.4839 497.4714,1070.1675 L503.2365,1075.932 L497.4574,1081.7111 C496.7743,1082.3942 496.7743,1083.5025 497.4574,1084.1856 C497.7986,1084.5274 498.2472,1084.6984 498.6946,1084.6984 C499.142,1084.6984 499.5906,1084.5274 499.9325,1084.1856 L505.711,1078.4071 L511.4755,1084.1716 C511.8173,1084.5134 512.2653,1084.6844 512.7127,1084.6844 C513.1601,1084.6844 513.6081,1084.5134 513.95,1084.1716 C514.6336,1083.4885 514.6336,1082.3802 513.95,1081.6971 L508.186,1075.932 " fill="#FE0000" style="stroke:;stroke-width:0;stroke-dasharray:;"/><path d="M347.3242,1048 L357.3242,1048 C372.3242,1048 372.3242,1076.8047 387.3242,1076.8047 L397.3242,1076.8047 " fill="none" style="stroke:#181818;stroke-width:1;"/><rect fill="#F1F1F1" height="42.75" rx="12.5" ry="12.5" style="stroke:#181818;stroke-width:1.5;" width="226.8896" x="397.3242" y="1118.1797"/><text fill="#000000" font-family="sans-serif" font-size="14" lengthAdjust="spacing" textLength="182" x="407.3242" y="1147.8535">&#22914;&#26524;&#26159;&#27515;&#32531;&#29359;&#65292;&#21487;&#20197;&#38480;&#21046;&#20943;&#21009;</text><path d="M606.186,1138.682 L611.9511,1132.9169 C612.6348,1132.2339 612.6348,1131.1255 611.9511,1130.4419 C611.2675,1129.7588 610.1603,1129.7588 609.4766,1130.4419 L603.7115,1136.2069 L597.9465,1130.4424 C597.2634,1129.7588 596.155,1129.7588 595.4714,1130.4424 C594.7883,1131.1255 594.7883,1132.2339 595.4714,1132.9175 L601.2365,1138.682 L595.4574,1144.4611 C594.7743,1145.1442 594.7743,1146.2525 595.4574,1146.9356 C595.7986,1147.2774 596.2472,1147.4484 596.6946,1147.4484 C597.142,1147.4484 597.5906,1147.2774 597.9325,1146.9356 L603.711,1141.1571 L609.4755,1146.9216 C609.8173,1147.2634 610.2653,1147.4344 610.7127,1147.4344 C611.1601,1147.4344 611.6081,1147.2634 611.95,1146.9216 C612.6336,1146.2385 612.6336,1145.1302 611.95,1144.4471 L606.186,1138.682 " fill="#FE0000" style="stroke:;stroke-width:0;stroke-dasharray:;"/><path d="M347.3242,1048 L357.3242,1048 C372.3242,1048 372.3242,1139.5547 387.3242,1139.5547 L397.3242,1139.5547 " fill="none" style="stroke:#181818;stroke-width:1;"/><path d="M179.3242,609.7695 L189.3242,609.7695 C204.3242,609.7695 204.3242,1048 219.3242,1048 L229.3242,1048 " fill="none" style="stroke:#181818;stroke-width:1;"/><!--SRC=[xLXTJzjM6BxthpXJRw1ImeSOGWWXIWhQgb9LW_OM7PpJnCNsYPoJTD4q2HWi2H02NLaBe-lG6A2j2w9bh11WFwOvTdB5NzXhEm67nh7HRdO1Yb1yplC-x_TvVJ8GPrXZYgI65HmJXCyaLPGJOOA2mJRx4sSfcRJ5PAooX287J6G0e05hFIZ1cY0mYSa4ySoASRfUBXm7x6_6-cpvr-bAEXym3lQC-Jr1kEsDGV1t6-cPPUEF1VtrPgbuQ2tPowKFK-NCMnk9-lg84elYk1Jlxx_0r735yixC5V7BRNrrJf_DDzfOUbvPsoh_a-PR-wZlbaR2lL62awbn9I4pAIPB8cOILSU_xkt_HBgg-Mo1Ry-SdopQ9ENqGUduMF-pM3hUD4v_XtMUsUhaHmVwHbRVUCFFdaCOFaxDNB4V09MpMLVx-T_lzE9cHmz_DtrLCBF2ZxVT7NTeBHL_AtsOX_ZRYQXpLumISN9SmTfa0qVDyERuufo-y5PVUCLFZwuRAGU1KTZacSF_G51Pc-Nplu0Br-60GBmyhBmyS8tJvv00_lsSIuxvyXBaakTNZ1TlIiTBF9k3nuROYwH0WFNiJdbpaHSMzRrLLx0jO9pyS4sF6YYTJbVIy_wpUYbP_ckRp-My9S7Ex95UcF__jIDudytPMJ9sSiP-iL4FvVPvuJt_wPGN3daXo-Ts6oKHR9XUrgT-r0-AVDu5KIck65jdfPDrVMgdVB0B7MKKuPEkeO7Z_Ie_MpW_oV3N-VEJB5Yc_xpXFDQAIvLqZc_DMdtOA8vMnPU_EwrCpHWlTgzN7_Mo3UgYgIoSPc2i_ceF3Z7G2vas3x7y7XmVbRLbQ5wUplimHXWWC65gKsQWVkZqMREaNwWkt9LmHCCA-WRC24x82M9zGsWGYvCHZIRKS8ZAL4Eo58aoSnzslpMnOIXGiC85NjsjWICQ8MepPWlWGASymAaQbcfOZRWPRM_MeB645fFTeFPc3UhkcCCfZSRTs6uD3myEXa8rP8h8CdtcWhKtBQWGh9MZTwoSw7ONU7moPQNCYUri7YidT12Mn2ZKfIzZf8XADU8ZRmZTbrHoTVsImgVQfbGccQfIaQZCBJQg5NI4XgdAxAK96J1NMA4vghQf3CYWnR0SqYIbvkWbab45CzeG-r0ZCQnP3NeTiJiJL6DULUENYp58A_Dg59zi8Qf0jp2tR5SbtUZCxAWa0Wa3KcSmcnqwNeaA4n9prdkzWY4u12TaAHvrFx4SylNQdaKbTZKsBceUKEQjoV9AJ67LXrSY3XDseGoBeXHsB-cwazIB-GbqMjpHll0iaX7yb2GycfZAO896muuAz6YXceIb9qRZ4fEIv8xeQ8TFJcCi4x-ENBe0kS2Ur8e40z0ykltKL7MAcUJnnCHJ8fhqRj71IHYxHFF9cvGeT915JRsOpRZx3lVbGLxVkCrxjQwMFKU40F_wsgfl4ZStqfiRwSsDzEP6UdCZlRcH-hgHFZH_ttmqSXybYHOt9tL7iBEziolOqpAA6Nf0awYZ6xLtz7PrzNPrez3e63AtMuMMaI_7K9mcu4K5XM6CQz94mbJHAjp3IOo-Ii2aKqWlCfzQnaPQqUXGRH4DgKb9ewe2qqsuztZ41g4lA1kDKMQ1kxi2Wn93eqG3iz3Z4U4kUOB15H0LQLXI8xteqTXme4Uu3rCmWIEW2DuxGZ0UcPQ2lT5_0G00]--></g></svg>