<svg xmlns="http://www.w3.org/2000/svg" xmlns:xlink="http://www.w3.org/1999/xlink" contentStyleType="text/css" height="699px" preserveAspectRatio="none" style="width:596px;height:699px;background:#FFFFFF;" version="1.1" viewBox="0 0 596 699" width="596px" zoomAndPan="magnify"><title>&#21009;&#32602;&#35770;-&#21009;&#32602;&#30340;&#35009;&#37327;</title><defs/><g><text fill="#000000" font-family="sans-serif" font-size="14" font-weight="bold" lengthAdjust="spacing" textLength="120.1621" x="236.6948" y="34.5332">&#21009;&#32602;&#35770;-&#21009;&#32602;&#30340;&#35009;&#37327;</text><rect fill="#F1F1F1" height="37.6094" rx="12.5" ry="12.5" style="stroke:#181818;stroke-width:1.5;" width="136.6621" x="10" y="349.2266"/><text fill="#000000" font-family="sans-serif" font-size="14" lengthAdjust="spacing" textLength="116.6621" x="20" y="373.7598">&#21009;&#32602;&#35770;-&#21009;&#32602;&#30340;&#35009;&#37327;</text><rect fill="#F1F1F1" height="37.6094" rx="12.5" ry="12.5" style="stroke:#181818;stroke-width:1.5;" width="76" x="196.6621" y="289.0469"/><text fill="#000000" font-family="sans-serif" font-size="14" lengthAdjust="spacing" textLength="56" x="206.6621" y="313.5801">&#37327;&#21009;&#24773;&#33410;</text><rect fill="#F1F1F1" height="37.6094" rx="12.5" ry="12.5" style="stroke:#181818;stroke-width:1.5;" width="48" x="322.6621" y="173.8281"/><text fill="#000000" font-family="sans-serif" font-size="14" lengthAdjust="spacing" textLength="28" x="332.6621" y="198.3613">&#20998;&#31867;</text><rect fill="#90EE90" height="37.6094" rx="12.5" ry="12.5" style="stroke:#181818;stroke-width:1.5;" width="79.8896" x="420.6621" y="58.6094"/><text fill="#000000" font-family="sans-serif" font-size="14" lengthAdjust="spacing" textLength="56" x="430.6621" y="83.1426">&#21152;&#37325;&#22788;&#32602;</text><path d="M370.6621,192.6328 L380.6621,192.6328 C395.6621,192.6328 395.6621,77.4141 410.6621,77.4141 L420.6621,77.4141 " fill="none" style="stroke:#181818;stroke-width:1;"/><rect fill="#90EE90" height="37.6094" rx="12.5" ry="12.5" style="stroke:#181818;stroke-width:1.5;" width="79.8896" x="420.6621" y="116.2188"/><text fill="#000000" font-family="sans-serif" font-size="14" lengthAdjust="spacing" textLength="56" x="430.6621" y="140.752">&#20174;&#37325;&#22788;&#32602;</text><path d="M370.6621,192.6328 L380.6621,192.6328 C395.6621,192.6328 395.6621,135.0234 410.6621,135.0234 L420.6621,135.0234 " fill="none" style="stroke:#181818;stroke-width:1;"/><rect fill="#90EE90" height="37.6094" rx="12.5" ry="12.5" style="stroke:#181818;stroke-width:1.5;" width="79.8896" x="420.6621" y="173.8281"/><text fill="#000000" font-family="sans-serif" font-size="14" lengthAdjust="spacing" textLength="56" x="430.6621" y="198.3613">&#20174;&#36731;&#22788;&#32602;</text><path d="M370.6621,192.6328 L380.6621,192.6328 C395.6621,192.6328 395.6621,192.6328 410.6621,192.6328 L420.6621,192.6328 " fill="none" style="stroke:#181818;stroke-width:1;"/><rect fill="#90EE90" height="37.6094" rx="12.5" ry="12.5" style="stroke:#181818;stroke-width:1.5;" width="79.8896" x="420.6621" y="231.4375"/><text fill="#000000" font-family="sans-serif" font-size="14" lengthAdjust="spacing" textLength="56" x="430.6621" y="255.9707">&#20943;&#36731;&#22788;&#32602;</text><path d="M370.6621,192.6328 L380.6621,192.6328 C395.6621,192.6328 395.6621,250.2422 410.6621,250.2422 L420.6621,250.2422 " fill="none" style="stroke:#181818;stroke-width:1;"/><rect fill="#90EE90" height="37.6094" rx="12.5" ry="12.5" style="stroke:#181818;stroke-width:1.5;" width="79.8896" x="420.6621" y="289.0469"/><text fill="#000000" font-family="sans-serif" font-size="14" lengthAdjust="spacing" textLength="56" x="430.6621" y="313.5801">&#20813;&#38500;&#22788;&#32602;</text><path d="M370.6621,192.6328 L380.6621,192.6328 C395.6621,192.6328 395.6621,307.8516 410.6621,307.8516 L420.6621,307.8516 " fill="none" style="stroke:#181818;stroke-width:1;"/><path d="M272.6621,307.8516 L282.6621,307.8516 C297.6621,307.8516 297.6621,192.6328 312.6621,192.6328 L322.6621,192.6328 " fill="none" style="stroke:#181818;stroke-width:1;"/><rect fill="#F1F1F1" height="37.6094" rx="12.5" ry="12.5" style="stroke:#181818;stroke-width:1.5;" width="34" x="322.6621" y="375.4609"/><text fill="#000000" font-family="sans-serif" font-size="14" lengthAdjust="spacing" textLength="14" x="332.6621" y="399.9941">&#37325;</text><rect fill="#90EE90" height="37.6094" rx="12.5" ry="12.5" style="stroke:#181818;stroke-width:1.5;" width="51.8896" x="406.6621" y="375.4609"/><text fill="#000000" font-family="sans-serif" font-size="14" lengthAdjust="spacing" textLength="28" x="416.6621" y="399.9941">&#32047;&#29359;</text><rect fill="#F1F1F1" height="37.6094" rx="12.5" ry="12.5" style="stroke:#181818;stroke-width:1.5;" width="76" x="508.5518" y="346.6563"/><text fill="#000000" font-family="sans-serif" font-size="14" lengthAdjust="spacing" textLength="56" x="518.5518" y="371.1895">&#19968;&#33324;&#32047;&#29359;</text><path d="M458.5518,394.2656 L468.5518,394.2656 C483.5518,394.2656 483.5518,365.4609 498.5518,365.4609 L508.5518,365.4609 " fill="none" style="stroke:#181818;stroke-width:1;"/><rect fill="#F1F1F1" height="37.6094" rx="12.5" ry="12.5" style="stroke:#181818;stroke-width:1.5;" width="76" x="508.5518" y="404.2656"/><text fill="#000000" font-family="sans-serif" font-size="14" lengthAdjust="spacing" textLength="56" x="518.5518" y="428.7988">&#29305;&#27530;&#32047;&#29359;</text><path d="M458.5518,394.2656 L468.5518,394.2656 C483.5518,394.2656 483.5518,423.0703 498.5518,423.0703 L508.5518,423.0703 " fill="none" style="stroke:#181818;stroke-width:1;"/><path d="M356.6621,394.2656 L366.6621,394.2656 C381.6621,394.2656 381.6621,394.2656 396.6621,394.2656 L406.6621,394.2656 " fill="none" style="stroke:#181818;stroke-width:1;"/><path d="M272.6621,307.8516 L282.6621,307.8516 C297.6621,307.8516 297.6621,394.2656 312.6621,394.2656 L322.6621,394.2656 " fill="none" style="stroke:#181818;stroke-width:1;"/><rect fill="#F1F1F1" height="37.6094" rx="12.5" ry="12.5" style="stroke:#181818;stroke-width:1.5;" width="34" x="322.6621" y="490.6797"/><text fill="#000000" font-family="sans-serif" font-size="14" lengthAdjust="spacing" textLength="14" x="332.6621" y="515.2129">&#36731;</text><rect fill="#90EE90" height="37.6094" rx="12.5" ry="12.5" style="stroke:#181818;stroke-width:1.5;" width="51.8896" x="406.6621" y="461.875"/><text fill="#000000" font-family="sans-serif" font-size="14" lengthAdjust="spacing" textLength="28" x="416.6621" y="486.4082">&#33258;&#39318;</text><path d="M356.6621,509.4844 L366.6621,509.4844 C381.6621,509.4844 381.6621,480.6797 396.6621,480.6797 L406.6621,480.6797 " fill="none" style="stroke:#181818;stroke-width:1;"/><rect fill="#90EE90" height="37.6094" rx="12.5" ry="12.5" style="stroke:#181818;stroke-width:1.5;" width="51.8896" x="406.6621" y="519.4844"/><text fill="#000000" font-family="sans-serif" font-size="14" lengthAdjust="spacing" textLength="28" x="416.6621" y="544.0176">&#31435;&#21151;</text><path d="M356.6621,509.4844 L366.6621,509.4844 C381.6621,509.4844 381.6621,538.2891 396.6621,538.2891 L406.6621,538.2891 " fill="none" style="stroke:#181818;stroke-width:1;"/><path d="M272.6621,307.8516 L282.6621,307.8516 C297.6621,307.8516 297.6621,509.4844 312.6621,509.4844 L322.6621,509.4844 " fill="none" style="stroke:#181818;stroke-width:1;"/><path d="M146.6621,368.0313 L156.6621,368.0313 C171.6621,368.0313 171.6621,307.8516 186.6621,307.8516 L196.6621,307.8516 " fill="none" style="stroke:#181818;stroke-width:1;"/><rect fill="#F1F1F1" height="37.6094" rx="12.5" ry="12.5" style="stroke:#181818;stroke-width:1.5;" width="34" x="196.6621" y="608.4688"/><text fill="#000000" font-family="sans-serif" font-size="14" lengthAdjust="spacing" textLength="14" x="206.6621" y="633.002">&#32602;</text><rect fill="#90EE90" height="37.6094" rx="12.5" ry="12.5" style="stroke:#181818;stroke-width:1.5;" width="79.8896" x="280.6621" y="577.0938"/><text fill="#000000" font-family="sans-serif" font-size="14" lengthAdjust="spacing" textLength="56" x="290.6621" y="601.627">&#25968;&#32618;&#24182;&#32602;</text><path d="M230.6621,627.2734 L240.6621,627.2734 C255.6621,627.2734 255.6621,595.8984 270.6621,595.8984 L280.6621,595.8984 " fill="none" style="stroke:#181818;stroke-width:1;"/><rect fill="#90EE90" height="37.6094" rx="12.5" ry="12.5" style="stroke:#181818;stroke-width:1.5;" width="51.8896" x="280.6621" y="637.2734"/><text fill="#000000" font-family="sans-serif" font-size="14" lengthAdjust="spacing" textLength="28" x="290.6621" y="661.8066">&#32531;&#21009;</text><rect fill="#F1F1F1" height="42.75" rx="12.5" ry="12.5" style="stroke:#181818;stroke-width:1.5;" width="72.8896" x="382.5518" y="634.7031"/><text fill="#000000" font-family="sans-serif" font-size="14" lengthAdjust="spacing" textLength="28" x="392.5518" y="664.377">&#25764;&#38144;</text><path d="M432.0247,664.5365 C432.0247,665.7031 432.0247,665.7031 430.8581,665.7031 C429.6914,665.7031 429.6914,664.5365 429.6914,664.5365 L429.6914,645.8698 C429.6914,644.7031 429.6914,644.7031 430.8581,644.7031 C432.0247,644.7031 432.0247,645.8698 432.0247,645.8698 L432.0247,664.5365 " fill="#66757F" style="stroke:;stroke-width:0;stroke-dasharray:;"/><path d="M430.8581,647.0365 C430.8581,645.7531 431.8124,645.1406 432.9791,645.6755 L442.7365,650.148 C443.9032,650.6829 443.9032,651.5579 442.7365,652.0922 L432.9791,656.5646 C431.8124,657.099 430.8581,656.4865 430.8581,655.2031 L430.8581,647.0365 " fill="#DD2E44" style="stroke:;stroke-width:0;stroke-dasharray:;"/><path d="M332.5518,656.0781 L342.5518,656.0781 C357.5518,656.0781 357.5518,656.0781 372.5518,656.0781 L382.5518,656.0781 " fill="none" style="stroke:#181818;stroke-width:1;"/><path d="M230.6621,627.2734 L240.6621,627.2734 C255.6621,627.2734 255.6621,656.0781 270.6621,656.0781 L280.6621,656.0781 " fill="none" style="stroke:#181818;stroke-width:1;"/><path d="M146.6621,368.0313 L156.6621,368.0313 C171.6621,368.0313 171.6621,627.2734 186.6621,627.2734 L196.6621,627.2734 " fill="none" style="stroke:#181818;stroke-width:1;"/><!--SRC=[xLTRRnD757xVNp4LBqaaEoIo8cHPKR1912X620TUe_7kP3raTcOrEsjaLKYqN1AC0W9Q9F824X4Fj89MgghIDF-cpjh_WZExNh9ss0ilF65PrkuvttndpdN6Avx2KZcKMmvs3UC7oatcMmILo_FHrrCzHkPTXhdo7LRIo190Iw6yJ45c68egHj1Wzsbmj3zy_syfUWhsxmtV_3JQUM8OSnbA19yv14-WEBvxVzZ_EHH5ui7kW-3Fmy-2iR3_UhIpDpYu1poeLYEEsy4UzPQNft3_7pukYXiU7URZ1ZjFYk7kxurU7cJXjBzxKwk2lpu4_G_flEEz_dDdkFjxXFs2EdZuyVXzVqezXs3RKzQ6E-z6RrzaUH7yzcZGVtKQ0PgZ_GJtyQz_14Vl1X__pl0s-EyvP3VBsl6pWz4lTr2jgYJ5tFOPbfjR3DkRWc-wmbFLPSDO8L2bSQMkJ1PkBQp7PMCik42nBR63VWGpvJRpIVY4K1sRsxOKFhSQWWc96BKxIkj1UrjZBIot9R5Iu6Dj3BOb8JoBEGGaqBqSS2_62Wb1IDjqf8oXhYzTbWQDb34qtR64Kr9uQMndrjRgzKOZHlO8O-9M2ZPIXb2Z7ASzFrP9z6As_qbe7KHc1-gea05gSo59WLmWj4uvcPQVK1GqcqcboJWN9k4gXSRZOI0HMXDSHQ8s0ymKAnJyU6zS0HaL7BE6f4xiw0bI2GShyKNiLKbSBB6MVCsoysqXLLub5ELI2jAgyeg_85j3ED01AYtRuvLfT3exdDYGC21D1ZDhaEGboYB4zRPx8VhsAGEhCDZQZ7gTz2cKM3zfxLQ7gkdOf9Yv8bI-fT0hiuTv0QzCR17rsHWsJMgbb_J4TCnZte9EynBj2-ycQUARnCzfOi5W2r9OYGhCQQ5uHMW7pXsgQ9USDnFjS6h2OaQAEdBY0kG2vr8x50urFOwBrDJuPDBadj- -IKnDdnOTt8MZbCY2l5qge8D2Qf77hEDUEDmdWtooSRDxTQAMSuy80tvgy-FRmVURwlURwZU_gLxL_vskDzTHbqXFT_j2UV7iOgLyRgQ55ReYkcXX2PrTg5OgrSeIQhGsa5RF6ZFDInl84puCEsJ1A92qxUl-c3Kkuov6rtpe5eTKaNwRsMZEejPgB4Ihl4kbu0vqY77vHZC2eOj2jLoXGl1IfLId2hM8X6sX6qtZ0jd2FbEmr1GMvNOLNTzOAvqprhMJs0P3CBiQq69Aza3N-WG0]--></g></svg>