<svg xmlns="http://www.w3.org/2000/svg" xmlns:xlink="http://www.w3.org/1999/xlink" contentStyleType="text/css" height="463px" preserveAspectRatio="none" style="width:620px;height:463px;background:#FFFFFF;" version="1.1" viewBox="0 0 620 463" width="620px" zoomAndPan="magnify"><title>&#34892;&#20026;-&#20998;&#31867;</title><defs/><g><text fill="#000000" font-family="sans-serif" font-size="14" font-weight="bold" lengthAdjust="spacing" textLength="62.4121" x="277.625" y="34.5332">&#34892;&#20026;-&#20998;&#31867;</text><rect fill="#F1F1F1" height="37.6094" rx="12.5" ry="12.5" style="stroke:#181818;stroke-width:1.5;" width="80.6621" x="10" y="231.4375"/><text fill="#000000" font-family="sans-serif" font-size="14" lengthAdjust="spacing" textLength="60.6621" x="20" y="255.9707">&#34892;&#20026;-&#20998;&#31867;</text><rect fill="#F1F1F1" height="37.6094" rx="12.5" ry="12.5" style="stroke:#181818;stroke-width:1.5;" width="62" x="140.6621" y="116.2188"/><text fill="#000000" font-family="sans-serif" font-size="14" lengthAdjust="spacing" textLength="42" x="150.6621" y="140.752">&#21361;&#23475;&#24615;</text><rect fill="#90EE90" height="37.6094" rx="12.5" ry="12.5" style="stroke:#181818;stroke-width:1.5;" width="90" x="252.6621" y="87.4141"/><text fill="#000000" font-family="sans-serif" font-size="14" lengthAdjust="spacing" textLength="70" x="262.6621" y="111.9473">&#26080;&#21361;&#23475;&#34892;&#20026;</text><rect fill="#F1F1F1" height="37.6094" rx="12.5" ry="12.5" style="stroke:#181818;stroke-width:1.5;" width="76" x="392.6621" y="58.6094"/><text fill="#000000" font-family="sans-serif" font-size="14" lengthAdjust="spacing" textLength="56" x="402.6621" y="83.1426">&#29983;&#27963;&#34892;&#20026;</text><path d="M342.6621,106.2188 L352.6621,106.2188 C367.6621,106.2188 367.6621,77.4141 382.6621,77.4141 L392.6621,77.4141 " fill="none" style="stroke:#181818;stroke-width:1;"/><rect fill="#F1F1F1" height="37.6094" rx="12.5" ry="12.5" style="stroke:#181818;stroke-width:1.5;" width="76" x="392.6621" y="116.2188"/><text fill="#000000" font-family="sans-serif" font-size="14" lengthAdjust="spacing" textLength="56" x="402.6621" y="140.752">&#38477;&#20302;&#21361;&#38505;</text><path d="M342.6621,106.2188 L352.6621,106.2188 C367.6621,106.2188 367.6621,135.0234 382.6621,135.0234 L392.6621,135.0234 " fill="none" style="stroke:#181818;stroke-width:1;"/><path d="M202.6621,135.0234 L212.6621,135.0234 C227.6621,135.0234 227.6621,106.2188 242.6621,106.2188 L252.6621,106.2188 " fill="none" style="stroke:#181818;stroke-width:1;"/><rect fill="#90EE90" height="37.6094" rx="12.5" ry="12.5" style="stroke:#181818;stroke-width:1.5;" width="76" x="252.6621" y="173.8281"/><text fill="#000000" font-family="sans-serif" font-size="14" lengthAdjust="spacing" textLength="56" x="262.6621" y="198.3613">&#21361;&#23475;&#34892;&#20026;</text><rect fill="#F1F1F1" height="37.6094" rx="12.5" ry="12.5" style="stroke:#181818;stroke-width:1.5;" width="76" x="378.6621" y="173.8281"/><text fill="#000000" font-family="sans-serif" font-size="14" lengthAdjust="spacing" textLength="56" x="388.6621" y="198.3613">&#26367;&#20195;&#39118;&#38505;</text><path d="M328.6621,192.6328 L338.6621,192.6328 C353.6621,192.6328 353.6621,192.6328 368.6621,192.6328 L378.6621,192.6328 " fill="none" style="stroke:#181818;stroke-width:1;"/><path d="M202.6621,135.0234 L212.6621,135.0234 C227.6621,135.0234 227.6621,192.6328 242.6621,192.6328 L252.6621,192.6328 " fill="none" style="stroke:#181818;stroke-width:1;"/><path d="M90.6621,250.2422 L100.6621,250.2422 C115.6621,250.2422 115.6621,135.0234 130.6621,135.0234 L140.6621,135.0234 " fill="none" style="stroke:#181818;stroke-width:1;"/><rect fill="#F1F1F1" height="37.6094" rx="12.5" ry="12.5" style="stroke:#181818;stroke-width:1.5;" width="48" x="140.6621" y="317.8516"/><text fill="#000000" font-family="sans-serif" font-size="14" lengthAdjust="spacing" textLength="28" x="150.6621" y="342.3848">&#22806;&#26174;</text><rect fill="#90EE90" height="37.6094" rx="12.5" ry="12.5" style="stroke:#181818;stroke-width:1.5;" width="48" x="238.6621" y="260.2422"/><text fill="#000000" font-family="sans-serif" font-size="14" lengthAdjust="spacing" textLength="28" x="248.6621" y="284.7754">&#20316;&#20026;</text><rect fill="#F1F1F1" height="37.6094" rx="12.5" ry="12.5" style="stroke:#181818;stroke-width:1.5;" width="76" x="336.6621" y="260.2422"/><text fill="#000000" font-family="sans-serif" font-size="14" lengthAdjust="spacing" textLength="56" x="346.6621" y="284.7754">&#21028;&#26029;&#26631;&#20934;</text><rect fill="#F1F1F1" height="37.6094" rx="12.5" ry="12.5" style="stroke:#181818;stroke-width:1.5;" width="104" x="462.6621" y="231.4375"/><text fill="#000000" font-family="sans-serif" font-size="14" lengthAdjust="spacing" textLength="84" x="472.6621" y="255.9707">&#31215;&#26497;&#21046;&#36896;&#21361;&#38505;</text><path d="M412.6621,279.0469 L422.6621,279.0469 C437.6621,279.0469 437.6621,250.2422 452.6621,250.2422 L462.6621,250.2422 " fill="none" style="stroke:#181818;stroke-width:1;"/><rect fill="#F1F1F1" height="37.6094" rx="12.5" ry="12.5" style="stroke:#181818;stroke-width:1.5;" width="146" x="462.6621" y="289.0469"/><text fill="#000000" font-family="sans-serif" font-size="14" lengthAdjust="spacing" textLength="126" x="472.6621" y="313.5801">&#35813;&#21361;&#38505;&#23548;&#33268;&#23454;&#23475;&#32467;&#26524;</text><path d="M412.6621,279.0469 L422.6621,279.0469 C437.6621,279.0469 437.6621,307.8516 452.6621,307.8516 L462.6621,307.8516 " fill="none" style="stroke:#181818;stroke-width:1;"/><path d="M286.6621,279.0469 L296.6621,279.0469 C311.6621,279.0469 311.6621,279.0469 326.6621,279.0469 L336.6621,279.0469 " fill="none" style="stroke:#181818;stroke-width:1;"/><path d="M188.6621,336.6563 L198.6621,336.6563 C213.6621,336.6563 213.6621,279.0469 228.6621,279.0469 L238.6621,279.0469 " fill="none" style="stroke:#181818;stroke-width:1;"/><rect fill="#90EE90" height="37.6094" rx="12.5" ry="12.5" style="stroke:#181818;stroke-width:1.5;" width="62" x="238.6621" y="346.6563"/><text fill="#000000" font-family="sans-serif" font-size="14" lengthAdjust="spacing" textLength="42" x="248.6621" y="371.1895">&#19981;&#20316;&#20026;</text><rect fill="#F1F1F1" height="37.6094" rx="12.5" ry="12.5" style="stroke:#181818;stroke-width:1.5;" width="76" x="350.6621" y="346.6563"/><text fill="#000000" font-family="sans-serif" font-size="14" lengthAdjust="spacing" textLength="56" x="360.6621" y="371.1895">&#21028;&#26029;&#26631;&#20934;</text><rect fill="#F1F1F1" height="37.6094" rx="12.5" ry="12.5" style="stroke:#181818;stroke-width:1.5;" width="118" x="476.6621" y="346.6563"/><text fill="#000000" font-family="sans-serif" font-size="14" lengthAdjust="spacing" textLength="98" x="486.6621" y="371.1895">&#26377;&#20041;&#21153;&#65292;&#20294;&#19981;&#20570;</text><path d="M426.6621,365.4609 L436.6621,365.4609 C451.6621,365.4609 451.6621,365.4609 466.6621,365.4609 L476.6621,365.4609 " fill="none" style="stroke:#181818;stroke-width:1;"/><path d="M300.6621,365.4609 L310.6621,365.4609 C325.6621,365.4609 325.6621,365.4609 340.6621,365.4609 L350.6621,365.4609 " fill="none" style="stroke:#181818;stroke-width:1;"/><path d="M188.6621,336.6563 L198.6621,336.6563 C213.6621,336.6563 213.6621,365.4609 228.6621,365.4609 L238.6621,365.4609 " fill="none" style="stroke:#181818;stroke-width:1;"/><rect fill="#FFA500" height="37.6094" rx="12.5" ry="12.5" style="stroke:#181818;stroke-width:1.5;" width="48" x="238.6621" y="404.2656"/><text fill="#000000" font-family="sans-serif" font-size="14" lengthAdjust="spacing" textLength="28" x="248.6621" y="428.7988">&#31454;&#21512;</text><rect fill="#F1F1F1" height="37.6094" rx="12.5" ry="12.5" style="stroke:#181818;stroke-width:1.5;" width="160" x="336.6621" y="404.2656"/><text fill="#000000" font-family="sans-serif" font-size="14" lengthAdjust="spacing" textLength="140" x="346.6621" y="428.7988">&#20316;&#20026;&#21644;&#19981;&#20316;&#20026;&#21487;&#20197;&#31454;&#21512;</text><path d="M286.6621,423.0703 L296.6621,423.0703 C311.6621,423.0703 311.6621,423.0703 326.6621,423.0703 L336.6621,423.0703 " fill="none" style="stroke:#181818;stroke-width:1;"/><path d="M188.6621,336.6563 L198.6621,336.6563 C213.6621,336.6563 213.6621,423.0703 228.6621,423.0703 L238.6621,423.0703 " fill="none" style="stroke:#181818;stroke-width:1;"/><path d="M90.6621,250.2422 L100.6621,250.2422 C115.6621,250.2422 115.6621,336.6563 130.6621,336.6563 L140.6621,336.6563 " fill="none" style="stroke:#181818;stroke-width:1;"/><!--SRC=[xLTRRnD757xVNp4LBmcIdOki24K81Pj4BOeHgWClY8Vnxh0UCZkpcfqrigfAy9A4Ag5LMr4kKGW2X10g4IggA2RqptWtoLF_Gi_kUkErORmBprYHvJtdEz-vp3bdDWkUmb8vb5iETWtZ6yfDvbi4bSjJsJzFTHYPSXdcodTOASANmA0KoyiKP8QXg6847JxUxBrzLmesrWvUTmtZv8W0mUSa2hPU1w_-2cy-ZvzZsPKJZDejPKj2-5KK_h6RO1BhOrXYVl3xe_1DzvEge_jRlVqxO7jq_uMEV0np-F3VNlV9qPCxgJd4-lHkUE-3Zgktl_qnIx3nDBpxPxYx7gol3QdwuJ_V2tTk1Hj_7ztS7Obq03hSUvReWhttX-jlWbSx4FD1zxTmPriRozkjBmadtBxT- -TsyDFZ_zvlzlRNW2MuzI3hGqZCRN8L7RpS2NxP625FF0Q_RXvx3txUwtMVzS760e7MIjjhORZRJiVjSyRe2yvHR4lie1_0HRd9V1B_GgYApLLR2fzRDS64H77EaHwqFqPO2yjLIImDlAzDmN6nnZ77W0owamFkfDYaJXfqeaoXhYzTfeCcoXIgJooJb1IUZkt4qbArMgkbo0vXJDpGO1Db33NAn75RsADUVgsow6aDt5ljn4UMnSwEhrKMMWMHsO9-AnGCjRcGfC2v8RHCEHcL3oWAkXrB5P5nBap2bQusF2uwGak2gqJKP80POONXwCV65P1HmJ6hIUgaYGwGIZXOYKzYBqhYOeaZoUUOdMqAgVAwfYYNKd2iAczG2hBLX0FJedIdtRVKqKMdmuaD1mQasMAEMpfv1sKHucRxVTZ18Yp19gDUIx-nClR3tcwqg1gjZSRD1Q7oFSLPcHtC2sHbOekeOsVODAcbR-cXJPh7V0qcpSkCBpoRf8wl4pzdY0M34AImCXsOCqAfHUp75HvLj4tEcfbn-6WROqQA9Z980Su2vr8x52x0Q7KNwQd-BHQHUtxpEZ4ZUbrrS1kkNI8ByhQfW0cAgKKUSrJtmkKUBFBXmHq_gqEzd7j56F1rUgh_9l7r9VJhIsZUI-Z5wB-OI_Lbr2RIYuPpfZmxFLifdvfeO8KkY3QQcKFJC_ELodnb3jKQAoXIJneJzUzMa2Tys4t8WicLjEb7xJnfdCTjZBxteRaTCe-YfucL-YHgBAP2jCZRL0hkG4CRvo_N4n3wLgY6ArGCdgkKgbIX1f4G5hfSDywHQzXd2anDOL5kpwDBAqkbKyOorC77DZY2LLE3YL2o0xh6_m00]--></g></svg>