<svg xmlns="http://www.w3.org/2000/svg" xmlns:xlink="http://www.w3.org/1999/xlink" contentStyleType="text/css" height="1311px" preserveAspectRatio="none" style="width:1211px;height:1311px;background:#FFFFFF;" version="1.1" viewBox="0 0 1211 1311" width="1211px" zoomAndPan="magnify"><title>&#34987;&#23475;&#20154;&#25215;&#35834;</title><defs/><g><text fill="#000000" font-family="sans-serif" font-size="14" font-weight="bold" lengthAdjust="spacing" textLength="72.1875" x="568.2959" y="34.5332">&#34987;&#23475;&#20154;&#25215;&#35834;</text><rect fill="#F1F1F1" height="37.6094" rx="12.5" ry="12.5" style="stroke:#181818;stroke-width:1.5;" width="90" x="10" y="655.0664"/><text fill="#000000" font-family="sans-serif" font-size="14" lengthAdjust="spacing" textLength="70" x="20" y="679.5996">&#34987;&#23475;&#20154;&#25215;&#35834;</text><rect fill="#F1F1F1" height="37.6094" rx="12.5" ry="12.5" style="stroke:#181818;stroke-width:1.5;" width="132" x="150" y="554.25"/><text fill="#000000" font-family="sans-serif" font-size="14" lengthAdjust="spacing" textLength="112" x="160" y="578.7832">&#29616;&#23454;&#30340;&#34987;&#23475;&#20154;&#25215;&#35834;</text><rect fill="#F1F1F1" height="37.6094" rx="12.5" ry="12.5" style="stroke:#181818;stroke-width:1.5;" width="48" x="332" y="212.9141"/><text fill="#000000" font-family="sans-serif" font-size="14" lengthAdjust="spacing" textLength="28" x="342" y="237.4473">&#20869;&#22312;</text><rect fill="#F1F1F1" height="37.6094" rx="12.5" ry="12.5" style="stroke:#181818;stroke-width:1.5;" width="90" x="430" y="92.5547"/><text fill="#000000" font-family="sans-serif" font-size="14" lengthAdjust="spacing" textLength="70" x="440" y="117.0879">&#25215;&#35834;&#30340;&#33021;&#21147;</text><rect fill="#F1F1F1" height="37.6094" rx="12.5" ry="12.5" style="stroke:#181818;stroke-width:1.5;" width="244" x="570" y="92.5547"/><text fill="#000000" font-family="sans-serif" font-size="14" lengthAdjust="spacing" textLength="224" x="580" y="117.0879">&#23545;&#25215;&#35834;&#20107;&#39033;&#30340;&#24847;&#20041;&#12289;&#33539;&#22260;&#26377;&#29702;&#35299;&#33021;&#21147;</text><rect fill="#F1F1F1" height="42.75" rx="12.5" ry="12.5" style="stroke:#181818;stroke-width:1.5;" width="72.8896" x="864" y="58.6094"/><text fill="#000000" font-family="sans-serif" font-size="14" lengthAdjust="spacing" textLength="28" x="874" y="88.2832">&#24188;&#20799;</text><path d="M918.8618,79.1117 L924.6269,73.3466 C925.3106,72.6635 925.3106,71.5552 924.6269,70.8715 C923.9432,70.1885 922.8361,70.1885 922.1524,70.8715 L916.3873,76.6366 L910.6222,70.8721 C909.9391,70.1885 908.8308,70.1885 908.1471,70.8721 C907.4641,71.5552 907.4641,72.6635 908.1471,73.3472 L913.9122,79.1117 L908.1331,84.8908 C907.4501,85.5739 907.4501,86.6822 908.1331,87.3653 C908.4744,87.7071 908.923,87.878 909.3704,87.878 C909.8178,87.878 910.2664,87.7071 910.6082,87.3653 L916.3867,81.5868 L922.1512,87.3513 C922.4931,87.6931 922.9411,87.864 923.3885,87.864 C923.8359,87.864 924.2839,87.6931 924.6257,87.3513 C925.3094,86.6682 925.3094,85.5599 924.6257,84.8768 L918.8618,79.1117 " fill="#FE0000" style="stroke:;stroke-width:0;stroke-dasharray:;"/><path d="M814,111.3594 L824,111.3594 C839,111.3594 839,79.9844 854,79.9844 L864,79.9844 " fill="none" style="stroke:#181818;stroke-width:1;"/><rect fill="#F1F1F1" height="42.75" rx="12.5" ry="12.5" style="stroke:#181818;stroke-width:1.5;" width="114.8896" x="864" y="121.3594"/><text fill="#000000" font-family="sans-serif" font-size="14" lengthAdjust="spacing" textLength="70" x="874" y="151.0332">&#31934;&#31070;&#30149;&#24739;&#32773;</text><path d="M960.8618,141.8617 L966.6269,136.0966 C967.3106,135.4135 967.3106,134.3052 966.6269,133.6215 C965.9432,132.9385 964.8361,132.9385 964.1524,133.6215 L958.3873,139.3866 L952.6222,133.6221 C951.9391,132.9385 950.8308,132.9385 950.1471,133.6221 C949.4641,134.3052 949.4641,135.4135 950.1471,136.0972 L955.9122,141.8617 L950.1331,147.6408 C949.4501,148.3239 949.4501,149.4322 950.1331,150.1153 C950.4744,150.4571 950.923,150.628 951.3704,150.628 C951.8178,150.628 952.2664,150.4571 952.6082,150.1153 L958.3867,144.3368 L964.1512,150.1013 C964.4931,150.4431 964.9411,150.614 965.3885,150.614 C965.8359,150.614 966.2839,150.4431 966.6257,150.1013 C967.3094,149.4182 967.3094,148.3099 966.6257,147.6268 L960.8618,141.8617 " fill="#FE0000" style="stroke:;stroke-width:0;stroke-dasharray:;"/><path d="M814,111.3594 L824,111.3594 C839,111.3594 839,142.7344 854,142.7344 L864,142.7344 " fill="none" style="stroke:#181818;stroke-width:1;"/><path d="M520,111.3594 L530,111.3594 C545,111.3594 545,111.3594 560,111.3594 L570,111.3594 " fill="none" style="stroke:#181818;stroke-width:1;"/><path d="M380,231.7188 L390,231.7188 C405,231.7188 405,111.3594 420,111.3594 L430,111.3594 " fill="none" style="stroke:#181818;stroke-width:1;"/><rect fill="#F1F1F1" height="37.6094" rx="12.5" ry="12.5" style="stroke:#181818;stroke-width:1.5;" width="90" x="430" y="275.6641"/><text fill="#000000" font-family="sans-serif" font-size="14" lengthAdjust="spacing" textLength="70" x="440" y="300.1973">&#25215;&#35834;&#30340;&#35748;&#35782;</text><rect fill="#F1F1F1" height="37.6094" rx="12.5" ry="12.5" style="stroke:#181818;stroke-width:1.5;" width="90" x="570" y="215.4844"/><text fill="#000000" font-family="sans-serif" font-size="14" lengthAdjust="spacing" textLength="70" x="580" y="240.0176">&#27491;&#30830;&#30340;&#35748;&#35782;</text><path d="M520,294.4688 L530,294.4688 C545,294.4688 545,234.2891 560,234.2891 L570,234.2891 " fill="none" style="stroke:#181818;stroke-width:1;"/><rect fill="#F1F1F1" height="42.75" rx="12.5" ry="12.5" style="stroke:#181818;stroke-width:1.5;" width="114.8896" x="570" y="273.0938"/><text fill="#000000" font-family="sans-serif" font-size="14" lengthAdjust="spacing" textLength="70" x="580" y="302.7676">&#38169;&#35823;&#30340;&#35748;&#35782;</text><path d="M663.8063,298.8438 C662.8397,298.8438 662.0563,298.0603 662.0563,297.0938 L662.0563,294.7604 C662.0563,293.7938 662.8397,293.0104 663.8063,293.0104 C664.1581,293.0069 667.3063,292.4271 667.3063,290.0938 C667.3063,288.9271 666.1396,287.7604 664.3896,287.7604 C662.9657,287.7604 662.0563,288.9271 662.0563,289.5104 C662.0563,290.477 661.2729,291.2604 660.3063,291.2604 C659.3397,291.2604 658.5563,290.477 658.5563,289.5104 C658.5563,286.6649 661.228,284.2604 664.3896,284.2604 C669.0563,284.2604 670.8063,287.7499 670.8063,290.6771 C670.8063,293.095 669.4781,294.943 667.0654,295.8804 C666.5404,296.0852 666.0212,296.2228 665.5563,296.3162 L665.5563,297.0938 C665.5563,298.0603 664.7729,298.8438 663.8063,298.8438 " fill="#FE0000" style="stroke:;stroke-width:0;stroke-dasharray:;"/><ellipse cx="663.8063" cy="301.7604" fill="#FE0000" rx="1.75" ry="1.75" style="stroke:#FE0000;stroke-width:1.5;"/><rect fill="#F1F1F1" height="37.6094" rx="12.5" ry="12.5" style="stroke:#181818;stroke-width:1.5;" width="90" x="734.8896" y="218.0547"/><text fill="#000000" font-family="sans-serif" font-size="14" lengthAdjust="spacing" textLength="70" x="744.8896" y="242.5879">&#20998;&#31867;&#65306;&#23618;&#27425;</text><rect fill="#F1F1F1" height="42.75" rx="12.5" ry="12.5" style="stroke:#181818;stroke-width:1.5;" width="184.8896" x="874.8896" y="184.1094"/><text fill="#000000" font-family="sans-serif" font-size="14" lengthAdjust="spacing" textLength="140" x="884.8896" y="213.7832">&#20107;&#23454;&#35748;&#35782;&#38169;&#35823;&#65288;&#24213;&#23618;&#65289;</text><path d="M1041.7515,204.6117 L1047.5165,198.8466 C1048.2002,198.1635 1048.2002,197.0552 1047.5165,196.3715 C1046.8329,195.6885 1045.7257,195.6885 1045.042,196.3715 L1039.277,202.1366 L1033.5119,196.3721 C1032.8288,195.6885 1031.7205,195.6885 1031.0368,196.3721 C1030.3537,197.0552 1030.3537,198.1635 1031.0368,198.8472 L1036.8019,204.6117 L1031.0228,210.3908 C1030.3397,211.0739 1030.3397,212.1822 1031.0228,212.8653 C1031.364,213.2071 1031.8126,213.378 1032.26,213.378 C1032.7075,213.378 1033.156,213.2071 1033.4979,212.8653 L1039.2764,207.0868 L1045.0409,212.8513 C1045.3827,213.1931 1045.8307,213.364 1046.2781,213.364 C1046.7255,213.364 1047.1735,213.1931 1047.5154,212.8513 C1048.199,212.1682 1048.199,211.0599 1047.5154,210.3768 L1041.7515,204.6117 " fill="#FE0000" style="stroke:;stroke-width:0;stroke-dasharray:;"/><path d="M824.8896,236.8594 L834.8896,236.8594 C849.8896,236.8594 849.8896,205.4844 864.8896,205.4844 L874.8896,205.4844 " fill="none" style="stroke:#181818;stroke-width:1;"/><rect fill="#F1F1F1" height="42.75" rx="12.5" ry="12.5" style="stroke:#181818;stroke-width:1.5;" width="156.8896" x="874.8896" y="246.8594"/><text fill="#000000" font-family="sans-serif" font-size="14" lengthAdjust="spacing" textLength="112" x="884.8896" y="276.5332">&#21160;&#26426;&#38169;&#35823;&#65288;&#31245;&#39640;&#65289;</text><path d="M1020.8804,257.6615 C1020.069,257.1353 1018.9857,257.3663 1018.4601,258.1771 L1008.6543,273.2919 L1003.8721,268.8702 C1003.1622,268.214 1002.0556,268.2571 1001.3994,268.967 C1000.7431,269.6764 1000.7863,270.7841 1001.4962,271.4398 L1007.7752,277.2451 C1007.9555,277.4003 1007.9555,277.4003 1008.0389,277.4545 C1008.3329,277.6459 1008.663,277.7369 1008.9897,277.7369 C1009.5625,277.7369 1010.1243,277.4557 1010.4597,276.9389 L1021.396,260.0817 C1021.9222,259.2709 1021.6912,258.187 1020.8804,257.6615 " fill="#FE0000" style="stroke:;stroke-width:0;stroke-dasharray:;"/><path d="M824.8896,236.8594 L834.8896,236.8594 C849.8896,236.8594 849.8896,268.2344 864.8896,268.2344 L874.8896,268.2344 " fill="none" style="stroke:#181818;stroke-width:1;"/><path d="M684.8896,294.4688 L694.8896,294.4688 C709.8896,294.4688 709.8896,236.8594 724.8896,236.8594 L734.8896,236.8594 " fill="none" style="stroke:#181818;stroke-width:1;"/><rect fill="#F1F1F1" height="37.6094" rx="12.5" ry="12.5" style="stroke:#181818;stroke-width:1.5;" width="90" x="734.8896" y="338.4141"/><text fill="#000000" font-family="sans-serif" font-size="14" lengthAdjust="spacing" textLength="70" x="744.8896" y="362.9473">&#20998;&#31867;&#65306;&#26469;&#28304;</text><rect fill="#F1F1F1" height="37.6094" rx="12.5" ry="12.5" style="stroke:#181818;stroke-width:1.5;" width="48" x="874.8896" y="309.6094"/><text fill="#000000" font-family="sans-serif" font-size="14" lengthAdjust="spacing" textLength="28" x="884.8896" y="334.1426">&#33258;&#24049;</text><path d="M824.8896,357.2188 L834.8896,357.2188 C849.8896,357.2188 849.8896,328.4141 864.8896,328.4141 L874.8896,328.4141 " fill="none" style="stroke:#181818;stroke-width:1;"/><rect fill="#F1F1F1" height="37.6094" rx="12.5" ry="12.5" style="stroke:#181818;stroke-width:1.5;" width="48" x="874.8896" y="367.2188"/><text fill="#000000" font-family="sans-serif" font-size="14" lengthAdjust="spacing" textLength="28" x="884.8896" y="391.752">&#21035;&#20154;</text><path d="M824.8896,357.2188 L834.8896,357.2188 C849.8896,357.2188 849.8896,386.0234 864.8896,386.0234 L874.8896,386.0234 " fill="none" style="stroke:#181818;stroke-width:1;"/><path d="M684.8896,294.4688 L694.8896,294.4688 C709.8896,294.4688 709.8896,357.2188 724.8896,357.2188 L734.8896,357.2188 " fill="none" style="stroke:#181818;stroke-width:1;"/><path d="M520,294.4688 L530,294.4688 C545,294.4688 545,294.4688 560,294.4688 L570,294.4688 " fill="none" style="stroke:#181818;stroke-width:1;"/><path d="M380,231.7188 L390,231.7188 C405,231.7188 405,294.4688 420,294.4688 L430,294.4688 " fill="none" style="stroke:#181818;stroke-width:1;"/><path d="M282,573.0547 L292,573.0547 C307,573.0547 307,231.7188 322,231.7188 L332,231.7188 " fill="none" style="stroke:#181818;stroke-width:1;"/><rect fill="#F1F1F1" height="37.6094" rx="12.5" ry="12.5" style="stroke:#181818;stroke-width:1.5;" width="48" x="332" y="737.3594"/><text fill="#000000" font-family="sans-serif" font-size="14" lengthAdjust="spacing" textLength="28" x="342" y="761.8926">&#22806;&#22312;</text><rect fill="#F1F1F1" height="37.6094" rx="12.5" ry="12.5" style="stroke:#181818;stroke-width:1.5;" width="76" x="430" y="474.4609"/><text fill="#000000" font-family="sans-serif" font-size="14" lengthAdjust="spacing" textLength="56" x="440" y="498.9941">&#25215;&#35834;&#29615;&#22659;</text><rect fill="#F1F1F1" height="42.75" rx="12.5" ry="12.5" style="stroke:#181818;stroke-width:1.5;" width="72.8896" x="556" y="424.8281"/><text fill="#000000" font-family="sans-serif" font-size="14" lengthAdjust="spacing" textLength="28" x="566" y="454.502">&#32961;&#36843;</text><path d="M610.8618,445.3305 L616.6269,439.5654 C617.3106,438.8823 617.3106,437.774 616.6269,437.0903 C615.9432,436.4072 614.8361,436.4072 614.1524,437.0903 L608.3873,442.8554 L602.6222,437.0909 C601.9391,436.4072 600.8308,436.4072 600.1471,437.0909 C599.4641,437.774 599.4641,438.8823 600.1471,439.566 L605.9122,445.3305 L600.1331,451.1095 C599.4501,451.7926 599.4501,452.901 600.1331,453.584 C600.4744,453.9259 600.923,454.0968 601.3704,454.0968 C601.8178,454.0968 602.2664,453.9259 602.6082,453.584 L608.3867,447.8055 L614.1512,453.57 C614.4931,453.9119 614.9411,454.0828 615.3885,454.0828 C615.8359,454.0828 616.2839,453.9119 616.6257,453.57 C617.3094,452.887 617.3094,451.7786 616.6257,451.0955 L610.8618,445.3305 " fill="#FE0000" style="stroke:;stroke-width:0;stroke-dasharray:;"/><path d="M506,493.2656 L516,493.2656 C531,493.2656 531,446.2031 546,446.2031 L556,446.2031 " fill="none" style="stroke:#181818;stroke-width:1;"/><rect fill="#F1F1F1" height="42.75" rx="12.5" ry="12.5" style="stroke:#181818;stroke-width:1.5;" width="72.8896" x="556" y="487.5781"/><text fill="#000000" font-family="sans-serif" font-size="14" lengthAdjust="spacing" textLength="28" x="566" y="517.252">&#27450;&#39575;</text><path d="M607.8063,513.3281 C606.8397,513.3281 606.0563,512.5447 606.0563,511.5781 L606.0563,509.2448 C606.0563,508.2782 606.8397,507.4948 607.8063,507.4948 C608.1581,507.4913 611.3063,506.9115 611.3063,504.5781 C611.3063,503.4115 610.1396,502.2448 608.3896,502.2448 C606.9657,502.2448 606.0563,503.4115 606.0563,503.9948 C606.0563,504.9614 605.2729,505.7448 604.3063,505.7448 C603.3397,505.7448 602.5563,504.9614 602.5563,503.9948 C602.5563,501.1493 605.228,498.7448 608.3896,498.7448 C613.0563,498.7448 614.8063,502.2343 614.8063,505.1615 C614.8063,507.5794 613.4781,509.4274 611.0654,510.3648 C610.5404,510.5695 610.0212,510.7072 609.5563,510.8005 L609.5563,511.5781 C609.5563,512.5447 608.7729,513.3281 607.8063,513.3281 " fill="#FE0000" style="stroke:;stroke-width:0;stroke-dasharray:;"/><ellipse cx="607.8063" cy="516.2448" fill="#FE0000" rx="1.75" ry="1.75" style="stroke:#FE0000;stroke-width:1.5;"/><rect fill="#90EE90" height="42.75" rx="12.5" ry="12.5" style="stroke:#181818;stroke-width:1.5;" width="132.7793" x="678.8896" y="456.2031"/><text fill="#000000" font-family="sans-serif" font-size="14" lengthAdjust="spacing" textLength="84" x="688.8896" y="485.877">&#20107;&#23454;&#35748;&#35782;&#38169;&#35823;</text><path d="M789.7515,476.7055 L795.5165,470.9404 C796.2002,470.2573 796.2002,469.149 795.5165,468.4653 C794.8329,467.7822 793.7257,467.7822 793.042,468.4653 L787.277,474.2304 L781.5119,468.4659 C780.8288,467.7822 779.7205,467.7822 779.0368,468.4659 C778.3537,469.149 778.3537,470.2573 779.0368,470.941 L784.8019,476.7055 L779.0228,482.4845 C778.3397,483.1676 778.3397,484.276 779.0228,484.959 C779.364,485.3009 779.8126,485.4718 780.26,485.4718 C780.7075,485.4718 781.156,485.3009 781.4979,484.959 L787.2764,479.1805 L793.0409,484.945 C793.3827,485.2869 793.8307,485.4578 794.2781,485.4578 C794.7255,485.4578 795.1735,485.2869 795.5154,484.945 C796.199,484.262 796.199,483.1536 795.5154,482.4705 L789.7515,476.7055 " fill="#FE0000" style="stroke:;stroke-width:0;stroke-dasharray:;"/><text fill="#000000" font-family="sans-serif" font-size="14" lengthAdjust="spacing" textLength="3.8896" x="797.7793" y="485.877">&#160;</text><path d="M628.8896,508.9531 L638.8896,508.9531 C653.8896,508.9531 653.8896,477.5781 668.8896,477.5781 L678.8896,477.5781 " fill="none" style="stroke:#181818;stroke-width:1;"/><rect fill="#90EE90" height="42.75" rx="12.5" ry="12.5" style="stroke:#181818;stroke-width:1.5;" width="104.7793" x="678.8896" y="518.9531"/><text fill="#000000" font-family="sans-serif" font-size="14" lengthAdjust="spacing" textLength="56" x="688.8896" y="548.627">&#21160;&#26426;&#38169;&#35823;</text><path d="M768.8804,529.7552 C768.069,529.229 766.9857,529.46 766.4601,530.2709 L756.6543,545.3856 L751.8721,540.964 C751.1622,540.3077 750.0556,540.3509 749.3994,541.0608 C748.7431,541.7701 748.7863,542.8779 749.4962,543.5335 L755.7752,549.3389 C755.9555,549.494 755.9555,549.494 756.0389,549.5483 C756.3329,549.7396 756.663,549.8306 756.9897,549.8306 C757.5625,549.8306 758.1243,549.5495 758.4597,549.0326 L769.396,532.1755 C769.9222,531.3646 769.6912,530.2808 768.8804,529.7552 " fill="#FE0000" style="stroke:;stroke-width:0;stroke-dasharray:;"/><text fill="#000000" font-family="sans-serif" font-size="14" lengthAdjust="spacing" textLength="3.8896" x="769.7793" y="548.627">&#160;</text><path d="M628.8896,508.9531 L638.8896,508.9531 C653.8896,508.9531 653.8896,540.3281 668.8896,540.3281 L678.8896,540.3281 " fill="none" style="stroke:#181818;stroke-width:1;"/><path d="M506,493.2656 L516,493.2656 C531,493.2656 531,508.9531 546,508.9531 L556,508.9531 " fill="none" style="stroke:#181818;stroke-width:1;"/><path d="M380,756.1641 L390,756.1641 C405,756.1641 405,493.2656 420,493.2656 L430,493.2656 " fill="none" style="stroke:#181818;stroke-width:1;"/><rect fill="#F1F1F1" height="37.6094" rx="12.5" ry="12.5" style="stroke:#181818;stroke-width:1.5;" width="76" x="430" y="581.7031"/><text fill="#000000" font-family="sans-serif" font-size="14" lengthAdjust="spacing" textLength="56" x="440" y="606.2363">&#25215;&#35834;&#26102;&#38388;</text><rect fill="#F1F1F1" height="37.6094" rx="12.5" ry="12.5" style="stroke:#181818;stroke-width:1.5;" width="230" x="556" y="581.7031"/><text fill="#000000" font-family="sans-serif" font-size="14" lengthAdjust="spacing" textLength="210" x="566" y="606.2363">&#24517;&#39035;&#20107;&#21069;&#20570;&#20986;&#65292;&#20107;&#21518;&#25215;&#35834;&#20110;&#20107;&#26080;&#34917;</text><path d="M506,600.5078 L516,600.5078 C531,600.5078 531,600.5078 546,600.5078 L556,600.5078 " fill="none" style="stroke:#181818;stroke-width:1;"/><path d="M380,756.1641 L390,756.1641 C405,756.1641 405,600.5078 420,600.5078 L430,600.5078 " fill="none" style="stroke:#181818;stroke-width:1;"/><rect fill="#F1F1F1" height="37.6094" rx="12.5" ry="12.5" style="stroke:#181818;stroke-width:1.5;" width="76" x="430" y="844.6016"/><text fill="#000000" font-family="sans-serif" font-size="14" lengthAdjust="spacing" textLength="56" x="440" y="869.1348">&#25215;&#35834;&#20869;&#23481;</text><rect fill="#F1F1F1" height="37.6094" rx="12.5" ry="12.5" style="stroke:#181818;stroke-width:1.5;" width="90" x="556" y="844.6016"/><text fill="#000000" font-family="sans-serif" font-size="14" lengthAdjust="spacing" textLength="70" x="566" y="869.1348">&#26435;&#38480;&#21644;&#33539;&#22260;</text><rect fill="#F1F1F1" height="42.75" rx="12.5" ry="12.5" style="stroke:#181818;stroke-width:1.5;" width="72.8896" x="696" y="665.5469"/><text fill="#000000" font-family="sans-serif" font-size="14" lengthAdjust="spacing" textLength="28" x="706" y="695.2207">&#29983;&#21629;</text><path d="M750.8618,686.0492 L756.6269,680.2841 C757.3106,679.601 757.3106,678.4927 756.6269,677.809 C755.9432,677.126 754.8361,677.126 754.1524,677.809 L748.3873,683.5741 L742.6222,677.8096 C741.9391,677.126 740.8308,677.126 740.1471,677.8096 C739.4641,678.4927 739.4641,679.601 740.1471,680.2847 L745.9122,686.0492 L740.1331,691.8283 C739.4501,692.5114 739.4501,693.6197 740.1331,694.3028 C740.4744,694.6446 740.923,694.8155 741.3704,694.8155 C741.8178,694.8155 742.2664,694.6446 742.6082,694.3028 L748.3867,688.5243 L754.1512,694.2888 C754.4931,694.6306 754.9411,694.8015 755.3885,694.8015 C755.8359,694.8015 756.2839,694.6306 756.6257,694.2888 C757.3094,693.6057 757.3094,692.4974 756.6257,691.8143 L750.8618,686.0492 " fill="#FE0000" style="stroke:;stroke-width:0;stroke-dasharray:;"/><rect fill="#F1F1F1" height="37.6094" rx="12.5" ry="12.5" style="stroke:#181818;stroke-width:1.5;" width="62" x="818.8896" y="668.1172"/><text fill="#000000" font-family="sans-serif" font-size="14" lengthAdjust="spacing" textLength="42" x="828.8896" y="692.6504">&#26080;&#26435;&#38480;</text><rect fill="#90EE90" height="37.6094" rx="12.5" ry="12.5" style="stroke:#181818;stroke-width:1.5;" width="149.8896" x="930.8896" y="639.3125"/><text fill="#000000" font-family="sans-serif" font-size="14" lengthAdjust="spacing" textLength="126" x="940.8896" y="663.8457">&#29983;&#21629;&#19981;&#21487;&#20197;&#25215;&#35834;&#25918;&#24323;</text><path d="M880.8896,686.9219 L890.8896,686.9219 C905.8896,686.9219 905.8896,658.1172 920.8896,658.1172 L930.8896,658.1172 " fill="none" style="stroke:#181818;stroke-width:1;"/><rect fill="#90EE90" height="37.6094" rx="12.5" ry="12.5" style="stroke:#181818;stroke-width:1.5;" width="163.8896" x="930.8896" y="696.9219"/><text fill="#000000" font-family="sans-serif" font-size="14" lengthAdjust="spacing" textLength="140" x="940.8896" y="721.4551">&#25215;&#35834;&#25918;&#24323;&#29983;&#21629;&#26159;&#26080;&#25928;&#30340;</text><path d="M880.8896,686.9219 L890.8896,686.9219 C905.8896,686.9219 905.8896,715.7266 920.8896,715.7266 L930.8896,715.7266 " fill="none" style="stroke:#181818;stroke-width:1;"/><path d="M768.8896,686.9219 L778.8896,686.9219 C793.8896,686.9219 793.8896,686.9219 808.8896,686.9219 L818.8896,686.9219 " fill="none" style="stroke:#181818;stroke-width:1;"/><path d="M646,863.4063 L656,863.4063 C671,863.4063 671,686.9219 686,686.9219 L696,686.9219 " fill="none" style="stroke:#181818;stroke-width:1;"/><rect fill="#F1F1F1" height="37.6094" rx="12.5" ry="12.5" style="stroke:#181818;stroke-width:1.5;" width="48" x="696" y="839.4609"/><text fill="#000000" font-family="sans-serif" font-size="14" lengthAdjust="spacing" textLength="28" x="706" y="863.9941">&#36523;&#20307;</text><rect fill="#F1F1F1" height="37.6094" rx="12.5" ry="12.5" style="stroke:#181818;stroke-width:1.5;" width="48" x="794" y="808.0859"/><text fill="#000000" font-family="sans-serif" font-size="14" lengthAdjust="spacing" textLength="28" x="804" y="832.6191">&#20260;&#23475;</text><text fill="#000000" font-family="sans-serif" font-size="14" lengthAdjust="spacing" textLength="266" x="895" y="760.0645">&#12302;&#20260;&#23475;&#12303;&#26159;&#12302;&#36523;&#20307;&#12303;&#22312;&#12302;&#20581;&#24247;&#12303;&#32500;&#24230;&#30340;&#32771;&#37327;</text><path d="M842,826.8906 L852,826.8906 C867,826.8906 867,754.3359 882,754.3359 L892,754.3359 " fill="none" style="stroke:#181818;stroke-width:1;"/><rect fill="#F1F1F1" height="42.75" rx="12.5" ry="12.5" style="stroke:#181818;stroke-width:1.5;" width="72.8896" x="892" y="774.1406"/><text fill="#000000" font-family="sans-serif" font-size="14" lengthAdjust="spacing" textLength="28" x="902" y="803.8145">&#37325;&#20260;</text><path d="M946.8618,794.643 L952.6269,788.8779 C953.3106,788.1948 953.3106,787.0865 952.6269,786.4028 C951.9432,785.7197 950.8361,785.7197 950.1524,786.4028 L944.3873,792.1679 L938.6222,786.4034 C937.9391,785.7197 936.8308,785.7197 936.1471,786.4034 C935.4641,787.0865 935.4641,788.1948 936.1471,788.8785 L941.9122,794.643 L936.1331,800.422 C935.4501,801.1051 935.4501,802.2135 936.1331,802.8965 C936.4744,803.2384 936.923,803.4093 937.3704,803.4093 C937.8178,803.4093 938.2664,803.2384 938.6082,802.8965 L944.3867,797.118 L950.1512,802.8825 C950.4931,803.2244 950.9411,803.3953 951.3885,803.3953 C951.8359,803.3953 952.2839,803.2244 952.6257,802.8825 C953.3094,802.1995 953.3094,801.0911 952.6257,800.408 L946.8618,794.643 " fill="#FE0000" style="stroke:;stroke-width:0;stroke-dasharray:;"/><rect fill="#F1F1F1" height="42.75" rx="12.5" ry="12.5" style="stroke:#181818;stroke-width:1.5;" width="184.8896" x="1014.8896" y="774.1406"/><text fill="#000000" font-family="sans-serif" font-size="14" lengthAdjust="spacing" textLength="140" x="1024.8896" y="803.8145">&#20026;&#20102;&#20445;&#25252;&#21478;&#19968;&#37325;&#22823;&#27861;&#30410;</text><path d="M1188.8804,784.9427 C1188.069,784.4165 1186.9857,784.6475 1186.4601,785.4584 L1176.6543,800.5731 L1171.8721,796.1515 C1171.1622,795.4952 1170.0556,795.5384 1169.3994,796.2483 C1168.7431,796.9576 1168.7863,798.0654 1169.4962,798.721 L1175.7752,804.5264 C1175.9555,804.6815 1175.9555,804.6815 1176.0389,804.7358 C1176.3329,804.9271 1176.663,805.0181 1176.9897,805.0181 C1177.5625,805.0181 1178.1243,804.737 1178.4597,804.2201 L1189.396,787.363 C1189.9222,786.5521 1189.6912,785.4683 1188.8804,784.9427 " fill="#FE0000" style="stroke:;stroke-width:0;stroke-dasharray:;"/><path d="M964.8896,795.5156 L974.8896,795.5156 C989.8896,795.5156 989.8896,795.5156 1004.8896,795.5156 L1014.8896,795.5156 " fill="none" style="stroke:#181818;stroke-width:1;"/><path d="M842,826.8906 L852,826.8906 C867,826.8906 867,795.5156 882,795.5156 L892,795.5156 " fill="none" style="stroke:#181818;stroke-width:1;"/><text fill="#000000" font-family="sans-serif" font-size="14" lengthAdjust="spacing" textLength="196" x="895" y="842.4238">&#32771;&#34385;&#12302;&#20260;&#23475;&#12303;&#26159;&#21542;&#36229;&#20986;&#25215;&#35834;&#33539;&#22260;</text><path d="M842,826.8906 L852,826.8906 C867,826.8906 867,836.6953 882,836.6953 L892,836.6953 " fill="none" style="stroke:#181818;stroke-width:1;"/><rect fill="#F1F1F1" height="42.75" rx="12.5" ry="12.5" style="stroke:#181818;stroke-width:1.5;" width="72.8896" x="892" y="856.5"/><text fill="#000000" font-family="sans-serif" font-size="14" lengthAdjust="spacing" textLength="28" x="902" y="886.1738">&#36731;&#20260;</text><path d="M953.9907,867.3021 C953.1793,866.7759 952.0961,867.0069 951.5705,867.8178 L941.7646,882.9325 L936.9825,878.5108 C936.2726,877.8546 935.166,877.8978 934.5097,878.6077 C933.8535,879.317 933.8966,880.4248 934.6066,881.0804 L940.8856,886.8858 C941.0658,887.0409 941.0658,887.0409 941.1492,887.0952 C941.4432,887.2865 941.7734,887.3775 942.1001,887.3775 C942.6729,887.3775 943.2346,887.0963 943.5701,886.5795 L954.5064,869.7223 C955.0326,868.9115 954.8016,867.8277 953.9907,867.3021 " fill="#FE0000" style="stroke:;stroke-width:0;stroke-dasharray:;"/><path d="M842,826.8906 L852,826.8906 C867,826.8906 867,877.875 882,877.875 L892,877.875 " fill="none" style="stroke:#181818;stroke-width:1;"/><path d="M744,858.2656 L754,858.2656 C769,858.2656 769,826.8906 784,826.8906 L794,826.8906 " fill="none" style="stroke:#181818;stroke-width:1;"/><rect fill="#F1F1F1" height="42.75" rx="12.5" ry="12.5" style="stroke:#181818;stroke-width:1.5;" width="72.8896" x="794" y="919.25"/><text fill="#000000" font-family="sans-serif" font-size="14" lengthAdjust="spacing" textLength="28" x="804" y="948.9238">&#33258;&#30001;</text><path d="M855.9907,930.0521 C855.1793,929.5259 854.0961,929.7569 853.5705,930.5678 L843.7646,945.6825 L838.9825,941.2608 C838.2726,940.6046 837.166,940.6478 836.5097,941.3577 C835.8535,942.067 835.8966,943.1748 836.6066,943.8304 L842.8856,949.6358 C843.0658,949.7909 843.0658,949.7909 843.1492,949.8452 C843.4432,950.0365 843.7734,950.1275 844.1001,950.1275 C844.6729,950.1275 845.2346,949.8463 845.5701,949.3295 L856.5064,932.4723 C857.0326,931.6615 856.8016,930.5777 855.9907,930.0521 " fill="#FE0000" style="stroke:;stroke-width:0;stroke-dasharray:;"/><text fill="#000000" font-family="sans-serif" font-size="14" lengthAdjust="spacing" textLength="238" x="919.8896" y="946.3535">&#33258;&#30001;&#26159;&#12302;&#36523;&#20307;&#12303;&#22312;&#12302;&#31354;&#38388;&#12303;&#32500;&#24230;&#30340;&#32771;&#37327;</text><path d="M866.8896,940.625 L876.8896,940.625 C891.8896,940.625 891.8896,940.625 906.8896,940.625 L916.8896,940.625 " fill="none" style="stroke:#181818;stroke-width:1;"/><path d="M744,858.2656 L754,858.2656 C769,858.2656 769,940.625 784,940.625 L794,940.625 " fill="none" style="stroke:#181818;stroke-width:1;"/><path d="M646,863.4063 L656,863.4063 C671,863.4063 671,858.2656 686,858.2656 L696,858.2656 " fill="none" style="stroke:#181818;stroke-width:1;"/><rect fill="#F1F1F1" height="37.6094" rx="12.5" ry="12.5" style="stroke:#181818;stroke-width:1.5;" width="48" x="696" y="1015.9453"/><text fill="#000000" font-family="sans-serif" font-size="14" lengthAdjust="spacing" textLength="28" x="706" y="1040.4785">&#36523;&#22806;</text><rect fill="#F1F1F1" height="42.75" rx="12.5" ry="12.5" style="stroke:#181818;stroke-width:1.5;" width="114.8896" x="794" y="982"/><text fill="#000000" font-family="sans-serif" font-size="14" lengthAdjust="spacing" textLength="70" x="804" y="1011.6738">&#21517;&#35465;&#65288;&#21517;&#65289;</text><path d="M897.9907,992.8021 C897.1793,992.2759 896.0961,992.5069 895.5705,993.3178 L885.7646,1008.4325 L880.9825,1004.0108 C880.2726,1003.3546 879.166,1003.3978 878.5097,1004.1077 C877.8535,1004.817 877.8966,1005.9248 878.6066,1006.5804 L884.8856,1012.3858 C885.0658,1012.5409 885.0658,1012.5409 885.1492,1012.5952 C885.4432,1012.7865 885.7734,1012.8775 886.1001,1012.8775 C886.6729,1012.8775 887.2346,1012.5963 887.5701,1012.0795 L898.5064,995.2223 C899.0326,994.4115 898.8016,993.3277 897.9907,992.8021 " fill="#FE0000" style="stroke:;stroke-width:0;stroke-dasharray:;"/><text fill="#000000" font-family="sans-serif" font-size="14" lengthAdjust="spacing" textLength="168" x="961.8896" y="1009.1035">&#12302;&#21517;&#21033;&#12303;&#37117;&#26159;&#12302;&#36523;&#22806;&#12303;&#20043;&#29289;</text><path d="M908.8896,1003.375 L918.8896,1003.375 C933.8896,1003.375 933.8896,1003.375 948.8896,1003.375 L958.8896,1003.375 " fill="none" style="stroke:#181818;stroke-width:1;"/><path d="M744,1034.75 L754,1034.75 C769,1034.75 769,1003.375 784,1003.375 L794,1003.375 " fill="none" style="stroke:#181818;stroke-width:1;"/><rect fill="#F1F1F1" height="42.75" rx="12.5" ry="12.5" style="stroke:#181818;stroke-width:1.5;" width="114.8896" x="794" y="1044.75"/><text fill="#000000" font-family="sans-serif" font-size="14" lengthAdjust="spacing" textLength="70" x="804" y="1074.4238">&#36130;&#20135;&#65288;&#21033;&#65289;</text><path d="M897.9907,1055.5521 C897.1793,1055.0259 896.0961,1055.2569 895.5705,1056.0678 L885.7646,1071.1825 L880.9825,1066.7608 C880.2726,1066.1046 879.166,1066.1478 878.5097,1066.8577 C877.8535,1067.567 877.8966,1068.6748 878.6066,1069.3304 L884.8856,1075.1358 C885.0658,1075.2909 885.0658,1075.2909 885.1492,1075.3452 C885.4432,1075.5365 885.7734,1075.6275 886.1001,1075.6275 C886.6729,1075.6275 887.2346,1075.3463 887.5701,1074.8295 L898.5064,1057.9723 C899.0326,1057.1615 898.8016,1056.0777 897.9907,1055.5521 " fill="#FE0000" style="stroke:;stroke-width:0;stroke-dasharray:;"/><text fill="#000000" font-family="sans-serif" font-size="14" lengthAdjust="spacing" textLength="168" x="961.8896" y="1071.8535">&#12302;&#21517;&#21033;&#12303;&#37117;&#26159;&#12302;&#36523;&#22806;&#12303;&#20043;&#29289;</text><path d="M908.8896,1066.125 L918.8896,1066.125 C933.8896,1066.125 933.8896,1066.125 948.8896,1066.125 L958.8896,1066.125 " fill="none" style="stroke:#181818;stroke-width:1;"/><path d="M744,1034.75 L754,1034.75 C769,1034.75 769,1066.125 784,1066.125 L794,1066.125 " fill="none" style="stroke:#181818;stroke-width:1;"/><path d="M646,863.4063 L656,863.4063 C671,863.4063 671,1034.75 686,1034.75 L696,1034.75 " fill="none" style="stroke:#181818;stroke-width:1;"/><path d="M506,863.4063 L516,863.4063 C531,863.4063 531,863.4063 546,863.4063 L556,863.4063 " fill="none" style="stroke:#181818;stroke-width:1;"/><path d="M380,756.1641 L390,756.1641 C405,756.1641 405,863.4063 420,863.4063 L430,863.4063 " fill="none" style="stroke:#181818;stroke-width:1;"/><path d="M282,573.0547 L292,573.0547 C307,573.0547 307,756.1641 322,756.1641 L332,756.1641 " fill="none" style="stroke:#181818;stroke-width:1;"/><path d="M100,673.8711 L110,673.8711 C125,673.8711 125,573.0547 140,573.0547 L150,573.0547 " fill="none" style="stroke:#181818;stroke-width:1;"/><rect fill="#F1F1F1" height="37.6094" rx="12.5" ry="12.5" style="stroke:#181818;stroke-width:1.5;" width="132" x="150" y="1179.5117"/><text fill="#000000" font-family="sans-serif" font-size="14" lengthAdjust="spacing" textLength="112" x="160" y="1204.0449">&#25512;&#23450;&#30340;&#34987;&#23475;&#20154;&#25215;&#35834;</text><rect fill="#F1F1F1" height="37.6094" rx="12.5" ry="12.5" style="stroke:#181818;stroke-width:1.5;" width="48" x="332" y="1107.5"/><text fill="#000000" font-family="sans-serif" font-size="14" lengthAdjust="spacing" textLength="28" x="342" y="1132.0332">&#25512;&#23450;</text><rect fill="#F1F1F1" height="37.6094" rx="12.5" ry="12.5" style="stroke:#181818;stroke-width:1.5;" width="174" x="430" y="1107.5"/><text fill="#000000" font-family="sans-serif" font-size="14" lengthAdjust="spacing" textLength="154" x="440" y="1132.0332">&#34987;&#23475;&#20154;&#24471;&#30693;&#30495;&#30456;&#21518;&#20250;&#25215;&#35834;</text><path d="M380,1126.3047 L390,1126.3047 C405,1126.3047 405,1126.3047 420,1126.3047 L430,1126.3047 " fill="none" style="stroke:#181818;stroke-width:1;"/><path d="M282,1198.3164 L292,1198.3164 C307,1198.3164 307,1126.3047 322,1126.3047 L332,1126.3047 " fill="none" style="stroke:#181818;stroke-width:1;"/><rect fill="#F1F1F1" height="37.6094" rx="12.5" ry="12.5" style="stroke:#181818;stroke-width:1.5;" width="76" x="332" y="1208.3164"/><text fill="#000000" font-family="sans-serif" font-size="14" lengthAdjust="spacing" textLength="56" x="342" y="1232.8496">&#20004;&#20010;&#27861;&#30410;</text><rect fill="#F1F1F1" height="37.6094" rx="12.5" ry="12.5" style="stroke:#181818;stroke-width:1.5;" width="90" x="458" y="1193.9141"/><text fill="#000000" font-family="sans-serif" font-size="14" lengthAdjust="spacing" textLength="70" x="468" y="1218.4473">&#29306;&#29298;&#30340;&#27861;&#30410;</text><rect fill="#F1F1F1" height="37.6094" rx="12.5" ry="12.5" style="stroke:#181818;stroke-width:1.5;" width="62" x="598" y="1165.1094"/><text fill="#000000" font-family="sans-serif" font-size="14" lengthAdjust="spacing" textLength="42" x="608" y="1189.6426">&#34987;&#23475;&#20154;</text><rect fill="#F1F1F1" height="37.6094" rx="12.5" ry="12.5" style="stroke:#181818;stroke-width:1.5;" width="118" x="710" y="1165.1094"/><text fill="#000000" font-family="sans-serif" font-size="14" lengthAdjust="spacing" textLength="98" x="720" y="1189.6426">&#26377;&#22788;&#20998;&#26435;&#30340;&#27861;&#30410;</text><path d="M660,1183.9141 L670,1183.9141 C685,1183.9141 685,1183.9141 700,1183.9141 L710,1183.9141 " fill="none" style="stroke:#181818;stroke-width:1;"/><path d="M548,1212.7188 L558,1212.7188 C573,1212.7188 573,1183.9141 588,1183.9141 L598,1183.9141 " fill="none" style="stroke:#181818;stroke-width:1;"/><rect fill="#F1F1F1" height="37.6094" rx="12.5" ry="12.5" style="stroke:#181818;stroke-width:1.5;" width="160" x="598" y="1222.7188"/><text fill="#000000" font-family="sans-serif" font-size="14" lengthAdjust="spacing" textLength="140" x="608" y="1247.252">&#19981;&#24471;&#22823;&#20110;&#25152;&#20445;&#25252;&#30340;&#27861;&#30410;</text><path d="M548,1212.7188 L558,1212.7188 C573,1212.7188 573,1241.5234 588,1241.5234 L598,1241.5234 " fill="none" style="stroke:#181818;stroke-width:1;"/><path d="M408,1227.1211 L418,1227.1211 C433,1227.1211 433,1212.7188 448,1212.7188 L458,1212.7188 " fill="none" style="stroke:#181818;stroke-width:1;"/><rect fill="#F1F1F1" height="37.6094" rx="12.5" ry="12.5" style="stroke:#181818;stroke-width:1.5;" width="90" x="458" y="1251.5234"/><text fill="#000000" font-family="sans-serif" font-size="14" lengthAdjust="spacing" textLength="70" x="468" y="1276.0566">&#20445;&#25252;&#30340;&#27861;&#30410;</text><path d="M408,1227.1211 L418,1227.1211 C433,1227.1211 433,1270.3281 448,1270.3281 L458,1270.3281 " fill="none" style="stroke:#181818;stroke-width:1;"/><path d="M282,1198.3164 L292,1198.3164 C307,1198.3164 307,1227.1211 322,1227.1211 L332,1227.1211 " fill="none" style="stroke:#181818;stroke-width:1;"/><path d="M100,673.8711 L110,673.8711 C125,673.8711 125,1198.3164 140,1198.3164 L150,1198.3164 " fill="none" style="stroke:#181818;stroke-width:1;"/><!--SRC=[xLbTJnDP6BwVNt4stgW9HGqnXX2ZLCck4MCMz9OCqsCxCftfJa_hDfjDYkMhA51tOQk0kcXHFbowA54O2lmOUsQcL_o5VMUcXMdfVC35NfKGqdFESvxt-psdXnjnmieaoekXA1jZc1zuaHCI8Om2WNRxRvoa1DmU4rYH9A92cu5lWmrjvdo0Xpc68JmHCDBVhTEDBsL5KRC7Ub5Xc8idfX3yN4JQzBzquuqsFz9isOBGiL6wk78qOKrQA6DVPezEBjIjLhSLTonGMNbMMTe1g3eoKzx9VayFwyypT65BNSngkJ7zuti7YYhDJecE7A2kSp8ETKOmcqmDH1C2uMC2px64byI1NpklE-pLFkzhos-q_AZwzBsU7ZqDYTt2ZO9U76jYeVhFUsrfmmrHcNsb5uj7YAe2loHmt13gg3UT6DCsTmzBytJpgVffgIdAGe9l8NmMkoNii3H1bJdOU5ZAdiLhLGqcLzH5vOXHMvcghBziPEGYc1iQYBBoaBSbwkjbLScvIDJ7r-YtJJUL9jOXE-rvMVZBCI-dY_HTfab0zComVh1-Mhy0xIUbifRt6x-JKV6GYBgwS3GMOUDy_BgZAsqXSGo3Cr7DDMh-QoM_rQnU3qOhIxk6wjafEZnFnvN3qdDZc9kkrV4q3DNyt_hISbDger5ix3JptkjCvLME_l7SAdodQfrzIr_idJrdGJDBa2F6BgUyFKLdYkNTvQfRPlTfAUCTXnFkDFTPbEhBeg73t0GKl9-8wifwUUzFj-ek5Q0dk-inWBwdfotWz_GCg013YnY6K1ymfCFBLFa6GsrtYoeVZ7QKpbJ6PpmCh8nF0UzPus6pOXjIPwnyy5gTBD2P3-NjD33JmaVrovosC7cwZc8p6spGNxreC9xcFkXVHo5thUYuv9ij37kxZNRwqiFiMThivjajCBSt3Pcsga2L-WoPcKdG3TsQPsvANyiQPqDkwjHjl3xNW85Eh89gbSpUaUuW7MRAEy-qxAgRmxRUbPMFXXeJg_-B6b2cqojqOzxrWcD16bhQ4PpkvxMtozhYMsrX6tfX6SwoHeBoTg6ylMRbSmEDbbMqx6VZydDojK6GGspXcaGB8t2GGdDpup4QsduUwWhwj9fDM_NMV0E06rQP6nZkdhNxvutwwsYNUR-ypbGdRl5iM6QZw3VW30mA2Mn-GgYRvOR2ifGGGq59a6GayE48CTPXzNS36uBOGhmTuDNL6ZWiOoowCPi06phb0KxLi9BCYc4dfQt56ZIMa6E24zHQh46T3RCP9Kjn9xPpFJtTtS5W3Pd2WY0zSS1QYoQK2TIE6MzVsT6N7E3nePGPCZlsYhklxD1kcE8Ya62-bE73eYHZ7t53w2uluiRvOmgVObsf339Hb3Wi4YVVYARJ4UgHH69D3Gg0QM25ugZg9X8WWuEI5O8o7wqPUemaKfGbKbFiVHd7MDayPa-pxUQW91ElhF7BHGY4bNWLYa-se1I5QY5EqQxkTA8peYFYC0GCIEtET6iwNe4AOHopvtkzWDlG10S5FXvnxbYs_VNIdaHuqkWR1p7t9E8joRIAIx6Y3wiuDeJ9aJ2Mu_YGSqhNTL8lvaTGQN5R-SAOmxtiOvpmA69901LaAMJBG8yIgkqmvSIaE4_u9Bx9sShXH3Tc1UpNa6CJ81Qi9tMKXmFGQDr-SgfwYXdaySJWOymPz4xUOPDmx6BP9s-Ibw22J6h9Yzdmkszt7pVo-i9rhzMwNFOy8XZuqzLUlKcqNgbQhrIjLwhMArNhbQhrIjLwfMgzKhLUgLglLAT-fRfl_1_qGUzTbCHotBYzNmvSkNIb8t3jV1zBq3qfYIvVHPSkTtPqT7PSHS6-VcGiNs3Ez_xKZ-9I0hwye11SxML-C64qYWlC7JR9efyJSFkDuavaZCxtzrv0VRTha-YscEHbIOp2ZPUvyx3N0g4V9T8NauW9ljhHriqJr8TbK0izx6LkuKSiD2JOoaaXNWnteWVzFMtNcBjmCqwmOH04tqM2S6KcSWhM-lu3]--></g></svg>