<svg xmlns="http://www.w3.org/2000/svg" xmlns:xlink="http://www.w3.org/1999/xlink" contentStyleType="text/css" height="607px" preserveAspectRatio="none" style="width:1008px;height:607px;background:#FFFFFF;" version="1.1" viewBox="0 0 1008 607" width="1008px" zoomAndPan="magnify"><title>&#19981;&#20316;&#20026;&#29359;-&#25104;&#31435;&#26465;&#20214;</title><defs/><g><text fill="#000000" font-family="sans-serif" font-size="14" font-weight="bold" lengthAdjust="spacing" textLength="120.1621" x="442.8638" y="34.5332">&#19981;&#20316;&#20026;&#29359;-&#25104;&#31435;&#26465;&#20214;</text><rect fill="#F1F1F1" height="37.6094" rx="12.5" ry="12.5" style="stroke:#181818;stroke-width:1.5;" width="76" x="10" y="303.4492"/><text fill="#000000" font-family="sans-serif" font-size="14" lengthAdjust="spacing" textLength="56" x="20" y="327.9824">&#19981;&#20316;&#20026;&#29359;</text><rect fill="#F1F1F1" height="37.6094" rx="12.5" ry="12.5" style="stroke:#181818;stroke-width:1.5;" width="76" x="136" y="245.8398"/><text fill="#000000" font-family="sans-serif" font-size="14" lengthAdjust="spacing" textLength="56" x="146" y="270.373">&#25104;&#31435;&#26465;&#20214;</text><rect fill="#F1F1F1" height="37.6094" rx="12.5" ry="12.5" style="stroke:#181818;stroke-width:1.5;" width="76" x="262" y="173.8281"/><text fill="#000000" font-family="sans-serif" font-size="14" lengthAdjust="spacing" textLength="56" x="272" y="198.3613">&#23458;&#35266;&#26465;&#20214;</text><rect fill="#F1F1F1" height="37.6094" rx="12.5" ry="12.5" style="stroke:#181818;stroke-width:1.5;" width="48" x="388" y="173.8281"/><text fill="#000000" font-family="sans-serif" font-size="14" lengthAdjust="spacing" textLength="28" x="398" y="198.3613">&#34892;&#20026;</text><rect fill="#90EE90" height="37.6094" rx="12.5" ry="12.5" style="stroke:#181818;stroke-width:1.5;" width="107.8896" x="486" y="87.4141"/><text fill="#000000" font-family="sans-serif" font-size="14" lengthAdjust="spacing" textLength="84" x="496" y="111.9473">&#24212;&#20026;&#65288;&#20041;&#21153;&#65289;</text><rect fill="#F1F1F1" height="37.6094" rx="12.5" ry="12.5" style="stroke:#181818;stroke-width:1.5;" width="137.8584" x="643.8896" y="58.6094"/><text fill="#000000" font-family="sans-serif" font-size="14" lengthAdjust="spacing" textLength="117.8584" x="653.8896" y="83.1426">&#21361;&#38505;&#28304; &#8594; &#30417;&#31649;&#20041;&#21153;</text><path d="M593.8896,106.2188 L603.8896,106.2188 C618.8896,106.2188 618.8896,77.4141 633.8896,77.4141 L643.8896,77.4141 " fill="none" style="stroke:#181818;stroke-width:1;"/><rect fill="#F1F1F1" height="37.6094" rx="12.5" ry="12.5" style="stroke:#181818;stroke-width:1.5;" width="151.8584" x="643.8896" y="116.2188"/><text fill="#000000" font-family="sans-serif" font-size="14" lengthAdjust="spacing" textLength="131.8584" x="653.8896" y="140.752">&#27861;&#30410;&#23545;&#35937; &#8594; &#20445;&#25252;&#20041;&#21153;</text><path d="M593.8896,106.2188 L603.8896,106.2188 C618.8896,106.2188 618.8896,135.0234 633.8896,135.0234 L643.8896,135.0234 " fill="none" style="stroke:#181818;stroke-width:1;"/><path d="M436,192.6328 L446,192.6328 C461,192.6328 461,106.2188 476,106.2188 L486,106.2188 " fill="none" style="stroke:#181818;stroke-width:1;"/><rect fill="#90EE90" height="37.6094" rx="12.5" ry="12.5" style="stroke:#181818;stroke-width:1.5;" width="107.8896" x="486" y="202.6328"/><text fill="#000000" font-family="sans-serif" font-size="14" lengthAdjust="spacing" textLength="84" x="496" y="227.166">&#33021;&#20026;&#65288;&#33021;&#21147;&#65289;</text><rect fill="#F1F1F1" height="37.6094" rx="12.5" ry="12.5" style="stroke:#181818;stroke-width:1.5;" width="76" x="643.8896" y="173.8281"/><text fill="#000000" font-family="sans-serif" font-size="14" lengthAdjust="spacing" textLength="56" x="653.8896" y="198.3613">&#33258;&#36523;&#33021;&#21147;</text><path d="M593.8896,221.4375 L603.8896,221.4375 C618.8896,221.4375 618.8896,192.6328 633.8896,192.6328 L643.8896,192.6328 " fill="none" style="stroke:#181818;stroke-width:1;"/><rect fill="#F1F1F1" height="37.6094" rx="12.5" ry="12.5" style="stroke:#181818;stroke-width:1.5;" width="76" x="643.8896" y="231.4375"/><text fill="#000000" font-family="sans-serif" font-size="14" lengthAdjust="spacing" textLength="56" x="653.8896" y="255.9707">&#23458;&#35266;&#26465;&#20214;</text><path d="M593.8896,221.4375 L603.8896,221.4375 C618.8896,221.4375 618.8896,250.2422 633.8896,250.2422 L643.8896,250.2422 " fill="none" style="stroke:#181818;stroke-width:1;"/><path d="M436,192.6328 L446,192.6328 C461,192.6328 461,221.4375 476,221.4375 L486,221.4375 " fill="none" style="stroke:#181818;stroke-width:1;"/><rect fill="#90EE90" height="37.6094" rx="12.5" ry="12.5" style="stroke:#181818;stroke-width:1.5;" width="107.8896" x="486" y="289.0469"/><text fill="#000000" font-family="sans-serif" font-size="14" lengthAdjust="spacing" textLength="84" x="496" y="313.5801">&#19981;&#20026;&#65288;&#26080;&#35270;&#65289;</text><rect fill="#F1F1F1" height="37.6094" rx="12.5" ry="12.5" style="stroke:#181818;stroke-width:1.5;" width="48" x="643.8896" y="289.0469"/><text fill="#000000" font-family="sans-serif" font-size="14" lengthAdjust="spacing" textLength="28" x="653.8896" y="313.5801">&#25490;&#38500;</text><rect fill="#FFA500" height="37.6094" rx="12.5" ry="12.5" style="stroke:#181818;stroke-width:1.5;" width="121.8896" x="741.8896" y="289.0469"/><text fill="#000000" font-family="sans-serif" font-size="14" lengthAdjust="spacing" textLength="98" x="751.8896" y="313.5801">&#32467;&#26524;&#36991;&#20813;&#21487;&#33021;&#24615;</text><path d="M691.8896,307.8516 L701.8896,307.8516 C716.8896,307.8516 716.8896,307.8516 731.8896,307.8516 L741.8896,307.8516 " fill="none" style="stroke:#181818;stroke-width:1;"/><path d="M593.8896,307.8516 L603.8896,307.8516 C618.8896,307.8516 618.8896,307.8516 633.8896,307.8516 L643.8896,307.8516 " fill="none" style="stroke:#181818;stroke-width:1;"/><path d="M436,192.6328 L446,192.6328 C461,192.6328 461,307.8516 476,307.8516 L486,307.8516 " fill="none" style="stroke:#181818;stroke-width:1;"/><path d="M338,192.6328 L348,192.6328 C363,192.6328 363,192.6328 378,192.6328 L388,192.6328 " fill="none" style="stroke:#181818;stroke-width:1;"/><path d="M212,264.6445 L222,264.6445 C237,264.6445 237,192.6328 252,192.6328 L262,192.6328 " fill="none" style="stroke:#181818;stroke-width:1;"/><rect fill="#F1F1F1" height="37.6094" rx="12.5" ry="12.5" style="stroke:#181818;stroke-width:1.5;" width="76" x="262" y="389.8633"/><text fill="#000000" font-family="sans-serif" font-size="14" lengthAdjust="spacing" textLength="56" x="272" y="414.3965">&#20027;&#35266;&#35201;&#20214;</text><rect fill="#F1F1F1" height="37.6094" rx="12.5" ry="12.5" style="stroke:#181818;stroke-width:1.5;" width="48" x="388" y="375.4609"/><text fill="#000000" font-family="sans-serif" font-size="14" lengthAdjust="spacing" textLength="28" x="398" y="399.9941">&#25925;&#24847;</text><rect fill="#90EE90" height="37.6094" rx="12.5" ry="12.5" style="stroke:#181818;stroke-width:1.5;" width="107.8896" x="486" y="346.6563"/><text fill="#000000" font-family="sans-serif" font-size="14" lengthAdjust="spacing" textLength="84" x="496" y="371.1895">&#20107;&#23454;&#35748;&#35782;&#38169;&#35823;</text><text fill="#000000" font-family="sans-serif" font-size="14" lengthAdjust="spacing" textLength="98" x="646.8896" y="353.5801">&#33258;&#24049;&#23401;&#23376;&#33853;&#27700;&#65292;</text><text fill="#000000" font-family="sans-serif" font-size="14" lengthAdjust="spacing" textLength="154" x="646.8896" y="371.1895">&#35823;&#20197;&#20026;&#26159;&#21035;&#20154;&#23478;&#30340;&#23401;&#23376;&#65292;</text><text fill="#000000" font-family="sans-serif" font-size="14" lengthAdjust="spacing" textLength="126" x="646.8896" y="388.7988">&#27809;&#26377;&#26045;&#25937;&#65292;&#23567;&#23401;&#28346;&#20129;</text><rect fill="#F1F1F1" height="37.6094" rx="12.5" ry="12.5" style="stroke:#181818;stroke-width:1.5;" width="132" x="850.8896" y="346.6563"/><text fill="#000000" font-family="sans-serif" font-size="14" lengthAdjust="spacing" textLength="112" x="860.8896" y="371.1895">&#36807;&#22833;&#30340;&#19981;&#20316;&#20026;&#29359;&#32618;</text><path d="M800.8896,365.4609 L810.8896,365.4609 C825.8896,365.4609 825.8896,365.4609 840.8896,365.4609 L850.8896,365.4609 " fill="none" style="stroke:#181818;stroke-width:1;"/><path d="M593.8896,365.4609 L603.8896,365.4609 C618.8896,365.4609 618.8896,365.4609 633.8896,365.4609 L643.8896,365.4609 " fill="none" style="stroke:#181818;stroke-width:1;"/><path d="M436,394.2656 L446,394.2656 C461,394.2656 461,365.4609 476,365.4609 L486,365.4609 " fill="none" style="stroke:#181818;stroke-width:1;"/><rect fill="#90EE90" height="37.6094" rx="12.5" ry="12.5" style="stroke:#181818;stroke-width:1.5;" width="107.8896" x="486" y="404.2656"/><text fill="#000000" font-family="sans-serif" font-size="14" lengthAdjust="spacing" textLength="84" x="496" y="428.7988">&#27861;&#24459;&#35748;&#35782;&#38169;&#35823;</text><text fill="#000000" font-family="sans-serif" font-size="14" lengthAdjust="spacing" textLength="70" x="646.8896" y="411.1895">&#20859;&#23376;&#33853;&#27700;&#65292;</text><text fill="#000000" font-family="sans-serif" font-size="14" lengthAdjust="spacing" textLength="168" x="646.8896" y="428.7988">&#35823;&#20197;&#20026;&#33258;&#24049;&#27809;&#26377;&#25937;&#21161;&#20041;&#21153;&#65292;</text><text fill="#000000" font-family="sans-serif" font-size="14" lengthAdjust="spacing" textLength="126" x="646.8896" y="446.4082">&#27809;&#26377;&#26045;&#25937;&#65292;&#23567;&#23401;&#28346;&#20129;</text><rect fill="#F1F1F1" height="37.6094" rx="12.5" ry="12.5" style="stroke:#181818;stroke-width:1.5;" width="132" x="864.8896" y="404.2656"/><text fill="#000000" font-family="sans-serif" font-size="14" lengthAdjust="spacing" textLength="112" x="874.8896" y="428.7988">&#25925;&#24847;&#30340;&#19981;&#20316;&#20026;&#29359;&#32618;</text><path d="M814.8896,423.0703 L824.8896,423.0703 C839.8896,423.0703 839.8896,423.0703 854.8896,423.0703 L864.8896,423.0703 " fill="none" style="stroke:#181818;stroke-width:1;"/><path d="M593.8896,423.0703 L603.8896,423.0703 C618.8896,423.0703 618.8896,423.0703 633.8896,423.0703 L643.8896,423.0703 " fill="none" style="stroke:#181818;stroke-width:1;"/><path d="M436,394.2656 L446,394.2656 C461,394.2656 461,423.0703 476,423.0703 L486,423.0703 " fill="none" style="stroke:#181818;stroke-width:1;"/><path d="M338,408.668 L348,408.668 C363,408.668 363,394.2656 378,394.2656 L388,394.2656 " fill="none" style="stroke:#181818;stroke-width:1;"/><rect fill="#F1F1F1" height="37.6094" rx="12.5" ry="12.5" style="stroke:#181818;stroke-width:1.5;" width="48" x="388" y="433.0703"/><text fill="#000000" font-family="sans-serif" font-size="14" lengthAdjust="spacing" textLength="28" x="398" y="457.6035">&#36807;&#22833;</text><path d="M338,408.668 L348,408.668 C363,408.668 363,451.875 378,451.875 L388,451.875 " fill="none" style="stroke:#181818;stroke-width:1;"/><path d="M212,264.6445 L222,264.6445 C237,264.6445 237,408.668 252,408.668 L262,408.668 " fill="none" style="stroke:#181818;stroke-width:1;"/><path d="M86,322.2539 L96,322.2539 C111,322.2539 111,264.6445 126,264.6445 L136,264.6445 " fill="none" style="stroke:#181818;stroke-width:1;"/><rect fill="#F1F1F1" height="37.6094" rx="12.5" ry="12.5" style="stroke:#181818;stroke-width:1.5;" width="118" x="136" y="519.4844"/><text fill="#000000" font-family="sans-serif" font-size="14" lengthAdjust="spacing" textLength="98" x="146" y="544.0176">&#29359;&#32618;&#25104;&#31435;&#21644;&#26082;&#36930;</text><rect fill="#90EE90" height="37.6094" rx="12.5" ry="12.5" style="stroke:#181818;stroke-width:1.5;" width="93.8896" x="304" y="490.6797"/><text fill="#000000" font-family="sans-serif" font-size="14" lengthAdjust="spacing" textLength="70" x="314" y="515.2129">&#31561;&#20215;&#24615;&#38382;&#39064;</text><rect fill="#F1F1F1" height="37.6094" rx="12.5" ry="12.5" style="stroke:#181818;stroke-width:1.5;" width="76" x="447.8896" y="490.6797"/><text fill="#000000" font-family="sans-serif" font-size="14" lengthAdjust="spacing" textLength="56" x="457.8896" y="515.2129">&#31243;&#24230;&#38382;&#39064;</text><text fill="#000000" font-family="sans-serif" font-size="14" lengthAdjust="spacing" textLength="147.7861" x="576.8896" y="505.4082">&#27597;&#20146;&#19981;&#32473;&#23401;&#23376;&#21890;&#20859;1&#23567;&#26102;</text><path d="M523.8896,509.4844 L533.8896,509.4844 C548.8896,509.4844 548.8896,499.6797 563.8896,499.6797 L573.8896,499.6797 " fill="none" style="stroke:#181818;stroke-width:1;"/><text fill="#000000" font-family="sans-serif" font-size="14" lengthAdjust="spacing" textLength="133.7861" x="576.8896" y="525.0176">&#27597;&#20146;&#19981;&#32473;&#23401;&#23376;&#21890;&#20859;3&#22825;</text><path d="M523.8896,509.4844 L533.8896,509.4844 C548.8896,509.4844 548.8896,519.2891 563.8896,519.2891 L573.8896,519.2891 " fill="none" style="stroke:#181818;stroke-width:1;"/><path d="M397.8896,509.4844 L407.8896,509.4844 C422.8896,509.4844 422.8896,509.4844 437.8896,509.4844 L447.8896,509.4844 " fill="none" style="stroke:#181818;stroke-width:1;"/><path d="M254,538.2891 L264,538.2891 C279,538.2891 279,509.4844 294,509.4844 L304,509.4844 " fill="none" style="stroke:#181818;stroke-width:1;"/><rect fill="#90EE90" height="37.6094" rx="12.5" ry="12.5" style="stroke:#181818;stroke-width:1.5;" width="121.8896" x="304" y="548.2891"/><text fill="#000000" font-family="sans-serif" font-size="14" lengthAdjust="spacing" textLength="98" x="314" y="572.8223">&#23384;&#22312;&#26082;&#36930;&#21644;&#26410;&#36930;</text><text fill="#000000" font-family="sans-serif" font-size="14" lengthAdjust="spacing" textLength="245.7861" x="478.8896" y="564.0176">&#27597;&#20146;&#19981;&#32473;&#23401;&#23376;&#21890;&#20859;2&#22825;&#65292;&#23401;&#23376;&#22852;&#22852;&#19968;&#24687;&#65307;</text><text fill="#000000" font-family="sans-serif" font-size="14" lengthAdjust="spacing" textLength="182" x="478.8896" y="581.627">&#37051;&#23621;&#21457;&#29616;&#65292;&#39532;&#19978;&#25937;&#25588;&#65292;&#26159;&#26410;&#36930;</text><path d="M425.8896,567.0938 L435.8896,567.0938 C450.8896,567.0938 450.8896,567.0938 465.8896,567.0938 L475.8896,567.0938 " fill="none" style="stroke:#181818;stroke-width:1;"/><path d="M254,538.2891 L264,538.2891 C279,538.2891 279,567.0938 294,567.0938 L304,567.0938 " fill="none" style="stroke:#181818;stroke-width:1;"/><path d="M86,322.2539 L96,322.2539 C111,322.2539 111,538.2891 126,538.2891 L136,538.2891 " fill="none" style="stroke:#181818;stroke-width:1;"/><!--SRC=[xLXTJzjM6BxthpZJRg1ImiSGgX12b1IqLQIg1krLfUd4EGqkZa_a7AUAfac50OK0vMEbmA3LWcWfC1Be9aeJ6F-biXtdYh-mrtPI7C2ncRGxeWWbvttUvxpVRqntac6PnGKf6iS9Zlj6a7XHYH8K33OvtqcM5abJGiGIK-9YmCG7G25WdGS5EECu9Z2H8FLeLZrPLuyAfKm-e4_EbtQdzJTPjNZ8SRTgX1o2rorK0q6LrosavJQChT4BnxR8oCu0GyrXHQVm2WHdnvFgvoajapqxdaATdIIU6C998TdLTKcZeZLxK5xTrWlpwCl48YgjBPHoMPl0HK7_Qwcqbj7odus3hAMZdhxHCvikEc3lhoUsMV11owpvDCjuiMCKTcqLDylTOcIBpM1Rz-hBVnXR4pxlrLykbbSthnJQW5BnD_tjUddaL1kVrURoOA7-VCl1tEgWDeqeWet6-v7BUTINnlMnkQiCBqnhkRT6RjF8JvHVhHhvl0_3Vp8ZfdqwqFQsjRrvO_v4t__xx7ZciGJgQl4TH49VoMkJksgXeEKEIx-FsK0Bed_CwkjJ-kiJVMa13hJzEH3gXO9QoDO9X77wGjiy02PdLPTEThWhIqRxP_hQ7cdZHHTVR5yhTYyjQ9djQit_PtViT7YuK_MwqhmsmcvXRN56NzueZumwib_QcrABdw0-oikvyiQAkzC0_J2j5TxREEwAMEZvMRNm4Mmh5LVjr6clHo50BU2Uldnu7PNljCrjvwZPMz7MFzYscqwixy27EgQw4xS2iHbm- -ZT6BpLe-VwIFxiUEsnL1ujQWVZsjn2wUK-eChRVwf76KYHFcSc5whJlldhPLmtWQbSdSpTjOEwqvgyNLpbuAw0OpAEevz1EnWH5M9zGgW7yyCncIfID4H5AYDHY0qnKmxINqni5Cl3Cecwm2lIAZWc4oBLOxO03dJQ0vokOgcCfPYRqRQm2aqeSa9qWzh2AjJTCOTJCaswiNtRrzVJ4mfLaMaYYlIP2zOMMb0kM2qTxrWvqSqkyEHmsagP4zjQFrPEQ0ySyKDGwBwC4M8IbOcFl27KBqZaulavXSzhwrAPP994UI8njzX8Lj0HwgCIiuyY8c0ki49pL6oJ6909LC9YI1RYLKVFaOp6CQDNOX_8985bR9vSH-rEXChCgshySZ46QMLUZUAJBKJZq2tCBTiLJJSwCpiIYK72WDGPp7f3nojHKK8IpdgllQ0NXc145993xXFBeLzxsxCXWLsCZSirzodplidoYazZoOTNF8uIzlKopFD2rBsaQoQf5_CJwBIaettXEq_2-2bHF9gOYc22JAEE2lHeeQg6TK-29WKcfCWTtj4EbwOn5ebVHyvTW5nWJ-gu00lG7Dr-QggonKpof19vIdYJtYqwE0LhbyW-ULC2XGwogAaNinbtt-4-7-IrZLk_LsjgsND5SF2diwdoI-Bc-Utc-Utc-Utc-Utc-Ur_UNvxOFxlx66u7wM8d3JtMakmjRcrBNYxOG0pT9-cK4ixQcxfQ6lhQ6j7eO51P8eRkORm3uCeIHLOwoWAIqyM8egv2HgvUpY5qOyAx8KuwK3cjuR1S2CQwAqUebuf9SXKYiCkuEuz2jiWz3rb0mdAB71xMw17O6Y0o60MUXJcxf8dM14PgF8qAaYn3lHmi2zmc-k7dQ7W65m4Mpe4ouJ9QP0D_0i0]--></g></svg>