<svg xmlns="http://www.w3.org/2000/svg" xmlns:xlink="http://www.w3.org/1999/xlink" contentStyleType="text/css" height="751px" preserveAspectRatio="none" style="width:931px;height:751px;background:#FFFFFF;" version="1.1" viewBox="0 0 931 751" width="931px" zoomAndPan="magnify"><title>&#19981;&#20316;&#20026;&#29359;-&#20998;&#31867;</title><defs/><g><text fill="#000000" font-family="sans-serif" font-size="14" font-weight="bold" lengthAdjust="spacing" textLength="91.2871" x="418.377" y="34.5332">&#19981;&#20316;&#20026;&#29359;-&#20998;&#31867;</text><rect fill="#F1F1F1" height="37.6094" rx="12.5" ry="12.5" style="stroke:#181818;stroke-width:1.5;" width="48" x="10" y="375.4609"/><text fill="#000000" font-family="sans-serif" font-size="14" lengthAdjust="spacing" textLength="28" x="20" y="399.9941">&#34892;&#20026;</text><rect fill="#F1F1F1" height="37.6094" rx="12.5" ry="12.5" style="stroke:#181818;stroke-width:1.5;" width="48" x="108" y="289.0469"/><text fill="#000000" font-family="sans-serif" font-size="14" lengthAdjust="spacing" textLength="28" x="118" y="313.5801">&#20998;&#31867;</text><rect fill="#F1F1F1" height="37.6094" rx="12.5" ry="12.5" style="stroke:#181818;stroke-width:1.5;" width="48" x="206" y="87.4141"/><text fill="#000000" font-family="sans-serif" font-size="14" lengthAdjust="spacing" textLength="28" x="216" y="111.9473">&#20316;&#20026;</text><rect fill="#F1F1F1" height="37.6094" rx="12.5" ry="12.5" style="stroke:#181818;stroke-width:1.5;" width="113.3242" x="304" y="87.4141"/><text fill="#000000" font-family="sans-serif" font-size="14" lengthAdjust="spacing" textLength="93.3242" x="314" y="111.9473">&#8220;&#25345;&#26377;&#8221;&#23646;&#20110;&#20316;&#20026;</text><rect fill="#F1F1F1" height="37.6094" rx="12.5" ry="12.5" style="stroke:#181818;stroke-width:1.5;" width="90" x="467.3242" y="58.6094"/><text fill="#000000" font-family="sans-serif" font-size="14" lengthAdjust="spacing" textLength="70" x="477.3242" y="83.1426">&#25345;&#26377;&#27602;&#21697;&#32618;</text><path d="M417.3242,106.2188 L427.3242,106.2188 C442.3242,106.2188 442.3242,77.4141 457.3242,77.4141 L467.3242,77.4141 " fill="none" style="stroke:#181818;stroke-width:1;"/><rect fill="#F1F1F1" height="37.6094" rx="12.5" ry="12.5" style="stroke:#181818;stroke-width:1.5;" width="90" x="467.3242" y="116.2188"/><text fill="#000000" font-family="sans-serif" font-size="14" lengthAdjust="spacing" textLength="70" x="477.3242" y="140.752">&#25345;&#26377;&#26538;&#25903;&#32618;</text><path d="M417.3242,106.2188 L427.3242,106.2188 C442.3242,106.2188 442.3242,135.0234 457.3242,135.0234 L467.3242,135.0234 " fill="none" style="stroke:#181818;stroke-width:1;"/><path d="M254,106.2188 L264,106.2188 C279,106.2188 279,106.2188 294,106.2188 L304,106.2188 " fill="none" style="stroke:#181818;stroke-width:1;"/><path d="M156,307.8516 L166,307.8516 C181,307.8516 181,106.2188 196,106.2188 L206,106.2188 " fill="none" style="stroke:#181818;stroke-width:1;"/><rect fill="#F1F1F1" height="37.6094" rx="12.5" ry="12.5" style="stroke:#181818;stroke-width:1.5;" width="62" x="206" y="346.6563"/><text fill="#000000" font-family="sans-serif" font-size="14" lengthAdjust="spacing" textLength="42" x="216" y="371.1895">&#19981;&#20316;&#20026;</text><rect fill="#90EE90" height="37.6094" rx="12.5" ry="12.5" style="stroke:#181818;stroke-width:1.5;" width="104" x="318" y="317.8516"/><text fill="#000000" font-family="sans-serif" font-size="14" lengthAdjust="spacing" textLength="84" x="328" y="342.3848">&#30495;&#27491;&#19981;&#20316;&#20026;&#29359;</text><rect fill="#F1F1F1" height="37.6094" rx="12.5" ry="12.5" style="stroke:#181818;stroke-width:1.5;" width="195.041" x="472" y="173.8281"/><text fill="#000000" font-family="sans-serif" font-size="14" lengthAdjust="spacing" textLength="175.041" x="482" y="198.3613">&#20002;&#22833;&#26538;&#25903;&#19981;&#25253;&#32618;&#65288;Law129&#65289;</text><path d="M422,336.6563 L432,336.6563 C447,336.6563 447,192.6328 462,192.6328 L472,192.6328 " fill="none" style="stroke:#181818;stroke-width:1;"/><rect fill="#F1F1F1" height="37.6094" rx="12.5" ry="12.5" style="stroke:#181818;stroke-width:1.5;" width="139.041" x="472" y="231.4375"/><text fill="#000000" font-family="sans-serif" font-size="14" lengthAdjust="spacing" textLength="119.041" x="482" y="255.9707">&#36951;&#24323;&#32618;&#65288;Law261&#65289;</text><path d="M422,336.6563 L432,336.6563 C447,336.6563 447,250.2422 462,250.2422 L472,250.2422 " fill="none" style="stroke:#181818;stroke-width:1;"/><rect fill="#F1F1F1" height="37.6094" rx="12.5" ry="12.5" style="stroke:#181818;stroke-width:1.5;" width="251.041" x="472" y="289.0469"/><text fill="#000000" font-family="sans-serif" font-size="14" lengthAdjust="spacing" textLength="231.041" x="482" y="313.5801">&#25298;&#19981;&#25903;&#20184;&#21171;&#21160;&#25253;&#37228;&#32618;&#65288;Law276&#20043;&#19968;&#65289;</text><path d="M422,336.6563 L432,336.6563 C447,336.6563 447,307.8516 462,307.8516 L472,307.8516 " fill="none" style="stroke:#181818;stroke-width:1;"/><rect fill="#F1F1F1" height="37.6094" rx="12.5" ry="12.5" style="stroke:#181818;stroke-width:1.5;" width="447.041" x="472" y="346.6563"/><text fill="#000000" font-family="sans-serif" font-size="14" lengthAdjust="spacing" textLength="427.041" x="482" y="371.1895">&#25298;&#32477;&#25552;&#20379;&#38388;&#35853;&#29359;&#32618;&#12289;&#24656;&#24598;&#20027;&#20041;&#29359;&#32618;&#12289;&#26497;&#31471;&#20027;&#20041;&#29359;&#32618;&#35777;&#25454;&#32618;&#65288;Law311&#65289;</text><path d="M422,336.6563 L432,336.6563 C447,336.6563 447,365.4609 462,365.4609 L472,365.4609 " fill="none" style="stroke:#181818;stroke-width:1;"/><rect fill="#F1F1F1" height="37.6094" rx="12.5" ry="12.5" style="stroke:#181818;stroke-width:1.5;" width="237.041" x="472" y="404.2656"/><text fill="#000000" font-family="sans-serif" font-size="14" lengthAdjust="spacing" textLength="217.041" x="482" y="428.7988">&#25298;&#19981;&#25191;&#34892;&#21028;&#20915;&#12289;&#35009;&#23450;&#32618;&#65288;Law313&#65289;</text><path d="M422,336.6563 L432,336.6563 C447,336.6563 447,423.0703 462,423.0703 L472,423.0703 " fill="none" style="stroke:#181818;stroke-width:1;"/><rect fill="#F1F1F1" height="37.6094" rx="12.5" ry="12.5" style="stroke:#181818;stroke-width:1.5;" width="321.041" x="472" y="461.875"/><text fill="#000000" font-family="sans-serif" font-size="14" lengthAdjust="spacing" textLength="301.041" x="482" y="486.4082">&#19981;&#35299;&#25937;&#34987;&#25296;&#21334;&#12289;&#32465;&#26550;&#30340;&#22919;&#22899;&#12289;&#20799;&#31461;&#32618;&#65288;Law416&#65289;</text><path d="M422,336.6563 L432,336.6563 C447,336.6563 447,480.6797 462,480.6797 L472,480.6797 " fill="none" style="stroke:#181818;stroke-width:1;"/><path d="M268,365.4609 L278,365.4609 C293,365.4609 293,336.6563 308,336.6563 L318,336.6563 " fill="none" style="stroke:#181818;stroke-width:1;"/><rect fill="#90EE90" height="37.6094" rx="12.5" ry="12.5" style="stroke:#181818;stroke-width:1.5;" width="118" x="318" y="519.4844"/><text fill="#000000" font-family="sans-serif" font-size="14" lengthAdjust="spacing" textLength="98" x="328" y="544.0176">&#19981;&#30495;&#27491;&#19981;&#20316;&#20026;&#29359;</text><path d="M268,365.4609 L278,365.4609 C293,365.4609 293,538.2891 308,538.2891 L318,538.2891 " fill="none" style="stroke:#181818;stroke-width:1;"/><path d="M156,307.8516 L166,307.8516 C181,307.8516 181,365.4609 196,365.4609 L206,365.4609 " fill="none" style="stroke:#181818;stroke-width:1;"/><path d="M58,394.2656 L68,394.2656 C83,394.2656 83,307.8516 98,307.8516 L108,307.8516 " fill="none" style="stroke:#181818;stroke-width:1;"/><rect fill="#F1F1F1" height="37.6094" rx="12.5" ry="12.5" style="stroke:#181818;stroke-width:1.5;" width="76" x="108" y="634.7031"/><text fill="#000000" font-family="sans-serif" font-size="14" lengthAdjust="spacing" textLength="56" x="118" y="659.2363">&#21028;&#26029;&#26631;&#20934;</text><rect fill="#F1F1F1" height="37.6094" rx="12.5" ry="12.5" style="stroke:#181818;stroke-width:1.5;" width="62" x="234" y="577.0938"/><text fill="#000000" font-family="sans-serif" font-size="14" lengthAdjust="spacing" textLength="42" x="244" y="601.627">&#19981;&#20316;&#20026;</text><rect fill="#F1F1F1" height="37.6094" rx="12.5" ry="12.5" style="stroke:#181818;stroke-width:1.5;" width="426" x="346" y="577.0938"/><text fill="#000000" font-family="sans-serif" font-size="14" lengthAdjust="spacing" textLength="406" x="356" y="601.627">&#28040;&#26497;&#30340;&#19981;&#28040;&#38500;&#21361;&#38505;&#65288;&#26377;&#28040;&#38500;&#21361;&#38505;&#30340;&#20041;&#21153;&#65292;&#21364;&#28040;&#26497;&#30340;&#19981;&#26053;&#34892;&#35813;&#20041;&#21153;&#65289;</text><path d="M296,595.8984 L306,595.8984 C321,595.8984 321,595.8984 336,595.8984 L346,595.8984 " fill="none" style="stroke:#181818;stroke-width:1;"/><path d="M184,653.5078 L194,653.5078 C209,653.5078 209,595.8984 224,595.8984 L234,595.8984 " fill="none" style="stroke:#181818;stroke-width:1;"/><rect fill="#F1F1F1" height="37.6094" rx="12.5" ry="12.5" style="stroke:#181818;stroke-width:1.5;" width="48" x="234" y="663.5078"/><text fill="#000000" font-family="sans-serif" font-size="14" lengthAdjust="spacing" textLength="28" x="244" y="688.041">&#20316;&#20026;</text><rect fill="#F1F1F1" height="37.6094" rx="12.5" ry="12.5" style="stroke:#181818;stroke-width:1.5;" width="118" x="332" y="634.7031"/><text fill="#000000" font-family="sans-serif" font-size="14" lengthAdjust="spacing" textLength="98" x="342" y="659.2363">&#31215;&#26497;&#30340;&#21046;&#36896;&#21361;&#38505;</text><path d="M282,682.3125 L292,682.3125 C307,682.3125 307,653.5078 322,653.5078 L332,653.5078 " fill="none" style="stroke:#181818;stroke-width:1;"/><rect fill="#F1F1F1" height="37.6094" rx="12.5" ry="12.5" style="stroke:#181818;stroke-width:1.5;" width="230" x="332" y="692.3125"/><text fill="#000000" font-family="sans-serif" font-size="14" lengthAdjust="spacing" textLength="210" x="342" y="716.8457">&#21046;&#36896;&#30340;&#21361;&#38505;&#36798;&#21040;&#36890;&#24120;&#24615;&#21361;&#38505;&#30340;&#31243;&#24230;</text><path d="M282,682.3125 L292,682.3125 C307,682.3125 307,711.1172 322,711.1172 L332,711.1172 " fill="none" style="stroke:#181818;stroke-width:1;"/><path d="M184,653.5078 L194,653.5078 C209,653.5078 209,682.3125 224,682.3125 L234,682.3125 " fill="none" style="stroke:#181818;stroke-width:1;"/><path d="M58,394.2656 L68,394.2656 C83,394.2656 83,653.5078 98,653.5078 L108,653.5078 " fill="none" style="stroke:#181818;stroke-width:1;"/><!--SRC=[xLVTJXj75BxVfvWgDu1aWmboKnHL10VKHZYAQfARgXVZzSHiMEzOkxD6LbN9LWdOW5kIjj1GGfC08GrD79G8cP-axv9wr_OLhz0pkpPUkrwlUra92o5ypdU-C-Ttc36DOPKb92MMm4b1-4HIH5cF4UJt3pf_D9QMoM1InWhJ4xAFutrWuBFaVWbaWi0a9XDKBXNAxpVBfUFAKj5dv1Og1oU2C82gJrT09Y3u3A2w6DK_0yYsE1VOme-PJNCbQsxcFsOU6mTRvUCVEi1ig8qpYm-DdxALzo_T4LilpP-BJiH0yy2jxh- -94ln6HPN2L6-GPNDtyrNsyxOElWebvuPEmUs3u2QIxlWwUmqDuNd0iEVdPtcEzZKikl6wVVdkE5We3FEN7x8AO7uv5TZwQsnz0BeQ_V_R5f-6YmVBPTB6LVxoibZyyVLyeVVQkllgcyA40CO_vt9cjbLCxDMBfsKZ_9DuLQsibzq2gl5h5buVUxlSg3xIVDxK78ZjsCil0MwwdRMUBtXCBxSsHWigtlRvYyFgi_spULLex06nfMJ1-RMOMLZtdY-QEnoEcF-hyf-CxiZWM0xNLlzWDUbXBmRTyorL-QJHMDnmRila7cOuydPcETH7kPgZtQCma7jqHzm5DvX3Wd77EMDfQTdfoj6uLsBuVfzI4-rkDi0vBsceR9NjAsDt64jyyJsq8QnLHnZQQiVFXYvDxNCXb4gcPczyqDLNYmRnyy5OOp0r3ScVwnr4Lor9ljpeIwuBk6uYXFeM_3eZyewiVv2Q1oBit6LwaeiH6Mg8YldN0_QxpWsXjLPbSHSu7Lj0smLgnkp1N2WqnxWT0DBLQp4tGvjAnlGfAucPJUehMn0tGDp1ALIpOtjqkJa-7Wer42cYIpJEHUihRIWWfyaaZDOapJlN3dHGovmRJPjbSo97UwUAoTq74JY3BHVJuUHuWfLIGzrGsXAKaYxl4dHezkkL9nCKQX85EQM6yLAEaAJL66sA2e3feqLXgD-DeK1cKGLB8TKAT48j8baD84PxOYzfP8aLZ6N_1UpQr6gCg-kwPMBCIWhyngK7jb2D07JmjogNRTqe-FLKKWS2WQapcHsMpfUXOeHadJsUwk32LY2KLdIPjmtbiE-rTlSZCJQS-FYvYPbtfwigCGqLdg8IiGnmiwTOL6KOkujtR99lPZlmgHfZl65xo89utj4znXYAiCHL1fpTA3723KiB3z9gabCIf5hecCS_hMDiKnw3QGP0jG2Ur8d9BW0-UhkfQVgjnWdr_JeFI9oUhViu1HSkqJjaJSbKPWWYvfwCVEyzvpkvY9l7TpkizhIovvNX02_hWxM_vEuU1zSl0yktWV_s_V1BVxslnsUGYcYQdnl1lp3GyCZ_Yjz4SpGJPf2WI0Q2eoEZ8oE154eCesukb_e2tyvZJIgmxM1Oh1KLIcgyqtJBzp0AOo-qc7l9CWeuj_wfiFzA3BH4A899IMfL4d0hX5kt0dR8FG5PP4aPHOuEE8RbnYA41MEXUw4XUlaBjPb1gOYZKbAV1JTdfxqNH6cO2VfE0wEu1O8mR9YQXfqaNy0]--></g></svg>