<svg xmlns="http://www.w3.org/2000/svg" xmlns:xlink="http://www.w3.org/1999/xlink" contentStyleType="text/css" height="599px" preserveAspectRatio="none" style="width:1661px;height:599px;background:#FFFFFF;" version="1.1" viewBox="0 0 1661 599" width="1661px" zoomAndPan="magnify"><title>&#19981;&#20316;&#20026;&#29359;-&#20316;&#20026;&#20041;&#21153;-&#23454;&#36136;&#30340;&#20108;&#20998;&#35828;</title><defs/><g><text fill="#000000" font-family="sans-serif" font-size="14" font-weight="bold" lengthAdjust="spacing" textLength="211.4492" x="723.421" y="34.5332">&#19981;&#20316;&#20026;&#29359;-&#20316;&#20026;&#20041;&#21153;-&#23454;&#36136;&#30340;&#20108;&#20998;&#35828;</text><rect fill="#F1F1F1" height="37.6094" rx="12.5" ry="12.5" style="stroke:#181818;stroke-width:1.5;" width="62" x="798.6456" y="48.6094"/><text fill="#000000" font-family="sans-serif" font-size="14" lengthAdjust="spacing" textLength="42" x="808.6456" y="73.1426">&#21361;&#38505;&#27969;</text><rect fill="#90EE90" height="37.6094" rx="12.5" ry="12.5" style="stroke:#181818;stroke-width:1.5;" width="65.8896" x="333.8052" y="111.2188"/><text fill="#000000" font-family="sans-serif" font-size="14" lengthAdjust="spacing" textLength="42" x="343.8052" y="135.752">&#21361;&#38505;&#28304;</text><rect fill="#90EE90" height="37.6094" rx="12.5" ry="12.5" style="stroke:#181818;stroke-width:1.5;" width="79.8896" x="326.8052" y="173.8281"/><text fill="#000000" font-family="sans-serif" font-size="14" lengthAdjust="spacing" textLength="56" x="336.8052" y="198.3613">&#30417;&#30563;&#20041;&#21153;</text><rect fill="#F1F1F1" height="37.6094" rx="12.5" ry="12.5" style="stroke:#181818;stroke-width:1.5;" width="174" x="51.75" y="236.4375"/><text fill="#000000" font-family="sans-serif" font-size="14" lengthAdjust="spacing" textLength="154" x="61.75" y="260.9707">&#33258;&#24049;&#30340;&#20808;&#34892;&#34892;&#20026;&#65288;&#33258;&#24049;&#65289;</text><rect fill="#90EE90" height="37.6094" rx="12.5" ry="12.5" style="stroke:#181818;stroke-width:1.5;" width="135.8896" x="70.8052" y="299.0469"/><text fill="#000000" font-family="sans-serif" font-size="14" lengthAdjust="spacing" textLength="112" x="80.8052" y="323.5801">&#23545;&#27861;&#30410;&#21019;&#35774;&#20102;&#21361;&#38505;</text><rect fill="#F1F1F1" height="37.6094" rx="12.5" ry="12.5" style="stroke:#181818;stroke-width:1.5;" width="76" x="100.75" y="361.6563"/><text fill="#000000" font-family="sans-serif" font-size="14" lengthAdjust="spacing" textLength="56" x="110.75" y="386.1895">&#29305;&#21035;&#27880;&#24847;</text><rect fill="#F1F1F1" height="37.6094" rx="12.5" ry="12.5" style="stroke:#181818;stroke-width:1.5;" width="76" x="85.5" y="424.2656"/><text fill="#000000" font-family="sans-serif" font-size="14" lengthAdjust="spacing" textLength="56" x="95.5" y="448.7988">&#21512;&#27861;&#34892;&#20026;</text><rect fill="#FFA500" height="37.6094" rx="12.5" ry="12.5" style="stroke:#181818;stroke-width:1.5;" width="76" x="55" y="486.875"/><text fill="#000000" font-family="sans-serif" font-size="14" lengthAdjust="spacing" textLength="56" x="65" y="511.4082">&#27491;&#24403;&#38450;&#21355;</text><rect fill="#F1F1F1" height="37.6094" rx="12.5" ry="12.5" style="stroke:#181818;stroke-width:1.5;" width="146" x="20" y="549.4844"/><text fill="#000000" font-family="sans-serif" font-size="14" lengthAdjust="spacing" textLength="126" x="30" y="574.0176">&#38450;&#21355;&#36807;&#24403;&#26377;&#25937;&#21161;&#20041;&#21153;</text><path d="M93,524.4844 L93,527.4844 C93,534.4844 93,539.4844 93,546.4844 L93,549.4844 " fill="none" style="stroke:#181818;stroke-width:1;"/><path d="M123.5,461.875 L123.5,464.875 C123.5,471.875 93,476.875 93,483.875 L93,486.875 " fill="none" style="stroke:#181818;stroke-width:1;"/><rect fill="#F1F1F1" height="37.6094" rx="12.5" ry="12.5" style="stroke:#181818;stroke-width:1.5;" width="76" x="151" y="486.875"/><text fill="#000000" font-family="sans-serif" font-size="14" lengthAdjust="spacing" textLength="56" x="161" y="511.4082">&#32039;&#24613;&#36991;&#38505;</text><path d="M123.5,461.875 L123.5,464.875 C123.5,471.875 189,476.875 189,483.875 L189,486.875 " fill="none" style="stroke:#181818;stroke-width:1;"/><path d="M138.75,399.2656 L138.75,402.2656 C138.75,409.2656 123.5,414.2656 123.5,421.2656 L123.5,424.2656 " fill="none" style="stroke:#181818;stroke-width:1;"/><rect fill="#F1F1F1" height="37.6094" rx="12.5" ry="12.5" style="stroke:#181818;stroke-width:1.5;" width="76" x="181.5" y="424.2656"/><text fill="#000000" font-family="sans-serif" font-size="14" lengthAdjust="spacing" textLength="56" x="191.5" y="448.7988">&#29359;&#32618;&#34892;&#20026;</text><path d="M138.75,399.2656 L138.75,402.2656 C138.75,409.2656 219.5,414.2656 219.5,421.2656 L219.5,424.2656 " fill="none" style="stroke:#181818;stroke-width:1;"/><path d="M138.75,336.6563 L138.75,339.6563 C138.75,346.6563 138.75,351.6563 138.75,358.6563 L138.75,361.6563 " fill="none" style="stroke:#181818;stroke-width:1;"/><path d="M138.75,274.0469 L138.75,277.0469 C138.75,284.0469 138.75,289.0469 138.75,296.0469 L138.75,299.0469 " fill="none" style="stroke:#181818;stroke-width:1;"/><path d="M366.75,211.4375 L366.75,214.4375 C366.75,221.4375 138.75,226.4375 138.75,233.4375 L138.75,236.4375 " fill="none" style="stroke:#181818;stroke-width:1;"/><rect fill="#F1F1F1" height="37.6094" rx="12.5" ry="12.5" style="stroke:#181818;stroke-width:1.5;" width="104" x="387.5" y="236.4375"/><text fill="#000000" font-family="sans-serif" font-size="14" lengthAdjust="spacing" textLength="84" x="397.5" y="260.9707">&#33258;&#24049;&#30340;&#21361;&#38505;&#29289;</text><rect fill="#F1F1F1" height="37.6094" rx="12.5" ry="12.5" style="stroke:#181818;stroke-width:1.5;" width="34" x="277.5" y="299.0469"/><text fill="#000000" font-family="sans-serif" font-size="14" lengthAdjust="spacing" textLength="14" x="287.5" y="323.5801">&#29399;</text><path d="M439.5,274.0469 L439.5,277.0469 C439.5,284.0469 294.5,289.0469 294.5,296.0469 L294.5,299.0469 " fill="none" style="stroke:#181818;stroke-width:1;"/><rect fill="#F1F1F1" height="37.6094" rx="12.5" ry="12.5" style="stroke:#181818;stroke-width:1.5;" width="118" x="331.5" y="299.0469"/><text fill="#000000" font-family="sans-serif" font-size="14" lengthAdjust="spacing" textLength="98" x="341.5" y="323.5801">&#26426;&#21160;&#36710;&#35753;&#20154;&#39550;&#39542;</text><rect fill="#F1F1F1" height="37.6094" rx="12.5" ry="12.5" style="stroke:#181818;stroke-width:1.5;" width="76" x="277.5" y="361.6563"/><text fill="#000000" font-family="sans-serif" font-size="14" lengthAdjust="spacing" textLength="56" x="287.5" y="386.1895">&#26080;&#39550;&#29031;&#32773;</text><path d="M390.5,336.6563 L390.5,339.6563 C390.5,346.6563 315.5,351.6563 315.5,358.6563 L315.5,361.6563 " fill="none" style="stroke:#181818;stroke-width:1;"/><rect fill="#F1F1F1" height="37.6094" rx="12.5" ry="12.5" style="stroke:#181818;stroke-width:1.5;" width="62" x="373.5" y="361.6563"/><text fill="#000000" font-family="sans-serif" font-size="14" lengthAdjust="spacing" textLength="42" x="383.5" y="386.1895">&#37257;&#37202;&#32773;</text><path d="M390.5,336.6563 L390.5,339.6563 C390.5,346.6563 404.5,351.6563 404.5,358.6563 L404.5,361.6563 " fill="none" style="stroke:#181818;stroke-width:1;"/><rect fill="#F1F1F1" height="37.6094" rx="12.5" ry="12.5" style="stroke:#181818;stroke-width:1.5;" width="48" x="455.5" y="361.6563"/><text fill="#000000" font-family="sans-serif" font-size="14" lengthAdjust="spacing" textLength="28" x="465.5" y="386.1895">&#23567;&#23401;</text><path d="M390.5,336.6563 L390.5,339.6563 C390.5,346.6563 479.5,351.6563 479.5,358.6563 L479.5,361.6563 " fill="none" style="stroke:#181818;stroke-width:1;"/><path d="M439.5,274.0469 L439.5,277.0469 C439.5,284.0469 390.5,289.0469 390.5,296.0469 L390.5,299.0469 " fill="none" style="stroke:#181818;stroke-width:1;"/><rect fill="#F1F1F1" height="37.6094" rx="12.5" ry="12.5" style="stroke:#181818;stroke-width:1.5;" width="132" x="469.5" y="299.0469"/><text fill="#000000" font-family="sans-serif" font-size="14" lengthAdjust="spacing" textLength="112" x="479.5" y="323.5801">&#20986;&#31199;&#30340;&#25151;&#23376;&#26377;&#21361;&#38505;</text><path d="M439.5,274.0469 L439.5,277.0469 C439.5,284.0469 535.5,289.0469 535.5,296.0469 L535.5,299.0469 " fill="none" style="stroke:#181818;stroke-width:1;"/><path d="M366.75,211.4375 L366.75,214.4375 C366.75,221.4375 439.5,226.4375 439.5,233.4375 L439.5,236.4375 " fill="none" style="stroke:#181818;stroke-width:1;"/><rect fill="#F1F1F1" height="37.6094" rx="12.5" ry="12.5" style="stroke:#181818;stroke-width:1.5;" width="202" x="511.5" y="236.4375"/><text fill="#000000" font-family="sans-serif" font-size="14" lengthAdjust="spacing" textLength="182" x="521.5" y="260.9707">&#20182;&#20154;&#30340;&#21361;&#38505;&#34892;&#20026;&#65288;&#30417;&#25252;&#20851;&#31995;&#65289;</text><path d="M366.75,211.4375 L366.75,214.4375 C366.75,221.4375 612.5,226.4375 612.5,233.4375 L612.5,236.4375 " fill="none" style="stroke:#181818;stroke-width:1;"/><path d="M366.75,148.8281 L366.75,151.8281 C366.75,158.8281 366.75,163.8281 366.75,170.8281 L366.75,173.8281 " fill="none" style="stroke:#181818;stroke-width:1;"/><path d="M829.6456,86.2188 L829.6456,89.2188 C829.6456,96.2188 366.75,101.2188 366.75,108.2188 L366.75,111.2188 " fill="none" style="stroke:#181818;stroke-width:1;"/><rect fill="#90EE90" height="37.6094" rx="12.5" ry="12.5" style="stroke:#181818;stroke-width:1.5;" width="79.8896" x="1146.4508" y="111.2188"/><text fill="#000000" font-family="sans-serif" font-size="14" lengthAdjust="spacing" textLength="56" x="1156.4508" y="135.752">&#27861;&#30410;&#23545;&#35937;</text><rect fill="#90EE90" height="37.6094" rx="12.5" ry="12.5" style="stroke:#181818;stroke-width:1.5;" width="79.8896" x="1146.4508" y="173.8281"/><text fill="#000000" font-family="sans-serif" font-size="14" lengthAdjust="spacing" textLength="56" x="1156.4508" y="198.3613">&#20445;&#25252;&#20041;&#21153;</text><rect fill="#F1F1F1" height="37.6094" rx="12.5" ry="12.5" style="stroke:#181818;stroke-width:1.5;" width="76" x="895.3896" y="236.4375"/><text fill="#000000" font-family="sans-serif" font-size="14" lengthAdjust="spacing" textLength="56" x="905.3896" y="260.9707">&#29305;&#23450;&#20851;&#31995;</text><rect fill="#F1F1F1" height="37.6094" rx="12.5" ry="12.5" style="stroke:#181818;stroke-width:1.5;" width="76" x="733.5" y="299.0469"/><text fill="#000000" font-family="sans-serif" font-size="14" lengthAdjust="spacing" textLength="56" x="743.5" y="323.5801">&#27861;&#24459;&#35268;&#23450;</text><path d="M933.3896,274.0469 L933.3896,277.0469 C933.3896,284.0469 771.5,289.0469 771.5,296.0469 L771.5,299.0469 " fill="none" style="stroke:#181818;stroke-width:1;"/><rect fill="#F1F1F1" height="37.6094" rx="12.5" ry="12.5" style="stroke:#181818;stroke-width:1.5;" width="90" x="829.5" y="299.0469"/><text fill="#000000" font-family="sans-serif" font-size="14" lengthAdjust="spacing" textLength="70" x="839.5" y="323.5801">&#32844;&#21153;&#12289;&#19994;&#21153;</text><path d="M933.3896,274.0469 L933.3896,277.0469 C933.3896,284.0469 874.5,289.0469 874.5,296.0469 L874.5,299.0469 " fill="none" style="stroke:#181818;stroke-width:1;"/><rect fill="#90EE90" height="37.6094" rx="12.5" ry="12.5" style="stroke:#181818;stroke-width:1.5;" width="79.8896" x="939.5" y="299.0469"/><text fill="#000000" font-family="sans-serif" font-size="14" lengthAdjust="spacing" textLength="56" x="949.5" y="323.5801">&#33258;&#24895;&#25937;&#21161;</text><rect fill="#F1F1F1" height="37.6094" rx="12.5" ry="12.5" style="stroke:#181818;stroke-width:1.5;" width="76" x="941.4448" y="361.6563"/><text fill="#000000" font-family="sans-serif" font-size="14" lengthAdjust="spacing" textLength="56" x="951.4448" y="386.1895">&#20381;&#36182;&#20851;&#31995;</text><rect fill="#90EE90" height="37.6094" rx="12.5" ry="12.5" style="stroke:#181818;stroke-width:1.5;" width="79.8896" x="825.6104" y="424.2656"/><text fill="#000000" font-family="sans-serif" font-size="14" lengthAdjust="spacing" textLength="56" x="835.6104" y="448.7988">&#29031;&#39038;&#24323;&#23156;</text><path d="M979.4448,399.2656 L979.4448,402.2656 C979.4448,409.2656 865.5552,414.2656 865.5552,421.2656 L865.5552,424.2656 " fill="none" style="stroke:#181818;stroke-width:1;"/><rect fill="#FFA500" height="37.6094" rx="12.5" ry="12.5" style="stroke:#181818;stroke-width:1.5;" width="93.8896" x="925.5" y="424.2656"/><text fill="#000000" font-family="sans-serif" font-size="14" lengthAdjust="spacing" textLength="70" x="935.5" y="448.7988">&#25438;&#36208;&#25937;&#29983;&#22280;</text><path d="M979.4448,399.2656 L979.4448,402.2656 C979.4448,409.2656 972.4448,414.2656 972.4448,421.2656 L972.4448,424.2656 " fill="none" style="stroke:#181818;stroke-width:1;"/><rect fill="#FFA500" height="37.6094" rx="12.5" ry="12.5" style="stroke:#181818;stroke-width:1.5;" width="93.8896" x="1039.3896" y="424.2656"/><text fill="#000000" font-family="sans-serif" font-size="14" lengthAdjust="spacing" textLength="70" x="1049.3896" y="448.7988">&#21361;&#38505;&#20849;&#21516;&#20307;</text><path d="M979.4448,399.2656 L979.4448,402.2656 C979.4448,409.2656 1086.3345,414.2656 1086.3345,421.2656 L1086.3345,424.2656 " fill="none" style="stroke:#181818;stroke-width:1;"/><path d="M979.4448,336.6563 L979.4448,339.6563 C979.4448,346.6563 979.4448,351.6563 979.4448,358.6563 L979.4448,361.6563 " fill="none" style="stroke:#181818;stroke-width:1;"/><path d="M933.3896,274.0469 L933.3896,277.0469 C933.3896,284.0469 979.4448,289.0469 979.4448,296.0469 L979.4448,299.0469 " fill="none" style="stroke:#181818;stroke-width:1;"/><path d="M1186.3956,211.4375 L1186.3956,214.4375 C1186.3956,221.4375 933.3896,226.4375 933.3896,233.4375 L933.3896,236.4375 " fill="none" style="stroke:#181818;stroke-width:1;"/><rect fill="#F1F1F1" height="37.6094" rx="12.5" ry="12.5" style="stroke:#181818;stroke-width:1.5;" width="76" x="1358.2853" y="236.4375"/><text fill="#000000" font-family="sans-serif" font-size="14" lengthAdjust="spacing" textLength="56" x="1368.2853" y="260.9707">&#29305;&#23450;&#39046;&#22495;</text><rect fill="#F1F1F1" height="37.6094" rx="12.5" ry="12.5" style="stroke:#181818;stroke-width:1.5;" width="203.5654" x="1198.1604" y="299.0469"/><text fill="#000000" font-family="sans-serif" font-size="14" lengthAdjust="spacing" textLength="183.5654" x="1208.1604" y="323.5801">1. &#34892;&#20026;&#20154;&#26159;&#29305;&#23450;&#39046;&#22495;&#30340;&#31649;&#29702;&#32773;</text><rect fill="#F1F1F1" height="42.75" rx="12.5" ry="12.5" style="stroke:#181818;stroke-width:1.5;" width="133.5518" x="1153.2793" y="361.6563"/><text fill="#000000" font-family="sans-serif" font-size="14" lengthAdjust="spacing" textLength="88.6621" x="1163.2793" y="391.3301">&#20027;&#20154;-&#23458;&#20154;&#20851;&#31995;</text><path d="M1275.9321,372.4583 C1275.1207,371.9322 1274.0375,372.1632 1273.5119,372.974 L1263.7061,388.0888 L1258.9239,383.6671 C1258.214,383.0108 1257.1074,383.054 1256.4511,383.7639 C1255.7949,384.4733 1255.8381,385.581 1256.548,386.2367 L1262.827,392.042 C1263.0072,392.1972 1263.0072,392.1972 1263.0906,392.2514 C1263.3846,392.4428 1263.7148,392.5338 1264.0415,392.5338 C1264.6143,392.5338 1265.1761,392.2526 1265.5115,391.7358 L1276.4478,374.8786 C1276.974,374.0678 1276.743,372.9839 1275.9321,372.4583 " fill="#FE0000" style="stroke:;stroke-width:0;stroke-dasharray:;"/><path d="M1299.9431,336.6563 L1299.9431,339.6563 C1299.9431,346.6563 1220.0552,351.6563 1220.0552,358.6563 L1220.0552,361.6563 " fill="none" style="stroke:#181818;stroke-width:1;"/><rect fill="#F1F1F1" height="42.75" rx="12.5" ry="12.5" style="stroke:#181818;stroke-width:1.5;" width="133.5518" x="1306.8311" y="361.6563"/><text fill="#000000" font-family="sans-serif" font-size="14" lengthAdjust="spacing" textLength="88.6621" x="1316.8311" y="391.3301">&#20027;&#20154;-&#20027;&#20154;&#20851;&#31995;</text><path d="M1422.355,382.1586 L1428.1201,376.3935 C1428.8037,375.7104 1428.8037,374.6021 1428.1201,373.9184 C1427.4364,373.2353 1426.3292,373.2353 1425.6456,373.9184 L1419.8805,379.6835 L1414.1154,373.919 C1413.4323,373.2353 1412.324,373.2353 1411.6403,373.919 C1410.9572,374.6021 1410.9572,375.7104 1411.6403,376.3941 L1417.4054,382.1586 L1411.6263,387.9377 C1410.9432,388.6208 1410.9432,389.7291 1411.6263,390.4122 C1411.9676,390.754 1412.4161,390.9249 1412.8636,390.9249 C1413.311,390.9249 1413.7596,390.754 1414.1014,390.4122 L1419.8799,384.6337 L1425.6444,390.3982 C1425.9862,390.74 1426.4342,390.9109 1426.8816,390.9109 C1427.3291,390.9109 1427.7771,390.74 1428.1189,390.3982 C1428.8026,389.7151 1428.8026,388.6068 1428.1189,387.9237 L1422.355,382.1586 " fill="#FE0000" style="stroke:;stroke-width:0;stroke-dasharray:;"/><rect fill="#F1F1F1" height="37.6094" rx="12.5" ry="12.5" style="stroke:#181818;stroke-width:1.5;" width="146" x="1300.6069" y="429.4063"/><text fill="#000000" font-family="sans-serif" font-size="14" lengthAdjust="spacing" textLength="126" x="1310.6069" y="453.9395">&#20004;&#20010;&#21516;&#23398;&#65292;&#23487;&#33293;&#30528;&#28779;</text><path d="M1373.6069,404.4063 L1373.6069,407.4063 C1373.6069,414.4063 1373.6069,419.4063 1373.6069,426.4063 L1373.6069,429.4063 " fill="none" style="stroke:#181818;stroke-width:1;"/><path d="M1299.9431,336.6563 L1299.9431,339.6563 C1299.9431,346.6563 1373.6069,351.6563 1373.6069,358.6563 L1373.6069,361.6563 " fill="none" style="stroke:#181818;stroke-width:1;"/><path d="M1396.2853,274.0469 L1396.2853,277.0469 C1396.2853,284.0469 1299.9431,289.0469 1299.9431,296.0469 L1299.9431,299.0469 " fill="none" style="stroke:#181818;stroke-width:1;"/><rect fill="#F1F1F1" height="37.6094" rx="12.5" ry="12.5" style="stroke:#181818;stroke-width:1.5;" width="217.5654" x="1421.7258" y="299.0469"/><text fill="#000000" font-family="sans-serif" font-size="14" lengthAdjust="spacing" textLength="197.5654" x="1431.7258" y="323.5801">2. &#34987;&#23475;&#20154;&#23545;&#34892;&#20026;&#20154;&#24418;&#25104;&#20381;&#36182;&#20851;&#31995;</text><path d="M1396.2853,274.0469 L1396.2853,277.0469 C1396.2853,284.0469 1530.5085,289.0469 1530.5085,296.0469 L1530.5085,299.0469 " fill="none" style="stroke:#181818;stroke-width:1;"/><path d="M1186.3956,211.4375 L1186.3956,214.4375 C1186.3956,221.4375 1396.2853,226.4375 1396.2853,233.4375 L1396.2853,236.4375 " fill="none" style="stroke:#181818;stroke-width:1;"/><path d="M1186.3956,148.8281 L1186.3956,151.8281 C1186.3956,158.8281 1186.3956,163.8281 1186.3956,170.8281 L1186.3956,173.8281 " fill="none" style="stroke:#181818;stroke-width:1;"/><path d="M829.6456,86.2188 L829.6456,89.2188 C829.6456,96.2188 1186.3956,101.2188 1186.3956,108.2188 L1186.3956,111.2188 " fill="none" style="stroke:#181818;stroke-width:1;"/><!--SRC=[xLXTJzjM6BxthpWJD-saf0MXgeeGegH5MrMgQj3UJ5DrufmcBhPFv9oaYwP9e14QAAXqNJ_MGXcqAqqHeGowGSh7ZwcFxLprB-or7OF3x3Yx1qKaEU_pVd_vP23FiCOKIKqhE2S8NqcgA1VI1CNZv_olF2l9v5nEnYehA7BCniU08UQSnoKu4mGcCPaWVMTEtr_GT-hcp4RC_QJlJlEPvHYllRAstval9lNwBAzCMHlRm4DpY56KeenH1QKbZOXCegeWV8tut6RZzwhnSK90y7VqlJwF-lg8ailYl9JlxtU8Bi1y-SXSVEqg2yQuEEl-U_xF9jZ1onLhUHPUOEENlOfx_cLlkWNVLBwnQsmzCL_EyCfBgtQWrwTSSyBr-EoQtkMLDMFhdJ7vC13IL35V0HMkDQ4m1_fz5zMmcY4_86FzDTz_t7Z-5vzRQylZgd21rk5zO38MfeqdZ_XCrGrOUut8t5urnlziJ1o2psryW9oR- -y3VF17tGcSELqD2BFvu5d0gR5GvpFlhFstLgsgr-kDwa6Z-dT8i8rdVm3TBAzQu-KGI6Dgkb7-DPpEFppawq7MyVjrStK9N30gXtnz7YBe-dB2K_tJKx3ooDEZ-eBwD6RUyFAMkVN9gp8ms2shZLrhSpciilN3HU2ChcoxqcelN0r1STnwmWyUMAkJ00eWMnEp8F_p-8I-yoAe8fmS6fE7RjbqKldwmQBryMc8FJwpowkDvGE-zmklRaUBRVeozyhw-05CCNzRuWiL7rjFMput9xoyoUTdzVt7RVYyS3PMflZIKa0qkkF8pIrastY-uKT3yitQiZa_5Lvb-iudu8EXk09lReXGNvT6qeaimSNIRJ5BnB7R2jR64ltjHRXl0IAKWioad2o9s9wfjtzCj0kCllD6ttaFKU7hRx_ipVBQeLMPCnV7pOcr0DzxmFULDLxRiZL3xNfnuFihHcM-9U_2087buYsOWTPzq-Sia7wXUN1PmXaDA-WdK1bFoGNYV49e48jZ6OqMr7IIobH3ifJ9CfiEr9zjR1hY18w7m9jK3vpH257RINO0FdGf0bpoiEvS3a6xH0-QAsWvEGpg4Zrek6C-fpIQ3vFMDJGqE9XCUiWIaMLwBmJh4Xse4FTQ8pfMVlJv47X-hEIap8_jQHyhFtGGZiGir5v7naWPbMgaWxmXT4rIoSdpOn4TgcqhoXQcgbGaAWkBZUe47Q4XgZBtA2K3veHKQ8wcRIe3OT3LM4vgak8vUeo4nodCQ23sXaPoM7DcmlzXkvIY6ekgcavbCGPfPL6Dqg6q95MWMrXOjfkSOUBixAWa0ma3eVvWjXiwKObA4vBprtkhWYim15EobC-6JomVVwksUrc9dOnDY9hhb4LhShmIIrZjm2iHfmaxKeP5KKg7btJB98sIV0SwBUzhN_Wkac5ybnGYcfZAO896qxuAZ6WXZyFHawDvYKb5SadqjSD_fZ6MIQUE7Bi0kS2HeXK95g0zkZkfgUOMiuNd2wcxzbMf61eTN8IrIxGEvHOb2XtaYAPHaksuTnpkuq7UshZjUxMbbYDNX03_-iurdoHEhw6drz3JQ-ZfDVJq6dfw3Gs_XjwmVycyENmD5OcMjzTpTxpdV4zl_EAP4SpGTLf4tHVG-Uv4Rs-Yzm9AZemYctnME3FyxIZAqm8ydS2Qo3DDIXLihyuALt4He-yAiDuKaa3sjpEZmsVHo1Nl45rHYv96LGLMcd3rrh0BGjzGDfAZp05Vw8qDIWoD40tCGhU6XSla3eRe0Qj8qvAQIQ2ReqEnYy8rcBi5d055yB2HX9t8j1BGHlu5]--></g></svg>