<svg xmlns="http://www.w3.org/2000/svg" xmlns:xlink="http://www.w3.org/1999/xlink" contentStyleType="text/css" height="367px" preserveAspectRatio="none" style="width:1212px;height:367px;background:#FFFFFF;" version="1.1" viewBox="0 0 1212 367" width="1212px" zoomAndPan="magnify"><defs/><g><rect fill="#F1F1F1" height="37.6094" rx="12.5" ry="12.5" style="stroke:#181818;stroke-width:1.5;" width="164.6621" x="10" y="164.0234"/><text fill="#000000" font-family="sans-serif" font-size="14" lengthAdjust="spacing" textLength="144.6621" x="20" y="188.5566">&#29359;&#32618;&#26082;&#36930;-&#22240;&#26524;&#20851;&#31995;&#21028;&#26029;</text><rect fill="#F1F1F1" height="37.6094" rx="12.5" ry="12.5" style="stroke:#181818;stroke-width:1.5;" width="76" x="224.6621" y="77.6094"/><text fill="#000000" font-family="sans-serif" font-size="14" lengthAdjust="spacing" textLength="56" x="234.6621" y="102.1426">&#20154;&#36523;&#29359;&#32618;</text><rect fill="#F1F1F1" height="37.6094" rx="12.5" ry="12.5" style="stroke:#181818;stroke-width:1.5;" width="48" x="350.6621" y="48.8047"/><text fill="#000000" font-family="sans-serif" font-size="14" lengthAdjust="spacing" textLength="28" x="360.6621" y="73.3379">&#19968;&#33324;</text><rect fill="#F1F1F1" height="37.6094" rx="12.5" ry="12.5" style="stroke:#181818;stroke-width:1.5;" width="80.6758" x="448.6621" y="20"/><text fill="#000000" font-family="sans-serif" font-size="14" lengthAdjust="spacing" textLength="60.6758" x="458.6621" y="44.5332">&#26377;A&#21017;&#26377;B</text><path d="M398.6621,67.6094 L408.6621,67.6094 C423.6621,67.6094 423.6621,38.8047 438.6621,38.8047 L448.6621,38.8047 " fill="none" style="stroke:#181818;stroke-width:1;"/><rect fill="#F1F1F1" height="37.6094" rx="12.5" ry="12.5" style="stroke:#181818;stroke-width:1.5;" width="104" x="448.6621" y="77.6094"/><text fill="#000000" font-family="sans-serif" font-size="14" lengthAdjust="spacing" textLength="84" x="458.6621" y="102.1426">&#23384;&#22312;&#20171;&#20837;&#22240;&#32032;</text><path d="M398.6621,67.6094 L408.6621,67.6094 C423.6621,67.6094 423.6621,96.4141 438.6621,96.4141 L448.6621,96.4141 " fill="none" style="stroke:#181818;stroke-width:1;"/><path d="M300.6621,96.4141 L310.6621,96.4141 C325.6621,96.4141 325.6621,67.6094 340.6621,67.6094 L350.6621,67.6094 " fill="none" style="stroke:#181818;stroke-width:1;"/><rect fill="#F1F1F1" height="37.6094" rx="12.5" ry="12.5" style="stroke:#181818;stroke-width:1.5;" width="62" x="350.6621" y="135.2188"/><text fill="#000000" font-family="sans-serif" font-size="14" lengthAdjust="spacing" textLength="42" x="360.6621" y="159.752">&#24378;&#22904;&#32618;</text><rect fill="#F1F1F1" height="37.6094" rx="12.5" ry="12.5" style="stroke:#181818;stroke-width:1.5;" width="76" x="462.6621" y="135.2188"/><text fill="#000000" font-family="sans-serif" font-size="14" lengthAdjust="spacing" textLength="56" x="472.6621" y="159.752">&#24378;&#21046;&#34892;&#20026;</text><rect fill="#F1F1F1" height="37.6094" rx="12.5" ry="12.5" style="stroke:#181818;stroke-width:1.5;" width="104" x="588.6621" y="135.2188"/><text fill="#000000" font-family="sans-serif" font-size="14" lengthAdjust="spacing" textLength="84" x="598.6621" y="159.752">&#21387;&#21046;&#22919;&#22899;&#21453;&#25239;</text><rect fill="#90EE90" height="37.6094" rx="12.5" ry="12.5" style="stroke:#181818;stroke-width:1.5;" width="177.8896" x="742.6621" y="135.2188"/><text fill="#000000" font-family="sans-serif" font-size="14" lengthAdjust="spacing" textLength="154" x="752.6621" y="159.752">&#22919;&#22899;&#22240;&#26080;&#27861;&#21453;&#25239;&#32780;&#34987;&#22904;&#28139;</text><path d="M692.6621,154.0234 L702.6621,154.0234 C717.6621,154.0234 717.6621,154.0234 732.6621,154.0234 L742.6621,154.0234 " fill="none" style="stroke:#181818;stroke-width:1;"/><path d="M538.6621,154.0234 L548.6621,154.0234 C563.6621,154.0234 563.6621,154.0234 578.6621,154.0234 L588.6621,154.0234 " fill="none" style="stroke:#181818;stroke-width:1;"/><path d="M412.6621,154.0234 L422.6621,154.0234 C437.6621,154.0234 437.6621,154.0234 452.6621,154.0234 L462.6621,154.0234 " fill="none" style="stroke:#181818;stroke-width:1;"/><path d="M300.6621,96.4141 L310.6621,96.4141 C325.6621,96.4141 325.6621,154.0234 340.6621,154.0234 L350.6621,154.0234 " fill="none" style="stroke:#181818;stroke-width:1;"/><path d="M174.6621,182.8281 L184.6621,182.8281 C199.6621,182.8281 199.6621,96.4141 214.6621,96.4141 L224.6621,96.4141 " fill="none" style="stroke:#181818;stroke-width:1;"/><rect fill="#F1F1F1" height="37.6094" rx="12.5" ry="12.5" style="stroke:#181818;stroke-width:1.5;" width="76" x="224.6621" y="250.4375"/><text fill="#000000" font-family="sans-serif" font-size="14" lengthAdjust="spacing" textLength="56" x="234.6621" y="274.9707">&#36130;&#20135;&#29359;&#32618;</text><rect fill="#F1F1F1" height="37.6094" rx="12.5" ry="12.5" style="stroke:#181818;stroke-width:1.5;" width="62" x="350.6621" y="192.8281"/><text fill="#000000" font-family="sans-serif" font-size="14" lengthAdjust="spacing" textLength="42" x="360.6621" y="217.3613">&#35784;&#39575;&#32618;</text><rect fill="#F1F1F1" height="37.6094" rx="12.5" ry="12.5" style="stroke:#181818;stroke-width:1.5;" width="76" x="462.6621" y="192.8281"/><text fill="#000000" font-family="sans-serif" font-size="14" lengthAdjust="spacing" textLength="56" x="472.6621" y="217.3613">&#27450;&#39575;&#34892;&#20026;</text><rect fill="#F1F1F1" height="37.6094" rx="12.5" ry="12.5" style="stroke:#181818;stroke-width:1.5;" width="132" x="588.6621" y="192.8281"/><text fill="#000000" font-family="sans-serif" font-size="14" lengthAdjust="spacing" textLength="112" x="598.6621" y="217.3613">&#23545;&#26041;&#38519;&#20837;&#35748;&#35782;&#38169;&#35823;</text><rect fill="#90EE90" height="37.6094" rx="12.5" ry="12.5" style="stroke:#181818;stroke-width:1.5;" width="191.8896" x="770.6621" y="192.8281"/><text fill="#000000" font-family="sans-serif" font-size="14" lengthAdjust="spacing" textLength="168" x="780.6621" y="217.3613">&#23545;&#26041;&#22522;&#20110;&#35748;&#35782;&#38169;&#35823;&#22788;&#20998;&#36130;&#29289;</text><rect fill="#F1F1F1" height="37.6094" rx="12.5" ry="12.5" style="stroke:#181818;stroke-width:1.5;" width="146" x="1012.5518" y="192.8281"/><text fill="#000000" font-family="sans-serif" font-size="14" lengthAdjust="spacing" textLength="126" x="1022.5518" y="217.3613">&#34892;&#20026;&#20154;&#22240;&#27492;&#21462;&#24471;&#36130;&#29289;</text><path d="M962.5518,211.6328 L972.5518,211.6328 C987.5518,211.6328 987.5518,211.6328 1002.5518,211.6328 L1012.5518,211.6328 " fill="none" style="stroke:#181818;stroke-width:1;"/><path d="M720.6621,211.6328 L730.6621,211.6328 C745.6621,211.6328 745.6621,211.6328 760.6621,211.6328 L770.6621,211.6328 " fill="none" style="stroke:#181818;stroke-width:1;"/><path d="M538.6621,211.6328 L548.6621,211.6328 C563.6621,211.6328 563.6621,211.6328 578.6621,211.6328 L588.6621,211.6328 " fill="none" style="stroke:#181818;stroke-width:1;"/><path d="M412.6621,211.6328 L422.6621,211.6328 C437.6621,211.6328 437.6621,211.6328 452.6621,211.6328 L462.6621,211.6328 " fill="none" style="stroke:#181818;stroke-width:1;"/><path d="M300.6621,269.2422 L310.6621,269.2422 C325.6621,269.2422 325.6621,211.6328 340.6621,211.6328 L350.6621,211.6328 " fill="none" style="stroke:#181818;stroke-width:1;"/><rect fill="#F1F1F1" height="37.6094" rx="12.5" ry="12.5" style="stroke:#181818;stroke-width:1.5;" width="90" x="350.6621" y="250.4375"/><text fill="#000000" font-family="sans-serif" font-size="14" lengthAdjust="spacing" textLength="70" x="360.6621" y="274.9707">&#25970;&#35784;&#21202;&#32034;&#32618;</text><rect fill="#F1F1F1" height="37.6094" rx="12.5" ry="12.5" style="stroke:#181818;stroke-width:1.5;" width="76" x="490.6621" y="250.4375"/><text fill="#000000" font-family="sans-serif" font-size="14" lengthAdjust="spacing" textLength="56" x="500.6621" y="274.9707">&#24656;&#21523;&#34892;&#20026;</text><rect fill="#F1F1F1" height="37.6094" rx="12.5" ry="12.5" style="stroke:#181818;stroke-width:1.5;" width="132" x="616.6621" y="250.4375"/><text fill="#000000" font-family="sans-serif" font-size="14" lengthAdjust="spacing" textLength="112" x="626.6621" y="274.9707">&#23545;&#26041;&#20135;&#29983;&#24656;&#24807;&#24515;&#29702;</text><rect fill="#90EE90" height="37.6094" rx="12.5" ry="12.5" style="stroke:#181818;stroke-width:1.5;" width="205.8896" x="798.6621" y="250.4375"/><text fill="#000000" font-family="sans-serif" font-size="14" lengthAdjust="spacing" textLength="182" x="808.6621" y="274.9707">&#23545;&#26041;&#22522;&#20110;&#24656;&#24807;&#24515;&#29702;&#32780;&#22788;&#20998;&#36130;&#29289;</text><rect fill="#F1F1F1" height="37.6094" rx="12.5" ry="12.5" style="stroke:#181818;stroke-width:1.5;" width="146" x="1054.5518" y="250.4375"/><text fill="#000000" font-family="sans-serif" font-size="14" lengthAdjust="spacing" textLength="126" x="1064.5518" y="274.9707">&#34892;&#20026;&#20154;&#22240;&#27492;&#21462;&#24471;&#36130;&#29289;</text><path d="M1004.5518,269.2422 L1014.5518,269.2422 C1029.5518,269.2422 1029.5518,269.2422 1044.5518,269.2422 L1054.5518,269.2422 " fill="none" style="stroke:#181818;stroke-width:1;"/><path d="M748.6621,269.2422 L758.6621,269.2422 C773.6621,269.2422 773.6621,269.2422 788.6621,269.2422 L798.6621,269.2422 " fill="none" style="stroke:#181818;stroke-width:1;"/><path d="M566.6621,269.2422 L576.6621,269.2422 C591.6621,269.2422 591.6621,269.2422 606.6621,269.2422 L616.6621,269.2422 " fill="none" style="stroke:#181818;stroke-width:1;"/><path d="M440.6621,269.2422 L450.6621,269.2422 C465.6621,269.2422 465.6621,269.2422 480.6621,269.2422 L490.6621,269.2422 " fill="none" style="stroke:#181818;stroke-width:1;"/><path d="M300.6621,269.2422 L310.6621,269.2422 C325.6621,269.2422 325.6621,269.2422 340.6621,269.2422 L350.6621,269.2422 " fill="none" style="stroke:#181818;stroke-width:1;"/><rect fill="#F1F1F1" height="37.6094" rx="12.5" ry="12.5" style="stroke:#181818;stroke-width:1.5;" width="62" x="350.6621" y="308.0469"/><text fill="#000000" font-family="sans-serif" font-size="14" lengthAdjust="spacing" textLength="42" x="360.6621" y="332.5801">&#25250;&#21163;&#32618;</text><rect fill="#F1F1F1" height="37.6094" rx="12.5" ry="12.5" style="stroke:#181818;stroke-width:1.5;" width="104" x="462.6621" y="308.0469"/><text fill="#000000" font-family="sans-serif" font-size="14" lengthAdjust="spacing" textLength="84" x="472.6621" y="332.5801">&#26292;&#21147;&#32961;&#36843;&#34892;&#20026;</text><rect fill="#F1F1F1" height="37.6094" rx="12.5" ry="12.5" style="stroke:#181818;stroke-width:1.5;" width="104" x="616.6621" y="308.0469"/><text fill="#000000" font-family="sans-serif" font-size="14" lengthAdjust="spacing" textLength="84" x="626.6621" y="332.5801">&#21387;&#21046;&#23545;&#26041;&#21453;&#25239;</text><rect fill="#90EE90" height="37.6094" rx="12.5" ry="12.5" style="stroke:#181818;stroke-width:1.5;" width="177.8896" x="770.6621" y="308.0469"/><text fill="#000000" font-family="sans-serif" font-size="14" lengthAdjust="spacing" textLength="154" x="780.6621" y="332.5801">&#23545;&#26041;&#26080;&#27861;&#21453;&#25239;&#32780;&#20132;&#20184;&#36130;&#29289;</text><rect fill="#F1F1F1" height="37.6094" rx="12.5" ry="12.5" style="stroke:#181818;stroke-width:1.5;" width="146" x="998.5518" y="308.0469"/><text fill="#000000" font-family="sans-serif" font-size="14" lengthAdjust="spacing" textLength="126" x="1008.5518" y="332.5801">&#34892;&#20026;&#20154;&#22240;&#27492;&#21462;&#24471;&#36130;&#29289;</text><path d="M948.5518,326.8516 L958.5518,326.8516 C973.5518,326.8516 973.5518,326.8516 988.5518,326.8516 L998.5518,326.8516 " fill="none" style="stroke:#181818;stroke-width:1;"/><path d="M720.6621,326.8516 L730.6621,326.8516 C745.6621,326.8516 745.6621,326.8516 760.6621,326.8516 L770.6621,326.8516 " fill="none" style="stroke:#181818;stroke-width:1;"/><path d="M566.6621,326.8516 L576.6621,326.8516 C591.6621,326.8516 591.6621,326.8516 606.6621,326.8516 L616.6621,326.8516 " fill="none" style="stroke:#181818;stroke-width:1;"/><path d="M412.6621,326.8516 L422.6621,326.8516 C437.6621,326.8516 437.6621,326.8516 452.6621,326.8516 L462.6621,326.8516 " fill="none" style="stroke:#181818;stroke-width:1;"/><path d="M300.6621,269.2422 L310.6621,269.2422 C325.6621,269.2422 325.6621,326.8516 340.6621,326.8516 L350.6621,326.8516 " fill="none" style="stroke:#181818;stroke-width:1;"/><path d="M174.6621,182.8281 L184.6621,182.8281 C199.6621,182.8281 199.6621,269.2422 214.6621,269.2422 L224.6621,269.2422 " fill="none" style="stroke:#181818;stroke-width:1;"/><!--SRC=[xLTTJnj757tVNp5LNo2IJOWGYX12W0Dg8nn5DSdxU7TY9kpkMBEpZgmAAPI6Ef0cg4qWDAYXo3Hj76gfe8QOjlapdlNoBtBtms71hDULsfSA2mbyxvbpxvdxiSku9J0N1ZKr0nSLvHDgghgj4PHE3qH_B57MoK1HnwQm3JtbuLDm8ENRqnHiYd89jLRghRzUEnixnujVfUIBRUV7BVbWlxL_92jLPtrFGV2vX9gDXjke1LZV59eFxxkLDnyDWT7PUZWXAvlmQ_ACH-uzbrk_D8zMvODT2DKws8vmoJyRSlSmodzYh_pX_lIeUTWuvGhTZrV1BN_-HkxkooVVEYiR7Q0G6410uSQsi_yimBht7xaxDOZhlAsXqL5Y5EUmHQsniL2tUx3JRBpgqEtMAyUlDpfpTTuqm1wVQ_sTi_xkUFCjw7T_gxhrvUEdcswz7fUn3vSl6yt6uoXSLh-MbML8hVNmrywap-SASe8oUXUmLvLFrkNV6m55H9Vpx7UG9bU_Qu6dKztYcbpxFa6TTrrFNmBKMNebto-rrfPxK1U5Gqd-Gu4hEtAbTewq7mxaoWjtQT5zNqjgjI3lhgtcGyxqMRDHRHuz__T4ASeuWGtGtWBZfvV2g3_bOqfek4PnWMC3VGd1qddT9lvV24rYTRx0cMrg6QOpZdHQc1EU7xmB7bR3V9uJBGOUUjlW0YV4xCRi0oBeSWAutCOoZir2NDA1imqjshoenq43PniQBomYYZChZktJwUd9oKocZImJNMVtOh21quSgQMgQJ2McYC5Qfez4Q9gP8Z3bTS3ujXbgai065Iqh0Pq0CifCh6SuDThfdY05Cx1Wvs9lSbB477kMVt9i8i-uI9BQAvSGC0qYgRezicMO0IKMSJKBJyRHmITjaW8q8916BxFRf2GLIYEaQCsNVVH2Hu0fcDoyJgsv-36Bd3yTxTuS5MVl9YRC3IQI8_cgr38sUr2bOes8Zy6mgb8jlgLFZNyIynt6YHMYFMxuhf8ilajithKS1QP32fnfaGvC6A7s2JzEaLbKq1APK2FZqB52i4vw5N8Y0Mg14waD2blRspUzz5IuUZrooyxV9Qf77tSxk0JF2i9xv2rH1XFaKxCaPk_UUxxkS9OzulRpBxbVpWnvzxa-rVVTDue_xGlAw43ugBnu6Rvu6Rvu6VvVl0pVzFxflPMTGIN2BM_V3gQlNBuobBxQbyC2tM0bD3YCBW-E30sD30sZJ6uMUUv-fI_x-Iooc0sF6wJ1CkOqRtjRfr-vZaiOVM733ZB82FA-zSrc-r5kgcr4KsQ9ScOQi7UKwxUp0GXznaIko8GF7XvAJLA1SeH3MkXsLhb6xc1R5t1KPHer2oFerknqwgeo0_l9nWK81Eil0ujBy3BuSXy0]--></g></svg>