<svg xmlns="http://www.w3.org/2000/svg" xmlns:xlink="http://www.w3.org/1999/xlink" contentStyleType="text/css" height="1491px" preserveAspectRatio="none" style="width:1683px;height:1491px;background:#FFFFFF;" version="1.1" viewBox="0 0 1683 1491" width="1683px" zoomAndPan="magnify"><title>&#29359;&#32618;&#24418;&#24577;-&#29359;&#32618;&#26410;&#36930;&#21644;&#29359;&#32618;&#20013;&#27490;</title><defs/><g><text fill="#000000" font-family="sans-serif" font-size="14" font-weight="bold" lengthAdjust="spacing" textLength="192.3496" x="744.27" y="34.5332">&#29359;&#32618;&#24418;&#24577;-&#29359;&#32618;&#26410;&#36930;&#21644;&#29359;&#32618;&#20013;&#27490;</text><rect fill="#F1F1F1" height="37.6094" rx="12.5" ry="12.5" style="stroke:#181818;stroke-width:1.5;" width="146" x="10" y="745.1406"/><text fill="#000000" font-family="sans-serif" font-size="14" lengthAdjust="spacing" textLength="126" x="20" y="769.6738">&#29359;&#32618;&#26410;&#36930;&#21644;&#29359;&#32618;&#20013;&#27490;</text><rect fill="#90EE90" height="37.6094" rx="12.5" ry="12.5" style="stroke:#181818;stroke-width:1.5;" width="79.8896" x="206" y="87.4141"/><text fill="#000000" font-family="sans-serif" font-size="14" lengthAdjust="spacing" textLength="56" x="216" y="111.9473">&#21306;&#20998;&#26631;&#20934;</text><rect fill="#90EE90" height="37.6094" rx="12.5" ry="12.5" style="stroke:#181818;stroke-width:1.5;" width="48" x="335.8896" y="58.6094"/><text fill="#000000" font-family="sans-serif" font-size="14" lengthAdjust="spacing" textLength="28" x="345.8896" y="83.1426">&#20013;&#27490;</text><rect fill="#90EE90" height="37.6094" rx="12.5" ry="12.5" style="stroke:#181818;stroke-width:1.5;" width="118" x="433.8896" y="58.6094"/><text fill="#000000" font-family="sans-serif" font-size="14" lengthAdjust="spacing" textLength="98" x="443.8896" y="83.1426">&#33021;&#36798;&#30446;&#30340;&#32780;&#19981;&#27442;</text><path d="M383.8896,77.4141 L393.8896,77.4141 C408.8896,77.4141 408.8896,77.4141 423.8896,77.4141 L433.8896,77.4141 " fill="none" style="stroke:#181818;stroke-width:1;"/><path d="M285.8896,106.2188 L295.8896,106.2188 C310.8896,106.2188 310.8896,77.4141 325.8896,77.4141 L335.8896,77.4141 " fill="none" style="stroke:#181818;stroke-width:1;"/><rect fill="#90EE90" height="37.6094" rx="12.5" ry="12.5" style="stroke:#181818;stroke-width:1.5;" width="48" x="335.8896" y="116.2188"/><text fill="#000000" font-family="sans-serif" font-size="14" lengthAdjust="spacing" textLength="28" x="345.8896" y="140.752">&#26410;&#36930;</text><rect fill="#90EE90" height="37.6094" rx="12.5" ry="12.5" style="stroke:#181818;stroke-width:1.5;" width="118" x="433.8896" y="116.2188"/><text fill="#000000" font-family="sans-serif" font-size="14" lengthAdjust="spacing" textLength="98" x="443.8896" y="140.752">&#27442;&#36798;&#30446;&#30340;&#32780;&#19981;&#33021;</text><path d="M383.8896,135.0234 L393.8896,135.0234 C408.8896,135.0234 408.8896,135.0234 423.8896,135.0234 L433.8896,135.0234 " fill="none" style="stroke:#181818;stroke-width:1;"/><path d="M285.8896,106.2188 L295.8896,106.2188 C310.8896,106.2188 310.8896,135.0234 325.8896,135.0234 L335.8896,135.0234 " fill="none" style="stroke:#181818;stroke-width:1;"/><path d="M156,763.9453 L166,763.9453 C181,763.9453 181,106.2188 196,106.2188 L206,106.2188 " fill="none" style="stroke:#181818;stroke-width:1;"/><rect fill="#F1F1F1" height="37.6094" rx="12.5" ry="12.5" style="stroke:#181818;stroke-width:1.5;" width="48" x="206" y="173.8281"/><text fill="#000000" font-family="sans-serif" font-size="14" lengthAdjust="spacing" textLength="28" x="216" y="198.3613">&#19977;&#27493;</text><rect fill="#90EE90" height="37.6094" rx="12.5" ry="12.5" style="stroke:#181818;stroke-width:1.5;" width="191.8896" x="304" y="173.8281"/><text fill="#000000" font-family="sans-serif" font-size="14" lengthAdjust="spacing" textLength="168" x="314" y="198.3613">&#33021;&#22815;&#32487;&#32493;&#29359;&#32618;&#65288;&#22806;&#22312;&#26465;&#20214;&#65289;</text><rect fill="#90EE90" height="37.6094" rx="12.5" ry="12.5" style="stroke:#181818;stroke-width:1.5;" width="149.8896" x="545.8896" y="173.8281"/><text fill="#000000" font-family="sans-serif" font-size="14" lengthAdjust="spacing" textLength="126" x="555.8896" y="198.3613">&#26159;&#21542;&#24819;&#20572;&#27490;&#65288;&#20027;&#35266;&#65289;</text><rect fill="#90EE90" height="37.6094" rx="12.5" ry="12.5" style="stroke:#181818;stroke-width:1.5;" width="121.8896" x="745.7793" y="173.8281"/><text fill="#000000" font-family="sans-serif" font-size="14" lengthAdjust="spacing" textLength="98" x="755.7793" y="198.3613">&#26377;&#25928;&#24615;&#65288;&#32467;&#26524;&#65289;</text><path d="M695.7793,192.6328 L705.7793,192.6328 C720.7793,192.6328 720.7793,192.6328 735.7793,192.6328 L745.7793,192.6328 " fill="none" style="stroke:#181818;stroke-width:1;"/><path d="M495.8896,192.6328 L505.8896,192.6328 C520.8896,192.6328 520.8896,192.6328 535.8896,192.6328 L545.8896,192.6328 " fill="none" style="stroke:#181818;stroke-width:1;"/><path d="M254,192.6328 L264,192.6328 C279,192.6328 279,192.6328 294,192.6328 L304,192.6328 " fill="none" style="stroke:#181818;stroke-width:1;"/><path d="M156,763.9453 L166,763.9453 C181,763.9453 181,192.6328 196,192.6328 L206,192.6328 " fill="none" style="stroke:#181818;stroke-width:1;"/><rect fill="#F1F1F1" height="37.6094" rx="12.5" ry="12.5" style="stroke:#181818;stroke-width:1.5;" width="76" x="206" y="831.5547"/><text fill="#000000" font-family="sans-serif" font-size="14" lengthAdjust="spacing" textLength="56" x="216" y="856.0879">&#29305;&#27530;&#22330;&#26223;</text><rect fill="#90EE90" height="37.6094" rx="12.5" ry="12.5" style="stroke:#181818;stroke-width:1.5;" width="135.8896" x="332" y="488.2891"/><text fill="#000000" font-family="sans-serif" font-size="14" lengthAdjust="spacing" textLength="112" x="342" y="512.8223">&#35748;&#35782;&#38169;&#35823;&#65288;&#20027;&#35266;&#65289;</text><rect fill="#F1F1F1" height="37.6094" rx="12.5" ry="12.5" style="stroke:#181818;stroke-width:1.5;" width="76" x="517.8896" y="231.4375"/><text fill="#000000" font-family="sans-serif" font-size="14" lengthAdjust="spacing" textLength="56" x="527.8896" y="255.9707">&#21028;&#26029;&#26631;&#20934;</text><rect fill="#90EE90" height="37.6094" rx="12.5" ry="12.5" style="stroke:#181818;stroke-width:1.5;" width="219.8896" x="643.8896" y="231.4375"/><text fill="#000000" font-family="sans-serif" font-size="14" lengthAdjust="spacing" textLength="196" x="653.8896" y="255.9707">&#30475;&#20027;&#35266;&#65292;&#20027;&#35266;&#24590;&#20040;&#24819;&#65292;&#23601;&#24590;&#20040;&#23450;</text><path d="M593.8896,250.2422 L603.8896,250.2422 C618.8896,250.2422 618.8896,250.2422 633.8896,250.2422 L643.8896,250.2422 " fill="none" style="stroke:#181818;stroke-width:1;"/><path d="M467.8896,507.0938 L477.8896,507.0938 C492.8896,507.0938 492.8896,250.2422 507.8896,250.2422 L517.8896,250.2422 " fill="none" style="stroke:#181818;stroke-width:1;"/><rect fill="#F1F1F1" height="37.6094" rx="12.5" ry="12.5" style="stroke:#181818;stroke-width:1.5;" width="48" x="517.8896" y="517.0938"/><text fill="#000000" font-family="sans-serif" font-size="14" lengthAdjust="spacing" textLength="28" x="527.8896" y="541.627">&#26469;&#28304;</text><rect fill="#F1F1F1" height="37.6094" rx="12.5" ry="12.5" style="stroke:#181818;stroke-width:1.5;" width="76" x="615.8896" y="344.2656"/><text fill="#000000" font-family="sans-serif" font-size="14" lengthAdjust="spacing" textLength="56" x="625.8896" y="368.7988">&#33258;&#24049;&#21407;&#22240;</text><rect fill="#F1F1F1" height="37.6094" rx="12.5" ry="12.5" style="stroke:#181818;stroke-width:1.5;" width="48" x="741.8896" y="344.2656"/><text fill="#000000" font-family="sans-serif" font-size="14" lengthAdjust="spacing" textLength="28" x="751.8896" y="368.7988">&#26696;&#20363;</text><rect fill="#F1F1F1" height="37.6094" rx="12.5" ry="12.5" style="stroke:#181818;stroke-width:1.5;" width="48" x="839.8896" y="297.8516"/><text fill="#000000" font-family="sans-serif" font-size="14" lengthAdjust="spacing" textLength="28" x="849.8896" y="322.3848">&#26410;&#36930;</text><rect fill="#F1F1F1" height="55.2188" rx="12.5" ry="12.5" style="stroke:#181818;stroke-width:1.5;" width="258" x="937.8896" y="289.0469"/><text fill="#000000" font-family="sans-serif" font-size="14" lengthAdjust="spacing" textLength="224" x="947.8896" y="313.5801">&#30002;&#20837;&#23460;&#30423;&#31363;&#65292;&#24573;&#28982;&#21548;&#21040;&#38376;&#22806;&#33050;&#27493;&#22768;&#65292;</text><text fill="#000000" font-family="sans-serif" font-size="14" lengthAdjust="spacing" textLength="238" x="947.8896" y="331.1895">&#20197;&#20026;&#20027;&#20154;&#35201;&#22238;&#23478;&#20102;&#65292;&#36214;&#32039;&#20174;&#38451;&#21488;&#36867;&#31163;&#12290;</text><rect fill="#F1F1F1" height="37.6094" rx="12.5" ry="12.5" style="stroke:#181818;stroke-width:1.5;" width="76" x="1245.8896" y="297.8516"/><text fill="#000000" font-family="sans-serif" font-size="14" lengthAdjust="spacing" textLength="56" x="1255.8896" y="322.3848">&#29359;&#32618;&#26410;&#36930;</text><path d="M1195.8896,316.6563 L1205.8896,316.6563 C1220.8896,316.6563 1220.8896,316.6563 1235.8896,316.6563 L1245.8896,316.6563 " fill="none" style="stroke:#181818;stroke-width:1;"/><path d="M887.8896,316.6563 L897.8896,316.6563 C912.8896,316.6563 912.8896,316.6563 927.8896,316.6563 L937.8896,316.6563 " fill="none" style="stroke:#181818;stroke-width:1;"/><path d="M789.8896,363.0703 L799.8896,363.0703 C814.8896,363.0703 814.8896,316.6563 829.8896,316.6563 L839.8896,316.6563 " fill="none" style="stroke:#181818;stroke-width:1;"/><rect fill="#F1F1F1" height="37.6094" rx="12.5" ry="12.5" style="stroke:#181818;stroke-width:1.5;" width="48" x="839.8896" y="381.875"/><text fill="#000000" font-family="sans-serif" font-size="14" lengthAdjust="spacing" textLength="28" x="849.8896" y="406.4082">&#20013;&#27490;</text><rect fill="#F1F1F1" height="72.8281" rx="12.5" ry="12.5" style="stroke:#181818;stroke-width:1.5;" width="300" x="937.8896" y="364.2656"/><text fill="#000000" font-family="sans-serif" font-size="14" lengthAdjust="spacing" textLength="196" x="947.8896" y="388.7988">&#30002;&#24819;&#26432;&#20057;&#65292;&#23558;&#20057;&#25512;&#19979;&#36807;&#34903;&#22825;&#26725;&#65292;</text><text fill="#000000" font-family="sans-serif" font-size="14" lengthAdjust="spacing" textLength="266" x="947.8896" y="406.4082">&#30475;&#21040;&#20057;&#21313;&#20998;&#30171;&#33510;&#65292;&#21448;&#24320;&#36710;&#36865;&#20057;&#21040;&#21307;&#38498;&#25250;&#25937;&#12290;</text><text fill="#000000" font-family="sans-serif" font-size="14" lengthAdjust="spacing" textLength="280" x="947.8896" y="424.0176">&#23454;&#38469;&#19978;&#65292;&#20057;&#26410;&#21463;&#33268;&#21629;&#20260;&#65292;&#19981;&#36865;&#21307;&#38498;&#20063;&#27515;&#19981;&#20102;&#12290;</text><path d="M887.8896,400.6797 L897.8896,400.6797 C912.8896,400.6797 912.8896,400.6797 927.8896,400.6797 L937.8896,400.6797 " fill="none" style="stroke:#181818;stroke-width:1;"/><path d="M789.8896,363.0703 L799.8896,363.0703 C814.8896,363.0703 814.8896,400.6797 829.8896,400.6797 L839.8896,400.6797 " fill="none" style="stroke:#181818;stroke-width:1;"/><path d="M691.8896,363.0703 L701.8896,363.0703 C716.8896,363.0703 716.8896,363.0703 731.8896,363.0703 L741.8896,363.0703 " fill="none" style="stroke:#181818;stroke-width:1;"/><path d="M565.8896,535.8984 L575.8896,535.8984 C590.8896,535.8984 590.8896,363.0703 605.8896,363.0703 L615.8896,363.0703 " fill="none" style="stroke:#181818;stroke-width:1;"/><rect fill="#F1F1F1" height="37.6094" rx="12.5" ry="12.5" style="stroke:#181818;stroke-width:1.5;" width="76" x="615.8896" y="601.1172"/><text fill="#000000" font-family="sans-serif" font-size="14" lengthAdjust="spacing" textLength="56" x="625.8896" y="625.6504">&#21035;&#20154;&#27450;&#39575;</text><rect fill="#F1F1F1" height="37.6094" rx="12.5" ry="12.5" style="stroke:#181818;stroke-width:1.5;" width="48" x="741.8896" y="601.1172"/><text fill="#000000" font-family="sans-serif" font-size="14" lengthAdjust="spacing" textLength="28" x="751.8896" y="625.6504">&#26696;&#20363;</text><rect fill="#F1F1F1" height="37.6094" rx="12.5" ry="12.5" style="stroke:#181818;stroke-width:1.5;" width="48" x="839.8896" y="514.7031"/><text fill="#000000" font-family="sans-serif" font-size="14" lengthAdjust="spacing" textLength="28" x="849.8896" y="539.2363">&#26410;&#36930;</text><rect fill="#F1F1F1" height="55.2188" rx="12.5" ry="12.5" style="stroke:#181818;stroke-width:1.5;" width="267.3242" x="937.8896" y="505.8984"/><text fill="#000000" font-family="sans-serif" font-size="14" lengthAdjust="spacing" textLength="247.3242" x="947.8896" y="530.4316">&#30002;&#24378;&#22904;&#20057;&#22899;&#65292;&#20057;&#22899;&#27450;&#39575;&#30002;&#65306;&#8220;&#25105;&#26377;&#24615;&#30149;&#8221;&#12290;</text><text fill="#000000" font-family="sans-serif" font-size="14" lengthAdjust="spacing" textLength="126" x="947.8896" y="548.041">&#30002;&#20449;&#20197;&#20026;&#30495;&#65292;&#25918;&#24323;&#12290;</text><rect fill="#F1F1F1" height="37.6094" rx="12.5" ry="12.5" style="stroke:#181818;stroke-width:1.5;" width="188" x="1255.2139" y="457.0938"/><text fill="#000000" font-family="sans-serif" font-size="14" lengthAdjust="spacing" textLength="168" x="1265.2139" y="481.627">&#38382;&#65306;&#33021;&#21542;&#32487;&#32493;&#23454;&#26045;&#24378;&#22904;&#32618;&#65311;</text><path d="M1205.2139,533.5078 L1215.2139,533.5078 C1230.2139,533.5078 1230.2139,475.8984 1245.2139,475.8984 L1255.2139,475.8984 " fill="none" style="stroke:#181818;stroke-width:1;"/><rect fill="#F1F1F1" height="37.6094" rx="12.5" ry="12.5" style="stroke:#181818;stroke-width:1.5;" width="174" x="1255.2139" y="514.7031"/><text fill="#000000" font-family="sans-serif" font-size="14" lengthAdjust="spacing" textLength="154" x="1265.2139" y="539.2363">&#31572;&#65306;&#19968;&#33324;&#20154;&#35748;&#20026;&#65292;&#19981;&#33021;&#12290;</text><path d="M1205.2139,533.5078 L1215.2139,533.5078 C1230.2139,533.5078 1230.2139,533.5078 1245.2139,533.5078 L1255.2139,533.5078 " fill="none" style="stroke:#181818;stroke-width:1;"/><rect fill="#F1F1F1" height="37.6094" rx="12.5" ry="12.5" style="stroke:#181818;stroke-width:1.5;" width="62" x="1255.2139" y="572.3125"/><text fill="#000000" font-family="sans-serif" font-size="14" lengthAdjust="spacing" textLength="42" x="1265.2139" y="596.8457">&#23450;&#26410;&#36930;</text><path d="M1205.2139,533.5078 L1215.2139,533.5078 C1230.2139,533.5078 1230.2139,591.1172 1245.2139,591.1172 L1255.2139,591.1172 " fill="none" style="stroke:#181818;stroke-width:1;"/><path d="M887.8896,533.5078 L897.8896,533.5078 C912.8896,533.5078 912.8896,533.5078 927.8896,533.5078 L937.8896,533.5078 " fill="none" style="stroke:#181818;stroke-width:1;"/><path d="M789.8896,619.9219 L799.8896,619.9219 C814.8896,619.9219 814.8896,533.5078 829.8896,533.5078 L839.8896,533.5078 " fill="none" style="stroke:#181818;stroke-width:1;"/><rect fill="#F1F1F1" height="37.6094" rx="12.5" ry="12.5" style="stroke:#181818;stroke-width:1.5;" width="48" x="839.8896" y="687.5313"/><text fill="#000000" font-family="sans-serif" font-size="14" lengthAdjust="spacing" textLength="28" x="849.8896" y="712.0645">&#20013;&#27490;</text><rect fill="#F1F1F1" height="72.8281" rx="12.5" ry="12.5" style="stroke:#181818;stroke-width:1.5;" width="272" x="937.8896" y="669.9219"/><text fill="#000000" font-family="sans-serif" font-size="14" lengthAdjust="spacing" textLength="252" x="947.8896" y="694.4551">&#30002;&#25235;&#20303;&#22919;&#22899;&#20057;&#30340;&#25163;&#33109;&#65292;&#27442;&#32465;&#26550;&#20057;&#21518;&#20986;&#21334;&#12290;</text><text fill="#000000" font-family="sans-serif" font-size="14" lengthAdjust="spacing" textLength="233.3242" x="947.8896" y="712.0645">&#20057;&#27450;&#39575;&#30002;&#65306;&#8220;&#25105;&#26377;&#24615;&#30149;&#65292;&#19981;&#20250;&#26377;&#20154;&#35201;&#8221;&#12290;</text><text fill="#000000" font-family="sans-serif" font-size="14" lengthAdjust="spacing" textLength="126" x="947.8896" y="729.6738">&#30002;&#20449;&#20197;&#20026;&#30495;&#65292;&#25918;&#24323;&#12290;</text><rect fill="#F1F1F1" height="37.6094" rx="12.5" ry="12.5" style="stroke:#181818;stroke-width:1.5;" width="216" x="1259.8896" y="629.9219"/><text fill="#000000" font-family="sans-serif" font-size="14" lengthAdjust="spacing" textLength="196" x="1269.8896" y="654.4551">&#38382;&#65306;&#33021;&#22815;&#32487;&#32493;&#23454;&#26045;&#25296;&#21334;&#22919;&#22899;&#32618;&#65311;</text><path d="M1209.8896,706.3359 L1219.8896,706.3359 C1234.8896,706.3359 1234.8896,648.7266 1249.8896,648.7266 L1259.8896,648.7266 " fill="none" style="stroke:#181818;stroke-width:1;"/><rect fill="#F1F1F1" height="37.6094" rx="12.5" ry="12.5" style="stroke:#181818;stroke-width:1.5;" width="62" x="1259.8896" y="687.5313"/><text fill="#000000" font-family="sans-serif" font-size="14" lengthAdjust="spacing" textLength="42" x="1269.8896" y="712.0645">&#31572;&#65306;&#33021;</text><path d="M1209.8896,706.3359 L1219.8896,706.3359 C1234.8896,706.3359 1234.8896,706.3359 1249.8896,706.3359 L1259.8896,706.3359 " fill="none" style="stroke:#181818;stroke-width:1;"/><rect fill="#F1F1F1" height="37.6094" rx="12.5" ry="12.5" style="stroke:#181818;stroke-width:1.5;" width="412" x="1259.8896" y="745.1406"/><text fill="#000000" font-family="sans-serif" font-size="14" lengthAdjust="spacing" textLength="392" x="1269.8896" y="769.6738">&#30002;&#20173;&#33021;&#22815;&#32487;&#32493;&#23454;&#26045;&#65292;&#21482;&#26159;&#35273;&#24471;&#21334;&#19981;&#21040;&#22909;&#20215;&#38065;&#32780;&#20027;&#21160;&#25918;&#24323;&#65292;&#23450;&#20013;&#27490;</text><path d="M1209.8896,706.3359 L1219.8896,706.3359 C1234.8896,706.3359 1234.8896,763.9453 1249.8896,763.9453 L1259.8896,763.9453 " fill="none" style="stroke:#181818;stroke-width:1;"/><path d="M887.8896,706.3359 L897.8896,706.3359 C912.8896,706.3359 912.8896,706.3359 927.8896,706.3359 L937.8896,706.3359 " fill="none" style="stroke:#181818;stroke-width:1;"/><path d="M789.8896,619.9219 L799.8896,619.9219 C814.8896,619.9219 814.8896,706.3359 829.8896,706.3359 L839.8896,706.3359 " fill="none" style="stroke:#181818;stroke-width:1;"/><path d="M691.8896,619.9219 L701.8896,619.9219 C716.8896,619.9219 716.8896,619.9219 731.8896,619.9219 L741.8896,619.9219 " fill="none" style="stroke:#181818;stroke-width:1;"/><path d="M565.8896,535.8984 L575.8896,535.8984 C590.8896,535.8984 590.8896,619.9219 605.8896,619.9219 L615.8896,619.9219 " fill="none" style="stroke:#181818;stroke-width:1;"/><path d="M467.8896,507.0938 L477.8896,507.0938 C492.8896,507.0938 492.8896,535.8984 507.8896,535.8984 L517.8896,535.8984 " fill="none" style="stroke:#181818;stroke-width:1;"/><path d="M282,850.3594 L292,850.3594 C307,850.3594 307,507.0938 322,507.0938 L332,507.0938 " fill="none" style="stroke:#181818;stroke-width:1;"/><rect fill="#90EE90" height="37.6094" rx="12.5" ry="12.5" style="stroke:#181818;stroke-width:1.5;" width="177.8896" x="332" y="886.7734"/><text fill="#000000" font-family="sans-serif" font-size="14" lengthAdjust="spacing" textLength="154" x="342" y="911.3066">&#29305;&#23450;&#23545;&#35937;&#19981;&#23384;&#22312;&#65288;&#23458;&#35266;&#65289;</text><rect fill="#90EE90" height="37.6094" rx="12.5" ry="12.5" style="stroke:#181818;stroke-width:1.5;" width="79.8896" x="559.8896" y="802.75"/><text fill="#000000" font-family="sans-serif" font-size="14" lengthAdjust="spacing" textLength="56" x="569.8896" y="827.2832">&#21028;&#26029;&#26631;&#20934;</text><rect fill="#90EE90" height="37.6094" rx="12.5" ry="12.5" style="stroke:#181818;stroke-width:1.5;" width="485.8896" x="689.7793" y="802.75"/><text fill="#000000" font-family="sans-serif" font-size="14" lengthAdjust="spacing" textLength="462" x="699.7793" y="827.2832">&#23458;&#35266;&#19978;&#65292;&#29305;&#23450;&#23545;&#35937;&#19981;&#23384;&#22312;&#65292;&#34892;&#20026;&#20154;&#20027;&#35266;&#19978;&#35748;&#20026;&#21482;&#33021;&#34987;&#36843;&#25918;&#24323;&#29359;&#32618;&#65292;&#23450;&#26410;&#36930;&#12290;</text><path d="M639.7793,821.5547 L649.7793,821.5547 C664.7793,821.5547 664.7793,821.5547 679.7793,821.5547 L689.7793,821.5547 " fill="none" style="stroke:#181818;stroke-width:1;"/><path d="M509.8896,905.5781 L519.8896,905.5781 C534.8896,905.5781 534.8896,821.5547 549.8896,821.5547 L559.8896,821.5547 " fill="none" style="stroke:#181818;stroke-width:1;"/><rect fill="#F1F1F1" height="37.6094" rx="12.5" ry="12.5" style="stroke:#181818;stroke-width:1.5;" width="108.6963" x="559.8896" y="915.5781"/><text fill="#000000" font-family="sans-serif" font-size="14" lengthAdjust="spacing" textLength="88.6963" x="569.8896" y="940.1113">&#26696;&#20363;&#65288;P112&#65289;</text><rect fill="#90EE90" height="37.6094" rx="12.5" ry="12.5" style="stroke:#181818;stroke-width:1.5;" width="107.8896" x="718.5859" y="869.1641"/><text fill="#000000" font-family="sans-serif" font-size="14" lengthAdjust="spacing" textLength="84" x="728.5859" y="893.6973">&#29305;&#23450;&#29289;&#19981;&#23384;&#22312;</text><rect fill="#F1F1F1" height="55.2188" rx="12.5" ry="12.5" style="stroke:#181818;stroke-width:1.5;" width="293.7861" x="876.4756" y="860.3594"/><text fill="#000000" font-family="sans-serif" font-size="14" lengthAdjust="spacing" textLength="252" x="886.4756" y="884.8926">&#30002;&#30423;&#31363;&#38134;&#34892;&#30340;&#20445;&#38505;&#26588;&#65292;&#22909;&#19981;&#23481;&#26131;&#25171;&#24320;&#21518;&#65292;</text><text fill="#000000" font-family="sans-serif" font-size="14" lengthAdjust="spacing" textLength="273.7861" x="886.4756" y="902.502">&#21457;&#29616;&#37324;&#38754;&#21482;&#26377;2&#20803;&#38065;&#65292;&#38750;&#24120;&#22833;&#26395;&#65292;&#36716;&#36523;&#31163;&#24320;&#12290;</text><rect fill="#F1F1F1" height="37.6094" rx="12.5" ry="12.5" style="stroke:#181818;stroke-width:1.5;" width="132" x="1220.2617" y="869.1641"/><text fill="#000000" font-family="sans-serif" font-size="14" lengthAdjust="spacing" textLength="112" x="1230.2617" y="893.6973">&#30002;&#26500;&#25104;&#30423;&#31363;&#32618;&#26410;&#36930;</text><path d="M1170.2617,887.9688 L1180.2617,887.9688 C1195.2617,887.9688 1195.2617,887.9688 1210.2617,887.9688 L1220.2617,887.9688 " fill="none" style="stroke:#181818;stroke-width:1;"/><path d="M826.4756,887.9688 L836.4756,887.9688 C851.4756,887.9688 851.4756,887.9688 866.4756,887.9688 L876.4756,887.9688 " fill="none" style="stroke:#181818;stroke-width:1;"/><path d="M668.5859,934.3828 L678.5859,934.3828 C693.5859,934.3828 693.5859,887.9688 708.5859,887.9688 L718.5859,887.9688 " fill="none" style="stroke:#181818;stroke-width:1;"/><rect fill="#90EE90" height="37.6094" rx="12.5" ry="12.5" style="stroke:#181818;stroke-width:1.5;" width="107.8896" x="718.5859" y="953.1875"/><text fill="#000000" font-family="sans-serif" font-size="14" lengthAdjust="spacing" textLength="84" x="728.5859" y="977.7207">&#29305;&#23450;&#20154;&#19981;&#23384;&#22312;</text><rect fill="#F1F1F1" height="72.8281" rx="12.5" ry="12.5" style="stroke:#181818;stroke-width:1.5;" width="244" x="876.4756" y="935.5781"/><text fill="#000000" font-family="sans-serif" font-size="14" lengthAdjust="spacing" textLength="210" x="886.4756" y="960.1113">&#30002;&#35753;&#20057;&#26432;&#19993;&#65292;&#20057;&#22312;&#22823;&#34903;&#19978;&#21457;&#29616;&#19993;&#65292;</text><text fill="#000000" font-family="sans-serif" font-size="14" lengthAdjust="spacing" textLength="224" x="886.4756" y="977.7207">&#27491;&#35201;&#24320;&#26538;&#26102;&#65292;&#31361;&#28982;&#21457;&#29616;&#23545;&#26041;&#19981;&#26159;&#19993;&#65292;</text><text fill="#000000" font-family="sans-serif" font-size="14" lengthAdjust="spacing" textLength="70" x="886.4756" y="995.3301">&#36214;&#32039;&#25910;&#26538;&#12290;</text><rect fill="#F1F1F1" height="37.6094" rx="12.5" ry="12.5" style="stroke:#181818;stroke-width:1.5;" width="272" x="1170.4756" y="953.1875"/><text fill="#000000" font-family="sans-serif" font-size="14" lengthAdjust="spacing" textLength="252" x="1180.4756" y="977.7207">&#30001;&#20110;&#29305;&#23450;&#23545;&#35937;&#19981;&#23384;&#22312;&#65292;&#20057;&#21482;&#33021;&#26500;&#25104;&#26410;&#36930;&#12290;</text><path d="M1120.4756,971.9922 L1130.4756,971.9922 C1145.4756,971.9922 1145.4756,971.9922 1160.4756,971.9922 L1170.4756,971.9922 " fill="none" style="stroke:#181818;stroke-width:1;"/><path d="M826.4756,971.9922 L836.4756,971.9922 C851.4756,971.9922 851.4756,971.9922 866.4756,971.9922 L876.4756,971.9922 " fill="none" style="stroke:#181818;stroke-width:1;"/><path d="M668.5859,934.3828 L678.5859,934.3828 C693.5859,934.3828 693.5859,971.9922 708.5859,971.9922 L718.5859,971.9922 " fill="none" style="stroke:#181818;stroke-width:1;"/><path d="M509.8896,905.5781 L519.8896,905.5781 C534.8896,905.5781 534.8896,934.3828 549.8896,934.3828 L559.8896,934.3828 " fill="none" style="stroke:#181818;stroke-width:1;"/><path d="M282,850.3594 L292,850.3594 C307,850.3594 307,905.5781 322,905.5781 L332,905.5781 " fill="none" style="stroke:#181818;stroke-width:1;"/><rect fill="#90EE90" height="37.6094" rx="12.5" ry="12.5" style="stroke:#181818;stroke-width:1.5;" width="158.0654" x="332" y="1230.0391"/><text fill="#000000" font-family="sans-serif" font-size="14" lengthAdjust="spacing" textLength="134.1758" x="342" y="1254.5723">&#35748;&#35782;&#38169;&#35823;+&#23545;&#35937;&#19981;&#23384;&#22312;</text><rect fill="#F1F1F1" height="37.6094" rx="12.5" ry="12.5" style="stroke:#181818;stroke-width:1.5;" width="230" x="540.0654" y="1230.0391"/><text fill="#000000" font-family="sans-serif" font-size="14" lengthAdjust="spacing" textLength="210" x="550.0654" y="1254.5723">&#30002;&#25235;&#20303;&#26432;&#29238;&#20167;&#20154;&#20057;&#65292;&#20030;&#20992;&#35201;&#30733;&#26432;&#12290;</text><rect fill="#F1F1F1" height="72.8281" rx="12.5" ry="12.5" style="stroke:#181818;stroke-width:1.5;" width="192.6621" x="820.0654" y="1097.2109"/><text fill="#000000" font-family="sans-serif" font-size="14" lengthAdjust="spacing" textLength="172.6621" x="830.0654" y="1121.7441">&#20057;&#27450;&#39575;&#30002;&#65306;&#8220;&#25105;&#21482;&#26159;&#25191;&#34892;&#32773;&#65292;</text><text fill="#000000" font-family="sans-serif" font-size="14" lengthAdjust="spacing" textLength="172.6621" x="830.0654" y="1139.3535">&#20027;&#35851;&#26159;&#19993;&#65292;&#20320;&#24212;&#35813;&#25214;&#20182;&#65281;&#8221;&#12290;</text><text fill="#000000" font-family="sans-serif" font-size="14" lengthAdjust="spacing" textLength="168" x="830.0654" y="1156.9629">&#30002;&#30456;&#20449;&#65292;&#25918;&#25481;&#20057;&#65292;&#21435;&#25214;&#19993;&#12290;</text><rect fill="#F1F1F1" height="37.6094" rx="12.5" ry="12.5" style="stroke:#181818;stroke-width:1.5;" width="104" x="1062.7275" y="1028.4063"/><text fill="#000000" font-family="sans-serif" font-size="14" lengthAdjust="spacing" textLength="84" x="1072.7275" y="1052.9395">&#23384;&#22312;&#35748;&#35782;&#38169;&#35823;</text><path d="M1012.7275,1133.625 L1022.7275,1133.625 C1037.7275,1133.625 1037.7275,1047.2109 1052.7275,1047.2109 L1062.7275,1047.2109 " fill="none" style="stroke:#181818;stroke-width:1;"/><rect fill="#F1F1F1" height="37.6094" rx="12.5" ry="12.5" style="stroke:#181818;stroke-width:1.5;" width="146" x="1062.7275" y="1086.0156"/><text fill="#000000" font-family="sans-serif" font-size="14" lengthAdjust="spacing" textLength="126" x="1072.7275" y="1110.5488">&#38382;&#65306;&#33021;&#21542;&#32487;&#32493;&#26432;&#20057;&#65311;</text><path d="M1012.7275,1133.625 L1022.7275,1133.625 C1037.7275,1133.625 1037.7275,1104.8203 1052.7275,1104.8203 L1062.7275,1104.8203 " fill="none" style="stroke:#181818;stroke-width:1;"/><rect fill="#F1F1F1" height="37.6094" rx="12.5" ry="12.5" style="stroke:#181818;stroke-width:1.5;" width="230" x="1062.7275" y="1143.625"/><text fill="#000000" font-family="sans-serif" font-size="14" lengthAdjust="spacing" textLength="210" x="1072.7275" y="1168.1582">&#31572;&#65306;&#33021;&#12290;&#33021;&#32780;&#19981;&#20026;&#65292;&#23646;&#20110;&#20027;&#21160;&#25918;&#24323;</text><path d="M1012.7275,1133.625 L1022.7275,1133.625 C1037.7275,1133.625 1037.7275,1162.4297 1052.7275,1162.4297 L1062.7275,1162.4297 " fill="none" style="stroke:#181818;stroke-width:1;"/><rect fill="#F1F1F1" height="37.6094" rx="12.5" ry="12.5" style="stroke:#181818;stroke-width:1.5;" width="62" x="1062.7275" y="1201.2344"/><text fill="#000000" font-family="sans-serif" font-size="14" lengthAdjust="spacing" textLength="42" x="1072.7275" y="1225.7676">&#23450;&#20013;&#27490;</text><path d="M1012.7275,1133.625 L1022.7275,1133.625 C1037.7275,1133.625 1037.7275,1220.0391 1052.7275,1220.0391 L1062.7275,1220.0391 " fill="none" style="stroke:#181818;stroke-width:1;"/><path d="M770.0654,1248.8438 L780.0654,1248.8438 C795.0654,1248.8438 795.0654,1133.625 810.0654,1133.625 L820.0654,1133.625 " fill="none" style="stroke:#181818;stroke-width:1;"/><rect fill="#F1F1F1" height="72.8281" rx="12.5" ry="12.5" style="stroke:#181818;stroke-width:1.5;" width="234.6621" x="820.0654" y="1327.6484"/><text fill="#000000" font-family="sans-serif" font-size="14" lengthAdjust="spacing" textLength="200.6621" x="830.0654" y="1352.1816">&#20057;&#27450;&#39575;&#30002;&#65306;&#8220;&#19981;&#26159;&#25105;&#26432;&#20102;&#20320;&#29238;&#20146;&#65292;</text><text fill="#000000" font-family="sans-serif" font-size="14" lengthAdjust="spacing" textLength="214.6621" x="830.0654" y="1369.791">&#26159;&#19993;&#26432;&#20102;&#20320;&#29238;&#20146;&#65281;&#20320;&#24212;&#35813;&#25214;&#20182;&#65281;&#8221;&#12290;</text><text fill="#000000" font-family="sans-serif" font-size="14" lengthAdjust="spacing" textLength="168" x="830.0654" y="1387.4004">&#30002;&#30456;&#20449;&#65292;&#25918;&#25481;&#20057;&#65292;&#21435;&#25214;&#19993;&#12290;</text><rect fill="#F1F1F1" height="37.6094" rx="12.5" ry="12.5" style="stroke:#181818;stroke-width:1.5;" width="104" x="1104.7275" y="1258.8438"/><text fill="#000000" font-family="sans-serif" font-size="14" lengthAdjust="spacing" textLength="84" x="1114.7275" y="1283.377">&#23384;&#22312;&#35748;&#35782;&#38169;&#35823;</text><path d="M1054.7275,1364.0625 L1064.7275,1364.0625 C1079.7275,1364.0625 1079.7275,1277.6484 1094.7275,1277.6484 L1104.7275,1277.6484 " fill="none" style="stroke:#181818;stroke-width:1;"/><rect fill="#F1F1F1" height="37.6094" rx="12.5" ry="12.5" style="stroke:#181818;stroke-width:1.5;" width="146" x="1104.7275" y="1316.4531"/><text fill="#000000" font-family="sans-serif" font-size="14" lengthAdjust="spacing" textLength="126" x="1114.7275" y="1340.9863">&#38382;&#65306;&#33021;&#21542;&#32487;&#32493;&#26432;&#20057;&#65311;</text><path d="M1054.7275,1364.0625 L1064.7275,1364.0625 C1079.7275,1364.0625 1079.7275,1335.2578 1094.7275,1335.2578 L1104.7275,1335.2578 " fill="none" style="stroke:#181818;stroke-width:1;"/><rect fill="#F1F1F1" height="37.6094" rx="12.5" ry="12.5" style="stroke:#181818;stroke-width:1.5;" width="314" x="1104.7275" y="1374.0625"/><text fill="#000000" font-family="sans-serif" font-size="14" lengthAdjust="spacing" textLength="294" x="1114.7275" y="1398.5957">&#31572;&#65306;&#19981;&#33021;&#12290;&#35748;&#20026;&#20057;&#26159;&#26080;&#36764;&#30340;&#65292;&#19993;&#19981;&#22312;&#65292;&#34987;&#36843;&#25918;&#24323;</text><path d="M1054.7275,1364.0625 L1064.7275,1364.0625 C1079.7275,1364.0625 1079.7275,1392.8672 1094.7275,1392.8672 L1104.7275,1392.8672 " fill="none" style="stroke:#181818;stroke-width:1;"/><rect fill="#F1F1F1" height="37.6094" rx="12.5" ry="12.5" style="stroke:#181818;stroke-width:1.5;" width="62" x="1104.7275" y="1431.6719"/><text fill="#000000" font-family="sans-serif" font-size="14" lengthAdjust="spacing" textLength="42" x="1114.7275" y="1456.2051">&#23450;&#26410;&#36930;</text><path d="M1054.7275,1364.0625 L1064.7275,1364.0625 C1079.7275,1364.0625 1079.7275,1450.4766 1094.7275,1450.4766 L1104.7275,1450.4766 " fill="none" style="stroke:#181818;stroke-width:1;"/><path d="M770.0654,1248.8438 L780.0654,1248.8438 C795.0654,1248.8438 795.0654,1364.0625 810.0654,1364.0625 L820.0654,1364.0625 " fill="none" style="stroke:#181818;stroke-width:1;"/><path d="M490.0654,1248.8438 L500.0654,1248.8438 C515.0654,1248.8438 515.0654,1248.8438 530.0654,1248.8438 L540.0654,1248.8438 " fill="none" style="stroke:#181818;stroke-width:1;"/><path d="M282,850.3594 L292,850.3594 C307,850.3594 307,1248.8438 322,1248.8438 L332,1248.8438 " fill="none" style="stroke:#181818;stroke-width:1;"/><path d="M156,763.9453 L166,763.9453 C181,763.9453 181,850.3594 196,850.3594 L206,850.3594 " fill="none" style="stroke:#181818;stroke-width:1;"/><!--SRC=[xLhTJzjM57_tN-5fB-qcQ46ecgggwc2jjgbCrUZsr1UJUC5hOaUEmuIcIM4Kaa08C2WX43wNG9kI1Dej2tO2_ylcU-qyzL_OkRun61edgRH9cnI4a7tFnptdTxvyhxWNKZXP2GYYDy056UO3GVJumrwUxUszuVmDAHD-_aRGpubAEE3l8Vmz8D1ZhVSAiCOmYg3uUTQOBHcrFAhjuSXa3tt1cNnzycVqIuA-wfK2Bkmnp4TiAp8BFn-nAA6Ys0pUYQBe37ld3Xy8Zd4X8JGeSw9dxEvTYujoEiGk5isfcdbwQcmKZVLdPYIXL-RnuMk74DtwYX2mN142DOozInmNSiob7L1ssz0E3Ar0xNzRZQ7iAigym9kxkbP-Muqx37UOtDXihOGMz_7K6pIP0Vj1MAzevi7FBSLiu-FuUGn73a38q9RnLgQf4C0SFy75MPHHSRhaDBsODKipzPMqMIfrjY_48vR5gmKQZoOc6PavMqs2Fk18KZ-9WN-mWewEwIighhV4P3E7rSKcwire7lrnZ9BRQ6Fd7N93TZUcdyur9Rg6l8aVAw_HT0uLiyP6oiXF4TlFQiQpCbeyHB6ZUke5HDXyjWwfW7uz0keJKTToUaK5dtLLDVSdqSOMAfPrTGQ8vkzbuxS3NKlMrzwWXQDwPChOr_wAjBQXOOUZG5hur2Jtc_e4OS2R4VqaRGLZ1XvmyeLUcJFFekPk2cLVujsSvGt44Vm4EfgVXFepKXlct3uHMeYXQiIixTSZauGQEq89hPxUmxDx-FaI-FH4HCMjUdfQhyoI580DCdcqa3AZlw6bcbxDMdan3z9KJZ_PnWKDLW2fPeYGX7i5YE93jPvF_UiXhweeLo5-vTvGw-61RWtKjzNrFoCP75iYTHSvC5BJVqOsBPU1g9_jqWmmCjiWYbTEKNMginZNKqLGJVh8uZxj8m0XNgrHQwo6ijr9gXHMG8rUYPYnGvA3nInOG-46tPsP0dNvp-NQxB9UMq3xKS0Ga8HUYkDpvlHpWixXQqDRmbjbWl1Y4aLLDBzg8KaInXrlwerU1IFZjCp-wGZOdPn60CyjWc7KXVUCWpqnsiAaQ_FlRcnLMXv6WtaGHwSfC0By9iMMg-dQ7_LVZgsnfA7P5zHDmbzSln8Pg-_3CYgTcCUxH45X3QOI6K_5lVVhzEqc4LL8QzvbquIvco0DKbNfN01ccgBWA9dIUw_CirVK6tkC9ixJ4SBOSbvO3G0SUzJNrmzkDHjCbbL6_EMvIQrzEeyF7G3rvJBO3pcidstMqo_nTeQO1z40RSKJlBQCuylG626PhVQ95fQCv54zcgXlxf50PkBzQ7eAuWRK-kOMgbHGzXXdDWWijKDJVGK30SHRPIkjgQrdEBP8JNAV2xQt5jRlvwrPV4bA46P49TteW1cOTGSm7I1Wr2rAUYBYmgzaq5KZU2kFKsKI-lmacP4M5oG0NZqX7rnh9Lk23aAyKWQ9ThuUwshIBPM8MLRMK3pESyJbs-RZAnfQfT9vum8CZ5XPrw84HMjWwfLJ58k0oyREF52RZwkc3OpMCeu3Z0apCas_5w0AZkREmT5hEqXTCKiv73_LjTMtLMThCpOgqDreKyF9U6D-9pN2Mqcx8GbbQRdhX8BfT0JPdmdRJ9ik1xkJyhK-a-d0GSTR43jdUs9SfutBC6c68qqbCWx0D7K602FnKL_JNBHmV8So-V-4zNnaqmv9i03FKplcQGPQa9MAQPBDjAywEYVJRgp3ppqUZdhsSU_UvTFV7UiuTvTfB7mcS3wP2x0_WjxUKN-OjvvOTf3pFFN9KbZq3ab-IMRzWczC8NIW_aHulPpyLEQzBkmDgitiatbURANPOd1mJxHXdh1v9JWb-joCfaIRDHYMWtutLagqMTqTSpWbIo4tRHy-U30uE3HaSqxmVh_qWmil9LgiJA_TjDfZvUI-wS8UUZfXXSp9szyQAoShFO53SdLaZE0J9Pdl86ui-r0G-Qlh5oewtBQbAg9C52KFBofks8WMw2pxG18LkZJg1vuhMg4u6hQ92YWJ997p3yb2m7RqWbEH0fmYDULz9FD1JkR8olk8VJegoKgxhEbKbw90M9LsXTAXjY4f0DMYk4Mx8UccZaH7v7qGC53g1BDLqsaNA2_F1vtvVdc3-z04H_r2QCozOpdaB-_smvYWNCN6PPkl9ANzJfPNdWbExC0h3-VbbVFDE8z7yBgdzALEsaxpTr1f8KVvmhk77-Q-vyDjYbZoWmcov7LaO9iIiYMiVO9II524SVvJZwCStkd6d9_lr94B5o0MN5lL0G4686dTdUHKOueHvQ7mwFUyXwXtGuSRXx7Bontg7HSag21BjTHECy6zOxWl6ldbmcrTgvTokUs8OE3FdHkDBudkfN3tKhXxAToz5EvU2dSlXRkNmjrBuUwbSFTIk7iftBqKxbuA_tSlXH-H__BvPlWXEyxB8N9Oxkljlza_qFl9jH5EOR-Injc-M-pDlji30xS7Rh538uzPGhxEN1l-uZ4RaiAoXsUzS9AMXT4mELvUPxxanZdswp0SDWFyRPQyNNiyV9qTkMylilV5SK6Mn00SC9allnscJEpdaZ8Ib1IB-TP0pw2Wi2Ey36Qntmupd_7VSM6_0g8UoIk8ljliDuyVz7p2F8I3Q9ZpmKPmz1-24weYJm1jv6y0]--></g></svg>