<svg xmlns="http://www.w3.org/2000/svg" xmlns:xlink="http://www.w3.org/1999/xlink" contentStyleType="text/css" height="469px" preserveAspectRatio="none" style="width:651px;height:469px;background:#FFFFFF;" version="1.1" viewBox="0 0 651 469" width="651px" zoomAndPan="magnify"><title>&#29359;&#32618;&#24418;&#24577;-&#29359;&#32618;</title><defs/><g><text fill="#000000" font-family="sans-serif" font-size="14" font-weight="bold" lengthAdjust="spacing" textLength="91.2871" x="278.7461" y="34.5332">&#29359;&#32618;&#24418;&#24577;-&#29359;&#32618;</text><rect fill="#F1F1F1" height="37.6094" rx="12.5" ry="12.5" style="stroke:#181818;stroke-width:1.5;" width="48" x="10" y="234.0078"/><text fill="#000000" font-family="sans-serif" font-size="14" lengthAdjust="spacing" textLength="28" x="20" y="258.541">&#29359;&#32618;</text><rect fill="#F1F1F1" height="37.6094" rx="12.5" ry="12.5" style="stroke:#181818;stroke-width:1.5;" width="76" x="108" y="173.8281"/><text fill="#000000" font-family="sans-serif" font-size="14" lengthAdjust="spacing" textLength="56" x="118" y="198.3613">&#25925;&#24847;&#29359;&#32618;</text><rect fill="#90EE90" height="37.6094" rx="12.5" ry="12.5" style="stroke:#181818;stroke-width:1.5;" width="79.8896" x="234" y="173.8281"/><text fill="#000000" font-family="sans-serif" font-size="14" lengthAdjust="spacing" textLength="56" x="244" y="198.3613">&#25104;&#31435;&#38382;&#39064;</text><rect fill="#F1F1F1" height="37.6094" rx="12.5" ry="12.5" style="stroke:#181818;stroke-width:1.5;" width="48" x="363.8896" y="145.0234"/><text fill="#000000" font-family="sans-serif" font-size="14" lengthAdjust="spacing" textLength="28" x="373.8896" y="169.5566">&#25104;&#31435;</text><rect fill="#90EE90" height="37.6094" rx="12.5" ry="12.5" style="stroke:#181818;stroke-width:1.5;" width="79.8896" x="461.8896" y="145.0234"/><text fill="#000000" font-family="sans-serif" font-size="14" lengthAdjust="spacing" textLength="56" x="471.8896" y="169.5566">&#29359;&#32618;&#24418;&#24577;</text><rect fill="#F1F1F1" height="37.6094" rx="12.5" ry="12.5" style="stroke:#181818;stroke-width:1.5;" width="48" x="591.7793" y="58.6094"/><text fill="#000000" font-family="sans-serif" font-size="14" lengthAdjust="spacing" textLength="28" x="601.7793" y="83.1426">&#39044;&#22791;</text><path d="M541.7793,163.8281 L551.7793,163.8281 C566.7793,163.8281 566.7793,77.4141 581.7793,77.4141 L591.7793,77.4141 " fill="none" style="stroke:#181818;stroke-width:1;"/><rect fill="#F1F1F1" height="37.6094" rx="12.5" ry="12.5" style="stroke:#181818;stroke-width:1.5;" width="48" x="591.7793" y="116.2188"/><text fill="#000000" font-family="sans-serif" font-size="14" lengthAdjust="spacing" textLength="28" x="601.7793" y="140.752">&#26410;&#36930;</text><path d="M541.7793,163.8281 L551.7793,163.8281 C566.7793,163.8281 566.7793,135.0234 581.7793,135.0234 L591.7793,135.0234 " fill="none" style="stroke:#181818;stroke-width:1;"/><rect fill="#F1F1F1" height="37.6094" rx="12.5" ry="12.5" style="stroke:#181818;stroke-width:1.5;" width="48" x="591.7793" y="173.8281"/><text fill="#000000" font-family="sans-serif" font-size="14" lengthAdjust="spacing" textLength="28" x="601.7793" y="198.3613">&#20013;&#27490;</text><path d="M541.7793,163.8281 L551.7793,163.8281 C566.7793,163.8281 566.7793,192.6328 581.7793,192.6328 L591.7793,192.6328 " fill="none" style="stroke:#181818;stroke-width:1;"/><rect fill="#F1F1F1" height="37.6094" rx="12.5" ry="12.5" style="stroke:#181818;stroke-width:1.5;" width="48" x="591.7793" y="231.4375"/><text fill="#000000" font-family="sans-serif" font-size="14" lengthAdjust="spacing" textLength="28" x="601.7793" y="255.9707">&#26082;&#36930;</text><path d="M541.7793,163.8281 L551.7793,163.8281 C566.7793,163.8281 566.7793,250.2422 581.7793,250.2422 L591.7793,250.2422 " fill="none" style="stroke:#181818;stroke-width:1;"/><path d="M411.8896,163.8281 L421.8896,163.8281 C436.8896,163.8281 436.8896,163.8281 451.8896,163.8281 L461.8896,163.8281 " fill="none" style="stroke:#181818;stroke-width:1;"/><path d="M313.8896,192.6328 L323.8896,192.6328 C338.8896,192.6328 338.8896,163.8281 353.8896,163.8281 L363.8896,163.8281 " fill="none" style="stroke:#181818;stroke-width:1;"/><rect fill="#F1F1F1" height="37.6094" rx="12.5" ry="12.5" style="stroke:#181818;stroke-width:1.5;" width="62" x="363.8896" y="289.0469"/><text fill="#000000" font-family="sans-serif" font-size="14" lengthAdjust="spacing" textLength="42" x="373.8896" y="313.5801">&#19981;&#25104;&#31435;</text><path d="M313.8896,192.6328 L323.8896,192.6328 C338.8896,192.6328 338.8896,307.8516 353.8896,307.8516 L363.8896,307.8516 " fill="none" style="stroke:#181818;stroke-width:1;"/><path d="M184,192.6328 L194,192.6328 C209,192.6328 209,192.6328 224,192.6328 L234,192.6328 " fill="none" style="stroke:#181818;stroke-width:1;"/><path d="M58,252.8125 L68,252.8125 C83,252.8125 83,192.6328 98,192.6328 L108,192.6328 " fill="none" style="stroke:#181818;stroke-width:1;"/><rect fill="#F1F1F1" height="37.6094" rx="12.5" ry="12.5" style="stroke:#181818;stroke-width:1.5;" width="76" x="108" y="378.0313"/><text fill="#000000" font-family="sans-serif" font-size="14" lengthAdjust="spacing" textLength="56" x="118" y="402.5645">&#36807;&#22833;&#29359;&#32618;</text><rect fill="#90EE90" height="37.6094" rx="12.5" ry="12.5" style="stroke:#181818;stroke-width:1.5;" width="79.8896" x="234" y="378.0313"/><text fill="#000000" font-family="sans-serif" font-size="14" lengthAdjust="spacing" textLength="56" x="244" y="402.5645">&#25104;&#31435;&#38382;&#39064;</text><rect fill="#F1F1F1" height="37.6094" rx="12.5" ry="12.5" style="stroke:#181818;stroke-width:1.5;" width="48" x="363.8896" y="349.2266"/><text fill="#000000" font-family="sans-serif" font-size="14" lengthAdjust="spacing" textLength="28" x="373.8896" y="373.7598">&#25104;&#31435;</text><rect fill="#F1F1F1" height="42.75" rx="12.5" ry="12.5" style="stroke:#181818;stroke-width:1.5;" width="100.8896" x="461.8896" y="346.6563"/><text fill="#000000" font-family="sans-serif" font-size="14" lengthAdjust="spacing" textLength="56" x="471.8896" y="376.3301">&#29359;&#32618;&#24418;&#24577;</text><path d="M544.7515,367.1586 L550.5165,361.3935 C551.2002,360.7104 551.2002,359.6021 550.5165,358.9184 C549.8329,358.2353 548.7257,358.2353 548.042,358.9184 L542.277,364.6835 L536.5119,358.919 C535.8288,358.2353 534.7205,358.2353 534.0368,358.919 C533.3537,359.6021 533.3537,360.7104 534.0368,361.3941 L539.8019,367.1586 L534.0228,372.9377 C533.3397,373.6208 533.3397,374.7291 534.0228,375.4122 C534.364,375.754 534.8126,375.9249 535.26,375.9249 C535.7075,375.9249 536.156,375.754 536.4979,375.4122 L542.2764,369.6337 L548.0409,375.3982 C548.3827,375.74 548.8307,375.9109 549.2781,375.9109 C549.7255,375.9109 550.1735,375.74 550.5154,375.3982 C551.199,374.7151 551.199,373.6068 550.5154,372.9237 L544.7515,367.1586 " fill="#FE0000" style="stroke:;stroke-width:0;stroke-dasharray:;"/><path d="M411.8896,368.0313 L421.8896,368.0313 C436.8896,368.0313 436.8896,368.0313 451.8896,368.0313 L461.8896,368.0313 " fill="none" style="stroke:#181818;stroke-width:1;"/><path d="M313.8896,396.8359 L323.8896,396.8359 C338.8896,396.8359 338.8896,368.0313 353.8896,368.0313 L363.8896,368.0313 " fill="none" style="stroke:#181818;stroke-width:1;"/><rect fill="#F1F1F1" height="37.6094" rx="12.5" ry="12.5" style="stroke:#181818;stroke-width:1.5;" width="62" x="363.8896" y="409.4063"/><text fill="#000000" font-family="sans-serif" font-size="14" lengthAdjust="spacing" textLength="42" x="373.8896" y="433.9395">&#19981;&#25104;&#31435;</text><path d="M313.8896,396.8359 L323.8896,396.8359 C338.8896,396.8359 338.8896,428.2109 353.8896,428.2109 L363.8896,428.2109 " fill="none" style="stroke:#181818;stroke-width:1;"/><path d="M184,396.8359 L194,396.8359 C209,396.8359 209,396.8359 224,396.8359 L234,396.8359 " fill="none" style="stroke:#181818;stroke-width:1;"/><path d="M58,252.8125 L68,252.8125 C83,252.8125 83,396.8359 98,396.8359 L108,396.8359 " fill="none" style="stroke:#181818;stroke-width:1;"/><!--SRC=[xLTFJnD15B_FfnZ31KXQ_gGXf24Dj42KK49iuKgckyDsO7PcCpjRR8o960n6O_HYyE2fuOH1uyqBySj8iT_2jziktQBJNGzUZ0rfkk_ztk-zUVzcMVOrKTfbmdQ9Xz0z9YmUs1JdypF9Fr-tEPtnE14wS7aknEV081V9ymna26ccESKtBp_VN5rSNtMwJuzp_GU4fWTYXE4pZRllddTFtYH40_6BjpSVN_NEFlKwx_7I4dMz9l6PNohTOfAu4M5VaVHj9XZYUvsJw_DJWxBxuQ9t_CoW_FxridlPCLcUTUvQXXQl4t5Fun_VJg_Fl_pj74meQXURbBJQUsx0DVCuiuXcKkmzAfQC4IAqJA4XugPO7ksHfQZe9JGGh3BYAEBYnq2NR_20HhymBXFhq54o47P5SgamPqvJXthGFWcnDb6749u1Fj36O4THAiOnHu04kfq2RiTOgOXmJ47tbJ7K2vJ7JT2-CeQQ3vOub9A-YMrYVRrShbHYP9joBeyCsBuoWg9yt37fkKgYPmrm_x0TbIo9dH-VgoIq32Ah2RsLAHZc2AbeXhfXlCa4lIiVKcHqEvOg91D2MbHeKsv4b7ICrwNGVL630-OEAmp783QXWGncZ_2AOcvyq25IIvTe-Llijg8UKT7a_edPIaCgdTOrMRcqXhBgj479o5QHBaoBDbLxO6cY2wiZg0C50z9aCiSjdRH2sPHwoNuVTR06Ix31cTyqRwo4_QYteoRJTtDZSBCbTRgdw5HMcuWCfxA8JVMjCs9Pp3QtzCWcJMFUXqdp4-CBpnQjaWCQf0onv122adQY0rD6ABQ8_7ZIPvgrw8gL68TVjZ7XDEj1XaU0Mf1KQfV11HYkxYmzDRZ5Gd8_Q1nGAwGtPOUquDgbAYDlYqcOe8XQfZ67US-Sxk4Y7ntSyRCwqikfLmI2hwMPmPl4_rV7V_NLSJlyZs6dkebRLFdXICtbvsVd2_d5oHhHU4ksyDm2dfqh5Wh5mWAkrEeuL4-XoUg3ElPb01i5sp1lYZM2qFSKsY0jWXy6q98kBUBmQR9UdSArjLY8rqIBAIbSQ4EqiLljW_1zgMkUr15ueP0hCurhL45OUBUALka-WJE2gILj9fmYtgclvnRH9hHhG1nm10kY0dsiLHjqjPy0]--></g></svg>