<svg xmlns="http://www.w3.org/2000/svg" xmlns:xlink="http://www.w3.org/1999/xlink" contentStyleType="text/css" height="1754px" preserveAspectRatio="none" style="width:1228px;height:1754px;background:#FFFFFF;" version="1.1" viewBox="0 0 1228 1754" width="1228px" zoomAndPan="magnify"><defs/><g><rect fill="#F1F1F1" height="38.6211" rx="12.5" ry="12.5" style="stroke:#181818;stroke-width:1.5;" width="48" x="10" y="856.8027"/><text fill="#000000" font-family="sans-serif" font-size="14" lengthAdjust="spacing" textLength="28" x="20" y="881.9102">&#30528;&#25163;</text><rect fill="#F1F1F1" height="38.6211" rx="12.5" ry="12.5" style="stroke:#181818;stroke-width:1.5;" width="76" x="108" y="78.6211"/><text fill="#000000" font-family="sans-serif" font-size="14" lengthAdjust="spacing" textLength="56" x="118" y="103.7285">&#21028;&#26029;&#26631;&#20934;</text><rect fill="#F1F1F1" height="38.6211" rx="12.5" ry="12.5" style="stroke:#181818;stroke-width:1.5;" width="174" x="234" y="78.6211"/><text fill="#000000" font-family="sans-serif" font-size="14" lengthAdjust="spacing" textLength="154" x="244" y="103.7285">&#34892;&#20026;&#23545;&#27861;&#30410;&#26159;&#21542;&#36896;&#25104;&#21361;&#38505;</text><rect fill="#F1F1F1" height="38.6211" rx="12.5" ry="12.5" style="stroke:#181818;stroke-width:1.5;" width="48" x="458" y="20"/><text fill="#000000" font-family="sans-serif" font-size="14" lengthAdjust="spacing" textLength="28" x="468" y="45.1074">&#29616;&#23454;</text><path d="M408,97.9316 L418,97.9316 C433,97.9316 433,39.3105 448,39.3105 L458,39.3105 " fill="none" style="stroke:#181818;stroke-width:1.0;"/><rect fill="#F1F1F1" height="38.6211" rx="12.5" ry="12.5" style="stroke:#181818;stroke-width:1.5;" width="48" x="458" y="78.6211"/><text fill="#000000" font-family="sans-serif" font-size="14" lengthAdjust="spacing" textLength="28" x="468" y="103.7285">&#32039;&#36843;</text><path d="M408,97.9316 L418,97.9316 C433,97.9316 433,97.9316 448,97.9316 L458,97.9316 " fill="none" style="stroke:#181818;stroke-width:1.0;"/><rect fill="#F1F1F1" height="38.6211" rx="12.5" ry="12.5" style="stroke:#181818;stroke-width:1.5;" width="48" x="458" y="137.2422"/><text fill="#000000" font-family="sans-serif" font-size="14" lengthAdjust="spacing" textLength="28" x="468" y="162.3496">&#30452;&#25509;</text><path d="M408,97.9316 L418,97.9316 C433,97.9316 433,156.5527 448,156.5527 L458,156.5527 " fill="none" style="stroke:#181818;stroke-width:1.0;"/><path d="M184,97.9316 L194,97.9316 C209,97.9316 209,97.9316 224,97.9316 L234,97.9316 " fill="none" style="stroke:#181818;stroke-width:1.0;"/><path d="M58,876.1133 L68,876.1133 C83,876.1133 83,97.9316 98,97.9316 L108,97.9316 " fill="none" style="stroke:#181818;stroke-width:1.0;"/><rect fill="#F1F1F1" height="38.6211" rx="12.5" ry="12.5" style="stroke:#181818;stroke-width:1.5;" width="76" x="108" y="574.4277"/><text fill="#000000" font-family="sans-serif" font-size="14" lengthAdjust="spacing" textLength="56" x="118" y="599.5352">&#26131;&#32771;&#24773;&#24418;</text><rect fill="#F1F1F1" height="38.6211" rx="12.5" ry="12.5" style="stroke:#181818;stroke-width:1.5;" width="62" x="234" y="197.9277"/><text fill="#000000" font-family="sans-serif" font-size="14" lengthAdjust="spacing" textLength="42" x="244" y="223.0352">&#25250;&#21163;&#32618;</text><rect fill="#F1F1F1" height="42.75" rx="12.5" ry="12.5" style="stroke:#181818;stroke-width:1.5;" width="198.8896" x="346" y="195.8633"/><text fill="#000000" font-family="sans-serif" font-size="14" lengthAdjust="spacing" textLength="154" x="356" y="225.0996">&#26292;&#21147;&#25163;&#27573;&#25110;&#20854;&#20182;&#24378;&#21046;&#25163;&#27573;</text><path d="M533.9907,206.6654 C533.1793,206.1392 532.0961,206.3702 531.5705,207.181 L521.7646,222.2958 L516.9825,217.8741 C516.2726,217.2179 515.166,217.261 514.5097,217.9709 C513.8535,218.6803 513.8966,219.788 514.6066,220.4437 L520.8856,226.249 C521.0658,226.4042 521.0658,226.4042 521.1492,226.4584 C521.4432,226.6498 521.7734,226.7408 522.1001,226.7408 C522.6729,226.7408 523.2346,226.4596 523.5701,225.9428 L534.5064,209.0856 C535.0326,208.2748 534.8016,207.1909 533.9907,206.6654 " fill="#FE0000" style="stroke:;stroke-width:0.0;stroke-dasharray:;"/><path d="M296,217.2383 L306,217.2383 C321,217.2383 321,217.2383 336,217.2383 L346,217.2383 " fill="none" style="stroke:#181818;stroke-width:1.0;"/><path d="M184,593.7383 L194,593.7383 C209,593.7383 209,217.2383 224,217.2383 L234,217.2383 " fill="none" style="stroke:#181818;stroke-width:1.0;"/><rect fill="#F1F1F1" height="38.6211" rx="12.5" ry="12.5" style="stroke:#181818;stroke-width:1.5;" width="62" x="234" y="292.0527"/><text fill="#000000" font-family="sans-serif" font-size="14" lengthAdjust="spacing" textLength="42" x="244" y="317.1602">&#24378;&#22904;&#32618;</text><rect fill="#F1F1F1" height="42.75" rx="12.5" ry="12.5" style="stroke:#181818;stroke-width:1.5;" width="198.8896" x="346" y="258.6133"/><text fill="#000000" font-family="sans-serif" font-size="14" lengthAdjust="spacing" textLength="154" x="356" y="287.8496">&#26292;&#21147;&#25163;&#27573;&#25110;&#20854;&#20182;&#24378;&#21046;&#25163;&#27573;</text><path d="M533.9907,269.4154 C533.1793,268.8892 532.0961,269.1202 531.5705,269.931 L521.7646,285.0458 L516.9825,280.6241 C516.2726,279.9679 515.166,280.011 514.5097,280.7209 C513.8535,281.4303 513.8966,282.538 514.6066,283.1937 L520.8856,288.999 C521.0658,289.1542 521.0658,289.1542 521.1492,289.2084 C521.4432,289.3998 521.7734,289.4908 522.1001,289.4908 C522.6729,289.4908 523.2346,289.2096 523.5701,288.6928 L534.5064,271.8356 C535.0326,271.0248 534.8016,269.9409 533.9907,269.4154 " fill="#FE0000" style="stroke:;stroke-width:0.0;stroke-dasharray:;"/><path d="M296,311.3633 L306,311.3633 C321,311.3633 321,279.9883 336,279.9883 L346,279.9883 " fill="none" style="stroke:#181818;stroke-width:1.0;"/><rect fill="#F1F1F1" height="42.75" rx="12.5" ry="12.5" style="stroke:#181818;stroke-width:1.5;" width="93.8896" x="346" y="321.3633"/><text fill="#000000" font-family="sans-serif" font-size="14" lengthAdjust="spacing" textLength="28" x="356" y="350.5996">&#22904;&#28139;</text><path d="M407.9907,332.1654 C407.1793,331.6392 406.0961,331.8702 405.5705,332.681 L395.7646,347.7958 L390.9825,343.3741 C390.2726,342.7179 389.166,342.761 388.5097,343.4709 C387.8535,344.1803 387.8966,345.288 388.6066,345.9437 L394.8856,351.749 C395.0658,351.9042 395.0658,351.9042 395.1492,351.9584 C395.4432,352.1498 395.7734,352.2408 396.1001,352.2408 C396.6729,352.2408 397.2346,351.9596 397.5701,351.4428 L408.5064,334.5856 C409.0326,333.7748 408.8016,332.6909 407.9907,332.1654 " fill="#FE0000" style="stroke:;stroke-width:0.0;stroke-dasharray:;"/><path d="M428.9907,332.1654 C428.1793,331.6392 427.0961,331.8702 426.5705,332.681 L416.7646,347.7958 L411.9825,343.3741 C411.2726,342.7179 410.166,342.761 409.5097,343.4709 C408.8535,344.1803 408.8966,345.288 409.6066,345.9437 L415.8856,351.749 C416.0658,351.9042 416.0658,351.9042 416.1492,351.9584 C416.4432,352.1498 416.7734,352.2408 417.1001,352.2408 C417.6729,352.2408 418.2346,351.9596 418.5701,351.4428 L429.5064,334.5856 C430.0326,333.7748 429.8016,332.6909 428.9907,332.1654 " fill="#FE0000" style="stroke:;stroke-width:0.0;stroke-dasharray:;"/><path d="M296,311.3633 L306,311.3633 C321,311.3633 321,342.7383 336,342.7383 L346,342.7383 " fill="none" style="stroke:#181818;stroke-width:1.0;"/><path d="M184,593.7383 L194,593.7383 C209,593.7383 209,311.3633 224,311.3633 L234,311.3633 " fill="none" style="stroke:#181818;stroke-width:1.0;"/><rect fill="#F1F1F1" height="38.6211" rx="12.5" ry="12.5" style="stroke:#181818;stroke-width:1.5;" width="62" x="234" y="448.9277"/><text fill="#000000" font-family="sans-serif" font-size="14" lengthAdjust="spacing" textLength="42" x="244" y="474.0352">&#30423;&#31363;&#32618;</text><rect fill="#F1F1F1" height="42.75" rx="12.5" ry="12.5" style="stroke:#181818;stroke-width:1.5;" width="156.8896" x="346" y="384.1133"/><text fill="#000000" font-family="sans-serif" font-size="14" lengthAdjust="spacing" textLength="112" x="356" y="413.3496">&#20837;&#25143;&#30423;&#31363;&#65292;&#32763;&#38498;&#22681;</text><path d="M484.8618,404.6156 L490.6269,398.8505 C491.3106,398.1674 491.3106,397.0591 490.6269,396.3754 C489.9432,395.6924 488.8361,395.6924 488.1524,396.3754 L482.3873,402.1405 L476.6222,396.376 C475.9391,395.6924 474.8308,395.6924 474.1471,396.376 C473.4641,397.0591 473.4641,398.1674 474.1471,398.8511 L479.9122,404.6156 L474.1331,410.3947 C473.4501,411.0778 473.4501,412.1861 474.1331,412.8692 C474.4744,413.211 474.923,413.3819 475.3704,413.3819 C475.8178,413.3819 476.2664,413.211 476.6082,412.8692 L482.3867,407.0907 L488.1512,412.8552 C488.4931,413.197 488.9411,413.3679 489.3885,413.3679 C489.8359,413.3679 490.2839,413.197 490.6257,412.8552 C491.3094,412.1721 491.3094,411.0638 490.6257,410.3807 L484.8618,404.6156 " fill="#FE0000" style="stroke:;stroke-width:0.0;stroke-dasharray:;"/><path d="M296,468.2383 L306,468.2383 C321,468.2383 321,405.4883 336,405.4883 L346,405.4883 " fill="none" style="stroke:#181818;stroke-width:1.0;"/><rect fill="#F1F1F1" height="38.6211" rx="12.5" ry="12.5" style="stroke:#181818;stroke-width:1.5;" width="76" x="346" y="480.3027"/><text fill="#000000" font-family="sans-serif" font-size="14" lengthAdjust="spacing" textLength="56" x="356" y="505.4102">&#32763;&#36827;&#21435;&#21518;</text><rect fill="#F1F1F1" height="42.75" rx="12.5" ry="12.5" style="stroke:#181818;stroke-width:1.5;" width="156.8896" x="472" y="446.8633"/><text fill="#000000" font-family="sans-serif" font-size="14" lengthAdjust="spacing" textLength="112" x="482" y="476.0996">&#33509;&#23627;&#37324;&#27809;&#20154;&#65292;&#25772;&#38376;</text><path d="M617.9907,457.6654 C617.1793,457.1392 616.0961,457.3702 615.5705,458.181 L605.7646,473.2958 L600.9825,468.8741 C600.2726,468.2179 599.166,468.261 598.5097,468.9709 C597.8535,469.6803 597.8966,470.788 598.6066,471.4437 L604.8856,477.249 C605.0658,477.4042 605.0658,477.4042 605.1492,477.4584 C605.4432,477.6498 605.7734,477.7408 606.1001,477.7408 C606.6729,477.7408 607.2346,477.4596 607.5701,476.9428 L618.5064,460.0856 C619.0326,459.2748 618.8016,458.1909 617.9907,457.6654 " fill="#FE0000" style="stroke:;stroke-width:0.0;stroke-dasharray:;"/><path d="M422,499.6133 L432,499.6133 C447,499.6133 447,468.2383 462,468.2383 L472,468.2383 " fill="none" style="stroke:#181818;stroke-width:1.0;"/><rect fill="#F1F1F1" height="42.75" rx="12.5" ry="12.5" style="stroke:#181818;stroke-width:1.5;" width="170.8896" x="472" y="509.6133"/><text fill="#000000" font-family="sans-serif" font-size="14" lengthAdjust="spacing" textLength="126" x="482" y="538.8496">&#33509;&#23627;&#37324;&#26377;&#20154;&#65292;&#36827;&#38376;&#21518;</text><path d="M631.9907,520.4154 C631.1793,519.8892 630.0961,520.1202 629.5705,520.931 L619.7646,536.0458 L614.9825,531.6241 C614.2726,530.9679 613.166,531.011 612.5097,531.7209 C611.8535,532.4303 611.8966,533.538 612.6066,534.1937 L618.8856,539.999 C619.0658,540.1542 619.0658,540.1542 619.1492,540.2084 C619.4432,540.3998 619.7734,540.4908 620.1001,540.4908 C620.6729,540.4908 621.2346,540.2096 621.5701,539.6928 L632.5064,522.8356 C633.0326,522.0248 632.8016,520.9409 631.9907,520.4154 " fill="#FE0000" style="stroke:;stroke-width:0.0;stroke-dasharray:;"/><path d="M422,499.6133 L432,499.6133 C447,499.6133 447,530.9883 462,530.9883 L472,530.9883 " fill="none" style="stroke:#181818;stroke-width:1.0;"/><path d="M296,468.2383 L306,468.2383 C321,468.2383 321,499.6133 336,499.6133 L346,499.6133 " fill="none" style="stroke:#181818;stroke-width:1.0;"/><path d="M184,593.7383 L194,593.7383 C209,593.7383 209,468.2383 224,468.2383 L234,468.2383 " fill="none" style="stroke:#181818;stroke-width:1.0;"/><rect fill="#F1F1F1" height="38.6211" rx="12.5" ry="12.5" style="stroke:#181818;stroke-width:1.5;" width="62" x="234" y="605.8027"/><text fill="#000000" font-family="sans-serif" font-size="14" lengthAdjust="spacing" textLength="42" x="244" y="630.9102">&#35784;&#39575;&#32618;</text><rect fill="#F1F1F1" height="42.75" rx="12.5" ry="12.5" style="stroke:#181818;stroke-width:1.5;" width="212.8896" x="346" y="572.3633"/><text fill="#000000" font-family="sans-serif" font-size="14" lengthAdjust="spacing" textLength="168" x="356" y="601.5996">&#20026;&#20102;&#35784;&#39575;&#32780;&#20266;&#36896;&#35777;&#20214;&#30340;&#34892;&#20026;</text><path d="M540.8618,592.8656 L546.6269,587.1005 C547.3106,586.4174 547.3106,585.3091 546.6269,584.6254 C545.9432,583.9424 544.8361,583.9424 544.1524,584.6254 L538.3873,590.3905 L532.6222,584.626 C531.9391,583.9424 530.8308,583.9424 530.1471,584.626 C529.4641,585.3091 529.4641,586.4174 530.1471,587.1011 L535.9122,592.8656 L530.1331,598.6447 C529.4501,599.3278 529.4501,600.4361 530.1331,601.1192 C530.4744,601.461 530.923,601.6319 531.3704,601.6319 C531.8178,601.6319 532.2664,601.461 532.6082,601.1192 L538.3867,595.3407 L544.1512,601.1052 C544.4931,601.447 544.9411,601.6179 545.3885,601.6179 C545.8359,601.6179 546.2839,601.447 546.6257,601.1052 C547.3094,600.4221 547.3094,599.3138 546.6257,598.6307 L540.8618,592.8656 " fill="#FE0000" style="stroke:;stroke-width:0.0;stroke-dasharray:;"/><rect fill="#F1F1F1" height="38.6211" rx="12.5" ry="12.5" style="stroke:#181818;stroke-width:1.5;" width="76" x="608.8896" y="574.4277"/><text fill="#000000" font-family="sans-serif" font-size="14" lengthAdjust="spacing" textLength="56" x="618.8896" y="599.5352">&#39044;&#22791;&#34892;&#20026;</text><path d="M558.8896,593.7383 L568.8896,593.7383 C583.8896,593.7383 583.8896,593.7383 598.8896,593.7383 L608.8896,593.7383 " fill="none" style="stroke:#181818;stroke-width:1.0;"/><path d="M296,625.1133 L306,625.1133 C321,625.1133 321,593.7383 336,593.7383 L346,593.7383 " fill="none" style="stroke:#181818;stroke-width:1.0;"/><rect fill="#F1F1F1" height="42.75" rx="12.5" ry="12.5" style="stroke:#181818;stroke-width:1.5;" width="184.8896" x="346" y="635.1133"/><text fill="#000000" font-family="sans-serif" font-size="14" lengthAdjust="spacing" textLength="140" x="356" y="664.3496">&#24320;&#22987;&#21521;&#34987;&#23475;&#20154;&#23454;&#26045;&#35784;&#39575;</text><path d="M519.9907,645.9154 C519.1793,645.3892 518.0961,645.6202 517.5705,646.431 L507.7646,661.5458 L502.9825,657.1241 C502.2726,656.4679 501.166,656.511 500.5097,657.2209 C499.8535,657.9303 499.8966,659.038 500.6066,659.6937 L506.8856,665.499 C507.0658,665.6542 507.0658,665.6542 507.1492,665.7084 C507.4432,665.8998 507.7734,665.9908 508.1001,665.9908 C508.6729,665.9908 509.2346,665.7096 509.5701,665.1928 L520.5064,648.3356 C521.0326,647.5248 520.8016,646.4409 519.9907,645.9154 " fill="#FE0000" style="stroke:;stroke-width:0.0;stroke-dasharray:;"/><path d="M296,625.1133 L306,625.1133 C321,625.1133 321,656.4883 336,656.4883 L346,656.4883 " fill="none" style="stroke:#181818;stroke-width:1.0;"/><path d="M184,593.7383 L194,593.7383 C209,593.7383 209,625.1133 224,625.1133 L234,625.1133 " fill="none" style="stroke:#181818;stroke-width:1.0;"/><rect fill="#F1F1F1" height="38.6211" rx="12.5" ry="12.5" style="stroke:#181818;stroke-width:1.5;" width="90" x="234" y="762.6777"/><text fill="#000000" font-family="sans-serif" font-size="14" lengthAdjust="spacing" textLength="70" x="244" y="787.7852">&#20445;&#38505;&#35784;&#39575;&#32618;</text><rect fill="#F1F1F1" height="42.75" rx="12.5" ry="12.5" style="stroke:#181818;stroke-width:1.5;" width="240.8896" x="374" y="697.8633"/><text fill="#000000" font-family="sans-serif" font-size="14" lengthAdjust="spacing" textLength="196" x="384" y="727.0996">&#20026;&#20102;&#20445;&#38505;&#35784;&#39575;&#32780;&#21046;&#36896;&#20107;&#25925;&#30340;&#34892;&#20026;</text><path d="M596.8618,718.3656 L602.6269,712.6005 C603.3106,711.9174 603.3106,710.8091 602.6269,710.1254 C601.9432,709.4424 600.8361,709.4424 600.1524,710.1254 L594.3873,715.8905 L588.6222,710.126 C587.9391,709.4424 586.8308,709.4424 586.1471,710.126 C585.4641,710.8091 585.4641,711.9174 586.1471,712.6011 L591.9122,718.3656 L586.1331,724.1447 C585.4501,724.8278 585.4501,725.9361 586.1331,726.6192 C586.4744,726.961 586.923,727.1319 587.3704,727.1319 C587.8178,727.1319 588.2664,726.961 588.6082,726.6192 L594.3867,720.8407 L600.1512,726.6052 C600.4931,726.947 600.9411,727.1179 601.3885,727.1179 C601.8359,727.1179 602.2839,726.947 602.6257,726.6052 C603.3094,725.9221 603.3094,724.8138 602.6257,724.1307 L596.8618,718.3656 " fill="#FE0000" style="stroke:;stroke-width:0.0;stroke-dasharray:;"/><rect fill="#F1F1F1" height="38.6211" rx="12.5" ry="12.5" style="stroke:#181818;stroke-width:1.5;" width="76" x="664.8896" y="699.9277"/><text fill="#000000" font-family="sans-serif" font-size="14" lengthAdjust="spacing" textLength="56" x="674.8896" y="725.0352">&#39044;&#22791;&#34892;&#20026;</text><path d="M614.8896,719.2383 L624.8896,719.2383 C639.8896,719.2383 639.8896,719.2383 654.8896,719.2383 L664.8896,719.2383 " fill="none" style="stroke:#181818;stroke-width:1.0;"/><path d="M324,781.9883 L334,781.9883 C349,781.9883 349,719.2383 364,719.2383 L374,719.2383 " fill="none" style="stroke:#181818;stroke-width:1.0;"/><rect fill="#F1F1F1" height="42.75" rx="12.5" ry="12.5" style="stroke:#181818;stroke-width:1.5;" width="338.8896" x="374" y="760.6133"/><text fill="#000000" font-family="sans-serif" font-size="14" lengthAdjust="spacing" textLength="294" x="384" y="789.8496">&#21046;&#36896;&#23436;&#20107;&#25925;&#21518;&#65292;&#21521;&#20445;&#38505;&#20844;&#21496;&#25171;&#30005;&#35805;&#35810;&#38382;&#32034;&#36180;&#20107;&#23452;</text><path d="M694.8618,781.1156 L700.6269,775.3505 C701.3106,774.6674 701.3106,773.5591 700.6269,772.8754 C699.9432,772.1924 698.8361,772.1924 698.1524,772.8754 L692.3873,778.6405 L686.6222,772.876 C685.9391,772.1924 684.8308,772.1924 684.1471,772.876 C683.4641,773.5591 683.4641,774.6674 684.1471,775.3511 L689.9122,781.1156 L684.1331,786.8947 C683.4501,787.5778 683.4501,788.6861 684.1331,789.3692 C684.4744,789.711 684.923,789.8819 685.3704,789.8819 C685.8178,789.8819 686.2664,789.711 686.6082,789.3692 L692.3867,783.5907 L698.1512,789.3552 C698.4931,789.697 698.9411,789.8679 699.3885,789.8679 C699.8359,789.8679 700.2839,789.697 700.6257,789.3552 C701.3094,788.6721 701.3094,787.5638 700.6257,786.8807 L694.8618,781.1156 " fill="#FE0000" style="stroke:;stroke-width:0.0;stroke-dasharray:;"/><path d="M324,781.9883 L334,781.9883 C349,781.9883 349,781.9883 364,781.9883 L374,781.9883 " fill="none" style="stroke:#181818;stroke-width:1.0;"/><rect fill="#F1F1F1" height="42.75" rx="12.5" ry="12.5" style="stroke:#181818;stroke-width:1.5;" width="198.8896" x="374" y="823.3633"/><text fill="#000000" font-family="sans-serif" font-size="14" lengthAdjust="spacing" textLength="154" x="384" y="852.5996">&#24320;&#22987;&#21521;&#20445;&#38505;&#20844;&#21496;&#25552;&#20986;&#32034;&#36180;</text><path d="M561.9907,834.1654 C561.1793,833.6392 560.0961,833.8702 559.5705,834.681 L549.7646,849.7958 L544.9825,845.3741 C544.2726,844.7179 543.166,844.761 542.5097,845.4709 C541.8535,846.1803 541.8966,847.288 542.6066,847.9437 L548.8856,853.749 C549.0658,853.9042 549.0658,853.9042 549.1492,853.9584 C549.4432,854.1498 549.7734,854.2408 550.1001,854.2408 C550.6729,854.2408 551.2346,853.9596 551.5701,853.4428 L562.5064,836.5856 C563.0326,835.7748 562.8016,834.6909 561.9907,834.1654 " fill="#FE0000" style="stroke:;stroke-width:0.0;stroke-dasharray:;"/><path d="M324,781.9883 L334,781.9883 C349,781.9883 349,844.7383 364,844.7383 L374,844.7383 " fill="none" style="stroke:#181818;stroke-width:1.0;"/><path d="M184,593.7383 L194,593.7383 C209,593.7383 209,781.9883 224,781.9883 L234,781.9883 " fill="none" style="stroke:#181818;stroke-width:1.0;"/><rect fill="#F1F1F1" height="38.6211" rx="12.5" ry="12.5" style="stroke:#181818;stroke-width:1.5;" width="90" x="234" y="919.5527"/><text fill="#000000" font-family="sans-serif" font-size="14" lengthAdjust="spacing" textLength="70" x="244" y="944.6602">&#35820;&#21578;&#38519;&#23475;&#32618;</text><rect fill="#F1F1F1" height="42.75" rx="12.5" ry="12.5" style="stroke:#181818;stroke-width:1.5;" width="212.8896" x="374" y="886.1133"/><text fill="#000000" font-family="sans-serif" font-size="14" lengthAdjust="spacing" textLength="168" x="384" y="915.3496">&#20026;&#20102;&#35820;&#21578;&#38519;&#23475;&#32780;&#20889;&#35820;&#21578;&#26448;&#26009;</text><path d="M568.8618,906.6156 L574.6269,900.8505 C575.3106,900.1674 575.3106,899.0591 574.6269,898.3754 C573.9432,897.6924 572.8361,897.6924 572.1524,898.3754 L566.3873,904.1405 L560.6222,898.376 C559.9391,897.6924 558.8308,897.6924 558.1471,898.376 C557.4641,899.0591 557.4641,900.1674 558.1471,900.8511 L563.9122,906.6156 L558.1331,912.3947 C557.4501,913.0778 557.4501,914.1861 558.1331,914.8692 C558.4744,915.211 558.923,915.3819 559.3704,915.3819 C559.8178,915.3819 560.2664,915.211 560.6082,914.8692 L566.3867,909.0907 L572.1512,914.8552 C572.4931,915.197 572.9411,915.3679 573.3885,915.3679 C573.8359,915.3679 574.2839,915.197 574.6257,914.8552 C575.3094,914.1721 575.3094,913.0638 574.6257,912.3807 L568.8618,906.6156 " fill="#FE0000" style="stroke:;stroke-width:0.0;stroke-dasharray:;"/><rect fill="#F1F1F1" height="38.6211" rx="12.5" ry="12.5" style="stroke:#181818;stroke-width:1.5;" width="76" x="636.8896" y="888.1777"/><text fill="#000000" font-family="sans-serif" font-size="14" lengthAdjust="spacing" textLength="56" x="646.8896" y="913.2852">&#39044;&#22791;&#34892;&#20026;</text><path d="M586.8896,907.4883 L596.8896,907.4883 C611.8896,907.4883 611.8896,907.4883 626.8896,907.4883 L636.8896,907.4883 " fill="none" style="stroke:#181818;stroke-width:1.0;"/><path d="M324,938.8633 L334,938.8633 C349,938.8633 349,907.4883 364,907.4883 L374,907.4883 " fill="none" style="stroke:#181818;stroke-width:1.0;"/><rect fill="#F1F1F1" height="42.75" rx="12.5" ry="12.5" style="stroke:#181818;stroke-width:1.5;" width="142.8896" x="374" y="948.8633"/><text fill="#000000" font-family="sans-serif" font-size="14" lengthAdjust="spacing" textLength="98" x="384" y="978.0996">&#21521;&#26377;&#20851;&#26426;&#20851;&#21578;&#21457;</text><path d="M505.9907,959.6654 C505.1793,959.1392 504.0961,959.3702 503.5705,960.181 L493.7646,975.2958 L488.9825,970.8741 C488.2726,970.2179 487.166,970.261 486.5097,970.9709 C485.8535,971.6803 485.8966,972.788 486.6066,973.4437 L492.8856,979.249 C493.0658,979.4042 493.0658,979.4042 493.1492,979.4584 C493.4432,979.6498 493.7734,979.7408 494.1001,979.7408 C494.6729,979.7408 495.2346,979.4596 495.5701,978.9428 L506.5064,962.0856 C507.0326,961.2748 506.8016,960.1909 505.9907,959.6654 " fill="#FE0000" style="stroke:;stroke-width:0.0;stroke-dasharray:;"/><path d="M324,938.8633 L334,938.8633 C349,938.8633 349,970.2383 364,970.2383 L374,970.2383 " fill="none" style="stroke:#181818;stroke-width:1.0;"/><path d="M184,593.7383 L194,593.7383 C209,593.7383 209,938.8633 224,938.8633 L234,938.8633 " fill="none" style="stroke:#181818;stroke-width:1.0;"/><path d="M58,876.1133 L68,876.1133 C83,876.1133 83,593.7383 98,593.7383 L108,593.7383 " fill="none" style="stroke:#181818;stroke-width:1.0;"/><rect fill="#F1F1F1" height="38.6211" rx="12.5" ry="12.5" style="stroke:#181818;stroke-width:1.5;" width="76" x="108" y="1352.6094"/><text fill="#000000" font-family="sans-serif" font-size="14" lengthAdjust="spacing" textLength="56" x="118" y="1377.7168">&#29305;&#27530;&#38382;&#39064;</text><rect fill="#F1F1F1" height="38.6211" rx="12.5" ry="12.5" style="stroke:#181818;stroke-width:1.5;" width="62" x="234" y="1197.7988"/><text fill="#000000" font-family="sans-serif" font-size="14" lengthAdjust="spacing" textLength="42" x="244" y="1222.9063">&#38548;&#31163;&#29359;</text><rect fill="#F1F1F1" height="38.6211" rx="12.5" ry="12.5" style="stroke:#181818;stroke-width:1.5;" width="76" x="346" y="1040.9238"/><text fill="#000000" font-family="sans-serif" font-size="14" lengthAdjust="spacing" textLength="56" x="356" y="1066.0313">&#21028;&#26029;&#26631;&#20934;</text><rect fill="#F1F1F1" height="38.6211" rx="12.5" ry="12.5" style="stroke:#181818;stroke-width:1.5;" width="174" x="472" y="1040.9238"/><text fill="#000000" font-family="sans-serif" font-size="14" lengthAdjust="spacing" textLength="154" x="482" y="1066.0313">&#30475;&#37038;&#23492;&#29289;&#22312;&#36884;&#20013;&#26377;&#26080;&#21361;&#38505;</text><rect fill="#F1F1F1" height="38.6211" rx="12.5" ry="12.5" style="stroke:#181818;stroke-width:1.5;" width="118" x="696" y="1011.6133"/><text fill="#000000" font-family="sans-serif" font-size="14" lengthAdjust="spacing" textLength="98" x="706" y="1036.7207">&#22914;&#26524;&#26377;&#65292;&#23492;&#20986;&#26102;</text><path d="M646,1060.2344 L656,1060.2344 C671,1060.2344 671,1030.9238 686,1030.9238 L696,1030.9238 " fill="none" style="stroke:#181818;stroke-width:1.0;"/><rect fill="#F1F1F1" height="38.6211" rx="12.5" ry="12.5" style="stroke:#181818;stroke-width:1.5;" width="132" x="696" y="1070.2344"/><text fill="#000000" font-family="sans-serif" font-size="14" lengthAdjust="spacing" textLength="112" x="706" y="1095.3418">&#22914;&#26524;&#27809;&#26377;&#65292;&#25171;&#24320;&#26102;</text><path d="M646,1060.2344 L656,1060.2344 C671,1060.2344 671,1089.5449 686,1089.5449 L696,1089.5449 " fill="none" style="stroke:#181818;stroke-width:1.0;"/><path d="M422,1060.2344 L432,1060.2344 C447,1060.2344 447,1060.2344 462,1060.2344 L472,1060.2344 " fill="none" style="stroke:#181818;stroke-width:1.0;"/><path d="M296,1217.1094 L306,1217.1094 C321,1217.1094 321,1060.2344 336,1060.2344 L346,1060.2344 " fill="none" style="stroke:#181818;stroke-width:1.0;"/><rect fill="#F1F1F1" height="38.6211" rx="12.5" ry="12.5" style="stroke:#181818;stroke-width:1.5;" width="48" x="346" y="1256.4199"/><text fill="#000000" font-family="sans-serif" font-size="14" lengthAdjust="spacing" textLength="28" x="356" y="1281.5273">&#26696;&#20363;</text><rect fill="#F1F1F1" height="38.6211" rx="12.5" ry="12.5" style="stroke:#181818;stroke-width:1.5;" width="146" x="444" y="1193.6699"/><text fill="#000000" font-family="sans-serif" font-size="14" lengthAdjust="spacing" textLength="126" x="454" y="1218.7773">&#30002;&#21521;&#20057;&#37038;&#23492;&#26377;&#27602;&#39292;&#24178;</text><rect fill="#F1F1F1" height="42.75" rx="12.5" ry="12.5" style="stroke:#181818;stroke-width:1.5;" width="100.8896" x="640" y="1128.8555"/><text fill="#000000" font-family="sans-serif" font-size="14" lengthAdjust="spacing" textLength="56" x="650" y="1158.0918">&#30002;&#23492;&#20986;&#26102;</text><path d="M722.8618,1149.3578 L728.6269,1143.5927 C729.3106,1142.9096 729.3106,1141.8013 728.6269,1141.1176 C727.9432,1140.4346 726.8361,1140.4346 726.1524,1141.1176 L720.3873,1146.8827 L714.6222,1141.1182 C713.9391,1140.4346 712.8308,1140.4346 712.1471,1141.1182 C711.4641,1141.8013 711.4641,1142.9096 712.1471,1143.5933 L717.9122,1149.3578 L712.1331,1155.1369 C711.4501,1155.82 711.4501,1156.9283 712.1331,1157.6114 C712.4744,1157.9532 712.923,1158.1241 713.3704,1158.1241 C713.8178,1158.1241 714.2664,1157.9532 714.6082,1157.6114 L720.3867,1151.8329 L726.1512,1157.5974 C726.4931,1157.9392 726.9411,1158.1101 727.3885,1158.1101 C727.8359,1158.1101 728.2839,1157.9392 728.6257,1157.5974 C729.3094,1156.9143 729.3094,1155.806 728.6257,1155.1229 L722.8618,1149.3578 " fill="#FE0000" style="stroke:;stroke-width:0.0;stroke-dasharray:;"/><path d="M590,1212.9805 L600,1212.9805 C615,1212.9805 615,1150.2305 630,1150.2305 L640,1150.2305 " fill="none" style="stroke:#181818;stroke-width:1.0;"/><rect fill="#F1F1F1" height="42.75" rx="12.5" ry="12.5" style="stroke:#181818;stroke-width:1.5;" width="156.8896" x="640" y="1191.6055"/><text fill="#000000" font-family="sans-serif" font-size="14" lengthAdjust="spacing" textLength="112" x="650" y="1220.8418">&#20057;&#25910;&#21040;&#65292;&#20294;&#19981;&#25171;&#24320;</text><path d="M778.8618,1212.1078 L784.6269,1206.3427 C785.3106,1205.6596 785.3106,1204.5513 784.6269,1203.8676 C783.9432,1203.1846 782.8361,1203.1846 782.1524,1203.8676 L776.3873,1209.6327 L770.6222,1203.8682 C769.9391,1203.1846 768.8308,1203.1846 768.1471,1203.8682 C767.4641,1204.5513 767.4641,1205.6596 768.1471,1206.3433 L773.9122,1212.1078 L768.1331,1217.8869 C767.4501,1218.57 767.4501,1219.6783 768.1331,1220.3614 C768.4744,1220.7032 768.923,1220.8741 769.3704,1220.8741 C769.8178,1220.8741 770.2664,1220.7032 770.6082,1220.3614 L776.3867,1214.5829 L782.1512,1220.3474 C782.4931,1220.6892 782.9411,1220.8601 783.3885,1220.8601 C783.8359,1220.8601 784.2839,1220.6892 784.6257,1220.3474 C785.3094,1219.6643 785.3094,1218.556 784.6257,1217.8729 L778.8618,1212.1078 " fill="#FE0000" style="stroke:;stroke-width:0.0;stroke-dasharray:;"/><path d="M590,1212.9805 L600,1212.9805 C615,1212.9805 615,1212.9805 630,1212.9805 L640,1212.9805 " fill="none" style="stroke:#181818;stroke-width:1.0;"/><rect fill="#F1F1F1" height="42.75" rx="12.5" ry="12.5" style="stroke:#181818;stroke-width:1.5;" width="100.8896" x="640" y="1254.3555"/><text fill="#000000" font-family="sans-serif" font-size="14" lengthAdjust="spacing" textLength="56" x="650" y="1283.5918">&#20057;&#25171;&#24320;&#26102;</text><path d="M729.9907,1265.1576 C729.1793,1264.6314 728.0961,1264.8624 727.5705,1265.6732 L717.7646,1280.788 L712.9825,1276.3663 C712.2726,1275.7101 711.166,1275.7532 710.5097,1276.4631 C709.8535,1277.1725 709.8966,1278.2802 710.6066,1278.9359 L716.8856,1284.7412 C717.0658,1284.8964 717.0658,1284.8964 717.1492,1284.9506 C717.4432,1285.142 717.7734,1285.233 718.1001,1285.233 C718.6729,1285.233 719.2346,1284.9518 719.5701,1284.435 L730.5064,1267.5778 C731.0326,1266.767 730.8016,1265.6831 729.9907,1265.1576 " fill="#FE0000" style="stroke:;stroke-width:0.0;stroke-dasharray:;"/><path d="M590,1212.9805 L600,1212.9805 C615,1212.9805 615,1275.7305 630,1275.7305 L640,1275.7305 " fill="none" style="stroke:#181818;stroke-width:1.0;"/><path d="M394,1275.7305 L404,1275.7305 C419,1275.7305 419,1212.9805 434,1212.9805 L444,1212.9805 " fill="none" style="stroke:#181818;stroke-width:1.0;"/><rect fill="#F1F1F1" height="38.6211" rx="12.5" ry="12.5" style="stroke:#181818;stroke-width:1.5;" width="76" x="444" y="1319.1699"/><text fill="#000000" font-family="sans-serif" font-size="14" lengthAdjust="spacing" textLength="56" x="454" y="1344.2773">&#37038;&#23492;&#28856;&#24377;</text><rect fill="#F1F1F1" height="42.75" rx="12.5" ry="12.5" style="stroke:#181818;stroke-width:1.5;" width="86.8896" x="570" y="1317.1055"/><text fill="#000000" font-family="sans-serif" font-size="14" lengthAdjust="spacing" textLength="42" x="580" y="1346.3418">&#37038;&#23492;&#26102;</text><path d="M645.9907,1327.9076 C645.1793,1327.3814 644.0961,1327.6124 643.5705,1328.4232 L633.7646,1343.538 L628.9825,1339.1163 C628.2726,1338.4601 627.166,1338.5032 626.5097,1339.2131 C625.8535,1339.9225 625.8966,1341.0302 626.6066,1341.6859 L632.8856,1347.4912 C633.0658,1347.6464 633.0658,1347.6464 633.1492,1347.7006 C633.4432,1347.892 633.7734,1347.983 634.1001,1347.983 C634.6729,1347.983 635.2346,1347.7018 635.5701,1347.185 L646.5064,1330.3278 C647.0326,1329.517 646.8016,1328.4331 645.9907,1327.9076 " fill="#FE0000" style="stroke:;stroke-width:0.0;stroke-dasharray:;"/><path d="M520,1338.4805 L530,1338.4805 C545,1338.4805 545,1338.4805 560,1338.4805 L570,1338.4805 " fill="none" style="stroke:#181818;stroke-width:1.0;"/><path d="M394,1275.7305 L404,1275.7305 C419,1275.7305 419,1338.4805 434,1338.4805 L444,1338.4805 " fill="none" style="stroke:#181818;stroke-width:1.0;"/><rect fill="#F1F1F1" height="38.6211" rx="12.5" ry="12.5" style="stroke:#181818;stroke-width:1.5;" width="174" x="444" y="1381.9199"/><text fill="#000000" font-family="sans-serif" font-size="14" lengthAdjust="spacing" textLength="154" x="454" y="1407.0273">&#37038;&#23492;&#26377;&#20256;&#25773;&#21361;&#38505;&#30340;&#30149;&#27602;&#31881;</text><rect fill="#F1F1F1" height="42.75" rx="12.5" ry="12.5" style="stroke:#181818;stroke-width:1.5;" width="86.8896" x="668" y="1379.8555"/><text fill="#000000" font-family="sans-serif" font-size="14" lengthAdjust="spacing" textLength="42" x="678" y="1409.0918">&#37038;&#23492;&#26102;</text><path d="M743.9907,1390.6576 C743.1793,1390.1314 742.0961,1390.3624 741.5705,1391.1732 L731.7646,1406.288 L726.9825,1401.8663 C726.2726,1401.2101 725.166,1401.2532 724.5097,1401.9631 C723.8535,1402.6725 723.8966,1403.7802 724.6066,1404.4359 L730.8856,1410.2412 C731.0658,1410.3964 731.0658,1410.3964 731.1492,1410.4506 C731.4432,1410.642 731.7734,1410.733 732.1001,1410.733 C732.6729,1410.733 733.2346,1410.4518 733.5701,1409.935 L744.5064,1393.0778 C745.0326,1392.267 744.8016,1391.1831 743.9907,1390.6576 " fill="#FE0000" style="stroke:;stroke-width:0.0;stroke-dasharray:;"/><path d="M618,1401.2305 L628,1401.2305 C643,1401.2305 643,1401.2305 658,1401.2305 L668,1401.2305 " fill="none" style="stroke:#181818;stroke-width:1.0;"/><path d="M394,1275.7305 L404,1275.7305 C419,1275.7305 419,1401.2305 434,1401.2305 L444,1401.2305 " fill="none" style="stroke:#181818;stroke-width:1.0;"/><path d="M296,1217.1094 L306,1217.1094 C321,1217.1094 321,1275.7305 336,1275.7305 L346,1275.7305 " fill="none" style="stroke:#181818;stroke-width:1.0;"/><path d="M184,1371.9199 L194,1371.9199 C209,1371.9199 209,1217.1094 224,1217.1094 L234,1217.1094 " fill="none" style="stroke:#181818;stroke-width:1.0;"/><rect fill="#F1F1F1" height="38.6211" rx="12.5" ry="12.5" style="stroke:#181818;stroke-width:1.5;" width="76" x="234" y="1568.1055"/><text fill="#000000" font-family="sans-serif" font-size="14" lengthAdjust="spacing" textLength="56" x="244" y="1593.2129">&#38388;&#25509;&#27491;&#29359;</text><rect fill="#F1F1F1" height="38.6211" rx="12.5" ry="12.5" style="stroke:#181818;stroke-width:1.5;" width="76" x="360" y="1442.6055"/><text fill="#000000" font-family="sans-serif" font-size="14" lengthAdjust="spacing" textLength="56" x="370" y="1467.7129">&#21028;&#26029;&#26631;&#20934;</text><rect fill="#F1F1F1" height="38.6211" rx="12.5" ry="12.5" style="stroke:#181818;stroke-width:1.5;" width="132" x="486" y="1442.6055"/><text fill="#000000" font-family="sans-serif" font-size="14" lengthAdjust="spacing" textLength="112" x="496" y="1467.7129">&#20197;&#34987;&#21033;&#29992;&#20154;&#20026;&#26631;&#20934;</text><rect fill="#F1F1F1" height="38.6211" rx="12.5" ry="12.5" style="stroke:#181818;stroke-width:1.5;" width="244" x="668" y="1442.6055"/><text fill="#000000" font-family="sans-serif" font-size="14" lengthAdjust="spacing" textLength="224" x="678" y="1467.7129">&#34987;&#21033;&#29992;&#20154;&#30528;&#25163;&#65292;&#23601;&#35270;&#20026;&#38388;&#25509;&#27491;&#29359;&#30528;&#25163;</text><path d="M618,1461.916 L628,1461.916 C643,1461.916 643,1461.916 658,1461.916 L668,1461.916 " fill="none" style="stroke:#181818;stroke-width:1.0;"/><path d="M436,1461.916 L446,1461.916 C461,1461.916 461,1461.916 476,1461.916 L486,1461.916 " fill="none" style="stroke:#181818;stroke-width:1.0;"/><path d="M310,1587.416 L320,1587.416 C335,1587.416 335,1461.916 350,1461.916 L360,1461.916 " fill="none" style="stroke:#181818;stroke-width:1.0;"/><rect fill="#F1F1F1" height="38.6211" rx="12.5" ry="12.5" style="stroke:#181818;stroke-width:1.5;" width="48" x="360" y="1597.416"/><text fill="#000000" font-family="sans-serif" font-size="14" lengthAdjust="spacing" textLength="28" x="370" y="1622.5234">&#26696;&#20363;</text><rect fill="#F1F1F1" height="38.6211" rx="12.5" ry="12.5" style="stroke:#181818;stroke-width:1.5;" width="174" x="458" y="1597.416"/><text fill="#000000" font-family="sans-serif" font-size="14" lengthAdjust="spacing" textLength="154" x="468" y="1622.5234">&#30002;&#25351;&#20351;&#23567;&#23401;&#20837;&#23460;&#30423;&#31363;&#20057;&#23478;</text><rect fill="#F1F1F1" height="42.75" rx="12.5" ry="12.5" style="stroke:#181818;stroke-width:1.5;" width="128.8896" x="682" y="1501.2266"/><text fill="#000000" font-family="sans-serif" font-size="14" lengthAdjust="spacing" textLength="84" x="692" y="1530.4629">&#30002;&#25351;&#20351;&#23567;&#23401;&#26102;</text><path d="M792.8618,1521.7289 L798.6269,1515.9638 C799.3106,1515.2807 799.3106,1514.1724 798.6269,1513.4887 C797.9432,1512.8056 796.8361,1512.8056 796.1524,1513.4887 L790.3873,1519.2538 L784.6222,1513.4893 C783.9391,1512.8056 782.8308,1512.8056 782.1471,1513.4893 C781.4641,1514.1724 781.4641,1515.2807 782.1471,1515.9644 L787.9122,1521.7289 L782.1331,1527.508 C781.4501,1528.1911 781.4501,1529.2994 782.1331,1529.9825 C782.4744,1530.3243 782.923,1530.4952 783.3704,1530.4952 C783.8178,1530.4952 784.2664,1530.3243 784.6082,1529.9825 L790.3867,1524.204 L796.1512,1529.9685 C796.4931,1530.3103 796.9411,1530.4812 797.3885,1530.4812 C797.8359,1530.4812 798.2839,1530.3103 798.6257,1529.9685 C799.3094,1529.2854 799.3094,1528.1771 798.6257,1527.494 L792.8618,1521.7289 " fill="#FE0000" style="stroke:;stroke-width:0.0;stroke-dasharray:;"/><path d="M632,1616.7266 L642,1616.7266 C657,1616.7266 657,1522.6016 672,1522.6016 L682,1522.6016 " fill="none" style="stroke:#181818;stroke-width:1.0;"/><rect fill="#F1F1F1" height="42.75" rx="12.5" ry="12.5" style="stroke:#181818;stroke-width:1.5;" width="142.8896" x="682" y="1563.9766"/><text fill="#000000" font-family="sans-serif" font-size="14" lengthAdjust="spacing" textLength="98" x="692" y="1593.2129">&#23567;&#23401;&#30528;&#25163;&#23454;&#26045;&#26102;</text><path d="M813.9907,1574.7786 C813.1793,1574.2525 812.0961,1574.4835 811.5705,1575.2943 L801.7646,1590.4091 L796.9825,1585.9874 C796.2726,1585.3311 795.166,1585.3743 794.5097,1586.0842 C793.8535,1586.7936 793.8966,1587.9013 794.6066,1588.557 L800.8856,1594.3623 C801.0658,1594.5175 801.0658,1594.5175 801.1492,1594.5717 C801.4432,1594.7631 801.7734,1594.8541 802.1001,1594.8541 C802.6729,1594.8541 803.2346,1594.5729 803.5701,1594.0561 L814.5064,1577.1989 C815.0326,1576.3881 814.8016,1575.3042 813.9907,1574.7786 " fill="#FE0000" style="stroke:;stroke-width:0.0;stroke-dasharray:;"/><path d="M632,1616.7266 L642,1616.7266 C657,1616.7266 657,1585.3516 672,1585.3516 L682,1585.3516 " fill="none" style="stroke:#181818;stroke-width:1.0;"/><rect fill="#F1F1F1" height="42.75" rx="12.5" ry="12.5" style="stroke:#181818;stroke-width:1.5;" width="240.8896" x="682" y="1626.7266"/><text fill="#000000" font-family="sans-serif" font-size="14" lengthAdjust="spacing" textLength="196" x="692" y="1655.9629">&#23567;&#23401;&#22312;&#21435;&#20057;&#23478;&#30340;&#36335;&#19978;&#34987;&#20154;&#25296;&#21334;&#20102;</text><path d="M904.8618,1647.2289 L910.6269,1641.4638 C911.3106,1640.7807 911.3106,1639.6724 910.6269,1638.9887 C909.9432,1638.3056 908.8361,1638.3056 908.1524,1638.9887 L902.3873,1644.7538 L896.6222,1638.9893 C895.9391,1638.3056 894.8308,1638.3056 894.1471,1638.9893 C893.4641,1639.6724 893.4641,1640.7807 894.1471,1641.4644 L899.9122,1647.2289 L894.1331,1653.008 C893.4501,1653.6911 893.4501,1654.7994 894.1331,1655.4825 C894.4744,1655.8243 894.923,1655.9952 895.3704,1655.9952 C895.8178,1655.9952 896.2664,1655.8243 896.6082,1655.4825 L902.3867,1649.704 L908.1512,1655.4685 C908.4931,1655.8103 908.9411,1655.9812 909.3885,1655.9812 C909.8359,1655.9812 910.2839,1655.8103 910.6257,1655.4685 C911.3094,1654.7854 911.3094,1653.6771 910.6257,1652.994 L904.8618,1647.2289 " fill="#FE0000" style="stroke:;stroke-width:0.0;stroke-dasharray:;"/><rect fill="#F1F1F1" height="38.6211" rx="12.5" ry="12.5" style="stroke:#181818;stroke-width:1.5;" width="230" x="972.8896" y="1628.791"/><text fill="#000000" font-family="sans-serif" font-size="14" lengthAdjust="spacing" textLength="210" x="982.8896" y="1653.8984">&#30002;&#26500;&#25104;&#30423;&#31363;&#32618;&#38388;&#25509;&#27491;&#29359;&#30340;&#29359;&#32618;&#39044;&#22791;</text><path d="M922.8896,1648.1016 L932.8896,1648.1016 C947.8896,1648.1016 947.8896,1648.1016 962.8896,1648.1016 L972.8896,1648.1016 " fill="none" style="stroke:#181818;stroke-width:1.0;"/><path d="M632,1616.7266 L642,1616.7266 C657,1616.7266 657,1648.1016 672,1648.1016 L682,1648.1016 " fill="none" style="stroke:#181818;stroke-width:1.0;"/><rect fill="#F1F1F1" height="42.75" rx="12.5" ry="12.5" style="stroke:#181818;stroke-width:1.5;" width="254.8896" x="682" y="1689.4766"/><text fill="#000000" font-family="sans-serif" font-size="14" lengthAdjust="spacing" textLength="210" x="692" y="1718.7129">&#23567;&#23401;&#24471;&#25163;&#65292;&#22238;&#23478;&#30340;&#36335;&#19978;&#34987;&#20154;&#25296;&#21334;&#20102;</text><path d="M925.9907,1700.2786 C925.1793,1699.7525 924.0961,1699.9835 923.5705,1700.7943 L913.7646,1715.9091 L908.9825,1711.4874 C908.2726,1710.8311 907.166,1710.8743 906.5097,1711.5842 C905.8535,1712.2936 905.8966,1713.4013 906.6066,1714.057 L912.8856,1719.8623 C913.0658,1720.0175 913.0658,1720.0175 913.1492,1720.0717 C913.4432,1720.2631 913.7734,1720.3541 914.1001,1720.3541 C914.6729,1720.3541 915.2346,1720.0729 915.5701,1719.5561 L926.5064,1702.6989 C927.0326,1701.8881 926.8016,1700.8042 925.9907,1700.2786 " fill="#FE0000" style="stroke:;stroke-width:0.0;stroke-dasharray:;"/><rect fill="#F1F1F1" height="38.6211" rx="12.5" ry="12.5" style="stroke:#181818;stroke-width:1.5;" width="230" x="986.8896" y="1691.541"/><text fill="#000000" font-family="sans-serif" font-size="14" lengthAdjust="spacing" textLength="210" x="996.8896" y="1716.6484">&#30002;&#26500;&#25104;&#30423;&#31363;&#32618;&#38388;&#25509;&#27491;&#29359;&#30340;&#29359;&#32618;&#26082;&#36930;</text><path d="M936.8896,1710.8516 L946.8896,1710.8516 C961.8896,1710.8516 961.8896,1710.8516 976.8896,1710.8516 L986.8896,1710.8516 " fill="none" style="stroke:#181818;stroke-width:1.0;"/><path d="M632,1616.7266 L642,1616.7266 C657,1616.7266 657,1710.8516 672,1710.8516 L682,1710.8516 " fill="none" style="stroke:#181818;stroke-width:1.0;"/><path d="M408,1616.7266 L418,1616.7266 C433,1616.7266 433,1616.7266 448,1616.7266 L458,1616.7266 " fill="none" style="stroke:#181818;stroke-width:1.0;"/><path d="M310,1587.416 L320,1587.416 C335,1587.416 335,1616.7266 350,1616.7266 L360,1616.7266 " fill="none" style="stroke:#181818;stroke-width:1.0;"/><path d="M184,1371.9199 L194,1371.9199 C209,1371.9199 209,1587.416 224,1587.416 L234,1587.416 " fill="none" style="stroke:#181818;stroke-width:1.0;"/><path d="M58,876.1133 L68,876.1133 C83,876.1133 83,1371.9199 98,1371.9199 L108,1371.9199 " fill="none" style="stroke:#181818;stroke-width:1.0;"/><!--SRC=[xLbTJnDP6BwVNp4RRzI4AiQiBZ56gPAiAxjcKM_Dq1xBo7IccKxhDfjD42cK5g5efLO-0bth1qYBY51AaJypvqpdQl_2lZEdXMdfz8FLcqq9QV2Svppln_EUzvmUh_aLJbQylEZsSZw6-O4NNKB0ZLY7uvprrw-417JE9t2Y4l0ANGQ-2nPqcUCE7iOOvYohBOwGoHZ3mizP5aVUaBbriZo19yRD8JfSMfbIymMSsoMVNshpKV8gX-DlzP5b4edZPv_qr8T3BCLhqniukrGxkFMkTB1MEpY_HQOpPUlarOlIo5FoD8ptqnRh99h6qJLjVxLcBNczXQFpu3p9VY6HEHpULlVcSB608zjqaBroIaRkdY741KCFN4F8DVp0oyd3FLSjv0O-a_ykv6K3cJpPMRD5j-2YDf_KLfyUTn67CoIoGsV_AKvf1tjwAetJgIfRte2Wy3w1Tt4ABuaF_ZZc7omh7SpZwJqSdwwQAaiVo-1FCNrYYcokg8K2s27FF-h9zws5NyknC4avm29mWCLM92hb8lfgydZyK99gOPpEbaQcrE8gb6GfzqJTszPUZz6QRISNb5LFZ-4t4tHrRSAB8_XT3CTdI-ardFqCeK2Laxbzwa8heQW7Yx1R6WTanK1OK70Gbbg8aPVXxnIMQG5dfwWHK0KKWYYf8pZy4S_aoUGBBV6bb5iivT9wCgjjfKjV4e37sONsokqmXrNiCt4yKQ2ahLN4HpmRrLCxe89zNHnXZ3IEf-W8MOoJkTItJM1y5YeRXp-JXG9yWX4yCziu3jXtaxia6uLSwkbNbj3qrmdjxPuMpHqJgKvdjkpYXPW-ciMvCMto0rvuhuyarFmwE4MIotKwj8NsxIXPMW2W8Nbk35GWoUt6sCqL2eUI035huT0vLoBgrrWz7nERXkwxAUgfuLtkkPufujrD6ul6YefJxIfMheNT54biuyW6EApkZwlvPzJjaxDLecwd0PQb6StZuguDTJad9-4rkcfncJnVfqf3az2IOKYjjZdvtuq1E6aSqMJzxxQBKjtB69qoya5Bl8Tc2Hl71bhUrHOilPKOHRdngVGET2jOtR3SMLghEp8reUuVu8qPl0uj9uEpR-Yn2OBYxBPzzLdNdRW6wNBgCpqmsfBPIW9R6qvgwhLn6Epar7mKyWOP8p6uYyr1upk9aqS1But1fUxmnb6LTAWh-8H1inCszlDhiYpV_5AhhZPDGbjEacHQVpBACDSGt98hD-LhrHVdA-PD-2fJ7hZ1SnwPyx9_WdN7e110vbyisykvXZso513TJacGP5RWFKEACG-pVnbOD_WCSTZ0oxCLi4T6I6p4R08iw50JSAY2bMHEzDWvJIShK5z0zWbsK3fPWTe7PWbAblnsRAVw-dfxdSuACeG4GNfiWwMJ9fHnyA8ekP2es63zeebasJv9LEZGe00O2fPaDvBfA6WQOYYX0dIm3JZ1AVDUEuSLoSifqZ6QYeprc9oI5pAceAOLK4r9_Qr7U5rHaDUdDDEoUV26wJAyhfr1ILOQrPSB5WlVmj8T6VausUn2pSHlGL99e4A8o0DkWg56WbhtQmjn8EJp3uTC_74JDw6330gyVyX-krlMLzjxFCGhg4uHr3NqgwGqjqKb2d5YIv6vE3TI3irnBXVljjzULQseEVT3IKR-CjvWXt-xK3_t20NaXh8OIY9Hbjnjgc-kCItv93-ly45qtTMWjdoSW5eFvYWCq8HhIkxbuHmnEc3B-wJIH_o1mKV8PHYmon4NXFCBoIqp1ta96f59BZNZDlBVHjejcnjwqn3dv_tDQwUc5JHkkLMxe77l0oW37rVEbO_mpaDMvo6hyv3LUSZgF6Hr7h8w3rcTXwpEGrRd8Uj__91rn_XFtNlzjzaWalt6DvDknuNp5ouwBfqUu1Hs0FdOyvVOxfzwkY_tT5zYdGDtMMFw37Ew_-Uxh5yAm9SprWrVMsH-C63aymnpYmjoxEy1kATxKG_xcm-9jsxyKXbWRuf1NfP4BzpBcLlt-uy0FrxiwkKDYp9umjxlPswWXnn81IjSafiNFJtilRjzNPUPst1j3t0Uu8Pl1Kwupojo2EO6_WK0]--></g></svg>