<svg xmlns="http://www.w3.org/2000/svg" xmlns:xlink="http://www.w3.org/1999/xlink" contentStyleType="text/css" height="713px" preserveAspectRatio="none" style="width:676px;height:713px;background:#FFFFFF;" version="1.1" viewBox="0 0 676 713" width="676px" zoomAndPan="magnify"><defs/><g><rect fill="#F1F1F1" height="37.6094" rx="12.5" ry="12.5" style="stroke:#181818;stroke-width:1.5;" width="108.6621" x="10" y="336.8516"/><text fill="#000000" font-family="sans-serif" font-size="14" lengthAdjust="spacing" textLength="88.6621" x="20" y="361.3848">&#29359;&#32618;&#24418;&#24577;-&#22788;&#32602;</text><rect fill="#F1F1F1" height="37.6094" rx="12.5" ry="12.5" style="stroke:#181818;stroke-width:1.5;" width="76" x="168.6621" y="164.0234"/><text fill="#000000" font-family="sans-serif" font-size="14" lengthAdjust="spacing" textLength="56" x="178.6621" y="188.5566">&#20154;&#30340;&#35270;&#35282;</text><rect fill="#F1F1F1" height="37.6094" rx="12.5" ry="12.5" style="stroke:#181818;stroke-width:1.5;" width="62" x="294.6621" y="48.8047"/><text fill="#000000" font-family="sans-serif" font-size="14" lengthAdjust="spacing" textLength="42" x="304.6621" y="73.3379">&#20013;&#27490;&#29359;</text><rect fill="#F1F1F1" height="37.6094" rx="12.5" ry="12.5" style="stroke:#181818;stroke-width:1.5;" width="104" x="406.6621" y="20"/><text fill="#000000" font-family="sans-serif" font-size="14" lengthAdjust="spacing" textLength="84" x="416.6621" y="44.5332">&#27809;&#26377;&#36896;&#25104;&#25439;&#23475;</text><rect fill="#F1F1F1" height="37.6094" rx="12.5" ry="12.5" style="stroke:#181818;stroke-width:1.5;" width="104" x="560.6621" y="20"/><text fill="#000000" font-family="sans-serif" font-size="14" lengthAdjust="spacing" textLength="84" x="570.6621" y="44.5332">&#24212;&#24403;&#20813;&#38500;&#22788;&#32602;</text><path d="M510.6621,38.8047 L520.6621,38.8047 C535.6621,38.8047 535.6621,38.8047 550.6621,38.8047 L560.6621,38.8047 " fill="none" style="stroke:#181818;stroke-width:1;"/><path d="M356.6621,67.6094 L366.6621,67.6094 C381.6621,67.6094 381.6621,38.8047 396.6621,38.8047 L406.6621,38.8047 " fill="none" style="stroke:#181818;stroke-width:1;"/><rect fill="#F1F1F1" height="37.6094" rx="12.5" ry="12.5" style="stroke:#181818;stroke-width:1.5;" width="76" x="406.6621" y="77.6094"/><text fill="#000000" font-family="sans-serif" font-size="14" lengthAdjust="spacing" textLength="56" x="416.6621" y="102.1426">&#36896;&#25104;&#25439;&#23475;</text><rect fill="#F1F1F1" height="37.6094" rx="12.5" ry="12.5" style="stroke:#181818;stroke-width:1.5;" width="104" x="532.6621" y="77.6094"/><text fill="#000000" font-family="sans-serif" font-size="14" lengthAdjust="spacing" textLength="84" x="542.6621" y="102.1426">&#24212;&#24403;&#20943;&#36731;&#22788;&#32602;</text><path d="M482.6621,96.4141 L492.6621,96.4141 C507.6621,96.4141 507.6621,96.4141 522.6621,96.4141 L532.6621,96.4141 " fill="none" style="stroke:#181818;stroke-width:1;"/><path d="M356.6621,67.6094 L366.6621,67.6094 C381.6621,67.6094 381.6621,96.4141 396.6621,96.4141 L406.6621,96.4141 " fill="none" style="stroke:#181818;stroke-width:1;"/><path d="M244.6621,182.8281 L254.6621,182.8281 C269.6621,182.8281 269.6621,67.6094 284.6621,67.6094 L294.6621,67.6094 " fill="none" style="stroke:#181818;stroke-width:1;"/><rect fill="#F1F1F1" height="37.6094" rx="12.5" ry="12.5" style="stroke:#181818;stroke-width:1.5;" width="62" x="294.6621" y="164.0234"/><text fill="#000000" font-family="sans-serif" font-size="14" lengthAdjust="spacing" textLength="42" x="304.6621" y="188.5566">&#39044;&#22791;&#29359;</text><rect fill="#F1F1F1" height="37.6094" rx="12.5" ry="12.5" style="stroke:#181818;stroke-width:1.5;" width="188" x="406.6621" y="135.2188"/><text fill="#000000" font-family="sans-serif" font-size="14" lengthAdjust="spacing" textLength="168" x="416.6621" y="159.752">&#27604;&#29031;&#26082;&#36930;&#29359;&#20174;&#36731;&#12289;&#20943;&#36731;&#22788;&#32602;</text><path d="M356.6621,182.8281 L366.6621,182.8281 C381.6621,182.8281 381.6621,154.0234 396.6621,154.0234 L406.6621,154.0234 " fill="none" style="stroke:#181818;stroke-width:1;"/><rect fill="#F1F1F1" height="37.6094" rx="12.5" ry="12.5" style="stroke:#181818;stroke-width:1.5;" width="76" x="406.6621" y="192.8281"/><text fill="#000000" font-family="sans-serif" font-size="14" lengthAdjust="spacing" textLength="56" x="416.6621" y="217.3613">&#20813;&#38500;&#22788;&#32602;</text><path d="M356.6621,182.8281 L366.6621,182.8281 C381.6621,182.8281 381.6621,211.6328 396.6621,211.6328 L406.6621,211.6328 " fill="none" style="stroke:#181818;stroke-width:1;"/><path d="M244.6621,182.8281 L254.6621,182.8281 C269.6621,182.8281 269.6621,182.8281 284.6621,182.8281 L294.6621,182.8281 " fill="none" style="stroke:#181818;stroke-width:1;"/><rect fill="#F1F1F1" height="37.6094" rx="12.5" ry="12.5" style="stroke:#181818;stroke-width:1.5;" width="62" x="294.6621" y="250.4375"/><text fill="#000000" font-family="sans-serif" font-size="14" lengthAdjust="spacing" textLength="42" x="304.6621" y="274.9707">&#26410;&#36930;&#29359;</text><rect fill="#F1F1F1" height="37.6094" rx="12.5" ry="12.5" style="stroke:#181818;stroke-width:1.5;" width="188" x="406.6621" y="250.4375"/><text fill="#000000" font-family="sans-serif" font-size="14" lengthAdjust="spacing" textLength="168" x="416.6621" y="274.9707">&#27604;&#29031;&#26082;&#36930;&#29359;&#20174;&#36731;&#12289;&#20943;&#36731;&#22788;&#32602;</text><path d="M356.6621,269.2422 L366.6621,269.2422 C381.6621,269.2422 381.6621,269.2422 396.6621,269.2422 L406.6621,269.2422 " fill="none" style="stroke:#181818;stroke-width:1;"/><path d="M244.6621,182.8281 L254.6621,182.8281 C269.6621,182.8281 269.6621,269.2422 284.6621,269.2422 L294.6621,269.2422 " fill="none" style="stroke:#181818;stroke-width:1;"/><rect fill="#F1F1F1" height="37.6094" rx="12.5" ry="12.5" style="stroke:#181818;stroke-width:1.5;" width="62" x="294.6621" y="308.0469"/><text fill="#000000" font-family="sans-serif" font-size="14" lengthAdjust="spacing" textLength="42" x="304.6621" y="332.5801">&#26082;&#36930;&#29359;</text><path d="M244.6621,182.8281 L254.6621,182.8281 C269.6621,182.8281 269.6621,326.8516 284.6621,326.8516 L294.6621,326.8516 " fill="none" style="stroke:#181818;stroke-width:1;"/><path d="M118.6621,355.6563 L128.6621,355.6563 C143.6621,355.6563 143.6621,182.8281 158.6621,182.8281 L168.6621,182.8281 " fill="none" style="stroke:#181818;stroke-width:1;"/><rect fill="#F1F1F1" height="37.6094" rx="12.5" ry="12.5" style="stroke:#181818;stroke-width:1.5;" width="76" x="168.6621" y="509.6797"/><text fill="#000000" font-family="sans-serif" font-size="14" lengthAdjust="spacing" textLength="56" x="178.6621" y="534.2129">&#22788;&#32602;&#35270;&#35282;</text><rect fill="#F1F1F1" height="37.6094" rx="12.5" ry="12.5" style="stroke:#181818;stroke-width:1.5;" width="76" x="294.6621" y="394.4609"/><text fill="#000000" font-family="sans-serif" font-size="14" lengthAdjust="spacing" textLength="56" x="304.6621" y="418.9941">&#20813;&#38500;&#22788;&#32602;</text><rect fill="#F1F1F1" height="37.6094" rx="12.5" ry="12.5" style="stroke:#181818;stroke-width:1.5;" width="62" x="420.6621" y="365.6563"/><text fill="#000000" font-family="sans-serif" font-size="14" lengthAdjust="spacing" textLength="42" x="430.6621" y="390.1895">&#20013;&#27490;&#29359;</text><path d="M370.6621,413.2656 L380.6621,413.2656 C395.6621,413.2656 395.6621,384.4609 410.6621,384.4609 L420.6621,384.4609 " fill="none" style="stroke:#181818;stroke-width:1;"/><rect fill="#F1F1F1" height="37.6094" rx="12.5" ry="12.5" style="stroke:#181818;stroke-width:1.5;" width="62" x="420.6621" y="423.2656"/><text fill="#000000" font-family="sans-serif" font-size="14" lengthAdjust="spacing" textLength="42" x="430.6621" y="447.7988">&#39044;&#22791;&#29359;</text><path d="M370.6621,413.2656 L380.6621,413.2656 C395.6621,413.2656 395.6621,442.0703 410.6621,442.0703 L420.6621,442.0703 " fill="none" style="stroke:#181818;stroke-width:1;"/><path d="M244.6621,528.4844 L254.6621,528.4844 C269.6621,528.4844 269.6621,413.2656 284.6621,413.2656 L294.6621,413.2656 " fill="none" style="stroke:#181818;stroke-width:1;"/><rect fill="#F1F1F1" height="37.6094" rx="12.5" ry="12.5" style="stroke:#181818;stroke-width:1.5;" width="118" x="294.6621" y="538.4844"/><text fill="#000000" font-family="sans-serif" font-size="14" lengthAdjust="spacing" textLength="98" x="304.6621" y="563.0176">&#20174;&#36731;&#12289;&#20943;&#36731;&#22788;&#32602;</text><rect fill="#F1F1F1" height="37.6094" rx="12.5" ry="12.5" style="stroke:#181818;stroke-width:1.5;" width="62" x="462.6621" y="480.875"/><text fill="#000000" font-family="sans-serif" font-size="14" lengthAdjust="spacing" textLength="42" x="472.6621" y="505.4082">&#20013;&#27490;&#29359;</text><path d="M412.6621,557.2891 L422.6621,557.2891 C437.6621,557.2891 437.6621,499.6797 452.6621,499.6797 L462.6621,499.6797 " fill="none" style="stroke:#181818;stroke-width:1;"/><rect fill="#F1F1F1" height="37.6094" rx="12.5" ry="12.5" style="stroke:#181818;stroke-width:1.5;" width="62" x="462.6621" y="538.4844"/><text fill="#000000" font-family="sans-serif" font-size="14" lengthAdjust="spacing" textLength="42" x="472.6621" y="563.0176">&#39044;&#22791;&#29359;</text><path d="M412.6621,557.2891 L422.6621,557.2891 C437.6621,557.2891 437.6621,557.2891 452.6621,557.2891 L462.6621,557.2891 " fill="none" style="stroke:#181818;stroke-width:1;"/><rect fill="#F1F1F1" height="37.6094" rx="12.5" ry="12.5" style="stroke:#181818;stroke-width:1.5;" width="62" x="462.6621" y="596.0938"/><text fill="#000000" font-family="sans-serif" font-size="14" lengthAdjust="spacing" textLength="42" x="472.6621" y="620.627">&#26410;&#36930;&#29359;</text><path d="M412.6621,557.2891 L422.6621,557.2891 C437.6621,557.2891 437.6621,614.8984 452.6621,614.8984 L462.6621,614.8984 " fill="none" style="stroke:#181818;stroke-width:1;"/><path d="M244.6621,528.4844 L254.6621,528.4844 C269.6621,528.4844 269.6621,557.2891 284.6621,557.2891 L294.6621,557.2891 " fill="none" style="stroke:#181818;stroke-width:1;"/><rect fill="#F1F1F1" height="37.6094" rx="12.5" ry="12.5" style="stroke:#181818;stroke-width:1.5;" width="76" x="294.6621" y="653.7031"/><text fill="#000000" font-family="sans-serif" font-size="14" lengthAdjust="spacing" textLength="56" x="304.6621" y="678.2363">&#27491;&#24120;&#22788;&#32602;</text><rect fill="#F1F1F1" height="37.6094" rx="12.5" ry="12.5" style="stroke:#181818;stroke-width:1.5;" width="62" x="420.6621" y="653.7031"/><text fill="#000000" font-family="sans-serif" font-size="14" lengthAdjust="spacing" textLength="42" x="430.6621" y="678.2363">&#26082;&#36930;&#29359;</text><path d="M370.6621,672.5078 L380.6621,672.5078 C395.6621,672.5078 395.6621,672.5078 410.6621,672.5078 L420.6621,672.5078 " fill="none" style="stroke:#181818;stroke-width:1;"/><path d="M244.6621,528.4844 L254.6621,528.4844 C269.6621,528.4844 269.6621,672.5078 284.6621,672.5078 L294.6621,672.5078 " fill="none" style="stroke:#181818;stroke-width:1;"/><path d="M118.6621,355.6563 L128.6621,355.6563 C143.6621,355.6563 143.6621,528.4844 158.6621,528.4844 L168.6621,528.4844 " fill="none" style="stroke:#181818;stroke-width:1;"/><!--SRC=[xLVVInj147w_ls9BNxIG-8CW8b8qKMd5Y3JHzytTUgxUxHvxUv5G12rQsu9jQOLI4TfQGH2iqBw8ah-c9j7_edE_JAAvt9K-zCN31pFppJSxi_DDBcEsn4AQb6acjXJb0MMguMW4fTDzhN-sh1Yapp8mauvff5ny2W9IdZrDmQOeZr3ZpMcZUboh7jJNDrArmyr6TKz1y3n2b-VdZRtDgwENLqSVF5DWFZkfdnn0s8tDjzT_VglllxvU_rf_zRw-ywNsurSRm0VLpdThrO-rhPthpuSjoPg0PF7Rxwwg5xVY8VPWitQutU5afxkDhQFwfuFhZHVWlRnu2z6_rpSwqWHvEfqGcFQFVOv_oG3m41XqsWVSwNINDaLTmjqM03P1lSdveXe1jfFljREpZlJDWk4P8p2uuV2EjS_og3USZvN0C46nBh29dWDVkcGunFiFeInMLtJ17QRbkC45CgY-95q_UDTSh8R5YY1Q13pmXc1T4CAwCNk05dGb1bm9iLnWfaSTsdU6KCiHbX45zPqXDBgmbg84jwFO7avDPREvN8Yi4CFWgn5Ot-b1bJHbZAk4oGYipJmaGbESITzKCW3ZsMOe8xuDRhIY-7GIo2XdsCW9QeR7RI8bDx7a7R5pWbXOODVoDs7Z9IvaNAb9kQGafYNZRZSXMuwRSCKowiw2o2WwUDACw320GDhQp6vAYRieZH3BNgbuwBKx2IP1kIM3salHCck9Ry-skaJbxTv4f9dbCZwJLvLQmIn1LIhMYBn9XbMLQj4ZtIR_EEP5BeWTe5rk-AoIF5ucZkXw7Jetu0Y2QoqJ62EXCCBBOt6RIbecusgB7Ewi46oGf8KqIu2xmB7K9eMjxUwR93CLh5wNt7PAoqHrwQEwWylmNK54GjuovQ0WZvh7CRjzJzpkGCikCIX-2TlKZf-NMoBlhkkskU- -KJorhocZVS5NvVqxtFqxtFzzXvjpVsBCvsTGcGZRNHC3wS7-mKnwkAU09PhbPJGmXFe7HZAPaSmGoXMAo7NtAZtvfqLaSmUs9D9WXmXQSbonz2hJk8pHCmUaOv8Hv7xgAUPxKM4oDA99LgQ2CnFaeamlv7qGUi9bmUBI0mzbKbagKO48E1PQo2iJP14xXeHGbMkKwIDelZYL6bPcG5OErY4Hg3O7UfEY0hx27m00]--></g></svg>