<svg xmlns="http://www.w3.org/2000/svg" xmlns:xlink="http://www.w3.org/1999/xlink" contentStyleType="text/css" height="344px" preserveAspectRatio="none" style="width:808px;height:344px;background:#FFFFFF;" version="1.1" viewBox="0 0 808 344" width="808px" zoomAndPan="magnify"><defs/><g><rect fill="#F1F1F1" height="38.6211" rx="12.5" ry="12.5" style="stroke:#181818;stroke-width:1.5;" width="76" x="10" y="151.7139"/><text fill="#000000" font-family="sans-serif" font-size="14" lengthAdjust="spacing" textLength="56" x="20" y="176.8213">&#29359;&#32618;&#26082;&#36930;</text><rect fill="#F1F1F1" height="38.6211" rx="12.5" ry="12.5" style="stroke:#181818;stroke-width:1.5;" width="76" x="136" y="151.7139"/><text fill="#000000" font-family="sans-serif" font-size="14" lengthAdjust="spacing" textLength="56" x="146" y="176.8213">&#21028;&#26029;&#26631;&#20934;</text><rect fill="#F1F1F1" height="38.6211" rx="12.5" ry="12.5" style="stroke:#181818;stroke-width:1.5;" width="76" x="262" y="120.3389"/><text fill="#000000" font-family="sans-serif" font-size="14" lengthAdjust="spacing" textLength="56" x="272" y="145.4463">&#20107;&#23454;&#21028;&#26029;</text><rect fill="#F1F1F1" height="38.6211" rx="12.5" ry="12.5" style="stroke:#181818;stroke-width:1.5;" width="48" x="388" y="61.7178"/><text fill="#000000" font-family="sans-serif" font-size="14" lengthAdjust="spacing" textLength="28" x="398" y="86.8252">&#34892;&#20026;</text><rect fill="#F1F1F1" height="42.75" rx="12.5" ry="12.5" style="stroke:#181818;stroke-width:1.5;" width="100.8896" x="486" y="36.5566"/><text fill="#000000" font-family="sans-serif" font-size="14" lengthAdjust="spacing" textLength="56" x="496" y="65.793">&#39044;&#22791;&#34892;&#20026;</text><path d="M568.8618,57.059 L574.6269,51.2939 C575.3106,50.6108 575.3106,49.5025 574.6269,48.8188 C573.9432,48.1357 572.8361,48.1357 572.1524,48.8188 L566.3873,54.5839 L560.6222,48.8194 C559.9391,48.1357 558.8308,48.1357 558.1471,48.8194 C557.4641,49.5025 557.4641,50.6108 558.1471,51.2945 L563.9122,57.059 L558.1331,62.8381 C557.4501,63.5211 557.4501,64.6295 558.1331,65.3126 C558.4744,65.6544 558.923,65.8253 559.3704,65.8253 C559.8178,65.8253 560.2664,65.6544 560.6082,65.3126 L566.3867,59.5341 L572.1512,65.2986 C572.4931,65.6404 572.9411,65.8113 573.3885,65.8113 C573.8359,65.8113 574.2839,65.6404 574.6257,65.2986 C575.3094,64.6155 575.3094,63.5071 574.6257,62.8241 L568.8618,57.059 " fill="#FE0000" style="stroke:;stroke-width:0.0;stroke-dasharray:;"/><rect fill="#F1F1F1" height="75.8633" rx="12.5" ry="12.5" style="stroke:#181818;stroke-width:1.5;" width="160" x="636.8896" y="20"/><text fill="#000000" font-family="sans-serif" font-size="14" lengthAdjust="spacing" textLength="126" x="646.8896" y="45.1074">&#20598;&#28982;&#23548;&#33268;&#23454;&#23475;&#32467;&#26524;&#65292;</text><text fill="#000000" font-family="sans-serif" font-size="14" lengthAdjust="spacing" textLength="140" x="646.8896" y="63.7285">&#23646;&#20110;&#32467;&#26524;&#30340;&#25552;&#21069;&#21457;&#29983;&#65292;</text><text fill="#000000" font-family="sans-serif" font-size="14" lengthAdjust="spacing" textLength="98" x="646.8896" y="82.3496">&#19981;&#26500;&#25104;&#29359;&#32618;&#26082;&#36930;</text><path d="M586.8896,57.9316 L596.8896,57.9316 C611.8896,57.9316 611.8896,57.9316 626.8896,57.9316 L636.8896,57.9316 " fill="none" style="stroke:#181818;stroke-width:1.0;"/><path d="M436,81.0283 L446,81.0283 C461,81.0283 461,57.9316 476,57.9316 L486,57.9316 " fill="none" style="stroke:#181818;stroke-width:1.0;"/><rect fill="#F1F1F1" height="42.75" rx="12.5" ry="12.5" style="stroke:#181818;stroke-width:1.5;" width="100.8896" x="486" y="99.3066"/><text fill="#000000" font-family="sans-serif" font-size="14" lengthAdjust="spacing" textLength="56" x="496" y="128.543">&#23454;&#34892;&#34892;&#20026;</text><path d="M575.9907,110.1087 C575.1793,109.5826 574.0961,109.8136 573.5705,110.6244 L563.7646,125.7391 L558.9825,121.3175 C558.2726,120.6612 557.166,120.7044 556.5097,121.4143 C555.8535,122.1236 555.8966,123.2314 556.6066,123.8871 L562.8856,129.6924 C563.0658,129.8476 563.0658,129.8476 563.1492,129.9018 C563.4432,130.0931 563.7734,130.1841 564.1001,130.1841 C564.6729,130.1841 565.2346,129.903 565.5701,129.3861 L576.5064,112.529 C577.0326,111.7181 576.8016,110.6343 575.9907,110.1087 " fill="#FE0000" style="stroke:;stroke-width:0.0;stroke-dasharray:;"/><path d="M436,81.0283 L446,81.0283 C461,81.0283 461,120.6816 476,120.6816 L486,120.6816 " fill="none" style="stroke:#181818;stroke-width:1.0;"/><path d="M338,139.6494 L348,139.6494 C363,139.6494 363,81.0283 378,81.0283 L388,81.0283 " fill="none" style="stroke:#181818;stroke-width:1.0;"/><rect fill="#90EE90" height="38.6211" rx="12.5" ry="12.5" style="stroke:#181818;stroke-width:1.5;" width="79.8896" x="388" y="191.3672"/><text fill="#000000" font-family="sans-serif" font-size="14" lengthAdjust="spacing" textLength="56" x="398" y="216.4746">&#22240;&#26524;&#20851;&#31995;</text><rect fill="#90EE90" height="38.6211" rx="12.5" ry="12.5" style="stroke:#181818;stroke-width:1.5;" width="79.8896" x="517.8896" y="162.0566"/><text fill="#000000" font-family="sans-serif" font-size="14" lengthAdjust="spacing" textLength="56" x="527.8896" y="187.1641">&#23454;&#34892;&#34892;&#20026;</text><path d="M467.8896,210.6777 L477.8896,210.6777 C492.8896,210.6777 492.8896,181.3672 507.8896,181.3672 L517.8896,181.3672 " fill="none" style="stroke:#181818;stroke-width:1.0;"/><rect fill="#90EE90" height="38.6211" rx="12.5" ry="12.5" style="stroke:#181818;stroke-width:1.5;" width="79.8896" x="517.8896" y="220.6777"/><text fill="#000000" font-family="sans-serif" font-size="14" lengthAdjust="spacing" textLength="56" x="527.8896" y="245.7852">&#23454;&#23475;&#32467;&#26524;</text><path d="M467.8896,210.6777 L477.8896,210.6777 C492.8896,210.6777 492.8896,239.9883 507.8896,239.9883 L517.8896,239.9883 " fill="none" style="stroke:#181818;stroke-width:1.0;"/><path d="M338,139.6494 L348,139.6494 C363,139.6494 363,210.6777 378,210.6777 L388,210.6777 " fill="none" style="stroke:#181818;stroke-width:1.0;"/><path d="M212,171.0244 L222,171.0244 C237,171.0244 237,139.6494 252,139.6494 L262,139.6494 " fill="none" style="stroke:#181818;stroke-width:1.0;"/><rect fill="#F1F1F1" height="38.6211" rx="12.5" ry="12.5" style="stroke:#181818;stroke-width:1.5;" width="76" x="262" y="281.3633"/><text fill="#000000" font-family="sans-serif" font-size="14" lengthAdjust="spacing" textLength="56" x="272" y="306.4707">&#20215;&#20540;&#35780;&#20215;</text><rect fill="#90EE90" height="38.6211" rx="12.5" ry="12.5" style="stroke:#181818;stroke-width:1.5;" width="79.8896" x="388" y="281.3633"/><text fill="#000000" font-family="sans-serif" font-size="14" lengthAdjust="spacing" textLength="56" x="398" y="306.4707">&#27861;&#24459;&#35780;&#20215;</text><rect fill="#F1F1F1" height="42.75" rx="12.5" ry="12.5" style="stroke:#181818;stroke-width:1.5;" width="86.8896" x="517.8896" y="279.2988"/><text fill="#000000" font-family="sans-serif" font-size="14" lengthAdjust="spacing" textLength="42" x="527.8896" y="308.5352">&#22351;&#32467;&#26524;</text><path d="M593.8804,290.1009 C593.069,289.5747 591.9857,289.8057 591.4601,290.6166 L581.6543,305.7313 L576.8721,301.3097 C576.1622,300.6534 575.0556,300.6966 574.3994,301.4065 C573.7431,302.1158 573.7863,303.2236 574.4962,303.8792 L580.7752,309.6846 C580.9555,309.8397 580.9555,309.8397 581.0389,309.894 C581.3329,310.0853 581.663,310.1763 581.9897,310.1763 C582.5625,310.1763 583.1243,309.8952 583.4597,309.3783 L594.396,292.5212 C594.9222,291.7103 594.6912,290.6265 593.8804,290.1009 " fill="#FE0000" style="stroke:;stroke-width:0.0;stroke-dasharray:;"/><path d="M467.8896,300.6738 L477.8896,300.6738 C492.8896,300.6738 492.8896,300.6738 507.8896,300.6738 L517.8896,300.6738 " fill="none" style="stroke:#181818;stroke-width:1.0;"/><path d="M338,300.6738 L348,300.6738 C363,300.6738 363,300.6738 378,300.6738 L388,300.6738 " fill="none" style="stroke:#181818;stroke-width:1.0;"/><path d="M212,171.0244 L222,171.0244 C237,171.0244 237,300.6738 252,300.6738 L262,300.6738 " fill="none" style="stroke:#181818;stroke-width:1.0;"/><path d="M86,171.0244 L96,171.0244 C111,171.0244 111,171.0244 126,171.0244 L136,171.0244 " fill="none" style="stroke:#181818;stroke-width:1.0;"/><!--SRC=[xLPBRzD04BxxLopYKf2IjWXHYAAgRKebIWE85av8rSPUdANhNMkzJh5G9K21yYw8byGZ5CG9YLQe251R-3LrKaxy1SPst2Pf7OSxLWxEpBVVpEpCjzuHHs6fBCeD2zkQTe1odRa6GTbiV-lFKHuZ_JR3NBaMomJu32p8XFOi1Pkc7KQDUwkDdv_gBp_yld5JG_0SHlwTZ_KNd-lBY_xYxT0KcRVMx_ihjSYvOuvSs-yVRFrORpD6ZjyVglx7nSYDyWSbCN9bWYlUhEKoHMr6TQoeuBDNSyDxLZUJkV6jKVtchsvkBtuDmg-iDJQUrcjl_cm-kCJzBxMjzKUHeV6gMbzwxDzzw2yzQJnx5_gtVZoirwhrEu_tLDaHPAK6EUwJfbuc-joiXULSHuAmvlKoHFLlhJNMDb0-JooxZ1tg30-dygTYTuhS7mkjsFZkNz_SNgt2IqTQzRNd_g_xaIirrDkbE4vIpPesGc3EubaRQH-zV3XBmrhJC4wnAR65ha6iR8cv97n3Q0phSwOKBZSAWWc963NBAl23To706X0C4aY0Dxqns9I4y6xC8Q05xQM0lHWh9EPcKjAHCuRQhhHP4ZHonj3ambgAai99OZiuCJ4sLYZ4I8ym9kOJi94pX6fPohdG2LS9M8U7I8Gc15UHgSG04zgcA2UH3JhgQH6T0Z9GAsO5IQqutLsa4XPMOb_iEKbiB4Ej_ykoqPAGAgtKNhcK0Z6ejExso5OG5hHO9VMikJA93fui9oOC892sRcOtfQGroY34TkQy4Bsm9y19K6w9KQUSBBEMzUtHvijKTUvDGfWpGgL72glIFSnxg4h71b4xmR2kKoDvfDladyPyMKZYDD41D_pNIH5V8QxisWvJC4X12gDb0bCa5Ay8uzZ2eOfMoAZU8eSzHmXcfDT2Tak0Nk1KQel2gHsSDxtCLFFe3SWTjtI5w05zqkxW2dmhYEoHjq85A2Ya5cdCmRxtlDrDBGV4yUSlVLuwHDvTrsrpt_r42TM-eENxcv_A_rUk_rUkVxfodGiky1UAKwX2f1EeUZ1xPE38qUnGtpHMQ9hOQ6083Px83HxF3GwXmlGC2jo7jBxYgHda21SEDMI0v2KjkK7Z3scJk8BHUHSctI8vTDOcV7ByT6n09tc5Ii4jc6njyc9n5t3iQ6QC1X4bP88k5hLnSXd3JC4ANHYKcpbqOMOYSroRWi5tiGdSeAi2A4993tpJVm40]--></g></svg>