<svg xmlns="http://www.w3.org/2000/svg" xmlns:xlink="http://www.w3.org/1999/xlink" contentStyleType="text/css" height="416px" preserveAspectRatio="none" style="width:1331px;height:416px;background:#FFFFFF;" version="1.1" viewBox="0 0 1331 416" width="1331px" zoomAndPan="magnify"><title>&#31038;&#20250;&#27861;&#30410; - &#31038;&#20250;&#31209;&#24207; - &#22952;&#23475;&#21496;&#27861;&#32618; - &#20266;&#35777;&#32618;</title><defs/><g><text fill="#000000" font-family="sans-serif" font-size="14" font-weight="bold" lengthAdjust="spacing" textLength="268.3242" x="530.1309" y="34.5332">&#31038;&#20250;&#27861;&#30410; - &#31038;&#20250;&#31209;&#24207; - &#22952;&#23475;&#21496;&#27861;&#32618; - &#20266;&#35777;&#32618;</text><rect fill="#F1F1F1" height="37.6094" rx="12.5" ry="12.5" style="stroke:#181818;stroke-width:1.5;" width="122.6963" x="10" y="207.7734"/><text fill="#000000" font-family="sans-serif" font-size="14" lengthAdjust="spacing" textLength="102.6963" x="20" y="232.3066">&#20266;&#35777;&#32618;&#65288;P345&#65289;</text><rect fill="#F1F1F1" height="37.6094" rx="12.5" ry="12.5" style="stroke:#181818;stroke-width:1.5;" width="48" x="182.6963" y="178.9688"/><text fill="#000000" font-family="sans-serif" font-size="14" lengthAdjust="spacing" textLength="28" x="192.6963" y="203.502">&#25104;&#31435;</text><rect fill="#F1F1F1" height="37.6094" rx="12.5" ry="12.5" style="stroke:#181818;stroke-width:1.5;" width="90" x="280.6963" y="92.5547"/><text fill="#000000" font-family="sans-serif" font-size="14" lengthAdjust="spacing" textLength="70" x="290.6963" y="117.0879">&#20027;&#23458;&#35266;&#19968;&#33268;</text><rect fill="#F1F1F1" height="42.75" rx="12.5" ry="12.5" style="stroke:#181818;stroke-width:1.5;" width="422.8896" x="420.6963" y="58.6094"/><text fill="#000000" font-family="sans-serif" font-size="14" lengthAdjust="spacing" textLength="378" x="430.6963" y="88.2832">&#27809;&#26377;&#25925;&#24847;&#20316;&#20266;&#35777;&#65292;&#38472;&#36848;&#20107;&#23454;&#21364;&#19982;&#23458;&#35266;&#20107;&#23454;&#19981;&#31526;&#65292;&#19981;&#26500;&#25104;&#20266;&#35777;&#32618;</text><path d="M825.1469,79.1105 L832.2839,71.974 C832.8533,71.4047 832.8533,70.4813 832.2839,69.912 C831.714,69.342 830.7912,69.342 830.2219,69.912 L823.0848,77.0485 L815.9483,69.912 C815.3789,69.342 814.4549,69.342 813.8862,69.912 C813.3163,70.4813 813.3163,71.4047 813.8862,71.974 L821.0227,79.1105 L813.8699,86.264 C813.2999,86.8339 813.2999,87.7567 813.8699,88.326 C814.1545,88.6107 814.5279,88.753 814.9012,88.753 C815.2745,88.753 815.6479,88.6107 815.9325,88.326 L823.0854,81.1726 L830.2219,88.3091 C830.5065,88.5938 830.8799,88.7361 831.2532,88.7361 C831.6265,88.7361 831.9993,88.5938 832.2845,88.3091 C832.8539,87.7392 832.8539,86.8164 832.2845,86.247 L825.1469,79.1105 " fill="#FE0000" style="stroke:;stroke-width:0;stroke-dasharray:;"/><path d="M370.6963,111.3594 L380.6963,111.3594 C395.6963,111.3594 395.6963,79.9844 410.6963,79.9844 L420.6963,79.9844 " fill="none" style="stroke:#181818;stroke-width:1;"/><rect fill="#F1F1F1" height="42.75" rx="12.5" ry="12.5" style="stroke:#181818;stroke-width:1.5;" width="310.8896" x="420.6963" y="121.3594"/><text fill="#000000" font-family="sans-serif" font-size="14" lengthAdjust="spacing" textLength="266" x="430.6963" y="151.0332">&#25925;&#24847;&#20570;&#20266;&#35777;&#65292;&#21364;&#19982;&#20107;&#23454;&#30456;&#31526;&#65292;&#19981;&#26500;&#25104;&#20266;&#35777;&#32618;</text><path d="M713.1469,141.8605 L720.2839,134.724 C720.8533,134.1547 720.8533,133.2313 720.2839,132.662 C719.714,132.092 718.7912,132.092 718.2219,132.662 L711.0848,139.7985 L703.9483,132.662 C703.3789,132.092 702.4549,132.092 701.8862,132.662 C701.3163,133.2313 701.3163,134.1547 701.8862,134.724 L709.0227,141.8605 L701.8699,149.014 C701.2999,149.5839 701.2999,150.5067 701.8699,151.076 C702.1545,151.3607 702.5279,151.503 702.9012,151.503 C703.2745,151.503 703.6479,151.3607 703.9325,151.076 L711.0854,143.9226 L718.2219,151.0591 C718.5065,151.3438 718.8799,151.4861 719.2532,151.4861 C719.6265,151.4861 719.9993,151.3438 720.2845,151.0591 C720.8539,150.4892 720.8539,149.5664 720.2845,148.997 L713.1469,141.8605 " fill="#FE0000" style="stroke:;stroke-width:0;stroke-dasharray:;"/><path d="M370.6963,111.3594 L380.6963,111.3594 C395.6963,111.3594 395.6963,142.7344 410.6963,142.7344 L420.6963,142.7344 " fill="none" style="stroke:#181818;stroke-width:1;"/><path d="M230.6963,197.7734 L240.6963,197.7734 C255.6963,197.7734 255.6963,111.3594 270.6963,111.3594 L280.6963,111.3594 " fill="none" style="stroke:#181818;stroke-width:1;"/><rect fill="#F1F1F1" height="42.75" rx="12.5" ry="12.5" style="stroke:#181818;stroke-width:1.5;" width="142.8896" x="280.6963" y="239.1484"/><text fill="#000000" font-family="sans-serif" font-size="14" lengthAdjust="spacing" textLength="98" x="290.6963" y="268.8223">&#32570;&#20047;&#26399;&#24453;&#21487;&#33021;&#24615;</text><path d="M405.1469,259.6496 L412.2839,252.5131 C412.8533,251.9438 412.8533,251.0204 412.2839,250.451 C411.714,249.8811 410.7912,249.8811 410.2219,250.451 L403.0848,257.5875 L395.9483,250.451 C395.3789,249.8811 394.4549,249.8811 393.8862,250.451 C393.3163,251.0204 393.3163,251.9438 393.8862,252.5131 L401.0227,259.6496 L393.8699,266.803 C393.2999,267.3729 393.2999,268.2958 393.8699,268.8651 C394.1545,269.1498 394.5279,269.2921 394.9012,269.2921 C395.2745,269.2921 395.6479,269.1498 395.9325,268.8651 L403.0854,261.7117 L410.2219,268.8482 C410.5065,269.1329 410.8799,269.2752 411.2532,269.2752 C411.6265,269.2752 411.9993,269.1329 412.2845,268.8482 C412.8539,268.2783 412.8539,267.3554 412.2845,266.7861 L405.1469,259.6496 " fill="#FE0000" style="stroke:;stroke-width:0;stroke-dasharray:;"/><rect fill="#F1F1F1" height="37.6094" rx="12.5" ry="12.5" style="stroke:#181818;stroke-width:1.5;" width="356" x="473.5859" y="241.7188"/><text fill="#000000" font-family="sans-serif" font-size="14" lengthAdjust="spacing" textLength="336" x="483.5859" y="266.252">&#21496;&#27861;&#20154;&#21592;&#30002;&#65292;&#22312;&#21150;&#29702;&#20057;&#28041;&#23244;&#30423;&#31363;&#26696;&#26102;&#65292;&#35201;&#27714;&#19993;&#20570;&#20266;&#35777;&#12290;</text><rect fill="#F1F1F1" height="37.6094" rx="12.5" ry="12.5" style="stroke:#181818;stroke-width:1.5;" width="34" x="879.5859" y="184.1094"/><text fill="#000000" font-family="sans-serif" font-size="14" lengthAdjust="spacing" textLength="14" x="889.5859" y="208.6426">&#19993;</text><rect fill="#F1F1F1" height="37.6094" rx="12.5" ry="12.5" style="stroke:#181818;stroke-width:1.5;" width="118" x="963.5859" y="184.1094"/><text fill="#000000" font-family="sans-serif" font-size="14" lengthAdjust="spacing" textLength="98" x="973.5859" y="208.6426">&#19981;&#20197;&#20266;&#35777;&#32618;&#35770;&#22788;</text><rect fill="#F1F1F1" height="37.6094" rx="12.5" ry="12.5" style="stroke:#181818;stroke-width:1.5;" width="188" x="1131.5859" y="184.1094"/><text fill="#000000" font-family="sans-serif" font-size="14" lengthAdjust="spacing" textLength="168" x="1141.5859" y="208.6426">&#26377;&#25925;&#24847;&#65292;&#20294;&#32570;&#20047;&#26399;&#24453;&#21487;&#33021;&#24615;</text><path d="M1081.5859,202.9141 L1091.5859,202.9141 C1106.5859,202.9141 1106.5859,202.9141 1121.5859,202.9141 L1131.5859,202.9141 " fill="none" style="stroke:#181818;stroke-width:1;"/><path d="M913.5859,202.9141 L923.5859,202.9141 C938.5859,202.9141 938.5859,202.9141 953.5859,202.9141 L963.5859,202.9141 " fill="none" style="stroke:#181818;stroke-width:1;"/><path d="M829.5859,260.5234 L839.5859,260.5234 C854.5859,260.5234 854.5859,202.9141 869.5859,202.9141 L879.5859,202.9141 " fill="none" style="stroke:#181818;stroke-width:1;"/><rect fill="#F1F1F1" height="37.6094" rx="12.5" ry="12.5" style="stroke:#181818;stroke-width:1.5;" width="34" x="879.5859" y="270.5234"/><text fill="#000000" font-family="sans-serif" font-size="14" lengthAdjust="spacing" textLength="14" x="889.5859" y="295.0566">&#30002;</text><rect fill="#F1F1F1" height="37.6094" rx="12.5" ry="12.5" style="stroke:#181818;stroke-width:1.5;" width="76" x="963.5859" y="270.5234"/><text fill="#000000" font-family="sans-serif" font-size="14" lengthAdjust="spacing" textLength="56" x="973.5859" y="295.0566">&#24819;&#35937;&#31454;&#21512;</text><rect fill="#F1F1F1" height="37.6094" rx="12.5" ry="12.5" style="stroke:#181818;stroke-width:1.5;" width="118" x="1089.5859" y="241.7188"/><text fill="#000000" font-family="sans-serif" font-size="14" lengthAdjust="spacing" textLength="98" x="1099.5859" y="266.252">&#20266;&#35777;&#32618;&#30340;&#25945;&#21766;&#29359;</text><path d="M1039.5859,289.3281 L1049.5859,289.3281 C1064.5859,289.3281 1064.5859,260.5234 1079.5859,260.5234 L1089.5859,260.5234 " fill="none" style="stroke:#181818;stroke-width:1;"/><rect fill="#F1F1F1" height="37.6094" rx="12.5" ry="12.5" style="stroke:#181818;stroke-width:1.5;" width="132" x="1089.5859" y="299.3281"/><text fill="#000000" font-family="sans-serif" font-size="14" lengthAdjust="spacing" textLength="112" x="1099.5859" y="323.8613">&#24455;&#31169;&#26505;&#27861;&#30340;&#23454;&#34892;&#29359;</text><path d="M1039.5859,289.3281 L1049.5859,289.3281 C1064.5859,289.3281 1064.5859,318.1328 1079.5859,318.1328 L1089.5859,318.1328 " fill="none" style="stroke:#181818;stroke-width:1;"/><path d="M913.5859,289.3281 L923.5859,289.3281 C938.5859,289.3281 938.5859,289.3281 953.5859,289.3281 L963.5859,289.3281 " fill="none" style="stroke:#181818;stroke-width:1;"/><path d="M829.5859,260.5234 L839.5859,260.5234 C854.5859,260.5234 854.5859,289.3281 869.5859,289.3281 L879.5859,289.3281 " fill="none" style="stroke:#181818;stroke-width:1;"/><path d="M423.5859,260.5234 L433.5859,260.5234 C448.5859,260.5234 448.5859,260.5234 463.5859,260.5234 L473.5859,260.5234 " fill="none" style="stroke:#181818;stroke-width:1;"/><path d="M230.6963,197.7734 L240.6963,197.7734 C255.6963,197.7734 255.6963,260.5234 270.6963,260.5234 L280.6963,260.5234 " fill="none" style="stroke:#181818;stroke-width:1;"/><path d="M132.6963,226.5781 L142.6963,226.5781 C157.6963,226.5781 157.6963,197.7734 172.6963,197.7734 L182.6963,197.7734 " fill="none" style="stroke:#181818;stroke-width:1;"/><rect fill="#F1F1F1" height="37.6094" rx="12.5" ry="12.5" style="stroke:#181818;stroke-width:1.5;" width="48" x="182.6963" y="356.9375"/><text fill="#000000" font-family="sans-serif" font-size="14" lengthAdjust="spacing" textLength="28" x="192.6963" y="381.4707">&#26082;&#36930;</text><rect fill="#F1F1F1" height="37.6094" rx="12.5" ry="12.5" style="stroke:#181818;stroke-width:1.5;" width="76" x="280.6963" y="356.9375"/><text fill="#000000" font-family="sans-serif" font-size="14" lengthAdjust="spacing" textLength="56" x="290.6963" y="381.4707">&#20316;&#23436;&#20266;&#35777;</text><rect fill="#F1F1F1" height="37.6094" rx="12.5" ry="12.5" style="stroke:#181818;stroke-width:1.5;" width="62" x="406.6963" y="356.9375"/><text fill="#000000" font-family="sans-serif" font-size="14" lengthAdjust="spacing" textLength="42" x="416.6963" y="381.4707">&#19981;&#35201;&#27714;</text><rect fill="#F1F1F1" height="37.6094" rx="12.5" ry="12.5" style="stroke:#181818;stroke-width:1.5;" width="188" x="518.6963" y="356.9375"/><text fill="#000000" font-family="sans-serif" font-size="14" lengthAdjust="spacing" textLength="168" x="528.6963" y="381.4707">&#20351;&#27861;&#23448;&#30456;&#20449;&#12289;&#20570;&#20986;&#38169;&#35823;&#21028;&#20915;</text><path d="M468.6963,375.7422 L478.6963,375.7422 C493.6963,375.7422 493.6963,375.7422 508.6963,375.7422 L518.6963,375.7422 " fill="none" style="stroke:#181818;stroke-width:1;"/><path d="M356.6963,375.7422 L366.6963,375.7422 C381.6963,375.7422 381.6963,375.7422 396.6963,375.7422 L406.6963,375.7422 " fill="none" style="stroke:#181818;stroke-width:1;"/><path d="M230.6963,375.7422 L240.6963,375.7422 C255.6963,375.7422 255.6963,375.7422 270.6963,375.7422 L280.6963,375.7422 " fill="none" style="stroke:#181818;stroke-width:1;"/><path d="M132.6963,226.5781 L142.6963,226.5781 C157.6963,226.5781 157.6963,375.7422 172.6963,375.7422 L182.6963,375.7422 " fill="none" style="stroke:#181818;stroke-width:1;"/><!--SRC=[xLTRJnj757xVNp5LNW39vXAA8Wj510VKHZX2DSdxU3snDwnthFNOgLjLma3042XK0X43eYAYa49bcX15ZcF3ZybUp1D_eMTtlMODhDSyz0tBidRE-UOxPyvjnqCfXcMM4AHe0YSvxZj1uiLqb22_lxlnJR6iIBgJ8fPOEY7w3B0Fq3vJxXT0nd5CO291-jwfKjdKJjRrhKNago_rWx_LyWeirVttQl54NIaPWEeXI9JAOUqu1yySrtMvkAZan-_tVtzHMU0GVBgGbb_LZzwO2qkWbBwgnNUrWscbD5MR_zJGrE4VTxNj1MtzjJQxebItBTwBoj9v8Lyx-rSflr6BE-ho9wNqUvt4b2YbPVsVVO31WxOp2pOR3g71UpA91duEFBngoRIXvZORDYnUYr7VAjs2iGlfbRBoPKNR_bCzVQsk7DTcgjhKWQjjAuvAkQp-yLPV-sZOtdwlBkxegtFAbuBsUK4zMjAtDlJ36Mqthsry1a1jFwTzW9WL6Xv_cvfkehN3MxWcjJNBojU_6iUe5SlgtkoDs7g0x3mOKQZEtNZ26no0yxWueCsSr3xiwaSxwcg-XTs6X_hchBPUKDVczCNZ5dZrT5u_o6ax2qPfRiv2ycgxI_OMiBhnxZmtxIp0whPQNBAiSDT2PCNvfi1Mpy20MdmBfQ6SxNwRoa4crFdo-LgXTdoivlVKkHEE6oBGZNP73ZKtwA3PT0-vkk2nW6CoJg1VmPW_8gQ9-OJGCEOdOp9DIz4W5QcCH24MPuOUjByPs2YM9w6kNE1rhGsEoOH8hPXDW0ETzG1dRIoLiHHpSzfIsj1aMawARb1BQKFT3-Oub4nJRcptHaU7XuD16vabeaXVkM0jfGdb_0aiI1Dnah29Hwd4mi8l1DtluGmzIIJZE2Mal6FfHFUum5EJMJEbJcnVwrWweSCWukDGbMqv8yGaAfCsyehGc22Hg_9BYZRDjgGoo2I9yaHYRh6HpAHOAR144H4mLrYXUIpVU5bePErIpMW2CsevBp6m9b09Yy7ROiTbaiGoDYItsVOeGcNcLNRjSZ46UMTUdTOcMv0ceDsOMpdKTxhH6UcJI0mo2gJEOBQQMbwPZ1AIT3P4iu4HcA8HKKZ5tKUUOt-pjLTnWLsDZOkPfvHvMp9FnMUnrCQfU1mbh64CyxmGTQ_vfb7inVm2MZ7bw6zOyoI4NvAqHvTJ4LoGQTHHWHuzPkymxIHfIc12XZpY7UrmRPnZaRHxaCiZG2wm9tL2W3UeCVlRgQdwQz0WJwKZBmblqBj51sVWlKtaDdap0eKECgcf5xCHzxR3VJdfcnktTQysrRBdEuI3dy7k-bNaxkv_T_U_k_l_7tV_SUClzxFG6CeGEMMCj5v_NqzVl_z1HnWpz9HcKEy0wkaDzFS7-WTGC3o137Kdrn7wSGAbQ1ecEeh2l9E5IDeO0ftS4vp1wASqZ8G42I1ZrJ4HwaJX4Lk8HgIC85Cf0ME0U_8yP87G3vI5avIPu85-tx30K9Z8u1Pw7k8UanSuBJBOojEe8CK2wDd4gEy1DmRZ8erZO0W6T13c29Epe0l_1m00]--></g></svg>