<svg xmlns="http://www.w3.org/2000/svg" xmlns:xlink="http://www.w3.org/1999/xlink" contentStyleType="text/css" height="469px" preserveAspectRatio="none" style="width:1067px;height:469px;background:#FFFFFF;" version="1.1" viewBox="0 0 1067 469" width="1067px" zoomAndPan="magnify"><title>&#31038;&#20250;&#27861;&#30410; - &#20844;&#20849;&#23433;&#20840; - &#32463;&#27982;&#29359;&#32618; - &#29983;&#20135;&#12289;&#38144;&#21806;&#20266;&#21155;&#21830;&#21697;&#32618; - &#33647;&#21697;&#29359;&#32618;</title><defs/><g><text fill="#000000" font-family="sans-serif" font-size="14" font-weight="bold" lengthAdjust="spacing" textLength="425.1406" x="319.8745" y="34.5332">&#31038;&#20250;&#27861;&#30410; - &#20844;&#20849;&#23433;&#20840; - &#32463;&#27982;&#29359;&#32618; - &#29983;&#20135;&#12289;&#38144;&#21806;&#20266;&#21155;&#21830;&#21697;&#32618; - &#33647;&#21697;&#29359;&#32618;</text><rect fill="#F1F1F1" height="37.6094" rx="12.5" ry="12.5" style="stroke:#181818;stroke-width:1.5;" width="76" x="10" y="234.0078"/><text fill="#000000" font-family="sans-serif" font-size="14" lengthAdjust="spacing" textLength="56" x="20" y="258.541">&#33647;&#21697;&#29359;&#32618;</text><rect fill="#F1F1F1" height="37.6094" rx="12.5" ry="12.5" style="stroke:#181818;stroke-width:1.5;" width="48" x="136" y="176.3984"/><text fill="#000000" font-family="sans-serif" font-size="14" lengthAdjust="spacing" textLength="28" x="146" y="200.9316">&#21160;&#35789;</text><rect fill="#F1F1F1" height="37.6094" rx="12.5" ry="12.5" style="stroke:#181818;stroke-width:1.5;" width="48" x="234" y="61.1797"/><text fill="#000000" font-family="sans-serif" font-size="14" lengthAdjust="spacing" textLength="28" x="244" y="85.7129">&#29983;&#20135;</text><path d="M184,195.2031 L194,195.2031 C209,195.2031 209,79.9844 224,79.9844 L234,79.9844 " fill="none" style="stroke:#181818;stroke-width:1;"/><rect fill="#F1F1F1" height="37.6094" rx="12.5" ry="12.5" style="stroke:#181818;stroke-width:1.5;" width="48" x="234" y="118.7891"/><text fill="#000000" font-family="sans-serif" font-size="14" lengthAdjust="spacing" textLength="28" x="244" y="143.3223">&#38144;&#21806;</text><path d="M184,195.2031 L194,195.2031 C209,195.2031 209,137.5938 224,137.5938 L234,137.5938 " fill="none" style="stroke:#181818;stroke-width:1;"/><rect fill="#F1F1F1" height="37.6094" rx="12.5" ry="12.5" style="stroke:#181818;stroke-width:1.5;" width="48" x="234" y="176.3984"/><text fill="#000000" font-family="sans-serif" font-size="14" lengthAdjust="spacing" textLength="28" x="244" y="200.9316">&#25552;&#20379;</text><rect fill="#F1F1F1" height="37.6094" rx="12.5" ry="12.5" style="stroke:#181818;stroke-width:1.5;" width="48" x="332" y="87.4141"/><text fill="#000000" font-family="sans-serif" font-size="14" lengthAdjust="spacing" textLength="28" x="342" y="111.9473">&#20998;&#31867;</text><rect fill="#F1F1F1" height="37.6094" rx="12.5" ry="12.5" style="stroke:#181818;stroke-width:1.5;" width="119.9551" x="430" y="58.6094"/><text fill="#000000" font-family="sans-serif" font-size="14" lengthAdjust="spacing" textLength="99.9551" x="440" y="83.1426">&#26377;&#20607;&#25552;&#20379; = &#38144;&#21806;</text><path d="M380,106.2188 L390,106.2188 C405,106.2188 405,77.4141 420,77.4141 L430,77.4141 " fill="none" style="stroke:#181818;stroke-width:1;"/><rect fill="#F1F1F1" height="37.6094" rx="12.5" ry="12.5" style="stroke:#181818;stroke-width:1.5;" width="76" x="430" y="116.2188"/><text fill="#000000" font-family="sans-serif" font-size="14" lengthAdjust="spacing" textLength="56" x="440" y="140.752">&#26080;&#20607;&#25552;&#20379;</text><path d="M380,106.2188 L390,106.2188 C405,106.2188 405,135.0234 420,135.0234 L430,135.0234 " fill="none" style="stroke:#181818;stroke-width:1;"/><path d="M282,195.2031 L292,195.2031 C307,195.2031 307,106.2188 322,106.2188 L332,106.2188 " fill="none" style="stroke:#181818;stroke-width:1;"/><rect fill="#F1F1F1" height="37.6094" rx="12.5" ry="12.5" style="stroke:#181818;stroke-width:1.5;" width="146" x="332" y="234.0078"/><text fill="#000000" font-family="sans-serif" font-size="14" lengthAdjust="spacing" textLength="126" x="342" y="258.541">&#25552;&#20379;&#20551;&#33647;&#32618;&#12289;&#21155;&#33647;&#32618;</text><rect fill="#F1F1F1" height="37.6094" rx="12.5" ry="12.5" style="stroke:#181818;stroke-width:1.5;" width="90" x="528" y="234.0078"/><text fill="#000000" font-family="sans-serif" font-size="14" lengthAdjust="spacing" textLength="70" x="538" y="258.541">&#12302;&#36523;&#20221;&#29359;&#12303;</text><rect fill="#F1F1F1" height="42.75" rx="12.5" ry="12.5" style="stroke:#181818;stroke-width:1.5;" width="100.8896" x="668" y="200.0625"/><text fill="#000000" font-family="sans-serif" font-size="14" lengthAdjust="spacing" textLength="56" x="678" y="229.7363">&#33647;&#21697;&#20351;&#29992;</text><path d="M757.9907,210.8646 C757.1793,210.3384 756.0961,210.5694 755.5705,211.3803 L745.7646,226.495 L740.9825,222.0733 C740.2726,221.4171 739.166,221.4603 738.5097,222.1702 C737.8535,222.8795 737.8966,223.9873 738.6066,224.6429 L744.8856,230.4483 C745.0658,230.6034 745.0658,230.6034 745.1492,230.6577 C745.4432,230.849 745.7734,230.94 746.1001,230.94 C746.6729,230.94 747.2346,230.6588 747.5701,230.142 L758.5064,213.2848 C759.0326,212.474 758.8016,211.3902 757.9907,210.8646 " fill="#FE0000" style="stroke:;stroke-width:0;stroke-dasharray:;"/><rect fill="#F1F1F1" height="37.6094" rx="12.5" ry="12.5" style="stroke:#181818;stroke-width:1.5;" width="104" x="818.8896" y="173.8281"/><text fill="#000000" font-family="sans-serif" font-size="14" lengthAdjust="spacing" textLength="84" x="828.8896" y="198.3613">&#21333;&#20301;&#65288;&#21307;&#38498;&#65289;</text><path d="M768.8896,221.4375 L778.8896,221.4375 C793.8896,221.4375 793.8896,192.6328 808.8896,192.6328 L818.8896,192.6328 " fill="none" style="stroke:#181818;stroke-width:1;"/><rect fill="#F1F1F1" height="37.6094" rx="12.5" ry="12.5" style="stroke:#181818;stroke-width:1.5;" width="104" x="818.8896" y="231.4375"/><text fill="#000000" font-family="sans-serif" font-size="14" lengthAdjust="spacing" textLength="84" x="828.8896" y="255.9707">&#20154;&#21592;&#65288;&#21307;&#29983;&#65289;</text><path d="M768.8896,221.4375 L778.8896,221.4375 C793.8896,221.4375 793.8896,250.2422 808.8896,250.2422 L818.8896,250.2422 " fill="none" style="stroke:#181818;stroke-width:1;"/><path d="M618,252.8125 L628,252.8125 C643,252.8125 643,221.4375 658,221.4375 L668,221.4375 " fill="none" style="stroke:#181818;stroke-width:1;"/><rect fill="#F1F1F1" height="42.75" rx="12.5" ry="12.5" style="stroke:#181818;stroke-width:1.5;" width="156.8896" x="668" y="289.0469"/><text fill="#000000" font-family="sans-serif" font-size="14" lengthAdjust="spacing" textLength="112" x="678" y="318.7207">&#33647;&#21378;&#65288;&#29983;&#20135;&#33647;&#21697;&#65289;</text><path d="M806.4506,309.548 L813.5876,302.4115 C814.157,301.8422 814.157,300.9188 813.5876,300.3495 C813.0177,299.7795 812.0949,299.7795 811.5256,300.3495 L804.3885,307.486 L797.252,300.3495 C796.6826,299.7795 795.7586,299.7795 795.1899,300.3495 C794.62,300.9188 794.62,301.8422 795.1899,302.4115 L802.3264,309.548 L795.1736,316.7015 C794.6036,317.2714 794.6036,318.1942 795.1736,318.7635 C795.4582,319.0482 795.8316,319.1905 796.2049,319.1905 C796.5782,319.1905 796.9516,319.0482 797.2362,318.7635 L804.3891,311.6101 L811.5256,318.7466 C811.8102,319.0313 812.1836,319.1736 812.5569,319.1736 C812.9302,319.1736 813.303,319.0313 813.5882,318.7466 C814.1576,318.1767 814.1576,317.2539 813.5882,316.6845 L806.4506,309.548 " fill="#FE0000" style="stroke:;stroke-width:0;stroke-dasharray:;"/><path d="M618,252.8125 L628,252.8125 C643,252.8125 643,310.4219 658,310.4219 L668,310.4219 " fill="none" style="stroke:#181818;stroke-width:1;"/><path d="M478,252.8125 L488,252.8125 C503,252.8125 503,252.8125 518,252.8125 L528,252.8125 " fill="none" style="stroke:#181818;stroke-width:1;"/><path d="M282,195.2031 L292,195.2031 C307,195.2031 307,252.8125 322,252.8125 L332,252.8125 " fill="none" style="stroke:#181818;stroke-width:1;"/><path d="M184,195.2031 L194,195.2031 C209,195.2031 209,195.2031 224,195.2031 L234,195.2031 " fill="none" style="stroke:#181818;stroke-width:1;"/><path d="M86,252.8125 L96,252.8125 C111,252.8125 111,195.2031 126,195.2031 L136,195.2031 " fill="none" style="stroke:#181818;stroke-width:1;"/><rect fill="#F1F1F1" height="37.6094" rx="12.5" ry="12.5" style="stroke:#181818;stroke-width:1.5;" width="48" x="136" y="380.6016"/><text fill="#000000" font-family="sans-serif" font-size="14" lengthAdjust="spacing" textLength="28" x="146" y="405.1348">&#26696;&#20363;</text><rect fill="#F1F1F1" height="37.6094" rx="12.5" ry="12.5" style="stroke:#181818;stroke-width:1.5;" width="188" x="234" y="380.6016"/><text fill="#000000" font-family="sans-serif" font-size="14" lengthAdjust="spacing" textLength="168" x="244" y="405.1348">&#33647;&#21378;&#25424;&#29486;&#36807;&#26399;&#33647;&#21697;&#65288;&#21155;&#33647;&#65289;</text><rect fill="#F1F1F1" height="37.6094" rx="12.5" ry="12.5" style="stroke:#181818;stroke-width:1.5;" width="62" x="472" y="351.7969"/><text fill="#000000" font-family="sans-serif" font-size="14" lengthAdjust="spacing" textLength="42" x="482" y="376.3301">&#22810;&#25968;&#35828;</text><rect fill="#F1F1F1" height="37.6094" rx="12.5" ry="12.5" style="stroke:#181818;stroke-width:1.5;" width="160" x="584" y="351.7969"/><text fill="#000000" font-family="sans-serif" font-size="14" lengthAdjust="spacing" textLength="140" x="594" y="376.3301">&#19981;&#26500;&#25104;&#12302;&#25552;&#20379;&#21155;&#33647;&#32618;&#12303;</text><rect fill="#F1F1F1" height="37.6094" rx="12.5" ry="12.5" style="stroke:#181818;stroke-width:1.5;" width="258" x="794" y="351.7969"/><text fill="#000000" font-family="sans-serif" font-size="14" lengthAdjust="spacing" textLength="238" x="804" y="376.3301">&#33647;&#21378;&#26159;&#33647;&#21697;&#30340;&#29983;&#20135;&#21333;&#20301;&#65292;&#19981;&#26159;&#20351;&#29992;&#21333;&#20301;</text><path d="M744,370.6016 L754,370.6016 C769,370.6016 769,370.6016 784,370.6016 L794,370.6016 " fill="none" style="stroke:#181818;stroke-width:1;"/><path d="M534,370.6016 L544,370.6016 C559,370.6016 559,370.6016 574,370.6016 L584,370.6016 " fill="none" style="stroke:#181818;stroke-width:1;"/><path d="M422,399.4063 L432,399.4063 C447,399.4063 447,370.6016 462,370.6016 L472,370.6016 " fill="none" style="stroke:#181818;stroke-width:1;"/><rect fill="#F1F1F1" height="37.6094" rx="12.5" ry="12.5" style="stroke:#181818;stroke-width:1.5;" width="62" x="472" y="409.4063"/><text fill="#000000" font-family="sans-serif" font-size="14" lengthAdjust="spacing" textLength="42" x="482" y="433.9395">&#23569;&#25968;&#35828;</text><rect fill="#F1F1F1" height="37.6094" rx="12.5" ry="12.5" style="stroke:#FF6347;stroke-width:1.5;" width="149.8896" x="584" y="409.4063"/><text fill="#000000" font-family="sans-serif" font-size="14" lengthAdjust="spacing" textLength="126" x="594" y="433.9395">&#26500;&#25104;&#12302;&#25552;&#20379;&#21155;&#33647;&#32618;&#12303;</text><rect fill="#F1F1F1" height="37.6094" rx="12.5" ry="12.5" style="stroke:#181818;stroke-width:1.5;" width="272" x="783.8896" y="409.4063"/><text fill="#000000" font-family="sans-serif" font-size="14" lengthAdjust="spacing" textLength="252" x="793.8896" y="433.9395">&#33647;&#21378;&#35299;&#37322;&#20026;&#33647;&#21697;&#20351;&#29992;&#21333;&#20301;&#65292;&#23646;&#20110;&#25193;&#22823;&#35299;&#37322;</text><path d="M733.8896,428.2109 L743.8896,428.2109 C758.8896,428.2109 758.8896,428.2109 773.8896,428.2109 L783.8896,428.2109 " fill="none" style="stroke:#FF6347;stroke-width:1;"/><path d="M534,428.2109 L544,428.2109 C559,428.2109 559,428.2109 574,428.2109 L584,428.2109 " fill="none" style="stroke:#181818;stroke-width:1;"/><path d="M422,399.4063 L432,399.4063 C447,399.4063 447,428.2109 462,428.2109 L472,428.2109 " fill="none" style="stroke:#181818;stroke-width:1;"/><path d="M184,399.4063 L194,399.4063 C209,399.4063 209,399.4063 224,399.4063 L234,399.4063 " fill="none" style="stroke:#181818;stroke-width:1;"/><path d="M86,252.8125 L96,252.8125 C111,252.8125 111,399.4063 126,399.4063 L136,399.4063 " fill="none" style="stroke:#181818;stroke-width:1;"/><!--SRC=[xLXRJnj757xVNp5LNY2IpQK8HHP510VKHZYAQfBNQBmxiIVixbYxiqxTgX9K8LoAWQYWKX8bROC4JIiSr5QApEt7PDSsJ_aBFRkp2sk7zJflVS12riuvttpdDkUCbp6JOuDhL5SqN9IapwWkgvP2K3BP9_vCNbP9Nr75EhSqDU4Y4m1DUF8a1PaaSSfLWXex9_RHTltlpSRpPPH0plnVplo1ix_apE_1id6uLlztjR5SRHo_SPSRh-pQxllPkREDMMTZtpvwuoo_TZQVEZ_D2K2pKdMVFRmaNMzT8_XSHyxoNhDQyHP284X30a4U4jJNrksJv-S2dsVnQUFWi4NeeryiENEdOW_wefqjXFlvrtDS6xSGEdCBu3zu3W53dEBv4gBtiwlDsf_suJ74-NvsxIE4G8bKsCUdZOqzD7BD84ggG72f_40k47dcWOQDcTJefNlzU2kRzd7bmz6Yit9uzill7uwMEe3jMirvjYN0aDyeiF1gzGS0YYe89m7kU_YDxnAavBT5- -H7gNrdlRBUMDbldYxKNxmADY-APBKRXH1sjkkRRvlLVov9elskKd_vfBwu3jdqqn-al7DEmOUjgd_Ejf-8C89ShRYiMrMHT25iT-djiqYNElY3HaPaWsfaTBIZPytTrsSBo_QxMhZuvyuv1o_jscfzwGzdPrSW9McCG4y7VJtMskOZNlUEIhxW5iLv0sleEt0XcLCjuZqXD8xbcRp1B5r9CvKPIANv0dVreFtUnIfmrA2u4N1V6u3p1Y5w9sOF44ANOy3b0CiChEUZd1RA05gqZA8Q1HNA01eTM2WeWvbHRDSc9yV7q-a0MIQgoXv7O8NIWqf93LDzka2qW7YIwJnBloNeytx9rHEjMC0cDUDp6KRtHy3DcR9NqZ1si7Ckmz1n4Ca5EATTEKFpEZD85tL5Q8hgf5r-GT6bsOvKBfckCvdeF2etkbSKKG8Xogc0QME5vX6-UPtiSrseETCmPy9vdOCrodIifZyLUzSWHMnWL_8fssxccC7ZZbstN9n3tNbSftN9bcOQj1kFEWx-pYWwjtmwoKD5WJISp4vJAwwI2Y75S4Eq6fY0APfJgLc87dcX_QtM7XSeRyzDX9axZCTRygAIorZl8YePAuIV6yEoJ9NeCzyoYkEO7q8hcg7-XhLCClWHiMAwdAdWWi6Kq0cCwR5WXsUdo4pAQOdSb4FjyD4unohfDf2B4A0ME9PQet23khE_cpFbNuCkkMdb7X7PfO_A3Yx1lKsCBdbBb447UTGiZjdDUzVflfZqhOtRkLTRpdBi7IB1rqYV_rFawYNYwYNYwYNYV_qISTVz9y2zp1Gg4SDqP-D0Sh1_S2XveoUBERh3IcXW6FKFf8Q6KaF3A9sTHgwwL-h9V3MDJ6R1rO0K69m6pLdkDEcLRkCIHbzRC5iqaaBkgcSwquko4u4GJUWbQZ1TWtaYtRwV4I3q9UFP8kCUU7WeCKuvoX83t4BtCz8jyX1RAeUjCbEeda-XUzEJYHlI5CmT2-V144pwD0maRfH1b_qF]--></g></svg>