<svg xmlns="http://www.w3.org/2000/svg" xmlns:xlink="http://www.w3.org/1999/xlink" contentStyleType="text/css" height="463px" preserveAspectRatio="none" style="width:1158px;height:463px;background:#FFFFFF;" version="1.1" viewBox="0 0 1158 463" width="1158px" zoomAndPan="magnify"><title>&#31038;&#20250;&#27861;&#30410; - &#20844;&#20849;&#23433;&#20840; - &#32463;&#27982;&#29359;&#32618; - &#29983;&#20135;&#12289;&#38144;&#21806;&#20266;&#21155;&#21830;&#21697;&#32618; - &#20135;&#21697;&#29359;&#32618;</title><defs/><g><text fill="#000000" font-family="sans-serif" font-size="14" font-weight="bold" lengthAdjust="spacing" textLength="425.1406" x="365.231" y="34.5332">&#31038;&#20250;&#27861;&#30410; - &#20844;&#20849;&#23433;&#20840; - &#32463;&#27982;&#29359;&#32618; - &#29983;&#20135;&#12289;&#38144;&#21806;&#20266;&#21155;&#21830;&#21697;&#32618; - &#20135;&#21697;&#29359;&#32618;</text><rect fill="#F1F1F1" height="37.6094" rx="12.5" ry="12.5" style="stroke:#181818;stroke-width:1.5;" width="136.6963" x="10" y="231.4375"/><text fill="#000000" font-family="sans-serif" font-size="14" lengthAdjust="spacing" textLength="116.6963" x="20" y="255.9707">&#20135;&#21697;&#29359;&#32618;&#65288;P309&#65289;</text><rect fill="#F1F1F1" height="37.6094" rx="12.5" ry="12.5" style="stroke:#181818;stroke-width:1.5;" width="48" x="196.6963" y="116.2188"/><text fill="#000000" font-family="sans-serif" font-size="14" lengthAdjust="spacing" textLength="28" x="206.6963" y="140.752">&#26500;&#25104;</text><rect fill="#F1F1F1" height="37.6094" rx="12.5" ry="12.5" style="stroke:#181818;stroke-width:1.5;" width="111.7861" x="294.6963" y="116.2188"/><text fill="#000000" font-family="sans-serif" font-size="14" lengthAdjust="spacing" textLength="91.7861" x="304.6963" y="140.752">&#38144;&#21806;&#37329;&#39069;5&#19975;&#20803;</text><rect fill="#F1F1F1" height="37.6094" rx="12.5" ry="12.5" style="stroke:#181818;stroke-width:1.5;" width="83.7861" x="456.4824" y="58.6094"/><text fill="#000000" font-family="sans-serif" font-size="14" lengthAdjust="spacing" textLength="63.7861" x="466.4824" y="83.1426">&#36798;&#21040;5&#19975;&#20803;</text><rect fill="#F1F1F1" height="37.6094" rx="12.5" ry="12.5" style="stroke:#181818;stroke-width:1.5;" width="48" x="590.2686" y="58.6094"/><text fill="#000000" font-family="sans-serif" font-size="14" lengthAdjust="spacing" textLength="28" x="600.2686" y="83.1426">&#26082;&#36930;</text><path d="M540.2686,77.4141 L550.2686,77.4141 C565.2686,77.4141 565.2686,77.4141 580.2686,77.4141 L590.2686,77.4141 " fill="none" style="stroke:#181818;stroke-width:1;"/><path d="M406.4824,135.0234 L416.4824,135.0234 C431.4824,135.0234 431.4824,77.4141 446.4824,77.4141 L456.4824,77.4141 " fill="none" style="stroke:#181818;stroke-width:1;"/><rect fill="#F1F1F1" height="37.6094" rx="12.5" ry="12.5" style="stroke:#181818;stroke-width:1.5;" width="97.7861" x="456.4824" y="145.0234"/><text fill="#000000" font-family="sans-serif" font-size="14" lengthAdjust="spacing" textLength="77.7861" x="466.4824" y="169.5566">&#26410;&#36798;&#21040;5&#19975;&#20803;</text><rect fill="#F1F1F1" height="37.6094" rx="12.5" ry="12.5" style="stroke:#181818;stroke-width:1.5;" width="48" x="604.2686" y="145.0234"/><text fill="#000000" font-family="sans-serif" font-size="14" lengthAdjust="spacing" textLength="28" x="614.2686" y="169.5566">&#26410;&#36930;</text><rect fill="#F1F1F1" height="37.6094" rx="12.5" ry="12.5" style="stroke:#181818;stroke-width:1.5;" width="160" x="702.2686" y="116.2188"/><text fill="#000000" font-family="sans-serif" font-size="14" lengthAdjust="spacing" textLength="140" x="712.2686" y="140.752">&#36731;&#24494;&#30340;&#26410;&#36930;&#19981;&#20540;&#24471;&#22788;&#32602;</text><path d="M652.2686,163.8281 L662.2686,163.8281 C677.2686,163.8281 677.2686,135.0234 692.2686,135.0234 L702.2686,135.0234 " fill="none" style="stroke:#181818;stroke-width:1;"/><rect fill="#90EE90" height="37.6094" rx="12.5" ry="12.5" style="stroke:#181818;stroke-width:1.5;" width="163.8896" x="702.2686" y="173.8281"/><text fill="#000000" font-family="sans-serif" font-size="14" lengthAdjust="spacing" textLength="140" x="712.2686" y="198.3613">&#23450;&#32618;&#22788;&#32602;&#65288;&#21496;&#27861;&#35299;&#37322;&#65289;</text><rect fill="#F1F1F1" height="37.6094" rx="12.5" ry="12.5" style="stroke:#181818;stroke-width:1.5;" width="230.4443" x="916.1582" y="173.8281"/><text fill="#000000" font-family="sans-serif" font-size="14" lengthAdjust="spacing" textLength="210.4443" x="926.1582" y="198.3613">&#38144;&#21806;&#37329;&#39069;x3 + &#36135;&#20540;&#37329;&#39069; &gt;= 15&#19975;&#20803;</text><path d="M866.1582,192.6328 L876.1582,192.6328 C891.1582,192.6328 891.1582,192.6328 906.1582,192.6328 L916.1582,192.6328 " fill="none" style="stroke:#181818;stroke-width:1;"/><path d="M652.2686,163.8281 L662.2686,163.8281 C677.2686,163.8281 677.2686,192.6328 692.2686,192.6328 L702.2686,192.6328 " fill="none" style="stroke:#181818;stroke-width:1;"/><path d="M554.2686,163.8281 L564.2686,163.8281 C579.2686,163.8281 579.2686,163.8281 594.2686,163.8281 L604.2686,163.8281 " fill="none" style="stroke:#181818;stroke-width:1;"/><path d="M406.4824,135.0234 L416.4824,135.0234 C431.4824,135.0234 431.4824,163.8281 446.4824,163.8281 L456.4824,163.8281 " fill="none" style="stroke:#181818;stroke-width:1;"/><path d="M244.6963,135.0234 L254.6963,135.0234 C269.6963,135.0234 269.6963,135.0234 284.6963,135.0234 L294.6963,135.0234 " fill="none" style="stroke:#181818;stroke-width:1;"/><path d="M146.6963,250.2422 L156.6963,250.2422 C171.6963,250.2422 171.6963,135.0234 186.6963,135.0234 L196.6963,135.0234 " fill="none" style="stroke:#181818;stroke-width:1;"/><rect fill="#F1F1F1" height="37.6094" rx="12.5" ry="12.5" style="stroke:#181818;stroke-width:1.5;" width="62" x="196.6963" y="260.2422"/><text fill="#000000" font-family="sans-serif" font-size="14" lengthAdjust="spacing" textLength="42" x="206.6963" y="284.7754">&#20851;&#32852;&#24615;</text><rect fill="#F1F1F1" height="37.6094" rx="12.5" ry="12.5" style="stroke:#181818;stroke-width:1.5;" width="146" x="308.6963" y="260.2422"/><text fill="#000000" font-family="sans-serif" font-size="14" lengthAdjust="spacing" textLength="126" x="318.6963" y="284.7754">&#21644;&#20854;&#20182;&#20843;&#20010;&#20855;&#20307;&#32618;&#21517;</text><rect fill="#F1F1F1" height="37.6094" rx="12.5" ry="12.5" style="stroke:#181818;stroke-width:1.5;" width="76" x="504.6963" y="231.4375"/><text fill="#000000" font-family="sans-serif" font-size="14" lengthAdjust="spacing" textLength="56" x="514.6963" y="255.9707">&#20828;&#24213;&#32618;&#21517;</text><rect fill="#F1F1F1" height="37.6094" rx="12.5" ry="12.5" style="stroke:#181818;stroke-width:1.5;" width="146" x="630.6963" y="231.4375"/><text fill="#000000" font-family="sans-serif" font-size="14" lengthAdjust="spacing" textLength="126" x="640.6963" y="255.9707">&#29983;&#20135;&#38144;&#21806;&#20266;&#21155;&#20135;&#21697;&#32618;</text><path d="M580.6963,250.2422 L590.6963,250.2422 C605.6963,250.2422 605.6963,250.2422 620.6963,250.2422 L630.6963,250.2422 " fill="none" style="stroke:#181818;stroke-width:1;"/><path d="M454.6963,279.0469 L464.6963,279.0469 C479.6963,279.0469 479.6963,250.2422 494.6963,250.2422 L504.6963,250.2422 " fill="none" style="stroke:#181818;stroke-width:1;"/><rect fill="#F1F1F1" height="37.6094" rx="12.5" ry="12.5" style="stroke:#181818;stroke-width:1.5;" width="104" x="504.6963" y="289.0469"/><text fill="#000000" font-family="sans-serif" font-size="14" lengthAdjust="spacing" textLength="84" x="514.6963" y="313.5801">&#21516;&#26102;&#28385;&#36275;&#22810;&#20010;</text><rect fill="#F1F1F1" height="37.6094" rx="12.5" ry="12.5" style="stroke:#181818;stroke-width:1.5;" width="174" x="658.6963" y="289.0469"/><text fill="#000000" font-family="sans-serif" font-size="14" lengthAdjust="spacing" textLength="154" x="668.6963" y="313.5801">&#24819;&#35937;&#31454;&#21512;&#65292;&#25321;&#19968;&#37325;&#32618;&#35770;&#22788;</text><path d="M608.6963,307.8516 L618.6963,307.8516 C633.6963,307.8516 633.6963,307.8516 648.6963,307.8516 L658.6963,307.8516 " fill="none" style="stroke:#181818;stroke-width:1;"/><path d="M454.6963,279.0469 L464.6963,279.0469 C479.6963,279.0469 479.6963,307.8516 494.6963,307.8516 L504.6963,307.8516 " fill="none" style="stroke:#181818;stroke-width:1;"/><path d="M258.6963,279.0469 L268.6963,279.0469 C283.6963,279.0469 283.6963,279.0469 298.6963,279.0469 L308.6963,279.0469 " fill="none" style="stroke:#181818;stroke-width:1;"/><path d="M146.6963,250.2422 L156.6963,250.2422 C171.6963,250.2422 171.6963,279.0469 186.6963,279.0469 L196.6963,279.0469 " fill="none" style="stroke:#181818;stroke-width:1;"/><rect fill="#F1F1F1" height="37.6094" rx="12.5" ry="12.5" style="stroke:#181818;stroke-width:1.5;" width="76" x="196.6963" y="346.6563"/><text fill="#000000" font-family="sans-serif" font-size="14" lengthAdjust="spacing" textLength="56" x="206.6963" y="371.1895">&#32618;&#25968;&#38382;&#39064;</text><rect fill="#F1F1F1" height="37.6094" rx="12.5" ry="12.5" style="stroke:#181818;stroke-width:1.5;" width="105.9551" x="322.6963" y="346.6563"/><text fill="#000000" font-family="sans-serif" font-size="14" lengthAdjust="spacing" textLength="85.9551" x="332.6963" y="371.1895">&#26412;&#32618; + &#35784;&#39575;&#32618;</text><rect fill="#F1F1F1" height="37.6094" rx="12.5" ry="12.5" style="stroke:#181818;stroke-width:1.5;" width="174" x="478.6514" y="346.6563"/><text fill="#000000" font-family="sans-serif" font-size="14" lengthAdjust="spacing" textLength="154" x="488.6514" y="371.1895">&#24819;&#35937;&#31454;&#21512;&#65292;&#25321;&#19968;&#37325;&#32618;&#35770;&#22788;</text><path d="M428.6514,365.4609 L438.6514,365.4609 C453.6514,365.4609 453.6514,365.4609 468.6514,365.4609 L478.6514,365.4609 " fill="none" style="stroke:#181818;stroke-width:1;"/><path d="M272.6963,365.4609 L282.6963,365.4609 C297.6963,365.4609 297.6963,365.4609 312.6963,365.4609 L322.6963,365.4609 " fill="none" style="stroke:#181818;stroke-width:1;"/><path d="M146.6963,250.2422 L156.6963,250.2422 C171.6963,250.2422 171.6963,365.4609 186.6963,365.4609 L196.6963,365.4609 " fill="none" style="stroke:#181818;stroke-width:1;"/><rect fill="#F1F1F1" height="37.6094" rx="12.5" ry="12.5" style="stroke:#181818;stroke-width:1.5;" width="76" x="196.6963" y="404.2656"/><text fill="#000000" font-family="sans-serif" font-size="14" lengthAdjust="spacing" textLength="56" x="206.6963" y="428.7988">&#21333;&#20301;&#29359;&#32618;</text><rect fill="#F1F1F1" height="37.6094" rx="12.5" ry="12.5" style="stroke:#181818;stroke-width:1.5;" width="188" x="322.6963" y="404.2656"/><text fill="#000000" font-family="sans-serif" font-size="14" lengthAdjust="spacing" textLength="168" x="332.6963" y="428.7988">&#26412;&#33410;&#32618;&#21517;&#22343;&#21487;&#20197;&#30001;&#21333;&#20301;&#26500;&#25104;</text><path d="M272.6963,423.0703 L282.6963,423.0703 C297.6963,423.0703 297.6963,423.0703 312.6963,423.0703 L322.6963,423.0703 " fill="none" style="stroke:#181818;stroke-width:1;"/><path d="M146.6963,250.2422 L156.6963,250.2422 C171.6963,250.2422 171.6963,423.0703 186.6963,423.0703 L196.6963,423.0703 " fill="none" style="stroke:#181818;stroke-width:1;"/><!--SRC=[xLTRJnj757xVNp5LNo2LpRKeHHGH750RuGZL9E_ZtOazONV7sfrrwaIL8C65K2YqWL9HaYg4YjQ9J10jHM3uC_7uyiHVwDbT6zQ6PHsfZrYMjNFEDz-PSztnaCcnmJMgAnfEIT8dL9TLIo4e7EvmloRFgAGZfMATMveQif4XW8OSUPY2J98uvIf1vQsJOc6zjBTQ_cqUXP38lXFPNP5_Bh9_mh9yj5JwvyVo_4xvE6SlLtul7cv_c9gkhao9bNona1FpRyJgz-B5j0i0hVtiu2NfHiFwj30ttjFvnMdXkOJWSmELNisKvfQTXIjmMQkpFrKtNtvUF9WLsMTdMXTHEJaHS-ylqzKerpQhqq-RDfKsSe7xDdBD-pn6Zu_4IRwyFkEYYWUBOgeWJjR4rapvUDrdayYlWyyk13mNImSGuyhsc-hiF4G03GmGBPN49ZK71ozbk1YHRtlGPwZozpOOTmLey4lKvVK9h6RtAjChfQbjJrJ5pmiYkryy-aLatnOFSYBxR_7uXNssvSMcG8diXZXSlKJbgjtiUrDVIo_akebeUQ6qjbywUbtPtnDRws3rifW_swlilYw_VIMMvquB2wKV_YeUJ5Ld5u6kaZ-4oDLyWdLfzNrrBL_T_5NofkoTNNCGafsvQcxjuY5QvHUBgyNZnLhDDl1Nvf-wmH0lPyNIJl7eZ_BAhWklrQuqHA07wtqurDYM0qwt3KermMsA4mRMq1Cm4ewh5d6U41h6ycJ2O9QkH9ZA3AJIH9BRUj1-PsCLR4mQHF61rxHrSC8WHB-AsG5uq9a0SAQEPGRM4tw7TfLrQCeoKgeVr5NMeVwEUPmocEd7zkdewF1m9597PeYgiaS-M5VfGAMmXga-aIHQdNYKwJn67nFKqodP-df_1iVIY-xqWPkJ6IUbNcptrR7qGeT192UXAbiw34tep20jv1MXCQgJPlavHOjchwIooNIToKJdVh7HdQIuAN15SHKmJQpGFExPP8EUPUrSpPc6ENCFhtEmHfcErSZ7OiSDai86jYKVi-rMd1aygEnQvU8Syiw3Egr5jWZJeDsuNpdKTlhHsUdJIG8o2gJUO5urjO8ogH2IyZP4eu4HcA9nbPf9_v7dsTzexL6IykRO-9YvotYm9SShEOFr5hoIiKBucJ4iorJnh_c6KHp4_01QqVJqDwnb4iKFYHNGvKo58nXCyLHWG8_LTpXsKioadAR9BTdJ3XV6ELP9guwSkm2vm87K6eKtg3txMwcfsclG9ZUj-4CYs_H-qS5fU6yJeqNUD6NGGGur2sAsuzvokCydVMFZNjsh3RKS-0wHu6UWetOLkRxqNr_who_z_-kbVzp-atqlEeRIn33jMTOLxkxixWtVR8jXZkwoDEhgGvrT_Rsz_RrzA1ARGBQwNMgBVZs1J6R1A4SA33g3nYsx-zkbEpYDqJSMp0ADz2DxrJOHRKUnaReGZUXfQZ1TW_wNxjoFkY3q5UEn5ECEkAytD4mvYX43ZeNkHwNRv06sL0vRPQPGFT6FxasCXcvAOp0dB9m0Gp2P8p10k941NUm_]--></g></svg>