<svg xmlns="http://www.w3.org/2000/svg" xmlns:xlink="http://www.w3.org/1999/xlink" contentStyleType="text/css" height="463px" preserveAspectRatio="none" style="width:764px;height:463px;background:#FFFFFF;" version="1.1" viewBox="0 0 764 463" width="764px" zoomAndPan="magnify"><title>&#31038;&#20250;&#27861;&#30410; - &#31038;&#20250;&#31209;&#24207; - &#22952;&#23475;&#21496;&#27861;&#32618;</title><defs/><g><text fill="#000000" font-family="sans-serif" font-size="14" font-weight="bold" lengthAdjust="spacing" textLength="212.5703" x="274.5078" y="34.5332">&#31038;&#20250;&#27861;&#30410; - &#31038;&#20250;&#31209;&#24207; - &#22952;&#23475;&#21496;&#27861;&#32618;</text><rect fill="#F1F1F1" height="37.6094" rx="12.5" ry="12.5" style="stroke:#181818;stroke-width:1.5;" width="150.6963" x="10" y="231.4375"/><text fill="#000000" font-family="sans-serif" font-size="14" lengthAdjust="spacing" textLength="130.6963" x="20" y="255.9707">&#22952;&#23475;&#21496;&#27861;&#32618;&#65288;P345&#65289;</text><rect fill="#F1F1F1" height="37.6094" rx="12.5" ry="12.5" style="stroke:#181818;stroke-width:1.5;" width="48" x="210.6963" y="116.2188"/><text fill="#000000" font-family="sans-serif" font-size="14" lengthAdjust="spacing" textLength="28" x="220.6963" y="140.752">&#35777;&#25454;</text><rect fill="#90EE90" height="37.6094" rx="12.5" ry="12.5" style="stroke:#181818;stroke-width:1.5;" width="65.8896" x="308.6963" y="58.6094"/><text fill="#000000" font-family="sans-serif" font-size="14" lengthAdjust="spacing" textLength="42" x="318.6963" y="83.1426">&#20266;&#35777;&#32618;</text><rect fill="#F1F1F1" height="37.6094" rx="12.5" ry="12.5" style="stroke:#181818;stroke-width:1.5;" width="76" x="424.5859" y="58.6094"/><text fill="#000000" font-family="sans-serif" font-size="14" lengthAdjust="spacing" textLength="56" x="434.5859" y="83.1426">&#21457;&#29983;&#39046;&#22495;</text><rect fill="#F1F1F1" height="37.6094" rx="12.5" ry="12.5" style="stroke:#181818;stroke-width:1.5;" width="76" x="550.5859" y="58.6094"/><text fill="#000000" font-family="sans-serif" font-size="14" lengthAdjust="spacing" textLength="56" x="560.5859" y="83.1426">&#21009;&#20107;&#35785;&#35772;</text><path d="M500.5859,77.4141 L510.5859,77.4141 C525.5859,77.4141 525.5859,77.4141 540.5859,77.4141 L550.5859,77.4141 " fill="none" style="stroke:#181818;stroke-width:1;"/><path d="M374.5859,77.4141 L384.5859,77.4141 C399.5859,77.4141 399.5859,77.4141 414.5859,77.4141 L424.5859,77.4141 " fill="none" style="stroke:#181818;stroke-width:1;"/><path d="M258.6963,135.0234 L268.6963,135.0234 C283.6963,135.0234 283.6963,77.4141 298.6963,77.4141 L308.6963,77.4141 " fill="none" style="stroke:#181818;stroke-width:1;"/><rect fill="#90EE90" height="37.6094" rx="12.5" ry="12.5" style="stroke:#181818;stroke-width:1.5;" width="93.8896" x="308.6963" y="116.2188"/><text fill="#000000" font-family="sans-serif" font-size="14" lengthAdjust="spacing" textLength="70" x="318.6963" y="140.752">&#22952;&#23475;&#20316;&#35777;&#32618;</text><rect fill="#F1F1F1" height="37.6094" rx="12.5" ry="12.5" style="stroke:#181818;stroke-width:1.5;" width="179.8584" x="452.5859" y="116.2188"/><text fill="#000000" font-family="sans-serif" font-size="14" lengthAdjust="spacing" textLength="159.8584" x="462.5859" y="140.752">&#20266;&#35777;&#32618;&#30340;&#25945;&#21766;&#29359; &#8594; &#27491;&#29359;&#21270;</text><path d="M402.5859,135.0234 L412.5859,135.0234 C427.5859,135.0234 427.5859,135.0234 442.5859,135.0234 L452.5859,135.0234 " fill="none" style="stroke:#181818;stroke-width:1;"/><path d="M258.6963,135.0234 L268.6963,135.0234 C283.6963,135.0234 283.6963,135.0234 298.6963,135.0234 L308.6963,135.0234 " fill="none" style="stroke:#181818;stroke-width:1;"/><rect fill="#90EE90" height="37.6094" rx="12.5" ry="12.5" style="stroke:#181818;stroke-width:1.5;" width="163.8896" x="308.6963" y="173.8281"/><text fill="#000000" font-family="sans-serif" font-size="14" lengthAdjust="spacing" textLength="140" x="318.6963" y="198.3613">&#24110;&#21161;&#27585;&#28781;&#12289;&#20266;&#36896;&#35777;&#25454;&#32618;</text><rect fill="#F1F1F1" height="37.6094" rx="12.5" ry="12.5" style="stroke:#181818;stroke-width:1.5;" width="34" x="522.5859" y="173.8281"/><text fill="#000000" font-family="sans-serif" font-size="14" lengthAdjust="spacing" textLength="14" x="532.5859" y="198.3613">&#29289;</text><path d="M472.5859,192.6328 L482.5859,192.6328 C497.5859,192.6328 497.5859,192.6328 512.5859,192.6328 L522.5859,192.6328 " fill="none" style="stroke:#181818;stroke-width:1;"/><path d="M258.6963,135.0234 L268.6963,135.0234 C283.6963,135.0234 283.6963,192.6328 298.6963,192.6328 L308.6963,192.6328 " fill="none" style="stroke:#181818;stroke-width:1;"/><path d="M160.6963,250.2422 L170.6963,250.2422 C185.6963,250.2422 185.6963,135.0234 200.6963,135.0234 L210.6963,135.0234 " fill="none" style="stroke:#181818;stroke-width:1;"/><rect fill="#F1F1F1" height="37.6094" rx="12.5" ry="12.5" style="stroke:#181818;stroke-width:1.5;" width="34" x="210.6963" y="231.4375"/><text fill="#000000" font-family="sans-serif" font-size="14" lengthAdjust="spacing" textLength="14" x="220.6963" y="255.9707">&#24038;</text><rect fill="#90EE90" height="37.6094" rx="12.5" ry="12.5" style="stroke:#181818;stroke-width:1.5;" width="93.8896" x="294.6963" y="231.4375"/><text fill="#000000" font-family="sans-serif" font-size="14" lengthAdjust="spacing" textLength="70" x="304.6963" y="255.9707">&#34394;&#20551;&#35785;&#35772;&#32618;</text><rect fill="#F1F1F1" height="37.6094" rx="12.5" ry="12.5" style="stroke:#181818;stroke-width:1.5;" width="76" x="438.5859" y="231.4375"/><text fill="#000000" font-family="sans-serif" font-size="14" lengthAdjust="spacing" textLength="56" x="448.5859" y="255.9707">&#21457;&#29983;&#39046;&#22495;</text><rect fill="#F1F1F1" height="37.6094" rx="12.5" ry="12.5" style="stroke:#181818;stroke-width:1.5;" width="76" x="564.5859" y="231.4375"/><text fill="#000000" font-family="sans-serif" font-size="14" lengthAdjust="spacing" textLength="56" x="574.5859" y="255.9707">&#27665;&#20107;&#35785;&#35772;</text><path d="M514.5859,250.2422 L524.5859,250.2422 C539.5859,250.2422 539.5859,250.2422 554.5859,250.2422 L564.5859,250.2422 " fill="none" style="stroke:#181818;stroke-width:1;"/><path d="M388.5859,250.2422 L398.5859,250.2422 C413.5859,250.2422 413.5859,250.2422 428.5859,250.2422 L438.5859,250.2422 " fill="none" style="stroke:#181818;stroke-width:1;"/><path d="M244.6963,250.2422 L254.6963,250.2422 C269.6963,250.2422 269.6963,250.2422 284.6963,250.2422 L294.6963,250.2422 " fill="none" style="stroke:#181818;stroke-width:1;"/><path d="M160.6963,250.2422 L170.6963,250.2422 C185.6963,250.2422 185.6963,250.2422 200.6963,250.2422 L210.6963,250.2422 " fill="none" style="stroke:#181818;stroke-width:1;"/><rect fill="#F1F1F1" height="37.6094" rx="12.5" ry="12.5" style="stroke:#181818;stroke-width:1.5;" width="34" x="210.6963" y="346.6563"/><text fill="#000000" font-family="sans-serif" font-size="14" lengthAdjust="spacing" textLength="14" x="220.6963" y="371.1895">&#21491;</text><rect fill="#F1F1F1" height="37.6094" rx="12.5" ry="12.5" style="stroke:#181818;stroke-width:1.5;" width="62" x="294.6963" y="317.8516"/><text fill="#000000" font-family="sans-serif" font-size="14" lengthAdjust="spacing" textLength="42" x="304.6963" y="342.3848">&#29359;&#32618;&#21518;</text><rect fill="#90EE90" height="37.6094" rx="12.5" ry="12.5" style="stroke:#181818;stroke-width:1.5;" width="107.8896" x="406.6963" y="289.0469"/><text fill="#000000" font-family="sans-serif" font-size="14" lengthAdjust="spacing" textLength="84" x="416.6963" y="313.5801">&#31389;&#34255;&#12289;&#21253;&#24199;&#32618;</text><rect fill="#F1F1F1" height="37.6094" rx="12.5" ry="12.5" style="stroke:#181818;stroke-width:1.5;" width="34" x="564.5859" y="289.0469"/><text fill="#000000" font-family="sans-serif" font-size="14" lengthAdjust="spacing" textLength="14" x="574.5859" y="313.5801">&#20154;</text><path d="M514.5859,307.8516 L524.5859,307.8516 C539.5859,307.8516 539.5859,307.8516 554.5859,307.8516 L564.5859,307.8516 " fill="none" style="stroke:#181818;stroke-width:1;"/><path d="M356.6963,336.6563 L366.6963,336.6563 C381.6963,336.6563 381.6963,307.8516 396.6963,307.8516 L406.6963,307.8516 " fill="none" style="stroke:#181818;stroke-width:1;"/><rect fill="#90EE90" height="37.6094" rx="12.5" ry="12.5" style="stroke:#181818;stroke-width:1.5;" width="261.8896" x="406.6963" y="346.6563"/><text fill="#000000" font-family="sans-serif" font-size="14" lengthAdjust="spacing" textLength="238" x="416.6963" y="371.1895">&#25513;&#39280;&#12289;&#38544;&#30610;&#29359;&#32618;&#25152;&#24471;&#12289;&#29359;&#32618;&#25152;&#24471;&#25910;&#30410;&#32618;</text><rect fill="#F1F1F1" height="37.6094" rx="12.5" ry="12.5" style="stroke:#181818;stroke-width:1.5;" width="34" x="718.5859" y="346.6563"/><text fill="#000000" font-family="sans-serif" font-size="14" lengthAdjust="spacing" textLength="14" x="728.5859" y="371.1895">&#29289;</text><path d="M668.5859,365.4609 L678.5859,365.4609 C693.5859,365.4609 693.5859,365.4609 708.5859,365.4609 L718.5859,365.4609 " fill="none" style="stroke:#181818;stroke-width:1;"/><path d="M356.6963,336.6563 L366.6963,336.6563 C381.6963,336.6563 381.6963,365.4609 396.6963,365.4609 L406.6963,365.4609 " fill="none" style="stroke:#181818;stroke-width:1;"/><path d="M244.6963,365.4609 L254.6963,365.4609 C269.6963,365.4609 269.6963,336.6563 284.6963,336.6563 L294.6963,336.6563 " fill="none" style="stroke:#181818;stroke-width:1;"/><rect fill="#F1F1F1" height="37.6094" rx="12.5" ry="12.5" style="stroke:#181818;stroke-width:1.5;" width="62" x="294.6963" y="404.2656"/><text fill="#000000" font-family="sans-serif" font-size="14" lengthAdjust="spacing" textLength="42" x="304.6963" y="428.7988">&#22352;&#29282;&#21518;</text><rect fill="#90EE90" height="37.6094" rx="12.5" ry="12.5" style="stroke:#181818;stroke-width:1.5;" width="65.8896" x="406.6963" y="404.2656"/><text fill="#000000" font-family="sans-serif" font-size="14" lengthAdjust="spacing" textLength="42" x="416.6963" y="428.7988">&#33073;&#36867;&#32618;</text><path d="M356.6963,423.0703 L366.6963,423.0703 C381.6963,423.0703 381.6963,423.0703 396.6963,423.0703 L406.6963,423.0703 " fill="none" style="stroke:#181818;stroke-width:1;"/><path d="M244.6963,365.4609 L254.6963,365.4609 C269.6963,365.4609 269.6963,423.0703 284.6963,423.0703 L294.6963,423.0703 " fill="none" style="stroke:#181818;stroke-width:1;"/><path d="M160.6963,250.2422 L170.6963,250.2422 C185.6963,250.2422 185.6963,365.4609 200.6963,365.4609 L210.6963,365.4609 " fill="none" style="stroke:#181818;stroke-width:1;"/><!--SRC=[xLTRRnD757xVNp4LBmcIdGjkXA8e2ZQ9MXIZg3QyZtS7UyZkZ3KxQ-HMbHAL1fm22IWKaPO6GKkRI2HKaLfa6NvCc_NbYR_0sLkoThJUHRmXhCZodFFDT-vdDtEcn48Qb6a6hYhA5vIfkgKHb4wFUN-chEjahAfZ9Yr3Jpd8541JhZnDGQOeaagTeCxlRuzQs-t3XvrVrb7AFtR-tBMR6t2qN_nbxn_Q6wyTm9izHJaxA7hNkhrqBlFbkrP3GV0vYxe7g-sx- -x14norza06K3GpGung1PlKd9qz1dWWU-D-PskdzspDtjdfK_dgs_UFcZzr3nhT_LQ8slFbwCslyGQElUXitsm_V6nlhNNM3z1_QmzG- -Lp-6dV-JbC_7hVNjzjmuNLb_-lhCBbtifJBx8OEvt6hfy8-zyN8SRkusrxzPONmSVbelrg81VEZSEGAOW6BDYRzmPTstlIVRG1uTXtVhIRjuPwuIUjsHpWQD_RxVtn2ZXwsvkTtnvufjgD5Vlj8n26Z-sjVw2b4XW9CkQ7ycIpqtXssldkpRzxAp-SebFc20n1C0Xp_NCnuxRxhE8BBb9S5jX0tm5rkgHRnFs5K1QhosN1BQRbkCu5qccv8XqzQBzti1eMou9e4N1V6u3BWX0sZDa5XD3r670zm7A1MJdAQKyPGAkMgEfHK4yPGAC32mKbk1d5TcPX8PlDvG9adUWwln61zPGkL4aRcB9YXHW1yG9dia2_9UZSkEBeWoh7vpAC7e-0cyjrjwHXxEJmN8QXMH2f5UZ3HCxGCkE29AWhGekKaK7v2KL2iqEf73B6k4gOZCeDSulYbS0JbNJ03B32y7Y-gO8UL-r4BRc19VUSPnAiKSwmdljGx98WLIom8_cGQnTANCYujalA9INKNSPDMaAs73TWt6HKE_Wte-YSyZ5IXee2QJYPmxPMN2KrGghXWUWtC0zRjAHJinAzyaBt-wtTg50vc9i8CvUvZBVaHgNMCKiGbOer8e-DOLMbMdJFzwtYEEPhC8fcQBxXh98ylawic2ddEhWWk1Rgm9WP2swuTghSf9BMo0KrD0wdrZdMIT90JaA0Mk1OQeF24zJP_KbwodyCEkIcLRfEL8S-AZku1izj8XBorYY72NAfUHopa_V4wJxPzFs3EtnM-tevzXcYmDVCcFygylcj-_DRzwVsrhta_9jv9R-8QaIOpZAPI4-EJsRIvqSAMABBl8Ocfj3un7GcCvsPGhb24JdgKMKa_tKHcTo2NOeqs3I2bYnd_4QLIxY6qJSM3AD1ff5p6YdcHr5XFX2YULQZWZC31b2vT3NlWT1NN1QgNBhWgKmgIoKg405keQjvvIAvXYrTmbMLQvILfz6LuaBglB88WshXCXY2rPY32PQY3hh2Um00]--></g></svg>