<svg xmlns="http://www.w3.org/2000/svg" xmlns:xlink="http://www.w3.org/1999/xlink" contentStyleType="text/css" height="463px" preserveAspectRatio="none" style="width:756px;height:463px;background:#FFFFFF;" version="1.1" viewBox="0 0 756 463" width="756px" zoomAndPan="magnify"><title>&#31038;&#20250;&#27861;&#30410; - &#31038;&#20250;&#31209;&#24207; - &#22952;&#23475;&#21496;&#27861;&#32618;&#65288;&#32618;&#21517;&#20851;&#31995;&#65289;</title><defs/><g><text fill="#000000" font-family="sans-serif" font-size="14" font-weight="bold" lengthAdjust="spacing" textLength="299.1953" x="227.1245" y="34.5332">&#31038;&#20250;&#27861;&#30410; - &#31038;&#20250;&#31209;&#24207; - &#22952;&#23475;&#21496;&#27861;&#32618;&#65288;&#32618;&#21517;&#20851;&#31995;&#65289;</text><rect fill="#F1F1F1" height="37.6094" rx="12.5" ry="12.5" style="stroke:#181818;stroke-width:1.5;" width="150.6963" x="10" y="231.4375"/><text fill="#000000" font-family="sans-serif" font-size="14" lengthAdjust="spacing" textLength="130.6963" x="20" y="255.9707">&#22952;&#23475;&#21496;&#27861;&#32618;&#65288;P345&#65289;</text><rect fill="#F1F1F1" height="37.6094" rx="12.5" ry="12.5" style="stroke:#181818;stroke-width:1.5;" width="48" x="210.6963" y="58.6094"/><text fill="#000000" font-family="sans-serif" font-size="14" lengthAdjust="spacing" textLength="28" x="220.6963" y="83.1426">&#35785;&#35772;</text><rect fill="#90EE90" height="37.6094" rx="12.5" ry="12.5" style="stroke:#181818;stroke-width:1.5;" width="93.8896" x="308.6963" y="58.6094"/><text fill="#000000" font-family="sans-serif" font-size="14" lengthAdjust="spacing" textLength="70" x="318.6963" y="83.1426">&#34394;&#20551;&#35785;&#35772;&#32618;</text><rect fill="#F1F1F1" height="37.6094" rx="12.5" ry="12.5" style="stroke:#181818;stroke-width:1.5;" width="76" x="452.5859" y="58.6094"/><text fill="#000000" font-family="sans-serif" font-size="14" lengthAdjust="spacing" textLength="56" x="462.5859" y="83.1426">&#21457;&#29983;&#39046;&#22495;</text><rect fill="#F1F1F1" height="37.6094" rx="12.5" ry="12.5" style="stroke:#181818;stroke-width:1.5;" width="76" x="578.5859" y="58.6094"/><text fill="#000000" font-family="sans-serif" font-size="14" lengthAdjust="spacing" textLength="56" x="588.5859" y="83.1426">&#27665;&#20107;&#35785;&#35772;</text><path d="M528.5859,77.4141 L538.5859,77.4141 C553.5859,77.4141 553.5859,77.4141 568.5859,77.4141 L578.5859,77.4141 " fill="none" style="stroke:#181818;stroke-width:1;"/><path d="M402.5859,77.4141 L412.5859,77.4141 C427.5859,77.4141 427.5859,77.4141 442.5859,77.4141 L452.5859,77.4141 " fill="none" style="stroke:#181818;stroke-width:1;"/><path d="M258.6963,77.4141 L268.6963,77.4141 C283.6963,77.4141 283.6963,77.4141 298.6963,77.4141 L308.6963,77.4141 " fill="none" style="stroke:#181818;stroke-width:1;"/><path d="M160.6963,250.2422 L170.6963,250.2422 C185.6963,250.2422 185.6963,77.4141 200.6963,77.4141 L210.6963,77.4141 " fill="none" style="stroke:#181818;stroke-width:1;"/><rect fill="#F1F1F1" height="37.6094" rx="12.5" ry="12.5" style="stroke:#181818;stroke-width:1.5;" width="48" x="210.6963" y="173.8281"/><text fill="#000000" font-family="sans-serif" font-size="14" lengthAdjust="spacing" textLength="28" x="220.6963" y="198.3613">&#35777;&#25454;</text><rect fill="#90EE90" height="37.6094" rx="12.5" ry="12.5" style="stroke:#181818;stroke-width:1.5;" width="65.8896" x="308.6963" y="116.2188"/><text fill="#000000" font-family="sans-serif" font-size="14" lengthAdjust="spacing" textLength="42" x="318.6963" y="140.752">&#20266;&#35777;&#32618;</text><rect fill="#F1F1F1" height="37.6094" rx="12.5" ry="12.5" style="stroke:#181818;stroke-width:1.5;" width="76" x="424.5859" y="116.2188"/><text fill="#000000" font-family="sans-serif" font-size="14" lengthAdjust="spacing" textLength="56" x="434.5859" y="140.752">&#21457;&#29983;&#39046;&#22495;</text><rect fill="#F1F1F1" height="37.6094" rx="12.5" ry="12.5" style="stroke:#181818;stroke-width:1.5;" width="76" x="550.5859" y="116.2188"/><text fill="#000000" font-family="sans-serif" font-size="14" lengthAdjust="spacing" textLength="56" x="560.5859" y="140.752">&#21009;&#20107;&#35785;&#35772;</text><path d="M500.5859,135.0234 L510.5859,135.0234 C525.5859,135.0234 525.5859,135.0234 540.5859,135.0234 L550.5859,135.0234 " fill="none" style="stroke:#181818;stroke-width:1;"/><path d="M374.5859,135.0234 L384.5859,135.0234 C399.5859,135.0234 399.5859,135.0234 414.5859,135.0234 L424.5859,135.0234 " fill="none" style="stroke:#181818;stroke-width:1;"/><path d="M258.6963,192.6328 L268.6963,192.6328 C283.6963,192.6328 283.6963,135.0234 298.6963,135.0234 L308.6963,135.0234 " fill="none" style="stroke:#181818;stroke-width:1;"/><rect fill="#F1F1F1" height="37.6094" rx="12.5" ry="12.5" style="stroke:#181818;stroke-width:1.5;" width="62" x="308.6963" y="173.8281"/><text fill="#000000" font-family="sans-serif" font-size="14" lengthAdjust="spacing" textLength="42" x="318.6963" y="198.3613">&#20391;&#37325;&#20154;</text><rect fill="#90EE90" height="37.6094" rx="12.5" ry="12.5" style="stroke:#181818;stroke-width:1.5;" width="93.8896" x="420.6963" y="173.8281"/><text fill="#000000" font-family="sans-serif" font-size="14" lengthAdjust="spacing" textLength="70" x="430.6963" y="198.3613">&#22952;&#23475;&#20316;&#35777;&#32618;</text><rect fill="#F1F1F1" height="37.6094" rx="12.5" ry="12.5" style="stroke:#181818;stroke-width:1.5;" width="179.8584" x="564.5859" y="173.8281"/><text fill="#000000" font-family="sans-serif" font-size="14" lengthAdjust="spacing" textLength="159.8584" x="574.5859" y="198.3613">&#20266;&#35777;&#32618;&#30340;&#25945;&#21766;&#29359; &#8594; &#27491;&#29359;&#21270;</text><path d="M514.5859,192.6328 L524.5859,192.6328 C539.5859,192.6328 539.5859,192.6328 554.5859,192.6328 L564.5859,192.6328 " fill="none" style="stroke:#181818;stroke-width:1;"/><path d="M370.6963,192.6328 L380.6963,192.6328 C395.6963,192.6328 395.6963,192.6328 410.6963,192.6328 L420.6963,192.6328 " fill="none" style="stroke:#181818;stroke-width:1;"/><path d="M258.6963,192.6328 L268.6963,192.6328 C283.6963,192.6328 283.6963,192.6328 298.6963,192.6328 L308.6963,192.6328 " fill="none" style="stroke:#181818;stroke-width:1;"/><rect fill="#F1F1F1" height="37.6094" rx="12.5" ry="12.5" style="stroke:#181818;stroke-width:1.5;" width="62" x="308.6963" y="231.4375"/><text fill="#000000" font-family="sans-serif" font-size="14" lengthAdjust="spacing" textLength="42" x="318.6963" y="255.9707">&#20391;&#37325;&#29289;</text><rect fill="#90EE90" height="37.6094" rx="12.5" ry="12.5" style="stroke:#181818;stroke-width:1.5;" width="163.8896" x="420.6963" y="231.4375"/><text fill="#000000" font-family="sans-serif" font-size="14" lengthAdjust="spacing" textLength="140" x="430.6963" y="255.9707">&#24110;&#21161;&#27585;&#28781;&#12289;&#20266;&#36896;&#35777;&#25454;&#32618;</text><path d="M370.6963,250.2422 L380.6963,250.2422 C395.6963,250.2422 395.6963,250.2422 410.6963,250.2422 L420.6963,250.2422 " fill="none" style="stroke:#181818;stroke-width:1;"/><path d="M258.6963,192.6328 L268.6963,192.6328 C283.6963,192.6328 283.6963,250.2422 298.6963,250.2422 L308.6963,250.2422 " fill="none" style="stroke:#181818;stroke-width:1;"/><path d="M160.6963,250.2422 L170.6963,250.2422 C185.6963,250.2422 185.6963,192.6328 200.6963,192.6328 L210.6963,192.6328 " fill="none" style="stroke:#181818;stroke-width:1;"/><rect fill="#F1F1F1" height="37.6094" rx="12.5" ry="12.5" style="stroke:#181818;stroke-width:1.5;" width="62" x="210.6963" y="317.8516"/><text fill="#000000" font-family="sans-serif" font-size="14" lengthAdjust="spacing" textLength="42" x="220.6963" y="342.3848">&#29359;&#32618;&#21518;</text><rect fill="#90EE90" height="37.6094" rx="12.5" ry="12.5" style="stroke:#181818;stroke-width:1.5;" width="107.8896" x="322.6963" y="289.0469"/><text fill="#000000" font-family="sans-serif" font-size="14" lengthAdjust="spacing" textLength="84" x="332.6963" y="313.5801">&#31389;&#34255;&#12289;&#21253;&#24199;&#32618;</text><rect fill="#F1F1F1" height="37.6094" rx="12.5" ry="12.5" style="stroke:#181818;stroke-width:1.5;" width="34" x="480.5859" y="289.0469"/><text fill="#000000" font-family="sans-serif" font-size="14" lengthAdjust="spacing" textLength="14" x="490.5859" y="313.5801">&#20154;</text><path d="M430.5859,307.8516 L440.5859,307.8516 C455.5859,307.8516 455.5859,307.8516 470.5859,307.8516 L480.5859,307.8516 " fill="none" style="stroke:#181818;stroke-width:1;"/><path d="M272.6963,336.6563 L282.6963,336.6563 C297.6963,336.6563 297.6963,307.8516 312.6963,307.8516 L322.6963,307.8516 " fill="none" style="stroke:#181818;stroke-width:1;"/><rect fill="#90EE90" height="37.6094" rx="12.5" ry="12.5" style="stroke:#181818;stroke-width:1.5;" width="261.8896" x="322.6963" y="346.6563"/><text fill="#000000" font-family="sans-serif" font-size="14" lengthAdjust="spacing" textLength="238" x="332.6963" y="371.1895">&#25513;&#39280;&#12289;&#38544;&#30610;&#29359;&#32618;&#25152;&#24471;&#12289;&#29359;&#32618;&#25152;&#24471;&#25910;&#30410;&#32618;</text><rect fill="#F1F1F1" height="37.6094" rx="12.5" ry="12.5" style="stroke:#181818;stroke-width:1.5;" width="34" x="634.5859" y="346.6563"/><text fill="#000000" font-family="sans-serif" font-size="14" lengthAdjust="spacing" textLength="14" x="644.5859" y="371.1895">&#29289;</text><path d="M584.5859,365.4609 L594.5859,365.4609 C609.5859,365.4609 609.5859,365.4609 624.5859,365.4609 L634.5859,365.4609 " fill="none" style="stroke:#181818;stroke-width:1;"/><path d="M272.6963,336.6563 L282.6963,336.6563 C297.6963,336.6563 297.6963,365.4609 312.6963,365.4609 L322.6963,365.4609 " fill="none" style="stroke:#181818;stroke-width:1;"/><path d="M160.6963,250.2422 L170.6963,250.2422 C185.6963,250.2422 185.6963,336.6563 200.6963,336.6563 L210.6963,336.6563 " fill="none" style="stroke:#181818;stroke-width:1;"/><rect fill="#F1F1F1" height="37.6094" rx="12.5" ry="12.5" style="stroke:#181818;stroke-width:1.5;" width="62" x="210.6963" y="404.2656"/><text fill="#000000" font-family="sans-serif" font-size="14" lengthAdjust="spacing" textLength="42" x="220.6963" y="428.7988">&#20851;&#25276;&#21518;</text><rect fill="#90EE90" height="37.6094" rx="12.5" ry="12.5" style="stroke:#181818;stroke-width:1.5;" width="65.8896" x="322.6963" y="404.2656"/><text fill="#000000" font-family="sans-serif" font-size="14" lengthAdjust="spacing" textLength="42" x="332.6963" y="428.7988">&#33073;&#36867;&#32618;</text><path d="M272.6963,423.0703 L282.6963,423.0703 C297.6963,423.0703 297.6963,423.0703 312.6963,423.0703 L322.6963,423.0703 " fill="none" style="stroke:#181818;stroke-width:1;"/><path d="M160.6963,250.2422 L170.6963,250.2422 C185.6963,250.2422 185.6963,423.0703 200.6963,423.0703 L210.6963,423.0703 " fill="none" style="stroke:#181818;stroke-width:1;"/><!--SRC=[xLTRJnj757xVNp5LNm39vX8NHGWXOWVKHZX2iPFtyUx4dh0xOytEEdAhIg0623I492ADGYzKlQKWXQIoL4MkmuzfMIz-ob_8sLqlh4tMkr7VeY1aUSxvvZipvvplx7hMb5X8WpBDm5L5-OGoLRSqWjBfqTD_KzPrCbhLCPEMeQTSS0hGAS-Ufc1J54cbJf3psz5nQxVTUEnylubItQNpRDzkRiFI_kDF-x1XRxzo0QyFthJkmgVzOCjURJYDVzwqDXHbv1sWnGkPprmdWhyHTF9Yu-ImvIswXgUxzigwRuODQ7gQ6DKADgavCtCAyw7szaDdPw_povgzjzVZyjtjbm-Fcz-60hZHLjfRXw5enwq3iFs_EFRTlZXTwgDddVMjusQpdytBoF7h7-82zvtGsRtJVlpKtbbpDb-WVzSUeVRpN-6hVU-xSq6TZVt-eAyExStzDX2jFFzlUGL8Eyi_-zbuvnb6451xvRmVOdSEVZnviWtxxNkhTdCz9ctXgqCrxkztVdy9Upkx3voV7ldqxOrb- -W96CFBzixVq6ynvC4LuMghZVPcg_UW9tV-wYn_Suv2cIKWZ40SixrQcVRwVqRf6YvJN1ROG5y1RRgaMyJxXb0MgqjbmIscvRZE1T9fkI9TFtY_Th4Q5ak2Q17mhZS0bmKXR12p1mYXwp7WUe3b0hDorA5zPm2jMgAgHq5zPm2DlbZeKeARKMoVpizdixbSWAmJNUUt8x2-quCgQGDJLgmG8o2UvqmMw9S4NHXJN7zGvVXSXj5Z4N1pgUwLD8oT69pBC3GB9hK2VPZeCBJCk209wehG0cMattv6aJ3iG2gNZ36k4YQZSiEyelWby4qb7J1zh20U_sogeATLEtDBRc39_SCp2T4ePrZFlIzsKP0g5jYrlC-sIoKkP5pR9UMI4kekuvIMa2t73P2RZ6g7xiueEhTyZ9IXea0QJkQWgHLNIOsGQbWGlG7cO8gMT6fMeaTUQ7zljDiLAljp4n7cAfVnaRnRgNNC4jnAnHgHfy6mgb8jkkTxHd4SyqsGeXdIDwnLaiUtY1MZSgx34GJNGXqOex5WXnUdoaqgQOrSKaDoE3VEiKwINkJi2b0B74jjK7Y2khC_IKzr7uCkkMcLRX7LfO_A3gx1Svk8XBmroa517ZMFOtRpdZZTPvE-LxY3jThJox7F40K-faUxho8VNyC_leP_yA_XY-uFqUlv1LGZmdIdotXwOcmYaxuuLC0INUKrD3w9niQdCfcfp2JA5Oh8TGyhG_alYiZa5WnNfC7e4RHakNeSLgxW6aRNB52dGQQGknegveTHOIumeZbMeu8p0nIfNBcHzq7eSouBLIuzy6GcbQKI5OY0Ow4RUUKokOajNS9MbMkKbQVGzU9ywgAo0CgrS1a2mQpCWQIbg8Ely1O0]--></g></svg>