<svg xmlns="http://www.w3.org/2000/svg" xmlns:xlink="http://www.w3.org/1999/xlink" contentStyleType="text/css" height="982px" preserveAspectRatio="none" style="width:1152px;height:982px;background:#FFFFFF;" version="1.1" viewBox="0 0 1152 982" width="1152px" zoomAndPan="magnify"><title>&#31038;&#20250;&#27861;&#30410; - &#20844;&#20849;&#23433;&#20840; - &#32463;&#27982;&#29359;&#32618; - &#29983;&#20135;&#12289;&#38144;&#21806;&#20266;&#21155;&#21830;&#21697;&#32618; - &#39135;&#21697;&#29359;&#32618;</title><defs/><g><text fill="#000000" font-family="sans-serif" font-size="14" font-weight="bold" lengthAdjust="spacing" textLength="425.1406" x="362.2778" y="34.5332">&#31038;&#20250;&#27861;&#30410; - &#20844;&#20849;&#23433;&#20840; - &#32463;&#27982;&#29359;&#32618; - &#29983;&#20135;&#12289;&#38144;&#21806;&#20266;&#21155;&#21830;&#21697;&#32618; - &#39135;&#21697;&#29359;&#32618;</text><rect fill="#F1F1F1" height="37.6094" rx="12.5" ry="12.5" style="stroke:#181818;stroke-width:1.5;" width="136.6963" x="10" y="490.6797"/><text fill="#000000" font-family="sans-serif" font-size="14" lengthAdjust="spacing" textLength="116.6963" x="20" y="515.2129">&#39135;&#21697;&#29359;&#32618;&#65288;P310&#65289;</text><rect fill="#F1F1F1" height="37.6094" rx="12.5" ry="12.5" style="stroke:#181818;stroke-width:1.5;" width="48" x="196.6963" y="145.0234"/><text fill="#000000" font-family="sans-serif" font-size="14" lengthAdjust="spacing" textLength="28" x="206.6963" y="169.5566">&#39135;&#21697;</text><rect fill="#F1F1F1" height="37.6094" rx="12.5" ry="12.5" style="stroke:#181818;stroke-width:1.5;" width="104" x="294.6963" y="58.6094"/><text fill="#000000" font-family="sans-serif" font-size="14" lengthAdjust="spacing" textLength="84" x="304.6963" y="83.1426">&#33021;&#22815;&#21507;&#30340;&#39135;&#21697;</text><path d="M244.6963,163.8281 L254.6963,163.8281 C269.6963,163.8281 269.6963,77.4141 284.6963,77.4141 L294.6963,77.4141 " fill="none" style="stroke:#181818;stroke-width:1;"/><rect fill="#F1F1F1" height="37.6094" rx="12.5" ry="12.5" style="stroke:#181818;stroke-width:1.5;" width="48" x="294.6963" y="173.8281"/><text fill="#000000" font-family="sans-serif" font-size="14" lengthAdjust="spacing" textLength="28" x="304.6963" y="198.3613">&#21407;&#26009;</text><rect fill="#F1F1F1" height="37.6094" rx="12.5" ry="12.5" style="stroke:#181818;stroke-width:1.5;" width="76" x="392.6963" y="116.2188"/><text fill="#000000" font-family="sans-serif" font-size="14" lengthAdjust="spacing" textLength="56" x="402.6963" y="140.752">&#39135;&#21697;&#21407;&#26009;</text><rect fill="#F1F1F1" height="37.6094" rx="12.5" ry="12.5" style="stroke:#181818;stroke-width:1.5;" width="90" x="518.6963" y="116.2188"/><text fill="#000000" font-family="sans-serif" font-size="14" lengthAdjust="spacing" textLength="70" x="528.6963" y="140.752">&#29983;&#29482;&#12289;&#27963;&#40060;</text><path d="M468.6963,135.0234 L478.6963,135.0234 C493.6963,135.0234 493.6963,135.0234 508.6963,135.0234 L518.6963,135.0234 " fill="none" style="stroke:#181818;stroke-width:1;"/><path d="M342.6963,192.6328 L352.6963,192.6328 C367.6963,192.6328 367.6963,135.0234 382.6963,135.0234 L392.6963,135.0234 " fill="none" style="stroke:#181818;stroke-width:1;"/><rect fill="#F1F1F1" height="37.6094" rx="12.5" ry="12.5" style="stroke:#181818;stroke-width:1.5;" width="90" x="392.6963" y="202.6328"/><text fill="#000000" font-family="sans-serif" font-size="14" lengthAdjust="spacing" textLength="70" x="402.6963" y="227.166">&#38750;&#39135;&#21697;&#21407;&#26009;</text><rect fill="#F1F1F1" height="37.6094" rx="12.5" ry="12.5" style="stroke:#181818;stroke-width:1.5;" width="188" x="532.6963" y="173.8281"/><text fill="#000000" font-family="sans-serif" font-size="14" lengthAdjust="spacing" textLength="168" x="542.6963" y="198.3613">&#39135;&#21697;&#28155;&#21152;&#21058;&#65288;&#30001;&#37327;&#30340;&#35201;&#27714;&#65289;</text><path d="M482.6963,221.4375 L492.6963,221.4375 C507.6963,221.4375 507.6963,192.6328 522.6963,192.6328 L532.6963,192.6328 " fill="none" style="stroke:#181818;stroke-width:1;"/><rect fill="#F1F1F1" height="37.6094" rx="12.5" ry="12.5" style="stroke:#181818;stroke-width:1.5;" width="132" x="532.6963" y="231.4375"/><text fill="#000000" font-family="sans-serif" font-size="14" lengthAdjust="spacing" textLength="112" x="542.6963" y="255.9707">&#26377;&#27602;&#12289;&#26377;&#23475;&#30340;&#29289;&#36136;</text><path d="M482.6963,221.4375 L492.6963,221.4375 C507.6963,221.4375 507.6963,250.2422 522.6963,250.2422 L532.6963,250.2422 " fill="none" style="stroke:#181818;stroke-width:1;"/><path d="M342.6963,192.6328 L352.6963,192.6328 C367.6963,192.6328 367.6963,221.4375 382.6963,221.4375 L392.6963,221.4375 " fill="none" style="stroke:#181818;stroke-width:1;"/><path d="M244.6963,163.8281 L254.6963,163.8281 C269.6963,163.8281 269.6963,192.6328 284.6963,192.6328 L294.6963,192.6328 " fill="none" style="stroke:#181818;stroke-width:1;"/><path d="M146.6963,509.4844 L156.6963,509.4844 C171.6963,509.4844 171.6963,163.8281 186.6963,163.8281 L196.6963,163.8281 " fill="none" style="stroke:#181818;stroke-width:1;"/><rect fill="#F1F1F1" height="37.6094" rx="12.5" ry="12.5" style="stroke:#181818;stroke-width:1.5;" width="48" x="196.6963" y="605.8984"/><text fill="#000000" font-family="sans-serif" font-size="14" lengthAdjust="spacing" textLength="28" x="206.6963" y="630.4316">&#32618;&#21517;</text><rect fill="#F1F1F1" height="37.6094" rx="12.5" ry="12.5" style="stroke:#181818;stroke-width:1.5;" width="244" x="294.6963" y="433.0703"/><text fill="#000000" font-family="sans-serif" font-size="14" lengthAdjust="spacing" textLength="224" x="304.6963" y="457.6035">&#29983;&#20135;&#38144;&#21806;&#26377;&#27602;&#12289;&#26377;&#23475;&#39135;&#21697;&#32618;&#65288;&#37325;&#32618;&#65289;</text><rect fill="#F1F1F1" height="37.6094" rx="12.5" ry="12.5" style="stroke:#181818;stroke-width:1.5;" width="118" x="588.6963" y="289.0469"/><text fill="#000000" font-family="sans-serif" font-size="14" lengthAdjust="spacing" textLength="98" x="598.6963" y="313.5801">&#20837;&#32618;&#38376;&#27099;&#65288;&#20302;&#65289;</text><rect fill="#90EE90" height="37.6094" rx="12.5" ry="12.5" style="stroke:#181818;stroke-width:1.5;" width="163.8896" x="756.6963" y="289.0469"/><text fill="#000000" font-family="sans-serif" font-size="14" lengthAdjust="spacing" textLength="140" x="766.6963" y="313.5801">&#34892;&#20026;&#29359;&#65288;&#25277;&#35937;&#21361;&#38505;&#29359;&#65289;</text><path d="M706.6963,307.8516 L716.6963,307.8516 C731.6963,307.8516 731.6963,307.8516 746.6963,307.8516 L756.6963,307.8516 " fill="none" style="stroke:#181818;stroke-width:1;"/><path d="M538.6963,451.875 L548.6963,451.875 C563.6963,451.875 563.6963,307.8516 578.6963,307.8516 L588.6963,307.8516 " fill="none" style="stroke:#181818;stroke-width:1;"/><rect fill="#F1F1F1" height="37.6094" rx="12.5" ry="12.5" style="stroke:#181818;stroke-width:1.5;" width="202" x="588.6963" y="461.875"/><text fill="#000000" font-family="sans-serif" font-size="14" lengthAdjust="spacing" textLength="182" x="598.6963" y="486.4082">&#26377;&#27602;&#12289;&#26377;&#23475;&#30340;&#38750;&#12302;&#39135;&#21697;&#21407;&#26009;&#12303;</text><rect fill="#F1F1F1" height="37.6094" rx="12.5" ry="12.5" style="stroke:#181818;stroke-width:1.5;" width="48" x="840.6963" y="346.6563"/><text fill="#000000" font-family="sans-serif" font-size="14" lengthAdjust="spacing" textLength="28" x="850.6963" y="371.1895">&#39135;&#26448;</text><rect fill="#F1F1F1" height="37.6094" rx="12.5" ry="12.5" style="stroke:#181818;stroke-width:1.5;" width="118" x="938.6963" y="346.6563"/><text fill="#000000" font-family="sans-serif" font-size="14" lengthAdjust="spacing" textLength="98" x="948.6963" y="371.1895">&#25343;&#30246;&#32905;&#31934;&#21890;&#30340;&#29482;</text><path d="M888.6963,365.4609 L898.6963,365.4609 C913.6963,365.4609 913.6963,365.4609 928.6963,365.4609 L938.6963,365.4609 " fill="none" style="stroke:#181818;stroke-width:1;"/><path d="M790.6963,480.6797 L800.6963,480.6797 C815.6963,480.6797 815.6963,365.4609 830.6963,365.4609 L840.6963,365.4609 " fill="none" style="stroke:#181818;stroke-width:1;"/><rect fill="#F1F1F1" height="37.6094" rx="12.5" ry="12.5" style="stroke:#181818;stroke-width:1.5;" width="48" x="840.6963" y="404.2656"/><text fill="#000000" font-family="sans-serif" font-size="14" lengthAdjust="spacing" textLength="28" x="850.6963" y="428.7988">&#30333;&#37202;</text><rect fill="#F1F1F1" height="37.6094" rx="12.5" ry="12.5" style="stroke:#181818;stroke-width:1.5;" width="132" x="938.6963" y="404.2656"/><text fill="#000000" font-family="sans-serif" font-size="14" lengthAdjust="spacing" textLength="112" x="948.6963" y="428.7988">&#25343;&#24037;&#19994;&#37202;&#31934;&#20817;&#30333;&#37202;</text><path d="M888.6963,423.0703 L898.6963,423.0703 C913.6963,423.0703 913.6963,423.0703 928.6963,423.0703 L938.6963,423.0703 " fill="none" style="stroke:#181818;stroke-width:1;"/><path d="M790.6963,480.6797 L800.6963,480.6797 C815.6963,480.6797 815.6963,423.0703 830.6963,423.0703 L840.6963,423.0703 " fill="none" style="stroke:#181818;stroke-width:1;"/><rect fill="#F1F1F1" height="37.6094" rx="12.5" ry="12.5" style="stroke:#181818;stroke-width:1.5;" width="62" x="840.6963" y="490.6797"/><text fill="#000000" font-family="sans-serif" font-size="14" lengthAdjust="spacing" textLength="42" x="850.6963" y="515.2129">&#39135;&#29992;&#27833;</text><rect fill="#F1F1F1" height="37.6094" rx="12.5" ry="12.5" style="stroke:#181818;stroke-width:1.5;" width="160" x="952.6963" y="461.875"/><text fill="#000000" font-family="sans-serif" font-size="14" lengthAdjust="spacing" textLength="140" x="962.6963" y="486.4082">&#24037;&#19994;&#29992;&#29482;&#27833;&#20882;&#20805;&#39135;&#29992;&#27833;</text><path d="M902.6963,509.4844 L912.6963,509.4844 C927.6963,509.4844 927.6963,480.6797 942.6963,480.6797 L952.6963,480.6797 " fill="none" style="stroke:#181818;stroke-width:1;"/><rect fill="#F1F1F1" height="37.6094" rx="12.5" ry="12.5" style="stroke:#181818;stroke-width:1.5;" width="132" x="952.6963" y="519.4844"/><text fill="#000000" font-family="sans-serif" font-size="14" lengthAdjust="spacing" textLength="112" x="962.6963" y="544.0176">&#22320;&#27807;&#27833;&#29983;&#20135;&#39135;&#29992;&#27833;</text><path d="M902.6963,509.4844 L912.6963,509.4844 C927.6963,509.4844 927.6963,538.2891 942.6963,538.2891 L952.6963,538.2891 " fill="none" style="stroke:#181818;stroke-width:1;"/><path d="M790.6963,480.6797 L800.6963,480.6797 C815.6963,480.6797 815.6963,509.4844 830.6963,509.4844 L840.6963,509.4844 " fill="none" style="stroke:#181818;stroke-width:1;"/><rect fill="#F1F1F1" height="37.6094" rx="12.5" ry="12.5" style="stroke:#181818;stroke-width:1.5;" width="160" x="840.6963" y="577.0938"/><text fill="#000000" font-family="sans-serif" font-size="14" lengthAdjust="spacing" textLength="140" x="850.6963" y="601.627">&#19977;&#40575;&#22902;&#31881;&#26696;&#30340;&#37027;&#20010;&#22902;&#31881;</text><path d="M790.6963,480.6797 L800.6963,480.6797 C815.6963,480.6797 815.6963,595.8984 830.6963,595.8984 L840.6963,595.8984 " fill="none" style="stroke:#181818;stroke-width:1;"/><path d="M538.6963,451.875 L548.6963,451.875 C563.6963,451.875 563.6963,480.6797 578.6963,480.6797 L588.6963,480.6797 " fill="none" style="stroke:#181818;stroke-width:1;"/><path d="M244.6963,624.7031 L254.6963,624.7031 C269.6963,624.7031 269.6963,451.875 284.6963,451.875 L294.6963,451.875 " fill="none" style="stroke:#181818;stroke-width:1;"/><rect fill="#F1F1F1" height="37.6094" rx="12.5" ry="12.5" style="stroke:#181818;stroke-width:1.5;" width="286" x="294.6963" y="778.7266"/><text fill="#000000" font-family="sans-serif" font-size="14" lengthAdjust="spacing" textLength="266" x="304.6963" y="803.2598">&#29983;&#20135;&#38144;&#21806;&#19981;&#31526;&#21512;&#23433;&#20840;&#26631;&#20934;&#30340;&#39135;&#21697;&#32618;&#65288;&#36731;&#32618;&#65289;</text><rect fill="#F1F1F1" height="37.6094" rx="12.5" ry="12.5" style="stroke:#181818;stroke-width:1.5;" width="118" x="630.6963" y="634.7031"/><text fill="#000000" font-family="sans-serif" font-size="14" lengthAdjust="spacing" textLength="98" x="640.6963" y="659.2363">&#20837;&#32618;&#38376;&#27099;&#65288;&#39640;&#65289;</text><rect fill="#90EE90" height="37.6094" rx="12.5" ry="12.5" style="stroke:#181818;stroke-width:1.5;" width="163.8896" x="798.6963" y="634.7031"/><text fill="#000000" font-family="sans-serif" font-size="14" lengthAdjust="spacing" textLength="140" x="808.6963" y="659.2363">&#23454;&#23475;&#32467;&#26524;&#65288;&#20855;&#20307;&#21361;&#38505;&#65289;</text><path d="M748.6963,653.5078 L758.6963,653.5078 C773.6963,653.5078 773.6963,653.5078 788.6963,653.5078 L798.6963,653.5078 " fill="none" style="stroke:#181818;stroke-width:1;"/><path d="M580.6963,797.5313 L590.6963,797.5313 C605.6963,797.5313 605.6963,653.5078 620.6963,653.5078 L630.6963,653.5078 " fill="none" style="stroke:#181818;stroke-width:1;"/><rect fill="#F1F1F1" height="37.6094" rx="12.5" ry="12.5" style="stroke:#181818;stroke-width:1.5;" width="118" x="630.6963" y="807.5313"/><text fill="#000000" font-family="sans-serif" font-size="14" lengthAdjust="spacing" textLength="98" x="640.6963" y="832.0645">&#19981;&#31526;&#21512;&#23433;&#20840;&#26631;&#20934;</text><rect fill="#F1F1F1" height="37.6094" rx="12.5" ry="12.5" style="stroke:#181818;stroke-width:1.5;" width="132" x="798.6963" y="749.9219"/><text fill="#000000" font-family="sans-serif" font-size="14" lengthAdjust="spacing" textLength="112" x="808.6963" y="774.4551">&#20005;&#37325;&#36229;&#20986;&#26631;&#20934;&#38480;&#37327;</text><rect fill="#F1F1F1" height="37.6094" rx="12.5" ry="12.5" style="stroke:#181818;stroke-width:1.5;" width="48" x="980.6963" y="721.1172"/><text fill="#000000" font-family="sans-serif" font-size="14" lengthAdjust="spacing" textLength="28" x="990.6963" y="745.6504">&#27531;&#30041;</text><rect fill="#F1F1F1" height="37.6094" rx="12.5" ry="12.5" style="stroke:#181818;stroke-width:1.5;" width="48" x="1078.6963" y="692.3125"/><text fill="#000000" font-family="sans-serif" font-size="14" lengthAdjust="spacing" textLength="28" x="1088.6963" y="716.8457">&#20892;&#33647;</text><path d="M1028.6963,739.9219 L1038.6963,739.9219 C1053.6963,739.9219 1053.6963,711.1172 1068.6963,711.1172 L1078.6963,711.1172 " fill="none" style="stroke:#181818;stroke-width:1;"/><rect fill="#F1F1F1" height="37.6094" rx="12.5" ry="12.5" style="stroke:#181818;stroke-width:1.5;" width="62" x="1078.6963" y="749.9219"/><text fill="#000000" font-family="sans-serif" font-size="14" lengthAdjust="spacing" textLength="42" x="1088.6963" y="774.4551">&#37325;&#37329;&#23646;</text><path d="M1028.6963,739.9219 L1038.6963,739.9219 C1053.6963,739.9219 1053.6963,768.7266 1068.6963,768.7266 L1078.6963,768.7266 " fill="none" style="stroke:#181818;stroke-width:1;"/><path d="M930.6963,768.7266 L940.6963,768.7266 C955.6963,768.7266 955.6963,739.9219 970.6963,739.9219 L980.6963,739.9219 " fill="none" style="stroke:#181818;stroke-width:1;"/><rect fill="#F1F1F1" height="37.6094" rx="12.5" ry="12.5" style="stroke:#181818;stroke-width:1.5;" width="90" x="980.6963" y="807.5313"/><text fill="#000000" font-family="sans-serif" font-size="14" lengthAdjust="spacing" textLength="70" x="990.6963" y="832.0645">&#39135;&#21697;&#28155;&#21152;&#21058;</text><path d="M930.6963,768.7266 L940.6963,768.7266 C955.6963,768.7266 955.6963,826.3359 970.6963,826.3359 L980.6963,826.3359 " fill="none" style="stroke:#181818;stroke-width:1;"/><path d="M748.6963,826.3359 L758.6963,826.3359 C773.6963,826.3359 773.6963,768.7266 788.6963,768.7266 L798.6963,768.7266 " fill="none" style="stroke:#181818;stroke-width:1;"/><rect fill="#F1F1F1" height="37.6094" rx="12.5" ry="12.5" style="stroke:#181818;stroke-width:1.5;" width="160" x="798.6963" y="865.1406"/><text fill="#000000" font-family="sans-serif" font-size="14" lengthAdjust="spacing" textLength="140" x="808.6963" y="889.6738">&#21253;&#35013;&#26448;&#26009;&#12289;&#23481;&#22120;&#34987;&#27745;&#26579;</text><path d="M748.6963,826.3359 L758.6963,826.3359 C773.6963,826.3359 773.6963,883.9453 788.6963,883.9453 L798.6963,883.9453 " fill="none" style="stroke:#181818;stroke-width:1;"/><rect fill="#F1F1F1" height="37.6094" rx="12.5" ry="12.5" style="stroke:#181818;stroke-width:1.5;" width="48" x="798.6963" y="922.75"/><text fill="#000000" font-family="sans-serif" font-size="14" lengthAdjust="spacing" textLength="28" x="808.6963" y="947.2832">&#26102;&#38388;</text><rect fill="#F1F1F1" height="37.6094" rx="12.5" ry="12.5" style="stroke:#181818;stroke-width:1.5;" width="132" x="896.6963" y="922.75"/><text fill="#000000" font-family="sans-serif" font-size="14" lengthAdjust="spacing" textLength="112" x="906.6963" y="947.2832">&#36229;&#36807;&#20445;&#36136;&#26399;&#30340;&#39135;&#21697;</text><path d="M846.6963,941.5547 L856.6963,941.5547 C871.6963,941.5547 871.6963,941.5547 886.6963,941.5547 L896.6963,941.5547 " fill="none" style="stroke:#181818;stroke-width:1;"/><path d="M748.6963,826.3359 L758.6963,826.3359 C773.6963,826.3359 773.6963,941.5547 788.6963,941.5547 L798.6963,941.5547 " fill="none" style="stroke:#181818;stroke-width:1;"/><path d="M580.6963,797.5313 L590.6963,797.5313 C605.6963,797.5313 605.6963,826.3359 620.6963,826.3359 L630.6963,826.3359 " fill="none" style="stroke:#181818;stroke-width:1;"/><path d="M244.6963,624.7031 L254.6963,624.7031 C269.6963,624.7031 269.6963,797.5313 284.6963,797.5313 L294.6963,797.5313 " fill="none" style="stroke:#181818;stroke-width:1;"/><path d="M146.6963,509.4844 L156.6963,509.4844 C171.6963,509.4844 171.6963,624.7031 186.6963,624.7031 L196.6963,624.7031 " fill="none" style="stroke:#181818;stroke-width:1;"/><!--SRC=[xLXTJnDP6BwVNt4sUwCcL4123256gP1T8uPiqVl3zDYEpCnffgSrtSqcW5jAaIy5Fr2WieWYch95Lb6e_1XwPZfN_eLzPwQ5QUamzMul88JqlEzptk-F7gx66TQO8gbX1SS4uIT95UL4cA10uABp6sSfcLoCoLXb2KLkiP0j06snwG49Q8B092OJPBp-Ljf_eNzyOhoSH2s8fp_mT87dipoz0KTZRrR_TyQOt3AAczPn8LVw-lPmPDHS6E4B-TB-9fzSuq_6-Voe0p3NSjPd6oy85shEt_Sd1YwrjNxVpme8VgfC- -0GoW-A_7MEppqmNlnrWibdSlhJnIE2MqG3biC6UusfJR1Ntzap2_lrbvTNVEuxRFtp7fzynRDZu86nK30pis1V-SseNXYhEbDxJL_AwbkFBRLBMPx_26WZ-wwyir7n6sB1vwQ56ZCXh4vCw-vM0cX7pynCsn-oTNxmz3hGpMSR-jkN02iLPngRLLwTAkr-XMG0I9yibWkhVBfWBhwpALdKtKsKM1J7fVYLAuAVGn2xmv4PT_WEHsORHr1VdZl1g8XzU60yVrCUonhRt_ZJCIjEKvkDqhXODDEFlONmp-kbtHS0iUIa7td0RMECXGrz-uk7A4SEGC0CGF7nnpoTzhsqz8- -dGD-9OkUy0kej9irlnpmzK_6TbPVdR32EBPMsjrqA1u5KTgTDZwyuNCJJbFghp8yCtxK84vbb8jxpLI6-VvvuyhW-HKhhNlp-ieIu7ZwSwauxnI7JsKqjAwXw-jGlkLFQPxvwe3CnJde9A-avXyQJnORCYiMZo-LfxTE0O0sC_E85rOyDDIrTgEWJANBQsceNhkuHtd-2r_SAF_zNY-iwhdvHct_x9FvRCT37xXUFiYK3fPX3kXBkUC99mXN2SpnwYo_MZlQk-s9VKMe4AvBEA9X1Vq1MW93SeBOdn3gmU9mHAC9DHoaCjMGB4MYpE83zqyB6yRQi4R27l0AjmgEQ8Iefqcs0IvqoWUSgcAfXjM8bz4EimgD9RIOx0Lrc5MejsCkfpGQzvBsSrzVJqymM4McY2pJ-nvOXsb3XO229NKmIfIgu3wgif3qEq6NMWMBNsqR_rYwqQqUyFXmoawf6zj-UYpTq1uWYL4enQQCaI8grKWJUKNefgIIUlgnY2RLdYhA4gQgL2GgyugDQYV5IO536f81KoSLciUnJTIaewmTinbLCAEEyIe3RH9LiHpyKUo0Hc9OmnRbHwvT6w8QyokxPcKn1dbdVftMfBGWLQ3Tc5SvL6vwYRFIfv88P1I4keDvsjJoosIOa9Yx8MeLzC8K7PAbUDHxvBdkrsgx7vLOVMmyrDoYp5-JxPMOmceJNeauJDYHCYoAKjYxvcj6iP_akz2ASLT_mraa_VWUIVXqEPN118s6NHNeqsFL6xQU68rBJ4gIQwAh7KwCSooJPXqvTW5oWNr5An9iK6lsDrDJbJLe2OydXkuHqHBl5HsSXBrDj2Rb9YKA7MIBfdwIhRWt7UxZIL_RkAVtQaqj- -uG0VvqNwny5JbxE9uz7CyUZcSFnxE7u__guJXW_RFlTlzDb2HQtDg7RO7srlQEmELp8SpGBPf4RPsejQshewEhenC5GuF8OfyNplN_EeZYD05V1r0ObgKc3IMi3N9Uk86J6FsMW7sYa2vadSuDzfz7eTug4VMgIKcZgW8xHBXnfzy1eLye2yKeiy6T7Iqz4aCXee5Pw4w_S9tSnGcPmLMHXYKrqeLk3_QrN1Pkmgv9u0WeWkqUX2N4j1JmGly1]--></g></svg>