<svg xmlns="http://www.w3.org/2000/svg" xmlns:xlink="http://www.w3.org/1999/xlink" contentStyleType="text/css" height="694px" preserveAspectRatio="none" style="width:648px;height:694px;background:#FFFFFF;" version="1.1" viewBox="0 0 648 694" width="648px" zoomAndPan="magnify"><title>&#31038;&#20250;&#27861;&#30410; - &#31038;&#20250;&#31209;&#24207; - &#22952;&#23475;&#21496;&#27861;&#32618; - &#22952;&#23475;&#20316;&#35777;&#32618;&#65288;&#26500;&#25104;&#35201;&#20214;&#65289;</title><defs/><g><text fill="#000000" font-family="sans-serif" font-size="14" font-weight="bold" lengthAdjust="spacing" textLength="383.8242" x="130.936" y="34.5332">&#31038;&#20250;&#27861;&#30410; - &#31038;&#20250;&#31209;&#24207; - &#22952;&#23475;&#21496;&#27861;&#32618; - &#22952;&#23475;&#20316;&#35777;&#32618;&#65288;&#26500;&#25104;&#35201;&#20214;&#65289;</text><rect fill="#F1F1F1" height="37.6094" rx="12.5" ry="12.5" style="stroke:#181818;stroke-width:1.5;" width="150.6963" x="10" y="346.6563"/><text fill="#000000" font-family="sans-serif" font-size="14" lengthAdjust="spacing" textLength="130.6963" x="20" y="371.1895">&#22952;&#23475;&#20316;&#35777;&#32618;&#65288;P345&#65289;</text><rect fill="#F1F1F1" height="37.6094" rx="12.5" ry="12.5" style="stroke:#181818;stroke-width:1.5;" width="76" x="210.6963" y="87.4141"/><text fill="#000000" font-family="sans-serif" font-size="14" lengthAdjust="spacing" textLength="56" x="220.6963" y="111.9473">&#34892;&#20026;&#20027;&#20307;</text><rect fill="#F1F1F1" height="37.6094" rx="12.5" ry="12.5" style="stroke:#181818;stroke-width:1.5;" width="76" x="336.6963" y="58.6094"/><text fill="#000000" font-family="sans-serif" font-size="14" lengthAdjust="spacing" textLength="56" x="346.6963" y="83.1426">&#19968;&#33324;&#20027;&#20307;</text><path d="M286.6963,106.2188 L296.6963,106.2188 C311.6963,106.2188 311.6963,77.4141 326.6963,77.4141 L336.6963,77.4141 " fill="none" style="stroke:#181818;stroke-width:1;"/><rect fill="#F1F1F1" height="37.6094" rx="12.5" ry="12.5" style="stroke:#181818;stroke-width:1.5;" width="76" x="336.6963" y="116.2188"/><text fill="#000000" font-family="sans-serif" font-size="14" lengthAdjust="spacing" textLength="56" x="346.6963" y="140.752">&#37327;&#21009;&#36523;&#20221;</text><rect fill="#F1F1F1" height="37.6094" rx="12.5" ry="12.5" style="stroke:#181818;stroke-width:1.5;" width="174" x="462.6963" y="116.2188"/><text fill="#000000" font-family="sans-serif" font-size="14" lengthAdjust="spacing" textLength="154" x="472.6963" y="140.752">&#21496;&#27861;&#24037;&#20316;&#20154;&#21592;&#65292;&#20174;&#37325;&#22788;&#32602;</text><path d="M412.6963,135.0234 L422.6963,135.0234 C437.6963,135.0234 437.6963,135.0234 452.6963,135.0234 L462.6963,135.0234 " fill="none" style="stroke:#181818;stroke-width:1;"/><path d="M286.6963,106.2188 L296.6963,106.2188 C311.6963,106.2188 311.6963,135.0234 326.6963,135.0234 L336.6963,135.0234 " fill="none" style="stroke:#181818;stroke-width:1;"/><path d="M160.6963,365.4609 L170.6963,365.4609 C185.6963,365.4609 185.6963,106.2188 200.6963,106.2188 L210.6963,106.2188 " fill="none" style="stroke:#181818;stroke-width:1;"/><rect fill="#F1F1F1" height="37.6094" rx="12.5" ry="12.5" style="stroke:#181818;stroke-width:1.5;" width="76" x="210.6963" y="202.6328"/><text fill="#000000" font-family="sans-serif" font-size="14" lengthAdjust="spacing" textLength="56" x="220.6963" y="227.166">&#22952;&#23475;&#20316;&#35777;</text><rect fill="#F1F1F1" height="37.6094" rx="12.5" ry="12.5" style="stroke:#181818;stroke-width:1.5;" width="48" x="336.6963" y="173.8281"/><text fill="#000000" font-family="sans-serif" font-size="14" lengthAdjust="spacing" textLength="28" x="346.6963" y="198.3613">&#30495;&#35777;</text><rect fill="#F1F1F1" height="37.6094" rx="12.5" ry="12.5" style="stroke:#181818;stroke-width:1.5;" width="146" x="434.6963" y="173.8281"/><text fill="#000000" font-family="sans-serif" font-size="14" lengthAdjust="spacing" textLength="126" x="444.6963" y="198.3613">&#38459;&#27490;&#35777;&#20154;&#20316;&#65288;&#30495;&#65289;&#35777;</text><path d="M384.6963,192.6328 L394.6963,192.6328 C409.6963,192.6328 409.6963,192.6328 424.6963,192.6328 L434.6963,192.6328 " fill="none" style="stroke:#181818;stroke-width:1;"/><path d="M286.6963,221.4375 L296.6963,221.4375 C311.6963,221.4375 311.6963,192.6328 326.6963,192.6328 L336.6963,192.6328 " fill="none" style="stroke:#181818;stroke-width:1;"/><rect fill="#F1F1F1" height="37.6094" rx="12.5" ry="12.5" style="stroke:#181818;stroke-width:1.5;" width="48" x="336.6963" y="231.4375"/><text fill="#000000" font-family="sans-serif" font-size="14" lengthAdjust="spacing" textLength="28" x="346.6963" y="255.9707">&#20266;&#35777;</text><rect fill="#F1F1F1" height="37.6094" rx="12.5" ry="12.5" style="stroke:#181818;stroke-width:1.5;" width="118" x="434.6963" y="231.4375"/><text fill="#000000" font-family="sans-serif" font-size="14" lengthAdjust="spacing" textLength="98" x="444.6963" y="255.9707">&#25351;&#20351;&#20182;&#20154;&#20316;&#20266;&#35777;</text><path d="M384.6963,250.2422 L394.6963,250.2422 C409.6963,250.2422 409.6963,250.2422 424.6963,250.2422 L434.6963,250.2422 " fill="none" style="stroke:#181818;stroke-width:1;"/><path d="M286.6963,221.4375 L296.6963,221.4375 C311.6963,221.4375 311.6963,250.2422 326.6963,250.2422 L336.6963,250.2422 " fill="none" style="stroke:#181818;stroke-width:1;"/><path d="M160.6963,365.4609 L170.6963,365.4609 C185.6963,365.4609 185.6963,221.4375 200.6963,221.4375 L210.6963,221.4375 " fill="none" style="stroke:#181818;stroke-width:1;"/><rect fill="#F1F1F1" height="37.6094" rx="12.5" ry="12.5" style="stroke:#181818;stroke-width:1.5;" width="76" x="210.6963" y="404.2656"/><text fill="#000000" font-family="sans-serif" font-size="14" lengthAdjust="spacing" textLength="56" x="220.6963" y="428.7988">&#22952;&#23475;&#25163;&#27573;</text><rect fill="#F1F1F1" height="37.6094" rx="12.5" ry="12.5" style="stroke:#181818;stroke-width:1.5;" width="76" x="336.6963" y="346.6563"/><text fill="#000000" font-family="sans-serif" font-size="14" lengthAdjust="spacing" textLength="56" x="346.6963" y="371.1895">&#27861;&#24459;&#35268;&#23450;</text><rect fill="#F1F1F1" height="37.6094" rx="12.5" ry="12.5" style="stroke:#181818;stroke-width:1.5;" width="48" x="462.6963" y="289.0469"/><text fill="#000000" font-family="sans-serif" font-size="14" lengthAdjust="spacing" textLength="28" x="472.6963" y="313.5801">&#26292;&#21147;</text><path d="M412.6963,365.4609 L422.6963,365.4609 C437.6963,365.4609 437.6963,307.8516 452.6963,307.8516 L462.6963,307.8516 " fill="none" style="stroke:#181818;stroke-width:1;"/><rect fill="#F1F1F1" height="37.6094" rx="12.5" ry="12.5" style="stroke:#181818;stroke-width:1.5;" width="48" x="462.6963" y="346.6563"/><text fill="#000000" font-family="sans-serif" font-size="14" lengthAdjust="spacing" textLength="28" x="472.6963" y="371.1895">&#23041;&#32961;</text><path d="M412.6963,365.4609 L422.6963,365.4609 C437.6963,365.4609 437.6963,365.4609 452.6963,365.4609 L462.6963,365.4609 " fill="none" style="stroke:#181818;stroke-width:1;"/><rect fill="#F1F1F1" height="37.6094" rx="12.5" ry="12.5" style="stroke:#181818;stroke-width:1.5;" width="48" x="462.6963" y="404.2656"/><text fill="#000000" font-family="sans-serif" font-size="14" lengthAdjust="spacing" textLength="28" x="472.6963" y="428.7988">&#36159;&#20080;</text><path d="M412.6963,365.4609 L422.6963,365.4609 C437.6963,365.4609 437.6963,423.0703 452.6963,423.0703 L462.6963,423.0703 " fill="none" style="stroke:#181818;stroke-width:1;"/><path d="M286.6963,423.0703 L296.6963,423.0703 C311.6963,423.0703 311.6963,365.4609 326.6963,365.4609 L336.6963,365.4609 " fill="none" style="stroke:#181818;stroke-width:1;"/><rect fill="#F1F1F1" height="37.6094" rx="12.5" ry="12.5" style="stroke:#181818;stroke-width:1.5;" width="62" x="336.6963" y="490.6797"/><text fill="#000000" font-family="sans-serif" font-size="14" lengthAdjust="spacing" textLength="42" x="346.6963" y="515.2129">&#31561;&#26041;&#27861;</text><rect fill="#F1F1F1" height="37.6094" rx="12.5" ry="12.5" style="stroke:#181818;stroke-width:1.5;" width="48" x="448.6963" y="461.875"/><text fill="#000000" font-family="sans-serif" font-size="14" lengthAdjust="spacing" textLength="28" x="458.6963" y="486.4082">&#25945;&#21766;</text><path d="M398.6963,509.4844 L408.6963,509.4844 C423.6963,509.4844 423.6963,480.6797 438.6963,480.6797 L448.6963,480.6797 " fill="none" style="stroke:#181818;stroke-width:1;"/><rect fill="#F1F1F1" height="37.6094" rx="12.5" ry="12.5" style="stroke:#181818;stroke-width:1.5;" width="48" x="448.6963" y="519.4844"/><text fill="#000000" font-family="sans-serif" font-size="14" lengthAdjust="spacing" textLength="28" x="458.6963" y="544.0176">&#25351;&#20351;</text><path d="M398.6963,509.4844 L408.6963,509.4844 C423.6963,509.4844 423.6963,538.2891 438.6963,538.2891 L448.6963,538.2891 " fill="none" style="stroke:#181818;stroke-width:1;"/><path d="M286.6963,423.0703 L296.6963,423.0703 C311.6963,423.0703 311.6963,509.4844 326.6963,509.4844 L336.6963,509.4844 " fill="none" style="stroke:#181818;stroke-width:1;"/><path d="M160.6963,365.4609 L170.6963,365.4609 C185.6963,365.4609 185.6963,423.0703 200.6963,423.0703 L210.6963,423.0703 " fill="none" style="stroke:#181818;stroke-width:1;"/><rect fill="#F1F1F1" height="37.6094" rx="12.5" ry="12.5" style="stroke:#181818;stroke-width:1.5;" width="76" x="210.6963" y="605.8984"/><text fill="#000000" font-family="sans-serif" font-size="14" lengthAdjust="spacing" textLength="56" x="220.6963" y="630.4316">&#26082;&#36930;&#26631;&#20934;</text><rect fill="#F1F1F1" height="37.6094" rx="12.5" ry="12.5" style="stroke:#181818;stroke-width:1.5;" width="160" x="336.6963" y="577.0938"/><text fill="#000000" font-family="sans-serif" font-size="14" lengthAdjust="spacing" textLength="140" x="346.6963" y="601.627">&#23458;&#35266;&#19978;&#38459;&#27490;&#20102;&#35777;&#20154;&#20316;&#35777;</text><path d="M286.6963,624.7031 L296.6963,624.7031 C311.6963,624.7031 311.6963,595.8984 326.6963,595.8984 L336.6963,595.8984 " fill="none" style="stroke:#181818;stroke-width:1;"/><rect fill="#F1F1F1" height="37.6094" rx="12.5" ry="12.5" style="stroke:#181818;stroke-width:1.5;" width="118" x="336.6963" y="634.7031"/><text fill="#000000" font-family="sans-serif" font-size="14" lengthAdjust="spacing" textLength="98" x="346.6963" y="659.2363">&#20351;&#20182;&#20154;&#20316;&#20102;&#20266;&#35777;</text><path d="M286.6963,624.7031 L296.6963,624.7031 C311.6963,624.7031 311.6963,653.5078 326.6963,653.5078 L336.6963,653.5078 " fill="none" style="stroke:#181818;stroke-width:1;"/><path d="M160.6963,365.4609 L170.6963,365.4609 C185.6963,365.4609 185.6963,624.7031 200.6963,624.7031 L210.6963,624.7031 " fill="none" style="stroke:#181818;stroke-width:1;"/><!--SRC=[xLTRRnD757xVNp5LNn8aEnVS24Me2ZQ9MXIZ21lUnxk3FMHtnfgTDNAhIWr4SHBIfgY5qe1wYIYXjAILeAtn1VxChkqyvI_qxAxjh1tMQvxwWXLPtdE-yvqpvpQR1LDY8GtAD0CN5UK3obJTqWYAnwVwVwOiwsIgg6CcBKEFkU0Oe6EUF4v1fYYIIfsWzkFNTcElzU9U- -4sYdKVsmU_ERLTU7IUF7KENpYxLHVGVDQNsCr7dJ_NG7BSs6pzkDxQ_ARpPCsk_tFSs5AKCsy1hPnDVEGg4NpEeCulEtQrPbVhTlDRJ-IBxUgNdSq_JecFAhlEvjrExNUxtkoBVPKVcVFlh-3BhjMSkm-E6pjs_UkZobVEu_LsSw_hC1XGWBdzwAUWeElkGRtrV1_aG0WM43p08FP1KxlnxBHfQwTYDz_OzVk-QG3J2w6rTQTr-7U0nmt_zPtEmRfpk3VCjlVIsNuuVEAdQvtRmtuxBz_Oh_uA7kpvLkl-A-0UfhptW_FTnbkZxeRP-dx_QErMw-UAKza843g7-vs3MtPrsy-ENTle9sWeBy7prpQwAL0M2BHhhsKN1ZlulDUL7ojTmKMAym8Rw7DWZUTqYtY_44fYTJKlkCMq5DUvG3hD5wIh1-qNBbR3ObKGBGJUrVR0UK486yNi0GBeSWIutCDoWLa-B6XVsOCMBL7Kmw2-iWSDFrZWK8AROMmVBYqbawbK3rackivlXc1zfGTLuWQcB5iWHezuYJEPePyHT7PQSVN4A1QmISteN0RHqo5mSxNibJI8dHsToo0q2IAr06quLZ0qpxWWOzGLeMNAoB3yX69CjoEfN3B6k4gO3CiDyuhYby0NvNJ03B72yFYngOBsgtQYbjp0all1CmdUA6TOJxqhTaMG8XRObRoBsOKS5pAgxSRbaXBgBgCcRKos53TWt6HOEtGjm-ZSyZ6IXue2QJ2PexPML2KrGeh1WHXqi0XRDATJin2-yWBsWzvk5gWSpas8cyjSHdloJgMMCHlZL2hMYEmxmwfAjV2U7rZ5KSpNOHJDm7p3iqhI-0Qn8gQSwn22u5gW0oDch6VX-IboaqfQ8XVKm3YSMkTO9-CUvEG8K0iSIMrGk47TtJzEJtMlGPVSj78tYEhIXsK7b-3U9c9CtXBbC44UDOzYTlC-ThfFDltWu8wUrO5UZhn35FWwFzLz5Nd_Slp-vVX_UZbUSVzfkvfUHYKYJ7VcP-ApqxE9-Bc939ReCY-XcJaqFJEVICmdvb0gaqMkUbAPI7-QHIQtOEKX3HQ2e3dBdP99vH8kONJ5Wfano3nodoQowKcKMUm9qI8hKS6P0NEYNBgMza7e4oupHIuzy5mYbgGIPOY0iD2rj7AHNCUMBi5KvHfb-NbqDRiKEwSimpnPE0-EO8EbOD2aA8Ckyny0]--></g></svg>