<svg xmlns="http://www.w3.org/2000/svg" xmlns:xlink="http://www.w3.org/1999/xlink" contentStyleType="text/css" height="1217px" preserveAspectRatio="none" style="width:1037px;height:1217px;background:#FFFFFF;" version="1.1" viewBox="0 0 1037 1217" width="1037px" zoomAndPan="magnify"><title>&#31038;&#20250;&#27861;&#30410; - &#20844;&#20849;&#23433;&#20840; - &#20132;&#36890;&#22411;&#29359;&#32618; - &#21361;&#38505;&#39550;&#39542;&#32618;</title><defs/><g><text fill="#000000" font-family="sans-serif" font-size="14" font-weight="bold" lengthAdjust="spacing" textLength="297.1992" x="368.6934" y="34.5332">&#31038;&#20250;&#27861;&#30410; - &#20844;&#20849;&#23433;&#20840; - &#20132;&#36890;&#22411;&#29359;&#32618; - &#21361;&#38505;&#39550;&#39542;&#32618;</text><rect fill="#F1F1F1" height="37.6094" rx="12.5" ry="12.5" style="stroke:#181818;stroke-width:1.5;" width="150.6963" x="10" y="608.4688"/><text fill="#000000" font-family="sans-serif" font-size="14" lengthAdjust="spacing" textLength="130.6963" x="20" y="633.002">&#21361;&#38505;&#39550;&#39542;&#32618;&#65288;P301&#65289;</text><rect fill="#F1F1F1" height="37.6094" rx="12.5" ry="12.5" style="stroke:#181818;stroke-width:1.5;" width="48" x="210.6963" y="461.875"/><text fill="#000000" font-family="sans-serif" font-size="14" lengthAdjust="spacing" textLength="28" x="220.6963" y="486.4082">&#23458;&#35266;</text><rect fill="#F1F1F1" height="37.6094" rx="12.5" ry="12.5" style="stroke:#181818;stroke-width:1.5;" width="48" x="308.6963" y="116.2188"/><text fill="#000000" font-family="sans-serif" font-size="14" lengthAdjust="spacing" textLength="28" x="318.6963" y="140.752">&#36947;&#36335;</text><rect fill="#F1F1F1" height="37.6094" rx="12.5" ry="12.5" style="stroke:#181818;stroke-width:1.5;" width="76" x="406.6963" y="58.6094"/><text fill="#000000" font-family="sans-serif" font-size="14" lengthAdjust="spacing" textLength="56" x="416.6963" y="83.1426">&#21028;&#26029;&#26631;&#20934;</text><rect fill="#F1F1F1" height="37.6094" rx="12.5" ry="12.5" style="stroke:#181818;stroke-width:1.5;" width="160" x="532.6963" y="58.6094"/><text fill="#000000" font-family="sans-serif" font-size="14" lengthAdjust="spacing" textLength="140" x="542.6963" y="83.1426">&#26159;&#21542;&#20801;&#35768;&#31038;&#20250;&#36710;&#36742;&#36890;&#34892;</text><path d="M482.6963,77.4141 L492.6963,77.4141 C507.6963,77.4141 507.6963,77.4141 522.6963,77.4141 L532.6963,77.4141 " fill="none" style="stroke:#181818;stroke-width:1;"/><path d="M356.6963,135.0234 L366.6963,135.0234 C381.6963,135.0234 381.6963,77.4141 396.6963,77.4141 L406.6963,77.4141 " fill="none" style="stroke:#181818;stroke-width:1;"/><rect fill="#F1F1F1" height="37.6094" rx="12.5" ry="12.5" style="stroke:#181818;stroke-width:1.5;" width="48" x="406.6963" y="145.0234"/><text fill="#000000" font-family="sans-serif" font-size="14" lengthAdjust="spacing" textLength="28" x="416.6963" y="169.5566">&#19981;&#26159;</text><rect fill="#F1F1F1" height="37.6094" rx="12.5" ry="12.5" style="stroke:#181818;stroke-width:1.5;" width="174" x="504.6963" y="116.2188"/><text fill="#000000" font-family="sans-serif" font-size="14" lengthAdjust="spacing" textLength="154" x="514.6963" y="140.752">&#21482;&#20801;&#35768;&#21333;&#20301;&#20869;&#37096;&#30340;&#36710;&#36890;&#34892;</text><path d="M454.6963,163.8281 L464.6963,163.8281 C479.6963,163.8281 479.6963,135.0234 494.6963,135.0234 L504.6963,135.0234 " fill="none" style="stroke:#181818;stroke-width:1;"/><rect fill="#F1F1F1" height="37.6094" rx="12.5" ry="12.5" style="stroke:#181818;stroke-width:1.5;" width="174" x="504.6963" y="173.8281"/><text fill="#000000" font-family="sans-serif" font-size="14" lengthAdjust="spacing" textLength="154" x="514.6963" y="198.3613">&#21482;&#20801;&#35768;&#29305;&#23450;&#26469;&#35775;&#30340;&#36710;&#36890;&#34892;</text><path d="M454.6963,163.8281 L464.6963,163.8281 C479.6963,163.8281 479.6963,192.6328 494.6963,192.6328 L504.6963,192.6328 " fill="none" style="stroke:#181818;stroke-width:1;"/><path d="M356.6963,135.0234 L366.6963,135.0234 C381.6963,135.0234 381.6963,163.8281 396.6963,163.8281 L406.6963,163.8281 " fill="none" style="stroke:#181818;stroke-width:1;"/><path d="M258.6963,480.6797 L268.6963,480.6797 C283.6963,480.6797 283.6963,135.0234 298.6963,135.0234 L308.6963,135.0234 " fill="none" style="stroke:#181818;stroke-width:1;"/><rect fill="#F1F1F1" height="37.6094" rx="12.5" ry="12.5" style="stroke:#181818;stroke-width:1.5;" width="48" x="308.6963" y="548.2891"/><text fill="#000000" font-family="sans-serif" font-size="14" lengthAdjust="spacing" textLength="28" x="318.6963" y="572.8223">&#37257;&#39550;</text><rect fill="#F1F1F1" height="37.6094" rx="12.5" ry="12.5" style="stroke:#181818;stroke-width:1.5;" width="132" x="406.6963" y="375.4609"/><text fill="#000000" font-family="sans-serif" font-size="14" lengthAdjust="spacing" textLength="112" x="416.6963" y="399.9941">&#31532;&#19968;&#31181;&#24773;&#24418;&#65292;&#26377;&#32618;</text><rect fill="#F1F1F1" height="37.6094" rx="12.5" ry="12.5" style="stroke:#181818;stroke-width:1.5;" width="109.4619" x="588.6963" y="231.4375"/><text fill="#000000" font-family="sans-serif" font-size="14" lengthAdjust="spacing" textLength="89.4619" x="598.6963" y="255.9707">80 &#27627;&#20811;&#30340;&#37257;&#39550;</text><path d="M538.6963,394.2656 L548.6963,394.2656 C563.6963,394.2656 563.6963,250.2422 578.6963,250.2422 L588.6963,250.2422 " fill="none" style="stroke:#181818;stroke-width:1;"/><rect fill="#F1F1F1" height="37.6094" rx="12.5" ry="12.5" style="stroke:#181818;stroke-width:1.5;" width="76" x="588.6963" y="404.2656"/><text fill="#000000" font-family="sans-serif" font-size="14" lengthAdjust="spacing" textLength="56" x="598.6963" y="428.7988">&#20005;&#37325;&#24773;&#33410;</text><rect fill="#F1F1F1" height="37.6094" rx="12.5" ry="12.5" style="stroke:#181818;stroke-width:1.5;" width="48" x="714.6963" y="289.0469"/><text fill="#000000" font-family="sans-serif" font-size="14" lengthAdjust="spacing" textLength="28" x="724.6963" y="313.5801">&#27602;&#39550;</text><path d="M664.6963,423.0703 L674.6963,423.0703 C689.6963,423.0703 689.6963,307.8516 704.6963,307.8516 L714.6963,307.8516 " fill="none" style="stroke:#181818;stroke-width:1;"/><rect fill="#F1F1F1" height="37.6094" rx="12.5" ry="12.5" style="stroke:#181818;stroke-width:1.5;" width="304.6621" x="714.6963" y="346.6563"/><text fill="#000000" font-family="sans-serif" font-size="14" lengthAdjust="spacing" textLength="284.6621" x="724.6963" y="371.1895">&#20005;&#37325;&#36229;&#21592;&#12289;&#36229;&#36733;&#12289;&#36229;&#36895;&#39550;&#39542;&#65288;&#36229;-&#20154;&#12289;&#37325;&#12289;&#36895;&#65289;</text><path d="M664.6963,423.0703 L674.6963,423.0703 C689.6963,423.0703 689.6963,365.4609 704.6963,365.4609 L714.6963,365.4609 " fill="none" style="stroke:#181818;stroke-width:1;"/><rect fill="#F1F1F1" height="37.6094" rx="12.5" ry="12.5" style="stroke:#181818;stroke-width:1.5;" width="188" x="714.6963" y="404.2656"/><text fill="#000000" font-family="sans-serif" font-size="14" lengthAdjust="spacing" textLength="168" x="724.6963" y="428.7988">&#20174;&#20107;&#23458;&#36816;&#19988;&#36733;&#26377;&#20056;&#23458;&#65288;&#20154;&#65289;</text><path d="M664.6963,423.0703 L674.6963,423.0703 C689.6963,423.0703 689.6963,423.0703 704.6963,423.0703 L714.6963,423.0703 " fill="none" style="stroke:#181818;stroke-width:1;"/><rect fill="#F1F1F1" height="37.6094" rx="12.5" ry="12.5" style="stroke:#181818;stroke-width:1.5;" width="188" x="714.6963" y="461.875"/><text fill="#000000" font-family="sans-serif" font-size="14" lengthAdjust="spacing" textLength="168" x="724.6963" y="486.4082">&#22312;&#39640;&#36895;&#20844;&#36335;&#19978;&#39550;&#39542;&#65288;&#36895;&#24230;&#65289;</text><path d="M664.6963,423.0703 L674.6963,423.0703 C689.6963,423.0703 689.6963,480.6797 704.6963,480.6797 L714.6963,480.6797 " fill="none" style="stroke:#181818;stroke-width:1;"/><rect fill="#F1F1F1" height="37.6094" rx="12.5" ry="12.5" style="stroke:#181818;stroke-width:1.5;" width="188" x="714.6963" y="519.4844"/><text fill="#000000" font-family="sans-serif" font-size="14" lengthAdjust="spacing" textLength="168" x="724.6963" y="544.0176">&#39550;&#39542;&#37325;&#22411;&#36733;&#36135;&#27773;&#36710;&#65288;&#37325;&#37327;&#65289;</text><path d="M664.6963,423.0703 L674.6963,423.0703 C689.6963,423.0703 689.6963,538.2891 704.6963,538.2891 L714.6963,538.2891 " fill="none" style="stroke:#181818;stroke-width:1;"/><path d="M538.6963,394.2656 L548.6963,394.2656 C563.6963,394.2656 563.6963,423.0703 578.6963,423.0703 L588.6963,423.0703 " fill="none" style="stroke:#181818;stroke-width:1;"/><path d="M356.6963,567.0938 L366.6963,567.0938 C381.6963,567.0938 381.6963,394.2656 396.6963,394.2656 L406.6963,394.2656 " fill="none" style="stroke:#181818;stroke-width:1;"/><rect fill="#F1F1F1" height="37.6094" rx="12.5" ry="12.5" style="stroke:#181818;stroke-width:1.5;" width="132" x="406.6963" y="605.8984"/><text fill="#000000" font-family="sans-serif" font-size="14" lengthAdjust="spacing" textLength="112" x="416.6963" y="630.4316">&#31532;&#20108;&#31181;&#24773;&#24418;&#65292;&#26080;&#32618;</text><rect fill="#F1F1F1" height="37.6094" rx="12.5" ry="12.5" style="stroke:#181818;stroke-width:1.5;" width="138.665" x="588.6963" y="577.0938"/><text fill="#000000" font-family="sans-serif" font-size="14" lengthAdjust="spacing" textLength="118.665" x="598.6963" y="601.627">80 &#27627;&#20811; ~ 150 &#27627;&#20811;</text><path d="M538.6963,624.7031 L548.6963,624.7031 C563.6963,624.7031 563.6963,595.8984 578.6963,595.8984 L588.6963,595.8984 " fill="none" style="stroke:#181818;stroke-width:1;"/><rect fill="#F1F1F1" height="37.6094" rx="12.5" ry="12.5" style="stroke:#181818;stroke-width:1.5;" width="90" x="588.6963" y="634.7031"/><text fill="#000000" font-family="sans-serif" font-size="14" lengthAdjust="spacing" textLength="70" x="598.6963" y="659.2363">&#26080;&#20005;&#37325;&#24773;&#33410;</text><path d="M538.6963,624.7031 L548.6963,624.7031 C563.6963,624.7031 563.6963,653.5078 578.6963,653.5078 L588.6963,653.5078 " fill="none" style="stroke:#181818;stroke-width:1;"/><path d="M356.6963,567.0938 L366.6963,567.0938 C381.6963,567.0938 381.6963,624.7031 396.6963,624.7031 L406.6963,624.7031 " fill="none" style="stroke:#181818;stroke-width:1;"/><rect fill="#F1F1F1" height="37.6094" rx="12.5" ry="12.5" style="stroke:#181818;stroke-width:1.5;" width="132" x="406.6963" y="721.1172"/><text fill="#000000" font-family="sans-serif" font-size="14" lengthAdjust="spacing" textLength="112" x="416.6963" y="745.6504">&#31532;&#19977;&#31181;&#24773;&#24418;&#65292;&#26377;&#32618;</text><rect fill="#F1F1F1" height="37.6094" rx="12.5" ry="12.5" style="stroke:#181818;stroke-width:1.5;" width="159.248" x="588.6963" y="692.3125"/><text fill="#000000" font-family="sans-serif" font-size="14" lengthAdjust="spacing" textLength="139.248" x="598.6963" y="716.8457">150 &#27627;&#20811;&#21450;&#20197;&#19978;&#30340;&#37257;&#39550;</text><path d="M538.6963,739.9219 L548.6963,739.9219 C563.6963,739.9219 563.6963,711.1172 578.6963,711.1172 L588.6963,711.1172 " fill="none" style="stroke:#181818;stroke-width:1;"/><rect fill="#F1F1F1" height="37.6094" rx="12.5" ry="12.5" style="stroke:#181818;stroke-width:1.5;" width="90" x="588.6963" y="749.9219"/><text fill="#000000" font-family="sans-serif" font-size="14" lengthAdjust="spacing" textLength="70" x="598.6963" y="774.4551">&#26080;&#20005;&#37325;&#24773;&#33410;</text><path d="M538.6963,739.9219 L548.6963,739.9219 C563.6963,739.9219 563.6963,768.7266 578.6963,768.7266 L588.6963,768.7266 " fill="none" style="stroke:#181818;stroke-width:1;"/><path d="M356.6963,567.0938 L366.6963,567.0938 C381.6963,567.0938 381.6963,739.9219 396.6963,739.9219 L406.6963,739.9219 " fill="none" style="stroke:#181818;stroke-width:1;"/><rect fill="#F1F1F1" height="37.6094" rx="12.5" ry="12.5" style="stroke:#181818;stroke-width:1.5;" width="132" x="406.6963" y="836.3359"/><text fill="#000000" font-family="sans-serif" font-size="14" lengthAdjust="spacing" textLength="112" x="416.6963" y="860.8691">&#31532;&#22235;&#31181;&#24773;&#24418;&#65292;&#26080;&#32618;</text><rect fill="#F1F1F1" height="37.6094" rx="12.5" ry="12.5" style="stroke:#181818;stroke-width:1.5;" width="109.4619" x="588.6963" y="807.5313"/><text fill="#000000" font-family="sans-serif" font-size="14" lengthAdjust="spacing" textLength="89.4619" x="598.6963" y="832.0645">80 &#27627;&#20811;&#30340;&#37257;&#39550;</text><path d="M538.6963,855.1406 L548.6963,855.1406 C563.6963,855.1406 563.6963,826.3359 578.6963,826.3359 L588.6963,826.3359 " fill="none" style="stroke:#181818;stroke-width:1;"/><rect fill="#F1F1F1" height="37.6094" rx="12.5" ry="12.5" style="stroke:#181818;stroke-width:1.5;" width="76" x="588.6963" y="865.1406"/><text fill="#000000" font-family="sans-serif" font-size="14" lengthAdjust="spacing" textLength="56" x="598.6963" y="889.6738">&#36739;&#36731;&#24773;&#33410;</text><path d="M538.6963,855.1406 L548.6963,855.1406 C563.6963,855.1406 563.6963,883.9453 578.6963,883.9453 L588.6963,883.9453 " fill="none" style="stroke:#181818;stroke-width:1;"/><path d="M356.6963,567.0938 L366.6963,567.0938 C381.6963,567.0938 381.6963,855.1406 396.6963,855.1406 L406.6963,855.1406 " fill="none" style="stroke:#181818;stroke-width:1;"/><path d="M258.6963,480.6797 L268.6963,480.6797 C283.6963,480.6797 283.6963,567.0938 298.6963,567.0938 L308.6963,567.0938 " fill="none" style="stroke:#181818;stroke-width:1;"/><path d="M160.6963,627.2734 L170.6963,627.2734 C185.6963,627.2734 185.6963,480.6797 200.6963,480.6797 L210.6963,480.6797 " fill="none" style="stroke:#181818;stroke-width:1;"/><rect fill="#F1F1F1" height="37.6094" rx="12.5" ry="12.5" style="stroke:#181818;stroke-width:1.5;" width="48" x="210.6963" y="954.125"/><text fill="#000000" font-family="sans-serif" font-size="14" lengthAdjust="spacing" textLength="28" x="220.6963" y="978.6582">&#20027;&#35266;</text><rect fill="#F1F1F1" height="37.6094" rx="12.5" ry="12.5" style="stroke:#181818;stroke-width:1.5;" width="76" x="308.6963" y="954.125"/><text fill="#000000" font-family="sans-serif" font-size="14" lengthAdjust="spacing" textLength="56" x="318.6963" y="978.6582">&#25925;&#24847;&#29359;&#32618;</text><rect fill="#F1F1F1" height="37.6094" rx="12.5" ry="12.5" style="stroke:#181818;stroke-width:1.5;" width="300" x="434.6963" y="922.75"/><text fill="#000000" font-family="sans-serif" font-size="14" lengthAdjust="spacing" textLength="280" x="444.6963" y="947.2832">&#31532;&#19968;&#65292;&#20027;&#35266;&#19978;&#65292;&#35748;&#35782;&#21040;&#33258;&#24049;&#22788;&#20110;&#37202;&#31934;&#40635;&#30201;&#29366;&#24577;</text><path d="M384.6963,972.9297 L394.6963,972.9297 C409.6963,972.9297 409.6963,941.5547 424.6963,941.5547 L434.6963,941.5547 " fill="none" style="stroke:#181818;stroke-width:1;"/><rect fill="#F1F1F1" height="37.6094" rx="12.5" ry="12.5" style="stroke:#181818;stroke-width:1.5;" width="230" x="434.6963" y="982.9297"/><text fill="#000000" font-family="sans-serif" font-size="14" lengthAdjust="spacing" textLength="210" x="444.6963" y="1007.4629">&#31532;&#20108;&#65292;&#20027;&#35266;&#19978;&#65292;&#26377;&#37257;&#37202;&#39550;&#36710;&#30340;&#24847;&#22270;</text><rect fill="#F1F1F1" height="42.75" rx="12.5" ry="12.5" style="stroke:#181818;stroke-width:1.5;" width="310.8896" x="714.6963" y="980.3594"/><text fill="#000000" font-family="sans-serif" font-size="14" lengthAdjust="spacing" textLength="266" x="724.6963" y="1010.0332">&#21917;&#37202;&#65292;&#22806;&#36793;&#20919;&#65292;&#25171;&#24320;&#21457;&#21160;&#26426;&#65292;&#21462;&#26262;&#65292;&#31561;&#32769;&#23110;</text><path d="M1007.1469,1000.8605 L1014.2839,993.724 C1014.8533,993.1547 1014.8533,992.2313 1014.2839,991.662 C1013.714,991.092 1012.7912,991.092 1012.2219,991.662 L1005.0848,998.7985 L997.9483,991.662 C997.3789,991.092 996.4549,991.092 995.8862,991.662 C995.3163,992.2313 995.3163,993.1547 995.8862,993.724 L1003.0227,1000.8605 L995.8699,1008.014 C995.2999,1008.5839 995.2999,1009.5067 995.8699,1010.076 C996.1545,1010.3607 996.5279,1010.503 996.9012,1010.503 C997.2745,1010.503 997.6479,1010.3607 997.9325,1010.076 L1005.0854,1002.9226 L1012.2219,1010.0591 C1012.5065,1010.3438 1012.8799,1010.4861 1013.2532,1010.4861 C1013.6265,1010.4861 1013.9993,1010.3438 1014.2845,1010.0591 C1014.8539,1009.4892 1014.8539,1008.5664 1014.2845,1007.997 L1007.1469,1000.8605 " fill="#FE0000" style="stroke:;stroke-width:0;stroke-dasharray:;"/><path d="M664.6963,1001.7344 L674.6963,1001.7344 C689.6963,1001.7344 689.6963,1001.7344 704.6963,1001.7344 L714.6963,1001.7344 " fill="none" style="stroke:#181818;stroke-width:1;"/><path d="M384.6963,972.9297 L394.6963,972.9297 C409.6963,972.9297 409.6963,1001.7344 424.6963,1001.7344 L434.6963,1001.7344 " fill="none" style="stroke:#181818;stroke-width:1;"/><path d="M258.6963,972.9297 L268.6963,972.9297 C283.6963,972.9297 283.6963,972.9297 298.6963,972.9297 L308.6963,972.9297 " fill="none" style="stroke:#181818;stroke-width:1;"/><path d="M160.6963,627.2734 L170.6963,627.2734 C185.6963,627.2734 185.6963,972.9297 200.6963,972.9297 L210.6963,972.9297 " fill="none" style="stroke:#181818;stroke-width:1;"/><rect fill="#F1F1F1" height="37.6094" rx="12.5" ry="12.5" style="stroke:#181818;stroke-width:1.5;" width="76" x="210.6963" y="1100.7188"/><text fill="#000000" font-family="sans-serif" font-size="14" lengthAdjust="spacing" textLength="56" x="220.6963" y="1125.252">&#20849;&#21516;&#29359;&#32618;</text><rect fill="#F1F1F1" height="37.6094" rx="12.5" ry="12.5" style="stroke:#181818;stroke-width:1.5;" width="62" x="336.6963" y="1043.1094"/><text fill="#000000" font-family="sans-serif" font-size="14" lengthAdjust="spacing" textLength="42" x="346.6963" y="1067.6426">&#25945;&#21766;&#29359;</text><path d="M286.6963,1119.5234 L296.6963,1119.5234 C311.6963,1119.5234 311.6963,1061.9141 326.6963,1061.9141 L336.6963,1061.9141 " fill="none" style="stroke:#181818;stroke-width:1;"/><rect fill="#F1F1F1" height="37.6094" rx="12.5" ry="12.5" style="stroke:#181818;stroke-width:1.5;" width="76" x="336.6963" y="1100.7188"/><text fill="#000000" font-family="sans-serif" font-size="14" lengthAdjust="spacing" textLength="56" x="346.6963" y="1125.252">&#38388;&#25509;&#27491;&#29359;</text><path d="M286.6963,1119.5234 L296.6963,1119.5234 C311.6963,1119.5234 311.6963,1119.5234 326.6963,1119.5234 L336.6963,1119.5234 " fill="none" style="stroke:#181818;stroke-width:1;"/><rect fill="#F1F1F1" height="37.6094" rx="12.5" ry="12.5" style="stroke:#181818;stroke-width:1.5;" width="62" x="336.6963" y="1158.3281"/><text fill="#000000" font-family="sans-serif" font-size="14" lengthAdjust="spacing" textLength="42" x="346.6963" y="1182.8613">&#24110;&#21161;&#29359;</text><path d="M286.6963,1119.5234 L296.6963,1119.5234 C311.6963,1119.5234 311.6963,1177.1328 326.6963,1177.1328 L336.6963,1177.1328 " fill="none" style="stroke:#181818;stroke-width:1;"/><path d="M160.6963,627.2734 L170.6963,627.2734 C185.6963,627.2734 185.6963,1119.5234 200.6963,1119.5234 L210.6963,1119.5234 " fill="none" style="stroke:#181818;stroke-width:1;"/><!--SRC=[xLZTKnDN57_Vl-9sVC7E989Inc4SHuaohGCEqw3lbyqrh6psPZOtiMcddI0cc0ZY9o1WfHOK_0YbTVW81F-OvcusJ_mBFJURXKtCPkDR7t0SPlUSt_cTS-xvk2oNOWphBA9eeGYEIj8tYYQhyH11VlyPwt-C9LLo9gfYZSKZgayWVG3rLUL-1MIIn1Ic4bHUEIZjBnZ_F2ylvf0FyVG7djxa-InFhy5hgR1IIItmtn-KSnlbuZi1cDwil5Ylh1zKrhT08adVDeeEz-yFdUliEjpFIWZ-WJx_sdnxj_fY2IhZJytjZID13NL_nPZzQ2nFyibCdSfI6_CR_D4RdXutypjMp6RnZNcGWV3CFwOQk4exqu1lmi9dtbaKVFfvgJZDC-dAn5fvuHvmDI5gi2bdTtb-mNYvQkO_DxM1p39PE8U6QCeVFfHsKkMtqyP4cXTV7-vF6KjPSNPV-ZhVYOoDzppz0FYRSDdPhLOc1PcPk_k5kdPQ6q-QsJhjpQqqVpp_RseS7inYqNgef5vPTOGYmgklL2Y00j3YP-gLNTCcd7iFIuK7ejAV7vLsdW4Xv5ZQdGS9K06DkobVMgkydmTsw3reYz9ExYW48IoySJUrW10UT2YuD3-zDJQBK1TXEZbTcPnfDBMAKPYgAyRSiaSnq6-ewplxfLblpYsxrgHM_cnRvJ_smcTofRrLE8jMZU3fboykVbschRoP1nDcSS_XIdJINlra6y_JnhqPQraqdGA8mZA2rE3PpA-O6nb-_ozpyXtVtkGhzqg5XvNqa_BV1vN2NdbkjvpRCbBZJMlOG0M7Aa9FYyQ75e1C81A-s2mJFliIS633LsRDWrsUsHRssQTyFyLd7lFSch5K4DgPMMDX5XxA7xDcQfolPz25Kpe9zVxKUz5URR0h7qqrv2kEuGL_bW6nSpNCVJ8UhXeV_wmNyvqypwqBcIHT8h3GxQL-gNx7NwYkxejIJN15mM4THz0lGEKVKUEa-eHG7vR7mZgDQw40LQcEL2KyoeGUjByAR0ZhOv232xocjS5XdH2j5NCLu40dFS196qjrh8NTWhQKDZGQrwEg6zHIsb3tn1n9wJJcndQglx-lBn2maKcYglIE2zPILg6IFu8LRNYKH6pYVggneF8pGUSw9Q4daUWeZYanxxDqeZjTuB6nPBMaJkpPrcVfXFQ1I1w5tcih62MiKPsqKLU41XIDDCgFATfqsv9Aa6aQbOd6tCv6gnR5Ae4b6b41qy0AmsF59klAKTMErOn6CADMy1e3RmhLi1huMkoGJg9OnqBoDMQNHwZElDgkNIx6eExCQzBQP0lG28mRSsk7cgKRdIYVHi9GKI1r7cQhhULLoH0XKUT0r3ku2bjqH5LYe-uhps5Vx-tEgC8QpyR5pNNAl3rLivAJM6iZAnc723joXcLP2RdtVDqgzcA-1QCOSymtlCja4DycSOyffog4eDEGemCzPiosgFg9qfZ2b0IvB3l6uOjrZbNIRYB7AK0ji2TrH84RLEp-TdggTWqAybXyv3QH1RtRwU04tDj4RvCteL2Oe2erzM8MvzxsSHzl-lh1RJshTRtiUOT8yEF2cTgl8YTVa2TVa2TVa2TVa2TVaF_FByWXyUU_6uC3A47qcBWOk_ndEyzs-yzt1353rsa2TVMWpgxUxkxUxXuK20uZeJujTGp-C8nYD0w_5w0Gt9gwCX8NLybfwHfEOFHZ72wM2Eb5ugrZUF0q2bwrXUYgbb1qgaNWCf6ktHoqGEXxoe9HoghWdcvVdy9GaEWG5hevA5qXjt1SPM0gqv2YXNlHZU5-ttbf02wTE0w38xZc0t0RCJq9kk1_]--></g></svg>