<svg xmlns="http://www.w3.org/2000/svg" xmlns:xlink="http://www.w3.org/1999/xlink" contentStyleType="text/css" height="867px" preserveAspectRatio="none" style="width:1306px;height:867px;background:#FFFFFF;" version="1.1" viewBox="0 0 1306 867" width="1306px" zoomAndPan="magnify"><title>&#31038;&#20250;&#27861;&#30410; - &#31038;&#20250;&#31209;&#24207; - &#22952;&#23475;&#21496;&#27861;&#32618; - &#20266;&#35777;&#32618;&#65288;&#32618;&#21517;&#20851;&#31995;&#65289;</title><defs/><g><text fill="#000000" font-family="sans-serif" font-size="14" font-weight="bold" lengthAdjust="spacing" textLength="354.9492" x="474.3735" y="34.5332">&#31038;&#20250;&#27861;&#30410; - &#31038;&#20250;&#31209;&#24207; - &#22952;&#23475;&#21496;&#27861;&#32618; - &#20266;&#35777;&#32618;&#65288;&#32618;&#21517;&#20851;&#31995;&#65289;</text><rect fill="#F1F1F1" height="37.6094" rx="12.5" ry="12.5" style="stroke:#181818;stroke-width:1.5;" width="122.6963" x="10" y="433.0703"/><text fill="#000000" font-family="sans-serif" font-size="14" lengthAdjust="spacing" textLength="102.6963" x="20" y="457.6035">&#20266;&#35777;&#32618;&#65288;P345&#65289;</text><rect fill="#F1F1F1" height="37.6094" rx="12.5" ry="12.5" style="stroke:#181818;stroke-width:1.5;" width="48" x="182.6963" y="433.0703"/><text fill="#000000" font-family="sans-serif" font-size="14" lengthAdjust="spacing" textLength="28" x="192.6963" y="457.6035">&#21306;&#20998;</text><rect fill="#F1F1F1" height="37.6094" rx="12.5" ry="12.5" style="stroke:#181818;stroke-width:1.5;" width="202" x="280.6963" y="202.6328"/><text fill="#000000" font-family="sans-serif" font-size="14" lengthAdjust="spacing" textLength="182" x="290.6963" y="227.166">&#12302;&#20266;&#35777;&#32618;&#12303;&#21644;&#12302;&#35820;&#21578;&#38519;&#23475;&#32618;&#12303;</text><rect fill="#F1F1F1" height="37.6094" rx="12.5" ry="12.5" style="stroke:#181818;stroke-width:1.5;" width="62" x="532.6963" y="116.2188"/><text fill="#000000" font-family="sans-serif" font-size="14" lengthAdjust="spacing" textLength="42" x="542.6963" y="140.752">&#20266;&#35777;&#32618;</text><rect fill="#F1F1F1" height="37.6094" rx="12.5" ry="12.5" style="stroke:#181818;stroke-width:1.5;" width="48" x="644.6963" y="87.4141"/><text fill="#000000" font-family="sans-serif" font-size="14" lengthAdjust="spacing" textLength="28" x="654.6963" y="111.9473">&#26102;&#26426;</text><rect fill="#F1F1F1" height="37.6094" rx="12.5" ry="12.5" style="stroke:#181818;stroke-width:1.5;" width="62" x="742.6963" y="58.6094"/><text fill="#000000" font-family="sans-serif" font-size="14" lengthAdjust="spacing" textLength="42" x="752.6963" y="83.1426">&#24050;&#26377;&#32618;</text><path d="M692.6963,106.2188 L702.6963,106.2188 C717.6963,106.2188 717.6963,77.4141 732.6963,77.4141 L742.6963,77.4141 " fill="none" style="stroke:#181818;stroke-width:1;"/><rect fill="#F1F1F1" height="37.6094" rx="12.5" ry="12.5" style="stroke:#181818;stroke-width:1.5;" width="230" x="742.6963" y="116.2188"/><text fill="#000000" font-family="sans-serif" font-size="14" lengthAdjust="spacing" textLength="210" x="752.6963" y="140.752">&#36890;&#24120;&#21457;&#29983;&#22312;&#24050;&#32463;&#21551;&#21160;&#30340;&#21496;&#27861;&#31243;&#24207;&#20013;</text><path d="M692.6963,106.2188 L702.6963,106.2188 C717.6963,106.2188 717.6963,135.0234 732.6963,135.0234 L742.6963,135.0234 " fill="none" style="stroke:#181818;stroke-width:1;"/><path d="M594.6963,135.0234 L604.6963,135.0234 C619.6963,135.0234 619.6963,106.2188 634.6963,106.2188 L644.6963,106.2188 " fill="none" style="stroke:#181818;stroke-width:1;"/><rect fill="#F1F1F1" height="37.6094" rx="12.5" ry="12.5" style="stroke:#181818;stroke-width:1.5;" width="48" x="644.6963" y="173.8281"/><text fill="#000000" font-family="sans-serif" font-size="14" lengthAdjust="spacing" textLength="28" x="654.6963" y="198.3613">&#30446;&#30340;</text><rect fill="#F1F1F1" height="37.6094" rx="12.5" ry="12.5" style="stroke:#181818;stroke-width:1.5;" width="272" x="742.6963" y="173.8281"/><text fill="#000000" font-family="sans-serif" font-size="14" lengthAdjust="spacing" textLength="252" x="752.6963" y="198.3613">&#32618;&#29359;&#36890;&#36807;&#34394;&#20551;&#35777;&#35328;&#25110;&#35777;&#25454;&#24433;&#21709;&#26696;&#20214;&#30340;&#23457;&#29702;</text><path d="M692.6963,192.6328 L702.6963,192.6328 C717.6963,192.6328 717.6963,192.6328 732.6963,192.6328 L742.6963,192.6328 " fill="none" style="stroke:#181818;stroke-width:1;"/><path d="M594.6963,135.0234 L604.6963,135.0234 C619.6963,135.0234 619.6963,192.6328 634.6963,192.6328 L644.6963,192.6328 " fill="none" style="stroke:#181818;stroke-width:1;"/><path d="M482.6963,221.4375 L492.6963,221.4375 C507.6963,221.4375 507.6963,135.0234 522.6963,135.0234 L532.6963,135.0234 " fill="none" style="stroke:#181818;stroke-width:1;"/><rect fill="#F1F1F1" height="37.6094" rx="12.5" ry="12.5" style="stroke:#181818;stroke-width:1.5;" width="90" x="532.6963" y="289.0469"/><text fill="#000000" font-family="sans-serif" font-size="14" lengthAdjust="spacing" textLength="70" x="542.6963" y="313.5801">&#35820;&#21578;&#38519;&#23475;&#32618;</text><rect fill="#F1F1F1" height="37.6094" rx="12.5" ry="12.5" style="stroke:#181818;stroke-width:1.5;" width="48" x="672.6963" y="260.2422"/><text fill="#000000" font-family="sans-serif" font-size="14" lengthAdjust="spacing" textLength="28" x="682.6963" y="284.7754">&#26102;&#26426;</text><rect fill="#F1F1F1" height="37.6094" rx="12.5" ry="12.5" style="stroke:#181818;stroke-width:1.5;" width="48" x="770.6963" y="231.4375"/><text fill="#000000" font-family="sans-serif" font-size="14" lengthAdjust="spacing" textLength="28" x="780.6963" y="255.9707">&#26032;&#32618;</text><path d="M720.6963,279.0469 L730.6963,279.0469 C745.6963,279.0469 745.6963,250.2422 760.6963,250.2422 L770.6963,250.2422 " fill="none" style="stroke:#181818;stroke-width:1;"/><rect fill="#F1F1F1" height="37.6094" rx="12.5" ry="12.5" style="stroke:#181818;stroke-width:1.5;" width="188" x="770.6963" y="289.0469"/><text fill="#000000" font-family="sans-serif" font-size="14" lengthAdjust="spacing" textLength="168" x="780.6963" y="313.5801">&#21457;&#29983;&#22312;&#26410;&#21551;&#21160;&#30340;&#21496;&#27861;&#31243;&#24207;&#20013;</text><path d="M720.6963,279.0469 L730.6963,279.0469 C745.6963,279.0469 745.6963,307.8516 760.6963,307.8516 L770.6963,307.8516 " fill="none" style="stroke:#181818;stroke-width:1;"/><path d="M622.6963,307.8516 L632.6963,307.8516 C647.6963,307.8516 647.6963,279.0469 662.6963,279.0469 L672.6963,279.0469 " fill="none" style="stroke:#181818;stroke-width:1;"/><rect fill="#F1F1F1" height="37.6094" rx="12.5" ry="12.5" style="stroke:#181818;stroke-width:1.5;" width="48" x="672.6963" y="346.6563"/><text fill="#000000" font-family="sans-serif" font-size="14" lengthAdjust="spacing" textLength="28" x="682.6963" y="371.1895">&#30446;&#30340;</text><rect fill="#F1F1F1" height="37.6094" rx="12.5" ry="12.5" style="stroke:#181818;stroke-width:1.5;" width="384" x="770.6963" y="346.6563"/><text fill="#000000" font-family="sans-serif" font-size="14" lengthAdjust="spacing" textLength="364" x="780.6963" y="371.1895">&#32618;&#29359;&#36890;&#36807;&#25423;&#36896;&#20107;&#23454;&#24694;&#24847;&#25351;&#25511;&#20182;&#20154;&#65292;&#20197;&#35753;&#26080;&#36764;&#32773;&#21463;&#21040;&#21009;&#20107;&#36861;&#35785;</text><path d="M720.6963,365.4609 L730.6963,365.4609 C745.6963,365.4609 745.6963,365.4609 760.6963,365.4609 L770.6963,365.4609 " fill="none" style="stroke:#181818;stroke-width:1;"/><path d="M622.6963,307.8516 L632.6963,307.8516 C647.6963,307.8516 647.6963,365.4609 662.6963,365.4609 L672.6963,365.4609 " fill="none" style="stroke:#181818;stroke-width:1;"/><path d="M482.6963,221.4375 L492.6963,221.4375 C507.6963,221.4375 507.6963,307.8516 522.6963,307.8516 L532.6963,307.8516 " fill="none" style="stroke:#181818;stroke-width:1;"/><path d="M230.6963,451.875 L240.6963,451.875 C255.6963,451.875 255.6963,221.4375 270.6963,221.4375 L280.6963,221.4375 " fill="none" style="stroke:#181818;stroke-width:1;"/><rect fill="#F1F1F1" height="37.6094" rx="12.5" ry="12.5" style="stroke:#181818;stroke-width:1.5;" width="272" x="280.6963" y="605.8984"/><text fill="#000000" font-family="sans-serif" font-size="14" lengthAdjust="spacing" textLength="252" x="290.6963" y="630.4316">&#12302;&#20266;&#35777;&#32618;&#12303;&#21644;&#12302;&#24110;&#21161;&#27585;&#28781;&#12289;&#20266;&#36896;&#35777;&#25454;&#32618;&#12303;</text><rect fill="#F1F1F1" height="37.6094" rx="12.5" ry="12.5" style="stroke:#181818;stroke-width:1.5;" width="62" x="602.6963" y="490.6797"/><text fill="#000000" font-family="sans-serif" font-size="14" lengthAdjust="spacing" textLength="42" x="612.6963" y="515.2129">&#20266;&#35777;&#32618;</text><rect fill="#F1F1F1" height="37.6094" rx="12.5" ry="12.5" style="stroke:#181818;stroke-width:1.5;" width="76" x="714.6963" y="433.0703"/><text fill="#000000" font-family="sans-serif" font-size="14" lengthAdjust="spacing" textLength="56" x="724.6963" y="457.6035">&#34892;&#20026;&#20027;&#20307;</text><rect fill="#F1F1F1" height="37.6094" rx="12.5" ry="12.5" style="stroke:#181818;stroke-width:1.5;" width="188" x="840.6963" y="404.2656"/><text fill="#000000" font-family="sans-serif" font-size="14" lengthAdjust="spacing" textLength="168" x="850.6963" y="428.7988">&#30001;&#30452;&#25509;&#21442;&#19982;&#35785;&#35772;&#30340;&#20154;&#21592;&#23454;&#26045;</text><path d="M790.6963,451.875 L800.6963,451.875 C815.6963,451.875 815.6963,423.0703 830.6963,423.0703 L840.6963,423.0703 " fill="none" style="stroke:#181818;stroke-width:1;"/><rect fill="#F1F1F1" height="37.6094" rx="12.5" ry="12.5" style="stroke:#181818;stroke-width:1.5;" width="272" x="840.6963" y="461.875"/><text fill="#000000" font-family="sans-serif" font-size="14" lengthAdjust="spacing" textLength="252" x="850.6963" y="486.4082">&#19968;&#33324;&#20026;&#35785;&#35772;&#20013;&#30340;&#35777;&#20154;&#12289;&#24403;&#20107;&#20154;&#12289;&#37492;&#23450;&#20154;&#31561;</text><path d="M790.6963,451.875 L800.6963,451.875 C815.6963,451.875 815.6963,480.6797 830.6963,480.6797 L840.6963,480.6797 " fill="none" style="stroke:#181818;stroke-width:1;"/><path d="M664.6963,509.4844 L674.6963,509.4844 C689.6963,509.4844 689.6963,451.875 704.6963,451.875 L714.6963,451.875 " fill="none" style="stroke:#181818;stroke-width:1;"/><rect fill="#F1F1F1" height="37.6094" rx="12.5" ry="12.5" style="stroke:#181818;stroke-width:1.5;" width="76" x="714.6963" y="519.4844"/><text fill="#000000" font-family="sans-serif" font-size="14" lengthAdjust="spacing" textLength="56" x="724.6963" y="544.0176">&#34892;&#20026;&#20869;&#23481;</text><rect fill="#F1F1F1" height="37.6094" rx="12.5" ry="12.5" style="stroke:#181818;stroke-width:1.5;" width="216" x="840.6963" y="519.4844"/><text fill="#000000" font-family="sans-serif" font-size="14" lengthAdjust="spacing" textLength="196" x="850.6963" y="544.0176">&#22312;&#35785;&#35772;&#36807;&#31243;&#20013;&#20316;&#20266;&#35777;&#12289;&#25552;&#20379;&#20266;&#35777;</text><path d="M790.6963,538.2891 L800.6963,538.2891 C815.6963,538.2891 815.6963,538.2891 830.6963,538.2891 L840.6963,538.2891 " fill="none" style="stroke:#181818;stroke-width:1;"/><path d="M664.6963,509.4844 L674.6963,509.4844 C689.6963,509.4844 689.6963,538.2891 704.6963,538.2891 L714.6963,538.2891 " fill="none" style="stroke:#181818;stroke-width:1;"/><rect fill="#F1F1F1" height="37.6094" rx="12.5" ry="12.5" style="stroke:#181818;stroke-width:1.5;" width="76" x="714.6963" y="577.0938"/><text fill="#000000" font-family="sans-serif" font-size="14" lengthAdjust="spacing" textLength="56" x="724.6963" y="601.627">&#29359;&#32618;&#30446;&#30340;</text><rect fill="#F1F1F1" height="37.6094" rx="12.5" ry="12.5" style="stroke:#181818;stroke-width:1.5;" width="302.625" x="840.6963" y="577.0938"/><text fill="#000000" font-family="sans-serif" font-size="14" lengthAdjust="spacing" textLength="196" x="850.6963" y="601.627">&#22312;&#27861;&#24237;&#19978;&#23545;&#26696;&#20214;&#36827;&#34892;&#34394;&#20551;&#38472;&#36848;&#65292;</text><text fill="#000000" font-family="sans-serif" font-size="14" font-weight="bold" lengthAdjust="spacing" textLength="86.625" x="1046.6963" y="601.627">&#24433;&#21709;&#26696;&#20214;&#21028;&#20915;</text><path d="M790.6963,595.8984 L800.6963,595.8984 C815.6963,595.8984 815.6963,595.8984 830.6963,595.8984 L840.6963,595.8984 " fill="none" style="stroke:#181818;stroke-width:1;"/><path d="M664.6963,509.4844 L674.6963,509.4844 C689.6963,509.4844 689.6963,595.8984 704.6963,595.8984 L714.6963,595.8984 " fill="none" style="stroke:#181818;stroke-width:1;"/><path d="M552.6963,624.7031 L562.6963,624.7031 C577.6963,624.7031 577.6963,509.4844 592.6963,509.4844 L602.6963,509.4844 " fill="none" style="stroke:#181818;stroke-width:1;"/><rect fill="#F1F1F1" height="37.6094" rx="12.5" ry="12.5" style="stroke:#181818;stroke-width:1.5;" width="160" x="602.6963" y="721.1172"/><text fill="#000000" font-family="sans-serif" font-size="14" lengthAdjust="spacing" textLength="140" x="612.6963" y="745.6504">&#24110;&#21161;&#27585;&#28781;&#12289;&#20266;&#36896;&#35777;&#25454;&#32618;</text><rect fill="#F1F1F1" height="37.6094" rx="12.5" ry="12.5" style="stroke:#181818;stroke-width:1.5;" width="76" x="812.6963" y="663.5078"/><text fill="#000000" font-family="sans-serif" font-size="14" lengthAdjust="spacing" textLength="56" x="822.6963" y="688.041">&#34892;&#20026;&#20027;&#20307;</text><rect fill="#F1F1F1" height="37.6094" rx="12.5" ry="12.5" style="stroke:#181818;stroke-width:1.5;" width="202" x="938.6963" y="634.7031"/><text fill="#000000" font-family="sans-serif" font-size="14" lengthAdjust="spacing" textLength="182" x="948.6963" y="659.2363">&#19982;&#26696;&#20214;&#26377;&#20851;&#30340;&#31532;&#19977;&#26041;&#21327;&#21161;&#23454;&#26045;</text><path d="M888.6963,682.3125 L898.6963,682.3125 C913.6963,682.3125 913.6963,653.5078 928.6963,653.5078 L938.6963,653.5078 " fill="none" style="stroke:#181818;stroke-width:1;"/><rect fill="#F1F1F1" height="37.6094" rx="12.5" ry="12.5" style="stroke:#181818;stroke-width:1.5;" width="342" x="938.6963" y="692.3125"/><text fill="#000000" font-family="sans-serif" font-size="14" lengthAdjust="spacing" textLength="322" x="948.6963" y="716.8457">&#19968;&#33324;&#20026;&#19982;&#26696;&#20214;&#26377;&#20851;&#30340;&#31532;&#19977;&#20154;&#65292;&#22914;&#34987;&#21578;&#30340;&#20146;&#21451;&#12289;&#24459;&#24072;&#31561;</text><path d="M888.6963,682.3125 L898.6963,682.3125 C913.6963,682.3125 913.6963,711.1172 928.6963,711.1172 L938.6963,711.1172 " fill="none" style="stroke:#181818;stroke-width:1;"/><path d="M762.6963,739.9219 L772.6963,739.9219 C787.6963,739.9219 787.6963,682.3125 802.6963,682.3125 L812.6963,682.3125 " fill="none" style="stroke:#181818;stroke-width:1;"/><rect fill="#F1F1F1" height="37.6094" rx="12.5" ry="12.5" style="stroke:#181818;stroke-width:1.5;" width="76" x="812.6963" y="749.9219"/><text fill="#000000" font-family="sans-serif" font-size="14" lengthAdjust="spacing" textLength="56" x="822.6963" y="774.4551">&#34892;&#20026;&#20869;&#23481;</text><rect fill="#F1F1F1" height="37.6094" rx="12.5" ry="12.5" style="stroke:#181818;stroke-width:1.5;" width="356" x="938.6963" y="749.9219"/><text fill="#000000" font-family="sans-serif" font-size="14" lengthAdjust="spacing" textLength="336" x="948.6963" y="774.4551">&#20391;&#37325;&#20110;&#20026;&#20182;&#20154;&#38144;&#27585;&#25110;&#20266;&#36896;&#35777;&#25454;&#65292;&#20197;&#24110;&#21161;&#20854;&#36867;&#36991;&#27861;&#24459;&#36131;&#20219;</text><path d="M888.6963,768.7266 L898.6963,768.7266 C913.6963,768.7266 913.6963,768.7266 928.6963,768.7266 L938.6963,768.7266 " fill="none" style="stroke:#181818;stroke-width:1;"/><path d="M762.6963,739.9219 L772.6963,739.9219 C787.6963,739.9219 787.6963,768.7266 802.6963,768.7266 L812.6963,768.7266 " fill="none" style="stroke:#181818;stroke-width:1;"/><rect fill="#F1F1F1" height="37.6094" rx="12.5" ry="12.5" style="stroke:#181818;stroke-width:1.5;" width="76" x="812.6963" y="807.5313"/><text fill="#000000" font-family="sans-serif" font-size="14" lengthAdjust="spacing" textLength="56" x="822.6963" y="832.0645">&#29359;&#32618;&#30446;&#30340;</text><rect fill="#F1F1F1" height="37.6094" rx="12.5" ry="12.5" style="stroke:#181818;stroke-width:1.5;" width="331.9375" x="938.6963" y="807.5313"/><text fill="#000000" font-family="sans-serif" font-size="14" lengthAdjust="spacing" textLength="182" x="948.6963" y="832.0645">&#36890;&#36807;&#24433;&#21709;&#35777;&#25454;&#30340;&#23384;&#22312;&#25110;&#20869;&#23481;&#65292;</text><text fill="#000000" font-family="sans-serif" font-size="14" font-weight="bold" lengthAdjust="spacing" textLength="129.9375" x="1130.6963" y="832.0645">&#24178;&#25200;&#26696;&#20214;&#30340;&#20107;&#23454;&#35748;&#23450;</text><path d="M888.6963,826.3359 L898.6963,826.3359 C913.6963,826.3359 913.6963,826.3359 928.6963,826.3359 L938.6963,826.3359 " fill="none" style="stroke:#181818;stroke-width:1;"/><path d="M762.6963,739.9219 L772.6963,739.9219 C787.6963,739.9219 787.6963,826.3359 802.6963,826.3359 L812.6963,826.3359 " fill="none" style="stroke:#181818;stroke-width:1;"/><path d="M552.6963,624.7031 L562.6963,624.7031 C577.6963,624.7031 577.6963,739.9219 592.6963,739.9219 L602.6963,739.9219 " fill="none" style="stroke:#181818;stroke-width:1;"/><path d="M230.6963,451.875 L240.6963,451.875 C255.6963,451.875 255.6963,624.7031 270.6963,624.7031 L280.6963,624.7031 " fill="none" style="stroke:#181818;stroke-width:1;"/><path d="M132.6963,451.875 L142.6963,451.875 C157.6963,451.875 157.6963,451.875 172.6963,451.875 L182.6963,451.875 " fill="none" style="stroke:#181818;stroke-width:1;"/><!--SRC=[xLXVJnDP57-VJt4t-w8aL5IM668sIfNi6Z5cYxuFqsiPdSuqqzkQxcQJuWgqvKzXLLHeTdNNF-XAYsAmj1G-37Ddfaz-XJrtRbkco7IAoUuJX92PSt_dd7lExvnxvd8XJaITH6Kr71LZWl2Dh4fA8enH872gzHidAGMVYYcYIX9HfPU1Um7TwyW3CiW4WSX4mSXwiMDiBviRZwoL7Efjl5gltz1A7bxfgrLQtA3vCWFKteB4s7vhboRW-VDs1lxIXJawkM5jL3zlPmMXfstv-jd-xvWOmKyFehCLcfboNhXWBptVGk-by_JtMP3OfNTqCLT_-WdSSdbBWskrLDhaVCryl6aMAbyiDFn_-c0MieSfylLwUfcMopI_Q3tyanPM0MvLytIXH7EhrlBzHWfMPo0lHddj4EVMIX5m7iR1hPKhWGjxTzf-kamdfY48UpLjPfRWmPmhqjfx-c3EV9ungflCNV6vjJ1r8FG3kJbg0iobTU_eMt6RXRV_HT3cNBwUVcPKPcZn3tDYqxoVDsUdpVdNHdN9g5G-RyyQrPTsyOtv-9czKx3JapJ_c6RMQMOHLEpTcbtA-bKEBHTfxeq9mecrlVG40C0XJ-wH2yb-FckKAqQvQjGUU0NtyBsryj6SVqdpzumor6tMBcv3BY0QklY4HRbKyr0rocaxymuSS2N8BEZ1Na0LDavh3o1c_bpFVgJ5PNYsrhAUswHJaxIuvSLhOPLx0Gw0IF1br0eyTB1lvXUCdHN-UXYxkHBZi1F7h68s7j7Acb7EqT8MBs1xTmMsnkky_ZHZxwu3mJqzxXgdcHTqQgEdvm0fdKdyEgQ07UuJsf-TLSlthNUG_Qovj4Ndyk2kExAypF3ofQ_ksN_z0-tfbC07cfzXLExCq7BcgxapTbxNf-UCoZppxlH9_M4QSWE7XZinl7buvkZaPZtzMtrYbv6oCsD__DkeLh-EMTwtdBC60t0Yh3rXZ6UM-COvhLiVpEnww-ZYFMuNNq3b0h-2S073f6fEgmljm-kyCv2-5ng2Ix8OqSKe-WNs51XJ4jXvGcX8bEv4T2sXXeEQekb8aIFZXAt3wgyC6nRrEpeEUy0RgqrmHCTOxMJP0RZGAHzmgedLT56DU6sQBpQXiOGUKxoWVB49zGxC5PIknRsiVJiyF3GK33QHAQmesbqFB5zqe48WAihgw3YEDWqFQoe9oJzZTBPFOEiu6XiNutBSFvTkT9y7F7udvL3gnfxfd4itT0X4qZWKRbURaIEgfkCkU4NeggpYW_9z4rswxMYA6LDLJS8gySgDwf32AU2YCGKm1wn2y_2zIRhSOcr_cMXHaMXyyoe1RxAcYahmgDZhEew9kiWaHr6xEARfnA_ikhL52F1E_3gjIsj1BGhjHhpAeQ7fPOxHf-88C0f6tSdiT6hvCHd6EEPkY7O7b-4K7LFa-BZtaUVIR_TsTrmc1tFZuUQQHlmzEL59AL7j8Yf936FISYPAaXpshlcsezZFyYrenRYhl-5TmYFYRPpmwN9DWIteMjXLWJuzrjHm_CIqk4pa9BuekThXY-DSL72tWUo705o8lgQZCanGTlPtKrEDCSYCnnDZjx74p7jbHqp2tCPwbtQJiWOTv9ZM_2opl7UTxlsJlhrnE_TgMotxpX01_fm_rVWKERuN7z-BZ-_5n_VYutlnyRtu_xiNNsV_ghqnSXKbiHvdu_vqu4pVcVx0kHCXaQ1hMXAT7a1zfmVx-mVx1r0mD8hOyadXnCYFeoYk9U1h1uNXMq2Nnn9iG9uKheX94VsKW74PnOE8lPqO7Jc9GfURGdHPJSgwfaPXH0fNRevm4Ff18w6OHXpmG7_la4nG2EkmBNHpHBY4Rua9XO2gf8LbDJA8RemEzvuJhi8eJOWHS0GVBq6OiKHFmLheNm00]--></g></svg>