<svg xmlns="http://www.w3.org/2000/svg" xmlns:xlink="http://www.w3.org/1999/xlink" contentStyleType="text/css" height="521px" preserveAspectRatio="none" style="width:956px;height:521px;background:#FFFFFF;" version="1.1" viewBox="0 0 956 521" width="956px" zoomAndPan="magnify"><title>&#31038;&#20250;&#27861;&#30410; - &#20844;&#20849;&#23433;&#20840; - &#32463;&#27982;&#29359;&#32618; - &#29983;&#20135;&#12289;&#38144;&#21806;&#20266;&#21155;&#21830;&#21697;&#32618; - &#33647;&#21697;&#29359;&#32618;</title><defs/><g><text fill="#000000" font-family="sans-serif" font-size="14" font-weight="bold" lengthAdjust="spacing" textLength="425.1406" x="264.2778" y="34.5332">&#31038;&#20250;&#27861;&#30410; - &#20844;&#20849;&#23433;&#20840; - &#32463;&#27982;&#29359;&#32618; - &#29983;&#20135;&#12289;&#38144;&#21806;&#20266;&#21155;&#21830;&#21697;&#32618; - &#33647;&#21697;&#29359;&#32618;</text><rect fill="#F1F1F1" height="37.6094" rx="12.5" ry="12.5" style="stroke:#181818;stroke-width:1.5;" width="136.6963" x="10" y="260.2422"/><text fill="#000000" font-family="sans-serif" font-size="14" lengthAdjust="spacing" textLength="116.6963" x="20" y="284.7754">&#33647;&#21697;&#29359;&#32618;&#65288;P310&#65289;</text><rect fill="#F1F1F1" height="37.6094" rx="12.5" ry="12.5" style="stroke:#181818;stroke-width:1.5;" width="62" x="196.6963" y="116.2188"/><text fill="#000000" font-family="sans-serif" font-size="14" lengthAdjust="spacing" textLength="42" x="206.6963" y="140.752">&#20551;&#33647;&#32618;</text><rect fill="#F1F1F1" height="37.6094" rx="12.5" ry="12.5" style="stroke:#181818;stroke-width:1.5;" width="48" x="308.6963" y="58.6094"/><text fill="#000000" font-family="sans-serif" font-size="14" lengthAdjust="spacing" textLength="28" x="318.6963" y="83.1426">&#37325;&#32618;</text><rect fill="#F1F1F1" height="37.6094" rx="12.5" ry="12.5" style="stroke:#181818;stroke-width:1.5;" width="90" x="406.6963" y="58.6094"/><text fill="#000000" font-family="sans-serif" font-size="14" lengthAdjust="spacing" textLength="70" x="416.6963" y="83.1426">&#20837;&#32618;&#38376;&#27099;&#20302;</text><rect fill="#F1F1F1" height="37.6094" rx="12.5" ry="12.5" style="stroke:#181818;stroke-width:1.5;" width="132" x="546.6963" y="58.6094"/><text fill="#000000" font-family="sans-serif" font-size="14" lengthAdjust="spacing" textLength="112" x="556.6963" y="83.1426">&#25277;&#35937;&#21361;&#38505;&#29359;&#34892;&#20026;&#29359;</text><path d="M496.6963,77.4141 L506.6963,77.4141 C521.6963,77.4141 521.6963,77.4141 536.6963,77.4141 L546.6963,77.4141 " fill="none" style="stroke:#181818;stroke-width:1;"/><path d="M356.6963,77.4141 L366.6963,77.4141 C381.6963,77.4141 381.6963,77.4141 396.6963,77.4141 L406.6963,77.4141 " fill="none" style="stroke:#181818;stroke-width:1;"/><path d="M258.6963,135.0234 L268.6963,135.0234 C283.6963,135.0234 283.6963,77.4141 298.6963,77.4141 L308.6963,77.4141 " fill="none" style="stroke:#181818;stroke-width:1;"/><rect fill="#F1F1F1" height="37.6094" rx="12.5" ry="12.5" style="stroke:#181818;stroke-width:1.5;" width="76" x="308.6963" y="145.0234"/><text fill="#000000" font-family="sans-serif" font-size="14" lengthAdjust="spacing" textLength="56" x="318.6963" y="169.5566">&#21028;&#26029;&#26631;&#20934;</text><rect fill="#F1F1F1" height="37.6094" rx="12.5" ry="12.5" style="stroke:#181818;stroke-width:1.5;" width="76" x="434.6963" y="116.2188"/><text fill="#000000" font-family="sans-serif" font-size="14" lengthAdjust="spacing" textLength="56" x="444.6963" y="140.752">&#23454;&#36136;&#26631;&#20934;</text><rect fill="#F1F1F1" height="37.6094" rx="12.5" ry="12.5" style="stroke:#181818;stroke-width:1.5;" width="90" x="560.6963" y="116.2188"/><text fill="#000000" font-family="sans-serif" font-size="14" lengthAdjust="spacing" textLength="70" x="570.6963" y="140.752">&#26159;&#21542;&#26377;&#30103;&#25928;</text><path d="M510.6963,135.0234 L520.6963,135.0234 C535.6963,135.0234 535.6963,135.0234 550.6963,135.0234 L560.6963,135.0234 " fill="none" style="stroke:#181818;stroke-width:1;"/><path d="M384.6963,163.8281 L394.6963,163.8281 C409.6963,163.8281 409.6963,135.0234 424.6963,135.0234 L434.6963,135.0234 " fill="none" style="stroke:#181818;stroke-width:1;"/><rect fill="#F1F1F1" height="37.6094" rx="12.5" ry="12.5" style="stroke:#181818;stroke-width:1.5;" width="76" x="434.6963" y="173.8281"/><text fill="#000000" font-family="sans-serif" font-size="14" lengthAdjust="spacing" textLength="56" x="444.6963" y="198.3613">&#24418;&#24335;&#26631;&#20934;</text><rect fill="#F1F1F1" height="37.6094" rx="12.5" ry="12.5" style="stroke:#181818;stroke-width:1.5;" width="132" x="560.6963" y="173.8281"/><text fill="#000000" font-family="sans-serif" font-size="14" lengthAdjust="spacing" textLength="112" x="570.6963" y="198.3613">&#26159;&#21542;&#26377;&#33647;&#30417;&#23616;&#25209;&#21495;</text><path d="M510.6963,192.6328 L520.6963,192.6328 C535.6963,192.6328 535.6963,192.6328 550.6963,192.6328 L560.6963,192.6328 " fill="none" style="stroke:#181818;stroke-width:1;"/><path d="M384.6963,163.8281 L394.6963,163.8281 C409.6963,163.8281 409.6963,192.6328 424.6963,192.6328 L434.6963,192.6328 " fill="none" style="stroke:#181818;stroke-width:1;"/><path d="M258.6963,135.0234 L268.6963,135.0234 C283.6963,135.0234 283.6963,163.8281 298.6963,163.8281 L308.6963,163.8281 " fill="none" style="stroke:#181818;stroke-width:1;"/><path d="M146.6963,279.0469 L156.6963,279.0469 C171.6963,279.0469 171.6963,135.0234 186.6963,135.0234 L196.6963,135.0234 " fill="none" style="stroke:#181818;stroke-width:1;"/><rect fill="#F1F1F1" height="37.6094" rx="12.5" ry="12.5" style="stroke:#181818;stroke-width:1.5;" width="62" x="196.6963" y="231.4375"/><text fill="#000000" font-family="sans-serif" font-size="14" lengthAdjust="spacing" textLength="42" x="206.6963" y="255.9707">&#21155;&#33647;&#32618;</text><rect fill="#F1F1F1" height="37.6094" rx="12.5" ry="12.5" style="stroke:#181818;stroke-width:1.5;" width="48" x="308.6963" y="231.4375"/><text fill="#000000" font-family="sans-serif" font-size="14" lengthAdjust="spacing" textLength="28" x="318.6963" y="255.9707">&#36731;&#32618;</text><rect fill="#F1F1F1" height="37.6094" rx="12.5" ry="12.5" style="stroke:#181818;stroke-width:1.5;" width="90" x="406.6963" y="231.4375"/><text fill="#000000" font-family="sans-serif" font-size="14" lengthAdjust="spacing" textLength="70" x="416.6963" y="255.9707">&#20837;&#32618;&#38376;&#27099;&#39640;</text><rect fill="#F1F1F1" height="37.6094" rx="12.5" ry="12.5" style="stroke:#181818;stroke-width:1.5;" width="76" x="546.6963" y="231.4375"/><text fill="#000000" font-family="sans-serif" font-size="14" lengthAdjust="spacing" textLength="56" x="556.6963" y="255.9707">&#23454;&#23475;&#32467;&#26524;</text><path d="M496.6963,250.2422 L506.6963,250.2422 C521.6963,250.2422 521.6963,250.2422 536.6963,250.2422 L546.6963,250.2422 " fill="none" style="stroke:#181818;stroke-width:1;"/><path d="M356.6963,250.2422 L366.6963,250.2422 C381.6963,250.2422 381.6963,250.2422 396.6963,250.2422 L406.6963,250.2422 " fill="none" style="stroke:#181818;stroke-width:1;"/><path d="M258.6963,250.2422 L268.6963,250.2422 C283.6963,250.2422 283.6963,250.2422 298.6963,250.2422 L308.6963,250.2422 " fill="none" style="stroke:#181818;stroke-width:1;"/><path d="M146.6963,279.0469 L156.6963,279.0469 C171.6963,279.0469 171.6963,250.2422 186.6963,250.2422 L196.6963,250.2422 " fill="none" style="stroke:#181818;stroke-width:1;"/><rect fill="#F1F1F1" height="37.6094" rx="12.5" ry="12.5" style="stroke:#181818;stroke-width:1.5;" width="118" x="196.6963" y="375.4609"/><text fill="#000000" font-family="sans-serif" font-size="14" lengthAdjust="spacing" textLength="98" x="206.6963" y="399.9941">&#22952;&#23475;&#33647;&#21697;&#31649;&#29702;&#32618;</text><rect fill="#F1F1F1" height="37.6094" rx="12.5" ry="12.5" style="stroke:#181818;stroke-width:1.5;" width="76" x="364.6963" y="375.4609"/><text fill="#000000" font-family="sans-serif" font-size="14" lengthAdjust="spacing" textLength="56" x="374.6963" y="399.9941">&#22235;&#31181;&#26041;&#24335;</text><rect fill="#F1F1F1" height="37.6094" rx="12.5" ry="12.5" style="stroke:#181818;stroke-width:1.5;" width="48" x="490.6963" y="317.8516"/><text fill="#000000" font-family="sans-serif" font-size="14" lengthAdjust="spacing" textLength="28" x="500.6963" y="342.3848">&#33647;&#21697;</text><rect fill="#F1F1F1" height="37.6094" rx="12.5" ry="12.5" style="stroke:#181818;stroke-width:1.5;" width="48" x="588.6963" y="289.0469"/><text fill="#000000" font-family="sans-serif" font-size="14" lengthAdjust="spacing" textLength="28" x="598.6963" y="313.5801">&#31105;&#33647;</text><rect fill="#F1F1F1" height="37.6094" rx="12.5" ry="12.5" style="stroke:#181818;stroke-width:1.5;" width="90" x="686.6963" y="289.0469"/><text fill="#000000" font-family="sans-serif" font-size="14" lengthAdjust="spacing" textLength="70" x="696.6963" y="313.5801">&#29983;&#20135;&#12289;&#38144;&#21806;</text><path d="M636.6963,307.8516 L646.6963,307.8516 C661.6963,307.8516 661.6963,307.8516 676.6963,307.8516 L686.6963,307.8516 " fill="none" style="stroke:#181818;stroke-width:1;"/><path d="M538.6963,336.6563 L548.6963,336.6563 C563.6963,336.6563 563.6963,307.8516 578.6963,307.8516 L588.6963,307.8516 " fill="none" style="stroke:#181818;stroke-width:1;"/><rect fill="#F1F1F1" height="37.6094" rx="12.5" ry="12.5" style="stroke:#181818;stroke-width:1.5;" width="174" x="588.6963" y="346.6563"/><text fill="#000000" font-family="sans-serif" font-size="14" lengthAdjust="spacing" textLength="154" x="598.6963" y="371.1895">&#40657;&#33647;&#65288;&#26410;&#21462;&#24471;&#33647;&#21697;&#25209;&#20934;&#65289;</text><rect fill="#F1F1F1" height="37.6094" rx="12.5" ry="12.5" style="stroke:#181818;stroke-width:1.5;" width="132" x="812.6963" y="346.6563"/><text fill="#000000" font-family="sans-serif" font-size="14" lengthAdjust="spacing" textLength="112" x="822.6963" y="371.1895">&#29983;&#20135;&#12289;&#38144;&#21806;&#12289;&#36827;&#21475;</text><path d="M762.6963,365.4609 L772.6963,365.4609 C787.6963,365.4609 787.6963,365.4609 802.6963,365.4609 L812.6963,365.4609 " fill="none" style="stroke:#181818;stroke-width:1;"/><path d="M538.6963,336.6563 L548.6963,336.6563 C563.6963,336.6563 563.6963,365.4609 578.6963,365.4609 L588.6963,365.4609 " fill="none" style="stroke:#181818;stroke-width:1;"/><path d="M440.6963,394.2656 L450.6963,394.2656 C465.6963,394.2656 465.6963,336.6563 480.6963,336.6563 L490.6963,336.6563 " fill="none" style="stroke:#181818;stroke-width:1;"/><rect fill="#F1F1F1" height="37.6094" rx="12.5" ry="12.5" style="stroke:#181818;stroke-width:1.5;" width="62" x="490.6963" y="404.2656"/><text fill="#000000" font-family="sans-serif" font-size="14" lengthAdjust="spacing" textLength="42" x="500.6963" y="428.7988">&#20174;&#19994;&#32773;</text><rect fill="#F1F1F1" height="37.6094" rx="12.5" ry="12.5" style="stroke:#181818;stroke-width:1.5;" width="48" x="602.6963" y="404.2656"/><text fill="#000000" font-family="sans-serif" font-size="14" lengthAdjust="spacing" textLength="28" x="612.6963" y="428.7988">&#27880;&#20876;</text><rect fill="#F1F1F1" height="37.6094" rx="12.5" ry="12.5" style="stroke:#181818;stroke-width:1.5;" width="104" x="700.6963" y="404.2656"/><text fill="#000000" font-family="sans-serif" font-size="14" lengthAdjust="spacing" textLength="84" x="710.6963" y="428.7988">&#34394;&#20551;&#35777;&#26126;&#26448;&#26009;</text><path d="M650.6963,423.0703 L660.6963,423.0703 C675.6963,423.0703 675.6963,423.0703 690.6963,423.0703 L700.6963,423.0703 " fill="none" style="stroke:#181818;stroke-width:1;"/><path d="M552.6963,423.0703 L562.6963,423.0703 C577.6963,423.0703 577.6963,423.0703 592.6963,423.0703 L602.6963,423.0703 " fill="none" style="stroke:#181818;stroke-width:1;"/><path d="M440.6963,394.2656 L450.6963,394.2656 C465.6963,394.2656 465.6963,423.0703 480.6963,423.0703 L490.6963,423.0703 " fill="none" style="stroke:#181818;stroke-width:1;"/><rect fill="#F1F1F1" height="37.6094" rx="12.5" ry="12.5" style="stroke:#181818;stroke-width:1.5;" width="62" x="490.6963" y="461.875"/><text fill="#000000" font-family="sans-serif" font-size="14" lengthAdjust="spacing" textLength="42" x="500.6963" y="486.4082">&#30417;&#30563;&#32773;</text><rect fill="#F1F1F1" height="37.6094" rx="12.5" ry="12.5" style="stroke:#181818;stroke-width:1.5;" width="146" x="602.6963" y="461.875"/><text fill="#000000" font-family="sans-serif" font-size="14" lengthAdjust="spacing" textLength="126" x="612.6963" y="486.4082">&#32534;&#36896;&#29983;&#20135;&#12289;&#26816;&#39564;&#35760;&#24405;</text><path d="M552.6963,480.6797 L562.6963,480.6797 C577.6963,480.6797 577.6963,480.6797 592.6963,480.6797 L602.6963,480.6797 " fill="none" style="stroke:#181818;stroke-width:1;"/><path d="M440.6963,394.2656 L450.6963,394.2656 C465.6963,394.2656 465.6963,480.6797 480.6963,480.6797 L490.6963,480.6797 " fill="none" style="stroke:#181818;stroke-width:1;"/><path d="M314.6963,394.2656 L324.6963,394.2656 C339.6963,394.2656 339.6963,394.2656 354.6963,394.2656 L364.6963,394.2656 " fill="none" style="stroke:#181818;stroke-width:1;"/><path d="M146.6963,279.0469 L156.6963,279.0469 C171.6963,279.0469 171.6963,394.2656 186.6963,394.2656 L196.6963,394.2656 " fill="none" style="stroke:#181818;stroke-width:1;"/><!--SRC=[xLTRJnj757xVNp5LNm39vXA48XHL10VKHZX2DSdxU3sn9-pkMBkpZjogaddWAcvHm5nCqb1IeBGrHRHg4apwO-fTsq_v2psxwuMryNgTbpvXMTREET_vpiovhMT4urZbCbKICauBmXTK4IKzGL0utEjyDPwLI6zQmWhNPIba8KC03TdoC0MP873A9O8gRp-MIxlc-MQbi8H2o9ZzpPWzCugBnkmnB2iNQ-PVgvMbqyhbYRNS-B7yuUZVt4nj8sTi5Ckb4sFfmDYSCrxEE83gogdrREC5eQTX_QcqC7cdl-zJQL50yEb1nimyw2qagdzwK6r-nIke0sT_1c5jwzWyAfGlLnkq3i9SkgoUxHihPxMTNy1RTN-v_Eu3F7YOZOMtPlvtyysyCJ_Np5zyNVtpk8MgJhvzQgmVcdkBbVoMkRdGR7pvar5Q2pQsZbfuOPpbpCNtnjhVRWoM3cx4e7fvqJu6jL-tMtY2KnZ5yyh5I_Frdk3I7nw3h9w5udvbVQxHbL4eL8vMpFnxE4AJGyUeXP_AuGpeRYZgoiOAQM5UktW1vb0Cvjw9iPOtFcuvdgompC-vrH7830_LVmh6sa7JjiiNg-LtkzNSRAjSd1yRSyi-_DMTNQiWJsVCxLNprRgPtsbYXknLNXsqPgwKyhNScwijcWUvsibojVY7SRaf2C88WKPrctMaiNVlsItvbL0NFA0ugM8PVGzEmd599_OJGgDOd4wgJ5SI4IOn5KaqcUAM7hG_MDW4LgTLal21rxKkEAaIehHZjW4UT3O0d7MnJCLAqc_JZjA5fdKrBVb17QKBzJ-Ovr0gq_pOlXmV7nsDH5nabaWIU-w3TPGsL0ZBc2fJAIAxnEDCuJ7w7K5t-WHBJ-Hq2cjK2uwb5ztd0zUcitPAlTY1zh7qGaT19AQW6ZlQ34qgJ2KTv1MX2QgGPlarHOTksr9PP8h2HA9mlzWeTbAS53YYk0IO9bPe7cTleaglidQjvap6d3cRLpXueqp1KkHpiPCgIMCLMvBFCRiVPoeFAhjEkJY7lFEWJkkGBS9aQ3VkLmvrIpywAtqAIK96WTGRp7PJAoYJ2KBItePeT306KpGkKItbF_8yzetUdgSeRuwDZvj7Z0TxiaybPh7ImQb4d23yoXaMHPhmh_c6KHp4_1HQKVFqDwn54iNFY1xGvKo2BQWiuQd0W1vpBMm_QQPHJZFalkXfXnlZ74kaquDS7m5oWGEfPGflK6lsTr9JzTUWHQxfyMT4jEZzeeCpyDucQeUy6SgWWsng5iHinRtZS5zF-iR6RT-h3RKS-0uHuETUR_sloEtDuFPcS7ip-Fzl1fFMTVrnT09bYAfP0wy_FD0tC1Y-snN373rY6TG_XFhwXmS7XmU7K2GsXInrjz0L_MOAQKo7UOyIC0rL6jUj4T4jFCGPZBxLOM38P1XPgwwfQ3UAZRb2DAPagCeK6OQ4yF19r06XhncFfHctmKE3eL7AKOoei2tq92ey84-nBd4m5Lc2AibXz7XgF7HNc81XekCaE8Bn7O4fmzKiw6B_0G00]--></g></svg>