<svg xmlns="http://www.w3.org/2000/svg" xmlns:xlink="http://www.w3.org/1999/xlink" contentStyleType="text/css" height="406px" preserveAspectRatio="none" style="width:636px;height:406px;background:#FFFFFF;" version="1.1" viewBox="0 0 636 406" width="636px" zoomAndPan="magnify"><title>&#31038;&#20250;&#27861;&#30410; - &#20844;&#20849;&#23433;&#20840; - &#20132;&#36890;&#22411;&#29359;&#32618; - &#32618;&#25968;&#38382;&#39064;</title><defs/><g><text fill="#000000" font-family="sans-serif" font-size="14" font-weight="bold" lengthAdjust="spacing" textLength="282.7617" x="175.4448" y="34.5332">&#31038;&#20250;&#27861;&#30410; - &#20844;&#20849;&#23433;&#20840; - &#20132;&#36890;&#22411;&#29359;&#32618; - &#32618;&#25968;&#38382;&#39064;</text><rect fill="#F1F1F1" height="37.6094" rx="12.5" ry="12.5" style="stroke:#181818;stroke-width:1.5;" width="136.6963" x="10" y="202.6328"/><text fill="#000000" font-family="sans-serif" font-size="14" lengthAdjust="spacing" textLength="116.6963" x="20" y="227.166">&#32618;&#25968;&#38382;&#39064;&#65288;P303&#65289;</text><rect fill="#F1F1F1" height="37.6094" rx="12.5" ry="12.5" style="stroke:#181818;stroke-width:1.5;" width="146" x="196.6963" y="116.2188"/><text fill="#000000" font-family="sans-serif" font-size="14" lengthAdjust="spacing" textLength="126" x="206.6963" y="140.752">&#21361;&#38505;&#39550;&#39542;&#32618;&#65288;&#36731;&#32618;&#65289;</text><rect fill="#F1F1F1" height="37.6094" rx="12.5" ry="12.5" style="stroke:#181818;stroke-width:1.5;" width="188" x="392.6963" y="58.6094"/><text fill="#000000" font-family="sans-serif" font-size="14" lengthAdjust="spacing" textLength="168" x="402.6963" y="83.1426">&#20197;&#21361;&#38505;&#26041;&#27861;&#21361;&#23475;&#20844;&#20849;&#23433;&#20840;&#32618;</text><path d="M342.6963,135.0234 L352.6963,135.0234 C367.6963,135.0234 367.6963,77.4141 382.6963,77.4141 L392.6963,77.4141 " fill="none" style="stroke:#181818;stroke-width:1;"/><rect fill="#F1F1F1" height="37.6094" rx="12.5" ry="12.5" style="stroke:#181818;stroke-width:1.5;" width="90" x="392.6963" y="145.0234"/><text fill="#000000" font-family="sans-serif" font-size="14" lengthAdjust="spacing" textLength="70" x="402.6963" y="169.5566">&#36816;&#36755;&#31867;&#29359;&#32618;</text><rect fill="#F1F1F1" height="37.6094" rx="12.5" ry="12.5" style="stroke:#181818;stroke-width:1.5;" width="90" x="532.6963" y="116.2188"/><text fill="#000000" font-family="sans-serif" font-size="14" lengthAdjust="spacing" textLength="70" x="542.6963" y="140.752">&#36816;&#36755;&#20551;&#24065;&#32618;</text><path d="M482.6963,163.8281 L492.6963,163.8281 C507.6963,163.8281 507.6963,135.0234 522.6963,135.0234 L532.6963,135.0234 " fill="none" style="stroke:#181818;stroke-width:1;"/><rect fill="#F1F1F1" height="37.6094" rx="12.5" ry="12.5" style="stroke:#181818;stroke-width:1.5;" width="90" x="532.6963" y="173.8281"/><text fill="#000000" font-family="sans-serif" font-size="14" lengthAdjust="spacing" textLength="70" x="542.6963" y="198.3613">&#36816;&#36755;&#27602;&#21697;&#32618;</text><path d="M482.6963,163.8281 L492.6963,163.8281 C507.6963,163.8281 507.6963,192.6328 522.6963,192.6328 L532.6963,192.6328 " fill="none" style="stroke:#181818;stroke-width:1;"/><path d="M342.6963,135.0234 L352.6963,135.0234 C367.6963,135.0234 367.6963,163.8281 382.6963,163.8281 L392.6963,163.8281 " fill="none" style="stroke:#181818;stroke-width:1;"/><path d="M146.6963,221.4375 L156.6963,221.4375 C171.6963,221.4375 171.6963,135.0234 186.6963,135.0234 L196.6963,135.0234 " fill="none" style="stroke:#181818;stroke-width:1;"/><rect fill="#F1F1F1" height="37.6094" rx="12.5" ry="12.5" style="stroke:#181818;stroke-width:1.5;" width="146" x="196.6963" y="231.4375"/><text fill="#000000" font-family="sans-serif" font-size="14" lengthAdjust="spacing" textLength="126" x="206.6963" y="255.9707">&#20132;&#36890;&#32903;&#20107;&#32618;&#65288;&#37325;&#32618;&#65289;</text><rect fill="#F1F1F1" height="37.6094" rx="12.5" ry="12.5" style="stroke:#181818;stroke-width:1.5;" width="188" x="392.6963" y="231.4375"/><text fill="#000000" font-family="sans-serif" font-size="14" lengthAdjust="spacing" textLength="168" x="402.6963" y="255.9707">&#20197;&#21361;&#38505;&#26041;&#27861;&#21361;&#23475;&#20844;&#20849;&#23433;&#20840;&#32618;</text><path d="M342.6963,250.2422 L352.6963,250.2422 C367.6963,250.2422 367.6963,250.2422 382.6963,250.2422 L392.6963,250.2422 " fill="none" style="stroke:#181818;stroke-width:1;"/><path d="M146.6963,221.4375 L156.6963,221.4375 C171.6963,221.4375 171.6963,250.2422 186.6963,250.2422 L196.6963,250.2422 " fill="none" style="stroke:#181818;stroke-width:1;"/><rect fill="#F1F1F1" height="37.6094" rx="12.5" ry="12.5" style="stroke:#181818;stroke-width:1.5;" width="287.9551" x="196.6963" y="317.8516"/><text fill="#000000" font-family="sans-serif" font-size="14" lengthAdjust="spacing" textLength="267.9551" x="206.6963" y="342.3848">&#21361;&#38505;&#39550;&#39542;&#32618;&#65288;&#36731;&#32618;&#65289; + &#20132;&#36890;&#32903;&#20107;&#32618;&#65288;&#37325;&#32618;&#65289;</text><rect fill="#F1F1F1" height="37.6094" rx="12.5" ry="12.5" style="stroke:#181818;stroke-width:1.5;" width="90" x="534.6514" y="289.0469"/><text fill="#000000" font-family="sans-serif" font-size="14" lengthAdjust="spacing" textLength="70" x="544.6514" y="313.5801">&#19968;&#20010;&#21361;&#38505;&#27969;</text><path d="M484.6514,336.6563 L494.6514,336.6563 C509.6514,336.6563 509.6514,307.8516 524.6514,307.8516 L534.6514,307.8516 " fill="none" style="stroke:#181818;stroke-width:1;"/><rect fill="#F1F1F1" height="37.6094" rx="12.5" ry="12.5" style="stroke:#181818;stroke-width:1.5;" width="90" x="534.6514" y="346.6563"/><text fill="#000000" font-family="sans-serif" font-size="14" lengthAdjust="spacing" textLength="70" x="544.6514" y="371.1895">&#20004;&#20010;&#21361;&#38505;&#27969;</text><path d="M484.6514,336.6563 L494.6514,336.6563 C509.6514,336.6563 509.6514,365.4609 524.6514,365.4609 L534.6514,365.4609 " fill="none" style="stroke:#181818;stroke-width:1;"/><path d="M146.6963,221.4375 L156.6963,221.4375 C171.6963,221.4375 171.6963,336.6563 186.6963,336.6563 L196.6963,336.6563 " fill="none" style="stroke:#181818;stroke-width:1;"/><!--SRC=[xLTRQzj857wVNp6bBqcA7ISneOIof7OJjYKkeNRxFfQcyZIZ6J4QkNYNGbC8wON2igMNxS8-B5dOb2NTK5goJPhzCrOSF_Klx95a9L8MMMeVbpN6IEVxvZjdvbmaBxgQA6qpOTh4GUWS4mRtJ8hBvUdew-eUfzCE9q9xDYy5p19GIw6zpC26a6QQKppOEkmVl3vwztpmysDSmlx67_x6hh_poD_u7Mxx7xU6zr_xlpmPF7ux-FG6BF1xzFpFuSkTuQ-l49fAtNy-UBWwLvdxVF08OVXCOV_fxl2dxU7suN3x0n01F_wq7rv4Z8ZLt_yj8Xwz-0i2WMj_vrqo45YHe1___SFnuRF1xduKqmcIHFtrJNzlFGizUlkZ_-m4dHhjylZ1Pl_ZaoZCuURJhmzpxBxnXQBkzkxtzzwCFBvVJo5RAGGjKYY4k1WMqxLnAKpvDsXakCA8fOYDlmUzSfjxDBp2k4QCDKj9JvXroQN2d5aT7U20tWku9b5hYfePz14Qaor5gHYd718Ix5uEkHTpfIB2oWew0cEguoc7Pr4ZCAPcRoonAINTBBNpoykrMhqUCtkKStatWnk18HMLRS94gqFjM7XP2jratr4yLq41JcsdGrpcvfzbabt9eBjhlJ2bIUxi-BDCKcjWCZfGW8M2OPQGYXR8AyOhJD2pzbE9Wcx7IWLYGaY32frrDY9CIfI2oDJcm3cZ2iqJnMOeTfArKrXBcsWP1IyqU6DI45x_KkwgeWvH9B1yoRBBRQbqNjaLrT8QygxpEgsWMbtQq6uwgnn6AxFaWlG9Qa56GJHvcEEcLbucJKgTP4Ea7Ip156rpvdQoHrvYVThRtGxJPyycmyrrgVCzXRioUaGKs9L1JAfFd173O6PspQT6SPxoRMX5Dz7VS6_G1hb3lPmkbnn2KD9CL61EZyKhGZ-ET9bcNNhPIBJ3lyOvuRJeHawt0BaWkT8sWoTeCFkBrDJeCHY8krxx3ZK2-QpJ8LruRbDLKBVB97HGA2tpb8DpBtpSfvC-tRZZUpLLoxdF40G_bwP7hoB_ltd-DzyyLuE_6pSRAxXBbHiqr4nvjZ9RBL-SQ1ADhyikdfd7bPc5QdMXEe_hpHOEu4aqqRZQmgxqO9vW4xfDiRONbE0akaQw1D_me21jke23kubMOn8tbs8ZNX9TfgImeGZHjLkDY8I_bRhfI1sIvwkb6jEuIHM4XMyrq1LwctXSmr93canO2_XcQxbq4Qr0iNh40aSm7kfGnLhr06l-0m00]--></g></svg>