<svg xmlns="http://www.w3.org/2000/svg" xmlns:xlink="http://www.w3.org/1999/xlink" contentStyleType="text/css" height="348px" preserveAspectRatio="none" style="width:928px;height:348px;background:#FFFFFF;" version="1.1" viewBox="0 0 928 348" width="928px" zoomAndPan="magnify"><title>&#31038;&#20250;&#27861;&#30410; - &#31038;&#20250;&#31209;&#24207; - &#22952;&#23475;&#21496;&#27861;&#32618; - &#24110;&#21161;&#27585;&#28781;&#12289;&#20266;&#36896;&#35777;&#25454;&#32618;</title><defs/><g><text fill="#000000" font-family="sans-serif" font-size="14" font-weight="bold" lengthAdjust="spacing" textLength="369.3867" x="278.1548" y="34.5332">&#31038;&#20250;&#27861;&#30410; - &#31038;&#20250;&#31209;&#24207; - &#22952;&#23475;&#21496;&#27861;&#32618; - &#24110;&#21161;&#27585;&#28781;&#12289;&#20266;&#36896;&#35777;&#25454;&#32618;</text><rect fill="#F1F1F1" height="37.6094" rx="12.5" ry="12.5" style="stroke:#181818;stroke-width:1.5;" width="220.6963" x="10" y="173.8281"/><text fill="#000000" font-family="sans-serif" font-size="14" lengthAdjust="spacing" textLength="200.6963" x="20" y="198.3613">&#24110;&#21161;&#27585;&#28781;&#12289;&#20266;&#36896;&#35777;&#25454;&#32618;&#65288;P347&#65289;</text><rect fill="#F1F1F1" height="37.6094" rx="12.5" ry="12.5" style="stroke:#181818;stroke-width:1.5;" width="48" x="280.6963" y="58.6094"/><text fill="#000000" font-family="sans-serif" font-size="14" lengthAdjust="spacing" textLength="28" x="290.6963" y="83.1426">&#21069;&#25552;</text><rect fill="#F1F1F1" height="37.6094" rx="12.5" ry="12.5" style="stroke:#181818;stroke-width:1.5;" width="496" x="378.6963" y="58.6094"/><text fill="#000000" font-family="sans-serif" font-size="14" lengthAdjust="spacing" textLength="476" x="388.6963" y="83.1426">&#32463;&#24403;&#20107;&#20154;&#65288;&#29359;&#32618;&#23244;&#30097;&#20154;&#12289;&#34987;&#21578;&#20154;&#65289;&#21516;&#24847;&#65292;&#24110;&#21161;&#20854;&#27585;&#28781;&#26080;&#32618;&#35777;&#25454;&#12289;&#20266;&#36896;&#19981;&#21033;&#35777;&#25454;</text><path d="M328.6963,77.4141 L338.6963,77.4141 C353.6963,77.4141 353.6963,77.4141 368.6963,77.4141 L378.6963,77.4141 " fill="none" style="stroke:#181818;stroke-width:1;"/><path d="M230.6963,192.6328 L240.6963,192.6328 C255.6963,192.6328 255.6963,77.4141 270.6963,77.4141 L280.6963,77.4141 " fill="none" style="stroke:#181818;stroke-width:1;"/><rect fill="#F1F1F1" height="37.6094" rx="12.5" ry="12.5" style="stroke:#181818;stroke-width:1.5;" width="48" x="280.6963" y="202.6328"/><text fill="#000000" font-family="sans-serif" font-size="14" lengthAdjust="spacing" textLength="28" x="290.6963" y="227.166">&#39046;&#22495;</text><rect fill="#F1F1F1" height="37.6094" rx="12.5" ry="12.5" style="stroke:#181818;stroke-width:1.5;" width="76" x="378.6963" y="145.0234"/><text fill="#000000" font-family="sans-serif" font-size="14" lengthAdjust="spacing" textLength="56" x="388.6963" y="169.5566">&#21009;&#20107;&#35785;&#35772;</text><rect fill="#F1F1F1" height="37.6094" rx="12.5" ry="12.5" style="stroke:#181818;stroke-width:1.5;" width="48" x="504.6963" y="116.2188"/><text fill="#000000" font-family="sans-serif" font-size="14" lengthAdjust="spacing" textLength="28" x="514.6963" y="140.752">&#32467;&#35770;</text><rect fill="#F1F1F1" height="37.6094" rx="12.5" ry="12.5" style="stroke:#181818;stroke-width:1.5;" width="76" x="602.6963" y="116.2188"/><text fill="#000000" font-family="sans-serif" font-size="14" lengthAdjust="spacing" textLength="56" x="612.6963" y="140.752">&#26500;&#25104;&#26412;&#32618;</text><path d="M552.6963,135.0234 L562.6963,135.0234 C577.6963,135.0234 577.6963,135.0234 592.6963,135.0234 L602.6963,135.0234 " fill="none" style="stroke:#181818;stroke-width:1;"/><path d="M454.6963,163.8281 L464.6963,163.8281 C479.6963,163.8281 479.6963,135.0234 494.6963,135.0234 L504.6963,135.0234 " fill="none" style="stroke:#181818;stroke-width:1;"/><rect fill="#F1F1F1" height="37.6094" rx="12.5" ry="12.5" style="stroke:#181818;stroke-width:1.5;" width="48" x="504.6963" y="173.8281"/><text fill="#000000" font-family="sans-serif" font-size="14" lengthAdjust="spacing" textLength="28" x="514.6963" y="198.3613">&#29702;&#30001;</text><rect fill="#F1F1F1" height="37.6094" rx="12.5" ry="12.5" style="stroke:#181818;stroke-width:1.5;" width="188" x="602.6963" y="173.8281"/><text fill="#000000" font-family="sans-serif" font-size="14" lengthAdjust="spacing" textLength="168" x="612.6963" y="198.3613">&#22952;&#23475;&#20102;&#21009;&#20107;&#21496;&#27861;&#23458;&#35266;&#20844;&#27491;&#24615;</text><path d="M552.6963,192.6328 L562.6963,192.6328 C577.6963,192.6328 577.6963,192.6328 592.6963,192.6328 L602.6963,192.6328 " fill="none" style="stroke:#181818;stroke-width:1;"/><path d="M454.6963,163.8281 L464.6963,163.8281 C479.6963,163.8281 479.6963,192.6328 494.6963,192.6328 L504.6963,192.6328 " fill="none" style="stroke:#181818;stroke-width:1;"/><path d="M328.6963,221.4375 L338.6963,221.4375 C353.6963,221.4375 353.6963,163.8281 368.6963,163.8281 L378.6963,163.8281 " fill="none" style="stroke:#181818;stroke-width:1;"/><rect fill="#F1F1F1" height="37.6094" rx="12.5" ry="12.5" style="stroke:#181818;stroke-width:1.5;" width="146" x="378.6963" y="260.2422"/><text fill="#000000" font-family="sans-serif" font-size="14" lengthAdjust="spacing" textLength="126" x="388.6963" y="284.7754">&#27665;&#20107;&#35785;&#35772;&#12289;&#34892;&#25919;&#35785;&#35772;</text><rect fill="#F1F1F1" height="37.6094" rx="12.5" ry="12.5" style="stroke:#181818;stroke-width:1.5;" width="48" x="574.6963" y="231.4375"/><text fill="#000000" font-family="sans-serif" font-size="14" lengthAdjust="spacing" textLength="28" x="584.6963" y="255.9707">&#32467;&#35770;</text><rect fill="#F1F1F1" height="37.6094" rx="12.5" ry="12.5" style="stroke:#181818;stroke-width:1.5;" width="90" x="672.6963" y="231.4375"/><text fill="#000000" font-family="sans-serif" font-size="14" lengthAdjust="spacing" textLength="70" x="682.6963" y="255.9707">&#19981;&#26500;&#25104;&#26412;&#32618;</text><path d="M622.6963,250.2422 L632.6963,250.2422 C647.6963,250.2422 647.6963,250.2422 662.6963,250.2422 L672.6963,250.2422 " fill="none" style="stroke:#181818;stroke-width:1;"/><path d="M524.6963,279.0469 L534.6963,279.0469 C549.6963,279.0469 549.6963,250.2422 564.6963,250.2422 L574.6963,250.2422 " fill="none" style="stroke:#181818;stroke-width:1;"/><rect fill="#F1F1F1" height="37.6094" rx="12.5" ry="12.5" style="stroke:#181818;stroke-width:1.5;" width="48" x="574.6963" y="289.0469"/><text fill="#000000" font-family="sans-serif" font-size="14" lengthAdjust="spacing" textLength="28" x="584.6963" y="313.5801">&#29702;&#30001;</text><rect fill="#F1F1F1" height="37.6094" rx="12.5" ry="12.5" style="stroke:#181818;stroke-width:1.5;" width="244" x="672.6963" y="289.0469"/><text fill="#000000" font-family="sans-serif" font-size="14" lengthAdjust="spacing" textLength="224" x="682.6963" y="313.5801">&#27665;&#20107;&#12289;&#34892;&#25919;&#35785;&#35772;&#23562;&#37325;&#24403;&#20107;&#20154;&#30340;&#22788;&#20998;&#26435;</text><path d="M622.6963,307.8516 L632.6963,307.8516 C647.6963,307.8516 647.6963,307.8516 662.6963,307.8516 L672.6963,307.8516 " fill="none" style="stroke:#181818;stroke-width:1;"/><path d="M524.6963,279.0469 L534.6963,279.0469 C549.6963,279.0469 549.6963,307.8516 564.6963,307.8516 L574.6963,307.8516 " fill="none" style="stroke:#181818;stroke-width:1;"/><path d="M328.6963,221.4375 L338.6963,221.4375 C353.6963,221.4375 353.6963,279.0469 368.6963,279.0469 L378.6963,279.0469 " fill="none" style="stroke:#181818;stroke-width:1;"/><path d="M230.6963,192.6328 L240.6963,192.6328 C255.6963,192.6328 255.6963,221.4375 270.6963,221.4375 L280.6963,221.4375 " fill="none" style="stroke:#181818;stroke-width:1;"/><!--SRC=[xLVRRjj647tdLspH5xk0v4i4Dp22mf5YemsimAYKlA_8ZRGnkIiibmhKee3TEAwis923f2sGNfAwGLtd8gS8K1YgqdvCHKf-yYzqIEf2gQ4ezw5F4Gn1EtDspkpCd2MzP4eif46PPk2Yehn7cQfR6a7n-4p_pvHbdSmKTSoaPUWn5nm3TCopnodO54LIgHFKVlfdg_d8UVrr-xigYdMNxSCZkr63fVtBhtRzjLqxSG5ldhcMaxfTFNAEDzkRB__Us6mrdvrkFEaSRpfxTG0eoWSHYBDcPUr2uiEpvew2u0FmdJsdjkyjV4FxZvhzva6hSQ_LQ02wNJs6RVRptVOtzy424Ji7p-txLS-xO-_lEbkri-QkpshV_TqdThvz0hjyrduIhPCzktBa6xlifmVRzkF70NQx0YptEiSxdNgpR-ubzg1JRmmPVOVpuvPJsNU-V-5MO6JF_dRxuMzlsUDNjjNOzWdz4jlrWyxXb_RT5yxBdvsDmq1Qpgj1Mcu9Vjfr7lvrlYpXzFybKPzvXDD-LJtzQg_VflQZBVlfbbtPTdwueoXB14QpDvvBmzDwoPl0ZvIkuGh5UO4Dz3aGntEwHRnV22MnkfuNt69QYkjS89tc2zBrW_SB5wjXiIw85WBlUdlWl224ZOli0GBeSWIutCDoWLa-B6dVsOCMBL7Kmw2-imSDFrZWK8AROT7UNrb99bEf7h9CT9tV3i7wJW-gn0rCMRP0Z5xW5SvaXdv6q8LPnVKJerZ09ZMZQnb4puR0pVMorz8WTdvyBOFG99ZK0apeHCdGFEE2JD1NX5Of8wFsGOW9QSU6SeCnnbN2P5XjcDSKlmM-AQS3PYGgYCVFJHMqtxM1Mt83I-udpoImKSwmdZelTasG8XROjPnds-KS5p9gx2QD9INqNKOfRS9eAMw0t6JOE7HtXeLpsyT87ZeAGOF577ThHNLI8wGO5CGmmJBSeZcTceNmAo-mVvZjTe7AqTg4q5pZCfh9EvLQnco2KwbO8x9FXbMLQk4pFtGLHqM-2L8q0_g6jKhI-1Qn8bJETKX1S2qmWH4Qw-tmU8hSf9AMo6Kr88T_NUTO9vCUP704w0ME36rGU8AwT_yaCzLz3Bh1JIjtYwXk-B3gu18yjucOC6w9Sb2G5vf7HNRhFd6v1pVzi737QtLebYEV8GfyNPhflegyUn5-zoByFxm8hxd_Z5rFhw8I4QQhxxdu_Eny8dvnAeCbkiPBQ6u1pSuj9XABYGMKocIHwvvMfjAVP979BRZUa0RY5pHdkOgOLgxY4aQVMg0FWomYTpMLJK-Zp7BFY9PPYGhE3D24SlL6sWUXZxdC5Bdqm0k9M99Ab242qa8tqieLSXDRkeIjAjSeoo-YwzcLs4Lb5RHZuJmGmMsL0b59KGPVvXy0]--></g></svg>