<svg xmlns="http://www.w3.org/2000/svg" xmlns:xlink="http://www.w3.org/1999/xlink" contentStyleType="text/css" height="924px" preserveAspectRatio="none" style="width:1121px;height:924px;background:#FFFFFF;" version="1.1" viewBox="0 0 1121 924" width="1121px" zoomAndPan="magnify"><title>&#31038;&#20250;&#27861;&#30410; - &#31038;&#20250;&#31209;&#24207; - &#22952;&#23475;&#21496;&#27861;&#32618; - &#24110;&#21161;&#27585;&#28781;&#12289;&#20266;&#36896;&#35777;&#25454;&#32618;&#65288;&#26500;&#25104;&#35201;&#20214;&#65289;</title><defs/><g><text fill="#000000" font-family="sans-serif" font-size="14" font-weight="bold" lengthAdjust="spacing" textLength="456.0117" x="331.2871" y="34.5332">&#31038;&#20250;&#27861;&#30410; - &#31038;&#20250;&#31209;&#24207; - &#22952;&#23475;&#21496;&#27861;&#32618; - &#24110;&#21161;&#27585;&#28781;&#12289;&#20266;&#36896;&#35777;&#25454;&#32618;&#65288;&#26500;&#25104;&#35201;&#20214;&#65289;</text><rect fill="#F1F1F1" height="37.6094" rx="12.5" ry="12.5" style="stroke:#181818;stroke-width:1.5;" width="262.6963" x="10" y="461.875"/><text fill="#000000" font-family="sans-serif" font-size="14" lengthAdjust="spacing" textLength="242.6963" x="20" y="486.4082">&#24110;&#21161;&#65288;&#35841;&#65289;&#27585;&#28781;&#12289;&#20266;&#36896;&#35777;&#25454;&#32618;&#65288;P347&#65289;</text><rect fill="#F1F1F1" height="37.6094" rx="12.5" ry="12.5" style="stroke:#181818;stroke-width:1.5;" width="76" x="322.6963" y="87.4141"/><text fill="#000000" font-family="sans-serif" font-size="14" lengthAdjust="spacing" textLength="56" x="332.6963" y="111.9473">&#34892;&#20026;&#20027;&#20307;</text><rect fill="#F1F1F1" height="37.6094" rx="12.5" ry="12.5" style="stroke:#181818;stroke-width:1.5;" width="76" x="448.6963" y="58.6094"/><text fill="#000000" font-family="sans-serif" font-size="14" lengthAdjust="spacing" textLength="56" x="458.6963" y="83.1426">&#19968;&#33324;&#20027;&#20307;</text><path d="M398.6963,106.2188 L408.6963,106.2188 C423.6963,106.2188 423.6963,77.4141 438.6963,77.4141 L448.6963,77.4141 " fill="none" style="stroke:#181818;stroke-width:1;"/><rect fill="#F1F1F1" height="37.6094" rx="12.5" ry="12.5" style="stroke:#181818;stroke-width:1.5;" width="76" x="448.6963" y="116.2188"/><text fill="#000000" font-family="sans-serif" font-size="14" lengthAdjust="spacing" textLength="56" x="458.6963" y="140.752">&#37327;&#21009;&#36523;&#20221;</text><rect fill="#F1F1F1" height="37.6094" rx="12.5" ry="12.5" style="stroke:#181818;stroke-width:1.5;" width="174" x="574.6963" y="116.2188"/><text fill="#000000" font-family="sans-serif" font-size="14" lengthAdjust="spacing" textLength="154" x="584.6963" y="140.752">&#21496;&#27861;&#24037;&#20316;&#20154;&#21592;&#65292;&#20174;&#37325;&#22788;&#32602;</text><path d="M524.6963,135.0234 L534.6963,135.0234 C549.6963,135.0234 549.6963,135.0234 564.6963,135.0234 L574.6963,135.0234 " fill="none" style="stroke:#181818;stroke-width:1;"/><path d="M398.6963,106.2188 L408.6963,106.2188 C423.6963,106.2188 423.6963,135.0234 438.6963,135.0234 L448.6963,135.0234 " fill="none" style="stroke:#181818;stroke-width:1;"/><path d="M272.6963,480.6797 L282.6963,480.6797 C297.6963,480.6797 297.6963,106.2188 312.6963,106.2188 L322.6963,106.2188 " fill="none" style="stroke:#181818;stroke-width:1;"/><rect fill="#F1F1F1" height="37.6094" rx="12.5" ry="12.5" style="stroke:#181818;stroke-width:1.5;" width="85.3242" x="322.6963" y="231.4375"/><text fill="#000000" font-family="sans-serif" font-size="14" lengthAdjust="spacing" textLength="65.3242" x="332.6963" y="255.9707">&#8220;&#24110;&#21161;&#8221;&#34892;&#20026;</text><rect fill="#F1F1F1" height="37.6094" rx="12.5" ry="12.5" style="stroke:#181818;stroke-width:1.5;" width="76" x="458.0205" y="231.4375"/><text fill="#000000" font-family="sans-serif" font-size="14" lengthAdjust="spacing" textLength="56" x="468.0205" y="255.9707">&#25193;&#22823;&#35299;&#37322;</text><rect fill="#F1F1F1" height="37.6094" rx="12.5" ry="12.5" style="stroke:#181818;stroke-width:1.5;" width="118" x="584.0205" y="173.8281"/><text fill="#000000" font-family="sans-serif" font-size="14" lengthAdjust="spacing" textLength="98" x="594.0205" y="198.3613">&#29421;&#20041;&#30340;&#24110;&#21161;&#34892;&#20026;</text><path d="M534.0205,250.2422 L544.0205,250.2422 C559.0205,250.2422 559.0205,192.6328 574.0205,192.6328 L584.0205,192.6328 " fill="none" style="stroke:#181818;stroke-width:1;"/><rect fill="#F1F1F1" height="37.6094" rx="12.5" ry="12.5" style="stroke:#181818;stroke-width:1.5;" width="76" x="584.0205" y="231.4375"/><text fill="#000000" font-family="sans-serif" font-size="14" lengthAdjust="spacing" textLength="56" x="594.0205" y="255.9707">&#23454;&#34892;&#34892;&#20026;</text><path d="M534.0205,250.2422 L544.0205,250.2422 C559.0205,250.2422 559.0205,250.2422 574.0205,250.2422 L584.0205,250.2422 " fill="none" style="stroke:#181818;stroke-width:1;"/><rect fill="#F1F1F1" height="37.6094" rx="12.5" ry="12.5" style="stroke:#181818;stroke-width:1.5;" width="76" x="584.0205" y="289.0469"/><text fill="#000000" font-family="sans-serif" font-size="14" lengthAdjust="spacing" textLength="56" x="594.0205" y="313.5801">&#25945;&#21766;&#34892;&#20026;</text><path d="M534.0205,250.2422 L544.0205,250.2422 C559.0205,250.2422 559.0205,307.8516 574.0205,307.8516 L584.0205,307.8516 " fill="none" style="stroke:#181818;stroke-width:1;"/><path d="M408.0205,250.2422 L418.0205,250.2422 C433.0205,250.2422 433.0205,250.2422 448.0205,250.2422 L458.0205,250.2422 " fill="none" style="stroke:#181818;stroke-width:1;"/><path d="M272.6963,480.6797 L282.6963,480.6797 C297.6963,480.6797 297.6963,250.2422 312.6963,250.2422 L322.6963,250.2422 " fill="none" style="stroke:#181818;stroke-width:1;"/><rect fill="#F1F1F1" height="37.6094" rx="12.5" ry="12.5" style="stroke:#181818;stroke-width:1.5;" width="127.3242" x="322.6963" y="404.2656"/><text fill="#000000" font-family="sans-serif" font-size="14" lengthAdjust="spacing" textLength="107.3242" x="332.6963" y="428.7988">&#24110;&#21161;&#8220;&#23545;&#35937;&#8221;&#65288;&#35841;&#65289;</text><rect fill="#F1F1F1" height="37.6094" rx="12.5" ry="12.5" style="stroke:#181818;stroke-width:1.5;" width="62" x="500.0205" y="404.2656"/><text fill="#000000" font-family="sans-serif" font-size="14" lengthAdjust="spacing" textLength="42" x="510.0205" y="428.7988">&#24403;&#20107;&#20154;</text><rect fill="#F1F1F1" height="37.6094" rx="12.5" ry="12.5" style="stroke:#181818;stroke-width:1.5;" width="160" x="612.0205" y="346.6563"/><text fill="#000000" font-family="sans-serif" font-size="14" lengthAdjust="spacing" textLength="140" x="622.0205" y="371.1895">&#29359;&#32618;&#23244;&#30097;&#20154;&#65288;&#30475;&#23432;&#25152;&#65289;</text><path d="M562.0205,423.0703 L572.0205,423.0703 C587.0205,423.0703 587.0205,365.4609 602.0205,365.4609 L612.0205,365.4609 " fill="none" style="stroke:#181818;stroke-width:1;"/><rect fill="#F1F1F1" height="37.6094" rx="12.5" ry="12.5" style="stroke:#181818;stroke-width:1.5;" width="118" x="612.0205" y="404.2656"/><text fill="#000000" font-family="sans-serif" font-size="14" lengthAdjust="spacing" textLength="98" x="622.0205" y="428.7988">&#34987;&#21578;&#20154;&#65288;&#27861;&#24237;&#65289;</text><path d="M562.0205,423.0703 L572.0205,423.0703 C587.0205,423.0703 587.0205,423.0703 602.0205,423.0703 L612.0205,423.0703 " fill="none" style="stroke:#181818;stroke-width:1;"/><rect fill="#F1F1F1" height="37.6094" rx="12.5" ry="12.5" style="stroke:#181818;stroke-width:1.5;" width="62" x="612.0205" y="461.875"/><text fill="#000000" font-family="sans-serif" font-size="14" lengthAdjust="spacing" textLength="42" x="622.0205" y="486.4082">&#20849;&#29359;&#20154;</text><path d="M562.0205,423.0703 L572.0205,423.0703 C587.0205,423.0703 587.0205,480.6797 602.0205,480.6797 L612.0205,480.6797 " fill="none" style="stroke:#181818;stroke-width:1;"/><path d="M450.0205,423.0703 L460.0205,423.0703 C475.0205,423.0703 475.0205,423.0703 490.0205,423.0703 L500.0205,423.0703 " fill="none" style="stroke:#181818;stroke-width:1;"/><path d="M272.6963,480.6797 L282.6963,480.6797 C297.6963,480.6797 297.6963,423.0703 312.6963,423.0703 L322.6963,423.0703 " fill="none" style="stroke:#181818;stroke-width:1;"/><rect fill="#F1F1F1" height="37.6094" rx="12.5" ry="12.5" style="stroke:#181818;stroke-width:1.5;" width="85.3242" x="322.6963" y="548.2891"/><text fill="#000000" font-family="sans-serif" font-size="14" lengthAdjust="spacing" textLength="65.3242" x="332.6963" y="572.8223">&#24110;&#21161;&#8220;&#31867;&#22411;&#8221;</text><rect fill="#F1F1F1" height="37.6094" rx="12.5" ry="12.5" style="stroke:#181818;stroke-width:1.5;" width="76" x="458.0205" y="519.4844"/><text fill="#000000" font-family="sans-serif" font-size="14" lengthAdjust="spacing" textLength="56" x="468.0205" y="544.0176">&#27585;&#28781;&#35777;&#25454;</text><rect fill="#F1F1F1" height="37.6094" rx="12.5" ry="12.5" style="stroke:#181818;stroke-width:1.5;" width="76" x="584.0205" y="519.4844"/><text fill="#000000" font-family="sans-serif" font-size="14" lengthAdjust="spacing" textLength="56" x="594.0205" y="544.0176">&#25193;&#22823;&#35299;&#37322;</text><rect fill="#F1F1F1" height="37.6094" rx="12.5" ry="12.5" style="stroke:#181818;stroke-width:1.5;" width="76" x="710.0205" y="519.4844"/><text fill="#000000" font-family="sans-serif" font-size="14" lengthAdjust="spacing" textLength="56" x="720.0205" y="544.0176">&#38544;&#21311;&#35777;&#25454;</text><path d="M660.0205,538.2891 L670.0205,538.2891 C685.0205,538.2891 685.0205,538.2891 700.0205,538.2891 L710.0205,538.2891 " fill="none" style="stroke:#181818;stroke-width:1;"/><path d="M534.0205,538.2891 L544.0205,538.2891 C559.0205,538.2891 559.0205,538.2891 574.0205,538.2891 L584.0205,538.2891 " fill="none" style="stroke:#181818;stroke-width:1;"/><path d="M408.0205,567.0938 L418.0205,567.0938 C433.0205,567.0938 433.0205,538.2891 448.0205,538.2891 L458.0205,538.2891 " fill="none" style="stroke:#181818;stroke-width:1;"/><rect fill="#F1F1F1" height="37.6094" rx="12.5" ry="12.5" style="stroke:#181818;stroke-width:1.5;" width="76" x="458.0205" y="577.0938"/><text fill="#000000" font-family="sans-serif" font-size="14" lengthAdjust="spacing" textLength="56" x="468.0205" y="601.627">&#20266;&#36896;&#35777;&#25454;</text><rect fill="#F1F1F1" height="37.6094" rx="12.5" ry="12.5" style="stroke:#181818;stroke-width:1.5;" width="76" x="584.0205" y="577.0938"/><text fill="#000000" font-family="sans-serif" font-size="14" lengthAdjust="spacing" textLength="56" x="594.0205" y="601.627">&#25193;&#22823;&#35299;&#37322;</text><rect fill="#F1F1F1" height="37.6094" rx="12.5" ry="12.5" style="stroke:#181818;stroke-width:1.5;" width="76" x="710.0205" y="577.0938"/><text fill="#000000" font-family="sans-serif" font-size="14" lengthAdjust="spacing" textLength="56" x="720.0205" y="601.627">&#21464;&#36896;&#35777;&#25454;</text><path d="M660.0205,595.8984 L670.0205,595.8984 C685.0205,595.8984 685.0205,595.8984 700.0205,595.8984 L710.0205,595.8984 " fill="none" style="stroke:#181818;stroke-width:1;"/><path d="M534.0205,595.8984 L544.0205,595.8984 C559.0205,595.8984 559.0205,595.8984 574.0205,595.8984 L584.0205,595.8984 " fill="none" style="stroke:#181818;stroke-width:1;"/><path d="M408.0205,567.0938 L418.0205,567.0938 C433.0205,567.0938 433.0205,595.8984 448.0205,595.8984 L458.0205,595.8984 " fill="none" style="stroke:#181818;stroke-width:1;"/><path d="M272.6963,480.6797 L282.6963,480.6797 C297.6963,480.6797 297.6963,567.0938 312.6963,567.0938 L322.6963,567.0938 " fill="none" style="stroke:#181818;stroke-width:1;"/><rect fill="#F1F1F1" height="37.6094" rx="12.5" ry="12.5" style="stroke:#181818;stroke-width:1.5;" width="48" x="322.6963" y="749.9219"/><text fill="#000000" font-family="sans-serif" font-size="14" lengthAdjust="spacing" textLength="28" x="332.6963" y="774.4551">&#35777;&#25454;</text><rect fill="#F1F1F1" height="37.6094" rx="12.5" ry="12.5" style="stroke:#181818;stroke-width:1.5;" width="48" x="420.6963" y="749.9219"/><text fill="#000000" font-family="sans-serif" font-size="14" lengthAdjust="spacing" textLength="28" x="430.6963" y="774.4551">&#33539;&#22260;</text><rect fill="#F1F1F1" height="37.6094" rx="12.5" ry="12.5" style="stroke:#181818;stroke-width:1.5;" width="202" x="518.6963" y="692.3125"/><text fill="#000000" font-family="sans-serif" font-size="14" lengthAdjust="spacing" textLength="182" x="528.6963" y="716.8457">&#23454;&#29289;&#35777;&#25454;&#21644;&#23454;&#20307;&#21270;&#30340;&#35328;&#35789;&#35777;&#25454;</text><rect fill="#F1F1F1" height="37.6094" rx="12.5" ry="12.5" style="stroke:#181818;stroke-width:1.5;" width="230" x="770.6963" y="634.7031"/><text fill="#000000" font-family="sans-serif" font-size="14" lengthAdjust="spacing" textLength="210" x="780.6963" y="659.2363">&#20316;&#20026;&#35270;&#21548;&#36164;&#26009;&#30340;&#35777;&#20154;&#35777;&#35328;&#65288;&#35777;&#20154;&#65289;</text><path d="M720.6963,711.1172 L730.6963,711.1172 C745.6963,711.1172 745.6963,653.5078 760.6963,653.5078 L770.6963,653.5078 " fill="none" style="stroke:#181818;stroke-width:1;"/><rect fill="#F1F1F1" height="37.6094" rx="12.5" ry="12.5" style="stroke:#181818;stroke-width:1.5;" width="160" x="770.6963" y="692.3125"/><text fill="#000000" font-family="sans-serif" font-size="14" lengthAdjust="spacing" textLength="140" x="780.6963" y="716.8457">&#34987;&#23475;&#20154;&#38472;&#36848;&#65288;&#21463;&#23475;&#20154;&#65289;</text><path d="M720.6963,711.1172 L730.6963,711.1172 C745.6963,711.1172 745.6963,711.1172 760.6963,711.1172 L770.6963,711.1172 " fill="none" style="stroke:#181818;stroke-width:1;"/><rect fill="#F1F1F1" height="37.6094" rx="12.5" ry="12.5" style="stroke:#181818;stroke-width:1.5;" width="160" x="770.6963" y="749.9219"/><text fill="#000000" font-family="sans-serif" font-size="14" lengthAdjust="spacing" textLength="140" x="780.6963" y="774.4551">&#23244;&#30097;&#20154;&#20379;&#36848;&#65288;&#26045;&#23475;&#20154;&#65289;</text><path d="M720.6963,711.1172 L730.6963,711.1172 C745.6963,711.1172 745.6963,768.7266 760.6963,768.7266 L770.6963,768.7266 " fill="none" style="stroke:#181818;stroke-width:1;"/><path d="M468.6963,768.7266 L478.6963,768.7266 C493.6963,768.7266 493.6963,711.1172 508.6963,711.1172 L518.6963,711.1172 " fill="none" style="stroke:#181818;stroke-width:1;"/><rect fill="#F1F1F1" height="42.75" rx="12.5" ry="12.5" style="stroke:#181818;stroke-width:1.5;" width="100.8896" x="518.6963" y="833.7656"/><text fill="#000000" font-family="sans-serif" font-size="14" lengthAdjust="spacing" textLength="56" x="528.6963" y="863.4395">&#19981;&#21253;&#25324;&#20154;</text><path d="M601.1469,854.2668 L608.2839,847.1303 C608.8533,846.561 608.8533,845.6375 608.2839,845.0682 C607.714,844.4983 606.7912,844.4983 606.2219,845.0682 L599.0848,852.2047 L591.9483,845.0682 C591.3789,844.4983 590.4549,844.4983 589.8862,845.0682 C589.3163,845.6375 589.3163,846.561 589.8862,847.1303 L597.0227,854.2668 L589.8699,861.4202 C589.2999,861.9901 589.2999,862.913 589.8699,863.4823 C590.1545,863.767 590.5279,863.9093 590.9012,863.9093 C591.2745,863.9093 591.6479,863.767 591.9325,863.4823 L599.0854,856.3289 L606.2219,863.4654 C606.5065,863.75 606.8799,863.8924 607.2532,863.8924 C607.6265,863.8924 607.9993,863.75 608.2845,863.4654 C608.8539,862.8955 608.8539,861.9726 608.2845,861.4033 L601.1469,854.2668 " fill="#FE0000" style="stroke:;stroke-width:0;stroke-dasharray:;"/><rect fill="#F1F1F1" height="37.6094" rx="12.5" ry="12.5" style="stroke:#181818;stroke-width:1.5;" width="244" x="669.5859" y="836.3359"/><text fill="#000000" font-family="sans-serif" font-size="14" lengthAdjust="spacing" textLength="224" x="679.5859" y="860.8691">&#23558;&#35777;&#20154;&#21644;&#34987;&#23475;&#20154;&#34255;&#36215;&#26469;&#65292;&#38459;&#27490;&#20854;&#20316;&#35777;</text><rect fill="#F1F1F1" height="37.6094" rx="12.5" ry="12.5" style="stroke:#181818;stroke-width:1.5;" width="90" x="963.5859" y="807.5313"/><text fill="#000000" font-family="sans-serif" font-size="14" lengthAdjust="spacing" textLength="70" x="973.5859" y="832.0645">&#19981;&#26500;&#25104;&#26412;&#32618;</text><path d="M913.5859,855.1406 L923.5859,855.1406 C938.5859,855.1406 938.5859,826.3359 953.5859,826.3359 L963.5859,826.3359 " fill="none" style="stroke:#181818;stroke-width:1;"/><rect fill="#F1F1F1" height="37.6094" rx="12.5" ry="12.5" style="stroke:#181818;stroke-width:1.5;" width="146" x="963.5859" y="865.1406"/><text fill="#000000" font-family="sans-serif" font-size="14" lengthAdjust="spacing" textLength="126" x="973.5859" y="889.6738">&#26500;&#25104;&#12302;&#22952;&#23475;&#20316;&#35777;&#32618;&#12303;</text><path d="M913.5859,855.1406 L923.5859,855.1406 C938.5859,855.1406 938.5859,883.9453 953.5859,883.9453 L963.5859,883.9453 " fill="none" style="stroke:#181818;stroke-width:1;"/><path d="M619.5859,855.1406 L629.5859,855.1406 C644.5859,855.1406 644.5859,855.1406 659.5859,855.1406 L669.5859,855.1406 " fill="none" style="stroke:#181818;stroke-width:1;"/><path d="M468.6963,768.7266 L478.6963,768.7266 C493.6963,768.7266 493.6963,855.1406 508.6963,855.1406 L518.6963,855.1406 " fill="none" style="stroke:#181818;stroke-width:1;"/><path d="M370.6963,768.7266 L380.6963,768.7266 C395.6963,768.7266 395.6963,768.7266 410.6963,768.7266 L420.6963,768.7266 " fill="none" style="stroke:#181818;stroke-width:1;"/><path d="M272.6963,480.6797 L282.6963,480.6797 C297.6963,480.6797 297.6963,768.7266 312.6963,768.7266 L322.6963,768.7266 " fill="none" style="stroke:#181818;stroke-width:1;"/><!--SRC=[xLXjJnDP5Fu-l-9k_08cb1S9QmWnI8Ni6Z1aYtw_dLxBo7HkCxsjMpURj5dUAHRM5NcJh2wA21I8gsAX-bzaxdJun5_OCpDjcHQcBHyteI4DSyvpdlDspxaCtH66LHQIb408XmNX1qaHvMY088-dkVGJON6PD8TbhB1eI6uomKs0RhBa7WbaWi0a9XEKN_-g7Ith7vxdLwPHK-4nlx79isbuv6_VySm7dZum0RdtfkGWmwStzTraFhbpd4XgH-zF4dyRkqbzDWE0qwD9VMrKdvmptYQrmq-dHrE2SBrW0pfZBmcYAiQ3Dzf_D8qGVAuZurLAEyXg1uTQxfabiiNQGSAOt3udFfb8yybv8xkb7UPAObjb9y0_lz5ogreso-SNJuzIsk7JaubPlZwQpoqN77vFhDgnVa-yj9qx-FMfJRw-OMpySp8nNS6VdzdHlapbbqTjwmhJGWoPDP1VgDAVB_6_nXsgOidCU7Q_6Fkl89vI-HmXyTmpBJi36LN6CxqBzUHRgVp2F6Z1DBywmpEJ-bJ2IL2eykijFZzjmymgPNVEO_ZOFd0M7Jd2o-yVyhKP2CzPAAk_TbihCtMhOQ65otCyzQt24XhkE2UN8-JfnN9BIBUItKZzmLV-FT-j_DIcZUL_fk0H3XjFBK2FZNS9OtVsWcWAmS8HEyWQ6-DyRjluEAelB9askqae7do3iTb8wx6op6Vjo7m0zSdIfF5j3z0y_SAMN6nGQhFsTSKsq1To5nkOipFBKsFwp3PeKTSrbGGwV-syTH7hthWT9MHV2ibuaJO-VjPVle7nELayr7TUyx5Fa30Wpr6K_DaBGL_TXYFfWh8Xnucdzhwn6G5-d4WByEaciEkA-wwxVFrrMIljbb0Gt95mKCKXz1juylZbAB5-GwW7YoD1bKQLW9VAL4Mo51ncfXwqlvlO05P7e1eky8As20wgX2ZLc2s00nsl0OuNiLJ5Ij0jQ5jPX8QZQbXsWzhA8jGzCKTIAesuiLthw-lfyNgBo3YHPVhO1MihBQZW2M596HeceI9n7rMOJtf2q8qMmTIJK7WOHwH8xLewqIqkyCX8t6gf4zjMlPPEQ0-8n64uZdK58mKLgf8w-efGlwIGIlaPHPrkgrAPP8f2HQ8mjzeeLbFi5jWYlmoO2bOO7ZisKPLANJjJCnh2ZDh1AmoyILJ1ilUos46LXB6AJSbbp6xxgSfg7RjwkHY3lhDQarOdcvU6ODoOst4eMBhHcUrJI10w2gJEObRRMhKw6I0ax1o8SWUzi4NziXGPTbzv3ljoRu-79LPP6nStzoYhxSdAIenZfOwiH1mWhEGCYw8KS3_pPQku5lD36CM8OxxXMIG3-169rfXoAaC8AWquJc2D6IjQM7x2D28nAKPkYuvnEBVEiKpgJUGi1UW5haaTak06DNT_FMUgS0sQv96e_n4HJNgtwk0OtDj4hPCt9b6O88kQrc8swrvtkSysVVdWLf_LihDSymuHuAkhkV2doDMRrTMRrTMRrTMRrV_jpMhG_7VH_O5-52DgnBmmMZrjBMtjdfiDFipGFHf3hHsefRMplRsplGDvVKF8L3SA3GC_3w48ZS9zYG9mcwYIFsgks4RXBevXz4iK5cw8T2BpgM5ee17vUej2rAl499Kg8LYomjq70pO8_KIPBqoP1UveR-gH6F8H5S923mQ4E-GXZieCJ4KQa9HW9xe_rDTqK-Y7PHp5GN04rvyNjZHJuw3p_GS0]--></g></svg>