<svg xmlns="http://www.w3.org/2000/svg" xmlns:xlink="http://www.w3.org/1999/xlink" contentStyleType="text/css" height="579px" preserveAspectRatio="none" style="width:1313px;height:579px;background:#FFFFFF;" version="1.1" viewBox="0 0 1313 579" width="1313px" zoomAndPan="magnify"><title>&#31038;&#20250;&#27861;&#30410; - &#31038;&#20250;&#31209;&#24207; - &#22952;&#23475;&#21496;&#27861;&#32618; - &#20266;&#35777;&#32618;</title><defs/><g><text fill="#000000" font-family="sans-serif" font-size="14" font-weight="bold" lengthAdjust="spacing" textLength="268.3242" x="520.8481" y="34.5332">&#31038;&#20250;&#27861;&#30410; - &#31038;&#20250;&#31209;&#24207; - &#22952;&#23475;&#21496;&#27861;&#32618; - &#20266;&#35777;&#32618;</text><rect fill="#F1F1F1" height="37.6094" rx="12.5" ry="12.5" style="stroke:#181818;stroke-width:1.5;" width="122.6963" x="10" y="289.0469"/><text fill="#000000" font-family="sans-serif" font-size="14" lengthAdjust="spacing" textLength="102.6963" x="20" y="313.5801">&#20266;&#35777;&#32618;&#65288;P345&#65289;</text><rect fill="#F1F1F1" height="37.6094" rx="12.5" ry="12.5" style="stroke:#181818;stroke-width:1.5;" width="76" x="182.6963" y="202.6328"/><text fill="#000000" font-family="sans-serif" font-size="14" lengthAdjust="spacing" textLength="56" x="192.6963" y="227.166">&#34892;&#20026;&#20027;&#20307;</text><rect fill="#F1F1F1" height="37.6094" rx="12.5" ry="12.5" style="stroke:#181818;stroke-width:1.5;" width="104" x="308.6963" y="202.6328"/><text fill="#000000" font-family="sans-serif" font-size="14" lengthAdjust="spacing" textLength="84" x="318.6963" y="227.166">&#21009;&#20107;&#35785;&#35772;&#20013;&#30340;</text><rect fill="#F1F1F1" height="37.6094" rx="12.5" ry="12.5" style="stroke:#181818;stroke-width:1.5;" width="48" x="462.6963" y="116.2188"/><text fill="#000000" font-family="sans-serif" font-size="14" lengthAdjust="spacing" textLength="28" x="472.6963" y="140.752">&#35777;&#20154;</text><rect fill="#F1F1F1" height="37.6094" rx="12.5" ry="12.5" style="stroke:#181818;stroke-width:1.5;" width="132" x="560.6963" y="87.4141"/><text fill="#000000" font-family="sans-serif" font-size="14" lengthAdjust="spacing" textLength="112" x="570.6963" y="111.9473">&#30693;&#36947;&#26696;&#20214;&#24773;&#20917;&#30340;&#20154;</text><rect fill="#F1F1F1" height="37.6094" rx="12.5" ry="12.5" style="stroke:#181818;stroke-width:1.5;" width="104" x="742.6963" y="58.6094"/><text fill="#000000" font-family="sans-serif" font-size="14" lengthAdjust="spacing" textLength="84" x="752.6963" y="83.1426">&#30693;&#36947;&#26696;&#21457;&#24773;&#20917;</text><rect fill="#F1F1F1" height="37.6094" rx="12.5" ry="12.5" style="stroke:#181818;stroke-width:1.5;" width="155.3242" x="896.6963" y="58.6094"/><text fill="#000000" font-family="sans-serif" font-size="14" lengthAdjust="spacing" textLength="135.3242" x="906.6963" y="83.1426">&#8220;&#34987;&#23475;&#20154;&#38472;&#36848;&#8221;&#30340;&#34987;&#23475;&#20154;</text><path d="M846.6963,77.4141 L856.6963,77.4141 C871.6963,77.4141 871.6963,77.4141 886.6963,77.4141 L896.6963,77.4141 " fill="none" style="stroke:#181818;stroke-width:1;"/><path d="M692.6963,106.2188 L702.6963,106.2188 C717.6963,106.2188 717.6963,77.4141 732.6963,77.4141 L742.6963,77.4141 " fill="none" style="stroke:#181818;stroke-width:1;"/><rect fill="#F1F1F1" height="37.6094" rx="12.5" ry="12.5" style="stroke:#181818;stroke-width:1.5;" width="155.3242" x="742.6963" y="116.2188"/><text fill="#000000" font-family="sans-serif" font-size="14" lengthAdjust="spacing" textLength="135.3242" x="752.6963" y="140.752">&#30693;&#36947;&#8220;&#20390;&#23519;&#26696;&#20214;&#8221;&#30340;&#24773;&#20917;</text><text fill="#000000" font-family="sans-serif" font-size="14" lengthAdjust="spacing" textLength="350" x="951.0205" y="131.9473">&#22312;&#30475;&#23432;&#25152;&#65292;&#20390;&#23519;&#20154;&#21592;&#21009;&#35759;&#36924;&#20379;&#65292;&#30475;&#23432;&#25152;&#20154;&#21592;&#30475;&#21040;&#36825;&#19968;&#24149;&#65292;</text><text fill="#000000" font-family="sans-serif" font-size="14" lengthAdjust="spacing" textLength="280" x="951.0205" y="149.5566">&#22312;&#27861;&#24237;&#19978;&#65292;&#30475;&#23432;&#25152;&#30417;&#31649;&#20154;&#21592;&#35854;&#31216;&#27809;&#26377;&#21009;&#35759;&#36924;&#20379;</text><path d="M898.0205,135.0234 L908.0205,135.0234 C923.0205,135.0234 923.0205,135.0234 938.0205,135.0234 L948.0205,135.0234 " fill="none" style="stroke:#181818;stroke-width:1;"/><path d="M692.6963,106.2188 L702.6963,106.2188 C717.6963,106.2188 717.6963,135.0234 732.6963,135.0234 L742.6963,135.0234 " fill="none" style="stroke:#181818;stroke-width:1;"/><path d="M510.6963,135.0234 L520.6963,135.0234 C535.6963,135.0234 535.6963,106.2188 550.6963,106.2188 L560.6963,106.2188 " fill="none" style="stroke:#181818;stroke-width:1;"/><rect fill="#F1F1F1" height="37.6094" rx="12.5" ry="12.5" style="stroke:#181818;stroke-width:1.5;" width="146" x="560.6963" y="173.8281"/><text fill="#000000" font-family="sans-serif" font-size="14" lengthAdjust="spacing" textLength="126" x="570.6963" y="198.3613">&#19981;&#30693;&#36947;&#26696;&#20214;&#24773;&#20917;&#30340;&#20154;</text><text fill="#000000" font-family="sans-serif" font-size="14" lengthAdjust="spacing" textLength="154" x="759.6963" y="198.3613">&#19981;&#22312;&#29616;&#22330;&#65292;&#21364;&#25925;&#24847;&#20570;&#20266;&#35777;</text><path d="M706.6963,192.6328 L716.6963,192.6328 C731.6963,192.6328 731.6963,192.6328 746.6963,192.6328 L756.6963,192.6328 " fill="none" style="stroke:#181818;stroke-width:1;"/><path d="M510.6963,135.0234 L520.6963,135.0234 C535.6963,135.0234 535.6963,192.6328 550.6963,192.6328 L560.6963,192.6328 " fill="none" style="stroke:#181818;stroke-width:1;"/><path d="M412.6963,221.4375 L422.6963,221.4375 C437.6963,221.4375 437.6963,135.0234 452.6963,135.0234 L462.6963,135.0234 " fill="none" style="stroke:#181818;stroke-width:1;"/><rect fill="#F1F1F1" height="37.6094" rx="12.5" ry="12.5" style="stroke:#181818;stroke-width:1.5;" width="62" x="462.6963" y="231.4375"/><text fill="#000000" font-family="sans-serif" font-size="14" lengthAdjust="spacing" textLength="42" x="472.6963" y="255.9707">&#37492;&#23450;&#20154;</text><path d="M412.6963,221.4375 L422.6963,221.4375 C437.6963,221.4375 437.6963,250.2422 452.6963,250.2422 L462.6963,250.2422 " fill="none" style="stroke:#181818;stroke-width:1;"/><rect fill="#F1F1F1" height="37.6094" rx="12.5" ry="12.5" style="stroke:#181818;stroke-width:1.5;" width="62" x="462.6963" y="289.0469"/><text fill="#000000" font-family="sans-serif" font-size="14" lengthAdjust="spacing" textLength="42" x="472.6963" y="313.5801">&#35760;&#24405;&#20154;</text><path d="M412.6963,221.4375 L422.6963,221.4375 C437.6963,221.4375 437.6963,307.8516 452.6963,307.8516 L462.6963,307.8516 " fill="none" style="stroke:#181818;stroke-width:1;"/><rect fill="#F1F1F1" height="37.6094" rx="12.5" ry="12.5" style="stroke:#181818;stroke-width:1.5;" width="62" x="462.6963" y="346.6563"/><text fill="#000000" font-family="sans-serif" font-size="14" lengthAdjust="spacing" textLength="42" x="472.6963" y="371.1895">&#32763;&#35793;&#20154;</text><path d="M412.6963,221.4375 L422.6963,221.4375 C437.6963,221.4375 437.6963,365.4609 452.6963,365.4609 L462.6963,365.4609 " fill="none" style="stroke:#181818;stroke-width:1;"/><path d="M258.6963,221.4375 L268.6963,221.4375 C283.6963,221.4375 283.6963,221.4375 298.6963,221.4375 L308.6963,221.4375 " fill="none" style="stroke:#181818;stroke-width:1;"/><path d="M132.6963,307.8516 L142.6963,307.8516 C157.6963,307.8516 157.6963,221.4375 172.6963,221.4375 L182.6963,221.4375 " fill="none" style="stroke:#181818;stroke-width:1;"/><rect fill="#F1F1F1" height="37.6094" rx="12.5" ry="12.5" style="stroke:#181818;stroke-width:1.5;" width="90" x="182.6963" y="433.0703"/><text fill="#000000" font-family="sans-serif" font-size="14" lengthAdjust="spacing" textLength="70" x="192.6963" y="457.6035">&#20266;&#35777;&#30340;&#20869;&#23481;</text><rect fill="#F1F1F1" height="37.6094" rx="12.5" ry="12.5" style="stroke:#181818;stroke-width:1.5;" width="174" x="322.6963" y="433.0703"/><text fill="#000000" font-family="sans-serif" font-size="14" lengthAdjust="spacing" textLength="154" x="332.6963" y="457.6035">&#19982;&#26696;&#20214;&#26377;&#37325;&#35201;&#20851;&#31995;&#30340;&#24773;&#33410;</text><rect fill="#F1F1F1" height="37.6094" rx="12.5" ry="12.5" style="stroke:#181818;stroke-width:1.5;" width="76" x="546.6963" y="404.2656"/><text fill="#000000" font-family="sans-serif" font-size="14" lengthAdjust="spacing" textLength="56" x="556.6963" y="428.7988">&#23450;&#32618;&#24773;&#33410;</text><path d="M496.6963,451.875 L506.6963,451.875 C521.6963,451.875 521.6963,423.0703 536.6963,423.0703 L546.6963,423.0703 " fill="none" style="stroke:#181818;stroke-width:1;"/><rect fill="#F1F1F1" height="37.6094" rx="12.5" ry="12.5" style="stroke:#181818;stroke-width:1.5;" width="76" x="546.6963" y="461.875"/><text fill="#000000" font-family="sans-serif" font-size="14" lengthAdjust="spacing" textLength="56" x="556.6963" y="486.4082">&#37327;&#21009;&#24773;&#33410;</text><path d="M496.6963,451.875 L506.6963,451.875 C521.6963,451.875 521.6963,480.6797 536.6963,480.6797 L546.6963,480.6797 " fill="none" style="stroke:#181818;stroke-width:1;"/><path d="M272.6963,451.875 L282.6963,451.875 C297.6963,451.875 297.6963,451.875 312.6963,451.875 L322.6963,451.875 " fill="none" style="stroke:#181818;stroke-width:1;"/><path d="M132.6963,307.8516 L142.6963,307.8516 C157.6963,307.8516 157.6963,451.875 172.6963,451.875 L182.6963,451.875 " fill="none" style="stroke:#181818;stroke-width:1;"/><rect fill="#F1F1F1" height="37.6094" rx="12.5" ry="12.5" style="stroke:#181818;stroke-width:1.5;" width="48" x="182.6963" y="519.4844"/><text fill="#000000" font-family="sans-serif" font-size="14" lengthAdjust="spacing" textLength="28" x="192.6963" y="544.0176">&#20027;&#35266;</text><rect fill="#F1F1F1" height="37.6094" rx="12.5" ry="12.5" style="stroke:#181818;stroke-width:1.5;" width="48" x="280.6963" y="519.4844"/><text fill="#000000" font-family="sans-serif" font-size="14" lengthAdjust="spacing" textLength="28" x="290.6963" y="544.0176">&#25925;&#24847;</text><path d="M230.6963,538.2891 L240.6963,538.2891 C255.6963,538.2891 255.6963,538.2891 270.6963,538.2891 L280.6963,538.2891 " fill="none" style="stroke:#181818;stroke-width:1;"/><path d="M132.6963,307.8516 L142.6963,307.8516 C157.6963,307.8516 157.6963,538.2891 172.6963,538.2891 L182.6963,538.2891 " fill="none" style="stroke:#181818;stroke-width:1;"/><!--SRC=[xLTVJzjM57_tfxZJNg1ImfyoLA5gegIWhI8LMcYV9bKtpcroY-qRsTUficaITD0cj81GXRH2feffWwvJasXqKne2_IwLdJXFV8KTsqbmKXo7XxqHeIZtdD_vdNFFFvjfZMELorH9o3Wj25zGHPJq147Xy4ZdJ-DPYOoa9QnmNPP2DZW4w90Z3rEG2GAdN2AeyVkfKTkj7-qqzjPHg7Li7FvfLhVWQ1wyCOj7vbR51foy1ObHUskLLk2t85mxFvpLSWlN9xuwg-K519zhoDf_OLIgHkNOE7dfY5oncTisgi-jKjugrepAkyRkQaVPiYkj6DLgbz1LD5x_qLnvMT_F6SV_rdzUCv_-0yONGNlWvjQs2xyGw88_BHUit_w2Ym9VyrNE-bZ-jFmhq7U4VPs0jN5wO9PUky6vfa4-7o2pyAPHU6uMS_NyybdjXKi1lipjNo1BLh7KNAuPftkWwi1ShNtCbQsFhupAilbX1m3VAq065JAhxupAkjUYiRVTAEwxTbPvit5Ohl-zNo_alHukIBPHsRXSlX_O9lQDDijceGeHc1llwpjhzTKjSsNNxPAUGZVpxytYRYyXD42nR9xiV2vlV3osIjjjUQVrTbVDfsjcyOFW3Nwp5NOXttosOHsic6j7ZQDZjohM-fCUPWW3ElX2LVFP5cJAexBPZwt39nvtxZK5GPWcC97jgPpk7jARpk1zBRG4jobEgbX6Fm9FE2xfnFc5q0mMbv8gqvL4X4bCHH9DfhYj1-rFDZQ1rIML97pWBMqRd5G9KVenEm0FEXi0phQnJCLAqYzeLzc6fdKrBVb1NMKRwdynpwLKflcnVJatDpCJYRIHMI99xB4FrbKwK24iOweifeZS9fvZ2e_H7mYwFYhOUYAdKrYZMd0klUXH7xYsb7LAwiMEzy-b5pe38Z45ZJTGC3IfC9KCK5U4vgb2UkNd50EwxKjbaoaA4ud2_NAZE4LnI-2AuX9WUbXXUDpOH9LsgdQkvap6dBd1AnoyKQPWAN9Px89AqbZ5jkGoPhVYJEL1RJSe5-TGTnuqQGEoHPWCuyRzsg5bwKTdbqyXIQWea7gJsMzh1LKoGKZQEn3T3cPXYyObggNyLvx7ljlRunJblRdnSNENyM1Fpgt4B5O6k9M84uHtd65Hf0d_dkzQnK7C3s4KDSzymraaKVo8w05JpYG8GMK9JmS6p5ZRml6JPXhbD4DkYPvn-6oTOuaCUf7pAq0jS22rJE49Qk_-GNggzHYqoJKz_eY8DhrVTd06djj47P0tGnbCa4FDWfZjl0-SxlDDtpsu_MUrgvS3do42VDqSQRsANBt_Nxt_Nxt__r_l_mlslzxtelCeGrJDNcjZuV7HyOdmZQ4OvkWkow2nIJGwDZKnCJKnYIAnHMIhXuMXwBUBI6CwR7MKW9sdqhXkBu9XuGxEOFIT3cj19bF8FWqjHeTHRBOjHBDAXgfCaM4L27VkHrqG-eRnM9fn1pmv4PgX7CM82c6X-r7XDdc8TOc3gSWIL4bEeNkBSw4RmZoi31qdmH4iwGZi4gvcGHVx3m00]--></g></svg>