<svg xmlns="http://www.w3.org/2000/svg" xmlns:xlink="http://www.w3.org/1999/xlink" contentStyleType="text/css" height="1557px" preserveAspectRatio="none" style="width:1278px;height:1557px;background:#FFFFFF;" version="1.1" viewBox="0 0 1278 1557" width="1278px" zoomAndPan="magnify"><title>&#31038;&#20250;&#27861;&#30410; - &#31038;&#20250;&#31209;&#24207; - &#22952;&#23475;&#21496;&#27861;&#32618; - &#22952;&#23475;&#20316;&#35777;&#32618;&#65288;&#26399;&#24453;&#21487;&#33021;&#24615;&#38382;&#39064;&#65289;</title><defs/><g><text fill="#000000" font-family="sans-serif" font-size="14" font-weight="bold" lengthAdjust="spacing" textLength="427.1367" x="424.2798" y="34.5332">&#31038;&#20250;&#27861;&#30410; - &#31038;&#20250;&#31209;&#24207; - &#22952;&#23475;&#21496;&#27861;&#32618; - &#22952;&#23475;&#20316;&#35777;&#32618;&#65288;&#26399;&#24453;&#21487;&#33021;&#24615;&#38382;&#39064;&#65289;</text><rect fill="#F1F1F1" height="37.6094" rx="12.5" ry="12.5" style="stroke:#181818;stroke-width:1.5;" width="234.6963" x="10" y="778.3477"/><text fill="#000000" font-family="sans-serif" font-size="14" lengthAdjust="spacing" textLength="214.6963" x="20" y="802.8809">&#22952;&#23475;&#20316;&#35777;&#32618;&#19982;&#26399;&#24453;&#21487;&#33021;&#24615;&#65288;P345&#65289;</text><rect fill="#F1F1F1" height="37.6094" rx="12.5" ry="12.5" style="stroke:#181818;stroke-width:1.5;" width="48" x="294.6963" y="58.6094"/><text fill="#000000" font-family="sans-serif" font-size="14" lengthAdjust="spacing" textLength="28" x="304.6963" y="83.1426">&#26696;&#24773;</text><rect fill="#F1F1F1" height="37.6094" rx="12.5" ry="12.5" style="stroke:#181818;stroke-width:1.5;" width="160" x="392.6963" y="58.6094"/><text fill="#000000" font-family="sans-serif" font-size="14" lengthAdjust="spacing" textLength="140" x="402.6963" y="83.1426">&#30002;&#20057;&#20849;&#21516;&#30423;&#31363;&#65292;&#34987;&#25235;&#12290;</text><path d="M342.6963,77.4141 L352.6963,77.4141 C367.6963,77.4141 367.6963,77.4141 382.6963,77.4141 L392.6963,77.4141 " fill="none" style="stroke:#181818;stroke-width:1;"/><path d="M244.6963,797.1523 L254.6963,797.1523 C269.6963,797.1523 269.6963,77.4141 284.6963,77.4141 L294.6963,77.4141 " fill="none" style="stroke:#181818;stroke-width:1;"/><rect fill="#F1F1F1" height="37.6094" rx="12.5" ry="12.5" style="stroke:#181818;stroke-width:1.5;" width="62" x="294.6963" y="145.0234"/><text fill="#000000" font-family="sans-serif" font-size="14" lengthAdjust="spacing" textLength="42" x="304.6963" y="169.5566">&#24773;&#24418;&#19968;</text><rect fill="#F1F1F1" height="37.6094" rx="12.5" ry="12.5" style="stroke:#181818;stroke-width:1.5;" width="104" x="406.6963" y="116.2188"/><text fill="#000000" font-family="sans-serif" font-size="14" lengthAdjust="spacing" textLength="84" x="416.6963" y="140.752">&#30002;&#20570;&#34394;&#20551;&#20379;&#36848;</text><path d="M356.6963,163.8281 L366.6963,163.8281 C381.6963,163.8281 381.6963,135.0234 396.6963,135.0234 L406.6963,135.0234 " fill="none" style="stroke:#181818;stroke-width:1;"/><rect fill="#F1F1F1" height="37.6094" rx="12.5" ry="12.5" style="stroke:#181818;stroke-width:1.5;" width="34" x="406.6963" y="173.8281"/><text fill="#000000" font-family="sans-serif" font-size="14" lengthAdjust="spacing" textLength="14" x="416.6963" y="198.3613">&#30002;</text><rect fill="#F1F1F1" height="37.6094" rx="12.5" ry="12.5" style="stroke:#181818;stroke-width:1.5;" width="104" x="490.6963" y="173.8281"/><text fill="#000000" font-family="sans-serif" font-size="14" lengthAdjust="spacing" textLength="84" x="500.6963" y="198.3613">&#19981;&#26500;&#25104;&#20266;&#35777;&#32618;</text><rect fill="#F1F1F1" height="37.6094" rx="12.5" ry="12.5" style="stroke:#181818;stroke-width:1.5;" width="48" x="644.6963" y="173.8281"/><text fill="#000000" font-family="sans-serif" font-size="14" lengthAdjust="spacing" textLength="28" x="654.6963" y="198.3613">&#29702;&#30001;</text><rect fill="#F1F1F1" height="37.6094" rx="12.5" ry="12.5" style="stroke:#181818;stroke-width:1.5;" width="132" x="742.6963" y="173.8281"/><text fill="#000000" font-family="sans-serif" font-size="14" lengthAdjust="spacing" textLength="112" x="752.6963" y="198.3613">&#19981;&#20855;&#26377;&#26399;&#24453;&#21487;&#33021;&#24615;</text><path d="M692.6963,192.6328 L702.6963,192.6328 C717.6963,192.6328 717.6963,192.6328 732.6963,192.6328 L742.6963,192.6328 " fill="none" style="stroke:#181818;stroke-width:1;"/><path d="M594.6963,192.6328 L604.6963,192.6328 C619.6963,192.6328 619.6963,192.6328 634.6963,192.6328 L644.6963,192.6328 " fill="none" style="stroke:#181818;stroke-width:1;"/><path d="M440.6963,192.6328 L450.6963,192.6328 C465.6963,192.6328 465.6963,192.6328 480.6963,192.6328 L490.6963,192.6328 " fill="none" style="stroke:#181818;stroke-width:1;"/><path d="M356.6963,163.8281 L366.6963,163.8281 C381.6963,163.8281 381.6963,192.6328 396.6963,192.6328 L406.6963,192.6328 " fill="none" style="stroke:#181818;stroke-width:1;"/><path d="M244.6963,797.1523 L254.6963,797.1523 C269.6963,797.1523 269.6963,163.8281 284.6963,163.8281 L294.6963,163.8281 " fill="none" style="stroke:#181818;stroke-width:1;"/><rect fill="#F1F1F1" height="37.6094" rx="12.5" ry="12.5" style="stroke:#181818;stroke-width:1.5;" width="62" x="294.6963" y="605.5195"/><text fill="#000000" font-family="sans-serif" font-size="14" lengthAdjust="spacing" textLength="42" x="304.6963" y="630.0527">&#24773;&#24418;&#20108;</text><rect fill="#F1F1F1" height="37.6094" rx="12.5" ry="12.5" style="stroke:#181818;stroke-width:1.5;" width="174" x="406.6963" y="231.4375"/><text fill="#000000" font-family="sans-serif" font-size="14" lengthAdjust="spacing" textLength="154" x="416.6963" y="255.9707">&#30002;&#25351;&#20351;&#19993;&#20316;&#20266;&#35777;&#65292;&#19993;&#29031;&#21150;</text><path d="M356.6963,624.3242 L366.6963,624.3242 C381.6963,624.3242 381.6963,250.2422 396.6963,250.2422 L406.6963,250.2422 " fill="none" style="stroke:#181818;stroke-width:1;"/><rect fill="#F1F1F1" height="37.6094" rx="12.5" ry="12.5" style="stroke:#181818;stroke-width:1.5;" width="34" x="406.6963" y="289.0469"/><text fill="#000000" font-family="sans-serif" font-size="14" lengthAdjust="spacing" textLength="14" x="416.6963" y="313.5801">&#19993;</text><rect fill="#F1F1F1" height="37.6094" rx="12.5" ry="12.5" style="stroke:#181818;stroke-width:1.5;" width="90" x="490.6963" y="289.0469"/><text fill="#000000" font-family="sans-serif" font-size="14" lengthAdjust="spacing" textLength="70" x="500.6963" y="313.5801">&#26500;&#25104;&#20266;&#35777;&#32618;</text><path d="M440.6963,307.8516 L450.6963,307.8516 C465.6963,307.8516 465.6963,307.8516 480.6963,307.8516 L490.6963,307.8516 " fill="none" style="stroke:#181818;stroke-width:1;"/><path d="M356.6963,624.3242 L366.6963,624.3242 C381.6963,624.3242 381.6963,307.8516 396.6963,307.8516 L406.6963,307.8516 " fill="none" style="stroke:#181818;stroke-width:1;"/><rect fill="#F1F1F1" height="37.6094" rx="12.5" ry="12.5" style="stroke:#181818;stroke-width:1.5;" width="34" x="406.6963" y="663.1289"/><text fill="#000000" font-family="sans-serif" font-size="14" lengthAdjust="spacing" textLength="14" x="416.6963" y="687.6621">&#30002;</text><rect fill="#F1F1F1" height="37.6094" rx="12.5" ry="12.5" style="stroke:#181818;stroke-width:1.5;" width="104" x="490.6963" y="519.1055"/><text fill="#000000" font-family="sans-serif" font-size="14" lengthAdjust="spacing" textLength="84" x="500.6963" y="543.6387">&#20266;&#35777;&#32618;&#25945;&#21766;&#29359;</text><rect fill="#F1F1F1" height="37.6094" rx="12.5" ry="12.5" style="stroke:#181818;stroke-width:1.5;" width="62" x="644.6963" y="379.8633"/><text fill="#000000" font-family="sans-serif" font-size="14" lengthAdjust="spacing" textLength="42" x="654.6963" y="404.3965">&#23569;&#25968;&#35828;</text><rect fill="#F1F1F1" height="37.6094" rx="12.5" ry="12.5" style="stroke:#181818;stroke-width:1.5;" width="48" x="756.6963" y="346.6563"/><text fill="#000000" font-family="sans-serif" font-size="14" lengthAdjust="spacing" textLength="28" x="766.6963" y="371.1895">&#26500;&#25104;</text><path d="M706.6963,398.668 L716.6963,398.668 C731.6963,398.668 731.6963,365.4609 746.6963,365.4609 L756.6963,365.4609 " fill="none" style="stroke:#181818;stroke-width:1;"/><rect fill="#F1F1F1" height="37.6094" rx="12.5" ry="12.5" style="stroke:#181818;stroke-width:1.5;" width="48" x="756.6963" y="404.2656"/><text fill="#000000" font-family="sans-serif" font-size="14" lengthAdjust="spacing" textLength="28" x="766.6963" y="428.7988">&#29702;&#30001;</text><rect fill="#F1F1F1" height="37.6094" rx="12.5" ry="12.5" style="stroke:#181818;stroke-width:1.5;" width="118" x="854.6963" y="404.2656"/><text fill="#000000" font-family="sans-serif" font-size="14" lengthAdjust="spacing" textLength="98" x="864.6963" y="428.7988">&#20849;&#29359;&#20174;&#23646;&#24615;&#21407;&#29702;</text><rect fill="#F1F1F1" height="55.2188" rx="12.5" ry="12.5" style="stroke:#181818;stroke-width:1.5;" width="202" x="1022.6963" y="395.4609"/><text fill="#000000" font-family="sans-serif" font-size="14" lengthAdjust="spacing" textLength="182" x="1032.6963" y="419.9941">&#19993;&#26500;&#25104;&#20266;&#35777;&#32618;&#30340;&#23454;&#34892;&#29359;&#65292;&#37027;&#20040;</text><text fill="#000000" font-family="sans-serif" font-size="14" lengthAdjust="spacing" textLength="154" x="1032.6963" y="437.6035">&#30002;&#20415;&#26500;&#25104;&#20266;&#35777;&#32618;&#30340;&#25945;&#21766;&#29359;</text><path d="M972.6963,423.0703 L982.6963,423.0703 C997.6963,423.0703 997.6963,423.0703 1012.6963,423.0703 L1022.6963,423.0703 " fill="none" style="stroke:#181818;stroke-width:1;"/><path d="M804.6963,423.0703 L814.6963,423.0703 C829.6963,423.0703 829.6963,423.0703 844.6963,423.0703 L854.6963,423.0703 " fill="none" style="stroke:#181818;stroke-width:1;"/><path d="M706.6963,398.668 L716.6963,398.668 C731.6963,398.668 731.6963,423.0703 746.6963,423.0703 L756.6963,423.0703 " fill="none" style="stroke:#181818;stroke-width:1;"/><path d="M594.6963,537.9102 L604.6963,537.9102 C619.6963,537.9102 619.6963,398.668 634.6963,398.668 L644.6963,398.668 " fill="none" style="stroke:#181818;stroke-width:1;"/><rect fill="#F1F1F1" height="37.6094" rx="12.5" ry="12.5" style="stroke:#181818;stroke-width:1.5;" width="62" x="644.6963" y="581.1172"/><text fill="#000000" font-family="sans-serif" font-size="14" lengthAdjust="spacing" textLength="42" x="654.6963" y="605.6504">&#22810;&#25968;&#35828;</text><rect fill="#F1F1F1" height="37.6094" rx="12.5" ry="12.5" style="stroke:#181818;stroke-width:1.5;" width="62" x="756.6963" y="470.6797"/><text fill="#000000" font-family="sans-serif" font-size="14" lengthAdjust="spacing" textLength="42" x="766.6963" y="495.2129">&#19981;&#26500;&#25104;</text><path d="M706.6963,599.9219 L716.6963,599.9219 C731.6963,599.9219 731.6963,489.4844 746.6963,489.4844 L756.6963,489.4844 " fill="none" style="stroke:#181818;stroke-width:1;"/><rect fill="#F1F1F1" height="37.6094" rx="12.5" ry="12.5" style="stroke:#181818;stroke-width:1.5;" width="48" x="756.6963" y="609.9219"/><text fill="#000000" font-family="sans-serif" font-size="14" lengthAdjust="spacing" textLength="28" x="766.6963" y="634.4551">&#29702;&#30001;</text><rect fill="#F1F1F1" height="90.4375" rx="12.5" ry="12.5" style="stroke:#181818;stroke-width:1.5;" width="300" x="854.6963" y="528.2891"/><text fill="#000000" font-family="sans-serif" font-size="14" lengthAdjust="spacing" textLength="196" x="864.6963" y="552.8223">&#31532;&#19968;&#65292;&#20849;&#29359;&#20174;&#23646;&#24615;&#21407;&#29702;&#20165;&#34920;&#26126;&#65292;</text><text fill="#000000" font-family="sans-serif" font-size="14" lengthAdjust="spacing" textLength="112" x="864.6963" y="570.4316">&#23454;&#34892;&#32773;&#26500;&#25104;&#29359;&#32618;&#65292;</text><text fill="#000000" font-family="sans-serif" font-size="14" lengthAdjust="spacing" textLength="280" x="864.6963" y="588.041">&#26159;&#25945;&#21766;&#32773;&#26500;&#25104;&#29359;&#32618;&#30340;&#24517;&#35201;&#26465;&#20214;&#65288;&#21069;&#25552;&#26465;&#20214;&#65289;&#65292;</text><text fill="#000000" font-family="sans-serif" font-size="14" lengthAdjust="spacing" textLength="112" x="864.6963" y="605.6504">&#32780;&#19981;&#26159;&#20805;&#20998;&#26465;&#20214;&#12290;</text><path d="M804.6963,628.7266 L814.6963,628.7266 C829.6963,628.7266 829.6963,573.5078 844.6963,573.5078 L854.6963,573.5078 " fill="none" style="stroke:#181818;stroke-width:1;"/><rect fill="#F1F1F1" height="90.4375" rx="12.5" ry="12.5" style="stroke:#181818;stroke-width:1.5;" width="314" x="854.6963" y="638.7266"/><text fill="#000000" font-family="sans-serif" font-size="14" lengthAdjust="spacing" textLength="168" x="864.6963" y="663.2598">&#31532;&#20108;&#65292;&#30002;&#33258;&#24049;&#20316;&#34394;&#20551;&#20379;&#36848;&#65292;</text><text fill="#000000" font-family="sans-serif" font-size="14" lengthAdjust="spacing" textLength="294" x="864.6963" y="680.8691">&#30001;&#20110;&#32570;&#20047;&#26399;&#24453;&#21487;&#33021;&#24615;&#32780;&#19981;&#26500;&#25104;&#20266;&#35777;&#32618;&#30340;&#23454;&#34892;&#29359;&#65292;</text><text fill="#000000" font-family="sans-serif" font-size="14" lengthAdjust="spacing" textLength="210" x="864.6963" y="698.4785">&#37027;&#20040;&#30002;&#30340;&#25945;&#21766;&#34892;&#20026;&#27604;&#23454;&#34892;&#34892;&#20026;&#36731;&#65292;</text><text fill="#000000" font-family="sans-serif" font-size="14" lengthAdjust="spacing" textLength="210" x="864.6963" y="716.0879">&#23601;&#26356;&#19981;&#24212;&#35813;&#26500;&#25104;&#20266;&#35777;&#32618;&#30340;&#25945;&#21766;&#29359;&#12290;</text><path d="M804.6963,628.7266 L814.6963,628.7266 C829.6963,628.7266 829.6963,683.9453 844.6963,683.9453 L854.6963,683.9453 " fill="none" style="stroke:#181818;stroke-width:1;"/><path d="M706.6963,599.9219 L716.6963,599.9219 C731.6963,599.9219 731.6963,628.7266 746.6963,628.7266 L756.6963,628.7266 " fill="none" style="stroke:#181818;stroke-width:1;"/><path d="M594.6963,537.9102 L604.6963,537.9102 C619.6963,537.9102 619.6963,599.9219 634.6963,599.9219 L644.6963,599.9219 " fill="none" style="stroke:#181818;stroke-width:1;"/><path d="M440.6963,681.9336 L450.6963,681.9336 C465.6963,681.9336 465.6963,537.9102 480.6963,537.9102 L490.6963,537.9102 " fill="none" style="stroke:#181818;stroke-width:1;"/><rect fill="#F1F1F1" height="37.6094" rx="12.5" ry="12.5" style="stroke:#181818;stroke-width:1.5;" width="90" x="490.6963" y="864.3828"/><text fill="#000000" font-family="sans-serif" font-size="14" lengthAdjust="spacing" textLength="70" x="500.6963" y="888.916">&#22952;&#23475;&#20316;&#35777;&#32618;</text><rect fill="#F1F1F1" height="37.6094" rx="12.5" ry="12.5" style="stroke:#181818;stroke-width:1.5;" width="62" x="630.6963" y="777.9688"/><text fill="#000000" font-family="sans-serif" font-size="14" lengthAdjust="spacing" textLength="42" x="640.6963" y="802.502">&#23569;&#25968;&#35828;</text><rect fill="#F1F1F1" height="37.6094" rx="12.5" ry="12.5" style="stroke:#181818;stroke-width:1.5;" width="62" x="742.6963" y="749.1641"/><text fill="#000000" font-family="sans-serif" font-size="14" lengthAdjust="spacing" textLength="42" x="752.6963" y="773.6973">&#19981;&#26500;&#25104;</text><path d="M692.6963,796.7734 L702.6963,796.7734 C717.6963,796.7734 717.6963,767.9688 732.6963,767.9688 L742.6963,767.9688 " fill="none" style="stroke:#181818;stroke-width:1;"/><rect fill="#F1F1F1" height="37.6094" rx="12.5" ry="12.5" style="stroke:#181818;stroke-width:1.5;" width="48" x="742.6963" y="806.7734"/><text fill="#000000" font-family="sans-serif" font-size="14" lengthAdjust="spacing" textLength="28" x="752.6963" y="831.3066">&#29702;&#30001;</text><rect fill="#F1F1F1" height="37.6094" rx="12.5" ry="12.5" style="stroke:#181818;stroke-width:1.5;" width="384" x="840.6963" y="806.7734"/><text fill="#000000" font-family="sans-serif" font-size="14" lengthAdjust="spacing" textLength="364" x="850.6963" y="831.3066">&#26082;&#28982;&#30002;&#19981;&#26500;&#25104;&#20266;&#35777;&#32618;&#30340;&#25945;&#21766;&#29359;&#65292;&#37027;&#20040;&#20063;&#23601;&#19981;&#26500;&#25104;&#22952;&#23475;&#20316;&#35777;&#32618;</text><path d="M790.6963,825.5781 L800.6963,825.5781 C815.6963,825.5781 815.6963,825.5781 830.6963,825.5781 L840.6963,825.5781 " fill="none" style="stroke:#181818;stroke-width:1;"/><path d="M692.6963,796.7734 L702.6963,796.7734 C717.6963,796.7734 717.6963,825.5781 732.6963,825.5781 L742.6963,825.5781 " fill="none" style="stroke:#181818;stroke-width:1;"/><path d="M580.6963,883.1875 L590.6963,883.1875 C605.6963,883.1875 605.6963,796.7734 620.6963,796.7734 L630.6963,796.7734 " fill="none" style="stroke:#181818;stroke-width:1;"/><rect fill="#F1F1F1" height="37.6094" rx="12.5" ry="12.5" style="stroke:#181818;stroke-width:1.5;" width="62" x="630.6963" y="921.9922"/><text fill="#000000" font-family="sans-serif" font-size="14" lengthAdjust="spacing" textLength="42" x="640.6963" y="946.5254">&#22810;&#25968;&#35828;</text><rect fill="#F1F1F1" height="37.6094" rx="12.5" ry="12.5" style="stroke:#181818;stroke-width:1.5;" width="104" x="742.6963" y="864.3828"/><text fill="#000000" font-family="sans-serif" font-size="14" lengthAdjust="spacing" textLength="84" x="752.6963" y="888.916">&#26222;&#36890;&#25945;&#21766;&#34892;&#20026;</text><rect fill="#F1F1F1" height="37.6094" rx="12.5" ry="12.5" style="stroke:#181818;stroke-width:1.5;" width="62" x="896.6963" y="864.3828"/><text fill="#000000" font-family="sans-serif" font-size="14" lengthAdjust="spacing" textLength="42" x="906.6963" y="888.916">&#19981;&#26500;&#25104;</text><path d="M846.6963,883.1875 L856.6963,883.1875 C871.6963,883.1875 871.6963,883.1875 886.6963,883.1875 L896.6963,883.1875 " fill="none" style="stroke:#181818;stroke-width:1;"/><path d="M692.6963,940.7969 L702.6963,940.7969 C717.6963,940.7969 717.6963,883.1875 732.6963,883.1875 L742.6963,883.1875 " fill="none" style="stroke:#181818;stroke-width:1;"/><rect fill="#F1F1F1" height="37.6094" rx="12.5" ry="12.5" style="stroke:#181818;stroke-width:1.5;" width="132" x="742.6963" y="950.7969"/><text fill="#000000" font-family="sans-serif" font-size="14" lengthAdjust="spacing" textLength="112" x="752.6963" y="975.3301">&#26292;&#21147;&#12289;&#23041;&#32961;&#12289;&#36159;&#20080;</text><rect fill="#F1F1F1" height="37.6094" rx="12.5" ry="12.5" style="stroke:#181818;stroke-width:1.5;" width="48" x="924.6963" y="921.9922"/><text fill="#000000" font-family="sans-serif" font-size="14" lengthAdjust="spacing" textLength="28" x="934.6963" y="946.5254">&#26500;&#25104;</text><path d="M874.6963,969.6016 L884.6963,969.6016 C899.6963,969.6016 899.6963,940.7969 914.6963,940.7969 L924.6963,940.7969 " fill="none" style="stroke:#181818;stroke-width:1;"/><rect fill="#F1F1F1" height="37.6094" rx="12.5" ry="12.5" style="stroke:#181818;stroke-width:1.5;" width="48" x="924.6963" y="979.6016"/><text fill="#000000" font-family="sans-serif" font-size="14" lengthAdjust="spacing" textLength="28" x="934.6963" y="1004.1348">&#29702;&#30001;</text><rect fill="#F1F1F1" height="37.6094" rx="12.5" ry="12.5" style="stroke:#181818;stroke-width:1.5;" width="244" x="1022.6963" y="979.6016"/><text fill="#000000" font-family="sans-serif" font-size="14" lengthAdjust="spacing" textLength="224" x="1032.6963" y="1004.1348">&#33021;&#22815;&#26399;&#24453;&#30002;&#19981;&#35201;&#37319;&#21462;&#36825;&#19977;&#31181;&#20005;&#37325;&#25163;&#27573;</text><path d="M972.6963,998.4063 L982.6963,998.4063 C997.6963,998.4063 997.6963,998.4063 1012.6963,998.4063 L1022.6963,998.4063 " fill="none" style="stroke:#181818;stroke-width:1;"/><path d="M874.6963,969.6016 L884.6963,969.6016 C899.6963,969.6016 899.6963,998.4063 914.6963,998.4063 L924.6963,998.4063 " fill="none" style="stroke:#181818;stroke-width:1;"/><path d="M692.6963,940.7969 L702.6963,940.7969 C717.6963,940.7969 717.6963,969.6016 732.6963,969.6016 L742.6963,969.6016 " fill="none" style="stroke:#181818;stroke-width:1;"/><path d="M580.6963,883.1875 L590.6963,883.1875 C605.6963,883.1875 605.6963,940.7969 620.6963,940.7969 L630.6963,940.7969 " fill="none" style="stroke:#181818;stroke-width:1;"/><path d="M440.6963,681.9336 L450.6963,681.9336 C465.6963,681.9336 465.6963,883.1875 480.6963,883.1875 L490.6963,883.1875 " fill="none" style="stroke:#181818;stroke-width:1;"/><path d="M356.6963,624.3242 L366.6963,624.3242 C381.6963,624.3242 381.6963,681.9336 396.6963,681.9336 L406.6963,681.9336 " fill="none" style="stroke:#181818;stroke-width:1;"/><path d="M244.6963,797.1523 L254.6963,797.1523 C269.6963,797.1523 269.6963,624.3242 284.6963,624.3242 L294.6963,624.3242 " fill="none" style="stroke:#181818;stroke-width:1;"/><rect fill="#F1F1F1" height="37.6094" rx="12.5" ry="12.5" style="stroke:#181818;stroke-width:1.5;" width="62" x="294.6963" y="1267.6484"/><text fill="#000000" font-family="sans-serif" font-size="14" lengthAdjust="spacing" textLength="42" x="304.6963" y="1292.1816">&#24773;&#24418;&#19977;</text><rect fill="#F1F1F1" height="37.6094" rx="12.5" ry="12.5" style="stroke:#181818;stroke-width:1.5;" width="244" x="406.6963" y="1037.2109"/><text fill="#000000" font-family="sans-serif" font-size="14" lengthAdjust="spacing" textLength="224" x="416.6963" y="1061.7441">&#30002;&#25351;&#20351;&#20849;&#29359;&#20154;&#20057;&#20316;&#34394;&#20551;&#20379;&#36848;&#65292;&#20057;&#29031;&#21150;</text><path d="M356.6963,1286.4531 L366.6963,1286.4531 C381.6963,1286.4531 381.6963,1056.0156 396.6963,1056.0156 L406.6963,1056.0156 " fill="none" style="stroke:#181818;stroke-width:1;"/><rect fill="#F1F1F1" height="37.6094" rx="12.5" ry="12.5" style="stroke:#181818;stroke-width:1.5;" width="34" x="406.6963" y="1094.8203"/><text fill="#000000" font-family="sans-serif" font-size="14" lengthAdjust="spacing" textLength="14" x="416.6963" y="1119.3535">&#20057;</text><rect fill="#F1F1F1" height="37.6094" rx="12.5" ry="12.5" style="stroke:#181818;stroke-width:1.5;" width="104" x="490.6963" y="1094.8203"/><text fill="#000000" font-family="sans-serif" font-size="14" lengthAdjust="spacing" textLength="84" x="500.6963" y="1119.3535">&#19981;&#26500;&#25104;&#20266;&#35777;&#32618;</text><path d="M440.6963,1113.625 L450.6963,1113.625 C465.6963,1113.625 465.6963,1113.625 480.6963,1113.625 L490.6963,1113.625 " fill="none" style="stroke:#181818;stroke-width:1;"/><path d="M356.6963,1286.4531 L366.6963,1286.4531 C381.6963,1286.4531 381.6963,1113.625 396.6963,1113.625 L406.6963,1113.625 " fill="none" style="stroke:#181818;stroke-width:1;"/><rect fill="#F1F1F1" height="37.6094" rx="12.5" ry="12.5" style="stroke:#181818;stroke-width:1.5;" width="34" x="406.6963" y="1325.2578"/><text fill="#000000" font-family="sans-serif" font-size="14" lengthAdjust="spacing" textLength="14" x="416.6963" y="1349.791">&#30002;</text><rect fill="#F1F1F1" height="37.6094" rx="12.5" ry="12.5" style="stroke:#181818;stroke-width:1.5;" width="118" x="490.6963" y="1181.2344"/><text fill="#000000" font-family="sans-serif" font-size="14" lengthAdjust="spacing" textLength="98" x="500.6963" y="1205.7676">&#20266;&#35777;&#32618;&#30340;&#25945;&#21766;&#29359;</text><rect fill="#F1F1F1" height="37.6094" rx="12.5" ry="12.5" style="stroke:#181818;stroke-width:1.5;" width="62" x="658.6963" y="1152.4297"/><text fill="#000000" font-family="sans-serif" font-size="14" lengthAdjust="spacing" textLength="42" x="668.6963" y="1176.9629">&#19981;&#26500;&#25104;</text><path d="M608.6963,1200.0391 L618.6963,1200.0391 C633.6963,1200.0391 633.6963,1171.2344 648.6963,1171.2344 L658.6963,1171.2344 " fill="none" style="stroke:#181818;stroke-width:1;"/><rect fill="#F1F1F1" height="37.6094" rx="12.5" ry="12.5" style="stroke:#181818;stroke-width:1.5;" width="48" x="658.6963" y="1210.0391"/><text fill="#000000" font-family="sans-serif" font-size="14" lengthAdjust="spacing" textLength="28" x="668.6963" y="1234.5723">&#29702;&#30001;</text><rect fill="#F1F1F1" height="37.6094" rx="12.5" ry="12.5" style="stroke:#181818;stroke-width:1.5;" width="482" x="756.6963" y="1210.0391"/><text fill="#000000" font-family="sans-serif" font-size="14" lengthAdjust="spacing" textLength="462" x="766.6963" y="1234.5723">&#20057;&#19981;&#26500;&#25104;&#20266;&#35777;&#32618;&#65292;&#26681;&#25454;&#20849;&#29359;&#20174;&#23646;&#24615;&#21407;&#29702;&#65292;&#37027;&#20040;&#30002;&#20063;&#23601;&#19981;&#26500;&#25104;&#20266;&#35777;&#32618;&#30340;&#25945;&#21766;&#29359;</text><path d="M706.6963,1228.8438 L716.6963,1228.8438 C731.6963,1228.8438 731.6963,1228.8438 746.6963,1228.8438 L756.6963,1228.8438 " fill="none" style="stroke:#181818;stroke-width:1;"/><path d="M608.6963,1200.0391 L618.6963,1200.0391 C633.6963,1200.0391 633.6963,1228.8438 648.6963,1228.8438 L658.6963,1228.8438 " fill="none" style="stroke:#181818;stroke-width:1;"/><path d="M440.6963,1344.0625 L450.6963,1344.0625 C465.6963,1344.0625 465.6963,1200.0391 480.6963,1200.0391 L490.6963,1200.0391 " fill="none" style="stroke:#181818;stroke-width:1;"/><rect fill="#F1F1F1" height="37.6094" rx="12.5" ry="12.5" style="stroke:#181818;stroke-width:1.5;" width="90" x="490.6963" y="1382.8672"/><text fill="#000000" font-family="sans-serif" font-size="14" lengthAdjust="spacing" textLength="70" x="500.6963" y="1407.4004">&#22952;&#23475;&#20316;&#35777;&#32618;</text><rect fill="#F1F1F1" height="37.6094" rx="12.5" ry="12.5" style="stroke:#181818;stroke-width:1.5;" width="62" x="630.6963" y="1296.4531"/><text fill="#000000" font-family="sans-serif" font-size="14" lengthAdjust="spacing" textLength="42" x="640.6963" y="1320.9863">&#23569;&#25968;&#35828;</text><rect fill="#F1F1F1" height="37.6094" rx="12.5" ry="12.5" style="stroke:#181818;stroke-width:1.5;" width="62" x="742.6963" y="1267.6484"/><text fill="#000000" font-family="sans-serif" font-size="14" lengthAdjust="spacing" textLength="42" x="752.6963" y="1292.1816">&#19981;&#26500;&#25104;</text><path d="M692.6963,1315.2578 L702.6963,1315.2578 C717.6963,1315.2578 717.6963,1286.4531 732.6963,1286.4531 L742.6963,1286.4531 " fill="none" style="stroke:#181818;stroke-width:1;"/><rect fill="#F1F1F1" height="37.6094" rx="12.5" ry="12.5" style="stroke:#181818;stroke-width:1.5;" width="48" x="742.6963" y="1325.2578"/><text fill="#000000" font-family="sans-serif" font-size="14" lengthAdjust="spacing" textLength="28" x="752.6963" y="1349.791">&#29702;&#30001;</text><rect fill="#F1F1F1" height="37.6094" rx="12.5" ry="12.5" style="stroke:#181818;stroke-width:1.5;" width="384" x="840.6963" y="1325.2578"/><text fill="#000000" font-family="sans-serif" font-size="14" lengthAdjust="spacing" textLength="364" x="850.6963" y="1349.791">&#26082;&#28982;&#30002;&#19981;&#26500;&#25104;&#20266;&#35777;&#32618;&#30340;&#25945;&#21766;&#29359;&#65292;&#37027;&#20040;&#20063;&#23601;&#19981;&#26500;&#25104;&#22952;&#23475;&#20316;&#35777;&#32618;</text><path d="M790.6963,1344.0625 L800.6963,1344.0625 C815.6963,1344.0625 815.6963,1344.0625 830.6963,1344.0625 L840.6963,1344.0625 " fill="none" style="stroke:#181818;stroke-width:1;"/><path d="M692.6963,1315.2578 L702.6963,1315.2578 C717.6963,1315.2578 717.6963,1344.0625 732.6963,1344.0625 L742.6963,1344.0625 " fill="none" style="stroke:#181818;stroke-width:1;"/><path d="M580.6963,1401.6719 L590.6963,1401.6719 C605.6963,1401.6719 605.6963,1315.2578 620.6963,1315.2578 L630.6963,1315.2578 " fill="none" style="stroke:#181818;stroke-width:1;"/><rect fill="#F1F1F1" height="37.6094" rx="12.5" ry="12.5" style="stroke:#181818;stroke-width:1.5;" width="62" x="630.6963" y="1440.4766"/><text fill="#000000" font-family="sans-serif" font-size="14" lengthAdjust="spacing" textLength="42" x="640.6963" y="1465.0098">&#22810;&#25968;&#35828;</text><rect fill="#F1F1F1" height="37.6094" rx="12.5" ry="12.5" style="stroke:#181818;stroke-width:1.5;" width="104" x="742.6963" y="1382.8672"/><text fill="#000000" font-family="sans-serif" font-size="14" lengthAdjust="spacing" textLength="84" x="752.6963" y="1407.4004">&#26222;&#36890;&#25945;&#21766;&#34892;&#20026;</text><rect fill="#F1F1F1" height="37.6094" rx="12.5" ry="12.5" style="stroke:#181818;stroke-width:1.5;" width="62" x="896.6963" y="1382.8672"/><text fill="#000000" font-family="sans-serif" font-size="14" lengthAdjust="spacing" textLength="42" x="906.6963" y="1407.4004">&#19981;&#26500;&#25104;</text><path d="M846.6963,1401.6719 L856.6963,1401.6719 C871.6963,1401.6719 871.6963,1401.6719 886.6963,1401.6719 L896.6963,1401.6719 " fill="none" style="stroke:#181818;stroke-width:1;"/><path d="M692.6963,1459.2813 L702.6963,1459.2813 C717.6963,1459.2813 717.6963,1401.6719 732.6963,1401.6719 L742.6963,1401.6719 " fill="none" style="stroke:#181818;stroke-width:1;"/><rect fill="#F1F1F1" height="37.6094" rx="12.5" ry="12.5" style="stroke:#181818;stroke-width:1.5;" width="132" x="742.6963" y="1469.2813"/><text fill="#000000" font-family="sans-serif" font-size="14" lengthAdjust="spacing" textLength="112" x="752.6963" y="1493.8145">&#26292;&#21147;&#12289;&#23041;&#32961;&#12289;&#36159;&#20080;</text><rect fill="#F1F1F1" height="37.6094" rx="12.5" ry="12.5" style="stroke:#181818;stroke-width:1.5;" width="48" x="924.6963" y="1440.4766"/><text fill="#000000" font-family="sans-serif" font-size="14" lengthAdjust="spacing" textLength="28" x="934.6963" y="1465.0098">&#26500;&#25104;</text><path d="M874.6963,1488.0859 L884.6963,1488.0859 C899.6963,1488.0859 899.6963,1459.2813 914.6963,1459.2813 L924.6963,1459.2813 " fill="none" style="stroke:#181818;stroke-width:1;"/><rect fill="#F1F1F1" height="37.6094" rx="12.5" ry="12.5" style="stroke:#181818;stroke-width:1.5;" width="48" x="924.6963" y="1498.0859"/><text fill="#000000" font-family="sans-serif" font-size="14" lengthAdjust="spacing" textLength="28" x="934.6963" y="1522.6191">&#29702;&#30001;</text><rect fill="#F1F1F1" height="37.6094" rx="12.5" ry="12.5" style="stroke:#181818;stroke-width:1.5;" width="244" x="1022.6963" y="1498.0859"/><text fill="#000000" font-family="sans-serif" font-size="14" lengthAdjust="spacing" textLength="224" x="1032.6963" y="1522.6191">&#33021;&#22815;&#26399;&#24453;&#30002;&#19981;&#35201;&#37319;&#21462;&#36825;&#19977;&#31181;&#20005;&#37325;&#25163;&#27573;</text><path d="M972.6963,1516.8906 L982.6963,1516.8906 C997.6963,1516.8906 997.6963,1516.8906 1012.6963,1516.8906 L1022.6963,1516.8906 " fill="none" style="stroke:#181818;stroke-width:1;"/><path d="M874.6963,1488.0859 L884.6963,1488.0859 C899.6963,1488.0859 899.6963,1516.8906 914.6963,1516.8906 L924.6963,1516.8906 " fill="none" style="stroke:#181818;stroke-width:1;"/><path d="M692.6963,1459.2813 L702.6963,1459.2813 C717.6963,1459.2813 717.6963,1488.0859 732.6963,1488.0859 L742.6963,1488.0859 " fill="none" style="stroke:#181818;stroke-width:1;"/><path d="M580.6963,1401.6719 L590.6963,1401.6719 C605.6963,1401.6719 605.6963,1459.2813 620.6963,1459.2813 L630.6963,1459.2813 " fill="none" style="stroke:#181818;stroke-width:1;"/><path d="M440.6963,1344.0625 L450.6963,1344.0625 C465.6963,1344.0625 465.6963,1401.6719 480.6963,1401.6719 L490.6963,1401.6719 " fill="none" style="stroke:#181818;stroke-width:1;"/><path d="M356.6963,1286.4531 L366.6963,1286.4531 C381.6963,1286.4531 381.6963,1344.0625 396.6963,1344.0625 L406.6963,1344.0625 " fill="none" style="stroke:#181818;stroke-width:1;"/><path d="M244.6963,797.1523 L254.6963,797.1523 C269.6963,797.1523 269.6963,1286.4531 284.6963,1286.4531 L294.6963,1286.4531 " fill="none" style="stroke:#181818;stroke-width:1;"/><!--SRC=[xLbRRnD757xVNp5LNm0f9a2AK8GgY25g4K6e3ZpnCbaFpi9wrrgFZKnLoIPn4gVEfMeeiKEJ9WL2KnGd9GNRkVqOzfOd_aBFxdgTjPszGFjMHr7acVFDEUSxbvdnv4gIOed6EI4Qnmc6-O8JM3uL9IWKEjlyJT8CJyucU2pGL9plCS0zWEunvqCSp34CvIXFaFRYGDuhgs-VQalJgASnrDR_KEfpC5HUlLOstofpLGEmlz6SaVUVwvKSp7pScrAVhoW7UMMkee_jgzdresURHskB7_SA37Ec7IrNPzlGiFxsXRwl33Y2dpD8NPrIn_Bcm9hG5lwIQoKblwtC5xMbPzh6sCUzehxsfphzyuVi4tlLM5xPNvEhsTQ5IgwibyfARb8-MD8Fjrg5pP4r8rTdrELnTMfUtjkml6q1D9RDJsWBsns2fWOb_rvzNcZZsEfZlTZgXbgSbFSFvMe9ecIP1dumrFBholGourHVQdFPpTyJwTaezMb9MPZGfYidq5EsVbAVRkcL7HU6ba4NeKTi6jhpss1MtfrLjfSXBChi2YnnnJT9jx7KokFAvhA-MWHT4AcZ9x_BjQbxWb4c1uUTM4-wBygUT9ibyRcCjJTle2R1onEfoxjvVVMrkZWBW7k2HKhFvYsJ03VR2oJgOiLYqIOq8d6Orr_br5zNvTrtq4fAOKQTcxU71NErdYqQF1OhIZwlJ4rOGhjptDsk5s4r15MVt53URniTx6WaKp5Gb-kpsbvThisrLNp3fcVYxWbMwi16CqqWbAjrjRBG28OvrFTthG1jRQjBEqQJrHVqoakFLBUpwzY7FgFq_tKjgC_MjF5tHfcU59ccxysIbcihmBW93i30fvhLqkPHjkmCDEFLTzvqrVAEChtq8PjJNkVqiHnyq7SEvTgMLm3SzGKAeGM20bDUh5ZrPWKJ6k1eSbAP-qK_BCdLWhO-8rTV7atEg8KVrSs_smw8macRRwCxwr39fSvAXydElRXM2dvyU6x7FbkKUnxy3YEWqk4Ii55_gwapcoVkHytICu_SbkhpTxVRO__Z7cEk4BYDsZVIAwqNrClcfVDhfZ5nZSCn2SVHz-14Q8HF4VCJGWEOVHYJn9GG3OkyA26UYurIGmxI7mni54iF9H9rWJUaDZWc4I9uQJO13dJ61voniQA4XPYRqvRGXYPIKe9tWrf26-fEp45A4fDkshuS71mO28TjP8RmlFZ81Mi9JIWJYcDE61ubSLlne2ZG2FUOe0kzZ24dySGeJd99_rWwqRqkyEJ3Z9bI9_QyTooTq06OOaUXGWCvmyK4KI81yehGJKuWxVF7AWAQzLHbA1C4aIK2TOkDO2R5Ie4rDS83faqhD8_b6ojnpQmTYwaOnrIqd1SeMED40VFXJyNUbaW2IzYO-PHbLqT4YVgLNL1Tb4BUgL-d1TGM5kFGRjIj71ehtTGPwHD8338AIft1zDgr_38P9IJXR8XM0zTX5ntXkUIe-vRdMDzgxT4eHzjZusBcbaZzBPcis0mM0h1YSPJGfZ7CibpKlUPRjc8_pVUX5PEE_eOnIuRm0vBowNAH1nSaCUgeG9yUirUOTX9YagDScbnb7UtGiPrZdWGbSam1Se5zLSSvE46DlJz8JJMEGKDvCZNoWB26UhVeu3ISsqGAg3VDYT11fchHJxCHzy3XFjxfMnlNkrTRQjdt367Wp-MpZQj8z-sh-_RLVVlgldrrtxwwtykxRr_Tjw_ksrUtn_wRjw_RnhzSxmpTH6aY9Oqh_RdG-TxpVQ5BfoAOebjY6fsxY7hFzVVrzVTTHE78C3B4fvbJGzyEewIOWcyqA0htVOaRIHcNuDFC3Pp6wBiKN8dZf1yPerF3GwTHvBezYQuBQKuIXJXSWvaRTuSi4Ff6f964I4tmnRwU0OwY2970BNHtYBb6xkCKJs4fAqOv8TQFxWmFzbnYRi9rEOLZO0Y-e8JX7asb3CWY_m00]--></g></svg>