<svg xmlns="http://www.w3.org/2000/svg" xmlns:xlink="http://www.w3.org/1999/xlink" contentStyleType="text/css" height="579px" preserveAspectRatio="none" style="width:620px;height:579px;background:#FFFFFF;" version="1.1" viewBox="0 0 620 579" width="620px" zoomAndPan="magnify"><title>&#31038;&#20250;&#27861;&#30410; - &#31038;&#20250;&#31209;&#24207; - &#22952;&#23475;&#21496;&#27861;&#32618;</title><defs/><g><text fill="#000000" font-family="sans-serif" font-size="14" font-weight="bold" lengthAdjust="spacing" textLength="212.5703" x="202.563" y="34.5332">&#31038;&#20250;&#27861;&#30410; - &#31038;&#20250;&#31209;&#24207; - &#22952;&#23475;&#21496;&#27861;&#32618;</text><rect fill="#F1F1F1" height="37.6094" rx="12.5" ry="12.5" style="stroke:#181818;stroke-width:1.5;" width="150.6963" x="10" y="289.0469"/><text fill="#000000" font-family="sans-serif" font-size="14" lengthAdjust="spacing" textLength="130.6963" x="20" y="313.5801">&#22952;&#23475;&#21496;&#27861;&#32618;&#65288;P345&#65289;</text><rect fill="#F1F1F1" height="37.6094" rx="12.5" ry="12.5" style="stroke:#181818;stroke-width:1.5;" width="62" x="210.6963" y="58.6094"/><text fill="#000000" font-family="sans-serif" font-size="14" lengthAdjust="spacing" textLength="42" x="220.6963" y="83.1426">&#20266;&#35777;&#32618;</text><rect fill="#F1F1F1" height="37.6094" rx="12.5" ry="12.5" style="stroke:#181818;stroke-width:1.5;" width="76" x="322.6963" y="58.6094"/><text fill="#000000" font-family="sans-serif" font-size="14" lengthAdjust="spacing" textLength="56" x="332.6963" y="83.1426">&#21009;&#20107;&#35785;&#35772;</text><path d="M272.6963,77.4141 L282.6963,77.4141 C297.6963,77.4141 297.6963,77.4141 312.6963,77.4141 L322.6963,77.4141 " fill="none" style="stroke:#181818;stroke-width:1;"/><path d="M160.6963,307.8516 L170.6963,307.8516 C185.6963,307.8516 185.6963,77.4141 200.6963,77.4141 L210.6963,77.4141 " fill="none" style="stroke:#181818;stroke-width:1;"/><rect fill="#F1F1F1" height="37.6094" rx="12.5" ry="12.5" style="stroke:#181818;stroke-width:1.5;" width="90" x="210.6963" y="202.6328"/><text fill="#000000" font-family="sans-serif" font-size="14" lengthAdjust="spacing" textLength="70" x="220.6963" y="227.166">&#22952;&#23475;&#20316;&#35777;&#32618;</text><rect fill="#F1F1F1" height="37.6094" rx="12.5" ry="12.5" style="stroke:#181818;stroke-width:1.5;" width="62" x="350.6963" y="173.8281"/><text fill="#000000" font-family="sans-serif" font-size="14" lengthAdjust="spacing" textLength="42" x="360.6963" y="198.3613">&#22810;&#25968;&#35828;</text><rect fill="#F1F1F1" height="37.6094" rx="12.5" ry="12.5" style="stroke:#181818;stroke-width:1.5;" width="76" x="462.6963" y="116.2188"/><text fill="#000000" font-family="sans-serif" font-size="14" lengthAdjust="spacing" textLength="56" x="472.6963" y="140.752">&#21009;&#20107;&#35785;&#35772;</text><path d="M412.6963,192.6328 L422.6963,192.6328 C437.6963,192.6328 437.6963,135.0234 452.6963,135.0234 L462.6963,135.0234 " fill="none" style="stroke:#181818;stroke-width:1;"/><rect fill="#F1F1F1" height="37.6094" rx="12.5" ry="12.5" style="stroke:#181818;stroke-width:1.5;" width="76" x="462.6963" y="173.8281"/><text fill="#000000" font-family="sans-serif" font-size="14" lengthAdjust="spacing" textLength="56" x="472.6963" y="198.3613">&#27665;&#20107;&#35785;&#35772;</text><path d="M412.6963,192.6328 L422.6963,192.6328 C437.6963,192.6328 437.6963,192.6328 452.6963,192.6328 L462.6963,192.6328 " fill="none" style="stroke:#181818;stroke-width:1;"/><rect fill="#F1F1F1" height="37.6094" rx="12.5" ry="12.5" style="stroke:#181818;stroke-width:1.5;" width="76" x="462.6963" y="231.4375"/><text fill="#000000" font-family="sans-serif" font-size="14" lengthAdjust="spacing" textLength="56" x="472.6963" y="255.9707">&#34892;&#25919;&#35785;&#35772;</text><path d="M412.6963,192.6328 L422.6963,192.6328 C437.6963,192.6328 437.6963,250.2422 452.6963,250.2422 L462.6963,250.2422 " fill="none" style="stroke:#181818;stroke-width:1;"/><path d="M300.6963,221.4375 L310.6963,221.4375 C325.6963,221.4375 325.6963,192.6328 340.6963,192.6328 L350.6963,192.6328 " fill="none" style="stroke:#181818;stroke-width:1;"/><rect fill="#F1F1F1" height="37.6094" rx="12.5" ry="12.5" style="stroke:#181818;stroke-width:1.5;" width="62" x="350.6963" y="289.0469"/><text fill="#000000" font-family="sans-serif" font-size="14" lengthAdjust="spacing" textLength="42" x="360.6963" y="313.5801">&#23569;&#25968;&#35828;</text><rect fill="#F1F1F1" height="37.6094" rx="12.5" ry="12.5" style="stroke:#181818;stroke-width:1.5;" width="76" x="462.6963" y="289.0469"/><text fill="#000000" font-family="sans-serif" font-size="14" lengthAdjust="spacing" textLength="56" x="472.6963" y="313.5801">&#21009;&#20107;&#35785;&#35772;</text><path d="M412.6963,307.8516 L422.6963,307.8516 C437.6963,307.8516 437.6963,307.8516 452.6963,307.8516 L462.6963,307.8516 " fill="none" style="stroke:#181818;stroke-width:1;"/><path d="M300.6963,221.4375 L310.6963,221.4375 C325.6963,221.4375 325.6963,307.8516 340.6963,307.8516 L350.6963,307.8516 " fill="none" style="stroke:#181818;stroke-width:1;"/><path d="M160.6963,307.8516 L170.6963,307.8516 C185.6963,307.8516 185.6963,221.4375 200.6963,221.4375 L210.6963,221.4375 " fill="none" style="stroke:#181818;stroke-width:1;"/><rect fill="#F1F1F1" height="37.6094" rx="12.5" ry="12.5" style="stroke:#181818;stroke-width:1.5;" width="160" x="210.6963" y="404.2656"/><text fill="#000000" font-family="sans-serif" font-size="14" lengthAdjust="spacing" textLength="140" x="220.6963" y="428.7988">&#24110;&#21161;&#27585;&#28781;&#12289;&#20266;&#36896;&#35777;&#25454;&#32618;</text><rect fill="#F1F1F1" height="37.6094" rx="12.5" ry="12.5" style="stroke:#181818;stroke-width:1.5;" width="62" x="420.6963" y="404.2656"/><text fill="#000000" font-family="sans-serif" font-size="14" lengthAdjust="spacing" textLength="42" x="430.6963" y="428.7988">&#22810;&#25968;&#35828;</text><rect fill="#F1F1F1" height="37.6094" rx="12.5" ry="12.5" style="stroke:#181818;stroke-width:1.5;" width="76" x="532.6963" y="346.6563"/><text fill="#000000" font-family="sans-serif" font-size="14" lengthAdjust="spacing" textLength="56" x="542.6963" y="371.1895">&#21009;&#20107;&#35785;&#35772;</text><path d="M482.6963,423.0703 L492.6963,423.0703 C507.6963,423.0703 507.6963,365.4609 522.6963,365.4609 L532.6963,365.4609 " fill="none" style="stroke:#181818;stroke-width:1;"/><rect fill="#F1F1F1" height="37.6094" rx="12.5" ry="12.5" style="stroke:#181818;stroke-width:1.5;" width="76" x="532.6963" y="404.2656"/><text fill="#000000" font-family="sans-serif" font-size="14" lengthAdjust="spacing" textLength="56" x="542.6963" y="428.7988">&#27665;&#20107;&#35785;&#35772;</text><path d="M482.6963,423.0703 L492.6963,423.0703 C507.6963,423.0703 507.6963,423.0703 522.6963,423.0703 L532.6963,423.0703 " fill="none" style="stroke:#181818;stroke-width:1;"/><rect fill="#F1F1F1" height="37.6094" rx="12.5" ry="12.5" style="stroke:#181818;stroke-width:1.5;" width="76" x="532.6963" y="461.875"/><text fill="#000000" font-family="sans-serif" font-size="14" lengthAdjust="spacing" textLength="56" x="542.6963" y="486.4082">&#34892;&#25919;&#35785;&#35772;</text><path d="M482.6963,423.0703 L492.6963,423.0703 C507.6963,423.0703 507.6963,480.6797 522.6963,480.6797 L532.6963,480.6797 " fill="none" style="stroke:#181818;stroke-width:1;"/><path d="M370.6963,423.0703 L380.6963,423.0703 C395.6963,423.0703 395.6963,423.0703 410.6963,423.0703 L420.6963,423.0703 " fill="none" style="stroke:#181818;stroke-width:1;"/><path d="M160.6963,307.8516 L170.6963,307.8516 C185.6963,307.8516 185.6963,423.0703 200.6963,423.0703 L210.6963,423.0703 " fill="none" style="stroke:#181818;stroke-width:1;"/><rect fill="#F1F1F1" height="37.6094" rx="12.5" ry="12.5" style="stroke:#181818;stroke-width:1.5;" width="76" x="210.6963" y="519.4844"/><text fill="#000000" font-family="sans-serif" font-size="14" lengthAdjust="spacing" textLength="56" x="220.6963" y="544.0176">&#34394;&#20551;&#35785;&#35772;</text><rect fill="#F1F1F1" height="37.6094" rx="12.5" ry="12.5" style="stroke:#181818;stroke-width:1.5;" width="76" x="336.6963" y="519.4844"/><text fill="#000000" font-family="sans-serif" font-size="14" lengthAdjust="spacing" textLength="56" x="346.6963" y="544.0176">&#27665;&#20107;&#35785;&#35772;</text><path d="M286.6963,538.2891 L296.6963,538.2891 C311.6963,538.2891 311.6963,538.2891 326.6963,538.2891 L336.6963,538.2891 " fill="none" style="stroke:#181818;stroke-width:1;"/><path d="M160.6963,307.8516 L170.6963,307.8516 C185.6963,307.8516 185.6963,538.2891 200.6963,538.2891 L210.6963,538.2891 " fill="none" style="stroke:#181818;stroke-width:1;"/><!--SRC=[xLVDQnD15B_FNp7YfHMIVXYB596QsABII37H-sHtt8oTdLbcPoDH17lo6n7qOFMW87w1RK4F8b7_69iqdlmNVBERRJOfcrqlNdG98VFURtxllNaVirdoDL7QPS9sYOVG8IOi7jWK5uip-nzVjpcTyJWHEd1vmO0BW2w4yY836KAQQKxntgjlkvtDtiSdUy_kui9WkVVcNVVBGrXsNx_jRdtiFlni05_V8tHaNFIhStljQEdOhyuTXE4vWdSxx_lR6mQC1m_ikVrezykz_lQT_bPd08jeThy-FmX-jTbxijFV_hGlIo4PgdexgQh-o_kznz_7L42syoYV4H1ztkhUVTS3DpS-_BYv0V7zlFa2lEuzsFghZeFewMPtuzQ1M4P8q1A5meYBOscqLaw4-J-91eBJZ3YAkFWwa1KRFA3XBupBn5ftb0o4NP5SAioPqzH63zeR1ciJjQwedG8VQ6EmeoWLavX3G0BTpW2tOwnKH3XfJaVA6Ee5okDfq4WPGzC3ImIbf9_6TdXbfLokL69act8khwPW8sK8HKMNC55lKZScNf52rzWrYe_E8gEdhjSaFlEpppA9das1- -ljCAL9xFpaiqn2oo2ocb1zkPnXZf2AviWhngjCq77va2AdsObKXam8QL6Xqyv6X4c9KX296XmmOwpGF95lbcBxMHkgjNI9bf7pGeCr9WNXbJ_5hYdg4KMCv4-sdMf8fRFABY-Nrf1tdTLfETagqeLsqsdbCDYPHcVI9wW36GNIv65EcbfPcRGfzP8DCMfW6QPeWpE_cJxo4lj7hLrjCZr-DYbcpakTRIcCoceJaICgYzXKxniZbiNiz9eV6SLPp9UX5Vr4VyFQebLoXGOPNIuvkA2adQZ0Z1wBTuHsFEappLhqb9LeXmFZd72QDv1X290BaadjChX1pUpFKrE3Qz2G-q7Z2hKCVThfa1RSsrJbv6qn2HqKKiiiPdFkkOzxEEb76tTohuxKSkOTWk3hnCpWLUJ_Q-W_y1gwPlw8NAokuXPLlkckkUByx7ofU7ogHZG-BrjuRW7FpYsMIekb1LofrR5HJwEfwjawzcK0mmNRq7gADG9JZzFe76aHV260wdJf8ZQhgNfr6jUMOo5U5Yscf72X8j6vIzK8XCz8NVEa3i4BfKAPQLoZ2jp2bwheDBrC0gvXgoLj9fn5VB6-KZYELg5o0-A08PWL5IXfhTgWg_q6]--></g></svg>