<svg xmlns="http://www.w3.org/2000/svg" xmlns:xlink="http://www.w3.org/1999/xlink" contentStyleType="text/css" height="1717px" preserveAspectRatio="none" style="width:1188px;height:1717px;background:#FFFFFF;" version="1.1" viewBox="0 0 1188 1717" width="1188px" zoomAndPan="magnify"><title>&#31038;&#20250;&#27861;&#30410; - &#20844;&#20849;&#23433;&#20840; - &#32463;&#27982;&#29359;&#32618; - &#36208;&#31169;&#29359;&#32618;</title><defs/><g><text fill="#000000" font-family="sans-serif" font-size="14" font-weight="bold" lengthAdjust="spacing" textLength="268.3242" x="458.5791" y="34.5332">&#31038;&#20250;&#27861;&#30410; - &#20844;&#20849;&#23433;&#20840; - &#32463;&#27982;&#29359;&#32618; - &#36208;&#31169;&#29359;&#32618;</text><rect fill="#F1F1F1" height="37.6094" rx="12.5" ry="12.5" style="stroke:#181818;stroke-width:1.5;" width="136.6963" x="10" y="858.4492"/><text fill="#000000" font-family="sans-serif" font-size="14" lengthAdjust="spacing" textLength="116.6963" x="20" y="882.9824">&#36208;&#31169;&#29359;&#32618;&#65288;P311&#65289;</text><rect fill="#F1F1F1" height="37.6094" rx="12.5" ry="12.5" style="stroke:#181818;stroke-width:1.5;" width="48" x="196.6963" y="346.6563"/><text fill="#000000" font-family="sans-serif" font-size="14" lengthAdjust="spacing" textLength="28" x="206.6963" y="371.1895">&#36208;&#31169;</text><rect fill="#F1F1F1" height="37.6094" rx="12.5" ry="12.5" style="stroke:#181818;stroke-width:1.5;" width="48" x="294.6963" y="145.0234"/><text fill="#000000" font-family="sans-serif" font-size="14" lengthAdjust="spacing" textLength="28" x="304.6963" y="169.5566">&#23545;&#35937;</text><rect fill="#F1F1F1" height="37.6094" rx="12.5" ry="12.5" style="stroke:#181818;stroke-width:1.5;" width="160" x="392.6963" y="87.4141"/><text fill="#000000" font-family="sans-serif" font-size="14" lengthAdjust="spacing" textLength="140" x="402.6963" y="111.9473">&#22269;&#23478;&#20801;&#35768;&#36827;&#20986;&#21475;&#30340;&#36135;&#29289;</text><rect fill="#F1F1F1" height="37.6094" rx="12.5" ry="12.5" style="stroke:#181818;stroke-width:1.5;" width="48" x="602.6963" y="58.6094"/><text fill="#000000" font-family="sans-serif" font-size="14" lengthAdjust="spacing" textLength="28" x="612.6963" y="83.1426">&#27861;&#30410;</text><rect fill="#F1F1F1" height="37.6094" rx="12.5" ry="12.5" style="stroke:#181818;stroke-width:1.5;" width="76" x="700.6963" y="58.6094"/><text fill="#000000" font-family="sans-serif" font-size="14" lengthAdjust="spacing" textLength="56" x="710.6963" y="83.1426">&#20599;&#36867;&#20851;&#31246;</text><path d="M650.6963,77.4141 L660.6963,77.4141 C675.6963,77.4141 675.6963,77.4141 690.6963,77.4141 L700.6963,77.4141 " fill="none" style="stroke:#181818;stroke-width:1;"/><path d="M552.6963,106.2188 L562.6963,106.2188 C577.6963,106.2188 577.6963,77.4141 592.6963,77.4141 L602.6963,77.4141 " fill="none" style="stroke:#181818;stroke-width:1;"/><rect fill="#F1F1F1" height="37.6094" rx="12.5" ry="12.5" style="stroke:#181818;stroke-width:1.5;" width="48" x="602.6963" y="116.2188"/><text fill="#000000" font-family="sans-serif" font-size="14" lengthAdjust="spacing" textLength="28" x="612.6963" y="140.752">&#32618;&#21517;</text><rect fill="#F1F1F1" height="37.6094" rx="12.5" ry="12.5" style="stroke:#181818;stroke-width:1.5;" width="132" x="700.6963" y="116.2188"/><text fill="#000000" font-family="sans-serif" font-size="14" lengthAdjust="spacing" textLength="112" x="710.6963" y="140.752">&#36208;&#31169;&#26222;&#36890;&#36135;&#29289;&#21697;&#32618;</text><path d="M650.6963,135.0234 L660.6963,135.0234 C675.6963,135.0234 675.6963,135.0234 690.6963,135.0234 L700.6963,135.0234 " fill="none" style="stroke:#181818;stroke-width:1;"/><path d="M552.6963,106.2188 L562.6963,106.2188 C577.6963,106.2188 577.6963,135.0234 592.6963,135.0234 L602.6963,135.0234 " fill="none" style="stroke:#181818;stroke-width:1;"/><path d="M342.6963,163.8281 L352.6963,163.8281 C367.6963,163.8281 367.6963,106.2188 382.6963,106.2188 L392.6963,106.2188 " fill="none" style="stroke:#181818;stroke-width:1;"/><rect fill="#F1F1F1" height="37.6094" rx="12.5" ry="12.5" style="stroke:#181818;stroke-width:1.5;" width="160" x="392.6963" y="202.6328"/><text fill="#000000" font-family="sans-serif" font-size="14" lengthAdjust="spacing" textLength="140" x="402.6963" y="227.166">&#22269;&#23478;&#31105;&#27490;&#36827;&#20986;&#21475;&#30340;&#36135;&#29289;</text><rect fill="#F1F1F1" height="37.6094" rx="12.5" ry="12.5" style="stroke:#181818;stroke-width:1.5;" width="48" x="602.6963" y="173.8281"/><text fill="#000000" font-family="sans-serif" font-size="14" lengthAdjust="spacing" textLength="28" x="612.6963" y="198.3613">&#27861;&#30410;</text><rect fill="#F1F1F1" height="37.6094" rx="12.5" ry="12.5" style="stroke:#181818;stroke-width:1.5;" width="174" x="700.6963" y="173.8281"/><text fill="#000000" font-family="sans-serif" font-size="14" lengthAdjust="spacing" textLength="154" x="710.6963" y="198.3613">&#20405;&#29359;&#30340;&#26159;&#28023;&#20851;&#30340;&#30417;&#31649;&#21046;&#24230;</text><path d="M650.6963,192.6328 L660.6963,192.6328 C675.6963,192.6328 675.6963,192.6328 690.6963,192.6328 L700.6963,192.6328 " fill="none" style="stroke:#181818;stroke-width:1;"/><path d="M552.6963,221.4375 L562.6963,221.4375 C577.6963,221.4375 577.6963,192.6328 592.6963,192.6328 L602.6963,192.6328 " fill="none" style="stroke:#181818;stroke-width:1;"/><rect fill="#F1F1F1" height="37.6094" rx="12.5" ry="12.5" style="stroke:#181818;stroke-width:1.5;" width="76" x="602.6963" y="231.4375"/><text fill="#000000" font-family="sans-serif" font-size="14" lengthAdjust="spacing" textLength="56" x="612.6963" y="255.9707">&#20061;&#20010;&#32618;&#21517;</text><path d="M552.6963,221.4375 L562.6963,221.4375 C577.6963,221.4375 577.6963,250.2422 592.6963,250.2422 L602.6963,250.2422 " fill="none" style="stroke:#181818;stroke-width:1;"/><path d="M342.6963,163.8281 L352.6963,163.8281 C367.6963,163.8281 367.6963,221.4375 382.6963,221.4375 L392.6963,221.4375 " fill="none" style="stroke:#181818;stroke-width:1;"/><path d="M244.6963,365.4609 L254.6963,365.4609 C269.6963,365.4609 269.6963,163.8281 284.6963,163.8281 L294.6963,163.8281 " fill="none" style="stroke:#181818;stroke-width:1;"/><rect fill="#F1F1F1" height="37.6094" rx="12.5" ry="12.5" style="stroke:#181818;stroke-width:1.5;" width="48" x="294.6963" y="375.4609"/><text fill="#000000" font-family="sans-serif" font-size="14" lengthAdjust="spacing" textLength="28" x="304.6963" y="399.9941">&#21547;&#20041;</text><rect fill="#F1F1F1" height="37.6094" rx="12.5" ry="12.5" style="stroke:#181818;stroke-width:1.5;" width="76" x="392.6963" y="346.6563"/><text fill="#000000" font-family="sans-serif" font-size="14" lengthAdjust="spacing" textLength="56" x="402.6963" y="371.1895">&#20599;&#36867;&#20851;&#31246;</text><rect fill="#F1F1F1" height="37.6094" rx="12.5" ry="12.5" style="stroke:#181818;stroke-width:1.5;" width="146" x="518.6963" y="346.6563"/><text fill="#000000" font-family="sans-serif" font-size="14" lengthAdjust="spacing" textLength="126" x="528.6963" y="371.1895">&#36208;&#31169;&#26222;&#36890;&#36135;&#29289;&#29289;&#21697;&#32618;</text><rect fill="#F1F1F1" height="37.6094" rx="12.5" ry="12.5" style="stroke:#181818;stroke-width:1.5;" width="48" x="714.6963" y="346.6563"/><text fill="#000000" font-family="sans-serif" font-size="14" lengthAdjust="spacing" textLength="28" x="724.6963" y="371.1895">&#35299;&#37322;</text><rect fill="#F1F1F1" height="37.6094" rx="12.5" ry="12.5" style="stroke:#181818;stroke-width:1.5;" width="76" x="812.6963" y="289.0469"/><text fill="#000000" font-family="sans-serif" font-size="14" lengthAdjust="spacing" textLength="56" x="822.6963" y="313.5801">&#26222;&#36890;&#36135;&#29289;</text><rect fill="#F1F1F1" height="37.6094" rx="12.5" ry="12.5" style="stroke:#181818;stroke-width:1.5;" width="118" x="938.6963" y="289.0469"/><text fill="#000000" font-family="sans-serif" font-size="14" lengthAdjust="spacing" textLength="98" x="948.6963" y="313.5801">&#22269;&#23478;&#20801;&#35768;&#36827;&#20986;&#21475;</text><path d="M888.6963,307.8516 L898.6963,307.8516 C913.6963,307.8516 913.6963,307.8516 928.6963,307.8516 L938.6963,307.8516 " fill="none" style="stroke:#181818;stroke-width:1;"/><path d="M762.6963,365.4609 L772.6963,365.4609 C787.6963,365.4609 787.6963,307.8516 802.6963,307.8516 L812.6963,307.8516 " fill="none" style="stroke:#181818;stroke-width:1;"/><rect fill="#F1F1F1" height="37.6094" rx="12.5" ry="12.5" style="stroke:#181818;stroke-width:1.5;" width="162.7412" x="812.6963" y="375.4609"/><text fill="#000000" font-family="sans-serif" font-size="14" lengthAdjust="spacing" textLength="142.7412" x="822.6963" y="399.9941">&#28023;&#20851;&#39046;&#22495;&#30340;&#36867;&#31246;&#32618; A+B</text><rect fill="#F1F1F1" height="37.6094" rx="12.5" ry="12.5" style="stroke:#181818;stroke-width:1.5;" width="75.2275" x="1025.4375" y="346.6563"/><text fill="#000000" font-family="sans-serif" font-size="14" lengthAdjust="spacing" textLength="55.2275" x="1035.4375" y="371.1895">&#36867;&#31246;&#32618; A</text><path d="M975.4375,394.2656 L985.4375,394.2656 C1000.4375,394.2656 1000.4375,365.4609 1015.4375,365.4609 L1025.4375,365.4609 " fill="none" style="stroke:#181818;stroke-width:1;"/><rect fill="#F1F1F1" height="37.6094" rx="12.5" ry="12.5" style="stroke:#181818;stroke-width:1.5;" width="89.2275" x="1025.4375" y="404.2656"/><text fill="#000000" font-family="sans-serif" font-size="14" lengthAdjust="spacing" textLength="69.2275" x="1035.4375" y="428.7988">&#28023;&#20851;&#39046;&#22495; B</text><path d="M975.4375,394.2656 L985.4375,394.2656 C1000.4375,394.2656 1000.4375,423.0703 1015.4375,423.0703 L1025.4375,423.0703 " fill="none" style="stroke:#181818;stroke-width:1;"/><path d="M762.6963,365.4609 L772.6963,365.4609 C787.6963,365.4609 787.6963,394.2656 802.6963,394.2656 L812.6963,394.2656 " fill="none" style="stroke:#181818;stroke-width:1;"/><path d="M664.6963,365.4609 L674.6963,365.4609 C689.6963,365.4609 689.6963,365.4609 704.6963,365.4609 L714.6963,365.4609 " fill="none" style="stroke:#181818;stroke-width:1;"/><path d="M468.6963,365.4609 L478.6963,365.4609 C493.6963,365.4609 493.6963,365.4609 508.6963,365.4609 L518.6963,365.4609 " fill="none" style="stroke:#181818;stroke-width:1;"/><path d="M342.6963,394.2656 L352.6963,394.2656 C367.6963,394.2656 367.6963,365.4609 382.6963,365.4609 L392.6963,365.4609 " fill="none" style="stroke:#181818;stroke-width:1;"/><rect fill="#F1F1F1" height="37.6094" rx="12.5" ry="12.5" style="stroke:#181818;stroke-width:1.5;" width="174" x="392.6963" y="461.875"/><text fill="#000000" font-family="sans-serif" font-size="14" lengthAdjust="spacing" textLength="154" x="402.6963" y="486.4082">&#20405;&#29359;&#30340;&#26159;&#28023;&#20851;&#30340;&#30417;&#31649;&#21046;&#24230;</text><path d="M342.6963,394.2656 L352.6963,394.2656 C367.6963,394.2656 367.6963,480.6797 382.6963,480.6797 L392.6963,480.6797 " fill="none" style="stroke:#181818;stroke-width:1;"/><path d="M244.6963,365.4609 L254.6963,365.4609 C269.6963,365.4609 269.6963,394.2656 284.6963,394.2656 L294.6963,394.2656 " fill="none" style="stroke:#181818;stroke-width:1;"/><rect fill="#F1F1F1" height="37.6094" rx="12.5" ry="12.5" style="stroke:#181818;stroke-width:1.5;" width="48" x="294.6963" y="577.0938"/><text fill="#000000" font-family="sans-serif" font-size="14" lengthAdjust="spacing" textLength="28" x="304.6963" y="601.627">&#26041;&#21521;</text><rect fill="#F1F1F1" height="37.6094" rx="12.5" ry="12.5" style="stroke:#181818;stroke-width:1.5;" width="118" x="392.6963" y="519.4844"/><text fill="#000000" font-family="sans-serif" font-size="14" lengthAdjust="spacing" textLength="98" x="402.6963" y="544.0176">&#36827;&#21475;&#65288;&#20132;&#20851;&#31246;&#65289;</text><rect fill="#F1F1F1" height="37.6094" rx="12.5" ry="12.5" style="stroke:#181818;stroke-width:1.5;" width="230" x="560.6963" y="519.4844"/><text fill="#000000" font-family="sans-serif" font-size="14" lengthAdjust="spacing" textLength="210" x="570.6963" y="544.0176">&#26222;&#36890;&#36135;&#29289;&#21697;&#30340;&#36208;&#31169;&#26041;&#21521;&#20027;&#35201;&#26159;&#36827;&#21475;</text><path d="M510.6963,538.2891 L520.6963,538.2891 C535.6963,538.2891 535.6963,538.2891 550.6963,538.2891 L560.6963,538.2891 " fill="none" style="stroke:#181818;stroke-width:1;"/><path d="M342.6963,595.8984 L352.6963,595.8984 C367.6963,595.8984 367.6963,538.2891 382.6963,538.2891 L392.6963,538.2891 " fill="none" style="stroke:#181818;stroke-width:1;"/><rect fill="#F1F1F1" height="37.6094" rx="12.5" ry="12.5" style="stroke:#181818;stroke-width:1.5;" width="132" x="392.6963" y="605.8984"/><text fill="#000000" font-family="sans-serif" font-size="14" lengthAdjust="spacing" textLength="112" x="402.6963" y="630.4316">&#20986;&#21475;&#65288;&#20986;&#21475;&#20851;&#31246;&#65289;</text><rect fill="#F1F1F1" height="37.6094" rx="12.5" ry="12.5" style="stroke:#181818;stroke-width:1.5;" width="146" x="574.6963" y="577.0938"/><text fill="#000000" font-family="sans-serif" font-size="14" lengthAdjust="spacing" textLength="126" x="584.6963" y="601.627">&#20986;&#21475;&#24448;&#24448;&#36824;&#32473;&#20320;&#36864;&#31246;</text><path d="M524.6963,624.7031 L534.6963,624.7031 C549.6963,624.7031 549.6963,595.8984 564.6963,595.8984 L574.6963,595.8984 " fill="none" style="stroke:#181818;stroke-width:1;"/><rect fill="#F1F1F1" height="37.6094" rx="12.5" ry="12.5" style="stroke:#181818;stroke-width:1.5;" width="244" x="574.6963" y="634.7031"/><text fill="#000000" font-family="sans-serif" font-size="14" lengthAdjust="spacing" textLength="224" x="584.6963" y="659.2363">&#26377;&#20123;&#20010;&#21035;&#30340;&#36135;&#29289;&#35201;&#20986;&#21475;&#65292;&#20063;&#35201;&#20132;&#20851;&#31246;</text><path d="M524.6963,624.7031 L534.6963,624.7031 C549.6963,624.7031 549.6963,653.5078 564.6963,653.5078 L574.6963,653.5078 " fill="none" style="stroke:#181818;stroke-width:1;"/><path d="M342.6963,595.8984 L352.6963,595.8984 C367.6963,595.8984 367.6963,624.7031 382.6963,624.7031 L392.6963,624.7031 " fill="none" style="stroke:#181818;stroke-width:1;"/><path d="M244.6963,365.4609 L254.6963,365.4609 C269.6963,365.4609 269.6963,595.8984 284.6963,595.8984 L294.6963,595.8984 " fill="none" style="stroke:#181818;stroke-width:1;"/><path d="M146.6963,877.2539 L156.6963,877.2539 C171.6963,877.2539 171.6963,365.4609 186.6963,365.4609 L196.6963,365.4609 " fill="none" style="stroke:#181818;stroke-width:1;"/><rect fill="#F1F1F1" height="37.6094" rx="12.5" ry="12.5" style="stroke:#181818;stroke-width:1.5;" width="160" x="196.6963" y="795.6992"/><text fill="#000000" font-family="sans-serif" font-size="14" lengthAdjust="spacing" textLength="140" x="206.6963" y="820.2324">&#36208;&#31169;&#26222;&#36890;&#36135;&#29289;&#12289;&#29289;&#21697;&#32618;</text><rect fill="#F1F1F1" height="37.6094" rx="12.5" ry="12.5" style="stroke:#181818;stroke-width:1.5;" width="76" x="406.6963" y="692.3125"/><text fill="#000000" font-family="sans-serif" font-size="14" lengthAdjust="spacing" textLength="56" x="416.6963" y="716.8457">&#20599;&#36867;&#20851;&#31246;</text><path d="M356.6963,814.5039 L366.6963,814.5039 C381.6963,814.5039 381.6963,711.1172 396.6963,711.1172 L406.6963,711.1172 " fill="none" style="stroke:#181818;stroke-width:1;"/><rect fill="#F1F1F1" height="37.6094" rx="12.5" ry="12.5" style="stroke:#181818;stroke-width:1.5;" width="76" x="406.6963" y="749.9219"/><text fill="#000000" font-family="sans-serif" font-size="14" lengthAdjust="spacing" textLength="56" x="416.6963" y="774.4551">&#21464;&#30456;&#36208;&#31169;</text><rect fill="#F1F1F1" height="37.6094" rx="12.5" ry="12.5" style="stroke:#181818;stroke-width:1.5;" width="188" x="532.6963" y="718.5469"/><text fill="#000000" font-family="sans-serif" font-size="14" lengthAdjust="spacing" textLength="168" x="542.6963" y="743.0801">&#23558;&#20445;&#31246;&#36135;&#29289;&#22312;&#22659;&#20869;&#38144;&#21806;&#29279;&#21033;</text><rect fill="#F1F1F1" height="42.75" rx="12.5" ry="12.5" style="stroke:#181818;stroke-width:1.5;" width="128.8896" x="770.6963" y="715.9766"/><text fill="#000000" font-family="sans-serif" font-size="14" lengthAdjust="spacing" textLength="84" x="780.6963" y="745.6504">&#38750;&#27861;&#29279;&#21033;&#30446;&#30340;</text><path d="M888.687,726.7786 C887.8756,726.2525 886.7924,726.4835 886.2668,727.2943 L876.4609,742.4091 L871.6788,737.9874 C870.9689,737.3311 869.8623,737.3743 869.206,738.0842 C868.5498,738.7936 868.5929,739.9013 869.3029,740.557 L875.5819,746.3623 C875.7621,746.5175 875.7621,746.5175 875.8455,746.5717 C876.1395,746.7631 876.4697,746.8541 876.7964,746.8541 C877.3692,746.8541 877.9309,746.5729 878.2664,746.0561 L889.2027,729.1989 C889.7289,728.3881 889.4979,727.3042 888.687,726.7786 " fill="#FE0000" style="stroke:;stroke-width:0;stroke-dasharray:;"/><path d="M720.6963,737.3516 L730.6963,737.3516 C745.6963,737.3516 745.6963,737.3516 760.6963,737.3516 L770.6963,737.3516 " fill="none" style="stroke:#181818;stroke-width:1;"/><path d="M482.6963,768.7266 L492.6963,768.7266 C507.6963,768.7266 507.6963,737.3516 522.6963,737.3516 L532.6963,737.3516 " fill="none" style="stroke:#181818;stroke-width:1;"/><rect fill="#F1F1F1" height="42.75" rx="12.5" ry="12.5" style="stroke:#181818;stroke-width:1.5;" width="114.8896" x="532.6963" y="778.7266"/><text fill="#000000" font-family="sans-serif" font-size="14" lengthAdjust="spacing" textLength="70" x="542.6963" y="808.4004">&#19981;&#23450;&#36208;&#31169;&#32618;</text><path d="M629.1469,799.2277 L636.2839,792.0912 C636.8533,791.5219 636.8533,790.5985 636.2839,790.0291 C635.714,789.4592 634.7912,789.4592 634.2219,790.0291 L627.0848,797.1656 L619.9483,790.0291 C619.3789,789.4592 618.4549,789.4592 617.8862,790.0291 C617.3163,790.5985 617.3163,791.5219 617.8862,792.0912 L625.0227,799.2277 L617.8699,806.3811 C617.2999,806.9511 617.2999,807.8739 617.8699,808.4432 C618.1545,808.7279 618.5279,808.8702 618.9012,808.8702 C619.2745,808.8702 619.6479,808.7279 619.9325,808.4432 L627.0854,801.2898 L634.2219,808.4263 C634.5065,808.711 634.8799,808.8533 635.2532,808.8533 C635.6265,808.8533 635.9993,808.711 636.2845,808.4263 C636.8539,807.8564 636.8539,806.9336 636.2845,806.3642 L629.1469,799.2277 " fill="#FE0000" style="stroke:;stroke-width:0;stroke-dasharray:;"/><rect fill="#F1F1F1" height="37.6094" rx="12.5" ry="12.5" style="stroke:#181818;stroke-width:1.5;" width="48" x="697.5859" y="781.2969"/><text fill="#000000" font-family="sans-serif" font-size="14" lengthAdjust="spacing" textLength="28" x="707.5859" y="805.8301">&#36864;&#21270;</text><rect fill="#F1F1F1" height="42.75" rx="12.5" ry="12.5" style="stroke:#181818;stroke-width:1.5;" width="86.8896" x="795.5859" y="778.7266"/><text fill="#000000" font-family="sans-serif" font-size="14" lengthAdjust="spacing" textLength="42" x="805.5859" y="808.4004">&#36867;&#31246;&#32618;</text><path d="M871.5767,789.5286 C870.7653,789.0025 869.682,789.2335 869.1564,790.0443 L859.3506,805.1591 L854.5684,800.7374 C853.8585,800.0811 852.7519,800.1243 852.0957,800.8342 C851.4394,801.5436 851.4826,802.6513 852.1925,803.307 L858.4715,809.1123 C858.6518,809.2675 858.6518,809.2675 858.7352,809.3217 C859.0292,809.5131 859.3593,809.6041 859.686,809.6041 C860.2588,809.6041 860.8206,809.3229 861.156,808.8061 L872.0923,791.9489 C872.6185,791.1381 872.3875,790.0542 871.5767,789.5286 " fill="#FE0000" style="stroke:;stroke-width:0;stroke-dasharray:;"/><rect fill="#F1F1F1" height="42.75" rx="12.5" ry="12.5" style="stroke:#181818;stroke-width:1.5;" width="240.8896" x="932.4756" y="778.7266"/><text fill="#000000" font-family="sans-serif" font-size="14" lengthAdjust="spacing" textLength="196" x="942.4756" y="808.4004">&#19981;&#33021;&#20139;&#21463;&#36867;&#31246;&#32618;&#30340;&#22788;&#32602;&#38459;&#21364;&#20107;&#30001;</text><path d="M1154.9262,799.2277 L1162.0632,792.0912 C1162.6326,791.5219 1162.6326,790.5985 1162.0632,790.0291 C1161.4933,789.4592 1160.5705,789.4592 1160.0012,790.0291 L1152.8641,797.1656 L1145.7276,790.0291 C1145.1582,789.4592 1144.2342,789.4592 1143.6655,790.0291 C1143.0956,790.5985 1143.0956,791.5219 1143.6655,792.0912 L1150.802,799.2277 L1143.6492,806.3811 C1143.0792,806.9511 1143.0792,807.8739 1143.6492,808.4432 C1143.9338,808.7279 1144.3072,808.8702 1144.6805,808.8702 C1145.0538,808.8702 1145.4272,808.7279 1145.7118,808.4432 L1152.8647,801.2898 L1160.0012,808.4263 C1160.2858,808.711 1160.6592,808.8533 1161.0325,808.8533 C1161.4058,808.8533 1161.7786,808.711 1162.0638,808.4263 C1162.6332,807.8564 1162.6332,806.9336 1162.0638,806.3642 L1154.9262,799.2277 " fill="#FE0000" style="stroke:;stroke-width:0;stroke-dasharray:;"/><path d="M882.4756,800.1016 L892.4756,800.1016 C907.4756,800.1016 907.4756,800.1016 922.4756,800.1016 L932.4756,800.1016 " fill="none" style="stroke:#181818;stroke-width:1;"/><path d="M745.5859,800.1016 L755.5859,800.1016 C770.5859,800.1016 770.5859,800.1016 785.5859,800.1016 L795.5859,800.1016 " fill="none" style="stroke:#181818;stroke-width:1;"/><path d="M647.5859,800.1016 L657.5859,800.1016 C672.5859,800.1016 672.5859,800.1016 687.5859,800.1016 L697.5859,800.1016 " fill="none" style="stroke:#181818;stroke-width:1;"/><path d="M482.6963,768.7266 L492.6963,768.7266 C507.6963,768.7266 507.6963,800.1016 522.6963,800.1016 L532.6963,800.1016 " fill="none" style="stroke:#181818;stroke-width:1;"/><path d="M356.6963,814.5039 L366.6963,814.5039 C381.6963,814.5039 381.6963,768.7266 396.6963,768.7266 L406.6963,768.7266 " fill="none" style="stroke:#181818;stroke-width:1;"/><rect fill="#F1F1F1" height="37.6094" rx="12.5" ry="12.5" style="stroke:#181818;stroke-width:1.5;" width="76" x="406.6963" y="870.2813"/><text fill="#000000" font-family="sans-serif" font-size="14" lengthAdjust="spacing" textLength="56" x="416.6963" y="894.8145">&#38388;&#25509;&#36208;&#31169;</text><rect fill="#F1F1F1" height="37.6094" rx="12.5" ry="12.5" style="stroke:#181818;stroke-width:1.5;" width="34" x="532.6963" y="841.4766"/><text fill="#000000" font-family="sans-serif" font-size="14" lengthAdjust="spacing" textLength="14" x="542.6963" y="866.0098">&#20080;</text><rect fill="#F1F1F1" height="37.6094" rx="12.5" ry="12.5" style="stroke:#181818;stroke-width:1.5;" width="216" x="616.6963" y="841.4766"/><text fill="#000000" font-family="sans-serif" font-size="14" lengthAdjust="spacing" textLength="196" x="626.6963" y="866.0098">&#30452;&#25509;&#21521;&#36208;&#31169;&#20154;&#38750;&#27861;&#25910;&#36141;&#36208;&#31169;&#29289;&#21697;</text><path d="M566.6963,860.2813 L576.6963,860.2813 C591.6963,860.2813 591.6963,860.2813 606.6963,860.2813 L616.6963,860.2813 " fill="none" style="stroke:#181818;stroke-width:1;"/><path d="M482.6963,889.0859 L492.6963,889.0859 C507.6963,889.0859 507.6963,860.2813 522.6963,860.2813 L532.6963,860.2813 " fill="none" style="stroke:#181818;stroke-width:1;"/><rect fill="#F1F1F1" height="37.6094" rx="12.5" ry="12.5" style="stroke:#181818;stroke-width:1.5;" width="48" x="532.6963" y="899.0859"/><text fill="#000000" font-family="sans-serif" font-size="14" lengthAdjust="spacing" textLength="28" x="542.6963" y="923.6191">&#20174;&#20107;</text><rect fill="#F1F1F1" height="37.6094" rx="12.5" ry="12.5" style="stroke:#181818;stroke-width:1.5;" width="230" x="630.6963" y="899.0859"/><text fill="#000000" font-family="sans-serif" font-size="14" lengthAdjust="spacing" textLength="210" x="640.6963" y="923.6191">&#22312;&#22659;&#20869;&#36816;&#36755;&#12289;&#25910;&#36141;&#12289;&#36137;&#21334;&#36208;&#31169;&#29289;&#21697;</text><path d="M580.6963,917.8906 L590.6963,917.8906 C605.6963,917.8906 605.6963,917.8906 620.6963,917.8906 L630.6963,917.8906 " fill="none" style="stroke:#181818;stroke-width:1;"/><path d="M482.6963,889.0859 L492.6963,889.0859 C507.6963,889.0859 507.6963,917.8906 522.6963,917.8906 L532.6963,917.8906 " fill="none" style="stroke:#181818;stroke-width:1;"/><path d="M356.6963,814.5039 L366.6963,814.5039 C381.6963,814.5039 381.6963,889.0859 396.6963,889.0859 L406.6963,889.0859 " fill="none" style="stroke:#181818;stroke-width:1;"/><path d="M146.6963,877.2539 L156.6963,877.2539 C171.6963,877.2539 171.6963,814.5039 186.6963,814.5039 L196.6963,814.5039 " fill="none" style="stroke:#181818;stroke-width:1;"/><rect fill="#F1F1F1" height="37.6094" rx="12.5" ry="12.5" style="stroke:#181818;stroke-width:1.5;" width="202" x="196.6963" y="1307.4922"/><text fill="#000000" font-family="sans-serif" font-size="14" lengthAdjust="spacing" textLength="182" x="206.6963" y="1332.0254">&#36208;&#31169;&#31105;&#27490;&#36827;&#20986;&#21475;&#30340;&#36135;&#29289;&#12289;&#29289;&#21697;</text><rect fill="#F1F1F1" height="37.6094" rx="12.5" ry="12.5" style="stroke:#181818;stroke-width:1.5;" width="76" x="448.6963" y="1192.2734"/><text fill="#000000" font-family="sans-serif" font-size="14" lengthAdjust="spacing" textLength="56" x="458.6963" y="1216.8066">&#20061;&#20010;&#32618;&#21517;</text><rect fill="#F1F1F1" height="37.6094" rx="12.5" ry="12.5" style="stroke:#181818;stroke-width:1.5;" width="111.7861" x="574.6963" y="1163.4688"/><text fill="#000000" font-family="sans-serif" font-size="14" lengthAdjust="spacing" textLength="91.7861" x="584.6963" y="1188.002">&#20855;&#20307;&#32618;&#21517;&#65288;8&#65289;</text><rect fill="#F1F1F1" height="37.6094" rx="12.5" ry="12.5" style="stroke:#181818;stroke-width:1.5;" width="76" x="736.4824" y="1077.0547"/><text fill="#000000" font-family="sans-serif" font-size="14" lengthAdjust="spacing" textLength="56" x="746.4824" y="1101.5879">&#21452;&#21521;&#31105;&#27490;</text><rect fill="#F1F1F1" height="37.6094" rx="12.5" ry="12.5" style="stroke:#181818;stroke-width:1.5;" width="62" x="862.4824" y="988.0703"/><text fill="#000000" font-family="sans-serif" font-size="14" lengthAdjust="spacing" textLength="42" x="872.4824" y="1012.6035">&#21361;&#38505;&#29289;</text><rect fill="#F1F1F1" height="42.75" rx="12.5" ry="12.5" style="stroke:#181818;stroke-width:1.5;" width="156.8896" x="974.4824" y="956.6953"/><text fill="#000000" font-family="sans-serif" font-size="14" lengthAdjust="spacing" textLength="112" x="984.4824" y="986.3691">&#36208;&#31169;&#27494;&#22120;&#12289;&#24377;&#33647;&#32618;</text><path d="M1107.9554,986.5286 C1107.9554,987.6953 1107.9554,987.6953 1106.7887,987.6953 C1105.6221,987.6953 1105.6221,986.5286 1105.6221,986.5286 L1105.6221,967.862 C1105.6221,966.6953 1105.6221,966.6953 1106.7887,966.6953 C1107.9554,966.6953 1107.9554,967.862 1107.9554,967.862 L1107.9554,986.5286 " fill="#66757F" style="stroke:;stroke-width:0;stroke-dasharray:;"/><path d="M1106.7887,969.0286 C1106.7887,967.7453 1107.7431,967.1328 1108.9097,967.6677 L1118.6672,972.1401 C1119.8338,972.6751 1119.8338,973.5501 1118.6672,974.0844 L1108.9097,978.5568 C1107.7431,979.0911 1106.7887,978.4786 1106.7887,977.1953 L1106.7887,969.0286 " fill="#DD2E44" style="stroke:;stroke-width:0;stroke-dasharray:;"/><path d="M924.4824,1006.875 L934.4824,1006.875 C949.4824,1006.875 949.4824,978.0703 964.4824,978.0703 L974.4824,978.0703 " fill="none" style="stroke:#181818;stroke-width:1;"/><rect fill="#F1F1F1" height="37.6094" rx="12.5" ry="12.5" style="stroke:#181818;stroke-width:1.5;" width="104" x="974.4824" y="1019.4453"/><text fill="#000000" font-family="sans-serif" font-size="14" lengthAdjust="spacing" textLength="84" x="984.4824" y="1043.9785">&#36208;&#31169;&#26680;&#26448;&#26009;&#32618;</text><path d="M924.4824,1006.875 L934.4824,1006.875 C949.4824,1006.875 949.4824,1038.25 964.4824,1038.25 L974.4824,1038.25 " fill="none" style="stroke:#181818;stroke-width:1;"/><path d="M812.4824,1095.8594 L822.4824,1095.8594 C837.4824,1095.8594 837.4824,1006.875 852.4824,1006.875 L862.4824,1006.875 " fill="none" style="stroke:#181818;stroke-width:1;"/><rect fill="#F1F1F1" height="37.6094" rx="12.5" ry="12.5" style="stroke:#181818;stroke-width:1.5;" width="48" x="862.4824" y="1105.8594"/><text fill="#000000" font-family="sans-serif" font-size="14" lengthAdjust="spacing" textLength="28" x="872.4824" y="1130.3926">&#29645;&#36149;</text><rect fill="#F1F1F1" height="37.6094" rx="12.5" ry="12.5" style="stroke:#181818;stroke-width:1.5;" width="90" x="960.4824" y="1077.0547"/><text fill="#000000" font-family="sans-serif" font-size="14" lengthAdjust="spacing" textLength="70" x="970.4824" y="1101.5879">&#36208;&#31169;&#20551;&#24065;&#32618;</text><path d="M910.4824,1124.6641 L920.4824,1124.6641 C935.4824,1124.6641 935.4824,1095.8594 950.4824,1095.8594 L960.4824,1095.8594 " fill="none" style="stroke:#181818;stroke-width:1;"/><rect fill="#F1F1F1" height="37.6094" rx="12.5" ry="12.5" style="stroke:#181818;stroke-width:1.5;" width="216" x="960.4824" y="1134.6641"/><text fill="#000000" font-family="sans-serif" font-size="14" lengthAdjust="spacing" textLength="196" x="970.4824" y="1159.1973">&#36208;&#31169;&#29645;&#36149;&#21160;&#29289;&#12289;&#29645;&#36149;&#21160;&#29289;&#21046;&#21697;&#32618;</text><path d="M910.4824,1124.6641 L920.4824,1124.6641 C935.4824,1124.6641 935.4824,1153.4688 950.4824,1153.4688 L960.4824,1153.4688 " fill="none" style="stroke:#181818;stroke-width:1;"/><path d="M812.4824,1095.8594 L822.4824,1095.8594 C837.4824,1095.8594 837.4824,1124.6641 852.4824,1124.6641 L862.4824,1124.6641 " fill="none" style="stroke:#181818;stroke-width:1;"/><rect fill="#F1F1F1" height="37.6094" rx="12.5" ry="12.5" style="stroke:#181818;stroke-width:1.5;" width="34" x="862.4824" y="1194.8438"/><text fill="#000000" font-family="sans-serif" font-size="14" lengthAdjust="spacing" textLength="14" x="872.4824" y="1219.377">&#24615;</text><rect fill="#F1F1F1" height="42.75" rx="12.5" ry="12.5" style="stroke:#181818;stroke-width:1.5;" width="142.8896" x="946.4824" y="1192.2734"/><text fill="#000000" font-family="sans-serif" font-size="14" lengthAdjust="spacing" textLength="98" x="956.4824" y="1221.9473">&#36208;&#31169;&#28139;&#31229;&#29289;&#21697;&#32618;</text><path d="M1065.9554,1222.1068 C1065.9554,1223.2734 1065.9554,1223.2734 1064.7887,1223.2734 C1063.6221,1223.2734 1063.6221,1222.1068 1063.6221,1222.1068 L1063.6221,1203.4401 C1063.6221,1202.2734 1063.6221,1202.2734 1064.7887,1202.2734 C1065.9554,1202.2734 1065.9554,1203.4401 1065.9554,1203.4401 L1065.9554,1222.1068 " fill="#66757F" style="stroke:;stroke-width:0;stroke-dasharray:;"/><path d="M1064.7887,1204.6068 C1064.7887,1203.3234 1065.7431,1202.7109 1066.9097,1203.2459 L1076.6672,1207.7183 C1077.8338,1208.2532 1077.8338,1209.1282 1076.6672,1209.6625 L1066.9097,1214.1349 C1065.7431,1214.6693 1064.7887,1214.0568 1064.7887,1212.7734 L1064.7887,1204.6068 " fill="#DD2E44" style="stroke:;stroke-width:0;stroke-dasharray:;"/><path d="M896.4824,1213.6484 L906.4824,1213.6484 C921.4824,1213.6484 921.4824,1213.6484 936.4824,1213.6484 L946.4824,1213.6484 " fill="none" style="stroke:#181818;stroke-width:1;"/><path d="M812.4824,1095.8594 L822.4824,1095.8594 C837.4824,1095.8594 837.4824,1213.6484 852.4824,1213.6484 L862.4824,1213.6484 " fill="none" style="stroke:#181818;stroke-width:1;"/><path d="M686.4824,1182.2734 L696.4824,1182.2734 C711.4824,1182.2734 711.4824,1095.8594 726.4824,1095.8594 L736.4824,1095.8594 " fill="none" style="stroke:#181818;stroke-width:1;"/><rect fill="#90EE90" height="37.6094" rx="12.5" ry="12.5" style="stroke:#181818;stroke-width:1.5;" width="79.8896" x="736.4824" y="1312.6328"/><text fill="#000000" font-family="sans-serif" font-size="14" lengthAdjust="spacing" textLength="56" x="746.4824" y="1337.166">&#21333;&#21521;&#31105;&#27490;</text><rect fill="#F1F1F1" height="37.6094" rx="12.5" ry="12.5" style="stroke:#181818;stroke-width:1.5;" width="90" x="866.3721" y="1255.0234"/><text fill="#000000" font-family="sans-serif" font-size="14" lengthAdjust="spacing" textLength="70" x="876.3721" y="1279.5566">&#21482;&#31105;&#27490;&#36827;&#21475;</text><rect fill="#F1F1F1" height="37.6094" rx="12.5" ry="12.5" style="stroke:#181818;stroke-width:1.5;" width="90" x="1006.3721" y="1255.0234"/><text fill="#000000" font-family="sans-serif" font-size="14" lengthAdjust="spacing" textLength="70" x="1016.3721" y="1279.5566">&#36208;&#31169;&#24223;&#29289;&#32618;</text><path d="M956.3721,1273.8281 L966.3721,1273.8281 C981.3721,1273.8281 981.3721,1273.8281 996.3721,1273.8281 L1006.3721,1273.8281 " fill="none" style="stroke:#181818;stroke-width:1;"/><path d="M816.3721,1331.4375 L826.3721,1331.4375 C841.3721,1331.4375 841.3721,1273.8281 856.3721,1273.8281 L866.3721,1273.8281 " fill="none" style="stroke:#181818;stroke-width:1;"/><rect fill="#F1F1F1" height="37.6094" rx="12.5" ry="12.5" style="stroke:#181818;stroke-width:1.5;" width="90" x="866.3721" y="1341.4375"/><text fill="#000000" font-family="sans-serif" font-size="14" lengthAdjust="spacing" textLength="70" x="876.3721" y="1365.9707">&#21482;&#31105;&#27490;&#20986;&#21475;</text><rect fill="#F1F1F1" height="37.6094" rx="12.5" ry="12.5" style="stroke:#181818;stroke-width:1.5;" width="90" x="1006.3721" y="1312.6328"/><text fill="#000000" font-family="sans-serif" font-size="14" lengthAdjust="spacing" textLength="70" x="1016.3721" y="1337.166">&#36208;&#31169;&#25991;&#29289;&#32618;</text><path d="M956.3721,1360.2422 L966.3721,1360.2422 C981.3721,1360.2422 981.3721,1331.4375 996.3721,1331.4375 L1006.3721,1331.4375 " fill="none" style="stroke:#181818;stroke-width:1;"/><rect fill="#F1F1F1" height="37.6094" rx="12.5" ry="12.5" style="stroke:#181818;stroke-width:1.5;" width="118" x="1006.3721" y="1370.2422"/><text fill="#000000" font-family="sans-serif" font-size="14" lengthAdjust="spacing" textLength="98" x="1016.3721" y="1394.7754">&#36208;&#31169;&#36149;&#37325;&#37329;&#23646;&#32618;</text><path d="M956.3721,1360.2422 L966.3721,1360.2422 C981.3721,1360.2422 981.3721,1389.0469 996.3721,1389.0469 L1006.3721,1389.0469 " fill="none" style="stroke:#181818;stroke-width:1;"/><path d="M816.3721,1331.4375 L826.3721,1331.4375 C841.3721,1331.4375 841.3721,1360.2422 856.3721,1360.2422 L866.3721,1360.2422 " fill="none" style="stroke:#181818;stroke-width:1;"/><path d="M686.4824,1182.2734 L696.4824,1182.2734 C711.4824,1182.2734 711.4824,1331.4375 726.4824,1331.4375 L736.4824,1331.4375 " fill="none" style="stroke:#181818;stroke-width:1;"/><path d="M524.6963,1211.0781 L534.6963,1211.0781 C549.6963,1211.0781 549.6963,1182.2734 564.6963,1182.2734 L574.6963,1182.2734 " fill="none" style="stroke:#181818;stroke-width:1;"/><rect fill="#F1F1F1" height="37.6094" rx="12.5" ry="12.5" style="stroke:#181818;stroke-width:1.5;" width="111.7861" x="574.6963" y="1427.8516"/><text fill="#000000" font-family="sans-serif" font-size="14" lengthAdjust="spacing" textLength="91.7861" x="584.6963" y="1452.3848">&#20828;&#24213;&#32618;&#21517;&#65288;1&#65289;</text><rect fill="#F1F1F1" height="37.6094" rx="12.5" ry="12.5" style="stroke:#181818;stroke-width:1.5;" width="216" x="736.4824" y="1427.8516"/><text fill="#000000" font-family="sans-serif" font-size="14" lengthAdjust="spacing" textLength="196" x="746.4824" y="1452.3848">&#36208;&#31169;&#22269;&#23478;&#31105;&#27490;&#36827;&#20986;&#21475;&#30340;&#36135;&#29289;&#21697;&#32618;</text><path d="M686.4824,1446.6563 L696.4824,1446.6563 C711.4824,1446.6563 711.4824,1446.6563 726.4824,1446.6563 L736.4824,1446.6563 " fill="none" style="stroke:#181818;stroke-width:1;"/><path d="M524.6963,1211.0781 L534.6963,1211.0781 C549.6963,1211.0781 549.6963,1446.6563 564.6963,1446.6563 L574.6963,1446.6563 " fill="none" style="stroke:#181818;stroke-width:1;"/><path d="M398.6963,1326.2969 L408.6963,1326.2969 C423.6963,1326.2969 423.6963,1211.0781 438.6963,1211.0781 L448.6963,1211.0781 " fill="none" style="stroke:#181818;stroke-width:1;"/><rect fill="#F1F1F1" height="37.6094" rx="12.5" ry="12.5" style="stroke:#181818;stroke-width:1.5;" width="76" x="448.6963" y="1543.0703"/><text fill="#000000" font-family="sans-serif" font-size="14" lengthAdjust="spacing" textLength="56" x="458.6963" y="1567.6035">&#21253;&#23481;&#35780;&#20215;</text><rect fill="#F1F1F1" height="37.6094" rx="12.5" ry="12.5" style="stroke:#181818;stroke-width:1.5;" width="216" x="574.6963" y="1485.4609"/><text fill="#000000" font-family="sans-serif" font-size="14" lengthAdjust="spacing" textLength="196" x="584.6963" y="1509.9941">&#36208;&#31169;&#20855;&#20307;&#30340;&#31105;&#27490;&#36827;&#20986;&#21475;&#30340;&#36135;&#29289;&#32618;</text><path d="M524.6963,1561.875 L534.6963,1561.875 C549.6963,1561.875 549.6963,1504.2656 564.6963,1504.2656 L574.6963,1504.2656 " fill="none" style="stroke:#181818;stroke-width:1;"/><rect fill="#F1F1F1" height="37.6094" rx="12.5" ry="12.5" style="stroke:#181818;stroke-width:1.5;" width="244" x="574.6963" y="1543.0703"/><text fill="#000000" font-family="sans-serif" font-size="14" lengthAdjust="spacing" textLength="224" x="584.6963" y="1567.6035">&#36208;&#31169;&#22269;&#23478;&#31105;&#27490;&#36827;&#20986;&#21475;&#30340;&#36135;&#29289;&#12289;&#29289;&#21697;&#32618;</text><path d="M524.6963,1561.875 L534.6963,1561.875 C549.6963,1561.875 549.6963,1561.875 564.6963,1561.875 L574.6963,1561.875 " fill="none" style="stroke:#181818;stroke-width:1;"/><rect fill="#F1F1F1" height="37.6094" rx="12.5" ry="12.5" style="stroke:#181818;stroke-width:1.5;" width="160" x="574.6963" y="1600.6797"/><text fill="#000000" font-family="sans-serif" font-size="14" lengthAdjust="spacing" textLength="140" x="584.6963" y="1625.2129">&#36208;&#31169;&#26222;&#36890;&#36135;&#29289;&#12289;&#29289;&#21697;&#32618;</text><path d="M524.6963,1561.875 L534.6963,1561.875 C549.6963,1561.875 549.6963,1619.4844 564.6963,1619.4844 L574.6963,1619.4844 " fill="none" style="stroke:#181818;stroke-width:1;"/><path d="M398.6963,1326.2969 L408.6963,1326.2969 C423.6963,1326.2969 423.6963,1561.875 438.6963,1561.875 L448.6963,1561.875 " fill="none" style="stroke:#181818;stroke-width:1;"/><rect fill="#F1F1F1" height="37.6094" rx="12.5" ry="12.5" style="stroke:#181818;stroke-width:1.5;" width="132" x="448.6963" y="1658.2891"/><text fill="#000000" font-family="sans-serif" font-size="14" lengthAdjust="spacing" textLength="112" x="458.6963" y="1682.8223">&#36208;&#31169;&#27494;&#22120;&#12289;&#24377;&#33647;&#24211;</text><path d="M398.6963,1326.2969 L408.6963,1326.2969 C423.6963,1326.2969 423.6963,1677.0938 438.6963,1677.0938 L448.6963,1677.0938 " fill="none" style="stroke:#181818;stroke-width:1;"/><path d="M146.6963,877.2539 L156.6963,877.2539 C171.6963,877.2539 171.6963,1326.2969 186.6963,1326.2969 L196.6963,1326.2969 " fill="none" style="stroke:#181818;stroke-width:1;"/><!--SRC=[xLbjJnD977-_ds8klj6xWA3464A8Wf8x0yOSw5ioRCTsPRlRRBVrUfTBsaW5F4en808LyUa4vImIGMXv-Z2tqzs-yYlSVv_AjjtjbhkNLq98P-Otl__pVwR3jQYC9JdC2O4mZZ3CTvp0yh40GUtj5ytVg9pWoSK8ZmKv5kRRT6GRGDkC-NOEvXX6vcIU8FNTiNAuKlhoJCqzGMs8fl-YwMsQdwRf3HYg1zdIxgpwP4iz-WX3RVUpkfuoXmppVTNus-7KdSkTdTyEfna4F_QYCJ0dw5P1stvTcR0cSqSq_vMcKrf-Npl9qSaYpRvLLoQqdNLr-aCLsDnWgbgtOB6bzih9HpJzHTsOTTaBQjAvZCTUKz_IShwSN36bq_cKRgYRmkhxLEdJc_-ki7AygxjlPQAqj5NQtTCrNvbGSq_L_6iwzPKMtxiGAeLLPVzZZIsWsDocKfXcpkIGUflTpNRiM7zRddItnZBNGUO9Qn3xHjI6Wyfl7jErDN0J60PMwPbv_OS-7r4Eh0_IAGJrCVysN42qMA1pJsi8T3EpRw5MbE8xCofsmNXxKOy7v9SPAeDKsJ_G806NjaowsfWRVWGPveT6OYp4SH9-jPCbzM1PENfLJYRTiwNqObefvY3twDHc9UD14LlWZ59OWs75DCOhoVvEfkhpp2DPOJgxfERsQzg9jVJviNAo2d3BKoysw9j7z76wl92a2tbrUerEkPLaUVMbNfN6ifhBWosevvn40jqXWkE9KJP4sF7HC9R6ktjh4s0_G_ChLj-3R3At_LA3itCkIMSM6R-4R4fodHRQeoEbk4cppoj4O0LzDw4UhPIN3cXcHod-eIvikoW8if_lb6R_T7MeKlZirZTp-WP8F7EFKYoQ7YmjVDLsFbdUC09QItSm2tgu9PuTAUraJZkUXuGmkU23jlE1PXRhI2kdZKVdhUGKuzCfBGNIUyhHlBa4fNBLepwoCs2rATBhoCbibvS_D6fsbGhuz9ukRu2UzB2WPOmZjQTRbZWi16CybaRlypWuAWgZ4J4gDmo_HVTglxGwLrfSzcxMQZQZxUpwCj7K9DttxFbLpZS8wPCDo-6EeTx_6XqSfUIwlqbxc-hwKQKrdCazUYIULOA5Udf8E1B2KIxQs-iLkUp7qsHgUF1ORYgkwGUafuKLFj-3pExbamtud4XmSdaoKvvyIhTVkjn8qYzeyLabbJlTKzcoeU7jfRuZpwHflg1jJIW7Uumhdrb6S0XwKDQhsumYhWV46KyJrwAZnNc6kKRWucnVdgzLtwLxZ2joBsDDtE1mKC9Xz1iGju_nCM9yGgWFi-D1IOm9WNwH5oN4Sy6GhA_3wkywDW0z73gl1znQjS51YH2X4RC1SA0JFk24ZHKbA1ylfSr56ng9IH7U2seksb1lmnn6IMBKY-tSm41VNt-_ZKmGdXSVUc3DHGFAj8Sn9uo4IDWc7X05UPZxbQ3B7Oo-RjUylo-Tw0uFU7GyOOJKYRtKs9TEQ1zCiI78nAQKuOA2A94cuehG82UGslbJYYR5DgJIoGH1P8aWU_b6C89YXi2S6kC1KyCAnMFgnafS9Mgdox8Onh9eAY_888qJ1SptdnLxHo8HB65zvYpRhe-9akoNTirooJB4NVQhj2RP-iKmb9libGxMJYywFNm22K94WTJfp4PToo-I0K8YpeAe5d0JkkWOpqL3tYtFiRzQsiCG9zVwnaFCRL7sbsHOnIQmq8HLB0uGkI8CiomNyCxvgbRintmVIZ7gg6yOisG8Fo0ndoeNUL114WEE3FIfCNk78GUkHvpCnSbrrb4ETUqSywHPGqvDW5XWN-em1oUetlkRoIdh6DJ9ex6n1uJLwRsyW-DmRXEfITuu9q856TIY7xFkzwRTVThfgmktSQrMvRBl6SB0dvwBrbMazLBNUgbhlTIrNkfQBtMjbxhMIrthfQxrKjTwgVi_ljJTqV-TVNTe4CM95DM_W7IsN-gurDL-zVmmbj5jCOuwhw2EpkwkhkwkAwX_U0JfonUOyqC_ZQ2e68FlNoW0tquaRYocNzalCBTm7AEVOt213vDkf8_EZmnTGCCtxKbqKuXpaYY4uTBEtBetP8BGZw8y715b0tobgwsFaz4maK0jT6-8kK7kunWlmrPM3712i1lT7HbekyeCwkM1Wo08laxrmwrVbXAmDlmF]--></g></svg>