<svg xmlns="http://www.w3.org/2000/svg" xmlns:xlink="http://www.w3.org/1999/xlink" contentStyleType="text/css" height="348px" preserveAspectRatio="none" style="width:1244px;height:348px;background:#FFFFFF;" version="1.1" viewBox="0 0 1244 348" width="1244px" zoomAndPan="magnify"><title>&#31038;&#20250;&#27861;&#30410; - &#20844;&#20849;&#23433;&#20840; - &#20132;&#36890;&#22411;&#29359;&#32618; - &#20132;&#36890;&#32903;&#20107;&#32618;</title><defs/><g><text fill="#000000" font-family="sans-serif" font-size="14" font-weight="bold" lengthAdjust="spacing" textLength="297.1992" x="471.9536" y="34.5332">&#31038;&#20250;&#27861;&#30410; - &#20844;&#20849;&#23433;&#20840; - &#20132;&#36890;&#22411;&#29359;&#32618; - &#20132;&#36890;&#32903;&#20107;&#32618;</text><rect fill="#F1F1F1" height="37.6094" rx="12.5" ry="12.5" style="stroke:#181818;stroke-width:1.5;" width="150.6963" x="10" y="173.8281"/><text fill="#000000" font-family="sans-serif" font-size="14" lengthAdjust="spacing" textLength="130.6963" x="20" y="198.3613">&#20132;&#36890;&#32903;&#20107;&#32618;&#65288;P298&#65289;</text><rect fill="#F1F1F1" height="37.6094" rx="12.5" ry="12.5" style="stroke:#181818;stroke-width:1.5;" width="48" x="210.6963" y="173.8281"/><text fill="#000000" font-family="sans-serif" font-size="14" lengthAdjust="spacing" textLength="28" x="220.6963" y="198.3613">&#36867;&#36920;</text><rect fill="#F1F1F1" height="37.6094" rx="12.5" ry="12.5" style="stroke:#181818;stroke-width:1.5;" width="62" x="308.6963" y="58.6094"/><text fill="#000000" font-family="sans-serif" font-size="14" lengthAdjust="spacing" textLength="42" x="318.6963" y="83.1426">&#22522;&#30784;&#21009;</text><rect fill="#F1F1F1" height="37.6094" rx="12.5" ry="12.5" style="stroke:#181818;stroke-width:1.5;" width="76" x="420.6963" y="58.6094"/><text fill="#000000" font-family="sans-serif" font-size="14" lengthAdjust="spacing" textLength="56" x="430.6963" y="83.1426">&#23454;&#23475;&#32467;&#26524;</text><rect fill="#90EE90" height="37.6094" rx="12.5" ry="12.5" style="stroke:#181818;stroke-width:1.5;" width="167.4102" x="546.6963" y="58.6094"/><text fill="#000000" font-family="sans-serif" font-size="14" lengthAdjust="spacing" textLength="143.5205" x="556.6963" y="83.1426">&#37325;&#20260; 1 &#20154; + &#32903;&#20107;&#21518;&#36867;&#36920;</text><rect fill="#F1F1F1" height="37.6094" rx="12.5" ry="12.5" style="stroke:#181818;stroke-width:1.5;" width="468" x="764.1064" y="58.6094"/><text fill="#000000" font-family="sans-serif" font-size="14" lengthAdjust="spacing" textLength="448" x="774.1064" y="83.1426">&#12302;&#32903;&#20107;&#21518;&#36867;&#36920;&#12303;&#20316;&#20026;&#26412;&#32618;&#25104;&#31435;&#26465;&#20214;&#65292;&#20415;&#19981;&#33021;&#20877;&#20316;&#20026;&#26412;&#32618;&#30340;&#27861;&#23450;&#21009;&#21319;&#26684;&#26465;&#20214;</text><path d="M714.1064,77.4141 L724.1064,77.4141 C739.1064,77.4141 739.1064,77.4141 754.1064,77.4141 L764.1064,77.4141 " fill="none" style="stroke:#181818;stroke-width:1;"/><path d="M496.6963,77.4141 L506.6963,77.4141 C521.6963,77.4141 521.6963,77.4141 536.6963,77.4141 L546.6963,77.4141 " fill="none" style="stroke:#181818;stroke-width:1;"/><path d="M370.6963,77.4141 L380.6963,77.4141 C395.6963,77.4141 395.6963,77.4141 410.6963,77.4141 L420.6963,77.4141 " fill="none" style="stroke:#181818;stroke-width:1;"/><path d="M258.6963,192.6328 L268.6963,192.6328 C283.6963,192.6328 283.6963,77.4141 298.6963,77.4141 L308.6963,77.4141 " fill="none" style="stroke:#181818;stroke-width:1;"/><rect fill="#F1F1F1" height="37.6094" rx="12.5" ry="12.5" style="stroke:#181818;stroke-width:1.5;" width="104" x="308.6963" y="116.2188"/><text fill="#000000" font-family="sans-serif" font-size="14" lengthAdjust="spacing" textLength="84" x="318.6963" y="140.752">&#21319;&#26684;&#21009;&#65288;&#19968;&#65289;</text><rect fill="#F1F1F1" height="37.6094" rx="12.5" ry="12.5" style="stroke:#181818;stroke-width:1.5;" width="118" x="462.6963" y="116.2188"/><text fill="#000000" font-family="sans-serif" font-size="14" lengthAdjust="spacing" textLength="98" x="472.6963" y="140.752">&#26159;&#21542;&#26500;&#25104;&#36867;&#36920;&#65311;</text><rect fill="#F1F1F1" height="37.6094" rx="12.5" ry="12.5" style="stroke:#181818;stroke-width:1.5;" width="370" x="630.6963" y="116.2188"/><text fill="#000000" font-family="sans-serif" font-size="14" lengthAdjust="spacing" textLength="350" x="640.6963" y="140.752">&#34892;&#20026;&#20154;&#38656;&#35201;&#26126;&#30693;&#21457;&#29983;&#20102;&#20132;&#36890;&#20107;&#25925;&#65307;&#21542;&#21017;&#65292;&#19981;&#33021;&#35748;&#23450;&#20026;&#36867;&#36920;</text><path d="M580.6963,135.0234 L590.6963,135.0234 C605.6963,135.0234 605.6963,135.0234 620.6963,135.0234 L630.6963,135.0234 " fill="none" style="stroke:#181818;stroke-width:1;"/><path d="M412.6963,135.0234 L422.6963,135.0234 C437.6963,135.0234 437.6963,135.0234 452.6963,135.0234 L462.6963,135.0234 " fill="none" style="stroke:#181818;stroke-width:1;"/><path d="M258.6963,192.6328 L268.6963,192.6328 C283.6963,192.6328 283.6963,135.0234 298.6963,135.0234 L308.6963,135.0234 " fill="none" style="stroke:#181818;stroke-width:1;"/><rect fill="#F1F1F1" height="37.6094" rx="12.5" ry="12.5" style="stroke:#181818;stroke-width:1.5;" width="104" x="308.6963" y="231.4375"/><text fill="#000000" font-family="sans-serif" font-size="14" lengthAdjust="spacing" textLength="84" x="318.6963" y="255.9707">&#21319;&#26684;&#21009;&#65288;&#20108;&#65289;</text><rect fill="#F1F1F1" height="37.6094" rx="12.5" ry="12.5" style="stroke:#181818;stroke-width:1.5;" width="174" x="462.6963" y="231.4375"/><text fill="#000000" font-family="sans-serif" font-size="14" lengthAdjust="spacing" textLength="154" x="472.6963" y="255.9707">&#26159;&#21542;&#26500;&#25104;&#36867;&#36920;&#33268;&#20154;&#27515;&#20129;&#65311;</text><rect fill="#F1F1F1" height="37.6094" rx="12.5" ry="12.5" style="stroke:#181818;stroke-width:1.5;" width="62" x="686.6963" y="231.4375"/><text fill="#000000" font-family="sans-serif" font-size="14" lengthAdjust="spacing" textLength="42" x="696.6963" y="255.9707">&#19981;&#26500;&#25104;</text><rect fill="#F1F1F1" height="37.6094" rx="12.5" ry="12.5" style="stroke:#181818;stroke-width:1.5;" width="146" x="798.6963" y="173.8281"/><text fill="#000000" font-family="sans-serif" font-size="14" lengthAdjust="spacing" textLength="126" x="808.6963" y="198.3613">&#26410;&#27515;&#20129;&#65292;&#20294;&#26377;&#20154;&#38459;&#25318;</text><path d="M748.6963,250.2422 L758.6963,250.2422 C773.6963,250.2422 773.6963,192.6328 788.6963,192.6328 L798.6963,192.6328 " fill="none" style="stroke:#181818;stroke-width:1;"/><rect fill="#F1F1F1" height="37.6094" rx="12.5" ry="12.5" style="stroke:#181818;stroke-width:1.5;" width="76" x="798.6963" y="231.4375"/><text fill="#000000" font-family="sans-serif" font-size="14" lengthAdjust="spacing" textLength="56" x="808.6963" y="255.9707">&#25509;&#36817;&#27515;&#20129;</text><rect fill="#F1F1F1" height="37.6094" rx="12.5" ry="12.5" style="stroke:#181818;stroke-width:1.5;" width="258" x="924.6963" y="231.4375"/><text fill="#000000" font-family="sans-serif" font-size="14" lengthAdjust="spacing" textLength="238" x="934.6963" y="255.9707">&#32467;&#26524;&#36991;&#20813;&#21487;&#33021;&#24615;&#65288;&#20219;&#20309;&#25937;&#21161;&#34892;&#20026;&#26080;&#25928;&#65289;</text><path d="M874.6963,250.2422 L884.6963,250.2422 C899.6963,250.2422 899.6963,250.2422 914.6963,250.2422 L924.6963,250.2422 " fill="none" style="stroke:#181818;stroke-width:1;"/><path d="M748.6963,250.2422 L758.6963,250.2422 C773.6963,250.2422 773.6963,250.2422 788.6963,250.2422 L798.6963,250.2422 " fill="none" style="stroke:#181818;stroke-width:1;"/><rect fill="#F1F1F1" height="37.6094" rx="12.5" ry="12.5" style="stroke:#181818;stroke-width:1.5;" width="76" x="798.6963" y="289.0469"/><text fill="#000000" font-family="sans-serif" font-size="14" lengthAdjust="spacing" textLength="56" x="808.6963" y="313.5801">&#24050;&#32463;&#27515;&#20129;</text><rect fill="#F1F1F1" height="37.6094" rx="12.5" ry="12.5" style="stroke:#181818;stroke-width:1.5;" width="146" x="924.6963" y="289.0469"/><text fill="#000000" font-family="sans-serif" font-size="14" lengthAdjust="spacing" textLength="126" x="934.6963" y="313.5801">&#19981;&#31649;&#20027;&#35266;&#26159;&#21542;&#24819;&#36867;&#36920;</text><path d="M874.6963,307.8516 L884.6963,307.8516 C899.6963,307.8516 899.6963,307.8516 914.6963,307.8516 L924.6963,307.8516 " fill="none" style="stroke:#181818;stroke-width:1;"/><path d="M748.6963,250.2422 L758.6963,250.2422 C773.6963,250.2422 773.6963,307.8516 788.6963,307.8516 L798.6963,307.8516 " fill="none" style="stroke:#181818;stroke-width:1;"/><path d="M636.6963,250.2422 L646.6963,250.2422 C661.6963,250.2422 661.6963,250.2422 676.6963,250.2422 L686.6963,250.2422 " fill="none" style="stroke:#181818;stroke-width:1;"/><path d="M412.6963,250.2422 L422.6963,250.2422 C437.6963,250.2422 437.6963,250.2422 452.6963,250.2422 L462.6963,250.2422 " fill="none" style="stroke:#181818;stroke-width:1;"/><path d="M258.6963,192.6328 L268.6963,192.6328 C283.6963,192.6328 283.6963,250.2422 298.6963,250.2422 L308.6963,250.2422 " fill="none" style="stroke:#181818;stroke-width:1;"/><path d="M160.6963,192.6328 L170.6963,192.6328 C185.6963,192.6328 185.6963,192.6328 200.6963,192.6328 L210.6963,192.6328 " fill="none" style="stroke:#181818;stroke-width:1;"/><!--SRC=[xLTRJnj757xVNp5LNo2LpQK8KOGGmG6r4OvGJV8-Na_i2UiTQtVMaLDLSaAutzMYKk92a0XfqnJKKhN8Dk77P2_cYR_GixjUM1kMTHxwXeKixpdV-SvjpbbcIELOuLagfx8u9mYVKLcKj1H1qMY7-wVoWaGwSXAMkPQL8ZOo0j288uzIa0a2frmYoDhxe5UtpACDwzK2YY1Z-hqn_QTnC6zC_mgFUddlhBXbR2zQ2uVMoRiBIUt5h5vU18aWt6aMdLVdnhk_wZklpWi8FdVGMN7gh7ZiFBW2OwTixHQDkVKBMLr-i6qS75cL7ypjKeEgpZExh5VtK1SuBAClaElGM5jn-T700CdcCbYbwk3W5MkNuMDnfSdgOt5LFodfnsMpz1vYD-VMhDyNpLzszSe_vzKb_SEfVhnScpenPfRzC6lh9LJCEDY278pbMVDrrJNnv-Y8GG_bq8-BNZKk0URceR6sRsw_19zkBEVLdMkohkqkWLz8-QnKhEq_DpTNh9qtnkgwzUEENfvnQmyPcHlJvzLNm6ZC_Mn7xeHTEzY38C7yQWlyuPMNMWclDlitH67-KT7BkzU72avTWu3ocwLtdlcIVZ9ZbkRjj3Ohvk9-aCNAczhfkcjqBSI5kKVcxFcfCRrih1v2vcRnhPrPfQAVR9WRwyR2RsuTpPzUcnjppUdwwlBlNrPbDTGXP6eTxEh7bThR5_LAJHtLYom8GmG6qnlEeSPP7N16S52e2-vHd5Pm5dq7pg99IIFEBuI6iJYPLfWcfs9COWgIQ3h3RJrelxUnAQnCAYGL0AzhFN1Q8KI-YTa1-D254731mp85o-cWe5sb1yrfIauAWhfA3ngSc2yfXQb1R9-FZWuFns8Uia0aYJqDmBfA1of4ivZA4ncIzOX7cSmJz1b1NtOAjjxRCE6rzACx0-3gPC5fgH_RVNCj_T1X48aPE8qj1KFJCbD82tr5Q8pAf5b-IT6YsnkfR39PPYAHUL1jPASfRWjSKL82J1Ch38yRcwZGYwvTgZdBOixSu6KEtYYJiHJxLEouGd9OmRRaKypk9fd2muvTgroSGzzvsAIro1PZMHWt7dGSwfP1T7RxP9A6ZWAflvWtRQsmJgO8oVa7ej7126pHf4JLJF3AyzatUdkQeRovDW5k7Z0Uxid9IYnWkOMiH9mY_C8P5aMQ2Zxp3QiuZFanZABgcszu5aaSFo5Qo9Gp2K9GMCft0aDcpBDm_EIOIZdDaxkYRnokh7CiaLOJkKm1Ue53gRCKtg3sxc_bJDLVWpQvgYMV4D6c3weEpiDxcoWjykOfWmbog5aOirttbijzkUaR1_VcMMquow7l406-1Zhg_uhStWHkRmAtDu7__oOmRb_77yR7K9ueghtWkgBTdTqzqRws1ERe0SkZhbxKsTNVqzFVqujYYGbagzk5jlWt4qXb6kntb8Bjfz2aPg-4Tk4-pcFqhGOB8alwaVtKDX5lHuaHJuX6v3nLc9o5fI3SVnHtGUXhnXCvnXrmRqzac7AK80g4XHx5XNlaCTOa3gOYIr4vtOyUJen6-eGnM1uQJeCZMDSns2fSAO0kyHy0]--></g></svg>