<svg xmlns="http://www.w3.org/2000/svg" xmlns:xlink="http://www.w3.org/1999/xlink" contentStyleType="text/css" height="780px" preserveAspectRatio="none" style="width:815px;height:780px;background:#FFFFFF;" version="1.1" viewBox="0 0 815 780" width="815px" zoomAndPan="magnify"><title>&#32618;&#25968;-&#27861;&#26465;&#20851;&#31995;</title><defs/><g><text fill="#000000" font-family="sans-serif" font-size="14" font-weight="bold" lengthAdjust="spacing" textLength="91.2871" x="360.4082" y="34.5332">&#32618;&#25968;-&#27861;&#26465;&#20851;&#31995;</text><rect fill="#F1F1F1" height="37.6094" rx="12.5" ry="12.5" style="stroke:#181818;stroke-width:1.5;" width="108.6621" x="10" y="389.8633"/><text fill="#000000" font-family="sans-serif" font-size="14" lengthAdjust="spacing" textLength="88.6621" x="20" y="414.3965">&#32618;&#25968;-&#27861;&#26465;&#20851;&#31995;</text><rect fill="#F1F1F1" height="37.6094" rx="12.5" ry="12.5" style="stroke:#181818;stroke-width:1.5;" width="76" x="168.6621" y="58.6094"/><text fill="#000000" font-family="sans-serif" font-size="14" lengthAdjust="spacing" textLength="56" x="178.6621" y="83.1426">&#26680;&#24515;&#27010;&#24565;</text><rect fill="#90EE90" height="37.6094" rx="12.5" ry="12.5" style="stroke:#181818;stroke-width:1.5;" width="51.8896" x="294.6621" y="58.6094"/><text fill="#000000" font-family="sans-serif" font-size="14" lengthAdjust="spacing" textLength="28" x="304.6621" y="83.1426">&#34892;&#20026;</text><rect fill="#90EE90" height="37.6094" rx="12.5" ry="12.5" style="stroke:#181818;stroke-width:1.5;" width="104" x="396.5518" y="58.6094"/><text fill="#000000" font-family="sans-serif" font-size="14" lengthAdjust="spacing" textLength="84" x="406.5518" y="83.1426">&#32618;&#21517;&#65288;&#27861;&#26465;&#65289;</text><rect fill="#90EE90" height="37.6094" rx="12.5" ry="12.5" style="stroke:#181818;stroke-width:1.5;" width="48" x="550.5518" y="58.6094"/><text fill="#000000" font-family="sans-serif" font-size="14" lengthAdjust="spacing" textLength="28" x="560.5518" y="83.1426">&#22788;&#32602;</text><path d="M500.5518,77.4141 L510.5518,77.4141 C525.5518,77.4141 525.5518,77.4141 540.5518,77.4141 L550.5518,77.4141 " fill="none" style="stroke:#181818;stroke-width:1;"/><path d="M346.5518,77.4141 L356.5518,77.4141 C371.5518,77.4141 371.5518,77.4141 386.5518,77.4141 L396.5518,77.4141 " fill="none" style="stroke:#181818;stroke-width:1;"/><path d="M244.6621,77.4141 L254.6621,77.4141 C269.6621,77.4141 269.6621,77.4141 284.6621,77.4141 L294.6621,77.4141 " fill="none" style="stroke:#181818;stroke-width:1;"/><path d="M118.6621,408.668 L128.6621,408.668 C143.6621,408.668 143.6621,77.4141 158.6621,77.4141 L168.6621,77.4141 " fill="none" style="stroke:#181818;stroke-width:1;"/><rect fill="#F1F1F1" height="37.6094" rx="12.5" ry="12.5" style="stroke:#181818;stroke-width:1.5;" width="80.6621" x="168.6621" y="173.8281"/><text fill="#000000" font-family="sans-serif" font-size="14" lengthAdjust="spacing" textLength="60.6621" x="178.6621" y="198.3613">&#32618;&#21517;-&#32618;&#21517;</text><rect fill="#90EE90" height="37.6094" rx="12.5" ry="12.5" style="stroke:#181818;stroke-width:1.5;" width="79.8896" x="299.3242" y="116.2188"/><text fill="#000000" font-family="sans-serif" font-size="14" lengthAdjust="spacing" textLength="56" x="309.3242" y="140.752">&#20013;&#31435;&#20851;&#31995;</text><rect fill="#F1F1F1" height="37.6094" rx="12.5" ry="12.5" style="stroke:#181818;stroke-width:1.5;" width="50.3447" x="429.2139" y="116.2188"/><text fill="#000000" font-family="sans-serif" font-size="14" lengthAdjust="spacing" textLength="30.3447" x="439.2139" y="140.752">A : B</text><path d="M379.2139,135.0234 L389.2139,135.0234 C404.2139,135.0234 404.2139,135.0234 419.2139,135.0234 L429.2139,135.0234 " fill="none" style="stroke:#181818;stroke-width:1;"/><path d="M249.3242,192.6328 L259.3242,192.6328 C274.3242,192.6328 274.3242,135.0234 289.3242,135.0234 L299.3242,135.0234 " fill="none" style="stroke:#181818;stroke-width:1;"/><rect fill="#90EE90" height="37.6094" rx="12.5" ry="12.5" style="stroke:#181818;stroke-width:1.5;" width="107.8896" x="299.3242" y="173.8281"/><text fill="#000000" font-family="sans-serif" font-size="14" lengthAdjust="spacing" textLength="84" x="309.3242" y="198.3613">&#23545;&#31435;&#25490;&#26021;&#20851;&#31995;</text><rect fill="#F1F1F1" height="37.6094" rx="12.5" ry="12.5" style="stroke:#181818;stroke-width:1.5;" width="55.0068" x="457.2139" y="173.8281"/><text fill="#000000" font-family="sans-serif" font-size="14" lengthAdjust="spacing" textLength="35.0068" x="467.2139" y="198.3613">A : -A</text><path d="M407.2139,192.6328 L417.2139,192.6328 C432.2139,192.6328 432.2139,192.6328 447.2139,192.6328 L457.2139,192.6328 " fill="none" style="stroke:#181818;stroke-width:1;"/><path d="M249.3242,192.6328 L259.3242,192.6328 C274.3242,192.6328 274.3242,192.6328 289.3242,192.6328 L299.3242,192.6328 " fill="none" style="stroke:#181818;stroke-width:1;"/><rect fill="#90EE90" height="37.6094" rx="12.5" ry="12.5" style="stroke:#181818;stroke-width:1.5;" width="191.8896" x="299.3242" y="231.4375"/><text fill="#000000" font-family="sans-serif" font-size="14" lengthAdjust="spacing" textLength="168" x="309.3242" y="255.9707">&#21253;&#23481;&#35780;&#20215;&#20851;&#31995;&#65288;&#20301;&#38454;&#20851;&#31995;&#65289;</text><rect fill="#F1F1F1" height="37.6094" rx="12.5" ry="12.5" style="stroke:#181818;stroke-width:1.5;" width="75.6377" x="541.2139" y="231.4375"/><text fill="#000000" font-family="sans-serif" font-size="14" lengthAdjust="spacing" textLength="55.6377" x="551.2139" y="255.9707">A : A + B</text><path d="M491.2139,250.2422 L501.2139,250.2422 C516.2139,250.2422 516.2139,250.2422 531.2139,250.2422 L541.2139,250.2422 " fill="none" style="stroke:#181818;stroke-width:1;"/><path d="M249.3242,192.6328 L259.3242,192.6328 C274.3242,192.6328 274.3242,250.2422 289.3242,250.2422 L299.3242,250.2422 " fill="none" style="stroke:#181818;stroke-width:1;"/><path d="M118.6621,408.668 L128.6621,408.668 C143.6621,408.668 143.6621,192.6328 158.6621,192.6328 L168.6621,192.6328 " fill="none" style="stroke:#181818;stroke-width:1;"/><rect fill="#F1F1F1" height="37.6094" rx="12.5" ry="12.5" style="stroke:#181818;stroke-width:1.5;" width="80.6621" x="168.6621" y="389.8633"/><text fill="#000000" font-family="sans-serif" font-size="14" lengthAdjust="spacing" textLength="60.6621" x="178.6621" y="414.3965">&#34892;&#20026;-&#32618;&#21517;</text><rect fill="#90EE90" height="37.6094" rx="12.5" ry="12.5" style="stroke:#181818;stroke-width:1.5;" width="79.8896" x="299.3242" y="332.2539"/><text fill="#000000" font-family="sans-serif" font-size="14" lengthAdjust="spacing" textLength="56" x="309.3242" y="356.7871">&#19968;&#20010;&#34892;&#20026;</text><rect fill="#F1F1F1" height="37.6094" rx="12.5" ry="12.5" style="stroke:#181818;stroke-width:1.5;" width="76" x="429.2139" y="289.0469"/><text fill="#000000" font-family="sans-serif" font-size="14" lengthAdjust="spacing" textLength="56" x="439.2139" y="313.5801">&#19968;&#20010;&#32618;&#21517;</text><path d="M379.2139,351.0586 L389.2139,351.0586 C404.2139,351.0586 404.2139,307.8516 419.2139,307.8516 L429.2139,307.8516 " fill="none" style="stroke:#181818;stroke-width:1;"/><rect fill="#F1F1F1" height="37.6094" rx="12.5" ry="12.5" style="stroke:#181818;stroke-width:1.5;" width="76" x="429.2139" y="346.6563"/><text fill="#000000" font-family="sans-serif" font-size="14" lengthAdjust="spacing" textLength="56" x="439.2139" y="371.1895">&#22810;&#20010;&#32618;&#21517;</text><rect fill="#F1F1F1" height="37.6094" rx="12.5" ry="12.5" style="stroke:#181818;stroke-width:1.5;" width="76" x="555.2139" y="317.8516"/><text fill="#000000" font-family="sans-serif" font-size="14" lengthAdjust="spacing" textLength="56" x="565.2139" y="342.3848">&#24819;&#35937;&#31454;&#21512;</text><path d="M505.2139,365.4609 L515.2139,365.4609 C530.2139,365.4609 530.2139,336.6563 545.2139,336.6563 L555.2139,336.6563 " fill="none" style="stroke:#181818;stroke-width:1;"/><rect fill="#F1F1F1" height="37.6094" rx="12.5" ry="12.5" style="stroke:#181818;stroke-width:1.5;" width="62" x="555.2139" y="375.4609"/><text fill="#000000" font-family="sans-serif" font-size="14" lengthAdjust="spacing" textLength="42" x="565.2139" y="399.9941">&#21152;&#37325;&#29359;</text><path d="M505.2139,365.4609 L515.2139,365.4609 C530.2139,365.4609 530.2139,394.2656 545.2139,394.2656 L555.2139,394.2656 " fill="none" style="stroke:#181818;stroke-width:1;"/><path d="M379.2139,351.0586 L389.2139,351.0586 C404.2139,351.0586 404.2139,365.4609 419.2139,365.4609 L429.2139,365.4609 " fill="none" style="stroke:#181818;stroke-width:1;"/><path d="M249.3242,408.668 L259.3242,408.668 C274.3242,408.668 274.3242,351.0586 289.3242,351.0586 L299.3242,351.0586 " fill="none" style="stroke:#181818;stroke-width:1;"/><rect fill="#90EE90" height="37.6094" rx="12.5" ry="12.5" style="stroke:#181818;stroke-width:1.5;" width="79.8896" x="299.3242" y="461.875"/><text fill="#000000" font-family="sans-serif" font-size="14" lengthAdjust="spacing" textLength="56" x="309.3242" y="486.4082">&#22810;&#20010;&#34892;&#20026;</text><rect fill="#F1F1F1" height="37.6094" rx="12.5" ry="12.5" style="stroke:#181818;stroke-width:1.5;" width="76" x="429.2139" y="433.0703"/><text fill="#000000" font-family="sans-serif" font-size="14" lengthAdjust="spacing" textLength="56" x="439.2139" y="457.6035">&#19968;&#20010;&#32618;&#21517;</text><rect fill="#F1F1F1" height="37.6094" rx="12.5" ry="12.5" style="stroke:#181818;stroke-width:1.5;" width="62" x="555.2139" y="433.0703"/><text fill="#000000" font-family="sans-serif" font-size="14" lengthAdjust="spacing" textLength="42" x="565.2139" y="457.6035">&#32467;&#21512;&#29359;</text><path d="M505.2139,451.875 L515.2139,451.875 C530.2139,451.875 530.2139,451.875 545.2139,451.875 L555.2139,451.875 " fill="none" style="stroke:#181818;stroke-width:1;"/><path d="M379.2139,480.6797 L389.2139,480.6797 C404.2139,480.6797 404.2139,451.875 419.2139,451.875 L429.2139,451.875 " fill="none" style="stroke:#181818;stroke-width:1;"/><rect fill="#F1F1F1" height="37.6094" rx="12.5" ry="12.5" style="stroke:#181818;stroke-width:1.5;" width="76" x="429.2139" y="490.6797"/><text fill="#000000" font-family="sans-serif" font-size="14" lengthAdjust="spacing" textLength="56" x="439.2139" y="515.2129">&#22810;&#20010;&#32618;&#21517;</text><rect fill="#F1F1F1" height="37.6094" rx="12.5" ry="12.5" style="stroke:#181818;stroke-width:1.5;" width="76" x="555.2139" y="490.6797"/><text fill="#000000" font-family="sans-serif" font-size="14" lengthAdjust="spacing" textLength="56" x="565.2139" y="515.2129">&#25968;&#32618;&#24182;&#32602;</text><path d="M505.2139,509.4844 L515.2139,509.4844 C530.2139,509.4844 530.2139,509.4844 545.2139,509.4844 L555.2139,509.4844 " fill="none" style="stroke:#181818;stroke-width:1;"/><path d="M379.2139,480.6797 L389.2139,480.6797 C404.2139,480.6797 404.2139,509.4844 419.2139,509.4844 L429.2139,509.4844 " fill="none" style="stroke:#181818;stroke-width:1;"/><path d="M249.3242,408.668 L259.3242,408.668 C274.3242,408.668 274.3242,480.6797 289.3242,480.6797 L299.3242,480.6797 " fill="none" style="stroke:#181818;stroke-width:1;"/><path d="M118.6621,408.668 L128.6621,408.668 C143.6621,408.668 143.6621,408.668 158.6621,408.668 L168.6621,408.668 " fill="none" style="stroke:#181818;stroke-width:1;"/><rect fill="#F1F1F1" height="37.6094" rx="12.5" ry="12.5" style="stroke:#181818;stroke-width:1.5;" width="80.6621" x="168.6621" y="634.7031"/><text fill="#000000" font-family="sans-serif" font-size="14" lengthAdjust="spacing" textLength="60.6621" x="178.6621" y="659.2363">&#32618;&#21517;-&#22788;&#32602;</text><rect fill="#F1F1F1" height="37.6094" rx="12.5" ry="12.5" style="stroke:#181818;stroke-width:1.5;" width="48" x="299.3242" y="548.2891"/><text fill="#000000" font-family="sans-serif" font-size="14" lengthAdjust="spacing" textLength="28" x="309.3242" y="572.8223">&#19968;&#32618;</text><rect fill="#F1F1F1" height="37.6094" rx="12.5" ry="12.5" style="stroke:#181818;stroke-width:1.5;" width="76" x="397.3242" y="548.2891"/><text fill="#000000" font-family="sans-serif" font-size="14" lengthAdjust="spacing" textLength="56" x="407.3242" y="572.8223">&#19968;&#32618;&#19968;&#32602;</text><path d="M347.3242,567.0938 L357.3242,567.0938 C372.3242,567.0938 372.3242,567.0938 387.3242,567.0938 L397.3242,567.0938 " fill="none" style="stroke:#181818;stroke-width:1;"/><path d="M249.3242,653.5078 L259.3242,653.5078 C274.3242,653.5078 274.3242,567.0938 289.3242,567.0938 L299.3242,567.0938 " fill="none" style="stroke:#181818;stroke-width:1;"/><rect fill="#F1F1F1" height="37.6094" rx="12.5" ry="12.5" style="stroke:#181818;stroke-width:1.5;" width="48" x="299.3242" y="663.5078"/><text fill="#000000" font-family="sans-serif" font-size="14" lengthAdjust="spacing" textLength="28" x="309.3242" y="688.041">&#25968;&#32618;</text><rect fill="#90EE90" height="37.6094" rx="12.5" ry="12.5" style="stroke:#181818;stroke-width:1.5;" width="79.8896" x="397.3242" y="605.8984"/><text fill="#000000" font-family="sans-serif" font-size="14" lengthAdjust="spacing" textLength="56" x="407.3242" y="630.4316">&#25968;&#32618;&#24182;&#32602;</text><path d="M347.3242,682.3125 L357.3242,682.3125 C372.3242,682.3125 372.3242,624.7031 387.3242,624.7031 L397.3242,624.7031 " fill="none" style="stroke:#181818;stroke-width:1;"/><rect fill="#90EE90" height="37.6094" rx="12.5" ry="12.5" style="stroke:#181818;stroke-width:1.5;" width="93.8896" x="397.3242" y="663.5078"/><text fill="#000000" font-family="sans-serif" font-size="14" lengthAdjust="spacing" textLength="70" x="407.3242" y="688.041">&#20316;&#19968;&#32618;&#22788;&#32602;</text><rect fill="#90EE90" height="37.6094" rx="12.5" ry="12.5" style="stroke:#181818;stroke-width:1.5;" width="79.8896" x="541.2139" y="605.8984"/><text fill="#000000" font-family="sans-serif" font-size="14" lengthAdjust="spacing" textLength="56" x="551.2139" y="630.4316">&#24819;&#35937;&#31454;&#21512;</text><rect fill="#F1F1F1" height="37.6094" rx="12.5" ry="12.5" style="stroke:#181818;stroke-width:1.5;" width="104" x="671.1035" y="605.8984"/><text fill="#000000" font-family="sans-serif" font-size="14" lengthAdjust="spacing" textLength="84" x="681.1035" y="630.4316">&#25321;&#19968;&#37325;&#32618;&#35770;&#22788;</text><path d="M621.1035,624.7031 L631.1035,624.7031 C646.1035,624.7031 646.1035,624.7031 661.1035,624.7031 L671.1035,624.7031 " fill="none" style="stroke:#181818;stroke-width:1;"/><path d="M491.2139,682.3125 L501.2139,682.3125 C516.2139,682.3125 516.2139,624.7031 531.2139,624.7031 L541.2139,624.7031 " fill="none" style="stroke:#181818;stroke-width:1;"/><rect fill="#90EE90" height="37.6094" rx="12.5" ry="12.5" style="stroke:#181818;stroke-width:1.5;" width="79.8896" x="541.2139" y="663.5078"/><text fill="#000000" font-family="sans-serif" font-size="14" lengthAdjust="spacing" textLength="56" x="551.2139" y="688.041">&#27861;&#26465;&#31454;&#21512;</text><rect fill="#F1F1F1" height="37.6094" rx="12.5" ry="12.5" style="stroke:#181818;stroke-width:1.5;" width="132" x="671.1035" y="663.5078"/><text fill="#000000" font-family="sans-serif" font-size="14" lengthAdjust="spacing" textLength="112" x="681.1035" y="688.041">&#29305;&#27530;&#27861;&#20248;&#20110;&#19968;&#33324;&#27861;</text><path d="M621.1035,682.3125 L631.1035,682.3125 C646.1035,682.3125 646.1035,682.3125 661.1035,682.3125 L671.1035,682.3125 " fill="none" style="stroke:#181818;stroke-width:1;"/><path d="M491.2139,682.3125 L501.2139,682.3125 C516.2139,682.3125 516.2139,682.3125 531.2139,682.3125 L541.2139,682.3125 " fill="none" style="stroke:#181818;stroke-width:1;"/><rect fill="#90EE90" height="37.6094" rx="12.5" ry="12.5" style="stroke:#181818;stroke-width:1.5;" width="65.8896" x="541.2139" y="721.1172"/><text fill="#000000" font-family="sans-serif" font-size="14" lengthAdjust="spacing" textLength="42" x="551.2139" y="745.6504">&#21152;&#37325;&#29359;</text><path d="M491.2139,682.3125 L501.2139,682.3125 C516.2139,682.3125 516.2139,739.9219 531.2139,739.9219 L541.2139,739.9219 " fill="none" style="stroke:#181818;stroke-width:1;"/><path d="M347.3242,682.3125 L357.3242,682.3125 C372.3242,682.3125 372.3242,682.3125 387.3242,682.3125 L397.3242,682.3125 " fill="none" style="stroke:#181818;stroke-width:1;"/><path d="M249.3242,653.5078 L259.3242,653.5078 C274.3242,653.5078 274.3242,682.3125 289.3242,682.3125 L299.3242,682.3125 " fill="none" style="stroke:#181818;stroke-width:1;"/><path d="M118.6621,408.668 L128.6621,408.668 C143.6621,408.668 143.6621,653.5078 158.6621,653.5078 L168.6621,653.5078 " fill="none" style="stroke:#181818;stroke-width:1;"/><!--SRC=[xLXRQnj757xVNp6bBtQAv0l2166C9SMc3LO8bPFtqUv4cdXtPfcTLH2bK9g4sauSGejB26s9eItKQUqKqzGtaJ-ZMvxo5thsPeykgztIFbe8INlETxvpvfmvPpnUTYGMqgBCiB2jQHzHffkkGL0sEwE-7TaqoOnjOYPToynu-0mOP7nvbe9CqoIL9a6zrdvtzqscUxJR_N6ly_YeTtIcQTV6YX6yhg7kg-FEkuVTNx_klFlB5mNY_jxJzl4fMbmabbt73dMA0ZEzlhHqWGbmGDnvllFXV3EW_d2-DG08G9sV7_LQBpNL8XDyAHxRnt_qNZy9ObFyZdWie3mgAdQTmnEmwpxxjllzB-ciCmNL_EdZpi59__1H- -plm1mMqsxjl7_nDdhSIY8ie4_2aAB4ZLlUL-tZ_P6qZl05k27pA8qlnwl2IZuywl-vrtlzK-VvvhWYRBzw_yrER_jG6sRy3q659Jtx3dogrEa2tdtZwKxUZcmEPSDS102gqQX0w7-gs81MY_SrSQMj7mBQ88Huw6ZE9sD3_9FVWDwhGsk_Vt0AJiQH-gsKdhItTT8zs0QhzlcBzkapSD3V_1qU9ss2GLvuBHEOGT4SMXuSIul-d5dIGi4DYci2M-WBS92jcYxnVo5KnFf6JN2N6ILkSe5CMgjBJm_QBpsiWSM684OCFDH6u9eWX4rYzW4Akfa0RaPO3gEi5XTqe8oWjYjiCmuQA2De_CAKHGdknB5zlBfQB9PA4R99J9C_YC46IX-gPQCw9kTAHS_6m9sDfbyo5Ji_ELSgD3WcOAUb2eRM61SaHTqGMgEC3CilALAwdKZbaJ76TS9aN6wOdtI4LZcJWQXg0cQ85PeZZ8r98AESORCag1Kjz18fkOKb7ukzBOYD1VOa_yQiKEL29ksQj5nIGbbbKgEaP2jn2xf5nbKxj8oZywh3I0qA1gHgCYSDdQH26OJOwduVTB02Gx1gKgSUFx4K-q5l3-fK3kScniqjBfCz-QlIcvYbM9ME3I8ld65TfqRybXwOf4dCzw3J7ALzuLadPNoVk0bDp4q8GN13sO49BHHP-7vixb196wIWA-qmCesnIT8kv789K0kSI6rHE02zqPrcJuMdc4VkkDNxHFVeuxA36t3i4f6Ijq4vT91FpPEOlRodJlVb81zitCczEh2N4uy83JuMPyA_9AvkArUtbQlRojLjvN-vhTps_Yzofxo66aGutXIVoyxFpkUorwSgMA9Rl87c5j3iN3wNo-SMKAcoZZprj3PL_cmTETo5GmmPCE85hRhUt9lMRk86Hf-xC0KjaaVUqzHwUHfLLY8XMc4DAZYpOF9fD- -M0n3wbCkApQKFNiXbYbIY2X4G5hfRrcwGUzWr9PZgtA2ibaTtrbSprxKrc90khe4ZE9DAC3gbQ8AkyWy0]--></g></svg>