<svg xmlns="http://www.w3.org/2000/svg" xmlns:xlink="http://www.w3.org/1999/xlink" contentStyleType="text/css" height="770px" preserveAspectRatio="none" style="width:1287px;height:770px;background:#FFFFFF;" version="1.1" viewBox="0 0 1287 770" width="1287px" zoomAndPan="magnify"><defs/><g><rect fill="#F1F1F1" height="37.6094" rx="12.5" ry="12.5" style="stroke:#181818;stroke-width:1.5;" width="48" x="10" y="365.6563"/><text fill="#000000" font-family="sans-serif" font-size="14" lengthAdjust="spacing" textLength="28" x="20" y="390.1895">&#32618;&#25968;</text><rect fill="#F1F1F1" height="37.6094" rx="12.5" ry="12.5" style="stroke:#181818;stroke-width:1.5;" width="76" x="108" y="365.6563"/><text fill="#000000" font-family="sans-serif" font-size="14" lengthAdjust="spacing" textLength="56" x="118" y="390.1895">&#20004;&#20010;&#34892;&#20026;</text><rect fill="#F1F1F1" height="37.6094" rx="12.5" ry="12.5" style="stroke:#181818;stroke-width:1.5;" width="76" x="234" y="308.0469"/><text fill="#000000" font-family="sans-serif" font-size="14" lengthAdjust="spacing" textLength="56" x="244" y="332.5801">&#25968;&#32618;&#24182;&#32602;</text><path d="M184,384.4609 L194,384.4609 C209,384.4609 209,326.8516 224,326.8516 L234,326.8516 " fill="none" style="stroke:#181818;stroke-width:1;"/><rect fill="#F1F1F1" height="37.6094" rx="12.5" ry="12.5" style="stroke:#181818;stroke-width:1.5;" width="90" x="234" y="365.6563"/><text fill="#000000" font-family="sans-serif" font-size="14" lengthAdjust="spacing" textLength="70" x="244" y="390.1895">&#20316;&#19968;&#32618;&#22788;&#29702;</text><rect fill="#F1F1F1" height="37.6094" rx="12.5" ry="12.5" style="stroke:#181818;stroke-width:1.5;" width="104" x="374" y="20"/><text fill="#000000" font-family="sans-serif" font-size="14" lengthAdjust="spacing" textLength="84" x="384" y="44.5332">&#27861;&#30410;&#24615;&#36136;&#19981;&#21516;</text><rect fill="#F1F1F1" height="37.6094" rx="12.5" ry="12.5" style="stroke:#181818;stroke-width:1.5;" width="76" x="528" y="20"/><text fill="#000000" font-family="sans-serif" font-size="14" lengthAdjust="spacing" textLength="56" x="538" y="44.5332">&#27861;&#24459;&#35268;&#23450;</text><rect fill="#90EE90" height="37.6094" rx="12.5" ry="12.5" style="stroke:#181818;stroke-width:1.5;" width="65.8896" x="654" y="20"/><text fill="#000000" font-family="sans-serif" font-size="14" lengthAdjust="spacing" textLength="42" x="664" y="44.5332">&#32467;&#21512;&#29359;</text><path d="M604,38.8047 L614,38.8047 C629,38.8047 629,38.8047 644,38.8047 L654,38.8047 " fill="none" style="stroke:#181818;stroke-width:1;"/><path d="M478,38.8047 L488,38.8047 C503,38.8047 503,38.8047 518,38.8047 L528,38.8047 " fill="none" style="stroke:#181818;stroke-width:1;"/><path d="M324,384.4609 L334,384.4609 C349,384.4609 349,38.8047 364,38.8047 L374,38.8047 " fill="none" style="stroke:#181818;stroke-width:1;"/><rect fill="#F1F1F1" height="37.6094" rx="12.5" ry="12.5" style="stroke:#181818;stroke-width:1.5;" width="104" x="374" y="250.4375"/><text fill="#000000" font-family="sans-serif" font-size="14" lengthAdjust="spacing" textLength="84" x="384" y="274.9707">&#27861;&#30410;&#24615;&#36136;&#30456;&#21516;</text><rect fill="#F1F1F1" height="37.6094" rx="12.5" ry="12.5" style="stroke:#181818;stroke-width:1.5;" width="48" x="528" y="250.4375"/><text fill="#000000" font-family="sans-serif" font-size="14" lengthAdjust="spacing" textLength="28" x="538" y="274.9707">&#22810;&#27425;</text><rect fill="#90EE90" height="37.6094" rx="12.5" ry="12.5" style="stroke:#181818;stroke-width:1.5;" width="65.8896" x="626" y="250.4375"/><text fill="#000000" font-family="sans-serif" font-size="14" lengthAdjust="spacing" textLength="42" x="636" y="274.9707">&#36830;&#32493;&#29359;</text><rect fill="#F1F1F1" height="37.6094" rx="12.5" ry="12.5" style="stroke:#181818;stroke-width:1.5;" width="62" x="741.8896" y="77.6094"/><text fill="#000000" font-family="sans-serif" font-size="14" lengthAdjust="spacing" textLength="42" x="751.8896" y="102.1426">&#23450;&#19968;&#32618;</text><rect fill="#F1F1F1" height="37.6094" rx="12.5" ry="12.5" style="stroke:#181818;stroke-width:1.5;" width="132" x="853.8896" y="77.6094"/><text fill="#000000" font-family="sans-serif" font-size="14" lengthAdjust="spacing" textLength="112" x="863.8896" y="102.1426">&#19981;&#20855;&#26377;&#20154;&#36523;&#19987;&#23646;&#24615;</text><path d="M803.8896,96.4141 L813.8896,96.4141 C828.8896,96.4141 828.8896,96.4141 843.8896,96.4141 L853.8896,96.4141 " fill="none" style="stroke:#181818;stroke-width:1;"/><path d="M691.8896,269.2422 L701.8896,269.2422 C716.8896,269.2422 716.8896,96.4141 731.8896,96.4141 L741.8896,96.4141 " fill="none" style="stroke:#181818;stroke-width:1;"/><rect fill="#F1F1F1" height="37.6094" rx="12.5" ry="12.5" style="stroke:#181818;stroke-width:1.5;" width="76" x="741.8896" y="135.2188"/><text fill="#000000" font-family="sans-serif" font-size="14" lengthAdjust="spacing" textLength="56" x="751.8896" y="159.752">&#25968;&#32618;&#24182;&#32602;</text><rect fill="#F1F1F1" height="37.6094" rx="12.5" ry="12.5" style="stroke:#181818;stroke-width:1.5;" width="118" x="867.8896" y="135.2188"/><text fill="#000000" font-family="sans-serif" font-size="14" lengthAdjust="spacing" textLength="98" x="877.8896" y="159.752">&#20855;&#26377;&#20154;&#36523;&#19987;&#23646;&#24615;</text><path d="M817.8896,154.0234 L827.8896,154.0234 C842.8896,154.0234 842.8896,154.0234 857.8896,154.0234 L867.8896,154.0234 " fill="none" style="stroke:#181818;stroke-width:1;"/><path d="M691.8896,269.2422 L701.8896,269.2422 C716.8896,269.2422 716.8896,154.0234 731.8896,154.0234 L741.8896,154.0234 " fill="none" style="stroke:#181818;stroke-width:1;"/><rect fill="#F1F1F1" height="37.6094" rx="12.5" ry="12.5" style="stroke:#181818;stroke-width:1.5;" width="76" x="741.8896" y="308.0469"/><text fill="#000000" font-family="sans-serif" font-size="14" lengthAdjust="spacing" textLength="56" x="751.8896" y="332.5801">&#27861;&#26465;&#35268;&#23450;</text><rect fill="#F1F1F1" height="37.6094" rx="12.5" ry="12.5" style="stroke:#181818;stroke-width:1.5;" width="62" x="867.8896" y="308.0469"/><text fill="#000000" font-family="sans-serif" font-size="14" lengthAdjust="spacing" textLength="42" x="877.8896" y="332.5801">&#23450;&#19968;&#32618;</text><rect fill="#F1F1F1" height="37.6094" rx="12.5" ry="12.5" style="stroke:#181818;stroke-width:1.5;" width="127.3242" x="979.8896" y="250.4375"/><text fill="#000000" font-family="sans-serif" font-size="14" lengthAdjust="spacing" textLength="107.3242" x="989.8896" y="274.9707">&#8220;&#22810;&#27425;&#8221;&#26159;&#25104;&#31435;&#26465;&#20214;</text><rect fill="#F1F1F1" height="37.6094" rx="12.5" ry="12.5" style="stroke:#181818;stroke-width:1.5;" width="76" x="1157.2139" y="192.8281"/><text fill="#000000" font-family="sans-serif" font-size="14" lengthAdjust="spacing" textLength="56" x="1167.2139" y="217.3613">&#22810;&#27425;&#30423;&#31363;</text><path d="M1107.2139,269.2422 L1117.2139,269.2422 C1132.2139,269.2422 1132.2139,211.6328 1147.2139,211.6328 L1157.2139,211.6328 " fill="none" style="stroke:#181818;stroke-width:1;"/><rect fill="#F1F1F1" height="37.6094" rx="12.5" ry="12.5" style="stroke:#181818;stroke-width:1.5;" width="76" x="1157.2139" y="250.4375"/><text fill="#000000" font-family="sans-serif" font-size="14" lengthAdjust="spacing" textLength="56" x="1167.2139" y="274.9707">&#22810;&#27425;&#25250;&#22842;</text><path d="M1107.2139,269.2422 L1117.2139,269.2422 C1132.2139,269.2422 1132.2139,269.2422 1147.2139,269.2422 L1157.2139,269.2422 " fill="none" style="stroke:#181818;stroke-width:1;"/><rect fill="#F1F1F1" height="37.6094" rx="12.5" ry="12.5" style="stroke:#181818;stroke-width:1.5;" width="104" x="1157.2139" y="308.0469"/><text fill="#000000" font-family="sans-serif" font-size="14" lengthAdjust="spacing" textLength="84" x="1167.2139" y="332.5801">&#22810;&#27425;&#25970;&#35784;&#21202;&#32034;</text><path d="M1107.2139,269.2422 L1117.2139,269.2422 C1132.2139,269.2422 1132.2139,326.8516 1147.2139,326.8516 L1157.2139,326.8516 " fill="none" style="stroke:#181818;stroke-width:1;"/><path d="M929.8896,326.8516 L939.8896,326.8516 C954.8896,326.8516 954.8896,269.2422 969.8896,269.2422 L979.8896,269.2422 " fill="none" style="stroke:#181818;stroke-width:1;"/><rect fill="#F1F1F1" height="37.6094" rx="12.5" ry="12.5" style="stroke:#181818;stroke-width:1.5;" width="169.3242" x="979.8896" y="394.4609"/><text fill="#000000" font-family="sans-serif" font-size="14" lengthAdjust="spacing" textLength="149.3242" x="989.8896" y="418.9941">&#8220;&#22810;&#27425;&#8221;&#26159;&#27861;&#23450;&#21009;&#21319;&#26684;&#26465;&#20214;</text><rect fill="#F1F1F1" height="37.6094" rx="12.5" ry="12.5" style="stroke:#181818;stroke-width:1.5;" width="76" x="1199.2139" y="365.6563"/><text fill="#000000" font-family="sans-serif" font-size="14" lengthAdjust="spacing" textLength="56" x="1209.2139" y="390.1895">&#22810;&#27425;&#25250;&#21163;</text><path d="M1149.2139,413.2656 L1159.2139,413.2656 C1174.2139,413.2656 1174.2139,384.4609 1189.2139,384.4609 L1199.2139,384.4609 " fill="none" style="stroke:#181818;stroke-width:1;"/><rect fill="#F1F1F1" height="37.6094" rx="12.5" ry="12.5" style="stroke:#181818;stroke-width:1.5;" width="76" x="1199.2139" y="423.2656"/><text fill="#000000" font-family="sans-serif" font-size="14" lengthAdjust="spacing" textLength="56" x="1209.2139" y="447.7988">&#22810;&#27425;&#24378;&#22904;</text><path d="M1149.2139,413.2656 L1159.2139,413.2656 C1174.2139,413.2656 1174.2139,442.0703 1189.2139,442.0703 L1199.2139,442.0703 " fill="none" style="stroke:#181818;stroke-width:1;"/><path d="M929.8896,326.8516 L939.8896,326.8516 C954.8896,326.8516 954.8896,413.2656 969.8896,413.2656 L979.8896,413.2656 " fill="none" style="stroke:#181818;stroke-width:1;"/><path d="M817.8896,326.8516 L827.8896,326.8516 C842.8896,326.8516 842.8896,326.8516 857.8896,326.8516 L867.8896,326.8516 " fill="none" style="stroke:#181818;stroke-width:1;"/><path d="M691.8896,269.2422 L701.8896,269.2422 C716.8896,269.2422 716.8896,326.8516 731.8896,326.8516 L741.8896,326.8516 " fill="none" style="stroke:#181818;stroke-width:1;"/><path d="M576,269.2422 L586,269.2422 C601,269.2422 601,269.2422 616,269.2422 L626,269.2422 " fill="none" style="stroke:#181818;stroke-width:1;"/><path d="M478,269.2422 L488,269.2422 C503,269.2422 503,269.2422 518,269.2422 L528,269.2422 " fill="none" style="stroke:#181818;stroke-width:1;"/><path d="M324,384.4609 L334,384.4609 C349,384.4609 349,269.2422 364,269.2422 L374,269.2422 " fill="none" style="stroke:#181818;stroke-width:1;"/><rect fill="#F1F1F1" height="37.6094" rx="12.5" ry="12.5" style="stroke:#181818;stroke-width:1.5;" width="140.1758" x="374" y="596.0938"/><text fill="#000000" font-family="sans-serif" font-size="14" lengthAdjust="spacing" textLength="120.1758" x="384" y="620.627">&#27861;&#30410;&#24615;&#36136;&#30456;&#21516;+&#19981;&#21516;</text><rect fill="#F1F1F1" height="37.6094" rx="12.5" ry="12.5" style="stroke:#181818;stroke-width:1.5;" width="76" x="564.1758" y="538.4844"/><text fill="#000000" font-family="sans-serif" font-size="14" lengthAdjust="spacing" textLength="56" x="574.1758" y="563.0176">&#31243;&#24230;&#19981;&#21516;</text><rect fill="#90EE90" height="37.6094" rx="12.5" ry="12.5" style="stroke:#181818;stroke-width:1.5;" width="65.8896" x="690.1758" y="538.4844"/><text fill="#000000" font-family="sans-serif" font-size="14" lengthAdjust="spacing" textLength="42" x="700.1758" y="563.0176">&#21560;&#25910;&#29359;</text><rect fill="#F1F1F1" height="37.6094" rx="12.5" ry="12.5" style="stroke:#181818;stroke-width:1.5;" width="132" x="806.0654" y="480.875"/><text fill="#000000" font-family="sans-serif" font-size="14" lengthAdjust="spacing" textLength="112" x="816.0654" y="505.4082">&#37325;&#34892;&#20026;&#21560;&#25910;&#36731;&#34892;&#20026;</text><rect fill="#F1F1F1" height="37.6094" rx="12.5" ry="12.5" style="stroke:#181818;stroke-width:1.5;" width="118" x="988.0654" y="480.875"/><text fill="#000000" font-family="sans-serif" font-size="14" lengthAdjust="spacing" textLength="98" x="998.0654" y="505.4082">&#19981;&#36951;&#28431;&#35780;&#20215;&#27861;&#30410;</text><path d="M938.0654,499.6797 L948.0654,499.6797 C963.0654,499.6797 963.0654,499.6797 978.0654,499.6797 L988.0654,499.6797 " fill="none" style="stroke:#181818;stroke-width:1;"/><path d="M756.0654,557.2891 L766.0654,557.2891 C781.0654,557.2891 781.0654,499.6797 796.0654,499.6797 L806.0654,499.6797 " fill="none" style="stroke:#181818;stroke-width:1;"/><rect fill="#90EE90" height="37.6094" rx="12.5" ry="12.5" style="stroke:#181818;stroke-width:1.5;" width="139.7793" x="806.0654" y="567.2891"/><text fill="#000000" font-family="sans-serif" font-size="14" lengthAdjust="spacing" textLength="112" x="816.0654" y="591.8223">&#19981;&#21487;&#32602;&#30340;&#20107;&#21518;&#34892;&#20026;</text><rect fill="#F1F1F1" height="37.6094" rx="12.5" ry="12.5" style="stroke:#181818;stroke-width:1.5;" width="132" x="995.8447" y="538.4844"/><text fill="#000000" font-family="sans-serif" font-size="14" lengthAdjust="spacing" textLength="112" x="1005.8447" y="563.0176">&#19981;&#20855;&#26377;&#26399;&#24453;&#21487;&#33021;&#24615;</text><path d="M945.8447,586.0938 L955.8447,586.0938 C970.8447,586.0938 970.8447,557.2891 985.8447,557.2891 L995.8447,557.2891 " fill="none" style="stroke:#181818;stroke-width:1;"/><rect fill="#F1F1F1" height="37.6094" rx="12.5" ry="12.5" style="stroke:#181818;stroke-width:1.5;" width="132" x="995.8447" y="596.0938"/><text fill="#000000" font-family="sans-serif" font-size="14" lengthAdjust="spacing" textLength="112" x="1005.8447" y="620.627">&#27809;&#26377;&#20405;&#29359;&#26032;&#30340;&#27861;&#30410;</text><path d="M945.8447,586.0938 L955.8447,586.0938 C970.8447,586.0938 970.8447,614.8984 985.8447,614.8984 L995.8447,614.8984 " fill="none" style="stroke:#181818;stroke-width:1;"/><path d="M756.0654,557.2891 L766.0654,557.2891 C781.0654,557.2891 781.0654,586.0938 796.0654,586.0938 L806.0654,586.0938 " fill="none" style="stroke:#181818;stroke-width:1;"/><path d="M640.1758,557.2891 L650.1758,557.2891 C665.1758,557.2891 665.1758,557.2891 680.1758,557.2891 L690.1758,557.2891 " fill="none" style="stroke:#181818;stroke-width:1;"/><path d="M514.1758,614.8984 L524.1758,614.8984 C539.1758,614.8984 539.1758,557.2891 554.1758,557.2891 L564.1758,557.2891 " fill="none" style="stroke:#181818;stroke-width:1;"/><rect fill="#F1F1F1" height="37.6094" rx="12.5" ry="12.5" style="stroke:#181818;stroke-width:1.5;" width="90" x="564.1758" y="682.5078"/><text fill="#000000" font-family="sans-serif" font-size="14" lengthAdjust="spacing" textLength="70" x="574.1758" y="707.041">&#21407;&#22240;&#19982;&#32467;&#26524;</text><rect fill="#90EE90" height="37.6094" rx="12.5" ry="12.5" style="stroke:#181818;stroke-width:1.5;" width="65.8896" x="704.1758" y="682.5078"/><text fill="#000000" font-family="sans-serif" font-size="14" lengthAdjust="spacing" textLength="42" x="714.1758" y="707.041">&#29301;&#36830;&#29359;</text><rect fill="#F1F1F1" height="37.6094" rx="12.5" ry="12.5" style="stroke:#181818;stroke-width:1.5;" width="48" x="820.0654" y="682.5078"/><text fill="#000000" font-family="sans-serif" font-size="14" lengthAdjust="spacing" textLength="28" x="830.0654" y="707.041">&#20851;&#31995;</text><rect fill="#F1F1F1" height="37.6094" rx="12.5" ry="12.5" style="stroke:#181818;stroke-width:1.5;" width="90" x="918.0654" y="653.7031"/><text fill="#000000" font-family="sans-serif" font-size="14" lengthAdjust="spacing" textLength="70" x="928.0654" y="678.2363">&#25163;&#27573;&#19982;&#30446;&#30340;</text><path d="M868.0654,701.3125 L878.0654,701.3125 C893.0654,701.3125 893.0654,672.5078 908.0654,672.5078 L918.0654,672.5078 " fill="none" style="stroke:#181818;stroke-width:1;"/><rect fill="#F1F1F1" height="37.6094" rx="12.5" ry="12.5" style="stroke:#181818;stroke-width:1.5;" width="62" x="918.0654" y="711.3125"/><text fill="#000000" font-family="sans-serif" font-size="14" lengthAdjust="spacing" textLength="42" x="928.0654" y="735.8457">&#36890;&#24120;&#24615;</text><rect fill="#F1F1F1" height="37.6094" rx="12.5" ry="12.5" style="stroke:#181818;stroke-width:1.5;" width="146" x="1030.0654" y="711.3125"/><text fill="#000000" font-family="sans-serif" font-size="14" lengthAdjust="spacing" textLength="126" x="1040.0654" y="735.8457">&#24120;&#35265;&#12289;&#24120;&#21457;&#12289;&#24120;&#20276;&#38543;</text><path d="M980.0654,730.1172 L990.0654,730.1172 C1005.0654,730.1172 1005.0654,730.1172 1020.0654,730.1172 L1030.0654,730.1172 " fill="none" style="stroke:#181818;stroke-width:1;"/><path d="M868.0654,701.3125 L878.0654,701.3125 C893.0654,701.3125 893.0654,730.1172 908.0654,730.1172 L918.0654,730.1172 " fill="none" style="stroke:#181818;stroke-width:1;"/><path d="M770.0654,701.3125 L780.0654,701.3125 C795.0654,701.3125 795.0654,701.3125 810.0654,701.3125 L820.0654,701.3125 " fill="none" style="stroke:#181818;stroke-width:1;"/><path d="M654.1758,701.3125 L664.1758,701.3125 C679.1758,701.3125 679.1758,701.3125 694.1758,701.3125 L704.1758,701.3125 " fill="none" style="stroke:#181818;stroke-width:1;"/><path d="M514.1758,614.8984 L524.1758,614.8984 C539.1758,614.8984 539.1758,701.3125 554.1758,701.3125 L564.1758,701.3125 " fill="none" style="stroke:#181818;stroke-width:1;"/><path d="M324,384.4609 L334,384.4609 C349,384.4609 349,614.8984 364,614.8984 L374,614.8984 " fill="none" style="stroke:#181818;stroke-width:1;"/><path d="M184,384.4609 L194,384.4609 C209,384.4609 209,384.4609 224,384.4609 L234,384.4609 " fill="none" style="stroke:#181818;stroke-width:1;"/><path d="M58,384.4609 L68,384.4609 C83,384.4609 83,384.4609 98,384.4609 L108,384.4609 " fill="none" style="stroke:#181818;stroke-width:1;"/><!--SRC=[xLXjJzjM5FxkNt6dVe5EX88GgX12b1IqLQIg5jhlDyvjS75y8_iwLJHL2YgiG0gawrYdG6cfsAXWWwwyr4k0_PVEB-5VxDXEm0auJjglYL3atFESvxpSUyxnPLXXM6P9GOedSOhZlX4aNbJZ18L2tTu_XML4qfqIiSJKfDXbuxj0eSjP3mcmnd7NaNMoRQvyu11yhYDTszIrxVB6SrqhEalkCW00PlnpP9qKFClwoPgkPMt9veoL_-bSKb7QNx5M5ypiLldWlQuj6lddDO1pa76QAs_D6Bk5Is8NOfLU6lavQs4F3GwIP6eIAu8oDDJ0cBMgNMtCs2oOVsxuc2d_kswL_cfefevjj-16xukfvdJHcFrahithnMAvkADhBus_ry7J1jHNvjl7YrQfzrVCrniD4jvgW2xsStRDpUxdx6lpjprpBc_jvC2GNZeArFPkZhNwojf-sfAAkV3Es2osfhBoiRmtP-H-jWxUVK5mS6Pt2yRS2sFncVds-0kYj5rUs6b9nJWk6hzhWQV-MzzAizxdZE8VFkAAfRnc_dBKGWcSFLjqUuMhMJufrRKEtueuctvb7Y-NzsRqqYSt2gvn1ItlGIrOXHczc3FoIwuPr9oVTMLehhqnJcU1iFpqf56jL5BySSEkhzD3I8lvwmVmmCTTID_I6sFrhQujGSSorzVysjdyeTrgMkWpi_lMVYd8pVcSkNjesrxT1Hy3q6VPWg5fGS5Np6jQUMlwl-mqF1ZBBzm7_VZWhB3CSTmmWI5K7KJ3jNDfq1aqGrnbuRQ04p9EeX_1Q2WcgiHvGcW4yrC9cQfIF4n5AYDHI4moMmxI9pOsZkKfcSHzu1Lf5PoG2P4QCJi03peJ0CvKiLJ6KiBFQLTOXQPKEINwGLrX5UeVc2SecIf-RDV6naP6mk4gCaD4aJxsmRf21yg5gcSlE5TUT6_Z-BtG4LZY9-44DML0I4XK9ati1KBZWaJgroyecZJRaCecaoJA4udvq2YIaqY4ngZ4tAMO29WwLZZm5Tya1cG2bR0ObeLaDT0B9AD9pEYLs7ioIM4PsokjgDsAKPa5dOHckHY3RML1Xxz9jZ1DGWKmlzskQFhHsRiZaGHi691wazceaGHjL9oGb3ALST1FBXaOXSOM4mLbqhyBUVHhhJsU55XzRdpCtAKis98J5P_1KXDHyJXEsBanpFD2tFz8rtJ78EQ7K6cAftpXDqyY-15H0ugOYk22JEEU4nXGGbKDnqwAAW8JqkGMxoc7InqMYwJPG2v2WBt0WTH90OQQtOwRELELoMIJAshi4U5jUh_iu3ICKY8toPiMA5IGGqs3cEsyDvtkYqPUMxYDQxNcB0UE20w-1hihRmVjAsZx2jg-WhQleEqhQFiA-lLNq7lsVpllHyPHciYAFSPxGhqtUlj2DpkYcA6xD8rw-j6Dde6-le6-VXIEJY1RtCbrHBwVG0fLuIq6nM76oq9CjGTV9tS7fp7wGOKnc2G3oFxLCH7fHD7HwY8QbTA2JAKaZ3xkpeE82qBVKHPDKUQ0-_kwHWI6eaG6jz2327URFCIgo42Lft51IWoW-nDZNJUvSHYHAaw08NWf2SFiP786PD7_0G00]--></g></svg>