<svg xmlns="http://www.w3.org/2000/svg" xmlns:xlink="http://www.w3.org/1999/xlink" contentStyleType="text/css" height="310px" preserveAspectRatio="none" style="width:784px;height:310px;background:#FFFFFF;" version="1.1" viewBox="0 0 784 310" width="784px" zoomAndPan="magnify"><defs/><g><rect fill="#F1F1F1" height="37.6094" rx="12.5" ry="12.5" style="stroke:#181818;stroke-width:1.5;" width="118" x="10" y="135.2188"/><text fill="#000000" font-family="sans-serif" font-size="14" lengthAdjust="spacing" textLength="98" x="20" y="159.752">&#21152;&#37325;&#29359;&#21644;&#32467;&#21512;&#29359;</text><rect fill="#F1F1F1" height="37.6094" rx="12.5" ry="12.5" style="stroke:#181818;stroke-width:1.5;" width="62" x="178" y="20"/><text fill="#000000" font-family="sans-serif" font-size="14" lengthAdjust="spacing" textLength="42" x="188" y="44.5332">&#30456;&#21516;&#28857;</text><rect fill="#F1F1F1" height="37.6094" rx="12.5" ry="12.5" style="stroke:#181818;stroke-width:1.5;" width="286" x="290" y="20"/><text fill="#000000" font-family="sans-serif" font-size="14" lengthAdjust="spacing" textLength="266" x="300" y="44.5332">&#27861;&#24459;&#35268;&#23450;&#30340;&#29305;&#27530;&#20135;&#29289;&#65292;&#37117;&#26159;&#27861;&#23450;&#21009;&#21319;&#26684;&#26465;&#20214;</text><path d="M240,38.8047 L250,38.8047 C265,38.8047 265,38.8047 280,38.8047 L290,38.8047 " fill="none" style="stroke:#181818;stroke-width:1;"/><path d="M128,154.0234 L138,154.0234 C153,154.0234 153,38.8047 168,38.8047 L178,38.8047 " fill="none" style="stroke:#181818;stroke-width:1;"/><rect fill="#F1F1F1" height="37.6094" rx="12.5" ry="12.5" style="stroke:#181818;stroke-width:1.5;" width="62" x="178" y="164.0234"/><text fill="#000000" font-family="sans-serif" font-size="14" lengthAdjust="spacing" textLength="42" x="188" y="188.5566">&#19981;&#21516;&#28857;</text><rect fill="#F1F1F1" height="37.6094" rx="12.5" ry="12.5" style="stroke:#181818;stroke-width:1.5;" width="76" x="290" y="106.4141"/><text fill="#000000" font-family="sans-serif" font-size="14" lengthAdjust="spacing" textLength="56" x="300" y="130.9473">&#34892;&#20026;&#25968;&#37327;</text><rect fill="#F1F1F1" height="37.6094" rx="12.5" ry="12.5" style="stroke:#181818;stroke-width:1.5;" width="62" x="416" y="77.6094"/><text fill="#000000" font-family="sans-serif" font-size="14" lengthAdjust="spacing" textLength="42" x="426" y="102.1426">&#21152;&#37325;&#29359;</text><rect fill="#F1F1F1" height="37.6094" rx="12.5" ry="12.5" style="stroke:#181818;stroke-width:1.5;" width="76" x="528" y="77.6094"/><text fill="#000000" font-family="sans-serif" font-size="14" lengthAdjust="spacing" textLength="56" x="538" y="102.1426">&#19968;&#20010;&#34892;&#20026;</text><path d="M478,96.4141 L488,96.4141 C503,96.4141 503,96.4141 518,96.4141 L528,96.4141 " fill="none" style="stroke:#181818;stroke-width:1;"/><path d="M366,125.2188 L376,125.2188 C391,125.2188 391,96.4141 406,96.4141 L416,96.4141 " fill="none" style="stroke:#181818;stroke-width:1;"/><rect fill="#F1F1F1" height="37.6094" rx="12.5" ry="12.5" style="stroke:#181818;stroke-width:1.5;" width="62" x="416" y="135.2188"/><text fill="#000000" font-family="sans-serif" font-size="14" lengthAdjust="spacing" textLength="42" x="426" y="159.752">&#32467;&#21512;&#29359;</text><rect fill="#F1F1F1" height="37.6094" rx="12.5" ry="12.5" style="stroke:#181818;stroke-width:1.5;" width="76" x="528" y="135.2188"/><text fill="#000000" font-family="sans-serif" font-size="14" lengthAdjust="spacing" textLength="56" x="538" y="159.752">&#20004;&#20010;&#34892;&#20026;</text><path d="M478,154.0234 L488,154.0234 C503,154.0234 503,154.0234 518,154.0234 L528,154.0234 " fill="none" style="stroke:#181818;stroke-width:1;"/><path d="M366,125.2188 L376,125.2188 C391,125.2188 391,154.0234 406,154.0234 L416,154.0234 " fill="none" style="stroke:#181818;stroke-width:1;"/><path d="M240,182.8281 L250,182.8281 C265,182.8281 265,125.2188 280,125.2188 L290,125.2188 " fill="none" style="stroke:#181818;stroke-width:1;"/><rect fill="#F1F1F1" height="37.6094" rx="12.5" ry="12.5" style="stroke:#181818;stroke-width:1.5;" width="76" x="290" y="221.6328"/><text fill="#000000" font-family="sans-serif" font-size="14" lengthAdjust="spacing" textLength="56" x="300" y="246.166">&#22788;&#29702;&#21150;&#27861;</text><rect fill="#F1F1F1" height="37.6094" rx="12.5" ry="12.5" style="stroke:#181818;stroke-width:1.5;" width="118" x="416" y="221.6328"/><text fill="#000000" font-family="sans-serif" font-size="14" lengthAdjust="spacing" textLength="98" x="426" y="246.166">&#33509;&#21024;&#38500;&#27861;&#24459;&#35268;&#23450;</text><rect fill="#F1F1F1" height="37.6094" rx="12.5" ry="12.5" style="stroke:#181818;stroke-width:1.5;" width="62" x="584" y="192.8281"/><text fill="#000000" font-family="sans-serif" font-size="14" lengthAdjust="spacing" textLength="42" x="594" y="217.3613">&#21152;&#37325;&#29359;</text><rect fill="#F1F1F1" height="37.6094" rx="12.5" ry="12.5" style="stroke:#181818;stroke-width:1.5;" width="76" x="696" y="192.8281"/><text fill="#000000" font-family="sans-serif" font-size="14" lengthAdjust="spacing" textLength="56" x="706" y="217.3613">&#24819;&#35937;&#31454;&#21512;</text><path d="M646,211.6328 L656,211.6328 C671,211.6328 671,211.6328 686,211.6328 L696,211.6328 " fill="none" style="stroke:#181818;stroke-width:1;"/><path d="M534,240.4375 L544,240.4375 C559,240.4375 559,211.6328 574,211.6328 L584,211.6328 " fill="none" style="stroke:#181818;stroke-width:1;"/><rect fill="#F1F1F1" height="37.6094" rx="12.5" ry="12.5" style="stroke:#181818;stroke-width:1.5;" width="62" x="584" y="250.4375"/><text fill="#000000" font-family="sans-serif" font-size="14" lengthAdjust="spacing" textLength="42" x="594" y="274.9707">&#32467;&#21512;&#29359;</text><rect fill="#F1F1F1" height="37.6094" rx="12.5" ry="12.5" style="stroke:#181818;stroke-width:1.5;" width="76" x="696" y="250.4375"/><text fill="#000000" font-family="sans-serif" font-size="14" lengthAdjust="spacing" textLength="56" x="706" y="274.9707">&#25968;&#32618;&#24182;&#32602;</text><path d="M646,269.2422 L656,269.2422 C671,269.2422 671,269.2422 686,269.2422 L696,269.2422 " fill="none" style="stroke:#181818;stroke-width:1;"/><path d="M534,240.4375 L544,240.4375 C559,240.4375 559,269.2422 574,269.2422 L584,269.2422 " fill="none" style="stroke:#181818;stroke-width:1;"/><path d="M366,240.4375 L376,240.4375 C391,240.4375 391,240.4375 406,240.4375 L416,240.4375 " fill="none" style="stroke:#181818;stroke-width:1;"/><path d="M240,182.8281 L250,182.8281 C265,182.8281 265,240.4375 280,240.4375 L290,240.4375 " fill="none" style="stroke:#181818;stroke-width:1;"/><path d="M128,154.0234 L138,154.0234 C153,154.0234 153,182.8281 168,182.8281 L178,182.8281 " fill="none" style="stroke:#181818;stroke-width:1;"/><!--SRC=[xLPVQzDG57_FfxZYooQqSwCC6KDcwuRAAcBdtc-JQtgtvDvmSrCf8eWED-U6KndeHDbW8YfiYY2Rs_mqJRCz-HKyIPCjxPOclegbbEQSt_cTS-xvSpDcIooaIPbcOajHpb6c6ev6K3u_4F_Qic6G0Sl0J3gcaVFnEJ381V8y1PcYN43kulhH_BAtkEs-NFBsNhah2_1VGV2vWBotE-xAalTeDtXkorhVLzrVpmu_phbRQzxQdFTqjxMrsFpvqNlwwVV-qj7ZWzRhRH-pjUOkl72Nvrlh-wrt6ysz7o5dSsVv5EVXnb9pvsThzUlH_FDZSLjr75w7FA9wsDpvt3RkCklCfDjiyxGPUDgSyrQUk8ll8VekjiDd7zo5zQCtc_7aps1E3ZOykyVV3xzjU5_UGsndc2S77PglVlKEFhkxFxo3DKKP8r3_g0V6EbjYDAZnPIKKNALO5zX4zu4uNpKS4ln3g8ZLMLrmXsabRd213AhNfAy7xGCVgs4nAuYM00-r4LWNXB1Up04WXcwaW1iHbWlCzAIWsye8QZd2CfAWRMK4JKuibfJWTXBR-Oc9Oh5KYf0DOXZyNWAshGoWIfwOLWtRr4u_gpXwg7V-SMWHH6eDEYQJ0wepBaY6MY0qIHdfbfzGP7JRayedOuohXCa46fi51udG16UoBQeQWEbYXOOFOsCIo2Xds2W9QaQ9dY0bDx7aPs9l2M9XWNt9tvXTgN8XqpeXAvUKK5QPrlmPsKhSX0cGITKEBPFe_EemeaF1W3H-cBqMILgXD48iUxOHe1-SSZ0EYwrgKBkMl8LYzftUxjMex3wR13StkKpt56IbDZ3Ba9MADIAFdM5LfLfoItTinpJckp1fTcnyuLabPJn3d9GXvWQ48BWMwy2K4Oei0ZyMjwcaTN95ZOt3gGsB3P8raPCKe1OubTgaSAdvwpXBJuKtaqzkEzKPelhqIQU3wt2L4f6HjquvJ510pTEO_NFFVDmdYxnpS7lFQaSlfruH2loC3eHl1__V_lwHjxzR_Zl-dV8agXDX-nCqc1-wE5J8N-ghO8bkyZeQ74ON1qSAXP72C2fLff2lxbVwojUdaCqTM218W_4IjEhuFTUltC1rZ6uxq84c6K7-KzzKkHzLnYCX6cTrAZWpeUkK6zFbDWXTux9YSHc0Xmkv8fMeGWI4XQRBobLo5pk615ELQvJf8-ZEr4JkaZ89tUbW7Hp1FYX1sqhH05tb3m00]--></g></svg>