<svg xmlns="http://www.w3.org/2000/svg" xmlns:xlink="http://www.w3.org/1999/xlink" contentStyleType="text/css" height="1174px" preserveAspectRatio="none" style="width:1207px;height:1174px;background:#FFFFFF;" version="1.1" viewBox="0 0 1207 1174" width="1207px" zoomAndPan="magnify"><defs/><g><rect fill="#F1F1F1" height="37.6094" rx="12.5" ry="12.5" style="stroke:#181818;stroke-width:1.5;" width="48" x="10" y="567.2891"/><text fill="#000000" font-family="sans-serif" font-size="14" lengthAdjust="spacing" textLength="28" x="20" y="591.8223">&#32618;&#25968;</text><rect fill="#F1F1F1" height="37.6094" rx="12.5" ry="12.5" style="stroke:#181818;stroke-width:1.5;" width="76" x="108" y="567.2891"/><text fill="#000000" font-family="sans-serif" font-size="14" lengthAdjust="spacing" textLength="56" x="118" y="591.8223">&#19968;&#20010;&#34892;&#20026;</text><rect fill="#F1F1F1" height="37.6094" rx="12.5" ry="12.5" style="stroke:#181818;stroke-width:1.5;" width="76" x="234" y="192.8281"/><text fill="#000000" font-family="sans-serif" font-size="14" lengthAdjust="spacing" textLength="56" x="244" y="217.3613">&#19968;&#20010;&#32618;&#21517;</text><rect fill="#F1F1F1" height="37.6094" rx="12.5" ry="12.5" style="stroke:#181818;stroke-width:1.5;" width="132" x="360" y="77.6094"/><text fill="#000000" font-family="sans-serif" font-size="14" lengthAdjust="spacing" textLength="112" x="370" y="102.1426">&#38750;&#25345;&#32493;&#29366;&#24577;&#30340;&#29359;&#32618;</text><rect fill="#F1F1F1" height="37.6094" rx="12.5" ry="12.5" style="stroke:#181818;stroke-width:1.5;" width="76" x="542" y="20"/><text fill="#000000" font-family="sans-serif" font-size="14" lengthAdjust="spacing" textLength="56" x="552" y="44.5332">&#20107;&#21069;&#20849;&#35851;</text><rect fill="#F1F1F1" height="37.6094" rx="12.5" ry="12.5" style="stroke:#181818;stroke-width:1.5;" width="76" x="668" y="20"/><text fill="#000000" font-family="sans-serif" font-size="14" lengthAdjust="spacing" textLength="56" x="678" y="44.5332">&#20849;&#21516;&#29359;&#32618;</text><path d="M618,38.8047 L628,38.8047 C643,38.8047 643,38.8047 658,38.8047 L668,38.8047 " fill="none" style="stroke:#181818;stroke-width:1;"/><path d="M492,96.4141 L502,96.4141 C517,96.4141 517,38.8047 532,38.8047 L542,38.8047 " fill="none" style="stroke:#181818;stroke-width:1;"/><rect fill="#F1F1F1" height="37.6094" rx="12.5" ry="12.5" style="stroke:#181818;stroke-width:1.5;" width="76" x="542" y="77.6094"/><text fill="#000000" font-family="sans-serif" font-size="14" lengthAdjust="spacing" textLength="56" x="552" y="102.1426">&#20107;&#20013;&#21442;&#19982;</text><rect fill="#F1F1F1" height="37.6094" rx="12.5" ry="12.5" style="stroke:#181818;stroke-width:1.5;" width="118" x="668" y="77.6094"/><text fill="#000000" font-family="sans-serif" font-size="14" lengthAdjust="spacing" textLength="98" x="678" y="102.1426">&#25215;&#32487;&#30340;&#20849;&#21516;&#29359;&#32618;</text><path d="M618,96.4141 L628,96.4141 C643,96.4141 643,96.4141 658,96.4141 L668,96.4141 " fill="none" style="stroke:#181818;stroke-width:1;"/><path d="M492,96.4141 L502,96.4141 C517,96.4141 517,96.4141 532,96.4141 L542,96.4141 " fill="none" style="stroke:#181818;stroke-width:1;"/><rect fill="#F1F1F1" height="37.6094" rx="12.5" ry="12.5" style="stroke:#181818;stroke-width:1.5;" width="76" x="542" y="135.2188"/><text fill="#000000" font-family="sans-serif" font-size="14" lengthAdjust="spacing" textLength="56" x="552" y="159.752">&#20107;&#21518;&#21442;&#19982;</text><rect fill="#F1F1F1" height="37.6094" rx="12.5" ry="12.5" style="stroke:#181818;stroke-width:1.5;" width="104" x="668" y="135.2188"/><text fill="#000000" font-family="sans-serif" font-size="14" lengthAdjust="spacing" textLength="84" x="678" y="159.752">&#22952;&#23475;&#21496;&#27861;&#29359;&#32618;</text><path d="M618,154.0234 L628,154.0234 C643,154.0234 643,154.0234 658,154.0234 L668,154.0234 " fill="none" style="stroke:#181818;stroke-width:1;"/><path d="M492,96.4141 L502,96.4141 C517,96.4141 517,154.0234 532,154.0234 L542,154.0234 " fill="none" style="stroke:#181818;stroke-width:1;"/><path d="M310,211.6328 L320,211.6328 C335,211.6328 335,96.4141 350,96.4141 L360,96.4141 " fill="none" style="stroke:#181818;stroke-width:1;"/><rect fill="#F1F1F1" height="37.6094" rx="12.5" ry="12.5" style="stroke:#181818;stroke-width:1.5;" width="118" x="360" y="279.2422"/><text fill="#000000" font-family="sans-serif" font-size="14" lengthAdjust="spacing" textLength="98" x="370" y="303.7754">&#25345;&#32493;&#29366;&#24577;&#30340;&#29359;&#32618;</text><rect fill="#90EE90" height="37.6094" rx="12.5" ry="12.5" style="stroke:#181818;stroke-width:1.5;" width="65.8896" x="528" y="279.2422"/><text fill="#000000" font-family="sans-serif" font-size="14" lengthAdjust="spacing" textLength="42" x="538" y="303.7754">&#32487;&#32493;&#29359;</text><rect fill="#F1F1F1" height="37.6094" rx="12.5" ry="12.5" style="stroke:#181818;stroke-width:1.5;" width="90" x="643.8896" y="192.8281"/><text fill="#000000" font-family="sans-serif" font-size="14" lengthAdjust="spacing" textLength="70" x="653.8896" y="217.3613">&#38750;&#27861;&#25304;&#31105;&#32618;</text><path d="M593.8896,298.0469 L603.8896,298.0469 C618.8896,298.0469 618.8896,211.6328 633.8896,211.6328 L643.8896,211.6328 " fill="none" style="stroke:#181818;stroke-width:1;"/><rect fill="#F1F1F1" height="37.6094" rx="12.5" ry="12.5" style="stroke:#181818;stroke-width:1.5;" width="62" x="643.8896" y="250.4375"/><text fill="#000000" font-family="sans-serif" font-size="14" lengthAdjust="spacing" textLength="42" x="653.8896" y="274.9707">&#31389;&#34255;&#32618;</text><path d="M593.8896,298.0469 L603.8896,298.0469 C618.8896,298.0469 618.8896,269.2422 633.8896,269.2422 L643.8896,269.2422 " fill="none" style="stroke:#181818;stroke-width:1;"/><rect fill="#F1F1F1" height="37.6094" rx="12.5" ry="12.5" style="stroke:#181818;stroke-width:1.5;" width="62" x="643.8896" y="308.0469"/><text fill="#000000" font-family="sans-serif" font-size="14" lengthAdjust="spacing" textLength="42" x="653.8896" y="332.5801">&#32465;&#26550;&#32618;</text><path d="M593.8896,298.0469 L603.8896,298.0469 C618.8896,298.0469 618.8896,326.8516 633.8896,326.8516 L643.8896,326.8516 " fill="none" style="stroke:#181818;stroke-width:1;"/><rect fill="#F1F1F1" height="37.6094" rx="12.5" ry="12.5" style="stroke:#181818;stroke-width:1.5;" width="62" x="643.8896" y="365.6563"/><text fill="#000000" font-family="sans-serif" font-size="14" lengthAdjust="spacing" textLength="42" x="653.8896" y="390.1895">&#37325;&#23130;&#32618;</text><path d="M593.8896,298.0469 L603.8896,298.0469 C618.8896,298.0469 618.8896,384.4609 633.8896,384.4609 L643.8896,384.4609 " fill="none" style="stroke:#181818;stroke-width:1;"/><path d="M478,298.0469 L488,298.0469 C503,298.0469 503,298.0469 518,298.0469 L528,298.0469 " fill="none" style="stroke:#181818;stroke-width:1;"/><path d="M310,211.6328 L320,211.6328 C335,211.6328 335,298.0469 350,298.0469 L360,298.0469 " fill="none" style="stroke:#181818;stroke-width:1;"/><path d="M184,586.0938 L194,586.0938 C209,586.0938 209,211.6328 224,211.6328 L234,211.6328 " fill="none" style="stroke:#181818;stroke-width:1;"/><rect fill="#F1F1F1" height="37.6094" rx="12.5" ry="12.5" style="stroke:#181818;stroke-width:1.5;" width="76" x="234" y="768.9219"/><text fill="#000000" font-family="sans-serif" font-size="14" lengthAdjust="spacing" textLength="56" x="244" y="793.4551">&#20004;&#20010;&#32618;&#21517;</text><rect fill="#F1F1F1" height="37.6094" rx="12.5" ry="12.5" style="stroke:#181818;stroke-width:1.5;" width="76" x="360" y="480.875"/><text fill="#000000" font-family="sans-serif" font-size="14" lengthAdjust="spacing" textLength="56" x="370" y="505.4082">&#24444;&#27492;&#20851;&#31995;</text><rect fill="#F1F1F1" height="37.6094" rx="12.5" ry="12.5" style="stroke:#181818;stroke-width:1.5;" width="76" x="486" y="423.2656"/><text fill="#000000" font-family="sans-serif" font-size="14" lengthAdjust="spacing" textLength="56" x="496" y="447.7988">&#20013;&#31435;&#20851;&#31995;</text><rect fill="#F1F1F1" height="37.6094" rx="12.5" ry="12.5" style="stroke:#181818;stroke-width:1.5;" width="50.3447" x="612" y="423.2656"/><text fill="#000000" font-family="sans-serif" font-size="14" lengthAdjust="spacing" textLength="30.3447" x="622" y="447.7988">A : B</text><path d="M562,442.0703 L572,442.0703 C587,442.0703 587,442.0703 602,442.0703 L612,442.0703 " fill="none" style="stroke:#181818;stroke-width:1;"/><path d="M436,499.6797 L446,499.6797 C461,499.6797 461,442.0703 476,442.0703 L486,442.0703 " fill="none" style="stroke:#181818;stroke-width:1;"/><rect fill="#F1F1F1" height="37.6094" rx="12.5" ry="12.5" style="stroke:#181818;stroke-width:1.5;" width="104" x="486" y="480.875"/><text fill="#000000" font-family="sans-serif" font-size="14" lengthAdjust="spacing" textLength="84" x="496" y="505.4082">&#23545;&#31435;&#25490;&#26021;&#20851;&#31995;</text><rect fill="#F1F1F1" height="37.6094" rx="12.5" ry="12.5" style="stroke:#181818;stroke-width:1.5;" width="55.0068" x="640" y="480.875"/><text fill="#000000" font-family="sans-serif" font-size="14" lengthAdjust="spacing" textLength="35.0068" x="650" y="505.4082">A : -A</text><path d="M590,499.6797 L600,499.6797 C615,499.6797 615,499.6797 630,499.6797 L640,499.6797 " fill="none" style="stroke:#181818;stroke-width:1;"/><path d="M436,499.6797 L446,499.6797 C461,499.6797 461,499.6797 476,499.6797 L486,499.6797 " fill="none" style="stroke:#181818;stroke-width:1;"/><rect fill="#F1F1F1" height="37.6094" rx="12.5" ry="12.5" style="stroke:#181818;stroke-width:1.5;" width="188" x="486" y="538.4844"/><text fill="#000000" font-family="sans-serif" font-size="14" lengthAdjust="spacing" textLength="168" x="496" y="563.0176">&#21253;&#23481;&#35780;&#20215;&#20851;&#31995;&#65288;&#20301;&#38454;&#20851;&#31995;&#65289;</text><rect fill="#F1F1F1" height="37.6094" rx="12.5" ry="12.5" style="stroke:#181818;stroke-width:1.5;" width="75.6377" x="724" y="538.4844"/><text fill="#000000" font-family="sans-serif" font-size="14" lengthAdjust="spacing" textLength="55.6377" x="734" y="563.0176">A : A + B</text><path d="M674,557.2891 L684,557.2891 C699,557.2891 699,557.2891 714,557.2891 L724,557.2891 " fill="none" style="stroke:#181818;stroke-width:1;"/><path d="M436,499.6797 L446,499.6797 C461,499.6797 461,557.2891 476,557.2891 L486,557.2891 " fill="none" style="stroke:#181818;stroke-width:1;"/><path d="M310,787.7266 L320,787.7266 C335,787.7266 335,499.6797 350,499.6797 L360,499.6797 " fill="none" style="stroke:#181818;stroke-width:1;"/><rect fill="#F1F1F1" height="37.6094" rx="12.5" ry="12.5" style="stroke:#181818;stroke-width:1.5;" width="76" x="360" y="855.3359"/><text fill="#000000" font-family="sans-serif" font-size="14" lengthAdjust="spacing" textLength="56" x="370" y="879.8691">&#32467;&#26524;&#22788;&#29702;</text><rect fill="#90EE90" height="37.6094" rx="12.5" ry="12.5" style="stroke:#181818;stroke-width:1.5;" width="79.8896" x="486" y="596.0938"/><text fill="#000000" font-family="sans-serif" font-size="14" lengthAdjust="spacing" textLength="56" x="496" y="620.627">&#24819;&#35937;&#31454;&#21512;</text><rect fill="#F1F1F1" height="37.6094" rx="12.5" ry="12.5" style="stroke:#181818;stroke-width:1.5;" width="104" x="615.8896" y="596.0938"/><text fill="#000000" font-family="sans-serif" font-size="14" lengthAdjust="spacing" textLength="84" x="625.8896" y="620.627">&#25321;&#19968;&#37325;&#32618;&#35770;&#22788;</text><path d="M565.8896,614.8984 L575.8896,614.8984 C590.8896,614.8984 590.8896,614.8984 605.8896,614.8984 L615.8896,614.8984 " fill="none" style="stroke:#181818;stroke-width:1;"/><path d="M436,874.1406 L446,874.1406 C461,874.1406 461,614.8984 476,614.8984 L486,614.8984 " fill="none" style="stroke:#181818;stroke-width:1;"/><rect fill="#90EE90" height="37.6094" rx="12.5" ry="12.5" style="stroke:#181818;stroke-width:1.5;" width="79.8896" x="486" y="653.7031"/><text fill="#000000" font-family="sans-serif" font-size="14" lengthAdjust="spacing" textLength="56" x="496" y="678.2363">&#27861;&#26465;&#31454;&#21512;</text><rect fill="#F1F1F1" height="37.6094" rx="12.5" ry="12.5" style="stroke:#181818;stroke-width:1.5;" width="132" x="615.8896" y="653.7031"/><text fill="#000000" font-family="sans-serif" font-size="14" lengthAdjust="spacing" textLength="112" x="625.8896" y="678.2363">&#29305;&#27530;&#27861;&#20248;&#20110;&#19968;&#33324;&#27861;</text><path d="M565.8896,672.5078 L575.8896,672.5078 C590.8896,672.5078 590.8896,672.5078 605.8896,672.5078 L615.8896,672.5078 " fill="none" style="stroke:#181818;stroke-width:1;"/><path d="M436,874.1406 L446,874.1406 C461,874.1406 461,672.5078 476,672.5078 L486,672.5078 " fill="none" style="stroke:#181818;stroke-width:1;"/><rect fill="#90EE90" height="37.6094" rx="12.5" ry="12.5" style="stroke:#181818;stroke-width:1.5;" width="65.8896" x="486" y="912.9453"/><text fill="#000000" font-family="sans-serif" font-size="14" lengthAdjust="spacing" textLength="42" x="496" y="937.4785">&#21152;&#37325;&#29359;</text><rect fill="#F1F1F1" height="37.6094" rx="12.5" ry="12.5" style="stroke:#181818;stroke-width:1.5;" width="76" x="601.8896" y="797.7266"/><text fill="#000000" font-family="sans-serif" font-size="14" lengthAdjust="spacing" textLength="56" x="611.8896" y="822.2598">&#34892;&#20026;&#32467;&#26500;</text><rect fill="#F1F1F1" height="37.6094" rx="12.5" ry="12.5" style="stroke:#181818;stroke-width:1.5;" width="62" x="727.8896" y="740.1172"/><text fill="#000000" font-family="sans-serif" font-size="14" lengthAdjust="spacing" textLength="42" x="737.8896" y="764.6504">&#22522;&#26412;&#29359;</text><path d="M677.8896,816.5313 L687.8896,816.5313 C702.8896,816.5313 702.8896,758.9219 717.8896,758.9219 L727.8896,758.9219 " fill="none" style="stroke:#181818;stroke-width:1;"/><rect fill="#F1F1F1" height="37.6094" rx="12.5" ry="12.5" style="stroke:#181818;stroke-width:1.5;" width="118" x="727.8896" y="797.7266"/><text fill="#000000" font-family="sans-serif" font-size="14" lengthAdjust="spacing" textLength="98" x="737.8896" y="822.2598">&#27861;&#23450;&#21009;&#21319;&#26684;&#26465;&#20214;</text><rect fill="#F1F1F1" height="37.6094" rx="12.5" ry="12.5" style="stroke:#181818;stroke-width:1.5;" width="76" x="895.8896" y="711.3125"/><text fill="#000000" font-family="sans-serif" font-size="14" lengthAdjust="spacing" textLength="56" x="905.8896" y="735.8457">&#32467;&#26524;&#21152;&#37325;</text><rect fill="#F1F1F1" height="37.6094" rx="12.5" ry="12.5" style="stroke:#181818;stroke-width:1.5;" width="118" x="1021.8896" y="711.3125"/><text fill="#000000" font-family="sans-serif" font-size="14" lengthAdjust="spacing" textLength="98" x="1031.8896" y="735.8457">&#25250;&#21163;&#32618;&#33268;&#20154;&#27515;&#20129;</text><path d="M971.8896,730.1172 L981.8896,730.1172 C996.8896,730.1172 996.8896,730.1172 1011.8896,730.1172 L1021.8896,730.1172 " fill="none" style="stroke:#181818;stroke-width:1;"/><path d="M845.8896,816.5313 L855.8896,816.5313 C870.8896,816.5313 870.8896,730.1172 885.8896,730.1172 L895.8896,730.1172 " fill="none" style="stroke:#181818;stroke-width:1;"/><rect fill="#F1F1F1" height="37.6094" rx="12.5" ry="12.5" style="stroke:#181818;stroke-width:1.5;" width="76" x="895.8896" y="768.9219"/><text fill="#000000" font-family="sans-serif" font-size="14" lengthAdjust="spacing" textLength="56" x="905.8896" y="793.4551">&#24773;&#33410;&#21152;&#37325;</text><rect fill="#F1F1F1" height="37.6094" rx="12.5" ry="12.5" style="stroke:#181818;stroke-width:1.5;" width="76" x="1021.8896" y="768.9219"/><text fill="#000000" font-family="sans-serif" font-size="14" lengthAdjust="spacing" textLength="56" x="1031.8896" y="793.4551">&#20837;&#25143;&#25250;&#21163;</text><path d="M971.8896,787.7266 L981.8896,787.7266 C996.8896,787.7266 996.8896,787.7266 1011.8896,787.7266 L1021.8896,787.7266 " fill="none" style="stroke:#181818;stroke-width:1;"/><path d="M845.8896,816.5313 L855.8896,816.5313 C870.8896,816.5313 870.8896,787.7266 885.8896,787.7266 L895.8896,787.7266 " fill="none" style="stroke:#181818;stroke-width:1;"/><rect fill="#F1F1F1" height="37.6094" rx="12.5" ry="12.5" style="stroke:#181818;stroke-width:1.5;" width="76" x="895.8896" y="826.5313"/><text fill="#000000" font-family="sans-serif" font-size="14" lengthAdjust="spacing" textLength="56" x="905.8896" y="851.0645">&#25968;&#39069;&#21152;&#37325;</text><rect fill="#F1F1F1" height="37.6094" rx="12.5" ry="12.5" style="stroke:#181818;stroke-width:1.5;" width="174" x="1021.8896" y="826.5313"/><text fill="#000000" font-family="sans-serif" font-size="14" lengthAdjust="spacing" textLength="154" x="1031.8896" y="851.0645">&#25250;&#21163;&#25968;&#39069;&#29305;&#21035;&#24040;&#22823;&#30340;&#36130;&#29289;</text><path d="M971.8896,845.3359 L981.8896,845.3359 C996.8896,845.3359 996.8896,845.3359 1011.8896,845.3359 L1021.8896,845.3359 " fill="none" style="stroke:#181818;stroke-width:1;"/><path d="M845.8896,816.5313 L855.8896,816.5313 C870.8896,816.5313 870.8896,845.3359 885.8896,845.3359 L895.8896,845.3359 " fill="none" style="stroke:#181818;stroke-width:1;"/><rect fill="#F1F1F1" height="37.6094" rx="12.5" ry="12.5" style="stroke:#181818;stroke-width:1.5;" width="76" x="895.8896" y="884.1406"/><text fill="#000000" font-family="sans-serif" font-size="14" lengthAdjust="spacing" textLength="56" x="905.8896" y="908.6738">&#23545;&#35937;&#21152;&#37325;</text><rect fill="#F1F1F1" height="37.6094" rx="12.5" ry="12.5" style="stroke:#181818;stroke-width:1.5;" width="104" x="1021.8896" y="884.1406"/><text fill="#000000" font-family="sans-serif" font-size="14" lengthAdjust="spacing" textLength="84" x="1031.8896" y="908.6738">&#25250;&#21163;&#20891;&#29992;&#29289;&#36164;</text><path d="M971.8896,902.9453 L981.8896,902.9453 C996.8896,902.9453 996.8896,902.9453 1011.8896,902.9453 L1021.8896,902.9453 " fill="none" style="stroke:#181818;stroke-width:1;"/><path d="M845.8896,816.5313 L855.8896,816.5313 C870.8896,816.5313 870.8896,902.9453 885.8896,902.9453 L895.8896,902.9453 " fill="none" style="stroke:#181818;stroke-width:1;"/><path d="M677.8896,816.5313 L687.8896,816.5313 C702.8896,816.5313 702.8896,816.5313 717.8896,816.5313 L727.8896,816.5313 " fill="none" style="stroke:#181818;stroke-width:1;"/><path d="M551.8896,931.75 L561.8896,931.75 C576.8896,931.75 576.8896,816.5313 591.8896,816.5313 L601.8896,816.5313 " fill="none" style="stroke:#181818;stroke-width:1;"/><rect fill="#F1F1F1" height="37.6094" rx="12.5" ry="12.5" style="stroke:#181818;stroke-width:1.5;" width="76" x="601.8896" y="1028.1641"/><text fill="#000000" font-family="sans-serif" font-size="14" lengthAdjust="spacing" textLength="56" x="611.8896" y="1052.6973">&#29359;&#32618;&#24418;&#24577;</text><rect fill="#FFA500" height="37.6094" rx="12.5" ry="12.5" style="stroke:#181818;stroke-width:1.5;" width="62" x="727.8896" y="1028.1641"/><text fill="#000000" font-family="sans-serif" font-size="14" lengthAdjust="spacing" textLength="42" x="737.8896" y="1052.6973">&#22522;&#26412;&#29359;</text><rect fill="#F1F1F1" height="37.6094" rx="12.5" ry="12.5" style="stroke:#181818;stroke-width:1.5;" width="90" x="839.8896" y="970.5547"/><text fill="#000000" font-family="sans-serif" font-size="14" lengthAdjust="spacing" textLength="70" x="849.8896" y="995.0879">&#26410;&#36930;&#25110;&#20013;&#27490;</text><rect fill="#FF6347" height="37.6094" rx="12.5" ry="12.5" style="stroke:#181818;stroke-width:1.5;" width="62" x="979.8896" y="970.5547"/><text fill="#000000" font-family="sans-serif" font-size="14" lengthAdjust="spacing" textLength="42" x="989.8896" y="995.0879">&#21152;&#37325;&#29359;</text><rect fill="#F1F1F1" height="37.6094" rx="12.5" ry="12.5" style="stroke:#181818;stroke-width:1.5;" width="90" x="1091.8896" y="941.75"/><text fill="#000000" font-family="sans-serif" font-size="14" lengthAdjust="spacing" textLength="70" x="1101.8896" y="966.2832">&#26410;&#36930;&#21644;&#20013;&#27490;</text><path d="M1041.8896,989.3594 L1051.8896,989.3594 C1066.8896,989.3594 1066.8896,960.5547 1081.8896,960.5547 L1091.8896,960.5547 " fill="none" style="stroke:#181818;stroke-width:1;"/><rect fill="#F1F1F1" height="37.6094" rx="12.5" ry="12.5" style="stroke:#181818;stroke-width:1.5;" width="48" x="1091.8896" y="999.3594"/><text fill="#000000" font-family="sans-serif" font-size="14" lengthAdjust="spacing" textLength="28" x="1101.8896" y="1023.8926">&#26082;&#36930;</text><path d="M1041.8896,989.3594 L1051.8896,989.3594 C1066.8896,989.3594 1066.8896,1018.1641 1081.8896,1018.1641 L1091.8896,1018.1641 " fill="none" style="stroke:#181818;stroke-width:1;"/><path d="M929.8896,989.3594 L939.8896,989.3594 C954.8896,989.3594 954.8896,989.3594 969.8896,989.3594 L979.8896,989.3594 " fill="none" style="stroke:#181818;stroke-width:1;"/><path d="M789.8896,1046.9688 L799.8896,1046.9688 C814.8896,1046.9688 814.8896,989.3594 829.8896,989.3594 L839.8896,989.3594 " fill="none" style="stroke:#181818;stroke-width:1;"/><rect fill="#F1F1F1" height="37.6094" rx="12.5" ry="12.5" style="stroke:#181818;stroke-width:1.5;" width="48" x="839.8896" y="1085.7734"/><text fill="#000000" font-family="sans-serif" font-size="14" lengthAdjust="spacing" textLength="28" x="849.8896" y="1110.3066">&#26082;&#36930;</text><rect fill="#FF6347" height="37.6094" rx="12.5" ry="12.5" style="stroke:#181818;stroke-width:1.5;" width="62" x="937.8896" y="1085.7734"/><text fill="#000000" font-family="sans-serif" font-size="14" lengthAdjust="spacing" textLength="42" x="947.8896" y="1110.3066">&#21152;&#37325;&#29359;</text><rect fill="#F1F1F1" height="37.6094" rx="12.5" ry="12.5" style="stroke:#181818;stroke-width:1.5;" width="90" x="1049.8896" y="1056.9688"/><text fill="#000000" font-family="sans-serif" font-size="14" lengthAdjust="spacing" textLength="70" x="1059.8896" y="1081.502">&#26410;&#36930;&#21644;&#20013;&#27490;</text><path d="M999.8896,1104.5781 L1009.8896,1104.5781 C1024.8896,1104.5781 1024.8896,1075.7734 1039.8896,1075.7734 L1049.8896,1075.7734 " fill="none" style="stroke:#181818;stroke-width:1;"/><rect fill="#F1F1F1" height="37.6094" rx="12.5" ry="12.5" style="stroke:#181818;stroke-width:1.5;" width="48" x="1049.8896" y="1114.5781"/><text fill="#000000" font-family="sans-serif" font-size="14" lengthAdjust="spacing" textLength="28" x="1059.8896" y="1139.1113">&#26082;&#36930;</text><path d="M999.8896,1104.5781 L1009.8896,1104.5781 C1024.8896,1104.5781 1024.8896,1133.3828 1039.8896,1133.3828 L1049.8896,1133.3828 " fill="none" style="stroke:#181818;stroke-width:1;"/><path d="M887.8896,1104.5781 L897.8896,1104.5781 C912.8896,1104.5781 912.8896,1104.5781 927.8896,1104.5781 L937.8896,1104.5781 " fill="none" style="stroke:#181818;stroke-width:1;"/><path d="M789.8896,1046.9688 L799.8896,1046.9688 C814.8896,1046.9688 814.8896,1104.5781 829.8896,1104.5781 L839.8896,1104.5781 " fill="none" style="stroke:#181818;stroke-width:1;"/><path d="M677.8896,1046.9688 L687.8896,1046.9688 C702.8896,1046.9688 702.8896,1046.9688 717.8896,1046.9688 L727.8896,1046.9688 " fill="none" style="stroke:#181818;stroke-width:1;"/><path d="M551.8896,931.75 L561.8896,931.75 C576.8896,931.75 576.8896,1046.9688 591.8896,1046.9688 L601.8896,1046.9688 " fill="none" style="stroke:#181818;stroke-width:1;"/><path d="M436,874.1406 L446,874.1406 C461,874.1406 461,931.75 476,931.75 L486,931.75 " fill="none" style="stroke:#181818;stroke-width:1;"/><path d="M310,787.7266 L320,787.7266 C335,787.7266 335,874.1406 350,874.1406 L360,874.1406 " fill="none" style="stroke:#181818;stroke-width:1;"/><path d="M184,586.0938 L194,586.0938 C209,586.0938 209,787.7266 224,787.7266 L234,787.7266 " fill="none" style="stroke:#181818;stroke-width:1;"/><path d="M58,586.0938 L68,586.0938 C83,586.0938 83,586.0938 98,586.0938 L108,586.0938 " fill="none" style="stroke:#181818;stroke-width:1;"/><!--SRC=[xLbRJnj757xVNp4LBv0A4n124K88x83Q24TH8Nc9yZ3O4xDXlMFjZXrPLQH081XpJLeIH846YwHSmYKY1ME3-cSyk-QfVw5dT-sm1gztKHygLRQGvPtpdU_CdDiU3JqgmmgBYd8uYcE2y9qeXwHuc22VhyN-fxAaH5fY4fPPF2er6_XcK6WsrtqYh0d2BQIVxsXBXmA2porKoBuiP7UA6xE5RCvSiYy3aY_EVLksH1Thwzhic9xVqzF7siinVML2Jny0iW9MOidDyEavFlcbU3XpJMn1GCWNPsin5B9xV66ya9rtOD2c_zBpVy0stAduudnDAlvfY-yVyOMiThHKXGTiUJouiI43Tu2wkaWqDe9LKUtkTh1gEFHeIPjPrZ-DLQChKUwi5Tylr93dtsZhnyxoYwavlhrYbnjHtdIACZy_q_Os-UIHVfIlvipidhuxuo2s8Bse4_chgFA3Kr3Lvjzgxpww4ZJtLcEOdUJxfyM3YKB-n6Bu-onLE9-xM3ukFqxNuEn5tr_PcE6zNxJrLRuveI- -hc9HUtLK_BAXxwxpnPINa6epsr11u7BmRN4_1xpLI27eQpSWrQTFjVqqQ1NEbWkvUJ1GJ7s6nseUIdymZ7lBFwluJGzCL8MKE7_FQQkVWRC61dR3zrTuwWsVcz8-dC7n2lbZHto5wyqTruIMJAGpFBrh-7NgQo6Nq_RoXTo6YmdjrMGnFUxP19_ygALEB4Dkp4k75vcr6sxUKe9myjGkFzdYcqRtAdxDwDFRBkQWTY0FRsYEl_vD_tKBo8j_JZYbbjd8-7a6-ffpU1ytK0NB4VB4GowKDh2wSp4shgNUGR_GzZBkMtxSm6WKC_haCeLTbUoc-DjPZwPAMkype2NyQz1_kNcXXy1SK9uDUYf7XIxptTyjb1RkYZYYu2Zw6KpuXgKuCNyXvCUXqOX2ut8uG2Mg84cCZ3133j8N1ZQCbL65X1tW9MaP7548aMincm0REka2JfQnLW8we2rX6HgBAp792Me9or3dWzaEfL3LYQsXlz_l3mJAo2IH9FhS0Mi9JQZWA_TcTr_PqMsrps-7-c4fD0Avuic0696fGZp40g41KIPNroyfF9gjIMMGoJ8D4PavqAYowKY4-gdChALX2J1NM27XItkJ6P29LCPIG16ZvODU8gtohOfze90OLh2nSXErtc6gCBTCyCh568ILkIM_HxO0ZK85CATebpITw8peo2G20GDIkpDhDHAtG8K9YQcZIHFzufg1FcXimvAeZZXt8Pj-fRNd8oAxwXi7C_SfSxTadYgKnBA7KuLmcB1lnd0e98QTKxgYExenFuLAKstb2yyX4iJFIDobYAa4Mr1es9Q1BYLKrZ3jnAWgCZ51UaEsShZMOR54l1xayWWG2-nA7HNXfMQqOoyvLNep6UHgVFWP2HdqJjx12NYL4iKZRqAaK44cDNLZDlpksTsNZRooS6lNQaKkkxuY1FZgQYbD1_LRWVgjGFrMe7uhKByLgDyAr6y5_eUt0W-C_may30wW155KOx9gzRNTRclttMaSn0pTfmdKse5kjtQsjtUsTw30u10on4r2O_378QJIE0oMA0nZbo8EnurPf4cuXnCO_HI7oIHAEf7nr3WKR4A3VUL5r2SdH8NAKPX6X7kFWXO8_K3PO8mo4zpHtkmN6Hea2cmBFGeATybJ79SOg8PeM9GZdUZXK7_p7M404YoE8s08viG0Z3DCIO9iy1y0]--></g></svg>