<svg xmlns="http://www.w3.org/2000/svg" xmlns:xlink="http://www.w3.org/1999/xlink" contentStyleType="text/css" height="521px" preserveAspectRatio="none" style="width:959px;height:521px;background:#FFFFFF;" version="1.1" viewBox="0 0 959 521" width="959px" zoomAndPan="magnify"><title>&#36130;&#20135;&#29359;&#32618; - &#25250;&#21163;&#32618; - &#20107;&#21518;&#36716;&#21270;&#25250;&#21163;</title><defs/><g><text fill="#000000" font-family="sans-serif" font-size="14" font-weight="bold" lengthAdjust="spacing" textLength="212.5703" x="372.1079" y="34.5332">&#36130;&#20135;&#29359;&#32618; - &#25250;&#21163;&#32618; - &#20107;&#21518;&#36716;&#21270;&#25250;&#21163;</text><rect fill="#F1F1F1" height="37.6094" rx="12.5" ry="12.5" style="stroke:#181818;stroke-width:1.5;" width="104" x="10" y="260.2422"/><text fill="#000000" font-family="sans-serif" font-size="14" lengthAdjust="spacing" textLength="84" x="20" y="284.7754">&#20107;&#21518;&#36716;&#21270;&#25250;&#21163;</text><rect fill="#F1F1F1" height="37.6094" rx="12.5" ry="12.5" style="stroke:#181818;stroke-width:1.5;" width="76" x="164" y="260.2422"/><text fill="#000000" font-family="sans-serif" font-size="14" lengthAdjust="spacing" textLength="56" x="174" y="284.7754">&#25104;&#31435;&#26465;&#20214;</text><rect fill="#F1F1F1" height="37.6094" rx="12.5" ry="12.5" style="stroke:#181818;stroke-width:1.5;" width="76" x="290" y="145.0234"/><text fill="#000000" font-family="sans-serif" font-size="14" lengthAdjust="spacing" textLength="56" x="300" y="169.5566">&#19977;&#20010;&#36731;&#32618;</text><rect fill="#F1F1F1" height="37.6094" rx="12.5" ry="12.5" style="stroke:#181818;stroke-width:1.5;" width="111.7861" x="416" y="145.0234"/><text fill="#000000" font-family="sans-serif" font-size="14" lengthAdjust="spacing" textLength="91.7861" x="426" y="169.5566">&#21028;&#26029;&#26631;&#20934;&#65288;2&#65289;</text><rect fill="#F1F1F1" height="37.6094" rx="12.5" ry="12.5" style="stroke:#181818;stroke-width:1.5;" width="244" x="577.7861" y="58.6094"/><text fill="#000000" font-family="sans-serif" font-size="14" lengthAdjust="spacing" textLength="224" x="587.7861" y="83.1426">&#31532;&#19968;&#65292;&#35813;&#34892;&#20026;&#20855;&#26377;&#12302;&#36130;&#20135;&#29359;&#32618;&#23646;&#24615;&#12303;</text><path d="M527.7861,163.8281 L537.7861,163.8281 C552.7861,163.8281 552.7861,77.4141 567.7861,77.4141 L577.7861,77.4141 " fill="none" style="stroke:#181818;stroke-width:1;"/><rect fill="#F1F1F1" height="37.6094" rx="12.5" ry="12.5" style="stroke:#181818;stroke-width:1.5;" width="230" x="577.7861" y="173.8281"/><text fill="#000000" font-family="sans-serif" font-size="14" lengthAdjust="spacing" textLength="210" x="587.7861" y="198.3613">&#31532;&#20108;&#65292;&#35813;&#34892;&#20026;&#31526;&#21512;&#19977;&#32618;&#30340;&#26500;&#25104;&#35201;&#20214;</text><rect fill="#F1F1F1" height="37.6094" rx="12.5" ry="12.5" style="stroke:#181818;stroke-width:1.5;" width="90" x="857.7861" y="116.2188"/><text fill="#000000" font-family="sans-serif" font-size="14" lengthAdjust="spacing" textLength="70" x="867.7861" y="140.752">&#12302;&#30423;&#31363;&#32618;&#12303;</text><path d="M807.7861,192.6328 L817.7861,192.6328 C832.7861,192.6328 832.7861,135.0234 847.7861,135.0234 L857.7861,135.0234 " fill="none" style="stroke:#181818;stroke-width:1;"/><rect fill="#F1F1F1" height="37.6094" rx="12.5" ry="12.5" style="stroke:#181818;stroke-width:1.5;" width="90" x="857.7861" y="173.8281"/><text fill="#000000" font-family="sans-serif" font-size="14" lengthAdjust="spacing" textLength="70" x="867.7861" y="198.3613">&#12302;&#35784;&#39575;&#32618;&#12303;</text><path d="M807.7861,192.6328 L817.7861,192.6328 C832.7861,192.6328 832.7861,192.6328 847.7861,192.6328 L857.7861,192.6328 " fill="none" style="stroke:#181818;stroke-width:1;"/><rect fill="#F1F1F1" height="37.6094" rx="12.5" ry="12.5" style="stroke:#181818;stroke-width:1.5;" width="90" x="857.7861" y="231.4375"/><text fill="#000000" font-family="sans-serif" font-size="14" lengthAdjust="spacing" textLength="70" x="867.7861" y="255.9707">&#12302;&#25250;&#22842;&#32618;&#12303;</text><path d="M807.7861,192.6328 L817.7861,192.6328 C832.7861,192.6328 832.7861,250.2422 847.7861,250.2422 L857.7861,250.2422 " fill="none" style="stroke:#181818;stroke-width:1;"/><path d="M527.7861,163.8281 L537.7861,163.8281 C552.7861,163.8281 552.7861,192.6328 567.7861,192.6328 L577.7861,192.6328 " fill="none" style="stroke:#181818;stroke-width:1;"/><path d="M366,163.8281 L376,163.8281 C391,163.8281 391,163.8281 406,163.8281 L416,163.8281 " fill="none" style="stroke:#181818;stroke-width:1;"/><path d="M240,279.0469 L250,279.0469 C265,279.0469 265,163.8281 280,163.8281 L290,163.8281 " fill="none" style="stroke:#181818;stroke-width:1;"/><rect fill="#F1F1F1" height="37.6094" rx="12.5" ry="12.5" style="stroke:#181818;stroke-width:1.5;" width="76" x="290" y="346.6563"/><text fill="#000000" font-family="sans-serif" font-size="14" lengthAdjust="spacing" textLength="56" x="300" y="371.1895">&#19977;&#20010;&#30446;&#30340;</text><rect fill="#F1F1F1" height="37.6094" rx="12.5" ry="12.5" style="stroke:#181818;stroke-width:1.5;" width="178.6621" x="416" y="289.0469"/><text fill="#000000" font-family="sans-serif" font-size="14" lengthAdjust="spacing" textLength="158.6621" x="426" y="313.5801">&#31389;&#34255;&#36163;&#29289;&#65288;&#29289;-&#29359;&#32618;&#25152;&#24471;&#65289;</text><path d="M366,365.4609 L376,365.4609 C391,365.4609 391,307.8516 406,307.8516 L416,307.8516 " fill="none" style="stroke:#181818;stroke-width:1;"/><rect fill="#F1F1F1" height="37.6094" rx="12.5" ry="12.5" style="stroke:#181818;stroke-width:1.5;" width="164.6621" x="416" y="346.6563"/><text fill="#000000" font-family="sans-serif" font-size="14" lengthAdjust="spacing" textLength="144.6621" x="426" y="371.1895">&#25239;&#25298;&#25235;&#25429;&#65288;&#20154;-&#29359;&#32618;&#20154;&#65289;</text><path d="M366,365.4609 L376,365.4609 C391,365.4609 391,365.4609 406,365.4609 L416,365.4609 " fill="none" style="stroke:#181818;stroke-width:1;"/><rect fill="#F1F1F1" height="37.6094" rx="12.5" ry="12.5" style="stroke:#181818;stroke-width:1.5;" width="150.6621" x="416" y="404.2656"/><text fill="#000000" font-family="sans-serif" font-size="14" lengthAdjust="spacing" textLength="130.6621" x="426" y="428.7988">&#27585;&#28781;&#32618;&#35777;&#65288;&#29289;-&#35777;&#25454;&#65289;</text><path d="M366,365.4609 L376,365.4609 C391,365.4609 391,423.0703 406,423.0703 L416,423.0703 " fill="none" style="stroke:#181818;stroke-width:1;"/><path d="M240,279.0469 L250,279.0469 C265,279.0469 265,365.4609 280,365.4609 L290,365.4609 " fill="none" style="stroke:#181818;stroke-width:1;"/><rect fill="#F1F1F1" height="37.6094" rx="12.5" ry="12.5" style="stroke:#181818;stroke-width:1.5;" width="76" x="290" y="461.875"/><text fill="#000000" font-family="sans-serif" font-size="14" lengthAdjust="spacing" textLength="56" x="300" y="486.4082">&#23454;&#34892;&#34892;&#20026;</text><rect fill="#F1F1F1" height="37.6094" rx="12.5" ry="12.5" style="stroke:#181818;stroke-width:1.5;" width="202" x="416" y="461.875"/><text fill="#000000" font-family="sans-serif" font-size="14" lengthAdjust="spacing" textLength="182" x="426" y="486.4082">&#24403;&#22330;&#20351;&#29992;&#26292;&#21147;&#25110;&#20197;&#26292;&#21147;&#30456;&#23041;&#32961;</text><path d="M366,480.6797 L376,480.6797 C391,480.6797 391,480.6797 406,480.6797 L416,480.6797 " fill="none" style="stroke:#181818;stroke-width:1;"/><path d="M240,279.0469 L250,279.0469 C265,279.0469 265,480.6797 280,480.6797 L290,480.6797 " fill="none" style="stroke:#181818;stroke-width:1;"/><path d="M114,279.0469 L124,279.0469 C139,279.0469 139,279.0469 154,279.0469 L164,279.0469 " fill="none" style="stroke:#181818;stroke-width:1;"/><!--SRC=[xLTRJnj757xVNp5LNo2IpQK8HIYgY1rG6-4eYadUnxiJUyBkZ3KxwyYjAc6H9iQG13KjI251JPHR7GAgbBR8GFjZuhtqYR-Gixish5sMTTxw48IiyJdV-SwPSzlrj2cna0Pbce7BYl85PQfkQGIbqoFmRyggJaRAEcRIClIK3qi1BXN8qnHaYg98AdM2lFVFswtNRcFNFMoY578Qp-t6s_3SRgtOQm-ymsrxTJsKAygvqwG8_iuXfxxclbrndZvhx_yPY49nUs-vlTVq3lU1z5WSgkpw2sVzdVFhFVlUtQE3-lZHmN8F8aIvszljlSMZWrLlzwNtRBMzrx9__CjvilnXyK4qUFltBMVnzOV5Xp4KhTKeXRlzobwhGsnWwJw-uspTWV2zLxLexBqSuCxTt72RIs1ncfTZbBTR_xUvaOJoK_UYrOVgPilTt86W-hBbDfzw6m-zFvRSvTyWM_2P2c_kB2_QVs_q9myAqjXmLdvo6e-S-x-0GRlLwXZ0wHJqRisjlGEjjrlhqCF9kRyJXKBDThOWWs4I-yjv-CX-qceV_kF-_CPv_DvkR3hrzVR-o_3iRkxPRshUKarHfWcqRRTrftix-KBGeryh7S4bYei26-Xxy9Kkw1O9JWXbiBfG5DnYMfRhN22T5alIruFs1n-hOR4WY1O3xsYxuA8WX9t5700Yw6e2kDh5Se5PCIxeKDc5bYrHrkEWeR8BZRzOv5A2ct5iNyxEPZBPR1TP9RhERyTWGsK0LT86fco-H8mkyIndCa-_8-YhKSNN4wDSmYOratCPHO_6mCs5Qb3IA7Ryx5n6eHaGgILep862eKN61HcWhWZDKKRwvISK0xezayedOuohXCcutB2WA649Gb511qmVAmnF69igw77LJjII6rZoC7WcmHlb3ElPJyLU5QIC1VObds9siS25J6gxGRcaXBhBf4aRa2tB3HWt6TSE7SiuEhzyZ1IXea0QJUPPMokfaXeXvUX0z3gOWIrQqAbPYbzv4VjURxTBLFRd9iRD5IwJFGMtKgkO3N0h5Mj47Zl3gagr-9xlMSL9p3TX5Ct8VCDtbUJmBM8bJ3dN8GJ1jKW79inOroBmK-OcbRH2BggHSVZFEiSw6VGY9rU0Mk14QeF24zJV_OFqLESnw9ERLk4MKNtwkEpW2ZotYHYGjq8vJ510pPEO_RmFdEwJJTyxk6VFQayl9pv35FYuCD9v5VdyglpvLVb_yQfyrVz1TpqtXof4cFu664kFZuvFfCyFvR54LtW5ZKsYqR6fYOcfYKcKpSyZNpsi3EM-dKScjs018WtMWw05ov-POUKohc1qpO89CiWKyhyDpUU6KNwcAqGph485PmPCZNBvHYu4eM-up9Uv3C2J4waCbIXF18I5RkIKI-GcjdG9fYhNA2jEeUlpiwdpoXnCbuMBu0ZsMHR6JeegwF8V0G00]--></g></svg>