<svg xmlns="http://www.w3.org/2000/svg" xmlns:xlink="http://www.w3.org/1999/xlink" contentStyleType="text/css" height="1751px" preserveAspectRatio="none" style="width:1928px;height:1751px;background:#FFFFFF;" version="1.1" viewBox="0 0 1928 1751" width="1928px" zoomAndPan="magnify"><title>&#36130;&#20135;&#29359;&#32618; - &#25250;&#21163;&#32618; - &#20107;&#21518;&#36716;&#21270;&#25250;&#21163;</title><defs/><g><text fill="#000000" font-family="sans-serif" font-size="14" font-weight="bold" lengthAdjust="spacing" textLength="212.5703" x="856.6699" y="34.5332">&#36130;&#20135;&#29359;&#32618; - &#25250;&#21163;&#32618; - &#20107;&#21518;&#36716;&#21270;&#25250;&#21163;</text><rect fill="#F1F1F1" height="37.6094" rx="12.5" ry="12.5" style="stroke:#181818;stroke-width:1.5;" width="104" x="10" y="875.1563"/><text fill="#000000" font-family="sans-serif" font-size="14" lengthAdjust="spacing" textLength="84" x="20" y="899.6895">&#20107;&#21518;&#36716;&#21270;&#25250;&#21163;</text><rect fill="#F1F1F1" height="37.6094" rx="12.5" ry="12.5" style="stroke:#181818;stroke-width:1.5;" width="132" x="164" y="202.6328"/><text fill="#000000" font-family="sans-serif" font-size="14" lengthAdjust="spacing" textLength="112" x="174" y="227.166">&#12302;&#36130;&#20135;&#29359;&#32618;&#23646;&#24615;&#12303;</text><rect fill="#F1F1F1" height="37.6094" rx="12.5" ry="12.5" style="stroke:#181818;stroke-width:1.5;" width="48" x="346" y="116.2188"/><text fill="#000000" font-family="sans-serif" font-size="14" lengthAdjust="spacing" textLength="28" x="356" y="140.752">&#27491;&#30830;</text><rect fill="#F1F1F1" height="37.6094" rx="12.5" ry="12.5" style="stroke:#181818;stroke-width:1.5;" width="132" x="444" y="58.6094"/><text fill="#000000" font-family="sans-serif" font-size="14" lengthAdjust="spacing" textLength="112" x="454" y="83.1426">&#30423;&#20240;&#26641;&#26408;&#65288;&#30423;&#31363;&#65289;</text><path d="M394,135.0234 L404,135.0234 C419,135.0234 419,77.4141 434,77.4141 L444,77.4141 " fill="none" style="stroke:#181818;stroke-width:1;"/><rect fill="#F1F1F1" height="37.6094" rx="12.5" ry="12.5" style="stroke:#181818;stroke-width:1.5;" width="146" x="444" y="116.2188"/><text fill="#000000" font-family="sans-serif" font-size="14" lengthAdjust="spacing" textLength="126" x="454" y="140.752">&#20449;&#29992;&#21345;&#35784;&#39575;&#65288;&#35784;&#39575;&#65289;</text><path d="M394,135.0234 L404,135.0234 C419,135.0234 419,135.0234 434,135.0234 L444,135.0234 " fill="none" style="stroke:#181818;stroke-width:1;"/><rect fill="#F1F1F1" height="37.6094" rx="12.5" ry="12.5" style="stroke:#181818;stroke-width:1.5;" width="132" x="444" y="173.8281"/><text fill="#000000" font-family="sans-serif" font-size="14" lengthAdjust="spacing" textLength="112" x="454" y="198.3613">&#20351;&#29992;&#20551;&#24065;&#65288;&#35784;&#39575;&#65289;</text><path d="M394,135.0234 L404,135.0234 C419,135.0234 419,192.6328 434,192.6328 L444,192.6328 " fill="none" style="stroke:#181818;stroke-width:1;"/><path d="M296,221.4375 L306,221.4375 C321,221.4375 321,135.0234 336,135.0234 L346,135.0234 " fill="none" style="stroke:#181818;stroke-width:1;"/><rect fill="#F1F1F1" height="37.6094" rx="12.5" ry="12.5" style="stroke:#181818;stroke-width:1.5;" width="48" x="346" y="289.0469"/><text fill="#000000" font-family="sans-serif" font-size="14" lengthAdjust="spacing" textLength="28" x="356" y="313.5801">&#38169;&#35823;</text><rect fill="#F1F1F1" height="37.6094" rx="12.5" ry="12.5" style="stroke:#181818;stroke-width:1.5;" width="132" x="444" y="231.4375"/><text fill="#000000" font-family="sans-serif" font-size="14" lengthAdjust="spacing" textLength="112" x="454" y="255.9707">&#30423;&#31363;&#23608;&#20307;&#65288;&#30423;&#31363;&#65289;</text><path d="M394,307.8516 L404,307.8516 C419,307.8516 419,250.2422 434,250.2422 L444,250.2422 " fill="none" style="stroke:#181818;stroke-width:1;"/><rect fill="#F1F1F1" height="37.6094" rx="12.5" ry="12.5" style="stroke:#181818;stroke-width:1.5;" width="132" x="444" y="289.0469"/><text fill="#000000" font-family="sans-serif" font-size="14" lengthAdjust="spacing" textLength="112" x="454" y="313.5801">&#25307;&#25671;&#25758;&#39575;&#65288;&#35784;&#39575;&#65289;</text><path d="M394,307.8516 L404,307.8516 C419,307.8516 419,307.8516 434,307.8516 L444,307.8516 " fill="none" style="stroke:#181818;stroke-width:1;"/><rect fill="#F1F1F1" height="37.6094" rx="12.5" ry="12.5" style="stroke:#181818;stroke-width:1.5;" width="160" x="444" y="346.6563"/><text fill="#000000" font-family="sans-serif" font-size="14" lengthAdjust="spacing" textLength="140" x="454" y="371.1895">&#25250;&#22842;&#22269;&#26377;&#26723;&#26696;&#65288;&#25250;&#22842;&#65289;</text><path d="M394,307.8516 L404,307.8516 C419,307.8516 419,365.4609 434,365.4609 L444,365.4609 " fill="none" style="stroke:#181818;stroke-width:1;"/><path d="M296,221.4375 L306,221.4375 C321,221.4375 321,307.8516 336,307.8516 L346,307.8516 " fill="none" style="stroke:#181818;stroke-width:1;"/><path d="M114,893.9609 L124,893.9609 C139,893.9609 139,221.4375 154,221.4375 L164,221.4375 " fill="none" style="stroke:#181818;stroke-width:1;"/><rect fill="#F1F1F1" height="37.6094" rx="12.5" ry="12.5" style="stroke:#181818;stroke-width:1.5;" width="118" x="164" y="490.6797"/><text fill="#000000" font-family="sans-serif" font-size="14" lengthAdjust="spacing" textLength="98" x="174" y="515.2129">&#20351;&#29992;&#26292;&#21147;&#30340;&#30446;&#30340;</text><rect fill="#F1F1F1" height="37.6094" rx="12.5" ry="12.5" style="stroke:#181818;stroke-width:1.5;" width="76" x="332" y="404.2656"/><text fill="#000000" font-family="sans-serif" font-size="14" lengthAdjust="spacing" textLength="56" x="342" y="428.7988">&#27491;&#24120;&#25250;&#21163;</text><rect fill="#F1F1F1" height="37.6094" rx="12.5" ry="12.5" style="stroke:#181818;stroke-width:1.5;" width="104" x="458" y="404.2656"/><text fill="#000000" font-family="sans-serif" font-size="14" lengthAdjust="spacing" textLength="84" x="468" y="428.7988">&#32487;&#32493;&#21462;&#24471;&#36130;&#29289;</text><path d="M408,423.0703 L418,423.0703 C433,423.0703 433,423.0703 448,423.0703 L458,423.0703 " fill="none" style="stroke:#181818;stroke-width:1;"/><path d="M282,509.4844 L292,509.4844 C307,509.4844 307,423.0703 322,423.0703 L332,423.0703 " fill="none" style="stroke:#181818;stroke-width:1;"/><rect fill="#F1F1F1" height="37.6094" rx="12.5" ry="12.5" style="stroke:#181818;stroke-width:1.5;" width="90" x="332" y="519.4844"/><text fill="#000000" font-family="sans-serif" font-size="14" lengthAdjust="spacing" textLength="70" x="342" y="544.0176">&#36716;&#21270;&#22411;&#25250;&#21163;</text><rect fill="#F1F1F1" height="37.6094" rx="12.5" ry="12.5" style="stroke:#181818;stroke-width:1.5;" width="76" x="472" y="461.875"/><text fill="#000000" font-family="sans-serif" font-size="14" lengthAdjust="spacing" textLength="56" x="482" y="486.4082">&#31389;&#34255;&#36163;&#29289;</text><path d="M422,538.2891 L432,538.2891 C447,538.2891 447,480.6797 462,480.6797 L472,480.6797 " fill="none" style="stroke:#181818;stroke-width:1;"/><rect fill="#F1F1F1" height="37.6094" rx="12.5" ry="12.5" style="stroke:#181818;stroke-width:1.5;" width="76" x="472" y="519.4844"/><text fill="#000000" font-family="sans-serif" font-size="14" lengthAdjust="spacing" textLength="56" x="482" y="544.0176">&#25239;&#25298;&#25235;&#25429;</text><path d="M422,538.2891 L432,538.2891 C447,538.2891 447,538.2891 462,538.2891 L472,538.2891 " fill="none" style="stroke:#181818;stroke-width:1;"/><rect fill="#F1F1F1" height="37.6094" rx="12.5" ry="12.5" style="stroke:#181818;stroke-width:1.5;" width="76" x="472" y="577.0938"/><text fill="#000000" font-family="sans-serif" font-size="14" lengthAdjust="spacing" textLength="56" x="482" y="601.627">&#27585;&#28781;&#32618;&#35777;</text><path d="M422,538.2891 L432,538.2891 C447,538.2891 447,595.8984 462,595.8984 L472,595.8984 " fill="none" style="stroke:#181818;stroke-width:1;"/><path d="M282,509.4844 L292,509.4844 C307,509.4844 307,538.2891 322,538.2891 L332,538.2891 " fill="none" style="stroke:#181818;stroke-width:1;"/><path d="M114,893.9609 L124,893.9609 C139,893.9609 139,509.4844 154,509.4844 L164,509.4844 " fill="none" style="stroke:#181818;stroke-width:1;"/><rect fill="#F1F1F1" height="37.6094" rx="12.5" ry="12.5" style="stroke:#181818;stroke-width:1.5;" width="202" x="164" y="1163.2031"/><text fill="#000000" font-family="sans-serif" font-size="14" lengthAdjust="spacing" textLength="182" x="174" y="1187.7363">&#24403;&#22330;&#20351;&#29992;&#26292;&#21147;&#25110;&#20197;&#26292;&#21147;&#30456;&#23041;&#32961;</text><rect fill="#F1F1F1" height="37.6094" rx="12.5" ry="12.5" style="stroke:#181818;stroke-width:1.5;" width="48" x="416" y="668.6484"/><text fill="#000000" font-family="sans-serif" font-size="14" lengthAdjust="spacing" textLength="28" x="426" y="693.1816">&#24403;&#22330;</text><rect fill="#F1F1F1" height="42.75" rx="12.5" ry="12.5" style="stroke:#181818;stroke-width:1.5;" width="72.8896" x="514" y="634.7031"/><text fill="#000000" font-family="sans-serif" font-size="14" lengthAdjust="spacing" textLength="28" x="524" y="664.377">&#31354;&#38388;</text><path d="M568.4506,655.2043 L575.5876,648.0678 C576.157,647.4985 576.157,646.575 575.5876,646.0057 C575.0177,645.4358 574.0949,645.4358 573.5256,646.0057 L566.3885,653.1422 L559.252,646.0057 C558.6826,645.4358 557.7586,645.4358 557.1899,646.0057 C556.62,646.575 556.62,647.4985 557.1899,648.0678 L564.3264,655.2043 L557.1736,662.3577 C556.6036,662.9276 556.6036,663.8505 557.1736,664.4198 C557.4582,664.7045 557.8316,664.8468 558.2049,664.8468 C558.5782,664.8468 558.9516,664.7045 559.2362,664.4198 L566.3891,657.2664 L573.5256,664.4029 C573.8102,664.6875 574.1836,664.8299 574.5569,664.8299 C574.9302,664.8299 575.303,664.6875 575.5882,664.4029 C576.1576,663.833 576.1576,662.9101 575.5882,662.3408 L568.4506,655.2043 " fill="#FE0000" style="stroke:;stroke-width:0;stroke-dasharray:;"/><path d="M464,687.4531 L474,687.4531 C489,687.4531 489,656.0781 504,656.0781 L514,656.0781 " fill="none" style="stroke:#181818;stroke-width:1;"/><rect fill="#F1F1F1" height="42.75" rx="12.5" ry="12.5" style="stroke:#181818;stroke-width:1.5;" width="72.8896" x="514" y="697.4531"/><text fill="#000000" font-family="sans-serif" font-size="14" lengthAdjust="spacing" textLength="28" x="524" y="727.127">&#26102;&#38388;</text><path d="M575.9907,708.2552 C575.1793,707.729 574.0961,707.96 573.5705,708.7709 L563.7646,723.8856 L558.9825,719.464 C558.2726,718.8077 557.166,718.8509 556.5097,719.5608 C555.8535,720.2701 555.8966,721.3779 556.6066,722.0335 L562.8856,727.8389 C563.0658,727.994 563.0658,727.994 563.1492,728.0483 C563.4432,728.2396 563.7734,728.3306 564.1001,728.3306 C564.6729,728.3306 565.2346,728.0495 565.5701,727.5326 L576.5064,710.6755 C577.0326,709.8646 576.8016,708.7808 575.9907,708.2552 " fill="#FE0000" style="stroke:;stroke-width:0;stroke-dasharray:;"/><rect fill="#F1F1F1" height="37.6094" rx="12.5" ry="12.5" style="stroke:#181818;stroke-width:1.5;" width="160" x="636.8896" y="700.0234"/><text fill="#000000" font-family="sans-serif" font-size="14" lengthAdjust="spacing" textLength="140" x="646.8896" y="724.5566">&#26102;&#38388;&#19978;&#20855;&#26377;&#32039;&#23494;&#32852;&#31995;&#24615;</text><path d="M586.8896,718.8281 L596.8896,718.8281 C611.8896,718.8281 611.8896,718.8281 626.8896,718.8281 L636.8896,718.8281 " fill="none" style="stroke:#181818;stroke-width:1;"/><path d="M464,687.4531 L474,687.4531 C489,687.4531 489,718.8281 504,718.8281 L514,718.8281 " fill="none" style="stroke:#181818;stroke-width:1;"/><path d="M366,1182.0078 L376,1182.0078 C391,1182.0078 391,687.4531 406,687.4531 L416,687.4531 " fill="none" style="stroke:#181818;stroke-width:1;"/><rect fill="#F1F1F1" height="37.6094" rx="12.5" ry="12.5" style="stroke:#181818;stroke-width:1.5;" width="48" x="416" y="898.8203"/><text fill="#000000" font-family="sans-serif" font-size="14" lengthAdjust="spacing" textLength="28" x="426" y="923.3535">&#26041;&#24335;</text><rect fill="#F1F1F1" height="37.6094" rx="12.5" ry="12.5" style="stroke:#181818;stroke-width:1.5;" width="76" x="514" y="807.2656"/><text fill="#000000" font-family="sans-serif" font-size="14" lengthAdjust="spacing" textLength="56" x="524" y="831.7988">&#20351;&#29992;&#26292;&#21147;</text><rect fill="#F1F1F1" height="42.75" rx="12.5" ry="12.5" style="stroke:#181818;stroke-width:1.5;" width="128.8896" x="640" y="760.2031"/><text fill="#000000" font-family="sans-serif" font-size="14" lengthAdjust="spacing" textLength="84" x="650" y="789.877">&#25925;&#24847;&#20351;&#29992;&#26292;&#21147;</text><path d="M757.9907,771.0052 C757.1793,770.479 756.0961,770.71 755.5705,771.5209 L745.7646,786.6356 L740.9825,782.214 C740.2726,781.5577 739.166,781.6009 738.5097,782.3108 C737.8535,783.0201 737.8966,784.1279 738.6066,784.7835 L744.8856,790.5889 C745.0658,790.744 745.0658,790.744 745.1492,790.7983 C745.4432,790.9896 745.7734,791.0806 746.1001,791.0806 C746.6729,791.0806 747.2346,790.7995 747.5701,790.2826 L758.5064,773.4255 C759.0326,772.6146 758.8016,771.5308 757.9907,771.0052 " fill="#FE0000" style="stroke:;stroke-width:0;stroke-dasharray:;"/><path d="M590,826.0703 L600,826.0703 C615,826.0703 615,781.5781 630,781.5781 L640,781.5781 " fill="none" style="stroke:#181818;stroke-width:1;"/><rect fill="#F1F1F1" height="42.75" rx="12.5" ry="12.5" style="stroke:#181818;stroke-width:1.5;" width="170.8896" x="640" y="822.9531"/><text fill="#000000" font-family="sans-serif" font-size="14" lengthAdjust="spacing" textLength="126" x="650" y="852.627">&#19981;&#26159;&#25925;&#24847;&#30340;&#36896;&#25104;&#20260;&#23475;</text><path d="M792.4506,843.4543 L799.5876,836.3178 C800.157,835.7485 800.157,834.825 799.5876,834.2557 C799.0177,833.6858 798.0949,833.6858 797.5256,834.2557 L790.3885,841.3922 L783.252,834.2557 C782.6826,833.6858 781.7586,833.6858 781.1899,834.2557 C780.62,834.825 780.62,835.7485 781.1899,836.3178 L788.3264,843.4543 L781.1736,850.6077 C780.6036,851.1776 780.6036,852.1005 781.1736,852.6698 C781.4582,852.9545 781.8316,853.0968 782.2049,853.0968 C782.5782,853.0968 782.9516,852.9545 783.2362,852.6698 L790.3891,845.5164 L797.5256,852.6529 C797.8102,852.9375 798.1836,853.0799 798.5569,853.0799 C798.9302,853.0799 799.303,852.9375 799.5882,852.6529 C800.1576,852.083 800.1576,851.1601 799.5882,850.5908 L792.4506,843.4543 " fill="#FE0000" style="stroke:;stroke-width:0;stroke-dasharray:;"/><rect fill="#F1F1F1" height="37.6094" rx="12.5" ry="12.5" style="stroke:#181818;stroke-width:1.5;" width="332.6963" x="860.8896" y="796.7188"/><text fill="#000000" font-family="sans-serif" font-size="14" lengthAdjust="spacing" textLength="312.6963" x="870.8896" y="821.252">&#23567;&#20599;&#36328;&#36234;&#26639;&#26438;&#65292;&#26639;&#26438;&#20498;&#22604;&#65292;&#30776;&#20260;&#36130;&#29289;&#20027;&#20154;&#65288;P255&#65289;</text><path d="M810.8896,844.3281 L820.8896,844.3281 C835.8896,844.3281 835.8896,815.5234 850.8896,815.5234 L860.8896,815.5234 " fill="none" style="stroke:#181818;stroke-width:1;"/><rect fill="#F1F1F1" height="37.6094" rx="12.5" ry="12.5" style="stroke:#181818;stroke-width:1.5;" width="374.6963" x="860.8896" y="854.3281"/><text fill="#000000" font-family="sans-serif" font-size="14" lengthAdjust="spacing" textLength="354.6963" x="870.8896" y="878.8613">&#39134;&#36710;&#25250;&#22842;&#65292;&#36710;&#36711;&#21040;&#30707;&#23376;&#65292;&#30707;&#23376;&#24377;&#36215;&#30776;&#20260;&#36130;&#29289;&#20027;&#20154;&#65288;P255&#65289;</text><path d="M810.8896,844.3281 L820.8896,844.3281 C835.8896,844.3281 835.8896,873.1328 850.8896,873.1328 L860.8896,873.1328 " fill="none" style="stroke:#181818;stroke-width:1;"/><path d="M590,826.0703 L600,826.0703 C615,826.0703 615,844.3281 630,844.3281 L640,844.3281 " fill="none" style="stroke:#181818;stroke-width:1;"/><path d="M464,917.625 L474,917.625 C489,917.625 489,826.0703 504,826.0703 L514,826.0703 " fill="none" style="stroke:#181818;stroke-width:1;"/><rect fill="#F1F1F1" height="37.6094" rx="12.5" ry="12.5" style="stroke:#181818;stroke-width:1.5;" width="104" x="514" y="974.6875"/><text fill="#000000" font-family="sans-serif" font-size="14" lengthAdjust="spacing" textLength="84" x="524" y="999.2207">&#20197;&#26292;&#21147;&#30456;&#23041;&#32961;</text><rect fill="#F1F1F1" height="37.6094" rx="12.5" ry="12.5" style="stroke:#181818;stroke-width:1.5;" width="412" x="668" y="911.9375"/><text fill="#000000" font-family="sans-serif" font-size="14" lengthAdjust="spacing" textLength="392" x="678" y="936.4707">&#12302;&#34892;&#20026;&#20154;&#12303;&#20197;&#26045;&#21152;&#26292;&#21147;&#30456;&#36890;&#21578;&#65292;&#20197;&#27492;&#20351;&#12302;&#25235;&#25429;&#32773;&#12303;&#20135;&#29983;&#24656;&#24807;&#24515;&#29702;</text><path d="M618,993.4922 L628,993.4922 C643,993.4922 643,930.7422 658,930.7422 L668,930.7422 " fill="none" style="stroke:#181818;stroke-width:1;"/><rect fill="#F1F1F1" height="37.6094" rx="12.5" ry="12.5" style="stroke:#181818;stroke-width:1.5;" width="48" x="668" y="1003.4922"/><text fill="#000000" font-family="sans-serif" font-size="14" lengthAdjust="spacing" textLength="28" x="678" y="1028.0254">&#21453;&#20363;</text><rect fill="#F1F1F1" height="42.75" rx="12.5" ry="12.5" style="stroke:#181818;stroke-width:1.5;" width="273.5859" x="766" y="969.5469"/><text fill="#000000" font-family="sans-serif" font-size="14" lengthAdjust="spacing" textLength="228.6963" x="776" y="999.2207">&#23567;&#20599;&#23545;&#33258;&#24049;&#26045;&#21152;&#24694;&#23475;&#30456;&#23041;&#32961;&#65288;P255&#65289;</text><path d="M1021.1469,990.048 L1028.2839,982.9115 C1028.8533,982.3422 1028.8533,981.4188 1028.2839,980.8495 C1027.714,980.2795 1026.7912,980.2795 1026.2219,980.8495 L1019.0848,987.986 L1011.9483,980.8495 C1011.3789,980.2795 1010.4549,980.2795 1009.8862,980.8495 C1009.3163,981.4188 1009.3163,982.3422 1009.8862,982.9115 L1017.0227,990.048 L1009.8699,997.2015 C1009.2999,997.7714 1009.2999,998.6942 1009.8699,999.2635 C1010.1545,999.5482 1010.5279,999.6905 1010.9012,999.6905 C1011.2745,999.6905 1011.6479,999.5482 1011.9325,999.2635 L1019.0854,992.1101 L1026.2219,999.2466 C1026.5065,999.5313 1026.8799,999.6736 1027.2532,999.6736 C1027.6265,999.6736 1027.9993,999.5313 1028.2845,999.2466 C1028.8539,998.6767 1028.8539,997.7539 1028.2845,997.1845 L1021.1469,990.048 " fill="#FE0000" style="stroke:;stroke-width:0;stroke-dasharray:;"/><path d="M716,1022.2969 L726,1022.2969 C741,1022.2969 741,990.9219 756,990.9219 L766,990.9219 " fill="none" style="stroke:#181818;stroke-width:1;"/><rect fill="#F1F1F1" height="42.75" rx="12.5" ry="12.5" style="stroke:#181818;stroke-width:1.5;" width="343.5859" x="766" y="1032.2969"/><text fill="#000000" font-family="sans-serif" font-size="14" lengthAdjust="spacing" textLength="298.6963" x="776" y="1061.9707">&#20197;&#38750;&#26292;&#21147;&#25163;&#27573;&#30456;&#23041;&#32961;&#65292;&#20363;&#22914;&#20030;&#25253;&#12289;&#21578;&#21457;&#65288;P255&#65289;</text><path d="M1091.1469,1052.798 L1098.2839,1045.6615 C1098.8533,1045.0922 1098.8533,1044.1688 1098.2839,1043.5995 C1097.714,1043.0295 1096.7912,1043.0295 1096.2219,1043.5995 L1089.0848,1050.736 L1081.9483,1043.5995 C1081.3789,1043.0295 1080.4549,1043.0295 1079.8862,1043.5995 C1079.3163,1044.1688 1079.3163,1045.0922 1079.8862,1045.6615 L1087.0227,1052.798 L1079.8699,1059.9515 C1079.2999,1060.5214 1079.2999,1061.4442 1079.8699,1062.0135 C1080.1545,1062.2982 1080.5279,1062.4405 1080.9012,1062.4405 C1081.2745,1062.4405 1081.6479,1062.2982 1081.9325,1062.0135 L1089.0854,1054.8601 L1096.2219,1061.9966 C1096.5065,1062.2813 1096.8799,1062.4236 1097.2532,1062.4236 C1097.6265,1062.4236 1097.9993,1062.2813 1098.2845,1061.9966 C1098.8539,1061.4267 1098.8539,1060.5039 1098.2845,1059.9345 L1091.1469,1052.798 " fill="#FE0000" style="stroke:;stroke-width:0;stroke-dasharray:;"/><path d="M716,1022.2969 L726,1022.2969 C741,1022.2969 741,1053.6719 756,1053.6719 L766,1053.6719 " fill="none" style="stroke:#181818;stroke-width:1;"/><path d="M618,993.4922 L628,993.4922 C643,993.4922 643,1022.2969 658,1022.2969 L668,1022.2969 " fill="none" style="stroke:#181818;stroke-width:1;"/><path d="M464,917.625 L474,917.625 C489,917.625 489,993.4922 504,993.4922 L514,993.4922 " fill="none" style="stroke:#181818;stroke-width:1;"/><path d="M366,1182.0078 L376,1182.0078 C391,1182.0078 391,917.625 406,917.625 L416,917.625 " fill="none" style="stroke:#181818;stroke-width:1;"/><rect fill="#F1F1F1" height="37.6094" rx="12.5" ry="12.5" style="stroke:#181818;stroke-width:1.5;" width="132" x="416" y="1333.1953"/><text fill="#000000" font-family="sans-serif" font-size="14" lengthAdjust="spacing" textLength="112" x="426" y="1357.7285">&#26292;&#21147;&#12289;&#23041;&#32961;&#30340;&#23545;&#35937;</text><rect fill="#F1F1F1" height="37.6094" rx="12.5" ry="12.5" style="stroke:#181818;stroke-width:1.5;" width="48" x="598" y="1160.3672"/><text fill="#000000" font-family="sans-serif" font-size="14" lengthAdjust="spacing" textLength="28" x="608" y="1184.9004">&#23545;&#35937;</text><rect fill="#F1F1F1" height="42.75" rx="12.5" ry="12.5" style="stroke:#181818;stroke-width:1.5;" width="86.8896" x="696" y="1095.0469"/><text fill="#000000" font-family="sans-serif" font-size="14" lengthAdjust="spacing" textLength="42" x="706" y="1124.7207">&#34987;&#23475;&#20154;</text><path d="M771.9907,1105.849 C771.1793,1105.3228 770.0961,1105.5538 769.5705,1106.3646 L759.7646,1121.4794 L754.9825,1117.0577 C754.2726,1116.4015 753.166,1116.4446 752.5097,1117.1545 C751.8535,1117.8639 751.8966,1118.9716 752.6066,1119.6273 L758.8856,1125.4326 C759.0658,1125.5878 759.0658,1125.5878 759.1492,1125.642 C759.4432,1125.8334 759.7734,1125.9244 760.1001,1125.9244 C760.6729,1125.9244 761.2346,1125.6432 761.5701,1125.1264 L772.5064,1108.2692 C773.0326,1107.4584 772.8016,1106.3745 771.9907,1105.849 " fill="#FE0000" style="stroke:;stroke-width:0;stroke-dasharray:;"/><path d="M646,1179.1719 L656,1179.1719 C671,1179.1719 671,1116.4219 686,1116.4219 L696,1116.4219 " fill="none" style="stroke:#181818;stroke-width:1;"/><rect fill="#F1F1F1" height="42.75" rx="12.5" ry="12.5" style="stroke:#181818;stroke-width:1.5;" width="114.8896" x="696" y="1157.7969"/><text fill="#000000" font-family="sans-serif" font-size="14" lengthAdjust="spacing" textLength="70" x="706" y="1187.4707">&#20854;&#20182;&#25235;&#25429;&#20154;</text><path d="M799.9907,1168.599 C799.1793,1168.0728 798.0961,1168.3038 797.5705,1169.1146 L787.7646,1184.2294 L782.9825,1179.8077 C782.2726,1179.1515 781.166,1179.1946 780.5097,1179.9045 C779.8535,1180.6139 779.8966,1181.7216 780.6066,1182.3773 L786.8856,1188.1826 C787.0658,1188.3378 787.0658,1188.3378 787.1492,1188.392 C787.4432,1188.5834 787.7734,1188.6744 788.1001,1188.6744 C788.6729,1188.6744 789.2346,1188.3932 789.5701,1187.8764 L800.5064,1171.0192 C801.0326,1170.2084 800.8016,1169.1245 799.9907,1168.599 " fill="#FE0000" style="stroke:;stroke-width:0;stroke-dasharray:;"/><path d="M646,1179.1719 L656,1179.1719 C671,1179.1719 671,1179.1719 686,1179.1719 L696,1179.1719 " fill="none" style="stroke:#181818;stroke-width:1;"/><rect fill="#F1F1F1" height="42.75" rx="12.5" ry="12.5" style="stroke:#181818;stroke-width:1.5;" width="184.8896" x="696" y="1220.5469"/><text fill="#000000" font-family="sans-serif" font-size="14" lengthAdjust="spacing" textLength="140" x="706" y="1250.2207">&#19981;&#21253;&#25324;&#21160;&#29289;&#65288;&#30475;&#38376;&#29399;&#65289;</text><path d="M862.4506,1241.048 L869.5876,1233.9115 C870.157,1233.3422 870.157,1232.4188 869.5876,1231.8495 C869.0177,1231.2795 868.0949,1231.2795 867.5256,1231.8495 L860.3885,1238.986 L853.252,1231.8495 C852.6826,1231.2795 851.7586,1231.2795 851.1899,1231.8495 C850.62,1232.4188 850.62,1233.3422 851.1899,1233.9115 L858.3264,1241.048 L851.1736,1248.2015 C850.6036,1248.7714 850.6036,1249.6942 851.1736,1250.2635 C851.4582,1250.5482 851.8316,1250.6905 852.2049,1250.6905 C852.5782,1250.6905 852.9516,1250.5482 853.2362,1250.2635 L860.3891,1243.1101 L867.5256,1250.2466 C867.8102,1250.5313 868.1836,1250.6736 868.5569,1250.6736 C868.9302,1250.6736 869.303,1250.5313 869.5882,1250.2466 C870.1576,1249.6767 870.1576,1248.7539 869.5882,1248.1845 L862.4506,1241.048 " fill="#FE0000" style="stroke:;stroke-width:0;stroke-dasharray:;"/><path d="M646,1179.1719 L656,1179.1719 C671,1179.1719 671,1241.9219 686,1241.9219 L696,1241.9219 " fill="none" style="stroke:#181818;stroke-width:1;"/><path d="M548,1352 L558,1352 C573,1352 573,1179.1719 588,1179.1719 L598,1179.1719 " fill="none" style="stroke:#181818;stroke-width:1;"/><rect fill="#F1F1F1" height="37.6094" rx="12.5" ry="12.5" style="stroke:#181818;stroke-width:1.5;" width="76" x="598" y="1427.3203"/><text fill="#000000" font-family="sans-serif" font-size="14" lengthAdjust="spacing" textLength="56" x="608" y="1451.8535">&#35748;&#35782;&#38169;&#35823;</text><rect fill="#F1F1F1" height="37.6094" rx="12.5" ry="12.5" style="stroke:#181818;stroke-width:1.5;" width="76" x="724" y="1369.7109"/><text fill="#000000" font-family="sans-serif" font-size="14" lengthAdjust="spacing" textLength="56" x="734" y="1394.2441">&#23545;&#35937;&#38169;&#35823;</text><rect fill="#F1F1F1" height="37.6094" rx="12.5" ry="12.5" style="stroke:#181818;stroke-width:1.5;" width="230" x="850" y="1369.7109"/><text fill="#000000" font-family="sans-serif" font-size="14" lengthAdjust="spacing" textLength="210" x="860" y="1394.2441">&#23558;&#36335;&#20154;&#35823;&#35748;&#20026;&#36130;&#29289;&#20027;&#20154;&#65292;&#23454;&#26045;&#26292;&#21147;</text><rect fill="#F1F1F1" height="42.75" rx="12.5" ry="12.5" style="stroke:#181818;stroke-width:1.5;" width="161.5859" x="1130" y="1367.1406"/><text fill="#000000" font-family="sans-serif" font-size="14" lengthAdjust="spacing" textLength="116.6963" x="1140" y="1396.8145">&#35266;&#28857;&#23637;&#31034;&#65288;P255&#65289;</text><path d="M1268.1693,1396.974 C1268.1693,1398.1406 1268.1693,1398.1406 1267.0026,1398.1406 C1265.8359,1398.1406 1265.8359,1396.974 1265.8359,1396.974 L1265.8359,1378.3073 C1265.8359,1377.1406 1265.8359,1377.1406 1267.0026,1377.1406 C1268.1693,1377.1406 1268.1693,1378.3073 1268.1693,1378.3073 L1268.1693,1396.974 " fill="#66757F" style="stroke:;stroke-width:0;stroke-dasharray:;"/><path d="M1267.0026,1379.474 C1267.0026,1378.1906 1267.9569,1377.5781 1269.1236,1378.113 L1278.881,1382.5855 C1280.0477,1383.1204 1280.0477,1383.9954 1278.881,1384.5297 L1269.1236,1389.0021 C1267.9569,1389.5365 1267.0026,1388.924 1267.0026,1387.6406 L1267.0026,1379.474 " fill="#DD2E44" style="stroke:;stroke-width:0;stroke-dasharray:;"/><rect fill="#F1F1F1" height="37.6094" rx="12.5" ry="12.5" style="stroke:#181818;stroke-width:1.5;" width="62" x="1341.5859" y="1312.1016"/><text fill="#000000" font-family="sans-serif" font-size="14" lengthAdjust="spacing" textLength="42" x="1351.5859" y="1336.6348">&#22810;&#25968;&#35828;</text><rect fill="#F1F1F1" height="37.6094" rx="12.5" ry="12.5" style="stroke:#181818;stroke-width:1.5;" width="62" x="1453.5859" y="1283.2969"/><text fill="#000000" font-family="sans-serif" font-size="14" lengthAdjust="spacing" textLength="42" x="1463.5859" y="1307.8301">&#19981;&#26500;&#25104;</text><path d="M1403.5859,1330.9063 L1413.5859,1330.9063 C1428.5859,1330.9063 1428.5859,1302.1016 1443.5859,1302.1016 L1453.5859,1302.1016 " fill="none" style="stroke:#181818;stroke-width:1;"/><rect fill="#F1F1F1" height="37.6094" rx="12.5" ry="12.5" style="stroke:#181818;stroke-width:1.5;" width="463.3242" x="1453.5859" y="1340.9063"/><text fill="#000000" font-family="sans-serif" font-size="14" lengthAdjust="spacing" textLength="443.3242" x="1463.5859" y="1365.4395">&#29702;&#30001;&#65306;&#8220;&#20026;&#25239;&#25298;&#25235;&#25429;&#32780;&#23454;&#26045;&#26292;&#21147;&#8221;&#38656;&#35201;&#20027;&#23458;&#35266;&#19968;&#33268;&#65292;&#35201;&#27714;&#23384;&#22312;&#29616;&#23454;&#30340;&#25235;&#25429;&#32773;</text><path d="M1403.5859,1330.9063 L1413.5859,1330.9063 C1428.5859,1330.9063 1428.5859,1359.7109 1443.5859,1359.7109 L1453.5859,1359.7109 " fill="none" style="stroke:#181818;stroke-width:1;"/><path d="M1291.5859,1388.5156 L1301.5859,1388.5156 C1316.5859,1388.5156 1316.5859,1330.9063 1331.5859,1330.9063 L1341.5859,1330.9063 " fill="none" style="stroke:#181818;stroke-width:1;"/><rect fill="#F1F1F1" height="37.6094" rx="12.5" ry="12.5" style="stroke:#181818;stroke-width:1.5;" width="62" x="1341.5859" y="1427.3203"/><text fill="#000000" font-family="sans-serif" font-size="14" lengthAdjust="spacing" textLength="42" x="1351.5859" y="1451.8535">&#23569;&#25968;&#35828;</text><rect fill="#F1F1F1" height="37.6094" rx="12.5" ry="12.5" style="stroke:#181818;stroke-width:1.5;" width="48" x="1453.5859" y="1398.5156"/><text fill="#000000" font-family="sans-serif" font-size="14" lengthAdjust="spacing" textLength="28" x="1463.5859" y="1423.0488">&#26500;&#25104;</text><path d="M1403.5859,1446.125 L1413.5859,1446.125 C1428.5859,1446.125 1428.5859,1417.3203 1443.5859,1417.3203 L1453.5859,1417.3203 " fill="none" style="stroke:#181818;stroke-width:1;"/><rect fill="#F1F1F1" height="37.6094" rx="12.5" ry="12.5" style="stroke:#181818;stroke-width:1.5;" width="253.3242" x="1453.5859" y="1456.125"/><text fill="#000000" font-family="sans-serif" font-size="14" lengthAdjust="spacing" textLength="233.3242" x="1463.5859" y="1480.6582">&#29702;&#30001;&#65306;&#8220;&#20026;&#25239;&#25298;&#25235;&#25429;&#8221;&#21482;&#26159;&#19968;&#31181;&#20027;&#35266;&#24515;&#29702;</text><path d="M1403.5859,1446.125 L1413.5859,1446.125 C1428.5859,1446.125 1428.5859,1474.9297 1443.5859,1474.9297 L1453.5859,1474.9297 " fill="none" style="stroke:#181818;stroke-width:1;"/><path d="M1291.5859,1388.5156 L1301.5859,1388.5156 C1316.5859,1388.5156 1316.5859,1446.125 1331.5859,1446.125 L1341.5859,1446.125 " fill="none" style="stroke:#181818;stroke-width:1;"/><path d="M1080,1388.5156 L1090,1388.5156 C1105,1388.5156 1105,1388.5156 1120,1388.5156 L1130,1388.5156 " fill="none" style="stroke:#181818;stroke-width:1;"/><path d="M800,1388.5156 L810,1388.5156 C825,1388.5156 825,1388.5156 840,1388.5156 L850,1388.5156 " fill="none" style="stroke:#181818;stroke-width:1;"/><path d="M674,1446.125 L684,1446.125 C699,1446.125 699,1388.5156 714,1388.5156 L724,1388.5156 " fill="none" style="stroke:#181818;stroke-width:1;"/><rect fill="#F1F1F1" height="37.6094" rx="12.5" ry="12.5" style="stroke:#181818;stroke-width:1.5;" width="76" x="724" y="1542.5391"/><text fill="#000000" font-family="sans-serif" font-size="14" lengthAdjust="spacing" textLength="56" x="734" y="1567.0723">&#25171;&#20987;&#38169;&#35823;</text><rect fill="#F1F1F1" height="42.75" rx="12.5" ry="12.5" style="stroke:#181818;stroke-width:1.5;" width="385.5859" x="850" y="1539.9688"/><text fill="#000000" font-family="sans-serif" font-size="14" lengthAdjust="spacing" textLength="340.6963" x="860" y="1569.6426">&#30002;&#25250;&#22842;&#20057;&#36130;&#29289;&#65292;&#20057;&#36861;&#36214;&#65292;&#30002;&#24320;&#26538;&#65292;&#19981;&#24910;&#25171;&#27515;&#19993;&#65288;P255&#65289;</text><path d="M1212.1693,1569.8021 C1212.1693,1570.9688 1212.1693,1570.9688 1211.0026,1570.9688 C1209.8359,1570.9688 1209.8359,1569.8021 1209.8359,1569.8021 L1209.8359,1551.1354 C1209.8359,1549.9688 1209.8359,1549.9688 1211.0026,1549.9688 C1212.1693,1549.9688 1212.1693,1551.1354 1212.1693,1551.1354 L1212.1693,1569.8021 " fill="#66757F" style="stroke:;stroke-width:0;stroke-dasharray:;"/><path d="M1211.0026,1552.3021 C1211.0026,1551.0188 1211.9569,1550.4063 1213.1236,1550.9412 L1222.881,1555.4136 C1224.0477,1555.9485 1224.0477,1556.8235 1222.881,1557.3578 L1213.1236,1561.8303 C1211.9569,1562.3646 1211.0026,1561.7521 1211.0026,1560.4688 L1211.0026,1552.3021 " fill="#DD2E44" style="stroke:;stroke-width:0;stroke-dasharray:;"/><rect fill="#F1F1F1" height="37.6094" rx="12.5" ry="12.5" style="stroke:#181818;stroke-width:1.5;" width="90" x="1285.5859" y="1513.7344"/><text fill="#000000" font-family="sans-serif" font-size="14" lengthAdjust="spacing" textLength="70" x="1295.5859" y="1538.2676">&#20855;&#20307;&#31526;&#21512;&#35828;</text><path d="M1235.5859,1561.3438 L1245.5859,1561.3438 C1260.5859,1561.3438 1260.5859,1532.5391 1275.5859,1532.5391 L1285.5859,1532.5391 " fill="none" style="stroke:#181818;stroke-width:1;"/><rect fill="#F1F1F1" height="37.6094" rx="12.5" ry="12.5" style="stroke:#181818;stroke-width:1.5;" width="90" x="1285.5859" y="1571.3438"/><text fill="#000000" font-family="sans-serif" font-size="14" lengthAdjust="spacing" textLength="70" x="1295.5859" y="1595.877">&#27861;&#23450;&#31526;&#21512;&#35828;</text><path d="M1235.5859,1561.3438 L1245.5859,1561.3438 C1260.5859,1561.3438 1260.5859,1590.1484 1275.5859,1590.1484 L1285.5859,1590.1484 " fill="none" style="stroke:#181818;stroke-width:1;"/><path d="M800,1561.3438 L810,1561.3438 C825,1561.3438 825,1561.3438 840,1561.3438 L850,1561.3438 " fill="none" style="stroke:#181818;stroke-width:1;"/><path d="M674,1446.125 L684,1446.125 C699,1446.125 699,1561.3438 714,1561.3438 L724,1561.3438 " fill="none" style="stroke:#181818;stroke-width:1;"/><path d="M548,1352 L558,1352 C573,1352 573,1446.125 588,1446.125 L598,1446.125 " fill="none" style="stroke:#181818;stroke-width:1;"/><path d="M366,1182.0078 L376,1182.0078 C391,1182.0078 391,1352 406,1352 L416,1352 " fill="none" style="stroke:#181818;stroke-width:1;"/><rect fill="#F1F1F1" height="37.6094" rx="12.5" ry="12.5" style="stroke:#181818;stroke-width:1.5;" width="118" x="416" y="1660.3281"/><text fill="#000000" font-family="sans-serif" font-size="14" lengthAdjust="spacing" textLength="98" x="426" y="1684.8613">&#26292;&#21147;&#12289;&#23041;&#32961;&#31243;&#24230;</text><rect fill="#F1F1F1" height="37.6094" rx="12.5" ry="12.5" style="stroke:#181818;stroke-width:1.5;" width="132" x="584" y="1628.9531"/><text fill="#000000" font-family="sans-serif" font-size="14" lengthAdjust="spacing" textLength="112" x="594" y="1653.4863">&#36275;&#20197;&#21387;&#21046;&#23545;&#26041;&#21453;&#25239;</text><path d="M534,1679.1328 L544,1679.1328 C559,1679.1328 559,1647.7578 574,1647.7578 L584,1647.7578 " fill="none" style="stroke:#181818;stroke-width:1;"/><rect fill="#F1F1F1" height="37.6094" rx="12.5" ry="12.5" style="stroke:#181818;stroke-width:1.5;" width="48" x="584" y="1689.1328"/><text fill="#000000" font-family="sans-serif" font-size="14" lengthAdjust="spacing" textLength="28" x="594" y="1713.666">&#21453;&#20363;</text><rect fill="#F1F1F1" height="42.75" rx="12.5" ry="12.5" style="stroke:#181818;stroke-width:1.5;" width="315.5859" x="682" y="1686.5625"/><text fill="#000000" font-family="sans-serif" font-size="14" lengthAdjust="spacing" textLength="270.6963" x="692" y="1716.2363">&#23567;&#20599;&#23558;&#25253;&#32440;&#25545;&#25104;&#22242;&#65292;&#30776;&#21521;&#36130;&#29289;&#20027;&#20154;&#65288;P256&#65289;</text><path d="M979.1469,1707.0637 L986.2839,1699.9272 C986.8533,1699.3578 986.8533,1698.4344 986.2839,1697.8651 C985.714,1697.2952 984.7912,1697.2952 984.2219,1697.8651 L977.0848,1705.0016 L969.9483,1697.8651 C969.3789,1697.2952 968.4549,1697.2952 967.8862,1697.8651 C967.3163,1698.4344 967.3163,1699.3578 967.8862,1699.9272 L975.0227,1707.0637 L967.8699,1714.2171 C967.2999,1714.787 967.2999,1715.7098 967.8699,1716.2792 C968.1545,1716.5638 968.5279,1716.7062 968.9012,1716.7062 C969.2745,1716.7062 969.6479,1716.5638 969.9325,1716.2792 L977.0854,1709.1258 L984.2219,1716.2623 C984.5065,1716.5469 984.8799,1716.6893 985.2532,1716.6893 C985.6265,1716.6893 985.9993,1716.5469 986.2845,1716.2623 C986.8539,1715.6923 986.8539,1714.7695 986.2845,1714.2002 L979.1469,1707.0637 " fill="#FE0000" style="stroke:;stroke-width:0;stroke-dasharray:;"/><path d="M632,1707.9375 L642,1707.9375 C657,1707.9375 657,1707.9375 672,1707.9375 L682,1707.9375 " fill="none" style="stroke:#181818;stroke-width:1;"/><path d="M534,1679.1328 L544,1679.1328 C559,1679.1328 559,1707.9375 574,1707.9375 L584,1707.9375 " fill="none" style="stroke:#181818;stroke-width:1;"/><path d="M366,1182.0078 L376,1182.0078 C391,1182.0078 391,1679.1328 406,1679.1328 L416,1679.1328 " fill="none" style="stroke:#181818;stroke-width:1;"/><path d="M114,893.9609 L124,893.9609 C139,893.9609 139,1182.0078 154,1182.0078 L164,1182.0078 " fill="none" style="stroke:#181818;stroke-width:1;"/><!--SRC=[xLbTJnfP6BwVNp6RthHDjDQrfZ5DqsfhTZUrQLRRMpF25AOECsGOwBARJK2h8gXW_Q3rWugrGcq5hLQHZ_fVsZapmvL_OT_3W0p806OtUuKnPEQSvttE-tqEXtiEaH946yEPRPIT87vYE1FhDDDaU_iD-7U8RfQ-OMSfJdJQs3OCQmDSMs6ydO4nWY14HcHfKZtSbD8nnPzKSZja6odxDv7_a_OifGCeDAVcFgEPPMsS8AxN6YNXxphvmpEd9qFx4TaJ- -495gOrYBpxNeacpWUqGMKrB6L3yiQyl1O_o_hWLTaPFyjELy6aqwYo64UpKJNfo- -40Lbwk83CdMAaTmgbl3LXrydyubircRoe2AoCzb9IRg6E8d9WLPwVabz7wck1VRELHgivUMrQZhwNepu0QuCbS4bLUUKG-LULbLVAQW8-Ans6KYcTctNQPc9APXS5bz6tCFXTcVweazF2WoA1sg8xwseug7uTrmkLj0xBWTUoVq6UNQgUIdeLxov4LarwY-gZt09QI-kDa7tBKkP3qQ3L58fxrN6lJZ5DebgVZ-by-92ySqMWpJr_zDojNZXyL9wsqfJBFMooqgRHOHibZ5QXzH9IoeycZi7zoc4C9ITLxw9oa86SrFjt-GHbWpNpHxEX5ldIXFmgg0TTHZKfDIk_IMeS4EkyPqFsXQJi5aeS63X0vxoz8F8UgyTnzSWlRmJbzScpx8psW3olKNG6NfMD5B1f2I6bCb8QiittfFFMhUeCrHN3-uYQsowbvWmygxaOykqfxmxGRWXp5XvGzaJzUjmqFvXgd0Xb4EuQqHafbGOcQ1POPZc7_1ldaddF2fhtWnPuQdSB_0uYMeAgdWai0XrdyPti3SdZCNGwheGcQoo3WhFIjq1TlwBaYJgrWuxtYmfuZo0cvwgNhMmO9b0qlnufriDqG4vyrR7CW1feUqnAVPFz7tvul60R2ixNPOUKAt1XT845yWOhkn-jSdYDmM8xsFm4je27BvEfQE98oYnhdhwaA2GvcfcG0v-HFmvvWflfMY0VZYk1iB43GSt4bfgShD6RzUOPJ9SYEQaU9q5RW00Rf5LbfiwWH0J2Qr3REarYOyhO2TfVKhRI-jZqY093SHOdImd3prdACinpmtRU8HhaWawnhHLvQKzD7jR5bLj4v1MqXIQmaEtAulvPTkMxPmsirRTlrLDXxNVFUdxDesvxmHSeiGaMIYcFEdM8AtxRA- -FeTqtQ2skpEs156JOUOaricnllcdB_Wkpm0uKt84U2kehiLcm1amnh7jvUW5DPUhcZBBuHUjzqibRBLjmbSBpQKxzUeJRt-8NbFN8aHqy3h6Pc0DMUJSZfTx-ozp0HNOCfmtbypOA-Uhv42mvM4A9bOl8YzqX7a3fxUhIEZg0jeJc0iXt17M4zxtWBBYLQAfDdhV8lKdeMaew9GUd8P1eTLFRSL1e_kAEq5rPwiGz6WwhfGFhlShpwvt2oVGkKHnum50MWRAHVu4cxIEiaouyaMGlPHgr2BoJC_VnB2-GB6EnYdWUPl_6M3Dq95ZG05wSBO4j0arpzPWB01tQtG3iBc5v0HB1I6bjiWIrEmKxQmJL9ajGOyDqHWcymuZjIdz_RszVNmdffbcMVsc0rIOBKABTHZ7Sa9MsbOZxUKuSPFwaoPyx23nFs-nMoi4u6ljIZ-umW3j6tOMGwh6TzNsfX_R2aCaAATkKCeo5umMwYRYIv2E6ewl7onHDBbkN2fDn76-YET78DrmXA5e8jA4H5Z1Lh50yccucWJcFMdbQv6sKo6lASoAinl0SnVPT5lj4eEsKGE6HouZT7-45iL7QDSibYX1tiL6bDSdMnzkWt4IZT2XA6j7Xy76q1I8Af7fdrkjQZI9ffccxlY0g5tW8NNI4PHnMuvQdawzSxQML4QjzOx3COrvil5B1AfERufgmoaIPQV5yCSfaOip6EL_HYXinFuTITEZg6zvDz03rWdOsg7AU1HK4tgpBm0OrLf8eh0CRFICoBlg-ILSE5zevnTBD6b8s0M91DQIsCR23ujxVJ4uLjq5Cxd2ElA1DcDx8EvGBzcrQQ9BNnV1GGGLglX4pzdlJxYvt-ih2hL-h5RdSS0yXuEFEZU9Hf7L1rheWQrsGjIx8MXTahGkorWLPwuAiTK7MkY3x7o_8dk0VRvyEF29TjE30v_wRxPqTdLtjjwyEKYBvc7UHDxl9ZfizNLqzNTrat-0GYQUl4LS7VXqY7RmJllQGPlXI830ZJdnIlaRyHhaeydSdd9jjT0-9twuE3LmZ1n-M1ic7d8iHUCu6PsNYjsS36eZyXHS7xRnO07TtjVKo8Zb82w0M-Mo0U40_fvoi2A8ctinmbXxowL1_sstY4GuqPO65u5jC7nosHS4DSuF_0000]--></g></svg>