<svg xmlns="http://www.w3.org/2000/svg" xmlns:xlink="http://www.w3.org/1999/xlink" contentStyleType="text/css" height="1083px" preserveAspectRatio="none" style="width:844px;height:1083px;background:#FFFFFF;" version="1.1" viewBox="0 0 844 1083" width="844px" zoomAndPan="magnify"><defs/><g><rect fill="#F1F1F1" height="37.6094" rx="12.5" ry="12.5" style="stroke:#181818;stroke-width:1.5;" width="209.793" x="10" y="522"/><text fill="#000000" font-family="sans-serif" font-size="14" lengthAdjust="spacing" textLength="189.793" x="20" y="546.5332">&#36131;&#20219;&#24180;&#40836;-&#30456;&#23545;&#36131;&#20219;&#24180;&#40836;(14-16)</text><rect fill="#F1F1F1" height="37.6094" rx="12.5" ry="12.5" style="stroke:#181818;stroke-width:1.5;" width="48" x="269.793" y="20"/><text fill="#000000" font-family="sans-serif" font-size="14" lengthAdjust="spacing" textLength="28" x="279.793" y="44.5332">&#21475;&#35776;</text><rect fill="#F1F1F1" height="37.6094" rx="12.5" ry="12.5" style="stroke:#181818;stroke-width:1.5;" width="230" x="367.793" y="20"/><text fill="#000000" font-family="sans-serif" font-size="14" lengthAdjust="spacing" textLength="210" x="377.793" y="44.5332">&#28903;&#26432;&#28139;&#25504;&#65292;&#21830;&#36137;&#26292;&#24466;&#65288;&#20260;&#36137;&#29190;&#25237;&#65289;</text><path d="M317.793,38.8047 L327.793,38.8047 C342.793,38.8047 342.793,38.8047 357.793,38.8047 L367.793,38.8047 " fill="none" style="stroke:#181818;stroke-width:1;"/><path d="M219.793,540.8047 L229.793,540.8047 C244.793,540.8047 244.793,38.8047 259.793,38.8047 L269.793,38.8047 " fill="none" style="stroke:#181818;stroke-width:1;"/><rect fill="#F1F1F1" height="37.6094" rx="12.5" ry="12.5" style="stroke:#181818;stroke-width:1.5;" width="48" x="269.793" y="519.4297"/><text fill="#000000" font-family="sans-serif" font-size="14" lengthAdjust="spacing" textLength="28" x="279.793" y="543.9629">&#21306;&#20998;</text><rect fill="#F1F1F1" height="37.6094" rx="12.5" ry="12.5" style="stroke:#181818;stroke-width:1.5;" width="76" x="367.793" y="237.0547"/><text fill="#000000" font-family="sans-serif" font-size="14" lengthAdjust="spacing" textLength="56" x="377.793" y="261.5879">&#20154;&#36523;&#29359;&#32618;</text><rect fill="#F1F1F1" height="37.6094" rx="12.5" ry="12.5" style="stroke:#181818;stroke-width:1.5;" width="90" x="493.793" y="111.5547"/><text fill="#000000" font-family="sans-serif" font-size="14" lengthAdjust="spacing" textLength="70" x="503.793" y="136.0879">&#36523;&#20307;&#21644;&#29983;&#21629;</text><rect fill="#F1F1F1" height="42.75" rx="12.5" ry="12.5" style="stroke:#181818;stroke-width:1.5;" width="100.8896" x="633.793" y="77.6094"/><text fill="#000000" font-family="sans-serif" font-size="14" lengthAdjust="spacing" textLength="56" x="643.793" y="107.2832">&#25925;&#24847;&#26432;&#20154;</text><path d="M723.7837,88.4115 C722.9723,87.8853 721.889,88.1163 721.3635,88.9271 L711.5576,104.0419 L706.7755,99.6202 C706.0655,98.964 704.959,99.0071 704.3027,99.717 C703.6465,100.4264 703.6896,101.5341 704.3995,102.1898 L710.6785,107.9951 C710.8588,108.1503 710.8588,108.1503 710.9422,108.2045 C711.2362,108.3959 711.5664,108.4869 711.893,108.4869 C712.4659,108.4869 713.0276,108.2057 713.363,107.6889 L724.2994,90.8317 C724.8255,90.0209 724.5945,88.937 723.7837,88.4115 " fill="#FE0000" style="stroke:;stroke-width:0;stroke-dasharray:;"/><path d="M583.793,130.3594 L593.793,130.3594 C608.793,130.3594 608.793,98.9844 623.793,98.9844 L633.793,98.9844 " fill="none" style="stroke:#181818;stroke-width:1;"/><rect fill="#F1F1F1" height="42.75" rx="12.5" ry="12.5" style="stroke:#181818;stroke-width:1.5;" width="198.8896" x="633.793" y="140.3594"/><text fill="#000000" font-family="sans-serif" font-size="14" lengthAdjust="spacing" textLength="154" x="643.793" y="170.0332">&#25925;&#24847;&#20260;&#23475;&#33268;&#20154;&#27515;&#20129;&#25110;&#37325;&#20260;</text><path d="M821.7837,151.1615 C820.9723,150.6353 819.889,150.8663 819.3635,151.6771 L809.5576,166.7919 L804.7755,162.3702 C804.0655,161.714 802.959,161.7571 802.3027,162.467 C801.6465,163.1764 801.6896,164.2841 802.3995,164.9398 L808.6785,170.7451 C808.8588,170.9003 808.8588,170.9003 808.9422,170.9545 C809.2362,171.1459 809.5664,171.2369 809.893,171.2369 C810.4659,171.2369 811.0276,170.9557 811.363,170.4389 L822.2994,153.5817 C822.8255,152.7709 822.5945,151.687 821.7837,151.1615 " fill="#FE0000" style="stroke:;stroke-width:0;stroke-dasharray:;"/><path d="M583.793,130.3594 L593.793,130.3594 C608.793,130.3594 608.793,161.7344 623.793,161.7344 L633.793,161.7344 " fill="none" style="stroke:#181818;stroke-width:1;"/><path d="M443.793,255.8594 L453.793,255.8594 C468.793,255.8594 468.793,130.3594 483.793,130.3594 L493.793,130.3594 " fill="none" style="stroke:#181818;stroke-width:1;"/><rect fill="#F1F1F1" height="37.6094" rx="12.5" ry="12.5" style="stroke:#181818;stroke-width:1.5;" width="62" x="493.793" y="237.0547"/><text fill="#000000" font-family="sans-serif" font-size="14" lengthAdjust="spacing" textLength="42" x="503.793" y="261.5879">&#24615;&#26435;&#21033;</text><rect fill="#F1F1F1" height="42.75" rx="12.5" ry="12.5" style="stroke:#181818;stroke-width:1.5;" width="72.8896" x="605.793" y="203.1094"/><text fill="#000000" font-family="sans-serif" font-size="14" lengthAdjust="spacing" textLength="28" x="615.793" y="232.7832">&#24378;&#22904;</text><path d="M667.7837,213.9115 C666.9723,213.3853 665.889,213.6163 665.3635,214.4271 L655.5576,229.5419 L650.7755,225.1202 C650.0655,224.464 648.959,224.5071 648.3027,225.217 C647.6465,225.9264 647.6896,227.0341 648.3995,227.6898 L654.6785,233.4951 C654.8588,233.6503 654.8588,233.6503 654.9422,233.7045 C655.2362,233.8959 655.5664,233.9869 655.893,233.9869 C656.4659,233.9869 657.0276,233.7057 657.363,233.1889 L668.2994,216.3317 C668.8255,215.5209 668.5945,214.437 667.7837,213.9115 " fill="#FE0000" style="stroke:;stroke-width:0;stroke-dasharray:;"/><path d="M555.793,255.8594 L565.793,255.8594 C580.793,255.8594 580.793,224.4844 595.793,224.4844 L605.793,224.4844 " fill="none" style="stroke:#181818;stroke-width:1;"/><rect fill="#F1F1F1" height="42.75" rx="12.5" ry="12.5" style="stroke:#181818;stroke-width:1.5;" width="100.8896" x="605.793" y="265.8594"/><text fill="#000000" font-family="sans-serif" font-size="14" lengthAdjust="spacing" textLength="56" x="615.793" y="295.5332">&#24378;&#36843;&#21334;&#28139;</text><path d="M688.6548,286.3617 L694.4199,280.5966 C695.1035,279.9135 695.1035,278.8052 694.4199,278.1215 C693.7362,277.4385 692.629,277.4385 691.9454,278.1215 L686.1803,283.8866 L680.4152,278.1221 C679.7321,277.4385 678.6238,277.4385 677.9401,278.1221 C677.257,278.8052 677.257,279.9135 677.9401,280.5972 L683.7052,286.3617 L677.9261,292.1408 C677.243,292.8239 677.243,293.9322 677.9261,294.6153 C678.2674,294.9571 678.716,295.128 679.1634,295.128 C679.6108,295.128 680.0594,294.9571 680.4012,294.6153 L686.1797,288.8368 L691.9442,294.6013 C692.286,294.9431 692.734,295.114 693.1815,295.114 C693.6289,295.114 694.0769,294.9431 694.4187,294.6013 C695.1024,293.9182 695.1024,292.8099 694.4187,292.1268 L688.6548,286.3617 " fill="#FE0000" style="stroke:;stroke-width:0;stroke-dasharray:;"/><path d="M555.793,255.8594 L565.793,255.8594 C580.793,255.8594 580.793,287.2344 595.793,287.2344 L605.793,287.2344 " fill="none" style="stroke:#181818;stroke-width:1;"/><path d="M443.793,255.8594 L453.793,255.8594 C468.793,255.8594 468.793,255.8594 483.793,255.8594 L493.793,255.8594 " fill="none" style="stroke:#181818;stroke-width:1;"/><rect fill="#F1F1F1" height="37.6094" rx="12.5" ry="12.5" style="stroke:#181818;stroke-width:1.5;" width="48" x="493.793" y="362.5547"/><text fill="#000000" font-family="sans-serif" font-size="14" lengthAdjust="spacing" textLength="28" x="503.793" y="387.0879">&#33258;&#30001;</text><rect fill="#F1F1F1" height="42.75" rx="12.5" ry="12.5" style="stroke:#181818;stroke-width:1.5;" width="72.8896" x="591.793" y="328.6094"/><text fill="#000000" font-family="sans-serif" font-size="14" lengthAdjust="spacing" textLength="28" x="601.793" y="358.2832">&#32465;&#26550;</text><path d="M646.6548,349.1117 L652.4199,343.3466 C653.1035,342.6635 653.1035,341.5552 652.4199,340.8715 C651.7362,340.1885 650.629,340.1885 649.9454,340.8715 L644.1803,346.6366 L638.4152,340.8721 C637.7321,340.1885 636.6238,340.1885 635.9401,340.8721 C635.257,341.5552 635.257,342.6635 635.9401,343.3472 L641.7052,349.1117 L635.9261,354.8908 C635.243,355.5739 635.243,356.6822 635.9261,357.3653 C636.2674,357.7071 636.716,357.878 637.1634,357.878 C637.6108,357.878 638.0594,357.7071 638.4012,357.3653 L644.1797,351.5868 L649.9442,357.3513 C650.286,357.6931 650.734,357.864 651.1815,357.864 C651.6289,357.864 652.0769,357.6931 652.4187,357.3513 C653.1024,356.6682 653.1024,355.5599 652.4187,354.8768 L646.6548,349.1117 " fill="#FE0000" style="stroke:;stroke-width:0;stroke-dasharray:;"/><path d="M541.793,381.3594 L551.793,381.3594 C566.793,381.3594 566.793,349.9844 581.793,349.9844 L591.793,349.9844 " fill="none" style="stroke:#181818;stroke-width:1;"/><rect fill="#F1F1F1" height="42.75" rx="12.5" ry="12.5" style="stroke:#181818;stroke-width:1.5;" width="142.8896" x="591.793" y="391.3594"/><text fill="#000000" font-family="sans-serif" font-size="14" lengthAdjust="spacing" textLength="98" x="601.793" y="421.0332">&#25296;&#21334;&#22919;&#22899;&#12289;&#20799;&#31461;</text><path d="M716.6548,411.8617 L722.4199,406.0966 C723.1035,405.4135 723.1035,404.3052 722.4199,403.6215 C721.7362,402.9385 720.629,402.9385 719.9454,403.6215 L714.1803,409.3866 L708.4152,403.6221 C707.7321,402.9385 706.6238,402.9385 705.9401,403.6221 C705.257,404.3052 705.257,405.4135 705.9401,406.0972 L711.7052,411.8617 L705.9261,417.6408 C705.243,418.3239 705.243,419.4322 705.9261,420.1153 C706.2674,420.4571 706.716,420.628 707.1634,420.628 C707.6108,420.628 708.0594,420.4571 708.4012,420.1153 L714.1797,414.3368 L719.9442,420.1013 C720.286,420.4431 720.734,420.614 721.1815,420.614 C721.6289,420.614 722.0769,420.4431 722.4187,420.1013 C723.1024,419.4182 723.1024,418.3099 722.4187,417.6268 L716.6548,411.8617 " fill="#FE0000" style="stroke:;stroke-width:0;stroke-dasharray:;"/><path d="M541.793,381.3594 L551.793,381.3594 C566.793,381.3594 566.793,412.7344 581.793,412.7344 L591.793,412.7344 " fill="none" style="stroke:#181818;stroke-width:1;"/><path d="M443.793,255.8594 L453.793,255.8594 C468.793,255.8594 468.793,381.3594 483.793,381.3594 L493.793,381.3594 " fill="none" style="stroke:#181818;stroke-width:1;"/><path d="M317.793,538.2344 L327.793,538.2344 C342.793,538.2344 342.793,255.8594 357.793,255.8594 L367.793,255.8594 " fill="none" style="stroke:#181818;stroke-width:1;"/><rect fill="#F1F1F1" height="37.6094" rx="12.5" ry="12.5" style="stroke:#181818;stroke-width:1.5;" width="76" x="367.793" y="488.0547"/><text fill="#000000" font-family="sans-serif" font-size="14" lengthAdjust="spacing" textLength="56" x="377.793" y="512.5879">&#36130;&#20135;&#29359;&#32618;</text><rect fill="#F1F1F1" height="42.75" rx="12.5" ry="12.5" style="stroke:#181818;stroke-width:1.5;" width="72.8896" x="493.793" y="454.1094"/><text fill="#000000" font-family="sans-serif" font-size="14" lengthAdjust="spacing" textLength="28" x="503.793" y="483.7832">&#25250;&#21163;</text><path d="M555.7837,464.9115 C554.9723,464.3853 553.889,464.6163 553.3635,465.4271 L543.5576,480.5419 L538.7755,476.1202 C538.0655,475.464 536.959,475.5071 536.3027,476.217 C535.6465,476.9264 535.6896,478.0341 536.3995,478.6898 L542.6785,484.4951 C542.8588,484.6503 542.8588,484.6503 542.9422,484.7045 C543.2362,484.8959 543.5664,484.9869 543.893,484.9869 C544.4659,484.9869 545.0276,484.7057 545.363,484.1889 L556.2994,467.3317 C556.8255,466.5209 556.5945,465.437 555.7837,464.9115 " fill="#FE0000" style="stroke:;stroke-width:0;stroke-dasharray:;"/><path d="M443.793,506.8594 L453.793,506.8594 C468.793,506.8594 468.793,475.4844 483.793,475.4844 L493.793,475.4844 " fill="none" style="stroke:#181818;stroke-width:1;"/><rect fill="#F1F1F1" height="42.75" rx="12.5" ry="12.5" style="stroke:#181818;stroke-width:1.5;" width="72.8896" x="493.793" y="516.8594"/><text fill="#000000" font-family="sans-serif" font-size="14" lengthAdjust="spacing" textLength="28" x="503.793" y="546.5332">&#25250;&#22842;</text><path d="M548.6548,537.3617 L554.4199,531.5966 C555.1035,530.9135 555.1035,529.8052 554.4199,529.1215 C553.7362,528.4385 552.629,528.4385 551.9454,529.1215 L546.1803,534.8866 L540.4152,529.1221 C539.7321,528.4385 538.6238,528.4385 537.9401,529.1221 C537.257,529.8052 537.257,530.9135 537.9401,531.5972 L543.7052,537.3617 L537.9261,543.1408 C537.243,543.8239 537.243,544.9322 537.9261,545.6153 C538.2674,545.9571 538.716,546.128 539.1634,546.128 C539.6108,546.128 540.0594,545.9571 540.4012,545.6153 L546.1797,539.8368 L551.9442,545.6013 C552.286,545.9431 552.734,546.114 553.1815,546.114 C553.6289,546.114 554.0769,545.9431 554.4187,545.6013 C555.1024,544.9182 555.1024,543.8099 554.4187,543.1268 L548.6548,537.3617 " fill="#FE0000" style="stroke:;stroke-width:0;stroke-dasharray:;"/><path d="M443.793,506.8594 L453.793,506.8594 C468.793,506.8594 468.793,538.2344 483.793,538.2344 L493.793,538.2344 " fill="none" style="stroke:#181818;stroke-width:1;"/><path d="M317.793,538.2344 L327.793,538.2344 C342.793,538.2344 342.793,506.8594 357.793,506.8594 L367.793,506.8594 " fill="none" style="stroke:#181818;stroke-width:1;"/><rect fill="#F1F1F1" height="37.6094" rx="12.5" ry="12.5" style="stroke:#181818;stroke-width:1.5;" width="104" x="367.793" y="770.4297"/><text fill="#000000" font-family="sans-serif" font-size="14" lengthAdjust="spacing" textLength="84" x="377.793" y="794.9629">&#20844;&#20849;&#23433;&#20840;&#29359;&#32618;</text><rect fill="#F1F1F1" height="37.6094" rx="12.5" ry="12.5" style="stroke:#181818;stroke-width:1.5;" width="34" x="521.793" y="644.9297"/><text fill="#000000" font-family="sans-serif" font-size="14" lengthAdjust="spacing" textLength="14" x="531.793" y="669.4629">&#28779;</text><rect fill="#F1F1F1" height="42.75" rx="12.5" ry="12.5" style="stroke:#181818;stroke-width:1.5;" width="72.8896" x="605.793" y="579.6094"/><text fill="#000000" font-family="sans-serif" font-size="14" lengthAdjust="spacing" textLength="28" x="615.793" y="609.2832">&#25918;&#28779;</text><path d="M667.7837,590.4115 C666.9723,589.8853 665.889,590.1163 665.3635,590.9271 L655.5576,606.0419 L650.7755,601.6202 C650.0655,600.964 648.959,601.0071 648.3027,601.717 C647.6465,602.4264 647.6896,603.5341 648.3995,604.1898 L654.6785,609.9951 C654.8588,610.1503 654.8588,610.1503 654.9422,610.2045 C655.2362,610.3959 655.5664,610.4869 655.893,610.4869 C656.4659,610.4869 657.0276,610.2057 657.363,609.6889 L668.2994,592.8317 C668.8255,592.0209 668.5945,590.937 667.7837,590.4115 " fill="#FE0000" style="stroke:;stroke-width:0;stroke-dasharray:;"/><path d="M555.793,663.7344 L565.793,663.7344 C580.793,663.7344 580.793,600.9844 595.793,600.9844 L605.793,600.9844 " fill="none" style="stroke:#181818;stroke-width:1;"/><rect fill="#F1F1F1" height="42.75" rx="12.5" ry="12.5" style="stroke:#181818;stroke-width:1.5;" width="72.8896" x="605.793" y="642.3594"/><text fill="#000000" font-family="sans-serif" font-size="14" lengthAdjust="spacing" textLength="28" x="615.793" y="672.0332">&#22833;&#28779;</text><path d="M660.6548,662.8617 L666.4199,657.0966 C667.1035,656.4135 667.1035,655.3052 666.4199,654.6215 C665.7362,653.9385 664.629,653.9385 663.9454,654.6215 L658.1803,660.3866 L652.4152,654.6221 C651.7321,653.9385 650.6238,653.9385 649.9401,654.6221 C649.257,655.3052 649.257,656.4135 649.9401,657.0972 L655.7052,662.8617 L649.9261,668.6408 C649.243,669.3239 649.243,670.4322 649.9261,671.1153 C650.2674,671.4571 650.716,671.628 651.1634,671.628 C651.6108,671.628 652.0594,671.4571 652.4012,671.1153 L658.1797,665.3368 L663.9442,671.1013 C664.286,671.4431 664.734,671.614 665.1815,671.614 C665.6289,671.614 666.0769,671.4431 666.4187,671.1013 C667.1024,670.4182 667.1024,669.3099 666.4187,668.6268 L660.6548,662.8617 " fill="#FE0000" style="stroke:;stroke-width:0;stroke-dasharray:;"/><path d="M555.793,663.7344 L565.793,663.7344 C580.793,663.7344 580.793,663.7344 595.793,663.7344 L605.793,663.7344 " fill="none" style="stroke:#181818;stroke-width:1;"/><rect fill="#F1F1F1" height="42.75" rx="12.5" ry="12.5" style="stroke:#181818;stroke-width:1.5;" width="72.8896" x="605.793" y="705.1094"/><text fill="#000000" font-family="sans-serif" font-size="14" lengthAdjust="spacing" textLength="28" x="615.793" y="734.7832">&#20915;&#27700;</text><path d="M660.6548,725.6117 L666.4199,719.8466 C667.1035,719.1635 667.1035,718.0552 666.4199,717.3715 C665.7362,716.6885 664.629,716.6885 663.9454,717.3715 L658.1803,723.1366 L652.4152,717.3721 C651.7321,716.6885 650.6238,716.6885 649.9401,717.3721 C649.257,718.0552 649.257,719.1635 649.9401,719.8472 L655.7052,725.6117 L649.9261,731.3908 C649.243,732.0739 649.243,733.1822 649.9261,733.8653 C650.2674,734.2071 650.716,734.378 651.1634,734.378 C651.6108,734.378 652.0594,734.2071 652.4012,733.8653 L658.1797,728.0868 L663.9442,733.8513 C664.286,734.1931 664.734,734.364 665.1815,734.364 C665.6289,734.364 666.0769,734.1931 666.4187,733.8513 C667.1024,733.1682 667.1024,732.0599 666.4187,731.3768 L660.6548,725.6117 " fill="#FE0000" style="stroke:;stroke-width:0;stroke-dasharray:;"/><path d="M555.793,663.7344 L565.793,663.7344 C580.793,663.7344 580.793,726.4844 595.793,726.4844 L605.793,726.4844 " fill="none" style="stroke:#181818;stroke-width:1;"/><path d="M471.793,789.2344 L481.793,789.2344 C496.793,789.2344 496.793,663.7344 511.793,663.7344 L521.793,663.7344 " fill="none" style="stroke:#181818;stroke-width:1;"/><rect fill="#F1F1F1" height="37.6094" rx="12.5" ry="12.5" style="stroke:#181818;stroke-width:1.5;" width="34" x="521.793" y="770.4297"/><text fill="#000000" font-family="sans-serif" font-size="14" lengthAdjust="spacing" textLength="14" x="531.793" y="794.9629">&#29190;</text><rect fill="#F1F1F1" height="42.75" rx="12.5" ry="12.5" style="stroke:#181818;stroke-width:1.5;" width="72.8896" x="605.793" y="767.8594"/><text fill="#000000" font-family="sans-serif" font-size="14" lengthAdjust="spacing" textLength="28" x="615.793" y="797.5332">&#29190;&#28856;</text><path d="M667.7837,778.6615 C666.9723,778.1353 665.889,778.3663 665.3635,779.1771 L655.5576,794.2919 L650.7755,789.8702 C650.0655,789.214 648.959,789.2571 648.3027,789.967 C647.6465,790.6764 647.6896,791.7841 648.3995,792.4398 L654.6785,798.2451 C654.8588,798.4003 654.8588,798.4003 654.9422,798.4545 C655.2362,798.6459 655.5664,798.7369 655.893,798.7369 C656.4659,798.7369 657.0276,798.4557 657.363,797.9389 L668.2994,781.0817 C668.8255,780.2709 668.5945,779.187 667.7837,778.6615 " fill="#FE0000" style="stroke:;stroke-width:0;stroke-dasharray:;"/><path d="M555.793,789.2344 L565.793,789.2344 C580.793,789.2344 580.793,789.2344 595.793,789.2344 L605.793,789.2344 " fill="none" style="stroke:#181818;stroke-width:1;"/><path d="M471.793,789.2344 L481.793,789.2344 C496.793,789.2344 496.793,789.2344 511.793,789.2344 L521.793,789.2344 " fill="none" style="stroke:#181818;stroke-width:1;"/><rect fill="#F1F1F1" height="37.6094" rx="12.5" ry="12.5" style="stroke:#181818;stroke-width:1.5;" width="34" x="521.793" y="864.5547"/><text fill="#000000" font-family="sans-serif" font-size="14" lengthAdjust="spacing" textLength="14" x="531.793" y="889.0879">&#27602;</text><rect fill="#F1F1F1" height="42.75" rx="12.5" ry="12.5" style="stroke:#181818;stroke-width:1.5;" width="100.8896" x="605.793" y="830.6094"/><text fill="#000000" font-family="sans-serif" font-size="14" lengthAdjust="spacing" textLength="56" x="615.793" y="860.2832">&#36137;&#21334;&#27602;&#21697;</text><path d="M695.7837,841.4115 C694.9723,840.8853 693.889,841.1163 693.3635,841.9271 L683.5576,857.0419 L678.7755,852.6202 C678.0655,851.964 676.959,852.0071 676.3027,852.717 C675.6465,853.4264 675.6896,854.5341 676.3995,855.1898 L682.6785,860.9951 C682.8588,861.1503 682.8588,861.1503 682.9422,861.2045 C683.2362,861.3959 683.5664,861.4869 683.893,861.4869 C684.4659,861.4869 685.0276,861.2057 685.363,860.6889 L696.2994,843.8317 C696.8255,843.0209 696.5945,841.937 695.7837,841.4115 " fill="#FE0000" style="stroke:;stroke-width:0;stroke-dasharray:;"/><path d="M555.793,883.3594 L565.793,883.3594 C580.793,883.3594 580.793,851.9844 595.793,851.9844 L605.793,851.9844 " fill="none" style="stroke:#181818;stroke-width:1;"/><rect fill="#F1F1F1" height="42.75" rx="12.5" ry="12.5" style="stroke:#181818;stroke-width:1.5;" width="184.8896" x="605.793" y="893.3594"/><text fill="#000000" font-family="sans-serif" font-size="14" lengthAdjust="spacing" textLength="140" x="615.793" y="923.0332">&#36208;&#31169;&#12289;&#21046;&#36896;&#12289;&#36816;&#36755;&#27602;&#21697;</text><path d="M772.6548,913.8617 L778.4199,908.0966 C779.1035,907.4135 779.1035,906.3052 778.4199,905.6215 C777.7362,904.9385 776.629,904.9385 775.9454,905.6215 L770.1803,911.3866 L764.4152,905.6221 C763.7321,904.9385 762.6238,904.9385 761.9401,905.6221 C761.257,906.3052 761.257,907.4135 761.9401,908.0972 L767.7052,913.8617 L761.9261,919.6408 C761.243,920.3239 761.243,921.4322 761.9261,922.1153 C762.2674,922.4571 762.716,922.628 763.1634,922.628 C763.6108,922.628 764.0594,922.4571 764.4012,922.1153 L770.1797,916.3368 L775.9442,922.1013 C776.286,922.4431 776.734,922.614 777.1815,922.614 C777.6289,922.614 778.0769,922.4431 778.4187,922.1013 C779.1024,921.4182 779.1024,920.3099 778.4187,919.6268 L772.6548,913.8617 " fill="#FE0000" style="stroke:;stroke-width:0;stroke-dasharray:;"/><path d="M555.793,883.3594 L565.793,883.3594 C580.793,883.3594 580.793,914.7344 595.793,914.7344 L605.793,914.7344 " fill="none" style="stroke:#181818;stroke-width:1;"/><path d="M471.793,789.2344 L481.793,789.2344 C496.793,789.2344 496.793,883.3594 511.793,883.3594 L521.793,883.3594 " fill="none" style="stroke:#181818;stroke-width:1;"/><rect fill="#F1F1F1" height="37.6094" rx="12.5" ry="12.5" style="stroke:#181818;stroke-width:1.5;" width="48" x="521.793" y="958.6797"/><text fill="#000000" font-family="sans-serif" font-size="14" lengthAdjust="spacing" textLength="28" x="531.793" y="983.2129">&#21361;&#38505;</text><rect fill="#F1F1F1" height="42.75" rx="12.5" ry="12.5" style="stroke:#181818;stroke-width:1.5;" width="128.8896" x="619.793" y="956.1094"/><text fill="#000000" font-family="sans-serif" font-size="14" lengthAdjust="spacing" textLength="84" x="629.793" y="985.7832">&#25237;&#25918;&#21361;&#38505;&#29289;&#36136;</text><path d="M737.7837,966.9115 C736.9723,966.3853 735.889,966.6163 735.3635,967.4271 L725.5576,982.5419 L720.7755,978.1202 C720.0655,977.464 718.959,977.5071 718.3027,978.217 C717.6465,978.9264 717.6896,980.0341 718.3995,980.6898 L724.6785,986.4951 C724.8588,986.6503 724.8588,986.6503 724.9422,986.7045 C725.2362,986.8959 725.5664,986.9869 725.893,986.9869 C726.4659,986.9869 727.0276,986.7057 727.363,986.1889 L738.2994,969.3317 C738.8255,968.5209 738.5945,967.437 737.7837,966.9115 " fill="#FE0000" style="stroke:;stroke-width:0;stroke-dasharray:;"/><path d="M569.793,977.4844 L579.793,977.4844 C594.793,977.4844 594.793,977.4844 609.793,977.4844 L619.793,977.4844 " fill="none" style="stroke:#181818;stroke-width:1;"/><path d="M471.793,789.2344 L481.793,789.2344 C496.793,789.2344 496.793,977.4844 511.793,977.4844 L521.793,977.4844 " fill="none" style="stroke:#181818;stroke-width:1;"/><path d="M317.793,538.2344 L327.793,538.2344 C342.793,538.2344 342.793,789.2344 357.793,789.2344 L367.793,789.2344 " fill="none" style="stroke:#181818;stroke-width:1;"/><path d="M219.793,540.8047 L229.793,540.8047 C244.793,540.8047 244.793,538.2344 259.793,538.2344 L269.793,538.2344 " fill="none" style="stroke:#181818;stroke-width:1;"/><rect fill="#F1F1F1" height="37.6094" rx="12.5" ry="12.5" style="stroke:#181818;stroke-width:1.5;" width="48" x="269.793" y="1021.4297"/><text fill="#000000" font-family="sans-serif" font-size="14" lengthAdjust="spacing" textLength="28" x="279.793" y="1045.9629">&#32771;&#28857;</text><rect fill="#F1F1F1" height="42.75" rx="12.5" ry="12.5" style="stroke:#181818;stroke-width:1.5;" width="298.8447" x="367.793" y="1018.8594"/><text fill="#000000" font-family="sans-serif" font-size="14" lengthAdjust="spacing" textLength="253.9551" x="377.793" y="1048.5332">&#19968;&#20010;&#19981;&#36127;&#36131;&#20219;&#30340;&#34892;&#20026; + &#19968;&#20010;&#36127;&#36131;&#20219;&#30340;&#34892;&#20026;</text><path d="M643.221,1048.6927 C643.221,1049.8594 643.221,1049.8594 642.0544,1049.8594 C640.8877,1049.8594 640.8877,1048.6927 640.8877,1048.6927 L640.8877,1030.026 C640.8877,1028.8594 640.8877,1028.8594 642.0544,1028.8594 C643.221,1028.8594 643.221,1030.026 643.221,1030.026 L643.221,1048.6927 " fill="#66757F" style="stroke:;stroke-width:0;stroke-dasharray:;"/><path d="M642.0544,1031.1927 C642.0544,1029.9094 643.0087,1029.2969 644.1754,1029.8318 L653.9328,1034.3042 C655.0994,1034.8391 655.0994,1035.7141 653.9328,1036.2485 L644.1754,1040.7209 C643.0087,1041.2552 642.0544,1040.6427 642.0544,1039.3594 L642.0544,1031.1927 " fill="#DD2E44" style="stroke:;stroke-width:0;stroke-dasharray:;"/><path d="M317.793,1040.2344 L327.793,1040.2344 C342.793,1040.2344 342.793,1040.2344 357.793,1040.2344 L367.793,1040.2344 " fill="none" style="stroke:#181818;stroke-width:1;"/><path d="M219.793,540.8047 L229.793,540.8047 C244.793,540.8047 244.793,1040.2344 259.793,1040.2344 L269.793,1040.2344 " fill="none" style="stroke:#181818;stroke-width:1;"/><!--SRC=[xLXRJnj757xVNp5LNY2LJOWi55ae8ZYWDegZg2PvHUFrO6_OtR5cnqwj2Cc4cw7G95mYDLMR6vI0sn24cnfp-p7rNdZYB_JisaviyDfhzHNB3zvpllETsvmpMWze73EkI6fCmKb1-4PIHJaL8yZlxwd_QZmZavwaZ5MUKcIVZVU1WS-H-oMG2O9m5Lc5z-M30ts_S7eyxJD_BUex-_MYhjw0hxUlMq3mkOhqP- -jdQppK16OKvl6RrdZdxpnyvkpmqLzRTOgR1cl2lhnyjbXhdou3ezcRjPOM3ixdA-HB9Rqt6mTIRbKiafvSs77FDh-8gweG5u-Mj6N5ytLr_gBemPj1M6ipHZJpo08O47zLnY91HC4fpEZOeA8uwCAPkF1cwvs4A7-SS-QAu2ryTT1kVJMoBqydLi2kJSo8Cf22QRqt5OJ9_fXITyeTX8MM5WdUNtf9TIqmKv9oLnAofA8kKJLqHyln67DRPkhkqqepOCNnk-VEo6h9lRJSuX3_sDEtzZxDpkfJv-O-GslDFR1UbSkRJRjgh7mJb_8UoumeDTBtXthCt_gCxlwntbzvaDJz-PalbcwgyUWwAXNwxldBJmLLf_TCpuLEkkkMJSn3LBpQT5p8NUMct30XDh7RMTPNvdi97lhxq_cvgHzC7AVJxDlu8TryjmwNcd2r3OxVMdtz9Tc0mIB0_fIKPlpMrRXG-iG8QpibFbqltwx5BFbudQvk6GLNbSsc_bgsdgxM2wMqBTLRHDLVv0p2Qlnb8pPw9YCuwCGUP9g73m90mIMRsq13pJkutvdmTuKgeBR4euphA0d498_AgU8ymkXGIoEnnbDgR4GbIb3iXHFS5iFsWaR6uEi85CNU5LR0ySP8MehPWTGXywq0MTgMCgW26v1LvGrQ3B5ah8RjAAiGTqJgqkAKSsDxShmyE1WA5H3PeWiqySks8hIWGf-ILMfI5JkWjLK1udGC5LvHHIL0UF8xaeggSYWencXGiU130urbaDCKchXVaLogc1EcsBlCvB4p1c9JinkHIdZxLBroiKvKPAyNNSzieMe0YtcRZshMhhHmSUlaZWSG22jBsQhIMdNg1WXIMqyuw0dBZWOWicDofAMS1-pElj6RuyJ4ZzV6nStzoXlxyd9IinWrKDM8euH_iKP5aKfvdwa6yQ_7VCOPKIhecrkU1P963yYATQo7N4gGmYCnkfEO9iHgbauVc2nIbnAarjYtJXSM25O9buJ-Pe2z0AtfLOasDhsll5ofgghroRNKj57HBJftQg3qt1N4EQHDorHc227chPZjklkkTpLMRQ9OU8JM9EqzkVbt92tdkk6SzzwepZJFY7qzrIloiltaCltaCltaCltaCltaF_p7dBV_gldGVWkIXEcsLTTh__wjUi1_usk2ERe7asZtZvqhJSO20G3VIWK6K6skble2dy_WZIQWfiUnU0UP58qPTUdMxY3qnZza8Brhv0Wif-wHiBTA39K4w8XDIqngYgmyeKx3yCL4FgEyaYISWVS5_0DIXn528EmqCEmS9kCOUW3c8eq9gdn87emCkox8TorayHnS0GtJmZk3Cuoe8ly1m00]--></g></svg>