<svg xmlns="http://www.w3.org/2000/svg" xmlns:xlink="http://www.w3.org/1999/xlink" contentStyleType="text/css" height="684px" preserveAspectRatio="none" style="width:714px;height:684px;background:#FFFFFF;" version="1.1" viewBox="0 0 714 684" width="714px" zoomAndPan="magnify"><defs/><g><rect fill="#F1F1F1" height="37.6094" rx="12.5" ry="12.5" style="stroke:#181818;stroke-width:1.5;" width="76" x="10" y="322.4492"/><text fill="#000000" font-family="sans-serif" font-size="14" lengthAdjust="spacing" textLength="56" x="20" y="346.9824">&#36131;&#20219;&#33021;&#21147;</text><rect fill="#F1F1F1" height="37.6094" rx="12.5" ry="12.5" style="stroke:#181818;stroke-width:1.5;" width="48" x="136" y="48.8047"/><text fill="#000000" font-family="sans-serif" font-size="14" lengthAdjust="spacing" textLength="28" x="146" y="73.3379">&#26500;&#20214;</text><rect fill="#F1F1F1" height="37.6094" rx="12.5" ry="12.5" style="stroke:#181818;stroke-width:1.5;" width="76" x="234" y="20"/><text fill="#000000" font-family="sans-serif" font-size="14" lengthAdjust="spacing" textLength="56" x="244" y="44.5332">&#36776;&#35748;&#33021;&#21147;</text><path d="M184,67.6094 L194,67.6094 C209,67.6094 209,38.8047 224,38.8047 L234,38.8047 " fill="none" style="stroke:#181818;stroke-width:1;"/><rect fill="#F1F1F1" height="37.6094" rx="12.5" ry="12.5" style="stroke:#181818;stroke-width:1.5;" width="76" x="234" y="77.6094"/><text fill="#000000" font-family="sans-serif" font-size="14" lengthAdjust="spacing" textLength="56" x="244" y="102.1426">&#25511;&#21046;&#33021;&#21147;</text><path d="M184,67.6094 L194,67.6094 C209,67.6094 209,96.4141 224,96.4141 L234,96.4141 " fill="none" style="stroke:#181818;stroke-width:1;"/><path d="M86,341.2539 L96,341.2539 C111,341.2539 111,67.6094 126,67.6094 L136,67.6094 " fill="none" style="stroke:#181818;stroke-width:1;"/><rect fill="#F1F1F1" height="37.6094" rx="12.5" ry="12.5" style="stroke:#181818;stroke-width:1.5;" width="48" x="136" y="250.4375"/><text fill="#000000" font-family="sans-serif" font-size="14" lengthAdjust="spacing" textLength="28" x="146" y="274.9707">&#31243;&#24230;</text><rect fill="#F1F1F1" height="37.6094" rx="12.5" ry="12.5" style="stroke:#181818;stroke-width:1.5;" width="104" x="234" y="135.2188"/><text fill="#000000" font-family="sans-serif" font-size="14" lengthAdjust="spacing" textLength="84" x="244" y="159.752">&#23436;&#20840;&#36131;&#20219;&#33021;&#21147;</text><path d="M184,269.2422 L194,269.2422 C209,269.2422 209,154.0234 224,154.0234 L234,154.0234 " fill="none" style="stroke:#181818;stroke-width:1;"/><rect fill="#F1F1F1" height="37.6094" rx="12.5" ry="12.5" style="stroke:#181818;stroke-width:1.5;" width="104" x="234" y="192.8281"/><text fill="#000000" font-family="sans-serif" font-size="14" lengthAdjust="spacing" textLength="84" x="244" y="217.3613">&#30456;&#23545;&#36131;&#20219;&#33021;&#21147;</text><rect fill="#F1F1F1" height="37.6094" rx="12.5" ry="12.5" style="stroke:#181818;stroke-width:1.5;" width="76" x="388" y="192.8281"/><text fill="#000000" font-family="sans-serif" font-size="14" lengthAdjust="spacing" textLength="56" x="398" y="217.3613">&#21322;&#31934;&#31070;&#30149;</text><path d="M338,211.6328 L348,211.6328 C363,211.6328 363,211.6328 378,211.6328 L388,211.6328 " fill="none" style="stroke:#181818;stroke-width:1;"/><path d="M184,269.2422 L194,269.2422 C209,269.2422 209,211.6328 224,211.6328 L234,211.6328 " fill="none" style="stroke:#181818;stroke-width:1;"/><rect fill="#F1F1F1" height="37.6094" rx="12.5" ry="12.5" style="stroke:#181818;stroke-width:1.5;" width="118" x="234" y="308.0469"/><text fill="#000000" font-family="sans-serif" font-size="14" lengthAdjust="spacing" textLength="98" x="244" y="332.5801">&#23436;&#20840;&#26080;&#36131;&#20219;&#33021;&#21147;</text><rect fill="#F1F1F1" height="37.6094" rx="12.5" ry="12.5" style="stroke:#181818;stroke-width:1.5;" width="48" x="402" y="250.4375"/><text fill="#000000" font-family="sans-serif" font-size="14" lengthAdjust="spacing" textLength="28" x="412" y="274.9707">&#19968;&#33324;</text><rect fill="#F1F1F1" height="37.6094" rx="12.5" ry="12.5" style="stroke:#181818;stroke-width:1.5;" width="90" x="500" y="250.4375"/><text fill="#000000" font-family="sans-serif" font-size="14" lengthAdjust="spacing" textLength="70" x="510" y="274.9707">&#23436;&#20840;&#31934;&#31070;&#30149;</text><path d="M450,269.2422 L460,269.2422 C475,269.2422 475,269.2422 490,269.2422 L500,269.2422 " fill="none" style="stroke:#181818;stroke-width:1;"/><path d="M352,326.8516 L362,326.8516 C377,326.8516 377,269.2422 392,269.2422 L402,269.2422 " fill="none" style="stroke:#181818;stroke-width:1;"/><rect fill="#F1F1F1" height="37.6094" rx="12.5" ry="12.5" style="stroke:#181818;stroke-width:1.5;" width="48" x="402" y="308.0469"/><text fill="#000000" font-family="sans-serif" font-size="14" lengthAdjust="spacing" textLength="28" x="412" y="332.5801">&#29305;&#27530;</text><rect fill="#F1F1F1" height="37.6094" rx="12.5" ry="12.5" style="stroke:#181818;stroke-width:1.5;" width="104" x="500" y="308.0469"/><text fill="#000000" font-family="sans-serif" font-size="14" lengthAdjust="spacing" textLength="84" x="510" y="332.5801">&#38388;&#27463;&#24615;&#31934;&#31070;&#30149;</text><path d="M450,326.8516 L460,326.8516 C475,326.8516 475,326.8516 490,326.8516 L500,326.8516 " fill="none" style="stroke:#181818;stroke-width:1;"/><path d="M352,326.8516 L362,326.8516 C377,326.8516 377,326.8516 392,326.8516 L402,326.8516 " fill="none" style="stroke:#181818;stroke-width:1;"/><rect fill="#F1F1F1" height="37.6094" rx="12.5" ry="12.5" style="stroke:#181818;stroke-width:1.5;" width="48" x="402" y="365.6563"/><text fill="#000000" font-family="sans-serif" font-size="14" lengthAdjust="spacing" textLength="28" x="412" y="390.1895">&#25490;&#38500;</text><rect fill="#F1F1F1" height="37.6094" rx="12.5" ry="12.5" style="stroke:#181818;stroke-width:1.5;" width="202" x="500" y="365.6563"/><text fill="#000000" font-family="sans-serif" font-size="14" lengthAdjust="spacing" textLength="182" x="510" y="390.1895">&#24515;&#29702;&#30142;&#30149;&#65288;&#25233;&#37057;&#30151;&#12289;&#24378;&#36843;&#30151;&#65289;</text><path d="M450,384.4609 L460,384.4609 C475,384.4609 475,384.4609 490,384.4609 L500,384.4609 " fill="none" style="stroke:#181818;stroke-width:1;"/><path d="M352,326.8516 L362,326.8516 C377,326.8516 377,384.4609 392,384.4609 L402,384.4609 " fill="none" style="stroke:#181818;stroke-width:1;"/><path d="M184,269.2422 L194,269.2422 C209,269.2422 209,326.8516 224,326.8516 L234,326.8516 " fill="none" style="stroke:#181818;stroke-width:1;"/><path d="M86,341.2539 L96,341.2539 C111,341.2539 111,269.2422 126,269.2422 L136,269.2422 " fill="none" style="stroke:#181818;stroke-width:1;"/><rect fill="#F1F1F1" height="37.6094" rx="12.5" ry="12.5" style="stroke:#181818;stroke-width:1.5;" width="76" x="136" y="524.082"/><text fill="#000000" font-family="sans-serif" font-size="14" lengthAdjust="spacing" textLength="56" x="146" y="548.6152">&#29305;&#27530;&#20154;&#32676;</text><rect fill="#F1F1F1" height="37.6094" rx="12.5" ry="12.5" style="stroke:#181818;stroke-width:1.5;" width="62" x="262" y="452.0703"/><text fill="#000000" font-family="sans-serif" font-size="14" lengthAdjust="spacing" textLength="42" x="272" y="476.6035">&#27531;&#30142;&#20154;</text><rect fill="#F1F1F1" height="37.6094" rx="12.5" ry="12.5" style="stroke:#181818;stroke-width:1.5;" width="104" x="374" y="423.2656"/><text fill="#000000" font-family="sans-serif" font-size="14" lengthAdjust="spacing" textLength="84" x="384" y="447.7988">&#21448;&#32843;&#21448;&#21713;&#30340;&#20154;</text><path d="M324,470.875 L334,470.875 C349,470.875 349,442.0703 364,442.0703 L374,442.0703 " fill="none" style="stroke:#181818;stroke-width:1;"/><rect fill="#F1F1F1" height="37.6094" rx="12.5" ry="12.5" style="stroke:#181818;stroke-width:1.5;" width="48" x="374" y="480.875"/><text fill="#000000" font-family="sans-serif" font-size="14" lengthAdjust="spacing" textLength="28" x="384" y="505.4082">&#30450;&#20154;</text><path d="M324,470.875 L334,470.875 C349,470.875 349,499.6797 364,499.6797 L374,499.6797 " fill="none" style="stroke:#181818;stroke-width:1;"/><path d="M212,542.8867 L222,542.8867 C237,542.8867 237,470.875 252,470.875 L262,470.875 " fill="none" style="stroke:#181818;stroke-width:1;"/><rect fill="#F1F1F1" height="37.6094" rx="12.5" ry="12.5" style="stroke:#181818;stroke-width:1.5;" width="76" x="262" y="567.2891"/><text fill="#000000" font-family="sans-serif" font-size="14" lengthAdjust="spacing" textLength="56" x="272" y="591.8223">&#37257;&#37202;&#30340;&#20154;</text><rect fill="#F1F1F1" height="37.6094" rx="12.5" ry="12.5" style="stroke:#181818;stroke-width:1.5;" width="90" x="388" y="538.4844"/><text fill="#000000" font-family="sans-serif" font-size="14" lengthAdjust="spacing" textLength="70" x="398" y="563.0176">&#29983;&#29702;&#24615;&#37257;&#37202;</text><path d="M338,586.0938 L348,586.0938 C363,586.0938 363,557.2891 378,557.2891 L388,557.2891 " fill="none" style="stroke:#181818;stroke-width:1;"/><rect fill="#F1F1F1" height="37.6094" rx="12.5" ry="12.5" style="stroke:#181818;stroke-width:1.5;" width="188" x="388" y="596.0938"/><text fill="#000000" font-family="sans-serif" font-size="14" lengthAdjust="spacing" textLength="168" x="398" y="620.627">&#30149;&#29702;&#24615;&#37257;&#37202;&#65288;&#23646;&#20110;&#31934;&#31070;&#30149;&#65289;</text><path d="M338,586.0938 L348,586.0938 C363,586.0938 363,614.8984 378,614.8984 L388,614.8984 " fill="none" style="stroke:#181818;stroke-width:1;"/><path d="M212,542.8867 L222,542.8867 C237,542.8867 237,586.0938 252,586.0938 L262,586.0938 " fill="none" style="stroke:#181818;stroke-width:1;"/><rect fill="#F1F1F1" height="37.6094" rx="12.5" ry="12.5" style="stroke:#181818;stroke-width:1.5;" width="76" x="262" y="624.8984"/><text fill="#000000" font-family="sans-serif" font-size="14" lengthAdjust="spacing" textLength="56" x="272" y="649.4316">&#21560;&#27602;&#30340;&#20154;</text><path d="M212,542.8867 L222,542.8867 C237,542.8867 237,643.7031 252,643.7031 L262,643.7031 " fill="none" style="stroke:#181818;stroke-width:1;"/><path d="M86,341.2539 L96,341.2539 C111,341.2539 111,542.8867 126,542.8867 L136,542.8867 " fill="none" style="stroke:#181818;stroke-width:1;"/><!--SRC=[xLTRRzD857xthvZLlhH8IIcAAbGXL1fQiQX1Y1JU9_RW3hLdhF4uA5fLQbKAlUoMoo8Yg5IGA4kbtIq28LJIKduCSPm-yHVs-0PE4yVPftqXYYBxdEzyPyxC-OwT2LjY8KtAD1DRYl8JPQhXQ0JbyoF9horh1Xcn3CoaOnev7v-3W5nWprEmAOfo2hNVlsmU7BINFxdhMmg2podKshxJFFWGt8I6zj5kUsydWObmcw_TrGyTeTxkXjluCu5nztvpLtQxaaJehNttpSUUpYZwztNltP7tQjkhhtIHjkel-eGsznVRgtzt69F1tRJHajO-jlRMUuGTrz-t_hdNMdoT5jdQV7JyTATNmi_BteExtfCZYFbwkDfQVtYylEJLxtrPN78F6-tFVy7rryCr9Rc0PgFX7Uqaztfl0nZ0V7A7xg-sbpRWr_tZeVViJZV0stgND48XTzUELnxrnZv-3Yk56aFCIMzz9Uc5Kjotsyt6vhSDYOk8LlPWl_KcpgDC46ZNk6KdEZluND2IvvN8S95YNM0J_Gfa-OhXaE0AeKcipkk2EqmhSeCBP51zJlf-y2xuM0sBUK6q57ZaZS6w88JrOmu02NGj0roBiLnWfgSjEdJ6KCiHbf463PqnDBsmH562ssbiFqzFJquMYp6oHWo3tqx1Xiu0gkGfOrmbJAPWRHOW4PhcJ8QcYW6Om3P36GbjSA8r9QIJG4OvmqPHK3DUxdUav2QMl2VsgY0M5jYt_9Um2nKkP5QfWt99IKnBPftkW6n5Ri8HoxGpYoBJwE2JPqI71WJIv6RsKqhMGMc4MFPyBK0lT2MO0kLM36hFfSii4T-PxVOSbIVt9YND5IwpCmLLgJNC1gXAnHgHtv9XLQLQUajto3-B-IONn8xGFZVSgwI4Rn57z3qEdHkm1C6rH0TcI2YE2F9OtAQILia5DI67hX623J9e8TzBWBF0cTGcXQdjpvj1UYeQlJwvxLHk4TMdJziTN8Ld1H43ybOf1mK5r3oBsT_tWRSxqh9F38gVmpQri_lbXCZxwxgZx_jFb43j2ygvaUXH-UFDxSURs__nvdRL_pjnlJI3gaJO_d0OpPyvVQQGFpjKnX9TuLKqEePEZuuN2kE5CLGipoBVFQmCbNwPHJPtO3OY3IQ7e1N7byYmSXbNCRhcW61CCexykw7PqZ0gJyL6DCMgL71cWaYKopTA8GXTuh9iSHc0nmgvIIfHcGXO5hfHKYwIczWn98IgNADC7qVNPwTpPvKP49E3TKW4MYs2ogIeWQ_yBm00]--></g></svg>