<svg xmlns="http://www.w3.org/2000/svg" xmlns:xlink="http://www.w3.org/1999/xlink" contentStyleType="text/css" height="425px" preserveAspectRatio="none" style="width:1112px;height:425px;background:#FFFFFF;" version="1.1" viewBox="0 0 1112 425" width="1112px" zoomAndPan="magnify"><defs/><g><rect fill="#F1F1F1" height="37.6094" rx="12.5" ry="12.5" style="stroke:#181818;stroke-width:1.5;" width="164.6621" x="10" y="192.8281"/><text fill="#000000" font-family="sans-serif" font-size="14" lengthAdjust="spacing" textLength="144.6621" x="20" y="217.3613">&#36131;&#20219;&#24180;&#40836;-&#30456;&#23545;&#36131;&#20219;&#24180;&#40836;</text><rect fill="#F1F1F1" height="37.6094" rx="12.5" ry="12.5" style="stroke:#181818;stroke-width:1.5;" width="55.8066" x="224.6621" y="164.0234"/><text fill="#000000" font-family="sans-serif" font-size="14" lengthAdjust="spacing" textLength="35.8066" x="234.6621" y="188.5566">12-13</text><rect fill="#F1F1F1" height="37.6094" rx="12.5" ry="12.5" style="stroke:#181818;stroke-width:1.5;" width="41.7861" x="330.4688" y="164.0234"/><text fill="#000000" font-family="sans-serif" font-size="14" lengthAdjust="spacing" textLength="21.7861" x="340.4688" y="188.5566">2&#32618;</text><rect fill="#F1F1F1" height="37.6094" rx="12.5" ry="12.5" style="stroke:#181818;stroke-width:1.5;" width="76" x="422.2549" y="48.8047"/><text fill="#000000" font-family="sans-serif" font-size="14" lengthAdjust="spacing" textLength="56" x="432.2549" y="73.3379">&#20004;&#20010;&#34892;&#20026;</text><rect fill="#F1F1F1" height="37.6094" rx="12.5" ry="12.5" style="stroke:#181818;stroke-width:1.5;" width="76" x="548.2549" y="20"/><text fill="#000000" font-family="sans-serif" font-size="14" lengthAdjust="spacing" textLength="56" x="558.2549" y="44.5332">&#25925;&#24847;&#26432;&#20154;</text><path d="M498.2549,67.6094 L508.2549,67.6094 C523.2549,67.6094 523.2549,38.8047 538.2549,38.8047 L548.2549,38.8047 " fill="none" style="stroke:#181818;stroke-width:1;"/><rect fill="#F1F1F1" height="37.6094" rx="12.5" ry="12.5" style="stroke:#181818;stroke-width:1.5;" width="76" x="548.2549" y="77.6094"/><text fill="#000000" font-family="sans-serif" font-size="14" lengthAdjust="spacing" textLength="56" x="558.2549" y="102.1426">&#25925;&#24847;&#37325;&#20260;</text><path d="M498.2549,67.6094 L508.2549,67.6094 C523.2549,67.6094 523.2549,96.4141 538.2549,96.4141 L548.2549,96.4141 " fill="none" style="stroke:#181818;stroke-width:1;"/><path d="M372.2549,182.8281 L382.2549,182.8281 C397.2549,182.8281 397.2549,67.6094 412.2549,67.6094 L422.2549,67.6094 " fill="none" style="stroke:#181818;stroke-width:1;"/><rect fill="#F1F1F1" height="37.6094" rx="12.5" ry="12.5" style="stroke:#181818;stroke-width:1.5;" width="76" x="422.2549" y="164.0234"/><text fill="#000000" font-family="sans-serif" font-size="14" lengthAdjust="spacing" textLength="56" x="432.2549" y="188.5566">&#20004;&#20010;&#32467;&#26524;</text><rect fill="#F1F1F1" height="37.6094" rx="12.5" ry="12.5" style="stroke:#181818;stroke-width:1.5;" width="48" x="548.2549" y="135.2188"/><text fill="#000000" font-family="sans-serif" font-size="14" lengthAdjust="spacing" textLength="28" x="558.2549" y="159.752">&#27515;&#20129;</text><path d="M498.2549,182.8281 L508.2549,182.8281 C523.2549,182.8281 523.2549,154.0234 538.2549,154.0234 L548.2549,154.0234 " fill="none" style="stroke:#181818;stroke-width:1;"/><rect fill="#F1F1F1" height="37.6094" rx="12.5" ry="12.5" style="stroke:#181818;stroke-width:1.5;" width="112.1758" x="548.2549" y="192.8281"/><text fill="#000000" font-family="sans-serif" font-size="14" lengthAdjust="spacing" textLength="92.1758" x="558.2549" y="217.3613">&#37325;&#20260;+&#20005;&#37325;&#27531;&#30142;</text><path d="M498.2549,182.8281 L508.2549,182.8281 C523.2549,182.8281 523.2549,211.6328 538.2549,211.6328 L548.2549,211.6328 " fill="none" style="stroke:#181818;stroke-width:1;"/><path d="M372.2549,182.8281 L382.2549,182.8281 C397.2549,182.8281 397.2549,182.8281 412.2549,182.8281 L422.2549,182.8281 " fill="none" style="stroke:#181818;stroke-width:1;"/><rect fill="#F1F1F1" height="37.6094" rx="12.5" ry="12.5" style="stroke:#181818;stroke-width:1.5;" width="76" x="422.2549" y="279.2422"/><text fill="#000000" font-family="sans-serif" font-size="14" lengthAdjust="spacing" textLength="56" x="432.2549" y="303.7754">&#19968;&#20010;&#31243;&#24207;</text><rect fill="#F1F1F1" height="37.6094" rx="12.5" ry="12.5" style="stroke:#181818;stroke-width:1.5;" width="146" x="548.2549" y="279.2422"/><text fill="#000000" font-family="sans-serif" font-size="14" lengthAdjust="spacing" textLength="126" x="558.2549" y="303.7754">&#26368;&#39640;&#20154;&#27665;&#26816;&#23519;&#38498;&#26680;&#20934;</text><rect fill="#F1F1F1" height="37.6094" rx="12.5" ry="12.5" style="stroke:#181818;stroke-width:1.5;" width="174" x="744.2549" y="250.4375"/><text fill="#000000" font-family="sans-serif" font-size="14" lengthAdjust="spacing" textLength="154" x="754.2549" y="274.9707">&#20026;&#20160;&#20040;&#19981;&#25214;&#26368;&#39640;&#27861;&#38498;&#21602;&#65311;</text><path d="M694.2549,298.0469 L704.2549,298.0469 C719.2549,298.0469 719.2549,269.2422 734.2549,269.2422 L744.2549,269.2422 " fill="none" style="stroke:#181818;stroke-width:1;"/><rect fill="#F1F1F1" height="37.6094" rx="12.5" ry="12.5" style="stroke:#181818;stroke-width:1.5;" width="356" x="744.2549" y="308.0469"/><text fill="#000000" font-family="sans-serif" font-size="14" lengthAdjust="spacing" textLength="336" x="754.2549" y="332.5801">&#22240;&#20026;&#36825;&#37324;&#28041;&#21450;&#12302;&#36861;&#35785;&#26435;&#12303;&#65292;&#12302;&#36861;&#35785;&#26435;&#12303;&#26159;&#26816;&#23519;&#38498;&#30340;&#26435;&#21147;</text><path d="M694.2549,298.0469 L704.2549,298.0469 C719.2549,298.0469 719.2549,326.8516 734.2549,326.8516 L744.2549,326.8516 " fill="none" style="stroke:#181818;stroke-width:1;"/><path d="M498.2549,298.0469 L508.2549,298.0469 C523.2549,298.0469 523.2549,298.0469 538.2549,298.0469 L548.2549,298.0469 " fill="none" style="stroke:#181818;stroke-width:1;"/><path d="M372.2549,182.8281 L382.2549,182.8281 C397.2549,182.8281 397.2549,298.0469 412.2549,298.0469 L422.2549,298.0469 " fill="none" style="stroke:#181818;stroke-width:1;"/><path d="M280.4688,182.8281 L290.4688,182.8281 C305.4688,182.8281 305.4688,182.8281 320.4688,182.8281 L330.4688,182.8281 " fill="none" style="stroke:#181818;stroke-width:1;"/><path d="M174.6621,211.6328 L184.6621,211.6328 C199.6621,211.6328 199.6621,182.8281 214.6621,182.8281 L224.6621,182.8281 " fill="none" style="stroke:#181818;stroke-width:1;"/><rect fill="#F1F1F1" height="37.6094" rx="12.5" ry="12.5" style="stroke:#181818;stroke-width:1.5;" width="55.8066" x="224.6621" y="365.6563"/><text fill="#000000" font-family="sans-serif" font-size="14" lengthAdjust="spacing" textLength="35.8066" x="234.6621" y="390.1895">14-15</text><rect fill="#F1F1F1" height="37.6094" rx="12.5" ry="12.5" style="stroke:#181818;stroke-width:1.5;" width="41.7861" x="330.4688" y="365.6563"/><text fill="#000000" font-family="sans-serif" font-size="14" lengthAdjust="spacing" textLength="21.7861" x="340.4688" y="390.1895">8&#32618;</text><rect fill="#F1F1F1" height="37.6094" rx="12.5" ry="12.5" style="stroke:#181818;stroke-width:1.5;" width="48" x="422.2549" y="365.6563"/><text fill="#000000" font-family="sans-serif" font-size="14" lengthAdjust="spacing" textLength="28" x="432.2549" y="390.1895">&#21475;&#35776;</text><rect fill="#F1F1F1" height="37.6094" rx="12.5" ry="12.5" style="stroke:#181818;stroke-width:1.5;" width="230" x="520.2549" y="365.6563"/><text fill="#000000" font-family="sans-serif" font-size="14" lengthAdjust="spacing" textLength="210" x="530.2549" y="390.1895">&#28903;&#26432;&#28139;&#25504;&#65292;&#21830;&#36137;&#26292;&#24466;&#65288;&#20260;&#36137;&#29190;&#25237;&#65289;</text><path d="M470.2549,384.4609 L480.2549,384.4609 C495.2549,384.4609 495.2549,384.4609 510.2549,384.4609 L520.2549,384.4609 " fill="none" style="stroke:#181818;stroke-width:1;"/><path d="M372.2549,384.4609 L382.2549,384.4609 C397.2549,384.4609 397.2549,384.4609 412.2549,384.4609 L422.2549,384.4609 " fill="none" style="stroke:#181818;stroke-width:1;"/><path d="M280.4688,384.4609 L290.4688,384.4609 C305.4688,384.4609 305.4688,384.4609 320.4688,384.4609 L330.4688,384.4609 " fill="none" style="stroke:#181818;stroke-width:1;"/><path d="M174.6621,211.6328 L184.6621,211.6328 C199.6621,211.6328 199.6621,384.4609 214.6621,384.4609 L224.6621,384.4609 " fill="none" style="stroke:#181818;stroke-width:1;"/><!--SRC=[xLVVRnD747w_ls8hNX8gEpXreoX2LOX9rA8OeJhmlhvRd2LtjzRUdf5LHR94cby4BAXI0O4I28WMrBfIezQnJVXZk3lRJ_aNEdVd2tRiyxbI7x7yS3lppJSxE_EjpxE6m5neL5Sqd9UaBwWkgwP2K3m-qVqrH54b4taLwyBKr9YBZq50pBF7ATWaIJgFMeS7Lhrk7nssZzTYpRsgNJdgDaa8FkTHOZAM-CfxzjUJpVTlJvU-oQg-igflMozsh6gjn-MxdTqVdRMoywnarSBTxOrxLkFLGE9c_IVdbwU38d-lMxKN0nm-sPTMzJKyEN_SRVvytCTSSfb_lMlNoeEOdvRQxnx1Vfq_7pW79RlolFtufRDVjJVM-z01OSsgbwoZJQjwpzawzWcSltOXpdxmygJnF2JEtjk7qDQ7n-sD7UVlBRky_R5ql_NXVQkovJoxyx5KFcdidB4uZogdUse-MGEZlRqNT2iPItpTrQtf_cxPvODMfJIWwEQTDz0avvztplrzo6hlhhSEVtEU7Dh73qyQct2Wi6nkhZlRkoUDBPYWMG9p6CpYREzeNlHcxHkfOxXCSOvZ3Vq0QUDPrIJU4q9pM5x9SMRgIegfZ2ELvfQ5wmVlgejLC5_XH0c1Txm1ECS9qOSnUu0kT342N0omZ6Cz5xPftnb0yoRFgs5Gtnb0mmlhAeep8upjtCB2t5mg5I2BH5NPxH2ix_IWKfpgEfE9BaAmXkuX4LfWkl1DMHKmdcsHwiItGKUBaaydW8mo7QifJhLWkv-GWcbOi87OQvpaCSUkvR-4NSeoBg9A7PLB2ABbHLHtHsHBCGrQBC9wreaCeuDFN2Sv640WxJxCOKg9QfH2IDvOANherRu4yw3Sh4gDvN2PTSNtPhkzJCNPimb9SvM9w4nULN8HwoDK9ME5YDDaM9Qf4ZxIFVAFOhx9E34wQ9SRrZ99url4v4FRaMCgR84pfMi28oGKH7XvyioWWXR89RbB3drN25R9g8LyAW5wWIEfDGgtjdlVZ39JdQlN9JVCx2qYk_HXfuCBy5j1-8Yy1Sf0GHurYs9spttau-vesIK6nIzZWnhHyt96vCDrtJFtmsyKJ-shqiM9pa_bvrUopwza_-ihsJNt3y3rz28g46wuga_49ozC9kFJOnaiq5LMG8afT24naqpE9ATGAhE4NFUuD9R-RWaPp8HB3obm9N2QDTtP7vUku096tvkW18tC87SrjfGUHvdvm8ZczGBbJDTW-gKhDz8-27tBH2RFX0UUIiRcg40Pmc5Rw4PQkankObCL42epXUgv6NHzQI4sBIs2IaoSWqGWmXJ8H_0Y-3B_0W00]--></g></svg>