<svg xmlns="http://www.w3.org/2000/svg" xmlns:xlink="http://www.w3.org/1999/xlink" contentStyleType="text/css" height="1452px" preserveAspectRatio="none" style="width:1296px;height:1452px;background:#FFFFFF;" version="1.1" viewBox="0 0 1296 1452" width="1296px" zoomAndPan="magnify"><title>&#22269;&#23478;&#27861;&#30410; - &#36138;&#27745;&#36159;&#36162; - &#36138;&#27745;&#32618;&#65288;&#32771;&#28857;&#65289;</title><defs/><g><text fill="#000000" font-family="sans-serif" font-size="14" font-weight="bold" lengthAdjust="spacing" textLength="241.4453" x="526.0942" y="34.5332">&#22269;&#23478;&#27861;&#30410; - &#36138;&#27745;&#36159;&#36162; - &#36138;&#27745;&#32618;&#65288;&#32771;&#28857;&#65289;</text><rect fill="#F1F1F1" height="37.6094" rx="12.5" ry="12.5" style="stroke:#181818;stroke-width:1.5;" width="122.6963" x="10" y="725.9922"/><text fill="#000000" font-family="sans-serif" font-size="14" lengthAdjust="spacing" textLength="102.6963" x="20" y="750.5254">&#36138;&#27745;&#32618;&#65288;P368&#65289;</text><rect fill="#F1F1F1" height="37.6094" rx="12.5" ry="12.5" style="stroke:#181818;stroke-width:1.5;" width="76" x="182.6963" y="430.2344"/><text fill="#000000" font-family="sans-serif" font-size="14" lengthAdjust="spacing" textLength="56" x="192.6963" y="454.7676">&#26500;&#25104;&#35201;&#20214;</text><rect fill="#F1F1F1" height="37.6094" rx="12.5" ry="12.5" style="stroke:#181818;stroke-width:1.5;" width="48" x="308.6963" y="356.9375"/><text fill="#000000" font-family="sans-serif" font-size="14" lengthAdjust="spacing" textLength="28" x="318.6963" y="381.4707">&#23458;&#35266;</text><rect fill="#F1F1F1" height="37.6094" rx="12.5" ry="12.5" style="stroke:#181818;stroke-width:1.5;" width="76" x="406.6963" y="356.9375"/><text fill="#000000" font-family="sans-serif" font-size="14" lengthAdjust="spacing" textLength="56" x="416.6963" y="381.4707">&#34892;&#20026;&#20844;&#24335;</text><rect fill="#F1F1F1" height="37.6094" rx="12.5" ry="12.5" style="stroke:#181818;stroke-width:1.5;" width="112.5859" x="532.6963" y="356.9375"/><text fill="#000000" font-family="sans-serif" font-size="14" lengthAdjust="spacing" textLength="92.5859" x="542.6963" y="381.4707">&#36138;&#27745;&#32618; = A + B</text><rect fill="#F1F1F1" height="37.6094" rx="12.5" ry="12.5" style="stroke:#181818;stroke-width:1.5;" width="29.3379" x="695.2822" y="147.5938"/><text fill="#000000" font-family="sans-serif" font-size="14" lengthAdjust="spacing" textLength="9.3379" x="705.2822" y="172.127">A</text><rect fill="#F1F1F1" height="37.6094" rx="12.5" ry="12.5" style="stroke:#181818;stroke-width:1.5;" width="76" x="774.6201" y="147.5938"/><text fill="#000000" font-family="sans-serif" font-size="14" lengthAdjust="spacing" textLength="56" x="784.6201" y="172.127">&#23454;&#34892;&#34892;&#20026;</text><rect fill="#F1F1F1" height="37.6094" rx="12.5" ry="12.5" style="stroke:#181818;stroke-width:1.5;" width="104" x="900.6201" y="58.6094"/><text fill="#000000" font-family="sans-serif" font-size="14" lengthAdjust="spacing" textLength="84" x="910.6201" y="83.1426">&#20405;&#21534;&#65288;&#20405;&#21344;&#65289;</text><path d="M850.6201,166.3984 L860.6201,166.3984 C875.6201,166.3984 875.6201,77.4141 890.6201,77.4141 L900.6201,77.4141 " fill="none" style="stroke:#181818;stroke-width:1;"/><rect fill="#F1F1F1" height="37.6094" rx="12.5" ry="12.5" style="stroke:#181818;stroke-width:1.5;" width="104" x="900.6201" y="116.2188"/><text fill="#000000" font-family="sans-serif" font-size="14" lengthAdjust="spacing" textLength="84" x="910.6201" y="140.752">&#30423;&#21462;&#65288;&#30423;&#31363;&#65289;</text><rect fill="#F1F1F1" height="42.75" rx="12.5" ry="12.5" style="stroke:#181818;stroke-width:1.5;" width="100.8896" x="1054.6201" y="113.6484"/><text fill="#000000" font-family="sans-serif" font-size="14" lengthAdjust="spacing" textLength="56" x="1064.6201" y="143.3223">&#20849;&#21516;&#21344;&#26377;</text><path d="M1132.0931,143.4818 C1132.0931,144.6484 1132.0931,144.6484 1130.9264,144.6484 C1129.7598,144.6484 1129.7598,143.4818 1129.7598,143.4818 L1129.7598,124.8151 C1129.7598,123.6484 1129.7598,123.6484 1130.9264,123.6484 C1132.0931,123.6484 1132.0931,124.8151 1132.0931,124.8151 L1132.0931,143.4818 " fill="#66757F" style="stroke:;stroke-width:0;stroke-dasharray:;"/><path d="M1130.9264,125.9818 C1130.9264,124.6984 1131.8808,124.0859 1133.0474,124.6209 L1142.8048,129.0933 C1143.9715,129.6282 1143.9715,130.5032 1142.8048,131.0375 L1133.0474,135.5099 C1131.8808,136.0443 1130.9264,135.4318 1130.9264,134.1484 L1130.9264,125.9818 " fill="#DD2E44" style="stroke:;stroke-width:0;stroke-dasharray:;"/><path d="M1004.6201,135.0234 L1014.6201,135.0234 C1029.6201,135.0234 1029.6201,135.0234 1044.6201,135.0234 L1054.6201,135.0234 " fill="none" style="stroke:#181818;stroke-width:1;"/><path d="M850.6201,166.3984 L860.6201,166.3984 C875.6201,166.3984 875.6201,135.0234 890.6201,135.0234 L900.6201,135.0234 " fill="none" style="stroke:#181818;stroke-width:1;"/><rect fill="#F1F1F1" height="37.6094" rx="12.5" ry="12.5" style="stroke:#181818;stroke-width:1.5;" width="104" x="900.6201" y="173.8281"/><text fill="#000000" font-family="sans-serif" font-size="14" lengthAdjust="spacing" textLength="84" x="910.6201" y="198.3613">&#39575;&#21462;&#65288;&#35784;&#39575;&#65289;</text><path d="M850.6201,166.3984 L860.6201,166.3984 C875.6201,166.3984 875.6201,192.6328 890.6201,192.6328 L900.6201,192.6328 " fill="none" style="stroke:#181818;stroke-width:1;"/><rect fill="#F1F1F1" height="37.6094" rx="12.5" ry="12.5" style="stroke:#181818;stroke-width:1.5;" width="48" x="900.6201" y="234.0078"/><text fill="#000000" font-family="sans-serif" font-size="14" lengthAdjust="spacing" textLength="28" x="910.6201" y="258.541">&#32771;&#28857;</text><rect fill="#F1F1F1" height="42.75" rx="12.5" ry="12.5" style="stroke:#181818;stroke-width:1.5;" width="128.8896" x="998.6201" y="231.4375"/><text fill="#000000" font-family="sans-serif" font-size="14" lengthAdjust="spacing" textLength="84" x="1008.6201" y="261.1113">&#23454;&#34892;&#34892;&#20026;&#32570;&#22833;</text><path d="M1104.0931,261.2708 C1104.0931,262.4375 1104.0931,262.4375 1102.9264,262.4375 C1101.7598,262.4375 1101.7598,261.2708 1101.7598,261.2708 L1101.7598,242.6042 C1101.7598,241.4375 1101.7598,241.4375 1102.9264,241.4375 C1104.0931,241.4375 1104.0931,242.6042 1104.0931,242.6042 L1104.0931,261.2708 " fill="#66757F" style="stroke:;stroke-width:0;stroke-dasharray:;"/><path d="M1102.9264,243.7708 C1102.9264,242.4875 1103.8808,241.875 1105.0474,242.4099 L1114.8048,246.8823 C1115.9715,247.4173 1115.9715,248.2923 1114.8048,248.8266 L1105.0474,253.299 C1103.8808,253.8333 1102.9264,253.2208 1102.9264,251.9375 L1102.9264,243.7708 " fill="#DD2E44" style="stroke:;stroke-width:0;stroke-dasharray:;"/><path d="M948.6201,252.8125 L958.6201,252.8125 C973.6201,252.8125 973.6201,252.8125 988.6201,252.8125 L998.6201,252.8125 " fill="none" style="stroke:#181818;stroke-width:1;"/><path d="M850.6201,166.3984 L860.6201,166.3984 C875.6201,166.3984 875.6201,252.8125 890.6201,252.8125 L900.6201,252.8125 " fill="none" style="stroke:#181818;stroke-width:1;"/><path d="M724.6201,166.3984 L734.6201,166.3984 C749.6201,166.3984 749.6201,166.3984 764.6201,166.3984 L774.6201,166.3984 " fill="none" style="stroke:#181818;stroke-width:1;"/><path d="M645.2822,375.7422 L655.2822,375.7422 C670.2822,375.7422 670.2822,166.3984 685.2822,166.3984 L695.2822,166.3984 " fill="none" style="stroke:#181818;stroke-width:1;"/><rect fill="#F1F1F1" height="37.6094" rx="12.5" ry="12.5" style="stroke:#181818;stroke-width:1.5;" width="29.3379" x="695.2822" y="474.7266"/><text fill="#000000" font-family="sans-serif" font-size="14" lengthAdjust="spacing" textLength="9.3379" x="705.2822" y="499.2598">B</text><rect fill="#F1F1F1" height="37.6094" rx="12.5" ry="12.5" style="stroke:#181818;stroke-width:1.5;" width="37.124" x="774.6201" y="296.7578"/><text fill="#000000" font-family="sans-serif" font-size="14" lengthAdjust="spacing" textLength="17.124" x="784.6201" y="321.291">B1</text><rect fill="#F1F1F1" height="37.6094" rx="12.5" ry="12.5" style="stroke:#181818;stroke-width:1.5;" width="76" x="861.7441" y="296.7578"/><text fill="#000000" font-family="sans-serif" font-size="14" lengthAdjust="spacing" textLength="56" x="871.7441" y="321.291">&#34892;&#20026;&#20027;&#20307;</text><rect fill="#F1F1F1" height="42.75" rx="12.5" ry="12.5" style="stroke:#181818;stroke-width:1.5;" width="128.8896" x="987.7441" y="294.1875"/><text fill="#000000" font-family="sans-serif" font-size="14" lengthAdjust="spacing" textLength="84" x="997.7441" y="323.8613">&#22269;&#23478;&#24037;&#20316;&#20154;&#21592;</text><path d="M1093.2171,324.0208 C1093.2171,325.1875 1093.2171,325.1875 1092.0505,325.1875 C1090.8838,325.1875 1090.8838,324.0208 1090.8838,324.0208 L1090.8838,305.3542 C1090.8838,304.1875 1090.8838,304.1875 1092.0505,304.1875 C1093.2171,304.1875 1093.2171,305.3542 1093.2171,305.3542 L1093.2171,324.0208 " fill="#66757F" style="stroke:;stroke-width:0;stroke-dasharray:;"/><path d="M1092.0505,306.5208 C1092.0505,305.2375 1093.0048,304.625 1094.1715,305.1599 L1103.9289,309.6323 C1105.0955,310.1673 1105.0955,311.0423 1103.9289,311.5766 L1094.1715,316.049 C1093.0048,316.5833 1092.0505,315.9708 1092.0505,314.6875 L1092.0505,306.5208 " fill="#DD2E44" style="stroke:;stroke-width:0;stroke-dasharray:;"/><path d="M937.7441,315.5625 L947.7441,315.5625 C962.7441,315.5625 962.7441,315.5625 977.7441,315.5625 L987.7441,315.5625 " fill="none" style="stroke:#181818;stroke-width:1;"/><path d="M811.7441,315.5625 L821.7441,315.5625 C836.7441,315.5625 836.7441,315.5625 851.7441,315.5625 L861.7441,315.5625 " fill="none" style="stroke:#181818;stroke-width:1;"/><path d="M724.6201,493.5313 L734.6201,493.5313 C749.6201,493.5313 749.6201,315.5625 764.6201,315.5625 L774.6201,315.5625 " fill="none" style="stroke:#181818;stroke-width:1;"/><rect fill="#F1F1F1" height="37.6094" rx="12.5" ry="12.5" style="stroke:#181818;stroke-width:1.5;" width="37.124" x="774.6201" y="448.4922"/><text fill="#000000" font-family="sans-serif" font-size="14" lengthAdjust="spacing" textLength="17.124" x="784.6201" y="473.0254">B2</text><rect fill="#F1F1F1" height="37.6094" rx="12.5" ry="12.5" style="stroke:#181818;stroke-width:1.5;" width="76" x="861.7441" y="448.4922"/><text fill="#000000" font-family="sans-serif" font-size="14" lengthAdjust="spacing" textLength="56" x="871.7441" y="473.0254">&#34892;&#20026;&#23545;&#35937;</text><rect fill="#F1F1F1" height="37.6094" rx="12.5" ry="12.5" style="stroke:#181818;stroke-width:1.5;" width="76" x="987.7441" y="448.4922"/><text fill="#000000" font-family="sans-serif" font-size="14" lengthAdjust="spacing" textLength="56" x="997.7441" y="473.0254">&#20844;&#20849;&#36130;&#29289;</text><rect fill="#F1F1F1" height="37.6094" rx="12.5" ry="12.5" style="stroke:#181818;stroke-width:1.5;" width="118" x="1113.7441" y="356.9375"/><text fill="#000000" font-family="sans-serif" font-size="14" lengthAdjust="spacing" textLength="98" x="1123.7441" y="381.4707">&#22269;&#26377;&#36130;&#29289;&#65288;&#22269;&#65289;</text><path d="M1063.7441,467.2969 L1073.7441,467.2969 C1088.7441,467.2969 1088.7441,375.7422 1103.7441,375.7422 L1113.7441,375.7422 " fill="none" style="stroke:#181818;stroke-width:1;"/><rect fill="#F1F1F1" height="37.6094" rx="12.5" ry="12.5" style="stroke:#181818;stroke-width:1.5;" width="146" x="1113.7441" y="414.5469"/><text fill="#000000" font-family="sans-serif" font-size="14" lengthAdjust="spacing" textLength="126" x="1123.7441" y="439.0801">&#20854;&#20182;&#20844;&#20849;&#36130;&#29289;&#65288;&#20844;&#65289;</text><path d="M1063.7441,467.2969 L1073.7441,467.2969 C1088.7441,467.2969 1088.7441,433.3516 1103.7441,433.3516 L1113.7441,433.3516 " fill="none" style="stroke:#181818;stroke-width:1;"/><rect fill="#F1F1F1" height="42.75" rx="12.5" ry="12.5" style="stroke:#181818;stroke-width:1.5;" width="142.8896" x="1113.7441" y="472.1563"/><text fill="#000000" font-family="sans-serif" font-size="14" lengthAdjust="spacing" textLength="98" x="1123.7441" y="501.8301">&#31169;&#20154;&#36130;&#29289;&#65288;&#31169;&#65289;</text><path d="M1238.1947,492.6574 L1245.3318,485.5209 C1245.9011,484.9516 1245.9011,484.0282 1245.3318,483.4588 C1244.7619,482.8889 1243.839,482.8889 1243.2697,483.4588 L1236.1326,490.5953 L1228.9961,483.4588 C1228.4268,482.8889 1227.5028,482.8889 1226.934,483.4588 C1226.3641,484.0282 1226.3641,484.9516 1226.934,485.5209 L1234.0705,492.6574 L1226.9177,499.8108 C1226.3478,500.3808 1226.3478,501.3036 1226.9177,501.8729 C1227.2024,502.1576 1227.5757,502.2999 1227.949,502.2999 C1228.3224,502.2999 1228.6957,502.1576 1228.9804,501.8729 L1236.1332,494.7195 L1243.2697,501.856 C1243.5544,502.1407 1243.9277,502.283 1244.301,502.283 C1244.6744,502.283 1245.0471,502.1407 1245.3324,501.856 C1245.9017,501.2861 1245.9017,500.3633 1245.3324,499.7939 L1238.1947,492.6574 " fill="#FE0000" style="stroke:;stroke-width:0;stroke-dasharray:;"/><path d="M1063.7441,467.2969 L1073.7441,467.2969 C1088.7441,467.2969 1088.7441,493.5313 1103.7441,493.5313 L1113.7441,493.5313 " fill="none" style="stroke:#181818;stroke-width:1;"/><rect fill="#F1F1F1" height="42.75" rx="12.5" ry="12.5" style="stroke:#181818;stroke-width:1.5;" width="170.8896" x="1113.7441" y="534.9063"/><text fill="#000000" font-family="sans-serif" font-size="14" lengthAdjust="spacing" textLength="126" x="1123.7441" y="564.5801">&#36130;&#20135;&#24615;&#21033;&#30410;&#65288;&#20538;&#26435;&#65289;</text><path d="M1261.2171,564.7396 C1261.2171,565.9063 1261.2171,565.9063 1260.0505,565.9063 C1258.8838,565.9063 1258.8838,564.7396 1258.8838,564.7396 L1258.8838,546.0729 C1258.8838,544.9063 1258.8838,544.9063 1260.0505,544.9063 C1261.2171,544.9063 1261.2171,546.0729 1261.2171,546.0729 L1261.2171,564.7396 " fill="#66757F" style="stroke:;stroke-width:0;stroke-dasharray:;"/><path d="M1260.0505,547.2396 C1260.0505,545.9563 1261.0048,545.3438 1262.1715,545.8787 L1271.9289,550.3511 C1273.0955,550.886 1273.0955,551.761 1271.9289,552.2953 L1262.1715,556.7678 C1261.0048,557.3021 1260.0505,556.6896 1260.0505,555.4063 L1260.0505,547.2396 " fill="#DD2E44" style="stroke:;stroke-width:0;stroke-dasharray:;"/><path d="M1063.7441,467.2969 L1073.7441,467.2969 C1088.7441,467.2969 1088.7441,556.2813 1103.7441,556.2813 L1113.7441,556.2813 " fill="none" style="stroke:#181818;stroke-width:1;"/><path d="M937.7441,467.2969 L947.7441,467.2969 C962.7441,467.2969 962.7441,467.2969 977.7441,467.2969 L987.7441,467.2969 " fill="none" style="stroke:#181818;stroke-width:1;"/><path d="M811.7441,467.2969 L821.7441,467.2969 C836.7441,467.2969 836.7441,467.2969 851.7441,467.2969 L861.7441,467.2969 " fill="none" style="stroke:#181818;stroke-width:1;"/><path d="M724.6201,493.5313 L734.6201,493.5313 C749.6201,493.5313 749.6201,467.2969 764.6201,467.2969 L774.6201,467.2969 " fill="none" style="stroke:#181818;stroke-width:1;"/><rect fill="#F1F1F1" height="37.6094" rx="12.5" ry="12.5" style="stroke:#181818;stroke-width:1.5;" width="37.124" x="774.6201" y="626.4609"/><text fill="#000000" font-family="sans-serif" font-size="14" lengthAdjust="spacing" textLength="17.124" x="784.6201" y="650.9941">B3</text><rect fill="#F1F1F1" height="37.6094" rx="12.5" ry="12.5" style="stroke:#181818;stroke-width:1.5;" width="76" x="861.7441" y="626.4609"/><text fill="#000000" font-family="sans-serif" font-size="14" lengthAdjust="spacing" textLength="56" x="871.7441" y="650.9941">&#34892;&#20026;&#26041;&#24335;</text><rect fill="#F1F1F1" height="42.75" rx="12.5" ry="12.5" style="stroke:#181818;stroke-width:1.5;" width="128.8896" x="987.7441" y="623.8906"/><text fill="#000000" font-family="sans-serif" font-size="14" lengthAdjust="spacing" textLength="84" x="997.7441" y="653.5645">&#21033;&#29992;&#32844;&#21153;&#20415;&#21033;</text><path d="M1093.2171,653.724 C1093.2171,654.8906 1093.2171,654.8906 1092.0505,654.8906 C1090.8838,654.8906 1090.8838,653.724 1090.8838,653.724 L1090.8838,635.0573 C1090.8838,633.8906 1090.8838,633.8906 1092.0505,633.8906 C1093.2171,633.8906 1093.2171,635.0573 1093.2171,635.0573 L1093.2171,653.724 " fill="#66757F" style="stroke:;stroke-width:0;stroke-dasharray:;"/><path d="M1092.0505,636.224 C1092.0505,634.9406 1093.0048,634.3281 1094.1715,634.863 L1103.9289,639.3355 C1105.0955,639.8704 1105.0955,640.7454 1103.9289,641.2797 L1094.1715,645.7521 C1093.0048,646.2865 1092.0505,645.674 1092.0505,644.3906 L1092.0505,636.224 " fill="#DD2E44" style="stroke:;stroke-width:0;stroke-dasharray:;"/><rect fill="#F1F1F1" height="37.6094" rx="12.5" ry="12.5" style="stroke:#181818;stroke-width:1.5;" width="62" x="1166.6338" y="597.6563"/><text fill="#000000" font-family="sans-serif" font-size="14" lengthAdjust="spacing" textLength="42" x="1176.6338" y="622.1895">&#31649;&#29702;&#24615;</text><path d="M1116.6338,645.2656 L1126.6338,645.2656 C1141.6338,645.2656 1141.6338,616.4609 1156.6338,616.4609 L1166.6338,616.4609 " fill="none" style="stroke:#181818;stroke-width:1;"/><rect fill="#F1F1F1" height="37.6094" rx="12.5" ry="12.5" style="stroke:#181818;stroke-width:1.5;" width="76" x="1166.6338" y="655.2656"/><text fill="#000000" font-family="sans-serif" font-size="14" lengthAdjust="spacing" textLength="56" x="1176.6338" y="679.7988">&#23454;&#36136;&#21033;&#29992;</text><path d="M1116.6338,645.2656 L1126.6338,645.2656 C1141.6338,645.2656 1141.6338,674.0703 1156.6338,674.0703 L1166.6338,674.0703 " fill="none" style="stroke:#181818;stroke-width:1;"/><path d="M937.7441,645.2656 L947.7441,645.2656 C962.7441,645.2656 962.7441,645.2656 977.7441,645.2656 L987.7441,645.2656 " fill="none" style="stroke:#181818;stroke-width:1;"/><path d="M811.7441,645.2656 L821.7441,645.2656 C836.7441,645.2656 836.7441,645.2656 851.7441,645.2656 L861.7441,645.2656 " fill="none" style="stroke:#181818;stroke-width:1;"/><path d="M724.6201,493.5313 L734.6201,493.5313 C749.6201,493.5313 749.6201,645.2656 764.6201,645.2656 L774.6201,645.2656 " fill="none" style="stroke:#181818;stroke-width:1;"/><path d="M645.2822,375.7422 L655.2822,375.7422 C670.2822,375.7422 670.2822,493.5313 685.2822,493.5313 L695.2822,493.5313 " fill="none" style="stroke:#181818;stroke-width:1;"/><path d="M482.6963,375.7422 L492.6963,375.7422 C507.6963,375.7422 507.6963,375.7422 522.6963,375.7422 L532.6963,375.7422 " fill="none" style="stroke:#181818;stroke-width:1;"/><path d="M356.6963,375.7422 L366.6963,375.7422 C381.6963,375.7422 381.6963,375.7422 396.6963,375.7422 L406.6963,375.7422 " fill="none" style="stroke:#181818;stroke-width:1;"/><path d="M258.6963,449.0391 L268.6963,449.0391 C283.6963,449.0391 283.6963,375.7422 298.6963,375.7422 L308.6963,375.7422 " fill="none" style="stroke:#181818;stroke-width:1;"/><rect fill="#F1F1F1" height="37.6094" rx="12.5" ry="12.5" style="stroke:#181818;stroke-width:1.5;" width="48" x="308.6963" y="757.3672"/><text fill="#000000" font-family="sans-serif" font-size="14" lengthAdjust="spacing" textLength="28" x="318.6963" y="781.9004">&#20027;&#35266;</text><rect fill="#F1F1F1" height="37.6094" rx="12.5" ry="12.5" style="stroke:#181818;stroke-width:1.5;" width="174" x="406.6963" y="757.3672"/><text fill="#000000" font-family="sans-serif" font-size="14" lengthAdjust="spacing" textLength="154" x="416.6963" y="781.9004">&#38750;&#27861;&#21344;&#26377;&#20844;&#23478;&#36130;&#29289;&#30340;&#30446;&#30340;</text><rect fill="#F1F1F1" height="37.6094" rx="12.5" ry="12.5" style="stroke:#181818;stroke-width:1.5;" width="90" x="630.6963" y="712.875"/><text fill="#000000" font-family="sans-serif" font-size="14" lengthAdjust="spacing" textLength="70" x="640.6963" y="737.4082">&#20026;&#33258;&#24049;&#21344;&#26377;</text><path d="M580.6963,776.1719 L590.6963,776.1719 C605.6963,776.1719 605.6963,731.6797 620.6963,731.6797 L630.6963,731.6797 " fill="none" style="stroke:#181818;stroke-width:1;"/><rect fill="#F1F1F1" height="42.75" rx="12.5" ry="12.5" style="stroke:#181818;stroke-width:1.5;" width="128.8896" x="630.6963" y="770.4844"/><text fill="#000000" font-family="sans-serif" font-size="14" lengthAdjust="spacing" textLength="84" x="640.6963" y="800.1582">&#20026;&#31532;&#19977;&#20154;&#21344;&#26377;</text><path d="M736.1693,800.3177 C736.1693,801.4844 736.1693,801.4844 735.0026,801.4844 C733.8359,801.4844 733.8359,800.3177 733.8359,800.3177 L733.8359,781.651 C733.8359,780.4844 733.8359,780.4844 735.0026,780.4844 C736.1693,780.4844 736.1693,781.651 736.1693,781.651 L736.1693,800.3177 " fill="#66757F" style="stroke:;stroke-width:0;stroke-dasharray:;"/><path d="M735.0026,782.8177 C735.0026,781.5344 735.9569,780.9219 737.1236,781.4568 L746.881,785.9292 C748.0477,786.4641 748.0477,787.3391 746.881,787.8735 L737.1236,792.3459 C735.9569,792.8802 735.0026,792.2677 735.0026,790.9844 L735.0026,782.8177 " fill="#DD2E44" style="stroke:;stroke-width:0;stroke-dasharray:;"/><rect fill="#F1F1F1" height="37.6094" rx="12.5" ry="12.5" style="stroke:#181818;stroke-width:1.5;" width="118" x="809.5859" y="744.25"/><text fill="#000000" font-family="sans-serif" font-size="14" lengthAdjust="spacing" textLength="98" x="819.5859" y="768.7832">&#23558;&#20844;&#23478;&#36130;&#29289;&#36865;&#20154;</text><path d="M759.5859,791.8594 L769.5859,791.8594 C784.5859,791.8594 784.5859,763.0547 799.5859,763.0547 L809.5859,763.0547 " fill="none" style="stroke:#181818;stroke-width:1;"/><rect fill="#F1F1F1" height="37.6094" rx="12.5" ry="12.5" style="stroke:#181818;stroke-width:1.5;" width="160" x="809.5859" y="801.8594"/><text fill="#000000" font-family="sans-serif" font-size="14" lengthAdjust="spacing" textLength="140" x="819.5859" y="826.3926">&#20197;&#26576;&#31181;&#21517;&#20041;&#32473;&#20844;&#21496;&#25171;&#27454;</text><path d="M759.5859,791.8594 L769.5859,791.8594 C784.5859,791.8594 784.5859,820.6641 799.5859,820.6641 L809.5859,820.6641 " fill="none" style="stroke:#181818;stroke-width:1;"/><path d="M580.6963,776.1719 L590.6963,776.1719 C605.6963,776.1719 605.6963,791.8594 620.6963,791.8594 L630.6963,791.8594 " fill="none" style="stroke:#181818;stroke-width:1;"/><path d="M356.6963,776.1719 L366.6963,776.1719 C381.6963,776.1719 381.6963,776.1719 396.6963,776.1719 L406.6963,776.1719 " fill="none" style="stroke:#181818;stroke-width:1;"/><path d="M258.6963,449.0391 L268.6963,449.0391 C283.6963,449.0391 283.6963,776.1719 298.6963,776.1719 L308.6963,776.1719 " fill="none" style="stroke:#181818;stroke-width:1;"/><path d="M132.6963,744.7969 L142.6963,744.7969 C157.6963,744.7969 157.6963,449.0391 172.6963,449.0391 L182.6963,449.0391 " fill="none" style="stroke:#181818;stroke-width:1;"/><rect fill="#F1F1F1" height="37.6094" rx="12.5" ry="12.5" style="stroke:#181818;stroke-width:1.5;" width="136.6963" x="182.6963" y="979.8281"/><text fill="#000000" font-family="sans-serif" font-size="14" lengthAdjust="spacing" textLength="116.6963" x="192.6963" y="1004.3613">&#26082;&#36930;&#38382;&#39064;&#65288;P371&#65289;</text><rect fill="#F1F1F1" height="37.6094" rx="12.5" ry="12.5" style="stroke:#181818;stroke-width:1.5;" width="76" x="369.3926" y="888.2734"/><text fill="#000000" font-family="sans-serif" font-size="14" lengthAdjust="spacing" textLength="56" x="379.3926" y="912.8066">&#21028;&#26029;&#26631;&#20934;</text><rect fill="#F1F1F1" height="37.6094" rx="12.5" ry="12.5" style="stroke:#181818;stroke-width:1.5;" width="90" x="495.3926" y="859.4688"/><text fill="#000000" font-family="sans-serif" font-size="14" lengthAdjust="spacing" textLength="70" x="505.3926" y="884.002">&#31363;&#21462;&#12289;&#39575;&#21462;</text><rect fill="#F1F1F1" height="37.6094" rx="12.5" ry="12.5" style="stroke:#181818;stroke-width:1.5;" width="286" x="635.3926" y="859.4688"/><text fill="#000000" font-family="sans-serif" font-size="14" lengthAdjust="spacing" textLength="266" x="645.3926" y="884.002">&#21462;&#24471;&#25511;&#21046;&#20844;&#20849;&#36130;&#29289;&#36130;&#29289;&#65288;&#24314;&#31435;&#33258;&#24049;&#30340;&#21344;&#26377;&#65289;</text><path d="M585.3926,878.2734 L595.3926,878.2734 C610.3926,878.2734 610.3926,878.2734 625.3926,878.2734 L635.3926,878.2734 " fill="none" style="stroke:#181818;stroke-width:1;"/><path d="M445.3926,907.0781 L455.3926,907.0781 C470.3926,907.0781 470.3926,878.2734 485.3926,878.2734 L495.3926,878.2734 " fill="none" style="stroke:#181818;stroke-width:1;"/><rect fill="#F1F1F1" height="37.6094" rx="12.5" ry="12.5" style="stroke:#181818;stroke-width:1.5;" width="48" x="495.3926" y="917.0781"/><text fill="#000000" font-family="sans-serif" font-size="14" lengthAdjust="spacing" textLength="28" x="505.3926" y="941.6113">&#20405;&#21534;</text><rect fill="#F1F1F1" height="37.6094" rx="12.5" ry="12.5" style="stroke:#181818;stroke-width:1.5;" width="90" x="593.3926" y="917.0781"/><text fill="#000000" font-family="sans-serif" font-size="14" lengthAdjust="spacing" textLength="70" x="603.3926" y="941.6113">&#34892;&#20351;&#25152;&#26377;&#26435;</text><path d="M543.3926,935.8828 L553.3926,935.8828 C568.3926,935.8828 568.3926,935.8828 583.3926,935.8828 L593.3926,935.8828 " fill="none" style="stroke:#181818;stroke-width:1;"/><path d="M445.3926,907.0781 L455.3926,907.0781 C470.3926,907.0781 470.3926,935.8828 485.3926,935.8828 L495.3926,935.8828 " fill="none" style="stroke:#181818;stroke-width:1;"/><path d="M319.3926,998.6328 L329.3926,998.6328 C344.3926,998.6328 344.3926,907.0781 359.3926,907.0781 L369.3926,907.0781 " fill="none" style="stroke:#181818;stroke-width:1;"/><rect fill="#F1F1F1" height="37.6094" rx="12.5" ry="12.5" style="stroke:#181818;stroke-width:1.5;" width="48" x="369.3926" y="1008.6328"/><text fill="#000000" font-family="sans-serif" font-size="14" lengthAdjust="spacing" textLength="28" x="379.3926" y="1033.166">&#26696;&#20363;</text><rect fill="#F1F1F1" height="37.6094" rx="12.5" ry="12.5" style="stroke:#181818;stroke-width:1.5;" width="48" x="467.3926" y="977.2578"/><text fill="#000000" font-family="sans-serif" font-size="14" lengthAdjust="spacing" textLength="28" x="477.3926" y="1001.791">&#26410;&#36930;</text><rect fill="#F1F1F1" height="42.75" rx="12.5" ry="12.5" style="stroke:#181818;stroke-width:1.5;" width="161.5859" x="565.3926" y="974.6875"/><text fill="#000000" font-family="sans-serif" font-size="14" lengthAdjust="spacing" textLength="116.6963" x="575.3926" y="1004.3613">&#36138;&#27745;&#26410;&#36930;&#65288;P371&#65289;</text><path d="M703.5618,1004.5208 C703.5618,1005.6875 703.5618,1005.6875 702.3952,1005.6875 C701.2285,1005.6875 701.2285,1004.5208 701.2285,1004.5208 L701.2285,985.8542 C701.2285,984.6875 701.2285,984.6875 702.3952,984.6875 C703.5618,984.6875 703.5618,985.8542 703.5618,985.8542 L703.5618,1004.5208 " fill="#66757F" style="stroke:;stroke-width:0;stroke-dasharray:;"/><path d="M702.3952,987.0208 C702.3952,985.7375 703.3495,985.125 704.5162,985.6599 L714.2736,990.1323 C715.4403,990.6673 715.4403,991.5423 714.2736,992.0766 L704.5162,996.549 C703.3495,997.0833 702.3952,996.4708 702.3952,995.1875 L702.3952,987.0208 " fill="#DD2E44" style="stroke:;stroke-width:0;stroke-dasharray:;"/><path d="M515.3926,996.0625 L525.3926,996.0625 C540.3926,996.0625 540.3926,996.0625 555.3926,996.0625 L565.3926,996.0625 " fill="none" style="stroke:#181818;stroke-width:1;"/><path d="M417.3926,1027.4375 L427.3926,1027.4375 C442.3926,1027.4375 442.3926,996.0625 457.3926,996.0625 L467.3926,996.0625 " fill="none" style="stroke:#181818;stroke-width:1;"/><rect fill="#F1F1F1" height="37.6094" rx="12.5" ry="12.5" style="stroke:#181818;stroke-width:1.5;" width="48" x="467.3926" y="1040.0078"/><text fill="#000000" font-family="sans-serif" font-size="14" lengthAdjust="spacing" textLength="28" x="477.3926" y="1064.541">&#26082;&#36930;</text><rect fill="#F1F1F1" height="42.75" rx="12.5" ry="12.5" style="stroke:#181818;stroke-width:1.5;" width="156.8896" x="565.3926" y="1037.4375"/><text fill="#000000" font-family="sans-serif" font-size="14" lengthAdjust="spacing" textLength="112" x="575.3926" y="1067.1113">&#19981;&#24433;&#21709;&#26082;&#36930;&#30340;&#25104;&#31435;</text><path d="M698.8656,1067.2708 C698.8656,1068.4375 698.8656,1068.4375 697.6989,1068.4375 C696.5322,1068.4375 696.5322,1067.2708 696.5322,1067.2708 L696.5322,1048.6042 C696.5322,1047.4375 696.5322,1047.4375 697.6989,1047.4375 C698.8656,1047.4375 698.8656,1048.6042 698.8656,1048.6042 L698.8656,1067.2708 " fill="#66757F" style="stroke:;stroke-width:0;stroke-dasharray:;"/><path d="M697.6989,1049.7708 C697.6989,1048.4875 698.6532,1047.875 699.8199,1048.4099 L709.5773,1052.8823 C710.744,1053.4173 710.744,1054.2923 709.5773,1054.8266 L699.8199,1059.299 C698.6532,1059.8333 697.6989,1059.2208 697.6989,1057.9375 L697.6989,1049.7708 " fill="#DD2E44" style="stroke:;stroke-width:0;stroke-dasharray:;"/><rect fill="#F1F1F1" height="37.6094" rx="12.5" ry="12.5" style="stroke:#181818;stroke-width:1.5;" width="230" x="772.2822" y="1040.0078"/><text fill="#000000" font-family="sans-serif" font-size="14" lengthAdjust="spacing" textLength="210" x="782.2822" y="1064.541">&#26082;&#36930;&#21518;&#65292;&#21448;&#23558;&#36130;&#29289;&#25424;&#36192;&#32473;&#20844;&#30410;&#20107;&#19994;</text><path d="M722.2822,1058.8125 L732.2822,1058.8125 C747.2822,1058.8125 747.2822,1058.8125 762.2822,1058.8125 L772.2822,1058.8125 " fill="none" style="stroke:#181818;stroke-width:1;"/><path d="M515.3926,1058.8125 L525.3926,1058.8125 C540.3926,1058.8125 540.3926,1058.8125 555.3926,1058.8125 L565.3926,1058.8125 " fill="none" style="stroke:#181818;stroke-width:1;"/><path d="M417.3926,1027.4375 L427.3926,1027.4375 C442.3926,1027.4375 442.3926,1058.8125 457.3926,1058.8125 L467.3926,1058.8125 " fill="none" style="stroke:#181818;stroke-width:1;"/><path d="M319.3926,998.6328 L329.3926,998.6328 C344.3926,998.6328 344.3926,1027.4375 359.3926,1027.4375 L369.3926,1027.4375 " fill="none" style="stroke:#181818;stroke-width:1;"/><rect fill="#F1F1F1" height="37.6094" rx="12.5" ry="12.5" style="stroke:#181818;stroke-width:1.5;" width="164.6963" x="369.3926" y="1100.1875"/><text fill="#000000" font-family="sans-serif" font-size="14" lengthAdjust="spacing" textLength="144.6963" x="379.3926" y="1124.7207">&#26082;&#36930;&#25968;&#39069;&#38382;&#39064;&#65288;P371&#65289;</text><path d="M319.3926,998.6328 L329.3926,998.6328 C344.3926,998.6328 344.3926,1118.9922 359.3926,1118.9922 L369.3926,1118.9922 " fill="none" style="stroke:#181818;stroke-width:1;"/><path d="M132.6963,744.7969 L142.6963,744.7969 C157.6963,744.7969 157.6963,998.6328 172.6963,998.6328 L182.6963,998.6328 " fill="none" style="stroke:#181818;stroke-width:1;"/><rect fill="#F1F1F1" height="37.6094" rx="12.5" ry="12.5" style="stroke:#181818;stroke-width:1.5;" width="76" x="182.6963" y="1275.5859"/><text fill="#000000" font-family="sans-serif" font-size="14" lengthAdjust="spacing" textLength="56" x="192.6963" y="1300.1191">&#20854;&#20182;&#32771;&#28857;</text><rect fill="#F1F1F1" height="42.75" rx="12.5" ry="12.5" style="stroke:#181818;stroke-width:1.5;" width="161.5859" x="308.6963" y="1157.7969"/><text fill="#000000" font-family="sans-serif" font-size="14" lengthAdjust="spacing" textLength="116.6963" x="318.6963" y="1187.4707">&#21464;&#30456;&#36138;&#27745;&#65288;P370&#65289;</text><path d="M446.8656,1187.6302 C446.8656,1188.7969 446.8656,1188.7969 445.6989,1188.7969 C444.5322,1188.7969 444.5322,1187.6302 444.5322,1187.6302 L444.5322,1168.9635 C444.5322,1167.7969 444.5322,1167.7969 445.6989,1167.7969 C446.8656,1167.7969 446.8656,1168.9635 446.8656,1168.9635 L446.8656,1187.6302 " fill="#66757F" style="stroke:;stroke-width:0;stroke-dasharray:;"/><path d="M445.6989,1170.1302 C445.6989,1168.8469 446.6532,1168.2344 447.8199,1168.7693 L457.5773,1173.2417 C458.744,1173.7766 458.744,1174.6516 457.5773,1175.186 L447.8199,1179.6584 C446.6532,1180.1927 445.6989,1179.5802 445.6989,1178.2969 L445.6989,1170.1302 " fill="#DD2E44" style="stroke:;stroke-width:0;stroke-dasharray:;"/><path d="M258.6963,1294.3906 L268.6963,1294.3906 C283.6963,1294.3906 283.6963,1179.1719 298.6963,1179.1719 L308.6963,1179.1719 " fill="none" style="stroke:#181818;stroke-width:1;"/><rect fill="#F1F1F1" height="37.6094" rx="12.5" ry="12.5" style="stroke:#181818;stroke-width:1.5;" width="136.6963" x="308.6963" y="1306.9609"/><text fill="#000000" font-family="sans-serif" font-size="14" lengthAdjust="spacing" textLength="116.6963" x="318.6963" y="1331.4941">&#20849;&#29359;&#38382;&#39064;&#65288;P371&#65289;</text><rect fill="#F1F1F1" height="37.6094" rx="12.5" ry="12.5" style="stroke:#181818;stroke-width:1.5;" width="258" x="495.3926" y="1220.5469"/><text fill="#000000" font-family="sans-serif" font-size="14" lengthAdjust="spacing" textLength="238" x="505.3926" y="1245.0801">&#30002;&#65288;&#22269;&#23478;&#24037;&#20316;&#20154;&#21592;&#65289;&#36138;&#27745;&#65292;&#20057;&#24320;&#20551;&#21457;&#31080;</text><path d="M445.3926,1325.7656 L455.3926,1325.7656 C470.3926,1325.7656 470.3926,1239.3516 485.3926,1239.3516 L495.3926,1239.3516 " fill="none" style="stroke:#181818;stroke-width:1;"/><rect fill="#F1F1F1" height="37.6094" rx="12.5" ry="12.5" style="stroke:#181818;stroke-width:1.5;" width="531.7861" x="495.3926" y="1278.1563"/><text fill="#000000" font-family="sans-serif" font-size="14" lengthAdjust="spacing" textLength="511.7861" x="505.3926" y="1302.6895">&#30002;&#24819;&#39575;&#21462;&#36139;&#22256;&#34917;&#21161;&#65292;&#20057;&#65288;&#22269;&#23478;&#24037;&#20316;&#20154;&#21592;&#65289;&#24110;&#24320;&#20551;&#35777;&#26126;&#65292;&#39575;&#21462;&#31038;&#20445;&#23616;&#19993;&#30340;&#34917;&#21161;&#37329;1&#19975;&#20803;</text><path d="M445.3926,1325.7656 L455.3926,1325.7656 C470.3926,1325.7656 470.3926,1296.9609 485.3926,1296.9609 L495.3926,1296.9609 " fill="none" style="stroke:#181818;stroke-width:1;"/><rect fill="#F1F1F1" height="37.6094" rx="12.5" ry="12.5" style="stroke:#181818;stroke-width:1.5;" width="430.6963" x="495.3926" y="1335.7656"/><text fill="#000000" font-family="sans-serif" font-size="14" lengthAdjust="spacing" textLength="410.6963" x="505.3926" y="1360.2988">&#22269;&#26377;&#20445;&#38505;&#20844;&#21496;&#32463;&#29702;&#21644;&#25237;&#20445;&#20154;&#20869;&#22806;&#21246;&#32467;&#65292;&#39575;&#21462;&#20844;&#21496;&#30340;&#20445;&#38505;&#37329;&#65288;P372&#65289;</text><path d="M445.3926,1325.7656 L455.3926,1325.7656 C470.3926,1325.7656 470.3926,1354.5703 485.3926,1354.5703 L495.3926,1354.5703 " fill="none" style="stroke:#181818;stroke-width:1;"/><rect fill="#F1F1F1" height="37.6094" rx="12.5" ry="12.5" style="stroke:#181818;stroke-width:1.5;" width="482" x="495.3926" y="1393.375"/><text fill="#000000" font-family="sans-serif" font-size="14" lengthAdjust="spacing" textLength="462" x="505.3926" y="1417.9082">&#26449;&#27665;&#19982;&#27665;&#25919;&#23616;&#38271;&#20018;&#36890;&#65288;&#27880;&#24847;&#65292;&#27809;&#26377;&#34987;&#39575;&#65289;&#65292;&#38750;&#27861;&#33719;&#21462;&#27665;&#25919;&#23616;&#30340;&#21361;&#25151;&#34917;&#21161;&#27454;&#12290;</text><path d="M445.3926,1325.7656 L455.3926,1325.7656 C470.3926,1325.7656 470.3926,1412.1797 485.3926,1412.1797 L495.3926,1412.1797 " fill="none" style="stroke:#181818;stroke-width:1;"/><path d="M258.6963,1294.3906 L268.6963,1294.3906 C283.6963,1294.3906 283.6963,1325.7656 298.6963,1325.7656 L308.6963,1325.7656 " fill="none" style="stroke:#181818;stroke-width:1;"/><rect fill="#F1F1F1" height="37.6094" rx="12.5" ry="12.5" style="stroke:#181818;stroke-width:1.5;" width="136.6963" x="308.6963" y="1364.5703"/><text fill="#000000" font-family="sans-serif" font-size="14" lengthAdjust="spacing" textLength="116.6963" x="318.6963" y="1389.1035">&#22788;&#32602;&#38382;&#39064;&#65288;P372&#65289;</text><path d="M258.6963,1294.3906 L268.6963,1294.3906 C283.6963,1294.3906 283.6963,1383.375 298.6963,1383.375 L308.6963,1383.375 " fill="none" style="stroke:#181818;stroke-width:1;"/><path d="M132.6963,744.7969 L142.6963,744.7969 C157.6963,744.7969 157.6963,1294.3906 172.6963,1294.3906 L182.6963,1294.3906 " fill="none" style="stroke:#181818;stroke-width:1;"/><!--SRC=[xLbRJzjM77_tfpXJNzfEKA28LOXL1LgqLgMg1krhPH8tk7Nio77IiMbIkDyXZ78lh44mBcL0Maf3mkN3rCTsdleLzZy-SN12Z5tU9gMg8lkSt_z-EpxS2okih0HvqHzaGmpp0o_wX8YVGvMLj-1_MEaIk5iXWHMLI52e8B0Am5MOwvKyh36CmYi2X_3I2Tuzr3xDw4iZg08P1zjQCc4Sd1cVU_Al-idsj-CX8zQhznnzEnvcc9i56qzlrzqXomZ-tKJQIfys53V-wLOpX-OINSQxgyP6Jtw1BXg9CJMLnlqx-7YoO2ktRGb1FwD6z2Dgke2XkCQIwvRS5P121Jd2A5Gz_OpZAs0GUHX_RvdaJA0lpU79MI201tsxruqWfr1_4iV7WB_sRXWrr2iopug1YC3ABruARE259Bu8IM6b_gwBxEnsJhQnDmJFxihIy7bHqEOn_JYDrvBVhUPDXr3bzghTL3LbgwcCUZBjHM4pXV6NTVNadPfEuwdvA_aL5Alnf1ZUEpAI2K-Xte5e6mUh-l2MApnl2-G59O7WmgkNhBB47QgPMRjGmg5_npi7VQCR79YdXLUWHGtNPCvV_vjBIjhBTbLDRsYn3Joq1Ls5A15BQykz9g-h1UQsfy1eiqUb6aa9Ju5YRpUDxZ4yab1Fp-3rofLeSzvkGeyFWDbUmmLrTh19LR4rIaZxYuqokxm2BPes3HBWtKCQ97snJr_QXTyItHCSOWnkuoz9IbOQeU_igAbXKZLNQqXWnlw0NQDiZAIG0rRDh6j_n_MDSHmVLu-6zSm28PrCQSFJsiwfDK3cLhFTFTcvtUpgl3bTVggsPp29tfes-w_sVX0F3XJv2RemTCMliMxQ7alO3AluT4wRWEGyj9VAUS5aqlg7KUevS2prIt49MSE2APsA9sVQS0p88EbjUci9c2oZHNoqTzjWhUFmezldRl0S8CkF9SC-Za-IU7gS8i186DXWynM2JpdW-CItup4yEGIvGFseZSUDp-zfVA45gEbHDRN85DDfC_lPrUMIaRQwMT7K8l6RrvTIr3cKfighMypPgu_iEQPMBeVUVgITjsYe0D8IEwOUBU3Z6EuUn9DJ-lhcHGvQxoUQWiR11xoqRoJMySWM9NHYZbExbAUnrwtD4uzI3lhQgNgsZ9CnDRK0iQAiieDJrMfg4FVtCgK6211a5xPeSUcPIUXB-AynRMG6recyWNwyDej7J_NCT5vC3hpOHsb10FLGpKKFQSjJslwKcfg0N-tj6QYMdJbJKn-piKMWqJvjQdsJm5Vxc22pRFK3FPyGIMORCoQ-WBmyhLbaIMteZ5e6ZU1hhCSUjBK-_MJH7ZHJ9UOU1sTVw_nxh_0ut60UTEyokONxF1kGsI3w0zXMTWWHpdn2g8drlGx8KaJqDqk292E13tGgP1zs_oHOFok_Xk7d0C_jMk20p77YPPnDW0tTvGBkih2I3Adjf3JTjA2XY1mIdA1qqu8w6sOpIfR2JjokjRGqDJKtMyWkJX2aDmvOkcb2cSeWouljdLpGOjmYYKeR_pk7RbSnP9yBXZhPC1zszwKTNUK03x_kCaDgnzPSxaixj0cMV9sGXvwKuGEY97CUuehGOrxaYjVFMNWKUoahmamK9HydAaw-4SsWq13GfGu1C4LSeNYeRZwPpqVjV5kHWgmYKUL51QJnaiWApT-BVIfp8LPcoShta3LsIBBYbdPUUIaAn5rngpIFt9gb89IRufGEEKedTYHy8XU0Y09JkpClwrfkaVHpNCXU48K27a0NxH3uSATpoxFH5qfxqyahnRvn4FD4KjmbcLRvkbZHWrK-riyfUM6ipyVxdNE-e1MxSNu9fHYsrJUy-xXMzXKNSQboIG0LPCbloq2N6hCeJ3bmTE4LFier-cpbSA6TimBdrP1p4o0Mh2lh80yJbFH-BpcL6uE4UJZIyOhp4VPEtc6ZCBSvsIFVA2z11Pci9JVEnE-UtNtUwGiBz_9QBSXbrnd2m4_3hTnHf7pVLhvlAz-tbU_RolTjvVksydrR-RwjVDzMlc_x_zwtFIL_MdxM-XX5EJbCFYEgAskgQcehxrnlOnNqH8gYwZfKLLrVMrjVMuUQszeHsRx1N6zzs8x2KWI-ef0VlZ5alYD23jutc4Tib4M_Hk0O7kJg4Ncxtjvw0xKzi1RH0p7Aov8OXACty-XvAmMXNoIbBIGf9hYkjgA9Lr0R9uDQw7ahSvzxoKO41KXzafyN0_NeMNjBnHtcCKbTDW22uAEe6SxkYjm5Ust_0G00]--></g></svg>