<?xml version="1.0" encoding="us-ascii" standalone="no"?><svg xmlns="http://www.w3.org/2000/svg" xmlns:xlink="http://www.w3.org/1999/xlink" contentStyleType="text/css" height="673px" preserveAspectRatio="none" style="width:552px;height:673px;background:#FFFFFF;" version="1.1" viewBox="0 0 552 673" width="552px" zoomAndPan="magnify"><defs/><g><!--cluster netty--><g id="cluster_netty"><path d="M8.5,6.0137 L61.5,6.0137 A3.75,3.75 0 0 1 64,8.5137 L71,30.6348 L542.5,30.6348 A2.5,2.5 0 0 1 545,33.1348 L545,663.5137 A2.5,2.5 0 0 1 542.5,666.0137 L8.5,666.0137 A2.5,2.5 0 0 1 6,663.5137 L6,8.5137 A2.5,2.5 0 0 1 8.5,6.0137 " fill="none" style="stroke:#000000;stroke-width:1.5;"/><line style="stroke:#000000;stroke-width:1.5;" x1="6" x2="71" y1="30.6348" y2="30.6348"/><text fill="#000000" font-family="sans-serif" font-size="14" font-weight="bold" lengthAdjust="spacing" textLength="52" x="10" y="23.1211">io.netty</text></g><!--cluster concurrent--><g id="cluster_concurrent"><path d="M32.5,51.0137 L137.5,51.0137 A3.75,3.75 0 0 1 140,53.5137 L147,75.6348 L518.5,75.6348 A2.5,2.5 0 0 1 521,78.1348 L521,342.5137 A2.5,2.5 0 0 1 518.5,345.0137 L32.5,345.0137 A2.5,2.5 0 0 1 30,342.5137 L30,53.5137 A2.5,2.5 0 0 1 32.5,51.0137 " fill="none" style="stroke:#000000;stroke-width:1.5;"/><line style="stroke:#000000;stroke-width:1.5;" x1="30" x2="147" y1="75.6348" y2="75.6348"/><text fill="#000000" font-family="sans-serif" font-size="14" font-weight="bold" lengthAdjust="spacing" textLength="104" x="34" y="68.1211">util.concurrent</text></g><!--cluster channel--><g id="cluster_channel"><path d="M93.5,369.0137 L150.5,369.0137 A3.75,3.75 0 0 1 153,371.5137 L160,393.6348 L505.5,393.6348 A2.5,2.5 0 0 1 508,396.1348 L508,639.5137 A2.5,2.5 0 0 1 505.5,642.0137 L93.5,642.0137 A2.5,2.5 0 0 1 91,639.5137 L91,371.5137 A2.5,2.5 0 0 1 93.5,369.0137 " fill="none" style="stroke:#000000;stroke-width:1.5;"/><line style="stroke:#000000;stroke-width:1.5;" x1="91" x2="160" y1="393.6348" y2="393.6348"/><text fill="#000000" font-family="sans-serif" font-size="14" font-weight="bold" lengthAdjust="spacing" textLength="56" x="95" y="386.1211">channel</text></g><!--cluster nio--><g id="cluster_nio"><path d="M117.5,488.0137 L140.5,488.0137 A3.75,3.75 0 0 1 143,490.5137 L150,512.6348 L426.5,512.6348 A2.5,2.5 0 0 1 429,515.1348 L429,615.5137 A2.5,2.5 0 0 1 426.5,618.0137 L117.5,618.0137 A2.5,2.5 0 0 1 115,615.5137 L115,490.5137 A2.5,2.5 0 0 1 117.5,488.0137 " fill="none" style="stroke:#000000;stroke-width:1.5;"/><line style="stroke:#000000;stroke-width:1.5;" x1="115" x2="150" y1="512.6348" y2="512.6348"/><text fill="#000000" font-family="sans-serif" font-size="14" font-weight="bold" lengthAdjust="spacing" textLength="22" x="119" y="505.1211">nio</text></g><!--class AbstractEventExecutorGroup--><g id="elem_AbstractEventExecutorGroup"><rect codeLine="1" fill="#F1F1F1" height="58.6211" id="AbstractEventExecutorGroup" rx="2.5" ry="2.5" style="stroke:#181818;stroke-width:0.5;" width="214" x="46" y="97.0137"/><ellipse cx="61" cy="113.0137" fill="#A9DCDF" rx="11" ry="11" style="stroke:#181818;stroke-width:1.0;"/><path d="M61.4219,113.498 L58.8594,113.498 L58.3281,115.7949 Q58.2656,116.123 58.2656,116.2793 Q58.2656,116.498 58.3125,116.6543 Q58.375,116.8105 58.6563,116.8105 L59.125,116.8105 L59.125,117.748 L56.1406,117.748 L56.1406,116.8105 L56.5938,116.8105 Q56.7656,116.8105 56.8906,116.7168 Q57.0156,116.6074 57.0625,116.3105 L59.7031,105.9824 L61.1094,105.5137 L63.6875,116.2793 Q63.7969,116.5918 63.9219,116.7012 Q64.0625,116.8105 64.2344,116.8105 L64.7031,116.8105 L64.7031,117.748 L61.3125,117.748 L61.3125,116.8105 L61.8438,116.8105 Q62.0625,116.8105 62.0781,116.7637 Q62.1094,116.7012 62.1094,116.623 Q62.1094,116.4043 62.0625,116.2168 L61.4219,113.498 Z M56.8594,117.3418 L56.8594,117.3418 Z M57.5313,117.3418 L57.5313,117.3418 Z M62.25,117.3418 L62.25,117.3418 Z M63.375,117.3418 L63.375,117.3418 Z M60.1875,107.4043 L60.25,107.4043 L59.1406,112.5605 L61.2344,112.5605 L60.1875,107.4043 Z " fill="#000000"/><text fill="#000000" font-family="sans-serif" font-size="14" font-style="italic" lengthAdjust="spacing" textLength="182" x="75" y="118.8105">AbstractEventExecutorGroup</text><line style="stroke:#181818;stroke-width:0.5;" x1="47" x2="259" y1="129.0137" y2="129.0137"/><ellipse cx="57" cy="143.8242" fill="#84BE84" rx="3" ry="3" style="stroke:#038048;stroke-width:1.0;"/><text fill="#000000" font-family="sans-serif" font-size="14" lengthAdjust="spacing" textLength="184" x="66" y="148.1211">shutdownGracefully(): Future</text></g><!--class EventExecutorGroup--><g id="elem_EventExecutorGroup"><rect codeLine="1" fill="#F1F1F1" height="77.2422" id="EventExecutorGroup" rx="2.5" ry="2.5" style="stroke:#181818;stroke-width:0.5;" width="210" x="295" y="88.0137"/><ellipse cx="331.6" cy="104.0137" fill="#B4A7E5" rx="11" ry="11" style="stroke:#181818;stroke-width:1.0;"/><path d="M328.1938,98.7949 L328.1938,97.8574 L334.0375,97.8574 L334.0375,98.7949 L332.2406,98.7949 Q332.0688,98.7949 331.9906,98.8574 Q331.9125,98.9199 331.9125,99.0605 L331.9125,108.5449 Q331.9125,108.6855 331.9906,108.748 Q332.0688,108.8105 332.2406,108.8105 L334.0375,108.8105 L334.0375,109.748 L328.1938,109.748 L328.1938,108.8105 L329.9906,108.8105 Q330.2094,108.8105 330.2563,108.7637 Q330.3188,108.7012 330.3188,108.5449 L330.3188,99.0605 Q330.3188,98.9043 330.2563,98.8574 Q330.2094,98.7949 329.9906,98.7949 L328.1938,98.7949 Z " fill="#000000"/><text fill="#000000" font-family="sans-serif" font-size="14" font-style="italic" lengthAdjust="spacing" textLength="130" x="350.4" y="109.8105">EventExecutorGroup</text><line style="stroke:#181818;stroke-width:0.5;" x1="296" x2="504" y1="120.0137" y2="120.0137"/><ellipse cx="306" cy="134.8242" fill="#84BE84" rx="3" ry="3" style="stroke:#038048;stroke-width:1.0;"/><text fill="#000000" font-family="sans-serif" font-size="14" font-style="italic" lengthAdjust="spacing" textLength="134" x="315" y="139.1211">next(): EventExecutor</text><ellipse cx="306" cy="153.4453" fill="#84BE84" rx="3" ry="3" style="stroke:#038048;stroke-width:1.0;"/><text fill="#000000" font-family="sans-serif" font-size="14" font-style="italic" lengthAdjust="spacing" textLength="184" x="315" y="157.7422">shutdownGracefully(): Future</text></g><!--class MultithreadEventExecutorGroup--><g id="elem_MultithreadEventExecutorGroup"><rect codeLine="1" fill="#F1F1F1" height="103.8633" id="MultithreadEventExecutorGroup" rx="2.5" ry="2.5" style="stroke:#181818;stroke-width:0.5;" width="335" x="46.5" y="225.0137"/><ellipse cx="109.25" cy="241.0137" fill="#A9DCDF" rx="11" ry="11" style="stroke:#181818;stroke-width:1.0;"/><path d="M109.6719,241.498 L107.1094,241.498 L106.5781,243.7949 Q106.5156,244.123 106.5156,244.2793 Q106.5156,244.498 106.5625,244.6543 Q106.625,244.8105 106.9063,244.8105 L107.375,244.8105 L107.375,245.748 L104.3906,245.748 L104.3906,244.8105 L104.8438,244.8105 Q105.0156,244.8105 105.1406,244.7168 Q105.2656,244.6074 105.3125,244.3105 L107.9531,233.9824 L109.3594,233.5137 L111.9375,244.2793 Q112.0469,244.5918 112.1719,244.7012 Q112.3125,244.8105 112.4844,244.8105 L112.9531,244.8105 L112.9531,245.748 L109.5625,245.748 L109.5625,244.8105 L110.0938,244.8105 Q110.3125,244.8105 110.3281,244.7637 Q110.3594,244.7012 110.3594,244.623 Q110.3594,244.4043 110.3125,244.2168 L109.6719,241.498 Z M105.1094,245.3418 L105.1094,245.3418 Z M105.7813,245.3418 L105.7813,245.3418 Z M110.5,245.3418 L110.5,245.3418 Z M111.625,245.3418 L111.625,245.3418 Z M108.4375,235.4043 L108.5,235.4043 L107.3906,240.5605 L109.4844,240.5605 L108.4375,235.4043 Z " fill="#000000"/><text fill="#000000" font-family="sans-serif" font-size="14" font-style="italic" lengthAdjust="spacing" textLength="201" x="129.75" y="246.8105">MultithreadEventExecutorGroup</text><line style="stroke:#181818;stroke-width:0.5;" x1="47.5" x2="380.5" y1="257.0137" y2="257.0137"/><rect fill="none" height="6" style="stroke:#C82930;stroke-width:1.0;" width="6" x="54.5" y="268.8242"/><text fill="#000000" font-family="sans-serif" font-size="14" lengthAdjust="spacing" textLength="157" x="66.5" y="276.1211">children: EventExecutor[]</text><line style="stroke:#181818;stroke-width:1.0;" x1="47.5" x2="380.5" y1="283.6348" y2="283.6348"/><polygon fill="#FFFF44" points="57.5,293.4453,61.5,297.4453,57.5,301.4453,53.5,297.4453" style="stroke:#B38D22;stroke-width:1.0;"/><text fill="#000000" font-family="sans-serif" font-size="14" font-style="italic" lengthAdjust="spacing" textLength="277" x="66.5" y="302.7422">newChild(Executor, Object[]): EventExecutor</text><ellipse cx="57.5" cy="317.0664" fill="#84BE84" rx="3" ry="3" style="stroke:#038048;stroke-width:1.0;"/><text fill="#000000" font-family="sans-serif" font-size="14" lengthAdjust="spacing" textLength="309" x="66.5" y="321.3633">shutdownGracefully(long, long, TimeUnit): Future</text></g><!--class EventLoopGroup--><g id="elem_EventLoopGroup"><rect codeLine="1" fill="#F1F1F1" height="58.6211" id="EventLoopGroup" rx="2.5" ry="2.5" style="stroke:#181818;stroke-width:0.5;" width="139" x="352.5" y="406.0137"/><ellipse cx="367.5" cy="422.0137" fill="#B4A7E5" rx="11" ry="11" style="stroke:#181818;stroke-width:1.0;"/><path d="M364.0938,416.7949 L364.0938,415.8574 L369.9375,415.8574 L369.9375,416.7949 L368.1406,416.7949 Q367.9688,416.7949 367.8906,416.8574 Q367.8125,416.9199 367.8125,417.0605 L367.8125,426.5449 Q367.8125,426.6855 367.8906,426.748 Q367.9688,426.8105 368.1406,426.8105 L369.9375,426.8105 L369.9375,427.748 L364.0938,427.748 L364.0938,426.8105 L365.8906,426.8105 Q366.1094,426.8105 366.1563,426.7637 Q366.2188,426.7012 366.2188,426.5449 L366.2188,417.0605 Q366.2188,416.9043 366.1563,416.8574 Q366.1094,416.7949 365.8906,416.7949 L364.0938,416.7949 Z " fill="#000000"/><text fill="#000000" font-family="sans-serif" font-size="14" font-style="italic" lengthAdjust="spacing" textLength="107" x="381.5" y="427.8105">EventLoopGroup</text><line style="stroke:#181818;stroke-width:0.5;" x1="353.5" x2="490.5" y1="438.0137" y2="438.0137"/><text fill="#000000" font-family="sans-serif" font-size="14" lengthAdjust="spacing" textLength="112" x="358.5" y="457.1211">next(): EventLoop</text></g><!--class MultithreadEventLoopGroup--><g id="elem_MultithreadEventLoopGroup"><rect codeLine="1" fill="#F1F1F1" height="58.6211" id="MultithreadEventLoopGroup" rx="2.5" ry="2.5" style="stroke:#181818;stroke-width:0.5;" width="210" x="107" y="406.0137"/><ellipse cx="122" cy="422.0137" fill="#A9DCDF" rx="11" ry="11" style="stroke:#181818;stroke-width:1.0;"/><path d="M122.4219,422.498 L119.8594,422.498 L119.3281,424.7949 Q119.2656,425.123 119.2656,425.2793 Q119.2656,425.498 119.3125,425.6543 Q119.375,425.8105 119.6563,425.8105 L120.125,425.8105 L120.125,426.748 L117.1406,426.748 L117.1406,425.8105 L117.5938,425.8105 Q117.7656,425.8105 117.8906,425.7168 Q118.0156,425.6074 118.0625,425.3105 L120.7031,414.9824 L122.1094,414.5137 L124.6875,425.2793 Q124.7969,425.5918 124.9219,425.7012 Q125.0625,425.8105 125.2344,425.8105 L125.7031,425.8105 L125.7031,426.748 L122.3125,426.748 L122.3125,425.8105 L122.8438,425.8105 Q123.0625,425.8105 123.0781,425.7637 Q123.1094,425.7012 123.1094,425.623 Q123.1094,425.4043 123.0625,425.2168 L122.4219,422.498 Z M117.8594,426.3418 L117.8594,426.3418 Z M118.5313,426.3418 L118.5313,426.3418 Z M123.25,426.3418 L123.25,426.3418 Z M124.375,426.3418 L124.375,426.3418 Z M121.1875,416.4043 L121.25,416.4043 L120.1406,421.5605 L122.2344,421.5605 L121.1875,416.4043 Z " fill="#000000"/><text fill="#000000" font-family="sans-serif" font-size="14" font-style="italic" lengthAdjust="spacing" textLength="178" x="136" y="427.8105">MultithreadEventLoopGroup</text><line style="stroke:#181818;stroke-width:0.5;" x1="108" x2="316" y1="438.0137" y2="438.0137"/><text fill="#000000" font-family="sans-serif" font-size="14" lengthAdjust="spacing" textLength="112" x="113" y="457.1211">next(): EventLoop</text></g><!--class NioEventLoopGroup--><g id="elem_NioEventLoopGroup"><rect codeLine="1" fill="#F1F1F1" height="77.2422" id="NioEventLoopGroup" rx="2.5" ry="2.5" style="stroke:#181818;stroke-width:0.5;" width="281" x="131.5" y="525.0137"/><ellipse cx="203.75" cy="541.0137" fill="#ADD1B2" rx="11" ry="11" style="stroke:#181818;stroke-width:1.0;"/><path d="M203.0938,546.873 Q201.1094,546.873 199.9375,545.4043 Q198.7813,543.9199 198.7813,540.8418 Q198.7813,538.2324 200,536.4824 Q201.2344,534.7324 203.3594,534.7324 Q203.8594,534.7324 204.3906,534.873 Q204.8281,535.0605 205.0938,535.0605 Q205.3125,535.0605 205.4063,535.0137 Q205.5156,534.9668 205.9688,534.373 L206.7344,538.1074 L205.8438,538.373 Q205.3906,536.9199 204.7813,536.3262 Q204.1875,535.7168 203.2344,535.7168 Q202.0156,535.7168 201.2969,537.1543 Q200.5781,538.5762 200.5781,540.7637 Q200.5781,543.1699 201.1875,544.4668 Q201.8125,545.748 203.1719,545.748 Q204.125,545.748 204.8125,545.0605 Q205.5,544.3574 205.8281,542.8574 L206.7344,543.2637 Q206.3281,544.9668 205.3594,545.9199 Q204.4063,546.873 203.0938,546.873 Z " fill="#000000"/><text fill="#000000" font-family="sans-serif" font-size="14" lengthAdjust="spacing" textLength="128" x="224.25" y="546.8105">NioEventLoopGroup</text><line style="stroke:#181818;stroke-width:0.5;" x1="132.5" x2="411.5" y1="557.0137" y2="557.0137"/><ellipse cx="142.5" cy="571.8242" fill="#84BE84" rx="3" ry="3" style="stroke:#038048;stroke-width:1.0;"/><text fill="#000000" font-family="sans-serif" font-size="14" lengthAdjust="spacing" textLength="122" x="151.5" y="576.1211">setIoRatio(int): void</text><polygon fill="#FFFF44" points="142.5,585.4453,146.5,589.4453,142.5,593.4453,138.5,589.4453" style="stroke:#B38D22;stroke-width:1.0;"/><text fill="#000000" font-family="sans-serif" font-size="14" lengthAdjust="spacing" textLength="255" x="151.5" y="594.7422">newChild(Executor, Object[]): EventLoop</text></g><!--link AbstractEventExecutorGroup to EventExecutorGroup--><g id="link_AbstractEventExecutorGroup_EventExecutorGroup"><path codeLine="14" d="M260.1,126.5137 C271.67,126.5137 265.23,126.5137 276.8,126.5137 " fill="none" id="AbstractEventExecutorGroup-to-EventExecutorGroup" style="stroke:#181818;stroke-width:1.0;stroke-dasharray:7.0,7.0;"/><polygon fill="none" points="294.8,126.5137,276.8,120.5137,276.8,132.5137,294.8,126.5137" style="stroke:#181818;stroke-width:1.0;"/></g><!--reverse link AbstractEventExecutorGroup to MultithreadEventExecutorGroup--><g id="link_AbstractEventExecutorGroup_MultithreadEventExecutorGroup"><path codeLine="15" d="M171.601,172.793 C179.601,192.263 183.56,201.9137 193.01,224.9237 " fill="none" id="AbstractEventExecutorGroup-backto-MultithreadEventExecutorGroup" style="stroke:#181818;stroke-width:1.0;"/><polygon fill="none" points="164.76,156.1437,166.0512,175.0733,177.1508,170.5127,164.76,156.1437" style="stroke:#181818;stroke-width:1.0;"/></g><!--reverse link EventExecutorGroup to EventLoopGroup--><g id="link_EventExecutorGroup_EventLoopGroup"><path codeLine="17" d="M403.9859,183.1077 C408.4359,245.2377 415.94,349.9337 419.94,405.7037 " fill="none" id="EventExecutorGroup-backto-EventLoopGroup" style="stroke:#181818;stroke-width:1.0;"/><polygon fill="none" points="402.7,165.1537,398.0013,183.5363,409.9706,182.679,402.7,165.1537" style="stroke:#181818;stroke-width:1.0;"/></g><!--link MultithreadEventLoopGroup to EventLoopGroup--><g id="link_MultithreadEventLoopGroup_EventLoopGroup"><path codeLine="18" d="M317.41,435.5137 C328.99,435.5137 322.56,435.5137 334.14,435.5137 " fill="none" id="MultithreadEventLoopGroup-to-EventLoopGroup" style="stroke:#181818;stroke-width:1.0;stroke-dasharray:7.0,7.0;"/><polygon fill="none" points="352.14,435.5137,334.14,429.5137,334.14,441.5137,352.14,435.5137" style="stroke:#181818;stroke-width:1.0;"/></g><!--reverse link MultithreadEventExecutorGroup to MultithreadEventLoopGroup--><g id="link_MultithreadEventExecutorGroup_MultithreadEventLoopGroup"><path codeLine="19" d="M213.1171,347.2522 C212.7871,372.7522 212.64,384.6037 212.36,405.9937 " fill="none" id="MultithreadEventExecutorGroup-backto-MultithreadEventLoopGroup" style="stroke:#181818;stroke-width:1.0;"/><polygon fill="none" points="213.35,329.2537,207.1176,347.1745,219.1166,347.3298,213.35,329.2537" style="stroke:#181818;stroke-width:1.0;"/></g><!--reverse link MultithreadEventLoopGroup to NioEventLoopGroup--><g id="link_MultithreadEventLoopGroup_NioEventLoopGroup"><path codeLine="20" d="M233.3502,481.3545 C241.7902,499.0745 244.98,505.7737 254.11,524.9537 " fill="none" id="MultithreadEventLoopGroup-backto-NioEventLoopGroup" style="stroke:#181818;stroke-width:1.0;"/><polygon fill="none" points="225.61,465.1037,227.9333,483.9346,238.7672,478.7744,225.61,465.1037" style="stroke:#181818;stroke-width:1.0;"/></g><!--SRC=[ZP1D3i8W48Ntd8AkN1LlOEAYCIPgl0AbOuj28J0OJJoyzQSsRQKfAvXvtxp79DRnKdCQF6nh1AUXa1pXoCM5b-3fYIiFX2Io5YeKG1bRdeDOhdEFZWlChb1ZTWCHqBYDCy4o6xGQwUVgza6XnCe1Bs98FmoyLCeO-x7ODRV8-4uvD9a57QJv9svEV1UKELbMo1uhEcwIoR_IDDYquUB32UddQOaPJXqp2FXhJ21VcydqPBIj6DOvaaKbcwLhq3auJzuFq1RlRUa9]--></g></svg>